<?xml version="1.0" encoding="UTF-8" standalone="no"?>
<!-- Created with Inkscape (http://www.inkscape.org/) -->

<svg
   xmlns:dc="http://purl.org/dc/elements/1.1/"
   xmlns:cc="http://creativecommons.org/ns#"
   xmlns:rdf="http://www.w3.org/1999/02/22-rdf-syntax-ns#"
   xmlns:svg="http://www.w3.org/2000/svg"
   xmlns="http://www.w3.org/2000/svg"
   xmlns:sodipodi="http://sodipodi.sourceforge.net/DTD/sodipodi-0.dtd"
   xmlns:inkscape="http://www.inkscape.org/namespaces/inkscape"
   width="8.79"
   height="3.8099999"
   id="svg7187"
   version="1.1"
   inkscape:version="0.48.3.1 r9886"
   sodipodi:docname="GeoPat_Siltstein2.svg">
  <defs
     id="defs7189" />
  <sodipodi:namedview
     id="base"
     pagecolor="#ffffff"
     bordercolor="#666666"
     borderopacity="1.0"
     inkscape:pageopacity="0.0"
     inkscape:pageshadow="2"
     inkscape:zoom="45.254834"
     inkscape:cx="4.6299443"
     inkscape:cy="3.8100814"
     inkscape:current-layer="layer1"
     showgrid="true"
     inkscape:grid-bbox="true"
     inkscape:document-units="px"
     fit-margin-top="0"
     fit-margin-left="0"
     fit-margin-right="0"
     fit-margin-bottom="0"
     inkscape:window-width="861"
     inkscape:window-height="1002"
     inkscape:window-x="25"
     inkscape:window-y="0"
     inkscape:window-maximized="0"
     showguides="true"
     inkscape:guide-bbox="true"
     inkscape:snap-object-midpoints="true"
     inkscape:object-paths="true"
     inkscape:object-nodes="true"
     inkscape:snap-center="true"
     inkscape:snap-to-guides="true"
     inkscape:snap-global="true"
     inkscape:snap-bbox="true" />
  <metadata
     id="metadata7192">
    <rdf:RDF>
      <cc:Work
         rdf:about="">
        <dc:format>image/svg+xml</dc:format>
        <dc:type
           rdf:resource="http://purl.org/dc/dcmitype/StillImage" />
        <dc:title />
      </cc:Work>
    </rdf:RDF>
  </metadata>
  <g
     id="layer1"
     inkscape:label="Layer 1"
     inkscape:groupmode="layer"
     transform="translate(0.03125,1.3537502)">
    <g
       id="g4821">
      <path
         inkscape:connector-curvature="0"
         id="path4649"
         d="m -0.03161571,0.26875 3.96875001,0"
         style="color:#000000;fill:none;stroke:#000000;stroke-width:0.30000001;stroke-linecap:butt;stroke-linejoin:miter;stroke-miterlimit:4;stroke-opacity:1;stroke-dasharray:none;stroke-dashoffset:0;marker:none;visibility:visible;display:inline;overflow:visible;enable-background:accumulate" />
      <path
         transform="matrix(0.375,0,0,0.375,2.8710196,0.1515625)"
         d="m 6.6871343,0.3125 c 0,0.41421356 -0.3357865,0.75 -0.75,0.75 -0.4142136,0 -0.75,-0.33578644 -0.75,-0.75 0,-0.41421356 0.3357864,-0.75 0.75,-0.75 0.4142135,0 0.75,0.33578644 0.75,0.75 z"
         sodipodi:ry="0.75"
         sodipodi:rx="0.75"
         sodipodi:cy="0.3125"
         sodipodi:cx="5.9371343"
         style="fill:#000000;stroke:none"
         id="path4651"
         sodipodi:type="arc" />
      <path
         sodipodi:type="arc"
         id="path4653"
         style="fill:#000000;stroke:none"
         sodipodi:cx="5.9371343"
         sodipodi:cy="0.3125"
         sodipodi:rx="0.75"
         sodipodi:ry="0.75"
         d="m 6.6871343,0.3125 c 0,0.41421356 -0.3357865,0.75 -0.75,0.75 -0.4142136,0 -0.75,-0.33578644 -0.75,-0.75 0,-0.41421356 0.3357864,-0.75 0.75,-0.75 0.4142135,0 0.75,0.33578644 0.75,0.75 z"
         transform="matrix(0.375,0,0,0.375,4.1210196,0.1515625)" />
      <path
         transform="matrix(0.375,0,0,0.375,5.3710196,0.1515625)"
         d="m 6.6871343,0.3125 c 0,0.41421356 -0.3357865,0.75 -0.75,0.75 -0.4142136,0 -0.75,-0.33578644 -0.75,-0.75 0,-0.41421356 0.3357864,-0.75 0.75,-0.75 0.4142135,0 0.75,0.33578644 0.75,0.75 z"
         sodipodi:ry="0.75"
         sodipodi:rx="0.75"
         sodipodi:cy="0.3125"
         sodipodi:cx="5.9371343"
         style="fill:#000000;stroke:none"
         id="path4655"
         sodipodi:type="arc" />
      <g
         transform="matrix(-1,0,0,1,7.849423,0.40625)"
         id="g4677">
        <path
           inkscape:connector-curvature="0"
           id="path4669"
           d="m -0.03161571,1.76875 3.96875001,0"
           style="color:#000000;fill:none;stroke:#000000;stroke-width:0.30000001;stroke-linecap:butt;stroke-linejoin:miter;stroke-miterlimit:4;stroke-opacity:1;stroke-dasharray:none;stroke-dashoffset:0;marker:none;visibility:visible;display:inline;overflow:visible;enable-background:accumulate" />
        <path
           transform="matrix(0.375,0,0,0.375,2.8710196,1.6515625)"
           d="m 6.6871343,0.3125 c 0,0.41421356 -0.3357865,0.75 -0.75,0.75 -0.4142136,0 -0.75,-0.33578644 -0.75,-0.75 0,-0.41421356 0.3357864,-0.75 0.75,-0.75 0.4142135,0 0.75,0.33578644 0.75,0.75 z"
           sodipodi:ry="0.75"
           sodipodi:rx="0.75"
           sodipodi:cy="0.3125"
           sodipodi:cx="5.9371343"
           style="fill:#000000;stroke:none"
           id="path4671"
           sodipodi:type="arc" />
        <path
           sodipodi:type="arc"
           id="path4673"
           style="fill:#000000;stroke:none"
           sodipodi:cx="5.9371343"
           sodipodi:cy="0.3125"
           sodipodi:rx="0.75"
           sodipodi:ry="0.75"
           d="m 6.6871343,0.3125 c 0,0.41421356 -0.3357865,0.75 -0.75,0.75 -0.4142136,0 -0.75,-0.33578644 -0.75,-0.75 0,-0.41421356 0.3357864,-0.75 0.75,-0.75 0.4142135,0 0.75,0.33578644 0.75,0.75 z"
           transform="matrix(0.375,0,0,0.375,4.1210196,1.6515625)" />
        <path
           transform="matrix(0.375,0,0,0.375,5.3710196,1.6515625)"
           d="m 6.6871343,0.3125 c 0,0.41421356 -0.3357865,0.75 -0.75,0.75 -0.4142136,0 -0.75,-0.33578644 -0.75,-0.75 0,-0.41421356 0.3357864,-0.75 0.75,-0.75 0.4142135,0 0.75,0.33578644 0.75,0.75 z"
           sodipodi:ry="0.75"
           sodipodi:rx="0.75"
           sodipodi:cy="0.3125"
           sodipodi:cx="5.9371343"
           style="fill:#000000;stroke:none"
           id="path4675"
           sodipodi:type="arc" />
      </g>
      <rect
         y="-1.3522617"
         x="-0.040402915"
         height="3.8071711"
         width="8.8037939"
         id="rect4819"
         style="fill:none;stroke:none" />
    </g>
  </g>
</svg>
