<?xml version="1.0" encoding="UTF-8" standalone="no"?>
<!-- Created with Inkscape (http://www.inkscape.org/) -->

<svg
   xmlns:dc="http://purl.org/dc/elements/1.1/"
   xmlns:cc="http://creativecommons.org/ns#"
   xmlns:rdf="http://www.w3.org/1999/02/22-rdf-syntax-ns#"
   xmlns:svg="http://www.w3.org/2000/svg"
   xmlns="http://www.w3.org/2000/svg"
   xmlns:sodipodi="http://sodipodi.sourceforge.net/DTD/sodipodi-0.dtd"
   xmlns:inkscape="http://www.inkscape.org/namespaces/inkscape"
   width="16"
   height="16"
   id="svg4090"
   version="1.1"
   inkscape:version="0.48.3.1 r9886"
   sodipodi:docname="GeoPat_Kalkstein_oolithisch.svg">
  <defs
     id="defs4092" />
  <sodipodi:namedview
     id="base"
     pagecolor="#ffffff"
     bordercolor="#666666"
     borderopacity="1.0"
     inkscape:pageopacity="0.0"
     inkscape:pageshadow="2"
     inkscape:zoom="22.627417"
     inkscape:cx="3.756928"
     inkscape:cy="11.855615"
     inkscape:current-layer="layer1"
     showgrid="true"
     inkscape:grid-bbox="true"
     inkscape:document-units="px"
     fit-margin-top="0"
     fit-margin-left="0"
     fit-margin-right="0"
     fit-margin-bottom="0"
     inkscape:window-width="834"
     inkscape:window-height="847"
     inkscape:window-x="83"
     inkscape:window-y="0"
     inkscape:window-maximized="0"
     showguides="true"
     inkscape:guide-bbox="true"
     inkscape:snap-bbox="true"
     inkscape:object-paths="true"
     inkscape:object-nodes="true" />
  <metadata
     id="metadata4095">
    <rdf:RDF>
      <cc:Work
         rdf:about="">
        <dc:format>image/svg+xml</dc:format>
        <dc:type
           rdf:resource="http://purl.org/dc/dcmitype/StillImage" />
        <dc:title />
      </cc:Work>
    </rdf:RDF>
  </metadata>
  <g
     id="layer1"
     inkscape:label="Layer 1"
     inkscape:groupmode="layer"
     transform="translate(0.11693141,-0.20951634)">
    <g
       id="g4682">
      <path
         d="m 7.9018891,0.18229968 0,7.94575092 m 8.0191149,7.9457494 -15.89186697,0 0,-7.9457492 15.89186697,0"
         style="fill:none;stroke:#000000;stroke-width:0.30000004;stroke-miterlimit:4;stroke-dasharray:none"
         id="line3811"
         inkscape:connector-curvature="0" />
      <g
         transform="matrix(1.0036768,0,0,1.0036768,0.02089063,-0.19098791)"
         id="g5041">
        <ellipse
           d="m 10.17935,7.0113001 c 0,1.518783 -1.2311946,2.75 -2.74995,2.75 -1.5187554,0 -2.74995,-1.231217 -2.74995,-2.75 0,-1.5187831 1.2311946,-2.75 2.74995,-2.75 1.5187554,0 2.74995,1.2312169 2.74995,2.75 z"
           style="fill:none;stroke:#000000;stroke-width:0.39699343;stroke-miterlimit:4;stroke-dasharray:none"
           sodipodi:ry="2.75"
           sodipodi:rx="2.7499499"
           sodipodi:cy="7.0113001"
           sodipodi:cx="7.4294"
           class="fil0 str0"
           cx="7.4294"
           cy="7.0113001"
           rx="2.7499499"
           ry="2.75"
           id="ellipse3825"
           transform="matrix(0.75291183,0,0,0.75291183,-1.6629462,-0.94868559)" />
        <ellipse
           d="m 9.6554599,7.0113001 c 0,1.2294411 -0.996641,2.2261 -2.2260599,2.2261 -1.229419,0 -2.2260599,-0.9966589 -2.2260599,-2.2261 0,-1.2294411 0.9966409,-2.2261 2.2260599,-2.2261 1.2294189,0 2.2260599,0.9966589 2.2260599,2.2261 z"
           style="fill:none;stroke:#000000;stroke-width:0.48685691;stroke-miterlimit:4;stroke-dasharray:none"
           sodipodi:ry="2.2261"
           sodipodi:rx="2.2260599"
           sodipodi:cy="7.0113001"
           sodipodi:cx="7.4294"
           class="fil0 str0"
           cx="7.4294"
           cy="7.0113001"
           rx="2.2260599"
           ry="2.2261"
           id="ellipse3827"
           transform="matrix(0.61394018,0,0,0.61394018,-0.63047024,0.02568634)" />
      </g>
      <g
         transform="matrix(1.0036768,0,0,1.0036768,7.8931122,-0.19098776)"
         id="g5045">
        <ellipse
           transform="matrix(0.75291183,0,0,0.75291183,-1.6629462,-0.94868559)"
           id="ellipse5047"
           ry="2.75"
           rx="2.7499499"
           cy="7.0113001"
           cx="7.4294"
           class="fil0 str0"
           sodipodi:cx="7.4294"
           sodipodi:cy="7.0113001"
           sodipodi:rx="2.7499499"
           sodipodi:ry="2.75"
           style="fill:none;stroke:#000000;stroke-width:0.39699343;stroke-miterlimit:4;stroke-dasharray:none"
           d="m 10.17935,7.0113001 c 0,1.518783 -1.2311946,2.75 -2.74995,2.75 -1.5187554,0 -2.74995,-1.231217 -2.74995,-2.75 0,-1.5187831 1.2311946,-2.75 2.74995,-2.75 1.5187554,0 2.74995,1.2312169 2.74995,2.75 z" />
        <ellipse
           transform="matrix(0.61394018,0,0,0.61394018,-0.63047024,0.02568634)"
           id="ellipse5049"
           ry="2.2261"
           rx="2.2260599"
           cy="7.0113001"
           cx="7.4294"
           class="fil0 str0"
           sodipodi:cx="7.4294"
           sodipodi:cy="7.0113001"
           sodipodi:rx="2.2260599"
           sodipodi:ry="2.2261"
           style="fill:none;stroke:#000000;stroke-width:0.48685691;stroke-miterlimit:4;stroke-dasharray:none"
           d="m 9.6554599,7.0113001 c 0,1.2294411 -0.996641,2.2261 -2.2260599,2.2261 -1.229419,0 -2.2260599,-0.9966589 -2.2260599,-2.2261 0,-1.2294411 0.9966409,-2.2261 2.2260599,-2.2261 1.2294189,0 2.2260599,0.9966589 2.2260599,2.2261 z" />
      </g>
      <g
         id="g5059"
         transform="matrix(1.0036768,0,0,1.0036768,7.8931122,7.7547605)">
        <ellipse
           d="m 10.17935,7.0113001 c 0,1.518783 -1.2311946,2.75 -2.74995,2.75 -1.5187554,0 -2.74995,-1.231217 -2.74995,-2.75 0,-1.5187831 1.2311946,-2.75 2.74995,-2.75 1.5187554,0 2.74995,1.2312169 2.74995,2.75 z"
           style="fill:none;stroke:#000000;stroke-width:0.39699343;stroke-miterlimit:4;stroke-dasharray:none"
           sodipodi:ry="2.75"
           sodipodi:rx="2.7499499"
           sodipodi:cy="7.0113001"
           sodipodi:cx="7.4294"
           class="fil0 str0"
           cx="7.4294"
           cy="7.0113001"
           rx="2.7499499"
           ry="2.75"
           id="ellipse5061"
           transform="matrix(0.75291183,0,0,0.75291183,-1.6629462,-0.94868559)" />
        <ellipse
           d="m 9.6554599,7.0113001 c 0,1.2294411 -0.996641,2.2261 -2.2260599,2.2261 -1.229419,0 -2.2260599,-0.9966589 -2.2260599,-2.2261 0,-1.2294411 0.9966409,-2.2261 2.2260599,-2.2261 1.2294189,0 2.2260599,0.9966589 2.2260599,2.2261 z"
           style="fill:none;stroke:#000000;stroke-width:0.48685691;stroke-miterlimit:4;stroke-dasharray:none"
           sodipodi:ry="2.2261"
           sodipodi:rx="2.2260599"
           sodipodi:cy="7.0113001"
           sodipodi:cx="7.4294"
           class="fil0 str0"
           cx="7.4294"
           cy="7.0113001"
           rx="2.2260599"
           ry="2.2261"
           id="ellipse5063"
           transform="matrix(0.61394018,0,0,0.61394018,-0.63047024,0.02568634)" />
      </g>
      <g
         transform="matrix(1.0036768,0,0,1.0036768,0.02036168,7.7547605)"
         id="g5065">
        <ellipse
           transform="matrix(0.75291183,0,0,0.75291183,-1.6629462,-0.94868559)"
           id="ellipse5067"
           ry="2.75"
           rx="2.7499499"
           cy="7.0113001"
           cx="7.4294"
           class="fil0 str0"
           sodipodi:cx="7.4294"
           sodipodi:cy="7.0113001"
           sodipodi:rx="2.7499499"
           sodipodi:ry="2.75"
           style="fill:none;stroke:#000000;stroke-width:0.39699343;stroke-miterlimit:4;stroke-dasharray:none"
           d="m 10.17935,7.0113001 c 0,1.518783 -1.2311946,2.75 -2.74995,2.75 -1.5187554,0 -2.74995,-1.231217 -2.74995,-2.75 0,-1.5187831 1.2311946,-2.75 2.74995,-2.75 1.5187554,0 2.74995,1.2312169 2.74995,2.75 z" />
        <ellipse
           transform="matrix(0.61394018,0,0,0.61394018,-0.63047024,0.02568634)"
           id="ellipse5069"
           ry="2.2261"
           rx="2.2260599"
           cy="7.0113001"
           cx="7.4294"
           class="fil0 str0"
           sodipodi:cx="7.4294"
           sodipodi:cy="7.0113001"
           sodipodi:rx="2.2260599"
           sodipodi:ry="2.2261"
           style="fill:none;stroke:#000000;stroke-width:0.48685691;stroke-miterlimit:4;stroke-dasharray:none"
           d="m 9.6554599,7.0113001 c 0,1.2294411 -0.996641,2.2261 -2.2260599,2.2261 -1.229419,0 -2.2260599,-0.9966589 -2.2260599,-2.2261 0,-1.2294411 0.9966409,-2.2261 2.2260599,-2.2261 1.2294189,0 2.2260599,0.9966589 2.2260599,2.2261 z" />
      </g>
    </g>
  </g>
</svg>
