<?xml version="1.0" encoding="UTF-8" standalone="no"?>
<!-- Created with Inkscape (http://www.inkscape.org/) -->

<svg
   xmlns:dc="http://purl.org/dc/elements/1.1/"
   xmlns:cc="http://creativecommons.org/ns#"
   xmlns:rdf="http://www.w3.org/1999/02/22-rdf-syntax-ns#"
   xmlns:svg="http://www.w3.org/2000/svg"
   xmlns="http://www.w3.org/2000/svg"
   xmlns:sodipodi="http://sodipodi.sourceforge.net/DTD/sodipodi-0.dtd"
   xmlns:inkscape="http://www.inkscape.org/namespaces/inkscape"
   width="16"
   height="16"
   id="svg4090"
   version="1.1"
   inkscape:version="0.48.2 r9819"
   sodipodi:docname="GeoPat_Salzgestein.svg">
  <defs
     id="defs4092" />
  <sodipodi:namedview
     id="base"
     pagecolor="#ffffff"
     bordercolor="#666666"
     borderopacity="1.0"
     inkscape:pageopacity="0.0"
     inkscape:pageshadow="2"
     inkscape:zoom="32"
     inkscape:cx="15.534428"
     inkscape:cy="6.6338246"
     inkscape:current-layer="layer1"
     showgrid="true"
     inkscape:grid-bbox="true"
     inkscape:document-units="px"
     fit-margin-top="0"
     fit-margin-left="0"
     fit-margin-right="0"
     fit-margin-bottom="0"
     inkscape:window-width="1920"
     inkscape:window-height="1000"
     inkscape:window-x="0"
     inkscape:window-y="25"
     inkscape:window-maximized="1"
     showguides="true"
     inkscape:guide-bbox="true"
     inkscape:snap-bbox="true"
     inkscape:object-paths="true"
     inkscape:object-nodes="true" />
  <metadata
     id="metadata4095">
    <rdf:RDF>
      <cc:Work
         rdf:about="">
        <dc:format>image/svg+xml</dc:format>
        <dc:type
           rdf:resource="http://purl.org/dc/dcmitype/StillImage" />
        <dc:title></dc:title>
      </cc:Work>
    </rdf:RDF>
  </metadata>
  <g
     id="layer1"
     inkscape:label="Layer 1"
     inkscape:groupmode="layer"
     transform="translate(0.72250375,11.304136)">
    <g
       id="g5922"
       transform="matrix(1.0350245,0,0,1.0350245,-0.46089798,0.33853744)">
      <path
         d="M 3.4041934,1.8637116 C 3.0746556,-0.51295906 2.1841454,-1.8641272 2.3439504,-5.4889625 M 15.205228,-11.192042 c 0.150499,6.3288448 -1.954751,4.6605524 -1.954751,10.9893973 M 11.87152,-11.189902 c 0.08597,7.8450641 1.977916,9.5920976 1.440452,15.4594498 M 9.4188771,-11.242999 C 9.5693752,-4.9141347 7.5040423,-6.251119 7.5040423,0.07772586 M 5.8321555,-11.207899 c 0.085969,7.8451415 2.3004214,9.6251152 1.7629578,15.492409 M 3.3873029,-11.239964 c 0.1504981,6.3287867 -2.1841182,3.3254363 -2.1841182,9.6542811 m -1.45058648,-9.6191811 c 0.0860383,7.8450639 3.24642918,8.9987859 0.0430193,15.2946128 M 11.89689,-11.21397 C 11.810852,-3.3689058 9.3169135,-3.5666828 9.4674116,4.2125398 M 5.8388428,-11.235897 C 6.4408351,-1.6437221 2.8503907,-1.6437221 3.3879233,4.2236301"
         style="fill:none;stroke:#000000;stroke-width:0.28984824;stroke-miterlimit:4;stroke-dasharray:none;stroke-dashoffset:0"
         id="path3051"
         inkscape:connector-curvature="0" />
      <polygon
         transform="matrix(0.68940945,0,0,0.68940945,-1.8074463,-12.070168)"
         id="polygon3053"
         points="7.7531,7.1241 4.2644,7.1241 6.0087,9.8841 "
         class="fil1"
         style="fill:#000000;stroke:none" />
      <polygon
         transform="matrix(0.68940945,0,0,0.68940945,-1.5756179,-12.097789)"
         id="polygon3055"
         points="13.4358,4.8016 14.4141,3.2535 12.4575,3.2535 "
         class="fil1"
         style="fill:#000000;stroke:none" />
      <polygon
         transform="matrix(0.68940945,0,0,0.68940945,-1.5756179,-12.097789)"
         id="polygon3057"
         points="21.6083,7.9018 22.5866,6.3537 20.63,6.3537 "
         class="fil1"
         style="fill:#000000;stroke:none" />
      <polygon
         transform="matrix(0.68940945,0,0,0.68940945,-1.5756179,-12.097789)"
         id="polygon3059"
         points="10.5988,18.2612 11.5771,16.7131 9.6205,16.7131 "
         class="fil1"
         style="fill:#000000;stroke:none" />
      <polygon
         transform="matrix(0.68940945,0,0,0.68940945,-1.5756179,-12.097789)"
         id="polygon3061"
         points="19.6857,24.0311 21.4301,21.2711 17.9414,21.2711 "
         class="fil1"
         style="fill:#000000;stroke:none" />
    </g>
  </g>
</svg>
