<?xml version="1.0" encoding="UTF-8" standalone="no"?>
<!-- Created with Inkscape (http://www.inkscape.org/) -->

<svg
   xmlns:dc="http://purl.org/dc/elements/1.1/"
   xmlns:cc="http://creativecommons.org/ns#"
   xmlns:rdf="http://www.w3.org/1999/02/22-rdf-syntax-ns#"
   xmlns:svg="http://www.w3.org/2000/svg"
   xmlns="http://www.w3.org/2000/svg"
   xmlns:sodipodi="http://sodipodi.sourceforge.net/DTD/sodipodi-0.dtd"
   xmlns:inkscape="http://www.inkscape.org/namespaces/inkscape"
   width="17.610001"
   height="19.375"
   id="svg7187"
   version="1.1"
   inkscape:version="0.48.3.1 r9886"
   sodipodi:docname="GeoPat_Serpentinit.svg">
  <defs
     id="defs7189" />
  <sodipodi:namedview
     id="base"
     pagecolor="#ffffff"
     bordercolor="#666666"
     borderopacity="1.0"
     inkscape:pageopacity="0.0"
     inkscape:pageshadow="2"
     inkscape:zoom="16"
     inkscape:cx="16.143223"
     inkscape:cy="10.273458"
     inkscape:current-layer="layer1"
     showgrid="true"
     inkscape:grid-bbox="true"
     inkscape:document-units="px"
     fit-margin-top="0"
     fit-margin-left="0"
     fit-margin-right="0"
     fit-margin-bottom="0"
     inkscape:window-width="1233"
     inkscape:window-height="977"
     inkscape:window-x="25"
     inkscape:window-y="25"
     inkscape:window-maximized="0"
     showguides="true"
     inkscape:guide-bbox="true"
     inkscape:snap-object-midpoints="true"
     inkscape:object-paths="true"
     inkscape:object-nodes="true"
     inkscape:snap-center="true"
     inkscape:snap-to-guides="true"
     inkscape:snap-global="true" />
  <metadata
     id="metadata7192">
    <rdf:RDF>
      <cc:Work
         rdf:about="">
        <dc:format>image/svg+xml</dc:format>
        <dc:type
           rdf:resource="http://purl.org/dc/dcmitype/StillImage" />
        <dc:title />
      </cc:Work>
    </rdf:RDF>
  </metadata>
  <g
     id="layer1"
     inkscape:label="Layer 1"
     inkscape:groupmode="layer"
     transform="translate(0.03161571,5.28125)">
    <g
       id="g4856">
      <path
         inkscape:connector-curvature="0"
         d="m 1.9126362,-3.5169552 c 0,0 0.5303302,2.1102719 -0.8507378,2.9499613 M 0.31556416,-2.2905668 c 0,0 -0.8065438,-1.7788154 0.72920384,-2.8726214 m 0.9722718,0.795495 c -2.82298104,0.29295 0.8928477,2.3179533 -1.85615534,3.0052041"
         style="color:#000000;fill:none;stroke:#000000;stroke-width:0.30000001;stroke-linecap:butt;stroke-linejoin:miter;stroke-miterlimit:4;stroke-opacity:1;stroke-dasharray:none;stroke-dashoffset:0;marker:none;visibility:visible;display:inline;overflow:visible;enable-background:accumulate"
         id="path4589" />
      <path
         id="path4592"
         style="color:#000000;fill:none;stroke:#000000;stroke-width:0.30000001;stroke-linecap:butt;stroke-linejoin:miter;stroke-miterlimit:4;stroke-opacity:1;stroke-dasharray:none;stroke-dashoffset:0;marker:none;visibility:visible;display:inline;overflow:visible;enable-background:accumulate"
         d="m 10.720439,-3.5173026 c 0,0 0.53033,2.1102719 -0.8507376,2.9499613 M 9.1233671,-2.2909142 c 0,0 -0.8065438,-1.7788154 0.7292039,-2.8726214 m 0.972272,0.795495 c -2.8229813,0.29295 0.892847,2.3179533 -1.8561556,3.0052041"
         inkscape:connector-curvature="0" />
      <path
         inkscape:connector-curvature="0"
         d="m 6.3194718,1.3246229 c 0,0 0.53033,2.1102719 -0.8507376,2.9499613 M 4.7223999,2.5510113 c 0,0 -0.8065438,-1.77881538 0.7292039,-2.87262138 m 0.972272,0.795495 C 3.6008945,0.76683492 7.3167228,2.7918382 4.5677202,3.479089"
         style="color:#000000;fill:none;stroke:#000000;stroke-width:0.30000001;stroke-linecap:butt;stroke-linejoin:miter;stroke-miterlimit:4;stroke-opacity:1;stroke-dasharray:none;stroke-dashoffset:0;marker:none;visibility:visible;display:inline;overflow:visible;enable-background:accumulate"
         id="path4594" />
      <path
         id="path4596"
         style="color:#000000;fill:none;stroke:#000000;stroke-width:0.30000001;stroke-linecap:butt;stroke-linejoin:miter;stroke-miterlimit:4;stroke-opacity:1;stroke-dasharray:none;stroke-dashoffset:0;marker:none;visibility:visible;display:inline;overflow:visible;enable-background:accumulate"
         d="m 15.127274,1.1219001 c 0,0 0.53033,2.1102719 -0.850737,2.9499613 M 13.530202,2.3482885 c 0,0 -0.806543,-1.77881535 0.729204,-2.87262135 m 0.972272,0.795495 c -2.822981,0.29295 0.892847,2.31795325 -1.856155,3.00520405"
         inkscape:connector-curvature="0" />
      <path
         inkscape:connector-curvature="0"
         d="m 10.720439,6.1576407 c 0,0 0.53033,2.1102718 -0.8507369,2.9499612 M 9.1233671,7.384029 c 0,0 -0.806543,-1.7788153 0.729204,-2.8726213 m 0.9722719,0.795495 c -2.8229809,0.29295 0.892847,2.3179532 -1.8561549,3.005204"
         style="color:#000000;fill:none;stroke:#000000;stroke-width:0.30000001;stroke-linecap:butt;stroke-linejoin:miter;stroke-miterlimit:4;stroke-opacity:1;stroke-dasharray:none;stroke-dashoffset:0;marker:none;visibility:visible;display:inline;overflow:visible;enable-background:accumulate"
         id="path4598" />
      <path
         id="path4600"
         style="color:#000000;fill:none;stroke:#000000;stroke-width:0.30000001;stroke-linecap:butt;stroke-linejoin:miter;stroke-miterlimit:4;stroke-opacity:1;stroke-dasharray:none;stroke-dashoffset:0;marker:none;visibility:visible;display:inline;overflow:visible;enable-background:accumulate"
         d="m 15.127274,11.001784 c 0,0 0.53033,2.110271 -0.850737,2.94996 m -0.746335,-1.723572 c 0,0 -0.806543,-1.778815 0.729204,-2.8726213 m 0.972272,0.7954953 c -2.822981,0.29295 0.892847,2.317952 -1.856155,3.005203"
         inkscape:connector-curvature="0" />
      <path
         inkscape:connector-curvature="0"
         d="m 6.3194716,11.001784 c 0,0 0.53033,2.110271 -0.850737,2.94996 m -0.746335,-1.723572 c 0,0 -0.806543,-1.778815 0.729204,-2.872621 m 0.972272,0.795495 c -2.822981,0.29295 0.892847,2.317952 -1.856155,3.005203"
         style="color:#000000;fill:none;stroke:#000000;stroke-width:0.30000001;stroke-linecap:butt;stroke-linejoin:miter;stroke-miterlimit:4;stroke-opacity:1;stroke-dasharray:none;stroke-dashoffset:0;marker:none;visibility:visible;display:inline;overflow:visible;enable-background:accumulate"
         id="path4602" />
      <path
         id="path4604"
         style="color:#000000;fill:none;stroke:#000000;stroke-width:0.30000001;stroke-linecap:butt;stroke-linejoin:miter;stroke-miterlimit:4;stroke-opacity:1;stroke-dasharray:none;stroke-dashoffset:0;marker:none;visibility:visible;display:inline;overflow:visible;enable-background:accumulate"
         d="m 1.9126358,6.0744377 c 0,0 0.53033,2.1102715 -0.850737,2.9499605 M 0.31556383,7.3008262 c 0,0 -0.806543,-1.7788155 0.72920397,-2.8726214 m 0.972272,0.7954949 c -2.82298097,0.2929501 0.892847,2.3179525 -1.85615497,3.0052035"
         inkscape:connector-curvature="0" />
      <rect
         y="-5.2803755"
         x="-0.026940741"
         height="19.374126"
         width="17.6047"
         id="rect4854"
         style="fill:none;stroke:none" />
    </g>
  </g>
</svg>
