<?xml version="1.0" encoding="UTF-8" standalone="no"?>
<!-- Created with Inkscape (http://www.inkscape.org/) -->

<svg
   xmlns:dc="http://purl.org/dc/elements/1.1/"
   xmlns:cc="http://creativecommons.org/ns#"
   xmlns:rdf="http://www.w3.org/1999/02/22-rdf-syntax-ns#"
   xmlns:svg="http://www.w3.org/2000/svg"
   xmlns="http://www.w3.org/2000/svg"
   xmlns:sodipodi="http://sodipodi.sourceforge.net/DTD/sodipodi-0.dtd"
   xmlns:inkscape="http://www.inkscape.org/namespaces/inkscape"
   width="7.3200002"
   height="3.23"
   id="svg7187"
   version="1.1"
   inkscape:version="0.48.3.1 r9886"
   sodipodi:docname="GeoPat_Heterolithische_Wechsellagerung2.svg">
  <defs
     id="defs7189" />
  <sodipodi:namedview
     id="base"
     pagecolor="#ffffff"
     bordercolor="#666666"
     borderopacity="1.0"
     inkscape:pageopacity="0.0"
     inkscape:pageshadow="2"
     inkscape:zoom="32"
     inkscape:cx="0.64945445"
     inkscape:cy="5.587484"
     inkscape:current-layer="layer1"
     showgrid="true"
     inkscape:grid-bbox="true"
     inkscape:document-units="px"
     fit-margin-top="0"
     fit-margin-left="0"
     fit-margin-right="0"
     fit-margin-bottom="0"
     inkscape:window-width="831"
     inkscape:window-height="993"
     inkscape:window-x="25"
     inkscape:window-y="9"
     inkscape:window-maximized="0"
     showguides="true"
     inkscape:guide-bbox="true"
     inkscape:snap-object-midpoints="true"
     inkscape:object-paths="true"
     inkscape:object-nodes="true"
     inkscape:snap-center="true"
     inkscape:snap-to-guides="true"
     inkscape:snap-global="true"
     inkscape:snap-bbox="true" />
  <metadata
     id="metadata7192">
    <rdf:RDF>
      <cc:Work
         rdf:about="">
        <dc:format>image/svg+xml</dc:format>
        <dc:type
           rdf:resource="http://purl.org/dc/dcmitype/StillImage" />
        <dc:title />
      </cc:Work>
    </rdf:RDF>
  </metadata>
  <g
     id="layer1"
     inkscape:label="Layer 1"
     inkscape:groupmode="layer"
     transform="translate(0.03125,0.77375014)">
    <g
       id="g4934">
      <path
         inkscape:connector-curvature="0"
         id="path4649"
         d="m -0.03161571,0.68859465 3.00363631,0"
         style="color:#000000;fill:none;stroke:#000000;stroke-width:0.30000001;stroke-linecap:butt;stroke-linejoin:miter;stroke-miterlimit:4;stroke-opacity:1;stroke-dasharray:none;stroke-dashoffset:0;marker:none;visibility:visible;display:inline;overflow:visible;enable-background:accumulate" />
      <path
         transform="matrix(0.375,0,0,0.375,1.683742,2.0548623)"
         d="m 6.6871343,0.3125 a 0.75,0.75 0 1 1 -1.5,0 0.75,0.75 0 1 1 1.5,0 z"
         sodipodi:ry="0.75"
         sodipodi:rx="0.75"
         sodipodi:cy="0.3125"
         sodipodi:cx="5.9371343"
         style="fill:#000000;stroke:none"
         id="path4651"
         sodipodi:type="arc" />
      <path
         sodipodi:type="arc"
         id="path4653"
         style="fill:#000000;stroke:none"
         sodipodi:cx="5.9371343"
         sodipodi:cy="0.3125"
         sodipodi:rx="0.75"
         sodipodi:ry="0.75"
         d="m 6.6871343,0.3125 a 0.75,0.75 0 1 1 -1.5,0 0.75,0.75 0 1 1 1.5,0 z"
         transform="matrix(0.375,0,0,0.375,2.9031381,2.0548623)" />
      <path
         transform="matrix(0.375,0,0,0.375,4.1225342,2.0548623)"
         d="m 6.6871343,0.3125 a 0.75,0.75 0 1 1 -1.5,0 0.75,0.75 0 1 1 1.5,0 z"
         sodipodi:ry="0.75"
         sodipodi:rx="0.75"
         sodipodi:cy="0.3125"
         sodipodi:cx="5.9371343"
         style="fill:#000000;stroke:none"
         id="path4655"
         sodipodi:type="arc" />
      <path
         sodipodi:type="arc"
         id="path4671"
         style="fill:#000000;stroke:none"
         sodipodi:cx="5.9371343"
         sodipodi:cy="0.3125"
         sodipodi:rx="0.75"
         sodipodi:ry="0.75"
         d="m 6.6871343,0.3125 a 0.75,0.75 0 1 1 -1.5,0 0.75,0.75 0 1 1 1.5,0 z"
         transform="matrix(-0.375,0,0,0.375,4.9171959,2.0548623)" />
      <path
         transform="matrix(-0.375,0,0,0.375,3.6977998,2.0548623)"
         d="m 6.6871343,0.3125 a 0.75,0.75 0 1 1 -1.5,0 0.75,0.75 0 1 1 1.5,0 z"
         sodipodi:ry="0.75"
         sodipodi:rx="0.75"
         sodipodi:cy="0.3125"
         sodipodi:cx="5.9371343"
         style="fill:#000000;stroke:none"
         id="path4673"
         sodipodi:type="arc" />
      <path
         sodipodi:type="arc"
         id="path4675"
         style="fill:#000000;stroke:none"
         sodipodi:cx="5.9371343"
         sodipodi:cy="0.3125"
         sodipodi:rx="0.75"
         sodipodi:ry="0.75"
         d="m 6.6871343,0.3125 a 0.75,0.75 0 1 1 -1.5,0 0.75,0.75 0 1 1 1.5,0 z"
         transform="matrix(-0.375,0,0,0.375,2.4784034,2.0548623)" />
      <path
         style="color:#000000;fill:none;stroke:#000000;stroke-width:0.30000001;stroke-linecap:butt;stroke-linejoin:miter;stroke-miterlimit:4;stroke-opacity:1;stroke-dasharray:none;stroke-dashoffset:0;marker:none;visibility:visible;display:inline;overflow:visible;enable-background:accumulate"
         d="m 3.6265732,0.68859465 3.0036363,0"
         id="path4940"
         inkscape:connector-curvature="0" />
      <rect
         y="-0.77517146"
         x="-0.03125"
         height="3.2327619"
         width="7.3232889"
         id="rect4932"
         style="fill:none;stroke:none" />
    </g>
  </g>
</svg>
