<?xml version="1.0" encoding="UTF-8" standalone="no"?>
<!-- Created with Inkscape (http://www.inkscape.org/) -->

<svg
   xmlns:dc="http://purl.org/dc/elements/1.1/"
   xmlns:cc="http://creativecommons.org/ns#"
   xmlns:rdf="http://www.w3.org/1999/02/22-rdf-syntax-ns#"
   xmlns:svg="http://www.w3.org/2000/svg"
   xmlns="http://www.w3.org/2000/svg"
   xmlns:sodipodi="http://sodipodi.sourceforge.net/DTD/sodipodi-0.dtd"
   xmlns:inkscape="http://www.inkscape.org/namespaces/inkscape"
   width="16"
   height="16"
   id="svg9432"
   version="1.1"
   inkscape:version="0.48.3.1 r9886"
   sodipodi:docname="GeoPat_Metamorphit_allgemein.svg">
  <defs
     id="defs9434" />
  <sodipodi:namedview
     id="base"
     pagecolor="#ffffff"
     bordercolor="#666666"
     borderopacity="1.0"
     inkscape:pageopacity="0.0"
     inkscape:pageshadow="2"
     inkscape:zoom="22.627417"
     inkscape:cx="4.6037167"
     inkscape:cy="9.0697682"
     inkscape:current-layer="layer1"
     showgrid="true"
     inkscape:grid-bbox="true"
     inkscape:document-units="px"
     inkscape:window-width="843"
     inkscape:window-height="836"
     inkscape:window-x="80"
     inkscape:window-y="34"
     inkscape:window-maximized="0"
     fit-margin-top="0"
     fit-margin-left="0"
     fit-margin-right="0"
     fit-margin-bottom="0" />
  <metadata
     id="metadata9437">
    <rdf:RDF>
      <cc:Work
         rdf:about="">
        <dc:format>image/svg+xml</dc:format>
        <dc:type
           rdf:resource="http://purl.org/dc/dcmitype/StillImage" />
        <dc:title />
      </cc:Work>
    </rdf:RDF>
  </metadata>
  <g
     id="layer1"
     inkscape:label="Layer 1"
     inkscape:groupmode="layer"
     transform="translate(1.0034262,24.274324)">
    <g
       id="g4646">
      <path
         id="path5428"
         d="m 4.3138047,-21.600745 -0.6301152,1.361704 -0.6835156,-1.361704 m -0.021373,-2.670008 -0.6301136,1.361704 -0.6835172,-1.361704 m -0.021373,2.670008 -0.6301136,1.361704 -0.68351719,-1.361704 m -0.0213729,-2.670008 -0.63011361,1.361704 -0.6835172,-1.361704 m 1.31363081,5.340014 -0.63011361,1.361705 -0.6835172,-1.361705 m 2.6486345,2.670007 -0.6301136,1.361706 -0.68351721,-1.361706 m -0.0213729,2.670007 -0.63011361,1.361706 -0.68351718,-1.361706 m 2.6486345,2.670008 -0.6301136,1.3617037 -0.68351723,-1.3617037 M 2.9788008,-18.930739 2.3486872,-17.569034 1.66517,-18.930739 m 2.6486345,2.670007 -0.6301152,1.361706 -0.6835156,-1.361706 m -0.021373,2.670007 -0.6301136,1.361706 -0.6835172,-1.361706 m 2.6486345,2.670008 -0.6301152,1.3617037 -0.6835156,-1.3617037 m 2.6486345,-13.350036 -0.6301152,1.361704 -0.6835156,-1.361704 m 2.6486346,2.670008 -0.6301153,1.361704 -0.6835156,-1.361704 m -0.021373,2.670006 -0.6301152,1.361705 -0.6835156,-1.361705 m 2.6486346,2.670007 -0.6301153,1.361706 -0.6835156,-1.361706 m -0.021373,2.670007 -0.6301152,1.361706 -0.6835156,-1.361706 m 2.6486346,2.670008 -0.6301153,1.3617037 -0.6835156,-1.3617037 m 2.6486329,-13.350036 -0.6301136,1.361704 -0.6835172,-1.361704 m 2.6486345,2.670008 -0.6301136,1.361704 -0.6835172,-1.361704 m -0.021373,2.670006 -0.6301136,1.361705 -0.6835172,-1.361705 m 2.6486345,2.670007 -0.6301136,1.361706 -0.6835172,-1.361706 m -0.021373,2.670007 -0.6301136,1.361706 -0.6835172,-1.361706 m 2.6486345,2.670008 -0.6301136,1.3617037 -0.6835172,-1.3617037 m 2.6486346,-13.350036 -0.630114,1.361704 -0.6835169,-1.361704 m 2.6486339,2.670008 -0.630113,1.361704 -0.683517,-1.361704 m -0.02137,2.670006 -0.630114,1.361705 -0.6835169,-1.361705 m 2.6486339,2.670007 -0.630113,1.361706 -0.683517,-1.361706 m 3.983638,5.340015 -0.630115,1.3617037 -0.683516,-1.3617037 m -0.02137,-2.670008 -0.630114,1.361706 -0.683517,-1.361706 m -0.02137,2.670008 -0.630113,1.3617037 -0.683517,-1.3617037 m -0.02137,-2.670008 -0.630114,1.361706 -0.6835169,-1.361706 m 3.9836379,-10.680028 -0.630114,1.361704 -0.683517,-1.361704 m 2.648635,2.670008 -0.630115,1.361704 -0.683516,-1.361704 m -0.02137,2.670006 -0.630114,1.361705 -0.683517,-1.361705 m 2.648635,2.670007 -0.630115,1.361706 -0.683516,-1.361706"
         class="fil0 str0"
         inkscape:connector-curvature="0"
         style="fill:none;stroke:#000000;stroke-width:0.29999998;stroke-miterlimit:4;stroke-dasharray:none" />
      <rect
         y="-24.272615"
         x="-1.0048816"
         height="15.998291"
         width="15.999746"
         id="rect4644"
         style="fill:none;stroke:none" />
    </g>
  </g>
</svg>
