<?xml version="1.0" encoding="UTF-8" standalone="no"?>
<!-- Created with Inkscape (http://www.inkscape.org/) -->

<svg
   xmlns:dc="http://purl.org/dc/elements/1.1/"
   xmlns:cc="http://creativecommons.org/ns#"
   xmlns:rdf="http://www.w3.org/1999/02/22-rdf-syntax-ns#"
   xmlns:svg="http://www.w3.org/2000/svg"
   xmlns="http://www.w3.org/2000/svg"
   xmlns:sodipodi="http://sodipodi.sourceforge.net/DTD/sodipodi-0.dtd"
   xmlns:inkscape="http://www.inkscape.org/namespaces/inkscape"
   width="8.0180779"
   height="16.015415"
   id="svg4090"
   version="1.1"
   inkscape:version="0.48.2 r9819"
   sodipodi:docname="GeoPat_Schillkalk.svg">
  <defs
     id="defs4092" />
  <sodipodi:namedview
     id="base"
     pagecolor="#ffffff"
     bordercolor="#666666"
     borderopacity="1.0"
     inkscape:pageopacity="0.0"
     inkscape:pageshadow="2"
     inkscape:zoom="22.627417"
     inkscape:cx="5.5085033"
     inkscape:cy="12.585832"
     inkscape:current-layer="layer1"
     showgrid="true"
     inkscape:grid-bbox="true"
     inkscape:document-units="px"
     fit-margin-top="0"
     fit-margin-left="0"
     fit-margin-right="0"
     fit-margin-bottom="0"
     inkscape:window-width="1920"
     inkscape:window-height="1000"
     inkscape:window-x="0"
     inkscape:window-y="25"
     inkscape:window-maximized="1"
     showguides="true"
     inkscape:guide-bbox="true"
     inkscape:snap-bbox="true"
     inkscape:object-paths="true"
     inkscape:object-nodes="true" />
  <metadata
     id="metadata4095">
    <rdf:RDF>
      <cc:Work
         rdf:about="">
        <dc:format>image/svg+xml</dc:format>
        <dc:type
           rdf:resource="http://purl.org/dc/dcmitype/StillImage" />
        <dc:title></dc:title>
      </cc:Work>
    </rdf:RDF>
  </metadata>
  <g
     id="layer1"
     inkscape:label="Layer 1"
     inkscape:groupmode="layer"
     transform="translate(0.20341226,2.6477438)">
    <g
       style="display:inline"
       id="g6657"
       transform="matrix(0.17506335,0,0,0.17506335,-206.76503,-176.48874)">
      <path
         id="path4195"
         d="m 1184.489,994.16563 0,9.00067 c 0,0.3384 0.023,0.5542 0.07,0.6478 0.023,0.046 0.093,0.093 0.2098,0.1399 0.3384,0.1283 1.0325,0.1924 2.0827,0.1924 l 0,0.1896 -6.8949,0 0,-0.1896 c 0.5018,0 0.9362,-0.017 1.3036,-0.052 0.3674,-0.035 0.6183,-0.079 0.7526,-0.1315 0.1339,-0.052 0.2215,-0.1166 0.2626,-0.1924 0.041,-0.076 0.061,-0.2771 0.061,-0.6038 l 0,-9.00067 c 0,-0.32669 -0.023,-0.53079 -0.07,-0.61228 -0.023,-0.0468 -0.099,-0.0936 -0.2275,-0.13997 -0.3384,-0.12862 -1.0325,-0.19275 -2.0824,-0.19275 l 0,-0.17185 6.9123,0 0,0.17185 c -0.5017,0 -0.9361,0.0177 -1.3036,0.0528 -0.3678,0.0347 -0.6271,0.0815 -0.7788,0.13996 l -0.175,0.0698 c -0.082,0.0702 -0.1226,0.29764 -0.1226,0.68244 z"
         class="fil0"
         inkscape:connector-curvature="0"
         style="fill:#000000;fill-rule:nonzero" />
      <polygon
         transform="matrix(3.5433072,0,0,3.5433072,1159.5455,981.9724)"
         id="polygon4199"
         points="18.6865,28.9448 6.6865,28.9448 6.6865,4.7188 18.6865,4.7188 "
         class="fil2"
         style="fill:none" />
      <path
         style="fill:#000000;fill-rule:nonzero"
         inkscape:connector-curvature="0"
         class="fil0"
         d="m 1204.6052,1036.3357 0,9.0006 c 0,0.3384 0.023,0.5542 0.07,0.6478 0.023,0.046 0.093,0.093 0.2098,0.1399 0.3384,0.1283 1.0325,0.1924 2.0827,0.1924 l 0,0.1896 -6.8949,0 0,-0.1896 c 0.5018,0 0.9362,-0.017 1.3036,-0.052 0.3674,-0.035 0.6183,-0.079 0.7526,-0.1315 0.1339,-0.052 0.2215,-0.1166 0.2626,-0.1924 0.041,-0.076 0.061,-0.2771 0.061,-0.6038 l 0,-9.0006 c 0,-0.3267 -0.023,-0.5308 -0.07,-0.6123 -0.023,-0.047 -0.099,-0.094 -0.2275,-0.14 -0.3384,-0.1286 -1.0325,-0.1927 -2.0824,-0.1927 l 0,-0.1719 6.9123,0 0,0.1719 c -0.5017,0 -0.9361,0.018 -1.3036,0.053 -0.3678,0.035 -0.6271,0.082 -0.7788,0.1399 l -0.175,0.07 c -0.082,0.07 -0.1226,0.2977 -0.1226,0.6825 z"
         id="path6655" />
    </g>
  </g>
</svg>
