<?xml version="1.0" encoding="UTF-8" standalone="no"?>
<!-- Created with Inkscape (http://www.inkscape.org/) -->

<svg
   xmlns:dc="http://purl.org/dc/elements/1.1/"
   xmlns:cc="http://creativecommons.org/ns#"
   xmlns:rdf="http://www.w3.org/1999/02/22-rdf-syntax-ns#"
   xmlns:svg="http://www.w3.org/2000/svg"
   xmlns="http://www.w3.org/2000/svg"
   xmlns:sodipodi="http://sodipodi.sourceforge.net/DTD/sodipodi-0.dtd"
   xmlns:inkscape="http://www.inkscape.org/namespaces/inkscape"
   width="16"
   height="17.5"
   id="svg7187"
   version="1.1"
   inkscape:version="0.48.3.1 r9886"
   sodipodi:docname="GeoPat_Palmen.svg">
  <defs
     id="defs7189" />
  <sodipodi:namedview
     id="base"
     pagecolor="#ffffff"
     bordercolor="#666666"
     borderopacity="1.0"
     inkscape:pageopacity="0.0"
     inkscape:pageshadow="2"
     inkscape:zoom="22.627417"
     inkscape:cx="7.3228221"
     inkscape:cy="11.488997"
     inkscape:current-layer="layer1"
     showgrid="true"
     inkscape:grid-bbox="true"
     inkscape:document-units="px"
     fit-margin-top="0"
     fit-margin-left="0"
     fit-margin-right="0"
     fit-margin-bottom="0"
     inkscape:window-width="844"
     inkscape:window-height="953"
     inkscape:window-x="25"
     inkscape:window-y="25"
     inkscape:window-maximized="0"
     showguides="true"
     inkscape:guide-bbox="true"
     inkscape:snap-object-midpoints="true"
     inkscape:object-paths="true"
     inkscape:object-nodes="true"
     inkscape:snap-center="true"
     inkscape:snap-to-guides="true" />
  <metadata
     id="metadata7192">
    <rdf:RDF>
      <cc:Work
         rdf:about="">
        <dc:format>image/svg+xml</dc:format>
        <dc:type
           rdf:resource="http://purl.org/dc/dcmitype/StillImage" />
        <dc:title />
      </cc:Work>
    </rdf:RDF>
  </metadata>
  <g
     id="layer1"
     inkscape:label="Layer 1"
     inkscape:groupmode="layer"
     transform="translate(0.32776622,4.7991143)">
    <g
       id="g4887">
      <rect
         y="-4.8012123"
         x="-0.32612121"
         height="17.499418"
         width="16.007694"
         id="rect4885"
         style="fill:none;stroke:none" />
      <path
         inkscape:connector-curvature="0"
         d="m 13.391225,0.51712825 1.767767,0 m -0.883883,0 c 0,0 0.353552,-0.773398 1.370019,-0.2872621 m -1.370019,0.2872621 c 0,0 -0.353552,-0.773398 -1.370019,-0.2872621 m 1.370019,0.2872621 0,3.44714555"
         style="color:#000000;fill:none;stroke:#000000;stroke-width:0.30000001;stroke-linecap:butt;stroke-linejoin:miter;stroke-miterlimit:4;stroke-opacity:1;stroke-dasharray:none;stroke-dashoffset:0;marker:none;visibility:visible;display:inline;overflow:visible;enable-background:accumulate"
         id="path3869" />
      <path
         id="path3872"
         style="color:#000000;fill:none;stroke:#000000;stroke-width:0.30000001;stroke-linecap:butt;stroke-linejoin:miter;stroke-miterlimit:4;stroke-opacity:1;stroke-dasharray:none;stroke-dashoffset:0;marker:none;visibility:visible;display:inline;overflow:visible;enable-background:accumulate"
         d="m 8.9843898,-3.890055 1.7677672,0 m -0.8838832,0 c 0,0 0.3535522,-0.773398 1.3700192,-0.2872621 M 9.8682738,-3.890055 c 0,0 -0.353552,-0.773398 -1.370019,-0.2872621 m 1.370019,0.2872621 0,3.44714552"
         inkscape:connector-curvature="0" />
      <path
         inkscape:connector-curvature="0"
         d="m 0.1765866,-3.8897077 1.7677672,0 m -0.8838832,0 c 0,0 0.3535522,-0.773398 1.3700192,-0.2872621 m -1.3700192,0.2872621 c 0,0 -0.353552,-0.773398 -1.370019,-0.2872621 m 1.370019,0.2872621 0,3.44714551"
         style="color:#000000;fill:none;stroke:#000000;stroke-width:0.30000001;stroke-linecap:butt;stroke-linejoin:miter;stroke-miterlimit:4;stroke-opacity:1;stroke-dasharray:none;stroke-dashoffset:0;marker:none;visibility:visible;display:inline;overflow:visible;enable-background:accumulate"
         id="path3874" />
      <path
         id="path3876"
         style="color:#000000;fill:none;stroke:#000000;stroke-width:0.30000001;stroke-linecap:butt;stroke-linejoin:miter;stroke-miterlimit:4;stroke-opacity:1;stroke-dasharray:none;stroke-dashoffset:0;marker:none;visibility:visible;display:inline;overflow:visible;enable-background:accumulate"
         d="m 4.5834225,0.71985109 1.7677672,0 m -0.8838832,0 c 0,0 0.3535522,-0.773398 1.3700192,-0.2872621 m -1.3700192,0.2872621 c 0,0 -0.353552,-0.773398 -1.370019,-0.2872621 m 1.370019,0.2872621 0,3.44714551"
         inkscape:connector-curvature="0" />
      <path
         inkscape:connector-curvature="0"
         d="m 8.9843897,4.9239625 1.7677673,0 m -0.8838833,0 c 0,0 0.3535523,-0.773398 1.3700193,-0.2872621 M 9.8682737,4.9239625 c 0,0 -0.353552,-0.773398 -1.370019,-0.2872621 m 1.370019,0.2872621 0,3.4471455"
         style="color:#000000;fill:none;stroke:#000000;stroke-width:0.30000001;stroke-linecap:butt;stroke-linejoin:miter;stroke-miterlimit:4;stroke-opacity:1;stroke-dasharray:none;stroke-dashoffset:0;marker:none;visibility:visible;display:inline;overflow:visible;enable-background:accumulate"
         id="path3878" />
      <path
         id="path3880"
         style="color:#000000;fill:none;stroke:#000000;stroke-width:0.30000001;stroke-linecap:butt;stroke-linejoin:miter;stroke-miterlimit:4;stroke-opacity:1;stroke-dasharray:none;stroke-dashoffset:0;marker:none;visibility:visible;display:inline;overflow:visible;enable-background:accumulate"
         d="m 13.391225,9.533522 1.767767,0 m -0.883883,0 c 0,0 0.353552,-0.773398 1.370019,-0.2872621 M 14.275109,9.533522 c 0,0 -0.353552,-0.773398 -1.370019,-0.2872621 m 1.370019,0.2872621 0,3.447145"
         inkscape:connector-curvature="0" />
      <path
         inkscape:connector-curvature="0"
         d="m 4.5834225,9.3307991 1.767767,0 m -0.883883,0 c 0,0 0.353552,-0.773398 1.370019,-0.2872621 m -1.370019,0.2872621 c 0,0 -0.353552,-0.773398 -1.370019,-0.2872621 m 1.370019,0.2872621 0,3.4471449"
         style="color:#000000;fill:none;stroke:#000000;stroke-width:0.30000001;stroke-linecap:butt;stroke-linejoin:miter;stroke-miterlimit:4;stroke-opacity:1;stroke-dasharray:none;stroke-dashoffset:0;marker:none;visibility:visible;display:inline;overflow:visible;enable-background:accumulate"
         id="path3882" />
      <path
         id="path3884"
         style="color:#000000;fill:none;stroke:#000000;stroke-width:0.30000001;stroke-linecap:butt;stroke-linejoin:miter;stroke-miterlimit:4;stroke-opacity:1;stroke-dasharray:none;stroke-dashoffset:0;marker:none;visibility:visible;display:inline;overflow:visible;enable-background:accumulate"
         d="m 0.1765867,4.8407595 1.767767,0 m -0.883883,0 c 0,0 0.353552,-0.773398 1.370019,-0.2872621 m -1.370019,0.2872621 c 0,0 -0.353552,-0.773398 -1.370019,-0.2872621 m 1.370019,0.2872621 0,3.4471449"
         inkscape:connector-curvature="0" />
    </g>
  </g>
</svg>
