<?xml version="1.0" encoding="UTF-8" standalone="no"?>
<!-- Created with Inkscape (http://www.inkscape.org/) -->

<svg
   xmlns:dc="http://purl.org/dc/elements/1.1/"
   xmlns:cc="http://creativecommons.org/ns#"
   xmlns:rdf="http://www.w3.org/1999/02/22-rdf-syntax-ns#"
   xmlns:svg="http://www.w3.org/2000/svg"
   xmlns="http://www.w3.org/2000/svg"
   xmlns:sodipodi="http://sodipodi.sourceforge.net/DTD/sodipodi-0.dtd"
   xmlns:inkscape="http://www.inkscape.org/namespaces/inkscape"
   width="16px"
   height="16px"
   id="svg4200"
   version="1.1"
   inkscape:version="0.48.2 r9819"
   sodipodi:docname="Neues Dokument 2">
  <defs
     id="defs4202" />
  <sodipodi:namedview
     id="base"
     pagecolor="#ffffff"
     bordercolor="#666666"
     borderopacity="1.0"
     inkscape:pageopacity="0.0"
     inkscape:pageshadow="2"
     inkscape:zoom="22.197802"
     inkscape:cx="10.358681"
     inkscape:cy="9.6711366"
     inkscape:current-layer="layer1"
     showgrid="true"
     inkscape:grid-bbox="true"
     inkscape:document-units="px"
     inkscape:window-width="1920"
     inkscape:window-height="1000"
     inkscape:window-x="0"
     inkscape:window-y="25"
     inkscape:window-maximized="1" />
  <metadata
     id="metadata4205">
    <rdf:RDF>
      <cc:Work
         rdf:about="">
        <dc:format>image/svg+xml</dc:format>
        <dc:type
           rdf:resource="http://purl.org/dc/dcmitype/StillImage" />
        <dc:title></dc:title>
      </cc:Work>
    </rdf:RDF>
  </metadata>
  <g
     id="layer1"
     inkscape:label="Layer 1"
     inkscape:groupmode="layer">
    <g
       id="g4424"
       transform="matrix(0.97484646,0,0,0.97484646,-3.3084505e-4,-0.06227566)">
      <path
         id="path6139"
         d="m 14.064295,6.9110463 c 0.202895,0 0.368122,0.1652925 0.368122,0.3756287 0,0.2104021 -0.165227,0.3756945 -0.368122,0.3756945 -0.202829,0 -0.368121,-0.1652924 -0.368121,-0.3756945 0,-0.2103362 0.165292,-0.3756287 0.368121,-0.3756287 z"
         class="fil0"
         inkscape:connector-curvature="0"
         style="fill:#000000;fill-rule:nonzero;stroke:none" />
      <path
         id="path6141"
         d="m 15.763317,7.3972431 c 0.202829,0 0.368121,0.1652924 0.368121,0.3756287 0,0.2103362 -0.165292,0.3756287 -0.368121,0.3756287 -0.202895,0 -0.368121,-0.1652925 -0.368121,-0.3756287 0,-0.2103363 0.165226,-0.3756287 0.368121,-0.3756287 z"
         class="fil0"
         inkscape:connector-curvature="0"
         style="fill:#000000;fill-rule:nonzero;stroke:none" />
      <path
         id="path6143"
         d="m 13.934696,3.3654251 c 0.202894,0 0.368187,0.1652925 0.368187,0.3756946 0,0.2103362 -0.165293,0.3756286 -0.368187,0.3756286 -0.202829,0 -0.368122,-0.1652924 -0.368122,-0.3756286 0,-0.2104021 0.165293,-0.3756946 0.368122,-0.3756946 z"
         class="fil0"
         inkscape:connector-curvature="0"
         style="fill:#000000;fill-rule:nonzero;stroke:none" />
      <path
         id="path6145"
         d="m 15.327498,2.3855243 c 0.202829,0 0.368122,0.1652924 0.368122,0.3756286 0,0.2104021 -0.165293,0.3756287 -0.368122,0.3756287 -0.202829,0 -0.368121,-0.1652266 -0.368121,-0.3756287 0,-0.2103362 0.165292,-0.3756286 0.368121,-0.3756286 z"
         class="fil0"
         inkscape:connector-curvature="0"
         style="fill:#000000;fill-rule:nonzero;stroke:none" />
      <path
         id="path6147"
         d="m 5.3608263,2.3824291 c 0.2028289,0 0.3681213,0.1652925 0.3681213,0.3756287 0,0.2103363 -0.1652924,0.3756287 -0.3681213,0.3756287 -0.202829,0 -0.3681214,-0.1652924 -0.3681214,-0.3756287 0,-0.2103362 0.1652924,-0.3756287 0.3681214,-0.3756287 z"
         class="fil0"
         inkscape:connector-curvature="0"
         style="fill:#000000;fill-rule:nonzero;stroke:none" />
      <path
         id="path6149"
         d="m 13.280309,15.050809 c 0.202829,0 0.368121,0.165227 0.368121,0.375629 0,0.210336 -0.165292,0.375628 -0.368121,0.375628 -0.202895,0 -0.368122,-0.165292 -0.368122,-0.375628 0,-0.210402 0.165227,-0.375629 0.368122,-0.375629 z"
         class="fil0"
         inkscape:connector-curvature="0"
         style="fill:#000000;fill-rule:nonzero;stroke:none" />
      <path
         id="path6151"
         d="m 8.903484,14.597144 c 0.202829,0 0.3681214,0.165292 0.3681214,0.375694 0,0.210337 -0.1652924,0.375629 -0.3681214,0.375629 -0.2028948,0 -0.3681213,-0.165292 -0.3681213,-0.375629 0,-0.210402 0.1652265,-0.375694 0.3681213,-0.375694 z"
         class="fil0"
         inkscape:connector-curvature="0"
         style="fill:#000000;fill-rule:nonzero;stroke:none" />
      <path
         id="path6153"
         d="m 11.728602,13.744143 c 0.202828,0 0.368121,0.165226 0.368121,0.375628 0,0.210337 -0.165293,0.375629 -0.368121,0.375629 -0.202829,0 -0.368122,-0.165292 -0.368122,-0.375629 0,-0.210402 0.165293,-0.375628 0.368122,-0.375628 z"
         class="fil0"
         inkscape:connector-curvature="0"
         style="fill:#000000;fill-rule:nonzero;stroke:none" />
      <path
         id="path6155"
         d="m 14.285234,13.532292 c 0.202829,0 0.368121,0.165226 0.368121,0.375629 0,0.210336 -0.165292,0.375628 -0.368121,0.375628 -0.202829,0 -0.368121,-0.165292 -0.368121,-0.375628 0,-0.210403 0.165292,-0.375629 0.368121,-0.375629 z"
         class="fil0"
         inkscape:connector-curvature="0"
         style="fill:#000000;fill-rule:nonzero;stroke:none" />
      <path
         id="path6157"
         d="m 16.082114,13.419551 c 0.202829,0 0.368121,0.165292 0.368121,0.375628 0,0.210337 -0.165292,0.375629 -0.368121,0.375629 -0.202829,0 -0.368121,-0.165292 -0.368121,-0.375629 0,-0.210336 0.165292,-0.375628 0.368121,-0.375628 z"
         class="fil0"
         inkscape:connector-curvature="0"
         style="fill:#000000;fill-rule:nonzero;stroke:none" />
      <path
         id="path6159"
         d="m 5.9987496,12.462633 c 0.2028948,0 0.3681214,0.165292 0.3681214,0.375628 0,0.210402 -0.1652266,0.375695 -0.3681214,0.375695 -0.2028289,0 -0.3681213,-0.165293 -0.3681213,-0.375695 0,-0.210336 0.1652924,-0.375628 0.3681213,-0.375628 z"
         class="fil0"
         inkscape:connector-curvature="0"
         style="fill:#000000;fill-rule:nonzero;stroke:none" />
      <path
         id="path6161"
         d="m 2.2512873,1.7500375 c 0.2028289,0 0.3681214,0.1652265 0.3681214,0.3756286 0,0.2103363 -0.1652925,0.3756287 -0.3681214,0.3756287 -0.202829,0 -0.3681214,-0.1652924 -0.3681214,-0.3756287 0,-0.2104021 0.1652924,-0.3756286 0.3681214,-0.3756286 z"
         class="fil0"
         inkscape:connector-curvature="0"
         style="fill:#000000;fill-rule:nonzero;stroke:none" />
      <path
         id="path6163"
         d="m 6.3456662,0.99654109 c 0.2028289,0 0.3681213,0.16529241 0.3681213,0.37562871 0,0.2104021 -0.1652924,0.3756286 -0.3681213,0.3756286 -0.202829,0 -0.3681214,-0.1652265 -0.3681214,-0.3756286 0,-0.2103363 0.1652924,-0.37562871 0.3681214,-0.37562871 z"
         class="fil0"
         inkscape:connector-curvature="0"
         style="fill:#000000;fill-rule:nonzero;stroke:none" />
      <path
         id="path6165"
         d="m 2.6063696,4.9548007 c 0.2028948,0 0.3681873,0.1652924 0.3681873,0.3756286 0,0.2104021 -0.1652925,0.3756946 -0.3681873,0.3756946 -0.2028289,0 -0.3681213,-0.1652925 -0.3681213,-0.3756946 0,-0.2103362 0.1652924,-0.3756286 0.3681213,-0.3756286 z"
         class="fil0"
         inkscape:connector-curvature="0"
         style="fill:#000000;fill-rule:nonzero;stroke:none" />
      <path
         id="path6167"
         d="m 2.5019918,6.8631708 c 0.2028289,0 0.3681213,0.1652266 0.3681213,0.3756287 0,0.2103362 -0.1652924,0.3756286 -0.3681213,0.3756286 -0.202829,0 -0.3681214,-0.1652924 -0.3681214,-0.3756286 0,-0.2104021 0.1652924,-0.3756287 0.3681214,-0.3756287 z"
         class="fil0"
         inkscape:connector-curvature="0"
         style="fill:#000000;fill-rule:nonzero;stroke:none" />
      <path
         id="path6169"
         d="m 14.416217,9.258528 c 0.202829,0 0.368121,0.1652924 0.368121,0.3756286 0,0.2103363 -0.165292,0.3756284 -0.368121,0.3756284 -0.202829,0 -0.368122,-0.1652921 -0.368122,-0.3756284 0,-0.2103362 0.165293,-0.3756286 0.368122,-0.3756286 z"
         class="fil0"
         inkscape:connector-curvature="0"
         style="fill:#000000;fill-rule:nonzero;stroke:none" />
      <path
         id="path6171"
         d="m 15.936512,4.8178911 c 0.202829,0 0.368121,0.1652924 0.368121,0.3756945 0,0.2103363 -0.165292,0.3756287 -0.368121,0.3756287 -0.202829,0 -0.368121,-0.1652924 -0.368121,-0.3756287 0,-0.2104021 0.165292,-0.3756945 0.368121,-0.3756945 z"
         class="fil0"
         inkscape:connector-curvature="0"
         style="fill:#000000;fill-rule:nonzero;stroke:none" />
      <path
         id="path6173"
         d="m 9.0656155,9.1698232 c 0.2028289,0 0.3681214,0.1652925 0.3681214,0.3756946 0,0.2103362 -0.1652925,0.3756286 -0.3681214,0.3756286 -0.202829,0 -0.3681214,-0.1652924 -0.3681214,-0.3756286 0,-0.2104021 0.1652924,-0.3756946 0.3681214,-0.3756946 z"
         class="fil0"
         inkscape:connector-curvature="0"
         style="fill:#000000;fill-rule:nonzero;stroke:none" />
      <path
         id="path6175"
         d="m 13.548728,4.7945131 c 0.202829,0 0.368121,0.1652266 0.368121,0.3756287 0,0.2103362 -0.165292,0.3756287 -0.368121,0.3756287 -0.202829,0 -0.368121,-0.1652925 -0.368121,-0.3756287 0,-0.2104021 0.165292,-0.3756287 0.368121,-0.3756287 z"
         class="fil0"
         inkscape:connector-curvature="0"
         style="fill:#000000;fill-rule:nonzero;stroke:none" />
      <path
         id="path6177"
         d="m 5.6567063,9.218489 c 0.2028289,0 0.3681213,0.1652924 0.3681213,0.3756287 0,0.2104021 -0.1652924,0.3756287 -0.3681213,0.3756287 -0.2028948,0 -0.3681873,-0.1652266 -0.3681873,-0.3756287 0,-0.2103363 0.1652925,-0.3756287 0.3681873,-0.3756287 z"
         class="fil0"
         inkscape:connector-curvature="0"
         style="fill:#000000;fill-rule:nonzero;stroke:none" />
      <path
         id="path6179"
         d="m 4.5221154,13.54026 c 0.2028289,0 0.3681214,0.165227 0.3681214,0.375629 0,0.210336 -0.1652925,0.375629 -0.3681214,0.375629 -0.202829,0 -0.3681214,-0.165293 -0.3681214,-0.375629 0,-0.210402 0.1652924,-0.375629 0.3681214,-0.375629 z"
         class="fil0"
         inkscape:connector-curvature="0"
         style="fill:#000000;fill-rule:nonzero;stroke:none" />
      <path
         id="path6181"
         d="m 12.247132,3.1881474 c 0.202829,0 0.368122,0.1652924 0.368122,0.3756286 0,0.2104021 -0.165293,0.3756946 -0.368122,0.3756946 -0.202894,0 -0.368121,-0.1652925 -0.368121,-0.3756946 0,-0.2103362 0.165227,-0.3756286 0.368121,-0.3756286 z"
         class="fil0"
         inkscape:connector-curvature="0"
         style="fill:#000000;fill-rule:nonzero;stroke:none" />
      <path
         id="path6183"
         d="m 11.813816,6.6711418 c 0.202829,0 0.368121,0.1652925 0.368121,0.3756287 0,0.2104021 -0.165292,0.3756945 -0.368121,0.3756945 -0.202895,0 -0.368121,-0.1652924 -0.368121,-0.3756945 0,-0.2103362 0.165226,-0.3756287 0.368121,-0.3756287 z"
         class="fil0"
         inkscape:connector-curvature="0"
         style="fill:#000000;fill-rule:nonzero;stroke:none" />
      <path
         id="path6185"
         d="m 12.797141,10.384426 c 0.202895,0 0.368187,0.165293 0.368187,0.375629 0,0.210402 -0.165292,0.375694 -0.368187,0.375694 -0.202829,0 -0.368121,-0.165292 -0.368121,-0.375694 0,-0.210336 0.165292,-0.375629 0.368121,-0.375629 z"
         class="fil0"
         inkscape:connector-curvature="0"
         style="fill:#000000;fill-rule:nonzero;stroke:none" />
      <path
         id="path6187"
         d="m 8.8460597,11.275754 c 0.202829,0 0.3681214,0.165292 0.3681214,0.375629 0,0.210336 -0.1652924,0.375628 -0.3681214,0.375628 -0.2028289,0 -0.3681213,-0.165292 -0.3681213,-0.375628 0,-0.210337 0.1652924,-0.375629 0.3681213,-0.375629 z"
         class="fil0"
         inkscape:connector-curvature="0"
         style="fill:#000000;fill-rule:nonzero;stroke:none" />
      <path
         id="path6189"
         d="m 10.446828,10.773555 c 0.202829,0 0.368121,0.165292 0.368121,0.375629 0,0.210402 -0.165292,0.375628 -0.368121,0.375628 -0.202829,0 -0.368121,-0.165226 -0.368121,-0.375628 0,-0.210337 0.165292,-0.375629 0.368121,-0.375629 z"
         class="fil0"
         inkscape:connector-curvature="0"
         style="fill:#000000;fill-rule:nonzero;stroke:none" />
      <path
         id="path6191"
         d="m 10.196716,12.681859 c 0.202829,0 0.368122,0.165293 0.368122,0.375695 0,0.210336 -0.165293,0.375628 -0.368122,0.375628 -0.2028288,0 -0.3681212,-0.165292 -0.3681212,-0.375628 0,-0.210402 0.1652924,-0.375695 0.3681212,-0.375695 z"
         class="fil0"
         inkscape:connector-curvature="0"
         style="fill:#000000;fill-rule:nonzero;stroke:none" />
      <path
         id="path6193"
         d="m 6.5070732,6.7977782 c 0.2028948,0 0.3681872,0.1652924 0.3681872,0.3756287 0,0.2104021 -0.1652924,0.3756287 -0.3681872,0.3756287 -0.2028289,0 -0.3681214,-0.1652266 -0.3681214,-0.3756287 0,-0.2103363 0.1652925,-0.3756287 0.3681214,-0.3756287 z"
         class="fil0"
         inkscape:connector-curvature="0"
         style="fill:#000000;fill-rule:nonzero;stroke:none" />
      <path
         id="path6195"
         d="m 10.172153,5.9246918 c 0.202895,0 0.368121,0.1652924 0.368121,0.3756287 0,0.2103362 -0.165226,0.3756286 -0.368121,0.3756286 -0.2028292,0 -0.3681216,-0.1652924 -0.3681216,-0.3756286 0,-0.2103363 0.1652924,-0.3756287 0.3681216,-0.3756287 z"
         class="fil0"
         inkscape:connector-curvature="0"
         style="fill:#000000;fill-rule:nonzero;stroke:none" />
      <path
         id="path6197"
         d="m 8.9726303,7.05059 c 0.2028948,0 0.3681213,0.1652924 0.3681213,0.3756287 0,0.2103362 -0.1652265,0.3756287 -0.3681213,0.3756287 -0.202829,0 -0.3681214,-0.1652925 -0.3681214,-0.3756287 0,-0.2103363 0.1652924,-0.3756287 0.3681214,-0.3756287 z"
         class="fil0"
         inkscape:connector-curvature="0"
         style="fill:#000000;fill-rule:nonzero;stroke:none" />
      <path
         id="path6199"
         d="m 11.475658,0.72469762 c 0.202829,0 0.368121,0.16522657 0.368121,0.37562868 0,0.2103362 -0.165292,0.3756287 -0.368121,0.3756287 -0.202895,0 -0.368187,-0.1652925 -0.368187,-0.3756287 0,-0.21040211 0.165292,-0.37562868 0.368187,-0.37562868 z"
         class="fil0"
         inkscape:connector-curvature="0"
         style="fill:#000000;fill-rule:nonzero;stroke:none" />
      <path
         id="path6201"
         d="m 3.6729338,3.2203498 c 0.202829,0 0.3681214,0.1652924 0.3681214,0.3756286 0,0.2103363 -0.1652924,0.3756287 -0.3681214,0.3756287 -0.2028948,0 -0.3681214,-0.1652924 -0.3681214,-0.3756287 0,-0.2103362 0.1652266,-0.3756286 0.3681214,-0.3756286 z"
         class="fil0"
         inkscape:connector-curvature="0"
         style="fill:#000000;fill-rule:nonzero;stroke:none" />
      <path
         id="path6203"
         d="m 0.69793365,0.66839283 c 0.2028948,0 0.36812135,0.16529242 0.36812135,0.37562867 0,0.2104021 -0.16522655,0.3756945 -0.36812135,0.3756945 -0.20282894,0 -0.36812136,-0.1652924 -0.36812136,-0.3756945 0,-0.21033625 0.16529242,-0.37562867 0.36812136,-0.37562867 z"
         class="fil0"
         inkscape:connector-curvature="0"
         style="fill:#000000;fill-rule:nonzero;stroke:none" />
      <path
         id="path6205"
         d="m 2.8275059,12.446169 c 0.2028948,0 0.3681213,0.165227 0.3681213,0.375629 0,0.210336 -0.1652265,0.375629 -0.3681213,0.375629 -0.202829,0 -0.3681214,-0.165293 -0.3681214,-0.375629 0,-0.210402 0.1652924,-0.375629 0.3681214,-0.375629 z"
         class="fil0"
         inkscape:connector-curvature="0"
         style="fill:#000000;fill-rule:nonzero;stroke:none" />
      <path
         id="path6207"
         d="m 8.2040534,4.8144667 c 0.202829,0 0.3681214,0.1652925 0.3681214,0.3756946 0,0.2103362 -0.1652924,0.3756286 -0.3681214,0.3756286 -0.2028948,0 -0.3681872,-0.1652924 -0.3681872,-0.3756286 0,-0.2104021 0.1652924,-0.3756946 0.3681872,-0.3756946 z"
         class="fil0"
         inkscape:connector-curvature="0"
         style="fill:#000000;fill-rule:nonzero;stroke:none" />
      <path
         id="path6209"
         d="m 14.054154,11.793758 c 0.202829,0 0.368121,0.165293 0.368121,0.375695 0,0.210336 -0.165292,0.375628 -0.368121,0.375628 -0.202829,0 -0.368121,-0.165292 -0.368121,-0.375628 0,-0.210402 0.165292,-0.375695 0.368121,-0.375695 z"
         class="fil0"
         inkscape:connector-curvature="0"
         style="fill:#000000;fill-rule:nonzero;stroke:none" />
      <path
         id="path6211"
         d="m 10.970627,8.2473467 c 0.202829,0 0.368121,0.1652924 0.368121,0.3756286 0,0.2103363 -0.165292,0.3756287 -0.368121,0.3756287 -0.202829,0 -0.368121,-0.1652924 -0.368121,-0.3756287 0,-0.2103362 0.165292,-0.3756286 0.368121,-0.3756286 z"
         class="fil0"
         inkscape:connector-curvature="0"
         style="fill:#000000;fill-rule:nonzero;stroke:none" />
      <path
         id="path6213"
         d="m 7.8609564,12.994334 c 0.202829,0 0.3681214,0.165293 0.3681214,0.375629 0,0.210336 -0.1652924,0.375629 -0.3681214,0.375629 -0.2028289,0 -0.3681213,-0.165293 -0.3681213,-0.375629 0,-0.210336 0.1652924,-0.375629 0.3681213,-0.375629 z"
         class="fil0"
         inkscape:connector-curvature="0"
         style="fill:#000000;fill-rule:nonzero;stroke:none" />
      <path
         id="path6215"
         d="m 6.2330566,14.351115 c 0.2028289,0 0.3681213,0.165292 0.3681213,0.375629 0,0.210336 -0.1652924,0.375628 -0.3681213,0.375628 -0.2028948,0 -0.3681872,-0.165292 -0.3681872,-0.375628 0,-0.210337 0.1652924,-0.375629 0.3681872,-0.375629 z"
         class="fil0"
         inkscape:connector-curvature="0"
         style="fill:#000000;fill-rule:nonzero;stroke:none" />
      <path
         id="path6217"
         d="m 11.101873,15.432562 c 0.202829,0 0.368122,0.165292 0.368122,0.375629 0,0.210336 -0.165293,0.375628 -0.368122,0.375628 -0.202829,0 -0.368121,-0.165292 -0.368121,-0.375628 0,-0.210337 0.165292,-0.375629 0.368121,-0.375629 z"
         class="fil0"
         inkscape:connector-curvature="0"
         style="fill:#000000;fill-rule:nonzero;stroke:none" />
      <path
         id="path6219"
         d="m 4.6583664,15.514813 c 0.2028289,0 0.3681214,0.165227 0.3681214,0.375629 0,0.210336 -0.1652925,0.375629 -0.3681214,0.375629 -0.2028948,0 -0.3681214,-0.165293 -0.3681214,-0.375629 0,-0.210402 0.1652266,-0.375629 0.3681214,-0.375629 z"
         class="fil0"
         inkscape:connector-curvature="0"
         style="fill:#000000;fill-rule:nonzero;stroke:none" />
      <path
         id="path6221"
         d="m 0.7730067,15.535162 c 0.20282895,0 0.3681214,0.165292 0.3681214,0.375629 0,0.210402 -0.16529245,0.375628 -0.3681214,0.375628 -0.20282894,0 -0.36812136,-0.165226 -0.36812136,-0.375628 0,-0.210337 0.16529242,-0.375629 0.36812136,-0.375629 z"
         class="fil0"
         inkscape:connector-curvature="0"
         style="fill:#000000;fill-rule:nonzero;stroke:none" />
      <path
         id="path6223"
         d="m 0.63379229,6.224984 c 0.20282895,0 0.36812141,0.1652924 0.36812141,0.3756287 0,0.2103362 -0.16529246,0.3756287 -0.36812141,0.3756287 -0.20282894,0 -0.36812137,-0.1652925 -0.36812137,-0.3756287 0,-0.2103363 0.16529243,-0.3756287 0.36812137,-0.3756287 z"
         class="fil0"
         inkscape:connector-curvature="0"
         style="fill:#000000;fill-rule:nonzero;stroke:none" />
      <path
         id="path6225"
         d="m 2.6473964,14.848639 c 0.202829,0 0.3681214,0.165292 0.3681214,0.375694 0,0.210336 -0.1652924,0.375629 -0.3681214,0.375629 -0.2028289,0 -0.3681214,-0.165293 -0.3681214,-0.375629 0,-0.210402 0.1652925,-0.375694 0.3681214,-0.375694 z"
         class="fil0"
         inkscape:connector-curvature="0"
         style="fill:#000000;fill-rule:nonzero;stroke:none" />
      <path
         id="path6227"
         d="m 14.87627,0.09507179 c 0.202829,0 0.368121,0.16522657 0.368121,0.37562867 0,0.21033625 -0.165292,0.37562867 -0.368121,0.37562867 -0.202895,0 -0.368122,-0.16529242 -0.368122,-0.37562867 0,-0.2104021 0.165227,-0.37562867 0.368122,-0.37562867 z"
         class="fil0"
         inkscape:connector-curvature="0"
         style="fill:#000000;fill-rule:nonzero;stroke:none" />
      <path
         id="path6229"
         d="m 7.4675473,15.64652 c 0.2028289,0 0.3681214,0.165293 0.3681214,0.375629 0,0.210402 -0.1652925,0.375694 -0.3681214,0.375694 -0.2028948,0 -0.3681214,-0.165292 -0.3681214,-0.375694 0,-0.210336 0.1652266,-0.375629 0.3681214,-0.375629 z"
         class="fil0"
         inkscape:connector-curvature="0"
         style="fill:#000000;fill-rule:nonzero;stroke:none" />
      <path
         id="path6231"
         d="m 8.8794475,0.09507179 c 0.2028289,0 0.3681214,0.16522657 0.3681214,0.37562867 0,0.21033625 -0.1652925,0.37562867 -0.3681214,0.37562867 -0.2028948,0 -0.3681872,-0.16529242 -0.3681872,-0.37562867 0,-0.2104021 0.1652924,-0.37562867 0.3681872,-0.37562867 z"
         class="fil0"
         inkscape:connector-curvature="0"
         style="fill:#000000;fill-rule:nonzero;stroke:none" />
      <path
         id="path6233"
         d="m 0.35496834,12.037746 c 0.2028948,0 0.36812137,0.165226 0.36812137,0.375628 0,0.210336 -0.16522657,0.375629 -0.36812137,0.375629 -0.20282894,0 -0.36812136,-0.165293 -0.36812136,-0.375629 0,-0.210402 0.16529242,-0.375628 0.36812136,-0.375628 z"
         class="fil0"
         inkscape:connector-curvature="0"
         style="fill:#000000;fill-rule:nonzero;stroke:none" />
      <path
         id="path6235"
         d="m 1.0540038,13.613687 c 0.2028948,0 0.3681872,0.165292 0.3681872,0.375629 0,0.210402 -0.1652924,0.375628 -0.3681872,0.375628 -0.20282893,0 -0.36812135,-0.165226 -0.36812135,-0.375628 0,-0.210337 0.16529242,-0.375629 0.36812135,-0.375629 z"
         class="fil0"
         inkscape:connector-curvature="0"
         style="fill:#000000;fill-rule:nonzero;stroke:none" />
      <path
         id="path6237"
         d="m 15.919127,10.324302 c 0.202894,0 0.368121,0.165226 0.368121,0.375629 0,0.210336 -0.165227,0.375628 -0.368121,0.375628 -0.202829,0 -0.368122,-0.165292 -0.368122,-0.375628 0,-0.210403 0.165293,-0.375629 0.368122,-0.375629 z"
         class="fil0"
         inkscape:connector-curvature="0"
         style="fill:#000000;fill-rule:nonzero;stroke:none" />
      <path
         id="path6239"
         d="m 15.306162,15.458443 c 0.202829,0 0.368121,0.165292 0.368121,0.375628 0,0.210336 -0.165292,0.375629 -0.368121,0.375629 -0.202895,0 -0.368122,-0.165293 -0.368122,-0.375629 0,-0.210336 0.165227,-0.375628 0.368122,-0.375628 z"
         class="fil0"
         inkscape:connector-curvature="0"
         style="fill:#000000;fill-rule:nonzero;stroke:none" />
      <path
         id="path6241"
         d="m 4.0960429,11.340356 c 0.2028289,0 0.3681214,0.165293 0.3681214,0.375695 0,0.210336 -0.1652925,0.375629 -0.3681214,0.375629 -0.202829,0 -0.3681214,-0.165293 -0.3681214,-0.375629 0,-0.210402 0.1652924,-0.375695 0.3681214,-0.375695 z"
         class="fil0"
         inkscape:connector-curvature="0"
         style="fill:#000000;fill-rule:nonzero;stroke:none" />
      <path
         id="path6243"
         d="m 3.5882461,0.05700843 c 0.202829,0 0.3681214,0.16529243 0.3681214,0.37562868 0,0.21033625 -0.1652924,0.37562867 -0.3681214,0.37562867 -0.2028289,0 -0.3681213,-0.16529242 -0.3681213,-0.37562867 0,-0.21033625 0.1652924,-0.37562868 0.3681213,-0.37562868 z"
         class="fil0"
         inkscape:connector-curvature="0"
         style="fill:#000000;fill-rule:nonzero;stroke:none" />
      <path
         id="path6245"
         d="m 0.55061925,8.9417724 c 0.2028948,0 0.36812137,0.1652924 0.36812137,0.3756287 0,0.2103362 -0.16522657,0.3756286 -0.36812137,0.3756286 -0.20282894,0 -0.36812136,-0.1652924 -0.36812136,-0.3756286 0,-0.2103363 0.16529242,-0.3756287 0.36812136,-0.3756287 z"
         class="fil0"
         inkscape:connector-curvature="0"
         style="fill:#000000;fill-rule:nonzero;stroke:none" />
      <path
         id="path6247"
         d="m 12.394644,12.068894 c 0.202829,0 0.368122,0.165293 0.368122,0.375695 0,0.210336 -0.165293,0.375628 -0.368122,0.375628 -0.202894,0 -0.368121,-0.165292 -0.368121,-0.375628 0,-0.210402 0.165227,-0.375695 0.368121,-0.375695 z"
         class="fil0"
         inkscape:connector-curvature="0"
         style="fill:#000000;fill-rule:nonzero;stroke:none" />
      <path
         id="path6249"
         d="m 12.773171,8.5010804 c 0.202829,0 0.368121,0.1652924 0.368121,0.3756945 0,0.2103363 -0.165292,0.3756287 -0.368121,0.3756287 -0.202829,0 -0.368122,-0.1652924 -0.368122,-0.3756287 0,-0.2104021 0.165293,-0.3756945 0.368122,-0.3756945 z"
         class="fil0"
         inkscape:connector-curvature="0"
         style="fill:#000000;fill-rule:nonzero;stroke:none" />
      <path
         id="path6251"
         d="m 10.249465,2.5514094 c 0.202829,0 0.368121,0.1652924 0.368121,0.3756286 0,0.2103363 -0.165292,0.3756287 -0.368121,0.3756287 -0.202829,0 -0.3681215,-0.1652924 -0.3681215,-0.3756287 0,-0.2103362 0.1652925,-0.3756286 0.3681215,-0.3756286 z"
         class="fil0"
         inkscape:connector-curvature="0"
         style="fill:#000000;fill-rule:nonzero;stroke:none" />
      <path
         id="path6253"
         d="m 10.468033,4.1511239 c 0.202829,0 0.368121,0.1652924 0.368121,0.3756287 0,0.2103362 -0.165292,0.3756286 -0.368121,0.3756286 -0.202829,0 -0.368122,-0.1652924 -0.368122,-0.3756286 0,-0.2103363 0.165293,-0.3756287 0.368122,-0.3756287 z"
         class="fil0"
         inkscape:connector-curvature="0"
         style="fill:#000000;fill-rule:nonzero;stroke:none" />
      <path
         id="path6255"
         d="m 6.890275,10.776057 c 0.202829,0 0.3681214,0.165293 0.3681214,0.375629 0,0.210336 -0.1652924,0.375629 -0.3681214,0.375629 -0.2028289,0 -0.3681213,-0.165293 -0.3681213,-0.375629 0,-0.210336 0.1652924,-0.375629 0.3681213,-0.375629 z"
         class="fil0"
         inkscape:connector-curvature="0"
         style="fill:#000000;fill-rule:nonzero;stroke:none" />
      <path
         id="path6257"
         d="m 4.6665981,5.7020409 c 0.2028289,0 0.3681214,0.1652925 0.3681214,0.3756946 0,0.2103362 -0.1652925,0.3756286 -0.3681214,0.3756286 -0.202829,0 -0.3681214,-0.1652924 -0.3681214,-0.3756286 0,-0.2104021 0.1652924,-0.3756946 0.3681214,-0.3756946 z"
         class="fil0"
         inkscape:connector-curvature="0"
         style="fill:#000000;fill-rule:nonzero;stroke:none" />
      <path
         id="path6259"
         d="m 4.4311716,7.9387569 c 0.202829,0 0.3681214,0.1652924 0.3681214,0.3756287 0,0.2104021 -0.1652924,0.3756286 -0.3681214,0.3756286 -0.2028289,0 -0.3681213,-0.1652265 -0.3681213,-0.3756286 0,-0.2103363 0.1652924,-0.3756287 0.3681213,-0.3756287 z"
         class="fil0"
         inkscape:connector-curvature="0"
         style="fill:#000000;fill-rule:nonzero;stroke:none" />
      <path
         id="path6261"
         d="m 7.3567816,3.2296351 c 0.202829,0 0.3681214,0.1652924 0.3681214,0.3756287 0,0.2104021 -0.1652924,0.3756287 -0.3681214,0.3756287 -0.2028948,0 -0.3681213,-0.1652266 -0.3681213,-0.3756287 0,-0.2103363 0.1652265,-0.3756287 0.3681213,-0.3756287 z"
         class="fil0"
         inkscape:connector-curvature="0"
         style="fill:#000000;fill-rule:nonzero;stroke:none" />
      <path
         id="path6263"
         d="m 3.1613175,9.3543449 c 0.2028948,0 0.3681214,0.1652924 0.3681214,0.3756287 0,0.2103362 -0.1652266,0.3756284 -0.3681214,0.3756284 -0.2028289,0 -0.3681213,-0.1652922 -0.3681213,-0.3756284 0,-0.2103363 0.1652924,-0.3756287 0.3681213,-0.3756287 z"
         class="fil0"
         inkscape:connector-curvature="0"
         style="fill:#000000;fill-rule:nonzero;stroke:none" />
      <path
         id="path6265"
         d="m 7.4103864,8.7017362 c 0.202829,0 0.3681214,0.1652924 0.3681214,0.3756286 0,0.2103363 -0.1652924,0.3756287 -0.3681214,0.3756287 -0.2028948,0 -0.3681214,-0.1652924 -0.3681214,-0.3756287 0,-0.2103362 0.1652266,-0.3756286 0.3681214,-0.3756286 z"
         class="fil0"
         inkscape:connector-curvature="0"
         style="fill:#000000;fill-rule:nonzero;stroke:none" />
      <path
         id="path6267"
         d="m 1.7378271,10.659036 c 0.202829,0 0.3681214,0.165292 0.3681214,0.375628 0,0.210402 -0.1652924,0.375629 -0.3681214,0.375629 -0.2028289,0 -0.3681213,-0.165227 -0.3681213,-0.375629 0,-0.210336 0.1652924,-0.375628 0.3681213,-0.375628 z"
         class="fil0"
         inkscape:connector-curvature="0"
         style="fill:#000000;fill-rule:nonzero;stroke:none" />
      <path
         id="path6269"
         d="m 8.4276921,1.888725 c 0.2028948,0 0.3681872,0.1652925 0.3681872,0.3756287 0,0.2104021 -0.1652924,0.3756287 -0.3681872,0.3756287 -0.2028289,0 -0.3681214,-0.1652266 -0.3681214,-0.3756287 0,-0.2103362 0.1652925,-0.3756287 0.3681214,-0.3756287 z"
         class="fil0"
         inkscape:connector-curvature="0"
         style="fill:#000000;fill-rule:nonzero;stroke:none" />
      <path
         id="path6271"
         d="m 0.77544329,3.588076 c 0.20282894,0 0.36812141,0.1652924 0.36812141,0.3756287 0,0.2104021 -0.16529247,0.3756286 -0.36812141,0.3756286 -0.20282895,0 -0.36812137,-0.1652265 -0.36812137,-0.3756286 0,-0.2103363 0.16529242,-0.3756287 0.36812137,-0.3756287 z"
         class="fil0"
         inkscape:connector-curvature="0"
         style="fill:#000000;fill-rule:nonzero;stroke:none" />
      <path
         id="path6273"
         d="m 13.449684,1.4621257 c 0.202829,0 0.368122,0.1652924 0.368122,0.3756287 0,0.2103362 -0.165293,0.3756287 -0.368122,0.3756287 -0.202829,0 -0.368121,-0.1652925 -0.368121,-0.3756287 0,-0.2103363 0.165292,-0.3756287 0.368121,-0.3756287 z"
         class="fil0"
         inkscape:connector-curvature="0"
         style="fill:#000000;fill-rule:nonzero;stroke:none" />
      <path
         id="path6275"
         d="m 6.2453712,4.5116721 c 0.2028948,0 0.3681872,0.1652924 0.3681872,0.3756287 0,0.2103362 -0.1652924,0.3756286 -0.3681872,0.3756286 -0.202829,0 -0.3681214,-0.1652924 -0.3681214,-0.3756286 0,-0.2103363 0.1652924,-0.3756287 0.3681214,-0.3756287 z"
         class="fil0"
         inkscape:connector-curvature="0"
         style="fill:#000000;fill-rule:nonzero;stroke:none" />
    </g>
  </g>
</svg>
