<?xml version="1.0" encoding="UTF-8" standalone="no"?>
<!-- Created with Inkscape (http://www.inkscape.org/) -->

<svg
   xmlns:dc="http://purl.org/dc/elements/1.1/"
   xmlns:cc="http://creativecommons.org/ns#"
   xmlns:rdf="http://www.w3.org/1999/02/22-rdf-syntax-ns#"
   xmlns:svg="http://www.w3.org/2000/svg"
   xmlns="http://www.w3.org/2000/svg"
   xmlns:sodipodi="http://sodipodi.sourceforge.net/DTD/sodipodi-0.dtd"
   xmlns:inkscape="http://www.inkscape.org/namespaces/inkscape"
   width="16"
   height="16"
   id="svg7187"
   version="1.1"
   inkscape:version="0.48.3.1 r9886"
   sodipodi:docname="GeoPat_Rhyolith.svg">
  <defs
     id="defs7189" />
  <sodipodi:namedview
     id="base"
     pagecolor="#ffffff"
     bordercolor="#666666"
     borderopacity="1.0"
     inkscape:pageopacity="0.0"
     inkscape:pageshadow="2"
     inkscape:zoom="4"
     inkscape:cx="-39.838803"
     inkscape:cy="69.839016"
     inkscape:current-layer="layer1"
     showgrid="true"
     inkscape:grid-bbox="true"
     inkscape:document-units="px"
     fit-margin-top="0"
     fit-margin-left="0"
     fit-margin-right="0"
     fit-margin-bottom="0"
     inkscape:window-width="849"
     inkscape:window-height="861"
     inkscape:window-x="25"
     inkscape:window-y="19"
     inkscape:window-maximized="0" />
  <metadata
     id="metadata7192">
    <rdf:RDF>
      <cc:Work
         rdf:about="">
        <dc:format>image/svg+xml</dc:format>
        <dc:type
           rdf:resource="http://purl.org/dc/dcmitype/StillImage" />
        <dc:title />
      </cc:Work>
    </rdf:RDF>
  </metadata>
  <g
     id="layer1"
     inkscape:label="Layer 1"
     inkscape:groupmode="layer"
     transform="translate(0.02546167,3.6111393)">
    <g
       id="g4366">
      <rect
         y="-3.60762"
         x="-0.02936792"
         height="15.998306"
         width="16.006119"
         id="rect4364"
         style="fill:#ffffff;fill-opacity:1;stroke:none" />
      <path
         id="path4531"
         d="m 1.357186,-3.6108487 -1.39388153,2.2055257 2.78776323,0 L 1.357186,-3.6108487 z M 5.7682416,0.80020472 4.37436,3.0057324 l 2.7877632,0 -1.3938816,-2.20552768 z m 0,8.82210898 -1.3938816,2.2055283 2.7877632,0 L 5.7682416,9.6223137 z M 1.357186,5.2112602 l -1.39388153,2.2055257 2.78776323,0 L 1.357186,5.2112602 z m 8.816229,-8.8221089 -1.3938818,2.2055257 2.7877628,0 -1.393881,-2.2055257 z m 4.411056,4.41105342 -1.393882,2.20552768 2.787763,0 -1.393881,-2.20552768 z m 0,8.82210898 -1.393882,2.2055283 2.787763,0 -1.393881,-2.2055283 z m -4.411056,-4.4110535 -1.3938818,2.2055257 2.7877628,0 -1.393881,-2.2055257 z"
         class="fil0 str0"
         inkscape:connector-curvature="0"
         style="fill:none;stroke:#000000;stroke-width:0.30000001;stroke-miterlimit:4;stroke-dasharray:none" />
    </g>
  </g>
</svg>
