<?xml version="1.0" encoding="UTF-8" standalone="no"?>
<!-- Created with Inkscape (http://www.inkscape.org/) -->

<svg
   xmlns:dc="http://purl.org/dc/elements/1.1/"
   xmlns:cc="http://creativecommons.org/ns#"
   xmlns:rdf="http://www.w3.org/1999/02/22-rdf-syntax-ns#"
   xmlns:svg="http://www.w3.org/2000/svg"
   xmlns="http://www.w3.org/2000/svg"
   xmlns:sodipodi="http://sodipodi.sourceforge.net/DTD/sodipodi-0.dtd"
   xmlns:inkscape="http://www.inkscape.org/namespaces/inkscape"
   width="16"
   height="16"
   id="svg9432"
   version="1.1"
   inkscape:version="0.48.3.1 r9886"
   sodipodi:docname="GeoPat_sonstiges3.svg">
  <defs
     id="defs9434" />
  <sodipodi:namedview
     id="base"
     pagecolor="#ffffff"
     bordercolor="#666666"
     borderopacity="1.0"
     inkscape:pageopacity="0.0"
     inkscape:pageshadow="2"
     inkscape:zoom="16"
     inkscape:cx="1.721806"
     inkscape:cy="13.577289"
     inkscape:current-layer="layer1"
     showgrid="true"
     inkscape:grid-bbox="true"
     inkscape:document-units="px"
     inkscape:window-width="864"
     inkscape:window-height="852"
     inkscape:window-x="12"
     inkscape:window-y="20"
     inkscape:window-maximized="0"
     fit-margin-top="0"
     fit-margin-left="0"
     fit-margin-right="0"
     fit-margin-bottom="0" />
  <metadata
     id="metadata9437">
    <rdf:RDF>
      <cc:Work
         rdf:about="">
        <dc:format>image/svg+xml</dc:format>
        <dc:type
           rdf:resource="http://purl.org/dc/dcmitype/StillImage" />
        <dc:title />
      </cc:Work>
    </rdf:RDF>
  </metadata>
  <g
     id="layer1"
     inkscape:label="Layer 1"
     inkscape:groupmode="layer"
     transform="translate(1.3051137,26.54704)">
    <g
       id="g4363">
      <path
         id="path4618"
         d="m 9.658357,-14.532705 c 0.1473795,0 0.2675057,0.120127 0.2675057,0.272971 0,0.152842 -0.1201262,0.272968 -0.2675057,0.272968 -0.1473794,0 -0.2675055,-0.120126 -0.2675055,-0.272968 0,-0.152844 0.1201261,-0.272971 0.2675055,-0.272971 z"
         class="fil0 str0"
         inkscape:connector-curvature="0"
         style="fill:#000000;fill-rule:nonzero;stroke:none" />
      <path
         id="path4620"
         d="m 6.49758,-19.724267 c 0.1473795,0 0.2674443,0.120126 0.2674443,0.272971 0,0.152842 -0.1200648,0.272905 -0.2674443,0.272905 -0.1474425,0 -0.2675056,-0.120063 -0.2675056,-0.272905 0,-0.152845 0.1200632,-0.272971 0.2675056,-0.272971 z"
         class="fil0 str0"
         inkscape:connector-curvature="0"
         style="fill:#000000;fill-rule:nonzero;stroke:none" />
      <path
         id="path4622"
         d="m 4.3575946,-12.370868 c 0.1473811,0 0.2675074,0.120065 0.2675074,0.272908 0,0.152905 -0.1201262,0.272968 -0.2675074,0.272968 -0.1473795,0 -0.2675057,-0.120063 -0.2675057,-0.272968 0,-0.152843 0.1201262,-0.272908 0.2675057,-0.272908 z"
         class="fil0 str0"
         inkscape:connector-curvature="0"
         style="fill:#000000;fill-rule:nonzero;stroke:none" />
      <path
         id="path4624"
         d="m 8.168048,-11.093494 c 0.1473794,0 0.2675056,0.120126 0.2675056,0.272968 0,0.152844 -0.1201262,0.27297 -0.2675056,0.27297 -0.1474426,0 -0.2675058,-0.120126 -0.2675058,-0.27297 0,-0.152842 0.1200632,-0.272968 0.2675058,-0.272968 z"
         class="fil0 str0"
         inkscape:connector-curvature="0"
         style="fill:#000000;fill-rule:nonzero;stroke:none" />
      <path
         id="path4626"
         d="m 13.659895,-16.295982 c 0.14738,0 0.267443,0.120126 0.267443,0.272968 0,0.152842 -0.120063,0.272969 -0.267443,0.272969 -0.147442,0 -0.267506,-0.120127 -0.267506,-0.272969 0,-0.152842 0.120064,-0.272968 0.267506,-0.272968 z"
         class="fil0 str0"
         inkscape:connector-curvature="0"
         style="fill:#000000;fill-rule:nonzero;stroke:none" />
      <path
         id="path4628"
         d="m 13.354147,-11.350011 c 0.14738,0 0.267506,0.120063 0.267506,0.272907 0,0.152842 -0.120126,0.272969 -0.267506,0.272969 -0.147379,0 -0.267505,-0.120127 -0.267505,-0.272969 0,-0.152844 0.120126,-0.272907 0.267505,-0.272907 z"
         class="fil0 str0"
         inkscape:connector-curvature="0"
         style="fill:#000000;fill-rule:nonzero;stroke:none" />
      <path
         id="path4630"
         d="m -0.42454534,-12.283519 c 0.14738118,0 0.26744431,0.120063 0.26744431,0.272906 0,0.152905 -0.12006313,0.27297 -0.26744431,0.27297 -0.14744075,0 -0.26750563,-0.120065 -0.26750563,-0.27297 0,-0.152843 0.12006488,-0.272906 0.26750563,-0.272906 z"
         class="fil0 str0"
         inkscape:connector-curvature="0"
         style="fill:#000000;fill-rule:nonzero;stroke:none" />
      <path
         id="path4632"
         d="m 1.0548397,-26.247894 c 0.1473794,0 0.2675056,0.120126 0.2675056,0.272968 0,0.152843 -0.1201262,0.272969 -0.2675056,0.272969 -0.14738112,0 -0.26750732,-0.120126 -0.26750732,-0.272969 0,-0.152842 0.1201262,-0.272968 0.26750732,-0.272968 z"
         class="fil0 str0"
         inkscape:connector-curvature="0"
         style="fill:#000000;fill-rule:nonzero;stroke:none" />
      <path
         id="path4634"
         d="m -0.72482843,-18.255746 c 0.14737943,0 0.26750563,0.120063 0.26750563,0.272905 0,0.152844 -0.1201262,0.272971 -0.26750563,0.272971 -0.14737943,0 -0.26750562,-0.120127 -0.26750562,-0.272971 0,-0.152842 0.12012619,-0.272905 0.26750562,-0.272905 z"
         class="fil0 str0"
         inkscape:connector-curvature="0"
         style="fill:#000000;fill-rule:nonzero;stroke:none" />
      <path
         id="path4636"
         d="m 5.498514,-16.181319 c 0.1474425,0 0.2675074,0.120063 0.2675074,0.272968 0,0.152843 -0.1200649,0.272908 -0.2675074,0.272908 -0.1473794,0 -0.2674425,-0.120065 -0.2674425,-0.272908 0,-0.152905 0.1200631,-0.272968 0.2674425,-0.272968 z"
         class="fil0 str0"
         inkscape:connector-curvature="0"
         style="fill:#000000;fill-rule:nonzero;stroke:none" />
      <path
         id="path4638"
         d="m 11.26333,-18.970916 c 0.147381,0 0.267507,0.120126 0.267507,0.272968 0,0.152843 -0.120126,0.272969 -0.267507,0.272969 -0.14738,0 -0.267506,-0.120126 -0.267506,-0.272969 0,-0.152842 0.120126,-0.272968 0.267506,-0.272968 z"
         class="fil0 str0"
         inkscape:connector-curvature="0"
         style="fill:#000000;fill-rule:nonzero;stroke:none" />
      <path
         id="path4640"
         d="m 12.027606,-22.219042 c 0.14738,0 0.267506,0.120063 0.267506,0.272907 0,0.152843 -0.120126,0.272969 -0.267506,0.272969 -0.147379,0 -0.267505,-0.120126 -0.267505,-0.272969 0,-0.152844 0.120126,-0.272907 0.267505,-0.272907 z"
         class="fil0 str0"
         inkscape:connector-curvature="0"
         style="fill:#000000;fill-rule:nonzero;stroke:none" />
      <path
         id="path4642"
         d="m 7.7039948,-22.666706 c 0.1473796,0 0.2675057,0.120065 0.2675057,0.272968 0,0.152843 -0.1201261,0.272908 -0.2675057,0.272908 -0.1473794,0 -0.2675056,-0.120065 -0.2675056,-0.272908 0,-0.152903 0.1201262,-0.272968 0.2675056,-0.272968 z"
         class="fil0 str0"
         inkscape:connector-curvature="0"
         style="fill:#000000;fill-rule:nonzero;stroke:none" />
      <path
         id="path4644"
         d="m 1.9009986,-19.385803 c 0.1473795,0 0.2675056,0.120065 0.2675056,0.27297 0,0.152843 -0.1201262,0.272906 -0.2675056,0.272906 -0.1473795,0 -0.2675057,-0.120063 -0.2675057,-0.272906 0,-0.152905 0.1201262,-0.27297 0.2675057,-0.27297 z"
         class="fil0 str0"
         inkscape:connector-curvature="0"
         style="fill:#000000;fill-rule:nonzero;stroke:none" />
      <path
         id="path4646"
         d="m 6.0826319,-25.177872 c 0.1474425,0 0.2675056,0.120065 0.2675056,0.272908 0,0.152905 -0.1200631,0.272968 -0.2675056,0.272968 -0.1473794,0 -0.2674426,-0.120063 -0.2674426,-0.272968 0,-0.152843 0.1200632,-0.272908 0.2674426,-0.272908 z"
         class="fil0 str0"
         inkscape:connector-curvature="0"
         style="fill:#000000;fill-rule:nonzero;stroke:none" />
      <path
         id="path4648"
         d="m -0.9540937,-23.294529 c 0.14737943,0 0.26750564,0.120126 0.26750564,0.27297 0,0.152843 -0.12012621,0.272969 -0.26750564,0.272969 -0.1473795,0 -0.2675056,-0.120126 -0.2675056,-0.272969 0,-0.152844 0.1201262,-0.27297 0.2675056,-0.27297 z"
         class="fil0 str0"
         inkscape:connector-curvature="0"
         style="fill:#000000;fill-rule:nonzero;stroke:none" />
      <path
         id="path4650"
         d="m 6.0826319,-25.177872 c 0.1474425,0 0.2675056,0.120065 0.2675056,0.272908 0,0.152905 -0.1200631,0.272968 -0.2675056,0.272968 -0.1473794,0 -0.2674426,-0.120063 -0.2674426,-0.272968 0,-0.152843 0.1200632,-0.272908 0.2674426,-0.272908 z"
         class="fil0 str0"
         inkscape:connector-curvature="0"
         style="fill:#000000;fill-rule:nonzero;stroke:none" />
      <path
         d="m -1.3034835,-14.23242 4.5583395,0 m -3.51563143,-1.599509 0,1.599509 m 2.03618503,0.0055 0,1.59951"
         style="fill:none;stroke:#000000;stroke-width:0.30000001;stroke-miterlimit:4;stroke-dasharray:none"
         id="path10952"
         inkscape:connector-curvature="0" />
      <path
         d="m 7.2345403,-16.874637 4.5583397,0 m -3.5156947,-1.59951 0,1.59951 m 2.0362477,0.0055 0,1.599509"
         style="fill:none;stroke:#000000;stroke-width:0.30000001;stroke-miterlimit:4;stroke-dasharray:none"
         id="path10946"
         inkscape:connector-curvature="0" />
      <path
         d="m 0.71091121,-22.382873 4.55833929,0 m -3.5156314,-1.59951 0,1.59951 m 2.036248,0.0055 0,1.599509"
         style="fill:none;stroke:#000000;stroke-width:0.30000001;stroke-miterlimit:4;stroke-dasharray:none"
         id="path10940"
         inkscape:connector-curvature="0" />
      <path
         d="m 9.658357,-24.954071 4.55834,0 m -3.515632,-1.59951 0,1.59951 m 2.036248,0.0055 0,1.599509"
         style="fill:none;stroke:#000000;stroke-width:0.30000001;stroke-miterlimit:4;stroke-dasharray:none"
         id="path4652"
         inkscape:connector-curvature="0" />
      <rect
         y="-26.547039"
         x="-1.3051137"
         height="15.999998"
         width="16"
         id="rect4361"
         style="fill:none;stroke:none" />
    </g>
  </g>
</svg>
