<?xml version="1.0" encoding="UTF-8" standalone="no"?>
<!-- Created with Inkscape (http://www.inkscape.org/) -->

<svg
   xmlns:dc="http://purl.org/dc/elements/1.1/"
   xmlns:cc="http://creativecommons.org/ns#"
   xmlns:rdf="http://www.w3.org/1999/02/22-rdf-syntax-ns#"
   xmlns:svg="http://www.w3.org/2000/svg"
   xmlns="http://www.w3.org/2000/svg"
   xmlns:sodipodi="http://sodipodi.sourceforge.net/DTD/sodipodi-0.dtd"
   xmlns:inkscape="http://www.inkscape.org/namespaces/inkscape"
   width="15.761547"
   height="14.355747"
   id="svg4090"
   version="1.1"
   inkscape:version="0.48.2 r9819"
   sodipodi:docname="GeoPat_Kalkstein_sandig.svg">
  <defs
     id="defs4092" />
  <sodipodi:namedview
     id="base"
     pagecolor="#ffffff"
     bordercolor="#666666"
     borderopacity="1.0"
     inkscape:pageopacity="0.0"
     inkscape:pageshadow="2"
     inkscape:zoom="45.254834"
     inkscape:cx="10.741119"
     inkscape:cy="7.0623529"
     inkscape:current-layer="layer1"
     showgrid="true"
     inkscape:grid-bbox="true"
     inkscape:document-units="px"
     fit-margin-top="0"
     fit-margin-left="0"
     fit-margin-right="0"
     fit-margin-bottom="0"
     inkscape:window-width="1920"
     inkscape:window-height="1000"
     inkscape:window-x="0"
     inkscape:window-y="25"
     inkscape:window-maximized="1"
     showguides="true"
     inkscape:guide-bbox="true"
     inkscape:snap-bbox="true"
     inkscape:object-paths="true"
     inkscape:object-nodes="true" />
  <metadata
     id="metadata4095">
    <rdf:RDF>
      <cc:Work
         rdf:about="">
        <dc:format>image/svg+xml</dc:format>
        <dc:type
           rdf:resource="http://purl.org/dc/dcmitype/StillImage" />
        <dc:title />
      </cc:Work>
    </rdf:RDF>
  </metadata>
  <g
     id="layer1"
     inkscape:label="Layer 1"
     inkscape:groupmode="layer"
     transform="translate(0.08650461,-0.23704859)">
    <g
       id="g3020">
      <circle
         transform="matrix(0.6848422,0,0,0.6848422,-0.68476348,-0.74718642)"
         id="circle3904"
         r="0.3926"
         cy="4.2487998"
         cx="6.7962999"
         class="fil1 str0"
         sodipodi:cx="6.7962999"
         sodipodi:cy="4.2487998"
         sodipodi:rx="0.3926"
         sodipodi:ry="0.3926"
         style="fill:#000000;stroke:none"
         d="m 7.1888999,4.2487998 c 0,0.216827 -0.175773,0.3926 -0.3926,0.3926 -0.216827,0 -0.3926,-0.175773 -0.3926,-0.3926 0,-0.216827 0.175773,-0.3926 0.3926,-0.3926 0.216827,0 0.3926,0.175773 0.3926,0.3926 z" />
      <circle
         transform="matrix(0.6848422,0,0,0.6848422,-0.68476348,-0.74718642)"
         id="circle3906"
         r="0.3926"
         cy="9.434"
         cx="12.5"
         class="fil1 str0"
         sodipodi:cx="12.5"
         sodipodi:cy="9.434"
         sodipodi:rx="0.3926"
         sodipodi:ry="0.3926"
         style="fill:#000000;stroke:none"
         d="m 12.8926,9.434 c 0,0.216827 -0.175773,0.3926 -0.3926,0.3926 -0.216827,0 -0.3926,-0.175773 -0.3926,-0.3926 0,-0.216827 0.175773,-0.3926 0.3926,-0.3926 0.216827,0 0.3926,0.175773 0.3926,0.3926 z" />
      <circle
         transform="matrix(0.6848422,0,0,0.6848422,-0.68476348,-0.74718642)"
         id="circle3908"
         r="0.3926"
         cy="14.6192"
         cx="18.203699"
         class="fil1 str0"
         sodipodi:cx="18.203699"
         sodipodi:cy="14.6192"
         sodipodi:rx="0.3926"
         sodipodi:ry="0.3926"
         style="fill:#000000;stroke:none"
         d="m 18.596299,14.6192 c 0,0.216827 -0.175773,0.3926 -0.3926,0.3926 -0.216827,0 -0.3926,-0.175773 -0.3926,-0.3926 0,-0.216827 0.175773,-0.3926 0.3926,-0.3926 0.216827,0 0.3926,0.175773 0.3926,0.3926 z" />
      <path
         id="path3910"
         d="m 15.688033,13.08464 c -0.148543,0 -0.268869,-0.120395 -0.268869,-0.268937 0,-0.148406 0.120326,-0.26887 0.268869,-0.26887 1.37e-4,0 2.12e-4,0 2.83e-4,0"
         class="fil0 str0"
         inkscape:connector-curvature="0"
         style="fill:#000000;stroke:none" />
      <path
         id="path3914"
         d="m 0.18392714,12.815703 c 0,0.148542 -0.12032761,0.268937 -0.26886924,0.268937 l 0,-0.537807 c 0.14854163,0 0.26886924,0.120464 0.26886924,0.26887 z"
         class="fil1 str0"
         inkscape:connector-curvature="0"
         style="fill:#000000;stroke:none" />
      <circle
         transform="matrix(0.6848422,0,0,0.6848422,-0.68476348,-0.74718642)"
         id="circle3916"
         r="0.3926"
         cy="14.5825"
         cx="6.8182001"
         class="fil1 str0"
         sodipodi:cx="6.8182001"
         sodipodi:cy="14.5825"
         sodipodi:rx="0.3926"
         sodipodi:ry="0.3926"
         style="fill:#000000;stroke:none"
         d="m 7.2108001,14.5825 c 0,0.216827 -0.175773,0.3926 -0.3926,0.3926 -0.216827,0 -0.3926,-0.175773 -0.3926,-0.3926 0,-0.216827 0.175773,-0.3926 0.3926,-0.3926 0.216827,0 0.3926,0.175773 0.3926,0.3926 z" />
      <circle
         transform="matrix(0.6848422,0,0,0.6848422,-0.68476348,-0.74718642)"
         id="circle3918"
         r="0.3926"
         cy="4.2347999"
         cx="18.262899"
         class="fil1 str0"
         sodipodi:cx="18.262899"
         sodipodi:cy="4.2347999"
         sodipodi:rx="0.3926"
         sodipodi:ry="0.3926"
         style="fill:#000000;stroke:none"
         d="m 18.655499,4.2347999 c 0,0.216827 -0.175773,0.3926 -0.3926,0.3926 -0.216827,0 -0.3926,-0.175773 -0.3926,-0.3926 0,-0.216827 0.175773,-0.3926 0.3926,-0.3926 0.216827,0 0.3926,0.175773 0.3926,0.3926 z" />
      <circle
         transform="matrix(0.6848422,0,0,0.6848422,-0.68476348,-0.74718642)"
         id="circle3920"
         r="0.3926"
         cy="19.807301"
         cx="12.5021"
         class="fil1 str0"
         sodipodi:cx="12.5021"
         sodipodi:cy="19.807301"
         sodipodi:rx="0.3926"
         sodipodi:ry="0.3926"
         style="fill:#000000;stroke:none"
         d="m 12.8947,19.807301 c 0,0.216827 -0.175773,0.3926 -0.3926,0.3926 -0.216827,0 -0.3926,-0.175773 -0.3926,-0.3926 0,-0.216827 0.175773,-0.3926 0.3926,-0.3926 0.216827,0 0.3926,0.175773 0.3926,0.3926 z" />
      <path
         id="path3922"
         d="m 15.688033,5.9825524 c -0.148543,0 -0.268869,-0.1203952 -0.268869,-0.2689375 0,-0.1484053 0.120326,-0.2688691 0.268869,-0.2688691 1.37e-4,0 2.12e-4,0 2.83e-4,0"
         class="fil0 str0"
         inkscape:connector-curvature="0"
         style="fill:#000000;stroke:none" />
      <path
         id="path3926"
         d="m 0.18392714,5.7136149 c 0,0.1485423 -0.12032761,0.2689375 -0.26886924,0.2689375 l 0,-0.5378066 c 0.14854163,0 0.26886924,0.1204638 0.26886924,0.2688691 z"
         class="fil1 str0"
         inkscape:connector-curvature="0"
         style="fill:#000000;stroke:none" />
      <path
         d="m 0.05958915,0.39028461 7.81226795,0 0,3.55104419 -7.81226795,0 z m 7.81226795,3.55104419 3.9061349,0 0,3.5510434 -7.812269,0 0,-3.5510434 m -0.018359,7.1020862 -3.88777505,0 0,-3.5510428 3.88777505,0 m 0,7.1020868 0,-3.551044 7.8122688,0 0,3.551044 m 0.01836,-7.1020868 3.906133,0 m -7.8122679,-7.10208759 7.8122679,0 m -3.906133,3.55104419 3.906133,0 m -3.906133,7.1020862 3.906133,0 m -7.8122679,0 -0.020122,-3.5510428"
         style="fill:none;stroke:#000000;stroke-width:0.29999995;stroke-linecap:butt;stroke-linejoin:miter;stroke-miterlimit:4;stroke-opacity:1;stroke-dasharray:none"
         id="path6546" />
    </g>
  </g>
</svg>
