<?xml version="1.0" encoding="UTF-8" standalone="no"?>
<!-- Created with Inkscape (http://www.inkscape.org/) -->

<svg
   xmlns:dc="http://purl.org/dc/elements/1.1/"
   xmlns:cc="http://creativecommons.org/ns#"
   xmlns:rdf="http://www.w3.org/1999/02/22-rdf-syntax-ns#"
   xmlns:svg="http://www.w3.org/2000/svg"
   xmlns="http://www.w3.org/2000/svg"
   xmlns:sodipodi="http://sodipodi.sourceforge.net/DTD/sodipodi-0.dtd"
   xmlns:inkscape="http://www.inkscape.org/namespaces/inkscape"
   width="16.00231"
   height="16.646082"
   id="svg7187"
   version="1.1"
   inkscape:version="0.48.2 r9819"
   sodipodi:docname="GeoPat_Rhyolith.svg">
  <defs
     id="defs7189" />
  <sodipodi:namedview
     id="base"
     pagecolor="#ffffff"
     bordercolor="#666666"
     borderopacity="1.0"
     inkscape:pageopacity="0.0"
     inkscape:pageshadow="2"
     inkscape:zoom="31.392433"
     inkscape:cx="10.714443"
     inkscape:cy="6.6656832"
     inkscape:current-layer="layer1"
     showgrid="true"
     inkscape:grid-bbox="true"
     inkscape:document-units="px"
     fit-margin-top="0"
     fit-margin-left="0"
     fit-margin-right="0"
     fit-margin-bottom="0"
     inkscape:window-width="1920"
     inkscape:window-height="1000"
     inkscape:window-x="0"
     inkscape:window-y="25"
     inkscape:window-maximized="1" />
  <metadata
     id="metadata7192">
    <rdf:RDF>
      <cc:Work
         rdf:about="">
        <dc:format>image/svg+xml</dc:format>
        <dc:type
           rdf:resource="http://purl.org/dc/dcmitype/StillImage" />
        <dc:title></dc:title>
      </cc:Work>
    </rdf:RDF>
  </metadata>
  <g
     id="layer1"
     inkscape:label="Layer 1"
     inkscape:groupmode="layer"
     transform="translate(0.32776622,3.9451958)">
    <g
       id="g7947"
       transform="matrix(1.2367863,0,0,1.2367863,-0.62873892,-0.00601501)">
      <polyline
         transform="matrix(0.61975951,0,0,0.61975951,-1.9419629,-4.8351388)"
         id="polyline4357"
         points="21.4743,22.6475 19.2859,20.3649 18.9236,23.5099 "
         class="fil0 str0"
         style="fill:none;stroke:#000000;stroke-width:0.3913843;stroke-miterlimit:4;stroke-dasharray:none" />
      <polyline
         transform="matrix(0.61975951,0,0,0.61975951,-1.9419629,-4.8351388)"
         id="polyline4359"
         points="21.3874,17.3214 24.4671,18.0461 23.0903,15.191 "
         class="fil0 str0"
         style="fill:none;stroke:#000000;stroke-width:0.3913843;stroke-miterlimit:4;stroke-dasharray:none" />
      <polyline
         transform="matrix(0.61975951,0,0,0.61975951,-1.9419629,-4.8351388)"
         id="polyline4361"
         points="16.8801,15.2055 15.2932,17.9446 18.4164,17.4446 "
         class="fil0 str0"
         style="fill:none;stroke:#000000;stroke-width:0.3913843;stroke-miterlimit:4;stroke-dasharray:none" />
      <polyline
         transform="matrix(0.61975951,0,0,0.61975951,-1.9419629,-4.8351388)"
         id="polyline4363"
         points="6.6845,19.5026 3.554,19.9519 5.8874,22.0896 "
         class="fil0 str0"
         style="fill:none;stroke:#000000;stroke-width:0.3913843;stroke-miterlimit:4;stroke-dasharray:none" />
      <polyline
         transform="matrix(0.61975951,0,0,0.61975951,-1.9419629,-4.8351388)"
         id="polyline4365"
         points="14.5323,12.6693 13.7062,9.5968 11.8656,12.1693 "
         class="fil0 str0"
         style="fill:none;stroke:#000000;stroke-width:0.3913843;stroke-miterlimit:4;stroke-dasharray:none" />
      <polyline
         transform="matrix(0.61975951,0,0,0.61975951,-1.9419629,-4.8351388)"
         id="polyline4367"
         points="8.5975,18.4301 9.4308,15.3649 6.5323,16.662 "
         class="fil0 str0"
         style="fill:none;stroke:#000000;stroke-width:0.3913843;stroke-miterlimit:4;stroke-dasharray:none" />
      <polyline
         transform="matrix(0.61975951,0,0,0.61975951,-1.9419629,-4.8351388)"
         id="polyline4369"
         points="8.8874,22.3142 11.3077,24.3722 11.3656,21.1983 "
         class="fil0 str0"
         style="fill:none;stroke:#000000;stroke-width:0.3913843;stroke-miterlimit:4;stroke-dasharray:none" />
      <polyline
         transform="matrix(0.61975951,0,0,0.61975951,-1.9419629,-4.8351388)"
         id="polyline4371"
         points="4.8004,9.6548 3.8077,12.6765 6.7714,11.5243 "
         class="fil0 str0"
         style="fill:none;stroke:#000000;stroke-width:0.3913843;stroke-miterlimit:4;stroke-dasharray:none" />
      <polyline
         transform="matrix(0.61975951,0,0,0.61975951,-1.9419629,-4.8351388)"
         id="polyline4373"
         points="22.0468,8.0243 19.0323,9.0316 21.7207,10.72 "
         class="fil0 str0"
         style="fill:none;stroke:#000000;stroke-width:0.3913843;stroke-miterlimit:4;stroke-dasharray:none" />
      <polyline
         transform="matrix(0.61975951,0,0,0.61975951,-1.9419629,-4.8351388)"
         id="polyline4375"
         points="18.1482,4.9156 15.9598,2.633 15.5975,5.7779 "
         class="fil0 str0"
         style="fill:none;stroke:#000000;stroke-width:0.3913843;stroke-miterlimit:4;stroke-dasharray:none" />
      <polyline
         transform="matrix(0.61975951,0,0,0.61975951,-1.9419629,-4.8351388)"
         id="polyline4377"
         points="10.5468,4.7997 7.5685,5.8866 10.2932,7.5026 "
         class="fil0 str0"
         style="fill:none;stroke:#000000;stroke-width:0.3913843;stroke-miterlimit:4;stroke-dasharray:none" />
      <polyline
         transform="matrix(0.61975951,0,0,0.61975951,-1.9419629,-4.8351388)"
         id="polyline4379"
         points="3.9164,5.5026 6.5468,3.7127 3.5106,2.8142 "
         class="fil0 str0"
         style="fill:none;stroke:#000000;stroke-width:0.3913843;stroke-miterlimit:4;stroke-dasharray:none" />
    </g>
  </g>
</svg>
