<?xml version="1.0" encoding="UTF-8" standalone="no"?>
<!-- Created with Inkscape (http://www.inkscape.org/) -->

<svg
   xmlns:dc="http://purl.org/dc/elements/1.1/"
   xmlns:cc="http://creativecommons.org/ns#"
   xmlns:rdf="http://www.w3.org/1999/02/22-rdf-syntax-ns#"
   xmlns:svg="http://www.w3.org/2000/svg"
   xmlns="http://www.w3.org/2000/svg"
   xmlns:sodipodi="http://sodipodi.sourceforge.net/DTD/sodipodi-0.dtd"
   xmlns:inkscape="http://www.inkscape.org/namespaces/inkscape"
   width="15.465518"
   height="14.086868"
   id="svg9432"
   version="1.1"
   inkscape:version="0.48.3.1 r9886"
   sodipodi:docname="GeoPat_Marmor.svg">
  <defs
     id="defs9434" />
  <sodipodi:namedview
     id="base"
     pagecolor="#ffffff"
     bordercolor="#666666"
     borderopacity="1.0"
     inkscape:pageopacity="0.0"
     inkscape:pageshadow="2"
     inkscape:zoom="32"
     inkscape:cx="5.5017439"
     inkscape:cy="6.6747817"
     inkscape:current-layer="layer1"
     showgrid="true"
     inkscape:grid-bbox="true"
     inkscape:document-units="px"
     inkscape:window-width="875"
     inkscape:window-height="912"
     inkscape:window-x="33"
     inkscape:window-y="16"
     inkscape:window-maximized="0"
     fit-margin-top="0"
     fit-margin-left="0"
     fit-margin-right="0"
     fit-margin-bottom="0" />
  <metadata
     id="metadata9437">
    <rdf:RDF>
      <cc:Work
         rdf:about="">
        <dc:format>image/svg+xml</dc:format>
        <dc:type
           rdf:resource="http://purl.org/dc/dcmitype/StillImage" />
        <dc:title />
      </cc:Work>
    </rdf:RDF>
  </metadata>
  <g
     id="layer1"
     inkscape:label="Layer 1"
     inkscape:groupmode="layer"
     transform="translate(0.38622096,8.9880372)">
    <g
       id="g4664">
      <path
         sodipodi:nodetypes="cccccccssccccccccccccscccccsscccccsssccccc"
         id="path3769"
         d="m 3.1405932,-8.0566928 0.5034561,1.3895196 0.417932,-1.3895196 0.8259498,0 0,0.029287 c -0.1808933,0 -0.300122,0.011957 -0.3578245,0.035803 -0.019811,0.00793 -0.031766,0.01592 -0.035729,0.023846 -0.00986,0.017868 -0.01488,0.05367 -0.01488,0.1073408 l 0,1.5276924 c 0,0.059649 0.00398,0.096459 0.011938,0.1103635 0.00398,0.00793 0.018409,0.01639 0.043255,0.025324 0.024846,0.00893 0.068119,0.016391 0.1297138,0.022368 0.061595,0.00598 0.1361502,0.00893 0.2236122,0.00893 l 0,0.03231 -1.1485127,0 0,-0.03231 c 0.071614,0 0.1377074,-0.00296 0.1982993,-0.00893 0.060661,-0.00598 0.1024284,-0.013435 0.1252671,-0.022368 0.022839,-0.00893 0.036283,-0.017398 0.040244,-0.025324 0.00796,-0.01592 0.011938,-0.05273 0.011938,-0.1103635 L 4.1123151,-7.95533 c 0,-0.033788 -0.00398,-0.050715 -0.011938,-0.050715 -0.00796,0 -0.016956,0.014913 -0.02687,0.044736 l -0.5456387,1.8278838 -0.065627,0 -0.6435685,-1.8303691 -0.02386,-0.044737 c -0.00589,0 -0.009,0.016927 -0.009,0.050715 l 0,1.2493989 c 0,0.22066 0.029292,0.3662888 0.087929,0.4368194 0.058654,0.070598 0.1694739,0.1058631 0.3325116,0.1058631 l 0,0.03231 -0.8438922,0 0,-0.03231 c 0.139178,0 0.2375924,-0.035803 0.2952255,-0.107341 0.057634,-0.071538 0.086458,-0.1928506 0.086458,-0.3642736 l 0,-0.9218681 c 0,-0.1749832 -0.026801,-0.2966986 -0.080472,-0.3652814 -0.053674,-0.068582 -0.1540954,-0.1029069 -0.3012151,-0.1029069 l 0,-0.03231 0.7782653,0.00303 z"
         class="fil1"
         inkscape:connector-curvature="0"
         style="fill:#000000;fill-rule:nonzero;stroke:none" />
      <path
         sodipodi:nodetypes="cccccccssccccccccccccscccccsscccccsssscccc"
         id="path3771"
         d="m 6.9718813,-4.5736912 0.5034561,1.3895196 0.4179319,-1.3895196 0.8259495,0 0,0.029287 c -0.1808934,0 -0.3001219,0.011957 -0.3578241,0.035803 -0.019811,0.00793 -0.031766,0.01592 -0.035729,0.023846 -0.010035,0.017868 -0.014879,0.05367 -0.014879,0.1073408 l 0,1.5276923 c 0,0.059649 0.00398,0.096459 0.011938,0.1103636 0.00398,0.00793 0.018409,0.01639 0.043255,0.025324 0.024863,0.00893 0.068119,0.01639 0.1297138,0.022368 0.061592,0.00598 0.1361502,0.00893 0.2236124,0.00893 l 0,0.03231 -1.1485129,0 0,-0.03231 c 0.071613,0 0.1377073,-0.00296 0.1982993,-0.00893 0.060661,-0.00598 0.1024283,-0.013435 0.1252671,-0.022368 0.022838,-0.00893 0.036283,-0.017398 0.040244,-0.025324 0.00796,-0.01592 0.011938,-0.05273 0.011938,-0.1103636 l -0.00294,-1.6226064 c 0,-0.033788 -0.00398,-0.050715 -0.011938,-0.050715 -0.00796,0 -0.016956,0.014913 -0.02687,0.044737 l -0.5456387,1.827884 -0.065626,0 -0.6435685,-1.8303693 -0.02386,-0.044736 c -0.00589,0 -0.009,0.016927 -0.009,0.050715 l 0,1.2493987 c 0,0.2206601 0.029292,0.3662888 0.087929,0.4368195 0.058655,0.070598 0.169474,0.1058629 0.3325116,0.1058629 l 0,0.03231 -0.8438921,0 0,-0.03231 c 0.139178,0 0.2375923,-0.035802 0.2952255,-0.1073407 0.057633,-0.071538 0.086458,-0.1928508 0.086458,-0.3642737 l 0,-0.9218683 c 0,-0.1749829 -0.026801,-0.2966984 -0.080472,-0.3652812 -0.053671,-0.068583 -0.1540924,-0.1029074 -0.301212,-0.1029074 l 0,-0.03231 0.7782651,0.00303 z"
         class="fil1"
         inkscape:connector-curvature="0"
         style="fill:#000000;fill-rule:nonzero;stroke:none" />
      <path
         sodipodi:nodetypes="cccccccssccccccccccccscccccssccccccssccccc"
         id="path3773"
         d="m 10.803169,-1.0906898 0.503456,1.38951966 0.417933,-1.38951966 0.82595,0 0,0.029287 c -0.180894,0 -0.300123,0.011958 -0.357825,0.035803 -0.01981,0.00793 -0.03177,0.01592 -0.03573,0.023846 -0.0099,0.0178677 -0.01488,0.0536704 -0.01488,0.10734081 l 0,1.52769225 c 0,0.0596487 0.004,0.096459 0.01194,0.11036361 0.004,0.007927 0.01841,0.0163898 0.04325,0.0253238 0.02484,0.008933 0.06812,0.0163898 0.129714,0.0223685 0.06159,0.005982 0.136151,0.008933 0.223613,0.008933 l 0,0.0323096 -1.148513,0 0,-0.0323096 c 0.07161,0 0.137707,-0.002956 0.198299,-0.008933 0.06066,-0.005982 0.102428,-0.0134354 0.125267,-0.0223685 0.02284,-0.008933 0.03629,-0.0173979 0.04024,-0.0253238 0.0079,-0.0159198 0.01194,-0.05273 0.01194,-0.11036361 l -0.0031,-1.62260631 c 0,-0.0337877 -0.004,-0.0507148 -0.01194,-0.0507148 -0.0079,0 -0.01695,0.014913 -0.02687,0.0447365 l -0.545639,1.82788384 -0.06563,0 -0.643568,-1.83036929 -0.02386,-0.0447364 c -0.0058,0 -0.009,0.016927 -0.009,0.0507148 l 0,1.2493987 c 0,0.22065999 0.02929,0.3662889 0.08793,0.43681942 0.05864,0.0705979 0.169474,0.10586306 0.332511,0.10586306 l 0,0.0323096 -0.843892,0 0,-0.0323096 c 0.139178,0 0.237592,-0.035803 0.295226,-0.1073408 0.05763,-0.071538 0.08646,-0.19285082 0.08646,-0.36427373 l 0,-0.92186821 c 0,-0.17498295 -0.02682,-0.29669865 -0.08047,-0.36528119 -0.05367,-0.0685824 -0.154093,-0.10290745 -0.301212,-0.10290745 l 0,-0.03231 0.778264,0.00302 z"
         class="fil1"
         inkscape:connector-curvature="0"
         style="fill:#000000;fill-rule:nonzero;stroke:none" />
      <path
         sodipodi:nodetypes="cccccccssccccccssccccc"
         id="path3775"
         d="m 14.634457,2.3923117 0.454492,1.2544367 0,0.4433351 -0.06732,0.2254964 -0.06563,0 -0.643569,-1.8303693 -0.02384,-0.044736 c -0.0058,0 -0.009,0.016927 -0.009,0.050715 l 0,1.2493987 c 0,0.22066 0.02929,0.3662889 0.08793,0.4368195 0.05863,0.070598 0.169474,0.105863 0.332494,0.105863 l 0,0.03231 -0.843874,0 0,-0.03231 c 0.139178,0 0.237575,-0.035803 0.295208,-0.1073408 0.05765,-0.071538 0.08646,-0.1928508 0.08646,-0.3642736 l 0,-0.9218683 c 0,-0.174983 -0.0268,-0.2966986 -0.08047,-0.3652812 C 14.103663,2.4559238 14.003244,2.421599 13.856142,2.421599 l 0,-0.03231 0.778248,0.00303 z"
         class="fil1"
         inkscape:connector-curvature="0"
         style="fill:#000000;fill-rule:nonzero;stroke:none" />
      <polygon
         transform="matrix(0.6717198,0,0,0.6717198,-0.89843515,-9.7760267)"
         id="polygon3777"
         points="2.0981,20.846 2.1625,20.8837 2.3556,20.917 2.6885,20.9303 2.6885,20.9784 0.9787,20.9784 0.9787,20.9303 1.2739,20.917 1.4604,20.8837 1.5203,20.846 1.5381,20.6817 1.5336,18.2661 1.5159,18.1906 1.4759,18.2572 0.7638,20.6426 0.7638,19.9827 0.8367,20.1838 1.4589,18.1152 2.6885,18.1152 2.6885,18.1588 2.1558,18.2121 2.1026,18.2476 2.0804,18.4074 2.0804,20.6817 "
         class="fil1"
         style="fill:#000000;fill-rule:nonzero;stroke:none" />
      <path
         sodipodi:nodetypes="cccccccccccccccccccccccc"
         d="m 3.5950844,1.6109673 7.6625766,0 m 3.831288,-6.966003 -7.6625765,0 0,-3.4830016 7.6625765,0 m -7.6625765,3.4830016 -7.66259346,0 0,-3.4830016 7.66259346,0 m -3.8312881,3.4830016 0,3.4830015 -3.97974286,0 m 15.47360746,0 -3.831288,0 0,-3.4830015 m -11.64856157,6.966003 3.98598497,0 0,3.4830014 m 7.6625766,0 0,-3.4830014 3.831288,0 m -11.4938646,-3.4830015 7.6625936,0"
         style="fill:none;stroke:#000000;stroke-width:0.30000001;stroke-linecap:butt;stroke-linejoin:miter;stroke-miterlimit:4;stroke-opacity:1;stroke-dasharray:none"
         id="path6621"
         inkscape:connector-curvature="0" />
    </g>
  </g>
</svg>
