<?xml version="1.0" encoding="UTF-8" standalone="no"?>
<!-- Created with Inkscape (http://www.inkscape.org/) -->

<svg
   xmlns:dc="http://purl.org/dc/elements/1.1/"
   xmlns:cc="http://creativecommons.org/ns#"
   xmlns:rdf="http://www.w3.org/1999/02/22-rdf-syntax-ns#"
   xmlns:svg="http://www.w3.org/2000/svg"
   xmlns="http://www.w3.org/2000/svg"
   xmlns:sodipodi="http://sodipodi.sourceforge.net/DTD/sodipodi-0.dtd"
   xmlns:inkscape="http://www.inkscape.org/namespaces/inkscape"
   width="17.4"
   height="18.209999"
   id="svg7187"
   version="1.1"
   inkscape:version="0.48.3.1 r9886"
   sodipodi:docname="GeoPat_Limonit.svg">
  <defs
     id="defs7189" />
  <sodipodi:namedview
     id="base"
     pagecolor="#ffffff"
     bordercolor="#666666"
     borderopacity="1.0"
     inkscape:pageopacity="0.0"
     inkscape:pageshadow="2"
     inkscape:zoom="11.313709"
     inkscape:cx="15.512269"
     inkscape:cy="16.15855"
     inkscape:current-layer="layer1"
     showgrid="true"
     inkscape:grid-bbox="true"
     inkscape:document-units="px"
     fit-margin-top="0"
     fit-margin-left="0"
     fit-margin-right="0"
     fit-margin-bottom="0"
     inkscape:window-width="767"
     inkscape:window-height="946"
     inkscape:window-x="25"
     inkscape:window-y="25"
     inkscape:window-maximized="0"
     showguides="true"
     inkscape:guide-bbox="true"
     inkscape:snap-object-midpoints="true"
     inkscape:object-paths="true"
     inkscape:object-nodes="true"
     inkscape:snap-center="true"
     inkscape:snap-to-guides="true"
     inkscape:snap-global="true" />
  <metadata
     id="metadata7192">
    <rdf:RDF>
      <cc:Work
         rdf:about="">
        <dc:format>image/svg+xml</dc:format>
        <dc:type
           rdf:resource="http://purl.org/dc/dcmitype/StillImage" />
        <dc:title />
      </cc:Work>
    </rdf:RDF>
  </metadata>
  <g
     id="layer1"
     inkscape:label="Layer 1"
     inkscape:groupmode="layer"
     transform="translate(0.97246133,6.3662514)">
    <g
       id="g4900">
      <rect
         y="-6.3669329"
         x="-0.97123593"
         height="18.21068"
         width="17.405918"
         id="rect4898"
         style="fill:none;stroke:none" />
      <path
         inkscape:connector-curvature="0"
         d="m 9.1533142,-3.5803978 1.4299188,0 0,1.429919 -1.4299188,0 z m 1.8198138,0.7149594 c 0,0.6101942 -0.49466,1.1048543 -1.1048538,1.1048543 -0.610195,0 -1.104855,-0.4946601 -1.104855,-1.1048543 0,-0.6101942 0.49466,-1.1048544 1.104855,-1.1048544 0.6101938,0 1.1048538,0.4946603 1.1048538,1.1048544 z"
         style="fill:none;stroke:#000000;stroke-width:0.30000001;stroke-miterlimit:4"
         id="rect3855" />
      <path
         id="path3859"
         style="fill:none;stroke:#000000;stroke-width:0.30000001;stroke-miterlimit:4"
         d="m 0.3455113,-3.5800504 1.4299188,0 0,1.429919 -1.4299188,0 z m 1.8198138,0.7149594 c 0,0.6101942 -0.49466,1.1048543 -1.1048538,1.1048543 -0.610195,0 -1.104855,-0.4946601 -1.104855,-1.1048543 0,-0.6101942 0.49466,-1.1048544 1.104855,-1.1048544 0.6101938,0 1.1048538,0.4946603 1.1048538,1.1048544 z"
         inkscape:connector-curvature="0" />
      <path
         inkscape:connector-curvature="0"
         d="m 13.560149,0.8267855 1.429919,0 0,1.429919 -1.429919,0 z m 1.819814,0.7149594 c 0,0.6101942 -0.49466,1.1048543 -1.104854,1.1048543 -0.610195,0 -1.104855,-0.4946601 -1.104855,-1.1048543 0,-0.6101942 0.49466,-1.1048544 1.104855,-1.1048544 0.610194,0 1.104854,0.4946603 1.104854,1.1048544 z"
         style="fill:none;stroke:#000000;stroke-width:0.30000001;stroke-miterlimit:4"
         id="path3861" />
      <path
         id="path3863"
         style="fill:none;stroke:#000000;stroke-width:0.30000001;stroke-miterlimit:4"
         d="m 4.752347,1.0295083 1.429919,0 0,1.429919 -1.429919,0 z m 1.819814,0.7149594 c 0,0.6101942 -0.4946599,1.1048543 -1.1048539,1.1048543 -0.6101951,0 -1.1048551,-0.4946601 -1.1048551,-1.1048543 0,-0.6101942 0.49466,-1.10485439 1.1048551,-1.10485439 0.610194,0 1.1048539,0.49466029 1.1048539,1.10485439 z"
         inkscape:connector-curvature="0" />
      <path
         inkscape:connector-curvature="0"
         d="m 0.34551122,5.1504164 1.42991898,0 0,1.429919 -1.42991898,0 z M 2.1653252,5.8653758 c 0,0.6101942 -0.4946599,1.1048543 -1.1048539,1.1048543 -0.61019508,0 -1.10485508,-0.4946601 -1.10485508,-1.1048543 0,-0.6101942 0.49466,-1.1048543 1.10485508,-1.1048543 0.610194,0 1.1048539,0.4946602 1.1048539,1.1048543 z"
         style="fill:none;stroke:#000000;stroke-width:0.30000001;stroke-miterlimit:4"
         id="path3865" />
      <path
         id="path3867"
         style="fill:none;stroke:#000000;stroke-width:0.30000001;stroke-miterlimit:4"
         d="m 9.153314,5.2336197 1.429919,0 0,1.429919 -1.429919,0 z m 1.819814,0.7149594 c 0,0.6101942 -0.49466,1.1048543 -1.1048539,1.1048543 -0.6101951,0 -1.1048551,-0.4946601 -1.1048551,-1.1048543 0,-0.6101942 0.49466,-1.1048543 1.1048551,-1.1048543 0.6101939,0 1.1048539,0.4946602 1.1048539,1.1048543 z"
         inkscape:connector-curvature="0" />
      <path
         inkscape:connector-curvature="0"
         d="m 4.752347,9.874401 1.429919,0 0,1.429919 -1.429919,0 z m 1.819814,0.714959 c 0,0.610195 -0.49466,1.104855 -1.1048539,1.104855 -0.6101951,0 -1.1048551,-0.49466 -1.1048551,-1.104855 0,-0.6101938 0.49466,-1.1048539 1.1048551,-1.1048539 0.6101939,0 1.1048539,0.4946602 1.1048539,1.1048539 z"
         style="fill:none;stroke:#000000;stroke-width:0.30000001;stroke-miterlimit:4"
         id="path3869" />
      <path
         id="path3871"
         style="fill:none;stroke:#000000;stroke-width:0.30000001;stroke-miterlimit:4"
         d="m 13.560149,9.874402 1.429919,0 0,1.429919 -1.429919,0 z m 1.819814,0.714959 c 0,0.610195 -0.49466,1.104855 -1.104854,1.104855 -0.610195,0 -1.104855,-0.49466 -1.104855,-1.104855 0,-0.6101938 0.49466,-1.1048539 1.104855,-1.1048539 0.610194,0 1.104854,0.4946602 1.104854,1.1048539 z"
         inkscape:connector-curvature="0" />
    </g>
  </g>
</svg>
