<?xml version="1.0" encoding="UTF-8" standalone="no"?>
<!-- Created with Inkscape (http://www.inkscape.org/) -->

<svg
   xmlns:dc="http://purl.org/dc/elements/1.1/"
   xmlns:cc="http://creativecommons.org/ns#"
   xmlns:rdf="http://www.w3.org/1999/02/22-rdf-syntax-ns#"
   xmlns:svg="http://www.w3.org/2000/svg"
   xmlns="http://www.w3.org/2000/svg"
   xmlns:sodipodi="http://sodipodi.sourceforge.net/DTD/sodipodi-0.dtd"
   xmlns:inkscape="http://www.inkscape.org/namespaces/inkscape"
   width="16px"
   height="16px"
   id="svg4200"
   version="1.1"
   inkscape:version="0.48.3.1 r9886"
   sodipodi:docname="GeoPat_Sandstein_mittel.svg">
  <defs
     id="defs4202" />
  <sodipodi:namedview
     id="base"
     pagecolor="#ffffff"
     bordercolor="#666666"
     borderopacity="1.0"
     inkscape:pageopacity="0.0"
     inkscape:pageshadow="2"
     inkscape:zoom="32"
     inkscape:cx="7.393807"
     inkscape:cy="7.7139196"
     inkscape:current-layer="layer1"
     showgrid="true"
     inkscape:grid-bbox="true"
     inkscape:document-units="px"
     inkscape:window-width="764"
     inkscape:window-height="843"
     inkscape:window-x="100"
     inkscape:window-y="50"
     inkscape:window-maximized="0" />
  <metadata
     id="metadata4205">
    <rdf:RDF>
      <cc:Work
         rdf:about="">
        <dc:format>image/svg+xml</dc:format>
        <dc:type
           rdf:resource="http://purl.org/dc/dcmitype/StillImage" />
        <dc:title />
      </cc:Work>
    </rdf:RDF>
  </metadata>
  <g
     id="layer1"
     inkscape:label="Layer 1"
     inkscape:groupmode="layer">
    <g
       id="g4516">
      <path
         id="path5917"
         d="m 13.834498,6.8037925 c 0.08615,0 0.156366,0.070214 0.156366,0.1595024 0,0.089352 -0.07021,0.1595664 -0.156366,0.1595664 -0.08615,0 -0.156366,-0.070214 -0.156366,-0.1595664 0,-0.089288 0.07021,-0.1595024 0.156366,-0.1595024 z"
         class="fil0"
         inkscape:connector-curvature="0"
         style="fill:#000000;fill-rule:nonzero;stroke:none" />
      <path
         id="path5919"
         d="m 15.529371,7.2887643 c 0.08615,0 0.156303,0.070214 0.156303,0.1595665 0,0.089288 -0.07015,0.1595024 -0.156303,0.1595024 -0.08615,0 -0.156366,-0.070214 -0.156366,-0.1595024 0,-0.089352 0.07022,-0.1595665 0.156366,-0.1595665 z"
         class="fil0"
         inkscape:connector-curvature="0"
         style="fill:#000000;fill-rule:nonzero;stroke:none" />
      <path
         id="path5921"
         d="m 13.578539,3.3960603 c 0.08622,0 0.156366,0.070214 0.156366,0.1595664 0,0.089352 -0.07015,0.1595664 -0.156366,0.1595664 -0.08615,0 -0.156366,-0.070214 -0.156366,-0.1595664 0,-0.089352 0.07021,-0.1595664 0.156366,-0.1595664 z"
         class="fil0"
         inkscape:connector-curvature="0"
         style="fill:#000000;fill-rule:nonzero;stroke:none" />
      <path
         id="path5923"
         d="m 15.09458,2.2892722 c 0.08615,0 0.156366,0.070214 0.156366,0.1595664 0,0.089352 -0.07021,0.1595024 -0.156366,0.1595024 -0.08615,0 -0.156302,-0.07015 -0.156302,-0.1595024 0,-0.089352 0.07015,-0.1595664 0.156302,-0.1595664 z"
         class="fil0"
         inkscape:connector-curvature="0"
         style="fill:#000000;fill-rule:nonzero;stroke:none" />
      <path
         id="path5925"
         d="m 5.0255734,2.4154276 c 0.086152,0 0.1563661,0.070214 0.1563661,0.1595664 0,0.089352 -0.070214,0.1595024 -0.1563661,0.1595024 -0.086152,0 -0.1563662,-0.07015 -0.1563662,-0.1595024 0,-0.089352 0.070214,-0.1595664 0.1563662,-0.1595664 z"
         class="fil0"
         inkscape:connector-curvature="0"
         style="fill:#000000;fill-rule:nonzero;stroke:none" />
      <path
         id="path5927"
         d="m 13.052411,14.923631 c 0.08615,0 0.156302,0.07021 0.156302,0.159566 0,0.08935 -0.07015,0.159503 -0.156302,0.159503 -0.08615,0 -0.156366,-0.07015 -0.156366,-0.159503 0,-0.08935 0.07021,-0.159566 0.156366,-0.159566 z"
         class="fil0"
         inkscape:connector-curvature="0"
         style="fill:#000000;fill-rule:nonzero;stroke:none" />
      <path
         id="path5929"
         d="m 8.6862565,14.471174 c 0.086152,0 0.1563661,0.07015 0.1563661,0.159502 0,0.08935 -0.070214,0.159567 -0.1563661,0.159567 -0.086152,0 -0.1563662,-0.07022 -0.1563662,-0.159567 0,-0.08935 0.070214,-0.159502 0.1563662,-0.159502 z"
         class="fil0"
         inkscape:connector-curvature="0"
         style="fill:#000000;fill-rule:nonzero;stroke:none" />
      <path
         id="path5931"
         d="m 11.504495,13.620153 c 0.08615,0 0.156367,0.07021 0.156367,0.159566 0,0.08935 -0.07021,0.159503 -0.156367,0.159503 -0.08615,0 -0.156366,-0.07015 -0.156366,-0.159503 0,-0.08935 0.07021,-0.159566 0.156366,-0.159566 z"
         class="fil0"
         inkscape:connector-curvature="0"
         style="fill:#000000;fill-rule:nonzero;stroke:none" />
      <path
         id="path5933"
         d="m 14.05487,13.408806 c 0.08615,0 0.156366,0.07021 0.156366,0.159566 0,0.08935 -0.07021,0.159567 -0.156366,0.159567 -0.08615,0 -0.156366,-0.07021 -0.156366,-0.159567 0,-0.08935 0.07021,-0.159566 0.156366,-0.159566 z"
         class="fil0"
         inkscape:connector-curvature="0"
         style="fill:#000000;fill-rule:nonzero;stroke:none" />
      <path
         id="path5935"
         d="m 15.847352,13.296348 c 0.08615,0 0.156366,0.07021 0.156366,0.159566 0,0.08935 -0.07021,0.159567 -0.156366,0.159567 -0.08609,0 -0.156302,-0.07022 -0.156302,-0.159567 0,-0.08935 0.07021,-0.159566 0.156302,-0.159566 z"
         class="fil0"
         inkscape:connector-curvature="0"
         style="fill:#000000;fill-rule:nonzero;stroke:none" />
      <path
         id="path5937"
         d="m 5.7886504,12.341829 c 0.086152,0 0.1563661,0.07021 0.1563661,0.159503 0,0.08935 -0.070214,0.159566 -0.1563661,0.159566 -0.086152,0 -0.1563662,-0.07021 -0.1563662,-0.159566 0,-0.08929 0.070214,-0.159503 0.1563662,-0.159503 z"
         class="fil0"
         inkscape:connector-curvature="0"
         style="fill:#000000;fill-rule:nonzero;stroke:none" />
      <path
         id="path5939"
         d="m 1.9236608,1.7845225 c 0.086152,0 0.1563662,0.070214 0.1563662,0.1595664 0,0.089352 -0.070214,0.1595665 -0.1563662,0.1595665 -0.086216,0 -0.1563661,-0.070214 -0.1563661,-0.1595665 0,-0.089352 0.07015,-0.1595664 0.1563661,-0.1595664 z"
         class="fil0"
         inkscape:connector-curvature="0"
         style="fill:#000000;fill-rule:nonzero;stroke:none" />
      <path
         id="path5941"
         d="m 6.0080622,1.0329025 c 0.086152,0 0.1563662,0.070214 0.1563662,0.1595664 0,0.089352 -0.070214,0.1595665 -0.1563662,0.1595665 -0.086216,0 -0.1563661,-0.070214 -0.1563661,-0.1595665 0,-0.089352 0.07015,-0.1595664 0.1563661,-0.1595664 z"
         class="fil0"
         inkscape:connector-curvature="0"
         style="fill:#000000;fill-rule:nonzero;stroke:none" />
      <path
         id="path5943"
         d="m 2.2778689,4.9815477 c 0.086152,0 0.1563661,0.070214 0.1563661,0.1595664 0,0.089352 -0.070214,0.1595664 -0.1563661,0.1595664 -0.086152,0 -0.1563662,-0.070214 -0.1563662,-0.1595664 0,-0.089352 0.070214,-0.1595664 0.1563662,-0.1595664 z"
         class="fil0"
         inkscape:connector-curvature="0"
         style="fill:#000000;fill-rule:nonzero;stroke:none" />
      <path
         id="path5945"
         d="m 2.3003989,6.7559801 c 0.086152,0 0.1563661,0.070214 0.1563661,0.1595665 0,0.089288 -0.070214,0.1595024 -0.1563661,0.1595024 -0.086152,0 -0.1563661,-0.070214 -0.1563661,-0.1595024 0,-0.089352 0.070214,-0.1595665 0.1563661,-0.1595665 z"
         class="fil0"
         inkscape:connector-curvature="0"
         style="fill:#000000;fill-rule:nonzero;stroke:none" />
      <path
         id="path5947"
         d="m 14.18557,9.1455083 c 0.08615,0 0.156302,0.070214 0.156302,0.1595664 0,0.089288 -0.07015,0.1595024 -0.156302,0.1595024 -0.08615,0 -0.156366,-0.070214 -0.156366,-0.1595024 0,-0.089352 0.07021,-0.1595664 0.156366,-0.1595664 z"
         class="fil0"
         inkscape:connector-curvature="0"
         style="fill:#000000;fill-rule:nonzero;stroke:none" />
      <path
         id="path5949"
         d="m 15.702123,4.7157316 c 0.08615,0 0.156366,0.070214 0.156366,0.1595664 0,0.089352 -0.07021,0.1595025 -0.156366,0.1595025 -0.08615,0 -0.156366,-0.07015 -0.156366,-0.1595025 0,-0.089352 0.07021,-0.1595664 0.156366,-0.1595664 z"
         class="fil0"
         inkscape:connector-curvature="0"
         style="fill:#000000;fill-rule:nonzero;stroke:none" />
      <path
         id="path5951"
         d="m 8.8479991,9.0570523 c 0.086152,0 0.1563661,0.070214 0.1563661,0.1595664 0,0.089288 -0.070214,0.1595024 -0.1563661,0.1595024 -0.086152,0 -0.1563661,-0.070214 -0.1563661,-0.1595024 0,-0.089352 0.070214,-0.1595664 0.1563661,-0.1595664 z"
         class="fil0"
         inkscape:connector-curvature="0"
         style="fill:#000000;fill-rule:nonzero;stroke:none" />
      <path
         id="path5953"
         d="m 13.320212,4.6923695 c 0.08615,0 0.156302,0.070214 0.156302,0.1595024 0,0.089352 -0.07015,0.1595665 -0.156302,0.1595665 -0.08615,0 -0.156367,-0.070214 -0.156367,-0.1595665 0,-0.089288 0.07021,-0.1595024 0.156367,-0.1595024 z"
         class="fil0"
         inkscape:connector-curvature="0"
         style="fill:#000000;fill-rule:nonzero;stroke:none" />
      <path
         id="path5955"
         d="m 5.4473715,9.1055686 c 0.086152,0 0.1563662,0.070214 0.1563662,0.1595665 0,0.089352 -0.070214,0.1595024 -0.1563662,0.1595024 -0.086152,0 -0.1563021,-0.07015 -0.1563021,-0.1595024 0,-0.089352 0.07015,-0.1595665 0.1563021,-0.1595665 z"
         class="fil0"
         inkscape:connector-curvature="0"
         style="fill:#000000;fill-rule:nonzero;stroke:none" />
      <path
         id="path5957"
         d="m 4.3156212,13.416807 c 0.086152,0 0.1563021,0.07015 0.1563021,0.159502 0,0.08935 -0.07015,0.159566 -0.1563021,0.159566 -0.086152,0 -0.1563662,-0.07021 -0.1563662,-0.159566 0,-0.08935 0.070214,-0.159502 0.1563662,-0.159502 z"
         class="fil0"
         inkscape:connector-curvature="0"
         style="fill:#000000;fill-rule:nonzero;stroke:none" />
      <path
         id="path5959"
         d="m 11.895059,3.2192123 c 0.08615,0 0.156366,0.070214 0.156366,0.1595664 0,0.089352 -0.07021,0.1595024 -0.156366,0.1595024 -0.08615,0 -0.156366,-0.07015 -0.156366,-0.1595024 0,-0.089352 0.07021,-0.1595664 0.156366,-0.1595664 z"
         class="fil0"
         inkscape:connector-curvature="0"
         style="fill:#000000;fill-rule:nonzero;stroke:none" />
      <path
         id="path5961"
         d="m 11.589495,6.5644748 c 0.08615,0 0.156302,0.07015 0.156302,0.1595024 0,0.089352 -0.07015,0.1595665 -0.156302,0.1595665 -0.08615,0 -0.156366,-0.070214 -0.156366,-0.1595665 0,-0.089352 0.07021,-0.1595024 0.156366,-0.1595024 z"
         class="fil0"
         inkscape:connector-curvature="0"
         style="fill:#000000;fill-rule:nonzero;stroke:none" />
      <path
         id="path5963"
         d="m 12.570448,10.268682 c 0.08615,0 0.156366,0.07021 0.156366,0.159566 0,0.08929 -0.07021,0.159503 -0.156366,0.159503 -0.08615,0 -0.156366,-0.07022 -0.156366,-0.159503 0,-0.08935 0.07021,-0.159566 0.156366,-0.159566 z"
         class="fil0"
         inkscape:connector-curvature="0"
         style="fill:#000000;fill-rule:nonzero;stroke:none" />
      <path
         id="path5965"
         d="m 8.6289713,11.157786 c 0.086152,0 0.1563661,0.07022 0.1563661,0.159567 0,0.08935 -0.070214,0.159566 -0.1563661,0.159566 -0.086152,0 -0.1563662,-0.07021 -0.1563662,-0.159566 0,-0.08935 0.070214,-0.159567 0.1563662,-0.159567 z"
         class="fil0"
         inkscape:connector-curvature="0"
         style="fill:#000000;fill-rule:nonzero;stroke:none" />
      <path
         id="path5967"
         d="m 10.225852,10.656877 c 0.08615,0 0.156302,0.07015 0.156302,0.159502 0,0.08935 -0.07015,0.159567 -0.156302,0.159567 -0.08615,0 -0.156366,-0.07022 -0.156366,-0.159567 0,-0.08935 0.07021,-0.159502 0.156366,-0.159502 z"
         class="fil0"
         inkscape:connector-curvature="0"
         style="fill:#000000;fill-rule:nonzero;stroke:none" />
      <path
         id="path5969"
         d="m 9.9762931,12.560537 c 0.086152,0 0.1563659,0.07021 0.1563659,0.159503 0,0.08935 -0.07021,0.159566 -0.1563659,0.159566 -0.086088,0 -0.1563021,-0.07021 -0.1563021,-0.159566 0,-0.08929 0.070214,-0.159503 0.1563021,-0.159503 z"
         class="fil0"
         inkscape:connector-curvature="0"
         style="fill:#000000;fill-rule:nonzero;stroke:none" />
      <path
         id="path5971"
         d="m 6.2957683,6.6907582 c 0.086152,0 0.1563021,0.070214 0.1563021,0.1595665 0,0.089352 -0.07015,0.1595024 -0.1563021,0.1595024 -0.086152,0 -0.1563662,-0.07015 -0.1563662,-0.1595024 0,-0.089352 0.070214,-0.1595665 0.1563662,-0.1595665 z"
         class="fil0"
         inkscape:connector-curvature="0"
         style="fill:#000000;fill-rule:nonzero;stroke:none" />
      <path
         id="path5973"
         d="m 9.9518429,5.8198315 c 0.086152,0 0.1563661,0.07015 0.1563661,0.1595024 0,0.089352 -0.07021,0.1595664 -0.1563661,0.1595664 -0.086152,0 -0.1563661,-0.070214 -0.1563661,-0.1595664 0,-0.089352 0.070214,-0.1595024 0.1563661,-0.1595024 z"
         class="fil0"
         inkscape:connector-curvature="0"
         style="fill:#000000;fill-rule:nonzero;stroke:none" />
      <path
         id="path5975"
         d="m 8.7552547,6.9429411 c 0.086152,0 0.1563661,0.070214 0.1563661,0.1595664 0,0.089352 -0.070214,0.1595024 -0.1563661,0.1595024 -0.086152,0 -0.1563661,-0.07015 -0.1563661,-0.1595024 0,-0.089352 0.070214,-0.1595664 0.1563661,-0.1595664 z"
         class="fil0"
         inkscape:connector-curvature="0"
         style="fill:#000000;fill-rule:nonzero;stroke:none" />
      <path
         id="path5977"
         d="m 11.125453,0.76170999 c 0.08615,0 0.156366,0.0702144 0.156366,0.15956643 0,0.0893521 -0.07021,0.15956648 -0.156366,0.15956648 -0.08615,0 -0.156366,-0.070214 -0.156366,-0.15956648 0,-0.0893521 0.07021,-0.15956643 0.156366,-0.15956643 z"
         class="fil0"
         inkscape:connector-curvature="0"
         style="fill:#000000;fill-rule:nonzero;stroke:none" />
      <path
         id="path5979"
         d="m 3.3417731,3.2512792 c 0.086152,0 0.1563661,0.070214 0.1563661,0.1595664 0,0.089352 -0.070214,0.1595664 -0.1563661,0.1595664 -0.086152,0 -0.1563662,-0.070214 -0.1563662,-0.1595664 0,-0.089352 0.070214,-0.1595664 0.1563662,-0.1595664 z"
         class="fil0"
         inkscape:connector-curvature="0"
         style="fill:#000000;fill-rule:nonzero;stroke:none" />
      <path
         id="path5981"
         d="m 0.37408067,0.70557691 c 0.0861518,0 0.15636614,0.0702143 0.15636614,0.15956643 0,0.0893521 -0.0702144,0.15956646 -0.15636614,0.15956646 -0.0861518,0 -0.15636614,-0.0702144 -0.15636614,-0.15956646 0,-0.0893521 0.0702144,-0.15956643 0.15636614,-0.15956643 z"
         class="fil0"
         inkscape:connector-curvature="0"
         style="fill:#000000;fill-rule:nonzero;stroke:none" />
      <path
         id="path5983"
         d="m 2.6251643,12.32538 c 0.086152,0 0.1563021,0.07015 0.1563021,0.159502 0,0.08935 -0.07015,0.159567 -0.1563021,0.159567 -0.086152,0 -0.1563662,-0.07021 -0.1563662,-0.159567 0,-0.08935 0.070214,-0.159502 0.1563662,-0.159502 z"
         class="fil0"
         inkscape:connector-curvature="0"
         style="fill:#000000;fill-rule:nonzero;stroke:none" />
      <path
         id="path5985"
         d="m 7.9885294,4.7123393 c 0.086152,0 0.1563021,0.070214 0.1563021,0.1595024 0,0.089352 -0.07015,0.1595665 -0.1563021,0.1595665 -0.086152,0 -0.1563662,-0.070214 -0.1563662,-0.1595665 0,-0.089288 0.070214,-0.1595024 0.1563662,-0.1595024 z"
         class="fil0"
         inkscape:connector-curvature="0"
         style="fill:#000000;fill-rule:nonzero;stroke:none" />
      <path
         id="path5987"
         d="m 13.824385,11.674569 c 0.08615,0 0.156302,0.07021 0.156302,0.159566 0,0.08935 -0.07015,0.159567 -0.156302,0.159567 -0.08615,0 -0.156366,-0.07021 -0.156366,-0.159567 0,-0.08935 0.07021,-0.159566 0.156366,-0.159566 z"
         class="fil0"
         inkscape:connector-curvature="0"
         style="fill:#000000;fill-rule:nonzero;stroke:none" />
      <path
         id="path5989"
         d="m 10.748331,8.136777 c 0.08615,0 0.156366,0.070214 0.156366,0.1595665 0,0.089288 -0.07021,0.1595024 -0.156366,0.1595024 -0.08615,0 -0.156302,-0.070214 -0.156302,-0.1595024 0,-0.089352 0.07015,-0.1595665 0.156302,-0.1595665 z"
         class="fil0"
         inkscape:connector-curvature="0"
         style="fill:#000000;fill-rule:nonzero;stroke:none" />
      <path
         id="path5991"
         d="m 7.6462904,12.872181 c 0.086152,0 0.1563661,0.07022 0.1563661,0.159567 0,0.08935 -0.070214,0.159502 -0.1563661,0.159502 -0.086152,0 -0.1563661,-0.07015 -0.1563661,-0.159502 0,-0.08935 0.070214,-0.159567 0.1563661,-0.159567 z"
         class="fil0"
         inkscape:connector-curvature="0"
         style="fill:#000000;fill-rule:nonzero;stroke:none" />
      <path
         id="path5993"
         d="m 6.0223355,14.225648 c 0.086152,0 0.1563662,0.07021 0.1563662,0.159566 0,0.08935 -0.070214,0.159503 -0.1563662,0.159503 -0.086152,0 -0.1563661,-0.07015 -0.1563661,-0.159503 0,-0.08935 0.070214,-0.159566 0.1563661,-0.159566 z"
         class="fil0"
         inkscape:connector-curvature="0"
         style="fill:#000000;fill-rule:nonzero;stroke:none" />
      <path
         id="path5995"
         d="m 10.879287,15.304465 c 0.08615,0 0.156366,0.07021 0.156366,0.159567 0,0.08935 -0.07021,0.159502 -0.156366,0.159502 -0.08615,0 -0.156366,-0.07015 -0.156366,-0.159502 0,-0.08935 0.07021,-0.159567 0.156366,-0.159567 z"
         class="fil0"
         inkscape:connector-curvature="0"
         style="fill:#000000;fill-rule:nonzero;stroke:none" />
      <path
         id="path5997"
         d="m 4.4515055,15.386521 c 0.086152,0 0.1563021,0.07021 0.1563021,0.159502 0,0.08935 -0.07015,0.159567 -0.1563021,0.159567 -0.086152,0 -0.1563662,-0.07022 -0.1563662,-0.159567 0,-0.08929 0.070214,-0.159502 0.1563662,-0.159502 z"
         class="fil0"
         inkscape:connector-curvature="0"
         style="fill:#000000;fill-rule:nonzero;stroke:none" />
      <path
         id="path5999"
         d="m 0.5756349,15.406875 c 0.0861518,0 0.15636614,0.07015 0.15636614,0.159502 0,0.08935 -0.0702143,0.159566 -0.15636614,0.159566 -0.0861518,0 -0.15636614,-0.07021 -0.15636614,-0.159566 0,-0.08935 0.0702143,-0.159502 0.15636614,-0.159502 z"
         class="fil0"
         inkscape:connector-curvature="0"
         style="fill:#000000;fill-rule:nonzero;stroke:none" />
      <path
         id="path6001"
         d="m 0.43674234,6.1193786 c 0.0861518,0 0.15636614,0.07015 0.15636614,0.1595024 0,0.089352 -0.0702144,0.1595664 -0.15636614,0.1595664 -0.0861518,0 -0.15636614,-0.070214 -0.15636614,-0.1595664 0,-0.089352 0.0702143,-0.1595024 0.15636614,-0.1595024 z"
         class="fil0"
         inkscape:connector-curvature="0"
         style="fill:#000000;fill-rule:nonzero;stroke:none" />
      <path
         id="path6003"
         d="m 2.445436,14.722013 c 0.086152,0 0.1563662,0.07021 0.1563662,0.159566 0,0.08935 -0.070214,0.159502 -0.1563662,0.159502 -0.086152,0 -0.1563661,-0.07015 -0.1563661,-0.159502 0,-0.08935 0.070214,-0.159566 0.1563661,-0.159566 z"
         class="fil0"
         inkscape:connector-curvature="0"
         style="fill:#000000;fill-rule:nonzero;stroke:none" />
      <path
         id="path6005"
         d="m 14.644491,0.00439349 c 0.08615,0 0.156302,0.07021435 0.156302,0.15950243 0,0.0893521 -0.07015,0.15956643 -0.156302,0.15956643 -0.08615,0 -0.156366,-0.0702144 -0.156366,-0.15956643 0,-0.08928808 0.07021,-0.15950243 0.156366,-0.15950243 z"
         class="fil0"
         inkscape:connector-curvature="0"
         style="fill:#000000;fill-rule:nonzero;stroke:none" />
      <path
         id="path6007"
         d="m 7.2538069,15.517925 c 0.086152,0 0.1563661,0.07021 0.1563661,0.159566 0,0.08935 -0.070214,0.159566 -0.1563661,0.159566 -0.086152,0 -0.1563661,-0.07021 -0.1563661,-0.159566 0,-0.08935 0.070214,-0.159566 0.1563661,-0.159566 z"
         class="fil0"
         inkscape:connector-curvature="0"
         style="fill:#000000;fill-rule:nonzero;stroke:none" />
      <path
         id="path6009"
         d="m 8.5355868,0.13362118 c 0.086152,0 0.1563662,0.0702143 0.1563662,0.15956643 0,0.0893521 -0.070214,0.15956644 -0.1563662,0.15956644 -0.086152,0 -0.1563661,-0.0702144 -0.1563661,-0.15956644 0,-0.0893521 0.070214,-0.15956643 0.1563661,-0.15956643 z"
         class="fil0"
         inkscape:connector-curvature="0"
         style="fill:#000000;fill-rule:nonzero;stroke:none" />
      <path
         id="path6011"
         d="m 0.15863718,11.917919 c 0.0861518,0 0.15636615,0.07021 0.15636615,0.159566 0,0.08935 -0.0702144,0.159503 -0.15636615,0.159503 -0.08615179,0 -0.15636614,-0.07015 -0.15636614,-0.159503 0,-0.08935 0.07021435,-0.159566 0.15636614,-0.159566 z"
         class="fil0"
         inkscape:connector-curvature="0"
         style="fill:#000000;fill-rule:nonzero;stroke:none" />
      <path
         id="path6013"
         d="m 0.85598026,13.490093 c 0.0861518,0 0.15636614,0.07015 0.15636614,0.159503 0,0.08935 -0.0702143,0.159566 -0.15636614,0.159566 -0.0861518,0 -0.15636615,-0.07021 -0.15636615,-0.159566 0,-0.08935 0.0702144,-0.159503 0.15636615,-0.159503 z"
         class="fil0"
         inkscape:connector-curvature="0"
         style="fill:#000000;fill-rule:nonzero;stroke:none" />
      <path
         id="path6015"
         d="m 15.684841,10.208644 c 0.08615,0 0.156303,0.07022 0.156303,0.159567 0,0.08935 -0.07015,0.159566 -0.156303,0.159566 -0.08615,0 -0.156366,-0.07021 -0.156366,-0.159566 0,-0.08935 0.07021,-0.159567 0.156366,-0.159567 z"
         class="fil0"
         inkscape:connector-curvature="0"
         style="fill:#000000;fill-rule:nonzero;stroke:none" />
      <path
         id="path6017"
         d="m 15.07333,15.330324 c 0.08615,0 0.156302,0.07015 0.156302,0.159502 0,0.08935 -0.07015,0.159567 -0.156302,0.159567 -0.08615,0 -0.156366,-0.07021 -0.156366,-0.159567 0,-0.08935 0.07021,-0.159502 0.156366,-0.159502 z"
         class="fil0"
         inkscape:connector-curvature="0"
         style="fill:#000000;fill-rule:nonzero;stroke:none" />
      <path
         id="path6019"
         d="m 3.8905587,11.222304 c 0.086152,0 0.1563662,0.07021 0.1563662,0.159503 0,0.08935 -0.070214,0.159566 -0.1563662,0.159566 -0.086152,0 -0.1563661,-0.07021 -0.1563661,-0.159566 0,-0.08929 0.070214,-0.159503 0.1563661,-0.159503 z"
         class="fil0"
         inkscape:connector-curvature="0"
         style="fill:#000000;fill-rule:nonzero;stroke:none" />
      <path
         id="path6021"
         d="m 3.2573494,0.09566575 c 0.086152,0 0.1563662,0.07021435 0.1563662,0.15956643 0,0.0893521 -0.070214,0.15956643 -0.1563662,0.15956643 -0.086216,0 -0.1563661,-0.0702144 -0.1563661,-0.15956643 0,-0.0893521 0.07015,-0.15956643 0.1563661,-0.15956643 z"
         class="fil0"
         inkscape:connector-curvature="0"
         style="fill:#000000;fill-rule:nonzero;stroke:none" />
      <path
         id="path6023"
         d="m 0.35379084,8.8295117 c 0.0861518,0 0.15636614,0.070214 0.15636614,0.1595664 0,0.089352 -0.0702143,0.1595024 -0.15636614,0.1595024 -0.0861518,0 -0.15636615,-0.07015 -0.15636615,-0.1595024 0,-0.089352 0.0702143,-0.1595664 0.15636615,-0.1595664 z"
         class="fil0"
         inkscape:connector-curvature="0"
         style="fill:#000000;fill-rule:nonzero;stroke:none" />
      <path
         id="path6025"
         d="m 12.168875,11.949026 c 0.08615,0 0.156367,0.07021 0.156367,0.159566 0,0.08935 -0.07021,0.159567 -0.156367,0.159567 -0.08615,0 -0.156366,-0.07022 -0.156366,-0.159567 0,-0.08935 0.07022,-0.159566 0.156366,-0.159566 z"
         class="fil0"
         inkscape:connector-curvature="0"
         style="fill:#000000;fill-rule:nonzero;stroke:none" />
      <path
         id="path6027"
         d="m 12.54651,8.3899199 c 0.08615,0 0.156366,0.070214 0.156366,0.1595665 0,0.089352 -0.07021,0.1595664 -0.156366,0.1595664 -0.08615,0 -0.156303,-0.070214 -0.156303,-0.1595664 0,-0.089352 0.07015,-0.1595665 0.156303,-0.1595665 z"
         class="fil0"
         inkscape:connector-curvature="0"
         style="fill:#000000;fill-rule:nonzero;stroke:none" />
      <path
         id="path6029"
         d="m 9.9023024,2.5839548 c 0.086152,0 0.1563666,0.070214 0.1563666,0.1595664 0,0.089352 -0.070215,0.1595665 -0.1563666,0.1595665 -0.086152,0 -0.1563661,-0.070214 -0.1563661,-0.1595665 0,-0.089352 0.070214,-0.1595664 0.1563661,-0.1595664 z"
         class="fil0"
         inkscape:connector-curvature="0"
         style="fill:#000000;fill-rule:nonzero;stroke:none" />
      <path
         id="path6031"
         d="m 10.246974,4.0505835 c 0.08615,0 0.156366,0.07015 0.156366,0.1595024 0,0.089352 -0.07021,0.1595664 -0.156366,0.1595664 -0.08615,0 -0.156303,-0.070214 -0.156303,-0.1595664 0,-0.089352 0.07015,-0.1595024 0.156303,-0.1595024 z"
         class="fil0"
         inkscape:connector-curvature="0"
         style="fill:#000000;fill-rule:nonzero;stroke:none" />
      <path
         id="path6033"
         d="m 6.6779468,10.659309 c 0.086152,0 0.1563662,0.07021 0.1563662,0.159567 0,0.08935 -0.070214,0.159502 -0.1563662,0.159502 -0.086152,0 -0.1563021,-0.07015 -0.1563021,-0.159502 0,-0.08935 0.07015,-0.159567 0.1563021,-0.159567 z"
         class="fil0"
         inkscape:connector-curvature="0"
         style="fill:#000000;fill-rule:nonzero;stroke:none" />
      <path
         id="path6035"
         d="m 4.4596982,5.5977314 c 0.086152,0 0.1563661,0.070214 0.1563661,0.1595664 0,0.089288 -0.070214,0.1595024 -0.1563661,0.1595024 -0.086152,0 -0.1563021,-0.070214 -0.1563021,-0.1595024 0,-0.089352 0.07015,-0.1595664 0.1563021,-0.1595664 z"
         class="fil0"
         inkscape:connector-curvature="0"
         style="fill:#000000;fill-rule:nonzero;stroke:none" />
      <path
         id="path6037"
         d="m 4.224861,7.8289732 c 0.086152,0 0.1563661,0.070214 0.1563661,0.1595024 0,0.089352 -0.070214,0.1595664 -0.1563661,0.1595664 -0.086152,0 -0.1563022,-0.070214 -0.1563022,-0.1595664 0,-0.089288 0.07015,-0.1595024 0.1563022,-0.1595024 z"
         class="fil0"
         inkscape:connector-curvature="0"
         style="fill:#000000;fill-rule:nonzero;stroke:none" />
      <path
         id="path6039"
         d="m 7.0166655,3.26056 c 0.086152,0 0.1563661,0.070214 0.1563661,0.1595664 0,0.089352 -0.070214,0.1595665 -0.1563661,0.1595665 -0.086152,0 -0.1563662,-0.070214 -0.1563662,-0.1595665 0,-0.089352 0.070214,-0.1595664 0.1563662,-0.1595664 z"
         class="fil0"
         inkscape:connector-curvature="0"
         style="fill:#000000;fill-rule:nonzero;stroke:none" />
      <path
         id="path6041"
         d="m 2.9581224,9.2410689 c 0.086152,0 0.1563661,0.070214 0.1563661,0.1595664 0,0.089352 -0.070214,0.1595665 -0.1563661,0.1595665 -0.086152,0 -0.1563662,-0.070214 -0.1563662,-0.1595665 0,-0.089352 0.070214,-0.1595664 0.1563662,-0.1595664 z"
         class="fil0"
         inkscape:connector-curvature="0"
         style="fill:#000000;fill-rule:nonzero;stroke:none" />
      <path
         id="path6043"
         d="m 7.1967777,8.590066 c 0.086152,0 0.1563662,0.070214 0.1563662,0.1595665 0,0.089288 -0.070214,0.1595024 -0.1563662,0.1595024 -0.086152,0 -0.1563021,-0.070214 -0.1563021,-0.1595024 0,-0.089352 0.07015,-0.1595665 0.1563021,-0.1595665 z"
         class="fil0"
         inkscape:connector-curvature="0"
         style="fill:#000000;fill-rule:nonzero;stroke:none" />
      <path
         id="path6045"
         d="m 1.5380899,10.542627 c 0.086152,0 0.1563662,0.07021 0.1563662,0.159502 0,0.08935 -0.070214,0.159566 -0.1563662,0.159566 -0.086152,0 -0.1563661,-0.07021 -0.1563661,-0.159566 0,-0.08929 0.070214,-0.159502 0.1563661,-0.159502 z"
         class="fil0"
         inkscape:connector-curvature="0"
         style="fill:#000000;fill-rule:nonzero;stroke:none" />
      <path
         id="path6047"
         d="m 8.0849861,1.922903 c 0.086152,0 0.1563661,0.070214 0.1563661,0.1595664 0,0.089352 -0.070214,0.1595665 -0.1563661,0.1595665 -0.086152,0 -0.1563662,-0.070214 -0.1563662,-0.1595665 0,-0.089352 0.070214,-0.1595664 0.1563662,-0.1595664 z"
         class="fil0"
         inkscape:connector-curvature="0"
         style="fill:#000000;fill-rule:nonzero;stroke:none" />
      <path
         id="path6049"
         d="m 0.45139966,3.6181603 c 0.0861518,0 0.15636615,0.07015 0.15636615,0.1595025 0,0.089352 -0.0702143,0.1595664 -0.15636615,0.1595664 -0.0861518,0 -0.15636614,-0.070214 -0.15636614,-0.1595664 0,-0.089352 0.0702143,-0.1595025 0.15636614,-0.1595025 z"
         class="fil0"
         inkscape:connector-curvature="0"
         style="fill:#000000;fill-rule:nonzero;stroke:none" />
      <path
         id="path6051"
         d="m 13.094719,1.4973285 c 0.08615,0 0.156366,0.070214 0.156366,0.1595665 0,0.089352 -0.07021,0.1595664 -0.156366,0.1595664 -0.08615,0 -0.156366,-0.070214 -0.156366,-0.1595664 0,-0.089352 0.07021,-0.1595665 0.156366,-0.1595665 z"
         class="fil0"
         inkscape:connector-curvature="0"
         style="fill:#000000;fill-rule:nonzero;stroke:none" />
      <path
         id="path6053"
         d="m 6.0346886,4.410232 c 0.086152,0 0.1563662,0.070214 0.1563662,0.1595024 0,0.089352 -0.070214,0.1595664 -0.1563662,0.1595664 -0.086152,0 -0.1563661,-0.070214 -0.1563661,-0.1595664 0,-0.089288 0.070214,-0.1595024 0.1563661,-0.1595024 z"
         class="fil0"
         inkscape:connector-curvature="0"
         style="fill:#000000;fill-rule:nonzero;stroke:none" />
    </g>
  </g>
</svg>
