<?xml version="1.0" encoding="UTF-8" standalone="no"?>
<!-- Created with Inkscape (http://www.inkscape.org/) -->

<svg
   xmlns:dc="http://purl.org/dc/elements/1.1/"
   xmlns:cc="http://creativecommons.org/ns#"
   xmlns:rdf="http://www.w3.org/1999/02/22-rdf-syntax-ns#"
   xmlns:svg="http://www.w3.org/2000/svg"
   xmlns="http://www.w3.org/2000/svg"
   xmlns:sodipodi="http://sodipodi.sourceforge.net/DTD/sodipodi-0.dtd"
   xmlns:inkscape="http://www.inkscape.org/namespaces/inkscape"
   width="16px"
   height="16px"
   id="svg4200"
   version="1.1"
   inkscape:version="0.48.2 r9819"
   sodipodi:docname="GeoPat_Sandstein_grob2.svg">
  <defs
     id="defs4202" />
  <sodipodi:namedview
     id="base"
     pagecolor="#ffffff"
     bordercolor="#666666"
     borderopacity="1.0"
     inkscape:pageopacity="0.0"
     inkscape:pageshadow="2"
     inkscape:zoom="22.627417"
     inkscape:cx="14.934117"
     inkscape:cy="5.5916755"
     inkscape:current-layer="layer1"
     showgrid="true"
     inkscape:grid-bbox="true"
     inkscape:document-units="px"
     inkscape:window-width="1920"
     inkscape:window-height="1000"
     inkscape:window-x="0"
     inkscape:window-y="25"
     inkscape:window-maximized="1" />
  <metadata
     id="metadata4205">
    <rdf:RDF>
      <cc:Work
         rdf:about="">
        <dc:format>image/svg+xml</dc:format>
        <dc:type
           rdf:resource="http://purl.org/dc/dcmitype/StillImage" />
        <dc:title />
      </cc:Work>
    </rdf:RDF>
  </metadata>
  <g
     id="layer1"
     inkscape:label="Layer 1"
     inkscape:groupmode="layer">
    <g
       id="g3035">
      <path
         id="path3033"
         d="m 12.660424,12.019854 c 0.152504,0 0.276676,0.124235 0.276676,0.282381 0,0.158082 -0.124172,0.282316 -0.276676,0.282316 -0.15244,0 -0.276675,-0.124234 -0.276675,-0.282316 0,-0.158146 0.124235,-0.282381 0.276675,-0.282381 z"
         style="fill:#000000;fill-rule:nonzero;stroke:none" />
      <path
         id="path3031"
         d="m 9.8651501,6.8923958 c 0.1525039,0 0.2767379,0.1242344 0.2767379,0.2823794 0,0.1580824 -0.124234,0.2823169 -0.2767379,0.2823169 -0.1524409,0 -0.2766754,-0.1242345 -0.2766754,-0.2823169 0,-0.158145 0.1242345,-0.2823794 0.2766754,-0.2823794 z"
         style="fill:#000000;fill-rule:nonzero;stroke:none" />
      <path
         id="path3029"
         d="m 6.1890149,12.917703 c 0.152441,0 0.2766754,0.124234 0.2766754,0.282379 0,0.158082 -0.1242344,0.282316 -0.2766754,0.282316 -0.1525037,0 -0.2767381,-0.124234 -0.2767381,-0.282316 0,-0.158145 0.1242344,-0.282379 0.2767381,-0.282379 z"
         style="fill:#000000;fill-rule:nonzero;stroke:none" />
      <path
         id="path3027"
         d="m 9.7070678,15.430597 c 0.1524411,0 0.2766755,0.124234 0.2766755,0.28238 0,0.158145 -0.1242344,0.282317 -0.2766755,0.282317 -0.152441,0 -0.2766754,-0.124172 -0.2766754,-0.282317 0,-0.158146 0.1242344,-0.28238 0.2766754,-0.28238 z"
         style="fill:#000000;fill-rule:nonzero;stroke:none" />
      <path
         id="path3023"
         d="m 0.42910115,13.296047 c 0.15244102,0 0.27667545,0.124235 0.27667545,0.282379 0,0.158082 -0.12423443,0.282317 -0.27667545,0.282317 -0.15244101,0 -0.27667543,-0.124235 -0.27667543,-0.282317 0,-0.158144 0.12423442,-0.282379 0.27667543,-0.282379 z"
         style="fill:#000000;fill-rule:nonzero;stroke:none" />
      <path
         id="path3021"
         d="m 15.38794,10.049091 c 0.152442,0 0.276675,0.124234 0.276675,0.282317 0,0.158145 -0.124233,0.282379 -0.276675,0.282379 -0.152504,0 -0.276737,-0.124234 -0.276737,-0.282379 0,-0.158083 0.124233,-0.282317 0.276737,-0.282317 z"
         style="fill:#000000;fill-rule:nonzero;stroke:none" />
      <path
         id="path3019"
         d="m 15.071713,15.165205 c 0.152441,0 0.276676,0.124234 0.276676,0.282379 0,0.158082 -0.124235,0.282317 -0.276676,0.282317 -0.152503,0 -0.276738,-0.124235 -0.276738,-0.282317 0,-0.158145 0.124235,-0.282379 0.276738,-0.282379 z"
         style="fill:#000000;fill-rule:nonzero;stroke:none" />
      <path
         id="path3017"
         d="m 3.2300169,10.715393 c 0.1524409,0 0.2766754,0.124235 0.2766754,0.28238 0,0.158082 -0.1242345,0.282317 -0.2766754,0.282317 -0.1525038,0 -0.2767382,-0.124235 -0.2767382,-0.282317 0,-0.158145 0.1242344,-0.28238 0.2767382,-0.28238 z"
         style="fill:#000000;fill-rule:nonzero;stroke:none" />
      <path
         id="path3015"
         d="m 2.7500031,-0.00248895 c 0.1524411,0 0.2766755,0.12417174 0.2766755,0.28231676 0,0.15814502 -0.1242344,0.28237943 -0.2766755,0.28237943 -0.152441,0 -0.2766754,-0.12423441 -0.2766754,-0.28237943 0,-0.15814502 0.1242344,-0.28231676 0.2766754,-0.28231676 z"
         style="fill:#000000;fill-rule:nonzero;stroke:none" />
      <path
         id="path3013"
         d="m 0.50814232,8.0217882 c 0.1525037,0 0.27673813,0.1242345 0.27673813,0.2823795 0,0.1580823 -0.12423443,0.2823167 -0.27673813,0.2823167 -0.15244102,0 -0.27667543,-0.1242344 -0.27667543,-0.2823167 0,-0.158145 0.12423441,-0.2823795 0.27667543,-0.2823795 z"
         style="fill:#000000;fill-rule:nonzero;stroke:none" />
      <path
         id="path3011"
         d="m 10.028937,11.573752 c 0.152503,0 0.276738,0.124234 0.276738,0.282379 0,0.158083 -0.124235,0.282317 -0.276738,0.282317 -0.1524415,0 -0.2766759,-0.124234 -0.2766759,-0.282317 0,-0.158145 0.1242344,-0.282379 0.2766759,-0.282379 z"
         style="fill:#000000;fill-rule:nonzero;stroke:none" />
      <path
         id="path3009"
         d="m 12.908893,7.2820857 c 0.152442,0 0.276675,0.1242344 0.276675,0.2823168 0,0.1581451 -0.124233,0.2823795 -0.276675,0.2823795 -0.152441,0 -0.276676,-0.1242344 -0.276676,-0.2823795 0,-0.1580824 0.124235,-0.2823168 0.276676,-0.2823168 z"
         style="fill:#000000;fill-rule:nonzero;stroke:none" />
      <path
         id="path3007"
         d="m 13.699493,3.9221152 c 0.152441,0 0.276675,0.1242344 0.276675,0.2823794 0,0.1580823 -0.124234,0.2823167 -0.276675,0.2823167 -0.152504,0 -0.276738,-0.1242344 -0.276738,-0.2823167 0,-0.158145 0.124234,-0.2823794 0.276738,-0.2823794 z"
         style="fill:#000000;fill-rule:nonzero;stroke:none" />
      <path
         id="path3005"
         d="m 6.7480697,8.4284021 c 0.1524411,0 0.2766755,0.1242344 0.2766755,0.2823167 0,0.158145 -0.1242344,0.2823795 -0.2766755,0.2823795 -0.1525036,0 -0.276738,-0.1242345 -0.276738,-0.2823795 0,-0.1580823 0.1242344,-0.2823167 0.276738,-0.2823167 z"
         style="fill:#000000;fill-rule:nonzero;stroke:none" />
      <path
         id="path3003"
         d="m 9.2270541,3.4590881 c 0.1525037,0 0.2767381,0.1242344 0.2767381,0.2823168 0,0.158145 -0.1242344,0.2823794 -0.2767381,0.2823794 -0.152441,0 -0.2766754,-0.1242344 -0.2766754,-0.2823794 0,-0.1580824 0.1242344,-0.2823168 0.2766754,-0.2823168 z"
         style="fill:#000000;fill-rule:nonzero;stroke:none" />
      <path
         id="path3001"
         d="m 3.2243755,6.8529066 c 0.1524411,0 0.2766755,0.1242344 0.2766755,0.2823167 0,0.1581451 -0.1242344,0.2823794 -0.2766755,0.2823794 -0.1525036,0 -0.2767381,-0.1242343 -0.2767381,-0.2823794 0,-0.1580823 0.1242345,-0.2823167 0.2767381,-0.2823167 z"
         style="fill:#000000;fill-rule:nonzero;stroke:none" />
      <path
         id="path2999"
         d="m 7.5499522,0.86144797 c 0.1524409,0 0.2766754,0.12423442 0.2766754,0.28237943 0,0.1580823 -0.1242345,0.2823167 -0.2766754,0.2823167 -0.1525038,0 -0.2767381,-0.1242344 -0.2767381,-0.2823167 0,-0.15814501 0.1242343,-0.28237943 0.2767381,-0.28237943 z"
         style="fill:#000000;fill-rule:nonzero;stroke:none" />
      <path
         id="path2997"
         d="m 0.27095613,2.8096468 c 0.1525037,0 0.27673812,0.1242343 0.27673812,0.2823794 0,0.1580823 -0.12423442,0.2823167 -0.27673812,0.2823167 -0.15244102,0 -0.27667544,-0.1242344 -0.27667544,-0.2823167 0,-0.1581451 0.12423442,-0.2823794 0.27667544,-0.2823794 z"
         style="fill:#000000;fill-rule:nonzero;stroke:none" />
      <path
         id="path2995"
         d="m 12.914535,0.56784857 c 0.152503,0 0.276738,0.12423442 0.276738,0.28231675 0,0.15814498 -0.124235,0.28237948 -0.276738,0.28237948 -0.152441,0 -0.276676,-0.1242345 -0.276676,-0.28237948 0,-0.15808233 0.124235,-0.28231675 0.276676,-0.28231675 z"
         style="fill:#000000;fill-rule:nonzero;stroke:none" />
      <path
         id="path5899"
         d="m 5.1499464,3.6340944 c 0.1525036,0 0.276738,0.1242344 0.276738,0.2823794 0,0.1580823 -0.1242344,0.2823167 -0.276738,0.2823167 -0.1524411,0 -0.2766755,-0.1242344 -0.2766755,-0.2823167 0,-0.158145 0.1242344,-0.2823794 0.2766755,-0.2823794 z"
         style="fill:#000000;fill-rule:nonzero;stroke:none" />
    </g>
  </g>
</svg>
