<?xml version="1.0" encoding="UTF-8" standalone="no"?>
<!-- Created with Inkscape (http://www.inkscape.org/) -->

<svg
   xmlns:dc="http://purl.org/dc/elements/1.1/"
   xmlns:cc="http://creativecommons.org/ns#"
   xmlns:rdf="http://www.w3.org/1999/02/22-rdf-syntax-ns#"
   xmlns:svg="http://www.w3.org/2000/svg"
   xmlns="http://www.w3.org/2000/svg"
   xmlns:sodipodi="http://sodipodi.sourceforge.net/DTD/sodipodi-0.dtd"
   xmlns:inkscape="http://www.inkscape.org/namespaces/inkscape"
   width="16"
   height="17.5"
   id="svg7187"
   version="1.1"
   inkscape:version="0.48.3.1 r9886"
   sodipodi:docname="GeoPat_Wald.svg">
  <defs
     id="defs7189" />
  <sodipodi:namedview
     id="base"
     pagecolor="#ffffff"
     bordercolor="#666666"
     borderopacity="1.0"
     inkscape:pageopacity="0.0"
     inkscape:pageshadow="2"
     inkscape:zoom="16"
     inkscape:cx="7.6586633"
     inkscape:cy="11.69712"
     inkscape:current-layer="layer1"
     showgrid="true"
     inkscape:grid-bbox="true"
     inkscape:document-units="px"
     fit-margin-top="0"
     fit-margin-left="0"
     fit-margin-right="0"
     fit-margin-bottom="0"
     inkscape:window-width="872"
     inkscape:window-height="1002"
     inkscape:window-x="25"
     inkscape:window-y="0"
     inkscape:window-maximized="0"
     showguides="true"
     inkscape:guide-bbox="true"
     inkscape:snap-object-midpoints="true"
     inkscape:object-paths="true"
     inkscape:object-nodes="true"
     inkscape:snap-center="true"
     inkscape:snap-to-guides="true" />
  <metadata
     id="metadata7192">
    <rdf:RDF>
      <cc:Work
         rdf:about="">
        <dc:format>image/svg+xml</dc:format>
        <dc:type
           rdf:resource="http://purl.org/dc/dcmitype/StillImage" />
        <dc:title />
      </cc:Work>
    </rdf:RDF>
  </metadata>
  <g
     id="layer1"
     inkscape:label="Layer 1"
     inkscape:groupmode="layer"
     transform="translate(0.32776622,4.7991143)">
    <g
       id="g4257">
      <rect
         y="-4.784296"
         x="-0.32476133"
         height="17.487309"
         width="16.014084"
         id="rect4286"
         style="fill:none;stroke:none" />
      <path
         sodipodi:nodetypes="ccsssss"
         inkscape:connector-curvature="0"
         d="m 1.0604707,-2.3900037 0,2.1616818 m 0.630693,-3.2428699 c 0,0.5971237 -0.282371,1.0811881 -0.630693,1.0811881 -0.34832202,0 -0.63069302,-0.4840644 -0.63069302,-1.0811881 0,-0.5971238 0.282371,-1.0811882 0.63069302,-1.0811882 0.348322,0 0.630693,0.4840644 0.630693,1.0811882 z"
         style="color:#000000;fill:none;stroke:#000000;stroke-width:0.30000001;stroke-linecap:butt;stroke-linejoin:miter;stroke-miterlimit:4;stroke-opacity:1;stroke-dasharray:none;stroke-dashoffset:0;marker:none;visibility:visible;display:inline;overflow:visible;enable-background:accumulate"
         id="path3774" />
      <path
         sodipodi:nodetypes="ccsssss"
         id="path3778"
         style="color:#000000;fill:none;stroke:#000000;stroke-width:0.30000001;stroke-linecap:butt;stroke-linejoin:miter;stroke-miterlimit:4;stroke-opacity:1;stroke-dasharray:none;stroke-dashoffset:0;marker:none;visibility:visible;display:inline;overflow:visible;enable-background:accumulate"
         d="m 9.8682738,-2.3900037 0,2.1616818 m 0.6306932,-3.2428699 c 0,0.5971237 -0.282371,1.0811881 -0.6306932,1.0811881 -0.348322,0 -0.630693,-0.4840644 -0.630693,-1.0811881 0,-0.5971238 0.282371,-1.0811882 0.630693,-1.0811882 0.3483222,0 0.6306932,0.4840644 0.6306932,1.0811882 z"
         inkscape:connector-curvature="0" />
      <path
         inkscape:connector-curvature="0"
         d="m 14.275109,2.0168323 0,2.5678218 m 0.630693,-3.64900985 c 0,0.59712365 -0.282371,1.08118805 -0.630693,1.08118805 -0.348322,0 -0.630693,-0.4840644 -0.630693,-1.08118805 0,-0.5971238 0.282371,-1.0811882 0.630693,-1.0811882 0.348322,0 0.630693,0.4840644 0.630693,1.0811882 z"
         style="color:#000000;fill:none;stroke:#000000;stroke-width:0.30000001;stroke-linecap:butt;stroke-linejoin:miter;stroke-miterlimit:4;stroke-opacity:1;stroke-dasharray:none;stroke-dashoffset:0;marker:none;visibility:visible;display:inline;overflow:visible;enable-background:accumulate"
         id="path3780" />
      <path
         id="path3782"
         style="color:#000000;fill:none;stroke:#000000;stroke-width:0.30000001;stroke-linecap:butt;stroke-linejoin:miter;stroke-miterlimit:4;stroke-opacity:1;stroke-dasharray:none;stroke-dashoffset:0;marker:none;visibility:visible;display:inline;overflow:visible;enable-background:accumulate"
         d="m 5.4673066,2.2195551 0,2.5678218 M 6.0979996,1.138367 c 0,0.5971237 -0.282371,1.0811881 -0.630693,1.0811881 -0.348322,0 -0.630693,-0.4840644 -0.630693,-1.0811881 0,-0.59712375 0.282371,-1.08118815 0.630693,-1.08118815 0.348322,0 0.630693,0.4840644 0.630693,1.08118815 z"
         inkscape:connector-curvature="0" />
      <path
         sodipodi:nodetypes="ccsssss"
         inkscape:connector-curvature="0"
         d="m 1.0604707,6.4236665 0,1.9959696 m 0.630693,-3.0771577 c 0,0.5971237 -0.282371,1.0811881 -0.630693,1.0811881 -0.34832202,0 -0.63069302,-0.4840644 -0.63069302,-1.0811881 0,-0.5971237 0.282371,-1.0811881 0.63069302,-1.0811881 0.348322,0 0.630693,0.4840644 0.630693,1.0811881 z"
         style="color:#000000;fill:none;stroke:#000000;stroke-width:0.30000001;stroke-linecap:butt;stroke-linejoin:miter;stroke-miterlimit:4;stroke-opacity:1;stroke-dasharray:none;stroke-dashoffset:0;marker:none;visibility:visible;display:inline;overflow:visible;enable-background:accumulate"
         id="path3784" />
      <path
         sodipodi:nodetypes="ccsssss"
         id="path3786"
         style="color:#000000;fill:none;stroke:#000000;stroke-width:0.30000001;stroke-linecap:butt;stroke-linejoin:miter;stroke-miterlimit:4;stroke-opacity:1;stroke-dasharray:none;stroke-dashoffset:0;marker:none;visibility:visible;display:inline;overflow:visible;enable-background:accumulate"
         d="m 9.8682738,6.4236665 0,1.9959696 M 10.498967,5.3424784 c 0,0.5971237 -0.282371,1.0811881 -0.6306932,1.0811881 -0.348322,0 -0.630693,-0.4840644 -0.630693,-1.0811881 0,-0.5971237 0.282371,-1.0811881 0.630693,-1.0811881 0.3483222,0 0.6306932,0.4840644 0.6306932,1.0811881 z"
         inkscape:connector-curvature="0" />
      <path
         sodipodi:nodetypes="ccsssss"
         inkscape:connector-curvature="0"
         d="m 5.4673065,10.830503 10e-8,1.872509 M 6.0979997,9.7493146 c 0,0.5971234 -0.282371,1.0811884 -0.6306932,1.0811884 -0.348322,0 -0.630693,-0.484065 -0.630693,-1.0811884 0,-0.5971237 0.282371,-1.0811881 0.630693,-1.0811881 0.3483222,0 0.6306932,0.4840644 0.6306932,1.0811881 z"
         style="color:#000000;fill:none;stroke:#000000;stroke-width:0.30000001;stroke-linecap:butt;stroke-linejoin:miter;stroke-miterlimit:4;stroke-opacity:1;stroke-dasharray:none;stroke-dashoffset:0;marker:none;visibility:visible;display:inline;overflow:visible;enable-background:accumulate"
         id="path3788" />
      <path
         sodipodi:nodetypes="ccsssss"
         id="path3790"
         style="color:#000000;fill:none;stroke:#000000;stroke-width:0.30000001;stroke-linecap:butt;stroke-linejoin:miter;stroke-miterlimit:4;stroke-opacity:1;stroke-dasharray:none;stroke-dashoffset:0;marker:none;visibility:visible;display:inline;overflow:visible;enable-background:accumulate"
         d="m 14.275109,11.033226 0,1.669786 m 0.630693,-2.7509754 c 0,0.5971234 -0.282371,1.0811894 -0.630693,1.0811894 -0.348322,0 -0.630693,-0.484065 -0.630693,-1.0811894 0,-0.5971237 0.282371,-1.0811881 0.630693,-1.0811881 0.348322,0 0.630693,0.4840644 0.630693,1.0811881 z"
         inkscape:connector-curvature="0" />
    </g>
  </g>
</svg>
