<?xml version="1.0" encoding="UTF-8" standalone="no"?>
<!-- Created with Inkscape (http://www.inkscape.org/) -->

<svg
   xmlns:dc="http://purl.org/dc/elements/1.1/"
   xmlns:cc="http://creativecommons.org/ns#"
   xmlns:rdf="http://www.w3.org/1999/02/22-rdf-syntax-ns#"
   xmlns:svg="http://www.w3.org/2000/svg"
   xmlns="http://www.w3.org/2000/svg"
   xmlns:sodipodi="http://sodipodi.sourceforge.net/DTD/sodipodi-0.dtd"
   xmlns:inkscape="http://www.inkscape.org/namespaces/inkscape"
   width="16px"
   height="16px"
   id="svg4200"
   version="1.1"
   inkscape:version="0.48.2 r9819"
   sodipodi:docname="GeoPat_Sandstein_fein.svg">
  <defs
     id="defs4202" />
  <sodipodi:namedview
     id="base"
     pagecolor="#ffffff"
     bordercolor="#666666"
     borderopacity="1.0"
     inkscape:pageopacity="0.0"
     inkscape:pageshadow="2"
     inkscape:zoom="32"
     inkscape:cx="13.824889"
     inkscape:cy="6.6017897"
     inkscape:current-layer="layer1"
     showgrid="true"
     inkscape:grid-bbox="true"
     inkscape:document-units="px"
     inkscape:window-width="1920"
     inkscape:window-height="1000"
     inkscape:window-x="0"
     inkscape:window-y="25"
     inkscape:window-maximized="1" />
  <metadata
     id="metadata4205">
    <rdf:RDF>
      <cc:Work
         rdf:about="">
        <dc:format>image/svg+xml</dc:format>
        <dc:type
           rdf:resource="http://purl.org/dc/dcmitype/StillImage" />
        <dc:title />
      </cc:Work>
    </rdf:RDF>
  </metadata>
  <g
     id="layer1"
     inkscape:label="Layer 1"
     inkscape:groupmode="layer">
    <g
       id="g3491">
      <path
         id="path5632"
         d="m 14.460418,14.102765 c 0.07283,0 0.132201,0.0593 0.132201,0.134878 0,0.0755 -0.05937,0.134807 -0.132201,0.134807 -0.07283,0 -0.132131,-0.0593 -0.132131,-0.134807 0,-0.07557 0.0593,-0.134878 0.132131,-0.134878 z"
         class="fil0"
         inkscape:connector-curvature="0"
         style="fill:#000000;fill-rule:nonzero;stroke:none" />
      <path
         id="path5634"
         d="m 13.125235,11.653487 c 0.07283,0 0.132131,0.05937 0.132131,0.134877 0,0.0755 -0.0593,0.134878 -0.132131,0.134878 -0.07283,0 -0.132201,-0.05937 -0.132201,-0.134878 0,-0.0755 0.05937,-0.134877 0.132201,-0.134877 z"
         class="fil0"
         inkscape:connector-curvature="0"
         style="fill:#000000;fill-rule:nonzero;stroke:none" />
      <path
         id="path5636"
         d="m 11.36922,14.531627 c 0.07283,0 0.132131,0.05937 0.132131,0.134878 0,0.0755 -0.0593,0.134877 -0.132131,0.134877 -0.07283,0 -0.132201,-0.05937 -0.132201,-0.134877 0,-0.0755 0.05937,-0.134878 0.132201,-0.134878 z"
         class="fil0"
         inkscape:connector-curvature="0"
         style="fill:#000000;fill-rule:nonzero;stroke:none" />
      <path
         id="path5638"
         d="m 13.049661,15.732002 c 0.07283,0 0.132202,0.0593 0.132202,0.134878 0,0.0755 -0.05937,0.134878 -0.132202,0.134878 -0.07283,0 -0.13213,-0.05937 -0.13213,-0.134878 0,-0.07557 0.0593,-0.134878 0.13213,-0.134878 z"
         class="fil0"
         inkscape:connector-curvature="0"
         style="fill:#000000;fill-rule:nonzero;stroke:none" />
      <path
         id="path5642"
         d="m 8.6177872,14.712356 c 0.072827,0 0.1322013,0.05937 0.1322013,0.134877 0,0.0755 -0.059374,0.134878 -0.1322013,0.134878 -0.072827,0 -0.1321306,-0.05937 -0.1321306,-0.134878 0,-0.0755 0.059304,-0.134877 0.1321306,-0.134877 z"
         class="fil0"
         inkscape:connector-curvature="0"
         style="fill:#000000;fill-rule:nonzero;stroke:none" />
      <path
         id="path5644"
         d="m 15.763272,13.161369 c 0.07283,0 0.132201,0.0593 0.132201,0.134807 0,0.07557 -0.05937,0.134878 -0.132201,0.134878 -0.07283,0 -0.132131,-0.0593 -0.132131,-0.134878 0,-0.0755 0.0593,-0.134807 0.132131,-0.134807 z"
         class="fil0"
         inkscape:connector-curvature="0"
         style="fill:#000000;fill-rule:nonzero;stroke:none" />
      <path
         id="path5646"
         d="m 15.612266,15.605225 c 0.07283,0 0.13213,0.0593 0.13213,0.134877 0,0.0755 -0.0593,0.134878 -0.13213,0.134878 -0.07283,0 -0.132202,-0.05937 -0.132202,-0.134878 0,-0.07557 0.05937,-0.134877 0.132202,-0.134877 z"
         class="fil0"
         inkscape:connector-curvature="0"
         style="fill:#000000;fill-rule:nonzero;stroke:none" />
      <path
         id="path5648"
         d="m 9.9557167,13.479652 c 0.072827,0 0.1322013,0.0593 0.1322013,0.134878 0,0.0755 -0.05937,0.134877 -0.1322013,0.134877 -0.072827,0 -0.1321306,-0.05937 -0.1321306,-0.134877 0,-0.07557 0.059304,-0.134878 0.1321306,-0.134878 z"
         class="fil0"
         inkscape:connector-curvature="0"
         style="fill:#000000;fill-rule:nonzero;stroke:none" />
      <path
         id="path5650"
         d="m 9.7264601,8.3599372 c 0.072827,0 0.1322012,0.059374 0.1322012,0.1348776 0,0.075503 -0.059374,0.1348775 -0.1322012,0.1348775 -0.072827,0 -0.1322012,-0.059374 -0.1322012,-0.1348775 0,-0.075503 0.059374,-0.1348776 0.1322012,-0.1348776 z"
         class="fil0"
         inkscape:connector-curvature="0"
         style="fill:#000000;fill-rule:nonzero;stroke:none" />
      <path
         id="path5652"
         d="m 8.6556094,12.192997 c 0.072827,0 0.1321307,0.0593 0.1321307,0.134878 0,0.0755 -0.059304,0.134807 -0.1321307,0.134807 -0.072827,0 -0.1322013,-0.0593 -0.1322013,-0.134807 0,-0.07557 0.059374,-0.134878 0.1322013,-0.134878 z"
         class="fil0"
         inkscape:connector-curvature="0"
         style="fill:#000000;fill-rule:nonzero;stroke:none" />
      <path
         id="path5654"
         d="m 13.203415,13.889638 c 0.07283,0 0.132201,0.05937 0.132201,0.134877 0,0.0755 -0.05937,0.134878 -0.132201,0.134878 -0.07283,0 -0.132131,-0.05937 -0.132131,-0.134878 0,-0.0755 0.0593,-0.134877 0.132131,-0.134877 z"
         class="fil0"
         inkscape:connector-curvature="0"
         style="fill:#000000;fill-rule:nonzero;stroke:none" />
      <path
         id="path5656"
         d="m 14.579096,11.839639 c 0.0729,0 0.132201,0.0593 0.132201,0.134877 0,0.0755 -0.0593,0.134878 -0.132201,0.134878 -0.07283,0 -0.132131,-0.05937 -0.132131,-0.134878 0,-0.07557 0.0593,-0.134877 0.132131,-0.134877 z"
         class="fil0"
         inkscape:connector-curvature="0"
         style="fill:#000000;fill-rule:nonzero;stroke:none" />
      <path
         id="path5658"
         d="m 14.956753,10.23463 c 0.07283,0 0.132202,0.05938 0.132202,0.134878 0,0.07557 -0.05938,0.134878 -0.132202,0.134878 -0.07283,0 -0.13213,-0.0593 -0.13213,-0.134878 0,-0.0755 0.0593,-0.134878 0.13213,-0.134878 z"
         class="fil0"
         inkscape:connector-curvature="0"
         style="fill:#000000;fill-rule:nonzero;stroke:none" />
      <path
         id="path5660"
         d="m 11.636228,12.387178 c 0.07283,0 0.132202,0.05937 0.132202,0.134878 0,0.0755 -0.05938,0.134878 -0.132202,0.134878 -0.07283,0 -0.13213,-0.05937 -0.13213,-0.134878 0,-0.0755 0.0593,-0.134878 0.13213,-0.134878 z"
         class="fil0"
         inkscape:connector-curvature="0"
         style="fill:#000000;fill-rule:nonzero;stroke:none" />
      <path
         id="path5662"
         d="m 12.820405,10.013473 c 0.07283,0 0.132201,0.0593 0.132201,0.134878 0,0.0755 -0.05937,0.134878 -0.132201,0.134878 -0.07283,0 -0.132202,-0.05938 -0.132202,-0.134878 0,-0.07557 0.05938,-0.134878 0.132202,-0.134878 z"
         class="fil0"
         inkscape:connector-curvature="0"
         style="fill:#000000;fill-rule:nonzero;stroke:none" />
      <path
         id="path5664"
         d="m 9.9530404,11.634611 c 0.072827,0 0.1322016,0.05937 0.1322016,0.134877 0,0.0755 -0.05937,0.134878 -0.1322016,0.134878 -0.072827,0 -0.1322012,-0.05937 -0.1322012,-0.134878 0,-0.0755 0.059374,-0.134877 0.1322012,-0.134877 z"
         class="fil0"
         inkscape:connector-curvature="0"
         style="fill:#000000;fill-rule:nonzero;stroke:none" />
      <path
         id="path5666"
         d="m 12.019239,8.7726698 c 0.0729,0 0.132201,0.059304 0.132201,0.1348775 0,0.075503 -0.0593,0.1348778 -0.132201,0.1348778 -0.07283,0 -0.132131,-0.059374 -0.132131,-0.1348778 0,-0.075574 0.0593,-0.1348775 0.132131,-0.1348775 z"
         class="fil0"
         inkscape:connector-curvature="0"
         style="fill:#000000;fill-rule:nonzero;stroke:none" />
      <path
         id="path5668"
         d="m 8.5422838,9.7032901 c 0.072827,0 0.1322013,0.059304 0.1322013,0.1348072 0,0.075574 -0.059374,0.1348776 -0.1322013,0.1348776 -0.072827,0 -0.132201,-0.059304 -0.132201,-0.1348776 0,-0.075503 0.059374,-0.1348072 0.132201,-0.1348072 z"
         class="fil0"
         inkscape:connector-curvature="0"
         style="fill:#000000;fill-rule:nonzero;stroke:none" />
      <path
         id="path5670"
         d="m 14.581843,8.6323689 c 0.07283,0 0.132131,0.059374 0.132131,0.1348775 0,0.075503 -0.0593,0.1348777 -0.132131,0.1348777 -0.07283,0 -0.132201,-0.059374 -0.132201,-0.1348777 0,-0.075503 0.05937,-0.1348775 0.132201,-0.1348775 z"
         class="fil0"
         inkscape:connector-curvature="0"
         style="fill:#000000;fill-rule:nonzero;stroke:none" />
      <path
         id="path5672"
         d="m 10.872885,10.097076 c 0.07283,0 0.13213,0.05938 0.13213,0.134878 0,0.0755 -0.0593,0.134878 -0.13213,0.134878 -0.07283,0 -0.132202,-0.05938 -0.132202,-0.134878 0,-0.0755 0.05937,-0.134878 0.132202,-0.134878 z"
         class="fil0"
         inkscape:connector-curvature="0"
         style="fill:#000000;fill-rule:nonzero;stroke:none" />
      <path
         id="path5674"
         d="m 6.0507458,14.102977 c 0.072827,0 0.1322012,0.05937 0.1322012,0.134877 0,0.0755 -0.059374,0.134878 -0.1322012,0.134878 -0.072827,0 -0.1322012,-0.05937 -0.1322012,-0.134878 0,-0.0755 0.059374,-0.134877 0.1322012,-0.134877 z"
         class="fil0"
         inkscape:connector-curvature="0"
         style="fill:#000000;fill-rule:nonzero;stroke:none" />
      <path
         id="path5676"
         d="m 4.7154926,11.653768 c 0.072827,0 0.1322012,0.0593 0.1322012,0.134807 0,0.07557 -0.059374,0.134878 -0.1322012,0.134878 -0.072827,0 -0.1321307,-0.0593 -0.1321307,-0.134878 0,-0.0755 0.059304,-0.134807 0.1321307,-0.134807 z"
         class="fil0"
         inkscape:connector-curvature="0"
         style="fill:#000000;fill-rule:nonzero;stroke:none" />
      <path
         id="path5678"
         d="m 2.9594777,14.531838 c 0.072827,0 0.1322012,0.05937 0.1322012,0.134878 0,0.07557 -0.059374,0.134877 -0.1322012,0.134877 -0.072827,0 -0.1321309,-0.0593 -0.1321309,-0.134877 0,-0.0755 0.059304,-0.134878 0.1321309,-0.134878 z"
         class="fil0"
         inkscape:connector-curvature="0"
         style="fill:#000000;fill-rule:nonzero;stroke:none" />
      <path
         id="path5680"
         d="m 4.6399893,15.732214 c 0.072827,0 0.1322012,0.05937 0.1322012,0.134877 0,0.0755 -0.059374,0.134878 -0.1322012,0.134878 -0.072827,0 -0.1322012,-0.05937 -0.1322012,-0.134878 0,-0.0755 0.059374,-0.134877 0.1322012,-0.134877 z"
         class="fil0"
         inkscape:connector-curvature="0"
         style="fill:#000000;fill-rule:nonzero;stroke:none" />
      <path
         id="path5684"
         d="m 0.20811529,14.712567 c 0.0728269,0 0.13220104,0.05937 0.13220104,0.134878 0,0.07557 -0.0593742,0.134877 -0.13220104,0.134877 -0.0728269,0 -0.13220124,-0.0593 -0.13220124,-0.134877 0,-0.0755 0.05937437,-0.134878 0.13220124,-0.134878 z"
         class="fil0"
         inkscape:connector-curvature="0"
         style="fill:#000000;fill-rule:nonzero;stroke:none" />
      <path
         id="path5686"
         d="m 7.3536001,13.16158 c 0.072827,0 0.1322013,0.0593 0.1322013,0.134878 0,0.0755 -0.059374,0.134877 -0.1322013,0.134877 -0.072827,0 -0.1322012,-0.05937 -0.1322012,-0.134877 0,-0.07557 0.059374,-0.134878 0.1322012,-0.134878 z"
         class="fil0"
         inkscape:connector-curvature="0"
         style="fill:#000000;fill-rule:nonzero;stroke:none" />
      <path
         id="path5688"
         d="m 7.2025231,15.605436 c 0.072827,0 0.1322012,0.05937 0.1322012,0.134877 0,0.0755 -0.059374,0.134878 -0.1322012,0.134878 -0.072827,0 -0.1321307,-0.05937 -0.1321307,-0.134878 0,-0.0755 0.059304,-0.134877 0.1321307,-0.134877 z"
         class="fil0"
         inkscape:connector-curvature="0"
         style="fill:#000000;fill-rule:nonzero;stroke:none" />
      <path
         id="path5690"
         d="m 1.5460448,13.479863 c 0.072827,0 0.1321307,0.05937 0.1321307,0.134878 0,0.0755 -0.059304,0.134878 -0.1321307,0.134878 -0.072827,0 -0.1322012,-0.05937 -0.1322012,-0.134878 0,-0.0755 0.059374,-0.134878 0.1322012,-0.134878 z"
         class="fil0"
         inkscape:connector-curvature="0"
         style="fill:#000000;fill-rule:nonzero;stroke:none" />
      <path
         id="path5692"
         d="m 1.3167882,8.3601485 c 0.072827,0 0.1321306,0.059374 0.1321306,0.1348776 0,0.075574 -0.059304,0.1348775 -0.1321306,0.1348775 -0.072898,0 -0.1322013,-0.059304 -0.1322013,-0.1348775 0,-0.075503 0.059304,-0.1348776 0.1322013,-0.1348776 z"
         class="fil0"
         inkscape:connector-curvature="0"
         style="fill:#000000;fill-rule:nonzero;stroke:none" />
      <path
         id="path5694"
         d="m 0.24586688,12.193208 c 0.0728269,0 0.13220124,0.05937 0.13220124,0.134878 0,0.0755 -0.0593744,0.134878 -0.13220124,0.134878 -0.0728269,0 -0.13213067,-0.05937 -0.13213067,-0.134878 0,-0.0755 0.0593038,-0.134878 0.13213067,-0.134878 z"
         class="fil0"
         inkscape:connector-curvature="0"
         style="fill:#000000;fill-rule:nonzero;stroke:none" />
      <path
         id="path5696"
         d="m 4.7937428,13.889849 c 0.072827,0 0.1322012,0.05937 0.1322012,0.134877 0,0.07557 -0.059374,0.134878 -0.1322012,0.134878 -0.072827,0 -0.1322012,-0.0593 -0.1322012,-0.134878 0,-0.0755 0.059374,-0.134877 0.1322012,-0.134877 z"
         class="fil0"
         inkscape:connector-curvature="0"
         style="fill:#000000;fill-rule:nonzero;stroke:none" />
      <path
         id="path5698"
         d="m 6.169424,11.83985 c 0.072827,0 0.1322012,0.05937 0.1322012,0.134878 0,0.0755 -0.059374,0.134877 -0.1322012,0.134877 -0.072827,0 -0.1322012,-0.05937 -0.1322012,-0.134877 0,-0.0755 0.059374,-0.134878 0.1322012,-0.134878 z"
         class="fil0"
         inkscape:connector-curvature="0"
         style="fill:#000000;fill-rule:nonzero;stroke:none" />
      <path
         id="path5700"
         d="m 6.5470813,10.234912 c 0.072827,0 0.1321308,0.0593 0.1321308,0.134878 0,0.0755 -0.059304,0.134807 -0.1321308,0.134807 -0.072827,0 -0.1322012,-0.0593 -0.1322012,-0.134807 0,-0.07557 0.059374,-0.134878 0.1322012,-0.134878 z"
         class="fil0"
         inkscape:connector-curvature="0"
         style="fill:#000000;fill-rule:nonzero;stroke:none" />
      <path
         id="path5702"
         d="m 3.2265565,12.38746 c 0.072827,0 0.1321306,0.0593 0.1321306,0.134807 0,0.07557 -0.059304,0.134878 -0.1321306,0.134878 -0.072827,0 -0.1322013,-0.0593 -0.1322013,-0.134878 0,-0.0755 0.059374,-0.134807 0.1322013,-0.134807 z"
         class="fil0"
         inkscape:connector-curvature="0"
         style="fill:#000000;fill-rule:nonzero;stroke:none" />
      <path
         id="path5704"
         d="m 4.4107326,10.013685 c 0.072827,0 0.1321308,0.05937 0.1321308,0.134877 0,0.0755 -0.059304,0.134878 -0.1321308,0.134878 -0.072827,0 -0.1322012,-0.05937 -0.1322012,-0.134878 0,-0.0755 0.059374,-0.134877 0.1322012,-0.134877 z"
         class="fil0"
         inkscape:connector-curvature="0"
         style="fill:#000000;fill-rule:nonzero;stroke:none" />
      <path
         id="path5706"
         d="m 1.5433683,11.634822 c 0.072827,0 0.1321309,0.05937 0.1321309,0.134878 0,0.07557 -0.059304,0.134877 -0.1321309,0.134877 -0.072827,0 -0.1322011,-0.0593 -0.1322011,-0.134877 0,-0.0755 0.059374,-0.134878 0.1322011,-0.134878 z"
         class="fil0"
         inkscape:connector-curvature="0"
         style="fill:#000000;fill-rule:nonzero;stroke:none" />
      <path
         id="path5708"
         d="m 3.6095666,8.7728811 c 0.072827,0 0.1322012,0.059374 0.1322012,0.1348775 0,0.075503 -0.059374,0.1348778 -0.1322012,0.1348778 -0.072827,0 -0.1322012,-0.059374 -0.1322012,-0.1348778 0,-0.075503 0.059374,-0.1348775 0.1322012,-0.1348775 z"
         class="fil0"
         inkscape:connector-curvature="0"
         style="fill:#000000;fill-rule:nonzero;stroke:none" />
      <path
         id="path5710"
         d="m 0.13261191,9.7035014 c 0.0728269,0 0.13213087,0.059304 0.13213087,0.1348776 0,0.075503 -0.059304,0.1348775 -0.13213087,0.1348775 -0.07282688,0 -0.13220124085,-0.059374 -0.13220124085,-0.1348775 0,-0.075574 0.0593743609,-0.1348776 0.13220124085,-0.1348776 z"
         class="fil0"
         inkscape:connector-curvature="0"
         style="fill:#000000;fill-rule:nonzero;stroke:none" />
      <path
         id="path5712"
         d="m 6.1721004,8.6326505 c 0.072827,0 0.1322012,0.059304 0.1322012,0.1348072 0,0.075574 -0.059374,0.1348777 -0.1322012,0.1348777 -0.072827,0 -0.1321307,-0.059304 -0.1321307,-0.1348777 0,-0.075503 0.059304,-0.1348072 0.1321307,-0.1348072 z"
         class="fil0"
         inkscape:connector-curvature="0"
         style="fill:#000000;fill-rule:nonzero;stroke:none" />
      <path
         id="path5714"
         d="m 2.4631421,10.097288 c 0.072827,0 0.1322012,0.05937 0.1322012,0.134877 0,0.07557 -0.059374,0.134878 -0.1322012,0.134878 -0.072827,0 -0.1321307,-0.0593 -0.1321307,-0.134878 0,-0.0755 0.059304,-0.134877 0.1321307,-0.134877 z"
         class="fil0"
         inkscape:connector-curvature="0"
         style="fill:#000000;fill-rule:nonzero;stroke:none" />
      <path
         id="path5716"
         d="m 14.460418,5.743382 c 0.07283,0 0.132201,0.059304 0.132201,0.1348776 0,0.075503 -0.05937,0.1348071 -0.132201,0.1348071 -0.07283,0 -0.132131,-0.059304 -0.132131,-0.1348071 0,-0.075574 0.0593,-0.1348776 0.132131,-0.1348776 z"
         class="fil0"
         inkscape:connector-curvature="0"
         style="fill:#000000;fill-rule:nonzero;stroke:none" />
      <path
         id="path5718"
         d="m 13.125235,3.2941031 c 0.07283,0 0.132131,0.059374 0.132131,0.1348776 0,0.075503 -0.0593,0.1348775 -0.132131,0.1348775 -0.07283,0 -0.132201,-0.059374 -0.132201,-0.1348775 0,-0.075503 0.05937,-0.1348776 0.132201,-0.1348776 z"
         class="fil0"
         inkscape:connector-curvature="0"
         style="fill:#000000;fill-rule:nonzero;stroke:none" />
      <path
         id="path5720"
         d="m 11.36922,6.1722435 c 0.07283,0 0.132131,0.059374 0.132131,0.1348776 0,0.075503 -0.0593,0.1348776 -0.132131,0.1348776 -0.07283,0 -0.132201,-0.059374 -0.132201,-0.1348776 0,-0.075503 0.05937,-0.1348776 0.132201,-0.1348776 z"
         class="fil0"
         inkscape:connector-curvature="0"
         style="fill:#000000;fill-rule:nonzero;stroke:none" />
      <path
         id="path5722"
         d="m 13.049661,7.372619 c 0.07283,0 0.132202,0.059304 0.132202,0.1348776 0,0.075503 -0.05937,0.1348776 -0.132202,0.1348776 -0.07283,0 -0.13213,-0.059374 -0.13213,-0.1348776 0,-0.075574 0.0593,-0.1348776 0.13213,-0.1348776 z"
         class="fil0"
         inkscape:connector-curvature="0"
         style="fill:#000000;fill-rule:nonzero;stroke:none" />
      <path
         id="path5724"
         d="m 9.7642117,7.0813115 c 0.072827,0 0.1322012,0.059304 0.1322012,0.1348072 0,0.075574 -0.059374,0.1348776 -0.1322012,0.1348776 -0.072827,0 -0.1321307,-0.059304 -0.1321307,-0.1348776 0,-0.075503 0.059304,-0.1348072 0.1321307,-0.1348072 z"
         class="fil0"
         inkscape:connector-curvature="0"
         style="fill:#000000;fill-rule:nonzero;stroke:none" />
      <path
         id="path5726"
         d="m 8.6177872,6.3529724 c 0.072827,0 0.1322013,0.059374 0.1322013,0.1348776 0,0.075503 -0.059374,0.1348776 -0.1322013,0.1348776 -0.072827,0 -0.1321306,-0.059374 -0.1321306,-0.1348776 0,-0.075503 0.059304,-0.1348776 0.1321306,-0.1348776 z"
         class="fil0"
         inkscape:connector-curvature="0"
         style="fill:#000000;fill-rule:nonzero;stroke:none" />
      <path
         id="path5728"
         d="m 15.763272,4.8019855 c 0.07283,0 0.132201,0.059304 0.132201,0.1348072 0,0.075574 -0.05937,0.1348776 -0.132201,0.1348776 -0.07283,0 -0.132131,-0.059304 -0.132131,-0.1348776 0,-0.075503 0.0593,-0.1348072 0.132131,-0.1348072 z"
         class="fil0"
         inkscape:connector-curvature="0"
         style="fill:#000000;fill-rule:nonzero;stroke:none" />
      <path
         id="path5730"
         d="m 15.612266,7.2458411 c 0.07283,0 0.13213,0.059304 0.13213,0.1348776 0,0.075503 -0.0593,0.1348776 -0.13213,0.1348776 -0.07283,0 -0.132202,-0.059374 -0.132202,-0.1348776 0,-0.075574 0.05937,-0.1348776 0.132202,-0.1348776 z"
         class="fil0"
         inkscape:connector-curvature="0"
         style="fill:#000000;fill-rule:nonzero;stroke:none" />
      <path
         id="path5732"
         d="m 9.9557167,5.1202685 c 0.072827,0 0.1322013,0.059304 0.1322013,0.1348776 0,0.075503 -0.05937,0.1348776 -0.1322013,0.1348776 -0.072827,0 -0.1321306,-0.059374 -0.1321306,-0.1348776 0,-0.075574 0.059304,-0.1348776 0.1321306,-0.1348776 z"
         class="fil0"
         inkscape:connector-curvature="0"
         style="fill:#000000;fill-rule:nonzero;stroke:none" />
      <path
         id="path5734"
         d="m 9.7264601,5.5385572e-4 c 0.072827,0 0.1322012,0.0593741643 0.1322012,0.13487754428 0,0.0755034 -0.059374,0.13487755 -0.1322012,0.13487755 -0.072827,0 -0.1322012,-0.0593742 -0.1322012,-0.13487755 0,-0.07550338 0.059374,-0.13487754428 0.1322012,-0.13487754428 z"
         class="fil0"
         inkscape:connector-curvature="0"
         style="fill:#000000;fill-rule:nonzero;stroke:none" />
      <path
         id="path5736"
         d="m 8.6556094,3.8336135 c 0.072827,0 0.1321307,0.059304 0.1321307,0.1348776 0,0.075503 -0.059304,0.1348072 -0.1321307,0.1348072 -0.072827,0 -0.1322013,-0.059304 -0.1322013,-0.1348072 0,-0.075574 0.059374,-0.1348776 0.1322013,-0.1348776 z"
         class="fil0"
         inkscape:connector-curvature="0"
         style="fill:#000000;fill-rule:nonzero;stroke:none" />
      <path
         id="path5738"
         d="m 13.203415,5.5302542 c 0.07283,0 0.132201,0.059374 0.132201,0.1348776 0,0.075503 -0.05937,0.1348776 -0.132201,0.1348776 -0.07283,0 -0.132131,-0.059374 -0.132131,-0.1348776 0,-0.075503 0.0593,-0.1348776 0.132131,-0.1348776 z"
         class="fil0"
         inkscape:connector-curvature="0"
         style="fill:#000000;fill-rule:nonzero;stroke:none" />
      <path
         id="path5740"
         d="m 14.579096,3.4802554 c 0.0729,0 0.132201,0.059304 0.132201,0.1348775 0,0.075503 -0.0593,0.1348778 -0.132201,0.1348778 -0.07283,0 -0.132131,-0.059374 -0.132131,-0.1348778 0,-0.075574 0.0593,-0.1348775 0.132131,-0.1348775 z"
         class="fil0"
         inkscape:connector-curvature="0"
         style="fill:#000000;fill-rule:nonzero;stroke:none" />
      <path
         id="path5742"
         d="m 14.956753,1.8752469 c 0.07283,0 0.132202,0.059374 0.132202,0.1348777 0,0.075574 -0.05938,0.1348776 -0.132202,0.1348776 -0.07283,0 -0.13213,-0.059304 -0.13213,-0.1348776 0,-0.075503 0.0593,-0.1348777 0.13213,-0.1348777 z"
         class="fil0"
         inkscape:connector-curvature="0"
         style="fill:#000000;fill-rule:nonzero;stroke:none" />
      <path
         id="path5744"
         d="m 11.636228,4.0277951 c 0.07283,0 0.132202,0.059304 0.132202,0.1348775 0,0.075503 -0.05938,0.1348778 -0.132202,0.1348778 -0.07283,0 -0.13213,-0.059374 -0.13213,-0.1348778 0,-0.075574 0.0593,-0.1348775 0.13213,-0.1348775 z"
         class="fil0"
         inkscape:connector-curvature="0"
         style="fill:#000000;fill-rule:nonzero;stroke:none" />
      <path
         id="path5746"
         d="m 12.820405,1.6540899 c 0.07283,0 0.132201,0.059304 0.132201,0.1348776 0,0.075503 -0.05937,0.1348777 -0.132201,0.1348777 -0.07283,0 -0.132202,-0.059374 -0.132202,-0.1348777 0,-0.075574 0.05938,-0.1348776 0.132202,-0.1348776 z"
         class="fil0"
         inkscape:connector-curvature="0"
         style="fill:#000000;fill-rule:nonzero;stroke:none" />
      <path
         id="path5748"
         d="m 9.9530404,3.2752273 c 0.072827,0 0.1322016,0.059374 0.1322016,0.1348775 0,0.075503 -0.05937,0.1348777 -0.1322016,0.1348777 -0.072827,0 -0.1322012,-0.059374 -0.1322012,-0.1348777 0,-0.075503 0.059374,-0.1348775 0.1322012,-0.1348775 z"
         class="fil0"
         inkscape:connector-curvature="0"
         style="fill:#000000;fill-rule:nonzero;stroke:none" />
      <path
         id="path5750"
         d="m 12.019239,0.41328639 c 0.0729,0 0.132201,0.0593038 0.132201,0.13487755 0,0.0755034 -0.0593,0.13480718 -0.132201,0.13480718 -0.07283,0 -0.132131,-0.0593038 -0.132131,-0.13480718 0,-0.0755738 0.0593,-0.13487755 0.132131,-0.13487755 z"
         class="fil0"
         inkscape:connector-curvature="0"
         style="fill:#000000;fill-rule:nonzero;stroke:none" />
      <path
         id="path5752"
         d="m 8.5422838,1.3439065 c 0.072827,0 0.1322013,0.059304 0.1322013,0.1348072 0,0.075574 -0.059374,0.1348778 -0.1322013,0.1348778 -0.072827,0 -0.132201,-0.059304 -0.132201,-0.1348778 0,-0.075503 0.059374,-0.1348072 0.132201,-0.1348072 z"
         class="fil0"
         inkscape:connector-curvature="0"
         style="fill:#000000;fill-rule:nonzero;stroke:none" />
      <path
         id="path5754"
         d="m 14.581843,0.27298546 c 0.07283,0 0.132131,0.0593744 0.132131,0.13487755 0,0.0755034 -0.0593,0.13487774 -0.132131,0.13487774 -0.07283,0 -0.132201,-0.0593744 -0.132201,-0.13487774 0,-0.0755032 0.05937,-0.13487755 0.132201,-0.13487755 z"
         class="fil0"
         inkscape:connector-curvature="0"
         style="fill:#000000;fill-rule:nonzero;stroke:none" />
      <path
         id="path5756"
         d="m 10.872885,1.737693 c 0.07283,0 0.13213,0.059374 0.13213,0.1348776 0,0.075503 -0.0593,0.1348775 -0.13213,0.1348775 -0.07283,0 -0.132202,-0.059374 -0.132202,-0.1348775 0,-0.075503 0.05937,-0.1348776 0.132202,-0.1348776 z"
         class="fil0"
         inkscape:connector-curvature="0"
         style="fill:#000000;fill-rule:nonzero;stroke:none" />
      <path
         id="path5758"
         d="m 6.0507458,5.7435933 c 0.072827,0 0.1322012,0.059304 0.1322012,0.1348776 0,0.075503 -0.059374,0.1348776 -0.1322012,0.1348776 -0.072827,0 -0.1322012,-0.059374 -0.1322012,-0.1348776 0,-0.075574 0.059374,-0.1348776 0.1322012,-0.1348776 z"
         class="fil0"
         inkscape:connector-curvature="0"
         style="fill:#000000;fill-rule:nonzero;stroke:none" />
      <path
         id="path5760"
         d="m 4.7154926,3.2943144 c 0.072827,0 0.1322012,0.059374 0.1322012,0.1348776 0,0.075574 -0.059374,0.1348775 -0.1322012,0.1348775 -0.072827,0 -0.1321307,-0.059304 -0.1321307,-0.1348775 0,-0.075503 0.059304,-0.1348776 0.1321307,-0.1348776 z"
         class="fil0"
         inkscape:connector-curvature="0"
         style="fill:#000000;fill-rule:nonzero;stroke:none" />
      <path
         id="path5762"
         d="m 2.9594777,6.1724548 c 0.072827,0 0.1322012,0.059374 0.1322012,0.1348776 0,0.075574 -0.059374,0.1348776 -0.1322012,0.1348776 -0.072827,0 -0.1321309,-0.059304 -0.1321309,-0.1348776 0,-0.075503 0.059304,-0.1348776 0.1321309,-0.1348776 z"
         class="fil0"
         inkscape:connector-curvature="0"
         style="fill:#000000;fill-rule:nonzero;stroke:none" />
      <path
         id="path5764"
         d="m 4.6399893,7.3728303 c 0.072827,0 0.1322012,0.059374 0.1322012,0.1348776 0,0.075503 -0.059374,0.1348776 -0.1322012,0.1348776 -0.072827,0 -0.1322012,-0.059374 -0.1322012,-0.1348776 0,-0.075503 0.059374,-0.1348776 0.1322012,-0.1348776 z"
         class="fil0"
         inkscape:connector-curvature="0"
         style="fill:#000000;fill-rule:nonzero;stroke:none" />
      <path
         id="path5766"
         d="m 1.3545398,7.0815228 c 0.072827,0 0.1321306,0.059304 0.1321306,0.1348776 0,0.075503 -0.059304,0.1348777 -0.1321306,0.1348777 -0.072827,0 -0.1322013,-0.059374 -0.1322013,-0.1348777 0,-0.075574 0.059374,-0.1348776 0.1322013,-0.1348776 z"
         class="fil0"
         inkscape:connector-curvature="0"
         style="fill:#000000;fill-rule:nonzero;stroke:none" />
      <path
         id="path5768"
         d="m 0.20811529,6.3531837 c 0.0728269,0 0.13220104,0.059374 0.13220104,0.1348776 0,0.075574 -0.0593742,0.1348776 -0.13220104,0.1348776 -0.0728269,0 -0.13220124,-0.059304 -0.13220124,-0.1348776 0,-0.075503 0.05937437,-0.1348776 0.13220124,-0.1348776 z"
         class="fil0"
         inkscape:connector-curvature="0"
         style="fill:#000000;fill-rule:nonzero;stroke:none" />
      <path
         id="path5770"
         d="m 7.3536001,4.8021968 c 0.072827,0 0.1322013,0.059304 0.1322013,0.1348776 0,0.075503 -0.059374,0.1348776 -0.1322013,0.1348776 -0.072827,0 -0.1322012,-0.059374 -0.1322012,-0.1348776 0,-0.075574 0.059374,-0.1348776 0.1322012,-0.1348776 z"
         class="fil0"
         inkscape:connector-curvature="0"
         style="fill:#000000;fill-rule:nonzero;stroke:none" />
      <path
         id="path5772"
         d="m 7.2025231,7.2460524 c 0.072827,0 0.1322012,0.059374 0.1322012,0.1348776 0,0.075503 -0.059374,0.1348776 -0.1322012,0.1348776 -0.072827,0 -0.1321307,-0.059374 -0.1321307,-0.1348776 0,-0.075503 0.059304,-0.1348776 0.1321307,-0.1348776 z"
         class="fil0"
         inkscape:connector-curvature="0"
         style="fill:#000000;fill-rule:nonzero;stroke:none" />
      <path
         id="path5774"
         d="m 1.5460448,5.1204798 c 0.072827,0 0.1321307,0.059374 0.1321307,0.1348776 0,0.075503 -0.059304,0.1348776 -0.1321307,0.1348776 -0.072827,0 -0.1322012,-0.059374 -0.1322012,-0.1348776 0,-0.075503 0.059374,-0.1348776 0.1322012,-0.1348776 z"
         class="fil0"
         inkscape:connector-curvature="0"
         style="fill:#000000;fill-rule:nonzero;stroke:none" />
      <path
         id="path5776"
         d="m 1.3167882,7.651538e-4 c 0.072827,0 0.1321306,0.0593741662 0.1321306,0.1348775462 0,0.0755738 -0.059304,0.13487755 -0.1321306,0.13487755 -0.072898,0 -0.1322013,-0.0593038 -0.1322013,-0.13487755 0,-0.07550338 0.059304,-0.1348775462 0.1322013,-0.1348775462 z"
         class="fil0"
         inkscape:connector-curvature="0"
         style="fill:#000000;fill-rule:nonzero;stroke:none" />
      <path
         id="path5778"
         d="m 0.24586688,3.8338248 c 0.0728269,0 0.13220124,0.059374 0.13220124,0.1348776 0,0.075503 -0.0593744,0.1348777 -0.13220124,0.1348777 -0.0728269,0 -0.13213067,-0.059374 -0.13213067,-0.1348777 0,-0.075503 0.0593038,-0.1348776 0.13213067,-0.1348776 z"
         class="fil0"
         inkscape:connector-curvature="0"
         style="fill:#000000;fill-rule:nonzero;stroke:none" />
      <path
         id="path5780"
         d="m 4.7937428,5.5304655 c 0.072827,0 0.1322012,0.059374 0.1322012,0.1348776 0,0.075574 -0.059374,0.1348776 -0.1322012,0.1348776 -0.072827,0 -0.1322012,-0.059304 -0.1322012,-0.1348776 0,-0.075503 0.059374,-0.1348776 0.1322012,-0.1348776 z"
         class="fil0"
         inkscape:connector-curvature="0"
         style="fill:#000000;fill-rule:nonzero;stroke:none" />
      <path
         id="path5782"
         d="m 6.169424,3.4804667 c 0.072827,0 0.1322012,0.059374 0.1322012,0.1348775 0,0.075503 -0.059374,0.1348778 -0.1322012,0.1348778 -0.072827,0 -0.1322012,-0.059374 -0.1322012,-0.1348778 0,-0.075503 0.059374,-0.1348775 0.1322012,-0.1348775 z"
         class="fil0"
         inkscape:connector-curvature="0"
         style="fill:#000000;fill-rule:nonzero;stroke:none" />
      <path
         id="path5784"
         d="m 6.5470813,1.8755287 c 0.072827,0 0.1321308,0.059304 0.1321308,0.1348072 0,0.075574 -0.059304,0.1348776 -0.1321308,0.1348776 -0.072827,0 -0.1322012,-0.059304 -0.1322012,-0.1348776 0,-0.075503 0.059374,-0.1348072 0.1322012,-0.1348072 z"
         class="fil0"
         inkscape:connector-curvature="0"
         style="fill:#000000;fill-rule:nonzero;stroke:none" />
      <path
         id="path5786"
         d="m 3.2265565,4.0280767 c 0.072827,0 0.1321306,0.059304 0.1321306,0.1348072 0,0.075574 -0.059304,0.1348778 -0.1321306,0.1348778 -0.072827,0 -0.1322013,-0.059304 -0.1322013,-0.1348778 0,-0.075503 0.059374,-0.1348072 0.1322013,-0.1348072 z"
         class="fil0"
         inkscape:connector-curvature="0"
         style="fill:#000000;fill-rule:nonzero;stroke:none" />
      <path
         id="path5788"
         d="m 4.4107326,1.6543012 c 0.072827,0 0.1321308,0.059374 0.1321308,0.1348776 0,0.075503 -0.059304,0.1348777 -0.1321308,0.1348777 -0.072827,0 -0.1322012,-0.059374 -0.1322012,-0.1348777 0,-0.075503 0.059374,-0.1348776 0.1322012,-0.1348776 z"
         class="fil0"
         inkscape:connector-curvature="0"
         style="fill:#000000;fill-rule:nonzero;stroke:none" />
      <path
         id="path5790"
         d="m 1.5433683,3.2754385 c 0.072827,0 0.1321309,0.059374 0.1321309,0.1348776 0,0.075574 -0.059304,0.1348777 -0.1321309,0.1348777 -0.072827,0 -0.1322011,-0.059304 -0.1322011,-0.1348777 0,-0.075503 0.059374,-0.1348776 0.1322011,-0.1348776 z"
         class="fil0"
         inkscape:connector-curvature="0"
         style="fill:#000000;fill-rule:nonzero;stroke:none" />
      <path
         id="path5792"
         d="m 3.6095666,0.41349769 c 0.072827,0 0.1322012,0.0593742 0.1322012,0.13487755 0,0.0755034 -0.059374,0.13487754 -0.1322012,0.13487754 -0.072827,0 -0.1322012,-0.0593742 -0.1322012,-0.13487754 0,-0.0755034 0.059374,-0.13487755 0.1322012,-0.13487755 z"
         class="fil0"
         inkscape:connector-curvature="0"
         style="fill:#000000;fill-rule:nonzero;stroke:none" />
      <path
         id="path5794"
         d="m 0.13261191,1.3441178 c 0.0728269,0 0.13213087,0.059304 0.13213087,0.1348778 0,0.075503 -0.059304,0.1348775 -0.13213087,0.1348775 -0.07282688,0 -0.13220124085,-0.059374 -0.13220124085,-0.1348775 0,-0.075574 0.0593743609,-0.1348778 0.13220124085,-0.1348778 z"
         class="fil0"
         inkscape:connector-curvature="0"
         style="fill:#000000;fill-rule:nonzero;stroke:none" />
      <path
         id="path5796"
         d="m 6.1721004,0.27319676 c 0.072827,0 0.1322012,0.0593744 0.1322012,0.13487755 0,0.0755738 -0.059374,0.13487774 -0.1322012,0.13487774 -0.072827,0 -0.1321307,-0.059304 -0.1321307,-0.13487774 0,-0.0755032 0.059304,-0.13487755 0.1321307,-0.13487755 z"
         class="fil0"
         inkscape:connector-curvature="0"
         style="fill:#000000;fill-rule:nonzero;stroke:none" />
      <path
         id="path5798"
         d="m 2.4631421,1.7379043 c 0.072827,0 0.1322012,0.059374 0.1322012,0.1348776 0,0.075574 -0.059374,0.1348775 -0.1322012,0.1348775 -0.072827,0 -0.1321307,-0.059304 -0.1321307,-0.1348775 0,-0.075503 0.059304,-0.1348776 0.1321307,-0.1348776 z"
         class="fil0"
         inkscape:connector-curvature="0"
         style="fill:#000000;fill-rule:nonzero;stroke:none" />
    </g>
  </g>
</svg>
