<?xml version="1.0" encoding="UTF-8" standalone="no"?>
<!-- Created with Inkscape (http://www.inkscape.org/) -->

<svg
   xmlns:dc="http://purl.org/dc/elements/1.1/"
   xmlns:cc="http://creativecommons.org/ns#"
   xmlns:rdf="http://www.w3.org/1999/02/22-rdf-syntax-ns#"
   xmlns:svg="http://www.w3.org/2000/svg"
   xmlns="http://www.w3.org/2000/svg"
   xmlns:sodipodi="http://sodipodi.sourceforge.net/DTD/sodipodi-0.dtd"
   xmlns:inkscape="http://www.inkscape.org/namespaces/inkscape"
   width="16.287817"
   height="14.18134"
   id="svg4200"
   version="1.1"
   inkscape:version="0.48.2 r9819"
   sodipodi:docname="GeoPat_Konglomerat.svg">
  <defs
     id="defs4202" />
  <sodipodi:namedview
     id="base"
     pagecolor="#ffffff"
     bordercolor="#666666"
     borderopacity="1.0"
     inkscape:pageopacity="0.0"
     inkscape:pageshadow="2"
     inkscape:zoom="32"
     inkscape:cx="4.1556913"
     inkscape:cy="7.6882488"
     inkscape:current-layer="layer1"
     showgrid="true"
     inkscape:grid-bbox="true"
     inkscape:document-units="px"
     inkscape:window-width="1920"
     inkscape:window-height="1000"
     inkscape:window-x="0"
     inkscape:window-y="25"
     inkscape:window-maximized="1"
     fit-margin-top="0"
     fit-margin-left="0"
     fit-margin-right="0"
     fit-margin-bottom="0" />
  <metadata
     id="metadata4205">
    <rdf:RDF>
      <cc:Work
         rdf:about="">
        <dc:format>image/svg+xml</dc:format>
        <dc:type
           rdf:resource="http://purl.org/dc/dcmitype/StillImage" />
        <dc:title></dc:title>
      </cc:Work>
    </rdf:RDF>
  </metadata>
  <g
     id="layer1"
     inkscape:label="Layer 1"
     inkscape:groupmode="layer"
     transform="translate(0.15484962,0.00933377)">
    <g
       id="g6902"
       transform="matrix(1.1377165,0,0,1.1377165,-0.00822054,-0.01937206)">
      <path
         id="path7111"
         d="M 10.187336,11.154477 C 8.7145063,9.6856988 9.6168203,10.430217 9.0341487,9.0626216 c -0.449132,0 -0.9387236,-0.4167723 -1.4283168,-0.4167723 -0.1375926,0.2791796 -0.1740023,1.3594917 -0.068768,1.6387287 0,0.946771 1.4970845,1.254313 2.0919107,1.671087 0.2103563,-0.206361 0.347949,-0.522007 0.5583614,-0.801188 z"
         class="fil0 str0"
         inkscape:connector-curvature="0"
         style="fill:none;stroke:#000000;stroke-width:0.26368609;stroke-miterlimit:4;stroke-dasharray:none" />
      <path
         id="path7113"
         d="m 5.4168453,11.603607 c 0.2791812,-0.173945 0.8334907,-0.52195 1.1491371,-0.416715 0.1092289,0.05661 0.558361,0.38841 0.558361,0.52195 C 6.946288,11.781663 6.5295156,11.988023 6.3555689,11.988023 6.1087474,11.7412 5.8295677,11.652173 5.5543824,11.919255 5.4856146,11.85043 5.3804357,11.708842 5.4168453,11.603607 z"
         class="fil0 str0"
         inkscape:connector-curvature="0"
         style="fill:none;stroke:#000000;stroke-width:0.26368609;stroke-miterlimit:4;stroke-dasharray:none" />
      <path
         id="path7115"
         d="M 12.412789,7.5169157 C 11.583294,7.4926606 11.024934,6.9342997 10.397749,6.7238878 10.252052,6.8574289 9.0544079,7.5169157 9.0544079,7.9215335 10.32898,9.0949797 10.252052,9.289184 11.130113,9.1637475 12.105246,9.0261548 12.890226,8.6458493 13.185614,7.8770748 13.319098,7.5290702 12.97115,7.5533253 12.412789,7.5169157 z"
         class="fil0 str0"
         inkscape:connector-curvature="0"
         style="fill:none;stroke:#000000;stroke-width:0.26368609;stroke-miterlimit:4;stroke-dasharray:none" />
      <path
         id="path7117"
         d="m 13.950335,5.1943879 c -0.174002,0.1052346 -0.627186,0.5584181 -0.801131,0.5584181 0,0.1375355 0.695954,0.9751333 0.906308,0.9751333 L 13.950335,5.1943879 z"
         class="fil0 str0"
         inkscape:connector-curvature="0"
         style="fill:none;stroke:#000000;stroke-width:0.26368609;stroke-miterlimit:4;stroke-dasharray:none" />
      <path
         id="path6900"
         d="m 3.1711915,3.0944298 c 0.1092288,0 0.1982558,0.088971 0.1982558,0.2023089 0,0.113282 -0.089027,0.2023089 -0.1982558,0.2023089 -0.1092861,0 -0.1983146,-0.089027 -0.1983146,-0.2023089 0,-0.1133376 0.089028,-0.2023089 0.1983146,-0.2023089 z"
         style="fill:#000000;stroke:none"
         inkscape:connector-curvature="0" />
      <path
         id="path6898"
         d="m 10.895446,1.0348756 c 0.109228,0 0.198255,0.089027 0.198255,0.2023089 0,0.113282 -0.08903,0.2023089 -0.198255,0.2023089 -0.109287,0 -0.198258,-0.089027 -0.198258,-0.2023089 0,-0.113282 0.08897,-0.2023089 0.198258,-0.2023089 z"
         style="fill:#000000;stroke:none"
         inkscape:connector-curvature="0" />
      <path
         id="path6896"
         d="m 5.008176,5.8175223 c 0.1092305,0 0.1982574,0.089027 0.1982574,0.2023088 0,0.113282 -0.089027,0.2023089 -0.1982574,0.2023089 -0.1092861,0 -0.198313,-0.089027 -0.198313,-0.2023089 0,-0.1132819 0.089027,-0.2023088 0.198313,-0.2023088 z"
         style="fill:#000000;stroke:none"
         inkscape:connector-curvature="0" />
      <path
         id="path6894"
         d="m 9.9203107,3.8429435 c 0.1092303,0 0.1982573,0.089027 0.1982573,0.2023089 0,0.1133375 -0.08903,0.2023089 -0.1982573,0.2023089 -0.1092861,0 -0.198313,-0.088971 -0.198313,-0.2023089 0,-0.113282 0.089027,-0.2023089 0.198313,-0.2023089 z"
         style="fill:#000000;stroke:none"
         inkscape:connector-curvature="0" />
      <path
         id="path6892"
         d="m 2.7301069,4.6238725 c 0.109286,0 0.1982573,0.089027 0.1982573,0.2023088 0,0.113282 -0.088971,0.2023089 -0.1982573,0.2023089 -0.1092289,0 -0.1982558,-0.089027 -0.1982558,-0.2023089 0,-0.1132819 0.089027,-0.2023088 0.1982558,-0.2023088 z"
         style="fill:#000000;stroke:none"
         inkscape:connector-curvature="0" />
      <path
         id="path6890"
         d="m 2.4832853,1.5892422 c 0.1092861,0 0.198313,0.08897 0.198313,0.2023073 0,0.113282 -0.089027,0.2023089 -0.198313,0.2023089 -0.1092305,0 -0.1982574,-0.089027 -0.1982574,-0.2023089 0,-0.1133376 0.089027,-0.2023073 0.1982574,-0.2023073 z"
         style="fill:#000000;stroke:none"
         inkscape:connector-curvature="0" />
      <path
         id="path6888"
         d="m 13.873463,4.2395138 c 0.10923,0 0.198257,0.088971 0.198257,0.2023089 0,0.113282 -0.08903,0.2023089 -0.198257,0.2023089 -0.109229,0 -0.198256,-0.089027 -0.198256,-0.2023089 0,-0.1133376 0.08903,-0.2023089 0.198256,-0.2023089 z"
         style="fill:#000000;stroke:none"
         inkscape:connector-curvature="0" />
      <path
         id="path6886"
         d="m 12.226631,6.2990108 c 0.10923,0 0.198257,0.089027 0.198257,0.2023089 0,0.113282 -0.08903,0.2023089 -0.198257,0.2023089 -0.109231,0 -0.198258,-0.089027 -0.198258,-0.2023089 0,-0.113282 0.08903,-0.2023089 0.198258,-0.2023089 z"
         style="fill:#000000;stroke:none"
         inkscape:connector-curvature="0" />
      <path
         id="path6884"
         d="m 10.215642,9.9689315 c 0.109286,0 0.198258,0.089026 0.198258,0.2023075 0,0.113339 -0.08897,0.202309 -0.198258,0.202309 -0.109228,0 -0.198257,-0.08897 -0.198257,-0.202309 0,-0.113281 0.08903,-0.2023075 0.198257,-0.2023075 z"
         style="fill:#000000;stroke:none"
         inkscape:connector-curvature="0" />
      <path
         id="path6882"
         d="m 3.195445,6.5256304 c 0.1092304,0 0.1982573,0.088971 0.1982573,0.2023089 0,0.113282 -0.089027,0.2023089 -0.1982573,0.2023089 -0.1092289,0 -0.1982558,-0.089027 -0.1982558,-0.2023089 0,-0.1133376 0.089027,-0.2023089 0.1982558,-0.2023089 z"
         style="fill:#000000;stroke:none"
         inkscape:connector-curvature="0" />
      <path
         id="path6880"
         d="m 5.5665369,1.0793899 c 0.1092305,0 0.1982574,0.089027 0.1982574,0.2023089 0,0.113282 -0.089027,0.2023089 -0.1982574,0.2023089 -0.1092289,0 -0.1982558,-0.089027 -0.1982558,-0.2023089 0,-0.113282 0.089027,-0.2023089 0.1982558,-0.2023089 z"
         style="fill:#000000;stroke:none"
         inkscape:connector-curvature="0" />
      <path
         id="path6878"
         d="m 3.5636531,11.25566 c 0.1092289,0 0.1982574,0.08903 0.1982574,0.202309 0,0.11328 -0.089028,0.202309 -0.1982574,0.202309 -0.1092305,0 -0.1982574,-0.08903 -0.1982574,-0.202309 0,-0.113282 0.089027,-0.202309 0.1982574,-0.202309 z"
         style="fill:#000000;stroke:none"
         inkscape:connector-curvature="0" />
      <path
         id="path6876"
         d="m 13.776333,11.94756 c 0.109286,0 0.198257,0.08903 0.198257,0.202309 0,0.113282 -0.08897,0.202309 -0.198257,0.202309 -0.109231,0 -0.198258,-0.08903 -0.198258,-0.202309 0,-0.113282 0.08903,-0.202309 0.198258,-0.202309 z"
         style="fill:#000000;stroke:none"
         inkscape:connector-curvature="0" />
      <path
         id="path6874"
         d="m 2.2486183,8.2128693 c 0.1092289,0 0.1982574,0.089027 0.1982574,0.2023073 0,0.1133392 -0.089028,0.2023089 -0.1982574,0.2023089 -0.1092305,0 -0.1982574,-0.08897 -0.1982574,-0.2023089 0,-0.1132804 0.089027,-0.2023073 0.1982574,-0.2023073 z"
         style="fill:#000000;stroke:none"
         inkscape:connector-curvature="0" />
      <path
         id="path6872"
         d="m 10.559595,12.068947 c 0.109231,0 0.198258,0.08903 0.198258,0.202307 0,0.113282 -0.08903,0.202309 -0.198258,0.202309 -0.10923,0 -0.198257,-0.08903 -0.198257,-0.202309 0,-0.11328 0.08903,-0.202307 0.198257,-0.202307 z"
         style="fill:#000000;stroke:none"
         inkscape:connector-curvature="0" />
      <path
         id="path6870"
         d="m 6.2705951,8.0510215 c 0.1092289,0 0.1982558,0.089027 0.1982558,0.2023089 0,0.1133376 -0.089027,0.2023089 -0.1982558,0.2023089 -0.1092876,0 -0.1982574,-0.088971 -0.1982574,-0.2023089 0,-0.113282 0.08897,-0.2023089 0.1982574,-0.2023089 z"
         style="fill:#000000;stroke:none"
         inkscape:connector-curvature="0" />
      <path
         id="path6868"
         d="m 12.910428,0.92969825 c 0.109286,0 0.198313,0.089027 0.198313,0.20230885 0,0.113282 -0.08903,0.2023089 -0.198313,0.2023089 -0.109229,0 -0.198256,-0.089027 -0.198256,-0.2023089 0,-0.1132819 0.08903,-0.20230885 0.198256,-0.20230885 z"
         style="fill:#000000;stroke:none"
         inkscape:connector-curvature="0" />
      <path
         id="path7119"
         d="m 11.247446,10.984526 c 0.109229,0 0.198256,0.08903 0.198256,0.202366 0,0.11328 -0.08903,0.202307 -0.198256,0.202307 -0.10923,0 -0.198257,-0.08903 -0.198257,-0.202307 0,-0.113339 0.08903,-0.202366 0.198257,-0.202366 z"
         style="fill:#000000;stroke:none"
         inkscape:connector-curvature="0" />
      <path
         id="path6864"
         d="m 5.242843,7.6302533 c -0.3317969,0 -1.590163,0.020202 -2.023143,0.3520005 0,0.3115378 0.4208239,0.801131 0.3480046,1.1127259 -0.024311,0.1456401 -0.6798015,0.8901579 -0.7647213,0.9751333 0,0.526003 1.9988323,0.801131 1.9138569,0.837542 C 7.8850116,9.6654952 5.0890999,9.9527795 4.789661,8.6782074 l 0,-0.068769 C 5.024328,8.2816926 5.6434093,8.0793837 5.242843,7.6302533 z"
         style="fill:none;stroke:#000000;stroke-width:0.26368609;stroke-miterlimit:4;stroke-dasharray:none"
         inkscape:connector-curvature="0" />
      <path
         id="path6862"
         d="M 11.546885,4.983976 C 11.393085,4.1868965 11.057292,3.4828399 10.919699,2.681709 11.336473,2.4955505 11.971705,1.6701645 12.348016,1.6701645 12.69602,2.0181135 12.906377,2.471297 13.254381,2.823296 12.416784,3.5516077 12.258989,3.7863319 12.348016,5.295571 12.137604,5.1579783 11.789655,5.1579783 11.546885,4.983976 z"
         style="fill:none;stroke:#000000;stroke-width:0.26368609;stroke-miterlimit:4;stroke-dasharray:none"
         inkscape:connector-curvature="0" />
      <path
         id="path6860"
         d="m 9.0382002,4.4943828 c -0.6635954,0 -1.2907241,-0.24277 -1.9866777,-0.24277 0,0.2791812 0.068768,0.5907762 0.068768,0.9063655 -0.4491304,0.4531835 -1.1127259,0.6271858 -1.3231378,1.3231394 0,0.068768 -0.032358,0.141587 -0.032358,0.1739451 0.2063604,0 2.1445295,0.4774943 2.472275,0.8011882 0.5705154,-0.6069267 1.0965182,-0.7526224 1.6387287,-1.6710869 0,0 -0.7162127,-1.258366 -0.8375978,-1.2907813 z"
         style="fill:none;stroke:#000000;stroke-width:0.26368609;stroke-miterlimit:4;stroke-dasharray:none"
         inkscape:connector-curvature="0" />
      <path
         id="path6858"
         d="m 7.0191088,2.6857605 c -0.9751333,-0.9751333 -2.3022686,-0.9387236 -3.2409922,0 0,0.4531819 -0.1416442,0.7687728 0.036411,1.1855452 C 4.0249397,4.4256151 3.40991,4.8261813 3.8832955,5.2996225 4.2960163,5.0609039 5.3884831,4.4984359 5.4492034,4.2192547 5.3439704,3.6973034 5.3116123,3.3492988 6.0075643,3.5233011 6.5578778,3.7863319 7.63819,3.7822788 7.0191088,2.6857605 z"
         style="fill:none;stroke:#000000;stroke-width:0.26368609;stroke-miterlimit:4;stroke-dasharray:none"
         inkscape:connector-curvature="0" />
      <path
         id="path6856"
         d="m 9.6289749,2.6452995 c 0,-0.2185165 0.064716,-1.5780656 0.1739467,-1.84509069 C 9.661333,0.24184769 8.5121974,0.16897284 8.0266574,0.16897284 7.2416769,0.95395333 9.5561,2.6452993 9.6289749,2.6452993 z"
         style="fill:none;stroke:#000000;stroke-width:0.26368609;stroke-miterlimit:4;stroke-dasharray:none"
         inkscape:connector-curvature="0" />
      <path
         id="path7121"
         d="m 3.3249346,0.14066624 c 0.2791797,0.0323581 0.6271287,0.17400229 0.9063655,0.17400229 l 0.2103563,0.21041193 c 0,0.24277004 -0.1415885,0.62712864 -0.3155908,0.80113094 C 3.8832955,1.221034 3.1873419,0.41984591 3.3249346,0.14066624 z"
         style="fill:none;stroke:#000000;stroke-width:0.26368609;stroke-miterlimit:4;stroke-dasharray:none"
         inkscape:connector-curvature="0" />
      <path
         id="path7123"
         d="M 0.80409385,10.705346 C 0.97809615,10.146985 1.1844566,9.3458544 1.605282,8.9250289 1.7832802,9.1030827 2.5521086,10.037755 2.3700033,10.458523 2.2324107,10.879349 1.7792843,11.296121 1.605282,11.68048 1.4353312,12.072998 0.19716876,11.223302 0.00296289,11.053351 l 0,-0.06882 c 0.347949,-0.477437 0.30349193,-0.441027 0.80113096,-0.27918 z"
         class="fil0 str0"
         inkscape:connector-curvature="0"
         style="fill:none;stroke:#000000;stroke-width:0.26368609;stroke-miterlimit:4;stroke-dasharray:none" />
    </g>
  </g>
</svg>
