<?xml version="1.0" encoding="UTF-8" standalone="no"?>
<!-- Created with Inkscape (http://www.inkscape.org/) -->

<svg
   xmlns:dc="http://purl.org/dc/elements/1.1/"
   xmlns:cc="http://creativecommons.org/ns#"
   xmlns:rdf="http://www.w3.org/1999/02/22-rdf-syntax-ns#"
   xmlns:svg="http://www.w3.org/2000/svg"
   xmlns="http://www.w3.org/2000/svg"
   xmlns:sodipodi="http://sodipodi.sourceforge.net/DTD/sodipodi-0.dtd"
   xmlns:inkscape="http://www.inkscape.org/namespaces/inkscape"
   width="17.4"
   height="18.209999"
   id="svg7187"
   version="1.1"
   inkscape:version="0.48.3.1 r9886"
   sodipodi:docname="GeoPat_Siderit.svg">
  <defs
     id="defs7189" />
  <sodipodi:namedview
     id="base"
     pagecolor="#ffffff"
     bordercolor="#666666"
     borderopacity="1.0"
     inkscape:pageopacity="0.0"
     inkscape:pageshadow="2"
     inkscape:zoom="16"
     inkscape:cx="3.7143177"
     inkscape:cy="2.6149488"
     inkscape:current-layer="layer1"
     showgrid="true"
     inkscape:grid-bbox="true"
     inkscape:document-units="px"
     fit-margin-top="0"
     fit-margin-left="0"
     fit-margin-right="0"
     fit-margin-bottom="0"
     inkscape:window-width="893"
     inkscape:window-height="1002"
     inkscape:window-x="25"
     inkscape:window-y="0"
     inkscape:window-maximized="0"
     showguides="true"
     inkscape:guide-bbox="true"
     inkscape:snap-object-midpoints="true"
     inkscape:object-paths="true"
     inkscape:object-nodes="true"
     inkscape:snap-center="true"
     inkscape:snap-to-guides="true"
     inkscape:snap-global="true" />
  <metadata
     id="metadata7192">
    <rdf:RDF>
      <cc:Work
         rdf:about="">
        <dc:format>image/svg+xml</dc:format>
        <dc:type
           rdf:resource="http://purl.org/dc/dcmitype/StillImage" />
        <dc:title />
      </cc:Work>
    </rdf:RDF>
  </metadata>
  <g
     id="layer1"
     inkscape:label="Layer 1"
     inkscape:groupmode="layer"
     transform="translate(0.97246133,6.3662505)">
    <g
       id="g4835">
      <path
         inkscape:connector-curvature="0"
         d="m 1.0604707,-1.7602367 0,-2.2097087 m -1.10485441,1.1048544 2.20970881,0 m 0,0 c 0,0.6101942 -0.4946601,1.1048543 -1.1048543,1.1048543 -0.61019451,0 -1.10485451,-0.4946601 -1.10485451,-1.1048543 0,-0.6101942 0.49466,-1.1048544 1.10485451,-1.1048544 0.6101942,0 1.1048543,0.4946602 1.1048543,1.1048544 z"
         style="color:#000000;fill:none;stroke:#000000;stroke-width:0.30000001;stroke-linecap:butt;stroke-linejoin:miter;stroke-miterlimit:4;stroke-opacity:1;stroke-dasharray:none;stroke-dashoffset:0;marker:none;visibility:visible;display:inline;overflow:visible;enable-background:accumulate"
         id="path3806" />
      <path
         id="path3810"
         style="color:#000000;fill:none;stroke:#000000;stroke-width:0.30000001;stroke-linecap:butt;stroke-linejoin:miter;stroke-miterlimit:4;stroke-opacity:1;stroke-dasharray:none;stroke-dashoffset:0;marker:none;visibility:visible;display:inline;overflow:visible;enable-background:accumulate"
         d="m 9.8682739,-1.7605841 0,-2.2097087 m -1.1048545,1.1048544 2.2097086,0 m 0,0 c 0,0.6101942 -0.49466,1.1048543 -1.104854,1.1048543 -0.6101946,0 -1.1048546,-0.4946601 -1.1048546,-1.1048543 0,-0.6101942 0.49466,-1.1048544 1.1048546,-1.1048544 0.610194,0 1.104854,0.4946603 1.104854,1.1048544 z"
         inkscape:connector-curvature="0" />
      <path
         inkscape:connector-curvature="0"
         d="m 5.4673068,2.849322 0,-2.20970867 m -1.1048545,1.10485437 2.2097085,0 m 0,0 c 0,0.6101942 -0.49466,1.1048543 -1.104854,1.1048543 -0.6101946,0 -1.1048545,-0.4946601 -1.1048545,-1.1048543 0,-0.6101942 0.4946599,-1.10485437 1.1048545,-1.10485437 0.610194,0 1.104854,0.49466027 1.104854,1.10485437 z"
         style="color:#000000;fill:none;stroke:#000000;stroke-width:0.30000001;stroke-linecap:butt;stroke-linejoin:miter;stroke-miterlimit:4;stroke-opacity:1;stroke-dasharray:none;stroke-dashoffset:0;marker:none;visibility:visible;display:inline;overflow:visible;enable-background:accumulate"
         id="path3812" />
      <path
         id="path3814"
         style="color:#000000;fill:none;stroke:#000000;stroke-width:0.30000001;stroke-linecap:butt;stroke-linejoin:miter;stroke-miterlimit:4;stroke-opacity:1;stroke-dasharray:none;stroke-dashoffset:0;marker:none;visibility:visible;display:inline;overflow:visible;enable-background:accumulate"
         d="m 14.275109,2.6465992 0,-2.20970862 m -1.104854,1.10485432 2.209708,0 m 0,0 c 0,0.6101942 -0.49466,1.1048543 -1.104854,1.1048543 -0.610194,0 -1.104854,-0.4946601 -1.104854,-1.1048543 0,-0.61019417 0.49466,-1.10485432 1.104854,-1.10485432 0.610194,0 1.104854,0.49466025 1.104854,1.10485432 z"
         inkscape:connector-curvature="0" />
      <path
         inkscape:connector-curvature="0"
         d="m 9.8682739,7.0534334 0,-2.2097086 m -1.104854,1.1048543 2.2097081,0 m 0,0 c 0,0.6101942 -0.49466,1.1048543 -1.1048541,1.1048543 -0.610194,0 -1.104854,-0.4946601 -1.104854,-1.1048543 0,-0.6101942 0.49466,-1.1048543 1.104854,-1.1048543 0.6101941,0 1.1048541,0.4946602 1.1048541,1.1048543 z"
         style="color:#000000;fill:none;stroke:#000000;stroke-width:0.30000001;stroke-linecap:butt;stroke-linejoin:miter;stroke-miterlimit:4;stroke-opacity:1;stroke-dasharray:none;stroke-dashoffset:0;marker:none;visibility:visible;display:inline;overflow:visible;enable-background:accumulate"
         id="path3816" />
      <path
         id="path3818"
         style="color:#000000;fill:none;stroke:#000000;stroke-width:0.30000001;stroke-linecap:butt;stroke-linejoin:miter;stroke-miterlimit:4;stroke-opacity:1;stroke-dasharray:none;stroke-dashoffset:0;marker:none;visibility:visible;display:inline;overflow:visible;enable-background:accumulate"
         d="m 1.0604706,6.9702301 0,-2.2097086 m -1.10485395,1.1048543 2.20970815,0 m 0,0 c 0,0.6101942 -0.49466,1.1048543 -1.1048542,1.1048543 -0.61019395,0 -1.10485395,-0.4946601 -1.10485395,-1.1048543 0,-0.6101942 0.49466,-1.1048543 1.10485395,-1.1048543 0.6101941,0 1.1048542,0.4946602 1.1048542,1.1048543 z"
         inkscape:connector-curvature="0" />
      <path
         inkscape:connector-curvature="0"
         d="m 5.4673064,11.694215 0,-2.2097092 m -1.104854,1.1048552 2.2097082,0 m 0,0 c 0,0.610194 -0.49466,1.104854 -1.1048542,1.104854 -0.610194,0 -1.104854,-0.49466 -1.104854,-1.104854 0,-0.6101954 0.49466,-1.1048552 1.104854,-1.1048552 0.6101941,0 1.1048542,0.4946598 1.1048542,1.1048552 z"
         style="color:#000000;fill:none;stroke:#000000;stroke-width:0.30000001;stroke-linecap:butt;stroke-linejoin:miter;stroke-miterlimit:4;stroke-opacity:1;stroke-dasharray:none;stroke-dashoffset:0;marker:none;visibility:visible;display:inline;overflow:visible;enable-background:accumulate"
         id="path3820" />
      <path
         id="path3822"
         style="color:#000000;fill:none;stroke:#000000;stroke-width:0.30000001;stroke-linecap:butt;stroke-linejoin:miter;stroke-miterlimit:4;stroke-opacity:1;stroke-dasharray:none;stroke-dashoffset:0;marker:none;visibility:visible;display:inline;overflow:visible;enable-background:accumulate"
         d="m 14.275109,11.694215 0,-2.2097093 m -1.104854,1.1048553 2.209708,0 m 0,0 c 0,0.610194 -0.49466,1.104854 -1.104854,1.104854 -0.610194,0 -1.104854,-0.49466 -1.104854,-1.104854 0,-0.6101954 0.49466,-1.1048553 1.104854,-1.1048553 0.610194,0 1.104854,0.4946599 1.104854,1.1048553 z"
         inkscape:connector-curvature="0" />
      <rect
         y="-6.3669319"
         x="-0.96855509"
         height="18.214586"
         width="17.395424"
         id="rect4833"
         style="fill:none;stroke:none" />
    </g>
  </g>
</svg>
