<?xml version="1.0" encoding="UTF-8" standalone="no"?>
<!-- Created with Inkscape (http://www.inkscape.org/) -->

<svg
   xmlns:dc="http://purl.org/dc/elements/1.1/"
   xmlns:cc="http://creativecommons.org/ns#"
   xmlns:rdf="http://www.w3.org/1999/02/22-rdf-syntax-ns#"
   xmlns:svg="http://www.w3.org/2000/svg"
   xmlns="http://www.w3.org/2000/svg"
   xmlns:sodipodi="http://sodipodi.sourceforge.net/DTD/sodipodi-0.dtd"
   xmlns:inkscape="http://www.inkscape.org/namespaces/inkscape"
   width="16"
   height="17.5"
   id="svg7187"
   version="1.1"
   inkscape:version="0.48.3.1 r9886"
   sodipodi:docname="GeoPat_Buesche.svg">
  <defs
     id="defs7189" />
  <sodipodi:namedview
     id="base"
     pagecolor="#ffffff"
     bordercolor="#666666"
     borderopacity="1.0"
     inkscape:pageopacity="0.0"
     inkscape:pageshadow="2"
     inkscape:zoom="16"
     inkscape:cx="6.5125034"
     inkscape:cy="-6.2973303"
     inkscape:current-layer="layer1"
     showgrid="true"
     inkscape:grid-bbox="true"
     inkscape:document-units="px"
     fit-margin-top="0"
     fit-margin-left="0"
     fit-margin-right="0"
     fit-margin-bottom="0"
     inkscape:window-width="848"
     inkscape:window-height="968"
     inkscape:window-x="25"
     inkscape:window-y="25"
     inkscape:window-maximized="0"
     showguides="true"
     inkscape:guide-bbox="true"
     inkscape:snap-object-midpoints="true"
     inkscape:object-paths="true"
     inkscape:object-nodes="true"
     inkscape:snap-center="true"
     inkscape:snap-to-guides="true" />
  <metadata
     id="metadata7192">
    <rdf:RDF>
      <cc:Work
         rdf:about="">
        <dc:format>image/svg+xml</dc:format>
        <dc:type
           rdf:resource="http://purl.org/dc/dcmitype/StillImage" />
        <dc:title />
      </cc:Work>
    </rdf:RDF>
  </metadata>
  <g
     id="layer1"
     inkscape:label="Layer 1"
     inkscape:groupmode="layer"
     transform="translate(0.32776622,4.7991143)">
    <g
       id="g4973">
      <path
         inkscape:connector-curvature="0"
         d="m 1.4140241,-2.3900037 c 0,0.4637476 -0.3759417,0.8396893 -0.8396893,0.8396893 -0.4637476,0 -0.8396893,-0.3759417 -0.8396893,-0.8396893 0,-0.4637476 0.3759417,-0.8396893 0.8396893,-0.8396893 0.4637476,0 0.8396893,0.3759417 0.8396893,0.8396893 z m -0.8396893,0.8396893 1.8119611,0"
         style="color:#000000;fill:none;stroke:#000000;stroke-width:0.30000001;stroke-linecap:butt;stroke-linejoin:miter;stroke-miterlimit:4;stroke-opacity:1;stroke-dasharray:none;stroke-dashoffset:0;marker:none;visibility:visible;display:inline;overflow:visible;enable-background:accumulate"
         id="path3821" />
      <path
         id="path3830"
         style="color:#000000;fill:none;stroke:#000000;stroke-width:0.30000001;stroke-linecap:butt;stroke-linejoin:miter;stroke-miterlimit:4;stroke-opacity:1;stroke-dasharray:none;stroke-dashoffset:0;marker:none;visibility:visible;display:inline;overflow:visible;enable-background:accumulate"
         d="m 10.221827,-2.390351 c 0,0.4637476 -0.3759414,0.8396893 -0.839689,0.8396893 -0.4637476,0 -0.8396893,-0.3759417 -0.8396893,-0.8396893 0,-0.4637476 0.3759417,-0.8396893 0.8396893,-0.8396893 0.4637476,0 0.839689,0.3759417 0.839689,0.8396893 z m -0.839689,0.8396893 1.811961,0"
         inkscape:connector-curvature="0" />
      <path
         inkscape:connector-curvature="0"
         d="m 5.8208598,2.2195551 c 0,0.4637476 -0.3759415,0.8396893 -0.8396891,0.8396893 -0.4637476,0 -0.8396893,-0.3759417 -0.8396893,-0.8396893 0,-0.4637476 0.3759417,-0.8396893 0.8396893,-0.8396893 0.4637476,0 0.8396891,0.3759417 0.8396891,0.8396893 z m -0.8396891,0.8396893 1.8119611,0"
         style="color:#000000;fill:none;stroke:#000000;stroke-width:0.30000001;stroke-linecap:butt;stroke-linejoin:miter;stroke-miterlimit:4;stroke-opacity:1;stroke-dasharray:none;stroke-dashoffset:0;marker:none;visibility:visible;display:inline;overflow:visible;enable-background:accumulate"
         id="path3832" />
      <path
         id="path3834"
         style="color:#000000;fill:none;stroke:#000000;stroke-width:0.30000001;stroke-linecap:butt;stroke-linejoin:miter;stroke-miterlimit:4;stroke-opacity:1;stroke-dasharray:none;stroke-dashoffset:0;marker:none;visibility:visible;display:inline;overflow:visible;enable-background:accumulate"
         d="m 14.628662,2.0168323 c 0,0.4637476 -0.375941,0.8396893 -0.839689,0.8396893 -0.463747,0 -0.839689,-0.3759417 -0.839689,-0.8396893 0,-0.4637476 0.375942,-0.8396893 0.839689,-0.8396893 0.463748,0 0.839689,0.3759417 0.839689,0.8396893 z m -0.839689,0.8396893 1.811961,0"
         inkscape:connector-curvature="0" />
      <path
         id="path3836"
         style="color:#000000;fill:none;stroke:#000000;stroke-width:0.30000001;stroke-linecap:butt;stroke-linejoin:miter;stroke-miterlimit:4;stroke-opacity:1;stroke-dasharray:none;stroke-dashoffset:0;marker:none;visibility:visible;display:inline;overflow:visible;enable-background:accumulate"
         d="m 1.4140239,6.3404632 c 0,0.4637476 -0.3759415,0.8396893 -0.83968911,0.8396893 -0.4637476,0 -0.8396893,-0.3759417 -0.8396893,-0.8396893 0,-0.4637476 0.3759417,-0.8396893 0.8396893,-0.8396893 0.46374761,0 0.83968911,0.3759417 0.83968911,0.8396893 z m -0.83968911,0.8396893 1.81196111,0"
         inkscape:connector-curvature="0" />
      <path
         inkscape:connector-curvature="0"
         d="m 10.221827,6.4236665 c 0,0.4637476 -0.3759415,0.8396893 -0.8396891,0.8396893 -0.4637476,0 -0.8396893,-0.3759417 -0.8396893,-0.8396893 0,-0.4637476 0.3759417,-0.8396893 0.8396893,-0.8396893 0.4637476,0 0.8396891,0.3759417 0.8396891,0.8396893 z m -0.8396891,0.8396893 1.8119611,0"
         style="color:#000000;fill:none;stroke:#000000;stroke-width:0.30000001;stroke-linecap:butt;stroke-linejoin:miter;stroke-miterlimit:4;stroke-opacity:1;stroke-dasharray:none;stroke-dashoffset:0;marker:none;visibility:visible;display:inline;overflow:visible;enable-background:accumulate"
         id="path3838" />
      <path
         id="path3840"
         style="color:#000000;fill:none;stroke:#000000;stroke-width:0.30000001;stroke-linecap:butt;stroke-linejoin:miter;stroke-miterlimit:4;stroke-opacity:1;stroke-dasharray:none;stroke-dashoffset:0;marker:none;visibility:visible;display:inline;overflow:visible;enable-background:accumulate"
         d="m 5.8208597,10.830503 c 0,0.463748 -0.3759415,0.839689 -0.8396891,0.839689 -0.4637476,0 -0.8396893,-0.375941 -0.8396893,-0.839689 0,-0.463748 0.3759417,-0.8396893 0.8396893,-0.8396893 0.4637476,0 0.8396891,0.3759413 0.8396891,0.8396893 z m -0.8396891,0.839689 1.8119611,0"
         inkscape:connector-curvature="0" />
      <path
         inkscape:connector-curvature="0"
         d="m 14.628662,11.033226 c 0,0.463748 -0.375941,0.839689 -0.839689,0.839689 -0.463747,0 -0.839689,-0.375941 -0.839689,-0.839689 0,-0.463748 0.375942,-0.839689 0.839689,-0.839689 0.463748,0 0.839689,0.375941 0.839689,0.839689 z m -0.839689,0.839689 1.811961,0"
         style="color:#000000;fill:none;stroke:#000000;stroke-width:0.30000001;stroke-linecap:butt;stroke-linejoin:miter;stroke-miterlimit:4;stroke-opacity:1;stroke-dasharray:none;stroke-dashoffset:0;marker:none;visibility:visible;display:inline;overflow:visible;enable-background:accumulate"
         id="path3842" />
      <rect
         y="-4.7987819"
         x="-0.32776621"
         height="17.494307"
         width="15.998291"
         id="rect4971"
         style="fill:none;stroke:none" />
    </g>
  </g>
</svg>
