<?xml version="1.0" encoding="UTF-8" standalone="no"?>
<!-- Created with Inkscape (http://www.inkscape.org/) -->

<svg
   xmlns:dc="http://purl.org/dc/elements/1.1/"
   xmlns:cc="http://creativecommons.org/ns#"
   xmlns:rdf="http://www.w3.org/1999/02/22-rdf-syntax-ns#"
   xmlns:svg="http://www.w3.org/2000/svg"
   xmlns="http://www.w3.org/2000/svg"
   xmlns:sodipodi="http://sodipodi.sourceforge.net/DTD/sodipodi-0.dtd"
   xmlns:inkscape="http://www.inkscape.org/namespaces/inkscape"
   width="16.0625"
   height="15.84375"
   id="svg4090"
   version="1.1"
   inkscape:version="0.48.3.1 r9886"
   sodipodi:docname="GeoPat_Kalkknollen.svg">
  <defs
     id="defs4092" />
  <sodipodi:namedview
     id="base"
     pagecolor="#ffffff"
     bordercolor="#666666"
     borderopacity="1.0"
     inkscape:pageopacity="0.0"
     inkscape:pageshadow="2"
     inkscape:zoom="22.627417"
     inkscape:cx="6.0060568"
     inkscape:cy="9.9283336"
     inkscape:current-layer="layer1"
     showgrid="true"
     inkscape:grid-bbox="true"
     inkscape:document-units="px"
     fit-margin-top="0"
     fit-margin-left="0"
     fit-margin-right="0"
     fit-margin-bottom="0"
     inkscape:window-width="845"
     inkscape:window-height="836"
     inkscape:window-x="28"
     inkscape:window-y="0"
     inkscape:window-maximized="0"
     showguides="true"
     inkscape:guide-bbox="true"
     inkscape:snap-bbox="true"
     inkscape:object-paths="true"
     inkscape:object-nodes="true" />
  <metadata
     id="metadata4095">
    <rdf:RDF>
      <cc:Work
         rdf:about="">
        <dc:format>image/svg+xml</dc:format>
        <dc:type
           rdf:resource="http://purl.org/dc/dcmitype/StillImage" />
        <dc:title />
      </cc:Work>
    </rdf:RDF>
  </metadata>
  <g
     id="layer1"
     inkscape:label="Layer 1"
     inkscape:groupmode="layer"
     transform="translate(0.71875,11.3125)">
    <g
       id="g4697">
      <path
         inkscape:connector-curvature="0"
         d="m 7.3149635,-11.310859 0,0.960316 m 0,13.9227278 0,0.9603154 m 7.8816865,-5.16501863 0,2.38276973 M -0.56672307,1.5755277 c 0,0 1.52897189,-0.00369 3.35964907,0.5287495 1.5367223,0.447074 3.2860454,1.4457532 4.5220376,1.4457532 1.2292284,0 2.9661774,-0.9941747 4.4967814,-1.4384424 1.841851,-0.5345835 3.384905,-0.5360603 3.384905,-0.5360603 m 0,-2.02342687 c 0,0 -1.543054,0 -3.384905,-0.53606039 C 10.281141,-1.4282274 8.544192,-2.422402 7.3149635,-2.422402 c -1.2359921,0 -2.9853152,0.9986794 -4.5220375,1.44575333 -1.83067718,0.53244185 -3.35964907,0.5287495 -3.35964907,0.5287495 l 0,2.20804607 M 15.19665,-8.5606589 l 0,2.3827694 M -0.56671937,-6.3526132 c 0,0 1.52896819,-0.00369 3.35964547,0.5287495 1.5367261,0.4470739 3.2860454,1.4457533 4.5220375,1.4457533 1.2292284,0 2.9661774,-0.9941746 4.4967814,-1.4384423 1.841851,-0.5345835 3.384905,-0.5360605 3.384905,-0.5360605 m 0,-2.0234268 c 0,0 -1.543054,0 -3.384905,-0.5360603 -1.530604,-0.4442677 -3.267553,-1.4384427 -4.4967815,-1.4384427 -1.2359921,0 -2.9853114,0.9986793 -4.5220375,1.4457539 -1.83067718,0.5324415 -3.35964537,0.5287491 -3.35964537,0.5287491 l 0,2.2080461 m 7.88168287,1.7898466 0,1.9557453"
         style="fill:none;stroke:#000000;stroke-width:0.30000001;stroke-miterlimit:4;stroke-dasharray:none;display:inline"
         id="line6341" />
    </g>
  </g>
</svg>
