<?xml version="1.0" encoding="UTF-8" standalone="no"?>
<!-- Created with Inkscape (http://www.inkscape.org/) -->

<svg
   xmlns:dc="http://purl.org/dc/elements/1.1/"
   xmlns:cc="http://creativecommons.org/ns#"
   xmlns:rdf="http://www.w3.org/1999/02/22-rdf-syntax-ns#"
   xmlns:svg="http://www.w3.org/2000/svg"
   xmlns="http://www.w3.org/2000/svg"
   xmlns:sodipodi="http://sodipodi.sourceforge.net/DTD/sodipodi-0.dtd"
   xmlns:inkscape="http://www.inkscape.org/namespaces/inkscape"
   width="17.143089"
   height="12.936871"
   id="svg9432"
   version="1.1"
   inkscape:version="0.48.2 r9819"
   sodipodi:docname="GeoPat_Quarzit.svg">
  <defs
     id="defs9434" />
  <sodipodi:namedview
     id="base"
     pagecolor="#ffffff"
     bordercolor="#666666"
     borderopacity="1.0"
     inkscape:pageopacity="0.0"
     inkscape:pageshadow="2"
     inkscape:zoom="32"
     inkscape:cx="1.7706633"
     inkscape:cy="8.1602861"
     inkscape:current-layer="layer1"
     showgrid="true"
     inkscape:grid-bbox="true"
     inkscape:document-units="px"
     inkscape:window-width="1920"
     inkscape:window-height="1000"
     inkscape:window-x="0"
     inkscape:window-y="25"
     inkscape:window-maximized="1"
     fit-margin-top="0"
     fit-margin-left="0"
     fit-margin-right="0"
     fit-margin-bottom="0" />
  <metadata
     id="metadata9437">
    <rdf:RDF>
      <cc:Work
         rdf:about="">
        <dc:format>image/svg+xml</dc:format>
        <dc:type
           rdf:resource="http://purl.org/dc/dcmitype/StillImage" />
        <dc:title></dc:title>
      </cc:Work>
    </rdf:RDF>
  </metadata>
  <g
     id="layer1"
     inkscape:label="Layer 1"
     inkscape:groupmode="layer"
     transform="translate(0.88634085,11.369602)">
    <g
       id="g10587"
       transform="matrix(1.0622816,0,0,1.0622816,-0.47593807,0.17697622)">
      <path
         id="path5446"
         d="m -0.38634083,-9.5623086 c 1.43992673,-1.7430574 2.87996253,-1.7430574 4.31999843,0"
         class="fil0 str0"
         inkscape:connector-curvature="0"
         style="fill:none;stroke:#000000;stroke-width:0.28241101;stroke-miterlimit:4;stroke-dasharray:none" />
      <path
         id="path5448"
         d="m 15.756748,-9.5623086 c -1.43993,1.7430577 -2.879963,1.7430577 -4.319998,0"
         class="fil0 str0"
         inkscape:connector-curvature="0"
         style="fill:none;stroke:#000000;stroke-width:0.28241101;stroke-miterlimit:4;stroke-dasharray:none" />
      <path
         id="path5450"
         d="m 7.6852035,-3.2527297 c -1.7430607,-1.4399267 -1.7430607,-2.8799626 0,-4.3199984 m 0,4.3199984 c 1.7430577,1.4399297 1.7430577,2.87996253 0,4.3199984"
         class="fil0 str0"
         inkscape:connector-curvature="0"
         style="fill:none;stroke:#000000;stroke-width:0.28241101;stroke-miterlimit:4;stroke-dasharray:none" />
      <path
         id="path5452"
         d="m 14.881833,-4.9556133 0.874915,2.4149528 0,0.3831579 -0.186156,0.623663 -0.116654,0 -1.145069,-3.2564601 -0.04243,-0.079596 c -0.01064,0 -0.01588,0.030073 -0.01588,0.090231 l 0,2.2227857 c 0,0.3926102 0.05221,0.6516988 0.156506,0.7772687 0.104304,0.125573 0.301522,0.1883049 0.591547,0.1883049 l 0,0.057466 -1.50137,0 0,-0.057466 c 0.247596,0 0.422686,-0.063699 0.525162,-0.1909878 0.102585,-0.1272918 0.15393,-0.3430929 0.15393,-0.648158 l 0,-1.6401516 c 0,-0.3111889 -0.0478,-0.5278479 -0.143295,-0.6498739 -0.09549,-0.122026 -0.274129,-0.1830391 -0.535797,-0.1830391 l 0,-0.057469 1.384607,0.00537 z"
         class="fil1"
         inkscape:connector-curvature="0"
         style="fill:#000000;fill-rule:nonzero;stroke:none" />
      <path
         id="path5454"
         d="m -0.38634083,-2.5406605 0.0580057,0.147485 0.77265174,-2.5678097 1.46957529,0 0,0.052097 c -0.3219296,0 -0.5340807,0.021281 -0.6366623,0.063699 -0.035342,0.014188 -0.056608,0.028254 -0.063699,0.04243 -0.017613,0.031795 -0.026526,0.095494 -0.026526,0.1909878 l 0,2.7179776 c 0,0.1061286 0.00709,0.1715465 0.021281,0.1963597 0.00709,0.014066 0.032762,0.029103 0.076911,0.045007 0.044255,0.016007 0.1211651,0.029224 0.2308406,0.039853 0.1095633,0.010641 0.242224,0.015885 0.397873,0.015885 l 0,0.057469 -2.04339965,0 0,-0.057469 c 0.12729185,0 0.24491305,-0.00527 0.35276052,-0.015885 0.10795358,-0.010641 0.18217811,-0.023858 0.22288882,-0.039853 0.0406046,-0.015885 0.0645569,-0.030937 0.0715416,-0.045007 0.0141877,-0.028345 0.0212815,-0.093775 0.0212815,-0.1963597 l -0.005275,-2.8868381 c 0,-0.060152 -0.007094,-0.090231 -0.0212815,-0.090231 -0.0141877,0 -0.031901,0.026102 -0.0477985,0.079596 l -0.85095976,2.6337642 0,-0.3831579 z"
         class="fil1"
         inkscape:connector-curvature="0"
         style="fill:#000000;fill-rule:nonzero;stroke:none" />
    </g>
  </g>
</svg>
