<?xml version="1.0" encoding="UTF-8" standalone="no"?>
<!-- Created with Inkscape (http://www.inkscape.org/) -->

<svg
   xmlns:dc="http://purl.org/dc/elements/1.1/"
   xmlns:cc="http://creativecommons.org/ns#"
   xmlns:rdf="http://www.w3.org/1999/02/22-rdf-syntax-ns#"
   xmlns:svg="http://www.w3.org/2000/svg"
   xmlns="http://www.w3.org/2000/svg"
   xmlns:sodipodi="http://sodipodi.sourceforge.net/DTD/sodipodi-0.dtd"
   xmlns:inkscape="http://www.inkscape.org/namespaces/inkscape"
   width="16px"
   height="16px"
   id="svg9432"
   version="1.1"
   inkscape:version="0.48.2 r9819"
   sodipodi:docname="Neues Dokument 50">
  <defs
     id="defs9434" />
  <sodipodi:namedview
     id="base"
     pagecolor="#ffffff"
     bordercolor="#666666"
     borderopacity="1.0"
     inkscape:pageopacity="0.0"
     inkscape:pageshadow="2"
     inkscape:zoom="22.197802"
     inkscape:cx="4.3040726"
     inkscape:cy="8.6818724"
     inkscape:current-layer="layer1"
     showgrid="true"
     inkscape:grid-bbox="true"
     inkscape:document-units="px"
     inkscape:window-width="1283"
     inkscape:window-height="930"
     inkscape:window-x="479"
     inkscape:window-y="25"
     inkscape:window-maximized="0" />
  <metadata
     id="metadata9437">
    <rdf:RDF>
      <cc:Work
         rdf:about="">
        <dc:format>image/svg+xml</dc:format>
        <dc:type
           rdf:resource="http://purl.org/dc/dcmitype/StillImage" />
        <dc:title></dc:title>
      </cc:Work>
    </rdf:RDF>
  </metadata>
  <g
     id="layer1"
     inkscape:label="Layer 1"
     inkscape:groupmode="layer">
    <g
       id="g10021"
       transform="matrix(1.0014944,0,0,1.0014944,-0.04784257,0)">
      <path
         id="path4225"
         d="m 12.321579,13.257269 c 0.148912,0 0.270218,0.121373 0.270218,0.275765 0,0.154391 -0.121306,0.275699 -0.270218,0.275699 -0.148911,0 -0.270218,-0.121308 -0.270218,-0.275699 0,-0.154392 0.121307,-0.275765 0.270218,-0.275765 z"
         class="fil0 str0"
         inkscape:connector-curvature="0"
         style="fill:#000000;fill-rule:nonzero;stroke:none" />
      <path
         id="path4227"
         d="m 9.1230734,15.264623 c 0.1489095,0 0.270218,0.121307 0.270218,0.275765 0,0.154391 -0.1213085,0.275699 -0.270218,0.275699 -0.1489113,0 -0.2702179,-0.121308 -0.2702179,-0.275699 0,-0.154458 0.1213066,-0.275765 0.2702179,-0.275765 z"
         class="fil0 str0"
         inkscape:connector-curvature="0"
         style="fill:#000000;fill-rule:nonzero;stroke:none" />
      <path
         id="path4229"
         d="m 1.0826282,14.464996 c 0.1489114,0 0.2702851,0.121308 0.2702851,0.275765 0,0.154392 -0.1213737,0.275699 -0.2702851,0.275699 -0.14884421,0 -0.27021791,-0.121307 -0.27021791,-0.275699 0,-0.154457 0.1213737,-0.275765 0.27021791,-0.275765 z"
         class="fil0 str0"
         inkscape:connector-curvature="0"
         style="fill:#000000;fill-rule:nonzero;stroke:none" />
      <path
         id="path4231"
         d="m 5.1249391,13.919079 c 0.1489114,0 0.2702198,0.121307 0.2702198,0.275699 0,0.154391 -0.1213084,0.275765 -0.2702198,0.275765 -0.1489095,0 -0.2702179,-0.121374 -0.2702179,-0.275765 0,-0.154392 0.1213084,-0.275699 0.2702179,-0.275699 z"
         class="fil0 str0"
         inkscape:connector-curvature="0"
         style="fill:#000000;fill-rule:nonzero;stroke:none" />
      <path
         id="path4233"
         d="m 8.3896148,8.6304755 c 0.1489095,0 0.270218,0.1213075 0.270218,0.2757651 0,0.1543915 -0.1213085,0.2756992 -0.270218,0.2756992 -0.1489113,0 -0.2702179,-0.1213077 -0.2702179,-0.2756992 0,-0.1544576 0.1213066,-0.2757651 0.2702179,-0.2757651 z"
         class="fil0 str0"
         inkscape:connector-curvature="0"
         style="fill:#000000;fill-rule:nonzero;stroke:none" />
      <path
         id="path4235"
         d="m 3.1065587,3.2922793 c 0.1489095,0 0.2702179,0.1213077 0.2702179,0.2756992 0,0.1544575 -0.1213084,0.2757652 -0.2702179,0.2757652 -0.1489114,0 -0.2702198,-0.1213077 -0.2702198,-0.2757652 0,-0.1543915 0.1213084,-0.2756992 0.2702198,-0.2756992 z"
         class="fil0 str0"
         inkscape:connector-curvature="0"
         style="fill:#000000;fill-rule:nonzero;stroke:none" />
      <path
         id="path4237"
         d="m 2.8859331,6.3584502 c 0.1489095,0 0.270218,0.1213077 0.270218,0.2756992 0,0.1544575 -0.1213085,0.2757652 -0.270218,0.2757652 -0.1488442,0 -0.2702179,-0.1213077 -0.2702179,-0.2757652 0,-0.1543915 0.1213737,-0.2756992 0.2702179,-0.2756992 z"
         class="fil0 str0"
         inkscape:connector-curvature="0"
         style="fill:#000000;fill-rule:nonzero;stroke:none" />
      <path
         id="path4239"
         d="m 13.805007,3.3198162 c 0.148909,0 0.270218,0.1213737 0.270218,0.2757652 0,0.1543915 -0.121309,0.2756992 -0.270218,0.2756992 -0.148846,0 -0.27022,-0.1213077 -0.27022,-0.2756992 0,-0.1543915 0.121374,-0.2757652 0.27022,-0.2757652 z"
         class="fil0 str0"
         inkscape:connector-curvature="0"
         style="fill:#000000;fill-rule:nonzero;stroke:none" />
      <path
         id="path4241"
         d="m 8.5716083,11.983373 c 0.1489113,0 0.2702179,0.121374 0.2702179,0.275766 0,0.154391 -0.1213066,0.275765 -0.2702179,0.275765 -0.1489095,0 -0.270218,-0.121374 -0.270218,-0.275765 0,-0.154392 0.1213085,-0.275766 0.270218,-0.275766 z"
         class="fil0 str0"
         inkscape:connector-curvature="0"
         style="fill:#000000;fill-rule:nonzero;stroke:none" />
      <path
         id="path4243"
         d="m 5.8363429,0.81620371 c 0.1488443,0 0.270218,0.12130764 0.270218,0.27569919 0,0.1543915 -0.1213737,0.2757652 -0.270218,0.2757652 -0.1489113,0 -0.2702179,-0.1213737 -0.2702179,-0.2757652 0,-0.15439155 0.1213066,-0.27569919 0.2702179,-0.27569919 z"
         class="fil0 str0"
         inkscape:connector-curvature="0"
         style="fill:#000000;fill-rule:nonzero;stroke:none" />
      <path
         id="path4245"
         d="m 0.4539697,0.66729316 c 0.14890949,0 0.27021795,0.12130762 0.27021795,0.27569915 0,0.15445759 -0.12130846,0.27576519 -0.27021795,0.27576519 -0.14884612,0 -0.27021981,-0.1213076 -0.27021981,-0.27576519 0,-0.15439153 0.12137369,-0.27569915 0.27021981,-0.27569915 z"
         class="fil0 str0"
         inkscape:connector-curvature="0"
         style="fill:#000000;fill-rule:nonzero;stroke:none" />
      <path
         id="path4247"
         d="m 8.7205196,2.2555185 c 0.1488443,0 0.270218,0.1213075 0.270218,0.2756992 0,0.1544574 -0.1213737,0.2757651 -0.270218,0.2757651 -0.1489113,0 -0.2702179,-0.1213077 -0.2702179,-0.2757651 0,-0.1543917 0.1213066,-0.2756992 0.2702179,-0.2756992 z"
         class="fil0 str0"
         inkscape:connector-curvature="0"
         style="fill:#2a2a29;fill-rule:nonzero;stroke:none" />
      <path
         id="path4249"
         d="m 4.512789,9.5238727 c 0.1489095,0 0.2702179,0.1213078 0.2702179,0.2756992 0,0.1544575 -0.1213084,0.2757651 -0.2702179,0.2757651 -0.1489114,0 -0.270218,-0.1213076 -0.270218,-0.2757651 0,-0.1543914 0.1213066,-0.2756992 0.270218,-0.2756992 z"
         class="fil0 str0"
         inkscape:connector-curvature="0"
         style="fill:#000000;fill-rule:nonzero;stroke:none" />
      <path
         id="path4251"
         d="m 0.31060464,9.8657397 c 0.14891136,0 0.27021796,0.1213737 0.27021796,0.2757653 0,0.154392 -0.1213066,0.275699 -0.27021796,0.275699 -0.14890948,0 -0.27021795,-0.121307 -0.27021795,-0.275699 0,-0.1543916 0.12130847,-0.2757653 0.27021795,-0.2757653 z"
         class="fil0 str0"
         inkscape:connector-curvature="0"
         style="fill:#000000;fill-rule:nonzero;stroke:none" />
      <path
         id="path4253"
         d="m 15.757219,12.501754 c 0.148912,0 0.27022,0.121374 0.27022,0.275765 0,0.154392 -0.121308,0.275765 -0.27022,0.275765 -0.148909,0 -0.270218,-0.121373 -0.270218,-0.275765 0,-0.154391 0.121309,-0.275765 0.270218,-0.275765 z"
         class="fil0 str0"
         inkscape:connector-curvature="0"
         style="fill:#000000;fill-rule:nonzero;stroke:none" />
      <path
         id="path4255"
         d="m 15.183699,6.8492277 c 0.148912,0 0.270218,0.1213077 0.270218,0.2757652 0,0.1543915 -0.121306,0.2756992 -0.270218,0.2756992 -0.148909,0 -0.270217,-0.1213077 -0.270217,-0.2756992 0,-0.1544575 0.121308,-0.2757652 0.270217,-0.2757652 z"
         class="fil0 str0"
         inkscape:connector-curvature="0"
         style="fill:#000000;fill-rule:nonzero;stroke:none" />
      <path
         id="path4257"
         d="m 10.986998,6.3418752 c 0.14891,0 0.270218,0.1213077 0.270218,0.2757652 0,0.1543915 -0.121308,0.2756992 -0.270218,0.2756992 -0.148844,0 -0.270218,-0.1213077 -0.270218,-0.2756992 0,-0.1544575 0.121374,-0.2757652 0.270218,-0.2757652 z"
         class="fil0 str0"
         inkscape:connector-curvature="0"
         style="fill:#000000;fill-rule:nonzero;stroke:none" />
      <path
         d="m 0.1010754,2.8897255 2.0183133,0 m -1.0036075,-1.014705 0,2.018316"
         style="fill:none;stroke:#000000;stroke-width:0.29955235;stroke-miterlimit:4;stroke-dasharray:none"
         id="line4261"
         inkscape:connector-curvature="0" />
      <path
         d="m 10.374908,1.0147071 2.018386,0 M 11.389613,2.1295381e-6 l 0,2.0183821704619"
         style="fill:none;stroke:#000000;stroke-width:0.29955235;stroke-miterlimit:4;stroke-dasharray:none"
         id="line4265"
         inkscape:connector-curvature="0" />
      <path
         d="m 5.5661231,6.9264232 2.0183115,0 m -1.003602,-1.0147046 0,2.0183822"
         style="fill:none;stroke:#000000;stroke-width:0.29955235;stroke-miterlimit:4;stroke-dasharray:none"
         id="line4269"
         inkscape:connector-curvature="0" />
      <path
         d="m 1.7444416,12.738888 2.0183785,0 m -1.0036746,-1.014706 0,2.018384"
         style="fill:none;stroke:#000000;stroke-width:0.29955235;stroke-miterlimit:4;stroke-dasharray:none"
         id="line4273"
         inkscape:connector-curvature="0" />
      <path
         d="m 11.124882,10.566115 2.018375,0 m -1.003669,-1.0147052 0,2.0183822"
         style="fill:none;stroke:#000000;stroke-width:0.29955235;stroke-miterlimit:4;stroke-dasharray:none"
         id="line4277"
         inkscape:connector-curvature="0" />
    </g>
  </g>
</svg>
