<?xml version="1.0" encoding="UTF-8" standalone="no"?>
<!-- Created with Inkscape (http://www.inkscape.org/) -->

<svg
   xmlns:dc="http://purl.org/dc/elements/1.1/"
   xmlns:cc="http://creativecommons.org/ns#"
   xmlns:rdf="http://www.w3.org/1999/02/22-rdf-syntax-ns#"
   xmlns:svg="http://www.w3.org/2000/svg"
   xmlns="http://www.w3.org/2000/svg"
   xmlns:sodipodi="http://sodipodi.sourceforge.net/DTD/sodipodi-0.dtd"
   xmlns:inkscape="http://www.inkscape.org/namespaces/inkscape"
   width="16"
   height="16"
   id="svg9432"
   version="1.1"
   inkscape:version="0.48.3.1 r9886"
   sodipodi:docname="GeoPat_sonstiges1.svg">
  <defs
     id="defs9434" />
  <sodipodi:namedview
     id="base"
     pagecolor="#ffffff"
     bordercolor="#666666"
     borderopacity="1.0"
     inkscape:pageopacity="0.0"
     inkscape:pageshadow="2"
     inkscape:zoom="32"
     inkscape:cx="8.6264925"
     inkscape:cy="7.4185097"
     inkscape:current-layer="layer1"
     showgrid="true"
     inkscape:grid-bbox="true"
     inkscape:document-units="px"
     inkscape:window-width="769"
     inkscape:window-height="894"
     inkscape:window-x="67"
     inkscape:window-y="35"
     inkscape:window-maximized="0"
     fit-margin-top="0"
     fit-margin-left="0"
     fit-margin-right="0"
     fit-margin-bottom="0" />
  <metadata
     id="metadata9437">
    <rdf:RDF>
      <cc:Work
         rdf:about="">
        <dc:format>image/svg+xml</dc:format>
        <dc:type
           rdf:resource="http://purl.org/dc/dcmitype/StillImage" />
        <dc:title />
      </cc:Work>
    </rdf:RDF>
  </metadata>
  <g
     id="layer1"
     inkscape:label="Layer 1"
     inkscape:groupmode="layer"
     transform="translate(1.3051137,26.54704)">
    <g
       id="g4407">
      <path
         id="path11088"
         d="m -1.0303459,-23.270006 c 0.14719469,0 0.26707253,0.119943 0.26707253,0.272573 0,0.152567 -0.11987784,0.272511 -0.26707253,0.272511 -0.1471299,0 -0.2670726,-0.119944 -0.2670726,-0.272511 0,-0.15263 0.1199427,-0.272573 0.2670726,-0.272573 z"
         style="fill:#000000;fill-rule:nonzero;stroke:none"
         inkscape:connector-curvature="0" />
      <path
         id="path11086"
         d="m 5.9956189,-25.150518 c 0.147193,0 0.2670726,0.119942 0.2670726,0.272574 0,0.15263 -0.1198796,0.27251 -0.2670726,0.27251 -0.1471298,0 -0.2670726,-0.11988 -0.2670726,-0.27251 0,-0.152632 0.1199428,-0.272574 0.2670726,-0.272574 z"
         style="fill:#000000;fill-rule:nonzero;stroke:none"
         inkscape:connector-curvature="0" />
      <path
         id="path11084"
         d="m 1.8203909,-19.367298 c 0.1471948,0 0.2670744,0.119948 0.2670744,0.272574 0,0.152571 -0.1198796,0.272519 -0.2670744,0.272519 -0.147193,0 -0.2670726,-0.119948 -0.2670726,-0.272519 0,-0.152626 0.1198796,-0.272574 0.2670726,-0.272574 z"
         style="fill:#000000;fill-rule:nonzero;stroke:none"
         inkscape:connector-curvature="0" />
      <path
         id="path11082"
         d="m 7.614494,-22.643171 c 0.1471948,0 0.2670745,0.119944 0.2670745,0.272576 0,0.152568 -0.1198797,0.27251 -0.2670745,0.27251 -0.1471929,0 -0.2670726,-0.119942 -0.2670726,-0.27251 0,-0.152632 0.1198797,-0.272576 0.2670726,-0.272576 z"
         style="fill:#000000;fill-rule:nonzero;stroke:none"
         inkscape:connector-curvature="0" />
      <path
         id="path11080"
         d="m 11.931477,-22.196215 c 0.14713,0 0.267073,0.119943 0.267073,0.272575 0,0.152566 -0.119943,0.27251 -0.267073,0.27251 -0.147193,0 -0.267136,-0.119944 -0.267136,-0.27251 0,-0.152632 0.119943,-0.272575 0.267136,-0.272575 z"
         style="fill:#000000;fill-rule:nonzero;stroke:none"
         inkscape:connector-curvature="0" />
      <path
         id="path11078"
         d="m 11.168322,-18.953021 c 0.147193,0 0.267135,0.119948 0.267135,0.2725 0,0.152645 -0.119942,0.272575 -0.267135,0.272575 -0.14713,0 -0.267073,-0.11993 -0.267073,-0.272575 0,-0.152552 0.119943,-0.2725 0.267073,-0.2725 z"
         style="fill:#000000;fill-rule:nonzero;stroke:none"
         inkscape:connector-curvature="0" />
      <path
         id="path11076"
         d="m 5.4124075,-16.167727 c 0.1471948,0 0.2670726,0.119948 0.2670726,0.272574 0,0.152625 -0.1198778,0.272519 -0.2670726,0.272519 -0.1471929,0 -0.2670726,-0.119894 -0.2670726,-0.272519 0,-0.152626 0.1198797,-0.272574 0.2670726,-0.272574 z"
         style="fill:#000000;fill-rule:nonzero;stroke:none"
         inkscape:connector-curvature="0" />
      <path
         id="path11074"
         d="m -0.801399,-18.239001 c 0.14719477,0 0.2670726,0.119948 0.2670726,0.272574 0,0.152571 -0.11987783,0.272519 -0.2670726,0.272519 -0.14719297,0 -0.2670726,-0.119948 -0.2670726,-0.272519 0,-0.152626 0.11987963,-0.272574 0.2670726,-0.272574 z"
         style="fill:#000000;fill-rule:nonzero;stroke:none"
         inkscape:connector-curvature="0" />
      <path
         id="path11072"
         d="m 0.97554651,-26.21881 c 0.14712979,0 0.26707259,0.119879 0.26707259,0.27251 0,0.152632 -0.1199428,0.272511 -0.26707259,0.272511 -0.14719477,0 -0.26707261,-0.119879 -0.26707261,-0.272511 0,-0.152631 0.11987784,-0.27251 0.26707261,-0.27251 z"
         style="fill:#000000;fill-rule:nonzero;stroke:none"
         inkscape:connector-curvature="0" />
      <path
         id="path11070"
         d="m -0.50163851,-12.27589 c 0.14719476,0 0.26713759,0.119876 0.26713759,0.272519 0,0.152626 -0.11994283,0.272574 -0.26713759,0.272574 -0.14712978,0 -0.26707261,-0.119948 -0.26707261,-0.272574 0,-0.152643 0.11994283,-0.272519 0.26707261,-0.272519 z"
         style="fill:#000000;fill-rule:nonzero;stroke:none"
         inkscape:connector-curvature="0" />
      <path
         id="path11068"
         d="m 13.255966,-11.343854 c 0.147195,0 0.267073,0.119948 0.267073,0.272574 0,0.152643 -0.119878,0.272519 -0.267073,0.272519 -0.147129,0 -0.267072,-0.119876 -0.267072,-0.272519 0,-0.152626 0.119943,-0.272574 0.267072,-0.272574 z"
         style="fill:#000000;fill-rule:nonzero;stroke:none"
         inkscape:connector-curvature="0" />
      <path
         id="path11066"
         d="m 13.56123,-16.282169 c 0.147129,0 0.267073,0.119876 0.267073,0.27252 0,0.152625 -0.119944,0.272573 -0.267073,0.272573 -0.147195,0 -0.267073,-0.119948 -0.267073,-0.272573 0,-0.152644 0.119878,-0.27252 0.267073,-0.27252 z"
         style="fill:#000000;fill-rule:nonzero;stroke:none"
         inkscape:connector-curvature="0" />
      <path
         id="path11064"
         d="m 8.0778258,-11.087655 c 0.1471298,0 0.2670726,0.119948 0.2670726,0.272573 0,0.152571 -0.1199428,0.27252 -0.2670726,0.27252 -0.147193,0 -0.2671359,-0.119949 -0.2671359,-0.27252 0,-0.152625 0.1199429,-0.272573 0.2671359,-0.272573 z"
         style="fill:#000000;fill-rule:nonzero;stroke:none"
         inkscape:connector-curvature="0" />
      <path
         id="path11062"
         d="m 4.2731754,-12.363071 c 0.147193,0 0.2671358,0.119876 0.2671358,0.272501 0,0.152643 -0.1199428,0.27252 -0.2671358,0.27252 -0.1471297,0 -0.2670726,-0.119877 -0.2670726,-0.27252 0,-0.152625 0.1199429,-0.272501 0.2670726,-0.272501 z"
         style="fill:#000000;fill-rule:nonzero;stroke:none"
         inkscape:connector-curvature="0" />
      <path
         id="path11060"
         d="m 6.4098845,-19.705241 c 0.1471947,0 0.2670726,0.119942 0.2670726,0.272571 0,0.152571 -0.1198779,0.27252 -0.2670726,0.27252 -0.147193,0 -0.2670726,-0.119949 -0.2670726,-0.27252 0,-0.152629 0.1198796,-0.272571 0.2670726,-0.272571 z"
         style="fill:#000000;fill-rule:nonzero;stroke:none"
         inkscape:connector-curvature="0" />
      <path
         id="_225890680"
         d="m 9.1461162,-14.330843 c 0.1471947,0 0.2671376,0.119948 0.2671376,0.272573 0,0.152626 -0.1199429,0.27252 -0.2671376,0.27252 -0.1471298,0 -0.2670726,-0.119894 -0.2670726,-0.27252 0,-0.152625 0.1199428,-0.272573 0.2670726,-0.272573 z"
         style="fill:#000000;fill-rule:nonzero;stroke:none"
         inkscape:connector-curvature="0" />
      <path
         d="m 1.3516233,-22.430598 4.5513678,0 m -2.3874069,-1.597064 -1.1228575,1.597064 m 2.0276417,0.0054 -1.1282934,1.597063"
         style="fill:none;stroke:#000000;stroke-width:0.29999998;stroke-miterlimit:4;stroke-dasharray:none"
         id="path11048"
         inkscape:connector-curvature="0" />
      <path
         d="m 10.143593,-24.927009 4.551368,0 m -2.387407,-1.597063 -1.122856,1.597063 m 2.027642,0.0054 -1.128296,1.597062"
         style="fill:none;stroke:#000000;stroke-width:0.29999998;stroke-miterlimit:4;stroke-dasharray:none"
         id="path11042"
         inkscape:connector-curvature="0" />
      <path
         d="m 7.7943767,-16.78906 4.5513023,0 m -2.3874045,-1.59706 -1.1227943,1.59706 m 2.0276438,0.0054 -1.1282955,1.597059"
         style="fill:none;stroke:#000000;stroke-width:0.29999998;stroke-miterlimit:4;stroke-dasharray:none"
         id="path11036"
         inkscape:connector-curvature="0" />
      <path
         d="m -0.73052049,-14.358087 4.55130289,0 m -2.387407,-1.597077 -1.12285561,1.597077 m 2.02770481,0.0055 -1.1282933,1.597077"
         style="fill:none;stroke:#000000;stroke-width:0.29999998;stroke-miterlimit:4;stroke-dasharray:none"
         id="_225890632"
         inkscape:connector-curvature="0" />
    </g>
  </g>
</svg>
