<?xml version="1.0" encoding="UTF-8" standalone="no"?>
<!-- Created with Inkscape (http://www.inkscape.org/) -->

<svg
   xmlns:dc="http://purl.org/dc/elements/1.1/"
   xmlns:cc="http://creativecommons.org/ns#"
   xmlns:rdf="http://www.w3.org/1999/02/22-rdf-syntax-ns#"
   xmlns:svg="http://www.w3.org/2000/svg"
   xmlns="http://www.w3.org/2000/svg"
   xmlns:sodipodi="http://sodipodi.sourceforge.net/DTD/sodipodi-0.dtd"
   xmlns:inkscape="http://www.inkscape.org/namespaces/inkscape"
   width="16.283379"
   height="15.79599"
   id="svg7187"
   version="1.1"
   inkscape:version="0.48.2 r9819"
   sodipodi:docname="GeoPat_Komatiit.svg">
  <defs
     id="defs7189" />
  <sodipodi:namedview
     id="base"
     pagecolor="#ffffff"
     bordercolor="#666666"
     borderopacity="1.0"
     inkscape:pageopacity="0.0"
     inkscape:pageshadow="2"
     inkscape:zoom="32"
     inkscape:cx="7.2945543"
     inkscape:cy="8.5953223"
     inkscape:current-layer="layer1"
     showgrid="true"
     inkscape:grid-bbox="true"
     inkscape:document-units="px"
     fit-margin-top="0"
     fit-margin-left="0"
     fit-margin-right="0"
     fit-margin-bottom="0"
     inkscape:window-width="1920"
     inkscape:window-height="1000"
     inkscape:window-x="0"
     inkscape:window-y="25"
     inkscape:window-maximized="1" />
  <metadata
     id="metadata7192">
    <rdf:RDF>
      <cc:Work
         rdf:about="">
        <dc:format>image/svg+xml</dc:format>
        <dc:type
           rdf:resource="http://purl.org/dc/dcmitype/StillImage" />
        <dc:title></dc:title>
      </cc:Work>
    </rdf:RDF>
  </metadata>
  <g
     id="layer1"
     inkscape:label="Layer 1"
     inkscape:groupmode="layer"
     transform="translate(0.47317298,3.4426693)">
    <g
       id="g9279"
       transform="matrix(0.88065218,0,0,0.88065218,-0.24795878,1.6362687)">
      <g
         style="fill:none;stroke:#000000;stroke-width:0.4671711;stroke-miterlimit:4;stroke-dasharray:none"
         transform="matrix(0.72919026,0,0,0.72919026,-0.62697814,-5.9952765)"
         id="g5143">
        <path
           id="path5145"
           d="M 21.841,3.6011 20.9192,4.0859 20.8738,3.9997 21.7956,3.5149 21.8614,3.5353 21.841,3.6011 z M 21.7956,3.5149 21.8388,3.4922 21.8614,3.5353 21.7956,3.5149 z m 1.8709,3.6656 -1.8913,-3.5998 0.0862,-0.0454 1.8913,3.5998 -0.0204,0.0658 -0.0658,-0.0204 z m 0.0862,-0.0454 0.0227,0.0431 -0.0431,0.0227 0.0204,-0.0658 z m -0.9876,0.4644 0.9218,-0.4848 0.0454,0.0862 -0.9218,0.4848 -0.0658,-0.0204 0.0204,-0.0658 z m 0.0454,0.0862 -0.0432,0.0227 -0.0226,-0.0431 0.0658,0.0204 z M 20.9396,4.0201 22.8309,7.6199 22.7447,7.6653 20.8534,4.0655 20.8738,3.9997 20.9396,4.0201 z M 20.8534,4.0655 20.8307,4.0224 20.8738,3.9997 20.8534,4.0655 z"
           class="fil0"
           inkscape:connector-curvature="0"
           style="fill:none;stroke:#000000;stroke-width:0.4671711;stroke-miterlimit:4;stroke-dasharray:none" />
      </g>
      <g
         style="fill:none;stroke:#000000;stroke-width:0.4671711;stroke-miterlimit:4;stroke-dasharray:none"
         transform="matrix(0.72919026,0,0,0.72919026,-0.62697814,-5.9952765)"
         id="g5147">
        <path
           id="path5149"
           d="M 3.0087,18.5965 3.6126,19.4468 3.5332,19.5032 2.9293,18.6529 2.941,18.5848 3.0087,18.5965 z M 2.9293,18.6529 2.9009,18.613 2.941,18.5848 2.9293,18.6529 z M 6.3187,16.3284 2.997,18.6646 2.941,18.5848 6.2627,16.2486 6.3304,16.2603 6.3187,16.3284 z M 6.2627,16.2486 6.3023,16.2207 6.3304,16.2603 6.2627,16.2486 z M 6.8549,17.1669 6.251,16.3167 6.3304,16.2603 6.9343,17.1105 6.9226,17.1786 6.8549,17.1669 z m 0.0794,-0.0564 0.0284,0.0399 -0.0401,0.0282 0.0117,-0.0681 z m -3.3894,2.3246 3.3217,-2.3363 0.056,0.0798 -3.3217,2.3363 -0.0677,-0.0117 0.0117,-0.0681 z m 0.056,0.0798 -0.0396,0.0279 -0.0281,-0.0396 0.0677,0.0117 z"
           class="fil0"
           inkscape:connector-curvature="0"
           style="fill:none;stroke:#000000;stroke-width:0.4671711;stroke-miterlimit:4;stroke-dasharray:none" />
      </g>
      <g
         style="fill:none;stroke:#000000;stroke-width:0.4671711;stroke-miterlimit:4;stroke-dasharray:none"
         transform="matrix(0.72919026,0,0,0.72919026,-0.62697814,-5.9952765)"
         id="g5151">
        <path
           id="path5153"
           d="M 17.145,0.4007 16.8589,1.402 16.7651,1.3752 17.0512,0.3739 17.1114,0.3404 17.145,0.4007 z m -0.0938,-0.0268 0.0134,-0.0468 0.0468,0.0133 -0.0602,0.0335 z m 3.9433,1.1729 -3.9097,-1.1126 0.0266,-0.0938 3.9097,1.1126 0.0336,0.0603 -0.0602,0.0335 z M 21.0211,1.453 21.0681,1.4664 21.0547,1.5133 21.0211,1.453 z M 20.6748,2.4877 20.9609,1.4865 21.0547,1.5133 20.7686,2.5145 20.7084,2.548 20.6748,2.4877 z M 20.7686,2.5145 20.7552,2.5613 20.7084,2.548 20.7686,2.5145 z M 16.8253,1.3417 20.735,2.4542 20.7084,2.548 16.7987,1.4355 16.7651,1.3752 16.8253,1.3417 z m -0.0266,0.0938 -0.047,-0.0134 0.0134,-0.0469 0.0336,0.0603 z"
           class="fil0"
           inkscape:connector-curvature="0"
           style="fill:none;stroke:#000000;stroke-width:0.4671711;stroke-miterlimit:4;stroke-dasharray:none" />
      </g>
      <g
         style="fill:none;stroke:#000000;stroke-width:0.4671711;stroke-miterlimit:4;stroke-dasharray:none"
         transform="matrix(0.72919026,0,0,0.72919026,-0.62697814,-5.9952765)"
         id="g5155">
        <path
           id="path5157"
           d="m 4.1491,12.2731 -0.4609,0.9377 -0.0874,-0.043 0.4609,-0.9377 0.065,-0.0223 0.0224,0.0653 z m -0.0874,-0.043 0.0214,-0.0435 0.0436,0.0212 -0.065,0.0223 z m 3.6778,1.8374 -3.6554,-1.7721 0.0426,-0.0876 3.6554,1.7721 0.0224,0.0653 -0.065,0.0223 z m 0.0426,-0.0876 0.044,0.0213 -0.0216,0.044 -0.0224,-0.0653 z m -0.5259,0.96 0.4609,-0.9377 0.0874,0.043 -0.4609,0.9377 -0.065,0.0223 -0.0224,-0.0653 z m 0.0874,0.043 -0.0214,0.0435 -0.0436,-0.0212 0.065,-0.0223 z M 3.6658,13.1455 7.3212,14.9176 7.2786,15.0052 3.6232,13.2331 3.6008,13.1678 3.6658,13.1455 z m -0.0426,0.0876 -0.044,-0.0213 0.0216,-0.044 0.0224,0.0653 z"
           class="fil0"
           inkscape:connector-curvature="0"
           style="fill:none;stroke:#000000;stroke-width:0.4671711;stroke-miterlimit:4;stroke-dasharray:none" />
      </g>
      <g
         style="fill:none;stroke:#000000;stroke-width:0.4671711;stroke-miterlimit:4;stroke-dasharray:none"
         transform="matrix(0.72919026,0,0,0.72919026,-0.62697814,-5.9952765)"
         id="g5159">
        <path
           id="path5161"
           d="M 16.1861,9.7063 15.2166,10.0877 15.181,9.9971 16.1505,9.6157 16.2136,9.6432 16.1861,9.7063 z M 16.1505,9.6157 16.1958,9.5979 16.2136,9.6432 16.1505,9.6157 z m 1.4585,3.8377 -1.486,-3.7746 0.0906,-0.0356 1.486,3.7746 -0.0275,0.0631 -0.0631,-0.0275 z m 0.0906,-0.0356 0.0178,0.0453 -0.0453,0.0178 0.0275,-0.0631 z m -1.0326,0.354 0.9695,-0.3815 0.0356,0.0906 -0.9695,0.3815 -0.0631,-0.0275 0.0275,-0.0631 z m 0.0356,0.0906 -0.0453,0.0178 -0.0178,-0.0453 0.0631,0.0275 z m -1.4585,-3.8378 1.486,3.7747 -0.0906,0.0356 -1.486,-3.7747 0.0275,-0.0631 0.0631,0.0275 z m -0.0906,0.0356 -0.0178,-0.0453 0.0453,-0.0178 -0.0275,0.0631 z"
           class="fil0"
           inkscape:connector-curvature="0"
           style="fill:none;stroke:#000000;stroke-width:0.4671711;stroke-miterlimit:4;stroke-dasharray:none" />
      </g>
      <g
         style="fill:none;stroke:#000000;stroke-width:0.4671711;stroke-miterlimit:4;stroke-dasharray:none"
         transform="matrix(0.72919026,0,0,0.72919026,-0.62697814,-5.9952765)"
         id="g5163">
        <path
           id="path5165"
           d="m 14.0476,14.3444 -0.5721,0.8741 -0.0816,-0.0534 0.5721,-0.8741 0.0673,-0.0142 0.0143,0.0676 z m -0.0816,-0.0534 0.0266,-0.0406 0.0407,0.0264 -0.0673,0.0142 z m 3.4234,2.2767 -3.4091,-2.2091 0.053,-0.0818 3.4091,2.2091 0.0143,0.0676 -0.0673,0.0142 z m 0.053,-0.0818 0.0411,0.0266 -0.0268,0.041 -0.0143,-0.0676 z m -0.6394,0.8884 0.5721,-0.8742 0.0816,0.0534 -0.5721,0.8742 -0.0673,0.0142 -0.0143,-0.0676 z m 0.0816,0.0534 -0.0266,0.0406 -0.0407,-0.0264 0.0673,-0.0142 z m -3.4234,-2.2768 3.4091,2.2092 -0.053,0.0818 -3.4091,-2.2092 -0.0143,-0.0676 0.0673,-0.0142 z m -0.053,0.0818 -0.0411,-0.0266 0.0268,-0.041 0.0143,0.0676 z"
           class="fil0"
           inkscape:connector-curvature="0"
           style="fill:none;stroke:#000000;stroke-width:0.4671711;stroke-miterlimit:4;stroke-dasharray:none" />
      </g>
      <g
         style="fill:none;stroke:#000000;stroke-width:0.4671711;stroke-miterlimit:4;stroke-dasharray:none"
         transform="matrix(0.72919026,0,0,0.72919026,-0.62697814,-5.9952765)"
         id="g5167">
        <path
           id="path5169"
           d="m 15.8622,3.0621 -0.9536,-0.4292 0.04,-0.0888 0.9536,0.4292 0.0243,0.0646 -0.0643,0.0242 z m 0.04,-0.0888 0.0446,0.0201 -0.0203,0.0445 -0.0243,-0.0646 z M 14.1532,6.6926 15.8379,2.9975 15.9265,3.0379 14.2418,6.733 14.1775,6.7572 14.1532,6.6926 z M 14.2418,6.733 14.2217,6.7771 14.1775,6.7572 14.2418,6.733 z M 13.264,6.2393 14.2175,6.6684 14.1775,6.7572 13.224,6.3281 13.1997,6.2635 13.264,6.2393 z M 13.224,6.3281 13.1794,6.308 13.1997,6.2635 13.224,6.3281 z m 1.7489,-3.7194 -1.6846,3.6952 -0.0886,-0.0404 1.6846,-3.6952 0.0643,-0.0242 0.0243,0.0646 z m -0.0886,-0.0404 0.0201,-0.0441 0.0442,0.0199 -0.0643,0.0242 z"
           class="fil0"
           inkscape:connector-curvature="0"
           style="fill:none;stroke:#000000;stroke-width:0.4671711;stroke-miterlimit:4;stroke-dasharray:none" />
      </g>
      <g
         style="fill:none;stroke:#000000;stroke-width:0.4671711;stroke-miterlimit:4;stroke-dasharray:none"
         transform="matrix(0.72919026,0,0,0.72919026,-0.62697814,-5.9952765)"
         id="g5171">
        <path
           id="path5173"
           d="M 1.8094,2.5552 1.6743,3.5803 1.5777,3.5675 1.7128,2.5424 1.7675,2.5005 1.8094,2.5552 z M 1.7128,2.5424 1.7192,2.4941 1.7675,2.5005 1.7128,2.5424 z M 5.7836,3.1295 1.7547,2.5971 1.7675,2.5005 5.7964,3.0329 5.8383,3.0876 5.7836,3.1295 z M 5.7964,3.0329 5.8447,3.0393 5.8383,3.0876 5.7964,3.0329 z M 5.6067,4.0999 5.7417,3.0748 5.8383,3.0876 5.7033,4.1127 5.6486,4.1546 5.6067,4.0999 z M 5.7033,4.1127 5.6969,4.161 5.6486,4.1546 5.7033,4.1127 z M 1.6324,3.5256 5.6614,4.058 5.6486,4.1546 1.6196,3.6222 1.5777,3.5675 1.6324,3.5256 z M 1.6196,3.6222 1.5713,3.6158 1.5777,3.5675 1.6196,3.6222 z"
           class="fil0"
           inkscape:connector-curvature="0"
           style="fill:none;stroke:#000000;stroke-width:0.4671711;stroke-miterlimit:4;stroke-dasharray:none" />
      </g>
      <g
         style="fill:none;stroke:#000000;stroke-width:0.4671711;stroke-miterlimit:4;stroke-dasharray:none"
         transform="matrix(0.72919026,0,0,0.72919026,-0.62697814,-5.9952765)"
         id="g5175">
        <path
           sodipodi:nodetypes="ccccccccccccccccccccccccccccccccccccccc"
           id="path5177"
           d="m 22.1777,11.5779 -0.5483,0.89 -0.083,-0.0512 0.5483,-0.89 0.0671,-0.0158 z m -0.083,-0.0512 0.0256,-0.0415 0.0415,0.0257 z m 3.4727,2.2046 -3.4568,-2.1376 0.0512,-0.0828 3.4568,2.1376 0.0159,0.067 z m 0.0512,-0.0828 0.0414,0.0256 -0.0255,0.0414 z m -0.6154,0.9058 0.5483,-0.89 0.083,0.0512 -0.5483,0.89 -0.0671,0.0158 z m 0.083,0.0512 -0.0256,0.0415 -0.0415,-0.0257 z m -3.4727,-2.2046 3.4568,2.1376 c -1.034292,-0.373019 -2.430989,-1.388803 -3.508,-2.0548 l -0.0159,-0.067 z m -0.0512,0.0828 -0.0414,-0.0256 0.0255,-0.0414 z"
           class="fil0"
           inkscape:connector-curvature="0"
           style="fill:none;stroke:#000000;stroke-width:0.4671711;stroke-miterlimit:4;stroke-dasharray:none" />
      </g>
      <g
         style="fill:none;stroke:#000000;stroke-width:0.4671711;stroke-miterlimit:4;stroke-dasharray:none"
         transform="matrix(0.72919026,0,0,0.72919026,-0.62697814,-5.9952765)"
         id="g5179">
        <path
           id="path5181"
           d="m 16.7706,20.1841 -0.5483,-0.882 0.0828,-0.0514 0.5483,0.882 -0.0157,0.0671 -0.0671,-0.0157 z m 0.0828,-0.0514 0.0257,0.0413 -0.0414,0.0258 0.0157,-0.0671 z m -3.5159,2.1299 3.4488,-2.1456 0.0514,0.0828 -3.4488,2.1456 -0.0671,-0.0157 0.0157,-0.0671 z m 0.0514,0.0828 -0.0413,0.0257 -0.0258,-0.0414 0.0671,0.0157 z m -0.5327,-0.9492 0.5484,0.8821 -0.0828,0.0514 -0.5484,-0.8821 0.0157,-0.0671 0.0671,0.0157 z m -0.0828,0.0514 -0.0257,-0.0413 0.0414,-0.0258 -0.0157,0.0671 z m 3.516,-2.1298 -3.4489,2.1455 -0.0514,-0.0828 3.4489,-2.1455 0.0671,0.0157 -0.0157,0.0671 z M 16.238,19.235 16.2793,19.2093 16.3051,19.2507 16.238,19.235 z"
           class="fil0"
           inkscape:connector-curvature="0"
           style="fill:none;stroke:#000000;stroke-width:0.4671711;stroke-miterlimit:4;stroke-dasharray:none" />
      </g>
      <g
         style="fill:none;stroke:#000000;stroke-width:0.4671711;stroke-miterlimit:4;stroke-dasharray:none"
         transform="matrix(0.72919026,0,0,0.72919026,-0.62697814,-5.9952765)"
         id="g5183">
        <path
           id="path5185"
           d="m 22.71,15.1766 -1.0331,-0.1351 0.0126,-0.0966 1.0331,0.1351 0.042,0.0548 -0.0546,0.0418 z m 0.0126,-0.0966 0.0485,0.0063 -0.0065,0.0485 -0.042,-0.0548 z m -0.595,4.0627 0.5404,-4.0209 0.0966,0.013 -0.5404,4.0209 -0.0546,0.0418 -0.042,-0.0548 z m 0.0966,0.013 -0.0065,0.0481 -0.0481,-0.0063 0.0546,-0.0418 z m -1.075,-0.1899 1.033,0.1351 -0.0126,0.0966 -1.033,-0.1351 -0.042,-0.0548 0.0546,-0.0418 z m -0.0126,0.0966 -0.0485,-0.0063 0.0065,-0.0485 0.042,0.0548 z m 0.5949,-4.0627 -0.5403,4.0209 -0.0966,-0.013 0.5403,-4.0209 0.0546,-0.0418 0.042,0.0548 z m -0.0966,-0.013 0.0065,-0.0481 0.0481,0.0063 -0.0546,0.0418 z"
           class="fil0"
           inkscape:connector-curvature="0"
           style="fill:none;stroke:#000000;stroke-width:0.4671711;stroke-miterlimit:4;stroke-dasharray:none" />
      </g>
      <g
         style="fill:none;stroke:#000000;stroke-width:0.4671711;stroke-miterlimit:4;stroke-dasharray:none"
         transform="matrix(0.72919026,0,0,0.72919026,-0.62697814,-5.9952765)"
         id="g5187">
        <path
           id="path5189"
           d="m 7.3563,20.4239 -0.5801,0.8662 -0.081,-0.0542 0.5801,-0.8662 0.0675,-0.0135 0.0135,0.0677 z m -0.081,-0.0542 0.0271,-0.0404 0.0404,0.0269 -0.0675,0.0135 z m 3.3908,2.3166 -3.3773,-2.2489 0.054,-0.0812 3.3773,2.2489 0.0135,0.0677 -0.0675,0.0135 z m 0.054,-0.0812 0.0407,0.0271 -0.0272,0.0406 -0.0135,-0.0677 z m -0.6476,0.8797 0.5801,-0.8662 0.081,0.0542 -0.5801,0.8662 -0.0675,0.0135 -0.0135,-0.0677 z m 0.081,0.0542 -0.0271,0.0404 -0.0404,-0.0269 0.0675,-0.0135 z M 6.7627,21.2224 10.14,23.4713 10.086,23.5525 6.7087,21.3036 6.6952,21.2359 6.7627,21.2224 z m -0.054,0.0812 -0.0407,-0.0271 0.0272,-0.0406 0.0135,0.0677 z"
           class="fil0"
           inkscape:connector-curvature="0"
           style="fill:none;stroke:#000000;stroke-width:0.4671711;stroke-miterlimit:4;stroke-dasharray:none" />
      </g>
      <g
         style="fill:none;stroke:#000000;stroke-width:0.4671711;stroke-miterlimit:4;stroke-dasharray:none"
         transform="matrix(0.72919026,0,0,0.72919026,-0.62697814,-5.9952765)"
         id="g5191">
        <path
           id="path5193"
           d="m 1.3587,21.2735 -0.7311,0.739 -0.0692,-0.0686 0.7311,-0.739 0.0691,-2e-4 10e-5,0.0688 z m -0.0692,-0.0686 0.0345,-0.0348 0.0346,0.0346 -0.0691,2e-4 z m 2.8688,2.9375 -2.8687,-2.8687 0.069,-0.069 2.8687,2.8687 1e-4,0.0688 -0.0691,2e-4 z m 0.069,-0.069 0.0343,0.0343 -0.0342,0.0345 -1e-4,-0.0688 z m -0.8002,0.7392 0.7311,-0.739 0.0692,0.0686 -0.7311,0.739 -0.0691,2e-4 -1e-4,-0.0688 z m 0.0692,0.0686 -0.0345,0.0348 -0.0346,-0.0346 0.0691,-2e-4 z m -2.8688,-2.9375 2.8687,2.8687 -0.069,0.069 -2.8687,-2.8687 -10e-5,-0.0688 0.0691,-2e-4 z m -0.069,0.069 -0.0343,-0.0343 0.0342,-0.0345 10e-5,0.0688 z"
           class="fil0"
           inkscape:connector-curvature="0"
           style="fill:none;stroke:#000000;stroke-width:0.4671711;stroke-miterlimit:4;stroke-dasharray:none" />
      </g>
      <g
         style="fill:none;stroke:#000000;stroke-width:0.4671711;stroke-miterlimit:4;stroke-dasharray:none"
         transform="matrix(0.72919026,0,0,0.72919026,-0.62697814,-5.9952765)"
         id="g5195">
        <path
           id="path5197"
           d="m 22.5249,22.0955 -0.1272,-1.0331 0.0968,-0.012 0.1272,1.0331 -0.0425,0.0544 -0.0543,-0.0424 z m 0.0968,-0.012 0.006,0.0485 -0.0485,0.0059 0.0425,-0.0544 z m -4.0833,0.4502 4.029,-0.4926 0.0118,0.0968 -4.029,0.4926 -0.0543,-0.0424 0.0425,-0.0544 z m 0.0118,0.0968 -0.0484,0.0059 -0.0059,-0.0483 0.0543,0.0424 z m -0.0846,-1.0874 0.1271,1.033 -0.0968,0.012 -0.1271,-1.033 0.0425,-0.0544 0.0543,0.0424 z m -0.0968,0.012 -0.006,-0.0485 0.0485,-0.0059 -0.0425,0.0544 z m 4.0832,-0.4503 -4.0289,0.4927 -0.0118,-0.0968 4.0289,-0.4927 0.0543,0.0424 -0.0425,0.0544 z m -0.0118,-0.0968 0.0484,-0.0059 0.0059,0.0483 -0.0543,-0.0424 z"
           class="fil0"
           inkscape:connector-curvature="0"
           style="fill:none;stroke:#000000;stroke-width:0.4671711;stroke-miterlimit:4;stroke-dasharray:none" />
      </g>
      <g
         style="fill:none;stroke:#000000;stroke-width:0.4671711;stroke-miterlimit:4;stroke-dasharray:none"
         transform="matrix(0.72919026,0,0,0.72919026,-0.62697814,-5.9952765)"
         id="g5199">
        <path
           id="path5201"
           d="M 7.3266,6.2518 6.818,7.1656 6.7328,7.1182 7.2414,6.2044 7.3076,6.1855 7.3266,6.2518 z M 7.2414,6.2044 7.265,6.162 7.3076,6.1855 7.2414,6.2044 z m 3.5711,2.0291 -3.5521,-1.9628 0.0472,-0.0852 3.5521,1.9628 0.019,0.0663 -0.0662,0.0189 z m 0.0472,-0.0852 0.0427,0.0236 -0.0237,0.0427 -0.019,-0.0663 z M 10.285,9.081 10.7935,8.1672 10.8787,8.2146 10.3702,9.1284 10.304,9.1473 10.285,9.081 z M 10.3702,9.1284 10.3466,9.1708 10.304,9.1473 10.3702,9.1284 z M 6.799,7.0993 10.3512,9.0621 10.304,9.1473 6.7518,7.1845 6.7328,7.1182 6.799,7.0993 z M 6.7518,7.1845 6.709,7.1609 6.7328,7.1182 6.7518,7.1845 z"
           class="fil0"
           inkscape:connector-curvature="0"
           style="fill:none;stroke:#000000;stroke-width:0.4671711;stroke-miterlimit:4;stroke-dasharray:none" />
      </g>
      <g
         style="fill:none;stroke:#000000;stroke-width:0.4671711;stroke-miterlimit:4;stroke-dasharray:none"
         transform="matrix(0.72919026,0,0,0.72919026,-0.62697814,-5.9952765)"
         id="g5203">
        <path
           id="path5205"
           d="m 12.4294,10.8269 -0.4609,-0.9297 0.0874,-0.0432 0.4609,0.9297 -0.0222,0.0653 -0.0652,-0.0221 z m 0.0874,-0.0432 0.0217,0.0437 -0.0439,0.0216 0.0222,-0.0653 z M 8.82,12.5496 12.4516,10.7616 12.4946,10.849 8.863,12.637 8.7978,12.6149 8.82,12.5496 z M 8.863,12.637 8.8194,12.6585 8.7978,12.6149 8.863,12.637 z M 8.4243,11.6419 8.8852,12.5717 8.7978,12.6149 8.3369,11.6851 8.3591,11.6198 8.4243,11.6419 z M 8.3369,11.6851 8.3152,11.6414 8.3591,11.6198 8.3369,11.6851 z M 12.0337,9.9193 8.4021,11.7072 8.3591,11.6198 11.9907,9.8319 12.0559,9.854 12.0337,9.9193 z M 11.9907,9.8319 12.0343,9.8104 12.0559,9.854 11.9907,9.8319 z"
           class="fil0"
           inkscape:connector-curvature="0"
           style="fill:none;stroke:#000000;stroke-width:0.4671711;stroke-miterlimit:4;stroke-dasharray:none" />
      </g>
      <g
         style="fill:none;stroke:#000000;stroke-width:0.4671711;stroke-miterlimit:4;stroke-dasharray:none"
         transform="matrix(0.72919026,0,0,0.72919026,-0.62697814,-5.9952765)"
         id="g5207">
        <path
           id="path5209"
           d="m 20.9945,6.5898 -0.9377,-0.4529 0.0424,-0.0878 0.9377,0.4529 0.0226,0.0652 -0.065,0.0226 z M 21.0369,6.502 21.0809,6.5233 21.0595,6.5672 21.0369,6.502 z m -1.845,3.6781 1.78,-3.6555 0.0876,0.0426 -1.78,3.6555 -0.065,0.0226 -0.0226,-0.0652 z m 0.0876,0.0426 -0.0213,0.0437 -0.0437,-0.0211 0.065,-0.0226 z m -0.9603,-0.5182 0.9377,0.453 -0.0424,0.0878 -0.9377,-0.453 -0.0226,-0.0652 0.065,-0.0226 z m -0.0424,0.0878 -0.044,-0.0213 0.0214,-0.0439 0.0226,0.0652 z m 1.845,-3.678 -1.78,3.6554 -0.0876,-0.0426 1.78,-3.6554 0.065,-0.0226 0.0226,0.0652 z m -0.0876,-0.0426 0.0213,-0.0437 0.0437,0.0211 -0.065,0.0226 z"
           class="fil0"
           inkscape:connector-curvature="0"
           style="fill:none;stroke:#000000;stroke-width:0.4671711;stroke-miterlimit:4;stroke-dasharray:none" />
      </g>
      <g
         style="fill:none;stroke:#000000;stroke-width:0.4671711;stroke-miterlimit:4;stroke-dasharray:none"
         transform="matrix(0.72919026,0,0,0.72919026,-0.62697814,-5.9952765)"
         id="g5211">
        <path
           id="path5213"
           d="m 11.2243,14.3024 -1.0331,0.1431 -0.0134,-0.0966 1.0331,-0.1431 0.055,0.0416 -0.0416,0.055 z m -0.0134,-0.0966 0.0483,-0.0067 0.0067,0.0483 -0.055,-0.0416 z m 0.5146,4.076 -0.5562,-4.021 0.0966,-0.0134 0.5562,4.021 -0.0416,0.055 -0.055,-0.0416 z m 0.0966,-0.0134 0.0067,0.0483 -0.0483,0.0067 0.0416,-0.055 z m -1.088,0.1014 1.033,-0.143 0.0134,0.0966 -1.033,0.143 -0.055,-0.0416 0.0416,-0.055 z m 0.0134,0.0966 -0.0483,0.0067 -0.0067,-0.0483 0.055,0.0416 z m -0.5147,-4.0759 0.5563,4.0209 -0.0966,0.0134 -0.5563,-4.0209 0.0416,-0.055 0.055,0.0416 z m -0.0966,0.0134 -0.0067,-0.0483 0.0483,-0.0067 -0.0416,0.055 z"
           class="fil0"
           inkscape:connector-curvature="0"
           style="fill:none;stroke:#000000;stroke-width:0.4671711;stroke-miterlimit:4;stroke-dasharray:none" />
      </g>
      <g
         style="fill:none;stroke:#000000;stroke-width:0.4671711;stroke-miterlimit:4;stroke-dasharray:none"
         transform="matrix(0.72919026,0,0,0.72919026,-0.62697814,-5.9952765)"
         id="g5215">
        <path
           id="path5217"
           d="M 11.8808,2.0888 11.1815,1.318 11.2537,1.2526 11.953,2.0234 11.9493,2.0925 11.8808,2.0888 z M 11.953,2.0234 11.986,2.0598 11.9493,2.0925 11.953,2.0234 z M 8.8489,4.7216 11.8845,2.0197 11.9493,2.0925 8.9137,4.7944 8.8452,4.7907 8.8489,4.7216 z M 8.9137,4.7944 8.8777,4.8265 8.8452,4.7907 8.9137,4.7944 z M 8.2181,3.9544 8.9174,4.7253 8.8452,4.7907 8.1459,4.0198 8.1496,3.9507 8.2181,3.9544 z M 8.1459,4.0198 8.1129,3.9834 8.1496,3.9507 8.1459,4.0198 z M 11.25,1.3217 8.2144,4.0235 8.1496,3.9507 11.1852,1.2489 11.2537,1.2526 11.25,1.3217 z m -0.0648,-0.0728 0.036,-0.0321 0.0325,0.0358 -0.0685,-0.0037 z"
           class="fil0"
           inkscape:connector-curvature="0"
           style="fill:none;stroke:#000000;stroke-width:0.4671711;stroke-miterlimit:4;stroke-dasharray:none" />
      </g>
      <g
         style="fill:none;stroke:#000000;stroke-width:0.4671711;stroke-miterlimit:4;stroke-dasharray:none"
         transform="matrix(0.72919026,0,0,0.72919026,-0.62697814,-5.9952765)"
         id="g5219">
        <path
           id="path5221"
           d="M 3.4243,6.499 2.3913,6.3798 2.4025,6.283 3.4355,6.4022 3.4783,6.4563 3.4243,6.499 z M 3.4355,6.4022 3.484,6.4078 3.4783,6.4563 3.4355,6.4022 z M 2.9047,10.4738 3.3815,6.4449 3.4783,6.4563 3.0015,10.4852 2.9475,10.5279 2.9047,10.4738 z m 0.0968,0.0114 -0.0057,0.0483 -0.0483,-0.0056 0.054,-0.0427 z m -1.0758,-0.1733 1.033,0.1192 -0.0112,0.0968 -1.033,-0.1192 -0.0428,-0.0541 0.054,-0.0427 z M 1.9145,10.4087 1.866,10.4031 1.8717,10.3546 1.9145,10.4087 z M 2.4453,6.3371 1.9685,10.366 1.8717,10.3546 2.3485,6.3257 2.4025,6.283 2.4453,6.3371 z M 2.3485,6.3257 2.3542,6.2774 2.4025,6.283 2.3485,6.3257 z"
           class="fil0"
           inkscape:connector-curvature="0"
           style="fill:none;stroke:#000000;stroke-width:0.4671711;stroke-miterlimit:4;stroke-dasharray:none" />
      </g>
      <rect
         id="rect5223"
         height="17.383604"
         width="17.383677"
         y="-5.7128444"
         x="-0.19456588"
         class="fil1"
         style="fill:none;stroke-width:0.30000001;stroke-miterlimit:4;stroke-dasharray:none" />
    </g>
  </g>
</svg>
