<?xml version="1.0" encoding="UTF-8" standalone="no"?>
<!-- Created with Inkscape (http://www.inkscape.org/) -->

<svg
   xmlns:dc="http://purl.org/dc/elements/1.1/"
   xmlns:cc="http://creativecommons.org/ns#"
   xmlns:rdf="http://www.w3.org/1999/02/22-rdf-syntax-ns#"
   xmlns:svg="http://www.w3.org/2000/svg"
   xmlns="http://www.w3.org/2000/svg"
   xmlns:sodipodi="http://sodipodi.sourceforge.net/DTD/sodipodi-0.dtd"
   xmlns:inkscape="http://www.inkscape.org/namespaces/inkscape"
   width="16.441452"
   height="11.011049"
   id="svg7187"
   version="1.1"
   inkscape:version="0.48.3.1 r9886"
   sodipodi:docname="GeoPat_Foid.svg">
  <defs
     id="defs7189" />
  <sodipodi:namedview
     id="base"
     pagecolor="#ffffff"
     bordercolor="#666666"
     borderopacity="1.0"
     inkscape:pageopacity="0.0"
     inkscape:pageshadow="2"
     inkscape:zoom="32.000001"
     inkscape:cx="9.1585075"
     inkscape:cy="7.2108461"
     inkscape:current-layer="layer1"
     showgrid="true"
     inkscape:grid-bbox="true"
     inkscape:document-units="px"
     fit-margin-top="0"
     fit-margin-left="0"
     fit-margin-right="0"
     fit-margin-bottom="0"
     inkscape:window-width="910"
     inkscape:window-height="847"
     inkscape:window-x="24"
     inkscape:window-y="16"
     inkscape:window-maximized="0" />
  <metadata
     id="metadata7192">
    <rdf:RDF>
      <cc:Work
         rdf:about="">
        <dc:format>image/svg+xml</dc:format>
        <dc:type
           rdf:resource="http://purl.org/dc/dcmitype/StillImage" />
        <dc:title />
      </cc:Work>
    </rdf:RDF>
  </metadata>
  <g
     id="layer1"
     inkscape:label="Layer 1"
     inkscape:groupmode="layer"
     transform="translate(0.63199179,3.5642589)">
    <g
       id="g4751">
      <path
         id="path4321"
         d="m 0.03364013,-3.5392591 c 0.38812409,0 0.70304492,0.3150046 0.70304492,0.7178183 0,0.4028113 -0.31492083,0.7177345 -0.70304492,0.7177345 -0.38820562,0 -0.70312877,-0.3149232 -0.70312877,-0.7177345 0,-0.4028137 0.31492315,-0.7178183 0.70312877,-0.7178183 z"
         class="fil0 str0"
         inkscape:connector-curvature="0"
         style="fill:none;stroke:#000000;stroke-width:0.29999998;stroke-miterlimit:4;stroke-dasharray:none" />
      <path
         id="path4323"
         d="m 2.7801302,1.9538048 c 0.3881241,0 0.7030472,0.3149232 0.7030472,0.7177368 0,0.4028137 -0.3149231,0.7177345 -0.7030472,0.7177345 -0.3882056,0 -0.7031265,-0.3149208 -0.7031265,-0.7177345 0,-0.4028136 0.3149209,-0.7177368 0.7031265,-0.7177368 z"
         class="fil0 str0"
         inkscape:connector-curvature="0"
         style="fill:none;stroke:#000000;stroke-width:0.29999998;stroke-miterlimit:4;stroke-dasharray:none" />
      <path
         id="path4325"
         d="m 5.5266226,-3.5392591 c 0.3881241,0 0.7031287,0.3150046 0.7031287,0.7178183 0,0.4028113 -0.3150046,0.7177345 -0.7031287,0.7177345 -0.3882057,0 -0.7031288,-0.3149232 -0.7031288,-0.7177345 0,-0.4028137 0.3149231,-0.7178183 0.7031288,-0.7178183 z"
         class="fil0 str0"
         inkscape:connector-curvature="0"
         style="fill:none;stroke:#000000;stroke-width:0.29999998;stroke-miterlimit:4;stroke-dasharray:none" />
      <path
         id="path4327"
         d="m 8.2731149,1.9538048 c 0.3882057,0 0.7031265,0.3149232 0.7031265,0.7177368 0,0.4028137 -0.3149208,0.7177345 -0.7031265,0.7177345 -0.3882056,0 -0.7031287,-0.3149208 -0.7031287,-0.7177345 0,-0.4028136 0.3149231,-0.7177368 0.7031287,-0.7177368 z"
         class="fil0 str0"
         inkscape:connector-curvature="0"
         style="fill:none;stroke:#000000;stroke-width:0.29999998;stroke-miterlimit:4;stroke-dasharray:none" />
      <path
         id="path4329"
         d="m 11.019605,-3.5392591 c 0.388206,0 0.703129,0.3150046 0.703129,0.7178183 0,0.4028113 -0.314923,0.7177345 -0.703129,0.7177345 -0.388206,0 -0.703126,-0.3149232 -0.703126,-0.7177345 0,-0.4028137 0.31492,-0.7178183 0.703126,-0.7178183 z"
         class="fil0 str0"
         inkscape:connector-curvature="0"
         style="fill:none;stroke:#000000;stroke-width:0.29999998;stroke-miterlimit:4;stroke-dasharray:none" />
      <path
         id="path4331"
         d="m 13.766097,1.9538048 c 0.388206,0 0.703129,0.3149232 0.703129,0.7177368 0,0.4028137 -0.314923,0.7177345 -0.703129,0.7177345 -0.388124,0 -0.703128,-0.3149208 -0.703128,-0.7177345 0,-0.4028136 0.315004,-0.7177368 0.703128,-0.7177368 z"
         class="fil0 str0"
         inkscape:connector-curvature="0"
         style="fill:none;stroke:#000000;stroke-width:0.29999998;stroke-miterlimit:4;stroke-dasharray:none" />
      <rect
         id="rect4333"
         height="10.986049"
         width="16.478951"
         y="-3.5392587"
         class="fil0"
         x="-0.66948915"
         style="fill:none;stroke-width:1.27595853999999997;stroke-miterlimit:4;stroke-dasharray:none" />
    </g>
  </g>
</svg>
