<?xml version="1.0" encoding="UTF-8" standalone="no"?>
<!-- Created with Inkscape (http://www.inkscape.org/) -->

<svg
   xmlns:dc="http://purl.org/dc/elements/1.1/"
   xmlns:cc="http://creativecommons.org/ns#"
   xmlns:rdf="http://www.w3.org/1999/02/22-rdf-syntax-ns#"
   xmlns:svg="http://www.w3.org/2000/svg"
   xmlns="http://www.w3.org/2000/svg"
   xmlns:sodipodi="http://sodipodi.sourceforge.net/DTD/sodipodi-0.dtd"
   xmlns:inkscape="http://www.inkscape.org/namespaces/inkscape"
   width="16"
   height="16"
   id="svg9432"
   version="1.1"
   inkscape:version="0.48.3.1 r9886"
   sodipodi:docname="GeoPat_vulkanische_Aschen.svg">
  <defs
     id="defs9434" />
  <sodipodi:namedview
     id="base"
     pagecolor="#ffffff"
     bordercolor="#666666"
     borderopacity="1.0"
     inkscape:pageopacity="0.0"
     inkscape:pageshadow="2"
     inkscape:zoom="22.197802"
     inkscape:cx="4.04877"
     inkscape:cy="3.4160983"
     inkscape:current-layer="layer1"
     showgrid="true"
     inkscape:grid-bbox="true"
     inkscape:document-units="px"
     inkscape:window-width="810"
     inkscape:window-height="965"
     inkscape:window-x="46"
     inkscape:window-y="0"
     inkscape:window-maximized="0"
     fit-margin-top="0"
     fit-margin-left="0"
     fit-margin-right="0"
     fit-margin-bottom="0" />
  <metadata
     id="metadata9437">
    <rdf:RDF>
      <cc:Work
         rdf:about="">
        <dc:format>image/svg+xml</dc:format>
        <dc:type
           rdf:resource="http://purl.org/dc/dcmitype/StillImage" />
        <dc:title />
      </cc:Work>
    </rdf:RDF>
  </metadata>
  <g
     id="layer1"
     inkscape:label="Layer 1"
     inkscape:groupmode="layer"
     transform="translate(0.24337721,9.8499903)">
    <g
       id="g4282">
      <rect
         y="-9.8538275"
         x="-0.24337722"
         height="15.992576"
         width="15.992575"
         id="rect4300"
         style="fill:none;fill-opacity:1;stroke:none" />
      <path
         id="path7432"
         d="m 10.617164,2.4097636 0.640575,-1.3843089 0.694864,1.3843089 m 0.02173,2.7143443 0.640575,-1.3843256 0.694865,1.3843256 m 0.02173,-2.7143443 0.640576,-1.3843089 0.694865,1.3843089 m 0.02173,2.7143443 0.640576,-1.3843256 0.694863,1.3843256 m -1.335439,-5.42867194 0.640576,-1.38430896 0.694863,1.38430896 m -2.692606,-2.71434426 0.640576,-1.3843089 0.694865,1.3843089 m 0.02173,-2.7143277 0.640576,-1.3843089 0.694863,1.3843089 m -2.692606,-2.7143276 0.640576,-1.3843255 0.694865,1.3843255 m -2.692607,8.14299956 0.640575,-1.38430896 0.694865,1.38430896 m -2.692607,-2.71434426 0.640575,-1.3843089 0.694864,1.3843089 m 0.02173,-2.7143277 0.640575,-1.3843089 0.694865,1.3843089 m -2.692607,-2.7143276 0.640575,-1.3843255 0.694864,1.3843255 M 9.2599968,5.1241079 9.9005714,3.7397823 10.595436,5.1241079 M 7.9028297,2.4097636 8.5434043,1.0254547 9.2382691,2.4097636 M 9.2599968,-0.30456404 9.9005714,-1.688873 10.595436,-0.30456404 M 7.9028297,-3.0189083 8.5434043,-4.4032172 9.2382691,-3.0189083 M 9.2599968,-5.733236 9.9005714,-7.1175449 10.595436,-5.733236 M 7.9028297,-8.4475636 8.5434043,-9.8318891 9.2382691,-8.4475636 M 6.5456625,5.1241079 7.1862371,3.7397823 7.8811019,5.1241079 M 5.1884954,2.4097636 5.8290716,1.0254547 6.5239348,2.4097636 M 6.5456625,-0.30456404 7.1862371,-1.688873 7.8811019,-0.30456404 M 5.1884954,-3.0189083 5.8290716,-4.4032172 6.5239348,-3.0189083 M 6.5456625,-5.733236 7.1862371,-7.1175449 7.8811019,-5.733236 M 5.1884954,-8.4475636 5.8290716,-9.8318891 6.5239348,-8.4475636 M 3.8313282,5.1241079 4.4719045,3.7397823 5.1667676,5.1241079 M 2.4741611,2.4097636 3.1147373,1.0254547 3.8096022,2.4097636 M 3.8313282,-0.30456404 4.4719045,-1.688873 5.1667676,-0.30456404 M 2.4741611,-3.0189083 3.1147373,-4.4032172 3.8096022,-3.0189083 m -4.04977376,-5.4286553 0.64057461,-1.3843255 0.69486485,1.3843255 m 0.021728,2.7143276 0.6405746,-1.3843089 0.6948648,1.3843089 m 0.021726,-2.7143276 0.6405762,-1.3843255 0.6948649,1.3843255 m 0.021726,2.7143276 0.6405763,-1.3843089 0.6948631,1.3843089 M 1.1169956,5.1241079 1.7575702,3.7397823 2.452435,5.1241079 M -0.24017156,2.4097636 0.40040305,1.0254547 1.0952679,2.4097636 M 1.1169956,-0.30456404 1.7575702,-1.688873 2.452435,-0.30456404 M -0.24017156,-3.0189083 0.40040305,-4.4032172 1.0952679,-3.0189083"
         class="fil0 str0"
         inkscape:connector-curvature="0"
         style="fill:none;stroke:#000000;stroke-width:0.30000001;stroke-miterlimit:4;stroke-dasharray:none" />
    </g>
  </g>
</svg>
