<?xml version="1.0" encoding="UTF-8" standalone="no"?>
<!-- Created with Inkscape (http://www.inkscape.org/) -->

<svg
   xmlns:dc="http://purl.org/dc/elements/1.1/"
   xmlns:cc="http://creativecommons.org/ns#"
   xmlns:rdf="http://www.w3.org/1999/02/22-rdf-syntax-ns#"
   xmlns:svg="http://www.w3.org/2000/svg"
   xmlns="http://www.w3.org/2000/svg"
   xmlns:sodipodi="http://sodipodi.sourceforge.net/DTD/sodipodi-0.dtd"
   xmlns:inkscape="http://www.inkscape.org/namespaces/inkscape"
   width="8.5793886"
   height="15.877773"
   id="svg9432"
   version="1.1"
   inkscape:version="0.48.2 r9819"
   sodipodi:docname="GeoPat_Pyroklastit.svg">
  <defs
     id="defs9434" />
  <sodipodi:namedview
     id="base"
     pagecolor="#ffffff"
     bordercolor="#666666"
     borderopacity="1.0"
     inkscape:pageopacity="0.0"
     inkscape:pageshadow="2"
     inkscape:zoom="22.197802"
     inkscape:cx="4.0931288"
     inkscape:cy="10.512876"
     inkscape:current-layer="layer1"
     showgrid="true"
     inkscape:grid-bbox="true"
     inkscape:document-units="px"
     inkscape:window-width="1283"
     inkscape:window-height="930"
     inkscape:window-x="479"
     inkscape:window-y="25"
     inkscape:window-maximized="0"
     fit-margin-top="0"
     fit-margin-left="0"
     fit-margin-right="0"
     fit-margin-bottom="0" />
  <metadata
     id="metadata9437">
    <rdf:RDF>
      <cc:Work
         rdf:about="">
        <dc:format>image/svg+xml</dc:format>
        <dc:type
           rdf:resource="http://purl.org/dc/dcmitype/StillImage" />
        <dc:title></dc:title>
      </cc:Work>
    </rdf:RDF>
  </metadata>
  <g
     id="layer1"
     inkscape:label="Layer 1"
     inkscape:groupmode="layer"
     transform="translate(-0.01247964,-0.06520703)">
    <g
       id="g10094">
      <path
         id="path4088"
         d="m 0.79913504,0.25897678 0,1.56215792 c 0,0.058732 0.003992,0.096169 0.0121491,0.112414 0.003992,0.00798 0.016141,0.016141 0.0364126,0.024281 0.0587323,0.022268 0.1791995,0.033393 0.361471,0.033393 l 0,0.032907 -1.1966708,0 0,-0.032907 c 0.08709182,0 0.16248577,-0.00295 0.22625129,-0.00903 0.0637655,-0.00607 0.10731142,-0.013711 0.13062037,-0.022823 0.0232395,-0.00903 0.0384433,-0.02022 0.0455765,-0.033393 0.007116,-0.013191 0.0105871,-0.048076 0.0105871,-0.1047775 l 0,-1.5621579 c 0,-0.0566999 -0.003992,-0.0921233 -0.0121491,-0.1062666 -0.003992,-0.008123 -0.0171823,-0.0162277 -0.0394846,-0.024293 C 0.31516624,0.10616344 0.19469906,0.09503311 0.01247964,0.09503311 l 0,-0.02982608 1.19969066,0 0,0.02982608 c -0.087074,0 -0.1624684,0.003072 -0.22625125,0.0091639 -0.0638349,0.006022 -0.10883874,0.014145 -0.13516762,0.0242913 l -0.0303728,0.0121144 c -0.0142318,0.0121838 -0.0212783,0.0516581 -0.0212783,0.11844348 z m 1.26043626,0 0,1.56215792 c 0,0.058732 0.00399,0.096169 0.012149,0.112414 0.00399,0.00798 0.016141,0.016141 0.036395,0.024281 0.058732,0.022268 0.1792169,0.033393 0.3614884,0.033393 l 0,0.032907 -1.1966708,0 0,-0.032907 c 0.087074,0 0.1624684,-0.00295 0.2262513,-0.00903 0.063765,-0.00607 0.1073114,-0.013711 0.1306204,-0.022823 0.02324,-0.00903 0.038426,-0.02022 0.045559,-0.033393 0.00712,-0.013191 0.010587,-0.048076 0.010587,-0.1047775 l 0,-1.5621579 c 0,-0.0566999 -0.00399,-0.0921233 -0.012149,-0.1062666 -0.00399,-0.008123 -0.017182,-0.0162277 -0.039485,-0.024293 C 1.5755852,0.10616344 1.455118,0.09503311 1.2728986,0.09503311 l 0,-0.02982608 1.1996907,0 0,0.02982608 c -0.087092,0 -0.1624858,0.003072 -0.2262513,0.0091639 -0.063835,0.006022 -0.1088561,0.014145 -0.1351676,0.0242913 l -0.03039,0.0121144 c -0.014232,0.0121838 -0.021278,0.0516581 -0.021278,0.11844348 z"
         class="fil0"
         inkscape:connector-curvature="0"
         style="fill:#000000;fill-rule:nonzero;stroke:none" />
      <path
         id="path4090"
         d="m 4.4889611,7.7081287 0,1.562151 c 0,0.058732 0.00399,0.096186 0.012149,0.1124314 0.00399,0.00798 0.016141,0.016141 0.036395,0.024281 0.058732,0.022268 0.1791994,0.033393 0.3614883,0.033393 l 0,0.032907 -1.1966708,0 0,-0.032907 c 0.087075,0 0.1624684,-0.00295 0.2262339,-0.00903 0.063783,-0.00607 0.1073288,-0.013711 0.1306204,-0.022823 0.023257,-0.00902 0.038443,-0.02022 0.045577,-0.033393 0.00712,-0.01319 0.010587,-0.048093 0.010587,-0.1047948 l 0,-1.562151 c 0,-0.056702 -0.00399,-0.092108 -0.012149,-0.1062527 C 4.0992,7.5937881 4.0860095,7.5856309 4.0637246,7.5776472 4.0049923,7.5553275 3.8845077,7.544185 3.7023057,7.544185 l 0,-0.029817 1.1996733,0 0,0.029817 c -0.087074,0 -0.1624684,0.00312 -0.2262339,0.0092 -0.063835,0.00607 -0.1088561,0.014232 -0.135185,0.024298 l -0.030373,0.012149 c -0.014232,0.012149 -0.021278,0.051651 -0.021278,0.1184366 z m 1.2604536,0 0,1.562151 c 0,0.058732 0.00399,0.096186 0.012149,0.1124314 0.00399,0.00798 0.016141,0.016141 0.036413,0.024281 0.058732,0.022268 0.1791995,0.033393 0.3614709,0.033393 l 0,0.032907 -1.1966707,0 0,-0.032907 c 0.087092,0 0.1624857,-0.00295 0.2262512,-0.00903 0.063783,-0.00607 0.1073115,-0.013711 0.1306204,-0.022823 0.02324,-0.00902 0.038443,-0.02022 0.045577,-0.033393 0.00712,-0.01319 0.010587,-0.048093 0.010587,-0.1047948 l 0,-1.562151 c 0,-0.056702 -0.00399,-0.092108 -0.012149,-0.1062527 -0.00399,-0.00816 -0.017182,-0.016315 -0.039485,-0.024298 C 5.2654459,7.5553275 5.1449787,7.544185 4.9627593,7.544185 l 0,-0.029817 1.1996907,0 0,0.029817 c -0.087074,0 -0.1624684,0.00312 -0.2262513,0.0092 -0.063835,0.00607 -0.1088387,0.014232 -0.1351676,0.024298 L 5.7706583,7.589831 C 5.7564265,7.6019801 5.74938,7.6414821 5.74938,7.7082676 z"
         class="fil0"
         inkscape:connector-curvature="0"
         style="fill:#000000;fill-rule:nonzero;stroke:none" />
      <rect
         id="rect4092"
         height="14.898317"
         width="7.3796673"
         y="1.0446632"
         x="1.2122012"
         class="fil1"
         style="fill:none" />
    </g>
  </g>
</svg>
