<?xml version="1.0" encoding="UTF-8" standalone="no"?>
<!-- Created with Inkscape (http://www.inkscape.org/) -->

<svg
   xmlns:dc="http://purl.org/dc/elements/1.1/"
   xmlns:cc="http://creativecommons.org/ns#"
   xmlns:rdf="http://www.w3.org/1999/02/22-rdf-syntax-ns#"
   xmlns:svg="http://www.w3.org/2000/svg"
   xmlns="http://www.w3.org/2000/svg"
   xmlns:sodipodi="http://sodipodi.sourceforge.net/DTD/sodipodi-0.dtd"
   xmlns:inkscape="http://www.inkscape.org/namespaces/inkscape"
   width="15.391221"
   height="16.123625"
   id="svg4200"
   version="1.1"
   inkscape:version="0.48.2 r9819"
   sodipodi:docname="GeoPat_Heterolithische_Wechsellagerung.svg">
  <defs
     id="defs4202" />
  <sodipodi:namedview
     id="base"
     pagecolor="#ffffff"
     bordercolor="#666666"
     borderopacity="1.0"
     inkscape:pageopacity="0.0"
     inkscape:pageshadow="2"
     inkscape:zoom="16"
     inkscape:cx="11.360833"
     inkscape:cy="10.814849"
     inkscape:current-layer="layer1"
     showgrid="true"
     inkscape:grid-bbox="true"
     inkscape:document-units="px"
     inkscape:window-width="1920"
     inkscape:window-height="1000"
     inkscape:window-x="0"
     inkscape:window-y="25"
     inkscape:window-maximized="1"
     fit-margin-top="0"
     fit-margin-left="0"
     fit-margin-right="0"
     fit-margin-bottom="0" />
  <metadata
     id="metadata4205">
    <rdf:RDF>
      <cc:Work
         rdf:about="">
        <dc:format>image/svg+xml</dc:format>
        <dc:type
           rdf:resource="http://purl.org/dc/dcmitype/StillImage" />
        <dc:title></dc:title>
      </cc:Work>
    </rdf:RDF>
  </metadata>
  <g
     id="layer1"
     inkscape:label="Layer 1"
     inkscape:groupmode="layer"
     transform="translate(0.00867673,-0.01369175)">
    <g
       id="g6768"
       transform="matrix(1.0625451,0,0,1.0625451,0.05924057,-0.18550845)">
      <path
         id="path4112"
         d="M 7.8137511,9.2240279 C 7.4243725,9.0219302 7.0357707,8.699725 6.5993966,8.5632673 6.6885204,8.5815891 5.7202977,8.5290334 5.6366068,8.7812372 5.5847421,8.9796705 5.6489541,9.2585406 6.1660577,9.5226537 6.5562806,9.7222221 7.6937193,10.032638 8.036877,9.6145416 8.1921903,9.4252891 8.1542263,9.362278 7.8137511,9.2240279 z"
         class="fil0 str0"
         inkscape:connector-curvature="0"
         style="fill:none;stroke:#000000;stroke-width:0.28234097;stroke-miterlimit:4;stroke-dasharray:none" />
      <path
         id="path4114"
         d="M 7.8533382,14.354317 C 7.4004506,14.282125 7.005004,14.101058 6.527139,14.109462 c 0.094415,-0.01115 -0.979867,0.244855 -0.979867,0.52275 0.013901,0.213887 0.1694968,0.469536 0.7695822,0.561205 0.4528856,0.0695 1.6837536,0.0028 1.8865562,-0.525159 0.091735,-0.238921 0.033378,-0.288888 -0.3500722,-0.313941 z"
         class="fil0 str0"
         inkscape:connector-curvature="0"
         style="fill:none;stroke:#000000;stroke-width:0.28234097;stroke-miterlimit:4;stroke-dasharray:none" />
      <path
         id="path4116"
         d="M 9.3364737,3.6371069 C 9.1105238,3.686994 7.3117511,3.9362305 7.3827402,4.8227478 7.4470956,5.1478407 8.473251,4.9852544 8.9817433,4.8730532 9.4229169,4.7756886 9.8512452,4.5813379 9.7738355,3.8440041 9.6738462,3.7303291 9.7293792,3.630276 9.3364737,3.6371069 z"
         class="fil0 str0"
         inkscape:connector-curvature="0"
         style="fill:none;stroke:#000000;stroke-width:0.28234097;stroke-miterlimit:4;stroke-dasharray:none" />
      <path
         id="path4118"
         d="m 11.170177,10.307345 c -0.21727,0.05588 -0.460367,0.298985 -0.675519,0.380776 -0.191443,0.0796 -0.417321,0.277456 -0.417321,0.492618 0,0.197855 1.398317,0.598028 1.581151,0.453863 0.215082,-0.161312 0.729218,-0.460356 0.703462,-0.621667 -0.01079,-0.359247 -0.533541,-0.671216 -1.191773,-0.70559 z"
         class="fil0 str0"
         inkscape:connector-curvature="0"
         style="fill:none;stroke:#000000;stroke-width:0.28234097;stroke-miterlimit:4;stroke-dasharray:none" />
      <path
         id="path4120"
         d="M 1.927567,5.6067227 C 1.6947723,5.6667067 1.4343874,5.9270957 1.2039228,6.014662 0.99885974,6.0998983 0.7568922,6.3119535 0.7568922,6.5423504 c 0,0.2120552 1.4978846,0.6406663 1.6937728,0.4862652 C 2.6811316,6.855793 3.2318916,6.5354399 3.2042296,6.3626173 3.1927386,5.9777595 2.6327242,5.6436252 1.927567,5.6067227 z"
         class="fil0 str0"
         inkscape:connector-curvature="0"
         style="fill:none;stroke:#000000;stroke-width:0.28234097;stroke-miterlimit:4;stroke-dasharray:none" />
      <path
         id="path4122"
         d="m 10.756807,2.1506694 c 0.466012,0 0.846074,0.2733536 0.846074,0.6085434 0,0.3351898 -0.380062,0.6085633 -0.846074,0.6085633 -0.465942,0 -0.8460039,-0.2733735 -0.8460039,-0.6085633 0,-0.3351898 0.3800619,-0.6085434 0.8460039,-0.6085434 z"
         class="fil0 str0"
         inkscape:connector-curvature="0"
         style="fill:none;stroke:#000000;stroke-width:0.28234097;stroke-miterlimit:4;stroke-dasharray:none" />
      <path
         id="path4124"
         d="m 6.4260881,1.8880898 c 0.277956,0 0.5046109,0.2600305 0.5046109,0.5788501 0,0.3187997 -0.2266549,0.5788302 -0.5046109,0.5788302 -0.2778842,0 -0.5046088,-0.2600305 -0.5046088,-0.5788302 0,-0.3188196 0.2267246,-0.5788501 0.5046088,-0.5788501 z"
         class="fil0 str0"
         inkscape:connector-curvature="0"
         style="fill:none;stroke:#000000;stroke-width:0.28234097;stroke-miterlimit:4;stroke-dasharray:none" />
      <path
         id="path4126"
         d="m 13.116009,8.258906 c 0.441454,0 0.801478,0.4400424 0.801478,0.9796599 0,0.5396174 -0.360024,0.9795801 -0.801478,0.9795801 -0.441385,0 -0.801478,-0.4399627 -0.801478,-0.9795801 0,-0.5396175 0.360093,-0.9796599 0.801478,-0.9796599 z"
         class="fil0 str0"
         inkscape:connector-curvature="0"
         style="fill:none;stroke:#000000;stroke-width:0.28234097;stroke-miterlimit:4;stroke-dasharray:none" />
      <path
         id="path4128"
         d="m 10.088063,7.0934589 c 0.727525,0 1.320977,0.533404 1.320977,1.1873934 0,0.6540094 -0.593452,1.1874134 -1.320977,1.1874134 -0.7275259,0 -1.3209777,-0.533404 -1.3209777,-1.1874134 0,-0.6539894 0.5934518,-1.1873934 1.3209777,-1.1873934 z"
         class="fil0 str0"
         inkscape:connector-curvature="0"
         style="fill:none;stroke:#000000;stroke-width:0.28234097;stroke-miterlimit:4;stroke-dasharray:none" />
      <path
         id="path4130"
         d="m 3.247487,2.4866159 c 0.5722104,0 1.0389987,0.3800783 1.0389987,0.8460898 0,0.4659319 -0.4667883,0.8459903 -1.0389987,0.8459903 -0.5721427,0 -1.038929,-0.3800584 -1.038929,-0.8459903 0,-0.4660115 0.4667863,-0.8460898 1.038929,-0.8460898 z"
         class="fil0 str0"
         inkscape:connector-curvature="0"
         style="fill:none;stroke:#000000;stroke-width:0.28234097;stroke-miterlimit:4;stroke-dasharray:none" />
      <path
         id="path4132"
         d="m 5.7736441,5.0433266 c 0.629723,0 0.3530376,0.5025756 1.1481648,1.1609464 0.795197,0.6584305 -0.5184418,1.1673589 -1.1481648,1.1673589 -0.6297927,0 -1.1450581,-0.5184478 -1.1450581,-1.1673589 0,-0.645665 0.5152654,-1.1609464 1.1450581,-1.1609464 z"
         class="fil0 str0"
         inkscape:connector-curvature="0"
         style="fill:none;stroke:#000000;stroke-width:0.28234097;stroke-miterlimit:4;stroke-dasharray:none" />
      <path
         id="path4134"
         d="m 12.053369,4.4605334 c 0.801126,0 1.454557,0.5134292 1.454557,1.1428834 0,0.629494 -0.653431,1.1428635 -1.454557,1.1428635 -0.801124,0 -1.454558,-0.5133695 -1.454558,-1.1428635 0,-0.6294542 0.653434,-1.1428834 1.454558,-1.1428834 z"
         class="fil0 str0"
         inkscape:connector-curvature="0"
         style="fill:none;stroke:#000000;stroke-width:0.28234097;stroke-miterlimit:4;stroke-dasharray:none" />
      <path
         id="path4136"
         d="m 6.1962588,10.850348 c 0.4496394,0 0.8163666,0.179933 0.8163666,0.400731 0,0.220738 -0.3667272,0.40075 -0.8163666,0.40075 -0.4495697,0 -0.8162969,-0.180012 -0.8162969,-0.40075 0,-0.220798 0.3667272,-0.400731 0.8162969,-0.400731 z"
         class="fil0 str0"
         inkscape:connector-curvature="0"
         style="fill:none;stroke:#000000;stroke-width:0.28234097;stroke-miterlimit:4;stroke-dasharray:none" />
      <path
         id="path4138"
         d="m 3.1993604,9.1013912 c 0.6377667,0 1.1579033,0.3561403 1.1579033,0.7929366 0,0.4367362 -0.5201366,0.7929362 -1.1579033,0.7929362 -0.6377667,0 -1.1579711,-0.3562 -1.1579711,-0.7929362 0,-0.4367963 0.5202044,-0.7929366 1.1579711,-0.7929366 z"
         class="fil0 str0"
         inkscape:connector-curvature="0"
         style="fill:none;stroke:#000000;stroke-width:0.28234097;stroke-miterlimit:4;stroke-dasharray:none" />
      <path
         id="path4140"
         d="m 11.309826,12.975401 c 0.865975,-0.192419 1.320413,-0.138788 1.755376,0.373506 0.435033,0.512374 -0.148047,0.682369 -1.014091,0.874867 -0.863715,0.191941 -1.753895,-0.0028 -1.845064,-0.413077 -0.09166,-0.4126 0.240062,-0.643355 1.103779,-0.835296 z"
         class="fil0 str0"
         inkscape:connector-curvature="0"
         style="fill:none;stroke:#000000;stroke-width:0.28234097;stroke-miterlimit:4;stroke-dasharray:none" />
      <path
         id="path4142"
         d="M 3.6235982,12.032445 C 2.9011528,11.562211 1.621738,11.612158 1.0202425,12.398682 c -0.14635351,0.287194 0.5601439,0.524362 0.8402169,0.578491 0.6810241,0.208093 1.4416446,0.678346 2.2023348,0.366238 0.6619714,-0.81566 -0.031824,-1.077881 -0.439196,-1.310966 z"
         class="fil0 str0"
         inkscape:connector-curvature="0"
         style="fill:none;stroke:#000000;stroke-width:0.28234097;stroke-miterlimit:4;stroke-dasharray:none" />
      <path
         id="path4144"
         d="m 9.1266132,11.644898 c -0.4372204,0.03543 -0.9375973,-0.03133 -1.3798284,0.08462 0.085242,-0.03168 -0.7631616,0.437712 -0.7002182,0.695911 0.061322,0.195685 0.2638442,0.397982 0.8423358,0.347258 0.4365851,-0.03804 1.5652731,-0.378804 1.6342169,-0.915374 0.031048,-0.242824 -0.034507,-0.276062 -0.3965061,-0.212414 z"
         class="fil0 str0"
         inkscape:connector-curvature="0"
         style="fill:none;stroke:#000000;stroke-width:0.28234097;stroke-miterlimit:4;stroke-dasharray:none" />
      <path
         id="path4146"
         d="m -0.06391945,0.31645586 c 0.0132634,-5.974e-5 0.02653278,-1.9915e-4 0.03986988,-1.9915e-4 1.13877887,0 2.06226247,0.44117753 2.06226247,0.98515639 0,0.5439789 -0.9234836,0.9851564 -2.06226247,0.9851564"
         class="fil0 str0"
         inkscape:connector-curvature="0"
         style="fill:none;stroke:#000000;stroke-width:0.28234097;stroke-miterlimit:4;stroke-dasharray:none" />
      <path
         id="path4148"
         d="m 14.421321,2.2865695 c -1.138779,0 -2.062264,-0.4411775 -2.062264,-0.9851564 0,-0.54397886 0.923485,-0.98515639 2.062264,-0.98515639"
         class="fil0 str0"
         inkscape:connector-curvature="0"
         style="fill:none;stroke:#000000;stroke-width:0.28234097;stroke-miterlimit:4;stroke-dasharray:none" />
    </g>
  </g>
</svg>
