<?xml version="1.0"?>
<!DOCTYPE svg PUBLIC "-//W3C//DTD SVG 1.0//EN" "http://www.w3.org/TR/2001/REC-SVG-20010904/DTD/svg10.dtd">
<!--Generator: svgOut 1.0 by Regione Toscana-->

<svg xmlns="http://www.w3.org/2000/svg" xmlns:xlink="http://www.w3.org/1999/xlink" xmlns:ev="http://www.w3.org/2001/xml-events" width="10.0" height="10.0">
  <g id="sv07">
    <path style="stroke:black;fill:none;stroke-width:0.130;stroke-linecap:round" d="M0.0000 9.2857L0.7143 10.0000"/>
    <path style="stroke:black;fill:none;stroke-width:0.130;stroke-linecap:round" d="M0.0000 8.5714L1.4286 10.0000"/>
    <path style="stroke:black;fill:none;stroke-width:0.130;stroke-linecap:round" d="M0.0000 7.8571L2.1429 10.0000"/>
    <path style="stroke:black;fill:none;stroke-width:0.130;stroke-linecap:round" d="M0.0000 7.1429L2.8571 10.0000"/>
    <path style="stroke:black;fill:none;stroke-width:0.130;stroke-linecap:round" d="M0.0000 6.4286L3.5714 10.0000"/>
    <path style="stroke:black;fill:none;stroke-width:0.130;stroke-linecap:round" d="M0.0000 5.7143L4.2857 10.0000"/>
    <path style="stroke:black;fill:none;stroke-width:0.130;stroke-linecap:round" d="M0.0000 5.0000L5.0000 10.0000"/>
    <path style="stroke:black;fill:none;stroke-width:0.130;stroke-linecap:round" d="M0.0000 4.2857L5.7143 10.0000"/>
    <path style="stroke:black;fill:none;stroke-width:0.130;stroke-linecap:round" d="M0.0000 3.5714L6.4286 10.0000"/>
    <path style="stroke:black;fill:none;stroke-width:0.130;stroke-linecap:round" d="M0.0000 2.8571L7.1429 10.0000"/>
    <path style="stroke:black;fill:none;stroke-width:0.130;stroke-linecap:round" d="M0.0000 2.1429L7.8571 10.0000"/>
    <path style="stroke:black;fill:none;stroke-width:0.130;stroke-linecap:round" d="M0.0000 1.4286L8.5714 10.0000"/>
    <path style="stroke:black;fill:none;stroke-width:0.130;stroke-linecap:round" d="M0.0000 0.7143L9.2857 10.0000"/>
    <path style="stroke:black;fill:none;stroke-width:0.130;stroke-linecap:round" d="M0.0000 0.0000L9.9492 9.9492"/>
    <path style="stroke:black;fill:none;stroke-width:0.130;stroke-linecap:round" d="M0.7143 0.0000L10.0000 9.2857"/>
    <path style="stroke:black;fill:none;stroke-width:0.130;stroke-linecap:round" d="M1.4286 0.0000L10.0000 8.5714"/>
    <path style="stroke:black;fill:none;stroke-width:0.130;stroke-linecap:round" d="M2.1429 0.0000L10.0000 7.8571"/>
    <path style="stroke:black;fill:none;stroke-width:0.130;stroke-linecap:round" d="M2.8571 0.0000L10.0000 7.1429"/>
    <path style="stroke:black;fill:none;stroke-width:0.130;stroke-linecap:round" d="M3.5714 0.0000L10.0000 6.4286"/>
    <path style="stroke:black;fill:none;stroke-width:0.130;stroke-linecap:round" d="M4.2857 0.0000L10.0000 5.7143"/>
    <path style="stroke:black;fill:none;stroke-width:0.130;stroke-linecap:round" d="M5.0000 0.0000L10.0000 5.0000"/>
    <path style="stroke:black;fill:none;stroke-width:0.130;stroke-linecap:round" d="M5.7143 0.0000L10.0000 4.2857"/>
    <path style="stroke:black;fill:none;stroke-width:0.130;stroke-linecap:round" d="M6.4286 0.0000L10.0000 3.5714"/>
    <path style="stroke:black;fill:none;stroke-width:0.130;stroke-linecap:round" d="M7.1429 0.0000L10.0000 2.8571"/>
    <path style="stroke:black;fill:none;stroke-width:0.130;stroke-linecap:round" d="M7.8571 0.0000L10.0000 2.1429"/>
    <path style="stroke:black;fill:none;stroke-width:0.130;stroke-linecap:round" d="M8.5714 0.0000L10.0000 1.4286"/>
    <path style="stroke:black;fill:none;stroke-width:0.130;stroke-linecap:round" d="M9.2857 0.0000L10.0000 0.7143"/>
  </g>
</svg>
