<?xml version="1.0"?>
<!DOCTYPE svg PUBLIC "-//W3C//DTD SVG 1.0//EN" "http://www.w3.org/TR/2001/REC-SVG-20010904/DTD/svg10.dtd">
<!--Generator: arx shpOut 1.0 Virgilio Cima e Marco Guiducci - Regione Toscana-->

<svg xmlns="http://www.w3.org/2000/svg" xmlns:xlink="http://www.w3.org/1999/xlink" xmlns:ev="http://www.w3.org/2001/xml-events" width="10.00" height="10.00">
  <g id="sv11" transform="translate(-5.00 -5.00)">
    <path style="stroke:black;fill:none;stroke-width:0.130" d="M14.40 14.00L15.00 14.00M5.00 14.00L5.60 14.00M7.00 14.00L6.90 14.00M8.00 14.00L8.10 14.00M13.00 14.00L13.10 14.00M12.00 14.00L11.90 14.00M9.40 14.00L10.60 14.00M11.90 5.00L13.10 5.00M14.50 5.00L14.40 5.00M6.90 5.00L8.10 5.00M9.50 5.00L9.40 5.00M10.50 5.00L10.60 5.00M5.50 5.00L5.60 5.00M5.50 13.00L5.60 13.00M10.50 13.00L10.60 13.00M9.50 13.00L9.40 13.00M6.90 13.00L8.10 13.00M9.40 12.00L10.60 12.00M12.00 12.00L11.90 12.00M13.00 12.00L13.10 12.00M8.00 12.00L8.10 12.00M7.00 12.00L6.90 12.00M5.00 12.00L5.60 12.00M14.50 13.00L14.40 13.00M11.90 13.00L13.10 13.00M14.40 12.00L15.00 12.00M14.40 10.00L15.00 10.00M11.90 11.00L13.10 11.00M14.50 11.00L14.40 11.00M5.00 10.00L5.60 10.00M7.00 10.00L6.90 10.00M8.00 10.00L8.10 10.00M13.00 10.00L13.10 10.00M12.00 10.00L11.90 10.00M9.40 10.00L10.60 10.00M6.90 11.00L8.10 11.00M9.50 11.00L9.40 11.00M10.50 11.00L10.60 11.00M5.50 11.00L5.60 11.00M5.50 7.00L5.60 7.00M10.50 7.00L10.60 7.00M9.50 7.00L9.40 7.00M6.90 7.00L8.10 7.00M9.40 6.00L10.60 6.00M12.00 6.00L11.90 6.00M13.00 6.00L13.10 6.00M8.00 6.00L8.10 6.00M7.00 6.00L6.90 6.00M5.00 6.00L5.60 6.00M14.50 7.00L14.40 7.00M11.90 7.00L13.10 7.00M14.40 6.00L15.00 6.00M14.40 8.00L15.00 8.00M11.90 9.00L13.10 9.00M14.50 9.00L14.40 9.00M5.00 8.00L5.60 8.00M7.00 8.00L6.90 8.00M8.00 8.00L8.10 8.00M13.00 8.00L13.10 8.00M12.00 8.00L11.90 8.00M9.40 8.00L10.60 8.00M6.90 9.00L8.10 9.00M9.50 9.00L9.40 9.00M10.50 9.00L10.60 9.00M5.50 9.00L5.60 9.00"/>
  </g>
</svg>
