<?xml version="1.0"?>
<!DOCTYPE svg PUBLIC "-//W3C//DTD SVG 1.0//EN" "http://www.w3.org/TR/2001/REC-SVG-20010904/DTD/svg10.dtd">
<!--Generator: svgOut 1.0 by Regione Toscana-->

<svg xmlns="http://www.w3.org/2000/svg" xmlns:xlink="http://www.w3.org/1999/xlink" xmlns:ev="http://www.w3.org/2001/xml-events" width="10.0" height="10.0">
  <g id="sv13">
    <path style="stroke:black;fill:none;stroke-width:0.130;stroke-linecap:round" d="M1.20 0.70L1.27 0.67L1.30 0.60L1.27 0.53L1.20 0.50L1.13 0.53L1.10 0.60L1.13 0.67L1.20 0.70"/>
    <path style="stroke:black;fill:none;stroke-width:0.130;stroke-linecap:round" d="M1.20 3.20L1.27 3.17L1.30 3.10L1.27 3.03L1.20 3.00L1.13 3.03L1.10 3.10L1.13 3.17L1.20 3.20"/>
    <path style="stroke:black;fill:none;stroke-width:0.130;stroke-linecap:round" d="M1.20 5.70L1.27 5.67L1.30 5.60L1.27 5.53L1.20 5.50L1.13 5.53L1.10 5.60L1.13 5.67L1.20 5.70"/>
    <path style="stroke:black;fill:none;stroke-width:0.130;stroke-linecap:round" d="M1.20 8.20L1.27 8.17L1.30 8.10L1.27 8.03L1.20 8.00L1.13 8.03L1.10 8.10L1.13 8.17L1.20 8.20"/>
    <path style="stroke:black;fill:none;stroke-width:0.130;stroke-linecap:round" d="M3.70 1.95L3.77 1.92L3.80 1.85L3.77 1.78L3.70 1.75L3.63 1.78L3.60 1.85L3.63 1.92L3.70 1.95"/>
    <path style="stroke:black;fill:none;stroke-width:0.130;stroke-linecap:round" d="M3.70 4.45L3.77 4.42L3.80 4.35L3.77 4.28L3.70 4.25L3.63 4.28L3.60 4.35L3.63 4.42L3.70 4.45"/>
    <path style="stroke:black;fill:none;stroke-width:0.130;stroke-linecap:round" d="M3.70 6.95L3.77 6.92L3.80 6.85L3.77 6.78L3.70 6.75L3.63 6.78L3.60 6.85L3.63 6.92L3.70 6.95"/>
    <path style="stroke:black;fill:none;stroke-width:0.130;stroke-linecap:round" d="M3.70 9.45L3.77 9.42L3.80 9.35L3.77 9.28L3.70 9.25L3.63 9.28L3.60 9.35L3.63 9.42L3.70 9.45"/>
    <path style="stroke:black;fill:none;stroke-width:0.130;stroke-linecap:round" d="M6.20 0.70L6.27 0.67L6.30 0.60L6.27 0.53L6.20 0.50L6.13 0.53L6.10 0.60L6.13 0.67L6.20 0.70"/>
    <path style="stroke:black;fill:none;stroke-width:0.130;stroke-linecap:round" d="M6.20 3.20L6.27 3.17L6.30 3.10L6.27 3.03L6.20 3.00L6.13 3.03L6.10 3.10L6.13 3.17L6.20 3.20"/>
    <path style="stroke:black;fill:none;stroke-width:0.130;stroke-linecap:round" d="M6.20 5.70L6.27 5.67L6.30 5.60L6.27 5.53L6.20 5.50L6.13 5.53L6.10 5.60L6.13 5.67L6.20 5.70"/>
    <path style="stroke:black;fill:none;stroke-width:0.130;stroke-linecap:round" d="M6.20 8.20L6.27 8.17L6.30 8.10L6.27 8.03L6.20 8.00L6.13 8.03L6.10 8.10L6.13 8.17L6.20 8.20"/>
    <path style="stroke:black;fill:none;stroke-width:0.130;stroke-linecap:round" d="M8.70 1.95L8.77 1.92L8.80 1.85L8.77 1.78L8.70 1.75L8.63 1.78L8.60 1.85L8.63 1.92L8.70 1.95"/>
    <path style="stroke:black;fill:none;stroke-width:0.130;stroke-linecap:round" d="M8.70 4.45L8.77 4.42L8.80 4.35L8.77 4.28L8.70 4.25L8.63 4.28L8.60 4.35L8.63 4.42L8.70 4.45"/>
    <path style="stroke:black;fill:none;stroke-width:0.130;stroke-linecap:round" d="M8.70 6.95L8.77 6.92L8.80 6.85L8.77 6.78L8.70 6.75L8.63 6.78L8.60 6.85L8.63 6.92L8.70 6.95"/>
    <path style="stroke:black;fill:none;stroke-width:0.130;stroke-linecap:round" d="M8.70 9.45L8.77 9.42L8.80 9.35L8.77 9.28L8.70 9.25L8.63 9.28L8.60 9.35L8.63 9.42L8.70 9.45"/>
  </g>
</svg>
