<?xml version="1.0"?>
<!DOCTYPE svg PUBLIC "-//W3C//DTD SVG 1.0//EN" "http://www.w3.org/TR/2001/REC-SVG-20010904/DTD/svg10.dtd">
<!--Generator: arx shpOut 1.0 Virgilio Cima e Marco Guiducci - Regione Toscana-->

<svg xmlns="http://www.w3.org/2000/svg" xmlns:xlink="http://www.w3.org/1999/xlink" xmlns:ev="http://www.w3.org/2001/xml-events" width="10.00" height="10.00">
  <g id="sv10" transform="translate(-5.00 -5.00)">
    <path style="stroke:black;fill:none;stroke-width:0.150;stroke-linecap:round" d="M12.68 14.80L12.79 15.00M10.02 15.00L10.07 14.72M9.75 14.95L9.76 15.00M13.81 15.00L13.57 14.71M7.85 14.89L7.85 15.00M6.58 14.94L6.75 15.00M11.01 15.00L11.18 14.79M6.08 15.00L6.18 14.81M5.00 8.70L5.06 8.74"/>
    <path style="stroke:black;fill:none;stroke-width:0.150;stroke-linecap:round" d="M5.00 10.65L5.12 10.67M5.00 6.16L5.24 6.12M5.00 8.22L5.29 7.87M5.00 13.00L5.40 12.86M5.26 14.20L5.00 14.51M5.48 13.29L5.00 13.38"/>
    <path style="stroke:black;fill:none;stroke-width:0.150;stroke-linecap:round" d="M5.09 9.52L5.00 9.36M5.10 11.48L5.00 11.21M9.85 10.25L9.85 9.65M9.94 9.37L9.83 8.78M9.00 9.36L8.80 8.79M7.18 10.58L6.88 10.06"/>
    <path style="stroke:black;fill:none;stroke-width:0.150;stroke-linecap:round" d="M6.35 7.50L5.97 7.04M8.24 9.46L7.78 9.07M9.28 11.15L8.76 10.85M9.54 11.64L8.98 11.43M10.22 11.62L9.63 11.52M6.05 11.40L5.45 11.40"/>
    <path style="stroke:black;fill:none;stroke-width:0.150;stroke-linecap:round" d="M7.05 10.59L6.46 10.69M9.58 11.83L9.01 12.04M7.41 7.59L6.89 7.89M8.30 11.70L7.84 12.09M7.25 8.14L6.86 8.60M6.88 8.64L6.58 9.16"/>
    <path style="stroke:black;fill:none;stroke-width:0.150;stroke-linecap:round" d="M9.77 11.97L9.56 12.54M13.28 12.53L13.18 13.12M6.51 11.87L6.51 12.47M8.89 11.93L8.99 12.52M13.77 12.01L13.97 12.57"/>
    <path style="stroke:black;fill:none;stroke-width:0.150;stroke-linecap:round" d="M9.80 13.15L10.10 13.67M12.54 10.41L12.93 10.87M7.50 13.04L7.96 13.42M7.14 10.63L7.66 10.93M11.65 13.53L12.21 13.73"/>
    <path style="stroke:black;fill:none;stroke-width:0.150;stroke-linecap:round" d="M7.99 7.18L8.58 7.28M11.53 11.46L12.13 11.46M11.65 12.09L12.24 11.99M10.79 10.49L11.36 10.29M9.50 10.79L10.02 10.49"/>
    <path style="stroke:black;fill:none;stroke-width:0.150;stroke-linecap:round" d="M11.52 9.08L11.98 8.70M10.01 8.20L10.39 7.74M12.91 11.43L13.21 10.91M11.15 11.11L11.35 10.54M10.34 10.24L10.45 9.65"/>
    <path style="stroke:black;fill:none;stroke-width:0.150;stroke-linecap:round" d="M12.09 5.83L12.19 5.24M9.67 7.24L9.88 6.67M5.88 5.33L6.08 5.00M10.79 5.25L11.01 5.00M8.47 5.56L8.93 5.17M7.00 6.62L7.52 6.32"/>
    <path style="stroke:black;fill:none;stroke-width:0.150;stroke-linecap:round" d="M9.49 7.11L10.06 6.90M12.83 5.99L13.43 5.88M11.20 6.21L11.80 6.21M8.57 5.78L9.16 5.88M6.75 5.00L7.14 5.14M7.45 5.91L7.97 6.21"/>
    <path style="stroke:black;fill:none;stroke-width:0.150;stroke-linecap:round" d="M6.61 5.58L7.07 5.96M7.57 6.10L7.96 6.56M5.86 8.42L6.16 8.94M5.44 8.96L5.65 9.53M6.39 5.12L6.49 5.71M7.85 5.00L7.85 5.49"/>
    <path style="stroke:black;fill:none;stroke-width:0.150;stroke-linecap:round" d="M6.36 6.40L6.26 6.99M12.61 5.68L12.41 6.24M6.16 8.19L5.86 8.71M7.25 10.09L6.86 10.55M5.77 7.22L5.31 7.60M8.54 5.06L8.02 5.36"/>
    <path style="stroke:black;fill:none;stroke-width:0.150;stroke-linecap:round" d="M6.05 6.70L5.48 6.90M9.32 9.60L8.72 9.70M6.94 8.01L6.34 8.01M12.79 5.84L12.20 5.73M12.18 5.72L11.62 5.51M8.80 9.64L8.28 9.34"/>
    <path style="stroke:black;fill:none;stroke-width:0.150;stroke-linecap:round" d="M11.60 8.77L11.14 8.39M13.96 5.17L13.81 5.00M5.84 9.21L5.54 8.69M6.47 9.53L6.26 8.96M5.65 6.02L5.55 5.42M5.84 10.52L5.84 9.92"/>
    <path style="stroke:black;fill:none;stroke-width:0.150;stroke-linecap:round" d="M14.30 6.69L14.30 6.09M8.02 13.24L7.91 12.65M15.00 11.21L14.89 10.91M15.00 9.36L14.79 9.00M11.46 7.98L11.07 7.52"/>
    <path style="stroke:black;fill:none;stroke-width:0.150;stroke-linecap:round" d="M7.15 11.79L6.69 11.40M9.01 12.65L8.49 12.35M6.84 13.35L6.27 13.15M10.57 14.15L9.98 14.05M7.14 14.10L6.54 14.10"/>
    <path style="stroke:black;fill:none;stroke-width:0.150;stroke-linecap:round" d="M15.00 13.38L14.89 13.40M10.33 12.45L9.77 12.65M14.81 9.61L14.29 9.91M12.42 7.18L11.96 7.57M15.00 14.51L14.88 14.66"/>
    <path style="stroke:black;fill:none;stroke-width:0.150;stroke-linecap:round" d="M10.82 12.51L10.52 13.03M12.37 8.93L12.17 9.49M6.94 12.46L6.84 13.05M11.60 11.65L11.60 12.25M9.76 5.00L9.85 5.54"/>
    <path style="stroke:black;fill:none;stroke-width:0.150;stroke-linecap:round" d="M5.92 11.91L6.13 12.47M11.82 6.51L12.12 7.03M7.88 12.22L8.27 12.68M11.75 12.70L12.21 13.08M13.45 13.03L13.97 13.33"/>
    <path style="stroke:black;fill:none;stroke-width:0.150;stroke-linecap:round" d="M13.29 12.53L13.85 12.74M13.95 13.48L14.54 13.58M8.87 14.01L9.47 14.01M5.71 13.72L6.30 13.62M14.84 13.06L15.00 13.00"/>
    <path style="stroke:black;fill:none;stroke-width:0.150;stroke-linecap:round" d="M8.64 13.40L9.16 13.10M10.80 13.84L11.26 13.45M11.72 14.43L12.10 13.97M14.35 11.05L14.65 10.53M8.54 14.46L8.75 13.90"/>
    <path style="stroke:black;fill:none;stroke-width:0.150;stroke-linecap:round" d="M9.97 5.32L10.02 5.00M9.18 7.40L9.28 6.81M12.38 9.87L12.58 9.31M13.56 12.66L13.86 12.14M9.39 14.84L9.77 14.38"/>
    <path style="stroke:black;fill:none;stroke-width:0.150;stroke-linecap:round" d="M6.93 13.81L7.39 13.42M6.45 7.44L6.97 7.14M11.96 14.40L12.52 14.19M13.31 11.02L13.91 10.91M11.31 13.77L11.91 13.77"/>
    <path style="stroke:black;fill:none;stroke-width:0.150;stroke-linecap:round" d="M12.75 6.67L13.34 6.77M11.46 11.28L12.02 11.49M6.87 7.59L7.39 7.89M6.95 8.35L7.41 8.73M13.98 13.63L14.37 14.09"/>
    <path style="stroke:black;fill:none;stroke-width:0.150;stroke-linecap:round" d="M9.59 7.91L9.89 8.43M9.86 10.06L10.07 10.62M12.28 9.33L12.39 9.92M12.80 13.04L12.80 13.64M14.17 8.25L14.07 8.84"/>
    <path style="stroke:black;fill:none;stroke-width:0.150;stroke-linecap:round" d="M9.80 8.34L9.60 8.91M14.14 11.00L13.84 11.52M12.70 7.59L12.31 8.05M7.44 10.88L6.99 11.27M8.81 6.60L8.30 6.90"/>
    <path style="stroke:black;fill:none;stroke-width:0.150;stroke-linecap:round" d="M14.10 7.28L13.53 7.48M6.64 11.48L6.05 11.58M9.71 8.32L9.11 8.32M8.89 7.51L8.30 7.41M6.02 9.35L5.45 9.14M11.58 6.83L11.06 6.53"/>
    <path style="stroke:black;fill:none;stroke-width:0.150;stroke-linecap:round" d="M10.47 8.84L10.01 8.46M9.61 8.73L9.22 8.27M7.55 14.72L7.25 14.20M8.21 7.71L8.01 7.15M5.76 14.74L5.65 14.15"/>
    <path style="stroke:black;fill:none;stroke-width:0.150;stroke-linecap:round" d="M6.35 12.06L6.35 11.46M6.59 7.62L6.59 7.02M11.30 11.00L11.09 10.44M9.51 7.64L9.21 7.12M5.59 13.53L5.20 13.07"/>
    <path style="stroke:black;fill:none;stroke-width:0.150;stroke-linecap:round" d="M8.59 11.02L8.13 10.63M8.25 9.82L7.69 10.02M13.86 6.48L14.46 6.48M9.87 7.17L10.43 6.97M13.43 14.60L13.95 14.30"/>
    <path style="stroke:black;fill:none;stroke-width:0.150;stroke-linecap:round" d="M11.79 14.75L12.25 14.36M10.28 6.31L10.67 5.85M11.85 10.43L12.15 9.91M8.04 10.16L8.25 9.59M14.73 7.57L14.83 6.98"/>
    <path style="stroke:black;fill:none;stroke-width:0.150;stroke-linecap:round" d="M13.68 11.14L13.89 10.58M12.13 8.07L12.43 7.55M14.90 8.33L15.00 8.22M14.23 5.42L14.69 5.03M12.44 6.52L12.96 6.22"/>
    <path style="stroke:black;fill:none;stroke-width:0.150;stroke-linecap:round" d="M10.55 13.30L11.12 13.10M14.65 6.23L15.00 6.16M10.76 5.76L11.36 5.76M14.53 10.57L15.00 10.65M13.63 10.75L14.20 10.96"/>
    <path style="stroke:black;fill:none;stroke-width:0.150;stroke-linecap:round" d="M14.54 8.44L15.00 8.70M12.67 10.89L13.13 11.27M13.50 14.24L13.89 14.70M12.79 5.00L12.98 5.31M13.97 9.72L14.18 10.28"/>
    <path style="stroke:black;fill:none;stroke-width:0.150;stroke-linecap:round" d="M13.69 9.22L13.79 9.82M14.63 12.49L14.63 13.09M14.24 6.74L14.14 7.33M14.74 11.39L14.53 11.95M10.92 11.21L10.62 11.73"/>
    <path style="stroke:black;fill:none;stroke-width:0.150;stroke-linecap:round" d="M14.10 8.48L13.71 8.94M7.92 13.28L7.46 13.66M13.23 8.24L12.72 8.54M13.38 8.79L12.81 8.99M12.57 8.67L11.98 8.78"/>
    <path style="stroke:black;fill:none;stroke-width:0.150;stroke-linecap:round" d="M14.20 7.12L13.60 7.12M12.25 6.25L11.66 6.14M12.87 12.73L12.30 12.53M12.80 13.61L12.28 13.31M12.93 13.43L12.47 13.04"/>
    <path style="stroke:black;fill:none;stroke-width:0.150;stroke-linecap:round" d="M13.99 8.08L13.61 7.62M11.67 6.99L11.37 6.47M14.83 6.28L14.62 5.71M7.23 13.92L7.13 13.33M6.97 10.28L6.97 9.68"/>
  </g>
</svg>
