<?xml version="1.0"?>
<!DOCTYPE svg PUBLIC "-//W3C//DTD SVG 1.0//EN" "http://www.w3.org/TR/2001/REC-SVG-20010904/DTD/svg10.dtd">
<!--Generator: arx shpOut 1.0 Virgilio Cima e Marco Guiducci - Regione Toscana-->

<svg xmlns="http://www.w3.org/2000/svg" xmlns:xlink="http://www.w3.org/1999/xlink" xmlns:ev="http://www.w3.org/2001/xml-events" width="10.00" height="10.00">
  <g id="sv16">
    <path style="stroke:black;fill:none;stroke-width:0.130;stroke-linecap:round" d="M0.46 0.04L0.04 0.46M1.18 0.04L0.75 0.46M1.89 0.04L1.47 0.46M2.61 0.04L2.18 0.46M3.32 0.04L2.90 0.46M4.03 0.04L3.61 0.46M4.75 0.04L4.32 0.46M5.46 0.04L5.04 0.46M6.18 0.04L5.75 0.46M6.89 0.04L6.47 0.46M7.61 0.04L7.18 0.46M8.32 0.04L7.90 0.46M9.03 0.04L8.61 0.46M9.75 0.04L9.32 0.46"/>
    <path style="stroke:black;fill:none;stroke-width:0.130;stroke-linecap:round" d="M0.46 0.75L0.04 1.18M1.18 0.75L0.75 1.18M1.89 0.75L1.47 1.18M2.61 0.75L2.18 1.18M3.32 0.75L2.90 1.18M4.03 0.75L3.61 1.18M4.75 0.75L4.32 1.18M5.46 0.75L5.04 1.18M6.18 0.75L5.75 1.18M6.89 0.75L6.47 1.18M7.61 0.75L7.18 1.18M8.32 0.75L7.90 1.18M9.03 0.75L8.61 1.18M9.75 0.75L9.32 1.18"/>
    <path style="stroke:black;fill:none;stroke-width:0.130;stroke-linecap:round" d="M0.46 1.47L0.04 1.89M1.18 1.47L0.75 1.89M1.89 1.47L1.47 1.89M2.61 1.47L2.18 1.89M3.32 1.47L2.90 1.89M4.03 1.47L3.61 1.89M4.75 1.47L4.32 1.89M5.46 1.47L5.04 1.89M6.18 1.47L5.75 1.89M6.89 1.47L6.47 1.89M7.61 1.47L7.18 1.89M8.32 1.47L7.90 1.89M9.03 1.47L8.61 1.89M9.75 1.47L9.32 1.89"/>
    <path style="stroke:black;fill:none;stroke-width:0.130;stroke-linecap:round" d="M0.46 2.18L0.04 2.61M1.18 2.18L0.75 2.61M1.89 2.18L1.47 2.61M2.61 2.18L2.18 2.61M3.32 2.18L2.90 2.61M4.03 2.18L3.61 2.61M4.75 2.18L4.32 2.61M5.46 2.18L5.04 2.61M6.18 2.18L5.75 2.61M6.89 2.18L6.47 2.61M7.61 2.18L7.18 2.61M8.32 2.18L7.90 2.61M9.03 2.18L8.61 2.61M9.75 2.18L9.32 2.61"/>
    <path style="stroke:black;fill:none;stroke-width:0.130;stroke-linecap:round" d="M0.46 2.90L0.04 3.32M1.18 2.90L0.75 3.32M1.89 2.90L1.47 3.32M2.61 2.90L2.18 3.32M3.32 2.90L2.90 3.32M4.03 2.90L3.61 3.32M4.75 2.90L4.32 3.32M5.46 2.90L5.04 3.32M6.18 2.90L5.75 3.32M6.89 2.90L6.47 3.32M7.61 2.90L7.18 3.32M8.32 2.90L7.90 3.32M9.03 2.90L8.61 3.32M9.75 2.90L9.32 3.32"/>
    <path style="stroke:black;fill:none;stroke-width:0.130;stroke-linecap:round" d="M0.46 3.61L0.04 4.03M1.18 3.61L0.75 4.03M1.89 3.61L1.47 4.03M2.61 3.61L2.18 4.03M3.32 3.61L2.90 4.03M4.03 3.61L3.61 4.03M4.75 3.61L4.32 4.03M5.46 3.61L5.04 4.03M6.18 3.61L5.75 4.03M6.89 3.61L6.47 4.03M7.61 3.61L7.18 4.03M8.32 3.61L7.90 4.03M9.03 3.61L8.61 4.03M9.75 3.61L9.32 4.03"/>
    <path style="stroke:black;fill:none;stroke-width:0.130;stroke-linecap:round" d="M0.46 4.32L0.04 4.75M1.18 4.32L0.75 4.75M1.89 4.32L1.47 4.75M2.61 4.32L2.18 4.75M3.32 4.32L2.90 4.75M4.03 4.32L3.61 4.75M4.75 4.32L4.32 4.75M5.46 4.32L5.04 4.75M6.18 4.32L5.75 4.75M6.89 4.32L6.47 4.75M7.61 4.32L7.18 4.75M8.32 4.32L7.90 4.75M9.03 4.32L8.61 4.75M9.75 4.32L9.32 4.75"/>
    <path style="stroke:black;fill:none;stroke-width:0.130;stroke-linecap:round" d="M0.46 5.04L0.04 5.46M1.18 5.04L0.75 5.46M1.89 5.04L1.47 5.46M2.61 5.04L2.18 5.46M3.32 5.04L2.90 5.46M4.03 5.04L3.61 5.46M4.75 5.04L4.32 5.46M5.46 5.04L5.04 5.46M6.18 5.04L5.75 5.46M6.89 5.04L6.47 5.46M7.61 5.04L7.18 5.46M8.32 5.04L7.90 5.46M9.03 5.04L8.61 5.46M9.75 5.04L9.32 5.46"/>
    <path style="stroke:black;fill:none;stroke-width:0.130;stroke-linecap:round" d="M0.46 5.75L0.04 6.18M1.18 5.75L0.75 6.18M1.89 5.75L1.47 6.18M2.61 5.75L2.18 6.18M3.32 5.75L2.90 6.18M4.03 5.75L3.61 6.18M4.75 5.75L4.32 6.18M5.46 5.75L5.04 6.18M6.18 5.75L5.75 6.18M6.89 5.75L6.47 6.18M7.61 5.75L7.18 6.18M8.32 5.75L7.90 6.18M9.03 5.75L8.61 6.18M9.75 5.75L9.32 6.18"/>
    <path style="stroke:black;fill:none;stroke-width:0.130;stroke-linecap:round" d="M0.46 6.47L0.04 6.89M1.18 6.47L0.75 6.89M1.89 6.47L1.47 6.89M2.61 6.47L2.18 6.89M3.32 6.47L2.90 6.89M4.03 6.47L3.61 6.89M4.75 6.47L4.32 6.89M5.46 6.47L5.04 6.89M6.18 6.47L5.75 6.89M6.89 6.47L6.47 6.89M7.61 6.47L7.18 6.89M8.32 6.47L7.90 6.89M9.03 6.47L8.61 6.89M9.75 6.47L9.32 6.89"/>
    <path style="stroke:black;fill:none;stroke-width:0.130;stroke-linecap:round" d="M0.46 7.18L0.04 7.61M1.18 7.18L0.75 7.61M1.89 7.18L1.47 7.61M2.61 7.18L2.18 7.61M3.32 7.18L2.90 7.61M4.03 7.18L3.61 7.61M4.75 7.18L4.32 7.61M5.46 7.18L5.04 7.61M6.18 7.18L5.75 7.61M6.89 7.18L6.47 7.61M7.61 7.18L7.18 7.61M8.32 7.18L7.90 7.61M9.03 7.18L8.61 7.61M9.75 7.18L9.32 7.61"/>
    <path style="stroke:black;fill:none;stroke-width:0.130;stroke-linecap:round" d="M0.46 7.90L0.04 8.32M1.18 7.90L0.75 8.32M1.89 7.90L1.47 8.32M2.61 7.90L2.18 8.32M3.32 7.90L2.90 8.32M4.03 7.90L3.61 8.32M4.75 7.90L4.32 8.32M5.46 7.90L5.04 8.32M6.18 7.90L5.75 8.32M6.89 7.90L6.47 8.32M7.61 7.90L7.18 8.32M8.32 7.90L7.90 8.32M9.03 7.90L8.61 8.32M9.75 7.90L9.32 8.32"/>
    <path style="stroke:black;fill:none;stroke-width:0.130;stroke-linecap:round" d="M0.46 8.61L0.04 9.03M1.18 8.61L0.75 9.03M1.89 8.61L1.47 9.03M2.61 8.61L2.18 9.03M3.32 8.61L2.90 9.03M4.03 8.61L3.61 9.03M4.75 8.61L4.32 9.03M5.46 8.61L5.04 9.03M6.18 8.61L5.75 9.03M6.89 8.61L6.47 9.03M7.61 8.61L7.18 9.03M8.32 8.61L7.90 9.03M9.03 8.61L8.61 9.03M9.75 8.61L9.32 9.03"/>
    <path style="stroke:black;fill:none;stroke-width:0.130;stroke-linecap:round" d="M0.46 9.32L0.04 9.75M1.18 9.32L0.75 9.75M1.89 9.32L1.47 9.75M2.61 9.32L2.18 9.75M3.32 9.32L2.90 9.75M4.03 9.32L3.61 9.75M4.75 9.32L4.32 9.75M5.46 9.32L5.04 9.75M6.18 9.32L5.75 9.75M6.89 9.32L6.47 9.75M7.61 9.32L7.18 9.75M8.32 9.32L7.90 9.75M9.03 9.32L8.61 9.75M9.75 9.32L9.32 9.75"/>
  </g>
</svg>
