<?xml version="1.0" standalone="no"?>
<!DOCTYPE svg PUBLIC "-//W3C//DTD SVG 20010904//EN"
 "http://www.w3.org/TR/2001/REC-SVG-20010904/DTD/svg10.dtd">
<svg version="1.0" xmlns="http://www.w3.org/2000/svg"
 width="1125.000000pt" height="900.000000pt" viewBox="0 0 1125.000000 900.000000"
 preserveAspectRatio="xMidYMid meet">
<metadata>
Created by potrace 1.13, written by Peter Selinger 2001-2015
</metadata>
<g transform="translate(0.000000,900.000000) scale(0.100000,-0.100000)"
fill="#000000" stroke="none">
<path d="M0 4500 l0 -4500 5625 0 5625 0 0 4500 0 4500 -5625 0 -5625 0 0
-4500z m11208 4238 l2 -218 -567 -2 -568 -3 0 -30 0 -30 568 -3 567 -2 -2
-253 -3 -252 -137 -3 -138 -3 0 -29 0 -29 138 -3 137 -3 0 -600 0 -600 -317
-3 -318 -2 0 -30 0 -30 318 -2 317 -3 3 -567 2 -568 -352 -2 -353 -3 0 -30 0
-30 353 -3 352 -2 -2 -578 -3 -577 -302 -3 -303 -2 0 -30 0 -30 303 -2 302 -3
3 -266 2 -266 -30 -31 c-39 -41 -39 -76 0 -112 l30 -28 -2 -259 -3 -258 -167
-3 -168 -2 0 -30 0 -30 170 0 170 0 0 -585 0 -585 -220 0 -220 0 0 -35 0 -35
220 0 220 0 0 -276 0 -275 -29 -10 c-63 -22 -63 -102 -1 -134 l30 -16 0 -244
0 -245 -303 -2 -302 -3 -3 -32 -3 -33 306 0 305 0 -2 -167 -3 -168 -5580 0
-5580 0 -3 167 -2 168 297 2 298 3 0 30 0 30 -297 3 -298 2 0 245 0 244 29 15
c62 33 55 116 -11 139 -17 6 -18 29 -18 282 l0 275 380 0 380 0 0 35 0 35
-380 0 -380 0 0 585 0 585 430 0 430 0 0 30 0 30 -428 2 -427 3 -3 262 -2 261
30 7 c35 8 60 39 60 76 0 29 -21 52 -63 68 l-27 11 2 267 3 268 298 3 297 2 0
30 0 30 -297 2 -298 3 -3 577 -2 578 247 2 248 3 0 30 0 30 -248 3 -247 2 2
568 3 567 278 3 277 2 0 30 0 30 -277 2 -278 3 0 600 0 600 463 3 462 2 0 30
0 30 -462 2 -463 3 -3 252 -2 252 32 3 c29 3 33 6 33 33 0 27 -4 30 -32 33
l-33 3 0 213 c0 117 3 216 7 219 3 4 2515 6 5582 5 l5576 -3 3 -217z"/>
<path d="M380 8520 c-43 -43 -11 -120 50 -120 38 0 70 32 70 70 0 38 -32 70
-70 70 -17 0 -39 -9 -50 -20z"/>
<path d="M2231 8514 c-12 -15 -21 -34 -21 -44 0 -34 39 -70 75 -70 36 0 75 36
75 70 0 34 -39 70 -75 70 -24 0 -39 -7 -54 -26z"/>
<path d="M4107 8523 c-45 -51 -17 -123 48 -123 36 0 75 36 75 70 0 10 -9 29
-21 44 -24 31 -77 36 -102 9z"/>
<path d="M5961 8514 c-12 -15 -21 -34 -21 -44 0 -34 39 -70 75 -70 36 0 75 36
75 70 0 34 -39 70 -75 70 -24 0 -39 -7 -54 -26z"/>
<path d="M7825 8520 c-41 -45 -10 -120 50 -120 38 0 75 35 75 71 0 58 -87 91
-125 49z"/>
<path d="M9682 8524 c-16 -11 -22 -25 -22 -54 0 -29 6 -43 22 -54 51 -36 118
-5 118 54 0 59 -67 90 -118 54z"/>
<path d="M770 8485 l0 -35 595 0 595 0 0 35 0 35 -595 0 -595 0 0 -35z"/>
<path d="M2644 8506 c-3 -8 -4 -23 -2 -33 3 -17 33 -18 601 -21 l597 -2 0 35
0 35 -595 0 c-510 0 -596 -2 -601 -14z"/>
<path d="M4500 8485 l0 -35 598 2 597 3 0 30 0 30 -597 3 -598 2 0 -35z"/>
<path d="M6360 8485 l0 -35 595 0 595 0 0 35 0 35 -595 0 -595 0 0 -35z"/>
<path d="M8214 8506 c-3 -8 -4 -23 -2 -33 3 -17 33 -18 601 -21 l597 -2 0 35
0 35 -595 0 c-510 0 -596 -2 -601 -14z"/>
<path d="M1276 7949 c-19 -15 -26 -30 -26 -54 0 -36 36 -75 70 -75 34 0 70 39
70 75 0 36 -36 75 -70 75 -10 0 -29 -9 -44 -21z"/>
<path d="M3143 7958 c-27 -13 -43 -55 -32 -84 9 -26 47 -54 72 -54 26 0 67 45
67 75 0 30 -41 75 -67 74 -10 0 -28 -5 -40 -11z"/>
<path d="M5015 7958 c-28 -16 -35 -28 -35 -65 0 -35 37 -73 72 -73 27 0 68 45
68 75 0 30 -41 75 -67 75 -10 0 -27 -6 -38 -12z"/>
<path d="M6859 7951 c-28 -23 -32 -83 -6 -108 25 -26 85 -22 108 6 26 32 24
67 -6 96 -29 30 -64 32 -96 6z"/>
<path d="M8726 7949 c-19 -15 -26 -30 -26 -54 0 -37 37 -75 72 -75 29 0 68 45
68 79 0 32 -38 71 -70 71 -10 0 -29 -9 -44 -21z"/>
<path d="M10576 7949 c-19 -15 -26 -30 -26 -54 0 -36 36 -75 70 -75 34 0 70
39 70 75 0 36 -36 75 -70 75 -10 0 -29 -9 -44 -21z"/>
<path d="M1630 7910 l0 -30 605 0 605 0 0 30 0 30 -605 0 -605 0 0 -30z"/>
<path d="M3500 7910 l0 -30 600 0 600 0 0 30 0 30 -600 0 -600 0 0 -30z"/>
<path d="M5360 7910 l0 -30 600 0 600 0 0 30 0 30 -600 0 -600 0 0 -30z"/>
<path d="M7220 7910 l0 -30 600 0 600 0 0 30 0 30 -600 0 -600 0 0 -30z"/>
<path d="M9080 7910 l0 -30 595 0 595 0 0 30 0 30 -595 0 -595 0 0 -30z"/>
<path d="M295 7305 c-14 -13 -25 -36 -25 -50 0 -29 40 -75 65 -75 20 0 57 19
67 34 18 26 8 75 -18 95 -35 27 -59 26 -89 -4z"/>
<path d="M2156 7309 c-19 -15 -26 -30 -26 -54 0 -36 36 -75 70 -75 34 0 70 39
70 75 0 36 -36 75 -70 75 -10 0 -29 -9 -44 -21z"/>
<path d="M4026 7309 c-36 -28 -36 -80 0 -108 15 -12 34 -21 44 -21 34 0 70 39
70 75 0 36 -36 75 -70 75 -10 0 -29 -9 -44 -21z"/>
<path d="M5894 7318 c-69 -33 -37 -138 42 -138 24 0 64 47 64 75 0 30 -41 75
-67 74 -10 0 -28 -5 -39 -11z"/>
<path d="M7746 7309 c-19 -15 -26 -30 -26 -54 0 -36 36 -75 70 -75 34 0 70 39
70 75 0 36 -36 75 -70 75 -10 0 -29 -9 -44 -21z"/>
<path d="M9595 7305 c-14 -13 -25 -36 -25 -50 0 -30 41 -75 68 -75 35 0 72 38
72 75 0 24 -7 39 -26 54 -35 27 -59 26 -89 -4z"/>
<path d="M670 7260 l0 -30 595 0 595 0 0 30 0 30 -595 0 -595 0 0 -30z"/>
<path d="M2540 7260 l0 -30 600 0 600 0 0 30 0 30 -600 0 -600 0 0 -30z"/>
<path d="M4400 7260 l0 -30 601 0 600 0 -3 28 -3 27 -597 3 -598 2 0 -30z"/>
<path d="M6260 7260 l0 -30 595 0 595 0 0 30 0 30 -595 0 -595 0 0 -30z"/>
<path d="M8117 7283 c-4 -3 -7 -17 -7 -30 l0 -23 600 0 600 0 0 30 0 30 -593
0 c-327 0 -597 -3 -600 -7z"/>
<path d="M9970 7260 l0 -30 600 0 600 0 0 30 0 30 -600 0 -600 0 0 -30z"/>
<path d="M910 6680 c-42 -42 -12 -120 48 -120 46 0 72 25 72 70 0 29 -6 43
-22 54 -31 22 -74 20 -98 -4z"/>
<path d="M2770 6680 c-28 -28 -27 -84 2 -104 51 -36 118 -5 118 54 0 38 -32
70 -70 70 -17 0 -39 -9 -50 -20z"/>
<path d="M4640 6680 c-28 -28 -27 -84 2 -104 51 -36 118 -5 118 54 0 38 -32
70 -70 70 -17 0 -39 -9 -50 -20z"/>
<path d="M6495 6680 c-42 -46 -10 -120 51 -120 35 0 74 37 74 70 0 10 -9 29
-21 44 -26 33 -77 36 -104 6z"/>
<path d="M8360 6680 c-11 -11 -20 -33 -20 -50 0 -17 9 -39 20 -50 11 -11 33
-20 50 -20 17 0 39 9 50 20 11 11 20 33 20 50 0 17 -9 39 -20 50 -11 11 -33
20 -50 20 -17 0 -39 -9 -50 -20z"/>
<path d="M10210 6680 c-11 -11 -20 -33 -20 -50 0 -17 9 -39 20 -50 43 -43 120
-11 120 50 0 38 -32 70 -70 70 -17 0 -39 -9 -50 -20z"/>
<path d="M1260 6640 l0 -30 605 0 605 0 0 30 0 30 -605 0 -605 0 0 -30z"/>
<path d="M3140 6640 l0 -30 601 0 600 0 -3 28 -3 27 -597 3 -598 2 0 -30z"/>
<path d="M5000 6640 l0 -30 595 0 595 0 0 30 0 30 -595 0 -595 0 0 -30z"/>
<path d="M6857 6663 c-4 -3 -7 -17 -7 -30 l0 -23 600 0 600 0 0 30 0 30 -593
0 c-327 0 -597 -3 -600 -7z"/>
<path d="M8710 6640 l0 -30 600 0 600 0 0 30 0 30 -600 0 -600 0 0 -30z"/>
<path d="M151 6084 c-27 -35 -27 -65 2 -92 48 -46 120 -16 120 50 0 64 -83 92
-122 42z"/>
<path d="M2010 6090 c-43 -43 -11 -120 50 -120 38 0 70 32 70 70 0 38 -32 70
-70 70 -17 0 -39 -9 -50 -20z"/>
<path d="M3880 6090 c-43 -43 -11 -120 50 -120 38 0 70 32 70 70 0 38 -32 70
-70 70 -17 0 -39 -9 -50 -20z"/>
<path d="M5742 6094 c-28 -20 -31 -83 -4 -107 25 -23 78 -21 102 3 61 61 -27
154 -98 104z"/>
<path d="M7600 6090 c-45 -45 -11 -120 53 -120 42 0 67 26 67 68 0 41 -31 72
-70 72 -17 0 -39 -9 -50 -20z"/>
<path d="M9452 6087 c-45 -48 -14 -117 51 -117 42 0 70 29 70 72 0 61 -78 91
-121 45z"/>
<path d="M500 6050 l0 -30 600 0 600 0 0 30 0 30 -600 0 -600 0 0 -30z"/>
<path d="M2380 6050 l0 -30 595 0 595 0 0 30 0 30 -595 0 -595 0 0 -30z"/>
<path d="M4230 6050 l0 -30 600 0 600 0 0 30 0 30 -600 0 -600 0 0 -30z"/>
<path d="M6090 6050 l0 -30 600 0 600 0 0 30 0 30 -600 0 -600 0 0 -30z"/>
<path d="M7950 6050 l0 -30 598 2 597 3 3 28 3 27 -600 0 -601 0 0 -30z"/>
<path d="M9810 6050 l0 -30 595 0 595 0 0 30 0 30 -595 0 -595 0 0 -30z"/>
<path d="M821 5474 c-12 -15 -21 -35 -21 -46 0 -27 45 -68 75 -68 30 0 75 41
75 68 0 35 -38 72 -75 72 -24 0 -39 -7 -54 -26z"/>
<path d="M2680 5480 c-42 -42 -8 -120 53 -120 58 0 91 85 49 123 -25 23 -78
21 -102 -3z"/>
<path d="M4550 5480 c-42 -42 -8 -120 53 -120 58 0 91 85 49 123 -25 23 -78
21 -102 -3z"/>
<path d="M6407 5482 c-40 -45 -6 -122 53 -122 59 0 90 67 54 118 -20 28 -83
31 -107 4z"/>
<path d="M8270 5480 c-26 -26 -25 -60 1 -94 25 -31 66 -35 100 -8 28 23 30 73
4 102 -24 26 -79 26 -105 0z"/>
<path d="M10126 5485 c-59 -59 10 -155 83 -114 62 35 41 121 -31 127 -23 2
-41 -3 -52 -13z"/>
<path d="M1200 5435 l0 -35 600 0 600 0 0 35 0 35 -600 0 -600 0 0 -35z"/>
<path d="M3074 5456 c-3 -8 -4 -23 -2 -33 3 -17 33 -18 601 -21 l598 -2 -3 32
-3 33 -593 3 c-510 2 -593 0 -598 -12z"/>
<path d="M4930 5435 l0 -35 598 2 597 3 0 30 0 30 -597 3 -598 2 0 -35z"/>
<path d="M6790 5435 l0 -35 595 0 595 0 0 35 0 35 -595 0 -595 0 0 -35z"/>
<path d="M8650 5435 l0 -35 595 0 595 0 0 35 0 35 -595 0 -595 0 0 -35z"/>
<path d="M1565 4855 c-28 -27 -30 -42 -14 -79 16 -34 58 -51 91 -35 26 11 48
46 48 75 0 24 -47 64 -75 64 -14 0 -37 -11 -50 -25z"/>
<path d="M3425 4855 c-46 -45 -19 -118 43 -118 43 0 72 28 72 70 0 67 -68 96
-115 48z"/>
<path d="M5295 4855 c-46 -45 -19 -118 43 -118 43 0 72 28 72 70 0 67 -68 96
-115 48z"/>
<path d="M7152 4857 c-45 -48 -16 -120 48 -120 65 0 95 76 47 121 -30 28 -68
28 -95 -1z"/>
<path d="M9015 4855 c-46 -46 -19 -118 44 -118 66 0 101 84 52 125 -32 25 -67
23 -96 -7z"/>
<path d="M10865 4855 c-39 -39 -32 -86 17 -111 59 -30 122 27 99 89 -19 51
-77 62 -116 22z"/>
<path d="M70 4810 l0 -30 600 0 600 0 0 30 0 30 -600 0 -600 0 0 -30z"/>
<path d="M1930 4810 l0 -30 605 0 605 0 0 30 0 30 -605 0 -605 0 0 -30z"/>
<path d="M3800 4810 l0 -30 600 0 600 0 0 30 0 30 -600 0 -600 0 0 -30z"/>
<path d="M5660 4810 l0 -30 600 0 600 0 0 30 0 30 -600 0 -600 0 0 -30z"/>
<path d="M7520 4810 l0 -30 595 0 595 0 0 30 0 30 -595 0 -595 0 0 -30z"/>
<path d="M9374 4825 c-4 -8 -4 -22 0 -30 5 -13 81 -15 601 -15 l595 0 0 30 0
30 -595 0 c-520 0 -596 -2 -601 -15z"/>
<path d="M932 4283 c-7 -3 -19 -18 -27 -33 -40 -77 71 -147 120 -77 42 60 -24
138 -93 110z"/>
<path d="M2775 4265 c-39 -39 -32 -86 17 -111 59 -30 122 27 99 89 -19 51 -77
62 -116 22z"/>
<path d="M4645 4265 c-39 -39 -32 -86 17 -111 59 -30 122 27 99 89 -19 51 -77
62 -116 22z"/>
<path d="M6505 4265 c-29 -28 -32 -65 -7 -93 43 -52 122 -24 122 44 0 68 -68
97 -115 49z"/>
<path d="M8365 4265 c-28 -27 -30 -42 -14 -79 16 -34 58 -51 91 -35 26 11 48
46 48 75 0 24 -47 64 -75 64 -14 0 -37 -11 -50 -25z"/>
<path d="M10222 4273 c-12 -10 -24 -30 -28 -45 -5 -22 0 -34 25 -59 25 -25 37
-30 59 -25 60 15 80 79 37 121 -28 29 -65 32 -93 8z"/>
<path d="M1300 4210 l0 -30 600 0 600 0 0 30 0 30 -600 0 -600 0 0 -30z"/>
<path d="M3170 4210 l0 -30 600 0 600 0 0 30 0 30 -600 0 -600 0 0 -30z"/>
<path d="M5030 4210 l0 -30 600 0 600 0 0 30 0 30 -600 0 -600 0 0 -30z"/>
<path d="M6890 4210 l0 -30 595 0 595 0 0 30 0 30 -595 0 -595 0 0 -30z"/>
<path d="M8747 4233 c-4 -3 -7 -17 -7 -30 l0 -23 600 0 600 0 0 30 0 30 -593
0 c-327 0 -597 -3 -600 -7z"/>
<path d="M1875 3605 c-46 -45 -19 -118 43 -118 47 0 62 18 62 74 0 38 -4 51
-19 59 -32 16 -60 12 -86 -15z"/>
<path d="M3732 3607 c-45 -48 -16 -120 48 -120 65 0 95 76 47 121 -30 28 -68
28 -95 -1z"/>
<path d="M5602 3607 c-45 -48 -16 -120 48 -120 65 0 95 76 47 121 -30 28 -68
28 -95 -1z"/>
<path d="M7460 3610 c-47 -47 -15 -123 51 -123 63 0 90 72 44 118 -29 30 -68
32 -95 5z"/>
<path d="M9326 3609 c-50 -39 -22 -122 42 -122 66 0 98 78 50 123 -28 26 -58
26 -92 -1z"/>
<path d="M370 3540 l0 -30 595 0 595 0 0 30 0 30 -595 0 -595 0 0 -30z"/>
<path d="M2240 3540 l0 -30 600 0 600 0 0 30 0 30 -600 0 -600 0 0 -30z"/>
<path d="M4100 3540 l0 -30 600 0 600 0 0 30 0 30 -600 0 -600 0 0 -30z"/>
<path d="M5960 3540 l0 -30 598 2 597 3 3 28 3 27 -600 0 -601 0 0 -30z"/>
<path d="M7820 3540 l0 -30 595 0 595 0 0 30 0 30 -595 0 -595 0 0 -30z"/>
<path d="M9670 3540 l0 -30 600 0 600 0 0 30 0 30 -600 0 -600 0 0 -30z"/>
<path d="M1200 2977 c-52 -26 -49 -104 5 -129 58 -26 119 33 95 91 -6 16 -23
33 -36 40 -31 14 -33 14 -64 -2z"/>
<path d="M3045 2965 c-34 -33 -33 -77 1 -104 15 -12 34 -21 44 -21 10 0 29 9
44 21 36 28 36 80 0 108 -35 27 -59 26 -89 -4z"/>
<path d="M4915 2965 c-34 -33 -33 -77 1 -104 15 -12 34 -21 44 -21 10 0 29 9
44 21 36 28 36 80 0 108 -35 27 -59 26 -89 -4z"/>
<path d="M6776 2969 c-19 -15 -26 -30 -26 -54 0 -36 36 -75 70 -75 10 0 29 9
44 21 34 27 35 71 1 104 -30 30 -54 31 -89 4z"/>
<path d="M8635 2965 c-14 -13 -25 -36 -25 -50 0 -29 40 -75 65 -75 20 0 57 19
67 34 18 26 8 75 -18 95 -35 27 -59 26 -89 -4z"/>
<path d="M10500 2977 c-52 -26 -49 -104 4 -128 36 -17 73 -3 92 32 19 38 6 80
-32 98 -31 14 -33 14 -64 -2z"/>
<path d="M1560 2920 l0 -30 605 0 605 0 0 30 0 30 -605 0 -605 0 0 -30z"/>
<path d="M3440 2920 l0 -30 595 0 595 0 0 30 0 30 -595 0 -595 0 0 -30z"/>
<path d="M5292 2923 l3 -28 598 -3 597 -2 0 30 0 30 -601 0 -600 0 3 -27z"/>
<path d="M7150 2920 l0 -30 600 0 600 0 0 30 0 30 -600 0 -600 0 0 -30z"/>
<path d="M9010 2920 l0 -30 600 0 600 0 0 30 0 30 -600 0 -600 0 0 -30z"/>
<path d="M240 2310 c-43 -43 -11 -120 50 -120 38 0 70 32 70 70 0 38 -32 70
-70 70 -17 0 -39 -9 -50 -20z"/>
<path d="M2135 2310 c-41 -45 -10 -120 50 -120 38 0 75 35 75 71 0 58 -87 91
-125 49z"/>
<path d="M3960 2310 c-11 -11 -20 -33 -20 -50 0 -17 9 -39 20 -50 45 -45 120
-11 120 54 0 60 -77 89 -120 46z"/>
<path d="M5830 2310 c-43 -43 -11 -120 50 -120 41 0 70 31 70 74 0 60 -77 89
-120 46z"/>
<path d="M7692 2314 c-29 -20 -30 -76 -2 -104 43 -43 120 -11 120 50 0 59 -67
90 -118 54z"/>
<path d="M9550 2310 c-11 -11 -20 -33 -20 -50 0 -59 67 -90 118 -54 28 20 31
83 4 107 -25 23 -78 21 -102 -3z"/>
<path d="M630 2270 l0 -30 600 0 600 0 0 30 0 30 -600 0 -600 0 0 -30z"/>
<path d="M2510 2270 l0 -30 600 0 600 0 0 30 0 30 -600 0 -600 0 0 -30z"/>
<path d="M4370 2270 l0 -30 595 0 595 0 0 30 0 30 -595 0 -595 0 0 -30z"/>
<path d="M6220 2270 l0 -30 600 0 600 0 0 30 0 30 -600 0 -600 0 0 -30z"/>
<path d="M8080 2270 l0 -30 600 0 600 0 0 30 0 30 -600 0 -600 0 0 -30z"/>
<path d="M9940 2270 l0 -30 600 0 600 0 0 30 0 30 -600 0 -600 0 0 -30z"/>
<path d="M1105 1735 c-40 -39 -29 -95 22 -113 78 -27 136 76 70 123 -31 22
-65 18 -92 -10z"/>
<path d="M2962 1737 c-43 -46 -15 -120 46 -120 43 0 72 28 72 70 0 66 -74 97
-118 50z"/>
<path d="M4832 1737 c-43 -46 -15 -120 46 -120 43 0 72 28 72 70 0 66 -74 97
-118 50z"/>
<path d="M6690 1740 c-26 -26 -26 -81 0 -105 29 -26 79 -24 102 4 56 70 -39
164 -102 101z"/>
<path d="M8556 1739 c-50 -39 -23 -119 42 -121 43 -1 72 26 72 69 0 65 -61 93
-114 52z"/>
<path d="M10405 1735 c-30 -29 -32 -68 -5 -95 47 -47 123 -15 123 51 0 63 -72
90 -118 44z"/>
<path d="M1464 1706 c-3 -8 -4 -23 -2 -33 3 -17 32 -18 603 -18 l600 0 3 33 3
32 -601 0 c-514 0 -601 -2 -606 -14z"/>
<path d="M3340 1685 l0 -35 595 0 595 0 0 35 0 35 -595 0 -595 0 0 -35z"/>
<path d="M5200 1685 l0 -35 595 0 595 0 0 35 0 35 -595 0 -595 0 0 -35z"/>
<path d="M7054 1706 c-3 -8 -4 -23 -2 -33 3 -17 32 -18 598 -18 l595 0 3 33 3
32 -596 0 c-509 0 -596 -2 -601 -14z"/>
<path d="M8912 1688 l3 -33 595 0 595 0 3 33 3 32 -601 0 -601 0 3 -32z"/>
<path d="M1856 1075 c-59 -60 10 -155 83 -114 63 36 42 121 -31 127 -23 2 -41
-3 -52 -13z"/>
<path d="M3710 1070 c-42 -42 -8 -120 53 -120 58 0 91 85 49 123 -25 23 -78
21 -102 -3z"/>
<path d="M5580 1070 c-42 -42 -8 -120 53 -120 58 0 91 85 49 123 -25 23 -78
21 -102 -3z"/>
<path d="M7437 1072 c-23 -25 -21 -78 3 -102 61 -61 154 27 104 98 -20 28 -83
31 -107 4z"/>
<path d="M9300 1070 c-26 -26 -25 -60 1 -94 25 -31 66 -35 100 -8 28 23 30 73
4 102 -24 26 -79 26 -105 0z"/>
<path d="M400 1030 l0 -30 600 0 600 0 0 30 0 30 -600 0 -600 0 0 -30z"/>
<path d="M2280 1030 l0 -30 595 0 595 0 0 30 0 30 -595 0 -595 0 0 -30z"/>
<path d="M4132 1033 l3 -28 598 -3 597 -2 0 30 0 30 -601 0 -600 0 3 -27z"/>
<path d="M5990 1030 l0 -30 600 0 600 0 0 30 0 30 -600 0 -600 0 0 -30z"/>
<path d="M7850 1030 l0 -30 598 2 597 3 3 28 3 27 -600 0 -601 0 0 -30z"/>
<path d="M9710 1030 l0 -30 595 0 595 0 0 30 0 30 -595 0 -595 0 0 -30z"/>
<path d="M935 445 c-28 -27 -30 -42 -14 -79 32 -69 139 -38 139 40 0 24 -47
64 -75 64 -14 0 -37 -11 -50 -25z"/>
<path d="M2796 449 c-50 -39 -22 -122 42 -122 43 0 72 28 72 70 0 65 -61 93
-114 52z"/>
<path d="M4666 449 c-50 -39 -22 -122 42 -122 43 0 72 28 72 70 0 65 -61 93
-114 52z"/>
<path d="M6522 450 c-48 -45 -16 -123 50 -123 61 0 91 78 45 121 -29 28 -67
28 -95 2z"/>
<path d="M8385 445 c-46 -46 -19 -118 44 -118 66 0 98 76 51 123 -27 27 -66
25 -95 -5z"/>
<path d="M10235 445 c-40 -39 -29 -95 22 -113 78 -27 136 76 70 123 -31 22
-65 18 -92 -10z"/>
<path d="M1300 415 l0 -35 600 0 600 0 0 35 0 35 -600 0 -600 0 0 -35z"/>
<path d="M3177 443 c-4 -3 -7 -19 -7 -35 l0 -28 601 0 600 0 -3 33 -3 32 -591
3 c-325 1 -594 -1 -597 -5z"/>
<path d="M5037 443 c-4 -3 -7 -19 -7 -35 l0 -28 598 2 597 3 0 30 0 30 -591 3
c-325 1 -594 -1 -597 -5z"/>
<path d="M6890 415 l0 -35 595 0 595 0 0 35 0 35 -595 0 -595 0 0 -35z"/>
<path d="M8744 436 c-3 -8 -4 -23 -2 -33 3 -17 33 -18 601 -21 l597 -2 0 35 0
35 -595 0 c-510 0 -596 -2 -601 -14z"/>
</g>
</svg>
