<?xml version="1.0" standalone="no"?>
<!DOCTYPE svg PUBLIC "-//W3C//DTD SVG 20010904//EN"
 "http://www.w3.org/TR/2001/REC-SVG-20010904/DTD/svg10.dtd">
<svg version="1.0" xmlns="http://www.w3.org/2000/svg"
 width="1811.000000pt" height="1217.000000pt" viewBox="0 0 1811.000000 1217.000000"
 preserveAspectRatio="xMidYMid meet">
<metadata>
Created by potrace 1.13, written by Peter Selinger 2001-2015
</metadata>
<g transform="translate(0.000000,1217.000000) scale(0.100000,-0.100000)"
fill="#000000" stroke="none">
<path d="M1628 12000 c-87 -93 -158 -173 -158 -179 0 -5 7 -14 16 -19 13 -7
47 24 167 152 83 89 162 173 176 189 l25 27 -35 0 c-31 -1 -48 -15 -191 -170z"/>
<path d="M3305 12145 c-181 -13 -331 -24 -333 -24 -2 -1 -2 -11 0 -23 4 -27
-36 -27 427 3 167 10 316 19 332 19 24 0 29 4 29 25 0 24 -2 25 -62 24 -35 -1
-211 -12 -393 -24z"/>
<path d="M5108 12052 c-120 -65 -218 -121 -218 -127 0 -44 18 -38 277 100 142
75 260 139 262 141 2 2 -20 4 -50 3 -49 -1 -74 -11 -271 -117z"/>
<path d="M6752 12015 c-65 -131 -75 -157 -62 -165 8 -5 18 -10 22 -10 7 0 168
312 168 325 0 3 -11 5 -25 5 -22 0 -33 -17 -103 -155z"/>
<path d="M7046 12118 c-12 -29 -54 -122 -91 -206 -50 -112 -66 -155 -57 -164
6 -6 17 -8 24 -5 8 2 53 92 100 198 112 251 105 229 74 229 -22 0 -30 -8 -50
-52z"/>
<path d="M10671 11998 c-154 -164 -160 -172 -144 -190 16 -18 17 -18 38 4 256
273 325 347 325 352 0 3 -13 6 -29 6 -25 0 -53 -25 -190 -172z"/>
<path d="M12350 12145 c-179 -13 -326 -23 -327 -24 -2 0 -3 -12 -3 -25 0 -21
3 -23 48 -19 96 7 675 43 703 43 24 0 29 4 29 25 0 24 -2 25 -62 24 -35 -1
-209 -12 -388 -24z"/>
<path d="M14153 12052 c-123 -64 -223 -120 -223 -123 0 -3 6 -13 13 -22 11
-16 35 -5 267 118 140 75 257 138 259 141 2 2 -18 4 -45 4 -43 0 -76 -14 -271
-118z"/>
<path d="M15795 12020 c-41 -82 -75 -152 -75 -155 0 -2 9 -9 20 -15 18 -10 26
2 100 150 44 88 80 162 80 165 0 3 -11 5 -25 5 -22 0 -33 -17 -100 -150z"/>
<path d="M16021 11963 c-92 -205 -96 -222 -56 -223 6 0 54 97 107 215 l96 215
-28 0 c-26 0 -32 -9 -119 -207z"/>
<path d="M5353 11940 c-352 -173 -394 -199 -349 -216 7 -3 179 76 380 175 346
170 367 181 356 201 -6 11 -14 20 -18 19 -4 0 -170 -81 -369 -179z"/>
<path d="M14395 11940 c-197 -98 -360 -182 -362 -186 -1 -5 1 -15 6 -23 12
-19 36 -8 421 184 168 83 311 154 317 156 15 5 5 49 -11 48 -6 0 -173 -81
-371 -179z"/>
<path d="M385 11802 c-76 -164 -153 -329 -171 -368 l-32 -72 22 -10 c21 -9 28
3 181 332 87 187 164 353 171 367 12 24 11 27 -10 37 -23 10 -27 3 -161 -286z"/>
<path d="M9395 11730 c-101 -217 -165 -364 -159 -370 5 -5 15 -10 21 -12 8 -2
77 135 183 361 169 362 176 380 134 381 -6 0 -87 -162 -179 -360z"/>
<path d="M717 11978 c-14 -24 -98 -189 -187 -367 -151 -302 -161 -326 -144
-338 10 -7 21 -10 25 -6 3 5 89 171 190 371 151 299 181 365 169 372 -23 15
-26 13 -53 -32z"/>
<path d="M9595 11653 c-175 -343 -186 -368 -168 -380 15 -12 20 -11 31 4 7 10
93 177 190 371 148 294 175 354 162 362 -8 5 -18 10 -22 10 -3 0 -90 -165
-193 -367z"/>
<path d="M3305 11944 c-165 -6 -310 -12 -322 -13 -18 -1 -23 -7 -23 -27 l0
-25 118 6 c129 6 610 25 648 25 19 0 24 5 24 25 0 30 26 29 -445 9z"/>
<path d="M12350 11945 c-162 -7 -307 -13 -322 -14 -21 -1 -28 -6 -28 -20 0
-11 4 -22 8 -25 4 -3 168 2 363 9 194 8 369 15 387 15 27 0 32 4 32 25 0 30
24 29 -440 10z"/>
<path d="M6016 11728 c4 -29 84 -738 84 -745 0 -2 12 -3 26 -3 25 0 26 2 20
43 -3 23 -22 188 -41 367 -20 179 -38 335 -41 348 -3 15 -12 22 -29 22 -21 0
-23 -4 -19 -32z"/>
<path d="M6230 11731 c0 -15 14 -185 30 -376 17 -191 30 -354 30 -361 0 -8 11
-14 26 -14 27 0 27 0 21 63 -3 34 -18 209 -33 390 -28 327 -28 327 -51 327
-19 0 -23 -5 -23 -29z"/>
<path d="M15060 11741 c0 -10 18 -179 40 -376 22 -197 40 -364 40 -371 0 -18
50 -19 50 -1 0 6 -18 182 -42 390 -42 374 -42 377 -65 377 -16 0 -23 -6 -23
-19z"/>
<path d="M15272 11708 c3 -29 19 -205 34 -390 29 -336 29 -338 51 -338 30 0
30 -11 -7 411 -16 189 -30 350 -30 357 0 6 -12 12 -26 12 -26 0 -27 -1 -22
-52z"/>
<path d="M7940 11676 c-5 -13 -3 -23 4 -28 17 -9 705 -257 724 -260 12 -2 17
4 17 20 0 22 -27 33 -368 157 -357 128 -369 132 -377 111z"/>
<path d="M16985 11679 c-4 -11 -4 -24 0 -27 4 -4 169 -66 368 -139 323 -117
363 -129 375 -115 6 9 12 19 12 22 0 4 -141 58 -312 120 -172 62 -341 123
-375 136 -62 23 -62 23 -68 3z"/>
<path d="M7857 11459 c-4 -13 -5 -24 -4 -26 11 -10 740 -252 747 -248 6 4 10
14 10 23 0 14 -76 43 -362 141 -200 68 -368 126 -374 128 -6 2 -14 -6 -17 -18z"/>
<path d="M16901 11457 c-5 -12 -8 -23 -7 -24 2 -3 739 -253 746 -253 11 0 20
39 10 45 -5 3 -173 61 -375 130 -361 123 -366 124 -374 102z"/>
<path d="M2467 11425 c-17 -12 -2 -37 215 -334 128 -176 237 -319 242 -317 5
1 14 9 19 18 8 12 -37 80 -208 314 -120 165 -225 307 -234 316 -14 14 -19 15
-34 3z"/>
<path d="M11512 11428 c-7 -7 -12 -16 -12 -20 0 -4 104 -149 231 -323 212
-290 232 -314 250 -302 10 6 18 15 17 19 -5 14 -463 637 -468 638 -4 0 -11 -5
-18 -12z"/>
<path d="M3551 11093 c-227 -236 -273 -288 -264 -302 6 -9 14 -16 19 -16 8 0
485 491 538 552 15 19 16 25 6 38 -7 8 -15 15 -19 14 -3 0 -129 -129 -280
-286z"/>
<path d="M12634 11133 c-357 -372 -321 -330 -300 -351 17 -16 21 -14 83 52 35
39 162 170 280 293 182 188 214 225 203 238 -7 8 -16 15 -20 15 -4 0 -115
-111 -246 -247z"/>
<path d="M1103 11192 c-194 -81 -353 -151 -353 -157 0 -44 15 -40 377 110 197
82 359 150 361 151 6 4 -18 44 -26 43 -4 0 -166 -67 -359 -147z"/>
<path d="M10180 11205 c-418 -173 -390 -160 -383 -184 3 -12 9 -21 13 -21 8 0
712 290 718 295 6 5 -9 45 -16 45 -4 0 -153 -61 -332 -135z"/>
<path d="M2272 11288 c-8 -11 41 -83 224 -323 129 -171 238 -311 242 -313 4
-1 15 3 24 10 15 12 -9 47 -218 323 -130 171 -241 311 -248 313 -7 2 -18 -3
-24 -10z"/>
<path d="M11321 11291 c-7 -5 -12 -14 -10 -20 8 -24 465 -620 475 -621 6 0 17
6 23 14 9 10 -40 80 -225 325 -130 171 -240 311 -243 311 -3 0 -12 -4 -20 -9z"/>
<path d="M3712 10952 c-282 -275 -293 -288 -275 -304 17 -16 31 -4 313 271
263 257 293 290 281 304 -7 10 -16 17 -20 17 -3 -1 -138 -130 -299 -288z"/>
<path d="M12763 10960 c-158 -154 -290 -285 -291 -291 -2 -5 2 -16 8 -25 15
-17 8 -23 384 344 191 187 226 225 216 237 -7 8 -16 15 -20 15 -5 0 -138 -126
-297 -280z"/>
<path d="M4962 11148 c-7 -7 -12 -15 -12 -19 0 -4 136 -134 302 -289 273 -254
303 -279 317 -265 11 11 13 20 6 29 -11 16 -584 550 -594 554 -4 1 -12 -3 -19
-10z"/>
<path d="M14006 11142 c-15 -17 -1 -32 241 -258 381 -355 347 -327 367 -305
15 17 2 31 -241 257 -381 354 -347 327 -367 306z"/>
<path d="M1166 10999 c-197 -76 -360 -139 -362 -141 -8 -9 10 -49 20 -45 6 3
172 67 369 142 196 76 357 141 357 144 0 4 -6 14 -12 23 -12 13 -55 -1 -372
-123z"/>
<path d="M10203 10998 c-340 -133 -361 -142 -353 -162 4 -11 14 -20 21 -18 17
3 709 268 714 274 6 6 -6 48 -14 47 -3 -1 -169 -64 -368 -141z"/>
<path d="M7010 10886 c-58 -61 -178 -188 -267 -282 -156 -164 -162 -172 -144
-188 18 -16 30 -4 286 265 217 227 267 284 259 297 -6 9 -15 17 -20 18 -5 1
-56 -49 -114 -110z"/>
<path d="M15896 10720 c-146 -154 -266 -285 -266 -289 0 -5 7 -14 16 -21 12
-11 17 -11 28 1 28 31 404 429 463 490 62 63 63 66 45 82 -18 17 -29 7 -286
-263z"/>
<path d="M4830 10954 c-16 -19 -40 4 313 -303 267 -233 279 -242 297 -226 18
17 7 28 -283 281 -166 145 -305 264 -308 264 -4 0 -12 -7 -19 -16z"/>
<path d="M13870 10955 c-8 -9 -9 -19 -4 -24 61 -58 599 -521 605 -521 5 0 13
8 18 18 8 15 -35 56 -288 277 -164 142 -302 260 -308 262 -5 2 -16 -3 -23 -12z"/>
<path d="M7014 10563 c-137 -147 -255 -275 -262 -285 -11 -15 -11 -22 -1 -34
6 -8 15 -13 19 -12 4 2 112 116 240 253 128 138 246 264 262 281 27 29 28 31
10 47 -17 16 -30 4 -268 -250z"/>
<path d="M16085 10593 c-322 -344 -311 -331 -291 -351 19 -19 -10 -47 297 283
278 300 253 268 232 288 -17 14 -33 -1 -238 -220z"/>
<path d="M7956 10415 c-208 -68 -380 -126 -383 -128 -7 -8 17 -48 25 -43 4 2
178 59 387 126 209 67 381 123 382 124 7 6 -11 46 -21 45 -6 -1 -181 -57 -390
-124z"/>
<path d="M17125 10454 c-143 -46 -317 -103 -387 -125 -120 -38 -127 -41 -118
-62 4 -12 12 -21 17 -21 13 2 768 246 771 249 6 6 -9 45 -16 44 -4 0 -124 -38
-267 -85z"/>
<path d="M1634 10511 c-2 -2 -4 -12 -4 -22 0 -26 19 -27 448 -33 l382 -5 0 24
0 23 -212 6 c-279 8 -609 12 -614 7z"/>
<path d="M10680 10493 c0 -15 7 -24 23 -27 12 -3 196 -7 410 -10 l387 -5 0 24
0 23 -212 6 c-117 4 -302 8 -411 9 l-197 2 0 -22z"/>
<path d="M4215 10439 c-148 -10 -290 -19 -315 -21 -38 -3 -46 -7 -48 -25 -3
-22 0 -23 60 -22 35 0 212 10 393 22 327 22 330 22 333 45 3 21 1 22 -75 21
-43 -1 -199 -10 -348 -20z"/>
<path d="M13213 10437 l-313 -21 0 -23 c0 -22 4 -23 63 -22 34 0 208 10 387
22 322 22 325 22 328 45 3 21 1 22 -75 21 -43 -1 -219 -11 -390 -22z"/>
<path d="M559 10400 c-1 -5 -2 -15 -3 -21 -1 -7 152 -91 339 -189 297 -155
342 -175 353 -162 6 9 12 19 12 23 0 8 -674 359 -690 359 -5 0 -11 -4 -11 -10z"/>
<path d="M9599 10400 c-1 -5 -2 -15 -3 -21 -1 -5 154 -91 344 -189 338 -175
345 -178 357 -157 6 12 11 22 10 23 -25 17 -687 354 -695 354 -7 0 -13 -4 -13
-10z"/>
<path d="M8020 10229 c-223 -76 -406 -138 -407 -138 -7 -3 12 -41 22 -41 10 0
488 159 753 250 65 23 70 27 50 51 -11 13 -66 -3 -418 -122z"/>
<path d="M17070 10231 c-301 -102 -406 -142 -408 -154 -2 -10 3 -19 11 -22 14
-6 794 250 811 266 6 5 6 16 0 28 -8 18 -31 12 -414 -118z"/>
<path d="M1610 10285 l0 -25 435 0 435 0 0 25 0 25 -435 0 -435 0 0 -25z"/>
<path d="M10652 10288 l3 -23 433 -3 432 -2 0 25 0 25 -436 0 -435 0 3 -22z"/>
<path d="M4135 10235 c-159 -7 -291 -13 -293 -14 -2 0 -2 -11 0 -23 3 -21 7
-22 113 -19 61 1 209 6 330 11 121 5 248 10 283 10 59 0 62 1 62 25 l0 25
-102 -2 c-57 0 -233 -7 -393 -13z"/>
<path d="M13178 10236 c-157 -6 -289 -14 -293 -18 -4 -3 -4 -15 -1 -26 6 -17
14 -19 74 -16 106 6 604 24 661 24 48 0 51 2 51 25 l0 25 -102 -2 c-57 0 -232
-6 -390 -12z"/>
<path d="M435 10199 c-4 -11 -5 -22 -3 -23 1 -2 156 -81 342 -176 319 -163
340 -172 353 -155 7 11 10 22 6 26 -10 9 -678 349 -686 349 -3 0 -9 -9 -12
-21z"/>
<path d="M9475 10200 c-4 -12 -5 -23 -3 -24 1 -2 156 -80 343 -175 317 -161
340 -171 352 -154 12 15 11 20 -4 31 -20 14 -652 335 -670 340 -6 2 -14 -6
-18 -18z"/>
<path d="M3428 10014 c-16 -18 -5 -31 254 -302 259 -271 271 -282 289 -266 18
16 11 24 -160 203 -98 102 -221 230 -272 285 -90 94 -95 98 -111 80z"/>
<path d="M5157 9778 c-296 -240 -308 -251 -291 -269 16 -18 21 -15 143 84 69
57 208 170 309 251 176 143 183 149 166 167 -9 10 -18 19 -18 18 -1 0 -140
-113 -309 -251z"/>
<path d="M12473 10019 c-7 -7 -13 -17 -13 -22 0 -4 120 -134 267 -288 252
-264 267 -278 285 -263 17 16 12 23 -92 133 -315 335 -435 453 -447 440z"/>
<path d="M14209 9786 c-167 -136 -305 -250 -307 -254 -1 -4 3 -15 10 -25 12
-15 46 10 320 231 169 136 307 250 307 253 1 3 -5 13 -12 23 -12 16 -40 -4
-318 -228z"/>
<path d="M8565 10008 c-6 -17 -271 -718 -280 -739 -4 -12 1 -18 16 -22 13 -4
25 -5 27 -3 7 8 282 738 282 751 0 7 -7 16 -16 19 -22 8 -24 8 -29 -6z"/>
<path d="M17472 9646 c-78 -206 -142 -379 -142 -384 0 -13 32 -25 41 -15 8 10
291 755 287 758 -2 1 -12 5 -24 9 -19 6 -31 -21 -162 -368z"/>
<path d="M2245 9638 c-138 -166 -254 -308 -259 -316 -10 -17 19 -51 33 -37 11
13 483 586 499 606 10 13 9 19 -6 32 -16 15 -33 -2 -267 -285z"/>
<path d="M8628 9558 c-118 -360 -124 -384 -106 -392 11 -6 22 -6 26 0 10 11
255 755 250 759 -1 1 -12 5 -24 9 -19 6 -29 -20 -146 -376z"/>
<path d="M17797 9933 c-16 -27 -247 -749 -243 -760 3 -7 13 -13 23 -13 27 1
274 757 253 770 -18 12 -27 12 -33 3z"/>
<path d="M11437 9818 c-51 -62 -160 -194 -242 -293 -81 -99 -155 -188 -163
-198 -14 -16 -14 -19 1 -34 16 -16 18 -16 36 2 49 53 501 605 501 614 0 7 -22
21 -35 21 -2 0 -46 -51 -98 -112z"/>
<path d="M3243 9865 c-6 -17 4 -28 340 -374 171 -176 190 -192 204 -178 14 14
14 19 -11 47 -66 79 -502 520 -514 520 -7 0 -15 -7 -19 -15z"/>
<path d="M12290 9865 c-10 -13 24 -52 218 -252 324 -335 309 -321 329 -301 15
16 -2 36 -252 292 -147 152 -271 276 -275 276 -4 0 -13 -7 -20 -15z"/>
<path d="M5298 9603 c-163 -137 -297 -253 -297 -259 -1 -6 5 -17 13 -23 11
-10 70 35 303 230 354 297 319 265 303 283 -7 9 -15 16 -19 16 -4 0 -140 -111
-303 -247z"/>
<path d="M14338 9599 c-272 -229 -297 -252 -285 -270 6 -10 15 -18 18 -17 15
6 599 500 599 507 0 8 -22 31 -29 31 -4 -1 -140 -113 -303 -251z"/>
<path d="M2547 9678 c-201 -263 -379 -502 -383 -513 -6 -16 24 -41 35 -29 17
18 481 635 481 639 0 2 -9 9 -19 15 -18 9 -31 -4 -114 -112z"/>
<path d="M11440 9479 c-224 -296 -241 -322 -226 -337 21 -22 8 -37 281 325
191 255 226 305 215 318 -7 8 -16 15 -20 15 -4 0 -117 -144 -250 -321z"/>
<path d="M6920 9585 c-7 -8 -11 -18 -8 -20 3 -3 153 -106 334 -230 293 -199
330 -222 342 -208 6 9 12 19 12 22 0 7 -632 438 -653 447 -8 3 -20 -2 -27 -11z"/>
<path d="M15961 9583 c-8 -15 39 -51 323 -244 248 -170 334 -224 344 -216 7 5
12 16 10 23 -3 14 -641 454 -658 454 -5 0 -13 -8 -19 -17z"/>
<path d="M6222 9531 c-11 -7 -11 -70 2 -372 9 -200 19 -392 22 -426 5 -59 7
-63 30 -63 24 0 24 0 19 78 -6 77 -35 725 -35 769 0 24 -15 29 -38 14z"/>
<path d="M15263 9532 c-9 -5 -7 -103 8 -407 10 -220 19 -412 19 -427 0 -23 4
-28 25 -28 17 0 25 6 25 18 0 40 -30 694 -36 770 -6 80 -12 92 -41 74z"/>
<path d="M6023 9368 c4 -79 9 -251 12 -383 7 -293 9 -307 37 -303 21 3 22 7
19 123 -1 66 -6 235 -11 375 -5 140 -10 272 -10 293 0 33 -3 37 -26 37 l-27 0
6 -142z"/>
<path d="M15067 9503 c-3 -5 1 -181 9 -393 7 -212 13 -395 14 -407 0 -18 6
-23 26 -23 l27 0 -7 118 c-3 64 -8 218 -11 342 -8 323 -12 370 -35 370 -10 0
-21 -3 -23 -7z"/>
<path d="M6791 9431 c-9 -17 25 -46 305 -256 173 -130 321 -238 328 -241 16
-6 42 24 30 35 -24 22 -642 481 -647 481 -3 0 -11 -9 -16 -19z"/>
<path d="M15833 9432 c-10 -17 23 -44 318 -265 310 -233 329 -245 340 -226 8
17 8 24 -3 34 -24 22 -619 466 -631 471 -7 2 -17 -4 -24 -14z"/>
<path d="M3724 9075 c-4 -9 10 -183 30 -388 20 -205 36 -378 36 -384 0 -17 39
-17 46 0 2 7 -12 186 -33 397 -34 341 -40 385 -56 388 -9 2 -20 -4 -23 -13z"/>
<path d="M12765 9077 c-3 -6 12 -185 32 -397 37 -378 38 -385 61 -388 29 -4
29 -8 -13 417 -19 192 -35 357 -35 366 0 18 -38 21 -45 2z"/>
<path d="M3494 9062 c-7 -5 3 -123 35 -394 44 -386 45 -388 68 -388 15 0 23 6
23 18 0 23 -80 721 -86 750 -4 22 -20 28 -40 14z"/>
<path d="M12534 9055 c-5 -13 69 -696 81 -752 4 -17 13 -23 31 -23 19 0 24 4
20 18 -2 9 -24 187 -47 395 -39 342 -45 377 -61 377 -10 0 -21 -7 -24 -15z"/>
<path d="M486 8636 c-59 -204 -108 -380 -109 -391 -3 -27 39 -34 47 -8 47 164
216 753 216 756 0 3 -11 7 -24 9 -23 5 -26 -5 -130 -366z"/>
<path d="M9526 8623 c-60 -208 -109 -382 -110 -388 -1 -5 10 -10 23 -10 22 0
29 18 132 375 60 206 109 381 109 388 0 6 -10 12 -23 12 -22 0 -29 -22 -131
-377z"/>
<path d="M815 8957 c-14 -37 -247 -764 -249 -772 0 -5 10 -10 23 -10 24 0 30
17 148 380 67 209 123 385 123 391 0 16 -40 25 -45 11z"/>
<path d="M9830 8872 c-17 -53 -74 -229 -126 -390 -52 -160 -92 -297 -89 -302
3 -6 14 -10 23 -10 14 0 42 76 141 383 68 210 124 386 125 390 0 5 -9 13 -21
18 -21 8 -24 3 -53 -89z"/>
<path d="M2506 8665 c-3 -9 -6 -18 -6 -20 0 -6 688 -425 698 -425 8 0 22 22
22 35 0 6 -673 418 -691 422 -9 3 -19 -3 -23 -12z"/>
<path d="M11550 8665 c-8 -9 -9 -19 -4 -24 20 -17 685 -421 694 -421 5 0 14 8
19 18 8 15 -34 44 -332 227 -188 116 -346 211 -352 213 -7 2 -18 -4 -25 -13z"/>
<path d="M2386 8503 c-4 -9 -3 -20 1 -24 5 -5 170 -105 368 -223 320 -191 361
-213 373 -198 6 8 12 18 12 21 0 8 -726 441 -739 441 -5 0 -12 -8 -15 -17z"/>
<path d="M11426 8503 c-4 -9 -3 -20 1 -24 4 -3 172 -104 372 -224 360 -215
380 -224 381 -179 0 11 -718 444 -737 444 -6 0 -14 -8 -17 -17z"/>
<path d="M4679 8363 c-371 -105 -376 -106 -371 -130 3 -17 10 -23 21 -20 9 2
184 51 389 107 351 98 372 105 372 127 0 16 -6 23 -17 22 -10 0 -187 -48 -394
-106z"/>
<path d="M13750 8371 c-190 -54 -357 -101 -373 -104 -26 -7 -38 -39 -19 -51 7
-4 716 188 767 208 19 7 7 46 -14 45 -9 -1 -171 -45 -361 -98z"/>
<path d="M1322 8211 c-177 -109 -327 -202 -332 -207 -7 -7 -6 -16 3 -28 12
-16 39 -1 342 184 182 111 331 203 333 205 2 2 -2 12 -10 23 -13 19 -29 10
-336 -177z"/>
<path d="M10360 8209 c-178 -110 -328 -203 -332 -207 -4 -4 -2 -16 5 -26 13
-17 36 -5 345 184 183 112 332 206 332 209 0 4 -6 14 -12 23 -11 13 -54 -10
-338 -183z"/>
<path d="M16687 8068 c-189 -302 -213 -344 -199 -355 9 -7 19 -13 23 -13 7 0
433 680 427 684 -1 1 -10 7 -20 14 -14 11 -40 -26 -231 -330z"/>
<path d="M7641 8063 c-206 -331 -222 -363 -177 -363 6 0 107 154 224 342 209
336 219 357 175 358 -6 0 -106 -152 -222 -337z"/>
<path d="M7832 7965 c-226 -336 -241 -365 -196 -365 10 0 446 638 459 672 3 7
-3 18 -13 25 -17 10 -41 -21 -250 -332z"/>
<path d="M16880 7973 c-124 -184 -226 -340 -228 -347 -4 -19 29 -29 44 -14 24
26 444 656 444 667 0 6 -8 14 -17 19 -15 8 -51 -39 -243 -325z"/>
<path d="M4770 8166 c-207 -51 -383 -95 -392 -99 -11 -4 -15 -13 -11 -26 3
-12 8 -21 12 -21 7 0 795 192 798 194 7 6 -11 46 -21 45 -6 0 -180 -42 -386
-93z"/>
<path d="M14055 8225 c-71 -18 -246 -61 -387 -96 -217 -52 -258 -65 -258 -80
0 -10 4 -20 9 -23 5 -3 185 37 400 89 215 52 394 95 397 95 13 0 -2 45 -16 47
-8 1 -73 -14 -145 -32z"/>
<path d="M1397 8021 c-180 -104 -330 -191 -333 -194 -3 -3 -1 -14 5 -26 11
-19 29 -10 344 171 182 105 336 194 340 198 10 9 -2 40 -17 40 -6 0 -159 -85
-339 -189z"/>
<path d="M10445 8024 c-176 -102 -326 -189 -334 -193 -12 -7 -12 -11 0 -29 14
-19 26 -13 344 170 182 104 334 193 338 197 10 10 -2 41 -17 40 -6 0 -155 -83
-331 -185z"/>
<path d="M6277 8082 c-17 -18 -5 -30 280 -285 265 -237 299 -265 313 -252 10
11 12 20 5 30 -6 8 -129 120 -275 251 -146 130 -274 245 -286 255 -20 19 -21
19 -37 1z"/>
<path d="M15320 8080 c-9 -18 -9 -25 2 -35 7 -6 123 -110 258 -230 135 -120
261 -233 281 -252 34 -33 36 -33 52 -15 17 18 7 29 -265 272 -156 140 -291
260 -300 268 -14 12 -18 11 -28 -8z"/>
<path d="M6120 7904 c-11 -12 -10 -18 6 -33 22 -21 531 -460 557 -480 16 -12
20 -12 35 2 10 11 13 20 7 26 -44 42 -581 501 -586 501 -4 0 -12 -7 -19 -16z"/>
<path d="M15160 7905 c-11 -14 -9 -20 21 -44 19 -16 153 -132 299 -259 195
-169 268 -227 278 -220 6 6 12 16 12 23 0 12 -558 501 -583 511 -8 3 -20 -2
-27 -11z"/>
<path d="M4421 7601 c-6 -11 -11 -22 -11 -25 0 -2 156 -84 347 -181 344 -174
362 -181 363 -138 0 6 -136 80 -302 164 -167 83 -322 163 -345 176 -41 24 -42
24 -52 4z"/>
<path d="M13459 7599 c-9 -17 -8 -23 2 -30 8 -5 166 -85 351 -179 326 -165
337 -170 348 -149 7 11 10 22 8 23 -2 2 -159 82 -350 179 -336 171 -348 176
-359 156z"/>
<path d="M2598 7367 c-304 -201 -335 -224 -324 -239 7 -10 16 -18 19 -18 6 0
656 427 671 441 9 8 -9 39 -23 39 -3 0 -158 -100 -343 -223z"/>
<path d="M11651 7375 c-178 -118 -328 -218 -333 -223 -10 -10 0 -42 13 -42 10
0 645 414 667 434 14 14 6 46 -12 45 -6 0 -157 -97 -335 -214z"/>
<path d="M8453 7437 c-298 -83 -363 -104 -363 -119 0 -9 4 -20 10 -23 5 -3
176 40 380 97 347 96 370 104 370 125 0 15 -6 23 -17 22 -10 0 -181 -46 -380
-102z"/>
<path d="M17493 7437 c-337 -95 -362 -103 -357 -122 4 -11 8 -22 9 -23 3 -4
733 196 747 204 12 8 -5 44 -21 43 -9 0 -179 -46 -378 -102z"/>
<path d="M4310 7439 c-10 -18 -9 -24 6 -33 11 -6 165 -90 344 -187 288 -157
326 -175 338 -161 6 9 12 19 12 22 0 4 -136 80 -302 170 -167 90 -322 174
-345 187 l-42 24 -11 -22z"/>
<path d="M13351 7437 c-8 -11 -10 -23 -5 -25 5 -2 160 -86 344 -186 293 -160
337 -181 348 -168 6 9 12 19 12 23 0 4 -152 89 -337 189 -186 101 -340 184
-343 186 -4 1 -12 -7 -19 -19z"/>
<path d="M2717 7184 c-299 -216 -325 -237 -314 -255 6 -10 15 -18 19 -17 23 8
647 465 648 474 0 6 -6 17 -14 23 -10 9 -83 -40 -339 -225z"/>
<path d="M11763 7187 c-177 -127 -322 -237 -323 -243 0 -6 6 -16 13 -22 10 -9
89 43 340 224 298 215 325 238 314 255 -6 10 -14 19 -17 19 -3 0 -150 -105
-327 -233z"/>
<path d="M887 7329 c-4 -14 1 -23 16 -29 63 -25 719 -242 721 -239 2 2 6 13
10 24 5 19 -23 30 -362 143 -202 67 -370 122 -373 122 -4 0 -9 -9 -12 -21z"/>
<path d="M3808 7343 c-10 -2 -18 -10 -18 -16 1 -7 40 -178 88 -382 80 -339 89
-370 107 -367 11 2 22 6 24 8 5 5 -172 764 -179 763 -3 -1 -13 -3 -22 -6z"/>
<path d="M9937 7343 c-28 -28 0 -40 360 -161 368 -124 383 -128 383 -87 0 8
-708 255 -731 255 -3 0 -9 -3 -12 -7z"/>
<path d="M12847 7343 c-12 -3 -15 -11 -12 -26 3 -12 41 -177 86 -367 44 -190
82 -352 85 -361 6 -22 44 -13 44 11 0 9 -38 180 -85 380 -47 200 -85 364 -85
366 0 4 -7 4 -33 -3z"/>
<path d="M8483 7237 c-343 -87 -363 -93 -363 -114 0 -13 5 -23 10 -23 20 0
745 183 753 190 12 11 -4 40 -22 39 -9 0 -179 -42 -378 -92z"/>
<path d="M17523 7237 c-200 -51 -363 -96 -363 -102 1 -41 10 -40 391 57 328
83 374 97 374 114 0 12 -8 20 -20 21 -11 1 -183 -40 -382 -90z"/>
<path d="M3567 7303 c-3 -5 12 -78 33 -163 21 -85 61 -253 90 -372 30 -125 57
-218 64 -218 39 1 37 13 -49 371 -47 195 -88 362 -91 372 -5 17 -39 24 -47 10z"/>
<path d="M12610 7298 c-1 -7 39 -178 87 -380 75 -313 91 -368 106 -368 10 0
20 6 23 13 2 7 -35 177 -83 378 -82 338 -90 364 -111 367 -13 2 -22 -2 -22
-10z"/>
<path d="M797 7119 c-7 -25 -42 -11 382 -149 187 -61 345 -109 351 -105 5 3
10 14 10 23 0 13 -75 41 -363 135 -199 64 -365 117 -368 117 -4 0 -9 -9 -12
-21z"/>
<path d="M9847 7133 c-29 -29 -3 -40 358 -158 201 -65 367 -117 369 -114 2 2
6 13 8 23 3 17 -39 33 -357 137 -198 65 -363 119 -366 119 -3 0 -9 -3 -12 -7z"/>
<path d="M6218 6912 c-377 -74 -388 -77 -388 -99 0 -13 6 -23 13 -23 7 0 187
34 399 75 213 41 389 75 392 75 3 0 6 11 6 25 0 18 -5 25 -17 24 -10 -1 -192
-35 -405 -77z"/>
<path d="M15258 6912 c-341 -67 -388 -78 -388 -94 0 -10 6 -21 13 -23 6 -3
187 29 402 70 214 41 390 75 392 75 2 0 3 11 3 25 0 18 -5 25 -17 24 -10 -1
-192 -35 -405 -77z"/>
<path d="M6260 6721 c-381 -80 -415 -89 -412 -107 2 -10 6 -21 8 -23 4 -4 775
151 827 166 19 5 21 44 2 49 -5 1 -197 -37 -425 -85z"/>
<path d="M15303 6721 c-396 -82 -413 -87 -413 -108 0 -15 6 -23 16 -23 15 0
779 156 817 166 20 6 24 55 5 53 -7 -1 -199 -40 -425 -88z"/>
<path d="M7681 6712 c-9 -17 29 -46 312 -240 286 -195 323 -219 335 -204 7 9
11 20 10 24 -4 10 -629 438 -639 438 -5 0 -13 -8 -18 -18z"/>
<path d="M16724 6712 c-10 -16 25 -43 311 -239 315 -215 345 -231 345 -187 0
11 -622 444 -638 444 -4 0 -12 -8 -18 -18z"/>
<path d="M205 6696 c-3 -11 -39 -183 -81 -381 -41 -198 -77 -370 -81 -382 -4
-19 -1 -23 20 -23 16 0 28 7 31 18 2 9 39 181 81 382 42 201 78 372 81 381 3
12 -3 18 -21 21 -20 4 -26 1 -30 -16z"/>
<path d="M9250 6707 c0 -2 -36 -174 -80 -382 -44 -208 -80 -387 -80 -398 0
-13 6 -18 22 -15 22 3 27 25 100 368 42 201 79 380 83 398 5 29 4 32 -20 32
-14 0 -25 -1 -25 -3z"/>
<path d="M400 6654 c0 -4 -27 -169 -59 -368 -75 -452 -71 -420 -44 -424 16 -2
24 3 28 20 6 30 125 757 125 769 0 5 -11 9 -25 9 -14 0 -25 -3 -25 -6z"/>
<path d="M9382 6273 c-35 -214 -63 -394 -62 -400 0 -7 10 -13 23 -13 21 0 24
11 85 388 34 213 63 393 62 400 0 6 -10 12 -23 12 -22 0 -24 -9 -85 -387z"/>
<path d="M7540 6539 c-7 -12 -8 -24 -3 -29 4 -4 147 -100 316 -214 294 -198
344 -225 335 -180 -2 9 -146 113 -320 231 -303 204 -318 213 -328 192z"/>
<path d="M16579 6534 c-8 -10 -9 -18 -3 -22 6 -4 151 -101 323 -217 298 -200
313 -209 327 -191 8 11 11 23 7 26 -22 19 -626 420 -633 420 -4 0 -13 -7 -21
-16z"/>
<path d="M15827 6443 c-3 -5 -89 -168 -192 -363 -172 -327 -185 -355 -169
-367 15 -11 20 -11 29 -1 12 13 375 703 375 712 0 10 -39 26 -43 19z"/>
<path d="M6772 6423 c-5 -10 -89 -171 -187 -357 -168 -319 -177 -340 -160
-353 11 -7 22 -10 26 -6 4 5 90 168 193 363 131 251 182 357 173 362 -20 13
-36 9 -45 -9z"/>
<path d="M4815 6407 c-6 -17 -205 -765 -205 -770 0 -3 11 -7 24 -9 23 -5 25 1
125 377 56 210 101 386 101 392 0 15 -40 24 -45 10z"/>
<path d="M13860 6418 c0 -2 -47 -178 -104 -391 -101 -380 -103 -389 -82 -397
12 -4 22 -6 24 -5 4 4 211 779 209 781 -5 4 -47 15 -47 12z"/>
<path d="M5036 6363 c-3 -10 -55 -184 -116 -387 -61 -202 -109 -375 -106 -383
3 -8 14 -13 23 -11 24 4 259 778 240 790 -20 13 -35 9 -41 -9z"/>
<path d="M13967 5990 c-65 -215 -115 -395 -112 -400 4 -6 14 -10 24 -10 14 0
38 71 135 390 64 215 114 395 111 400 -3 6 -14 10 -23 10 -14 0 -40 -77 -135
-390z"/>
<path d="M2347 6026 c-238 -293 -254 -316 -238 -330 23 -21 -8 -56 498 570 32
39 32 42 15 58 -18 15 -31 1 -275 -298z"/>
<path d="M6785 5979 c-161 -344 -168 -362 -150 -375 10 -8 22 -11 25 -7 4 5
82 169 174 367 168 358 174 375 131 376 -6 0 -86 -163 -180 -361z"/>
<path d="M11397 6033 c-137 -167 -250 -310 -253 -318 -3 -7 3 -18 13 -23 16
-9 51 30 266 294 136 167 250 310 253 317 2 6 -4 17 -14 23 -15 10 -47 -25
-265 -293z"/>
<path d="M15981 6303 c-10 -21 -87 -184 -171 -363 -141 -301 -150 -325 -134
-337 10 -7 21 -10 25 -6 19 20 339 718 335 730 -10 25 -36 13 -55 -24z"/>
<path d="M2520 5899 c-263 -302 -270 -312 -250 -326 12 -8 22 -13 24 -12 1 2
123 143 270 312 222 255 266 310 256 322 -7 8 -16 15 -21 15 -4 0 -130 -140
-279 -311z"/>
<path d="M11579 5918 c-306 -352 -286 -325 -265 -346 14 -14 18 -14 30 -2 7 8
120 139 251 290 131 151 247 285 258 297 16 19 18 25 7 38 -7 8 -16 15 -20 15
-4 0 -121 -131 -261 -292z"/>
<path d="M1317 6087 c-17 -12 -6 -36 159 -357 97 -190 180 -348 183 -353 4 -4
15 -1 26 6 17 13 8 34 -154 349 -94 184 -177 342 -184 351 -10 15 -15 16 -30
4z"/>
<path d="M10357 6088 c-14 -12 3 -49 165 -364 175 -340 182 -352 204 -342 23
11 21 15 -112 272 -74 143 -156 303 -182 354 -25 50 -49 92 -52 92 -4 0 -14
-6 -23 -12z"/>
<path d="M1102 5981 c-10 -6 31 -90 169 -347 100 -186 185 -343 189 -347 9
-10 40 2 40 16 0 20 -363 687 -374 687 -6 0 -17 -4 -24 -9z"/>
<path d="M10143 5982 c-8 -5 45 -112 175 -355 103 -191 189 -347 192 -347 4 0
13 6 22 13 15 11 -3 49 -167 352 -100 187 -189 341 -196 342 -8 2 -19 0 -26
-5z"/>
<path d="M5553 5632 c-178 -114 -323 -211 -323 -217 1 -46 20 -37 282 130 144
93 293 188 331 212 62 39 66 45 55 63 -7 11 -15 20 -18 19 -3 0 -150 -93 -327
-207z"/>
<path d="M14593 5632 c-177 -114 -322 -212 -323 -218 -1 -52 47 -26 598 332
74 48 82 56 72 74 -6 11 -14 20 -18 19 -4 -1 -152 -94 -329 -207z"/>
<path d="M3581 5793 c-9 -17 26 -40 332 -221 304 -179 343 -199 355 -185 6 9
12 19 12 23 0 7 -656 394 -675 398 -8 2 -18 -5 -24 -15z"/>
<path d="M12625 5793 c-8 -22 -31 -7 354 -234 309 -182 341 -197 341 -154 0
12 -658 405 -678 405 -5 0 -13 -8 -17 -17z"/>
<path d="M5649 5454 c-178 -108 -328 -199 -332 -203 -10 -10 2 -41 15 -41 19
0 667 395 668 406 0 6 -6 17 -13 23 -11 8 -88 -34 -338 -185z"/>
<path d="M14685 5450 c-181 -110 -331 -203 -333 -208 -1 -5 4 -15 13 -22 13
-11 63 16 333 179 174 105 323 195 331 200 13 8 7 51 -7 51 -4 0 -155 -90
-337 -200z"/>
<path d="M3461 5592 c-8 -16 30 -41 326 -208 184 -104 341 -190 348 -192 18
-4 28 29 13 43 -18 17 -657 375 -668 375 -5 0 -14 -8 -19 -18z"/>
<path d="M12506 5593 c-4 -9 -3 -20 1 -24 13 -11 667 -379 675 -379 4 0 12 9
17 19 10 17 -21 37 -328 210 -186 105 -343 191 -349 191 -5 0 -13 -8 -16 -17z"/>
<path d="M8063 5488 c-4 -7 -96 -161 -205 -343 -178 -297 -196 -331 -181 -342
9 -7 19 -13 22 -13 14 1 412 682 407 696 -7 17 -32 18 -43 2z"/>
<path d="M16907 5158 c-179 -300 -203 -345 -189 -355 9 -7 19 -13 23 -13 4 0
99 155 212 344 200 337 214 366 171 366 -6 0 -104 -154 -217 -342z"/>
<path d="M8247 5358 c-19 -29 -116 -181 -216 -337 -101 -156 -185 -289 -187
-296 -6 -16 24 -41 35 -29 13 13 441 682 441 688 0 3 -9 10 -20 16 -17 9 -23
4 -53 -42z"/>
<path d="M17101 5063 c-207 -321 -222 -348 -205 -360 15 -11 20 -11 30 -1 9
11 405 626 428 666 8 13 -9 42 -24 42 -3 0 -107 -156 -229 -347z"/>
<path d="M236 5333 c-4 -9 -3 -20 1 -24 6 -5 716 -133 793 -142 10 -1 15 7 15
22 0 24 -3 25 -385 92 -212 38 -392 68 -401 68 -9 1 -20 -7 -23 -16z"/>
<path d="M9280 5327 c0 -23 9 -25 393 -91 215 -38 397 -69 402 -70 6 0 10 10
10 23 0 25 -2 25 -385 93 -212 37 -393 68 -402 68 -12 0 -18 -8 -18 -23z"/>
<path d="M180 5137 c0 -31 -42 -21 425 -96 463 -75 429 -71 433 -44 4 27 42
19 -423 93 -209 33 -392 63 -407 66 -25 5 -28 3 -28 -19z"/>
<path d="M9227 5154 c-19 -19 -6 -43 26 -49 17 -3 199 -32 402 -65 204 -33
382 -62 398 -65 23 -4 27 -1 27 20 0 17 -7 26 -22 30 -13 3 -192 32 -398 65
-206 33 -386 62 -400 65 -14 3 -29 3 -33 -1z"/>
<path d="M2400 5035 c0 -18 5 -25 19 -25 21 0 626 -56 709 -65 50 -6 52 -6 52
18 0 22 -5 26 -47 31 -65 8 -689 66 -713 66 -15 0 -20 -7 -20 -25z"/>
<path d="M11446 5043 c-4 -9 -3 -20 1 -24 10 -9 763 -80 775 -73 4 3 8 14 8
24 0 15 -10 20 -52 25 -75 8 -693 65 -711 65 -8 0 -18 -8 -21 -17z"/>
<path d="M6682 5028 c-7 -7 -12 -17 -11 -22 1 -13 576 -509 594 -514 14 -3 28
25 20 38 -6 9 -583 510 -588 510 -2 0 -8 -5 -15 -12z"/>
<path d="M15722 5028 c-7 -7 -12 -15 -12 -19 0 -6 517 -456 583 -508 16 -12
20 -12 35 3 16 16 16 18 -3 34 -12 9 -146 125 -299 257 -153 132 -281 241
-285 243 -4 1 -12 -3 -19 -10z"/>
<path d="M2360 4847 c0 -22 6 -23 368 -65 202 -24 377 -46 390 -49 18 -4 22
-1 22 21 0 19 -6 27 -22 30 -34 7 -710 86 -735 86 -17 0 -23 -6 -23 -23z"/>
<path d="M6525 4850 c-16 -17 -3 -30 284 -269 165 -138 305 -251 310 -251 6 0
14 8 19 18 8 14 -40 58 -293 269 -290 241 -304 251 -320 233z"/>
<path d="M11403 4854 c-3 -8 -2 -19 3 -23 5 -5 171 -27 369 -50 198 -23 370
-44 381 -46 16 -4 23 1 27 17 4 12 4 24 2 26 -4 5 -718 92 -753 92 -12 0 -25
-7 -29 -16z"/>
<path d="M15572 4858 c-7 -7 -12 -17 -12 -23 0 -12 569 -492 594 -501 16 -6
42 24 30 35 -5 4 -133 111 -284 236 -151 125 -284 236 -296 246 -16 15 -23 16
-32 7z"/>
<path d="M5147 4748 c-4 -12 -5 -23 -4 -24 1 -1 169 -53 372 -117 349 -109
371 -114 379 -96 5 11 6 22 3 25 -6 6 -725 234 -738 234 -4 0 -9 -10 -12 -22z"/>
<path d="M14197 4763 c-13 -13 -7 -42 11 -47 43 -13 642 -198 680 -211 41 -14
43 -13 51 8 5 12 8 23 6 25 -1 1 -460 145 -726 227 -8 3 -18 2 -22 -2z"/>
<path d="M3700 4514 c-190 -102 -349 -189 -353 -193 -9 -9 1 -41 14 -41 11 0
691 360 707 375 14 13 6 45 -12 44 -6 0 -166 -84 -356 -185z"/>
<path d="M12745 4514 c-192 -102 -353 -189 -358 -193 -4 -4 -1 -15 6 -25 13
-18 37 -7 375 173 330 176 361 194 352 212 -6 10 -14 19 -18 19 -4 0 -164 -84
-357 -186z"/>
<path d="M8558 4547 c-203 -61 -368 -116 -368 -122 1 -40 13 -38 385 73 202
61 369 113 372 116 7 6 -7 46 -15 45 -4 -1 -172 -51 -374 -112z"/>
<path d="M17603 4546 c-347 -103 -372 -112 -367 -131 4 -11 8 -22 10 -23 1 -2
171 46 377 108 338 101 374 114 370 131 -3 11 -8 21 -12 23 -3 2 -174 -46
-378 -108z"/>
<path d="M730 4413 c-146 -129 -283 -250 -304 -269 -33 -28 -37 -36 -26 -49 7
-8 16 -15 21 -15 4 0 143 120 309 266 291 257 301 266 284 285 -9 10 -18 19
-18 18 -1 0 -120 -106 -266 -236z"/>
<path d="M9736 4379 c-295 -260 -307 -272 -290 -290 16 -18 21 -15 138 89 66
60 202 179 301 267 99 87 181 163 183 170 2 6 -4 17 -11 24 -12 9 -72 -39
-321 -260z"/>
<path d="M1930 4575 c-6 -8 -8 -20 -4 -27 18 -29 417 -604 428 -615 8 -9 15
-9 29 2 17 13 3 36 -204 334 -123 177 -226 321 -230 321 -3 0 -12 -7 -19 -15z"/>
<path d="M10971 4576 c-10 -12 25 -69 210 -335 196 -282 224 -319 240 -310 11
5 19 13 19 17 0 12 -436 636 -447 639 -5 2 -16 -3 -22 -11z"/>
<path d="M5067 4554 c-4 -4 -7 -15 -7 -25 0 -13 14 -22 48 -32 26 -8 191 -58
366 -112 322 -97 335 -100 336 -60 0 6 -160 59 -356 119 -196 59 -362 110
-368 112 -7 3 -15 1 -19 -2z"/>
<path d="M14105 4540 c-4 -12 -5 -23 -3 -26 11 -11 730 -224 739 -219 5 4 9
14 9 24 0 15 -62 37 -357 126 -197 59 -363 110 -370 112 -6 3 -14 -5 -18 -17z"/>
<path d="M12838 4342 c-208 -114 -378 -211 -378 -217 0 -45 18 -38 361 150
460 252 419 226 406 252 -12 21 -23 15 -389 -185z"/>
<path d="M3790 4339 c-201 -110 -368 -203 -373 -208 -4 -4 -1 -15 6 -25 13
-17 39 -4 388 187 278 153 374 210 374 224 0 10 -7 19 -15 20 -8 2 -179 -87
-380 -198z"/>
<path d="M836 4215 c-157 -152 -286 -281 -286 -285 0 -4 7 -13 15 -20 14 -11
34 5 143 111 70 68 200 195 289 281 154 150 160 157 143 173 -18 16 -32 4
-304 -260z"/>
<path d="M9940 4274 c-369 -354 -357 -341 -338 -361 19 -18 -14 -47 410 360
164 159 185 182 175 199 -7 10 -14 18 -17 18 -3 0 -106 -97 -230 -216z"/>
<path d="M1736 4465 c-11 -9 -15 -19 -10 -27 24 -41 428 -609 436 -614 5 -4
17 0 25 8 13 13 -11 52 -203 324 -119 170 -220 312 -223 316 -3 4 -14 1 -25
-7z"/>
<path d="M10776 4465 c-17 -13 -4 -33 204 -329 122 -174 225 -316 230 -316 4
0 13 7 20 15 9 11 8 20 -7 42 -88 127 -425 603 -426 603 -1 0 -10 -7 -21 -15z"/>
<path d="M8592 4347 c-350 -95 -372 -102 -366 -121 4 -12 8 -22 9 -24 4 -4
747 196 753 202 6 7 -8 46 -16 45 -4 0 -175 -46 -380 -102z"/>
<path d="M17705 4366 c-165 -45 -330 -90 -367 -100 -60 -16 -68 -21 -68 -42 0
-13 4 -24 8 -24 5 0 156 40 338 89 181 49 348 94 372 101 36 9 43 15 40 32 -2
12 -7 22 -13 24 -5 1 -145 -35 -310 -80z"/>
<path d="M4306 3918 c-69 -370 -62 -332 -75 -388 -17 -72 -14 -90 12 -90 23 0
25 10 96 384 40 212 70 390 66 395 -3 6 -14 11 -24 11 -14 0 -25 -45 -75 -312z"/>
<path d="M13405 4218 c-7 -24 -138 -733 -139 -753 -1 -13 6 -21 21 -23 18 -3
23 3 29 35 4 21 37 196 74 388 46 241 63 352 56 357 -17 12 -36 9 -41 -4z"/>
<path d="M4555 4148 c-7 -41 -105 -730 -105 -740 0 -5 11 -8 25 -8 14 0 25 4
25 8 0 11 97 695 105 740 5 29 4 32 -19 32 -20 0 -26 -6 -31 -32z"/>
<path d="M13600 4172 c0 -11 -97 -695 -105 -739 -5 -30 -4 -33 19 -33 20 0 26
6 31 33 8 48 105 728 105 738 0 5 -11 9 -25 9 -14 0 -25 -4 -25 -8z"/>
<path d="M6485 3984 c-214 -46 -395 -86 -401 -88 -15 -6 -6 -46 10 -46 21 1
786 167 791 172 3 3 2 14 -2 25 -8 19 -21 17 -398 -63z"/>
<path d="M15518 3982 c-386 -83 -398 -86 -398 -109 0 -13 3 -23 8 -23 19 -1
788 164 796 171 6 5 6 16 0 27 -9 18 -30 14 -406 -66z"/>
<path d="M6495 3786 c-368 -84 -400 -93 -397 -111 2 -11 6 -22 8 -24 5 -5 827
180 837 189 14 12 -5 40 -27 39 -11 -1 -201 -42 -421 -93z"/>
<path d="M15538 3786 c-381 -87 -398 -92 -398 -113 0 -15 6 -23 18 -23 9 1
199 42 422 93 379 86 405 94 408 115 3 18 -1 22 -25 21 -15 -1 -207 -42 -425
-93z"/>
<path d="M7972 3818 c-7 -7 -12 -17 -12 -22 0 -15 308 -216 330 -216 10 0 20
-7 22 -15 2 -8 62 -53 133 -100 117 -76 131 -83 143 -68 6 9 12 19 12 22 0 13
-239 161 -259 161 -12 0 -19 5 -16 13 2 7 -56 51 -142 107 -80 52 -158 103
-173 112 -20 14 -29 15 -38 6z"/>
<path d="M17010 3809 c-7 -11 -10 -22 -8 -24 39 -33 321 -205 336 -205 13 0
20 -5 17 -12 -7 -20 256 -189 272 -176 7 6 13 16 13 23 0 14 -231 165 -254
165 -9 0 -16 6 -16 13 0 9 -251 181 -336 230 -8 5 -17 0 -24 -14z"/>
<path d="M7831 3637 c-25 -25 2 -57 48 -57 12 0 20 -5 19 -12 -2 -6 118 -90
266 -186 206 -134 271 -171 277 -161 5 8 8 20 6 26 -3 18 -494 333 -518 333
-10 0 -18 5 -16 11 1 6 -14 21 -34 34 -27 18 -39 21 -48 12z"/>
<path d="M16870 3629 c-10 -17 -8 -23 7 -35 10 -7 28 -14 40 -14 12 0 23 -7
25 -15 2 -8 122 -91 267 -185 241 -156 265 -169 276 -153 7 10 11 21 9 24 -12
19 -505 329 -524 329 -12 0 -19 4 -15 9 4 8 -22 31 -62 55 -7 4 -17 -2 -23
-15z"/>
<path d="M6860 3189 c-100 -199 -179 -368 -176 -375 16 -43 43 0 216 346 99
198 180 362 180 365 0 2 -9 9 -20 15 -18 10 -33 -15 -200 -351z"/>
<path d="M15901 3182 c-181 -362 -188 -381 -146 -382 6 0 92 164 192 364 178
356 181 364 159 374 -21 9 -29 -4 -205 -356z"/>
<path d="M1604 3257 c-318 -336 -292 -304 -271 -324 16 -16 18 -16 35 2 50 54
413 438 464 491 57 58 58 61 40 77 -18 16 -29 6 -268 -246z"/>
<path d="M10685 3298 c-332 -350 -329 -346 -315 -363 7 -8 15 -15 19 -15 7 0
423 435 503 525 35 40 36 43 20 58 -16 15 -32 1 -227 -205z"/>
<path d="M7052 3085 c-89 -199 -162 -367 -162 -373 0 -13 31 -25 41 -15 8 9
316 701 321 721 2 8 -6 18 -18 22 -19 7 -32 -19 -182 -355z"/>
<path d="M16255 3440 c-3 -5 -78 -170 -166 -367 -146 -327 -158 -359 -142
-370 9 -7 19 -13 22 -13 5 0 315 689 329 730 5 13 -35 32 -43 20z"/>
<path d="M1780 3119 c-330 -355 -316 -338 -296 -357 19 -20 -14 -51 315 301
189 202 230 251 220 263 -6 8 -17 14 -23 14 -6 -1 -103 -100 -216 -221z"/>
<path d="M10829 3123 c-112 -120 -230 -246 -263 -281 -57 -59 -59 -63 -42 -80
20 -20 4 -35 355 341 162 174 191 210 181 222 -7 8 -16 15 -20 15 -4 0 -99
-98 -211 -217z"/>
<path d="M5245 3079 c-192 -103 -350 -192 -349 -198 2 -26 5 -31 15 -31 16 0
709 370 709 379 0 4 -6 14 -12 23 -11 13 -58 -9 -363 -173z"/>
<path d="M14280 3075 c-190 -101 -345 -189 -344 -195 3 -26 5 -30 16 -30 12 0
685 355 701 369 10 10 -2 41 -17 41 -6 0 -166 -84 -356 -185z"/>
<path d="M3375 3105 c-181 -13 -347 -24 -367 -24 -34 -1 -38 -4 -38 -26 0 -30
-35 -30 353 -5 448 28 439 27 435 53 -2 15 -11 22 -28 23 -14 1 -173 -9 -355
-21z"/>
<path d="M12415 3104 c-187 -12 -352 -23 -367 -23 -23 -1 -28 -6 -28 -26 0
-14 6 -25 13 -25 28 0 666 41 715 46 47 5 52 8 52 30 0 19 -5 24 -22 23 -13
-1 -176 -12 -363 -25z"/>
<path d="M5358 2897 c-203 -99 -368 -185 -368 -191 1 -43 19 -36 388 146 356
176 371 184 359 204 -12 20 -23 16 -379 -159z"/>
<path d="M14398 2896 c-203 -100 -368 -184 -368 -187 0 -3 6 -13 13 -22 11
-16 46 0 380 165 202 100 367 185 367 188 0 3 -6 13 -12 22 -11 13 -58 -7
-380 -166z"/>
<path d="M488 2978 c-18 -40 -94 -203 -169 -363 -120 -255 -135 -291 -121
-302 9 -7 19 -13 23 -13 3 0 83 163 176 363 149 317 168 364 155 375 -9 6 -19
12 -23 12 -4 0 -22 -33 -41 -72z"/>
<path d="M9401 2698 c-90 -194 -166 -360 -168 -369 -5 -17 25 -35 38 -22 4 4
82 168 173 363 148 319 163 356 149 368 -9 6 -19 12 -23 12 -3 0 -79 -159
-169 -352z"/>
<path d="M556 2616 c-102 -200 -186 -369 -186 -374 0 -13 31 -25 41 -15 9 10
369 717 369 726 0 4 -9 11 -19 17 -18 9 -35 -21 -205 -354z"/>
<path d="M9595 2609 c-187 -371 -194 -389 -150 -389 9 0 377 716 376 732 -1 4
-9 12 -20 17 -17 9 -36 -25 -206 -360z"/>
<path d="M3430 2904 c-162 -6 -334 -12 -382 -13 -87 -1 -88 -1 -88 -26 0 -30
-26 -29 410 -15 376 13 382 14 378 42 -2 12 -7 22 -13 23 -5 1 -143 -4 -305
-11z"/>
<path d="M12450 2904 c-173 -7 -344 -14 -380 -16 -59 -3 -65 -5 -68 -25 -3
-21 1 -23 40 -23 89 0 704 22 726 26 16 3 22 11 22 29 0 14 -5 24 -12 24 -7
-1 -155 -8 -328 -15z"/>
<path d="M6024 2712 c-8 -5 2 -116 32 -382 24 -206 43 -381 44 -388 0 -9 7
-11 23 -6 12 3 23 7 24 8 3 3 -74 696 -82 744 -6 31 -19 39 -41 24z"/>
<path d="M6230 2687 c0 -20 14 -189 30 -377 17 -188 30 -350 30 -361 0 -22 38
-27 46 -6 2 7 -10 184 -28 393 -33 374 -33 379 -55 382 -20 3 -23 -1 -23 -31z"/>
<path d="M15064 2705 c-6 -13 71 -734 81 -762 5 -14 45 -5 45 11 0 21 -81 741
-85 754 -6 17 -34 15 -41 -3z"/>
<path d="M15271 2693 c0 -16 15 -192 32 -393 32 -360 32 -365 55 -368 29 -4
29 -8 -8 417 -17 189 -30 350 -30 357 0 8 -11 14 -25 14 -21 0 -25 -5 -24 -27z"/>
<path d="M7937 2629 c-7 -25 -36 -13 395 -168 186 -67 342 -119 348 -116 5 3
10 14 10 23 0 13 -81 46 -368 150 -202 73 -370 132 -373 132 -4 0 -9 -9 -12
-21z"/>
<path d="M16987 2643 c-29 -28 -2 -41 346 -167 193 -69 362 -129 373 -132 16
-4 23 0 27 16 4 16 -1 23 -21 31 -43 17 -713 259 -716 259 -1 0 -6 -3 -9 -7z"/>
<path d="M7857 2409 c-4 -13 0 -22 11 -27 9 -3 177 -61 372 -128 334 -114 356
-121 364 -103 6 12 6 23 0 28 -9 8 -717 251 -733 251 -5 0 -11 -9 -14 -21z"/>
<path d="M16900 2410 c-8 -15 -8 -21 2 -25 7 -3 150 -52 318 -109 168 -58 331
-114 363 -125 l58 -20 8 22 c5 12 8 23 6 25 -3 4 -729 252 -737 252 -4 0 -12
-9 -18 -20z"/>
<path d="M2462 2377 c-9 -10 43 -87 219 -328 126 -173 233 -315 237 -317 4 -1
15 3 24 10 15 12 -8 48 -215 330 -128 175 -237 318 -243 318 -6 0 -16 -6 -22
-13z"/>
<path d="M11508 2378 c-14 -12 10 -50 215 -330 128 -174 237 -317 243 -318 6
0 17 6 23 13 8 11 -39 83 -219 328 -126 172 -233 315 -237 316 -5 2 -16 -2
-25 -9z"/>
<path d="M3552 2048 c-269 -281 -280 -293 -264 -312 16 -18 21 -14 127 97 61
64 188 196 282 295 165 171 172 180 154 196 -17 16 -31 3 -299 -276z"/>
<path d="M12804 2267 c-38 -41 -163 -172 -278 -291 -199 -206 -208 -218 -192
-234 17 -16 28 -7 207 178 104 107 230 238 279 291 86 92 89 97 71 113 -18 16
-22 13 -87 -57z"/>
<path d="M1110 2149 c-195 -81 -355 -153 -354 -158 3 -27 5 -31 18 -31 7 0
166 63 352 141 186 77 345 143 352 146 6 3 12 8 12 12 0 4 -6 14 -12 22 -11
14 -57 -3 -368 -132z"/>
<path d="M10138 2143 c-192 -80 -348 -149 -348 -152 0 -4 6 -14 13 -23 11 -14
54 2 367 133 195 81 355 152 354 158 -3 27 -5 31 -21 30 -10 0 -174 -66 -365
-146z"/>
<path d="M2277 2245 c-17 -12 1 -39 220 -328 131 -174 242 -315 247 -313 5 1
14 9 19 18 8 12 -41 82 -223 322 -128 168 -235 308 -239 310 -3 2 -14 -2 -24
-9z"/>
<path d="M11320 2245 c-6 -8 -10 -18 -8 -23 1 -4 108 -146 236 -316 224 -295
235 -307 253 -291 17 17 10 28 -198 304 -273 361 -257 340 -264 340 -4 1 -12
-6 -19 -14z"/>
<path d="M3718 1912 c-274 -266 -295 -288 -281 -304 20 -22 9 -32 351 302 251
245 262 257 244 273 -17 16 -32 3 -314 -271z"/>
<path d="M12760 1911 c-279 -273 -294 -290 -278 -307 16 -16 33 -2 313 271
281 275 294 289 279 307 -10 10 -18 18 -18 18 -1 0 -134 -130 -296 -289z"/>
<path d="M4960 2094 c-11 -12 -10 -18 6 -33 10 -10 123 -114 249 -231 127
-117 253 -236 282 -263 44 -43 54 -48 67 -37 9 7 16 16 16 20 0 10 -590 560
-600 560 -4 0 -13 -7 -20 -16z"/>
<path d="M14001 2096 c-13 -15 -6 -22 362 -365 222 -207 229 -212 248 -195 11
10 16 20 12 24 -5 4 -139 129 -300 278 -160 150 -296 272 -301 272 -5 0 -15
-6 -21 -14z"/>
<path d="M1158 1952 c-197 -75 -358 -141 -358 -147 0 -44 14 -40 352 90 183
70 347 133 365 140 25 11 30 18 26 34 -3 12 -10 21 -17 20 -6 0 -172 -62 -368
-137z"/>
<path d="M10210 1955 c-190 -73 -351 -137 -358 -142 -11 -6 -11 -11 1 -26 12
-18 32 -11 373 119 197 76 361 139 362 140 9 6 -10 44 -21 43 -7 0 -167 -60
-357 -134z"/>
<path d="M6847 1668 c-212 -224 -264 -284 -255 -295 6 -8 17 -13 24 -11 7 2
115 111 240 243 124 132 242 257 262 277 30 31 33 40 22 53 -7 8 -16 15 -19
15 -4 0 -127 -127 -274 -282z"/>
<path d="M15895 1674 c-143 -151 -261 -281 -263 -288 -2 -8 5 -16 14 -20 21
-8 18 -11 333 323 177 186 219 236 210 247 -6 8 -17 14 -23 14 -6 0 -128 -124
-271 -276z"/>
<path d="M4830 1909 c-7 -11 -10 -22 -8 -23 5 -4 560 -486 584 -508 20 -18 21
-18 37 0 16 18 4 30 -280 278 -163 142 -302 262 -309 267 -8 5 -17 0 -24 -14z"/>
<path d="M13876 1911 c-17 -18 -9 -25 216 -222 128 -111 265 -231 304 -266 69
-61 72 -62 88 -44 16 18 7 28 -256 256 -150 131 -287 251 -304 267 -30 28 -31
28 -48 9z"/>
<path d="M7000 1504 c-140 -151 -255 -282 -255 -292 0 -47 44 -8 290 254 206
221 256 280 248 292 -5 9 -14 17 -19 18 -5 1 -124 -121 -264 -272z"/>
<path d="M16040 1500 c-218 -234 -260 -283 -250 -295 7 -8 16 -15 20 -15 5 0
102 100 216 223 115 122 233 248 263 279 45 49 52 60 41 73 -7 8 -16 15 -20
15 -4 0 -126 -126 -270 -280z"/>
<path d="M17008 1372 c-315 -102 -388 -129 -388 -143 0 -10 4 -20 10 -24 10
-6 758 232 774 246 6 5 6 16 0 27 -8 18 -34 11 -396 -106z"/>
<path d="M7965 1372 c-436 -142 -395 -126 -388 -151 3 -12 9 -21 13 -21 26 0
775 250 774 259 -3 27 -5 31 -21 30 -10 0 -180 -53 -378 -117z"/>
<path d="M1630 1448 l0 -25 263 -6 c144 -4 331 -7 415 -7 l152 0 0 25 0 25
-152 0 c-84 0 -271 3 -415 7 l-263 6 0 -25z"/>
<path d="M10680 1448 l0 -25 257 -6 c141 -4 325 -7 410 -7 l153 0 0 25 0 25
-153 0 c-85 0 -269 3 -410 7 l-257 6 0 -25z"/>
<path d="M4220 1394 c-184 -12 -343 -23 -352 -23 -18 -1 -25 -35 -10 -45 5 -3
179 6 388 19 208 14 382 25 387 25 4 0 7 11 7 25 0 30 34 30 -420 -1z"/>
<path d="M13265 1394 c-187 -12 -346 -23 -352 -23 -7 -1 -13 -13 -13 -27 l0
-26 68 6 c52 5 686 46 707 46 3 0 5 11 5 25 0 30 40 30 -415 -1z"/>
<path d="M555 1349 c-4 -11 -5 -22 -3 -24 8 -7 683 -355 690 -355 7 0 22 40
16 44 -9 7 -687 356 -692 356 -2 0 -8 -9 -11 -21z"/>
<path d="M9600 1350 c-7 -12 -10 -23 -8 -24 2 -2 158 -83 347 -181 342 -177
360 -184 361 -140 0 6 -37 29 -83 53 -619 321 -605 314 -617 292z"/>
<path d="M8013 1182 c-222 -75 -403 -140 -403 -143 0 -3 6 -13 13 -22 11 -15
48 -5 417 120 223 75 406 137 407 138 8 4 -11 45 -21 44 -6 0 -192 -62 -413
-137z"/>
<path d="M17058 1183 c-327 -111 -398 -139 -398 -154 0 -10 4 -20 9 -23 7 -5
805 258 819 270 8 6 -10 44 -21 43 -7 0 -191 -62 -409 -136z"/>
<path d="M1610 1245 l0 -25 436 0 435 0 -3 23 -3 22 -432 3 -433 2 0 -25z"/>
<path d="M10650 1245 l0 -25 435 0 435 0 0 25 0 25 -435 0 -435 0 0 -25z"/>
<path d="M4260 1195 c-162 -7 -323 -13 -357 -14 -60 -1 -63 -2 -63 -26 0 -23
4 -25 43 -25 34 1 736 28 745 30 1 0 2 11 2 25 0 22 -4 25 -37 23 -21 0 -171
-7 -333 -13z"/>
<path d="M13300 1195 c-162 -7 -323 -13 -357 -14 -63 -1 -74 -9 -54 -39 7 -11
62 -12 312 -3 167 6 341 14 387 17 78 6 82 7 82 30 0 21 -4 24 -37 22 -21 0
-171 -7 -333 -13z"/>
<path d="M435 1159 c-4 -11 -3 -24 2 -29 4 -4 159 -84 344 -179 331 -168 336
-170 346 -148 10 22 -1 29 -337 200 -327 167 -349 176 -355 156z"/>
<path d="M9480 1159 c-7 -11 -8 -24 -3 -29 4 -4 160 -84 345 -178 325 -165
338 -171 349 -150 9 16 8 23 -2 29 -8 5 -144 75 -304 155 -159 81 -309 158
-332 171 l-42 24 -11 -22z"/>
<path d="M3421 966 c-11 -14 88 -123 500 -551 27 -28 30 -28 46 -12 20 20 52
-18 -276 326 -129 135 -240 247 -246 249 -7 2 -17 -4 -24 -12z"/>
<path d="M5157 733 c-271 -219 -304 -249 -293 -265 6 -10 16 -16 22 -14 6 2
146 114 312 248 254 206 299 246 291 260 -5 10 -14 18 -18 18 -5 0 -146 -111
-314 -247z"/>
<path d="M12470 965 c-11 -14 -7 -22 26 -58 248 -262 491 -513 500 -515 6 -2
16 4 23 12 10 12 -31 61 -256 295 -147 155 -271 281 -274 281 -4 0 -12 -7 -19
-15z"/>
<path d="M14220 749 c-345 -279 -329 -264 -308 -285 14 -15 40 3 309 221 357
288 325 260 309 279 -7 9 -15 16 -19 16 -3 0 -134 -104 -291 -231z"/>
<path d="M8563 953 c-192 -495 -279 -739 -266 -746 7 -5 19 -7 25 -5 18 6 297
752 284 760 -19 13 -36 9 -43 -9z"/>
<path d="M17602 943 c-87 -218 -271 -720 -268 -730 3 -7 13 -13 23 -13 14 0
46 76 158 372 77 204 140 376 140 382 0 6 -9 12 -21 14 -15 2 -24 -5 -32 -25z"/>
<path d="M2232 578 c-254 -306 -275 -338 -227 -338 7 0 128 140 270 310 213
258 255 313 245 325 -7 8 -16 15 -20 15 -5 0 -125 -141 -268 -312z"/>
<path d="M8628 513 c-110 -333 -123 -379 -110 -390 9 -7 19 -13 24 -13 10 0
259 761 252 772 -3 4 -13 8 -23 8 -16 0 -40 -64 -143 -377z"/>
<path d="M11280 583 c-140 -169 -257 -311 -259 -316 -1 -4 5 -14 15 -21 16
-12 40 14 263 283 136 163 252 304 260 314 11 14 11 20 1 32 -7 8 -15 15 -19
15 -4 0 -121 -138 -261 -307z"/>
<path d="M17671 510 c-69 -209 -123 -382 -120 -384 2 -2 13 -6 23 -8 18 -3 34
39 143 372 67 206 121 381 118 388 -2 6 -12 12 -22 12 -15 0 -40 -67 -142
-380z"/>
<path d="M3252 828 c-7 -7 -12 -17 -12 -22 1 -6 121 -134 268 -284 255 -262
268 -273 284 -255 16 17 4 31 -250 295 -147 152 -269 276 -272 277 -4 1 -11
-4 -18 -11z"/>
<path d="M12290 825 c-15 -18 -18 -14 305 -348 211 -217 222 -227 238 -209 16
17 3 32 -249 292 -145 151 -268 276 -273 278 -4 1 -14 -4 -21 -13z"/>
<path d="M5300 560 c-162 -138 -296 -254 -298 -258 -1 -5 4 -15 13 -22 13 -10
18 -10 33 2 9 8 103 86 207 173 379 317 376 314 362 336 -6 10 -14 19 -17 18
-3 0 -138 -112 -300 -249z"/>
<path d="M14349 564 c-162 -136 -298 -250 -303 -255 -12 -11 13 -41 29 -35 22
8 590 488 593 501 2 6 -3 17 -11 24 -12 9 -70 -36 -308 -235z"/>
<path d="M2401 439 c-230 -304 -258 -349 -217 -349 8 0 120 138 247 308 128
169 236 312 241 318 5 7 1 18 -10 28 -18 15 -30 1 -261 -305z"/>
<path d="M11446 443 c-130 -173 -239 -320 -242 -326 -2 -7 4 -17 14 -23 16
-11 44 21 255 302 131 172 240 319 242 326 3 7 -3 18 -13 24 -16 10 -44 -23
-256 -303z"/>
<path d="M6920 541 c-11 -22 -28 -10 399 -301 233 -158 254 -171 269 -156 14
14 14 18 2 30 -18 16 -648 446 -655 446 -2 0 -9 -9 -15 -19z"/>
<path d="M15963 540 c-12 -18 11 -35 311 -239 178 -122 330 -223 339 -227 10
-3 18 2 22 16 4 12 5 23 3 24 -19 15 -657 446 -660 446 -2 0 -9 -9 -15 -20z"/>
<path d="M6214 363 c20 -397 16 -363 44 -363 l25 0 -7 118 c-3 64 -9 174 -12
245 l-7 127 -25 0 -25 0 7 -127z"/>
<path d="M15254 428 c3 -35 9 -145 12 -245 l7 -183 25 0 25 0 -7 183 c-3 100
-9 210 -12 245 -6 58 -8 62 -31 62 -25 0 -25 -1 -19 -62z"/>
<path d="M6023 333 c4 -71 7 -174 7 -230 l0 -103 25 0 25 0 0 103 c0 56 -3
159 -7 230 l-6 127 -25 0 -25 0 6 -127z"/>
<path d="M15066 313 c3 -82 7 -185 10 -230 5 -79 7 -83 29 -83 l23 0 -4 157
c-3 87 -7 191 -10 231 -5 67 -7 72 -29 72 l-23 0 4 -147z"/>
<path d="M6790 385 c-7 -9 -11 -17 -9 -19 2 -2 113 -85 246 -184 224 -168 246
-182 284 -182 42 0 41 1 -224 200 -147 110 -271 200 -276 200 -5 0 -14 -7 -21
-15z"/>
<path d="M15833 384 c-3 -8 -2 -19 3 -24 5 -5 114 -88 243 -184 213 -160 238
-176 275 -176 23 0 36 4 31 9 -39 35 -524 391 -534 391 -6 0 -14 -7 -18 -16z"/>
</g>
</svg>
