<?xml version="1.0" standalone="no"?>
<!DOCTYPE svg PUBLIC "-//W3C//DTD SVG 20010904//EN"
 "http://www.w3.org/TR/2001/REC-SVG-20010904/DTD/svg10.dtd">
<svg version="1.0" xmlns="http://www.w3.org/2000/svg"
 width="1811.000000pt" height="1217.000000pt" viewBox="0 0 1811.000000 1217.000000"
 preserveAspectRatio="xMidYMid meet">
<metadata>
Created by potrace 1.13, written by Peter Selinger 2001-2015
</metadata>
<g transform="translate(0.000000,1217.000000) scale(0.100000,-0.100000)"
fill="#000000" stroke="none">
<path d="M109 12156 c18 -21 224 -160 471 -316 123 -78 256 -166 295 -196 105
-78 250 -218 300 -289 61 -85 119 -212 150 -325 65 -239 93 -295 204 -413 104
-110 227 -199 491 -352 221 -128 300 -184 407 -289 154 -149 251 -300 314
-489 34 -99 35 -106 45 -217 5 -58 15 -94 45 -157 82 -172 210 -304 427 -442
60 -38 140 -89 178 -115 38 -25 74 -46 81 -46 7 0 13 -6 13 -12 1 -7 20 -27
43 -45 23 -17 110 -84 192 -148 328 -254 595 -410 820 -480 66 -20 157 -48
202 -62 221 -68 403 -240 523 -495 22 -47 60 -138 84 -202 95 -252 163 -309
530 -446 245 -92 277 -109 367 -199 128 -128 237 -313 382 -648 87 -199 119
-263 179 -350 66 -95 106 -126 295 -230 351 -192 464 -280 588 -458 161 -231
307 -389 543 -587 172 -144 209 -191 327 -420 69 -133 101 -184 148 -235 87
-93 264 -222 571 -416 321 -204 402 -263 527 -387 154 -152 217 -265 285 -514
50 -184 86 -249 208 -372 114 -113 212 -182 506 -356 230 -137 297 -186 406
-300 160 -166 266 -361 310 -568 7 -36 14 -84 14 -108 0 -101 92 -272 212
-394 72 -73 79 -78 119 -78 l44 0 -40 32 c-106 85 -178 174 -240 297 -28 56
-38 91 -46 163 -28 252 -148 494 -343 696 -115 119 -176 164 -425 312 -288
171 -373 231 -481 339 -113 114 -150 178 -190 329 -71 269 -137 391 -299 552
-134 133 -209 188 -537 397 -304 192 -485 324 -567 412 -42 46 -77 102 -141
229 -112 219 -160 281 -326 420 -239 200 -387 357 -522 554 -80 118 -185 228
-285 300 -69 49 -237 148 -445 262 -134 73 -210 179 -337 473 -162 371 -268
553 -405 689 -96 96 -134 117 -390 213 -351 132 -406 178 -496 416 -90 240
-173 387 -284 504 -120 125 -253 200 -449 251 -315 83 -554 222 -1051 613 -60
47 -113 84 -117 82 -4 -3 -9 2 -12 9 -6 15 -122 95 -264 184 -114 70 -230 170
-290 249 -71 93 -133 220 -133 271 0 60 -28 195 -57 275 -83 231 -247 452
-444 600 -41 30 -177 117 -304 192 -264 157 -386 246 -478 345 -83 90 -128
177 -166 322 -75 288 -172 441 -405 636 -105 88 -143 114 -393 272 -114 73
-256 166 -316 206 -85 58 -115 74 -143 74 -30 0 -34 -3 -25 -14z"/>
<path d="M577 12155 c12 -8 127 -65 255 -126 128 -60 265 -130 303 -154 213
-132 390 -425 464 -768 27 -122 52 -190 100 -263 81 -127 218 -222 451 -314
210 -83 253 -113 538 -373 279 -254 413 -483 457 -785 20 -138 58 -258 105
-328 48 -73 248 -243 270 -229 5 3 10 -1 10 -9 0 -28 349 -226 920 -521 592
-306 664 -345 735 -398 232 -174 401 -399 486 -646 47 -139 75 -178 150 -216
63 -32 146 -102 309 -260 109 -105 167 -151 300 -239 289 -191 421 -308 474
-419 15 -32 47 -135 72 -230 76 -297 107 -335 382 -491 317 -179 399 -257 620
-591 205 -309 310 -412 613 -601 190 -119 227 -162 339 -390 108 -219 141
-261 287 -355 52 -34 227 -126 389 -205 330 -161 383 -193 473 -290 144 -154
239 -346 307 -624 49 -201 86 -275 188 -375 99 -98 150 -129 364 -218 159 -66
242 -111 307 -165 138 -115 379 -341 429 -403 155 -195 245 -408 275 -657 12
-93 48 -193 97 -268 42 -64 252 -242 267 -227 4 3 7 1 7 -5 0 -8 18 -12 48
-12 l47 1 -39 24 c-22 13 -43 22 -48 19 -4 -3 -8 1 -9 8 0 7 -29 36 -65 63
-189 145 -225 211 -268 485 -39 247 -168 500 -349 684 -125 126 -364 334 -442
385 -38 25 -144 76 -233 113 -197 81 -290 137 -370 223 -77 81 -114 159 -151
316 -51 215 -129 403 -223 542 -56 82 -162 192 -231 239 -32 21 -194 106 -360
187 -317 156 -455 238 -523 312 -26 29 -73 112 -133 233 -83 168 -100 195
-159 255 -42 41 -115 97 -192 146 -303 190 -398 283 -602 590 -224 338 -309
419 -638 606 -268 153 -283 172 -361 476 -51 202 -82 267 -166 355 -88 91
-189 170 -393 304 -133 88 -191 134 -300 239 -162 157 -246 227 -308 259 -71
36 -89 62 -133 192 -22 65 -59 152 -81 192 -105 191 -289 390 -481 521 -27 18
-193 107 -370 198 -631 324 -965 504 -1157 622 -45 28 -83 51 -86 51 -2 0 -12
8 -22 18 -11 9 -55 46 -98 81 -96 78 -118 102 -151 165 -40 79 -53 123 -73
251 -39 252 -125 447 -286 646 -29 37 -119 127 -201 201 -288 262 -319 282
-561 381 -180 74 -256 119 -338 201 -90 90 -124 159 -169 342 -73 299 -174
501 -329 663 -94 98 -162 141 -432 271 -197 96 -233 110 -278 110 -48 0 -49
-1 -29 -15z"/>
<path d="M2575 12130 c55 -21 134 -50 176 -64 115 -41 230 -111 325 -199 103
-97 156 -167 305 -406 64 -102 123 -186 130 -186 35 0 14 50 -92 221 -141 225
-198 301 -299 397 -122 117 -224 177 -412 241 -80 27 -123 36 -170 35 l-63 0
100 -39z"/>
<path d="M3110 12152 c124 -85 246 -207 344 -346 26 -36 54 -66 62 -66 8 0 14
-10 14 -25 0 -30 98 -205 157 -280 139 -178 499 -388 858 -502 268 -85 366
-171 597 -519 224 -337 330 -437 556 -524 183 -70 247 -134 357 -355 36 -71
69 -135 73 -140 4 -6 8 -17 10 -25 6 -32 174 -361 237 -465 139 -230 322 -487
483 -680 139 -165 307 -323 497 -464 308 -231 501 -440 677 -736 164 -277 205
-339 272 -411 109 -119 227 -188 456 -269 237 -83 309 -163 507 -565 74 -151
159 -311 188 -355 106 -160 305 -333 635 -550 102 -67 264 -174 360 -237 96
-63 199 -137 229 -164 92 -83 163 -191 290 -442 66 -130 136 -256 156 -279 47
-55 337 -208 489 -257 186 -61 333 -153 475 -296 63 -64 173 -200 199 -246 5
-9 14 -14 21 -10 24 15 9 58 -51 137 -172 228 -381 382 -631 464 -136 44 -410
186 -460 238 -25 26 -72 109 -142 250 -125 255 -184 348 -284 448 -75 75 -118
105 -591 414 -336 219 -551 403 -655 560 -29 44 -114 204 -188 355 -108 219
-149 292 -201 357 -79 99 -176 170 -284 209 -259 92 -346 139 -453 244 -87 86
-120 133 -248 355 -144 247 -235 369 -406 541 -108 109 -195 184 -310 270 -88
65 -198 153 -245 195 -300 268 -701 826 -912 1268 -265 557 -294 595 -528 686
-224 87 -316 174 -538 510 -242 364 -338 444 -662 550 -245 79 -490 208 -667
350 -103 82 -136 122 -218 266 -36 63 -75 121 -86 131 -10 9 -19 23 -19 31 0
39 -182 253 -288 341 -61 50 -74 56 -113 55 l-44 0 25 -17z"/>
<path d="M3530 12152 c0 -10 16 -34 36 -53 92 -88 248 -300 345 -469 54 -95
128 -169 208 -210 35 -17 129 -56 210 -87 483 -184 752 -360 859 -561 102
-192 269 -353 652 -632 217 -157 455 -434 592 -688 18 -34 39 -62 46 -62 7 0
11 -4 8 -9 -6 -10 114 -279 170 -379 158 -286 410 -580 649 -760 60 -45 168
-112 248 -153 220 -114 276 -179 391 -449 67 -158 95 -209 189 -350 222 -332
398 -509 617 -620 41 -21 103 -59 138 -84 206 -152 481 -514 764 -1006 157
-271 248 -341 750 -568 107 -49 214 -102 239 -119 165 -115 364 -338 642 -720
l118 -162 217 -154 c120 -85 247 -169 282 -187 115 -58 234 -145 342 -248 31
-30 61 -51 67 -48 6 4 11 0 11 -10 0 -9 26 -44 57 -78 118 -127 227 -278 321
-442 53 -91 116 -161 183 -201 30 -18 142 -66 249 -108 373 -146 599 -271 736
-409 39 -39 83 -93 99 -121 123 -220 273 -373 594 -605 153 -110 240 -186 349
-303 144 -156 295 -381 394 -587 132 -276 161 -331 215 -417 54 -86 60 -93 90
-93 l33 0 -34 47 c-59 84 -148 244 -196 353 -64 143 -89 190 -101 190 -6 0 -7
5 -4 10 9 14 -120 227 -209 347 -157 209 -279 328 -507 494 -291 210 -445 361
-550 537 -115 195 -269 321 -571 466 -84 41 -220 100 -303 131 -296 113 -334
141 -449 337 -38 65 -102 161 -142 215 -89 118 -232 275 -245 268 -5 -4 -9 0
-9 7 0 15 -78 93 -155 155 -73 58 -161 116 -235 153 -35 18 -161 102 -280 186
l-215 153 -115 157 c-280 386 -487 617 -657 732 -21 15 -139 73 -263 129 -482
222 -555 278 -710 548 -184 319 -370 590 -543 790 -133 155 -235 239 -372 308
-219 110 -391 287 -623 640 -66 101 -107 178 -152 285 -129 307 -200 387 -462
516 -227 113 -501 368 -699 651 -92 131 -155 243 -234 416 -42 90 -81 167 -88
171 -6 4 -9 8 -5 8 10 0 -64 129 -138 240 -143 216 -325 411 -503 540 -381
276 -544 434 -642 622 -21 40 -65 95 -119 149 -163 165 -386 286 -852 463
-181 69 -231 114 -354 325 -61 104 -181 264 -269 359 -66 71 -105 91 -105 54z"/>
<path d="M5189 12153 c18 -33 235 -239 336 -319 128 -101 272 -197 411 -273
183 -100 270 -160 359 -250 145 -146 250 -304 431 -644 46 -86 99 -171 127
-203 127 -142 389 -309 900 -574 280 -144 333 -189 403 -335 43 -89 63 -169
125 -495 75 -400 129 -596 196 -708 93 -159 300 -296 793 -522 81 -37 167 -81
191 -97 150 -104 364 -359 551 -657 110 -175 161 -219 458 -401 96 -58 204
-128 240 -155 99 -74 238 -223 319 -342 l73 -108 136 -66 c76 -36 184 -83 242
-104 206 -73 407 -190 565 -328 97 -84 145 -145 205 -254 25 -45 50 -82 55
-83 6 0 11 15 13 33 4 39 -48 133 -124 226 -137 166 -450 372 -679 446 -38 13
-139 56 -224 96 l-155 73 -74 108 c-81 119 -221 267 -322 343 -36 27 -144 97
-240 155 -297 181 -340 219 -448 391 -188 300 -409 562 -561 667 -24 16 -124
67 -223 113 -373 173 -554 280 -669 393 -122 122 -169 263 -274 816 -73 384
-105 481 -196 602 -55 73 -129 122 -404 265 -493 257 -741 419 -847 549 -20
24 -81 128 -137 231 -276 513 -416 669 -771 857 -216 116 -473 307 -645 480
-70 72 -96 91 -118 91 -23 0 -26 -3 -18 -17z"/>
<path d="M5516 12162 c149 -134 442 -337 629 -437 128 -69 197 -117 283 -199
146 -139 320 -379 508 -704 49 -85 111 -178 138 -208 131 -147 446 -342 781
-484 55 -23 127 -55 159 -72 187 -94 325 -270 431 -548 18 -47 36 -94 40 -105
4 -11 9 -27 10 -35 1 -8 20 -86 43 -172 64 -246 122 -380 246 -562 113 -167
232 -278 646 -601 449 -351 656 -552 819 -793 64 -96 137 -170 197 -200 21
-10 91 -36 154 -57 136 -44 233 -93 295 -147 24 -21 81 -92 127 -156 142 -202
196 -244 625 -480 150 -83 301 -173 335 -200 61 -48 219 -206 286 -285 34 -40
52 -41 52 -2 0 31 -218 259 -323 338 -40 30 -189 119 -332 197 -412 225 -466
267 -606 466 -130 184 -199 233 -448 318 -72 25 -140 50 -152 57 -45 24 -114
97 -171 181 -162 242 -377 451 -828 803 -412 322 -523 425 -637 592 -113 165
-175 307 -238 543 -66 247 -69 257 -113 368 -90 225 -209 381 -367 487 -31 20
-124 66 -207 101 -283 122 -495 239 -655 363 -122 94 -159 139 -275 338 -195
331 -353 549 -505 694 -90 86 -158 134 -288 204 -155 82 -344 208 -506 337
-73 57 -93 68 -125 68 -22 0 -34 -4 -28 -8z"/>
<path d="M6035 12136 c39 -18 126 -54 195 -80 163 -62 261 -115 345 -186 153
-129 268 -298 441 -644 69 -138 141 -271 160 -297 55 -76 184 -190 272 -242
81 -48 238 -120 502 -231 180 -75 247 -115 348 -211 173 -163 322 -402 457
-735 26 -63 51 -117 56 -118 5 -2 7 -7 4 -12 -3 -4 17 -68 43 -142 27 -73 66
-182 87 -242 21 -59 55 -134 77 -166 70 -106 238 -267 734 -707 88 -78 257
-242 376 -365 289 -299 399 -377 640 -453 178 -55 264 -131 488 -430 148 -198
180 -222 412 -301 71 -24 148 -56 171 -71 73 -46 370 -254 414 -290 24 -19 47
-31 53 -28 5 3 10 -1 10 -10 0 -9 23 -42 51 -73 104 -117 217 -313 289 -502
134 -355 246 -466 762 -751 213 -118 260 -148 353 -226 159 -133 290 -318 446
-626 156 -308 225 -406 362 -510 119 -91 233 -149 468 -238 173 -65 253 -113
361 -217 151 -146 234 -272 405 -617 71 -142 136 -258 170 -303 115 -151 268
-245 678 -416 251 -105 332 -152 439 -255 223 -215 383 -524 617 -1191 65
-187 99 -244 148 -248 l34 -3 -37 49 c-38 52 -55 94 -141 338 -29 83 -59 166
-67 185 -9 19 -32 79 -53 134 -156 412 -378 734 -611 889 -43 28 -171 89 -318
151 -531 224 -621 297 -784 635 -165 343 -277 519 -424 668 -131 133 -197 171
-468 275 -162 62 -284 126 -377 196 -137 103 -202 193 -345 475 -49 98 -112
215 -138 260 -106 179 -239 336 -375 440 -101 78 -97 75 -344 213 -279 155
-389 230 -491 333 -94 95 -145 174 -191 295 -111 296 -215 477 -353 623 -22
23 -46 42 -53 42 -7 0 -13 6 -13 14 0 8 -26 35 -57 59 -71 53 -400 280 -430
296 -12 6 -77 29 -144 52 -216 72 -249 95 -375 265 -166 225 -281 347 -385
411 -19 12 -90 40 -158 62 -229 75 -329 148 -616 446 -115 120 -284 284 -375
364 -371 329 -432 385 -545 497 -158 158 -194 209 -240 341 -256 730 -409
1027 -647 1259 -117 114 -197 162 -444 265 -384 160 -505 229 -628 360 -71 76
-84 97 -199 327 -124 248 -193 370 -270 472 -156 209 -289 311 -515 395 -64
24 -139 53 -165 64 -32 14 -68 21 -105 20 l-57 -1 70 -32z"/>
<path d="M8130 12165 c0 -16 78 -158 115 -210 59 -83 228 -244 367 -348 193
-145 264 -186 568 -330 41 -20 102 -59 135 -87 158 -134 335 -393 441 -647 58
-139 103 -220 172 -313 162 -218 335 -364 547 -465 110 -52 231 -173 295 -295
24 -47 45 -89 46 -95 1 -5 9 -35 18 -65 8 -30 27 -131 41 -225 34 -218 85
-421 129 -510 40 -81 136 -184 230 -246 70 -46 340 -184 636 -324 113 -54 223
-110 245 -125 63 -42 195 -112 195 -103 0 4 4 3 8 -3 4 -6 97 -60 207 -119
500 -269 588 -327 776 -514 210 -210 343 -396 410 -576 32 -86 80 -157 158
-233 146 -143 371 -280 629 -383 141 -56 250 -143 367 -294 106 -136 184 -272
259 -448 89 -209 135 -277 288 -422 153 -146 348 -268 581 -365 125 -52 221
-121 357 -259 187 -188 386 -463 550 -761 134 -244 139 -251 269 -381 210
-210 513 -417 744 -509 44 -17 105 -49 138 -71 l59 -40 0 30 c0 39 -53 77
-183 131 -244 102 -519 289 -723 494 -125 125 -127 128 -264 376 -165 300
-364 575 -554 766 -139 139 -235 210 -352 260 -273 116 -449 228 -610 389
-131 131 -175 195 -239 346 -114 273 -251 486 -406 635 -85 80 -155 126 -263
169 -258 104 -490 248 -629 389 -67 68 -94 111 -140 226 -74 182 -200 356
-411 565 -158 158 -223 207 -421 322 -212 123 -574 315 -584 309 -5 -3 -11 0
-14 7 -3 7 -33 28 -68 47 -35 18 -83 46 -106 61 -22 16 -149 80 -282 144 -352
168 -497 242 -582 296 -85 55 -196 164 -226 224 -48 94 -97 291 -134 543 -20
141 -43 238 -61 260 -6 6 -7 12 -4 12 4 0 -14 39 -39 88 -78 150 -183 256
-323 324 -207 100 -374 244 -530 456 -62 84 -107 169 -182 343 -79 186 -229
414 -361 549 -87 90 -167 145 -277 190 -223 92 -510 283 -707 471 -110 106
-159 167 -215 272 -34 63 -46 77 -66 77 -13 0 -24 -2 -24 -5z"/>
<path d="M8465 12143 c49 -79 136 -181 223 -265 146 -139 333 -258 631 -399
320 -153 412 -274 775 -1032 48 -100 68 -130 124 -185 65 -65 88 -80 317 -203
262 -142 496 -369 602 -587 21 -42 40 -79 43 -82 3 -3 6 -12 7 -20 13 -118 94
-349 174 -500 88 -163 130 -201 499 -455 118 -81 266 -188 328 -237 62 -49
117 -86 122 -83 6 3 10 0 10 -7 0 -30 353 -272 520 -357 121 -62 196 -87 316
-106 329 -53 497 -215 680 -655 121 -290 220 -390 624 -634 190 -114 305 -197
412 -296 200 -185 351 -420 457 -709 70 -190 110 -260 215 -369 95 -100 243
-195 506 -327 281 -141 432 -240 577 -378 163 -157 248 -274 493 -682 80 -131
170 -274 202 -316 108 -147 258 -279 444 -392 79 -49 326 -177 339 -177 3 0 5
11 5 25 0 21 -13 32 -99 74 -199 100 -360 204 -464 300 -152 140 -196 199
-388 519 -244 406 -326 519 -495 682 -144 139 -298 242 -556 371 -355 178
-502 281 -603 423 -56 80 -77 123 -129 265 -135 367 -338 645 -628 859 -51 38
-169 115 -263 172 -278 168 -363 233 -456 349 -64 79 -96 135 -154 276 -128
311 -265 491 -445 584 -96 49 -151 67 -275 86 -192 31 -400 139 -707 367 -59
44 -112 77 -118 73 -5 -3 -10 0 -10 8 0 21 -180 160 -430 332 -363 250 -398
282 -483 435 -54 99 -126 281 -143 367 -43 204 -150 391 -325 564 -132 131
-266 225 -467 329 -203 104 -259 161 -350 355 -223 475 -346 681 -496 830 -91
90 -92 91 -344 219 -140 71 -302 161 -360 200 -127 84 -276 224 -358 335 -50
68 -63 81 -88 81 l-28 0 17 -27z"/>
<path d="M8890 12166 c0 -10 240 -172 459 -311 307 -195 373 -245 511 -384
160 -161 213 -259 279 -513 17 -65 41 -139 55 -165 87 -173 247 -310 596 -514
248 -145 342 -211 445 -314 195 -194 318 -438 344 -684 12 -107 50 -199 126
-306 54 -76 189 -204 268 -253 32 -21 121 -78 197 -128 81 -53 141 -87 144
-80 2 6 5 3 5 -6 1 -15 134 -125 346 -285 138 -104 343 -234 469 -298 113 -57
185 -83 411 -150 150 -45 245 -100 352 -206 112 -110 187 -239 279 -476 63
-163 90 -211 153 -273 69 -67 151 -111 336 -180 312 -116 320 -121 423 -223
124 -121 235 -312 382 -652 95 -220 154 -325 228 -406 59 -64 90 -85 282 -188
286 -155 426 -266 544 -432 168 -237 295 -379 487 -539 238 -200 263 -230 385
-469 43 -85 95 -176 116 -203 69 -86 270 -240 540 -411 l58 -37 0 29 c0 26
-16 39 -174 144 -192 128 -323 232 -378 299 -20 24 -73 116 -119 204 -131 253
-152 278 -398 484 -189 158 -312 295 -477 529 -115 165 -266 286 -534 432
-206 111 -247 138 -296 192 -70 77 -121 169 -214 383 -189 436 -334 657 -502
768 -29 20 -154 74 -277 121 -373 142 -413 174 -507 419 -94 242 -158 359
-260 478 -114 132 -269 223 -474 278 -321 86 -547 218 -1043 607 -65 51 -123
91 -128 87 -5 -3 -9 1 -9 9 0 12 -103 83 -317 219 -80 50 -205 168 -257 242
-76 107 -106 178 -116 275 -28 262 -154 515 -360 722 -103 103 -215 182 -500
349 -272 160 -411 275 -502 415 -38 57 -47 85 -103 284 -51 186 -132 326 -266
460 -137 136 -234 206 -626 455 -84 53 -187 121 -230 151 -61 43 -86 55 -115
55 -21 0 -38 -2 -38 -4z"/>
<path d="M9645 12020 c325 -161 378 -196 473 -314 124 -152 208 -336 272 -592
49 -193 88 -273 185 -369 84 -84 172 -135 362 -213 155 -63 228 -103 311 -170
91 -73 336 -298 392 -359 157 -172 271 -419 304 -660 31 -220 81 -313 242
-443 63 -51 118 -89 124 -85 5 3 10 0 10 -8 0 -32 480 -298 1195 -662 160 -81
317 -164 350 -183 208 -123 425 -350 532 -557 22 -44 55 -124 72 -177 41 -123
63 -155 135 -195 78 -44 135 -92 301 -253 119 -116 171 -156 350 -277 212
-143 340 -244 387 -305 49 -64 80 -142 124 -311 53 -206 94 -298 163 -359 26
-24 115 -81 197 -127 230 -130 281 -166 395 -280 89 -90 128 -140 254 -331
205 -308 305 -407 602 -591 74 -46 144 -100 189 -145 65 -65 78 -85 162 -256
54 -111 106 -203 128 -228 40 -44 125 -108 207 -155 l47 -27 0 29 c0 24 -10
34 -68 70 -141 88 -163 115 -269 331 -91 185 -101 201 -172 272 -51 50 -114
99 -189 145 -290 178 -396 282 -596 584 -214 323 -323 431 -581 576 -334 189
-339 194 -416 491 -43 166 -88 277 -135 340 -51 67 -186 174 -399 317 -180
121 -230 161 -350 277 -161 157 -239 221 -307 256 -59 30 -80 62 -114 174 -57
188 -185 381 -366 555 -57 55 -137 122 -178 150 -41 27 -262 146 -490 263
-526 271 -806 421 -993 534 -81 49 -152 86 -158 83 -5 -4 -9 0 -9 7 0 8 -46
51 -102 96 -62 51 -114 103 -134 134 -42 65 -78 178 -93 290 -31 239 -154 501
-318 679 -92 99 -380 355 -468 415 -51 34 -137 77 -239 118 -195 80 -283 131
-362 212 -83 83 -124 170 -172 364 -63 249 -143 422 -270 581 -104 130 -157
166 -450 310 -238 117 -267 129 -315 128 l-52 0 300 -149z"/>
<path d="M11281 12166 c9 -9 138 -59 214 -83 162 -52 294 -132 412 -251 71
-72 156 -192 328 -467 33 -52 64 -94 70 -92 28 10 12 54 -66 179 -236 382
-348 503 -566 612 -112 57 -270 106 -337 106 -33 0 -57 -2 -55 -4z"/>
<path d="M11941 12123 c116 -85 245 -221 324 -340 32 -50 55 -56 55 -15 0 50
-184 269 -304 361 -43 33 -61 41 -96 41 l-42 0 63 -47z"/>
<path d="M12320 12155 c0 -8 34 -52 76 -97 102 -110 188 -227 265 -356 98
-167 159 -236 249 -282 19 -10 134 -57 254 -104 484 -192 692 -332 822 -553
70 -117 118 -179 218 -277 94 -92 221 -195 396 -321 239 -171 467 -431 629
-717 18 -32 37 -58 42 -58 6 0 8 -4 4 -9 -10 -17 199 -430 273 -541 106 -159
226 -302 364 -435 150 -145 272 -233 438 -317 106 -53 136 -74 200 -138 80
-80 119 -143 185 -305 58 -139 100 -218 188 -349 119 -179 190 -270 291 -375
111 -115 210 -190 341 -259 162 -85 311 -226 483 -457 l67 -89 3 38 c4 43 -22
82 -159 241 -135 157 -235 243 -353 302 -233 117 -408 291 -633 628 -89 133
-122 195 -178 330 -72 175 -114 245 -200 330 -69 70 -98 89 -211 147 -171 88
-281 167 -427 308 -227 218 -377 429 -529 740 -55 113 -105 208 -112 212 -6 4
-7 8 -3 8 21 0 -137 252 -251 400 -104 134 -282 305 -422 405 -333 239 -505
406 -601 585 -114 215 -358 379 -855 575 -120 48 -238 97 -260 111 -62 35
-132 118 -207 245 -116 196 -321 449 -364 449 -14 0 -23 -6 -23 -15z"/>
<path d="M14008 12122 c152 -181 474 -430 741 -572 337 -180 482 -342 741
-830 51 -96 109 -197 128 -223 101 -140 393 -329 987 -638 328 -171 360 -224
466 -784 105 -554 169 -734 305 -854 92 -82 259 -183 479 -291 121 -59 228
-110 238 -114 14 -4 17 0 17 24 0 17 -5 30 -11 30 -22 0 -417 200 -504 255
-204 129 -275 208 -335 372 -46 129 -75 248 -131 543 -66 352 -91 449 -140
549 -65 133 -136 196 -334 300 -580 304 -805 442 -944 581 -56 56 -81 94 -170
260 -165 308 -261 455 -390 592 -88 94 -185 165 -346 253 -270 148 -484 304
-674 492 -85 83 -110 103 -134 103 l-29 0 40 -48z"/>
<path d="M14366 12113 c180 -147 375 -280 579 -393 158 -87 207 -124 322 -243
145 -150 252 -301 441 -620 62 -104 128 -209 149 -233 119 -146 469 -361 837
-514 70 -30 158 -75 195 -101 150 -105 268 -275 351 -504 18 -49 35 -97 38
-105 3 -8 6 -19 7 -25 78 -312 110 -412 178 -547 99 -197 210 -339 378 -484
126 -109 255 -214 263 -214 3 0 6 12 6 28 0 23 -23 46 -151 152 -172 142 -254
227 -338 350 -125 183 -181 312 -246 565 -92 360 -182 554 -330 713 -90 97
-168 146 -377 238 -269 118 -450 218 -607 334 -135 100 -181 155 -308 369
-199 336 -300 477 -458 640 -115 119 -175 164 -335 251 -142 77 -364 224 -490
324 -81 65 -101 76 -134 76 l-39 0 69 -57z"/>
<path d="M14820 12139 c36 -17 135 -58 220 -90 194 -75 280 -128 396 -244 125
-125 230 -287 366 -565 130 -263 174 -334 260 -416 121 -116 243 -183 611
-338 124 -51 249 -109 278 -128 131 -85 245 -204 359 -378 66 -101 195 -358
251 -500 18 -47 35 -87 38 -90 3 -3 7 -12 8 -20 1 -13 30 -97 145 -412 40
-109 90 -176 242 -328 115 -114 116 -115 116 -81 0 29 -15 49 -120 157 -65 68
-131 144 -145 168 -15 25 -62 143 -105 263 -143 396 -174 474 -271 663 -151
299 -328 508 -520 618 -30 17 -151 71 -270 120 -341 142 -469 213 -581 320
-81 77 -126 150 -255 412 -136 276 -241 437 -366 564 -139 140 -203 180 -443
272 -114 44 -164 58 -214 61 l-65 3 65 -31z"/>
<path d="M16920 12166 c0 -15 107 -198 142 -243 155 -201 565 -500 843 -614
86 -35 147 -69 183 -102 l22 -20 0 35 c0 33 -5 39 -49 67 -27 16 -89 46 -138
66 -263 109 -623 367 -798 572 -36 42 -84 113 -107 159 -38 74 -46 84 -70 84
-16 0 -28 -2 -28 -4z"/>
<path d="M17254 12154 c12 -30 97 -143 162 -213 133 -143 300 -262 547 -387
l147 -75 0 28 c0 26 -11 33 -137 98 -279 142 -491 310 -622 493 -42 57 -58 72
-78 72 -19 0 -24 -4 -19 -16z"/>
<path d="M17700 12149 c36 -28 397 -269 404 -269 3 0 6 12 5 28 0 24 -20 40
-179 145 -150 98 -185 117 -217 117 l-38 0 25 -21z"/>
<path d="M7060 12023 c-47 -53 -102 -115 -122 -138 -36 -41 -37 -43 -19 -59
17 -16 24 -10 127 106 146 164 139 155 124 173 -7 8 -15 15 -19 15 -3 0 -44
-44 -91 -97z"/>
<path d="M15821 11986 c-67 -74 -121 -139 -121 -145 0 -5 7 -14 16 -19 14 -8
41 18 140 129 68 76 124 140 124 143 0 3 -9 10 -19 16 -17 9 -35 -7 -140 -124z"/>
<path d="M2100 11965 l0 -25 210 0 210 0 0 25 0 25 -210 0 -210 0 0 -25z"/>
<path d="M10890 11965 l0 -25 210 0 210 0 0 25 0 25 -210 0 -210 0 0 -25z"/>
<path d="M0 11810 c0 -27 11 -37 118 -107 64 -43 227 -134 360 -202 232 -118
247 -127 321 -201 139 -138 246 -319 496 -840 53 -109 69 -134 135 -200 57
-57 97 -86 170 -124 236 -122 365 -209 504 -345 159 -154 266 -329 306 -501
32 -137 65 -227 141 -380 100 -202 130 -231 509 -490 107 -73 252 -178 322
-232 70 -55 132 -97 138 -93 5 3 10 0 10 -9 0 -30 331 -258 503 -347 135 -69
210 -96 324 -114 339 -54 501 -212 698 -682 106 -255 222 -371 584 -589 233
-140 372 -243 491 -364 196 -199 315 -402 444 -760 48 -134 184 -295 337 -400
49 -34 193 -115 321 -181 416 -217 557 -319 735 -532 93 -111 160 -211 322
-480 173 -287 207 -339 279 -429 152 -187 322 -308 707 -501 269 -136 334
-190 475 -397 48 -71 190 -322 190 -335 0 -3 49 -105 109 -227 106 -220 109
-224 183 -293 59 -55 107 -87 225 -149 330 -173 555 -381 678 -626 40 -79 85
-218 85 -260 0 -26 74 -208 129 -318 48 -95 53 -102 81 -102 l29 0 -54 103
c-66 124 -127 280 -144 364 -17 90 -63 211 -110 292 -127 217 -363 431 -626
567 -290 151 -304 166 -477 539 -171 368 -326 605 -478 730 -33 28 -149 93
-290 165 -423 214 -597 352 -764 605 -29 44 -108 172 -176 285 -277 461 -427
642 -675 809 -126 85 -146 96 -406 231 -268 140 -383 215 -479 317 -95 100
-129 158 -191 324 -150 404 -349 674 -665 901 -44 31 -162 106 -263 168 -273
165 -392 264 -479 399 -19 30 -67 129 -107 220 -110 256 -192 383 -317 488
-110 94 -218 140 -395 168 -51 8 -121 26 -155 39 -146 55 -338 168 -543 321
-64 47 -120 85 -125 85 -6 0 -10 4 -10 8 0 15 -238 194 -440 332 -360 246
-394 277 -477 436 -73 140 -120 262 -149 386 -45 190 -136 349 -293 512 -146
150 -290 253 -541 382 -66 34 -114 68 -161 114 -71 70 -89 101 -218 379 -172
370 -339 620 -491 735 -35 25 -119 73 -189 107 -179 85 -382 200 -479 269 -46
33 -85 60 -88 60 -2 0 -4 -13 -4 -30z"/>
<path d="M2737 11583 c-19 -98 -33 -181 -30 -185 4 -8 43 -11 43 -5 0 2 16 81
35 176 19 95 32 177 29 182 -3 5 -13 9 -23 9 -15 0 -23 -27 -54 -177z"/>
<path d="M11529 11579 c-29 -146 -34 -182 -23 -186 8 -3 20 -3 27 0 14 5 83
340 73 356 -4 6 -15 11 -24 11 -15 0 -24 -30 -53 -181z"/>
<path d="M12327 11743 c-4 -3 -7 -15 -7 -26 0 -27 105 -211 158 -277 144 -178
479 -381 812 -491 192 -63 262 -96 342 -160 92 -73 153 -149 314 -392 210
-315 318 -419 519 -497 44 -16 104 -42 133 -56 96 -48 193 -176 285 -376 20
-43 39 -78 44 -78 4 0 9 -11 9 -23 2 -36 148 -322 247 -486 222 -365 517 -741
744 -943 43 -39 146 -121 228 -183 247 -185 362 -296 509 -490 87 -116 107
-146 255 -395 51 -85 114 -183 142 -217 104 -132 248 -222 479 -303 142 -50
189 -77 266 -154 84 -85 116 -135 216 -336 l87 -175 1 56 c0 48 -8 72 -55 169
-75 152 -135 242 -214 321 -84 84 -129 109 -306 174 -311 114 -405 198 -596
527 -242 419 -397 597 -744 855 -77 57 -178 139 -225 181 -317 287 -671 769
-895 1217 -53 105 -100 196 -106 203 -5 6 -8 12 -5 12 9 0 -74 172 -122 254
-90 155 -171 222 -357 292 -192 74 -293 171 -499 481 -264 397 -324 448 -661
563 -326 111 -584 257 -750 424 -73 74 -103 115 -159 214 -68 119 -76 129 -89
115z"/>
<path d="M4170 11698 l0 -25 137 -6 c75 -4 167 -7 205 -7 66 0 68 1 68 25 0
24 -2 25 -68 25 -38 0 -130 3 -205 7 l-137 6 0 -25z"/>
<path d="M12970 11698 l0 -25 128 -6 c70 -4 160 -7 200 -7 70 0 72 1 72 25 0
24 -2 25 -72 25 -40 0 -130 3 -200 7 l-128 6 0 -25z"/>
<path d="M7730 11664 c-74 -7 -145 -13 -157 -13 -23 -1 -29 -16 -15 -38 7 -10
44 -10 183 2 96 8 180 15 187 15 6 0 12 11 12 25 0 29 0 29 -210 9z"/>
<path d="M16525 11665 c-77 -7 -148 -14 -157 -14 -12 -1 -18 -9 -18 -26 0 -14
3 -25 8 -25 4 0 84 7 177 15 94 8 176 15 183 15 6 0 12 11 12 25 0 29 7 29
-205 10z"/>
<path d="M5255 11609 c-4 -11 -5 -22 -3 -23 10 -7 301 -126 308 -126 5 0 14 9
19 19 10 17 -4 25 -146 85 -85 36 -159 66 -164 66 -4 0 -11 -9 -14 -21z"/>
<path d="M14047 11610 c-3 -11 -2 -22 3 -25 20 -12 296 -125 306 -125 15 0 27
31 17 40 -10 9 -302 130 -313 130 -4 0 -10 -9 -13 -20z"/>
<path d="M1766 11603 c-4 -9 -3 -20 1 -24 13 -11 435 -129 444 -123 5 3 9 13
9 23 0 15 -38 29 -215 80 -118 33 -218 61 -224 61 -5 0 -12 -8 -15 -17z"/>
<path d="M10557 11600 c-3 -11 -2 -22 1 -24 8 -5 437 -126 446 -126 3 0 6 11
6 25 0 14 -1 25 -3 25 -1 0 -97 27 -212 60 -115 33 -215 60 -221 60 -7 0 -14
-9 -17 -20z"/>
<path d="M0 11509 c0 -37 40 -64 230 -155 74 -36 160 -77 190 -92 37 -18 89
-61 160 -132 159 -158 287 -358 398 -621 102 -242 294 -481 507 -631 39 -27
119 -74 178 -105 157 -80 243 -166 318 -313 18 -36 36 -67 41 -68 4 -2 6 -7 3
-12 -3 -4 2 -27 11 -51 8 -24 26 -115 39 -201 46 -298 96 -492 151 -586 38
-65 139 -163 224 -218 73 -47 404 -215 680 -345 74 -34 164 -82 200 -105 70
-45 190 -107 190 -99 0 3 8 -2 18 -11 9 -9 118 -70 242 -136 267 -143 449
-249 545 -320 99 -73 306 -285 397 -405 97 -130 152 -222 188 -317 41 -112 74
-162 164 -251 133 -132 346 -265 598 -373 160 -69 210 -102 308 -202 126 -129
266 -347 341 -530 80 -199 145 -298 279 -429 140 -136 331 -264 512 -342 51
-22 121 -53 155 -70 262 -130 582 -515 881 -1063 90 -163 160 -256 267 -352
236 -212 420 -330 780 -500 189 -89 433 -411 574 -758 72 -177 172 -320 335
-481 119 -118 226 -195 367 -264 104 -50 191 -126 252 -219 87 -131 116 -215
147 -426 18 -127 44 -268 56 -308 3 -11 15 -18 30 -18 13 0 24 1 24 3 0 2 -9
43 -19 92 -11 50 -29 153 -41 230 -25 165 -38 222 -56 253 -8 12 -12 22 -9 22
10 0 -47 115 -90 181 -70 105 -154 175 -303 252 -71 37 -165 97 -209 132 -188
150 -358 371 -434 562 -95 241 -250 485 -409 644 -92 93 -116 111 -195 149
-223 105 -299 145 -399 210 -204 133 -394 291 -489 407 -31 38 -93 136 -138
218 -336 613 -670 995 -979 1115 -174 68 -390 199 -518 315 -156 140 -233 244
-299 402 -123 299 -293 552 -460 686 -76 61 -106 77 -260 143 -324 138 -606
347 -681 505 -16 35 -37 85 -46 111 -23 64 -103 195 -187 305 -152 200 -349
384 -536 499 -102 64 -424 242 -648 359 -71 37 -161 88 -200 112 -38 24 -133
73 -210 110 -354 169 -675 336 -738 384 -96 73 -160 156 -196 254 -33 91 -72
260 -96 415 -30 199 -38 235 -67 315 -74 203 -214 361 -392 439 -250 111 -529
411 -650 698 -116 276 -244 477 -410 644 -118 118 -100 106 -356 226 -52 25
-132 68 -178 96 l-82 51 0 -30z"/>
<path d="M4923 11512 c-9 -6 4 -50 49 -170 33 -89 66 -162 72 -162 37 1 36 17
-5 126 -22 60 -50 133 -61 162 -19 51 -30 60 -55 44z"/>
<path d="M13714 11514 c-13 -6 106 -334 121 -334 6 0 16 4 24 9 11 7 2 40 -46
167 -57 151 -69 171 -99 158z"/>
<path d="M8253 11480 c-21 -9 -21 -9 24 -147 25 -76 47 -141 49 -145 5 -8 44
2 44 11 0 9 -90 291 -93 290 -1 0 -12 -4 -24 -9z"/>
<path d="M17035 11470 c-6 -9 72 -267 85 -283 9 -10 40 2 40 16 0 6 -19 71
-42 144 -33 105 -45 133 -59 133 -10 0 -21 -4 -24 -10z"/>
<path d="M3537 11283 c-31 -30 50 -151 202 -303 178 -177 350 -265 639 -324
248 -51 313 -114 427 -416 143 -375 228 -463 618 -631 120 -51 204 -111 243
-172 16 -26 35 -46 42 -47 7 0 10 -5 7 -10 -10 -16 62 -178 283 -643 l199
-419 134 -125 c240 -225 455 -403 814 -677 245 -187 372 -293 486 -407 161
-160 231 -268 309 -474 41 -109 98 -194 199 -296 90 -90 222 -184 353 -250
335 -169 562 -358 671 -559 19 -36 56 -121 82 -190 127 -339 241 -458 600
-625 499 -232 665 -358 810 -615 119 -210 141 -246 213 -342 88 -118 252 -286
332 -341 61 -41 158 -84 292 -128 179 -59 311 -141 432 -269 60 -64 173 -227
314 -454 53 -86 82 -108 82 -62 0 26 -169 303 -267 437 -143 197 -302 312
-543 394 -208 71 -249 93 -369 195 -126 106 -322 363 -408 533 -59 119 -123
208 -213 297 -136 136 -276 223 -593 371 -243 113 -323 163 -427 268 -99 99
-133 159 -211 363 -59 155 -103 239 -170 324 -120 152 -333 310 -588 438 -203
103 -385 252 -476 391 -22 33 -60 114 -85 181 -70 184 -136 281 -305 449 -116
117 -239 220 -490 411 -363 276 -584 461 -809 673 l-129 122 -189 397 c-104
218 -209 442 -233 497 -121 281 -155 316 -424 434 -224 99 -296 147 -377 255
-58 77 -99 158 -159 316 -68 181 -109 256 -174 320 -73 73 -134 101 -311 140
-79 17 -181 45 -226 61 -194 71 -382 226 -547 452 -54 73 -51 70 -60 60z"/>
<path d="M12324 11275 c-11 -28 5 -60 74 -145 89 -110 230 -244 312 -298 131
-86 239 -128 450 -173 159 -34 222 -62 282 -127 61 -66 90 -117 149 -273 95
-248 140 -328 240 -426 72 -70 112 -96 238 -155 268 -125 307 -146 347 -192
73 -84 91 -105 88 -109 -7 -7 95 -235 280 -627 194 -409 198 -416 264 -483
157 -161 465 -424 767 -656 647 -496 800 -654 900 -932 97 -266 252 -422 609
-611 379 -201 586 -398 686 -658 22 -58 54 -136 70 -175 l29 -70 1 64 c0 53
-8 84 -50 190 -65 164 -111 233 -240 362 -120 120 -258 216 -470 330 -74 39
-164 91 -200 114 -193 124 -329 290 -389 475 -82 252 -283 468 -811 870 -358
273 -620 492 -812 680 l-117 115 -191 405 c-106 223 -212 453 -237 513 -25 59
-49 107 -55 107 -5 0 -7 4 -4 8 6 10 -35 74 -78 121 -45 49 -116 92 -241 146
-187 81 -265 125 -337 194 -106 99 -147 173 -258 463 -67 176 -152 282 -263
333 -29 13 -108 36 -177 50 -218 46 -369 109 -497 208 -76 58 -213 202 -286
300 -32 42 -60 77 -63 77 -2 0 -7 -7 -10 -15z"/>
<path d="M8815 11218 c-9 -27 -61 -378 -57 -383 12 -12 41 -4 46 13 2 9 17 95
32 191 23 146 25 174 13 182 -19 12 -29 11 -34 -3z"/>
<path d="M17605 11208 c-8 -37 -55 -344 -55 -362 0 -10 8 -16 23 -16 23 0 24
7 53 193 21 132 27 194 20 199 -20 14 -36 8 -41 -14z"/>
<path d="M7372 11198 c-7 -7 -12 -15 -12 -19 0 -4 61 -53 136 -108 108 -81
139 -99 150 -90 8 6 14 17 13 23 0 9 -245 196 -267 204 -4 1 -13 -3 -20 -10z"/>
<path d="M16161 11193 c-8 -17 6 -31 120 -117 72 -53 136 -99 142 -102 7 -2
17 4 24 14 10 17 -3 29 -119 116 -71 53 -135 99 -143 102 -7 3 -18 -3 -24 -13z"/>
<path d="M6174 11053 c3 -32 8 -115 12 -185 l6 -128 25 0 25 0 -6 138 c-10
217 -13 232 -43 232 -24 0 -25 -1 -19 -57z"/>
<path d="M14974 10938 c4 -95 9 -180 12 -189 3 -11 12 -15 27 -12 l22 4 -9
185 -9 184 -25 0 -25 0 7 -172z"/>
<path d="M2171 11020 c-79 -38 -145 -71 -148 -74 -2 -2 0 -13 6 -24 10 -20 17
-17 161 51 82 40 150 74 150 78 0 3 -6 13 -12 22 -12 15 -26 10 -157 -53z"/>
<path d="M2990 11075 c-74 -7 -136 -13 -137 -14 -2 0 -3 -13 -3 -27 0 -23 3
-25 28 -20 15 3 99 10 187 17 88 6 164 15 168 19 4 3 5 14 1 23 -7 20 -41 20
-244 2z"/>
<path d="M10961 11019 c-80 -38 -146 -71 -149 -73 -2 -2 1 -13 7 -25 11 -19
16 -17 158 50 81 39 149 72 151 74 6 6 -9 45 -16 44 -4 0 -72 -31 -151 -70z"/>
<path d="M11785 11075 c-77 -7 -141 -14 -143 -14 -8 -2 4 -46 13 -46 6 0 92 6
193 14 181 13 182 14 182 37 0 22 -4 24 -52 23 -29 -1 -116 -7 -193 -14z"/>
<path d="M5673 10873 c-174 -83 -181 -87 -171 -109 l10 -22 72 33 c287 133
297 138 294 159 -2 10 -7 21 -13 22 -5 1 -92 -36 -192 -83z"/>
<path d="M14470 10875 c-131 -63 -175 -88 -175 -102 0 -10 7 -19 16 -21 8 -1
95 35 193 82 165 80 176 87 166 106 -6 11 -14 20 -18 19 -4 0 -86 -38 -182
-84z"/>
<path d="M2663 10853 c-22 -8 -23 -5 122 -350 10 -25 18 -30 34 -26 12 3 21
10 21 17 -1 20 -147 360 -156 362 -5 1 -15 0 -21 -3z"/>
<path d="M8280 10831 c-41 -15 -128 -47 -192 -70 -65 -24 -118 -48 -118 -55 1
-37 18 -34 209 35 107 38 197 72 202 74 11 7 -1 45 -15 44 -6 0 -45 -13 -86
-28z"/>
<path d="M11451 10851 c-12 -8 -2 -41 59 -188 40 -98 76 -182 80 -186 9 -11
40 3 40 18 0 21 -144 358 -155 362 -6 1 -16 -1 -24 -6z"/>
<path d="M16953 10788 c-106 -39 -193 -74 -193 -77 0 -4 6 -14 13 -23 11 -14
34 -8 207 55 107 38 197 71 198 73 8 6 -10 44 -21 43 -7 0 -99 -32 -204 -71z"/>
<path d="M373 10653 c-12 -32 7 -38 187 -62 153 -20 184 -21 191 -10 21 34 28
32 -194 62 -146 19 -180 21 -184 10z"/>
<path d="M3707 10663 c-10 -3 -17 -10 -14 -16 2 -7 31 -87 63 -179 53 -151 61
-167 79 -162 11 4 22 8 24 10 5 5 -121 354 -128 353 -3 -1 -14 -3 -24 -6z"/>
<path d="M9165 10662 c-14 -14 -3 -42 18 -47 36 -8 321 -45 345 -45 16 0 22 6
22 23 0 23 -5 25 -97 36 -54 7 -140 18 -190 25 -51 7 -95 11 -98 8z"/>
<path d="M12503 10663 c-22 -8 -26 5 102 -350 5 -14 45 -5 45 11 0 22 -117
340 -126 342 -5 1 -15 0 -21 -3z"/>
<path d="M6626 10453 c-15 -76 -30 -148 -33 -160 -4 -19 -1 -23 21 -23 14 0
26 2 26 3 0 2 14 71 30 152 17 82 29 149 28 150 -2 2 -12 5 -24 9 -20 6 -23
-1 -48 -131z"/>
<path d="M15444 10577 c-2 -7 -17 -76 -33 -155 -23 -118 -26 -145 -15 -149 31
-12 40 9 67 144 15 76 27 144 27 150 0 15 -40 24 -46 10z"/>
<path d="M8766 10449 c-3 -17 -6 -96 -6 -175 l0 -144 25 0 25 0 0 144 c0 79 3
158 6 175 6 28 4 31 -18 31 -20 0 -27 -6 -32 -31z"/>
<path d="M17557 10373 c-4 -58 -7 -137 -7 -175 0 -66 1 -68 25 -68 24 0 25 2
25 68 0 38 3 117 7 175 l6 107 -25 0 c-25 0 -25 -1 -31 -107z"/>
<path d="M4380 10205 l0 -175 25 0 25 0 0 175 0 175 -25 0 -25 0 0 -175z"/>
<path d="M13170 10205 l0 -175 25 0 25 0 0 175 0 175 -25 0 -25 0 0 -175z"/>
<path d="M585 10268 c-6 -17 78 -281 90 -285 6 -1 16 1 24 6 22 14 -66 291
-92 291 -10 0 -20 -6 -22 -12z"/>
<path d="M9376 10271 c-3 -4 15 -72 40 -150 42 -133 46 -142 67 -135 12 3 23
7 24 8 1 1 -19 66 -44 144 -37 112 -50 142 -64 142 -10 0 -20 -4 -23 -9z"/>
<path d="M3235 10155 c-194 -71 -212 -81 -185 -108 7 -8 375 117 394 134 6 5
6 16 0 27 -8 19 -20 15 -209 -53z"/>
<path d="M12028 10156 c-157 -56 -198 -75 -198 -89 0 -10 6 -20 13 -23 7 -2
100 27 207 66 107 38 195 70 196 70 5 0 -9 41 -15 43 -3 2 -95 -28 -203 -67z"/>
<path d="M5987 10203 c-4 -3 -7 -14 -7 -23 0 -11 43 -31 160 -73 88 -32 165
-55 170 -52 6 3 10 14 10 23 0 14 -37 31 -159 75 -175 63 -165 60 -174 50z"/>
<path d="M14775 10189 c-4 -11 -5 -22 -3 -23 10 -8 329 -118 332 -115 2 2 6
13 8 24 3 17 -18 27 -152 76 -85 32 -160 58 -167 58 -6 1 -15 -8 -18 -20z"/>
<path d="M6811 10001 c-11 -7 4 -51 74 -222 49 -118 92 -218 96 -223 5 -6 16
-6 28 0 19 9 15 21 -72 231 -51 123 -96 223 -102 223 -5 0 -16 -4 -24 -9z"/>
<path d="M15603 10002 c-10 -6 10 -65 79 -230 50 -122 97 -222 102 -222 41 1
37 18 -55 238 -51 122 -97 222 -103 222 -6 0 -17 -4 -23 -8z"/>
<path d="M7603 9671 c-107 -143 -111 -150 -93 -166 18 -16 23 -10 133 136 103
137 113 154 99 166 -10 7 -19 13 -22 13 -3 0 -56 -67 -117 -149z"/>
<path d="M16463 9757 c-169 -214 -194 -257 -149 -257 12 0 236 280 236 295 0
2 -9 9 -19 15 -17 8 -26 1 -68 -53z"/>
<path d="M4010 9770 c-36 -10 -120 -33 -187 -50 -68 -18 -123 -38 -123 -44 1
-37 15 -37 171 4 85 23 171 46 192 51 31 8 38 14 35 31 -4 29 -12 29 -88 8z"/>
<path d="M12677 9737 c-175 -47 -187 -52 -181 -71 4 -12 8 -22 9 -24 2 -3 387
97 392 102 7 6 -11 46 -21 45 -6 -1 -95 -24 -199 -52z"/>
<path d="M1258 9687 c-87 -51 -157 -95 -158 -98 0 -3 6 -13 13 -23 12 -16 25
-10 162 70 83 48 156 92 163 99 14 13 6 45 -12 44 -6 0 -82 -42 -168 -92z"/>
<path d="M10061 9691 c-84 -49 -158 -94 -162 -98 -5 -5 -3 -17 4 -27 13 -17
25 -12 180 79 152 89 165 98 154 116 -6 10 -14 19 -17 19 -3 0 -74 -40 -159
-89z"/>
<path d="M4641 9701 c-12 -21 -25 -14 173 -96 111 -47 140 -55 147 -44 5 8 9
19 9 24 0 9 -293 136 -312 135 -4 0 -12 -8 -17 -19z"/>
<path d="M13433 9704 c-3 -8 -2 -19 3 -24 17 -16 305 -131 314 -125 6 3 10 14
10 23 0 13 -39 34 -149 80 -83 34 -155 62 -161 62 -6 0 -13 -7 -17 -16z"/>
<path d="M275 9679 c-4 -11 -5 -22 -3 -23 18 -12 349 -106 357 -101 6 3 11 14
11 23 0 14 -37 29 -172 70 -95 29 -176 52 -180 52 -4 0 -10 -9 -13 -21z"/>
<path d="M9067 9679 c-4 -14 1 -22 16 -28 57 -22 337 -104 341 -100 2 2 6 13
8 23 3 17 -19 26 -167 72 -93 30 -175 54 -181 54 -7 0 -14 -9 -17 -21z"/>
<path d="M0 9477 c0 -37 4 -75 9 -85 5 -9 33 -84 62 -167 105 -300 129 -358
171 -414 58 -78 282 -299 478 -471 338 -298 461 -413 585 -547 70 -76 155
-165 188 -197 134 -128 298 -230 442 -276 124 -39 152 -50 197 -80 71 -47 213
-202 336 -366 150 -200 197 -235 407 -299 50 -15 108 -36 130 -47 45 -23 397
-263 462 -316 23 -18 47 -31 53 -27 5 3 10 -1 10 -10 0 -9 25 -46 55 -81 119
-141 201 -286 296 -529 38 -96 82 -188 111 -231 99 -149 272 -284 583 -455
309 -170 360 -205 482 -326 137 -137 228 -275 391 -592 58 -113 122 -231 143
-262 131 -195 311 -316 664 -449 188 -71 259 -115 381 -235 135 -134 233 -284
385 -592 66 -134 140 -269 165 -302 119 -158 267 -251 669 -419 249 -104 297
-129 388 -201 144 -114 272 -287 397 -536 86 -169 147 -320 262 -645 44 -124
93 -246 110 -272 26 -42 34 -48 64 -48 l35 0 -40 53 c-28 37 -55 97 -96 212
-217 615 -341 873 -533 1108 -137 168 -241 239 -539 363 -399 168 -539 251
-655 388 -43 51 -86 127 -181 319 -157 316 -254 466 -391 603 -128 127 -209
177 -411 254 -274 104 -402 177 -521 295 -88 87 -137 163 -247 380 -156 309
-266 476 -406 615 -111 110 -192 166 -426 296 -374 207 -531 325 -631 476 -26
38 -73 138 -109 226 -74 186 -119 279 -190 387 -63 99 -171 225 -190 225 -8 0
-15 6 -15 13 0 18 -42 50 -265 204 -217 149 -255 170 -380 208 -192 58 -236
91 -388 293 -114 152 -195 243 -279 318 -71 61 -123 88 -220 115 -103 28 -240
97 -339 170 -46 34 -136 117 -199 183 -232 244 -371 377 -620 597 -279 245
-494 454 -557 539 -40 54 -55 89 -149 355 -25 72 -53 146 -61 165 -9 19 -17
42 -19 50 -2 8 -14 42 -28 75 l-25 60 -1 -68z"/>
<path d="M4046 9174 c-102 -135 -108 -146 -93 -162 21 -20 11 -29 141 142 84
109 104 142 95 152 -6 8 -17 14 -23 13 -6 0 -60 -65 -120 -145z"/>
<path d="M12840 9174 c-99 -130 -110 -148 -97 -161 8 -9 20 -13 25 -9 6 3 59
69 117 147 88 115 104 143 95 154 -7 8 -16 15 -21 15 -4 0 -58 -66 -119 -146z"/>
<path d="M4590 9300 c-12 -7 -9 -22 20 -92 89 -215 136 -322 145 -325 6 -1 16
1 24 6 12 8 0 45 -70 212 -47 112 -89 204 -94 206 -6 1 -17 -1 -25 -7z"/>
<path d="M13381 9301 c-12 -7 1 -46 69 -208 46 -109 87 -202 91 -207 5 -6 16
-6 28 0 19 9 16 20 -67 216 -48 114 -91 208 -97 208 -5 0 -16 -4 -24 -9z"/>
<path d="M656 9053 c-86 -160 -94 -179 -79 -190 9 -7 19 -13 22 -13 3 0 49 81
103 180 88 165 95 181 78 190 -10 6 -21 10 -24 10 -2 0 -47 -80 -100 -177z"/>
<path d="M9452 9057 c-68 -125 -91 -176 -84 -187 5 -8 14 -15 21 -15 6 0 54
79 106 175 84 157 92 176 78 188 -9 6 -19 12 -22 12 -3 0 -48 -78 -99 -173z"/>
<path d="M1196 9208 c-4 -12 -26 -334 -26 -365 0 -7 11 -13 24 -13 26 0 28 13
42 273 7 116 7 117 -15 117 -12 0 -23 -6 -25 -12z"/>
<path d="M9986 9173 c-3 -27 -8 -88 -11 -138 -3 -49 -8 -116 -11 -147 -6 -57
-5 -58 19 -58 28 0 30 11 42 205 3 50 8 111 11 138 6 45 5 47 -19 47 -23 0
-26 -5 -31 -47z"/>
<path d="M7181 9010 c-89 -174 -91 -179 -70 -190 11 -7 22 -10 23 -8 2 2 44
83 94 180 86 166 90 178 73 188 -11 5 -22 10 -24 10 -3 0 -46 -81 -96 -180z"/>
<path d="M15973 9010 c-89 -174 -91 -180 -71 -191 26 -14 18 -25 124 185 84
167 90 186 49 186 -5 0 -51 -81 -102 -180z"/>
<path d="M7858 9153 c-10 -3 -18 -10 -18 -16 0 -17 87 -398 92 -402 2 -2 14
-2 26 2 15 3 21 11 18 22 -3 9 -24 99 -47 201 -23 102 -44 188 -48 191 -3 3
-14 4 -23 2z"/>
<path d="M16653 9152 c-13 -2 -23 -4 -23 -6 0 -1 20 -93 45 -204 25 -111 45
-204 45 -207 0 -8 23 -6 38 3 9 6 2 55 -34 212 -25 113 -46 205 -47 205 -1 1
-12 -1 -24 -3z"/>
<path d="M1631 9096 c-16 -19 -18 -15 108 -174 93 -118 105 -130 122 -119 10
6 19 14 19 17 0 8 -220 285 -229 288 -4 1 -14 -4 -20 -12z"/>
<path d="M10425 9096 c-17 -13 -12 -22 95 -159 100 -127 116 -144 133 -136 10
6 16 17 13 24 -4 13 -215 285 -220 285 -1 0 -11 -6 -21 -14z"/>
<path d="M5309 8846 c-145 -117 -175 -146 -167 -159 5 -10 14 -17 19 -17 6 0
89 64 185 141 168 136 174 142 158 160 -9 11 -18 19 -18 19 -1 -1 -80 -65
-177 -144z"/>
<path d="M14105 8850 c-93 -76 -170 -143 -169 -149 2 -27 5 -31 15 -31 11 0
183 134 306 237 47 39 51 46 40 64 -6 10 -14 19 -17 18 -3 0 -81 -63 -175
-139z"/>
<path d="M4295 8806 c-17 -12 -9 -24 116 -174 74 -88 138 -159 143 -158 5 1
14 9 19 18 8 12 -17 48 -122 172 -73 86 -133 156 -135 156 -1 0 -11 -6 -21
-14z"/>
<path d="M13091 8806 c-16 -19 -19 -15 127 -189 119 -142 125 -147 143 -131
18 16 17 19 -24 68 -24 28 -83 98 -132 156 -48 58 -91 106 -95 108 -4 1 -13
-4 -19 -12z"/>
<path d="M1 8659 c-1 -40 5 -52 52 -110 107 -129 211 -222 552 -489 487 -382
696 -584 855 -824 62 -94 123 -157 180 -186 24 -12 102 -42 174 -67 230 -78
296 -127 416 -303 127 -188 200 -244 613 -471 149 -82 296 -168 326 -191 76
-58 207 -185 277 -269 33 -39 64 -67 71 -65 8 3 13 -3 13 -15 0 -12 31 -62 68
-112 94 -126 164 -232 242 -364 125 -215 230 -315 636 -608 391 -281 489 -393
695 -790 86 -165 101 -187 184 -274 192 -201 493 -427 765 -576 156 -86 233
-140 318 -224 151 -148 287 -337 485 -671 102 -173 125 -205 199 -276 150
-144 432 -311 758 -449 163 -70 245 -121 326 -207 147 -154 232 -333 324 -688
50 -191 68 -244 122 -363 28 -60 34 -67 60 -67 l28 0 -25 49 c-57 113 -132
348 -181 560 -9 43 -76 214 -107 276 -78 156 -195 299 -311 378 -33 22 -132
71 -220 109 -331 142 -591 296 -739 437 -69 66 -94 101 -194 271 -200 337
-334 523 -489 676 -90 89 -166 142 -324 229 -270 148 -575 377 -760 572 -77
80 -94 107 -178 269 -185 354 -327 528 -582 709 -516 368 -612 456 -759 703
-96 161 -235 362 -295 427 -24 25 -48 56 -53 68 -17 36 -209 232 -294 300 -43
35 -142 98 -221 142 -474 261 -530 296 -618 384 -31 31 -85 99 -120 151 -123
182 -204 241 -447 323 -72 25 -145 53 -163 62 -46 24 -105 87 -157 167 -89
138 -221 288 -388 440 -115 106 -237 206 -625 513 -242 192 -372 320 -472 465
l-17 25 0 -46z"/>
<path d="M5730 8625 c-10 -12 11 -41 120 -170 72 -85 135 -155 139 -155 5 0
14 7 21 15 10 12 -11 41 -120 170 -72 85 -135 155 -139 155 -5 0 -14 -7 -21
-15z"/>
<path d="M14522 8627 c-9 -11 15 -46 120 -170 72 -86 137 -157 143 -157 7 0
17 6 23 13 7 9 -24 52 -120 167 -72 85 -136 156 -143 158 -6 2 -17 -3 -23 -11z"/>
<path d="M1050 8495 c-6 -8 -8 -20 -4 -27 28 -48 220 -346 231 -358 11 -12 15
-12 29 2 15 14 6 32 -107 207 -67 105 -125 191 -129 191 -4 0 -13 -7 -20 -15z"/>
<path d="M9846 8497 c-18 -13 -11 -26 99 -198 65 -101 121 -188 126 -193 12
-13 41 14 35 31 -7 18 -215 343 -231 361 -9 10 -15 10 -29 -1z"/>
<path d="M7445 8460 c-4 -12 -4 -24 -2 -27 6 -6 412 -93 434 -93 7 0 13 10 13
23 0 23 -9 25 -207 67 -115 23 -213 45 -220 47 -6 2 -14 -5 -18 -17z"/>
<path d="M16237 8459 c-4 -13 -4 -25 -2 -27 2 -2 101 -24 220 -49 181 -38 218
-44 226 -32 5 8 9 19 9 24 0 6 -96 30 -213 54 -116 24 -217 46 -223 48 -6 2
-14 -6 -17 -18z"/>
<path d="M1717 8403 c-4 -3 -7 -15 -7 -25 0 -17 13 -18 210 -18 l210 0 0 25 0
25 -203 0 c-112 0 -207 -3 -210 -7z"/>
<path d="M10510 8385 l0 -25 205 0 205 0 0 25 0 25 -205 0 -205 0 0 -25z"/>
<path d="M5240 8246 c-156 -20 -165 -22 -168 -43 -4 -28 5 -29 178 -8 166 21
170 22 170 45 0 10 -3 21 -7 23 -5 2 -82 -6 -173 -17z"/>
<path d="M14031 8246 c-90 -11 -166 -25 -168 -31 -1 -5 1 -17 6 -24 8 -13 31
-12 173 5 l163 19 3 28 c2 15 0 26 -5 26 -4 -1 -82 -11 -172 -23z"/>
<path d="M11193 8172 c-13 -2 -23 -4 -23 -5 0 -1 14 -78 30 -172 16 -93 30
-171 30 -172 0 -2 11 -3 25 -3 14 0 25 3 25 8 0 11 -61 346 -63 347 -1 0 -12
-1 -24 -3z"/>
<path d="M2380 8158 c0 -14 46 -279 55 -315 4 -17 13 -23 31 -23 19 0 24 4 21
18 -3 9 -18 88 -33 175 -26 150 -28 157 -51 157 -12 0 -23 -6 -23 -12z"/>
<path d="M2 8100 c3 -32 10 -37 116 -95 62 -34 198 -101 304 -149 105 -48 215
-103 244 -122 144 -96 383 -382 565 -675 78 -127 166 -209 343 -319 328 -204
379 -240 482 -344 61 -61 130 -144 175 -211 l74 -110 145 -72 c80 -39 192 -87
249 -107 354 -125 675 -380 785 -623 20 -45 46 -49 46 -7 0 54 -73 167 -179
278 -163 169 -395 315 -637 399 -54 20 -160 65 -236 101 l-136 66 -73 108
c-86 128 -250 297 -359 369 -41 28 -136 87 -210 133 -281 172 -339 223 -439
384 -177 283 -388 538 -542 654 -31 23 -151 86 -272 141 -193 89 -400 195
-435 224 -11 9 -13 4 -10 -23z"/>
<path d="M8187 8083 c-3 -5 18 -110 46 -235 48 -218 51 -228 74 -228 13 0 23
5 23 10 0 9 -74 348 -95 438 -5 21 -38 31 -48 15z"/>
<path d="M16979 8085 c-3 -3 17 -108 45 -235 48 -217 52 -230 74 -230 14 0 22
6 22 18 0 9 -22 114 -49 232 -41 187 -50 215 -67 218 -11 2 -22 0 -25 -3z"/>
<path d="M14521 7790 c-95 -126 -111 -152 -101 -165 7 -8 16 -15 20 -15 6 0
204 254 223 286 4 6 -1 18 -11 27 -16 15 -25 6 -131 -133z"/>
<path d="M1900 7783 c-98 -128 -109 -148 -97 -161 8 -8 20 -11 26 -7 16 9 221
282 221 294 0 7 -23 21 -35 21 -2 0 -54 -66 -115 -147z"/>
<path d="M5722 7783 c-100 -133 -110 -149 -95 -161 10 -7 20 -11 24 -10 4 2
57 68 117 148 82 108 108 148 100 157 -6 7 -16 13 -22 13 -6 0 -62 -66 -124
-147z"/>
<path d="M10692 7783 c-100 -132 -109 -149 -95 -161 10 -7 20 -11 24 -10 5 2
57 69 118 149 81 108 107 149 98 158 -6 6 -16 11 -23 11 -6 0 -62 -66 -122
-147z"/>
<path d="M3010 7797 c0 -2 -14 -71 -30 -152 -24 -116 -27 -150 -18 -157 13 -8
38 -11 38 -5 0 2 13 70 30 152 16 81 27 151 24 156 -5 8 -44 13 -44 6z"/>
<path d="M11774 7646 c-30 -153 -30 -155 -10 -160 11 -3 22 -3 24 -1 9 9 62
290 57 302 -2 7 -13 13 -23 13 -15 0 -22 -23 -48 -154z"/>
<path d="M8865 7635 c-88 -74 -161 -140 -163 -148 -2 -8 3 -19 10 -24 10 -8
52 22 173 122 88 74 161 138 162 142 2 5 -2 16 -9 25 -12 15 -31 1 -173 -117z"/>
<path d="M111 7668 c-101 -84 -111 -95 -111 -126 l0 -33 123 102 c67 56 126
106 131 110 9 8 -10 39 -24 39 -4 0 -58 -41 -119 -92z"/>
<path d="M17650 7629 c-85 -71 -156 -133 -158 -138 -1 -4 4 -14 13 -21 18 -15
-2 -29 198 138 121 101 146 126 136 138 -6 8 -17 14 -23 14 -6 -1 -81 -59
-166 -131z"/>
<path d="M6312 7587 c-9 -10 17 -42 113 -137 118 -118 126 -124 142 -107 17
16 11 23 -102 137 -66 66 -125 120 -131 120 -6 0 -16 -6 -22 -13z"/>
<path d="M15109 7584 c-11 -13 5 -32 111 -139 118 -118 125 -124 142 -108 18
16 13 22 -104 140 -67 68 -126 123 -129 123 -4 0 -12 -7 -20 -16z"/>
<path d="M2326 7504 c-8 -22 -17 -15 157 -128 119 -78 152 -95 163 -85 8 6 14
16 14 21 0 10 -286 199 -311 205 -9 3 -19 -3 -23 -13z"/>
<path d="M11122 7508 c-7 -7 -12 -15 -12 -19 0 -4 72 -53 161 -110 128 -81
163 -99 170 -88 5 8 9 19 9 24 0 9 -271 188 -303 201 -7 2 -18 -1 -25 -8z"/>
<path d="M6940 7305 l0 -175 25 0 25 0 0 175 0 175 -25 0 -25 0 0 -175z"/>
<path d="M15730 7305 l0 -175 25 0 25 0 0 175 0 175 -25 0 -25 0 0 -175z"/>
<path d="M3620 7400 c-10 -18 2 -28 122 -106 72 -47 138 -89 146 -92 13 -4 31
13 32 29 0 6 -276 189 -285 189 -2 0 -9 -9 -15 -20z"/>
<path d="M12412 7400 c-11 -18 -6 -24 58 -65 243 -156 223 -146 239 -117 8 15
-11 31 -134 110 -79 51 -145 92 -147 92 -2 0 -9 -9 -16 -20z"/>
<path d="M160 7136 c-151 -41 -155 -43 -158 -70 -3 -20 0 -27 10 -23 7 2 88
24 181 48 154 40 167 45 167 66 0 31 -14 30 -200 -21z"/>
<path d="M8935 7131 c-106 -28 -180 -53 -179 -59 2 -28 5 -32 20 -32 13 0 333
82 371 95 17 6 3 45 -16 44 -9 0 -97 -22 -196 -48z"/>
<path d="M17760 7140 c-229 -61 -219 -58 -213 -80 3 -11 12 -20 20 -20 22 0
367 91 376 100 12 11 -4 40 -22 39 -9 0 -81 -18 -161 -39z"/>
<path d="M3185 7108 c-10 -44 -55 -271 -55 -279 0 -5 11 -9 24 -9 22 0 25 7
51 143 15 78 28 146 29 152 0 5 -9 11 -21 13 -17 2 -24 -3 -28 -20z"/>
<path d="M11980 7127 c0 -2 -13 -71 -30 -152 -16 -81 -30 -149 -30 -150 0 -2
11 -5 25 -7 14 -3 25 -4 25 -3 0 1 14 69 30 150 17 81 30 152 30 157 0 4 -11
8 -25 8 -14 0 -25 -2 -25 -3z"/>
<path d="M4246 6912 c-135 -207 -129 -195 -104 -211 11 -7 21 -11 22 -9 183
282 226 351 224 352 -2 1 -11 8 -20 15 -16 12 -28 -3 -122 -147z"/>
<path d="M13031 6899 c-61 -93 -111 -174 -111 -179 0 -5 8 -14 18 -19 16 -9
33 12 130 163 62 95 112 176 112 179 0 4 -9 11 -19 16 -17 10 -31 -8 -130
-160z"/>
<path d="M871 7001 c-11 -7 -5 -48 37 -236 27 -124 52 -228 54 -230 8 -9 49 8
45 19 -2 6 -26 111 -53 234 -27 122 -53 222 -59 222 -5 0 -16 -4 -24 -9z"/>
<path d="M9663 7002 c-10 -6 -1 -62 39 -240 49 -220 53 -232 72 -226 12 4 22
8 24 9 1 1 -20 104 -48 229 -27 124 -50 228 -50 231 0 8 -23 6 -37 -3z"/>
<path d="M6218 6944 c-5 -4 -8 -15 -8 -24 0 -22 76 -30 273 -30 l137 0 0 25 0
25 -139 0 c-76 0 -165 3 -197 6 -32 3 -62 3 -66 -2z"/>
<path d="M15010 6928 c0 -23 4 -26 61 -32 34 -3 124 -6 200 -6 l139 0 0 25 0
25 -139 0 c-76 0 -166 3 -200 6 -60 7 -61 7 -61 -18z"/>
<path d="M7296 6838 c-3 -13 -2 -24 2 -26 4 -1 75 -31 157 -66 134 -57 151
-62 163 -48 6 9 12 19 12 22 0 6 -310 140 -323 140 -3 0 -7 -10 -11 -22z"/>
<path d="M16090 6840 c-8 -15 -6 -21 10 -30 30 -16 304 -130 306 -127 1 1 4
12 8 23 6 19 -2 25 -66 52 -40 17 -111 47 -158 66 -46 20 -85 36 -87 36 -1 0
-7 -9 -13 -20z"/>
<path d="M3665 6769 c-7 -10 -1 -124 11 -252 6 -52 8 -58 28 -55 24 3 23 -2
11 201 -6 104 -9 117 -25 117 -11 0 -22 -5 -25 -11z"/>
<path d="M12456 6771 c-3 -5 -1 -64 4 -132 5 -68 10 -136 10 -151 0 -23 4 -28
26 -28 l26 0 -6 98 c-14 203 -17 222 -37 222 -10 0 -20 -4 -23 -9z"/>
<path d="M6969 6742 c-15 -6 -9 -28 44 -169 47 -127 64 -163 78 -163 10 0 20
4 24 9 7 12 -109 324 -121 327 -5 2 -16 -1 -25 -4z"/>
<path d="M15761 6741 c-12 -8 -5 -36 44 -168 32 -87 61 -161 65 -166 3 -4 15
-1 25 7 18 13 16 20 -41 171 -32 87 -64 160 -69 162 -6 1 -16 -1 -24 -6z"/>
<path d="M0 6672 c0 -21 7 -32 26 -41 74 -33 248 -198 367 -348 147 -185 308
-429 478 -723 55 -97 102 -164 140 -202 100 -101 265 -196 623 -358 88 -39
187 -90 220 -113 138 -93 334 -308 560 -612 69 -93 143 -193 164 -220 45 -59
429 -336 555 -400 88 -44 198 -124 304 -220 40 -37 77 -63 83 -60 5 3 10 -2
10 -12 0 -10 35 -56 76 -103 108 -121 193 -236 271 -369 81 -138 152 -217 231
-259 32 -17 128 -58 212 -90 509 -195 740 -347 873 -573 67 -114 95 -151 195
-253 102 -104 218 -201 393 -327 248 -177 462 -412 623 -683 36 -61 108 -200
161 -310 52 -109 121 -242 154 -295 52 -85 62 -96 90 -99 17 -2 31 -1 31 1 0
2 -25 42 -56 88 -30 46 -101 176 -156 289 -55 113 -104 206 -109 208 -5 2 -9
11 -9 21 0 25 -123 225 -215 349 -112 151 -321 357 -470 462 -322 227 -481
386 -606 604 -45 79 -165 198 -271 269 -156 104 -326 187 -616 298 -84 32
-176 71 -203 86 -70 38 -133 110 -212 244 -37 63 -96 153 -131 199 -87 116
-236 281 -247 274 -5 -3 -9 2 -9 10 0 35 -250 233 -375 297 -44 22 -177 109
-294 192 l-215 152 -125 171 c-70 94 -169 225 -221 290 -117 148 -334 367
-419 424 -36 24 -142 78 -235 120 -497 224 -595 296 -726 525 -319 562 -641
969 -873 1103 -21 12 -40 22 -43 22 -2 0 -4 -13 -4 -28z"/>
<path d="M1431 6401 c-96 -26 -176 -51 -178 -57 -1 -5 1 -15 6 -23 8 -12 40
-7 198 34 103 26 191 50 195 52 3 1 4 12 1 23 -7 27 -20 26 -222 -29z"/>
<path d="M10225 6401 c-99 -26 -179 -51 -177 -54 1 -4 2 -14 2 -22 0 -8 7 -15
15 -15 22 0 368 92 378 100 12 11 -4 40 -22 39 -9 0 -97 -22 -196 -48z"/>
<path d="M0 6362 c1 -24 9 -31 68 -57 41 -19 90 -52 129 -89 109 -102 156
-177 292 -467 49 -102 111 -224 139 -270 136 -225 320 -382 851 -724 134 -86
267 -173 295 -193 173 -123 249 -221 388 -502 55 -113 120 -235 145 -272 43
-65 47 -68 181 -139 216 -113 242 -125 332 -153 110 -35 225 -93 322 -163 96
-69 236 -212 307 -313 55 -79 74 -91 79 -50 7 61 -237 325 -401 434 -93 62
-234 128 -314 147 -26 6 -132 55 -234 108 -224 115 -216 106 -354 389 -112
228 -183 340 -275 432 -75 76 -119 108 -445 318 -529 341 -709 495 -840 717
-26 44 -87 164 -136 268 -125 266 -168 336 -274 442 -85 85 -134 118 -229 155
-24 9 -26 7 -26 -18z"/>
<path d="M4520 6370 c-96 -10 -176 -18 -177 -19 -2 -1 -3 -12 -3 -25 0 -22 3
-23 48 -19 26 3 128 12 227 21 173 16 180 18 183 40 3 21 0 22 -50 21 -29 -1
-132 -10 -228 -19z"/>
<path d="M13310 6370 c-96 -10 -176 -18 -178 -19 -2 -1 -2 -11 0 -23 2 -16 9
-23 23 -22 11 1 113 10 228 20 205 17 207 18 207 41 0 21 -4 23 -52 22 -29 -1
-132 -10 -228 -19z"/>
<path d="M7963 6228 c-6 -7 -56 -84 -113 -172 -93 -145 -100 -160 -86 -174 14
-14 18 -14 30 -2 35 39 217 334 212 346 -7 17 -30 18 -43 2z"/>
<path d="M16651 6068 c-100 -156 -110 -174 -94 -185 9 -7 19 -13 22 -13 3 0
56 78 117 173 108 168 120 197 79 197 -7 0 -63 -78 -124 -172z"/>
<path d="M4029 6214 c-11 -13 5 -33 115 -142 121 -121 128 -126 142 -107 13
18 7 27 -108 142 -68 68 -126 123 -129 123 -4 0 -12 -7 -20 -16z"/>
<path d="M12827 6213 c-16 -18 -10 -25 108 -143 119 -118 126 -124 142 -107
17 16 11 24 -108 143 -120 119 -126 124 -142 107z"/>
<path d="M733 6154 c-3 -8 -2 -19 3 -23 17 -15 294 -45 306 -33 27 27 -1 38
-133 55 -163 21 -168 21 -176 1z"/>
<path d="M9530 6147 c0 -22 6 -24 138 -40 174 -22 172 -22 172 6 0 22 -6 24
-137 40 -175 22 -173 22 -173 -6z"/>
<path d="M7267 6023 c-2 -5 1 -77 6 -160 l10 -153 25 0 24 0 -6 128 c-9 169
-14 192 -37 192 -10 0 -20 -3 -22 -7z"/>
<path d="M16065 6020 c-7 -12 3 -261 12 -293 3 -12 12 -17 26 -15 19 3 20 9
18 68 -8 187 -16 245 -33 248 -9 2 -19 -2 -23 -8z"/>
<path d="M0 5943 c0 -23 12 -37 69 -81 138 -105 248 -226 302 -334 16 -32 56
-126 88 -208 72 -185 125 -274 210 -360 106 -106 181 -150 526 -315 299 -143
478 -272 592 -425 23 -30 69 -107 104 -170 117 -215 252 -396 396 -531 123
-115 192 -154 405 -228 190 -65 296 -127 409 -240 85 -86 152 -177 284 -390
63 -101 115 -176 126 -178 12 -3 19 -14 19 -28 0 -47 186 -261 318 -366 136
-109 288 -177 492 -219 144 -30 197 -47 255 -86 88 -58 132 -131 220 -364 79
-207 131 -296 231 -390 74 -71 148 -115 299 -180 173 -75 211 -96 261 -142 61
-57 93 -106 141 -224 23 -55 82 -185 131 -290 80 -170 92 -189 116 -192 14 -2
26 -1 26 2 0 4 -49 111 -108 239 -60 127 -119 258 -132 290 -12 31 -26 57 -30
57 -4 0 -10 13 -13 29 -8 36 -106 144 -163 177 -23 14 -105 53 -182 87 -190
85 -264 131 -332 204 -79 85 -130 173 -190 333 -127 336 -208 429 -415 476
-38 8 -110 25 -160 36 -275 63 -476 203 -683 476 -35 45 -67 82 -72 82 -6 0
-10 7 -10 16 0 22 -198 340 -281 450 -145 194 -293 298 -547 385 -223 77 -299
124 -440 273 -133 141 -215 258 -346 494 -158 283 -299 392 -856 660 -258 124
-368 210 -459 358 -17 28 -64 134 -104 235 -78 196 -111 256 -200 359 -53 62
-200 190 -266 232 l-31 20 0 -29z"/>
<path d="M4770 5783 c0 -187 3 -203 37 -203 21 0 24 4 19 23 -3 12 -6 93 -6
180 l0 157 -25 0 -25 0 0 -157z"/>
<path d="M13560 5858 c0 -46 3 -127 7 -180 6 -96 6 -98 31 -98 l25 0 -6 107
c-4 58 -7 139 -7 180 0 71 -1 73 -25 73 -25 0 -25 -1 -25 -82z"/>
<path d="M1730 5885 c-10 -11 11 -41 116 -167 70 -84 130 -156 134 -161 3 -4
14 1 24 11 16 19 12 26 -114 176 -72 86 -134 156 -139 156 -5 0 -14 -7 -21
-15z"/>
<path d="M10521 5886 c-9 -11 15 -45 120 -170 72 -86 138 -156 145 -156 41 0
20 37 -102 184 -71 85 -134 155 -140 155 -6 1 -17 -5 -23 -13z"/>
<path d="M1350 5823 c0 -48 20 -300 26 -330 4 -20 32 -32 45 -19 2 3 -2 89
-11 193 -15 182 -16 188 -37 191 -20 3 -23 -1 -23 -35z"/>
<path d="M10140 5838 c0 -13 7 -99 15 -193 8 -93 15 -171 15 -172 0 -7 40 -2
44 6 3 4 -1 82 -9 172 -8 90 -15 174 -15 187 0 17 -6 22 -25 22 -19 0 -25 -5
-25 -22z"/>
<path d="M8395 5749 c-99 -9 -192 -18 -207 -18 -23 -1 -28 -6 -28 -26 0 -30
-18 -30 245 -5 116 11 211 20 213 20 1 0 2 11 2 25 0 29 20 29 -225 4z"/>
<path d="M17185 5749 c-99 -9 -193 -18 -208 -18 -25 -1 -27 -4 -21 -23 3 -13
8 -25 10 -26 3 -4 312 22 405 34 42 5 46 7 41 30 -5 28 15 28 -227 3z"/>
<path d="M2457 5713 c-12 -3 -17 -11 -15 -21 3 -10 24 -104 48 -210 41 -181
45 -192 64 -186 12 4 22 8 24 9 2 1 -18 93 -43 203 -25 110 -45 203 -45 206 0
6 -5 6 -33 -1z"/>
<path d="M11249 5712 c-14 -6 -11 -31 30 -212 42 -187 48 -205 66 -202 11 2
22 6 24 8 2 2 -13 79 -33 171 -60 267 -53 249 -87 235z"/>
<path d="M5347 5679 c-4 -14 1 -22 16 -28 117 -44 337 -121 345 -121 13 0 25
31 15 40 -10 9 -345 130 -359 130 -7 0 -14 -9 -17 -21z"/>
<path d="M12327 5693 c-17 -16 -3 -47 58 -128 87 -115 169 -238 240 -360 137
-234 235 -325 753 -700 159 -116 224 -171 296 -253 89 -103 169 -227 273 -425
112 -216 135 -248 256 -363 197 -188 489 -399 751 -543 70 -39 156 -93 191
-121 169 -134 358 -384 577 -761 55 -96 117 -187 151 -225 139 -153 424 -328
783 -482 181 -78 247 -117 320 -188 156 -152 257 -360 349 -719 47 -184 75
-265 124 -363 26 -51 36 -62 56 -62 14 0 25 2 25 5 0 3 -15 36 -34 73 -47 94
-81 192 -122 355 -19 78 -40 147 -45 153 -5 6 -7 13 -4 16 9 9 -55 179 -106
283 -85 172 -201 310 -332 393 -26 16 -109 56 -185 88 -357 150 -661 336 -794
483 -29 33 -96 133 -148 223 -225 389 -422 644 -603 782 -40 29 -124 82 -187
116 -305 164 -718 482 -847 652 -22 29 -84 135 -137 236 -109 207 -169 301
-267 418 -82 97 -154 157 -399 333 -419 302 -530 407 -645 611 -60 107 -145
234 -248 373 -79 105 -87 114 -100 100z"/>
<path d="M14147 5693 c-26 -25 0 -40 178 -104 173 -62 185 -65 191 -46 3 10 2
23 -3 27 -8 8 -339 130 -353 130 -4 0 -10 -3 -13 -7z"/>
<path d="M4146 5544 c-3 -9 -6 -17 -6 -20 0 -4 296 -154 305 -154 2 0 9 9 15
20 10 18 -2 26 -140 95 -82 41 -154 75 -159 75 -5 0 -12 -7 -15 -16z"/>
<path d="M12936 5544 c-3 -9 -6 -17 -6 -20 0 -4 296 -154 305 -154 2 0 9 9 15
20 10 18 -2 26 -140 95 -82 41 -154 75 -159 75 -5 0 -12 -7 -15 -16z"/>
<path d="M8723 5384 c-3 -8 -2 -19 3 -24 16 -15 348 -131 361 -126 7 3 13 13
13 23 0 14 -38 31 -178 81 -97 34 -181 62 -185 62 -4 0 -10 -7 -14 -16z"/>
<path d="M17516 5383 c-4 -9 -3 -19 1 -23 10 -9 345 -130 359 -130 7 0 14 9
17 21 4 14 -1 22 -16 28 -108 41 -336 121 -344 121 -6 0 -14 -8 -17 -17z"/>
<path d="M7950 5369 c-7 -11 -10 -22 -8 -24 2 -1 71 -37 155 -79 143 -71 153
-75 163 -57 5 11 10 22 10 25 0 6 -294 156 -305 156 -2 0 -9 -9 -15 -21z"/>
<path d="M16745 5369 c-4 -11 -5 -22 -3 -24 1 -1 71 -37 155 -78 151 -76 163
-79 163 -36 0 7 -290 159 -304 159 -3 0 -8 -9 -11 -21z"/>
<path d="M0 5356 c0 -27 -4 -25 198 -96 78 -28 95 -31 103 -19 5 8 7 19 6 24
-3 9 -278 114 -299 115 -5 0 -8 -11 -8 -24z"/>
<path d="M2850 5236 c0 -28 -5 -27 174 -51 140 -19 136 -19 136 10 0 14 -4 25
-10 25 -11 0 -222 28 -267 36 -30 4 -33 3 -33 -20z"/>
<path d="M11647 5253 c-4 -3 -7 -14 -7 -24 0 -20 1 -20 184 -45 98 -13 120
-13 127 -2 20 30 6 36 -128 52 -76 10 -145 20 -154 22 -8 2 -18 1 -22 -3z"/>
<path d="M3537 5243 c-20 -19 -3 -66 49 -139 212 -297 491 -556 763 -704 294
-162 440 -326 631 -708 105 -211 170 -303 320 -452 187 -188 431 -366 690
-505 308 -165 450 -329 719 -831 50 -94 107 -191 125 -215 109 -136 379 -312
911 -589 396 -207 423 -247 520 -755 25 -132 50 -264 56 -292 9 -47 13 -53 35
-53 13 0 24 2 24 5 0 3 -21 115 -46 248 -73 391 -104 497 -173 603 -65 102
-130 151 -348 264 -545 284 -808 451 -932 593 -17 19 -76 119 -132 223 -183
338 -296 503 -442 640 -89 84 -155 129 -332 226 -236 129 -464 297 -640 473
-145 145 -212 240 -310 439 -186 378 -359 573 -647 726 -276 148 -608 464
-800 763 -33 51 -32 50 -41 40z"/>
<path d="M12327 5243 c-41 -41 129 -270 381 -515 144 -139 269 -237 385 -300
331 -182 494 -355 665 -708 108 -224 162 -301 332 -471 223 -224 406 -359 719
-529 142 -76 203 -123 313 -239 126 -132 222 -282 433 -676 116 -217 319 -359
1060 -746 137 -71 170 -93 230 -154 119 -118 146 -195 231 -650 l48 -255 26 0
27 0 -14 68 c-8 37 -34 168 -59 292 -24 124 -47 238 -50 254 -10 49 -55 168
-80 212 -72 126 -134 173 -434 329 -500 262 -739 414 -859 551 -23 27 -92 141
-153 254 -143 267 -255 436 -371 556 -118 124 -171 164 -339 257 -318 176
-475 292 -688 506 -168 168 -212 231 -318 446 -187 380 -356 562 -688 743
-223 120 -540 424 -725 694 -64 93 -62 92 -72 81z"/>
<path d="M2065 5146 c-166 -30 -180 -34 -183 -54 -4 -29 8 -29 238 11 173 30
185 33 188 55 3 19 -1 22 -30 21 -18 -1 -114 -15 -213 -33z"/>
<path d="M10858 5146 c-97 -17 -179 -34 -183 -38 -4 -3 -4 -15 -1 -25 6 -18
14 -18 216 16 201 34 210 37 210 58 0 30 -15 29 -242 -11z"/>
<path d="M5202 5023 c-100 -133 -110 -149 -95 -161 10 -7 20 -11 24 -10 4 2
57 68 118 148 98 129 108 146 94 158 -9 6 -19 12 -23 12 -3 0 -56 -66 -118
-147z"/>
<path d="M13996 5024 c-102 -135 -108 -146 -93 -162 21 -20 11 -29 141 142 84
109 104 142 95 152 -6 8 -17 14 -23 13 -6 0 -60 -65 -120 -145z"/>
<path d="M5809 4979 c-85 -51 -157 -95 -162 -98 -4 -4 -1 -15 7 -26 12 -17 22
-13 179 79 153 90 165 99 154 117 -6 10 -15 19 -18 19 -3 0 -75 -41 -160 -91z"/>
<path d="M14594 4973 c-145 -87 -161 -98 -151 -115 7 -10 15 -18 18 -18 4 0
79 43 168 96 146 86 160 97 151 115 -6 10 -14 19 -18 19 -4 0 -80 -44 -168
-97z"/>
<path d="M2544 4686 c-30 -153 -30 -155 -10 -160 11 -3 22 -3 24 -1 9 9 62
290 57 302 -2 7 -13 13 -23 13 -15 0 -22 -23 -48 -154z"/>
<path d="M11365 4828 c-2 -7 -16 -75 -31 -151 -23 -118 -25 -140 -13 -148 8
-5 19 -7 24 -6 11 4 75 303 67 312 -10 10 -43 5 -47 -7z"/>
<path d="M8574 4708 c3 -50 6 -131 6 -180 0 -87 0 -88 25 -88 25 0 25 0 25 98
0 53 -3 134 -7 180 -6 79 -7 82 -31 82 l-25 0 7 -92z"/>
<path d="M17368 4620 l3 -180 25 0 24 0 -2 178 -3 177 -25 3 -25 3 3 -181z"/>
<path d="M6435 4768 c-2 -7 -9 -104 -16 -216 -12 -207 -10 -232 24 -219 10 4
16 51 25 193 16 254 16 254 -8 254 -11 0 -22 -6 -25 -12z"/>
<path d="M15226 4733 c-12 -101 -27 -383 -21 -393 3 -5 15 -10 26 -10 14 0 19
7 19 28 0 28 15 245 25 360 5 61 5 62 -19 62 -21 0 -25 -5 -30 -47z"/>
<path d="M2993 4741 c-10 -16 4 -28 139 -116 142 -93 151 -98 164 -80 8 10 11
22 7 26 -16 14 -285 189 -291 189 -4 0 -12 -8 -19 -19z"/>
<path d="M11792 4748 c-7 -7 -12 -16 -12 -20 0 -5 66 -51 146 -104 117 -76
149 -93 160 -83 8 6 14 15 14 20 0 7 -283 199 -293 199 -2 0 -8 -5 -15 -12z"/>
<path d="M432 4583 c-82 -110 -108 -151 -100 -160 6 -7 16 -13 22 -13 6 0 60
65 120 145 90 121 106 148 96 160 -7 8 -16 15 -20 15 -4 0 -57 -66 -118 -147z"/>
<path d="M9222 4580 c-107 -143 -111 -150 -91 -160 26 -14 14 -26 144 145 96
126 104 141 88 152 -9 7 -19 13 -22 13 -3 -1 -57 -68 -119 -150z"/>
<path d="M18007 4568 c-81 -106 -97 -132 -87 -143 7 -8 16 -15 20 -15 5 0 45
47 90 105 73 95 81 109 78 144 l-3 38 -98 -129z"/>
<path d="M3726 4598 c-99 -349 -102 -367 -60 -368 6 0 34 84 62 188 63 235 62
226 35 230 -19 3 -24 -4 -37 -50z"/>
<path d="M12480 4458 c-29 -106 -55 -198 -57 -205 -4 -11 34 -29 43 -20 6 5
114 394 114 408 0 5 -11 9 -24 9 -22 0 -26 -12 -76 -192z"/>
<path d="M1290 4295 c-15 -18 -18 -12 108 -173 91 -115 107 -131 121 -120 9 7
18 13 20 15 5 3 -223 293 -230 293 -4 0 -12 -7 -19 -15z"/>
<path d="M10085 4296 c-19 -13 -18 -15 15 -58 19 -24 71 -90 114 -146 68 -86
82 -99 98 -91 10 5 18 13 18 18 0 7 -182 244 -214 279 -10 10 -16 9 -31 -2z"/>
<path d="M5623 4233 c-3 -7 -3 -19 0 -25 6 -16 381 -113 396 -104 6 4 11 15
11 24 0 23 -399 127 -407 105z"/>
<path d="M14414 4228 c-3 -11 -2 -23 3 -27 8 -8 370 -101 391 -101 7 0 12 10
12 23 0 20 -15 26 -200 73 -192 50 -200 51 -206 32z"/>
<path d="M745 4114 c-88 -51 -161 -100 -162 -106 -2 -7 1 -19 6 -26 6 -11 46
9 172 84 90 53 166 98 168 100 1 1 -3 12 -11 23 -13 19 -19 16 -173 -75z"/>
<path d="M9533 4112 c-90 -53 -163 -99 -163 -103 0 -3 6 -13 13 -22 11 -15 29
-6 175 81 89 53 162 99 162 102 0 4 -6 13 -12 22 -12 15 -31 6 -175 -80z"/>
<path d="M3205 4060 c-77 -50 -141 -93 -143 -98 -1 -4 3 -15 10 -24 12 -14 29
-5 155 76 79 50 143 94 143 97 0 3 -6 13 -12 22 -12 15 -27 7 -153 -73z"/>
<path d="M12005 4064 c-71 -47 -136 -88 -144 -93 -12 -7 -12 -11 0 -29 14 -20
18 -18 154 69 77 50 141 96 143 103 2 7 -3 18 -10 23 -10 8 -46 -11 -143 -73z"/>
<path d="M0 4075 c0 -25 9 -48 29 -73 16 -20 45 -68 64 -107 132 -270 141
-287 191 -337 93 -95 186 -148 676 -386 209 -102 283 -156 374 -273 123 -157
197 -318 258 -563 42 -167 73 -245 134 -328 74 -100 214 -191 423 -273 195
-76 250 -112 466 -307 199 -181 267 -252 335 -352 110 -164 175 -339 204 -545
16 -118 52 -221 103 -294 34 -49 231 -217 255 -217 9 0 18 -5 20 -11 2 -6 21
-9 43 -7 l39 3 -29 19 c-16 11 -35 19 -42 19 -7 0 -13 3 -13 7 0 4 -46 46
-103 93 -57 47 -115 102 -130 124 -45 65 -76 157 -97 290 -26 159 -56 261
-114 380 -89 182 -173 288 -371 469 -290 264 -322 285 -568 385 -313 126 -432
249 -492 505 -86 370 -234 636 -438 790 -35 26 -200 114 -382 204 -493 243
-520 264 -646 525 -69 143 -149 272 -180 290 -5 4 -9 -10 -9 -30z"/>
<path d="M4253 4048 c-84 -34 -153 -64 -153 -68 0 -3 6 -13 13 -22 11 -15 27
-11 162 44 83 33 151 61 152 62 5 4 -10 46 -16 45 -3 0 -75 -28 -158 -61z"/>
<path d="M13048 4048 c-82 -33 -148 -65 -148 -72 1 -38 17 -36 165 24 81 33
150 62 152 64 7 6 -7 46 -15 45 -4 0 -73 -28 -154 -61z"/>
<path d="M6782 3888 c-7 -7 -12 -15 -12 -19 0 -3 79 -55 176 -114 139 -85 178
-105 185 -94 5 8 9 19 9 24 0 9 -295 196 -331 210 -8 3 -20 0 -27 -7z"/>
<path d="M15571 3882 c-8 -15 14 -32 164 -125 95 -59 176 -107 179 -107 3 0
10 9 16 19 9 18 -7 30 -160 125 -94 58 -174 106 -180 106 -5 0 -14 -8 -19 -18z"/>
<path d="M6320 3665 l0 -175 25 0 25 0 0 175 0 175 -25 0 -25 0 0 -175z"/>
<path d="M15110 3665 l0 -175 25 0 25 0 0 175 0 175 -25 0 -25 0 0 -175z"/>
<path d="M3830 3531 c0 -93 -3 -176 -6 -185 -5 -12 0 -16 19 -16 14 0 28 7 31
16 3 9 6 92 6 185 l0 169 -25 0 -25 0 0 -169z"/>
<path d="M12626 3623 c-3 -42 -6 -125 -6 -185 l0 -108 25 0 25 0 0 108 c0 60
3 143 6 185 l7 77 -25 0 c-24 0 -25 -3 -32 -77z"/>
<path d="M775 3629 c-4 -11 -5 -22 -3 -23 1 -1 86 -24 188 -50 102 -26 192
-49 201 -52 12 -3 18 3 21 21 5 22 1 26 -31 34 -155 41 -357 91 -363 91 -3 0
-10 -9 -13 -21z"/>
<path d="M1616 3638 c-5 -15 -26 -347 -26 -401 0 -34 3 -38 23 -35 21 3 22 9
34 163 6 88 12 188 12 223 1 56 -1 62 -19 62 -11 0 -22 -6 -24 -12z"/>
<path d="M9570 3627 c0 -22 11 -27 188 -72 103 -26 192 -50 199 -52 11 -4 29
34 20 43 -6 6 -377 104 -394 104 -7 0 -13 -11 -13 -23z"/>
<path d="M10410 3648 c-4 -32 -30 -401 -30 -420 0 -23 4 -28 25 -28 21 0 25 5
25 28 0 28 15 245 25 360 5 61 5 62 -20 62 -14 0 -25 -1 -25 -2z"/>
<path d="M7795 3578 c-14 -42 -66 -332 -61 -344 3 -8 14 -14 24 -14 15 0 23
25 51 173 19 94 34 176 35 182 2 15 -44 18 -49 3z"/>
<path d="M16590 3587 c0 -2 -16 -81 -35 -176 -19 -95 -32 -177 -29 -182 3 -5
13 -9 23 -9 15 0 23 27 54 178 19 97 33 180 30 185 -4 7 -43 10 -43 4z"/>
<path d="M4269 3564 c-11 -13 5 -32 111 -139 118 -118 125 -124 142 -108 18
16 13 22 -104 140 -67 68 -126 123 -129 123 -4 0 -12 -7 -20 -16z"/>
<path d="M13069 3564 c-11 -13 5 -32 111 -139 95 -96 127 -122 137 -113 7 6
13 15 13 22 0 11 -230 246 -241 246 -4 0 -12 -7 -20 -16z"/>
<path d="M0 3487 c0 -29 8 -42 44 -74 68 -60 253 -188 466 -323 297 -188 362
-234 473 -329 206 -178 282 -300 358 -578 46 -167 76 -231 155 -326 96 -116
224 -210 544 -399 290 -172 383 -246 505 -403 144 -185 222 -373 243 -585 7
-69 17 -100 49 -165 50 -99 116 -188 189 -254 47 -44 61 -51 96 -51 l40 0 -63
52 c-34 29 -86 81 -115 116 -69 84 -144 231 -144 281 0 64 -29 198 -65 299
-85 237 -267 466 -492 619 -48 33 -160 102 -248 153 -350 203 -508 337 -585
495 -16 33 -43 112 -60 175 -78 292 -158 422 -376 610 -113 98 -184 147 -474
330 -236 149 -404 267 -482 339 l-58 53 0 -35z"/>
<path d="M4900 3285 l0 -175 25 0 25 0 0 175 0 175 -25 0 -25 0 0 -175z"/>
<path d="M13690 3285 l0 -175 25 0 25 0 0 175 0 175 -25 0 -25 0 0 -175z"/>
<path d="M7031 3195 c-67 -75 -121 -139 -121 -144 0 -5 7 -15 16 -22 13 -11
18 -10 32 8 10 12 63 73 120 136 56 63 102 119 102 125 0 5 -6 15 -14 21 -11
9 -37 -15 -135 -124z"/>
<path d="M15839 3213 c-145 -163 -143 -161 -129 -178 7 -8 16 -15 19 -15 6 0
155 164 228 250 22 26 22 28 4 44 -17 15 -23 10 -122 -101z"/>
<path d="M2100 3175 l0 -25 211 0 210 0 -3 23 c-3 22 -4 22 -210 25 l-208 2 0
-25z"/>
<path d="M10897 3194 c-4 -4 -7 -16 -7 -26 0 -17 13 -18 211 -18 l210 0 -3 23
c-3 22 -4 22 -204 25 -110 1 -203 -1 -207 -4z"/>
<path d="M0 3021 c0 -25 9 -37 53 -70 82 -62 224 -143 452 -258 204 -103 213
-108 296 -192 145 -145 246 -315 492 -831 92 -193 148 -247 382 -370 275 -144
465 -304 601 -506 72 -109 110 -194 139 -319 29 -121 88 -276 148 -390 39 -72
46 -80 75 -83 l32 -3 -36 61 c-73 125 -138 288 -174 440 -11 47 -25 87 -30 88
-6 2 -7 8 -4 13 9 15 -50 133 -114 229 -31 47 -102 130 -157 185 -153 154
-232 209 -557 385 -49 27 -105 68 -139 102 -60 61 -57 55 -241 438 -154 319
-265 489 -408 623 -72 68 -98 84 -302 186 -217 108 -364 194 -460 267 l-48 36
0 -31z"/>
<path d="M2740 2806 c-17 -89 -34 -171 -36 -182 -4 -17 0 -22 20 -26 14 -3 26
-4 26 -3 0 1 16 80 35 175 19 95 35 177 35 181 0 3 -11 9 -24 11 -23 5 -24 1
-56 -156z"/>
<path d="M11565 2957 c-2 -7 -19 -89 -38 -184 l-34 -171 24 -5 c18 -3 25 1 28
17 13 53 65 320 65 331 0 17 -40 27 -45 12z"/>
<path d="M3537 2954 c-18 -18 -2 -65 56 -168 115 -205 298 -359 612 -512 84
-41 218 -96 303 -124 324 -106 394 -165 637 -535 225 -342 327 -437 562 -524
167 -61 233 -128 349 -352 43 -85 82 -164 85 -175 13 -42 166 -340 233 -452
62 -104 69 -112 98 -112 l30 0 -18 28 c-59 89 -147 248 -215 387 -44 88 -83
165 -89 172 -5 7 -10 17 -10 23 0 19 -107 233 -148 295 -46 71 -121 147 -177
180 -22 13 -74 36 -115 50 -155 55 -269 136 -372 264 -34 42 -116 159 -184
261 -242 366 -318 429 -654 540 -295 97 -582 259 -740 419 -65 66 -99 112
-147 196 -73 129 -86 149 -96 139z"/>
<path d="M12327 2954 c-17 -18 -3 -58 59 -168 77 -137 142 -211 268 -305 205
-153 397 -249 691 -345 269 -89 358 -167 590 -516 225 -339 323 -432 556 -525
227 -91 245 -114 518 -689 34 -71 98 -191 143 -267 74 -126 85 -139 110 -139
15 0 28 1 28 3 0 2 -36 64 -81 138 -45 74 -115 204 -156 289 -42 85 -80 157
-84 158 -5 2 -7 8 -4 13 9 14 -131 281 -183 350 -59 80 -141 140 -245 179
-156 60 -215 97 -318 199 -78 78 -123 137 -242 317 -242 365 -347 456 -622
539 -303 91 -662 294 -811 458 -27 29 -78 104 -114 167 -72 127 -92 155 -103
144z"/>
<path d="M4170 2901 c0 -11 4 -22 8 -25 5 -3 96 -6 203 -7 187 -1 194 -1 197
18 4 29 -19 33 -225 33 -175 0 -183 -1 -183 -19z"/>
<path d="M12967 2899 c-3 -11 0 -22 6 -24 7 -2 99 -6 205 -7 191 -3 192 -3
192 18 0 12 -7 25 -16 28 -9 3 -98 6 -199 6 -176 0 -183 -1 -188 -21z"/>
<path d="M7741 2870 c-102 -8 -186 -19 -188 -25 -1 -5 1 -16 6 -24 8 -12 34
-12 178 -2 92 7 176 15 186 17 17 5 24 39 10 46 -5 2 -91 -3 -192 -12z"/>
<path d="M16533 2872 c-181 -15 -183 -16 -183 -39 0 -28 4 -28 200 -12 178 14
180 14 180 44 0 14 -3 24 -7 24 -5 -1 -90 -9 -190 -17z"/>
<path d="M5257 2818 c-4 -12 -5 -24 -3 -26 12 -11 311 -130 317 -126 5 3 9 13
9 24 0 13 -20 26 -72 48 -40 17 -111 47 -158 66 -46 20 -85 36 -86 36 -1 0 -4
-10 -7 -22z"/>
<path d="M14049 2819 c-6 -12 -9 -22 -7 -24 7 -8 320 -136 323 -133 1 2 5 12
9 24 6 18 -1 24 -46 42 -29 11 -101 41 -160 66 -105 44 -108 45 -119 25z"/>
<path d="M1767 2809 c-4 -13 -5 -25 -3 -27 2 -1 101 -30 220 -64 215 -60 248
-64 234 -26 -3 8 -96 39 -214 72 -115 33 -214 61 -220 63 -6 2 -14 -6 -17 -18z"/>
<path d="M10558 2807 c-5 -24 0 -26 208 -86 117 -34 220 -61 229 -61 9 0 15 9
15 23 0 20 -16 27 -213 81 -116 33 -217 61 -223 63 -6 2 -14 -7 -16 -20z"/>
<path d="M0 2712 c0 -27 8 -35 78 -75 42 -25 117 -65 167 -88 50 -23 117 -54
150 -70 189 -89 420 -384 565 -723 28 -65 60 -137 72 -160 74 -145 277 -380
425 -493 41 -30 127 -83 192 -117 138 -73 194 -116 258 -200 99 -131 137 -243
183 -536 34 -222 41 -244 71 -248 l27 -3 -23 113 c-13 62 -31 165 -40 228 -16
114 -39 217 -54 248 -5 10 -24 51 -43 92 -73 156 -182 265 -337 341 -137 66
-228 134 -356 263 -163 164 -249 291 -324 481 -91 229 -298 535 -443 657 -83
70 -112 87 -231 139 -97 43 -245 121 -314 167 -22 14 -23 13 -23 -16z"/>
<path d="M4927 2723 c-10 -3 -17 -10 -14 -16 88 -239 123 -327 127 -327 4 0
13 6 22 13 15 11 10 28 -44 175 -34 89 -64 161 -67 161 -3 -1 -14 -3 -24 -6z"/>
<path d="M13723 2723 c-20 -8 -15 -29 46 -188 49 -128 60 -149 77 -147 10 2
21 6 23 8 7 6 -115 328 -125 330 -5 1 -15 0 -21 -3z"/>
<path d="M8249 2682 c-13 -6 -9 -26 30 -149 36 -117 48 -143 63 -143 10 0 21
6 23 13 6 15 -79 280 -91 283 -5 2 -16 -1 -25 -4z"/>
<path d="M17041 2681 c-11 -7 -6 -34 30 -146 42 -133 58 -160 82 -136 8 8 -1
47 -34 151 -24 77 -48 140 -54 140 -5 0 -16 -4 -24 -9z"/>
<path d="M12327 2483 c-19 -19 1 -59 78 -155 169 -211 342 -341 552 -412 39
-13 129 -36 199 -51 158 -33 220 -60 283 -123 58 -58 95 -128 162 -305 87
-230 164 -353 277 -443 53 -42 105 -70 382 -202 155 -74 202 -125 274 -297 21
-49 81 -181 134 -293 90 -191 97 -202 123 -202 l28 0 -71 147 c-39 82 -99 213
-134 293 -35 79 -68 146 -74 148 -5 2 -8 8 -5 13 6 9 -14 44 -58 101 -46 58
-130 111 -295 183 -325 143 -404 228 -533 567 -70 186 -106 254 -171 320 -71
73 -145 108 -293 138 -231 46 -379 110 -523 226 -85 68 -198 189 -275 295 -43
59 -48 64 -60 52z"/>
<path d="M8784 2238 c-30 -189 -30 -193 -11 -201 11 -4 22 -5 25 -2 6 6 61
337 61 373 1 17 -5 22 -22 22 -23 0 -24 -7 -53 -192z"/>
<path d="M17605 2418 c-2 -7 -16 -93 -31 -191 -23 -151 -25 -180 -13 -188 8
-5 19 -7 24 -6 6 2 22 80 37 173 15 93 29 181 32 197 5 24 2 27 -20 27 -13 0
-26 -6 -29 -12z"/>
<path d="M7370 2399 c-10 -17 -8 -23 7 -34 10 -7 72 -54 138 -103 106 -80 121
-89 133 -74 6 9 12 19 12 22 0 6 -230 181 -266 203 -8 5 -17 0 -24 -14z"/>
<path d="M16165 2400 c-16 -18 -11 -23 120 -121 108 -82 140 -101 153 -93 9 6
17 15 18 20 1 5 -60 55 -136 111 -133 98 -139 101 -155 83z"/>
<path d="M6176 2312 c-2 -4 0 -68 4 -142 5 -74 9 -156 10 -182 0 -45 2 -48 26
-48 l26 0 -6 138 c-10 211 -15 242 -37 242 -10 0 -20 -3 -23 -8z"/>
<path d="M14975 2138 c4 -101 9 -186 12 -190 2 -5 13 -8 25 -8 20 0 20 2 13
183 -4 100 -9 185 -12 190 -2 4 -13 7 -25 7 -20 0 -20 -2 -13 -182z"/>
<path d="M3045 2284 c-77 -7 -152 -13 -167 -13 -23 -1 -28 -6 -28 -26 0 -17 5
-25 18 -25 33 0 365 30 368 33 2 2 1 13 -3 25 -3 15 -12 22 -27 21 -11 -1 -84
-8 -161 -15z"/>
<path d="M11840 2284 c-74 -7 -150 -13 -167 -13 -28 -1 -33 -5 -33 -26 0 -30
-9 -30 210 -10 91 8 168 15 173 15 4 0 7 11 7 25 0 29 11 29 -190 9z"/>
<path d="M2163 2223 c-78 -38 -142 -72 -143 -78 0 -5 4 -16 9 -24 8 -12 35 -3
153 53 79 38 147 72 151 76 10 9 -2 40 -17 40 -6 0 -75 -30 -153 -67z"/>
<path d="M10952 2220 c-133 -64 -142 -71 -132 -90 6 -11 12 -20 14 -20 2 0 70
31 151 70 115 55 146 73 141 86 -3 9 -6 18 -6 20 0 12 -38 -3 -168 -66z"/>
<path d="M5685 2083 c-99 -46 -183 -88 -188 -92 -4 -4 -1 -15 6 -25 12 -17 25
-13 198 69 101 47 185 87 186 88 1 1 -4 12 -10 23 -12 21 -16 20 -192 -63z"/>
<path d="M14473 2081 c-101 -47 -183 -90 -183 -96 0 -5 4 -16 9 -24 7 -11 46
3 195 74 102 49 186 91 186 95 0 3 -6 13 -12 22 -12 14 -34 6 -195 -71z"/>
<path d="M2664 2057 c-20 -12 -19 -15 55 -194 42 -101 81 -183 86 -183 6 0 16
4 24 9 11 7 -1 45 -64 195 -43 102 -78 186 -79 186 0 -1 -10 -6 -22 -13z"/>
<path d="M8168 1996 c-109 -39 -198 -75 -198 -81 0 -5 4 -16 9 -24 7 -11 45 0
197 54 104 37 195 70 202 72 6 3 12 8 12 12 0 4 -6 14 -12 23 -12 13 -36 7
-210 -56z"/>
<path d="M11456 2057 c-17 -12 -14 -24 56 -193 72 -173 98 -212 114 -171 5 13
-128 351 -145 370 -4 4 -15 1 -25 -6z"/>
<path d="M16965 1996 c-175 -63 -200 -74 -197 -91 2 -11 6 -22 8 -24 4 -4 373
126 393 138 7 5 9 15 4 28 -8 20 -14 19 -208 -51z"/>
<path d="M370 1845 c0 -14 6 -25 13 -25 6 0 91 -11 187 -24 131 -18 177 -21
182 -13 8 12 11 37 5 37 -2 0 -84 11 -183 25 -98 14 -185 25 -191 25 -7 0 -13
-11 -13 -25z"/>
<path d="M3704 1862 c-14 -9 104 -352 120 -352 38 1 36 17 -22 186 -57 162
-71 185 -98 166z"/>
<path d="M9167 1863 c-4 -3 -7 -14 -7 -23 0 -15 28 -21 187 -43 103 -14 191
-23 195 -21 4 3 8 14 8 24 0 22 5 20 -215 50 -171 23 -160 22 -168 13z"/>
<path d="M12495 1860 c-10 -15 105 -341 122 -347 8 -3 19 -1 25 5 16 16 -101
346 -124 350 -9 2 -19 -2 -23 -8z"/>
<path d="M6650 1787 c0 -2 -14 -71 -30 -152 -17 -82 -29 -149 -28 -150 2 -2
12 -5 24 -9 20 -6 23 2 52 146 16 84 28 156 25 161 -4 7 -43 10 -43 4z"/>
<path d="M15416 1653 c-15 -76 -29 -145 -32 -154 -3 -11 3 -19 18 -22 12 -4
24 -4 26 -2 6 5 61 274 62 298 0 11 -8 17 -24 17 -22 0 -25 -7 -50 -137z"/>
<path d="M8766 1659 c-3 -17 -6 -98 -6 -180 0 -141 1 -149 19 -149 11 0 22 3
25 8 2 4 6 84 7 177 3 165 2 170 -18 173 -16 2 -22 -4 -27 -29z"/>
<path d="M17557 1583 c-4 -58 -7 -139 -7 -180 0 -71 1 -73 25 -73 24 0 25 2
25 73 0 41 3 122 7 180 l6 107 -25 0 c-25 0 -25 -1 -31 -107z"/>
<path d="M4380 1410 l0 -181 23 3 c22 3 22 4 22 178 0 174 0 175 -22 178 l-23
3 0 -181z"/>
<path d="M13170 1410 l0 -180 25 0 25 0 0 180 0 180 -25 0 -25 0 0 -180z"/>
<path d="M598 1483 c-10 -3 -18 -10 -18 -17 0 -6 19 -70 43 -141 37 -109 47
-131 65 -133 15 -2 22 2 22 13 0 20 -80 268 -89 276 -3 3 -14 4 -23 2z"/>
<path d="M9388 1483 c-10 -2 -18 -7 -18 -10 0 -3 21 -70 46 -149 44 -133 48
-142 68 -134 11 4 20 12 20 17 -4 27 -88 283 -93 282 -3 -1 -14 -3 -23 -6z"/>
<path d="M3228 1358 c-186 -66 -196 -71 -188 -92 4 -11 14 -20 22 -18 16 3
382 133 386 137 6 5 -9 45 -16 44 -4 0 -96 -32 -204 -71z"/>
<path d="M12027 1360 c-104 -37 -191 -70 -194 -73 -7 -8 7 -49 16 -45 4 2 94
34 200 72 169 61 192 71 189 89 -2 11 -7 22 -13 23 -5 2 -95 -28 -198 -66z"/>
<path d="M5984 1405 c-3 -8 -4 -20 -2 -26 5 -16 321 -129 331 -119 20 18 0 44
-48 61 -27 9 -101 35 -163 58 -92 33 -114 38 -118 26z"/>
<path d="M14775 1400 c-4 -12 -5 -24 -2 -27 3 -2 77 -31 164 -63 141 -51 159
-56 171 -42 6 9 12 19 12 23 0 3 -69 31 -152 62 -84 30 -160 58 -170 62 -11 4
-18 0 -23 -15z"/>
<path d="M6818 1213 c-10 -3 -18 -9 -18 -14 0 -5 41 -107 91 -228 86 -205 93
-219 113 -211 11 4 20 14 18 21 -7 26 -173 424 -180 430 -4 3 -15 4 -24 2z"/>
<path d="M15607 1208 c-15 -12 -8 -34 74 -228 49 -118 93 -218 97 -222 5 -5
16 -2 25 4 16 12 10 31 -75 236 -51 122 -95 222 -98 222 -4 0 -14 -6 -23 -12z"/>
<path d="M16406 890 c-59 -77 -109 -146 -112 -154 -6 -16 24 -43 35 -30 6 7
160 210 213 280 5 6 0 18 -10 28 -18 15 -24 9 -126 -124z"/>
<path d="M7601 874 c-109 -143 -111 -147 -91 -161 12 -8 22 -13 24 -12 1 2 52
70 114 150 82 109 108 149 99 158 -6 6 -16 11 -23 11 -6 0 -62 -66 -123 -146z"/>
<path d="M1265 894 c-88 -51 -160 -98 -159 -104 3 -26 5 -30 16 -30 14 0 328
182 328 190 0 3 -6 13 -12 22 -12 15 -31 6 -173 -78z"/>
<path d="M3880 941 c-150 -40 -175 -50 -175 -66 0 -11 7 -21 15 -22 8 -2 96
18 195 44 162 43 180 50 183 71 5 31 -11 29 -218 -27z"/>
<path d="M10053 892 c-142 -84 -161 -98 -152 -114 5 -10 14 -18 19 -18 15 0
320 181 320 190 0 15 -12 40 -19 39 -3 0 -79 -44 -168 -97z"/>
<path d="M12670 940 c-103 -27 -175 -52 -174 -58 2 -28 5 -32 18 -32 12 0 335
82 373 95 20 7 3 45 -21 44 -11 -1 -100 -23 -196 -49z"/>
<path d="M4647 924 c-4 -4 -7 -15 -7 -24 0 -13 41 -35 158 -83 152 -64 157
-65 165 -45 4 12 4 24 0 28 -6 5 -222 97 -299 127 -5 2 -13 0 -17 -3z"/>
<path d="M13434 908 c-4 -12 -3 -24 2 -25 5 -2 77 -33 159 -68 142 -60 150
-62 159 -44 6 12 6 23 0 28 -9 8 -298 131 -308 131 -2 0 -8 -10 -12 -22z"/>
<path d="M277 889 c-4 -13 -5 -25 -3 -27 2 -2 82 -28 177 -57 173 -54 188 -55
189 -18 0 12 -14 17 -215 79 -66 20 -125 39 -131 41 -6 2 -14 -6 -17 -18z"/>
<path d="M9071 887 c-5 -12 -8 -23 -7 -24 1 -2 76 -25 167 -53 90 -28 170 -52
177 -55 10 -4 35 34 28 42 -1 2 -76 25 -167 53 -90 28 -170 52 -177 55 -7 3
-17 -5 -21 -18z"/>
<path d="M0 684 c0 -32 7 -77 15 -99 132 -372 179 -496 202 -534 25 -40 34
-46 68 -49 l38 -3 -33 37 c-18 21 -41 57 -52 81 -16 37 -151 407 -165 456 -3
9 -10 17 -15 17 -5 0 -7 4 -4 9 5 7 -38 128 -50 140 -2 2 -4 -22 -4 -55z"/>
<path d="M4055 390 c-58 -77 -108 -147 -111 -154 -3 -8 3 -19 13 -25 17 -9 33
8 129 136 60 80 110 150 112 154 2 4 -6 13 -17 18 -18 10 -30 -2 -126 -129z"/>
<path d="M12840 380 c-62 -83 -111 -152 -109 -153 2 -1 11 -8 20 -15 14 -11
30 6 120 125 57 76 108 143 112 151 8 13 -8 42 -23 42 -3 0 -58 -68 -120 -150z"/>
<path d="M4598 513 c-10 -3 -18 -10 -18 -17 0 -14 158 -396 170 -409 3 -4 14
-1 25 6 17 13 14 24 -65 213 -46 109 -86 202 -89 205 -3 3 -14 4 -23 2z"/>
<path d="M13386 507 c-16 -12 -11 -28 70 -219 81 -193 88 -206 108 -198 11 4
20 14 18 21 -6 23 -163 394 -171 402 -4 4 -15 1 -25 -6z"/>
<path d="M657 258 c-97 -179 -102 -197 -61 -198 11 0 194 331 194 350 0 5 -8
14 -18 19 -15 8 -30 -13 -115 -171z"/>
<path d="M1196 418 c-4 -12 -26 -334 -26 -365 0 -7 11 -13 24 -13 26 0 28 13
42 273 7 116 7 117 -15 117 -12 0 -23 -6 -25 -12z"/>
<path d="M9451 261 c-50 -93 -91 -173 -91 -179 0 -13 31 -25 41 -15 4 4 48 84
98 177 90 167 95 185 54 186 -6 0 -52 -76 -102 -169z"/>
<path d="M9986 383 c-3 -27 -8 -88 -11 -138 -3 -50 -8 -116 -11 -147 -6 -57
-6 -58 20 -58 14 0 26 3 26 8 0 4 7 88 14 187 8 99 12 183 9 188 -2 4 -12 7
-23 7 -14 0 -19 -10 -24 -47z"/>
<path d="M7181 219 c-93 -181 -98 -198 -55 -199 6 0 52 81 103 179 87 170 91
180 72 190 -11 6 -21 11 -23 11 -2 0 -45 -82 -97 -181z"/>
<path d="M16037 337 c-19 -34 -62 -117 -95 -184 -61 -121 -63 -133 -22 -133 7
0 190 341 190 354 0 3 -9 10 -19 16 -17 9 -24 2 -54 -53z"/>
<path d="M7845 350 c-4 -6 11 -87 32 -180 37 -166 38 -170 64 -170 l26 0 -41
180 c-33 148 -43 180 -58 180 -9 0 -20 -5 -23 -10z"/>
<path d="M16636 352 c-2 -4 12 -84 33 -177 37 -168 38 -170 65 -173 23 -3 27
0 22 15 -5 18 -76 333 -76 340 0 7 -39 3 -44 -5z"/>
<path d="M1630 295 c-10 -12 7 -38 95 -149 58 -75 111 -138 117 -142 5 -3 17
0 25 9 13 13 3 30 -97 156 -61 77 -115 141 -120 141 -4 0 -13 -7 -20 -15z"/>
<path d="M10421 297 c-9 -11 13 -45 100 -155 61 -78 114 -142 119 -142 4 0 13
7 20 15 10 12 -7 38 -96 154 -60 77 -114 140 -120 141 -6 0 -17 -6 -23 -13z"/>
</g>
</svg>
