<?xml version="1.0" standalone="no"?>
<!DOCTYPE svg PUBLIC "-//W3C//DTD SVG 20010904//EN"
 "http://www.w3.org/TR/2001/REC-SVG-20010904/DTD/svg10.dtd">
<svg version="1.0" xmlns="http://www.w3.org/2000/svg"
 width="1125.000000pt" height="900.000000pt" viewBox="0 0 1125.000000 900.000000"
 preserveAspectRatio="xMidYMid meet">
<metadata>
Created by potrace 1.13, written by Peter Selinger 2001-2015
</metadata>
<g transform="translate(0.000000,900.000000) scale(0.100000,-0.100000)"
fill="#000000" stroke="none">
<path d="M0 4500 l0 -4500 5625 0 5625 0 0 4500 0 4500 -5625 0 -5625 0 0
-4500z m900 4452 c0 -17 -52 -297 -56 -301 -5 -5 -268 57 -529 125 -302 79
-275 67 -275 123 0 26 3 51 7 54 9 10 853 9 853 -1z m2213 1 c6 -9 -28 -672
-34 -677 -7 -5 -589 71 -874 114 -427 66 -1274 225 -1292 244 -4 4 43 289 52
314 3 9 227 12 1074 12 588 0 1072 -3 1074 -7z m907 -17 c302 -20 805 -44
1075 -51 121 -3 239 -8 261 -11 l42 -5 6 -202 c3 -111 7 -278 8 -372 l3 -170
-135 3 c-410 9 -910 34 -1355 67 -239 18 -721 63 -752 70 -20 5 -23 12 -23 60
0 86 30 608 35 624 5 12 53 13 308 8 166 -4 403 -13 527 -21z m2140 3 l0 -21
-287 6 c-437 11 -856 26 -861 31 -3 3 254 5 571 5 l577 0 0 -21z m1965 12 c3
-5 0 -13 -7 -18 -7 -4 -433 -9 -947 -11 -951 -4 -966 -4 -945 30 7 12 1891 10
1899 -1z m3083 -218 l2 -221 -27 -6 c-146 -30 -1204 -163 -1684 -211 l-65 -7
-33 254 c-17 139 -35 279 -38 310 l-6 56 44 6 c37 4 520 31 729 39 36 2 292 3
570 3 l505 -1 3 -222z m-1914 150 c10 -53 77 -595 74 -598 -5 -5 -511 -50
-833 -75 -240 -18 -522 -35 -890 -56 l-120 -6 -29 333 c-15 184 -29 343 -30
354 -1 20 7 20 354 27 375 6 973 25 1225 37 263 13 243 15 249 -16z m-2492
-28 l596 0 6 -50 c19 -164 57 -648 51 -653 -13 -13 -331 -21 -1146 -28 l-827
-7 -6 209 c-3 115 -8 285 -10 377 l-5 168 372 -8 c205 -4 640 -7 969 -8z
m-6440 -155 c385 -97 552 -136 918 -210 l285 -57 -3 -29 c-2 -16 -26 -175 -53
-353 -27 -179 -49 -328 -49 -332 0 -26 -865 202 -1230 324 l-185 62 -3 338
c-1 185 0 337 2 337 3 0 146 -36 318 -80z m10848 -425 l0 -165 -27 -7 c-16 -4
-55 -8 -88 -8 -33 0 -64 -5 -70 -11 -9 -11 -393 -80 -399 -73 -10 12 -75 334
-69 339 4 4 136 24 293 45 157 21 287 39 289 41 2 2 19 4 38 4 l33 0 0 -165z
m-9367 110 c553 -94 1129 -168 1832 -233 l80 -7 -2 -45 c-10 -178 -45 -706
-48 -708 -2 -2 -74 4 -162 12 -87 9 -187 18 -223 20 -215 13 -936 112 -1313
180 -270 50 -476 91 -482 98 -4 3 88 641 100 696 3 12 8 22 10 22 3 0 97 -16
208 -35z m8682 -216 c20 -93 36 -171 34 -173 -4 -3 -485 -81 -904 -146 -310
-48 -1080 -160 -1104 -160 -14 0 -23 36 -55 221 -20 121 -35 223 -33 226 3 3
114 13 246 24 484 38 1298 121 1601 163 52 8 113 14 136 15 l41 1 38 -171z
m-6499 -44 c506 -37 1049 -59 1795 -71 l416 -7 15 -311 c8 -171 14 -313 12
-315 -3 -4 -359 -34 -659 -56 -303 -22 -883 -30 -1205 -16 -255 11 -622 32
-627 36 -6 4 46 755 52 755 1 0 92 -7 201 -15z m4406 -205 c21 -118 37 -222
35 -230 -3 -16 6 -15 -622 -95 -382 -48 -963 -116 -1100 -129 -27 -2 -130 -12
-227 -22 -98 -10 -180 -15 -183 -12 -9 8 -38 608 -30 616 4 4 187 10 408 14
483 8 1529 54 1632 72 48 8 48 10 87 -214z m-8187 51 c99 -31 233 -73 297 -91
65 -19 115 -37 110 -41 -10 -10 -567 -139 -599 -139 -10 0 -13 33 -13 165 0
125 3 165 13 165 6 0 93 -27 192 -59z m10939 30 l26 -11 0 -300 c0 -279 -1
-300 -17 -300 -60 0 -1450 376 -1476 399 -4 4 46 15 110 25 147 21 1135 186
1183 197 42 9 136 4 174 -10z m-10119 -261 c264 -65 481 -112 740 -161 94 -18
173 -35 178 -39 12 -11 -1019 -249 -1080 -250 -19 0 -30 25 -103 246 -45 135
-80 247 -79 248 13 11 67 24 84 20 11 -2 128 -31 260 -64z m-328 -217 c46
-136 81 -248 79 -250 -7 -8 -735 -143 -768 -143 -4 0 -8 112 -8 249 0 229 1
250 18 255 9 2 109 25 222 51 113 25 239 54 280 64 41 11 80 19 85 20 6 1 47
-110 92 -246z m8948 208 c71 -21 130 -42 132 -48 4 -10 -194 -554 -206 -566
-10 -10 -298 81 -653 207 -313 111 -670 245 -681 255 -4 5 83 20 195 35 271
37 1020 146 1033 151 24 9 57 2 180 -34z m378 -110 c266 -77 630 -174 877
-235 124 -31 235 -61 248 -66 l22 -10 0 -305 0 -305 -22 0 c-32 0 -397 82
-673 152 -265 66 -826 225 -836 236 -5 6 201 582 209 582 2 0 81 -22 175 -49z
m-1862 -82 c170 -70 676 -255 969 -354 474 -160 830 -266 1269 -379 117 -30
215 -57 217 -58 5 -5 -132 -628 -140 -635 -8 -8 -151 24 -481 107 -1038 263
-2000 610 -2969 1071 -213 102 -236 115 -210 121 16 4 173 23 349 43 243 28
869 105 916 114 3 0 39 -13 80 -30z m-5866 -53 c266 -41 571 -83 674 -92 40
-4 73 -10 76 -13 10 -17 -2930 -591 -3026 -591 -19 0 -19 7 -17 137 l3 138
215 37 c497 87 1051 203 1541 324 251 61 266 67 261 86 -4 18 -2 20 19 15 13
-3 128 -22 254 -41z m4609 -205 c136 -66 252 -121 257 -123 7 -2 -339 -727
-357 -747 -10 -11 -546 200 -814 321 -332 150 -686 345 -885 486 l-80 57 155
7 c389 17 1102 74 1466 117 6 0 122 -53 258 -118z m-3354 54 c91 -7 221 -17
290 -21 69 -3 131 -10 138 -13 22 -12 -617 -270 -1098 -444 -395 -143 -1082
-367 -1124 -367 -9 0 -30 52 -60 148 -26 81 -64 197 -84 259 -20 62 -34 114
-32 116 3 2 381 79 840 171 459 93 837 170 840 173 3 3 32 2 65 -1 33 -4 134
-13 225 -21z m1008 -54 l297 -6 -80 -57 c-198 -140 -565 -342 -889 -488 -235
-106 -499 -211 -507 -203 -9 10 -178 377 -175 380 2 2 103 43 227 91 123 49
315 126 426 173 192 80 202 85 196 108 l-6 23 107 -7 c58 -4 240 -10 404 -14z
m421 -49 c240 -188 758 -468 1228 -663 41 -17 73 -33 71 -35 -5 -5 -345 -73
-448 -90 -358 -58 -766 -79 -1030 -54 l-132 13 5 41 c3 22 22 186 43 363 l38
322 83 56 c46 31 85 61 89 66 8 13 13 12 53 -19z m2473 -206 c618 -271 1287
-516 1913 -699 120 -36 221 -69 223 -75 3 -10 -113 -524 -126 -553 -6 -15 -43
-9 -332 56 -557 124 -1041 248 -1490 380 -317 94 -770 244 -770 256 0 17 353
729 361 729 4 0 104 -42 221 -94z m-2807 -285 c-19 -161 -35 -300 -35 -309 0
-12 -9 -13 -52 -8 -124 17 -392 96 -608 179 l-104 40 34 15 c118 51 556 275
665 340 116 70 130 76 133 57 1 -11 -13 -152 -33 -314z m-3046 -6 c46 -146 82
-267 80 -269 -14 -14 -698 -194 -1029 -271 -227 -53 -612 -135 -635 -135 -13
0 -15 39 -15 330 l0 330 23 4 c12 3 211 39 442 81 231 42 555 102 720 135 165
32 307 59 315 59 11 1 37 -69 99 -264z m1634 -47 c48 -105 86 -192 85 -194 -8
-6 -423 -152 -608 -212 -369 -121 -523 -165 -540 -154 -11 6 -25 2 -51 -15
-46 -30 -174 -67 -694 -198 -443 -111 -801 -192 -810 -183 -5 5 -65 339 -65
364 0 6 53 23 118 38 368 86 879 224 1297 351 248 76 836 274 1020 344 72 27
137 50 146 50 10 1 42 -58 102 -191z m7680 -4 c117 -25 222 -49 235 -54 l22
-10 0 -325 0 -326 -47 7 c-72 10 -573 111 -578 115 -3 3 98 484 130 617 3 12
10 22 16 22 6 0 106 -21 222 -46z m-6948 -154 c55 -20 132 -48 170 -60 39 -13
71 -24 73 -25 3 -3 101 -799 99 -802 -8 -8 -453 -45 -649 -54 -267 -13 -560
-3 -782 26 -117 16 -218 33 -221 38 -5 8 17 543 23 548 4 3 104 39 222 78 246
83 553 198 738 276 l127 53 50 -20 c27 -11 95 -37 150 -58z m2412 -31 c195
-77 422 -159 707 -254 265 -89 305 -104 275 -109 -19 -4 -164 -27 -324 -51
-159 -25 -422 -68 -584 -95 -162 -28 -295 -49 -296 -48 -5 5 -135 452 -135
464 0 6 17 14 38 17 20 4 84 16 140 28 l104 22 -4 28 c-3 16 -3 29 -2 29 2 0
38 -14 81 -31z m-1942 -114 c410 -92 854 -93 1393 -4 68 11 125 19 126 17 8
-12 134 -463 130 -467 -17 -17 -1698 -290 -1710 -278 -4 4 -94 726 -94 752 0
13 6 16 23 11 12 -3 72 -17 132 -31z m5535 -223 c330 -84 619 -148 950 -211
l245 -47 3 -254 c1 -139 -1 -257 -5 -261 -9 -8 -370 47 -798 122 -280 49 -835
155 -840 161 -2 2 27 130 63 286 62 263 68 283 87 279 11 -3 144 -36 295 -75z
m-7365 -84 c-3 -57 -7 -172 -10 -257 -3 -85 -6 -156 -8 -157 -6 -6 -247 56
-357 91 -63 21 -168 58 -233 83 l-118 45 113 73 c76 50 136 81 183 95 39 11
147 44 240 74 94 29 176 53 182 54 10 1 12 -24 8 -101z m5018 -2 c211 -63 517
-147 732 -201 83 -21 153 -41 157 -44 9 -8 -226 -91 -437 -157 -137 -42 -682
-183 -765 -198 l-35 -6 -61 285 -60 284 25 5 c15 3 77 13 139 22 106 16 112
18 112 40 0 13 2 24 5 24 3 0 88 -24 188 -54z m-7105 -173 c17 -103 29 -189
27 -191 -7 -8 -530 -110 -537 -106 -7 5 -12 384 -5 384 1 0 103 22 227 49 124
27 232 49 241 50 13 1 22 -33 47 -186z m6633 -148 c32 -148 58 -277 59 -286 0
-32 -786 -173 -1386 -249 -250 -31 -304 -35 -304 -22 0 4 -14 131 -30 282 -16
151 -28 275 -27 276 2 2 1148 198 1417 243 96 16 184 28 194 28 17 -2 26 -36
77 -272z m-5291 191 c-123 -83 -552 -311 -830 -441 -298 -140 -917 -399 -1005
-421 l-25 -6 2 228 3 229 305 62 c503 103 1215 270 1515 357 70 20 74 19 35
-8z m98 -160 c246 -97 499 -168 737 -206 187 -30 176 -27 171 -53 -3 -12 -10
-106 -17 -209 l-12 -188 -26 0 c-15 0 -121 11 -236 25 -495 59 -889 148 -1248
280 -123 46 -155 61 -147 68 3 2 93 49 200 104 107 56 247 131 310 167 63 36
119 66 123 66 5 0 70 -24 145 -54z m6977 -51 c132 -31 363 -81 513 -112 149
-31 269 -60 265 -63 -9 -8 -246 -77 -473 -139 -300 -82 -959 -241 -998 -241
-14 0 -26 40 -66 213 -27 116 -50 216 -50 220 -1 5 94 41 209 81 116 40 226
80 245 89 47 22 72 18 355 -48z m-3535 -2 c1 -5 14 -129 29 -278 16 -148 27
-272 25 -274 -14 -14 -688 -66 -1079 -82 -416 -18 -1448 1 -1473 26 -4 4 15
299 24 376 l5 45 77 -10 c136 -17 733 -12 952 7 338 31 900 108 1280 176 117
21 160 25 160 14z m2714 -350 c27 -117 47 -216 43 -219 -20 -20 -961 -196
-1432 -268 -165 -25 -310 -48 -322 -50 -13 -2 -23 -3 -24 -2 -2 3 -47 381 -46
382 1 1 88 16 192 34 449 75 997 194 1338 290 95 27 178 48 186 47 11 -2 29
-64 65 -214z m2091 93 c165 -30 380 -67 477 -82 98 -16 174 -32 170 -36 -11
-11 -1452 -422 -1458 -415 -4 6 -125 420 -122 421 2 1 88 26 192 55 104 30
234 69 290 87 56 18 112 30 126 28 14 -2 160 -28 325 -58z m-9012 -55 c126
-54 276 -105 441 -151 76 -22 141 -42 144 -45 5 -5 -67 -476 -74 -484 -10 -11
-477 82 -698 139 -257 66 -696 217 -696 239 0 5 21 16 48 26 79 30 521 220
622 268 52 25 101 46 108 46 7 1 54 -17 105 -38z m8078 -285 c34 -114 59 -209
57 -211 -7 -7 -513 -141 -923 -245 -544 -137 -1015 -244 -1024 -234 -14 15
-104 465 -95 473 5 5 101 25 214 45 456 84 1083 221 1500 329 113 30 206 53
207 52 2 -1 30 -95 64 -209z m1869 184 l25 -6 3 -209 c1 -115 -1 -206 -5 -202
-12 12 -161 422 -156 430 4 7 85 0 133 -13z m-98 -280 c54 -146 96 -270 94
-275 -7 -21 -965 -238 -1734 -394 -23 -5 -44 -5 -47 -1 -9 15 -125 454 -121
458 3 2 188 55 413 118 224 62 602 169 838 238 237 69 436 124 444 123 9 -1
51 -100 113 -267z m-4769 148 c12 -68 41 -348 36 -352 -6 -6 -524 -71 -799
-100 -483 -51 -1018 -90 -1380 -101 -102 -3 -213 -8 -247 -11 l-63 -5 0 199 0
200 31 6 c17 3 118 6 224 6 522 0 1579 88 2090 174 44 7 85 14 91 15 7 0 14
-14 17 -31z m-4340 7 c119 -27 471 -84 652 -104 296 -34 553 -51 868 -58 l297
-6 0 -205 0 -205 -452 6 c-476 6 -649 14 -1017 48 -228 20 -498 53 -507 61 -2
3 13 111 33 241 25 159 42 237 50 237 6 0 41 -7 76 -15z m-1408 -231 c83 -30
157 -58 166 -62 14 -6 6 -42 -62 -270 -42 -145 -79 -266 -82 -268 -6 -6 -518
164 -534 178 -18 15 -19 453 0 465 6 4 55 24 107 44 l95 36 80 -35 c44 -19
148 -59 230 -88z m6738 -287 c26 -127 48 -237 47 -244 0 -14 -52 -26 -515
-118 -561 -112 -1268 -227 -1284 -209 -8 9 -72 497 -71 540 0 19 8 22 78 28
286 25 1089 135 1467 200 105 18 199 34 210 35 18 1 24 -20 68 -232z m-6335
159 c408 -110 900 -192 1411 -234 l214 -17 -6 -294 c-4 -162 -9 -296 -11 -299
-10 -10 -443 40 -726 84 -234 36 -542 97 -775 154 -194 47 -415 106 -422 113
-3 3 136 483 152 526 3 7 12 10 20 7 9 -3 73 -21 143 -40z m8252 -68 c7 -24
34 -126 61 -227 28 -101 48 -186 45 -189 -17 -16 -1580 -292 -1590 -281 -2 2
-22 82 -43 177 -27 117 -37 175 -29 178 6 2 117 29 246 59 260 61 1098 273
1200 303 95 29 98 28 110 -20z m1990 -177 c0 -54 -2 -100 -5 -102 -2 -3 -129
7 -282 22 -153 16 -294 28 -313 29 -56 2 -18 14 225 71 121 28 252 59 290 69
39 9 73 15 78 13 4 -2 7 -48 7 -102z m-5797 47 c16 -66 68 -540 61 -547 -7 -7
-315 -46 -514 -66 -588 -58 -1084 -80 -1605 -72 -293 5 -701 22 -712 31 -4 3
15 588 20 592 2 2 114 -1 248 -7 640 -30 1792 12 2485 90 7 0 14 -9 17 -21z
m5048 -146 l35 -7 -104 -400 c-58 -220 -106 -402 -108 -404 -2 -3 -118 15
-257 38 -297 50 -1899 340 -1903 344 -2 2 121 25 274 51 568 98 1399 261 1812
355 129 29 189 35 251 23z m394 -37 c143 -13 281 -27 308 -31 l47 -6 -2 -426
-3 -427 -55 3 c-156 9 -778 89 -793 102 -4 3 33 164 83 356 122 466 118 454
138 454 9 0 134 -11 277 -25z m-10595 -54 c343 -116 719 -220 1050 -289 l135
-29 0 -46 c-2 -168 -6 -264 -13 -274 -17 -27 -847 83 -1277 170 l-110 22 -3
258 c-1 141 1 257 5 257 4 0 100 -31 213 -69z m7372 -166 c21 -92 36 -171 33
-174 -11 -10 -869 -130 -1314 -182 -139 -16 -185 -19 -191 -10 -9 16 -34 240
-27 247 3 4 106 24 229 45 249 44 833 161 1063 213 83 19 154 33 159 32 5 -1
27 -78 48 -171z m-1569 -138 c8 -21 31 -236 25 -242 -18 -18 -1519 -147 -1535
-132 -2 3 -6 49 -10 103 l-6 99 259 23 c292 26 802 89 1064 131 96 16 180 29
186 30 7 0 14 -5 17 -12z m-4320 -67 c318 -53 677 -95 1047 -120 80 -5 157
-10 171 -10 25 0 26 -4 42 -93 10 -51 17 -101 17 -110 0 -15 -17 -17 -177 -17
-295 0 -754 21 -1250 56 l-93 7 0 57 c0 31 3 105 7 164 l6 107 26 -6 c14 -3
106 -19 204 -35z m6835 -115 c350 -63 649 -118 665 -121 l27 -6 0 -196 c0
-108 -3 -227 -7 -264 l-6 -68 -141 0 c-168 0 -583 15 -826 30 -292 18 -804 70
-817 84 -4 4 96 598 102 604 5 6 289 50 328 51 21 0 325 -51 675 -114z m-1072
38 c-3 -10 -26 -142 -52 -293 -26 -151 -48 -276 -49 -278 -8 -10 -492 80 -755
139 -244 55 -800 201 -860 226 -8 3 82 16 200 29 391 42 820 96 1155 144 395
57 368 55 361 33z m-3032 -75 c3 -24 7 -69 10 -100 l4 -57 -41 -5 c-88 -11
-539 -27 -939 -33 l-417 -6 -5 24 c-3 13 -10 53 -16 89 -6 36 -13 74 -16 85
-5 20 1 20 543 21 301 1 604 6 673 11 216 17 198 20 204 -29z m-4159 -38 c116
-21 249 -44 297 -51 47 -6 91 -15 97 -18 6 -4 -4 -139 -30 -396 -21 -215 -39
-398 -39 -407 0 -19 32 -20 -368 7 -118 8 -218 17 -223 21 -5 3 -9 193 -9 451
l0 446 33 -7 c17 -4 126 -25 242 -46z m10027 -234 c161 -25 394 -57 518 -71
376 -42 345 -36 348 -67 3 -22 -2 -28 -20 -33 -28 -6 -378 -62 -433 -69 -22
-2 -141 -20 -265 -40 -124 -19 -334 -50 -467 -69 -229 -31 -242 -32 -246 -15
-5 17 -21 18 -226 18 l-221 0 0 183 c0 101 3 217 6 258 l7 74 353 -62 c194
-34 485 -83 646 -107z m-9257 120 c116 -14 307 -34 425 -45 195 -17 221 -21
280 -48 139 -64 542 -204 698 -243 36 -9 42 -14 42 -38 0 -15 7 -117 15 -227
8 -110 15 -203 15 -207 0 -22 -1835 14 -1857 35 -3 4 58 642 73 761 l6 49 47
-6 c25 -3 140 -17 256 -31z m4795 -70 c162 -46 356 -98 430 -116 74 -18 139
-36 143 -40 8 -7 -37 -568 -47 -577 -2 -2 -106 -7 -230 -10 -202 -5 -226 -4
-226 10 0 9 -8 18 -17 21 -26 7 -464 71 -698 101 -110 14 -218 28 -240 30 -22
3 -254 30 -515 60 -455 53 -964 115 -966 118 -2 3 46 360 48 362 2 1 156 8
343 14 518 18 1057 51 1480 91 105 9 192 18 195 19 3 0 138 -37 300 -83z
m-3545 -26 c121 -5 430 -10 688 -10 l467 0 0 -32 c-1 -43 -37 -318 -43 -324
-7 -7 -466 73 -638 111 -285 64 -619 163 -819 245 l-75 30 100 -5 c55 -3 199
-10 320 -15z m4371 -185 c407 -91 967 -175 1339 -200 50 -3 111 -8 138 -11
l47 -6 0 -93 0 -92 -67 -6 c-647 -60 -1666 -127 -1682 -112 -3 3 3 103 13 223
26 324 27 332 42 332 7 0 84 -16 170 -35z m4504 -165 c0 -55 -4 -90 -10 -90
-24 0 -332 124 -319 129 22 7 271 48 302 50 l27 1 0 -90z m-8459 44 c363 -83
688 -131 1624 -239 601 -69 1180 -143 1300 -165 69 -13 -414 -4 -610 11 -154
12 -424 10 -1784 -12 -359 -5 -654 -9 -656 -7 -2 2 -8 82 -14 178 -6 96 -14
196 -17 223 -3 26 -4 47 -2 47 2 0 74 -16 159 -36z m8219 -116 c118 -46 221
-87 229 -92 11 -7 12 -27 8 -90 -4 -70 -15 -107 -77 -266 -40 -102 -81 -208
-91 -236 l-20 -52 -117 35 c-190 57 -718 235 -982 331 -446 163 -660 245 -660
254 0 4 12 8 28 8 42 0 822 105 1142 154 157 24 294 42 305 40 11 -2 117 -41
235 -86z m-2336 2 c143 -6 330 -10 416 -10 86 0 219 -3 296 -7 l139 -7 -140
-18 c-77 -10 -322 -38 -545 -63 -223 -24 -426 -47 -452 -50 l-48 -6 0 91 0 90
38 -5 c20 -3 154 -10 296 -15z m888 -291 c221 -83 404 -152 406 -154 2 -2
-187 -557 -192 -562 -5 -5 -465 147 -771 254 -217 76 -988 361 -1220 452 -64
25 -74 23 300 56 293 26 925 91 955 99 8 2 38 4 67 5 43 1 114 -22 455 -150z
m-8987 -24 c149 -8 356 -17 460 -20 105 -3 219 -8 255 -12 l65 -6 -175 -59
c-361 -122 -1041 -328 -1084 -328 -15 0 -16 21 -14 213 l3 212 75 11 c41 6 91
9 110 7 19 -2 157 -10 305 -18z m7112 -15 c59 -22 114 -44 122 -49 11 -7 -7
-64 -89 -289 -57 -155 -107 -286 -111 -293 -8 -14 -89 19 -417 168 -172 79
-795 390 -833 416 -19 14 -16 16 53 21 40 3 231 12 423 21 193 10 422 23 510
30 234 18 224 19 342 -25z m-2727 -3 c0 -7 -157 -116 -260 -182 -98 -61 -106
-65 -118 -48 -28 37 -112 214 -107 223 6 9 485 15 485 7z m-496 -142 c38 -75
65 -139 62 -143 -26 -26 -345 -189 -563 -288 -391 -177 -1121 -451 -1143 -428
-5 5 -42 97 -83 204 -41 107 -78 202 -82 211 -5 13 30 31 197 97 426 169 1021
430 1012 444 -3 5 -3 15 0 23 4 13 48 15 268 15 l263 0 69 -135z m1219 119
l518 -7 187 -100 c103 -55 247 -129 320 -166 72 -36 132 -70 132 -76 0 -26
-175 -445 -186 -445 -17 0 -337 128 -499 200 -415 183 -779 384 -1020 560
l-70 52 50 -6 c28 -3 283 -9 568 -12z m-3365 -9 c4 -3 -338 -157 -547 -247
-239 -102 -590 -242 -595 -237 -7 9 -126 322 -123 325 1 2 102 37 222 78 121
41 221 79 223 85 2 6 143 8 410 4 224 -3 408 -7 410 -8z m1471 11 c-21 -19
-696 -306 -1014 -431 -328 -129 -1053 -391 -1060 -383 -4 5 -144 373 -147 386
-2 8 86 51 247 121 247 107 440 194 584 265 l74 36 381 3 c210 1 507 3 660 5
154 1 277 0 275 -2z m1401 -150 c103 -68 130 -91 130 -109 -1 -31 -46 -276
-52 -282 -6 -6 -209 41 -328 75 -140 40 -404 120 -407 124 -3 2 35 28 84 57
97 58 284 181 352 232 l45 33 23 -22 c13 -12 82 -61 153 -108z m2825 48 c242
-92 736 -274 950 -349 121 -42 224 -80 228 -85 7 -6 -81 -348 -149 -582 -3
-10 -12 -18 -20 -18 -20 0 -382 119 -629 207 -289 103 -715 273 -721 287 -2 6
39 128 91 271 115 312 116 315 124 315 3 0 60 -21 126 -46z m3231 -331 c-3 -4
-116 25 -124 32 -2 2 94 257 114 300 6 13 10 -39 12 -154 1 -96 1 -176 -2
-178z m-989 243 c235 -82 608 -202 838 -270 l150 -43 3 -273 2 -272 -45 6
c-167 26 -1365 350 -1365 370 0 5 166 495 179 529 6 15 14 27 18 27 5 0 104
-33 220 -74z m-9208 -154 c34 -84 61 -159 61 -166 0 -17 -149 -73 -520 -196
-314 -105 -497 -160 -504 -152 -4 3 -6 92 -6 199 0 191 0 194 23 203 12 5 139
43 282 84 143 41 337 99 430 129 94 29 171 53 172 53 0 -1 29 -70 62 -154z
m4452 2 c116 -66 442 -229 601 -299 48 -22 86 -40 84 -42 -13 -13 -769 96
-842 122 -8 2 -5 42 12 137 13 73 24 136 24 141 0 11 -2 12 121 -59z m1617
-130 c264 -123 633 -281 877 -374 105 -40 191 -74 193 -76 2 -1 -9 -79 -24
-173 -20 -123 -32 -171 -42 -171 -17 0 -382 104 -602 172 -195 59 -746 245
-777 262 -21 11 -20 13 61 216 45 113 85 213 89 223 3 9 9 17 12 17 3 0 99
-43 213 -96z m-2503 37 c259 -79 384 -113 394 -107 5 4 11 2 13 -4 4 -12 168
-50 428 -99 l195 -37 31 -405 c17 -222 30 -406 28 -407 -17 -21 -567 -5 -859
24 -699 69 -1380 256 -1703 467 l-53 35 43 16 c455 165 810 314 1100 461 112
56 208 103 213 104 6 0 82 -21 170 -48z m-3036 -202 c42 -108 70 -194 65 -199
-5 -4 -25 -13 -44 -18 -19 -5 -116 -35 -215 -67 -366 -116 -1233 -355 -1288
-355 -16 0 -17 15 -15 172 l3 172 235 73 c348 107 786 261 1070 377 47 19 92
34 100 35 11 1 37 -55 89 -190z m7975 -14 c468 -150 916 -279 1291 -371 105
-25 191 -48 193 -49 2 -2 -17 -116 -42 -253 -25 -138 -46 -253 -46 -256 0 -12
-53 -5 -242 29 -262 49 -607 123 -878 190 -298 73 -730 195 -730 206 0 4 36
139 80 298 44 160 80 293 80 297 0 3 7 3 17 0 9 -4 134 -44 277 -91z m-6877
-144 c46 -118 82 -215 81 -217 -7 -6 -384 -122 -604 -184 -430 -122 -740 -201
-1321 -335 -17 -4 -24 0 -27 17 -23 107 -65 332 -63 335 2 2 82 26 178 53 472
137 1010 313 1404 459 132 49 247 88 255 87 9 -1 44 -78 97 -215z m3138 89
c80 -12 312 -38 460 -50 117 -9 126 -12 340 -94 121 -47 379 -138 572 -202
l353 -117 -40 -18 c-141 -63 -615 -178 -960 -233 -256 -41 -751 -88 -766 -74
-4 4 -64 730 -64 781 0 20 18 21 105 7z m2691 -328 c285 -100 619 -204 914
-284 124 -34 226 -62 227 -63 1 0 -7 -54 -19 -118 -14 -73 -26 -117 -34 -117
-71 0 -1365 308 -1388 330 -8 8 -2 62 35 278 7 40 15 62 23 59 6 -3 115 -41
242 -85z m-5463 17 c23 -12 60 -34 82 -49 134 -91 429 -207 749 -295 71 -19
131 -37 134 -40 5 -4 -122 -636 -136 -681 l-7 -21 -105 23 c-558 126 -997 349
-1280 651 -88 95 -165 202 -153 213 4 4 85 30 178 58 94 29 242 76 330 106 88
30 161 55 163 55 1 1 22 -9 45 -20z m8167 -93 l35 -11 3 -258 c2 -233 1 -257
-14 -257 -20 0 -218 31 -222 35 -1 1 18 114 43 251 25 136 45 252 45 256 0 10
56 2 110 -16z m-10530 -88 c0 -2 16 -79 34 -173 19 -93 32 -173 30 -176 -2 -4
-18 -9 -36 -12 -18 -3 -163 -33 -323 -66 -159 -33 -293 -57 -297 -55 -4 3 -8
79 -8 169 l0 164 38 9 c20 5 150 39 287 75 237 62 275 70 275 65z m7114 -43
c85 -25 255 -72 377 -105 122 -33 223 -61 225 -62 6 -7 104 -261 102 -264 -8
-8 -547 -147 -763 -197 -347 -80 -1061 -217 -1070 -205 -11 16 -116 581 -109
587 5 4 65 17 134 30 320 56 728 163 861 225 41 19 77 35 81 35 4 1 77 -19
162 -44z m-5518 -27 c50 -97 231 -290 374 -398 177 -134 395 -251 630 -337
l131 -48 -6 -65 c-4 -36 -10 -83 -15 -105 -5 -22 -20 -141 -34 -265 -15 -124
-29 -242 -32 -262 l-6 -38 -51 0 c-29 0 -124 7 -212 15 -758 72 -1314 214
-1784 456 -85 43 -161 79 -168 79 -8 0 -12 4 -8 10 3 5 -28 31 -68 59 -110 74
-191 141 -296 244 -101 100 -217 246 -204 257 4 4 136 35 293 69 323 71 991
237 1245 310 94 27 176 50 182 50 7 1 20 -14 29 -31z m7654 -182 c260 -63 575
-128 850 -176 129 -22 253 -44 275 -48 33 -6 40 -12 39 -30 0 -12 -1 -58 -2
-102 l-2 -79 -27 4 c-16 3 -179 30 -363 60 -184 30 -441 75 -570 100 -129 25
-248 47 -263 50 -111 18 -197 39 -197 49 0 6 9 58 20 116 11 58 20 106 20 108
0 2 8 1 18 -2 9 -3 100 -26 202 -50z m-5685 4 c667 -131 1423 -154 2109 -64
65 8 122 11 126 7 10 -11 123 -573 117 -579 -14 -14 -573 -78 -927 -106 -222
-17 -989 -17 -1175 0 -165 15 -426 48 -508 64 -52 10 -58 13 -53 32 3 11 36
168 73 348 37 180 72 328 78 328 5 0 78 -13 160 -30z m4443 -31 c114 -28 214
-53 222 -56 21 -7 -23 -24 -187 -73 -76 -22 -143 -43 -150 -45 -10 -3 -22 21
-84 178 -10 26 -16 47 -14 47 3 0 99 -23 213 -51z m574 -134 c112 -24 274 -59
361 -76 l159 -33 -38 -19 c-125 -64 -1096 -366 -1451 -452 -47 -11 -73 -22
-73 -31 0 -9 -11 -14 -32 -14 -18 0 -120 -21 -226 -46 -107 -26 -197 -42 -202
-38 -10 12 -71 365 -64 376 3 4 12 8 20 8 21 0 421 99 609 150 255 70 557 162
625 191 36 15 75 28 87 28 12 1 113 -19 225 -44z m-8797 -85 c11 -35 115 -163
216 -265 l100 -101 -31 -73 c-16 -41 -30 -79 -30 -85 0 -7 -5 -17 -12 -24 -7
-7 -62 -137 -123 -290 l-110 -277 -195 0 -195 0 0 530 0 530 175 37 c211 44
197 42 205 18z m10783 -107 c3 -112 6 -108 -60 -97 -36 6 -38 9 -38 43 0 20 3
65 6 102 l7 65 41 -5 41 -6 3 -102z m-748 -49 c113 -20 207 -38 209 -40 11
-11 -675 -314 -711 -314 -5 0 -8 -7 -4 -15 4 -11 -2 -15 -27 -15 -18 0 -129
-35 -247 -79 -208 -76 -596 -206 -633 -213 -15 -2 -27 20 -68 132 -27 74 -52
142 -56 150 -3 8 -7 20 -8 25 -2 6 -13 36 -25 68 -12 33 -18 62 -14 66 5 5
108 38 229 76 314 97 568 186 659 232 l78 39 207 -38 c113 -21 298 -55 411
-74z m540 -88 l205 -32 3 -132 c2 -89 -1 -132 -8 -132 -6 0 -70 -42 -143 -93
-188 -134 -345 -238 -354 -235 -5 1 -20 -9 -35 -22 -14 -14 -100 -70 -190
-125 l-163 -100 -179 0 -179 0 -124 219 c-68 121 -122 220 -121 221 2 1 60 24
131 50 100 38 127 52 127 66 0 16 8 19 44 19 31 0 89 19 197 64 231 95 400
173 481 222 40 24 80 43 88 43 8 0 107 -15 220 -33z m-3397 -103 c34 -187 50
-293 44 -299 -8 -8 -311 -74 -612 -133 -465 -92 -1211 -210 -1225 -194 -4 4
-15 87 -24 183 -9 96 -20 191 -23 210 l-5 36 189 17 c268 25 537 61 852 113
255 42 761 140 770 150 13 13 20 -4 34 -83z m-4040 -63 c135 -35 314 -72 497
-101 105 -16 197 -22 413 -26 264 -5 277 -6 277 -24 0 -18 9 -19 115 -19 108
0 115 1 115 20 0 20 7 20 360 20 198 0 360 -3 360 -7 0 -5 9 -104 21 -221 12
-116 20 -214 17 -217 -14 -14 -680 -80 -1088 -107 -188 -13 -1292 -19 -1303
-8 -5 4 52 483 73 620 5 30 9 65 9 78 1 12 6 22 12 22 5 0 60 -13 122 -30z
m-2669 -71 c44 -32 91 -59 104 -59 15 0 22 -6 22 -18 0 -22 86 -73 280 -166
329 -157 756 -280 1215 -351 94 -14 186 -30 205 -35 20 -4 -457 -8 -1087 -9
-901 -1 -1123 2 -1123 12 0 7 48 131 106 276 58 145 103 270 100 277 -3 8 1
14 8 14 12 0 24 22 57 108 10 26 4 29 113 -49z m7936 6 c12 -36 26 -65 31 -65
6 0 8 -4 5 -9 -4 -5 18 -76 49 -157 30 -81 53 -150 51 -151 -6 -7 -404 -122
-656 -191 l-245 -67 -665 0 -664 0 -24 99 c-25 112 -26 110 47 121 94 13 694
136 901 183 450 104 560 134 560 154 0 15 9 18 58 18 39 0 126 20 282 64 124
35 230 65 237 65 6 1 21 -28 33 -64z m2380 -385 c0 -248 0 -250 -21 -250 -23
0 -409 197 -409 208 0 4 53 42 118 84 64 43 158 107 207 142 50 36 93 65 98
65 4 1 7 -111 7 -249z m-1443 -46 c62 -109 113 -202 113 -206 0 -5 -352 -8
-782 -8 -433 0 -776 4 -768 9 8 5 67 23 130 40 263 72 652 191 905 277 149 50
274 91 280 90 5 -2 61 -92 122 -202z m-3123 -86 c9 -40 17 -84 18 -98 l3 -25
-724 -3 c-399 -1 -722 0 -720 2 3 3 128 19 279 36 298 33 744 96 960 134 74
13 142 24 151 25 13 1 21 -16 33 -71z m4380 -118 c7 -7 -90 -10 -289 -10 -175
0 -295 4 -289 9 5 5 67 45 137 88 l128 80 152 -79 c83 -43 155 -82 161 -88z"/>
</g>
</svg>
