<?xml version="1.0" standalone="no"?>
<!DOCTYPE svg PUBLIC "-//W3C//DTD SVG 20010904//EN"
 "http://www.w3.org/TR/2001/REC-SVG-20010904/DTD/svg10.dtd">
<svg version="1.0" xmlns="http://www.w3.org/2000/svg"
 width="1811.000000pt" height="1217.000000pt" viewBox="0 0 1811.000000 1217.000000"
 preserveAspectRatio="xMidYMid meet">
<metadata>
Created by potrace 1.13, written by Peter Selinger 2001-2015
</metadata>
<g transform="translate(0.000000,1217.000000) scale(0.100000,-0.100000)"
fill="#000000" stroke="none">
<path d="M1173 12073 c-127 -273 -127 -275 -107 -290 10 -7 21 -10 25 -6 5 7
162 343 176 381 3 8 -4 12 -22 12 -23 0 -31 -10 -72 -97z"/>
<path d="M3061 12090 c-63 -44 -117 -82 -119 -85 -6 -5 17 -35 27 -35 4 0 72
45 151 100 l144 100 -45 0 c-39 0 -57 -10 -158 -80z"/>
<path d="M5252 12059 c-46 -61 -85 -116 -88 -124 -3 -7 3 -18 13 -24 17 -8 32
7 122 125 l102 134 -33 -1 c-30 0 -40 -10 -116 -110z"/>
<path d="M8370 12108 c-15 -35 -55 -121 -88 -193 -57 -123 -60 -130 -41 -139
12 -6 23 -6 28 0 7 7 161 337 178 382 3 8 -4 12 -22 12 -23 0 -30 -9 -55 -62z"/>
<path d="M10193 12092 c-62 -42 -113 -82 -113 -88 0 -6 6 -16 13 -22 10 -9 47
12 157 88 l144 100 -45 0 c-39 0 -58 -10 -156 -78z"/>
<path d="M12547 12088 c-227 -295 -267 -351 -256 -365 6 -7 17 -13 23 -13 9 1
164 198 329 422 l29 38 -31 0 c-26 0 -39 -11 -94 -82z"/>
<path d="M15447 11983 c-78 -170 -85 -189 -70 -200 24 -18 30 -16 41 15 6 15
46 105 90 200 l81 172 -28 0 c-26 0 -32 -10 -114 -187z"/>
<path d="M17381 12095 c-57 -41 -108 -78 -113 -83 -10 -10 0 -42 14 -42 8 0
258 169 283 191 5 5 -10 9 -35 8 -39 -1 -59 -11 -149 -74z"/>
<path d="M13450 11914 c-255 -109 -276 -121 -250 -148 7 -7 331 123 518 207
25 12 27 17 10 39 -12 14 -43 3 -278 -98z"/>
<path d="M121 11897 c-8 -10 27 -64 155 -238 92 -123 172 -230 178 -237 10
-10 16 -9 31 2 17 13 8 28 -156 249 -96 130 -179 237 -185 237 -6 0 -17 -6
-23 -13z"/>
<path d="M14440 11895 c-10 -12 16 -53 156 -242 92 -126 171 -232 175 -237 12
-13 41 14 34 32 -9 24 -336 462 -345 462 -4 0 -13 -7 -20 -15z"/>
<path d="M6260 11706 c-184 -78 -266 -117 -268 -129 -2 -9 3 -20 11 -23 13 -5
509 198 531 217 6 5 6 16 0 28 -8 18 -25 13 -274 -93z"/>
<path d="M7306 11755 c-22 -17 -36 7 157 -255 192 -260 179 -246 199 -223 14
17 3 35 -157 250 -94 128 -173 235 -176 237 -2 2 -12 -2 -23 -9z"/>
<path d="M2031 11747 c-6 -6 -11 -16 -11 -23 0 -10 398 -252 443 -270 10 -3
18 2 22 16 4 12 5 23 3 24 -1 2 -68 41 -148 88 -80 47 -179 106 -222 131 -55
32 -79 42 -87 34z"/>
<path d="M16340 11739 c-7 -11 -10 -22 -8 -24 8 -7 448 -265 452 -265 3 0 10
9 16 20 9 17 -9 31 -212 151 -123 72 -226 134 -230 136 -4 2 -12 -6 -18 -18z"/>
<path d="M9201 11731 c-10 -17 13 -33 217 -154 201 -120 228 -134 240 -119 6
9 12 19 12 22 0 7 -442 270 -453 270 -3 0 -11 -9 -16 -19z"/>
<path d="M11459 11574 c-11 -13 17 -45 206 -234 208 -209 220 -219 238 -203
17 16 8 27 -200 235 -120 120 -221 218 -224 218 -4 0 -12 -7 -20 -16z"/>
<path d="M4160 11554 c-11 -12 -10 -18 6 -33 199 -185 358 -334 395 -368 44
-42 46 -43 62 -25 17 18 8 27 -209 231 -124 116 -230 211 -234 211 -4 0 -13
-7 -20 -16z"/>
<path d="M3330 11418 c0 -39 48 -523 56 -556 3 -17 11 -22 27 -20 26 4 27 -22
-11 343 -26 252 -28 260 -50 263 -19 3 -22 -1 -22 -30z"/>
<path d="M10465 11408 c8 -61 55 -518 55 -540 0 -13 8 -18 25 -18 17 0 25 6
25 18 0 23 -49 509 -56 550 -4 26 -9 32 -30 32 -24 0 -25 -2 -19 -42z"/>
<path d="M17645 11441 c-3 -6 8 -139 25 -297 16 -158 30 -291 30 -296 0 -4 11
-8 25 -8 14 0 25 4 25 8 0 5 -13 138 -30 297 -16 159 -30 292 -30 297 0 11
-37 10 -45 -1z"/>
<path d="M13793 11413 c-7 -2 -13 -10 -13 -16 0 -26 205 -577 214 -577 40 1
37 17 -67 305 -57 159 -108 290 -113 291 -5 1 -15 0 -21 -3z"/>
<path d="M6461 11249 c-7 -12 -11 -22 -9 -24 2 -1 127 -66 279 -143 275 -141
276 -142 287 -118 10 23 4 27 -267 164 -268 137 -277 141 -290 121z"/>
<path d="M12592 11078 c-7 -7 -12 -17 -12 -22 1 -6 116 -89 257 -184 225 -152
258 -171 271 -159 8 9 12 20 8 25 -5 8 -460 321 -502 345 -6 3 -16 1 -22 -5z"/>
<path d="M5450 11065 c-7 -8 -11 -18 -8 -20 3 -3 119 -83 259 -179 248 -169
279 -185 279 -141 0 11 -468 337 -503 351 -8 3 -20 -2 -27 -11z"/>
<path d="M1420 10990 c-140 -21 -258 -39 -262 -39 -5 -1 -8 -13 -8 -27 0 -23
3 -25 28 -20 15 3 142 21 282 41 140 20 260 38 267 40 6 2 9 13 6 24 -7 27 -3
27 -313 -19z"/>
<path d="M8608 10987 c-273 -40 -278 -41 -278 -64 0 -16 6 -23 19 -23 20 0
503 68 539 75 15 4 22 13 22 30 0 14 -6 24 -12 24 -7 -1 -138 -19 -290 -42z"/>
<path d="M15727 10990 c-142 -21 -261 -40 -264 -43 -2 -3 -2 -15 2 -27 5 -16
13 -20 28 -17 12 3 142 22 290 43 261 37 267 38 267 61 0 30 -3 30 -323 -17z"/>
<path d="M431 10554 c-145 -90 -266 -165 -268 -168 -3 -3 1 -13 8 -24 13 -18
28 -10 279 144 145 89 266 166 267 171 2 5 -2 16 -9 24 -11 14 -46 -4 -277
-147z"/>
<path d="M11130 10710 c-91 -4 -175 -8 -187 -9 -17 -1 -23 -7 -23 -25 l0 -25
138 5 c503 20 467 17 470 42 3 22 3 22 -115 20 -65 -1 -192 -5 -283 -8z"/>
<path d="M2381 10648 c-22 -35 -87 -137 -145 -228 -95 -148 -104 -166 -89
-177 9 -7 19 -13 22 -13 7 0 295 450 290 453 -2 2 -12 8 -21 16 -15 11 -22 5
-57 -51z"/>
<path d="M7612 10551 c-139 -87 -258 -163 -264 -169 -9 -9 -9 -16 3 -27 14
-14 42 1 280 146 145 90 265 164 267 165 6 4 -18 44 -26 43 -4 -1 -121 -72
-260 -158z"/>
<path d="M14740 10550 c-140 -87 -256 -165 -258 -174 -9 -42 39 -20 292 135
230 142 263 166 255 181 -5 10 -15 18 -22 17 -7 0 -127 -72 -267 -159z"/>
<path d="M16592 10484 c-78 -123 -142 -228 -142 -233 0 -16 33 -22 45 -9 20
22 275 428 275 438 0 5 -8 14 -18 19 -15 8 -37 -21 -160 -215z"/>
<path d="M9451 10474 c-136 -213 -143 -228 -126 -240 11 -8 22 -11 27 -6 4 4
70 106 147 227 126 197 139 221 124 233 -9 6 -19 12 -22 12 -3 0 -71 -102
-150 -226z"/>
<path d="M4050 10518 c-135 -5 -250 -10 -257 -13 -6 -2 -9 -13 -6 -26 6 -21 6
-21 212 -15 113 4 248 9 299 12 89 6 92 7 92 30 0 22 -4 24 -47 22 -27 0 -158
-5 -293 -10z"/>
<path d="M12383 10237 c-111 -89 -201 -166 -199 -171 1 -5 9 -14 18 -19 12 -8
59 26 216 152 111 89 202 165 202 169 0 9 -22 32 -29 31 -4 0 -97 -73 -208
-162z"/>
<path d="M5244 10228 c-178 -143 -200 -164 -190 -180 6 -10 16 -16 23 -14 7 3
100 76 208 162 188 150 219 184 175 191 -8 1 -106 -70 -216 -159z"/>
<path d="M10049 10304 c-8 -10 -10 -20 -3 -29 7 -11 108 -92 472 -378 12 -9
42 6 42 23 0 4 -93 81 -207 171 -313 248 -289 231 -304 213z"/>
<path d="M2910 10294 c-17 -19 -32 -6 250 -229 212 -167 236 -184 248 -168 7
9 11 20 10 24 -3 8 -484 389 -491 389 -2 0 -10 -7 -17 -16z"/>
<path d="M17221 10293 c-8 -17 15 -38 187 -175 108 -86 220 -174 248 -197 50
-39 52 -40 68 -22 16 18 7 27 -224 211 -133 105 -248 194 -255 196 -7 3 -18
-3 -24 -13z"/>
<path d="M15504 10280 c-22 -8 -21 -11 42 -222 35 -117 71 -240 80 -273 10
-33 20 -64 24 -68 9 -11 40 3 40 18 0 14 -146 512 -157 536 -6 12 -14 15 -29
9z"/>
<path d="M1170 10273 c0 -5 37 -133 82 -285 76 -258 84 -278 103 -272 11 4 21
8 23 9 2 2 -31 119 -73 262 -42 142 -78 266 -81 276 -5 16 -54 26 -54 10z"/>
<path d="M8361 10271 c-12 -8 -5 -42 43 -203 110 -371 106 -358 126 -358 10 0
21 4 24 8 7 11 -157 555 -169 559 -5 1 -16 -1 -24 -6z"/>
<path d="M13465 10219 c-4 -11 -5 -22 -3 -24 7 -7 552 -84 560 -79 9 6 11 44
3 44 -3 0 -125 18 -271 40 -146 22 -269 40 -274 40 -5 0 -12 -9 -15 -21z"/>
<path d="M6327 10210 c-6 -25 -23 -21 276 -65 288 -42 289 -42 285 -12 -3 21
-14 24 -248 59 -294 44 -306 45 -313 18z"/>
<path d="M11357 9945 c-17 -12 -6 -32 145 -259 90 -135 168 -246 173 -246 6 0
17 4 24 9 12 8 -18 59 -149 256 -90 135 -166 248 -170 250 -3 2 -13 -3 -23
-10z"/>
<path d="M4218 9939 c-16 -9 2 -39 143 -252 89 -133 165 -246 170 -252 6 -6
15 -3 26 8 15 15 6 32 -147 262 -90 135 -166 245 -169 245 -3 0 -14 -5 -23
-11z"/>
<path d="M5805 9836 c-18 -13 -9 -25 150 -191 94 -97 193 -202 220 -232 49
-54 50 -55 68 -36 17 20 12 26 -199 247 -119 124 -217 226 -218 226 -1 0 -11
-6 -21 -14z"/>
<path d="M12938 9843 c-10 -2 -18 -8 -18 -11 1 -4 36 -142 78 -307 70 -274 79
-300 97 -297 11 2 22 6 24 8 6 6 -151 614 -158 613 -3 -1 -14 -3 -23 -6z"/>
<path d="M215 9760 c-4 -12 -5 -23 -3 -25 2 -2 107 -54 233 -115 211 -102 231
-110 242 -94 7 10 13 20 13 23 0 5 -429 213 -470 229 -5 2 -11 -6 -15 -18z"/>
<path d="M14527 9759 c-4 -13 -5 -24 -4 -25 1 -2 108 -53 236 -114 232 -110
250 -115 251 -74 0 8 -393 203 -466 231 -6 2 -14 -6 -17 -18z"/>
<path d="M7390 9750 c-10 -19 -3 -24 92 -69 57 -27 164 -78 239 -114 137 -65
137 -65 147 -42 10 22 2 27 -222 134 -128 61 -236 111 -239 111 -3 0 -11 -9
-17 -20z"/>
<path d="M2251 9520 c-145 -49 -266 -91 -268 -94 -3 -2 -2 -13 1 -24 6 -19 23
-15 284 72 233 78 277 96 277 112 0 10 -7 20 -15 21 -8 1 -134 -38 -279 -87z"/>
<path d="M9433 9517 c-215 -72 -273 -95 -273 -109 0 -9 5 -20 10 -23 6 -4 134
35 286 85 216 72 274 95 270 107 -3 8 -6 19 -6 24 0 13 11 16 -287 -84z"/>
<path d="M16561 9520 c-145 -49 -266 -91 -268 -94 -3 -2 0 -13 6 -24 11 -20
19 -18 278 69 148 49 273 91 280 93 17 7 3 46 -16 45 -9 0 -135 -41 -280 -89z"/>
<path d="M10415 9398 c-3 -7 -41 -130 -85 -273 -44 -143 -85 -273 -90 -288 -8
-24 -6 -29 13 -36 12 -5 23 -8 25 -6 5 4 182 579 182 591 0 7 -7 15 -16 18
-22 8 -24 8 -29 -6z"/>
<path d="M12265 9108 c-49 -167 -90 -307 -90 -312 0 -5 10 -12 21 -17 21 -7
26 6 114 303 95 315 97 327 55 328 -5 0 -50 -136 -100 -302z"/>
<path d="M3236 9258 c-143 -457 -141 -449 -125 -459 7 -5 19 -7 24 -6 12 4
195 588 188 600 -2 4 -13 7 -23 7 -16 0 -27 -25 -64 -142z"/>
<path d="M5215 9388 c-3 -7 -45 -146 -93 -308 -72 -238 -86 -297 -75 -303 8
-5 19 -7 25 -5 12 4 198 614 190 623 -10 10 -43 5 -47 -7z"/>
<path d="M17506 9113 c-49 -159 -91 -293 -93 -300 -4 -11 34 -29 43 -21 11 11
184 590 179 598 -3 6 -14 10 -23 10 -14 0 -35 -56 -106 -287z"/>
<path d="M13875 9276 c-18 -13 -11 -27 123 -252 78 -132 147 -247 154 -257 14
-18 48 -15 48 5 0 9 -284 494 -299 511 -4 4 -16 1 -26 -7z"/>
<path d="M6940 8922 c-45 -153 -83 -284 -84 -292 0 -8 9 -16 21 -18 24 -4 12
-36 129 353 31 105 57 196 58 204 1 7 -8 17 -20 21 -20 8 -25 -6 -104 -268z"/>
<path d="M665 9039 c-4 -11 -5 -22 -3 -24 1 -2 149 -46 327 -99 327 -97 340
-99 341 -58 0 6 -2 12 -5 12 -3 0 -149 43 -324 95 -176 52 -322 95 -325 95 -3
0 -8 -9 -11 -21z"/>
<path d="M14980 9035 c0 -20 7 -26 38 -34 20 -6 165 -49 321 -95 157 -47 288
-83 293 -80 20 13 6 43 -24 53 -76 24 -615 181 -621 181 -4 0 -7 -11 -7 -25z"/>
<path d="M3787 8968 c-4 -12 -4 -24 -1 -27 5 -6 528 -40 622 -40 58 -1 62 0
62 22 l0 23 -317 18 c-175 9 -328 19 -339 21 -16 4 -23 -1 -27 -17z"/>
<path d="M10920 8965 c0 -21 5 -25 28 -25 32 0 473 -27 585 -35 l77 -6 0 25
c0 14 -1 26 -2 26 -2 0 -145 9 -318 20 -401 25 -370 26 -370 -5z"/>
<path d="M8170 8955 l-335 -10 -3 -22 c-3 -22 -1 -23 91 -23 184 0 576 13 587
20 6 4 7 14 3 26 -8 18 -17 19 -343 9z"/>
<path d="M13087 8773 c-141 -75 -257 -139 -257 -143 0 -3 6 -13 13 -22 11 -14
41 -1 269 120 142 76 257 142 258 148 0 6 -6 16 -13 22 -10 9 -76 -22 -270
-125z"/>
<path d="M2210 8775 c-8 -10 -9 -19 -3 -27 44 -56 319 -396 330 -408 11 -12
15 -12 29 2 14 14 15 19 3 35 -38 54 -333 413 -339 413 -4 0 -13 -7 -20 -15z"/>
<path d="M9388 8773 c-14 -17 -2 -35 160 -234 156 -193 178 -216 194 -205 10
6 16 16 14 22 -5 12 -345 434 -350 434 -2 0 -10 -8 -18 -17z"/>
<path d="M16521 8776 c-10 -11 21 -56 161 -229 95 -119 176 -216 179 -216 3
-1 13 5 23 12 16 12 3 32 -156 229 -95 119 -178 217 -184 217 -6 1 -17 -5 -23
-13z"/>
<path d="M5985 8684 c-307 -56 -287 -50 -283 -77 2 -13 9 -21 18 -20 68 8 557
97 563 103 16 14 -5 40 -32 39 -14 -1 -134 -21 -266 -45z"/>
<path d="M3603 8286 c-178 -50 -323 -95 -323 -101 0 -42 12 -40 347 54 180 51
329 94 330 95 7 6 -11 46 -21 45 -6 -1 -156 -42 -333 -93z"/>
<path d="M10737 8291 c-169 -49 -310 -91 -314 -94 -3 -4 -2 -15 3 -26 9 -18
27 -14 334 73 296 83 325 93 328 114 3 17 -1 22 -20 21 -13 0 -161 -40 -331
-88z"/>
<path d="M1520 8344 c0 -1 -23 -111 -50 -244 -28 -133 -48 -246 -44 -251 6
-11 44 -12 44 -1 0 4 23 115 50 247 28 132 50 240 50 241 0 1 -11 4 -25 6 -14
3 -25 4 -25 2z"/>
<path d="M8698 8328 c-3 -7 -27 -118 -53 -246 -41 -198 -46 -235 -34 -243 8
-5 18 -7 24 -6 16 5 114 491 101 499 -17 12 -33 9 -38 -4z"/>
<path d="M15786 8103 c-27 -131 -49 -242 -50 -248 -2 -19 42 -17 48 2 9 30 96
454 96 469 0 8 -10 14 -23 14 -22 0 -25 -11 -71 -237z"/>
<path d="M17853 8266 c-236 -66 -253 -72 -253 -93 0 -13 5 -23 12 -23 20 0
483 132 491 140 5 4 7 17 5 27 -3 19 -18 16 -255 -51z"/>
<path d="M4400 8104 c-96 -113 -179 -212 -185 -220 -7 -11 -5 -19 9 -29 17
-13 33 3 204 202 146 170 183 219 175 231 -5 9 -14 17 -19 18 -5 2 -88 -89
-184 -202z"/>
<path d="M11529 8099 c-144 -167 -180 -215 -172 -227 5 -9 14 -17 19 -18 5 -1
91 94 192 212 151 177 181 218 172 230 -7 8 -16 14 -21 14 -4 0 -90 -95 -190
-211z"/>
<path d="M311 8276 c-11 -13 19 -49 191 -230 111 -117 208 -214 214 -215 6 -1
17 6 24 14 10 12 -20 49 -191 227 -112 117 -209 214 -215 216 -6 2 -16 -4 -23
-12z"/>
<path d="M7496 8271 c-16 -18 -8 -28 190 -235 199 -208 207 -216 225 -200 19
17 17 20 -64 103 -45 47 -139 146 -208 218 -121 127 -127 132 -143 114z"/>
<path d="M14630 8275 c-13 -16 -8 -22 299 -345 94 -100 100 -104 117 -88 17
17 15 20 -37 75 -224 239 -354 373 -360 373 -3 0 -12 -7 -19 -15z"/>
<path d="M13415 7969 c-116 -88 -215 -166 -222 -172 -9 -9 -9 -16 2 -30 13
-18 28 -8 232 148 120 91 219 172 221 179 2 7 -3 18 -10 24 -10 8 -62 -27
-223 -149z"/>
<path d="M6280 7964 c-113 -85 -211 -161 -218 -168 -13 -13 -7 -46 9 -46 6 0
108 75 229 166 196 150 217 169 207 185 -7 11 -14 19 -17 19 -3 0 -98 -70
-210 -156z"/>
<path d="M5118 8043 c-15 -17 -5 -33 154 -238 93 -121 173 -223 177 -228 4 -4
15 1 24 11 15 16 6 30 -149 232 -202 262 -186 245 -206 223z"/>
<path d="M12251 8046 c-10 -12 16 -52 160 -238 94 -123 173 -225 175 -227 1
-1 12 3 23 11 20 14 15 22 -152 238 -95 123 -177 225 -183 227 -6 2 -17 -3
-23 -11z"/>
<path d="M6907 7748 c-14 -12 -4 -35 103 -228 66 -118 121 -219 123 -224 4
-13 49 4 45 18 -5 20 -242 446 -248 446 -4 0 -14 -6 -23 -12z"/>
<path d="M13938 7678 c-14 -11 1 -39 117 -228 73 -118 138 -215 144 -214 26 2
31 5 31 15 0 15 -261 439 -270 439 -3 0 -13 -6 -22 -12z"/>
<path d="M2343 7447 c-122 -100 -222 -187 -222 -193 -1 -6 5 -17 13 -23 10 -9
50 18 187 130 287 234 280 228 269 250 -6 10 -14 19 -18 18 -4 0 -107 -82
-229 -182z"/>
<path d="M16658 7444 c-206 -169 -226 -187 -215 -205 6 -10 15 -18 19 -17 4 2
108 86 232 187 214 175 225 186 209 203 -9 10 -17 18 -17 18 -1 0 -103 -84
-228 -186z"/>
<path d="M9521 7439 c-122 -99 -221 -187 -221 -195 0 -42 40 -17 254 158 189
154 223 186 215 200 -5 10 -14 18 -18 18 -5 0 -109 -81 -230 -181z"/>
<path d="M3308 7523 c-16 -18 -9 -27 179 -226 186 -197 197 -207 214 -191 18
16 14 22 -94 136 -61 65 -150 159 -197 209 -82 88 -86 90 -102 72z"/>
<path d="M10440 7525 c-10 -13 8 -36 116 -151 71 -74 159 -168 196 -207 63
-68 67 -71 84 -55 16 16 15 19 -21 60 -86 96 -349 368 -355 368 -4 0 -13 -7
-20 -15z"/>
<path d="M17623 7529 c-7 -7 -13 -17 -13 -23 0 -5 37 -48 83 -95 45 -47 132
-138 193 -202 100 -105 112 -115 129 -103 17 13 17 15 -8 46 -15 18 -104 113
-199 211 -140 145 -175 176 -185 166z"/>
<path d="M4505 7268 c-132 -5 -246 -11 -252 -13 -7 -2 -13 -14 -13 -26 l0 -22
223 7 c122 4 250 9 285 13 57 5 63 7 60 27 -4 26 3 26 -303 14z"/>
<path d="M11580 7270 c-85 -4 -165 -8 -177 -9 -18 -1 -23 -7 -23 -27 l0 -26
73 6 c39 3 165 8 280 12 l207 6 0 24 c0 24 -1 24 -102 22 -57 -1 -173 -5 -258
-8z"/>
<path d="M1337 7082 c-16 -18 -9 -28 149 -216 160 -190 167 -196 185 -180 19
17 19 18 1 38 -11 12 -81 95 -157 186 -76 91 -143 171 -150 178 -9 10 -15 9
-28 -6z"/>
<path d="M8515 7076 c-18 -13 -18 -14 1 -38 68 -86 309 -368 315 -368 3 0 12
7 19 15 10 13 10 19 -2 33 -8 9 -75 89 -148 177 -178 214 -162 198 -185 181z"/>
<path d="M15651 7081 c-7 -5 -12 -13 -10 -19 2 -6 76 -96 164 -200 140 -167
161 -188 177 -178 10 6 16 16 14 23 -7 17 -317 383 -325 383 -3 0 -12 -4 -20
-9z"/>
<path d="M473 6937 c-112 -56 -203 -106 -203 -112 1 -41 19 -35 224 67 113 56
206 105 206 108 0 4 -6 13 -12 22 -12 15 -35 5 -215 -85z"/>
<path d="M14787 6934 c-192 -96 -207 -106 -197 -124 6 -11 13 -20 15 -20 19 0
405 203 405 213 -1 38 -21 32 -223 -69z"/>
<path d="M7644 6927 c-191 -97 -201 -103 -192 -124 10 -21 16 -19 220 83 193
96 208 106 198 124 -6 11 -14 20 -18 19 -4 0 -98 -46 -208 -102z"/>
<path d="M12650 6874 c-118 -75 -220 -141 -227 -147 -9 -9 -9 -16 1 -30 12
-16 31 -6 239 125 124 79 226 146 227 149 0 3 -6 13 -13 22 -11 16 -32 5 -227
-119z"/>
<path d="M5498 6812 c-205 -131 -225 -147 -215 -164 7 -10 18 -16 26 -13 40
16 441 279 441 290 0 43 -30 29 -252 -113z"/>
<path d="M6246 6921 c-21 -23 -26 -19 188 -161 158 -105 170 -111 183 -94 7
10 13 20 13 23 0 3 -83 61 -184 128 -174 115 -185 121 -200 104z"/>
<path d="M13380 6925 c-8 -10 -9 -19 -4 -24 16 -14 344 -232 359 -237 7 -3 18
3 24 14 9 18 -8 31 -172 141 -100 66 -185 121 -189 121 -3 0 -11 -7 -18 -15z"/>
<path d="M2983 6797 c-227 -52 -263 -63 -263 -79 0 -10 6 -21 13 -23 10 -5
525 110 533 118 5 5 -8 47 -15 46 -3 0 -124 -28 -268 -62z"/>
<path d="M10110 6801 c-236 -56 -245 -59 -245 -82 0 -18 5 -23 20 -21 26 4
497 111 512 117 20 7 3 45 -21 44 -11 -1 -131 -27 -266 -58z"/>
<path d="M17295 6796 c-237 -56 -260 -63 -257 -81 2 -11 5 -22 7 -24 3 -3 460
99 518 116 19 5 21 45 2 49 -5 1 -127 -26 -270 -60z"/>
<path d="M4092 6333 c-92 -286 -95 -302 -56 -303 12 0 197 567 189 580 -3 6
-14 10 -24 10 -14 0 -35 -55 -109 -287z"/>
<path d="M11803 6451 c-11 -18 8 -33 246 -195 143 -97 262 -176 265 -176 3 0
10 9 16 19 9 18 -15 37 -242 192 -139 94 -258 173 -263 175 -6 2 -16 -5 -22
-15z"/>
<path d="M11092 6102 c-51 -158 -92 -291 -92 -294 0 -10 40 -17 45 -8 9 14
187 572 183 575 -2 1 -12 5 -23 9 -19 6 -28 -15 -113 -282z"/>
<path d="M738 6322 c-14 -16 1 -35 179 -237 108 -121 210 -238 229 -259 28
-33 36 -37 49 -26 8 7 15 16 15 21 0 8 -432 503 -449 513 -4 3 -15 -2 -23 -12z"/>
<path d="M15050 6325 c-15 -18 -29 0 234 -298 199 -226 210 -237 227 -221 18
16 17 18 -13 53 -238 272 -424 481 -429 481 -4 0 -12 -7 -19 -15z"/>
<path d="M3016 6277 c-17 -13 -10 -29 115 -260 73 -136 136 -247 139 -247 4 0
14 6 23 13 14 11 2 38 -115 252 -71 132 -133 243 -137 248 -4 4 -15 1 -25 -6z"/>
<path d="M7961 6276 c-10 -12 -10 -19 1 -34 26 -36 431 -492 437 -492 16 1 33
19 28 31 -7 17 -435 503 -446 507 -4 1 -14 -4 -20 -12z"/>
<path d="M9874 6276 c-18 -14 -18 -15 2 -53 12 -21 72 -132 134 -246 83 -154
116 -207 127 -203 8 3 17 6 19 6 13 0 -8 46 -118 249 -151 281 -140 264 -164
247z"/>
<path d="M17333 6277 c-21 -12 -19 -17 108 -252 71 -132 133 -243 138 -248 9
-9 41 1 41 14 0 6 -253 481 -264 496 0 1 -11 -4 -23 -10z"/>
<path d="M6032 6232 c-10 -7 9 -69 79 -265 51 -141 97 -257 103 -257 40 1 37
17 -55 273 -51 141 -97 257 -103 257 -6 0 -17 -4 -24 -8z"/>
<path d="M6881 5959 c-78 -133 -141 -245 -141 -250 0 -5 8 -13 19 -18 17 -9
33 15 161 234 135 233 153 275 116 275 -8 0 -75 -103 -155 -241z"/>
<path d="M14027 5967 c-75 -127 -138 -239 -141 -247 -4 -9 2 -20 13 -27 17
-11 31 9 164 237 141 242 152 270 111 270 -6 0 -73 -105 -147 -233z"/>
<path d="M1795 5938 c-55 -132 -100 -246 -100 -252 0 -6 9 -12 21 -14 19 -3
33 25 124 243 56 135 101 248 99 249 -2 2 -13 6 -24 10 -18 5 -30 -19 -120
-236z"/>
<path d="M9054 6143 c-8 -21 -46 -112 -84 -203 -38 -91 -77 -186 -88 -211
l-20 -47 23 -10 c22 -10 25 -5 124 231 56 134 101 248 101 254 0 9 -21 23 -36
23 -2 0 -11 -17 -20 -37z"/>
<path d="M13152 6171 c-11 -7 5 -61 77 -262 50 -139 93 -255 95 -257 9 -8 47
10 43 21 -2 7 -44 123 -93 259 -49 137 -93 248 -99 248 -5 0 -16 -4 -23 -9z"/>
<path d="M16195 6143 c-112 -267 -185 -445 -185 -453 0 -5 8 -14 19 -19 17
-10 28 11 120 232 55 133 101 248 101 254 0 9 -21 23 -36 23 -2 0 -11 -17 -19
-37z"/>
<path d="M4860 6069 c-7 -11 -10 -22 -8 -24 2 -1 117 -80 256 -175 208 -141
255 -170 267 -160 8 7 15 16 15 21 0 6 -429 304 -507 352 -7 5 -17 -1 -23 -14z"/>
<path d="M2253 5387 l-293 -21 0 -23 c0 -29 -5 -28 315 -8 291 20 285 18 285
50 0 14 -3 24 -7 24 -5 -1 -140 -11 -300 -22z"/>
<path d="M9425 5386 c-286 -21 -290 -21 -293 -43 -3 -21 0 -23 50 -23 89 1
547 36 554 42 7 8 -5 49 -14 47 -4 -1 -137 -11 -297 -23z"/>
<path d="M16565 5386 c-286 -21 -290 -21 -293 -43 -3 -22 0 -23 55 -22 93 0
542 35 549 41 7 8 -5 49 -14 47 -4 -1 -137 -11 -297 -23z"/>
<path d="M260 5343 c-102 -29 -202 -58 -222 -64 -32 -8 -38 -14 -38 -36 0 -19
4 -24 18 -21 134 36 429 123 435 128 4 4 4 16 0 27 -8 20 -13 19 -193 -34z"/>
<path d="M14502 5324 c-138 -40 -277 -80 -307 -89 -42 -12 -55 -20 -55 -35 0
-10 4 -21 8 -24 4 -2 145 35 312 83 246 70 306 90 308 105 2 10 0 21 -5 25 -4
5 -122 -25 -261 -65z"/>
<path d="M7050 5255 l0 -25 330 0 330 0 0 25 0 25 -330 0 -330 0 0 -25z"/>
<path d="M12497 5017 c-192 -252 -197 -260 -177 -274 12 -8 22 -13 24 -12 1 2
89 118 194 257 106 139 192 256 192 260 0 4 -8 12 -18 18 -16 10 -41 -19 -215
-249z"/>
<path d="M4090 5177 c0 -16 7 -28 18 -31 28 -8 507 -96 525 -96 11 0 17 8 17
23 0 22 -10 24 -267 71 -148 27 -274 51 -280 54 -8 2 -13 -5 -13 -21z"/>
<path d="M11230 5177 c0 -16 7 -28 18 -31 28 -8 507 -96 525 -96 11 0 17 8 17
23 0 22 -10 25 -267 71 -148 27 -274 51 -280 54 -8 2 -13 -5 -13 -21z"/>
<path d="M3179 5014 c-123 -86 -229 -161 -236 -167 -9 -9 -9 -16 2 -30 12 -17
30 -6 249 145 129 90 235 168 236 174 0 6 -6 17 -13 23 -11 8 -64 -24 -238
-145z"/>
<path d="M10319 5014 c-123 -86 -229 -161 -236 -167 -9 -9 -9 -16 2 -30 12
-17 30 -7 249 145 129 90 235 168 236 174 0 6 -6 17 -13 23 -11 8 -64 -24
-238 -145z"/>
<path d="M17483 5007 c-128 -89 -233 -167 -233 -173 0 -6 6 -16 13 -22 9 -8
71 30 250 154 218 152 236 167 224 185 -6 10 -14 19 -17 19 -3 -1 -110 -74
-237 -163z"/>
<path d="M1162 4892 c-112 -244 -121 -268 -105 -279 9 -7 19 -13 22 -13 3 0
62 122 130 271 101 220 122 272 110 280 -8 5 -18 9 -24 9 -5 -1 -65 -121 -133
-268z"/>
<path d="M8436 5108 c-39 -88 -207 -452 -217 -469 -6 -12 -2 -19 15 -27 23
-10 26 -5 145 251 67 144 121 267 121 273 0 10 -21 24 -36 24 -2 0 -15 -24
-28 -52z"/>
<path d="M15577 5108 c-13 -29 -68 -149 -122 -266 -94 -203 -100 -225 -68
-234 8 -2 61 100 137 265 114 246 123 268 106 277 -27 14 -26 15 -53 -42z"/>
<path d="M5328 4823 c-172 -226 -194 -260 -180 -270 9 -7 19 -13 22 -13 6 0
361 461 383 497 8 13 -7 43 -22 43 -4 0 -95 -116 -203 -257z"/>
<path d="M6470 4874 c-146 -62 -265 -117 -264 -123 2 -27 5 -31 17 -31 7 0 83
30 168 66 84 36 202 85 260 110 92 39 106 48 102 65 -3 10 -8 21 -12 23 -3 1
-125 -48 -271 -110z"/>
<path d="M13383 4776 c-144 -61 -262 -115 -263 -121 0 -5 4 -16 9 -24 8 -12
56 5 263 93 140 59 260 111 267 115 13 8 7 52 -7 50 -4 -1 -125 -51 -269 -113z"/>
<path d="M7496 4635 c-11 -9 -15 -19 -10 -27 16 -26 317 -434 334 -451 16 -17
17 -17 32 0 14 17 3 35 -157 251 -95 128 -175 235 -177 237 -1 2 -11 -3 -22
-10z"/>
<path d="M120 4585 c-9 -11 -7 -21 11 -47 39 -54 311 -422 320 -433 14 -14 43
19 33 37 -26 43 -338 458 -344 458 -4 0 -13 -7 -20 -15z"/>
<path d="M14436 4587 c-16 -12 -4 -32 144 -232 197 -267 195 -265 216 -244 14
15 0 37 -158 252 -95 130 -176 236 -179 236 -3 1 -13 -5 -23 -12z"/>
<path d="M2020 4569 c-7 -11 -10 -22 -8 -24 8 -7 448 -265 452 -265 3 0 10 9
16 20 9 17 -9 31 -212 151 -123 72 -226 134 -230 136 -4 2 -12 -6 -18 -18z"/>
<path d="M9195 4570 c-4 -12 -3 -26 2 -30 4 -4 104 -64 222 -134 165 -97 217
-123 228 -115 7 6 13 17 13 23 0 8 -408 256 -451 274 -4 2 -10 -7 -14 -18z"/>
<path d="M16336 4574 c-3 -9 -6 -19 -6 -24 0 -7 407 -252 442 -265 11 -4 18 0
23 15 4 12 5 23 3 24 -8 6 -450 266 -453 266 -2 0 -6 -7 -9 -16z"/>
<path d="M4385 4560 c-5 -9 148 -587 159 -597 9 -9 47 9 43 20 -2 7 -39 141
-83 300 -64 236 -81 287 -95 287 -10 0 -21 -4 -24 -10z"/>
<path d="M3426 4194 c-139 -266 -145 -284 -101 -284 6 0 72 120 149 266 138
265 144 283 101 284 -5 0 -73 -120 -149 -266z"/>
<path d="M17837 4378 c-24 -46 -88 -167 -141 -269 -97 -187 -100 -199 -56
-199 9 0 280 511 280 528 0 8 -22 22 -35 22 -2 0 -23 -37 -48 -82z"/>
<path d="M13761 4331 c-11 -7 9 -68 94 -300 100 -270 110 -291 129 -285 12 4
22 7 24 9 6 5 -214 585 -223 585 -5 0 -16 -4 -24 -9z"/>
<path d="M6729 4044 c-141 -276 -147 -293 -104 -294 9 0 285 526 285 543 0 4
-9 11 -19 17 -18 9 -32 -13 -162 -266z"/>
<path d="M10460 4257 c0 -28 48 -500 55 -544 5 -27 10 -33 31 -33 23 0 25 3
20 28 -3 15 -17 150 -32 300 -28 270 -28 272 -51 272 -17 0 -23 -6 -23 -23z"/>
<path d="M11533 4148 c-242 -103 -260 -113 -253 -132 4 -12 14 -20 22 -18 21
5 512 213 521 221 10 10 -2 41 -17 41 -6 -1 -129 -51 -273 -112z"/>
<path d="M5443 3900 c-12 -17 0 -28 145 -126 86 -59 203 -139 260 -178 84 -58
105 -68 112 -56 5 8 10 20 10 25 0 8 -500 355 -512 355 -2 0 -9 -9 -15 -20z"/>
<path d="M12583 3900 c-12 -18 7 -32 240 -191 138 -94 256 -173 262 -175 5 -2
16 5 22 15 11 18 -8 33 -247 195 -142 97 -260 176 -262 176 -2 0 -9 -9 -15
-20z"/>
<path d="M1407 3820 c-142 -21 -261 -40 -264 -43 -12 -12 9 -48 25 -43 9 2
140 21 290 42 268 36 272 37 272 60 0 31 -2 31 -323 -16z"/>
<path d="M8585 3819 c-143 -21 -261 -38 -262 -39 -2 0 -3 -12 -3 -26 0 -22 4
-25 23 -21 12 3 142 22 290 43 262 37 267 38 267 61 0 30 7 30 -315 -18z"/>
<path d="M15725 3819 c-143 -21 -261 -38 -262 -39 -2 0 -3 -12 -3 -26 0 -22 4
-25 23 -21 12 3 142 22 290 43 262 37 267 38 267 61 0 30 7 30 -315 -18z"/>
<path d="M7600 3384 c-146 -90 -266 -168 -268 -172 -1 -4 3 -15 10 -24 12 -14
44 4 278 148 146 90 266 168 268 172 1 4 -3 15 -10 24 -12 14 -44 -4 -278
-148z"/>
<path d="M14740 3384 c-146 -90 -266 -168 -268 -172 -1 -4 3 -15 10 -24 12
-14 43 3 278 147 145 90 266 168 267 172 2 5 -2 16 -9 25 -12 14 -44 -4 -278
-148z"/>
<path d="M420 3381 c-140 -87 -256 -166 -258 -175 -9 -42 39 -20 292 135 230
142 263 166 255 181 -5 10 -15 18 -22 17 -7 0 -127 -71 -267 -158z"/>
<path d="M2272 3316 c-78 -123 -142 -228 -142 -234 0 -13 31 -25 41 -15 16 17
279 435 279 443 0 5 -8 14 -18 19 -15 8 -37 -20 -160 -213z"/>
<path d="M9546 3473 c-207 -322 -245 -387 -235 -400 6 -7 17 -13 23 -13 8 0
280 415 294 449 1 3 -7 12 -18 19 -19 11 -24 7 -64 -55z"/>
<path d="M16706 3502 c-184 -282 -264 -417 -254 -429 6 -7 16 -13 22 -13 8 0
280 415 294 449 1 3 -7 12 -18 19 -18 11 -22 8 -44 -26z"/>
<path d="M3803 3464 c-3 -8 -2 -19 3 -24 5 -4 128 -58 274 -120 244 -102 266
-110 277 -93 7 9 10 20 6 24 -10 10 -530 229 -543 229 -6 0 -13 -7 -17 -16z"/>
<path d="M11090 3350 c-91 -4 -166 -8 -167 -9 -2 0 -3 -13 -3 -27 0 -25 2 -26
48 -20 26 3 161 8 300 12 l252 7 0 23 0 24 -132 -2 c-73 -1 -207 -5 -298 -8z"/>
<path d="M5241 3069 c-110 -88 -201 -166 -201 -173 0 -7 5 -17 11 -23 8 -8 66
33 219 155 183 146 206 168 196 184 -6 10 -14 18 -17 18 -4 0 -97 -72 -208
-161z"/>
<path d="M12385 3070 c-110 -88 -201 -166 -203 -173 -2 -8 3 -19 10 -24 10 -9
63 29 220 154 185 149 205 167 195 184 -7 11 -14 19 -17 19 -3 0 -95 -72 -205
-160z"/>
<path d="M2900 3129 c-7 -11 -10 -22 -8 -23 450 -358 490 -388 505 -373 9 8
13 20 9 25 -6 10 -457 369 -483 385 -7 5 -17 -1 -23 -14z"/>
<path d="M10040 3129 c-7 -11 -10 -22 -8 -23 2 -2 113 -89 247 -195 216 -171
245 -191 258 -178 9 8 12 20 9 25 -6 10 -458 370 -483 385 -7 5 -17 -1 -23
-14z"/>
<path d="M17216 3131 c-16 -18 -6 -27 231 -215 136 -108 251 -196 255 -196 4
0 12 8 17 18 9 16 -16 40 -187 174 -108 86 -220 174 -248 197 -50 39 -52 40
-68 22z"/>
<path d="M1184 3110 c-21 -8 -20 -14 61 -287 47 -158 87 -278 94 -277 27 2 31
5 31 18 0 15 -145 512 -157 537 -6 12 -14 15 -29 9z"/>
<path d="M8340 3100 c0 -10 160 -553 164 -557 1 -1 12 0 24 4 15 3 21 11 18
22 -146 500 -159 541 -183 541 -13 0 -23 -5 -23 -10z"/>
<path d="M15480 3103 c0 -5 37 -133 82 -286 76 -260 83 -277 102 -271 12 4 22
8 24 9 1 1 -34 127 -79 279 -77 259 -84 276 -106 276 -13 0 -23 -3 -23 -7z"/>
<path d="M6320 3045 c0 -14 4 -25 9 -25 5 0 129 -18 275 -40 146 -22 268 -40
271 -40 3 0 5 11 5 24 0 19 -7 25 -32 30 -48 8 -507 76 -519 76 -5 0 -9 -11
-9 -25z"/>
<path d="M13460 3045 c0 -14 4 -25 9 -25 5 0 129 -18 276 -40 147 -22 269 -40
271 -40 2 0 4 11 4 24 0 19 -7 25 -32 30 -48 8 -507 76 -519 76 -5 0 -9 -11
-9 -25z"/>
<path d="M4217 2779 c-9 -6 -17 -14 -17 -20 0 -21 321 -489 335 -489 9 0 18 6
21 14 3 8 -66 121 -158 259 -140 210 -166 244 -181 236z"/>
<path d="M11355 2776 c-18 -13 -11 -27 144 -260 90 -135 169 -246 176 -246 43
0 30 28 -127 264 -88 132 -164 244 -167 249 -4 4 -16 1 -26 -7z"/>
<path d="M5798 2673 c-16 -18 -10 -26 153 -198 277 -293 266 -282 286 -263 15
16 8 26 -113 153 -71 75 -169 179 -219 232 -87 92 -91 95 -107 76z"/>
<path d="M12938 2674 c-19 -19 -18 -20 301 -354 113 -118 120 -124 137 -108
16 16 11 24 -102 143 -342 362 -317 338 -336 319z"/>
<path d="M205 2590 c-4 -12 -5 -23 -3 -25 1 -2 108 -53 237 -115 233 -110 250
-116 251 -74 0 8 -392 202 -467 231 -6 2 -14 -5 -18 -17z"/>
<path d="M7379 2588 c-7 -14 -8 -23 -2 -25 5 -2 112 -53 238 -113 125 -61 229
-110 231 -110 2 0 8 9 14 20 10 19 -4 28 -225 135 -131 63 -239 115 -241 115
-2 0 -9 -10 -15 -22z"/>
<path d="M14521 2591 c-14 -25 -35 -12 239 -144 206 -99 226 -107 237 -91 7
10 13 20 13 23 0 5 -430 214 -471 229 -4 2 -12 -6 -18 -17z"/>
<path d="M2241 2350 c-145 -49 -266 -91 -268 -94 -3 -2 0 -13 6 -24 11 -20 19
-18 278 69 148 49 273 91 280 93 17 7 3 46 -16 45 -9 0 -135 -41 -280 -89z"/>
<path d="M9418 2352 c-141 -48 -260 -90 -263 -94 -4 -3 -4 -15 -1 -26 6 -19
22 -15 279 70 150 50 276 94 280 98 12 11 -4 40 -22 39 -9 0 -132 -40 -273
-87z"/>
<path d="M16558 2352 c-141 -48 -260 -90 -263 -94 -4 -3 -4 -15 -1 -26 6 -19
22 -15 279 70 150 50 276 94 280 98 12 11 -4 40 -22 39 -9 0 -132 -40 -273
-87z"/>
<path d="M3266 2223 c-3 -10 -43 -142 -91 -294 -47 -151 -85 -281 -85 -287 0
-7 10 -12 23 -12 21 0 29 21 115 297 92 297 94 312 55 313 -6 0 -14 -8 -17
-17z"/>
<path d="M5181 2143 c-93 -307 -151 -503 -151 -516 0 -8 9 -17 20 -20 22 -6
11 -37 139 388 71 237 71 240 29 244 -4 1 -21 -43 -37 -96z"/>
<path d="M10321 1945 c-50 -163 -89 -300 -86 -305 3 -6 14 -10 24 -10 14 0 35
56 109 297 92 297 95 312 56 313 -6 0 -52 -133 -103 -295z"/>
<path d="M12326 2158 c-104 -347 -156 -523 -156 -533 0 -17 40 -27 45 -12 15
43 183 612 182 613 -1 1 -12 5 -24 8 -20 6 -24 0 -47 -76z"/>
<path d="M17587 2233 c-6 -11 -175 -554 -179 -577 -2 -11 5 -21 18 -26 20 -8
26 6 113 285 50 161 91 298 91 303 0 5 -7 13 -16 16 -20 8 -22 8 -27 -1z"/>
<path d="M6727 2108 c-15 -12 -1 -40 135 -270 84 -142 158 -258 164 -258 42 0
28 31 -120 282 -83 142 -154 258 -157 258 -3 0 -13 -6 -22 -12z"/>
<path d="M14173 1833 c-115 -237 -129 -269 -115 -280 9 -7 19 -13 22 -13 4 0
65 120 137 268 116 236 129 268 115 280 -9 6 -19 12 -22 12 -4 0 -65 -120
-137 -267z"/>
<path d="M983 1781 c-144 -108 -268 -202 -275 -209 -10 -10 -9 -15 4 -28 14
-14 39 2 287 186 149 111 271 205 271 209 0 4 -6 14 -12 23 -11 13 -47 -10
-275 -181z"/>
<path d="M15278 1768 c-238 -180 -265 -203 -255 -220 7 -10 17 -16 24 -14 9 4
507 373 542 402 7 6 -21 34 -33 33 -6 0 -131 -91 -278 -201z"/>
<path d="M3780 1795 c0 -20 5 -25 24 -25 33 0 493 -28 584 -36 72 -6 72 -6 72
19 0 30 13 28 -388 52 -315 19 -292 20 -292 -10z"/>
<path d="M10920 1795 c0 -19 5 -25 23 -25 28 0 477 -27 578 -35 76 -6 76 -6
81 19 3 14 2 26 -1 26 -3 0 -145 9 -316 20 -395 25 -365 26 -365 -5z"/>
<path d="M8115 1789 c-104 -3 -214 -7 -242 -8 -50 -1 -53 -2 -53 -27 l0 -26
153 6 c83 3 239 9 345 12 l192 7 0 23 c0 24 -1 24 -102 22 -57 -1 -188 -5
-293 -9z"/>
<path d="M2201 1606 c-10 -12 19 -53 161 -229 95 -119 176 -216 179 -216 3 -1
13 5 23 12 16 12 3 31 -156 227 -95 117 -178 215 -184 217 -6 2 -16 -3 -23
-11z"/>
<path d="M9378 1607 c-15 -12 1 -35 149 -218 206 -255 189 -237 210 -217 15
16 4 32 -158 232 -95 119 -176 216 -179 216 -3 0 -13 -6 -22 -13z"/>
<path d="M16520 1605 c-9 -11 -9 -18 2 -33 38 -53 332 -412 338 -412 4 0 13 7
20 15 9 11 9 18 -2 33 -42 58 -333 412 -339 412 -4 0 -12 -7 -19 -15z"/>
<path d="M5706 1592 c-14 -13 -4 -41 16 -48 12 -3 140 -37 285 -74 202 -52
263 -64 265 -54 0 8 1 19 2 26 1 12 -559 160 -568 150z"/>
<path d="M13136 1459 c-148 -60 -271 -111 -273 -113 -3 -2 0 -13 6 -24 10 -20
22 -16 278 88 147 60 269 113 271 119 2 6 0 17 -5 25 -7 12 -56 -5 -277 -95z"/>
<path d="M3586 1120 c-169 -49 -310 -90 -312 -92 -8 -9 10 -49 20 -45 6 3 151
44 321 91 171 48 315 89 322 91 20 7 3 45 -21 44 -11 -1 -160 -41 -330 -89z"/>
<path d="M10732 1120 c-173 -49 -315 -90 -318 -92 -8 -9 10 -49 20 -45 6 2
153 44 326 92 173 48 319 91 323 95 12 11 -4 40 -22 39 -9 0 -157 -40 -329
-89z"/>
<path d="M8686 1156 c-13 -54 -96 -460 -96 -472 0 -8 10 -14 23 -14 22 0 25
11 71 233 26 127 49 239 52 248 3 11 -3 18 -20 21 -19 4 -26 0 -30 -16z"/>
<path d="M15830 1175 c0 -2 -22 -110 -50 -241 -27 -131 -50 -244 -50 -251 0
-7 10 -13 23 -13 23 0 25 9 71 233 26 127 49 239 52 248 3 12 -3 18 -21 21
-14 3 -25 4 -25 3z"/>
<path d="M17850 1105 c-241 -69 -255 -74 -255 -96 0 -13 5 -24 10 -23 6 1 121
32 258 70 246 69 247 69 247 96 0 16 -1 28 -2 27 -2 -1 -118 -34 -258 -74z"/>
<path d="M1466 933 c-27 -131 -49 -242 -50 -248 -2 -19 42 -17 48 2 9 32 96
455 96 469 0 8 -10 14 -23 14 -22 0 -25 -11 -71 -237z"/>
<path d="M4399 948 c-222 -260 -205 -236 -185 -256 14 -14 18 -14 30 -2 43 45
349 407 353 419 5 11 -12 30 -28 31 -3 0 -79 -86 -170 -192z"/>
<path d="M11539 948 c-222 -260 -205 -236 -185 -256 10 -10 19 -13 25 -7 6 6
91 104 190 220 159 185 178 211 164 223 -9 6 -20 12 -23 12 -3 0 -80 -86 -171
-192z"/>
<path d="M310 1105 c-13 -16 -8 -22 299 -345 94 -100 100 -104 117 -88 17 17
15 20 -37 75 -224 239 -354 373 -360 373 -3 0 -12 -7 -19 -15z"/>
<path d="M7480 1105 c-10 -12 20 -49 191 -227 112 -117 206 -214 209 -216 3
-1 14 4 24 11 18 13 4 30 -188 231 -115 119 -211 216 -216 216 -4 0 -13 -7
-20 -15z"/>
<path d="M14620 1105 c-10 -12 20 -49 191 -227 112 -117 209 -214 215 -216 6
-2 16 4 23 12 11 13 -19 48 -194 231 -114 118 -211 215 -215 215 -4 0 -13 -7
-20 -15z"/>
<path d="M6260 793 c-118 -91 -216 -170 -218 -177 -2 -7 3 -18 10 -24 11 -8
60 24 218 144 113 86 213 164 223 173 17 17 17 18 0 33 -17 14 -34 3 -233
-149z"/>
<path d="M13400 792 c-118 -90 -216 -169 -218 -176 -2 -7 3 -18 10 -24 10 -8
61 25 218 144 113 86 213 163 223 173 17 17 17 18 0 33 -17 14 -34 2 -233
-150z"/>
<path d="M5107 878 c-15 -12 0 -35 149 -228 202 -262 189 -249 210 -228 15 15
3 33 -156 240 -94 122 -175 224 -179 226 -4 1 -15 -3 -24 -10z"/>
<path d="M12247 878 c-15 -12 0 -35 149 -228 203 -263 189 -249 210 -228 16
15 4 33 -155 240 -95 123 -176 224 -180 226 -4 1 -14 -3 -24 -10z"/>
<path d="M6876 553 c-3 -21 -8 -138 -12 -261 l-7 -222 26 0 25 0 8 242 c5 134
9 250 9 258 0 8 -10 16 -22 18 -18 3 -22 -3 -27 -35z"/>
<path d="M14016 533 c-3 -32 -8 -149 -12 -260 l-7 -203 25 0 25 0 7 202 c4
112 9 229 12 261 6 56 5 57 -19 57 -23 0 -25 -4 -31 -57z"/>
<path d="M10431 546 c-11 -13 17 -47 181 -220 106 -112 198 -204 204 -205 6
-1 17 6 24 14 10 12 -19 47 -181 217 -107 112 -199 204 -205 206 -6 2 -16 -4
-23 -12z"/>
<path d="M2354 289 c-260 -213 -247 -199 -229 -223 13 -17 28 -7 232 159 120
98 224 183 231 190 10 9 9 15 -6 28 -17 16 -29 8 -228 -154z"/>
<path d="M9513 276 c-123 -100 -225 -185 -228 -188 -3 -2 3 -12 13 -21 17 -16
31 -6 245 169 208 169 226 187 214 204 -6 11 -14 20 -17 19 -3 0 -105 -82
-227 -183z"/>
<path d="M16653 277 c-122 -100 -222 -187 -222 -193 -1 -6 5 -17 12 -23 11 -8
63 29 240 174 208 170 226 187 214 205 -6 11 -14 20 -17 20 -3 -1 -105 -83
-227 -183z"/>
<path d="M3291 356 c-10 -12 18 -46 150 -185 150 -158 165 -171 197 -171 l35
0 -73 78 c-201 210 -282 292 -289 292 -5 0 -14 -6 -20 -14z"/>
<path d="M17610 355 c-14 -17 -20 -9 207 -248 92 -97 106 -108 134 -105 30 3
27 7 -142 186 -94 100 -175 182 -179 182 -4 0 -13 -7 -20 -15z"/>
<path d="M4430 100 c-85 -4 -165 -8 -178 -9 -18 -1 -23 -6 -20 -24 3 -20 8
-22 58 -21 30 1 157 5 283 9 l227 7 0 24 c0 24 0 24 -107 22 -60 -1 -178 -5
-263 -8z"/>
<path d="M11552 100 c-95 -4 -175 -9 -177 -12 -2 -2 -1 -14 2 -27 6 -22 9 -23
67 -17 34 3 159 8 279 12 l217 6 0 24 c0 24 -1 24 -107 22 -60 0 -186 -4 -281
-8z"/>
</g>
</svg>
