<?xml version="1.0" standalone="no"?>
<!DOCTYPE svg PUBLIC "-//W3C//DTD SVG 20010904//EN"
 "http://www.w3.org/TR/2001/REC-SVG-20010904/DTD/svg10.dtd">
<svg version="1.0" xmlns="http://www.w3.org/2000/svg"
 width="1125.000000pt" height="900.000000pt" viewBox="0 0 1125.000000 900.000000"
 preserveAspectRatio="xMidYMid meet">
<metadata>
Created by potrace 1.13, written by Peter Selinger 2001-2015
</metadata>
<g transform="translate(0.000000,900.000000) scale(0.100000,-0.100000)"
fill="#000000" stroke="none">
<path d="M0 4500 l0 -4500 5625 0 5625 0 0 4500 0 4500 -5625 0 -5625 0 0
-4500z m770 4455 c0 -3 -9 -14 -20 -25 -43 -43 -11 -120 50 -120 38 0 70 32
70 70 0 17 -9 39 -20 50 -11 11 -20 22 -20 25 0 3 69 5 154 5 l154 0 6 -35 c7
-38 38 -65 74 -65 31 0 72 43 72 75 l0 25 143 0 143 0 26 -30 c18 -20 35 -30
55 -30 19 0 39 10 58 30 l29 30 1888 0 1887 0 16 -30 c27 -53 103 -53 130 0
l16 30 1403 0 1404 0 19 -37 c33 -69 110 -65 135 8 l10 29 1276 -2 1277 -3 3
-26 c2 -21 -4 -31 -32 -47 -61 -36 -58 -112 4 -135 l30 -11 0 -373 c0 -205 -2
-373 -3 -373 -2 0 -18 7 -35 16 -27 13 -36 13 -59 2 -40 -19 -55 -54 -39 -92
16 -40 55 -55 93 -36 15 8 31 16 36 18 4 2 6 -254 5 -568 l-3 -572 -35 -12
c-41 -13 -59 -51 -44 -93 6 -19 21 -32 44 -39 l35 -12 3 -136 c3 -134 2 -136
-23 -158 -34 -30 -34 -80 0 -112 l25 -24 -2 -198 -3 -199 -31 -3 c-94 -9 -87
-142 7 -142 l29 0 0 -1115 0 -1115 -30 0 c-38 0 -80 -39 -80 -73 0 -37 31 -69
70 -72 l35 -2 2 -1069 3 -1069 -40 -17 c-69 -28 -64 -111 8 -133 l32 -9 0
-131 c0 -127 -1 -132 -25 -155 -35 -33 -35 -93 0 -116 l25 -16 0 -194 0 -194
-30 0 c-33 0 -69 -30 -71 -57 -1 -10 -2 -25 -3 -33 -1 -13 -28 -15 -164 -18
l-164 -3 21 27 c28 35 27 69 -4 99 -27 28 -42 30 -79 14 -42 -19 -52 -92 -17
-114 6 -3 11 -10 11 -16 0 -5 -830 -9 -2195 -9 l-2195 0 0 30 c0 38 -39 80
-73 80 -37 0 -69 -31 -72 -70 l-2 -35 -2053 -3 c-1813 -2 -2056 0 -2076 13
-30 19 -75 19 -100 0 -14 -11 -51 -14 -155 -15 -132 0 -136 1 -159 25 -30 32
-70 32 -108 0 -28 -23 -37 -25 -136 -25 -104 0 -107 1 -116 24 -21 55 -79 60
-124 11 l-32 -35 -117 0 -117 0 -14 35 c-26 61 -106 61 -132 0 l-14 -35 -145
0 -145 0 0 24 c0 31 -28 63 -60 71 -34 8 -76 -25 -85 -65 l-7 -31 -116 3 -117
3 -3 4445 c-1 2445 0 4451 3 4458 3 9 86 12 365 12 198 0 360 -2 360 -5z"/>
<path d="M8965 8915 c-28 -27 -30 -42 -14 -79 32 -69 139 -38 139 40 0 24 -47
64 -75 64 -14 0 -37 -11 -50 -25z"/>
<path d="M5162 8907 c-45 -48 -14 -117 51 -117 42 0 70 29 70 72 0 61 -78 91
-121 45z"/>
<path d="M341 8884 c-27 -35 -26 -59 4 -89 33 -34 77 -33 104 1 26 34 26 54 0
88 -15 19 -30 26 -54 26 -24 0 -39 -7 -54 -26z"/>
<path d="M9385 8865 c-14 -13 -25 -36 -25 -50 0 -30 41 -75 68 -75 35 0 72 38
72 73 0 38 -7 50 -37 66 -33 17 -51 14 -78 -14z"/>
<path d="M9842 8844 c-28 -20 -31 -83 -4 -107 25 -23 78 -21 102 3 61 61 -27
154 -98 104z"/>
<path d="M10291 8834 c-27 -35 -27 -65 2 -92 48 -46 120 -16 120 50 0 64 -83
92 -122 42z"/>
<path d="M10722 8837 c-44 -47 -13 -117 52 -117 41 0 69 29 69 72 0 61 -78 91
-121 45z"/>
<path d="M4731 8824 c-12 -15 -21 -34 -21 -44 0 -34 39 -70 75 -70 36 0 75 36
75 70 0 34 -39 70 -75 70 -24 0 -39 -7 -54 -26z"/>
<path d="M5985 8785 c-40 -39 -29 -95 22 -113 78 -27 136 76 70 123 -31 22
-65 18 -92 -10z"/>
<path d="M4331 8734 c-12 -15 -21 -34 -21 -44 0 -32 39 -70 71 -70 34 0 79 39
79 68 0 35 -38 72 -75 72 -24 0 -39 -7 -54 -26z"/>
<path d="M3950 8683 c-53 -19 -67 -83 -27 -121 29 -28 57 -28 91 -1 46 37 30
106 -29 122 -11 3 -27 3 -35 0z"/>
<path d="M3522 8590 c-32 -30 -30 -82 5 -110 70 -55 151 42 88 105 -29 30 -64
32 -93 5z"/>
<path d="M6437 8592 c-23 -25 -21 -78 3 -102 61 -61 154 27 104 98 -20 28 -83
31 -107 4z"/>
<path d="M4763 8592 c-51 -8 -70 -83 -30 -120 48 -45 117 -14 117 51 0 48 -38
77 -87 69z"/>
<path d="M3090 8510 c-24 -24 -26 -67 -4 -98 20 -28 83 -31 107 -4 40 45 6
122 -53 122 -17 0 -39 -9 -50 -20z"/>
<path d="M2702 8457 c-45 -48 -17 -117 47 -117 46 0 71 24 71 68 0 65 -74 96
-118 49z"/>
<path d="M5115 8405 c-29 -28 -31 -51 -9 -83 43 -62 134 -32 134 44 0 24 -47
64 -75 64 -14 0 -37 -11 -50 -25z"/>
<path d="M6912 8414 c-28 -20 -31 -83 -4 -107 25 -23 78 -21 102 3 61 61 -27
154 -98 104z"/>
<path d="M2289 8372 c-15 -13 -22 -30 -22 -51 0 -66 76 -98 123 -51 27 27 25
66 -5 95 -29 30 -64 32 -96 7z"/>
<path d="M1875 8315 c-43 -42 -23 -106 35 -120 38 -9 80 27 80 68 0 38 -7 50
-37 66 -33 17 -51 14 -78 -14z"/>
<path d="M7402 8277 c-44 -47 -13 -117 52 -117 41 0 69 29 69 72 0 61 -78 91
-121 45z"/>
<path d="M5497 8272 c-23 -25 -21 -78 3 -102 61 -61 154 27 104 98 -20 28 -83
31 -107 4z"/>
<path d="M1459 8242 c-49 -40 -17 -122 48 -122 65 0 93 61 52 114 -25 31 -66
35 -100 8z"/>
<path d="M1051 8154 c-27 -35 -26 -59 4 -89 33 -34 77 -33 104 1 12 15 21 34
21 44 0 34 -39 70 -75 70 -24 0 -39 -7 -54 -26z"/>
<path d="M3530 8173 c-51 -19 -68 -85 -30 -123 45 -45 120 -11 120 54 0 50
-46 85 -90 69z"/>
<path d="M7907 8148 c-41 -32 -38 -94 6 -123 46 -30 107 6 107 63 0 51 -73 90
-113 60z"/>
<path d="M649 8137 c-37 -19 -53 -60 -37 -94 26 -55 104 -54 130 2 26 57 -37
119 -93 92z"/>
<path d="M5891 8094 c-12 -15 -21 -34 -21 -44 0 -32 39 -70 71 -70 34 0 79 39
79 68 0 35 -38 72 -75 72 -24 0 -39 -7 -54 -26z"/>
<path d="M225 8055 c-30 -30 -31 -54 -4 -89 15 -19 30 -26 54 -26 37 0 75 37
75 72 0 27 -45 68 -75 68 -14 0 -37 -11 -50 -25z"/>
<path d="M8355 8045 c-14 -13 -25 -36 -25 -50 0 -28 40 -75 64 -75 29 0 64 22
75 48 16 33 -1 75 -35 91 -37 16 -52 14 -79 -14z"/>
<path d="M1732 7994 c-28 -20 -31 -83 -4 -107 45 -40 122 -6 122 53 0 59 -67
90 -118 54z"/>
<path d="M3897 7992 c-25 -28 -22 -87 5 -106 72 -51 153 30 102 102 -20 28
-83 31 -107 4z"/>
<path d="M6285 7975 c-40 -39 -29 -95 22 -113 78 -27 136 76 70 123 -31 22
-65 18 -92 -10z"/>
<path d="M8871 7974 c-12 -15 -21 -34 -21 -44 0 -34 39 -70 75 -70 36 0 75 36
75 70 0 34 -39 70 -75 70 -24 0 -39 -7 -54 -26z"/>
<path d="M10672 7973 c-7 -3 -19 -18 -28 -35 -12 -24 -13 -36 -4 -58 11 -27
46 -50 76 -50 24 0 64 47 64 75 0 49 -60 87 -108 68z"/>
<path d="M9340 7938 c-27 -29 -25 -69 3 -96 46 -43 120 -15 120 46 0 66 -78
98 -123 50z"/>
<path d="M9785 7925 c-30 -30 -31 -54 -4 -89 20 -26 69 -36 95 -18 15 10 34
47 34 67 0 25 -46 65 -75 65 -14 0 -37 -11 -50 -25z"/>
<path d="M10225 7930 c-42 -46 -10 -120 52 -120 42 0 73 30 73 70 0 62 -84 95
-125 50z"/>
<path d="M4296 7879 c-36 -28 -36 -80 0 -108 15 -12 34 -21 44 -21 34 0 70 39
70 75 0 36 -36 75 -70 75 -10 0 -29 -9 -44 -21z"/>
<path d="M6685 7845 c-28 -27 -30 -42 -14 -79 32 -69 139 -38 139 40 0 24 -47
64 -75 64 -14 0 -37 -11 -50 -25z"/>
<path d="M2126 7819 c-34 -27 -35 -71 -1 -104 27 -28 42 -30 79 -14 37 17 51
60 32 97 -24 47 -66 55 -110 21z"/>
<path d="M272 7794 c-62 -43 -32 -134 44 -134 24 0 64 47 64 75 0 30 -41 75
-67 75 -10 0 -29 -7 -41 -16z"/>
<path d="M4680 7730 c-43 -43 -11 -120 50 -120 17 0 39 9 50 20 26 26 26 81 2
103 -25 23 -78 21 -102 -3z"/>
<path d="M7075 7695 c-14 -13 -25 -36 -25 -50 0 -14 11 -37 25 -50 13 -14 36
-25 50 -25 14 0 37 11 50 25 14 13 25 36 25 50 0 14 -11 37 -25 50 -13 14 -36
25 -50 25 -14 0 -37 -11 -50 -25z"/>
<path d="M2510 7690 c-26 -26 -26 -81 -2 -103 44 -40 122 -7 122 51 0 60 -78
94 -120 52z"/>
<path d="M5076 7619 c-46 -36 -26 -110 34 -124 39 -9 80 27 80 70 0 36 -36 75
-70 75 -10 0 -29 -9 -44 -21z"/>
<path d="M671 7584 c-12 -15 -21 -34 -21 -44 0 -34 39 -70 75 -70 36 0 75 36
75 70 0 34 -39 70 -75 70 -24 0 -39 -7 -54 -26z"/>
<path d="M7505 7578 c-49 -26 -58 -69 -24 -112 27 -34 71 -35 104 -1 33 32 31
60 -4 96 -32 31 -45 34 -76 17z"/>
<path d="M10212 7565 c-59 -25 -51 -107 11 -130 62 -21 118 52 80 103 -26 34
-53 42 -91 27z"/>
<path d="M2890 7523 c-55 -70 42 -151 105 -88 30 29 32 64 5 93 -30 32 -82 30
-110 -5z"/>
<path d="M5475 7465 c-14 -13 -25 -30 -25 -37 1 -59 51 -98 100 -78 27 11 50
46 50 76 0 24 -47 64 -75 64 -14 0 -37 -11 -50 -25z"/>
<path d="M7890 7430 c-45 -45 -11 -120 53 -120 42 0 70 29 70 70 0 63 -78 95
-123 50z"/>
<path d="M1082 7424 c-16 -11 -22 -25 -22 -54 0 -29 6 -43 22 -54 51 -36 118
-5 118 54 0 59 -67 90 -118 54z"/>
<path d="M3285 7405 c-14 -13 -25 -36 -25 -50 0 -28 40 -75 64 -75 78 0 109
107 40 139 -37 16 -52 14 -79 -14z"/>
<path d="M10610 7407 c-52 -26 -49 -104 4 -128 81 -37 138 73 64 125 -27 19
-35 20 -68 3z"/>
<path d="M5893 7380 c-46 -19 -57 -83 -20 -118 47 -44 117 -13 117 52 0 50
-50 84 -97 66z"/>
<path d="M8320 7363 c-76 -27 -58 -143 21 -143 55 0 92 87 52 122 -22 19 -53
28 -73 21z"/>
<path d="M11003 7285 c-43 -30 -38 -88 12 -121 21 -14 30 -14 55 -4 55 23 66
75 25 115 -27 28 -61 32 -92 10z"/>
<path d="M6287 7260 c-19 -15 -27 -30 -27 -53 0 -38 7 -50 37 -66 33 -17 51
-14 78 14 63 63 -18 160 -88 105z"/>
<path d="M1480 7250 c-62 -62 25 -155 98 -104 28 20 31 83 4 107 -25 23 -78
21 -102 -3z"/>
<path d="M3713 7262 c-51 -8 -70 -83 -30 -120 48 -45 117 -14 117 51 0 48 -38
77 -87 69z"/>
<path d="M8696 7229 c-50 -39 -22 -122 42 -122 43 0 72 28 72 70 0 65 -61 93
-114 52z"/>
<path d="M142 7185 c-59 -25 -51 -107 11 -130 62 -21 118 52 80 103 -26 34
-53 42 -91 27z"/>
<path d="M9092 7144 c-50 -34 -15 -124 48 -124 17 0 39 9 50 20 11 11 20 33
20 50 0 59 -67 90 -118 54z"/>
<path d="M4075 7125 c-41 -40 -30 -92 25 -115 25 -10 34 -10 55 4 50 33 55 91
12 121 -31 22 -65 18 -92 -10z"/>
<path d="M6695 7138 c-48 -28 -57 -70 -24 -112 15 -19 30 -26 54 -26 24 0 39
7 54 26 12 15 21 33 21 40 0 29 -25 64 -53 74 -16 5 -30 10 -31 10 -1 0 -10
-6 -21 -12z"/>
<path d="M1870 7080 c-61 -61 27 -154 98 -104 28 20 31 83 4 107 -25 23 -78
21 -102 -3z"/>
<path d="M515 7065 c-30 -30 -31 -54 -4 -89 15 -19 30 -26 54 -26 37 0 75 37
75 72 0 27 -45 68 -75 68 -14 0 -37 -11 -50 -25z"/>
<path d="M9500 7020 c-42 -42 -10 -120 48 -120 46 0 72 26 72 70 0 29 -6 43
-22 54 -31 22 -74 20 -98 -4z"/>
<path d="M4493 7018 c-27 -13 -43 -55 -32 -84 9 -26 47 -54 72 -54 26 0 67 45
67 75 0 30 -41 75 -67 74 -10 0 -28 -5 -40 -11z"/>
<path d="M7087 7012 c-23 -25 -21 -78 3 -102 45 -45 120 -11 120 53 0 20 -8
41 -18 50 -25 23 -85 22 -105 -1z"/>
<path d="M920 6980 c-26 -26 -26 -81 0 -105 29 -26 79 -24 102 4 27 34 23 75
-8 100 -34 26 -68 27 -94 1z"/>
<path d="M9905 6945 c-40 -39 -29 -97 22 -116 36 -13 78 5 93 40 31 75 -58
134 -115 76z"/>
<path d="M2239 6942 c-49 -40 -17 -122 48 -122 65 0 93 61 52 114 -25 31 -66
35 -100 8z"/>
<path d="M1379 6908 c-16 -5 -32 -22 -39 -39 -35 -84 84 -137 129 -58 31 55
-28 118 -90 97z"/>
<path d="M7501 6894 c-12 -15 -21 -34 -21 -44 0 -34 39 -70 75 -70 36 0 75 36
75 70 0 34 -39 70 -75 70 -24 0 -39 -7 -54 -26z"/>
<path d="M10322 6870 c-48 -45 -16 -123 50 -123 64 0 92 83 42 122 -34 27 -64
27 -92 1z"/>
<path d="M4867 6862 c-23 -25 -21 -78 3 -102 45 -45 120 -11 120 53 0 20 -8
41 -18 50 -25 23 -85 22 -105 -1z"/>
<path d="M7922 6844 c-63 -44 -37 -134 39 -134 28 0 69 44 69 73 0 55 -65 92
-108 61z"/>
<path d="M2602 6807 c-45 -48 -14 -117 51 -117 42 0 67 26 67 68 0 65 -74 96
-118 49z"/>
<path d="M10721 6804 c-41 -53 -13 -114 52 -114 42 0 70 29 70 72 0 64 -83 92
-122 42z"/>
<path d="M5282 6737 c-26 -27 -28 -64 -7 -94 49 -70 160 0 120 76 -24 47 -78
56 -113 18z"/>
<path d="M8311 6734 c-12 -15 -21 -34 -21 -44 0 -10 9 -29 21 -44 41 -52 122
-23 122 44 0 67 -81 96 -122 44z"/>
<path d="M8733 6688 c-52 -25 -52 -105 1 -129 83 -38 147 84 66 126 -33 17
-37 17 -67 3z"/>
<path d="M326 6669 c-36 -28 -36 -80 0 -108 15 -12 34 -21 44 -21 34 0 70 39
70 75 0 36 -36 75 -70 75 -10 0 -29 -9 -44 -21z"/>
<path d="M3017 6652 c-40 -44 -7 -122 51 -122 60 0 94 78 52 120 -26 26 -81
26 -103 2z"/>
<path d="M780 6633 c-51 -19 -68 -85 -30 -123 61 -61 159 32 103 98 -20 23
-50 33 -73 25z"/>
<path d="M5710 6627 c-52 -26 -49 -104 5 -129 58 -26 119 33 95 91 -6 16 -23
33 -36 40 -31 14 -33 14 -64 -2z"/>
<path d="M9135 6575 c-58 -57 1 -145 78 -116 54 21 56 111 2 131 -39 15 -54
12 -80 -15z"/>
<path d="M1205 6545 c-28 -27 -30 -42 -14 -79 32 -69 139 -38 139 40 0 24 -47
64 -75 64 -14 0 -37 -11 -50 -25z"/>
<path d="M6095 6535 c-14 -13 -25 -36 -25 -50 0 -28 40 -75 64 -75 78 0 109
107 40 139 -37 16 -52 14 -79 -14z"/>
<path d="M9537 6522 c-40 -45 -6 -122 53 -122 59 0 90 67 54 118 -20 28 -83
31 -107 4z"/>
<path d="M1675 6505 c-39 -39 -32 -86 17 -111 59 -30 122 27 99 89 -19 51 -77
62 -116 22z"/>
<path d="M3452 6514 c-28 -20 -31 -83 -4 -107 25 -23 78 -21 102 3 61 61 -27
154 -98 104z"/>
<path d="M2145 6455 c-28 -27 -32 -61 -10 -92 47 -66 150 -8 123 70 -18 51
-74 62 -113 22z"/>
<path d="M9931 6454 c-27 -34 -27 -64 -1 -92 47 -50 140 -6 125 58 -14 60 -88
80 -124 34z"/>
<path d="M2603 6458 c-12 -6 -27 -24 -34 -40 -34 -83 86 -136 130 -57 19 33 1
81 -35 98 -29 13 -32 13 -61 -1z"/>
<path d="M2992 6434 c-29 -20 -30 -76 -2 -104 43 -43 120 -11 120 50 0 59 -67
90 -118 54z"/>
<path d="M6502 6433 c-52 -44 -24 -123 44 -123 68 0 97 68 49 115 -28 29 -65
32 -93 8z"/>
<path d="M10400 6402 c-51 -16 -68 -84 -30 -122 57 -57 149 18 110 90 -11 20
-58 39 -80 32z"/>
<path d="M3852 6377 c-45 -48 -14 -117 51 -117 42 0 67 26 67 68 0 65 -74 96
-118 49z"/>
<path d="M6891 6344 c-12 -15 -21 -34 -21 -44 0 -34 39 -70 75 -70 36 0 75 36
75 70 0 34 -39 70 -75 70 -24 0 -39 -7 -54 -26z"/>
<path d="M10790 6350 c-43 -43 -11 -120 50 -120 38 0 70 32 70 70 0 38 -32 70
-70 70 -17 0 -39 -9 -50 -20z"/>
<path d="M330 6260 c-62 -62 31 -158 99 -102 28 22 31 75 6 102 -24 26 -79 26
-105 0z"/>
<path d="M4227 6262 c-23 -25 -21 -78 3 -102 43 -43 120 -11 120 50 0 17 -9
39 -20 50 -26 26 -81 26 -103 2z"/>
<path d="M7312 6237 c-45 -48 -14 -117 51 -117 42 0 67 26 67 68 0 65 -74 96
-118 49z"/>
<path d="M771 6214 c-12 -15 -21 -35 -21 -46 0 -27 45 -68 75 -68 29 0 75 40
75 65 0 20 -19 57 -34 67 -26 18 -75 8 -95 -18z"/>
<path d="M1213 6200 c-48 -19 -58 -87 -17 -119 53 -41 114 -13 114 52 0 51
-50 86 -97 67z"/>
<path d="M7711 6164 c-12 -15 -21 -35 -21 -46 0 -27 45 -68 75 -68 29 0 75 40
75 65 0 20 -19 57 -34 67 -26 18 -75 8 -95 -18z"/>
<path d="M1643 6160 c-49 -20 -56 -90 -11 -123 73 -54 153 56 82 112 -29 23
-38 24 -71 11z"/>
<path d="M4663 6158 c-68 -33 -40 -138 37 -138 28 0 70 44 70 73 0 51 -61 88
-107 65z"/>
<path d="M2037 6132 c-25 -28 -22 -87 5 -106 71 -50 159 43 98 104 -26 26 -81
26 -103 2z"/>
<path d="M2495 6105 c-37 -37 -30 -91 16 -115 55 -30 123 32 99 90 -11 27 -46
50 -76 50 -8 0 -26 -11 -39 -25z"/>
<path d="M8126 6098 c-50 -71 43 -159 104 -98 26 26 26 81 2 103 -28 25 -87
22 -106 -5z"/>
<path d="M3051 6074 c-24 -30 -26 -46 -10 -77 16 -30 28 -37 66 -37 41 0 77
42 68 80 -14 60 -88 80 -124 34z"/>
<path d="M3599 6068 c-16 -5 -32 -22 -39 -39 -35 -84 84 -137 129 -58 31 55
-28 118 -90 97z"/>
<path d="M4091 6034 c-12 -15 -21 -34 -21 -44 0 -34 39 -70 75 -70 36 0 75 36
75 70 0 34 -39 70 -75 70 -24 0 -39 -7 -54 -26z"/>
<path d="M5052 6030 c-48 -45 -16 -123 50 -123 64 0 92 83 42 122 -34 27 -64
27 -92 1z"/>
<path d="M8540 6010 c-26 -26 -26 -81 0 -105 29 -26 79 -24 102 4 27 34 23 75
-8 100 -34 26 -68 27 -94 1z"/>
<path d="M8956 5958 c-36 -51 -5 -118 54 -118 59 0 90 67 54 118 -11 16 -25
22 -54 22 -29 0 -43 -6 -54 -22z"/>
<path d="M5455 5935 c-40 -39 -29 -97 22 -116 84 -32 137 93 56 130 -36 16
-51 14 -78 -14z"/>
<path d="M9345 5885 c-14 -13 -25 -31 -25 -39 0 -30 23 -65 50 -76 58 -24 120
44 90 99 -24 46 -78 53 -115 16z"/>
<path d="M5836 5849 c-19 -15 -26 -30 -26 -54 0 -36 36 -75 70 -75 34 0 70 39
70 75 0 36 -36 75 -70 75 -10 0 -29 -9 -44 -21z"/>
<path d="M9793 5838 c-68 -33 -40 -138 37 -138 28 0 70 44 70 73 0 51 -61 88
-107 65z"/>
<path d="M10273 5818 c-12 -6 -27 -24 -34 -40 -34 -83 86 -136 130 -57 19 33
1 81 -35 98 -29 13 -32 13 -61 -1z"/>
<path d="M10710 5780 c-43 -43 -11 -120 50 -120 38 0 70 32 70 70 0 38 -32 70
-70 70 -17 0 -39 -9 -50 -20z"/>
<path d="M6230 5763 c-53 -19 -68 -86 -28 -123 63 -59 157 32 101 98 -20 23
-50 33 -73 25z"/>
<path d="M309 5742 c-49 -40 -17 -122 48 -122 65 0 93 61 52 114 -25 31 -66
35 -100 8z"/>
<path d="M699 5692 c-49 -40 -17 -122 48 -122 65 0 93 61 52 114 -25 31 -66
35 -100 8z"/>
<path d="M1110 5660 c-27 -27 -25 -66 5 -95 63 -63 160 18 105 88 -27 34 -80
37 -110 7z"/>
<path d="M6626 5665 c-59 -60 10 -155 83 -114 63 36 42 121 -31 127 -23 2 -41
-3 -52 -13z"/>
<path d="M5681 5644 c-12 -15 -21 -34 -21 -44 0 -34 39 -70 75 -70 43 0 79 41
70 80 -14 60 -88 80 -124 34z"/>
<path d="M1527 5648 c-41 -32 -38 -94 6 -123 46 -30 107 6 107 63 0 51 -73 90
-113 60z"/>
<path d="M1943 5640 c-48 -19 -58 -87 -17 -119 34 -27 64 -27 92 -1 57 53 -3
149 -75 120z"/>
<path d="M2350 5610 c-43 -43 -11 -120 50 -120 38 0 70 32 70 70 0 38 -32 70
-70 70 -17 0 -39 -9 -50 -20z"/>
<path d="M5265 5610 c-41 -45 -10 -120 50 -120 38 0 75 35 75 71 0 58 -87 91
-125 49z"/>
<path d="M2777 5588 c-37 -33 -40 -75 -7 -108 27 -27 66 -25 95 5 29 28 32 65
8 93 -28 33 -66 37 -96 10z"/>
<path d="M3195 5585 c-14 -13 -25 -36 -25 -50 0 -28 40 -75 64 -75 29 0 64 22
75 48 16 33 -1 75 -35 91 -37 16 -52 14 -79 -14z"/>
<path d="M4880 5597 c-52 -26 -49 -104 5 -129 58 -26 119 33 95 91 -6 16 -23
33 -36 40 -31 14 -33 14 -64 -2z"/>
<path d="M7033 5598 c-68 -33 -40 -138 37 -138 28 0 70 44 70 73 0 51 -61 88
-107 65z"/>
<path d="M3610 5570 c-24 -24 -26 -67 -4 -98 11 -16 25 -22 54 -22 29 0 43 6
54 22 36 51 5 118 -54 118 -17 0 -39 -9 -50 -20z"/>
<path d="M4060 5583 c-55 -20 -68 -87 -24 -122 15 -12 34 -21 44 -21 33 0 70
39 70 74 0 46 -49 84 -90 69z"/>
<path d="M4470 5583 c-51 -19 -68 -85 -30 -123 61 -61 159 33 103 98 -20 23
-50 33 -73 25z"/>
<path d="M7432 5517 c-45 -48 -14 -117 51 -117 43 0 67 26 67 73 0 63 -74 91
-118 44z"/>
<path d="M7875 5425 c-28 -27 -31 -45 -14 -78 16 -30 28 -37 66 -37 35 0 73
37 73 72 0 27 -45 68 -75 68 -14 0 -37 -11 -50 -25z"/>
<path d="M6840 5377 c-14 -7 -31 -25 -38 -40 -27 -56 35 -115 93 -89 55 25 58
100 5 127 -35 18 -29 18 -60 2z"/>
<path d="M8329 5378 c-16 -5 -32 -22 -39 -39 -35 -84 84 -137 129 -58 31 55
-28 118 -90 97z"/>
<path d="M6473 5340 c-25 -10 -43 -39 -43 -70 0 -29 44 -70 75 -70 62 0 89 89
39 129 -29 23 -38 24 -71 11z"/>
<path d="M8731 5304 c-12 -15 -21 -34 -21 -44 0 -34 39 -70 75 -70 36 0 75 36
75 70 0 34 -39 70 -75 70 -24 0 -39 -7 -54 -26z"/>
<path d="M6065 5285 c-14 -13 -25 -36 -25 -50 0 -30 41 -75 68 -75 35 0 72 38
72 75 0 24 -7 39 -26 54 -35 27 -59 26 -89 -4z"/>
<path d="M9112 5257 c-45 -48 -14 -117 51 -117 42 0 67 26 67 68 0 65 -74 96
-118 49z"/>
<path d="M5703 5252 c-51 -8 -70 -83 -30 -120 48 -45 117 -14 117 51 0 48 -38
77 -87 69z"/>
<path d="M9502 5217 c-45 -48 -14 -117 51 -117 42 0 70 29 70 72 0 61 -78 91
-121 45z"/>
<path d="M5268 5204 c-51 -27 -46 -101 7 -126 58 -26 119 33 95 91 -6 16 -23
33 -36 40 -31 14 -33 14 -66 -5z"/>
<path d="M9840 5180 c-43 -43 -11 -120 50 -120 41 0 70 31 70 74 0 60 -77 89
-120 46z"/>
<path d="M4815 5155 c-14 -13 -25 -36 -25 -50 0 -29 40 -75 65 -75 20 0 57 19
67 34 18 26 8 75 -18 95 -35 27 -59 26 -89 -4z"/>
<path d="M10240 5140 c-42 -42 -8 -120 53 -120 58 0 91 85 49 123 -25 23 -78
21 -102 -3z"/>
<path d="M4410 5130 c-26 -26 -26 -81 -2 -103 44 -40 122 -7 122 51 0 60 -78
94 -120 52z"/>
<path d="M7990 5130 c-26 -26 -26 -81 -2 -103 44 -40 122 -7 122 51 0 60 -78
94 -120 52z"/>
<path d="M3996 5119 c-34 -27 -35 -71 -1 -104 30 -30 54 -31 89 -4 36 28 36
80 0 108 -15 12 -34 21 -44 21 -10 0 -29 -9 -44 -21z"/>
<path d="M10626 5119 c-19 -15 -26 -30 -26 -54 0 -36 36 -75 70 -75 34 0 70
39 70 75 0 36 -36 75 -70 75 -10 0 -29 -9 -44 -21z"/>
<path d="M3572 5094 c-28 -20 -31 -83 -4 -107 25 -23 78 -21 102 3 61 61 -27
154 -98 104z"/>
<path d="M11031 5084 c-12 -15 -21 -34 -21 -44 0 -34 39 -70 75 -70 36 0 75
36 75 70 0 34 -39 70 -75 70 -24 0 -39 -7 -54 -26z"/>
<path d="M215 5075 c-14 -13 -25 -31 -25 -39 0 -30 23 -65 50 -76 58 -24 120
44 90 99 -24 46 -78 53 -115 16z"/>
<path d="M676 5079 c-46 -36 -26 -110 34 -124 39 -9 80 27 80 70 0 36 -36 75
-70 75 -10 0 -29 -9 -44 -21z"/>
<path d="M3212 5074 c-63 -44 -37 -134 39 -134 28 0 69 44 69 73 0 55 -65 92
-108 61z"/>
<path d="M1090 5060 c-42 -42 -8 -120 53 -120 58 0 91 85 49 123 -25 23 -78
21 -102 -3z"/>
<path d="M1543 5068 c-51 -24 -50 -106 1 -129 83 -38 147 84 66 126 -33 17
-37 17 -67 3z"/>
<path d="M1931 5044 c-12 -15 -21 -34 -21 -44 0 -34 39 -70 75 -70 36 0 75 36
75 70 0 34 -39 70 -75 70 -24 0 -39 -7 -54 -26z"/>
<path d="M2373 5058 c-68 -33 -40 -138 37 -138 28 0 70 44 70 73 0 51 -61 88
-107 65z"/>
<path d="M2765 5050 c-42 -46 -8 -120 54 -120 34 0 71 37 71 71 0 60 -85 93
-125 49z"/>
<path d="M7639 5002 c-49 -40 -17 -122 48 -122 65 0 93 61 52 114 -25 31 -66
35 -100 8z"/>
<path d="M7264 4868 c-69 -33 -37 -138 42 -138 24 0 64 47 64 75 0 30 -41 75
-67 74 -10 0 -28 -5 -39 -11z"/>
<path d="M9341 4834 c-12 -15 -21 -34 -21 -44 0 -10 9 -29 21 -44 41 -52 122
-23 122 44 0 67 -81 96 -122 44z"/>
<path d="M6867 4789 c-48 -28 -40 -107 13 -129 23 -9 34 -9 58 4 49 25 56 72
17 111 -25 26 -58 31 -88 14z"/>
<path d="M8930 4730 c-26 -26 -26 -81 -2 -103 28 -25 87 -22 106 5 50 71 -43
159 -104 98z"/>
<path d="M6450 4670 c-62 -62 31 -158 99 -102 28 22 31 75 6 102 -24 26 -79
26 -105 0z"/>
<path d="M8520 4640 c-42 -42 -12 -120 48 -120 46 0 72 25 72 70 0 29 -6 43
-22 54 -31 22 -74 20 -98 -4z"/>
<path d="M9960 4647 c-13 -7 -29 -25 -34 -39 -29 -83 94 -137 128 -56 17 39
11 63 -22 88 -29 23 -38 24 -72 7z"/>
<path d="M6040 4610 c-43 -43 -11 -120 50 -120 38 0 70 32 70 70 0 38 -32 70
-70 70 -17 0 -39 -9 -50 -20z"/>
<path d="M5627 4562 c-23 -25 -21 -78 3 -102 43 -43 120 -11 120 50 0 17 -9
39 -20 50 -26 26 -81 26 -103 2z"/>
<path d="M8129 4542 c-49 -40 -17 -122 48 -122 65 0 93 61 52 114 -25 31 -66
35 -100 8z"/>
<path d="M5219 4502 c-48 -40 -17 -122 47 -122 66 0 98 74 51 118 -28 27 -67
28 -98 4z"/>
<path d="M9541 4474 c-27 -34 -27 -64 -1 -92 45 -48 123 -16 123 50 0 64 -83
92 -122 42z"/>
<path d="M4796 4467 c-49 -49 -21 -121 48 -121 46 0 70 23 70 69 0 42 -18 62
-61 71 -26 5 -37 1 -57 -19z"/>
<path d="M7722 4440 c-48 -45 -16 -123 50 -123 64 0 92 83 42 122 -34 27 -64
27 -92 1z"/>
<path d="M4403 4420 c-25 -10 -43 -39 -43 -70 0 -29 44 -70 75 -70 62 0 89 89
39 129 -29 23 -38 24 -71 11z"/>
<path d="M3960 4380 c-42 -42 -8 -120 53 -120 58 0 91 85 49 123 -25 23 -78
21 -102 -3z"/>
<path d="M9165 4378 c-50 -27 -59 -75 -20 -113 29 -30 64 -32 96 -7 59 48 -9
157 -76 120z"/>
<path d="M3556 4349 c-46 -36 -26 -110 34 -124 38 -9 80 27 80 68 0 38 -7 50
-37 66 -31 16 -47 14 -77 -10z"/>
<path d="M7312 4347 c-45 -48 -14 -117 51 -117 42 0 67 26 67 68 0 65 -74 96
-118 49z"/>
<path d="M3155 4295 c-40 -39 -29 -97 22 -116 62 -23 119 40 89 99 -25 49 -72
56 -111 17z"/>
<path d="M2726 4279 c-36 -28 -36 -80 0 -108 15 -12 34 -21 44 -21 34 0 70 39
70 75 0 36 -36 75 -70 75 -10 0 -29 -9 -44 -21z"/>
<path d="M6918 4285 c-54 -30 -42 -116 18 -131 83 -21 126 99 48 135 -31 14
-33 14 -66 -4z"/>
<path d="M2310 4240 c-11 -11 -20 -33 -20 -50 0 -17 9 -39 20 -50 11 -11 33
-20 50 -20 17 0 39 9 50 20 11 11 20 33 20 50 0 17 -9 39 -20 50 -11 11 -33
20 -50 20 -17 0 -39 -9 -50 -20z"/>
<path d="M8773 4248 c-68 -33 -40 -138 37 -138 28 0 70 44 70 73 0 51 -61 88
-107 65z"/>
<path d="M1890 4220 c-26 -26 -26 -81 -2 -103 44 -40 122 -7 122 51 0 60 -78
94 -120 52z"/>
<path d="M1486 4199 c-19 -15 -26 -30 -26 -54 0 -36 36 -75 70 -75 34 0 70 39
70 75 0 36 -36 75 -70 75 -10 0 -29 -9 -44 -21z"/>
<path d="M6513 4198 c-28 -14 -43 -55 -31 -89 9 -26 44 -49 74 -49 24 0 64 47
64 75 0 30 -41 75 -67 74 -10 0 -28 -5 -40 -11z"/>
<path d="M655 4175 c-40 -39 -29 -95 22 -113 78 -27 136 76 70 123 -31 22 -65
18 -92 -10z"/>
<path d="M1062 4193 c-7 -3 -19 -18 -28 -35 -13 -24 -13 -35 -4 -58 31 -74
140 -51 140 30 0 45 -63 81 -108 63z"/>
<path d="M253 4160 c-46 -19 -57 -83 -20 -118 48 -45 117 -14 117 51 0 51 -50
86 -97 67z"/>
<path d="M11065 4145 c-46 -45 -19 -118 43 -118 58 0 93 53 67 102 -24 48 -72
55 -110 16z"/>
<path d="M6110 4143 c-74 -27 -62 -143 15 -143 33 0 75 42 75 73 0 44 -51 84
-90 70z"/>
<path d="M10645 4125 c-14 -13 -25 -36 -25 -50 0 -30 41 -75 68 -75 35 0 72
38 72 73 0 38 -7 50 -37 66 -33 17 -51 14 -78 -14z"/>
<path d="M9810 4120 c-42 -42 -8 -120 53 -120 58 0 91 85 49 123 -25 23 -78
21 -102 -3z"/>
<path d="M8373 4118 c-12 -6 -27 -23 -33 -38 -24 -58 44 -120 99 -90 46 24 53
78 16 115 -26 27 -47 30 -82 13z"/>
<path d="M9401 4104 c-12 -15 -21 -35 -21 -46 0 -27 45 -68 75 -68 30 0 75 41
75 68 0 35 -38 72 -75 72 -24 0 -39 -7 -54 -26z"/>
<path d="M10255 4118 c-50 -27 -59 -75 -20 -113 42 -43 106 -23 120 36 12 48
-57 101 -100 77z"/>
<path d="M5676 4039 c-19 -15 -26 -30 -26 -54 0 -36 36 -75 70 -75 34 0 70 39
70 75 0 36 -36 75 -70 75 -10 0 -29 -9 -44 -21z"/>
<path d="M5256 3989 c-46 -36 -26 -110 34 -124 64 -15 108 78 58 125 -28 26
-58 26 -92 -1z"/>
<path d="M7955 3985 c-30 -30 -31 -54 -4 -89 15 -19 30 -26 54 -26 36 0 75 36
75 70 0 10 -9 29 -21 44 -27 34 -71 35 -104 1z"/>
<path d="M4858 3935 c-53 -29 -42 -116 16 -131 84 -21 131 92 56 131 -35 18
-38 18 -72 0z"/>
<path d="M7553 3884 c-20 -20 -24 -31 -19 -57 9 -43 29 -61 71 -61 42 0 62 18
71 61 5 26 1 37 -19 57 -15 15 -38 26 -52 26 -14 0 -37 -11 -52 -26z"/>
<path d="M4452 3847 c-45 -48 -14 -117 51 -117 42 0 67 26 67 68 0 65 -74 96
-118 49z"/>
<path d="M4020 3800 c-11 -11 -20 -33 -20 -50 0 -17 9 -39 20 -50 11 -11 33
-20 50 -20 17 0 39 9 50 20 11 11 20 33 20 50 0 17 -9 39 -20 50 -11 11 -33
20 -50 20 -17 0 -39 -9 -50 -20z"/>
<path d="M7151 3764 c-12 -15 -21 -34 -21 -44 0 -34 39 -70 75 -70 36 0 75 36
75 70 0 34 -39 70 -75 70 -24 0 -39 -7 -54 -26z"/>
<path d="M3615 3735 c-48 -47 -19 -115 48 -115 42 0 70 29 70 72 0 62 -73 89
-118 43z"/>
<path d="M3191 3684 c-12 -15 -21 -34 -21 -44 0 -34 39 -70 75 -70 43 0 79 41
70 80 -14 60 -88 80 -124 34z"/>
<path d="M6740 3680 c-45 -45 -11 -120 54 -120 25 0 39 7 50 22 36 51 5 118
-54 118 -17 0 -39 -9 -50 -20z"/>
<path d="M2792 3644 c-16 -11 -22 -25 -22 -54 0 -29 6 -43 22 -54 51 -36 118
-5 118 54 0 59 -67 90 -118 54z"/>
<path d="M2350 3583 c-37 -47 -2 -113 60 -113 33 0 70 40 70 74 0 63 -90 89
-130 39z"/>
<path d="M1965 3565 c-28 -27 -31 -45 -14 -78 16 -30 28 -37 66 -37 41 0 77
42 68 80 -14 58 -78 78 -120 35z"/>
<path d="M6370 3583 c-76 -27 -58 -143 21 -143 55 0 92 87 52 122 -22 19 -53
28 -73 21z"/>
<path d="M1545 3505 c-14 -13 -25 -30 -25 -37 1 -59 51 -98 100 -78 27 11 50
46 50 76 0 24 -47 64 -75 64 -14 0 -37 -11 -50 -25z"/>
<path d="M1142 3494 c-63 -44 -37 -134 39 -134 28 0 69 44 69 73 0 55 -65 92
-108 61z"/>
<path d="M5937 3499 c-48 -28 -40 -107 12 -129 75 -31 134 58 76 115 -25 26
-58 31 -88 14z"/>
<path d="M8111 3482 c-28 -22 -31 -75 -6 -102 24 -26 79 -26 105 0 62 62 -31
158 -99 102z"/>
<path d="M716 3439 c-36 -28 -36 -80 0 -108 15 -12 35 -21 46 -21 27 0 68 45
68 75 0 30 -41 75 -68 75 -11 0 -31 -9 -46 -21z"/>
<path d="M5525 3395 c-48 -47 -19 -119 49 -119 47 0 70 23 70 70 0 68 -72 97
-119 49z"/>
<path d="M305 3385 c-32 -31 -32 -69 0 -100 30 -30 54 -31 89 -4 18 14 26 30
26 52 0 38 -7 50 -37 66 -33 17 -51 14 -78 -14z"/>
<path d="M8621 3384 c-12 -15 -21 -35 -21 -46 0 -27 45 -68 75 -68 30 0 75 41
75 68 0 35 -38 72 -75 72 -24 0 -39 -7 -54 -26z"/>
<path d="M9041 3334 c-34 -43 -26 -86 20 -109 34 -18 69 -8 93 27 22 32 20 55
-9 83 -33 34 -77 33 -104 -1z"/>
<path d="M10715 3340 c-42 -46 -10 -120 51 -120 35 0 74 37 74 70 0 10 -9 29
-21 44 -26 33 -77 36 -104 6z"/>
<path d="M10300 3330 c-43 -43 -11 -120 50 -120 38 0 70 32 70 70 0 38 -32 70
-70 70 -17 0 -39 -9 -50 -20z"/>
<path d="M9476 3319 c-34 -27 -35 -71 -1 -104 27 -28 42 -30 79 -14 33 15 50
57 37 92 -19 49 -71 61 -115 26z"/>
<path d="M5159 3307 c-37 -19 -53 -60 -37 -94 26 -55 104 -54 130 2 26 57 -37
119 -93 92z"/>
<path d="M9905 3295 c-62 -61 10 -155 86 -114 48 25 44 105 -7 128 -37 16 -52
14 -79 -14z"/>
<path d="M4716 3219 c-36 -28 -36 -80 0 -108 15 -12 34 -21 44 -21 34 0 70 39
70 75 0 36 -36 75 -70 75 -10 0 -29 -9 -44 -21z"/>
<path d="M6025 3205 c-30 -29 -32 -68 -5 -95 47 -47 123 -15 123 51 0 63 -72
90 -118 44z"/>
<path d="M4316 3129 c-26 -20 -36 -69 -18 -95 10 -15 47 -34 67 -34 25 0 65
46 65 75 0 30 -41 75 -68 75 -11 0 -31 -9 -46 -21z"/>
<path d="M3895 3045 c-39 -38 -32 -86 16 -110 76 -40 146 71 76 120 -31 22
-65 18 -92 -10z"/>
<path d="M3490 2970 c-42 -42 -12 -120 48 -120 46 0 72 25 72 70 0 29 -6 43
-22 54 -31 22 -74 20 -98 -4z"/>
<path d="M4736 2949 c-50 -39 -22 -122 42 -122 43 0 72 28 72 70 0 65 -61 93
-114 52z"/>
<path d="M6472 2954 c-28 -20 -31 -83 -4 -107 25 -23 78 -21 102 3 61 61 -27
154 -98 104z"/>
<path d="M3066 2895 c-59 -60 10 -155 83 -114 63 36 42 121 -31 127 -23 2 -41
-3 -52 -13z"/>
<path d="M2671 2834 c-12 -15 -21 -35 -21 -46 0 -27 45 -68 75 -68 30 0 75 41
75 68 0 35 -38 72 -75 72 -24 0 -39 -7 -54 -26z"/>
<path d="M5139 2798 c-16 -5 -32 -22 -39 -39 -35 -84 84 -137 129 -58 31 55
-28 118 -90 97z"/>
<path d="M6951 2764 c-12 -15 -21 -34 -21 -44 0 -34 39 -70 75 -70 36 0 75 36
75 70 0 34 -39 70 -75 70 -24 0 -39 -7 -54 -26z"/>
<path d="M2260 2750 c-11 -11 -20 -33 -20 -50 0 -17 9 -39 20 -50 45 -45 120
-11 120 53 0 20 -8 41 -18 50 -25 23 -78 21 -102 -3z"/>
<path d="M1841 2694 c-12 -15 -21 -34 -21 -44 0 -34 39 -70 75 -70 36 0 75 36
75 70 0 34 -39 70 -75 70 -24 0 -39 -7 -54 -26z"/>
<path d="M5502 2650 c-48 -45 -16 -123 50 -123 64 0 92 83 42 122 -34 27 -64
27 -92 1z"/>
<path d="M7460 2630 c-43 -43 -11 -120 50 -120 38 0 70 32 70 70 0 38 -32 70
-70 70 -17 0 -39 -9 -50 -20z"/>
<path d="M1426 2618 c-50 -71 43 -159 104 -98 26 26 26 81 2 103 -28 25 -87
22 -106 -5z"/>
<path d="M1036 2549 c-36 -28 -36 -80 0 -108 15 -12 34 -21 44 -21 34 0 70 39
70 75 0 36 -36 75 -70 75 -10 0 -29 -9 -44 -21z"/>
<path d="M3500 2530 c-26 -26 -26 -81 0 -105 46 -42 120 -10 120 52 0 42 -30
73 -70 73 -17 0 -39 -9 -50 -20z"/>
<path d="M7866 2528 c-51 -72 30 -153 102 -102 28 20 31 83 4 107 -28 25 -87
22 -106 -5z"/>
<path d="M606 2509 c-46 -36 -26 -110 34 -124 39 -9 80 27 80 70 0 36 -36 75
-70 75 -10 0 -29 -9 -44 -21z"/>
<path d="M5895 2475 c-39 -39 -32 -86 17 -111 59 -30 122 27 99 89 -19 51 -77
62 -116 22z"/>
<path d="M197 2442 c-23 -25 -21 -78 3 -102 61 -61 154 27 104 98 -20 28 -83
31 -107 4z"/>
<path d="M8375 2420 c-41 -46 -7 -120 55 -120 33 0 70 40 70 76 0 57 -86 87
-125 44z"/>
<path d="M11050 2417 c-75 -38 -28 -154 54 -133 30 7 60 58 51 86 -7 21 -51
60 -69 60 -6 0 -22 -6 -36 -13z"/>
<path d="M1736 2369 c-19 -15 -26 -30 -26 -54 0 -36 36 -75 70 -75 34 0 70 39
70 75 0 36 -36 75 -70 75 -10 0 -29 -9 -44 -21z"/>
<path d="M3900 2370 c-30 -30 -27 -83 6 -109 15 -12 34 -21 44 -21 34 0 70 39
70 75 0 62 -77 98 -120 55z"/>
<path d="M6302 2365 c-59 -25 -51 -107 11 -130 62 -21 118 52 80 103 -26 34
-53 42 -91 27z"/>
<path d="M8920 2367 c-70 -35 -48 -137 30 -137 28 0 70 44 70 73 0 51 -55 86
-100 64z"/>
<path d="M10630 2340 c-45 -45 -11 -120 53 -120 43 0 67 26 67 73 0 26 -6 40
-22 51 -31 22 -74 20 -98 -4z"/>
<path d="M9325 2317 c-36 -31 -39 -82 -6 -109 68 -55 160 34 104 100 -29 34
-66 37 -98 9z"/>
<path d="M9775 2315 c-28 -27 -30 -42 -14 -79 26 -56 105 -53 129 3 31 75 -58
133 -115 76z"/>
<path d="M10205 2315 c-34 -33 -33 -77 1 -104 44 -34 86 -26 110 21 19 37 5
80 -32 97 -37 16 -52 14 -79 -14z"/>
<path d="M4290 2250 c-11 -11 -20 -33 -20 -50 0 -17 9 -39 20 -50 11 -11 33
-20 50 -20 17 0 39 9 50 20 11 11 20 33 20 50 0 17 -9 39 -20 50 -11 11 -33
20 -50 20 -17 0 -39 -9 -50 -20z"/>
<path d="M6709 2238 c-16 -5 -32 -22 -39 -39 -35 -84 84 -137 129 -58 31 55
-28 118 -90 97z"/>
<path d="M2120 2190 c-44 -44 -10 -120 54 -120 41 0 69 29 69 70 0 63 -78 95
-123 50z"/>
<path d="M11052 2124 c-29 -20 -30 -76 -2 -104 43 -43 120 -11 120 50 0 59
-67 90 -118 54z"/>
<path d="M4686 2109 c-50 -39 -22 -122 42 -122 69 0 99 80 46 122 -15 12 -34
21 -44 21 -10 0 -29 -9 -44 -21z"/>
<path d="M2540 2083 c-53 -19 -68 -86 -28 -123 63 -58 157 33 101 98 -20 23
-50 33 -73 25z"/>
<path d="M7071 2064 c-12 -15 -21 -34 -21 -44 0 -34 39 -70 75 -70 36 0 75 36
75 70 0 34 -39 70 -75 70 -24 0 -39 -7 -54 -26z"/>
<path d="M5070 1990 c-11 -11 -20 -33 -20 -50 0 -17 9 -39 20 -50 45 -45 120
-11 120 53 0 20 -8 41 -18 50 -25 23 -78 21 -102 -3z"/>
<path d="M250 1992 c-51 -16 -68 -84 -30 -122 60 -60 154 26 105 97 -15 21
-50 33 -75 25z"/>
<path d="M10170 1980 c-26 -26 -26 -81 0 -105 29 -26 79 -24 102 4 56 70 -39
164 -102 101z"/>
<path d="M7485 1935 c-40 -39 -29 -97 22 -116 48 -18 103 23 103 77 0 24 -47
64 -75 64 -14 0 -37 -11 -50 -25z"/>
<path d="M2903 1915 c-70 -49 0 -160 76 -120 48 24 55 72 16 110 -27 28 -61
32 -92 10z"/>
<path d="M5471 1834 c-12 -15 -21 -34 -21 -44 0 -32 39 -70 71 -70 34 0 79 39
79 68 0 35 -38 72 -75 72 -24 0 -39 -7 -54 -26z"/>
<path d="M615 1810 c-42 -46 -10 -120 52 -120 42 0 73 30 73 70 0 62 -84 95
-125 50z"/>
<path d="M7895 1805 c-14 -13 -25 -36 -25 -50 0 -14 11 -37 25 -50 39 -39 86
-32 111 17 19 37 5 80 -32 97 -37 16 -52 14 -79 -14z"/>
<path d="M10584 1808 c-69 -33 -37 -138 42 -138 24 0 64 47 64 75 0 30 -41 75
-67 74 -10 0 -28 -5 -39 -11z"/>
<path d="M3282 1777 c-44 -47 -13 -117 52 -117 41 0 69 29 69 72 0 61 -78 91
-121 45z"/>
<path d="M5872 1740 c-26 -24 -29 -66 -6 -98 11 -16 25 -22 53 -22 46 0 71 24
71 68 0 64 -72 95 -118 52z"/>
<path d="M8292 1720 c-26 -24 -29 -66 -6 -98 11 -16 25 -22 53 -22 46 0 71 24
71 68 0 64 -72 95 -118 52z"/>
<path d="M1015 1645 c-39 -39 -32 -86 17 -111 50 -26 108 9 108 66 0 29 -44
70 -75 70 -14 0 -37 -11 -50 -25z"/>
<path d="M10980 1650 c-26 -26 -25 -60 1 -94 25 -31 66 -35 100 -8 28 23 30
73 4 102 -24 26 -79 26 -105 0z"/>
<path d="M6282 1634 c-28 -20 -31 -83 -4 -107 25 -23 78 -21 102 3 61 61 -27
154 -98 104z"/>
<path d="M3682 1617 c-43 -46 -15 -120 46 -120 43 0 72 28 72 70 0 66 -74 97
-118 50z"/>
<path d="M8686 1598 c-50 -71 43 -159 104 -98 26 26 26 81 2 103 -28 25 -87
22 -106 -5z"/>
<path d="M150 1560 c-26 -26 -26 -74 0 -100 43 -43 120 -11 120 50 0 38 -32
70 -70 70 -17 0 -39 -9 -50 -20z"/>
<path d="M9096 1519 c-19 -15 -26 -30 -26 -54 0 -36 36 -75 70 -75 34 0 70 39
70 75 0 36 -36 75 -70 75 -10 0 -29 -9 -44 -21z"/>
<path d="M1400 1510 c-24 -24 -26 -67 -4 -98 11 -16 25 -22 54 -22 29 0 43 6
54 22 36 51 5 118 -54 118 -17 0 -39 -9 -50 -20z"/>
<path d="M4070 1498 c-58 -63 32 -156 98 -100 32 26 37 63 12 95 -28 35 -80
37 -110 5z"/>
<path d="M6675 1495 c-61 -60 7 -150 84 -111 48 25 55 73 16 111 -13 14 -36
25 -50 25 -14 0 -37 -11 -50 -25z"/>
<path d="M569 1472 c-28 -23 -30 -73 -4 -102 25 -28 76 -26 103 3 28 29 28 57
1 91 -25 31 -66 35 -100 8z"/>
<path d="M1000 1417 c-52 -26 -49 -104 4 -128 36 -17 73 -3 92 32 19 38 6 80
-32 98 -31 14 -33 14 -64 -2z"/>
<path d="M9505 1395 c-14 -13 -25 -36 -25 -50 0 -30 41 -75 68 -75 35 0 72 38
72 73 0 38 -7 50 -37 66 -33 17 -51 14 -78 -14z"/>
<path d="M1814 1398 c-69 -33 -37 -138 42 -138 24 0 64 47 64 75 0 30 -41 75
-67 74 -10 0 -28 -5 -39 -11z"/>
<path d="M7092 1387 c-31 -33 -29 -80 4 -106 15 -12 34 -21 44 -21 34 0 70 39
70 75 0 67 -74 99 -118 52z"/>
<path d="M4475 1380 c-26 -29 -24 -79 4 -102 70 -56 164 39 101 102 -26 26
-81 26 -105 0z"/>
<path d="M9901 1314 c-12 -15 -21 -34 -21 -44 0 -34 39 -70 75 -70 36 0 75 36
75 70 0 34 -39 70 -75 70 -24 0 -39 -7 -54 -26z"/>
<path d="M7505 1275 c-14 -13 -25 -36 -25 -50 0 -33 42 -75 75 -75 33 0 75 42
75 75 0 33 -42 75 -75 75 -14 0 -37 -11 -50 -25z"/>
<path d="M2192 1273 c-32 -27 -37 -64 -12 -96 28 -35 80 -37 110 -5 58 63 -32
156 -98 101z"/>
<path d="M4876 1239 c-36 -28 -36 -80 0 -108 15 -12 34 -21 44 -21 10 0 29 9
44 21 34 27 36 77 3 107 -29 28 -57 28 -91 1z"/>
<path d="M10317 1242 c-40 -44 -7 -122 51 -122 60 0 94 78 52 120 -26 26 -81
26 -103 2z"/>
<path d="M7909 1212 c-48 -40 -17 -122 47 -122 66 0 98 74 51 118 -28 27 -67
28 -98 4z"/>
<path d="M10725 1135 c-30 -29 -32 -64 -5 -93 30 -32 82 -30 110 5 55 70 -42
151 -105 88z"/>
<path d="M2581 1124 c-12 -15 -21 -34 -21 -44 0 -34 39 -70 75 -70 36 0 75 36
75 70 0 34 -39 70 -75 70 -24 0 -39 -7 -54 -26z"/>
<path d="M5303 1130 c-46 -19 -57 -83 -20 -118 46 -44 120 -15 120 47 0 52
-53 90 -100 71z"/>
<path d="M8332 1130 c-77 -31 -34 -153 48 -135 65 14 74 106 14 134 -29 13
-31 13 -62 1z"/>
<path d="M8715 1045 c-30 -30 -31 -54 -4 -89 15 -19 30 -26 54 -26 37 0 75 37
75 72 0 27 -45 68 -75 68 -14 0 -37 -11 -50 -25z"/>
<path d="M3003 1028 c-12 -6 -27 -24 -34 -40 -34 -83 86 -136 130 -57 19 33 1
81 -35 98 -29 13 -32 13 -61 -1z"/>
<path d="M282 1004 c-28 -20 -31 -83 -4 -107 44 -40 122 -7 122 51 0 59 -67
92 -118 56z"/>
<path d="M5692 987 c-45 -48 -14 -117 52 -117 25 0 40 7 55 26 27 35 26 59 -4
89 -31 32 -74 33 -103 2z"/>
<path d="M9131 944 c-12 -15 -21 -34 -21 -44 0 -34 39 -70 75 -70 36 0 75 36
75 70 0 34 -39 70 -75 70 -24 0 -39 -7 -54 -26z"/>
<path d="M740 947 c-52 -26 -49 -104 5 -129 58 -26 119 33 95 91 -6 16 -23 33
-36 40 -31 14 -33 14 -64 -2z"/>
<path d="M6092 907 c-28 -30 -28 -68 1 -95 48 -45 120 -16 120 48 0 65 -76 95
-121 47z"/>
<path d="M3377 909 c-48 -28 -40 -107 12 -129 75 -31 134 58 76 115 -25 26
-58 31 -88 14z"/>
<path d="M9542 897 c-45 -48 -16 -120 48 -120 67 0 96 81 44 122 -35 27 -65
27 -92 -2z"/>
<path d="M1676 885 c-59 -59 10 -155 83 -114 62 35 41 121 -31 127 -23 2 -41
-3 -52 -13z"/>
<path d="M1180 870 c-26 -26 -26 -81 -2 -103 45 -40 122 -6 122 53 0 17 -9 39
-20 50 -11 11 -33 20 -50 20 -17 0 -39 -9 -50 -20z"/>
<path d="M2119 872 c-49 -40 -17 -122 48 -122 65 0 93 61 52 114 -25 31 -66
35 -100 8z"/>
<path d="M2606 859 c-36 -28 -36 -80 0 -108 35 -27 59 -26 89 4 34 33 33 77
-1 104 -15 12 -34 21 -44 21 -10 0 -29 -9 -44 -21z"/>
<path d="M9950 847 c-52 -26 -49 -104 5 -129 58 -26 119 33 95 91 -6 16 -23
33 -36 40 -31 14 -33 14 -64 -2z"/>
<path d="M6520 817 c-13 -7 -31 -24 -39 -38 -30 -53 36 -117 94 -91 55 25 58
100 5 127 -35 18 -29 18 -60 2z"/>
<path d="M3790 770 c-28 -28 -27 -84 2 -104 51 -36 118 -5 118 54 0 38 -32 70
-70 70 -17 0 -39 -9 -50 -20z"/>
<path d="M10370 760 c-26 -26 -26 -81 0 -105 11 -10 34 -18 52 -17 65 2 92 82
42 121 -34 26 -68 27 -94 1z"/>
<path d="M6913 738 c-68 -33 -40 -138 37 -138 28 0 70 44 70 73 0 51 -61 88
-107 65z"/>
<path d="M10796 729 c-19 -15 -26 -30 -26 -54 0 -36 36 -75 70 -75 34 0 70 39
70 75 0 36 -36 75 -70 75 -10 0 -29 -9 -44 -21z"/>
<path d="M4170 660 c-27 -27 -25 -66 5 -95 63 -63 160 18 105 88 -27 34 -80
37 -110 7z"/>
<path d="M390 633 c-76 -27 -58 -143 21 -143 55 0 92 87 52 122 -22 19 -53 28
-73 21z"/>
<path d="M7333 630 c-48 -19 -58 -87 -17 -119 53 -41 114 -13 114 52 0 51 -50
86 -97 67z"/>
<path d="M785 555 c-39 -39 -32 -86 17 -111 59 -30 122 27 99 89 -19 51 -77
62 -116 22z"/>
<path d="M4571 544 c-24 -30 -26 -46 -10 -77 16 -30 28 -37 66 -37 41 0 77 42
68 80 -14 60 -88 80 -124 34z"/>
<path d="M7715 545 c-28 -27 -30 -42 -14 -79 32 -69 139 -38 139 40 0 24 -47
64 -75 64 -14 0 -37 -11 -50 -25z"/>
<path d="M1200 540 c-45 -45 -11 -120 53 -120 42 0 67 26 67 68 0 41 -31 72
-70 72 -17 0 -39 -9 -50 -20z"/>
<path d="M3510 530 c-43 -43 -11 -120 50 -120 38 0 70 32 70 70 0 38 -32 70
-70 70 -17 0 -39 -9 -50 -20z"/>
<path d="M1635 515 c-28 -27 -30 -42 -14 -79 32 -69 139 -38 139 40 0 24 -47
64 -75 64 -14 0 -37 -11 -50 -25z"/>
<path d="M3077 508 c-37 -33 -40 -75 -7 -108 27 -27 66 -25 95 5 29 28 32 65
8 93 -28 33 -66 37 -96 10z"/>
<path d="M2090 490 c-43 -43 -11 -120 50 -120 17 0 39 9 50 20 26 26 26 81 2
103 -25 23 -78 21 -102 -3z"/>
<path d="M2560 480 c-26 -26 -26 -81 -2 -103 28 -25 87 -22 106 5 51 73 -42
160 -104 98z"/>
<path d="M8136 479 c-50 -39 -22 -122 42 -122 66 0 98 78 50 123 -28 26 -58
26 -92 -1z"/>
<path d="M5010 447 c-52 -26 -49 -104 4 -128 81 -37 138 73 64 125 -27 19 -35
20 -68 3z"/>
<path d="M8537 382 c-23 -25 -21 -78 3 -102 61 -61 154 27 104 98 -20 28 -83
31 -107 4z"/>
<path d="M8966 339 c-52 -41 -23 -122 44 -122 67 0 96 81 44 122 -15 12 -34
21 -44 21 -10 0 -29 -9 -44 -21z"/>
<path d="M5390 330 c-26 -26 -26 -81 -2 -103 44 -40 122 -7 122 51 0 60 -78
94 -120 52z"/>
<path d="M9341 254 c-12 -15 -21 -34 -21 -44 0 -34 39 -70 75 -70 36 0 75 36
75 70 0 10 -9 29 -21 44 -28 36 -80 36 -108 0z"/>
<path d="M5791 214 c-12 -15 -21 -34 -21 -44 0 -34 39 -70 75 -70 36 0 75 36
75 70 0 10 -9 29 -21 44 -28 36 -80 36 -108 0z"/>
<path d="M9771 194 c-12 -15 -21 -34 -21 -44 0 -34 39 -70 75 -70 36 0 75 36
75 70 0 10 -9 29 -21 44 -28 36 -80 36 -108 0z"/>
<path d="M10255 175 c-30 -30 -31 -54 -4 -89 15 -19 30 -26 54 -26 37 0 75 37
75 72 0 27 -45 68 -75 68 -14 0 -37 -11 -50 -25z"/>
</g>
</svg>
