<?xml version="1.0" standalone="no"?>
<!DOCTYPE svg PUBLIC "-//W3C//DTD SVG 20010904//EN"
 "http://www.w3.org/TR/2001/REC-SVG-20010904/DTD/svg10.dtd">
<svg version="1.0" xmlns="http://www.w3.org/2000/svg"
 width="1125.000000pt" height="900.000000pt" viewBox="0 0 1125.000000 900.000000"
 preserveAspectRatio="xMidYMid meet">
<metadata>
Created by potrace 1.13, written by Peter Selinger 2001-2015
</metadata>
<g transform="translate(0.000000,900.000000) scale(0.100000,-0.100000)"
fill="#000000" stroke="none">
<path d="M0 4500 l0 -4500 5625 0 5625 0 0 4500 0 4500 -5625 0 -5625 0 0
-4500z m1020 3990 l0 -430 -487 2 -488 3 -3 415 c-1 228 0 421 3 427 3 10 111
13 490 13 l485 0 0 -430z m2910 0 l0 -430 -1425 0 -1425 0 0 430 0 430 1425 0
1425 0 0 -430z m3040 0 l0 -430 -1485 0 -1485 0 0 430 0 430 1485 0 1485 0 0
-430z m2610 0 l0 -430 -1275 0 -1275 0 0 430 0 430 1275 0 1275 0 0 -430z
m1628 250 l2 -175 -42 42 c-60 57 -96 73 -168 73 -202 0 -305 -242 -164 -384
97 -96 245 -91 340 12 l34 37 -2 -140 -3 -140 -777 -3 -778 -2 0 430 0 430
778 -2 777 -3 3 -175z m-129 -140 c84 -42 112 -157 59 -237 -90 -136 -302 -71
-302 92 0 126 129 204 243 145z m-8569 -920 l0 -320 -1232 2 -1233 3 -3 305
c-1 168 0 310 3 317 3 10 254 13 1235 13 l1230 0 0 -320z m2840 0 l0 -320
-1390 0 -1390 0 0 320 0 320 1390 0 1390 0 0 -320z m2780 0 l0 -320 -1360 0
-1360 0 0 320 0 320 1360 0 1360 0 0 -320z m2650 0 l0 -320 -1290 0 -1290 0 0
320 0 320 1290 0 1290 0 0 -320z m425 0 l0 -315 -182 -3 -183 -2 0 320 0 320
183 -2 182 -3 0 -315z m-9957 -833 l2 -447 -602 2 -603 3 -3 85 -3 85 61 53
c50 44 62 62 76 109 31 106 -16 221 -108 269 l-28 15 0 133 c0 73 3 136 7 139
3 4 275 6 602 5 l596 -3 3 -448z m2812 3 l0 -450 -1375 0 -1375 0 0 450 0 450
1375 0 1375 0 0 -450z m2990 0 l0 -450 -1465 0 -1465 0 0 443 c0 244 3 447 7
450 3 4 663 7 1465 7 l1458 0 0 -450z m2818 -2 l2 -448 -1375 0 -1375 0 0 450
0 450 1373 -2 1372 -3 3 -447z m1337 318 l0 -129 -40 -14 c-167 -55 -213 -275
-83 -389 31 -27 56 -40 111 -58 16 -5 17 -16 15 -88 l-3 -83 -637 -3 -638 -2
0 450 0 450 638 -2 637 -3 0 -129z m3 -366 c-2 -98 -7 -155 -14 -157 -17 -6
-76 39 -101 76 -27 40 -31 116 -9 159 26 50 99 101 119 83 4 -4 6 -77 5 -161z
m-11124 110 c51 -61 53 -144 7 -209 -43 -60 -51 -44 -51 104 0 75 4 135 9 135
5 0 21 -14 35 -30z m2996 -975 l0 -405 -1515 0 -1515 0 0 405 0 405 1515 0
1515 0 0 -405z m2840 0 l0 -405 -1390 0 -1390 0 0 405 0 405 1390 0 1390 0 0
-405z m2670 0 l0 -405 -1305 0 -1305 0 0 405 0 405 1305 0 1305 0 0 -405z
m2615 0 l0 -400 -1275 0 -1275 0 -3 403 -2 402 1277 -2 1278 -3 0 -400z
m-9625 -870 l0 -405 -767 2 -768 3 -3 118 c-1 64 0 117 2 117 3 0 25 -14 48
-30 79 -56 196 -51 272 12 55 45 80 101 81 179 0 56 -4 73 -30 115 -72 115
-216 146 -329 69 -20 -14 -39 -25 -41 -25 -8 0 -6 236 2 243 3 4 350 7 770 7
l763 0 0 -405z m2830 0 l0 -405 -1380 0 -1380 0 0 405 0 405 1380 0 1380 0 0
-405z m3110 0 l0 -405 -1525 0 -1525 0 0 405 0 405 1525 0 1525 0 0 -405z
m2580 0 l0 -405 -1260 0 -1260 0 0 405 0 405 1260 0 1260 0 0 -405z m1105 0
l0 -400 -522 -3 -523 -2 0 405 0 405 523 -2 522 -3 0 -400z m-10904 139 c37
-19 67 -59 79 -105 33 -121 -94 -239 -214 -199 -43 14 -102 77 -111 119 -30
140 118 252 246 185z m2637 -991 l-3 -388 -1445 0 -1445 0 -3 375 c-1 206 0
381 3 387 3 10 300 13 1450 13 l1445 0 -2 -387z m2782 -3 l0 -390 -1360 0
-1360 0 0 390 0 390 1360 0 1360 0 0 -390z m2760 0 l0 -390 -1345 0 -1345 0 0
390 0 390 1345 0 1345 0 0 -390z m2630 0 l0 -390 -1280 0 -1280 0 0 390 0 390
1280 0 1280 0 0 -390z m95 0 c0 -298 -3 -384 -12 -387 -10 -4 -13 78 -13 387
0 309 3 391 13 388 9 -4 12 -90 12 -388z m-9955 -760 l0 -310 -602 2 -603 3
-3 41 c-3 39 0 44 40 71 23 15 56 50 73 77 25 42 30 59 30 115 0 82 -33 145
-100 191 -40 27 -45 35 -45 69 0 21 3 41 7 44 3 4 276 7 605 7 l598 0 0 -310z
m2760 0 l0 -310 -1350 0 -1350 0 0 310 0 310 1350 0 1350 0 0 -310z m3040 0
l0 -310 -1490 0 -1490 0 0 310 0 310 1490 0 1490 0 0 -310z m2820 0 l0 -310
-1375 0 -1375 0 0 310 0 310 1375 0 1375 0 0 -310z m1338 268 c3 -35 2 -36
-46 -52 -108 -36 -175 -154 -151 -265 16 -73 60 -126 135 -161 62 -30 65 -33
62 -63 l-3 -32 -637 -3 -638 -2 0 310 0 310 638 -2 637 -3 3 -37z m2 -268 c0
-149 -1 -160 -19 -160 -10 0 -33 10 -51 23 -93 63 -93 210 -1 273 70 47 71 44
71 -136z m-11090 40 c8 -28 8 -51 0 -80 -11 -39 -54 -100 -71 -100 -11 0 -12
263 -2 274 13 12 61 -50 73 -94z m2960 -735 l0 -325 -1520 0 -1520 0 0 318 c0
175 3 322 7 325 3 4 687 7 1520 7 l1513 0 0 -325z m2860 0 l0 -325 -1400 0
-1400 0 0 318 c0 175 3 322 7 325 3 4 633 7 1400 7 l1393 0 0 -325z m2660 0
l0 -325 -1295 0 -1295 0 0 325 0 325 1295 0 1295 0 0 -325z m2608 -2 l2 -323
-1275 0 -1275 0 0 318 c0 175 3 322 7 325 3 4 576 6 1272 5 l1266 -3 3 -322z
m-9648 -783 l0 -390 -757 2 -758 3 -3 113 c-2 104 4 133 24 101 14 -23 109
-59 155 -59 100 0 207 90 224 190 17 99 -33 196 -124 243 -82 41 -165 35 -238
-19 -17 -13 -34 -24 -37 -24 -3 0 -6 52 -6 115 l0 115 760 0 760 0 0 -390z
m2838 3 l-3 -388 -1387 -3 -1388 -2 0 390 0 390 1390 0 1390 0 -2 -387z m3092
-3 l0 -390 -1515 0 -1515 0 0 390 0 390 1515 0 1515 0 0 -390z m2530 0 l0
-390 -1230 0 -1230 0 0 390 0 390 1230 0 1230 0 0 -390z m1188 3 l-3 -388
-562 -3 -563 -2 0 390 0 390 565 0 565 0 -2 -387z m-10922 148 c107 -49 133
-184 50 -267 -69 -69 -165 -67 -237 5 -64 64 -65 153 -2 222 53 59 117 72 189
40z m2634 -966 l0 -365 -1437 2 -1438 3 -3 350 c-1 192 0 356 3 362 3 10 297
13 1440 13 l1435 0 0 -365z m2780 0 l0 -365 -1360 0 -1360 0 0 365 0 365 1360
0 1360 0 0 -365z m2750 0 l0 -365 -1345 0 -1345 0 0 365 0 365 1345 0 1345 0
0 -365z m2620 0 l0 -365 -1275 0 -1275 0 0 365 0 365 1275 0 1275 0 0 -365z
m135 0 l0 -360 -32 -3 -33 -3 0 366 0 366 33 -3 32 -3 0 -360z m-9990 -770 l0
-340 -585 0 -585 0 -3 43 c-3 36 2 49 29 79 43 50 62 98 62 163 0 62 -19 111
-64 161 -28 31 -29 36 -29 129 0 53 3 100 7 103 3 4 268 6 587 5 l581 -3 0
-340z m2835 0 l0 -345 -1382 2 -1383 3 -3 343 -2 342 1385 0 1385 0 0 -345z
m2970 0 l0 -345 -1450 0 -1450 0 0 345 0 345 1450 0 1450 0 0 -345z m2760 0
l0 -345 -1345 0 -1345 0 0 345 0 345 1345 0 1345 0 0 -345z m1428 259 l3 -81
-52 -6 c-98 -12 -173 -78 -199 -175 -34 -130 64 -267 202 -280 46 -4 49 -6 46
-31 l-3 -26 -677 -3 -678 -2 0 345 0 345 678 -2 677 -3 3 -81z m0 -312 c3
-183 2 -184 -67 -163 -79 23 -123 81 -123 161 0 77 37 130 109 156 78 28 78
30 81 -154z"/>
<path d="M2410 8660 c-136 -72 -171 -242 -73 -351 51 -57 104 -81 174 -81 201
0 304 244 163 386 -16 15 -45 37 -66 47 -50 25 -150 25 -198 -1z m184 -63
c146 -83 85 -307 -83 -307 -94 0 -165 71 -165 165 0 128 136 206 248 142z"/>
<path d="M5434 8661 c-49 -23 -107 -88 -122 -140 -44 -146 65 -293 217 -293
97 0 164 41 206 125 75 152 -31 327 -200 327 -37 0 -76 -8 -101 -19z m195 -71
c37 -26 71 -90 71 -135 0 -45 -34 -109 -70 -135 -49 -35 -126 -39 -180 -9 -68
38 -98 107 -79 181 12 50 33 78 80 108 46 29 131 24 178 -10z"/>
<path d="M8330 8669 c-151 -61 -190 -282 -67 -385 90 -76 228 -74 310 4 119
112 83 314 -65 376 -41 18 -139 20 -178 5z m171 -72 c53 -36 79 -82 79 -142 0
-159 -200 -226 -296 -99 -25 32 -29 47 -29 99 0 51 4 67 27 97 52 69 153 90
219 45z"/>
<path d="M979 7875 c-97 -31 -171 -148 -155 -247 30 -187 249 -264 385 -135
142 135 59 374 -137 392 -26 3 -67 -2 -93 -10z m153 -71 c76 -38 107 -138 69
-218 -78 -161 -313 -105 -313 75 0 126 129 201 244 143z"/>
<path d="M3897 7876 c-164 -61 -210 -265 -86 -383 138 -130 359 -50 385 140
12 89 -40 188 -119 226 -58 28 -131 35 -180 17z m165 -82 c90 -57 98 -176 19
-255 -64 -64 -153 -65 -222 -2 -64 58 -75 136 -29 210 48 80 149 100 232 47z"/>
<path d="M6830 7881 c-109 -34 -170 -115 -170 -229 0 -48 6 -67 33 -112 72
-121 224 -146 343 -55 72 55 99 187 55 272 -49 97 -167 152 -261 124z m155
-89 c98 -72 81 -233 -29 -283 -23 -10 -54 -19 -71 -19 -45 0 -109 34 -135 71
-36 49 -39 133 -8 178 30 44 67 71 109 80 41 9 103 -3 134 -27z"/>
<path d="M9562 7881 c-52 -14 -109 -57 -138 -106 -51 -87 -42 -189 24 -266 46
-53 101 -79 172 -79 180 0 287 195 192 350 -49 80 -158 124 -250 101z m140
-77 c57 -29 95 -112 82 -182 -9 -50 -77 -118 -127 -127 -62 -12 -107 3 -153
49 -57 56 -67 114 -33 183 46 91 139 123 231 77z"/>
<path d="M2605 7016 c-143 -62 -187 -240 -88 -355 92 -108 239 -116 337 -18
143 143 40 388 -163 387 -31 -1 -69 -7 -86 -14z m170 -69 c111 -62 108 -234
-5 -292 -66 -34 -169 -9 -214 52 -21 28 -32 106 -22 147 9 35 54 86 91 102 46
20 105 17 150 -9z"/>
<path d="M5570 7014 c-144 -62 -183 -260 -72 -366 92 -89 210 -98 306 -24 103
78 113 247 20 340 -62 62 -175 84 -254 50z m174 -67 c45 -25 86 -93 86 -141 0
-46 -40 -117 -79 -143 -41 -28 -117 -31 -167 -7 -66 31 -103 113 -84 183 30
111 148 163 244 108z"/>
<path d="M8492 7009 c-56 -28 -99 -81 -118 -146 -31 -105 18 -213 121 -265 46
-24 156 -31 162 -11 3 7 10 10 17 7 19 -7 77 37 110 84 26 37 31 54 34 115 2
60 -1 80 -21 117 -26 49 -102 114 -123 106 -8 -3 -14 -1 -14 4 0 19 -123 11
-168 -11z m199 -71 c91 -70 92 -193 3 -266 -33 -28 -46 -32 -95 -32 -97 0
-169 69 -169 162 0 104 69 169 175 166 38 -1 59 -8 86 -30z"/>
<path d="M1554 6141 c-49 -23 -107 -88 -122 -140 -51 -168 101 -331 270 -291
177 43 238 263 107 387 -67 63 -172 82 -255 44z m182 -66 c46 -27 84 -90 84
-141 -1 -44 -34 -108 -69 -134 -65 -46 -161 -39 -216 15 -138 138 32 359 201
260z"/>
<path d="M4413 6139 c-80 -39 -123 -111 -123 -204 0 -133 94 -228 225 -228
129 0 226 95 228 223 1 96 -54 180 -140 217 -50 20 -141 17 -190 -8z m195 -66
c48 -36 72 -81 72 -138 0 -165 -204 -227 -304 -92 -33 44 -30 142 6 189 15 19
42 42 60 52 44 22 129 17 166 -11z"/>
<path d="M7250 6137 c-109 -58 -155 -194 -102 -302 71 -146 274 -175 377 -53
44 52 57 94 53 169 -4 79 -35 134 -100 176 -60 40 -164 45 -228 10z m203 -70
c48 -37 70 -88 65 -149 -9 -88 -75 -148 -163 -148 -151 0 -223 184 -113 287
35 33 67 43 125 40 37 -3 61 -11 86 -30z"/>
<path d="M9840 6144 c-138 -60 -180 -240 -83 -353 64 -76 149 -102 239 -76
146 42 209 211 128 342 -55 89 -187 129 -284 87z m175 -67 c111 -62 108 -234
-5 -292 -43 -22 -118 -19 -160 6 -58 36 -82 77 -82 145 0 126 136 204 247 141z"/>
<path d="M3003 5274 c-23 -9 -60 -34 -83 -56 -109 -110 -79 -292 61 -362 155
-77 329 31 329 204 0 71 -26 126 -79 172 -65 56 -147 70 -228 42z m122 -55
c72 -20 125 -88 125 -162 0 -54 -40 -118 -90 -144 -54 -29 -94 -29 -150 0 -60
30 -90 76 -90 139 0 84 43 146 118 168 37 11 42 11 87 -1z"/>
<path d="M5951 5276 c-49 -18 -111 -74 -132 -120 -38 -83 -18 -195 47 -260
126 -126 346 -60 383 114 37 173 -134 326 -298 266z m170 -81 c107 -70 86
-244 -36 -290 -171 -66 -304 151 -169 277 56 52 138 57 205 13z"/>
<path d="M8847 5276 c-112 -42 -178 -162 -148 -272 46 -169 254 -230 380 -111
113 108 87 298 -51 368 -52 27 -132 33 -181 15z m154 -71 c100 -52 118 -179
35 -261 -64 -65 -148 -69 -220 -13 -77 60 -77 196 -1 259 47 39 127 45 186 15z"/>
<path d="M1341 4427 c-50 -19 -111 -75 -132 -121 -24 -53 -24 -139 0 -192 10
-22 38 -57 61 -77 75 -63 162 -74 249 -31 208 104 145 414 -86 430 -33 2 -73
-2 -92 -9z m159 -72 c52 -27 75 -72 75 -145 0 -80 -26 -123 -93 -152 -134 -60
-276 80 -218 215 17 40 64 85 102 97 36 11 97 4 134 -15z"/>
<path d="M4361 4427 c-50 -19 -111 -75 -132 -121 -24 -53 -24 -139 0 -192 10
-22 37 -56 60 -75 74 -64 163 -76 250 -33 208 104 146 414 -86 430 -33 2 -73
-2 -92 -9z m164 -76 c50 -29 75 -76 75 -141 0 -73 -27 -116 -93 -149 -69 -34
-127 -24 -183 33 -46 46 -61 91 -50 152 9 44 68 111 110 124 40 12 103 4 141
-19z"/>
<path d="M7121 4427 c-164 -62 -203 -276 -72 -389 109 -93 269 -67 346 56 25
42 30 59 30 116 0 57 -5 74 -30 116 -56 90 -181 136 -274 101z m149 -69 c73
-38 107 -108 90 -185 -12 -52 -39 -85 -93 -112 -69 -34 -127 -24 -183 33 -68
68 -72 155 -9 225 56 62 123 75 195 39z"/>
<path d="M9751 4427 c-165 -63 -203 -277 -70 -391 107 -91 268 -64 344 58 25
42 30 59 30 116 0 57 -5 74 -30 116 -57 91 -179 137 -274 101z m149 -69 c73
-38 107 -108 90 -185 -12 -52 -39 -85 -93 -112 -69 -34 -127 -24 -183 33 -68
68 -72 155 -9 225 56 62 123 75 195 39z"/>
<path d="M2591 3667 c-50 -19 -111 -75 -132 -121 -11 -24 -19 -64 -19 -96 0
-172 175 -280 329 -204 208 104 145 414 -86 430 -33 2 -73 -2 -92 -9z m170
-82 c49 -32 72 -84 67 -150 -5 -65 -37 -111 -92 -136 -55 -25 -94 -24 -146 4
-102 54 -119 190 -34 268 59 54 137 59 205 14z"/>
<path d="M5555 3664 c-153 -56 -196 -261 -79 -378 41 -41 80 -58 145 -63 112
-11 217 70 238 182 33 176 -136 320 -304 259z m172 -75 c110 -68 91 -248 -32
-294 -145 -56 -279 100 -203 236 48 85 150 110 235 58z"/>
<path d="M8581 3667 c-50 -19 -111 -75 -132 -121 -11 -24 -19 -64 -19 -96 0
-172 175 -280 329 -204 207 103 144 414 -86 430 -33 2 -73 -2 -92 -9z m170
-82 c49 -32 72 -84 67 -150 -5 -65 -37 -111 -92 -136 -53 -24 -90 -24 -143 2
-105 51 -124 191 -37 270 59 54 137 59 205 14z"/>
<path d="M1538 2966 c-65 -18 -111 -56 -142 -118 -77 -155 32 -329 206 -328
68 1 125 27 169 79 58 67 72 139 43 223 -37 111 -161 176 -276 144z m139 -73
c65 -31 105 -121 83 -190 -34 -107 -151 -154 -246 -98 -46 27 -84 90 -84 141
1 62 51 135 110 157 31 11 103 6 137 -10z"/>
<path d="M4560 2966 c-163 -44 -224 -244 -112 -368 47 -52 102 -78 170 -78 66
0 116 21 164 67 126 123 62 343 -112 382 -54 13 -54 13 -110 -3z m137 -73 c82
-39 115 -160 63 -236 -89 -130 -281 -86 -306 70 -11 69 38 150 106 176 31 11
103 6 137 -10z"/>
<path d="M7305 2971 c-68 -18 -127 -65 -157 -126 -53 -108 -7 -244 102 -302
64 -35 168 -30 228 10 65 42 96 97 100 176 4 75 -9 117 -53 169 -50 59 -148
92 -220 73z m135 -83 c58 -40 75 -72 75 -142 0 -53 -4 -68 -27 -98 -37 -49
-89 -71 -150 -66 -159 16 -204 214 -69 305 47 32 125 32 171 1z"/>
<path d="M9885 2971 c-116 -28 -201 -150 -180 -258 22 -119 111 -193 233 -193
48 0 67 6 112 33 168 100 136 356 -51 411 -57 17 -68 18 -114 7z m125 -76 c80
-41 110 -143 68 -225 -70 -136 -273 -109 -307 41 -9 38 5 103 29 136 42 57
146 81 210 48z"/>
<path d="M2981 2174 c-63 -32 -104 -84 -121 -155 -22 -92 21 -195 103 -243 88
-52 191 -44 268 22 53 46 79 101 79 172 0 172 -175 280 -329 204z m196 -67
c39 -26 73 -90 73 -135 0 -74 -64 -153 -134 -166 -53 -10 -115 11 -153 50 -35
38 -48 84 -40 144 15 117 154 175 254 107z"/>
<path d="M5908 2190 c-146 -44 -209 -221 -124 -346 61 -90 165 -125 267 -89
89 32 149 117 149 215 0 154 -147 264 -292 220z m156 -79 c100 -62 98 -221 -3
-284 -79 -48 -196 -14 -236 68 -23 51 -17 130 15 175 48 68 150 86 224 41z"/>
<path d="M8752 2185 c-59 -26 -92 -55 -92 -80 0 -17 -4 -23 -14 -19 -11 4 -19
-9 -30 -47 -9 -29 -16 -60 -16 -69 0 -9 7 -40 16 -69 10 -36 20 -51 29 -48 8
4 15 -5 19 -23 7 -36 73 -77 139 -86 94 -13 199 44 238 130 24 53 24 139 0
191 -48 107 -187 164 -289 120z m174 -75 c38 -24 74 -92 74 -138 0 -74 -64
-153 -134 -166 -49 -9 -113 10 -148 44 -16 17 -35 27 -43 23 -13 -4 -15 11
-15 97 0 91 2 101 16 96 11 -4 22 1 32 15 40 58 148 72 218 29z"/>
<path d="M1272 1355 c-167 -52 -217 -262 -91 -382 139 -131 359 -51 385 141
14 100 -59 211 -159 241 -60 18 -78 18 -135 0z m144 -71 c93 -44 117 -172 47
-255 -52 -61 -129 -75 -203 -36 -50 26 -90 90 -90 141 0 46 40 117 79 143 41
28 117 31 167 7z"/>
<path d="M4335 1361 c-76 -19 -143 -78 -165 -146 -7 -20 -10 -66 -8 -101 3
-50 10 -73 34 -106 56 -82 188 -122 277 -85 177 75 187 329 17 417 -43 22
-114 32 -155 21z m136 -84 c134 -90 89 -289 -70 -305 -97 -9 -172 56 -179 156
-3 47 0 63 20 92 55 80 157 106 229 57z"/>
<path d="M7052 1355 c-62 -19 -106 -57 -136 -117 -43 -87 -31 -180 32 -250 48
-53 102 -78 172 -78 178 0 286 191 195 346 -30 51 -70 82 -132 100 -56 17 -75
17 -131 -1z m144 -71 c43 -21 71 -55 84 -105 17 -61 3 -108 -44 -156 -71 -71
-160 -71 -232 1 -32 32 -44 52 -49 87 -15 99 60 189 157 189 28 0 65 -7 84
-16z"/>
<path d="M9725 1361 c-109 -28 -175 -114 -175 -229 0 -212 277 -304 407 -134
108 142 21 344 -157 365 -25 3 -58 2 -75 -2z m136 -84 c104 -70 108 -206 7
-280 -40 -30 -116 -34 -165 -8 -63 32 -88 74 -88 148 0 69 17 101 75 141 46
31 124 31 171 -1z"/>
<path d="M2591 547 c-50 -19 -111 -75 -132 -121 -11 -24 -19 -64 -19 -96 0
-172 175 -280 329 -204 208 104 145 414 -86 430 -33 2 -73 -2 -92 -9z m159
-72 c52 -27 75 -72 75 -145 0 -80 -26 -123 -93 -152 -81 -36 -173 -3 -211 76
-36 73 -23 144 36 199 52 48 126 57 193 22z"/>
<path d="M5515 537 c-60 -29 -87 -57 -114 -117 -40 -87 -22 -180 49 -250 72
-73 164 -89 255 -46 61 28 87 56 116 120 46 105 -1 235 -105 288 -63 32 -141
34 -201 5z m140 -48 c83 -23 137 -117 115 -199 -22 -83 -104 -138 -188 -125
-63 9 -128 73 -137 136 -11 77 27 147 100 180 47 22 57 22 110 8z"/>
<path d="M8405 536 c-60 -28 -87 -56 -114 -116 -67 -147 47 -320 211 -320 76
0 158 45 158 87 0 19 4 24 16 19 21 -8 54 66 54 124 0 57 -33 132 -54 124 -10
-4 -15 3 -18 23 -2 23 -13 33 -57 56 -69 34 -128 35 -196 3z m153 -51 c20 -9
47 -25 59 -37 12 -11 26 -17 31 -14 5 3 12 -19 15 -49 7 -67 -2 -167 -15 -159
-4 3 -22 -6 -39 -20 -70 -59 -161 -56 -225 8 -84 84 -59 217 50 267 50 23 76
24 124 4z"/>
</g>
</svg>
