<?xml version="1.0" standalone="no"?>
<!DOCTYPE svg PUBLIC "-//W3C//DTD SVG 20010904//EN"
 "http://www.w3.org/TR/2001/REC-SVG-20010904/DTD/svg10.dtd">
<svg version="1.0" xmlns="http://www.w3.org/2000/svg"
 width="1125.000000pt" height="900.000000pt" viewBox="0 0 1125.000000 900.000000"
 preserveAspectRatio="xMidYMid meet">
<metadata>
Created by potrace 1.13, written by Peter Selinger 2001-2015
</metadata>
<g transform="translate(0.000000,900.000000) scale(0.100000,-0.100000)"
fill="#000000" stroke="none">
<path d="M0 4500 l0 -4500 5625 0 5625 0 0 4500 0 4500 -5625 0 -5625 0 0
-4500z m1666 4323 c193 -73 353 -133 357 -133 3 0 8 60 9 133 l3 132 365 3
c347 2 366 2 380 -16 40 -49 97 -52 126 -7 l16 25 390 0 390 0 28 -30 c37 -39
73 -39 110 0 l28 30 2441 0 c1948 0 2442 -2 2445 -12 3 -7 7 -25 10 -39 l6
-27 39 39 39 39 873 0 c753 -1 877 -3 893 -15 25 -19 59 -19 96 0 25 13 70 15
262 13 l233 -3 3 -1006 2 -1007 -29 -11 c-59 -25 -60 -107 0 -131 l29 -12 0
-1380 c0 -1027 -3 -1385 -12 -1401 -6 -12 -58 -77 -115 -145 l-103 -124 92
-104 c51 -58 103 -120 116 -137 l22 -32 -4 -665 c-3 -366 -5 -681 -5 -700 0
-19 2 -221 5 -449 4 -387 3 -415 -13 -433 -10 -11 -61 -58 -114 -104 l-96 -83
-259 -47 c-142 -26 -262 -50 -266 -53 -7 -6 39 -611 46 -618 2 -2 159 20 351
47 192 28 350 50 352 50 2 0 2 -82 1 -182 l-3 -183 -595 1 c-327 1 -617 2
-645 2 -27 1 -310 -1 -627 -4 -544 -4 -578 -3 -586 13 -8 15 -91 246 -285 796
-5 16 -13 25 -17 20 -5 -4 -88 -188 -185 -408 -98 -220 -182 -406 -188 -413
-8 -10 -229 -12 -1126 -9 -997 2 -1122 4 -1169 19 -50 16 -53 15 -62 -3 -11
-19 -45 -19 -1758 -17 l-1747 3 -3 68 -3 68 -65 -70 -66 -71 -1016 2 -1017 3
-3 188 c-2 145 0 189 10 192 7 3 57 11 112 19 54 8 101 17 104 20 4 5 -128
831 -145 904 l-6 23 -31 -30 c-18 -17 -35 -31 -39 -31 -5 0 -6 170 -3 378 2
207 4 384 4 392 -7 557 -6 1241 0 1238 5 -1 53 -53 107 -115 55 -62 101 -111
102 -109 5 4 -149 1089 -154 1096 -3 3 -14 -7 -25 -23 -11 -15 -24 -27 -29
-27 -5 0 -9 789 -9 1984 l0 1985 34 -6 c28 -4 39 -1 60 20 51 52 20 123 -53
121 l-41 -1 0 342 c0 188 3 345 7 349 4 3 291 5 637 4 l631 -3 351 -132z m302
45 c1 -49 0 -88 -4 -88 -15 0 -439 162 -449 171 -6 6 76 8 220 7 l230 -3 3
-87z m-1850 -5187 c29 -201 50 -366 48 -368 -2 -2 -31 28 -65 67 l-61 71 0
289 c0 274 4 332 20 313 4 -4 30 -172 58 -372z m11092 64 c0 -85 -4 -155 -9
-155 -16 0 -132 143 -127 156 8 20 119 153 129 154 4 0 7 -70 7 -155z m-11130
-2491 c0 -3 27 -167 60 -364 33 -197 60 -363 60 -368 0 -11 -139 -34 -152 -26
-12 8 -10 721 2 745 10 17 30 27 30 13z m11130 -449 c0 -251 -3 -327 -12 -330
-20 -8 -633 -94 -637 -90 -9 9 -43 487 -35 494 5 4 117 27 249 51 l239 43 89
78 c49 44 93 79 98 79 5 0 9 -144 9 -325z m-2641 -426 c61 -173 111 -320 111
-327 0 -9 -66 -12 -265 -12 -146 0 -265 3 -265 6 0 20 294 664 300 657 4 -4
58 -150 119 -324z"/>
<path d="M8110 8920 c-11 -11 -20 -33 -20 -50 0 -17 9 -39 20 -50 11 -11 33
-20 50 -20 17 0 39 9 50 20 11 11 20 33 20 50 0 17 -9 39 -20 50 -11 11 -33
20 -50 20 -17 0 -39 -9 -50 -20z"/>
<path d="M7252 8737 c-45 -48 -14 -117 51 -117 42 0 67 26 67 68 0 65 -74 96
-118 49z"/>
<path d="M5970 8505 c0 -17 445 -845 454 -845 17 0 736 335 733 342 -6 18
-501 448 -520 452 -12 3 -141 14 -287 26 -146 11 -291 23 -322 27 -32 3 -58 2
-58 -2z m391 -89 l267 -23 212 -188 c203 -181 211 -189 188 -201 -80 -41 -579
-266 -582 -263 -3 2 -70 128 -151 279 -81 151 -164 308 -186 348 -24 44 -35
72 -27 72 7 -1 133 -11 279 -24z"/>
<path d="M1101 8444 c-12 -15 -21 -35 -21 -46 0 -27 45 -68 75 -68 30 0 75 41
75 68 0 35 -38 72 -75 72 -24 0 -39 -7 -54 -26z"/>
<path d="M8865 8345 c-30 -30 -31 -54 -4 -89 20 -26 69 -36 95 -18 15 10 34
47 34 67 0 25 -46 65 -75 65 -14 0 -37 -11 -50 -25z"/>
<path d="M4515 8270 c-42 -46 -10 -120 51 -120 35 0 74 37 74 70 0 10 -9 29
-21 44 -26 33 -77 36 -104 6z"/>
<path d="M1933 8260 c-25 -10 -43 -39 -43 -70 0 -29 44 -70 75 -70 62 0 89 89
39 129 -29 23 -38 24 -71 11z"/>
<path d="M9922 8254 c-63 -44 -37 -134 39 -134 28 0 69 44 69 73 0 55 -65 92
-108 61z"/>
<path d="M3211 8184 c-12 -15 -21 -34 -21 -44 0 -32 39 -70 71 -70 34 0 79 39
79 68 0 35 -38 72 -75 72 -24 0 -39 -7 -54 -26z"/>
<path d="M5581 8134 c-12 -15 -21 -34 -21 -44 0 -34 39 -70 75 -70 36 0 75 36
75 70 0 34 -39 70 -75 70 -24 0 -39 -7 -54 -26z"/>
<path d="M10535 7944 l-109 -166 48 -246 c27 -136 52 -255 55 -265 6 -17 89
48 359 284 l32 29 -132 265 c-73 146 -135 265 -138 265 -3 0 -54 -75 -115
-166z m304 -346 c1 -9 -259 -231 -265 -226 -2 3 -22 92 -43 199 l-40 194 76
115 76 114 98 -194 c54 -107 98 -198 98 -202z"/>
<path d="M2400 8067 c0 -2 -27 -138 -60 -302 -33 -164 -60 -300 -60 -301 0 -2
-80 -69 -177 -149 -98 -81 -179 -150 -181 -154 -1 -3 166 -90 371 -193 l374
-186 88 381 c48 210 88 387 89 394 1 10 -430 513 -440 513 -2 0 -4 -1 -4 -3z
m229 -345 c100 -115 150 -180 147 -190 -3 -10 -37 -160 -77 -334 -40 -175 -77
-318 -81 -318 -21 0 -590 292 -582 299 5 4 75 63 155 129 l146 121 47 238 c26
131 49 244 52 252 6 18 -1 26 193 -197z"/>
<path d="M3881 7903 c0 -10 13 -99 27 -199 l27 -181 178 -153 c158 -135 179
-151 195 -139 9 8 84 70 165 138 122 101 146 126 135 136 -13 12 -716 415
-724 415 -2 0 -4 -8 -3 -17z m347 -249 c141 -81 263 -152 270 -159 11 -10 -4
-27 -80 -90 -51 -43 -101 -85 -110 -93 -15 -12 -32 -1 -165 114 l-148 127 -17
106 c-18 116 -21 141 -13 141 3 0 121 -66 263 -146z"/>
<path d="M8211 7614 c-12 -15 -21 -34 -21 -44 0 -34 39 -70 75 -70 24 0 39 7
54 26 27 35 26 59 -4 89 -33 34 -77 33 -104 -1z"/>
<path d="M942 7474 c-79 -33 -31 -151 53 -130 28 7 57 58 47 85 -16 48 -54 65
-100 45z"/>
<path d="M9356 7328 c-36 -51 -3 -118 56 -118 57 0 87 68 52 118 -11 16 -25
22 -54 22 -29 0 -43 -6 -54 -22z"/>
<path d="M8412 6958 l-209 -293 314 -3 315 -2 141 104 c78 58 155 116 171 129
l29 23 -272 167 c-149 92 -273 167 -276 167 -2 0 -98 -132 -213 -292z m596
-15 l54 -34 -126 -95 -126 -94 -244 2 -244 3 121 170 c67 94 139 194 159 223
l38 52 157 -97 c87 -52 182 -111 211 -130z"/>
<path d="M5562 7154 c-16 -11 -22 -25 -22 -54 0 -29 6 -43 22 -54 51 -36 118
-5 118 54 0 59 -67 90 -118 54z"/>
<path d="M3283 7138 c-68 -33 -40 -138 37 -138 28 0 70 44 70 73 0 51 -61 88
-107 65z"/>
<path d="M6600 7100 c-26 -26 -26 -81 -2 -103 28 -25 87 -22 106 5 51 73 -42
160 -104 98z"/>
<path d="M7677 6848 c-65 -50 -12 -153 64 -126 53 18 65 73 24 113 -26 27 -62
32 -88 13z"/>
<path d="M10220 6760 c-11 -11 -20 -33 -20 -50 0 -17 9 -39 20 -50 43 -43 120
-11 120 50 0 38 -32 70 -70 70 -17 0 -39 -9 -50 -20z"/>
<path d="M5665 6499 c-176 -132 -323 -243 -328 -248 -6 -6 562 -461 576 -461
3 0 69 119 147 264 l141 264 -106 211 c-58 116 -106 211 -108 211 -1 0 -146
-109 -322 -241z m385 -20 l81 -161 -118 -218 c-102 -191 -119 -217 -133 -207
-9 7 -114 88 -233 181 l-216 169 262 198 c144 109 265 198 269 198 5 1 44 -71
88 -160z"/>
<path d="M4437 6682 c-40 -44 -7 -122 51 -122 60 0 94 78 52 120 -26 26 -81
26 -103 2z"/>
<path d="M1606 6659 c-19 -15 -26 -30 -26 -54 0 -36 36 -75 70 -75 34 0 70 39
70 75 0 36 -36 75 -70 75 -10 0 -29 -9 -44 -21z"/>
<path d="M940 6534 c-8 -1 -174 -20 -367 -40 -194 -21 -353 -42 -353 -47 0
-15 311 -547 320 -547 6 0 472 592 493 627 6 10 -2 13 -35 12 -24 -1 -50 -3
-58 -5z m-42 -74 c-3 -11 -351 -460 -354 -457 -34 49 -224 391 -219 395 3 4
131 21 283 38 152 18 281 32 285 33 5 0 7 -3 5 -9z"/>
<path d="M2642 6367 c-45 -48 -14 -117 51 -117 42 0 67 26 67 68 0 65 -74 96
-118 49z"/>
<path d="M9360 6240 c-24 -24 -26 -67 -4 -98 11 -16 25 -22 54 -22 29 0 43 6
54 22 36 51 5 118 -54 118 -17 0 -39 -9 -50 -20z"/>
<path d="M3626 6208 c-50 -71 43 -159 104 -98 26 26 26 81 2 103 -28 25 -87
22 -106 -5z"/>
<path d="M8346 6215 c-59 -60 10 -155 83 -114 63 36 42 121 -31 127 -23 2 -41
-3 -52 -13z"/>
<path d="M6600 6110 c-24 -24 -26 -67 -4 -98 11 -16 25 -22 54 -22 29 0 43 6
54 22 36 51 5 118 -54 118 -17 0 -39 -9 -50 -20z"/>
<path d="M5035 5820 c-42 -47 -8 -120 55 -120 33 0 70 40 70 76 0 57 -86 87
-125 44z"/>
<path d="M7460 5770 c-11 -11 -20 -33 -20 -50 0 -17 9 -39 20 -50 11 -11 33
-20 50 -20 17 0 39 9 50 20 11 11 20 33 20 50 0 17 -9 39 -20 50 -11 11 -33
20 -50 20 -17 0 -39 -9 -50 -20z"/>
<path d="M1783 5520 l-153 -230 77 -155 78 -155 210 0 211 0 124 274 c68 151
123 278 123 282 -1 5 -515 217 -518 214 0 0 -69 -104 -152 -230z m381 70 c109
-44 201 -82 204 -84 3 -3 -42 -109 -99 -235 l-104 -230 -170 -1 -170 0 -61
122 -61 123 129 192 c70 106 130 193 131 193 2 0 92 -36 201 -80z"/>
<path d="M4051 5589 c-221 -43 -405 -80 -408 -82 -5 -6 245 -507 253 -507 10
0 669 272 677 279 4 4 -11 94 -35 199 -38 175 -44 192 -62 191 -12 -1 -203
-36 -425 -80z m426 -126 c17 -76 28 -141 25 -145 -7 -7 -566 -238 -576 -238
-6 0 -198 379 -194 381 5 2 693 137 704 138 6 1 24 -60 41 -136z"/>
<path d="M2980 5640 c-43 -43 -11 -120 50 -120 38 0 70 32 70 70 0 38 -32 70
-70 70 -17 0 -39 -9 -50 -20z"/>
<path d="M1055 5585 c-41 -40 -29 -95 24 -113 36 -13 71 3 89 41 11 22 10 31
-2 55 -25 49 -73 56 -111 17z"/>
<path d="M10795 5585 c-41 -40 -29 -95 24 -113 57 -20 109 32 89 89 -18 53
-73 65 -113 24z"/>
<path d="M9922 5524 c-145 -12 -267 -25 -270 -29 -6 -5 34 -371 44 -407 5 -17
31 -18 365 -18 197 0 359 3 359 7 0 4 -35 112 -77 240 l-78 233 -40 -1 c-22
-1 -159 -12 -303 -25z m358 -218 l59 -176 -293 0 -293 0 -18 150 c-10 83 -15
154 -11 158 6 6 485 51 494 46 1 -1 29 -81 62 -178z"/>
<path d="M8913 5370 c-48 -19 -58 -87 -17 -119 53 -41 114 -13 114 52 0 51
-50 86 -97 67z"/>
<path d="M6900 5333 c0 -5 -13 -161 -29 -348 -16 -187 -27 -342 -24 -345 3 -3
62 -5 131 -4 179 0 276 31 369 117 77 71 110 163 91 251 -8 38 -21 60 -58 97
-55 55 -106 83 -279 151 -68 27 -141 58 -162 69 -22 11 -39 16 -39 12z m176
-138 c145 -56 222 -97 263 -139 53 -55 54 -138 2 -216 -57 -86 -170 -135 -338
-146 l-96 -7 6 54 c3 30 14 154 23 277 10 122 19 222 21 222 1 0 55 -20 119
-45z"/>
<path d="M5876 5199 c-50 -39 -22 -122 42 -122 66 0 98 78 50 123 -28 26 -58
26 -92 -1z"/>
<path d="M217 4962 c-24 -26 -21 -77 5 -102 63 -58 152 26 102 98 -20 28 -83
31 -107 4z"/>
<path d="M4922 4764 c-63 -44 -37 -134 39 -134 28 0 69 44 69 73 0 55 -65 92
-108 61z"/>
<path d="M2376 4698 c-50 -71 43 -159 104 -98 26 26 26 81 2 103 -28 25 -87
22 -106 -5z"/>
<path d="M1283 4640 c-26 -11 -43 -40 -43 -74 0 -27 41 -66 70 -66 34 0 70 39
70 75 0 24 -7 39 -26 54 -29 23 -38 24 -71 11z"/>
<path d="M9650 4643 c-56 -21 -68 -87 -24 -122 15 -12 34 -21 44 -21 34 0 70
39 70 75 0 49 -46 84 -90 68z"/>
<path d="M3672 4563 c-7 -3 -19 -18 -27 -33 -40 -77 71 -147 120 -77 42 60
-24 138 -93 110z"/>
<path d="M8372 4467 c-43 -46 -16 -117 46 -119 43 -1 72 26 72 69 0 66 -74 97
-118 50z"/>
<path d="M10630 4433 c-15 -19 -19 -35 -15 -53 14 -62 90 -79 128 -28 54 73
-56 153 -113 81z"/>
<path d="M6182 4387 c-44 -47 -13 -117 52 -117 41 0 69 29 69 72 0 61 -78 91
-121 45z"/>
<path d="M4485 4353 c18 -119 80 -272 158 -388 80 -118 155 -180 486 -399 173
-114 317 -204 321 -199 15 17 183 674 174 682 -9 8 -1121 351 -1138 351 -4 0
-5 -21 -1 -47z m583 -195 c295 -90 491 -156 489 -162 -2 -6 -35 -129 -73 -273
-38 -145 -73 -263 -77 -263 -4 0 -135 85 -291 189 -212 142 -297 205 -341 252
-89 97 -154 206 -194 328 -23 70 -25 81 -14 81 5 0 230 -68 501 -152z"/>
<path d="M8683 4144 c-156 -124 -283 -229 -283 -232 1 -8 879 -392 896 -392
12 0 58 143 74 229 6 29 10 95 10 145 0 128 -18 160 -135 248 -49 37 -129 104
-177 148 -47 44 -90 80 -95 80 -4 0 -135 -102 -290 -226z m365 78 c42 -37 115
-96 161 -131 106 -81 115 -101 108 -236 -5 -81 -37 -238 -52 -253 -6 -7 -746
321 -743 329 3 7 440 359 446 359 2 0 38 -30 80 -68z"/>
<path d="M7642 4337 c-43 -46 -16 -117 46 -119 43 -1 72 26 72 69 0 66 -74 97
-118 50z"/>
<path d="M2428 3994 c-115 -57 -208 -107 -208 -110 0 -3 70 -123 156 -265
l155 -260 29 25 c66 55 550 499 548 501 -2 2 -106 49 -233 105 -126 56 -232
103 -235 105 -3 2 -98 -44 -212 -101z m446 -72 l128 -57 -30 -25 c-16 -14
-116 -104 -221 -200 -106 -96 -196 -176 -199 -178 -7 -2 -234 370 -240 392 -1
6 71 48 160 92 l163 81 55 -24 c30 -13 113 -50 184 -81z"/>
<path d="M6835 3945 c-39 -39 -32 -86 17 -111 59 -30 122 27 99 89 -19 51 -77
62 -116 22z"/>
<path d="M3533 3732 c-51 -8 -70 -83 -30 -120 48 -45 117 -14 117 51 0 48 -38
77 -87 69z"/>
<path d="M9855 3685 c-28 -27 -30 -42 -14 -79 16 -34 58 -51 91 -35 26 11 48
46 48 75 0 24 -47 64 -75 64 -14 0 -37 -11 -50 -25z"/>
<path d="M7191 3418 l-255 -283 254 -3 c139 -1 255 -1 257 1 2 2 2 131 1 286
l-3 281 -254 -282z m199 -53 l0 -175 -156 0 c-86 0 -154 4 -152 8 3 9 301 342
306 342 1 0 2 -79 2 -175z"/>
<path d="M585 3605 c-28 -27 -31 -45 -14 -78 16 -30 28 -37 66 -37 41 0 77 42
68 80 -14 58 -78 78 -120 35z"/>
<path d="M1942 3560 c-50 -47 -6 -140 58 -125 60 14 80 88 34 124 -34 27 -64
27 -92 1z"/>
<path d="M5956 3429 c-36 -29 -36 -80 1 -109 47 -37 113 -2 113 60 0 31 -39
70 -70 70 -10 0 -29 -9 -44 -21z"/>
<path d="M4262 3353 c-52 -44 -24 -123 43 -123 67 0 97 69 50 115 -28 29 -65
32 -93 8z"/>
<path d="M241 2874 c-12 -15 -21 -34 -21 -44 0 -34 39 -70 75 -70 36 0 75 36
75 70 0 34 -39 70 -75 70 -24 0 -39 -7 -54 -26z"/>
<path d="M1848 2864 c-75 -40 -21 -156 60 -128 63 22 63 111 0 133 -17 6 -31
11 -32 11 -1 -1 -13 -7 -28 -16z"/>
<path d="M5460 2873 c-51 -19 -68 -85 -30 -123 61 -61 159 33 103 98 -20 23
-50 33 -73 25z"/>
<path d="M6677 2802 c-25 -28 -22 -87 5 -106 71 -50 159 43 98 104 -26 26 -81
26 -103 2z"/>
<path d="M9121 2794 c-27 -35 -26 -59 4 -89 33 -34 77 -33 104 1 12 15 21 34
21 44 0 34 -39 70 -75 70 -24 0 -39 -7 -54 -26z"/>
<path d="M8190 2750 c-26 -26 -26 -81 -2 -103 44 -40 122 -7 122 51 0 60 -78
94 -120 52z"/>
<path d="M4433 2740 c-47 -19 -56 -78 -18 -115 47 -48 115 -19 115 48 0 51
-50 86 -97 67z"/>
<path d="M3057 2672 c-25 -28 -22 -87 5 -106 71 -50 159 43 98 104 -26 26 -81
26 -103 2z"/>
<path d="M10220 2540 c-43 -43 -11 -120 50 -120 38 0 70 32 70 70 0 38 -32 70
-70 70 -17 0 -39 -9 -50 -20z"/>
<path d="M2093 2208 c-95 -138 -171 -253 -169 -256 6 -5 394 -61 429 -62 20 0
51 18 105 62 42 34 78 62 79 63 2 1 -11 72 -28 158 l-32 156 -98 65 c-54 36
-102 66 -106 66 -5 0 -86 -114 -180 -252z m260 130 c34 -22 63 -42 64 -43 7
-4 52 -248 48 -255 -2 -4 -28 -26 -58 -48 l-53 -41 -159 23 c-114 17 -159 27
-157 36 3 12 244 369 250 370 2 0 31 -19 65 -42z"/>
<path d="M1051 2354 c-41 -53 -13 -114 52 -114 42 0 70 29 70 72 0 64 -83 92
-122 42z"/>
<path d="M5811 2003 c-96 -137 -174 -253 -175 -259 -1 -6 56 -57 125 -113 87
-70 135 -101 153 -101 24 0 1192 138 1208 143 5 1 -54 89 -129 195 l-138 192
-242 0 -243 0 -190 95 c-104 52 -191 95 -193 95 -2 0 -81 -111 -176 -247z
m380 77 l181 -90 228 0 228 0 95 -132 c52 -73 92 -134 88 -135 -26 -10 -1096
-131 -1105 -126 -6 4 -52 40 -103 80 l-91 74 146 209 c81 116 148 210 149 210
1 0 84 -40 184 -90z"/>
<path d="M9013 2215 c-165 -13 -306 -24 -311 -26 -14 -5 506 -575 521 -571 18
4 640 243 655 251 8 5 -71 72 -222 189 l-234 182 -54 -1 c-29 -1 -189 -12
-355 -24z m567 -176 c100 -78 178 -145 173 -149 -13 -12 -513 -202 -522 -198
-6 2 -100 102 -209 223 -179 196 -198 220 -176 223 26 3 478 38 525 41 20 1
73 -35 209 -140z"/>
<path d="M3970 2100 c-26 -26 -26 -81 -2 -103 28 -25 87 -22 106 5 51 73 -42
160 -104 98z"/>
<path d="M5165 2070 c-26 -29 -24 -79 4 -102 70 -56 164 39 101 102 -26 26
-81 26 -105 0z"/>
<path d="M7611 2064 c-12 -15 -21 -35 -21 -46 0 -27 45 -68 75 -68 29 0 75 40
75 65 0 20 -19 57 -34 67 -26 18 -75 8 -95 -18z"/>
<path d="M2807 1868 c-37 -33 -40 -75 -7 -108 27 -27 66 -25 95 5 29 28 32 65
8 93 -28 33 -66 37 -96 10z"/>
<path d="M8475 1575 c-28 -27 -30 -42 -14 -78 32 -71 139 -41 139 39 0 24 -47
64 -75 64 -14 0 -37 -11 -50 -25z"/>
<path d="M512 1503 c-52 -44 -24 -123 43 -123 36 0 75 36 75 70 0 10 -9 29
-21 44 -24 31 -67 35 -97 9z"/>
<path d="M1522 1497 c-45 -48 -14 -117 51 -117 42 0 67 26 67 68 0 65 -74 96
-118 49z"/>
<path d="M4626 1449 c-50 -39 -22 -122 42 -122 66 0 98 78 50 123 -28 26 -58
26 -92 -1z"/>
<path d="M10662 1367 c-45 -48 -14 -117 51 -117 43 0 67 26 67 73 0 63 -74 91
-118 44z"/>
<path d="M6937 1292 c-25 -28 -22 -87 5 -106 51 -36 118 -5 118 54 0 17 -9 39
-20 50 -26 26 -81 26 -103 2z"/>
<path d="M3636 1269 c-36 -28 -36 -80 0 -108 15 -12 34 -21 44 -21 34 0 70 39
70 75 0 36 -36 75 -70 75 -10 0 -29 -9 -44 -21z"/>
<path d="M9620 1160 c-43 -43 -11 -120 50 -120 38 0 70 32 70 70 0 38 -32 70
-70 70 -17 0 -39 -9 -50 -20z"/>
<path d="M3884 1028 l-221 -51 -101 -176 -101 -177 77 -207 c42 -114 80 -207
84 -207 6 0 460 199 464 203 1 1 11 130 23 287 12 157 24 306 27 333 5 41 4
47 -13 46 -10 -1 -118 -24 -239 -51z m182 -80 c-3 -29 -13 -152 -22 -273 -9
-121 -17 -220 -18 -221 -77 -36 -370 -163 -373 -161 -1 2 -30 77 -63 166 l-60
162 88 152 87 151 165 37 c219 49 204 50 196 -13z"/>
<path d="M2580 960 c-11 -11 -20 -33 -20 -50 0 -17 9 -39 20 -50 43 -43 120
-11 120 50 0 38 -32 70 -70 70 -17 0 -39 -9 -50 -20z"/>
<path d="M5430 720 c-25 -25 -26 -81 -2 -103 46 -42 122 -10 122 51 0 60 -78
94 -120 52z"/>
<path d="M1289 592 c-15 -13 -22 -30 -22 -51 0 -66 76 -98 123 -51 27 27 25
66 -5 95 -29 30 -64 32 -96 7z"/>
<path d="M7750 503 c-53 -19 -67 -83 -27 -121 29 -28 57 -28 91 -1 57 45 4
146 -64 122z"/>
<path d="M9102 460 c-48 -45 -16 -123 50 -123 61 0 91 78 45 121 -29 28 -67
28 -95 2z"/>
<path d="M6491 424 c-27 -35 -26 -59 4 -89 33 -34 77 -33 104 1 12 15 21 34
21 44 0 34 -39 70 -75 70 -24 0 -39 -7 -54 -26z"/>
</g>
</svg>
