<?xml version="1.0" standalone="no"?>
<!DOCTYPE svg PUBLIC "-//W3C//DTD SVG 20010904//EN"
 "http://www.w3.org/TR/2001/REC-SVG-20010904/DTD/svg10.dtd">
<svg version="1.0" xmlns="http://www.w3.org/2000/svg"
 width="1125.000000pt" height="900.000000pt" viewBox="0 0 1125.000000 900.000000"
 preserveAspectRatio="xMidYMid meet">
<metadata>
Created by potrace 1.13, written by Peter Selinger 2001-2015
</metadata>
<g transform="translate(0.000000,900.000000) scale(0.100000,-0.100000)"
fill="#000000" stroke="none">
<path d="M0 4500 l0 -4500 5625 0 5625 0 0 4500 0 4500 -5625 0 -5625 0 0
-4500z m1888 4437 c13 -69 -51 -158 -150 -208 -204 -103 -808 -159 -1388 -130
-124 7 -244 14 -267 18 l-43 5 0 162 c0 90 3 166 7 169 3 4 418 6 922 5 882
-3 916 -4 919 -21z m3014 -17 c-6 -79 -107 -195 -201 -231 -51 -20 -83 -23
-351 -30 -222 -5 -327 -12 -424 -28 -105 -17 -173 -21 -370 -21 -132 0 -359
-5 -503 -11 -195 -8 -276 -8 -315 1 -29 6 -134 18 -233 26 -196 16 -262 32
-378 92 -81 42 -139 104 -157 167 -23 82 -166 75 1474 73 l1461 -3 -3 -35z
m2611 33 c4 -3 -4 -25 -18 -49 -14 -23 -25 -50 -25 -59 0 -11 -5 -15 -15 -11
-9 3 -34 -9 -59 -28 -26 -19 -70 -40 -107 -50 -129 -33 -687 -144 -784 -156
-55 -6 -125 -18 -155 -25 -169 -43 -591 -46 -730 -7 -41 12 -118 28 -171 35
-187 28 -371 153 -450 308 -10 21 -19 41 -19 44 0 7 2525 6 2533 -2z m2825
-34 c4 -53 -46 -115 -128 -157 -61 -31 -77 -33 -280 -53 -118 -11 -332 -22
-475 -25 -143 -3 -287 -10 -320 -15 -68 -11 -826 -39 -1068 -40 -153 -1 -160
0 -215 27 -65 32 -170 131 -195 186 -17 36 -23 99 -10 111 3 4 610 6 1347 5
l1341 -3 3 -36z m870 -120 l2 -156 -242 4 c-272 5 -314 13 -424 79 -125 75
-157 130 -128 222 3 10 87 12 396 10 l393 -3 3 -156z m-3581 -27 c20 -29 59
-74 87 -99 l51 -45 -130 6 c-71 3 -218 9 -325 12 l-195 7 105 23 c58 12 118
27 133 33 44 17 117 70 117 85 0 8 7 13 16 12 10 0 32 21 53 52 l36 53 7 -43
c4 -23 24 -66 45 -96z m-2545 -64 c24 -19 61 -47 83 -62 l40 -28 -218 5 c-120
3 -222 8 -225 12 -4 4 2 11 13 18 39 21 133 119 156 161 l23 43 43 -57 c23
-32 62 -73 85 -92z m-3117 60 c26 -36 56 -60 141 -115 15 -10 3 -11 -66 -6
-47 3 -86 9 -88 13 -1 4 -45 5 -97 2 -52 -2 -95 -2 -95 1 0 3 20 17 44 31 25
14 62 46 83 71 21 24 40 44 43 44 3 0 19 -19 35 -41z m8429 -2 c14 -19 54 -53
88 -76 l63 -43 -145 7 c-80 4 -163 10 -184 13 l-39 6 54 28 c30 15 70 43 89
62 19 19 38 35 41 36 4 0 18 -14 33 -33z m-214 -158 c36 -6 182 -14 325 -20
280 -10 672 -25 693 -27 16 -1 18 -636 2 -646 -50 -31 -694 -38 -1340 -16
-330 12 -459 12 -695 2 -252 -10 -296 -10 -339 3 -57 17 -147 76 -170 111 -14
22 -14 27 12 72 32 58 36 139 8 191 -17 33 -17 34 9 79 57 96 145 156 310 211
88 30 96 31 400 42 549 20 653 20 785 -2z m-8020 -28 c113 -5 239 -16 280 -24
41 -8 136 -20 210 -26 408 -34 550 -112 538 -295 -2 -36 0 -65 4 -65 5 0 6
-17 2 -37 -18 -106 -85 -192 -164 -213 -203 -55 -716 -80 -1240 -62 -190 7
-435 12 -545 12 -393 0 -585 38 -717 142 -122 96 -103 263 45 379 121 96 237
129 507 144 92 5 168 14 450 54 69 10 293 7 630 -9z m2630 -10 c52 -5 203 -12
335 -15 186 -5 256 -11 310 -25 39 -11 108 -24 155 -31 47 -6 105 -22 130 -34
99 -50 213 -185 227 -269 13 -80 -70 -212 -172 -272 -57 -33 -197 -62 -352
-73 -136 -9 -148 -9 -518 16 -245 16 -540 13 -635 -6 -98 -20 -388 -34 -469
-22 -106 16 -250 55 -309 85 -109 55 -212 188 -212 272 0 95 94 230 193 278
83 40 311 73 597 86 135 7 274 16 310 20 71 9 259 5 410 -10z m4060 16 c0 -2
-24 -17 -52 -34 -51 -28 -142 -115 -165 -157 -10 -18 -16 -15 -76 42 -37 35
-96 76 -138 97 -39 20 -63 37 -53 37 11 1 102 5 204 8 102 4 206 8 233 9 26 1
47 0 47 -2z m-840 -26 c262 -16 394 -62 514 -182 50 -50 66 -73 61 -86 -24
-61 -37 -141 -31 -193 l7 -57 -42 -36 c-24 -20 -61 -45 -83 -56 -65 -31 -271
-79 -391 -91 -60 -6 -137 -17 -170 -25 -129 -32 -928 -28 -1175 6 -36 5 -135
14 -220 20 -213 15 -296 41 -380 116 -110 100 -86 279 57 415 90 86 130 102
343 138 102 17 235 35 295 40 128 11 987 5 1215 -9z m-7844 -55 c94 -43 147
-92 186 -172 27 -55 32 -76 30 -125 -2 -33 -10 -74 -18 -90 -43 -83 -181 -175
-280 -186 l-44 -5 0 305 c0 168 3 308 7 311 9 10 35 1 119 -38z m3294 41 c0
-2 -20 -16 -44 -30 -47 -28 -128 -112 -153 -159 l-15 -30 -18 40 c-24 54 -82
108 -154 143 l-61 29 170 3 c94 2 194 5 223 6 28 1 52 0 52 -2z m-2903 -16
c51 0 93 -3 93 -7 0 -5 -24 -21 -52 -38 -29 -16 -80 -58 -114 -92 l-61 -61
-17 35 c-25 53 -65 101 -116 140 l-45 36 109 -7 c60 -3 151 -6 203 -6z m5546
-103 c-29 -28 -65 -76 -81 -105 l-29 -54 -32 53 c-18 28 -54 75 -81 103 l-49
52 162 2 161 2 -51 -53z m-2823 -398 c36 -59 111 -123 192 -164 65 -32 68 -35
37 -35 -19 0 -88 7 -154 15 -66 8 -156 15 -200 15 -78 1 -79 1 -55 18 48 31
107 99 126 145 10 26 21 47 24 47 3 0 16 -19 30 -41z m-2808 -47 c23 -23 72
-58 109 -76 l67 -34 -67 -6 c-114 -10 -536 -19 -529 -11 4 4 29 11 55 16 77
14 185 73 245 133 48 49 54 53 66 38 7 -9 31 -36 54 -60z m5551 -13 c15 -21
45 -52 67 -68 l41 -29 -53 -6 c-29 -3 -109 -8 -178 -11 l-125 -5 35 21 c46 27
116 95 142 138 20 31 23 33 32 17 6 -10 23 -36 39 -57z m2639 -101 c-32 -3
-113 -9 -182 -12 l-125 -6 52 19 c53 20 151 80 173 106 10 12 22 6 75 -43 l63
-57 -56 -7z m1623 -47 l130 -6 -50 -19 c-113 -42 -257 -119 -306 -164 -39 -35
-54 -43 -57 -32 -8 28 -127 135 -181 164 -30 16 -84 40 -120 53 l-66 24 260
-6 c143 -4 319 -10 390 -14z m-877 -5 c287 -38 477 -128 544 -259 18 -37 18
-42 4 -115 -23 -111 -84 -229 -148 -287 -67 -60 -89 -71 -184 -90 -43 -9 -114
-30 -158 -46 -77 -28 -89 -30 -238 -30 -86 0 -207 5 -270 11 -62 6 -174 13
-248 15 -74 2 -157 8 -185 15 -35 8 -112 10 -260 5 -225 -7 -326 2 -497 45
-166 42 -268 152 -268 288 0 80 34 144 119 224 73 69 209 165 244 172 109 22
271 33 420 29 150 -5 221 -1 532 26 158 14 476 12 593 -3z m-4440 -16 c81 -6
176 -13 211 -16 l63 -6 -78 -32 c-125 -51 -220 -120 -265 -193 l-22 -36 -23
45 c-49 96 -145 176 -281 235 l-58 24 153 -5 c84 -3 219 -11 300 -16z m-3677
-19 c119 -21 224 -55 288 -93 90 -53 161 -152 161 -222 0 -194 -167 -360 -395
-396 -44 -7 -107 -21 -140 -31 -47 -15 -114 -21 -310 -30 -274 -11 -823 -9
-843 4 -9 6 -12 96 -12 393 l0 384 158 1 c86 1 225 5 307 9 269 14 654 5 786
-19z m536 13 l253 -7 -75 -42 c-91 -52 -167 -114 -196 -161 l-21 -35 -29 49
c-38 66 -107 125 -204 173 l-80 40 50 -5 c28 -3 164 -8 302 -12z m4534 6 c30
-5 133 -14 229 -20 199 -12 401 -49 576 -105 128 -40 199 -83 232 -140 20 -35
22 -50 19 -125 -4 -98 -25 -149 -87 -209 -91 -88 -229 -137 -416 -146 -71 -4
-149 -10 -174 -15 -25 -5 -142 -6 -260 -3 -160 4 -260 1 -390 -11 -390 -37
-584 -32 -800 20 -193 47 -341 138 -389 237 -55 115 56 297 233 382 148 71
343 106 691 125 413 22 466 23 536 10z m4841 -8 c5 -5 7 -179 6 -388 l-3 -379
-85 -2 c-414 -9 -565 -6 -670 16 -303 64 -474 222 -424 392 8 24 14 54 14 66
0 12 15 39 33 59 90 104 355 216 577 244 85 10 540 4 552 -8z m-7867 -9 c159
-20 745 -24 838 -5 39 8 73 8 110 2 28 -6 99 -16 157 -24 123 -16 204 -51 280
-122 105 -98 133 -220 78 -335 -48 -97 -170 -191 -293 -227 -71 -20 -340 -22
-1266 -8 -452 7 -609 6 -785 -5 -294 -19 -339 -17 -402 15 -145 74 -265 275
-233 392 33 120 199 242 407 300 125 34 881 46 1109 17z m4335 -61 c-63 -49
-150 -135 -172 -170 l-21 -35 -20 39 c-38 77 -95 118 -227 166 l-75 27 275 0
275 0 -35 -27z m-5785 -591 l60 -64 -75 6 c-41 4 -122 10 -178 13 l-104 7 34
26 c48 37 96 90 125 139 l25 42 26 -52 c15 -29 54 -81 87 -117z m5612 53 c32
-45 110 -113 146 -129 29 -13 7 -14 -200 -15 -128 0 -233 2 -233 5 0 2 23 16
52 31 66 33 149 112 179 170 l24 44 5 -38 c3 -21 15 -52 27 -68z m2492 58 c13
-31 69 -94 121 -136 l35 -28 -40 6 c-22 3 -91 6 -153 6 l-114 0 40 45 c21 24
50 65 63 90 13 25 27 45 30 45 4 0 12 -13 18 -28z m-5026 -123 c45 -34 174
-99 194 -99 6 0 14 -4 17 -8 3 -5 -18 -7 -47 -5 -29 2 -150 10 -270 18 -119 8
-225 15 -235 15 -9 0 6 13 33 29 64 37 138 102 165 146 l22 35 39 -50 c22 -28
59 -64 82 -81z m-3033 -115 c377 -38 354 -38 895 -3 361 24 564 -11 662 -113
45 -47 62 -93 74 -210 17 -164 -6 -285 -63 -321 -35 -23 -182 -63 -326 -89
-116 -21 -155 -23 -447 -22 -223 0 -382 6 -525 18 -129 12 -367 21 -640 26
-467 8 -494 11 -601 65 -133 68 -187 200 -130 318 52 107 224 251 335 281 80
21 246 58 301 66 64 11 278 3 465 -16z m8342 -3 c76 -11 179 -28 230 -37 68
-13 176 -19 398 -23 l305 -6 3 -352 2 -353 -157 0 c-118 0 -182 -5 -253 -20
-84 -17 -135 -20 -450 -20 -402 0 -523 8 -765 50 -280 49 -323 67 -390 158
-118 160 -67 339 137 482 57 40 81 50 141 60 40 7 108 26 152 42 44 16 98 34
120 38 65 14 377 3 527 -19z m-6505 -7 l91 -7 -58 -39 c-57 -38 -170 -150
-170 -169 0 -5 -4 -9 -10 -9 -5 0 -10 8 -10 18 -1 50 -75 157 -135 194 l-30
18 116 0 c64 0 157 -3 206 -6z m903 -19 c118 -8 283 -20 365 -26 83 -5 314
-14 515 -19 301 -7 377 -12 435 -27 126 -33 197 -89 230 -182 58 -166 -72
-366 -301 -461 -67 -28 -97 -34 -204 -42 -69 -4 -172 -15 -230 -22 -58 -8
-139 -12 -180 -10 -41 2 -201 9 -355 15 -154 5 -368 17 -475 25 -107 8 -238
14 -291 14 -163 0 -304 56 -416 166 -65 64 -123 165 -123 215 0 83 90 209 200
279 94 60 153 73 375 80 110 3 209 7 220 8 11 1 117 -5 235 -13z m2930 -2
c327 -9 687 -19 800 -22 l205 -6 63 -34 c176 -95 260 -271 196 -411 -28 -61
-102 -141 -174 -188 l-60 -39 -180 -12 c-179 -12 -299 -29 -394 -57 -36 -10
-138 -16 -380 -20 -349 -6 -385 -4 -591 40 -66 14 -205 34 -310 46 -218 23
-254 36 -354 127 -179 161 -140 323 115 490 105 68 148 83 243 84 42 1 101 4
131 9 78 10 39 11 690 -7z m-1067 1 c3 -4 -24 -28 -61 -54 -37 -26 -95 -77
-129 -114 -34 -36 -64 -66 -67 -66 -2 0 -7 11 -10 24 -13 51 -83 123 -155 159
l-70 35 77 7 c42 3 88 7 102 9 51 6 307 6 313 0z m-5558 -47 c-60 -43 -136
-121 -171 -174 l-36 -55 -16 33 c-26 54 -115 134 -189 171 l-68 33 190 5 c105
3 219 7 255 8 l65 1 -30 -22z m8046 6 l245 -17 -62 -61 c-39 -39 -74 -87 -95
-131 -31 -62 -34 -77 -34 -154 0 -98 19 -147 92 -237 l43 -53 -108 0 c-60 0
-164 -3 -232 -7 l-123 -6 70 69 c96 95 128 162 128 269 0 111 -37 187 -137
279 -49 46 -65 66 -52 66 11 0 129 -7 265 -17z m-8678 -27 c159 -29 277 -93
342 -184 27 -40 30 -51 30 -120 0 -61 -5 -87 -23 -125 -47 -94 -161 -181 -297
-225 -45 -15 -95 -21 -205 -23 l-145 -4 -3 354 -2 354 107 -6 c60 -3 147 -13
196 -21z m6023 -543 l63 -62 -32 -5 c-78 -12 -169 -26 -250 -41 -48 -9 -95
-15 -103 -13 -10 2 8 20 45 46 63 44 121 109 156 175 l20 37 19 -37 c10 -21
47 -66 82 -100z m-5519 -3 c27 -25 58 -50 68 -56 15 -8 -8 -12 -105 -17 -69
-4 -147 -10 -175 -13 l-50 -7 63 58 c35 32 75 78 89 103 l26 44 18 -34 c9 -18
39 -54 66 -78z m2878 -5 c29 -27 80 -66 113 -86 l62 -36 -93 -7 c-50 -3 -202
-8 -337 -11 -233 -4 -242 -4 -181 10 211 49 270 80 307 158 13 29 24 61 24 72
1 16 6 14 27 -15 15 -19 50 -57 78 -85z m-2610 -135 c285 -27 504 -101 628
-210 72 -65 97 -117 97 -201 -1 -140 -93 -244 -271 -304 -154 -53 -299 -83
-435 -89 -133 -7 -280 -26 -344 -47 -58 -18 -283 -22 -500 -10 -113 7 -215 15
-228 18 l-22 5 0 378 0 377 102 7 c56 4 122 11 147 16 25 5 102 14 171 20 69
6 130 16 136 21 28 23 347 35 519 19z m815 0 c102 -5 205 -13 230 -16 l45 -6
-40 -13 c-99 -30 -176 -88 -237 -181 l-43 -65 -20 28 c-70 97 -176 173 -308
221 -42 15 -79 31 -83 35 -10 10 241 9 456 -3z m4685 -5 c74 -23 313 -62 455
-75 145 -13 208 -29 304 -77 37 -19 74 -32 82 -29 8 3 14 0 14 -7 0 -7 20 -25
44 -40 53 -33 116 -100 116 -123 0 -9 -7 -43 -16 -76 -8 -34 -12 -73 -9 -90 9
-38 -27 -94 -89 -139 -26 -18 -46 -39 -46 -48 0 -11 -3 -12 -11 -4 -8 8 -29 3
-76 -19 -73 -33 -76 -33 -373 -47 -209 -10 -309 -20 -418 -42 -104 -21 -639
11 -1107 67 -251 30 -297 45 -377 125 -54 54 -64 87 -55 191 11 125 71 221
174 275 86 46 162 61 318 67 77 3 171 12 208 20 37 8 132 20 210 26 79 6 195
22 258 35 139 28 318 33 394 10z m2820 -14 c53 -10 219 -40 530 -94 208 -37
251 -53 308 -116 42 -47 52 -85 51 -198 0 -71 -5 -90 -33 -147 -36 -74 -79
-114 -166 -155 -128 -61 -277 -76 -495 -50 -74 9 -309 13 -785 14 -738 1 -761
2 -942 60 -123 38 -234 122 -218 164 14 36 24 113 19 140 -14 71 107 211 238
276 l73 35 225 9 c210 8 230 11 305 37 72 26 97 29 255 35 221 8 570 2 635
-10z m-6450 -47 c286 -14 347 -14 627 0 498 25 913 16 1077 -24 195 -48 311
-141 311 -252 0 -54 -54 -154 -115 -213 -96 -92 -293 -179 -474 -210 -97 -16
-436 -20 -798 -9 -133 4 -352 2 -545 -6 -390 -15 -720 -2 -823 32 -182 60
-325 209 -325 338 0 100 96 238 203 289 140 68 343 81 862 55z m2223 -29 c1
-1 -23 -19 -53 -40 -30 -20 -69 -56 -85 -78 -17 -23 -30 -36 -30 -30 0 18 -83
106 -129 135 l-45 28 170 -6 c93 -4 170 -8 172 -9z m6002 -354 c0 -204 -4
-372 -8 -375 -10 -6 -308 37 -442 64 -191 39 -322 129 -356 246 -43 149 39
290 222 380 90 45 134 51 392 53 l192 1 0 -369z m-660 349 c0 -5 -4 -10 -9
-10 -17 0 -112 -81 -140 -120 -28 -38 -28 -39 -38 -17 -18 38 -66 89 -112 118
l-44 28 144 4 c79 1 156 4 172 5 15 1 27 -2 27 -8z m-2736 -28 c-41 -30 -101
-93 -129 -136 l-17 -25 -29 33 c-30 35 -124 103 -149 108 -8 2 -19 7 -25 11
-5 4 -19 14 -30 22 -18 13 6 14 199 15 l219 0 -39 -28z m-5881 -479 c26 -34
73 -80 107 -105 l62 -43 -74 -2 c-40 -2 -147 -10 -238 -18 -91 -8 -181 -15
-200 -14 -33 0 -31 2 27 23 112 42 207 117 248 196 9 18 18 30 20 28 2 -1 24
-31 48 -65z m3097 -34 c12 -16 42 -45 67 -64 l46 -35 -121 0 c-111 0 -300 -14
-347 -26 -11 -3 25 19 80 48 65 34 122 73 165 114 l65 62 12 -34 c7 -19 22
-48 33 -65z m5340 42 c0 -5 21 -32 46 -60 43 -48 85 -73 234 -140 19 -9 -31
-10 -210 -7 -129 3 -245 8 -258 12 -21 6 -19 8 21 34 55 35 122 104 138 141
11 27 29 40 29 20z m-2565 -136 l70 -35 -207 0 c-115 0 -208 2 -208 4 0 2 20
14 44 26 25 11 66 43 93 69 l48 48 45 -39 c24 -22 76 -54 115 -73z m-2405 -90
c250 -36 386 -92 524 -212 113 -98 127 -119 137 -190 7 -48 5 -62 -11 -89 -30
-47 -115 -123 -163 -144 -72 -32 -421 -95 -722 -131 -216 -26 -716 -38 -821
-19 -38 6 -161 16 -274 20 -468 20 -715 100 -790 256 -53 108 7 244 154 349
80 57 131 79 242 106 78 19 121 22 339 24 389 3 532 11 855 49 73 9 429 -4
530 -19z m-3130 -6 c41 -5 183 -13 315 -18 206 -7 250 -11 310 -31 156 -50
251 -113 291 -197 30 -60 28 -98 -7 -200 -35 -104 -72 -137 -222 -197 -163
-66 -310 -96 -512 -107 -99 -5 -232 -14 -295 -20 -127 -12 -598 -5 -835 12
-239 18 -437 53 -615 108 -168 53 -216 111 -208 249 6 93 36 160 99 216 69 63
137 88 264 98 60 5 169 18 240 29 72 11 254 27 405 35 151 8 311 18 355 23
110 11 325 12 415 0z m6664 1 c13 0 -1 -13 -42 -34 -80 -43 -166 -110 -204
-157 l-30 -37 -72 71 c-47 48 -96 85 -143 110 -40 21 -73 40 -73 41 0 2 28 2
63 -1 34 -2 143 0 242 5 99 5 193 8 209 6 16 -2 38 -4 50 -4z m-5411 -30 c-84
-38 -145 -82 -214 -151 l-57 -58 -12 29 c-18 42 -109 125 -174 157 -31 15 -56
31 -56 35 0 8 127 12 415 15 l160 2 -62 -29z m4562 20 c128 -15 208 -36 300
-80 91 -44 141 -82 195 -151 l37 -48 -19 -56 c-18 -53 -18 -61 -4 -102 l16
-45 -63 -63 c-35 -35 -89 -76 -122 -93 -88 -44 -290 -81 -581 -107 -319 -28
-1151 -14 -1342 22 -198 38 -351 163 -367 300 -3 21 -7 52 -10 68 -11 67 65
146 216 225 113 59 197 77 384 85 178 7 468 31 530 44 58 12 723 13 830 1z
m1374 -20 c107 -7 237 -7 419 0 145 5 269 7 275 3 7 -4 228 -11 492 -15 264
-4 498 -11 520 -15 l40 -8 3 -335 c1 -218 -1 -337 -8 -344 -6 -6 -121 -13
-288 -17 -158 -4 -296 -12 -322 -19 -30 -8 -84 -10 -160 -6 -63 4 -365 11
-670 16 -612 11 -630 13 -800 83 -145 59 -292 174 -275 215 26 63 29 123 10
175 -8 19 75 110 144 156 74 50 124 75 213 106 80 28 58 28 407 5z m-3404 -10
c105 -6 214 -14 243 -16 l54 -6 -76 -43 c-93 -53 -151 -98 -172 -135 l-17 -28
-104 92 c-57 50 -130 106 -161 124 l-57 34 50 -6 c28 -2 136 -10 240 -16z
m-5577 -60 l116 0 -43 -36 c-23 -20 -56 -61 -73 -91 l-30 -54 -58 55 c-31 30
-86 73 -121 96 l-64 42 79 -6 c43 -3 131 -6 194 -6z m-308 -47 c75 -37 111
-63 171 -123 80 -79 93 -105 79 -166 -20 -86 -120 -176 -268 -240 -123 -54
-112 -81 -112 271 0 283 1 305 17 305 10 0 61 -21 113 -47z m3121 -475 c54
-53 160 -107 263 -136 38 -10 65 -21 60 -24 -16 -10 -235 9 -247 21 -7 7 -74
11 -201 12 -105 0 -211 4 -236 8 -25 5 -38 9 -30 10 31 3 179 69 224 100 26
18 57 48 69 67 l22 34 14 -22 c8 -13 36 -44 62 -70z m2832 50 c33 -55 78 -98
149 -141 l57 -34 -117 -9 c-131 -10 -398 -9 -482 2 l-55 7 107 23 c135 29 177
51 253 129 33 34 61 63 62 64 0 0 12 -18 26 -41z m-5612 -55 c39 -37 80 -55
204 -93 85 -26 88 -28 55 -34 -112 -19 -343 -36 -504 -36 -173 0 -233 9 -168
25 89 21 272 134 323 199 l21 27 18 -28 c10 -15 33 -42 51 -60z m8191 22 c34
-30 104 -77 157 -104 60 -32 88 -50 73 -51 -12 0 -109 7 -215 15 -105 8 -217
16 -247 17 l-55 3 58 33 c32 18 81 56 110 86 29 29 54 54 55 54 2 1 31 -23 64
-53z m36 -205 c40 -6 173 -13 295 -15 355 -5 645 -21 717 -39 86 -20 196 -58
245 -84 48 -24 100 -77 114 -115 22 -57 14 -80 -70 -198 -167 -234 -220 -278
-359 -304 -47 -9 -119 -25 -160 -35 -208 -52 -873 -52 -1050 0 -82 24 -212 47
-315 55 -143 12 -418 96 -488 149 -80 60 -157 206 -157 297 0 101 83 201 194
234 76 23 232 54 327 64 105 12 609 5 707 -9z m-7428 -29 c109 -28 252 -97
312 -150 64 -57 88 -110 88 -197 0 -90 -31 -156 -108 -234 -79 -78 -159 -118
-278 -135 -52 -8 -127 -26 -166 -40 -132 -47 -149 -49 -463 -48 -286 0 -308 1
-475 30 l-175 29 -3 366 -2 365 227 1 c165 0 271 6 383 21 216 27 535 24 660
-8z m2025 12 c65 -13 123 -16 305 -13 519 9 747 -3 880 -45 123 -39 231 -98
285 -156 l46 -49 -7 -63 c-3 -34 -13 -77 -20 -96 -69 -169 -313 -299 -606
-322 -64 -5 -150 -16 -190 -25 -40 -9 -92 -20 -115 -25 -73 -14 -474 -32 -603
-26 -69 3 -191 17 -272 31 -206 36 -427 64 -601 76 -248 18 -439 86 -560 199
-94 87 -126 192 -87 279 29 64 117 145 202 186 l73 34 190 7 c105 3 213 10
240 14 28 5 210 9 405 10 297 1 368 -2 435 -16z m2645 3 c80 0 199 2 265 4 66
2 239 1 385 -2 301 -6 347 -14 495 -91 99 -51 215 -163 263 -253 47 -91 41
-134 -30 -200 -45 -43 -77 -58 -188 -88 -216 -57 -445 -88 -790 -105 -113 -6
-306 -16 -430 -22 -346 -18 -567 -1 -695 54 -101 43 -192 103 -260 171 -86 86
-98 118 -80 205 32 156 171 284 355 326 53 12 111 14 315 8 138 -4 315 -7 395
-7z m-4077 -19 c4 -1 -15 -20 -42 -41 -28 -21 -67 -60 -86 -86 l-36 -49 -57
57 c-32 31 -85 72 -120 90 -34 18 -62 35 -62 36 0 4 388 -4 403 -7z m5707 7
c0 -1 -18 -14 -39 -28 -22 -15 -52 -46 -68 -68 -25 -37 -29 -52 -33 -142 l-5
-101 -34 58 c-59 103 -145 184 -278 263 -31 19 -31 19 213 19 134 0 244 -1
244 -1z m2698 -10 l83 -6 -48 -30 c-26 -17 -76 -59 -110 -94 l-62 -63 -21 33
c-33 55 -90 100 -165 131 -39 16 -74 32 -78 36 -9 7 262 2 401 -7z m900 -348
c1 -198 -1 -363 -5 -367 -5 -3 -161 -3 -348 2 -372 10 -433 18 -542 71 -68 33
-138 101 -149 143 -3 14 -4 54 -2 88 7 117 84 231 215 321 103 70 159 86 305
87 68 1 164 4 213 9 50 4 140 7 200 6 l110 -1 3 -359z m-6190 318 c-23 -20
-63 -63 -87 -95 l-43 -59 -53 48 c-29 26 -83 64 -121 85 -38 20 -62 37 -54 38
34 3 279 16 338 17 l64 2 -44 -36z m2584 -549 c31 -28 77 -55 126 -74 l77 -30
-90 0 c-170 1 -492 25 -460 34 77 21 172 90 201 146 8 16 14 50 14 76 l1 48
41 -78 c25 -49 59 -94 90 -122z m2502 72 c17 -57 74 -132 120 -156 14 -8 26
-17 26 -20 0 -3 -78 -6 -174 -6 l-173 0 53 63 c30 34 71 87 91 117 21 30 39
54 40 55 1 0 9 -24 17 -53z m-8278 -25 c53 -52 91 -79 162 -114 l93 -45 -114
-5 c-62 -3 -179 -3 -259 0 l-146 5 47 37 c49 39 109 114 132 163 7 15 13 27
15 27 1 0 33 -31 70 -68z m3065 42 c22 -43 130 -135 217 -186 44 -27 85 -48
91 -48 6 0 11 -5 11 -11 0 -9 -75 -10 -292 -5 -161 4 -315 10 -342 13 l-48 6
53 22 c30 12 74 34 99 49 55 35 146 121 166 159 18 34 27 34 45 1z m2659 -249
c135 -8 307 -15 382 -15 87 0 161 -6 203 -15 37 -9 136 -27 221 -40 180 -28
239 -53 327 -141 66 -66 127 -176 127 -230 0 -75 -79 -182 -175 -239 -53 -31
-184 -65 -249 -65 -88 0 -227 -20 -336 -47 -102 -25 -116 -26 -472 -31 -273
-3 -380 -1 -420 9 -29 7 -134 13 -235 15 -208 3 -283 18 -412 82 -86 42 -176
124 -211 192 -19 36 -23 59 -22 114 2 83 24 134 88 205 173 192 490 248 1184
206z m-5091 -40 c236 -37 428 -61 591 -71 215 -14 415 -105 471 -217 18 -34
20 -55 17 -162 -3 -107 -6 -128 -24 -152 -49 -67 -126 -96 -294 -113 -57 -6
-152 -19 -210 -29 -58 -11 -179 -27 -270 -37 -156 -16 -172 -16 -295 0 -89 12
-249 20 -505 26 -215 5 -386 13 -402 19 -50 19 -192 41 -332 51 -115 8 -150
15 -195 36 -157 71 -217 219 -149 367 31 65 110 150 179 190 26 15 86 35 140
46 52 11 126 30 164 42 67 22 85 23 452 24 210 1 386 4 389 8 12 12 52 8 273
-28z m7806 24 c83 -5 267 -13 410 -18 232 -9 406 -21 503 -37 l32 -5 -2 -347
-3 -347 -165 -7 c-91 -3 -194 -11 -230 -18 -37 -6 -232 -13 -455 -17 -374 -5
-394 -4 -495 17 -75 16 -163 24 -312 30 -189 7 -210 10 -260 32 -67 32 -130
96 -168 172 -79 157 -5 302 205 406 85 41 154 62 272 79 40 6 100 20 133 32
39 13 102 23 182 28 170 11 183 11 353 0z m-3815 -40 c-60 -37 -111 -81 -149
-129 l-37 -47 -45 56 c-24 30 -63 70 -87 88 -40 30 -41 33 -20 38 13 3 70 6
128 8 58 1 137 4 175 5 l70 2 -35 -21z m-1800 1 c96 -5 387 -10 645 -11 580
-2 686 -8 749 -40 55 -27 141 -114 162 -164 10 -26 13 -53 8 -101 -13 -129
-104 -224 -314 -332 -138 -71 -215 -97 -335 -112 -89 -11 -233 -44 -268 -62
-34 -17 -290 -28 -448 -18 -227 13 -521 60 -793 126 -210 51 -270 76 -334 138
-145 138 -117 317 72 450 98 70 119 77 315 106 208 30 289 34 541 20z m-4355
-55 c335 -31 411 -65 451 -202 13 -46 14 -66 5 -110 -24 -119 -119 -241 -235
-300 -45 -23 -68 -27 -196 -34 -80 -4 -175 -8 -212 -8 l-68 -1 0 333 c0 184 3
337 7 341 4 4 23 5 43 2 19 -3 112 -13 205 -21z m8965 -2 c0 -1 -29 -22 -64
-47 -118 -84 -170 -169 -170 -282 0 -62 4 -81 36 -146 25 -49 56 -92 91 -126
61 -57 59 -62 -31 -62 -101 0 -447 23 -455 30 -5 4 6 17 25 28 49 31 123 111
149 162 14 27 25 68 27 105 4 55 0 69 -33 135 -23 46 -62 100 -101 140 l-62
65 294 0 c162 0 294 -1 294 -2z m-5537 -44 c-48 -42 -123 -133 -123 -150 0
-19 -16 -7 -34 25 -24 46 -59 77 -130 120 l-59 35 134 4 c74 1 162 4 197 5
l63 2 -48 -41z m-2811 6 c-16 -13 -46 -49 -67 -80 l-38 -55 -17 38 c-10 21
-32 55 -49 74 l-32 37 33 4 c18 2 70 5 116 5 l84 2 -30 -25z m5362 -446 c46
-71 124 -137 220 -184 l69 -33 -37 -8 c-49 -9 -610 11 -646 22 -9 3 19 23 70
50 101 52 207 130 244 179 15 19 30 35 34 34 4 0 24 -27 46 -60z m-5465 6 c13
-25 43 -63 67 -85 l42 -39 -41 -5 c-38 -5 -247 -15 -247 -12 0 1 26 29 58 63
32 33 65 75 72 92 7 17 15 31 19 31 3 0 17 -20 30 -45z m2985 -166 c44 -22 70
-38 56 -35 -14 3 -108 8 -210 12 -141 6 -180 10 -165 18 38 21 103 94 115 130
l11 36 56 -61 c41 -43 78 -71 137 -100z m-2549 -57 c61 -12 155 -24 210 -28
150 -9 248 -62 297 -158 64 -126 -18 -412 -139 -487 -50 -31 -264 -58 -548
-69 -163 -6 -247 -13 -290 -25 -50 -15 -113 -17 -395 -19 l-335 -1 0 380 0
380 170 6 c94 3 199 11 235 18 195 36 616 38 795 3z m7547 -8 c153 -11 285
-14 420 -10 141 4 227 1 305 -9 59 -8 178 -19 263 -25 150 -11 157 -13 239
-52 146 -70 260 -211 276 -341 6 -49 3 -65 -20 -115 -28 -62 -71 -111 -123
-144 -48 -29 -366 -46 -656 -34 -240 9 -427 -2 -545 -34 -67 -18 -106 -20
-362 -20 -231 0 -299 3 -346 16 -32 8 -110 18 -173 21 -136 6 -180 25 -259
108 -77 82 -96 125 -96 225 0 80 2 89 35 144 46 77 123 161 174 190 32 18 74
27 186 40 80 9 186 25 235 35 116 24 176 25 447 5z m-5062 -24 c503 -32 928
-89 1033 -137 121 -57 190 -147 190 -249 0 -98 -76 -199 -186 -249 -67 -30
-271 -62 -452 -70 -232 -10 -393 -24 -530 -47 -122 -19 -154 -20 -525 -14
-398 6 -477 11 -649 41 -52 9 -161 19 -242 23 -146 8 -148 8 -231 49 -133 66
-221 168 -235 273 -12 86 62 192 170 244 60 29 295 61 557 76 85 5 205 18 265
30 72 14 174 24 295 29 282 12 361 12 540 1z m7478 -364 c1 -204 -1 -373 -5
-377 -5 -4 -48 2 -98 12 -49 10 -144 22 -210 25 -229 13 -407 87 -493 208 -82
114 -50 245 88 351 126 97 216 123 478 140 108 7 206 12 217 11 20 -1 20 -9
23 -370z m-8978 344 c41 -4 68 -7 60 -8 -139 -15 -191 -26 -247 -54 -71 -35
-154 -116 -182 -178 l-18 -41 -6 59 c-6 75 -38 146 -85 195 l-36 37 219 -1
c121 -1 254 -5 295 -9z m4070 -16 c105 -4 244 -2 320 4 100 8 195 8 370 -2
223 -12 238 -14 292 -40 32 -15 82 -47 110 -70 29 -24 59 -41 66 -39 6 3 12
-3 12 -12 0 -9 18 -47 40 -84 58 -97 54 -169 -14 -260 -14 -19 -26 -44 -26
-55 0 -15 -3 -17 -11 -9 -9 9 -21 5 -48 -12 -39 -26 -230 -84 -356 -108 -44
-9 -161 -18 -260 -21 -99 -4 -216 -13 -260 -21 -111 -20 -321 -19 -623 5 -430
34 -581 64 -721 147 -80 48 -171 137 -171 168 0 42 36 141 69 189 34 49 127
124 177 143 16 6 83 21 149 32 66 11 149 30 185 41 69 21 181 22 700 4z m4205
-20 c-58 -39 -133 -113 -165 -162 l-28 -42 -47 64 c-26 36 -74 86 -106 111
-32 26 -59 47 -59 48 0 1 100 3 223 5 l222 3 -40 -27z m-2712 -26 c-80 -88
-129 -172 -143 -250 -21 -107 25 -233 120 -330 31 -32 54 -58 50 -59 -184 -20
-395 -36 -495 -37 l-130 -1 106 33 c102 31 169 66 169 87 0 6 4 8 8 5 10 -6
70 55 95 96 32 51 48 135 36 189 -13 62 -103 203 -124 195 -9 -3 -15 0 -15 9
0 7 -24 34 -52 59 l-53 46 234 0 234 0 -40 -42z m-2689 -63 c-17 -13 -48 -49
-69 -79 l-38 -56 -28 49 c-16 27 -45 63 -66 80 l-38 31 135 0 135 0 -31 -25z
m-3229 -349 c27 -53 103 -135 169 -182 l28 -20 -198 -13 c-110 -6 -216 -14
-236 -17 -24 -4 -38 -2 -38 5 0 6 5 11 11 11 23 0 95 62 127 109 40 58 78 159
89 233 l7 53 7 -62 c3 -37 17 -83 34 -117z m3270 -166 l50 -32 -40 6 c-22 3
-103 6 -180 6 l-140 0 52 46 c29 25 62 61 74 80 l22 36 56 -55 c31 -30 79 -70
106 -87z m5365 -9 l55 -31 -150 0 c-82 0 -161 -3 -175 -7 -22 -6 -21 -2 18 40
23 26 52 67 64 92 l22 45 56 -54 c30 -31 80 -69 110 -85z m-5218 -95 c157 -25
297 -64 386 -108 99 -49 214 -151 256 -229 27 -49 28 -56 18 -96 -7 -24 -12
-52 -12 -63 0 -34 -116 -147 -184 -179 -69 -34 -232 -72 -416 -98 -175 -24
-760 -23 -1000 2 -134 14 -198 16 -340 9 -301 -14 -395 -12 -480 15 -104 32
-164 66 -220 128 -78 85 -100 185 -59 269 27 56 139 161 214 201 87 46 214 80
330 87 249 16 382 28 535 47 91 12 212 25 270 29 162 13 589 4 702 -14z
m-3007 -6 c22 -5 132 -17 245 -25 139 -11 226 -23 269 -36 141 -44 246 -117
299 -208 21 -36 27 -60 30 -131 4 -83 3 -87 -24 -120 -56 -67 -203 -115 -569
-189 -182 -37 -299 -51 -425 -51 -93 0 -134 4 -430 36 -83 9 -304 19 -515 24
-326 7 -379 10 -447 28 -96 26 -148 52 -205 105 -61 57 -90 110 -99 183 -6 56
-4 67 22 114 35 65 134 157 209 194 59 30 68 32 396 60 134 12 208 13 380 4
174 -8 246 -7 384 5 199 17 423 21 480 7z m8583 -4 c53 -8 147 -20 207 -26 61
-7 116 -17 123 -22 9 -8 12 -88 12 -339 l0 -328 -37 -10 c-119 -32 -197 -43
-368 -51 -114 -5 -213 -15 -248 -24 -105 -29 -553 -20 -932 19 -82 8 -226 22
-320 30 -202 17 -338 49 -450 104 -93 47 -140 83 -181 142 -28 41 -38 91 -46
251 -1 38 45 101 100 138 84 55 155 70 387 80 116 6 288 14 383 20 95 5 279
11 410 11 130 1 311 5 402 9 293 12 457 11 558 -4z m-2853 -30 c37 -9 101 -16
165 -16 89 0 112 -4 155 -24 74 -35 129 -79 174 -139 36 -48 41 -60 41 -108 0
-30 4 -69 10 -88 8 -29 6 -41 -18 -84 -38 -71 -131 -159 -214 -202 -67 -36
-79 -38 -199 -46 -144 -10 -190 -18 -286 -55 -103 -38 -349 -51 -683 -35 -140
7 -284 16 -320 20 -36 5 -135 16 -220 25 -191 21 -252 36 -360 89 -65 32 -104
60 -168 122 -79 77 -82 82 -76 115 21 121 144 262 290 332 l88 42 191 12 c106
7 226 17 266 23 44 6 180 8 334 5 214 -4 295 -1 455 15 216 22 286 21 375 -3z
m-2070 -21 c94 -8 200 -15 238 -15 37 0 67 -3 67 -7 0 -5 -19 -19 -42 -32 -52
-30 -137 -108 -173 -161 -32 -46 -38 -48 -52 -17 -21 45 -128 150 -202 199
-88 57 -96 55 164 33z m-5468 -67 c-41 -40 -84 -92 -96 -116 l-22 -43 -52 57
c-44 49 -131 121 -193 161 -15 9 29 12 209 12 l228 1 -74 -72z m2938 59 l50
-2 -58 -34 c-69 -39 -167 -128 -198 -178 l-22 -36 -23 51 c-27 61 -90 131
-156 174 -26 17 -48 32 -48 32 0 2 405 -4 455 -7z m5225 -54 c-36 -37 -65 -67
-65 -67 0 0 -31 30 -69 67 l-69 67 135 0 134 0 -66 -67z m-8505 -38 c61 -43
159 -140 187 -185 28 -45 31 -95 7 -141 -31 -61 -114 -138 -184 -170 -110 -51
-100 -75 -103 246 -1 154 0 286 3 293 6 15 9 14 90 -43z m443 -532 l62 -30
-135 -12 c-74 -6 -187 -22 -252 -35 -65 -14 -138 -26 -163 -27 -39 -3 -45 -1
-45 16 0 15 12 24 50 36 103 33 198 97 254 173 l34 45 66 -68 c44 -46 87 -78
129 -98z m8111 69 c47 -45 200 -126 259 -138 18 -4 35 -11 39 -17 7 -11 -513
-2 -587 10 l-45 8 40 25 c52 31 160 135 187 178 l21 35 21 -29 c11 -16 40 -49
65 -72z m-5493 42 c25 -53 100 -129 169 -170 l60 -36 -45 6 c-60 8 -435 26
-585 29 l-120 2 60 13 c203 44 354 104 409 161 17 17 31 31 32 31 2 0 11 -16
20 -36z m2839 -35 c28 -28 83 -72 123 -99 64 -42 70 -48 50 -54 -30 -8 -268
-8 -389 0 l-96 7 61 30 c38 19 85 55 126 98 36 36 67 67 70 68 3 0 28 -22 55
-50z m-4969 -164 c314 -54 521 -162 622 -323 38 -61 51 -165 26 -213 -45 -88
-196 -203 -313 -239 -66 -21 -127 -27 -518 -51 -186 -12 -692 -7 -798 8 l-45
6 2 361 3 361 45 8 c25 4 90 17 145 27 136 27 245 39 475 54 267 18 257 18
356 1z m404 5 c74 -5 225 -19 335 -30 110 -11 215 -21 233 -22 32 -3 28 -7
-88 -82 -66 -44 -139 -100 -162 -124 l-40 -44 -15 24 c-31 46 -150 154 -206
187 -32 19 -95 49 -140 67 -45 18 -75 33 -67 34 8 0 76 -5 150 -10z m1855 -65
c159 -12 236 -13 475 -4 382 15 615 9 695 -20 120 -42 251 -155 306 -262 27
-53 26 -147 -2 -201 -27 -53 -103 -127 -160 -155 -73 -36 -207 -70 -344 -87
-71 -9 -166 -25 -210 -36 -185 -46 -733 -47 -905 -2 -119 32 -275 44 -454 37
-199 -9 -434 7 -536 35 -109 31 -210 83 -275 141 -85 79 -111 122 -119 202
l-7 68 58 58 c55 54 210 158 281 188 47 20 162 42 272 53 132 12 696 4 925
-15z m5081 9 c184 -19 348 -21 714 -10 235 7 311 6 432 -7 245 -27 395 -78
494 -169 70 -65 82 -91 85 -189 3 -83 1 -89 -32 -144 -39 -66 -113 -129 -167
-145 -20 -5 -59 -10 -87 -10 -58 0 -219 -22 -321 -44 -89 -19 -398 -43 -716
-56 l-247 -10 -98 26 c-84 22 -129 27 -318 34 -205 7 -227 10 -332 40 -62 18
-133 45 -158 61 -77 49 -143 162 -144 247 -2 90 50 157 198 257 96 64 96 65
210 81 62 9 145 24 185 34 91 23 122 23 302 4z m-2587 -1 c72 -5 91 -9 87 -20
-4 -9 1 -12 17 -8 115 25 473 35 575 15 28 -5 123 -16 210 -24 319 -31 619
-136 688 -241 22 -34 20 -124 -5 -180 -28 -62 -101 -129 -185 -169 -89 -43
-305 -104 -411 -117 -103 -12 -568 -37 -845 -45 -195 -6 -225 -4 -316 15 -56
11 -173 27 -261 35 -151 13 -163 16 -237 52 -97 48 -182 116 -218 174 -25 40
-28 55 -29 140 -1 81 2 102 22 145 58 122 182 190 404 221 100 13 363 17 504
7z m-845 -59 c-59 -45 -89 -79 -111 -126 -10 -21 -21 -38 -24 -38 -3 0 -25 24
-48 53 -41 50 -138 137 -153 137 -5 0 -8 3 -8 8 0 4 88 6 195 4 l195 -3 -46
-35z m6228 18 c5 -5 7 -168 6 -363 l-3 -354 -80 -3 c-147 -6 -426 17 -524 43
-156 42 -275 113 -347 208 -35 45 -39 59 -45 126 -6 64 -4 81 12 106 44 73
189 188 269 213 19 6 105 16 190 23 85 6 157 13 160 16 8 9 353 -6 362 -15z
m-929 -18 l75 -7 -47 -37 c-26 -21 -65 -58 -86 -82 l-39 -44 -65 66 c-36 37
-84 77 -106 88 l-40 21 116 1 c64 0 150 -3 192 -6z m-2667 -56 c-37 -28 -85
-76 -107 -106 -21 -31 -39 -50 -39 -44 0 38 -139 140 -234 173 -36 13 -22 14
170 19 115 3 224 7 243 8 33 2 33 1 -33 -50z m-89 -455 c19 -29 53 -67 75 -84
37 -30 135 -76 168 -80 8 -1 -12 -5 -45 -9 -128 -16 -610 -7 -599 12 3 4 12 8
21 8 9 0 49 16 89 35 86 42 181 125 215 190 l24 45 8 -32 c5 -18 24 -56 44
-85z m-5580 -89 c78 -52 181 -93 282 -114 100 -20 96 -22 -109 -45 -158 -19
-199 -17 -483 17 l-177 21 59 32 c112 60 202 138 246 212 l18 31 54 -58 c30
-32 79 -75 110 -96z m8408 -20 l29 -21 -89 13 c-50 7 -120 13 -157 13 -38 1
-68 3 -68 5 0 2 18 23 39 47 22 23 47 57 57 74 l16 31 72 -71 c39 -39 84 -80
101 -91z m-5357 10 c37 -26 72 -52 77 -57 10 -10 -214 -2 -333 11 l-63 7 55
40 c31 22 72 61 92 88 l36 47 34 -45 c19 -24 65 -65 102 -91z m5372 -93 c160
-28 462 -58 665 -66 94 -3 173 -10 178 -14 4 -4 6 -113 5 -242 l-3 -234 -1049
-3 c-878 -2 -1053 0 -1070 12 -34 22 -76 115 -76 167 0 88 79 197 190 261 73
43 212 77 390 98 91 11 194 26 230 34 94 22 386 15 540 -13z m-5565 -21 c33
-6 146 -10 251 -10 134 0 210 -4 255 -14 97 -23 182 -35 314 -45 102 -7 133
-14 207 -44 132 -53 335 -195 368 -258 13 -24 -14 -140 -37 -156 -13 -10 -276
-13 -1260 -13 l-1243 0 -17 27 c-24 36 -34 157 -17 200 44 112 268 226 494
253 52 6 140 20 195 32 157 33 383 46 490 28z m3316 -25 c57 -8 176 -19 263
-25 134 -10 167 -15 206 -35 92 -47 201 -158 222 -227 16 -52 -9 -111 -72
-173 l-51 -50 -1180 -3 -1180 -2 -30 29 c-28 28 -29 33 -23 88 9 87 62 190
130 252 86 79 156 107 325 132 134 19 172 20 544 14 220 -3 441 -2 490 3 140
14 242 13 356 -3z m-5143 -29 c278 -23 283 -24 346 -56 89 -45 169 -119 199
-183 18 -41 23 -67 22 -122 -1 -38 -7 -82 -13 -98 l-12 -27 -1319 0 -1320 0
-20 26 c-34 43 -45 101 -31 161 16 74 65 166 106 202 120 106 278 124 655 74
296 -39 470 -36 769 10 124 20 250 36 280 36 30 0 182 -10 338 -23z m6212 21
c0 -2 -22 -18 -48 -35 -159 -103 -225 -269 -159 -401 15 -29 27 -57 27 -62 0
-5 -49 -9 -110 -9 -60 0 -110 4 -110 8 0 5 10 17 21 28 32 28 69 113 69 158 0
61 -36 124 -120 208 l-76 76 111 6 c126 7 364 22 383 25 6 0 12 0 12 -2z
m-8272 -51 c-25 -19 -60 -59 -78 -88 -19 -29 -35 -55 -37 -57 -1 -2 -25 16
-51 42 -53 49 -97 74 -182 103 l-55 19 180 5 c99 3 200 7 224 8 l44 2 -45 -34z
m5499 3 c-59 -39 -117 -104 -153 -173 l-28 -53 -80 68 c-44 37 -117 89 -162
116 l-82 48 186 11 c103 6 227 11 276 12 l89 2 -46 -31z m-6177 0 c270 -31
446 -96 501 -186 30 -48 23 -140 -17 -214 l-29 -54 -320 0 -320 0 -3 225 c-1
123 0 230 2 237 4 9 19 11 48 8 24 -3 86 -10 138 -16z m3394 -9 l150 0 -50
-31 c-27 -17 -73 -54 -102 -82 l-52 -51 -17 24 c-21 31 -88 98 -128 129 l-30
22 40 -5 c22 -3 107 -6 189 -6z"/>
</g>
</svg>
