<?xml version="1.0" standalone="no"?>
<!DOCTYPE svg PUBLIC "-//W3C//DTD SVG 20010904//EN"
 "http://www.w3.org/TR/2001/REC-SVG-20010904/DTD/svg10.dtd">
<svg version="1.0" xmlns="http://www.w3.org/2000/svg"
 width="1125.000000pt" height="900.000000pt" viewBox="0 0 1125.000000 900.000000"
 preserveAspectRatio="xMidYMid meet">
<metadata>
Created by potrace 1.13, written by Peter Selinger 2001-2015
</metadata>
<g transform="translate(0.000000,900.000000) scale(0.100000,-0.100000)"
fill="#000000" stroke="none">
<path d="M0 4500 l0 -4500 5625 0 5625 0 0 4500 0 4500 -5625 0 -5625 0 0
-4500z m590 4452 c0 -4 -14 -27 -31 -50 l-31 -42 -104 0 -104 0 0 -30 0 -30
945 0 945 0 0 30 0 30 -801 2 -802 3 35 45 34 45 1887 3 c1376 1 1887 -1 1887
-9 0 -6 -14 -29 -31 -50 l-31 -39 -105 0 -104 0 3 -27 3 -28 943 -3 942 -2 0
30 0 30 -795 0 c-437 0 -795 4 -795 8 0 5 14 28 30 50 l30 42 1800 0 c990 0
1800 -4 1800 -8 0 -5 -14 -28 -30 -50 l-30 -42 -105 0 -105 0 0 -30 0 -30 950
0 950 0 0 30 0 30 -804 2 -805 3 35 48 34 47 1488 -2 1487 -3 3 -26 c3 -22 -2
-28 -25 -34 -41 -10 -63 -34 -63 -68 0 -37 35 -77 67 -77 l23 0 -2 -222 -3
-223 -477 -3 c-263 -1 -478 1 -478 4 0 4 28 45 62 93 33 47 61 92 62 99 1 8
-8 20 -20 28 -19 13 -25 8 -104 -106 l-84 -120 -103 0 -103 0 0 -30 0 -30 623
-2 622 -3 0 -610 0 -610 -257 -3 c-142 -1 -258 0 -258 3 0 2 31 48 69 102 l68
97 -24 20 c-15 11 -28 15 -31 9 -4 -5 -42 -60 -86 -121 l-79 -112 -103 0 -104
0 0 -30 0 -30 403 -2 402 -3 3 -577 2 -578 -496 0 c-393 0 -494 3 -488 13 5 6
36 51 70 99 61 83 62 87 44 103 -10 9 -24 15 -29 14 -6 -2 -46 -53 -89 -114
l-78 -110 -107 -3 -107 -3 0 -29 0 -30 638 -2 637 -3 3 -273 c2 -253 1 -273
-15 -279 -76 -27 -85 -117 -13 -141 l30 -11 0 -240 0 -241 -480 0 c-264 0
-480 2 -480 5 0 2 29 46 65 97 36 50 65 95 65 99 0 8 -33 29 -44 29 -3 0 -42
-52 -87 -115 l-83 -115 -103 0 -103 0 0 -30 0 -30 623 -2 622 -3 0 -270 0
-270 -30 -2 c-41 -3 -79 -47 -70 -82 8 -35 41 -61 76 -61 l29 0 -2 -262 -3
-263 -687 -3 c-379 -1 -688 0 -688 3 0 3 31 48 69 101 l70 97 -25 20 c-14 10
-26 18 -28 16 -1 -2 -40 -57 -86 -121 l-84 -118 -103 0 -103 0 0 -30 0 -30
835 0 835 0 -2 -917 -3 -918 -28 -3 c-24 -3 -28 -7 -25 -30 2 -18 10 -28 28
-32 l25 -6 3 -272 c2 -213 0 -274 -10 -277 -7 -3 -318 -4 -690 -3 l-677 3 69
95 69 95 -21 18 c-12 10 -25 16 -29 15 -4 -2 -43 -52 -86 -113 l-79 -110 -107
-3 -107 -3 0 -29 0 -30 833 -2 832 -3 0 -265 c0 -223 -2 -265 -14 -262 -42 9
-98 -47 -89 -89 2 -12 -26 -14 -164 -17 l-168 -2 0 34 c0 26 -7 40 -27 56 -47
37 -113 1 -113 -61 l0 -29 -177 2 c-147 3 -177 5 -175 17 6 26 -19 69 -47 81
-51 21 -101 -15 -101 -74 l0 -26 -170 0 -170 0 0 35 0 35 -800 0 c-440 0 -800
2 -800 5 0 3 29 46 65 95 36 49 65 94 65 99 0 6 -10 17 -22 25 -20 15 -24 11
-106 -104 l-85 -120 -104 0 -103 0 0 -35 0 -35 -190 0 -190 0 0 34 c0 44 -41
80 -80 71 -34 -8 -60 -41 -60 -76 l0 -29 -165 0 -165 0 0 29 c0 35 -26 68 -61
76 -35 9 -83 -32 -84 -71 l-2 -29 -176 -3 -177 -2 0 29 c0 62 -66 98 -113 61
-20 -16 -27 -30 -27 -56 l0 -34 -170 0 -170 0 0 35 0 35 -799 2 -800 3 71 99
71 99 -24 18 c-13 10 -27 15 -31 11 -4 -4 -42 -56 -85 -117 l-79 -110 -108 -3
-107 -3 3 -32 3 -32 -205 0 -205 0 -3 32 c-4 42 -46 77 -82 68 -34 -8 -60 -41
-60 -76 l0 -29 -165 0 -165 0 0 29 c0 35 -26 68 -61 76 -35 8 -79 -29 -83 -70
l-3 -30 -177 -3 -176 -2 0 33 c0 42 -29 70 -70 70 -41 0 -70 -28 -70 -70 l0
-33 -210 0 -210 0 0 35 0 35 -800 0 c-440 0 -800 3 -800 6 0 4 28 45 62 93 33
47 61 92 62 99 1 8 -8 20 -19 28 -20 13 -25 7 -105 -106 l-84 -120 -103 0
-103 0 0 -35 0 -36 -152 3 -153 3 0 315 0 315 58 3 c57 3 58 4 55 30 -3 25 -7
27 -58 32 l-55 5 0 275 0 275 863 3 862 2 0 30 0 30 -800 0 c-440 0 -800 3
-800 6 0 3 28 44 61 91 34 46 62 91 63 100 0 8 -8 21 -19 29 -19 12 -25 6
-104 -107 -67 -95 -89 -119 -105 -117 -21 3 -21 5 -21 593 l0 590 902 3 903 2
0 30 0 30 -800 0 c-440 0 -800 3 -800 6 0 4 28 45 62 93 33 47 61 92 62 99 1
8 -8 20 -19 28 -20 13 -26 7 -105 -106 l-85 -120 -60 2 -60 3 -3 293 -2 292
60 0 c60 0 60 0 60 30 0 28 -1 29 -57 32 l-58 3 0 605 0 605 263 3 262 2 0 30
0 30 -265 0 -265 0 2 593 3 592 253 3 252 2 0 30 0 30 -255 0 -255 0 2 578 3
577 487 3 488 2 0 30 0 30 -488 2 -487 3 0 610 0 610 263 3 262 2 0 30 0 30
-262 2 -263 3 -3 315 c-1 173 0 320 3 327 3 10 67 13 275 13 148 0 270 -4 270
-8z"/>
<path d="M2710 8887 c-52 -26 -49 -104 4 -128 81 -37 138 73 64 125 -27 19
-35 20 -68 3z"/>
<path d="M3220 8893 c-55 -20 -68 -87 -24 -122 15 -12 34 -21 44 -21 33 0 70
39 70 74 0 46 -49 84 -90 69z"/>
<path d="M3683 8888 c-12 -6 -27 -24 -34 -40 -34 -83 86 -136 130 -57 19 33 1
81 -35 98 -29 13 -32 13 -61 -1z"/>
<path d="M6460 8887 c-13 -7 -29 -25 -34 -39 -29 -83 94 -137 128 -56 17 39
11 63 -22 88 -29 23 -38 24 -72 7z"/>
<path d="M6970 8893 c-55 -20 -68 -87 -24 -122 15 -12 34 -21 44 -21 33 0 70
39 70 74 0 46 -49 84 -90 69z"/>
<path d="M7428 8885 c-78 -43 -14 -164 68 -126 54 24 53 105 -2 130 -31 14
-33 14 -66 -4z"/>
<path d="M10178 8880 c-35 -27 -42 -53 -24 -88 25 -49 73 -56 111 -17 29 28
32 65 8 93 -27 32 -64 37 -95 12z"/>
<path d="M10678 8884 c-51 -27 -46 -101 7 -126 58 -26 119 33 95 91 -6 16 -23
33 -36 40 -31 14 -33 14 -66 -5z"/>
<path d="M2750 8420 l-85 -120 -102 0 -103 0 0 -30 0 -30 945 0 945 0 0 30 0
30 -800 0 c-440 0 -800 3 -800 6 0 4 28 45 62 93 33 47 61 92 62 99 1 8 -8 20
-19 28 -20 13 -26 7 -105 -106z"/>
<path d="M6523 8488 c-22 -29 -61 -83 -87 -120 l-48 -68 -104 0 -104 0 0 -30
0 -30 945 0 945 0 0 30 0 30 -801 2 -800 3 70 99 c39 55 70 100 68 100 -1 1
-12 9 -24 19 -21 18 -22 18 -60 -35z"/>
<path d="M990 8317 c-52 -26 -49 -104 5 -129 58 -26 119 33 95 91 -6 16 -23
33 -36 40 -31 14 -33 14 -64 -2z"/>
<path d="M1475 8305 c-34 -33 -33 -77 1 -104 15 -12 34 -21 44 -21 34 0 70 39
70 75 0 24 -7 39 -26 54 -35 27 -59 26 -89 -4z"/>
<path d="M1963 8318 c-35 -17 -48 -60 -29 -96 35 -68 136 -41 136 36 0 47 -63
82 -107 60z"/>
<path d="M4686 8309 c-36 -28 -36 -80 0 -108 15 -12 34 -21 44 -21 34 0 70 39
70 75 0 36 -36 75 -70 75 -10 0 -29 -9 -44 -21z"/>
<path d="M5226 8309 c-19 -15 -26 -30 -26 -54 0 -36 36 -75 70 -75 34 0 70 39
70 75 0 36 -36 75 -70 75 -10 0 -29 -9 -44 -21z"/>
<path d="M5713 8318 c-68 -33 -40 -138 37 -138 28 0 70 44 70 73 0 51 -61 88
-107 65z"/>
<path d="M8456 8309 c-26 -20 -36 -69 -18 -95 10 -15 47 -34 67 -34 25 0 65
46 65 75 0 30 -41 75 -68 75 -11 0 -31 -9 -46 -21z"/>
<path d="M8962 8320 c-67 -28 -39 -140 36 -140 30 0 72 43 72 73 0 51 -59 87
-108 67z"/>
<path d="M9426 8309 c-19 -15 -26 -30 -26 -54 0 -36 36 -75 70 -75 34 0 70 39
70 75 0 36 -36 75 -70 75 -10 0 -29 -9 -44 -21z"/>
<path d="M1056 7755 l-80 -114 -105 -3 -106 -3 -3 -27 -3 -28 950 0 951 0 0
30 0 30 -805 0 -805 0 63 88 c85 117 82 111 61 127 -11 8 -23 14 -29 14 -5 0
-46 -51 -89 -114z"/>
<path d="M4841 7755 l-81 -115 -105 0 -105 0 0 -30 0 -30 940 0 940 0 0 30 0
30 -796 2 -795 3 65 92 c36 50 66 96 66 102 0 9 -31 31 -43 31 -3 0 -41 -52
-86 -115z"/>
<path d="M8556 7755 l-80 -114 -105 -3 -106 -3 -3 -27 -3 -28 950 0 951 0 0
30 0 30 -805 0 -805 0 63 88 c85 117 82 111 61 127 -11 8 -23 14 -29 14 -5 0
-46 -51 -89 -114z"/>
<path d="M283 7670 c-25 -10 -43 -39 -43 -70 0 -28 43 -70 73 -70 63 0 91 89
41 129 -29 23 -38 24 -71 11z"/>
<path d="M3067 7658 c-37 -33 -40 -75 -7 -108 27 -27 66 -25 95 5 29 28 32 65
8 93 -28 33 -66 37 -96 10z"/>
<path d="M3568 7665 c-54 -30 -42 -116 18 -131 83 -21 126 99 48 135 -31 14
-33 14 -66 -4z"/>
<path d="M4037 7660 c-37 -29 -37 -80 -1 -109 15 -12 34 -21 44 -21 33 0 70
39 70 74 0 60 -66 93 -113 56z"/>
<path d="M6833 7668 c-51 -24 -50 -106 1 -129 83 -38 147 84 66 126 -33 17
-37 17 -67 3z"/>
<path d="M7330 7667 c-13 -7 -29 -25 -34 -39 -29 -83 94 -137 128 -56 17 39
11 63 -22 88 -29 23 -38 24 -72 7z"/>
<path d="M7797 7658 c-38 -34 -40 -75 -5 -108 29 -27 64 -25 93 5 29 28 32 65
8 93 -28 33 -66 37 -96 10z"/>
<path d="M10583 7668 c-68 -33 -40 -138 37 -138 28 0 70 44 70 73 0 51 -61 88
-107 65z"/>
<path d="M11080 7667 c-52 -26 -49 -104 4 -128 36 -17 73 -3 92 32 19 38 6 80
-32 98 -31 14 -33 14 -64 -2z"/>
<path d="M3140 7130 l-85 -120 -102 0 -103 0 0 -30 0 -30 945 0 945 0 0 30 0
30 -800 0 c-440 0 -800 3 -800 6 0 4 28 45 62 93 33 47 61 92 62 99 1 8 -8 20
-19 28 -20 13 -26 7 -105 -106z"/>
<path d="M6941 7130 l-84 -120 -103 0 -104 0 0 -30 0 -30 945 0 945 0 0 30 0
30 -800 0 c-440 0 -800 3 -800 8 1 4 32 49 69 101 l69 95 -23 18 c-13 10 -25
18 -27 18 -1 0 -41 -54 -87 -120z"/>
<path d="M1412 7034 c-28 -20 -31 -83 -4 -107 25 -23 78 -21 102 3 61 61 -27
154 -98 104z"/>
<path d="M1901 7024 c-12 -15 -21 -34 -21 -44 0 -34 39 -70 75 -70 36 0 75 36
75 70 0 34 -39 70 -75 70 -24 0 -39 -7 -54 -26z"/>
<path d="M2380 7030 c-43 -43 -11 -120 50 -120 38 0 70 32 70 70 0 38 -32 70
-70 70 -17 0 -39 -9 -50 -20z"/>
<path d="M5192 7027 c-45 -48 -14 -117 51 -117 43 0 70 29 69 72 -2 63 -77 91
-120 45z"/>
<path d="M5690 7030 c-11 -11 -20 -33 -20 -50 0 -17 9 -39 20 -50 11 -11 33
-20 50 -20 17 0 39 9 50 20 11 11 20 33 20 50 0 17 -9 39 -20 50 -11 11 -33
20 -50 20 -17 0 -39 -9 -50 -20z"/>
<path d="M6161 7024 c-12 -15 -21 -34 -21 -44 0 -34 39 -70 75 -70 36 0 75 36
75 70 0 34 -39 70 -75 70 -24 0 -39 -7 -54 -26z"/>
<path d="M8931 7024 c-12 -15 -21 -34 -21 -44 0 -34 39 -70 75 -70 24 0 39 7
54 26 27 35 26 59 -4 89 -33 34 -77 33 -104 -1z"/>
<path d="M9430 7028 c-43 -47 -12 -118 53 -118 42 0 67 26 67 68 0 64 -77 96
-120 50z"/>
<path d="M9912 7033 c-32 -27 -37 -64 -12 -96 28 -35 80 -37 110 -5 58 63 -32
156 -98 101z"/>
<path d="M1049 6558 c-111 -159 -95 -148 -210 -148 l-99 0 0 -30 0 -30 945 0
945 0 0 30 0 30 -800 0 c-440 0 -800 3 -800 6 0 4 26 43 58 88 79 111 76 105
56 127 -9 10 -20 19 -24 19 -3 0 -35 -41 -71 -92z"/>
<path d="M4849 6543 c-41 -58 -80 -112 -87 -120 -9 -9 -44 -13 -113 -13 l-99
0 0 -30 0 -30 940 0 940 0 0 30 0 30 -795 0 c-437 0 -795 3 -795 8 0 4 31 50
69 102 l68 94 -23 18 c-12 10 -24 18 -26 18 -3 0 -38 -48 -79 -107z"/>
<path d="M8557 6533 l-83 -118 -108 -3 -107 -3 3 -27 3 -27 948 -3 947 -2 0
30 0 30 -800 0 c-531 0 -800 3 -800 10 0 6 29 51 65 100 36 50 63 95 60 100
-3 6 -15 14 -25 20 -17 9 -29 -4 -103 -107z"/>
<path d="M235 6425 c-14 -13 -25 -36 -25 -50 0 -28 40 -75 64 -75 29 0 64 22
75 48 16 33 -1 75 -35 91 -37 16 -52 14 -79 -14z"/>
<path d="M3065 6425 c-14 -13 -25 -36 -25 -50 0 -28 40 -75 64 -75 28 0 64 22
75 46 21 46 -21 104 -75 104 -8 0 -26 -11 -39 -25z"/>
<path d="M3566 6429 c-36 -28 -36 -80 0 -108 15 -12 34 -21 44 -21 34 0 70 39
70 75 0 36 -36 75 -70 75 -10 0 -29 -9 -44 -21z"/>
<path d="M4052 6440 c-67 -28 -39 -140 36 -140 30 0 72 43 72 73 0 51 -59 87
-108 67z"/>
<path d="M6815 6425 c-14 -13 -25 -36 -25 -50 0 -28 40 -75 64 -75 78 0 109
107 40 139 -37 16 -52 14 -79 -14z"/>
<path d="M7316 6429 c-19 -15 -26 -30 -26 -54 0 -36 36 -75 70 -75 34 0 70 39
70 75 0 36 -36 75 -70 75 -10 0 -29 -9 -44 -21z"/>
<path d="M7802 6440 c-22 -9 -42 -46 -42 -76 0 -23 47 -64 73 -64 40 0 71 32
71 74 0 20 -7 43 -14 50 -20 20 -60 27 -88 16z"/>
<path d="M10554 6438 c-69 -33 -37 -138 42 -138 24 0 64 47 64 75 0 30 -41 75
-67 74 -10 0 -28 -5 -39 -11z"/>
<path d="M11052 6440 c-79 -32 -32 -157 51 -133 64 18 71 104 11 132 -29 13
-31 13 -62 1z"/>
<path d="M2695 5905 l-80 -114 -105 -3 -105 -3 -3 -27 -3 -28 950 0 951 0 0
30 0 30 -805 0 -805 0 63 88 c85 117 82 111 61 127 -11 8 -23 14 -29 14 -5 0
-46 -51 -90 -114z"/>
<path d="M6445 5905 l-80 -114 -105 -3 -105 -3 -3 -27 -3 -28 950 0 951 0 0
30 0 30 -805 0 -805 0 63 88 c85 117 82 111 61 127 -11 8 -23 14 -29 14 -5 0
-46 -51 -90 -114z"/>
<path d="M947 5802 c-25 -28 -22 -87 5 -106 71 -50 159 43 98 104 -26 26 -81
26 -103 2z"/>
<path d="M1441 5794 c-12 -15 -21 -34 -21 -44 0 -34 39 -70 75 -70 36 0 75 36
75 70 0 34 -39 70 -75 70 -24 0 -39 -7 -54 -26z"/>
<path d="M1920 5800 c-43 -43 -11 -120 50 -120 38 0 70 32 70 70 0 38 -32 70
-70 70 -17 0 -39 -9 -50 -20z"/>
<path d="M4651 5794 c-12 -15 -21 -34 -21 -44 0 -34 39 -70 75 -70 36 0 75 36
75 70 0 34 -39 70 -75 70 -24 0 -39 -7 -54 -26z"/>
<path d="M5191 5794 c-12 -15 -21 -34 -21 -44 0 -34 39 -70 75 -70 36 0 75 36
75 70 0 34 -39 70 -75 70 -24 0 -39 -7 -54 -26z"/>
<path d="M5670 5800 c-11 -11 -20 -33 -20 -50 0 -17 9 -39 20 -50 11 -11 33
-20 50 -20 17 0 39 9 50 20 11 11 20 33 20 50 0 17 -9 39 -20 50 -11 11 -33
20 -50 20 -17 0 -39 -9 -50 -20z"/>
<path d="M8420 5800 c-61 -61 27 -154 98 -104 28 20 31 83 4 107 -25 23 -78
21 -102 -3z"/>
<path d="M8920 5800 c-11 -11 -20 -33 -20 -50 0 -17 9 -39 20 -50 11 -11 33
-20 50 -20 17 0 39 9 50 20 11 11 20 33 20 50 0 17 -9 39 -20 50 -11 11 -33
20 -50 20 -17 0 -39 -9 -50 -20z"/>
<path d="M9391 5794 c-12 -15 -21 -34 -21 -44 0 -34 39 -70 75 -70 36 0 75 36
75 70 0 34 -39 70 -75 70 -24 0 -39 -7 -54 -26z"/>
<path d="M665 5255 l-80 -115 -107 0 -108 0 0 -30 0 -30 950 0 950 0 0 30 0
30 -805 0 -804 0 71 100 c67 96 70 102 52 115 -11 8 -23 14 -29 14 -5 0 -46
-51 -90 -114z"/>
<path d="M4476 5255 l-80 -114 -105 -3 -106 -3 -3 -27 -3 -28 945 0 946 0 0
30 0 30 -800 0 -800 0 63 88 c85 117 82 111 61 127 -11 8 -23 14 -29 14 -5 0
-46 -51 -89 -114z"/>
<path d="M8262 5318 c-21 -29 -58 -81 -81 -115 l-44 -63 -103 0 -104 0 0 -30
0 -30 945 0 945 0 0 30 0 30 -800 0 c-440 0 -800 3 -800 6 0 3 26 43 58 87 79
110 77 106 56 122 -11 8 -22 15 -26 15 -4 0 -25 -24 -46 -52z"/>
<path d="M2701 5144 c-12 -15 -21 -34 -21 -44 0 -34 39 -70 75 -70 36 0 75 36
75 70 0 34 -39 70 -75 70 -24 0 -39 -7 -54 -26z"/>
<path d="M3202 5147 c-28 -30 -28 -68 1 -95 48 -45 120 -16 120 48 0 65 -76
95 -121 47z"/>
<path d="M3682 5154 c-28 -20 -31 -83 -4 -107 44 -40 122 -7 122 51 0 59 -67
92 -118 56z"/>
<path d="M6451 5144 c-12 -15 -21 -34 -21 -44 0 -34 39 -70 75 -70 36 0 75 36
75 70 0 34 -39 70 -75 70 -24 0 -39 -7 -54 -26z"/>
<path d="M6952 5147 c-44 -47 -13 -117 52 -117 41 0 69 29 69 72 0 61 -78 91
-121 45z"/>
<path d="M7432 5154 c-28 -20 -31 -83 -4 -107 44 -40 122 -7 122 51 0 59 -67
92 -118 56z"/>
<path d="M10180 5150 c-43 -43 -11 -120 50 -120 38 0 70 32 70 70 0 38 -32 70
-70 70 -17 0 -39 -9 -50 -20z"/>
<path d="M10679 5152 c-48 -40 -17 -122 47 -122 66 0 98 74 51 118 -28 27 -67
28 -98 4z"/>
<path d="M2695 4655 l-80 -114 -105 -3 -105 -3 -3 -27 -3 -28 950 0 951 0 0
30 0 30 -805 0 -805 0 63 88 c85 117 82 111 61 127 -11 8 -23 14 -29 14 -5 0
-46 -51 -90 -114z"/>
<path d="M6525 4655 l-80 -114 -107 -1 -108 0 0 -30 0 -30 950 0 950 0 0 30 0
30 -804 2 -803 3 70 98 c66 93 69 99 51 112 -11 8 -23 14 -29 15 -5 0 -46 -52
-90 -115z"/>
<path d="M920 4550 c-61 -61 27 -154 98 -104 28 20 31 83 4 107 -25 23 -78 21
-102 -3z"/>
<path d="M1420 4550 c-11 -11 -20 -33 -20 -50 0 -17 9 -39 20 -50 11 -11 33
-20 50 -20 17 0 39 9 50 20 11 11 20 33 20 50 0 17 -9 39 -20 50 -11 11 -33
20 -50 20 -17 0 -39 -9 -50 -20z"/>
<path d="M1891 4544 c-12 -15 -21 -34 -21 -44 0 -34 39 -70 75 -70 36 0 75 36
75 70 0 34 -39 70 -75 70 -24 0 -39 -7 -54 -26z"/>
<path d="M4627 4552 c-25 -28 -22 -87 5 -106 71 -50 159 43 98 104 -26 26 -81
26 -103 2z"/>
<path d="M5167 4552 c-23 -25 -21 -78 3 -102 43 -43 120 -11 120 50 0 17 -9
39 -20 50 -26 26 -81 26 -103 2z"/>
<path d="M5641 4544 c-12 -15 -21 -34 -21 -44 0 -33 39 -70 74 -70 60 0 93 66
56 113 -29 37 -80 37 -109 1z"/>
<path d="M8391 4544 c-12 -15 -21 -34 -21 -44 0 -34 39 -70 75 -70 36 0 75 36
75 70 0 34 -39 70 -75 70 -24 0 -39 -7 -54 -26z"/>
<path d="M8890 4548 c-26 -28 -26 -58 1 -92 39 -50 122 -22 122 42 0 66 -78
98 -123 50z"/>
<path d="M9367 4552 c-25 -28 -22 -87 5 -106 73 -51 160 42 98 104 -26 26 -81
26 -103 2z"/>
<path d="M640 4005 l-82 -115 -104 0 -104 0 0 -30 0 -30 945 0 945 0 0 30 0
30 -801 2 -801 3 66 93 c36 51 66 96 66 99 0 7 -32 32 -42 33 -3 0 -43 -52
-88 -115z"/>
<path d="M4450 4005 l-82 -115 -104 0 -104 0 0 -30 0 -30 940 0 940 0 0 30 0
30 -796 2 -795 3 65 92 c36 50 66 96 66 102 0 9 -31 31 -44 31 -2 0 -41 -52
-86 -115z"/>
<path d="M8165 4005 l-80 -115 -107 0 -108 0 0 -30 0 -30 950 0 950 0 0 30 0
30 -805 0 -804 0 71 100 c67 96 70 102 52 115 -11 8 -23 14 -29 14 -5 0 -46
-51 -90 -114z"/>
<path d="M2710 3933 c-53 -19 -68 -86 -28 -123 63 -59 157 32 101 98 -20 23
-50 33 -73 25z"/>
<path d="M3200 3927 c-14 -7 -31 -25 -38 -40 -27 -56 35 -115 93 -89 55 25 58
100 5 127 -35 18 -29 18 -60 2z"/>
<path d="M3673 3930 c-48 -19 -58 -87 -17 -119 53 -41 114 -13 114 52 0 51
-50 86 -97 67z"/>
<path d="M6460 3933 c-53 -19 -68 -86 -28 -123 63 -59 157 32 101 98 -20 23
-50 33 -73 25z"/>
<path d="M6950 3927 c-13 -7 -31 -24 -39 -38 -30 -53 36 -117 94 -91 55 25 58
100 5 127 -35 18 -29 18 -60 2z"/>
<path d="M7423 3930 c-48 -19 -58 -87 -17 -119 53 -41 114 -13 114 52 0 51
-50 86 -97 67z"/>
<path d="M10172 3925 c-59 -25 -51 -107 11 -130 62 -21 118 52 80 103 -26 34
-53 42 -91 27z"/>
<path d="M10673 3930 c-46 -19 -57 -83 -20 -118 48 -45 117 -14 117 51 0 51
-50 86 -97 67z"/>
<path d="M2308 3382 l-84 -117 -107 -3 -107 -3 0 -29 0 -30 950 0 950 0 0 30
0 30 -800 0 c-447 0 -800 4 -800 9 0 4 29 50 65 100 36 51 65 94 65 95 0 2
-11 11 -24 20 -24 15 -25 15 -108 -102z"/>
<path d="M6030 3380 l-84 -120 -103 0 -103 0 0 -30 0 -30 945 0 945 0 0 30 0
30 -800 0 c-440 0 -800 3 -800 6 0 4 28 45 62 93 33 47 61 92 62 99 1 8 -8 20
-20 28 -19 13 -25 8 -104 -106z"/>
<path d="M545 3285 c-28 -27 -30 -42 -14 -79 14 -29 55 -47 85 -35 26 9 54 47
54 72 0 26 -45 67 -75 67 -14 0 -37 -11 -50 -25z"/>
<path d="M1042 3287 c-45 -48 -17 -117 47 -117 46 0 71 24 71 68 0 65 -74 96
-118 49z"/>
<path d="M1519 3292 c-15 -13 -22 -30 -22 -51 0 -66 76 -98 123 -51 27 27 25
66 -5 95 -29 30 -64 32 -96 7z"/>
<path d="M4252 3287 c-45 -48 -17 -117 47 -117 46 0 71 24 71 68 0 65 -74 96
-118 49z"/>
<path d="M4750 3290 c-26 -26 -26 -81 -2 -103 44 -40 122 -7 122 51 0 60 -78
94 -120 52z"/>
<path d="M5273 3295 c-66 -47 -8 -150 70 -123 51 18 62 74 22 113 -27 28 -61
32 -92 10z"/>
<path d="M8020 3290 c-26 -26 -26 -81 -2 -103 28 -25 87 -22 106 5 50 71 -43
159 -104 98z"/>
<path d="M8515 3285 c-29 -28 -31 -51 -9 -83 43 -62 134 -32 134 44 0 24 -47
64 -75 64 -14 0 -37 -11 -50 -25z"/>
<path d="M8992 3287 c-45 -48 -17 -117 47 -117 46 0 71 24 71 68 0 65 -74 96
-118 49z"/>
<path d="M4108 2833 c-8 -10 -47 -64 -87 -120 l-72 -103 -104 0 -105 0 0 -30
0 -30 945 0 945 0 0 30 0 30 -801 2 -800 3 70 99 c39 55 70 100 68 100 -1 1
-11 9 -23 19 -20 16 -21 16 -36 0z"/>
<path d="M7750 2730 l-84 -120 -103 0 -103 0 0 -30 0 -30 945 0 945 0 0 30 0
30 -800 0 c-440 0 -800 3 -800 6 0 4 28 45 62 93 33 47 61 92 62 99 1 8 -8 20
-20 28 -19 13 -25 8 -104 -106z"/>
<path d="M2256 2639 c-52 -41 -23 -122 44 -122 67 0 96 81 44 122 -15 12 -34
21 -44 21 -10 0 -29 -9 -44 -21z"/>
<path d="M2757 2648 c-41 -32 -38 -94 6 -123 46 -30 107 6 107 63 0 51 -73 90
-113 60z"/>
<path d="M3225 2635 c-46 -46 -19 -118 44 -118 66 0 98 76 51 123 -27 27 -66
25 -95 -5z"/>
<path d="M6002 2637 c-45 -48 -16 -120 48 -120 67 0 96 81 44 122 -35 27 -65
27 -92 -2z"/>
<path d="M6512 2653 c-7 -3 -19 -18 -27 -33 -40 -77 71 -147 120 -77 42 60
-24 138 -93 110z"/>
<path d="M6976 2639 c-50 -39 -22 -122 42 -122 43 0 72 28 72 70 0 65 -61 93
-114 52z"/>
<path d="M9725 2635 c-39 -39 -32 -86 17 -111 59 -30 122 27 99 89 -19 51 -77
62 -116 22z"/>
<path d="M10226 2639 c-50 -39 -22 -122 42 -122 66 0 98 78 50 123 -28 26 -58
26 -92 -1z"/>
<path d="M10703 2645 c-43 -30 -38 -88 12 -121 21 -14 30 -14 55 -4 55 23 66
75 25 115 -27 28 -61 32 -92 10z"/>
<path d="M1912 2198 c-21 -29 -60 -83 -86 -120 l-48 -68 -104 0 -104 0 0 -30
0 -30 945 0 945 0 0 30 0 30 -800 2 -801 3 63 90 c35 50 67 95 71 101 4 7 -4
19 -18 28 -24 16 -25 15 -63 -36z"/>
<path d="M5667 2132 l-83 -117 -107 -3 -107 -3 0 -29 0 -30 950 0 950 0 0 30
0 30 -805 2 -805 3 70 98 c38 53 70 99 70 101 0 2 -11 11 -25 20 l-24 16 -84
-118z"/>
<path d="M9390 2130 l-84 -120 -103 0 -103 0 0 -30 0 -30 945 0 945 0 0 30 0
30 -800 0 c-440 0 -800 3 -800 6 0 4 28 45 62 93 33 47 61 92 62 99 1 8 -8 20
-20 28 -19 13 -25 8 -104 -106z"/>
<path d="M105 2025 c-14 -13 -25 -36 -25 -50 0 -30 41 -75 68 -75 35 0 72 38
72 75 0 24 -7 39 -26 54 -35 27 -59 26 -89 -4z"/>
<path d="M606 2029 c-36 -28 -36 -80 0 -108 15 -12 34 -21 44 -21 10 0 29 9
44 21 34 27 35 71 1 104 -30 30 -54 31 -89 4z"/>
<path d="M1092 2040 c-77 -31 -34 -153 48 -135 65 14 74 106 14 134 -29 13
-31 13 -62 1z"/>
<path d="M3816 2029 c-26 -20 -36 -69 -18 -95 10 -15 47 -34 67 -34 25 0 65
46 65 75 0 30 -41 75 -68 75 -11 0 -31 -9 -46 -21z"/>
<path d="M4322 2040 c-67 -28 -39 -140 36 -140 30 0 72 43 72 73 0 51 -59 87
-108 67z"/>
<path d="M4786 2029 c-36 -28 -36 -80 0 -108 15 -12 34 -21 44 -21 34 0 70 39
70 75 0 36 -36 75 -70 75 -10 0 -29 -9 -44 -21z"/>
<path d="M7593 2038 c-68 -33 -40 -138 37 -138 28 0 70 44 70 73 0 51 -61 88
-107 65z"/>
<path d="M8075 2025 c-14 -13 -25 -36 -25 -50 0 -28 40 -75 64 -75 78 0 109
107 40 139 -37 16 -52 14 -79 -14z"/>
<path d="M8556 2029 c-26 -20 -36 -69 -18 -95 10 -15 47 -34 67 -34 25 0 65
46 65 75 0 30 -41 75 -68 75 -11 0 -31 -9 -46 -21z"/>
<path d="M3958 1482 l-84 -117 -107 -3 -107 -3 0 -29 0 -30 945 0 945 0 0 30
0 30 -799 2 -800 3 70 98 c38 54 69 100 69 101 0 2 -11 11 -24 20 -24 15 -25
15 -108 -102z"/>
<path d="M7699 1480 l-84 -119 -108 -1 -108 0 3 -27 3 -28 948 -3 947 -2 0 30
0 30 -801 0 c-677 0 -800 2 -796 14 3 7 33 52 66 99 34 47 61 88 61 90 0 3
-11 12 -24 20 -23 16 -24 15 -107 -103z"/>
<path d="M2203 1388 c-12 -6 -27 -24 -34 -40 -34 -83 86 -136 130 -57 19 33 1
81 -35 98 -29 13 -32 13 -61 -1z"/>
<path d="M2703 1390 c-25 -10 -43 -39 -43 -70 0 -29 44 -70 75 -70 62 0 89 89
39 129 -29 23 -38 24 -71 11z"/>
<path d="M3167 1378 c-37 -33 -40 -75 -7 -108 27 -27 66 -25 95 5 29 28 32 65
8 93 -28 33 -66 37 -96 10z"/>
<path d="M5948 1385 c-54 -30 -42 -116 18 -131 83 -21 126 99 48 135 -31 14
-33 14 -66 -4z"/>
<path d="M6453 1390 c-25 -10 -43 -39 -43 -70 0 -28 43 -70 73 -70 63 0 91 89
41 129 -29 23 -38 24 -71 11z"/>
<path d="M6922 1384 c-63 -44 -37 -134 39 -134 28 0 69 44 69 73 0 55 -65 92
-108 61z"/>
<path d="M9667 1380 c-37 -29 -37 -80 -1 -109 15 -12 34 -21 44 -21 31 0 70
39 70 70 0 62 -66 97 -113 60z"/>
<path d="M10173 1388 c-68 -33 -40 -138 37 -138 28 0 70 44 70 73 0 51 -61 88
-107 65z"/>
<path d="M10653 1390 c-48 -20 -58 -87 -17 -119 34 -27 64 -27 92 -1 32 30 30
82 -4 109 -29 23 -38 24 -71 11z"/>
<path d="M2306 855 l-79 -114 -106 -3 -106 -3 -3 -27 -3 -28 951 0 951 0 -3
28 -3 27 -797 3 c-439 1 -798 5 -798 8 0 3 29 46 65 97 60 85 63 92 48 109 -9
10 -21 18 -27 18 -6 -1 -47 -52 -90 -115z"/>
<path d="M6084 858 l-80 -113 -107 -3 -107 -3 0 -29 0 -30 945 0 945 0 0 30 0
30 -799 2 -800 3 69 95 c68 94 69 95 48 113 -11 9 -23 17 -27 17 -4 0 -43 -51
-87 -112z"/>
<path d="M559 752 c-28 -23 -30 -73 -4 -102 24 -26 79 -26 105 0 63 63 -31
158 -101 102z"/>
<path d="M1051 744 c-12 -15 -21 -34 -21 -44 0 -10 9 -29 21 -44 28 -36 80
-36 108 0 27 35 26 59 -4 89 -33 34 -77 33 -104 -1z"/>
<path d="M1530 750 c-24 -24 -26 -67 -4 -98 20 -29 76 -30 104 -2 43 43 11
120 -50 120 -17 0 -39 -9 -50 -20z"/>
<path d="M4261 744 c-27 -34 -27 -64 -1 -92 47 -50 140 -6 125 58 -14 60 -88
80 -124 34z"/>
<path d="M4760 750 c-45 -45 -11 -120 53 -120 42 0 67 26 67 68 0 41 -31 72
-70 72 -17 0 -39 -9 -50 -20z"/>
<path d="M5280 750 c-26 -26 -26 -81 -2 -103 25 -23 78 -21 102 3 43 43 11
120 -50 120 -17 0 -39 -9 -50 -20z"/>
<path d="M8032 747 c-45 -48 -14 -117 51 -117 42 0 67 26 67 68 0 65 -74 96
-118 49z"/>
<path d="M8530 750 c-26 -26 -26 -81 -2 -103 44 -40 122 -7 122 51 0 60 -78
94 -120 52z"/>
<path d="M9001 744 c-27 -34 -27 -64 -1 -92 47 -50 140 -6 125 58 -14 60 -88
80 -124 34z"/>
</g>
</svg>
