<?xml version="1.0" standalone="no"?>
<!DOCTYPE svg PUBLIC "-//W3C//DTD SVG 20010904//EN"
 "http://www.w3.org/TR/2001/REC-SVG-20010904/DTD/svg10.dtd">
<svg version="1.0" xmlns="http://www.w3.org/2000/svg"
 width="1125.000000pt" height="900.000000pt" viewBox="0 0 1125.000000 900.000000"
 preserveAspectRatio="xMidYMid meet">
<metadata>
Created by potrace 1.13, written by Peter Selinger 2001-2015
</metadata>
<g transform="translate(0.000000,900.000000) scale(0.100000,-0.100000)"
fill="#000000" stroke="none">
<path d="M0 4500 l0 -4500 5625 0 5625 0 0 4500 0 4500 -5625 0 -5625 0 0
-4500z m11205 4345 l0 -110 -5580 0 -5580 0 -3 99 c-1 55 0 106 2 113 5 11
966 13 5583 11 l5578 -3 0 -110z m0 -310 l0 -130 -5580 0 -5580 0 -3 119 c-1
66 0 126 2 133 4 11 994 13 5583 11 l5578 -3 0 -130z m0 -330 l0 -130 -5580 0
-5580 0 -3 119 c-1 66 0 126 2 133 4 11 994 13 5583 11 l5578 -3 0 -130z m0
-330 l0 -130 -5580 0 -5580 0 -3 119 c-1 66 0 126 2 133 4 11 994 13 5583 11
l5578 -3 0 -130z m3 -332 l3 -133 -5586 0 -5585 0 0 128 c0 71 3 132 7 135 3
4 2515 6 5582 5 l5576 -3 3 -132z m2 -333 l0 -130 -5585 0 -5585 0 0 130 0
130 5585 0 5585 0 0 -130z m-2 -332 l-3 -133 -5580 0 -5580 0 -3 133 -3 132
5586 0 5586 0 -3 -132z m-3 -338 l0 -135 -5580 0 -5580 0 -3 124 c-1 69 0 131
2 138 4 11 1000 13 5583 11 l5578 -3 0 -135z m0 -335 l0 -130 -5580 0 -5580 0
-3 119 c-1 66 0 126 2 133 4 11 994 13 5583 11 l5578 -3 0 -130z m0 -330 l0
-130 -5580 0 -5580 0 -3 119 c-1 66 0 126 2 133 4 11 994 13 5583 11 l5578 -3
0 -130z m0 -330 l0 -130 -5580 0 -5580 0 -3 119 c-1 66 0 126 2 133 4 11 994
13 5583 11 l5578 -3 0 -130z m3 -332 l3 -133 -5586 0 -5585 0 0 128 c0 71 3
132 7 135 3 4 2515 6 5582 5 l5576 -3 3 -132z m0 -330 l3 -133 -5586 0 -5585
0 0 128 c0 71 3 132 7 135 3 4 2515 6 5582 5 l5576 -3 3 -132z m0 -335 l-3
-133 -5580 0 -5580 0 -3 133 -3 132 5586 0 5586 0 -3 -132z m-3 -333 l0 -130
-5580 0 -5580 0 -3 119 c-1 66 0 126 2 133 4 11 994 13 5583 11 l5578 -3 0
-130z m0 -330 l0 -130 -5580 0 -5580 0 -3 119 c-1 66 0 126 2 133 4 11 994 13
5583 11 l5578 -3 0 -130z m0 -330 l0 -130 -5580 0 -5580 0 -3 119 c-1 66 0
126 2 133 4 11 994 13 5583 11 l5578 -3 0 -130z m0 -330 l0 -130 -5580 0
-5580 0 -3 119 c-1 66 0 126 2 133 4 11 994 13 5583 11 l5578 -3 0 -130z m3
-332 l3 -133 -5586 0 -5585 0 0 128 c0 71 3 132 7 135 3 4 2515 6 5582 5
l5576 -3 3 -132z m0 -330 l3 -133 -5586 0 -5585 0 0 128 c0 71 3 132 7 135 3
4 2515 6 5582 5 l5576 -3 3 -132z m2 -333 l0 -130 -5585 0 -5585 0 0 130 0
130 5585 0 5585 0 0 -130z m-2 -332 l-3 -133 -5580 0 -5580 0 -3 133 -3 132
5586 0 5586 0 -3 -132z m0 -330 l-3 -133 -5580 0 -5580 0 -3 133 -3 132 5586
0 5586 0 -3 -132z m0 -330 l-3 -133 -5580 0 -5580 0 -3 133 -3 132 5586 0
5586 0 -3 -132z m0 -335 l3 -133 -5586 0 -5585 0 0 128 c0 71 3 132 7 135 3 4
2515 6 5582 5 l5576 -3 3 -132z m0 -330 l3 -133 -5586 0 -5585 0 0 128 c0 71
3 132 7 135 3 4 2515 6 5582 5 l5576 -3 3 -132z m0 -330 l3 -133 -5586 0
-5585 0 0 128 c0 71 3 132 7 135 3 4 2515 6 5582 5 l5576 -3 3 -132z"/>
</g>
</svg>
