<?xml version="1.0" standalone="no"?>
<!DOCTYPE svg PUBLIC "-//W3C//DTD SVG 20010904//EN"
 "http://www.w3.org/TR/2001/REC-SVG-20010904/DTD/svg10.dtd">
<svg version="1.0" xmlns="http://www.w3.org/2000/svg"
 width="1125.000000pt" height="900.000000pt" viewBox="0 0 1125.000000 900.000000"
 preserveAspectRatio="xMidYMid meet">
<metadata>
Created by potrace 1.13, written by Peter Selinger 2001-2015
</metadata>
<g transform="translate(0.000000,900.000000) scale(0.100000,-0.100000)"
fill="#000000" stroke="none">
<path d="M0 4500 l0 -4500 5625 0 5625 0 0 4500 0 4500 -5625 0 -5625 0 0
-4500z m2508 4448 c-4 -10 -76 -14 -306 -16 l-302 -2 0 -30 0 -30 320 0 319 0
16 29 c31 61 32 61 216 61 155 0 171 -2 189 -20 11 -11 22 -31 26 -45 l6 -25
319 0 319 0 0 30 0 30 -297 2 c-226 2 -297 6 -301 16 -5 16 5783 18 5793 2 8
-14 642 -14 650 0 8 14 432 14 440 0 8 -14 627 -14 641 0 7 7 124 9 330 8
l319 -3 2 -1010 2 -1010 -54 -57 -54 -58 -296 0 -295 0 0 -30 0 -30 319 0 320
0 22 40 c13 22 26 40 31 40 4 0 8 -83 8 -185 0 -102 -4 -185 -8 -185 -5 0 -18
18 -31 40 l-22 40 -320 0 -319 0 0 -30 0 -30 295 0 296 0 54 -57 54 -58 1
-2377 0 -2378 -160 0 -160 0 0 -30 0 -29 158 -3 157 -3 0 -105 0 -105 -157 -3
-158 -3 0 -29 0 -29 158 -3 157 -3 0 -615 0 -615 -1012 -3 -1013 -2 0 35 0 35
-315 0 -315 0 -11 -27 c-6 -15 -16 -31 -22 -35 -7 -4 -97 -8 -200 -8 l-188 0
-20 35 -21 35 -317 -2 -316 -3 -3 -32 -3 -33 -1850 0 c-1637 0 -1849 2 -1849
15 0 13 39 15 295 15 l295 0 0 30 0 30 -315 0 -315 0 -11 -27 c-23 -62 -27
-63 -208 -63 -183 0 -198 4 -221 60 l-12 30 -319 0 -319 0 0 -30 0 -30 297 -2
c227 -2 297 -6 301 -16 3 -10 -315 -12 -1585 -10 l-1588 3 0 615 0 615 87 3
c79 2 87 1 93 -17 9 -29 71 -80 129 -107 58 -27 177 -33 237 -12 52 17 115 64
139 103 l21 35 292 2 292 3 3 33 3 32 -315 0 -315 0 -19 -44 c-33 -74 -109
-116 -211 -116 -92 0 -194 61 -216 130 -6 17 -17 20 -113 22 l-107 3 0 105 0
105 107 3 c96 2 107 5 113 22 21 67 108 121 206 128 108 7 195 -42 229 -132
l10 -26 315 0 315 0 0 30 0 30 -292 1 -293 0 -30 46 c-45 68 -117 105 -214
111 -42 2 -95 -1 -118 -7 -55 -15 -133 -68 -158 -108 -20 -32 -20 -32 -108
-33 l-87 0 2 2357 3 2357 52 -3 c104 -5 219 49 258 124 l20 35 292 0 293 0 0
30 0 30 -313 0 -313 0 -22 -45 c-13 -26 -37 -55 -60 -70 -49 -32 -146 -51
-185 -36 l-27 11 2 247 3 247 33 10 c45 13 130 -8 179 -43 21 -15 47 -47 57
-69 l19 -42 314 0 313 0 0 30 0 30 -293 0 -292 0 -20 35 c-39 75 -154 129
-258 124 l-52 -3 -3 979 c-1 539 0 986 3 993 7 18 2469 18 2463 0z"/>
<path d="M8830 8700 l0 -30 293 0 292 0 44 -51 c54 -63 128 -99 215 -106 113
-9 229 43 271 122 l20 35 292 0 293 0 0 30 0 30 -313 0 -313 0 -22 -45 c-44
-91 -162 -134 -276 -101 -63 19 -126 69 -146 116 l-12 30 -319 0 -319 0 0 -30z"/>
<path d="M1900 8630 l0 -30 299 0 298 0 24 -35 c31 -46 100 -92 168 -112 128
-37 284 19 337 120 l15 27 294 0 295 0 0 30 0 30 -319 0 -319 0 -6 -24 c-9
-36 -53 -84 -100 -108 -30 -16 -59 -22 -111 -22 -95 0 -164 35 -207 105 l-31
49 -318 0 -319 0 0 -30z"/>
<path d="M5919 6401 c-57 -22 -107 -60 -134 -101 l-20 -30 -297 0 -298 0 0
-30 0 -30 318 1 317 0 30 47 c92 142 336 134 408 -14 l21 -44 313 0 313 0 0
30 0 30 -290 0 -290 0 -24 39 c-31 48 -79 86 -135 106 -59 21 -174 19 -232 -4z"/>
<path d="M6246 5961 c-37 -85 -120 -127 -233 -118 -80 6 -145 43 -182 103
l-26 43 -317 1 -318 0 0 -30 0 -30 298 0 297 -1 31 -42 c47 -64 120 -100 216
-105 128 -7 216 31 274 118 l27 40 288 0 289 0 0 30 0 30 -313 0 -313 0 -18
-39z"/>
<path d="M9683 4900 c-76 -16 -152 -64 -184 -117 l-21 -33 -299 0 -299 0 0
-30 0 -30 320 0 319 0 17 36 c49 103 214 147 333 88 42 -21 58 -37 83 -80 l30
-54 312 2 311 3 0 30 0 30 -297 3 c-192 1 -298 6 -298 12 0 23 -83 99 -129
119 -58 24 -140 33 -198 21z"/>
<path d="M8880 4445 l0 -35 296 0 296 0 41 -45 c22 -25 63 -58 91 -73 45 -24
62 -27 146 -27 87 0 100 3 150 30 34 18 68 48 90 78 l35 47 292 0 293 0 0 30
0 30 -319 0 -319 0 -12 -35 c-16 -48 -81 -101 -142 -115 -119 -29 -225 16
-291 123 l-17 27 -315 0 -315 0 0 -35z"/>
<path d="M2484 3692 c-58 -20 -123 -68 -143 -106 l-14 -26 -301 -2 -301 -3 0
-30 0 -30 317 -3 317 -2 21 39 c34 68 128 121 215 121 89 0 180 -55 210 -127
l14 -33 315 0 316 0 0 30 0 30 -293 0 -294 0 -14 26 c-23 44 -99 103 -152 119
-67 20 -150 18 -213 -3z"/>
<path d="M2805 3253 c-35 -83 -101 -122 -208 -123 -39 0 -83 7 -105 16 -43 17
-97 67 -118 107 l-15 27 -319 0 -320 0 0 -30 0 -30 298 0 299 0 33 -41 c123
-154 384 -153 486 0 l27 41 294 0 294 0 -3 33 -3 32 -312 3 -313 2 -15 -37z"/>
<path d="M6697 2271 c-61 -24 -111 -63 -134 -101 l-17 -30 -303 0 -303 0 0
-30 0 -30 324 0 c316 0 325 1 331 20 21 67 107 121 206 128 108 7 195 -42 229
-132 l10 -26 315 0 315 0 0 30 0 30 -292 1 -293 0 -30 46 c-20 31 -48 57 -84
77 -47 26 -67 30 -140 33 -67 3 -97 -1 -134 -16z"/>
<path d="M7022 1826 c-33 -74 -109 -116 -211 -116 -93 0 -194 61 -216 130 -6
19 -15 20 -331 20 l-324 0 0 -30 0 -30 303 0 302 -1 20 -32 c11 -18 42 -47 69
-64 143 -96 342 -65 430 67 l26 40 290 0 290 0 0 30 0 30 -315 0 -314 0 -19
-44z"/>
<path d="M3398 546 c-60 -16 -118 -55 -159 -106 l-32 -40 -294 0 -293 0 0 -30
0 -30 319 0 319 0 11 29 c7 15 27 42 44 59 111 107 316 84 377 -42 l22 -46
314 0 314 0 0 30 0 30 -292 0 -293 1 -23 37 c-64 101 -199 144 -334 108z"/>
<path d="M8261 529 c-70 -14 -129 -47 -174 -100 l-42 -49 -297 0 -298 0 0 -30
0 -30 324 0 324 0 6 24 c9 35 89 101 141 116 24 7 74 11 109 8 83 -5 140 -41
175 -111 l23 -47 314 0 314 0 0 35 0 35 -294 0 -293 0 -27 40 c-34 52 -92 89
-163 106 -65 15 -79 16 -142 3z"/>
</g>
</svg>
