<?xml version="1.0" standalone="no"?>
<!DOCTYPE svg PUBLIC "-//W3C//DTD SVG 20010904//EN"
 "http://www.w3.org/TR/2001/REC-SVG-20010904/DTD/svg10.dtd">
<svg version="1.0" xmlns="http://www.w3.org/2000/svg"
 width="1811.000000pt" height="1217.000000pt" viewBox="0 0 1811.000000 1217.000000"
 preserveAspectRatio="xMidYMid meet">
<metadata>
Created by potrace 1.13, written by Peter Selinger 2001-2015
</metadata>
<g transform="translate(0.000000,1217.000000) scale(0.100000,-0.100000)"
fill="#000000" stroke="none">
<path d="M4795 9509 c-49 -28 -58 -70 -24 -113 40 -51 129 -20 129 46 0 52
-62 91 -105 67z"/>
<path d="M13794 9508 c-22 -10 -44 -47 -44 -72 0 -7 9 -25 21 -40 15 -19 30
-26 55 -26 69 0 99 76 49 125 -26 27 -47 30 -81 13z"/>
<path d="M4771 484 c-24 -31 -26 -43 -10 -78 16 -35 63 -50 99 -31 30 15 40
33 40 71 0 61 -90 88 -129 38z"/>
<path d="M13771 484 c-27 -34 -26 -57 2 -90 47 -54 127 -24 127 47 0 66 -88
95 -129 43z"/>
</g>
</svg>
