<?xml version="1.0" standalone="no"?>
<!DOCTYPE svg PUBLIC "-//W3C//DTD SVG 20010904//EN"
 "http://www.w3.org/TR/2001/REC-SVG-20010904/DTD/svg10.dtd">
<svg version="1.0" xmlns="http://www.w3.org/2000/svg"
 width="1125.000000pt" height="900.000000pt" viewBox="0 0 1125.000000 900.000000"
 preserveAspectRatio="xMidYMid meet">
<metadata>
Created by potrace 1.13, written by Peter Selinger 2001-2015
</metadata>
<g transform="translate(0.000000,900.000000) scale(0.100000,-0.100000)"
fill="#000000" stroke="none">
<path d="M0 4500 l0 -4500 5625 0 5625 0 0 4500 0 4500 -5625 0 -5625 0 0
-4500z m4587 4414 c-2 -39 2 -49 25 -66 29 -23 65 -19 93 9 13 12 16 28 12 60
l-5 43 157 0 157 0 22 -30 c31 -42 81 -42 119 0 l26 30 1810 0 c1710 0 1809
-1 1802 -18 -17 -39 -15 -59 5 -85 30 -38 80 -38 110 0 21 26 22 46 5 86 -7
16 45 17 1015 17 970 0 1022 -1 1015 -17 -17 -40 -16 -60 5 -86 30 -38 80 -38
110 0 21 26 22 46 5 86 -7 16 -2 18 61 15 l69 -3 3 -1165 c1 -641 0 -1171 -3
-1178 -4 -10 -10 -10 -25 -2 -47 25 -107 -37 -88 -91 13 -38 41 -52 84 -44
l34 6 0 -312 0 -311 -30 -28 c-39 -37 -39 -73 0 -110 l30 -28 0 -286 c0 -263
-4 -310 -25 -276 -3 6 -21 10 -40 10 -24 0 -39 -7 -54 -26 -27 -34 -26 -54 0
-89 22 -27 55 -31 102 -10 16 7 17 -114 15 -2481 l-3 -2489 -3327 -3 c-1831
-1 -3328 0 -3328 2 0 2 7 17 15 32 40 77 -61 145 -114 78 -25 -31 -26 -53 -6
-80 8 -10 15 -22 15 -26 0 -5 -60 -8 -134 -8 l-134 0 -7 30 c-13 61 -87 81
-124 34 -12 -15 -21 -35 -21 -45 0 -18 -10 -19 -130 -19 -126 0 -130 1 -145
24 -33 50 -98 51 -131 2 -16 -26 -18 -26 -149 -26 -95 0 -143 4 -169 15 -31
13 -40 13 -73 0 -33 -13 -237 -14 -1618 -12 l-1580 2 2 3855 c1 2120 1 3875 2
3900 0 25 -2 237 -5 472 l-4 427 29 15 c58 31 57 106 -2 134 -23 11 -27 19
-27 56 0 23 3 46 7 49 3 4 1027 7 2274 7 l2267 0 -1 -46z"/>
<path d="M4181 8894 c-12 -15 -21 -35 -21 -46 0 -27 45 -68 75 -68 30 0 75 41
75 68 0 35 -38 72 -75 72 -24 0 -39 -7 -54 -26z"/>
<path d="M9585 8895 c-40 -39 -29 -95 22 -113 78 -27 136 76 70 123 -31 22
-65 18 -92 -10z"/>
<path d="M10262 8897 c-43 -46 -15 -120 46 -120 43 0 72 28 72 70 0 66 -74 97
-118 50z"/>
<path d="M6980 8860 c-24 -24 -26 -67 -4 -98 11 -16 25 -22 54 -22 29 0 43 6
54 22 36 51 5 118 -54 118 -17 0 -39 -9 -50 -20z"/>
<path d="M3772 8854 c-28 -20 -31 -83 -4 -107 44 -40 122 -7 122 51 0 59 -67
92 -118 56z"/>
<path d="M416 8809 c-36 -29 -36 -80 1 -109 47 -37 113 -2 113 60 0 31 -39 70
-70 70 -10 0 -29 -9 -44 -21z"/>
<path d="M3390 8810 c-43 -43 -11 -120 50 -120 38 0 70 32 70 70 0 38 -32 70
-70 70 -17 0 -39 -9 -50 -20z"/>
<path d="M843 8808 c-81 -39 -20 -167 62 -130 55 25 58 100 5 127 -33 17 -37
17 -67 3z"/>
<path d="M1260 8807 c-76 -38 -28 -154 55 -133 29 7 56 56 48 87 -11 41 -65
65 -103 46z"/>
<path d="M2992 8800 c-77 -31 -34 -153 48 -135 65 14 74 106 14 134 -29 13
-31 13 -62 1z"/>
<path d="M1660 8770 c-26 -26 -26 -81 0 -105 29 -26 79 -24 102 4 56 70 -39
164 -102 101z"/>
<path d="M2062 8757 c-45 -48 -14 -117 51 -117 43 0 67 26 67 73 0 63 -74 91
-118 44z"/>
<path d="M2522 8764 c-28 -20 -31 -83 -4 -107 25 -23 78 -21 102 3 61 61 -27
154 -98 104z"/>
<path d="M7659 8642 c-63 -52 8 -155 80 -117 48 24 55 72 16 110 -29 30 -64
32 -96 7z"/>
<path d="M2305 8578 c-50 -27 -59 -75 -20 -113 42 -43 106 -23 121 37 5 22 0
33 -24 58 -33 32 -46 35 -77 18z"/>
<path d="M5613 8580 c-48 -19 -58 -87 -17 -119 34 -27 64 -27 92 -1 57 53 -3
149 -75 120z"/>
<path d="M1460 8547 c-70 -35 -48 -137 30 -137 28 0 70 44 70 73 0 51 -55 86
-100 64z"/>
<path d="M8360 8520 c-11 -11 -20 -33 -20 -50 0 -17 9 -39 20 -50 11 -11 33
-20 50 -20 17 0 39 9 50 20 11 11 20 33 20 50 0 17 -9 39 -20 50 -11 11 -33
20 -50 20 -17 0 -39 -9 -50 -20z"/>
<path d="M11045 8455 c-14 -13 -25 -36 -25 -50 0 -29 40 -75 65 -75 20 0 57
19 67 34 18 26 8 75 -18 95 -35 27 -59 26 -89 -4z"/>
<path d="M9145 8428 c-28 -16 -35 -28 -35 -65 0 -35 37 -73 72 -73 27 0 68 45
68 75 0 30 -41 75 -67 75 -10 0 -27 -6 -38 -12z"/>
<path d="M10543 8420 c-46 -19 -57 -83 -20 -118 48 -45 117 -14 117 51 0 51
-50 86 -97 67z"/>
<path d="M2576 8399 c-36 -28 -36 -80 0 -108 15 -12 34 -21 44 -21 34 0 70 39
70 75 0 36 -36 75 -70 75 -10 0 -29 -9 -44 -21z"/>
<path d="M4126 8399 c-36 -28 -36 -80 0 -108 15 -12 34 -21 44 -21 34 0 70 39
70 75 0 36 -36 75 -70 75 -10 0 -29 -9 -44 -21z"/>
<path d="M9858 8374 c-51 -27 -46 -101 7 -126 58 -26 119 33 95 91 -6 16 -23
33 -36 40 -31 14 -33 14 -66 -5z"/>
<path d="M1100 8350 c-43 -43 -11 -120 50 -120 38 0 70 32 70 70 0 38 -32 70
-70 70 -17 0 -39 -9 -50 -20z"/>
<path d="M6390 8250 c-30 -30 -27 -83 7 -110 70 -55 151 42 88 105 -29 30 -68
32 -95 5z"/>
<path d="M2877 8222 c-25 -28 -22 -87 5 -106 73 -51 160 42 98 104 -26 26 -81
26 -103 2z"/>
<path d="M722 8167 c-45 -48 -14 -117 51 -117 42 0 67 26 67 68 0 65 -74 96
-118 49z"/>
<path d="M4755 8120 c-41 -45 -7 -120 54 -120 34 0 71 37 71 71 0 60 -85 93
-125 49z"/>
<path d="M1520 8117 c-33 -16 -47 -58 -32 -92 25 -55 100 -58 127 -5 32 61
-33 128 -95 97z"/>
<path d="M3260 8077 c-13 -7 -29 -25 -34 -39 -29 -83 94 -137 128 -56 17 39
11 63 -22 88 -29 23 -38 24 -72 7z"/>
<path d="M7081 8044 c-12 -15 -21 -34 -21 -44 0 -31 39 -70 70 -70 62 0 97 66
60 113 -29 37 -80 37 -109 1z"/>
<path d="M330 8000 c-45 -45 -11 -120 53 -120 42 0 67 26 67 68 0 41 -31 72
-70 72 -17 0 -39 -9 -50 -20z"/>
<path d="M2085 7985 c-58 -57 1 -146 76 -115 35 15 53 57 40 93 -19 51 -77 62
-116 22z"/>
<path d="M3617 7938 c-37 -33 -40 -75 -7 -108 27 -27 66 -25 95 5 29 28 32 65
8 93 -28 33 -66 37 -96 10z"/>
<path d="M7789 7872 c-49 -40 -17 -122 48 -122 65 0 93 61 52 114 -25 31 -66
35 -100 8z"/>
<path d="M5431 7854 c-12 -15 -21 -34 -21 -44 0 -34 39 -70 75 -70 36 0 75 36
75 70 0 34 -39 70 -75 70 -24 0 -39 -7 -54 -26z"/>
<path d="M2700 7817 c-52 -26 -49 -104 4 -128 81 -37 138 73 64 125 -27 19
-35 20 -68 3z"/>
<path d="M4033 7820 c-48 -20 -58 -87 -17 -119 34 -27 64 -27 92 -1 32 30 30
82 -4 109 -29 23 -38 24 -71 11z"/>
<path d="M906 7754 c-43 -43 -19 -116 41 -122 62 -6 101 62 63 111 -25 31 -78
37 -104 11z"/>
<path d="M8522 7743 c-32 -27 -37 -64 -12 -96 28 -35 80 -37 110 -5 58 63 -32
156 -98 101z"/>
<path d="M9186 7689 c-52 -41 -23 -122 44 -122 67 0 96 81 44 122 -15 12 -34
21 -44 21 -10 0 -29 -9 -44 -21z"/>
<path d="M4427 7662 c-25 -28 -22 -87 5 -106 71 -50 159 43 98 104 -26 26 -81
26 -103 2z"/>
<path d="M11001 7654 c-41 -53 -13 -114 52 -114 42 0 70 29 70 72 0 64 -83 92
-122 42z"/>
<path d="M9796 7649 c-50 -39 -23 -119 42 -121 43 -1 72 26 72 69 0 65 -61 93
-114 52z"/>
<path d="M6161 7634 c-27 -34 -27 -64 -1 -92 47 -50 140 -6 125 58 -14 60 -88
80 -124 34z"/>
<path d="M10386 7639 c-26 -20 -36 -69 -18 -95 10 -15 47 -34 67 -34 25 0 65
46 65 75 0 30 -41 75 -68 75 -11 0 -31 -9 -46 -21z"/>
<path d="M3295 7605 c-30 -30 -31 -54 -4 -89 15 -19 30 -26 54 -26 37 0 75 37
75 72 0 27 -45 68 -75 68 -14 0 -37 -11 -50 -25z"/>
<path d="M1487 7582 c-24 -26 -21 -77 5 -102 63 -58 152 26 102 98 -20 28 -83
31 -107 4z"/>
<path d="M4850 7563 c-51 -19 -68 -85 -30 -123 61 -61 159 33 103 98 -20 23
-50 33 -73 25z"/>
<path d="M2076 7509 c-19 -15 -26 -30 -26 -54 0 -36 36 -75 70 -75 34 0 70 39
70 75 0 36 -36 75 -70 75 -10 0 -29 -9 -44 -21z"/>
<path d="M3882 7477 c-45 -48 -17 -117 47 -117 46 0 71 24 71 68 0 65 -74 96
-118 49z"/>
<path d="M5216 7429 c-36 -29 -36 -80 1 -109 47 -37 113 -2 113 60 0 31 -39
70 -70 70 -10 0 -29 -9 -44 -21z"/>
<path d="M6890 7428 c-27 -29 -25 -69 3 -96 46 -43 120 -15 120 46 0 66 -78
98 -123 50z"/>
<path d="M2682 7397 c-28 -30 -28 -68 1 -95 48 -45 120 -16 120 48 0 65 -76
95 -121 47z"/>
<path d="M4517 7399 c-10 -6 -23 -22 -28 -37 -23 -61 42 -118 101 -87 47 24
54 72 15 110 -25 26 -58 31 -88 14z"/>
<path d="M5597 7322 c-40 -44 -7 -122 51 -122 59 0 92 67 56 118 -20 28 -83
31 -107 4z"/>
<path d="M3319 7298 c-16 -5 -32 -22 -39 -39 -35 -84 84 -137 129 -58 31 55
-28 118 -90 97z"/>
<path d="M7613 7288 c-68 -33 -40 -138 37 -138 28 0 70 44 70 73 0 51 -61 88
-107 65z"/>
<path d="M6036 7209 c-19 -15 -26 -30 -26 -54 0 -36 36 -75 70 -75 34 0 70 39
70 75 0 36 -36 75 -70 75 -10 0 -29 -9 -44 -21z"/>
<path d="M3909 7182 c-28 -23 -30 -73 -4 -102 25 -27 78 -27 105 2 26 28 26
58 -1 92 -25 31 -66 35 -100 8z"/>
<path d="M8293 7165 c-70 -49 0 -160 76 -120 48 24 55 72 16 110 -27 28 -61
32 -92 10z"/>
<path d="M6462 7130 c-48 -45 -16 -123 50 -123 64 0 92 83 42 122 -34 27 -64
27 -92 1z"/>
<path d="M4532 7087 c-43 -46 -16 -117 46 -119 43 -1 72 26 72 69 0 66 -74 97
-118 50z"/>
<path d="M9078 7076 c-10 -7 -21 -24 -26 -37 -28 -74 78 -130 123 -66 22 31
18 65 -10 92 -26 27 -60 32 -87 11z"/>
<path d="M5145 7035 c-40 -39 -29 -97 22 -116 62 -23 119 40 89 99 -25 49 -72
56 -111 17z"/>
<path d="M6857 7053 c-9 -2 -24 -18 -33 -35 -30 -59 27 -122 89 -99 51 19 62
77 22 116 -23 24 -40 28 -78 18z"/>
<path d="M9890 7030 c-26 -26 -26 -81 0 -105 29 -26 79 -24 102 4 25 32 23 67
-7 96 -29 30 -68 32 -95 5z"/>
<path d="M122 7007 c-44 -47 -13 -117 52 -117 41 0 69 29 69 72 0 61 -78 91
-121 45z"/>
<path d="M10651 6994 c-12 -15 -21 -34 -21 -44 0 -34 39 -70 75 -70 36 0 75
36 75 70 0 34 -39 70 -75 70 -24 0 -39 -7 -54 -26z"/>
<path d="M7242 6994 c-63 -44 -37 -134 39 -134 28 0 69 44 69 73 0 55 -65 92
-108 61z"/>
<path d="M5772 6974 c-50 -34 -15 -124 48 -124 17 0 39 9 50 20 11 11 20 33
20 50 0 59 -67 90 -118 54z"/>
<path d="M7641 6914 c-27 -34 -27 -64 -1 -92 47 -50 140 -6 125 58 -14 60 -88
80 -124 34z"/>
<path d="M760 6880 c-43 -43 -11 -120 50 -120 38 0 70 32 70 70 0 38 -32 70
-70 70 -17 0 -39 -9 -50 -20z"/>
<path d="M8070 6867 c-70 -35 -48 -137 30 -137 28 0 70 44 70 73 0 51 -55 86
-100 64z"/>
<path d="M1360 6790 c-26 -26 -26 -81 -2 -103 28 -25 87 -22 106 5 51 73 -42
160 -104 98z"/>
<path d="M8452 6787 c-45 -48 -17 -117 47 -117 46 0 71 24 71 68 0 65 -74 96
-118 49z"/>
<path d="M2112 6753 c-7 -3 -19 -18 -27 -33 -40 -77 71 -147 120 -77 42 60
-24 138 -93 110z"/>
<path d="M8903 6740 c-46 -19 -57 -83 -20 -118 47 -44 117 -13 117 52 0 50
-50 84 -97 66z"/>
<path d="M9285 6695 c-28 -27 -30 -42 -14 -79 26 -56 105 -53 129 3 31 75 -58
133 -115 76z"/>
<path d="M2691 6664 c-12 -15 -21 -34 -21 -44 0 -34 39 -70 75 -70 36 0 75 36
75 70 0 34 -39 70 -75 70 -24 0 -39 -7 -54 -26z"/>
<path d="M9696 6649 c-19 -15 -26 -30 -26 -54 0 -37 37 -75 72 -75 27 0 68 45
68 75 0 30 -41 75 -68 75 -11 0 -31 -9 -46 -21z"/>
<path d="M3320 6620 c-45 -45 -11 -120 53 -120 42 0 67 26 67 68 0 41 -31 72
-70 72 -17 0 -39 -9 -50 -20z"/>
<path d="M10101 6614 c-12 -15 -21 -34 -21 -44 0 -34 39 -70 75 -70 24 0 39 7
54 26 27 35 26 59 -4 89 -33 34 -77 33 -104 -1z"/>
<path d="M3957 6619 c-48 -28 -40 -107 12 -129 75 -31 134 58 76 115 -25 26
-58 31 -88 14z"/>
<path d="M10559 6608 c-16 -5 -32 -22 -39 -39 -35 -84 84 -137 129 -58 31 55
-28 118 -90 97z"/>
<path d="M4560 6570 c-26 -26 -26 -81 0 -105 29 -26 79 -24 102 4 25 32 23 67
-7 96 -29 30 -68 32 -95 5z"/>
<path d="M5203 6535 c-66 -46 -8 -150 68 -123 26 9 49 44 49 74 0 23 -46 64
-72 64 -13 0 -33 -7 -45 -15z"/>
<path d="M5822 6527 c-45 -48 -17 -117 47 -117 46 0 71 24 71 68 0 65 -74 96
-118 49z"/>
<path d="M7045 6525 c-28 -27 -30 -42 -14 -79 32 -69 139 -38 139 40 0 24 -47
64 -75 64 -14 0 -37 -11 -50 -25z"/>
<path d="M6463 6528 c-68 -33 -40 -138 37 -138 28 0 70 44 70 73 0 51 -61 88
-107 65z"/>
<path d="M9572 6357 c-45 -48 -14 -117 51 -117 42 0 67 26 67 68 0 65 -74 96
-118 49z"/>
<path d="M9042 6297 c-45 -48 -17 -117 47 -117 46 0 71 24 71 68 0 65 -74 96
-118 49z"/>
<path d="M11060 6260 c-24 -24 -26 -67 -4 -98 11 -16 25 -22 54 -22 29 0 43 6
54 22 36 51 5 118 -54 118 -17 0 -39 -9 -50 -20z"/>
<path d="M8531 6244 c-12 -15 -21 -34 -21 -44 0 -10 9 -29 21 -44 41 -52 122
-23 122 44 0 67 -81 96 -122 44z"/>
<path d="M7995 6195 c-29 -28 -31 -51 -9 -83 43 -62 134 -32 134 44 0 24 -47
64 -75 64 -14 0 -37 -11 -50 -25z"/>
<path d="M7542 6163 c-7 -3 -19 -18 -28 -35 -13 -24 -13 -35 -4 -58 31 -74
140 -51 140 30 0 45 -63 81 -108 63z"/>
<path d="M7001 6104 c-27 -35 -26 -59 4 -89 33 -34 77 -33 104 1 12 15 21 34
21 44 0 34 -39 70 -75 70 -24 0 -39 -7 -54 -26z"/>
<path d="M355 6070 c-42 -47 -8 -120 55 -120 33 0 70 40 70 76 0 57 -86 87
-125 44z"/>
<path d="M10310 6083 c-51 -19 -68 -85 -30 -123 61 -61 159 33 103 98 -20 23
-50 33 -73 25z"/>
<path d="M6481 6054 c-12 -15 -21 -34 -21 -44 0 -34 39 -70 75 -70 36 0 75 36
75 70 0 34 -39 70 -75 70 -24 0 -39 -7 -54 -26z"/>
<path d="M1000 6053 c-51 -19 -68 -85 -30 -123 61 -61 159 32 103 98 -20 23
-50 33 -73 25z"/>
<path d="M5890 6053 c-76 -27 -58 -143 21 -143 55 0 92 87 52 122 -22 19 -53
28 -73 21z"/>
<path d="M1591 6014 c-12 -15 -21 -34 -21 -44 0 -34 39 -70 75 -70 36 0 75 36
75 70 0 34 -39 70 -75 70 -24 0 -39 -7 -54 -26z"/>
<path d="M2122 6017 c-28 -30 -28 -68 1 -95 48 -45 120 -16 120 48 0 65 -76
95 -121 47z"/>
<path d="M2766 6009 c-50 -39 -22 -122 42 -122 66 0 98 78 50 123 -28 26 -58
26 -92 -1z"/>
<path d="M5250 6010 c-26 -26 -26 -81 0 -105 29 -26 79 -24 102 4 25 32 23 67
-7 96 -29 30 -68 32 -95 5z"/>
<path d="M3998 6005 c-78 -43 -14 -164 68 -126 54 24 53 105 -2 130 -31 14
-33 14 -66 -4z"/>
<path d="M4640 6007 c-52 -26 -49 -104 4 -128 81 -37 138 73 64 125 -27 19
-35 20 -68 3z"/>
<path d="M3370 5978 c-27 -29 -25 -69 3 -96 46 -43 120 -15 120 46 0 66 -78
98 -123 50z"/>
<path d="M9432 5867 c-45 -48 -14 -117 51 -117 42 0 67 26 67 68 0 65 -74 96
-118 49z"/>
<path d="M10772 5724 c-29 -20 -30 -76 -2 -104 43 -43 120 -11 120 50 0 59
-67 90 -118 54z"/>
<path d="M8655 5698 c-28 -16 -35 -28 -35 -65 0 -35 37 -73 72 -73 27 0 68 45
68 75 0 30 -41 75 -67 75 -10 0 -27 -6 -38 -12z"/>
<path d="M10380 5630 c-26 -26 -26 -81 -2 -103 44 -40 122 -7 122 51 0 60 -78
94 -120 52z"/>
<path d="M7740 5530 c-11 -11 -20 -33 -20 -50 0 -17 9 -39 20 -50 11 -11 33
-20 50 -20 17 0 39 9 50 20 11 11 20 33 20 50 0 17 -9 39 -20 50 -11 11 -33
20 -50 20 -17 0 -39 -9 -50 -20z"/>
<path d="M9976 5527 c-15 -15 -26 -38 -26 -52 0 -14 11 -37 26 -52 20 -20 31
-24 57 -19 43 9 61 29 61 71 0 42 -18 62 -61 71 -26 5 -37 1 -57 -19z"/>
<path d="M9567 5440 c-35 -28 -37 -80 -5 -110 29 -27 64 -25 93 5 63 63 -18
160 -88 105z"/>
<path d="M6932 5397 c-45 -48 -14 -117 51 -117 43 0 67 26 67 73 0 63 -74 91
-118 44z"/>
<path d="M9151 5364 c-12 -15 -21 -34 -21 -44 0 -34 39 -70 75 -70 24 0 39 7
54 26 27 35 26 59 -4 89 -33 34 -77 33 -104 -1z"/>
<path d="M6190 5310 c-26 -26 -26 -81 -2 -103 28 -25 87 -22 106 5 36 51 5
118 -54 118 -17 0 -39 -9 -50 -20z"/>
<path d="M10450 5283 c-37 -47 -2 -113 60 -113 31 0 70 39 70 70 0 10 -9 29
-21 44 -29 36 -80 36 -109 -1z"/>
<path d="M8794 5279 c-32 -16 -48 -56 -34 -89 11 -27 46 -50 76 -50 23 0 64
47 64 73 0 51 -61 88 -106 66z"/>
<path d="M496 5259 c-46 -36 -26 -110 34 -124 38 -9 80 27 80 68 0 38 -7 50
-37 66 -31 16 -47 14 -77 -10z"/>
<path d="M5500 5230 c-11 -11 -20 -33 -20 -50 0 -17 9 -39 20 -50 11 -11 33
-20 50 -20 17 0 39 9 50 20 11 11 20 33 20 50 0 17 -9 39 -20 50 -11 11 -33
20 -50 20 -17 0 -39 -9 -50 -20z"/>
<path d="M1260 5190 c-11 -11 -20 -33 -20 -50 0 -17 9 -39 20 -50 11 -11 33
-20 50 -20 17 0 39 9 50 20 43 43 11 120 -50 120 -17 0 -39 -9 -50 -20z"/>
<path d="M8362 5203 c-7 -3 -19 -18 -27 -33 -40 -77 71 -147 120 -77 42 60
-24 138 -93 110z"/>
<path d="M2140 5193 c-55 -20 -68 -87 -24 -122 15 -12 34 -21 44 -21 33 0 70
39 70 74 0 46 -49 84 -90 69z"/>
<path d="M4835 5175 c-29 -28 -31 -51 -9 -83 43 -62 134 -32 134 44 0 24 -47
64 -75 64 -14 0 -37 -11 -50 -25z"/>
<path d="M2792 5137 c-45 -48 -14 -117 51 -117 42 0 67 26 67 68 0 65 -74 96
-118 49z"/>
<path d="M3422 5143 c-32 -27 -37 -64 -12 -96 28 -35 80 -37 110 -5 58 63 -32
156 -98 101z"/>
<path d="M4132 5137 c-45 -48 -14 -117 51 -117 43 0 70 29 69 72 -2 63 -77 91
-120 45z"/>
<path d="M7940 5118 c-26 -28 -26 -58 1 -92 39 -50 122 -22 122 42 0 66 -78
98 -123 50z"/>
<path d="M7546 5059 c-52 -41 -23 -122 44 -122 67 0 96 81 44 122 -15 12 -34
21 -44 21 -10 0 -29 -9 -44 -21z"/>
<path d="M7130 4983 c-37 -47 -2 -113 60 -113 31 0 70 39 70 70 0 10 -9 29
-21 44 -29 36 -80 36 -109 -1z"/>
<path d="M6726 4929 c-19 -15 -26 -30 -26 -54 0 -36 36 -75 70 -75 34 0 70 39
70 75 0 36 -36 75 -70 75 -10 0 -29 -9 -44 -21z"/>
<path d="M8990 4933 c-53 -19 -68 -86 -28 -123 63 -58 157 33 101 98 -20 23
-50 33 -73 25z"/>
<path d="M6320 4887 c-13 -7 -29 -25 -34 -39 -29 -83 94 -137 128 -56 17 39
11 63 -22 88 -29 23 -38 24 -72 7z"/>
<path d="M5900 4810 c-26 -26 -26 -81 -2 -103 25 -23 78 -21 102 3 43 43 11
120 -50 120 -17 0 -39 -9 -50 -20z"/>
<path d="M5495 4755 c-28 -27 -30 -42 -14 -79 16 -34 58 -51 91 -35 26 11 48
46 48 75 0 24 -47 64 -75 64 -14 0 -37 -11 -50 -25z"/>
<path d="M9612 4757 c-45 -48 -16 -120 48 -120 65 0 95 76 47 121 -30 28 -68
28 -95 -1z"/>
<path d="M5092 4717 c-45 -48 -17 -117 47 -117 46 0 71 24 71 68 0 65 -74 96
-118 49z"/>
<path d="M4699 4668 c-16 -5 -32 -22 -39 -39 -35 -84 84 -137 129 -58 31 55
-28 118 -90 97z"/>
<path d="M10220 4667 c-14 -7 -31 -24 -39 -38 -12 -22 -12 -29 0 -54 27 -57
105 -57 131 0 26 57 -37 119 -92 92z"/>
<path d="M7358 4624 c-51 -27 -46 -101 7 -126 58 -26 119 33 95 91 -6 16 -23
33 -36 40 -31 14 -33 14 -66 -5z"/>
<path d="M4281 4594 c-12 -15 -21 -34 -21 -44 0 -34 39 -70 75 -70 36 0 75 36
75 70 0 34 -39 70 -75 70 -24 0 -39 -7 -54 -26z"/>
<path d="M10816 4579 c-26 -20 -36 -69 -18 -95 10 -15 47 -34 67 -34 25 0 65
46 65 75 0 30 -41 75 -68 75 -11 0 -31 -9 -46 -21z"/>
<path d="M3805 4540 c-41 -45 -10 -120 50 -120 38 0 75 35 75 71 0 58 -87 91
-125 49z"/>
<path d="M3361 4494 c-12 -15 -21 -34 -21 -44 0 -34 39 -70 75 -70 36 0 75 36
75 70 0 34 -39 70 -75 70 -24 0 -39 -7 -54 -26z"/>
<path d="M2935 4485 c-28 -27 -31 -45 -14 -78 16 -30 28 -37 66 -37 35 0 73
37 73 72 0 27 -45 68 -75 68 -14 0 -37 -11 -50 -25z"/>
<path d="M7960 4503 c-55 -20 -68 -87 -24 -122 35 -27 65 -27 92 2 27 28 29
78 5 99 -22 19 -53 28 -73 21z"/>
<path d="M331 4454 c-12 -15 -21 -35 -21 -46 0 -27 45 -68 75 -68 30 0 75 41
75 68 0 35 -38 72 -75 72 -24 0 -39 -7 -54 -26z"/>
<path d="M737 4449 c-48 -28 -40 -107 12 -129 75 -31 134 58 76 115 -25 26
-58 31 -88 14z"/>
<path d="M2535 4448 c-28 -16 -35 -28 -35 -65 0 -35 37 -73 72 -73 27 0 68 45
68 75 0 30 -41 75 -67 75 -10 0 -27 -6 -38 -12z"/>
<path d="M1180 4410 c-45 -45 -11 -120 53 -120 43 0 67 26 67 73 0 26 -6 40
-22 51 -31 22 -74 20 -98 -4z"/>
<path d="M1638 4394 c-51 -27 -46 -101 7 -126 58 -26 119 33 95 91 -6 16 -23
33 -36 40 -31 14 -33 14 -66 -5z"/>
<path d="M2083 4400 c-25 -10 -43 -39 -43 -70 0 -29 44 -70 75 -70 62 0 89 89
39 129 -29 23 -38 24 -71 11z"/>
<path d="M8555 4325 c-14 -13 -25 -31 -25 -39 0 -54 58 -96 104 -75 24 11 46
47 46 75 0 24 -47 64 -75 64 -14 0 -37 -11 -50 -25z"/>
<path d="M5375 4305 c-40 -39 -29 -97 22 -116 62 -23 119 40 89 99 -25 49 -72
56 -111 17z"/>
<path d="M9165 4210 c-41 -45 -10 -120 50 -120 38 0 75 35 75 71 0 58 -87 91
-125 49z"/>
<path d="M153 4170 c-48 -19 -58 -87 -17 -119 34 -27 64 -27 92 -1 57 53 -3
149 -75 120z"/>
<path d="M1446 4128 c-50 -71 43 -159 104 -98 26 26 26 81 2 103 -28 25 -87
22 -106 -5z"/>
<path d="M2250 4130 c-26 -26 -25 -60 1 -94 25 -31 66 -35 100 -8 28 23 30 73
4 102 -24 26 -79 26 -105 0z"/>
<path d="M9780 4120 c-26 -26 -26 -81 -2 -103 25 -23 78 -21 102 3 43 43 11
120 -50 120 -17 0 -39 -9 -50 -20z"/>
<path d="M3853 4105 c-70 -49 0 -160 76 -120 48 24 55 72 16 110 -27 28 -61
32 -92 10z"/>
<path d="M6175 4095 c-46 -46 -19 -118 44 -118 66 0 98 76 51 123 -27 27 -66
25 -95 -5z"/>
<path d="M10401 4034 c-12 -15 -21 -34 -21 -44 0 -34 39 -70 75 -70 36 0 75
36 75 70 0 34 -39 70 -75 70 -24 0 -39 -7 -54 -26z"/>
<path d="M11000 4000 c-26 -26 -25 -60 1 -94 25 -31 66 -35 100 -8 28 23 30
73 4 102 -24 26 -79 26 -105 0z"/>
<path d="M2623 3982 c-51 -8 -70 -83 -30 -120 48 -45 117 -14 117 51 0 48 -38
77 -87 69z"/>
<path d="M6807 3928 c-37 -33 -40 -75 -7 -108 27 -27 66 -25 95 5 29 28 32 65
8 93 -28 33 -66 37 -96 10z"/>
<path d="M1080 3903 c-37 -47 -4 -113 56 -113 35 0 74 37 74 70 0 10 -9 29
-21 44 -29 36 -80 36 -109 -1z"/>
<path d="M4623 3840 c-48 -20 -58 -87 -17 -119 34 -27 64 -27 92 -1 32 30 30
82 -4 109 -29 23 -38 24 -71 11z"/>
<path d="M710 3770 c-26 -26 -26 -81 0 -105 29 -26 79 -24 102 4 27 34 23 75
-8 100 -34 26 -68 27 -94 1z"/>
<path d="M2972 3770 c-48 -45 -16 -123 50 -123 61 0 91 78 45 121 -29 28 -67
28 -95 2z"/>
<path d="M7525 3750 c-42 -46 -10 -120 51 -120 35 0 74 37 74 70 0 10 -9 29
-21 44 -26 33 -77 36 -104 6z"/>
<path d="M8267 3659 c-48 -28 -40 -107 12 -129 75 -31 134 58 76 115 -25 26
-58 31 -88 14z"/>
<path d="M3345 3610 c-42 -47 -8 -120 55 -120 33 0 70 40 70 74 0 57 -86 89
-125 46z"/>
<path d="M332 3597 c-45 -48 -17 -117 47 -117 46 0 71 24 71 68 0 65 -74 96
-118 49z"/>
<path d="M1466 3579 c-36 -29 -36 -80 1 -109 47 -37 113 -4 113 56 0 35 -37
74 -70 74 -10 0 -29 -9 -44 -21z"/>
<path d="M5413 3578 c-51 -24 -50 -106 1 -129 83 -38 147 84 66 126 -33 17
-37 17 -67 3z"/>
<path d="M9056 3544 c-27 -27 -31 -63 -9 -92 28 -38 75 -41 108 -8 30 31 32
55 4 90 -24 30 -78 36 -103 10z"/>
<path d="M9740 3520 c-43 -43 -11 -120 50 -120 38 0 70 32 70 70 0 38 -32 70
-70 70 -17 0 -39 -9 -50 -20z"/>
<path d="M10361 3474 c-12 -15 -21 -34 -21 -44 0 -34 39 -70 75 -70 36 0 75
36 75 70 0 34 -39 70 -75 70 -24 0 -39 -7 -54 -26z"/>
<path d="M10961 3474 c-12 -15 -21 -34 -21 -44 0 -34 39 -70 75 -70 36 0 75
36 75 70 0 34 -39 70 -75 70 -24 0 -39 -7 -54 -26z"/>
<path d="M2096 3468 c-50 -71 43 -159 104 -98 26 26 26 81 2 103 -28 25 -87
22 -106 -5z"/>
<path d="M3752 3467 c-45 -48 -17 -117 47 -117 46 0 71 24 71 68 0 65 -74 96
-118 49z"/>
<path d="M2650 3410 c-26 -26 -26 -81 0 -105 29 -26 79 -24 102 4 27 34 23 75
-8 100 -34 26 -68 27 -94 1z"/>
<path d="M3207 3342 c-40 -44 -7 -122 51 -122 60 0 94 78 52 120 -26 26 -81
26 -103 2z"/>
<path d="M4169 3342 c-15 -13 -22 -30 -22 -51 0 -66 76 -98 123 -51 27 27 25
66 -5 95 -29 30 -64 32 -96 7z"/>
<path d="M6240 3340 c-42 -42 -8 -120 53 -120 58 0 91 85 49 123 -25 23 -78
21 -102 -3z"/>
<path d="M4560 3210 c-26 -26 -26 -81 0 -105 29 -26 79 -24 102 4 27 34 23 75
-8 100 -34 26 -68 27 -94 1z"/>
<path d="M7180 3160 c-43 -43 -11 -120 50 -120 38 0 70 32 70 70 0 38 -32 70
-70 70 -17 0 -39 -9 -50 -20z"/>
<path d="M4940 3117 c-76 -38 -28 -154 55 -133 29 7 56 56 48 87 -11 41 -65
65 -103 46z"/>
<path d="M8040 3030 c-26 -26 -26 -81 -2 -103 25 -23 78 -21 102 3 43 43 11
120 -50 120 -17 0 -39 -9 -50 -20z"/>
<path d="M5352 2997 c-45 -48 -14 -117 51 -117 43 0 67 26 67 73 0 63 -74 91
-118 44z"/>
<path d="M8885 2935 c-30 -30 -31 -54 -4 -89 15 -19 30 -26 54 -26 37 0 75 37
75 72 0 27 -45 68 -75 68 -14 0 -37 -11 -50 -25z"/>
<path d="M5745 2895 c-14 -13 -25 -36 -25 -50 0 -28 40 -75 64 -75 78 0 109
107 40 139 -37 16 -52 14 -79 -14z"/>
<path d="M9695 2885 c-28 -27 -32 -61 -10 -92 47 -66 150 -8 123 70 -18 51
-74 62 -113 22z"/>
<path d="M10510 2887 c-13 -7 -31 -24 -39 -38 -30 -53 36 -117 94 -91 55 25
58 100 5 127 -35 18 -29 18 -60 2z"/>
<path d="M661 2814 c-12 -15 -21 -34 -21 -44 0 -34 39 -70 75 -70 36 0 75 36
75 70 0 34 -39 70 -75 70 -24 0 -39 -7 -54 -26z"/>
<path d="M6145 2790 c-42 -47 -8 -120 55 -120 31 0 70 39 70 70 0 10 -9 29
-21 44 -26 33 -77 36 -104 6z"/>
<path d="M1521 2724 c-12 -15 -21 -34 -21 -44 0 -34 39 -70 75 -70 36 0 75 36
75 70 0 34 -39 70 -75 70 -24 0 -39 -7 -54 -26z"/>
<path d="M6580 2733 c-76 -27 -58 -143 21 -143 55 0 92 87 52 122 -22 19 -53
28 -73 21z"/>
<path d="M2402 2677 c-45 -48 -17 -117 47 -117 46 0 71 24 71 68 0 65 -74 96
-118 49z"/>
<path d="M5410 2680 c-26 -26 -26 -81 -2 -103 28 -25 87 -22 106 5 50 71 -43
159 -104 98z"/>
<path d="M3220 2650 c-42 -42 -8 -120 53 -120 58 0 91 85 49 123 -25 23 -78
21 -102 -3z"/>
<path d="M4755 2650 c-25 -27 -22 -80 6 -102 68 -56 161 40 99 102 -26 26 -81
26 -105 0z"/>
<path d="M6969 2652 c-15 -13 -22 -30 -22 -51 0 -66 76 -98 123 -51 27 27 25
66 -5 95 -29 30 -64 32 -96 7z"/>
<path d="M4055 2625 c-40 -39 -29 -97 22 -116 58 -22 116 36 94 94 -19 51 -77
62 -116 22z"/>
<path d="M7355 2580 c-41 -45 -9 -120 52 -120 31 0 73 42 73 75 0 57 -86 89
-125 45z"/>
<path d="M7762 2517 c-43 -46 -15 -120 46 -120 43 0 72 28 72 70 0 66 -74 97
-118 50z"/>
<path d="M8210 2497 c-14 -7 -31 -24 -39 -38 -12 -22 -12 -29 0 -54 27 -57
105 -57 131 0 26 57 -37 119 -92 92z"/>
<path d="M8605 2445 c-48 -47 -19 -115 48 -115 42 0 70 29 70 72 0 62 -73 89
-118 43z"/>
<path d="M9093 2430 c-48 -19 -58 -87 -17 -119 53 -41 114 -13 114 52 0 51
-50 86 -97 67z"/>
<path d="M9610 2357 c-13 -7 -29 -25 -34 -39 -29 -83 94 -137 128 -56 17 39
11 63 -22 88 -29 23 -38 24 -72 7z"/>
<path d="M7173 2330 c-47 -19 -56 -78 -18 -115 42 -43 106 -23 121 37 5 22 0
33 -24 58 -32 31 -43 34 -79 20z"/>
<path d="M10077 2292 c-40 -44 -7 -122 51 -122 60 0 94 78 52 120 -26 26 -81
26 -103 2z"/>
<path d="M10602 2257 c-45 -48 -16 -120 48 -120 65 0 95 76 47 121 -30 28 -68
28 -95 -1z"/>
<path d="M6536 2239 c-19 -15 -26 -30 -26 -54 0 -37 37 -75 72 -75 27 0 68 45
68 75 0 30 -41 75 -68 75 -11 0 -31 -9 -46 -21z"/>
<path d="M11072 2244 c-28 -20 -31 -83 -4 -107 45 -40 122 -6 122 53 0 59 -67
90 -118 54z"/>
<path d="M5973 2198 c-12 -6 -27 -24 -34 -40 -34 -83 86 -136 130 -57 19 33 1
81 -35 98 -29 13 -32 13 -61 -1z"/>
<path d="M5322 2120 c-79 -32 -32 -157 51 -133 64 18 71 111 10 134 -28 11
-31 11 -61 -1z"/>
<path d="M4580 2073 c-53 -19 -68 -86 -28 -123 63 -59 157 32 101 98 -20 23
-50 33 -73 25z"/>
<path d="M9233 2070 c-46 -19 -57 -83 -20 -118 47 -44 117 -13 117 52 0 50
-50 84 -97 66z"/>
<path d="M203 2035 c-43 -30 -38 -88 12 -121 21 -14 30 -14 55 -4 55 23 66 75
25 115 -27 28 -61 32 -92 10z"/>
<path d="M3746 2029 c-50 -39 -22 -122 42 -122 43 0 72 28 72 70 0 65 -61 93
-114 52z"/>
<path d="M2907 2002 c-40 -44 -6 -122 53 -122 60 0 92 78 50 120 -26 26 -81
26 -103 2z"/>
<path d="M1296 1979 c-19 -15 -26 -30 -26 -54 0 -36 36 -75 70 -75 34 0 70 39
70 75 0 36 -36 75 -70 75 -10 0 -29 -9 -44 -21z"/>
<path d="M2155 1975 c-14 -13 -25 -36 -25 -50 0 -28 40 -75 64 -75 29 0 64 22
75 48 16 33 -1 75 -35 91 -37 16 -52 14 -79 -14z"/>
<path d="M8736 1979 c-19 -15 -26 -30 -26 -54 0 -36 36 -75 70 -75 10 0 29 9
44 21 34 27 35 71 1 104 -30 30 -54 31 -89 4z"/>
<path d="M10843 1942 c-54 -8 -71 -87 -27 -121 53 -41 114 -13 114 52 0 48
-38 77 -87 69z"/>
<path d="M8275 1895 c-28 -27 -32 -61 -10 -92 49 -70 160 0 120 76 -24 48 -72
55 -110 16z"/>
<path d="M7747 1823 c-9 -2 -24 -18 -33 -35 -30 -59 27 -122 89 -99 51 19 62
77 22 116 -23 24 -40 28 -78 18z"/>
<path d="M10402 1804 c-79 -33 -31 -151 53 -130 28 7 57 58 47 85 -16 48 -54
65 -100 45z"/>
<path d="M7137 1738 c-45 -35 -37 -101 16 -126 22 -11 31 -10 55 2 49 25 56
73 17 111 -26 27 -62 32 -88 13z"/>
<path d="M9946 1679 c-19 -15 -26 -30 -26 -54 0 -36 36 -75 70 -75 34 0 70 39
70 75 0 36 -36 75 -70 75 -10 0 -29 -9 -44 -21z"/>
<path d="M6590 1637 c-70 -35 -48 -137 30 -137 28 0 70 44 70 73 0 51 -55 86
-100 64z"/>
<path d="M5955 1555 c-30 -30 -31 -54 -4 -89 20 -26 69 -36 95 -18 15 10 34
47 34 67 0 25 -46 65 -75 65 -14 0 -37 -11 -50 -25z"/>
<path d="M9426 1549 c-19 -15 -26 -30 -26 -54 0 -36 36 -75 70 -75 34 0 70 39
70 75 0 36 -36 75 -70 75 -10 0 -29 -9 -44 -21z"/>
<path d="M5270 1507 c-76 -38 -28 -154 55 -133 29 7 56 56 48 87 -11 41 -65
65 -103 46z"/>
<path d="M4632 1430 c-79 -32 -32 -157 51 -133 64 18 71 111 10 134 -28 11
-31 11 -61 -1z"/>
<path d="M8863 1428 c-12 -6 -27 -23 -33 -38 -24 -58 44 -120 99 -90 46 24 53
78 16 115 -26 27 -47 30 -82 13z"/>
<path d="M3956 1379 c-36 -28 -36 -80 0 -108 15 -12 34 -21 44 -21 34 0 70 39
70 75 0 36 -36 75 -70 75 -10 0 -29 -9 -44 -21z"/>
<path d="M3315 1335 c-46 -45 -19 -118 43 -118 43 0 72 28 72 70 0 67 -68 96
-115 48z"/>
<path d="M2689 1302 c-15 -13 -22 -30 -22 -51 0 -66 76 -98 123 -51 27 27 25
66 -5 95 -29 30 -64 32 -96 7z"/>
<path d="M231 1264 c-12 -15 -21 -35 -21 -46 0 -27 45 -68 75 -68 30 0 75 41
75 68 0 35 -38 72 -75 72 -24 0 -39 -7 -54 -26z"/>
<path d="M885 1270 c-42 -47 -8 -120 55 -120 33 0 70 40 70 74 0 57 -86 89
-125 46z"/>
<path d="M1510 1270 c-42 -42 -8 -120 53 -120 58 0 91 85 49 123 -25 23 -78
21 -102 -3z"/>
<path d="M2136 1268 c-36 -51 -5 -118 54 -118 59 0 90 67 54 118 -11 16 -25
22 -54 22 -29 0 -43 -6 -54 -22z"/>
<path d="M8256 1268 c-36 -51 -5 -118 54 -118 59 0 90 67 54 118 -11 16 -25
22 -54 22 -29 0 -43 -6 -54 -22z"/>
<path d="M11005 1175 c-14 -13 -25 -35 -25 -47 0 -56 61 -93 106 -63 37 24 48
52 33 86 -22 54 -74 65 -114 24z"/>
<path d="M7675 1165 c-40 -39 -28 -93 26 -113 74 -28 130 78 66 123 -31 22
-65 18 -92 -10z"/>
<path d="M10600 1100 c-26 -26 -26 -81 -2 -103 28 -25 87 -22 106 5 51 73 -42
160 -104 98z"/>
<path d="M7071 1044 c-12 -15 -21 -34 -21 -44 0 -34 39 -70 75 -70 36 0 75 36
75 70 0 34 -39 70 -75 70 -24 0 -39 -7 -54 -26z"/>
<path d="M10210 1020 c-43 -43 -11 -120 50 -120 38 0 70 32 70 70 0 38 -32 70
-70 70 -17 0 -39 -9 -50 -20z"/>
<path d="M9795 955 c-14 -13 -25 -36 -25 -50 0 -28 40 -75 64 -75 76 0 106 91
44 134 -32 22 -55 20 -83 -9z"/>
<path d="M6465 945 c-40 -39 -29 -97 22 -116 62 -23 119 40 89 99 -25 49 -72
56 -111 17z"/>
<path d="M9387 852 c-23 -25 -21 -78 3 -102 43 -43 120 -11 120 50 0 17 -9 39
-20 50 -26 26 -81 26 -103 2z"/>
<path d="M5770 840 c-26 -26 -25 -60 1 -94 25 -31 66 -35 100 -8 28 23 30 73
4 102 -24 26 -79 26 -105 0z"/>
<path d="M8966 789 c-19 -15 -26 -30 -26 -54 0 -36 36 -75 70 -75 34 0 70 39
70 75 0 36 -36 75 -70 75 -10 0 -29 -9 -44 -21z"/>
<path d="M5090 743 c-37 -47 -4 -113 56 -113 35 0 74 37 74 70 0 10 -9 29 -21
44 -29 36 -80 36 -109 -1z"/>
<path d="M8585 695 c-34 -33 -33 -77 1 -104 15 -12 34 -21 44 -21 34 0 70 39
70 75 0 24 -7 39 -26 54 -35 27 -59 26 -89 -4z"/>
<path d="M4392 657 c-44 -47 -13 -117 52 -117 41 0 69 29 69 72 0 61 -78 91
-121 45z"/>
<path d="M8189 658 c-38 -13 -57 -62 -38 -97 32 -56 112 -49 133 12 18 51 -41
103 -95 85z"/>
<path d="M3545 580 c-42 -47 -8 -120 55 -120 33 0 70 40 70 74 0 57 -86 89
-125 46z"/>
<path d="M7748 575 c-53 -29 -42 -116 16 -131 84 -21 131 92 56 131 -35 18
-38 18 -72 0z"/>
<path d="M2782 534 c-28 -20 -31 -83 -4 -107 44 -40 122 -7 122 51 0 59 -67
92 -118 56z"/>
<path d="M7341 494 c-12 -15 -21 -34 -21 -44 0 -10 9 -29 21 -44 28 -36 80
-36 108 0 27 35 26 59 -4 89 -33 34 -77 33 -104 -1z"/>
<path d="M1995 490 c-42 -46 -8 -120 54 -120 34 0 71 37 71 71 0 60 -85 93
-125 49z"/>
<path d="M355 475 c-39 -38 -32 -86 17 -111 24 -12 33 -13 55 -2 38 18 54 53
41 89 -18 53 -73 65 -113 24z"/>
<path d="M1240 480 c-26 -26 -26 -81 0 -105 29 -26 79 -24 102 4 27 34 23 75
-8 100 -34 26 -68 27 -94 1z"/>
<path d="M6937 438 c-37 -33 -40 -75 -7 -108 27 -27 66 -25 95 5 29 28 32 65
8 93 -28 33 -66 37 -96 10z"/>
<path d="M8970 420 c-61 -61 27 -154 98 -104 28 20 31 83 4 107 -25 23 -78 21
-102 -3z"/>
<path d="M6526 385 c-59 -59 10 -155 83 -114 62 35 41 121 -31 127 -23 2 -41
-3 -52 -13z"/>
<path d="M6131 324 c-27 -35 -27 -65 2 -92 48 -45 120 -16 120 48 0 67 -81 96
-122 44z"/>
<path d="M5734 278 c-69 -33 -37 -138 42 -138 24 0 64 47 64 75 0 30 -41 75
-67 74 -10 0 -28 -5 -39 -11z"/>
<path d="M5300 240 c-24 -24 -26 -67 -4 -98 11 -16 25 -22 54 -22 29 0 43 6
54 22 36 51 5 118 -54 118 -17 0 -39 -9 -50 -20z"/>
<path d="M10380 240 c-26 -26 -26 -81 -2 -103 44 -40 122 -7 122 51 0 60 -78
94 -120 52z"/>
<path d="M9711 194 c-12 -15 -21 -34 -21 -44 0 -34 39 -70 75 -70 36 0 75 36
75 70 0 10 -9 29 -21 44 -28 36 -80 36 -108 0z"/>
<path d="M11001 194 c-27 -35 -27 -65 2 -92 48 -45 120 -16 120 48 0 67 -81
96 -122 44z"/>
<path d="M4885 185 c-43 -42 -23 -106 37 -121 22 -5 34 0 59 25 25 25 30 37
25 59 -15 60 -79 80 -121 37z"/>
<path d="M8156 189 c-46 -36 -26 -110 34 -124 64 -15 108 78 58 125 -28 26
-58 26 -92 -1z"/>
</g>
</svg>
