<?xml version="1.0" standalone="no"?>
<!DOCTYPE svg PUBLIC "-//W3C//DTD SVG 20010904//EN"
 "http://www.w3.org/TR/2001/REC-SVG-20010904/DTD/svg10.dtd">
<svg version="1.0" xmlns="http://www.w3.org/2000/svg"
 width="1125.000000pt" height="900.000000pt" viewBox="0 0 1125.000000 900.000000"
 preserveAspectRatio="xMidYMid meet">
<metadata>
Created by potrace 1.13, written by Peter Selinger 2001-2015
</metadata>
<g transform="translate(0.000000,900.000000) scale(0.100000,-0.100000)"
fill="#000000" stroke="none">
<path d="M0 4500 l0 -4500 5625 0 5625 0 0 4500 0 4500 -5625 0 -5625 0 0
-4500z m11205 3935 l0 -520 -527 -3 -528 -2 0 -30 0 -30 528 -2 527 -3 3 -567
2 -568 -562 -2 -563 -3 0 -30 0 -30 563 -3 562 -2 -2 -278 -3 -277 -197 -3
-198 -2 0 -30 0 -30 198 -2 197 -3 0 -265 0 -265 -377 -3 -378 -2 0 160 0 160
-30 0 -30 0 0 -160 0 -160 -105 0 -105 0 0 -30 0 -30 513 -2 512 -3 0 -300 0
-300 -47 -3 c-46 -3 -48 -5 -48 -32 0 -27 2 -29 48 -32 l47 -3 0 -275 0 -275
-255 0 -255 0 -3 163 -3 163 -27 -3 -27 -3 -5 -160 -5 -160 -87 -3 -88 -3 0
-29 0 -30 380 0 380 0 0 -585 0 -585 -430 0 -430 0 0 -35 0 -35 430 0 430 0
-2 -292 -3 -293 -33 -3 c-29 -3 -33 -6 -30 -30 2 -21 10 -28 33 -32 l30 -5 3
-273 2 -272 -512 -2 -513 -3 -3 -32 -3 -33 517 0 517 0 -6 -172 c-4 -95 -7
-219 -7 -275 l0 -103 -110 0 -110 0 0 -35 0 -35 115 0 115 0 -2 -257 -3 -258
-412 -3 -413 -2 0 -30 0 -30 413 -2 412 -3 0 -185 0 -185 -660 0 -660 0 -3 58
c-3 56 -4 57 -32 57 -28 0 -29 -1 -32 -57 l-3 -58 -1790 0 -1790 0 -3 58 c-3
56 -4 57 -32 57 -28 0 -29 -1 -32 -57 l-3 -58 -1860 0 -1860 0 -3 58 c-3 56
-4 57 -32 57 -28 0 -29 -1 -32 -57 l-3 -58 -1165 0 -1165 0 0 185 0 185 248 3
247 2 0 30 0 30 -247 2 -248 3 -3 257 -2 258 550 0 550 0 0 35 0 35 -520 0
-520 0 0 159 0 160 -27 3 -28 3 -3 112 -3 112 153 3 153 3 0 30 0 30 -153 3
-152 3 2 272 3 272 633 3 632 2 0 30 0 30 -520 0 -520 0 0 165 0 165 -30 0
-30 0 -2 -162 -3 -163 -80 0 -80 0 -3 292 -2 293 232 2 233 3 3 32 3 33 -235
0 -236 0 0 585 0 585 285 0 285 0 0 30 0 30 -282 2 -283 3 0 275 0 275 613 3
612 2 0 30 0 30 -612 2 -613 3 0 300 0 300 153 3 153 3 -3 27 -3 27 -150 5
-150 5 0 265 0 265 468 3 467 2 0 30 0 30 -467 2 -468 3 -3 277 -2 277 102 3
103 3 0 30 0 30 -103 3 -102 3 2 567 3 567 133 3 132 3 0 29 0 29 -132 3 -133
3 -3 510 c-1 281 0 516 3 523 3 10 1125 12 5582 10 l5578 -3 0 -520z"/>
<path d="M2380 8690 l0 -159 -137 -3 -138 -3 -3 -27 -3 -28 665 0 666 0 0 30
0 30 -490 0 -490 0 0 160 0 160 -35 0 -35 0 0 -160z"/>
<path d="M6095 8690 l-8 -160 -133 0 -134 0 0 -30 0 -30 666 0 665 0 -3 28 -3
27 -492 3 -493 2 0 160 0 160 -29 0 -29 0 -7 -160z"/>
<path d="M9770 8690 l0 -160 -110 0 -110 0 0 -30 0 -30 665 0 665 0 0 30 0 30
-525 0 -525 0 0 160 0 160 -30 0 -30 0 0 -160z"/>
<path d="M250 8500 l0 -30 660 0 660 0 0 30 0 30 -660 0 -660 0 0 -30z"/>
<path d="M3960 8500 l0 -30 665 0 665 0 0 30 0 30 -665 0 -665 0 0 -30z"/>
<path d="M7697 8523 c-4 -3 -7 -17 -7 -30 l0 -23 665 0 665 0 0 30 0 30 -658
0 c-362 0 -662 -3 -665 -7z"/>
<path d="M1100 8172 c0 -27 -3 -97 -7 -155 l-6 -107 -124 0 -123 0 0 -30 0
-30 665 0 665 0 0 30 0 30 -505 0 -505 0 0 155 0 155 -30 0 c-29 0 -30 -1 -30
-48z"/>
<path d="M4800 8065 l0 -155 -120 0 -120 0 0 -30 0 -30 666 0 665 0 -3 28 -3
27 -512 3 -513 2 0 155 0 155 -30 0 -30 0 0 -155z"/>
<path d="M8540 8065 l0 -155 -125 0 -125 0 0 -30 0 -30 665 0 665 0 0 30 0 30
-510 0 -510 0 0 155 0 155 -30 0 -30 0 0 -155z"/>
<path d="M2700 7880 l0 -30 665 0 665 0 0 30 0 30 -665 0 -665 0 0 -30z"/>
<path d="M6420 7880 l0 -30 665 0 665 0 0 30 0 30 -665 0 -665 0 0 -30z"/>
<path d="M338 7493 l-3 -168 -127 -3 -128 -3 0 -29 0 -30 665 0 665 0 0 30 0
30 -502 2 -503 3 -3 168 -2 167 -30 0 -30 0 -2 -167z"/>
<path d="M4038 7493 l-3 -168 -117 -3 -118 -3 0 -29 0 -30 660 0 660 0 0 30 0
30 -507 2 -508 3 -3 168 -2 167 -30 0 -30 0 -2 -167z"/>
<path d="M7760 7490 l0 -170 -115 0 -115 0 0 -30 0 -30 663 2 662 3 3 27 3 28
-518 2 -518 3 -3 168 -2 167 -30 0 -30 0 0 -170z"/>
<path d="M1940 7290 l0 -30 660 0 660 0 0 30 0 30 -660 0 -660 0 0 -30z"/>
<path d="M5650 7290 l0 -30 665 0 665 0 0 30 0 30 -665 0 -665 0 0 -30z"/>
<path d="M9390 7290 l0 -30 660 0 660 0 0 30 0 30 -660 0 -660 0 0 -30z"/>
<path d="M1010 6865 l0 -155 -115 0 -115 0 0 -35 0 -35 660 0 660 0 0 35 0 35
-515 0 -515 0 0 155 0 155 -30 0 -30 0 0 -155z"/>
<path d="M4710 6865 l0 -154 -107 -3 -108 -3 -3 -32 -3 -33 666 0 666 0 -3 33
-3 32 -522 3 -523 2 0 155 0 155 -30 0 -30 0 0 -155z"/>
<path d="M8410 6865 l0 -155 -90 0 -90 0 0 -35 0 -35 660 0 660 0 0 35 0 35
-537 0 -538 0 3 155 3 155 -36 0 -35 0 0 -155z"/>
<path d="M2634 6696 c-3 -8 -4 -23 -2 -33 3 -17 36 -18 666 -21 l662 -2 0 35
0 35 -660 0 c-566 0 -661 -2 -666 -14z"/>
<path d="M6350 6675 l0 -35 668 2 667 3 0 30 0 30 -667 3 -668 2 0 -35z"/>
<path d="M1750 6245 l0 -165 -120 0 -120 0 0 -30 0 -30 660 0 660 0 0 30 0 30
-510 0 -510 0 0 165 0 165 -30 0 -30 0 0 -165z"/>
<path d="M5450 6245 l0 -165 -115 0 -115 0 0 -30 0 -30 665 0 665 0 0 30 0 30
-520 0 -520 0 0 165 0 165 -30 0 -30 0 0 -165z"/>
<path d="M9188 6248 l-3 -163 -115 -5 -115 -5 -3 -27 -3 -28 665 0 666 0 0 30
0 30 -515 0 -515 0 0 165 0 165 -30 0 -30 0 -2 -162z"/>
<path d="M3367 6073 c-4 -3 -7 -17 -7 -30 l0 -23 665 0 665 0 0 30 0 30 -658
0 c-362 0 -662 -3 -665 -7z"/>
<path d="M7080 6050 l0 -30 670 0 670 0 0 30 0 30 -670 0 -670 0 0 -30z"/>
<path d="M2968 5643 l-3 -158 -117 -3 -118 -3 0 -29 0 -30 665 0 665 0 0 30 0
30 -515 0 -514 0 -3 158 -3 157 -27 3 -27 3 -3 -158z"/>
<path d="M6670 5640 l0 -160 -110 0 -110 0 0 -30 0 -30 670 0 670 0 0 30 0 30
-530 0 -530 0 0 160 0 160 -30 0 -30 0 0 -160z"/>
<path d="M880 5450 l0 -30 660 0 660 0 0 30 0 30 -660 0 -660 0 0 -30z"/>
<path d="M4590 5450 l0 -30 665 0 665 0 0 30 0 30 -665 0 -665 0 0 -30z"/>
<path d="M8327 5473 c-4 -3 -7 -17 -7 -30 l0 -23 665 0 665 0 0 30 0 30 -658
0 c-362 0 -662 -3 -665 -7z"/>
<path d="M2030 4975 l0 -165 -110 0 -110 0 0 -30 0 -30 660 0 660 0 0 30 0 30
-517 2 -518 3 4 163 3 162 -36 0 -36 0 0 -165z"/>
<path d="M5720 4975 l0 -165 -100 0 -100 0 0 -30 0 -30 665 0 665 0 0 30 0 30
-532 2 -533 3 1 163 1 162 -34 0 -33 0 0 -165z"/>
<path d="M9490 5043 c0 -54 -3 -128 -7 -165 l-6 -68 -113 0 -114 0 0 -30 0
-30 665 0 665 0 0 30 0 30 -515 0 -515 0 0 165 0 165 -30 0 -30 0 0 -97z"/>
<path d="M3660 4780 l0 -30 665 0 665 0 0 30 0 30 -665 0 -665 0 0 -30z"/>
<path d="M7400 4780 l0 -30 660 0 660 0 0 30 0 30 -660 0 -660 0 0 -30z"/>
<path d="M3227 4513 c-4 -3 -7 -78 -7 -165 l0 -158 -110 0 -110 0 0 -30 0 -30
663 2 662 3 3 27 3 28 -523 2 -523 3 1 155 c1 105 -2 157 -10 162 -14 10 -41
10 -49 1z"/>
<path d="M6965 4508 c-3 -7 -6 -80 -7 -163 l-3 -150 -123 -3 -123 -3 3 -27 3
-27 668 -3 667 -2 0 30 0 30 -512 2 -513 3 -5 160 c-5 157 -5 160 -28 163 -12
2 -24 -3 -27 -10z"/>
<path d="M1140 4160 l0 -30 665 0 665 0 0 30 0 30 -665 0 -665 0 0 -30z"/>
<path d="M4860 4160 l0 -30 660 0 660 0 0 30 0 30 -660 0 -660 0 0 -30z"/>
<path d="M8590 4160 l0 -30 665 0 665 0 0 30 0 30 -665 0 -665 0 0 -30z"/>
<path d="M460 3705 l0 -165 -125 0 -125 0 0 -30 0 -30 665 0 665 0 0 30 0 30
-510 0 -510 0 0 165 0 165 -30 0 -30 0 0 -165z"/>
<path d="M4170 3706 l0 -166 -120 0 -120 0 0 -30 0 -30 663 2 662 3 3 27 3 28
-513 2 -513 3 0 160 0 160 -32 3 -33 3 0 -165z"/>
<path d="M7908 3708 l-3 -163 -122 -3 -123 -3 0 -29 0 -30 665 0 665 0 0 30 0
30 -510 0 -510 0 0 165 0 165 -30 0 -30 0 -2 -162z"/>
<path d="M2070 3510 l0 -30 665 0 665 0 0 30 0 30 -665 0 -665 0 0 -30z"/>
<path d="M5790 3510 l0 -30 660 0 660 0 0 30 0 30 -660 0 -660 0 0 -30z"/>
<path d="M9520 3510 l0 -30 665 0 665 0 0 30 0 30 -665 0 -665 0 0 -30z"/>
<path d="M1307 3273 c-4 -3 -7 -75 -7 -160 l0 -153 -131 0 -130 0 3 -32 3 -33
660 0 660 0 3 33 3 32 -500 0 -501 0 0 160 0 160 -28 0 c-16 0 -32 -3 -35 -7z"/>
<path d="M4980 3120 l0 -160 -110 0 -110 0 0 -35 0 -35 660 0 660 0 0 35 0 35
-520 0 -520 0 0 160 0 160 -30 0 -30 0 0 -160z"/>
<path d="M8740 3120 l0 -160 -126 0 -125 0 3 -32 3 -33 660 0 660 0 3 33 3 32
-505 0 -506 0 0 160 0 160 -35 0 -35 0 0 -160z"/>
<path d="M2902 2928 l3 -33 660 0 660 0 0 30 0 30 -663 3 -663 2 3 -32z"/>
<path d="M6620 2925 l0 -35 665 0 665 0 0 35 0 35 -665 0 -665 0 0 -35z"/>
<path d="M3936 2608 c-3 -13 -6 -87 -6 -165 l0 -143 -115 0 -115 0 0 -30 0
-30 660 0 660 0 0 30 0 30 -510 0 -510 0 0 165 0 165 -29 0 c-21 0 -30 -6 -35
-22z"/>
<path d="M7656 2614 c-3 -9 -6 -83 -6 -165 l0 -149 -110 0 -110 0 0 -30 0 -30
663 2 662 3 3 28 3 27 -520 0 -521 0 0 165 0 165 -29 0 c-17 0 -31 -6 -35 -16z"/>
<path d="M1840 2270 l0 -30 663 2 662 3 3 28 3 27 -665 0 -666 0 0 -30z"/>
<path d="M5550 2270 l0 -30 665 0 665 0 0 30 0 30 -665 0 -665 0 0 -30z"/>
<path d="M9290 2270 l0 -30 660 0 660 0 0 30 0 30 -660 0 -660 0 0 -30z"/>
<path d="M1150 1860 l0 -170 -135 0 -135 0 0 -35 0 -35 660 0 660 0 0 35 0 35
-497 0 -496 0 7 170 7 170 -36 0 -35 0 0 -170z"/>
<path d="M4840 1860 l0 -169 -122 -3 -123 -3 -3 -32 -3 -33 666 0 666 0 -3 33
-3 32 -507 3 -508 2 0 170 0 170 -30 0 -30 0 0 -170z"/>
<path d="M8600 1860 l0 -169 -137 -3 -138 -3 0 -30 0 -30 663 -3 662 -2 0 35
0 35 -495 0 -495 0 0 170 0 170 -30 0 -30 0 0 -170z"/>
<path d="M2734 1676 c-3 -8 -4 -23 -2 -33 3 -17 36 -18 666 -21 l663 -2 -3 32
-3 33 -658 3 c-567 2 -658 0 -663 -12z"/>
<path d="M6457 1683 c-4 -3 -7 -19 -7 -35 l0 -28 671 0 670 0 -3 33 -3 32
-661 3 c-363 1 -664 -1 -667 -5z"/>
<path d="M3750 1231 l0 -161 -110 0 -110 0 0 -35 0 -35 663 2 662 3 0 30 0 30
-524 3 -523 2 3 158 4 157 -32 3 -33 3 0 -160z"/>
<path d="M7580 1230 l0 -160 -165 0 -165 0 0 -35 0 -35 670 0 670 0 0 35 0 35
-475 0 -475 0 0 160 0 160 -30 0 -30 0 0 -160z"/>
<path d="M1674 1056 c-3 -8 -4 -23 -2 -33 3 -17 36 -18 666 -21 l662 -2 0 35
0 35 -660 0 c-566 0 -661 -2 -666 -14z"/>
<path d="M5390 1035 l0 -35 660 0 660 0 0 35 0 35 -660 0 -660 0 0 -35z"/>
<path d="M9120 1035 l0 -35 663 2 662 3 0 30 0 30 -662 3 -663 2 0 -35z"/>
<path d="M1318 653 l-3 -168 -117 -3 -118 -3 0 -29 0 -30 660 0 660 0 0 30 0
30 -510 0 -510 0 0 170 0 170 -30 0 -30 0 -2 -167z"/>
<path d="M5040 650 l0 -170 -125 0 -125 0 0 -30 0 -30 665 0 665 0 0 30 0 30
-507 2 -508 3 -3 168 -2 167 -30 0 -30 0 0 -170z"/>
<path d="M8735 650 l-8 -170 -103 0 -104 0 0 -30 0 -30 665 0 665 0 0 30 0 30
-525 0 -525 0 0 170 0 170 -29 0 -29 0 -7 -170z"/>
<path d="M2930 450 l0 -30 665 0 665 0 0 30 0 30 -665 0 -665 0 0 -30z"/>
<path d="M6650 450 l0 -30 668 2 667 3 3 28 3 27 -670 0 -671 0 0 -30z"/>
</g>
</svg>
