<?xml version="1.0" standalone="no"?>
<!DOCTYPE svg PUBLIC "-//W3C//DTD SVG 20010904//EN"
 "http://www.w3.org/TR/2001/REC-SVG-20010904/DTD/svg10.dtd">
<svg version="1.0" xmlns="http://www.w3.org/2000/svg"
 width="1125.000000pt" height="900.000000pt" viewBox="0 0 1125.000000 900.000000"
 preserveAspectRatio="xMidYMid meet">
<metadata>
Created by potrace 1.13, written by Peter Selinger 2001-2015
</metadata>
<g transform="translate(0.000000,900.000000) scale(0.100000,-0.100000)"
fill="#000000" stroke="none">
<path d="M0 4500 l0 -4500 5625 0 5625 0 0 4500 0 4500 -5625 0 -5625 0 0
-4500z m1630 4451 c0 -5 -7 -14 -15 -21 -22 -18 -19 -73 5 -95 46 -41 120 -10
120 50 0 18 -7 38 -15 45 -8 7 -15 16 -15 21 0 5 513 8 1202 7 l1202 -3 2 -35
c5 -98 144 -87 144 11 l0 29 1078 -4 c592 -2 1093 -5 1112 -5 19 0 154 2 299
5 251 5 263 4 256 -13 -19 -44 -17 -74 6 -99 45 -48 119 -17 119 51 0 19 -4
37 -10 40 -5 3 -10 10 -10 16 0 6 769 8 2048 7 l2047 -3 2 -520 2 -520 -30
-27 c-41 -38 -41 -89 1 -120 l30 -22 0 -653 0 -653 -27 -11 c-42 -16 -63 -39
-63 -68 0 -37 25 -68 60 -76 l30 -7 0 -1600 c0 -1514 -1 -1600 -18 -1592 -32
14 -75 7 -94 -16 -25 -31 -22 -66 8 -97 22 -22 31 -24 65 -19 l39 6 0 -320 0
-320 -34 0 c-37 0 -76 -36 -76 -70 0 -34 39 -70 76 -70 l34 0 -2 -172 -3 -173
-37 3 c-45 4 -78 -24 -78 -68 0 -43 31 -70 80 -70 l40 0 -2 -312 -3 -313 -26
-3 c-36 -4 -62 -35 -61 -73 1 -38 16 -57 56 -67 l31 -8 3 -280 2 -281 -25 -11
c-55 -25 -58 -100 -4 -130 29 -17 29 -17 27 -97 l-3 -80 -3255 1 c-1790 1
-3274 2 -3297 2 -24 0 -586 -1 -1250 -1 -665 0 -1228 0 -1253 0 -25 0 -508 0
-1075 -1 l-1030 -1 0 2079 0 2078 110 40 c185 65 325 118 438 166 105 43 108
46 102 71 -4 14 -8 28 -10 30 -2 2 -55 -18 -116 -44 -152 -64 -512 -194 -521
-188 -12 7 -10 533 2 533 6 0 10 -4 10 -9 0 -5 13 -14 29 -21 24 -9 34 -9 59
4 49 25 56 72 17 111 -30 30 -64 32 -99 4 l-26 -20 0 218 0 219 30 22 c41 31
41 74 0 112 l-30 28 0 1022 0 1021 145 -7 145 -7 0 30 0 31 -142 8 -143 9 -3
675 c-1 371 0 681 3 688 3 9 172 12 795 12 446 0 790 -4 790 -9z"/>
<path d="M7613 8878 c-35 -17 -48 -60 -29 -96 35 -68 136 -41 136 36 0 47 -63
82 -107 60z"/>
<path d="M190 8850 c-61 -61 27 -154 98 -104 28 20 31 83 4 107 -25 23 -78 21
-102 -3z"/>
<path d="M4663 8850 c-48 -19 -58 -87 -17 -119 34 -27 64 -27 92 -1 57 53 -3
149 -75 120z"/>
<path d="M8240 8832 c-51 -16 -68 -84 -30 -122 60 -60 154 26 105 97 -15 21
-50 33 -75 25z"/>
<path d="M8850 8793 c-55 -20 -68 -87 -24 -122 35 -27 65 -27 92 2 27 28 29
78 5 99 -22 19 -53 28 -73 21z"/>
<path d="M9500 8750 c-47 -47 -15 -124 52 -122 63 2 89 71 43 117 -29 30 -68
32 -95 5z"/>
<path d="M10076 8739 c-19 -15 -26 -30 -26 -54 0 -36 36 -75 70 -75 34 0 70
39 70 75 0 36 -36 75 -70 75 -10 0 -29 -9 -44 -21z"/>
<path d="M10671 8734 c-27 -34 -27 -64 -1 -92 47 -50 140 -6 125 58 -14 60
-88 80 -124 34z"/>
<path d="M2276 8708 c-36 -51 -5 -118 54 -118 59 0 90 67 54 118 -11 16 -25
22 -54 22 -29 0 -43 -6 -54 -22z"/>
<path d="M5067 8713 c-4 -3 -7 -16 -7 -29 0 -20 10 -25 108 -47 332 -78 927
-177 1058 -177 31 0 34 3 34 29 0 28 -1 29 -72 35 -220 21 -738 109 -976 166
-137 33 -136 33 -145 23z"/>
<path d="M570 8670 c-26 -26 -26 -81 -2 -103 28 -25 87 -22 106 5 36 51 5 118
-54 118 -17 0 -39 -9 -50 -20z"/>
<path d="M970 8510 c-27 -27 -25 -66 5 -95 29 -30 64 -32 96 -7 28 23 30 73 4
102 -24 26 -79 26 -105 0z"/>
<path d="M2928 8500 c-24 -25 -29 -36 -24 -58 15 -60 79 -80 121 -37 39 38 32
86 -16 110 -39 21 -46 19 -81 -15z"/>
<path d="M6709 8472 c-28 -23 -30 -73 -4 -102 25 -27 78 -27 105 2 26 28 26
58 -1 92 -25 31 -66 35 -100 8z"/>
<path d="M1375 8380 c-42 -47 -8 -120 55 -120 33 0 70 40 70 76 0 57 -86 87
-125 44z"/>
<path d="M7360 8373 c-37 -47 -2 -113 60 -113 33 0 70 40 70 74 0 63 -90 89
-130 39z"/>
<path d="M7940 8330 c-11 -11 -20 -33 -20 -50 0 -17 9 -39 20 -50 11 -11 33
-20 50 -20 17 0 39 9 50 20 11 11 20 33 20 50 0 17 -9 39 -20 50 -11 11 -33
20 -50 20 -17 0 -39 -9 -50 -20z"/>
<path d="M3640 8327 c-14 -7 -31 -24 -39 -38 -12 -22 -12 -29 0 -54 27 -57
105 -57 131 0 26 57 -37 119 -92 92z"/>
<path d="M8533 8325 c-49 -21 -59 -77 -20 -113 48 -45 117 -14 117 51 0 54
-46 83 -97 62z"/>
<path d="M10186 8299 c-19 -15 -26 -30 -26 -54 0 -36 36 -75 70 -75 34 0 70
39 70 75 0 36 -36 75 -70 75 -10 0 -29 -9 -44 -21z"/>
<path d="M9070 8280 c-26 -26 -26 -81 -2 -103 44 -40 122 -7 122 51 0 60 -78
94 -120 52z"/>
<path d="M9625 8275 c-48 -47 -19 -115 49 -115 68 0 96 79 44 123 -28 24 -65
21 -93 -8z"/>
<path d="M10665 8275 c-28 -27 -30 -42 -14 -79 32 -69 139 -38 139 40 0 24
-47 64 -75 64 -14 0 -37 -11 -50 -25z"/>
<path d="M1765 8250 c-25 -27 -22 -80 6 -102 68 -56 161 40 99 102 -26 26 -81
26 -105 0z"/>
<path d="M406 8189 c-52 -41 -23 -122 44 -122 67 0 96 81 44 122 -15 12 -34
21 -44 21 -10 0 -29 -9 -44 -21z"/>
<path d="M4337 8180 c-50 -40 -25 -130 37 -130 36 0 76 37 76 70 0 62 -66 97
-113 60z"/>
<path d="M2166 8139 c-26 -20 -36 -69 -18 -95 10 -15 47 -34 67 -34 25 0 65
46 65 75 0 30 -41 75 -68 75 -11 0 -31 -9 -46 -21z"/>
<path d="M931 8114 c-12 -15 -21 -34 -21 -44 0 -32 39 -70 71 -70 34 0 79 39
79 68 0 35 -38 72 -75 72 -24 0 -39 -7 -54 -26z"/>
<path d="M1513 8102 c-51 -8 -70 -83 -30 -120 48 -45 117 -14 117 51 0 48 -38
77 -87 69z"/>
<path d="M5160 8047 c-52 -26 -49 -104 5 -129 58 -26 119 33 95 91 -6 16 -23
33 -36 40 -31 14 -33 14 -64 -2z"/>
<path d="M2571 8024 c-12 -15 -21 -34 -21 -44 0 -34 39 -70 75 -70 36 0 75 36
75 70 0 34 -39 70 -75 70 -24 0 -39 -7 -54 -26z"/>
<path d="M5980 7950 c-46 -46 -18 -120 47 -120 66 0 97 74 50 118 -29 27 -71
28 -97 2z"/>
<path d="M2961 7934 c-12 -15 -21 -34 -21 -44 0 -34 39 -70 75 -70 36 0 75 36
75 70 0 34 -39 70 -75 70 -24 0 -39 -7 -54 -26z"/>
<path d="M3382 7847 c-45 -48 -14 -117 51 -117 42 0 67 26 67 68 0 65 -74 96
-118 49z"/>
<path d="M6751 7834 c-12 -15 -21 -34 -21 -44 0 -34 39 -70 75 -70 36 0 75 36
75 70 0 34 -39 70 -75 70 -24 0 -39 -7 -54 -26z"/>
<path d="M10670 7827 c-70 -35 -48 -137 30 -137 28 0 70 44 70 73 0 51 -55 86
-100 64z"/>
<path d="M3788 7794 c-73 -39 -24 -150 57 -130 29 7 56 56 48 87 -12 43 -65
65 -105 43z"/>
<path d="M7436 7789 c-50 -39 -22 -122 42 -122 43 0 72 28 72 70 0 65 -61 93
-114 52z"/>
<path d="M10183 7788 c-68 -33 -40 -138 37 -138 28 0 70 44 70 73 0 51 -61 88
-107 65z"/>
<path d="M8095 7745 c-30 -30 -31 -54 -4 -89 20 -26 69 -36 95 -18 15 10 34
47 34 67 0 25 -46 65 -75 65 -14 0 -37 -11 -50 -25z"/>
<path d="M9685 7735 c-14 -13 -25 -34 -25 -45 0 -78 101 -106 136 -38 26 51
-12 108 -72 108 -8 0 -26 -11 -39 -25z"/>
<path d="M8667 7722 c-40 -44 -7 -122 51 -122 60 0 94 78 52 120 -26 26 -81
26 -103 2z"/>
<path d="M9187 7722 c-23 -25 -21 -78 3 -102 61 -61 154 27 104 98 -20 28 -83
31 -107 4z"/>
<path d="M2253 7718 c-12 -6 -27 -23 -33 -38 -24 -58 44 -120 99 -90 46 24 53
78 16 115 -26 27 -47 30 -82 13z"/>
<path d="M4193 7718 c-12 -6 -27 -23 -33 -38 -24 -58 44 -120 99 -90 46 24 53
78 16 115 -26 27 -47 30 -82 13z"/>
<path d="M1763 7670 c-46 -19 -57 -83 -20 -118 48 -45 117 -14 117 51 0 51
-50 86 -97 67z"/>
<path d="M4592 7637 c-28 -30 -28 -68 1 -95 48 -46 120 -16 120 50 0 61 -78
91 -121 45z"/>
<path d="M715 7625 c-28 -27 -32 -61 -10 -92 49 -70 160 0 120 76 -24 48 -72
55 -110 16z"/>
<path d="M1235 7625 c-43 -42 -23 -106 37 -121 22 -5 34 0 59 25 25 25 30 37
25 59 -15 60 -79 80 -121 37z"/>
<path d="M5040 7633 c-55 -20 -68 -87 -24 -122 15 -12 34 -21 44 -21 33 0 70
39 70 74 0 46 -49 84 -90 69z"/>
<path d="M5443 7588 c-35 -17 -48 -60 -29 -96 35 -68 136 -41 136 36 0 47 -63
82 -107 60z"/>
<path d="M5860 7543 c-53 -19 -68 -86 -28 -123 46 -43 118 -10 118 54 0 46
-49 84 -90 69z"/>
<path d="M11052 7535 c-59 -25 -51 -107 11 -130 62 -21 118 52 80 103 -26 34
-53 42 -91 27z"/>
<path d="M10129 7512 c-28 -23 -30 -73 -4 -102 25 -27 78 -27 105 2 26 28 26
58 -1 92 -25 31 -66 35 -100 8z"/>
<path d="M10591 7504 c-12 -15 -21 -34 -21 -44 0 -34 39 -70 75 -70 36 0 75
36 75 70 0 34 -39 70 -75 70 -24 0 -39 -7 -54 -26z"/>
<path d="M6235 7495 c-58 -57 1 -146 76 -115 35 15 53 57 40 93 -19 51 -77 62
-116 22z"/>
<path d="M6652 7457 c-43 -46 -15 -120 46 -120 43 0 72 28 72 69 0 66 -74 98
-118 51z"/>
<path d="M9215 7455 c-28 -27 -30 -42 -14 -79 32 -69 139 -38 139 40 0 24 -47
64 -75 64 -14 0 -37 -11 -50 -25z"/>
<path d="M9660 7460 c-26 -26 -26 -81 0 -105 29 -26 79 -24 102 4 27 34 23 75
-8 100 -34 26 -68 27 -94 1z"/>
<path d="M3936 7449 c-36 -28 -36 -80 0 -108 15 -12 34 -21 44 -21 10 0 29 9
44 21 34 27 35 71 1 104 -30 30 -54 31 -89 4z"/>
<path d="M7086 7449 c-19 -15 -26 -30 -26 -54 0 -36 36 -75 70 -75 34 0 70 39
70 75 0 36 -36 75 -70 75 -10 0 -29 -9 -44 -21z"/>
<path d="M7906 7449 c-19 -15 -26 -30 -26 -54 0 -36 36 -75 70 -75 34 0 70 39
70 75 0 36 -36 75 -70 75 -10 0 -29 -9 -44 -21z"/>
<path d="M7495 7430 c-42 -47 -8 -120 55 -120 33 0 70 40 70 74 0 57 -86 89
-125 46z"/>
<path d="M8315 7430 c-42 -47 -8 -120 55 -120 33 0 70 40 70 76 0 57 -86 87
-125 44z"/>
<path d="M8756 7428 c-36 -51 -5 -118 54 -118 17 0 39 9 50 20 45 45 11 120
-54 120 -25 0 -39 -7 -50 -22z"/>
<path d="M3460 7340 c-43 -43 -11 -120 50 -120 38 0 70 32 70 70 0 38 -32 70
-70 70 -17 0 -39 -9 -50 -20z"/>
<path d="M2952 7247 c-45 -48 -14 -117 51 -117 43 0 70 29 69 72 -2 63 -77 91
-120 45z"/>
<path d="M10513 7240 c-48 -19 -58 -87 -17 -119 53 -41 114 -13 114 52 0 51
-50 86 -97 67z"/>
<path d="M5990 7197 c-52 -26 -49 -104 4 -128 36 -17 73 -3 92 32 19 38 6 80
-32 98 -31 14 -33 14 -64 -2z"/>
<path d="M2405 7155 c-30 -30 -31 -54 -4 -89 20 -26 69 -36 95 -18 15 10 34
47 34 67 0 25 -46 65 -75 65 -14 0 -37 -11 -50 -25z"/>
<path d="M1746 7069 c-50 -39 -22 -122 42 -122 66 0 98 78 50 123 -28 26 -58
26 -92 -1z"/>
<path d="M8461 7064 c-12 -15 -21 -34 -21 -44 0 -34 39 -70 75 -70 36 0 75 36
75 70 0 34 -39 70 -75 70 -24 0 -39 -7 -54 -26z"/>
<path d="M10100 7040 c-11 -11 -20 -33 -20 -50 0 -17 9 -39 20 -50 11 -11 33
-20 50 -20 17 0 39 9 50 20 11 11 20 33 20 50 0 17 -9 39 -20 50 -11 11 -33
20 -50 20 -17 0 -39 -9 -50 -20z"/>
<path d="M5486 7019 c-19 -15 -26 -30 -26 -54 0 -37 37 -75 72 -75 27 0 68 45
68 75 0 30 -41 75 -68 75 -11 0 -31 -9 -46 -21z"/>
<path d="M1061 6984 c-12 -15 -21 -34 -21 -44 0 -34 39 -70 75 -70 24 0 39 7
54 26 27 35 26 59 -4 89 -33 34 -77 33 -104 -1z"/>
<path d="M11021 6974 c-12 -15 -21 -34 -21 -44 0 -34 39 -70 75 -70 36 0 75
36 75 70 0 34 -39 70 -75 70 -24 0 -39 -7 -54 -26z"/>
<path d="M310 6950 c-26 -26 -26 -74 0 -100 43 -43 120 -11 120 50 0 38 -32
70 -70 70 -17 0 -39 -9 -50 -20z"/>
<path d="M9720 6870 c-26 -26 -25 -60 1 -94 25 -31 66 -35 100 -8 28 23 30 73
4 102 -24 26 -79 26 -105 0z"/>
<path d="M4976 6849 c-36 -28 -36 -80 0 -108 15 -12 34 -21 44 -21 34 0 70 39
70 75 0 36 -36 75 -70 75 -10 0 -29 -9 -44 -21z"/>
<path d="M7830 6837 c-52 -26 -49 -104 5 -129 58 -26 119 33 95 91 -6 16 -23
33 -36 40 -31 14 -33 14 -64 -2z"/>
<path d="M9341 6694 c-12 -15 -21 -35 -21 -46 0 -27 45 -68 75 -68 29 0 75 40
75 65 0 20 -19 57 -34 67 -26 18 -75 8 -95 -18z"/>
<path d="M4579 6705 c-12 -11 -417 -108 -644 -154 -204 -42 -483 -90 -517 -91
-5 0 -8 -13 -8 -30 0 -36 -4 -36 160 -10 322 49 1000 201 1033 230 4 4 5 19 1
34 -6 25 -15 32 -25 21z"/>
<path d="M7157 6633 c-9 -2 -24 -18 -33 -35 -30 -59 27 -122 89 -99 51 19 62
77 22 116 -23 24 -40 28 -78 18z"/>
<path d="M10020 6583 c-51 -19 -68 -85 -30 -123 61 -61 159 33 103 98 -20 23
-50 33 -73 25z"/>
<path d="M8683 6445 c-241 -82 -597 -186 -768 -225 -49 -11 -100 -22 -112 -25
-18 -4 -23 -12 -23 -36 0 -31 1 -31 38 -24 120 21 474 118 742 202 128 40 390
131 398 138 5 5 -18 55 -25 54 -5 -1 -117 -39 -250 -84z"/>
<path d="M10682 6450 c-32 -30 -30 -82 5 -110 70 -55 151 42 88 105 -29 30
-64 32 -93 5z"/>
<path d="M6422 6407 c-45 -48 -16 -120 48 -120 65 0 95 76 47 121 -30 28 -68
28 -95 -1z"/>
<path d="M2940 6390 c-43 -43 -11 -120 50 -120 38 0 70 32 70 70 0 38 -32 70
-70 70 -17 0 -39 -9 -50 -20z"/>
<path d="M2311 6304 c-12 -15 -21 -34 -21 -44 0 -32 39 -70 71 -70 34 0 79 39
79 68 0 35 -38 72 -75 72 -24 0 -39 -7 -54 -26z"/>
<path d="M1715 6295 c-30 -30 -31 -54 -4 -89 15 -19 30 -26 54 -26 37 0 75 37
75 72 0 27 -45 68 -75 68 -14 0 -37 -11 -50 -25z"/>
<path d="M533 6298 c-27 -13 -43 -55 -32 -84 9 -26 47 -54 72 -54 26 0 67 45
67 75 0 30 -41 75 -67 74 -10 0 -28 -5 -40 -11z"/>
<path d="M1162 6284 c-79 -33 -31 -151 53 -130 28 7 57 58 47 85 -16 48 -54
65 -100 45z"/>
<path d="M5604 6238 c-69 -33 -37 -138 42 -138 24 0 64 47 64 75 0 30 -41 75
-67 74 -10 0 -28 -5 -39 -11z"/>
<path d="M7363 6120 c-48 -19 -58 -87 -17 -119 35 -27 65 -27 92 2 54 57 -3
145 -75 117z"/>
<path d="M4786 6099 c-36 -28 -36 -80 0 -108 15 -12 34 -21 44 -21 34 0 70 39
70 75 0 36 -36 75 -70 75 -10 0 -29 -9 -44 -21z"/>
<path d="M8607 6082 c-25 -28 -22 -87 5 -106 71 -50 159 43 98 104 -26 26 -81
26 -103 2z"/>
<path d="M6947 6012 c-40 -44 -7 -122 51 -122 59 0 92 67 56 118 -20 28 -83
31 -107 4z"/>
<path d="M9222 5980 c-48 -45 -16 -123 50 -123 61 0 91 78 45 121 -29 28 -67
28 -95 2z"/>
<path d="M3940 5943 c-37 -47 -2 -113 60 -113 33 0 70 40 70 74 0 63 -90 89
-130 39z"/>
<path d="M6557 5922 c-40 -45 -6 -122 53 -122 17 0 39 9 50 20 45 45 11 120
-53 120 -20 0 -41 -8 -50 -18z"/>
<path d="M9823 5888 c-51 -24 -50 -106 1 -129 83 -38 147 84 66 126 -33 17
-37 17 -67 3z"/>
<path d="M3031 5854 c-12 -15 -21 -34 -21 -44 0 -34 39 -70 75 -70 36 0 75 36
75 70 0 34 -39 70 -75 70 -24 0 -39 -7 -54 -26z"/>
<path d="M6179 5858 c-16 -5 -32 -22 -39 -39 -35 -84 84 -137 129 -58 31 55
-28 118 -90 97z"/>
<path d="M557 5840 c-19 -15 -27 -30 -27 -53 0 -38 7 -50 37 -66 33 -17 51
-14 78 14 63 63 -18 160 -88 105z"/>
<path d="M2211 5814 c-12 -15 -21 -34 -21 -44 0 -34 39 -70 75 -70 36 0 75 36
75 70 0 34 -39 70 -75 70 -24 0 -39 -7 -54 -26z"/>
<path d="M1330 5810 c-26 -26 -26 -81 -2 -103 28 -25 87 -22 106 5 50 71 -43
159 -104 98z"/>
<path d="M10445 5805 c-30 -29 -32 -64 -5 -93 30 -32 82 -30 110 5 55 70 -42
151 -105 88z"/>
<path d="M11042 5774 c-28 -20 -31 -83 -4 -107 25 -23 78 -21 102 3 61 61 -27
154 -98 104z"/>
<path d="M5737 5752 c-40 -44 -7 -122 51 -122 60 0 94 78 52 120 -26 26 -81
26 -103 2z"/>
<path d="M5343 5690 c-25 -10 -43 -39 -43 -70 0 -29 44 -70 75 -70 62 0 89 89
39 129 -29 23 -38 24 -71 11z"/>
<path d="M7121 5634 c-27 -34 -27 -64 -1 -92 45 -48 123 -16 123 50 0 64 -83
92 -122 42z"/>
<path d="M4917 5622 c-40 -44 -7 -122 51 -122 60 0 94 78 52 120 -26 26 -81
26 -103 2z"/>
<path d="M4505 5555 c-63 -63 18 -160 88 -105 35 28 37 80 5 110 -29 27 -64
25 -93 -5z"/>
<path d="M7771 5504 c-12 -15 -21 -34 -21 -44 0 -34 39 -70 75 -70 24 0 39 7
54 26 27 35 26 59 -4 89 -33 34 -77 33 -104 -1z"/>
<path d="M4081 5484 c-12 -15 -21 -34 -21 -44 0 -34 39 -70 75 -70 36 0 75 36
75 70 0 34 -39 70 -75 70 -24 0 -39 -7 -54 -26z"/>
<path d="M3667 5452 c-23 -25 -21 -78 3 -102 61 -61 154 27 104 98 -20 28 -83
31 -107 4z"/>
<path d="M8362 5417 c-43 -46 -15 -120 46 -120 43 0 72 28 72 69 0 66 -74 98
-118 51z"/>
<path d="M430 5410 c-45 -45 -11 -120 53 -120 42 0 67 26 67 68 0 41 -31 72
-70 72 -17 0 -39 -9 -50 -20z"/>
<path d="M900 5410 c-24 -24 -26 -67 -4 -98 20 -29 76 -30 104 -2 43 43 11
120 -50 120 -17 0 -39 -9 -50 -20z"/>
<path d="M3282 5404 c-16 -11 -22 -25 -22 -54 0 -29 6 -43 22 -54 51 -36 118
-5 118 54 0 59 -67 90 -118 54z"/>
<path d="M1451 5384 c-12 -15 -21 -35 -21 -46 0 -27 45 -68 75 -68 30 0 75 41
75 68 0 35 -38 72 -75 72 -24 0 -39 -7 -54 -26z"/>
<path d="M2842 5390 c-49 -20 -54 -95 -7 -126 73 -48 147 61 79 115 -29 23
-38 24 -72 11z"/>
<path d="M1951 5354 c-12 -15 -21 -34 -21 -44 0 -34 39 -70 75 -70 36 0 75 36
75 70 0 34 -39 70 -75 70 -24 0 -39 -7 -54 -26z"/>
<path d="M2430 5360 c-42 -42 -8 -120 53 -120 58 0 91 85 49 123 -25 23 -78
21 -102 -3z"/>
<path d="M8909 5342 c-48 -40 -17 -122 47 -122 66 0 98 74 51 118 -28 27 -67
28 -98 4z"/>
<path d="M9523 5288 c-68 -33 -40 -138 37 -138 28 0 70 44 70 73 0 51 -61 88
-107 65z"/>
<path d="M4780 5250 c-26 -26 -26 -81 -2 -103 28 -25 87 -22 106 5 51 73 -42
160 -104 98z"/>
<path d="M10060 5213 c-55 -70 42 -151 105 -88 30 29 32 64 5 93 -30 32 -82
30 -110 -5z"/>
<path d="M10642 5160 c-48 -45 -16 -123 50 -123 64 0 92 83 42 122 -34 27 -64
27 -92 1z"/>
<path d="M570 5088 c-27 -29 -25 -64 5 -93 63 -63 160 18 105 88 -28 35 -80
37 -110 5z"/>
<path d="M1640 5090 c-42 -42 -8 -120 53 -120 58 0 91 85 49 123 -25 23 -78
21 -102 -3z"/>
<path d="M5715 5040 c-42 -46 -10 -120 51 -120 40 0 74 32 74 70 0 59 -86 93
-125 50z"/>
<path d="M2901 4954 c-12 -15 -21 -35 -21 -46 0 -27 45 -68 75 -68 30 0 75 41
75 68 0 35 -38 72 -75 72 -24 0 -39 -7 -54 -26z"/>
<path d="M6547 4888 c-37 -33 -40 -75 -7 -108 27 -27 66 -25 95 5 29 28 32 65
8 93 -28 33 -66 37 -96 10z"/>
<path d="M1290 4870 c-11 -11 -20 -33 -20 -50 0 -17 9 -39 20 -50 11 -11 33
-20 50 -20 17 0 39 9 50 20 11 11 20 33 20 50 0 17 -9 39 -20 50 -11 11 -33
20 -50 20 -17 0 -39 -9 -50 -20z"/>
<path d="M7255 4765 c-40 -39 -29 -97 22 -116 36 -13 78 5 93 40 31 75 -58
134 -115 76z"/>
<path d="M3830 4690 c-26 -26 -26 -81 -2 -103 28 -25 87 -22 106 5 50 71 -43
159 -104 98z"/>
<path d="M922 4657 c-45 -48 -17 -117 47 -117 46 0 71 24 71 68 0 65 -74 96
-118 49z"/>
<path d="M8007 4662 c-23 -25 -21 -78 3 -102 61 -61 154 27 104 98 -20 28 -83
31 -107 4z"/>
<path d="M8716 4599 c-50 -39 -22 -122 42 -122 43 0 72 28 72 70 0 65 -61 93
-114 52z"/>
<path d="M9346 4494 c-4 -15 -6 -28 -4 -30 5 -4 229 -31 413 -49 204 -19 543
-42 758 -51 l167 -7 0 30 0 31 -137 6 c-397 19 -883 58 -1083 86 -99 14 -107
13 -114 -16z"/>
<path d="M1285 4485 c-30 -30 -31 -54 -4 -89 15 -19 30 -26 54 -26 36 0 75 36
75 70 0 10 -9 29 -21 44 -27 34 -71 35 -104 1z"/>
<path d="M4721 4428 c-13 -36 -20 -33 243 -98 298 -73 852 -180 932 -180 11 0
29 48 22 56 -2 2 -67 13 -143 24 -265 40 -815 158 -997 213 l-47 15 -10 -30z"/>
<path d="M1675 4320 c-42 -46 -10 -120 51 -120 35 0 74 37 74 70 0 10 -9 29
-21 44 -26 33 -77 36 -104 6z"/>
<path d="M2082 4193 c-7 -3 -19 -18 -27 -33 -40 -77 71 -147 120 -77 42 60
-24 138 -93 110z"/>
<path d="M6671 4132 c-28 -22 -31 -75 -6 -102 24 -26 79 -26 105 0 62 62 -31
158 -99 102z"/>
<path d="M2470 4060 c-45 -45 -11 -120 53 -120 42 0 67 26 67 68 0 41 -31 72
-70 72 -17 0 -39 -9 -50 -20z"/>
<path d="M7725 3985 c-14 -13 -25 -36 -25 -50 0 -30 41 -75 67 -75 25 0 63 28
72 54 12 30 -6 71 -35 85 -37 16 -52 14 -79 -14z"/>
<path d="M2875 3915 c-58 -57 1 -146 76 -115 35 15 53 57 40 93 -19 51 -77 62
-116 22z"/>
<path d="M8650 3907 c-52 -26 -49 -104 5 -129 58 -26 119 33 95 91 -6 16 -23
33 -36 40 -31 14 -33 14 -64 -2z"/>
<path d="M276 3879 c-52 -41 -23 -122 44 -122 65 0 95 76 47 121 -29 28 -57
28 -91 1z"/>
<path d="M2160 3840 c-26 -26 -26 -81 0 -105 27 -25 80 -22 102 6 56 68 -40
161 -102 99z"/>
<path d="M3292 3837 c-43 -46 -16 -117 46 -119 43 -1 72 26 72 69 0 66 -74 97
-118 50z"/>
<path d="M9530 3840 c-42 -42 -8 -120 53 -120 58 0 91 85 49 123 -25 23 -78
21 -102 -3z"/>
<path d="M992 3840 c-77 -31 -34 -153 48 -135 65 14 74 106 14 134 -29 13 -31
13 -62 1z"/>
<path d="M10395 3828 c-28 -16 -35 -28 -35 -65 0 -41 42 -77 80 -68 60 14 80
88 34 124 -30 24 -50 26 -79 9z"/>
<path d="M1597 3812 c-40 -44 -7 -122 51 -122 60 0 94 78 52 120 -26 26 -81
26 -103 2z"/>
<path d="M3713 3792 c-51 -8 -70 -83 -30 -120 48 -45 117 -14 117 51 0 48 -38
77 -87 69z"/>
<path d="M4075 3695 c-14 -13 -25 -36 -25 -50 0 -29 40 -75 65 -75 20 0 57 19
67 34 18 26 8 75 -18 95 -35 27 -59 26 -89 -4z"/>
<path d="M4487 3629 c-48 -28 -40 -107 12 -129 75 -31 134 58 76 115 -25 26
-58 31 -88 14z"/>
<path d="M4901 3544 c-27 -35 -26 -59 4 -89 33 -34 77 -33 104 1 12 15 21 34
21 44 0 34 -39 70 -75 70 -24 0 -39 -7 -54 -26z"/>
<path d="M3833 3490 c-48 -19 -58 -87 -17 -119 53 -41 114 -13 114 52 0 51
-50 86 -97 67z"/>
<path d="M5340 3493 c-53 -19 -68 -86 -28 -123 63 -59 157 32 101 98 -20 23
-50 33 -73 25z"/>
<path d="M5700 3420 c-43 -43 -11 -120 50 -120 38 0 70 32 70 70 0 38 -32 70
-70 70 -17 0 -39 -9 -50 -20z"/>
<path d="M3319 3412 c-49 -40 -17 -122 48 -122 65 0 93 61 52 114 -25 31 -66
35 -100 8z"/>
<path d="M6119 3372 c-28 -23 -30 -73 -4 -102 25 -27 78 -27 105 2 26 28 26
58 -1 92 -25 31 -66 35 -100 8z"/>
<path d="M2820 3357 c-14 -7 -31 -24 -39 -38 -12 -22 -12 -29 0 -54 27 -57
105 -57 131 0 26 57 -37 119 -92 92z"/>
<path d="M6520 3330 c-43 -43 -11 -120 50 -120 38 0 70 32 70 70 0 38 -32 70
-70 70 -17 0 -39 -9 -50 -20z"/>
<path d="M6965 3275 c-48 -47 -19 -115 48 -115 42 0 70 29 70 72 0 62 -73 89
-118 43z"/>
<path d="M146 3269 c-36 -28 -36 -80 0 -108 15 -12 34 -21 44 -21 34 0 70 39
70 75 0 36 -36 75 -70 75 -10 0 -29 -9 -44 -21z"/>
<path d="M2296 3269 c-19 -15 -26 -30 -26 -54 0 -37 37 -75 72 -75 27 0 68 45
68 75 0 30 -41 75 -68 75 -11 0 -31 -9 -46 -21z"/>
<path d="M7369 3242 c-28 -23 -30 -73 -4 -102 25 -27 78 -27 105 2 26 28 26
58 -1 92 -25 31 -66 35 -100 8z"/>
<path d="M940 3232 c-51 -16 -68 -84 -30 -122 60 -60 154 26 105 97 -15 21
-50 33 -75 25z"/>
<path d="M1609 3228 c-16 -5 -32 -22 -39 -39 -35 -84 84 -137 129 -58 31 55
-28 118 -90 97z"/>
<path d="M5092 3204 c-28 -20 -31 -83 -4 -107 25 -23 78 -21 102 3 61 61 -27
154 -98 104z"/>
<path d="M7706 3155 c-4 -15 -5 -29 -3 -31 8 -8 165 -24 332 -34 94 -5 313
-10 488 -10 l318 0 -3 29 -3 29 -400 5 c-356 5 -524 13 -676 33 -44 5 -47 4
-53 -21z"/>
<path d="M9035 3145 c-30 -29 -32 -68 -5 -95 47 -47 123 -15 123 51 0 63 -72
90 -118 44z"/>
<path d="M9446 3118 c-36 -51 -5 -118 54 -118 59 0 90 67 54 118 -11 16 -25
22 -54 22 -29 0 -43 -6 -54 -22z"/>
<path d="M9872 3113 c-32 -27 -37 -64 -12 -96 28 -35 80 -37 110 -5 58 63 -32
156 -98 101z"/>
<path d="M10281 3104 c-41 -53 -13 -114 52 -114 42 0 70 29 70 72 0 64 -83 92
-122 42z"/>
<path d="M4626 3099 c-36 -28 -36 -80 0 -108 15 -12 34 -21 44 -21 34 0 70 39
70 75 0 36 -36 75 -70 75 -10 0 -29 -9 -44 -21z"/>
<path d="M10730 3102 c-52 -16 -68 -85 -28 -122 62 -58 153 26 103 97 -15 21
-50 33 -75 25z"/>
<path d="M4192 3020 c-48 -45 -16 -123 50 -123 61 0 91 78 45 121 -29 28 -67
28 -95 2z"/>
<path d="M3762 2943 c-7 -3 -19 -18 -28 -35 -13 -24 -13 -35 -4 -58 31 -74
140 -51 140 30 0 45 -63 81 -108 63z"/>
<path d="M6696 2929 c-36 -29 -36 -80 1 -109 47 -37 113 -4 113 56 0 35 -37
74 -70 74 -10 0 -29 -9 -44 -21z"/>
<path d="M3301 2854 c-12 -15 -21 -34 -21 -44 0 -31 39 -70 70 -70 62 0 97 66
60 113 -29 37 -80 37 -109 1z"/>
<path d="M10480 2850 c-26 -26 -26 -81 -2 -103 44 -40 122 -7 122 51 0 60 -78
94 -120 52z"/>
<path d="M2850 2810 c-26 -26 -26 -81 -2 -103 44 -40 122 -7 122 51 0 60 -78
94 -120 52z"/>
<path d="M2365 2770 c-42 -46 -10 -120 51 -120 35 0 74 37 74 70 0 10 -9 29
-21 44 -26 33 -77 36 -104 6z"/>
<path d="M6203 2760 c-49 -20 -56 -90 -11 -123 73 -54 153 56 82 112 -29 23
-38 24 -71 11z"/>
<path d="M7846 2739 c-19 -15 -26 -30 -26 -54 0 -36 36 -75 70 -75 34 0 70 39
70 75 0 36 -36 75 -70 75 -10 0 -29 -9 -44 -21z"/>
<path d="M1845 2715 c-30 -30 -31 -54 -4 -89 20 -26 69 -36 95 -18 15 10 34
47 34 67 0 25 -46 65 -75 65 -14 0 -37 -11 -50 -25z"/>
<path d="M376 2674 c-4 -15 -5 -29 -2 -31 8 -8 211 -31 396 -44 185 -13 674
-18 685 -8 3 4 3 17 0 30 l-6 24 -252 2 c-240 2 -596 23 -737 43 -36 5 -68 10
-71 10 -4 0 -10 -12 -13 -26z"/>
<path d="M10146 2669 c-19 -15 -26 -30 -26 -54 0 -36 36 -75 70 -75 34 0 70
39 70 75 0 36 -36 75 -70 75 -10 0 -29 -9 -44 -21z"/>
<path d="M5689 2592 c-15 -13 -22 -30 -22 -51 0 -66 76 -98 123 -51 27 27 25
66 -5 95 -29 30 -64 32 -96 7z"/>
<path d="M9783 2500 c-25 -10 -43 -39 -43 -70 0 -29 44 -70 75 -70 62 0 89 89
39 129 -29 23 -38 24 -71 11z"/>
<path d="M7236 2458 c-51 -73 42 -160 104 -98 26 26 26 81 2 103 -28 25 -87
22 -106 -5z"/>
<path d="M5195 2445 c-14 -13 -25 -36 -25 -50 0 -29 40 -75 65 -75 20 0 57 19
67 34 18 26 8 75 -18 95 -35 27 -59 26 -89 -4z"/>
<path d="M10541 2414 c-27 -34 -27 -64 -1 -92 45 -48 123 -16 123 50 0 64 -83
92 -122 42z"/>
<path d="M9393 2330 c-49 -20 -56 -90 -11 -123 73 -54 153 56 82 112 -29 23
-38 24 -71 11z"/>
<path d="M4641 2294 c-12 -15 -21 -34 -21 -44 0 -34 39 -70 75 -70 36 0 75 36
75 70 0 34 -39 70 -75 70 -24 0 -39 -7 -54 -26z"/>
<path d="M6596 2179 c-19 -15 -26 -30 -26 -54 0 -36 36 -75 70 -75 34 0 70 39
70 75 0 36 -36 75 -70 75 -10 0 -29 -9 -44 -21z"/>
<path d="M8980 2170 c-43 -43 -11 -120 50 -120 17 0 39 9 50 20 26 26 26 81 2
103 -25 23 -78 21 -102 -3z"/>
<path d="M4052 2163 c-52 -44 -24 -123 43 -123 67 0 97 69 50 115 -28 29 -65
32 -93 8z"/>
<path d="M9945 2065 c-14 -13 -25 -30 -25 -37 1 -59 51 -98 100 -78 36 15 55
57 41 93 -19 51 -77 62 -116 22z"/>
<path d="M3462 2064 c-63 -44 -37 -134 39 -134 28 0 69 44 69 73 0 55 -65 92
-108 61z"/>
<path d="M8592 2027 c-45 -48 -17 -117 47 -117 46 0 71 24 71 68 0 65 -74 96
-118 49z"/>
<path d="M501 1994 c-12 -15 -21 -35 -21 -46 0 -27 45 -68 75 -68 30 0 75 41
75 68 0 35 -38 72 -75 72 -24 0 -39 -7 -54 -26z"/>
<path d="M2896 1998 c-36 -51 -5 -118 54 -118 40 0 70 31 70 73 0 43 -26 67
-73 67 -26 0 -40 -6 -51 -22z"/>
<path d="M2342 1984 c-63 -44 -37 -134 39 -134 28 0 69 44 69 73 0 55 -65 92
-108 61z"/>
<path d="M1140 1977 c-14 -7 -31 -24 -39 -38 -12 -22 -12 -29 0 -54 27 -57
105 -57 131 0 26 57 -37 119 -92 92z"/>
<path d="M5947 1960 c-72 -57 8 -167 81 -113 51 38 34 114 -28 128 -18 4 -34
0 -53 -15z"/>
<path d="M1702 1947 c-44 -47 -13 -117 52 -117 42 0 66 26 66 73 0 63 -74 91
-118 44z"/>
<path d="M8189 1902 c-15 -13 -22 -30 -22 -51 0 -66 76 -98 123 -51 27 27 25
66 -5 95 -29 30 -64 32 -96 7z"/>
<path d="M10532 1897 c-43 -46 -15 -120 46 -120 43 0 72 28 72 69 0 66 -74 98
-118 51z"/>
<path d="M7800 1807 c-52 -26 -49 -104 4 -128 81 -37 138 73 64 125 -27 19
-35 20 -68 3z"/>
<path d="M5203 1745 c-49 -21 -58 -71 -18 -110 45 -46 118 -19 118 43 0 58
-47 89 -100 67z"/>
<path d="M7360 1693 c-55 -70 42 -151 105 -88 48 47 19 115 -49 115 -26 0 -40
-7 -56 -27z"/>
<path d="M4432 1580 c-32 -30 -30 -82 5 -110 70 -55 151 42 88 105 -29 30 -64
32 -93 5z"/>
<path d="M6970 1563 c-55 -70 42 -151 105 -88 28 27 31 45 14 78 -16 30 -28
37 -66 37 -23 0 -38 -8 -53 -27z"/>
<path d="M6581 1474 c-12 -15 -21 -34 -21 -44 0 -34 39 -70 75 -70 36 0 75 36
75 70 0 34 -39 70 -75 70 -24 0 -39 -7 -54 -26z"/>
<path d="M8565 1465 c-28 -27 -31 -45 -14 -78 16 -30 28 -37 66 -37 41 0 77
42 68 80 -14 58 -78 78 -120 35z"/>
<path d="M3585 1458 c-28 -16 -35 -28 -35 -65 0 -41 42 -77 80 -68 60 14 80
88 34 124 -30 24 -50 26 -79 9z"/>
<path d="M6176 1419 c-19 -15 -26 -30 -26 -54 0 -37 37 -75 72 -75 29 0 68 45
68 79 0 32 -38 71 -70 71 -10 0 -29 -9 -44 -21z"/>
<path d="M390 1380 c-42 -42 -8 -120 53 -120 58 0 91 85 49 123 -25 23 -78 21
-102 -3z"/>
<path d="M2776 1357 c-15 -15 -26 -38 -26 -52 0 -14 11 -37 26 -52 20 -20 31
-24 57 -19 43 9 61 29 61 71 0 42 -18 62 -61 71 -26 5 -37 1 -57 -19z"/>
<path d="M1210 1340 c-42 -42 -8 -120 53 -120 58 0 91 85 49 123 -25 23 -78
21 -102 -3z"/>
<path d="M5752 1337 c-43 -46 -16 -117 46 -119 43 -1 72 26 72 69 0 66 -74 97
-118 50z"/>
<path d="M1986 1319 c-19 -15 -26 -30 -26 -54 0 -36 36 -75 70 -75 34 0 70 39
70 75 0 36 -36 75 -70 75 -10 0 -29 -9 -44 -21z"/>
<path d="M9201 1278 c-5 -13 -6 -26 -2 -31 32 -34 1163 -269 1186 -246 2 2 6
16 10 30 l6 26 -118 18 c-261 39 -724 134 -945 195 -59 17 -112 30 -118 30 -6
0 -15 -10 -19 -22z"/>
<path d="M5360 1260 c-42 -42 -12 -120 48 -120 44 0 72 26 72 66 0 43 -29 74
-70 74 -17 0 -39 -9 -50 -20z"/>
<path d="M4941 1174 c-12 -15 -21 -34 -21 -44 0 -32 39 -70 71 -70 34 0 79 39
79 68 0 35 -38 72 -75 72 -24 0 -39 -7 -54 -26z"/>
<path d="M4540 1130 c-45 -45 -11 -120 53 -120 42 0 67 26 67 68 0 41 -31 72
-70 72 -17 0 -39 -9 -50 -20z"/>
<path d="M4115 1065 c-34 -33 -33 -77 1 -104 15 -12 34 -21 44 -21 10 0 29 9
44 21 36 28 36 80 0 108 -35 27 -59 26 -89 -4z"/>
<path d="M205 1035 c-30 -30 -31 -54 -4 -89 15 -19 30 -26 54 -26 37 0 75 37
75 72 0 27 -45 68 -75 68 -14 0 -37 -11 -50 -25z"/>
<path d="M607 1012 c-23 -25 -21 -78 3 -102 61 -61 154 27 104 98 -20 28 -83
31 -107 4z"/>
<path d="M3716 1008 c-50 -71 43 -159 104 -98 26 26 26 81 2 103 -28 25 -87
22 -106 -5z"/>
<path d="M6038 1005 c-6 -14 -9 -27 -7 -30 27 -26 633 -235 914 -315 224 -63
236 -65 246 -49 22 35 10 47 -63 64 -213 51 -666 198 -931 301 -77 30 -141 54
-143 54 -3 0 -10 -11 -16 -25z"/>
<path d="M3332 1003 c-7 -3 -19 -18 -27 -33 -40 -77 71 -147 120 -77 42 60
-24 138 -93 110z"/>
<path d="M1010 958 c-43 -46 -10 -118 54 -118 19 0 40 8 49 18 23 25 22 85 -1
105 -26 24 -77 21 -102 -5z"/>
<path d="M1437 940 c-37 -29 -37 -80 -1 -109 15 -12 34 -21 44 -21 31 0 70 39
70 70 0 62 -66 97 -113 60z"/>
<path d="M2897 938 c-37 -33 -40 -75 -7 -108 27 -27 66 -25 95 5 29 28 32 65
8 93 -28 33 -66 37 -96 10z"/>
<path d="M1860 910 c-26 -26 -26 -81 -2 -103 28 -25 87 -22 106 5 50 71 -43
159 -104 98z"/>
<path d="M2432 907 c-45 -48 -14 -117 51 -117 42 0 67 26 67 68 0 65 -74 96
-118 49z"/>
<path d="M4905 865 c-30 -30 -31 -54 -4 -89 15 -19 30 -26 54 -26 36 0 75 36
75 70 0 10 -9 29 -21 44 -27 34 -71 35 -104 1z"/>
<path d="M4513 724 c-20 -20 -24 -31 -19 -57 9 -43 29 -61 71 -61 46 0 69 24
69 70 0 69 -72 97 -121 48z"/>
<path d="M913 688 c-12 -6 -27 -24 -34 -40 -34 -83 86 -136 130 -57 19 33 1
81 -35 98 -29 13 -32 13 -61 -1z"/>
<path d="M7553 648 c-68 -33 -40 -138 37 -138 28 0 70 44 70 73 0 51 -61 88
-107 65z"/>
<path d="M389 628 c-16 -5 -32 -22 -39 -39 -35 -84 84 -137 129 -58 31 55 -28
118 -90 97z"/>
<path d="M4130 602 c-51 -16 -68 -84 -30 -122 60 -60 154 26 105 97 -15 21
-50 33 -75 25z"/>
<path d="M2400 587 c-52 -26 -49 -104 5 -129 58 -26 119 33 95 91 -6 16 -23
33 -36 40 -31 14 -33 14 -64 -2z"/>
<path d="M8120 530 c-42 -42 -12 -120 48 -120 46 0 72 25 72 70 0 29 -6 43
-22 54 -31 22 -74 20 -98 -4z"/>
<path d="M5600 470 c-43 -43 -11 -120 50 -120 38 0 70 32 70 70 0 38 -32 70
-70 70 -17 0 -39 -9 -50 -20z"/>
<path d="M8775 465 c-14 -13 -25 -36 -25 -50 0 -28 40 -75 64 -75 78 0 109
107 40 139 -37 16 -52 14 -79 -14z"/>
<path d="M3630 384 c-231 -76 -744 -205 -968 -245 -40 -7 -75 -15 -77 -19 -2
-4 -1 -18 3 -32 l7 -26 185 38 c292 60 914 225 982 261 15 8 16 14 6 34 -6 14
-16 25 -22 24 -6 -1 -58 -17 -116 -35z"/>
<path d="M9400 390 c-47 -47 -15 -123 51 -123 63 0 90 72 44 118 -29 30 -68
32 -95 5z"/>
<path d="M1602 377 c-45 -48 -14 -117 51 -117 43 0 70 29 69 72 -2 63 -77 91
-120 45z"/>
<path d="M10010 350 c-26 -26 -26 -81 -2 -103 28 -25 87 -22 106 5 51 73 -42
160 -104 98z"/>
<path d="M10636 337 c-15 -15 -26 -38 -26 -52 0 -14 11 -37 26 -52 20 -20 31
-24 57 -19 43 9 61 29 61 71 0 42 -18 62 -61 71 -26 5 -37 1 -57 -19z"/>
<path d="M4263 260 c-49 -20 -56 -90 -11 -123 73 -54 153 56 82 112 -29 23
-38 24 -71 11z"/>
<path d="M780 197 c-13 -7 -31 -24 -39 -38 -30 -53 36 -117 94 -91 55 25 58
100 5 127 -35 18 -29 18 -60 2z"/>
<path d="M6373 198 c-12 -6 -27 -24 -34 -40 -34 -83 86 -136 130 -57 19 33 1
81 -35 98 -29 13 -32 13 -61 -1z"/>
</g>
</svg>
