<?xml version="1.0" standalone="no"?>
<!DOCTYPE svg PUBLIC "-//W3C//DTD SVG 20010904//EN"
 "http://www.w3.org/TR/2001/REC-SVG-20010904/DTD/svg10.dtd">
<svg version="1.0" xmlns="http://www.w3.org/2000/svg"
 width="1125.000000pt" height="900.000000pt" viewBox="0 0 1125.000000 900.000000"
 preserveAspectRatio="xMidYMid meet">
<metadata>
Created by potrace 1.13, written by Peter Selinger 2001-2015
</metadata>
<g transform="translate(0.000000,900.000000) scale(0.100000,-0.100000)"
fill="#000000" stroke="none">
<path d="M0 4500 l0 -4500 5625 0 5625 0 0 4500 0 4500 -5625 0 -5625 0 0
-4500z m2778 4358 l3 -98 -1326 0 -1325 0 0 93 c0 52 3 97 7 100 3 4 599 6
1322 5 l1316 -3 3 -97z m2912 2 l0 -100 -1425 0 -1425 0 0 93 c0 52 3 97 7
100 3 4 645 7 1425 7 l1418 0 0 -100z m3038 -2 l3 -98 -1486 0 -1485 0 0 100
0 100 1483 -2 1482 -3 3 -97z m2480 0 l3 -98 -1211 0 -1210 0 0 93 c0 52 3 97
7 100 3 4 547 6 1207 5 l1201 -3 3 -97z m0 -310 l3 -148 -233 -2 -233 -3 -3
-32 -3 -33 235 0 236 0 0 -135 0 -135 -5585 0 -5585 0 0 135 0 135 375 0 375
0 0 35 0 35 -375 0 -375 0 0 143 c0 79 3 147 7 150 3 4 2515 6 5582 5 l5576
-3 3 -147z m-10858 -1003 l0 -445 -155 0 -155 0 0 445 0 445 155 0 155 0 0
-445z m2660 0 l0 -445 -1300 0 -1300 0 0 445 0 445 1300 0 1300 0 0 -445z
m2810 0 l0 -445 -1375 0 -1375 0 0 445 0 445 1375 0 1375 0 0 -445z m2990 0
l0 -445 -1465 0 -1465 0 0 445 0 445 1465 0 1465 0 0 -445z m2400 0 l0 -445
-1165 0 -1165 0 0 445 0 445 1165 0 1165 0 0 -445z m-2 -702 l2 -193 -690 0
-691 0 3 -32 3 -33 688 -3 687 -2 -2 -173 -3 -172 -5580 0 -5580 0 -3 390 c-1
214 0 396 3 402 3 11 1120 13 5582 11 l5578 -3 3 -192z m-10628 -1078 l0 -405
-270 0 -270 0 0 185 c0 156 2 187 15 191 8 4 15 18 15 34 0 16 -7 30 -15 34
-13 4 -15 34 -15 179 0 96 3 177 7 180 3 4 125 7 270 7 l263 0 0 -405z m2760
0 l0 -405 -1345 0 -1345 0 0 405 0 405 1345 0 1345 0 0 -405z m2830 0 l0 -405
-1380 0 -1380 0 0 405 0 405 1380 0 1380 0 0 -405z m3110 0 l0 -405 -1525 0
-1525 0 0 405 0 405 1525 0 1525 0 0 -405z m1925 220 l0 -180 -392 -3 -393 -2
0 -30 0 -30 393 -2 392 -3 3 -187 2 -188 -935 0 -935 0 0 405 0 405 933 -2
932 -3 0 -180z m0 -870 l0 -180 -237 -3 -238 -2 0 -30 0 -30 238 -2 237 -3 0
-170 0 -170 -5580 0 -5580 0 0 170 0 170 367 3 368 2 0 30 0 30 -368 2 -367 3
-3 170 c-1 93 0 175 2 182 4 11 1041 13 5583 11 l5578 -3 0 -180z m-10855
-965 l0 -310 -155 0 -155 0 0 303 c0 167 3 307 7 310 3 4 73 7 155 7 l148 0 0
-310z m2660 0 l0 -310 -1300 0 -1300 0 0 303 c0 167 3 307 7 310 3 4 588 7
1300 7 l1293 0 0 -310z m2760 0 l0 -310 -1350 0 -1350 0 0 310 0 310 1350 0
1350 0 0 -310z m3040 0 l0 -310 -1490 0 -1490 0 0 310 0 310 1490 0 1490 0 0
-310z m2398 -2 l2 -308 -1165 0 -1165 0 0 310 0 310 1163 -2 1162 -3 3 -307z
m0 -700 l-3 -323 -5580 0 -5580 0 -3 323 -2 322 5585 0 5585 0 -2 -322z
m-10708 -778 l0 -390 -228 2 -227 3 -3 375 c-1 206 0 381 3 387 3 10 58 13
230 13 l225 0 0 -390z m2820 0 l0 -390 -1375 0 -1375 0 0 390 0 390 1375 0
1375 0 0 -390z m2838 3 l-3 -388 -1387 -3 -1388 -2 0 390 0 390 1390 0 1390 0
-2 -387z m3092 -3 l0 -390 -1515 0 -1515 0 0 390 0 390 1515 0 1515 0 0 -390z
m1955 0 l0 -385 -942 -3 -943 -2 0 390 0 390 943 -2 942 -3 0 -385z m3 -627
l2 -173 -212 -2 -213 -3 0 -30 0 -30 213 -3 212 -2 0 -155 0 -155 -5585 0
-5585 0 0 155 0 155 398 2 397 3 0 30 0 30 -397 3 -398 2 0 168 c0 93 3 172 7
175 3 4 2515 6 5582 5 l5576 -3 3 -172z m-10940 -1026 l2 -408 -112 3 -113 3
-3 395 c-1 217 0 401 3 408 3 9 32 12 112 10 l108 -3 3 -408z m2707 3 l0 -405
-1322 -3 -1323 -2 0 403 c0 222 3 407 7 410 3 4 599 6 1322 5 l1316 -3 0 -405z
m2835 0 l0 -410 -1385 0 -1385 0 0 403 c0 222 3 407 7 410 3 4 627 7 1385 7
l1378 0 0 -410z m2970 0 l0 -410 -1450 0 -1450 0 0 410 0 410 1450 0 1450 0 0
-410z m2425 0 l0 -405 -1177 -3 -1178 -2 0 410 0 410 1178 -2 1177 -3 0 -405z
m0 -725 l0 -250 -5580 0 -5580 0 -3 240 c-1 132 0 245 3 252 3 11 1079 13
5582 11 l5578 -3 0 -250z"/>
<path d="M1330 8365 l0 -35 663 2 662 3 0 30 0 30 -662 3 -663 2 0 -35z"/>
<path d="M3190 8365 l0 -35 660 0 660 0 0 35 0 35 -660 0 -660 0 0 -35z"/>
<path d="M5044 8386 c-3 -8 -4 -23 -2 -33 3 -17 36 -18 666 -21 l662 -2 0 35
0 35 -660 0 c-566 0 -661 -2 -666 -14z"/>
<path d="M6907 8393 c-4 -3 -7 -19 -7 -35 l0 -28 666 0 665 0 -3 33 -3 32
-656 3 c-360 1 -659 -1 -662 -5z"/>
<path d="M8760 8365 l0 -35 663 2 662 3 0 30 0 30 -662 3 -663 2 0 -35z"/>
<path d="M977 7533 c-4 -3 -7 -19 -7 -35 l0 -28 755 0 755 0 0 35 0 35 -748 0
c-412 0 -752 -3 -755 -7z"/>
<path d="M3732 7554 c-28 -20 -31 -83 -4 -107 25 -23 78 -21 102 3 61 61 -27
154 -98 104z"/>
<path d="M4379 7552 c-49 -40 -17 -122 48 -122 65 0 93 61 52 114 -25 31 -66
35 -100 8z"/>
<path d="M4950 7550 c-24 -24 -26 -67 -4 -98 11 -16 25 -22 54 -22 29 0 43 6
54 22 36 51 5 118 -54 118 -17 0 -39 -9 -50 -20z"/>
<path d="M6624 7526 c-3 -8 -4 -23 -2 -33 3 -17 39 -18 756 -21 l752 -2 0 35
0 35 -750 0 c-645 0 -751 -2 -756 -14z"/>
<path d="M9735 7545 c-30 -30 -31 -54 -4 -89 15 -19 30 -26 54 -26 37 0 75 37
75 72 0 27 -45 68 -75 68 -14 0 -37 -11 -50 -25z"/>
<path d="M10220 7550 c-24 -24 -26 -67 -4 -98 20 -28 83 -31 107 -4 40 45 6
122 -53 122 -17 0 -39 -9 -50 -20z"/>
<path d="M10769 7552 c-28 -23 -30 -73 -4 -102 24 -26 79 -26 105 0 63 63 -31
158 -101 102z"/>
<path d="M544 6636 c-3 -8 -4 -23 -2 -33 3 -17 36 -18 666 -21 l662 -2 0 35 0
35 -660 0 c-566 0 -661 -2 -666 -14z"/>
<path d="M2402 6618 l3 -33 660 0 660 0 3 33 3 32 -666 0 -666 0 3 -32z"/>
<path d="M4260 6615 l0 -35 663 2 662 3 0 30 0 30 -662 3 -663 2 0 -35z"/>
<path d="M6120 6615 l0 -35 660 0 660 0 0 35 0 35 -660 0 -660 0 0 -35z"/>
<path d="M7974 6636 c-3 -8 -4 -23 -2 -33 3 -17 36 -18 666 -21 l662 -2 0 35
0 35 -660 0 c-566 0 -661 -2 -666 -14z"/>
<path d="M1320 5837 c-57 -29 -55 -111 3 -131 81 -29 134 89 57 129 -35 18
-29 18 -60 2z"/>
<path d="M1979 5837 c-37 -19 -53 -60 -37 -94 26 -55 104 -54 130 2 26 57 -37
119 -93 92z"/>
<path d="M2603 5840 c-48 -19 -58 -87 -17 -119 53 -41 114 -13 114 52 0 51
-50 86 -97 67z"/>
<path d="M4050 5770 l0 -30 755 0 755 0 0 30 0 30 -755 0 -755 0 0 -30z"/>
<path d="M6980 5837 c-14 -7 -31 -25 -38 -40 -27 -56 35 -115 93 -89 55 25 58
100 5 127 -35 18 -29 18 -60 2z"/>
<path d="M7743 5840 c-46 -19 -57 -83 -20 -118 48 -45 117 -14 117 51 0 51
-50 86 -97 67z"/>
<path d="M8403 5840 c-46 -19 -57 -83 -20 -118 47 -44 117 -13 117 52 0 50
-50 84 -97 66z"/>
<path d="M9830 5770 l0 -30 290 0 290 0 0 30 0 30 -290 0 -290 0 0 -30z"/>
<path d="M1310 4900 l0 -30 663 2 662 3 3 28 3 27 -665 0 -666 0 0 -30z"/>
<path d="M3170 4900 l0 -30 660 0 660 0 0 30 0 30 -660 0 -660 0 0 -30z"/>
<path d="M5020 4900 l0 -30 665 0 665 0 0 30 0 30 -665 0 -665 0 0 -30z"/>
<path d="M6880 4900 l0 -30 665 0 665 0 0 30 0 30 -665 0 -665 0 0 -30z"/>
<path d="M8740 4900 l0 -30 665 0 665 0 0 30 0 30 -665 0 -665 0 0 -30z"/>
<path d="M930 4130 l0 -30 755 0 755 0 0 30 0 30 -755 0 -755 0 0 -30z"/>
<path d="M3695 4175 c-28 -27 -32 -61 -10 -92 49 -70 160 0 120 76 -24 48 -72
55 -110 16z"/>
<path d="M4390 4180 c-47 -47 -15 -123 51 -123 63 0 90 72 44 118 -29 30 -68
32 -95 5z"/>
<path d="M4980 4180 c-26 -26 -26 -81 0 -105 29 -26 79 -24 102 4 25 32 23 67
-7 96 -29 30 -68 32 -95 5z"/>
<path d="M6530 4155 l0 -35 755 0 755 0 0 35 0 35 -755 0 -755 0 0 -35z"/>
<path d="M9496 4179 c-50 -39 -22 -122 42 -122 66 0 98 78 50 123 -28 26 -58
26 -92 -1z"/>
<path d="M10197 4189 c-48 -28 -40 -107 13 -129 23 -9 34 -9 58 4 49 25 56 72
17 111 -25 26 -58 31 -88 14z"/>
<path d="M10786 4179 c-50 -39 -22 -122 42 -122 66 0 98 78 50 123 -28 26 -58
26 -92 -1z"/>
<path d="M330 3440 l0 -30 665 0 665 0 0 30 0 30 -665 0 -665 0 0 -30z"/>
<path d="M2190 3440 l0 -30 665 0 665 0 0 30 0 30 -665 0 -665 0 0 -30z"/>
<path d="M4050 3440 l0 -30 660 0 660 0 0 30 0 30 -660 0 -660 0 0 -30z"/>
<path d="M5900 3440 l0 -30 665 0 665 0 0 30 0 30 -665 0 -665 0 0 -30z"/>
<path d="M7760 3440 l0 -30 665 0 665 0 0 30 0 30 -665 0 -665 0 0 -30z"/>
<path d="M9620 3440 l0 -30 725 0 725 0 0 30 0 30 -725 0 -725 0 0 -30z"/>
<path d="M1262 2717 c-45 -48 -14 -117 51 -117 43 0 70 29 69 72 -2 63 -77 91
-120 45z"/>
<path d="M1922 2717 c-45 -48 -14 -117 51 -117 43 0 67 26 67 73 0 63 -74 91
-118 44z"/>
<path d="M2549 2722 c-49 -40 -17 -122 48 -122 65 0 93 61 52 114 -25 31 -66
35 -100 8z"/>
<path d="M4002 2673 l3 -28 753 -3 752 -2 0 30 0 30 -756 0 -755 0 3 -27z"/>
<path d="M7062 2717 c-45 -48 -14 -117 51 -117 42 0 67 26 67 68 0 65 -74 96
-118 49z"/>
<path d="M7722 2717 c-45 -48 -17 -117 47 -117 46 0 71 24 71 68 0 65 -74 96
-118 49z"/>
<path d="M8345 2715 c-30 -30 -31 -54 -4 -89 20 -26 69 -36 95 -18 15 10 34
47 34 67 0 25 -46 65 -75 65 -14 0 -37 -11 -50 -25z"/>
<path d="M9840 2645 l0 -35 288 2 287 3 0 30 0 30 -287 3 -288 2 0 -35z"/>
<path d="M10430 2645 l0 -35 270 0 270 0 0 35 0 35 -270 0 -270 0 0 -35z"/>
<path d="M1377 1863 c-4 -3 -7 -19 -7 -35 l0 -28 666 0 665 0 -3 33 -3 32
-656 3 c-360 1 -659 -1 -662 -5z"/>
<path d="M3237 1863 c-4 -3 -7 -19 -7 -35 l0 -28 666 0 665 0 -3 33 -3 32
-656 3 c-360 1 -659 -1 -662 -5z"/>
<path d="M5090 1835 l0 -35 660 0 660 0 0 35 0 35 -660 0 -660 0 0 -35z"/>
<path d="M6950 1835 l0 -35 660 0 660 0 0 35 0 35 -660 0 -660 0 0 -35z"/>
<path d="M8807 1863 c-4 -3 -7 -19 -7 -35 l0 -28 666 0 665 0 -3 33 -3 32
-656 3 c-360 1 -659 -1 -662 -5z"/>
<path d="M907 1033 c-4 -3 -7 -17 -7 -30 l0 -23 761 0 760 0 -3 28 -3 27 -751
3 c-413 1 -754 -1 -757 -5z"/>
<path d="M3760 1050 c-62 -62 31 -158 99 -102 28 22 31 75 6 102 -24 26 -79
26 -105 0z"/>
<path d="M4420 1050 c-42 -42 -8 -120 53 -120 58 0 91 85 49 123 -25 23 -78
21 -102 -3z"/>
<path d="M5045 1050 c-42 -47 -8 -120 55 -120 33 0 70 40 70 76 0 57 -86 87
-125 44z"/>
<path d="M6610 1030 l0 -30 755 0 755 0 0 30 0 30 -755 0 -755 0 0 -30z"/>
<path d="M9490 1050 c-42 -42 -8 -120 53 -120 58 0 91 85 49 123 -25 23 -78
21 -102 -3z"/>
<path d="M10150 1050 c-42 -42 -8 -120 53 -120 58 0 91 85 49 123 -25 23 -78
21 -102 -3z"/>
<path d="M10870 1050 c-42 -42 -8 -120 53 -120 58 0 91 85 49 123 -25 23 -78
21 -102 -3z"/>
<path d="M410 240 l0 -30 665 0 665 0 0 30 0 30 -665 0 -665 0 0 -30z"/>
<path d="M2270 240 l0 -30 660 0 660 0 0 30 0 30 -660 0 -660 0 0 -30z"/>
<path d="M4122 243 l3 -28 663 -3 662 -2 0 30 0 30 -666 0 -665 0 3 -27z"/>
<path d="M5980 240 l0 -30 665 0 665 0 0 30 0 30 -665 0 -665 0 0 -30z"/>
<path d="M7840 240 l0 -30 665 0 665 0 0 30 0 30 -665 0 -665 0 0 -30z"/>
<path d="M9700 240 l0 -30 725 0 725 0 0 30 0 30 -725 0 -725 0 0 -30z"/>
</g>
</svg>
