<?xml version="1.0" standalone="no"?>
<!DOCTYPE svg PUBLIC "-//W3C//DTD SVG 20010904//EN"
 "http://www.w3.org/TR/2001/REC-SVG-20010904/DTD/svg10.dtd">
<svg version="1.0" xmlns="http://www.w3.org/2000/svg"
 width="1811.000000pt" height="1217.000000pt" viewBox="0 0 1811.000000 1217.000000"
 preserveAspectRatio="xMidYMid meet">
<metadata>
Created by potrace 1.13, written by Peter Selinger 2001-2015
</metadata>
<g transform="translate(0.000000,1217.000000) scale(0.100000,-0.100000)"
fill="#000000" stroke="none">
<path d="M947 12138 c-7 -18 -46 -127 -87 -241 -72 -205 -78 -240 -38 -224 8
3 45 92 83 198 37 107 72 205 78 219 8 22 17 2 73 -155 99 -277 94 -265 115
-265 11 0 19 7 19 18 0 9 -36 122 -82 250 l-82 232 -33 0 c-28 0 -35 -5 -46
-32z"/>
<path d="M1985 12153 c-46 -118 -164 -467 -159 -474 9 -15 33 -10 43 10 6 10
42 108 81 217 39 109 72 199 74 201 2 2 34 -83 71 -189 38 -106 74 -205 82
-220 13 -28 36 -37 47 -19 5 7 -113 356 -159 474 -5 11 -18 17 -40 17 -22 0
-35 -6 -40 -17z"/>
<path d="M2942 11938 c-46 -128 -82 -241 -82 -250 0 -11 8 -18 19 -18 22 0 21
-2 117 272 32 92 62 164 65 160 4 -4 39 -101 79 -215 41 -115 80 -211 87 -214
42 -16 36 19 -48 254 l-85 238 -35 3 -35 3 -82 -233z"/>
<path d="M4046 12138 c-7 -18 -46 -127 -86 -241 -53 -150 -70 -211 -62 -219 6
-6 17 -8 24 -6 7 3 44 93 82 199 38 107 73 205 78 219 8 22 18 2 74 -155 35
-99 71 -199 80 -222 16 -43 40 -56 50 -28 4 9 -31 121 -77 250 l-83 235 -34 0
c-28 0 -35 -5 -46 -32z"/>
<path d="M5075 12158 c-123 -348 -155 -443 -155 -459 0 -12 7 -19 19 -19 21 0
17 -11 114 264 l64 179 42 -119 c23 -65 59 -165 79 -221 27 -77 40 -103 53
-103 10 0 20 4 24 9 3 6 -32 115 -77 243 l-83 233 -38 3 c-24 2 -39 -1 -42
-10z"/>
<path d="M6031 11935 c-46 -129 -80 -242 -77 -251 3 -8 13 -14 22 -12 12 2 40
70 94 223 44 123 81 213 84 205 4 -8 39 -107 79 -220 61 -170 77 -205 93 -205
10 0 20 7 21 15 2 8 -34 119 -80 245 l-82 230 -35 3 -35 3 -84 -236z"/>
<path d="M7147 12163 c-3 -5 -42 -113 -87 -241 -82 -230 -88 -265 -48 -249 8
3 45 92 83 198 37 107 72 205 77 219 9 22 16 7 64 -125 29 -82 65 -183 80
-222 20 -56 31 -73 45 -73 11 0 19 7 19 18 0 9 -36 122 -81 250 l-82 232 -33
0 c-18 0 -35 -3 -37 -7z"/>
<path d="M8172 12143 c-121 -333 -161 -458 -152 -467 24 -24 46 18 118 222 41
117 76 211 79 209 2 -2 35 -93 73 -201 39 -109 75 -206 80 -217 11 -20 35 -25
45 -10 4 7 -117 365 -160 474 -5 11 -18 17 -40 17 -27 0 -35 -5 -43 -27z"/>
<path d="M9132 11938 c-45 -128 -82 -241 -82 -250 0 -11 8 -18 19 -18 22 0 18
-9 115 265 36 99 67 173 70 165 3 -8 39 -107 79 -220 52 -147 78 -206 90 -208
9 -2 19 3 22 10 3 8 -32 120 -77 249 l-83 234 -35 3 -36 3 -82 -233z"/>
<path d="M10237 12138 c-7 -18 -46 -127 -87 -241 -72 -205 -78 -240 -37 -224
7 3 46 99 87 214 40 114 75 211 79 215 3 4 33 -68 65 -160 96 -274 95 -272
117 -272 11 0 19 7 19 18 0 9 -36 122 -82 250 l-82 232 -33 0 c-28 0 -35 -5
-46 -32z"/>
<path d="M11275 12153 c-42 -107 -164 -467 -159 -474 11 -18 34 -9 47 19 8 15
44 114 82 220 37 106 69 191 71 189 2 -2 37 -98 78 -213 71 -201 93 -241 116
-218 7 7 -13 77 -69 235 -44 123 -82 232 -86 242 -5 11 -18 17 -40 17 -22 0
-35 -6 -40 -17z"/>
<path d="M12220 11934 c-82 -232 -89 -267 -48 -251 8 3 48 100 89 216 40 116
76 211 79 211 3 0 39 -96 80 -212 55 -155 81 -214 93 -216 9 -2 19 3 22 11 3
7 -31 118 -76 245 l-82 232 -37 0 -37 0 -83 -236z"/>
<path d="M13331 12147 c-5 -13 -44 -121 -86 -241 -77 -214 -83 -249 -42 -233
8 3 47 99 87 214 40 114 76 211 79 215 4 4 28 -54 55 -130 111 -311 107 -302
127 -302 13 0 19 7 19 21 0 11 -37 124 -82 250 l-81 229 -34 0 c-26 0 -35 -5
-42 -23z"/>
<path d="M14346 12098 c-114 -317 -143 -404 -139 -415 3 -7 13 -13 23 -13 13
0 34 47 95 220 43 121 80 219 82 217 2 -2 32 -86 68 -186 36 -100 72 -198 80
-217 14 -34 42 -46 50 -21 2 6 -33 118 -79 247 l-84 235 -35 3 -35 3 -26 -73z"/>
<path d="M15321 11936 c-46 -130 -81 -243 -77 -251 3 -9 13 -15 22 -13 12 2
40 70 94 223 44 124 81 213 84 205 4 -8 39 -107 79 -220 61 -170 77 -205 93
-205 10 0 20 7 21 15 2 8 -34 119 -80 245 l-82 230 -35 3 -35 3 -84 -235z"/>
<path d="M16437 12163 c-3 -5 -42 -113 -87 -241 -82 -230 -88 -265 -48 -249 8
3 45 92 83 198 37 107 72 205 77 219 9 22 16 7 64 -125 29 -82 65 -183 80
-222 20 -56 31 -73 45 -73 11 0 19 7 19 18 0 9 -36 122 -81 250 l-82 232 -33
0 c-18 0 -35 -3 -37 -7z"/>
<path d="M17462 12143 c-128 -354 -162 -457 -152 -467 24 -24 45 18 118 222
41 117 76 211 79 209 2 -2 35 -93 73 -201 39 -109 75 -206 80 -217 11 -20 35
-25 45 -10 4 7 -117 365 -160 474 -5 11 -18 17 -40 17 -27 0 -35 -5 -43 -27z"/>
<path d="M1 12070 c0 -66 7 -94 58 -235 40 -113 62 -161 74 -163 9 -2 19 3 22
10 3 8 -30 115 -74 239 l-80 224 0 -75z"/>
<path d="M5613 11008 c-20 -26 -185 -509 -179 -524 3 -9 13 -14 22 -12 12 2
39 65 91 213 41 116 78 213 81 217 4 4 40 -86 80 -200 40 -114 77 -214 82
-221 10 -17 40 -7 40 13 0 20 -170 497 -183 514 -5 6 -13 12 -17 12 -4 0 -12
-6 -17 -12z"/>
<path d="M12836 11012 c-18 -29 -186 -523 -181 -532 12 -20 36 -9 50 23 7 17
41 110 75 206 33 96 65 181 69 189 5 9 34 -59 81 -192 40 -114 79 -214 86
-224 11 -15 14 -15 28 -2 13 13 4 45 -78 275 -88 247 -110 290 -130 257z"/>
<path d="M446 10978 c-7 -18 -51 -138 -96 -266 -82 -230 -89 -265 -47 -249 8
3 47 99 87 214 40 114 76 212 80 216 4 4 40 -86 80 -200 40 -114 79 -215 86
-223 12 -13 16 -13 28 0 13 13 2 49 -78 275 -99 275 -113 299 -140 233z"/>
<path d="M1485 10998 c-3 -7 -45 -125 -94 -263 -77 -216 -87 -252 -75 -265 12
-13 16 -13 28 0 7 8 46 108 86 223 40 114 76 205 79 202 3 -3 39 -101 81 -218
63 -179 78 -212 95 -212 11 0 21 7 22 15 1 8 -39 130 -90 270 -68 189 -96 256
-110 258 -9 2 -19 -2 -22 -10z"/>
<path d="M2523 10998 c-12 -16 -183 -495 -183 -514 0 -20 20 -28 35 -13 8 8
47 109 88 224 68 189 76 208 86 185 6 -14 42 -113 80 -220 47 -134 74 -196 85
-198 9 -2 19 4 22 12 6 15 -159 498 -179 524 -5 6 -13 12 -17 12 -4 0 -12 -6
-17 -12z"/>
<path d="M3552 10993 c-5 -10 -49 -130 -97 -266 -87 -245 -94 -280 -52 -264 7
3 46 99 87 214 40 114 76 212 80 216 4 4 40 -86 80 -200 40 -114 78 -214 85
-222 16 -16 35 -7 35 18 0 9 -40 129 -89 267 -88 247 -107 281 -129 237z"/>
<path d="M4585 10998 c-3 -7 -45 -125 -94 -263 -79 -221 -88 -252 -75 -265 14
-13 17 -13 28 2 7 10 46 110 86 224 66 186 74 204 85 183 6 -13 42 -111 80
-217 38 -107 75 -196 82 -199 42 -16 34 20 -58 279 -70 196 -98 264 -112 266
-9 2 -19 -2 -22 -10z"/>
<path d="M6636 10978 c-7 -18 -51 -138 -96 -266 -81 -230 -88 -265 -47 -249 8
3 47 99 87 214 40 114 76 212 80 216 4 5 40 -85 80 -200 40 -114 79 -215 87
-223 11 -13 15 -13 27 0 12 13 2 50 -78 275 -99 276 -113 300 -140 233z"/>
<path d="M7675 10998 c-2 -7 -43 -121 -90 -252 -47 -132 -85 -247 -85 -257 0
-24 19 -34 34 -18 7 8 46 108 86 222 40 114 76 204 80 200 4 -4 40 -102 80
-217 41 -114 80 -210 88 -213 41 -16 34 19 -53 264 -48 136 -92 256 -97 266
-10 20 -37 23 -43 5z"/>
<path d="M8713 10998 c-19 -25 -185 -508 -179 -523 3 -8 12 -15 20 -15 16 0
26 25 114 277 31 90 59 163 62 163 3 0 31 -76 64 -168 91 -259 96 -272 112
-272 8 0 17 7 21 15 5 15 -160 497 -180 523 -5 6 -13 12 -17 12 -4 0 -12 -6
-17 -12z"/>
<path d="M9742 10993 c-5 -10 -49 -130 -97 -266 -87 -245 -94 -280 -53 -264 8
3 47 99 88 213 40 115 76 213 80 217 4 4 40 -86 80 -200 40 -114 79 -215 86
-223 12 -13 16 -13 28 0 12 13 1 51 -79 275 -92 259 -110 293 -133 248z"/>
<path d="M10775 10998 c-3 -7 -45 -125 -94 -263 -78 -217 -88 -252 -75 -265
12 -13 16 -13 28 0 7 8 46 109 86 223 40 115 76 205 80 200 4 -4 40 -102 80
-216 40 -115 79 -211 87 -214 43 -16 35 19 -58 279 -70 196 -98 264 -112 266
-9 2 -19 -2 -22 -10z"/>
<path d="M11813 10998 c-12 -16 -183 -495 -183 -514 0 -20 20 -28 35 -13 8 8
47 109 88 224 68 189 76 208 86 185 6 -14 42 -113 80 -220 47 -134 74 -196 85
-198 9 -2 19 4 22 12 6 15 -159 498 -179 524 -5 6 -13 12 -17 12 -4 0 -12 -6
-17 -12z"/>
<path d="M13865 10993 c-33 -84 -175 -492 -175 -505 0 -24 19 -33 35 -17 7 8
45 108 85 222 41 114 77 204 80 200 4 -4 40 -102 81 -217 40 -114 79 -211 87
-213 41 -16 34 19 -53 264 -97 276 -100 283 -119 283 -8 0 -17 -8 -21 -17z"/>
<path d="M14903 10998 c-20 -27 -185 -509 -179 -524 3 -8 13 -14 22 -12 11 2
38 64 85 198 38 107 74 206 80 220 10 23 18 4 86 -185 41 -115 80 -216 88
-224 15 -15 35 -7 35 14 0 20 -170 497 -183 513 -5 6 -13 12 -17 12 -4 0 -12
-6 -17 -12z"/>
<path d="M15926 10978 c-7 -18 -51 -138 -96 -266 -82 -230 -88 -265 -47 -249
8 3 47 99 87 214 40 114 76 212 80 216 4 5 40 -85 80 -200 40 -114 79 -215 86
-223 12 -13 16 -13 28 0 13 13 2 49 -78 275 -99 275 -113 299 -140 233z"/>
<path d="M16965 10998 c-3 -7 -45 -125 -94 -263 -77 -216 -87 -252 -75 -265
12 -13 16 -13 28 0 7 8 46 109 86 223 40 114 76 204 80 200 4 -4 40 -102 80
-217 41 -114 80 -210 88 -213 41 -16 34 19 -53 264 -48 136 -92 256 -97 266
-10 20 -37 23 -43 5z"/>
<path d="M18003 10998 c-20 -26 -185 -508 -180 -523 4 -8 13 -15 21 -15 16 0
24 20 113 273 32 92 60 167 63 167 3 0 24 -53 47 -118 l42 -117 0 71 c1 57 -6
91 -31 160 -32 90 -44 114 -58 114 -4 0 -12 -6 -17 -12z"/>
<path d="M5089 9783 c-47 -122 -169 -479 -169 -494 0 -12 7 -19 19 -19 20 0
16 -9 126 298 26 73 51 130 55 125 4 -4 40 -101 80 -215 58 -165 77 -208 91
-208 10 0 20 4 24 9 4 8 -128 395 -171 499 -16 39 -41 41 -55 5z"/>
<path d="M12312 9783 c-99 -275 -172 -488 -172 -500 0 -9 8 -13 22 -11 19 3
32 32 98 215 41 117 77 213 80 213 3 0 39 -96 80 -213 66 -185 78 -212 98
-215 15 -2 22 2 22 12 0 9 -40 129 -90 268 -49 138 -90 253 -90 255 0 2 -9 3
-19 3 -12 0 -23 -11 -29 -27z"/>
<path d="M882 9543 c-51 -143 -92 -264 -92 -270 0 -22 30 -22 44 0 8 12 44
108 81 212 36 105 70 194 74 198 4 4 42 -88 83 -205 64 -182 78 -213 97 -216
15 -3 21 2 21 15 0 11 -40 131 -89 269 -72 201 -93 250 -108 252 -17 3 -32
-30 -111 -255z"/>
<path d="M2007 9793 c-3 -5 -47 -123 -96 -263 -73 -204 -89 -257 -79 -267 7
-7 18 -9 25 -5 7 4 44 97 83 207 39 109 75 205 79 213 10 17 1 36 92 -218 38
-107 75 -198 82 -202 7 -4 18 -2 25 5 17 18 -164 530 -190 535 -9 2 -19 -1
-21 -5z"/>
<path d="M3035 9788 c-105 -292 -175 -497 -175 -509 0 -21 26 -32 38 -16 5 7
42 106 82 220 41 114 77 204 81 200 4 -4 39 -97 78 -207 39 -109 75 -204 81
-211 13 -15 40 -9 40 9 0 6 -41 127 -92 269 -75 212 -94 257 -110 257 -10 0
-21 -6 -23 -12z"/>
<path d="M3981 9543 c-50 -142 -91 -263 -91 -269 0 -18 27 -25 39 -10 6 7 42
102 81 212 39 109 75 202 79 206 4 5 40 -85 80 -200 41 -114 78 -212 83 -219
12 -16 38 -5 38 16 0 13 -99 299 -166 479 -31 84 -43 66 -143 -215z"/>
<path d="M6125 9783 c-31 -79 -175 -495 -175 -506 0 -20 26 -29 38 -14 5 7 43
105 83 220 41 114 76 207 79 207 3 0 36 -89 74 -198 38 -108 75 -207 82 -219
14 -22 44 -22 44 1 0 6 -41 127 -91 269 -73 204 -95 257 -109 257 -10 0 -21
-8 -25 -17z"/>
<path d="M7163 9788 c-11 -15 -183 -498 -183 -515 0 -14 24 -23 37 -15 5 4 42
99 82 212 40 113 76 209 80 213 4 4 42 -88 83 -205 64 -180 79 -213 97 -216
15 -2 21 2 21 15 0 11 -40 131 -89 268 -86 244 -103 275 -128 243z"/>
<path d="M8196 9792 c-3 -5 -46 -123 -95 -263 -72 -201 -88 -256 -78 -266 6
-7 18 -9 25 -4 7 4 43 95 81 202 38 107 74 205 78 218 8 20 22 -12 87 -197 43
-121 84 -223 91 -226 8 -3 18 1 24 8 16 19 -167 529 -191 534 -9 2 -19 -1 -22
-6z"/>
<path d="M9225 9788 c-128 -361 -175 -496 -175 -509 0 -21 26 -32 38 -16 5 7
42 105 83 219 40 115 76 205 80 200 4 -4 40 -97 79 -206 39 -110 75 -205 81
-212 12 -15 39 -8 39 10 0 6 -41 127 -91 269 -76 213 -95 257 -111 257 -10 0
-21 -6 -23 -12z"/>
<path d="M10172 9543 c-51 -142 -92 -263 -92 -269 0 -18 27 -24 40 -9 6 7 42
102 81 211 39 110 74 203 78 207 4 4 40 -86 81 -200 40 -114 77 -213 82 -220
12 -16 38 -5 38 16 0 9 -40 129 -89 266 -72 202 -92 251 -108 253 -17 3 -31
-30 -111 -255z"/>
<path d="M11296 9792 c-3 -6 -46 -124 -96 -263 -72 -203 -88 -256 -78 -266 7
-7 18 -9 25 -5 7 4 47 104 89 222 42 118 77 216 78 217 1 2 37 -96 80 -217 43
-120 84 -221 91 -224 8 -3 18 1 24 8 15 18 -167 529 -191 534 -9 2 -19 -1 -22
-6z"/>
<path d="M13351 9781 c-6 -10 -49 -128 -97 -262 -71 -200 -83 -244 -72 -255 7
-7 18 -10 24 -6 6 4 44 99 84 212 40 113 76 209 80 213 4 5 41 -88 83 -205 63
-179 78 -214 96 -216 15 -3 21 2 21 16 0 11 -40 132 -89 269 -89 249 -106 280
-130 234z"/>
<path d="M14380 9778 c-5 -13 -48 -131 -95 -263 -67 -190 -82 -242 -72 -252 6
-7 18 -9 24 -5 9 6 116 287 166 435 1 5 38 -89 81 -211 43 -121 84 -223 91
-226 8 -3 18 1 24 8 8 10 -12 77 -78 265 -50 138 -93 256 -96 261 -11 18 -35
11 -45 -12z"/>
<path d="M15415 9783 c-32 -81 -175 -494 -175 -506 0 -20 26 -29 38 -14 5 7
42 105 83 220 40 114 76 207 79 207 3 0 36 -89 74 -198 38 -108 75 -207 82
-219 14 -22 44 -22 44 1 0 6 -41 127 -91 269 -73 204 -95 257 -109 257 -10 0
-21 -8 -25 -17z"/>
<path d="M16453 9788 c-11 -15 -183 -498 -183 -515 0 -14 24 -23 37 -15 5 4
42 99 82 212 40 113 76 209 80 213 4 4 42 -88 83 -205 64 -180 79 -213 97
-216 15 -2 21 2 21 15 0 11 -40 131 -89 269 -87 242 -103 274 -128 242z"/>
<path d="M17487 9793 c-3 -5 -47 -123 -96 -263 -73 -204 -89 -257 -79 -267 7
-7 19 -9 25 -5 7 5 47 105 89 223 42 117 77 215 78 217 2 1 38 -97 80 -217 43
-121 84 -222 91 -225 8 -2 18 1 24 8 16 19 -167 529 -191 534 -9 2 -19 -1 -21
-5z"/>
<path d="M0 9654 c0 -59 8 -92 56 -224 30 -85 60 -160 65 -167 12 -14 39 -6
39 11 0 13 -149 438 -156 445 -2 2 -4 -27 -4 -65z"/>
<path d="M5611 8591 c-27 -49 -182 -504 -177 -517 3 -9 13 -14 23 -12 11 2 37
62 87 203 40 110 75 209 80 220 6 15 26 -32 86 -200 54 -153 82 -221 94 -223
9 -2 19 4 22 13 6 15 -159 497 -179 523 -13 17 -25 15 -36 -7z"/>
<path d="M12837 8603 c-18 -31 -187 -525 -182 -533 10 -16 33 -12 43 8 6 9 40
103 77 207 37 105 70 196 74 203 5 9 37 -68 81 -195 40 -114 78 -214 83 -220
12 -17 34 -17 40 0 6 16 -172 519 -187 529 -14 10 -24 10 -29 1z"/>
<path d="M9753 8592 c-20 -12 -196 -523 -185 -534 23 -23 41 5 87 134 26 73
61 171 78 217 l30 84 22 -59 c12 -32 48 -132 79 -221 46 -128 62 -163 76 -163
10 0 20 6 22 13 6 15 -168 507 -185 524 -7 7 -17 9 -24 5z"/>
<path d="M10778 8581 c-20 -33 -185 -506 -180 -518 2 -7 12 -13 22 -13 14 0
27 27 60 118 22 64 58 163 78 220 21 59 39 97 43 90 4 -7 37 -98 74 -203 37
-104 71 -198 77 -207 10 -20 33 -24 43 -8 9 14 -176 528 -192 534 -7 3 -18 -3
-25 -13z"/>
<path d="M362 8331 c-52 -144 -91 -265 -87 -271 10 -16 33 -12 43 8 6 9 40
103 77 207 37 105 70 196 74 203 4 7 13 -6 24 -35 124 -354 140 -393 157 -393
10 0 20 6 22 13 3 6 -36 127 -86 267 -76 212 -94 255 -111 258 -18 2 -31 -26
-113 -257z"/>
<path d="M1482 8573 c-41 -102 -178 -501 -174 -510 2 -7 12 -13 22 -13 14 0
30 35 76 163 31 89 67 189 79 221 l22 59 30 -84 c17 -46 52 -144 78 -217 27
-74 54 -136 62 -139 41 -16 33 20 -58 276 -76 214 -96 261 -111 261 -10 0 -22
-8 -26 -17z"/>
<path d="M2515 8578 c-2 -7 -43 -121 -90 -253 -47 -133 -85 -249 -85 -259 0
-12 6 -16 21 -14 18 3 33 35 97 216 42 116 79 212 82 212 3 0 39 -96 81 -212
54 -151 81 -214 92 -216 10 -2 20 3 23 11 4 11 -120 380 -171 510 -8 20 -43
23 -50 5z"/>
<path d="M3461 8330 c-91 -257 -99 -293 -58 -277 8 3 40 79 72 169 85 238 97
270 100 266 1 -2 35 -95 75 -208 40 -113 75 -211 77 -217 9 -23 43 -15 43 10
0 12 -40 132 -88 267 -73 203 -92 246 -108 248 -18 3 -31 -26 -113 -258z"/>
<path d="M4580 8568 c-34 -77 -176 -495 -172 -505 2 -7 12 -13 22 -13 14 0 34
46 96 220 43 121 79 218 81 216 2 -1 32 -85 68 -185 36 -100 72 -198 80 -217
13 -33 37 -44 50 -24 3 5 -36 126 -87 270 -75 210 -96 260 -110 260 -10 0 -23
-10 -28 -22z"/>
<path d="M6552 8330 c-51 -143 -90 -265 -87 -270 13 -20 37 -9 50 24 8 19 44
117 80 217 36 100 66 184 68 185 2 2 38 -95 81 -216 62 -174 82 -220 96 -220
10 0 20 6 23 13 2 6 -37 127 -87 267 -76 212 -95 255 -112 258 -18 3 -30 -26
-112 -258z"/>
<path d="M7669 8563 c-52 -134 -169 -476 -169 -492 0 -23 34 -30 43 -8 2 6 37
104 77 217 40 113 74 206 75 208 3 3 16 -32 110 -296 27 -74 54 -136 62 -139
40 -16 33 20 -58 276 -76 215 -95 261 -111 261 -11 0 -23 -11 -29 -27z"/>
<path d="M8705 8573 c-52 -132 -175 -498 -171 -510 3 -8 13 -13 23 -11 12 2
38 64 92 216 41 116 78 212 81 212 3 0 40 -96 81 -212 63 -176 79 -213 95
-213 10 0 20 7 21 15 2 8 -37 128 -86 265 -73 203 -93 251 -109 253 -11 2 -22
-4 -27 -15z"/>
<path d="M11805 8578 c-130 -365 -175 -496 -175 -511 0 -13 6 -17 21 -15 18 3
33 35 97 216 42 116 79 212 82 212 3 0 39 -96 81 -212 54 -151 81 -214 92
-216 10 -2 20 3 23 11 4 11 -115 365 -171 510 -8 20 -43 23 -50 5z"/>
<path d="M13859 8563 c-44 -113 -169 -478 -169 -494 0 -12 7 -19 19 -19 20 0
16 -11 125 294 l53 150 20 -55 c11 -30 46 -128 78 -217 32 -90 65 -166 72
-169 41 -16 34 20 -57 276 -77 215 -96 261 -112 261 -11 0 -23 -11 -29 -27z"/>
<path d="M14898 8578 c-66 -171 -178 -504 -174 -515 3 -8 14 -13 23 -11 12 2
38 62 92 216 42 116 78 212 81 212 3 0 40 -96 82 -212 64 -181 79 -213 97
-216 15 -2 21 2 21 15 0 10 -40 131 -89 268 -73 205 -92 251 -109 253 -11 2
-22 -3 -24 -10z"/>
<path d="M15842 8330 c-51 -143 -90 -265 -87 -270 10 -16 33 -12 44 8 5 9 39
103 76 207 37 105 70 196 74 203 4 7 23 -32 43 -90 20 -57 56 -156 78 -220 33
-91 46 -118 60 -118 10 0 20 6 23 13 2 6 -37 127 -87 267 -76 212 -95 255
-112 258 -18 3 -30 -26 -112 -258z"/>
<path d="M16966 8581 c-14 -22 -176 -492 -176 -510 0 -14 6 -21 19 -21 15 0
30 31 77 163 31 89 67 189 79 221 l22 59 30 -84 c17 -46 52 -144 78 -217 27
-74 54 -136 62 -139 40 -16 33 20 -58 276 -74 210 -96 261 -110 261 -10 0 -20
-4 -23 -9z"/>
<path d="M17995 8573 c-52 -131 -175 -498 -171 -510 3 -8 13 -13 23 -11 11 2
38 65 92 216 41 116 78 212 81 212 4 0 24 -51 46 -112 l39 -113 3 67 c2 54 -3
83 -27 150 -42 119 -41 118 -61 118 -10 0 -21 -8 -25 -17z"/>
<path d="M5093 7383 c-4 -10 -47 -128 -94 -263 -76 -212 -86 -247 -73 -260 9
-10 17 -11 24 -4 6 6 44 104 85 219 42 115 77 211 80 213 2 3 7 -1 10 -9 2 -8
37 -104 75 -214 39 -110 77 -203 83 -207 7 -4 18 -2 25 5 10 11 -4 61 -77 265
-49 139 -93 257 -96 262 -10 16 -35 12 -42 -7z"/>
<path d="M12312 7373 c-73 -202 -172 -488 -172 -498 0 -17 25 -26 37 -14 5 5
43 104 84 219 41 115 76 210 79 210 3 0 36 -89 74 -198 38 -108 75 -207 82
-219 15 -23 44 -22 44 2 0 7 -40 127 -90 266 -49 139 -90 254 -90 256 0 1 -9
3 -19 3 -12 0 -23 -11 -29 -27z"/>
<path d="M961 7348 c-9 -24 -53 -143 -96 -266 -77 -219 -83 -255 -43 -240 7 3
46 99 87 214 40 115 76 212 80 216 4 4 40 -87 81 -203 41 -116 80 -215 87
-220 15 -13 33 -3 33 18 0 20 -169 494 -182 511 -17 21 -28 14 -47 -30z"/>
<path d="M2003 7373 c-58 -149 -180 -509 -176 -520 9 -24 34 -13 48 21 8 19
44 117 80 217 36 100 67 184 69 186 2 2 29 -70 61 -159 32 -90 68 -188 80
-218 21 -54 47 -75 58 -47 3 8 -36 131 -87 273 -67 189 -97 260 -109 262 -9 2
-20 -5 -24 -15z"/>
<path d="M3042 7378 c-12 -16 -182 -492 -182 -512 0 -20 18 -30 33 -17 7 5 46
105 87 220 41 116 77 207 81 203 4 -4 40 -101 80 -216 41 -115 80 -211 87
-214 7 -2 18 0 24 6 8 8 -10 72 -67 234 -112 319 -116 328 -143 296z"/>
<path d="M4070 7371 c-25 -48 -181 -505 -176 -518 3 -8 13 -13 22 -11 12 2 39
64 90 208 41 113 77 212 80 220 3 9 29 -50 60 -135 29 -82 65 -183 80 -222 25
-71 47 -92 61 -57 6 15 -160 498 -179 522 -15 17 -26 15 -38 -7z"/>
<path d="M6132 7378 c-19 -25 -184 -507 -179 -523 11 -28 35 -15 51 28 9 23
45 123 80 222 49 138 66 175 72 160 5 -11 41 -110 80 -220 49 -138 77 -201 88
-203 9 -2 19 3 22 12 5 14 -160 498 -179 524 -5 6 -13 12 -17 12 -4 0 -12 -6
-18 -12z"/>
<path d="M7161 7373 c-5 -10 -48 -130 -96 -266 -87 -244 -94 -280 -53 -265 7
3 46 99 87 214 41 115 77 212 80 216 4 4 39 -86 80 -200 40 -114 79 -213 86
-221 15 -15 35 -7 35 15 0 21 -169 495 -182 511 -14 18 -26 16 -37 -4z"/>
<path d="M8193 7374 c-59 -156 -180 -511 -176 -521 8 -19 31 -16 43 6 10 19
150 410 150 420 1 16 24 -42 85 -214 37 -104 71 -198 77 -207 10 -21 36 -24
43 -5 3 6 -37 129 -88 272 -68 188 -98 261 -110 263 -9 2 -20 -4 -24 -14z"/>
<path d="M9232 7378 c-19 -24 -185 -507 -179 -522 14 -35 36 -14 61 57 15 39
51 140 80 222 31 85 57 144 60 135 3 -8 39 -107 80 -220 51 -144 78 -206 90
-208 9 -2 19 3 22 11 5 13 -152 472 -177 519 -11 21 -23 23 -37 6z"/>
<path d="M10261 7373 c-26 -50 -182 -507 -177 -520 3 -8 14 -13 23 -11 12 2
38 62 92 215 42 116 78 214 81 217 3 3 39 -89 80 -205 41 -115 80 -215 87
-220 15 -13 33 -3 33 17 0 20 -170 496 -182 512 -14 17 -26 15 -37 -5z"/>
<path d="M11289 7363 c-59 -152 -176 -499 -172 -510 9 -24 34 -13 48 21 8 19
44 117 80 217 36 100 67 184 69 186 2 2 29 -70 61 -159 32 -90 68 -188 80
-218 21 -54 47 -75 58 -47 3 8 -36 130 -87 273 -96 270 -113 299 -137 237z"/>
<path d="M13352 7373 c-5 -10 -49 -130 -97 -266 -87 -245 -94 -280 -53 -264 8
3 47 99 88 213 40 115 76 212 80 217 3 4 39 -86 79 -200 40 -115 79 -214 86
-222 15 -16 35 -7 35 17 0 21 -168 493 -182 509 -14 18 -26 16 -36 -4z"/>
<path d="M14385 7378 c-58 -152 -181 -516 -178 -525 9 -22 32 -14 46 15 8 15
44 114 82 220 41 116 71 188 75 180 4 -7 36 -92 70 -188 34 -96 68 -190 76
-207 13 -33 41 -44 49 -20 3 6 -37 129 -88 272 -68 193 -97 261 -110 263 -9 2
-19 -2 -22 -10z"/>
<path d="M15423 7378 c-13 -17 -183 -494 -183 -514 0 -20 30 -30 40 -13 5 7
42 107 82 221 40 114 76 204 79 200 4 -4 41 -101 82 -217 52 -149 79 -211 90
-213 10 -2 20 3 23 12 5 13 -150 468 -177 517 -11 22 -23 24 -36 7z"/>
<path d="M16451 7373 c-5 -10 -48 -130 -96 -266 -87 -244 -94 -280 -53 -265 7
3 46 99 87 214 41 115 77 212 80 216 4 4 39 -86 80 -200 40 -114 79 -213 86
-221 15 -15 35 -7 35 15 0 21 -169 496 -182 512 -14 17 -26 15 -37 -5z"/>
<path d="M17483 7374 c-61 -159 -180 -511 -176 -521 3 -8 13 -13 22 -11 18 4
29 31 116 277 35 99 61 158 65 150 4 -8 38 -99 75 -204 37 -104 71 -198 76
-207 11 -21 35 -23 42 -4 3 7 -36 130 -87 272 -67 189 -97 260 -109 262 -9 2
-20 -4 -24 -14z"/>
<path d="M1 7240 c0 -66 7 -93 58 -235 40 -110 63 -161 75 -163 9 -2 19 3 22
11 4 12 -97 316 -147 442 -5 13 -8 -8 -8 -55z"/>
<path d="M446 6158 c-7 -18 -51 -138 -96 -266 -82 -230 -88 -265 -47 -249 8 3
47 99 87 214 40 114 76 212 80 216 4 4 40 -86 80 -200 40 -114 79 -215 86
-223 12 -13 16 -13 28 0 12 13 1 51 -79 275 -98 275 -112 299 -139 233z"/>
<path d="M1485 6178 c-182 -509 -183 -513 -169 -528 12 -13 16 -13 28 0 7 8
46 109 86 223 40 114 76 204 80 200 4 -4 40 -102 80 -216 40 -115 79 -211 87
-214 43 -16 35 19 -58 279 -70 196 -98 264 -112 266 -9 2 -19 -2 -22 -10z"/>
<path d="M2523 6178 c-20 -26 -185 -508 -180 -523 11 -28 35 -15 51 28 9 23
45 123 80 222 58 163 65 178 75 155 6 -14 42 -113 80 -220 47 -134 74 -196 85
-198 9 -2 19 4 22 12 6 15 -159 497 -179 524 -5 6 -13 12 -17 12 -4 0 -12 -6
-17 -12z"/>
<path d="M3552 6173 c-5 -10 -49 -130 -97 -266 -87 -245 -94 -280 -53 -264 8
3 47 99 88 213 40 115 76 213 80 217 4 4 39 -86 80 -200 40 -114 78 -214 85
-222 16 -16 35 -7 35 17 0 13 -142 421 -175 505 -4 9 -13 17 -21 17 -7 0 -17
-8 -22 -17z"/>
<path d="M4585 6178 c-3 -7 -45 -125 -94 -263 -78 -217 -88 -252 -75 -265 12
-13 16 -13 27 0 8 8 47 109 87 223 50 144 76 204 81 194 5 -8 36 -93 70 -188
34 -96 67 -189 75 -206 13 -33 40 -44 50 -20 2 7 -37 129 -88 272 -69 193 -98
261 -111 263 -9 2 -19 -2 -22 -10z"/>
<path d="M5613 6178 c-19 -26 -185 -510 -179 -524 3 -9 13 -14 22 -12 11 2 39
65 88 203 39 110 75 209 80 220 6 15 23 -22 72 -160 35 -99 71 -199 80 -222
16 -43 40 -56 51 -28 5 16 -160 498 -179 523 -6 6 -14 12 -18 12 -4 0 -12 -6
-17 -12z"/>
<path d="M6646 6182 c-2 -4 -46 -124 -97 -266 -90 -253 -98 -289 -56 -273 7 3
44 92 82 199 38 106 74 204 80 217 11 21 19 3 85 -185 40 -115 79 -216 86
-224 12 -13 16 -13 28 0 13 13 2 49 -78 275 -88 245 -110 289 -130 257z"/>
<path d="M7675 6178 c-2 -7 -43 -121 -90 -252 -47 -132 -85 -247 -85 -257 0
-24 19 -34 35 -18 7 8 45 108 85 222 40 114 76 204 80 200 4 -4 40 -102 80
-217 41 -114 80 -210 88 -213 41 -16 34 19 -53 264 -48 136 -92 256 -97 266
-10 20 -37 23 -43 5z"/>
<path d="M8713 6178 c-20 -26 -185 -509 -179 -524 3 -8 13 -14 22 -12 11 2 38
64 85 198 38 107 74 206 80 220 10 23 17 8 75 -155 35 -99 71 -199 80 -222 16
-43 40 -56 50 -28 6 15 -160 498 -179 523 -5 6 -13 12 -17 12 -4 0 -12 -6 -17
-12z"/>
<path d="M9736 6158 c-7 -18 -51 -138 -96 -266 -82 -230 -89 -265 -47 -249 8
3 47 99 87 214 40 114 76 212 80 216 4 4 40 -86 80 -200 40 -114 79 -215 86
-223 12 -13 16 -13 28 0 12 13 1 51 -79 275 -98 275 -112 299 -139 233z"/>
<path d="M10775 6178 c-3 -7 -45 -125 -94 -263 -77 -216 -87 -252 -75 -265 12
-13 16 -13 28 0 7 8 46 109 86 223 40 114 76 204 80 200 4 -4 40 -102 80 -216
40 -115 79 -211 87 -214 42 -16 34 19 -58 279 -70 196 -98 264 -112 266 -9 2
-19 -2 -22 -10z"/>
<path d="M11813 6178 c-20 -26 -185 -508 -180 -523 11 -28 35 -15 51 28 9 23
45 123 80 222 58 163 65 178 75 155 6 -14 42 -113 80 -220 48 -136 73 -196 85
-198 9 -2 19 4 22 12 6 15 -159 497 -179 524 -5 6 -13 12 -17 12 -4 0 -12 -6
-17 -12z"/>
<path d="M12836 6182 c-18 -29 -186 -523 -181 -532 12 -20 36 -9 49 23 8 17
42 111 76 207 34 96 66 181 70 188 4 9 36 -68 80 -192 40 -114 79 -214 86
-224 11 -15 14 -15 28 -2 13 13 4 45 -78 275 -88 247 -110 290 -130 257z"/>
<path d="M13872 6177 c-14 -16 -182 -488 -182 -509 0 -24 20 -33 35 -17 7 8
45 107 86 221 40 115 76 205 80 200 3 -4 39 -101 79 -215 41 -115 80 -211 87
-214 42 -16 35 19 -52 264 -108 306 -106 302 -133 270z"/>
<path d="M14903 6178 c-20 -27 -185 -509 -179 -524 3 -8 13 -14 22 -12 12 2
38 62 85 198 38 107 74 206 80 220 10 23 17 7 75 -155 35 -99 71 -199 80 -222
16 -43 40 -56 50 -28 6 15 -159 498 -179 523 -5 6 -13 12 -17 12 -4 0 -12 -6
-17 -12z"/>
<path d="M15926 6158 c-7 -18 -51 -138 -96 -266 -81 -230 -88 -265 -47 -249 7
3 44 92 82 199 38 106 74 204 80 217 11 21 19 3 85 -185 40 -115 79 -216 86
-224 12 -13 16 -13 28 0 12 13 1 50 -79 275 -98 276 -112 299 -139 233z"/>
<path d="M16965 6178 c-182 -509 -183 -513 -169 -528 12 -13 16 -13 28 0 7 8
46 108 86 223 40 114 76 205 79 202 3 -3 39 -101 81 -218 63 -179 78 -212 95
-212 11 0 21 7 22 15 1 8 -39 130 -90 270 -68 189 -96 256 -110 258 -9 2 -19
-2 -22 -10z"/>
<path d="M18003 6178 c-20 -26 -185 -508 -179 -524 3 -8 13 -14 22 -12 12 2
39 68 93 220 42 120 78 218 81 218 3 0 23 -53 45 -117 l40 -117 3 69 c2 57 -3
85 -29 160 -32 90 -45 115 -59 115 -4 0 -12 -6 -17 -12z"/>
<path d="M5095 4988 c-96 -267 -175 -497 -175 -510 0 -24 19 -33 35 -17 7 8
45 108 85 222 47 134 76 204 81 194 5 -7 40 -103 79 -213 39 -109 75 -203 81
-209 6 -6 15 -4 24 6 14 13 5 44 -77 274 -70 194 -97 261 -111 263 -9 2 -19
-2 -22 -10z"/>
<path d="M12323 4988 c-19 -25 -185 -509 -179 -523 6 -16 15 -19 32 -7 6 4 44
100 84 215 40 114 76 207 80 207 4 0 40 -92 80 -205 40 -112 78 -209 86 -216
15 -12 34 -4 34 14 0 17 -171 500 -183 515 -5 6 -13 12 -17 12 -4 0 -12 -6
-17 -12z"/>
<path d="M973 4978 c-11 -15 -183 -498 -183 -515 0 -14 24 -23 37 -15 5 4 42
99 82 212 40 113 76 209 80 213 4 4 40 -86 81 -200 40 -114 78 -214 85 -222
16 -16 35 -7 35 17 0 9 -40 130 -89 267 -86 243 -103 275 -128 243z"/>
<path d="M2006 4982 c-3 -5 -46 -123 -95 -263 -80 -224 -89 -255 -76 -268 10
-10 18 -12 25 -5 5 5 37 86 70 179 95 267 92 260 101 243 5 -8 40 -104 79
-214 38 -109 75 -203 80 -208 7 -7 15 -5 25 5 14 13 5 43 -78 274 -65 184 -97
261 -109 263 -9 2 -19 -1 -22 -6z"/>
<path d="M3035 4978 c-129 -362 -175 -496 -175 -510 0 -24 19 -33 35 -17 7 8
45 107 86 221 40 115 76 205 80 200 4 -4 40 -99 80 -212 40 -113 77 -208 82
-212 13 -8 37 1 37 15 0 16 -172 500 -183 515 -5 6 -16 12 -24 12 -7 0 -16 -6
-18 -12z"/>
<path d="M4073 4978 c-11 -15 -183 -498 -183 -514 0 -18 27 -24 40 -9 6 7 42
102 81 211 39 110 74 202 78 206 4 5 40 -85 80 -200 40 -114 79 -213 86 -221
15 -16 35 -7 35 16 0 12 -143 423 -175 506 -8 20 -28 22 -42 5z"/>
<path d="M6125 4973 c-35 -91 -175 -495 -175 -507 0 -20 18 -30 33 -17 7 5 46
105 87 220 41 116 77 211 80 211 3 0 36 -89 74 -198 37 -108 75 -207 82 -219
14 -22 44 -22 44 1 0 6 -41 127 -91 269 -73 204 -95 257 -109 257 -10 0 -21
-8 -25 -17z"/>
<path d="M7161 4971 c-14 -26 -181 -496 -181 -509 0 -13 24 -22 37 -14 6 4 43
99 83 212 39 113 75 209 79 213 5 4 41 -86 81 -200 40 -114 78 -214 85 -222
16 -16 35 -7 35 18 0 9 -40 129 -89 267 -89 250 -106 280 -130 235z"/>
<path d="M8190 4968 c-5 -13 -48 -131 -95 -263 -74 -211 -83 -241 -70 -254 10
-10 18 -12 25 -5 8 8 159 418 160 434 1 16 27 -48 90 -226 39 -109 75 -203 81
-209 6 -6 15 -4 24 6 14 13 5 44 -77 274 -96 267 -114 299 -138 243z"/>
<path d="M9216 4948 c-68 -182 -166 -466 -166 -480 0 -24 19 -33 35 -17 7 8
45 107 86 221 40 114 76 205 79 203 4 -2 40 -98 80 -212 40 -114 78 -211 83
-215 14 -8 37 1 37 16 0 16 -172 499 -183 514 -18 23 -35 12 -51 -30z"/>
<path d="M10263 4978 c-11 -15 -183 -498 -183 -515 0 -14 24 -23 37 -15 5 4
42 99 82 212 40 113 76 208 80 212 4 5 40 -85 80 -200 41 -114 79 -213 86
-221 16 -16 35 -7 35 17 0 9 -40 130 -89 267 -86 243 -103 275 -128 243z"/>
<path d="M11297 4983 c-3 -5 -47 -123 -96 -263 -81 -226 -89 -256 -76 -269 10
-10 18 -12 25 -5 5 5 42 99 80 208 39 110 74 206 79 214 9 17 6 24 101 -243
33 -93 65 -174 70 -179 7 -7 15 -5 25 5 13 13 4 45 -78 274 -66 185 -97 261
-109 263 -9 2 -19 -1 -21 -5z"/>
<path d="M13351 4973 c-13 -25 -181 -499 -181 -511 0 -13 24 -22 37 -14 6 4
43 99 83 212 40 113 76 209 80 213 4 4 40 -86 80 -200 40 -114 79 -214 86
-222 15 -16 34 -6 34 18 0 10 -40 130 -89 267 -88 249 -106 281 -130 237z"/>
<path d="M14379 4963 c-6 -15 -48 -134 -94 -263 -74 -205 -82 -237 -70 -250
10 -10 18 -11 25 -4 6 6 44 104 85 219 41 114 77 210 79 213 3 3 8 -1 11 -9 2
-8 36 -104 75 -214 39 -109 76 -203 83 -207 7 -4 18 -1 25 6 10 10 -4 60 -80
272 -97 271 -114 300 -139 237z"/>
<path d="M15415 4973 c-32 -81 -175 -495 -175 -507 0 -22 20 -30 35 -15 7 8
46 107 86 221 41 114 77 204 81 200 4 -4 39 -97 78 -206 39 -110 75 -205 81
-212 12 -15 39 -8 39 10 0 6 -41 127 -91 269 -73 204 -95 257 -109 257 -10 0
-21 -8 -25 -17z"/>
<path d="M16451 4972 c-14 -27 -181 -495 -181 -509 0 -14 24 -23 37 -15 5 4
43 99 82 212 40 113 76 209 80 213 4 4 40 -86 81 -200 40 -114 78 -214 85
-222 16 -16 35 -7 35 17 0 9 -40 130 -89 267 -89 250 -106 282 -130 237z"/>
<path d="M17480 4968 c-5 -13 -48 -131 -95 -263 -74 -211 -83 -241 -70 -254
10 -10 18 -12 25 -5 8 8 159 418 160 434 1 16 27 -48 90 -226 39 -109 75 -203
81 -209 6 -6 15 -4 24 6 14 13 5 43 -78 274 -95 267 -113 299 -137 243z"/>
<path d="M1 4845 c-1 -61 6 -90 55 -225 30 -85 60 -160 65 -167 12 -14 39 -6
39 12 0 9 -130 381 -154 438 -2 7 -5 -20 -5 -58z"/>
<path d="M5602 3763 c-100 -280 -172 -488 -172 -500 0 -9 8 -13 22 -11 20 3
32 30 98 215 41 117 77 213 80 213 3 0 40 -96 82 -212 64 -181 79 -213 97
-216 15 -2 21 2 21 15 0 10 -40 131 -89 268 -73 204 -93 251 -109 253 -14 2
-23 -5 -30 -25z"/>
<path d="M12825 3756 c-41 -97 -174 -489 -169 -497 3 -5 13 -9 23 -9 13 0 34
48 95 220 44 121 80 219 81 218 2 -2 38 -101 80 -220 62 -175 81 -218 96 -218
10 0 20 4 23 9 3 5 -36 125 -87 267 -99 278 -113 300 -142 230z"/>
<path d="M361 3519 c-90 -255 -98 -291 -58 -276 8 3 28 43 45 89 16 46 51 143
77 217 l48 133 22 -58 c12 -33 48 -132 79 -221 46 -128 62 -163 76 -163 10 0
20 6 22 13 3 6 -36 127 -86 267 -76 211 -95 256 -112 258 -17 3 -30 -27 -113
-259z"/>
<path d="M1482 3763 c-45 -113 -178 -501 -174 -510 2 -7 12 -13 22 -13 19 0
17 -6 126 302 27 76 52 132 55 125 4 -7 37 -97 74 -202 37 -104 71 -198 76
-207 11 -20 34 -24 44 -8 3 5 -36 127 -86 270 -76 212 -96 260 -111 260 -10 0
-22 -8 -26 -17z"/>
<path d="M2515 3763 c-34 -87 -175 -495 -175 -508 0 -11 7 -15 22 -13 18 3 32
33 97 216 41 116 78 212 81 212 3 0 39 -96 81 -212 65 -184 78 -213 97 -216
15 -2 22 2 22 13 0 13 -133 396 -177 513 -7 18 -40 15 -48 -5z"/>
<path d="M3461 3519 c-91 -256 -99 -292 -58 -276 8 3 35 65 62 139 26 73 61
171 78 217 l30 84 53 -149 c109 -305 105 -294 125 -294 13 0 19 7 18 23 0 12
-39 132 -87 267 -73 203 -91 246 -108 248 -18 3 -31 -26 -113 -259z"/>
<path d="M4586 3772 c-15 -25 -185 -516 -180 -523 3 -5 13 -9 24 -9 14 0 27
25 60 118 22 64 58 163 78 220 20 57 39 97 43 90 3 -7 39 -106 80 -220 57
-163 77 -208 90 -208 10 0 20 4 24 9 3 6 -36 127 -87 270 -72 204 -96 261
-110 261 -9 0 -19 -4 -22 -8z"/>
<path d="M6552 3519 c-92 -256 -99 -292 -59 -276 16 6 19 13 112 276 l59 164
21 -59 c12 -32 48 -132 80 -221 45 -128 61 -163 75 -163 10 0 20 6 22 13 3 6
-36 127 -86 267 -75 210 -95 255 -111 258 -18 2 -31 -28 -113 -259z"/>
<path d="M7669 3753 c-45 -117 -169 -477 -169 -493 0 -24 35 -28 44 -5 3 8 38
106 77 218 40 111 73 203 74 205 3 3 16 -32 110 -296 27 -74 54 -136 62 -139
41 -16 33 20 -58 276 -76 214 -96 261 -111 261 -11 0 -23 -11 -29 -27z"/>
<path d="M8705 3763 c-37 -96 -175 -496 -175 -508 0 -11 7 -15 22 -13 18 3 32
34 97 216 42 116 78 212 81 212 3 0 40 -96 81 -212 65 -183 79 -213 97 -216
15 -2 22 2 22 13 0 13 -141 422 -175 508 -4 9 -15 17 -25 17 -10 0 -21 -8 -25
-17z"/>
<path d="M9652 3520 c-51 -143 -90 -265 -87 -270 10 -16 33 -12 44 8 5 9 39
103 76 207 37 105 70 195 74 202 3 7 28 -49 55 -125 111 -311 107 -302 127
-302 13 0 19 7 19 23 0 12 -40 132 -88 267 -72 200 -92 246 -108 248 -17 2
-31 -29 -112 -258z"/>
<path d="M10772 3763 c-45 -113 -178 -501 -174 -510 2 -7 12 -13 22 -13 14 0
30 35 76 163 31 89 67 188 79 221 l22 58 48 -133 c26 -74 61 -171 77 -217 17
-46 37 -86 45 -89 40 -15 32 21 -58 276 -76 213 -96 261 -111 261 -10 0 -22
-8 -26 -17z"/>
<path d="M11796 3738 c-70 -189 -166 -466 -166 -481 0 -13 6 -17 22 -15 18 3
32 34 97 216 41 116 77 212 81 212 3 0 39 -96 80 -212 66 -184 79 -213 98
-216 15 -2 22 2 22 12 0 12 -135 403 -175 509 -13 32 -42 20 -59 -25z"/>
<path d="M13861 3758 c-54 -142 -171 -483 -171 -498 0 -13 7 -20 19 -20 21 0
17 -11 114 264 l64 180 20 -55 c11 -30 46 -128 78 -217 32 -90 64 -166 72
-169 41 -16 33 20 -57 276 -77 216 -96 261 -112 261 -10 0 -22 -10 -27 -22z"/>
<path d="M14870 3693 c-121 -335 -153 -434 -142 -445 6 -6 17 -8 24 -6 7 3 47
101 88 217 41 116 77 211 80 211 3 0 40 -96 82 -212 64 -181 79 -213 97 -216
15 -2 21 2 21 15 0 15 -96 292 -166 481 -26 69 -46 58 -84 -45z"/>
<path d="M15842 3520 c-51 -143 -90 -265 -87 -270 16 -26 41 -8 59 43 10 28
46 128 79 221 l61 169 21 -59 c12 -32 48 -132 80 -221 45 -128 61 -163 75
-163 10 0 20 6 22 13 3 6 -36 127 -86 267 -76 212 -95 255 -111 258 -18 2 -31
-27 -113 -258z"/>
<path d="M16959 3753 c-52 -134 -169 -476 -169 -492 0 -14 6 -21 19 -21 20 0
16 -9 127 302 27 76 52 132 55 125 4 -7 37 -97 74 -202 37 -104 71 -198 77
-207 10 -20 33 -24 43 -8 3 5 -36 127 -86 270 -76 212 -96 260 -111 260 -11 0
-23 -11 -29 -27z"/>
<path d="M17995 3763 c-34 -86 -175 -495 -175 -508 0 -11 7 -15 22 -13 18 3
32 34 97 216 42 116 78 212 81 212 3 0 24 -51 45 -112 l40 -113 3 67 c2 54 -3
83 -27 150 -42 119 -41 118 -61 118 -10 0 -21 -8 -25 -17z"/>
<path d="M5102 2577 c-18 -21 -190 -510 -185 -524 3 -7 11 -13 18 -13 21 0 30
19 105 233 47 133 76 203 81 195 4 -8 36 -93 69 -189 34 -96 68 -189 75 -206
14 -33 41 -44 50 -20 7 16 -177 529 -191 534 -6 2 -16 -2 -22 -10z"/>
<path d="M12323 2578 c-20 -26 -185 -509 -179 -524 3 -9 13 -14 22 -12 12 2
39 66 92 216 41 116 78 212 82 212 4 0 41 -96 82 -212 53 -151 80 -214 92
-216 9 -2 19 3 22 12 6 15 -159 498 -179 524 -5 6 -13 12 -17 12 -4 0 -12 -6
-17 -12z"/>
<path d="M971 2563 c-5 -10 -48 -130 -96 -266 -87 -245 -94 -280 -53 -264 8 2
45 92 82 198 38 107 73 205 78 219 9 22 16 7 64 -125 29 -82 65 -183 80 -222
25 -71 47 -92 61 -57 6 15 -160 498 -179 522 -14 17 -26 15 -37 -5z"/>
<path d="M2013 2572 c-14 -10 -195 -521 -188 -533 10 -15 34 -10 45 10 5 11
41 108 80 217 61 172 80 221 80 203 0 -10 140 -401 150 -420 11 -20 35 -25 45
-10 7 13 -176 529 -191 535 -6 2 -15 1 -21 -2z"/>
<path d="M3042 2568 c-19 -24 -185 -507 -179 -522 14 -35 36 -14 61 57 15 39
51 140 80 222 48 132 55 147 64 125 5 -14 40 -112 78 -219 38 -106 75 -196 82
-199 41 -15 34 21 -53 265 -107 304 -106 303 -133 271z"/>
<path d="M4071 2563 c-26 -50 -182 -507 -177 -520 3 -8 14 -13 23 -11 12 2 38
63 92 215 42 116 78 214 81 217 3 2 38 -88 78 -202 40 -114 77 -214 82 -221
10 -17 40 -7 40 13 0 20 -170 497 -183 514 -13 17 -25 15 -36 -5z"/>
<path d="M6133 2568 c-20 -26 -185 -508 -180 -523 11 -28 35 -15 51 28 9 23
45 123 80 222 36 100 67 173 70 165 3 -8 39 -107 80 -220 51 -144 78 -206 90
-208 9 -2 19 3 22 11 5 13 -150 469 -176 518 -12 22 -24 24 -37 7z"/>
<path d="M7162 2563 c-5 -10 -49 -130 -97 -266 -87 -245 -94 -280 -52 -264 7
3 46 99 87 214 40 114 76 211 79 215 4 4 40 -87 81 -203 41 -115 77 -215 81
-221 10 -15 39 -2 39 18 0 21 -169 495 -182 512 -14 17 -26 15 -36 -5z"/>
<path d="M8204 2572 c-15 -10 -193 -513 -187 -529 9 -22 32 -14 46 15 8 15 44
114 82 220 37 106 69 191 71 189 2 -2 33 -86 69 -186 36 -100 72 -198 80 -217
14 -34 41 -46 50 -21 6 16 -177 529 -190 534 -6 1 -15 -1 -21 -5z"/>
<path d="M9233 2568 c-13 -17 -183 -494 -183 -514 0 -20 30 -30 40 -13 5 7 42
107 82 221 40 114 76 204 79 200 4 -4 40 -101 80 -216 41 -115 80 -211 87
-214 7 -2 18 0 24 6 8 8 -10 72 -67 234 -112 319 -117 328 -142 296z"/>
<path d="M10251 2538 c-9 -24 -53 -143 -96 -266 -77 -219 -83 -255 -43 -240 7
3 44 93 82 199 38 107 73 205 78 219 9 22 16 7 64 -125 29 -82 65 -183 80
-222 25 -71 47 -92 61 -57 6 15 -160 498 -179 522 -17 21 -28 14 -47 -30z"/>
<path d="M11291 2558 c-5 -13 -48 -133 -96 -267 -85 -238 -92 -273 -52 -258
16 6 19 13 112 275 32 89 59 161 61 159 3 -2 36 -93 74 -201 39 -109 75 -206
80 -217 12 -22 35 -25 43 -6 6 16 -171 519 -187 529 -18 12 -26 9 -35 -14z"/>
<path d="M13346 2548 c-7 -18 -51 -138 -96 -266 -82 -230 -89 -265 -48 -249 8
3 45 92 83 198 37 107 72 205 77 219 11 29 8 37 112 -257 47 -132 62 -163 77
-163 13 0 19 7 19 21 0 24 -167 498 -182 516 -17 21 -28 15 -42 -19z"/>
<path d="M14394 2572 c-15 -10 -193 -513 -187 -529 6 -17 28 -17 40 0 5 6 43
106 83 220 44 127 76 204 81 195 4 -7 37 -98 74 -203 37 -104 71 -198 77 -207
10 -21 36 -24 43 -5 6 15 -177 530 -190 534 -6 1 -15 -1 -21 -5z"/>
<path d="M15423 2568 c-20 -25 -185 -508 -179 -523 10 -28 34 -15 50 28 9 23
45 123 80 222 36 100 67 173 70 165 3 -8 39 -107 80 -220 51 -144 78 -206 90
-208 9 -2 19 3 22 11 5 13 -151 470 -176 518 -12 22 -24 24 -37 7z"/>
<path d="M16452 2563 c-5 -10 -49 -130 -97 -266 -87 -245 -94 -280 -52 -264 7
3 46 99 87 214 40 114 76 211 79 215 4 4 40 -87 81 -202 40 -115 77 -215 81
-221 9 -16 39 -4 39 16 0 20 -169 497 -182 513 -14 17 -26 15 -36 -5z"/>
<path d="M17493 2572 c-15 -10 -192 -514 -186 -529 9 -22 32 -14 46 15 8 15
44 114 82 220 37 106 69 191 71 189 2 -2 33 -86 69 -186 36 -100 72 -198 80
-217 13 -33 37 -44 50 -24 8 12 -176 528 -190 534 -7 2 -16 1 -22 -2z"/>
<path d="M1 2430 c0 -66 7 -94 58 -235 40 -113 62 -161 74 -163 9 -2 20 3 23
11 3 8 -31 116 -75 238 l-80 224 0 -75z"/>
<path d="M5552 1213 c-125 -353 -128 -363 -112 -373 9 -5 19 -5 26 1 6 5 45
104 85 219 41 115 76 210 79 210 3 0 39 -96 81 -212 65 -182 79 -213 97 -216
15 -2 22 2 22 13 0 13 -141 422 -175 508 -4 9 -15 17 -25 17 -14 0 -31 -36
-78 -167z"/>
<path d="M12826 1348 c-8 -18 -50 -136 -95 -262 -61 -170 -78 -232 -70 -242 6
-7 16 -11 24 -8 7 3 48 104 91 225 l77 221 22 -59 c12 -32 48 -131 79 -220 47
-130 62 -163 77 -163 10 0 20 4 23 8 3 5 -36 125 -87 268 -98 277 -113 300
-141 232z"/>
<path d="M452 1353 c-5 -10 -49 -130 -97 -266 -73 -204 -86 -250 -74 -258 8
-5 19 -7 24 -6 6 2 44 99 85 215 42 116 78 214 82 217 3 3 38 -88 78 -202 40
-114 79 -215 87 -223 11 -13 15 -13 27 0 12 13 2 50 -78 275 -93 260 -111 293
-134 248z"/>
<path d="M1485 1358 c-3 -7 -45 -125 -94 -263 -78 -217 -88 -252 -75 -265 12
-13 16 -13 27 0 8 8 47 109 87 223 40 114 75 205 79 201 3 -3 40 -101 81 -217
41 -116 80 -212 85 -214 6 -1 16 1 24 6 12 8 -1 54 -74 258 -48 136 -92 256
-97 266 -10 20 -36 23 -43 5z"/>
<path d="M2460 1198 c-118 -329 -126 -356 -113 -369 23 -23 40 10 114 221 41
116 76 210 79 210 3 0 38 -95 79 -210 40 -115 80 -215 87 -221 15 -12 34 -4
34 16 0 18 -171 497 -183 513 -23 29 -37 5 -97 -160z"/>
<path d="M3552 1353 c-5 -10 -49 -130 -98 -266 -72 -205 -85 -250 -73 -258 8
-5 18 -7 24 -6 5 2 43 98 85 215 41 116 78 213 81 216 3 4 39 -87 79 -201 40
-115 79 -214 86 -222 15 -16 34 -6 34 18 0 10 -40 130 -89 267 -88 248 -106
281 -129 237z"/>
<path d="M4583 1354 c-3 -9 -46 -127 -94 -263 -76 -214 -86 -248 -73 -261 10
-10 17 -11 25 -3 6 6 44 105 85 219 41 114 76 209 79 212 2 3 7 -1 10 -9 2 -8
36 -104 75 -214 39 -110 75 -204 81 -210 6 -6 15 -4 24 6 14 14 6 42 -77 275
-69 193 -97 260 -111 262 -9 2 -20 -4 -24 -14z"/>
<path d="M6646 1362 c-3 -6 -47 -124 -96 -263 -81 -226 -89 -254 -75 -268 9
-10 18 -12 24 -6 5 6 42 100 81 210 39 110 73 206 75 214 3 8 8 12 10 9 3 -3
38 -98 79 -212 41 -114 79 -213 85 -219 8 -8 15 -7 25 3 13 13 2 49 -78 275
-88 248 -110 290 -130 257z"/>
<path d="M7675 1358 c-65 -176 -175 -496 -175 -509 0 -24 19 -34 34 -18 7 8
46 107 86 222 40 114 76 205 79 201 3 -3 40 -101 81 -216 41 -116 80 -213 85
-215 6 -1 16 1 24 6 12 8 0 52 -73 258 -49 136 -93 256 -98 266 -10 20 -36 23
-43 5z"/>
<path d="M8713 1358 c-12 -16 -183 -495 -183 -514 0 -19 19 -27 34 -15 7 6 47
106 87 221 41 115 76 210 79 210 3 0 38 -95 79 -210 74 -212 91 -244 114 -221
9 9 5 33 -22 109 -150 430 -161 455 -188 420z"/>
<path d="M9742 1353 c-5 -10 -49 -130 -98 -266 -73 -206 -85 -250 -73 -258 8
-5 19 -7 24 -6 6 2 44 98 85 214 41 116 78 214 81 217 4 4 39 -87 79 -201 40
-114 79 -215 87 -223 11 -13 15 -13 27 0 13 13 2 49 -78 275 -93 259 -111 293
-134 248z"/>
<path d="M10775 1358 c-3 -7 -45 -125 -94 -263 -79 -221 -88 -252 -75 -265 14
-13 17 -13 28 2 7 10 46 110 86 223 40 114 76 203 80 198 4 -4 40 -102 80
-216 40 -114 77 -210 83 -214 5 -3 15 1 23 9 13 12 4 45 -67 244 -44 126 -87
244 -95 262 -13 32 -40 43 -49 20z"/>
<path d="M11750 1198 c-118 -329 -126 -356 -113 -369 9 -9 16 -9 26 -1 8 7 47
106 88 222 41 115 76 210 79 210 3 0 38 -94 78 -210 41 -115 80 -214 88 -220
15 -13 34 -5 34 15 0 18 -171 497 -183 513 -23 29 -37 5 -97 -160z"/>
<path d="M13865 1358 c-2 -7 -43 -121 -90 -252 -47 -132 -85 -247 -85 -257 0
-24 19 -34 34 -18 7 8 46 107 86 222 40 114 76 205 79 201 3 -3 40 -100 81
-216 42 -117 80 -213 85 -215 6 -1 16 1 24 6 12 8 1 48 -64 233 -43 123 -87
242 -96 266 -18 41 -45 56 -54 30z"/>
<path d="M14903 1358 c-12 -15 -183 -498 -183 -515 0 -18 19 -26 34 -13 8 6
47 105 88 220 40 115 75 210 78 210 3 0 38 -95 79 -210 41 -116 80 -215 88
-222 10 -8 17 -8 26 1 13 13 5 40 -113 369 -60 165 -74 189 -97 160z"/>
<path d="M15935 1361 c-3 -6 -47 -124 -96 -263 -78 -218 -88 -254 -75 -266 8
-8 18 -12 23 -9 6 4 43 100 83 214 40 114 76 212 80 216 4 5 40 -84 80 -198
40 -113 79 -213 86 -223 11 -15 14 -15 28 -2 13 13 4 45 -78 275 -89 250 -109
290 -131 256z"/>
<path d="M16965 1358 c-80 -219 -175 -494 -175 -508 0 -25 19 -36 34 -19 7 8
46 108 86 222 40 114 75 205 79 201 3 -3 40 -101 81 -217 41 -116 80 -212 85
-214 6 -1 16 1 24 6 12 8 0 52 -73 258 -49 136 -93 256 -98 266 -10 20 -37 23
-43 5z"/>
<path d="M18003 1358 c-12 -16 -183 -495 -183 -514 0 -19 19 -27 34 -15 7 6
47 106 87 221 41 115 76 210 79 210 3 0 24 -53 47 -118 l42 -117 0 72 c1 57
-6 91 -30 160 -32 88 -45 113 -59 113 -4 0 -12 -6 -17 -12z"/>
<path d="M12323 168 c-6 -7 -19 -40 -31 -73 -11 -33 -23 -68 -27 -77 -6 -15
-2 -18 19 -18 21 0 29 7 37 30 14 38 22 38 36 0 8 -22 18 -30 37 -30 l25 0
-24 69 c-37 109 -50 127 -72 99z"/>
</g>
</svg>
