<?xml version="1.0" standalone="no"?>
<!DOCTYPE svg PUBLIC "-//W3C//DTD SVG 20010904//EN"
 "http://www.w3.org/TR/2001/REC-SVG-20010904/DTD/svg10.dtd">
<svg version="1.0" xmlns="http://www.w3.org/2000/svg"
 width="1125.000000pt" height="900.000000pt" viewBox="0 0 1125.000000 900.000000"
 preserveAspectRatio="xMidYMid meet">
<metadata>
Created by potrace 1.13, written by Peter Selinger 2001-2015
</metadata>
<g transform="translate(0.000000,900.000000) scale(0.100000,-0.100000)"
fill="#000000" stroke="none">
<path d="M0 4500 l0 -4500 5625 0 5625 0 0 4500 0 4500 -5625 0 -5625 0 0
-4500z m1770 4447 c0 -22 -54 -90 -98 -126 -23 -17 -74 -47 -114 -65 -142 -65
-136 -65 -858 -68 l-655 -3 -3 124 c-1 69 0 131 2 138 8 20 1726 19 1726 0z
m2754 4 c3 -5 -7 -26 -23 -48 -63 -88 -171 -154 -311 -192 -73 -20 -105 -21
-980 -23 -1011 -3 -941 -8 -1107 68 -93 42 -213 154 -213 199 0 9 2628 6 2634
-4z m2836 1 c0 -22 -64 -101 -107 -133 -66 -50 -116 -74 -220 -105 l-88 -27
-940 -1 c-1052 -1 -981 -5 -1145 72 -95 44 -210 152 -210 197 0 3 610 5 1355
5 745 0 1355 -4 1355 -8z m3110 -5 c0 -22 -53 -90 -96 -124 -57 -45 -156 -92
-238 -113 -66 -17 -144 -19 -956 -25 -495 -3 -989 -2 -1120 3 -227 9 -238 10
-319 40 -46 17 -105 45 -131 62 -73 47 -160 147 -143 164 3 3 681 6 1505 6
1251 0 1498 -2 1498 -13z m735 -127 l0 -135 -100 0 c-210 0 -426 98 -507 230
-10 17 -18 33 -18 38 0 4 141 6 313 5 l312 -3 0 -135z m-9279 -22 c22 -20 66
-53 98 -72 l60 -36 -255 0 -254 0 54 30 c77 43 135 93 172 150 l32 49 27 -42
c15 -23 45 -59 66 -79z m2688 88 c25 -48 101 -119 170 -160 l60 -36 -258 0
-259 0 52 28 c69 37 142 101 177 156 16 25 31 46 34 46 3 0 14 -15 24 -34z
m5988 -71 c26 -28 75 -67 110 -88 l63 -37 -250 0 -250 0 54 30 c76 42 135 93
168 145 28 44 28 44 43 22 8 -12 36 -45 62 -72z m-3156 42 c34 -47 95 -100
164 -140 l45 -27 -244 0 -245 0 60 36 c64 38 136 103 162 147 9 15 19 27 22
27 3 0 20 -19 36 -43z m-6959 -243 c-3 -3 -30 -18 -59 -34 -29 -15 -58 -37
-63 -47 -6 -11 -15 -18 -21 -16 -14 5 -98 -88 -116 -127 -7 -17 -15 -30 -18
-30 -3 0 -12 15 -19 33 -8 17 -45 63 -83 101 -63 64 -81 99 -61 119 3 4 105 7
226 7 121 0 218 -3 214 -6z m1935 -18 c137 -35 221 -78 300 -156 53 -53 69
-77 82 -120 20 -67 20 -83 0 -150 -32 -108 -171 -211 -353 -263 -75 -21 -91
-22 -886 -25 -708 -2 -820 -1 -888 13 -99 20 -167 46 -239 89 -40 24 -59 31
-67 23 -8 -8 -11 -6 -11 7 0 10 -14 34 -31 54 -48 54 -73 118 -72 182 0 67 20
115 67 168 20 22 36 46 36 55 0 9 8 15 18 15 9 -1 36 10 60 25 53 34 126 63
217 87 65 18 125 19 871 19 l801 1 95 -24z m638 -13 c-63 -36 -159 -122 -193
-173 -16 -24 -17 -25 -28 -5 -26 45 -140 145 -198 174 -33 17 -61 33 -61 36 0
3 123 5 273 5 l272 0 -65 -37z m2452 13 c442 -112 532 -461 164 -637 -51 -25
-120 -48 -180 -60 -93 -19 -133 -19 -1139 -17 l-1042 3 -75 23 c-223 69 -354
195 -353 341 1 70 22 119 76 178 74 81 173 134 322 173 66 18 131 19 1101 19
l1031 1 95 -24z m698 19 c0 -2 -22 -16 -48 -29 -73 -37 -149 -101 -185 -156
-17 -27 -34 -50 -37 -50 -3 0 -14 16 -25 36 -26 49 -110 123 -183 162 -34 18
-62 35 -62 38 0 2 122 4 270 4 149 0 270 -2 270 -5z m2092 -19 c137 -35 221
-78 299 -156 131 -130 133 -259 5 -385 -70 -69 -158 -116 -280 -148 -80 -22
-90 -22 -1001 -22 l-920 0 -85 28 c-219 74 -340 193 -340 338 0 113 82 215
234 289 167 82 118 79 1112 79 l881 1 95 -24z m698 20 c0 -2 -24 -16 -54 -31
-68 -34 -151 -107 -187 -163 l-27 -43 -21 35 c-32 52 -126 133 -192 167 -33
16 -59 31 -59 34 0 3 122 5 270 5 149 0 270 -2 270 -4z m2105 -36 l100 -35 3
-291 c2 -229 0 -294 -11 -302 -7 -6 -53 -23 -102 -39 l-90 -28 -900 0 -900 0
-80 23 c-224 65 -358 193 -358 341 0 123 108 246 276 312 152 61 109 58 1077
56 l885 -2 100 -35z m-11006 -167 c73 -82 88 -188 40 -279 -22 -41 -77 -104
-91 -104 -4 0 -8 97 -8 215 0 123 4 215 9 215 5 0 28 -21 50 -47z m130 -311
c15 -36 91 -121 111 -124 8 -2 21 -11 28 -21 7 -9 39 -31 70 -47 l57 -29 -227
-1 -228 0 0 28 c0 21 14 39 58 79 32 28 69 71 82 97 14 25 28 46 31 46 4 0 12
-13 18 -28z m5818 -112 c28 -25 77 -60 109 -78 l59 -31 -275 0 -275 0 68 36
c84 45 149 102 183 159 l26 44 27 -42 c15 -24 50 -63 78 -88z m-3091 -6 c24
-20 71 -51 106 -70 l63 -34 -275 0 -275 0 59 30 c77 39 140 91 183 152 l35 48
30 -45 c17 -25 50 -61 74 -81z m5891 -9 c21 -16 65 -44 98 -62 l60 -33 -275 0
-275 0 59 30 c75 38 138 90 183 151 l36 48 38 -52 c21 -29 55 -65 76 -82z
m-6957 -159 c0 -1 -29 -18 -64 -35 -78 -40 -155 -106 -193 -166 -15 -25 -31
-45 -34 -45 -4 0 -12 13 -19 30 -19 45 -131 144 -204 180 -36 18 -66 34 -66
36 0 2 131 4 290 4 160 0 290 -2 290 -4z m2660 0 c0 -2 -29 -18 -65 -35 -79
-39 -167 -118 -205 -184 l-28 -50 -22 44 c-32 62 -119 141 -208 188 l-77 40
303 1 c166 0 302 -2 302 -4z m2683 -35 c-91 -48 -153 -98 -190 -155 l-29 -44
-41 53 c-49 63 -90 95 -186 146 l-72 38 295 0 295 0 -72 -38z m3062 7 c-97
-49 -173 -117 -221 -196 l-21 -34 -13 33 c-22 53 -121 142 -207 187 l-78 41
300 0 300 0 -60 -31z m-9075 -12 c165 -54 270 -131 316 -229 79 -172 -41 -348
-295 -431 -134 -44 -177 -47 -701 -44 l-495 3 -3 368 -2 368 547 -3 548 -3 85
-29z m2590 14 c105 -26 230 -85 292 -139 96 -85 128 -213 79 -313 -52 -109
-210 -209 -390 -248 -90 -20 -120 -21 -905 -18 l-811 3 -98 34 c-169 58 -291
158 -322 264 -19 63 -19 81 0 144 37 124 194 232 410 282 22 5 397 9 850 10
782 1 813 0 895 -19z m2782 -4 c251 -64 403 -209 385 -367 -17 -141 -152 -258
-372 -321 l-80 -23 -895 0 -895 0 -98 34 c-153 53 -259 130 -310 226 -33 62
-31 165 5 226 60 102 195 189 354 228 75 19 121 20 945 20 l866 1 95 -24z
m3028 4 c105 -26 230 -85 292 -139 96 -85 128 -213 79 -313 -52 -108 -210
-209 -386 -248 -86 -19 -130 -20 -1081 -20 l-991 0 -97 24 c-238 61 -386 195
-386 351 0 119 72 211 224 286 168 82 102 78 1246 78 987 1 1017 0 1100 -19z
m1588 -347 l-3 -368 -308 -3 c-282 -2 -316 -1 -395 18 -173 41 -326 141 -377
245 -27 55 -27 165 0 220 47 96 179 185 341 229 86 24 102 25 417 25 l327 1
-2 -367z m-6841 -254 c33 -30 88 -69 122 -86 l64 -33 -299 0 -299 1 70 36 c79
40 181 136 209 197 l18 38 28 -49 c16 -27 55 -74 87 -104z m-2653 -5 c31 -28
84 -65 118 -82 l61 -32 -289 0 -289 0 68 38 c88 48 148 100 188 161 l32 50 27
-42 c15 -23 52 -65 84 -93z m8381 82 c42 -64 96 -110 185 -160 l65 -36 -290 1
-290 0 66 34 c77 40 170 120 201 176 12 21 23 39 24 39 2 0 19 -24 39 -54z
m-2979 -84 c24 -20 74 -54 111 -74 l68 -38 -285 0 -285 0 42 20 c91 41 197
130 229 193 l15 28 31 -46 c17 -25 50 -63 74 -83z m-6520 -209 c-80 -43 -168
-120 -207 -181 -25 -40 -27 -41 -33 -19 -14 56 -118 148 -233 207 l-58 29 300
0 300 0 -69 -36z m1939 9 c122 -35 233 -93 294 -153 70 -69 91 -115 91 -204 0
-59 -5 -78 -30 -121 -54 -95 -170 -170 -336 -216 -78 -22 -89 -23 -858 -26
-692 -2 -787 -1 -860 14 -264 53 -428 189 -428 354 0 167 166 304 443 365 52
11 204 13 834 12 769 -2 770 -2 850 -25z m640 -10 c-88 -47 -144 -91 -184
-147 l-31 -44 -78 78 c-51 51 -101 90 -147 114 l-70 36 290 0 290 0 -70 -37z
m2480 9 c122 -34 233 -92 294 -152 68 -67 95 -125 95 -204 1 -149 -139 -275
-376 -338 l-83 -22 -1075 0 -1075 0 -80 23 c-170 49 -302 138 -345 234 -26 58
-26 158 0 216 46 102 196 199 380 247 l95 24 1045 -2 1045 -3 80 -23z m649 -9
c-89 -47 -151 -98 -189 -156 -16 -25 -32 -46 -35 -46 -3 0 -13 13 -23 29 -28
48 -129 134 -203 173 l-69 37 295 0 295 0 -71 -37z m2211 10 c244 -69 391
-204 389 -357 -2 -150 -141 -275 -376 -338 l-83 -22 -940 0 -940 0 -80 23
c-234 67 -369 193 -369 342 0 156 153 290 404 355 l95 24 910 -2 910 -3 80
-22z m660 -10 c-95 -50 -149 -96 -194 -163 l-38 -56 -18 34 c-28 52 -132 144
-210 185 l-70 37 300 0 300 0 -70 -37z m1965 25 l65 -12 3 -348 2 -347 -27
-13 c-22 -9 -229 -12 -888 -12 l-860 0 -80 23 c-236 68 -369 192 -369 342 0
156 153 290 404 355 l95 24 795 0 c580 0 813 -3 860 -12z m-10989 -103 c179
-108 230 -282 125 -423 -43 -58 -183 -151 -227 -151 -5 0 -9 129 -9 311 l0
311 28 -7 c15 -4 52 -22 83 -41z m321 -519 c30 -28 84 -65 119 -83 l64 -32
-285 1 -285 0 65 32 c77 38 185 135 202 183 l12 34 27 -43 c14 -23 51 -65 81
-92z m8509 74 c38 -56 129 -130 204 -165 l50 -24 -288 0 -288 0 65 34 c86 45
149 98 188 157 17 27 32 49 33 49 1 0 17 -23 36 -51z m-2861 -9 c40 -56 121
-121 195 -156 l50 -24 -283 0 -283 0 67 35 c87 45 145 94 181 150 15 24 30 44
33 44 3 0 21 -22 40 -49z m-3092 -44 c44 -46 106 -90 165 -116 l42 -20 -278 0
-278 0 65 34 c81 43 145 94 182 147 l28 41 19 -23 c10 -13 35 -41 55 -63z
m-1698 -224 c239 -64 383 -194 383 -347 0 -153 -145 -284 -385 -348 -81 -22
-94 -22 -683 -22 l-600 0 -3 360 c-1 198 0 366 3 373 4 10 119 12 602 9 582
-3 600 -4 683 -25z m635 -10 c-66 -34 -178 -132 -204 -177 -11 -20 -12 -19
-28 5 -37 56 -133 138 -204 173 l-74 37 290 0 290 -1 -70 -37z m2170 10 c107
-30 230 -90 287 -141 92 -82 124 -208 78 -309 -45 -100 -184 -195 -355 -243
-80 -23 -80 -23 -970 -26 l-890 -4 -100 26 c-228 57 -378 177 -401 322 -22
138 116 290 322 357 139 45 132 45 1064 43 883 -2 885 -2 965 -25z m649 -6
c-80 -41 -171 -118 -199 -170 -11 -20 -22 -36 -25 -36 -3 0 -18 20 -34 45 -35
57 -96 107 -189 156 l-72 38 294 1 294 0 -69 -34z m2196 6 c193 -52 340 -159
374 -272 20 -67 20 -83 0 -150 -33 -113 -184 -222 -374 -273 l-85 -22 -920 0
-920 0 -80 23 c-174 50 -311 145 -356 248 -87 195 82 386 401 455 79 17 145
18 980 16 894 -3 895 -3 980 -25z m635 -10 c-66 -34 -178 -132 -204 -177 -11
-20 -12 -19 -28 5 -39 59 -132 138 -202 173 l-74 37 289 0 289 -1 -70 -37z
m2465 10 c239 -64 383 -194 383 -347 0 -153 -145 -284 -385 -348 l-83 -22
-1050 0 -1050 0 -80 23 c-222 64 -354 177 -380 324 -24 131 118 286 320 352
141 45 123 44 1210 42 l1030 -2 85 -22z m647 -9 c-81 -43 -160 -111 -198 -171
l-27 -42 -26 44 c-35 60 -115 128 -201 171 l-70 35 295 0 295 -1 -68 -36z
m478 -338 l0 -370 -80 -3 c-60 -2 -105 4 -180 23 -286 72 -443 240 -391 419
48 165 319 309 571 303 l80 -2 0 -370z m-666 -175 c40 -62 97 -111 186 -161
l70 -39 -294 0 -294 0 69 35 c84 42 165 111 200 171 14 24 27 44 28 44 2 0 17
-22 35 -50z m-8764 4 c27 -50 114 -126 194 -168 l66 -35 -289 -1 -289 0 69 34
c80 41 171 118 199 170 11 20 22 36 25 36 3 0 14 -16 25 -36z m2825 -16 c38
-57 127 -127 205 -164 l50 -24 -295 1 -295 0 50 23 c77 36 166 107 205 164 19
28 37 51 40 51 3 0 21 -23 40 -51z m2908 -78 c26 -21 77 -55 115 -75 l69 -35
-292 0 -293 0 70 35 c81 40 151 98 194 162 l31 44 30 -46 c16 -25 51 -63 76
-85z m-7100 -196 c-27 -13 -48 -29 -48 -35 0 -6 -4 -8 -9 -5 -18 11 -127 -85
-160 -141 -10 -16 -13 -15 -38 17 -15 19 -47 53 -70 74 -33 30 -43 46 -43 71
0 17 3 35 7 38 3 4 97 7 207 7 l201 -1 -47 -25z m1977 -3 c174 -50 292 -127
353 -231 34 -57 37 -153 7 -215 -50 -104 -185 -193 -360 -237 -90 -22 -92 -22
-905 -22 -813 0 -815 0 -899 22 -46 13 -110 36 -141 51 -42 21 -61 26 -69 18
-8 -8 -11 -5 -11 11 0 12 -4 22 -8 22 -17 0 -103 95 -122 135 -27 57 -27 154
1 212 11 23 45 65 75 92 30 27 54 55 54 61 0 6 6 10 13 7 6 -2 32 6 57 18 56
28 125 50 210 69 54 12 202 14 865 12 800 -2 800 -2 880 -25z m630 -9 c-67
-35 -162 -118 -198 -172 -16 -24 -17 -25 -28 -5 -29 50 -138 143 -208 178
l-74 37 289 0 289 -1 -70 -37z m2490 9 c174 -50 292 -127 353 -231 39 -66 38
-155 -3 -229 -57 -103 -179 -181 -350 -222 -89 -21 -101 -21 -1150 -23 l-1060
-1 -83 23 c-167 45 -304 138 -353 239 -29 60 -29 146 0 205 41 85 161 176 286
218 150 50 119 49 1235 46 l1045 -2 80 -23z m651 -9 c-80 -42 -173 -124 -201
-176 -11 -20 -22 -36 -25 -36 -3 0 -14 16 -25 36 -29 54 -126 138 -206 178
l-72 36 299 0 299 -1 -69 -37z m2119 10 c113 -31 235 -94 292 -150 199 -194
67 -443 -282 -532 -77 -20 -109 -21 -970 -23 l-890 -2 -79 23 c-232 65 -369
190 -370 337 -1 167 158 299 435 360 53 11 217 13 924 12 855 -2 860 -3 940
-25z m670 4 c-78 -36 -171 -111 -207 -166 -18 -27 -35 -50 -38 -50 -3 0 -18
21 -35 46 -38 58 -100 109 -189 156 l-71 37 295 0 295 0 -50 -23z m2045 4
c132 -27 209 -57 215 -84 3 -11 4 -140 3 -286 l-3 -265 -35 -17 c-19 -9 -75
-27 -125 -39 -90 -22 -94 -22 -975 -23 l-885 0 -90 28 c-168 51 -281 131 -331
232 -23 47 -26 63 -22 119 11 133 121 242 308 305 142 48 147 48 1020 49 782
1 830 0 920 -19z m-10891 -204 c30 -41 35 -59 41 -123 7 -86 -4 -128 -47 -181
-52 -64 -53 -62 -53 158 0 224 1 227 59 146z m5855 -301 c27 -50 105 -124 178
-167 l62 -38 -265 0 -264 0 65 37 c73 41 160 124 179 172 8 17 16 31 20 31 4
0 15 -16 25 -35z m2761 4 c12 -36 126 -142 190 -176 l60 -32 -265 0 -265 0 59
32 c73 39 155 113 181 161 22 41 31 45 40 15z m-5905 1 c0 -23 124 -139 180
-169 33 -18 60 -34 60 -37 0 -2 -114 -4 -252 -4 l-253 0 60 35 c78 43 145 103
170 149 19 34 35 47 35 26z m-2469 -158 c7 2 20 -3 29 -11 9 -9 25 -21 36 -28
15 -10 -20 -12 -171 -10 l-190 2 -3 26 c-2 21 8 37 51 78 30 28 59 62 66 75
13 23 14 22 91 -56 44 -44 85 -78 91 -76z m763 -143 c170 -43 301 -130 351
-234 81 -166 -26 -338 -264 -425 -155 -57 -202 -60 -696 -58 l-450 3 -3 360
c-1 198 0 366 3 374 5 12 77 13 492 7 443 -6 494 -8 567 -27z m2698 1 c465
-118 517 -504 89 -660 -166 -61 -168 -61 -1062 -58 l-814 3 -88 28 c-176 55
-291 136 -343 244 -23 46 -26 63 -22 118 12 138 116 239 323 311 110 39 235
43 1117 38 690 -3 719 -4 800 -24z m2843 2 c512 -138 509 -554 -5 -694 l-85
-23 -910 0 c-1027 0 -964 -4 -1140 80 -350 168 -303 490 90 623 79 27 82 27
445 33 201 3 626 5 945 4 560 -2 583 -3 660 -23z m2710 19 c204 -7 213 -8 310
-42 205 -71 315 -183 315 -321 0 -153 -150 -287 -390 -351 l-85 -22 -965 0
-965 0 -84 23 c-157 43 -283 121 -342 213 -29 45 -34 64 -37 124 -3 61 0 79
21 121 49 96 155 173 312 225 66 22 89 24 405 29 520 9 1273 9 1505 1z m1850
-366 l0 -370 -335 0 c-320 0 -339 1 -415 23 -172 50 -294 130 -348 230 -98
181 17 353 303 453 58 20 92 23 300 29 129 4 294 6 365 6 l130 -1 0 -370z
m-9475 334 c-80 -46 -137 -95 -173 -150 -18 -27 -34 -49 -37 -49 -3 0 -14 16
-25 36 -25 47 -102 116 -179 159 l-61 35 265 0 265 0 -55 -31z m2711 1 c-93
-51 -157 -112 -207 -196 -9 -15 -13 -12 -37 28 -33 56 -101 118 -182 163 l-60
35 270 0 270 0 -54 -30z m2835 -2 c-75 -41 -149 -108 -182 -164 l-26 -44 -27
42 c-36 57 -115 126 -187 166 l-59 31 270 0 270 0 -59 -31z m2964 -3 c-74 -40
-150 -110 -187 -172 l-25 -43 -40 61 c-43 64 -110 121 -193 163 l-50 25 280 1
280 0 -65 -35z m-182 -488 c37 -66 104 -126 197 -178 l70 -39 -300 0 -300 1
75 39 c84 45 180 134 206 191 9 22 18 39 20 39 1 0 16 -24 32 -53z m-5804 -1
c35 -60 126 -141 205 -181 l66 -34 -300 0 -300 0 59 30 c111 56 194 130 227
202 7 15 13 27 15 27 1 0 14 -20 28 -44z m-2627 -97 c28 -25 82 -62 120 -82
l68 -36 -295 0 -295 0 71 37 c96 51 144 91 189 156 l38 55 27 -42 c14 -23 49
-63 77 -88z m5480 75 c52 -69 101 -110 186 -155 l72 -38 -295 0 -295 0 68 36
c82 44 155 107 193 168 16 24 29 43 30 42 1 -1 19 -25 41 -53z m-6523 -284
c-72 -36 -140 -91 -184 -147 l-32 -43 -28 38 c-39 54 -101 104 -178 146 l-67
35 274 1 274 0 -59 -30z m1940 2 c204 -59 338 -167 367 -296 37 -168 -125
-332 -394 -396 -78 -19 -120 -20 -858 -20 -742 0 -779 1 -855 20 -230 58 -387
200 -387 350 -1 154 143 282 384 345 l94 24 785 -2 785 -2 79 -23z m636 -7
c-80 -40 -162 -112 -196 -171 l-26 -44 -28 42 c-43 66 -109 125 -191 168 l-74
39 290 0 290 0 -65 -34z m2525 2 c49 -16 116 -42 148 -60 227 -120 273 -325
109 -479 -64 -60 -119 -90 -232 -130 l-95 -33 -1082 -3 c-1071 -2 -1084 -2
-1165 18 -234 60 -388 199 -388 349 0 153 147 285 384 347 l91 23 1070 -2
1070 -2 90 -28z m637 13 c-96 -43 -193 -127 -231 -198 -12 -23 -13 -23 -43 23
-39 58 -99 110 -185 157 l-68 38 285 0 285 0 -43 -20z m2323 -13 c49 -16 117
-43 150 -60 71 -37 153 -116 179 -171 23 -48 26 -136 8 -193 -28 -86 -137
-180 -269 -229 -145 -55 -127 -54 -1167 -54 -1088 0 -1032 -4 -1203 80 -334
164 -294 487 77 612 141 47 120 46 1155 45 l980 -2 90 -28z m595 0 c-62 -30
-190 -142 -203 -177 -5 -12 -10 -10 -23 10 -38 54 -124 127 -193 163 l-73 37
278 0 279 0 -65 -33z m1948 15 l22 -13 -2 -347 -3 -347 -30 -6 c-16 -4 -394
-7 -838 -8 -787 -1 -811 0 -890 20 -171 43 -315 140 -364 244 -45 98 -25 207
54 289 77 79 160 123 308 162 l90 23 815 -2 c645 -2 820 -5 838 -15z m-11056
-73 c72 -36 152 -109 179 -161 14 -28 19 -58 19 -120 0 -98 -12 -125 -83 -197
-48 -49 -181 -126 -198 -115 -5 3 -9 142 -9 315 0 271 2 309 15 309 9 0 43
-14 77 -31z m2859 -479 c45 -57 98 -100 174 -140 l57 -30 -283 0 -284 0 65 36
c90 51 139 94 180 158 29 45 37 52 45 39 6 -9 26 -37 46 -63z m3178 -40 c36
-36 93 -80 126 -97 l60 -32 -279 -1 -279 0 62 32 c74 38 169 122 196 172 l20
37 14 -23 c8 -13 44 -52 80 -88z m-5719 0 c36 -36 92 -80 125 -97 l60 -32
-269 -1 -269 0 62 31 c73 37 188 140 198 177 6 25 7 25 17 7 6 -11 40 -49 76
-85z m8601 64 c21 -40 122 -127 187 -162 l57 -31 -270 0 -270 0 51 25 c75 38
144 93 184 147 19 26 38 47 41 47 3 0 12 -12 20 -26z m-2051 -288 c101 -27
219 -89 274 -143 69 -68 100 -139 93 -214 -13 -144 -144 -257 -372 -321 -80
-23 -81 -23 -987 -26 -880 -3 -909 -2 -1000 18 -308 67 -477 269 -382 458 46
92 140 160 296 214 l93 33 795 5 c902 6 1095 2 1190 -24z m-5561 -14 c210 -73
323 -186 325 -322 1 -152 -139 -280 -376 -343 -82 -22 -93 -22 -713 -22 l-630
0 -3 363 -2 363 652 -3 653 -3 94 -33z m577 6 c-73 -40 -151 -109 -187 -166
l-28 -44 -15 31 c-36 69 -108 132 -213 186 l-48 24 275 0 275 0 -59 -31z
m2138 8 c519 -132 492 -577 -42 -686 -101 -20 -123 -21 -965 -18 l-862 3 -88
28 c-49 15 -110 38 -136 51 -117 60 -203 159 -217 252 -23 154 137 312 376
374 71 18 118 19 956 19 l881 1 97 -24z m631 -2 c-79 -41 -152 -100 -189 -155
l-34 -51 -16 29 c-22 44 -123 133 -191 170 l-60 32 270 0 270 0 -50 -25z
m2858 11 c-43 -18 -143 -87 -169 -116 -12 -13 -33 -41 -47 -62 l-25 -37 -22
34 c-30 50 -117 126 -186 163 l-59 32 270 0 c240 0 266 -1 238 -14z m2437 -5
c215 -52 370 -180 387 -318 18 -157 -127 -298 -377 -364 l-85 -23 -1055 0
-1055 0 -83 22 c-114 31 -201 74 -267 135 -73 67 -105 129 -105 206 0 148 137
276 363 338 l82 23 1055 0 c1027 1 1057 0 1140 -19z m617 -18 c-69 -38 -172
-130 -183 -164 -8 -25 -18 -23 -35 8 -21 41 -119 126 -184 161 l-60 32 265 1
265 0 -68 -38z m511 -324 l-3 -363 -110 1 c-310 2 -565 169 -565 368 0 101 88
210 223 276 118 58 209 79 345 79 l112 1 -2 -362z m-9351 -201 c31 -43 96 -94
176 -138 l52 -29 -280 0 -280 0 51 29 c108 59 176 120 214 190 12 24 13 24 26
5 7 -10 26 -36 41 -57z m2794 -39 c31 -31 85 -72 120 -90 l64 -33 -132 -3
c-72 -1 -194 -1 -270 0 l-138 3 60 32 c71 36 154 109 186 160 l23 36 15 -24
c8 -13 40 -50 72 -81z m2843 -3 c34 -33 87 -73 119 -89 31 -15 57 -30 57 -32
0 -2 -123 -4 -272 -4 l-273 1 68 36 c79 42 156 107 188 160 l23 36 15 -24 c8
-13 42 -51 75 -84z m3040 55 c30 -46 110 -112 178 -146 26 -13 48 -27 48 -29
0 -3 -120 -5 -267 -5 l-268 1 68 36 c78 42 147 99 177 148 12 19 25 35 29 35
5 0 20 -18 35 -40z m-10098 -277 c-38 -21 -71 -45 -73 -54 -3 -10 -11 -15 -17
-13 -16 6 -91 -74 -113 -121 -9 -19 -19 -35 -22 -35 -3 0 -17 21 -31 46 -13
26 -50 69 -82 97 -43 38 -58 58 -58 78 0 14 3 29 7 32 3 4 108 7 232 7 l226
-1 -69 -36z m1980 12 c182 -46 320 -135 374 -241 33 -65 34 -160 3 -219 -33
-63 -124 -142 -206 -180 -160 -73 -110 -69 -1022 -73 -587 -2 -837 0 -880 8
-85 17 -188 54 -247 90 -28 17 -57 29 -64 26 -8 -3 -14 1 -14 10 0 9 -13 32
-30 50 -79 90 -96 195 -48 289 14 28 38 61 52 74 14 14 26 33 26 42 0 12 5 16
15 13 8 -3 28 4 44 16 49 34 156 79 239 100 72 17 127 19 868 19 l791 1 99
-25z m651 -13 c-86 -47 -152 -103 -187 -159 l-28 -43 -35 48 c-43 60 -107 113
-189 158 l-63 34 285 0 285 0 -68 -38z m2437 13 c418 -106 535 -411 233 -606
-62 -40 -174 -81 -272 -99 -42 -8 -375 -10 -1110 -8 l-1050 3 -96 32 c-206 70
-322 188 -322 328 0 117 83 221 237 295 170 82 111 78 1262 79 l1021 1 97 -25z
m667 -5 c-87 -48 -154 -104 -191 -158 -19 -29 -38 -52 -42 -52 -4 0 -10 9 -13
21 -12 38 -119 135 -195 177 l-75 42 285 0 285 0 -54 -30z m2086 16 c332 -70
514 -278 414 -474 -30 -59 -123 -140 -204 -177 -161 -73 -105 -70 -1137 -70
l-925 0 -75 23 c-209 66 -335 179 -348 315 -16 166 134 307 403 377 65 18 128
19 937 19 719 1 878 -1 935 -13z m690 -24 c-86 -48 -152 -103 -187 -159 l-28
-44 -31 44 c-42 61 -108 117 -188 160 l-68 36 285 1 285 0 -68 -38z m2130 7
c44 -14 93 -33 107 -42 l26 -17 0 -285 c0 -330 12 -297 -125 -337 l-80 -23
-910 0 -910 0 -96 32 c-325 111 -422 353 -215 539 62 56 186 117 291 143 77
19 113 20 955 18 l875 -2 82 -26z m-10988 -164 c99 -113 103 -243 10 -348 -22
-26 -45 -47 -50 -47 -5 0 -9 92 -9 215 0 120 4 215 9 215 5 0 23 -16 40 -35z
m209 -418 c20 -20 42 -35 48 -33 7 3 14 -3 16 -12 3 -9 33 -32 68 -50 l63 -32
-227 0 -226 0 0 25 c0 18 18 42 61 83 34 31 72 76 86 100 l26 43 24 -43 c13
-24 41 -60 61 -81z m2656 -23 c25 -21 74 -54 107 -71 l61 -33 -269 0 -268 1
59 32 c69 37 156 113 187 163 l21 35 28 -44 c15 -24 49 -62 74 -83z m3041 56
c41 -52 85 -87 158 -126 l62 -34 -274 0 -274 0 60 30 c73 36 142 96 185 158
28 41 33 44 42 28 6 -10 25 -35 41 -56z m2839 -56 c25 -21 74 -54 107 -71 l61
-33 -269 0 -268 1 59 32 c69 37 156 113 187 163 l21 35 28 -44 c15 -24 49 -62
74 -83z m-7225 -171 c0 -5 -27 -21 -60 -36 -73 -35 -171 -124 -208 -189 l-28
-49 -13 31 c-31 75 -134 169 -237 217 -29 14 -53 26 -53 29 0 2 135 4 300 4
165 0 300 -3 299 -7z m2691 3 c0 -3 -31 -21 -69 -41 -79 -42 -142 -92 -181
-147 l-28 -38 -32 43 c-45 58 -113 112 -187 149 -35 17 -63 32 -63 34 0 2 126
4 280 4 154 0 280 -2 280 -4z m2910 0 c0 -3 -28 -20 -62 -37 -39 -20 -93 -63
-140 -110 l-76 -76 -34 44 c-37 51 -132 123 -202 154 -25 11 -46 22 -46 24 0
3 126 5 280 5 154 0 280 -2 280 -4z m3060 0 c0 -1 -29 -18 -65 -36 -76 -38
-172 -122 -200 -174 -11 -20 -22 -36 -25 -36 -3 0 -20 23 -37 50 -38 58 -113
120 -195 161 -32 16 -58 31 -58 34 0 3 131 5 290 5 160 0 290 -2 290 -4z
m-9340 -44 c168 -57 260 -124 311 -227 27 -55 31 -72 27 -122 -6 -76 -31 -127
-93 -188 -63 -62 -143 -105 -260 -142 l-90 -27 -390 -1 -390 0 -3 373 -2 373
397 -3 398 -3 95 -33z m2730 0 c116 -40 185 -79 244 -136 68 -66 83 -105 82
-206 -1 -74 -5 -92 -29 -133 -51 -87 -171 -162 -332 -209 l-80 -23 -865 0
c-970 0 -912 -4 -1077 75 -373 177 -296 524 142 646 l80 23 870 -2 870 -2 95
-33z m2900 4 c161 -54 259 -120 310 -209 26 -46 30 -62 30 -130 0 -96 -16
-133 -85 -202 -61 -61 -141 -105 -260 -142 l-90 -28 -963 -3 c-943 -3 -964 -2
-1050 18 -162 39 -303 123 -364 219 -25 41 -28 53 -28 136 0 83 3 95 28 136
60 94 171 165 334 214 l83 24 985 -2 985 -2 85 -29z m2980 14 c243 -59 400
-198 400 -355 0 -170 -170 -308 -448 -364 -36 -7 -380 -11 -1046 -11 l-993 0
-95 24 c-52 13 -125 39 -163 57 -83 41 -176 124 -204 183 -28 57 -28 164 -1
224 43 96 186 192 352 238 l83 23 1015 0 c987 1 1017 0 1100 -19z m1668 -352
l-3 -373 -345 -3 c-320 -3 -352 -1 -437 18 -306 70 -476 278 -380 466 53 104
173 186 347 238 84 25 90 25 453 25 l367 1 -2 -372z m-9860 -161 c38 -67 111
-133 199 -180 l68 -36 -295 -1 -295 0 52 29 c117 64 181 125 219 205 10 20 19
36 20 36 1 0 16 -24 32 -53z m8657 -13 c27 -50 114 -126 194 -168 l66 -35
-285 0 -285 0 70 37 c72 38 188 143 200 181 9 30 18 26 40 -15z m-5869 -109
c21 -16 66 -44 99 -62 l60 -33 -270 0 -270 0 52 29 c84 46 150 99 184 146 l31
44 37 -47 c21 -26 55 -60 77 -77z m2825 99 c22 -43 117 -123 188 -159 l66 -34
-275 0 -275 -1 65 36 c82 46 140 94 175 144 15 22 31 40 35 40 3 0 13 -12 21
-26z m-4881 -282 c131 -40 218 -89 291 -161 50 -50 70 -79 84 -120 21 -63 16
-136 -13 -184 l-18 -32 -1190 0 -1189 0 -3 187 -2 188 40 29 c47 34 147 76
245 102 66 17 118 18 875 16 l805 -2 75 -23z m662 -6 c-102 -55 -165 -109
-212 -182 l-26 -42 -28 44 c-38 60 -116 128 -200 175 l-71 39 300 0 300 0 -63
-34z m2348 6 c172 -53 313 -149 360 -248 30 -61 31 -168 4 -215 l-20 -34
-1424 0 -1424 0 -20 35 c-30 51 -29 159 3 219 55 106 212 207 386 250 77 19
115 20 1070 18 l990 -2 75 -23z m640 -8 c-85 -47 -143 -95 -187 -155 l-36 -48
-27 37 c-46 62 -101 109 -185 157 l-80 45 290 0 290 0 -65 -36z m2200 8 c173
-53 305 -144 356 -243 32 -64 34 -177 4 -227 l-20 -32 -1337 0 c-736 0 -1343
4 -1350 8 -23 14 -43 81 -43 139 1 162 152 294 415 364 66 17 122 18 985 16
l915 -2 75 -23z m639 -8 c-77 -41 -168 -118 -200 -171 l-23 -36 -15 24 c-31
51 -139 145 -204 178 -37 19 -67 36 -67 37 0 2 129 4 288 4 l287 -1 -66 -35z
m2078 21 c208 -44 369 -141 427 -257 33 -67 36 -160 6 -218 l-20 -40 -1323 2
-1322 3 -17 35 c-27 55 -24 159 6 218 60 117 217 214 421 261 22 5 416 9 897
10 713 1 868 -1 925 -14z m561 -63 c3 -68 1 -77 -31 -127 l-34 -55 -36 54
c-43 65 -104 116 -200 167 l-72 39 185 -3 185 -2 3 -73z"/>
</g>
</svg>
