<?xml version="1.0" standalone="no"?>
<!DOCTYPE svg PUBLIC "-//W3C//DTD SVG 20010904//EN"
 "http://www.w3.org/TR/2001/REC-SVG-20010904/DTD/svg10.dtd">
<svg version="1.0" xmlns="http://www.w3.org/2000/svg"
 width="1125.000000pt" height="900.000000pt" viewBox="0 0 1125.000000 900.000000"
 preserveAspectRatio="xMidYMid meet">
<metadata>
Created by potrace 1.13, written by Peter Selinger 2001-2015
</metadata>
<g transform="translate(0.000000,900.000000) scale(0.100000,-0.100000)"
fill="#000000" stroke="none">
<path d="M0 4500 l0 -4500 5625 0 5625 0 0 4500 0 4500 -5625 0 -5625 0 0
-4500z m2318 4148 l2 -308 -1140 0 -1140 0 0 303 c0 167 3 307 7 310 3 4 515
6 1137 5 l1131 -3 3 -307z m2921 300 c0 -7 -85 -146 -188 -308 l-187 -295
-1242 -3 -1242 -2 0 303 c0 167 3 307 7 310 3 4 647 7 1430 7 1132 0 1423 -3
1422 -12z m2589 -300 l2 -308 -1445 0 c-795 0 -1445 2 -1445 4 0 7 361 579
378 599 14 16 84 17 1261 15 l1246 -3 3 -307z m2735 305 c2 -5 -78 -143 -179
-308 l-182 -300 -1156 -3 -1156 -2 0 303 c0 167 3 307 7 310 9 10 2661 9 2666
0z m645 -305 l2 -308 -466 0 c-369 0 -465 3 -461 13 6 15 346 577 360 595 7 9
73 12 286 10 l276 -3 3 -307z m-10388 -783 l0 -405 -387 2 -388 3 -3 403 -2
402 390 0 390 0 0 -405z m3010 399 c0 -3 -109 -185 -242 -405 l-242 -399
-1231 2 -1230 3 -3 403 -2 402 1475 0 c811 0 1475 -3 1475 -6z m2930 -399 l0
-405 -1671 0 c-918 0 -1668 3 -1666 8 49 80 463 763 473 780 l14 22 1425 0
1425 0 0 -405z m2735 333 c-25 -40 -139 -223 -252 -405 l-207 -333 -1108 0
-1108 0 0 405 0 405 1360 0 1360 0 -45 -72z m1713 -330 l-3 -403 -1043 -3
c-853 -2 -1043 0 -1040 11 2 7 113 189 247 405 l244 392 798 0 799 0 -2 -402z
m-9028 -853 l0 -385 -1070 0 -1070 0 0 378 c0 208 3 382 7 385 3 4 485 7 1070
7 l1063 0 0 -385z m2958 376 c-1 -4 -109 -177 -238 -384 l-235 -376 -1212 -1
-1213 0 0 385 0 385 1451 0 c801 0 1449 -4 1447 -9z m2582 -376 l0 -385 -1490
0 -1491 0 11 20 c9 17 337 542 436 698 l34 52 1250 0 1250 0 0 -385z m2752
292 c-31 -51 -138 -224 -237 -385 l-180 -292 -1132 0 -1133 0 0 385 0 385
1370 0 1370 0 -58 -93z m736 -294 l2 -383 -540 0 -541 0 13 23 c7 13 114 187
237 385 l224 362 301 -2 301 -3 3 -382z m-10660 -491 c-13 -21 -99 -161 -193
-311 l-170 -272 -70 3 -70 3 -3 308 -2 307 265 0 266 0 -23 -38z m2702 -272
l0 -310 -1496 0 -1496 0 21 33 c11 17 98 157 193 309 l173 278 1303 0 1302 0
0 -310z m3101 293 c-6 -10 -88 -148 -183 -308 l-173 -290 -1343 -3 -1342 -2 0
310 0 310 1525 0 c1450 0 1525 -1 1516 -17z m2757 -290 l-3 -308 -1518 -3
c-885 -1 -1517 2 -1515 7 1 5 84 144 182 310 l179 301 1339 0 1338 0 -2 -307z
m2100 0 l-3 -308 -1017 -3 -1018 -2 0 310 0 310 1020 0 1020 0 -2 -307z
m-8812 -400 c-8 -16 -95 -161 -194 -323 l-179 -295 -989 0 -989 0 -3 310 c-1
170 0 315 3 322 3 10 245 13 1185 13 l1181 0 -15 -27z m2784 -298 l0 -325
-1541 0 c-999 0 -1539 3 -1537 10 2 5 89 151 193 325 l190 315 1348 0 1347 0
0 -325z m2616 298 c-9 -16 -100 -161 -203 -323 l-188 -295 -1078 -3 -1077 -2
0 325 0 325 1280 0 1281 0 -15 -27z m2674 -298 l0 -325 -1495 0 -1496 0 13 24
c7 13 99 159 203 324 l190 301 1293 1 1292 0 0 -325z m735 0 l0 -320 -337 -3
-338 -2 0 325 0 325 338 -2 337 -3 0 -320z m-10410 -780 l0 -390 -375 0 -375
0 -3 380 c-1 209 0 386 3 393 3 10 84 12 377 10 l373 -3 0 -390z m3025 387 c0
-5 -109 -182 -243 -393 l-242 -384 -1238 -3 -1237 -2 0 395 0 395 1480 0 c814
0 1480 -4 1480 -8z m2910 -387 l0 -395 -1655 0 c-1239 0 -1655 3 -1655 11 0 7
109 185 242 395 l242 384 1413 0 1413 0 0 -395z m2720 391 c0 -9 -484 -771
-494 -778 -6 -4 -494 -8 -1083 -8 l-1073 0 0 395 0 395 1325 0 c729 0 1325 -2
1325 -4z m1755 -391 l0 -390 -1084 -3 c-939 -2 -1082 0 -1078 12 5 13 312 504
444 709 l43 67 837 -2 838 -3 0 -390z m-9045 -820 l0 -365 -1057 2 -1058 3 -3
363 -2 362 1060 0 1060 0 0 -365z m2829 218 c-50 -82 -149 -246 -222 -365
l-132 -218 -1205 3 -1205 2 -3 363 -2 362 1429 0 1430 0 -90 -147z m2701 -218
l0 -365 -1491 0 -1491 0 14 23 c8 12 108 176 222 365 l208 342 1269 0 1269 0
0 -365z m2760 360 c0 -3 -99 -166 -219 -363 l-219 -357 -1126 -3 -1126 -2 0
365 0 365 1345 0 c740 0 1345 -2 1345 -5z m758 -357 l-3 -363 -557 -3 c-307
-1 -558 1 -558 4 0 5 317 527 417 687 l23 37 340 0 340 0 -2 -362z m-10758
-833 l0 -405 -205 0 -205 0 0 398 c0 219 3 402 7 405 3 4 96 7 205 7 l198 0 0
-405z m3048 396 c-1 -4 -115 -186 -253 -404 l-250 -397 -1237 0 -1238 0 0 405
0 405 1491 0 c820 0 1489 -4 1487 -9z m2762 -396 l0 -405 -1596 0 -1596 0 14
23 c8 12 120 189 248 392 128 204 237 376 243 383 7 9 289 12 1348 12 l1339 0
0 -405z m2927 337 c-23 -37 -136 -220 -252 -405 l-210 -337 -1202 0 -1203 0 0
398 c0 219 3 402 7 405 3 4 658 7 1455 7 l1448 0 -43 -68z m2021 -339 l2 -403
-1205 0 c-962 0 -1205 3 -1199 13 4 6 115 184 246 393 131 210 238 387 238
393 0 8 259 10 958 9 l957 -3 3 -402z m-8768 -768 l0 -305 -1200 0 -1200 0 0
298 c0 164 3 302 7 305 3 4 543 7 1200 7 l1193 0 0 -305z m3010 296 c0 -5 -81
-141 -179 -302 l-179 -294 -1296 -3 -1296 -2 0 298 c0 164 3 302 7 305 10 10
2943 8 2943 -2z m2528 -298 l2 -303 -1405 0 c-773 0 -1405 3 -1405 6 0 4 82
141 182 305 l182 299 1220 -2 1221 -3 3 -302z m2652 301 c0 -3 -82 -141 -182
-305 l-182 -299 -1113 0 -1113 0 0 298 c0 164 3 302 7 305 8 9 2583 9 2583 1z
m578 -301 l2 -303 -435 0 c-240 0 -434 3 -432 8 186 302 357 587 357 593 0 5
109 8 253 7 l252 -3 3 -302z m-10418 -718 l0 -345 -373 2 -372 3 -3 343 -2
342 375 0 375 0 0 -345z m2960 339 c0 -3 -95 -158 -211 -345 l-211 -339 -1237
2 -1236 3 -3 343 -2 342 1450 0 c797 0 1450 -3 1450 -6z m2978 -336 l-3 -343
-1659 -3 c-1379 -2 -1657 0 -1653 11 3 8 98 163 212 345 l206 332 1450 0 1449
0 -2 -342z m2710 333 c-1 -5 -100 -160 -218 -345 l-215 -336 -1107 0 -1108 0
0 345 0 345 1326 0 c783 0 1324 -4 1322 -9z m1770 -333 l-3 -343 -1057 -3
c-582 -1 -1058 2 -1058 6 0 7 136 223 416 660 l14 22 845 0 845 0 -2 -342z
m-9108 -768 l0 -360 -1030 0 -1030 0 0 353 c0 195 3 357 7 360 3 4 467 7 1030
7 l1023 0 0 -360z m3027 353 c-2 -5 -100 -167 -217 -360 l-214 -353 -1268 0
-1268 0 0 360 0 360 1486 0 c817 0 1483 -3 1481 -7z m2663 -353 l0 -360 -1511
0 -1510 0 23 38 c13 21 111 183 218 360 l195 322 1293 0 1292 0 0 -360z m2690
355 c0 -2 -96 -163 -214 -357 l-214 -353 -1101 -3 -1101 -2 0 360 0 360 1315
0 c723 0 1315 -2 1315 -5z m728 -357 l2 -358 -541 0 c-429 0 -540 3 -536 13 6
15 406 678 419 695 8 9 83 12 332 10 l321 -3 3 -357z m-8038 -628 l0 -200
-1426 0 c-1137 0 -1425 3 -1421 12 2 7 57 96 121 198 l117 185 777 5 c427 3
1014 4 1305 2 l527 -2 0 -200z m3234 173 c-9 -15 -62 -102 -117 -193 -54 -91
-104 -168 -111 -172 -6 -4 -669 -8 -1473 -8 l-1463 0 0 200 0 200 733 2 c402
2 1118 2 1591 0 l858 -2 -18 -27z m4804 -171 l-3 -197 -1157 -3 -1158 -2 0
200 0 200 583 2 c320 2 842 2 1160 0 l577 -2 -2 -198z m-10745 156 c-15 -24
-69 -110 -121 -193 -52 -82 -99 -153 -106 -158 -6 -4 -51 -6 -101 -5 l-90 3
-3 198 -2 197 225 0 225 0 -27 -42z m8357 -158 l0 -200 -1280 0 c-704 0 -1280
3 -1280 7 0 4 52 94 117 200 l116 193 1164 0 1163 0 0 -200z"/>
</g>
</svg>
