<?xml version="1.0" standalone="no"?>
<!DOCTYPE svg PUBLIC "-//W3C//DTD SVG 20010904//EN"
 "http://www.w3.org/TR/2001/REC-SVG-20010904/DTD/svg10.dtd">
<svg version="1.0" xmlns="http://www.w3.org/2000/svg"
 width="1125.000000pt" height="900.000000pt" viewBox="0 0 1125.000000 900.000000"
 preserveAspectRatio="xMidYMid meet">
<metadata>
Created by potrace 1.13, written by Peter Selinger 2001-2015
</metadata>
<g transform="translate(0.000000,900.000000) scale(0.100000,-0.100000)"
fill="#000000" stroke="none">
<path d="M0 4500 l0 -4500 5625 0 5625 0 0 4500 0 4500 -5625 0 -5625 0 0
-4500z m295 4423 c22 -140 54 -243 75 -243 6 0 19 4 29 9 17 9 17 14 -6 80
-13 39 -26 97 -30 130 l-6 60 354 -2 c239 -1 353 -5 352 -12 -1 -6 -7 -94 -14
-196 -13 -209 -2 -381 28 -449 l18 -39 24 18 c22 17 23 20 10 57 -16 45 -20
467 -6 567 l8 57 207 -2 207 -3 3 -35 c3 -50 20 -149 32 -190 16 -55 23 -62
52 -51 l26 10 -19 68 c-11 37 -22 98 -26 136 l-6 67 201 0 200 0 6 -27 c2 -16
8 -50 11 -78 7 -53 42 -155 53 -155 4 0 16 7 26 15 19 14 19 16 2 67 -9 29
-20 81 -23 116 l-6 62 239 -2 239 -3 18 -70 c49 -190 111 -385 136 -424 7 -11
13 -11 32 -1 13 7 25 14 26 15 2 1 -13 41 -32 89 -38 93 -117 381 -107 390 3
3 77 6 164 6 118 0 160 -3 162 -12 2 -7 11 -53 20 -102 20 -104 53 -190 102
-265 l36 -53 23 22 23 21 -33 50 c-19 27 -42 73 -53 102 -25 66 -55 206 -48
224 8 19 1038 19 1054 1 5 -7 25 -51 42 -98 39 -102 138 -310 148 -310 4 0 17
7 29 15 21 14 21 15 -22 99 -41 81 -125 283 -125 299 0 4 172 6 382 5 l382 -3
13 -69 c6 -38 14 -70 16 -73 3 -2 17 -1 32 3 24 6 26 10 20 38 -4 17 -9 48
-12 69 l-6 37 169 -2 169 -3 7 -77 c4 -42 12 -96 18 -120 14 -53 41 -128 47
-128 4 0 44 20 51 25 1 1 -5 19 -14 40 -19 47 -44 173 -44 226 l0 40 137 -3
138 -3 12 -65 c6 -36 21 -90 33 -120 29 -76 143 -293 155 -297 6 -2 19 3 29
10 17 12 13 23 -62 174 -54 110 -83 181 -91 224 -6 34 -8 66 -5 70 6 11 304
12 304 2 1 -60 40 -210 66 -251 14 -21 16 -21 38 -7 l23 16 -24 59 c-13 33
-26 89 -30 125 l-6 65 213 -2 212 -3 47 -135 c79 -224 228 -560 249 -560 4 0
17 7 29 15 21 14 21 14 -18 89 -87 165 -247 572 -231 588 5 5 84 7 177 6 l168
-3 27 -110 c37 -148 103 -305 129 -305 4 0 15 6 25 13 16 12 15 18 -18 87 -37
79 -82 222 -88 280 l-3 35 194 3 c107 1 198 -1 203 -6 4 -4 17 -42 28 -83 11
-41 27 -93 36 -116 15 -40 16 -41 45 -31 23 8 28 15 23 27 -14 33 -54 174 -54
192 0 19 9 19 202 17 l202 -3 7 -28 c4 -15 15 -121 24 -235 9 -114 18 -212 20
-218 2 -6 16 -9 32 -7 l29 5 -13 166 c-7 92 -17 200 -21 240 -5 40 -6 75 -3
77 2 3 55 5 117 5 l114 0 6 -27 c15 -72 38 -143 61 -195 l25 -57 29 15 29 15
-24 47 c-24 47 -56 154 -56 186 0 14 22 16 185 16 102 0 185 -3 185 -7 0 -28
31 -204 39 -226 10 -24 13 -26 36 -15 30 13 29 6 10 93 -8 39 -15 89 -15 113
l0 43 152 -3 152 -3 13 -73 c13 -79 37 -169 52 -191 15 -22 66 3 56 27 -19 42
-43 144 -47 188 l-3 49 353 2 353 2 -8 -92 c-4 -51 -8 -180 -8 -287 0 -157 4
-206 18 -252 18 -59 30 -68 61 -45 15 11 16 18 8 33 -32 60 -39 368 -13 584
l6 55 206 3 205 2 12 -85 c14 -108 41 -205 56 -205 7 0 20 6 29 13 16 11 16
16 -2 87 -10 41 -20 100 -22 130 l-4 55 199 0 200 0 17 -96 c9 -52 24 -110 33
-128 16 -31 19 -32 39 -18 24 17 24 19 3 95 -8 29 -16 74 -18 100 l-3 47 200
0 200 0 2 -340 c2 -195 -1 -334 -6 -325 -5 8 -23 67 -41 130 -18 63 -34 118
-36 122 -3 4 -17 2 -33 -3 l-28 -10 38 -129 c87 -299 107 -448 108 -842 l1
-128 -33 0 -33 0 -28 -201 c-38 -278 -42 -380 -22 -509 10 -58 20 -183 23
-277 l6 -173 30 0 30 0 -6 193 c-3 105 -13 233 -22 282 -11 63 -14 117 -10
180 7 102 52 435 60 443 3 3 4 -1644 3 -3659 l-3 -3664 -183 -3 -182 -2 -10
24 c-42 110 -44 491 -4 651 5 18 1 23 -23 28 -15 3 -31 0 -35 -6 -32 -52 -44
-501 -16 -625 8 -34 12 -64 10 -67 -3 -3 -94 -5 -203 -5 -164 0 -198 2 -203
15 -16 43 -28 202 -23 310 8 154 30 281 74 425 70 228 93 338 109 513 7 86 -3
317 -16 337 -5 8 -17 10 -35 6 -25 -6 -26 -9 -19 -49 4 -23 7 -109 6 -192 0
-161 -16 -284 -56 -425 -13 -47 -40 -143 -59 -213 -53 -187 -70 -329 -63 -512
3 -82 8 -165 12 -183 l6 -32 -227 0 -228 0 7 83 c10 120 43 346 71 493 13 70
24 129 22 130 -1 1 -14 5 -29 9 -20 5 -27 3 -32 -12 -22 -73 -88 -519 -98
-658 l-3 -40 -330 0 -330 0 -13 50 c-37 150 -34 435 8 670 11 61 23 142 28
182 8 67 7 72 -12 77 -40 11 -46 7 -46 -28 0 -19 -11 -100 -25 -179 -49 -283
-56 -521 -21 -700 10 -51 10 -70 2 -73 -7 -3 -77 -3 -156 -2 l-145 3 -14 50
c-21 76 -20 508 2 700 33 278 33 639 0 1020 l-6 76 -31 -3 c-24 -2 -31 -8 -29
-22 32 -375 36 -801 8 -1036 -30 -256 -31 -626 -2 -773 1 -9 -39 -13 -153 -15
-85 -1 -164 0 -176 2 -24 6 -55 99 -74 216 -21 139 -7 525 25 651 6 23 3 27
-20 33 -15 4 -30 4 -33 1 -11 -11 -31 -151 -43 -301 -14 -174 -2 -372 30 -496
11 -40 21 -80 23 -88 2 -13 -17 -15 -127 -15 l-130 0 -12 105 c-7 58 -20 147
-29 198 -16 91 -17 93 -43 90 -31 -4 -31 -6 -8 -168 9 -63 18 -140 19 -170 l3
-55 -189 0 -189 0 -14 40 c-28 78 -53 212 -64 342 -14 167 -1 340 42 558 50
257 51 488 3 775 -23 137 -21 133 -52 125 -15 -4 -28 -8 -29 -9 -1 -1 10 -69
24 -151 33 -191 38 -496 10 -635 -57 -282 -60 -310 -60 -520 -1 -213 13 -333
53 -462 10 -31 15 -60 12 -63 -3 -3 -94 -5 -203 -5 -227 0 -207 -10 -233 107
-41 182 -39 452 4 676 20 105 18 116 -21 117 -22 0 -24 -5 -50 -156 -29 -169
-32 -452 -6 -589 10 -49 21 -105 24 -123 l6 -32 -161 0 -161 0 -15 28 c-18 36
-81 232 -97 305 -11 53 -14 57 -41 57 -23 0 -28 -4 -28 -23 0 -26 47 -197 79
-291 12 -33 21 -63 21 -68 0 -5 -100 -7 -222 -6 l-223 3 -19 55 c-15 44 -19
84 -19 195 -1 150 13 245 63 450 36 148 58 276 111 660 52 376 51 359 18 363
-33 4 -29 25 -79 -343 -51 -368 -81 -552 -114 -681 -62 -249 -80 -456 -52
-605 9 -47 16 -89 16 -93 0 -3 -66 -5 -147 -4 l-147 3 -20 50 c-27 67 -28 263
-2 383 10 46 16 85 14 87 -2 2 -15 6 -30 10 -25 6 -27 5 -38 -50 -33 -161 -39
-303 -15 -400 8 -33 14 -66 15 -72 0 -10 -34 -13 -140 -13 -134 0 -140 1 -152
23 -9 16 -13 74 -13 207 1 196 14 296 70 505 38 142 48 251 42 445 -6 181 -22
307 -58 468 -19 86 -22 92 -42 86 -37 -11 -38 -18 -18 -105 50 -210 72 -499
53 -675 -7 -56 -27 -166 -47 -244 -55 -225 -68 -338 -63 -537 l5 -173 -547 0
c-434 0 -550 3 -558 13 -16 19 -87 205 -116 305 -61 207 -71 331 -36 468 12
43 23 105 27 136 l6 58 -30 0 c-29 0 -31 -3 -37 -47 -4 -27 -16 -86 -28 -133
-46 -189 -10 -413 120 -736 12 -29 18 -55 15 -58 -4 -3 -136 -6 -295 -6 l-289
0 -20 35 c-24 39 -23 39 -50 24 -13 -6 -19 -18 -17 -32 l3 -22 -210 0 -210 0
-13 50 c-44 180 -38 446 22 855 18 124 32 226 31 228 -1 2 -15 4 -31 5 l-28 2
-18 -115 c-53 -339 -62 -433 -62 -655 0 -161 4 -240 16 -293 11 -55 12 -75 4
-78 -7 -3 -79 -3 -161 -2 l-149 3 -18 70 c-76 296 -93 550 -50 785 26 149 44
427 35 563 l-6 97 -27 0 -27 0 -6 -253 c-5 -242 -19 -380 -49 -502 -29 -115
-5 -387 57 -651 14 -58 25 -108 25 -110 0 -2 -110 -4 -244 -4 l-244 0 -11 33
c-33 104 -40 355 -16 543 9 64 14 118 13 119 -2 1 -15 5 -29 9 -26 6 -27 4
-39 -57 -6 -34 -14 -147 -17 -252 -5 -174 0 -247 23 -362 l6 -33 -201 0 -201
0 -13 28 c-8 18 -12 95 -11 242 0 241 8 294 83 538 63 206 82 307 88 488 3 88
2 195 -2 238 -7 76 -7 77 -33 74 l-27 -3 0 -220 c-1 -247 -10 -309 -85 -557
-82 -270 -110 -482 -91 -683 6 -64 13 -122 14 -128 1 -9 -57 -12 -223 -12
l-225 0 3 60 c6 95 39 337 69 492 15 79 25 145 22 147 -2 2 -16 7 -30 11 -24
6 -26 4 -37 -57 -42 -218 -92 -565 -92 -643 0 -13 -39 -15 -324 -15 -247 0
-326 3 -334 12 -26 33 -37 138 -36 348 1 184 5 236 27 360 38 218 42 251 26
261 -33 21 -48 10 -54 -38 -3 -27 -18 -115 -32 -198 -40 -238 -43 -536 -7
-712 l6 -33 -136 0 c-100 0 -138 3 -141 13 -3 6 -4 496 -3 1087 3 888 5 1068
16 1033 12 -41 13 -42 43 -31 22 8 28 15 24 27 -23 55 -37 206 -32 341 4 130
9 158 42 270 57 191 84 299 91 368 l7 62 -32 0 c-25 0 -31 -4 -31 -20 0 -54
-95 -425 -121 -470 -5 -8 -9 881 -9 1983 l0 1998 21 7 c20 8 22 16 24 148 3
153 19 257 87 538 70 292 65 420 -26 721 -32 107 -34 110 -61 108 -15 -1 -29
-3 -30 -5 -2 -2 16 -72 41 -156 81 -280 82 -361 10 -677 -25 -110 -50 -213
-55 -230 -5 -19 -9 319 -10 881 -1 501 2 914 6 917 3 4 59 7 124 7 l118 0 6
-37z"/>
<path d="M3487 8823 c-20 -10 -25 -18 -19 -26 21 -25 71 -167 95 -272 33 -140
53 -287 68 -495 14 -205 6 -370 -28 -570 -22 -129 -27 -185 -27 -335 1 -192
10 -262 59 -422 24 -77 28 -84 48 -77 37 11 37 16 12 98 -68 211 -77 452 -29
721 26 149 28 178 28 415 -1 266 -13 409 -55 615 -22 112 -81 295 -107 336
-16 26 -18 27 -45 12z"/>
<path d="M3877 8643 c-11 -3 -16 -11 -13 -21 3 -9 21 -89 41 -177 74 -332 125
-644 125 -766 l0 -59 31 0 32 0 -6 118 c-7 138 -49 393 -115 692 -49 220 -51
225 -95 213z"/>
<path d="M4748 8547 c-15 -12 -13 -19 18 -82 49 -102 75 -225 82 -395 l7 -145
28 -3 27 -3 0 115 c0 191 -27 327 -91 464 -31 63 -41 71 -71 49z"/>
<path d="M2375 8542 c-11 -2 -23 -7 -27 -11 -4 -3 12 -77 37 -164 71 -252 102
-437 93 -557 l-4 -60 34 0 35 0 -6 143 c-7 158 -30 277 -97 507 -23 80 -42
145 -43 146 -1 0 -11 -2 -22 -4z"/>
<path d="M548 8462 l-26 -3 0 -112 c0 -62 -10 -182 -21 -267 -31 -239 -31
-225 4 -225 l29 0 22 165 c28 204 38 353 27 405 -7 36 -11 40 -35 37z"/>
<path d="M9273 8461 c-22 -6 -23 -11 -27 -146 -2 -77 -14 -203 -25 -280 -28
-187 -28 -185 9 -185 17 0 30 5 30 13 0 6 9 73 21 147 22 148 37 444 23 452
-5 3 -19 2 -31 -1z"/>
<path d="M6432 8441 c-13 -3 -24 -8 -24 -11 -1 -3 12 -70 28 -150 26 -130 29
-165 29 -338 l0 -192 27 0 c25 0 27 4 34 56 13 109 -2 350 -31 494 -15 74 -30
138 -34 141 -3 3 -16 3 -29 0z"/>
<path d="M7712 8443 c-29 -6 -28 -14 43 -228 63 -189 80 -267 72 -338 -3 -29
-30 -128 -60 -222 -75 -234 -73 -222 -36 -227 17 -3 32 0 34 6 2 6 29 94 61
196 63 201 75 284 55 382 -14 66 -134 438 -141 437 -3 -1 -15 -4 -28 -6z"/>
<path d="M8468 8390 c-15 -9 -13 -19 18 -106 45 -124 84 -321 92 -459 l7 -110
29 -3 29 -4 -6 134 c-7 150 -37 302 -89 454 -33 99 -46 114 -80 94z"/>
<path d="M5642 8358 c-12 -6 -20 -16 -18 -22 3 -6 20 -58 40 -116 77 -234 94
-419 55 -600 -11 -52 -23 -113 -26 -134 -6 -39 -6 -39 23 -32 16 4 30 9 31 10
7 6 52 240 58 296 8 84 -8 212 -45 353 -31 120 -78 257 -89 256 -3 0 -16 -5
-29 -11z"/>
<path d="M1634 8248 c9 -134 32 -340 47 -420 12 -59 25 -70 57 -49 11 6 11 20
3 67 -14 77 -38 292 -46 417 l-7 97 -30 0 -31 0 7 -112z"/>
<path d="M10360 8278 c0 -126 43 -483 59 -501 5 -4 20 -5 35 -1 19 4 25 11 21
22 -11 28 -45 325 -52 444 l-6 118 -29 0 -28 0 0 -82z"/>
<path d="M3236 8251 c-4 -5 1 -42 10 -83 43 -203 36 -318 -31 -552 -62 -215
-78 -309 -78 -461 0 -173 28 -325 61 -325 40 1 44 14 27 76 -10 36 -19 115
-22 201 -7 169 9 280 67 477 74 248 83 371 45 558 -25 122 -23 118 -50 118
-13 0 -26 -4 -29 -9z"/>
<path d="M8123 8222 c-10 -6 -2 -49 32 -177 80 -303 80 -369 5 -594 -72 -213
-101 -518 -81 -828 14 -220 15 -223 53 -223 29 0 30 2 24 33 -4 17 -9 148 -13
289 -8 367 9 515 89 750 41 119 42 127 42 248 -1 117 -4 138 -51 315 -41 160
-52 190 -69 193 -10 1 -25 -1 -31 -6z"/>
<path d="M8791 8221 c-12 -8 -9 -29 22 -133 86 -290 91 -381 33 -633 -85 -365
-113 -551 -101 -670 4 -38 9 -73 11 -76 2 -4 15 -4 29 -1 l25 7 4 160 c4 165
19 257 102 605 22 93 27 139 28 240 0 134 -6 168 -71 388 -36 124 -45 136 -82
113z"/>
<path d="M7365 8202 c-11 -2 -23 -7 -27 -10 -4 -4 2 -47 12 -97 53 -254 49
-416 -16 -636 -55 -186 -73 -264 -84 -371 -15 -151 13 -315 76 -440 23 -45 25
-47 49 -36 14 6 25 14 25 18 0 4 -13 36 -29 71 -40 90 -61 192 -61 302 0 116
17 209 75 407 55 187 69 291 62 435 -6 100 -37 300 -55 343 -4 11 -15 16 -27
14z"/>
<path d="M2005 8148 c3 -29 20 -129 37 -223 40 -226 37 -349 -22 -745 -34
-235 -41 -302 -37 -385 6 -124 11 -139 46 -130 14 4 27 8 29 9 1 2 -3 27 -9
57 -16 72 -8 168 41 499 50 342 53 486 16 692 -14 73 -27 156 -31 183 -11 93
-13 95 -46 95 l-31 0 7 -52z"/>
<path d="M4378 8195 c-3 -3 12 -78 33 -168 21 -89 44 -211 51 -270 13 -114 10
-149 -38 -532 -19 -148 -24 -449 -8 -465 6 -6 22 -8 35 -5 l24 6 -3 148 c-3
143 7 275 43 536 28 210 20 322 -47 613 -31 138 -33 142 -58 142 -15 0 -29 -2
-32 -5z"/>
<path d="M10733 8137 c3 -35 18 -128 33 -208 40 -208 38 -348 -9 -669 -51
-340 -59 -433 -48 -515 11 -76 17 -87 47 -79 20 5 21 10 16 122 -4 102 1 155
39 407 37 250 43 313 43 455 0 139 -4 185 -26 295 -14 72 -29 158 -33 193 -7
61 -7 62 -37 62 l-31 0 6 -63z"/>
<path d="M2857 8063 c13 -213 9 -283 -31 -448 -47 -202 -60 -331 -53 -545 9
-260 55 -500 95 -500 41 1 45 14 23 83 -47 154 -71 459 -52 667 7 73 27 188
48 275 33 135 37 164 37 285 0 74 -3 174 -8 223 l-8 87 -30 0 -30 0 9 -127z"/>
<path d="M819 8143 c-14 -3 -9 -30 32 -201 69 -280 83 -374 76 -496 -3 -56
-15 -135 -26 -176 -34 -125 -53 -277 -54 -432 -1 -81 1 -150 5 -153 4 -4 19
-4 35 -1 l28 6 -3 123 c-4 145 9 264 49 444 49 222 42 320 -47 694 -49 205
-49 205 -95 192z"/>
<path d="M9542 8142 c-9 -7 -1 -54 37 -213 67 -276 74 -317 74 -439 0 -82 -7
-135 -31 -240 -17 -74 -36 -181 -43 -238 -11 -104 -10 -315 3 -328 4 -3 17 -4
30 -1 23 6 23 8 24 159 1 159 17 284 57 438 28 110 29 296 4 420 -18 85 -79
342 -98 413 -10 37 -28 47 -57 29z"/>
<path d="M6074 8133 c-8 -6 -6 -33 7 -98 42 -205 36 -297 -36 -552 -64 -225
-79 -326 -72 -502 5 -125 23 -240 43 -273 3 -4 17 -2 33 3 l28 10 -19 67 c-28
96 -34 289 -15 417 9 55 34 164 57 243 77 267 86 378 47 577 -19 94 -25 110
-42 113 -11 1 -25 -1 -31 -5z"/>
<path d="M1193 7992 c4 -73 19 -166 47 -292 54 -236 57 -338 16 -505 -40 -157
-45 -297 -17 -440 30 -157 39 -185 59 -185 41 1 44 13 23 96 -50 200 -51 322
-4 509 22 91 27 131 27 235 -1 110 -6 147 -42 305 -25 108 -44 221 -48 283
l-7 102 -30 0 -30 0 6 -108z"/>
<path d="M5312 8093 c-19 -4 -23 -9 -18 -26 3 -12 17 -87 32 -167 22 -123 26
-164 22 -275 -4 -117 -10 -150 -56 -326 -81 -306 -98 -463 -68 -629 20 -106
30 -130 56 -123 31 8 32 15 13 90 -11 46 -17 109 -16 198 0 140 16 232 87 501
64 239 67 333 20 594 -28 151 -32 171 -42 169 -4 -1 -18 -4 -30 -6z"/>
<path d="M9923 7973 c5 -100 14 -161 43 -278 34 -135 38 -163 38 -285 0 -113
-4 -152 -26 -240 -46 -184 -46 -281 4 -502 17 -79 25 -98 39 -98 46 0 47 6 22
108 -17 67 -26 137 -30 227 -5 119 -3 140 22 240 20 80 29 145 32 235 5 119 3
133 -37 310 -30 132 -43 217 -47 298 l-6 112 -30 0 -30 0 6 -127z"/>
<path d="M6919 7833 c-1 -5 -2 -64 -3 -133 -2 -94 -9 -155 -30 -245 -103 -454
-120 -567 -121 -820 0 -192 7 -252 34 -294 8 -12 13 -12 34 2 25 16 25 17 10
59 -22 59 -28 251 -13 395 16 161 41 304 96 550 35 157 48 236 52 325 6 142 1
168 -33 168 -14 0 -26 -3 -26 -7z"/>
<path d="M1705 7403 c-7 -110 -13 -163 -39 -333 -21 -142 -29 -396 -17 -551
13 -166 14 -170 50 -158 27 9 27 11 20 62 -4 29 -8 155 -8 280 -1 193 3 255
24 403 14 96 28 226 31 289 l7 115 -31 0 -30 0 -7 -107z"/>
<path d="M10436 7498 c-2 -7 -7 -65 -10 -128 -3 -63 -15 -171 -27 -240 -25
-153 -37 -535 -20 -679 5 -51 12 -95 14 -98 2 -2 16 1 31 7 26 9 26 11 19 67
-5 32 -8 164 -7 293 0 199 4 262 26 415 15 99 28 223 30 275 l3 95 -28 3 c-16
2 -29 -2 -31 -10z"/>
<path d="M4855 7468 c-20 -86 -56 -354 -65 -480 -16 -224 8 -435 65 -571 16
-39 25 -43 55 -27 17 9 17 12 -6 75 -71 196 -72 504 -4 895 11 63 20 118 20
123 0 4 -13 7 -30 7 -23 0 -31 -5 -35 -22z"/>
<path d="M9156 7436 c-3 -23 -8 -66 -11 -96 -3 -30 -15 -89 -26 -132 -24 -94
-25 -219 -3 -406 25 -220 94 -614 134 -760 10 -40 11 -41 41 -30 22 8 29 15
24 27 -12 31 -66 294 -90 444 -38 232 -55 370 -61 502 -5 102 -3 132 14 200
18 66 42 223 42 271 0 7 -13 14 -30 16 -28 4 -30 2 -34 -36z"/>
<path d="M426 7393 c-4 -43 -19 -127 -33 -188 -22 -96 -24 -124 -19 -215 12
-208 77 -638 131 -867 21 -88 30 -113 43 -113 42 1 43 12 18 126 -34 151 -82
428 -106 619 -28 219 -29 347 -1 455 11 47 24 124 28 173 l6 87 -30 0 -30 0
-7 -77z"/>
<path d="M2416 7398 c-3 -18 -17 -118 -32 -223 -22 -162 -25 -211 -20 -330 3
-77 10 -167 15 -200 5 -33 10 -131 10 -217 l1 -158 29 0 c26 0 29 4 35 43 8
53 -9 351 -25 432 -16 83 -6 274 25 483 14 96 26 180 26 188 0 9 -11 14 -29
14 -25 0 -30 -5 -35 -32z"/>
<path d="M6466 7291 c-44 -201 -36 -633 15 -823 11 -43 9 -42 44 -26 16 7 24
17 20 26 -3 8 -13 56 -22 106 -26 136 -25 578 0 695 16 69 17 85 5 92 -34 22
-45 10 -62 -70z"/>
<path d="M8517 7323 c-13 -20 -28 -144 -38 -295 -13 -216 7 -567 34 -594 3 -3
17 -2 31 2 23 5 26 10 21 33 -28 133 -34 535 -10 714 8 59 17 112 20 117 3 6
-6 15 -20 20 -32 12 -33 12 -38 3z"/>
<path d="M3986 7229 c-9 -46 -7 -167 4 -304 17 -197 74 -532 93 -551 2 -3 15
0 29 5 l24 9 -23 114 c-39 192 -65 432 -67 600 l-1 158 -26 0 c-22 0 -28 -6
-33 -31z"/>
<path d="M5626 7193 c-36 -167 -3 -486 79 -748 42 -135 53 -152 84 -135 15 7
21 18 18 28 -3 10 -19 57 -36 106 -70 198 -112 510 -92 670 10 72 9 91 -1 97
-25 17 -46 9 -52 -18z"/>
<path d="M7704 7165 c-11 -27 14 -398 31 -460 20 -74 27 -82 59 -67 25 11 25
13 12 50 -24 69 -36 177 -36 336 l0 156 -30 0 c-18 0 -33 -6 -36 -15z"/>
<path d="M3317 6512 c-16 -18 -15 -22 13 -78 53 -106 110 -365 125 -571 l7
-93 31 0 30 0 -6 99 c-16 239 -84 523 -151 628 -24 38 -27 39 -49 15z"/>
<path d="M6248 6523 c-16 -4 -18 -19 -18 -141 0 -326 -73 -1033 -140 -1362
-12 -57 -17 -106 -13 -111 4 -4 17 -9 28 -11 24 -4 34 31 70 242 58 339 104
813 112 1143 6 263 8 253 -39 240z"/>
<path d="M7119 6483 c-14 -3 -17 -22 -17 -126 -1 -189 -50 -431 -157 -781 -85
-279 -114 -504 -95 -737 13 -157 29 -223 56 -227 39 -5 44 10 26 73 -13 48
-17 104 -17 280 0 249 12 339 72 535 136 441 196 756 179 923 -8 66 -10 70
-47 60z"/>
<path d="M863 6422 c-27 -4 -28 -9 -7 -104 40 -191 35 -478 -13 -657 -46 -176
-62 -254 -77 -395 -20 -176 -36 -444 -36 -598 l0 -118 29 0 28 0 7 198 c14
399 39 635 87 805 60 214 79 411 60 606 -13 120 -37 252 -49 261 -4 3 -17 4
-29 2z"/>
<path d="M9581 6419 c-15 -6 -21 -15 -17 -24 46 -121 57 -506 18 -675 -12 -52
-32 -136 -46 -185 -39 -146 -66 -418 -81 -817 l-6 -168 35 0 36 0 0 143 c0
297 34 665 77 826 61 229 64 252 70 436 5 178 -8 330 -38 438 -11 40 -12 41
-48 26z"/>
<path d="M7728 6363 c-10 -2 -18 -8 -18 -12 0 -3 24 -81 54 -171 52 -159 90
-312 102 -412 5 -46 7 -48 36 -48 l31 0 -7 68 c-4 37 -13 96 -21 132 -25 108
-138 450 -149 449 -6 -1 -19 -3 -28 -6z"/>
<path d="M4562 6353 c-17 -3 -21 -9 -17 -26 3 -12 20 -85 39 -162 71 -295 74
-472 12 -680 -51 -170 -69 -274 -69 -395 0 -138 31 -280 61 -280 41 1 45 14
26 76 -15 47 -19 90 -18 214 0 162 4 180 80 440 22 73 30 298 15 409 -16 112
-85 404 -97 407 -5 0 -19 -1 -32 -3z"/>
<path d="M155 6322 c-11 -2 -23 -7 -27 -10 -3 -4 2 -47 13 -97 37 -175 52
-317 52 -480 -1 -169 -1 -171 -68 -395 -52 -171 -85 -466 -71 -621 9 -92 15
-104 50 -95 25 6 26 9 19 44 -11 52 -7 281 7 382 17 127 45 254 79 355 67 204
67 429 -1 790 -24 127 -26 132 -53 127z"/>
<path d="M8850 6308 c0 -7 11 -69 25 -138 13 -69 29 -176 36 -239 14 -138 6
-366 -15 -436 -8 -27 -27 -88 -41 -134 -43 -141 -66 -294 -72 -467 -3 -88 -2
-187 1 -218 7 -54 9 -57 33 -54 l26 3 2 200 c2 236 22 365 88 575 l42 135 0
220 c-1 219 -9 300 -55 513 -11 48 -14 52 -41 52 -17 0 -29 -5 -29 -12z"/>
<path d="M1986 6302 c-3 -5 -5 -50 -5 -101 0 -54 -11 -160 -27 -252 -15 -88
-25 -161 -23 -163 2 -3 15 -7 29 -11 l25 -6 27 158 c35 202 42 271 33 333 -6
44 -10 50 -30 50 -13 0 -26 -4 -29 -8z"/>
<path d="M10710 6308 c0 -2 -2 -57 -4 -123 -3 -70 -15 -178 -30 -259 -14 -77
-25 -140 -23 -141 1 -1 14 -5 29 -9 32 -7 29 -18 63 185 18 110 25 184 23 250
l-3 94 -27 3 c-16 2 -28 2 -28 0z"/>
<path d="M2655 6280 c-3 -5 3 -57 15 -115 38 -200 26 -317 -60 -594 -114 -363
-137 -532 -98 -718 11 -54 25 -64 57 -44 11 7 11 18 2 60 -17 81 -13 238 9
354 11 56 43 177 71 268 89 282 101 339 101 474 0 85 -6 149 -21 219 -12 54
-21 100 -21 102 0 9 -49 3 -55 -6z"/>
<path d="M1236 6261 c-3 -5 0 -35 6 -67 6 -33 11 -124 11 -204 0 -165 -17
-264 -82 -476 -46 -148 -84 -304 -102 -419 -17 -106 -17 -307 0 -372 13 -51
13 -51 42 -41 23 8 28 15 23 27 -13 30 -16 280 -5 363 16 109 52 262 101 423
56 184 79 302 86 440 6 107 -5 260 -22 318 -6 18 -48 24 -58 8z"/>
<path d="M9965 6260 c-4 -6 -1 -51 6 -100 16 -117 6 -328 -20 -442 -11 -48
-41 -156 -66 -239 -70 -234 -95 -370 -101 -544 -6 -176 8 -262 41 -257 35 6
38 18 25 88 -25 132 7 395 76 629 72 243 83 287 98 374 19 111 21 331 5 432
-11 62 -14 69 -35 69 -12 0 -26 -5 -29 -10z"/>
<path d="M5456 6223 c-21 -6 -21 -4 14 -198 16 -86 23 -164 24 -275 l1 -155
27 -3 c26 -3 26 -1 34 64 10 97 -2 263 -32 421 -13 75 -27 140 -30 144 -5 9
-8 10 -38 2z"/>
<path d="M3783 6173 c-19 -4 -22 -11 -22 -56 0 -29 -5 -74 -11 -101 -12 -56
-8 -98 27 -251 17 -75 25 -140 26 -205 0 -89 -3 -105 -56 -260 -64 -190 -75
-263 -57 -401 16 -128 16 -129 52 -129 29 0 30 2 24 33 -31 174 -26 293 20
420 68 186 77 227 77 342 0 86 -6 135 -27 225 -28 116 -30 179 -10 302 7 40
-1 89 -14 87 -4 -1 -17 -4 -29 -6z"/>
<path d="M8467 6142 c-26 -3 -28 -6 -22 -30 31 -120 55 -270 55 -338 0 -104
-12 -167 -65 -344 -87 -294 -101 -452 -53 -612 9 -32 15 -37 32 -32 34 10 35
16 21 79 -32 133 -15 294 56 529 62 207 72 271 66 415 -4 83 -14 161 -31 229
-13 57 -26 105 -28 106 -2 1 -16 0 -31 -2z"/>
<path d="M3097 6128 c-15 -12 -14 -20 10 -98 33 -113 41 -251 19 -340 -9 -36
-54 -144 -101 -240 -119 -245 -154 -401 -171 -752 l-7 -148 30 0 31 0 7 128
c19 361 52 509 169 752 98 201 119 271 118 390 0 89 -9 140 -44 253 -21 68
-31 77 -61 55z"/>
<path d="M4984 6114 c-8 -3 -10 -49 -6 -147 4 -131 2 -152 -26 -277 -37 -164
-57 -305 -73 -510 -12 -164 -7 -388 12 -453 9 -33 14 -38 32 -33 12 3 26 6 31
6 4 0 5 7 2 16 -3 8 -11 67 -16 130 -19 202 12 560 71 822 26 111 31 159 31
254 0 183 -9 212 -58 192z"/>
<path d="M1531 6079 c-18 -7 -22 -14 -17 -32 36 -125 49 -202 49 -297 1 -130
-12 -208 -75 -430 -54 -194 -67 -286 -49 -372 13 -59 26 -70 59 -49 12 7 12
19 2 67 -16 77 -9 127 44 319 80 288 98 421 77 570 -13 90 -50 235 -60 234 -3
0 -17 -5 -30 -10z"/>
<path d="M10270 6083 c-8 -3 -20 -6 -26 -8 -8 -2 -4 -32 13 -92 16 -57 26
-128 30 -203 7 -139 -6 -216 -79 -480 -43 -155 -51 -198 -50 -265 1 -111 11
-141 47 -138 36 3 36 3 25 44 -20 70 -12 160 31 310 97 346 111 505 64 713
-26 116 -31 126 -55 119z"/>
<path d="M2252 6063 c-19 -4 -22 -9 -18 -31 41 -199 56 -414 37 -528 -7 -38
-28 -108 -47 -155 -111 -266 -149 -467 -124 -649 14 -105 23 -122 53 -111 19
8 21 14 17 47 -3 22 -5 107 -5 189 1 174 18 255 92 439 59 146 70 184 82 286
10 93 2 229 -24 388 -19 113 -24 132 -33 131 -4 -1 -17 -4 -30 -6z"/>
<path d="M4188 6063 c-23 -6 -23 -6 7 -148 29 -140 41 -316 27 -395 -57 -316
-78 -506 -89 -797 l-6 -173 31 0 32 0 0 68 c0 189 41 614 76 790 26 134 31
266 14 387 -18 124 -53 275 -64 274 -6 -1 -19 -3 -28 -6z"/>
<path d="M10983 6063 c-28 -5 -28 -3 -2 -150 14 -79 22 -164 22 -258 2 -158
-5 -187 -79 -368 -74 -178 -98 -295 -99 -472 0 -94 5 -166 13 -192 12 -41 13
-42 43 -31 22 8 29 15 24 27 -17 43 -26 146 -21 236 9 139 36 252 101 415 98
247 107 366 49 703 -9 53 -20 96 -23 96 -3 -1 -16 -4 -28 -6z"/>
<path d="M8131 6041 c-13 -8 -12 -24 7 -108 52 -236 54 -361 7 -493 -81 -228
-93 -300 -102 -647 -5 -205 -4 -243 8 -243 9 0 10 -3 3 -8 -6 -4 -13 -45 -16
-90 -5 -82 -4 -84 20 -93 14 -5 28 -7 31 -3 3 3 8 44 10 91 2 64 0 88 -10 94
-9 5 -9 9 -3 9 8 0 14 68 18 228 10 315 24 418 82 588 41 122 48 152 52 245 5
109 -3 171 -40 342 -22 99 -31 111 -67 88z"/>
<path d="M5819 6013 c-1 -4 0 -53 1 -109 2 -117 -9 -202 -56 -409 -46 -207
-65 -363 -66 -545 -1 -144 13 -279 31 -308 13 -21 64 3 56 27 -29 91 -33 340
-10 531 9 69 31 195 50 280 50 228 56 272 53 410 l-3 125 -27 3 c-16 2 -29 0
-29 -5z"/>
<path d="M7407 5903 c12 -176 8 -309 -11 -382 -10 -36 -48 -142 -84 -235 l-67
-171 0 -117 c0 -128 6 -145 47 -129 25 9 26 12 16 53 -17 76 -4 163 42 283
123 320 136 378 126 584 -4 79 -9 164 -13 188 -5 40 -8 43 -35 43 l-29 0 8
-117z"/>
<path d="M6557 5768 c-3 -65 -13 -127 -26 -168 -65 -202 -131 -669 -131 -932
l0 -118 28 0 29 0 6 168 c11 283 61 628 120 832 22 78 31 133 35 213 l4 107
-30 0 -29 0 -6 -102z"/>
<path d="M518 5593 c-15 -70 -45 -211 -67 -313 -44 -200 -66 -358 -57 -395 6
-22 9 -23 36 -13 29 9 30 13 30 68 0 75 19 180 86 484 30 136 54 258 52 270
-2 14 -11 22 -28 24 -24 3 -26 -1 -52 -125z"/>
<path d="M9270 5714 c0 -3 -27 -128 -60 -277 -72 -331 -90 -432 -90 -509 0
-59 0 -59 28 -56 26 3 27 6 34 78 10 101 29 199 94 494 30 137 53 255 50 263
-5 12 -56 19 -56 7z"/>
<path d="M1935 5478 c-94 -297 -178 -722 -147 -742 6 -3 22 -2 36 4 24 9 26
14 26 69 0 96 62 380 139 634 28 93 28 98 11 107 -33 18 -39 11 -65 -72z"/>
<path d="M10650 5448 c-84 -287 -140 -551 -140 -661 0 -50 2 -58 16 -53 9 3
22 6 30 6 10 0 14 13 14 44 0 92 54 346 131 614 23 78 40 144 38 147 -2 2 -16
6 -30 10 -25 6 -26 4 -59 -107z"/>
<path d="M7707 5472 c-10 -17 -59 -176 -81 -262 -49 -193 -89 -508 -68 -539 7
-9 19 -11 36 -7 26 6 26 8 26 94 0 149 55 431 124 629 l24 72 -29 10 c-16 5
-30 7 -32 3z"/>
<path d="M3336 5363 c-13 -139 -71 -407 -140 -643 -26 -89 -24 -103 19 -98 17
3 27 29 68 178 60 221 105 440 114 553 l6 87 -30 0 -30 0 -7 -77z"/>
<path d="M5369 5333 c-32 -84 -103 -354 -121 -458 -21 -124 -21 -256 -1 -276
8 -8 18 -7 33 1 19 10 21 17 15 63 -12 101 33 337 113 585 l30 93 -25 10 c-33
12 -32 13 -44 -18z"/>
<path d="M730 4406 c0 -131 6 -196 19 -196 3 0 16 8 27 18 20 16 21 23 16 165
l-5 147 -28 0 -29 0 0 -134z"/>
<path d="M2854 4409 c8 -133 19 -225 29 -235 3 -3 16 2 30 10 22 15 23 20 16
64 -4 26 -8 74 -8 108 -1 34 -4 89 -7 123 -7 60 -7 61 -37 61 l-30 0 7 -131z"/>
<path d="M4130 4404 c0 -120 2 -135 16 -130 9 3 22 6 30 6 11 0 14 24 14 130
l0 130 -30 0 -30 0 0 -136z"/>
<path d="M6404 4448 c9 -118 22 -180 53 -245 26 -57 36 -62 65 -37 17 16 17
18 -2 50 -24 38 -45 135 -55 247 l-7 77 -31 0 -30 0 7 -92z"/>
<path d="M9455 4383 c4 -87 10 -161 14 -165 4 -4 17 -1 29 8 21 14 22 22 22
165 l0 149 -36 0 -36 0 7 -157z"/>
<path d="M1570 4490 c-28 -7 -28 0 -6 -155 18 -130 22 -542 6 -790 -9 -134
-36 -472 -43 -525 -1 -10 8 -16 29 -18 l31 -3 16 178 c54 580 56 1115 4 1281
-11 34 -15 38 -37 32z"/>
<path d="M10289 4488 l-26 -9 13 -57 c33 -144 42 -456 24 -792 -10 -179 -34
-486 -47 -582 l-6 -48 31 0 c36 0 35 -4 57 240 41 464 45 966 11 1155 -10 49
-20 93 -24 96 -4 4 -19 2 -33 -3z"/>
<path d="M3712 4483 c-19 -4 -23 -9 -18 -26 26 -107 39 -577 21 -789 l-7 -88
30 0 c30 0 31 2 38 58 13 95 9 637 -5 732 -14 97 -20 121 -29 119 -4 -1 -18
-4 -30 -6z"/>
<path d="M4488 4462 c-33 -4 -32 4 -13 -137 8 -60 18 -194 22 -297 l6 -188 29
0 28 0 0 131 c0 142 -15 339 -33 434 -11 57 -13 60 -39 57z"/>
<path d="M2402 4451 c-11 -6 -11 -45 -3 -212 14 -275 -3 -479 -53 -654 -73
-251 -88 -483 -40 -628 9 -29 18 -53 19 -55 1 -1 15 3 29 10 21 9 26 16 21 32
-54 172 -47 318 30 626 18 74 39 171 46 215 15 91 18 408 5 568 -7 90 -11 107
-24 107 -10 0 -23 -4 -30 -9z"/>
<path d="M8407 4448 c-21 -8 -26 -14 -22 -29 4 -11 19 -70 35 -132 52 -206 64
-299 64 -487 0 -151 -4 -192 -27 -300 -53 -251 -83 -631 -74 -915 7 -197 10
-215 43 -215 12 0 25 3 28 8 2 4 -1 63 -7 132 -19 230 15 714 71 975 24 116
27 150 27 320 -1 135 -6 217 -18 285 -19 103 -76 338 -86 356 -4 8 -15 8 -34
2z"/>
<path d="M11126 4453 c-15 -4 -17 -11 -12 -41 3 -21 9 -131 12 -247 8 -233 -2
-346 -41 -515 -14 -58 -37 -157 -51 -220 -45 -189 -37 -439 14 -518 7 -10 14
-11 34 -2 l25 12 -20 61 c-16 48 -20 89 -20 182 -1 126 10 194 64 405 53 210
62 305 56 595 -3 143 -9 268 -12 278 -7 17 -14 19 -49 10z"/>
<path d="M431 4443 c-18 -4 -22 -10 -18 -26 72 -335 101 -515 116 -712 10
-132 2 -285 -19 -355 -6 -19 -20 -84 -31 -145 -23 -122 -37 -440 -21 -464 6
-8 19 -11 33 -8 24 6 24 7 24 164 1 166 10 237 53 418 45 191 35 451 -33 817
-32 177 -65 318 -73 317 -4 -1 -18 -4 -31 -6z"/>
<path d="M7293 4443 c-8 -6 -4 -40 18 -128 56 -232 52 -277 -41 -570 -33 -103
-60 -193 -60 -200 0 -7 13 -15 28 -17 l28 -4 61 196 c34 107 68 223 74 258 16
85 6 209 -29 352 -23 96 -31 115 -47 118 -11 1 -25 -1 -32 -5z"/>
<path d="M9154 4440 l-21 -8 24 -104 c34 -148 80 -424 94 -562 14 -141 7 -338
-15 -416 -36 -127 -59 -304 -60 -457 -1 -83 2 -154 6 -158 4 -4 19 -4 35 -1
l28 6 -5 73 c-10 148 8 306 65 567 25 109 15 391 -20 605 -34 212 -88 458
-100 461 -5 1 -19 -1 -31 -6z"/>
<path d="M4827 4383 c-2 -4 2 -60 10 -123 23 -191 12 -644 -22 -895 -42 -310
-38 -528 13 -685 19 -58 29 -67 56 -47 16 12 16 16 -4 87 -37 125 -39 363 -6
617 46 354 53 757 18 998 -6 44 -10 50 -34 53 -14 2 -28 0 -31 -5z"/>
<path d="M1190 4340 c0 -22 -13 -121 -30 -222 -34 -208 -40 -334 -14 -324 9 3
22 6 30 6 10 0 14 15 14 58 0 32 13 139 29 238 16 98 32 203 35 232 l7 52 -36
0 c-34 0 -35 -1 -35 -40z"/>
<path d="M9920 4357 c0 -13 -14 -106 -31 -208 -35 -214 -47 -343 -31 -353 5
-3 20 -2 32 2 18 7 22 18 26 77 2 38 18 153 34 256 17 102 30 200 30 217 0 29
-3 32 -30 32 -25 0 -30 -4 -30 -23z"/>
<path d="M5381 4349 c-18 -7 -22 -14 -17 -32 17 -62 27 -168 22 -221 -19 -171
-59 -439 -78 -522 -12 -52 -19 -97 -15 -100 3 -3 18 0 34 8 40 19 57 97 114
548 12 93 8 209 -11 283 -13 51 -13 50 -49 36z"/>
<path d="M6009 4353 c-14 -3 -12 -19 14 -126 27 -110 30 -139 31 -295 1 -172
1 -173 24 -179 13 -3 25 -3 28 0 3 2 9 45 14 93 11 108 1 225 -36 392 -28 126
-29 128 -75 115z"/>
<path d="M3266 4333 c-15 -4 -17 -11 -13 -36 50 -282 49 -279 44 -442 -4 -119
-13 -201 -35 -320 -77 -403 -91 -836 -34 -1061 15 -59 20 -69 37 -66 35 6 37
18 18 98 -15 68 -18 121 -17 369 0 307 8 394 60 668 35 189 46 338 34 465 -14
147 -49 332 -64 331 -6 -1 -19 -3 -30 -6z"/>
<path d="M7743 4312 c-13 -2 -23 -10 -23 -17 0 -8 21 -96 46 -197 44 -171 47
-192 48 -318 1 -149 5 -133 -103 -412 -72 -186 -92 -277 -98 -430 -5 -130 -5
-138 13 -137 46 1 49 8 50 129 0 134 18 211 96 420 27 74 62 167 76 205 23 63
26 84 26 220 1 148 0 153 -48 340 -27 105 -51 192 -55 196 -3 3 -16 3 -28 1z"/>
<path d="M6958 4283 c-22 -6 -22 -11 3 -158 26 -159 36 -425 19 -547 -7 -51
-32 -163 -56 -248 -96 -336 -99 -506 -12 -721 18 -46 38 -84 43 -86 6 -2 19 3
29 10 17 13 17 18 -18 109 -45 120 -60 217 -53 334 6 83 25 169 105 459 46
170 41 532 -11 789 -12 60 -18 67 -49 59z"/>
<path d="M97 4243 c-2 -4 2 -44 9 -88 21 -123 29 -411 15 -545 -19 -174 -19
-165 6 -168 31 -4 41 20 54 133 14 117 6 484 -13 595 -12 70 -15 75 -40 78
-14 2 -28 0 -31 -5z"/>
<path d="M8825 4241 c-3 -6 -1 -39 5 -75 30 -190 30 -591 0 -671 -14 -36 -2
-57 28 -53 33 4 38 25 53 193 12 134 7 345 -11 483 -17 127 -19 132 -45 132
-13 0 -26 -4 -30 -9z"/>
<path d="M5686 4193 c-15 -4 -17 -11 -12 -46 29 -175 36 -247 36 -348 0 -136
-16 -240 -64 -405 -48 -168 -66 -262 -73 -389 -6 -116 7 -247 33 -334 13 -46
18 -51 37 -45 35 10 36 15 15 94 -15 57 -20 108 -21 215 -1 159 13 246 73 455
52 185 63 269 58 457 -5 165 -33 354 -52 352 -6 -1 -19 -3 -30 -6z"/>
<path d="M1947 4152 c-15 -17 -15 -22 8 -78 61 -151 115 -609 148 -1244 l12
-235 29 0 29 0 -2 85 c-7 334 -57 929 -97 1165 -30 174 -77 325 -103 325 -4 0
-15 -8 -24 -18z"/>
<path d="M10673 4153 c-22 -15 -22 -15 -4 -52 64 -130 127 -618 156 -1206 3
-66 8 -162 11 -213 l6 -93 26 3 27 3 -2 120 c-7 414 -70 1062 -123 1277 -20
80 -58 178 -69 177 -3 0 -16 -7 -28 -16z"/>
<path d="M8205 4038 c-11 -6 -22 -12 -23 -14 -2 -1 7 -42 19 -91 19 -74 23
-115 23 -263 1 -96 -3 -217 -7 -267 l-9 -93 30 0 c39 0 40 10 48 270 7 219 -6
349 -44 431 -15 34 -19 37 -37 27z"/>
<path d="M4033 4011 c-21 -6 -21 -7 23 -176 55 -211 61 -283 39 -445 -36 -273
-47 -392 -48 -542 -2 -167 2 -184 44 -173 l24 6 1 202 c1 162 6 241 28 402 37
263 33 340 -27 564 -24 91 -48 166 -53 167 -5 1 -19 -1 -31 -5z"/>
<path d="M796 3920 c-9 -46 9 -160 50 -315 33 -125 37 -154 37 -270 1 -108 -3
-148 -25 -240 -39 -162 -48 -246 -48 -458 0 -156 13 -363 23 -373 1 -1 15 0
31 3 27 6 28 8 22 47 -4 22 -9 131 -13 241 -7 231 5 366 45 524 23 91 27 127
27 251 0 138 -3 153 -43 311 -30 119 -42 186 -42 237 l0 72 -29 0 c-24 0 -30
-5 -35 -30z"/>
<path d="M9523 3858 c3 -59 18 -144 41 -231 62 -236 64 -342 11 -559 -39 -157
-52 -376 -37 -606 7 -103 16 -190 20 -194 4 -3 20 -4 35 -1 20 4 26 10 23 22
-3 9 -10 93 -16 188 -13 217 0 427 35 570 58 242 57 341 -11 601 -20 75 -38
174 -41 220 l-6 82 -30 0 -30 0 6 -92z"/>
<path d="M2848 3935 c-3 -3 3 -58 14 -123 23 -145 16 -212 -47 -457 -45 -175
-45 -188 -1 -183 14 2 23 20 37 73 89 330 99 407 74 573 -19 120 -19 122 -45
122 -15 0 -29 -2 -32 -5z"/>
<path d="M6533 3753 c-9 -3 -13 -36 -13 -116 0 -87 -7 -145 -31 -257 -48 -230
-59 -315 -59 -475 0 -214 29 -412 80 -548 22 -59 33 -66 64 -44 17 12 17 16 4
43 -63 126 -104 496 -79 721 6 55 25 161 42 235 25 108 32 162 36 291 5 149 4
157 -13 156 -11 0 -25 -3 -31 -6z"/>
<path d="M1216 3313 c-3 -64 -16 -175 -28 -247 -17 -103 -22 -169 -21 -311 1
-207 15 -292 48 -287 34 6 37 18 24 94 -20 109 -15 329 10 483 12 72 24 187
28 258 l6 127 -30 0 -30 0 -7 -117z"/>
<path d="M9946 3399 c-3 -17 -6 -61 -6 -96 0 -36 -12 -144 -26 -241 -23 -155
-25 -198 -21 -347 3 -93 11 -189 17 -213 11 -37 16 -42 34 -36 33 10 36 16 25
59 -5 22 -12 105 -16 185 -5 123 -2 173 20 330 14 102 29 231 33 288 l6 102
-30 0 c-25 0 -30 -5 -36 -31z"/>
<path d="M4506 3393 c-13 -44 -57 -292 -72 -404 -30 -225 -10 -473 49 -611 18
-43 16 -42 52 -28 25 10 25 10 10 40 -31 60 -56 184 -61 310 -7 146 10 310 56
542 16 84 30 156 30 161 0 4 -13 7 -29 7 -20 0 -31 -6 -35 -17z"/>
<path d="M6076 3343 c-24 -82 -31 -181 -31 -468 1 -333 21 -587 56 -702 9 -29
12 -31 39 -22 26 9 27 13 19 42 -28 105 -59 482 -59 712 0 146 15 340 31 398
12 45 12 43 -23 52 -20 5 -27 3 -32 -12z"/>
<path d="M7260 3251 c0 -141 143 -872 194 -995 16 -39 23 -43 50 -23 17 12 17
17 -8 98 -47 158 -131 566 -155 764 -7 50 -14 109 -17 133 -5 39 -8 42 -35 42
-22 0 -29 -5 -29 -19z"/>
<path d="M8895 3173 c-13 -81 -29 -144 -76 -310 -62 -217 -73 -294 -65 -453 5
-112 25 -245 41 -270 6 -9 55 8 55 19 0 3 -6 38 -14 76 -40 198 -29 362 39
595 42 139 85 327 85 365 0 10 -10 15 -30 15 -26 0 -30 -4 -35 -37z"/>
<path d="M3587 3103 c-13 -176 40 -758 84 -926 9 -36 12 -38 37 -32 34 8 32 4
22 50 -39 170 -80 587 -80 818 l0 167 -29 0 c-28 0 -28 0 -34 -77z"/>
<path d="M5234 3128 c-16 -26 -17 -269 0 -385 22 -158 61 -328 105 -452 37
-107 51 -123 83 -99 16 12 15 18 -8 73 -31 73 -86 285 -108 415 -22 125 -31
321 -18 390 6 30 9 56 9 57 -11 11 -56 12 -63 1z"/>
<path d="M7987 3003 c-42 -196 -50 -278 -51 -485 -1 -113 2 -209 5 -212 3 -4
17 -2 30 2 24 9 24 10 21 143 -4 146 14 333 49 504 12 59 20 108 18 110 -2 2
-16 6 -30 10 -25 6 -26 5 -42 -72z"/>
<path d="M1801 2936 c-11 -56 -41 -175 -66 -266 -52 -192 -75 -303 -75 -370 0
-40 53 -279 66 -302 3 -4 17 -2 32 3 l28 9 -34 133 c-33 127 -33 135 -23 217
6 47 31 162 57 255 49 182 94 370 94 396 0 11 -10 18 -29 21 l-28 4 -22 -100z"/>
<path d="M10540 3005 c0 -14 -23 -114 -51 -223 -115 -440 -118 -473 -69 -667
16 -65 31 -119 33 -122 5 -4 57 14 57 20 0 2 -14 58 -31 123 -38 145 -36 219
9 394 70 266 110 427 115 463 6 37 5 37 -29 37 -30 0 -34 -3 -34 -25z"/>
<path d="M2790 2940 c0 -5 9 -65 19 -132 11 -68 23 -158 27 -200 l6 -78 31 0
30 0 -7 89 c-6 79 -27 230 -42 304 -5 22 -11 27 -35 27 -16 0 -29 -4 -29 -10z"/>
<path d="M2484 2666 c-8 -22 13 -346 31 -472 8 -56 22 -134 31 -173 16 -71 17
-73 42 -66 15 4 28 8 30 10 2 2 -5 45 -16 97 -29 134 -43 260 -51 448 l-6 165
-28 3 c-18 2 -29 -2 -33 -12z"/>
<path d="M480 2310 c-14 -4 -24 -13 -22 -20 2 -8 8 -65 14 -127 14 -138 0
-348 -37 -587 -32 -202 -32 -196 3 -196 l29 0 21 133 c36 222 43 286 49 452 5
151 -8 331 -25 346 -4 3 -18 3 -32 -1z"/>
<path d="M9201 2313 c-19 -4 -22 -9 -17 -31 4 -15 10 -98 13 -184 6 -176 -6
-334 -42 -557 -13 -79 -22 -148 -19 -153 3 -4 16 -8 29 -8 28 0 27 -2 50 135
31 189 47 356 48 505 0 144 -16 302 -31 299 -4 -1 -18 -4 -31 -6z"/>
<path d="M4120 2263 c-8 -3 -20 -6 -26 -8 -9 -3 -8 -19 2 -62 36 -147 28 -390
-22 -660 -13 -73 -24 -134 -24 -137 0 -2 13 -6 30 -8 28 -4 30 -2 40 46 56
261 75 560 46 726 -18 100 -22 110 -46 103z"/>
<path d="M6918 2253 c-10 -2 -18 -8 -18 -11 0 -4 18 -70 40 -147 58 -204 101
-407 107 -512 l6 -93 33 0 c19 0 34 5 34 10 0 122 -70 456 -156 743 -5 17 -13
19 -46 10z"/>
<path d="M2948 2223 c-23 -6 -22 -17 2 -89 55 -157 97 -384 102 -541 l3 -91
28 -5 c20 -2 31 1 35 11 10 26 -18 281 -43 402 -31 147 -85 320 -99 319 -6 -1
-19 -3 -28 -6z"/>
<path d="M7775 2192 c-11 -2 -23 -7 -27 -11 -4 -3 13 -96 37 -206 82 -364 112
-590 100 -740 -4 -44 -24 -163 -46 -264 -21 -101 -39 -199 -39 -218 0 -32 2
-34 28 -31 23 3 28 9 33 43 3 22 23 116 43 210 71 323 60 492 -65 1044 -22 96
-40 175 -42 176 -1 1 -11 -1 -22 -3z"/>
<path d="M4902 2183 c-16 -3 -21 -10 -18 -21 26 -89 41 -491 23 -649 l-8 -73
30 0 c27 0 31 4 38 38 13 63 7 538 -8 626 -14 82 -18 86 -57 79z"/>
<path d="M1220 2177 c0 -2 7 -50 15 -108 27 -194 38 -455 25 -627 -6 -86 -17
-188 -24 -227 -15 -75 -10 -88 29 -83 16 3 22 15 32 68 41 227 42 570 3 860
-17 120 -17 120 -50 120 -17 0 -30 -1 -30 -3z"/>
<path d="M9950 2164 c0 -9 8 -73 17 -142 24 -183 24 -638 0 -776 -18 -104 -16
-115 24 -116 61 0 79 629 27 978 -10 70 -11 72 -39 72 -20 0 -29 -5 -29 -16z"/>
<path d="M5810 2155 c0 -2 12 -80 26 -172 37 -234 38 -406 2 -603 -15 -80 -30
-186 -34 -237 l-7 -92 27 -7 c15 -3 29 -4 33 -1 3 3 9 55 13 114 5 59 21 178
36 263 23 137 26 172 21 295 -4 77 -15 199 -27 270 -29 184 -26 175 -60 175
-17 0 -30 -2 -30 -5z"/>
<path d="M10868 2152 c-16 -2 -28 -4 -28 -6 0 -1 7 -49 15 -107 28 -201 38
-444 25 -621 -6 -89 -17 -201 -24 -248 -8 -47 -10 -89 -6 -93 4 -5 18 -7 31
-5 22 3 25 11 36 78 24 156 36 376 29 539 -6 167 -31 424 -44 451 -4 9 -17 14
-34 12z"/>
<path d="M2120 2134 c0 -9 8 -73 17 -142 24 -178 24 -632 0 -786 -22 -141 -22
-136 12 -136 34 0 33 -4 57 201 20 173 14 580 -10 749 -9 58 -16 111 -16 118
0 19 -60 16 -60 -4z"/>
<path d="M8211 2121 c-12 -8 -8 -30 23 -134 53 -183 75 -294 88 -454 l12 -143
30 0 29 0 -6 118 c-9 167 -31 281 -98 515 -32 109 -42 121 -78 98z"/>
<path d="M6580 1982 c0 -10 9 -81 20 -159 42 -297 38 -431 -21 -685 -17 -73
-33 -170 -36 -215 l-6 -83 30 0 30 0 6 73 c3 39 22 146 42 237 57 254 58 414
4 773 -11 76 -12 77 -40 77 -21 0 -29 -5 -29 -18z"/>
<path d="M3532 1961 c-12 -7 -11 -23 4 -92 13 -61 18 -127 18 -239 0 -168 -12
-248 -69 -482 -66 -267 -71 -403 -20 -555 28 -83 91 -204 110 -210 6 -2 19 3
29 10 18 13 17 17 -22 88 -78 143 -104 274 -83 424 6 44 29 154 51 245 80 338
90 526 40 764 -12 57 -26 68 -58 47z"/>
<path d="M4557 1803 c-17 -4 -18 -12 -10 -91 4 -48 7 -152 7 -232 -1 -131 -6
-168 -49 -375 -68 -337 -72 -484 -14 -688 10 -35 13 -38 37 -32 15 4 28 8 29
9 2 2 -7 38 -19 82 -17 65 -21 106 -21 229 0 141 3 164 48 380 48 225 49 234
49 410 1 200 -9 316 -27 314 -7 -1 -20 -3 -30 -6z"/>
<path d="M807 1783 c-3 -5 0 -64 5 -133 5 -69 8 -210 5 -315 -3 -183 -5 -198
-50 -397 -58 -257 -81 -435 -74 -585 3 -62 8 -116 11 -121 3 -5 16 -7 29 -5
l24 5 0 161 c1 183 14 280 73 545 56 251 65 360 50 617 -6 116 -13 216 -15
223 -5 13 -51 17 -58 5z"/>
<path d="M9534 1708 c15 -195 18 -416 7 -508 -7 -52 -30 -174 -52 -272 -56
-253 -71 -375 -67 -549 1 -81 5 -150 8 -152 3 -3 17 -3 31 0 l25 5 -4 131 c-5
161 13 304 67 547 59 259 65 322 57 570 -3 118 -9 236 -13 263 -5 44 -7 47
-36 47 l-30 0 7 -82z"/>
<path d="M4927 993 c-8 -14 -26 -181 -32 -308 -7 -140 9 -410 30 -521 8 -42
16 -79 19 -81 2 -2 16 2 30 9 20 9 26 17 22 32 -26 108 -31 182 -30 461 0 179
5 320 11 350 6 27 11 51 10 52 -8 7 -56 13 -60 6z"/>
</g>
</svg>
