<?xml version="1.0" standalone="no"?>
<!DOCTYPE svg PUBLIC "-//W3C//DTD SVG 20010904//EN"
 "http://www.w3.org/TR/2001/REC-SVG-20010904/DTD/svg10.dtd">
<svg version="1.0" xmlns="http://www.w3.org/2000/svg"
 width="1125.000000pt" height="900.000000pt" viewBox="0 0 1125.000000 900.000000"
 preserveAspectRatio="xMidYMid meet">
<metadata>
Created by potrace 1.13, written by Peter Selinger 2001-2015
</metadata>
<g transform="translate(0.000000,900.000000) scale(0.100000,-0.100000)"
fill="#000000" stroke="none">
<path d="M0 4500 l0 -4500 5625 0 5625 0 0 4500 0 4500 -5625 0 -5625 0 0
-4500z m1088 4428 l3 -28 665 0 664 0 0 30 0 30 263 -2 262 -3 3 -28 3 -27
662 2 662 3 3 28 3 27 262 -2 262 -3 3 -27 3 -28 659 0 659 0 3 28 3 27 262 3
262 2 3 -27 3 -28 667 -3 667 -2 3 27 3 28 265 0 265 0 3 -28 3 -27 662 2 662
3 3 28 3 27 262 -2 262 -3 3 -27 3 -28 405 0 404 0 -2 -277 -3 -278 -37 -3
c-34 -3 -38 -6 -38 -32 0 -26 4 -29 38 -32 l37 -3 3 -267 2 -268 -205 0 -205
0 91 117 90 117 -20 20 c-19 18 -22 19 -38 3 -10 -9 -58 -70 -108 -136 l-90
-120 -112 -1 -113 0 0 -30 0 -30 353 -2 352 -3 3 -478 c2 -462 2 -478 -16
-473 -15 5 -41 -22 -127 -134 l-107 -140 -99 0 -99 0 0 -30 0 -30 225 0 225 0
-2 -577 -3 -578 -5580 0 -5580 0 -3 577 -2 578 442 2 443 3 3 27 3 28 -443 2
-443 3 1 105 c0 58 1 114 1 125 0 11 0 238 -1 505 l-1 485 308 3 307 2 0 30 0
30 -310 0 -310 0 2 268 3 267 622 3 623 2 0 30 0 30 -622 2 -623 3 -3 278 -2
277 260 0 260 0 0 23 c0 13 3 27 7 30 4 4 122 6 262 5 l256 -3 3 -27z m10120
-2370 l-3 -103 -79 -3 c-69 -3 -78 -1 -72 13 9 23 140 194 149 195 4 0 6 -46
5 -102z m-8588 -1693 l0 -305 -1288 2 -1287 3 -3 303 -2 302 1290 0 1290 0 0
-305z m2950 0 l0 -305 -1445 0 -1445 0 0 305 0 305 1445 0 1445 0 0 -305z
m2478 3 l-3 -303 -1207 -3 -1208 -2 0 305 0 305 1210 0 1210 0 -2 -302z m2582
-3 l0 -305 -1260 0 -1260 0 0 305 0 305 1260 0 1260 0 0 -305z m578 3 l-3
-303 -255 0 -255 0 -3 303 -2 302 260 0 260 0 -2 -302z m-10238 -713 l0 -345
-465 0 -465 0 0 338 c0 186 3 342 7 345 3 4 213 7 465 7 l458 0 0 -345z m2840
0 l0 -345 -1390 0 -1390 0 0 345 0 345 1390 0 1390 0 0 -345z m3100 0 l0 -345
-1520 0 -1520 0 0 345 0 345 1520 0 1520 0 0 -345z m2460 0 l0 -345 -1200 0
-1200 0 0 345 0 345 1200 0 1200 0 0 -345z m1838 -2 l2 -343 -885 0 -885 0 0
345 0 345 883 -2 882 -3 3 -342z m-3 -908 l0 -500 -252 -3 -253 -2 0 -30 0
-30 255 0 255 0 -2 -292 -3 -293 -487 -3 c-269 -1 -488 0 -488 4 0 3 41 59 91
124 50 65 88 124 84 129 -3 6 -14 15 -24 20 -15 8 -34 -12 -127 -134 l-109
-144 -122 0 -123 -1 0 -30 0 -30 653 -2 652 -3 0 -275 0 -275 -87 -3 -88 -3 0
-29 0 -29 88 -3 87 -3 0 -275 0 -275 -617 -3 -618 -2 0 -30 0 -30 620 0 620 0
0 -255 0 -255 -191 0 -190 0 3 -33 3 -32 188 -3 188 -2 -3 -83 -3 -82 -5580 0
-5580 0 -3 82 -3 83 473 2 473 3 3 32 3 33 -475 0 -476 0 0 255 0 255 45 0
c43 0 45 1 45 29 0 28 -3 30 -42 33 l-43 3 0 275 0 275 573 3 572 2 0 30 0 30
-572 2 -573 3 -3 269 c-1 173 1 273 8 280 13 13 13 63 0 71 -6 4 -10 113 -10
296 l0 289 410 0 410 0 0 30 0 30 -408 2 -407 3 -3 490 c-1 270 0 496 3 503 3
10 1125 12 5582 10 l5578 -3 0 -500z"/>
<path d="M2184 8480 l-108 -140 -128 0 -128 0 0 -30 0 -30 665 0 665 0 0 30 0
30 -496 2 -496 3 91 118 c50 64 91 122 91 127 0 8 -31 30 -44 30 -2 0 -53 -63
-112 -140z"/>
<path d="M5953 8572 c-21 -26 -69 -89 -108 -140 l-70 -92 -117 0 -118 0 0 -30
0 -30 660 0 660 0 0 30 0 30 -500 0 c-275 0 -500 3 -500 6 0 3 37 53 83 112
106 137 103 131 81 147 -27 21 -30 20 -71 -33z"/>
<path d="M9620 8482 l-105 -137 -123 -3 -122 -3 0 -29 0 -30 665 0 665 0 0 30
0 30 -505 0 -506 0 95 124 c91 117 94 124 77 140 -9 9 -22 16 -27 16 -5 0 -56
-62 -114 -138z"/>
<path d="M3680 8310 l0 -30 665 0 665 0 0 30 0 30 -665 0 -665 0 0 -30z"/>
<path d="M7390 8310 l0 -30 675 0 675 0 0 30 0 30 -675 0 -675 0 0 -30z"/>
<path d="M3402 7874 l-103 -134 -124 0 -125 0 0 -30 0 -30 666 0 665 0 -3 28
-3 27 -498 3 -498 2 90 117 c84 110 89 119 74 135 -9 10 -21 18 -27 17 -6 0
-57 -61 -114 -135z"/>
<path d="M7108 7876 l-103 -135 -122 0 -123 -1 0 -30 0 -30 670 0 670 0 0 30
0 30 -510 0 -510 0 90 116 c86 111 90 118 74 135 -10 11 -21 19 -25 19 -5 0
-55 -61 -111 -134z"/>
<path d="M1190 7710 l0 -30 665 0 665 0 0 30 0 30 -665 0 -665 0 0 -30z"/>
<path d="M4910 7710 l0 -30 660 0 660 0 0 30 0 30 -660 0 -660 0 0 -30z"/>
<path d="M8640 7710 l0 -30 665 0 665 0 0 30 0 30 -665 0 -665 0 0 -30z"/>
<path d="M2465 7217 l-110 -142 -117 -3 -118 -3 0 -29 0 -30 665 0 665 0 0 30
0 30 -505 0 c-278 0 -505 3 -505 6 0 3 43 61 95 129 l95 123 -25 16 c-13 9
-26 16 -27 16 -2 0 -52 -64 -113 -143z"/>
<path d="M6155 7218 l-110 -143 -108 -3 -108 -3 3 -27 3 -27 663 -3 662 -2 0
30 0 30 -515 0 c-283 0 -515 3 -515 6 0 3 41 59 90 123 50 65 90 122 90 126 0
8 -31 34 -40 35 -3 0 -55 -64 -115 -142z"/>
<path d="M9915 7215 l-110 -145 -117 0 -118 0 0 -30 0 -30 660 0 660 0 0 30 0
30 -501 2 -501 3 96 125 c95 124 96 125 75 143 -12 9 -24 17 -28 17 -3 -1 -55
-66 -116 -145z"/>
<path d="M260 7040 l0 -30 665 0 665 0 0 30 0 30 -665 0 -665 0 0 -30z"/>
<path d="M3980 7040 l0 -30 660 0 660 0 0 30 0 30 -660 0 -660 0 0 -30z"/>
<path d="M7710 7040 l0 -30 665 0 665 0 0 30 0 30 -665 0 -665 0 0 -30z"/>
<path d="M3656 6590 l-107 -140 -120 0 -120 0 3 -27 3 -28 663 -3 662 -2 0 30
0 30 -500 0 c-275 0 -500 4 -500 8 0 5 36 55 81 113 44 57 83 110 86 117 5 11
-22 41 -37 42 -3 0 -54 -63 -114 -140z"/>
<path d="M7393 6590 l-107 -140 -128 0 -128 0 0 -30 0 -30 668 2 667 3 3 28 3
27 -495 0 c-344 0 -496 3 -496 11 0 5 39 60 86 121 82 106 85 111 68 129 -9
10 -21 19 -25 19 -4 0 -57 -63 -116 -140z"/>
<path d="M1460 6420 l0 -30 660 0 660 0 0 30 0 30 -660 0 -660 0 0 -30z"/>
<path d="M5170 6420 l0 -30 665 0 665 0 0 30 0 30 -665 0 -665 0 0 -30z"/>
<path d="M8902 6423 l3 -28 663 -3 662 -2 0 30 0 30 -666 0 -665 0 3 -27z"/>
<path d="M894 5941 l-107 -141 -129 0 -128 0 0 -30 0 -30 660 0 660 0 0 30 0
30 -491 2 -491 3 92 119 c72 94 90 123 83 135 -23 36 -42 21 -149 -118z"/>
<path d="M4605 5940 l-108 -140 -128 0 -129 0 0 -30 0 -30 665 0 665 0 0 30 0
30 -496 2 -495 3 92 119 c73 94 90 122 82 135 -22 35 -41 20 -148 -119z"/>
<path d="M8337 5940 l-107 -140 -125 0 -125 0 0 -30 0 -30 660 0 660 0 0 30 0
30 -496 0 -495 0 95 124 c90 117 94 125 77 140 -10 9 -22 16 -27 16 -5 0 -57
-63 -117 -140z"/>
<path d="M2387 5793 c-4 -3 -7 -17 -7 -30 l0 -23 665 0 665 0 0 30 0 30 -658
0 c-362 0 -662 -3 -665 -7z"/>
<path d="M6100 5770 l0 -30 665 0 665 0 0 30 0 30 -665 0 -665 0 0 -30z"/>
<path d="M9830 5770 l0 -30 665 0 665 0 0 30 0 30 -665 0 -665 0 0 -30z"/>
<path d="M478 3465 l-103 -135 -122 0 -123 0 0 -35 0 -35 663 2 662 3 0 30 0
30 -497 3 c-274 1 -498 5 -498 8 0 3 38 54 85 115 47 60 85 113 85 119 0 8
-31 30 -44 30 -3 0 -51 -61 -108 -135z"/>
<path d="M4190 3468 l-101 -133 -122 -5 -122 -5 0 -30 0 -30 663 -3 662 -2 0
35 0 35 -500 0 c-275 0 -500 2 -500 5 0 3 39 55 87 116 68 89 84 115 76 128
-23 36 -42 21 -143 -111z"/>
<path d="M8018 3466 l-103 -135 -177 0 -178 -1 0 -35 0 -35 670 0 670 0 0 35
0 35 -450 0 c-247 0 -450 3 -450 6 0 3 36 53 80 110 45 57 83 110 86 118 5 12
-22 36 -40 36 -3 0 -52 -61 -108 -134z"/>
<path d="M1990 3295 l0 -35 660 0 660 0 0 35 0 35 -660 0 -660 0 0 -35z"/>
<path d="M5704 3316 c-3 -8 -4 -23 -2 -33 3 -17 35 -18 663 -18 l660 0 3 33 3
32 -661 0 c-566 0 -661 -2 -666 -14z"/>
<path d="M9434 3316 c-3 -8 -4 -23 -2 -33 3 -17 36 -18 666 -21 l662 -2 0 35
0 35 -660 0 c-566 0 -661 -2 -666 -14z"/>
<path d="M1761 2910 c-56 -72 -107 -139 -113 -150 -12 -18 -24 -20 -135 -20
l-123 0 0 -30 0 -30 665 0 665 0 0 30 0 30 -500 0 c-275 0 -500 3 -500 8 0 4
43 63 95 131 52 68 92 127 89 132 -3 5 -14 13 -24 19 -16 9 -32 -7 -119 -120z"/>
<path d="M5469 2890 l-114 -150 -128 0 -128 0 3 -27 3 -28 663 -3 662 -2 0 30
0 30 -495 0 c-272 0 -495 3 -495 6 0 4 91 125 183 242 7 9 4 18 -8 32 -10 11
-21 20 -25 20 -3 0 -58 -67 -121 -150z"/>
<path d="M9161 2890 l-114 -150 -103 0 -104 0 0 -30 0 -30 660 0 660 0 0 30 0
30 -515 2 -514 3 99 130 c100 130 100 130 79 148 -12 9 -24 17 -28 17 -3 -1
-57 -68 -120 -150z"/>
<path d="M3250 2710 l0 -30 660 0 660 0 0 30 0 30 -660 0 -660 0 0 -30z"/>
<path d="M6960 2710 l0 -30 670 0 670 0 0 30 0 30 -670 0 -670 0 0 -30z"/>
<path d="M2815 2234 l-110 -143 -127 -1 -128 0 0 -30 0 -30 665 0 665 0 0 30
0 30 -495 0 c-272 0 -495 2 -495 5 0 3 41 59 91 125 50 65 88 123 84 129 -3 6
-14 15 -23 20 -15 8 -36 -14 -127 -135z"/>
<path d="M6600 2236 l-112 -146 -159 0 -159 0 0 -30 0 -30 660 0 660 0 0 30 0
30 -460 2 -459 3 94 124 c53 68 94 125 93 125 -2 1 -13 9 -24 19 -22 18 -23
18 -134 -127z"/>
<path d="M590 2060 l0 -30 665 0 665 0 0 30 0 30 -665 0 -665 0 0 -30z"/>
<path d="M4310 2060 l0 -30 665 0 665 0 0 30 0 30 -665 0 -665 0 0 -30z"/>
<path d="M8040 2060 l0 -30 665 0 665 0 0 30 0 30 -665 0 -665 0 0 -30z"/>
<path d="M2173 1702 c-21 -26 -69 -89 -108 -140 l-70 -92 -137 0 -138 0 0 -30
0 -30 665 0 665 0 0 30 0 30 -485 0 c-267 0 -485 2 -485 5 0 3 37 53 83 113
106 136 103 130 81 147 -27 21 -30 20 -71 -33z"/>
<path d="M5795 1610 l-107 -140 -124 0 -124 0 0 -30 0 -30 660 0 660 0 0 30 0
30 -495 2 -495 3 90 117 c50 64 90 121 90 127 0 9 -31 31 -43 31 -3 0 -53 -63
-112 -140z"/>
<path d="M9573 1702 c-21 -26 -69 -89 -108 -140 l-70 -92 -112 0 -113 0 0 -30
0 -30 665 0 665 0 0 30 0 30 -510 0 c-280 0 -510 2 -510 5 0 3 37 53 83 113
106 136 103 130 81 147 -27 21 -30 20 -71 -33z"/>
<path d="M3580 1440 l0 -30 665 0 665 0 0 30 0 30 -665 0 -665 0 0 -30z"/>
<path d="M7290 1440 l0 -30 670 0 670 0 0 30 0 30 -670 0 -670 0 0 -30z"/>
<path d="M1010 992 l-105 -137 -123 -3 -122 -3 0 -29 0 -30 665 0 665 0 0 30
0 30 -500 0 c-275 0 -500 3 -500 6 0 3 40 58 89 122 84 109 89 118 74 134 -9
10 -21 18 -27 17 -6 0 -58 -62 -116 -137z"/>
<path d="M4734 990 l-107 -140 -124 0 -123 0 0 -30 0 -30 660 0 660 0 0 30 0
30 -496 2 -496 3 91 118 c50 64 91 120 91 124 0 7 -32 32 -42 33 -4 0 -55 -63
-114 -140z"/>
<path d="M8436 990 l-107 -140 -109 0 -110 0 0 -30 0 -30 660 0 660 0 0 30 0
30 -510 2 -510 3 95 122 c94 122 94 122 72 138 -12 8 -24 15 -28 15 -3 0 -54
-63 -113 -140z"/>
<path d="M2520 820 l0 -30 660 0 660 0 0 30 0 30 -660 0 -660 0 0 -30z"/>
<path d="M6230 820 l0 -30 665 0 665 0 0 30 0 30 -665 0 -665 0 0 -30z"/>
<path d="M1905 425 l-110 -145 -138 0 -138 0 3 -33 3 -32 660 0 660 0 3 33 3
32 -485 0 c-267 0 -486 2 -486 5 0 3 37 53 83 113 46 59 87 113 91 120 7 12
-19 53 -33 52 -3 -1 -55 -66 -116 -145z"/>
<path d="M5660 425 l-111 -145 -155 0 -154 0 0 -35 0 -35 660 0 660 0 0 35 0
35 -464 2 -465 3 95 123 c52 67 94 124 94 126 0 2 -11 11 -25 20 l-24 16 -111
-145z"/>
<path d="M9333 427 l-109 -142 -127 -3 -128 -3 3 -32 3 -32 660 0 660 0 3 33
3 32 -501 0 -501 0 96 125 c53 69 93 129 90 135 -3 5 -14 14 -24 20 -16 8 -34
-10 -128 -133z"/>
<path d="M3382 248 l3 -33 660 0 660 0 0 30 0 30 -663 3 -663 2 3 -32z"/>
<path d="M7100 245 l0 -35 665 0 665 0 0 35 0 35 -665 0 -665 0 0 -35z"/>
</g>
</svg>
