<?xml version="1.0" standalone="no"?>
<!DOCTYPE svg PUBLIC "-//W3C//DTD SVG 20010904//EN"
 "http://www.w3.org/TR/2001/REC-SVG-20010904/DTD/svg10.dtd">
<svg version="1.0" xmlns="http://www.w3.org/2000/svg"
 width="1125.000000pt" height="900.000000pt" viewBox="0 0 1125.000000 900.000000"
 preserveAspectRatio="xMidYMid meet">
<metadata>
Created by potrace 1.13, written by Peter Selinger 2001-2015
</metadata>
<g transform="translate(0.000000,900.000000) scale(0.100000,-0.100000)"
fill="#000000" stroke="none">
<path d="M0 4500 l0 -4500 5625 0 5625 0 0 4500 0 4500 -5625 0 -5625 0 0
-4500z m8720 4451 c0 -6 -4 -13 -10 -16 -17 -11 -11 -64 10 -85 26 -26 81 -26
105 0 14 15 16 29 12 65 l-7 45 1188 -2 1187 -3 0 -175 0 -175 -497 -184
c-274 -101 -498 -189 -498 -196 0 -6 6 -19 13 -28 11 -16 51 -3 486 158 260
96 479 175 487 175 12 0 14 -72 14 -460 l0 -461 -34 6 c-64 12 -109 -39 -86
-96 15 -34 60 -55 88 -40 11 6 22 7 26 4 3 -3 6 -105 6 -225 l0 -218 -75 0
-75 0 0 -30 c0 -28 3 -30 38 -30 20 0 54 -3 75 -6 l37 -7 0 -723 c0 -443 -4
-725 -9 -729 -6 -3 -195 6 -421 20 -226 14 -416 23 -421 20 -5 -4 -9 -17 -9
-30 0 -29 -10 -28 475 -56 198 -11 366 -22 373 -24 9 -4 12 -286 12 -1369 0
-1291 -1 -1365 -17 -1370 -10 -3 -268 -44 -573 -91 -305 -48 -556 -88 -558
-90 -9 -8 12 -55 25 -55 8 0 257 38 555 85 297 47 546 85 554 85 12 0 14 -104
14 -665 0 -366 -2 -665 -4 -665 -2 0 -46 20 -97 44 -93 44 -264 96 -409 123
-184 35 -421 -24 -592 -146 -67 -49 -104 -112 -93 -162 19 -87 163 -169 477
-273 263 -87 311 -99 381 -93 60 5 178 55 280 118 26 16 50 29 52 29 3 0 4
-204 3 -452 l-3 -453 -625 1 c-364 0 -681 5 -759 12 -116 9 -136 9 -145 -4
-10 -13 -175 -14 -1351 -11 l-1340 3 -215 27 c-117 15 -217 27 -221 27 -4 0
-9 -12 -11 -27 l-3 -28 -869 -3 c-825 -2 -868 -1 -861 15 26 59 7 106 -47 119
-22 5 -34 0 -59 -25 -20 -20 -29 -38 -26 -49 3 -9 9 -27 13 -39 l6 -23 -311 0
-311 0 0 25 c0 31 44 30 -431 3 -367 -21 -457 -22 -1989 -23 l-1605 0 -2 1303
-3 1302 23 10 c12 5 114 23 227 41 113 17 208 33 211 35 4 2 4 15 1 29 -6 32
-4 32 -232 -5 -102 -16 -195 -30 -207 -30 l-23 0 0 1349 c0 744 4 1352 9 1355
4 3 109 -1 232 -9 123 -8 250 -15 282 -15 57 0 57 0 57 30 0 26 -3 30 -29 30
-54 0 -526 31 -538 35 -10 3 -13 99 -13 431 l0 426 25 30 c32 37 32 69 0 106
-25 30 -25 30 -25 246 l0 216 22 0 c28 0 1080 -78 1131 -84 36 -4 37 -3 37 28
l0 32 -502 38 c-277 21 -543 41 -593 44 l-90 7 -2 770 c-2 424 1 775 5 780 4
6 97 44 207 84 110 40 201 75 203 76 8 7 -11 55 -22 55 -6 -1 -94 -32 -196
-70 -102 -37 -188 -66 -192 -63 -10 5 -11 287 -1 296 10 11 8673 8 8673 -2z
m2030 -7548 c30 -8 96 -25 147 -38 106 -27 251 -92 288 -129 23 -23 25 -32 25
-110 l0 -85 -37 -30 c-21 -18 -89 -57 -151 -89 -158 -80 -174 -79 -472 20
-504 168 -573 242 -347 377 71 42 208 90 290 101 74 10 182 3 257 -17z"/>
<path d="M1975 8896 c-123 -39 -184 -117 -172 -222 14 -132 159 -206 311 -160
127 38 191 164 140 273 -39 82 -184 138 -279 109z m128 -67 c20 -5 53 -26 72
-45 85 -85 9 -206 -137 -220 -135 -13 -223 113 -147 210 45 57 127 79 212 55z"/>
<path d="M5510 8808 c-26 -28 -26 -58 1 -92 39 -50 122 -22 122 42 0 66 -78
98 -123 50z"/>
<path d="M7710 8807 c-13 -7 -29 -25 -34 -39 -29 -83 94 -137 128 -56 17 39
11 63 -22 88 -29 23 -38 24 -72 7z"/>
<path d="M10187 8742 c-40 -44 -7 -122 51 -122 60 0 94 78 52 120 -26 26 -81
26 -103 2z"/>
<path d="M3361 8724 c-27 -35 -26 -59 4 -89 33 -34 77 -33 104 1 12 15 21 34
21 44 0 34 -39 70 -75 70 -24 0 -39 -7 -54 -26z"/>
<path d="M1083 8618 c-28 -14 -43 -55 -31 -89 9 -26 44 -49 74 -49 24 0 64 47
64 75 0 30 -41 75 -67 74 -10 0 -28 -5 -40 -11z"/>
<path d="M7895 8450 c-280 -38 -554 -74 -607 -80 l-98 -12 0 -29 c0 -24 4 -29
25 -29 26 0 1247 159 1251 163 1 1 0 14 -3 30 -4 22 -11 27 -32 26 -14 -1
-255 -32 -536 -69z"/>
<path d="M3090 8431 c0 -27 3 -30 43 -36 44 -6 1669 -185 1680 -185 4 0 7 13
7 30 0 25 -4 30 -32 34 -37 6 -1668 186 -1687 186 -6 0 -11 -13 -11 -29z"/>
<path d="M9205 8375 c-14 -13 -25 -36 -25 -50 0 -28 40 -75 64 -75 29 0 64 22
75 48 16 33 -1 75 -35 91 -37 16 -52 14 -79 -14z"/>
<path d="M6059 8324 c-77 -23 -140 -72 -172 -134 -58 -111 -20 -241 106 -364
200 -195 426 -235 575 -101 89 80 145 226 122 317 -33 127 -172 243 -340 282
-81 19 -230 19 -291 0z m329 -75 c80 -27 169 -93 210 -154 26 -40 32 -58 32
-104 0 -104 -82 -228 -176 -267 -86 -36 -209 -9 -329 73 -260 176 -270 413
-20 477 46 12 221 -3 283 -25z"/>
<path d="M425 8268 c-50 -27 -59 -75 -20 -113 42 -43 106 -23 120 36 12 48
-57 101 -100 77z"/>
<path d="M2350 8010 c-45 -45 -11 -120 54 -120 25 0 39 7 50 22 36 51 5 118
-54 118 -17 0 -39 -9 -50 -20z"/>
<path d="M4435 8005 c-30 -30 -31 -54 -4 -89 15 -19 30 -26 54 -26 36 0 75 36
75 70 0 10 -9 29 -21 44 -27 34 -71 35 -104 1z"/>
<path d="M7891 7934 c-12 -15 -21 -34 -21 -44 0 -34 39 -70 75 -70 36 0 75 36
75 70 0 34 -39 70 -75 70 -24 0 -39 -7 -54 -26z"/>
<path d="M1510 7823 c-51 -19 -68 -85 -30 -123 61 -61 159 32 103 98 -20 23
-50 33 -73 25z"/>
<path d="M3426 7809 c-36 -28 -36 -80 0 -108 15 -12 34 -21 44 -21 34 0 70 39
70 75 0 36 -36 75 -70 75 -10 0 -29 -9 -44 -21z"/>
<path d="M5260 7780 c-11 -11 -20 -33 -20 -50 0 -17 9 -39 20 -50 11 -11 33
-20 50 -20 17 0 39 9 50 20 11 11 20 33 20 50 0 17 -9 39 -20 50 -11 11 -33
20 -50 20 -17 0 -39 -9 -50 -20z"/>
<path d="M9545 7793 c-68 -15 -179 -58 -213 -83 -49 -35 -82 -101 -82 -163 0
-59 17 -102 61 -151 75 -86 173 -121 313 -113 204 11 346 111 346 243 0 51
-41 134 -86 173 -87 77 -234 118 -339 94z m222 -94 c107 -51 161 -139 132
-215 -40 -106 -248 -172 -406 -129 -55 15 -76 27 -119 69 -60 58 -74 102 -55
167 19 64 112 116 251 142 52 10 136 -4 197 -34z"/>
<path d="M10183 7748 c-81 -39 -20 -167 62 -130 55 25 58 100 5 127 -33 17
-37 17 -67 3z"/>
<path d="M7160 7708 c-27 -29 -25 -69 3 -96 46 -43 120 -15 120 46 0 66 -78
98 -123 50z"/>
<path d="M4241 7705 c-48 -15 -85 -46 -107 -87 -16 -31 -19 -115 -4 -152 15
-41 82 -108 129 -129 56 -24 161 -26 216 -3 77 33 134 111 135 186 0 49 -38
120 -79 148 -75 49 -199 65 -290 37z m229 -75 c45 -23 80 -71 80 -111 0 -14
-10 -41 -22 -59 -38 -55 -71 -74 -143 -78 -114 -7 -193 50 -203 147 -3 40 0
52 23 79 15 17 41 36 58 42 49 15 159 4 207 -20z"/>
<path d="M8581 7544 c-12 -15 -21 -34 -21 -44 0 -10 9 -29 21 -44 41 -52 122
-23 122 44 0 67 -81 96 -122 44z"/>
<path d="M692 7514 c-62 -43 -32 -134 44 -134 24 0 64 47 64 75 0 30 -41 75
-67 75 -10 0 -29 -7 -41 -16z"/>
<path d="M6262 7293 c-7 -3 -19 -18 -28 -35 -13 -24 -13 -35 -4 -58 31 -74
140 -51 140 30 0 45 -63 81 -108 63z"/>
<path d="M2029 7267 c-37 -19 -53 -60 -37 -94 26 -55 104 -54 130 2 26 57 -37
119 -93 92z"/>
<path d="M2875 7255 c-30 -29 -32 -64 -5 -93 30 -32 82 -30 110 5 55 70 -42
151 -105 88z"/>
<path d="M7602 7074 c-28 -20 -31 -83 -4 -107 25 -23 78 -21 102 3 61 61 -27
154 -98 104z"/>
<path d="M8340 7038 c-53 -37 -73 -71 -78 -135 -8 -112 41 -208 125 -245 119
-53 227 24 240 172 9 96 -29 170 -108 210 -54 28 -136 27 -179 -2z m161 -61
c69 -46 87 -142 41 -220 -72 -125 -240 -11 -219 148 12 84 104 122 178 72z"/>
<path d="M5035 7042 c-3 -3 -5 -18 -5 -34 0 -25 4 -28 33 -28 17 0 406 -31
862 -69 611 -51 832 -66 837 -57 15 22 8 46 -14 50 -13 3 -390 35 -838 71
-448 36 -827 67 -843 68 -15 2 -29 1 -32 -1z"/>
<path d="M2455 6894 c-192 -28 -321 -84 -429 -185 -77 -71 -106 -126 -106
-195 0 -91 51 -224 107 -276 15 -15 120 -73 232 -129 l204 -102 76 6 c42 3
112 17 156 32 170 55 444 207 522 287 92 95 81 240 -27 348 -54 54 -111 80
-178 80 -41 0 -70 9 -132 40 -120 60 -215 89 -311 94 -46 2 -97 2 -114 0z
m251 -88 c38 -13 108 -43 157 -66 67 -33 101 -43 148 -46 75 -3 127 -34 169
-101 95 -149 22 -245 -315 -408 -142 -69 -239 -103 -326 -112 -55 -5 -58 -4
-260 96 -229 114 -241 124 -279 250 -28 89 -26 130 9 177 113 153 288 231 522
233 87 1 118 -3 175 -23z"/>
<path d="M9133 6880 c-48 -19 -58 -87 -17 -119 53 -41 114 -13 114 52 0 51
-50 86 -97 67z"/>
<path d="M9896 6799 c-19 -15 -26 -30 -26 -54 0 -36 36 -75 70 -75 34 0 70 39
70 75 0 36 -36 75 -70 75 -10 0 -29 -9 -44 -21z"/>
<path d="M5943 6650 c-46 -19 -57 -83 -20 -118 47 -44 117 -13 117 52 0 50
-50 84 -97 66z"/>
<path d="M3955 6585 c-28 -27 -31 -45 -14 -78 16 -30 28 -37 66 -37 35 0 73
37 73 72 0 27 -45 68 -75 68 -14 0 -37 -11 -50 -25z"/>
<path d="M1365 6495 c-14 -13 -25 -31 -25 -39 0 -30 23 -65 50 -76 58 -24 120
44 90 99 -24 46 -78 53 -115 16z"/>
<path d="M4993 6435 c-64 -45 -8 -151 66 -123 54 20 66 74 26 113 -27 28 -61
32 -92 10z"/>
<path d="M6861 6374 c-12 -15 -21 -35 -21 -46 0 -27 45 -68 75 -68 30 0 75 41
75 68 0 35 -38 72 -75 72 -24 0 -39 -7 -54 -26z"/>
<path d="M7646 6299 c-19 -15 -26 -30 -26 -54 0 -36 36 -75 70 -75 34 0 70 39
70 75 0 36 -36 75 -70 75 -10 0 -29 -9 -44 -21z"/>
<path d="M9516 6165 c-21 -7 -56 -31 -78 -52 -126 -123 -50 -333 121 -333 98
0 158 51 181 155 22 96 -18 191 -94 226 -49 22 -77 23 -130 4z m134 -80 c32
-34 40 -136 16 -183 -42 -80 -170 -82 -211 -2 -21 40 -19 109 4 144 46 69 145
90 191 41z"/>
<path d="M597 5959 c-48 -28 -40 -107 12 -129 75 -31 134 58 76 115 -25 26
-58 31 -88 14z"/>
<path d="M8137 5959 c-48 -28 -40 -107 13 -129 58 -24 120 44 90 99 -20 38
-66 51 -103 30z"/>
<path d="M10305 5945 c-14 -13 -25 -35 -25 -47 0 -56 61 -93 106 -63 37 24 48
52 33 86 -22 54 -74 65 -114 24z"/>
<path d="M2253 5868 c-68 -33 -40 -138 37 -138 28 0 70 44 70 73 0 51 -61 88
-107 65z"/>
<path d="M5642 5864 c-62 -43 -32 -134 44 -134 24 0 64 47 64 75 0 30 -41 75
-67 75 -10 0 -29 -7 -41 -16z"/>
<path d="M4365 5830 c-42 -47 -8 -120 55 -120 33 0 70 40 70 76 0 57 -86 87
-125 44z"/>
<path d="M3279 5797 c-45 -35 -43 -91 4 -122 46 -30 107 7 107 63 0 51 -72 89
-111 59z"/>
<path d="M6415 5724 c-165 -25 -235 -128 -160 -236 22 -31 50 -53 99 -78 61
-31 77 -35 145 -34 116 0 187 45 211 133 21 78 -42 177 -127 201 -47 13 -128
19 -168 14z m159 -78 c67 -28 96 -103 60 -154 -72 -104 -344 -42 -344 79 0 33
24 58 73 76 45 16 171 16 211 -1z"/>
<path d="M4305 5473 c-423 -58 -773 -108 -777 -112 -4 -3 -4 -18 0 -32 l7 -25
790 108 c435 59 796 107 803 108 7 0 12 13 12 30 0 27 -3 30 -32 29 -18 -1
-379 -48 -803 -106z"/>
<path d="M7374 5485 c-4 -14 -5 -28 -2 -30 6 -6 1389 -347 1392 -344 2 2 6 16
10 31 l6 26 -693 171 c-380 94 -695 171 -699 171 -4 0 -10 -11 -14 -25z"/>
<path d="M1633 5478 c-28 -14 -43 -55 -31 -89 9 -26 44 -49 74 -49 24 0 64 47
64 75 0 30 -41 75 -67 74 -10 0 -28 -5 -40 -11z"/>
<path d="M9120 5420 c-11 -11 -20 -33 -20 -50 0 -17 9 -39 20 -50 11 -11 33
-20 50 -20 17 0 39 9 50 20 11 11 20 33 20 50 0 17 -9 39 -20 50 -11 11 -33
20 -50 20 -17 0 -39 -9 -50 -20z"/>
<path d="M2620 5227 c-76 -38 -28 -154 55 -133 29 7 56 56 48 87 -11 41 -65
65 -103 46z"/>
<path d="M7052 5194 c-16 -11 -22 -25 -22 -54 0 -29 6 -43 22 -54 51 -36 118
-5 118 54 0 59 -67 90 -118 54z"/>
<path d="M10832 5167 c-45 -48 -16 -120 48 -120 65 0 95 76 47 121 -30 28 -68
28 -95 -1z"/>
<path d="M9937 5100 c-87 -22 -154 -76 -196 -158 -42 -81 -114 -125 -229 -139
-50 -5 -57 -9 -88 -52 -152 -207 -91 -339 190 -411 186 -47 541 -65 679 -34
146 33 244 99 293 197 96 189 16 419 -180 516 -134 66 -368 106 -469 81z m273
-79 c247 -63 341 -154 348 -336 5 -105 -19 -166 -90 -230 -92 -82 -219 -111
-448 -101 -317 13 -528 65 -590 143 -33 42 -24 111 22 184 34 53 39 56 84 63
125 16 191 60 267 175 23 36 54 74 69 84 67 50 189 56 338 18z"/>
<path d="M8281 5024 c-12 -15 -21 -34 -21 -44 0 -34 39 -70 75 -70 36 0 75 36
75 70 0 34 -39 70 -75 70 -24 0 -39 -7 -54 -26z"/>
<path d="M1026 5009 c-50 -39 -22 -122 42 -122 66 0 98 78 50 123 -28 26 -58
26 -92 -1z"/>
<path d="M4640 4960 c-61 -61 27 -154 98 -104 28 20 31 83 4 107 -25 23 -78
21 -102 -3z"/>
<path d="M312 4937 c-45 -48 -17 -117 47 -117 46 0 71 24 71 68 0 65 -74 96
-118 49z"/>
<path d="M6267 4892 c-23 -25 -21 -78 3 -102 61 -61 154 27 104 98 -20 28 -83
31 -107 4z"/>
<path d="M3635 4845 c-40 -39 -29 -97 22 -116 36 -13 78 5 93 40 31 75 -58
134 -115 76z"/>
<path d="M1752 4610 c-49 -20 -54 -95 -7 -126 73 -48 147 61 79 115 -29 23
-38 24 -72 11z"/>
<path d="M7625 4595 c-34 -33 -33 -77 1 -104 15 -12 34 -21 44 -21 34 0 70 39
70 75 0 24 -7 39 -26 54 -35 27 -59 26 -89 -4z"/>
<path d="M3250 4578 c-165 -85 -136 -337 44 -388 131 -36 249 74 233 216 -6
60 -43 130 -84 161 -50 38 -131 43 -193 11z m165 -71 c56 -56 67 -141 27 -209
-62 -107 -242 -36 -242 96 0 78 67 146 144 146 30 0 45 -7 71 -33z"/>
<path d="M6381 4576 c-110 -36 -134 -125 -65 -243 79 -137 183 -284 238 -339
68 -68 177 -127 341 -184 344 -120 526 -106 596 45 80 174 -100 453 -386 597
-68 35 -212 85 -315 110 -111 27 -344 35 -409 14z m430 -85 c135 -35 280 -95
359 -148 90 -61 203 -181 239 -255 45 -91 52 -170 19 -217 -39 -57 -69 -73
-146 -79 -85 -6 -177 13 -355 74 -240 82 -319 137 -425 292 -155 227 -186 298
-144 334 35 31 76 38 207 34 104 -3 154 -10 246 -35z"/>
<path d="M5490 4480 c-43 -43 -11 -120 50 -120 38 0 70 32 70 70 0 38 -32 70
-70 70 -17 0 -39 -9 -50 -20z"/>
<path d="M2422 4457 c-46 -48 -16 -120 50 -120 64 0 92 83 42 122 -35 27 -65
27 -92 -2z"/>
<path d="M375 4441 c-48 -22 -79 -54 -100 -103 -28 -69 -18 -121 36 -183 104
-118 308 -121 386 -6 28 41 30 107 7 157 -23 47 -117 131 -162 144 -56 15
-122 12 -167 -9z m193 -75 c52 -35 83 -80 89 -127 5 -32 1 -42 -24 -68 -56
-56 -136 -61 -223 -14 -83 45 -109 111 -68 173 50 74 149 90 226 36z"/>
<path d="M8936 4369 c-19 -15 -26 -30 -26 -54 0 -37 37 -75 72 -75 27 0 68 45
68 75 0 30 -41 75 -68 75 -11 0 -31 -9 -46 -21z"/>
<path d="M4385 4202 c-3 -3 -5 -17 -5 -31 l0 -27 623 -53 c342 -30 633 -54
647 -55 21 -1 25 3 25 29 l0 30 -595 52 c-327 28 -616 53 -642 56 -26 2 -50 2
-53 -1z"/>
<path d="M10882 4163 c-32 -27 -37 -64 -12 -96 57 -72 167 8 113 81 -25 33
-71 40 -101 15z"/>
<path d="M1236 4033 c-18 -47 -41 -41 676 -186 374 -75 682 -136 683 -135 1 2
5 15 9 30 7 31 86 12 -751 181 -503 102 -613 122 -617 110z"/>
<path d="M2990 4020 c-61 -61 27 -154 98 -104 28 20 31 83 4 107 -25 23 -78
21 -102 -3z"/>
<path d="M3903 3898 c-81 -39 -20 -167 62 -130 55 25 58 100 5 127 -33 17 -37
17 -67 3z"/>
<path d="M8232 3894 c-63 -44 -37 -134 39 -134 28 0 69 44 69 73 0 55 -65 92
-108 61z"/>
<path d="M1045 3815 c-14 -13 -25 -36 -25 -50 0 -28 40 -75 64 -75 59 0 96 51
75 103 -21 50 -76 61 -114 22z"/>
<path d="M9336 3788 c-50 -71 43 -159 104 -98 26 26 26 81 2 103 -28 25 -87
22 -106 -5z"/>
<path d="M10273 3598 c-12 -6 -26 -22 -31 -37 -27 -76 77 -134 123 -68 22 31
18 65 -10 92 -26 27 -47 30 -82 13z"/>
<path d="M8360 3431 c-111 -36 -156 -105 -130 -197 45 -159 292 -220 399 -99
103 118 0 292 -177 301 -37 2 -78 0 -92 -5z m132 -61 c128 -36 156 -183 42
-226 -106 -40 -244 33 -247 131 -1 43 23 70 79 90 47 17 77 18 126 5z"/>
<path d="M4780 3417 c-14 -7 -31 -24 -39 -38 -12 -22 -12 -29 0 -54 27 -57
105 -57 131 0 26 57 -37 119 -92 92z"/>
<path d="M6475 3355 c-14 -13 -25 -31 -25 -39 0 -30 23 -65 50 -76 58 -24 120
44 90 99 -24 46 -78 53 -115 16z"/>
<path d="M10977 3340 c-20 -16 -27 -30 -27 -56 0 -68 68 -97 115 -49 63 63
-18 160 -88 105z"/>
<path d="M3265 3310 c-42 -46 -8 -120 54 -120 34 0 71 37 71 71 0 60 -85 93
-125 49z"/>
<path d="M593 3295 c-64 -45 -8 -151 66 -123 54 20 66 74 26 113 -27 28 -61
32 -92 10z"/>
<path d="M2375 3265 c-14 -13 -25 -36 -25 -50 0 -28 40 -75 64 -75 29 0 64 22
75 48 16 33 -1 75 -35 91 -37 16 -52 14 -79 -14z"/>
<path d="M5637 3208 c-41 -32 -38 -94 6 -123 46 -30 107 6 107 63 0 51 -73 90
-113 60z"/>
<path d="M1591 3144 c-12 -15 -21 -34 -21 -44 0 -34 39 -70 75 -70 36 0 75 36
75 70 0 34 -39 70 -75 70 -24 0 -39 -7 -54 -26z"/>
<path d="M7440 3130 c-26 -26 -26 -81 0 -105 29 -26 79 -24 102 4 25 32 23 67
-7 96 -29 30 -68 32 -95 5z"/>
<path d="M9210 3050 c-42 -42 -8 -120 53 -120 58 0 91 85 49 123 -25 23 -78
21 -102 -3z"/>
<path d="M9915 3035 c-40 -39 -29 -97 22 -116 62 -23 119 40 89 99 -25 49 -72
56 -111 17z"/>
<path d="M3029 2856 c-138 -37 -234 -156 -214 -265 17 -93 124 -245 230 -327
183 -141 529 -236 690 -189 109 31 176 128 159 229 -17 104 -81 183 -227 280
-61 41 -148 105 -192 141 -44 37 -101 77 -126 90 -99 51 -224 67 -320 41z
m171 -56 c81 -15 150 -51 231 -120 41 -34 125 -96 187 -137 161 -108 212 -174
212 -272 0 -42 -5 -56 -31 -86 -63 -72 -178 -81 -367 -30 -263 71 -434 190
-522 366 -57 112 -30 199 77 253 67 34 132 41 213 26z"/>
<path d="M5042 2844 c-110 -55 -150 -195 -87 -302 54 -90 181 -118 256 -55 47
40 69 96 69 178 0 120 -49 189 -142 201 -34 4 -54 0 -96 -22z m156 -84 c17
-25 22 -47 22 -95 0 -125 -87 -187 -178 -127 -66 43 -70 179 -8 231 27 22 88
39 115 32 14 -4 36 -22 49 -41z"/>
<path d="M4047 2833 c-45 -51 -17 -123 48 -123 36 0 75 36 75 70 0 10 -9 29
-21 44 -24 31 -77 36 -102 9z"/>
<path d="M5680 2640 c0 -16 2 -30 4 -30 2 0 371 -36 820 -80 449 -44 820 -80
826 -80 5 0 10 13 10 29 0 27 -3 30 -42 36 -57 7 -1577 155 -1600 155 -13 0
-18 -8 -18 -30z"/>
<path d="M8476 2559 c-19 -15 -26 -30 -26 -54 0 -36 36 -75 70 -75 10 0 29 9
44 21 34 27 35 71 1 104 -30 30 -54 31 -89 4z"/>
<path d="M9114 2551 c-109 -67 -67 -260 71 -322 131 -60 267 43 234 176 -31
123 -206 207 -305 146z m151 -60 c89 -40 124 -133 71 -186 -78 -78 -221 2
-221 123 0 76 63 103 150 63z"/>
<path d="M1157 2532 c-40 -44 -7 -122 51 -122 60 0 94 78 52 120 -26 26 -81
26 -103 2z"/>
<path d="M2231 2434 c-12 -15 -21 -34 -21 -44 0 -34 39 -70 75 -70 36 0 75 36
75 70 0 34 -39 70 -75 70 -24 0 -39 -7 -54 -26z"/>
<path d="M1621 2299 c-146 -29 -183 -183 -72 -302 82 -90 248 -95 322 -11 66
75 64 190 -2 251 -56 51 -166 79 -248 62z m155 -78 c79 -36 104 -102 64 -168
-48 -80 -178 -86 -246 -11 -66 72 -60 159 11 189 36 14 128 9 171 -10z"/>
<path d="M10811 2174 c-12 -15 -21 -34 -21 -44 0 -34 39 -70 75 -70 36 0 75
36 75 70 0 34 -39 70 -75 70 -24 0 -39 -7 -54 -26z"/>
<path d="M6130 2140 c-42 -42 -8 -120 53 -120 58 0 91 85 49 123 -25 23 -78
21 -102 -3z"/>
<path d="M7050 2030 c-26 -26 -26 -81 0 -105 29 -26 79 -24 102 4 27 34 23 75
-8 100 -34 26 -68 27 -94 1z"/>
<path d="M7965 2025 c-28 -27 -30 -42 -14 -79 32 -69 139 -38 139 40 0 24 -47
64 -75 64 -14 0 -37 -11 -50 -25z"/>
<path d="M375 1995 c-40 -39 -29 -95 22 -113 78 -27 136 76 70 123 -31 22 -65
18 -92 -10z"/>
<path d="M4341 1974 c-12 -15 -21 -34 -21 -44 0 -32 39 -70 71 -70 34 0 79 39
79 68 0 35 -38 72 -75 72 -24 0 -39 -7 -54 -26z"/>
<path d="M9890 1960 c-45 -45 -11 -120 53 -120 42 0 67 26 67 68 0 41 -31 72
-70 72 -17 0 -39 -9 -50 -20z"/>
<path d="M2480 1777 c-14 -7 -31 -25 -38 -40 -22 -45 15 -97 69 -97 28 0 69
44 69 73 0 51 -55 86 -100 64z"/>
<path d="M1007 1690 c-35 -28 -37 -80 -5 -110 63 -58 156 32 101 98 -27 32
-64 37 -96 12z"/>
<path d="M5305 1660 c-42 -47 -8 -120 55 -120 33 0 70 40 70 74 0 57 -86 89
-125 46z"/>
<path d="M6904 1600 c-38 -12 -82 -55 -90 -87 -12 -45 3 -112 31 -149 66 -87
210 -147 296 -124 160 43 134 256 -41 334 -67 30 -148 41 -196 26z m172 -85
c66 -29 106 -81 108 -136 0 -32 -5 -45 -23 -60 -34 -28 -105 -25 -169 7 -122
61 -163 180 -72 211 43 15 89 8 156 -22z"/>
<path d="M8609 1572 c-28 -23 -30 -73 -4 -102 25 -27 78 -27 105 2 26 28 26
58 -1 92 -25 31 -66 35 -100 8z"/>
<path d="M1765 1339 c-396 -59 -726 -108 -732 -108 -17 -1 -17 -50 0 -57 13
-5 1496 212 1504 220 2 2 1 15 -3 30 -4 18 -12 26 -28 25 -11 -1 -345 -50
-741 -110z"/>
<path d="M3286 1428 c-36 -51 -5 -118 54 -118 59 0 90 67 54 118 -21 31 -87
31 -108 0z"/>
<path d="M9200 1430 c-26 -26 -25 -60 1 -94 25 -31 66 -35 100 -8 28 23 30 73
4 102 -24 26 -79 26 -105 0z"/>
<path d="M3990 1341 c0 -37 -87 -27 865 -101 418 -33 783 -62 811 -65 51 -6
52 -6 56 24 4 28 2 31 -26 36 -26 4 -1676 135 -1698 135 -5 0 -8 -13 -8 -29z"/>
<path d="M8095 1250 c-52 -12 -105 -39 -155 -75 -65 -48 -140 -81 -230 -101
-90 -20 -117 -33 -160 -76 -47 -46 -70 -103 -70 -171 0 -172 155 -299 327
-268 67 13 192 71 278 129 113 78 264 204 291 244 38 54 45 138 15 195 -52
103 -174 154 -296 123z m168 -75 c73 -34 105 -119 72 -189 -31 -64 -273 -251
-414 -319 -132 -64 -226 -64 -301 0 -76 65 -99 155 -61 240 26 56 77 87 184
112 98 23 143 43 239 109 107 72 197 87 281 47z"/>
<path d="M6276 1229 c-19 -15 -26 -30 -26 -54 0 -36 36 -75 70 -75 34 0 70 39
70 75 0 36 -36 75 -70 75 -10 0 -29 -9 -44 -21z"/>
<path d="M335 1155 c-39 -39 -32 -86 17 -111 59 -30 122 27 99 89 -19 51 -77
62 -116 22z"/>
<path d="M2153 1030 c-48 -19 -58 -87 -17 -119 53 -41 114 -13 114 52 0 51
-50 86 -97 67z"/>
<path d="M5446 884 c-43 -43 -19 -116 41 -122 62 -6 101 62 63 111 -25 31 -78
37 -104 11z"/>
<path d="M2853 830 c-48 -19 -58 -87 -17 -119 53 -41 114 -13 114 52 0 51 -50
86 -97 67z"/>
<path d="M4170 833 c-51 -19 -68 -85 -30 -123 61 -61 159 33 103 98 -20 23
-50 33 -73 25z"/>
<path d="M9870 770 c-26 -26 -26 -81 0 -105 29 -26 79 -24 102 4 25 32 23 67
-7 96 -29 30 -68 32 -95 5z"/>
<path d="M3355 662 c-48 -23 -69 -45 -90 -95 -45 -107 20 -214 158 -261 65
-22 115 -20 167 6 179 92 85 350 -133 365 -47 3 -72 -1 -102 -15z m139 -53
c21 -6 57 -27 79 -48 34 -32 40 -45 44 -87 5 -43 2 -54 -21 -81 -33 -39 -83
-49 -149 -29 -105 32 -158 109 -124 181 19 40 70 75 107 75 14 0 42 -5 64 -11z"/>
<path d="M8516 655 c-59 -60 10 -155 83 -114 63 36 42 121 -31 127 -23 2 -41
-3 -52 -13z"/>
<path d="M1069 542 c-15 -13 -22 -30 -22 -51 0 -66 76 -98 123 -51 27 27 25
66 -5 95 -29 30 -64 32 -96 7z"/>
<path d="M6803 545 c-66 -47 -8 -150 70 -123 51 18 62 74 22 113 -27 28 -61
32 -92 10z"/>
<path d="M292 474 c-28 -20 -31 -83 -4 -107 25 -23 78 -21 102 3 61 61 -27
154 -98 104z"/>
<path d="M8969 412 c-28 -23 -30 -73 -4 -102 24 -26 79 -26 105 0 63 63 -31
158 -101 102z"/>
<path d="M1940 380 c-26 -26 -26 -81 0 -105 29 -26 79 -24 102 4 27 34 23 75
-8 100 -34 26 -68 27 -94 1z"/>
<path d="M6033 368 c-29 -14 -46 -61 -32 -92 11 -24 47 -46 75 -46 23 0 64 47
64 73 0 51 -61 88 -107 65z"/>
</g>
</svg>
