<?xml version="1.0" standalone="no"?>
<!DOCTYPE svg PUBLIC "-//W3C//DTD SVG 20010904//EN"
 "http://www.w3.org/TR/2001/REC-SVG-20010904/DTD/svg10.dtd">
<svg version="1.0" xmlns="http://www.w3.org/2000/svg"
 width="1125.000000pt" height="900.000000pt" viewBox="0 0 1125.000000 900.000000"
 preserveAspectRatio="xMidYMid meet">
<metadata>
Created by potrace 1.13, written by Peter Selinger 2001-2015
</metadata>
<g transform="translate(0.000000,900.000000) scale(0.100000,-0.100000)"
fill="#000000" stroke="none">
<path d="M0 4500 l0 -4500 5625 0 5625 0 0 4500 0 4500 -5625 0 -5625 0 0
-4500z m11205 3630 l0 -65 -5580 0 -5580 0 -3 54 c-2 29 -1 60 2 67 5 12 868
14 5583 12 l5578 -3 0 -65z m0 -265 l0 -130 -5580 0 -5580 0 -3 119 c-1 66 0
126 2 133 4 11 994 13 5583 11 l5578 -3 0 -130z m3 -277 l3 -58 -5586 0 -5585
0 0 53 c0 30 3 57 7 60 3 4 2515 6 5582 5 l5576 -3 3 -57z m0 -320 l-3 -193
-5580 0 -5580 0 -3 193 -2 192 5585 0 5585 0 -2 -192z m0 -1145 l-3 -78 -5580
0 -5580 0 -3 78 -3 77 5586 0 5586 0 -3 -77z m-3 -283 l0 -135 -5580 0 -5580
0 -3 124 c-1 69 0 131 2 138 4 11 1000 13 5583 11 l5578 -3 0 -135z m3 -347
l3 -63 -5586 0 -5585 0 0 58 c0 32 3 62 7 65 3 4 2515 6 5582 5 l5576 -3 3
-62z m2 -213 l0 -80 -5585 0 -5585 0 0 80 0 80 5585 0 5585 0 0 -80z m-5 -235
l0 -70 -5580 0 -5580 0 -3 59 c-2 32 -1 65 2 72 5 12 882 14 5583 12 l5578 -3
0 -70z m5 -300 l0 -75 -5585 0 -5585 0 0 75 0 75 5585 0 5585 0 0 -75z m0
-1090 l0 -175 -5585 0 -5585 0 0 175 0 175 5585 0 5585 0 0 -175z m-2 -312 l3
-73 -5586 0 -5585 0 0 68 c0 38 3 72 7 75 3 4 2515 6 5582 5 l5576 -3 3 -72z
m0 -200 l3 -63 -5586 0 -5585 0 0 58 c0 32 3 62 7 65 3 4 2515 6 5582 5 l5576
-3 3 -62z m-3 -378 l0 -160 -5580 0 -5580 0 -3 150 c-1 82 0 155 2 162 4 11
1025 13 5583 11 l5578 -3 0 -160z m0 -280 l0 -30 -5580 0 c-5375 0 -5580 1
-5583 18 -2 10 -1 25 2 33 5 12 732 14 5583 12 l5578 -3 0 -30z m0 -360 l0
-180 -5580 0 -5580 0 -3 170 c-1 93 0 175 2 182 4 11 1041 13 5583 11 l5578
-3 0 -180z m3 -332 l3 -83 -5586 0 -5585 0 0 78 c0 43 3 82 7 85 3 4 2515 6
5582 5 l5576 -3 3 -82z m0 -210 l-3 -58 -5580 0 -5580 0 -3 58 -3 57 5586 0
5586 0 -3 -57z m0 -285 l3 -58 -5586 0 -5585 0 0 53 c0 30 3 57 7 60 3 4 2515
6 5582 5 l5576 -3 3 -57z m0 -215 l3 -93 -5586 0 -5585 0 0 88 c0 49 3 92 7
95 3 4 2515 6 5582 5 l5576 -3 3 -92z m2 -328 l0 -145 -5585 0 -5585 0 0 145
0 145 5585 0 5585 0 0 -145z m0 -625 l0 -60 -5585 0 -5585 0 0 60 0 60 5585 0
5585 0 0 -60z"/>
</g>
</svg>
