<?xml version="1.0" standalone="no"?>
<!DOCTYPE svg PUBLIC "-//W3C//DTD SVG 20010904//EN"
 "http://www.w3.org/TR/2001/REC-SVG-20010904/DTD/svg10.dtd">
<svg version="1.0" xmlns="http://www.w3.org/2000/svg"
 width="1125.000000pt" height="900.000000pt" viewBox="0 0 1125.000000 900.000000"
 preserveAspectRatio="xMidYMid meet">
<metadata>
Created by potrace 1.13, written by Peter Selinger 2001-2015
</metadata>
<g transform="translate(0.000000,900.000000) scale(0.100000,-0.100000)"
fill="#000000" stroke="none">
<path d="M0 4500 l0 -4500 5625 0 5625 0 0 4500 0 4500 -5625 0 -5625 0 0
-4500z m1088 4147 l2 -307 -522 2 -523 3 -3 228 -2 229 25 30 c28 33 32 65 10
94 -8 10 -15 22 -15 27 0 4 231 6 513 5 l512 -3 3 -308z m1889 279 c3 -40 30
-66 70 -66 42 0 73 30 73 70 l0 30 390 0 390 0 0 -310 0 -310 -1375 0 -1375 0
0 303 c0 167 3 307 7 310 3 4 414 6 912 5 l906 -3 2 -29z m1314 5 c-20 -18
-31 -39 -31 -55 0 -31 40 -76 67 -76 25 0 63 28 72 54 8 21 -5 76 -18 76 -4 0
-16 7 -27 15 -17 13 61 14 660 15 l678 0 -31 -29 c-46 -43 -38 -101 16 -122
55 -20 111 31 97 88 -4 13 -21 33 -38 44 -31 19 -26 19 484 17 l515 -3 3 -307
2 -308 -1390 0 -1390 0 0 303 c0 167 3 307 7 310 3 4 85 7 181 7 l174 0 -31
-29z m2782 3 c-43 -33 -46 -82 -7 -113 15 -12 34 -21 44 -21 10 0 29 9 44 21
39 31 36 80 -6 113 l-33 26 814 0 c771 0 813 -1 806 -17 -19 -45 -17 -72 8
-97 63 -63 153 5 112 84 l-16 30 498 -2 498 -3 3 -307 2 -308 -1520 0 -1520 0
0 303 c0 167 3 307 7 310 3 4 72 7 152 7 l146 0 -32 -26z m2955 -8 c26 -71
115 -70 137 2 l9 32 516 -2 515 -3 0 -305 0 -305 -652 -3 -653 -2 0 303 c0
167 3 307 7 310 3 4 29 7 58 7 49 0 51 -1 63 -34z m-7888 -1011 l0 -365 -1047
2 -1048 3 -3 350 c-1 192 0 356 3 362 3 10 220 13 1050 13 l1045 0 0 -365z
m3128 -2 l2 -363 -1535 0 -1535 0 0 365 0 365 1533 -2 1532 -3 3 -362z m2772
2 l0 -365 -1355 0 -1355 0 0 365 0 365 1355 0 1355 0 0 -365z m2760 0 l0 -365
-1350 0 -1350 0 0 358 c0 197 3 362 7 365 3 4 611 7 1350 7 l1343 0 0 -365z
m405 300 c0 -52 -3 -60 -20 -63 -34 -7 -65 -43 -65 -77 0 -36 22 -60 63 -70
l27 -7 -2 -222 -3 -221 -172 -3 -173 -2 0 365 0 365 173 -2 172 -3 0 -60z
m-10355 -1135 l0 -410 -402 2 -403 3 -3 395 c-1 217 0 401 3 407 3 10 93 13
405 13 l400 0 0 -410z m2710 0 l0 -410 -1323 2 -1322 3 -3 395 c-1 217 0 401
3 407 3 10 277 13 1325 13 l1320 0 0 -410z m2838 -2 l2 -408 -1390 0 -1390 0
0 403 c0 222 3 407 7 410 3 4 628 6 1387 5 l1381 -3 3 -407z m2967 2 l0 -405
-1452 -3 -1453 -2 0 410 0 410 1453 -2 1452 -3 0 -405z m1843 333 c2 -40 0
-73 -3 -73 -4 0 -15 10 -24 22 -22 27 -73 28 -101 3 -27 -25 -27 -78 2 -105
29 -27 60 -25 97 6 l31 26 -2 -308 -3 -309 -887 -3 -888 -2 0 410 0 410 888
-2 887 -3 3 -72z m-8818 -1108 l0 -305 -1173 2 -1172 3 -3 130 -2 130 25 -27
c48 -52 125 -28 125 39 0 47 -24 73 -67 73 -24 0 -41 -8 -58 -26 l-25 -27 0
150 c0 82 3 153 7 156 3 4 532 7 1175 7 l1168 0 0 -305z m3150 0 l0 -305
-1540 0 -1540 0 0 305 0 305 1540 0 1540 0 0 -305z m2950 0 l0 -305 -1440 0
-1440 0 0 305 0 305 1440 0 1440 0 0 -305z m2590 0 l0 -305 -1262 2 -1263 3
-3 303 -2 302 1265 0 1265 0 0 -305z m125 0 l0 -300 -30 0 -30 0 -3 290 c-1
159 0 296 3 303 3 8 16 12 32 10 l28 -3 0 -300z m-10075 -710 l0 -345 -545 0
-545 0 0 338 c0 186 3 342 7 345 3 4 249 7 545 7 l538 0 0 -345z m2760 0 l0
-345 -1345 0 -1345 0 0 345 0 345 1345 0 1345 0 0 -345z m2840 0 l0 -345
-1385 0 -1385 0 0 345 0 345 1385 0 1385 0 0 -345z m3100 0 l0 -345 -1515 0
-1515 0 0 345 0 345 1515 0 1515 0 0 -345z m1378 -2 l2 -343 -660 0 -660 0 0
338 c0 186 3 342 7 345 3 4 299 6 657 5 l651 -3 3 -342z m-9038 -768 l0 -365
-1062 2 -1063 3 -3 100 c-2 87 0 102 18 127 25 34 26 68 0 101 -18 23 -20 40
-20 204 0 99 3 183 7 186 3 4 483 7 1065 7 l1058 0 0 -365z m3030 0 l0 -365
-1482 2 -1483 3 -3 350 c-1 192 0 356 3 362 3 10 306 13 1485 13 l1480 0 0
-365z m2890 0 l0 -365 -1412 2 -1413 3 -3 350 c-1 192 0 356 3 362 3 10 292
13 1415 13 l1410 0 0 -365z m2800 0 l0 -365 -1365 0 -1365 0 0 365 0 365 1365
0 1365 0 0 -365z m315 0 l0 -360 -122 -3 -123 -3 0 366 0 366 123 -3 122 -3 0
-360z m-10555 -855 l0 -430 -302 2 -303 3 -3 415 c-1 228 0 421 3 427 3 10 74
13 305 13 l300 0 0 -430z m2710 0 l0 -430 -1320 0 -1320 0 0 430 0 430 1320 0
1320 0 0 -430z m2920 0 l0 -430 -1427 2 -1428 3 -3 428 -2 427 1430 0 1430 0
0 -430z m3030 0 l0 -430 -1485 0 -1485 0 0 430 0 430 1485 0 1485 0 0 -430z
m1895 0 l0 -425 -915 0 -915 0 -3 428 -2 427 917 -2 918 -3 0 -425z m-9360
-810 l0 -315 -900 0 -900 0 -3 305 c-1 168 0 311 3 317 3 11 187 13 902 11
l898 -3 0 -315z m3005 0 l0 -320 -1470 0 -1470 0 0 320 0 320 1470 0 1470 0 0
-320z m2840 0 l0 -320 -1385 0 -1385 0 0 320 0 320 1385 0 1385 0 0 -320z
m2790 0 l0 -320 -1365 0 -1365 0 0 320 0 320 1365 0 1365 0 0 -320z m728 142
c2 -161 1 -175 -18 -199 -26 -33 -25 -66 1 -102 16 -22 19 -39 17 -92 l-3 -64
-332 -3 -333 -2 0 320 0 320 333 -2 332 -3 3 -173z m-10278 -972 l0 -450 -442
2 -443 3 -3 435 c-1 239 0 441 3 448 3 9 102 12 445 12 l440 0 0 -450z m2660
0 l0 -450 -1295 0 -1295 0 0 450 0 450 1295 0 1295 0 0 -450z m2810 0 l0 -450
-1372 2 -1373 3 -3 435 c-1 239 0 441 3 448 3 9 288 12 1375 12 l1370 0 0
-450z m2998 3 l-3 -448 -1462 -3 -1463 -2 0 450 0 450 1465 0 1465 0 -2 -447z
m1810 305 l3 -138 -24 0 c-14 0 -36 -9 -51 -21 -49 -38 -26 -113 39 -125 l35
-6 -2 -232 -3 -231 -870 0 -870 0 -3 448 -2 447 872 -2 873 -3 3 -137z m-8880
-1220 l-3 -403 -1140 0 -1140 0 -3 248 -2 249 30 28 c40 37 40 73 0 108 -28
25 -30 31 -30 99 l0 73 1145 0 1145 0 -2 -402z m3092 -3 l0 -405 -1515 0
-1515 0 0 405 0 405 1515 0 1515 0 0 -405z m2840 0 l0 -405 -1385 0 -1385 0 0
405 0 405 1385 0 1385 0 0 -405z m2670 0 l0 -405 -1300 0 -1300 0 0 405 0 405
1300 0 1300 0 0 -405z m278 3 l-3 -403 -102 -3 -103 -3 0 406 0 405 105 0 105
0 -2 -402z m-10038 -873 l0 -405 -562 2 -563 3 -3 298 -2 297 32 0 c41 0 78
34 78 72 0 39 -32 68 -75 68 -33 0 -35 2 -35 35 l0 35 565 0 565 0 0 -405z
m2760 0 l0 -405 -1350 0 -1350 0 0 405 0 405 1350 0 1350 0 0 -405z m2820 0
l0 -405 -1380 0 -1380 0 0 405 0 405 1380 0 1380 0 0 -405z m3110 0 l0 -405
-1522 2 -1523 3 -3 403 -2 402 1525 0 1525 0 0 -405z m1348 3 l-3 -403 -637
-3 -638 -2 0 405 0 405 640 0 640 0 -2 -402z m-9028 -488 c0 -20 -7 -20 -1064
-20 -699 0 -1067 3 -1071 10 -3 6 -3 15 0 20 4 7 372 10 1071 10 1057 0 1064
0 1064 -20z m3100 0 c0 -20 -5 -20 -1517 -18 -1436 3 -1518 4 -1521 21 -3 16
74 17 1517 17 1515 0 1521 0 1521 -20z m2788 3 c-3 -17 -76 -18 -1363 -18
-1287 0 -1360 1 -1363 18 -3 16 67 17 1363 17 1296 0 1366 -1 1363 -17z m2760
0 c-3 -17 -75 -18 -1348 -18 -1273 0 -1345 1 -1348 18 -3 16 66 17 1348 17
1282 0 1351 -1 1348 -17z"/>
<path d="M676 8599 c-34 -27 -35 -71 -1 -104 30 -30 54 -31 89 -4 19 15 26 30
26 54 0 36 -36 75 -70 75 -10 0 -29 -9 -44 -21z"/>
<path d="M1452 8907 c-45 -48 -14 -117 51 -117 43 0 70 29 69 72 -2 63 -77 91
-120 45z"/>
<path d="M3542 8653 c-51 -43 -24 -123 41 -123 38 0 50 7 66 37 17 33 14 51
-14 78 -28 29 -65 32 -93 8z"/>
<path d="M2252 8577 c-45 -48 -14 -117 51 -117 42 0 67 26 67 68 0 65 -74 96
-118 49z"/>
<path d="M4860 8618 c-27 -29 -25 -64 5 -93 63 -63 160 18 105 88 -28 35 -80
37 -110 5z"/>
<path d="M6195 8595 c-43 -42 -23 -106 35 -120 38 -9 80 27 80 68 0 38 -7 50
-37 66 -33 17 -51 14 -78 -14z"/>
<path d="M7995 8630 c-25 -27 -22 -80 6 -102 68 -56 161 40 99 102 -26 26 -81
26 -105 0z"/>
<path d="M9462 8583 c-32 -27 -37 -64 -12 -96 57 -72 167 8 113 81 -25 33 -71
40 -101 15z"/>
<path d="M10676 8599 c-34 -27 -35 -71 -1 -104 30 -30 54 -31 89 -4 19 15 26
30 26 54 0 36 -36 75 -70 75 -10 0 -29 -9 -44 -21z"/>
<path d="M1070 8110 c-43 -43 -11 -120 50 -120 38 0 70 32 70 70 0 38 -32 70
-70 70 -17 0 -39 -9 -50 -20z"/>
<path d="M1753 7780 c-46 -19 -57 -83 -20 -118 47 -44 117 -13 117 52 0 50
-50 84 -97 66z"/>
<path d="M433 7710 c-46 -19 -57 -83 -20 -118 47 -44 117 -13 117 52 0 50 -50
84 -97 66z"/>
<path d="M2527 8162 c-40 -44 -7 -122 51 -122 60 0 94 78 52 120 -26 26 -81
26 -103 2z"/>
<path d="M3906 8149 c-36 -28 -36 -80 0 -108 15 -12 34 -21 44 -21 34 0 70 39
70 75 0 36 -36 75 -70 75 -10 0 -29 -9 -44 -21z"/>
<path d="M3172 7775 c-59 -25 -51 -107 11 -130 62 -21 118 52 80 103 -26 34
-53 42 -91 27z"/>
<path d="M4689 7778 c-38 -13 -57 -62 -38 -97 32 -57 111 -49 132 13 17 51
-40 103 -94 84z"/>
<path d="M7165 8125 c-39 -38 -30 -86 22 -113 46 -25 111 30 97 82 -14 56 -78
73 -119 31z"/>
<path d="M5600 8110 c-42 -42 -12 -120 48 -120 46 0 72 25 72 70 0 29 -6 43
-22 54 -31 22 -74 20 -98 -4z"/>
<path d="M7688 7776 c-34 -17 -48 -52 -36 -87 18 -51 67 -63 112 -28 65 51 -2
152 -76 115z"/>
<path d="M6317 7763 c-9 -2 -24 -18 -33 -35 -19 -37 -5 -80 32 -97 37 -16 52
-14 79 14 58 57 3 139 -78 118z"/>
<path d="M8377 8162 c-40 -45 -6 -122 53 -122 59 0 90 67 54 118 -20 28 -83
31 -107 4z"/>
<path d="M9666 8165 c-59 -60 10 -155 83 -114 63 36 42 121 -31 127 -23 2 -41
-3 -52 -13z"/>
<path d="M10325 7795 c-40 -39 -29 -95 22 -113 78 -27 136 76 70 123 -31 22
-65 18 -92 -10z"/>
<path d="M8950 7778 c-43 -46 -10 -118 54 -118 42 0 66 26 66 73 0 62 -77 91
-120 45z"/>
<path d="M395 6945 c-14 -13 -25 -35 -25 -47 0 -56 61 -93 106 -63 37 24 48
52 33 86 -22 54 -74 65 -114 24z"/>
<path d="M1229 7332 c-28 -23 -30 -73 -4 -102 25 -27 78 -27 105 2 26 28 26
58 -1 92 -25 31 -66 35 -100 8z"/>
<path d="M2512 7327 c-45 -48 -14 -117 51 -117 42 0 67 26 67 68 0 65 -74 96
-118 49z"/>
<path d="M3141 6974 c-12 -15 -21 -34 -21 -44 0 -34 39 -70 75 -70 36 0 75 36
75 70 0 34 -39 70 -75 70 -24 0 -39 -7 -54 -26z"/>
<path d="M1903 6908 c-68 -33 -39 -138 38 -138 28 0 69 44 69 73 0 51 -61 88
-107 65z"/>
<path d="M3935 7325 c-30 -30 -31 -54 -4 -89 15 -19 30 -26 54 -26 37 0 75 37
75 72 0 27 -45 68 -75 68 -14 0 -37 -11 -50 -25z"/>
<path d="M5202 7327 c-45 -48 -14 -117 51 -117 43 0 70 29 69 72 -2 63 -77 91
-120 45z"/>
<path d="M5876 6978 c-36 -51 -5 -118 54 -118 17 0 39 9 50 20 45 45 11 120
-54 120 -25 0 -39 -7 -50 -22z"/>
<path d="M4529 6961 c-16 -13 -23 -29 -23 -55 0 -47 23 -70 70 -70 68 0 97 72
49 119 -29 30 -64 32 -96 6z"/>
<path d="M8287 7359 c-48 -28 -40 -107 12 -129 75 -31 134 58 76 115 -25 26
-58 31 -88 14z"/>
<path d="M6850 7310 c-42 -42 -8 -120 53 -120 58 0 91 85 49 123 -25 23 -78
21 -102 -3z"/>
<path d="M8950 6980 c-62 -62 31 -158 99 -102 28 22 31 75 6 102 -24 26 -79
26 -105 0z"/>
<path d="M7496 6915 c-59 -59 10 -155 83 -114 62 35 41 121 -31 127 -23 2 -41
-3 -52 -13z"/>
<path d="M9662 7363 c-7 -3 -19 -18 -28 -35 -13 -24 -13 -35 -4 -58 31 -74
140 -51 140 30 0 45 -63 81 -108 63z"/>
<path d="M10282 7007 c-43 -46 -15 -120 46 -120 43 0 72 28 72 69 0 66 -74 98
-118 51z"/>
<path d="M930 6460 c-11 -11 -20 -33 -20 -50 0 -59 67 -90 118 -54 28 20 31
83 4 107 -25 23 -78 21 -102 -3z"/>
<path d="M1876 6229 c-36 -29 -36 -80 1 -109 47 -37 113 -2 113 60 0 31 -39
70 -70 70 -10 0 -29 -9 -44 -21z"/>
<path d="M4967 6462 c-25 -28 -22 -87 5 -106 73 -51 160 42 98 104 -26 26 -81
26 -103 2z"/>
<path d="M3875 6355 c-39 -39 -32 -86 17 -111 59 -30 122 27 99 89 -19 51 -77
62 -116 22z"/>
<path d="M2980 6317 c-52 -26 -49 -104 4 -128 81 -37 138 73 64 125 -27 19
-35 20 -68 3z"/>
<path d="M6975 6485 c-43 -42 -23 -106 37 -121 22 -5 34 0 59 25 25 25 30 37
25 59 -15 60 -79 80 -121 37z"/>
<path d="M5930 6330 c-42 -42 -12 -120 48 -120 46 0 72 25 72 70 0 29 -6 43
-22 54 -31 22 -74 20 -98 -4z"/>
<path d="M7990 6330 c-11 -11 -20 -33 -20 -50 0 -17 9 -39 20 -50 11 -11 33
-20 50 -20 17 0 39 9 50 20 11 11 20 33 20 50 0 17 -9 39 -20 50 -11 11 -33
20 -50 20 -17 0 -39 -9 -50 -20z"/>
<path d="M9837 6462 c-25 -28 -22 -87 5 -106 71 -50 159 43 98 104 -26 26 -81
26 -103 2z"/>
<path d="M9030 6330 c-11 -11 -20 -33 -20 -50 0 -17 9 -39 20 -50 11 -11 33
-20 50 -20 17 0 39 9 50 20 11 11 20 33 20 50 0 17 -9 39 -20 50 -11 11 -33
20 -50 20 -17 0 -39 -9 -50 -20z"/>
<path d="M10641 6324 c-12 -15 -21 -34 -21 -44 0 -34 39 -70 75 -70 36 0 75
36 75 70 0 34 -39 70 -75 70 -24 0 -39 -7 -54 -26z"/>
<path d="M180 5803 c-55 -20 -68 -87 -24 -122 35 -27 65 -27 92 2 27 28 29 78
5 99 -22 19 -53 28 -73 21z"/>
<path d="M831 5562 c-29 -22 -31 -77 -5 -102 31 -30 74 -30 104 0 27 27 25 66
-5 95 -28 29 -64 32 -94 7z"/>
<path d="M2496 5734 c-27 -27 -31 -63 -9 -92 28 -38 75 -41 108 -8 30 31 32
55 4 90 -24 30 -78 36 -103 10z"/>
<path d="M1450 5660 c-62 -62 31 -158 99 -102 28 22 31 75 6 102 -24 26 -79
26 -105 0z"/>
<path d="M3405 5545 c-30 -30 -31 -54 -4 -89 15 -19 30 -26 54 -26 36 0 75 36
75 70 0 10 -9 29 -21 44 -27 34 -71 35 -104 1z"/>
<path d="M4263 5834 c-20 -20 -24 -31 -19 -57 9 -43 29 -61 71 -61 46 0 69 24
69 70 0 69 -72 97 -121 48z"/>
<path d="M5167 5592 c-40 -44 -7 -122 51 -122 60 0 94 78 52 120 -26 26 -81
26 -103 2z"/>
<path d="M6142 5560 c-29 -27 -29 -80 -2 -105 46 -42 120 -10 120 51 0 40 -32
74 -70 74 -14 0 -36 -9 -48 -20z"/>
<path d="M7050 5810 c-45 -45 -11 -120 53 -120 42 0 67 26 67 68 0 41 -31 72
-70 72 -17 0 -39 -9 -50 -20z"/>
<path d="M8190 5630 c-26 -26 -26 -81 0 -105 29 -26 79 -24 102 4 27 34 23 75
-8 100 -34 26 -68 27 -94 1z"/>
<path d="M9420 5550 c-45 -45 -11 -120 53 -120 42 0 67 26 67 68 0 41 -31 72
-70 72 -17 0 -39 -9 -50 -20z"/>
<path d="M10080 5750 c-45 -45 -11 -120 53 -120 42 0 67 26 67 68 0 41 -31 72
-70 72 -17 0 -39 -9 -50 -20z"/>
<path d="M10800 5600 c-42 -42 -8 -120 53 -120 58 0 91 85 49 123 -25 23 -78
21 -102 -3z"/>
<path d="M1043 4975 c-66 -46 -8 -150 68 -123 26 9 49 44 49 74 0 23 -46 64
-72 64 -13 0 -33 -7 -45 -15z"/>
<path d="M1780 4670 c-42 -42 -8 -120 53 -120 58 0 91 85 49 123 -25 23 -78
21 -102 -3z"/>
<path d="M2510 5088 c-43 -47 -12 -118 53 -118 42 0 67 26 67 68 0 64 -77 96
-120 50z"/>
<path d="M3966 5068 c-36 -51 -5 -118 54 -118 59 0 90 67 54 118 -11 16 -25
22 -54 22 -29 0 -43 -6 -54 -22z"/>
<path d="M4651 4734 c-12 -15 -21 -35 -21 -46 0 -27 45 -68 75 -68 29 0 75 40
75 65 0 20 -19 57 -34 67 -26 18 -75 8 -95 -18z"/>
<path d="M3135 4690 c-42 -46 -10 -120 51 -120 35 0 74 37 74 70 0 10 -9 29
-21 44 -26 33 -77 36 -104 6z"/>
<path d="M7037 5119 c-48 -28 -40 -107 13 -129 58 -24 120 44 90 99 -20 38
-66 51 -103 30z"/>
<path d="M5581 5064 c-12 -15 -21 -34 -21 -44 0 -32 39 -70 71 -70 34 0 79 39
79 68 0 35 -38 72 -75 72 -24 0 -39 -7 -54 -26z"/>
<path d="M7625 4765 c-14 -13 -25 -31 -25 -39 0 -30 23 -65 49 -74 76 -27 134
77 68 123 -31 22 -65 18 -92 -10z"/>
<path d="M6087 4742 c-40 -44 -7 -122 51 -122 60 0 94 78 52 120 -26 26 -81
26 -103 2z"/>
<path d="M8481 5084 c-24 -30 -26 -46 -10 -77 16 -30 28 -37 66 -37 41 0 77
42 68 80 -14 60 -88 80 -124 34z"/>
<path d="M9851 5084 c-12 -15 -21 -34 -21 -44 0 -34 39 -70 75 -70 36 0 75 36
75 70 0 34 -39 70 -75 70 -24 0 -39 -7 -54 -26z"/>
<path d="M9116 4719 c-19 -15 -26 -30 -26 -54 0 -37 37 -75 72 -75 29 0 68 45
68 79 0 32 -38 71 -70 71 -10 0 -29 -9 -44 -21z"/>
<path d="M10502 4694 c-28 -20 -31 -83 -4 -107 25 -23 78 -21 102 3 61 61 -27
154 -98 104z"/>
<path d="M187 3869 c-48 -28 -40 -107 12 -129 75 -31 134 58 76 115 -25 26
-58 31 -88 14z"/>
<path d="M2326 4329 c-19 -15 -26 -30 -26 -54 0 -36 36 -75 70 -75 34 0 70 39
70 75 0 36 -36 75 -70 75 -10 0 -29 -9 -44 -21z"/>
<path d="M1059 4288 c-15 -5 -32 -22 -39 -38 -24 -59 37 -118 95 -92 83 38 31
159 -56 130z"/>
<path d="M1635 3855 c-14 -13 -25 -30 -25 -37 1 -59 51 -98 100 -78 36 15 55
57 41 93 -19 51 -77 62 -116 22z"/>
<path d="M2910 3817 c-52 -26 -49 -104 4 -128 36 -17 73 -3 92 32 19 38 6 80
-32 98 -31 14 -33 14 -64 -2z"/>
<path d="M3690 4290 c-62 -62 25 -155 98 -104 28 20 31 83 4 107 -25 23 -78
21 -102 -3z"/>
<path d="M5139 4288 c-15 -5 -32 -22 -39 -38 -24 -59 37 -118 95 -92 83 38 31
159 -56 130z"/>
<path d="M4290 3830 c-11 -11 -20 -33 -20 -50 0 -17 9 -39 20 -50 11 -11 33
-20 50 -20 17 0 39 9 50 20 11 11 20 33 20 50 0 17 -9 39 -20 50 -11 11 -33
20 -50 20 -17 0 -39 -9 -50 -20z"/>
<path d="M5825 3830 c-42 -46 -8 -120 54 -120 34 0 71 37 71 71 0 60 -85 93
-125 49z"/>
<path d="M6695 4268 c-28 -16 -35 -28 -35 -65 0 -35 37 -73 72 -73 27 0 68 45
68 75 0 30 -41 75 -67 75 -10 0 -27 -6 -38 -12z"/>
<path d="M8155 4255 c-58 -57 1 -146 76 -115 35 15 53 57 40 93 -19 51 -77 62
-116 22z"/>
<path d="M8896 3878 c-50 -71 43 -159 104 -98 26 26 26 81 2 103 -28 25 -87
22 -106 -5z"/>
<path d="M7337 3832 c-25 -28 -22 -87 5 -106 73 -51 160 42 98 104 -26 26 -81
26 -103 2z"/>
<path d="M9756 4259 c-34 -27 -35 -71 -1 -104 30 -30 54 -31 89 -4 19 15 26
30 26 54 0 36 -36 75 -70 75 -10 0 -29 -9 -44 -21z"/>
<path d="M10391 3764 c-27 -35 -27 -65 2 -92 48 -46 120 -16 120 50 0 64 -83
92 -122 42z"/>
<path d="M816 3409 c-36 -28 -36 -80 0 -108 15 -12 34 -21 44 -21 34 0 70 39
70 75 0 36 -36 75 -70 75 -10 0 -29 -9 -44 -21z"/>
<path d="M1450 3160 c-62 -62 31 -158 99 -102 28 22 31 75 6 102 -24 26 -79
26 -105 0z"/>
<path d="M2281 3294 c-12 -15 -21 -34 -21 -44 0 -34 39 -70 75 -70 36 0 75 36
75 70 0 34 -39 70 -75 70 -24 0 -39 -7 -54 -26z"/>
<path d="M3460 3293 c-37 -47 -4 -113 56 -113 35 0 74 37 74 70 0 10 -9 29
-21 44 -29 36 -80 36 -109 -1z"/>
<path d="M4475 3125 c-39 -38 -32 -86 16 -110 76 -40 146 71 76 120 -31 22
-65 18 -92 -10z"/>
<path d="M6607 3362 c-40 -44 -7 -122 51 -122 60 0 94 78 52 120 -26 26 -81
26 -103 2z"/>
<path d="M5125 3335 c-58 -57 1 -146 76 -115 35 15 53 57 40 93 -19 51 -77 62
-116 22z"/>
<path d="M7281 3094 c-27 -35 -26 -59 4 -89 33 -34 77 -33 104 1 12 15 21 34
21 44 0 34 -39 70 -75 70 -24 0 -39 -7 -54 -26z"/>
<path d="M5843 3088 c-28 -14 -43 -55 -31 -89 9 -26 44 -49 74 -49 24 0 64 47
64 75 0 30 -41 75 -67 74 -10 0 -28 -5 -40 -11z"/>
<path d="M8090 3360 c-26 -26 -25 -60 1 -94 25 -31 66 -35 100 -8 28 23 30 73
4 102 -24 26 -79 26 -105 0z"/>
<path d="M9886 3228 c-36 -51 -5 -118 54 -118 38 0 70 32 70 70 0 63 -90 98
-124 48z"/>
<path d="M8985 3160 c-42 -47 -8 -120 55 -120 33 0 70 40 70 76 0 57 -86 87
-125 44z"/>
<path d="M10670 3360 c-42 -42 -8 -120 53 -120 58 0 91 85 49 123 -25 23 -78
21 -102 -3z"/>
<path d="M410 2060 c-43 -43 -11 -120 50 -120 38 0 70 32 70 70 0 38 -32 70
-70 70 -17 0 -39 -9 -50 -20z"/>
<path d="M2442 2527 c-45 -48 -14 -117 51 -117 42 0 67 26 67 68 0 65 -74 96
-118 49z"/>
<path d="M1210 2510 c-11 -11 -20 -33 -20 -50 0 -17 9 -39 20 -50 11 -11 33
-20 50 -20 17 0 39 9 50 20 11 11 20 33 20 50 0 17 -9 39 -20 50 -11 11 -33
20 -50 20 -17 0 -39 -9 -50 -20z"/>
<path d="M3155 2145 c-40 -39 -29 -97 22 -116 58 -22 116 36 94 94 -19 51 -77
62 -116 22z"/>
<path d="M1711 2124 c-41 -53 -13 -114 52 -114 42 0 70 29 70 72 0 64 -83 92
-122 42z"/>
<path d="M5127 2489 c-48 -28 -40 -107 12 -129 75 -31 134 58 76 115 -25 26
-58 31 -88 14z"/>
<path d="M3900 2460 c-24 -24 -26 -67 -4 -98 11 -16 25 -22 54 -22 29 0 43 6
54 22 36 51 5 118 -54 118 -17 0 -39 -9 -50 -20z"/>
<path d="M4401 2124 c-24 -30 -26 -46 -10 -77 16 -30 28 -37 66 -37 41 0 77
42 68 80 -14 60 -88 80 -124 34z"/>
<path d="M5865 2075 c-46 -45 -19 -118 43 -118 43 0 72 28 72 70 0 67 -68 96
-115 48z"/>
<path d="M6907 2563 c-9 -2 -24 -18 -33 -35 -30 -59 27 -122 89 -99 51 19 62
77 22 116 -23 24 -40 28 -78 18z"/>
<path d="M8262 2480 c-32 -30 -30 -82 5 -110 70 -55 151 42 88 105 -29 30 -64
32 -93 5z"/>
<path d="M8935 2075 c-28 -27 -30 -42 -14 -79 16 -34 58 -51 91 -35 26 11 48
46 48 75 0 24 -47 64 -75 64 -14 0 -37 -11 -50 -25z"/>
<path d="M7576 2038 c-50 -71 43 -159 104 -98 26 26 26 81 2 103 -28 25 -87
22 -106 -5z"/>
<path d="M9737 2563 c-9 -2 -24 -18 -33 -35 -30 -59 27 -122 89 -99 51 19 62
77 22 116 -23 24 -40 28 -78 18z"/>
<path d="M10387 2089 c-48 -28 -40 -107 13 -129 23 -9 34 -9 58 4 49 25 56 72
17 111 -25 26 -58 31 -88 14z"/>
<path d="M1240 1663 c-53 -19 -68 -86 -28 -123 63 -59 157 32 101 98 -20 23
-50 33 -73 25z"/>
<path d="M583 1318 c-33 -16 -46 -63 -28 -98 24 -47 72 -54 110 -15 14 13 25
35 25 48 0 51 -61 88 -107 65z"/>
<path d="M1783 1258 c-12 -6 -27 -24 -34 -40 -34 -83 86 -136 130 -57 19 33 1
81 -35 98 -29 13 -32 13 -61 -1z"/>
<path d="M4029 1658 c-38 -13 -57 -62 -38 -97 32 -56 112 -49 133 12 18 51
-41 103 -95 85z"/>
<path d="M2656 1629 c-36 -28 -36 -80 0 -108 15 -12 34 -21 44 -21 34 0 70 39
70 75 0 36 -36 75 -70 75 -10 0 -29 -9 -44 -21z"/>
<path d="M3323 1320 c-26 -11 -43 -40 -43 -74 0 -27 41 -66 70 -66 10 0 29 9
44 21 36 28 36 80 0 108 -29 23 -38 24 -71 11z"/>
<path d="M4962 1320 c-49 -20 -54 -95 -7 -126 73 -48 147 61 79 115 -29 23
-38 24 -72 11z"/>
<path d="M5792 1657 c-28 -30 -28 -68 1 -95 48 -45 120 -16 120 48 0 65 -76
95 -121 47z"/>
<path d="M7222 1574 c-62 -43 -32 -134 44 -134 24 0 64 47 64 75 0 30 -41 75
-67 75 -10 0 -29 -7 -41 -16z"/>
<path d="M6350 1280 c-26 -26 -26 -81 -2 -103 44 -40 122 -7 122 51 0 60 -78
94 -120 52z"/>
<path d="M7863 1260 c-48 -19 -58 -87 -17 -119 34 -27 64 -27 92 -1 57 53 -3
149 -75 120z"/>
<path d="M9940 1657 c-14 -7 -31 -24 -39 -38 -12 -22 -12 -29 0 -54 27 -57
105 -57 131 0 26 57 -37 119 -92 92z"/>
<path d="M8611 1584 c-12 -15 -21 -34 -21 -44 0 -33 39 -70 74 -70 60 0 93 66
56 113 -29 37 -80 37 -109 1z"/>
<path d="M10620 1330 c-43 -43 -11 -120 50 -120 38 0 70 32 70 70 0 38 -32 70
-70 70 -17 0 -39 -9 -50 -20z"/>
<path d="M9295 1305 c-34 -33 -33 -77 1 -104 15 -12 34 -21 44 -21 34 0 70 39
70 75 0 24 -7 39 -26 54 -35 27 -59 26 -89 -4z"/>
<path d="M654 388 c-69 -33 -37 -138 42 -138 24 0 64 47 64 75 0 30 -41 75
-67 74 -10 0 -28 -5 -39 -11z"/>
<path d="M1501 804 c-12 -15 -21 -34 -21 -44 0 -34 39 -70 75 -70 36 0 75 36
75 70 0 34 -39 70 -75 70 -24 0 -39 -7 -54 -26z"/>
<path d="M3020 803 c-53 -19 -68 -86 -28 -123 63 -58 157 33 101 98 -20 23
-50 33 -73 25z"/>
<path d="M2260 420 c-24 -24 -26 -67 -4 -98 20 -29 76 -30 104 -2 43 43 11
120 -50 120 -17 0 -39 -9 -50 -20z"/>
<path d="M3502 357 c-45 -48 -17 -117 47 -117 46 0 71 24 71 68 0 65 -74 96
-118 49z"/>
<path d="M4306 849 c-36 -28 -36 -80 0 -108 15 -12 34 -21 44 -21 34 0 70 39
70 75 0 36 -36 75 -70 75 -10 0 -29 -9 -44 -21z"/>
<path d="M5582 854 c-63 -44 -37 -134 39 -134 28 0 69 44 69 73 0 55 -65 92
-108 61z"/>
<path d="M6196 499 c-50 -39 -22 -122 42 -122 43 0 72 28 72 70 0 65 -61 93
-114 52z"/>
<path d="M4911 464 c-12 -15 -21 -34 -21 -44 0 -34 39 -70 75 -70 36 0 75 36
75 70 0 34 -39 70 -75 70 -24 0 -39 -7 -54 -26z"/>
<path d="M8505 798 c-50 -27 -59 -75 -20 -113 42 -43 106 -23 121 37 5 22 0
33 -24 58 -33 32 -46 35 -77 18z"/>
<path d="M7002 760 c-48 -45 -16 -123 50 -123 61 0 91 78 45 121 -29 28 -67
28 -95 2z"/>
<path d="M7736 449 c-19 -15 -26 -30 -26 -54 0 -37 37 -75 72 -75 27 0 68 45
68 75 0 30 -41 75 -68 75 -11 0 -31 -9 -46 -21z"/>
<path d="M9319 422 c-49 -40 -17 -122 48 -122 65 0 93 61 52 114 -25 31 -66
35 -100 8z"/>
<path d="M10181 804 c-12 -15 -21 -34 -21 -44 0 -34 39 -70 75 -70 36 0 75 36
75 70 0 10 -9 29 -21 44 -28 36 -80 36 -108 0z"/>
<path d="M10790 412 c-51 -16 -68 -84 -30 -122 26 -26 60 -25 94 1 58 46 7
143 -64 121z"/>
</g>
</svg>
