<?xml version="1.0" standalone="no"?>
<!DOCTYPE svg PUBLIC "-//W3C//DTD SVG 20010904//EN"
 "http://www.w3.org/TR/2001/REC-SVG-20010904/DTD/svg10.dtd">
<svg version="1.0" xmlns="http://www.w3.org/2000/svg"
 width="1125.000000pt" height="900.000000pt" viewBox="0 0 1125.000000 900.000000"
 preserveAspectRatio="xMidYMid meet">
<metadata>
Created by potrace 1.13, written by Peter Selinger 2001-2015
</metadata>
<g transform="translate(0.000000,900.000000) scale(0.100000,-0.100000)"
fill="#000000" stroke="none">
<path d="M0 4500 l0 -4500 5625 0 5625 0 0 4500 0 4500 -5625 0 -5625 0 0
-4500z m615 4410 c1410 -278 3040 -482 4120 -515 105 -3 209 -8 233 -11 l42
-5 0 -210 0 -209 -80 0 c-174 0 -1083 53 -1640 95 -478 37 -1211 105 -1505
140 -22 2 -159 18 -305 35 -411 48 -1333 176 -1417 197 -22 5 -23 10 -23 89 0
46 3 84 6 84 3 0 24 -11 47 -24 90 -53 171 -71 312 -71 124 0 132 1 177 28 85
49 106 136 51 205 -35 44 -132 95 -223 119 -86 22 -249 22 -309 0 -24 -10 -47
-17 -52 -17 -11 0 -12 104 -1 114 4 5 86 6 182 3 152 -4 203 -11 385 -47z
m1715 -85 c0 -131 -1 -135 -21 -135 -12 0 -123 16 -249 35 -125 19 -243 37
-261 39 -153 20 -1018 174 -1044 186 -12 5 305 9 778 9 l797 1 0 -135z m1250
102 c606 -77 1292 -125 1885 -134 l410 -5 310 -118 c171 -64 352 -132 403
-150 50 -18 92 -36 92 -40 0 -8 -116 -14 -575 -31 -339 -13 -1162 -7 -1480 11
-700 38 -1297 93 -1985 183 l-245 32 -3 129 c-1 72 0 136 3 144 4 11 83 13
493 9 450 -4 503 -6 692 -30z m2010 -24 l125 -52 -165 0 c-172 -1 -500 12
-775 29 -263 17 -777 61 -815 70 -19 5 309 8 735 7 l770 -2 125 -52z m650 -64
c0 -120 0 -120 -22 -113 -59 18 -564 217 -572 225 -6 5 110 9 292 9 l302 0 0
-121z m963 99 c-92 -102 -26 -215 162 -276 258 -85 475 -28 475 125 0 35 -7
50 -37 84 -20 22 -55 50 -77 62 l-41 22 70 3 c39 2 203 2 365 0 l295 -4 265
-66 c360 -90 524 -128 940 -212 l355 -73 3 -378 2 -378 -42 7 c-134 21 -2047
446 -2973 661 -203 47 -375 83 -381 81 -7 -3 -70 17 -140 44 l-129 48 -3 136
-3 136 457 0 457 0 -20 -22z m2817 -65 c30 -45 57 -82 60 -82 3 -1 15 7 27 17
l23 17 -40 60 c-22 33 -40 63 -40 68 0 4 260 6 578 5 l577 -3 3 -245 c1 -134
0 -250 -2 -256 -5 -12 -170 14 -651 102 -634 116 -1816 366 -1865 395 -9 5
261 8 630 6 l645 -2 55 -82z m-2445 47 c182 -47 254 -135 165 -202 -105 -78
-462 -3 -512 108 -10 20 -8 29 9 52 44 60 194 79 338 42z m-7193 -121 c71 -15
157 -54 191 -86 53 -52 23 -120 -64 -143 -105 -29 -310 9 -408 75 -38 25 -47
36 -49 65 -3 40 21 70 73 88 41 14 192 15 257 1z m9938 -263 c130 -25 368 -68
530 -96 162 -28 309 -54 325 -58 l30 -8 3 -368 2 -369 -57 6 c-374 39 -546 61
-583 72 -34 11 -511 115 -527 115 -2 0 -3 171 -3 381 l0 381 23 -5 c12 -3 128
-26 257 -51z m-2763 -222 c964 -219 2057 -459 2641 -580 145 -30 283 -59 308
-65 l44 -11 0 -110 0 -110 -37 7 c-217 39 -921 207 -1338 319 -305 82 -387
104 -745 209 -399 117 -1422 453 -1388 456 5 1 236 -51 515 -115z m-439 17
c316 -109 707 -238 992 -326 118 -36 216 -68 218 -70 11 -11 -593 -19 -1323
-19 -754 1 -1272 10 -1777 30 l-158 7 0 213 0 214 447 0 c415 0 815 11 1093
29 247 17 224 21 508 -78z m-6643 -30 c603 -89 1354 -179 1932 -233 l243 -22
0 -298 0 -298 -48 0 c-302 0 -2512 160 -2552 185 -6 4 -10 138 -10 367 l0 361
48 -6 c26 -3 200 -29 387 -56z m2520 -286 c396 -31 458 -35 745 -55 917 -61
2258 -110 3058 -110 l252 0 -2 -222 -3 -223 -215 -9 c-343 -14 -2489 -13
-2930 2 -561 18 -642 22 -631 36 7 8 -30 72 -121 208 l-130 197 -24 -16 c-13
-8 -24 -19 -24 -22 0 -4 56 -90 125 -191 68 -101 123 -185 122 -186 -1 -1 -88
2 -192 6 -105 5 -216 9 -247 10 l-58 0 0 301 0 300 43 -5 c23 -3 128 -13 232
-21z m5920 -245 c138 -39 350 -96 473 -127 123 -31 219 -59 215 -63 -8 -7
-370 -43 -758 -75 -406 -34 -1097 -74 -1552 -91 l-183 -7 0 220 0 220 518 8
c284 4 605 10 712 14 169 5 204 4 260 -12 36 -9 178 -49 315 -87z m1965 -160
c107 -12 224 -24 260 -28 l65 -7 3 -124 c1 -68 -1 -128 -5 -132 -7 -7 -207 27
-480 81 l-113 23 0 109 0 110 38 -6 c20 -3 125 -15 232 -26z m-10550 -70 c530
-46 1222 -96 1762 -127 169 -9 305 -19 302 -22 -3 -3 -65 -33 -137 -67 -138
-64 -162 -87 -95 -92 30 -3 73 13 209 77 l172 81 311 -15 c171 -8 455 -19 631
-24 176 -6 393 -14 483 -17 l162 -6 0 -394 c0 -307 -3 -396 -12 -399 -14 -4
-690 -29 -1253 -46 -451 -13 -2065 -22 -2250 -12 l-149 8 124 49 c440 174
1156 485 1176 511 6 8 14 12 17 9 3 -4 80 28 171 71 117 55 163 81 159 91 -11
30 -79 15 -210 -46 -70 -34 -130 -65 -131 -71 -2 -5 -8 -7 -13 -4 -4 3 -22 -1
-40 -10 -28 -15 -43 -15 -182 0 -253 27 -629 74 -876 110 -256 38 -425 46
-434 21 -7 -17 -8 -17 226 -53 103 -15 187 -30 187 -34 0 -7 -560 -189 -582
-189 -16 0 -18 14 -18 145 l0 145 95 0 c77 0 95 3 95 15 0 16 -10 19 -115 38
l-70 12 -3 125 c-1 68 0 130 2 137 3 8 16 11 33 8 15 -3 129 -14 253 -25z
m10185 -160 c132 -27 268 -55 303 -61 34 -6 61 -14 58 -16 -3 -3 -40 -13 -83
-22 -58 -13 -79 -22 -81 -35 -3 -16 5 -17 85 -14 48 2 126 12 173 23 78 17 91
17 160 4 l75 -14 3 -168 2 -167 -26 -11 c-15 -5 -149 -43 -298 -84 -1578 -431
-3392 -730 -5863 -968 l-33 -3 0 337 0 336 118 7 c1597 93 3251 267 4512 476
445 74 1043 189 1058 204 3 4 1 11 -5 17 -21 21 -185 3 -448 -49 -472 -92
-1057 -186 -1635 -261 -168 -22 -324 -43 -347 -46 l-43 -6 0 269 0 268 253 17
c534 37 1310 110 1315 125 1 5 116 -18 255 -50 138 -32 360 -80 492 -108z
m-2375 -260 c0 -209 -3 -270 -12 -270 -7 0 -130 -13 -273 -30 -821 -93 -1795
-176 -2770 -235 -305 -18 -817 -45 -862 -45 l-33 0 0 393 0 392 967 -4 c1127
-4 1884 12 2628 54 121 6 250 13 288 14 l67 1 0 -270z m-7180 -30 c137 -18
573 -69 602 -71 38 -1 -710 -317 -1211 -510 -179 -70 -205 -77 -215 -64 -9 13
-17 14 -39 6 -60 -23 -58 -30 -55 202 l3 212 110 35 c61 19 225 73 365 121
140 48 264 87 275 88 11 0 85 -8 165 -19z m10250 -470 c0 -189 -2 -210 -17
-219 -30 -15 -464 -146 -733 -221 -436 -120 -1333 -340 -1390 -340 -19 0 -20
6 -20 245 l0 245 23 4 c12 3 72 15 132 26 585 113 1397 305 1890 448 55 16
103 28 108 25 4 -2 7 -98 7 -213z m-6280 -445 l0 -334 -32 -6 c-41 -6 -789
-68 -1158 -95 -840 -61 -1874 -118 -2690 -150 -146 -5 -309 -12 -362 -15 l-98
-6 0 419 0 419 1043 6 c573 3 1179 11 1347 16 591 20 1149 43 1475 60 182 10
363 19 403 20 l72 1 0 -335z m-4410 -179 l0 -424 -117 -6 c-65 -3 -172 -7
-238 -8 l-120 -3 -3 103 c-1 56 0 102 3 102 3 0 22 -7 42 -15 19 -8 39 -15 43
-15 7 0 33 51 28 55 -2 1 -24 10 -50 20 -26 10 -52 23 -58 30 -7 8 -9 98 -8
251 l3 239 120 46 c118 46 122 47 238 48 l117 1 0 -424z m8470 75 c0 -229 -1
-250 -17 -255 -60 -18 -757 -161 -1148 -235 -1350 -256 -2845 -486 -4425 -681
-327 -40 -1105 -130 -1125 -130 -3 0 -4 183 -3 408 l3 407 50 3 c1805 94 3640
267 5150 483 385 55 1177 184 1405 228 52 11 98 19 103 20 4 1 7 -111 7 -248z
m2220 9 c0 -115 -4 -210 -8 -210 -5 0 -75 27 -158 60 -137 56 -150 59 -161 43
-7 -9 -13 -22 -13 -29 0 -6 71 -40 158 -75 86 -34 163 -66 170 -72 14 -11 17
-232 3 -242 -5 -3 -153 -10 -328 -16 l-318 -11 -240 99 c-132 55 -291 122
-353 148 l-113 49 478 161 c263 89 566 194 673 233 107 39 198 71 203 71 4 1
7 -93 7 -209z m-560 81 c-28 -16 -893 -301 -898 -296 -3 3 -10 1 -17 -5 -32
-27 -1287 -402 -1805 -540 -85 -22 -184 -49 -220 -60 -288 -85 -1327 -343
-1353 -336 -11 3 -25 -1 -31 -8 -9 -11 -258 -71 -843 -203 l-23 -5 0 206 c0
121 4 206 9 206 18 0 594 90 956 150 1594 262 3137 587 4100 864 125 36 150
41 125 27z m-674 -459 c251 -107 754 -312 1029 -420 l200 -79 3 -71 c3 -66 -6
-89 -23 -62 -10 16 -61 12 -83 -7 -33 -28 -37 -64 -11 -97 21 -26 26 -28 71
-23 l48 6 0 -138 c0 -76 -3 -140 -6 -144 -16 -16 -538 191 -1264 503 -305 131
-634 270 -730 310 -96 40 -178 75 -183 79 -4 4 127 49 291 99 163 50 322 100
352 111 30 11 64 20 76 20 12 1 115 -39 230 -87z m-7766 -532 c0 -384 -1 -410
-17 -410 -10 0 -169 -16 -353 -34 l-335 -34 -341 123 c-310 113 -999 372
-1088 409 l-36 15 0 120 c0 66 4 122 8 125 5 3 193 12 418 21 576 21 1119 45
1394 60 129 7 261 13 293 14 l57 1 0 -410z m6977 252 c142 -59 468 -197 725
-307 l467 -200 1 -319 c0 -250 -3 -317 -12 -313 -7 2 -87 30 -178 62 -264 91
-723 259 -1004 367 -315 120 -1317 520 -1313 524 1 2 124 37 272 78 149 41
376 107 505 145 129 38 245 70 257 70 12 1 138 -47 280 -107z m2021 -36 c1
-55 -1 -102 -5 -106 -4 -4 -116 36 -248 88 -132 52 -235 97 -229 99 13 4 403
21 449 19 l30 -1 3 -99z m-3138 -299 l305 -124 3 -381 c1 -210 0 -382 -2 -382
-3 0 -117 34 -253 75 -336 103 -824 266 -1089 366 -231 86 -543 214 -556 227
-4 4 166 52 379 105 214 54 503 129 643 167 140 37 257 69 260 69 3 0 142 -55
310 -122z m-7883 27 c483 -188 1551 -576 1567 -571 6 2 16 -2 21 -8 12 -14
257 -100 1020 -356 308 -103 549 -188 535 -189 -82 -1 -952 109 -1295 164
-115 19 -228 37 -250 40 -162 24 -591 113 -851 176 -346 84 -871 240 -886 263
-4 7 -8 128 -8 270 0 214 2 257 14 257 8 0 67 -21 133 -46z m5203 -214 c0
-115 -3 -210 -6 -210 -3 0 -143 -29 -312 -65 -668 -140 -1401 -271 -1897 -339
-143 -20 -280 -40 -304 -45 -42 -9 -67 -2 -375 104 -182 62 -416 143 -520 179
-104 36 -192 63 -197 60 -5 -3 -9 -1 -9 5 0 5 -22 17 -50 26 -27 9 -52 20 -54
23 -2 4 102 18 232 30 842 83 2029 229 2972 366 278 40 508 74 513 75 4 0 7
-93 7 -209z m3357 -84 c781 -309 1627 -611 2248 -801 105 -32 196 -63 203 -68
9 -7 12 -65 12 -228 0 -214 -1 -219 -20 -219 -26 0 -397 80 -790 171 -545 126
-1346 332 -1830 472 l-115 33 -3 377 c-1 207 0 377 2 377 2 0 134 -51 293
-114z m1943 -29 c118 -48 283 -111 365 -141 l150 -54 3 -286 c2 -225 0 -286
-10 -286 -16 0 -211 60 -520 160 l-228 74 0 314 c0 247 3 313 13 309 6 -2 109
-43 227 -90z m-4198 4 c73 -32 211 -89 306 -127 l172 -68 0 -388 c0 -213 -2
-388 -4 -388 -17 0 -692 235 -926 322 -424 158 -1000 393 -1000 407 0 4 39 14
88 24 140 29 924 204 1077 241 77 19 143 35 147 35 4 1 67 -25 140 -58z m820
-317 c530 -187 1354 -433 2056 -614 l42 -11 0 -344 c0 -251 -3 -345 -11 -345
-44 0 -983 234 -1349 335 -481 134 -1011 295 -1011 308 1 4 1 178 1 388 0 359
1 381 18 374 9 -4 124 -45 254 -91z m-6997 1 c407 -127 1101 -289 1465 -342
l55 -8 3 -293 2 -293 -37 5 c-243 33 -1731 414 -1755 450 -9 13 -11 550 -3
558 3 3 34 -3 68 -14 34 -11 125 -39 202 -63z m4741 -6 c76 -34 220 -94 319
-134 l180 -74 3 -436 c2 -413 1 -436 -15 -431 -10 3 -144 42 -298 87 -828 239
-2285 695 -2267 709 4 4 99 19 212 34 373 51 1316 216 1650 290 36 8 68 14 71
15 3 1 68 -26 145 -60z m783 -318 c1138 -438 2605 -863 3926 -1137 99 -20 183
-40 188 -44 4 -3 6 -146 5 -317 l-3 -311 -485 98 c-661 133 -1023 213 -1690
371 -649 154 -1812 457 -1833 478 -6 6 -24 11 -40 11 -28 0 -217 50 -264 70
l-23 10 0 425 c0 234 3 425 6 425 3 0 99 -36 213 -79z m-3669 -81 c257 -39
764 -103 1075 -134 138 -15 269 -28 292 -31 23 -3 44 -2 47 3 3 6 75 -12 163
-40 586 -184 1282 -393 1766 -529 103 -29 182 -56 175 -60 -7 -4 -125 -15
-263 -25 -310 -23 -1112 -26 -1420 -6 -666 43 -1413 139 -1990 255 l-110 22
-3 280 c-1 154 0 286 3 293 4 10 15 12 38 8 17 -3 120 -19 227 -36z m-1873
-221 c992 -283 2020 -492 2921 -595 l152 -17 0 -150 0 -149 -67 7 c-773 79
-2312 326 -3129 502 l-129 28 -3 223 c-1 122 0 222 3 222 2 0 116 -32 252 -71z
m9421 -78 c335 -84 828 -199 1162 -271 157 -34 295 -65 308 -70 l22 -10 0
-305 0 -305 -24 0 c-63 0 -1001 178 -1480 281 -126 27 -231 49 -233 49 -1 0
-3 155 -3 345 0 190 2 345 5 345 3 0 112 -27 243 -59z m-9303 -435 c2276 -451
4312 -654 5765 -575 323 17 776 69 965 109 28 6 55 11 60 12 6 1 63 -12 128
-27 l117 -29 0 -267 0 -267 -207 -8 c-308 -13 -1718 -10 -2098 4 -1696 64
-3150 200 -4735 443 -179 27 -335 54 -348 59 l-22 10 0 298 c0 164 3 302 7
305 4 4 14 5 22 3 9 -3 165 -35 346 -70z m3315 -131 c365 -29 678 -38 1110
-32 419 6 519 11 875 43 l180 16 330 -89 c182 -50 441 -119 578 -154 136 -35
247 -66 247 -70 0 -12 -424 -64 -740 -90 -211 -17 -1106 -23 -1416 -10 -470
21 -1116 69 -1416 107 l-48 6 0 150 0 151 58 -7 c31 -3 140 -13 242 -21z
m6620 -310 c157 -30 409 -77 561 -104 152 -26 282 -51 288 -55 6 -4 11 -29 11
-56 0 -48 -1 -49 -48 -75 -111 -60 -110 -158 2 -250 l46 -37 0 -94 c0 -80 -2
-94 -16 -94 -36 0 -1063 177 -1141 197 l-23 5 0 315 c0 295 1 314 18 309 9 -3
145 -30 302 -61z m-2415 -184 c359 -85 838 -193 1078 -242 64 -14 103 -26 94
-30 -17 -10 -448 -64 -667 -84 -249 -22 -565 -44 -757 -51 l-173 -7 0 258 0
257 23 -6 c12 -3 193 -46 402 -95z m-7673 -20 c101 -17 296 -46 433 -66 138
-19 260 -38 273 -41 l22 -4 0 -301 0 -301 -52 7 c-157 20 -819 115 -853 122
l-40 9 -3 78 c-3 78 -3 78 20 72 219 -64 325 -61 394 8 40 40 50 76 35 126
-26 88 -181 186 -341 217 -47 9 -91 17 -97 19 -8 2 -13 20 -13 44 0 49 -14 49
222 11z m-100 -140 c130 -33 243 -102 268 -161 11 -28 11 -34 -7 -58 -23 -32
-71 -51 -129 -51 -48 -1 -179 31 -223 54 l-31 16 0 103 c0 56 3 106 7 109 10
11 35 8 115 -12z m1259 -26 c863 -108 1667 -185 2494 -238 l350 -22 3 -254 c1
-140 -1 -257 -5 -261 -13 -10 -828 18 -1208 42 -93 5 -179 10 -190 10 -125 0
-1088 69 -1095 78 -3 4 -54 13 -115 20 -177 19 -433 49 -522 61 l-83 11 0 299
c0 164 4 299 9 299 5 0 168 -20 362 -45z m8244 -189 c182 -35 399 -77 483 -92
83 -15 149 -31 145 -35 -20 -18 -506 -124 -838 -183 -1175 -208 -2944 -319
-4657 -291 l-468 7 0 259 c0 223 2 259 15 259 8 0 164 -7 347 -15 1768 -79
3549 -24 4478 139 74 13 142 22 150 20 8 -2 164 -32 345 -68z m1175 -211 c190
-32 351 -59 358 -61 18 -5 17 -227 -1 -243 -8 -6 -103 -36 -213 -66 -588 -164
-1272 -315 -1978 -435 -351 -60 -676 -110 -711 -110 l-25 0 0 295 0 295 23 4
c12 2 130 16 262 31 498 55 1008 138 1424 231 206 46 450 110 460 120 3 3 17
3 31 0 14 -2 180 -30 370 -61z m-10565 -111 c99 -14 181 -27 183 -29 4 -4
-391 -135 -407 -135 -12 0 -16 181 -5 193 4 4 16 5 28 2 12 -3 102 -17 201
-31z m675 -93 c168 -22 421 -52 562 -68 170 -18 258 -32 258 -39 0 -7 -12 -14
-27 -16 -16 -3 -176 -46 -358 -96 -353 -97 -1245 -328 -1307 -338 l-38 -7 0
206 c0 152 3 208 12 213 31 19 555 191 573 188 11 -2 157 -22 325 -43z m1417
-153 c194 -12 349 -25 345 -29 -16 -16 -472 -189 -787 -299 -82 -29 -152 -57
-153 -61 -2 -5 -7 -7 -12 -4 -4 3 -91 -24 -191 -59 -101 -35 -355 -118 -564
-185 -209 -67 -386 -124 -392 -126 -10 -3 -13 43 -13 210 l0 214 38 10 c625
161 1126 299 1130 310 2 5 11 7 20 5 9 -3 37 7 62 21 38 22 54 25 105 21 33
-3 219 -15 412 -28z m5843 -271 l0 -304 -92 -11 c-51 -7 -196 -26 -323 -42
-705 -92 -1541 -172 -2330 -224 -209 -14 -413 -28 -452 -30 l-73 -6 0 395 0
395 428 0 c885 0 1876 40 2577 104 138 13 253 24 258 25 4 0 7 -136 7 -302z
m2998 46 l-3 -208 -187 -47 c-630 -157 -1814 -422 -2713 -607 -658 -135 -1915
-374 -2093 -397 l-52 -7 2 314 3 313 305 28 c1778 162 3445 444 4580 777 74
22 141 40 148 40 10 1 12 -44 10 -206z m-8013 177 c502 -23 1377 -50 1623 -50
l62 0 0 -394 0 -394 -72 -6 c-91 -8 -629 -31 -1103 -48 -726 -26 -2880 -14
-3289 18 l-79 6 269 85 c451 141 1148 374 1159 387 6 7 15 11 22 9 24 -8 847
295 1003 370 65 31 83 35 130 31 30 -2 154 -8 275 -14z m-2655 -525 l0 -214
-102 -32 c-299 -92 -384 -116 -390 -112 -5 2 -8 103 -8 223 0 164 3 221 13
227 14 9 443 121 470 122 16 1 17 -16 17 -214z m10670 -160 c0 -203 -2 -225
-17 -234 -35 -18 -873 -261 -1423 -412 -179 -49 -333 -92 -343 -95 -16 -5 -17
11 -15 277 l3 282 220 49 c312 69 993 227 1300 302 143 34 263 61 268 59 4 -2
7 -105 7 -228z m-5110 -455 c0 -176 -4 -320 -9 -320 -4 0 -154 -24 -332 -54
-178 -30 -472 -79 -654 -108 l-330 -53 -827 -3 -828 -3 0 355 0 354 123 6 c67
3 235 8 372 11 636 15 1720 71 2285 119 85 7 165 14 178 15 l22 1 0 -320z
m3250 -25 c0 -186 -3 -276 -11 -281 -6 -3 -198 -56 -427 -117 l-417 -112
-1650 -1 c-907 -2 -1641 1 -1630 6 11 4 189 35 395 69 982 158 2333 415 3365
639 198 43 363 77 368 75 4 -2 7 -127 7 -278z m-8810 224 c184 -6 350 -13 368
-15 l32 -5 -2 -357 -3 -357 -445 0 -445 0 0 360 0 359 40 12 c52 16 63 16 455
3z m1718 -29 l792 0 0 -355 0 -355 -1025 0 -1025 0 0 362 0 361 233 -6 c127
-4 589 -7 1025 -7z m8952 -210 l0 -190 -30 0 c-64 0 -103 -77 -60 -120 20 -20
26 -22 65 -24 18 -1 20 -8 20 -81 l0 -80 -417 -3 c-230 -1 -418 1 -418 5 1 5
45 41 100 81 86 64 98 76 90 92 -6 11 -15 22 -20 25 -5 3 -73 -41 -150 -99
l-141 -106 -751 0 c-414 0 -748 4 -742 8 5 5 135 41 289 82 589 153 1462 397
1950 544 99 30 188 55 198 55 16 1 17 -14 17 -189z"/>
<path d="M2066 8429 c-52 -41 -23 -122 44 -122 67 0 96 81 44 122 -15 12 -34
21 -44 21 -10 0 -29 -9 -44 -21z"/>
<path d="M2873 8440 c-86 -18 -133 -58 -133 -115 0 -90 188 -153 332 -111 132
38 133 163 3 209 -55 19 -151 27 -202 17z m205 -83 c40 -22 42 -50 5 -74 -40
-27 -172 -24 -236 5 -58 26 -60 48 -7 75 45 23 188 20 238 -6z"/>
<path d="M8383 8600 c-48 -19 -58 -87 -17 -119 53 -41 114 -13 114 52 0 51
-50 86 -97 67z"/>
<path d="M10501 8092 c-28 -22 -31 -75 -6 -102 24 -26 79 -26 105 0 62 62 -31
158 -99 102z"/>
<path d="M6436 8140 c-93 -71 -173 -133 -177 -137 -4 -4 0 -19 10 -32 l18 -24
181 139 c170 129 181 139 169 158 -8 11 -18 21 -23 23 -5 1 -85 -56 -178 -127z"/>
<path d="M1133 7903 c-170 -129 -181 -139 -168 -158 7 -11 19 -20 27 -19 13 1
343 247 352 263 3 4 -3 17 -13 29 l-17 23 -181 -138z"/>
<path d="M5587 7770 c-88 -23 -135 -72 -122 -130 8 -35 28 -53 90 -82 40 -18
69 -22 145 -22 104 -1 141 12 179 60 45 57 10 129 -76 158 -60 20 -166 28
-216 16z m220 -87 c35 -25 35 -40 1 -66 -66 -49 -303 -7 -281 50 12 30 64 44
160 40 75 -2 98 -7 120 -24z"/>
<path d="M4141 7744 c-27 -34 -27 -64 -1 -92 45 -48 123 -16 123 50 0 64 -83
92 -122 42z"/>
<path d="M8411 7744 c-12 -15 -21 -34 -21 -44 0 -34 39 -70 75 -70 36 0 75 36
75 70 0 34 -39 70 -75 70 -24 0 -39 -7 -54 -26z"/>
<path d="M3145 6839 c-93 -72 -172 -135 -174 -140 -1 -6 5 -19 14 -29 17 -19
23 -15 196 117 99 74 179 138 179 140 0 14 -23 43 -33 42 -7 0 -88 -59 -182
-130z"/>
<path d="M1482 6694 c-31 -21 -31 -87 0 -108 51 -36 118 -5 118 54 0 59 -67
90 -118 54z"/>
<path d="M10261 6964 c-41 -53 -13 -114 52 -114 42 0 70 29 70 72 0 64 -83 92
-122 42z"/>
<path d="M8345 6646 c-55 -17 -90 -41 -103 -72 -42 -91 39 -154 198 -154 138
0 220 48 220 129 0 47 -29 77 -95 97 -58 17 -165 17 -220 0z m231 -71 c31 -20
28 -41 -9 -69 -24 -18 -42 -21 -126 -21 -76 0 -103 4 -124 18 -15 9 -27 22
-27 27 0 17 38 44 78 57 49 17 176 9 208 -12z"/>
<path d="M6436 6330 c-93 -71 -173 -133 -177 -137 -4 -4 0 -19 10 -32 l18 -24
181 139 c170 129 181 139 169 158 -8 11 -18 21 -23 23 -5 1 -85 -56 -178 -127z"/>
<path d="M6881 7143 c-7 -14 -8 -29 -4 -33 4 -4 121 -52 259 -107 l252 -100
11 25 c7 14 8 29 4 33 -7 6 -173 74 -464 189 l-46 19 -12 -26z"/>
<path d="M6008 7014 c-73 -39 -24 -150 57 -130 29 7 56 56 48 87 -12 43 -65
65 -105 43z"/>
<path d="M10675 6597 c-92 -31 -124 -62 -125 -120 0 -70 73 -109 205 -109 95
0 152 17 192 57 56 56 44 119 -29 156 -53 27 -184 35 -243 16z m217 -73 c35
-18 33 -39 -5 -68 -36 -27 -171 -35 -232 -13 -109 38 2 113 149 101 33 -3 73
-12 88 -20z"/>
<path d="M9973 6360 c-46 -19 -57 -83 -20 -118 47 -44 117 -13 117 52 0 50
-50 84 -97 66z"/>
<path d="M3795 6307 c-163 -42 -249 -144 -199 -236 38 -71 153 -111 319 -111
217 0 350 72 350 191 0 41 -5 53 -34 83 -55 57 -125 78 -266 82 -75 2 -139 -1
-170 -9z m267 -58 c148 -32 188 -110 89 -176 -48 -32 -93 -44 -198 -50 -169
-10 -313 38 -313 106 0 17 51 71 82 87 75 39 238 54 340 33z"/>
<path d="M2231 6171 c-6 -11 -11 -24 -11 -29 0 -10 508 -218 514 -211 2 2 8
14 15 26 9 18 8 24 -7 32 -13 7 -276 113 -489 198 -6 2 -16 -5 -22 -16z"/>
<path d="M1297 6050 c-122 -31 -176 -120 -109 -182 39 -36 95 -52 187 -51 127
1 215 50 215 121 0 47 -14 69 -62 93 -47 24 -170 34 -231 19z m205 -76 c109
-57 -116 -128 -242 -78 -46 19 -49 37 -10 66 51 38 189 44 252 12z"/>
<path d="M7678 5882 c-167 -128 -177 -138 -164 -157 7 -11 18 -20 25 -20 6 0
90 60 187 133 167 128 175 135 161 155 -7 11 -18 22 -23 23 -5 1 -89 -59 -186
-134z"/>
<path d="M6680 5859 c-175 -25 -286 -121 -259 -223 24 -89 180 -145 373 -133
193 12 306 85 306 196 0 118 -198 193 -420 160z m248 -74 c64 -19 112 -58 112
-92 0 -39 -57 -89 -126 -109 -123 -37 -338 -18 -407 37 -65 51 -7 129 123 165
65 18 236 17 298 -1z"/>
<path d="M4972 5514 c-28 -20 -31 -83 -4 -107 44 -40 122 -7 122 51 0 59 -67
92 -118 56z"/>
<path d="M3578 5425 c-6 -14 -9 -27 -7 -29 7 -7 511 -207 514 -204 8 10 26 50
23 53 -4 4 -507 205 -513 205 -3 0 -11 -11 -17 -25z"/>
<path d="M9983 5503 c-12 -2 -33 -15 -47 -28 -54 -50 -24 -128 76 -194 96 -65
185 -85 253 -57 127 54 23 221 -170 271 -59 15 -71 16 -112 8z m142 -84 c64
-24 139 -88 133 -116 -6 -30 -48 -37 -109 -20 -96 28 -190 104 -175 142 8 22
84 19 151 -6z"/>
<path d="M1125 5275 c-14 -13 -25 -36 -25 -50 0 -28 40 -75 64 -75 78 0 109
107 40 139 -37 16 -52 14 -79 -14z"/>
<path d="M9405 5065 c-39 -38 -32 -86 16 -110 76 -40 146 71 76 120 -31 22
-65 18 -92 -10z"/>
<path d="M7820 4853 c-51 -19 -68 -85 -30 -123 61 -61 159 32 103 98 -20 23
-50 33 -73 25z"/>
<path d="M2859 4644 c-69 -21 -109 -62 -109 -112 0 -73 72 -112 206 -112 39 0
93 7 121 15 92 27 131 107 82 168 -40 52 -197 73 -300 41z m205 -57 c122 -37
22 -116 -132 -105 -77 6 -122 24 -122 48 0 53 153 87 254 57z"/>
<path d="M8055 3991 c-102 -26 -151 -111 -111 -190 24 -46 104 -112 179 -146
245 -113 472 -75 472 80 0 55 -37 104 -121 160 -109 75 -319 123 -419 96z
m254 -87 c89 -30 145 -62 190 -108 41 -42 44 -78 7 -114 -74 -74 -353 -10
-477 110 -23 23 -39 47 -39 61 0 30 39 67 82 78 50 12 154 1 237 -27z"/>
<path d="M8976 3755 c-18 -14 -13 -24 110 -210 71 -107 132 -195 135 -195 4 0
16 8 27 18 21 17 20 18 -109 210 -71 105 -133 192 -137 192 -4 0 -16 -7 -26
-15z"/>
<path d="M475 4281 c-104 -26 -157 -103 -125 -185 25 -67 163 -155 300 -192
95 -25 213 -24 272 3 74 34 106 105 79 176 -46 119 -361 238 -526 198z m230
-78 c122 -30 245 -115 245 -167 0 -63 -56 -90 -174 -84 -188 9 -392 121 -372
203 17 69 141 89 301 48z"/>
<path d="M4717 4133 c-45 -51 -17 -123 48 -123 36 0 75 36 75 70 0 10 -9 29
-21 44 -24 31 -77 36 -102 9z"/>
<path d="M6322 3692 l-22 -17 126 -190 c70 -105 129 -193 133 -197 3 -4 17 2
31 12 l25 19 -130 191 c-71 106 -132 193 -135 195 -3 2 -16 -4 -28 -13z"/>
<path d="M7671 3205 c-106 -19 -195 -36 -198 -38 -2 -3 -1 -17 3 -32 6 -23 11
-26 33 -22 14 3 115 20 224 38 l198 32 -3 26 c-4 36 -26 36 -257 -4z"/>
<path d="M8774 2994 c-80 -29 -114 -96 -74 -147 38 -49 95 -70 196 -75 134 -6
207 24 220 92 9 50 -16 89 -73 116 -62 30 -207 37 -269 14z m244 -72 c48 -25
48 -51 2 -75 -28 -14 -52 -17 -115 -14 -151 8 -209 72 -98 107 44 15 169 4
211 -18z"/>
<path d="M2609 3742 c-28 -23 -30 -73 -4 -102 25 -27 78 -27 105 2 26 28 26
58 -1 92 -25 31 -66 35 -100 8z"/>
<path d="M1329 3468 c-38 -13 -57 -62 -38 -97 32 -56 112 -49 133 12 18 51
-41 103 -95 85z"/>
<path d="M10476 3359 c-50 -39 -22 -122 42 -122 43 0 72 28 72 70 0 65 -61 93
-114 52z"/>
<path d="M2129 2910 c-86 -15 -139 -60 -139 -119 0 -32 47 -78 98 -96 64 -22
177 -30 229 -16 87 24 130 89 98 150 -20 39 -75 67 -156 81 -70 11 -65 11
-130 0z m199 -83 c61 -33 31 -79 -59 -92 -88 -13 -214 26 -214 66 0 8 16 22
35 32 45 23 188 20 238 -6z"/>
<path d="M5655 2631 c-75 -20 -125 -67 -125 -118 0 -78 177 -142 315 -113 74
15 125 60 125 110 0 41 -51 93 -105 109 -53 16 -172 22 -210 12z m186 -72 c20
-5 44 -18 54 -29 18 -20 18 -21 -1 -40 -19 -20 -101 -41 -132 -34 -9 1 -37 6
-62 9 -25 3 -60 14 -78 25 -27 17 -31 23 -23 39 25 45 132 59 242 30z"/>
<path d="M4615 3035 c-14 -13 -25 -36 -25 -50 0 -30 41 -75 68 -75 35 0 72 38
72 73 0 38 -7 50 -37 66 -33 17 -51 14 -78 -14z"/>
<path d="M2752 2193 c-7 -3 -19 -18 -27 -33 -40 -77 71 -147 120 -77 42 60
-24 138 -93 110z"/>
<path d="M3743 2027 c-95 -73 -172 -134 -172 -137 0 -3 7 -15 17 -27 l17 -22
178 135 c97 74 177 141 177 148 0 15 -20 36 -34 35 -6 0 -88 -60 -183 -132z"/>
<path d="M5544 2065 c-4 -14 -5 -28 -3 -30 7 -6 511 -206 514 -203 2 2 6 15
10 29 6 26 4 27 -247 128 -139 55 -256 101 -260 101 -4 0 -10 -11 -14 -25z"/>
<path d="M7316 2068 c-50 -71 43 -159 104 -98 26 26 26 81 2 103 -28 25 -87
22 -106 -5z"/>
<path d="M9612 1757 c-45 -48 -14 -117 51 -117 43 0 67 26 67 73 0 63 -74 91
-118 44z"/>
<path d="M7102 1555 c-22 -16 -21 -17 108 -210 72 -107 134 -195 138 -195 10
1 42 26 42 34 0 10 -252 386 -259 386 -4 0 -16 -7 -29 -15z"/>
<path d="M6070 1370 c-45 -45 -11 -120 54 -120 25 0 39 7 50 22 36 51 5 118
-54 118 -17 0 -39 -9 -50 -20z"/>
<path d="M7977 976 c-49 -18 -67 -34 -83 -73 -35 -83 68 -153 225 -153 86 0
138 15 173 50 61 62 23 143 -82 174 -65 19 -181 20 -233 2z m245 -73 c102 -60
-55 -121 -199 -78 -86 26 -95 65 -22 93 49 18 180 9 221 -15z"/>
<path d="M3430 1449 c-66 -13 -166 -65 -191 -100 -12 -17 -24 -51 -27 -75 -4
-41 -2 -47 39 -88 59 -58 120 -77 274 -83 140 -6 226 10 289 55 146 101 95
242 -103 289 -62 14 -212 16 -281 2z m245 -60 c105 -19 175 -70 159 -115 -13
-36 -57 -74 -108 -91 -70 -25 -268 -25 -347 -1 -74 23 -113 59 -104 96 9 35
29 57 73 78 83 40 216 54 327 33z"/>
<path d="M2288 1309 c-10 -5 -18 -14 -18 -20 0 -8 122 -193 251 -382 4 -5 18
-2 32 8 l26 17 -130 194 c-71 107 -133 194 -137 194 -4 0 -15 -5 -24 -11z"/>
<path d="M4910 579 c-123 -38 -144 -146 -37 -198 156 -75 367 -30 367 79 0 38
-40 84 -92 105 -51 21 -189 29 -238 14z m221 -75 c47 -19 56 -41 29 -68 -43
-44 -269 -27 -287 21 -24 62 145 92 258 47z"/>
<path d="M4083 368 c-12 -6 -27 -24 -34 -40 -34 -83 86 -136 130 -57 19 33 1
81 -35 98 -29 13 -32 13 -61 -1z"/>
<path d="M8989 592 c-15 -13 -22 -30 -22 -51 0 -66 76 -98 123 -51 27 27 25
66 -5 95 -29 30 -64 32 -96 7z"/>
<path d="M8136 434 c-3 -9 -6 -22 -6 -29 0 -12 506 -222 515 -214 2 2 6 16 10
30 6 26 4 27 -247 128 -139 55 -256 101 -259 101 -4 0 -10 -7 -13 -16z"/>
<path d="M2063 431 c-122 -33 -191 -79 -219 -146 -18 -44 -18 -59 2 -100 55
-116 372 -141 555 -44 67 36 94 65 108 116 20 71 -14 128 -98 166 -68 30 -249
34 -348 8z m325 -66 c46 -19 62 -39 62 -78 0 -62 -98 -118 -241 -138 -141 -19
-290 13 -310 68 -22 59 66 128 201 158 84 19 230 14 288 -10z"/>
</g>
</svg>
