<?xml version="1.0" standalone="no"?>
<!DOCTYPE svg PUBLIC "-//W3C//DTD SVG 20010904//EN"
 "http://www.w3.org/TR/2001/REC-SVG-20010904/DTD/svg10.dtd">
<svg version="1.0" xmlns="http://www.w3.org/2000/svg"
 width="1125.000000pt" height="900.000000pt" viewBox="0 0 1125.000000 900.000000"
 preserveAspectRatio="xMidYMid meet">
<metadata>
Created by potrace 1.13, written by Peter Selinger 2001-2015
</metadata>
<g transform="translate(0.000000,900.000000) scale(0.100000,-0.100000)"
fill="#000000" stroke="none">
<path d="M0 4500 l0 -4500 5625 0 5625 0 0 4500 0 4500 -5625 0 -5625 0 0
-4500z m11203 4370 c-1 -47 -2 -104 -1 -127 0 -37 1 -1091 0 -1205 0 -24 1
-160 1 -303 l2 -260 -238 -3 -238 -2 3 -28 3 -27 238 -3 238 -2 -5 -273 c-3
-149 -5 -290 -4 -312 1 -53 1 -1158 0 -1210 -1 -22 1 -156 4 -297 l5 -258
-238 -2 -238 -3 0 -30 0 -30 238 -3 238 -2 -5 -278 c-3 -152 -5 -295 -4 -317
1 -54 2 -1201 0 -1245 -1 -19 1 -155 4 -302 l5 -268 -238 -2 -238 -3 0 -30 0
-30 238 -3 238 -2 -5 -283 c-3 -155 -5 -300 -4 -322 1 -59 1 -1123 0 -1170 -1
-22 -1 -74 1 -115 l2 -75 -5580 0 -5580 0 -3 49 c-3 44 0 52 27 77 40 36 40
68 1 113 l-30 34 2 239 3 238 673 3 672 2 0 30 0 30 -672 2 -673 3 -3 233 -2
234 30 28 c39 37 40 73 0 110 l-30 28 0 256 0 256 200 0 200 0 0 35 0 35 -200
0 -200 0 0 238 0 238 30 29 c39 37 39 73 0 110 l-30 29 0 248 0 248 675 0 675
0 0 30 0 30 -672 2 -673 3 -3 268 -2 269 30 28 c39 37 40 73 0 110 l-30 28 0
251 0 251 200 0 200 0 0 35 0 35 -200 0 -200 0 0 233 0 233 30 26 c39 34 39
69 0 110 l-30 31 2 251 3 251 673 3 672 2 0 30 0 30 -672 2 -673 3 -3 243 -2
244 30 28 c40 37 40 73 0 108 l-30 26 0 248 0 248 200 0 200 0 0 30 0 30 -197
2 -198 3 -3 238 -2 239 30 28 c40 37 40 73 0 110 l-30 28 2 249 3 248 673 3
672 2 0 30 0 30 -672 2 -673 3 -3 238 -2 239 30 28 c39 37 40 73 0 110 -27 25
-30 34 -30 87 0 33 3 63 7 66 3 4 2515 6 5582 5 l5576 -3 -2 -85z"/>
<path d="M356 8799 c-50 -39 -22 -122 42 -122 66 0 98 78 50 123 -28 26 -58
26 -92 -1z"/>
<path d="M725 8795 c-28 -27 -30 -42 -14 -79 16 -34 58 -51 91 -35 26 11 48
46 48 75 0 24 -47 64 -75 64 -14 0 -37 -11 -50 -25z"/>
<path d="M1102 8797 c-45 -48 -16 -120 48 -120 65 0 95 76 47 121 -30 28 -68
28 -95 -1z"/>
<path d="M1475 8795 c-39 -39 -32 -86 17 -111 59 -30 122 27 99 89 -19 51 -77
62 -116 22z"/>
<path d="M1850 8800 c-26 -26 -26 -81 0 -105 29 -26 79 -24 102 4 27 34 23 75
-8 100 -34 26 -68 27 -94 1z"/>
<path d="M2225 8795 c-46 -45 -19 -118 43 -118 43 0 72 28 72 70 0 67 -68 96
-115 48z"/>
<path d="M2603 8805 c-43 -30 -38 -88 12 -121 21 -14 30 -14 55 -4 55 23 66
75 25 115 -27 28 -61 32 -92 10z"/>
<path d="M2976 8799 c-52 -41 -23 -122 44 -122 65 0 95 76 47 121 -29 28 -57
28 -91 1z"/>
<path d="M3345 8795 c-14 -13 -25 -30 -25 -37 1 -59 51 -98 100 -78 36 15 55
57 41 93 -19 51 -77 62 -116 22z"/>
<path d="M3720 8800 c-26 -26 -26 -81 0 -105 29 -26 79 -24 102 4 27 34 23 75
-8 100 -34 26 -68 27 -94 1z"/>
<path d="M4095 8795 c-41 -40 -30 -92 25 -115 25 -10 34 -10 55 4 50 33 55 91
12 121 -31 22 -65 18 -92 -10z"/>
<path d="M4470 8800 c-47 -47 -15 -123 51 -123 63 0 90 72 44 118 -29 30 -68
32 -95 5z"/>
<path d="M4846 8799 c-50 -39 -22 -122 42 -122 43 0 72 28 72 70 0 65 -61 93
-114 52z"/>
<path d="M5227 8809 c-48 -28 -40 -107 13 -129 23 -9 34 -9 58 4 49 25 56 72
17 111 -25 26 -58 31 -88 14z"/>
<path d="M5592 8800 c-48 -45 -16 -123 50 -123 64 0 92 83 42 122 -34 27 -64
27 -92 1z"/>
<path d="M5965 8795 c-46 -45 -19 -118 43 -118 58 0 93 53 67 102 -24 48 -72
55 -110 16z"/>
<path d="M6352 8813 c-23 -9 -43 -60 -33 -85 29 -78 141 -63 141 19 0 47 -61
85 -108 66z"/>
<path d="M6716 8799 c-50 -39 -22 -122 42 -122 66 0 98 78 50 123 -28 26 -58
26 -92 -1z"/>
<path d="M7093 8805 c-43 -30 -38 -88 12 -121 21 -14 30 -14 55 -4 55 23 66
75 25 115 -27 28 -61 32 -92 10z"/>
<path d="M7462 8797 c-45 -48 -16 -120 48 -120 65 0 95 76 47 121 -30 28 -68
28 -95 -1z"/>
<path d="M7835 8795 c-14 -13 -25 -30 -25 -37 1 -59 51 -98 100 -78 36 15 55
57 41 93 -19 51 -77 62 -116 22z"/>
<path d="M8212 8800 c-48 -45 -16 -123 50 -123 64 0 92 83 42 122 -34 27 -64
27 -92 1z"/>
<path d="M8585 8795 c-46 -46 -19 -118 44 -118 66 0 98 76 51 123 -27 27 -66
25 -95 -5z"/>
<path d="M8962 8803 c-12 -10 -24 -30 -28 -45 -5 -22 0 -34 25 -59 25 -25 37
-30 59 -25 60 15 80 79 37 121 -28 29 -65 32 -93 8z"/>
<path d="M9336 8799 c-50 -39 -22 -122 42 -122 66 0 98 78 50 123 -28 26 -58
26 -92 -1z"/>
<path d="M9723 8805 c-43 -30 -38 -88 12 -121 21 -14 30 -14 55 -4 55 23 66
75 25 115 -27 28 -61 32 -92 10z"/>
<path d="M10096 8799 c-50 -39 -22 -122 42 -122 67 0 97 76 49 121 -29 28 -57
28 -91 1z"/>
<path d="M10465 8795 c-28 -27 -30 -42 -14 -79 16 -34 58 -51 91 -35 26 11 48
46 48 75 0 24 -47 64 -75 64 -14 0 -37 -11 -50 -25z"/>
<path d="M10842 8797 c-45 -48 -16 -120 48 -120 65 0 95 76 47 121 -30 28 -68
28 -95 -1z"/>
<path d="M1950 8150 l0 -30 688 2 687 3 3 28 3 27 -690 0 -691 0 0 -30z"/>
<path d="M3930 8150 l0 -30 690 0 690 0 0 30 0 30 -690 0 -690 0 0 -30z"/>
<path d="M5890 8150 l0 -30 690 0 690 0 0 30 0 30 -690 0 -690 0 0 -30z"/>
<path d="M7830 8150 l0 -30 690 0 690 0 0 30 0 30 -690 0 -690 0 0 -30z"/>
<path d="M9750 8150 l0 -30 690 0 690 0 0 30 0 30 -690 0 -690 0 0 -30z"/>
<path d="M373 7600 c-48 -19 -58 -87 -17 -119 34 -27 64 -27 92 -1 57 53 -3
149 -75 120z"/>
<path d="M743 7598 c-12 -6 -27 -24 -34 -40 -34 -83 86 -136 130 -57 19 33 1
81 -35 98 -29 13 -32 13 -61 -1z"/>
<path d="M1130 7603 c-55 -20 -68 -87 -24 -122 15 -12 34 -21 44 -21 33 0 70
39 70 74 0 46 -49 84 -90 69z"/>
<path d="M1488 7594 c-51 -27 -46 -101 7 -126 58 -26 119 33 95 91 -6 16 -23
33 -36 40 -31 14 -33 14 -66 -5z"/>
<path d="M1857 7590 c-50 -40 -25 -130 37 -130 36 0 76 37 76 70 0 62 -66 97
-113 60z"/>
<path d="M2243 7600 c-25 -10 -43 -39 -43 -70 0 -29 44 -70 75 -70 62 0 89 89
39 129 -29 23 -38 24 -71 11z"/>
<path d="M2613 7598 c-68 -33 -40 -138 37 -138 28 0 70 44 70 73 0 51 -61 88
-107 65z"/>
<path d="M3000 7603 c-55 -20 -68 -87 -24 -122 15 -12 34 -21 44 -21 33 0 70
39 70 74 0 46 -49 84 -90 69z"/>
<path d="M3358 7594 c-51 -27 -46 -101 7 -126 58 -26 119 33 95 91 -6 16 -23
33 -36 40 -31 14 -33 14 -66 -5z"/>
<path d="M3727 7590 c-35 -28 -37 -80 -5 -110 63 -58 156 32 101 98 -27 32
-64 37 -96 12z"/>
<path d="M4110 7597 c-52 -26 -49 -104 5 -129 58 -26 119 33 95 91 -6 16 -23
33 -36 40 -31 14 -33 14 -64 -2z"/>
<path d="M4477 7588 c-37 -33 -40 -75 -7 -108 27 -27 66 -25 95 5 29 28 32 65
8 93 -28 33 -66 37 -96 10z"/>
<path d="M4863 7600 c-26 -11 -43 -40 -43 -74 0 -29 42 -66 76 -66 62 0 88 90
38 129 -29 23 -38 24 -71 11z"/>
<path d="M5233 7598 c-81 -39 -20 -167 62 -130 55 25 58 100 5 127 -33 17 -37
17 -67 3z"/>
<path d="M5597 7590 c-35 -28 -37 -80 -5 -110 63 -58 156 32 101 98 -27 32
-64 37 -96 12z"/>
<path d="M5980 7597 c-52 -26 -49 -104 4 -128 81 -37 138 73 64 125 -27 19
-35 20 -68 3z"/>
<path d="M6352 7594 c-63 -44 -37 -134 39 -134 28 0 69 44 69 73 0 55 -65 92
-108 61z"/>
<path d="M6733 7600 c-48 -20 -58 -87 -17 -119 34 -27 64 -27 92 -1 32 30 30
82 -4 109 -29 23 -38 24 -71 11z"/>
<path d="M7089 7581 c-25 -25 -30 -37 -25 -59 15 -60 79 -80 121 -37 43 42 23
106 -37 121 -22 5 -34 0 -59 -25z"/>
<path d="M7490 7603 c-55 -20 -68 -87 -24 -122 15 -12 34 -21 44 -21 33 0 70
39 70 74 0 46 -49 84 -90 69z"/>
<path d="M7848 7594 c-51 -27 -46 -101 7 -126 58 -26 119 33 95 91 -6 16 -23
33 -36 40 -31 14 -33 14 -66 -5z"/>
<path d="M8217 7590 c-35 -28 -37 -80 -5 -110 63 -58 156 32 101 98 -27 32
-64 37 -96 12z"/>
<path d="M8600 7597 c-13 -7 -29 -25 -34 -39 -29 -83 94 -137 128 -56 17 39
11 63 -22 88 -29 23 -38 24 -72 7z"/>
<path d="M8959 7581 c-25 -25 -30 -37 -25 -59 15 -60 79 -80 121 -37 43 42 23
106 -37 121 -22 5 -34 0 -59 -25z"/>
<path d="M9353 7600 c-26 -11 -43 -40 -43 -74 0 -27 41 -66 70 -66 10 0 29 9
44 21 63 49 4 149 -71 119z"/>
<path d="M9733 7598 c-68 -33 -40 -138 37 -138 28 0 70 44 70 73 0 51 -61 88
-107 65z"/>
<path d="M10120 7603 c-55 -20 -68 -87 -24 -122 15 -12 34 -21 44 -21 33 0 70
39 70 74 0 46 -49 84 -90 69z"/>
<path d="M10478 7595 c-54 -30 -42 -116 18 -131 83 -21 126 99 48 135 -31 14
-33 14 -66 -4z"/>
<path d="M10870 7603 c-55 -20 -68 -87 -24 -122 15 -12 34 -21 44 -21 33 0 70
39 70 74 0 46 -49 84 -90 69z"/>
<path d="M1000 6940 l0 -30 685 0 685 0 0 30 0 30 -685 0 -685 0 0 -30z"/>
<path d="M2980 6940 l0 -30 690 0 690 0 0 30 0 30 -690 0 -690 0 0 -30z"/>
<path d="M4940 6940 l0 -30 690 0 690 0 0 30 0 30 -690 0 -690 0 0 -30z"/>
<path d="M6880 6940 l0 -30 690 0 690 0 0 30 0 30 -690 0 -690 0 0 -30z"/>
<path d="M8780 6940 l0 -30 700 0 700 0 0 30 0 30 -700 0 -700 0 0 -30z"/>
<path d="M373 6400 c-46 -19 -57 -83 -20 -118 47 -44 117 -13 117 52 0 50 -50
84 -97 66z"/>
<path d="M743 6398 c-12 -6 -27 -24 -34 -40 -34 -83 86 -136 130 -57 19 33 1
81 -35 98 -29 13 -32 13 -61 -1z"/>
<path d="M1130 6403 c-76 -27 -58 -143 21 -143 55 0 92 87 52 122 -22 19 -53
28 -73 21z"/>
<path d="M1495 6398 c-50 -27 -59 -75 -20 -113 42 -43 106 -23 120 36 12 48
-57 101 -100 77z"/>
<path d="M1880 6403 c-51 -19 -68 -85 -30 -123 61 -61 159 33 103 98 -20 23
-50 33 -73 25z"/>
<path d="M2243 6400 c-47 -19 -56 -78 -18 -115 47 -48 115 -19 115 48 0 51
-50 86 -97 67z"/>
<path d="M2620 6397 c-13 -7 -31 -24 -39 -38 -30 -53 36 -117 94 -91 55 25 58
100 5 127 -35 18 -29 18 -60 2z"/>
<path d="M2993 6400 c-46 -19 -57 -83 -20 -118 47 -44 117 -13 117 52 0 50
-50 84 -97 66z"/>
<path d="M3363 6398 c-12 -6 -27 -24 -34 -40 -35 -84 90 -137 129 -55 17 36 2
79 -34 96 -29 13 -32 13 -61 -1z"/>
<path d="M3750 6403 c-51 -19 -68 -85 -30 -123 61 -61 159 33 103 98 -20 23
-50 33 -73 25z"/>
<path d="M4115 6398 c-50 -27 -59 -75 -20 -113 42 -43 106 -23 120 36 12 48
-57 101 -100 77z"/>
<path d="M4490 6397 c-70 -35 -48 -137 30 -137 28 0 70 44 70 73 0 51 -55 86
-100 64z"/>
<path d="M4863 6400 c-48 -19 -58 -87 -17 -119 53 -41 114 -13 114 52 0 51
-50 86 -97 67z"/>
<path d="M5240 6397 c-13 -7 -31 -24 -39 -38 -30 -53 36 -117 94 -91 55 25 58
100 5 127 -35 18 -29 18 -60 2z"/>
<path d="M5620 6403 c-51 -19 -68 -85 -30 -123 61 -61 159 33 103 98 -20 23
-50 33 -73 25z"/>
<path d="M5985 6398 c-50 -27 -59 -75 -20 -113 29 -30 64 -32 96 -7 59 48 -9
157 -76 120z"/>
<path d="M6365 6400 c-75 -29 -58 -140 22 -140 13 0 35 11 48 25 29 28 32 65
8 93 -22 25 -51 33 -78 22z"/>
<path d="M6733 6400 c-48 -19 -58 -87 -17 -119 53 -41 114 -13 114 52 0 51
-50 86 -97 67z"/>
<path d="M7110 6397 c-13 -7 -31 -24 -39 -38 -30 -53 36 -117 94 -91 55 25 58
100 5 127 -35 18 -29 18 -60 2z"/>
<path d="M7490 6403 c-53 -19 -67 -83 -27 -121 47 -44 117 -13 117 52 0 46
-49 84 -90 69z"/>
<path d="M7853 6398 c-12 -6 -27 -24 -34 -40 -35 -84 90 -137 129 -55 19 39 1
82 -40 96 -17 6 -31 11 -32 10 -1 0 -11 -5 -23 -11z"/>
<path d="M8240 6403 c-51 -19 -68 -85 -30 -123 61 -61 159 33 103 98 -20 23
-50 33 -73 25z"/>
<path d="M8600 6397 c-76 -38 -28 -154 55 -133 29 7 56 56 48 87 -11 41 -65
65 -103 46z"/>
<path d="M8980 6397 c-13 -7 -31 -24 -39 -38 -30 -53 36 -117 94 -91 55 25 58
100 5 127 -35 18 -29 18 -60 2z"/>
<path d="M9353 6400 c-46 -19 -57 -83 -20 -118 47 -44 117 -13 117 52 0 50
-50 84 -97 66z"/>
<path d="M9740 6397 c-13 -7 -31 -24 -39 -38 -30 -53 36 -117 94 -91 55 25 58
100 5 127 -35 18 -29 18 -60 2z"/>
<path d="M10113 6400 c-46 -19 -57 -83 -20 -118 47 -44 117 -13 117 52 0 50
-50 84 -97 66z"/>
<path d="M10483 6398 c-12 -6 -27 -24 -34 -40 -34 -83 86 -136 130 -57 19 33
1 81 -35 98 -29 13 -32 13 -61 -1z"/>
<path d="M10870 6403 c-76 -27 -58 -143 21 -143 32 0 69 39 69 72 0 45 -51 85
-90 71z"/>
<path d="M1950 5730 l0 -30 688 2 687 3 3 28 3 27 -690 0 -691 0 0 -30z"/>
<path d="M3930 5730 l0 -30 690 0 690 0 0 30 0 30 -690 0 -690 0 0 -30z"/>
<path d="M5890 5730 l0 -30 690 0 690 0 0 30 0 30 -690 0 -690 0 0 -30z"/>
<path d="M7830 5730 l0 -30 690 0 690 0 0 30 0 30 -690 0 -690 0 0 -30z"/>
<path d="M9750 5730 l0 -30 690 0 690 0 0 30 0 30 -690 0 -690 0 0 -30z"/>
<path d="M352 5157 c-43 -46 -15 -120 46 -120 43 0 72 28 72 69 0 66 -74 98
-118 51z"/>
<path d="M725 5155 c-28 -27 -30 -42 -14 -79 32 -69 139 -38 139 40 0 24 -47
64 -75 64 -14 0 -37 -11 -50 -25z"/>
<path d="M1102 5157 c-45 -48 -16 -120 48 -120 65 0 95 76 47 121 -30 28 -68
28 -95 -1z"/>
<path d="M1475 5155 c-39 -38 -32 -86 16 -110 76 -40 146 71 76 120 -31 22
-65 18 -92 -10z"/>
<path d="M1850 5160 c-26 -26 -26 -81 0 -105 29 -26 79 -24 102 4 27 34 23 75
-8 100 -34 26 -68 27 -94 1z"/>
<path d="M2225 5155 c-46 -45 -19 -118 43 -118 43 0 72 28 72 70 0 67 -68 96
-115 48z"/>
<path d="M2603 5165 c-70 -49 0 -160 76 -120 48 24 55 72 16 110 -27 28 -61
32 -92 10z"/>
<path d="M2972 5157 c-43 -46 -15 -120 46 -120 43 0 72 28 72 69 0 66 -74 98
-118 51z"/>
<path d="M3345 5155 c-28 -27 -30 -42 -14 -78 37 -81 162 -28 130 56 -19 51
-77 62 -116 22z"/>
<path d="M3720 5160 c-26 -26 -26 -81 0 -105 29 -26 79 -24 102 4 27 34 23 75
-8 100 -34 26 -68 27 -94 1z"/>
<path d="M4095 5155 c-39 -38 -32 -86 16 -110 76 -40 146 71 76 120 -31 22
-65 18 -92 -10z"/>
<path d="M4470 5160 c-47 -47 -15 -123 51 -123 63 0 90 72 44 118 -29 30 -68
32 -95 5z"/>
<path d="M4846 5159 c-50 -39 -22 -122 42 -122 43 0 72 28 72 70 0 65 -61 93
-114 52z"/>
<path d="M5223 5165 c-70 -49 0 -160 76 -120 48 24 55 72 16 110 -27 28 -61
32 -92 10z"/>
<path d="M5590 5160 c-26 -26 -26 -81 0 -105 29 -26 79 -24 102 4 56 70 -39
164 -102 101z"/>
<path d="M5965 5155 c-39 -38 -32 -86 16 -110 49 -26 102 9 102 67 0 62 -73
89 -118 43z"/>
<path d="M6339 5162 c-49 -41 -14 -125 52 -125 63 0 90 72 44 118 -29 30 -64
32 -96 7z"/>
<path d="M6712 5157 c-43 -46 -15 -120 46 -120 43 0 72 28 72 70 0 66 -74 97
-118 50z"/>
<path d="M7093 5165 c-70 -49 0 -160 76 -120 48 24 55 72 16 110 -27 28 -61
32 -92 10z"/>
<path d="M7462 5157 c-43 -46 -15 -120 46 -120 67 0 97 76 49 121 -30 28 -68
28 -95 -1z"/>
<path d="M7835 5155 c-28 -27 -30 -42 -14 -78 37 -81 162 -28 130 56 -19 51
-77 62 -116 22z"/>
<path d="M8210 5160 c-26 -26 -26 -81 0 -105 29 -26 79 -24 102 4 27 34 23 75
-8 100 -34 26 -68 27 -94 1z"/>
<path d="M8585 5155 c-46 -46 -19 -118 44 -118 66 0 98 76 51 123 -27 27 -66
25 -95 -5z"/>
<path d="M8963 5165 c-70 -49 0 -160 76 -120 48 24 55 72 16 110 -27 28 -61
32 -92 10z"/>
<path d="M9332 5157 c-43 -46 -15 -120 46 -120 43 0 72 28 72 69 0 66 -74 98
-118 51z"/>
<path d="M9723 5165 c-70 -49 0 -160 76 -120 48 24 55 72 16 110 -27 28 -61
32 -92 10z"/>
<path d="M10092 5157 c-43 -46 -15 -120 46 -120 43 0 72 28 72 69 0 66 -74 98
-118 51z"/>
<path d="M10465 5155 c-28 -27 -30 -42 -14 -78 32 -71 139 -41 139 39 0 24
-47 64 -75 64 -14 0 -37 -11 -50 -25z"/>
<path d="M10842 5160 c-48 -45 -16 -123 50 -123 61 0 91 78 45 121 -29 28 -67
28 -95 2z"/>
<path d="M1000 4525 l0 -35 685 0 685 0 0 35 0 35 -685 0 -685 0 0 -35z"/>
<path d="M2980 4525 l0 -35 688 2 687 3 0 30 0 30 -687 3 -688 2 0 -35z"/>
<path d="M4940 4525 l0 -35 691 0 690 0 -3 33 -3 32 -687 3 -688 2 0 -35z"/>
<path d="M6884 4546 c-3 -8 -4 -23 -2 -33 3 -17 37 -18 691 -21 l687 -2 0 35
0 35 -685 0 c-588 0 -686 -2 -691 -14z"/>
<path d="M8787 4553 c-4 -3 -7 -19 -7 -35 l0 -28 700 0 700 0 0 35 0 35 -693
0 c-382 0 -697 -3 -700 -7z"/>
<path d="M356 3959 c-50 -39 -22 -122 42 -122 66 0 98 78 50 123 -28 26 -58
26 -92 -1z"/>
<path d="M725 3955 c-28 -27 -30 -42 -14 -79 16 -34 58 -51 91 -35 26 11 48
46 48 75 0 24 -47 64 -75 64 -14 0 -37 -11 -50 -25z"/>
<path d="M1106 3959 c-52 -41 -23 -122 44 -122 67 0 96 81 44 122 -15 12 -34
21 -44 21 -10 0 -29 -9 -44 -21z"/>
<path d="M1475 3955 c-39 -39 -32 -86 17 -111 59 -30 122 27 99 89 -19 51 -77
62 -116 22z"/>
<path d="M1852 3960 c-50 -47 -6 -140 58 -125 60 14 80 88 34 124 -34 27 -64
27 -92 1z"/>
<path d="M2225 3955 c-29 -28 -32 -65 -7 -93 43 -52 122 -24 122 44 0 68 -68
97 -115 49z"/>
<path d="M2607 3969 c-48 -28 -40 -107 12 -129 75 -31 134 58 76 115 -25 26
-58 31 -88 14z"/>
<path d="M2976 3959 c-52 -41 -23 -122 44 -122 65 0 95 76 47 121 -29 28 -57
28 -91 1z"/>
<path d="M3345 3955 c-39 -39 -32 -86 17 -111 59 -30 122 27 99 89 -19 51 -77
62 -116 22z"/>
<path d="M3722 3960 c-48 -45 -16 -123 50 -123 64 0 92 83 42 122 -34 27 -64
27 -92 1z"/>
<path d="M4095 3955 c-40 -39 -29 -97 22 -116 36 -13 78 5 93 40 31 75 -58
134 -115 76z"/>
<path d="M4477 3968 c-41 -32 -38 -94 6 -123 46 -30 107 6 107 63 0 51 -73 90
-113 60z"/>
<path d="M4846 3959 c-46 -36 -26 -110 34 -124 64 -15 108 78 58 125 -28 26
-58 26 -92 -1z"/>
<path d="M5227 3969 c-48 -28 -40 -107 12 -129 75 -31 134 58 76 115 -25 26
-58 31 -88 14z"/>
<path d="M5592 3960 c-48 -45 -16 -123 50 -123 64 0 92 83 42 122 -34 27 -64
27 -92 1z"/>
<path d="M5965 3955 c-28 -27 -32 -61 -10 -92 49 -70 160 0 120 76 -24 48 -72
55 -110 16z"/>
<path d="M6352 3973 c-7 -3 -19 -18 -27 -33 -40 -77 71 -147 120 -77 42 60
-24 138 -93 110z"/>
<path d="M6716 3959 c-50 -39 -22 -122 42 -122 66 0 98 78 50 123 -28 26 -58
26 -92 -1z"/>
<path d="M7097 3969 c-48 -28 -40 -107 12 -129 75 -31 134 58 76 115 -25 26
-58 31 -88 14z"/>
<path d="M7466 3959 c-52 -41 -23 -122 44 -122 67 0 96 81 44 122 -15 12 -34
21 -44 21 -10 0 -29 -9 -44 -21z"/>
<path d="M7835 3955 c-39 -39 -32 -86 17 -111 59 -30 122 27 99 89 -19 51 -77
62 -116 22z"/>
<path d="M8212 3960 c-48 -45 -16 -123 50 -123 64 0 92 83 42 122 -34 27 -64
27 -92 1z"/>
<path d="M8585 3955 c-28 -27 -32 -61 -10 -92 47 -66 150 -8 123 70 -18 51
-74 62 -113 22z"/>
<path d="M8962 3963 c-12 -10 -24 -30 -28 -45 -5 -22 0 -34 25 -59 25 -25 37
-30 59 -25 60 15 80 79 37 121 -28 29 -65 32 -93 8z"/>
<path d="M9336 3959 c-52 -41 -23 -122 44 -122 65 0 95 76 47 121 -29 28 -57
28 -91 1z"/>
<path d="M9727 3969 c-48 -28 -40 -107 12 -129 75 -31 134 58 76 115 -25 26
-58 31 -88 14z"/>
<path d="M10096 3959 c-52 -41 -23 -122 44 -122 67 0 96 81 44 122 -15 12 -34
21 -44 21 -10 0 -29 -9 -44 -21z"/>
<path d="M10465 3955 c-14 -13 -25 -30 -25 -37 1 -59 51 -98 100 -78 36 15 55
57 41 93 -19 51 -77 62 -116 22z"/>
<path d="M10846 3959 c-52 -41 -23 -122 44 -122 67 0 96 81 44 122 -15 12 -34
21 -44 21 -10 0 -29 -9 -44 -21z"/>
<path d="M1950 3250 l0 -30 688 2 687 3 3 28 3 27 -690 0 -691 0 0 -30z"/>
<path d="M3930 3250 l0 -30 690 0 690 0 0 30 0 30 -690 0 -690 0 0 -30z"/>
<path d="M5890 3250 l0 -30 690 0 690 0 0 30 0 30 -690 0 -690 0 0 -30z"/>
<path d="M7830 3250 l0 -30 690 0 690 0 0 30 0 30 -690 0 -690 0 0 -30z"/>
<path d="M9750 3250 l0 -30 690 0 690 0 0 30 0 30 -690 0 -690 0 0 -30z"/>
<path d="M350 2690 c-43 -43 -11 -120 50 -120 38 0 70 32 70 70 0 38 -32 70
-70 70 -17 0 -39 -9 -50 -20z"/>
<path d="M721 2684 c-12 -15 -21 -34 -21 -44 0 -34 39 -70 75 -70 36 0 75 36
75 70 0 34 -39 70 -75 70 -24 0 -39 -7 -54 -26z"/>
<path d="M1100 2690 c-11 -11 -20 -33 -20 -50 0 -17 9 -39 20 -50 43 -43 120
-11 120 50 0 38 -32 70 -70 70 -17 0 -39 -9 -50 -20z"/>
<path d="M1471 2684 c-12 -15 -21 -34 -21 -44 0 -34 39 -70 75 -70 36 0 75 36
75 70 0 34 -39 70 -75 70 -24 0 -39 -7 -54 -26z"/>
<path d="M1852 2694 c-31 -21 -31 -87 0 -108 51 -36 118 -5 118 54 0 59 -67
90 -118 54z"/>
<path d="M2220 2690 c-62 -62 25 -155 98 -104 28 20 31 83 4 107 -25 23 -78
21 -102 -3z"/>
<path d="M2595 2690 c-42 -46 -10 -120 51 -120 35 0 74 37 74 70 0 10 -9 29
-21 44 -26 33 -77 36 -104 6z"/>
<path d="M2970 2690 c-11 -11 -20 -33 -20 -50 0 -17 9 -39 20 -50 11 -11 33
-20 50 -20 17 0 39 9 50 20 11 11 20 33 20 50 0 17 -9 39 -20 50 -11 11 -33
20 -50 20 -17 0 -39 -9 -50 -20z"/>
<path d="M3341 2684 c-12 -15 -21 -34 -21 -44 0 -34 39 -70 75 -70 36 0 75 36
75 70 0 34 -39 70 -75 70 -24 0 -39 -7 -54 -26z"/>
<path d="M3722 2694 c-16 -11 -22 -25 -22 -54 0 -29 6 -43 22 -54 51 -36 118
-5 118 54 0 59 -67 90 -118 54z"/>
<path d="M4091 2684 c-12 -15 -21 -34 -21 -44 0 -10 9 -29 21 -44 41 -52 122
-23 122 44 0 67 -81 96 -122 44z"/>
<path d="M4467 2692 c-25 -28 -22 -87 5 -106 50 -35 118 -4 118 54 0 59 -85
95 -123 52z"/>
<path d="M4840 2690 c-42 -42 -12 -120 48 -120 46 0 72 25 72 70 0 29 -6 43
-22 54 -31 22 -74 20 -98 -4z"/>
<path d="M5211 2684 c-12 -15 -21 -34 -21 -44 0 -34 39 -70 75 -70 36 0 75 36
75 70 0 34 -39 70 -75 70 -24 0 -39 -7 -54 -26z"/>
<path d="M5590 2690 c-43 -43 -11 -120 50 -120 38 0 70 32 70 70 0 38 -32 70
-70 70 -17 0 -39 -9 -50 -20z"/>
<path d="M5962 2687 c-28 -30 -28 -68 1 -95 48 -45 120 -16 120 48 0 65 -76
95 -121 47z"/>
<path d="M6335 2690 c-41 -45 -10 -120 50 -120 38 0 75 35 75 71 0 58 -87 91
-125 49z"/>
<path d="M6710 2690 c-43 -43 -11 -120 50 -120 41 0 70 31 70 74 0 60 -77 89
-120 46z"/>
<path d="M7085 2690 c-42 -46 -10 -120 51 -120 35 0 74 37 74 70 0 10 -9 29
-21 44 -26 33 -77 36 -104 6z"/>
<path d="M7460 2690 c-43 -43 -11 -120 50 -120 38 0 70 32 70 70 0 38 -32 70
-70 70 -17 0 -39 -9 -50 -20z"/>
<path d="M7831 2684 c-12 -15 -21 -34 -21 -44 0 -34 39 -70 75 -70 36 0 75 36
75 70 0 34 -39 70 -75 70 -24 0 -39 -7 -54 -26z"/>
<path d="M8212 2694 c-16 -11 -22 -25 -22 -54 0 -29 6 -43 22 -54 51 -36 118
-5 118 54 0 59 -67 90 -118 54z"/>
<path d="M8580 2688 c-43 -46 -10 -118 54 -118 19 0 40 8 49 18 23 25 22 85
-1 105 -26 24 -77 21 -102 -5z"/>
<path d="M8955 2690 c-42 -46 -10 -120 51 -120 35 0 74 37 74 70 0 10 -9 29
-21 44 -26 33 -77 36 -104 6z"/>
<path d="M9330 2690 c-43 -43 -11 -120 50 -120 38 0 70 32 70 70 0 38 -32 70
-70 70 -17 0 -39 -9 -50 -20z"/>
<path d="M9715 2690 c-42 -46 -10 -120 51 -120 35 0 74 37 74 70 0 10 -9 29
-21 44 -26 33 -77 36 -104 6z"/>
<path d="M10090 2690 c-43 -43 -11 -120 50 -120 38 0 70 32 70 70 0 38 -32 70
-70 70 -17 0 -39 -9 -50 -20z"/>
<path d="M10461 2684 c-12 -15 -21 -34 -21 -44 0 -34 39 -70 75 -70 36 0 75
36 75 70 0 34 -39 70 -75 70 -24 0 -39 -7 -54 -26z"/>
<path d="M10840 2690 c-43 -43 -11 -120 50 -120 38 0 70 32 70 70 0 38 -32 70
-70 70 -17 0 -39 -9 -50 -20z"/>
<path d="M1000 2045 l0 -35 685 0 685 0 0 35 0 35 -685 0 -685 0 0 -35z"/>
<path d="M2980 2045 l0 -35 688 2 687 3 0 30 0 30 -687 3 -688 2 0 -35z"/>
<path d="M4940 2045 l0 -35 688 2 687 3 0 30 0 30 -687 3 -688 2 0 -35z"/>
<path d="M6884 2066 c-3 -8 -4 -23 -2 -33 3 -17 37 -18 691 -21 l687 -2 0 35
0 35 -685 0 c-588 0 -686 -2 -691 -14z"/>
<path d="M8782 2048 l3 -33 698 -3 697 -2 0 35 0 35 -701 0 -700 0 3 -32z"/>
<path d="M356 1469 c-36 -28 -36 -80 0 -108 15 -12 34 -21 44 -21 34 0 70 39
70 75 0 36 -36 75 -70 75 -10 0 -29 -9 -44 -21z"/>
<path d="M723 1464 c-20 -20 -24 -31 -19 -57 9 -43 29 -61 71 -61 42 0 62 18
71 61 5 26 1 37 -19 57 -15 15 -38 26 -52 26 -14 0 -37 -11 -52 -26z"/>
<path d="M1106 1469 c-36 -28 -36 -80 0 -108 15 -12 34 -21 44 -21 34 0 70 39
70 75 0 36 -36 75 -70 75 -10 0 -29 -9 -44 -21z"/>
<path d="M1475 1465 c-40 -39 -29 -97 22 -116 36 -13 78 5 93 40 31 75 -58
134 -115 76z"/>
<path d="M1865 1478 c-28 -16 -35 -28 -35 -65 0 -35 37 -73 72 -73 27 0 68 45
68 75 0 30 -41 75 -67 75 -10 0 -27 -6 -38 -12z"/>
<path d="M2225 1465 c-14 -13 -25 -36 -25 -50 0 -30 41 -75 68 -75 35 0 72 38
72 73 0 38 -7 50 -37 66 -33 17 -51 14 -78 -14z"/>
<path d="M2612 1483 c-7 -3 -19 -18 -28 -35 -13 -24 -13 -35 -4 -58 31 -74
140 -51 140 30 0 45 -63 81 -108 63z"/>
<path d="M2976 1469 c-36 -28 -36 -80 0 -108 15 -12 34 -21 44 -21 34 0 70 39
70 75 0 36 -36 75 -70 75 -10 0 -29 -9 -44 -21z"/>
<path d="M3345 1465 c-40 -39 -29 -97 22 -116 58 -22 116 36 94 94 -19 51 -77
62 -116 22z"/>
<path d="M3726 1469 c-36 -28 -36 -80 0 -108 35 -27 59 -26 89 4 34 33 33 77
-1 104 -15 12 -34 21 -44 21 -10 0 -29 -9 -44 -21z"/>
<path d="M4095 1465 c-40 -39 -29 -97 22 -116 62 -23 119 40 89 99 -25 49 -72
56 -111 17z"/>
<path d="M4483 1478 c-27 -13 -43 -55 -32 -84 9 -26 47 -54 72 -54 26 0 67 45
67 75 0 30 -41 75 -67 74 -10 0 -28 -5 -40 -11z"/>
<path d="M4845 1465 c-14 -13 -25 -36 -25 -50 0 -30 41 -75 68 -75 35 0 72 38
72 73 0 38 -7 50 -37 66 -33 17 -51 14 -78 -14z"/>
<path d="M5227 1479 c-48 -28 -40 -107 12 -129 75 -31 134 58 76 115 -25 26
-58 31 -88 14z"/>
<path d="M5596 1469 c-19 -15 -26 -30 -26 -54 0 -37 37 -75 72 -75 29 0 68 45
68 79 0 32 -38 71 -70 71 -10 0 -29 -9 -44 -21z"/>
<path d="M5965 1465 c-57 -57 1 -146 76 -115 56 24 59 103 3 129 -37 16 -52
14 -79 -14z"/>
<path d="M6354 1478 c-53 -25 -50 -105 5 -128 75 -31 134 58 76 115 -26 27
-47 30 -81 13z"/>
<path d="M6716 1469 c-34 -27 -35 -71 -1 -104 30 -30 54 -31 89 -4 19 15 26
30 26 54 0 36 -36 75 -70 75 -10 0 -29 -9 -44 -21z"/>
<path d="M7102 1483 c-7 -3 -19 -18 -28 -35 -13 -24 -13 -35 -4 -58 31 -74
140 -51 140 30 0 45 -63 81 -108 63z"/>
<path d="M7466 1469 c-19 -15 -26 -30 -26 -54 0 -36 36 -75 70 -75 34 0 70 39
70 75 0 36 -36 75 -70 75 -10 0 -29 -9 -44 -21z"/>
<path d="M7835 1465 c-58 -57 1 -146 76 -115 35 15 53 57 40 93 -19 51 -77 62
-116 22z"/>
<path d="M8216 1469 c-19 -15 -26 -30 -26 -54 0 -37 37 -75 72 -75 29 0 68 45
68 79 0 32 -38 71 -70 71 -10 0 -29 -9 -44 -21z"/>
<path d="M8585 1465 c-14 -13 -25 -36 -25 -50 0 -30 41 -75 67 -75 25 0 63 28
72 54 12 30 -6 71 -35 85 -37 16 -52 14 -79 -14z"/>
<path d="M8972 1483 c-7 -3 -19 -18 -28 -35 -13 -24 -13 -35 -4 -58 31 -74
140 -51 140 30 0 45 -63 81 -108 63z"/>
<path d="M9336 1469 c-19 -15 -26 -30 -26 -54 0 -36 36 -75 70 -75 34 0 70 39
70 75 0 36 -36 75 -70 75 -10 0 -29 -9 -44 -21z"/>
<path d="M9732 1483 c-7 -3 -19 -18 -28 -35 -13 -24 -13 -35 -4 -58 31 -74
140 -51 140 30 0 45 -63 81 -108 63z"/>
<path d="M10096 1469 c-19 -15 -26 -30 -26 -54 0 -36 36 -75 70 -75 34 0 70
39 70 75 0 36 -36 75 -70 75 -10 0 -29 -9 -44 -21z"/>
<path d="M10465 1465 c-40 -39 -29 -97 22 -116 36 -13 78 5 93 40 31 75 -58
134 -115 76z"/>
<path d="M10846 1469 c-19 -15 -26 -30 -26 -54 0 -36 36 -75 70 -75 34 0 70
39 70 75 0 36 -36 75 -70 75 -10 0 -29 -9 -44 -21z"/>
<path d="M1950 830 l0 -30 688 2 687 3 3 28 3 27 -690 0 -691 0 0 -30z"/>
<path d="M3930 830 l0 -30 690 0 690 0 0 30 0 30 -690 0 -690 0 0 -30z"/>
<path d="M5890 830 l0 -30 690 0 690 0 0 30 0 30 -690 0 -690 0 0 -30z"/>
<path d="M7830 830 l0 -30 690 0 690 0 0 30 0 30 -690 0 -690 0 0 -30z"/>
<path d="M9750 830 l0 -30 690 0 690 0 0 30 0 30 -690 0 -690 0 0 -30z"/>
<path d="M352 280 c-47 -44 -14 -120 51 -120 42 0 67 26 67 68 0 64 -72 95
-118 52z"/>
<path d="M725 275 c-30 -30 -31 -54 -4 -89 28 -36 80 -36 108 0 12 15 21 35
21 46 0 27 -45 68 -75 68 -14 0 -37 -11 -50 -25z"/>
<path d="M1100 280 c-24 -24 -26 -67 -4 -98 11 -16 25 -22 54 -22 29 0 43 6
54 22 36 51 5 118 -54 118 -17 0 -39 -9 -50 -20z"/>
<path d="M1471 274 c-24 -30 -26 -46 -10 -77 16 -30 28 -37 66 -37 41 0 77 42
68 80 -14 60 -88 80 -124 34z"/>
<path d="M1850 280 c-26 -26 -26 -81 -2 -103 44 -40 122 -7 122 51 0 60 -78
94 -120 52z"/>
<path d="M2222 277 c-45 -48 -14 -117 51 -117 43 0 67 26 67 73 0 63 -74 91
-118 44z"/>
<path d="M2602 283 c-32 -27 -37 -64 -12 -96 28 -35 80 -37 110 -5 58 63 -32
156 -98 101z"/>
<path d="M2970 280 c-24 -24 -26 -67 -4 -98 11 -16 25 -22 54 -22 29 0 43 6
54 22 36 51 5 118 -54 118 -17 0 -39 -9 -50 -20z"/>
<path d="M3341 274 c-12 -15 -21 -34 -21 -44 0 -10 9 -29 21 -44 28 -36 80
-36 108 0 27 35 26 59 -4 89 -33 34 -77 33 -104 -1z"/>
<path d="M3720 280 c-26 -26 -26 -81 -2 -103 44 -40 122 -7 122 51 0 60 -78
94 -120 52z"/>
<path d="M4091 274 c-27 -34 -27 -64 -1 -92 47 -50 140 -6 125 58 -14 60 -88
80 -124 34z"/>
<path d="M4472 284 c-28 -20 -31 -83 -4 -107 25 -23 78 -21 102 3 61 61 -27
154 -98 104z"/>
<path d="M4842 277 c-45 -48 -14 -117 51 -117 42 0 67 26 67 68 0 65 -74 96
-118 49z"/>
<path d="M5222 283 c-32 -27 -37 -64 -12 -96 57 -72 167 8 113 81 -25 33 -71
40 -101 15z"/>
<path d="M5590 280 c-26 -26 -26 -81 -2 -103 44 -40 122 -7 122 51 0 60 -78
94 -120 52z"/>
<path d="M5961 274 c-41 -53 -13 -114 52 -114 42 0 70 29 70 72 0 64 -83 92
-122 42z"/>
<path d="M6339 282 c-49 -40 -17 -122 48 -122 65 0 93 61 52 114 -25 31 -66
35 -100 8z"/>
<path d="M6712 277 c-45 -48 -14 -117 51 -117 42 0 67 26 67 68 0 65 -74 96
-118 49z"/>
<path d="M7092 283 c-32 -27 -37 -64 -12 -96 28 -35 80 -37 110 -5 58 63 -32
156 -98 101z"/>
<path d="M7460 280 c-24 -24 -26 -67 -4 -98 21 -31 87 -31 108 0 36 51 5 118
-54 118 -17 0 -39 -9 -50 -20z"/>
<path d="M7831 274 c-12 -15 -21 -34 -21 -44 0 -10 9 -29 21 -44 28 -36 80
-36 108 0 27 35 26 59 -4 89 -33 34 -77 33 -104 -1z"/>
<path d="M8210 280 c-26 -26 -26 -81 -2 -103 44 -40 122 -7 122 51 0 60 -78
94 -120 52z"/>
<path d="M8582 277 c-45 -48 -14 -117 51 -117 43 0 70 29 69 72 -2 63 -77 91
-120 45z"/>
<path d="M8959 282 c-28 -23 -30 -73 -4 -102 25 -27 78 -27 105 2 26 28 26 58
-1 92 -25 31 -66 35 -100 8z"/>
<path d="M9330 280 c-24 -24 -26 -67 -4 -98 20 -28 83 -31 107 -4 40 45 6 122
-53 122 -17 0 -39 -9 -50 -20z"/>
<path d="M9722 283 c-32 -27 -37 -64 -12 -96 28 -35 80 -37 110 -5 58 63 -32
156 -98 101z"/>
<path d="M10090 280 c-24 -24 -26 -67 -4 -98 20 -28 83 -31 107 -4 40 45 6
122 -53 122 -17 0 -39 -9 -50 -20z"/>
<path d="M10465 275 c-30 -30 -31 -54 -4 -89 15 -19 30 -26 54 -26 37 0 75 37
75 72 0 27 -45 68 -75 68 -14 0 -37 -11 -50 -25z"/>
<path d="M10840 280 c-24 -24 -26 -67 -4 -98 11 -16 25 -22 54 -22 29 0 43 6
54 22 36 51 5 118 -54 118 -17 0 -39 -9 -50 -20z"/>
</g>
</svg>
