<?xml version="1.0" standalone="no"?>
<!DOCTYPE svg PUBLIC "-//W3C//DTD SVG 20010904//EN"
 "http://www.w3.org/TR/2001/REC-SVG-20010904/DTD/svg10.dtd">
<svg version="1.0" xmlns="http://www.w3.org/2000/svg"
 width="1125.000000pt" height="900.000000pt" viewBox="0 0 1125.000000 900.000000"
 preserveAspectRatio="xMidYMid meet">
<metadata>
Created by potrace 1.13, written by Peter Selinger 2001-2015
</metadata>
<g transform="translate(0.000000,900.000000) scale(0.100000,-0.100000)"
fill="#000000" stroke="none">
<path d="M0 4500 l0 -4500 5625 0 5625 0 0 4500 0 4500 -5625 0 -5625 0 0
-4500z m1700 4451 c0 -5 -7 -25 -15 -44 -23 -55 -19 -143 9 -202 72 -157 281
-194 405 -73 44 43 72 100 78 162 5 46 -3 80 -32 149 -7 16 9 17 249 17 141 0
256 -4 256 -9 0 -4 -68 -74 -150 -155 -160 -156 -160 -156 -111 -200 20 -18
22 -16 210 173 l190 191 2850 0 2849 0 19 -38 c24 -50 63 -63 100 -36 15 12
30 32 33 45 l6 24 436 3 437 2 74 -29 c80 -32 205 -61 261 -61 34 0 35 1 38
43 l3 42 570 0 570 0 -3 -42 c-3 -34 1 -47 22 -68 32 -32 96 -35 126 -5 11 11
22 20 25 20 3 0 5 -263 5 -585 l0 -585 -56 0 c-78 0 -127 -17 -166 -57 -31
-32 -33 -39 -33 -103 0 -60 4 -74 30 -111 40 -57 107 -98 173 -106 l52 -6 0
-109 c0 -81 -3 -110 -13 -114 -23 -9 -169 26 -252 60 -44 19 -132 56 -195 84
-161 71 -164 72 -178 26 -13 -44 -11 -50 25 -59 15 -3 95 -37 178 -74 176 -80
219 -95 340 -118 l90 -18 3 -157 c1 -87 1 -158 0 -159 -2 0 -100 -15 -218 -33
l-215 -32 2 -28 c1 -16 3 -30 5 -31 2 -2 89 9 193 25 105 16 200 29 213 30 22
0 22 -1 22 -146 l0 -146 -25 16 c-41 27 -89 21 -119 -15 -35 -41 -34 -83 3
-120 33 -32 75 -38 107 -14 10 8 22 15 27 15 12 0 9 -2038 -3 -2045 -6 -4
-272 -58 -593 -121 -320 -62 -593 -116 -605 -119 -20 -5 -23 -10 -17 -33 4
-15 8 -28 9 -29 1 -2 272 51 602 116 329 65 602 115 607 111 11 -10 4 -605 -8
-604 -5 1 -22 4 -37 8 -23 5 -28 2 -37 -26 -17 -48 -14 -53 37 -69 l47 -15 0
-1659 0 -1660 -513 -3 c-501 -2 -514 -2 -539 18 -33 25 -68 25 -100 0 -25 -20
-41 -20 -730 -20 -690 0 -705 0 -730 20 -32 25 -57 25 -98 0 -31 -19 -47 -20
-296 -18 l-263 3 -2 57 c-2 65 -32 129 -77 162 -21 16 -43 21 -86 21 -109 -1
-194 -80 -208 -194 l-6 -51 -559 0 c-545 0 -561 1 -585 20 -32 25 -60 25 -98
0 -29 -19 -48 -20 -597 -20 -319 0 -568 4 -568 9 0 5 24 19 53 31 94 40 343
167 398 203 30 19 67 46 83 61 l29 27 -34 28 -33 28 -50 -39 c-28 -22 -191
-109 -362 -194 l-311 -154 -2439 2 -2439 3 -3 1308 c-1 719 0 1307 3 1307 3 0
25 -10 48 -22 34 -18 58 -23 122 -23 70 1 87 4 134 30 102 56 139 161 91 256
-43 84 -181 135 -284 105 -29 -9 -64 -25 -79 -36 -14 -11 -28 -20 -31 -20 -9
0 -7 368 1 373 5 2 105 -24 223 -59 250 -74 384 -104 469 -104 l61 0 0 45 0
45 -54 0 c-30 0 -90 7 -135 15 -78 15 -501 134 -549 155 -21 9 -22 15 -22 125
0 116 0 116 22 109 60 -21 108 7 108 63 0 20 -8 41 -20 53 -21 21 -74 27 -85
10 -3 -5 -10 -10 -15 -10 -6 0 -10 325 -10 820 l0 820 34 0 c69 0 113 69 82
129 -19 36 -44 51 -85 51 l-31 0 0 514 0 514 23 5 c12 3 230 36 485 73 l463
68 -3 31 c-2 23 -7 29 -23 28 -11 -2 -218 -32 -459 -68 -241 -36 -450 -65
-463 -65 l-24 0 3 143 3 142 105 0 105 0 3 41 3 41 -102 7 c-57 4 -106 9 -111
12 -4 3 -8 65 -8 138 0 115 3 137 19 157 33 44 51 88 51 129 0 42 -27 107 -54
129 -14 12 -16 47 -16 248 l0 235 41 -37 c55 -49 102 -68 174 -69 142 -1 254
107 255 244 0 81 -15 123 -65 178 -98 109 -252 114 -368 12 l-37 -32 0 269 c0
148 3 273 7 276 10 10 1653 8 1653 -2z m320 -4 c30 -15 70 -90 70 -132 -1 -45
-34 -109 -71 -135 -49 -36 -133 -39 -179 -8 -98 66 -110 200 -24 267 22 17 41
21 103 21 42 0 87 -6 101 -13z m-1669 -552 c86 -56 93 -201 11 -265 -155 -122
-362 91 -229 236 60 66 145 77 218 29z m10854 -895 c0 -121 -1 -125 -22 -128
-35 -5 -108 32 -137 71 -76 99 -25 190 104 185 l55 -3 0 -125z m-10888 -4570
c108 -49 109 -176 1 -231 -58 -30 -150 -32 -198 -4 -99 58 -85 192 25 241 43
19 123 17 172 -6z m7523 -2736 c21 -21 25 -33 25 -87 l0 -62 -115 0 -115 0 -3
34 c-6 64 27 112 95 137 47 17 80 10 113 -22z"/>
<path d="M1044 8940 c-56 -23 -72 -103 -29 -145 24 -25 73 -33 110 -19 20 8
45 56 45 88 0 54 -74 99 -126 76z"/>
<path d="M7925 8916 c-56 -24 -71 -96 -31 -143 19 -22 32 -28 66 -28 100 0
126 132 35 171 -40 16 -33 16 -70 0z"/>
<path d="M5077 8900 c-66 -52 -27 -160 58 -160 39 0 65 18 81 56 36 87 -65
162 -139 104z"/>
<path d="M3720 8873 c-51 -19 -68 -85 -30 -123 61 -61 159 33 103 98 -20 23
-50 33 -73 25z"/>
<path d="M6557 8820 c-150 -38 -192 -168 -91 -279 51 -58 121 -84 209 -79 86
4 135 32 165 94 24 49 25 82 4 132 -43 103 -169 161 -287 132z m166 -82 c28
-14 44 -32 59 -65 18 -41 19 -49 6 -82 -43 -114 -266 -82 -308 44 -20 60 10
100 88 121 54 15 101 9 155 -18z"/>
<path d="M8703 8729 c-210 -39 -286 -299 -127 -439 108 -94 250 -89 349 13 79
81 97 184 51 282 -49 107 -159 165 -273 144z m135 -111 c87 -53 96 -204 14
-268 -68 -54 -156 -48 -219 14 -66 67 -71 156 -10 222 58 63 142 76 215 32z"/>
<path d="M9155 8720 c-42 -47 -8 -120 55 -120 33 0 70 40 70 74 0 57 -86 89
-125 46z"/>
<path d="M3036 8674 c-38 -39 -36 -93 5 -128 41 -35 83 -34 120 3 20 20 29 39
29 61 0 22 -9 41 -29 61 -39 38 -88 40 -125 3z"/>
<path d="M10056 8679 c-19 -15 -26 -30 -26 -54 0 -36 36 -75 70 -75 34 0 70
39 70 75 0 36 -36 75 -70 75 -10 0 -29 -9 -44 -21z"/>
<path d="M4238 8656 c-26 -7 -55 -19 -65 -26 -117 -89 -154 -209 -99 -325 43
-93 129 -148 231 -148 70 0 117 17 169 63 59 53 81 102 81 190 0 58 -5 84 -22
116 -56 106 -182 162 -295 130z m112 -86 c41 -11 94 -61 109 -103 40 -106 -40
-221 -153 -221 -190 0 -229 269 -47 324 36 11 51 11 91 0z"/>
<path d="M10629 8586 c-131 -46 -341 -186 -441 -295 -53 -57 -84 -123 -72
-154 5 -13 10 -13 45 1 23 9 46 27 54 41 44 86 311 279 453 329 19 6 31 16 27
22 -8 12 10 13 53 1 29 -9 32 -8 32 12 0 28 -9 41 -37 56 -29 15 -38 14 -114
-13z"/>
<path d="M5706 8549 c-19 -15 -26 -30 -26 -54 0 -36 36 -75 70 -75 34 0 70 39
70 75 0 36 -36 75 -70 75 -10 0 -29 -9 -44 -21z"/>
<path d="M7400 8440 c-45 -45 -11 -120 53 -120 42 0 67 26 67 68 0 41 -31 72
-70 72 -17 0 -39 -9 -50 -20z"/>
<path d="M8120 8437 c-33 -16 -47 -58 -32 -92 25 -55 100 -58 127 -5 32 61
-33 128 -95 97z"/>
<path d="M5040 8380 c-26 -26 -26 -81 -2 -103 45 -40 122 -6 122 53 0 17 -9
39 -20 50 -11 11 -33 20 -50 20 -17 0 -39 -9 -50 -20z"/>
<path d="M1244 8250 c-130 -26 -222 -109 -240 -217 -9 -56 16 -127 77 -218
113 -169 280 -272 553 -340 135 -34 264 -33 332 3 90 46 134 132 115 223 -23
104 -86 179 -235 277 -54 35 -133 94 -175 129 -145 123 -288 170 -427 143z
m250 -98 c38 -18 88 -50 111 -71 52 -48 175 -138 237 -174 61 -35 137 -112
159 -162 23 -49 24 -116 4 -155 -22 -43 -87 -72 -170 -78 -130 -8 -383 69
-521 159 -107 69 -217 205 -245 301 -13 48 6 107 51 149 56 53 107 69 215 66
77 -2 100 -7 159 -35z"/>
<path d="M3225 8232 c-146 -90 -147 -307 -1 -373 77 -35 148 -21 199 40 37 44
50 93 45 175 -4 80 -28 130 -79 160 -37 22 -126 21 -164 -2z m137 -53 c46 -24
62 -133 32 -209 -51 -126 -214 -68 -214 75 0 56 21 96 66 126 32 21 85 25 116
8z"/>
<path d="M2235 8215 c-28 -27 -30 -42 -14 -79 16 -34 58 -51 91 -35 26 11 48
46 48 75 0 24 -47 64 -75 64 -14 0 -37 -11 -50 -25z"/>
<path d="M6775 8211 c-66 -28 -79 -105 -27 -152 18 -16 41 -29 53 -29 57 0
107 60 94 113 -13 50 -76 86 -120 68z"/>
<path d="M8785 8069 c-445 -70 -829 -130 -852 -134 -39 -6 -43 -9 -43 -36 0
-16 5 -29 13 -29 29 -1 1693 263 1698 269 3 3 3 17 0 31 l-6 26 -810 -127z"/>
<path d="M3868 8031 c-4 -28 -2 -30 31 -35 103 -16 1604 -157 1616 -152 16 6
21 56 6 56 -5 0 -376 36 -826 80 -450 44 -819 80 -820 80 -2 0 -5 -13 -7 -29z"/>
<path d="M6025 7924 c-24 -21 -165 -98 -345 -187 -325 -162 -354 -183 -332
-231 6 -14 20 -30 31 -36 18 -9 21 -6 32 32 7 24 14 36 16 28 3 -11 69 17 273
117 262 128 386 199 423 240 17 20 17 21 -13 47 -17 14 -35 26 -38 26 -4 -1
-25 -17 -47 -36z"/>
<path d="M7324 7951 c-28 -12 -72 -66 -80 -97 -18 -71 29 -176 98 -222 57 -37
156 -39 206 -4 103 74 79 228 -46 295 -56 30 -142 44 -178 28z m148 -82 c72
-37 99 -119 58 -172 -23 -29 -74 -43 -117 -33 -67 18 -128 125 -104 184 23 55
82 62 163 21z"/>
<path d="M10621 7914 c-12 -15 -21 -34 -21 -44 0 -34 39 -70 75 -70 43 0 79
41 70 80 -14 60 -88 80 -124 34z"/>
<path d="M9403 7906 c-61 -52 -21 -156 60 -156 41 0 72 21 84 57 31 89 -73
160 -144 99z"/>
<path d="M425 7825 c-28 -27 -30 -42 -14 -78 32 -71 139 -41 139 39 0 24 -47
64 -75 64 -14 0 -37 -11 -50 -25z"/>
<path d="M8879 7732 c-49 -40 -17 -122 48 -122 65 0 93 61 52 114 -25 31 -66
35 -100 8z"/>
<path d="M10098 7715 c-54 -30 -57 -113 -6 -149 47 -33 119 -12 139 41 14 37
-6 90 -41 108 -36 18 -57 18 -92 0z"/>
<path d="M3816 7658 c-81 -71 6 -194 102 -144 41 21 56 67 38 111 -25 58 -93
74 -140 33z"/>
<path d="M6596 7639 c-52 -41 -23 -122 44 -122 65 0 95 76 47 121 -29 28 -57
28 -91 1z"/>
<path d="M4875 7585 c-40 -39 -29 -97 22 -116 62 -23 119 40 89 99 -25 49 -72
56 -111 17z"/>
<path d="M4320 7530 c-43 -43 -11 -120 50 -120 38 0 70 32 70 70 0 38 -32 70
-70 70 -17 0 -39 -9 -50 -20z"/>
<path d="M3032 7492 c-269 -96 -201 -491 84 -492 105 0 187 52 230 145 43 92
28 195 -39 271 -74 84 -175 111 -275 76z m154 -91 c55 -25 87 -71 92 -136 5
-59 -10 -94 -57 -140 -26 -24 -41 -30 -94 -33 -52 -3 -67 0 -96 20 -50 34 -73
71 -78 125 -6 67 27 129 87 160 52 28 91 29 146 4z"/>
<path d="M9607 7445 c-45 -39 -125 -82 -406 -217 -223 -107 -267 -135 -277
-175 -6 -21 -1 -31 21 -50 30 -27 45 -19 45 24 0 12 5 25 10 28 6 3 10 0 10
-7 0 -9 38 5 113 42 61 30 182 89 267 130 156 76 280 150 313 187 18 21 18 22
-16 47 -19 14 -36 26 -38 26 -2 -1 -21 -16 -42 -35z"/>
<path d="M8593 7406 c-22 -19 -28 -32 -28 -66 0 -34 6 -47 28 -66 59 -51 147
-15 147 60 0 48 -8 65 -41 81 -40 21 -74 18 -106 -9z"/>
<path d="M2531 7364 c-27 -34 -27 -64 -1 -92 45 -48 123 -16 123 50 0 64 -83
92 -122 42z"/>
<path d="M8086 7349 c-19 -15 -26 -30 -26 -54 0 -36 36 -75 70 -75 34 0 70 39
70 75 0 36 -36 75 -70 75 -10 0 -29 -9 -44 -21z"/>
<path d="M5875 7336 c-29 -13 -55 -51 -55 -82 0 -32 31 -73 63 -83 63 -21 117
20 117 89 0 64 -65 103 -125 76z"/>
<path d="M7569 7295 c-76 -41 -47 -165 38 -165 47 0 72 16 89 56 13 31 13 39
-1 68 -25 52 -76 69 -126 41z"/>
<path d="M641 7144 c-12 -15 -21 -34 -21 -44 0 -34 39 -70 75 -70 36 0 75 36
75 70 0 34 -39 70 -75 70 -24 0 -39 -7 -54 -26z"/>
<path d="M1905 7145 c-25 -24 -33 -73 -19 -110 8 -20 56 -45 88 -45 37 0 76
39 83 82 5 32 1 41 -25 68 -39 39 -91 41 -127 5z"/>
<path d="M9812 7097 c-28 -30 -28 -68 1 -95 48 -45 120 -16 120 48 0 65 -76
95 -121 47z"/>
<path d="M3495 7045 c-30 -30 -31 -54 -4 -89 20 -26 69 -36 95 -18 15 10 34
47 34 67 0 25 -46 65 -75 65 -14 0 -37 -11 -50 -25z"/>
<path d="M4302 7063 c-18 -7 -42 -57 -42 -87 0 -37 39 -76 82 -83 32 -5 41 -1
68 25 60 61 26 153 -57 151 -21 0 -44 -3 -51 -6z"/>
<path d="M6319 7011 c-20 -20 -29 -39 -29 -61 0 -22 9 -41 29 -61 20 -20 39
-29 61 -29 22 0 41 9 61 29 20 20 29 39 29 61 0 22 -9 41 -29 61 -20 20 -39
29 -61 29 -22 0 -41 -9 -61 -29z"/>
<path d="M5100 6988 c-76 -21 -119 -96 -99 -171 23 -85 156 -183 264 -194 149
-15 223 131 131 256 -60 81 -206 135 -296 109z m139 -73 c23 -8 56 -24 72 -36
60 -42 81 -132 40 -173 -70 -70 -291 44 -291 150 0 68 79 95 179 59z"/>
<path d="M6807 6969 c-48 -28 -40 -107 12 -129 75 -31 134 58 76 115 -25 26
-58 31 -88 14z"/>
<path d="M10145 6945 c-14 -13 -25 -30 -25 -37 1 -59 51 -98 100 -78 36 15 55
57 41 93 -19 51 -77 62 -116 22z"/>
<path d="M8681 6869 c-189 -24 -416 -142 -467 -241 -20 -39 -11 -88 24 -129
62 -74 213 -144 528 -244 207 -66 285 -77 366 -51 77 25 233 114 290 165 61
55 78 87 78 149 0 114 -137 223 -355 282 -44 12 -110 31 -147 41 -66 19 -193
39 -233 37 -11 0 -49 -4 -84 -9z m244 -75 c33 -8 101 -26 150 -39 227 -58 365
-148 365 -239 0 -67 -73 -131 -249 -219 -78 -39 -90 -42 -160 -41 -66 1 -104
11 -301 76 -306 102 -424 161 -461 229 -31 59 142 179 332 229 93 24 242 26
324 4z"/>
<path d="M1480 6820 c-26 -26 -26 -81 -2 -103 25 -23 78 -21 102 3 43 43 11
120 -50 120 -17 0 -39 -9 -50 -20z"/>
<path d="M7392 6817 c-45 -48 -14 -117 51 -117 42 0 70 29 70 72 0 61 -78 91
-121 45z"/>
<path d="M2182 6728 l3 -33 770 -61 c424 -34 812 -64 863 -68 l92 -8 0 31 c0
37 92 26 -870 101 -421 33 -787 62 -813 65 l-48 6 3 -33z"/>
<path d="M6287 6639 c-48 -11 -110 -42 -168 -85 -58 -42 -114 -66 -209 -89
-92 -22 -135 -43 -177 -87 -91 -94 -84 -249 15 -351 61 -64 105 -82 197 -81
67 0 92 5 153 31 152 65 442 285 481 365 83 171 -88 345 -292 297z m138 -64
c36 -8 92 -61 105 -101 28 -84 -12 -138 -215 -291 -253 -190 -410 -226 -519
-117 -66 67 -83 152 -45 230 26 55 66 79 178 109 114 31 152 47 212 89 65 47
123 76 172 85 40 8 57 7 112 -4z"/>
<path d="M9806 6549 c-71 -56 9 -166 82 -112 38 28 41 75 8 108 -31 30 -55 32
-90 4z"/>
<path d="M10092 6435 c-84 -37 -144 -115 -157 -207 -17 -116 64 -240 180 -274
128 -37 251 20 306 141 26 56 25 156 -2 211 -23 49 -86 110 -135 130 -43 18
-149 17 -192 -1z m175 -92 c100 -47 116 -202 27 -272 -72 -56 -156 -52 -220
13 -57 56 -67 114 -33 183 31 63 77 93 141 93 28 0 66 -7 85 -17z"/>
<path d="M2883 6384 c-17 -9 -36 -28 -43 -43 -37 -90 79 -167 147 -98 72 71
-13 187 -104 141z"/>
<path d="M7940 6347 c-34 -17 -48 -69 -26 -102 32 -49 106 -42 127 12 13 35
-4 76 -37 92 -31 14 -33 14 -64 -2z"/>
<path d="M4380 6301 c-73 -24 -139 -82 -165 -145 -43 -104 -22 -203 58 -281
100 -97 240 -102 342 -13 140 123 110 338 -58 425 -35 18 -140 26 -177 14z
m133 -95 c18 -7 45 -28 60 -45 92 -110 19 -271 -124 -271 -146 0 -221 177
-117 277 55 53 117 66 181 39z"/>
<path d="M3631 6264 c-27 -34 -27 -64 -1 -92 45 -48 123 -16 123 50 0 64 -83
92 -122 42z"/>
<path d="M426 6259 c-36 -28 -36 -80 0 -108 15 -12 34 -21 44 -21 34 0 70 39
70 75 0 36 -36 75 -70 75 -10 0 -29 -9 -44 -21z"/>
<path d="M3178 5983 l-197 -297 35 -24 c20 -13 39 -20 44 -16 12 14 390 583
390 588 0 5 -65 46 -71 46 -2 0 -93 -134 -201 -297z"/>
<path d="M7395 6251 c-38 -8 -36 -29 11 -93 63 -86 260 -216 445 -294 104 -44
240 -84 286 -84 34 0 34 0 31 42 l-3 41 -70 14 c-202 41 -535 223 -620 340
-32 44 -33 44 -80 34z"/>
<path d="M1020 6200 c-43 -43 -11 -120 50 -120 38 0 70 32 70 70 0 38 -32 70
-70 70 -17 0 -39 -9 -50 -20z"/>
<path d="M2325 6200 c-41 -45 -10 -120 50 -120 38 0 75 35 75 71 0 58 -87 91
-125 49z"/>
<path d="M1568 6061 c-105 -34 -158 -154 -109 -249 42 -82 123 -126 233 -127
85 0 114 14 156 75 35 53 31 134 -10 196 -57 83 -185 132 -270 105z m156 -84
c86 -47 112 -138 57 -199 -27 -30 -34 -33 -88 -33 -70 1 -136 33 -170 84 -28
42 -29 76 -3 119 39 64 120 76 204 29z"/>
<path d="M6701 6034 c-12 -15 -21 -34 -21 -44 0 -34 39 -70 75 -70 65 0 93 72
48 123 -25 27 -78 22 -102 -9z"/>
<path d="M5001 5937 c-51 -25 -47 -107 5 -127 77 -30 138 57 79 115 -27 28
-48 31 -84 12z"/>
<path d="M10535 5925 c-14 -13 -25 -36 -25 -50 0 -30 41 -75 68 -75 35 0 72
38 72 75 0 24 -7 39 -26 54 -35 27 -59 26 -89 -4z"/>
<path d="M9755 5855 c-28 -27 -32 -61 -10 -92 49 -70 160 0 120 76 -24 48 -72
55 -110 16z"/>
<path d="M669 5841 c-20 -20 -29 -39 -29 -61 0 -40 47 -90 85 -90 57 0 94 36
95 93 0 82 -91 117 -151 58z"/>
<path d="M7167 5809 c-48 -28 -40 -107 12 -129 75 -31 134 58 76 115 -25 26
-58 31 -88 14z"/>
<path d="M144 5778 c-52 -25 -51 -103 2 -127 37 -16 52 -14 79 14 32 31 32 69
0 100 -26 27 -47 30 -81 13z"/>
<path d="M8611 5754 c-12 -15 -21 -35 -21 -46 0 -27 45 -68 75 -68 30 0 75 41
75 68 0 35 -38 72 -75 72 -24 0 -39 -7 -54 -26z"/>
<path d="M1360 5478 c-470 -49 -856 -91 -858 -93 -2 -1 0 -14 4 -29 4 -18 13
-26 28 -26 50 1 1717 177 1722 183 13 12 -6 57 -24 56 -9 -1 -402 -41 -872
-91z"/>
<path d="M7864 5545 c-4 -14 -5 -27 -3 -29 5 -4 1688 -237 1707 -236 12 0 18
60 6 60 -3 0 -378 52 -834 115 -455 63 -837 115 -849 115 -14 0 -23 -8 -27
-25z"/>
<path d="M2881 5534 c-27 -35 -26 -59 4 -89 33 -34 77 -33 104 1 12 15 21 34
21 44 0 34 -39 70 -75 70 -24 0 -39 -7 -54 -26z"/>
<path d="M10057 5265 c-109 -162 -197 -297 -197 -299 0 -7 71 -49 74 -45 20
24 386 581 386 588 0 9 -52 51 -62 51 -3 0 -93 -133 -201 -295z"/>
<path d="M3435 5525 c-56 -55 -18 -155 59 -155 53 0 91 37 91 90 0 34 -6 47
-28 66 -38 32 -90 32 -122 -1z"/>
<path d="M4730 5510 c0 -16 4 -30 8 -30 5 0 332 -49 727 -110 395 -60 722
-107 727 -104 4 3 8 16 8 29 0 17 -7 26 -22 30 -41 9 -1410 215 -1429 215 -14
0 -19 -7 -19 -30z"/>
<path d="M6645 5514 c-142 -50 -207 -221 -137 -355 97 -187 355 -184 455 5 30
57 30 165 0 221 -63 118 -197 172 -318 129z m170 -97 c45 -25 85 -92 85 -142
-1 -46 -34 -109 -71 -136 -46 -33 -144 -34 -186 -3 -90 67 -100 188 -21 261
51 48 129 56 193 20z"/>
<path d="M7401 5446 c-27 -15 -50 -52 -51 -79 0 -35 29 -75 63 -86 63 -21 117
20 117 89 0 63 -75 107 -129 76z"/>
<path d="M10550 5361 c-145 -31 -202 -157 -127 -281 24 -39 46 -61 87 -84 49
-28 64 -31 135 -31 111 0 175 36 219 122 35 70 9 178 -53 222 -60 43 -185 68
-261 52z m198 -85 c68 -36 91 -115 49 -176 -72 -108 -259 -99 -324 15 -39 69
-24 137 39 169 44 22 188 18 236 -8z"/>
<path d="M2487 5319 c-28 -16 -49 -67 -42 -100 12 -56 84 -86 137 -58 31 17
50 71 37 108 -17 50 -87 76 -132 50z"/>
<path d="M4397 5276 c-70 -19 -125 -63 -161 -125 -25 -46 -30 -66 -30 -120 1
-148 107 -254 254 -255 106 0 193 58 235 157 21 50 19 152 -4 202 -50 110
-179 172 -294 141z m116 -90 c72 -26 109 -79 109 -156 0 -81 -45 -139 -125
-161 -115 -31 -232 88 -198 201 16 54 56 97 106 115 50 17 60 18 108 1z"/>
<path d="M1169 5202 c-15 -13 -22 -30 -22 -51 0 -66 76 -98 123 -51 27 27 25
66 -5 95 -29 30 -64 32 -96 7z"/>
<path d="M3640 5170 c-11 -11 -20 -33 -20 -50 0 -17 9 -39 20 -50 45 -45 120
-11 120 53 0 20 -8 41 -18 50 -25 23 -78 21 -102 -3z"/>
<path d="M8665 5170 c-42 -47 -8 -120 55 -120 33 0 70 40 70 76 0 57 -86 87
-125 44z"/>
<path d="M5129 5151 c-28 -23 -32 -83 -6 -108 21 -21 82 -22 102 -2 8 8 17 29
21 46 5 26 1 37 -19 57 -31 31 -66 33 -98 7z"/>
<path d="M9244 5096 c-17 -8 -36 -27 -43 -44 -40 -97 78 -174 147 -96 63 72
-16 179 -104 140z"/>
<path d="M11000 5063 c-79 -29 -81 -144 -3 -170 58 -20 123 23 123 82 0 58
-67 107 -120 88z"/>
<path d="M7709 4734 c-104 -157 -192 -291 -195 -297 -2 -7 12 -22 31 -35 l35
-22 197 296 198 296 -30 24 c-17 13 -33 24 -37 24 -4 0 -94 -129 -199 -286z"/>
<path d="M330 4977 c-70 -35 -48 -137 30 -137 28 0 70 44 70 73 0 51 -55 86
-100 64z"/>
<path d="M1885 4961 c-279 -85 -407 -199 -392 -349 11 -108 96 -232 186 -271
97 -41 177 -54 336 -55 266 0 388 56 430 196 20 69 19 123 -5 199 -36 117
-112 204 -230 265 -48 25 -68 28 -160 31 -80 2 -119 -2 -165 -16z m300 -71
c72 -34 158 -125 185 -197 26 -67 31 -174 11 -213 -25 -46 -64 -80 -119 -100
-140 -53 -446 -40 -568 23 -60 31 -114 106 -135 191 -24 96 38 178 188 248
132 60 204 78 303 75 64 -3 97 -10 135 -27z"/>
<path d="M914 4949 c-35 -39 -164 -111 -383 -214 -233 -110 -306 -152 -316
-185 -9 -28 3 -58 27 -71 24 -13 38 1 38 38 0 12 5 25 10 28 6 3 10 -1 10 -11
0 -15 2 -15 26 1 15 9 124 63 243 119 239 113 334 166 400 222 l43 38 -33 28
c-41 33 -41 33 -65 7z"/>
<path d="M6195 4885 c-14 -13 -25 -36 -25 -50 0 -28 40 -75 64 -75 78 0 109
107 40 139 -37 16 -52 14 -79 -14z"/>
<path d="M7312 4857 c-45 -48 -14 -117 51 -117 42 0 70 29 70 72 0 61 -78 91
-121 45z"/>
<path d="M3097 4843 c-58 -15 79 -167 237 -263 163 -98 382 -189 499 -205 l47
-7 0 45 0 44 -62 13 c-195 38 -542 226 -623 337 -30 42 -49 49 -98 36z"/>
<path d="M9837 4782 c-23 -25 -21 -78 3 -102 43 -43 120 -11 120 50 0 17 -9
39 -20 50 -26 26 -81 26 -103 2z"/>
<path d="M3966 4769 c-34 -27 -35 -71 -1 -104 30 -30 54 -31 89 -4 36 28 36
80 0 108 -15 12 -34 21 -44 21 -10 0 -29 -9 -44 -21z"/>
<path d="M5130 4730 c0 -6 7 -24 15 -40 16 -30 3 -43 -13 -14 -7 12 -25 -11
-83 -103 -142 -227 -219 -407 -219 -513 0 -30 1 -31 42 -28 43 3 43 3 50 50
15 108 65 218 188 418 43 69 82 135 89 147 14 28 14 66 -1 81 -15 15 -68 16
-68 2z"/>
<path d="M8363 4682 c-60 -21 -126 -64 -154 -101 -23 -29 -23 -27 21 -252 32
-159 71 -294 102 -349 41 -75 142 -113 347 -131 208 -18 644 21 729 65 96 50
123 179 69 326 -40 110 -96 172 -164 183 -21 4 -84 35 -142 72 -114 71 -253
130 -407 171 -134 36 -323 44 -401 16z m305 -58 c179 -37 338 -99 478 -188 49
-31 107 -61 129 -67 57 -15 67 -21 101 -66 43 -57 67 -140 62 -218 -4 -72 -27
-107 -82 -124 -133 -42 -618 -66 -779 -38 -115 20 -172 48 -197 97 -34 66
-120 429 -120 505 0 31 53 72 123 96 66 23 183 24 285 3z"/>
<path d="M2780 4650 c-11 -11 -20 -33 -20 -50 0 -17 9 -39 20 -50 45 -45 120
-11 120 53 0 20 -8 41 -18 50 -25 23 -78 21 -102 -3z"/>
<path d="M1175 4651 c-62 -26 -79 -102 -32 -148 56 -57 151 -17 151 62 0 59
-67 108 -119 86z"/>
<path d="M10706 4629 c-26 -20 -36 -69 -18 -95 10 -15 47 -34 67 -34 25 0 65
46 65 75 0 30 -41 75 -68 75 -11 0 -31 -9 -46 -21z"/>
<path d="M6891 4514 c-12 -15 -21 -34 -21 -44 0 -34 39 -70 75 -70 36 0 75 36
75 70 0 34 -39 70 -75 70 -24 0 -39 -7 -54 -26z"/>
<path d="M5406 4438 c-50 -71 43 -159 104 -98 26 26 26 81 2 103 -28 25 -87
22 -106 -5z"/>
<path d="M6444 4405 c-12 -8 -27 -28 -34 -45 -23 -56 22 -120 85 -120 63 0
108 64 85 120 -16 39 -46 60 -85 60 -17 0 -40 -7 -51 -15z"/>
<path d="M9974 4375 c-12 -8 -27 -28 -34 -45 -23 -56 22 -120 85 -120 63 0
108 64 85 120 -16 39 -46 60 -85 60 -17 0 -40 -7 -51 -15z"/>
<path d="M886 4289 c-31 -24 -36 -77 -8 -102 50 -45 122 -17 122 48 0 36 -36
75 -70 75 -10 0 -29 -9 -44 -21z"/>
<path d="M5927 4289 c-11 -6 -25 -26 -33 -45 -33 -79 51 -154 127 -114 29 16
51 67 44 101 -12 56 -88 87 -138 58z"/>
<path d="M4353 4202 c-27 -4 -73 -56 -73 -83 0 -50 49 -99 100 -99 11 0 34 13
52 29 71 63 17 168 -79 153z"/>
<path d="M3315 4124 c-330 -29 -615 -53 -632 -53 -30 -1 -33 -4 -33 -31 0 -27
3 -30 33 -30 49 0 1319 109 1324 114 2 2 1 15 -3 30 -8 33 46 35 -689 -30z"/>
<path d="M1425 4106 c-159 -74 -200 -268 -85 -400 53 -59 102 -81 190 -81 58
0 84 5 116 22 49 26 98 80 120 131 20 47 21 146 1 193 -55 132 -214 195 -342
135z m184 -87 c46 -28 68 -56 80 -105 35 -137 -116 -252 -241 -182 -111 63
-111 229 0 288 50 26 118 25 161 -1z"/>
<path d="M7480 4107 c-71 -23 -140 -120 -140 -198 0 -114 98 -208 216 -209 86
0 152 61 173 160 19 90 -30 198 -109 238 -48 24 -85 26 -140 9z m128 -73 c31
-20 62 -89 62 -137 0 -49 -31 -110 -65 -125 -54 -25 -105 -13 -158 36 -117
110 27 312 161 226z"/>
<path d="M6241 3864 c-12 -15 -21 -34 -21 -44 0 -34 39 -70 75 -70 36 0 75 36
75 70 0 34 -39 70 -75 70 -24 0 -39 -7 -54 -26z"/>
<path d="M4241 3850 c-148 -35 -213 -227 -113 -333 40 -42 80 -60 137 -60 83
0 141 42 170 122 36 102 2 216 -75 256 -37 19 -81 24 -119 15z m109 -88 c33
-34 46 -94 30 -150 -40 -150 -258 -104 -237 50 14 108 138 168 207 100z"/>
<path d="M3460 3803 c-51 -19 -68 -85 -30 -123 61 -61 159 33 103 98 -20 23
-50 33 -73 25z"/>
<path d="M2044 3758 c-69 -33 -37 -138 42 -138 24 0 64 47 64 75 0 30 -41 75
-67 74 -10 0 -28 -5 -39 -11z"/>
<path d="M2705 3678 c-52 -30 -62 -102 -20 -143 53 -54 155 -11 155 65 0 64
-79 110 -135 78z"/>
<path d="M6869 3651 c-38 -38 -39 -87 -4 -125 54 -58 155 -19 155 61 0 46 -46
93 -90 93 -22 0 -41 -9 -61 -29z"/>
<path d="M9742 3659 c-183 -91 -192 -356 -15 -452 107 -57 219 -42 302 41 166
166 55 432 -178 432 -47 0 -78 -6 -109 -21z m188 -84 c68 -35 105 -125 81
-198 -18 -53 -80 -104 -135 -112 -58 -9 -130 24 -164 75 -20 29 -23 45 -20 95
4 70 29 113 80 138 42 21 120 22 158 2z"/>
<path d="M10516 3639 c-19 -15 -26 -30 -26 -54 0 -36 36 -75 70 -75 34 0 70
39 70 75 0 36 -36 75 -70 75 -10 0 -29 -9 -44 -21z"/>
<path d="M5545 3605 c-40 -39 -29 -97 22 -116 62 -23 119 40 89 99 -25 49 -72
56 -111 17z"/>
<path d="M1020 3540 c-61 -61 27 -154 98 -104 28 20 31 83 4 107 -25 23 -78
21 -102 -3z"/>
<path d="M8324 3538 c-16 -12 -31 -23 -33 -25 -3 -2 6 -15 20 -29 65 -69 242
-135 513 -189 144 -29 181 -34 187 -23 9 13 12 78 5 78 -3 0 -65 11 -138 25
-240 44 -419 103 -484 158 -18 15 -34 27 -37 27 -2 0 -17 -10 -33 -22z"/>
<path d="M7655 3320 c-26 -29 -24 -79 4 -102 70 -56 164 39 101 102 -26 26
-81 26 -105 0z"/>
<path d="M3151 3254 c-65 -54 -28 -154 58 -154 32 0 44 6 65 31 35 41 34 83
-3 120 -37 37 -79 38 -120 3z"/>
<path d="M4710 3220 c-26 -26 -26 -81 -2 -103 44 -40 122 -7 122 51 0 60 -78
94 -120 52z"/>
<path d="M5300 3221 c-119 -37 -203 -162 -185 -279 32 -216 301 -299 444 -137
46 53 61 94 61 168 0 115 -69 211 -174 242 -53 16 -106 18 -146 6z m127 -92
c62 -23 105 -86 105 -154 0 -101 -76 -171 -176 -163 -67 6 -112 37 -138 96
-58 131 75 272 209 221z"/>
<path d="M2640 3157 c-52 -26 -49 -104 4 -128 81 -37 138 73 64 125 -27 19
-35 20 -68 3z"/>
<path d="M10682 3134 c-80 -56 -22 -178 75 -159 43 8 76 56 68 100 -11 63 -91
96 -143 59z"/>
<path d="M1937 3093 c-23 -4 -27 -8 -21 -26 11 -35 62 -101 108 -139 159 -134
478 -285 639 -304 l57 -7 0 42 c0 25 -5 43 -12 45 -7 2 -47 11 -88 21 -210 50
-545 240 -606 345 -10 16 -25 29 -34 29 -8 -1 -28 -4 -43 -6z"/>
<path d="M6910 3060 c-43 -43 -11 -120 50 -120 38 0 70 32 70 70 0 38 -32 70
-70 70 -17 0 -39 -9 -50 -20z"/>
<path d="M4083 3038 c-29 -32 -37 -65 -22 -99 12 -30 54 -59 84 -59 57 0 106
70 86 123 -22 57 -109 78 -148 35z"/>
<path d="M9060 2967 c-75 -38 -28 -154 54 -133 30 7 60 58 51 86 -7 21 -51 60
-69 60 -6 0 -22 -6 -36 -13z"/>
<path d="M3580 2930 c-61 -61 27 -154 98 -104 28 20 31 83 4 107 -25 23 -78
21 -102 -3z"/>
<path d="M5885 2905 c-14 -13 -25 -36 -25 -50 0 -30 41 -75 68 -75 35 0 72 38
72 75 0 24 -7 39 -26 54 -35 27 -59 26 -89 -4z"/>
<path d="M9185 2640 c-385 -143 -719 -267 -743 -276 -40 -15 -43 -19 -37 -43
4 -14 8 -27 10 -29 4 -4 1498 547 1506 556 10 11 -9 52 -23 52 -7 -1 -328
-118 -713 -260z"/>
<path d="M8410 2873 c-51 -19 -68 -85 -30 -123 61 -61 159 33 103 98 -20 23
-50 33 -73 25z"/>
<path d="M1579 2858 c-38 -13 -57 -62 -38 -97 32 -57 111 -49 132 13 17 51
-40 103 -94 84z"/>
<path d="M7782 2805 c-65 -55 -29 -155 55 -155 42 1 63 13 81 47 30 55 -5 119
-69 129 -28 5 -41 1 -67 -21z"/>
<path d="M7332 2663 c-51 -43 -24 -123 41 -123 38 0 50 7 66 37 17 33 14 51
-14 78 -28 29 -65 32 -93 8z"/>
<path d="M6040 2555 c-300 -39 -571 -75 -602 -79 -56 -7 -58 -9 -58 -37 0 -22
5 -29 20 -29 11 0 295 36 630 80 335 44 612 80 615 80 3 0 5 14 5 30 0 27 -3
30 -32 29 -18 -1 -278 -34 -578 -74z"/>
<path d="M940 2552 l0 -29 843 -92 c463 -50 851 -93 862 -94 15 -2 21 5 23 28
l3 30 -843 93 c-464 51 -853 93 -865 93 -18 -1 -23 -7 -23 -29z"/>
<path d="M10875 2475 c-48 -47 -19 -119 49 -119 47 0 70 23 70 70 0 68 -72 97
-119 49z"/>
<path d="M4232 2432 c-73 -26 -122 -68 -155 -133 -54 -103 -25 -224 83 -342
109 -120 264 -197 395 -197 63 0 82 4 136 33 151 78 234 278 170 410 -44 92
-148 175 -269 219 -85 30 -287 36 -360 10z m264 -51 c126 -24 230 -87 291
-175 40 -58 44 -117 13 -199 -58 -154 -202 -221 -358 -167 -112 39 -254 157
-301 249 -63 123 -12 245 121 286 51 16 165 19 234 6z"/>
<path d="M3409 2425 c-38 -20 -52 -67 -35 -110 25 -59 93 -74 143 -31 22 19
28 32 28 66 0 73 -70 111 -136 75z"/>
<path d="M6626 2406 c-179 -67 -230 -293 -94 -423 74 -71 188 -93 278 -52 194
88 209 340 28 452 -57 36 -151 46 -212 23z m147 -90 c127 -54 137 -235 16
-296 -168 -86 -331 127 -197 257 55 53 117 66 181 39z"/>
<path d="M9245 2396 c-193 -91 -194 -357 -2 -458 57 -31 165 -31 222 -1 148
78 189 268 85 395 -70 85 -203 113 -305 64z m195 -88 c77 -53 99 -132 61 -212
-54 -110 -204 -126 -278 -29 -39 51 -44 135 -11 183 54 80 157 106 228 58z"/>
<path d="M9876 2369 c-26 -20 -36 -69 -18 -95 10 -15 47 -34 67 -34 25 0 65
46 65 75 0 30 -41 75 -68 75 -11 0 -31 -9 -46 -21z"/>
<path d="M302 2277 c-44 -47 -13 -117 52 -117 41 0 69 29 69 72 0 61 -78 91
-121 45z"/>
<path d="M7226 2164 c-3 -9 -6 -29 -6 -45 0 -25 4 -29 28 -29 15 0 225 -14
467 -30 242 -16 455 -30 473 -30 31 0 32 1 32 45 0 44 -1 45 -32 45 -18 0
-231 14 -473 30 -517 35 -481 34 -489 14z"/>
<path d="M10385 2158 c-52 -30 -62 -102 -20 -143 53 -54 155 -11 155 65 0 64
-79 110 -135 78z"/>
<path d="M1160 2121 c-71 -37 -175 -73 -490 -172 -288 -91 -375 -126 -385
-159 -11 -36 8 -43 49 -20 36 22 36 22 36 2 0 -21 0 -21 43 -2 23 10 161 55
306 100 392 121 515 172 565 230 14 17 26 36 26 41 0 21 -96 8 -150 -20z"/>
<path d="M2621 2114 c-12 -15 -21 -34 -21 -44 0 -34 39 -70 75 -70 36 0 75 36
75 70 0 34 -39 70 -75 70 -24 0 -39 -7 -54 -26z"/>
<path d="M6081 2044 c-12 -15 -21 -34 -21 -44 0 -34 39 -70 75 -70 36 0 75 36
75 70 0 34 -39 70 -75 70 -24 0 -39 -7 -54 -26z"/>
<path d="M1616 1919 c-36 -29 -36 -80 1 -109 47 -37 113 -4 113 56 0 35 -37
74 -70 74 -10 0 -29 -9 -44 -21z"/>
<path d="M10958 1925 c-54 -30 -42 -116 18 -131 83 -21 126 99 48 135 -31 14
-33 14 -66 -4z"/>
<path d="M8471 1904 c-12 -15 -21 -35 -21 -46 0 -27 45 -68 75 -68 30 0 75 41
75 68 0 35 -38 72 -75 72 -24 0 -39 -7 -54 -26z"/>
<path d="M3450 1890 c-11 -11 -20 -33 -20 -50 0 -17 9 -39 20 -50 11 -11 33
-20 50 -20 17 0 39 9 50 20 11 11 20 33 20 50 0 17 -9 39 -20 50 -11 11 -33
20 -50 20 -17 0 -39 -9 -50 -20z"/>
<path d="M7681 1890 c-125 -35 -192 -79 -222 -144 -74 -164 72 -341 292 -354
151 -9 310 50 373 137 60 83 35 209 -56 287 -100 84 -247 112 -387 74z m270
-76 c70 -32 124 -87 139 -144 20 -73 -14 -129 -104 -171 -156 -73 -326 -59
-425 34 -89 85 -78 197 26 255 22 12 74 31 115 42 91 25 168 20 249 -16z"/>
<path d="M5350 1820 c-42 -42 -8 -120 53 -120 58 0 91 85 49 123 -25 23 -78
21 -102 -3z"/>
<path d="M2426 1816 c-91 -34 -138 -121 -114 -213 15 -61 94 -143 154 -161 92
-27 197 -10 260 41 117 97 89 261 -56 324 -50 22 -195 27 -244 9z m232 -74
c99 -51 103 -155 9 -226 -19 -14 -48 -21 -92 -24 -116 -8 -194 51 -203 152 -4
45 -1 54 23 79 16 15 42 32 59 37 46 14 162 4 204 -18z"/>
<path d="M3770 1801 c0 -24 -88 -105 -180 -166 -98 -65 -308 -174 -462 -240
l-87 -37 15 -36 c8 -20 17 -38 19 -41 11 -10 378 164 500 237 92 55 201 139
234 181 34 43 57 88 48 97 -12 12 -87 17 -87 5z"/>
<path d="M9515 1678 c-50 -27 -59 -75 -20 -113 29 -30 64 -32 96 -7 59 48 -9
157 -76 120z"/>
<path d="M6770 1660 c-63 -63 31 -158 101 -102 28 23 30 73 4 102 -24 26 -79
26 -105 0z"/>
<path d="M6104 1654 c-50 -25 -66 -73 -39 -123 41 -81 165 -50 165 40 0 71
-65 114 -126 83z"/>
<path d="M10145 1615 c-14 -13 -25 -36 -25 -50 0 -30 41 -75 67 -75 25 0 63
28 72 54 12 30 -6 71 -35 85 -37 16 -52 14 -79 -14z"/>
<path d="M634 1570 c-63 -25 -71 -114 -15 -157 28 -22 89 -16 116 12 69 68
-11 182 -101 145z"/>
<path d="M8575 1418 c-22 -26 -26 -39 -21 -67 7 -44 46 -81 86 -81 16 0 42 11
59 26 65 54 28 154 -58 154 -32 0 -44 -6 -66 -32z"/>
<path d="M10761 1394 c-25 -21 -31 -33 -31 -65 0 -86 100 -123 154 -58 14 17
26 39 26 49 0 51 -49 100 -99 100 -11 0 -33 -12 -50 -26z"/>
<path d="M4435 1385 c-28 -27 -30 -42 -14 -79 16 -34 58 -51 91 -35 26 11 48
46 48 75 0 24 -47 64 -75 64 -14 0 -37 -11 -50 -25z"/>
<path d="M5253 1395 c-57 -25 -71 -93 -29 -142 19 -22 32 -28 66 -28 100 0
126 132 35 171 -40 16 -32 17 -72 -1z"/>
<path d="M213 1378 c-81 -39 -20 -167 62 -130 55 25 58 100 5 127 -33 17 -37
17 -67 3z"/>
<path d="M1062 1367 c-44 -47 -13 -117 52 -117 41 0 69 29 69 72 0 61 -78 91
-121 45z"/>
<path d="M1835 1341 c-62 -26 -79 -102 -32 -148 56 -57 151 -17 151 62 0 59
-67 108 -119 86z"/>
<path d="M5785 1180 c-42 -46 -8 -120 54 -120 34 0 71 37 71 71 0 58 -87 91
-125 49z"/>
<path d="M6531 1148 c-54 -37 -74 -71 -79 -135 -8 -112 41 -208 125 -245 121
-53 229 30 240 185 5 75 -21 134 -80 181 -32 26 -49 31 -105 34 -57 3 -72 0
-101 -20z m179 -73 c38 -37 54 -84 45 -138 -20 -115 -100 -158 -181 -95 -55
44 -82 160 -50 217 33 59 132 67 186 16z"/>
<path d="M9248 1128 c-3 -17 0 -31 6 -33 6 -2 319 -27 696 -54 377 -28 699
-52 715 -54 27 -2 30 1 33 31 3 28 0 32 -20 32 -28 0 -1338 98 -1390 104 -34
4 -36 2 -40 -26z"/>
<path d="M3490 1020 c0 -16 4 -30 9 -30 5 0 391 -31 857 -70 466 -38 853 -70
861 -70 8 0 13 12 13 29 0 28 -2 30 -52 35 -79 9 -1633 136 -1662 136 -22 0
-26 -4 -26 -30z"/>
<path d="M8867 1008 c-51 -88 -212 -215 -452 -357 -64 -39 -121 -71 -127 -73
-10 -4 28 -78 40 -78 13 0 192 106 288 170 131 89 242 178 286 232 38 46 82
127 75 135 -3 2 -23 7 -45 10 -37 5 -40 4 -65 -39z"/>
<path d="M577 995 c-195 -37 -355 -134 -439 -264 -33 -53 -38 -125 -12 -212
39 -131 87 -187 204 -238 41 -18 125 -60 185 -94 l110 -62 85 1 c69 0 103 6
178 32 189 65 417 189 507 277 104 102 98 242 -16 356 -52 52 -111 79 -175 79
-39 0 -71 10 -143 45 -51 25 -120 54 -154 65 -83 28 -228 34 -330 15z m288
-67 c22 -5 93 -35 158 -65 100 -47 128 -56 173 -55 149 1 264 -192 180 -302
-59 -78 -334 -233 -516 -291 -53 -17 -109 -28 -150 -28 -61 -1 -71 2 -160 52
-52 30 -131 70 -175 90 -44 20 -90 42 -102 49 -34 19 -92 147 -99 218 -8 73 5
102 76 173 140 140 414 211 615 159z"/>
<path d="M7330 993 c-56 -21 -68 -87 -24 -122 15 -12 34 -21 44 -21 34 0 70
39 70 75 0 49 -46 84 -90 68z"/>
<path d="M2555 936 c-93 -44 -144 -126 -145 -232 -1 -227 280 -338 436 -172
53 55 68 95 69 173 0 59 -5 78 -29 123 -67 120 -207 167 -331 108z m203 -92
c34 -25 72 -98 72 -140 0 -17 -10 -50 -23 -74 -47 -89 -163 -116 -242 -56 -95
73 -88 204 15 274 29 20 44 23 93 20 36 -3 67 -12 85 -24z"/>
<path d="M8086 909 c-19 -15 -26 -30 -26 -54 0 -36 36 -75 70 -75 34 0 70 39
70 75 0 36 -36 75 -70 75 -10 0 -29 -9 -44 -21z"/>
<path d="M7679 891 c-20 -20 -29 -39 -29 -61 0 -22 9 -41 29 -61 37 -37 79
-38 120 -3 25 20 31 34 31 64 0 30 -6 44 -31 64 -41 35 -83 34 -120 -3z"/>
<path d="M9891 864 c-152 -76 -186 -277 -67 -402 155 -165 436 -54 436 172 0
147 -108 255 -256 256 -45 0 -73 -6 -113 -26z m200 -87 c18 -12 44 -38 57 -57
20 -29 23 -44 20 -93 -5 -69 -27 -103 -88 -134 -56 -29 -96 -29 -150 0 -114
60 -117 220 -6 288 45 27 123 26 167 -4z"/>
<path d="M3499 771 c-20 -20 -29 -39 -29 -61 0 -45 47 -90 93 -90 91 0 121
125 40 168 -37 20 -73 14 -104 -17z"/>
<path d="M4116 749 c-36 -28 -36 -80 0 -108 15 -12 34 -21 44 -21 34 0 70 39
70 75 0 36 -36 75 -70 75 -10 0 -29 -9 -44 -21z"/>
<path d="M2141 694 c-27 -35 -27 -65 2 -92 48 -46 120 -16 120 50 0 64 -83 92
-122 42z"/>
<path d="M6036 689 c-19 -15 -26 -30 -26 -54 0 -36 36 -75 70 -75 34 0 70 39
70 75 0 36 -36 75 -70 75 -10 0 -29 -9 -44 -21z"/>
<path d="M9436 609 c-50 -39 -22 -122 42 -122 43 0 72 28 72 70 0 65 -61 93
-114 52z"/>
<path d="M10832 607 c-45 -48 -16 -120 48 -120 41 0 70 28 70 69 0 66 -74 98
-118 51z"/>
<path d="M6553 535 c-12 -8 -27 -31 -33 -49 -28 -85 72 -152 143 -96 34 27 43
70 23 109 -27 51 -88 67 -133 36z"/>
<path d="M5072 505 c-59 -25 -51 -107 11 -130 62 -21 118 52 80 103 -26 34
-53 42 -91 27z"/>
<path d="M3108 390 c-35 -27 -42 -53 -24 -88 25 -49 73 -56 111 -17 29 28 32
65 8 93 -27 32 -64 37 -95 12z"/>
<path d="M4425 386 c-29 -13 -55 -51 -55 -82 0 -32 31 -73 63 -83 63 -21 117
18 117 84 0 69 -62 109 -125 81z"/>
<path d="M10473 275 c-57 -25 -71 -93 -29 -142 19 -22 32 -28 66 -28 100 0
126 132 35 171 -40 16 -32 17 -72 -1z"/>
<path d="M1815 251 c-92 -39 -69 -175 30 -175 77 0 119 95 65 149 -29 27 -66
38 -95 26z"/>
<path d="M9146 215 c-44 -41 -34 -114 21 -143 57 -31 133 14 133 78 0 22 -9
41 -29 61 -38 38 -87 39 -125 4z"/>
</g>
</svg>
