<?xml version="1.0" standalone="no"?>
<!DOCTYPE svg PUBLIC "-//W3C//DTD SVG 20010904//EN"
 "http://www.w3.org/TR/2001/REC-SVG-20010904/DTD/svg10.dtd">
<svg version="1.0" xmlns="http://www.w3.org/2000/svg"
 width="1125.000000pt" height="900.000000pt" viewBox="0 0 1125.000000 900.000000"
 preserveAspectRatio="xMidYMid meet">
<metadata>
Created by potrace 1.13, written by Peter Selinger 2001-2015
</metadata>
<g transform="translate(0.000000,900.000000) scale(0.100000,-0.100000)"
fill="#000000" stroke="none">
<path d="M0 4500 l0 -4500 5625 0 5625 0 0 4500 0 4500 -5625 0 -5625 0 0
-4500z m320 4452 c0 -5 -61 -62 -135 -127 l-136 -118 22 -24 23 -23 30 28 c17
16 86 77 153 136 80 70 120 112 116 122 -4 12 13 14 105 14 l110 0 41 -70 c53
-89 151 -186 228 -227 249 -133 514 -51 688 213 l56 84 106 0 106 0 137 -135
136 -135 22 23 22 23 -105 104 c-58 58 -105 108 -105 113 0 4 89 6 198 5 l197
-3 0 -215 0 -215 -1145 0 -1145 0 -3 205 c-1 112 0 210 2 217 4 10 40 13 141
13 74 0 135 -4 135 -8z m995 -1 c-10 -17 -142 -41 -222 -41 -82 0 -210 23
-227 40 -7 7 66 10 223 10 139 0 230 -4 226 -9z m199 -43 c-28 -54 -153 -171
-217 -201 -150 -72 -305 -56 -447 49 -52 38 -157 160 -147 171 2 2 44 -10 93
-26 131 -42 215 -54 340 -49 109 5 152 17 349 91 47 18 53 11 29 -35z m1546
38 c-8 -7 -93 -66 -187 -130 -95 -65 -173 -120 -173 -124 1 -10 26 -42 33 -42
3 0 93 59 199 131 170 115 193 133 190 155 l-3 24 222 0 222 0 -55 -58 c-31
-32 -73 -84 -93 -116 -36 -56 -89 -166 -83 -171 2 -1 50 15 107 37 170 64 268
89 372 95 150 9 256 -20 512 -140 53 -26 97 -44 97 -42 0 3 -11 35 -25 72 -36
96 -97 194 -160 259 -30 31 -55 58 -55 60 0 7 475 4 485 -4 6 -4 55 -77 110
-162 54 -85 102 -159 106 -164 5 -5 19 -2 33 8 l25 16 -89 140 c-50 76 -93
146 -96 155 -5 13 35 15 365 15 l371 0 0 -220 0 -220 -1542 2 -1543 3 -3 205
c-1 112 0 210 2 217 4 10 77 13 338 13 283 0 330 -2 318 -14z m1014 -6 c23
-11 62 -38 87 -60 47 -40 147 -175 137 -185 -3 -3 -35 8 -71 24 -130 58 -225
83 -338 89 -122 5 -203 -6 -333 -48 -50 -16 -92 -27 -94 -25 -8 8 57 91 107
138 85 79 110 87 300 87 144 0 170 -2 205 -20z m1994 -42 c37 -34 108 -102
157 -150 l91 -89 23 24 22 24 -125 118 c-70 65 -126 122 -126 127 0 5 118 7
262 6 l262 -3 36 -60 c44 -74 146 -184 209 -224 83 -54 155 -74 261 -74 115
-1 182 21 282 89 75 51 128 109 186 205 l39 64 207 3 c113 1 206 -1 206 -6 0
-4 -72 -70 -161 -146 l-160 -139 22 -23 22 -23 111 97 c61 53 146 127 188 164
43 37 88 70 100 73 13 3 75 4 138 3 l115 -3 0 -215 0 -215 -1440 0 -1440 0 -3
205 c-1 112 0 210 2 217 4 10 56 13 227 13 l221 0 66 -62z m1296 53 c-16 -17
-126 -42 -209 -47 -60 -5 -105 -1 -179 14 -168 35 -146 42 139 42 163 0 255
-4 249 -9z m1596 -2 c0 -5 -39 -65 -86 -132 -48 -66 -87 -127 -88 -135 -1 -8
8 -20 19 -28 19 -13 27 -5 131 144 l111 157 201 3 c111 1 202 1 202 -1 0 -2
-20 -24 -44 -49 -24 -25 -58 -67 -75 -92 -36 -52 -104 -186 -98 -192 2 -2 59
17 128 42 351 130 487 123 837 -42 64 -30 117 -53 118 -51 6 6 -37 110 -73
179 -19 37 -62 96 -94 132 -33 35 -59 67 -59 70 0 4 89 5 197 4 l197 -3 102
-158 c56 -87 104 -161 107 -163 7 -7 47 19 47 30 0 5 -38 69 -85 141 -47 73
-85 137 -85 144 0 8 64 11 230 11 l230 0 0 -220 0 -220 -1262 2 -1263 3 -3
205 c-1 112 0 210 2 217 7 17 456 19 456 2z m1015 -4 c49 -20 140 -108 187
-179 21 -33 38 -63 38 -67 0 -4 -35 8 -77 27 -183 84 -359 111 -513 80 -47
-10 -125 -30 -173 -46 l-88 -28 17 26 c53 84 159 183 209 195 11 2 98 5 193 6
130 1 181 -3 207 -14z m1230 -205 l0 -215 -55 0 -55 0 -3 205 c-1 112 0 210 3
218 3 9 21 12 57 10 l53 -3 0 -215z m-3644 192 c-5 -9 -30 -45 -55 -79 -192
-262 -535 -261 -732 1 -25 32 -43 61 -40 63 2 3 42 -7 88 -22 244 -78 426 -71
643 24 83 36 110 40 96 13z m-6481 -817 l0 -345 -518 2 -517 3 -3 123 c-2 81
1 122 8 122 21 0 186 -68 279 -114 51 -26 95 -45 97 -43 7 7 -44 137 -73 187
-66 113 -170 215 -263 259 -47 21 -50 27 -50 94 l0 57 520 0 520 0 0 -345z
m2760 0 l0 -345 -1347 2 -1348 3 -3 343 -2 342 1350 0 1350 0 0 -345z m2840 0
l0 -345 -1385 0 -1385 0 0 345 0 345 1385 0 1385 0 0 -345z m3100 0 l0 -345
-1517 2 -1518 3 -3 343 -2 342 1520 0 1520 0 0 -345z m1430 296 l0 -48 -77 -6
c-90 -7 -173 -33 -173 -53 0 -7 -6 -11 -13 -8 -20 7 -102 -52 -167 -123 -37
-41 -78 -102 -110 -164 -28 -54 -48 -99 -46 -99 3 0 52 17 108 39 210 79 319
105 418 99 l55 -3 0 -135 0 -135 -682 -3 -683 -2 0 345 0 345 685 0 685 0 0
-49z m-22 -117 c22 -6 23 -10 20 -93 l-3 -86 -100 -6 c-56 -3 -116 -11 -135
-17 -19 -6 -77 -23 -127 -39 -51 -16 -93 -27 -93 -25 0 14 67 96 112 137 66
60 108 95 108 90 0 -2 17 3 38 12 58 24 142 37 180 27z m-11016 -115 c46 -39
146 -174 136 -184 -3 -3 -38 9 -79 26 -41 18 -99 40 -129 49 l-55 18 -3 72
c-4 101 -1 106 46 80 21 -12 59 -39 84 -61z m1948 -829 l0 -360 -1040 0 -1040
0 0 140 0 140 91 97 90 96 -20 21 -21 20 -63 -62 c-34 -34 -66 -62 -70 -62 -9
0 -9 314 0 323 3 4 471 7 1040 7 l1033 0 0 -360z m3030 0 l0 -360 -1485 0
-1485 0 0 360 0 360 1485 0 1485 0 0 -360z m2890 0 l0 -360 -1415 0 -1415 0 0
360 0 360 1415 0 1415 0 0 -360z m2800 0 l0 -360 -1370 0 -1370 0 0 360 0 360
1370 0 1370 0 0 -360z m368 133 l2 -223 -35 -38 -35 -39 23 -20 c12 -11 28
-18 35 -16 9 4 12 -16 12 -76 l0 -81 -150 0 -150 0 0 360 0 361 148 -3 147 -3
3 -222z m-10608 -988 l0 -425 -280 0 -280 0 0 425 0 425 280 0 280 0 0 -425z
m2710 0 l0 -425 -1325 0 -1325 0 0 425 0 425 1325 0 1325 0 0 -425z m2920 0
l0 -425 -1430 0 -1430 0 0 425 0 425 1430 0 1430 0 0 -425z m3030 0 l0 -425
-1485 0 -1485 0 0 425 0 425 1485 0 1485 0 0 -425z m1950 0 l0 -425 -945 0
-945 0 0 425 0 425 945 0 945 0 0 -425z m-9420 -815 l0 -320 -872 2 -873 3 -3
203 c-1 123 1 202 7 202 5 0 12 -9 16 -20 9 -27 84 -128 131 -174 116 -114
274 -169 422 -146 140 22 303 134 380 263 38 63 106 216 100 223 -3 2 -56 -20
-120 -50 -288 -136 -426 -159 -642 -105 -84 21 -263 85 -283 102 -8 6 -13 34
-13 73 l0 64 875 0 875 0 0 -320z m3010 0 l0 -320 -1470 0 -1470 0 0 320 0
320 1470 0 1470 0 0 -320z m2840 0 l0 -320 -1387 2 -1388 3 -3 318 -2 317
1390 0 1390 0 0 -320z m2788 3 l-3 -318 -1362 -3 -1363 -2 0 320 0 320 1365 0
1365 0 -2 -317z m780 0 l-3 -318 -357 -3 -358 -2 0 320 0 320 360 0 360 0 -2
-317z m-10248 68 c-37 -74 -145 -177 -227 -218 -187 -93 -412 -32 -547 147
-25 34 -46 66 -46 71 0 5 16 2 36 -6 20 -8 80 -27 133 -42 82 -23 115 -27 221
-27 139 1 227 21 370 87 41 19 76 33 78 32 2 -2 -6 -22 -18 -44z m-80 -896 l0
-445 -420 0 -420 0 0 268 c0 262 3 299 35 375 6 15 4 18 -11 15 -17 -3 -19 5
-22 101 -1 58 0 111 2 118 4 10 86 13 421 13 l415 0 0 -445z m2660 0 l0 -445
-1295 0 -1295 0 0 445 0 445 1295 0 1295 0 0 -445z m2810 0 l0 -445 -1375 0
-1375 0 0 445 0 445 1375 0 1375 0 0 -445z m3000 0 l0 -445 -1470 0 -1470 0 0
445 0 445 1470 0 1470 0 0 -445z m1855 295 l0 -145 -45 -22 c-88 -43 -215 -84
-292 -95 -128 -17 -282 15 -506 103 -40 16 -77 29 -83 29 -18 0 89 -193 138
-249 127 -145 299 -216 463 -190 36 6 69 14 75 20 5 5 16 9 25 9 23 0 130 70
185 121 l45 42 0 -182 0 -181 -900 0 -900 0 0 445 0 445 898 -2 897 -3 0 -145z
m5 -238 c0 -49 -107 -166 -200 -220 -25 -14 -47 -29 -50 -32 -9 -10 -64 -15
-160 -15 -85 0 -102 3 -160 31 -72 34 -165 114 -211 180 -16 23 -29 45 -29 47
0 3 47 -10 105 -29 130 -41 247 -59 339 -51 71 7 227 50 307 87 54 24 59 24
59 2z m-8940 -967 l0 -405 -1115 0 -1115 0 0 206 c0 113 4 203 8 200 5 -3 46
-64 92 -135 72 -114 85 -129 101 -121 10 6 21 15 24 20 4 6 -46 92 -109 191
l-116 182 0 127 c0 70 3 130 7 133 3 4 505 7 1115 7 l1108 0 0 -405z m3100 0
l0 -405 -1515 0 -1515 0 0 405 0 405 1515 0 1515 0 0 -405z m2838 -2 l2 -403
-1390 0 -1390 0 0 398 c0 219 3 402 7 405 3 4 628 6 1387 5 l1381 -3 3 -402z
m2672 2 l0 -405 -1305 0 -1305 0 0 398 c0 219 3 402 7 405 3 4 591 7 1305 7
l1298 0 0 -405z m328 -2 l2 -403 -130 0 -130 0 0 405 0 406 128 -3 127 -3 3
-402z m-10098 -868 l0 -405 -535 0 -535 0 0 120 c0 97 3 120 14 120 17 0 147
-55 235 -99 34 -18 65 -30 67 -28 8 7 -44 136 -77 195 -38 65 -136 172 -196
213 l-43 30 0 123 c0 67 3 126 7 129 3 4 244 7 535 7 l528 0 0 -405z m2760 0
l0 -405 -1345 0 -1345 0 0 405 0 405 1345 0 1345 0 0 -405z m2828 -2 l2 -403
-1380 0 -1380 0 0 405 0 405 1378 -2 1377 -3 3 -402z m3112 2 l0 -405 -1525 0
-1525 0 0 398 c0 219 3 402 7 405 3 4 690 7 1525 7 l1518 0 0 -405z m1398 306
c1 -52 1 -100 -2 -106 -3 -9 -21 -10 -63 -4 -63 9 -176 -4 -181 -21 -2 -6 -8
-7 -14 -4 -16 10 -129 -52 -186 -101 -29 -26 -72 -75 -97 -109 -46 -65 -111
-193 -102 -202 2 -3 38 8 78 24 122 49 259 89 343 102 81 12 191 6 214 -12 8
-8 12 -49 12 -144 l0 -134 -670 0 -670 0 0 398 c0 219 3 402 7 405 3 4 304 6
667 5 l661 -3 3 -94z m-24 -181 c25 -9 26 -12 26 -94 l0 -85 -93 6 c-104 6
-202 -9 -349 -57 l-88 -28 18 31 c49 86 173 188 269 223 44 15 180 18 217 4z
m-11066 -119 c51 -49 128 -158 118 -168 -3 -3 -47 13 -98 35 l-93 39 -3 72
c-4 87 5 90 76 22z m2012 -866 l0 -385 -1045 0 -1045 0 0 74 c0 69 2 76 27 95
l26 21 -26 49 -27 49 0 241 0 241 1045 0 1045 0 0 -385z m3100 0 l0 -385
-1520 0 -1520 0 0 385 0 385 1520 0 1520 0 0 -385z m2790 0 l0 -385 -1365 0
-1365 0 0 385 0 385 1365 0 1365 0 0 -385z m2760 0 l0 -385 -1350 0 -1350 0 0
385 0 385 1350 0 1350 0 0 -385z m430 229 c0 -168 -4 -177 -46 -99 -20 38 -30
42 -58 20 -18 -14 -16 -19 43 -112 l61 -97 0 -163 0 -163 -185 0 -185 0 0 385
0 385 185 0 185 0 0 -156z m-10332 -986 l-3 -313 -415 0 -415 0 -3 191 -2 191
35 91 c19 50 35 94 35 97 0 3 -13 -1 -29 -9 -16 -9 -31 -12 -35 -9 -8 8 -8 58
1 66 3 4 192 7 420 7 l413 0 -2 -312z m2660 0 l-3 -313 -1292 -3 -1293 -2 0
315 0 315 1295 0 1295 0 -2 -312z m2757 -3 l0 -310 -1345 0 -1345 0 -3 300
c-1 165 0 305 3 312 3 11 272 13 1347 11 l1343 -3 0 -310z m3050 0 l0 -310
-1490 0 -1490 0 -3 300 c-1 165 0 305 3 312 3 11 300 13 1492 11 l1488 -3 0
-310z m1860 245 c0 -64 0 -65 -35 -82 -93 -46 -225 -81 -322 -86 -133 -6 -213
12 -465 107 l-82 30 24 -56 c133 -300 390 -449 645 -373 68 20 169 79 204 118
11 12 23 22 28 22 5 0 7 -53 6 -117 l-3 -118 -895 0 -895 0 -3 313 -2 312 897
-2 898 -3 0 -65z m5 -174 c0 -59 -93 -154 -204 -207 -176 -85 -399 -17 -532
163 -24 34 -43 62 -42 64 2 1 54 -13 117 -32 131 -40 246 -54 346 -43 66 7
243 58 275 79 28 18 40 11 40 -24z m-8960 -771 l0 -325 -1102 2 -1103 3 -3
105 c-2 58 0 115 3 128 3 12 49 70 102 128 l96 105 -22 22 -22 22 -79 -85 -79
-85 -1 153 0 152 1105 0 1105 0 0 -325z m3120 0 l0 -325 -1530 0 -1530 0 0
325 0 325 1530 0 1530 0 0 -325z m2870 0 l0 -325 -1402 2 -1403 3 -3 323 -2
322 1405 0 1405 0 0 -325z m2650 0 l0 -325 -1295 0 -1295 0 0 325 0 325 1295
0 1295 0 0 -325z m320 116 c0 -195 -1 -210 -21 -234 l-20 -26 21 -29 c17 -23
21 -40 18 -88 l-3 -59 -122 -3 -123 -3 0 326 0 325 125 0 125 0 0 -209z
m-10172 -663 l-3 -163 -177 -3 -177 -2 -17 30 c-21 35 -22 35 -51 15 -13 -9
-20 -22 -17 -30 5 -13 -20 -15 -176 -15 l-182 0 -47 39 c-25 21 -68 52 -96 68
l-50 29 -3 84 c-2 46 -1 89 2 97 4 11 97 13 501 13 l495 0 -2 -162z m2810 0
l-3 -163 -172 -3 c-105 -1 -173 1 -173 7 0 5 17 23 37 40 l37 31 -21 22 -22
21 -46 -39 c-109 -91 -79 -84 -356 -84 -135 0 -249 3 -252 7 -4 3 -3 11 2 17
8 10 71 161 71 170 0 2 -62 -24 -138 -59 -226 -105 -275 -118 -427 -119 -148
-1 -208 12 -407 87 -65 25 -118 41 -118 36 0 -5 14 -36 30 -69 17 -33 30 -62
30 -65 0 -3 -102 -4 -227 -3 l-227 3 -36 51 c-19 29 -40 60 -46 70 -10 18 -12
18 -38 1 l-26 -18 30 -44 c16 -24 30 -48 30 -54 0 -7 -47 -11 -140 -11 l-140
0 0 165 0 165 1375 0 1375 0 -2 -162z m2840 0 l-3 -163 -130 -3 -129 -3 27 29
27 28 -24 23 c-16 15 -26 19 -31 11 -4 -6 -29 -29 -57 -50 l-50 -40 -319 0
-320 0 -62 50 c-165 135 -354 161 -532 76 -38 -18 -94 -54 -123 -80 l-54 -46
-305 0 -304 0 -59 62 -59 63 -23 -22 -22 -23 32 -33 c18 -18 32 -36 32 -40 0
-4 -64 -6 -142 -5 l-143 3 -3 163 -2 162 1390 0 1390 0 -2 -162z m3100 0 l-3
-163 -290 -3 c-159 -1 -299 0 -310 3 -11 3 -38 34 -60 70 -42 68 -49 73 -78
51 -17 -13 -16 -17 12 -64 17 -27 31 -52 31 -56 0 -3 -83 -6 -185 -6 -147 0
-185 3 -185 13 0 8 11 41 25 75 14 34 25 66 25 72 0 6 -42 -11 -92 -36 -51
-26 -133 -63 -183 -82 -89 -35 -93 -36 -260 -40 -202 -5 -241 1 -416 66 -74
27 -135 48 -137 46 -2 -1 8 -24 22 -52 14 -27 22 -52 19 -56 -9 -9 -323 -7
-323 2 0 4 9 13 20 20 24 15 25 30 4 53 -16 18 -19 16 -76 -31 l-60 -50 -267
2 -266 3 -3 163 -2 162 1520 0 1520 0 -2 -162z m1420 80 l3 -78 -70 0 c-91 0
-173 -19 -178 -41 -3 -10 -11 -15 -18 -13 -18 7 -58 -15 -129 -70 l-59 -46
-169 0 c-92 0 -168 2 -168 5 0 2 20 23 45 46 43 40 45 43 29 60 -10 11 -20 19
-25 19 -4 0 -42 -29 -84 -65 l-77 -65 -226 2 -227 3 -3 163 -2 162 677 -2 678
-3 3 -77z m-5786 -157 c56 -19 131 -62 143 -81 4 -7 -81 -10 -269 -10 -169 0
-276 4 -276 10 0 13 85 61 145 82 69 24 186 23 257 -1z m5776 10 c9 -5 12 -24
10 -52 l-3 -44 -168 -3 c-107 -1 -166 1 -162 7 13 23 101 73 149 86 57 15 154
19 174 6z"/>
<path d="M562 8292 l-22 -17 115 -179 c63 -98 116 -180 117 -182 2 -1 14 6 27
16 l25 18 -104 162 c-135 211 -129 204 -158 182z"/>
<path d="M2916 8333 c-211 -106 -342 -145 -486 -144 -110 0 -186 17 -374 86
-70 25 -130 44 -133 41 -3 -2 17 -46 43 -98 37 -72 67 -112 129 -174 118 -120
217 -164 370 -164 221 1 417 157 515 412 17 44 30 82 28 83 -2 2 -43 -17 -92
-42z m-49 -136 c-39 -66 -116 -146 -179 -188 -205 -132 -465 -67 -618 155 -18
28 -27 47 -18 44 66 -26 196 -61 272 -74 148 -26 289 -3 481 79 44 18 82 32
84 31 2 -2 -8 -23 -22 -47z"/>
<path d="M3227 8276 c-17 -13 -11 -26 98 -195 103 -160 119 -180 135 -171 11
6 22 14 25 20 7 11 -216 360 -230 360 -5 -1 -18 -7 -28 -14z"/>
<path d="M1560 8109 c-102 -88 -186 -164 -187 -167 -2 -4 5 -17 15 -29 l17
-22 185 160 c102 88 189 164 193 169 11 10 -10 50 -26 50 -7 0 -95 -73 -197
-161z"/>
<path d="M5141 8334 c-121 -32 -235 -115 -316 -229 -42 -59 -112 -192 -104
-199 2 -2 51 14 108 36 214 80 263 91 406 92 156 0 222 -18 434 -120 74 -35
136 -62 139 -60 6 7 -62 160 -100 223 -47 78 -162 185 -239 221 -112 52 -222
65 -328 36z m190 -54 c85 -16 172 -64 242 -134 60 -61 135 -175 106 -164 -251
103 -306 118 -441 118 -95 0 -181 -15 -303 -54 -43 -14 -81 -23 -84 -21 -8 8
50 83 103 134 59 55 137 99 211 117 63 16 99 17 166 4z"/>
<path d="M4268 8279 c-10 -5 -18 -15 -18 -20 0 -9 200 -329 221 -352 4 -5 18
-1 32 8 l26 16 -114 177 c-63 97 -117 178 -122 179 -4 1 -16 -2 -25 -8z"/>
<path d="M6230 8104 c-184 -160 -191 -167 -174 -185 9 -10 21 -19 26 -19 8 0
107 83 316 268 70 62 72 65 56 83 -9 11 -21 19 -25 19 -5 0 -94 -75 -199 -166z"/>
<path d="M8675 8318 c-123 -63 -261 -115 -354 -134 -142 -28 -274 -7 -512 81
-66 25 -122 45 -124 45 -2 0 9 -29 25 -65 89 -197 244 -334 424 -371 207 -44
428 69 553 283 26 45 83 178 83 194 0 14 -10 11 -95 -33z m-25 -94 c0 -3 -12
-26 -27 -52 -44 -75 -142 -165 -219 -203 -66 -32 -74 -34 -179 -34 -108 0
-113 1 -185 37 -41 21 -89 51 -107 67 -38 36 -123 139 -123 150 0 5 37 -4 83
-19 246 -83 408 -79 637 15 111 45 120 48 120 39z"/>
<path d="M7223 8121 c-176 -152 -191 -168 -179 -185 7 -11 17 -21 22 -23 5 -2
88 65 184 148 235 203 215 181 188 206 l-23 21 -192 -167z"/>
<path d="M9047 8276 c-17 -13 -11 -26 98 -195 103 -160 119 -180 135 -171 11
6 22 14 25 20 7 11 -216 360 -230 360 -5 -1 -18 -7 -28 -14z"/>
<path d="M10260 8110 c-102 -88 -186 -166 -188 -173 -1 -7 5 -20 15 -29 17
-15 27 -8 163 110 80 70 168 146 195 169 48 41 49 42 31 62 -11 12 -22 21 -25
21 -3 0 -89 -72 -191 -160z"/>
<path d="M698 7567 c-141 -49 -255 -157 -338 -319 -28 -54 -47 -98 -41 -98 5
0 49 16 99 35 357 138 514 132 857 -29 65 -31 120 -54 123 -51 7 6 -45 132
-81 194 -17 30 -62 88 -101 128 -56 60 -87 82 -155 116 -82 40 -91 42 -191 45
-89 2 -115 -1 -172 -21z m334 -80 c87 -42 161 -110 218 -198 22 -34 39 -64 37
-65 -2 -2 -45 14 -95 36 -244 106 -407 113 -662 31 -49 -16 -90 -27 -90 -24 0
2 13 24 29 47 63 92 188 182 284 207 18 4 71 7 119 6 76 -3 95 -7 160 -40z"/>
<path d="M1512 7518 l-21 -24 169 -169 170 -170 22 23 23 22 -171 170 -170
171 -22 -23z"/>
<path d="M4055 7549 c-192 -94 -279 -120 -416 -126 -103 -5 -128 -2 -218 21
-56 14 -153 46 -216 70 -63 24 -115 42 -115 41 0 -15 62 -135 96 -186 112
-169 268 -259 448 -259 229 1 425 162 526 433 12 32 20 60 18 61 -1 2 -57 -23
-123 -55z m-21 -126 c-15 -26 -50 -71 -77 -100 -185 -196 -439 -204 -633 -21
-51 48 -111 125 -103 132 2 2 38 -7 79 -20 139 -46 201 -57 315 -57 122 1 209
21 360 86 44 18 82 32 84 31 2 -2 -9 -25 -25 -51z"/>
<path d="M2598 7538 c-16 -5 -28 -13 -28 -16 0 -4 31 -92 69 -197 67 -187 68
-190 96 -188 15 1 29 4 31 5 2 3 -120 355 -138 399 -2 3 -15 2 -30 -3z"/>
<path d="M4530 7329 c-102 -88 -186 -166 -188 -173 -1 -7 5 -20 15 -28 17 -16
29 -7 203 143 102 88 189 165 194 169 9 9 -19 50 -33 50 -3 0 -89 -73 -191
-161z"/>
<path d="M6348 7571 c-104 -34 -199 -105 -274 -204 -49 -66 -122 -202 -112
-212 3 -3 59 14 124 39 347 130 492 122 841 -44 l122 -58 -23 62 c-76 201
-179 322 -341 398 -63 29 -80 33 -175 35 -81 2 -118 -1 -162 -16z m274 -62
c116 -39 232 -140 288 -249 l20 -40 -22 9 c-13 5 -49 21 -82 35 -153 69 -316
97 -451 76 -70 -11 -225 -53 -279 -75 -19 -8 -19 -8 0 24 110 189 337 284 526
220z"/>
<path d="M7486 7321 c-130 -173 -134 -179 -116 -196 10 -9 23 -15 29 -14 5 2
69 82 140 178 124 165 130 175 114 193 -9 10 -20 18 -24 18 -5 0 -69 -81 -143
-179z"/>
<path d="M5432 7471 l-23 -17 112 -174 c61 -96 114 -178 118 -182 3 -4 17 1
30 11 l24 19 -113 176 c-62 97 -116 178 -119 180 -4 3 -17 -3 -29 -13z"/>
<path d="M9875 7500 c-224 -108 -363 -140 -513 -120 -88 11 -220 50 -350 101
-40 16 -77 29 -83 29 -20 0 92 -198 146 -258 167 -184 398 -236 600 -135 76
38 150 99 202 167 65 86 153 278 127 275 -5 0 -63 -27 -129 -59z m5 -99 c-32
-63 -113 -155 -172 -194 -130 -86 -289 -101 -418 -41 -72 34 -165 113 -211
180 -16 23 -29 45 -29 48 0 3 26 -4 58 -15 139 -48 215 -63 332 -63 133 -1
191 12 350 78 58 24 106 44 108 45 1 1 -7 -17 -18 -38z"/>
<path d="M10320 7324 c-184 -160 -191 -167 -174 -185 9 -10 21 -19 26 -19 15
0 378 321 378 334 0 13 -20 36 -32 36 -4 0 -93 -75 -198 -166z"/>
<path d="M8327 7462 c-10 -10 -17 -21 -17 -24 0 -3 84 -81 186 -173 179 -162
186 -166 205 -149 10 9 19 20 19 24 0 7 -366 340 -373 340 -2 0 -11 -8 -20
-18z"/>
<path d="M270 6439 c-224 -193 -204 -173 -191 -198 7 -11 17 -21 22 -21 6 0
88 66 181 148 94 81 180 155 191 164 21 16 21 17 3 37 -11 12 -22 21 -25 21
-4 0 -85 -68 -181 -151z"/>
<path d="M1881 6729 c-140 -19 -280 -111 -370 -243 -35 -50 -104 -186 -98
-192 2 -3 59 16 125 40 349 130 491 124 825 -36 70 -34 129 -59 132 -57 9 9
-63 169 -104 233 -119 183 -318 282 -510 255z m241 -97 c81 -39 163 -112 218
-194 22 -33 40 -64 40 -69 0 -4 -29 5 -64 20 -141 64 -283 101 -387 101 -71 0
-204 -26 -304 -59 -49 -17 -91 -29 -92 -27 -8 7 90 126 129 158 106 84 179
110 303 105 77 -3 100 -8 157 -35z"/>
<path d="M922 6651 l-23 -17 112 -174 c61 -96 114 -178 118 -182 3 -4 17 1 30
11 l24 19 -113 176 c-62 97 -116 178 -119 180 -4 3 -17 -3 -29 -13z"/>
<path d="M2870 6499 c-238 -205 -219 -184 -193 -210 l21 -22 189 163 c103 90
191 166 196 170 4 3 -3 16 -16 28 l-23 22 -174 -151z"/>
<path d="M5667 6623 c-120 -217 -168 -305 -165 -308 10 -8 50 -26 53 -23 18
20 214 392 210 399 -4 5 -15 13 -25 19 -17 9 -25 -1 -73 -87z"/>
<path d="M5147 6651 c-138 -67 -257 -108 -358 -123 -120 -18 -261 10 -490 96
-53 20 -99 36 -102 36 -11 0 46 -116 90 -182 127 -194 338 -295 532 -254 201
42 353 186 441 417 22 59 24 69 13 68 -5 0 -61 -27 -126 -58z m1 -102 c-67
-119 -173 -211 -287 -250 -51 -17 -80 -21 -150 -17 -109 5 -195 42 -277 120
-49 46 -114 127 -114 142 0 2 39 -9 87 -25 132 -44 243 -62 343 -56 106 7 176
26 310 81 58 24 106 44 108 45 2 1 -7 -17 -20 -40z"/>
<path d="M3728 6666 c-10 -7 -18 -17 -18 -21 0 -8 205 -331 221 -349 5 -5 19
-2 33 7 l25 17 -116 180 c-64 99 -118 180 -122 180 -3 0 -14 -7 -23 -14z"/>
<path d="M7703 6745 c-177 -48 -335 -205 -413 -411 l-9 -24 67 26 c404 155
546 153 899 -16 68 -32 123 -54 123 -48 0 5 -14 44 -30 86 -118 294 -383 455
-637 387z m206 -56 c115 -26 234 -115 311 -232 21 -33 38 -62 37 -64 -2 -1
-52 18 -113 42 -158 65 -231 79 -378 72 -101 -4 -140 -11 -236 -40 -63 -20
-116 -34 -118 -33 -1 2 18 30 42 64 45 60 119 123 186 158 77 39 185 53 269
33z"/>
<path d="M6722 6611 l-24 -17 112 -175 c62 -96 115 -177 119 -181 3 -4 17 1
30 11 l24 19 -108 168 c-59 93 -113 174 -119 181 -8 9 -16 8 -34 -6z"/>
<path d="M8763 6477 c-122 -72 -222 -136 -222 -142 0 -5 6 -18 14 -28 13 -18
26 -12 227 109 117 70 218 131 225 136 9 7 9 16 1 34 -6 13 -14 24 -17 24 -3
0 -106 -60 -228 -133z"/>
<path d="M11043 6650 c-46 -22 -83 -45 -83 -52 0 -7 -12 -14 -27 -14 -16 -1
-75 -19 -133 -40 -98 -35 -112 -38 -220 -38 -131 0 -207 17 -403 90 -65 24
-120 44 -122 44 -2 0 8 -26 22 -57 171 -377 534 -502 820 -281 56 42 74 78 53
103 -11 13 -19 8 -62 -30 -172 -154 -412 -157 -579 -7 -52 46 -129 137 -129
151 0 4 37 -5 83 -20 254 -85 448 -76 669 29 46 22 84 39 86 37 2 -2 -11 -26
-28 -54 -31 -50 -39 -110 -15 -118 17 -5 95 122 131 213 18 46 30 84 26 83 -4
0 -44 -18 -89 -39z"/>
<path d="M9651 6572 l-22 -17 113 -177 c62 -98 118 -178 124 -178 5 0 19 6 29
14 17 13 12 24 -95 190 -62 97 -116 179 -120 181 -5 3 -18 -3 -29 -13z"/>
<path d="M1375 5718 c-88 -77 -173 -151 -189 -164 -27 -24 -28 -25 -11 -44 10
-11 22 -20 26 -20 4 0 94 75 199 166 184 160 190 167 174 185 -9 10 -22 19
-28 18 -6 0 -83 -63 -171 -141z"/>
<path d="M3250 5909 c-188 -20 -345 -146 -451 -361 -18 -37 -31 -70 -28 -73 3
-3 54 13 113 35 357 134 501 128 853 -40 l121 -58 -18 52 c-102 297 -335 473
-590 445z m182 -80 c116 -39 222 -129 283 -240 l26 -49 -83 36 c-254 109 -422
117 -678 35 l-89 -29 14 28 c23 45 111 136 165 170 108 70 246 88 362 49z"/>
<path d="M2245 5858 c-11 -6 -22 -12 -23 -14 -4 -3 204 -331 223 -352 10 -12
16 -12 34 0 12 7 20 18 19 24 -4 16 -222 354 -228 354 -3 0 -14 -6 -25 -12z"/>
<path d="M4234 5683 c-64 -98 -118 -183 -121 -189 -2 -6 7 -18 20 -27 l25 -16
121 185 c67 102 119 190 116 195 -4 5 -15 13 -25 19 -17 9 -32 -9 -136 -167z"/>
<path d="M6695 5860 c-312 -152 -451 -162 -764 -53 -86 30 -165 57 -175 60
-15 5 -8 -15 35 -98 242 -466 767 -457 990 16 41 87 56 136 43 134 -5 0 -63
-27 -129 -59z m6 -98 c-57 -111 -175 -215 -287 -252 -54 -18 -82 -22 -153 -18
-108 5 -189 40 -274 118 -50 46 -117 128 -117 144 0 2 39 -8 87 -25 260 -87
443 -76 703 44 30 14 56 26 58 26 1 1 -6 -16 -17 -37z"/>
<path d="M7145 5699 c-112 -98 -185 -168 -183 -177 2 -8 10 -19 19 -25 17 -10
44 12 327 261 70 62 72 65 56 83 -9 11 -21 19 -25 19 -4 0 -92 -73 -194 -161z"/>
<path d="M5251 5831 l-24 -18 108 -169 c60 -93 113 -174 119 -181 9 -9 16 -8
34 6 l24 17 -117 182 c-64 100 -117 182 -118 182 -1 0 -13 -9 -26 -19z"/>
<path d="M8920 5891 c-165 -53 -277 -157 -372 -345 -21 -43 -38 -79 -36 -81 2
-1 48 15 104 36 215 81 266 93 414 93 127 1 140 -1 230 -32 52 -18 150 -60
218 -92 l124 -60 -6 28 c-4 15 -30 74 -58 132 -106 215 -288 341 -493 339 -39
0 -95 -8 -125 -18z m219 -52 c114 -26 244 -124 310 -233 19 -31 32 -58 30 -60
-2 -2 -45 14 -96 35 -237 102 -425 107 -677 20 -33 -12 -61 -19 -64 -16 -8 8
68 103 116 146 52 46 142 95 200 108 51 12 129 12 181 0z"/>
<path d="M7931 5843 c-21 -18 -21 -18 85 -183 127 -198 125 -196 154 -180 12
7 19 17 16 26 -9 24 -221 353 -227 354 -4 0 -16 -8 -28 -17z"/>
<path d="M9926 5665 l-128 -165 24 -20 c28 -23 12 -38 163 159 94 122 116 157
108 170 -23 36 -42 20 -167 -144z"/>
<path d="M10670 5872 l-24 -19 25 -40 c63 -105 205 -323 209 -323 3 0 15 8 27
18 l22 17 -115 180 c-64 99 -117 181 -119 183 -1 1 -13 -6 -25 -16z"/>
<path d="M565 5002 c-22 -20 -107 -95 -188 -165 -143 -124 -148 -129 -131
-148 9 -10 21 -19 25 -19 5 0 94 75 199 166 184 160 191 167 174 185 -24 26
-33 24 -79 -19z"/>
<path d="M1445 4894 c-104 -90 -191 -168 -193 -172 -1 -5 7 -17 18 -27 20 -18
21 -18 43 2 12 11 94 82 182 158 88 75 166 143 173 149 10 10 8 16 -10 33
l-23 22 -190 -165z"/>
<path d="M3058 5023 c-10 -2 -18 -8 -18 -13 0 -10 148 -411 154 -417 6 -6 57
20 54 27 -2 4 -36 97 -77 208 -40 111 -79 201 -85 201 -6 -1 -19 -3 -28 -6z"/>
<path d="M2195 4995 c-172 -38 -303 -148 -401 -338 -25 -49 -44 -90 -42 -93 3
-2 58 16 124 40 353 131 494 124 842 -40 64 -30 117 -52 119 -50 2 2 -6 28
-17 57 -95 240 -265 398 -460 429 -79 12 -90 12 -165 -5z m268 -92 c79 -38
165 -115 219 -197 21 -33 38 -63 38 -67 0 -4 -35 8 -77 27 -146 67 -233 87
-373 88 -107 0 -139 -4 -225 -28 -55 -15 -115 -34 -132 -41 -18 -8 -33 -10
-33 -6 0 18 82 120 122 152 109 88 170 110 298 106 83 -2 104 -7 163 -34z"/>
<path d="M5415 4999 c-195 -94 -289 -122 -425 -127 -133 -4 -223 15 -418 88
-62 23 -115 40 -118 37 -13 -13 94 -193 151 -255 114 -124 238 -182 389 -182
222 1 418 157 516 412 17 44 30 81 28 83 -2 1 -57 -24 -123 -56z m-18 -122
c-88 -150 -256 -257 -404 -257 -117 0 -214 41 -306 129 -51 48 -126 141 -114
141 2 0 35 -11 75 -24 258 -88 436 -81 687 27 44 19 82 33 84 31 2 -2 -8 -23
-22 -47z"/>
<path d="M3960 5012 c-28 -22 -40 -1 134 -240 138 -189 139 -190 162 -175 13
8 24 18 24 22 0 5 -282 397 -294 409 -2 1 -13 -6 -26 -16z"/>
<path d="M5932 4863 l-193 -166 22 -23 22 -23 151 131 c269 233 242 205 221
228 -10 11 -21 20 -24 20 -4 0 -93 -75 -199 -167z"/>
<path d="M8864 4892 c-189 -164 -192 -166 -177 -189 9 -13 20 -22 25 -21 4 2
93 77 198 167 l189 163 -17 24 c-9 13 -19 23 -22 23 -3 0 -91 -75 -196 -167z"/>
<path d="M7717 5015 c-149 -41 -287 -161 -370 -322 -26 -50 -47 -95 -47 -101
0 -5 47 8 105 29 220 82 268 92 410 93 116 0 139 -3 215 -28 47 -15 145 -57
219 -92 74 -35 135 -64 137 -64 8 0 -39 118 -73 183 -49 93 -175 223 -254 261
-114 55 -237 70 -342 41z m194 -55 c120 -22 241 -111 321 -234 21 -33 37 -61
35 -62 -2 -2 -47 15 -101 37 -244 100 -423 106 -670 20 -33 -12 -63 -21 -68
-21 -17 0 51 86 111 142 113 105 234 144 372 118z"/>
<path d="M6652 5010 c-21 -9 -22 -12 -9 -42 7 -18 42 -104 77 -191 62 -153 65
-158 90 -152 14 4 27 8 29 10 6 6 -146 379 -155 381 -5 2 -19 -1 -32 -6z"/>
<path d="M9731 5023 l-23 -19 114 -177 c62 -97 118 -177 123 -177 6 1 18 7 28
15 18 13 12 24 -89 182 -133 208 -125 199 -153 176z"/>
<path d="M1388 4135 c-192 -94 -270 -117 -409 -123 -102 -4 -129 -1 -215 21
-55 14 -152 46 -216 70 -65 25 -118 43 -118 41 0 -3 16 -37 36 -77 122 -243
292 -367 505 -367 179 0 333 91 449 267 42 64 109 218 99 227 -2 2 -61 -25
-131 -59z m0 -106 c-32 -58 -143 -175 -195 -206 -172 -100 -371 -78 -520 60
-48 44 -118 135 -111 143 3 2 18 -1 34 -7 74 -29 193 -60 270 -70 138 -18 300
14 474 94 30 14 59 26 63 26 4 1 -3 -18 -15 -40z"/>
<path d="M1840 3919 c-102 -88 -188 -164 -193 -168 -4 -4 3 -17 15 -28 l23
-21 189 163 c103 90 191 166 194 169 5 6 -27 46 -37 46 -3 0 -89 -73 -191
-161z"/>
<path d="M3723 4155 c-130 -35 -246 -122 -328 -245 -41 -62 -100 -179 -93
-185 2 -1 50 15 107 37 213 80 263 91 406 92 116 0 139 -3 215 -28 47 -15 145
-57 219 -92 74 -35 136 -62 138 -60 6 5 -51 145 -78 191 -135 234 -367 349
-586 290z m188 -55 c70 -13 162 -59 221 -110 45 -39 145 -176 136 -186 -3 -2
-35 9 -71 25 -37 17 -104 43 -149 58 -76 25 -95 27 -233 27 -144 0 -155 -2
-265 -36 -63 -20 -116 -35 -118 -33 -8 7 58 92 105 137 57 53 135 96 208 114
63 16 99 17 166 4z"/>
<path d="M2721 4061 l-24 -18 108 -169 c59 -93 113 -174 119 -181 8 -9 16 -8
34 6 l24 17 -112 175 c-62 96 -115 177 -119 181 -3 4 -17 -1 -30 -11z"/>
<path d="M4905 3954 c-93 -58 -191 -118 -217 -134 -45 -28 -47 -31 -36 -55 6
-14 16 -24 23 -23 18 5 434 263 435 269 0 4 -8 16 -17 28 -18 21 -18 21 -188
-85z"/>
<path d="M7180 4103 c-63 -30 -162 -71 -220 -91 -96 -33 -115 -36 -220 -36
-131 -1 -206 16 -399 88 -64 24 -117 40 -119 35 -2 -5 18 -50 45 -101 95 -182
250 -304 422 -331 243 -37 488 138 595 426 14 37 22 67 18 66 -4 0 -59 -26
-122 -56z m-12 -115 c-13 -23 -55 -74 -94 -114 -183 -189 -434 -198 -620 -22
-48 45 -114 127 -114 141 0 2 38 -8 84 -24 256 -86 456 -76 691 36 73 34 79
32 53 -17z"/>
<path d="M7743 3953 c-192 -166 -192 -166 -175 -189 9 -13 20 -22 24 -21 3 1
92 76 197 167 176 152 189 166 177 184 -7 11 -17 21 -22 23 -5 1 -95 -72 -201
-164z"/>
<path d="M5753 4045 c-22 -15 -22 -16 88 -188 61 -94 115 -176 119 -180 8 -9
50 13 50 26 0 11 -219 351 -228 355 -4 1 -17 -5 -29 -13z"/>
<path d="M9421 4199 c-111 -22 -241 -108 -318 -212 -43 -59 -128 -215 -121
-223 2 -1 56 17 119 41 193 74 267 90 404 89 145 -1 218 -21 424 -120 74 -35
136 -62 138 -60 2 2 -8 34 -22 72 -112 299 -362 465 -624 413z m170 -59 c70
-13 162 -59 220 -109 45 -39 147 -176 138 -185 -2 -3 -55 15 -116 40 -234 94
-390 98 -636 19 -44 -15 -82 -24 -84 -21 -9 8 65 103 114 146 76 67 191 115
284 119 15 1 51 -4 80 -9z"/>
<path d="M8505 4110 c-17 -19 -14 -23 120 -165 76 -80 140 -145 142 -145 13 0
43 22 43 31 0 12 -269 299 -280 299 -4 0 -15 -9 -25 -20z"/>
<path d="M10413 3933 c-190 -165 -191 -166 -176 -190 9 -13 19 -22 24 -21 4 2
93 77 198 167 189 164 190 164 173 187 -9 13 -19 23 -22 23 -3 0 -91 -74 -197
-166z"/>
<path d="M540 3202 l-23 -19 24 -39 c85 -138 192 -300 203 -308 8 -6 21 -4 34
6 21 14 19 18 -95 194 -63 98 -116 180 -118 182 -1 1 -13 -6 -25 -16z"/>
<path d="M1503 3267 c-13 -5 -23 -14 -23 -20 0 -5 36 -108 81 -227 l81 -218
30 10 c16 6 27 15 25 22 -2 6 -39 106 -82 221 -42 116 -80 213 -84 216 -3 4
-16 2 -28 -4z"/>
<path d="M2795 3219 c-224 -111 -381 -145 -542 -119 -75 12 -268 71 -361 111
-24 11 -47 18 -49 15 -8 -8 75 -162 121 -223 272 -361 762 -263 936 188 16 43
30 81 30 84 0 10 -15 3 -135 -56z m15 -78 c0 -25 -112 -161 -167 -203 -89 -67
-159 -91 -263 -91 -104 0 -174 24 -263 91 -61 47 -156 157 -144 168 3 3 41 -6
84 -20 117 -39 208 -56 303 -56 112 0 197 19 328 73 120 50 122 50 122 38z"/>
<path d="M3241 3045 c-105 -92 -191 -170 -191 -174 0 -4 9 -16 19 -25 18 -17
26 -11 210 149 105 91 191 170 191 174 0 4 -8 16 -19 25 -18 16 -27 10 -210
-149z"/>
<path d="M5210 3281 c-116 -37 -198 -95 -276 -195 -52 -66 -131 -212 -121
-222 3 -3 62 15 132 41 198 72 280 88 410 82 123 -5 207 -29 355 -99 47 -22
109 -51 137 -64 l53 -24 -25 66 c-79 210 -223 362 -393 414 -81 25 -196 26
-272 1z m251 -61 c115 -35 205 -107 280 -222 21 -34 38 -63 36 -65 -2 -1 -39
12 -83 31 -253 110 -438 117 -698 27 -33 -12 -61 -19 -63 -17 -2 2 17 31 43
65 124 165 311 235 485 181z"/>
<path d="M4185 3240 c-16 -18 -17 -22 -4 -34 40 -37 384 -289 397 -290 7 0 20
8 28 19 13 20 3 29 -190 173 -112 84 -205 152 -208 152 -3 0 -13 -9 -23 -20z"/>
<path d="M6260 3053 c-91 -79 -178 -156 -194 -169 l-29 -25 21 -21 c25 -25 -1
-43 235 161 l178 154 -22 23 c-13 13 -23 24 -23 23 -1 0 -75 -66 -166 -146z"/>
<path d="M8720 3243 c-63 -30 -162 -71 -220 -91 -96 -33 -114 -36 -220 -36
-129 0 -216 20 -410 93 -57 22 -106 38 -109 35 -8 -8 58 -135 105 -201 124
-174 319 -264 503 -233 166 28 327 155 414 326 26 50 67 164 59 163 -4 0 -59
-25 -122 -56z m-16 -120 c-45 -77 -153 -179 -226 -213 -160 -75 -342 -47 -475
74 -46 42 -123 135 -123 149 0 3 39 -7 87 -24 261 -88 447 -77 698 40 33 15
62 27 63 25 2 -1 -9 -24 -24 -51z"/>
<path d="M7340 3079 c-273 -240 -249 -214 -223 -240 l21 -22 207 184 c114 101
216 191 226 199 18 14 18 17 4 38 -9 12 -19 22 -23 22 -4 0 -100 -81 -212
-181z"/>
<path d="M9181 3213 c-21 -18 -21 -18 85 -183 127 -198 125 -196 154 -180 12
7 19 17 16 26 -9 24 -221 353 -227 354 -4 0 -16 -8 -28 -17z"/>
<path d="M10220 3039 c-72 -88 -133 -166 -136 -173 -4 -12 32 -54 39 -45 2 2
62 76 134 164 71 88 133 166 137 173 9 15 -10 42 -30 42 -7 0 -72 -72 -144
-161z"/>
<path d="M668 2441 c-152 -50 -269 -162 -362 -348 -20 -40 -32 -73 -27 -73 5
0 51 16 103 36 216 82 366 111 488 94 98 -14 222 -56 373 -128 l125 -60 -25
67 c-72 192 -177 315 -333 390 -69 33 -83 36 -180 38 -81 2 -118 -1 -162 -16z
m312 -77 c94 -45 161 -102 219 -190 28 -42 50 -78 48 -80 -2 -3 -39 12 -82 31
-238 109 -419 118 -675 36 -49 -16 -90 -27 -90 -24 0 13 73 104 112 139 99 90
191 126 318 121 70 -2 97 -8 150 -33z"/>
<path d="M1780 2243 c-85 -74 -173 -150 -195 -169 l-39 -34 22 -22 c19 -20 23
-20 39 -7 55 46 331 286 351 304 l23 21 -23 21 -23 21 -155 -135z"/>
<path d="M4247 2425 c-190 -92 -279 -118 -412 -123 -131 -5 -218 13 -406 83
-68 25 -126 45 -131 45 -12 0 38 -108 79 -169 117 -178 273 -271 453 -271 232
0 428 160 530 433 12 32 20 60 18 61 -1 2 -60 -25 -131 -59z m-13 -122 c-37
-63 -115 -145 -175 -184 -163 -104 -365 -88 -513 42 -49 43 -126 134 -126 148
0 5 49 -7 109 -25 149 -45 259 -59 362 -45 82 11 212 50 309 94 30 13 57 23
59 21 2 -2 -9 -25 -25 -51z"/>
<path d="M2688 2382 l-27 -18 116 -179 c63 -99 116 -181 117 -182 1 -1 13 6
28 15 l26 17 -65 100 c-35 55 -88 137 -117 182 l-52 82 -26 -17z"/>
<path d="M4797 2328 c-19 -24 -80 -104 -137 -178 -56 -74 -107 -141 -113 -148
-13 -16 28 -62 42 -47 5 6 72 93 150 194 134 175 140 185 125 203 -24 25 -28
24 -67 -24z"/>
<path d="M6430 2417 c-36 -12 -85 -34 -110 -49 -57 -33 -153 -130 -197 -199
-38 -59 -86 -160 -79 -166 2 -2 61 16 131 42 197 71 280 88 410 83 131 -6 222
-33 419 -127 69 -33 126 -58 126 -57 0 20 -73 177 -107 230 -140 218 -379 316
-593 243z m328 -83 c53 -25 96 -56 137 -98 59 -61 132 -175 104 -163 -8 3 -52
22 -99 42 -230 99 -412 104 -662 19 -39 -13 -73 -22 -75 -20 -9 9 95 131 141
166 107 80 172 101 294 96 73 -3 94 -9 160 -42z"/>
<path d="M5624 2402 c-7 -5 7 -65 43 -187 29 -99 58 -197 64 -218 9 -36 13
-38 37 -32 15 4 28 8 30 10 2 2 -25 100 -59 219 -56 190 -66 216 -84 216 -11
0 -25 -4 -31 -8z"/>
<path d="M7528 2248 c-229 -145 -236 -151 -226 -174 6 -13 16 -24 21 -24 9 0
424 258 471 293 15 11 17 17 7 35 -6 12 -17 22 -24 21 -7 0 -119 -68 -249
-151z"/>
<path d="M9900 2400 c-332 -159 -475 -164 -843 -25 -55 20 -101 34 -104 31 -3
-2 17 -46 43 -97 64 -121 167 -232 261 -282 89 -46 139 -59 235 -59 203 0 382
127 488 347 53 109 66 145 53 145 -4 0 -64 -27 -133 -60z m-6 -117 c-48 -83
-140 -170 -223 -211 -72 -36 -79 -37 -181 -37 -102 0 -109 1 -181 37 -40 20
-95 57 -121 82 -46 44 -108 122 -108 136 0 4 47 -7 105 -26 244 -77 410 -68
645 35 47 21 87 36 89 35 2 -2 -9 -25 -25 -51z"/>
<path d="M8478 2292 c-131 -76 -240 -140 -242 -143 -3 -2 3 -15 13 -28 l18
-24 239 138 c132 76 241 139 243 141 6 6 -17 54 -26 54 -5 0 -115 -63 -245
-138z"/>
<path d="M10276 2395 c-10 -8 -16 -20 -13 -28 8 -21 218 -347 224 -347 12 0
43 22 43 31 0 12 -218 353 -228 356 -4 1 -15 -4 -26 -12z"/>
<path d="M401 1455 c-166 -145 -190 -169 -181 -185 6 -10 14 -21 19 -25 10 -6
391 320 391 334 0 4 -8 16 -19 25 -18 16 -27 10 -210 -149z"/>
<path d="M2070 1699 c-173 -22 -353 -176 -444 -383 -22 -50 -24 -58 -8 -53 9
3 89 31 177 61 191 65 291 82 401 66 99 -13 221 -55 369 -124 65 -31 120 -54
122 -52 9 9 -55 156 -97 220 -88 135 -241 246 -359 261 -25 3 -57 7 -71 9 -14
1 -54 -1 -90 -5z m252 -102 c85 -42 163 -112 220 -201 21 -32 37 -61 35 -63
-2 -2 -39 13 -82 32 -145 66 -235 88 -370 88 -123 1 -192 -12 -337 -62 -32
-11 -58 -18 -58 -15 0 15 64 95 112 140 98 92 182 125 314 121 82 -3 99 -7
166 -40z"/>
<path d="M1186 1625 c-10 -7 -16 -18 -15 -23 8 -21 224 -352 230 -352 4 0 16
8 27 18 20 17 19 19 -93 192 -62 96 -117 176 -122 177 -4 1 -16 -4 -27 -12z"/>
<path d="M3112 1444 c-106 -91 -192 -169 -192 -173 0 -5 9 -16 19 -25 19 -17
26 -13 210 146 104 89 190 168 190 174 1 6 -7 18 -17 27 -18 16 -29 8 -210
-149z"/>
<path d="M5465 1668 c-351 -179 -517 -189 -886 -50 -57 22 -105 35 -107 31 -2
-5 18 -50 45 -101 37 -71 67 -112 128 -173 173 -173 376 -210 585 -107 74 36
197 159 243 242 40 73 91 200 79 200 -4 -1 -43 -19 -87 -42z m-47 -130 c-36
-67 -164 -191 -228 -220 -167 -79 -342 -49 -481 80 -59 54 -128 142 -112 142
4 0 44 -12 88 -26 248 -79 415 -72 645 25 52 22 99 40 103 41 5 0 -2 -19 -15
-42z"/>
<path d="M4245 1592 c-22 -20 -107 -95 -188 -165 -143 -124 -148 -129 -131
-148 9 -10 21 -19 25 -19 5 0 94 75 199 166 184 160 191 167 174 185 -24 26
-33 24 -79 -19z"/>
<path d="M5732 1611 l-23 -16 113 -177 c62 -98 118 -178 124 -178 5 0 19 6 29
14 17 13 12 24 -95 190 -62 97 -116 178 -119 180 -4 3 -17 -3 -29 -13z"/>
<path d="M7647 1655 c-149 -41 -287 -161 -370 -323 -27 -51 -47 -96 -45 -101
2 -4 48 9 104 30 211 80 266 92 409 93 116 0 139 -3 215 -28 47 -15 145 -57
219 -92 74 -35 135 -63 137 -61 6 6 -64 168 -97 222 -45 74 -161 185 -231 219
-112 55 -236 70 -341 41z m194 -55 c121 -23 240 -108 319 -232 22 -33 39 -63
37 -64 -2 -2 -47 15 -101 37 -244 100 -423 106 -670 20 -33 -12 -63 -21 -68
-21 -17 0 51 86 111 142 113 105 235 144 372 118z"/>
<path d="M6879 1499 c-237 -205 -218 -184 -192 -210 l21 -22 191 164 c104 90
190 169 190 175 1 6 -7 18 -17 27 -17 16 -28 8 -193 -134z"/>
<path d="M8605 1636 c-18 -13 -13 -22 85 -176 137 -215 130 -206 158 -183 l22
18 -112 177 c-62 97 -118 177 -124 178 -5 0 -19 -6 -29 -14z"/>
<path d="M9841 1455 c-166 -145 -190 -169 -181 -185 6 -10 14 -21 19 -25 10
-6 391 320 391 334 0 4 -8 16 -19 25 -18 16 -27 10 -210 -149z"/>
<path d="M1380 968 c-367 -173 -500 -179 -871 -40 -57 22 -105 38 -107 37 -6
-5 55 -127 94 -187 81 -121 200 -209 329 -243 260 -67 525 102 640 409 14 38
24 70 23 71 -2 1 -50 -20 -108 -47z m-10 -86 c0 -22 -106 -156 -153 -193 -183
-146 -401 -140 -575 16 -50 45 -118 132 -110 140 2 2 44 -9 94 -25 130 -42
211 -53 333 -48 110 6 229 37 346 93 56 26 65 29 65 17z"/>
<path d="M1636 931 c-18 -20 -18 -21 12 -58 17 -21 92 -99 166 -173 l136 -135
22 23 23 22 -171 171 c-168 168 -170 170 -188 150z"/>
<path d="M3698 941 c-152 -49 -275 -166 -367 -350 -18 -34 -30 -65 -27 -68 3
-3 56 14 118 37 195 73 285 92 418 88 136 -5 227 -32 428 -128 139 -67 133
-71 80 58 -76 184 -238 334 -401 372 -67 15 -186 11 -249 -9z m231 -52 c108
-25 227 -110 295 -213 56 -84 57 -91 10 -70 -209 92 -354 123 -494 105 -74 -9
-233 -50 -304 -77 -56 -22 125 175 194 211 95 50 205 66 299 44z"/>
<path d="M4855 764 c-234 -202 -214 -180 -187 -206 l22 -22 27 25 c16 14 100
88 188 164 88 76 161 144 163 150 1 6 -5 19 -15 28 -18 15 -28 8 -198 -139z"/>
<path d="M2743 884 c-21 -15 -21 -16 89 -187 60 -95 114 -176 118 -180 9 -10
50 9 50 24 0 12 -218 353 -228 356 -4 1 -17 -5 -29 -13z"/>
<path d="M7280 924 c-63 -31 -162 -72 -220 -92 -98 -33 -114 -36 -225 -36
-136 -1 -226 20 -414 93 -58 22 -107 39 -109 37 -7 -8 78 -164 122 -223 201
-267 544 -295 774 -64 37 37 82 93 100 124 36 60 94 195 90 209 -2 4 -55 -17
-118 -48z m0 -80 c0 -19 -63 -108 -115 -160 -169 -171 -403 -186 -590 -37 -52
41 -142 149 -132 159 3 3 48 -8 99 -25 134 -42 215 -54 332 -49 105 6 227 39
341 93 53 25 65 28 65 19z"/>
<path d="M5836 907 c-10 -8 -17 -18 -15 -24 8 -19 224 -353 229 -353 3 0 15 8
27 18 l21 17 -112 174 c-62 96 -117 176 -122 178 -6 2 -18 -3 -28 -10z"/>
<path d="M7730 749 c-102 -88 -189 -164 -193 -169 -11 -10 10 -50 26 -50 12 1
380 315 384 328 2 4 -5 17 -15 29 l-17 22 -185 -160z"/>
<path d="M9367 965 c-169 -46 -308 -179 -403 -385 -13 -28 -22 -50 -21 -50 1
0 49 18 107 40 200 77 280 95 420 94 115 0 133 -3 220 -32 52 -18 150 -60 218
-92 69 -33 126 -60 128 -60 8 0 -51 142 -83 200 -51 92 -171 209 -253 247
-111 53 -231 66 -333 38z m192 -55 c78 -15 155 -56 223 -118 54 -50 144 -169
135 -179 -2 -2 -47 15 -101 37 -241 101 -422 107 -670 21 -33 -12 -63 -21 -68
-21 -15 0 48 84 104 139 104 102 242 147 377 121z"/>
<path d="M8520 922 l-23 -19 113 -177 c62 -97 118 -176 124 -176 6 0 19 7 29
14 16 13 9 27 -94 187 -61 96 -115 178 -119 182 -4 4 -17 -1 -30 -11z"/>
<path d="M10470 759 c-102 -89 -186 -166 -188 -173 -1 -7 5 -20 15 -29 17 -15
29 -6 203 144 102 88 189 164 194 169 9 9 -19 50 -33 50 -3 0 -89 -73 -191
-161z"/>
</g>
</svg>
