<?xml version="1.0" standalone="no"?>
<!DOCTYPE svg PUBLIC "-//W3C//DTD SVG 20010904//EN"
 "http://www.w3.org/TR/2001/REC-SVG-20010904/DTD/svg10.dtd">
<svg version="1.0" xmlns="http://www.w3.org/2000/svg"
 width="1125.000000pt" height="900.000000pt" viewBox="0 0 1125.000000 900.000000"
 preserveAspectRatio="xMidYMid meet">
<metadata>
Created by potrace 1.13, written by Peter Selinger 2001-2015
</metadata>
<g transform="translate(0.000000,900.000000) scale(0.100000,-0.100000)"
fill="#000000" stroke="none">
<path d="M0 4500 l0 -4500 5625 0 5625 0 0 4500 0 4500 -5625 0 -5625 0 0
-4500z m1180 4448 c0 -7 -7 -21 -14 -30 -12 -17 -51 -18 -565 -18 -481 0 -552
2 -557 15 -4 8 -4 22 0 30 5 13 77 15 571 15 445 0 565 -3 565 -12z m2910 5
c0 -5 -8 -18 -18 -31 l-17 -22 -1413 2 -1414 3 22 28 21 27 1410 0 c775 0
1409 -3 1409 -7z m2780 -5 c0 -7 -7 -21 -14 -30 -12 -17 -89 -18 -1365 -18
-743 0 -1351 4 -1351 8 0 5 9 18 20 30 l21 22 1344 0 c1070 0 1345 -3 1345
-12z m2750 3 c0 -5 -8 -18 -17 -30 l-18 -21 -1333 2 -1334 3 22 28 21 27 1330
0 c769 0 1329 -4 1329 -9z m1585 -21 l0 -25 -767 -3 c-423 -1 -768 2 -768 6 0
5 9 18 20 30 l21 22 747 -2 747 -3 0 -25z m-8268 -97 c-3 -5 -105 -174 -227
-378 -122 -203 -226 -376 -232 -383 -8 -9 -260 -12 -1222 -10 l-1211 3 0 245
0 246 85 142 85 142 1363 0 c750 0 1361 -3 1359 -7z m2664 -10 c-6 -10 -111
-184 -234 -388 l-224 -370 -1292 -3 c-926 -1 -1291 1 -1291 9 0 6 102 181 227
390 l228 379 1298 0 c1233 0 1297 -1 1288 -17z m2726 10 c-31 -57 -444 -743
-455 -755 -14 -17 -90 -18 -1334 -18 -725 0 -1318 3 -1318 6 0 3 104 179 232
390 l232 384 1323 0 c728 0 1322 -3 1320 -7z m2881 -169 l2 -170 -128 -215
-128 -214 -1502 -3 c-1078 -1 -1502 1 -1502 9 0 6 102 181 228 390 l227 379
1400 -2 1400 -3 3 -171z m0 -456 l-3 -143 -87 -3 c-49 -1 -88 0 -88 3 0 13
165 284 173 285 4 0 6 -64 5 -142z m-10086 -335 c-44 -71 -129 -210 -191 -311
l-113 -182 -386 2 -387 3 -3 308 -2 307 580 0 580 0 -78 -127z m3118 121 c0
-3 -84 -142 -187 -310 l-188 -304 -1482 0 c-816 0 -1483 3 -1483 6 0 4 84 143
187 310 l187 304 1483 0 c816 0 1483 -3 1483 -6z m2772 -71 c-27 -43 -113
-183 -191 -310 l-143 -233 -1370 0 -1370 0 14 23 c8 12 88 141 178 287 90 146
170 275 178 288 l14 22 1369 0 1369 0 -48 -77z m2671 46 c-10 -17 -95 -155
-188 -307 l-171 -277 -1286 -3 -1287 -2 191 310 191 310 1284 0 1284 0 -18
-31z m1525 -276 l-3 -308 -903 -3 c-513 -1 -902 2 -900 7 1 4 86 144 188 310
l185 301 718 0 717 0 -2 -307z m-10970 -395 c-8 -13 -52 -87 -97 -166 -46 -78
-87 -145 -92 -148 -10 -6 -13 319 -2 329 3 4 51 7 106 7 l99 0 -14 -22z m2882
15 c0 -5 -83 -150 -184 -323 l-184 -315 -1357 -3 -1357 -2 4 87 3 88 139 238
138 237 1399 0 c770 0 1399 -3 1399 -7z m2510 2 c0 -2 -92 -148 -204 -322
l-203 -318 -1202 -3 -1201 -2 29 47 c16 27 95 163 176 303 81 140 154 265 161
278 l14 22 1215 0 c668 0 1215 -2 1215 -5z m2743 -43 c-16 -26 -100 -172 -188
-325 l-160 -276 -1362 -1 c-750 0 -1363 2 -1363 5 0 2 77 125 172 272 94 148
187 292 205 321 l34 52 1345 0 1344 0 -27 -48z m2832 -232 l0 -275 -28 -47
-29 -48 -1524 0 c-838 0 -1524 2 -1524 5 0 2 84 148 186 325 l187 320 1366 -2
1366 -3 0 -275z m-9607 -464 c-7 -13 -112 -188 -233 -390 l-220 -366 -550 2
-550 3 -3 388 -2 387 785 0 786 0 -13 -24z m3120 15 c-1 -4 -106 -180 -232
-390 l-229 -381 -1514 0 c-1269 0 -1514 2 -1511 14 2 7 104 182 228 389 l225
376 1518 1 c849 0 1517 -4 1515 -9z m2289 -378 l-233 -388 -1218 -3 c-1117 -2
-1218 -1 -1212 14 7 17 433 731 449 752 7 9 265 12 1228 12 l1218 0 -232 -387z
m3023 381 c0 -3 -104 -179 -231 -390 l-230 -384 -1360 0 c-747 0 -1359 3
-1359 6 0 3 104 179 231 390 l230 384 1360 0 c747 0 1359 -3 1359 -6z m1178
-381 l-3 -388 -777 -3 c-428 -1 -778 1 -778 4 0 3 104 179 231 390 l230 384
550 0 549 0 -2 -387z m-8506 -815 l-218 -363 -1220 0 -1219 0 0 230 0 230 80
133 80 132 1357 0 1357 0 -217 -362z m2958 356 c0 -3 -97 -167 -216 -365
l-215 -359 -1335 0 c-745 0 -1334 4 -1332 9 2 4 99 169 217 365 l214 356 1333
0 c734 0 1334 -3 1334 -6z m2608 -18 c-7 -13 -105 -177 -218 -365 l-205 -341
-1268 0 c-1162 0 -1269 1 -1263 16 7 17 403 681 419 702 7 9 275 12 1279 12
l1269 0 -13 -24z m2940 -148 l-3 -173 -116 -190 -115 -190 -1528 -3 -1527 -2
23 38 c13 21 111 186 218 365 l195 326 1428 1 1428 0 -3 -172z m-2 -545 c-4
-9 -28 -13 -81 -13 -41 0 -75 3 -75 6 0 7 127 221 144 243 8 11 12 -16 14
-104 1 -66 0 -125 -2 -132z m-9915 -90 c-6 -10 -120 -191 -254 -403 l-243
-385 -377 -3 -377 -2 0 398 c0 219 3 402 7 405 3 4 287 7 630 7 591 0 623 -1
614 -17z m2967 -21 c-13 -21 -126 -203 -253 -405 l-230 -366 -1453 -1 c-817 0
-1452 4 -1450 9 2 4 116 187 253 405 l250 396 1453 0 1453 0 -23 -38z m2733
-24 c-22 -35 -136 -216 -254 -403 l-214 -340 -1338 -3 -1337 -2 23 39 c13 22
128 204 254 405 l230 365 1338 1 1337 0 -39 -62z m2736 48 c-3 -7 -117 -190
-253 -405 l-247 -391 -1313 0 c-723 0 -1314 2 -1314 5 0 3 113 185 252 405
l252 400 1314 0 c1114 0 1313 -2 1309 -14z m1481 -270 c2 -252 1 -278 -14
-272 -44 17 -61 16 -87 -4 -35 -28 -37 -80 -4 -110 22 -21 49 -23 90 -5 15 6
17 0 17 -64 l0 -71 -954 0 -954 0 255 405 256 405 696 -2 696 -3 3 -279z
m-8068 -601 c0 -2 -84 -140 -186 -305 l-186 -300 -1362 2 -1361 3 -3 127 c-3
148 -11 126 120 336 l90 142 1444 0 c794 0 1444 -2 1444 -5z m2480 0 c0 -2
-86 -140 -192 -305 l-191 -300 -1195 0 c-1030 0 -1193 2 -1189 14 5 12 238
391 344 559 l23 37 1200 0 c660 0 1200 -2 1200 -5z m2688 -3 c-1 -5 -86 -142
-187 -305 l-184 -297 -1310 0 c-1100 0 -1308 2 -1304 14 3 7 78 127 168 267
89 140 172 271 186 292 l23 37 1306 0 c718 0 1304 -4 1302 -8z m2900 -194 l-3
-203 -54 -85 c-29 -47 -60 -93 -69 -102 -14 -17 -100 -18 -1540 -18 -1381 0
-1524 1 -1518 16 5 13 241 397 332 542 l34 52 1410 0 1411 0 -3 -202z m-9608
-474 c0 -3 -91 -158 -202 -345 l-202 -339 -576 2 -575 3 -3 343 -2 342 780 0
c429 0 780 -2 780 -6z m3098 -3 c-1 -5 -93 -160 -203 -345 l-200 -336 -1513 0
c-832 0 -1511 3 -1509 8 8 15 380 638 393 660 l14 22 1511 0 c901 0 1509 -4
1507 -9z m2560 -13 c-8 -13 -101 -168 -207 -345 l-192 -323 -1245 0 c-685 0
-1243 3 -1241 8 12 22 364 613 384 645 l23 37 1246 0 1246 0 -14 -22z m2760 0
c-8 -13 -101 -168 -206 -345 l-192 -323 -1340 0 c-737 0 -1340 3 -1340 7 0 4
91 159 202 345 l201 338 1345 0 1344 0 -14 -22z m1190 -190 c-3 -159 -7 -221
-18 -245 -12 -29 -12 -37 0 -65 7 -18 14 -62 14 -98 l1 -65 -752 -3 c-414 -1
-753 1 -753 4 0 4 91 159 202 345 l202 339 553 0 554 0 -3 -212z m-8251 -552
c-3 -7 -101 -169 -218 -360 l-212 -346 -1244 0 -1244 0 3 298 3 297 40 62 40
63 1419 0 c1200 0 1417 -2 1413 -14z m2623 7 c-1 -5 -104 -165 -229 -358
l-228 -350 -434 -5 c-239 -3 -806 -3 -1260 0 l-826 5 220 358 219 357 1269 0
c698 0 1269 -3 1269 -7z m2720 1 c0 -3 -98 -165 -217 -360 l-217 -354 -1333 0
c-733 0 -1333 2 -1333 5 0 2 104 164 231 360 l231 355 1319 0 c725 0 1319 -3
1319 -6z m2905 -99 l0 -100 -158 -255 -157 -255 -658 -5 c-361 -3 -1025 -3
-1474 0 l-816 5 199 325 c110 179 208 340 219 358 l19 32 1413 -2 1413 -3 0
-100z m5 -420 l0 -195 -125 0 -125 0 93 153 c126 205 146 237 152 237 3 0 5
-88 5 -195z m-10050 -272 c0 -3 -111 -194 -247 -425 l-248 -418 -312 0 -313 0
0 425 0 425 560 0 c308 0 560 -3 560 -7z m2794 -418 l-255 -425 -1480 0 c-814
0 -1478 3 -1476 8 14 24 408 691 449 760 l49 82 1484 0 1484 0 -255 -425z
m2709 163 c-85 -145 -198 -336 -250 -425 l-96 -163 -1269 0 c-697 0 -1268 3
-1268 6 0 3 113 194 250 425 l250 419 1270 0 1269 0 -156 -262z m2857 256 c0
-3 -111 -194 -247 -425 l-248 -419 -1318 0 -1319 0 20 33 c11 17 109 183 217
367 109 184 213 361 232 393 l34 57 1315 0 c723 0 1314 -3 1314 -6z m1690
-419 l0 -425 -1056 0 -1056 0 28 48 c64 109 447 759 460 780 l14 22 805 0 805
0 0 -425z m-8681 -517 c-20 -37 -340 -560 -361 -591 l-19 -27 -1052 2 -1052 3
0 99 0 99 35 2 c39 3 70 35 70 72 0 34 -42 73 -80 73 l-30 0 0 145 0 145 1250
0 1251 0 -12 -22z m2794 10 c-4 -7 -91 -150 -194 -318 l-187 -305 -1357 -3
-1357 -2 29 48 c15 27 102 171 193 320 l165 271 1358 1 c1084 0 1357 -3 1350
-12z m2657 6 c0 -3 -87 -147 -192 -320 l-192 -314 -1288 0 c-709 0 -1288 3
-1288 6 0 3 86 147 192 320 l192 314 1288 0 c708 0 1288 -2 1288 -6z m2793
-314 l-196 -320 -1448 0 c-892 0 -1449 4 -1449 9 0 7 283 477 366 609 l14 22
1454 0 1454 0 -195 -320z m435 3 l-3 -318 -274 -3 c-251 -2 -273 -1 -267 14 4
9 90 154 192 320 l186 304 84 0 84 0 -2 -317z m-9818 -388 c0 -3 -13 -26 -29
-52 -16 -27 -31 -54 -33 -62 -2 -8 -10 -22 -18 -32 -8 -9 -23 -29 -33 -43
l-19 -27 -286 5 c-158 3 -305 5 -327 4 -22 0 -166 -1 -320 -2 l-280 -1 -3 94
c-1 52 -1 100 2 108 4 11 128 13 676 13 368 0 670 -2 670 -5z m2985 -22 c-38
-57 -57 -94 -52 -99 3 -3 -5 -15 -17 -28 -11 -12 -29 -32 -39 -45 l-17 -22
-358 5 c-196 3 -373 5 -392 5 -19 0 -305 -3 -635 -5 l-600 -5 -43 23 -43 23
-39 -22 c-39 -23 -43 -23 -414 -23 -321 0 -376 2 -376 14 0 8 5 18 11 22 6 3
9 15 6 25 -3 11 0 19 7 19 7 0 30 31 52 70 l39 70 1464 0 1463 0 -17 -27z
m2835 22 c0 -3 -13 -26 -29 -52 -16 -27 -31 -54 -33 -62 -2 -8 -10 -22 -18
-32 -8 -9 -23 -29 -33 -43 l-19 -27 -326 5 c-180 3 -343 5 -362 5 -19 0 -303
-3 -630 -5 l-595 -5 -43 23 -42 23 -43 -23 c-41 -22 -49 -22 -369 -22 -181 0
-328 4 -328 8 0 5 6 17 14 28 10 13 11 23 4 31 -8 10 -6 13 5 13 9 0 34 30 58
70 l41 70 1374 0 c756 0 1374 -2 1374 -5z m2639 -32 c-13 -21 -29 -48 -37 -60
-7 -12 -11 -27 -7 -33 3 -5 1 -10 -4 -10 -6 0 -22 -18 -36 -41 l-26 -40 -207
5 c-114 3 -223 5 -242 5 -19 0 -305 -3 -635 -5 l-600 -5 -43 23 -43 23 -39
-23 c-38 -22 -44 -22 -399 -22 -308 0 -361 2 -361 14 0 8 5 18 11 22 6 3 9 15
6 25 -3 11 0 19 7 19 7 0 30 31 52 70 l39 70 1293 0 1294 0 -23 -37z m1356
-73 l0 -105 -255 -3 c-250 -3 -256 -3 -298 20 l-43 23 -39 -22 c-38 -23 -44
-23 -394 -23 -196 0 -356 3 -356 8 0 4 7 16 15 26 10 13 12 23 5 31 -8 9 -5
14 8 17 10 3 36 35 57 72 l39 66 631 -2 630 -3 0 -105z"/>
<path d="M910 8683 c-55 -70 42 -151 105 -88 30 29 32 64 5 93 -30 32 -82 30
-110 -5z"/>
<path d="M2253 8688 c-68 -33 -40 -138 37 -138 28 0 70 44 70 73 0 51 -61 88
-107 65z"/>
<path d="M202 8327 c-43 -46 -15 -120 46 -120 43 0 72 28 72 70 0 66 -74 97
-118 50z"/>
<path d="M1521 8304 c-12 -15 -21 -34 -21 -44 0 -10 9 -29 21 -44 41 -52 122
-23 122 44 0 67 -81 96 -122 44z"/>
<path d="M3657 8692 c-23 -25 -21 -78 3 -102 61 -61 154 27 104 98 -20 28 -83
31 -107 4z"/>
<path d="M4986 8679 c-36 -28 -36 -80 0 -108 15 -12 34 -21 44 -21 10 0 29 9
44 21 34 27 35 71 1 104 -30 30 -54 31 -89 4z"/>
<path d="M2945 8325 c-40 -39 -29 -95 22 -113 78 -27 136 76 70 123 -31 22
-65 18 -92 -10z"/>
<path d="M4265 8310 c-41 -45 -10 -120 50 -120 38 0 75 35 75 71 0 58 -87 91
-125 49z"/>
<path d="M6216 8688 c-36 -51 -5 -118 54 -118 59 0 90 67 54 118 -11 16 -25
22 -54 22 -29 0 -43 -6 -54 -22z"/>
<path d="M7546 8679 c-19 -15 -26 -30 -26 -54 0 -36 36 -75 70 -75 34 0 70 39
70 75 0 36 -36 75 -70 75 -10 0 -29 -9 -44 -21z"/>
<path d="M6829 8312 c-48 -40 -17 -122 47 -122 66 0 98 74 51 118 -28 27 -67
28 -98 4z"/>
<path d="M9236 8688 c-50 -71 43 -159 104 -98 26 26 26 81 2 103 -28 25 -87
22 -106 -5z"/>
<path d="M10566 8679 c-19 -15 -26 -30 -26 -54 0 -36 36 -75 70 -75 34 0 70
39 70 75 0 36 -36 75 -70 75 -10 0 -29 -9 -44 -21z"/>
<path d="M8537 8339 c-28 -16 -40 -58 -26 -90 21 -53 104 -55 128 -3 16 37 14
52 -14 79 -25 26 -58 31 -88 14z"/>
<path d="M9852 8314 c-16 -11 -22 -25 -22 -54 0 -29 6 -43 22 -54 51 -36 118
-5 118 54 0 59 -67 90 -118 54z"/>
<path d="M458 7824 c-51 -27 -46 -101 7 -126 58 -26 119 33 95 91 -6 16 -23
33 -36 40 -31 14 -33 14 -66 -5z"/>
<path d="M2525 7840 c-26 -29 -24 -79 4 -102 70 -56 164 39 101 102 -26 26
-81 26 -105 0z"/>
<path d="M1625 7625 c-40 -39 -29 -97 22 -116 36 -13 78 5 93 40 31 75 -58
134 -115 76z"/>
<path d="M3321 7584 c-27 -35 -26 -59 4 -89 33 -34 77 -33 104 1 12 15 21 34
21 44 0 34 -39 70 -75 70 -24 0 -39 -7 -54 -26z"/>
<path d="M6390 7827 c-52 -26 -49 -104 4 -128 81 -37 138 73 64 125 -27 19
-35 20 -68 3z"/>
<path d="M4512 7783 c-32 -27 -37 -64 -12 -96 28 -35 80 -37 110 -5 58 63 -32
156 -98 101z"/>
<path d="M5440 7583 c-53 -19 -68 -86 -28 -123 63 -58 157 33 101 98 -20 23
-50 33 -73 25z"/>
<path d="M8177 7842 c-25 -28 -22 -87 5 -106 71 -50 159 43 98 104 -26 26 -81
26 -103 2z"/>
<path d="M7287 7639 c-48 -28 -40 -107 12 -129 75 -31 134 58 76 115 -25 26
-58 31 -88 14z"/>
<path d="M8975 7590 c-42 -47 -8 -120 55 -120 33 0 70 40 70 74 0 57 -86 89
-125 46z"/>
<path d="M10020 7780 c-26 -26 -26 -81 -2 -103 44 -40 122 -7 122 51 0 60 -78
94 -120 52z"/>
<path d="M10943 7580 c-48 -19 -58 -87 -17 -119 53 -41 114 -13 114 52 0 51
-50 86 -97 67z"/>
<path d="M2440 7167 c-52 -26 -49 -104 4 -128 81 -37 138 73 64 125 -27 19
-35 20 -68 3z"/>
<path d="M722 7117 c-45 -48 -14 -117 51 -117 42 0 67 26 67 68 0 65 -74 96
-118 49z"/>
<path d="M1638 6914 c-51 -27 -46 -101 7 -126 58 -26 119 33 95 91 -6 16 -23
33 -36 40 -31 14 -33 14 -66 -5z"/>
<path d="M4227 7182 c-40 -44 -7 -122 51 -122 60 0 94 78 52 120 -26 26 -81
26 -103 2z"/>
<path d="M3337 6979 c-48 -28 -40 -107 12 -129 75 -31 134 58 76 115 -25 26
-58 31 -88 14z"/>
<path d="M5025 6930 c-26 -29 -24 -79 4 -102 70 -56 164 39 101 102 -26 26
-81 26 -105 0z"/>
<path d="M7597 7160 c-35 -28 -37 -80 -5 -110 29 -27 64 -25 93 5 63 63 -18
160 -88 105z"/>
<path d="M5889 7122 c-28 -23 -30 -73 -4 -102 25 -27 78 -27 105 2 26 28 26
58 -1 92 -25 31 -66 35 -100 8z"/>
<path d="M6820 6923 c-55 -20 -68 -87 -24 -122 15 -12 34 -21 44 -21 33 0 70
39 70 74 0 46 -49 84 -90 69z"/>
<path d="M9787 7229 c-48 -28 -40 -107 12 -129 75 -31 134 58 76 115 -25 26
-58 31 -88 14z"/>
<path d="M8870 7000 c-63 -63 31 -158 101 -102 28 23 30 73 4 102 -24 26 -79
26 -105 0z"/>
<path d="M10575 6965 c-40 -39 -29 -97 22 -116 58 -22 116 36 94 94 -19 51
-77 62 -116 22z"/>
<path d="M882 6417 c-43 -46 -15 -120 46 -120 43 0 72 28 72 70 0 66 -74 97
-118 50z"/>
<path d="M200 6073 c-53 -19 -68 -86 -28 -123 63 -59 157 32 101 98 -20 23
-50 33 -73 25z"/>
<path d="M2486 6439 c-19 -15 -26 -30 -26 -54 0 -37 37 -75 72 -75 27 0 68 45
68 75 0 30 -41 75 -68 75 -11 0 -31 -9 -46 -21z"/>
<path d="M3800 6420 c-26 -26 -26 -81 0 -105 11 -10 34 -18 52 -17 65 2 92 82
42 121 -34 26 -68 27 -94 1z"/>
<path d="M1762 6067 c-28 -29 -28 -57 -1 -91 41 -52 122 -23 122 44 0 65 -76
95 -121 47z"/>
<path d="M3110 6067 c-13 -7 -31 -24 -39 -38 -30 -53 36 -117 94 -91 55 25 58
100 5 127 -35 18 -29 18 -60 2z"/>
<path d="M5366 6439 c-19 -15 -26 -30 -26 -54 0 -36 36 -75 70 -75 34 0 70 39
70 75 0 36 -36 75 -70 75 -10 0 -29 -9 -44 -21z"/>
<path d="M6569 6422 c-15 -13 -22 -30 -22 -51 0 -66 76 -98 123 -51 27 27 25
66 -5 95 -29 30 -64 32 -96 7z"/>
<path d="M4641 6064 c-12 -15 -21 -34 -21 -44 0 -34 39 -70 75 -70 36 0 75 36
75 70 0 34 -39 70 -75 70 -24 0 -39 -7 -54 -26z"/>
<path d="M5879 6068 c-16 -5 -32 -22 -39 -39 -35 -84 84 -137 129 -58 31 55
-28 118 -90 97z"/>
<path d="M7996 6439 c-19 -15 -26 -30 -26 -54 0 -36 36 -75 70 -75 34 0 70 39
70 75 0 36 -36 75 -70 75 -10 0 -29 -9 -44 -21z"/>
<path d="M9312 6417 c-43 -46 -15 -120 46 -120 43 0 72 28 72 69 0 66 -74 98
-118 51z"/>
<path d="M7271 6064 c-12 -15 -21 -34 -21 -44 0 -34 39 -70 75 -70 36 0 75 36
75 70 0 34 -39 70 -75 70 -24 0 -39 -7 -54 -26z"/>
<path d="M8630 6073 c-51 -19 -68 -85 -30 -123 61 -61 159 33 103 98 -20 23
-50 33 -73 25z"/>
<path d="M10846 6439 c-26 -20 -36 -69 -18 -95 10 -15 47 -34 67 -34 25 0 65
46 65 75 0 30 -41 75 -68 75 -11 0 -31 -9 -46 -21z"/>
<path d="M10120 6068 c-27 -29 -25 -69 3 -96 48 -45 120 -16 120 48 0 64 -79
95 -123 48z"/>
<path d="M880 5600 c-42 -42 -8 -120 53 -120 58 0 91 85 49 123 -25 23 -78 21
-102 -3z"/>
<path d="M2205 5585 c-34 -33 -33 -77 1 -104 15 -12 34 -21 44 -21 34 0 70 39
70 75 0 24 -7 39 -26 54 -35 27 -59 26 -89 -4z"/>
<path d="M173 5245 c-43 -30 -38 -88 12 -121 21 -14 30 -14 55 -4 55 23 66 75
25 115 -27 28 -61 32 -92 10z"/>
<path d="M1490 5220 c-28 -28 -27 -84 2 -104 51 -36 118 -5 118 54 0 38 -32
70 -70 70 -17 0 -39 -9 -50 -20z"/>
<path d="M3696 5604 c-43 -43 -19 -116 41 -122 62 -6 101 62 63 111 -25 31
-78 37 -104 11z"/>
<path d="M5030 5597 c-52 -26 -49 -104 4 -128 36 -17 73 -3 92 32 19 38 6 80
-32 98 -31 14 -33 14 -64 -2z"/>
<path d="M2982 5240 c-48 -45 -16 -123 50 -123 64 0 92 83 42 122 -34 27 -64
27 -92 1z"/>
<path d="M4300 5220 c-45 -45 -11 -120 53 -120 42 0 67 26 67 68 0 41 -31 72
-70 72 -17 0 -39 -9 -50 -20z"/>
<path d="M6326 5604 c-43 -43 -19 -116 41 -122 62 -6 101 62 63 111 -25 31
-78 37 -104 11z"/>
<path d="M7660 5597 c-52 -26 -49 -104 4 -128 36 -17 73 -3 92 32 19 38 6 80
-32 98 -31 14 -33 14 -64 -2z"/>
<path d="M6930 5220 c-45 -45 -11 -120 53 -120 43 0 67 26 67 73 0 26 -6 40
-22 51 -31 22 -74 20 -98 -4z"/>
<path d="M9341 5594 c-12 -15 -21 -35 -21 -46 0 -27 45 -68 75 -68 30 0 75 41
75 68 0 35 -38 72 -75 72 -24 0 -39 -7 -54 -26z"/>
<path d="M10680 5597 c-52 -26 -49 -104 5 -129 58 -26 119 33 95 91 -6 16 -23
33 -36 40 -31 14 -33 14 -64 -2z"/>
<path d="M8632 5237 c-45 -48 -16 -120 48 -120 65 0 95 76 47 121 -30 28 -68
28 -95 -1z"/>
<path d="M9952 5217 c-45 -48 -14 -117 51 -117 42 0 70 29 70 72 0 61 -78 91
-121 45z"/>
<path d="M535 4765 c-28 -27 -31 -45 -14 -78 16 -30 28 -37 66 -37 41 0 77 42
68 80 -14 58 -78 78 -120 35z"/>
<path d="M2145 4798 c-28 -16 -35 -28 -35 -65 0 -35 37 -73 72 -73 27 0 68 45
68 75 0 30 -41 75 -67 75 -10 0 -27 -6 -38 -12z"/>
<path d="M3449 4772 c-28 -23 -30 -73 -4 -102 24 -26 79 -26 105 0 63 63 -31
158 -101 102z"/>
<path d="M1410 4420 c-63 -63 31 -158 101 -102 28 23 30 73 4 102 -24 26 -79
26 -105 0z"/>
<path d="M2753 4418 c-81 -39 -20 -167 62 -130 55 25 58 100 5 127 -33 17 -37
17 -67 3z"/>
<path d="M4986 4789 c-36 -28 -36 -80 0 -108 35 -27 59 -26 89 4 34 33 33 77
-1 104 -15 12 -34 21 -44 21 -10 0 -29 -9 -44 -21z"/>
<path d="M6136 4539 c-19 -15 -26 -30 -26 -54 0 -36 36 -75 70 -75 34 0 70 39
70 75 0 36 -36 75 -70 75 -10 0 -29 -9 -44 -21z"/>
<path d="M4260 4418 c-26 -28 -26 -58 1 -92 39 -50 122 -22 122 42 0 66 -78
98 -123 50z"/>
<path d="M5603 4418 c-81 -39 -20 -167 62 -130 55 25 58 100 5 127 -33 17 -37
17 -67 3z"/>
<path d="M7715 4785 c-40 -39 -29 -97 22 -116 84 -32 137 93 56 130 -36 16
-51 14 -78 -14z"/>
<path d="M9032 4767 c-45 -48 -14 -117 51 -117 43 0 70 29 69 72 -2 63 -77 91
-120 45z"/>
<path d="M6997 4422 c-25 -28 -22 -87 5 -106 71 -50 159 43 98 104 -26 26 -81
26 -103 2z"/>
<path d="M8350 4423 c-55 -20 -68 -87 -24 -122 15 -12 34 -21 44 -21 33 0 70
39 70 74 0 46 -49 84 -90 69z"/>
<path d="M10496 4789 c-19 -15 -26 -30 -26 -54 0 -36 36 -75 70 -75 34 0 70
39 70 75 0 36 -36 75 -70 75 -10 0 -29 -9 -44 -21z"/>
<path d="M9771 4414 c-12 -15 -21 -34 -21 -44 0 -34 39 -70 75 -70 36 0 75 36
75 70 0 34 -39 70 -75 70 -24 0 -39 -7 -54 -26z"/>
<path d="M1446 3948 c-50 -71 43 -159 104 -98 26 26 26 81 2 103 -28 25 -87
22 -106 -5z"/>
<path d="M550 3740 c-26 -26 -26 -81 0 -105 29 -26 79 -24 102 4 27 34 23 75
-8 100 -34 26 -68 27 -94 1z"/>
<path d="M2247 3702 c-23 -25 -21 -78 3 -102 61 -61 154 27 104 98 -20 28 -83
31 -107 4z"/>
<path d="M5029 3962 c-28 -23 -30 -73 -4 -102 24 -26 79 -26 105 0 63 63 -31
158 -101 102z"/>
<path d="M3343 3938 c-68 -33 -40 -138 37 -138 28 0 70 44 70 73 0 51 -61 88
-107 65z"/>
<path d="M4230 3710 c-26 -26 -26 -81 -2 -103 44 -40 122 -6 122 53 0 60 -78
92 -120 50z"/>
<path d="M6787 3952 c-23 -25 -21 -78 3 -102 61 -61 154 27 104 98 -20 28 -83
31 -107 4z"/>
<path d="M5893 3745 c-70 -49 0 -160 76 -120 48 24 55 72 16 110 -27 28 -61
32 -92 10z"/>
<path d="M7587 3702 c-40 -44 -7 -122 51 -122 60 0 94 78 52 120 -26 26 -81
26 -103 2z"/>
<path d="M10571 3954 c-12 -15 -21 -34 -21 -44 0 -34 39 -70 75 -70 24 0 39 7
54 26 27 35 26 59 -4 89 -33 34 -77 33 -104 -1z"/>
<path d="M8890 3937 c-80 -40 -24 -162 59 -127 53 22 59 89 9 124 -27 19 -35
20 -68 3z"/>
<path d="M9771 3704 c-12 -15 -21 -34 -21 -44 0 -34 39 -70 75 -70 36 0 75 36
75 70 0 34 -39 70 -75 70 -24 0 -39 -7 -54 -26z"/>
<path d="M720 3230 c-42 -42 -12 -120 48 -120 46 0 72 25 72 70 0 29 -6 43
-22 54 -31 22 -74 20 -98 -4z"/>
<path d="M3010 3312 c-51 -16 -68 -84 -30 -122 60 -60 154 26 105 97 -15 21
-50 33 -75 25z"/>
<path d="M2083 3085 c-66 -47 -8 -150 70 -123 51 18 62 74 22 113 -27 28 -61
32 -92 10z"/>
<path d="M3799 3057 c-37 -19 -53 -60 -37 -94 26 -55 104 -54 130 2 26 57 -37
119 -93 92z"/>
<path d="M6681 3224 c-12 -15 -21 -34 -21 -44 0 -34 39 -70 75 -70 36 0 75 36
75 70 0 34 -39 70 -75 70 -24 0 -39 -7 -54 -26z"/>
<path d="M4896 3199 c-36 -28 -36 -80 0 -108 15 -12 35 -21 46 -21 27 0 68 45
68 75 0 30 -41 75 -68 75 -11 0 -31 -9 -46 -21z"/>
<path d="M5885 2980 c-42 -46 -10 -120 51 -120 35 0 74 37 74 70 0 10 -9 29
-21 44 -26 33 -77 36 -104 6z"/>
<path d="M8462 3263 c-52 -44 -24 -123 43 -123 67 0 97 69 50 115 -28 29 -65
32 -93 8z"/>
<path d="M7573 3055 c-49 -21 -58 -71 -18 -110 45 -46 118 -19 118 43 0 58
-47 89 -100 67z"/>
<path d="M9255 3005 c-28 -27 -30 -42 -14 -79 14 -29 55 -47 85 -35 26 9 54
47 54 72 0 26 -45 67 -75 67 -14 0 -37 -11 -50 -25z"/>
<path d="M10317 3213 c-9 -2 -24 -18 -33 -35 -19 -37 -5 -80 32 -97 37 -16 52
-14 79 14 58 57 3 139 -78 118z"/>
<path d="M927 2559 c-48 -28 -40 -107 12 -129 75 -31 134 58 76 115 -25 26
-58 31 -88 14z"/>
<path d="M2235 2525 c-30 -30 -31 -54 -4 -89 15 -19 30 -26 54 -26 37 0 75 37
75 72 0 27 -45 68 -75 68 -14 0 -37 -11 -50 -25z"/>
<path d="M200 2180 c-43 -43 -11 -120 50 -120 17 0 39 9 50 20 26 26 26 81 2
103 -25 23 -78 21 -102 -3z"/>
<path d="M1540 2177 c-52 -26 -49 -104 5 -129 58 -26 119 33 95 91 -6 16 -23
33 -36 40 -31 14 -33 14 -64 -2z"/>
<path d="M3745 2558 c-28 -16 -35 -28 -35 -65 0 -41 42 -77 80 -68 60 14 80
88 34 124 -30 24 -50 26 -79 9z"/>
<path d="M5050 2530 c-26 -26 -26 -81 -2 -103 44 -40 122 -7 122 51 0 60 -78
94 -120 52z"/>
<path d="M3010 2178 c-26 -28 -26 -58 1 -92 39 -50 122 -22 122 42 0 66 -78
98 -123 50z"/>
<path d="M4353 2178 c-68 -33 -40 -138 37 -138 28 0 70 44 70 73 0 51 -61 88
-107 65z"/>
<path d="M6502 2550 c-32 -30 -30 -82 5 -110 70 -55 151 42 88 105 -29 30 -64
32 -93 5z"/>
<path d="M7819 2532 c-49 -40 -17 -122 48 -122 65 0 93 61 52 114 -25 31 -66
35 -100 8z"/>
<path d="M5780 2180 c-62 -62 31 -158 99 -102 28 22 31 75 6 102 -24 26 -79
26 -105 0z"/>
<path d="M7123 2178 c-51 -24 -50 -106 1 -129 83 -38 147 84 66 126 -33 17
-37 17 -67 3z"/>
<path d="M9316 2549 c-19 -15 -26 -30 -26 -54 0 -36 36 -75 70 -75 34 0 70 39
70 75 0 36 -36 75 -70 75 -10 0 -29 -9 -44 -21z"/>
<path d="M10630 2530 c-24 -24 -26 -67 -4 -98 11 -16 25 -22 54 -22 29 0 43 6
54 22 36 51 5 118 -54 118 -17 0 -39 -9 -50 -20z"/>
<path d="M8591 2174 c-12 -15 -21 -35 -21 -46 0 -27 45 -68 75 -68 30 0 75 41
75 68 0 35 -38 72 -75 72 -24 0 -39 -7 -54 -26z"/>
<path d="M9927 2170 c-35 -28 -37 -80 -5 -110 29 -27 64 -25 93 5 63 63 -18
160 -88 105z"/>
<path d="M465 1625 c-27 -26 -30 -41 -15 -80 20 -54 110 -52 131 2 29 77 -59
136 -116 78z"/>
<path d="M2073 1658 c-12 -6 -27 -24 -34 -40 -34 -83 86 -136 130 -57 19 33 1
81 -35 98 -29 13 -32 13 -61 -1z"/>
<path d="M3375 1625 c-40 -39 -29 -97 22 -116 58 -22 116 36 94 94 -19 51 -77
62 -116 22z"/>
<path d="M1340 1280 c-24 -24 -26 -67 -4 -98 11 -16 25 -22 54 -22 29 0 43 6
54 22 36 51 5 118 -54 118 -17 0 -39 -9 -50 -20z"/>
<path d="M2660 1260 c-63 -63 31 -158 101 -102 28 23 30 73 4 102 -24 26 -79
26 -105 0z"/>
<path d="M4888 1655 c-54 -30 -42 -116 18 -131 83 -21 126 99 48 135 -31 14
-33 14 -66 -4z"/>
<path d="M4160 1280 c-26 -26 -26 -81 -2 -103 25 -23 78 -21 102 3 43 43 11
120 -50 120 -17 0 -39 -9 -50 -20z"/>
<path d="M5480 1260 c-61 -61 27 -154 98 -104 28 20 31 83 4 107 -25 23 -78
21 -102 -3z"/>
<path d="M7570 1663 c-53 -19 -68 -86 -28 -123 63 -58 157 33 101 98 -20 23
-50 33 -73 25z"/>
<path d="M8866 1629 c-19 -15 -26 -30 -26 -54 0 -37 37 -75 72 -75 29 0 68 45
68 79 0 32 -38 71 -70 71 -10 0 -29 -9 -44 -21z"/>
<path d="M6821 1274 c-24 -30 -26 -46 -10 -77 16 -30 28 -37 66 -37 41 0 77
42 68 80 -14 60 -88 80 -124 34z"/>
<path d="M8145 1260 c-42 -47 -8 -120 55 -120 33 0 70 40 70 74 0 57 -86 89
-125 46z"/>
<path d="M10443 1660 c-48 -19 -58 -87 -17 -119 53 -41 114 -13 114 52 0 51
-50 86 -97 67z"/>
<path d="M9712 1283 c-32 -27 -37 -64 -12 -96 57 -72 167 8 113 81 -25 33 -71
40 -101 15z"/>
<path d="M11027 1262 c-23 -25 -21 -78 3 -102 43 -43 120 -11 120 50 0 17 -9
39 -20 50 -26 26 -81 26 -103 2z"/>
<path d="M926 858 c-36 -51 -5 -118 54 -118 59 0 90 67 54 118 -11 16 -25 22
-54 22 -29 0 -43 -6 -54 -22z"/>
<path d="M1727 612 c-40 -44 -7 -122 51 -122 60 0 94 78 52 120 -26 26 -81 26
-103 2z"/>
<path d="M4676 858 c-36 -51 -5 -118 54 -118 59 0 90 67 54 118 -11 16 -25 22
-54 22 -29 0 -43 -6 -54 -22z"/>
<path d="M2980 830 c-26 -26 -26 -81 0 -105 29 -26 79 -24 102 4 27 34 23 75
-8 100 -34 26 -68 27 -94 1z"/>
<path d="M3880 610 c-42 -42 -8 -120 53 -120 58 0 91 85 49 123 -25 23 -78 21
-102 -3z"/>
<path d="M6405 860 c-42 -47 -8 -120 55 -120 33 0 70 40 70 76 0 57 -86 87
-125 44z"/>
<path d="M5515 645 c-43 -42 -23 -106 37 -121 22 -5 34 0 59 25 25 25 30 37
25 59 -15 60 -79 80 -121 37z"/>
<path d="M7200 603 c-55 -70 42 -151 105 -88 28 27 31 45 14 78 -16 30 -28 37
-66 37 -23 0 -38 -8 -53 -27z"/>
<path d="M10225 860 c-42 -47 -8 -120 55 -120 33 0 70 40 70 76 0 57 -86 87
-125 44z"/>
<path d="M8537 839 c-28 -16 -40 -58 -26 -90 21 -53 104 -55 128 -3 16 37 14
52 -14 79 -25 26 -58 31 -88 14z"/>
<path d="M9427 612 c-40 -44 -7 -122 51 -122 60 0 94 78 52 120 -26 26 -81 26
-103 2z"/>
</g>
</svg>
