<?xml version="1.0" standalone="no"?>
<!DOCTYPE svg PUBLIC "-//W3C//DTD SVG 20010904//EN"
 "http://www.w3.org/TR/2001/REC-SVG-20010904/DTD/svg10.dtd">
<svg version="1.0" xmlns="http://www.w3.org/2000/svg"
 width="1811.000000pt" height="1217.000000pt" viewBox="0 0 1811.000000 1217.000000"
 preserveAspectRatio="xMidYMid meet">
<metadata>
Created by potrace 1.13, written by Peter Selinger 2001-2015
</metadata>
<g transform="translate(0.000000,1217.000000) scale(0.100000,-0.100000)"
fill="#000000" stroke="none">
<path d="M2700 12092 c0 -109 -6 -116 -96 -101 -78 14 -105 8 -157 -34 -25
-20 -26 -24 -14 -41 13 -18 15 -18 55 9 42 28 43 28 118 16 66 -11 78 -11 100
4 35 22 44 54 44 146 0 78 0 79 -25 79 -25 0 -25 -1 -25 -78z"/>
<path d="M4425 12133 c21 -49 32 -61 79 -85 28 -15 67 -22 129 -26 l89 -5 -4
24 c-3 22 -8 24 -83 30 -94 7 -143 29 -158 70 -9 22 -18 29 -39 29 l-28 0 15
-37z"/>
<path d="M5366 12134 c-26 -19 -56 -34 -65 -34 -9 0 -39 11 -68 24 l-51 24 -6
-21 c-7 -26 9 -39 71 -63 58 -22 98 -10 188 56 l68 50 -44 -1 c-33 -1 -56 -10
-93 -35z"/>
<path d="M9030 12155 c-14 -8 -39 -14 -57 -15 -42 0 -59 -19 -104 -118 -32
-68 -44 -85 -69 -93 -25 -9 -28 -14 -20 -30 6 -10 19 -19 28 -19 35 0 65 35
103 117 22 46 45 85 52 87 6 2 33 9 59 16 25 7 61 25 80 41 l33 28 -40 0 c-22
0 -51 -6 -65 -14z"/>
<path d="M11649 12085 c-5 -98 -12 -108 -74 -97 -76 13 -128 8 -167 -18 -40
-26 -45 -39 -26 -58 8 -8 22 -5 55 15 43 25 47 26 113 14 117 -21 148 11 149
157 1 69 0 72 -23 72 -23 0 -24 -3 -27 -85z"/>
<path d="M13364 12154 c3 -9 6 -20 6 -24 0 -5 14 -25 31 -45 37 -42 106 -65
196 -65 61 0 63 1 63 25 0 24 -3 25 -57 25 -102 0 -164 27 -184 78 -6 15 -17
22 -35 22 -20 0 -25 -4 -20 -16z"/>
<path d="M14335 12145 c-55 -45 -88 -50 -149 -22 l-54 25 -10 -23 c-10 -21 -7
-25 50 -50 85 -38 120 -29 239 67 l34 28 -40 0 c-28 0 -49 -8 -70 -25z"/>
<path d="M17960 12153 c-25 -8 -56 -18 -70 -22 -19 -5 -35 -27 -71 -101 -35
-71 -51 -96 -69 -100 -27 -6 -34 -19 -21 -39 7 -11 17 -12 43 -5 29 8 38 20
81 107 43 87 51 97 75 97 33 0 122 40 141 63 12 15 10 17 -25 16 -22 -1 -59
-8 -84 -16z"/>
<path d="M3765 11759 c-23 -68 -14 -109 43 -193 66 -96 65 -137 -6 -279 -74
-147 -72 -177 19 -274 63 -66 65 -105 15 -196 -19 -34 -44 -91 -57 -125 -19
-54 -20 -65 -8 -73 26 -16 36 -9 48 34 7 23 32 81 57 130 33 65 44 99 44 133
0 56 -10 75 -71 141 -62 66 -63 86 -4 203 80 159 81 220 8 327 -52 76 -61 114
-40 165 11 26 12 39 4 47 -21 21 -36 11 -52 -40z"/>
<path d="M12713 11773 c-26 -64 -14 -128 40 -207 65 -94 65 -136 1 -267 -26
-52 -50 -107 -55 -123 -13 -45 6 -97 52 -141 47 -46 69 -84 69 -117 0 -13 -19
-62 -41 -108 -23 -47 -50 -108 -60 -137 -17 -51 -17 -52 3 -59 25 -7 32 0 48
51 7 22 33 80 57 129 62 129 57 173 -32 266 -64 66 -64 78 -4 198 38 77 52
119 56 162 7 76 2 92 -52 174 -49 75 -56 115 -30 166 14 27 14 30 -4 40 -29
15 -31 14 -48 -27z"/>
<path d="M1797 11670 c-20 -33 -54 -46 -150 -55 -61 -6 -74 -11 -123 -51 -29
-24 -58 -44 -63 -44 -4 0 -28 9 -52 19 -96 43 -198 36 -260 -16 -49 -42 -69
-95 -69 -190 0 -99 -9 -124 -64 -183 -31 -33 -48 -64 -60 -106 -10 -32 -22
-76 -28 -97 -10 -31 -9 -40 3 -48 25 -16 34 -4 60 90 22 75 35 100 69 137 58
63 70 98 70 202 0 76 3 94 23 123 47 71 138 86 243 40 66 -30 85 -27 146 23
49 41 60 46 136 55 92 12 131 28 156 65 21 32 20 43 -2 55 -15 8 -22 4 -35
-19z"/>
<path d="M10735 11664 c-28 -32 -37 -35 -115 -45 -91 -12 -124 -24 -155 -59
-36 -40 -49 -42 -129 -15 -41 14 -91 25 -111 25 -69 0 -148 -49 -181 -112 -9
-17 -14 -58 -14 -112 0 -102 -8 -124 -65 -188 -34 -38 -50 -67 -65 -121 -12
-40 -25 -85 -31 -101 -10 -33 -11 -31 18 -40 23 -7 24 -5 59 121 12 47 29 77
65 118 57 65 69 102 69 212 0 77 2 84 30 117 55 62 126 69 236 24 64 -26 88
-20 149 32 25 22 52 40 58 40 54 2 164 23 186 36 25 15 61 61 61 78 0 3 -8 10
-18 15 -14 7 -24 2 -47 -25z"/>
<path d="M7757 11676 c-22 -8 -60 -33 -85 -55 -96 -84 -175 -117 -235 -100
-22 6 -33 5 -39 -4 -21 -34 5 -50 79 -49 57 0 136 39 208 100 66 57 113 76
151 62 13 -5 50 -34 84 -65 80 -74 102 -74 189 0 106 90 173 97 275 30 46 -31
69 -40 117 -43 57 -4 59 -4 59 21 0 22 -4 25 -52 29 -40 3 -67 14 -112 44 -55
36 -64 39 -130 39 -81 -1 -107 -12 -187 -80 -29 -25 -60 -45 -69 -45 -9 0 -34
18 -55 41 -75 76 -133 98 -198 75z"/>
<path d="M16708 11676 c-20 -7 -47 -22 -61 -32 -13 -10 -50 -39 -81 -63 -65
-50 -134 -73 -181 -60 -24 7 -33 5 -42 -8 -19 -25 -16 -31 20 -39 87 -19 156
4 257 86 119 96 141 97 244 5 80 -71 104 -73 178 -9 112 97 178 105 293 35 58
-34 77 -41 122 -41 50 0 53 1 53 25 0 23 -4 25 -47 25 -37 0 -61 9 -116 42
-120 72 -215 61 -329 -41 -25 -22 -51 -41 -58 -41 -6 0 -37 22 -69 50 -50 43
-115 81 -138 80 -4 -1 -24 -7 -45 -14z"/>
<path d="M15424 11634 c-12 -24 -29 -41 -53 -51 -32 -14 -46 -13 -147 6 -62
12 -130 21 -153 21 -61 0 -98 -38 -141 -147 -40 -99 -26 -92 -152 -78 -87 10
-144 -10 -193 -67 -39 -47 -76 -147 -78 -216 -2 -40 1 -47 18 -50 19 -3 22 6
33 70 14 81 53 161 93 190 35 27 98 33 169 18 102 -22 98 -25 177 162 9 21 24
45 34 54 21 19 57 17 209 -11 119 -22 180 -6 219 58 26 42 26 53 2 67 -17 9
-22 5 -37 -26z"/>
<path d="M6472 11626 c-32 -55 -71 -62 -200 -37 -201 39 -226 28 -286 -123
-39 -98 -39 -98 -70 -92 -109 20 -164 19 -209 -3 -75 -36 -116 -104 -143 -235
-12 -56 -13 -71 -2 -77 26 -17 36 -8 43 34 24 141 79 229 152 243 20 4 74 1
121 -6 84 -13 85 -13 103 9 10 12 31 56 46 98 49 132 62 138 242 103 116 -23
160 -19 207 16 31 23 67 82 58 96 -12 19 -43 6 -62 -26z"/>
<path d="M11404 11518 c-5 -16 -2 -25 11 -33 86 -51 125 -105 146 -205 25
-120 64 -186 132 -223 39 -20 53 -22 185 -19 80 1 151 -2 161 -8 11 -5 32 -33
49 -62 38 -68 64 -91 135 -123 l58 -25 8 22 c8 21 4 25 -43 46 -65 30 -80 44
-118 110 -49 86 -67 93 -238 90 -131 -3 -148 -1 -180 18 -44 25 -74 79 -96
169 -34 138 -73 199 -155 240 l-48 25 -7 -22z"/>
<path d="M2456 11514 c-7 -19 0 -34 17 -34 22 0 87 -61 107 -99 10 -21 28 -75
40 -121 26 -101 32 -114 79 -163 53 -56 108 -69 253 -61 139 8 149 4 197 -80
32 -58 76 -94 144 -117 33 -12 39 -11 47 1 14 22 8 31 -35 49 -69 28 -85 41
-115 95 -57 100 -58 101 -239 101 -132 0 -161 3 -183 17 -47 31 -77 82 -99
168 -24 98 -56 165 -96 201 -64 59 -105 74 -117 43z"/>
<path d="M6550 11291 c-15 -29 -12 -78 6 -114 10 -18 63 -94 120 -169 111
-148 139 -194 149 -250 11 -56 -23 -117 -120 -218 -101 -105 -107 -127 -51
-206 77 -110 88 -131 76 -154 -7 -12 -41 -50 -76 -85 -91 -89 -124 -163 -131
-295 l-6 -100 25 0 c25 0 25 2 30 93 7 125 33 181 127 275 39 39 76 83 81 98
15 38 -1 79 -61 160 -27 37 -49 76 -49 87 0 11 35 56 83 106 99 103 122 145
121 221 0 74 -28 124 -164 305 -114 152 -127 177 -116 222 5 17 3 29 -6 34
-20 13 -26 11 -38 -10z"/>
<path d="M15491 11275 c-16 -57 3 -97 121 -253 120 -160 158 -227 158 -284 0
-58 -14 -82 -109 -183 -54 -57 -92 -107 -96 -124 -7 -34 11 -75 60 -136 39
-48 55 -78 55 -101 0 -10 -34 -52 -75 -95 -46 -47 -85 -98 -100 -131 -24 -53
-44 -157 -45 -230 0 -34 3 -38 25 -38 22 0 25 4 25 38 0 61 20 164 40 210 11
23 56 81 101 128 81 85 81 85 76 130 -3 34 -16 60 -50 103 -64 83 -70 96 -56
123 7 13 48 60 91 105 87 91 108 130 108 200 0 70 -40 147 -160 303 -116 153
-134 187 -120 224 8 21 6 28 -10 36 -27 14 -28 14 -39 -25z"/>
<path d="M4730 11241 c0 -35 38 -83 97 -124 67 -47 76 -73 83 -239 5 -123 9
-150 24 -167 22 -24 78 -46 161 -62 45 -9 67 -19 93 -45 l33 -33 -3 -100 -3
-100 34 -35 c44 -45 178 -98 192 -75 16 26 9 36 -33 49 -57 16 -111 44 -129
66 -10 12 -14 45 -14 120 0 100 -1 103 -30 134 -40 42 -66 55 -157 75 -116 25
-112 19 -119 188 -6 170 -17 197 -114 274 -33 27 -62 59 -65 73 -4 16 -14 26
-28 28 -19 3 -22 -1 -22 -27z"/>
<path d="M13675 11260 c-16 -26 18 -81 82 -130 84 -67 94 -92 100 -250 2 -69
9 -137 15 -152 12 -32 50 -51 143 -73 84 -19 132 -46 146 -81 5 -16 7 -63 3
-115 l-7 -88 34 -34 c30 -30 104 -65 172 -82 19 -5 25 -2 30 15 4 16 -1 23
-21 31 -15 5 -46 17 -70 26 -23 9 -54 27 -68 40 -25 23 -26 27 -20 106 10 145
-27 192 -179 228 -50 12 -97 28 -106 36 -13 10 -17 42 -22 149 -7 168 -22 205
-115 279 -42 33 -65 59 -69 78 -6 27 -35 38 -48 17z"/>
<path d="M311 11196 c-9 -11 -6 -22 12 -50 41 -60 43 -125 7 -280 -16 -73 -2
-104 83 -177 140 -120 170 -168 171 -270 1 -57 -4 -74 -37 -137 -45 -86 -46
-121 -7 -189 35 -61 47 -70 67 -51 13 13 11 21 -16 64 -17 26 -31 58 -31 70 0
13 16 54 35 91 84 161 46 293 -125 437 -44 38 -85 77 -91 88 -8 15 -6 38 7 91
33 133 21 247 -34 310 -18 21 -26 21 -41 3z"/>
<path d="M9261 11196 c-9 -10 -6 -24 14 -57 30 -54 33 -126 8 -244 -9 -46 -13
-93 -9 -109 4 -15 27 -46 53 -69 25 -23 71 -64 101 -92 70 -64 102 -129 102
-211 0 -51 -6 -73 -40 -139 -22 -43 -40 -86 -40 -95 0 -17 42 -104 64 -133 12
-15 18 -17 36 -7 l21 11 -21 32 c-12 18 -28 47 -36 65 -15 33 -14 36 25 115
36 71 41 88 41 151 0 57 -5 82 -29 131 -27 57 -42 74 -189 208 -47 43 -50 57
-27 152 27 112 17 214 -27 278 -22 30 -31 33 -47 13z"/>
<path d="M8120 11040 c-12 -8 -12 -14 4 -47 40 -84 83 -129 160 -167 66 -33
77 -43 97 -84 16 -32 25 -73 29 -129 7 -109 16 -118 117 -118 l77 0 28 -74
c47 -128 114 -191 202 -191 61 0 80 10 72 37 -5 17 -13 19 -62 15 -54 -5 -55
-4 -98 41 -24 25 -49 62 -56 84 -44 137 -58 150 -154 140 -29 -3 -57 -2 -63 1
-6 4 -12 42 -15 85 -4 59 -12 91 -34 134 -27 52 -36 61 -103 96 -81 42 -97 57
-142 135 -33 55 -35 57 -59 42z"/>
<path d="M17067 11037 c-16 -11 -15 -17 18 -72 51 -84 71 -104 140 -135 33
-16 68 -36 77 -47 30 -33 50 -96 56 -175 7 -103 18 -114 117 -110 l73 3 17
-48 c49 -133 106 -207 172 -219 34 -6 110 0 120 9 2 3 0 14 -6 25 -8 16 -18
18 -58 15 -72 -6 -103 18 -148 114 -20 43 -44 94 -53 113 l-17 35 -80 0 -80 0
-7 75 c-14 141 -54 205 -154 251 -64 28 -105 71 -142 147 -18 36 -21 37 -45
19z"/>
<path d="M1685 10977 c-16 -8 -39 -25 -50 -37 -39 -44 -117 -100 -141 -100
-23 0 -49 -31 -37 -44 11 -10 52 -7 86 8 18 7 60 38 93 69 72 67 96 74 163 52
75 -25 135 -85 169 -170 30 -76 41 -85 161 -126 34 -12 67 -33 87 -54 30 -34
35 -35 101 -35 39 0 91 -3 117 -6 44 -6 46 -6 46 18 0 22 -5 26 -46 32 -26 3
-75 6 -109 6 -56 0 -63 2 -83 29 -13 19 -43 37 -79 50 -127 47 -129 48 -153
113 -13 35 -39 79 -62 104 -72 78 -197 121 -263 91z"/>
<path d="M10641 10980 c-13 -6 -46 -31 -75 -57 -63 -57 -104 -83 -132 -83 -22
0 -39 -24 -28 -41 9 -15 53 -10 92 10 20 11 66 45 101 76 61 54 67 57 104 51
93 -15 173 -82 207 -173 12 -32 26 -63 32 -70 12 -15 101 -57 141 -67 16 -4
47 -24 70 -45 l42 -39 115 -3 c111 -4 115 -3 118 17 3 18 -4 22 -44 28 -26 3
-74 6 -107 6 -56 0 -64 3 -97 34 -19 18 -57 41 -85 50 -98 33 -115 46 -140
110 -13 33 -37 75 -53 95 -57 70 -201 126 -261 101z"/>
<path d="M7530 10895 c0 -42 28 -85 109 -168 67 -69 76 -83 76 -115 0 -53 -32
-92 -119 -146 -90 -56 -105 -83 -88 -158 25 -107 10 -169 -52 -208 -38 -23
-118 -136 -114 -160 7 -35 36 -19 74 40 21 33 56 72 77 86 67 44 92 133 66
243 -5 24 -7 51 -4 60 3 9 36 35 75 59 75 47 115 90 130 143 18 63 3 97 -86
191 -52 54 -87 100 -92 120 -6 23 -15 34 -30 36 -18 3 -22 -2 -22 -23z"/>
<path d="M16475 10910 c-16 -25 22 -89 102 -172 77 -80 83 -89 83 -129 0 -37
-5 -47 -48 -88 -27 -25 -71 -59 -98 -76 -63 -38 -71 -63 -56 -158 16 -98 6
-134 -58 -187 -62 -52 -129 -158 -109 -171 25 -16 34 -10 64 42 17 28 55 72
86 99 72 63 86 107 68 216 -6 40 -9 80 -6 88 3 8 30 29 59 46 103 59 148 116
148 187 0 59 -9 74 -100 168 -51 53 -80 91 -84 113 -8 32 -37 45 -51 22z"/>
<path d="M3190 10270 c0 -55 -26 -96 -97 -153 -114 -91 -148 -142 -188 -287
-41 -153 -49 -165 -131 -212 -41 -23 -74 -45 -74 -48 0 -3 6 -14 13 -23 11
-15 19 -12 88 28 42 24 83 55 92 68 9 14 34 84 56 157 46 156 68 191 171 275
83 67 120 125 120 187 0 34 -3 38 -25 38 -21 0 -25 -5 -25 -30z"/>
<path d="M12136 10258 c-10 -60 -32 -91 -107 -148 -109 -83 -129 -117 -184
-300 -20 -69 -44 -133 -53 -143 -9 -10 -45 -34 -79 -54 -63 -34 -73 -49 -52
-70 13 -13 130 51 168 91 15 16 38 73 63 158 22 73 53 154 69 180 17 25 62 70
100 100 79 59 114 110 124 181 7 45 6 47 -18 47 -21 0 -25 -6 -31 -42z"/>
<path d="M1255 9964 c-55 -13 -112 -21 -127 -18 -20 4 -29 0 -37 -15 -10 -17
-7 -21 25 -31 30 -10 53 -8 155 15 170 39 219 30 352 -61 103 -71 162 -67 274
18 37 28 80 54 96 59 66 19 207 -52 262 -131 23 -33 30 -38 46 -29 24 13 24
16 -8 61 -46 68 -148 132 -233 148 -66 13 -105 -1 -192 -67 -103 -79 -132 -78
-252 6 -109 76 -191 86 -361 45z"/>
<path d="M4459 9980 c-47 -14 -142 -69 -209 -120 -137 -106 -134 -105 -229
-105 -76 0 -94 4 -153 32 -67 31 -68 32 -79 12 -6 -12 -9 -22 -7 -25 2 -2 35
-18 74 -35 54 -25 87 -33 150 -37 98 -5 136 9 238 91 82 66 177 123 229 139
59 18 87 3 122 -67 40 -79 78 -105 157 -105 62 0 151 25 227 65 74 39 75 40
61 64 l-11 22 -45 -26 c-116 -68 -252 -94 -302 -59 -13 9 -34 40 -47 70 -36
80 -95 109 -176 84z"/>
<path d="M10205 9964 c-55 -13 -112 -21 -126 -18 -27 5 -56 -17 -45 -35 14
-22 68 -21 174 4 176 40 216 34 350 -53 42 -28 91 -53 109 -57 51 -10 106 11
184 72 65 51 77 57 119 56 63 -1 149 -45 204 -103 24 -25 45 -52 47 -59 4 -11
9 -11 27 -2 21 11 21 14 8 39 -18 34 -90 102 -137 130 -54 32 -145 53 -189 43
-20 -4 -68 -32 -105 -61 -113 -86 -136 -87 -238 -18 -136 93 -208 104 -382 62z"/>
<path d="M13370 9967 c-59 -24 -148 -82 -219 -141 -68 -57 -113 -76 -176 -76
-56 0 -158 28 -200 56 -20 13 -24 13 -35 -1 -7 -8 -10 -21 -7 -28 9 -24 137
-69 209 -75 87 -6 142 10 204 58 143 113 261 180 319 180 26 0 58 -32 78 -80
8 -19 29 -48 46 -65 31 -29 36 -30 119 -30 84 0 91 2 190 50 98 48 102 51 89
70 -15 19 -17 18 -108 -25 -75 -35 -107 -45 -159 -48 -79 -5 -105 11 -144 92
-42 86 -103 105 -206 63z"/>
<path d="M7936 9764 c-90 -33 -135 -89 -165 -206 -22 -88 -34 -114 -64 -130
-12 -6 -84 -15 -159 -18 -192 -10 -208 -23 -237 -187 l-17 -98 -86 -6 c-116
-8 -165 -36 -205 -116 -24 -49 -28 -73 -31 -160 l-4 -103 25 0 c24 0 24 1 29
103 5 108 17 144 60 185 33 30 78 42 159 42 87 0 95 10 118 140 25 142 24 142
198 150 194 10 227 30 257 160 27 122 63 171 145 198 19 7 49 12 67 12 30 0
34 3 34 25 0 23 -4 25 -42 24 -24 0 -61 -7 -82 -15z"/>
<path d="M16886 9765 c-89 -31 -138 -91 -166 -200 -35 -142 -41 -145 -225
-155 -188 -9 -213 -27 -235 -166 -20 -135 -13 -124 -83 -124 -116 0 -189 -36
-227 -111 -24 -46 -40 -157 -33 -223 5 -40 9 -46 28 -46 22 0 23 3 23 83 -1
183 52 246 205 247 38 0 77 4 87 10 21 11 35 52 45 125 11 85 25 124 48 137
12 7 79 15 152 18 190 9 229 34 255 165 27 131 83 190 195 204 42 5 51 10 53
29 3 20 -1 22 -40 22 -24 -1 -61 -7 -82 -15z"/>
<path d="M5951 9717 c-8 -11 1 -25 39 -65 57 -59 68 -97 51 -179 -18 -92 -14
-155 12 -194 12 -19 72 -73 132 -121 59 -48 112 -93 116 -100 4 -7 -8 -60 -26
-118 -19 -58 -34 -121 -34 -141 -1 -44 23 -68 138 -133 77 -44 85 -47 100 -31
15 15 14 17 -4 31 -11 9 -49 32 -85 51 -80 45 -100 61 -100 84 0 9 16 68 35
129 22 71 33 121 29 137 -4 16 -48 58 -125 119 -65 52 -125 104 -134 116 -18
27 -19 83 -3 177 15 90 3 132 -58 200 -48 53 -64 60 -83 38z"/>
<path d="M14900 9715 c-11 -14 -6 -23 34 -64 58 -58 67 -92 50 -186 -27 -154
-15 -180 142 -304 63 -51 118 -99 121 -108 3 -9 -8 -59 -25 -112 -39 -118 -41
-173 -9 -203 23 -21 184 -118 197 -118 5 0 11 8 15 17 8 22 -12 39 -111 93
-41 23 -74 47 -75 53 -3 30 5 64 32 144 16 48 29 101 29 119 0 36 -27 63 -168
174 -106 84 -119 110 -104 203 15 85 15 162 1 190 -13 24 -99 117 -110 117 -4
0 -12 -7 -19 -15z"/>
<path d="M1458 9623 c-43 -10 -3 -72 101 -158 120 -99 170 -172 186 -270 15
-93 35 -112 159 -151 70 -22 85 -44 68 -102 -16 -54 -78 -152 -141 -223 -49
-56 -52 -62 -37 -77 14 -15 18 -14 47 13 96 92 182 243 183 321 1 68 -16 86
-113 119 -42 14 -82 29 -89 34 -8 5 -20 38 -28 75 -26 123 -58 168 -240 336
-32 30 -64 62 -69 71 -6 9 -18 14 -27 12z"/>
<path d="M10398 9623 c-10 -2 -18 -8 -18 -12 0 -16 51 -82 87 -114 156 -133
206 -201 225 -307 14 -81 34 -104 116 -130 97 -32 112 -44 112 -86 0 -51 -61
-161 -131 -238 -33 -35 -59 -68 -59 -74 0 -5 7 -16 16 -23 14 -11 22 -6 60 36
56 63 127 168 148 219 19 45 21 124 3 147 -15 20 -58 42 -127 64 -30 9 -61 23
-67 29 -7 6 -18 38 -24 71 -21 114 -59 167 -241 335 -32 29 -60 61 -63 71 -7
20 -8 20 -37 12z"/>
<path d="M8750 9536 c0 -9 0 -19 0 -22 -1 -4 35 -21 79 -39 97 -39 151 -75
193 -128 45 -56 96 -77 193 -77 44 0 98 -5 120 -11 56 -15 158 -122 214 -224
68 -123 70 -126 119 -147 62 -28 131 -20 289 34 112 38 123 43 117 62 -4 12
-8 22 -9 24 -1 2 -55 -15 -120 -38 -208 -71 -272 -65 -321 32 -43 85 -107 180
-154 226 -70 70 -108 84 -240 93 -63 4 -116 8 -118 8 -1 1 -32 31 -67 67 -50
50 -85 75 -149 105 -103 48 -146 58 -146 35z"/>
<path d="M17696 9534 c-10 -27 -7 -30 37 -43 86 -26 153 -66 229 -138 44 -40
84 -73 91 -73 7 0 22 -3 35 -6 18 -5 22 -2 22 19 0 18 -7 26 -26 31 -14 4 -59
38 -98 75 -76 72 -123 101 -215 132 -66 23 -67 23 -75 3z"/>
<path d="M0 9446 c0 -27 112 -142 158 -163 15 -7 65 -12 112 -13 47 0 103 -5
125 -11 55 -15 138 -104 200 -213 83 -146 118 -176 203 -176 71 0 332 82 332
104 -1 36 -17 35 -135 -6 -93 -32 -136 -42 -188 -42 -65 -1 -70 1 -95 31 -15
17 -49 70 -76 117 -62 108 -133 188 -193 217 -36 17 -71 24 -159 29 l-112 6
-76 72 c-42 40 -81 72 -86 72 -6 0 -10 -11 -10 -24z"/>
<path d="M3235 9175 c-35 -38 -52 -47 -145 -75 -193 -58 -206 -70 -219 -210
-5 -55 -18 -115 -30 -142 l-20 -48 -132 0 c-154 0 -167 -5 -248 -99 -38 -44
-47 -61 -39 -69 20 -20 32 -14 95 53 l61 65 134 0 c103 0 138 3 155 15 32 22
64 118 73 219 7 66 14 94 28 108 10 10 65 32 121 49 56 16 120 38 140 49 46
23 103 86 99 108 -6 30 -32 22 -73 -23z"/>
<path d="M12198 9191 c-21 -38 -90 -73 -208 -106 -50 -14 -103 -33 -117 -42
-33 -22 -53 -71 -53 -131 0 -56 -24 -157 -46 -189 -14 -22 -21 -23 -140 -23
-146 0 -154 -3 -239 -89 -56 -57 -58 -62 -42 -78 15 -16 21 -13 86 50 l69 67
135 0 135 0 25 30 c34 40 55 108 66 214 10 104 13 107 116 137 165 47 231 82
260 140 28 53 -17 72 -47 20z"/>
<path d="M3943 9009 c-52 -20 -61 -31 -45 -56 6 -10 20 -8 60 7 116 44 208 21
342 -87 145 -117 195 -127 400 -84 116 25 158 23 223 -11 64 -32 174 -108 278
-192 79 -64 100 -76 131 -76 20 0 39 4 42 9 12 19 -7 41 -34 41 -19 0 -54 21
-115 70 -103 84 -211 157 -280 192 -80 41 -117 43 -275 13 -186 -35 -205 -30
-339 77 -110 88 -160 111 -256 115 -63 2 -91 -1 -132 -18z"/>
<path d="M12920 9021 c-14 -5 -40 -16 -58 -25 -28 -14 -31 -20 -22 -36 13 -24
8 -24 65 1 37 16 62 20 114 17 83 -5 130 -27 244 -118 64 -50 105 -75 145 -86
56 -16 61 -16 210 11 137 25 157 26 199 14 53 -14 220 -121 314 -201 35 -29
75 -61 89 -71 24 -16 90 -23 103 -11 13 14 -14 44 -40 44 -17 0 -56 25 -117
74 -128 104 -269 193 -333 212 -60 17 -83 16 -248 -17 -151 -31 -171 -24 -345
111 -83 64 -152 90 -233 89 -34 0 -73 -4 -87 -8z"/>
<path d="M9022 8821 c-22 -44 -89 -81 -147 -81 -44 0 -83 -21 -155 -80 -86
-71 -104 -74 -190 -30 -75 38 -200 80 -237 80 -15 0 -66 -17 -113 -36 -156
-66 -183 -75 -206 -70 -14 4 -47 38 -79 81 -30 41 -59 75 -64 75 -5 0 -14 -6
-20 -14 -10 -12 -2 -29 42 -88 30 -40 62 -80 72 -88 33 -28 102 -17 218 34 59
26 122 50 140 53 35 5 143 -30 239 -78 93 -47 129 -38 254 60 46 37 66 46 113
52 77 9 127 34 162 82 34 47 37 73 9 80 -14 4 -24 -4 -38 -32z"/>
<path d="M17980 8846 c0 -23 -51 -77 -87 -92 -18 -8 -48 -14 -68 -14 -43 0
-85 -20 -144 -69 -99 -81 -114 -85 -189 -47 -26 13 -87 38 -137 56 -112 39
-137 37 -277 -26 -57 -26 -118 -47 -137 -48 -32 -1 -40 6 -95 76 -63 79 -75
88 -95 65 -8 -11 2 -31 46 -88 68 -87 78 -96 119 -104 33 -7 85 9 224 71 80
35 87 37 136 26 28 -5 96 -31 151 -56 57 -26 115 -46 134 -46 35 0 86 26 129
65 53 49 103 75 142 75 75 0 161 56 189 122 13 32 13 33 -18 42 -17 5 -23 3
-23 -8z"/>
<path d="M8224 8224 c-6 -2 -9 -18 -6 -33 6 -45 -17 -100 -63 -150 -56 -61
-65 -80 -65 -139 0 -49 9 -71 88 -217 48 -87 12 -221 -72 -270 -24 -14 -55
-25 -70 -25 -47 0 -66 -19 -113 -115 -39 -80 -49 -94 -74 -99 -26 -5 -28 -8
-18 -30 10 -21 15 -23 43 -15 39 11 48 24 96 125 37 80 38 81 80 87 112 15
200 126 200 251 0 49 -6 74 -26 112 -15 27 -40 73 -55 103 -19 35 -29 69 -29
97 0 38 6 51 49 97 56 62 84 127 79 183 -3 38 -17 50 -44 38z"/>
<path d="M17167 8223 c-4 -3 -7 -26 -7 -50 0 -53 -10 -73 -66 -136 -81 -90
-79 -163 4 -304 42 -70 47 -84 47 -138 -1 -101 -63 -187 -143 -200 -79 -13
-87 -21 -131 -116 -34 -75 -46 -92 -71 -101 -33 -11 -34 -12 -20 -37 12 -23
51 -17 77 11 10 11 36 56 58 101 39 80 41 82 82 89 59 10 95 31 137 80 72 83
84 204 30 296 -59 101 -77 144 -78 186 -1 44 3 51 86 149 28 33 33 47 36 108
4 63 3 69 -15 69 -11 0 -23 -3 -26 -7z"/>
<path d="M211 8192 c-47 -18 -56 -29 -42 -51 7 -11 17 -11 61 4 69 23 129 16
181 -21 22 -16 60 -44 85 -61 71 -51 114 -58 205 -38 64 15 82 16 115 5 64
-21 100 -54 123 -115 34 -91 57 -129 104 -172 53 -49 84 -66 103 -59 18 7 18
46 0 46 -8 0 -38 21 -66 48 -40 37 -58 65 -85 132 -41 101 -82 143 -165 167
-48 14 -62 14 -115 2 -100 -22 -129 -17 -206 38 -139 98 -199 113 -298 75z"/>
<path d="M9158 8192 c-34 -11 -48 -21 -48 -34 0 -27 22 -31 65 -14 80 34 118
23 255 -71 87 -60 126 -69 214 -48 128 30 204 -11 251 -135 33 -86 82 -152
139 -185 52 -30 62 -31 69 -5 4 15 -5 25 -38 45 -54 31 -100 93 -122 163 -29
92 -104 160 -196 177 -23 5 -62 1 -106 -10 -85 -21 -114 -14 -201 51 -120 88
-176 102 -282 66z"/>
<path d="M2617 8183 c-11 -3 -16 -10 -13 -20 3 -8 6 -18 6 -21 0 -4 20 -8 43
-9 69 -2 110 -25 158 -88 54 -71 120 -110 262 -154 56 -17 122 -41 147 -54 43
-21 45 -24 48 -71 2 -27 -3 -81 -12 -120 -34 -165 -30 -198 34 -261 39 -38 40
-38 54 -19 13 17 12 22 -14 49 -49 51 -53 78 -30 196 11 57 20 128 20 158 0
78 -33 107 -176 150 -136 41 -248 94 -271 127 -44 64 -87 104 -126 118 -49 17
-105 26 -130 19z"/>
<path d="M11562 8181 c-8 -4 -12 -16 -10 -26 2 -12 15 -18 50 -21 66 -5 113
-32 156 -89 55 -73 113 -107 274 -159 79 -26 152 -56 165 -68 29 -27 29 -56 3
-179 -11 -52 -20 -112 -20 -133 0 -69 79 -173 109 -143 15 15 14 37 -4 43 -23
9 -55 68 -55 102 0 16 9 74 20 127 24 117 25 147 5 189 -20 42 -63 65 -205
110 -151 47 -204 78 -257 148 -28 36 -59 63 -86 76 -49 23 -126 36 -145 23z"/>
<path d="M4710 8076 c0 -30 -32 -39 -168 -47 -151 -8 -196 -20 -231 -65 -20
-26 -22 -37 -19 -139 3 -107 2 -113 -25 -153 -41 -63 -116 -107 -230 -137 -54
-14 -112 -32 -128 -41 -39 -20 -64 -62 -79 -135 -15 -72 -35 -93 -129 -138
-71 -35 -79 -44 -62 -70 7 -11 23 -7 84 23 94 45 130 80 147 143 34 133 35
134 177 169 139 35 220 86 271 173 26 43 27 52 24 155 -3 116 2 130 48 148 14
5 87 13 162 17 147 8 178 19 200 67 10 20 9 27 -3 35 -21 13 -39 11 -39 -5z"/>
<path d="M6033 8084 c-7 -3 -9 -24 -6 -64 9 -91 -2 -124 -59 -187 -114 -127
-138 -297 -51 -376 131 -119 143 -141 179 -318 31 -158 73 -236 145 -274 22
-12 26 -11 36 5 10 15 6 22 -28 49 -54 44 -77 95 -105 234 -13 66 -35 143 -48
172 -22 48 -75 110 -138 161 -73 58 -50 209 46 312 56 60 76 106 76 175 0 100
-11 125 -47 111z"/>
<path d="M13655 8071 c-9 -28 -54 -39 -185 -44 -206 -8 -247 -43 -234 -202 8
-105 3 -126 -48 -181 -54 -58 -111 -87 -229 -115 -122 -28 -157 -60 -183 -164
-10 -38 -25 -78 -34 -89 -9 -10 -52 -36 -95 -57 -70 -36 -76 -41 -67 -59 6
-11 13 -20 16 -20 17 0 163 83 183 103 13 15 33 59 45 104 26 94 48 113 163
138 103 23 178 62 234 122 61 65 73 104 65 213 -4 48 -4 95 0 104 13 34 63 48
209 56 156 8 186 19 203 70 8 23 7 30 -5 34 -24 10 -31 7 -38 -13z"/>
<path d="M14975 8080 c-3 -6 -3 -34 0 -63 10 -76 -7 -125 -66 -192 -61 -70
-87 -127 -96 -206 -9 -86 13 -133 91 -202 80 -71 108 -127 137 -272 30 -157
60 -219 131 -271 24 -18 35 -21 45 -13 20 17 16 26 -29 67 -53 48 -73 93 -102
240 -29 146 -58 204 -141 279 -72 65 -84 85 -85 139 0 71 26 136 80 198 28 32
57 70 65 85 32 63 28 212 -7 219 -9 2 -19 -2 -23 -8z"/>
<path d="M6977 7967 c-18 -18 -45 -50 -60 -70 -26 -35 -31 -37 -83 -37 -87 0
-140 -34 -198 -127 -25 -41 -25 -43 -7 -53 27 -14 25 -16 59 40 41 66 82 90
152 90 66 0 86 12 141 86 22 30 47 54 55 54 50 0 167 -92 210 -165 27 -47 69
-71 106 -60 13 4 60 23 105 42 75 32 81 37 73 56 -10 26 -3 27 -111 -18 -48
-19 -93 -33 -101 -30 -7 3 -22 21 -33 41 -25 47 -122 136 -177 163 -63 30 -94
27 -131 -12z"/>
<path d="M15943 7987 c-12 -7 -39 -37 -60 -67 l-39 -55 -69 -6 c-39 -3 -79
-10 -91 -17 -28 -15 -89 -83 -108 -121 -15 -29 -15 -31 5 -41 11 -7 22 -10 23
-8 1 2 12 19 24 38 11 19 34 48 51 64 26 25 41 30 105 35 83 7 99 17 144 88
15 24 37 46 48 49 46 12 151 -65 208 -151 58 -87 75 -90 210 -33 85 36 90 40
82 66 -7 20 -10 19 -101 -19 -51 -21 -98 -39 -104 -39 -5 0 -26 25 -47 55 -44
68 -103 120 -169 151 -56 27 -80 29 -112 11z"/>
<path d="M2187 7844 c-3 -3 -1 -19 5 -35 8 -22 39 -49 123 -104 188 -123 195
-150 78 -289 -41 -49 -43 -90 -8 -164 43 -93 33 -128 -60 -212 -22 -20 -58
-53 -80 -73 -38 -34 -39 -37 -23 -53 16 -16 22 -13 100 55 143 124 164 180
113 295 -32 72 -31 88 4 128 61 70 81 109 81 158 0 63 -39 107 -174 194 -58
38 -108 77 -111 88 -6 17 -35 25 -48 12z"/>
<path d="M11130 7832 c0 -33 32 -64 144 -136 168 -109 177 -134 91 -247 -31
-41 -58 -84 -62 -97 -3 -15 6 -49 26 -94 17 -39 31 -79 31 -90 0 -37 -31 -77
-112 -149 -46 -39 -87 -76 -93 -80 -6 -6 -3 -15 7 -26 16 -15 19 -14 50 9 74
57 166 149 182 182 23 50 20 87 -16 166 l-31 71 32 42 c77 102 86 120 86 166
0 67 -31 102 -163 188 -64 42 -116 83 -119 94 -7 25 -53 27 -53 1z"/>
<path d="M5200 7285 c-5 -14 -10 -31 -10 -36 0 -6 -14 -44 -31 -86 -27 -63
-37 -77 -65 -89 -18 -8 -45 -14 -58 -14 -49 0 -136 -41 -186 -88 -39 -37 -58
-65 -85 -130 -40 -98 -72 -143 -126 -179 -32 -21 -37 -28 -28 -44 13 -26 21
-24 71 14 54 41 98 106 133 196 41 108 109 162 230 181 81 13 110 30 137 84
29 57 78 206 68 206 -5 0 -15 3 -24 6 -11 4 -19 -2 -26 -21z"/>
<path d="M14127 7228 c-44 -136 -73 -168 -150 -168 -46 0 -149 -52 -195 -98
-23 -23 -48 -63 -61 -96 -36 -97 -58 -132 -118 -185 -53 -47 -56 -52 -41 -67
15 -16 19 -15 56 12 21 16 51 43 65 60 29 34 77 125 77 145 0 29 53 99 96 127
52 35 87 47 159 57 73 10 111 54 154 179 28 81 32 100 20 107 -27 17 -35 8
-62 -73z"/>
<path d="M555 7203 c3 -16 17 -39 31 -53 23 -24 30 -25 144 -26 134 -2 125 2
240 -94 121 -102 167 -110 251 -46 84 63 103 69 198 61 141 -12 161 -10 231
25 79 40 74 34 61 59 -11 20 -13 19 -87 -16 -73 -35 -78 -36 -126 -25 -63 15
-155 15 -199 1 -19 -7 -61 -31 -93 -55 -33 -24 -70 -44 -82 -44 -21 0 -77 39
-179 124 -59 50 -116 65 -223 58 -70 -4 -85 -2 -102 13 -11 10 -20 24 -20 32
0 7 -11 13 -26 13 -23 0 -25 -3 -19 -27z"/>
<path d="M9500 7209 c0 -66 49 -90 182 -88 120 3 131 -2 226 -86 126 -110 172
-117 273 -41 69 52 105 62 197 51 120 -14 143 -11 215 22 67 32 72 38 61 66
-5 13 -17 10 -72 -16 -69 -32 -74 -33 -213 -22 -103 9 -138 -1 -212 -56 -28
-22 -62 -42 -73 -45 -30 -8 -71 15 -146 81 -101 90 -125 99 -246 97 -109 -2
-142 6 -142 38 0 15 -7 20 -25 20 -19 0 -25 -5 -25 -21z"/>
<path d="M8108 6849 c-50 -18 -56 -23 -49 -40 8 -25 12 -25 79 -4 67 22 107
14 169 -30 135 -98 184 -115 273 -97 90 19 131 15 181 -16 47 -30 57 -45 89
-134 24 -66 95 -150 151 -178 48 -25 49 -25 49 5 0 17 -9 29 -29 39 -48 25
-108 102 -130 168 -28 82 -60 121 -126 153 -58 29 -69 29 -226 9 -54 -7 -81 5
-179 76 -103 75 -150 84 -252 49z"/>
<path d="M17062 6852 c-64 -23 -66 -25 -53 -50 10 -19 11 -19 68 1 79 28 113
19 213 -53 119 -86 126 -87 293 -63 98 14 172 -37 207 -142 25 -74 71 -140
126 -177 52 -35 78 -39 82 -12 2 16 -8 28 -41 47 -57 33 -93 82 -119 159 -26
76 -83 140 -144 164 -35 13 -58 15 -112 9 -146 -17 -165 -14 -229 32 -142 104
-194 119 -291 85z"/>
<path d="M7015 6695 c-22 -8 -51 -28 -65 -46 -78 -99 -67 -93 -187 -100 -165
-10 -215 -39 -304 -176 -23 -35 -46 -64 -53 -65 -6 -1 -58 -2 -116 -2 -129 -2
-152 -12 -212 -98 l-44 -63 -64 0 c-58 0 -65 -2 -65 -20 0 -17 9 -21 68 -28
80 -10 86 -7 148 85 48 70 84 83 200 73 96 -9 124 4 170 77 45 70 96 126 133
145 18 9 73 18 140 23 61 4 123 13 138 20 15 7 43 36 62 65 37 56 83 82 131
73 18 -4 24 0 28 18 7 37 -36 44 -108 19z"/>
<path d="M15963 6699 c-18 -5 -47 -27 -65 -50 -82 -102 -63 -91 -189 -100
-165 -11 -207 -32 -280 -142 -75 -111 -72 -109 -164 -102 -136 12 -185 -10
-251 -112 l-33 -52 -66 6 c-64 6 -65 6 -65 -19 0 -24 4 -26 65 -32 80 -8 96 0
139 67 58 91 61 92 196 92 137 0 134 -2 211 112 27 39 61 80 77 92 38 27 101
40 190 41 96 0 131 16 181 83 49 67 51 69 109 72 42 3 47 6 47 27 0 19 -5 23
-35 25 -19 1 -49 -3 -67 -8z"/>
<path d="M1286 6662 c-3 -5 13 -40 35 -78 23 -38 56 -99 75 -136 42 -83 73
-105 221 -160 179 -65 198 -91 187 -254 -10 -143 0 -157 187 -237 54 -23 56
-26 98 -113 44 -92 66 -122 113 -155 27 -20 27 -20 38 2 10 19 8 25 -23 50
-22 18 -51 62 -81 123 -51 106 -67 120 -172 160 -110 41 -115 49 -112 192 3
98 0 125 -14 151 -27 49 -78 82 -193 124 -144 52 -171 70 -204 138 -76 158
-133 228 -155 193z"/>
<path d="M10235 6660 c-6 -10 15 -57 47 -102 10 -15 34 -58 53 -96 43 -88 81
-119 197 -162 128 -46 161 -64 193 -102 26 -31 27 -36 25 -132 -2 -56 -2 -113
-1 -128 2 -47 45 -84 137 -119 97 -37 112 -52 168 -171 41 -85 96 -139 124
-121 26 16 24 28 -8 47 -22 12 -44 45 -76 109 -25 51 -58 104 -72 119 -15 16
-61 41 -110 60 -112 42 -118 51 -114 190 5 173 -25 215 -201 277 -158 56 -176
69 -224 166 -72 146 -116 200 -138 165z"/>
<path d="M3684 6654 c-9 -4 -8 -16 1 -48 31 -103 46 -115 168 -134 112 -17
144 -50 186 -197 24 -82 67 -140 125 -166 52 -24 93 -23 185 1 41 11 106 20
145 20 60 0 79 -5 123 -30 29 -17 57 -38 62 -48 29 -48 39 -55 60 -40 20 15
20 15 -8 54 -80 109 -213 141 -391 94 -95 -25 -127 -25 -168 0 -40 25 -68 69
-88 140 -25 89 -45 129 -83 162 -45 40 -88 57 -161 65 -68 7 -86 21 -104 85
-13 41 -27 53 -52 42z"/>
<path d="M12626 6651 c-9 -14 23 -109 47 -136 18 -21 36 -28 97 -36 131 -18
174 -58 214 -199 20 -70 58 -129 102 -159 49 -34 113 -37 204 -12 95 27 200
27 255 2 23 -10 59 -39 81 -64 32 -36 43 -43 57 -36 25 14 22 24 -25 76 -86
93 -205 116 -374 72 -47 -12 -95 -19 -118 -16 -66 9 -119 76 -145 182 -29 119
-94 177 -224 199 -41 7 -79 16 -85 20 -6 4 -19 31 -28 61 -13 39 -23 55 -35
55 -10 0 -20 -4 -23 -9z"/>
<path d="M605 6468 c-85 -100 -114 -221 -81 -338 22 -78 16 -104 -45 -186 -90
-122 -109 -237 -59 -357 28 -68 21 -90 -41 -128 -40 -25 -45 -34 -30 -57 20
-32 126 55 136 112 5 23 -1 50 -19 94 -45 106 -29 195 54 307 67 91 76 128 54
221 -28 121 -7 210 70 300 26 31 32 44 25 57 -15 25 -24 21 -64 -25z"/>
<path d="M9546 6460 c-77 -86 -110 -208 -82 -303 19 -65 21 -120 5 -149 -6
-12 -31 -48 -55 -81 -74 -100 -96 -233 -54 -326 36 -78 26 -105 -58 -161 -21
-13 -21 -17 -9 -34 14 -19 15 -19 50 3 86 53 108 120 67 201 -24 48 -27 139
-5 201 9 23 33 65 54 93 76 100 85 142 55 261 -14 53 -14 73 -5 111 16 63 47
122 83 160 22 24 28 38 23 53 -3 12 -10 21 -15 21 -4 0 -29 -23 -54 -50z"/>
<path d="M3200 6466 c-26 -6 -62 -22 -81 -34 -40 -24 -129 -118 -174 -184 -66
-94 -158 -109 -312 -48 l-82 33 -103 -46 c-87 -39 -109 -45 -145 -40 -41 5
-43 4 -43 -19 0 -22 5 -26 47 -32 41 -5 58 -1 146 38 l99 45 74 -29 c165 -66
280 -44 359 69 86 123 177 196 255 204 23 3 36 11 41 26 5 11 4 21 -1 21 -4 0
-14 2 -22 4 -7 3 -33 -1 -58 -8z"/>
<path d="M12157 6468 c-88 -19 -166 -79 -242 -187 -91 -129 -148 -145 -318
-86 l-107 36 -56 -26 c-123 -58 -145 -65 -183 -59 -30 5 -39 3 -45 -11 -9 -25
-1 -32 44 -39 32 -5 57 0 118 24 42 17 87 38 100 46 21 14 30 13 102 -15 186
-72 281 -47 385 100 74 106 154 166 227 171 33 2 48 13 48 34 0 17 -29 22 -73
12z"/>
<path d="M7490 6165 c-10 -12 -6 -24 28 -67 51 -68 65 -115 50 -181 -26 -123
32 -282 120 -326 21 -10 67 -21 104 -24 97 -9 148 -38 268 -152 122 -117 172
-145 252 -145 54 0 55 1 50 25 -4 22 -9 25 -49 25 -64 0 -116 31 -223 134 -52
51 -111 101 -130 113 -46 28 -134 53 -184 53 -58 0 -99 29 -130 92 -33 67 -41
127 -27 200 14 78 -3 141 -59 213 -23 30 -46 55 -50 55 -4 0 -13 -7 -20 -15z"/>
<path d="M16430 6165 c-10 -12 -6 -22 25 -56 59 -65 66 -93 59 -217 -6 -95 -4
-113 16 -165 23 -60 67 -119 103 -139 11 -6 54 -14 96 -19 108 -12 165 -44
279 -156 113 -109 171 -143 250 -143 50 0 53 2 50 23 -3 19 -11 23 -58 28 -74
8 -87 16 -207 130 -125 119 -194 157 -303 166 -91 8 -128 36 -160 121 -20 51
-21 69 -15 164 8 123 -4 164 -70 237 -41 45 -47 48 -65 26z"/>
<path d="M5940 5740 c-104 -19 -191 -64 -276 -141 -30 -27 -63 -49 -74 -49
-10 0 -54 16 -97 37 -112 52 -173 52 -310 -2 -77 -30 -103 -45 -103 -58 0 -31
25 -29 128 12 55 23 117 41 137 41 21 0 71 -15 114 -34 135 -61 154 -60 235
13 94 85 201 133 301 135 44 0 60 -5 114 -42 76 -50 157 -76 218 -69 52 6 54
7 47 34 -5 18 -11 21 -39 16 -53 -9 -130 15 -202 63 -37 24 -72 44 -79 44 -6
0 -24 2 -40 4 -16 2 -49 1 -74 -4z"/>
<path d="M14880 5739 c-82 -14 -190 -69 -259 -133 -34 -31 -70 -56 -82 -56
-12 0 -58 17 -103 37 -108 49 -160 53 -251 18 -38 -14 -91 -34 -118 -43 -40
-13 -46 -19 -41 -36 9 -31 9 -31 71 -7 194 75 202 75 330 17 118 -53 139 -50
229 34 121 114 314 159 387 92 56 -52 181 -91 249 -78 32 6 36 9 29 28 -6 18
-16 21 -72 22 -47 2 -77 9 -116 29 -28 15 -54 31 -58 37 -21 35 -112 53 -195
39z"/>
<path d="M3377 5625 c-6 -15 -71 -51 -122 -67 -16 -6 -90 -13 -163 -17 -143
-8 -162 -15 -206 -75 -21 -27 -24 -86 -14 -241 3 -37 0 -42 -43 -70 -25 -16
-54 -35 -64 -41 -17 -9 -17 -12 -4 -32 l15 -21 61 39 c79 50 97 76 89 132 -4
24 -9 75 -12 114 -6 69 -5 73 24 105 l30 33 133 7 c141 7 202 22 270 65 40 25
64 58 54 74 -9 15 -42 12 -48 -5z"/>
<path d="M12303 5610 c-49 -44 -146 -70 -266 -70 -81 0 -109 -4 -143 -21 -81
-38 -108 -122 -80 -242 20 -83 15 -95 -59 -136 -54 -31 -69 -56 -40 -67 16 -6
112 45 137 73 26 30 29 59 13 128 -19 83 -19 109 0 149 25 51 48 59 190 67
153 8 226 31 289 90 34 32 38 40 26 49 -23 15 -32 12 -67 -20z"/>
<path d="M3951 5601 c-11 -7 -10 -17 9 -56 25 -51 37 -128 26 -168 -3 -14 -25
-49 -49 -79 -80 -97 -83 -118 -36 -235 39 -99 47 -175 22 -223 -10 -19 -51
-61 -91 -93 -40 -32 -79 -71 -86 -85 -8 -15 -15 -56 -17 -92 -4 -60 -2 -65 17
-68 25 -4 34 19 34 86 0 48 10 60 119 151 105 87 116 176 42 359 -11 29 -21
63 -21 76 0 13 22 51 49 85 28 34 55 78 62 98 16 49 7 138 -21 201 -22 52 -33
59 -59 43z"/>
<path d="M12895 5600 c-3 -6 5 -39 19 -74 41 -103 33 -150 -43 -241 -65 -78
-69 -105 -32 -200 77 -202 70 -231 -92 -368 -61 -52 -77 -86 -77 -169 0 -45 2
-48 25 -48 23 0 25 3 25 53 0 70 13 91 93 156 132 108 149 183 83 366 -41 112
-41 113 19 185 58 68 79 123 72 187 -10 96 -68 192 -92 153z"/>
<path d="M1139 5453 c-11 -3 -15 -12 -11 -29 3 -16 9 -23 19 -20 25 10 113
-15 144 -41 16 -14 36 -38 45 -54 30 -59 121 -107 319 -169 134 -43 139 -47
132 -135 -3 -38 -13 -107 -21 -151 -19 -101 -10 -140 45 -198 38 -40 40 -40
54 -22 14 18 13 23 -14 50 -53 55 -56 89 -22 236 6 25 11 73 11 107 0 96 -18
112 -193 168 -168 54 -238 91 -271 144 -31 48 -76 86 -118 99 -44 14 -99 21
-119 15z"/>
<path d="M10082 5451 c-8 -4 -12 -17 -10 -27 2 -14 14 -19 51 -21 67 -5 111
-30 155 -88 56 -74 113 -107 278 -160 80 -26 155 -56 165 -66 24 -24 24 -62
-1 -184 -11 -53 -20 -113 -20 -133 0 -41 38 -112 73 -135 22 -14 26 -14 40 0
15 15 13 20 -23 60 -47 50 -50 74 -20 203 35 151 23 213 -48 248 -20 11 -89
36 -152 56 -152 48 -204 78 -257 148 -28 36 -59 63 -86 76 -49 23 -126 36
-145 23z"/>
<path d="M6790 5216 c0 -32 21 -66 49 -81 22 -11 60 -15 138 -15 122 0 127 -2
228 -90 121 -105 171 -112 269 -35 67 51 102 61 194 50 124 -14 147 -12 220
24 65 32 69 36 60 56 l-10 23 -75 -36 c-74 -35 -77 -35 -132 -24 -124 26 -199
13 -281 -48 -90 -67 -105 -64 -220 35 -102 88 -121 95 -249 95 -113 0 -141 9
-141 46 0 8 -10 14 -25 14 -15 0 -25 -6 -25 -14z"/>
<path d="M15735 5208 c12 -39 35 -68 61 -78 14 -6 74 -10 132 -10 121 0 114 3
226 -93 72 -61 119 -87 158 -87 23 0 61 21 139 75 39 27 49 30 118 29 42 -1
103 -3 136 -5 52 -3 70 1 128 28 69 33 73 38 58 62 -8 12 -20 10 -73 -14 -66
-30 -81 -31 -214 -20 -95 9 -135 -1 -198 -50 -96 -73 -112 -71 -227 26 -45 39
-92 76 -103 82 -12 7 -77 14 -146 17 -124 5 -125 5 -138 33 -9 19 -21 27 -38
27 -22 0 -24 -3 -19 -22z"/>
<path d="M6250 5055 c0 -19 7 -28 28 -35 115 -42 195 -138 236 -284 21 -73 46
-96 133 -124 119 -38 189 -121 217 -255 16 -74 25 -93 61 -127 21 -20 39 -25
97 -28 39 -3 104 1 145 8 66 12 74 15 71 34 -2 17 -9 21 -33 19 -210 -17 -220
-17 -249 8 -21 18 -31 41 -42 92 -7 37 -25 90 -39 117 -50 99 -108 144 -247
194 -47 17 -47 18 -73 98 -52 161 -146 262 -282 303 -20 5 -23 3 -23 -20z"/>
<path d="M15196 5063 c-10 -26 -7 -29 47 -51 99 -41 169 -127 212 -260 14 -44
34 -87 44 -96 9 -9 42 -24 73 -35 30 -10 68 -26 85 -35 74 -38 131 -124 153
-231 26 -127 61 -155 190 -154 91 1 181 18 187 34 1 6 -1 16 -6 24 -8 12 -19
12 -67 3 -31 -7 -88 -12 -126 -12 -88 0 -109 18 -127 108 -32 162 -109 253
-256 302 -35 12 -68 26 -73 33 -5 7 -19 43 -31 82 -29 88 -61 144 -118 201
-68 67 -176 118 -187 87z"/>
<path d="M876 5025 c-8 -33 -61 -65 -107 -65 -20 0 -74 7 -120 16 -46 9 -112
14 -145 12 -76 -5 -121 -36 -164 -112 -49 -87 -63 -95 -183 -111 -127 -17
-157 -32 -157 -83 l0 -35 23 20 c35 32 57 40 132 47 139 14 168 31 225 132 17
30 45 63 63 74 39 24 113 26 207 5 137 -30 227 -7 264 68 20 42 20 42 -10 51
-17 5 -23 2 -28 -19z"/>
<path d="M9821 5028 c-24 -63 -91 -80 -215 -54 -187 39 -268 10 -332 -116 -13
-26 -35 -55 -49 -64 -13 -9 -69 -22 -123 -29 -54 -7 -108 -18 -119 -24 -26
-13 -93 -89 -113 -126 -13 -25 -13 -28 4 -41 18 -12 22 -10 52 34 57 84 72 93
181 107 144 19 160 29 215 125 47 81 69 95 151 95 40 0 110 -7 157 -14 111
-18 153 -10 202 39 40 40 49 74 22 84 -23 9 -24 8 -33 -16z"/>
<path d="M5160 4941 c-31 -75 -122 -125 -244 -135 -145 -11 -182 -58 -192
-241 -8 -154 -9 -156 -119 -210 -92 -45 -95 -47 -151 -130 -41 -62 -64 -87
-83 -91 -37 -8 -111 -35 -111 -40 0 -3 4 -14 10 -24 9 -17 12 -17 57 -2 96 30
109 39 148 99 58 89 83 111 171 153 109 53 116 65 126 217 8 129 23 184 57
202 11 6 60 15 109 20 131 14 217 64 263 154 19 36 19 38 2 44 -10 3 -21 8
-24 9 -4 2 -12 -9 -19 -25z"/>
<path d="M14092 4921 c-44 -71 -98 -100 -212 -111 -171 -18 -197 -50 -210
-257 -4 -80 -12 -128 -21 -139 -8 -10 -51 -34 -96 -55 -83 -39 -96 -50 -170
-158 -42 -60 -46 -63 -118 -83 -38 -11 -50 -19 -50 -33 0 -23 22 -24 95 -5 56
14 70 27 130 115 57 85 60 88 130 115 63 25 114 61 131 92 6 11 15 79 19 151
7 104 12 135 27 156 25 32 72 50 139 50 100 2 196 52 245 128 34 55 35 59 10
72 -16 9 -23 3 -49 -38z"/>
<path d="M2460 4770 c-13 -8 -12 -13 6 -37 33 -44 93 -71 205 -93 196 -39 209
-53 209 -225 0 -122 10 -155 65 -210 65 -64 148 -96 277 -106 82 -6 115 -12
129 -25 19 -17 21 -17 39 2 19 19 19 19 -14 42 -28 19 -54 25 -143 31 -111 9
-161 24 -223 66 -63 43 -74 75 -80 215 -8 191 -27 212 -232 254 -123 26 -171
45 -191 76 -13 22 -24 24 -47 10z"/>
<path d="M11403 4764 c-3 -9 7 -28 28 -50 36 -37 107 -63 229 -85 146 -25 160
-42 163 -205 2 -106 5 -124 27 -164 29 -52 99 -108 167 -134 26 -10 94 -21
150 -26 69 -5 111 -13 129 -25 23 -15 28 -15 41 -2 36 36 -30 67 -161 76 -107
8 -170 29 -234 78 -55 42 -72 92 -71 216 1 88 -2 112 -18 139 -26 45 -74 75
-141 88 -155 30 -216 50 -247 80 -35 33 -53 38 -62 14z"/>
<path d="M18003 4760 c-72 -11 -111 -36 -160 -106 -23 -32 -42 -61 -43 -64 0
-3 9 -11 20 -17 18 -12 23 -7 60 47 48 71 73 85 163 95 62 6 67 8 67 31 0 27
-10 28 -107 14z"/>
<path d="M5847 4563 c-19 -18 -3 -86 45 -192 82 -187 74 -220 -65 -263 -95
-28 -112 -47 -127 -139 -6 -41 -18 -84 -26 -96 -17 -28 -82 -47 -208 -64 -82
-11 -96 -15 -96 -31 0 -29 21 -31 135 -14 179 26 227 61 241 175 11 90 16 98
81 117 184 53 207 117 114 326 -28 64 -51 129 -51 146 0 18 -6 32 -16 36 -19
7 -19 7 -27 -1z"/>
<path d="M14786 4544 c-8 -32 -5 -44 55 -180 77 -176 68 -212 -66 -254 -96
-31 -114 -50 -130 -145 -21 -119 -40 -131 -232 -156 -88 -11 -93 -13 -93 -35
0 -17 6 -24 20 -24 37 0 218 30 246 41 64 24 96 74 109 169 4 30 12 60 17 67
5 6 45 24 88 38 147 49 172 114 104 275 -67 160 -74 179 -67 196 6 16 -11 34
-33 34 -7 0 -15 -12 -18 -26z"/>
<path d="M948 4384 c-14 -14 -12 -21 14 -70 37 -68 55 -79 146 -93 102 -16
136 -32 208 -101 72 -69 95 -74 199 -41 59 19 61 19 110 -1 28 -11 76 -30 107
-41 l57 -22 83 28 c47 15 96 27 111 27 15 0 84 -12 154 -26 155 -31 224 -25
208 19 -5 10 -24 14 -73 14 -37 1 -109 10 -159 22 -119 27 -145 26 -244 -5
l-82 -26 -56 23 c-149 59 -147 59 -222 38 -100 -28 -108 -26 -168 35 -63 64
-117 90 -220 105 -41 7 -78 14 -83 17 -5 3 -18 25 -29 49 -27 58 -41 69 -61
49z"/>
<path d="M9896 4387 c-17 -12 -16 -16 14 -74 36 -69 51 -78 153 -94 90 -14
136 -37 196 -99 56 -58 87 -68 161 -50 108 25 115 24 212 -15 l93 -38 60 16
c33 9 79 22 103 29 37 11 58 9 160 -12 112 -23 217 -31 239 -17 6 4 9 16 6 28
-5 18 -11 20 -47 15 -26 -4 -83 3 -161 19 -149 31 -170 31 -270 -1 l-81 -27
-93 38 c-101 41 -132 44 -200 20 -75 -26 -94 -21 -160 44 -65 64 -108 84 -222
102 -71 11 -85 19 -104 63 -24 56 -38 69 -59 53z"/>
<path d="M8600 4029 c0 -5 -9 -18 -20 -29 -16 -16 -34 -20 -87 -21 -109 0
-216 -15 -255 -33 -57 -27 -70 -65 -62 -180 7 -90 6 -97 -19 -139 -45 -76
-111 -117 -242 -147 -143 -33 -173 -59 -198 -169 -18 -76 -38 -99 -131 -147
-39 -20 -72 -38 -74 -40 -2 -1 1 -12 8 -23 10 -21 12 -20 88 18 111 56 141 90
157 176 9 51 30 92 54 105 11 5 58 19 106 30 143 33 230 89 279 180 28 51 29
57 23 147 -4 60 -3 102 4 115 17 32 69 47 195 53 146 8 180 18 205 59 24 40
24 43 -6 48 -14 3 -25 1 -25 -3z"/>
<path d="M17530 4010 c-24 -25 -31 -27 -150 -34 -145 -8 -189 -18 -227 -51
-28 -23 -28 -25 -28 -142 0 -131 -7 -153 -67 -210 -47 -44 -101 -70 -200 -94
-136 -33 -167 -60 -195 -166 -21 -83 -34 -98 -123 -143 -44 -22 -80 -44 -80
-48 0 -4 5 -14 10 -22 7 -12 22 -8 91 25 91 45 123 76 140 138 34 127 43 136
184 172 117 30 167 57 227 124 57 63 72 112 63 207 -13 137 1 149 195 159 151
8 186 17 205 55 19 37 19 47 -3 52 -10 3 -27 -6 -42 -22z"/>
<path d="M220 3981 c0 -51 -18 -86 -78 -149 -63 -66 -66 -151 -11 -251 66
-117 69 -125 69 -178 0 -59 -20 -115 -53 -152 -26 -28 -92 -60 -124 -61 -19 0
-23 -6 -23 -29 l0 -29 59 15 c117 30 191 127 191 254 0 52 -5 76 -26 115 -15
27 -40 73 -55 103 -46 86 -38 134 34 204 39 38 67 103 67 160 0 44 -2 47 -25
47 -23 0 -25 -3 -25 -49z"/>
<path d="M9165 4000 c10 -44 -12 -98 -60 -149 -57 -61 -65 -80 -65 -144 0 -55
1 -56 84 -211 33 -63 34 -123 2 -192 -35 -75 -60 -92 -179 -118 -24 -6 -35
-21 -72 -100 -37 -79 -49 -95 -75 -105 -28 -9 -30 -13 -20 -32 9 -16 17 -19
38 -14 41 10 56 28 96 119 37 82 39 84 78 90 171 27 261 230 172 384 -63 108
-74 136 -74 183 0 44 5 53 54 109 57 64 82 128 71 181 -5 23 -12 29 -32 29
-22 0 -24 -3 -18 -30z"/>
<path d="M6389 3984 c-11 -14 -3 -25 62 -88 41 -40 103 -104 139 -143 60 -65
70 -72 123 -83 49 -10 70 -9 135 5 42 9 100 19 128 22 l51 5 57 -67 c67 -79
97 -105 151 -132 44 -22 110 -37 124 -28 21 12 -2 43 -37 50 -64 12 -108 43
-192 135 -81 88 -84 90 -127 90 -25 0 -73 -7 -107 -16 -84 -22 -173 -23 -213
-1 -18 10 -62 52 -97 95 -55 66 -165 172 -179 172 -3 0 -10 -7 -18 -16z"/>
<path d="M15337 3989 c-17 -10 -10 -21 70 -104 48 -51 109 -116 134 -143 76
-83 172 -98 329 -52 19 5 51 10 72 10 33 0 41 -6 88 -66 65 -81 128 -130 193
-149 71 -21 87 -20 87 8 0 19 -8 24 -52 35 -70 16 -119 52 -190 139 -34 42
-70 76 -84 79 -31 8 -96 1 -192 -20 -111 -25 -185 -3 -234 67 -24 36 -188 207
-197 207 -3 0 -14 -5 -24 -11z"/>
<path d="M18102 3919 c-1 -8 -24 -40 -52 -71 -53 -60 -70 -93 -70 -137 0 -41
25 -108 67 -175 19 -32 39 -75 44 -95 24 -101 -48 -220 -146 -242 -27 -6 -57
-14 -65 -18 -8 -4 -35 -47 -60 -96 -32 -64 -53 -94 -72 -103 -30 -14 -32 -19
-19 -41 7 -11 15 -11 45 -1 33 10 41 21 81 106 33 68 50 94 63 94 42 0 114 34
152 72 l40 40 0 138 0 138 -34 56 c-37 61 -52 121 -41 158 4 13 23 39 42 59
31 33 34 40 30 85 -2 27 -4 42 -5 33z"/>
<path d="M1145 3559 c-11 -6 -39 -37 -62 -70 l-43 -59 -55 0 c-31 0 -70 -6
-88 -13 -35 -15 -97 -79 -121 -126 -15 -29 -15 -31 6 -42 15 -8 23 -9 26 -1 8
24 63 92 89 109 15 10 56 20 97 24 75 7 69 2 152 105 30 38 31 38 70 26 49
-14 143 -97 178 -156 44 -76 72 -78 218 -16 72 30 76 33 66 55 l-10 23 -93
-39 c-51 -22 -99 -37 -107 -34 -8 3 -22 21 -33 41 -10 20 -46 61 -79 91 -88
81 -157 108 -211 82z"/>
<path d="M10088 3559 c-10 -5 -32 -31 -49 -57 -44 -65 -55 -72 -118 -72 -71 0
-126 -32 -174 -102 -43 -61 -43 -64 -18 -77 15 -9 24 -2 54 42 46 66 81 87
147 87 69 0 99 18 143 84 25 37 44 56 58 56 54 0 152 -78 215 -171 45 -66 65
-68 182 -21 86 35 97 42 94 63 -1 12 -4 24 -5 26 -2 1 -39 -13 -83 -31 -126
-54 -117 -55 -159 9 -81 121 -222 202 -287 164z"/>
<path d="M3781 3461 c-19 -12 -9 -44 14 -46 62 -5 96 -19 144 -60 80 -68 105
-72 284 -37 95 19 173 -27 197 -117 23 -85 79 -118 217 -128 l83 -6 0 25 c0
24 -3 25 -80 31 -116 8 -149 27 -177 103 -29 76 -76 122 -141 139 -42 11 -63
10 -150 -6 -120 -21 -146 -17 -206 39 -52 48 -153 82 -185 63z"/>
<path d="M12722 3461 c-6 -3 -9 -16 -6 -26 4 -15 15 -21 46 -23 50 -3 93 -24
139 -69 53 -50 97 -57 218 -34 78 15 108 17 137 9 49 -13 88 -56 109 -117 28
-84 88 -120 217 -129 l78 -5 0 27 c0 25 -2 26 -53 26 -65 0 -148 23 -169 47
-8 10 -20 34 -27 53 -44 132 -129 172 -294 139 -54 -10 -111 -16 -125 -13 -15
4 -45 24 -68 44 -53 49 -171 91 -202 71z"/>
<path d="M2826 3431 c-105 -43 -126 -84 -126 -248 0 -65 -4 -124 -9 -132 -7
-10 -26 -12 -89 -6 -82 7 -114 -1 -165 -39 -16 -12 -16 -17 -6 -34 13 -20 13
-20 54 4 39 22 48 24 133 18 l91 -7 20 34 c18 30 21 50 21 163 l0 128 33 33
c43 43 102 58 198 53 65 -4 85 -10 151 -46 41 -23 88 -42 104 -42 16 0 53 14
82 31 47 27 52 32 41 47 -8 9 -14 19 -15 20 -2 2 -22 -8 -47 -22 -24 -14 -51
-26 -61 -26 -9 0 -52 19 -94 42 -73 40 -81 43 -172 45 -76 3 -105 -1 -144 -16z"/>
<path d="M11798 3440 c-50 -15 -109 -54 -128 -86 -17 -27 -20 -50 -20 -153 0
-165 0 -165 -106 -156 -79 6 -87 5 -129 -20 -46 -26 -54 -42 -34 -62 9 -9 21
-5 49 13 35 23 43 25 127 18 84 -6 91 -5 110 15 28 30 33 62 33 195 0 101 2
115 21 135 37 40 97 61 175 61 81 0 127 -14 201 -59 64 -40 105 -40 166 -1 50
32 55 41 33 60 -12 9 -22 6 -53 -14 -49 -34 -72 -33 -133 5 -28 17 -72 37 -97
45 -50 15 -171 17 -215 4z"/>
<path d="M5985 3338 c-16 -6 -62 -33 -101 -60 l-71 -50 -69 7 c-38 4 -102 16
-143 25 -91 22 -112 17 -198 -50 -75 -57 -108 -63 -175 -29 -41 21 -57 16 -58
-17 0 -17 88 -54 131 -54 48 0 65 9 140 67 31 24 65 44 75 45 11 0 55 -7 99
-16 44 -10 112 -18 152 -19 69 -2 73 0 130 39 91 64 116 74 185 74 76 0 155
-34 240 -103 54 -44 57 -45 73 -28 15 18 13 21 -32 60 -26 22 -79 58 -118 78
-61 32 -80 37 -150 40 -44 1 -93 -2 -110 -9z"/>
<path d="M14925 3336 c-17 -7 -62 -35 -100 -61 -68 -46 -70 -47 -130 -40 -33
3 -98 15 -144 25 -97 21 -122 16 -195 -44 -77 -62 -111 -69 -181 -36 -44 20
-55 18 -55 -10 0 -26 68 -60 120 -60 47 0 87 18 146 66 61 50 77 53 163 32 42
-10 112 -20 156 -21 l80 -2 78 55 79 55 81 0 c96 0 155 -24 246 -99 43 -35 58
-43 68 -34 8 6 13 17 11 24 -5 21 -101 94 -168 127 -54 27 -78 32 -145 35 -52
1 -91 -3 -110 -12z"/>
<path d="M3772 2835 c-34 -73 -19 -154 42 -226 60 -71 55 -144 -19 -286 -68
-128 -64 -161 32 -265 55 -60 57 -95 9 -187 -18 -36 -44 -95 -56 -129 -20 -54
-21 -65 -9 -73 26 -17 35 -9 52 44 9 29 35 88 57 132 63 123 54 185 -41 277
-52 51 -51 81 6 190 76 145 81 237 16 318 -62 77 -71 116 -46 177 12 29 13 38
3 45 -22 13 -34 9 -46 -17z"/>
<path d="M12715 2826 c-31 -73 -17 -137 49 -221 28 -35 31 -46 31 -110 0 -63
-4 -77 -42 -147 -76 -141 -77 -180 -3 -261 83 -91 86 -113 36 -208 -41 -77
-89 -209 -77 -209 5 0 16 -3 24 -6 11 -4 22 14 42 66 15 40 43 101 61 137 52
99 46 150 -29 231 -81 86 -80 84 -9 231 36 72 47 107 50 155 5 70 -7 102 -64
181 -32 45 -35 55 -30 95 12 92 12 94 -7 98 -12 2 -22 -7 -32 -32z"/>
<path d="M1799 2727 c-16 -35 -39 -45 -128 -56 -91 -12 -110 -19 -164 -68 -26
-23 -44 -32 -55 -28 -116 48 -186 56 -250 30 -87 -37 -121 -100 -122 -223 0
-90 -17 -145 -51 -163 -29 -15 -65 -87 -89 -177 -12 -46 -21 -85 -19 -86 2 -2
13 -6 23 -8 20 -3 20 -4 55 117 16 53 31 81 61 113 57 59 70 96 70 199 0 100
16 138 72 174 42 26 130 21 201 -11 59 -26 84 -22 136 25 45 40 79 55 130 55
64 0 138 27 160 59 26 36 26 47 1 61 -17 9 -22 7 -31 -13z"/>
<path d="M10735 2716 c-31 -34 -38 -36 -163 -52 -43 -5 -62 -14 -105 -50 -30
-26 -58 -43 -67 -40 -8 3 -42 15 -75 27 -117 41 -229 8 -275 -81 -15 -29 -20
-59 -20 -117 0 -104 -11 -136 -64 -193 -35 -37 -49 -63 -66 -121 -11 -41 -25
-87 -31 -103 -10 -33 -11 -31 18 -40 19 -6 23 -2 34 36 34 128 49 160 92 207
54 57 67 98 67 206 0 94 18 132 73 158 50 24 109 21 183 -9 78 -31 95 -28 157
26 42 37 52 41 128 51 91 11 127 26 158 65 26 33 26 41 3 53 -14 8 -24 3 -47
-23z"/>
<path d="M7745 2721 c-22 -10 -69 -42 -104 -70 -83 -67 -123 -84 -187 -78 -42
4 -52 2 -62 -14 -11 -17 -9 -21 13 -29 41 -16 116 -11 160 9 22 10 69 42 105
71 81 65 120 85 154 76 14 -3 56 -33 92 -66 84 -76 102 -77 181 -11 118 98
175 106 286 39 52 -31 82 -43 123 -46 53 -4 54 -4 54 22 0 24 -3 26 -42 26
-31 0 -59 10 -111 42 -119 72 -209 64 -321 -28 -36 -30 -70 -54 -76 -54 -6 0
-35 22 -63 49 -88 83 -130 95 -202 62z"/>
<path d="M16695 2726 c-16 -7 -59 -37 -95 -66 -87 -71 -140 -94 -202 -88 -40
4 -51 2 -59 -13 -13 -25 16 -39 78 -39 62 0 129 32 218 104 74 59 119 75 155
56 12 -7 49 -36 81 -66 77 -71 96 -71 179 1 105 91 180 99 283 30 47 -31 70
-40 118 -43 58 -4 59 -4 59 22 0 24 -3 26 -43 26 -33 0 -60 10 -113 42 -123
75 -220 64 -332 -36 -29 -25 -58 -46 -64 -46 -6 0 -35 23 -64 50 -80 76 -135
94 -199 66z"/>
<path d="M6480 2690 c-7 -17 -22 -37 -34 -45 -26 -19 -112 -19 -191 0 -33 8
-86 15 -117 15 -80 0 -106 -24 -154 -146 -36 -91 -39 -95 -63 -89 -15 3 -60 9
-102 12 -64 5 -81 2 -117 -16 -71 -36 -124 -132 -146 -267 -7 -39 -6 -42 18
-46 23 -5 26 -2 32 41 9 63 39 146 64 182 42 57 108 72 221 48 78 -17 90 -7
134 104 20 52 44 102 54 111 22 20 84 20 171 1 149 -33 230 -14 270 64 20 40
20 40 1 51 -27 14 -27 14 -41 -20z"/>
<path d="M15425 2690 c-32 -62 -93 -74 -225 -45 -84 18 -154 19 -189 1 -29
-15 -55 -60 -94 -161 -21 -52 -27 -60 -48 -58 -13 2 -52 6 -86 9 -86 9 -128
-1 -175 -44 -48 -43 -82 -115 -99 -206 -13 -71 -13 -72 15 -78 16 -2 21 7 33
66 28 137 78 205 158 214 26 2 78 -1 116 -8 63 -12 71 -12 89 5 11 10 34 56
52 102 17 45 40 92 50 103 23 25 81 26 180 4 42 -10 97 -15 136 -12 62 4 67 6
104 47 42 48 48 76 18 84 -15 4 -24 -2 -35 -23z"/>
<path d="M2457 2568 c-4 -13 -1 -25 6 -29 89 -50 115 -82 141 -170 8 -30 23
-79 32 -111 19 -67 61 -121 117 -150 38 -20 55 -22 188 -20 165 3 154 8 219
-97 28 -44 45 -59 94 -82 34 -16 66 -29 72 -29 10 0 24 21 24 36 0 2 -28 17
-62 32 -56 26 -67 36 -102 95 -58 95 -67 98 -238 95 -118 -2 -148 1 -175 15
-58 31 -77 66 -114 204 -27 105 -67 165 -133 203 -61 36 -62 36 -69 8z"/>
<path d="M11406 2583 c-16 -17 -3 -44 29 -59 20 -9 49 -33 66 -53 28 -34 69
-141 69 -180 0 -38 60 -139 98 -164 56 -38 75 -41 232 -42 l145 0 31 -50 c54
-84 72 -103 129 -129 64 -31 81 -32 88 -7 4 16 -8 26 -62 53 -56 28 -70 41
-97 88 -55 95 -54 95 -228 96 -221 1 -250 21 -295 203 -25 99 -56 157 -108
200 -38 32 -87 54 -97 44z"/>
<path d="M6546 2338 c-19 -72 -4 -102 139 -290 175 -228 182 -281 50 -418
-141 -147 -145 -169 -60 -275 30 -38 65 -97 65 -110 0 -4 -33 -41 -73 -83 -40
-42 -83 -93 -95 -113 -31 -51 -52 -142 -52 -226 0 -71 1 -73 25 -73 24 0 25 2
25 68 0 136 36 216 145 322 31 30 61 65 66 77 15 38 -2 82 -57 156 -30 39 -54
80 -54 91 0 12 34 56 81 106 100 105 123 147 123 220 0 72 -35 141 -146 285
-133 173 -142 188 -134 234 5 30 2 40 -10 45 -25 10 -31 7 -38 -16z"/>
<path d="M15491 2329 c-18 -52 2 -94 120 -254 128 -173 159 -228 159 -285 0
-57 -21 -92 -111 -186 -118 -123 -120 -141 -33 -257 31 -40 54 -81 54 -95 0
-17 -23 -48 -73 -101 -40 -42 -80 -88 -89 -102 -26 -41 -46 -123 -54 -214 l-7
-85 24 0 c24 0 25 4 36 103 13 129 32 167 134 274 69 72 79 87 79 118 0 44 -9
61 -72 143 -26 35 -48 70 -48 77 0 8 38 55 84 103 107 113 130 156 124 233 -5
75 -32 124 -162 298 -121 162 -130 179 -115 218 7 20 6 28 -3 35 -24 14 -36 8
-47 -23z"/>
<path d="M4748 2323 c-12 -3 -18 -14 -18 -35 0 -31 32 -69 113 -133 53 -41 66
-87 67 -223 0 -121 13 -172 48 -191 12 -6 56 -19 100 -30 151 -36 164 -52 160
-193 -3 -91 -2 -98 22 -123 30 -32 63 -50 138 -76 44 -15 57 -16 64 -7 16 27
6 37 -59 59 -38 12 -80 35 -95 50 -27 27 -28 29 -22 116 5 75 3 93 -14 123
-25 46 -76 74 -181 99 -47 12 -90 26 -96 32 -5 5 -13 74 -16 152 -7 173 -18
201 -114 276 -48 38 -65 58 -65 76 0 27 -7 33 -32 28z"/>
<path d="M13688 2323 c-42 -11 -7 -82 72 -145 84 -67 91 -85 97 -245 4 -93 10
-145 19 -160 19 -31 55 -47 147 -68 56 -12 88 -25 110 -45 l32 -29 -3 -95 c-4
-140 14 -164 157 -217 67 -24 66 -24 75 7 5 18 0 23 -36 33 -60 18 -138 59
-140 74 -1 6 -2 56 -3 109 0 82 -3 101 -21 125 -34 45 -80 71 -162 89 -122 26
-118 20 -125 176 -3 73 -12 150 -18 171 -11 34 -49 75 -132 145 -15 12 -30 36
-34 52 -3 17 -8 29 -12 29 -3 -1 -14 -3 -23 -6z"/>
<path d="M9261 2252 c-10 -18 -8 -27 11 -52 31 -42 36 -136 13 -249 -10 -48
-15 -99 -12 -113 4 -14 51 -66 108 -119 127 -117 153 -165 147 -269 -3 -56 -9
-77 -37 -121 -43 -68 -45 -118 -8 -181 35 -61 47 -70 71 -53 17 13 17 15 -8
48 -51 67 -52 85 -6 171 35 68 40 85 40 145 0 118 -17 151 -146 277 -125 121
-123 117 -99 219 29 120 16 231 -34 287 -28 32 -28 32 -40 10z"/>
<path d="M310 2245 c-11 -13 -9 -19 8 -38 45 -48 49 -127 16 -275 -22 -94 -11
-116 97 -208 133 -113 176 -203 150 -312 -7 -26 -24 -65 -38 -86 -47 -73 -40
-143 24 -224 16 -20 21 -21 38 -9 18 14 18 16 -13 62 -40 60 -40 91 -3 150 57
90 64 197 18 294 -22 47 -74 104 -181 198 -52 45 -58 54 -53 80 32 144 38 210
28 262 -11 56 -47 121 -67 121 -6 0 -17 -7 -24 -15z"/>
<path d="M8120 2090 c-35 -22 86 -184 156 -209 94 -34 124 -81 133 -214 8
-110 17 -119 112 -116 36 1 70 -1 76 -4 6 -4 20 -35 33 -69 30 -82 61 -130
106 -165 32 -24 47 -28 100 -28 70 0 79 4 69 34 -5 17 -12 19 -53 15 -36 -4
-54 -1 -79 15 -40 25 -56 49 -98 152 -19 45 -39 87 -45 93 -5 5 -46 9 -90 7
l-80 -2 0 65 c0 70 -26 156 -61 200 -11 13 -48 38 -83 55 -66 31 -98 62 -142
137 -28 47 -31 49 -54 34z"/>
<path d="M17061 2091 c-12 -7 -9 -18 14 -58 51 -88 83 -121 149 -152 35 -16
73 -42 85 -57 29 -37 51 -116 51 -184 0 -80 17 -94 111 -88 l72 4 19 -46 c11
-25 27 -63 36 -85 20 -48 75 -111 113 -131 59 -30 171 -8 141 28 -9 11 -26 14
-62 10 -48 -4 -52 -3 -93 39 -31 31 -52 66 -72 119 -40 107 -48 114 -138 112
l-74 -3 -6 74 c-6 84 -36 162 -75 200 -15 14 -53 37 -84 52 -58 27 -85 55
-129 132 -25 44 -34 49 -58 34z"/>
<path d="M1690 2033 c-8 -3 -41 -30 -73 -60 -65 -59 -112 -87 -133 -79 -20 8
-41 -34 -23 -45 35 -22 102 8 187 85 73 65 98 70 177 32 64 -30 109 -78 137
-146 35 -84 37 -86 133 -125 60 -24 99 -47 121 -70 31 -35 33 -35 117 -35 46
0 99 -3 116 -6 28 -6 31 -4 31 19 0 30 -26 37 -140 37 -72 0 -79 2 -94 25 -17
25 -50 44 -151 83 -46 18 -53 25 -85 90 -42 85 -87 135 -154 169 -48 24 -137
39 -166 26z"/>
<path d="M10626 2025 c-15 -8 -55 -40 -87 -70 -38 -35 -71 -56 -93 -61 -37 -6
-55 -32 -34 -46 34 -21 88 5 173 81 74 67 90 72 167 45 71 -24 121 -73 153
-151 16 -37 36 -75 44 -84 15 -15 138 -69 158 -69 5 0 28 -18 51 -40 l41 -40
88 0 c48 0 98 -3 110 -6 16 -4 23 0 28 16 4 12 4 24 0 28 -3 3 -52 8 -108 10
-100 4 -103 5 -134 37 -18 18 -49 39 -70 45 -21 7 -59 21 -85 32 -44 19 -49
25 -70 82 -51 141 -230 244 -332 191z"/>
<path d="M7530 1942 c0 -38 51 -113 111 -163 115 -98 98 -181 -55 -267 -75
-43 -94 -81 -78 -153 25 -105 9 -167 -53 -207 -20 -12 -56 -53 -80 -90 -39
-60 -42 -68 -27 -80 9 -6 19 -12 22 -12 4 0 24 27 44 60 21 34 55 72 77 87 69
45 97 145 68 246 -15 54 -4 74 59 110 117 66 167 147 142 231 -8 26 -32 59
-68 95 -79 77 -112 120 -112 147 0 19 -5 24 -25 24 -21 0 -25 -5 -25 -28z"/>
<path d="M16470 1963 c0 -45 30 -93 106 -173 78 -83 84 -92 84 -131 0 -36 -6
-47 -42 -83 -24 -22 -64 -53 -90 -68 -75 -43 -84 -64 -70 -162 16 -108 6 -142
-55 -192 -60 -49 -127 -152 -112 -171 19 -23 33 -14 64 38 17 29 52 70 78 93
81 68 84 79 74 276 -2 43 -1 45 48 76 115 73 155 123 155 192 0 57 -9 73 -100
168 -49 51 -80 93 -85 113 -5 24 -12 31 -31 31 -13 0 -24 -3 -24 -7z"/>
<path d="M3190 1319 c0 -52 -29 -97 -99 -150 -113 -88 -141 -131 -191 -302
-17 -60 -36 -118 -41 -131 -6 -13 -44 -42 -85 -65 -41 -23 -74 -46 -74 -50 0
-5 7 -14 15 -21 12 -10 28 -5 91 31 88 51 96 63 144 224 49 168 64 191 177
278 74 56 102 99 110 166 6 50 5 51 -21 51 -22 0 -26 -4 -26 -31z"/>
<path d="M12135 1303 c-7 -51 -36 -85 -150 -179 -63 -52 -95 -111 -136 -249
-17 -60 -38 -122 -45 -137 -8 -16 -44 -44 -84 -68 -68 -40 -86 -65 -55 -76 22
-9 156 76 177 112 10 16 34 84 54 150 43 143 69 191 132 240 98 78 132 117
147 168 21 71 20 86 -9 86 -21 0 -25 -6 -31 -47z"/>
<path d="M1270 1020 c-41 -11 -94 -19 -117 -18 -48 2 -80 -17 -62 -38 16 -20
100 -17 189 6 90 24 177 25 228 5 20 -9 67 -36 103 -61 112 -77 179 -73 291
14 67 52 77 57 123 56 83 0 188 -65 245 -152 13 -21 17 -21 34 -9 19 14 19 15
-3 50 -55 89 -177 160 -277 161 -55 1 -67 -3 -105 -32 -145 -109 -181 -116
-270 -53 -97 69 -136 84 -224 88 -56 2 -102 -3 -155 -17z"/>
<path d="M4419 1016 c-61 -25 -86 -40 -199 -128 -90 -68 -134 -88 -195 -88
-48 0 -154 31 -194 57 -22 14 -25 14 -38 -3 -7 -10 -13 -21 -13 -25 0 -15 151
-69 208 -75 98 -11 143 6 268 100 129 96 203 136 254 136 42 0 57 -14 89 -82
56 -118 181 -129 375 -31 39 19 72 37 74 38 2 2 -1 12 -7 24 -11 19 -14 18
-107 -26 -168 -79 -249 -71 -297 30 -47 99 -106 119 -218 73z"/>
<path d="M10215 1019 c-38 -11 -91 -18 -117 -17 -36 2 -49 -1 -58 -16 -26 -41
50 -48 182 -16 148 35 207 27 318 -45 93 -61 104 -65 155 -65 53 0 92 17 155
70 83 68 105 73 197 38 43 -16 75 -38 121 -85 62 -61 84 -74 97 -53 11 18 -58
100 -118 140 -59 40 -139 70 -184 70 -33 0 -93 -27 -123 -55 -98 -91 -155 -97
-256 -28 -38 26 -90 55 -116 65 -62 23 -161 22 -253 -3z"/>
<path d="M13334 1000 c-44 -21 -117 -69 -163 -106 -46 -36 -99 -72 -117 -80
-63 -26 -172 -11 -268 38 -31 16 -40 17 -47 6 -17 -25 -9 -35 49 -61 83 -37
145 -50 211 -44 71 6 101 21 205 103 44 36 112 80 150 99 100 51 151 46 176
-17 35 -87 89 -128 170 -128 80 0 290 82 290 113 -1 37 -17 39 -71 9 -116 -65
-240 -89 -287 -56 -12 8 -36 42 -52 74 -52 102 -117 116 -246 50z"/>
<path d="M7983 830 c-117 -24 -185 -95 -213 -227 -27 -123 -44 -134 -225 -143
-189 -9 -211 -26 -234 -180 -18 -116 -13 -110 -90 -110 -115 0 -176 -31 -216
-111 -31 -59 -31 -59 0 -59 19 0 29 10 45 40 29 57 79 80 173 80 103 0 114 10
133 125 27 161 27 161 216 168 176 7 215 35 245 175 24 118 76 172 186 193 50
10 57 14 57 35 0 26 -7 27 -77 14z"/>
<path d="M16950 833 c-135 -23 -216 -104 -236 -233 -17 -114 -43 -130 -223
-139 -190 -10 -210 -25 -231 -173 -17 -118 -18 -118 -100 -118 -108 0 -171
-33 -211 -112 -25 -48 -24 -58 4 -58 15 0 28 11 42 37 34 62 63 76 171 83 114
8 117 10 134 113 17 110 32 150 60 164 15 7 63 13 117 13 125 0 188 15 229 54
28 26 38 46 56 120 32 132 83 182 201 200 42 6 48 10 45 29 -3 23 -16 27 -58
20z"/>
<path d="M5952 768 c-9 -9 0 -24 38 -64 54 -57 65 -85 56 -142 -3 -20 -9 -73
-12 -117 -7 -104 1 -116 155 -239 131 -104 128 -98 100 -174 -13 -33 -12 -34
18 -30 23 3 29 10 40 49 10 33 10 54 4 72 -6 15 -63 68 -130 122 -67 53 -125
104 -131 115 -13 25 -13 84 2 169 15 91 2 137 -59 202 -48 51 -61 57 -81 37z"/>
<path d="M14899 764 c-12 -14 -9 -21 23 -48 71 -62 82 -104 58 -223 -26 -123
-3 -163 170 -298 99 -78 101 -81 96 -115 -3 -19 -8 -45 -12 -57 -5 -20 -3 -23
19 -23 22 0 28 7 36 38 16 54 13 87 -6 110 -10 10 -63 55 -118 99 -55 44 -109
90 -120 103 -22 24 -24 63 -10 186 11 105 3 135 -56 194 -27 27 -54 50 -58 50
-5 0 -15 -7 -22 -16z"/>
<path d="M1444 666 c-10 -26 25 -74 105 -140 134 -112 173 -168 198 -286 17
-81 38 -104 122 -131 92 -30 111 -43 111 -79 0 -26 4 -30 26 -30 26 0 26 2 21
42 -7 55 -36 79 -124 108 -86 29 -99 40 -107 98 -8 62 -55 160 -102 211 -20
23 -72 71 -116 107 -43 37 -81 76 -84 90 -7 27 -41 33 -50 10z"/>
<path d="M10393 672 c-22 -14 13 -67 83 -128 153 -131 196 -191 215 -301 6
-32 18 -68 27 -81 10 -13 54 -36 107 -56 89 -33 90 -33 93 -69 3 -32 7 -37 28
-37 21 0 24 4 24 38 0 51 -20 76 -77 96 -26 10 -67 24 -90 32 -46 17 -42 10
-74 138 -19 75 -80 157 -185 246 -52 45 -100 93 -106 106 -11 25 -24 29 -45
16z"/>
<path d="M8747 579 c-4 -13 0 -22 11 -26 129 -41 212 -90 263 -153 47 -59 87
-73 215 -80 102 -5 115 -8 154 -35 50 -34 125 -131 172 -222 28 -54 37 -63 61
-63 15 0 27 2 27 4 0 2 -18 36 -40 75 -86 158 -167 248 -248 277 -20 7 -74 13
-120 14 -101 0 -135 14 -192 74 -55 58 -117 98 -203 131 -82 30 -93 31 -100 4z"/>
<path d="M17696 584 c-9 -22 -2 -28 59 -48 76 -25 150 -71 203 -127 49 -52 77
-72 125 -83 24 -6 27 -4 27 18 0 18 -8 27 -32 35 -18 6 -58 38 -90 71 -41 41
-82 71 -140 99 -103 51 -142 60 -152 35z"/>
<path d="M0 503 c0 -24 14 -43 68 -95 78 -76 109 -88 227 -88 56 0 92 -6 120
-19 54 -24 132 -113 190 -217 42 -74 51 -84 76 -84 l28 0 -46 83 c-79 145
-150 226 -228 263 -41 19 -66 24 -137 24 -48 0 -99 5 -115 11 -15 5 -55 36
-88 68 -91 87 -95 89 -95 54z"/>
<path d="M3251 244 c-24 -40 -87 -74 -196 -104 -108 -30 -143 -48 -160 -81
-22 -42 -19 -59 10 -59 15 0 25 6 25 14 0 27 31 46 118 72 145 43 175 57 220
101 45 46 54 78 22 86 -14 4 -24 -4 -39 -29z"/>
<path d="M12200 244 c-20 -37 -81 -69 -190 -100 -140 -40 -165 -56 -185 -121
-5 -20 -3 -23 19 -23 16 0 27 7 31 20 9 30 38 44 144 74 52 15 117 39 144 54
51 27 104 92 92 111 -12 20 -41 11 -55 -15z"/>
<path d="M4005 80 c-61 -13 -115 -39 -115 -55 0 -25 26 -28 76 -9 59 23 128
23 187 0 26 -10 65 -16 89 -14 l43 3 -47 27 c-45 27 -146 59 -178 57 -8 -1
-33 -5 -55 -9z"/>
<path d="M12952 80 c-50 -12 -122 -41 -122 -48 0 -4 5 -14 10 -22 8 -13 16
-12 65 5 71 24 138 24 198 1 26 -10 65 -16 89 -14 l43 3 -75 37 c-79 39 -152
52 -208 38z"/>
</g>
</svg>
