<?xml version="1.0" standalone="no"?>
<!DOCTYPE svg PUBLIC "-//W3C//DTD SVG 20010904//EN"
 "http://www.w3.org/TR/2001/REC-SVG-20010904/DTD/svg10.dtd">
<svg version="1.0" xmlns="http://www.w3.org/2000/svg"
 width="1811.000000pt" height="1217.000000pt" viewBox="0 0 1811.000000 1217.000000"
 preserveAspectRatio="xMidYMid meet">
<metadata>
Created by potrace 1.13, written by Peter Selinger 2001-2015
</metadata>
<g transform="translate(0.000000,1217.000000) scale(0.100000,-0.100000)"
fill="#000000" stroke="none">
<path d="M4370 11947 c0 -2 -16 -81 -35 -176 -19 -95 -32 -177 -29 -182 3 -5
13 -9 23 -9 16 0 23 22 46 140 15 77 30 140 34 140 3 0 55 -38 115 -85 60 -47
112 -85 115 -85 4 0 11 8 18 18 10 17 -5 31 -132 130 -131 102 -155 119 -155
109z"/>
<path d="M17796 11933 c-17 -60 -66 -335 -61 -343 3 -5 14 -10 24 -10 14 0 21
18 35 93 29 150 37 187 44 187 4 0 56 -39 116 -85 104 -82 110 -85 128 -68 10
9 15 19 11 23 -31 27 -284 220 -287 220 -3 0 -7 -8 -10 -17z"/>
<path d="M6401 11921 c-9 -16 4 -28 109 -97 66 -44 120 -82 120 -85 0 -3 -54
-36 -120 -73 -66 -38 -122 -72 -125 -76 -2 -4 1 -15 8 -24 12 -16 27 -9 172
74 88 51 161 93 163 94 3 4 -302 206 -310 206 -4 0 -12 -8 -17 -19z"/>
<path d="M2169 11869 c-13 -26 -20 -19 119 -112 l113 -75 -126 -72 c-91 -52
-125 -76 -121 -87 3 -8 6 -17 6 -19 0 -2 5 -4 11 -4 13 0 319 173 319 180 0 3
-70 51 -155 107 -148 98 -155 102 -166 82z"/>
<path d="M15599 11869 c-13 -26 -20 -19 119 -111 l113 -75 -123 -70 c-117 -67
-148 -96 -114 -109 13 -5 326 164 326 176 0 3 -70 51 -155 107 -148 98 -155
102 -166 82z"/>
<path d="M12975 11714 c-70 -132 -85 -168 -74 -175 8 -5 19 -9 24 -9 6 0 39
56 75 125 36 69 67 125 70 125 3 0 41 -52 85 -115 44 -63 85 -115 91 -115 6 0
17 6 23 13 8 11 -13 48 -94 162 -57 81 -106 149 -108 151 -2 2 -43 -71 -92
-162z"/>
<path d="M8360 11858 c0 -2 31 -79 70 -173 67 -164 78 -180 104 -155 5 5 -10
55 -37 122 -25 62 -49 122 -53 132 -7 18 -2 18 97 12 57 -4 123 -9 147 -13 40
-5 42 -4 42 20 0 29 2 28 -225 47 -129 11 -145 11 -145 8z"/>
<path d="M11245 11824 c-11 -2 -68 -6 -127 -9 -106 -7 -108 -7 -108 -31 0 -28
1 -28 175 -14 61 4 112 6 114 4 2 -2 -20 -62 -50 -134 -45 -110 -51 -133 -39
-140 8 -5 19 -8 24 -7 7 2 146 320 146 334 0 4 -106 2 -135 -3z"/>
<path d="M9687 11218 c2 -24 10 -106 16 -183 12 -136 13 -140 36 -143 l24 -4
-7 108 c-4 59 -9 127 -13 150 l-6 43 139 -55 c136 -54 153 -56 154 -18 0 8
-321 144 -341 144 -4 0 -5 -19 -2 -42z"/>
<path d="M3395 10664 l-38 -143 -109 95 c-90 80 -111 94 -123 84 -8 -7 -15
-16 -15 -20 0 -4 53 -54 118 -111 64 -56 126 -111 138 -121 l21 -19 42 163
c22 90 44 173 47 184 4 17 0 22 -19 26 -24 5 -26 1 -62 -138z"/>
<path d="M16851 10771 c-6 -20 -21 -80 -35 -134 -13 -54 -27 -101 -30 -105 -3
-3 -16 4 -29 15 -99 88 -188 163 -195 163 -4 0 -12 -8 -18 -18 -10 -15 7 -33
121 -132 73 -63 136 -115 142 -117 5 -2 29 70 52 159 23 90 44 170 47 179 3
12 -3 18 -21 21 -22 5 -26 1 -34 -31z"/>
<path d="M7563 10639 c-7 -7 -13 -17 -13 -22 0 -5 43 -54 96 -109 53 -55 92
-104 87 -108 -4 -4 -65 -25 -135 -46 -101 -30 -128 -41 -128 -55 0 -10 4 -21
10 -24 11 -7 350 95 350 105 0 4 -57 66 -127 139 -104 108 -130 130 -140 120z"/>
<path d="M708 10448 c-46 -138 -54 -174 -42 -176 13 -3 255 30 327 44 26 5 39
36 20 47 -5 3 -64 -4 -133 -14 -69 -10 -133 -19 -142 -19 -14 0 -10 20 29 136
37 111 43 138 32 145 -8 5 -19 9 -24 9 -6 0 -36 -78 -67 -172z"/>
<path d="M14138 10448 c-32 -94 -55 -174 -53 -177 5 -4 289 34 343 46 22 5 28
19 14 39 -5 8 -41 7 -132 -7 -69 -10 -132 -19 -141 -19 -14 0 -10 22 27 137
44 136 44 152 9 153 -6 0 -36 -77 -67 -172z"/>
<path d="M5625 10564 c-27 -13 -100 -48 -162 -77 -106 -49 -111 -53 -100 -73
12 -21 14 -21 137 37 69 32 129 58 134 58 5 1 7 -62 4 -144 -5 -145 -5 -145
17 -145 19 0 23 7 29 46 9 65 8 324 -1 323 -5 0 -30 -11 -58 -25z"/>
<path d="M12297 10423 c-22 -6 -23 -1 62 -197 l69 -157 108 128 c59 70 114
135 121 144 11 13 10 18 -5 32 -18 16 -23 12 -111 -93 -51 -61 -96 -108 -100
-106 -4 3 -32 62 -62 131 -29 69 -56 124 -59 124 -3 -1 -13 -3 -23 -6z"/>
<path d="M10282 9897 c-10 -11 8 -35 89 -121 56 -59 100 -108 98 -109 -2 -2
-62 -21 -134 -42 -71 -21 -133 -40 -137 -42 -11 -5 3 -43 16 -43 16 0 337 97
344 104 6 7 -236 260 -253 264 -6 2 -17 -3 -23 -11z"/>
<path d="M2005 9567 c-82 -5 -151 -10 -153 -12 -3 -3 168 -297 182 -312 8 -9
15 -9 29 1 16 12 12 23 -54 135 -39 68 -69 125 -66 128 4 4 215 22 270 23 13
0 17 6 15 23 -4 27 -16 28 -223 14z"/>
<path d="M15435 9567 c-82 -5 -151 -10 -153 -12 -2 -2 173 -311 184 -324 1 -1
12 3 23 11 19 14 18 18 -53 140 l-74 127 62 5 c33 3 101 8 149 12 73 5 87 9
83 21 -3 8 -6 19 -6 24 0 10 -1 10 -215 -4z"/>
<path d="M8643 9472 c-90 -42 -163 -79 -163 -82 0 -3 6 -13 13 -22 11 -14 25
-10 137 42 69 32 128 59 131 59 4 1 4 -64 1 -144 l-5 -145 27 0 c26 0 26 1 26
73 0 39 3 123 7 185 3 65 2 112 -3 111 -5 0 -82 -35 -171 -77z"/>
<path d="M6677 9435 c-93 -24 -171 -46 -174 -49 -4 -3 3 -16 14 -29 15 -17
184 -215 213 -250 4 -4 14 1 24 12 16 18 13 23 -75 125 -50 59 -89 109 -86
112 3 3 65 21 137 39 72 18 133 35 135 37 6 6 -6 48 -14 47 -3 0 -82 -20 -174
-44z"/>
<path d="M13100 9366 c0 -31 4 -32 167 -43 l123 -8 -75 -127 c-71 -122 -73
-128 -54 -139 12 -6 23 -8 26 -5 3 3 45 74 94 158 105 180 115 162 -102 172
-79 4 -152 10 -161 12 -14 4 -18 -1 -18 -20z"/>
<path d="M17655 9245 c-93 -34 -169 -64 -167 -68 1 -4 2 -14 2 -22 0 -22 12
-19 149 30 68 25 126 43 129 40 5 -4 -13 -180 -25 -252 -5 -30 -3 -33 20 -33
20 0 26 6 30 33 12 65 39 316 35 324 -1 5 -79 -19 -173 -52z"/>
<path d="M4218 9242 c-87 -31 -158 -60 -158 -64 -1 -31 2 -38 13 -38 8 0 69
20 136 45 67 25 126 45 130 45 6 0 -7 -139 -24 -252 -5 -35 -3 -38 19 -38 29
0 28 -3 51 192 18 153 18 168 3 167 -7 0 -84 -26 -170 -57z"/>
<path d="M11420 8864 c-96 -7 -176 -13 -177 -13 -3 -2 183 -320 188 -321 3 0
13 6 23 13 16 12 13 21 -48 125 -37 61 -69 118 -72 126 -4 11 16 15 113 21
160 8 175 12 171 38 -2 11 -7 21 -13 22 -5 1 -89 -4 -185 -11z"/>
<path d="M5390 8465 c-14 -17 -14 -17 133 -170 l57 -61 -67 -21 c-38 -12 -101
-31 -140 -43 -40 -12 -73 -27 -73 -33 1 -39 16 -38 181 13 90 28 170 52 177
55 9 3 -34 55 -114 140 -71 74 -131 135 -135 135 -4 0 -12 -7 -19 -15z"/>
<path d="M1218 8434 c-16 -16 -12 -23 83 -125 l100 -107 -98 -30 c-54 -17
-117 -36 -141 -43 -36 -10 -41 -15 -36 -33 4 -12 8 -22 9 -24 4 -5 338 98 347
106 3 4 -51 67 -120 140 -120 126 -128 132 -144 116z"/>
<path d="M14647 8433 c-15 -18 -11 -24 83 -125 l100 -106 -97 -30 c-54 -17
-117 -36 -140 -43 -43 -12 -50 -22 -34 -47 7 -11 42 -3 177 38 93 29 172 55
175 58 4 4 -50 67 -120 140 -121 127 -128 132 -144 115z"/>
<path d="M7740 8407 c0 -15 138 -341 145 -344 6 -1 17 1 24 6 13 8 6 31 -37
142 -29 72 -51 133 -49 135 2 3 55 0 118 -6 167 -14 169 -14 169 14 0 23 -2
23 -162 35 -90 7 -173 14 -185 17 -13 2 -23 3 -23 1z"/>
<path d="M2925 8380 c-5 -8 80 -346 90 -357 1 -3 213 183 260 228 18 18 18 20
3 35 -19 19 -19 18 -167 -114 l-70 -63 -9 33 c-5 18 -22 81 -38 140 -22 83
-33 108 -46 108 -9 0 -20 -5 -23 -10z"/>
<path d="M16354 8377 c-4 -12 80 -344 90 -354 1 -2 235 203 271 238 6 6 3 15
-8 26 -19 19 -7 27 -149 -100 l-87 -78 -15 53 c-8 29 -26 91 -38 138 -17 61
-29 86 -41 88 -9 2 -20 -3 -23 -11z"/>
<path d="M12522 8181 c35 -99 136 -331 143 -331 6 0 16 4 24 9 11 7 3 34 -38
134 -28 69 -51 131 -51 138 0 7 11 9 33 6 17 -3 83 -9 145 -13 l112 -7 0 25
c0 24 -1 24 -152 36 -184 14 -221 15 -216 3z"/>
<path d="M9734 8016 c-83 -50 -152 -95 -153 -101 -1 -5 64 -52 146 -104 144
-91 168 -100 180 -65 2 5 -51 43 -117 84 -66 41 -120 78 -120 82 0 4 54 39
120 79 66 39 120 75 120 78 0 4 -6 14 -12 23 -11 14 -31 4 -164 -76z"/>
<path d="M4280 7266 c0 -24 1 -24 128 -31 70 -3 134 -9 144 -11 13 -4 4 -26
-54 -124 -68 -116 -79 -156 -42 -148 14 3 200 306 192 313 -4 4 -297 25 -338
25 -25 0 -30 -4 -30 -24z"/>
<path d="M17706 7273 c-4 -9 -3 -20 1 -24 4 -4 68 -11 141 -15 73 -4 135 -11
138 -15 3 -5 -26 -62 -64 -128 -68 -116 -74 -141 -36 -141 10 0 198 309 192
316 -4 3 -299 24 -337 24 -18 0 -31 -6 -35 -17z"/>
<path d="M11210 7256 c0 -26 0 -26 83 -27 45 -1 110 -4 144 -8 l63 -6 -71
-124 c-64 -113 -69 -125 -55 -139 10 -10 19 -13 25 -7 23 23 180 310 173 316
-4 4 -87 10 -184 14 l-178 7 0 -26z"/>
<path d="M8801 7122 c-18 -70 -36 -133 -40 -140 -4 -7 -44 21 -116 83 -99 85
-111 93 -123 78 -7 -10 -11 -20 -10 -24 5 -13 270 -240 275 -236 2 3 24 82 49
177 46 175 46 189 8 190 -7 0 -26 -58 -43 -128z"/>
<path d="M2280 7210 c-6 -12 -10 -23 -8 -24 2 -2 59 -36 127 -76 l123 -73
-113 -74 c-63 -41 -118 -78 -122 -82 -9 -9 2 -41 15 -41 12 0 308 191 308 199
0 3 -58 39 -128 80 -70 41 -141 83 -159 94 -31 18 -32 18 -43 -3z"/>
<path d="M15710 7210 c-6 -12 -10 -23 -8 -25 2 -1 59 -35 126 -75 l124 -73
-122 -79 c-89 -58 -120 -83 -116 -94 3 -9 6 -18 6 -20 0 -2 4 -4 10 -4 12 0
304 188 307 198 2 4 -48 36 -109 72 -62 36 -133 78 -159 93 l-48 28 -11 -21z"/>
<path d="M6551 7169 c-62 -5 -117 -10 -122 -11 -12 -4 168 -312 184 -316 8 -2
19 3 24 10 8 10 -6 42 -58 128 -37 63 -68 120 -69 126 0 8 46 14 140 19 77 4
142 11 145 15 3 5 2 15 -1 24 -7 18 -49 19 -243 5z"/>
<path d="M13393 7067 c-84 -51 -152 -94 -152 -97 0 -3 70 -49 155 -103 144
-90 157 -96 169 -80 7 10 11 21 9 24 -2 4 -56 39 -119 79 -63 40 -115 75 -115
79 0 3 46 34 103 68 143 86 144 87 128 107 -7 9 -16 16 -20 16 -3 -1 -74 -42
-158 -93z"/>
<path d="M1096 6281 c-3 -5 12 -69 34 -142 21 -73 37 -135 35 -137 -4 -4 -227
33 -266 44 -11 3 -19 -3 -22 -18 -4 -12 -4 -24 -2 -26 5 -6 365 -69 365 -65 0
2 -22 80 -50 173 -27 93 -50 172 -50 175 0 9 -39 5 -44 -4z"/>
<path d="M14525 6278 c-3 -7 13 -71 34 -143 21 -71 37 -132 35 -133 -3 -4
-234 35 -266 44 -16 5 -36 -31 -24 -43 5 -5 358 -71 363 -68 2 1 -21 81 -49
178 -43 146 -55 177 -70 177 -10 0 -21 -6 -23 -12z"/>
<path d="M7800 6149 c-85 -11 -160 -21 -167 -23 -16 -6 -4 -46 14 -46 8 0 71
7 140 15 69 9 127 14 129 12 2 -2 -18 -64 -45 -138 -47 -128 -48 -134 -30
-143 12 -6 23 -6 28 0 9 10 121 320 121 334 0 12 4 12 -190 -11z"/>
<path d="M9963 6068 c2 -7 28 -86 58 -175 43 -131 57 -163 72 -163 10 0 20 6
22 13 3 6 -15 72 -39 145 -25 72 -42 132 -38 132 4 0 66 -9 137 -20 163 -24
155 -25 155 5 0 14 -4 25 -9 25 -5 0 -86 11 -181 25 -202 29 -183 28 -177 13z"/>
<path d="M12248 5998 c-87 -22 -158 -43 -158 -47 0 -4 52 -68 116 -143 104
-122 118 -135 135 -125 11 7 19 14 19 17 0 3 -41 52 -90 110 -81 95 -99 120
-86 120 6 0 248 60 263 65 20 7 3 45 -21 44 -11 0 -92 -19 -178 -41z"/>
<path d="M5300 5943 c-85 -47 -157 -87 -159 -89 -1 -1 3 -12 11 -23 14 -19 17
-18 139 49 145 80 136 84 138 -66 1 -128 8 -154 37 -154 23 0 23 2 19 58 -3
31 -8 114 -11 185 -3 70 -9 127 -13 127 -3 0 -76 -39 -161 -87z"/>
<path d="M3071 5838 c-63 -4 -116 -10 -119 -13 -5 -4 167 -303 179 -310 10 -7
39 5 39 15 0 5 -31 63 -70 129 -38 66 -70 122 -70 125 0 3 21 6 48 6 26 0 91
3 145 7 93 6 97 7 97 30 0 22 -3 23 -67 22 -38 -1 -119 -6 -182 -11z"/>
<path d="M16501 5838 c-63 -4 -117 -10 -119 -13 -3 -2 26 -58 64 -122 37 -65
77 -135 88 -155 22 -39 31 -44 55 -29 12 8 1 33 -57 134 -40 69 -72 127 -72
130 0 2 65 8 145 12 144 7 145 7 145 31 0 23 -3 24 -67 23 -38 -1 -119 -6
-182 -11z"/>
<path d="M115 5205 c-55 -7 -103 -14 -107 -14 -5 -1 -8 -13 -8 -27 0 -28 -12
-28 122 -8 37 6 40 5 34 -12 -5 -11 -28 -74 -52 -141 -42 -118 -42 -122 -23
-128 11 -4 23 -4 26 -2 7 7 123 326 123 338 0 5 -3 8 -7 8 -5 -1 -53 -7 -108
-14z"/>
<path d="M13468 5197 c-173 -20 -178 -21 -178 -44 0 -28 10 -29 175 -8 65 8
120 14 121 12 1 -1 -20 -63 -47 -136 -49 -134 -50 -150 -13 -151 6 0 39 76 73
169 64 176 66 182 54 180 -5 -1 -88 -11 -185 -22z"/>
<path d="M4477 5167 c-17 -11 -10 -22 72 -120 50 -59 91 -111 91 -115 0 -4
-53 -20 -117 -36 -65 -15 -126 -30 -135 -33 -11 -3 -18 -14 -18 -30 0 -21 4
-24 23 -19 12 3 93 22 180 43 86 20 157 40 157 45 0 9 -218 271 -229 276 -4 1
-15 -4 -24 -11z"/>
<path d="M17901 5166 c-9 -11 6 -35 79 -121 49 -58 90 -110 90 -114 0 -4 -63
-22 -140 -40 -133 -31 -140 -34 -134 -55 4 -11 7 -22 9 -24 1 -1 70 14 153 34
l152 37 0 43 c0 39 -7 51 -87 148 -49 57 -93 105 -99 105 -6 1 -17 -5 -23 -13z"/>
<path d="M6613 5027 c-84 -51 -152 -94 -153 -97 0 -3 70 -50 156 -103 145 -92
157 -97 169 -80 8 10 10 21 7 25 -4 4 -61 41 -125 82 l-118 74 38 23 c211 128
213 130 203 150 -6 10 -14 19 -18 19 -4 -1 -75 -42 -159 -93z"/>
<path d="M8680 5029 c-36 -4 -109 -13 -162 -20 -93 -11 -98 -12 -98 -35 0 -28
-8 -28 153 -8 71 8 131 13 133 11 3 -2 -16 -61 -41 -129 -25 -69 -45 -130 -45
-136 0 -13 31 -25 41 -15 4 4 30 71 57 148 28 77 55 152 61 168 12 31 15 31
-99 16z"/>
<path d="M10960 4866 c-80 -45 -154 -86 -164 -92 -17 -10 -17 -14 -5 -32 14
-20 17 -19 138 50 67 38 125 67 128 64 3 -3 8 -58 10 -123 5 -152 8 -165 35
-161 20 3 21 8 18 98 -1 52 -5 136 -9 186 l-6 91 -145 -81z"/>
<path d="M2050 4747 c-85 -39 -156 -75 -157 -80 -7 -19 -2 -37 11 -37 8 0 67
25 131 55 65 30 122 55 127 55 7 0 7 -52 3 -145 l-7 -145 24 0 c25 0 25 1 31
113 9 150 9 257 0 257 -5 0 -78 -33 -163 -73z"/>
<path d="M15470 4745 c-85 -41 -155 -79 -154 -84 3 -27 5 -31 18 -31 7 0 66
25 131 55 64 30 121 55 126 55 5 0 6 -62 2 -145 l-6 -145 26 0 c26 0 27 2 27
58 0 31 3 114 7 185 5 106 4 127 -8 126 -8 -1 -84 -34 -169 -74z"/>
<path d="M12239 4044 c-16 -18 -12 -24 81 -124 54 -57 94 -107 89 -111 -6 -3
-69 -23 -140 -45 -118 -35 -128 -40 -123 -59 4 -11 8 -21 9 -23 5 -5 355 102
355 108 -1 3 -58 65 -128 139 -121 127 -128 132 -143 115z"/>
<path d="M9780 3813 c38 -92 73 -169 79 -171 6 -2 17 0 25 5 12 7 5 31 -40
142 -30 73 -54 134 -52 135 2 2 66 -3 143 -9 77 -6 141 -11 141 -11 1 1 5 11
8 23 6 19 3 23 -26 27 -36 6 -287 26 -324 26 -22 0 -20 -7 46 -167z"/>
<path d="M750 3963 c0 -21 96 -353 102 -353 14 0 268 233 268 245 0 7 -6 17
-12 23 -10 7 -41 -15 -118 -84 -58 -51 -108 -94 -111 -94 -4 0 -23 61 -44 135
-35 125 -39 135 -61 135 -13 0 -24 -3 -24 -7z"/>
<path d="M14180 3963 c-1 -20 94 -353 100 -353 13 0 270 234 270 246 0 6 -6
16 -13 22 -9 8 -40 -14 -120 -86 -66 -57 -111 -91 -115 -85 -4 6 -22 68 -41
137 -31 116 -36 126 -57 126 -13 0 -24 -3 -24 -7z"/>
<path d="M3587 3953 c-2 -5 -19 -68 -37 -140 -19 -73 -36 -133 -39 -133 -3 0
-53 41 -109 90 -57 50 -107 90 -112 90 -9 0 -34 -29 -29 -34 59 -53 274 -236
278 -236 3 0 26 79 51 176 38 149 42 177 30 184 -18 12 -28 12 -33 3z"/>
<path d="M5431 3798 c-18 -90 -35 -173 -37 -184 -4 -17 0 -22 19 -26 24 -5 25
-2 52 131 15 75 31 139 34 143 3 3 55 -32 115 -80 85 -67 112 -83 124 -75 9 5
17 14 18 19 2 7 -189 161 -275 222 -17 12 -20 2 -50 -150z"/>
<path d="M17011 3938 c-4 -13 -21 -76 -37 -140 -15 -65 -31 -118 -34 -118 -3
0 -52 41 -109 90 -58 50 -108 90 -112 90 -14 0 -32 -31 -23 -39 88 -83 269
-230 274 -224 4 4 27 84 50 176 37 142 41 170 29 178 -22 13 -29 11 -38 -13z"/>
<path d="M7625 3524 c-66 -24 -139 -51 -162 -60 -40 -14 -55 -38 -37 -57 3 -3
69 16 145 43 l139 49 -5 -37 c-15 -97 -31 -253 -26 -257 2 -3 12 -5 22 -5 23
0 24 7 44 185 9 77 18 150 21 163 6 29 2 28 -141 -24z"/>
<path d="M11114 3107 c-88 -39 -163 -75 -165 -79 -2 -4 52 -53 121 -109 69
-56 132 -108 141 -116 13 -11 18 -10 33 6 16 17 12 22 -93 107 -61 49 -109 93
-108 97 2 5 60 34 130 65 70 32 127 60 127 63 0 3 -6 13 -12 22 -12 15 -28 10
-174 -56z"/>
<path d="M75 3030 c-61 -22 -70 -29 -73 -52 l-3 -28 42 15 c23 9 44 13 47 10
5 -5 -14 -200 -25 -257 -5 -25 -2 -28 20 -28 22 0 27 6 31 33 12 73 37 308 34
320 -2 10 -20 7 -73 -13z"/>
<path d="M13406 2995 c-93 -33 -171 -65 -173 -70 -1 -6 1 -16 6 -24 8 -12 32
-6 142 32 73 26 134 45 137 43 4 -5 -12 -162 -25 -248 -5 -36 -4 -38 21 -38
14 0 26 2 26 5 0 3 9 80 20 172 12 91 20 171 18 177 -2 8 -63 -10 -172 -49z"/>
<path d="M4511 2938 c-4 -13 -25 -70 -46 -128 -21 -58 -41 -109 -45 -113 -4
-4 -50 37 -103 93 -53 55 -101 100 -106 100 -4 0 -14 -6 -20 -14 -10 -12 8
-36 100 -133 61 -65 120 -126 129 -136 16 -18 19 -13 62 105 88 238 85 228 68
238 -23 14 -30 12 -39 -12z"/>
<path d="M17945 2950 c-3 -4 -22 -57 -44 -116 -22 -60 -42 -117 -46 -127 -7
-16 -24 -3 -111 84 -97 96 -105 102 -120 87 -16 -15 -8 -26 112 -152 71 -74
129 -134 131 -133 4 5 123 338 123 346 0 12 -39 21 -45 11z"/>
<path d="M2030 2835 c0 -3 30 -79 66 -170 52 -130 70 -165 84 -165 11 0 21 4
24 9 3 4 -17 64 -44 132 -28 67 -50 127 -50 132 0 9 188 2 258 -10 29 -5 32
-3 32 21 0 14 -1 26 -2 26 -15 3 -337 30 -350 30 -10 0 -18 -2 -18 -5z"/>
<path d="M15460 2833 c0 -4 30 -83 66 -175 62 -154 69 -166 88 -158 26 10 26
11 -34 159 l-49 123 122 -7 c67 -4 133 -8 147 -9 19 -1 26 5 28 22 2 12 2 22
0 22 -28 4 -338 30 -350 30 -10 0 -18 -3 -18 -7z"/>
<path d="M8587 2804 c-4 -4 -7 -15 -7 -25 0 -19 25 -24 193 -35 80 -5 97 -9
93 -20 -3 -8 -35 -65 -72 -126 -61 -104 -64 -113 -48 -125 10 -7 20 -13 23
-13 3 1 47 73 97 160 74 129 89 160 75 164 -9 2 -77 7 -151 11 -74 3 -149 8
-165 11 -17 3 -34 2 -38 -2z"/>
<path d="M6737 2683 c-2 -5 -19 -68 -37 -140 -19 -73 -36 -133 -39 -133 -3 0
-53 41 -110 92 -81 72 -107 89 -119 81 -9 -5 -17 -14 -18 -19 -3 -8 253 -235
273 -241 4 -2 28 76 53 173 38 149 42 177 30 184 -18 12 -28 12 -33 3z"/>
<path d="M10317 1957 l-109 -152 182 -29 c154 -25 183 -27 191 -15 5 8 7 18 6
24 -2 5 -63 19 -136 32 -73 12 -137 23 -142 25 -6 2 27 55 72 117 63 88 80
118 72 129 -5 9 -14 17 -19 18 -5 2 -58 -65 -117 -149z"/>
<path d="M12181 1808 c-15 -24 -28 -14 127 -104 61 -36 112 -67 112 -69 0 -2
-54 -38 -120 -80 -66 -42 -120 -79 -120 -82 0 -2 5 -13 10 -23 10 -18 23 -11
163 80 83 54 152 103 151 107 -1 6 -166 109 -295 183 -11 6 -19 3 -28 -12z"/>
<path d="M1011 1638 c-19 -95 -34 -177 -35 -183 0 -5 9 -11 21 -13 25 -4 23
-7 54 143 12 61 25 116 29 123 6 12 41 -12 218 -151 12 -9 42 7 42 23 0 7
-272 222 -288 228 -4 1 -23 -75 -41 -170z"/>
<path d="M14437 1633 c-19 -98 -33 -181 -30 -185 8 -15 42 -8 47 10 3 9 15 69
27 132 12 63 25 119 29 123 3 4 40 -19 81 -51 147 -115 148 -116 164 -102 8 7
15 16 15 20 0 7 -284 230 -293 230 -2 0 -20 -80 -40 -177z"/>
<path d="M5253 1717 c-157 -56 -172 -63 -167 -82 4 -11 8 -22 10 -24 1 -2 62
18 134 44 72 26 134 45 137 42 5 -5 -9 -154 -24 -249 -5 -36 -4 -38 21 -38 14
0 26 2 26 5 0 3 9 80 20 172 12 91 20 171 18 178 -2 9 -54 -5 -175 -48z"/>
<path d="M3589 1743 c-9 -16 -42 -72 -74 -126 l-57 -99 -79 119 c-43 65 -83
119 -87 121 -5 1 -15 -4 -22 -13 -11 -13 3 -38 85 -163 53 -81 100 -148 103
-150 4 -1 49 69 99 155 83 142 91 159 76 171 -23 17 -27 16 -44 -15z"/>
<path d="M16961 1645 c-40 -69 -74 -125 -76 -125 -2 0 -38 54 -80 120 -42 66
-79 120 -82 120 -2 0 -13 -5 -23 -10 -18 -10 -11 -23 80 -162 54 -84 102 -154
107 -155 4 -1 49 68 100 155 81 139 89 158 75 170 -9 6 -19 12 -22 12 -3 0
-39 -56 -79 -125z"/>
<path d="M7718 1648 c-156 -57 -166 -62 -158 -82 10 -26 13 -25 163 30 66 24
121 43 122 41 1 -1 -6 -65 -15 -142 -10 -77 -16 -143 -13 -147 2 -5 13 -8 23
-8 22 0 23 4 45 192 17 142 18 178 8 177 -5 0 -83 -28 -175 -61z"/>
<path d="M265 638 c-10 -73 -21 -137 -25 -142 -5 -4 -60 28 -124 73 l-116 80
1 -32 c0 -30 10 -39 136 -125 74 -51 137 -91 140 -89 5 5 52 319 53 350 0 11
-8 17 -24 17 -22 0 -24 -5 -41 -132z"/>
<path d="M13710 758 c-1 -33 -37 -259 -43 -264 -3 -3 -59 30 -123 75 -114 78
-118 80 -132 60 -8 -11 -12 -22 -11 -23 49 -38 302 -207 305 -204 3 4 54 338
54 359 0 14 -50 11 -50 -3z"/>
<path d="M4635 697 c-8 -29 -24 -91 -36 -139 -12 -49 -25 -88 -28 -88 -4 0
-54 41 -112 90 -57 50 -107 90 -111 90 -4 0 -12 -8 -17 -18 -8 -16 10 -36 124
-135 74 -64 138 -117 142 -117 8 0 94 322 93 346 0 7 -9 14 -20 17 -17 4 -22
-3 -35 -46z"/>
<path d="M18040 605 c-19 -74 -38 -135 -42 -135 -4 0 -29 19 -55 43 -145 127
-162 140 -178 127 -8 -7 -15 -16 -15 -20 0 -15 272 -242 280 -234 12 13 80
287 80 323 0 23 -5 31 -18 31 -14 0 -24 -26 -52 -135z"/>
<path d="M8947 660 c-87 -32 -160 -60 -163 -63 -3 -3 -3 -15 1 -26 6 -19 11
-18 146 29 76 27 139 45 139 39 0 -6 -7 -67 -15 -136 -9 -69 -14 -132 -11
-140 3 -7 14 -13 24 -13 17 0 21 16 36 148 10 81 20 164 23 185 4 28 2 37 -8
36 -8 -1 -85 -27 -172 -59z"/>
<path d="M6670 687 l0 -25 140 -7 c77 -4 142 -11 145 -15 2 -3 -28 -62 -67
-129 -57 -98 -68 -125 -57 -132 8 -5 19 -9 24 -9 6 0 51 71 101 158 l91 157
-56 6 c-30 4 -115 10 -188 14 l-133 7 0 -25z"/>
<path d="M11115 646 c-19 -13 -17 -18 42 -142 l62 -129 -145 -3 -144 -3 0 -24
0 -25 185 0 184 0 -43 93 c-23 50 -61 127 -82 170 -37 73 -41 77 -59 63z"/>
<path d="M2272 532 c-89 -19 -161 -39 -160 -44 2 -5 52 -71 112 -147 97 -124
111 -138 128 -128 10 7 18 15 18 18 0 3 -38 54 -85 113 -47 59 -85 111 -85
114 0 4 63 20 140 36 77 16 140 32 140 37 0 20 -14 39 -29 38 -9 -1 -89 -17
-179 -37z"/>
<path d="M15810 555 c-30 -7 -104 -23 -163 -35 -75 -16 -107 -27 -103 -35 2
-7 53 -74 111 -148 96 -121 110 -134 126 -124 11 7 19 14 19 17 0 3 -38 53
-85 113 -47 59 -85 111 -85 115 0 4 63 21 140 36 110 23 140 32 135 43 -3 8
-5 19 -5 24 0 12 -22 10 -90 -6z"/>
</g>
</svg>
