<?xml version="1.0" standalone="no"?>
<!DOCTYPE svg PUBLIC "-//W3C//DTD SVG 20010904//EN"
 "http://www.w3.org/TR/2001/REC-SVG-20010904/DTD/svg10.dtd">
<svg version="1.0" xmlns="http://www.w3.org/2000/svg"
 width="1811.000000pt" height="1217.000000pt" viewBox="0 0 1811.000000 1217.000000"
 preserveAspectRatio="xMidYMid meet">
<metadata>
Created by potrace 1.13, written by Peter Selinger 2001-2015
</metadata>
<g transform="translate(0.000000,1217.000000) scale(0.100000,-0.100000)"
fill="#000000" stroke="none">
<path d="M717 12078 c-41 -51 -98 -129 -128 -173 -58 -86 -172 -305 -164 -313
2 -3 -10 -30 -27 -61 -77 -136 -197 -299 -327 -446 -59 -67 -71 -86 -70 -115
l0 -35 65 70 c138 147 291 352 374 498 18 32 30 60 27 63 -8 9 103 220 162
309 62 91 148 203 200 258 l35 37 -37 0 c-34 0 -41 -6 -110 -92z"/>
<path d="M1813 12083 c-39 -49 -96 -126 -127 -172 -62 -92 -166 -291 -166
-315 0 -25 -106 -196 -191 -310 -231 -307 -479 -527 -754 -668 -214 -110 -341
-198 -509 -355 -58 -55 -66 -67 -66 -99 l0 -38 87 85 c166 161 300 256 518
368 287 146 564 398 799 724 70 98 156 242 156 261 0 25 107 229 169 321 33
50 96 134 140 188 l81 97 -33 0 c-30 0 -41 -9 -104 -87z"/>
<path d="M2910 12090 c-122 -149 -300 -444 -300 -497 0 -36 -161 -281 -277
-420 -138 -166 -337 -351 -486 -452 -40 -27 -124 -74 -187 -106 -224 -112
-399 -244 -605 -457 -195 -201 -322 -375 -405 -553 -48 -103 -136 -236 -233
-351 -82 -98 -295 -308 -370 -364 -39 -29 -46 -41 -47 -68 l0 -33 62 48 c91
71 310 285 396 388 94 111 192 260 236 357 76 167 207 346 396 541 200 207
356 325 577 438 209 107 327 193 506 368 119 115 220 232 314 363 80 109 162
246 168 278 18 95 192 372 351 558 l37 42 -34 0 c-30 -1 -41 -10 -99 -80z"/>
<path d="M4039 12133 c-128 -143 -293 -407 -342 -551 -38 -109 -228 -370 -401
-550 -206 -214 -352 -325 -560 -426 -374 -183 -781 -587 -977 -970 -123 -239
-223 -371 -451 -592 -152 -148 -315 -274 -474 -368 -329 -194 -546 -370 -765
-619 -60 -66 -69 -82 -69 -115 l1 -37 51 60 c85 99 327 336 418 408 92 74 223
161 394 263 300 178 634 489 815 757 26 40 78 132 115 204 124 244 323 488
568 698 138 118 240 186 409 272 154 79 197 107 324 208 178 142 381 363 514
560 82 121 144 226 137 232 -9 10 103 220 172 324 39 57 102 142 141 188 39
46 71 85 71 87 0 2 -13 4 -29 4 -20 0 -38 -11 -62 -37z"/>
<path d="M5087 12078 c-128 -160 -278 -409 -292 -486 -6 -33 -108 -197 -190
-307 -241 -322 -491 -538 -794 -689 -141 -70 -258 -150 -400 -272 -244 -210
-467 -487 -576 -718 -81 -170 -209 -340 -395 -526 -178 -178 -334 -299 -565
-435 -225 -134 -365 -239 -542 -409 -186 -178 -347 -378 -433 -536 -76 -138
-134 -222 -227 -331 -164 -190 -459 -460 -621 -569 -41 -28 -52 -41 -52 -62 0
-16 2 -28 6 -28 12 0 129 85 234 171 143 116 357 324 473 458 93 109 151 193
227 331 176 323 579 716 950 925 414 234 831 649 987 983 130 279 428 621 731
839 48 34 146 93 217 129 238 122 372 220 560 409 122 123 245 271 333 403 73
109 126 202 119 208 -8 9 103 221 162 309 62 91 148 203 200 258 l35 37 -37 0
c-34 0 -41 -6 -110 -92z"/>
<path d="M6200 12098 c-120 -142 -265 -385 -321 -536 -16 -44 -150 -247 -232
-352 -37 -47 -120 -138 -185 -203 -201 -203 -348 -312 -552 -410 -356 -171
-767 -582 -962 -962 -122 -239 -222 -370 -450 -591 -152 -148 -315 -274 -474
-368 -271 -161 -406 -261 -593 -441 -207 -200 -368 -403 -462 -585 -78 -152
-244 -350 -455 -547 -203 -189 -344 -298 -504 -393 -336 -198 -829 -687 -966
-957 -31 -60 -39 -88 -41 -141 l-3 -67 31 65 c18 36 45 93 62 127 93 196 505
626 799 836 36 26 108 73 160 103 192 116 442 325 647 542 154 162 229 257
283 355 122 222 222 359 398 541 197 205 370 341 620 488 291 172 556 398 768
656 82 99 143 195 220 347 103 201 260 405 454 590 177 170 313 267 519 372
75 39 158 85 185 103 160 108 434 362 434 402 0 12 5 18 13 15 14 -5 113 112
195 230 70 102 154 244 148 250 -9 10 102 219 172 324 39 57 102 141 141 186
39 46 71 85 71 88 0 3 -13 5 -30 5 -24 0 -40 -13 -90 -72z"/>
<path d="M7253 12083 c-39 -49 -99 -131 -133 -183 -66 -101 -160 -280 -160
-305 0 -19 -84 -161 -155 -260 -84 -118 -159 -207 -264 -317 -177 -185 -337
-306 -545 -410 -138 -69 -300 -176 -378 -249 -29 -27 -55 -50 -58 -49 -13 1
-251 -246 -323 -335 -104 -128 -169 -230 -247 -383 -34 -67 -87 -157 -117
-200 -209 -290 -542 -587 -858 -762 -376 -208 -802 -635 -983 -985 -68 -130
-164 -248 -371 -456 -197 -197 -353 -330 -485 -415 -325 -209 -382 -253 -599
-455 -215 -203 -452 -496 -487 -605 -64 -198 -308 -497 -608 -746 -123 -104
-224 -171 -362 -243 -100 -52 -115 -64 -118 -88 -2 -15 -2 -27 0 -27 16 0 260
134 330 182 176 117 378 300 535 483 120 139 198 255 248 370 77 179 204 346
434 575 223 221 327 303 638 501 237 152 600 491 779 729 35 47 83 121 106
165 181 350 594 763 973 975 413 230 820 633 991 980 103 211 207 352 411 561
73 75 133 141 133 147 0 7 7 12 15 12 9 0 44 23 78 52 90 75 227 162 352 225
61 31 146 79 190 107 206 134 448 377 630 631 68 95 155 240 155 259 0 7 22
57 49 112 74 152 197 329 324 472 l20 22 -35 0 c-32 0 -41 -8 -105 -87z"/>
<path d="M8364 12107 c-128 -154 -263 -373 -305 -492 -54 -154 -241 -409 -463
-630 -186 -184 -294 -266 -481 -361 -243 -124 -409 -249 -615 -460 -186 -192
-333 -390 -402 -541 -74 -165 -190 -323 -385 -524 -79 -81 -143 -146 -143
-143 0 2 -33 -23 -72 -57 -100 -84 -228 -172 -383 -264 -221 -131 -385 -257
-564 -436 -190 -190 -327 -366 -421 -541 -64 -121 -118 -195 -244 -337 -213
-239 -492 -476 -722 -613 -352 -209 -847 -706 -966 -968 -107 -237 -194 -358
-422 -585 -224 -223 -362 -326 -603 -452 -305 -158 -582 -361 -823 -603 -130
-129 -197 -218 -284 -377 -58 -106 -67 -128 -64 -165 l3 -43 47 80 c25 44 66
117 91 162 60 110 122 188 242 308 227 229 535 455 794 585 238 119 402 241
632 470 235 234 312 341 434 603 117 251 590 725 928 930 264 162 538 394 760
645 126 144 178 217 252 352 99 182 221 334 426 536 185 180 328 290 534 409
193 112 435 291 435 322 0 9 6 13 14 10 16 -6 251 228 338 338 86 108 156 218
203 318 80 171 210 349 393 539 196 203 360 328 579 440 152 77 229 126 348
221 116 94 327 315 432 454 97 129 201 295 208 333 15 77 170 336 283 473 32
38 68 82 81 98 l24 29 -34 -1 c-29 0 -41 -9 -85 -62z"/>
<path d="M9450 12098 c-34 -40 -93 -120 -132 -177 -68 -102 -178 -308 -178
-334 0 -23 -108 -196 -194 -310 -155 -207 -353 -404 -531 -532 -50 -35 -149
-94 -221 -130 -205 -102 -347 -204 -535 -382 -197 -188 -356 -395 -461 -598
-105 -206 -186 -320 -342 -484 -203 -213 -393 -365 -632 -506 -163 -96 -281
-178 -389 -269 -100 -84 -255 -238 -255 -253 0 -7 -5 -12 -11 -10 -14 3 -170
-180 -238 -278 -27 -38 -74 -117 -106 -175 -69 -126 -130 -211 -257 -350 -223
-245 -480 -464 -696 -594 -192 -114 -336 -230 -556 -445 -243 -239 -385 -421
-452 -583 -66 -158 -168 -300 -359 -496 -219 -227 -416 -377 -638 -488 -240
-121 -475 -284 -723 -505 -170 -150 -286 -291 -372 -452 -233 -436 -503 -721
-872 -922 -58 -31 -149 -86 -203 -121 -86 -58 -97 -68 -97 -95 0 -16 2 -29 4
-29 3 0 39 25 82 55 42 30 122 81 178 111 247 138 364 222 516 374 162 162
338 407 449 628 136 270 621 688 1051 907 228 116 384 230 594 434 214 209
343 376 418 540 21 47 49 105 61 129 44 86 185 260 334 413 231 236 423 393
629 514 261 154 680 544 866 806 25 35 62 96 81 135 48 96 140 230 236 344 44
52 81 103 81 113 0 11 5 17 13 14 6 -2 59 41 117 97 181 175 314 276 543 410
300 176 567 407 778 671 86 107 130 177 208 330 102 201 264 412 456 594 181
171 314 265 522 371 76 39 177 98 225 133 193 139 389 335 554 557 88 117 200
298 191 307 -10 10 99 216 171 324 39 57 102 141 141 186 39 46 71 85 71 88 0
3 -13 5 -30 5 -24 0 -40 -13 -90 -72z"/>
<path d="M10527 12078 c-41 -51 -98 -129 -128 -173 -58 -86 -172 -305 -164
-313 13 -14 -138 -246 -258 -394 -216 -270 -453 -467 -725 -602 -62 -31 -141
-75 -175 -98 -318 -213 -666 -598 -796 -881 -79 -171 -211 -348 -400 -537
-185 -184 -365 -320 -611 -463 -386 -224 -797 -642 -970 -987 -74 -147 -329
-435 -560 -632 -58 -50 -118 -102 -135 -117 -28 -26 -128 -93 -333 -223 -259
-165 -655 -551 -821 -798 -31 -47 -74 -125 -94 -174 -68 -162 -207 -349 -410
-549 -201 -198 -369 -320 -611 -445 -264 -137 -539 -337 -770 -562 -149 -145
-230 -248 -306 -391 -150 -280 -342 -527 -541 -694 -112 -94 -178 -138 -320
-216 -228 -125 -373 -234 -545 -410 -123 -127 -237 -275 -319 -414 -59 -99
-118 -225 -111 -232 7 -8 -117 -206 -185 -296 -34 -45 -102 -128 -151 -184
-72 -83 -88 -107 -88 -134 l0 -33 36 35 c138 132 424 523 429 588 2 25 98 212
151 293 114 178 301 388 454 511 90 73 239 169 393 255 334 185 606 478 838
901 84 154 154 244 300 386 232 225 497 417 786 568 239 125 404 248 609 452
198 197 332 379 408 553 23 54 67 133 96 176 171 247 550 613 801 774 50 31
131 83 181 115 49 32 92 66 95 77 3 10 10 17 17 14 37 -14 512 441 644 618 40
53 93 136 119 185 79 151 162 265 317 436 169 188 413 391 593 494 260 149
457 297 649 488 195 195 325 369 408 548 80 171 225 366 416 557 191 192 349
309 550 410 265 132 512 338 727 608 124 154 274 384 260 398 -8 9 103 220
162 309 62 91 148 203 200 258 l35 37 -37 0 c-34 0 -41 -6 -110 -92z"/>
<path d="M11623 12083 c-130 -162 -215 -305 -313 -528 -60 -137 -254 -391
-439 -575 -163 -163 -308 -271 -486 -362 -215 -110 -317 -180 -492 -339 -232
-211 -402 -429 -526 -675 -75 -148 -143 -246 -262 -384 -197 -226 -431 -420
-680 -565 -127 -74 -261 -164 -345 -230 -278 -222 -539 -518 -665 -755 -78
-149 -165 -260 -350 -449 -228 -234 -413 -386 -607 -503 -199 -119 -378 -265
-603 -492 -141 -142 -275 -299 -275 -323 0 -7 -5 -13 -10 -13 -17 0 -79 -106
-125 -211 -94 -216 -307 -473 -585 -705 -130 -108 -233 -176 -401 -265 -283
-148 -567 -352 -793 -570 -146 -140 -223 -239 -315 -402 -151 -271 -255 -412
-430 -587 -135 -134 -259 -228 -411 -311 -153 -84 -207 -118 -310 -195 -191
-141 -384 -349 -523 -559 -63 -96 -157 -275 -157 -299 0 -8 -17 -43 -37 -78
-179 -307 -463 -619 -727 -797 -40 -27 -133 -80 -207 -118 -190 -98 -333 -199
-481 -341 -59 -56 -68 -70 -68 -100 l0 -36 82 81 c161 155 318 267 502 357 61
30 143 76 181 102 238 159 506 434 682 699 78 119 113 180 113 199 0 25 109
231 168 319 201 297 446 521 761 697 207 115 317 196 467 345 180 179 288 325
431 583 43 78 107 177 142 222 190 241 599 561 946 741 166 86 281 161 407
266 305 254 530 528 619 756 11 28 34 73 50 100 16 26 29 56 29 67 0 11 6 20
14 20 7 0 51 46 97 103 150 184 442 461 624 592 33 24 110 74 172 112 210 128
468 346 687 583 131 141 214 253 281 380 171 322 574 728 919 925 315 180 593
409 799 657 112 137 169 222 239 363 107 212 236 382 449 590 207 202 314 280
554 403 278 143 531 368 770 687 78 104 185 277 185 299 0 25 107 228 169 321
33 50 96 134 140 188 l81 97 -33 0 c-30 0 -41 -9 -104 -87z"/>
<path d="M12720 12090 c-122 -150 -300 -444 -300 -497 0 -21 -88 -167 -164
-273 -164 -229 -399 -463 -599 -599 -40 -27 -124 -74 -187 -106 -222 -111
-397 -243 -600 -451 -194 -200 -324 -375 -405 -549 -88 -187 -228 -370 -442
-575 -159 -153 -324 -277 -537 -404 -263 -157 -467 -322 -662 -536 -158 -174
-259 -314 -343 -476 -131 -254 -596 -705 -937 -910 -283 -169 -642 -498 -860
-787 -74 -97 -116 -171 -154 -266 -81 -208 -397 -560 -706 -788 -80 -59 -238
-155 -261 -159 -19 -3 -204 -110 -303 -175 -132 -86 -276 -197 -410 -314 -200
-176 -305 -302 -410 -495 -131 -239 -240 -389 -405 -559 -123 -127 -258 -233
-388 -307 -312 -175 -408 -245 -582 -419 -182 -181 -364 -437 -430 -604 -43
-106 -66 -150 -141 -263 -97 -145 -176 -241 -318 -386 -190 -194 -311 -285
-523 -393 -228 -117 -397 -244 -594 -446 -98 -101 -255 -288 -279 -333 -9 -18
-8 -20 17 -20 23 0 40 16 101 95 99 126 263 298 381 397 129 108 244 184 382
253 127 64 241 136 339 214 97 77 282 263 375 376 128 157 269 369 280 422 12
64 123 260 225 398 197 267 416 458 710 620 216 119 325 201 485 366 165 170
259 299 399 547 46 83 101 173 121 199 181 238 581 566 891 730 49 26 91 50
92 55 2 4 11 8 21 8 25 0 194 106 312 196 143 108 416 383 516 519 80 106 117
172 186 325 114 253 606 742 961 954 211 127 484 357 689 581 142 155 220 261
281 377 90 174 236 359 437 555 189 184 305 272 547 416 202 120 369 247 531
403 214 206 366 403 445 576 76 167 207 346 396 541 200 207 356 325 577 438
209 107 327 193 506 368 119 115 220 232 314 363 80 109 162 246 168 278 18
95 192 372 351 558 l37 42 -34 0 c-30 -1 -41 -10 -99 -80z"/>
<path d="M13833 12114 c-110 -127 -246 -341 -302 -474 -13 -30 -30 -71 -38
-90 -21 -49 -133 -219 -212 -320 -88 -114 -295 -325 -406 -415 -107 -87 -215
-155 -345 -218 -350 -168 -768 -585 -956 -951 -125 -245 -223 -374 -445 -591
-161 -156 -323 -283 -485 -379 -272 -161 -409 -263 -593 -441 -212 -205 -366
-400 -467 -594 -142 -271 -610 -728 -955 -931 -190 -113 -377 -268 -614 -511
-219 -224 -312 -354 -404 -560 -61 -140 -200 -317 -402 -515 -207 -202 -336
-296 -590 -429 -272 -144 -482 -293 -739 -526 -145 -131 -300 -323 -300 -371
0 -10 -4 -18 -10 -18 -5 0 -26 -30 -46 -67 -114 -205 -256 -402 -390 -539
-150 -152 -272 -244 -466 -350 -333 -182 -588 -413 -793 -719 -65 -98 -168
-290 -178 -335 -17 -69 -187 -314 -343 -490 -194 -220 -388 -372 -629 -493
-258 -128 -497 -327 -727 -604 -42 -50 -90 -111 -107 -137 l-32 -46 29 0 c24
0 39 13 89 78 155 200 357 397 541 529 48 34 150 95 227 134 145 75 254 143
340 213 178 145 321 295 467 489 92 124 204 304 194 314 -9 9 100 215 169 318
152 227 361 439 574 585 32 21 116 71 187 111 305 170 483 325 685 595 110
148 219 333 219 373 0 21 4 31 12 29 7 -3 33 27 59 66 173 265 625 633 1015
829 208 105 373 226 578 426 211 207 343 376 413 529 99 220 183 333 432 583
243 243 389 361 595 483 199 118 470 351 694 596 123 136 197 235 251 340 93
181 255 386 457 580 183 176 312 272 588 436 200 119 399 282 592 485 156 163
239 280 338 476 125 245 320 486 568 698 137 118 240 186 409 272 75 39 158
85 185 103 224 151 486 419 653 665 82 121 144 226 137 232 -9 10 103 220 172
324 39 57 97 135 129 173 92 109 91 106 55 106 -25 0 -40 -11 -79 -56z"/>
<path d="M14915 12103 c-119 -143 -295 -433 -310 -511 -6 -33 -107 -197 -190
-307 -231 -308 -482 -529 -770 -676 -169 -86 -279 -160 -422 -284 -249 -213
-464 -481 -576 -714 -85 -177 -210 -345 -397 -531 -181 -180 -335 -299 -565
-435 -228 -135 -366 -239 -548 -415 -182 -174 -330 -358 -422 -520 -96 -169
-111 -193 -174 -272 -211 -264 -567 -579 -836 -739 -255 -152 -643 -510 -846
-783 -33 -44 -81 -124 -105 -176 -93 -197 -131 -257 -251 -402 -149 -179 -375
-387 -547 -502 -45 -30 -152 -92 -237 -136 -286 -151 -555 -347 -786 -573
-154 -151 -217 -234 -319 -415 -239 -429 -486 -687 -844 -883 -229 -125 -373
-234 -546 -410 -119 -123 -231 -266 -313 -403 -56 -92 -121 -226 -121 -248 0
-21 -95 -172 -185 -293 -227 -306 -474 -526 -750 -666 -160 -82 -263 -148
-385 -246 -153 -123 -355 -337 -495 -525 l-27 -38 29 0 c26 0 42 15 121 113
107 134 299 328 413 418 122 97 207 151 369 234 236 122 448 296 643 526 139
164 308 413 312 457 2 31 104 223 170 322 35 52 93 131 128 175 84 104 284
296 375 360 39 28 71 56 72 63 0 6 7 12 16 12 9 0 41 15 72 34 32 18 107 61
167 95 334 187 605 479 836 900 85 157 155 245 311 396 224 217 501 418 758
549 236 121 417 254 625 461 199 198 333 379 408 552 74 171 179 307 421 548
197 197 387 352 541 444 193 115 360 248 574 456 221 215 330 353 441 555 171
314 562 700 920 907 141 82 277 173 371 249 289 232 522 501 636 734 91 187
186 323 356 511 191 211 385 363 627 489 294 153 516 341 749 635 105 132 250
359 238 371 -8 9 103 221 162 309 62 91 148 203 200 258 l35 37 -36 0 c-33 0
-42 -7 -93 -67z"/>
<path d="M16010 12098 c-120 -142 -265 -385 -321 -536 -16 -44 -150 -247 -232
-352 -37 -47 -120 -138 -185 -203 -201 -203 -348 -312 -552 -410 -356 -171
-767 -582 -962 -962 -122 -239 -222 -370 -450 -591 -152 -148 -315 -274 -474
-368 -271 -161 -406 -261 -593 -441 -210 -202 -365 -400 -466 -593 -143 -272
-610 -728 -954 -931 -56 -33 -118 -73 -139 -88 -127 -95 -257 -207 -396 -343
-253 -247 -394 -428 -462 -592 -66 -158 -168 -300 -359 -496 -227 -235 -385
-354 -654 -497 -301 -159 -572 -357 -808 -592 -122 -122 -201 -226 -273 -359
-236 -438 -500 -718 -870 -919 -211 -115 -358 -223 -515 -380 -209 -209 -335
-397 -475 -709 -29 -67 -131 -221 -219 -330 -39 -49 -71 -96 -71 -103 0 -7 -4
-12 -8 -10 -4 1 -57 -48 -117 -108 -182 -183 -327 -291 -525 -390 -196 -98
-343 -204 -526 -378 -93 -89 -249 -266 -316 -361 l-40 -56 29 0 c25 0 41 16
113 107 160 202 403 429 585 546 39 24 122 70 185 102 193 97 337 203 517 381
70 69 103 109 103 124 0 15 5 20 14 17 23 -9 210 236 305 401 24 41 40 76 38
79 -9 8 98 213 162 308 153 231 366 449 580 595 32 21 116 71 187 111 170 94
278 169 394 272 189 168 363 396 505 662 89 166 194 296 361 447 237 214 487
389 730 511 208 105 373 226 578 426 211 207 343 376 413 529 94 209 180 328
403 556 224 229 405 379 600 496 230 137 484 353 718 610 123 135 197 235 251
340 85 164 197 313 371 494 197 205 370 341 620 488 290 171 557 399 768 656
82 99 143 195 220 347 103 201 260 405 454 590 177 170 313 267 519 372 75 39
158 85 185 103 158 107 434 362 434 402 0 12 5 18 13 15 14 -5 113 112 195
230 70 102 154 244 148 250 -9 10 102 219 172 324 39 57 102 141 141 186 39
46 71 85 71 88 0 3 -13 5 -30 5 -24 0 -40 -13 -90 -72z"/>
<path d="M17063 12083 c-39 -49 -99 -131 -133 -183 -66 -101 -160 -280 -160
-305 0 -19 -84 -161 -155 -260 -84 -118 -159 -207 -264 -317 -177 -185 -337
-306 -545 -410 -138 -69 -300 -176 -378 -249 -29 -27 -55 -49 -57 -48 -9 4
-251 -246 -322 -333 -110 -137 -166 -223 -243 -375 -37 -73 -92 -168 -123
-210 -203 -283 -507 -558 -818 -738 -238 -139 -416 -275 -605 -465 -192 -193
-327 -368 -418 -545 -63 -122 -160 -243 -342 -428 -240 -246 -407 -381 -676
-546 -245 -152 -629 -515 -809 -766 -65 -91 -81 -120 -153 -275 -109 -236
-446 -595 -750 -798 -48 -32 -148 -90 -222 -128 -157 -80 -408 -245 -565 -371
-138 -110 -367 -337 -428 -424 -25 -36 -78 -124 -118 -195 -238 -430 -494
-694 -878 -903 -137 -75 -203 -119 -329 -221 -164 -132 -329 -315 -452 -501
-66 -100 -160 -279 -160 -305 0 -43 -172 -298 -311 -459 -223 -260 -414 -410
-699 -553 -111 -56 -260 -156 -337 -229 -26 -23 -50 -43 -53 -43 -12 0 -266
-265 -326 -340 -75 -95 -114 -147 -114 -154 0 -3 13 -6 29 -6 20 0 34 8 47 28
40 62 146 185 261 303 68 69 123 131 123 138 0 6 6 11 13 9 6 -1 48 26 92 61
109 88 193 141 338 214 215 110 351 212 542 408 226 232 380 450 460 651 69
173 238 411 420 593 147 148 294 259 468 355 241 133 359 221 522 391 149 155
280 339 398 557 72 133 128 211 230 318 218 230 552 479 852 635 165 85 280
160 407 266 271 226 493 485 585 683 68 146 83 174 148 264 173 242 555 606
783 746 238 147 368 245 565 428 222 205 401 417 479 567 180 349 594 763 973
975 260 145 534 372 740 612 121 142 186 236 252 371 103 208 207 350 410 558
73 75 133 141 133 147 0 7 7 12 15 12 9 0 44 23 78 52 92 76 227 163 358 229
298 149 573 398 814 734 68 95 155 240 155 259 0 7 22 57 49 112 74 152 197
329 324 472 l20 22 -35 0 c-32 0 -41 -8 -105 -87z"/>
<path d="M7616 11855 c-37 -101 -65 -189 -61 -195 3 -5 14 -10 23 -10 13 0 34
46 85 186 69 187 71 203 32 204 -6 0 -41 -83 -79 -185z"/>
<path d="M17426 11855 c-37 -101 -65 -189 -61 -195 3 -5 14 -10 23 -10 13 0
34 46 85 186 69 187 71 203 32 204 -6 0 -41 -83 -79 -185z"/>
<path d="M1003 12001 c-11 -17 1 -28 110 -111 67 -51 127 -97 133 -102 7 -5
18 -1 28 11 16 17 10 23 -117 119 -73 56 -135 102 -138 102 -2 0 -9 -8 -16
-19z"/>
<path d="M10813 12001 c-11 -17 1 -28 110 -111 67 -51 127 -97 133 -102 7 -5
18 -1 28 11 16 17 10 23 -117 119 -73 56 -135 102 -138 102 -2 0 -9 -8 -16
-19z"/>
<path d="M18039 11925 c-79 -118 -151 -250 -174 -320 -46 -139 -242 -404 -459
-620 -186 -184 -294 -266 -481 -361 -243 -124 -409 -249 -615 -460 -186 -192
-333 -390 -402 -541 -74 -165 -190 -323 -385 -524 -79 -81 -143 -146 -143
-143 0 2 -33 -23 -72 -57 -100 -84 -228 -172 -383 -264 -221 -131 -385 -257
-564 -436 -190 -190 -327 -366 -421 -541 -66 -125 -122 -201 -259 -352 -205
-228 -482 -463 -697 -592 -365 -218 -853 -705 -976 -974 -112 -243 -195 -358
-423 -585 -222 -222 -360 -326 -602 -452 -305 -158 -581 -360 -823 -603 -137
-136 -182 -196 -286 -382 -147 -262 -262 -415 -441 -589 -144 -140 -235 -206
-432 -314 -442 -241 -801 -638 -962 -1064 -20 -54 -179 -287 -267 -391 -112
-134 -331 -343 -442 -422 -52 -38 -151 -96 -220 -130 -201 -101 -364 -216
-533 -377 -102 -97 -230 -241 -308 -345 l-61 -81 29 -3 c21 -3 33 3 48 24 73
100 166 206 274 314 200 200 339 304 541 405 265 132 484 312 709 581 116 139
311 434 286 434 -3 0 19 48 49 108 99 196 231 379 390 537 161 160 294 258
523 385 364 201 628 480 871 922 86 156 137 223 267 353 227 228 519 444 780
577 259 132 413 246 646 478 235 234 312 341 434 603 118 252 589 724 928 930
264 162 538 394 760 645 126 144 178 217 252 352 99 182 221 334 426 536 185
180 328 290 534 409 193 112 435 291 435 322 0 9 6 13 14 10 16 -6 251 228
338 338 86 109 155 217 203 318 79 170 209 349 393 539 196 203 360 328 577
439 231 117 360 215 561 421 72 74 171 189 221 255 97 129 201 295 208 333 8
39 91 201 151 291 47 72 54 90 52 124 l-3 39 -66 -99z"/>
<path d="M3413 11887 c-117 -51 -213 -94 -213 -97 0 -4 6 -14 13 -23 11 -14
33 -7 225 75 116 50 212 94 212 98 0 3 -6 13 -12 22 -12 14 -37 6 -225 -75z"/>
<path d="M13223 11887 c-117 -51 -213 -94 -213 -97 0 -4 6 -14 13 -23 11 -14
33 -7 225 75 116 50 212 94 212 98 0 3 -6 13 -12 22 -12 14 -37 6 -225 -75z"/>
<path d="M9396 11414 c-3 -9 -6 -18 -6 -21 0 -2 97 -52 216 -110 216 -105 233
-110 234 -67 0 9 -414 215 -431 214 -4 0 -10 -7 -13 -16z"/>
<path d="M6086 11381 c-5 -8 120 -348 134 -364 9 -10 40 2 40 15 0 8 -72 203
-125 341 -7 18 -40 24 -49 8z"/>
<path d="M15896 11381 c-5 -8 120 -348 134 -364 9 -10 40 2 40 15 0 8 -72 203
-125 341 -7 18 -40 24 -49 8z"/>
<path d="M1672 11262 c-9 -6 4 -46 55 -160 37 -84 70 -152 73 -152 3 0 13 6
22 13 15 11 9 27 -49 160 -36 81 -71 147 -77 147 -6 0 -17 -4 -24 -8z"/>
<path d="M11482 11262 c-9 -6 4 -46 55 -160 37 -84 70 -152 73 -152 3 0 13 6
22 13 15 11 9 27 -49 160 -36 81 -71 147 -77 147 -6 0 -17 -4 -24 -8z"/>
<path d="M3747 11238 c-14 -12 -8 -28 63 -158 44 -80 85 -146 92 -147 7 -2 19
1 26 5 10 7 -7 45 -70 160 -45 84 -85 152 -88 152 -4 0 -14 -6 -23 -12z"/>
<path d="M13557 11238 c-14 -12 -8 -28 63 -158 44 -80 85 -146 92 -147 7 -2
19 1 26 5 10 7 -7 45 -70 160 -45 84 -85 152 -88 152 -4 0 -14 -6 -23 -12z"/>
<path d="M4750 10908 c-28 -88 -49 -167 -46 -175 3 -8 14 -13 23 -11 13 2 30
43 65 153 59 183 58 176 32 185 -21 8 -25 0 -74 -152z"/>
<path d="M14560 10908 c-28 -88 -49 -167 -46 -175 3 -8 14 -13 23 -11 13 2 30
43 65 153 59 184 58 176 31 186 -20 7 -24 0 -73 -153z"/>
<path d="M8088 10902 c-109 -64 -198 -120 -198 -123 0 -3 6 -13 13 -22 11 -15
31 -6 206 98 107 63 199 119 204 124 10 10 -8 42 -22 40 -3 0 -95 -53 -203
-117z"/>
<path d="M17898 10902 c-109 -64 -198 -120 -198 -123 0 -3 6 -13 13 -22 11
-15 30 -6 204 95 175 103 192 115 193 141 0 15 -3 27 -7 26 -5 0 -97 -53 -205
-117z"/>
<path d="M17983 10606 c-193 -99 -340 -206 -517 -376 -199 -191 -354 -393
-458 -595 -122 -239 -222 -370 -450 -591 -164 -159 -327 -283 -524 -399 -163
-96 -281 -178 -389 -269 -100 -84 -255 -238 -255 -253 0 -7 -5 -12 -11 -10
-14 3 -170 -180 -238 -278 -27 -38 -74 -117 -106 -175 -69 -126 -130 -211
-257 -350 -223 -245 -480 -464 -696 -594 -192 -114 -336 -230 -556 -445 -243
-239 -385 -421 -452 -583 -66 -158 -168 -300 -359 -496 -219 -227 -416 -377
-638 -488 -240 -121 -475 -284 -723 -505 -170 -150 -286 -291 -372 -452 -233
-436 -502 -720 -872 -922 -338 -184 -593 -417 -801 -730 -62 -92 -169 -296
-169 -320 0 -36 -157 -273 -278 -419 -208 -251 -434 -437 -682 -561 -143 -71
-228 -126 -350 -223 -165 -132 -395 -375 -499 -526 l-32 -46 28 0 c25 0 41 16
113 107 160 202 403 429 585 546 39 24 122 70 185 102 250 125 479 314 692
571 120 145 300 416 285 430 -3 3 15 45 39 94 179 367 495 700 849 897 252
141 364 221 515 373 163 163 299 352 434 600 70 130 144 226 261 344 222 224
536 454 805 591 228 116 385 230 594 434 216 211 344 377 418 540 21 47 49
105 61 129 44 86 185 260 334 413 231 236 423 393 629 514 261 154 680 544
866 806 25 35 62 96 81 135 48 96 140 230 236 344 44 52 81 103 81 114 0 11 5
16 14 13 8 -3 40 22 77 60 165 168 349 310 582 447 300 177 567 407 778 671
84 105 129 176 207 330 104 202 266 412 457 594 179 168 319 270 493 356 105
52 112 57 112 85 0 17 -1 30 -2 29 -2 -1 -58 -29 -125 -63z"/>
<path d="M6440 10565 c0 -14 6 -25 13 -25 6 0 79 -7 162 -15 82 -7 150 -13
151 -12 8 10 13 47 7 47 -4 0 -73 7 -153 15 -191 19 -180 20 -180 -10z"/>
<path d="M16250 10565 c0 -14 6 -25 13 -25 6 0 79 -7 162 -15 82 -7 150 -13
151 -12 8 10 13 47 7 47 -4 0 -73 7 -153 15 -191 19 -180 20 -180 -10z"/>
<path d="M1705 10429 c-4 -11 -5 -22 -3 -24 2 -2 76 -35 166 -74 160 -68 163
-69 171 -48 6 15 4 24 -4 29 -15 9 -315 138 -320 138 -2 0 -7 -9 -10 -21z"/>
<path d="M11515 10429 c-4 -11 -5 -22 -3 -24 2 -2 76 -35 166 -74 160 -68 163
-69 171 -48 6 15 4 24 -4 29 -15 9 -315 138 -320 138 -2 0 -7 -9 -10 -21z"/>
<path d="M8096 10303 c6 -39 64 -443 64 -454 0 -12 37 -12 44 0 5 8 -45 395
-59 459 -4 15 -13 22 -30 22 -21 0 -24 -4 -19 -27z"/>
<path d="M17906 10303 c6 -39 64 -443 64 -454 0 -12 37 -12 44 0 5 8 -45 395
-59 459 -4 15 -13 22 -30 22 -21 0 -24 -4 -19 -27z"/>
<path d="M537 10287 c-16 -11 -12 -25 55 -165 40 -83 76 -152 79 -152 3 0 13
6 22 13 16 11 12 25 -55 164 -40 84 -76 152 -79 152 -3 1 -13 -5 -22 -12z"/>
<path d="M9363 10236 c-215 -56 -232 -62 -227 -81 4 -11 8 -22 10 -24 2 -2
371 90 455 115 16 4 16 39 0 48 -3 1 -111 -24 -238 -58z"/>
<path d="M10347 10287 c-16 -11 -12 -25 55 -165 40 -83 76 -152 79 -152 3 0
13 6 22 13 15 11 10 26 -56 164 -39 84 -75 152 -78 153 -3 0 -13 -6 -22 -13z"/>
<path d="M3530 9908 c-73 -94 -134 -177 -137 -184 -2 -7 4 -17 15 -23 16 -9
35 11 156 170 113 148 136 183 126 194 -7 8 -16 15 -21 15 -4 0 -67 -77 -139
-172z"/>
<path d="M13340 9910 c-72 -94 -133 -177 -136 -185 -3 -7 3 -18 13 -24 17 -8
36 13 157 170 114 148 136 182 126 194 -7 8 -16 15 -20 15 -5 0 -68 -77 -140
-170z"/>
<path d="M4668 9838 c-146 -56 -188 -76 -188 -89 0 -10 4 -20 9 -24 8 -4 365
124 394 142 8 5 -10 43 -21 42 -4 0 -91 -32 -194 -71z"/>
<path d="M14478 9838 c-146 -56 -188 -76 -188 -89 0 -10 4 -20 9 -24 8 -4 365
124 394 142 8 5 -10 43 -21 42 -4 0 -91 -32 -194 -71z"/>
<path d="M2425 9643 c-32 -109 -60 -203 -62 -209 -2 -6 7 -14 20 -16 24 -5 26
1 86 200 34 112 61 205 59 207 -2 1 -12 5 -24 9 -19 6 -25 -8 -79 -191z"/>
<path d="M12235 9643 c-32 -109 -60 -203 -62 -209 -2 -6 7 -14 20 -16 24 -5
26 1 86 200 34 112 61 205 59 207 -2 1 -12 5 -24 9 -19 6 -25 -8 -79 -191z"/>
<path d="M6376 9382 c-32 -147 -59 -271 -60 -277 0 -5 10 -10 23 -10 24 0 26
7 83 264 32 146 56 271 54 278 -3 7 -13 13 -23 13 -15 0 -27 -40 -77 -268z"/>
<path d="M16186 9382 c-32 -147 -59 -271 -60 -277 0 -5 10 -10 23 -10 24 0 26
7 83 264 32 146 56 271 54 278 -3 7 -13 13 -23 13 -15 0 -27 -40 -77 -268z"/>
<path d="M18082 9600 c-57 -136 -209 -338 -391 -520 -184 -183 -364 -320 -611
-463 -386 -224 -796 -641 -970 -987 -74 -147 -328 -434 -560 -632 -58 -50
-120 -104 -139 -120 -32 -27 -138 -98 -329 -220 -259 -165 -655 -551 -821
-798 -31 -47 -74 -125 -94 -174 -68 -162 -207 -349 -410 -549 -202 -198 -352
-308 -599 -438 -281 -148 -549 -342 -782 -569 -149 -145 -229 -248 -306 -391
-228 -425 -499 -712 -860 -910 -230 -125 -372 -233 -546 -410 -123 -127 -237
-275 -319 -414 -59 -99 -118 -225 -111 -232 7 -8 -117 -206 -185 -296 -237
-313 -480 -529 -754 -668 -233 -120 -381 -228 -572 -417 -109 -108 -215 -230
-292 -334 l-42 -58 33 1 c29 0 39 9 85 72 117 160 339 381 508 507 107 79 169
116 331 199 257 132 514 364 748 676 76 100 179 268 181 293 2 25 98 213 151
294 114 178 301 388 454 511 89 72 238 169 392 255 336 187 608 479 839 901
84 154 154 244 300 386 232 225 497 417 786 568 239 125 404 248 609 452 198
197 332 379 408 553 23 54 67 133 96 176 171 247 550 613 801 774 50 31 131
83 181 115 49 32 92 66 95 77 3 10 10 17 17 14 37 -14 513 442 642 616 39 52
93 136 119 185 190 358 564 730 968 965 61 36 147 89 190 118 281 190 594 507
740 750 45 74 48 83 45 138 l-3 59 -23 -55z"/>
<path d="M798 9373 c-10 -3 -18 -10 -18 -16 1 -20 125 -290 135 -294 6 -1 16
1 24 6 12 8 4 35 -48 153 -35 79 -66 146 -70 149 -3 3 -14 4 -23 2z"/>
<path d="M10608 9373 c-10 -3 -18 -10 -18 -16 1 -20 125 -290 135 -294 6 -1
16 1 24 6 12 8 4 35 -48 153 -35 79 -66 146 -70 149 -3 3 -14 4 -23 2z"/>
<path d="M8563 9308 c-6 -7 -59 -98 -118 -201 -86 -150 -105 -191 -94 -198 8
-5 19 -9 24 -9 8 0 220 356 234 392 3 10 -16 28 -30 28 -4 0 -11 -6 -16 -12z"/>
<path d="M9456 9073 c-37 -108 -66 -196 -64 -198 2 -1 12 -5 23 -9 19 -5 26
10 85 181 36 104 65 192 65 197 0 5 -9 12 -21 16 -19 7 -25 -6 -88 -187z"/>
<path d="M7370 9156 c-121 -37 -205 -67 -204 -74 2 -28 5 -32 16 -32 7 0 106
28 220 62 191 58 208 65 208 85 0 16 -6 23 -17 22 -10 0 -110 -29 -223 -63z"/>
<path d="M17181 9156 c-113 -34 -206 -66 -208 -71 -1 -6 1 -16 6 -24 8 -13 44
-4 225 49 200 59 216 66 216 87 0 16 -6 23 -17 22 -10 0 -110 -29 -222 -63z"/>
<path d="M4893 8918 c-58 -193 -60 -203 -42 -212 11 -5 22 -6 25 -3 3 3 33 95
66 203 60 198 61 213 22 214 -6 0 -38 -91 -71 -202z"/>
<path d="M14703 8918 c-58 -193 -60 -203 -42 -212 11 -5 22 -6 25 -3 3 3 33
95 66 203 60 198 61 213 22 214 -6 0 -38 -91 -71 -202z"/>
<path d="M3652 8824 c-201 -159 -211 -168 -196 -185 20 -22 -11 -42 248 161
102 80 185 148 186 151 0 3 -6 13 -13 23 -11 16 -32 2 -225 -150z"/>
<path d="M13462 8824 c-201 -159 -211 -168 -196 -185 20 -22 -11 -42 248 161
102 80 185 148 186 151 0 3 -6 13 -13 23 -11 16 -32 2 -225 -150z"/>
<path d="M1436 8903 c-9 -22 -10 -21 135 -112 110 -70 125 -77 137 -63 6 9 12
19 12 22 0 8 -257 170 -269 170 -5 0 -12 -8 -15 -17z"/>
<path d="M11246 8903 c-9 -22 -10 -21 135 -112 110 -70 125 -77 137 -63 6 9
12 19 12 22 0 8 -257 170 -269 170 -5 0 -12 -8 -15 -17z"/>
<path d="M2553 8716 c-140 -41 -173 -54 -173 -69 0 -10 6 -20 13 -22 11 -5
344 89 354 99 7 6 -7 46 -15 45 -4 -1 -85 -24 -179 -53z"/>
<path d="M12363 8717 c-140 -42 -173 -55 -173 -70 0 -10 6 -20 13 -22 11 -5
344 89 354 99 7 6 -7 46 -15 45 -4 0 -85 -24 -179 -52z"/>
<path d="M18029 8527 c-327 -225 -653 -572 -804 -857 -77 -146 -164 -259 -340
-439 -232 -238 -423 -396 -616 -512 -201 -120 -443 -320 -643 -530 -121 -127
-236 -267 -236 -286 0 -7 -5 -13 -10 -13 -17 0 -79 -106 -125 -211 -23 -54
-67 -135 -98 -181 -112 -168 -333 -403 -522 -553 -121 -96 -211 -154 -366
-236 -303 -159 -554 -340 -794 -570 -145 -140 -223 -239 -314 -402 -151 -271
-255 -412 -430 -587 -135 -134 -259 -228 -411 -311 -243 -133 -369 -226 -541
-398 -129 -130 -207 -225 -302 -371 -60 -93 -147 -261 -147 -285 0 -18 -75
-146 -148 -250 -169 -242 -405 -482 -616 -624 -40 -27 -133 -80 -207 -118
-209 -107 -338 -202 -528 -387 -138 -136 -341 -373 -341 -399 0 -4 12 -7 28
-6 22 0 39 16 97 92 94 123 297 331 420 430 131 106 223 165 359 231 129 63
215 119 341 221 102 83 281 263 371 375 112 138 264 370 264 403 0 7 22 58 49
113 132 269 370 552 622 739 102 76 156 110 309 194 153 84 276 177 416 316
181 180 283 319 435 592 91 162 169 262 311 398 220 211 511 420 773 556 278
144 526 342 748 596 146 169 224 287 278 426 11 28 34 73 50 100 16 26 29 56
29 67 0 11 6 20 14 20 7 0 47 42 87 93 92 115 341 365 474 476 127 105 196
155 333 239 210 127 462 342 691 587 126 135 209 248 276 375 147 277 468 621
783 840 51 36 62 48 62 71 0 16 -1 29 -2 29 -2 -1 -37 -24 -79 -53z"/>
<path d="M8159 8173 c-12 -14 2 -31 126 -149 133 -127 140 -132 158 -116 18
16 12 22 -120 149 -76 72 -141 132 -144 133 -4 0 -13 -7 -20 -17z"/>
<path d="M6943 8080 l-23 -9 36 -83 c19 -46 54 -127 76 -181 41 -98 59 -120
80 -99 8 8 -10 62 -67 197 -43 102 -78 185 -79 184 0 0 -11 -4 -23 -9z"/>
<path d="M16753 8080 l-23 -9 36 -83 c19 -46 54 -127 76 -181 41 -98 59 -120
80 -99 8 8 -10 62 -67 197 -43 102 -78 185 -79 184 0 0 -11 -4 -23 -9z"/>
<path d="M611 7878 c-62 -161 -64 -177 -25 -178 6 0 39 73 73 162 61 161 63
177 25 178 -6 0 -39 -73 -73 -162z"/>
<path d="M10421 7878 c-61 -161 -64 -177 -25 -178 5 0 38 73 72 162 62 161 64
177 26 178 -6 0 -39 -73 -73 -162z"/>
<path d="M9153 7993 c-7 -19 -4 -22 137 -123 83 -60 103 -70 115 -60 8 7 15
16 15 20 0 10 -235 180 -249 180 -7 0 -14 -7 -18 -17z"/>
<path d="M3397 7897 c-16 -11 -7 -29 94 -202 61 -105 117 -196 123 -203 10
-10 15 -10 30 1 16 12 8 28 -101 215 -65 111 -121 202 -124 202 -3 0 -13 -6
-22 -13z"/>
<path d="M13207 7897 c-16 -11 -7 -29 94 -202 61 -105 117 -196 123 -203 10
-10 15 -10 30 1 16 12 8 28 -101 215 -65 111 -121 202 -124 202 -3 0 -13 -6
-22 -13z"/>
<path d="M4835 7884 c-38 -7 -123 -23 -187 -35 -67 -12 -118 -27 -118 -33 1
-37 14 -37 206 -1 104 19 192 35 197 35 4 0 7 11 7 25 0 29 -4 29 -105 9z"/>
<path d="M6033 7836 c-199 -50 -243 -64 -243 -78 0 -9 4 -19 9 -23 10 -6 477
108 488 119 3 3 2 14 -3 24 -8 18 -23 15 -251 -42z"/>
<path d="M14645 7884 c-38 -7 -123 -23 -187 -35 -67 -12 -118 -27 -118 -33 1
-36 14 -36 206 -1 104 19 192 35 197 35 4 0 7 11 7 25 0 29 -4 29 -105 9z"/>
<path d="M15843 7836 c-199 -50 -243 -64 -243 -78 0 -9 4 -19 9 -23 10 -6 477
108 488 119 3 3 2 14 -3 24 -8 18 -23 15 -251 -42z"/>
<path d="M2343 7832 c-9 -6 3 -65 47 -235 33 -125 60 -229 60 -232 0 -9 39 -5
44 3 4 7 -23 120 -105 435 -10 36 -22 44 -46 29z"/>
<path d="M12153 7832 c-9 -6 3 -65 47 -235 33 -125 60 -229 60 -232 0 -9 39
-5 44 3 4 7 -23 120 -105 435 -10 36 -22 44 -46 29z"/>
<path d="M1225 7556 c-21 -15 -26 -3 73 -158 65 -103 77 -116 93 -107 11 5 19
13 19 17 0 6 -153 248 -163 258 -2 2 -12 -2 -22 -10z"/>
<path d="M11035 7556 c-21 -15 -26 -3 73 -158 65 -103 77 -116 93 -107 11 5
19 13 19 17 0 6 -153 248 -163 258 -2 2 -12 -2 -22 -10z"/>
<path d="M18022 7273 c-182 -200 -468 -439 -668 -559 -374 -224 -852 -704
-981 -984 -58 -126 -78 -164 -126 -235 -132 -198 -380 -450 -613 -622 -80 -59
-238 -155 -261 -159 -19 -3 -204 -110 -303 -175 -132 -86 -276 -197 -410 -314
-200 -176 -305 -302 -410 -495 -131 -239 -240 -389 -405 -559 -123 -127 -258
-233 -388 -307 -312 -175 -408 -245 -582 -419 -186 -186 -362 -434 -430 -604
-43 -106 -66 -149 -142 -264 -101 -151 -220 -292 -364 -432 -184 -178 -305
-264 -511 -365 -174 -84 -373 -236 -559 -427 -98 -101 -255 -288 -279 -333 -9
-18 -8 -20 17 -20 23 0 40 16 101 95 99 126 263 298 381 397 129 108 244 184
382 253 127 64 241 136 339 214 97 77 282 263 376 377 126 153 294 410 279
426 -8 8 104 219 166 310 89 133 168 228 289 348 155 155 275 241 550 395 135
76 235 151 363 275 187 181 300 330 450 597 47 84 102 174 122 200 181 238
581 566 891 730 49 26 91 50 92 55 2 4 11 8 21 8 25 0 194 106 312 196 116 88
386 351 471 459 93 118 157 221 203 327 51 118 84 169 193 304 215 265 547
560 804 713 59 35 155 101 215 148 132 102 369 318 447 406 48 56 57 71 54 98
l-3 33 -83 -91z"/>
<path d="M7395 7063 c-38 -71 -81 -151 -97 -179 l-28 -51 23 -10 c23 -11 27
-5 119 165 94 173 103 202 63 202 -6 0 -43 -57 -80 -127z"/>
<path d="M17205 7063 c-38 -71 -81 -151 -97 -179 l-28 -51 23 -10 c23 -11 27
-5 119 165 86 157 94 178 80 190 -9 6 -19 12 -22 12 -4 0 -38 -57 -75 -127z"/>
<path d="M8307 6933 c-73 -133 -74 -138 -55 -151 10 -8 21 -12 22 -11 2 2 38
67 80 143 77 138 81 155 39 156 -6 0 -45 -62 -86 -137z"/>
<path d="M4907 6813 c-33 -263 -33 -255 -4 -251 21 3 23 13 49 203 34 258 34
265 5 265 -22 0 -23 -6 -50 -217z"/>
<path d="M14717 6813 c-33 -263 -33 -255 -4 -251 21 3 23 13 49 203 34 258 34
265 5 265 -22 0 -23 -6 -50 -217z"/>
<path d="M9437 6892 c-173 -52 -187 -57 -181 -76 4 -12 8 -22 9 -24 2 -2 91
23 199 54 178 52 197 60 194 78 -2 12 -10 21 -18 22 -8 1 -99 -23 -203 -54z"/>
<path d="M5872 6646 c-90 -35 -163 -66 -163 -69 1 -4 1 -14 1 -22 0 -8 5 -15
12 -15 7 0 80 25 162 56 83 31 161 60 173 65 25 9 21 50 -6 48 -9 -1 -89 -29
-179 -63z"/>
<path d="M15682 6646 c-90 -35 -163 -66 -163 -69 1 -4 1 -14 1 -22 0 -8 5 -15
12 -15 7 0 80 25 162 56 83 31 161 60 173 65 25 9 21 50 -6 48 -9 -1 -89 -29
-179 -63z"/>
<path d="M2319 6441 l-107 -219 25 -11 c20 -9 25 -8 32 12 5 12 52 110 106
217 89 179 95 195 79 207 -10 7 -20 13 -23 13 -3 0 -54 -99 -112 -219z"/>
<path d="M12129 6441 c-105 -215 -106 -219 -84 -229 21 -10 27 0 129 206 97
198 105 218 89 229 -9 7 -19 13 -22 13 -3 0 -54 -99 -112 -219z"/>
<path d="M3525 6470 c-77 -10 -184 -24 -237 -30 -93 -12 -98 -13 -98 -36 0
-13 6 -24 13 -24 6 0 122 14 257 30 135 17 246 30 246 30 1 0 -1 11 -4 25 -2
15 -11 25 -21 24 -9 -1 -79 -10 -156 -19z"/>
<path d="M13335 6470 c-77 -10 -184 -24 -237 -30 -93 -12 -98 -13 -98 -36 0
-13 6 -24 13 -24 6 0 122 14 257 30 135 17 246 30 246 30 1 0 -1 11 -4 25 -2
15 -11 25 -21 24 -9 -1 -79 -10 -156 -19z"/>
<path d="M17926 6300 c-274 -268 -411 -441 -481 -609 -67 -161 -168 -302 -360
-499 -227 -235 -385 -354 -654 -497 -249 -131 -457 -276 -685 -476 -179 -157
-356 -365 -356 -418 0 -12 -4 -21 -10 -21 -5 0 -26 -30 -46 -67 -114 -205
-256 -402 -390 -539 -153 -155 -272 -244 -476 -355 -201 -110 -347 -218 -504
-375 -210 -210 -337 -400 -474 -708 -56 -127 -259 -395 -425 -561 -177 -177
-325 -285 -530 -388 -61 -30 -151 -82 -200 -115 -211 -141 -489 -416 -637
-629 l-29 -43 29 0 c24 0 39 13 89 78 155 200 357 397 541 529 48 34 150 95
227 134 145 75 254 143 340 213 176 144 318 292 464 486 92 122 207 307 197
317 -9 9 100 215 169 318 153 228 359 439 574 585 32 21 116 71 187 111 305
170 483 325 685 595 110 148 219 333 219 373 0 21 4 31 12 29 7 -3 31 24 53
58 170 265 627 639 1021 837 208 105 373 226 578 426 211 207 343 376 413 529
100 223 181 331 445 596 179 180 199 203 196 230 -3 29 -9 24 -182 -144z"/>
<path d="M1120 6360 c-217 -67 -245 -78 -242 -96 2 -10 6 -21 8 -23 5 -6 476
139 488 150 6 5 6 16 0 27 -8 18 -23 15 -254 -58z"/>
<path d="M10930 6360 c-217 -67 -245 -78 -242 -96 2 -10 6 -21 8 -23 5 -6 476
139 488 150 6 5 6 16 0 27 -8 18 -23 15 -254 -58z"/>
<path d="M9655 6124 c-132 -81 -245 -152 -252 -158 -9 -8 -9 -15 1 -29 13 -16
33 -6 265 135 138 84 251 156 251 159 0 3 -6 13 -13 22 -11 16 -35 4 -252
-129z"/>
<path d="M6912 5958 c-7 -10 20 -53 95 -156 101 -138 106 -142 124 -126 19 17
18 18 -4 48 -13 17 -59 79 -102 139 -76 105 -93 119 -113 95z"/>
<path d="M16722 5958 c-7 -10 20 -53 95 -156 101 -138 106 -142 124 -126 19
17 18 18 -4 48 -13 17 -59 79 -102 139 -76 105 -93 119 -113 95z"/>
<path d="M8250 5933 c0 -10 12 -102 27 -205 26 -181 28 -188 50 -188 13 0 23
6 23 13 0 6 -12 99 -27 205 -27 185 -29 192 -50 192 -15 0 -23 -6 -23 -17z"/>
<path d="M5845 5790 c-4 -12 -5 -24 -2 -26 2 -3 78 -22 168 -44 164 -40 178
-40 179 -3 0 6 -63 26 -152 48 -84 20 -161 38 -170 41 -11 3 -19 -3 -23 -16z"/>
<path d="M15655 5790 c-4 -12 -5 -24 -2 -26 2 -3 78 -22 168 -44 164 -40 178
-40 179 -3 0 6 -63 26 -152 48 -84 20 -161 38 -170 41 -11 3 -19 -3 -23 -16z"/>
<path d="M1292 5682 c-10 -7 -8 -48 13 -213 37 -297 33 -279 61 -279 13 0 24
3 24 8 0 4 -14 113 -30 242 -16 129 -30 238 -30 243 0 9 -22 9 -38 -1z"/>
<path d="M11102 5682 c-10 -7 -8 -48 13 -213 37 -298 33 -279 62 -279 23 0 24
3 19 38 -6 36 -56 447 -56 457 0 8 -24 6 -38 -3z"/>
<path d="M3462 5508 c3 -23 5 -23 181 -26 l177 -2 0 25 0 25 -181 0 -180 0 3
-22z"/>
<path d="M13272 5508 c3 -23 5 -23 181 -26 l177 -2 0 25 0 25 -181 0 -180 0 3
-22z"/>
<path d="M2366 5185 c-121 -63 -221 -117 -223 -119 -3 -2 0 -14 7 -25 10 -21
14 -19 138 46 351 185 321 166 308 190 -11 22 -16 20 -230 -92z"/>
<path d="M12176 5185 c-121 -63 -221 -117 -223 -119 -3 -2 0 -14 6 -25 11 -20
16 -18 139 46 344 180 321 166 308 190 -11 22 -16 20 -230 -92z"/>
<path d="M8616 5009 c-66 -182 -77 -222 -65 -230 8 -5 19 -7 24 -6 14 5 167
428 161 444 -3 7 -13 13 -23 13 -14 0 -34 -46 -97 -221z"/>
<path d="M9825 5126 c-126 -57 -231 -108 -233 -114 -2 -6 0 -18 5 -26 7 -12
51 4 246 92 203 90 237 109 235 126 -2 11 -7 21 -13 22 -5 1 -113 -44 -240
-100z"/>
<path d="M18020 5039 c-77 -72 -220 -184 -300 -234 -25 -16 -112 -64 -195
-108 -283 -148 -553 -345 -782 -570 -154 -151 -217 -234 -319 -415 -239 -429
-486 -687 -844 -883 -229 -125 -373 -234 -546 -410 -194 -199 -361 -446 -430
-637 -25 -70 -154 -269 -260 -402 -101 -127 -305 -325 -429 -417 -65 -50 -165
-111 -250 -154 -239 -123 -387 -231 -585 -429 -101 -102 -208 -225 -295 -342
l-27 -38 29 0 c26 0 42 15 123 116 108 136 293 322 409 414 124 98 209 151
371 235 236 122 448 296 643 526 138 163 308 413 312 457 5 62 173 342 298
497 84 105 284 296 375 360 39 28 71 56 72 63 0 6 7 12 16 12 9 0 41 15 72 34
32 18 107 61 167 95 332 186 605 479 831 891 93 170 129 217 293 380 236 234
507 434 781 574 202 104 331 192 488 332 58 53 72 71 72 95 0 16 -3 29 -7 29
-5 -1 -42 -33 -83 -71z"/>
<path d="M7605 4895 c-5 -2 -76 -9 -157 -15 -146 -12 -148 -13 -148 -36 0 -29
0 -29 200 -9 80 8 155 15 168 15 17 0 22 6 22 25 0 22 -4 25 -37 24 -21 0 -42
-2 -48 -4z"/>
<path d="M17415 4895 c-5 -2 -76 -9 -157 -15 -146 -12 -148 -13 -148 -36 0
-29 0 -29 200 -9 80 8 155 15 168 15 17 0 22 6 22 25 0 22 -4 25 -37 24 -21 0
-42 -2 -48 -4z"/>
<path d="M4985 4734 c-104 -57 -194 -105 -199 -107 -10 -3 2 -47 13 -47 8 0
346 180 389 206 18 12 20 18 12 34 -6 11 -14 20 -18 19 -4 0 -92 -48 -197
-105z"/>
<path d="M14795 4734 c-104 -57 -194 -105 -199 -107 -10 -3 2 -47 13 -47 8 0
343 178 389 207 18 11 20 17 12 33 -6 11 -14 20 -18 19 -4 0 -92 -48 -197
-105z"/>
<path d="M6004 4776 c-3 -8 5 -84 18 -168 24 -152 24 -153 51 -156 24 -3 26
-1 21 25 -3 15 -15 91 -27 168 -18 114 -25 140 -40 143 -9 2 -20 -3 -23 -12z"/>
<path d="M15814 4776 c-3 -8 5 -84 18 -168 24 -152 24 -153 51 -156 24 -3 26
-1 21 25 -3 15 -15 91 -27 168 -18 114 -25 140 -40 143 -9 2 -20 -3 -23 -12z"/>
<path d="M3620 4733 c0 -33 53 -388 59 -395 4 -4 15 -5 26 -2 20 5 20 7 -10
210 -29 196 -31 204 -52 204 -15 0 -23 -6 -23 -17z"/>
<path d="M13430 4733 c0 -33 53 -388 59 -395 4 -4 15 -5 26 -2 20 5 20 7 -10
210 -29 196 -31 204 -52 204 -15 0 -23 -6 -23 -17z"/>
<path d="M18008 4283 c-131 -110 -287 -269 -356 -362 -33 -43 -83 -123 -112
-177 -194 -360 -427 -633 -695 -814 -40 -27 -120 -75 -177 -106 -294 -160
-524 -357 -716 -613 -119 -158 -172 -251 -272 -475 -29 -66 -131 -220 -219
-330 -39 -49 -71 -96 -71 -103 0 -7 -4 -12 -8 -10 -4 1 -57 -48 -117 -108
-183 -184 -331 -293 -535 -395 -185 -92 -336 -202 -516 -373 -93 -89 -249
-266 -316 -361 l-40 -56 29 0 c25 0 41 16 113 107 160 202 403 429 585 546 39
24 122 70 185 102 194 97 339 204 518 382 67 66 102 109 102 123 0 15 5 20 14
17 31 -12 365 457 342 480 -9 9 97 209 163 308 153 231 366 449 580 595 32 21
116 71 187 111 170 94 278 169 394 272 191 169 364 397 511 673 29 53 78 131
109 173 65 88 218 244 338 345 67 57 82 74 82 98 0 15 -2 28 -5 28 -2 0 -46
-35 -97 -77z"/>
<path d="M2143 4186 c-128 -33 -233 -65 -233 -71 1 -38 15 -37 196 10 305 79
292 75 287 96 -3 11 -8 21 -12 23 -3 2 -111 -24 -238 -58z"/>
<path d="M11953 4186 c-128 -33 -233 -65 -233 -71 1 -38 15 -37 196 10 305 79
292 75 287 96 -3 11 -8 21 -12 23 -3 2 -111 -24 -238 -58z"/>
<path d="M9410 4095 c0 -14 6 -25 13 -25 6 0 111 -7 232 -15 287 -19 265 -20
265 10 0 19 -5 25 -22 25 -13 0 -122 7 -243 15 -121 8 -226 15 -232 15 -7 0
-13 -11 -13 -25z"/>
<path d="M8384 3983 c3 -60 9 -161 12 -225 6 -117 7 -118 31 -118 l25 0 -6
118 c-19 363 -15 332 -43 332 l-25 0 6 -107z"/>
<path d="M720 4040 c0 -14 49 -349 55 -377 4 -17 13 -23 31 -23 23 0 25 3 20
28 -7 34 -56 359 -56 372 0 6 -11 10 -25 10 -14 0 -25 -5 -25 -10z"/>
<path d="M10530 4040 c0 -14 49 -349 55 -377 4 -17 13 -23 31 -23 23 0 25 3
20 28 -7 34 -56 359 -56 372 0 6 -11 10 -25 10 -14 0 -25 -5 -25 -10z"/>
<path d="M7293 3868 c-163 -70 -213 -95 -213 -109 0 -10 4 -20 9 -23 9 -6 406
158 425 175 6 5 6 16 0 28 -8 19 -21 15 -221 -71z"/>
<path d="M17103 3868 c-163 -70 -213 -95 -213 -109 0 -10 4 -20 9 -23 9 -6
406 158 425 175 6 5 6 16 0 28 -8 19 -21 15 -221 -71z"/>
<path d="M4886 3892 c-2 -4 8 -136 22 -292 26 -268 29 -285 47 -285 29 0 29
23 6 272 -31 319 -30 313 -51 313 -11 0 -21 -4 -24 -8z"/>
<path d="M14696 3892 c-2 -4 8 -136 22 -292 26 -268 29 -285 47 -285 29 0 29
23 6 272 -31 319 -30 313 -51 313 -11 0 -21 -4 -24 -8z"/>
<path d="M5936 3701 c-16 -17 -10 -23 119 -121 74 -57 137 -101 138 -99 1 2 8
11 15 20 10 14 -5 29 -111 109 -67 51 -127 97 -133 102 -7 5 -18 1 -28 -11z"/>
<path d="M15746 3702 c-15 -18 -10 -24 110 -116 70 -54 132 -100 138 -102 6
-2 16 4 23 15 11 17 0 28 -110 111 -67 51 -127 97 -133 102 -7 5 -18 1 -28
-10z"/>
<path d="M2332 3272 c-183 -385 -173 -361 -151 -373 12 -6 22 -9 25 -7 2 2 53
108 113 235 107 228 108 231 86 241 -21 10 -25 5 -73 -96z"/>
<path d="M12142 3272 c-183 -385 -173 -361 -151 -373 12 -6 22 -9 25 -7 2 2
53 108 113 235 107 228 108 231 86 241 -21 10 -25 5 -73 -96z"/>
<path d="M3520 3229 c-140 -21 -256 -39 -256 -39 -1 0 1 -11 4 -25 3 -19 9
-24 26 -20 11 2 136 21 276 41 140 20 256 37 257 38 1 1 0 12 -4 24 -7 28 7
28 -303 -19z"/>
<path d="M13330 3229 c-140 -21 -256 -39 -256 -39 -1 0 1 -11 4 -25 3 -19 9
-24 26 -20 11 2 136 21 276 41 140 20 256 37 257 38 1 1 0 12 -4 24 -7 28 7
28 -303 -19z"/>
<path d="M8656 3173 c-4 -9 -3 -19 1 -23 4 -4 83 -46 175 -94 163 -85 167 -86
178 -66 6 12 10 23 8 25 -12 10 -337 175 -345 175 -6 0 -14 -8 -17 -17z"/>
<path d="M18050 3034 c-82 -69 -211 -154 -339 -223 -137 -75 -203 -119 -329
-221 -164 -132 -329 -315 -452 -501 -66 -100 -160 -279 -160 -305 0 -21 -83
-160 -160 -268 -188 -263 -459 -525 -673 -649 -39 -24 -119 -66 -177 -95 -111
-56 -260 -156 -337 -229 -26 -23 -50 -43 -53 -43 -12 0 -266 -265 -326 -340
-75 -95 -114 -147 -114 -154 0 -3 13 -6 29 -6 20 0 34 8 47 27 40 63 146 186
261 304 68 69 123 131 123 138 0 6 6 11 13 9 6 -1 48 26 92 61 107 86 200 145
320 205 216 107 335 194 536 395 243 243 399 461 484 673 69 173 237 410 420
594 146 146 293 257 468 354 156 87 274 163 340 222 40 35 48 48 45 71 l-3 27
-55 -46z"/>
<path d="M1060 2941 c-107 -26 -208 -51 -223 -55 -22 -5 -28 -12 -25 -29 2
-17 9 -21 28 -19 30 5 443 101 446 105 8 7 -10 47 -20 46 -6 -1 -99 -22 -206
-48z"/>
<path d="M10870 2941 c-107 -26 -208 -51 -223 -55 -22 -5 -28 -12 -25 -29 2
-17 8 -21 28 -18 31 4 443 100 447 104 7 7 -11 47 -21 46 -6 -1 -99 -22 -206
-48z"/>
<path d="M7448 2888 c-115 -50 -208 -95 -208 -102 1 -39 18 -35 225 54 114 49
210 92 212 94 7 6 -7 46 -15 45 -4 0 -100 -41 -214 -91z"/>
<path d="M17258 2888 c-115 -50 -208 -95 -208 -102 1 -39 18 -35 225 54 114
49 210 92 212 94 7 6 -7 46 -15 45 -4 0 -100 -41 -214 -91z"/>
<path d="M6163 2639 c-221 -129 -241 -143 -232 -161 7 -13 16 -17 27 -13 9 3
122 67 249 142 209 121 232 137 222 154 -5 10 -13 19 -17 19 -4 0 -116 -64
-249 -141z"/>
<path d="M15973 2639 c-221 -129 -241 -143 -232 -161 7 -13 16 -17 27 -13 9 3
122 67 249 142 209 121 232 137 222 154 -5 10 -13 19 -17 19 -4 0 -116 -64
-249 -141z"/>
<path d="M4430 2435 c0 -23 3 -25 53 -26 28 0 140 -6 247 -13 107 -7 198 -11
203 -9 4 2 7 13 7 23 0 23 -16 25 -256 40 -254 15 -254 15 -254 -15z"/>
<path d="M14240 2435 c0 -22 4 -25 38 -25 44 0 347 -18 414 -24 41 -4 48 -2
53 15 4 11 4 23 1 26 -6 6 -365 32 -453 33 -50 0 -53 -1 -53 -25z"/>
<path d="M8910 2435 c-16 -19 -24 -12 130 -129 112 -86 126 -94 138 -79 6 9
12 19 12 22 0 7 -254 201 -262 201 -3 0 -11 -7 -18 -15z"/>
<path d="M7617 2047 c-37 -100 -67 -187 -67 -193 0 -7 9 -14 21 -17 14 -4 22
1 28 16 89 237 132 359 130 361 -2 2 -13 6 -24 10 -18 5 -27 -13 -88 -177z"/>
<path d="M17427 2047 c-37 -100 -67 -187 -67 -193 0 -7 9 -14 21 -17 14 -4 22
1 28 16 85 227 132 359 129 362 -1 1 -12 5 -23 9 -18 5 -27 -13 -88 -177z"/>
<path d="M1006 2191 c-16 -18 -12 -23 109 -115 69 -54 131 -99 138 -102 7 -2
17 4 24 14 11 19 -1 29 -231 204 -22 17 -24 17 -40 -1z"/>
<path d="M10816 2191 c-16 -18 -11 -23 108 -115 69 -53 131 -99 138 -101 7 -3
18 3 24 13 11 16 -3 30 -121 120 -127 97 -133 100 -149 83z"/>
<path d="M18034 2104 c-92 -141 -138 -225 -168 -308 -57 -157 -233 -394 -460
-621 -196 -195 -302 -275 -486 -367 -231 -116 -422 -258 -618 -462 -97 -101
-249 -283 -272 -326 -10 -18 -7 -20 18 -20 24 0 38 11 80 69 72 95 204 242
298 330 174 162 307 257 484 346 265 132 484 312 709 581 116 139 311 434 286
434 -10 0 98 206 152 289 46 71 54 89 51 123 l-3 40 -71 -108z"/>
<path d="M3413 2076 c-117 -50 -213 -94 -213 -97 0 -3 6 -13 13 -22 11 -16 30
-10 225 74 116 50 212 95 212 98 0 4 -6 14 -12 23 -12 13 -38 4 -225 -76z"/>
<path d="M13223 2076 c-117 -50 -213 -94 -213 -97 0 -3 6 -13 13 -22 11 -16
30 -10 225 74 116 50 212 95 212 98 0 4 -6 14 -12 23 -12 13 -38 4 -225 -76z"/>
<path d="M9395 1599 c-4 -11 -5 -22 -3 -23 1 -1 99 -49 216 -106 175 -86 215
-102 222 -90 6 8 9 20 9 25 0 9 -415 216 -431 215 -4 0 -10 -9 -13 -21z"/>
<path d="M6092 1572 c-9 -7 3 -50 54 -183 37 -96 70 -178 74 -182 3 -4 14 -5
24 -1 22 9 21 13 -55 213 -34 89 -67 161 -73 161 -6 0 -17 -4 -24 -8z"/>
<path d="M15902 1572 c-9 -6 4 -51 54 -183 36 -96 69 -178 73 -182 9 -9 41 2
41 14 0 25 -134 359 -144 359 -6 0 -17 -4 -24 -8z"/>
<path d="M1678 1448 c-15 -12 -9 -28 49 -161 60 -133 68 -147 87 -141 12 4 22
8 24 9 5 4 -131 305 -138 305 -3 0 -13 -6 -22 -12z"/>
<path d="M11488 1448 c-15 -12 -9 -28 49 -161 60 -133 68 -147 87 -141 12 4
22 7 24 9 4 3 -132 305 -138 305 -3 0 -13 -6 -22 -12z"/>
<path d="M3753 1427 c-21 -12 -20 -14 60 -164 45 -84 84 -152 87 -152 3 0 13
6 22 13 17 12 12 24 -63 162 -45 82 -82 150 -83 151 0 1 -11 -4 -23 -10z"/>
<path d="M13563 1427 c-21 -12 -20 -14 60 -164 45 -84 84 -152 87 -152 3 0 13
6 22 13 17 12 12 24 -63 162 -45 82 -82 150 -83 151 0 1 -11 -4 -23 -10z"/>
<path d="M4800 1255 c0 -2 -22 -75 -50 -161 -27 -86 -50 -163 -50 -170 0 -8
10 -14 23 -14 20 0 27 16 71 158 27 86 49 161 48 167 0 9 -42 29 -42 20z"/>
<path d="M14610 1255 c0 -2 -22 -75 -50 -161 -27 -86 -50 -163 -50 -170 0 -8
10 -14 23 -14 20 0 27 16 71 158 27 86 49 161 48 167 0 9 -42 29 -42 20z"/>
<path d="M8096 1095 c-103 -62 -192 -117 -197 -122 -5 -5 -4 -16 4 -27 12 -16
28 -9 212 100 110 65 201 119 203 120 6 4 -18 44 -26 43 -4 -1 -92 -52 -196
-114z"/>
<path d="M17906 1095 c-103 -62 -192 -117 -197 -122 -5 -5 -4 -16 4 -27 12
-16 28 -9 205 96 175 103 192 115 192 141 0 15 -3 27 -7 26 -5 -1 -93 -52
-197 -114z"/>
<path d="M17965 782 c-190 -98 -291 -171 -478 -344 -102 -94 -269 -282 -338
-380 l-40 -58 28 0 c25 0 41 16 113 107 160 202 403 429 585 546 39 24 116 68
173 96 88 44 102 55 102 76 0 14 -3 25 -7 25 -5 0 -66 -31 -138 -68z"/>
<path d="M6438 755 c-3 -14 -2 -25 1 -25 3 0 77 -7 165 -15 87 -9 160 -14 161
-13 1 2 6 13 9 26 6 17 3 22 -11 22 -10 0 -83 7 -163 15 -80 8 -148 15 -151
15 -4 0 -9 -11 -11 -25z"/>
<path d="M16248 756 c-5 -23 -2 -25 46 -30 122 -13 279 -27 281 -24 1 2 6 13
9 26 6 17 3 22 -11 22 -10 0 -83 7 -163 15 -80 8 -148 15 -151 15 -4 0 -9 -11
-11 -24z"/>
<path d="M1705 620 c-4 -12 -5 -24 -2 -26 2 -3 76 -36 163 -73 142 -62 160
-67 172 -53 6 9 12 19 12 22 0 5 -243 114 -331 148 -4 2 -10 -6 -14 -18z"/>
<path d="M11515 620 c-4 -12 -5 -24 -2 -26 2 -3 76 -36 163 -73 142 -62 160
-67 172 -53 6 9 12 19 12 22 0 5 -243 114 -331 148 -4 2 -10 -6 -14 -18z"/>
<path d="M8096 493 c6 -39 64 -443 64 -454 0 -5 11 -9 25 -9 14 0 25 4 25 9 0
13 -60 434 -65 459 -4 15 -13 22 -30 22 -21 0 -24 -4 -19 -27z"/>
<path d="M17905 498 c4 -21 65 -450 65 -462 0 -3 11 -6 25 -6 14 0 25 4 25 9
0 13 -60 434 -65 459 -4 16 -13 22 -30 22 -21 0 -25 -4 -20 -22z"/>
<path d="M537 477 c-16 -11 -12 -25 55 -165 64 -135 75 -151 93 -146 11 4 21
8 23 9 4 4 -145 315 -150 315 -2 0 -12 -6 -21 -13z"/>
<path d="M10347 477 c-16 -11 -12 -24 55 -165 64 -135 74 -151 92 -146 12 4
22 8 24 9 4 4 -145 315 -150 315 -2 0 -12 -6 -21 -13z"/>
<path d="M9351 422 c-118 -32 -216 -62 -218 -67 -1 -6 1 -16 6 -24 8 -12 42
-6 213 38 273 70 267 68 261 91 -3 13 -13 20 -27 19 -11 0 -117 -26 -235 -57z"/>
<path d="M3569 148 c-121 -157 -116 -148 -80 -148 26 0 40 14 120 118 50 64
91 120 91 124 0 4 -8 12 -19 17 -16 9 -31 -5 -112 -111z"/>
<path d="M13379 148 c-121 -157 -116 -148 -80 -148 26 0 40 14 120 118 50 64
91 120 91 124 0 4 -8 12 -19 17 -16 9 -31 -5 -112 -111z"/>
</g>
</svg>
