<?xml version="1.0" standalone="no"?>
<!DOCTYPE svg PUBLIC "-//W3C//DTD SVG 20010904//EN"
 "http://www.w3.org/TR/2001/REC-SVG-20010904/DTD/svg10.dtd">
<svg version="1.0" xmlns="http://www.w3.org/2000/svg"
 width="1125.000000pt" height="900.000000pt" viewBox="0 0 1125.000000 900.000000"
 preserveAspectRatio="xMidYMid meet">
<metadata>
Created by potrace 1.13, written by Peter Selinger 2001-2015
</metadata>
<g transform="translate(0.000000,900.000000) scale(0.100000,-0.100000)"
fill="#000000" stroke="none">
<path d="M0 4500 l0 -4500 5625 0 5625 0 0 4500 0 4500 -5625 0 -5625 0 0
-4500z m1478 4403 l3 -53 -720 0 -721 0 0 48 c0 27 3 52 7 55 3 4 326 6 717 5
l711 -3 3 -52z m2652 2 l0 -55 -1295 0 -1295 0 0 48 c0 27 3 52 7 55 3 4 586
7 1295 7 l1288 0 0 -55z m2520 0 l0 -55 -1225 0 -1225 0 0 55 0 55 1225 0
1225 0 0 -55z m3128 -2 l3 -53 -1535 0 -1536 0 0 48 c0 27 3 52 7 55 3 4 693
6 1532 5 l1526 -3 3 -52z m1430 0 l3 -53 -685 0 -686 0 0 48 c0 27 3 52 7 55
3 4 311 6 682 5 l676 -3 3 -52z m-11108 -434 l0 -310 -27 3 -28 3 -3 308 -2
307 30 0 30 0 0 -311z m3050 1 l0 -310 -1493 2 -1492 3 -3 308 -2 307 1495 0
1495 0 0 -310z m2700 0 l0 -310 -1320 0 -1320 0 0 310 0 310 1320 0 1320 0 0
-310z m2650 0 l0 -310 -1295 0 -1295 0 0 310 0 310 1295 0 1295 0 0 -310z
m2708 3 l-3 -308 -1317 -3 -1318 -2 0 310 0 310 1320 0 1320 0 -2 -307z m0
-930 l2 -553 -542 -2 -543 -3 -3 -32 -3 -33 545 0 546 0 0 -600 0 -600 -395 0
-395 0 0 -30 0 -30 393 -2 392 -3 3 -572 2 -573 -260 0 -260 0 0 -35 0 -35
260 0 260 0 -2 -282 -3 -283 -5580 0 -5580 0 -3 283 -2 282 405 0 405 0 0 35
0 35 -405 0 -405 0 2 573 3 572 267 3 268 2 0 30 0 30 -270 0 -270 0 0 600 0
600 120 0 120 0 0 35 0 35 -120 0 -120 0 0 548 c0 302 3 552 7 555 3 4 2515 6
5582 5 l5576 -3 3 -552z m-8508 -4038 l0 -305 -1327 2 -1328 3 -3 290 c-1 159
0 295 3 302 3 10 272 13 1330 13 l1325 0 0 -305z m2480 0 l0 -305 -1205 0
-1205 0 0 305 0 305 1205 0 1205 0 0 -305z m2590 0 l0 -305 -1265 0 -1265 0 0
305 0 305 1265 0 1265 0 0 -305z m3150 0 l0 -305 -1545 0 -1545 0 0 305 0 305
1545 0 1545 0 0 -305z m285 0 l0 -300 -112 -3 -113 -3 0 306 0 306 113 -3 112
-3 0 -300z m-10265 -710 l0 -345 -450 0 -450 0 0 338 c0 186 3 342 7 345 3 4
206 7 450 7 l443 0 0 -345z m3100 0 l0 -345 -1515 0 -1515 0 0 345 0 345 1515
0 1515 0 0 -345z m2470 0 l0 -345 -1200 0 -1200 0 0 345 0 345 1200 0 1200 0
0 -345z m2760 0 l0 -345 -1350 0 -1350 0 0 345 0 345 1350 0 1350 0 0 -345z
m1938 -2 l2 -343 -940 0 -940 0 0 345 0 345 938 -2 937 -3 3 -342z m-3 -613
l0 -205 -457 -3 -458 -2 0 -30 0 -30 458 -2 457 -3 3 -582 2 -583 -227 -2
-228 -3 -3 -32 -3 -33 230 0 231 0 0 -275 0 -275 -596 0 -595 0 3 -32 3 -33
590 -5 c325 -3 -1921 -6 -4990 -6 -3069 0 -5548 2 -5510 5 70 6 70 6 70 36 l0
30 -72 3 -73 3 0 274 0 275 438 2 437 3 0 30 0 30 -438 3 -437 2 2 583 3 582
202 3 203 2 0 30 0 30 -202 2 -203 3 -3 195 c-1 107 0 200 2 207 4 11 1058 13
5583 11 l5578 -3 0 -205z"/>
<path d="M90 7580 l0 -30 660 0 660 0 0 30 0 30 -660 0 -660 0 0 -30z"/>
<path d="M1940 7580 l0 -30 665 0 665 0 0 30 0 30 -665 0 -665 0 0 -30z"/>
<path d="M3800 7580 l0 -30 670 0 670 0 0 30 0 30 -670 0 -670 0 0 -30z"/>
<path d="M5680 7580 l0 -30 660 0 660 0 0 30 0 30 -660 0 -660 0 0 -30z"/>
<path d="M7530 7580 l0 -30 665 0 665 0 0 30 0 30 -665 0 -665 0 0 -30z"/>
<path d="M9390 7580 l0 -30 665 0 665 0 0 30 0 30 -665 0 -665 0 0 -30z"/>
<path d="M820 6955 l0 -35 660 0 660 0 0 35 0 35 -660 0 -660 0 0 -35z"/>
<path d="M2674 6976 c-3 -8 -4 -23 -2 -33 3 -17 36 -18 666 -21 l663 -2 -3 32
-3 33 -658 3 c-567 2 -658 0 -663 -12z"/>
<path d="M4537 6983 c-4 -3 -7 -19 -7 -35 l0 -28 673 2 672 3 0 30 0 30 -666
3 c-366 1 -669 -1 -672 -5z"/>
<path d="M6410 6955 l0 -35 660 0 660 0 0 35 0 35 -660 0 -660 0 0 -35z"/>
<path d="M8264 6976 c-3 -8 -4 -23 -2 -33 3 -17 36 -18 666 -21 l663 -2 -3 32
-3 33 -658 3 c-567 2 -658 0 -663 -12z"/>
<path d="M190 6295 l0 -35 660 0 660 0 0 35 0 35 -660 0 -660 0 0 -35z"/>
<path d="M2044 6316 c-3 -8 -4 -23 -2 -33 3 -17 36 -18 666 -21 l662 -2 0 35
0 35 -660 0 c-566 0 -661 -2 -666 -14z"/>
<path d="M3907 6323 c-4 -3 -7 -19 -7 -35 l0 -28 671 0 670 0 -3 33 -3 32
-661 3 c-363 1 -664 -1 -667 -5z"/>
<path d="M5780 6295 l0 -35 660 0 660 0 0 35 0 35 -660 0 -660 0 0 -35z"/>
<path d="M7634 6316 c-3 -8 -4 -23 -2 -33 3 -17 36 -18 666 -21 l662 -2 0 35
0 35 -660 0 c-566 0 -661 -2 -666 -14z"/>
<path d="M9497 6323 c-4 -3 -7 -19 -7 -35 l0 -28 663 2 662 3 0 30 0 30 -656
3 c-360 1 -659 -1 -662 -5z"/>
<path d="M1110 5690 l0 -30 665 0 665 0 0 30 0 30 -665 0 -665 0 0 -30z"/>
<path d="M2970 5690 l0 -30 665 0 665 0 0 30 0 30 -665 0 -665 0 0 -30z"/>
<path d="M4850 5690 l0 -30 660 0 660 0 0 30 0 30 -660 0 -660 0 0 -30z"/>
<path d="M6707 5713 c-4 -3 -7 -17 -7 -30 l0 -23 665 0 665 0 0 30 0 30 -658
0 c-362 0 -662 -3 -665 -7z"/>
<path d="M8560 5690 l0 -30 665 0 665 0 0 30 0 30 -665 0 -665 0 0 -30z"/>
<path d="M450 5070 l0 -30 665 0 665 0 0 30 0 30 -665 0 -665 0 0 -30z"/>
<path d="M2310 5070 l0 -30 666 0 665 0 -3 28 -3 27 -662 3 -663 2 0 -30z"/>
<path d="M4170 5070 l0 -30 665 0 665 0 0 30 0 30 -665 0 -665 0 0 -30z"/>
<path d="M6040 5070 l0 -30 665 0 665 0 0 30 0 30 -665 0 -665 0 0 -30z"/>
<path d="M7900 5070 l0 -30 665 0 665 0 0 30 0 30 -665 0 -665 0 0 -30z"/>
<path d="M9760 5070 l0 -30 660 0 660 0 0 30 0 30 -660 0 -660 0 0 -30z"/>
<path d="M1380 4475 l0 -35 663 2 662 3 0 30 0 30 -662 3 -663 2 0 -35z"/>
<path d="M3240 4475 l0 -35 660 0 660 0 0 35 0 35 -660 0 -660 0 0 -35z"/>
<path d="M5114 4496 c-3 -8 -4 -23 -2 -33 3 -17 36 -18 666 -21 l662 -2 0 35
0 35 -660 0 c-566 0 -661 -2 -666 -14z"/>
<path d="M6970 4475 l0 -35 663 2 662 3 0 30 0 30 -662 3 -663 2 0 -35z"/>
<path d="M8830 4475 l0 -35 660 0 660 0 0 35 0 35 -660 0 -660 0 0 -35z"/>
<path d="M980 1940 l0 -30 665 0 665 0 0 30 0 30 -665 0 -665 0 0 -30z"/>
<path d="M2840 1940 l0 -30 665 0 665 0 0 30 0 30 -665 0 -665 0 0 -30z"/>
<path d="M4700 1940 l0 -30 670 0 670 0 0 30 0 30 -670 0 -670 0 0 -30z"/>
<path d="M6570 1940 l0 -30 665 0 665 0 0 30 0 30 -665 0 -665 0 0 -30z"/>
<path d="M8430 1940 l0 -30 665 0 665 0 0 30 0 30 -665 0 -665 0 0 -30z"/>
<path d="M380 1360 l0 -30 665 0 665 0 0 30 0 30 -665 0 -665 0 0 -30z"/>
<path d="M2240 1360 l0 -30 665 0 665 0 0 30 0 30 -665 0 -665 0 0 -30z"/>
<path d="M4100 1360 l0 -30 670 0 670 0 0 30 0 30 -670 0 -670 0 0 -30z"/>
<path d="M5977 1383 c-4 -3 -7 -17 -7 -30 l0 -23 665 0 665 0 0 30 0 30 -658
0 c-362 0 -662 -3 -665 -7z"/>
<path d="M7830 1360 l0 -30 665 0 665 0 0 30 0 30 -665 0 -665 0 0 -30z"/>
<path d="M9690 1360 l0 -30 665 0 665 0 0 30 0 30 -665 0 -665 0 0 -30z"/>
<path d="M1450 705 l0 -35 660 0 660 0 0 35 0 35 -660 0 -660 0 0 -35z"/>
<path d="M3304 726 c-3 -8 -4 -23 -2 -33 3 -17 36 -18 666 -21 l662 -2 0 35 0
35 -660 0 c-566 0 -661 -2 -666 -14z"/>
<path d="M5180 705 l0 -35 663 2 662 3 0 30 0 30 -662 3 -663 2 0 -35z"/>
<path d="M7040 705 l0 -35 660 0 660 0 0 35 0 35 -660 0 -660 0 0 -35z"/>
<path d="M8894 726 c-3 -8 -4 -23 -2 -33 3 -17 36 -18 666 -21 l662 -2 0 35 0
35 -660 0 c-566 0 -661 -2 -666 -14z"/>
<path d="M720 85 l0 -35 658 2 657 3 3 33 3 32 -660 0 -661 0 0 -35z"/>
<path d="M2574 106 c-3 -8 -4 -23 -2 -33 3 -17 35 -18 663 -18 l660 0 3 33 3
32 -661 0 c-566 0 -661 -2 -666 -14z"/>
<path d="M4432 88 l3 -33 665 0 665 0 3 33 3 32 -671 0 -671 0 3 -32z"/>
<path d="M6310 85 l0 -35 660 0 660 0 0 35 0 35 -660 0 -660 0 0 -35z"/>
<path d="M8164 106 c-3 -8 -4 -23 -2 -33 3 -17 35 -18 663 -18 l660 0 3 33 3
32 -661 0 c-566 0 -661 -2 -666 -14z"/>
</g>
</svg>
