<?xml version="1.0" standalone="no"?>
<!DOCTYPE svg PUBLIC "-//W3C//DTD SVG 20010904//EN"
 "http://www.w3.org/TR/2001/REC-SVG-20010904/DTD/svg10.dtd">
<svg version="1.0" xmlns="http://www.w3.org/2000/svg"
 width="1125.000000pt" height="900.000000pt" viewBox="0 0 1125.000000 900.000000"
 preserveAspectRatio="xMidYMid meet">
<metadata>
Created by potrace 1.13, written by Peter Selinger 2001-2015
</metadata>
<g transform="translate(0.000000,900.000000) scale(0.100000,-0.100000)"
fill="#000000" stroke="none">
<path d="M0 4500 l0 -4500 5625 0 5625 0 0 4500 0 4500 -5625 0 -5625 0 0
-4500z m11205 3345 l0 -1110 -312 -3 -313 -2 0 -30 0 -30 313 -2 312 -3 0
-580 0 -580 -442 -3 -443 -2 0 -30 0 -30 443 -2 442 -3 0 -1810 0 -1810 -412
-3 -413 -2 0 -30 0 -30 413 -2 412 -3 0 -850 0 -850 -260 1 c-143 0 -278 1
-300 1 -22 1 -109 1 -192 0 -84 0 -171 0 -193 0 -22 0 -104 0 -182 0 -79 0
-161 0 -183 0 -22 0 -443 0 -935 0 -492 0 -913 0 -935 0 -22 1 -109 1 -192 0
-84 0 -171 0 -193 0 -22 0 -105 0 -185 0 -80 0 -163 0 -185 0 -22 0 -109 0
-192 0 -84 1 -171 1 -193 0 -35 -1 -2134 -1 -2235 0 -22 0 -104 0 -182 0 -79
0 -161 0 -183 0 -22 1 -109 1 -192 0 -84 0 -171 0 -193 0 -22 0 -104 0 -182 0
-79 0 -161 0 -183 0 -22 1 -110 1 -195 1 -85 0 -173 0 -195 -1 -42 0 -291 0
-360 0 -22 0 -445 0 -940 0 -495 0 -918 0 -940 0 -22 1 -109 1 -192 0 -84 0
-171 0 -193 0 -22 0 -105 0 -185 0 -80 0 -162 0 -182 1 -21 1 -54 0 -73 -1
l-35 -2 0 560 0 560 398 3 398 2 -3 28 -3 27 -395 5 -395 5 0 1175 0 1175 628
3 627 2 0 30 0 30 -627 2 -628 3 -3 608 -2 607 55 0 c54 0 55 0 55 29 0 29 -2
30 -52 33 l-53 3 -3 553 -2 552 265 0 265 0 0 35 0 35 -265 0 -265 0 0 870 0
870 666 0 665 0 -3 33 -3 32 -662 3 -663 2 0 285 0 285 80 0 80 0 0 30 0 29
-77 3 -78 3 -3 190 c-1 104 0 195 2 202 4 11 1055 13 5583 11 l5578 -3 0
-1110z"/>
<path d="M470 8560 c-42 -42 -12 -120 48 -120 46 0 72 25 72 70 0 29 -6 43
-22 54 -31 22 -74 20 -98 -4z"/>
<path d="M841 8554 c-12 -15 -21 -34 -21 -44 0 -34 39 -70 75 -70 36 0 75 36
75 70 0 34 -39 70 -75 70 -24 0 -39 -7 -54 -26z"/>
<path d="M1220 8560 c-43 -43 -11 -120 50 -120 38 0 70 32 70 70 0 38 -32 70
-70 70 -17 0 -39 -9 -50 -20z"/>
<path d="M1601 8554 c-12 -15 -21 -34 -21 -44 0 -34 39 -70 75 -70 36 0 75 36
75 70 0 34 -39 70 -75 70 -24 0 -39 -7 -54 -26z"/>
<path d="M1980 8560 c-43 -43 -11 -120 50 -120 38 0 70 32 70 70 0 38 -32 70
-70 70 -17 0 -39 -9 -50 -20z"/>
<path d="M2351 8554 c-12 -15 -21 -34 -21 -44 0 -10 9 -29 21 -44 41 -52 122
-23 122 44 0 67 -81 96 -122 44z"/>
<path d="M2725 8560 c-41 -45 -7 -120 54 -120 34 0 71 37 71 71 0 60 -85 93
-125 49z"/>
<path d="M3100 8558 c-27 -29 -25 -69 3 -96 46 -43 120 -15 120 46 0 66 -78
98 -123 50z"/>
<path d="M3475 8560 c-42 -46 -10 -120 51 -120 37 0 74 37 74 75 0 54 -88 86
-125 45z"/>
<path d="M3850 8560 c-43 -43 -11 -120 50 -120 38 0 70 32 70 70 0 38 -32 70
-70 70 -17 0 -39 -9 -50 -20z"/>
<path d="M6095 8560 c-42 -46 -10 -120 51 -120 35 0 74 37 74 70 0 10 -9 29
-21 44 -26 33 -77 36 -104 6z"/>
<path d="M6470 8560 c-11 -11 -20 -33 -20 -50 0 -17 9 -39 20 -50 11 -11 33
-20 50 -20 17 0 39 9 50 20 11 11 20 33 20 50 0 17 -9 39 -20 50 -11 11 -33
20 -50 20 -17 0 -39 -9 -50 -20z"/>
<path d="M6841 8554 c-12 -15 -21 -34 -21 -44 0 -34 39 -70 75 -70 36 0 75 36
75 70 0 34 -39 70 -75 70 -24 0 -39 -7 -54 -26z"/>
<path d="M7217 8562 c-25 -28 -22 -87 5 -106 51 -36 118 -5 118 54 0 17 -9 39
-20 50 -26 26 -81 26 -103 2z"/>
<path d="M7590 8560 c-11 -11 -20 -33 -20 -50 0 -17 9 -39 20 -50 45 -45 120
-11 120 54 0 60 -77 89 -120 46z"/>
<path d="M7961 8554 c-12 -15 -21 -34 -21 -44 0 -34 39 -70 75 -70 36 0 75 36
75 70 0 34 -39 70 -75 70 -24 0 -39 -7 -54 -26z"/>
<path d="M8340 8560 c-11 -11 -20 -33 -20 -50 0 -17 9 -39 20 -50 11 -11 33
-20 50 -20 17 0 39 9 50 20 11 11 20 33 20 50 0 17 -9 39 -20 50 -11 11 -33
20 -50 20 -17 0 -39 -9 -50 -20z"/>
<path d="M10210 8560 c-11 -11 -20 -33 -20 -50 0 -17 9 -39 20 -50 43 -43 120
-11 120 50 0 38 -32 70 -70 70 -17 0 -39 -9 -50 -20z"/>
<path d="M10581 8554 c-12 -15 -21 -34 -21 -44 0 -34 39 -70 75 -70 36 0 75
36 75 70 0 34 -39 70 -75 70 -24 0 -39 -7 -54 -26z"/>
<path d="M10960 8560 c-43 -43 -11 -120 50 -120 38 0 70 32 70 70 0 38 -32 70
-70 70 -17 0 -39 -9 -50 -20z"/>
<path d="M4200 8520 l0 -30 785 0 785 0 0 30 0 30 -785 0 -785 0 0 -30z"/>
<path d="M8760 8520 l0 -30 590 0 590 0 0 30 0 30 -590 0 -590 0 0 -30z"/>
<path d="M1726 7949 c-19 -15 -26 -30 -26 -54 0 -36 36 -75 70 -75 34 0 70 39
70 75 0 36 -36 75 -70 75 -10 0 -29 -9 -44 -21z"/>
<path d="M2095 7945 c-40 -39 -29 -97 22 -116 62 -23 119 40 89 99 -25 49 -72
56 -111 17z"/>
<path d="M3965 7945 c-14 -13 -25 -31 -25 -39 0 -30 23 -65 50 -76 58 -24 120
44 90 99 -24 46 -78 53 -115 16z"/>
<path d="M4346 7949 c-36 -28 -36 -80 0 -108 35 -27 59 -26 89 4 34 33 33 77
-1 104 -15 12 -34 21 -44 21 -10 0 -29 -9 -44 -21z"/>
<path d="M4715 7945 c-40 -39 -29 -97 22 -116 62 -23 119 40 89 99 -25 49 -72
56 -111 17z"/>
<path d="M5102 7963 c-7 -3 -19 -18 -27 -33 -40 -77 71 -147 120 -77 42 60
-24 138 -93 110z"/>
<path d="M7336 7949 c-46 -36 -26 -110 34 -124 38 -9 80 27 80 68 0 38 -7 50
-37 66 -31 16 -47 14 -77 -10z"/>
<path d="M7717 7959 c-48 -28 -40 -107 12 -129 75 -31 134 58 76 115 -25 26
-58 31 -88 14z"/>
<path d="M8086 7949 c-19 -15 -26 -30 -26 -54 0 -36 36 -75 70 -75 34 0 70 39
70 75 0 36 -36 75 -70 75 -10 0 -29 -9 -44 -21z"/>
<path d="M8455 7945 c-40 -39 -29 -97 22 -116 36 -13 78 5 93 40 31 75 -58
134 -115 76z"/>
<path d="M8836 7949 c-36 -29 -36 -80 1 -109 47 -37 113 -2 113 60 0 31 -39
70 -70 70 -10 0 -29 -9 -44 -21z"/>
<path d="M9205 7945 c-28 -27 -32 -61 -10 -92 49 -70 160 0 120 76 -24 48 -72
55 -110 16z"/>
<path d="M2520 7885 l0 -35 580 0 580 0 0 35 0 35 -580 0 -580 0 0 -35z"/>
<path d="M5520 7885 l0 -35 746 0 745 0 -3 33 -3 32 -742 3 -743 2 0 -35z"/>
<path d="M9630 7885 l0 -35 738 2 737 3 0 30 0 30 -737 3 -738 2 0 -35z"/>
<path d="M97 7362 c-25 -28 -22 -87 5 -106 71 -50 159 43 98 104 -26 26 -81
26 -103 2z"/>
<path d="M470 7360 c-42 -42 -12 -120 48 -120 46 0 72 25 72 70 0 29 -6 43
-22 54 -31 22 -74 20 -98 -4z"/>
<path d="M841 7354 c-12 -15 -21 -34 -21 -44 0 -34 39 -70 75 -70 36 0 75 36
75 70 0 34 -39 70 -75 70 -24 0 -39 -7 -54 -26z"/>
<path d="M1220 7360 c-43 -43 -11 -120 50 -120 38 0 70 32 70 70 0 38 -32 70
-70 70 -17 0 -39 -9 -50 -20z"/>
<path d="M1601 7354 c-12 -15 -21 -34 -21 -44 0 -34 39 -70 75 -70 36 0 75 36
75 70 0 34 -39 70 -75 70 -24 0 -39 -7 -54 -26z"/>
<path d="M1980 7360 c-43 -43 -11 -120 50 -120 38 0 70 32 70 70 0 38 -32 70
-70 70 -17 0 -39 -9 -50 -20z"/>
<path d="M2351 7354 c-12 -15 -21 -34 -21 -44 0 -10 9 -29 21 -44 41 -52 122
-23 122 44 0 67 -81 96 -122 44z"/>
<path d="M2725 7360 c-41 -45 -7 -120 54 -120 34 0 71 37 71 71 0 60 -85 93
-125 49z"/>
<path d="M3100 7358 c-27 -29 -25 -69 3 -96 46 -43 120 -15 120 46 0 66 -78
98 -123 50z"/>
<path d="M4972 7357 c-28 -30 -28 -68 1 -95 48 -45 120 -16 120 48 0 65 -76
95 -121 47z"/>
<path d="M5345 7360 c-42 -46 -8 -120 54 -120 34 0 71 37 71 71 0 60 -85 93
-125 49z"/>
<path d="M5720 7360 c-11 -11 -20 -33 -20 -50 0 -17 9 -39 20 -50 45 -45 120
-11 120 54 0 60 -77 89 -120 46z"/>
<path d="M6095 7360 c-42 -46 -10 -120 51 -120 35 0 74 37 74 70 0 10 -9 29
-21 44 -26 33 -77 36 -104 6z"/>
<path d="M6470 7360 c-11 -11 -20 -33 -20 -50 0 -17 9 -39 20 -50 11 -11 33
-20 50 -20 17 0 39 9 50 20 11 11 20 33 20 50 0 17 -9 39 -20 50 -11 11 -33
20 -50 20 -17 0 -39 -9 -50 -20z"/>
<path d="M6841 7354 c-12 -15 -21 -34 -21 -44 0 -34 39 -70 75 -70 36 0 75 36
75 70 0 34 -39 70 -75 70 -24 0 -39 -7 -54 -26z"/>
<path d="M8711 7354 c-12 -15 -21 -34 -21 -44 0 -10 9 -29 21 -44 41 -52 122
-23 122 44 0 67 -81 96 -122 44z"/>
<path d="M9092 7364 c-50 -34 -15 -124 48 -124 17 0 39 9 50 20 11 11 20 33
20 50 0 59 -67 90 -118 54z"/>
<path d="M9460 7358 c-27 -29 -25 -69 3 -96 46 -43 120 -15 120 46 0 66 -78
98 -123 50z"/>
<path d="M9835 7360 c-41 -45 -10 -120 50 -120 38 0 75 35 75 71 0 58 -87 91
-125 49z"/>
<path d="M10210 7360 c-11 -11 -20 -33 -20 -50 0 -17 9 -39 20 -50 43 -43 120
-11 120 50 0 38 -32 70 -70 70 -17 0 -39 -9 -50 -20z"/>
<path d="M10581 7354 c-12 -15 -21 -34 -21 -44 0 -34 39 -70 75 -70 36 0 75
36 75 70 0 34 -39 70 -75 70 -24 0 -39 -7 -54 -26z"/>
<path d="M10960 7360 c-43 -43 -11 -120 50 -120 38 0 70 32 70 70 0 38 -32 70
-70 70 -17 0 -39 -9 -50 -20z"/>
<path d="M3420 7270 l0 -30 655 0 655 0 0 30 0 30 -655 0 -655 0 0 -30z"/>
<path d="M7270 7270 l0 -30 560 0 560 0 0 30 0 30 -560 0 -560 0 0 -30z"/>
<path d="M215 6745 c-63 -63 18 -160 88 -105 35 28 37 80 5 110 -29 27 -64 25
-93 -5z"/>
<path d="M597 6759 c-48 -28 -40 -107 12 -129 75 -31 134 58 76 115 -25 26
-58 31 -88 14z"/>
<path d="M2472 6750 c-32 -30 -30 -82 5 -110 70 -55 151 42 88 105 -29 30 -64
32 -93 5z"/>
<path d="M2845 6745 c-28 -27 -32 -61 -10 -92 49 -70 160 0 120 76 -24 48 -72
55 -110 16z"/>
<path d="M3232 6763 c-25 -10 -42 -59 -31 -91 27 -77 139 -54 139 28 0 45 -63
81 -108 63z"/>
<path d="M3596 6749 c-46 -36 -26 -110 34 -124 39 -9 80 27 80 70 0 36 -36 75
-70 75 -10 0 -29 -9 -44 -21z"/>
<path d="M3965 6745 c-14 -13 -25 -31 -25 -39 0 -30 23 -65 50 -76 58 -24 120
44 90 99 -24 46 -78 53 -115 16z"/>
<path d="M5847 6759 c-48 -28 -40 -107 12 -129 75 -31 134 58 76 115 -25 26
-58 31 -88 14z"/>
<path d="M6216 6749 c-19 -15 -26 -30 -26 -54 0 -36 36 -75 70 -75 34 0 70 39
70 75 0 36 -36 75 -70 75 -10 0 -29 -9 -44 -21z"/>
<path d="M6585 6745 c-40 -39 -29 -97 22 -116 36 -13 78 5 93 40 31 75 -58
134 -115 76z"/>
<path d="M6975 6758 c-28 -16 -35 -28 -35 -65 0 -41 42 -77 80 -68 60 14 80
88 34 124 -30 24 -50 26 -79 9z"/>
<path d="M7336 6749 c-46 -36 -26 -110 34 -124 38 -9 80 27 80 68 0 38 -7 50
-37 66 -31 16 -47 14 -77 -10z"/>
<path d="M7717 6759 c-48 -28 -40 -107 12 -129 75 -31 134 58 76 115 -25 26
-58 31 -88 14z"/>
<path d="M9592 6763 c-7 -3 -19 -18 -27 -33 -40 -77 71 -147 120 -77 42 60
-24 138 -93 110z"/>
<path d="M9956 6749 c-46 -36 -26 -110 34 -124 39 -9 80 27 80 70 0 36 -36 75
-70 75 -10 0 -29 -9 -44 -21z"/>
<path d="M10325 6745 c-14 -13 -25 -31 -25 -39 0 -30 23 -65 50 -76 58 -24
120 44 90 99 -24 46 -78 53 -115 16z"/>
<path d="M840 6700 l0 -30 640 0 640 0 0 30 0 30 -640 0 -640 0 0 -30z"/>
<path d="M4390 6700 l0 -30 575 0 575 0 0 30 0 30 -575 0 -575 0 0 -30z"/>
<path d="M8130 6700 l0 -30 580 0 580 0 0 30 0 30 -580 0 -580 0 0 -30z"/>
<path d="M857 6149 c-48 -28 -40 -107 12 -129 75 -31 134 58 76 115 -25 26
-58 31 -88 14z"/>
<path d="M1226 6139 c-36 -28 -36 -80 0 -108 15 -12 34 -21 44 -21 34 0 70 39
70 75 0 36 -36 75 -70 75 -10 0 -29 -9 -44 -21z"/>
<path d="M1609 6141 c-16 -13 -23 -29 -23 -55 0 -47 23 -70 70 -70 68 0 97 72
49 119 -29 30 -64 32 -96 6z"/>
<path d="M1986 6139 c-19 -15 -26 -30 -26 -54 0 -36 36 -75 70 -75 34 0 70 39
70 75 0 36 -36 75 -70 75 -10 0 -29 -9 -44 -21z"/>
<path d="M2355 6135 c-58 -57 1 -146 76 -115 77 32 47 139 -39 140 -7 0 -24
-11 -37 -25z"/>
<path d="M4223 6134 c-20 -20 -24 -31 -19 -57 9 -43 29 -61 71 -61 42 0 62 18
71 61 5 26 1 37 -19 57 -15 15 -38 26 -52 26 -14 0 -37 -11 -52 -26z"/>
<path d="M4606 6139 c-36 -28 -36 -80 0 -108 15 -12 34 -21 44 -21 34 0 70 39
70 75 0 36 -36 75 -70 75 -10 0 -29 -9 -44 -21z"/>
<path d="M4975 6135 c-14 -13 -25 -36 -25 -50 0 -28 40 -75 64 -75 29 0 64 22
75 48 16 33 -1 75 -35 91 -37 16 -52 14 -79 -14z"/>
<path d="M5363 6148 c-28 -14 -43 -55 -31 -89 9 -26 44 -49 74 -49 24 0 64 47
64 75 0 30 -41 75 -67 74 -10 0 -28 -5 -40 -11z"/>
<path d="M7595 6135 c-14 -13 -25 -36 -25 -50 0 -30 41 -75 68 -75 35 0 72 38
72 75 0 24 -7 39 -26 54 -35 27 -59 26 -89 -4z"/>
<path d="M7969 6141 c-28 -23 -32 -83 -6 -108 25 -26 85 -22 108 6 26 32 24
67 -6 96 -29 30 -64 32 -96 6z"/>
<path d="M8346 6139 c-19 -15 -26 -30 -26 -54 0 -36 36 -75 70 -75 34 0 70 39
70 75 0 36 -36 75 -70 75 -10 0 -29 -9 -44 -21z"/>
<path d="M8715 6135 c-58 -57 1 -146 76 -115 77 32 47 139 -39 140 -7 0 -24
-11 -37 -25z"/>
<path d="M10583 6134 c-20 -20 -24 -31 -19 -57 9 -43 29 -61 71 -61 42 0 62
18 71 61 5 26 1 37 -19 57 -15 15 -38 26 -52 26 -14 0 -37 -11 -52 -26z"/>
<path d="M10966 6139 c-19 -15 -26 -30 -26 -54 0 -36 36 -75 70 -75 34 0 70
39 70 75 0 36 -36 75 -70 75 -10 0 -29 -9 -44 -21z"/>
<path d="M5770 6075 l0 -35 785 0 785 0 0 35 0 35 -785 0 -785 0 0 -35z"/>
<path d="M9140 6075 l0 -35 585 0 585 0 0 35 0 35 -585 0 -585 0 0 -35z"/>
<path d="M2780 6050 l0 -30 575 0 575 0 0 30 0 30 -575 0 -575 0 0 -30z"/>
<path d="M210 5520 c-61 -61 27 -154 98 -104 28 20 31 83 4 107 -25 23 -78 21
-102 -3z"/>
<path d="M2091 5514 c-12 -15 -21 -34 -21 -44 0 -31 39 -70 70 -70 62 0 97 66
60 113 -29 37 -80 37 -109 1z"/>
<path d="M2467 5522 c-25 -28 -22 -87 5 -106 71 -50 159 43 98 104 -26 26 -81
26 -103 2z"/>
<path d="M2840 5520 c-63 -63 31 -158 101 -102 28 23 30 73 4 102 -24 26 -79
26 -105 0z"/>
<path d="M3215 5520 c-42 -47 -8 -120 55 -120 33 0 70 40 70 74 0 57 -86 89
-125 46z"/>
<path d="M3590 5520 c-43 -43 -11 -120 50 -120 17 0 39 9 50 20 26 26 26 81 2
103 -25 23 -78 21 -102 -3z"/>
<path d="M3961 5514 c-12 -15 -21 -34 -21 -44 0 -34 39 -70 75 -70 36 0 75 36
75 70 0 34 -39 70 -75 70 -24 0 -39 -7 -54 -26z"/>
<path d="M4337 5522 c-23 -25 -21 -78 3 -102 43 -43 120 -11 120 50 0 17 -9
39 -20 50 -26 26 -81 26 -103 2z"/>
<path d="M6210 5520 c-11 -11 -20 -33 -20 -50 0 -17 9 -39 20 -50 42 -42 120
-12 120 48 0 66 -74 98 -120 52z"/>
<path d="M6581 5514 c-12 -15 -21 -34 -21 -44 0 -34 39 -70 75 -70 36 0 75 36
75 70 0 34 -39 70 -75 70 -24 0 -39 -7 -54 -26z"/>
<path d="M6957 5522 c-40 -44 -6 -122 53 -122 60 0 92 78 50 120 -26 26 -81
26 -103 2z"/>
<path d="M8827 5522 c-40 -45 -6 -122 53 -122 17 0 39 9 50 20 45 45 11 120
-53 120 -20 0 -41 -8 -50 -18z"/>
<path d="M9200 5518 c-26 -28 -26 -58 1 -92 39 -50 122 -22 122 42 0 66 -78
98 -123 50z"/>
<path d="M9575 5520 c-42 -47 -8 -120 55 -120 33 0 70 40 70 74 0 57 -86 89
-125 46z"/>
<path d="M9950 5520 c-11 -11 -20 -33 -20 -50 0 -17 9 -39 20 -50 45 -45 120
-11 120 53 0 20 -8 41 -18 50 -25 23 -78 21 -102 -3z"/>
<path d="M580 5470 l0 -30 585 0 585 0 0 30 0 30 -585 0 -585 0 0 -30z"/>
<path d="M4737 5493 c-4 -3 -7 -17 -7 -30 l0 -23 581 0 580 0 -3 28 -3 27
-571 3 c-314 1 -574 -1 -577 -5z"/>
<path d="M7380 5470 l0 -30 586 0 585 0 -3 28 -3 27 -582 3 -583 2 0 -30z"/>
<path d="M475 4935 c-14 -13 -25 -36 -25 -50 0 -30 41 -75 68 -75 35 0 72 38
72 75 0 24 -7 39 -26 54 -35 27 -59 26 -89 -4z"/>
<path d="M857 4949 c-48 -28 -40 -107 12 -129 75 -31 134 58 76 115 -25 26
-58 31 -88 14z"/>
<path d="M1226 4939 c-36 -28 -36 -80 0 -108 15 -12 34 -21 44 -21 34 0 70 39
70 75 0 36 -36 75 -70 75 -10 0 -29 -9 -44 -21z"/>
<path d="M1609 4941 c-28 -23 -32 -83 -6 -108 25 -26 85 -22 108 6 26 32 24
67 -6 96 -29 30 -64 32 -96 6z"/>
<path d="M1986 4939 c-19 -15 -26 -30 -26 -54 0 -36 36 -75 70 -75 34 0 70 39
70 75 0 36 -36 75 -70 75 -10 0 -29 -9 -44 -21z"/>
<path d="M2355 4935 c-58 -57 1 -146 76 -115 77 32 47 139 -39 140 -7 0 -24
-11 -37 -25z"/>
<path d="M2743 4948 c-28 -14 -43 -55 -31 -89 9 -26 44 -49 74 -49 24 0 64 47
64 75 0 30 -41 75 -67 74 -10 0 -28 -5 -40 -11z"/>
<path d="M4975 4935 c-14 -13 -25 -36 -25 -50 0 -28 40 -75 64 -75 29 0 64 22
75 48 16 33 -1 75 -35 91 -37 16 -52 14 -79 -14z"/>
<path d="M5363 4948 c-28 -14 -43 -55 -31 -89 9 -26 44 -49 74 -49 24 0 64 47
64 75 0 30 -41 75 -67 74 -10 0 -28 -5 -40 -11z"/>
<path d="M5726 4939 c-34 -27 -35 -71 -1 -104 30 -30 54 -31 89 -4 19 15 26
30 26 54 0 36 -36 75 -70 75 -10 0 -29 -9 -44 -21z"/>
<path d="M6117 4953 c-9 -2 -24 -18 -33 -35 -30 -59 27 -122 89 -99 51 19 62
77 22 116 -23 24 -40 28 -78 18z"/>
<path d="M6476 4939 c-19 -15 -26 -30 -26 -54 0 -36 36 -75 70 -75 34 0 70 39
70 75 0 36 -36 75 -70 75 -10 0 -29 -9 -44 -21z"/>
<path d="M6845 4935 c-14 -13 -25 -34 -25 -45 0 -77 101 -106 136 -39 39 77
-51 145 -111 84z"/>
<path d="M7226 4939 c-19 -15 -26 -30 -26 -54 0 -37 37 -75 72 -75 27 0 68 45
68 75 0 30 -41 75 -68 75 -11 0 -31 -9 -46 -21z"/>
<path d="M7595 4935 c-14 -13 -25 -36 -25 -50 0 -30 41 -75 68 -75 35 0 72 38
72 75 0 24 -7 39 -26 54 -35 27 -59 26 -89 -4z"/>
<path d="M7969 4941 c-28 -23 -32 -83 -6 -108 25 -26 85 -22 108 6 26 32 24
67 -6 96 -29 30 -64 32 -96 6z"/>
<path d="M10216 4939 c-19 -15 -26 -30 -26 -54 0 -36 36 -75 70 -75 34 0 70
39 70 75 0 36 -36 75 -70 75 -10 0 -29 -9 -44 -21z"/>
<path d="M10583 4934 c-20 -20 -24 -31 -19 -57 9 -43 29 -61 71 -61 42 0 62
18 71 61 5 26 1 37 -19 57 -15 15 -38 26 -52 26 -14 0 -37 -11 -52 -26z"/>
<path d="M10966 4939 c-19 -15 -26 -30 -26 -54 0 -36 36 -75 70 -75 34 0 70
39 70 75 0 36 -36 75 -70 75 -10 0 -29 -9 -44 -21z"/>
<path d="M3150 4900 l0 -30 710 0 710 0 0 30 0 30 -710 0 -710 0 0 -30z"/>
<path d="M8460 4900 l0 -30 715 0 715 0 0 30 0 30 -715 0 -715 0 0 -30z"/>
<path d="M210 4320 c-61 -61 27 -154 98 -104 28 20 31 83 4 107 -25 23 -78 21
-102 -3z"/>
<path d="M581 4314 c-27 -35 -26 -59 4 -89 33 -34 77 -33 104 1 12 15 21 34
21 44 0 34 -39 70 -75 70 -24 0 -39 -7 -54 -26z"/>
<path d="M960 4320 c-11 -11 -20 -33 -20 -50 0 -17 9 -39 20 -50 43 -43 120
-11 120 50 0 38 -32 70 -70 70 -17 0 -39 -9 -50 -20z"/>
<path d="M1331 4314 c-12 -15 -21 -34 -21 -44 0 -31 39 -70 70 -70 62 0 97 66
60 113 -29 37 -80 37 -109 1z"/>
<path d="M1720 4320 c-11 -11 -20 -33 -20 -50 0 -17 9 -39 20 -50 11 -11 33
-20 50 -20 17 0 39 9 50 20 11 11 20 33 20 50 0 17 -9 39 -20 50 -11 11 -33
20 -50 20 -17 0 -39 -9 -50 -20z"/>
<path d="M2091 4314 c-12 -15 -21 -34 -21 -44 0 -31 39 -70 70 -70 62 0 97 66
60 113 -29 37 -80 37 -109 1z"/>
<path d="M2467 4322 c-25 -28 -22 -87 5 -106 71 -50 159 43 98 104 -26 26 -81
26 -103 2z"/>
<path d="M2840 4320 c-63 -63 31 -158 101 -102 28 23 30 73 4 102 -24 26 -79
26 -105 0z"/>
<path d="M3215 4320 c-42 -47 -8 -120 55 -120 33 0 70 40 70 74 0 57 -86 89
-125 46z"/>
<path d="M3590 4320 c-11 -11 -20 -33 -20 -50 0 -17 9 -39 20 -50 45 -45 120
-11 120 53 0 20 -8 41 -18 50 -25 23 -78 21 -102 -3z"/>
<path d="M5460 4320 c-43 -43 -11 -120 50 -120 17 0 39 9 50 20 26 26 26 81 2
103 -25 23 -78 21 -102 -3z"/>
<path d="M5835 4320 c-42 -47 -8 -120 55 -120 33 0 70 40 70 75 0 54 -88 86
-125 45z"/>
<path d="M6210 4320 c-43 -43 -11 -120 50 -120 59 0 90 67 54 118 -20 29 -76
30 -104 2z"/>
<path d="M6581 4314 c-12 -15 -21 -34 -21 -44 0 -34 39 -70 75 -70 36 0 75 36
75 70 0 34 -39 70 -75 70 -24 0 -39 -7 -54 -26z"/>
<path d="M6957 4322 c-40 -44 -6 -122 53 -122 60 0 92 78 50 120 -26 26 -81
26 -103 2z"/>
<path d="M8827 4322 c-23 -25 -21 -78 3 -102 43 -43 120 -11 120 50 0 17 -9
39 -20 50 -26 26 -81 26 -103 2z"/>
<path d="M9200 4318 c-26 -28 -26 -58 1 -92 39 -50 122 -22 122 42 0 66 -78
98 -123 50z"/>
<path d="M9575 4320 c-42 -47 -8 -120 55 -120 33 0 70 40 70 74 0 57 -86 89
-125 46z"/>
<path d="M9950 4320 c-43 -43 -11 -120 50 -120 17 0 39 9 50 20 26 26 26 81 2
103 -25 23 -78 21 -102 -3z"/>
<path d="M10321 4314 c-12 -15 -21 -34 -21 -44 0 -34 39 -70 75 -70 36 0 75
36 75 70 0 34 -39 70 -75 70 -24 0 -39 -7 -54 -26z"/>
<path d="M10697 4322 c-23 -25 -21 -78 3 -102 43 -43 120 -11 120 50 0 17 -9
39 -20 50 -26 26 -81 26 -103 2z"/>
<path d="M11070 4318 c-26 -28 -26 -58 1 -92 39 -50 122 -22 122 42 0 66 -78
98 -123 50z"/>
<path d="M4020 4270 l0 -30 560 0 560 0 0 30 0 30 -560 0 -560 0 0 -30z"/>
<path d="M7380 4270 l0 -30 560 0 560 0 0 30 0 30 -560 0 -560 0 0 -30z"/>
<path d="M1601 3664 c-12 -15 -21 -34 -21 -44 0 -34 39 -70 75 -70 36 0 75 36
75 70 0 34 -39 70 -75 70 -24 0 -39 -7 -54 -26z"/>
<path d="M3850 3670 c-11 -11 -20 -33 -20 -50 0 -17 9 -39 20 -50 11 -11 33
-20 50 -20 17 0 39 9 50 20 11 11 20 33 20 50 0 17 -9 39 -20 50 -11 11 -33
20 -50 20 -17 0 -39 -9 -50 -20z"/>
<path d="M4221 3664 c-12 -15 -21 -34 -21 -44 0 -34 39 -70 75 -70 36 0 75 36
75 70 0 34 -39 70 -75 70 -24 0 -39 -7 -54 -26z"/>
<path d="M4600 3670 c-11 -11 -20 -33 -20 -50 0 -17 9 -39 20 -50 11 -11 33
-20 50 -20 17 0 39 9 50 20 11 11 20 33 20 50 0 17 -9 39 -20 50 -11 11 -33
20 -50 20 -17 0 -39 -9 -50 -20z"/>
<path d="M4972 3667 c-44 -47 -13 -117 52 -117 41 0 69 29 69 70 0 65 -76 95
-121 47z"/>
<path d="M7222 3674 c-16 -11 -22 -25 -22 -54 0 -29 6 -43 22 -54 51 -36 118
-5 118 54 0 59 -67 90 -118 54z"/>
<path d="M7590 3670 c-42 -42 -12 -120 48 -120 46 0 72 25 72 70 0 29 -6 43
-22 54 -31 22 -74 20 -98 -4z"/>
<path d="M7961 3664 c-12 -15 -21 -34 -21 -44 0 -34 39 -70 75 -70 36 0 75 36
75 70 0 34 -39 70 -75 70 -24 0 -39 -7 -54 -26z"/>
<path d="M8340 3670 c-43 -43 -11 -120 50 -120 38 0 70 32 70 70 0 38 -32 70
-70 70 -17 0 -39 -9 -50 -20z"/>
<path d="M8711 3664 c-12 -15 -21 -34 -21 -44 0 -10 9 -29 21 -44 41 -52 122
-23 122 44 0 67 -81 96 -122 44z"/>
<path d="M9090 3670 c-28 -28 -27 -84 2 -104 51 -36 118 -5 118 54 0 38 -32
70 -70 70 -17 0 -39 -9 -50 -20z"/>
<path d="M2030 3620 l0 -30 715 0 715 0 0 30 0 30 -715 0 -715 0 0 -30z"/>
<path d="M5300 3620 l0 -30 815 0 815 0 0 30 0 30 -815 0 -815 0 0 -30z"/>
<path d="M9417 3643 c-4 -3 -7 -17 -7 -30 l0 -23 815 0 815 0 0 30 0 30 -808
0 c-445 0 -812 -3 -815 -7z"/>
<path d="M215 3055 c-14 -13 -25 -36 -25 -50 0 -30 41 -75 68 -75 35 0 72 38
72 75 0 24 -7 39 -26 54 -35 27 -59 26 -89 -4z"/>
<path d="M593 3065 c-68 -48 -8 -155 71 -125 50 18 60 76 21 115 -27 28 -61
32 -92 10z"/>
<path d="M966 3059 c-36 -28 -36 -80 0 -108 15 -12 34 -21 44 -21 34 0 70 39
70 75 0 36 -36 75 -70 75 -10 0 -29 -9 -44 -21z"/>
<path d="M1335 3055 c-40 -39 -29 -97 22 -116 62 -23 119 40 89 99 -25 49 -72
56 -111 17z"/>
<path d="M1726 3059 c-19 -15 -26 -30 -26 -54 0 -36 36 -75 70 -75 34 0 70 39
70 75 0 36 -36 75 -70 75 -10 0 -29 -9 -44 -21z"/>
<path d="M2095 3055 c-58 -57 1 -146 76 -115 77 32 47 139 -39 140 -7 0 -24
-11 -37 -25z"/>
<path d="M2485 3068 c-28 -16 -35 -28 -35 -65 0 -35 37 -73 72 -73 27 0 68 45
68 75 0 30 -41 75 -67 75 -10 0 -27 -6 -38 -12z"/>
<path d="M2845 3055 c-14 -13 -25 -36 -25 -50 0 -28 40 -75 64 -75 80 0 110
107 39 139 -36 16 -51 14 -78 -14z"/>
<path d="M3234 3068 c-69 -33 -37 -138 42 -138 24 0 64 47 64 75 0 30 -41 75
-67 74 -10 0 -28 -5 -39 -11z"/>
<path d="M5466 3059 c-34 -27 -35 -71 -1 -104 30 -30 54 -31 89 -4 19 15 26
30 26 54 0 36 -36 75 -70 75 -10 0 -29 -9 -44 -21z"/>
<path d="M5857 3073 c-9 -2 -24 -18 -33 -35 -30 -59 27 -122 89 -99 51 19 62
77 22 116 -23 24 -40 28 -78 18z"/>
<path d="M6216 3059 c-19 -15 -26 -30 -26 -54 0 -36 36 -75 70 -75 34 0 70 39
70 75 0 36 -36 75 -70 75 -10 0 -29 -9 -44 -21z"/>
<path d="M8455 3055 c-58 -57 1 -146 76 -115 77 32 47 139 -39 140 -7 0 -24
-11 -37 -25z"/>
<path d="M8836 3059 c-19 -15 -26 -30 -26 -54 0 -37 37 -75 72 -75 29 0 68 45
68 79 0 32 -38 71 -70 71 -10 0 -29 -9 -44 -21z"/>
<path d="M9205 3055 c-14 -13 -25 -36 -25 -50 0 -28 40 -75 64 -75 29 0 64 22
75 48 16 33 -1 75 -35 91 -37 16 -52 14 -79 -14z"/>
<path d="M9594 3068 c-68 -32 -36 -138 42 -138 24 0 64 47 64 75 0 30 -41 75
-67 74 -10 0 -28 -5 -39 -11z"/>
<path d="M9956 3059 c-19 -15 -26 -30 -26 -54 0 -36 36 -75 70 -75 34 0 70 39
70 75 0 36 -36 75 -70 75 -10 0 -29 -9 -44 -21z"/>
<path d="M10323 3054 c-20 -20 -24 -31 -19 -57 9 -43 29 -61 71 -61 42 0 62
18 71 61 5 26 1 37 -19 57 -15 15 -38 26 -52 26 -14 0 -37 -11 -52 -26z"/>
<path d="M10706 3059 c-19 -15 -26 -30 -26 -54 0 -36 36 -75 70 -75 34 0 70
39 70 75 0 36 -36 75 -70 75 -10 0 -29 -9 -44 -21z"/>
<path d="M11075 3055 c-14 -13 -25 -36 -25 -50 0 -28 40 -75 64 -75 29 0 64
22 75 48 16 33 -1 75 -35 91 -37 16 -52 14 -79 -14z"/>
<path d="M3640 3000 l0 -30 720 0 720 0 0 30 0 30 -720 0 -720 0 0 -30z"/>
<path d="M6630 3000 l0 -30 750 0 750 0 0 30 0 30 -750 0 -750 0 0 -30z"/>
<path d="M113 2458 c-12 -6 -26 -22 -31 -37 -27 -76 77 -134 123 -68 22 31 18
65 -10 92 -26 27 -47 30 -82 13z"/>
<path d="M476 2449 c-34 -27 -35 -71 -1 -104 30 -30 54 -31 89 -4 18 14 26 30
26 52 0 38 -7 50 -37 66 -31 16 -47 14 -77 -10z"/>
<path d="M857 2459 c-48 -28 -40 -107 12 -129 75 -31 134 58 76 115 -25 26
-58 31 -88 14z"/>
<path d="M1226 2449 c-36 -28 -36 -80 0 -108 15 -12 34 -21 44 -21 34 0 70 39
70 75 0 36 -36 75 -70 75 -10 0 -29 -9 -44 -21z"/>
<path d="M1617 2459 c-48 -28 -40 -107 12 -129 75 -31 134 58 76 115 -25 26
-58 31 -88 14z"/>
<path d="M3492 2463 c-7 -3 -19 -18 -28 -35 -13 -24 -13 -35 -4 -58 31 -74
140 -51 140 30 0 45 -63 81 -108 63z"/>
<path d="M3856 2449 c-36 -28 -36 -80 0 -108 15 -12 34 -21 44 -21 34 0 70 39
70 75 0 36 -36 75 -70 75 -10 0 -29 -9 -44 -21z"/>
<path d="M4225 2445 c-27 -26 -30 -41 -15 -80 28 -73 140 -40 140 41 0 24 -47
64 -75 64 -14 0 -37 -11 -50 -25z"/>
<path d="M4606 2449 c-36 -28 -36 -80 0 -108 35 -27 59 -26 89 4 34 33 33 77
-1 104 -15 12 -34 21 -44 21 -10 0 -29 -9 -44 -21z"/>
<path d="M4975 2445 c-40 -39 -29 -97 22 -116 62 -23 119 42 88 101 -24 47
-72 54 -110 15z"/>
<path d="M5357 2458 c-43 -34 -37 -107 12 -128 75 -31 134 58 76 115 -26 27
-62 32 -88 13z"/>
<path d="M5726 2449 c-34 -27 -35 -71 -1 -104 30 -30 54 -31 89 -4 19 15 26
30 26 54 0 36 -36 75 -70 75 -10 0 -29 -9 -44 -21z"/>
<path d="M6112 2463 c-7 -3 -19 -18 -28 -35 -13 -24 -13 -35 -4 -58 31 -74
140 -51 140 30 0 45 -63 81 -108 63z"/>
<path d="M6476 2449 c-19 -15 -26 -30 -26 -54 0 -36 36 -75 70 -75 34 0 70 39
70 75 0 36 -36 75 -70 75 -10 0 -29 -9 -44 -21z"/>
<path d="M6845 2445 c-40 -39 -29 -97 22 -116 36 -13 78 5 93 40 31 75 -58
134 -115 76z"/>
<path d="M7235 2458 c-28 -16 -35 -28 -35 -65 0 -22 8 -38 26 -52 35 -27 59
-26 89 4 34 33 33 77 -1 104 -30 24 -50 26 -79 9z"/>
<path d="M7596 2449 c-34 -27 -35 -71 -1 -104 30 -30 54 -31 89 -4 19 15 26
30 26 54 0 36 -36 75 -70 75 -10 0 -29 -9 -44 -21z"/>
<path d="M7977 2459 c-48 -28 -40 -107 12 -129 75 -31 134 58 76 115 -25 26
-58 31 -88 14z"/>
<path d="M9852 2463 c-7 -3 -19 -18 -28 -35 -13 -24 -13 -35 -4 -58 31 -74
140 -51 140 30 0 45 -63 81 -108 63z"/>
<path d="M10216 2449 c-19 -15 -26 -30 -26 -54 0 -36 36 -75 70 -75 34 0 70
39 70 75 0 36 -36 75 -70 75 -10 0 -29 -9 -44 -21z"/>
<path d="M10583 2444 c-20 -20 -24 -31 -19 -57 9 -43 29 -61 71 -61 42 0 62
18 71 61 5 26 1 37 -19 57 -15 15 -38 26 -52 26 -14 0 -37 -11 -52 -26z"/>
<path d="M10966 2449 c-19 -15 -26 -30 -26 -54 0 -37 37 -75 72 -75 29 0 68
45 68 79 0 32 -38 71 -70 71 -10 0 -29 -9 -44 -21z"/>
<path d="M1890 2405 l0 -35 655 0 655 0 0 35 0 35 -655 0 -655 0 0 -35z"/>
<path d="M8390 2390 l0 -30 583 2 582 3 3 28 3 27 -585 0 -586 0 0 -30z"/>
<path d="M210 1830 c-42 -42 -8 -120 53 -120 58 0 91 85 49 123 -25 23 -78 21
-102 -3z"/>
<path d="M1716 1828 c-36 -51 -5 -118 54 -118 59 0 90 67 54 118 -21 31 -87
31 -108 0z"/>
<path d="M2090 1828 c-58 -63 32 -156 98 -100 32 26 37 63 12 95 -28 35 -80
37 -110 5z"/>
<path d="M2467 1832 c-25 -28 -22 -87 5 -106 71 -50 159 43 98 104 -26 26 -81
26 -103 2z"/>
<path d="M2840 1830 c-26 -26 -25 -60 1 -94 25 -31 66 -35 100 -8 28 23 30 73
4 102 -24 26 -79 26 -105 0z"/>
<path d="M3215 1830 c-42 -47 -8 -120 55 -120 33 0 70 40 70 76 0 57 -86 87
-125 44z"/>
<path d="M3590 1830 c-43 -43 -10 -120 52 -120 59 0 93 84 50 123 -25 23 -78
21 -102 -3z"/>
<path d="M5460 1830 c-42 -42 -8 -120 53 -120 58 0 91 85 49 123 -25 23 -78
21 -102 -3z"/>
<path d="M5830 1823 c-37 -47 -2 -113 60 -113 33 0 70 40 70 74 0 63 -90 89
-130 39z"/>
<path d="M6210 1830 c-43 -43 -11 -120 50 -120 17 0 39 9 50 20 26 26 26 81 2
103 -25 23 -78 21 -102 -3z"/>
<path d="M6581 1824 c-12 -15 -21 -34 -21 -44 0 -32 39 -70 71 -70 34 0 79 39
79 68 0 35 -38 72 -75 72 -24 0 -39 -7 -54 -26z"/>
<path d="M6957 1832 c-40 -44 -7 -122 51 -122 60 0 94 78 52 120 -26 26 -81
26 -103 2z"/>
<path d="M7330 1830 c-42 -42 -8 -120 53 -120 58 0 91 85 49 123 -25 23 -78
21 -102 -3z"/>
<path d="M7701 1824 c-27 -35 -26 -59 4 -89 33 -34 77 -33 104 1 12 15 21 34
21 44 0 34 -39 70 -75 70 -24 0 -39 -7 -54 -26z"/>
<path d="M8076 1828 c-36 -51 -5 -118 54 -118 59 0 90 67 54 118 -21 31 -87
31 -108 0z"/>
<path d="M8450 1828 c-58 -63 32 -156 98 -100 32 26 37 63 12 95 -28 35 -80
37 -110 5z"/>
<path d="M8827 1832 c-40 -44 -7 -122 51 -122 60 0 94 78 52 120 -26 26 -81
26 -103 2z"/>
<path d="M9200 1830 c-26 -26 -25 -60 1 -94 25 -31 66 -35 100 -8 28 23 30 73
4 102 -24 26 -79 26 -105 0z"/>
<path d="M9575 1830 c-42 -47 -8 -120 55 -120 33 0 70 40 70 76 0 57 -86 87
-125 44z"/>
<path d="M9950 1830 c-42 -42 -8 -120 53 -120 58 0 91 85 49 123 -25 23 -78
21 -102 -3z"/>
<path d="M640 1780 l0 -30 450 0 450 0 0 30 0 30 -450 0 -450 0 0 -30z"/>
<path d="M3940 1780 l0 -30 600 0 600 0 0 30 0 30 -600 0 -600 0 0 -30z"/>
<path d="M1220 1260 c-11 -11 -20 -33 -20 -50 0 -17 9 -39 20 -50 43 -43 120
-11 120 50 0 38 -32 70 -70 70 -17 0 -39 -9 -50 -20z"/>
<path d="M3479 1262 c-28 -23 -30 -73 -4 -102 25 -27 78 -27 105 2 26 28 26
58 -1 92 -25 31 -66 35 -100 8z"/>
<path d="M3850 1260 c-11 -11 -20 -33 -20 -50 0 -17 9 -39 20 -50 43 -43 120
-11 120 50 0 38 -32 70 -70 70 -17 0 -39 -9 -50 -20z"/>
<path d="M4221 1254 c-12 -15 -21 -34 -21 -44 0 -34 39 -70 75 -70 36 0 75 36
75 70 0 34 -39 70 -75 70 -24 0 -39 -7 -54 -26z"/>
<path d="M4600 1260 c-11 -11 -20 -33 -20 -50 0 -17 9 -39 20 -50 43 -43 120
-11 120 50 0 38 -32 70 -70 70 -17 0 -39 -9 -50 -20z"/>
<path d="M6841 1254 c-12 -15 -21 -34 -21 -44 0 -34 39 -70 75 -70 36 0 75 36
75 70 0 34 -39 70 -75 70 -24 0 -39 -7 -54 -26z"/>
<path d="M7222 1264 c-28 -20 -31 -83 -4 -107 45 -40 122 -6 122 53 0 59 -67
90 -118 54z"/>
<path d="M7590 1260 c-45 -45 -11 -120 53 -120 42 0 67 26 67 68 0 41 -31 72
-70 72 -17 0 -39 -9 -50 -20z"/>
<path d="M7961 1254 c-12 -15 -21 -34 -21 -44 0 -34 39 -70 75 -70 36 0 75 36
75 70 0 34 -39 70 -75 70 -24 0 -39 -7 -54 -26z"/>
<path d="M8340 1260 c-43 -43 -11 -120 50 -120 38 0 70 32 70 70 0 38 -32 70
-70 70 -17 0 -39 -9 -50 -20z"/>
<path d="M8711 1254 c-12 -15 -21 -34 -21 -44 0 -10 9 -29 21 -44 41 -52 122
-23 122 44 0 67 -81 96 -122 44z"/>
<path d="M10960 1260 c-43 -43 -11 -120 50 -120 38 0 70 32 70 70 0 38 -32 70
-70 70 -17 0 -39 -9 -50 -20z"/>
<path d="M1680 1200 l0 -30 735 0 735 0 0 30 0 30 -735 0 -735 0 0 -30z"/>
<path d="M5020 1200 l0 -30 720 0 720 0 0 30 0 30 -720 0 -720 0 0 -30z"/>
<path d="M9140 1200 l0 -30 715 0 715 0 0 30 0 30 -715 0 -715 0 0 -30z"/>
<path d="M215 645 c-14 -13 -25 -36 -25 -50 0 -30 41 -75 68 -75 35 0 72 38
72 75 0 24 -7 39 -26 54 -35 27 -59 26 -89 -4z"/>
<path d="M602 660 c-27 -11 -44 -52 -36 -85 8 -31 23 -43 62 -51 25 -5 36 -1
56 19 33 33 33 71 1 102 -25 26 -45 30 -83 15z"/>
<path d="M966 649 c-36 -28 -36 -80 0 -108 15 -12 34 -21 44 -21 34 0 70 39
70 75 0 36 -36 75 -70 75 -10 0 -29 -9 -44 -21z"/>
<path d="M1335 645 c-27 -26 -31 -54 -15 -85 42 -79 163 -20 129 62 -21 51
-76 62 -114 23z"/>
<path d="M1726 649 c-19 -15 -26 -30 -26 -54 0 -36 36 -75 70 -75 34 0 70 39
70 75 0 36 -36 75 -70 75 -10 0 -29 -9 -44 -21z"/>
<path d="M2095 645 c-32 -31 -32 -69 0 -100 27 -28 42 -30 78 -14 55 25 55
103 1 128 -37 16 -52 14 -79 -14z"/>
<path d="M3981 657 c-51 -25 -47 -107 5 -127 77 -30 138 57 79 115 -27 28 -48
31 -84 12z"/>
<path d="M4346 649 c-36 -28 -36 -80 0 -108 15 -12 34 -21 44 -21 34 0 70 39
70 75 0 36 -36 75 -70 75 -10 0 -29 -9 -44 -21z"/>
<path d="M4715 645 c-14 -13 -25 -36 -25 -50 0 -28 40 -75 64 -75 29 0 64 22
75 48 16 33 -1 75 -35 91 -37 16 -52 14 -79 -14z"/>
<path d="M5103 658 c-28 -14 -43 -55 -31 -89 9 -26 44 -49 74 -49 24 0 64 47
64 75 0 30 -41 75 -67 74 -10 0 -28 -5 -40 -11z"/>
<path d="M5466 649 c-34 -27 -35 -71 -1 -104 30 -30 54 -31 89 -4 19 15 26 30
26 54 0 36 -36 75 -70 75 -10 0 -29 -9 -44 -21z"/>
<path d="M5854 658 c-69 -33 -37 -138 42 -138 24 0 64 47 64 75 0 30 -41 75
-67 74 -10 0 -28 -5 -39 -11z"/>
<path d="M6216 649 c-19 -15 -26 -30 -26 -54 0 -36 36 -75 70 -75 34 0 70 39
70 75 0 36 -36 75 -70 75 -10 0 -29 -9 -44 -21z"/>
<path d="M6586 647 c-15 -15 -26 -38 -26 -52 0 -14 11 -37 26 -52 20 -20 31
-24 57 -19 43 9 61 29 61 71 0 42 -18 62 -61 71 -26 5 -37 1 -57 -19z"/>
<path d="M8455 645 c-14 -13 -25 -36 -25 -50 0 -28 40 -75 64 -75 29 0 64 22
75 48 16 33 -1 75 -35 91 -37 16 -52 14 -79 -14z"/>
<path d="M8836 649 c-19 -15 -26 -30 -26 -54 0 -36 36 -75 70 -75 34 0 70 39
70 75 0 36 -36 75 -70 75 -10 0 -29 -9 -44 -21z"/>
<path d="M9205 645 c-14 -13 -25 -36 -25 -50 0 -28 40 -75 64 -75 29 0 64 22
75 48 16 33 -1 75 -35 91 -37 16 -52 14 -79 -14z"/>
<path d="M9594 658 c-69 -33 -37 -138 42 -138 24 0 64 47 64 75 0 30 -41 75
-67 74 -10 0 -28 -5 -39 -11z"/>
<path d="M9956 649 c-19 -15 -26 -30 -26 -54 0 -36 36 -75 70 -75 34 0 70 39
70 75 0 36 -36 75 -70 75 -10 0 -29 -9 -44 -21z"/>
<path d="M10329 651 c-16 -13 -23 -29 -23 -55 0 -46 23 -70 69 -70 46 0 69 24
69 70 0 41 -31 74 -69 74 -13 0 -33 -8 -46 -19z"/>
<path d="M10706 649 c-19 -15 -26 -30 -26 -54 0 -36 36 -75 70 -75 34 0 70 39
70 75 0 36 -36 75 -70 75 -10 0 -29 -9 -44 -21z"/>
<path d="M11075 645 c-14 -13 -25 -36 -25 -50 0 -28 40 -75 64 -75 29 0 64 22
75 48 16 33 -1 75 -35 91 -37 16 -52 14 -79 -14z"/>
<path d="M2440 580 l0 -30 655 0 655 0 0 30 0 30 -655 0 -655 0 0 -30z"/>
<path d="M6990 580 l0 -30 570 0 570 0 0 30 0 30 -570 0 -570 0 0 -30z"/>
</g>
</svg>
