<?xml version="1.0" standalone="no"?>
<!DOCTYPE svg PUBLIC "-//W3C//DTD SVG 20010904//EN"
 "http://www.w3.org/TR/2001/REC-SVG-20010904/DTD/svg10.dtd">
<svg version="1.0" xmlns="http://www.w3.org/2000/svg"
 width="1811.000000pt" height="1217.000000pt" viewBox="0 0 1811.000000 1217.000000"
 preserveAspectRatio="xMidYMid meet">
<metadata>
Created by potrace 1.13, written by Peter Selinger 2001-2015
</metadata>
<g transform="translate(0.000000,1217.000000) scale(0.100000,-0.100000)"
fill="#000000" stroke="none">
<path d="M3675 11914 c-148 -140 -278 -263 -287 -272 -15 -16 -11 -23 71 -111
l88 -95 342 324 c187 178 341 326 341 330 0 3 -17 23 -38 43 -29 28 -46 37
-72 37 l-34 0 39 -41 40 -41 -55 -50 c-30 -28 -167 -157 -304 -287 -136 -130
-252 -236 -256 -236 -4 0 -30 25 -57 55 l-50 55 254 240 c139 132 268 255 285
273 l32 32 -35 0 c-31 0 -59 -24 -304 -256z"/>
<path d="M4920 12110 l0 -60 130 0 130 0 0 60 c0 57 -1 60 -25 60 -22 0 -25
-4 -25 -35 l0 -35 -80 0 -80 0 0 35 c0 31 -3 35 -25 35 -24 0 -25 -3 -25 -60z"/>
<path d="M12660 11899 c-157 -149 -283 -273 -281 -277 2 -4 41 -47 87 -96 l82
-89 253 239 c139 131 294 278 343 326 l91 86 -40 41 c-31 33 -46 41 -74 41
l-35 0 39 -40 39 -40 -44 -44 c-25 -23 -135 -128 -245 -231 -110 -104 -227
-215 -261 -248 l-61 -59 -51 54 c-29 29 -51 58 -51 63 0 6 106 109 235 230
129 121 255 241 281 268 l47 47 -34 0 c-32 -1 -61 -25 -320 -271z"/>
<path d="M13920 12110 l0 -60 130 0 130 0 0 60 c0 57 -1 60 -25 60 -22 0 -25
-4 -25 -35 l0 -35 -80 0 -80 0 0 35 c0 31 -3 35 -25 35 -24 0 -25 -3 -25 -60z"/>
<path d="M505 11772 c-214 -115 -400 -214 -413 -220 l-22 -13 57 -109 c32 -60
62 -110 68 -110 10 0 805 417 819 430 8 8 -103 231 -114 230 -3 -1 -180 -94
-395 -208z m415 73 c22 -41 31 -68 25 -73 -8 -7 -423 -229 -717 -383 -14 -7
-23 3 -52 58 -20 37 -32 71 -28 75 10 10 724 388 732 388 3 0 21 -29 40 -65z"/>
<path d="M1920 11884 l-82 -96 33 -28 c19 -15 180 -152 359 -304 179 -151 327
-275 330 -275 13 1 161 190 156 198 -7 11 -694 595 -705 599 -4 1 -45 -41 -91
-94z m411 -240 c173 -146 315 -269 317 -274 3 -9 -85 -115 -96 -115 -4 0 -150
121 -324 269 l-317 269 32 39 c18 22 39 48 47 58 8 11 18 19 21 20 4 0 148
-120 320 -266z"/>
<path d="M9486 11761 c-224 -119 -408 -221 -407 -226 5 -25 107 -215 116 -215
12 0 804 417 818 430 9 8 -99 231 -111 229 -4 0 -191 -98 -416 -218z m437 81
l36 -68 -227 -119 c-124 -66 -293 -155 -374 -198 l-147 -78 -36 70 c-26 52
-32 72 -22 78 30 18 723 383 728 383 4 0 23 -31 42 -68z"/>
<path d="M10922 11884 l-82 -96 108 -91 c445 -378 604 -512 610 -514 10 -3
157 175 157 189 0 11 -692 607 -706 608 -3 0 -42 -43 -87 -96z m410 -239 c172
-146 314 -271 315 -278 1 -7 -19 -36 -45 -65 l-48 -54 -310 262 c-170 145
-314 268 -321 274 -9 8 -1 24 38 69 28 31 52 57 54 57 2 0 145 -119 317 -265z"/>
<path d="M6040 11614 c-162 -173 -305 -328 -318 -343 l-22 -28 94 -86 93 -87
319 341 c176 188 320 344 320 348 2 8 -172 171 -183 171 -4 0 -141 -142 -303
-316z m367 194 l52 -53 -282 -302 c-155 -166 -286 -302 -290 -303 -4 0 -33 21
-64 48 l-57 50 214 228 c243 261 362 384 370 384 3 0 29 -24 57 -52z"/>
<path d="M15055 11629 c-154 -165 -297 -319 -317 -342 l-37 -43 94 -87 93 -87
268 288 c148 158 293 313 322 344 l54 57 -87 83 c-48 46 -93 84 -99 85 -6 1
-137 -133 -291 -298z m352 179 l52 -53 -282 -303 c-155 -166 -286 -302 -290
-303 -4 0 -33 22 -63 50 l-55 50 286 306 c158 168 290 305 294 305 3 0 30 -24
58 -52z"/>
<path d="M7655 11359 c-49 -45 -90 -84 -90 -88 0 -12 618 -691 629 -691 6 0
51 38 100 83 l89 82 -312 345 c-171 190 -315 346 -319 347 -4 2 -47 -34 -97
-78z m159 -57 c32 -37 158 -177 279 -311 l221 -244 -55 -48 c-30 -27 -59 -48
-65 -46 -6 1 -135 139 -287 307 l-277 305 56 53 c30 28 58 52 62 51 4 0 33
-31 66 -67z"/>
<path d="M16710 11407 c-20 -17 -61 -55 -93 -84 l-57 -51 296 -329 c163 -180
306 -338 318 -350 l21 -22 94 88 95 87 -314 347 c-172 191 -316 347 -319 347
-3 0 -22 -15 -41 -33z m295 -317 c136 -151 262 -290 279 -308 l31 -34 -55 -49
c-30 -27 -59 -48 -65 -48 -5 0 -135 139 -287 309 l-278 309 57 50 c32 28 60
50 64 49 3 -2 117 -127 254 -278z"/>
<path d="M4947 10959 c-38 -55 -67 -104 -65 -109 2 -5 134 -100 293 -211 160
-110 331 -230 381 -264 l91 -64 68 97 c37 53 69 101 72 107 3 9 -755 546 -768
545 -2 -1 -35 -46 -72 -101z m433 -208 c179 -123 329 -228 334 -232 13 -11
-75 -140 -88 -131 -20 12 -671 464 -678 471 -11 10 82 132 95 124 7 -4 158
-108 337 -232z"/>
<path d="M13997 11028 c-73 -100 -118 -170 -115 -178 2 -4 147 -108 323 -230
176 -123 348 -242 381 -266 l61 -43 67 94 c37 53 69 101 72 109 3 9 -118 99
-367 272 -205 143 -378 262 -385 267 -8 5 -21 -4 -37 -25z m379 -273 c186
-130 340 -240 342 -244 1 -5 -16 -36 -39 -69 l-42 -61 -111 77 c-62 42 -216
149 -343 237 -128 88 -232 164 -233 168 0 8 78 127 84 127 1 0 155 -106 342
-235z"/>
<path d="M4270 11046 c0 -3 -52 -206 -115 -452 -64 -246 -112 -450 -108 -454
12 -11 233 -63 239 -57 8 8 236 899 231 903 -6 6 -218 63 -234 64 -7 0 -13 -2
-13 -4z m114 -72 c33 -8 64 -19 68 -23 8 -7 -189 -790 -203 -805 -6 -7 -132
18 -147 30 -3 2 191 764 203 802 5 15 5 15 79 -4z"/>
<path d="M13157 10598 c-84 -326 -113 -454 -105 -460 29 -17 230 -60 237 -50
11 18 234 893 229 898 -6 5 -218 63 -234 64 -6 0 -63 -202 -127 -452z m251
371 c28 -7 52 -16 52 -21 0 -11 -202 -801 -206 -807 -3 -3 -145 28 -151 34 -3
1 189 752 203 798 4 14 12 17 27 13 12 -3 46 -11 75 -17z"/>
<path d="M1046 10779 c-230 -21 -420 -40 -423 -43 -4 -4 15 -248 20 -252 5 -4
926 82 932 87 3 4 1 55 -5 115 -5 60 -10 115 -10 122 0 17 -34 15 -514 -29z
m468 -36 c8 -39 11 -121 5 -127 -6 -6 -829 -80 -833 -75 -2 2 -5 38 -7 79 l-4
75 395 36 c217 20 405 37 417 38 16 1 23 -6 27 -26z"/>
<path d="M10046 10779 c-230 -21 -420 -40 -422 -42 -4 -3 15 -250 20 -253 0
-1 210 17 466 40 l465 42 -2 64 c-1 36 -4 93 -8 128 l-7 62 -46 -1 c-26 -1
-235 -19 -466 -40z m475 -89 c3 -41 6 -76 5 -77 -1 0 -187 -18 -415 -38 -345
-31 -415 -35 -422 -24 -5 8 -9 40 -9 72 0 31 -1 60 -2 65 -3 7 763 81 812 78
24 -1 25 -5 31 -76z"/>
<path d="M6757 10428 c-4 -194 -7 -406 -7 -470 l0 -118 130 0 130 0 0 273 c0
151 3 362 7 470 l6 197 -130 0 -130 0 -6 -352z m210 150 c-4 -83 -7 -272 -7
-420 l0 -268 -82 0 -81 0 6 308 c4 169 7 358 7 420 l0 112 82 0 81 0 -6 -152z"/>
<path d="M15760 10522 c0 -143 -3 -354 -7 -470 l-6 -212 131 0 132 0 0 133 c0
72 3 284 7 470 l6 337 -131 0 -132 0 0 -258z m207 -84 c-4 -161 -7 -350 -7
-420 l0 -128 -82 0 -81 0 6 173 c4 94 7 283 7 420 l0 247 82 0 81 0 -6 -292z"/>
<path d="M3099 10424 c-57 -37 -105 -67 -107 -69 -2 -2 491 -780 503 -793 2
-2 51 27 110 64 66 42 104 72 101 80 -6 14 -496 784 -500 784 -1 0 -49 -30
-107 -66z m319 -353 c122 -192 222 -353 222 -358 -1 -4 -28 -25 -62 -46 -50
-31 -63 -36 -73 -25 -9 10 -409 634 -439 685 -4 8 16 27 56 52 35 22 65 41 68
41 3 0 105 -157 228 -349z"/>
<path d="M12130 10442 c-41 -26 -90 -57 -107 -68 l-33 -20 246 -385 c135 -211
249 -390 254 -398 11 -21 224 115 215 138 -7 19 -473 751 -489 768 -9 10 -28
2 -86 -35z m111 -95 c26 -39 128 -199 227 -354 l180 -282 -65 -41 c-36 -23
-69 -37 -74 -33 -11 12 -440 685 -442 694 -2 8 111 89 123 89 3 0 26 -33 51
-73z"/>
<path d="M1937 10068 c-365 -482 -440 -583 -441 -594 -1 -6 42 -46 94 -88 89
-71 96 -75 111 -58 27 28 589 778 589 785 0 7 -185 157 -194 157 -3 0 -74 -91
-159 -202z m237 82 c25 -19 45 -41 43 -47 -1 -7 -123 -173 -270 -368 l-268
-355 -60 46 c-32 26 -59 49 -59 52 0 6 220 301 417 560 87 114 128 160 137
155 7 -5 34 -24 60 -43z"/>
<path d="M10793 9875 c-164 -217 -298 -399 -298 -404 0 -12 187 -161 196 -156
10 7 599 790 599 798 0 7 -184 157 -193 157 -3 0 -140 -178 -304 -395z m376
278 l59 -47 -136 -180 c-75 -100 -198 -263 -275 -364 l-138 -182 -60 47 c-33
25 -58 50 -57 55 5 13 538 718 544 718 2 0 31 -21 63 -47z"/>
<path d="M8848 10130 l-108 -69 251 -393 c138 -216 253 -395 255 -397 4 -4
203 119 210 131 5 7 -437 712 -488 780 -12 16 -22 11 -120 -52z m317 -346
c121 -190 221 -350 223 -357 1 -7 -25 -30 -59 -51 -51 -33 -62 -37 -73 -25
-17 19 -434 674 -438 688 -2 9 105 88 122 90 3 0 104 -155 225 -345z"/>
<path d="M17855 10134 c-55 -35 -101 -68 -103 -74 -2 -5 77 -136 175 -289 178
-278 178 -279 181 -237 3 39 -7 59 -143 270 -80 126 -147 232 -148 236 -3 13
125 93 132 83 3 -5 40 -63 81 -128 l75 -118 3 42 c3 38 -5 55 -64 149 -37 59
-72 112 -78 119 -8 8 -37 -5 -111 -53z"/>
<path d="M7567 9814 c-191 -196 -347 -359 -347 -363 0 -3 40 -46 88 -94 l88
-88 353 362 353 361 -88 89 c-49 49 -91 89 -95 89 -3 0 -162 -160 -352 -356z
m412 232 l53 -54 -318 -326 -318 -327 -55 55 -54 55 38 43 c63 70 590 608 595
608 3 0 30 -24 59 -54z"/>
<path d="M16639 9888 c-151 -156 -307 -317 -347 -359 l-72 -77 87 -92 88 -92
354 361 354 362 -89 90 c-49 49 -91 89 -94 89 -3 0 -129 -127 -281 -282z m340
158 l54 -55 -319 -326 -319 -327 -52 57 -53 58 76 80 c134 142 549 567 554
567 3 0 30 -24 59 -54z"/>
<path d="M0 10082 c0 -39 20 -74 195 -348 107 -168 195 -308 195 -312 0 -11
-120 -83 -129 -77 -5 2 -64 92 -132 199 l-124 194 -3 -42 c-3 -40 6 -57 118
-232 66 -103 123 -190 125 -192 8 -9 216 131 212 142 -6 15 -437 688 -448 701
-5 5 -9 -8 -9 -33z"/>
<path d="M5695 9624 c-258 -91 -471 -167 -473 -169 -2 -2 14 -57 36 -122 27
-81 44 -117 53 -115 13 3 932 323 936 326 3 2 -72 234 -77 240 -3 2 -216 -70
-475 -160z m467 31 c10 -33 18 -65 18 -71 0 -10 -819 -304 -845 -304 -8 0 -58
141 -52 146 14 10 836 293 846 291 9 -1 23 -28 33 -62z"/>
<path d="M14700 9625 c-256 -90 -469 -166 -473 -167 -5 -2 9 -57 30 -123 30
-90 43 -119 55 -117 15 2 931 322 936 326 3 4 -69 230 -76 238 -4 3 -216 -67
-472 -157z m466 23 c12 -37 19 -70 14 -73 -21 -13 -835 -295 -844 -292 -8 3
-59 138 -53 142 14 10 836 294 846 292 8 -1 24 -32 37 -69z"/>
<path d="M7304 8839 c-38 -34 -80 -72 -93 -84 l-24 -23 313 -346 c172 -190
316 -346 320 -346 7 0 190 159 190 165 0 6 -621 690 -629 693 -5 1 -39 -25
-77 -59z m356 -319 l281 -311 -52 -47 c-29 -26 -58 -47 -64 -47 -7 0 -124 124
-260 275 -136 151 -261 289 -277 306 l-29 31 53 51 c29 29 56 52 60 52 4 0
134 -140 288 -310z"/>
<path d="M16285 8819 c-49 -44 -89 -85 -87 -90 4 -17 616 -689 627 -689 5 1
50 38 99 83 l89 83 -314 347 c-172 191 -316 347 -319 347 -3 0 -45 -36 -95
-81z m380 -303 l278 -308 -54 -49 c-30 -26 -58 -48 -64 -48 -5 0 -135 138
-287 307 l-277 307 55 53 c29 30 58 52 62 50 5 -1 134 -142 287 -312z"/>
<path d="M2070 8685 c-228 -107 -415 -197 -414 -200 2 -19 100 -225 107 -225
11 0 830 380 841 390 11 11 -87 225 -105 227 -8 1 -201 -86 -429 -192z m446
63 l34 -73 -22 -10 c-13 -5 -185 -85 -383 -177 l-360 -167 -33 70 c-18 39 -32
72 -30 74 3 3 747 352 756 354 1 1 18 -32 38 -71z"/>
<path d="M11140 8717 c-190 -89 -378 -177 -417 -195 l-72 -33 50 -107 c28 -59
54 -111 59 -115 9 -10 840 372 847 389 6 17 -95 224 -109 223 -7 0 -168 -74
-358 -162z m378 31 c18 -40 29 -74 25 -76 -4 -1 -177 -81 -383 -177 l-375
-174 -33 72 c-18 39 -29 73 -25 75 4 2 175 81 378 177 204 95 372 173 375 174
3 0 20 -32 38 -71z"/>
<path d="M7 8834 c-10 -10 -9 -62 2 -66 8 -3 81 -112 81 -122 0 -3 -20 -19
-45 -36 -33 -22 -45 -38 -45 -55 0 -14 3 -25 6 -25 10 0 154 93 154 99 0 12
-127 205 -136 208 -6 2 -13 0 -17 -3z"/>
<path d="M8628 8592 c-213 -136 -389 -250 -391 -252 -7 -7 126 -213 136 -213
13 1 787 495 787 503 0 12 -125 203 -135 206 -6 2 -184 -108 -397 -244z m426
118 c21 -33 35 -64 32 -69 -7 -11 -676 -438 -693 -443 -7 -2 -30 26 -52 61
l-40 64 297 189 c163 104 320 205 347 223 28 19 55 34 61 34 6 1 28 -26 48
-59z"/>
<path d="M17628 8592 c-213 -136 -387 -251 -388 -256 0 -15 131 -217 138 -212
4 2 169 108 367 234 l360 229 3 66 c3 60 0 69 -35 125 -21 34 -42 61 -48 61
-5 0 -184 -112 -397 -247z m432 112 l39 -61 -351 -224 c-193 -123 -354 -225
-357 -227 -7 -2 -81 113 -81 127 0 11 691 452 703 448 4 -1 26 -30 47 -63z"/>
<path d="M6287 8727 c-80 -329 -207 -890 -203 -894 6 -6 239 -63 243 -59 7 6
214 908 210 913 -3 2 -47 15 -99 28 -156 38 -145 38 -151 12z m133 -59 c33 -6
60 -17 60 -23 0 -16 -187 -805 -191 -810 -6 -5 -132 26 -142 35 -5 4 33 182
83 396 108 461 98 427 115 420 8 -3 41 -11 75 -18z"/>
<path d="M15187 8293 c-59 -251 -106 -458 -103 -460 6 -6 240 -62 244 -58 8 7
214 906 209 911 -4 5 -126 37 -218 58 l-25 5 -107 -456z m233 375 c36 -7 60
-17 60 -25 0 -12 -175 -770 -185 -800 -3 -8 -21 -7 -72 4 -37 8 -71 18 -76 22
-4 4 35 189 88 411 52 222 95 406 95 408 0 2 7 2 15 -1 8 -4 41 -12 75 -19z"/>
<path d="M3516 8573 c-31 -58 -56 -109 -56 -112 1 -6 819 -435 830 -436 10 0
119 220 112 227 -12 12 -809 428 -820 428 -6 0 -36 -48 -66 -107z m446 -144
c200 -104 367 -194 372 -199 12 -11 -58 -136 -74 -132 -11 3 -718 370 -729
379 -5 3 60 143 66 143 1 0 166 -86 365 -191z"/>
<path d="M12516 8571 l-57 -110 43 -24 c101 -58 776 -407 786 -407 6 0 36 48
67 107 50 98 54 109 39 120 -27 20 -800 423 -811 423 -6 0 -36 -49 -67 -109z
m519 -179 c149 -78 279 -148 289 -155 17 -13 17 -16 -14 -78 -18 -35 -34 -65
-35 -67 -4 -5 -734 379 -741 389 -5 8 24 72 54 117 l15 22 81 -43 c44 -24 203
-108 351 -185z"/>
<path d="M767 8540 c-60 -10 -111 -21 -114 -24 -5 -5 136 -916 143 -924 3 -5
231 30 243 37 7 4 -15 162 -59 441 -82 508 -78 490 -93 489 -7 -1 -61 -9 -120
-19z m97 -67 c3 -16 33 -201 67 -412 47 -295 58 -386 48 -391 -13 -8 -139 -24
-143 -18 -1 1 -32 188 -67 413 l-66 410 56 11 c90 19 99 18 105 -13z"/>
<path d="M9767 8540 c-60 -10 -111 -21 -114 -23 -6 -7 138 -910 147 -920 7 -8
221 21 240 33 7 4 -13 151 -60 446 -80 503 -76 484 -93 483 -6 -1 -61 -9 -120
-19z m98 -62 c2 -13 32 -198 66 -411 49 -308 60 -390 49 -397 -17 -10 -130
-23 -138 -15 -7 7 -131 765 -132 802 0 18 8 23 53 31 85 16 96 14 102 -10z"/>
<path d="M5114 8170 c-248 -158 -389 -254 -388 -263 2 -16 111 -194 124 -202
14 -9 785 491 784 508 -1 15 -111 194 -124 202 -3 2 -181 -108 -396 -245z
m420 120 c21 -33 36 -65 34 -70 -3 -8 -667 -436 -693 -446 -6 -3 -30 25 -52
60 l-42 65 352 225 c194 124 355 225 358 225 3 1 23 -26 43 -59z"/>
<path d="M14120 8174 c-212 -135 -389 -250 -394 -254 -8 -8 106 -204 125 -216
6 -3 684 423 781 490 15 11 9 23 -53 119 -38 59 -70 107 -71 107 -2 0 -176
-111 -388 -246z m419 111 l41 -65 -68 -43 c-451 -289 -624 -398 -634 -402 -12
-5 -88 100 -88 121 0 8 686 451 701 453 4 1 25 -28 48 -64z"/>
<path d="M1696 7717 l-89 -83 293 -324 c161 -179 303 -336 316 -349 l23 -24
56 49 c31 27 75 65 97 85 l41 35 -314 347 c-172 191 -318 347 -324 347 -5 0
-50 -38 -99 -83z m386 -295 l277 -307 -55 -53 c-31 -29 -59 -52 -63 -50 -4 2
-133 142 -286 312 l-278 308 54 49 c30 26 59 48 64 48 6 0 135 -138 287 -307z"/>
<path d="M10700 7719 c-78 -70 -89 -84 -78 -97 13 -17 566 -631 599 -666 18
-19 19 -19 61 17 24 20 67 58 97 85 l54 49 -313 346 c-172 191 -317 347 -321
347 -5 0 -49 -37 -99 -81z m384 -299 l276 -305 -55 -53 c-30 -29 -59 -51 -65
-47 -5 3 -134 143 -286 311 l-276 305 53 49 c30 27 59 48 65 47 6 -1 136 -139
288 -307z"/>
<path d="M2998 7742 c-59 -15 -109 -30 -113 -33 -5 -6 211 -898 220 -908 11
-10 245 53 245 66 0 38 -224 903 -234 902 -6 0 -59 -13 -118 -27z m193 -432
c54 -217 98 -400 99 -406 0 -12 -137 -50 -147 -41 -5 6 -202 784 -203 803 0
11 112 43 139 40 11 -1 42 -111 112 -396z"/>
<path d="M11998 7741 c-58 -14 -109 -29 -113 -32 -5 -6 212 -897 222 -908 2
-3 57 8 123 24 78 19 120 33 120 42 0 11 -182 757 -210 864 -6 21 -16 38 -23
38 -7 -1 -60 -13 -119 -28z m194 -426 c53 -215 98 -397 98 -406 0 -13 -18 -21
-70 -34 -39 -10 -73 -16 -75 -13 -5 5 -206 810 -203 813 8 6 125 33 137 32 11
-2 42 -112 113 -392z"/>
<path d="M4307 7448 c-63 -83 -509 -713 -513 -723 -6 -15 195 -160 206 -149
40 43 539 758 533 764 -20 18 -191 140 -196 140 -3 0 -17 -15 -30 -32z m97
-75 c28 -20 55 -40 60 -44 6 -5 -428 -630 -475 -683 -11 -13 -131 75 -125 91
8 20 476 673 483 673 3 0 28 -17 57 -37z"/>
<path d="M13064 7108 c-146 -205 -268 -378 -270 -383 -3 -6 41 -44 97 -84 83
-59 104 -70 114 -59 18 19 535 746 535 751 0 6 -196 147 -204 147 -3 0 -125
-168 -272 -372z m347 261 c32 -23 59 -44 59 -47 0 -4 -410 -581 -473 -666 -13
-18 -16 -17 -76 25 -34 24 -60 48 -57 54 6 17 477 675 483 675 3 0 31 -19 64
-41z"/>
<path d="M8353 7342 c-57 -14 -103 -29 -103 -33 0 -12 219 -902 223 -906 5 -5
230 48 240 56 6 6 -174 771 -209 894 -7 22 -26 21 -151 -11z m209 -437 c54
-220 98 -403 98 -406 0 -9 -143 -40 -150 -32 -8 9 -203 804 -198 808 8 8 115
33 133 32 17 -2 31 -49 117 -402z"/>
<path d="M17360 7343 c-58 -14 -106 -27 -108 -28 -3 -3 217 -907 222 -912 5
-5 230 48 239 57 7 6 -142 642 -204 873 -12 44 -10 44 -149 10z m204 -439 c54
-223 97 -407 95 -408 -10 -8 -142 -36 -147 -32 -6 7 -203 808 -200 812 2 1 28
9 58 17 102 28 83 67 194 -389z"/>
<path d="M14592 7176 c-33 -61 -57 -114 -54 -118 11 -11 809 -438 819 -438 7
0 115 191 120 215 2 6 -149 91 -334 190 -186 99 -372 199 -414 221 l-77 42
-60 -112z m518 -191 c162 -87 297 -160 300 -162 7 -7 -67 -138 -77 -136 -13 3
-716 382 -725 391 -4 4 8 38 28 75 l36 68 71 -39 c40 -22 205 -110 367 -197z"/>
<path d="M5587 7171 l-57 -109 32 -20 c71 -42 786 -422 794 -422 5 0 35 49 66
109 44 83 55 111 45 118 -22 17 -803 433 -813 433 -5 0 -35 -49 -67 -109z
m513 -181 c168 -90 307 -165 309 -167 7 -6 -68 -138 -76 -136 -16 3 -708 376
-721 388 -11 10 -7 24 23 79 l37 67 62 -34 c33 -19 198 -108 366 -197z"/>
<path d="M7234 6899 c-165 -193 -300 -354 -302 -358 -2 -7 170 -158 186 -163
8 -3 613 700 611 712 0 6 -176 154 -188 158 -5 2 -143 -155 -307 -349z m375
232 l54 -49 -273 -321 -273 -321 -47 40 c-26 22 -52 45 -58 53 -9 11 44 80
256 330 147 174 272 316 277 316 6 0 34 -22 64 -48z"/>
<path d="M16230 6894 c-251 -296 -300 -359 -288 -369 56 -55 183 -154 189
-148 55 59 599 708 597 713 -4 11 -180 160 -188 160 -4 0 -143 -160 -310 -356z
m379 237 l55 -48 -25 -29 c-13 -16 -136 -161 -272 -322 l-249 -292 -59 51 -59
51 23 28 c92 117 514 609 522 609 6 0 35 -21 64 -48z"/>
<path d="M536 6659 c-163 -193 -299 -356 -302 -363 -4 -11 168 -166 185 -166
8 0 606 701 606 710 0 5 -92 87 -175 157 -14 11 -56 -35 -314 -338z m411 162
c-8 -9 -127 -150 -266 -313 -139 -164 -257 -300 -262 -304 -11 -7 -121 84
-117 97 2 4 124 150 271 324 l268 315 60 -51 c52 -46 58 -54 46 -68z"/>
<path d="M9535 6655 c-165 -194 -300 -358 -300 -363 0 -12 172 -162 185 -162
4 0 144 160 310 356 249 293 300 358 289 368 -29 26 -155 132 -169 143 -13 10
-63 -45 -315 -342z m403 154 c-94 -118 -515 -608 -523 -608 -5 -1 -34 21 -64
47 l-55 49 273 321 273 322 59 -51 60 -52 -23 -28z"/>
<path d="M4846 6213 c-4 -225 -9 -435 -12 -469 l-6 -61 53 -6 c30 -4 88 -7
130 -7 l77 0 6 143 c3 78 9 289 12 468 l7 326 -24 6 c-13 4 -72 7 -130 7
l-106 0 -7 -407z m210 35 c-4 -178 -9 -369 -12 -426 l-6 -103 -76 3 -77 3 2
45 c1 25 5 215 9 423 l6 377 80 0 80 0 -6 -322z"/>
<path d="M13858 6618 c0 -2 -6 -213 -12 -469 l-11 -467 50 -6 c28 -3 84 -6
126 -6 l77 0 6 83 c3 45 8 256 12 468 l7 386 -24 6 c-22 6 -227 10 -231 5z
m198 -430 c-4 -211 -9 -402 -12 -426 l-5 -43 -72 3 -72 3 4 415 c1 228 5 418
8 423 2 4 38 7 80 7 l75 0 -6 -382z"/>
<path d="M1716 6378 c-13 -39 -54 -233 -50 -237 5 -6 884 -201 904 -201 12 0
22 30 42 122 14 68 26 123 25 124 -1 1 -200 45 -442 98 -242 54 -448 100 -458
102 -9 3 -19 -1 -21 -8z m451 -138 c224 -50 408 -92 409 -93 2 -1 -4 -35 -13
-75 -12 -53 -20 -72 -32 -72 -24 0 -795 172 -803 179 -5 5 23 151 29 151 2 0
186 -41 410 -90z"/>
<path d="M10715 6368 c-3 -13 -16 -69 -29 -125 -21 -92 -21 -103 -7 -107 38
-12 877 -196 891 -196 12 0 22 28 43 122 15 67 26 123 24 124 -1 1 -198 45
-437 98 -239 53 -445 98 -457 101 -17 4 -24 0 -28 -17z m474 -133 c211 -47
386 -86 388 -88 2 -2 -4 -36 -13 -75 -11 -51 -21 -72 -31 -72 -15 0 -775 166
-799 175 -9 2 -8 21 3 67 19 89 20 89 45 83 13 -3 196 -43 407 -90z"/>
<path d="M3781 5889 c-50 -45 -90 -87 -88 -92 1 -5 142 -164 312 -352 l309
-343 46 39 c25 21 68 60 97 86 l52 48 -295 325 c-162 179 -305 336 -318 348
l-23 24 -92 -83z m374 -299 c151 -168 275 -308 275 -311 0 -10 -98 -99 -109
-99 -9 0 -537 579 -555 608 -6 9 9 29 45 62 30 27 57 48 61 47 4 -1 131 -139
283 -307z"/>
<path d="M12781 5889 c-50 -45 -90 -86 -89 -91 2 -5 143 -163 313 -352 l310
-343 35 28 c19 16 63 55 97 86 l62 58 -285 315 c-157 173 -300 330 -318 348
l-32 33 -93 -82z m379 -303 l278 -309 -51 -48 c-29 -27 -57 -48 -63 -49 -10 0
-517 553 -552 602 -12 16 -7 24 40 68 29 27 57 48 61 47 4 -1 133 -141 287
-311z"/>
<path d="M5820 5564 c-201 -129 -377 -242 -392 -252 l-27 -17 64 -100 c36 -55
66 -104 68 -109 3 -10 797 490 797 501 0 12 -132 213 -138 212 -4 0 -171 -106
-372 -235z m403 106 c20 -33 37 -63 37 -67 0 -9 -689 -448 -702 -448 -5 0 -27
28 -49 62 l-39 63 57 37 c272 175 649 413 653 413 3 0 22 -27 43 -60z"/>
<path d="M14798 5548 l-396 -252 52 -83 c29 -45 61 -94 71 -108 l20 -25 385
245 c212 136 389 250 394 255 8 8 -104 203 -123 215 -5 2 -186 -109 -403 -247z
m425 124 c20 -32 37 -63 37 -68 0 -7 -673 -443 -699 -452 -5 -1 -27 27 -49 63
l-41 65 82 52 c278 179 623 398 627 398 3 0 22 -26 43 -58z"/>
<path d="M7907 5538 c-12 -67 -20 -228 -11 -228 5 0 211 -18 458 -40 247 -22
455 -40 461 -40 12 0 38 240 26 251 -3 4 -195 23 -426 43 -231 20 -439 38
-461 41 -41 6 -42 5 -47 -27z m441 -58 c185 -16 361 -32 391 -36 l54 -6 -7
-76 c-3 -41 -7 -76 -9 -77 -5 -5 -826 71 -832 76 -3 4 -2 38 1 78 7 70 7 71
36 71 16 0 180 -13 366 -30z"/>
<path d="M16906 5528 c-12 -93 -18 -218 -10 -218 5 0 212 -18 459 -40 248 -22
455 -40 461 -40 9 0 40 249 32 255 -2 1 -196 19 -433 39 -236 20 -446 39 -466
42 -36 5 -37 5 -43 -38z m499 -53 c215 -19 390 -35 390 -35 3 0 -14 -153 -17
-155 -5 -4 -827 71 -832 76 -3 3 -2 37 1 77 l6 72 31 0 c17 0 207 -16 421 -35z"/>
<path d="M670 5493 c-58 -35 -104 -67 -103 -72 2 -8 470 -789 478 -799 1 -1
52 27 113 63 l110 67 -235 391 c-129 216 -240 397 -246 403 -9 9 -39 -5 -117
-53z m313 -363 c214 -356 216 -360 194 -374 -90 -56 -110 -67 -117 -59 -13 15
-420 693 -423 705 -2 8 106 85 123 87 3 1 103 -161 223 -359z"/>
<path d="M9670 5494 c-58 -35 -104 -67 -103 -71 2 -7 471 -792 479 -802 1 -1
53 27 113 64 l111 66 -22 38 c-221 370 -464 770 -468 770 -3 0 -52 -29 -110
-65z m311 -359 c116 -192 211 -354 212 -358 3 -14 -124 -90 -133 -80 -4 4
-102 167 -218 361 l-211 352 42 26 c23 14 51 32 62 40 11 7 23 12 27 11 4 -1
102 -159 219 -352z"/>
<path d="M2305 5259 c-176 -159 -330 -300 -343 -312 l-23 -23 82 -92 c45 -51
85 -92 89 -92 5 0 606 536 682 609 17 16 14 22 -64 109 -45 50 -86 92 -92 91
-6 0 -155 -131 -331 -290z m388 166 l48 -53 -48 -45 c-189 -174 -576 -517
-582 -515 -22 10 -103 110 -95 118 82 79 612 549 619 549 6 -1 32 -25 58 -54z"/>
<path d="M11285 5239 l-345 -311 24 -29 c68 -80 140 -159 147 -159 6 0 599
529 672 599 l28 27 -82 92 c-44 51 -85 92 -90 92 -4 0 -164 -140 -354 -311z
m403 189 c26 -28 47 -54 47 -58 0 -9 -613 -560 -622 -559 -4 0 -30 25 -56 56
l-49 55 54 48 c29 26 168 151 308 278 140 127 259 231 263 232 5 0 30 -23 55
-52z"/>
<path d="M6910 4965 l0 -475 124 0 124 0 7 113 c3 61 5 274 3 472 l-3 360
-127 3 -128 3 0 -476z m208 60 c2 -198 0 -388 -3 -422 l-7 -63 -74 0 -74 0 0
425 0 426 78 -3 77 -3 3 -360z"/>
<path d="M15910 4965 l0 -475 130 0 130 0 0 475 0 475 -130 0 -130 0 0 -475z
m210 0 l0 -425 -80 0 -80 0 0 425 0 425 80 0 80 0 0 -425z"/>
<path d="M4027 4300 c-175 -188 -317 -344 -315 -348 2 -4 43 -45 91 -92 l88
-84 38 39 c152 159 601 645 601 652 0 7 -174 173 -182 173 -2 0 -146 -153
-321 -340z m383 217 c28 -27 50 -52 48 -57 -2 -4 -118 -130 -258 -280 -140
-149 -267 -286 -282 -303 l-27 -32 -57 57 -57 56 190 204 c104 112 232 249
284 305 52 56 97 101 101 100 3 -1 29 -24 58 -50z"/>
<path d="M13026 4298 l-319 -341 92 -90 c91 -90 92 -90 111 -71 11 10 157 165
324 344 l305 325 -92 87 c-51 48 -94 87 -97 87 -3 0 -148 -153 -324 -341z
m383 222 c29 -27 52 -53 50 -59 -2 -5 -114 -128 -249 -271 -135 -144 -262
-281 -282 -304 l-37 -41 -57 57 -57 56 284 305 c156 168 286 305 289 306 3 0
29 -22 59 -49z"/>
<path d="M2993 4441 c-56 -10 -106 -20 -109 -24 -6 -5 133 -915 141 -925 3 -4
245 35 250 40 3 3 -127 834 -141 901 -6 31 -2 31 -141 8z m101 -68 c20 -105
127 -796 123 -799 -7 -7 -147 -28 -151 -23 -1 2 -30 182 -65 399 -34 217 -64
403 -67 412 -4 13 6 18 48 26 94 17 106 15 112 -15z"/>
<path d="M11993 4441 c-56 -10 -105 -20 -109 -23 -7 -8 135 -910 146 -921 6
-7 237 27 246 36 4 4 -129 850 -141 905 -6 25 -5 25 -142 3z m100 -63 c15 -62
129 -799 125 -804 -12 -11 -139 -27 -147 -18 -4 5 -22 101 -40 214 -18 113
-47 296 -65 407 l-32 202 50 9 c87 16 103 15 109 -10z"/>
<path d="M5935 4324 c-74 -80 -86 -97 -74 -108 8 -7 154 -138 324 -291 171
-153 322 -289 337 -303 l27 -25 54 59 c30 33 68 76 86 96 l32 37 -253 228
c-139 125 -296 267 -349 315 l-97 88 -87 -96z m437 -287 l277 -250 -19 -26
c-10 -14 -34 -41 -53 -59 l-34 -33 -312 281 -311 282 51 59 52 59 36 -32 c20
-17 161 -144 313 -281z"/>
<path d="M14934 4324 c-86 -95 -87 -96 -67 -113 12 -9 168 -149 348 -311 179
-162 330 -295 335 -295 9 0 170 176 169 185 0 4 -435 398 -643 582 l-53 47
-89 -95z m432 -280 c229 -207 282 -259 275 -273 -5 -9 -29 -35 -53 -59 l-44
-42 -312 281 -312 281 52 58 51 59 30 -25 c16 -13 157 -140 313 -280z"/>
<path d="M242 4298 c-45 -182 -203 -870 -200 -872 11 -7 240 -57 244 -53 6 5
214 885 214 903 0 9 -201 64 -236 64 -7 0 -16 -19 -22 -42z m161 -39 c20 -5
37 -13 37 -17 1 -17 -183 -798 -190 -805 -7 -8 -150 22 -150 32 0 8 178 767
186 794 6 20 28 19 117 -4z"/>
<path d="M9152 3908 c-56 -238 -103 -444 -104 -457 -3 -24 2 -26 115 -54 66
-15 121 -26 125 -23 6 7 211 874 212 898 0 12 -25 22 -112 42 -62 14 -118 26
-124 26 -6 0 -56 -195 -112 -432z m251 351 c20 -5 37 -15 37 -22 0 -22 -182
-792 -189 -800 -6 -6 -140 18 -149 27 -2 3 106 469 183 795 6 25 22 25 118 0z"/>
<path d="M1355 3958 c-23 -135 -32 -214 -25 -218 13 -8 918 -135 924 -130 8 8
39 241 33 247 -5 4 -881 132 -914 133 -7 0 -15 -15 -18 -32z m485 -84 c217
-31 396 -57 396 -58 1 0 -3 -35 -10 -76 -11 -71 -13 -75 -36 -73 -40 4 -752
103 -783 109 -26 5 -28 9 -24 37 3 18 9 51 12 75 6 34 11 42 28 42 12 0 199
-25 417 -56z"/>
<path d="M4936 3888 c-3 -57 -9 -268 -12 -470 l-7 -368 112 -2 c61 -1 119 -2
129 -2 16 -1 18 31 27 464 6 256 9 468 7 473 -2 4 -59 7 -126 7 l-124 0 -6
-102z m204 -75 c0 -71 -3 -260 -7 -420 l-6 -293 -80 0 -79 0 6 348 c4 191 9
380 12 420 l6 72 74 0 74 0 0 -127z"/>
<path d="M10360 3983 c-1 -5 -9 -61 -19 -125 -16 -107 -17 -118 -2 -122 40
-11 910 -130 915 -125 9 9 40 238 33 245 -5 5 -879 133 -914 134 -7 0 -13 -3
-13 -7z m479 -109 c218 -30 397 -56 398 -57 1 -1 -3 -37 -9 -80 l-11 -77 -31
5 c-17 3 -203 30 -414 59 -211 30 -385 56 -387 58 -2 2 1 36 7 76 9 62 13 72
31 72 11 0 198 -25 416 -56z"/>
<path d="M13936 3828 c-3 -90 -9 -301 -12 -470 l-7 -307 124 -3 c68 -2 127 -2
130 -1 4 2 9 168 13 370 3 203 9 414 12 471 l6 102 -130 0 -130 0 -6 -162z
m209 30 c-3 -46 -8 -235 -11 -420 l-6 -338 -80 0 -80 0 6 288 c4 158 9 347 12
420 l6 132 79 0 79 0 -5 -82z"/>
<path d="M7698 3564 l-367 -297 80 -98 c44 -55 82 -99 84 -99 7 0 710 571 719
584 8 12 -52 96 -139 193 -8 10 -94 -54 -377 -283z m440 128 c13 -20 13 -25 1
-37 -27 -26 -633 -515 -639 -514 -3 0 -25 25 -49 56 -31 39 -41 60 -35 69 5 7
151 128 324 269 l315 255 34 -38 c18 -20 40 -47 49 -60z"/>
<path d="M16705 3569 c-198 -160 -361 -295 -363 -300 -4 -10 148 -201 158
-197 19 8 720 582 720 590 0 7 -148 198 -154 198 0 0 -163 -131 -361 -291z
m399 165 c26 -31 46 -60 46 -64 0 -8 -602 -502 -637 -523 -12 -8 -106 99 -101
114 2 7 637 527 645 529 1 0 22 -25 47 -56z"/>
<path d="M3810 3038 c-135 -127 -289 -273 -342 -324 l-97 -92 89 -94 88 -93
59 56 c32 30 185 176 341 323 l282 268 -49 56 c-27 32 -67 74 -88 94 l-38 37
-245 -231z m321 81 l29 -36 -253 -239 c-138 -132 -276 -262 -305 -289 l-54
-49 -49 51 c-27 28 -49 56 -49 62 0 5 136 138 302 295 l302 286 24 -23 c13
-12 37 -38 53 -58z"/>
<path d="M12718 2950 c-186 -176 -338 -324 -338 -328 0 -4 38 -47 84 -97 l84
-90 44 41 c235 221 634 600 636 605 2 4 -37 48 -85 98 l-88 91 -337 -320z
m433 148 c7 -13 -46 -69 -293 -302 -166 -157 -305 -286 -309 -286 -4 0 -29 25
-55 56 l-48 55 50 49 c27 27 164 157 304 289 l255 240 43 -42 c24 -23 48 -50
53 -59z"/>
<path d="M487 2758 l-418 -220 60 -112 c33 -61 65 -110 71 -108 20 5 794 414
808 427 11 10 3 32 -45 123 l-59 111 -417 -221z m433 82 c18 -38 32 -71 29
-73 -5 -4 -718 -381 -730 -385 -10 -4 -83 127 -75 135 8 8 728 391 737 392 3
1 20 -30 39 -69z"/>
<path d="M1922 2882 c-78 -91 -81 -97 -65 -113 68 -63 689 -582 698 -583 11
-1 165 171 165 184 0 6 -681 588 -705 602 -7 4 -43 -30 -93 -90z m425 -256
c161 -136 295 -251 298 -257 7 -11 -84 -121 -96 -117 -5 2 -150 124 -324 271
l-316 268 52 60 c51 60 52 60 73 41 11 -10 153 -130 313 -266z"/>
<path d="M9487 2758 l-417 -220 60 -112 c35 -65 65 -110 72 -108 11 3 805 419
816 428 7 5 -9 40 -61 136 l-52 96 -418 -220z m435 83 l38 -69 -371 -196
c-204 -108 -373 -196 -375 -196 -5 0 -69 122 -69 133 0 6 720 394 735 396 3 0
22 -30 42 -68z"/>
<path d="M10925 2885 c-44 -53 -78 -99 -77 -103 8 -15 706 -602 713 -600 12 4
159 178 159 188 0 7 -694 601 -709 607 -3 2 -42 -40 -86 -92z m434 -265 c159
-135 290 -249 290 -255 1 -5 -21 -35 -48 -65 l-48 -54 -321 273 -322 272 51
59 52 59 28 -22 c15 -12 158 -132 318 -267z"/>
<path d="M6133 2708 c-115 -123 -260 -277 -321 -343 l-112 -119 48 -49 c26
-27 68 -66 94 -88 l47 -40 320 343 320 343 -27 28 c-15 16 -57 56 -94 88 l-66
60 -209 -223z m315 59 c9 -11 -39 -69 -239 -283 -138 -148 -268 -286 -288
-307 l-38 -39 -58 54 -57 53 287 307 287 308 48 -40 c26 -22 52 -46 58 -53z"/>
<path d="M15020 2588 l-321 -343 93 -88 c51 -48 95 -86 98 -85 4 2 149 156
323 342 l317 340 -47 49 c-27 27 -69 66 -95 88 l-46 40 -322 -343z m408 199
l33 -34 -287 -307 -286 -306 -48 40 c-26 21 -52 45 -58 53 -9 10 51 80 275
320 l286 306 26 -18 c14 -11 41 -35 59 -54z"/>
<path d="M7653 2352 l-93 -87 316 -348 315 -348 42 37 c23 21 66 59 96 86 l54
49 -20 22 c-11 12 -152 168 -313 347 -161 179 -296 326 -299 327 -3 1 -48 -37
-98 -85z m407 -327 l253 -280 -59 -53 c-55 -50 -59 -52 -75 -35 -10 10 -137
151 -284 313 l-266 295 58 52 58 52 31 -32 c18 -18 146 -158 284 -312z"/>
<path d="M16653 2352 l-92 -87 313 -345 c172 -190 315 -345 318 -345 8 0 188
158 188 165 0 8 -619 694 -628 697 -4 1 -48 -37 -99 -85z m378 -294 l282 -312
-58 -54 c-32 -29 -61 -50 -66 -45 -4 4 -132 145 -283 313 l-276 305 58 52 c31
29 58 52 59 53 1 0 129 -140 284 -312z"/>
<path d="M13955 1965 c-36 -52 -68 -100 -71 -108 -4 -10 106 -92 367 -273 205
-143 378 -262 385 -267 8 -5 35 25 84 94 39 56 70 105 68 109 -2 5 -175 128
-385 274 l-382 265 -66 -94z m532 -290 c128 -88 232 -164 233 -168 0 -8 -80
-127 -85 -127 -8 0 -681 473 -683 480 -2 5 16 36 39 69 l42 60 111 -77 c61
-42 216 -149 343 -237z"/>
<path d="M4270 2045 c0 -3 -52 -209 -116 -456 -64 -248 -114 -452 -112 -453 4
-4 243 -64 245 -62 2 2 233 898 233 906 0 4 -46 19 -102 34 -57 14 -113 29
-125 32 -13 3 -23 3 -23 -1z m133 -80 c31 -9 57 -18 57 -20 0 -6 -178 -700
-196 -762 l-14 -52 -72 20 c-40 11 -74 22 -76 23 -2 3 159 638 194 764 12 42
18 52 32 48 9 -3 43 -12 75 -21z"/>
<path d="M4946 1953 c-46 -65 -65 -101 -60 -110 12 -18 756 -533 763 -528 4 2
38 49 76 105 42 62 65 104 59 108 -6 4 -178 123 -382 265 -203 141 -374 257
-379 257 -5 0 -40 -44 -77 -97z m486 -242 c153 -106 280 -196 283 -202 6 -9
-71 -124 -83 -124 -14 0 -682 468 -682 478 0 5 19 35 41 68 l42 59 61 -43 c33
-24 186 -130 338 -236z"/>
<path d="M13157 1594 c-65 -251 -117 -457 -115 -459 7 -4 243 -63 246 -60 4 4
232 888 232 901 0 6 -46 23 -102 38 -57 14 -112 28 -123 31 -20 6 -28 -21
-138 -451z m246 372 c31 -9 57 -20 57 -23 0 -8 -198 -780 -205 -800 -3 -9 -23
-6 -77 9 -40 11 -74 21 -75 22 -2 2 149 596 198 779 8 29 14 37 27 33 9 -2 43
-12 75 -20z"/>
<path d="M1065 1778 c-242 -22 -442 -41 -443 -43 -4 -4 17 -247 22 -252 1 -2
204 15 449 37 246 22 456 40 468 40 20 0 21 4 16 58 -4 31 -9 90 -13 130 -6
70 -7 72 -33 71 -14 -1 -224 -19 -466 -41z m457 -105 l4 -62 -40 -6 c-73 -9
-730 -65 -767 -65 l-37 0 -4 73 c-3 39 -3 74 -2 76 2 2 189 20 416 40 367 33
414 35 419 21 4 -8 8 -43 11 -77z"/>
<path d="M10065 1778 c-242 -22 -441 -41 -443 -43 -3 -3 18 -248 22 -253 2 -1
204 16 451 38 246 22 457 40 468 40 18 0 19 5 13 78 -16 182 -16 182 -45 181
-14 -1 -224 -19 -466 -41z m457 -95 c3 -40 3 -73 -1 -74 -3 0 -192 -17 -418
-37 l-413 -37 -4 30 c-6 35 -14 125 -12 126 13 5 833 74 837 70 4 -3 9 -39 11
-78z"/>
<path d="M6755 1315 c-4 -256 -5 -468 -3 -470 2 -3 61 -7 129 -11 l126 -7 6
469 c3 258 3 472 1 476 -3 5 -61 8 -128 8 l-124 0 -7 -465z m210 308 c0 -57
-1 -248 -3 -424 l-2 -322 -75 5 c-42 3 -78 8 -81 11 -4 3 -3 193 1 422 l8 416
76 -3 76 -3 0 -102z"/>
<path d="M15757 1313 c-3 -257 -5 -468 -4 -469 1 -2 60 -6 130 -10 l127 -7 0
139 c0 76 3 291 7 477 l6 337 -130 0 -130 0 -6 -467z m210 115 c-4 -166 -7
-357 -7 -426 l0 -125 -75 5 c-42 3 -77 7 -79 9 -3 2 -2 192 1 422 l6 417 80 0
80 0 -6 -302z"/>
<path d="M3101 1421 c-57 -36 -104 -71 -103 -76 1 -6 112 -185 249 -398 180
-283 251 -386 262 -382 22 9 191 117 197 127 4 6 -470 763 -495 790 -3 3 -53
-24 -110 -61z m323 -364 c119 -186 216 -342 216 -346 0 -5 -27 -25 -61 -46
-51 -31 -63 -35 -74 -24 -20 21 -446 691 -442 695 2 2 30 21 63 43 44 29 62
36 71 27 6 -6 108 -163 227 -349z"/>
<path d="M12101 1421 c-57 -37 -103 -71 -102 -76 2 -16 495 -785 503 -785 20
0 209 132 205 143 -6 15 -486 769 -496 778 -3 4 -53 -24 -110 -60z m318 -353
c121 -191 221 -351 221 -356 0 -5 -27 -26 -61 -47 -51 -31 -63 -35 -74 -24 -7
8 -110 167 -229 354 l-216 339 67 43 c36 24 67 42 68 41 1 -2 102 -159 224
-350z"/>
<path d="M1793 874 c-164 -217 -299 -399 -301 -403 -3 -9 182 -161 195 -160 8
0 594 777 600 795 3 9 -139 130 -183 156 -8 6 -107 -117 -311 -388z m397 258
c32 -27 33 -31 20 -51 -47 -68 -526 -700 -532 -700 -11 -1 -119 91 -116 99 2
5 124 169 271 364 l269 356 26 -19 c15 -11 43 -33 62 -49z"/>
<path d="M10790 869 c-166 -221 -298 -405 -294 -409 24 -23 187 -150 193 -150
7 1 589 773 597 793 4 11 -128 127 -181 159 -8 5 -116 -130 -315 -393z m383
276 c29 -23 46 -44 43 -52 -4 -10 -498 -671 -532 -712 -4 -4 -112 77 -120 90
-8 14 538 730 550 721 6 -5 33 -26 59 -47z"/>
<path d="M8845 1125 c-55 -36 -99 -68 -98 -72 5 -24 495 -778 506 -778 22 0
207 120 204 132 -4 22 -492 782 -502 782 -5 1 -55 -28 -110 -64z m321 -347
c121 -188 219 -348 219 -356 0 -7 -27 -30 -61 -52 l-60 -38 -228 356 c-167
261 -224 358 -214 363 7 4 33 21 58 38 25 16 50 30 56 30 7 1 110 -153 230
-341z"/>
<path d="M17848 1127 c-53 -34 -97 -66 -97 -72 0 -5 79 -135 177 -288 177
-278 177 -279 180 -237 3 39 -7 58 -147 278 l-151 236 61 38 c34 22 67 37 73
35 6 -3 45 -58 86 -123 l75 -119 3 42 c3 37 -5 55 -70 157 -40 64 -77 116 -83
116 -5 0 -53 -28 -107 -63z"/>
<path d="M7570 814 c-190 -195 -346 -358 -348 -362 -1 -4 37 -47 86 -95 l88
-87 195 197 c107 109 266 271 354 361 l159 162 -89 90 c-49 50 -92 90 -95 90
-3 0 -160 -160 -350 -356z m410 231 l53 -54 -290 -298 c-160 -164 -304 -310
-320 -325 l-29 -28 -54 55 -53 54 118 123 c215 224 510 526 515 527 3 1 30
-24 60 -54z"/>
<path d="M16825 1075 c-50 -52 -207 -215 -349 -361 l-260 -265 91 -91 91 -91
228 234 c126 129 285 291 353 362 l125 127 -89 90 c-49 50 -92 90 -95 90 -3 0
-46 -43 -95 -95z m-22 -322 c-128 -131 -271 -277 -320 -326 l-89 -87 -54 55
-55 55 125 128 c69 70 213 216 320 324 l195 198 54 -54 55 -55 -231 -238z"/>
<path d="M0 1080 c0 -40 18 -72 190 -342 105 -164 193 -304 196 -311 3 -9 -18
-29 -60 -55 l-64 -40 -129 201 -128 202 -3 -42 c-3 -39 6 -57 119 -233 66
-104 125 -190 130 -190 10 0 209 128 209 134 0 5 -447 706 -455 715 -3 2 -5
-15 -5 -39z"/>
<path d="M5695 621 c-258 -90 -471 -165 -473 -167 -6 -4 72 -244 78 -244 9 0
942 328 946 333 4 3 -73 238 -78 242 -2 1 -214 -73 -473 -164z m466 29 c14
-43 19 -73 13 -78 -8 -8 -801 -288 -833 -294 -15 -3 -65 132 -53 143 7 7 830
298 844 299 4 0 17 -32 29 -70z"/>
<path d="M14685 618 c-253 -89 -462 -163 -464 -164 -4 -4 69 -227 78 -237 6
-6 934 313 946 325 2 2 -13 56 -33 121 -26 83 -41 117 -52 116 -8 0 -222 -73
-475 -161z m481 25 l22 -71 -307 -107 c-168 -59 -361 -127 -428 -151 l-122
-43 -25 75 c-18 54 -22 76 -13 80 132 50 835 292 842 290 5 -1 19 -34 31 -73z"/>
</g>
</svg>
