<?xml version="1.0" standalone="no"?>
<!DOCTYPE svg PUBLIC "-//W3C//DTD SVG 20010904//EN"
 "http://www.w3.org/TR/2001/REC-SVG-20010904/DTD/svg10.dtd">
<svg version="1.0" xmlns="http://www.w3.org/2000/svg"
 width="1125.000000pt" height="900.000000pt" viewBox="0 0 1125.000000 900.000000"
 preserveAspectRatio="xMidYMid meet">
<metadata>
Created by potrace 1.13, written by Peter Selinger 2001-2015
</metadata>
<g transform="translate(0.000000,900.000000) scale(0.100000,-0.100000)"
fill="#000000" stroke="none">
<path d="M0 4500 l0 -4500 5625 0 5625 0 0 4500 0 4500 -5625 0 -5625 0 0
-4500z m247 4410 c63 -55 153 -103 223 -119 58 -13 192 -13 250 0 71 16 161
64 223 118 l58 51 3210 0 c1765 0 3209 -4 3209 -8 0 -4 -12 -24 -26 -43 -71
-95 -104 -195 -104 -320 0 -151 51 -269 160 -373 166 -156 385 -190 590 -89
291 142 380 522 183 781 -18 23 -33 44 -33 47 0 3 678 4 1508 3 l1507 -3 3
-788 2 -788 -22 7 c-57 18 -99 24 -179 24 -139 0 -243 -40 -344 -132 -177
-161 -223 -398 -118 -617 82 -172 274 -292 466 -291 48 1 72 4 165 25 l32 8 0
-1225 0 -1225 -31 -39 c-48 -59 -97 -171 -109 -249 -22 -140 16 -286 106 -404
l34 -44 0 -1249 c0 -1117 -2 -1259 -17 -1349 -15 -94 -15 -107 1 -217 12 -77
17 -158 14 -237 l-3 -120 -1088 -3 -1088 -2 -68 29 c-87 39 -140 50 -226 51
-81 0 -156 -17 -235 -54 l-55 -26 -3867 0 c-2128 0 -3868 3 -3868 8 0 4 19 18
41 32 58 35 135 122 170 191 78 155 78 320 2 479 -32 67 -148 185 -219 222
-192 103 -448 67 -602 -83 -28 -27 -53 -49 -56 -49 -3 0 -6 520 -6 1155 0 635
3 1155 6 1155 3 0 24 -11 47 -24 67 -39 153 -60 247 -60 147 0 269 51 370 154
289 293 139 790 -265 875 -87 18 -122 18 -208 0 -56 -12 -110 -32 -190 -73 -4
-2 -7 541 -7 1207 l0 1211 27 22 c73 59 136 135 168 203 102 211 55 452 -120
613 l-75 69 0 800 c0 440 3 803 7 806 3 4 37 7 74 7 67 0 68 -1 126 -50z m643
41 c0 -16 -99 -73 -161 -92 -74 -23 -174 -24 -254 -4 -60 16 -166 73 -173 94
-3 8 81 11 292 11 168 0 296 -4 296 -9z m7241 -38 c100 -93 154 -257 130 -392
-36 -200 -187 -350 -385 -383 -174 -29 -359 56 -457 210 -81 127 -91 299 -27
434 38 78 98 154 132 168 12 5 142 9 289 9 l268 1 50 -47z m3035 -1589 l39
-19 0 -105 0 -105 -197 -3 -198 -2 0 -200 0 -200 198 -2 197 -3 3 -103 3 -103
-37 -15 c-158 -66 -358 -22 -484 105 -245 249 -146 652 188 762 76 25 230 22
288 -7z m-11077 -106 c177 -173 183 -451 13 -640 -24 -26 -48 -48 -53 -48 -5
0 -9 151 -9 360 0 198 4 360 8 360 5 0 23 -14 41 -32z m11061 -328 l0 -141
-137 3 -138 3 -3 138 -3 137 141 0 140 0 0 -140z m-10662 -2871 c149 -51 256
-168 297 -326 60 -229 -78 -473 -306 -544 -140 -44 -339 -7 -423 77 -23 23
-24 694 -1 717 90 91 290 126 433 76z m10722 -434 c0 -135 -4 -245 -9 -245 -4
0 -21 28 -37 63 -27 57 -29 71 -29 182 0 111 2 125 29 183 16 34 33 62 37 62
5 0 9 -110 9 -245z m-10635 -2630 c223 -58 376 -289 338 -510 -34 -199 -188
-354 -386 -388 -169 -29 -355 56 -456 207 -25 39 -26 43 -29 233 -3 183 -2
196 19 240 28 58 110 140 175 175 104 56 227 72 339 43z"/>
<path d="M3417 8404 c-204 -49 -354 -207 -395 -416 -61 -313 189 -612 513
-612 252 0 459 174 511 428 73 357 -272 687 -629 600z m266 -75 c119 -40 205
-116 264 -237 38 -75 38 -77 38 -196 0 -115 -2 -124 -32 -189 -36 -76 -116
-166 -181 -204 -101 -59 -246 -79 -358 -49 -151 40 -283 173 -324 325 -19 71
-15 188 10 260 83 248 334 372 583 290z"/>
<path d="M3332 7898 l3 -203 200 0 200 0 3 203 2 202 -205 0 -205 0 2 -202z
m338 2 l0 -140 -140 0 -140 0 0 133 c0 74 3 137 7 140 3 4 66 7 140 7 l133 0
0 -140z"/>
<path d="M6230 7135 c-210 -51 -356 -205 -398 -417 -61 -313 189 -612 513
-612 382 0 633 397 470 742 -103 218 -357 342 -585 287z m235 -67 c64 -16 155
-69 206 -120 28 -28 64 -80 86 -125 38 -76 38 -78 38 -197 0 -115 -1 -124 -32
-189 -38 -80 -122 -173 -191 -210 -83 -45 -155 -60 -258 -55 -117 6 -198 42
-285 125 -251 239 -154 662 176 766 85 27 167 29 260 5z"/>
<path d="M6142 6628 l3 -203 200 0 200 0 3 203 2 202 -205 0 -205 0 2 -202z
m338 2 l0 -140 -140 0 -140 0 0 133 c0 74 3 137 7 140 3 4 66 7 140 7 l133 0
0 -140z"/>
<path d="M3620 5357 c-135 -46 -237 -130 -299 -246 -45 -85 -61 -150 -61 -252
0 -151 51 -269 160 -373 73 -69 141 -107 235 -131 370 -95 718 250 630 624
-44 184 -192 339 -370 386 -88 23 -216 19 -295 -8z m275 -52 c172 -45 307
-196 337 -380 31 -184 -75 -386 -245 -470 -130 -64 -266 -69 -393 -15 -233
100 -340 385 -231 615 97 202 316 306 532 250z"/>
<path d="M3580 4860 l0 -200 200 0 200 0 0 200 0 200 -200 0 -200 0 0 -200z
m340 0 l0 -140 -140 0 -140 0 0 140 0 140 140 0 140 0 0 -140z"/>
<path d="M7751 4974 c-172 -46 -313 -186 -365 -363 -21 -71 -21 -211 0 -282
112 -382 591 -507 869 -225 207 209 205 528 -4 737 -103 102 -219 149 -366
148 -44 0 -104 -7 -134 -15z m254 -60 c222 -57 375 -293 335 -515 -35 -198
-186 -348 -384 -382 -184 -31 -384 69 -472 238 -44 83 -58 151 -51 251 17 283
295 481 572 408z"/>
<path d="M7690 4470 l0 -200 200 0 200 0 0 200 0 200 -200 0 -200 0 0 -200z
m340 0 l0 -140 -140 0 -140 0 0 140 0 140 140 0 140 0 0 -140z"/>
<path d="M5669 3646 c-169 -47 -312 -190 -363 -365 -18 -62 -21 -193 -5 -261
42 -182 203 -341 391 -385 273 -64 551 106 623 380 69 266 -95 550 -364 629
-65 19 -215 20 -282 2z m257 -60 c223 -59 371 -283 337 -507 -48 -308 -369
-481 -649 -350 -286 134 -353 513 -130 737 54 54 148 108 214 123 57 14 171
12 228 -3z"/>
<path d="M5610 3140 l0 -200 200 0 200 0 0 200 0 200 -200 0 -200 0 0 -200z
m340 0 l0 -140 -140 0 -140 0 0 140 0 140 140 0 140 0 0 -140z"/>
<path d="M2655 2638 c-86 -16 -191 -73 -259 -141 -204 -206 -209 -516 -10
-727 128 -135 316 -192 499 -150 175 40 333 195 381 374 18 68 18 198 -1 271
-68 259 -338 425 -610 373z m179 -58 c123 -20 262 -114 323 -218 77 -131 84
-300 17 -437 -139 -283 -517 -343 -739 -118 -64 65 -110 157 -126 251 -38 233
121 466 354 517 77 17 97 17 171 5z"/>
<path d="M2562 2128 l3 -203 198 -3 197 -2 0 205 0 205 -200 0 -200 0 2 -202z
m338 2 l0 -140 -140 0 -140 0 0 140 0 140 140 0 140 0 0 -140z"/>
<path d="M9190 2467 c-169 -58 -280 -166 -338 -331 -36 -101 -36 -232 0 -333
76 -213 272 -353 495 -353 223 0 421 143 494 357 33 95 33 231 1 325 -76 220
-268 358 -499 358 -64 0 -105 -6 -153 -23z m267 -51 c85 -23 144 -57 211 -123
266 -262 120 -712 -252 -776 -168 -29 -354 53 -449 196 -127 191 -95 451 72
598 115 102 276 143 418 105z"/>
<path d="M9140 1970 l0 -200 205 0 205 0 0 200 0 200 -205 0 -205 0 0 -200z
m348 3 l-3 -138 -137 -3 -138 -3 0 141 0 140 140 0 141 0 -3 -137z"/>
<path d="M6210 1124 c-102 -22 -186 -68 -260 -143 -103 -105 -150 -219 -150
-366 0 -181 82 -334 231 -434 303 -202 721 -30 798 327 59 279 -124 558 -404
617 -85 18 -130 18 -215 -1z m280 -83 c201 -76 326 -313 276 -524 -51 -215
-227 -357 -445 -357 -413 0 -616 486 -325 778 131 131 317 170 494 103z"/>
<path d="M6120 615 l0 -205 200 0 200 0 0 205 0 205 -200 0 -200 0 0 -205z
m338 3 l3 -138 -141 0 -140 0 0 133 c0 74 3 137 7 141 4 3 66 5 137 4 l131 -3
3 -137z"/>
<path d="M7610 8590 l0 -200 200 0 200 0 0 200 0 200 -200 0 -200 0 0 -200z
m340 0 l0 -140 -140 0 -140 0 0 140 0 140 140 0 140 0 0 -140z"/>
<path d="M140 3585 l0 -205 200 0 200 0 0 205 0 205 -200 0 -200 0 0 -205z
m338 3 l3 -138 -141 0 -140 0 0 133 c0 74 3 137 7 141 4 3 66 5 137 4 l131 -3
3 -137z"/>
<path d="M260 510 l0 -200 200 0 200 0 0 200 0 200 -200 0 -200 0 0 -200z
m340 0 l0 -140 -140 0 -140 0 0 140 0 140 140 0 140 0 0 -140z"/>
</g>
</svg>
