<?xml version="1.0" standalone="no"?>
<!DOCTYPE svg PUBLIC "-//W3C//DTD SVG 20010904//EN"
 "http://www.w3.org/TR/2001/REC-SVG-20010904/DTD/svg10.dtd">
<svg version="1.0" xmlns="http://www.w3.org/2000/svg"
 width="1811.000000pt" height="1217.000000pt" viewBox="0 0 1811.000000 1217.000000"
 preserveAspectRatio="xMidYMid meet">
<metadata>
Created by potrace 1.13, written by Peter Selinger 2001-2015
</metadata>
<g transform="translate(0.000000,1217.000000) scale(0.100000,-0.100000)"
fill="#000000" stroke="none">
<path d="M2240 11250 l0 -109 -102 -3 c-98 -3 -103 -4 -106 -25 -3 -22 0 -22
100 -25 l103 -3 3 -112 c3 -113 3 -113 27 -113 l25 0 0 115 0 115 105 0 105 0
0 25 0 25 -105 0 -105 0 0 110 0 110 -25 0 -25 0 0 -110z"/>
<path d="M8960 11250 l0 -109 -102 -3 c-98 -3 -103 -4 -106 -25 -3 -22 0 -22
100 -25 l103 -3 3 -112 c3 -113 3 -113 27 -113 l25 0 0 115 0 115 105 0 105 0
0 25 0 25 -105 0 -105 0 0 110 0 110 -25 0 -25 0 0 -110z"/>
<path d="M15670 11250 l0 -109 -102 -3 c-98 -3 -103 -4 -106 -25 -3 -22 0 -22
100 -25 l103 -3 3 -112 c3 -113 3 -113 27 -113 l25 0 0 115 0 115 105 0 105 0
0 25 0 25 -105 0 -105 0 0 110 0 110 -25 0 -25 0 0 -110z"/>
<path d="M9 11225 c-2 -69 -2 -181 0 -250 3 -124 3 -125 27 -125 24 0 24 1 24
110 l0 110 105 0 105 0 0 25 0 25 -105 0 -105 0 0 115 c0 115 0 115 -24 115
-24 0 -24 -1 -27 -125z"/>
<path d="M4490 11235 l0 -115 -100 0 -100 0 0 -25 0 -25 100 0 100 0 0 -110 0
-110 25 0 25 0 0 110 0 109 108 3 c102 3 107 4 110 25 3 22 0 22 -105 25
l-108 3 -3 113 c-3 112 -3 112 -27 112 l-25 0 0 -115z"/>
<path d="M6728 11238 l-3 -113 -103 -3 c-100 -3 -103 -3 -100 -25 3 -21 8 -22
106 -25 l102 -3 0 -109 0 -110 25 0 25 0 0 110 0 110 105 0 105 0 0 25 0 25
-105 0 -105 0 0 115 0 115 -25 0 c-24 0 -24 0 -27 -112z"/>
<path d="M11200 11235 l0 -115 -100 0 -100 0 0 -25 0 -25 100 0 100 0 0 -110
0 -110 25 0 25 0 0 110 0 109 108 3 c102 3 107 4 110 25 3 22 0 22 -105 25
l-108 3 -3 113 c-3 112 -3 112 -27 112 l-25 0 0 -115z"/>
<path d="M13438 11238 l-3 -113 -103 -3 c-100 -3 -103 -3 -100 -25 3 -21 8
-22 106 -25 l102 -3 0 -109 0 -110 25 0 25 0 0 110 0 110 105 0 105 0 0 25 0
25 -105 0 -105 0 0 115 0 115 -25 0 c-24 0 -24 0 -27 -112z"/>
<path d="M17920 11235 l0 -115 -100 0 -100 0 0 -25 0 -25 100 0 100 0 0 -110
0 -110 25 0 25 0 0 110 0 110 70 0 c68 0 70 1 70 25 0 24 -2 25 -70 25 l-70 0
0 115 0 115 -25 0 -25 0 0 -115z"/>
<path d="M1120 10130 l0 -110 -100 0 -100 0 0 -25 c0 -25 0 -25 100 -25 l99 0
3 -112 c3 -109 4 -113 26 -116 22 -3 22 -2 22 112 l0 116 110 0 110 0 0 25 0
25 -110 0 -110 0 0 110 0 110 -25 0 -25 0 0 -110z"/>
<path d="M3350 10130 l0 -110 -100 0 -100 0 0 -25 c0 -25 0 -25 100 -25 l99 0
3 -112 c3 -109 4 -113 26 -116 22 -3 22 -2 22 112 l0 116 110 0 110 0 0 25 0
25 -110 0 -110 0 0 110 0 110 -25 0 -25 0 0 -110z"/>
<path d="M7840 10130 l0 -110 -100 0 -100 0 0 -25 0 -25 100 0 100 0 0 -115 0
-115 25 0 25 0 0 115 0 115 111 0 c109 0 110 0 107 23 -3 21 -8 22 -110 25
l-108 3 0 109 0 110 -25 0 -25 0 0 -110z"/>
<path d="M10070 10130 l0 -110 -100 0 -100 0 0 -25 c0 -25 0 -25 100 -25 l99
0 3 -112 c3 -109 4 -113 26 -116 22 -3 22 -2 22 112 l0 116 110 0 110 0 0 25
0 25 -110 0 -110 0 0 110 0 110 -25 0 -25 0 0 -110z"/>
<path d="M14550 10130 l0 -110 -100 0 -100 0 0 -25 0 -25 100 0 100 0 0 -115
0 -115 25 0 25 0 0 115 0 115 105 0 105 0 0 25 0 25 -105 0 -105 0 0 110 0
110 -25 0 -25 0 0 -110z"/>
<path d="M16780 10130 l0 -110 -100 0 -100 0 0 -25 c0 -25 0 -25 100 -25 l99
0 3 -112 c3 -109 4 -113 26 -116 22 -3 22 -2 22 112 l0 116 110 0 110 0 0 25
0 25 -110 0 -110 0 0 110 0 110 -25 0 -25 0 0 -110z"/>
<path d="M5600 10120 l0 -110 -105 0 -105 0 0 -25 0 -25 105 0 105 0 0 -116
c0 -114 0 -115 23 -112 21 3 22 7 25 116 l3 112 104 0 105 0 0 25 0 25 -105 0
-105 0 0 110 0 110 -25 0 -25 0 0 -110z"/>
<path d="M12310 10120 l0 -110 -105 0 -105 0 0 -25 0 -25 105 0 105 0 0 -116
c0 -114 0 -115 23 -112 21 3 22 7 25 116 l3 112 104 0 105 0 0 25 0 25 -105 0
-105 0 0 110 0 110 -25 0 -25 0 0 -110z"/>
<path d="M9 9005 c-2 -69 -2 -181 0 -250 3 -124 3 -125 27 -125 24 0 24 1 24
110 l0 110 105 0 105 0 0 25 0 25 -105 0 -105 0 0 115 c0 115 0 115 -24 115
-24 0 -24 -1 -27 -125z"/>
<path d="M2248 9018 l-3 -113 -103 -3 c-100 -3 -103 -3 -100 -25 3 -21 8 -22
106 -25 l102 -3 0 -109 0 -110 25 0 25 0 0 110 0 110 105 0 105 0 0 25 0 25
-105 0 -105 0 0 115 0 115 -25 0 c-24 0 -24 0 -27 -112z"/>
<path d="M4490 9015 l0 -115 -100 0 -100 0 0 -25 0 -25 100 0 100 0 0 -110 0
-110 25 0 25 0 0 110 0 109 108 3 c102 3 107 4 110 25 3 22 0 22 -105 25
l-108 3 -3 113 c-3 112 -3 112 -27 112 l-25 0 0 -115z"/>
<path d="M6727 9123 c-4 -3 -7 -55 -7 -115 l0 -108 -100 0 -100 0 0 -25 c0
-25 0 -25 100 -25 l99 0 3 -107 c3 -103 4 -108 26 -111 22 -3 22 -2 22 107 l0
111 110 0 110 0 0 25 c0 24 -1 24 -107 27 l-108 3 -3 113 c-2 100 -5 112 -21
112 -10 0 -21 -3 -24 -7z"/>
<path d="M8967 9123 c-4 -3 -7 -55 -7 -115 l0 -108 -100 0 -100 0 0 -25 0 -25
100 0 100 0 0 -110 0 -110 25 0 25 0 0 110 0 110 110 0 110 0 0 25 c0 24 -1
24 -107 27 l-108 3 -3 113 c-2 100 -5 112 -21 112 -10 0 -21 -3 -24 -7z"/>
<path d="M11200 9015 l0 -115 -100 0 -100 0 0 -25 0 -25 100 0 100 0 0 -110 0
-110 25 0 25 0 0 110 0 109 108 3 c102 3 107 4 110 25 3 22 0 22 -105 25
l-108 3 -3 113 c-3 112 -3 112 -27 112 l-25 0 0 -115z"/>
<path d="M13430 9015 l0 -115 -100 0 -100 0 0 -25 0 -25 100 0 100 0 0 -110 0
-110 25 0 25 0 0 110 0 110 110 0 110 0 0 25 c0 24 -1 24 -107 27 l-108 3 -3
113 c-3 112 -3 112 -27 112 l-25 0 0 -115z"/>
<path d="M15670 9015 l0 -115 -100 0 -100 0 0 -25 0 -25 100 0 100 0 0 -110 0
-110 25 0 25 0 0 110 0 109 108 3 c102 3 107 4 110 25 3 22 0 22 -105 25
l-108 3 -3 113 c-3 112 -3 112 -27 112 l-25 0 0 -115z"/>
<path d="M17920 9015 l0 -115 -100 0 -100 0 0 -25 0 -25 100 0 100 0 0 -110 0
-110 25 0 25 0 0 110 0 110 70 0 c68 0 70 1 70 25 0 23 -3 24 -67 27 l-68 3
-3 113 c-3 112 -3 112 -27 112 l-25 0 0 -115z"/>
<path d="M1120 7890 l0 -109 -102 -3 c-98 -3 -103 -4 -106 -25 -3 -22 0 -22
100 -25 l103 -3 3 -112 c3 -113 3 -113 27 -113 l25 0 0 115 0 115 105 0 105 0
0 25 0 25 -105 0 -105 0 0 110 0 110 -25 0 -25 0 0 -110z"/>
<path d="M3350 7890 l0 -110 -100 0 -100 0 0 -25 0 -25 100 0 100 0 0 -115 0
-115 25 0 c24 0 24 0 27 113 l3 112 108 3 c105 3 108 3 105 25 -3 21 -8 22
-110 25 l-108 3 0 109 0 110 -25 0 -25 0 0 -110z"/>
<path d="M5600 7890 l0 -109 -102 -3 c-98 -3 -103 -4 -106 -25 -3 -22 0 -22
100 -25 l103 -3 3 -112 c3 -113 3 -113 27 -113 l25 0 0 115 0 115 105 0 105 0
0 25 0 25 -105 0 -105 0 0 110 0 110 -25 0 -25 0 0 -110z"/>
<path d="M7840 7890 l0 -109 -102 -3 c-98 -3 -103 -4 -106 -25 -3 -22 0 -22
100 -25 l103 -3 3 -112 c3 -113 3 -113 27 -113 l25 0 0 115 0 115 105 0 105 0
0 25 0 25 -105 0 -105 0 0 110 0 110 -25 0 -25 0 0 -110z"/>
<path d="M10070 7890 l0 -110 -100 0 -100 0 0 -25 0 -25 100 0 100 0 0 -115 0
-115 25 0 c24 0 24 0 27 113 l3 112 108 3 c105 3 108 3 105 25 -3 21 -8 22
-110 25 l-108 3 0 109 0 110 -25 0 -25 0 0 -110z"/>
<path d="M12310 7890 l0 -109 -102 -3 c-98 -3 -103 -4 -106 -25 -3 -22 0 -22
100 -25 l103 -3 3 -112 c3 -113 3 -113 27 -113 l25 0 0 115 0 115 105 0 105 0
0 25 0 25 -105 0 -105 0 0 110 0 110 -25 0 -25 0 0 -110z"/>
<path d="M14550 7890 l0 -109 -102 -3 c-98 -3 -103 -4 -106 -25 -3 -22 0 -22
100 -25 l103 -3 3 -112 c3 -113 3 -113 27 -113 l25 0 0 115 0 115 105 0 105 0
0 25 0 25 -105 0 -105 0 0 110 0 110 -25 0 -25 0 0 -110z"/>
<path d="M16780 7890 l0 -110 -100 0 -100 0 0 -25 0 -25 100 0 100 0 0 -115 0
-115 25 0 c24 0 24 0 27 113 l3 112 108 3 c105 3 108 3 105 25 -3 21 -8 22
-110 25 l-108 3 0 109 0 110 -25 0 -25 0 0 -110z"/>
<path d="M2240 6785 l0 -115 -106 0 c-104 0 -105 0 -102 -22 3 -22 8 -23 106
-26 l102 -3 0 -109 0 -110 25 0 25 0 0 110 0 110 105 0 105 0 0 25 0 25 -105
0 -105 0 0 115 0 115 -25 0 -25 0 0 -115z"/>
<path d="M8958 6788 l-3 -113 -102 -3 c-102 -3 -103 -3 -103 -27 0 -25 0 -25
105 -25 l105 0 0 -110 0 -110 25 0 25 0 0 110 0 110 105 0 105 0 0 25 0 25
-105 0 -105 0 0 115 0 115 -25 0 c-24 0 -24 0 -27 -112z"/>
<path d="M15668 6788 l-3 -113 -102 -3 c-102 -3 -103 -3 -103 -27 0 -25 0 -25
105 -25 l105 0 0 -110 0 -110 25 0 25 0 0 110 0 110 105 0 105 0 0 25 0 25
-105 0 -104 0 -3 113 c-3 107 -4 112 -25 115 -22 3 -22 1 -25 -110z"/>
<path d="M9 6763 c-2 -70 -2 -183 -1 -250 4 -122 4 -123 28 -123 24 0 24 0 24
110 l0 110 105 0 105 0 0 25 0 25 -105 0 -104 0 -3 113 c-3 106 -4 112 -24
115 -21 3 -22 -1 -25 -125z"/>
<path d="M4497 6883 c-4 -3 -7 -55 -7 -115 l0 -108 -100 0 -100 0 0 -25 0 -25
100 0 100 0 0 -110 0 -110 25 0 25 0 0 110 0 110 110 0 110 0 0 25 0 25 -110
0 -110 0 0 115 c0 105 -2 115 -18 115 -10 0 -22 -3 -25 -7z"/>
<path d="M6730 6776 l0 -116 -105 0 -105 0 0 -25 0 -25 105 0 105 0 0 -110 0
-110 25 0 25 0 0 110 0 110 105 0 105 0 0 25 0 25 -105 0 -104 0 -3 113 c-3
108 -4 112 -25 115 -23 3 -23 2 -23 -112z"/>
<path d="M11207 6883 c-4 -3 -7 -55 -7 -115 l0 -108 -100 0 -100 0 0 -25 0
-25 100 0 100 0 0 -110 0 -110 25 0 25 0 0 110 0 110 110 0 110 0 0 25 0 25
-110 0 -110 0 0 115 c0 105 -2 115 -18 115 -10 0 -22 -3 -25 -7z"/>
<path d="M13440 6776 l0 -116 -105 0 -105 0 0 -25 0 -25 105 0 105 0 0 -110 0
-110 25 0 25 0 0 110 0 110 105 0 105 0 0 25 0 25 -105 0 -104 0 -3 113 c-3
108 -4 112 -25 115 -23 3 -23 2 -23 -112z"/>
<path d="M17927 6883 c-4 -3 -7 -55 -7 -115 l0 -108 -100 0 -100 0 0 -25 0
-25 100 0 100 0 0 -110 0 -110 25 0 25 0 0 110 0 110 70 0 c68 0 70 1 70 25 0
24 -2 25 -70 25 l-70 0 0 115 c0 105 -2 115 -18 115 -10 0 -22 -3 -25 -7z"/>
<path d="M1120 5670 l0 -110 -100 0 -100 0 0 -25 0 -25 100 0 100 0 0 -115 0
-115 25 0 25 0 0 115 0 115 111 0 c109 0 110 0 107 23 -3 21 -8 22 -110 25
l-108 3 0 109 0 110 -25 0 -25 0 0 -110z"/>
<path d="M3350 5670 l0 -110 -100 0 -100 0 0 -25 0 -25 100 0 100 0 0 -115 0
-115 25 0 c24 0 24 0 27 113 l3 112 108 3 c106 3 107 3 107 27 l0 25 -110 0
-110 0 0 110 0 110 -25 0 -25 0 0 -110z"/>
<path d="M7840 5670 l0 -110 -100 0 -100 0 0 -25 0 -25 100 0 100 0 0 -115 0
-115 25 0 25 0 0 115 0 115 111 0 c109 0 110 0 107 23 -3 21 -8 22 -110 25
l-108 3 0 109 0 110 -25 0 -25 0 0 -110z"/>
<path d="M10070 5670 l0 -110 -100 0 -100 0 0 -25 0 -25 100 0 100 0 0 -115 0
-115 25 0 c24 0 24 0 27 113 l3 112 108 3 c105 3 108 3 105 25 -3 21 -8 22
-110 25 l-108 3 0 109 0 110 -25 0 -25 0 0 -110z"/>
<path d="M14550 5670 l0 -110 -100 0 -100 0 0 -25 0 -25 100 0 100 0 0 -115 0
-115 25 0 25 0 0 115 0 115 105 0 105 0 0 25 0 25 -105 0 -105 0 0 110 0 110
-25 0 -25 0 0 -110z"/>
<path d="M16780 5670 l0 -110 -100 0 -100 0 0 -25 0 -25 100 0 100 0 0 -115 0
-115 25 0 c24 0 24 0 27 113 l3 112 108 3 c105 3 108 3 105 25 -3 21 -8 22
-110 25 l-108 3 0 109 0 110 -25 0 -25 0 0 -110z"/>
<path d="M5600 5660 l0 -109 -102 -3 c-98 -3 -103 -4 -106 -25 -3 -22 0 -22
100 -25 l103 -3 3 -112 c3 -113 3 -113 27 -113 l25 0 0 115 0 115 105 0 105 0
0 25 0 25 -105 0 -105 0 0 110 0 110 -25 0 -25 0 0 -110z"/>
<path d="M12310 5660 l0 -109 -102 -3 c-98 -3 -103 -4 -106 -25 -3 -22 0 -22
100 -25 l103 -3 3 -112 c3 -113 3 -113 27 -113 l25 0 0 115 0 115 105 0 105 0
0 25 0 25 -105 0 -105 0 0 110 0 110 -25 0 -25 0 0 -110z"/>
<path d="M2240 4540 l0 -109 -102 -3 c-98 -3 -103 -4 -106 -25 -3 -22 0 -22
100 -25 l103 -3 3 -112 c3 -113 3 -113 27 -113 l25 0 0 115 0 115 105 0 105 0
0 25 0 25 -105 0 -105 0 0 110 0 110 -25 0 -25 0 0 -110z"/>
<path d="M8960 4540 l0 -109 -102 -3 c-98 -3 -103 -4 -106 -25 -3 -22 0 -22
100 -25 l103 -3 3 -112 c3 -113 3 -113 27 -113 l25 0 0 115 0 115 105 0 105 0
0 25 0 25 -105 0 -105 0 0 110 0 110 -25 0 -25 0 0 -110z"/>
<path d="M15670 4540 l0 -109 -102 -3 c-98 -3 -103 -4 -106 -25 -3 -22 0 -22
100 -25 l103 -3 3 -112 c3 -113 3 -113 27 -113 l25 0 0 115 0 115 105 0 105 0
0 25 0 25 -105 0 -105 0 0 110 0 110 -25 0 -25 0 0 -110z"/>
<path d="M9 4515 c-2 -69 -2 -181 0 -250 3 -124 3 -125 27 -125 24 0 24 1 24
110 l0 110 105 0 105 0 0 25 0 25 -105 0 -105 0 0 115 c0 115 0 115 -24 115
-24 0 -24 -1 -27 -125z"/>
<path d="M4490 4525 l0 -115 -100 0 -100 0 0 -25 0 -25 100 0 100 0 0 -110 0
-110 25 0 25 0 0 110 0 109 108 3 c102 3 107 4 110 26 3 22 2 22 -107 22
l-111 0 0 115 0 115 -25 0 -25 0 0 -115z"/>
<path d="M6728 4528 l-3 -113 -102 -3 c-102 -3 -103 -3 -103 -27 0 -25 0 -25
105 -25 l105 0 0 -110 0 -110 25 0 25 0 0 110 0 110 105 0 105 0 0 25 0 25
-105 0 -104 0 -3 113 c-3 107 -4 112 -25 115 -22 3 -22 1 -25 -110z"/>
<path d="M11200 4525 l0 -115 -100 0 -100 0 0 -25 0 -25 100 0 100 0 0 -110 0
-110 25 0 25 0 0 110 0 109 108 3 c102 3 107 4 110 26 3 22 2 22 -107 22
l-111 0 0 115 0 115 -25 0 -25 0 0 -115z"/>
<path d="M13438 4528 l-3 -113 -102 -3 c-102 -3 -103 -3 -103 -27 0 -25 0 -25
105 -25 l105 0 0 -110 0 -110 25 0 25 0 0 110 0 110 105 0 105 0 0 25 0 25
-105 0 -104 0 -3 113 c-3 107 -4 112 -25 115 -22 3 -22 1 -25 -110z"/>
<path d="M17920 4525 l0 -115 -100 0 -100 0 0 -25 0 -25 100 0 100 0 0 -110 0
-110 25 0 25 0 0 110 0 110 70 0 c68 0 70 1 70 25 0 24 -2 25 -70 25 l-70 0 0
115 0 115 -25 0 -25 0 0 -115z"/>
<path d="M1120 3420 l0 -110 -100 0 -100 0 0 -25 0 -25 100 0 100 0 0 -115 0
-115 25 0 25 0 0 115 0 115 111 0 c109 0 110 0 107 23 -3 21 -8 22 -110 25
l-108 3 0 109 0 110 -25 0 -25 0 0 -110z"/>
<path d="M3350 3420 l0 -110 -100 0 -100 0 0 -25 c0 -25 0 -25 100 -25 l99 0
3 -112 c3 -108 4 -113 25 -116 22 -3 22 -1 25 110 l3 113 108 3 c106 3 107 3
107 27 l0 25 -110 0 -110 0 0 110 0 110 -25 0 -25 0 0 -110z"/>
<path d="M7840 3420 l0 -110 -100 0 -100 0 0 -25 0 -25 100 0 100 0 0 -115 0
-115 25 0 25 0 0 115 0 114 108 3 c99 3 107 4 107 23 0 19 -8 20 -107 23
l-108 3 0 109 0 110 -25 0 -25 0 0 -110z"/>
<path d="M10070 3420 l0 -110 -100 0 -100 0 0 -25 c0 -25 0 -25 100 -25 l99 0
3 -112 c3 -109 4 -113 26 -116 22 -3 22 -2 22 112 l0 116 110 0 110 0 0 25 0
25 -110 0 -110 0 0 110 0 110 -25 0 -25 0 0 -110z"/>
<path d="M14550 3420 l0 -110 -100 0 -100 0 0 -25 0 -25 100 0 100 0 0 -115 0
-115 25 0 25 0 0 115 0 115 105 0 105 0 0 25 0 25 -105 0 -105 0 0 110 0 110
-25 0 -25 0 0 -110z"/>
<path d="M16780 3420 l0 -110 -100 0 -100 0 0 -25 c0 -25 0 -25 100 -25 l99 0
3 -112 c3 -109 4 -113 26 -116 22 -3 22 -2 22 112 l0 116 110 0 110 0 0 25 0
25 -110 0 -110 0 0 110 0 110 -25 0 -25 0 0 -110z"/>
<path d="M5600 3410 l0 -110 -105 0 -105 0 0 -25 0 -25 105 0 105 0 0 -116 c0
-114 0 -115 23 -112 21 3 22 7 25 116 l3 112 104 0 105 0 0 25 0 25 -105 0
-105 0 0 110 0 110 -25 0 -25 0 0 -110z"/>
<path d="M12310 3410 l0 -110 -105 0 c-105 0 -105 0 -105 -25 0 -24 1 -24 103
-27 l102 -3 3 -113 c3 -111 3 -113 25 -110 21 3 22 8 25 116 l3 112 104 0 105
0 0 25 0 25 -105 0 -105 0 0 110 0 110 -25 0 -25 0 0 -110z"/>
<path d="M9 2296 c-2 -69 -2 -182 0 -251 3 -124 3 -125 27 -125 24 0 24 1 24
110 l0 110 105 0 105 0 0 25 0 25 -105 0 -104 0 -3 113 c-3 106 -4 112 -24
115 -21 3 -22 -1 -25 -122z"/>
<path d="M2248 2308 l-3 -113 -102 -3 c-102 -3 -103 -3 -103 -27 0 -25 0 -25
105 -25 l105 0 0 -110 0 -110 25 0 25 0 0 110 0 110 105 0 105 0 0 25 0 25
-105 0 -104 0 -3 113 c-3 107 -4 112 -25 115 -22 3 -22 1 -25 -110z"/>
<path d="M4490 2305 l0 -115 -100 0 -100 0 0 -25 0 -25 100 0 100 0 0 -110 0
-110 25 0 25 0 0 110 0 109 108 3 c102 3 107 4 110 25 3 22 0 22 -105 25
l-108 3 -3 113 c-3 112 -3 112 -27 112 l-25 0 0 -115z"/>
<path d="M6727 2413 c-4 -3 -7 -55 -7 -115 l0 -108 -100 0 -100 0 0 -25 c0
-25 0 -25 100 -25 l99 0 3 -107 c3 -103 4 -108 26 -111 22 -3 22 -2 22 107 l0
111 110 0 110 0 0 25 c0 24 -1 24 -107 27 l-108 3 -3 113 c-2 100 -5 112 -21
112 -10 0 -21 -3 -24 -7z"/>
<path d="M8967 2413 c-4 -3 -7 -55 -7 -115 l0 -108 -100 0 -100 0 0 -25 c0
-25 0 -25 100 -25 l99 0 3 -107 c3 -103 4 -108 26 -111 22 -3 22 -2 22 107 l0
111 110 0 110 0 0 25 c0 24 -1 24 -107 27 l-108 3 -3 113 c-2 100 -5 112 -21
112 -10 0 -21 -3 -24 -7z"/>
<path d="M11200 2305 l0 -115 -100 0 -100 0 0 -25 0 -25 100 0 100 0 0 -110 0
-110 25 0 25 0 0 110 0 109 108 3 c102 3 107 4 110 26 3 22 2 22 -107 22
l-111 0 0 115 0 115 -25 0 -25 0 0 -115z"/>
<path d="M13437 2413 c-4 -3 -7 -55 -7 -115 l0 -108 -100 0 -100 0 0 -25 0
-25 100 0 100 0 0 -110 0 -110 25 0 25 0 0 110 0 110 110 0 110 0 0 25 c0 24
-1 24 -107 27 l-108 3 -3 113 c-2 100 -5 112 -21 112 -10 0 -21 -3 -24 -7z"/>
<path d="M15677 2413 c-4 -3 -7 -55 -7 -115 l0 -108 -100 0 -100 0 0 -25 0
-25 100 0 100 0 0 -110 0 -110 25 0 25 0 0 110 0 110 110 0 110 0 0 25 c0 24
-1 24 -107 27 l-108 3 -3 113 c-2 100 -5 112 -21 112 -10 0 -21 -3 -24 -7z"/>
<path d="M17920 2305 l0 -115 -100 0 -100 0 0 -25 0 -25 100 0 100 0 0 -110 0
-110 25 0 25 0 0 110 0 110 70 0 c68 0 70 1 70 25 0 24 -2 25 -70 25 l-70 0 0
115 0 115 -25 0 -25 0 0 -115z"/>
<path d="M1118 1178 l-3 -113 -103 -3 c-100 -3 -103 -3 -100 -25 3 -21 8 -22
106 -25 l102 -3 0 -109 0 -110 25 0 25 0 0 110 0 110 105 0 c105 0 105 0 105
25 0 24 -1 24 -102 27 l-103 3 -3 113 c-3 111 -3 112 -27 112 -24 0 -24 -1
-27 -112z"/>
<path d="M3350 1175 l0 -115 -101 0 c-98 0 -100 0 -97 -22 3 -22 8 -23 101
-26 l97 -3 0 -109 0 -110 25 0 25 0 0 110 0 109 108 3 c102 3 107 4 110 25 3
22 0 22 -105 25 l-108 3 -3 113 c-3 112 -3 112 -27 112 l-25 0 0 -115z"/>
<path d="M5598 1178 l-3 -113 -103 -3 c-100 -3 -103 -3 -100 -25 3 -21 8 -22
106 -25 l102 -3 0 -109 0 -110 25 0 25 0 0 110 0 110 105 0 105 0 0 25 0 25
-105 0 -105 0 0 115 0 115 -25 0 c-24 0 -24 0 -27 -112z"/>
<path d="M7838 1178 l-3 -113 -103 -3 c-100 -3 -103 -3 -100 -25 3 -21 8 -22
106 -25 l102 -3 0 -109 0 -110 25 0 25 0 0 110 0 110 105 0 105 0 0 25 0 25
-105 0 -105 0 0 115 0 115 -25 0 c-24 0 -24 0 -27 -112z"/>
<path d="M10068 1178 l-3 -113 -97 -3 c-97 -3 -98 -3 -98 -27 0 -25 0 -25 100
-25 l100 0 0 -110 0 -110 25 0 25 0 0 110 0 109 108 3 c102 3 107 4 110 25 3
22 0 22 -105 25 l-108 3 -3 113 c-3 111 -3 112 -27 112 -24 0 -24 -1 -27 -112z"/>
<path d="M12308 1178 l-3 -113 -103 -3 c-100 -3 -103 -3 -100 -25 3 -21 8 -22
106 -25 l102 -3 0 -109 0 -110 25 0 25 0 0 110 0 109 103 3 c97 3 102 4 105
26 3 22 2 22 -102 22 l-106 0 0 115 0 115 -25 0 c-24 0 -24 0 -27 -112z"/>
<path d="M14548 1178 l-3 -113 -103 -3 c-100 -3 -103 -3 -100 -25 3 -21 8 -22
106 -25 l102 -3 0 -109 0 -110 25 0 25 0 0 110 0 109 103 3 c97 3 102 4 105
26 3 22 2 22 -102 22 l-106 0 0 115 0 115 -25 0 c-24 0 -24 0 -27 -112z"/>
<path d="M16778 1178 l-3 -113 -97 -3 c-97 -3 -98 -3 -98 -27 0 -25 0 -25 100
-25 l100 0 0 -110 0 -110 25 0 25 0 0 110 0 109 108 3 c102 3 107 4 110 25 3
22 0 22 -105 25 l-108 3 -3 113 c-3 111 -3 112 -27 112 -24 0 -24 -1 -27 -112z"/>
</g>
</svg>
