<?xml version="1.0" standalone="no"?>
<!DOCTYPE svg PUBLIC "-//W3C//DTD SVG 20010904//EN"
 "http://www.w3.org/TR/2001/REC-SVG-20010904/DTD/svg10.dtd">
<svg version="1.0" xmlns="http://www.w3.org/2000/svg"
 width="1811.000000pt" height="1217.000000pt" viewBox="0 0 1811.000000 1217.000000"
 preserveAspectRatio="xMidYMid meet">
<metadata>
Created by potrace 1.13, written by Peter Selinger 2001-2015
</metadata>
<g transform="translate(0.000000,1217.000000) scale(0.100000,-0.100000)"
fill="#000000" stroke="none">
<path d="M660 11931 l0 -110 -95 -151 c-52 -83 -95 -155 -95 -160 0 -10 29
-22 40 -15 5 3 43 62 86 131 43 69 81 127 85 130 4 2 45 -55 90 -128 45 -73
83 -135 85 -136 1 -2 12 -1 24 3 28 9 27 10 -80 182 l-90 143 0 110 0 110 -25
0 -25 0 0 -109z"/>
<path d="M1940 11930 l0 -110 -90 -143 c-107 -172 -108 -173 -80 -182 12 -4
23 -5 24 -3 2 1 40 63 85 136 45 73 86 130 90 128 4 -3 42 -61 85 -130 43 -69
81 -128 86 -131 11 -7 40 5 40 15 0 5 -43 77 -95 160 l-95 151 0 110 0 109
-25 0 -25 0 0 -110z"/>
<path d="M3220 11928 l-1 -113 -94 -150 c-70 -112 -91 -152 -83 -162 6 -7 16
-13 22 -13 6 0 49 61 95 135 45 74 86 133 91 130 5 -3 43 -62 86 -131 43 -69
81 -127 85 -130 10 -6 39 6 39 17 0 5 -43 77 -95 161 l-95 152 0 108 0 108
-25 0 -25 0 0 -112z"/>
<path d="M4480 11928 l0 -113 -94 -150 c-69 -110 -92 -153 -84 -162 6 -7 16
-13 22 -13 6 0 49 61 95 135 46 74 87 135 90 135 3 -1 42 -59 85 -131 44 -71
83 -132 87 -134 10 -7 39 5 39 16 0 5 -43 78 -95 163 l-95 153 0 107 0 106
-25 0 -25 0 0 -112z"/>
<path d="M5757 12033 c-4 -3 -7 -54 -7 -112 l0 -106 -94 -150 c-91 -146 -101
-175 -61 -175 7 0 50 61 95 135 46 74 86 135 89 135 3 0 38 -53 78 -118 94
-153 95 -154 116 -146 9 3 17 11 17 16 0 6 -43 79 -95 163 l-95 153 0 106 c0
96 -2 106 -18 106 -10 0 -22 -3 -25 -7z"/>
<path d="M7040 11940 c0 -116 4 -106 -115 -297 -81 -128 -89 -153 -49 -153 7
0 50 61 96 135 45 74 85 135 88 135 3 0 43 -61 89 -135 45 -74 88 -135 95
-135 40 0 32 25 -58 168 l-91 147 -5 115 c-5 110 -6 115 -27 118 -23 3 -23 1
-23 -98z"/>
<path d="M8330 11933 l0 -107 -95 -152 c-52 -83 -95 -156 -95 -162 0 -11 28
-24 39 -18 4 3 43 63 86 135 44 72 83 131 86 131 3 0 44 -61 90 -135 46 -74
89 -135 95 -135 6 0 16 6 22 13 8 9 -15 52 -84 162 l-94 150 0 113 0 112 -25
0 -25 0 0 -107z"/>
<path d="M9610 11932 l0 -108 -95 -152 c-52 -84 -95 -156 -95 -161 0 -11 29
-23 40 -16 5 3 43 62 85 130 42 69 81 127 85 130 4 3 46 -56 92 -130 45 -74
88 -135 93 -135 6 0 16 4 24 9 11 7 -6 42 -82 165 l-97 156 0 110 0 110 -25 0
-25 0 0 -108z"/>
<path d="M10890 11931 l0 -109 -95 -153 c-52 -84 -95 -157 -95 -160 0 -8 40
-23 44 -17 1 1 40 63 85 136 45 72 84 132 86 132 2 0 41 -60 86 -132 45 -73
84 -135 85 -136 4 -6 44 9 44 16 0 4 -43 76 -95 160 l-95 154 0 109 0 109 -25
0 -25 0 0 -109z"/>
<path d="M12150 11930 l0 -110 -90 -143 c-107 -172 -108 -173 -80 -182 12 -4
23 -5 24 -3 1 1 40 63 85 136 46 72 86 130 90 128 4 -3 43 -63 86 -133 43 -70
80 -130 81 -131 5 -7 44 9 44 18 0 5 -43 77 -95 160 l-95 151 0 110 0 109 -25
0 -25 0 0 -110z"/>
<path d="M13420 11929 l0 -111 -97 -155 c-77 -123 -93 -157 -82 -164 8 -5 19
-9 24 -9 6 0 48 61 93 135 46 74 88 133 92 130 5 -3 43 -62 85 -130 42 -69 81
-127 85 -130 11 -7 40 5 40 16 0 5 -43 77 -95 161 l-95 152 0 108 0 108 -25 0
-25 0 0 -111z"/>
<path d="M14700 11928 l0 -113 -94 -150 c-69 -110 -92 -153 -84 -162 6 -7 16
-13 22 -13 6 0 49 61 95 135 46 74 87 135 90 135 3 0 38 -53 78 -118 94 -153
95 -154 116 -146 9 3 17 11 17 16 0 6 -43 79 -95 162 l-95 152 0 107 0 107
-25 0 -25 0 0 -112z"/>
<path d="M15997 12033 c-4 -3 -7 -54 -7 -113 l0 -106 -94 -151 c-91 -147 -100
-173 -60 -173 7 0 50 61 96 135 45 74 85 135 88 135 3 0 43 -61 88 -135 46
-74 89 -135 96 -135 40 0 32 25 -50 157 -119 190 -114 178 -114 293 0 90 -2
100 -18 100 -10 0 -22 -3 -25 -7z"/>
<path d="M17280 11934 l0 -108 -95 -152 c-52 -83 -95 -156 -95 -162 0 -5 8
-13 17 -16 21 -8 22 -7 116 146 40 65 75 118 78 118 3 0 43 -61 89 -135 45
-74 88 -135 95 -135 40 0 31 28 -59 170 l-91 145 -5 115 c-5 110 -6 115 -27
118 -23 3 -23 2 -23 -104z"/>
<path d="M120 10548 c-45 -73 -85 -135 -87 -138 -3 -3 -11 4 -19 14 -12 17
-14 1 -14 -137 l0 -157 25 0 25 0 0 105 0 105 95 154 c52 84 95 158 95 163 0
9 -22 23 -35 23 -1 0 -40 -60 -85 -132z"/>
<path d="M1107 10668 c-14 -12 -6 -29 78 -163 l95 -150 0 -112 0 -113 25 0 25
0 0 103 0 104 99 159 c86 140 97 161 83 172 -9 6 -19 12 -22 12 -4 0 -45 -61
-91 -135 -46 -74 -86 -135 -90 -135 -3 0 -44 61 -90 135 -46 74 -86 135 -89
135 -4 0 -14 -6 -23 -12z"/>
<path d="M2388 10669 c-16 -9 -12 -18 34 -92 28 -45 73 -118 100 -161 l48 -79
0 -104 0 -103 25 0 25 0 0 113 1 112 94 150 c84 134 92 151 78 163 -9 6 -19
12 -23 12 -3 0 -43 -61 -89 -135 -46 -74 -87 -135 -90 -135 -4 0 -44 61 -90
135 -46 74 -87 135 -90 135 -3 0 -14 -5 -23 -11z"/>
<path d="M3648 10669 c-15 -8 -5 -29 83 -169 l99 -160 0 -105 0 -105 25 0 25
0 0 113 1 112 94 150 c85 135 93 151 78 163 -9 6 -19 12 -22 12 -3 0 -44 -61
-89 -135 -46 -74 -87 -135 -91 -135 -3 0 -44 61 -90 135 -45 74 -86 135 -89
135 -4 0 -15 -5 -24 -11z"/>
<path d="M4923 10673 c-7 -2 -13 -10 -13 -16 0 -6 43 -79 95 -163 l95 -152 0
-106 0 -106 25 0 25 0 0 110 0 110 95 152 c87 139 94 154 78 165 -9 7 -19 13
-22 13 -3 0 -43 -61 -89 -135 -46 -74 -86 -135 -90 -135 -4 0 -45 61 -90 135
-46 74 -87 135 -90 134 -4 0 -13 -3 -19 -6z"/>
<path d="M6201 10666 c-10 -12 5 -43 83 -169 l96 -154 0 -107 0 -106 25 0 25
0 0 109 0 110 95 152 c76 120 93 154 84 165 -6 8 -17 14 -23 14 -6 -1 -49 -63
-96 -140 -46 -76 -86 -137 -88 -135 -3 2 -41 63 -86 136 -45 73 -86 134 -92
136 -6 2 -16 -3 -23 -11z"/>
<path d="M7491 10666 c-9 -10 9 -46 84 -166 l95 -153 0 -109 0 -108 25 0 25 0
0 107 0 107 96 154 c84 136 94 157 81 170 -8 8 -19 12 -24 9 -5 -3 -47 -67
-93 -141 l-84 -135 -42 67 c-148 236 -140 226 -163 198z"/>
<path d="M8777 10667 c-16 -11 -9 -26 78 -165 l95 -152 0 -110 0 -110 25 0 25
0 0 106 0 106 96 154 c79 127 94 157 84 169 -7 8 -16 15 -21 15 -4 0 -45 -61
-91 -135 -46 -74 -86 -134 -90 -135 -4 0 -44 61 -90 135 -46 74 -86 134 -89
135 -3 0 -13 -6 -22 -13z"/>
<path d="M10057 10668 c-15 -12 -7 -28 78 -163 l94 -150 1 -112 0 -113 25 0
25 0 0 105 0 105 100 160 c91 147 98 161 80 170 -10 5 -21 10 -23 10 -3 0 -42
-61 -88 -135 -46 -74 -86 -135 -90 -135 -4 0 -45 61 -91 135 -45 74 -86 135
-89 135 -3 0 -13 -6 -22 -12z"/>
<path d="M11317 10668 c-14 -12 -6 -29 78 -163 l94 -150 1 -112 0 -113 25 0
25 0 1 108 0 107 99 155 c87 137 96 156 82 168 -9 6 -19 12 -22 12 -4 0 -45
-61 -91 -135 -46 -74 -86 -135 -90 -135 -3 0 -44 61 -90 135 -46 74 -86 135
-89 135 -4 0 -14 -6 -23 -12z"/>
<path d="M12588 10668 c-14 -11 -4 -32 83 -172 l99 -160 0 -104 c0 -102 0
-103 23 -100 21 3 22 8 27 118 l5 115 92 145 c82 130 90 146 76 158 -9 6 -19
12 -23 12 -3 0 -43 -61 -89 -135 -46 -74 -87 -135 -91 -135 -4 0 -44 61 -90
135 -45 74 -86 135 -89 135 -4 0 -14 -6 -23 -12z"/>
<path d="M13873 10673 c-7 -2 -13 -9 -13 -15 0 -6 43 -80 95 -164 l95 -154 0
-105 0 -105 25 0 25 0 0 110 0 111 95 152 c85 136 93 153 78 165 -9 6 -19 12
-22 12 -3 0 -44 -61 -89 -135 -46 -74 -87 -135 -90 -135 -4 0 -45 61 -90 135
-46 74 -87 135 -90 134 -4 0 -13 -3 -19 -6z"/>
<path d="M15161 10666 c-11 -13 3 -41 83 -169 l96 -153 0 -107 0 -107 25 0 25
0 0 109 0 109 95 152 c74 119 92 156 84 167 -6 7 -17 13 -23 13 -6 0 -49 -63
-96 -140 -46 -76 -86 -137 -88 -135 -3 2 -41 64 -86 136 -46 73 -87 134 -93
136 -5 2 -16 -3 -22 -11z"/>
<path d="M16441 10666 c-10 -11 7 -45 83 -167 l96 -153 0 -108 0 -108 25 0 25
0 0 108 0 108 96 153 c85 136 94 155 81 169 -8 8 -19 12 -24 9 -5 -3 -47 -67
-93 -141 l-84 -136 -51 80 c-27 44 -67 107 -87 140 -39 63 -48 69 -67 46z"/>
<path d="M17727 10667 c-16 -11 -9 -26 78 -166 l95 -153 0 -109 0 -109 25 0
25 0 0 107 0 106 81 130 c71 115 80 133 77 170 l-3 42 -85 -137 c-47 -75 -89
-136 -94 -134 -6 1 -46 61 -90 134 -45 72 -84 132 -87 132 -3 0 -13 -6 -22
-13z"/>
<path d="M660 9373 l0 -107 -96 -154 c-87 -138 -95 -155 -81 -169 8 -8 19 -13
24 -10 5 3 46 67 92 141 74 120 85 134 96 119 7 -10 45 -71 84 -135 40 -65 76
-120 80 -123 5 -2 16 1 25 8 16 12 9 27 -78 167 l-96 155 0 107 0 108 -25 0
-25 0 0 -107z"/>
<path d="M1940 9372 l0 -108 -96 -154 c-88 -141 -95 -155 -79 -166 10 -8 21
-11 26 -9 4 3 40 58 80 123 39 64 77 125 84 135 11 15 22 1 96 -119 46 -74 87
-138 92 -141 5 -3 16 2 24 10 14 14 6 31 -81 169 l-96 154 0 107 0 107 -25 0
-25 0 0 -108z"/>
<path d="M3220 9371 l0 -109 -95 -153 c-87 -140 -94 -155 -78 -166 9 -7 19
-13 22 -13 5 1 50 71 157 248 l21 34 87 -141 c49 -78 91 -141 96 -141 4 0 13
7 20 15 10 12 -4 41 -84 169 l-96 154 0 106 0 106 -25 0 -25 0 0 -109z"/>
<path d="M4480 9370 l0 -110 -95 -152 c-87 -139 -94 -154 -78 -165 9 -7 19
-13 22 -13 3 1 43 61 89 135 46 74 86 135 90 135 4 0 45 -61 90 -135 46 -74
87 -135 92 -135 4 0 13 7 20 15 10 12 -5 42 -84 170 l-96 155 0 105 0 105 -25
0 -25 0 0 -110z"/>
<path d="M5750 9370 l0 -111 -95 -152 c-85 -136 -93 -153 -78 -164 9 -7 19
-13 22 -13 3 0 44 61 89 135 46 74 87 135 91 135 3 0 44 -61 90 -135 46 -74
87 -135 91 -135 3 0 13 6 22 13 14 11 5 30 -82 167 l-99 155 0 108 -1 107 -25
0 -25 0 0 -110z"/>
<path d="M7040 9377 l0 -104 -99 -159 c-89 -142 -98 -160 -83 -171 8 -7 18
-13 22 -13 3 0 43 61 89 135 46 74 87 135 91 135 4 0 45 -61 91 -135 46 -74
86 -135 89 -135 4 0 14 6 23 13 14 11 6 28 -78 162 l-94 150 -1 113 0 112 -25
0 -25 0 0 -103z"/>
<path d="M8330 9375 l0 -104 -96 -156 c-80 -129 -94 -158 -84 -170 7 -8 16
-15 20 -15 5 0 46 61 91 135 46 74 87 135 91 135 4 0 44 -61 90 -135 46 -74
86 -135 89 -135 3 0 13 6 22 13 16 11 9 26 -78 165 l-95 152 0 110 0 110 -25
0 -25 0 0 -105z"/>
<path d="M9610 9374 l0 -106 -96 -155 c-78 -126 -94 -157 -84 -168 7 -8 16
-15 21 -15 4 0 47 63 95 140 75 121 89 137 99 122 6 -9 44 -70 84 -135 41 -64
77 -119 81 -122 4 -2 15 1 24 8 16 12 9 26 -78 166 l-96 152 0 110 0 109 -25
0 -25 0 0 -106z"/>
<path d="M10890 9372 l0 -108 -96 -154 c-90 -143 -95 -155 -78 -167 23 -17 23
-17 109 122 37 61 73 118 79 127 10 14 24 -3 96 -118 46 -75 88 -138 93 -141
5 -3 16 1 24 9 13 14 4 33 -81 169 l-96 153 0 108 0 108 -25 0 -25 0 0 -108z"/>
<path d="M12150 9372 l0 -108 -96 -154 c-88 -141 -95 -155 -79 -166 10 -8 21
-11 26 -9 4 3 41 60 83 128 41 67 79 128 84 135 6 9 34 -28 93 -123 46 -75 87
-139 92 -142 5 -3 16 1 24 10 13 13 4 32 -81 169 l-96 155 0 107 0 106 -25 0
-25 0 0 -108z"/>
<path d="M13420 9371 l0 -110 -96 -152 c-88 -141 -94 -154 -78 -166 10 -7 20
-13 23 -13 3 0 25 33 49 73 24 40 62 103 86 140 l43 68 87 -140 c48 -78 91
-141 95 -141 5 0 14 7 21 15 10 12 -4 41 -84 169 l-96 154 0 106 0 106 -25 0
-25 0 0 -109z"/>
<path d="M14700 9370 l0 -110 -95 -152 c-87 -139 -94 -154 -78 -165 9 -7 19
-13 22 -13 3 0 43 61 89 135 46 74 86 135 90 135 4 0 45 -61 91 -135 46 -74
87 -135 91 -135 4 0 13 6 19 14 15 18 17 13 -94 190 l-85 136 0 105 0 105 -25
0 -25 0 0 -110z"/>
<path d="M15990 9368 l0 -113 -95 -150 c-84 -134 -92 -151 -78 -162 9 -7 19
-13 23 -13 3 0 43 61 89 135 46 74 87 135 91 135 4 0 45 -61 91 -135 46 -74
86 -135 89 -135 4 0 14 6 22 13 15 11 6 29 -83 171 l-99 159 0 104 0 103 -25
0 -25 0 0 -112z"/>
<path d="M17279 9373 l0 -108 -98 -155 c-86 -137 -96 -156 -82 -167 9 -7 19
-13 22 -13 3 0 44 61 90 135 46 74 87 135 90 135 4 0 45 -61 91 -135 45 -74
86 -135 89 -135 3 0 13 6 22 13 15 11 7 28 -78 164 l-95 152 0 111 0 110 -25
0 -25 0 -1 -107z"/>
<path d="M150 8022 c-129 -206 -120 -196 -135 -175 -13 16 -14 -2 -15 -134 l0
-153 25 0 25 0 0 103 0 104 95 152 c52 84 95 157 95 162 0 4 -8 13 -18 18 -15
8 -26 -3 -72 -77z"/>
<path d="M1108 8096 c-16 -12 -9 -26 77 -164 l95 -152 0 -110 0 -110 25 0 25
0 0 103 0 102 100 160 c96 156 98 160 77 172 -20 10 -25 6 -64 -55 -23 -37
-62 -100 -88 -141 l-46 -74 -87 141 c-48 78 -89 141 -92 141 -3 0 -13 -6 -22
-13z"/>
<path d="M2397 8099 c-9 -6 -17 -14 -17 -19 0 -6 43 -78 95 -162 l95 -152 0
-103 0 -103 25 0 25 0 0 109 0 109 95 153 c92 148 94 153 74 167 -11 8 -21 12
-23 11 -1 -2 -41 -66 -89 -143 l-86 -138 -46 73 c-26 41 -66 104 -89 141 -35
56 -44 65 -59 57z"/>
<path d="M3657 8099 c-9 -6 -17 -14 -17 -19 0 -5 43 -77 95 -162 l95 -153 0
-102 0 -103 25 0 25 0 0 109 0 110 95 152 c88 139 94 152 78 164 -10 7 -21 11
-24 9 -4 -2 -45 -64 -90 -138 -46 -74 -87 -132 -90 -130 -4 2 -41 59 -83 127
-41 67 -79 127 -83 134 -6 8 -14 8 -26 2z"/>
<path d="M4928 8099 c-10 -5 -18 -14 -18 -18 0 -4 43 -77 95 -160 l95 -153 0
-104 0 -104 25 0 25 0 0 108 0 107 95 154 c88 141 94 154 78 166 -10 7 -21 11
-25 9 -3 -2 -44 -65 -89 -139 -46 -73 -86 -132 -89 -130 -4 2 -44 65 -90 140
-45 74 -83 135 -84 135 0 0 -9 -5 -18 -11z"/>
<path d="M6205 8096 c-18 -13 -14 -22 78 -170 l97 -157 0 -104 0 -105 25 0 25
0 0 106 0 107 96 155 c89 143 95 157 79 168 -10 8 -21 11 -25 9 -4 -2 -44 -65
-90 -140 -45 -74 -84 -135 -86 -135 -1 0 -42 63 -89 140 -48 77 -88 140 -89
140 -1 0 -11 -6 -21 -14z"/>
<path d="M7495 8096 c-17 -12 -12 -22 78 -168 l97 -154 0 -107 0 -107 25 0 25
0 0 105 0 106 91 146 c50 81 93 152 96 159 2 7 -4 17 -15 23 -18 10 -28 -2
-107 -130 -48 -77 -91 -137 -95 -132 -4 4 -44 68 -89 141 -46 72 -84 132 -85
132 -1 0 -11 -6 -21 -14z"/>
<path d="M8777 8095 c-17 -12 -12 -23 77 -166 l96 -153 0 -108 0 -108 25 0 25
0 0 104 0 104 95 154 c52 84 95 156 95 160 0 4 -8 12 -19 17 -16 9 -29 -7
-106 -130 -78 -125 -89 -138 -100 -122 -7 10 -43 68 -80 128 -85 138 -85 137
-108 120z"/>
<path d="M10058 8096 c-16 -12 -10 -25 77 -166 l95 -152 0 -109 0 -109 25 0
25 0 0 103 0 102 95 153 c52 85 95 158 95 162 0 5 -8 14 -18 19 -16 9 -29 -8
-101 -125 -46 -74 -86 -136 -90 -138 -4 -3 -45 58 -91 134 -47 77 -87 139 -90
139 -3 0 -13 -6 -22 -13z"/>
<path d="M11318 8096 c-16 -12 -9 -26 77 -164 l95 -152 0 -110 0 -110 25 0 25
0 0 103 0 103 95 152 c52 84 95 156 95 162 0 5 -8 14 -18 19 -15 8 -29 -10
-101 -125 -45 -74 -86 -136 -89 -138 -4 -2 -45 59 -92 135 -47 76 -87 138 -90
138 -3 0 -13 -6 -22 -13z"/>
<path d="M12588 8097 c-15 -12 -6 -29 83 -172 l99 -160 0 -102 0 -103 25 0 25
0 0 110 0 110 95 152 c92 147 94 152 74 166 -11 8 -21 12 -23 11 -1 -2 -41
-66 -89 -143 l-86 -138 -43 68 c-24 38 -64 102 -89 141 -24 40 -46 73 -49 73
-3 -1 -12 -6 -22 -13z"/>
<path d="M13878 8099 c-10 -6 -18 -14 -18 -18 0 -5 43 -78 95 -162 l95 -152 0
-104 0 -103 25 0 25 0 0 109 0 110 95 152 c88 139 94 152 78 164 -10 7 -21 11
-24 9 -4 -2 -39 -57 -80 -121 -40 -65 -78 -126 -85 -137 -11 -17 -16 -13 -51
43 -132 212 -137 220 -155 210z"/>
<path d="M15165 8096 c-18 -13 -14 -22 78 -170 l97 -157 0 -104 0 -105 25 0
25 0 0 106 0 107 96 155 c89 143 95 157 79 168 -10 8 -21 11 -25 9 -4 -2 -44
-65 -90 -140 -45 -74 -84 -135 -86 -135 -1 0 -42 63 -89 140 -48 77 -88 140
-89 140 -1 0 -11 -6 -21 -14z"/>
<path d="M16445 8096 c-17 -12 -13 -22 78 -169 l97 -155 0 -106 0 -106 25 0
25 0 0 106 0 106 95 152 c52 84 95 155 95 159 0 3 -9 11 -19 17 -18 9 -29 -4
-106 -130 -48 -77 -88 -140 -90 -140 -1 0 -42 63 -89 140 -48 77 -88 140 -90
140 -1 0 -11 -6 -21 -14z"/>
<path d="M17727 8095 c-17 -12 -11 -24 78 -167 l95 -155 0 -107 0 -106 25 0
25 0 0 105 0 105 81 129 c72 116 80 134 77 172 l-3 42 -88 -142 c-49 -77 -89
-141 -91 -141 -1 0 -40 61 -86 135 -46 75 -86 137 -89 139 -3 3 -14 -2 -24 -9z"/>
<path d="M660 6794 l0 -106 -95 -152 c-52 -84 -95 -155 -95 -159 0 -3 9 -11
19 -17 17 -9 29 5 106 131 48 77 91 137 95 132 4 -4 44 -68 89 -140 74 -119
85 -132 102 -123 10 6 19 13 19 16 0 4 -43 75 -95 158 l-95 152 0 107 0 107
-25 0 -25 0 0 -106z"/>
<path d="M1940 6793 l0 -107 -95 -152 c-52 -83 -95 -154 -95 -158 0 -3 9 -10
19 -16 17 -9 28 4 102 123 45 72 85 136 89 140 4 5 47 -55 95 -132 77 -126 89
-140 106 -131 10 6 19 14 19 17 0 4 -43 75 -95 159 l-95 152 0 106 0 106 -25
0 -25 0 0 -107z"/>
<path d="M3220 6792 l0 -108 -96 -153 c-88 -142 -94 -154 -77 -166 10 -7 21
-11 24 -9 4 2 41 59 83 127 41 67 80 128 85 136 6 9 33 -26 96 -128 77 -123
90 -139 106 -130 11 5 19 13 19 17 0 4 -43 76 -95 160 l-95 154 0 104 0 104
-25 0 -25 0 0 -108z"/>
<path d="M4480 6792 l0 -108 -95 -153 c-87 -141 -94 -155 -78 -166 10 -7 21
-11 24 -9 4 2 45 64 90 138 46 74 86 133 90 131 3 -3 43 -65 89 -139 73 -120
84 -134 101 -125 11 5 19 14 19 19 0 5 -43 77 -95 160 l-95 151 0 105 0 104
-25 0 -25 0 0 -108z"/>
<path d="M5750 6791 l0 -109 -95 -153 c-93 -150 -94 -153 -74 -167 14 -10 23
-11 28 -4 110 182 167 269 172 266 4 -2 44 -64 90 -138 72 -117 85 -134 101
-125 10 5 18 14 18 19 0 4 -43 77 -95 162 l-95 153 0 102 0 103 -25 0 -25 0 0
-109z"/>
<path d="M7040 6798 l0 -103 -99 -160 c-96 -155 -99 -160 -79 -173 17 -13 22
-13 29 -1 5 8 44 71 86 141 43 70 80 127 83 127 3 0 40 -57 83 -127 42 -70 81
-133 86 -141 7 -12 12 -11 29 1 20 14 18 18 -74 166 l-94 153 0 109 0 110 -25
0 -25 0 0 -102z"/>
<path d="M8330 6797 l0 -104 -95 -152 c-52 -84 -95 -157 -95 -162 0 -4 8 -13
18 -18 16 -8 29 8 102 125 46 75 87 137 90 139 3 2 43 -57 89 -131 45 -74 86
-136 90 -138 3 -2 14 2 24 9 16 12 10 25 -78 164 l-95 152 0 110 0 109 -25 0
-25 0 0 -103z"/>
<path d="M9610 6795 l0 -105 -90 -143 c-107 -172 -107 -172 -82 -186 18 -10
28 3 107 130 78 126 88 139 100 122 6 -10 43 -67 80 -128 86 -139 86 -139 109
-122 17 12 11 24 -78 168 l-96 155 0 107 0 107 -25 0 -25 0 0 -105z"/>
<path d="M10890 6794 l0 -106 -95 -152 c-52 -84 -95 -155 -95 -159 0 -3 9 -11
19 -17 18 -9 29 4 107 130 47 77 88 140 89 140 1 0 42 -63 89 -140 78 -126 89
-139 107 -130 10 6 19 13 19 17 0 3 -43 74 -95 158 l-95 153 0 106 0 106 -25
0 -25 0 0 -106z"/>
<path d="M12150 6793 l0 -107 -95 -152 c-52 -83 -95 -154 -95 -158 0 -3 9 -10
19 -16 17 -9 28 4 102 123 45 72 85 136 89 140 4 5 47 -55 95 -132 77 -126 89
-140 106 -131 10 6 19 14 19 17 0 4 -43 75 -95 159 l-95 152 0 106 0 106 -25
0 -25 0 0 -107z"/>
<path d="M13420 6792 l0 -108 -96 -154 c-90 -143 -95 -155 -78 -167 23 -17 23
-17 109 122 37 61 73 118 80 128 11 16 22 3 100 -122 79 -126 90 -139 107
-130 25 14 25 15 -82 186 l-90 143 0 105 0 105 -25 0 -25 0 0 -108z"/>
<path d="M14700 6791 l0 -110 -95 -152 c-88 -139 -94 -152 -78 -164 10 -7 21
-11 24 -9 4 2 45 64 90 138 46 74 86 133 89 131 3 -2 44 -64 90 -139 73 -117
86 -133 102 -125 10 5 18 14 18 18 0 5 -43 78 -95 162 l-95 152 0 104 0 103
-25 0 -25 0 0 -109z"/>
<path d="M15990 6790 l0 -110 -94 -152 c-92 -148 -94 -153 -74 -166 17 -13 22
-13 29 -1 5 8 44 71 86 141 43 70 80 127 83 127 3 0 40 -57 83 -127 42 -70 81
-133 86 -141 7 -12 12 -11 29 1 20 14 18 18 -78 174 l-99 159 -1 103 0 102
-25 0 -25 0 0 -110z"/>
<path d="M17280 6797 l0 -103 -95 -153 c-52 -84 -95 -157 -95 -162 0 -4 8 -13
18 -18 16 -8 29 8 102 125 46 75 87 137 90 139 3 2 43 -58 89 -133 46 -75 85
-139 87 -141 1 -1 12 3 23 11 21 15 19 18 -74 167 l-95 153 0 109 0 109 -25 0
-25 0 0 -103z"/>
<path d="M119 5428 c-45 -73 -84 -135 -87 -138 -2 -3 -10 4 -18 14 -12 17 -14
1 -14 -137 l0 -157 25 0 25 0 0 106 0 106 95 153 c52 84 95 158 95 163 0 8
-22 22 -35 22 -2 0 -41 -60 -86 -132z"/>
<path d="M1108 5548 c-14 -12 -5 -31 78 -163 l94 -150 0 -112 0 -113 25 0 25
0 0 105 0 105 100 160 c91 147 98 161 80 170 -10 5 -21 10 -24 10 -2 0 -42
-61 -87 -135 -46 -74 -86 -135 -90 -135 -3 0 -43 61 -89 135 -45 74 -86 135
-89 135 -4 0 -14 -6 -23 -12z"/>
<path d="M2388 5550 c-14 -9 -4 -30 83 -170 l99 -160 0 -105 0 -105 25 0 25 0
0 113 0 112 94 150 c84 133 92 151 78 163 -9 6 -19 12 -23 12 -3 0 -44 -61
-89 -135 -45 -74 -85 -135 -89 -135 -3 0 -44 61 -89 135 -46 74 -87 135 -90
135 -4 0 -15 -5 -24 -10z"/>
<path d="M3653 5553 c-7 -2 -13 -10 -13 -16 0 -6 43 -79 95 -163 l95 -152 0
-106 0 -106 25 0 25 0 0 113 0 112 94 150 c69 110 92 153 84 162 -6 7 -16 13
-22 13 -6 0 -49 -61 -95 -135 -46 -74 -87 -135 -90 -135 -3 0 -44 61 -89 135
-46 74 -87 135 -90 134 -4 0 -13 -3 -19 -6z"/>
<path d="M4923 5553 c-7 -2 -13 -9 -13 -15 0 -6 43 -79 95 -162 l95 -152 0
-107 0 -107 25 0 25 0 0 113 1 112 94 150 c70 112 91 152 83 162 -6 7 -16 13
-22 13 -6 0 -49 -61 -94 -135 -46 -74 -87 -135 -90 -135 -4 1 -44 61 -90 135
-46 74 -86 135 -90 134 -4 0 -13 -3 -19 -6z"/>
<path d="M6203 5553 c-7 -2 -13 -9 -13 -14 0 -5 43 -77 95 -161 l95 -152 0
-108 0 -108 25 0 25 0 0 110 0 110 95 152 c72 116 92 155 84 165 -6 7 -17 13
-23 13 -6 -1 -49 -62 -95 -136 -59 -96 -86 -133 -94 -125 -6 6 -45 66 -87 133
-76 122 -84 131 -107 121z"/>
<path d="M7491 5547 c-8 -10 12 -49 84 -166 l95 -153 0 -109 0 -109 25 0 25 0
0 108 0 107 95 153 c52 85 95 157 95 162 0 13 -33 21 -44 10 -6 -6 -44 -65
-86 -133 -42 -67 -80 -121 -85 -121 -5 1 -46 60 -90 132 -44 72 -85 132 -91
132 -6 0 -16 -6 -23 -13z"/>
<path d="M8772 5547 c-8 -9 14 -52 84 -164 l94 -152 0 -111 0 -110 25 0 25 0
0 107 0 107 95 152 c52 83 95 156 95 162 0 12 -28 24 -39 17 -5 -2 -43 -63
-87 -134 -43 -72 -82 -131 -86 -131 -3 0 -44 61 -90 135 -45 74 -88 135 -94
135 -6 0 -16 -6 -22 -13z"/>
<path d="M10057 5548 c-14 -12 -6 -29 78 -163 l95 -150 0 -112 0 -113 25 0 25
0 0 106 0 106 95 152 c52 84 95 157 95 163 0 9 -21 23 -35 23 -2 0 -41 -61
-87 -135 -45 -74 -86 -135 -89 -135 -3 0 -44 61 -90 135 -46 74 -86 135 -89
135 -4 0 -14 -6 -23 -12z"/>
<path d="M11318 5548 c-14 -12 -6 -30 78 -163 l94 -150 0 -112 0 -113 25 0 25
0 0 105 0 105 99 160 c91 146 98 161 81 170 -10 5 -21 10 -23 10 -3 0 -43 -61
-89 -135 -45 -74 -86 -135 -89 -135 -3 0 -43 61 -89 135 -45 74 -86 135 -89
135 -4 0 -14 -6 -23 -12z"/>
<path d="M12588 5549 c-16 -9 -12 -18 34 -92 28 -45 73 -118 100 -161 l48 -79
0 -104 c0 -103 0 -104 23 -101 21 3 22 7 25 114 l3 111 93 149 c83 132 92 150
78 162 -9 6 -19 12 -22 12 -4 0 -45 -61 -91 -135 -46 -74 -86 -135 -89 -135
-3 0 -43 61 -89 135 -46 74 -86 135 -90 135 -3 0 -14 -5 -23 -11z"/>
<path d="M13873 5553 c-7 -2 -13 -9 -13 -15 0 -6 43 -79 95 -163 l95 -153 0
-106 0 -106 25 0 25 0 0 113 1 112 94 150 c69 110 91 153 83 162 -6 7 -16 13
-22 13 -6 0 -49 -61 -95 -135 -46 -74 -87 -135 -90 -135 -3 0 -43 61 -89 135
-46 74 -86 135 -90 134 -4 0 -13 -3 -19 -6z"/>
<path d="M15163 5553 c-7 -2 -13 -9 -13 -14 0 -5 43 -77 95 -161 l95 -152 0
-108 0 -108 25 0 25 0 0 110 0 110 95 152 c72 116 92 155 84 165 -6 7 -17 13
-23 13 -6 -1 -49 -62 -95 -136 -59 -96 -86 -133 -94 -125 -6 6 -45 66 -87 133
-76 122 -84 131 -107 121z"/>
<path d="M16441 5546 c-9 -11 7 -43 84 -165 l95 -152 0 -110 0 -109 25 0 25 0
0 109 0 110 95 151 c52 83 95 155 95 160 0 13 -33 21 -44 10 -5 -5 -44 -64
-86 -131 -41 -67 -80 -122 -85 -121 -6 0 -46 58 -90 128 -44 70 -85 129 -91
131 -6 2 -16 -3 -23 -11z"/>
<path d="M17721 5547 c-8 -10 12 -49 84 -165 l95 -152 0 -110 0 -110 25 0 25
0 0 108 0 108 80 128 c65 104 80 135 80 167 0 22 -4 38 -8 35 -5 -3 -43 -61
-86 -130 -43 -69 -82 -128 -86 -131 -5 -3 -46 55 -92 130 -46 74 -88 135 -94
135 -6 0 -17 -6 -23 -13z"/>
<path d="M660 4262 l0 -109 -95 -152 c-52 -84 -95 -157 -95 -161 0 -10 30 -21
40 -15 5 3 43 62 86 131 43 69 81 127 85 130 4 2 44 -56 90 -128 45 -73 84
-135 85 -136 1 -2 12 -1 24 3 28 9 27 10 -80 182 l-90 143 0 110 0 110 -25 0
-25 0 0 -108z"/>
<path d="M1940 4260 l0 -110 -95 -152 c-72 -116 -92 -155 -84 -165 6 -7 17
-13 23 -13 6 1 48 61 94 136 46 74 87 132 91 130 4 -3 42 -61 85 -130 43 -69
81 -128 86 -131 10 -6 40 5 40 15 0 4 -43 77 -95 161 l-95 153 0 108 0 108
-25 0 -25 0 0 -110z"/>
<path d="M3220 4258 l-1 -113 -94 -150 c-70 -112 -91 -152 -83 -162 6 -7 16
-13 22 -13 6 0 49 61 94 135 46 74 87 135 90 135 4 -1 43 -59 86 -131 44 -71
83 -132 87 -134 10 -7 39 5 39 16 0 5 -43 78 -95 162 l-95 154 0 107 0 106
-25 0 -25 0 0 -112z"/>
<path d="M4480 4258 l-1 -113 -94 -150 c-69 -110 -91 -153 -83 -162 6 -7 16
-13 22 -13 6 0 49 61 95 135 46 74 86 135 90 135 3 0 38 -53 78 -118 94 -153
95 -154 116 -146 9 3 17 11 17 16 0 6 -43 79 -95 162 l-95 152 0 107 0 107
-25 0 -25 0 0 -112z"/>
<path d="M5750 4258 l0 -113 -94 -150 c-69 -110 -92 -153 -84 -162 6 -7 16
-13 23 -13 6 0 49 61 95 135 45 74 85 135 89 135 3 0 38 -53 78 -118 94 -153
95 -154 116 -146 9 3 17 11 17 17 0 6 -43 79 -95 163 l-95 152 0 106 0 106
-25 0 -25 0 0 -112z"/>
<path d="M7040 4267 l0 -104 -48 -79 c-27 -43 -72 -116 -100 -161 -49 -77 -51
-83 -33 -93 11 -5 22 -10 25 -10 2 0 42 61 87 135 46 74 86 135 89 135 3 0 43
-61 89 -135 46 -74 90 -135 96 -135 40 0 30 29 -61 174 l-93 149 -3 111 c-3
107 -4 111 -25 114 -23 3 -23 2 -23 -101z"/>
<path d="M8330 4263 l0 -107 -95 -152 c-52 -83 -95 -156 -95 -162 0 -5 8 -13
17 -16 21 -8 22 -7 116 146 40 65 75 118 78 118 3 0 44 -61 90 -135 46 -74 89
-135 95 -135 6 0 16 6 22 13 7 9 -15 52 -84 162 l-93 150 -1 113 0 112 -25 0
-25 0 0 -107z"/>
<path d="M9610 4262 l0 -108 -95 -152 c-52 -84 -95 -156 -95 -161 0 -11 29
-23 39 -17 4 3 42 61 85 130 43 69 82 128 86 131 5 3 46 -55 92 -130 46 -74
88 -135 94 -135 6 0 16 6 22 13 8 10 -13 51 -84 165 l-94 153 0 109 0 110 -25
0 -25 0 0 -108z"/>
<path d="M10890 4261 l0 -110 -95 -151 c-52 -83 -95 -155 -95 -160 0 -12 43
-25 47 -14 10 28 161 259 169 258 8 -2 157 -232 167 -258 3 -10 47 2 47 13 0
4 -43 77 -95 160 l-95 153 0 109 0 109 -25 0 -25 0 0 -109z"/>
<path d="M12150 4261 l0 -109 -95 -153 c-72 -116 -92 -156 -83 -166 6 -7 16
-13 22 -13 6 1 48 61 94 136 46 74 87 132 91 130 4 -3 42 -61 85 -130 43 -69
81 -128 86 -131 10 -6 40 5 40 15 0 4 -43 77 -95 161 l-95 153 0 108 0 108
-25 0 -25 0 0 -109z"/>
<path d="M13420 4260 l0 -110 -94 -152 c-70 -113 -92 -156 -84 -165 6 -7 16
-13 22 -13 6 0 49 61 94 135 46 74 88 133 92 130 5 -3 43 -62 86 -131 43 -69
81 -127 85 -130 10 -6 39 6 39 17 0 5 -43 77 -95 161 l-95 152 0 108 0 108
-25 0 -25 0 0 -110z"/>
<path d="M14700 4258 l0 -113 -94 -150 c-69 -110 -92 -153 -84 -162 6 -7 16
-13 22 -13 6 0 49 61 95 135 46 74 87 135 90 135 3 0 38 -53 78 -118 94 -153
95 -154 116 -146 9 3 17 11 17 16 0 6 -43 79 -95 162 l-95 152 0 107 0 107
-25 0 -25 0 0 -112z"/>
<path d="M15997 4363 c-4 -3 -7 -54 -7 -113 l0 -106 -94 -149 c-83 -132 -92
-151 -78 -162 9 -7 19 -13 23 -13 4 0 44 61 90 135 46 74 86 135 89 135 3 0
43 -61 89 -135 46 -74 85 -135 88 -135 2 0 13 5 24 10 18 10 16 16 -33 93 -28
45 -73 118 -100 161 l-48 79 0 104 c0 93 -2 103 -18 103 -10 0 -22 -3 -25 -7z"/>
<path d="M17280 4264 l0 -106 -95 -153 c-52 -84 -95 -157 -95 -163 0 -5 8 -13
17 -16 21 -8 23 -6 116 146 40 65 75 118 78 118 3 0 44 -61 90 -135 46 -74 89
-135 95 -135 6 0 16 6 22 13 8 9 -15 52 -84 162 l-94 150 0 113 0 112 -25 0
-25 0 0 -106z"/>
<path d="M120 2878 c-45 -73 -85 -135 -87 -138 -3 -3 -11 4 -19 14 -12 17 -14
1 -14 -137 l0 -157 25 0 25 0 0 106 0 106 95 152 c52 84 95 157 95 163 0 9
-21 23 -35 23 -1 0 -40 -60 -85 -132z"/>
<path d="M1107 2998 c-14 -12 -6 -29 78 -163 l95 -150 0 -112 0 -113 25 0 25
0 1 108 0 107 99 155 c87 137 96 156 82 168 -9 6 -19 12 -22 12 -4 0 -45 -61
-91 -135 -46 -74 -87 -135 -90 -135 -4 0 -44 61 -89 135 -46 74 -86 135 -90
135 -3 0 -14 -6 -23 -12z"/>
<path d="M2388 2999 c-16 -9 -12 -18 34 -92 28 -45 73 -118 100 -161 l48 -79
0 -104 0 -103 25 0 25 0 0 113 0 112 95 150 c84 134 92 151 78 163 -9 6 -19
12 -23 12 -3 0 -43 -61 -89 -135 -46 -74 -87 -135 -90 -135 -4 0 -44 61 -90
135 -46 74 -86 135 -90 135 -3 0 -14 -5 -23 -11z"/>
<path d="M3653 3003 c-7 -2 -13 -9 -13 -15 0 -6 43 -80 95 -164 l95 -154 0
-105 0 -105 25 0 25 0 0 113 1 112 94 150 c84 134 92 151 78 163 -9 6 -19 12
-23 12 -3 0 -43 -61 -89 -135 -46 -74 -86 -135 -90 -135 -3 0 -44 61 -89 135
-46 74 -87 135 -90 134 -4 0 -13 -3 -19 -6z"/>
<path d="M4923 3003 c-7 -2 -13 -9 -13 -15 0 -6 43 -79 95 -163 l95 -153 0
-106 0 -106 25 0 25 0 0 110 0 111 94 152 c70 112 92 155 84 164 -6 7 -16 13
-22 13 -6 0 -49 -61 -94 -135 -46 -74 -87 -135 -90 -135 -4 0 -44 61 -90 135
-46 74 -86 135 -90 134 -4 0 -13 -3 -19 -6z"/>
<path d="M6201 2996 c-9 -11 7 -44 84 -168 l95 -154 0 -107 0 -107 25 0 25 0
0 109 0 109 95 153 c72 117 92 156 84 166 -7 7 -17 13 -23 13 -6 0 -47 -60
-91 -132 -44 -72 -85 -131 -90 -131 -6 0 -46 57 -91 128 -44 71 -85 130 -91
132 -5 2 -15 -3 -22 -11z"/>
<path d="M7491 2996 c-9 -11 8 -45 84 -165 l95 -152 0 -110 0 -109 25 0 25 0
0 108 0 108 96 153 c87 140 94 155 80 169 -20 21 -21 21 -114 -128 -42 -68
-81 -123 -87 -123 -5 0 -46 59 -90 131 -44 72 -85 131 -91 132 -6 0 -17 -6
-23 -14z"/>
<path d="M8771 2997 c-8 -10 12 -49 84 -165 l95 -152 0 -110 0 -110 25 0 25 0
0 107 0 107 95 152 c52 83 95 156 95 162 0 5 -8 13 -17 16 -21 8 -22 7 -116
-146 -40 -65 -75 -118 -79 -118 -4 0 -44 61 -90 135 -46 74 -88 135 -94 135
-6 0 -17 -6 -23 -13z"/>
<path d="M10057 2998 c-14 -12 -6 -29 78 -163 l94 -150 1 -112 0 -113 25 0 25
0 0 105 0 105 91 147 c50 81 93 153 96 161 5 13 -12 31 -29 32 -3 0 -44 -61
-90 -135 -45 -74 -86 -135 -89 -135 -4 0 -44 61 -90 135 -46 74 -86 135 -89
135 -4 0 -14 -6 -23 -12z"/>
<path d="M11317 2998 c-14 -12 -6 -29 78 -163 l95 -150 0 -112 0 -113 25 0 25
0 1 108 0 107 99 155 c87 137 96 156 82 168 -9 6 -19 12 -23 12 -4 0 -44 -61
-90 -135 -46 -74 -86 -135 -90 -135 -3 0 -44 61 -90 135 -46 74 -86 135 -89
135 -4 0 -14 -6 -23 -12z"/>
<path d="M12588 2999 c-16 -9 -12 -18 34 -92 28 -45 73 -118 100 -161 l48 -79
0 -104 c0 -103 0 -104 23 -101 21 3 22 8 27 118 l5 115 92 145 c81 128 89 146
75 158 -9 6 -19 12 -23 12 -3 0 -44 -61 -89 -135 -45 -74 -86 -135 -89 -135
-3 0 -44 61 -90 135 -46 74 -87 135 -90 135 -3 0 -14 -5 -23 -11z"/>
<path d="M13873 3003 c-7 -2 -13 -10 -13 -16 0 -6 43 -79 95 -163 l95 -152 0
-106 0 -106 25 0 25 0 0 113 1 112 94 150 c85 135 93 151 78 163 -9 6 -19 12
-22 12 -3 0 -44 -61 -89 -135 -46 -74 -87 -135 -90 -135 -4 0 -45 61 -90 135
-46 74 -87 135 -90 134 -4 0 -13 -3 -19 -6z"/>
<path d="M15161 2996 c-10 -11 6 -43 84 -169 l95 -154 0 -107 0 -106 25 0 25
0 0 109 0 109 95 153 c72 117 92 156 84 166 -7 7 -17 13 -23 13 -6 -1 -48 -61
-94 -135 -46 -74 -86 -135 -90 -135 -4 1 -43 60 -87 132 -44 72 -85 133 -91
135 -6 2 -16 -3 -23 -11z"/>
<path d="M16441 2997 c-9 -12 8 -46 84 -168 l95 -153 0 -108 0 -108 25 0 25 0
0 108 0 107 96 154 c86 139 94 156 80 170 -21 20 -24 16 -116 -132 -42 -67
-80 -121 -85 -120 -6 1 -46 59 -90 129 -44 70 -85 129 -91 131 -6 2 -16 -3
-23 -10z"/>
<path d="M17721 2997 c-8 -10 12 -49 84 -165 l95 -152 0 -110 0 -110 25 0 25
0 0 107 0 106 80 129 c66 105 80 135 80 169 0 22 -4 38 -8 35 -5 -3 -44 -64
-88 -135 -43 -72 -82 -131 -86 -131 -4 0 -44 61 -90 135 -46 74 -88 134 -94
135 -6 0 -17 -6 -23 -13z"/>
<path d="M660 1703 l0 -107 -95 -152 c-52 -83 -95 -154 -95 -158 0 -3 9 -10
19 -16 18 -9 29 4 107 130 76 122 89 138 99 122 7 -9 43 -66 80 -127 86 -139
86 -139 109 -122 17 12 12 24 -78 167 l-96 154 0 108 0 108 -25 0 -25 0 0
-107z"/>
<path d="M1940 1702 l0 -108 -96 -154 c-90 -143 -95 -155 -78 -167 23 -17 23
-17 109 122 37 61 73 118 80 127 10 16 23 0 99 -122 48 -77 91 -140 95 -140 5
0 14 7 21 15 10 12 -6 42 -84 168 l-96 153 0 107 0 107 -25 0 -25 0 0 -108z"/>
<path d="M3220 1701 l0 -110 -96 -152 c-88 -141 -94 -154 -78 -166 10 -7 20
-13 23 -13 3 0 25 33 49 73 24 40 62 103 86 140 l43 68 88 -140 c48 -78 90
-141 95 -141 4 0 13 7 20 15 10 12 -5 42 -84 170 l-96 155 0 105 0 105 -25 0
-25 0 0 -109z"/>
<path d="M4480 1701 l0 -109 -95 -154 c-86 -139 -94 -154 -78 -166 9 -6 19
-12 22 -12 3 1 45 64 92 141 l87 140 87 -140 c48 -78 90 -141 95 -141 4 0 13
6 19 14 15 18 17 13 -94 190 l-85 136 0 105 0 105 -25 0 -25 0 0 -109z"/>
<path d="M5750 1700 l0 -109 -95 -153 c-85 -138 -93 -154 -78 -166 9 -6 19
-12 22 -12 3 0 43 61 89 135 46 74 87 135 91 135 4 0 45 -61 91 -135 45 -74
85 -135 89 -135 3 0 13 6 22 13 14 11 4 31 -83 171 l-98 158 0 104 0 104 -25
0 -25 0 0 -110z"/>
<path d="M7040 1707 l0 -103 -99 -159 c-95 -154 -98 -160 -79 -174 12 -8 23
-10 27 -4 3 5 42 67 85 136 43 70 82 127 87 127 4 0 45 -61 90 -135 46 -74 86
-135 89 -135 4 0 14 6 23 13 15 11 7 27 -78 162 l-94 150 -1 113 0 112 -25 0
-25 0 0 -103z"/>
<path d="M8330 1705 l0 -105 -85 -136 c-111 -177 -109 -172 -94 -190 6 -8 15
-14 19 -14 3 0 46 63 94 141 l88 140 87 -140 c47 -77 89 -140 92 -141 3 0 13
6 22 13 16 11 9 26 -78 165 l-95 152 0 110 0 110 -25 0 -25 0 0 -105z"/>
<path d="M9610 1704 l0 -106 -96 -154 c-80 -128 -94 -157 -84 -169 7 -8 16
-15 21 -15 4 0 47 63 95 140 76 124 88 139 98 123 7 -10 45 -71 85 -136 41
-64 77 -119 81 -122 4 -2 15 1 24 8 16 12 8 27 -78 167 l-96 154 0 108 0 108
-25 0 -25 0 0 -106z"/>
<path d="M10890 1704 l0 -107 -96 -155 c-89 -143 -95 -157 -79 -168 10 -8 21
-11 25 -9 4 2 44 65 90 140 45 74 84 135 85 135 1 0 39 -61 85 -135 46 -75 86
-138 90 -140 4 -2 15 1 25 9 16 11 10 25 -79 168 l-96 155 0 107 0 106 -25 0
-25 0 0 -106z"/>
<path d="M12150 1702 l0 -108 -96 -154 c-90 -143 -95 -155 -78 -167 23 -17 23
-17 109 122 37 61 73 118 80 127 10 16 23 0 99 -122 48 -77 91 -140 95 -140 5
0 14 7 21 15 10 12 -6 42 -84 168 l-96 153 0 107 0 107 -25 0 -25 0 0 -108z"/>
<path d="M13420 1702 l0 -109 -96 -154 c-87 -139 -94 -154 -78 -166 9 -7 20
-10 24 -8 4 3 40 58 81 122 40 65 78 126 84 136 11 16 23 1 100 -123 48 -77
90 -140 95 -140 4 0 13 7 20 15 10 12 -4 41 -84 169 l-96 154 0 106 0 106 -25
0 -25 0 0 -108z"/>
<path d="M14700 1700 l0 -110 -95 -152 c-87 -139 -94 -154 -78 -165 9 -7 19
-13 22 -13 3 1 45 64 92 141 l87 140 88 -140 c48 -78 91 -141 94 -141 4 0 13
6 19 14 15 18 17 13 -94 190 l-85 136 0 105 0 105 -25 0 -25 0 0 -110z"/>
<path d="M15990 1698 l-1 -113 -93 -150 c-91 -145 -94 -150 -74 -164 17 -12
22 -12 29 0 5 8 44 69 85 137 42 67 79 122 84 122 4 0 45 -61 91 -135 46 -74
86 -135 89 -135 4 0 14 6 23 13 14 11 5 29 -84 172 l-99 160 0 102 0 103 -25
0 -25 0 0 -112z"/>
<path d="M17280 1707 l0 -104 -86 -139 c-112 -182 -108 -173 -93 -190 6 -8 15
-14 19 -14 3 0 46 63 94 141 l88 141 87 -141 c47 -78 89 -141 92 -141 3 0 13
6 22 13 16 11 9 26 -78 165 l-95 152 0 110 0 110 -25 0 -25 0 0 -103z"/>
<path d="M149 352 c-120 -196 -119 -196 -134 -175 -13 16 -14 6 -15 -79 0 -98
0 -98 25 -98 23 0 25 3 25 49 0 44 9 63 95 202 52 83 95 156 95 160 0 5 -8 13
-19 18 -16 9 -25 0 -72 -77z"/>
<path d="M1108 426 c-16 -12 -9 -26 77 -164 90 -144 95 -155 95 -207 0 -52 1
-55 25 -55 23 0 25 3 25 48 0 43 10 63 99 207 96 153 99 160 80 173 -11 8 -22
12 -23 11 -2 -2 -38 -60 -81 -129 -42 -69 -82 -130 -89 -137 -8 -9 -32 22 -96
128 -47 76 -87 139 -90 139 -3 -1 -13 -7 -22 -14z"/>
<path d="M2389 427 c-15 -11 -6 -30 82 -172 89 -144 99 -164 99 -207 0 -45 2
-48 25 -48 24 0 25 3 25 55 0 52 5 63 95 207 92 147 94 152 74 166 -11 8 -21
12 -23 11 -1 -2 -41 -66 -89 -143 l-86 -138 -34 53 c-18 30 -58 93 -88 141
-30 49 -56 88 -59 88 -3 -1 -12 -6 -21 -13z"/>
<path d="M3658 429 c-10 -6 -18 -14 -18 -18 0 -5 43 -78 95 -162 86 -138 95
-157 95 -201 0 -45 2 -48 25 -48 24 0 25 3 25 54 0 51 6 63 95 207 92 148 94
153 74 167 -11 8 -22 12 -23 11 -2 -2 -40 -65 -86 -139 -45 -74 -84 -137 -86
-139 -1 -1 -20 25 -41 58 -132 212 -137 220 -155 210z"/>
<path d="M4926 427 c-22 -16 -27 -5 88 -190 78 -125 86 -143 86 -188 0 -46 2
-49 25 -49 24 0 25 3 25 53 0 51 6 63 96 208 87 139 94 154 78 166 -9 7 -20
10 -24 8 -4 -3 -40 -58 -81 -122 -40 -65 -78 -126 -85 -136 -10 -16 -21 -2
-94 115 -46 73 -86 136 -90 141 -3 4 -14 1 -24 -6z"/>
<path d="M6205 426 c-17 -13 -13 -22 78 -169 89 -144 97 -161 97 -207 0 -47 2
-50 25 -50 23 0 25 3 25 52 0 48 7 63 96 207 88 142 94 156 78 168 -9 7 -20
10 -24 8 -4 -2 -44 -65 -90 -140 -46 -74 -84 -135 -86 -135 -1 0 -41 63 -89
140 -48 77 -88 140 -89 140 -1 0 -11 -6 -21 -14z"/>
<path d="M7495 426 c-17 -12 -11 -24 78 -168 90 -143 97 -158 97 -206 0 -49 2
-52 25 -52 23 0 25 3 25 51 0 47 7 63 95 203 52 84 95 155 95 159 0 3 -9 11
-19 17 -17 9 -29 -5 -106 -130 -48 -77 -88 -140 -90 -140 -1 0 -40 61 -85 135
-46 75 -86 138 -90 140 -4 2 -15 -2 -25 -9z"/>
<path d="M8776 427 c-16 -12 -9 -27 78 -167 90 -144 96 -158 96 -207 0 -50 1
-53 25 -53 23 0 25 3 25 50 0 46 8 63 90 193 107 171 107 172 82 186 -17 9
-28 -4 -107 -130 -78 -125 -88 -138 -100 -122 -7 10 -45 71 -84 135 -40 65
-76 120 -80 123 -5 2 -16 -1 -25 -8z"/>
<path d="M10058 426 c-16 -12 -9 -26 77 -165 89 -144 95 -156 95 -207 0 -51 1
-54 25 -54 23 0 25 3 25 48 0 44 9 63 96 203 93 149 102 175 68 186 -5 2 -47
-58 -94 -133 -46 -74 -86 -137 -90 -139 -3 -1 -43 60 -90 136 -47 76 -87 138
-90 138 -3 0 -13 -6 -22 -13z"/>
<path d="M11318 426 c-16 -12 -9 -26 77 -164 90 -144 95 -155 95 -207 0 -52 1
-55 25 -55 23 0 25 3 25 48 0 43 10 63 99 207 97 155 99 159 79 173 -17 12
-22 13 -29 1 -5 -8 -43 -69 -85 -136 -41 -68 -78 -124 -82 -127 -4 -2 -45 59
-92 135 -47 76 -87 139 -90 139 -3 -1 -13 -7 -22 -14z"/>
<path d="M12588 427 c-15 -12 -7 -29 83 -172 89 -144 99 -164 99 -207 0 -45 2
-48 25 -48 24 0 25 3 25 55 0 51 5 63 94 207 92 147 94 152 75 166 -11 8 -22
12 -24 11 -1 -2 -41 -66 -88 -143 l-86 -138 -43 68 c-24 38 -64 102 -89 141
-24 40 -46 73 -49 73 -3 -1 -13 -6 -22 -13z"/>
<path d="M13878 429 c-10 -5 -18 -14 -18 -18 0 -5 43 -78 95 -162 86 -138 95
-157 95 -201 0 -45 2 -48 25 -48 24 0 25 3 25 54 0 51 6 63 95 207 93 149 95
152 74 167 -11 8 -21 12 -23 11 -1 -2 -40 -66 -86 -141 -47 -75 -87 -135 -91
-133 -3 3 -43 65 -89 140 -46 74 -84 135 -84 135 -1 0 -9 -5 -18 -11z"/>
<path d="M15165 426 c-17 -13 -13 -22 78 -169 89 -144 97 -161 97 -207 0 -47
2 -50 25 -50 23 0 25 3 25 52 0 48 7 63 96 207 89 144 95 156 78 168 -23 17
-23 17 -109 -122 -37 -60 -73 -118 -80 -128 -11 -16 -23 -2 -100 123 -48 77
-88 140 -89 140 -1 0 -11 -6 -21 -14z"/>
<path d="M16445 426 c-17 -12 -12 -22 78 -168 90 -143 97 -158 97 -206 0 -49
2 -52 25 -52 23 0 25 3 25 51 0 47 7 63 95 204 52 84 95 155 95 158 0 4 -9 11
-19 17 -18 9 -29 -4 -107 -130 -48 -78 -90 -137 -94 -133 -4 4 -44 68 -89 141
-46 72 -84 132 -85 132 -1 0 -11 -6 -21 -14z"/>
<path d="M17726 427 c-17 -12 -12 -24 78 -167 90 -144 96 -158 96 -207 0 -50
1 -53 25 -53 23 0 25 3 25 50 0 45 8 62 81 179 73 117 80 134 77 173 l-3 43
-89 -143 c-78 -128 -89 -142 -101 -125 -6 10 -43 68 -80 128 -86 139 -86 139
-109 122z"/>
</g>
</svg>
