<?xml version="1.0" standalone="no"?>
<!DOCTYPE svg PUBLIC "-//W3C//DTD SVG 20010904//EN"
 "http://www.w3.org/TR/2001/REC-SVG-20010904/DTD/svg10.dtd">
<svg version="1.0" xmlns="http://www.w3.org/2000/svg"
 width="1125.000000pt" height="900.000000pt" viewBox="0 0 1125.000000 900.000000"
 preserveAspectRatio="xMidYMid meet">
<metadata>
Created by potrace 1.13, written by Peter Selinger 2001-2015
</metadata>
<g transform="translate(0.000000,900.000000) scale(0.100000,-0.100000)"
fill="#000000" stroke="none">
<path d="M0 4500 l0 -4500 5625 0 5625 0 0 4500 0 4500 -5625 0 -5625 0 0
-4500z m264 4427 c64 -28 136 -87 182 -150 43 -57 84 -163 84 -213 l0 -24
-210 0 -210 0 0 203 c0 112 2 206 5 208 9 9 110 -7 149 -24z m2476 27 c0 -3
-9 -19 -21 -35 -70 -99 -100 -291 -64 -414 33 -116 98 -213 185 -279 42 -32
53 -37 61 -25 7 11 9 11 9 -4 0 -34 139 -77 248 -77 70 0 158 22 232 57 72 35
188 151 223 223 77 161 74 337 -8 488 -19 34 -35 65 -35 67 0 3 1683 5 3740 5
l3739 0 -78 -77 c-115 -115 -160 -219 -161 -373 0 -142 48 -257 150 -361 61
-61 111 -92 223 -137 l27 -12 -2 -3977 -3 -3978 -774 -3 c-426 -1 -772 0 -769
3 3 3 31 12 63 20 161 42 300 171 356 330 30 83 36 203 15 285 -26 104 -63
169 -140 246 -114 114 -237 161 -395 151 -223 -13 -410 -165 -467 -380 -16
-61 -18 -193 -3 -257 15 -67 64 -160 114 -217 59 -68 135 -117 231 -149 43
-14 81 -28 83 -30 2 -2 -907 -4 -2020 -4 -1910 1 -2023 2 -2001 18 173 127
248 246 259 414 17 236 -115 440 -342 528 -84 33 -252 33 -339 2 -162 -60
-289 -197 -331 -359 -54 -207 25 -424 201 -551 l64 -47 -866 -3 c-477 -1 -869
-1 -870 1 -2 2 20 28 49 59 293 309 121 803 -302 870 -146 23 -311 -32 -426
-142 -105 -102 -155 -220 -155 -370 0 -142 43 -253 136 -350 30 -31 54 -60 54
-63 0 -4 -581 -7 -1290 -7 -1029 0 -1292 3 -1295 13 -3 7 -4 152 -3 322 l3
310 24 -73 c79 -241 320 -392 569 -354 317 49 515 375 412 678 -77 226 -319
377 -552 344 -128 -18 -223 -67 -309 -157 -62 -65 -91 -115 -125 -213 l-22
-65 -1 3570 -1 3571 93 12 c343 43 551 387 426 704 -28 72 -98 168 -153 209
-25 19 -46 37 -46 42 0 4 535 7 1190 7 655 0 1190 -3 1190 -6z m380 -139 l0
-145 -211 0 -211 0 7 42 c11 63 32 116 67 170 48 76 53 78 210 78 l138 0 0
-145z m355 138 c41 -15 104 -140 129 -255 l6 -28 -215 0 -215 0 0 138 c0 76 3
142 7 145 8 9 266 9 288 0z m7733 -214 l-3 -194 -167 -3 c-189 -3 -177 -9
-153 81 22 83 50 133 113 199 57 60 187 137 204 120 5 -5 7 -96 6 -203z
m-8088 -349 l0 -210 -27 6 c-74 16 -110 27 -137 41 -24 12 -30 13 -37 1 -7
-10 -9 -8 -9 7 0 12 -15 30 -36 44 -74 51 -154 182 -169 279 l-7 42 211 0 211
0 0 -210z m484 183 c-13 -61 -37 -130 -60 -169 -34 -57 -129 -145 -188 -174
-54 -26 -155 -52 -168 -44 -4 3 -8 97 -8 210 l0 204 215 0 215 0 -6 -27z
m-3074 -118 c0 -37 -37 -140 -66 -187 -63 -99 -198 -189 -306 -204 l-48 -7 0
212 0 211 210 0 210 0 0 -25z m10678 -174 c1 -107 -1 -198 -5 -202 -5 -4 -36
5 -70 21 -131 60 -234 194 -258 338 l-7 42 169 -2 168 -3 3 -194z m-10678
-7271 l0 -210 -211 0 -212 0 7 48 c9 69 68 181 126 239 73 73 185 128 268 132
l22 1 0 -210z m228 165 c129 -61 234 -198 249 -325 l6 -50 -212 0 -211 0 0
211 0 212 48 -7 c26 -3 80 -22 120 -41z m8802 -370 l0 -215 -205 0 c-162 0
-207 3 -211 13 -8 21 14 104 44 165 34 71 122 161 190 196 47 24 138 54 170
55 9 1 12 -48 12 -214z m197 183 c102 -38 197 -127 247 -232 30 -64 48 -156
32 -162 -6 -2 -101 -3 -211 -2 l-200 3 -3 200 c-1 110 0 205 2 212 6 15 62 7
133 -19z m-4547 -233 l0 -215 -211 0 -211 0 7 43 c18 109 84 220 169 286 60
47 109 70 186 87 30 7 56 13 58 13 1 1 2 -96 2 -214z m198 181 c80 -29 183
-116 229 -196 24 -40 47 -107 57 -162 l7 -38 -211 0 -210 0 0 214 0 213 43 -8
c23 -4 61 -15 85 -23z m-2488 -236 l0 -210 -211 0 -211 0 6 48 c10 71 70 185
127 242 69 69 188 128 262 129 l27 1 0 -210z m230 168 c127 -62 232 -201 247
-327 l6 -51 -212 0 -211 0 0 211 0 212 52 -6 c29 -4 82 -21 118 -39z m-2620
-339 l0 -212 -48 6 c-104 12 -216 82 -287 178 -43 59 -85 164 -85 215 l0 24
210 0 210 0 0 -211z m477 160 c-20 -171 -195 -346 -366 -366 l-51 -6 0 205 c0
113 3 208 7 211 3 4 98 7 211 7 l205 0 -6 -51z m8553 -370 l0 -211 -42 7
c-129 22 -252 108 -321 226 -24 40 -57 144 -57 176 0 10 45 13 210 13 l210 0
0 -211z m484 184 c-30 -140 -84 -231 -176 -299 -65 -47 -145 -81 -204 -86
l-39 -3 -3 208 -2 207 215 0 215 0 -6 -27z m-4834 -233 c0 -239 8 -223 -91
-194 -166 49 -295 193 -324 362 l-7 42 211 0 211 0 0 -210z m490 202 c0 -4 -7
-34 -15 -65 -42 -161 -154 -281 -306 -328 -107 -34 -99 -50 -99 191 l0 210
210 0 c116 0 210 -4 210 -8z m-2780 -237 l0 -195 -68 0 c-85 0 -152 31 -223
103 -57 58 -115 169 -125 240 l-6 47 211 0 211 0 0 -195z m477 144 c-13 -109
-96 -234 -199 -300 -47 -31 -58 -33 -132 -34 l-81 0 -3 180 c-1 98 0 185 2
192 4 10 53 13 212 13 l207 0 -6 -51z"/>
<path d="M6710 8469 c-135 -22 -294 -137 -358 -257 -61 -115 -80 -258 -51
-377 32 -134 149 -278 273 -338 253 -123 553 -25 686 224 160 300 -18 673
-355 744 -78 16 -114 17 -195 4z m60 -269 l0 -210 -211 0 -211 0 6 48 c9 66
67 179 119 233 69 72 197 138 270 139 l27 0 0 -210z m169 191 c159 -49 290
-198 308 -350 l6 -51 -212 0 -211 0 0 210 0 210 24 0 c13 0 52 -9 85 -19z
m-169 -671 l0 -210 -24 0 c-39 0 -137 34 -185 64 -100 64 -192 200 -207 309
l-6 47 211 0 211 0 0 -210z m477 159 c-20 -169 -196 -346 -365 -366 l-52 -6 0
205 c0 113 3 208 7 211 3 4 98 7 211 7 l205 0 -6 -51z"/>
<path d="M9696 6809 c-123 -29 -261 -138 -323 -255 -111 -209 -76 -442 91
-610 112 -112 240 -161 391 -151 279 19 485 239 485 517 0 142 -49 259 -150
360 -68 68 -158 120 -240 139 -54 13 -200 12 -254 0z m94 -259 l0 -210 -210 0
c-115 0 -210 4 -210 8 0 4 7 34 15 65 43 164 165 290 325 333 87 24 80 40 80
-196z m161 194 c166 -49 295 -193 324 -361 l7 -43 -211 0 -211 0 0 210 c0 239
-8 223 91 194z m-161 -683 l0 -208 -52 9 c-149 27 -298 156 -342 298 -8 25
-17 60 -20 78 l-5 32 209 0 210 0 0 -209z m484 172 c-34 -189 -180 -338 -364
-371 l-50 -9 0 208 0 209 210 0 211 0 -7 -37z"/>
<path d="M3850 6621 c-230 -74 -370 -262 -370 -496 0 -393 422 -641 766 -450
35 20 88 63 124 102 267 285 132 749 -245 848 -79 20 -206 19 -275 -4z m110
-251 l0 -210 -211 0 -211 0 7 43 c4 23 22 75 40 115 56 120 165 211 295 248
87 24 80 40 80 -196z m151 194 c182 -54 301 -187 333 -371 l6 -33 -210 0 -210
0 0 210 c0 167 3 210 13 210 7 0 38 -7 68 -16z m-151 -685 l0 -211 -32 7
c-154 31 -274 117 -338 245 -22 43 -50 131 -50 158 0 9 49 12 210 12 l210 0 0
-211z m483 174 c-29 -188 -185 -343 -380 -377 l-33 -5 0 209 0 210 209 0 210
0 -6 -37z"/>
<path d="M1448 6511 c-159 -51 -290 -182 -338 -339 -24 -76 -27 -211 -6 -288
63 -238 295 -401 541 -381 222 19 403 173 460 393 68 263 -102 549 -369 620
-73 20 -218 17 -288 -5z m122 -251 l0 -210 -210 0 c-239 0 -223 -8 -194 91 42
145 158 264 302 310 31 10 67 18 80 18 l22 1 0 -210z m219 169 c148 -68 226
-171 265 -351 l6 -28 -215 0 -215 0 0 211 0 211 48 -7 c26 -3 76 -20 111 -36z
m-219 -659 l0 -210 -27 6 c-129 28 -224 81 -288 158 -42 51 -91 156 -100 214
l-7 42 211 0 211 0 0 -210z m479 168 c-18 -97 -49 -158 -118 -231 -70 -75
-174 -130 -263 -139 l-33 -3 -3 208 -2 207 214 0 213 0 -8 -42z"/>
<path d="M6625 5579 c-88 -18 -191 -75 -260 -143 -264 -264 -172 -709 175
-846 265 -104 569 31 671 299 102 270 -43 577 -316 671 -70 25 -199 33 -270
19z m75 -269 l0 -210 -211 0 -212 0 6 51 c21 178 217 365 385 368 l32 1 0
-210z m200 181 c73 -28 158 -96 202 -163 39 -57 78 -160 78 -203 l0 -25 -210
0 -210 0 0 211 0 212 43 -6 c23 -2 67 -14 97 -26z m-200 -662 l0 -212 -44 6
c-118 16 -239 95 -307 199 -41 64 -69 141 -69 190 l0 28 210 0 210 0 0 -211z
m476 164 c-9 -70 -68 -182 -126 -241 -58 -59 -171 -119 -242 -128 l-48 -7 0
212 0 211 211 0 212 0 -7 -47z"/>
<path d="M9326 3884 c-264 -64 -438 -338 -383 -600 41 -191 182 -344 366 -398
71 -21 211 -21 282 0 196 58 341 226 370 430 22 155 -32 316 -145 428 -131
131 -313 183 -490 140z m94 -265 l0 -209 -211 0 -212 0 6 51 c15 126 117 263
240 324 67 33 152 57 170 48 4 -2 7 -98 7 -214z m225 172 c73 -34 142 -94 184
-159 36 -56 71 -152 71 -194 l0 -28 -210 0 -210 0 0 208 c0 115 2 211 5 214
11 10 100 -13 160 -41z m-225 -651 c0 -238 7 -221 -86 -196 -105 28 -212 105
-268 194 -29 47 -66 150 -66 187 l0 25 210 0 210 0 0 -210z m476 163 c-3 -27
-21 -79 -40 -118 -58 -118 -151 -197 -275 -235 -110 -34 -101 -51 -101 190 l0
210 211 0 212 0 -7 -47z"/>
<path d="M3249 3811 c-90 -29 -156 -71 -223 -142 -35 -37 -75 -92 -90 -122
-25 -54 -26 -63 -26 -230 l0 -174 32 -64 c62 -124 198 -230 339 -264 354 -83
683 219 630 578 -30 196 -177 363 -370 421 -74 22 -219 20 -292 -3z m121 -251
l0 -210 -210 0 -210 0 0 28 c0 40 33 131 65 182 70 111 218 204 333 209 l22 1
0 -210z m146 196 c162 -43 309 -203 330 -359 l7 -47 -212 0 -211 0 0 210 c0
238 -7 221 86 196z m-148 -671 c1 -110 0 -205 -2 -211 -7 -19 -92 1 -173 41
-123 61 -225 198 -240 324 l-6 51 209 -2 209 -3 3 -200z m482 181 c0 -42 -37
-144 -70 -196 -64 -99 -181 -178 -297 -198 l-53 -9 0 207 c0 114 3 210 7 213
3 4 98 7 210 7 l203 0 0 -24z"/>
<path d="M1113 3259 c-116 -19 -243 -93 -313 -182 -89 -111 -132 -260 -113
-389 22 -149 92 -271 203 -352 234 -173 559 -124 725 109 189 264 100 624
-190 765 -109 54 -199 68 -312 49z m57 -269 l0 -210 -211 0 -212 0 6 43 c13
110 91 235 189 299 59 39 156 77 201 78 l27 0 0 -210z m226 166 c127 -60 233
-199 250 -328 l7 -48 -212 0 -211 0 0 211 0 212 48 -7 c26 -3 79 -21 118 -40z
m-228 -650 l2 -209 -52 6 c-167 20 -345 198 -365 365 l-6 52 209 -2 209 -3 3
-209z m482 190 c0 -50 -41 -156 -84 -213 -71 -97 -185 -168 -288 -180 l-48 -6
0 212 0 211 210 0 210 0 0 -24z"/>
<path d="M6074 2985 c-151 -33 -286 -139 -354 -279 -74 -151 -74 -301 -1 -451
158 -320 575 -391 827 -140 290 291 142 785 -261 870 -84 18 -130 18 -211 0z
m76 -265 l0 -210 -211 0 -212 0 7 48 c15 108 105 243 204 306 48 30 146 65
185 66 l27 0 0 -210z m175 190 c158 -54 284 -200 302 -348 l6 -52 -212 0 -211
0 0 210 0 210 28 0 c16 0 55 -9 87 -20z m-175 -670 l0 -210 -25 0 c-37 0 -140
37 -187 66 -99 63 -189 198 -204 307 l-7 47 212 0 211 0 0 -210z m477 158
c-13 -105 -98 -234 -195 -297 -56 -36 -152 -71 -194 -71 l-28 0 0 210 0 210
211 0 212 0 -6 -52z"/>
<path d="M7488 1310 c-304 -54 -497 -345 -423 -635 38 -148 143 -277 277 -340
204 -97 423 -60 584 100 108 106 154 216 154 365 -1 93 -13 146 -51 226 -93
195 -333 321 -541 284z m42 -270 l0 -210 -210 0 c-115 0 -210 4 -210 8 0 4 7
34 15 65 31 119 99 215 196 278 51 32 147 68 187 68 l22 1 0 -210z m169 191
c113 -35 203 -107 264 -211 23 -41 57 -144 57 -177 0 -10 -45 -13 -210 -13
l-210 0 0 210 c0 241 -8 224 99 191z m-169 -672 l0 -212 -47 7 c-27 3 -80 22
-119 41 -82 40 -167 124 -204 201 -26 52 -52 153 -44 166 3 4 97 8 210 8 l204
0 0 -211z m485 169 c-28 -168 -143 -304 -303 -359 -30 -10 -68 -19 -84 -19
l-28 0 0 210 0 210 211 0 211 0 -7 -42z"/>
</g>
</svg>
