<?xml version="1.0" standalone="no"?>
<!DOCTYPE svg PUBLIC "-//W3C//DTD SVG 20010904//EN"
 "http://www.w3.org/TR/2001/REC-SVG-20010904/DTD/svg10.dtd">
<svg version="1.0" xmlns="http://www.w3.org/2000/svg"
 width="1125.000000pt" height="900.000000pt" viewBox="0 0 1125.000000 900.000000"
 preserveAspectRatio="xMidYMid meet">
<metadata>
Created by potrace 1.13, written by Peter Selinger 2001-2015
</metadata>
<g transform="translate(0.000000,900.000000) scale(0.100000,-0.100000)"
fill="#000000" stroke="none">
<path d="M0 4500 l0 -4500 5625 0 5625 0 0 4500 0 4500 -5625 0 -5625 0 0
-4500z m240 4305 l0 -155 -100 0 -100 0 0 148 c0 82 3 152 7 155 3 4 48 7 100
7 l93 0 0 -155z m510 0 l0 -155 -225 0 -225 0 0 148 c0 82 3 152 7 155 3 4
105 7 225 7 l218 0 0 -155z m518 -2 l3 -153 -226 0 -225 0 0 155 0 155 223 -2
222 -3 3 -152z m510 0 l3 -153 -226 0 -225 0 0 148 c0 82 3 152 7 156 4 3 104
5 222 4 l216 -3 3 -152z m512 2 l0 -155 -225 0 -225 0 0 148 c0 82 3 152 7
155 3 4 105 7 225 7 l218 0 0 -155z m518 -2 l3 -153 -226 0 -225 0 0 155 0
155 223 -2 222 -3 3 -152z m510 0 l3 -153 -226 0 -225 0 0 155 0 155 223 -2
222 -3 3 -152z m512 2 l0 -155 -225 0 -225 0 0 148 c0 82 3 152 7 155 3 4 105
7 225 7 l218 0 0 -155z m510 0 l0 -155 -225 0 -225 0 0 148 c0 82 3 152 7 155
3 4 105 7 225 7 l218 0 0 -155z m518 -2 l3 -153 -226 0 -225 0 0 155 0 155
223 -2 222 -3 3 -152z m510 0 l3 -153 -226 0 -225 0 0 155 0 155 223 -2 222
-3 3 -152z m512 2 l0 -155 -225 0 -225 0 0 148 c0 82 3 152 7 155 3 4 105 7
225 7 l218 0 0 -155z m518 -2 l3 -153 -226 0 -225 0 0 155 0 155 223 -2 222
-3 3 -152z m510 0 l3 -153 -226 0 -225 0 0 155 0 155 223 -2 222 -3 3 -152z
m510 0 l3 -153 -226 0 -225 0 0 148 c0 82 3 152 7 156 4 3 104 5 222 4 l216
-3 3 -152z m512 2 l0 -155 -225 0 -225 0 0 148 c0 82 3 152 7 155 3 4 105 7
225 7 l218 0 0 -155z m518 -2 l3 -153 -226 0 -225 0 0 155 0 155 223 -2 222
-3 3 -152z m502 2 l0 -155 -220 0 -220 0 0 148 c0 82 3 152 7 155 3 4 102 7
220 7 l213 0 0 -155z m518 -2 l3 -153 -231 0 -230 0 0 148 c0 82 3 152 7 156
4 3 106 5 227 4 l221 -3 3 -152z m510 0 l3 -153 -226 0 -225 0 0 155 0 155
223 -2 222 -3 3 -152z m510 0 l3 -153 -226 0 -225 0 0 148 c0 82 3 152 7 156
4 3 104 5 222 4 l216 -3 3 -152z m512 2 l0 -155 -225 0 -225 0 0 148 c0 82 3
152 7 155 3 4 105 7 225 7 l218 0 0 -155z m208 -2 l3 -153 -71 0 -70 0 0 155
0 156 68 -3 67 -3 3 -152z m-10968 -448 l0 -226 -98 3 -97 3 -3 223 -2 222
100 0 100 0 0 -225z m510 0 l0 -225 -222 2 -223 3 -3 223 -2 222 225 0 225 0
0 -225z m518 3 l-3 -223 -222 -3 -223 -2 0 225 0 225 225 0 225 0 -2 -222z
m512 -3 l0 -225 -225 0 -225 0 0 225 0 225 225 0 225 0 0 -225z m510 0 l0
-225 -222 2 -223 3 -3 223 -2 222 225 0 225 0 0 -225z m518 3 l-3 -223 -222
-3 -223 -2 0 225 0 225 225 0 225 0 -2 -222z m512 -3 l0 -225 -225 0 -225 0 0
225 0 225 225 0 225 0 0 -225z m510 0 l0 -225 -225 0 -225 0 0 225 0 225 225
0 225 0 0 -225z m510 0 l0 -225 -222 2 -223 3 -3 223 -2 222 225 0 225 0 0
-225z m518 3 l-3 -223 -222 -3 -223 -2 0 225 0 225 225 0 225 0 -2 -222z m512
-3 l0 -225 -225 0 -225 0 0 225 0 225 225 0 225 0 0 -225z m510 0 l0 -225
-222 2 -223 3 -3 223 -2 222 225 0 225 0 0 -225z m518 3 l-3 -223 -222 -3
-223 -2 0 225 0 225 225 0 225 0 -2 -222z m512 -3 l0 -225 -225 0 -225 0 0
225 0 225 225 0 225 0 0 -225z m510 0 l0 -225 -225 0 -225 0 0 225 0 225 225
0 225 0 0 -225z m510 0 l0 -225 -222 2 -223 3 -3 223 -2 222 225 0 225 0 0
-225z m518 3 l-3 -223 -222 -3 -223 -2 0 225 0 225 225 0 225 0 -2 -222z m502
-3 l0 -225 -220 0 -220 0 0 225 0 225 220 0 220 0 0 -225z m518 3 l-3 -223
-225 0 -225 0 -3 223 -2 222 230 0 230 0 -2 -222z m510 0 l-3 -223 -222 -3
-223 -2 0 225 0 225 225 0 225 0 -2 -222z m512 -3 l0 -225 -225 0 -225 0 0
225 0 225 225 0 225 0 0 -225z m510 0 l0 -225 -222 2 -223 3 -3 223 -2 222
225 0 225 0 0 -225z m208 3 l-3 -223 -67 -3 -68 -3 0 226 0 225 70 0 70 0 -2
-222z m-10968 -513 l0 -226 -98 3 -97 3 -3 223 -2 222 100 0 100 0 0 -225z
m510 0 l0 -225 -225 0 -225 0 0 225 0 225 225 0 225 0 0 -225z m520 0 l0 -225
-225 0 -225 0 0 225 0 225 225 0 225 0 0 -225z m510 0 l0 -225 -225 0 -225 0
0 225 0 225 225 0 225 0 0 -225z m510 0 l0 -225 -225 0 -225 0 0 225 0 225
225 0 225 0 0 -225z m520 0 l0 -225 -225 0 -225 0 0 225 0 225 225 0 225 0 0
-225z m510 0 l0 -225 -225 0 -225 0 0 225 0 225 225 0 225 0 0 -225z m510 0
l0 -225 -225 0 -225 0 0 225 0 225 225 0 225 0 0 -225z m510 0 l0 -225 -225 0
-225 0 0 225 0 225 225 0 225 0 0 -225z m520 0 l0 -225 -225 0 -225 0 0 225 0
225 225 0 225 0 0 -225z m510 0 l0 -225 -225 0 -225 0 0 225 0 225 225 0 225
0 0 -225z m510 0 l0 -225 -225 0 -225 0 0 225 0 225 225 0 225 0 0 -225z m520
0 l0 -225 -225 0 -225 0 0 225 0 225 225 0 225 0 0 -225z m510 0 l0 -225 -225
0 -225 0 0 225 0 225 225 0 225 0 0 -225z m510 0 l0 -225 -225 0 -225 0 0 225
0 225 225 0 225 0 0 -225z m510 0 l0 -225 -225 0 -225 0 0 225 0 225 225 0
225 0 0 -225z m520 0 l0 -225 -225 0 -225 0 0 225 0 225 225 0 225 0 0 -225z
m500 0 l0 -225 -220 0 -220 0 0 225 0 225 220 0 220 0 0 -225z m518 3 l-3
-223 -225 0 -225 0 -3 223 -2 222 230 0 230 0 -2 -222z m512 -3 l0 -225 -225
0 -225 0 0 225 0 225 225 0 225 0 0 -225z m510 0 l0 -225 -225 0 -225 0 0 225
0 225 225 0 225 0 0 -225z m510 0 l0 -225 -225 0 -225 0 0 225 0 225 225 0
225 0 0 -225z m208 3 l-3 -223 -67 -3 -68 -3 0 226 0 225 70 0 70 0 -2 -222z
m-10968 -513 l0 -225 -100 0 -100 0 0 218 c0 120 3 222 7 225 3 4 48 7 100 7
l93 0 0 -225z m510 0 l0 -225 -225 0 -225 0 0 225 0 225 225 0 225 0 0 -225z
m520 0 l0 -225 -225 0 -225 0 0 225 0 225 225 0 225 0 0 -225z m510 0 l0 -225
-225 0 -225 0 0 225 0 225 225 0 225 0 0 -225z m510 0 l0 -225 -225 0 -225 0
0 225 0 225 225 0 225 0 0 -225z m518 -2 l2 -223 -225 0 -225 0 0 225 0 225
223 -2 222 -3 3 -222z m512 2 l0 -225 -225 0 -225 0 0 225 0 225 225 0 225 0
0 -225z m510 0 l0 -225 -225 0 -225 0 0 225 0 225 225 0 225 0 0 -225z m510 0
l0 -225 -225 0 -225 0 0 225 0 225 225 0 225 0 0 -225z m520 0 l0 -225 -225 0
-225 0 0 225 0 225 225 0 225 0 0 -225z m510 0 l0 -225 -225 0 -225 0 0 225 0
225 225 0 225 0 0 -225z m510 0 l0 -225 -225 0 -225 0 0 225 0 225 225 0 225
0 0 -225z m518 -2 l2 -223 -225 0 -225 0 0 225 0 225 223 -2 222 -3 3 -222z
m512 2 l0 -225 -225 0 -225 0 0 225 0 225 225 0 225 0 0 -225z m510 0 l0 -225
-225 0 -225 0 0 225 0 225 225 0 225 0 0 -225z m510 0 l0 -225 -225 0 -225 0
0 218 c0 120 3 222 7 225 3 4 105 7 225 7 l218 0 0 -225z m520 0 l0 -225 -225
0 -225 0 0 225 0 225 225 0 225 0 0 -225z m500 0 l0 -225 -220 0 -220 0 0 225
0 225 220 0 220 0 0 -225z m518 -2 l2 -223 -230 0 -230 0 0 218 c0 120 3 222
7 226 4 3 106 5 227 4 l221 -3 3 -222z m512 2 l0 -225 -225 0 -225 0 0 225 0
225 225 0 225 0 0 -225z m510 0 l0 -225 -225 0 -225 0 0 225 0 225 225 0 225
0 0 -225z m510 0 l0 -225 -225 0 -225 0 0 225 0 225 225 0 225 0 0 -225z m208
-2 l2 -223 -70 0 -70 0 0 225 0 226 68 -3 67 -3 3 -222z m-10968 -518 l0 -226
-98 3 -97 3 -3 223 -2 222 100 0 100 0 0 -225z m510 0 l0 -225 -222 2 -223 3
-3 223 -2 222 225 0 225 0 0 -225z m518 3 l-3 -223 -222 -3 -223 -2 0 225 0
225 225 0 225 0 -2 -222z m512 -3 l0 -225 -225 0 -225 0 0 225 0 225 225 0
225 0 0 -225z m510 0 l0 -225 -222 2 -223 3 -3 223 -2 222 225 0 225 0 0 -225z
m518 3 l-3 -223 -222 -3 -223 -2 0 225 0 225 225 0 225 0 -2 -222z m510 0 l-3
-223 -222 -3 -223 -2 0 225 0 225 225 0 225 0 -2 -222z m512 -3 l0 -225 -225
0 -225 0 0 225 0 225 225 0 225 0 0 -225z m510 0 l0 -225 -222 2 -223 3 -3
223 -2 222 225 0 225 0 0 -225z m518 3 l-3 -223 -222 -3 -223 -2 0 225 0 225
225 0 225 0 -2 -222z m512 -3 l0 -225 -225 0 -225 0 0 225 0 225 225 0 225 0
0 -225z m510 0 l0 -225 -222 2 -223 3 -3 223 -2 222 225 0 225 0 0 -225z m518
3 l-3 -223 -222 -3 -223 -2 0 225 0 225 225 0 225 0 -2 -222z m510 0 l-3 -223
-222 -3 -223 -2 0 225 0 225 225 0 225 0 -2 -222z m512 -3 l0 -225 -222 2
-223 3 -3 223 -2 222 225 0 225 0 0 -225z m510 0 l0 -225 -222 2 -223 3 -3
223 -2 222 225 0 225 0 0 -225z m518 3 l-3 -223 -222 -3 -223 -2 0 225 0 225
225 0 225 0 -2 -222z m502 -3 l0 -225 -220 0 -220 0 0 225 0 225 220 0 220 0
0 -225z m518 3 l-3 -223 -225 0 -225 0 -3 223 -2 222 230 0 230 0 -2 -222z
m510 0 l-3 -223 -222 -3 -223 -2 0 225 0 225 225 0 225 0 -2 -222z m512 -3 l0
-225 -222 2 -223 3 -3 223 -2 222 225 0 225 0 0 -225z m510 0 l0 -225 -222 2
-223 3 -3 223 -2 222 225 0 225 0 0 -225z m208 3 l-3 -223 -67 -3 -68 -3 0
226 0 225 70 0 70 0 -2 -222z m-10968 -513 l0 -226 -98 3 -97 3 -3 223 -2 222
100 0 100 0 0 -225z m510 0 l0 -225 -225 0 -225 0 0 225 0 225 225 0 225 0 0
-225z m520 0 l0 -225 -225 0 -225 0 0 225 0 225 225 0 225 0 0 -225z m510 0
l0 -225 -225 0 -225 0 0 225 0 225 225 0 225 0 0 -225z m510 0 l0 -225 -225 0
-225 0 0 225 0 225 225 0 225 0 0 -225z m518 3 l-3 -223 -222 -3 -223 -2 0
225 0 225 225 0 225 0 -2 -222z m512 -3 l0 -225 -225 0 -225 0 0 225 0 225
225 0 225 0 0 -225z m510 0 l0 -225 -225 0 -225 0 0 225 0 225 225 0 225 0 0
-225z m510 0 l0 -225 -225 0 -225 0 0 225 0 225 225 0 225 0 0 -225z m520 0
l0 -225 -225 0 -225 0 0 225 0 225 225 0 225 0 0 -225z m510 0 l0 -225 -225 0
-225 0 0 225 0 225 225 0 225 0 0 -225z m510 0 l0 -225 -225 0 -225 0 0 225 0
225 225 0 225 0 0 -225z m518 3 l-3 -223 -222 -3 -223 -2 0 225 0 225 225 0
225 0 -2 -222z m512 -3 l0 -225 -225 0 -225 0 0 225 0 225 225 0 225 0 0 -225z
m510 0 l0 -225 -225 0 -225 0 0 225 0 225 225 0 225 0 0 -225z m510 0 l0 -225
-225 0 -225 0 0 225 0 225 225 0 225 0 0 -225z m520 0 l0 -225 -225 0 -225 0
0 225 0 225 225 0 225 0 0 -225z m500 0 l0 -225 -220 0 -220 0 0 225 0 225
220 0 220 0 0 -225z m518 3 l-3 -223 -225 0 -225 0 -3 210 c-1 115 0 215 2
222 4 10 57 13 231 13 l225 0 -2 -222z m512 -3 l0 -225 -225 0 -225 0 0 225 0
225 225 0 225 0 0 -225z m510 0 l0 -225 -225 0 -225 0 0 225 0 225 225 0 225
0 0 -225z m510 0 l0 -225 -225 0 -225 0 0 225 0 225 225 0 225 0 0 -225z m208
3 l-3 -223 -67 -3 -68 -3 0 226 0 225 70 0 70 0 -2 -222z m-10968 -513 l0
-225 -100 0 -100 0 0 218 c0 120 3 222 7 225 3 4 48 7 100 7 l93 0 0 -225z
m510 0 l0 -225 -225 0 -225 0 0 225 0 225 225 0 225 0 0 -225z m520 0 l0 -225
-225 0 -225 0 0 225 0 225 225 0 225 0 0 -225z m510 0 l0 -225 -225 0 -225 0
0 225 0 225 225 0 225 0 0 -225z m510 0 l0 -225 -225 0 -225 0 0 225 0 225
225 0 225 0 0 -225z m518 -2 l2 -223 -225 0 -225 0 0 225 0 225 223 -2 222 -3
3 -222z m512 2 l0 -225 -225 0 -225 0 0 225 0 225 225 0 225 0 0 -225z m510 0
l0 -225 -225 0 -225 0 0 225 0 225 225 0 225 0 0 -225z m510 0 l0 -225 -225 0
-225 0 0 225 0 225 225 0 225 0 0 -225z m520 0 l0 -225 -225 0 -225 0 0 225 0
225 225 0 225 0 0 -225z m510 0 l0 -225 -225 0 -225 0 0 225 0 225 225 0 225
0 0 -225z m510 0 l0 -225 -225 0 -225 0 0 225 0 225 225 0 225 0 0 -225z m518
-2 l2 -223 -225 0 -225 0 0 225 0 225 223 -2 222 -3 3 -222z m512 2 l0 -225
-225 0 -225 0 0 225 0 225 225 0 225 0 0 -225z m510 0 l0 -225 -225 0 -225 0
0 225 0 225 225 0 225 0 0 -225z m510 0 l0 -225 -225 0 -225 0 0 225 0 225
225 0 225 0 0 -225z m520 0 l0 -225 -225 0 -225 0 0 225 0 225 225 0 225 0 0
-225z m500 0 l0 -225 -220 0 -220 0 0 225 0 225 220 0 220 0 0 -225z m518 -2
l2 -223 -230 0 -230 0 0 218 c0 120 3 222 7 226 4 3 106 5 227 4 l221 -3 3
-222z m512 2 l0 -225 -225 0 -225 0 0 225 0 225 225 0 225 0 0 -225z m510 0
l0 -225 -225 0 -225 0 0 225 0 225 225 0 225 0 0 -225z m510 0 l0 -225 -225 0
-225 0 0 225 0 225 225 0 225 0 0 -225z m208 -2 l2 -223 -70 0 -70 0 0 225 0
226 68 -3 67 -3 3 -222z m-10968 -513 l0 -231 -97 3 -98 3 -3 215 c-1 118 0
220 2 227 4 9 33 13 101 13 l95 0 0 -230z m510 0 l0 -230 -222 2 -223 3 -3
215 c-1 118 0 220 2 227 4 10 56 13 226 13 l220 0 0 -230z m515 0 l0 -225
-222 -3 -223 -2 0 230 0 230 223 -2 222 -3 0 -225z m510 0 l0 -225 -220 0
-220 0 -3 215 c-1 118 0 220 3 227 3 11 51 13 222 11 l218 -3 0 -225z m515 0
l0 -230 -222 2 -223 3 -3 215 c-1 118 0 220 2 227 4 10 56 13 226 13 l220 0 0
-230z m515 0 l0 -225 -222 -3 -223 -2 0 230 0 230 223 -2 222 -3 0 -225z m510
0 l0 -225 -222 -3 -223 -2 0 230 0 230 223 -2 222 -3 0 -225z m515 0 l0 -230
-222 2 -223 3 -3 215 c-1 118 0 220 2 227 4 10 56 13 226 13 l220 0 0 -230z
m510 0 l0 -230 -222 2 -223 3 -3 215 c-1 118 0 220 2 227 4 10 56 13 226 13
l220 0 0 -230z m515 0 l0 -225 -222 -3 -223 -2 0 230 0 230 223 -2 222 -3 0
-225z m513 3 l-3 -228 -222 -3 -223 -2 0 230 0 230 225 0 225 0 -2 -227z m512
-3 l0 -230 -222 2 -223 3 -3 215 c-1 118 0 220 2 227 4 10 56 13 226 13 l220
0 0 -230z m515 0 l0 -225 -222 -3 -223 -2 0 230 0 230 223 -2 222 -3 0 -225z
m510 0 l0 -225 -222 -3 -223 -2 0 230 0 230 223 -2 222 -3 0 -225z m510 0 l0
-225 -220 0 -220 0 -3 215 c-1 118 0 220 3 227 3 11 51 13 222 11 l218 -3 0
-225z m515 0 l0 -230 -222 2 -223 3 -3 215 c-1 118 0 220 2 227 4 10 56 13
226 13 l220 0 0 -230z m515 0 l0 -225 -222 -3 -223 -2 0 230 0 230 223 -2 222
-3 0 -225z m505 0 l0 -230 -217 2 -218 3 -3 215 c-1 118 0 220 2 227 4 10 55
13 221 13 l215 0 0 -230z m515 0 l0 -225 -225 0 -225 0 -3 215 c-1 118 0 220
3 227 3 11 52 13 227 11 l223 -3 0 -225z m510 0 l0 -225 -222 -3 -223 -2 0
230 0 230 223 -2 222 -3 0 -225z m510 0 l0 -225 -220 0 -220 0 -3 215 c-1 118
0 220 3 227 3 11 51 13 222 11 l218 -3 0 -225z m515 0 l0 -230 -222 2 -223 3
-3 215 c-1 118 0 220 2 227 4 10 56 13 226 13 l220 0 0 -230z m205 0 l0 -225
-67 -3 -68 -3 0 231 0 231 68 -3 67 -3 0 -225z m-10965 -515 l0 -226 -98 3
-97 3 -3 223 -2 222 100 0 100 0 0 -225z m510 0 l0 -225 -222 2 -223 3 -3 223
-2 222 225 0 225 0 0 -225z m520 0 l0 -225 -225 0 -225 0 0 225 0 225 225 0
225 0 0 -225z m510 0 l0 -225 -225 0 -225 0 0 225 0 225 225 0 225 0 0 -225z
m510 0 l0 -225 -225 0 -225 0 0 225 0 225 225 0 225 0 0 -225z m518 3 l-3
-223 -222 -3 -223 -2 0 225 0 225 225 0 225 0 -2 -222z m512 -3 l0 -225 -225
0 -225 0 0 225 0 225 225 0 225 0 0 -225z m510 0 l0 -225 -225 0 -225 0 0 225
0 225 225 0 225 0 0 -225z m510 0 l0 -225 -225 0 -225 0 0 225 0 225 225 0
225 0 0 -225z m520 0 l0 -225 -225 0 -225 0 0 225 0 225 225 0 225 0 0 -225z
m510 0 l0 -225 -225 0 -225 0 0 225 0 225 225 0 225 0 0 -225z m510 0 l0 -225
-225 0 -225 0 0 225 0 225 225 0 225 0 0 -225z m518 3 l-3 -223 -222 -3 -223
-2 0 225 0 225 225 0 225 0 -2 -222z m512 -3 l0 -225 -225 0 -225 0 0 225 0
225 225 0 225 0 0 -225z m510 0 l0 -225 -225 0 -225 0 0 225 0 225 225 0 225
0 0 -225z m510 0 l0 -225 -222 2 -223 3 -3 223 -2 222 225 0 225 0 0 -225z
m520 0 l0 -225 -225 0 -225 0 0 225 0 225 225 0 225 0 0 -225z m500 0 l0 -225
-220 0 -220 0 0 225 0 225 220 0 220 0 0 -225z m518 3 l-3 -223 -225 0 -225 0
-3 210 c-1 115 0 215 2 222 4 10 57 13 231 13 l225 0 -2 -222z m512 -3 l0
-225 -225 0 -225 0 0 225 0 225 225 0 225 0 0 -225z m510 0 l0 -225 -225 0
-225 0 0 225 0 225 225 0 225 0 0 -225z m510 0 l0 -225 -225 0 -225 0 0 225 0
225 225 0 225 0 0 -225z m208 3 l-3 -223 -67 -3 -68 -3 0 226 0 225 70 0 70 0
-2 -222z m-10968 -513 l0 -225 -100 0 -100 0 0 218 c0 120 3 222 7 225 3 4 48
7 100 7 l93 0 0 -225z m510 0 l0 -225 -225 0 -225 0 0 225 0 225 225 0 225 0
0 -225z m520 0 l0 -225 -225 0 -225 0 0 225 0 225 225 0 225 0 0 -225z m510 0
l0 -225 -225 0 -225 0 0 225 0 225 225 0 225 0 0 -225z m510 0 l0 -225 -225 0
-225 0 0 225 0 225 225 0 225 0 0 -225z m520 0 l0 -225 -225 0 -225 0 0 225 0
225 225 0 225 0 0 -225z m510 0 l0 -225 -225 0 -225 0 0 225 0 225 225 0 225
0 0 -225z m510 0 l0 -225 -225 0 -225 0 0 225 0 225 225 0 225 0 0 -225z m510
0 l0 -225 -225 0 -225 0 0 225 0 225 225 0 225 0 0 -225z m520 0 l0 -225 -225
0 -225 0 0 225 0 225 225 0 225 0 0 -225z m510 0 l0 -225 -225 0 -225 0 0 225
0 225 225 0 225 0 0 -225z m510 0 l0 -225 -225 0 -225 0 0 225 0 225 225 0
225 0 0 -225z m520 0 l0 -225 -225 0 -225 0 0 225 0 225 225 0 225 0 0 -225z
m510 0 l0 -225 -225 0 -225 0 0 225 0 225 225 0 225 0 0 -225z m510 0 l0 -225
-225 0 -225 0 0 225 0 225 225 0 225 0 0 -225z m510 0 l0 -225 -225 0 -225 0
0 225 0 225 225 0 225 0 0 -225z m520 0 l0 -225 -225 0 -225 0 0 225 0 225
225 0 225 0 0 -225z m500 0 l0 -225 -220 0 -220 0 0 225 0 225 220 0 220 0 0
-225z m518 -2 l2 -223 -230 0 -230 0 0 218 c0 120 3 222 7 226 4 3 106 5 227
4 l221 -3 3 -222z m512 2 l0 -225 -225 0 -225 0 0 225 0 225 225 0 225 0 0
-225z m510 0 l0 -225 -225 0 -225 0 0 225 0 225 225 0 225 0 0 -225z m510 0
l0 -225 -225 0 -225 0 0 225 0 225 225 0 225 0 0 -225z m208 -2 l2 -223 -70 0
-70 0 0 225 0 226 68 -3 67 -3 3 -222z m-10968 -508 l0 -225 -100 0 -100 0 0
218 c0 120 3 222 7 225 3 4 48 7 100 7 l93 0 0 -225z m510 0 l0 -225 -225 0
-225 0 0 218 c0 120 3 222 7 225 3 4 105 7 225 7 l218 0 0 -225z m518 -2 l2
-223 -225 0 -225 0 0 225 0 225 223 -2 222 -3 3 -222z m512 2 l0 -225 -225 0
-225 0 0 225 0 225 225 0 225 0 0 -225z m510 0 l0 -225 -225 0 -225 0 0 218
c0 120 3 222 7 225 3 4 105 7 225 7 l218 0 0 -225z m518 -2 l2 -223 -225 0
-225 0 0 225 0 225 223 -2 222 -3 3 -222z m510 0 l2 -223 -225 0 -225 0 0 225
0 225 223 -2 222 -3 3 -222z m512 2 l0 -225 -225 0 -225 0 0 225 0 225 225 0
225 0 0 -225z m510 0 l0 -225 -225 0 -225 0 0 218 c0 120 3 222 7 225 3 4 105
7 225 7 l218 0 0 -225z m518 -2 l2 -223 -225 0 -225 0 0 225 0 225 223 -2 222
-3 3 -222z m512 2 l0 -225 -225 0 -225 0 0 225 0 225 225 0 225 0 0 -225z
m510 0 l0 -225 -225 0 -225 0 0 218 c0 120 3 222 7 225 3 4 105 7 225 7 l218
0 0 -225z m518 -2 l2 -223 -225 0 -225 0 0 225 0 225 223 -2 222 -3 3 -222z
m510 0 l2 -223 -225 0 -225 0 0 225 0 225 223 -2 222 -3 3 -222z m512 2 l0
-225 -225 0 -225 0 0 218 c0 120 3 222 7 225 3 4 105 7 225 7 l218 0 0 -225z
m510 0 l0 -225 -225 0 -225 0 0 218 c0 120 3 222 7 225 3 4 105 7 225 7 l218
0 0 -225z m518 -2 l2 -223 -225 0 -225 0 0 225 0 225 223 -2 222 -3 3 -222z
m502 2 l0 -225 -220 0 -220 0 0 225 0 225 220 0 220 0 0 -225z m518 -2 l2
-223 -230 0 -230 0 0 218 c0 120 3 222 7 226 4 3 106 5 227 4 l221 -3 3 -222z
m510 0 l2 -223 -225 0 -225 0 0 225 0 225 223 -2 222 -3 3 -222z m512 2 l0
-225 -225 0 -225 0 0 218 c0 120 3 222 7 225 3 4 105 7 225 7 l218 0 0 -225z
m510 0 l0 -225 -225 0 -225 0 0 218 c0 120 3 222 7 225 3 4 105 7 225 7 l218
0 0 -225z m208 -2 l2 -223 -70 0 -70 0 0 225 0 226 68 -3 67 -3 3 -222z
m-10968 -518 l0 -226 -98 3 -97 3 -3 223 -2 222 100 0 100 0 0 -225z m510 0
l0 -225 -222 2 -223 3 -3 223 -2 222 225 0 225 0 0 -225z m518 3 l-3 -223
-222 -3 -223 -2 0 225 0 225 225 0 225 0 -2 -222z m512 -3 l0 -225 -225 0
-225 0 0 225 0 225 225 0 225 0 0 -225z m510 0 l0 -225 -225 0 -225 0 0 225 0
225 225 0 225 0 0 -225z m518 3 l-3 -223 -222 -3 -223 -2 0 225 0 225 225 0
225 0 -2 -222z m512 -3 l0 -225 -225 0 -225 0 0 225 0 225 225 0 225 0 0 -225z
m510 0 l0 -225 -225 0 -225 0 0 225 0 225 225 0 225 0 0 -225z m510 0 l0 -225
-222 2 -223 3 -3 223 -2 222 225 0 225 0 0 -225z m520 0 l0 -225 -225 0 -225
0 0 225 0 225 225 0 225 0 0 -225z m510 0 l0 -225 -225 0 -225 0 0 225 0 225
225 0 225 0 0 -225z m510 0 l0 -225 -225 0 -225 0 0 225 0 225 225 0 225 0 0
-225z m518 3 l-3 -223 -222 -3 -223 -2 0 225 0 225 225 0 225 0 -2 -222z m512
-3 l0 -225 -225 0 -225 0 0 225 0 225 225 0 225 0 0 -225z m510 0 l0 -225
-225 0 -225 0 0 225 0 225 225 0 225 0 0 -225z m510 0 l0 -225 -222 2 -223 3
-3 223 -2 222 225 0 225 0 0 -225z m520 0 l0 -225 -225 0 -225 0 0 225 0 225
225 0 225 0 0 -225z m500 0 l0 -225 -220 0 -220 0 0 225 0 225 220 0 220 0 0
-225z m518 3 l-3 -223 -225 0 -225 0 -3 210 c-1 115 0 215 2 222 4 10 57 13
231 13 l225 0 -2 -222z m512 -3 l0 -225 -225 0 -225 0 0 225 0 225 225 0 225
0 0 -225z m510 0 l0 -225 -225 0 -225 0 0 225 0 225 225 0 225 0 0 -225z m510
0 l0 -225 -222 2 -223 3 -3 223 -2 222 225 0 225 0 0 -225z m208 3 l-3 -223
-67 -3 -68 -3 0 226 0 225 70 0 70 0 -2 -222z m-10968 -513 l0 -225 -100 0
-100 0 0 218 c0 120 3 222 7 225 3 4 48 7 100 7 l93 0 0 -225z m510 0 l0 -225
-225 0 -225 0 0 225 0 225 225 0 225 0 0 -225z m520 0 l0 -225 -225 0 -225 0
0 225 0 225 225 0 225 0 0 -225z m510 0 l0 -225 -225 0 -225 0 0 225 0 225
225 0 225 0 0 -225z m510 0 l0 -225 -225 0 -225 0 0 225 0 225 225 0 225 0 0
-225z m520 0 l0 -225 -225 0 -225 0 0 225 0 225 225 0 225 0 0 -225z m510 0
l0 -225 -225 0 -225 0 0 225 0 225 225 0 225 0 0 -225z m510 0 l0 -225 -225 0
-225 0 0 225 0 225 225 0 225 0 0 -225z m510 0 l0 -225 -225 0 -225 0 0 225 0
225 225 0 225 0 0 -225z m520 0 l0 -225 -225 0 -225 0 0 225 0 225 225 0 225
0 0 -225z m510 0 l0 -225 -225 0 -225 0 0 225 0 225 225 0 225 0 0 -225z m510
0 l0 -225 -225 0 -225 0 0 225 0 225 225 0 225 0 0 -225z m520 0 l0 -225 -225
0 -225 0 0 225 0 225 225 0 225 0 0 -225z m510 0 l0 -225 -225 0 -225 0 0 225
0 225 225 0 225 0 0 -225z m510 0 l0 -225 -225 0 -225 0 0 225 0 225 225 0
225 0 0 -225z m510 0 l0 -225 -225 0 -225 0 0 225 0 225 225 0 225 0 0 -225z
m520 0 l0 -225 -225 0 -225 0 0 225 0 225 225 0 225 0 0 -225z m500 0 l0 -225
-220 0 -220 0 0 225 0 225 220 0 220 0 0 -225z m518 -2 l2 -223 -230 0 -230 0
0 218 c0 120 3 222 7 226 4 3 106 5 227 4 l221 -3 3 -222z m512 2 l0 -225
-225 0 -225 0 0 225 0 225 225 0 225 0 0 -225z m510 0 l0 -225 -225 0 -225 0
0 225 0 225 225 0 225 0 0 -225z m510 0 l0 -225 -225 0 -225 0 0 225 0 225
225 0 225 0 0 -225z m208 -2 l2 -223 -70 0 -70 0 0 225 0 226 68 -3 67 -3 3
-222z m-10968 -508 l0 -226 -97 3 -98 3 -3 210 c-1 115 0 215 2 222 4 9 33 13
101 13 l95 0 0 -225z m510 0 l0 -225 -222 2 -223 3 -3 210 c-1 115 0 215 2
222 4 10 56 13 226 13 l220 0 0 -225z m515 0 l0 -220 -222 -3 -223 -2 0 225 0
225 223 -2 222 -3 0 -220z m515 0 l0 -225 -225 0 -225 0 0 225 0 225 225 0
225 0 0 -225z m510 0 l0 -225 -225 0 -225 0 0 218 c0 120 3 222 7 225 3 4 105
7 225 7 l218 0 0 -225z m515 0 l0 -220 -222 -3 -223 -2 0 225 0 225 223 -2
222 -3 0 -220z m515 0 l0 -225 -225 0 -225 0 0 225 0 225 225 0 225 0 0 -225z
m510 0 l0 -225 -225 0 -225 0 0 225 0 225 225 0 225 0 0 -225z m510 0 l0 -225
-222 2 -223 3 -3 210 c-1 115 0 215 2 222 4 10 56 13 226 13 l220 0 0 -225z
m515 0 l0 -220 -222 -3 -223 -2 0 225 0 225 223 -2 222 -3 0 -220z m515 0 l0
-225 -225 0 -225 0 0 225 0 225 225 0 225 0 0 -225z m510 0 l0 -225 -222 2
-223 3 -3 210 c-1 115 0 215 2 222 4 10 56 13 226 13 l220 0 0 -225z m515 0
l0 -220 -222 -3 -223 -2 0 225 0 225 223 -2 222 -3 0 -220z m515 0 l0 -225
-225 0 -225 0 0 225 0 225 225 0 225 0 0 -225z m510 0 l0 -225 -225 0 -225 0
0 225 0 225 225 0 225 0 0 -225z m510 0 l0 -225 -222 2 -223 3 -3 210 c-1 115
0 215 2 222 4 10 56 13 226 13 l220 0 0 -225z m515 0 l0 -220 -222 -3 -223 -2
0 225 0 225 223 -2 222 -3 0 -220z m505 0 l0 -225 -220 0 -220 0 0 225 0 225
220 0 220 0 0 -225z m515 0 l0 -220 -225 0 -225 0 -3 210 c-1 115 0 215 3 222
3 11 52 13 227 11 l223 -3 0 -220z m515 0 l0 -225 -225 0 -225 0 0 225 0 225
225 0 225 0 0 -225z m510 0 l0 -225 -225 0 -225 0 0 225 0 225 225 0 225 0 0
-225z m510 0 l0 -225 -222 2 -223 3 -3 210 c-1 115 0 215 2 222 4 10 56 13
226 13 l220 0 0 -225z m205 0 l0 -220 -67 -3 -68 -3 0 226 0 226 68 -3 67 -3
0 -220z m-10965 -510 l0 -226 -97 3 -98 3 -3 210 c-1 115 0 215 2 222 4 9 33
13 101 13 l95 0 0 -225z m510 0 l0 -225 -225 0 -225 0 0 225 0 225 225 0 225
0 0 -225z m520 0 l0 -225 -225 0 -225 0 0 225 0 225 225 0 225 0 0 -225z m510
0 l0 -225 -225 0 -225 0 0 225 0 225 225 0 225 0 0 -225z m510 0 l0 -225 -225
0 -225 0 0 225 0 225 225 0 225 0 0 -225z m518 3 l-3 -223 -222 -3 -223 -2 0
225 0 225 225 0 225 0 -2 -222z m512 -3 l0 -225 -225 0 -225 0 0 225 0 225
225 0 225 0 0 -225z m510 0 l0 -225 -225 0 -225 0 0 225 0 225 225 0 225 0 0
-225z m510 0 l0 -225 -225 0 -225 0 0 225 0 225 225 0 225 0 0 -225z m520 0
l0 -225 -225 0 -225 0 0 225 0 225 225 0 225 0 0 -225z m510 0 l0 -225 -225 0
-225 0 0 225 0 225 225 0 225 0 0 -225z m510 0 l0 -225 -225 0 -225 0 0 225 0
225 225 0 225 0 0 -225z m520 0 l0 -225 -225 0 -225 0 0 225 0 225 225 0 225
0 0 -225z m510 0 l0 -225 -225 0 -225 0 0 225 0 225 225 0 225 0 0 -225z m510
0 l0 -225 -225 0 -225 0 0 225 0 225 225 0 225 0 0 -225z m510 0 l0 -225 -225
0 -225 0 0 225 0 225 225 0 225 0 0 -225z m520 0 l0 -225 -225 0 -225 0 0 225
0 225 225 0 225 0 0 -225z m500 0 l0 -225 -220 0 -220 0 0 225 0 225 220 0
220 0 0 -225z m515 0 l0 -220 -225 0 -225 0 -3 210 c-1 115 0 215 3 222 3 11
52 13 227 11 l223 -3 0 -220z m515 0 l0 -225 -225 0 -225 0 0 225 0 225 225 0
225 0 0 -225z m510 0 l0 -225 -225 0 -225 0 0 225 0 225 225 0 225 0 0 -225z
m510 0 l0 -225 -225 0 -225 0 0 225 0 225 225 0 225 0 0 -225z m205 0 l0 -220
-67 -3 -68 -3 0 226 0 226 68 -3 67 -3 0 -220z m-10965 -510 l0 -225 -100 0
-100 0 0 218 c0 120 3 222 7 225 3 4 48 7 100 7 l93 0 0 -225z m510 0 l0 -225
-225 0 -225 0 0 218 c0 120 3 222 7 225 3 4 105 7 225 7 l218 0 0 -225z m518
-2 l2 -223 -225 0 -225 0 0 225 0 225 223 -2 222 -3 3 -222z m512 2 l0 -225
-225 0 -225 0 0 225 0 225 225 0 225 0 0 -225z m510 0 l0 -225 -225 0 -225 0
0 225 0 225 225 0 225 0 0 -225z m518 -2 l2 -223 -225 0 -225 0 0 225 0 225
223 -2 222 -3 3 -222z m512 2 l0 -225 -225 0 -225 0 0 225 0 225 225 0 225 0
0 -225z m510 0 l0 -225 -225 0 -225 0 0 225 0 225 225 0 225 0 0 -225z m510 0
l0 -225 -225 0 -225 0 0 218 c0 120 3 222 7 225 3 4 105 7 225 7 l218 0 0
-225z m520 0 l0 -225 -225 0 -225 0 0 225 0 225 225 0 225 0 0 -225z m510 0
l0 -225 -225 0 -225 0 0 225 0 225 225 0 225 0 0 -225z m510 0 l0 -225 -225 0
-225 0 0 225 0 225 225 0 225 0 0 -225z m518 -2 l2 -223 -225 0 -225 0 0 225
0 225 223 -2 222 -3 3 -222z m512 2 l0 -225 -225 0 -225 0 0 225 0 225 225 0
225 0 0 -225z m510 0 l0 -225 -225 0 -225 0 0 225 0 225 225 0 225 0 0 -225z
m510 0 l0 -225 -225 0 -225 0 0 218 c0 120 3 222 7 225 3 4 105 7 225 7 l218
0 0 -225z m520 0 l0 -225 -225 0 -225 0 0 225 0 225 225 0 225 0 0 -225z m500
0 l0 -225 -220 0 -220 0 0 225 0 225 220 0 220 0 0 -225z m518 -2 l2 -223
-230 0 -230 0 0 218 c0 120 3 222 7 226 4 3 106 5 227 4 l221 -3 3 -222z m512
2 l0 -225 -225 0 -225 0 0 225 0 225 225 0 225 0 0 -225z m510 0 l0 -225 -225
0 -225 0 0 225 0 225 225 0 225 0 0 -225z m510 0 l0 -225 -225 0 -225 0 0 218
c0 120 3 222 7 225 3 4 105 7 225 7 l218 0 0 -225z m208 -2 l2 -223 -70 0 -70
0 0 225 0 226 68 -3 67 -3 3 -222z m-10968 -518 l0 -226 -98 3 -97 3 -3 223
-2 222 100 0 100 0 0 -225z m510 0 l0 -225 -222 2 -223 3 -3 223 -2 222 225 0
225 0 0 -225z m518 3 l-3 -223 -222 -3 -223 -2 0 225 0 225 225 0 225 0 -2
-222z m512 -3 l0 -225 -225 0 -225 0 0 225 0 225 225 0 225 0 0 -225z m510 0
l0 -225 -225 0 -225 0 0 225 0 225 225 0 225 0 0 -225z m518 3 l-3 -223 -222
-3 -223 -2 0 225 0 225 225 0 225 0 -2 -222z m512 -3 l0 -225 -225 0 -225 0 0
225 0 225 225 0 225 0 0 -225z m510 0 l0 -225 -225 0 -225 0 0 225 0 225 225
0 225 0 0 -225z m510 0 l0 -225 -222 2 -223 3 -3 223 -2 222 225 0 225 0 0
-225z m518 3 l-3 -223 -222 -3 -223 -2 0 225 0 225 225 0 225 0 -2 -222z m512
-3 l0 -225 -225 0 -225 0 0 225 0 225 225 0 225 0 0 -225z m510 0 l0 -225
-222 2 -223 3 -3 223 -2 222 225 0 225 0 0 -225z m518 3 l-3 -223 -222 -3
-223 -2 0 225 0 225 225 0 225 0 -2 -222z m512 -3 l0 -225 -225 0 -225 0 0
225 0 225 225 0 225 0 0 -225z m510 0 l0 -225 -225 0 -225 0 0 225 0 225 225
0 225 0 0 -225z m510 0 l0 -225 -222 2 -223 3 -3 223 -2 222 225 0 225 0 0
-225z m518 3 l-3 -223 -222 -3 -223 -2 0 225 0 225 225 0 225 0 -2 -222z m502
-3 l0 -225 -220 0 -220 0 0 225 0 225 220 0 220 0 0 -225z m518 3 l-3 -223
-225 0 -225 0 -3 223 -2 222 230 0 230 0 -2 -222z m512 -3 l0 -225 -225 0
-225 0 0 225 0 225 225 0 225 0 0 -225z m510 0 l0 -225 -225 0 -225 0 0 225 0
225 225 0 225 0 0 -225z m510 0 l0 -225 -222 2 -223 3 -3 223 -2 222 225 0
225 0 0 -225z m208 3 l-3 -223 -67 -3 -68 -3 0 226 0 225 70 0 70 0 -2 -222z
m-10968 -458 l0 -171 -97 3 -98 3 -3 155 c-1 85 0 160 2 167 4 9 32 13 101 13
l95 0 0 -170z m510 0 l0 -170 -222 2 -223 3 -3 168 -2 167 225 0 225 0 0 -170z
m518 3 l-3 -168 -222 -3 -223 -2 0 170 0 170 225 0 225 0 -2 -167z m510 0 l-3
-168 -220 0 -220 0 -3 168 -2 167 225 0 225 0 -2 -167z m512 -3 l0 -170 -222
2 -223 3 -3 168 -2 167 225 0 225 0 0 -170z m518 3 l-3 -168 -222 -3 -223 -2
0 170 0 170 225 0 225 0 -2 -167z m510 0 l-3 -168 -222 -3 -223 -2 0 170 0
170 225 0 225 0 -2 -167z m512 -3 l0 -170 -222 2 -223 3 -3 168 -2 167 225 0
225 0 0 -170z m510 0 l0 -170 -222 2 -223 3 -3 168 -2 167 225 0 225 0 0 -170z
m518 3 l-3 -168 -222 -3 -223 -2 0 170 0 170 225 0 225 0 -2 -167z m510 0 l-3
-168 -222 -3 -223 -2 0 170 0 170 225 0 225 0 -2 -167z m512 -3 l0 -170 -222
2 -223 3 -3 168 -2 167 225 0 225 0 0 -170z m518 3 l-3 -168 -222 -3 -223 -2
0 170 0 170 225 0 225 0 -2 -167z m510 0 l-3 -168 -222 -3 -223 -2 0 170 0
170 225 0 225 0 -2 -167z m510 0 l-3 -168 -220 0 -220 0 -3 168 -2 167 225 0
225 0 -2 -167z m512 -3 l0 -170 -222 2 -223 3 -3 168 -2 167 225 0 225 0 0
-170z m518 3 l-3 -168 -222 -3 -223 -2 0 170 0 170 225 0 225 0 -2 -167z m502
-3 l0 -170 -217 2 -218 3 -3 168 -2 167 220 0 220 0 0 -170z m515 0 l0 -165
-225 0 -225 0 -3 155 c-1 85 0 160 2 167 4 11 52 13 228 11 l223 -3 0 -165z
m513 3 l-3 -168 -222 -3 -223 -2 0 170 0 170 225 0 225 0 -2 -167z m510 0 l-3
-168 -220 0 -220 0 -3 168 -2 167 225 0 225 0 -2 -167z m512 -3 l0 -170 -222
2 -223 3 -3 168 -2 167 225 0 225 0 0 -170z m205 0 l0 -165 -67 -3 -68 -3 0
171 0 171 68 -3 67 -3 0 -165z"/>
</g>
</svg>
