<?xml version="1.0" standalone="no"?>
<!DOCTYPE svg PUBLIC "-//W3C//DTD SVG 20010904//EN"
 "http://www.w3.org/TR/2001/REC-SVG-20010904/DTD/svg10.dtd">
<svg version="1.0" xmlns="http://www.w3.org/2000/svg"
 width="1811.000000pt" height="1217.000000pt" viewBox="0 0 1811.000000 1217.000000"
 preserveAspectRatio="xMidYMid meet">
<metadata>
Created by potrace 1.13, written by Peter Selinger 2001-2015
</metadata>
<g transform="translate(0.000000,1217.000000) scale(0.100000,-0.100000)"
fill="#000000" stroke="none">
<path d="M1102 12098 c-7 -7 -12 -16 -12 -21 0 -5 75 -82 168 -172 l167 -163
-68 -69 c-64 -65 -66 -70 -50 -86 16 -16 21 -14 85 50 l68 68 57 -57 56 -57
-68 -71 c-65 -66 -68 -72 -52 -87 16 -16 21 -13 87 52 l70 70 98 -95 c280
-273 260 -256 279 -236 17 17 11 25 -160 189 -97 95 -177 177 -177 182 0 6 31
42 70 80 66 65 69 70 53 87 -16 18 -20 16 -93 -57 l-76 -75 -54 55 -54 55 74
75 c70 71 73 76 57 92 -16 16 -21 13 -92 -57 l-75 -75 -153 151 c-189 186
-190 187 -205 172z"/>
<path d="M2869 12094 c-11 -13 11 -38 157 -185 l169 -169 -68 -68 c-64 -64
-66 -69 -50 -85 16 -16 21 -14 85 50 l68 68 57 -58 58 -57 -70 -70 c-66 -66
-68 -71 -52 -87 16 -16 21 -14 87 52 l70 69 67 -64 c38 -36 118 -114 180 -174
77 -76 116 -107 127 -103 9 4 16 13 16 21 0 7 -79 91 -176 185 -148 143 -174
173 -165 188 5 10 37 45 70 77 57 57 60 61 44 78 -16 18 -20 16 -93 -57 l-76
-75 -54 55 -54 55 74 75 c70 71 73 76 57 92 -16 16 -21 13 -92 -57 l-75 -75
-168 168 c-92 92 -170 167 -173 167 -4 0 -12 -7 -20 -16z"/>
<path d="M4637 12093 c-16 -17 -9 -26 150 -185 l168 -168 -63 -63 c-65 -65
-71 -77 -49 -95 10 -9 28 4 77 53 36 36 69 65 74 65 6 0 34 -23 63 -52 l53
-52 -72 -73 c-69 -69 -71 -74 -55 -90 16 -16 21 -14 90 55 l72 72 180 -180
c170 -170 180 -179 198 -163 17 16 10 25 -163 198 l-180 180 70 70 c38 38 70
75 70 81 0 6 -7 17 -15 24 -12 10 -26 0 -86 -64 l-72 -77 -59 58 -58 57 75 76
c71 72 74 76 58 93 -17 16 -22 13 -95 -60 l-78 -78 -168 168 c-159 159 -168
166 -185 150z"/>
<path d="M6409 12094 c-11 -13 11 -38 157 -185 l169 -169 -68 -68 c-64 -64
-66 -69 -50 -85 16 -16 21 -14 85 50 l68 68 57 -58 58 -57 -70 -70 c-66 -66
-68 -71 -52 -87 16 -16 21 -14 85 50 37 37 72 67 77 67 5 0 89 -79 185 -175
168 -168 177 -175 193 -158 16 18 8 28 -163 198 l-179 178 71 79 c68 75 71 80
54 96 -17 16 -21 13 -90 -61 l-72 -78 -59 55 -60 54 78 79 c61 62 75 81 65 91
-20 20 -30 15 -105 -60 l-73 -73 -168 168 c-92 92 -170 167 -173 167 -4 0 -12
-7 -20 -16z"/>
<path d="M8179 12094 c-11 -13 11 -38 157 -185 l169 -169 -68 -68 c-64 -64
-66 -69 -50 -85 16 -16 21 -14 84 49 l67 67 56 -49 c31 -26 56 -52 56 -58 0
-6 -30 -41 -67 -78 -64 -64 -66 -69 -50 -85 16 -16 21 -14 90 55 l72 72 180
-180 c170 -170 180 -179 198 -163 17 16 10 25 -163 198 l-180 181 41 39 c22
22 54 57 71 78 29 36 30 40 14 55 -16 16 -21 12 -89 -61 l-72 -78 -58 57 -58
57 75 76 c72 73 75 77 59 94 -17 16 -22 13 -95 -60 l-78 -78 -168 168 c-92 92
-170 167 -173 167 -4 0 -12 -7 -20 -16z"/>
<path d="M9957 12093 c-16 -17 -8 -26 150 -185 l168 -168 -63 -63 c-65 -65
-71 -77 -49 -95 10 -9 28 4 77 53 36 36 69 65 74 65 6 0 34 -23 63 -52 l53
-52 -72 -73 c-69 -69 -71 -74 -55 -90 16 -16 21 -14 90 55 l72 72 180 -180
c170 -170 180 -179 198 -163 17 16 10 25 -163 198 l-180 180 70 70 c73 72 79
85 56 104 -12 10 -28 -1 -87 -64 l-72 -76 -59 58 -58 57 75 76 c71 72 74 76
58 93 -17 16 -21 13 -95 -60 l-78 -77 -168 167 c-159 158 -169 166 -185 150z"/>
<path d="M11717 12093 c-16 -16 -6 -27 156 -184 l172 -167 -68 -69 c-64 -65
-66 -70 -50 -86 16 -16 21 -14 85 50 l68 68 56 -56 56 -56 -68 -72 c-63 -67
-66 -73 -51 -89 16 -15 22 -12 87 53 l70 70 108 -105 c263 -257 250 -246 269
-226 17 17 10 25 -160 189 -98 95 -177 177 -177 182 0 6 31 42 70 80 66 65 69
70 53 87 -16 18 -20 16 -93 -57 l-76 -75 -54 55 -54 55 74 75 c70 71 73 76 57
92 -16 16 -21 13 -92 -57 l-75 -75 -143 140 c-207 204 -199 198 -220 178z"/>
<path d="M13496 12091 c-16 -18 -9 -26 153 -182 l171 -164 -65 -65 c-36 -36
-65 -70 -65 -77 0 -6 7 -16 16 -23 13 -12 25 -3 85 56 l69 68 54 -53 55 -54
-69 -76 c-51 -56 -66 -79 -58 -88 19 -23 36 -14 99 57 l63 71 176 -176 c96
-96 180 -175 186 -175 7 0 17 7 24 15 10 12 -19 44 -170 191 l-181 177 76 77
c71 72 74 76 58 93 -17 16 -21 13 -93 -58 l-76 -75 -54 55 -54 55 73 74 c64
64 73 77 61 90 -7 9 -18 16 -24 16 -6 0 -43 -31 -81 -70 l-69 -69 -171 164
c-165 158 -173 164 -189 146z"/>
<path d="M15276 12093 c-17 -17 -10 -25 156 -185 l173 -167 -68 -68 c-64 -65
-66 -70 -50 -86 16 -16 21 -14 85 50 l68 68 55 -55 55 -55 -65 -70 c-68 -75
-75 -89 -47 -100 13 -5 33 11 83 64 l65 70 115 -115 c62 -63 145 -143 182
-176 64 -57 69 -60 85 -44 15 15 5 28 -161 187 -97 94 -177 176 -177 183 0 6
31 43 70 81 66 65 69 70 53 87 -16 18 -20 16 -93 -57 l-76 -75 -54 55 -54 55
74 75 c70 71 73 76 57 92 -16 16 -21 13 -92 -57 l-75 -75 -108 105 c-246 241
-236 232 -256 213z"/>
<path d="M17052 12098 c-7 -7 -12 -16 -12 -22 0 -5 75 -82 168 -172 l167 -162
-68 -69 c-64 -65 -66 -70 -50 -86 16 -16 21 -14 85 50 l68 68 56 -56 56 -56
-68 -72 c-63 -67 -66 -73 -51 -89 16 -15 22 -12 87 53 l70 70 108 -105 c263
-257 250 -246 269 -226 17 17 10 25 -160 189 -98 95 -177 177 -177 182 0 6 31
42 70 80 66 65 69 70 53 87 -16 18 -20 16 -93 -57 l-76 -75 -54 55 -54 55 74
75 c70 71 73 76 57 92 -16 16 -21 13 -92 -57 l-75 -75 -143 140 c-196 193
-201 197 -215 183z"/>
<path d="M1102 10328 c-7 -7 -12 -17 -12 -22 0 -6 75 -84 167 -173 l168 -162
-68 -68 c-64 -65 -66 -70 -50 -86 16 -16 21 -14 85 50 l68 68 57 -58 58 -57
-68 -68 c-70 -71 -78 -86 -50 -96 12 -5 36 12 84 60 l68 67 182 -177 c146
-142 184 -174 195 -165 8 6 14 17 14 23 0 6 -79 87 -175 179 -96 93 -175 173
-175 178 0 5 31 42 70 82 65 69 68 75 52 90 -15 16 -21 12 -92 -58 l-76 -75
-54 55 -54 55 74 75 c70 71 73 76 57 92 -16 16 -21 13 -92 -57 l-75 -75 -108
105 c-228 223 -237 231 -250 218z"/>
<path d="M2872 10328 c-7 -7 -12 -17 -12 -22 0 -6 75 -83 168 -172 l167 -162
-68 -69 c-64 -65 -66 -70 -50 -86 16 -16 21 -14 85 50 l68 68 57 -58 58 -57
-70 -70 c-66 -66 -68 -71 -52 -87 16 -16 21 -14 86 51 l70 69 183 -176 c138
-132 186 -173 195 -165 7 6 13 16 13 23 0 7 -79 88 -175 180 -96 92 -175 170
-175 174 0 3 31 40 70 82 66 73 69 77 51 93 -17 16 -22 13 -90 -60 l-72 -77
-57 56 -57 57 75 75 c70 71 73 76 57 92 -16 16 -21 13 -92 -57 l-75 -75 -143
140 c-196 193 -201 197 -215 183z"/>
<path d="M4637 10323 c-16 -17 -9 -26 150 -185 l168 -168 -63 -63 c-65 -65
-70 -75 -50 -95 10 -10 27 2 80 55 l68 68 57 -57 56 -56 -66 -73 c-53 -56 -65
-75 -56 -85 20 -24 34 -16 93 51 31 36 63 65 69 65 7 0 91 -79 187 -175 166
-166 175 -174 193 -158 17 16 10 25 -163 198 l-180 180 70 70 c72 72 78 83 58
103 -10 10 -29 -4 -88 -62 l-75 -75 -60 54 -60 54 78 78 c61 62 75 81 65 91
-20 20 -30 15 -105 -60 l-73 -73 -168 168 c-159 159 -168 166 -185 150z"/>
<path d="M6413 10323 c-10 -16 11 -40 155 -185 l167 -168 -68 -68 c-64 -64
-66 -69 -50 -85 16 -16 21 -14 85 50 l68 68 57 -58 58 -57 -70 -70 c-66 -66
-68 -71 -52 -87 16 -16 21 -14 87 52 l70 69 47 -44 c27 -25 109 -105 184 -178
130 -128 136 -132 152 -114 16 18 9 26 -164 197 l-180 178 58 61 c87 90 90 94
67 110 -17 13 -25 7 -91 -62 l-72 -77 -58 57 -58 58 75 75 c70 71 73 76 57 92
-16 16 -21 13 -92 -57 l-75 -75 -168 168 c-92 92 -169 167 -172 167 -3 0 -10
-8 -17 -17z"/>
<path d="M8187 10323 c-16 -17 -9 -26 150 -185 l168 -168 -68 -68 c-64 -64
-66 -69 -50 -85 16 -16 21 -14 85 50 l68 68 57 -58 58 -57 -69 -69 c-59 -60
-68 -72 -56 -85 7 -9 17 -16 22 -16 5 0 36 29 69 65 34 36 66 65 73 65 6 0 90
-79 186 -175 166 -166 175 -174 193 -158 17 16 10 25 -163 198 l-180 180 70
70 c72 72 79 85 56 104 -10 9 -29 -5 -89 -66 l-76 -78 -58 57 -58 58 78 78
c61 61 75 80 65 90 -20 20 -30 15 -105 -60 l-73 -73 -168 168 c-159 159 -168
166 -185 150z"/>
<path d="M9957 10323 c-16 -17 -9 -26 150 -185 l168 -168 -63 -63 c-65 -65
-70 -75 -50 -95 10 -10 27 2 80 55 l67 67 53 -50 c29 -27 55 -52 56 -56 2 -5
-26 -40 -62 -79 -52 -57 -64 -75 -55 -85 20 -24 34 -16 93 51 31 36 63 65 69
65 7 0 91 -79 187 -175 166 -166 175 -174 193 -158 17 16 10 25 -163 198
l-180 180 70 70 c72 72 78 83 58 103 -10 10 -29 -4 -88 -62 l-75 -74 -60 54
-60 54 78 78 c61 61 75 80 65 90 -20 20 -30 15 -105 -60 l-73 -73 -168 168
c-159 159 -168 166 -185 150z"/>
<path d="M11717 10322 c-17 -19 -12 -25 155 -185 l173 -166 -68 -68 c-64 -65
-66 -70 -50 -86 16 -16 21 -14 85 50 l68 68 57 -58 58 -57 -68 -68 c-69 -69
-79 -88 -51 -99 11 -4 38 16 84 62 l69 69 181 -178 c150 -147 183 -176 195
-166 8 7 15 17 15 23 0 6 -79 86 -175 180 -96 93 -175 174 -175 181 0 6 31 43
70 81 66 65 69 70 53 87 -16 18 -20 16 -93 -57 l-76 -75 -54 55 -54 55 74 75
c70 71 73 76 57 92 -16 16 -21 13 -92 -57 l-75 -75 -98 95 c-264 258 -246 243
-265 222z"/>
<path d="M13497 10322 c-16 -18 -9 -26 154 -187 l170 -169 -68 -68 c-64 -64
-66 -69 -50 -85 16 -16 21 -14 87 52 l70 70 55 -56 55 -55 -69 -76 c-67 -72
-69 -76 -52 -92 17 -15 22 -12 85 54 37 38 71 70 75 70 3 0 85 -79 181 -175
166 -166 175 -174 193 -158 17 16 10 25 -163 198 l-180 180 75 75 c71 70 74
75 58 92 -16 18 -20 16 -93 -57 l-76 -75 -54 55 -54 55 74 75 c70 71 73 76 57
92 -16 16 -21 13 -92 -57 l-75 -74 -42 39 c-24 22 -102 97 -174 168 -125 123
-131 127 -147 109z"/>
<path d="M15277 10322 c-17 -19 -12 -25 154 -186 l172 -167 -69 -70 c-65 -65
-67 -70 -51 -86 16 -16 21 -14 87 52 l70 70 57 -57 56 -57 -71 -73 c-55 -57
-69 -77 -60 -86 20 -20 30 -15 100 55 l68 68 178 -178 c171 -171 179 -177 195
-159 16 18 9 26 -158 192 -96 96 -175 179 -175 185 0 6 31 42 70 80 66 65 69
70 53 87 -16 18 -20 16 -93 -57 l-76 -75 -54 55 -54 55 74 75 c70 71 73 76 57
92 -16 16 -21 13 -92 -57 l-75 -74 -62 59 c-35 33 -113 108 -174 168 -107 105
-111 107 -127 89z"/>
<path d="M17046 10323 c-17 -17 -11 -25 156 -185 l173 -167 -68 -68 c-64 -65
-66 -70 -50 -86 16 -16 21 -14 85 50 l68 68 57 -58 58 -57 -68 -68 c-69 -69
-79 -88 -51 -99 11 -4 38 16 84 62 l69 69 181 -178 c149 -145 184 -175 196
-165 8 6 14 16 14 22 0 6 -79 86 -175 180 -96 93 -175 174 -175 181 0 6 31 43
70 81 66 65 69 70 53 87 -16 18 -20 16 -93 -57 l-76 -75 -54 55 -54 55 74 75
c70 71 73 76 57 92 -16 16 -21 13 -92 -57 l-75 -75 -98 95 c-262 256 -246 242
-266 223z"/>
<path d="M9957 8533 c-16 -18 -8 -27 153 -188 l170 -170 -67 -67 c-64 -64 -66
-69 -50 -85 16 -16 21 -14 85 50 l68 67 54 -55 54 -54 -19 -23 c-11 -13 -41
-46 -67 -74 -47 -49 -48 -51 -30 -67 18 -16 22 -14 87 54 l68 70 46 -43 c25
-23 107 -103 182 -176 130 -128 136 -132 152 -114 17 18 10 26 -164 197 l-181
178 73 73 c70 70 72 75 56 91 -16 16 -21 13 -92 -57 l-75 -74 -55 54 -55 54
75 76 c73 73 75 77 57 93 -17 16 -22 13 -87 -53 -38 -39 -74 -70 -80 -70 -5 0
-84 74 -175 165 -159 158 -167 165 -183 148z"/>
<path d="M11722 8538 c-7 -7 -12 -17 -12 -23 0 -5 74 -84 165 -175 l165 -165
-67 -67 c-64 -64 -66 -69 -50 -85 16 -16 21 -14 87 52 l70 70 57 -58 58 -57
-68 -68 c-70 -70 -75 -80 -55 -100 10 -10 28 3 85 60 l73 73 180 -180 c171
-171 181 -179 197 -162 17 16 9 26 -161 196 l-179 179 71 79 c67 74 70 79 54
97 -16 18 -20 15 -89 -60 l-72 -79 -58 57 -58 58 75 75 c70 71 73 76 57 92
-16 16 -21 13 -92 -57 l-74 -74 -28 24 c-16 13 -93 89 -173 167 -115 113 -148
141 -158 131z"/>
<path d="M13497 8533 c-16 -18 -8 -27 153 -188 l170 -170 -67 -67 c-64 -64
-66 -69 -50 -85 16 -16 21 -14 85 49 l67 67 59 -56 59 -55 -72 -72 c-67 -68
-70 -73 -54 -89 16 -16 21 -13 90 55 l73 73 180 -180 c171 -171 181 -179 197
-162 17 16 9 26 -160 195 -97 97 -177 181 -177 186 0 4 32 41 70 80 67 69 69
74 52 89 -17 16 -22 12 -92 -58 l-73 -74 -54 47 c-29 25 -53 50 -53 56 0 6 32
43 72 83 69 69 71 74 55 90 -16 16 -21 14 -90 -55 -40 -40 -77 -72 -82 -72 -5
0 -84 74 -175 165 -159 158 -167 165 -183 148z"/>
<path d="M15277 8533 c-16 -18 -8 -27 153 -188 l170 -170 -67 -67 c-64 -64
-66 -69 -50 -85 16 -16 21 -14 85 50 l68 68 60 -55 59 -54 -73 -74 c-68 -70
-71 -75 -55 -91 16 -16 21 -13 90 55 l73 73 180 -180 c171 -171 181 -179 197
-162 17 16 9 26 -162 197 l-179 179 24 28 c14 15 46 51 73 79 46 49 47 51 29
67 -18 17 -22 14 -92 -59 l-72 -76 -56 56 -57 56 75 75 c70 71 73 76 57 92
-16 16 -21 14 -90 -55 -40 -40 -77 -72 -82 -72 -5 0 -84 74 -175 165 -159 158
-167 165 -183 148z"/>
<path d="M17052 8538 c-7 -7 -12 -17 -12 -23 0 -5 74 -84 165 -175 l165 -165
-67 -67 c-64 -64 -66 -69 -50 -85 16 -16 21 -14 87 52 l70 70 57 -58 58 -57
-68 -68 c-70 -70 -75 -80 -55 -100 10 -10 28 3 85 60 l73 73 180 -180 c171
-171 181 -179 197 -162 17 16 9 26 -161 196 l-179 180 71 79 c69 76 71 80 53
96 -18 16 -22 13 -90 -61 l-71 -78 -57 57 -58 58 75 75 c70 71 73 76 57 92
-16 16 -21 13 -92 -57 l-74 -74 -28 24 c-16 13 -93 89 -173 167 -115 113 -148
141 -158 131z"/>
<path d="M1093 8524 c-4 -12 40 -63 161 -182 l166 -166 -67 -68 c-64 -64 -66
-69 -50 -85 16 -16 21 -14 87 52 l70 70 57 -58 58 -57 -68 -68 c-70 -70 -75
-80 -55 -100 10 -10 28 3 85 60 l73 73 180 -180 c171 -171 181 -179 197 -162
17 16 9 26 -161 196 l-179 179 71 78 c54 59 68 81 60 91 -19 23 -32 15 -100
-59 l-67 -73 -58 57 -58 58 75 75 c70 71 73 76 57 92 -16 16 -21 13 -91 -56
l-75 -74 -68 61 c-37 33 -113 106 -168 161 -55 56 -105 101 -113 101 -7 0 -15
-7 -19 -16z"/>
<path d="M2869 8524 c-12 -15 5 -35 155 -181 l170 -164 -69 -69 c-66 -66 -68
-71 -52 -87 16 -16 21 -14 87 52 l70 70 57 -58 58 -57 -68 -68 c-70 -70 -75
-80 -55 -100 10 -10 28 3 85 60 l73 73 179 -179 c155 -155 182 -178 195 -167
9 8 16 17 16 21 0 4 -80 86 -177 183 l-177 175 73 77 c59 62 70 79 60 91 -6 8
-16 14 -21 14 -5 0 -41 -33 -78 -72 l-69 -73 -58 57 -58 58 75 75 c70 71 73
76 57 92 -16 16 -21 13 -91 -56 l-75 -74 -138 130 c-76 72 -151 145 -167 162
-34 36 -39 37 -57 15z"/>
<path d="M4632 8527 c-9 -10 28 -52 158 -182 l170 -170 -67 -67 c-64 -64 -66
-69 -50 -85 16 -16 21 -14 85 50 l68 67 54 -55 54 -54 -19 -23 c-11 -13 -41
-46 -67 -74 -47 -49 -48 -51 -30 -67 18 -17 22 -15 87 54 l67 71 56 -53 c32
-30 114 -109 183 -177 121 -119 126 -122 142 -104 17 18 11 26 -164 196 l-182
178 74 74 c69 70 72 75 56 91 -16 16 -21 13 -92 -57 l-75 -74 -55 54 -55 54
75 76 c73 73 75 77 57 93 -17 16 -22 13 -87 -53 -38 -39 -74 -70 -80 -70 -6 0
-82 72 -170 160 -88 88 -165 160 -171 160 -6 0 -16 -6 -22 -13z"/>
<path d="M6410 8525 c-11 -14 11 -39 156 -180 l169 -163 -68 -69 c-64 -65 -66
-70 -50 -86 16 -16 21 -14 85 50 l68 68 57 -57 56 -56 -67 -73 c-64 -69 -66
-73 -49 -91 17 -19 19 -18 84 54 l66 72 184 -176 c176 -170 184 -176 202 -160
18 16 12 24 -164 194 l-184 177 75 75 c70 72 73 77 57 93 -16 16 -21 13 -92
-57 l-75 -75 -57 58 -58 57 75 75 c70 71 73 76 57 92 -16 16 -21 13 -92 -57
l-74 -74 -166 162 c-91 89 -169 162 -174 162 -5 0 -14 -7 -21 -15z"/>
<path d="M8181 8526 c-10 -12 18 -44 153 -177 91 -89 166 -167 166 -173 0 -6
-28 -39 -62 -73 -59 -60 -61 -64 -45 -80 16 -16 21 -14 85 50 l68 67 53 -54
54 -55 -66 -74 c-64 -71 -66 -75 -48 -91 18 -16 22 -13 85 56 l66 72 88 -84
c48 -47 130 -127 183 -178 92 -90 96 -92 113 -74 16 19 11 25 -166 196 l-182
176 74 75 c70 71 73 76 57 92 -16 16 -21 13 -92 -57 l-75 -74 -55 54 -55 54
75 76 c73 73 75 77 57 93 -17 16 -22 13 -87 -53 -38 -39 -74 -70 -80 -70 -6 0
-82 72 -170 160 -88 88 -165 160 -171 160 -6 0 -17 -6 -23 -14z"/>
<path d="M13497 6783 c-16 -18 -8 -27 153 -188 l170 -170 -67 -67 c-64 -64
-66 -69 -50 -85 16 -16 21 -14 85 50 l68 67 57 -58 57 -58 -70 -69 c-66 -65
-69 -70 -53 -87 16 -18 20 -16 90 54 l73 73 180 -180 c171 -171 181 -179 197
-162 17 16 9 26 -161 196 l-179 179 31 39 c16 21 49 56 71 77 31 30 38 43 30
53 -20 23 -34 15 -104 -57 -76 -80 -63 -80 -148 -1 l-37 35 77 78 c73 74 77
79 60 95 -16 17 -21 14 -95 -60 l-77 -77 -170 170 c-163 163 -172 170 -188
153z"/>
<path d="M15277 6783 c-16 -18 -8 -27 153 -188 l170 -170 -67 -67 c-64 -64
-66 -69 -50 -85 16 -16 21 -14 85 49 l67 66 59 -54 60 -55 -72 -72 c-68 -69
-71 -74 -55 -90 16 -16 21 -13 90 55 l73 73 180 -180 c171 -171 181 -179 197
-162 17 16 9 26 -162 197 l-179 179 72 79 c53 59 68 82 59 91 -20 20 -35 12
-101 -61 l-65 -71 -53 49 c-29 27 -55 53 -57 57 -2 5 30 42 70 83 69 70 72 75
56 91 -16 16 -21 14 -90 -55 -40 -40 -77 -72 -82 -72 -5 0 -84 74 -175 165
-159 158 -167 165 -183 148z"/>
<path d="M1093 6774 c-4 -11 42 -64 161 -183 l166 -166 -67 -67 c-64 -64 -67
-69 -50 -85 16 -16 21 -14 87 52 l70 70 57 -58 58 -57 -68 -68 c-70 -70 -75
-80 -55 -100 10 -10 28 3 85 60 l73 73 180 -180 c171 -171 181 -179 197 -162
17 16 9 26 -161 196 l-179 180 72 77 c57 61 69 79 60 90 -19 24 -31 17 -101
-58 l-66 -73 -59 57 -58 58 75 75 c70 71 73 76 57 92 -16 16 -21 13 -91 -56
l-74 -74 -29 21 c-15 11 -91 84 -168 161 -77 78 -146 141 -153 141 -7 0 -15
-7 -19 -16z"/>
<path d="M2869 6774 c-12 -14 7 -36 155 -181 l168 -166 -68 -68 c-65 -65 -67
-70 -51 -86 16 -16 21 -14 87 52 l70 70 57 -58 58 -57 -68 -68 c-70 -70 -76
-82 -53 -101 11 -9 28 4 84 61 l71 73 181 -180 c171 -171 181 -179 197 -162
17 16 9 26 -162 197 l-180 180 74 74 c64 64 73 77 61 90 -7 9 -16 16 -21 16
-5 0 -40 -33 -78 -72 l-70 -73 -58 57 -58 58 75 75 c70 71 73 76 57 92 -16 16
-21 13 -91 -56 l-75 -74 -98 91 c-54 50 -129 122 -168 161 -38 39 -72 71 -76
71 -4 0 -13 -7 -20 -16z"/>
<path d="M4631 6776 c-9 -10 24 -48 159 -182 l170 -168 -67 -68 c-64 -64 -66
-69 -50 -85 16 -16 21 -14 85 50 l68 67 53 -54 c62 -63 62 -62 -23 -145 -53
-52 -55 -56 -39 -73 16 -18 20 -16 87 51 l71 70 181 -174 c173 -167 182 -174
198 -156 16 18 8 27 -166 195 l-182 176 74 75 c70 71 73 76 57 92 -16 16 -21
13 -92 -57 l-75 -74 -55 54 -55 54 75 76 c73 73 75 77 57 93 -17 16 -22 13
-87 -53 -38 -39 -74 -70 -80 -70 -6 0 -82 72 -170 160 -88 88 -165 160 -171
160 -6 0 -17 -6 -23 -14z"/>
<path d="M6409 6774 c-12 -14 8 -36 156 -179 l170 -163 -68 -69 -68 -69 21
-19 c21 -19 21 -18 88 48 l68 67 53 -54 54 -55 -66 -73 c-63 -69 -65 -73 -49
-91 16 -18 19 -17 83 54 l67 73 182 -177 c177 -172 184 -177 202 -160 19 17
14 23 -164 194 l-183 177 75 76 c70 72 73 77 57 93 -16 16 -21 13 -92 -57
l-75 -74 -55 54 -55 54 70 71 c38 39 70 75 70 82 0 6 -7 16 -16 23 -13 12 -26
3 -89 -60 l-74 -73 -167 161 c-92 89 -171 162 -175 162 -3 0 -13 -7 -20 -16z"/>
<path d="M8180 6775 c-10 -13 14 -40 154 -176 91 -89 166 -166 166 -172 0 -6
-28 -40 -62 -74 -59 -60 -61 -64 -45 -80 16 -16 21 -14 85 50 l68 67 54 -55
54 -55 -24 -27 c-14 -16 -44 -49 -68 -74 -41 -44 -42 -46 -24 -62 18 -17 22
-15 86 53 l67 71 182 -175 c174 -167 183 -174 201 -158 18 16 11 24 -165 194
l-184 177 75 76 c70 71 73 76 57 92 -16 16 -21 13 -92 -57 l-75 -74 -55 54
-55 54 75 76 c73 73 75 77 57 93 -17 16 -22 13 -87 -53 -38 -39 -74 -70 -79
-70 -5 0 -82 72 -172 160 -89 88 -167 160 -172 160 -5 0 -15 -7 -22 -15z"/>
<path d="M9952 6777 c-9 -10 28 -52 158 -182 l170 -170 -67 -67 c-64 -64 -66
-69 -50 -85 16 -16 21 -14 85 50 l68 67 53 -54 c62 -63 62 -62 -23 -145 -53
-52 -55 -56 -39 -73 16 -18 20 -16 87 51 l71 71 181 -175 c173 -166 182 -173
198 -156 16 17 8 27 -165 195 l-183 177 74 74 c70 71 73 76 57 92 -16 16 -21
13 -92 -57 l-75 -74 -55 54 -55 54 75 76 c73 73 75 77 57 93 -17 16 -22 13
-87 -53 -38 -39 -74 -70 -80 -70 -6 0 -82 72 -170 160 -88 88 -165 160 -171
160 -6 0 -16 -6 -22 -13z"/>
<path d="M11713 6774 c-4 -11 42 -64 161 -183 l166 -166 -67 -67 c-64 -64 -67
-69 -50 -85 16 -16 21 -14 86 51 l70 69 58 -56 58 -56 -67 -68 c-71 -71 -76
-81 -56 -101 10 -10 28 3 85 60 l73 73 180 -180 c171 -171 181 -179 197 -162
17 16 9 26 -161 196 l-179 179 71 78 c56 60 69 80 61 91 -19 23 -32 15 -101
-59 l-67 -73 -58 57 -58 58 75 75 c70 71 73 76 57 92 -16 16 -21 14 -90 -55
-40 -40 -77 -72 -82 -72 -6 0 -82 72 -170 160 -88 88 -166 160 -173 160 -7 0
-15 -7 -19 -16z"/>
<path d="M17043 6774 c-4 -11 42 -64 161 -183 l166 -166 -67 -67 c-64 -64 -67
-69 -50 -85 16 -16 21 -14 87 52 l70 70 57 -58 58 -57 -73 -73 c-68 -69 -71
-74 -55 -90 16 -16 21 -13 90 55 l73 73 180 -180 c171 -171 181 -179 197 -162
17 16 9 26 -161 196 l-179 179 71 78 c54 59 68 81 60 91 -19 23 -32 15 -100
-59 l-67 -73 -58 57 -58 58 75 75 c70 71 73 76 57 92 -16 16 -21 14 -90 -55
-40 -40 -77 -72 -82 -72 -6 0 -82 72 -170 160 -88 88 -166 160 -173 160 -7 0
-15 -7 -19 -16z"/>
<path d="M1102 5008 c-7 -7 -12 -17 -12 -24 0 -7 75 -85 167 -173 l167 -162
-69 -69 c-66 -66 -68 -71 -52 -87 16 -16 21 -14 87 52 l70 70 57 -58 58 -57
-68 -68 c-70 -70 -75 -80 -55 -100 10 -10 28 3 85 60 l73 73 179 -179 c155
-155 182 -178 195 -167 9 8 16 17 16 21 0 4 -80 86 -177 183 l-177 175 72 80
c68 76 71 80 53 96 -18 16 -22 13 -90 -61 l-71 -77 -58 57 -57 57 75 75 c70
71 73 76 57 92 -16 16 -21 13 -92 -57 l-75 -74 -67 64 c-38 36 -115 111 -173
168 -83 80 -108 100 -118 90z"/>
<path d="M2872 5008 c-7 -7 -12 -17 -12 -22 -1 -6 75 -84 167 -173 l168 -162
-68 -68 c-64 -65 -66 -70 -50 -86 16 -16 21 -14 85 50 l68 68 57 -58 58 -57
-68 -68 c-69 -69 -79 -88 -51 -99 11 -4 38 16 84 62 l69 69 181 -178 c149
-145 184 -175 196 -165 8 6 14 16 14 22 0 5 -80 87 -177 182 l-178 172 72 79
c69 75 71 79 55 97 -16 18 -19 16 -89 -60 l-72 -78 -58 57 -58 58 75 75 c70
71 73 76 57 92 -16 16 -21 13 -92 -57 l-75 -75 -98 95 c-243 237 -247 241
-260 228z"/>
<path d="M4637 5003 c-16 -18 -8 -27 148 -183 91 -91 165 -169 165 -175 0 -5
-28 -38 -62 -72 -59 -60 -61 -64 -45 -80 16 -16 21 -14 85 50 l68 67 53 -54
54 -55 -66 -74 c-64 -72 -66 -75 -48 -91 18 -16 22 -14 82 53 35 39 67 71 71
71 5 0 89 -79 187 -175 168 -165 179 -174 194 -157 15 17 6 28 -163 197 l-180
180 71 71 c49 50 70 77 66 88 -11 28 -30 18 -104 -56 l-73 -72 -55 54 -55 54
77 78 c65 66 75 79 63 92 -7 9 -17 16 -22 16 -6 0 -39 -31 -75 -70 -36 -38
-70 -70 -76 -70 -7 0 -86 74 -177 165 -159 158 -167 165 -183 148z"/>
<path d="M8187 5003 c-16 -17 -9 -26 150 -185 l168 -168 -68 -68 c-64 -64 -66
-69 -50 -85 16 -16 21 -14 85 50 l68 68 57 -57 56 -56 -66 -73 c-64 -70 -66
-74 -49 -92 16 -18 19 -17 84 55 l67 73 53 -50 c29 -27 112 -107 184 -178 126
-124 131 -127 147 -109 17 18 10 26 -164 197 l-181 177 73 74 c69 70 72 75 56
91 -16 16 -21 13 -92 -57 l-75 -75 -57 58 -58 57 75 75 c70 71 73 76 57 92
-16 16 -21 13 -92 -57 l-75 -75 -168 168 c-159 159 -168 166 -185 150z"/>
<path d="M9957 5003 c-16 -18 -8 -27 148 -183 91 -91 165 -169 165 -175 0 -5
-28 -38 -62 -72 -59 -60 -61 -64 -45 -80 16 -16 21 -14 85 50 l68 67 53 -54
54 -55 -66 -74 c-64 -71 -66 -75 -48 -91 18 -16 22 -13 84 55 l65 71 29 -20
c15 -11 98 -91 183 -176 146 -148 155 -155 173 -139 17 16 10 25 -163 198
l-180 180 70 70 c71 71 82 91 54 102 -11 4 -39 -17 -90 -68 l-74 -73 -55 54
-55 54 77 78 c73 74 76 79 60 95 -16 16 -21 14 -90 -55 -40 -40 -77 -72 -82
-72 -5 0 -84 74 -175 165 -159 158 -167 165 -183 148z"/>
<path d="M11717 5002 c-17 -18 -11 -25 154 -186 l172 -168 -69 -69 c-65 -65
-67 -70 -51 -86 16 -16 21 -14 87 52 l70 70 57 -58 58 -57 -73 -73 c-68 -69
-71 -74 -55 -90 16 -16 21 -13 90 55 l73 73 180 -180 c171 -171 181 -179 197
-162 17 16 9 26 -162 197 l-179 179 29 33 c16 18 49 54 73 79 41 44 42 46 24
63 -19 16 -22 14 -91 -60 l-72 -77 -57 56 -57 57 75 75 c70 71 73 76 57 92
-16 16 -21 13 -92 -57 l-75 -74 -57 54 c-32 30 -110 106 -174 168 -111 109
-116 112 -132 94z"/>
<path d="M13497 5003 c-16 -18 -8 -27 153 -188 l170 -170 -67 -67 c-64 -64
-66 -69 -50 -85 16 -16 21 -14 86 51 l68 68 59 -55 59 -56 -73 -73 c-68 -70
-71 -75 -55 -91 16 -16 21 -13 90 55 l73 73 181 -180 c171 -171 181 -179 195
-160 14 18 4 30 -166 200 l-180 180 75 75 c71 70 74 75 58 92 -16 18 -20 16
-93 -57 l-76 -75 -54 55 -54 55 74 75 c70 71 73 76 57 92 -16 16 -21 14 -90
-55 -40 -40 -77 -72 -82 -72 -5 0 -84 74 -175 165 -159 158 -167 165 -183 148z"/>
<path d="M15277 5003 c-16 -18 -8 -27 153 -188 l170 -170 -67 -67 c-64 -64
-66 -69 -50 -85 16 -16 21 -14 87 52 l70 70 57 -58 58 -57 -73 -73 c-68 -69
-71 -74 -55 -90 16 -16 21 -13 90 55 l73 73 180 -180 c171 -171 181 -179 197
-162 17 16 9 26 -161 196 -203 203 -195 180 -97 275 57 57 60 61 44 78 -16 18
-20 16 -93 -57 l-76 -75 -54 55 -54 55 74 75 c70 71 73 76 57 92 -16 16 -21
13 -92 -57 l-74 -74 -23 19 c-13 11 -91 86 -174 167 -143 142 -151 148 -167
131z"/>
<path d="M17047 5002 c-17 -18 -11 -25 154 -186 l172 -168 -69 -69 c-65 -65
-67 -70 -51 -86 16 -16 21 -14 87 52 l70 70 57 -58 58 -57 -73 -73 c-68 -69
-71 -74 -55 -90 16 -16 21 -13 90 55 l73 73 180 -180 c171 -171 181 -179 197
-162 17 16 9 26 -162 197 l-179 179 24 28 c14 15 46 51 73 79 46 49 47 51 29
68 -19 16 -22 14 -91 -60 l-72 -77 -57 56 -57 57 75 75 c70 71 73 76 57 92
-16 16 -21 13 -92 -57 l-75 -74 -57 54 c-32 30 -110 106 -174 168 -111 109
-116 112 -132 94z"/>
<path d="M6411 4996 c-9 -11 21 -46 156 -179 l168 -166 -68 -68 c-64 -65 -66
-70 -50 -86 16 -16 21 -14 85 50 l68 68 57 -58 58 -57 -70 -70 c-67 -68 -68
-70 -51 -89 18 -20 19 -20 84 50 35 38 68 68 72 67 5 -2 89 -80 188 -175 172
-165 180 -172 196 -154 16 18 8 27 -166 195 l-182 176 74 75 c70 71 73 76 57
92 -16 16 -21 13 -92 -57 l-75 -75 -57 58 -58 57 75 75 c70 71 73 76 57 92
-16 16 -21 13 -92 -57 l-75 -75 -163 163 c-89 89 -167 162 -173 162 -7 0 -17
-6 -23 -14z"/>
<path d="M13497 3233 c-16 -18 -8 -27 153 -188 l170 -170 -67 -67 c-64 -64
-66 -69 -50 -85 16 -16 21 -14 85 50 l68 67 57 -58 57 -58 -70 -69 c-66 -65
-69 -70 -53 -87 16 -18 20 -16 90 54 l73 73 180 -180 c171 -171 181 -179 197
-162 17 16 9 26 -161 196 l-179 179 31 39 c16 21 49 56 71 77 31 30 38 43 30
53 -20 23 -34 15 -104 -57 -76 -80 -63 -80 -148 -1 l-37 35 77 78 c73 74 76
79 60 95 -16 16 -21 14 -90 -55 -40 -40 -77 -72 -82 -72 -5 0 -84 74 -175 165
-159 158 -167 165 -183 148z"/>
<path d="M15277 3233 c-16 -18 -8 -27 153 -188 l170 -170 -67 -67 c-64 -64
-66 -69 -50 -85 16 -16 21 -14 85 49 l67 66 60 -54 60 -54 -73 -73 c-68 -69
-71 -74 -55 -90 16 -16 21 -13 90 55 l73 73 180 -180 c171 -171 181 -179 197
-162 17 16 9 26 -161 196 l-179 179 50 59 c28 32 60 67 72 77 16 15 18 22 10
33 -20 23 -36 14 -103 -59 l-65 -72 -55 50 c-29 27 -54 53 -55 59 -1 5 31 42
71 82 69 69 71 74 55 90 -16 16 -21 14 -90 -55 -40 -40 -77 -72 -82 -72 -5 0
-84 74 -175 165 -159 158 -167 165 -183 148z"/>
<path d="M17052 3238 c-7 -7 -12 -17 -12 -23 0 -5 74 -84 165 -175 l165 -165
-67 -67 c-64 -64 -66 -69 -50 -85 16 -16 21 -14 87 52 l70 70 57 -58 58 -57
-73 -73 c-68 -69 -71 -74 -55 -90 16 -16 21 -13 90 55 l73 73 180 -180 c171
-171 181 -179 197 -162 17 16 9 26 -161 196 l-179 179 71 78 c68 75 70 79 54
97 -16 18 -19 16 -89 -59 l-72 -79 -58 57 -58 58 75 75 c70 71 73 76 57 92
-16 16 -21 14 -90 -55 -40 -40 -77 -72 -82 -72 -5 0 -83 74 -175 165 -129 129
-169 162 -178 153z"/>
<path d="M1093 3224 c-4 -11 42 -64 161 -183 l166 -166 -67 -67 c-64 -64 -67
-69 -50 -85 16 -16 21 -14 87 52 l70 70 57 -58 58 -57 -68 -68 c-70 -70 -75
-80 -55 -100 10 -10 28 3 85 60 l73 73 180 -180 c171 -171 181 -179 197 -162
17 16 9 26 -161 196 l-179 179 71 78 c56 60 69 80 61 91 -19 23 -32 15 -101
-59 l-67 -73 -58 57 -58 58 75 75 c70 71 73 76 57 92 -16 16 -21 13 -91 -56
l-74 -74 -39 31 c-21 17 -96 89 -168 161 -71 72 -136 131 -143 131 -7 0 -15
-7 -19 -16z"/>
<path d="M2869 3224 c-12 -15 6 -36 155 -181 l168 -165 -68 -69 c-65 -65 -67
-70 -51 -86 16 -16 21 -14 87 52 l70 70 57 -58 58 -57 -68 -68 c-70 -70 -75
-80 -55 -100 10 -10 28 3 85 60 l73 73 180 -180 c171 -171 181 -179 197 -162
17 16 9 26 -162 197 l-180 180 74 74 c64 64 73 77 61 90 -7 9 -16 16 -21 16
-5 0 -40 -33 -78 -72 l-70 -73 -58 57 -58 58 75 75 c70 71 73 76 57 92 -16 16
-21 13 -91 -56 l-75 -74 -108 101 c-59 55 -135 128 -168 161 -33 34 -62 61
-66 61 -4 0 -13 -7 -20 -16z"/>
<path d="M4631 3227 c-8 -11 26 -50 159 -183 l170 -168 -67 -68 c-64 -64 -66
-69 -50 -85 16 -16 21 -14 85 50 l68 67 53 -54 54 -54 -21 -29 c-11 -15 -41
-48 -66 -72 -43 -42 -45 -46 -29 -63 16 -18 20 -16 87 51 l71 70 181 -174
c173 -166 182 -173 198 -156 16 18 8 27 -166 195 l-182 177 74 74 c70 71 73
76 57 92 -16 16 -21 13 -92 -57 l-75 -74 -55 54 -55 54 75 76 c73 73 75 77 57
93 -17 16 -22 13 -87 -53 -38 -39 -74 -70 -80 -70 -6 0 -82 72 -170 160 -88
88 -165 160 -171 160 -6 0 -17 -6 -23 -13z"/>
<path d="M6409 3224 c-11 -14 9 -37 157 -179 l169 -163 -68 -69 -68 -69 21
-19 c21 -19 21 -18 88 48 l68 67 53 -54 54 -55 -66 -73 c-63 -69 -65 -73 -49
-91 16 -18 19 -16 83 54 l66 73 183 -177 c177 -171 184 -177 202 -160 19 17
14 23 -164 194 l-183 177 75 76 c70 72 73 77 57 93 -16 16 -21 13 -92 -57
l-75 -74 -55 54 -55 54 70 71 c38 39 70 75 70 82 0 6 -7 16 -16 23 -13 12 -26
3 -89 -60 l-74 -73 -167 161 c-92 89 -170 162 -174 162 -4 0 -14 -7 -21 -16z"/>
<path d="M8180 3225 c-10 -13 14 -40 154 -176 91 -89 166 -166 166 -172 0 -6
-28 -40 -62 -74 -59 -60 -61 -64 -45 -80 16 -16 21 -14 85 50 l68 67 54 -55
54 -55 -29 -32 c-16 -18 -47 -51 -68 -74 -37 -39 -37 -41 -19 -58 19 -16 22
-14 86 55 l66 71 182 -175 c175 -167 184 -175 202 -159 18 16 11 24 -165 194
l-184 177 75 76 c70 71 73 76 57 92 -16 16 -21 13 -92 -57 l-75 -74 -55 54
-55 54 75 76 c73 73 75 77 57 93 -17 16 -22 13 -87 -53 -38 -39 -74 -70 -79
-70 -5 0 -83 72 -172 160 -89 88 -166 160 -172 160 -5 0 -15 -7 -22 -15z"/>
<path d="M9952 3227 c-9 -10 28 -52 158 -182 l170 -170 -67 -67 c-64 -64 -66
-69 -50 -85 16 -16 21 -14 85 50 l68 67 53 -54 c62 -63 62 -62 -23 -145 -53
-52 -55 -56 -39 -73 16 -18 20 -16 87 51 l71 71 181 -175 c173 -166 182 -173
198 -156 16 17 7 27 -165 195 l-182 177 74 75 c69 70 72 75 56 91 -16 16 -21
13 -92 -57 l-75 -74 -55 54 -55 54 75 76 c73 73 75 77 57 93 -17 16 -22 13
-87 -53 -38 -39 -74 -70 -80 -70 -6 0 -82 72 -170 160 -88 88 -165 160 -171
160 -6 0 -16 -6 -22 -13z"/>
<path d="M11713 3224 c-4 -11 42 -64 161 -183 l166 -166 -67 -67 c-64 -64 -67
-69 -50 -85 16 -16 21 -14 87 52 l70 70 57 -58 58 -57 -73 -73 c-68 -69 -71
-74 -55 -90 16 -16 21 -13 90 55 l73 73 180 -180 c171 -171 181 -179 197 -162
17 16 9 26 -161 196 l-179 179 71 78 c54 59 68 81 60 91 -19 23 -32 15 -100
-59 l-67 -73 -58 57 -58 58 75 75 c70 71 73 76 57 92 -16 16 -21 14 -91 -56
-62 -62 -76 -71 -92 -63 -11 6 -86 78 -169 161 -82 83 -156 151 -163 151 -7 0
-15 -7 -19 -16z"/>
<path d="M1102 1448 c-7 -7 -12 -15 -12 -20 0 -4 75 -81 168 -172 l167 -165
-68 -68 c-64 -65 -66 -70 -50 -86 16 -16 21 -14 85 50 l68 68 56 -56 56 -56
-68 -72 c-63 -67 -66 -73 -51 -89 16 -15 22 -12 86 53 l70 68 181 -173 c172
-164 182 -172 198 -156 16 17 8 27 -160 190 -98 94 -178 176 -178 181 0 6 31
42 70 80 66 65 69 70 53 87 -16 18 -20 16 -93 -57 l-76 -75 -54 55 -54 55 74
75 c70 71 73 76 57 92 -16 16 -21 13 -92 -57 l-75 -75 -168 168 c-92 92 -170
167 -173 167 -3 0 -10 -5 -17 -12z"/>
<path d="M2869 1444 c-11 -13 11 -38 157 -185 l169 -169 -68 -68 c-64 -64 -66
-69 -50 -85 16 -16 21 -14 85 50 l68 68 57 -58 58 -57 -70 -70 c-66 -66 -68
-71 -52 -87 16 -16 21 -14 87 52 l70 69 52 -49 c29 -27 110 -106 180 -174 88
-87 131 -122 142 -118 9 4 16 13 16 20 0 8 -79 91 -175 186 -96 94 -175 174
-175 179 0 4 31 39 70 77 66 65 69 70 53 87 -16 18 -20 16 -93 -57 l-76 -75
-54 55 -54 55 74 75 c70 71 73 76 57 92 -16 16 -21 13 -92 -57 l-75 -75 -168
168 c-92 92 -170 167 -173 167 -4 0 -12 -7 -20 -16z"/>
<path d="M4637 1443 c-16 -17 -8 -27 150 -185 l168 -168 -68 -68 c-65 -65 -67
-69 -49 -85 17 -16 21 -13 82 48 36 36 69 65 74 65 6 0 34 -23 63 -52 l53 -52
-72 -73 c-69 -69 -71 -74 -55 -90 16 -16 21 -14 90 55 l72 72 180 -180 c170
-170 180 -179 198 -163 17 16 10 25 -163 198 l-180 180 51 50 c28 28 60 63 71
78 19 26 19 30 4 45 -14 15 -21 10 -87 -62 l-72 -77 -59 58 -58 57 75 76 c71
72 74 76 58 93 -17 16 -21 13 -95 -60 l-77 -77 -168 167 c-160 157 -170 166
-186 150z"/>
<path d="M6409 1444 c-11 -13 11 -38 157 -185 l169 -169 -68 -68 c-64 -64 -66
-69 -50 -85 16 -16 21 -14 85 50 l68 68 57 -58 58 -57 -70 -70 c-66 -66 -68
-71 -52 -87 16 -16 21 -14 85 50 37 37 72 67 77 67 6 0 89 -79 185 -175 166
-166 175 -174 193 -158 17 16 10 25 -162 197 l-180 181 71 78 c67 74 70 79 54
95 -17 16 -22 13 -90 -60 l-72 -77 -60 54 -59 53 78 79 c73 74 76 79 60 96
-17 16 -22 13 -95 -60 l-78 -78 -168 168 c-92 92 -170 167 -173 167 -4 0 -12
-7 -20 -16z"/>
<path d="M8179 1444 c-11 -13 11 -38 157 -185 l169 -169 -68 -68 c-64 -64 -66
-69 -50 -85 16 -16 21 -14 85 50 l67 67 47 -40 c78 -66 78 -64 -1 -144 -66
-66 -68 -71 -52 -87 16 -16 21 -14 90 55 l72 72 180 -180 c170 -170 180 -179
198 -163 17 16 10 25 -163 198 l-181 181 32 29 c17 17 49 52 71 78 39 46 40
49 24 65 -16 16 -22 12 -89 -61 l-72 -78 -57 58 -58 59 75 74 c71 70 74 75 58
92 -16 18 -20 15 -95 -59 l-78 -78 -168 168 c-92 92 -170 167 -173 167 -4 0
-12 -7 -20 -16z"/>
<path d="M9957 1442 c-16 -16 -8 -26 150 -184 l168 -168 -63 -63 c-65 -65 -71
-77 -49 -95 10 -9 28 4 77 53 36 36 69 65 74 65 6 0 34 -23 63 -52 l53 -52
-72 -73 c-69 -69 -71 -74 -55 -90 16 -16 21 -14 90 55 l72 72 180 -180 c170
-170 180 -179 198 -163 17 16 10 25 -163 198 l-180 180 61 60 c76 76 86 92 65
113 -14 15 -22 9 -87 -62 l-72 -77 -59 58 -58 57 75 76 c71 72 74 76 58 93
-17 16 -21 13 -94 -59 l-77 -77 -169 166 c-159 157 -170 166 -186 149z"/>
<path d="M11717 1443 c-15 -15 -4 -28 156 -184 l172 -167 -68 -69 c-64 -65
-66 -70 -50 -86 16 -16 21 -14 85 50 l68 68 56 -56 55 -55 -67 -73 c-62 -67
-66 -73 -50 -89 15 -15 21 -12 86 53 l70 70 98 -95 c280 -273 260 -256 279
-236 17 17 11 25 -160 189 -97 95 -177 177 -177 182 0 6 31 42 70 80 66 65 69
70 53 87 -16 18 -20 16 -93 -57 l-76 -75 -54 55 -54 55 74 75 c70 71 73 76 57
92 -16 16 -21 13 -92 -57 l-75 -75 -153 151 c-197 195 -189 188 -210 167z"/>
<path d="M13496 1441 c-16 -18 -9 -26 154 -182 l171 -163 -67 -67 c-64 -65
-66 -68 -51 -89 l16 -23 71 68 71 69 54 -54 54 -53 -69 -76 c-52 -57 -66 -78
-58 -88 19 -23 34 -14 98 58 l63 70 177 -175 c97 -97 182 -176 187 -176 6 0
16 7 23 15 11 13 -16 42 -169 192 l-182 176 75 76 c72 73 75 77 59 94 -17 16
-21 13 -93 -58 l-76 -75 -53 54 -54 55 71 77 c68 74 71 78 55 96 -16 18 -20
16 -93 -57 -67 -67 -78 -74 -90 -61 -7 9 -83 83 -170 166 -151 144 -158 149
-174 131z"/>
<path d="M15277 1442 c-16 -18 -10 -26 153 -181 l170 -163 -64 -71 c-61 -67
-64 -73 -49 -90 16 -17 20 -14 85 50 l68 67 54 -53 55 -54 -66 -74 c-63 -70
-65 -75 -49 -91 17 -16 21 -13 85 56 l66 72 95 -96 c52 -52 135 -132 183 -176
83 -76 89 -80 105 -64 16 16 6 27 -166 194 l-184 177 76 74 c72 71 75 76 59
93 -16 18 -20 16 -93 -57 l-76 -75 -54 55 -54 55 73 74 c64 64 73 77 61 90 -7
9 -18 16 -24 16 -6 0 -43 -32 -81 -70 l-70 -70 -115 113 c-233 227 -224 220
-243 199z"/>
<path d="M17048 1443 c-16 -15 -5 -28 155 -184 l172 -167 -68 -69 c-64 -65
-66 -70 -50 -86 16 -16 21 -14 85 50 l68 68 56 -56 55 -55 -67 -73 c-63 -68
-66 -73 -50 -89 16 -16 21 -13 86 54 l69 71 23 -25 c13 -13 94 -92 181 -175
150 -142 159 -149 175 -133 16 17 8 27 -161 189 -97 95 -177 177 -177 182 0 6
31 42 70 80 66 65 69 70 53 87 -16 18 -20 16 -93 -57 l-76 -75 -54 55 -54 55
74 75 c70 71 73 76 57 92 -16 16 -21 13 -92 -57 l-75 -74 -169 167 c-92 92
-170 167 -173 167 -2 0 -11 -7 -20 -17z"/>
</g>
</svg>
