<?xml version="1.0" standalone="no"?>
<!DOCTYPE svg PUBLIC "-//W3C//DTD SVG 20010904//EN"
 "http://www.w3.org/TR/2001/REC-SVG-20010904/DTD/svg10.dtd">
<svg version="1.0" xmlns="http://www.w3.org/2000/svg"
 width="1125.000000pt" height="900.000000pt" viewBox="0 0 1125.000000 900.000000"
 preserveAspectRatio="xMidYMid meet">
<metadata>
Created by potrace 1.13, written by Peter Selinger 2001-2015
</metadata>
<g transform="translate(0.000000,900.000000) scale(0.100000,-0.100000)"
fill="#000000" stroke="none">
<path d="M0 4500 l0 -4500 5625 0 5625 0 0 4500 0 4500 -5625 0 -5625 0 0
-4500z m399 4318 c0 -151 14 -247 51 -357 25 -75 77 -181 88 -181 5 0 17 6 27
14 18 13 18 17 -19 96 -20 45 -47 117 -58 159 -22 83 -35 288 -24 365 l7 46
227 -2 227 -3 2 -85 c7 -269 33 -500 70 -615 20 -64 25 -68 55 -54 l26 11 -19
53 c-10 30 -25 95 -34 146 -17 108 -38 411 -33 489 l3 55 213 3 c150 2 212 -1
212 -9 0 -6 -9 -57 -21 -112 -22 -108 -29 -341 -11 -359 5 -5 20 -6 33 -3 24
6 24 7 24 148 0 102 5 164 19 222 29 127 1 115 276 115 189 0 240 -3 240 -13
0 -7 -8 -64 -17 -127 -18 -121 -25 -530 -10 -582 7 -25 9 -26 37 -17 26 10 29
14 22 42 -20 92 4 583 34 680 5 15 22 17 165 17 100 0 159 -4 159 -10 0 -6 -7
-54 -16 -108 -18 -102 -25 -357 -11 -405 6 -24 11 -26 35 -21 15 4 28 7 29 8
1 1 -2 33 -8 71 -10 73 1 249 25 390 l11 70 204 3 204 2 -7 -47 c-14 -108 -18
-323 -7 -420 16 -151 41 -253 60 -253 40 1 43 13 27 91 -29 136 -40 325 -28
464 7 70 17 135 22 146 10 18 24 19 267 19 l256 0 -7 -52 c-26 -188 -33 -381
-20 -482 5 -35 11 -46 25 -46 42 0 46 8 36 68 -10 64 -1 292 16 422 l12 85
199 3 c110 1 203 -1 207 -5 4 -5 -2 -48 -12 -98 -41 -190 -33 -555 11 -555 43
0 48 8 37 58 -5 26 -10 121 -10 212 -1 134 4 185 22 269 12 58 24 108 27 113
3 4 116 8 251 8 l246 0 -7 -47 c-37 -256 -34 -496 7 -660 10 -39 16 -47 32
-45 35 6 37 17 18 108 -21 110 -23 424 -1 554 l13 85 185 0 c179 0 185 -1 183
-20 -1 -11 -9 -78 -19 -150 -18 -141 -16 -359 4 -407 10 -23 15 -26 34 -19 18
7 22 15 20 37 -11 91 -5 339 11 438 10 59 20 112 23 117 7 12 391 12 398 0 3
-5 1 -46 -5 -92 -7 -46 -12 -147 -12 -224 -1 -144 19 -264 74 -441 19 -63 20
-63 48 -53 l29 10 -19 67 c-55 191 -69 277 -68 424 0 79 6 181 12 228 l12 85
197 3 196 2 7 -77 c8 -88 31 -200 51 -249 11 -25 18 -31 34 -27 11 3 22 9 25
13 2 4 -7 51 -20 105 -15 57 -25 126 -25 166 l0 69 203 -2 202 -3 6 -135 c9
-191 39 -384 81 -518 19 -61 20 -64 46 -57 15 4 28 8 30 9 1 2 -8 41 -22 87
-42 148 -81 439 -74 559 l3 55 267 3 266 2 7 -87 c11 -150 25 -244 51 -353 36
-145 61 -210 82 -210 41 1 42 13 12 106 -43 136 -71 284 -77 422 l-6 122 227
0 227 0 -7 -122 c-10 -185 22 -429 57 -435 8 -2 20 1 27 6 12 7 11 25 -3 107
-17 98 -24 411 -10 434 4 6 96 10 254 10 l247 0 0 -234 c-1 -159 3 -239 10
-246 6 -6 22 -8 36 -5 24 6 24 7 16 73 -9 65 -2 371 9 398 4 11 44 14 193 14
104 0 191 -3 193 -7 2 -5 -2 -46 -9 -93 -27 -179 -12 -370 42 -522 32 -89 37
-95 68 -80 l24 11 -34 98 c-56 166 -67 348 -31 528 l12 60 275 0 c238 0 275
-2 274 -15 -1 -8 -9 -60 -19 -115 -33 -181 -24 -423 20 -574 15 -50 16 -50 46
-39 20 7 28 15 25 25 -17 45 -37 143 -46 229 -12 111 0 276 28 409 l17 80 190
3 c104 1 195 0 201 -2 8 -3 8 -22 -2 -73 -41 -215 -23 -460 47 -649 21 -55 33
-63 62 -41 15 11 15 17 -9 82 -39 107 -56 207 -57 350 0 123 14 261 34 312 8
23 9 23 204 23 l195 0 0 -117 c0 -125 19 -278 47 -376 15 -55 17 -58 42 -52
14 4 27 8 29 10 2 2 -6 41 -17 87 -37 149 -52 395 -27 437 5 8 83 11 263 11
l255 0 -5 -37 c-3 -21 -11 -106 -18 -190 -13 -156 -5 -301 22 -408 10 -40 14
-45 33 -39 35 10 36 17 20 94 -20 91 -20 351 -2 485 l13 90 224 3 223 2 -6
-32 c-14 -75 -18 -405 -7 -492 15 -109 56 -242 82 -264 14 -12 19 -29 19 -64
l0 -48 -690 0 -690 0 0 -55 0 -55 690 0 690 0 0 -662 c0 -365 -5 -690 -10
-723 -49 -321 -61 -416 -67 -517 l-6 -118 31 0 32 0 1 58 c1 31 5 68 9 82 5
14 7 -101 7 -255 l-2 -280 -512 -3 -513 -2 0 -50 0 -50 513 -2 512 -3 3 -755
2 -755 -26 -155 c-23 -133 -26 -173 -21 -285 4 -83 12 -150 24 -185 16 -51 18
-140 21 -1320 2 -696 0 -1415 -3 -1597 l-7 -333 -204 0 c-235 0 -215 -10 -234
115 -6 44 -13 95 -16 113 -4 28 -9 32 -35 32 l-31 0 8 -67 c4 -37 12 -94 19
-125 6 -32 9 -60 7 -63 -3 -3 -126 -5 -272 -5 l-267 0 -7 39 c-7 48 9 254 30
376 8 49 49 222 90 382 73 288 150 666 138 684 -3 5 -16 9 -29 9 -17 0 -26 -7
-29 -22 -3 -13 -19 -98 -36 -190 -16 -92 -65 -308 -109 -480 -85 -338 -108
-472 -118 -670 l-6 -128 -203 0 c-203 0 -203 0 -206 23 -6 42 12 232 31 322
19 95 16 108 -24 103 -16 -3 -23 -18 -37 -88 -20 -97 -38 -248 -38 -315 l0
-45 -187 2 -188 3 -3 40 c-9 107 34 411 89 622 48 185 60 265 66 444 9 249
-27 586 -86 814 -17 68 -19 70 -47 67 -16 -2 -30 -5 -31 -6 -1 -1 4 -26 12
-56 56 -206 89 -481 89 -735 0 -224 -8 -288 -65 -515 -49 -198 -78 -378 -87
-544 l-7 -131 -300 0 -300 0 -9 60 c-16 103 -12 766 6 863 8 45 12 84 10 87
-6 6 -62 7 -62 1 0 -2 -6 -62 -14 -133 -29 -256 -29 -593 0 -831 l7 -52 -494
2 -493 3 -9 35 c-13 53 -12 410 2 545 6 66 23 161 36 210 13 50 27 120 31 158
l7 67 -31 0 c-30 0 -31 -1 -37 -58 -4 -31 -17 -97 -30 -147 -13 -49 -29 -144
-36 -210 -13 -121 -18 -429 -9 -540 l5 -60 -290 0 -290 0 -22 45 c-12 25 -32
88 -45 140 -21 86 -23 117 -23 325 0 261 11 337 90 665 105 436 120 685 58
988 -17 83 -27 95 -62 73 -12 -8 -12 -21 2 -93 60 -303 47 -507 -63 -974 -72
-302 -92 -451 -93 -664 -1 -192 14 -302 58 -429 14 -41 25 -76 25 -78 0 -2
-141 -2 -312 -1 l-313 3 -14 50 c-17 64 -19 341 -3 450 7 44 40 220 74 391 34
171 58 318 55 327 -4 10 -17 17 -29 17 -22 0 -25 -12 -81 -293 -76 -386 -87
-455 -93 -632 -4 -107 -1 -173 9 -228 10 -56 10 -80 3 -83 -6 -2 -133 -3 -281
-2 l-270 3 -3 75 c-6 140 29 408 88 675 51 232 63 335 64 550 0 110 -3 205 -7
211 -3 6 -17 9 -31 7 l-24 -5 -5 -246 c-6 -260 -5 -257 -81 -617 -39 -186 -57
-326 -64 -495 l-7 -155 -250 0 -250 0 -6 85 c-8 106 6 368 25 480 8 46 14 85
13 86 -1 1 -14 5 -29 9 -32 8 -32 7 -54 -140 -10 -65 -17 -193 -19 -315 l-3
-205 -267 -3 -268 -2 6 172 c3 109 12 216 25 288 19 104 38 174 117 440 75
248 105 522 87 776 -7 86 -13 158 -15 160 -1 1 -15 0 -31 -3 l-28 -6 7 -86
c12 -144 8 -388 -10 -506 -19 -129 -50 -255 -110 -455 -75 -246 -100 -390
-111 -632 l-7 -148 -253 0 c-191 0 -255 3 -261 13 -13 21 -6 424 9 521 15 93
12 102 -29 94 -30 -5 -44 -117 -48 -383 l-3 -240 -208 -3 c-123 -1 -211 1
-217 7 -16 16 -24 195 -15 339 9 162 36 330 88 556 85 368 93 521 54 1034 l-7
82 -29 0 -30 0 8 -143 c5 -78 9 -257 9 -397 0 -276 -2 -289 -70 -580 -74 -316
-107 -613 -88 -790 6 -52 8 -98 6 -102 -7 -13 -451 -10 -459 3 -13 22 -16 236
-5 377 6 78 25 221 41 317 17 96 33 208 37 250 l6 75 -30 0 c-30 0 -31 0 -37
-67 -4 -38 -20 -144 -36 -238 -38 -223 -51 -376 -49 -565 l2 -155 -209 0 -209
0 1 270 c1 184 7 313 18 405 70 567 69 564 69 850 -1 151 -5 307 -9 345 -9 69
-9 70 -39 70 -26 0 -30 -4 -28 -25 20 -334 22 -412 13 -576 -9 -163 -20 -260
-66 -634 -9 -69 -19 -254 -23 -415 l-6 -290 -250 0 -250 0 -9 50 c-5 28 -9
163 -9 300 0 209 3 273 21 392 12 78 25 149 28 157 7 17 -42 34 -56 20 -5 -5
-19 -74 -31 -154 -18 -117 -22 -191 -23 -385 -1 -132 3 -273 7 -313 l8 -72
-227 2 -227 3 -32 94 c-17 52 -36 96 -41 98 -6 2 -20 0 -32 -4 -20 -8 -20 -8
8 -96 20 -63 25 -90 16 -93 -6 -2 -101 -3 -211 -2 l-200 3 -13 75 c-19 113
-27 468 -13 601 7 63 26 184 42 268 77 392 79 640 9 1046 -28 161 -26 156 -58
149 -15 -4 -28 -7 -29 -8 -1 -1 11 -77 27 -171 68 -409 67 -598 -5 -975 -47
-248 -58 -350 -57 -560 0 -166 6 -255 28 -388 l7 -42 -289 2 -289 3 0 300 0
300 42 150 c44 155 44 168 -2 163 -11 -2 -21 -12 -23 -23 -2 -11 -8 -24 -13
-29 -5 -6 -9 285 -9 719 0 412 4 725 9 719 10 -11 56 -197 77 -314 8 -47 18
-147 21 -222 l6 -138 28 0 29 0 0 106 c0 160 -25 313 -92 567 -28 108 -32 117
-54 117 l-24 0 0 272 c0 228 2 274 15 288 14 15 14 21 0 53 -22 54 -22 916 0
997 90 326 97 509 29 855 -14 72 -29 139 -35 150 -5 11 -8 91 -7 185 l3 165
242 3 243 2 0 50 0 50 -243 2 -242 3 -2 1050 c-1 593 1 1043 6 1035 5 -8 17
-51 27 -95 23 -102 23 -271 0 -379 -18 -83 -15 -95 26 -96 38 0 70 264 49 409
-15 102 -85 354 -100 359 -6 2 -11 31 -11 68 l0 64 76 0 75 0 -3 53 -3 52 -72
3 -73 3 0 443 c0 243 3 446 7 449 3 4 84 7 179 7 l174 0 -1 -142z m10811 -191
c0 -189 -4 -317 -9 -311 -33 34 -50 324 -31 509 6 66 14 123 17 128 18 30 23
-38 23 -326z"/>
<path d="M877 8053 c-4 -3 -7 -28 -7 -55 l0 -48 821 0 820 0 -3 53 -3 52 -811
3 c-446 1 -814 -1 -817 -5z"/>
<path d="M3160 8005 l0 -55 818 2 817 3 0 50 0 50 -817 3 -818 2 0 -55z"/>
<path d="M5414 8046 c-3 -8 -4 -31 -2 -52 l3 -39 818 -3 817 -2 0 55 0 55
-815 0 c-688 0 -816 -2 -821 -14z"/>
<path d="M7664 8046 c-3 -8 -4 -31 -2 -52 l3 -39 733 -3 733 -2 -3 52 -3 53
-728 3 c-616 2 -728 0 -733 -12z"/>
<path d="M3450 7820 c-29 -7 -29 -14 -7 -120 24 -113 31 -243 18 -348 -12 -98
-25 -156 -84 -382 -89 -341 -122 -925 -66 -1168 12 -50 14 -53 38 -47 35 9 34
7 21 62 -6 26 -14 155 -17 285 -8 368 15 581 102 924 66 260 80 354 71 504 -5
92 -37 287 -48 295 -2 1 -14 -1 -28 -5z"/>
<path d="M9304 7783 c-9 -6 -5 -38 12 -118 42 -200 56 -342 53 -521 l-4 -165
24 -6 c14 -3 26 -1 31 7 16 26 22 226 10 350 -10 111 -47 342 -69 425 -7 30
-34 43 -57 28z"/>
<path d="M8286 7753 c-21 -6 -22 4 18 -188 14 -66 29 -159 32 -207 l7 -88 28
0 c29 0 29 1 29 59 0 110 -62 422 -85 426 -5 2 -18 0 -29 -2z"/>
<path d="M1932 7739 c-16 -6 -22 -14 -18 -26 20 -66 88 -343 100 -412 9 -46
16 -114 16 -151 l0 -68 31 -4 c21 -3 33 0 36 9 9 23 -15 208 -42 328 -34 149
-86 335 -94 334 -3 0 -16 -4 -29 -10z"/>
<path d="M6685 7732 c-11 -2 -23 -7 -28 -11 -4 -4 6 -63 22 -132 30 -127 49
-245 54 -334 2 -46 4 -50 30 -53 l27 -3 0 83 c0 52 -11 136 -30 228 -40 198
-50 227 -75 222z"/>
<path d="M3882 7707 c-15 -6 -21 -17 -18 -26 50 -152 74 -343 59 -479 -5 -45
-7 -85 -4 -87 2 -3 17 -5 32 -5 27 0 27 1 34 87 8 96 1 253 -16 335 -14 72
-50 188 -58 187 -3 0 -16 -5 -29 -12z"/>
<path d="M7066 7711 c-10 -15 19 -147 72 -326 71 -243 86 -322 86 -450 -1
-128 -10 -168 -94 -398 -75 -208 -94 -298 -94 -457 l-1 -125 29 0 29 0 2 120
c3 152 22 240 95 442 77 210 89 259 97 374 7 121 -12 245 -74 457 -39 135 -72
263 -89 350 -3 15 -11 22 -29 22 -13 0 -26 -4 -29 -9z"/>
<path d="M10345 7711 c-3 -6 0 -52 6 -103 20 -161 -4 -364 -72 -603 -31 -112
-30 -124 13 -125 18 0 45 80 84 249 35 155 48 290 40 421 -8 153 -13 170 -42
170 -12 0 -25 -4 -29 -9z"/>
<path d="M5695 7698 c-11 -6 -22 -12 -24 -14 -2 -2 17 -52 43 -112 62 -147 80
-226 73 -329 -6 -81 -6 -81 20 -88 14 -3 28 -3 31 0 15 15 13 193 -2 259 -16
67 -101 281 -115 290 -3 2 -15 0 -26 -6z"/>
<path d="M2901 7691 c-12 -8 -11 -22 7 -98 40 -166 47 -226 47 -405 l0 -178
26 0 c15 0 30 7 33 16 3 9 6 79 6 157 0 150 -16 286 -52 430 -22 88 -32 100
-67 78z"/>
<path d="M1018 7673 c-24 -6 -23 -15 13 -119 44 -129 69 -248 69 -335 0 -79 5
-89 46 -89 17 0 20 150 3 232 -18 92 -92 318 -103 317 -6 -1 -19 -3 -28 -6z"/>
<path d="M2478 7645 c-3 -4 1 -34 9 -68 101 -424 103 -560 13 -829 -85 -253
-116 -460 -107 -698 8 -188 11 -200 49 -200 30 0 31 0 24 43 -15 95 -18 278
-7 382 18 164 46 293 101 456 83 245 88 386 25 689 -44 212 -48 225 -76 228
-14 2 -27 0 -31 -3z"/>
<path d="M6200 7638 c-13 -5 -26 -10 -27 -12 -2 -2 14 -57 36 -122 72 -217 86
-340 55 -492 -8 -42 -60 -210 -114 -372 -100 -299 -136 -424 -165 -583 -18
-99 -24 -258 -12 -329 8 -44 9 -46 35 -39 l27 7 -3 120 c-6 207 26 353 178
804 120 359 135 423 127 579 -6 121 -29 225 -84 372 -27 73 -29 76 -53 67z"/>
<path d="M8737 7583 c4 -37 8 -129 7 -203 -1 -117 -6 -157 -37 -295 -57 -255
-71 -402 -72 -760 0 -261 3 -326 19 -408 18 -98 18 -99 45 -92 14 4 27 8 29
10 2 2 -4 45 -13 97 -34 195 -29 632 10 913 8 55 28 161 45 235 35 152 47 323
33 475 l-8 90 -33 3 -33 3 8 -68z"/>
<path d="M4674 7626 c-3 -7 11 -92 30 -187 20 -96 37 -211 38 -257 l3 -82 33
0 c31 0 32 1 32 43 -1 68 -18 182 -51 345 -30 145 -33 152 -56 152 -13 0 -26
-6 -29 -14z"/>
<path d="M4278 7603 c-10 -2 -18 -8 -18 -11 0 -4 14 -61 31 -127 24 -95 32
-149 36 -257 7 -164 -1 -221 -67 -498 -73 -301 -91 -419 -97 -621 -5 -157 5
-291 23 -320 2 -4 17 -3 32 2 l28 10 -13 62 c-15 74 -17 257 -3 382 14 126 44
280 95 490 24 99 49 214 56 255 16 101 14 307 -5 403 -25 127 -57 237 -70 236
-6 -1 -19 -3 -28 -6z"/>
<path d="M7720 7580 c-29 -8 -29 -5 4 -160 39 -183 49 -283 44 -441 -5 -128
-10 -164 -51 -329 -85 -343 -120 -561 -121 -750 l-1 -125 30 -3 30 -3 1 118
c2 184 46 451 130 785 48 191 59 310 45 467 -11 118 -65 412 -79 437 -4 6 -18
8 -32 4z"/>
<path d="M5197 7573 c-2 -4 6 -66 19 -138 12 -71 28 -192 35 -268 22 -232 -1
-357 -114 -627 -80 -191 -120 -386 -120 -590 1 -143 23 -280 47 -280 7 0 20 6
29 13 17 12 17 16 1 82 -13 56 -15 102 -11 230 7 219 38 350 138 588 86 202
93 241 92 472 -1 172 -5 222 -30 360 -28 157 -28 160 -55 163 -14 2 -28 0 -31
-5z"/>
<path d="M1532 7551 c-11 -7 -11 -19 2 -67 29 -114 56 -276 62 -373 9 -137 -8
-235 -76 -446 -74 -227 -100 -355 -107 -520 -5 -117 13 -328 33 -378 3 -9 16
-12 35 -9 25 4 30 8 25 26 -3 11 -9 50 -15 86 -39 255 -17 454 84 760 78 237
80 248 79 430 0 162 -18 290 -63 458 -12 42 -29 52 -59 33z"/>
<path d="M9845 7523 c-19 -4 -20 -12 -20 -191 0 -172 -3 -198 -32 -332 -73
-333 -92 -434 -108 -580 -21 -186 -17 -414 11 -533 17 -76 18 -78 43 -72 14 4
27 8 29 10 2 1 -5 40 -15 86 -14 66 -18 126 -17 274 1 218 20 363 84 649 22
99 47 220 55 270 22 134 19 430 -4 425 -3 -1 -15 -4 -26 -6z"/>
<path d="M594 7498 c12 -57 28 -388 23 -458 -8 -101 -35 -205 -96 -371 -95
-258 -133 -443 -134 -639 0 -146 16 -240 41 -240 37 0 43 13 32 70 -5 29 -10
105 -10 169 0 191 35 358 129 618 100 273 113 371 91 684 l-13 189 -34 0 c-29
0 -33 -3 -29 -22z"/>
<path d="M10782 7218 c0 -100 -5 -130 -41 -263 -23 -82 -48 -197 -56 -255 -22
-148 -31 -499 -16 -640 15 -147 47 -270 70 -270 39 1 42 13 22 91 -30 117 -45
321 -37 514 10 254 32 400 91 595 20 64 28 117 32 213 l6 127 -35 0 -35 0 -1
-112z"/>
<path d="M8290 6915 c0 -8 -20 -77 -44 -152 -66 -206 -71 -248 -71 -573 0
-157 4 -311 8 -343 8 -55 10 -58 35 -55 l27 3 -5 110 c-9 196 -4 528 9 615 7
47 30 139 51 205 58 181 61 193 43 199 -27 11 -53 6 -53 -9z"/>
<path d="M1035 6784 c-85 -203 -164 -453 -190 -603 -19 -107 -30 -277 -19
-284 5 -3 21 -3 37 0 27 5 27 5 27 92 0 181 64 425 198 758 21 51 21 53 2 63
-30 16 -39 12 -55 -26z"/>
<path d="M6626 6668 c-3 -13 -6 -47 -6 -77 0 -134 -76 -510 -156 -772 -3 -12
4 -20 24 -27 29 -10 29 -9 45 42 62 195 128 511 146 700 16 159 16 156 -18
156 -21 0 -30 -6 -35 -22z"/>
<path d="M9287 6573 c-85 -316 -121 -735 -77 -886 10 -35 14 -38 38 -32 36 9
35 7 23 52 -41 150 -11 496 70 821 17 68 29 125 27 127 -2 2 -15 6 -29 10 -25
6 -26 4 -52 -92z"/>
<path d="M4647 6598 c-32 -126 -47 -294 -46 -506 0 -114 4 -227 7 -252 7 -42
9 -45 37 -45 l30 0 -5 50 c-3 28 -5 151 -5 275 1 223 10 330 42 458 8 35 13
65 11 67 -1 2 -15 6 -29 10 -25 6 -27 4 -42 -57z"/>
<path d="M5585 6548 c-43 -148 -66 -402 -48 -518 8 -53 10 -55 38 -52 17 2 30
4 31 5 1 1 -3 36 -9 77 -13 99 4 293 38 424 13 55 24 101 22 102 -1 1 -14 5
-29 9 -26 7 -28 4 -43 -47z"/>
<path d="M1961 6448 c-20 -200 -50 -428 -65 -485 -13 -50 -13 -54 4 -63 10 -6
23 -10 29 -10 24 0 53 161 86 480 9 85 18 165 21 178 4 19 0 22 -29 22 l-34 0
-12 -122z"/>
<path d="M10156 6458 c-23 -256 -17 -513 14 -593 8 -20 13 -23 32 -16 26 10
26 4 7 171 -10 95 -10 148 2 307 15 205 15 203 -30 203 -15 0 -19 -12 -25 -72z"/>
<path d="M3741 6442 c-45 -170 -66 -288 -75 -417 -5 -71 5 -200 17 -212 3 -2
16 -1 29 2 24 6 24 6 20 124 -5 144 24 345 74 502 3 12 -4 20 -25 27 -30 10
-31 10 -40 -26z"/>
<path d="M2815 6298 c-17 -170 -16 -298 5 -353 8 -20 13 -23 32 -16 18 7 22
15 20 37 -7 83 -1 292 11 384 8 58 13 108 10 113 -2 4 -17 7 -32 7 l-28 0 -18
-172z"/>
<path d="M1220 5480 l0 -50 815 0 815 0 0 50 0 50 -815 0 -815 0 0 -50z"/>
<path d="M3510 5480 l0 -50 815 0 815 0 0 50 0 50 -815 0 -815 0 0 -50z"/>
<path d="M5760 5480 l0 -50 820 0 820 0 0 50 0 50 -820 0 -820 0 0 -50z"/>
<path d="M8010 5480 l0 -50 733 2 732 3 3 48 3 47 -735 0 -736 0 0 -50z"/>
<path d="M4758 5343 c-22 -6 -23 -1 6 -108 57 -210 61 -245 61 -503 l0 -243
23 -6 c13 -3 25 -3 27 -1 13 13 24 304 15 410 -14 167 -80 459 -104 457 -6 -1
-19 -3 -28 -6z"/>
<path d="M1462 5318 c-16 -8 -21 -16 -16 -27 4 -9 27 -73 51 -143 67 -199 113
-454 113 -625 l0 -83 30 0 30 0 0 101 c0 149 -37 380 -91 564 -28 94 -79 225
-87 224 -4 0 -17 -5 -30 -11z"/>
<path d="M582 5291 c-11 -7 -7 -37 22 -162 44 -188 57 -309 46 -410 -11 -99
-28 -162 -106 -403 -36 -109 -64 -208 -62 -220 4 -26 58 -37 58 -11 0 9 27 98
60 199 141 433 146 517 60 884 -33 135 -40 147 -78 123z"/>
<path d="M5992 5281 c-11 -6 -9 -37 9 -162 36 -256 21 -407 -75 -754 -44 -159
-44 -165 -8 -165 28 0 29 1 71 161 97 363 111 518 71 784 -11 72 -20 133 -20
138 0 9 -32 9 -48 -2z"/>
<path d="M6998 5273 c-22 -6 -23 1 6 -129 40 -178 56 -312 56 -473 l0 -151 29
0 28 0 5 85 c7 102 -5 281 -27 407 -27 156 -56 268 -68 267 -7 -1 -20 -3 -29
-6z"/>
<path d="M8088 5273 c-22 -5 -22 6 3 -133 11 -63 23 -185 27 -270 l7 -155 28
-3 c18 -2 29 2 34 14 9 25 -14 302 -37 434 -11 63 -20 116 -20 118 0 3 -21 1
-42 -5z"/>
<path d="M9077 5273 c-10 -3 -16 -10 -14 -17 33 -84 110 -345 128 -431 35
-164 33 -346 -6 -520 -37 -172 -41 -205 -23 -205 35 0 48 28 80 165 29 128 32
155 32 310 0 152 -3 183 -28 290 -28 119 -70 260 -108 363 -19 51 -24 55 -61
45z"/>
<path d="M2362 5263 c-16 -3 -21 -10 -18 -21 13 -43 47 -314 58 -459 l12 -163
29 0 30 0 -6 128 c-11 206 -54 514 -72 517 -6 1 -20 0 -33 -2z"/>
<path d="M3786 5203 c16 -251 43 -502 67 -628 11 -56 14 -60 37 -57 14 2 27 5
28 7 2 2 -5 68 -17 147 -26 180 -51 440 -51 530 l0 68 -34 0 -34 0 4 -67z"/>
<path d="M6451 5173 c-26 -5 -28 12 14 -198 26 -128 29 -160 29 -360 0 -163
-4 -243 -16 -310 -57 -307 -69 -401 -75 -545 -8 -230 19 -438 83 -635 34 -101
29 -96 63 -84 l29 10 -25 71 c-40 116 -72 274 -85 422 -14 166 -1 352 38 563
75 409 76 620 3 971 -12 56 -24 101 -28 101 -3 -1 -17 -4 -30 -6z"/>
<path d="M10230 5173 c-8 -3 -20 -6 -26 -8 -9 -3 -7 -26 6 -82 49 -209 63
-324 64 -518 1 -104 -2 -211 -6 -236 -7 -46 -7 -47 22 -51 37 -5 37 -5 49 137
15 175 -4 383 -61 650 -23 109 -26 115 -48 108z"/>
<path d="M1022 5103 c-16 -3 -21 -10 -18 -21 2 -9 27 -103 55 -208 110 -416
108 -508 -11 -814 -148 -380 -200 -603 -183 -785 7 -75 7 -75 36 -75 l29 0 0
133 c0 197 40 357 169 687 92 232 96 252 95 430 l0 155 -65 249 c-36 137 -69
250 -75 251 -5 1 -19 0 -32 -2z"/>
<path d="M1883 5100 l-21 -9 29 -98 c87 -283 101 -350 106 -508 5 -166 1 -192
-77 -525 -72 -307 -93 -444 -94 -632 -1 -110 3 -171 10 -178 6 -6 22 -8 37 -4
23 5 26 10 19 33 -4 14 -6 87 -5 161 1 160 26 314 107 665 70 304 82 401 67
543 -14 136 -124 552 -147 558 -5 2 -19 -1 -31 -6z"/>
<path d="M7504 5056 c-3 -7 15 -100 40 -207 24 -107 50 -228 58 -269 20 -115
16 -359 -10 -535 -12 -82 -29 -217 -37 -300 -17 -159 -23 -457 -11 -513 7 -28
12 -33 34 -30 l26 3 -2 175 c-3 185 10 352 53 674 42 317 34 444 -51 814 -45
193 -48 202 -71 202 -13 0 -26 -6 -29 -14z"/>
<path d="M5397 5053 c-2 -4 3 -98 11 -208 19 -253 12 -319 -61 -610 -73 -289
-87 -366 -94 -515 -6 -135 4 -222 38 -327 21 -64 32 -73 63 -50 16 11 16 15 2
49 -21 50 -46 198 -46 274 0 111 29 276 96 546 60 242 66 274 70 398 3 74 -1
205 -8 290 l-13 155 -27 3 c-14 2 -28 0 -31 -5z"/>
<path d="M8558 5043 c-10 -2 -18 -6 -18 -9 0 -2 8 -48 17 -102 12 -71 17 -156
17 -317 1 -194 -3 -247 -32 -450 -44 -320 -55 -459 -49 -610 7 -140 24 -249
58 -356 l21 -67 30 10 c21 8 27 15 23 27 -24 59 -57 225 -66 330 -13 153 -1
333 43 641 39 278 48 553 24 740 -24 181 -22 175 -68 163z"/>
<path d="M2844 4987 c-2 -7 20 -115 50 -239 91 -373 101 -433 100 -603 0 -131
-3 -163 -27 -251 -43 -164 -68 -335 -74 -520 -3 -94 -3 -192 1 -217 7 -43 10
-47 34 -47 l27 0 0 192 c0 216 16 340 68 553 30 121 32 142 31 300 0 189 -5
221 -104 628 -50 208 -53 217 -77 217 -13 0 -26 -6 -29 -13z"/>
<path d="M9637 4983 c-3 -5 6 -60 19 -123 53 -249 42 -421 -42 -700 -78 -259
-104 -410 -104 -605 0 -194 41 -415 78 -415 41 1 44 13 23 91 -70 258 -51 537
63 912 65 215 79 302 72 472 -3 100 -13 187 -28 260 -23 104 -25 110 -50 113
-14 2 -28 -1 -31 -5z"/>
<path d="M3340 4827 c0 -124 17 -228 76 -477 33 -141 37 -168 37 -300 1 -125
-3 -161 -27 -260 -73 -307 -69 -284 -70 -480 -1 -102 3 -206 7 -232 8 -45 10
-48 39 -48 30 0 31 0 24 43 -15 93 -18 295 -7 382 7 50 27 153 46 230 49 202
58 273 52 410 -4 87 -16 163 -42 275 -55 234 -74 354 -75 468 l0 102 -30 0
-30 0 0 -113z"/>
<path d="M4203 4783 c-13 -2 -23 -8 -23 -12 0 -4 16 -70 35 -147 56 -221 77
-389 79 -614 0 -107 -2 -236 -7 -286 l-8 -92 27 -6 c14 -4 28 -5 30 -3 3 2 9
58 15 123 21 222 1 560 -46 774 -27 120 -68 270 -74 269 -3 -1 -16 -4 -28 -6z"/>
<path d="M10734 4498 c9 -137 -4 -245 -64 -511 -63 -283 -81 -421 -81 -627 0
-173 13 -272 51 -385 29 -86 31 -88 64 -74 18 9 25 17 20 28 -52 126 -74 253
-74 428 0 214 17 335 105 728 38 173 53 334 41 448 -8 67 -8 67 -38 67 l-31 0
7 -102z"/>
<path d="M3890 4178 c-1 -94 -27 -364 -46 -483 -42 -263 -43 -528 -3 -716 10
-48 12 -50 37 -44 15 4 28 8 30 9 1 2 -5 45 -15 97 -28 152 -23 421 11 634 24
151 54 481 45 489 -6 5 -59 17 -59 14z"/>
<path d="M8135 4146 c-48 -174 -118 -464 -130 -536 -34 -217 -14 -427 60 -603
14 -34 17 -36 40 -25 31 14 31 17 1 92 -42 106 -59 224 -53 371 6 143 23 229
90 482 65 241 62 220 26 225 -17 3 -32 0 -34 -6z"/>
<path d="M2406 4083 c-3 -27 -8 -77 -11 -113 -4 -36 -23 -132 -43 -215 -36
-149 -37 -152 -37 -365 0 -167 4 -235 18 -304 24 -116 31 -130 60 -115 12 7
23 12 24 13 1 1 -7 44 -17 96 -26 122 -36 356 -21 475 6 50 24 144 40 210 25
101 51 277 51 346 0 14 -7 19 -29 19 -27 0 -29 -3 -35 -47z"/>
<path d="M4745 4058 c-2 -7 -17 -114 -34 -238 -58 -420 -61 -522 -20 -700 26
-116 61 -243 69 -253 4 -4 18 -3 33 2 l25 10 -19 63 c-10 35 -31 116 -45 181
-24 108 -26 132 -22 280 5 137 36 410 73 635 6 30 4 32 -25 32 -17 0 -32 -6
-35 -12z"/>
<path d="M10161 3938 c-88 -270 -116 -689 -60 -890 10 -40 24 -46 52 -25 14
11 15 18 2 71 -44 184 -20 522 55 789 l28 98 -25 10 c-13 5 -26 9 -28 9 -2 0
-13 -28 -24 -62z"/>
<path d="M1527 3933 c-27 -46 -82 -401 -97 -623 -10 -156 -1 -343 18 -362 5
-5 19 -5 34 1 24 9 26 13 17 48 -12 52 -11 299 1 424 14 137 46 335 69 429 11
41 18 76 18 77 -8 7 -56 13 -60 6z"/>
<path d="M6946 3818 c-35 -243 -34 -460 4 -635 10 -46 15 -53 35 -53 13 0 27
5 30 10 3 6 -2 47 -11 93 -22 103 -24 358 -5 505 7 57 12 105 10 107 -2 2 -16
6 -30 10 -25 6 -27 4 -33 -37z"/>
<path d="M9075 3788 c-18 -48 -46 -182 -56 -269 -14 -121 -7 -302 15 -404 16
-78 64 -215 75 -215 4 0 16 6 27 14 20 15 20 15 -12 113 -65 192 -68 435 -10
663 24 98 23 110 -17 110 -10 0 -20 -6 -22 -12z"/>
<path d="M5773 3583 c7 -185 25 -325 62 -481 32 -132 39 -146 68 -131 12 7 23
13 25 14 1 1 -9 44 -22 96 -45 170 -76 410 -76 592 l0 77 -32 0 -31 0 6 -167z"/>
<path d="M423 3488 c8 -266 31 -431 77 -553 8 -22 12 -24 35 -13 30 13 30 16
5 96 -29 94 -50 272 -57 490 l-6 192 -30 0 -30 0 6 -212z"/>
<path d="M410 2710 l0 -50 815 0 815 0 0 50 0 50 -815 0 -815 0 0 -50z"/>
<path d="M2730 2710 l0 -50 815 0 815 0 0 50 0 50 -815 0 -815 0 0 -50z"/>
<path d="M5020 2710 l0 -50 815 0 815 0 0 50 0 50 -815 0 -815 0 0 -50z"/>
<path d="M7270 2710 l0 -50 805 0 805 0 0 50 0 50 -805 0 -805 0 0 -50z"/>
<path d="M9350 2710 l0 -50 815 0 815 0 0 50 0 50 -815 0 -815 0 0 -50z"/>
<path d="M6115 2618 c-11 -6 -21 -12 -23 -13 -1 -1 15 -55 37 -121 70 -213
114 -452 127 -681 l7 -123 29 0 28 0 0 78 c0 158 -42 434 -96 627 -32 117 -76
245 -83 245 -3 0 -15 -6 -26 -12z"/>
<path d="M5054 2523 c-9 -6 -9 -24 -3 -65 60 -377 64 -850 10 -1202 -18 -122
-18 -122 24 -128 15 -2 20 5 27 42 60 339 64 840 9 1235 -14 106 -18 120 -36
123 -11 1 -25 -1 -31 -5z"/>
<path d="M5562 2521 c-11 -7 -9 -34 13 -152 15 -79 29 -177 32 -216 l6 -73 33
0 c19 0 34 4 34 9 0 26 -24 182 -47 304 -26 141 -33 153 -71 128z"/>
<path d="M1643 2490 l-21 -9 34 -108 c87 -272 134 -526 134 -717 l0 -116 30 0
c19 0 33 6 37 17 11 28 -16 316 -42 450 -22 116 -96 392 -124 466 -11 29 -15
30 -48 17z"/>
<path d="M10222 2479 c-16 -6 -22 -15 -18 -26 56 -189 76 -260 91 -320 17 -71
18 -73 44 -67 14 4 28 8 30 10 10 8 -107 415 -118 413 -3 0 -16 -4 -29 -10z"/>
<path d="M3894 2428 c3 -29 13 -103 21 -165 37 -277 36 -687 -1 -898 -8 -49
-18 -105 -21 -123 -4 -25 -2 -32 10 -32 8 0 22 -2 30 -6 11 -4 18 14 30 78 58
293 55 763 -5 1131 -11 65 -12 67 -41 67 l-30 0 7 -52z"/>
<path d="M2784 2445 c-4 -8 1 -45 10 -83 62 -261 75 -508 43 -807 -2 -16 4
-20 28 -20 28 0 30 3 39 50 4 28 9 142 9 255 0 213 -10 313 -54 518 -20 95
-23 102 -46 102 -13 0 -26 -7 -29 -15z"/>
<path d="M7511 2451 c-12 -8 -10 -24 12 -103 53 -192 62 -254 61 -418 -1 -108
-7 -188 -21 -265 -11 -60 -17 -114 -13 -118 4 -5 18 -7 31 -5 22 3 26 12 41
98 10 52 21 163 24 245 7 170 -3 253 -56 453 -33 124 -42 137 -79 113z"/>
<path d="M8563 2452 c-9 -6 -9 -28 2 -97 25 -150 36 -428 25 -623 -6 -97 -13
-189 -16 -203 -4 -23 -1 -28 22 -33 17 -5 30 -3 35 5 27 45 31 601 5 799 -9
69 -19 133 -22 143 -6 18 -30 22 -51 9z"/>
<path d="M1102 2371 c-11 -7 -4 -53 38 -242 69 -313 90 -461 90 -639 0 -165
-12 -250 -75 -537 -25 -111 -45 -218 -45 -237 0 -33 2 -36 30 -36 25 0 30 4
30 25 0 14 20 118 45 230 68 311 78 380 78 560 0 207 -24 355 -129 813 -16 73
-28 85 -62 63z"/>
<path d="M9797 2332 c-25 -3 -27 -6 -22 -35 26 -148 57 -376 66 -488 13 -154
6 -260 -35 -482 -25 -134 -46 -313 -46 -393 0 -39 2 -42 30 -46 17 -3 30 -4
30 -4 0 1 5 64 10 141 5 77 23 214 40 305 36 195 47 371 31 523 -14 136 -60
447 -69 467 -4 9 -17 14 -35 12z"/>
<path d="M10810 2317 c0 -6 11 -91 25 -187 51 -364 51 -572 -1 -809 -56 -260
-74 -359 -74 -423 l0 -68 30 0 c29 0 30 1 30 48 0 64 14 145 60 358 71 325 74
496 15 914 -14 96 -25 176 -25 177 0 2 -13 3 -30 3 -17 0 -30 -5 -30 -13z"/>
<path d="M8094 2113 c40 -305 34 -478 -30 -788 -70 -334 -83 -431 -84 -582 0
-140 12 -231 46 -361 17 -60 19 -63 43 -57 14 4 27 8 29 10 2 2 -8 50 -23 107
-20 78 -28 137 -32 243 -6 157 7 275 59 510 74 342 91 539 69 792 -16 174 -15
173 -53 173 l-30 0 6 -47z"/>
</g>
</svg>
