<?xml version="1.0" standalone="no"?>
<!DOCTYPE svg PUBLIC "-//W3C//DTD SVG 20010904//EN"
 "http://www.w3.org/TR/2001/REC-SVG-20010904/DTD/svg10.dtd">
<svg version="1.0" xmlns="http://www.w3.org/2000/svg"
 width="1125.000000pt" height="900.000000pt" viewBox="0 0 1125.000000 900.000000"
 preserveAspectRatio="xMidYMid meet">
<metadata>
Created by potrace 1.13, written by Peter Selinger 2001-2015
</metadata>
<g transform="translate(0.000000,900.000000) scale(0.100000,-0.100000)"
fill="#000000" stroke="none">
<path d="M0 4500 l0 -4500 5625 0 5625 0 0 4500 0 4500 -5625 0 -5625 0 0
-4500z m918 4451 c-1 -5 -142 -163 -313 -351 -171 -189 -313 -347 -316 -353
-7 -10 -236 -37 -244 -28 -8 7 -6 727 2 734 10 11 875 8 871 -2z m4399 3 c-26
-26 -1668 -287 -2692 -428 -844 -117 -2229 -285 -2241 -273 -5 4 596 672 624
695 13 9 461 12 2166 12 1182 0 2147 -3 2143 -6z m1227 -3 c-7 -7 -456 -135
-684 -195 -30 -8 -174 -46 -320 -86 -472 -126 -1106 -281 -1124 -274 -11 4
-21 2 -26 -6 -9 -15 -820 -206 -820 -193 0 5 203 223 364 392 l71 74 585 98
c322 53 698 118 835 143 138 25 266 47 285 49 75 8 844 7 834 -2z m756 -75
c102 -43 390 -166 640 -274 250 -108 561 -239 690 -291 130 -53 237 -100 238
-104 4 -12 -391 -457 -405 -457 -33 0 -855 296 -1304 470 -504 195 -1218 485
-1211 491 4 4 76 26 160 48 84 23 269 75 410 115 141 41 268 76 282 79 14 3
90 4 170 3 l145 -1 185 -79z m1480 -5 c709 -289 2275 -871 2301 -855 5 3 9 1
9 -4 0 -5 21 -17 48 -27 26 -10 53 -22 60 -28 14 -11 18 -292 4 -301 -10 -6
-340 53 -603 108 -660 139 -1240 317 -1884 578 -248 101 -1409 599 -1420 609
-6 6 233 9 635 7 l645 -3 205 -84z m2425 -291 l0 -375 -105 -12 c-58 -6 -148
-14 -200 -18 l-95 -6 -380 139 c-731 268 -1640 620 -1629 631 11 11 526 17
1469 16 l940 0 0 -375z m-4806 -126 c311 -125 567 -227 568 -228 4 -3 -497
-551 -506 -554 -25 -8 -870 262 -1266 406 -238 86 -669 261 -662 268 2 2 199
53 438 113 239 61 524 135 634 165 110 29 206 54 214 55 8 1 269 -101 580
-225z m-2530 159 c-179 -192 -341 -366 -373 -402 l-39 -44 -301 -64 c-675
-143 -1487 -287 -1981 -353 -132 -17 -247 -35 -255 -40 -10 -5 -163 43 -420
130 -223 76 -418 143 -433 149 -27 11 -28 12 -25 83 l3 73 45 8 c25 4 229 27
455 52 815 88 1594 187 2520 320 325 47 642 94 705 104 63 10 119 19 125 20 5
1 -7 -16 -26 -36z m687 -348 c236 -104 861 -341 977 -370 15 -4 27 -11 27 -15
0 -4 -115 -136 -256 -292 -141 -155 -260 -286 -263 -291 -11 -11 -619 197
-1051 361 -339 128 -866 344 -883 361 -4 4 29 16 75 25 181 38 854 189 1028
230 102 25 193 45 204 45 10 1 74 -24 142 -54z m2601 -111 c1155 -449 2377
-837 3363 -1069 250 -59 500 -113 548 -120 20 -3 60 -10 87 -17 l50 -13 0
-160 0 -160 -40 3 c-60 5 -422 66 -765 128 -1225 221 -2507 516 -3642 836
-120 33 -218 65 -218 69 0 8 488 549 495 549 1 0 56 -21 122 -46z m1946 -29
c548 -203 1193 -376 1833 -490 109 -20 215 -39 234 -43 l35 -8 3 -229 c1 -127
0 -239 -2 -250 -3 -11 -19 -36 -36 -56 l-30 -37 -157 33 c-659 138 -1502 367
-2216 601 -215 71 -228 77 -215 94 34 49 384 439 394 440 6 0 77 -25 157 -55z
m-5920 -210 c163 -70 536 -220 788 -318 l57 -22 -280 -310 c-153 -171 -287
-318 -297 -328 -18 -18 -25 -16 -247 48 -645 187 -2003 610 -2148 669 -25 10
-5 15 175 40 408 56 1137 184 1574 275 77 16 149 29 160 30 12 1 109 -37 218
-84z m-2328 -261 c319 -106 573 -194 565 -194 -67 0 -925 106 -1230 153 l-145
22 -3 135 c-1 74 0 140 2 147 4 9 35 1 118 -28 62 -23 374 -128 693 -235z
m4886 171 c435 -148 1241 -378 1957 -559 l323 -82 -241 -264 c-133 -146 -249
-273 -258 -282 -16 -16 -32 -14 -267 41 -487 114 -1006 249 -1445 376 -288 83
-677 202 -696 213 -7 5 81 109 247 292 143 157 259 288 259 293 0 11 10 9 121
-28z m-5543 -276 c75 -12 138 -22 140 -23 4 -4 -278 -321 -288 -324 -6 -2 -10
68 -10 182 0 121 4 186 10 186 6 0 72 -9 148 -21z m4123 -80 c1140 -411 2508
-784 3872 -1056 158 -32 286 -60 285 -64 -4 -9 -471 -529 -475 -529 -14 0
-849 170 -1083 220 -657 141 -1575 361 -2235 535 -481 126 -659 176 -674 188
-8 7 -23 11 -35 9 -29 -3 -461 121 -461 133 1 10 566 643 576 644 3 1 107 -35
230 -80z m-3551 1 c442 -54 818 -92 860 -87 25 3 90 -12 220 -53 579 -183
1581 -481 1879 -560 23 -6 41 -13 38 -16 -9 -9 -372 -34 -662 -45 -822 -30
-1830 51 -2803 226 -133 24 -247 47 -253 51 -7 4 -10 27 -7 59 4 52 6 54 192
263 103 116 192 209 199 207 7 -2 158 -22 337 -45z m7542 -354 c699 -168 1715
-373 2528 -510 l365 -61 3 -268 2 -267 -31 0 c-38 0 -485 56 -846 105 -739
102 -1580 246 -2278 390 -367 76 -469 98 -474 101 -2 2 97 112 220 246 122
134 234 255 247 270 20 22 23 30 13 42 -14 16 -31 19 251 -48z m-8007 -245
c396 -71 1012 -155 1310 -177 50 -4 98 -10 107 -13 13 -5 -9 -35 -105 -139
l-122 -134 -80 7 c-163 12 -787 94 -1325 174 l-45 6 -3 150 c-1 82 0 155 3
163 3 7 13 11 22 8 10 -3 117 -23 238 -45z m3854 -220 c189 -52 505 -135 866
-229 l110 -29 -65 -11 c-182 -31 -473 -63 -775 -84 -237 -17 -1196 -17 -1490
0 -434 25 -1186 85 -1224 98 -8 3 32 53 110 137 68 72 127 134 131 137 4 3 51
2 105 -1 381 -28 905 -36 1278 -19 273 12 695 46 734 59 2 0 101 -26 220 -58z
m-3933 -145 c799 -124 1644 -213 2529 -268 274 -17 1365 -17 1585 0 350 27
732 74 874 107 59 13 63 12 253 -33 106 -26 192 -51 190 -55 -1 -4 -97 -117
-212 -251 l-210 -244 -50 -6 c-112 -12 -912 -16 -1405 -6 -894 17 -1617 53
-2455 120 -440 36 -1242 114 -1272 125 -20 7 -19 535 1 535 8 0 85 -11 172
-24z m8583 -211 c510 -93 1238 -207 1754 -274 120 -16 220 -31 224 -34 3 -3
-103 -121 -236 -263 -132 -141 -238 -261 -235 -266 4 -7 -8 -8 -32 -4 -22 3
-187 26 -369 51 -528 73 -1040 156 -1727 281 -54 9 -98 21 -98 26 0 8 461 527
469 528 3 0 115 -20 250 -45z m-2861 -99 c300 -71 615 -143 936 -212 165 -35
301 -66 303 -68 10 -10 -412 -63 -722 -90 -339 -31 -1106 -74 -1135 -64 -16 5
396 478 416 478 8 0 99 -20 202 -44z m5093 -235 c81 -10 151 -21 158 -25 8 -5
11 -93 11 -303 l0 -295 -52 5 c-29 3 -75 10 -103 16 -27 6 -189 27 -360 46
-170 20 -311 38 -313 40 -6 6 492 535 503 535 6 -1 76 -9 156 -19z m-10671
-65 c353 -38 863 -83 1250 -111 380 -27 1021 -65 1113 -65 32 0 57 -4 55 -9
-1 -5 -102 -117 -223 -249 l-220 -240 -85 -1 c-186 -2 -1284 45 -1310 56 -8 3
-19 5 -25 3 -29 -8 -858 45 -876 56 -11 6 -12 577 -2 588 5 4 26 5 48 2 22 -3
146 -17 275 -30z m7156 -46 c82 -17 304 -60 494 -96 189 -35 346 -66 348 -68
6 -6 -362 -93 -573 -135 -900 -180 -2009 -287 -3400 -331 -370 -11 -1934 -13
-1952 -2 -7 5 66 92 210 250 l222 243 180 -6 c1161 -40 2146 -30 3055 31 422
28 885 78 1135 123 55 10 107 19 116 20 9 0 83 -13 165 -29z m1385 -254 c211
-36 483 -79 604 -96 121 -17 228 -35 239 -39 12 -5 -45 -27 -185 -74 -593
-194 -1311 -373 -2069 -516 -418 -79 -1139 -196 -1160 -189 -8 2 474 596 523
644 7 7 127 28 267 49 452 64 926 158 1235 244 77 21 145 39 151 40 5 0 183
-28 395 -63z m1271 -191 c266 -34 590 -74 796 -96 85 -9 112 -15 112 -26 0 -8
-3 -12 -8 -9 -4 2 -55 -9 -112 -25 -1262 -357 -3298 -835 -4995 -1174 -694
-139 -1673 -320 -1682 -311 -8 8 588 676 603 676 8 0 158 16 332 35 1803 200
3282 491 4392 866 157 53 288 97 292 97 4 1 126 -14 270 -33z m-3418 -97 c-4
-7 -122 -149 -261 -316 -140 -168 -257 -310 -261 -317 -8 -15 -393 -67 -952
-129 -776 -87 -1592 -153 -2485 -201 l-120 -7 36 39 c27 29 660 722 688 755 3
3 260 11 571 17 761 15 1246 37 1825 81 270 21 723 65 823 79 90 13 144 13
136 -1z m-6379 -63 c143 -9 294 -20 335 -23 l75 -7 -185 -72 c-239 -93 -539
-203 -557 -203 -10 0 -13 33 -13 158 0 87 3 162 7 166 4 4 23 5 43 2 19 -3
152 -13 295 -21z m10825 -159 c0 -127 -3 -176 -12 -184 -7 -5 -33 -16 -57 -23
-23 -7 -45 -18 -48 -25 -3 -7 -10 -11 -17 -8 -7 3 -174 -49 -371 -116 -198
-66 -363 -119 -367 -118 -5 2 98 120 227 263 l235 260 173 50 c94 28 181 56
192 63 44 26 45 21 45 -162z m-9962 109 c499 -24 812 -34 1437 -45 330 -6 610
-12 622 -13 18 -2 -44 -74 -343 -402 l-366 -400 -147 -7 c-612 -27 -1726 -51
-2156 -46 l-250 3 0 290 0 289 60 22 c33 13 176 66 318 119 141 53 312 120
380 149 67 30 128 54 135 55 8 0 147 -6 310 -14z m9415 -117 c-307 -338 -442
-491 -438 -497 8 -13 -978 -317 -1720 -530 -450 -129 -999 -280 -1003 -276 -2
1 135 158 303 348 l306 346 72 16 c522 118 1841 442 2272 559 233 64 236 64
208 34z m545 -520 l-3 -273 -270 3 c-315 3 -997 21 -1169 30 l-119 7 269 84
c255 80 1001 325 1184 390 47 16 91 30 98 30 10 1 12 -57 10 -271z m-3235
-150 c-94 -101 -573 -649 -573 -656 0 -10 -284 -86 -965 -257 -1387 -348
-2665 -620 -3865 -820 -360 -60 -792 -127 -795 -123 -2 2 170 197 382 433
l384 430 82 12 c45 7 246 38 447 68 1074 164 2386 404 3615 661 367 77 1087
234 1200 262 119 29 125 29 88 -10z m-3195 14 c-1 -5 -129 -151 -283 -326
-154 -174 -280 -325 -280 -334 0 -15 -61 -27 -430 -89 -476 -79 -1091 -173
-1490 -228 -405 -56 -1048 -136 -1053 -131 -2 3 175 214 393 470 368 431 400
466 429 466 51 0 480 19 791 35 567 30 1377 89 1760 129 170 17 167 17 163 8z
m5147 -173 c187 -6 406 -14 487 -17 l148 -7 -498 -562 -497 -563 -182 0 c-433
0 -1353 67 -1943 141 -255 32 -614 95 -801 140 -93 22 -171 44 -173 47 -2 4
177 54 397 111 773 199 1762 475 2347 655 222 68 251 75 310 71 36 -3 218 -10
405 -16z m-7987 -8 c-1 -5 -176 -212 -388 -460 -212 -249 -386 -458 -388 -466
-2 -8 -7 -15 -10 -15 -4 0 -110 -11 -237 -25 -402 -44 -860 -84 -868 -76 -4 4
-6 234 -5 512 l3 504 700 7 c573 6 1115 18 1183 26 8 1 12 -2 10 -7z m9260
-27 c10 -3 12 -111 10 -516 l-3 -513 -80 -7 c-170 -15 -553 -39 -840 -52 -517
-25 -627 -28 -624 -17 2 6 225 260 494 565 l490 555 270 -5 c149 -3 276 -7
283 -10z m-8785 -848 c-15 -18 -189 -213 -385 -433 l-357 -399 -213 -28 c-244
-32 -589 -74 -663 -80 -27 -3 -138 -14 -245 -25 -276 -29 -500 -48 -505 -42
-9 8 -5 760 3 765 4 2 111 14 237 26 585 53 1563 166 1985 229 69 10 135 19
148 20 23 1 23 1 -5 -33z m3987 14 c508 -157 1468 -278 2645 -334 448 -21
1162 1 1943 60 111 8 207 12 212 9 6 -4 10 -151 10 -385 l0 -379 -42 -5 c-69
-9 -342 -25 -648 -37 -321 -13 -1671 -6 -2025 11 -510 24 -739 41 -799 61 -49
16 -61 16 -70 5 -27 -33 -1080 87 -1651 189 -203 36 -593 120 -602 129 -6 6
62 85 339 396 l173 195 210 51 c116 29 217 52 225 53 8 0 44 -8 80 -19z m-866
-387 c-130 -147 -238 -269 -239 -271 -3 -4 -339 96 -460 138 -129 45 -285 107
-298 119 -4 4 102 31 235 60 313 68 982 222 987 227 2 2 6 2 9 0 2 -2 -103
-125 -234 -273z m-1026 -72 c644 -283 1642 -486 2937 -595 l290 -25 465 -151
c950 -308 1668 -493 2765 -708 l240 -47 3 -207 2 -208 -25 0 c-31 0 -470 73
-820 136 -1075 194 -2435 494 -3035 669 -1035 303 -2042 632 -2674 875 -173
66 -450 182 -515 214 l-43 22 143 31 c79 17 152 31 161 32 9 0 57 -17 106 -38z
m-484 -55 c14 -18 239 -118 491 -218 533 -211 1290 -466 2343 -788 l103 -32
-38 -41 c-21 -23 -139 -154 -262 -290 -158 -175 -228 -246 -240 -243 -9 3
-101 28 -206 56 -1007 271 -1950 589 -2792 942 -106 44 -193 83 -193 87 0 3
95 110 209 236 l210 230 178 36 c98 20 180 37 182 38 2 1 9 -5 15 -13z m-520
-128 c-22 -24 -107 -116 -189 -206 -129 -143 -151 -163 -171 -158 -31 8 -525
238 -521 243 2 1 132 25 288 53 156 27 352 63 434 79 83 16 161 30 175 30 23
1 22 -1 -16 -41z m-768 -247 c427 -202 825 -371 1302 -551 l273 -103 -20 -21
c-266 -292 -585 -632 -595 -634 -27 -6 -1094 439 -1921 803 -170 75 -435 191
-587 258 -153 66 -278 124 -278 127 0 3 107 18 238 34 289 34 925 125 1157
165 94 16 177 29 186 30 8 0 118 -48 245 -108z m-1466 -352 c278 -122 507
-223 509 -225 2 -2 -50 -62 -115 -135 -66 -72 -126 -140 -135 -151 -16 -20
-17 -20 -190 26 -319 86 -1064 348 -1249 439 l-45 22 -3 79 c-2 44 1 83 6 88
5 5 128 20 273 34 145 13 298 28 339 33 41 4 82 9 90 10 8 0 242 -99 520 -220z
m7165 120 c99 -5 574 -13 1057 -16 l876 -6 -205 -236 c-113 -130 -214 -244
-223 -255 -17 -18 -24 -17 -246 38 -513 127 -937 249 -1379 396 l-300 100 120
-6 c66 -3 201 -10 300 -15z m2775 -45 c0 -77 14 -77 -159 0 l-116 51 70 6 c39
3 100 6 138 7 l67 2 0 -66z m-362 34 c-4 -14 201 -109 225 -104 9 2 17 0 17
-5 0 -5 26 -22 58 -37 l57 -27 3 -299 c1 -165 -1 -303 -5 -307 -15 -14 -1178
223 -1200 244 -3 3 97 123 222 266 126 144 228 262 229 262 1 2 264 15 339 17
39 1 56 -2 55 -10z m-10483 -333 c956 -370 1721 -534 2490 -535 l170 0 355
-144 c195 -79 364 -147 375 -152 35 -15 -64 -16 -395 -4 -835 29 -1698 113
-2645 255 -256 39 -642 103 -663 110 -9 3 -12 71 -12 293 0 159 3 291 6 295 4
3 23 -1 43 -10 20 -8 144 -57 276 -108z m1994 -252 c278 -119 508 -218 511
-221 8 -8 -311 8 -490 24 -91 8 -230 24 -310 35 -158 23 -468 83 -478 93 -3 4
8 21 24 39 17 17 74 80 128 140 54 59 101 107 104 107 3 0 233 -97 511 -217z
m2232 76 c957 -331 2127 -647 3169 -855 151 -31 276 -56 277 -57 1 -2 -518
-581 -555 -619 -16 -16 -22 -16 -82 -3 -36 8 -369 82 -740 164 -371 82 -952
213 -1290 291 -338 78 -644 146 -680 152 -36 6 -108 26 -160 44 -218 79 -760
290 -760 296 0 11 601 658 610 658 4 0 100 -32 211 -71z m2739 -19 c480 -141
1638 -403 2560 -579 463 -88 508 -96 921 -166 208 -35 383 -66 389 -70 6 -4
10 -91 10 -251 l0 -244 -22 0 c-70 0 -949 111 -1393 176 -974 142 -2150 368
-2998 575 l-287 71 32 38 c18 22 134 151 258 289 145 161 230 248 240 245 8
-2 139 -40 290 -84z m-7130 -365 c52 -9 101 -18 108 -21 12 -3 -237 -294 -259
-302 -11 -4 -12 331 -2 342 4 4 19 4 33 2 14 -3 68 -13 120 -21z m494 -80
c1033 -159 2239 -265 3026 -265 l225 0 120 -46 c66 -26 250 -95 408 -154 l289
-108 -74 -6 c-363 -30 -1421 -40 -1888 -18 -837 41 -1503 105 -2388 229 -183
25 -331 50 -330 54 4 12 310 359 316 359 3 0 136 -20 296 -45z m-334 -425
c778 -109 1548 -187 2185 -220 116 -6 269 -14 342 -18 l131 -7 -181 -203 -182
-204 -140 6 c-599 27 -2216 153 -2442 191 l-33 6 0 243 c0 133 3 245 6 249 3
3 11 4 17 2 7 -3 140 -22 297 -45z m8160 -116 c767 -143 1726 -284 2520 -372
l165 -18 0 -149 0 -150 -1535 0 -1535 0 -290 63 c-159 35 -294 64 -299 65 -4
2 119 143 273 315 155 172 280 316 277 321 -3 5 25 2 62 -6 37 -8 200 -39 362
-69z m-2885 -199 c547 -125 1633 -366 1960 -435 110 -24 205 -47 210 -52 6 -6
-154 -8 -395 -6 l-405 4 -260 76 c-567 167 -1595 498 -1645 529 -12 8 -11 9 5
5 11 -3 250 -57 530 -121z m-399 1 c298 -103 759 -253 1034 -337 58 -17 109
-35 113 -39 23 -20 -1721 -28 -2433 -10 -676 17 -1212 39 -1208 50 2 5 83 97
181 205 l178 198 377 -2 c389 -2 867 11 1217 33 110 7 203 14 206 15 3 0 154
-50 335 -113z m-4849 -236 c169 -16 309 -30 311 -30 5 0 -79 -96 -151 -173
l-54 -57 -224 2 -224 3 -3 143 c-2 135 -2 142 17 142 11 0 158 -13 328 -30z
m848 -75 c706 -56 1497 -100 2265 -125 326 -11 1341 -29 1655 -30 169 -1 188
-2 171 -15 -17 -13 -320 -15 -2379 -15 -1314 0 -2357 4 -2355 9 2 4 44 54 93
110 l90 101 75 -5 c41 -3 215 -16 385 -30z m5443 -147 c43 -12 81 -25 87 -30
5 -4 -296 -8 -669 -8 -537 0 -677 3 -674 12 8 22 73 27 373 29 246 1 410 5
753 17 30 1 87 -7 130 -20z"/>
</g>
</svg>
