<?xml version="1.0" standalone="no"?>
<!DOCTYPE svg PUBLIC "-//W3C//DTD SVG 20010904//EN"
 "http://www.w3.org/TR/2001/REC-SVG-20010904/DTD/svg10.dtd">
<svg version="1.0" xmlns="http://www.w3.org/2000/svg"
 width="1125.000000pt" height="900.000000pt" viewBox="0 0 1125.000000 900.000000"
 preserveAspectRatio="xMidYMid meet">
<metadata>
Created by potrace 1.13, written by Peter Selinger 2001-2015
</metadata>
<g transform="translate(0.000000,900.000000) scale(0.100000,-0.100000)"
fill="#000000" stroke="none">
<path d="M0 4500 l0 -4500 5625 0 5625 0 0 4500 0 4500 -5625 0 -5625 0 0
-4500z m11205 4245 l0 -210 -297 -3 c-164 -1 -298 0 -298 3 0 4 38 55 85 116
47 60 85 113 85 117 0 17 -41 47 -48 35 -4 -6 -52 -69 -107 -141 l-100 -131
-147 -1 -148 0 0 -30 0 -30 488 -2 487 -3 0 -275 0 -275 -187 -3 -188 -2 0
-30 0 -30 188 -2 187 -3 0 -260 0 -260 -567 -3 -568 -2 0 -30 0 -30 570 0 570
0 0 -275 0 -275 -222 -2 -223 -3 -3 -32 -3 -33 226 0 226 0 -3 -513 -3 -513
-51 -65 -50 -64 -122 -3 -122 -3 0 -29 0 -30 173 -2 172 -3 0 -300 0 -300
-487 -3 c-269 -1 -488 1 -488 5 0 3 41 60 91 125 88 115 90 120 73 139 -9 10
-20 19 -24 19 -4 0 -57 -65 -119 -145 l-111 -145 -105 0 -105 0 0 -30 0 -30
638 -2 637 -3 0 -275 0 -275 -37 -3 c-35 -3 -38 -6 -38 -33 0 -27 2 -29 40
-29 l40 0 -2 -292 -3 -293 -502 -3 -503 -2 0 -30 0 -30 503 -2 502 -3 3 -257
2 -258 -90 0 -90 0 0 -35 0 -35 90 0 90 0 -2 -292 -3 -293 -617 -3 -618 -2 0
-30 0 -30 618 -2 617 -3 3 -272 2 -273 -172 -2 -173 -3 -3 -32 -3 -33 175 0
176 0 -2 -567 -3 -568 -72 -3 -73 -3 0 -29 0 -29 73 -3 72 -3 0 -185 0 -185
-182 -3 c-101 -1 -183 1 -183 5 0 5 4 14 9 22 7 10 2 20 -16 34 -24 20 -24 20
-41 -4 -8 -12 -24 -31 -34 -41 -17 -17 -96 -18 -1863 -18 -1015 0 -1845 4
-1845 8 0 4 6 14 13 21 10 10 7 16 -13 32 l-24 20 -34 -40 -34 -41 -1814 0
c-998 0 -1814 3 -1814 8 0 4 4 13 9 21 6 10 3 20 -12 32 -22 17 -23 17 -58
-22 l-37 -39 -1593 2 -1594 3 0 185 0 185 595 5 595 5 3 27 3 28 -598 2 -598
3 -3 567 -2 568 497 2 498 3 0 30 0 30 -498 3 -497 2 2 273 3 272 42 3 c40 3
43 5 43 32 0 27 -3 29 -43 32 l-42 3 -3 293 -2 292 580 0 580 0 0 35 0 35
-580 0 -580 0 2 258 3 257 158 3 157 3 0 29 0 29 -157 3 -158 3 -3 293 -2 292
630 0 630 0 0 30 0 30 -495 0 c-272 0 -495 3 -495 7 0 4 41 60 90 124 l90 118
-26 18 c-26 16 -27 16 -44 -8 -10 -13 -58 -76 -107 -139 l-89 -115 -89 0 -90
0 0 275 0 275 28 3 c22 3 27 8 27 32 0 24 -5 29 -28 32 l-27 3 0 300 0 300
498 3 497 2 0 30 0 30 -497 2 c-364 2 -497 6 -500 15 -2 6 32 59 76 117 81
105 81 105 59 121 -13 8 -25 15 -28 15 -3 0 -26 -27 -50 -60 -25 -33 -48 -60
-52 -60 -5 0 -8 227 -8 505 l0 505 448 2 447 3 0 30 0 30 -447 3 -448 2 0 275
0 275 95 0 95 0 0 30 0 29 -92 3 -93 3 0 260 0 260 478 3 477 2 0 30 0 30
-477 2 -478 3 0 275 0 275 178 3 178 2 -3 28 -3 27 -175 5 -175 5 -3 200 c-1
110 0 205 2 212 4 11 1061 13 5583 11 l5578 -3 0 -210z"/>
<path d="M3140 8670 l-105 -139 -117 0 -118 -1 0 -30 0 -30 665 0 665 0 0 30
0 30 -510 0 -510 0 83 108 c46 59 87 113 91 120 7 12 -18 52 -33 52 -3 0 -53
-63 -111 -140z"/>
<path d="M6920 8670 l-105 -139 -147 -1 -148 0 0 -30 0 -30 660 0 660 0 0 30
0 30 -470 0 c-258 0 -470 3 -470 6 0 3 35 52 78 107 100 131 97 125 76 148 -9
10 -20 19 -23 19 -3 -1 -53 -64 -111 -140z"/>
<path d="M947 8523 c-4 -3 -7 -17 -7 -30 l0 -23 665 0 665 0 0 30 0 30 -658 0
c-362 0 -662 -3 -665 -7z"/>
<path d="M4660 8500 l0 -30 666 0 665 0 -3 28 -3 27 -662 3 -663 2 0 -30z"/>
<path d="M8377 8523 c-4 -3 -7 -17 -7 -30 l0 -23 665 0 665 0 0 30 0 30 -658
0 c-362 0 -662 -3 -665 -7z"/>
<path d="M1915 8047 l-101 -132 -137 -3 -137 -3 0 -29 0 -30 665 0 665 0 0 30
0 30 -490 0 -491 0 90 117 89 116 -23 19 c-13 10 -25 18 -27 17 -1 0 -48 -60
-103 -132z"/>
<path d="M5632 8044 l-103 -134 -134 0 -135 0 0 -30 0 -30 660 0 660 0 0 30 0
30 -485 0 -486 0 90 117 89 116 -23 19 c-13 10 -25 18 -27 17 -1 0 -49 -61
-106 -135z"/>
<path d="M9373 8092 c-37 -48 -84 -109 -103 -135 l-35 -46 -132 -1 -133 0 0
-30 0 -30 665 0 665 0 0 30 0 30 -490 0 c-269 0 -490 3 -490 6 0 3 35 51 78
107 100 129 96 122 67 141 -24 16 -25 16 -92 -72z"/>
<path d="M3400 7880 l0 -30 666 0 665 0 -3 28 -3 27 -662 3 -663 2 0 -30z"/>
<path d="M7110 7880 l0 -30 665 0 665 0 0 30 0 30 -665 0 -665 0 0 -30z"/>
<path d="M1135 7478 c-55 -72 -106 -137 -113 -145 -10 -9 -46 -13 -128 -13
l-114 0 0 -30 0 -30 660 0 660 0 0 30 0 30 -500 0 c-275 0 -500 2 -500 5 0 2
43 60 95 127 88 114 93 124 78 140 -9 10 -21 18 -27 18 -6 0 -56 -60 -111
-132z"/>
<path d="M4865 7464 l-109 -144 -133 0 -133 0 0 -30 0 -30 665 0 665 0 0 30 0
30 -485 0 c-331 0 -485 3 -485 10 0 6 41 65 92 131 87 114 91 120 72 134 -10
8 -23 14 -29 14 -5 0 -59 -65 -120 -145z"/>
<path d="M8590 7498 c-47 -62 -98 -127 -114 -145 l-28 -33 -119 0 -119 0 0
-30 0 -30 663 2 662 3 3 28 3 27 -500 0 c-276 0 -501 2 -501 5 0 4 42 61 94
128 88 113 94 123 79 139 -9 10 -21 18 -27 18 -6 0 -49 -50 -96 -112z"/>
<path d="M2640 7290 l0 -30 660 0 660 0 0 30 0 30 -660 0 -660 0 0 -30z"/>
<path d="M6350 7290 l0 -30 665 0 665 0 0 30 0 30 -665 0 -665 0 0 -30z"/>
<path d="M1789 6848 l-101 -133 -107 -5 -106 -5 0 -30 0 -30 663 -3 662 -2 0
35 0 35 -515 0 c-283 0 -515 3 -515 6 0 3 39 55 86 116 82 106 85 111 68 129
-9 10 -21 19 -25 19 -5 0 -54 -60 -110 -132z"/>
<path d="M5613 6932 c-21 -26 -67 -87 -103 -134 l-65 -87 -127 -1 -128 0 0
-35 0 -35 663 2 662 3 0 30 0 30 -497 3 -498 2 90 116 c49 64 87 120 84 125
-3 5 -14 13 -24 19 -16 9 -25 3 -57 -38z"/>
<path d="M9250 6848 l-102 -133 -121 -5 -122 -5 0 -30 0 -30 663 -3 662 -2 0
35 0 35 -500 0 c-275 0 -500 2 -500 5 0 3 39 55 86 116 83 107 85 111 68 130
-9 10 -21 19 -25 19 -4 0 -54 -60 -109 -132z"/>
<path d="M3337 6703 c-4 -3 -7 -19 -7 -35 l0 -28 666 0 665 0 -3 33 -3 32
-656 3 c-360 1 -659 -1 -662 -5z"/>
<path d="M7050 6675 l0 -35 660 0 660 0 0 35 0 35 -660 0 -660 0 0 -35z"/>
<path d="M2554 6220 l-107 -140 -124 0 -123 0 0 -30 0 -30 665 0 665 0 0 30 0
30 -501 2 -501 3 91 118 c50 64 91 122 91 127 0 9 -31 30 -44 30 -3 0 -54 -63
-112 -140z"/>
<path d="M6353 6312 c-21 -26 -69 -89 -108 -140 l-70 -92 -127 0 -128 0 0 -30
0 -30 665 0 665 0 0 30 0 30 -495 0 c-272 0 -495 2 -495 5 0 3 37 53 83 113
106 136 103 130 81 147 -27 21 -30 20 -71 -33z"/>
<path d="M9980 6220 l-105 -139 -120 -3 -120 -3 -3 -27 -3 -28 665 0 666 0 0
30 0 30 -500 0 c-275 0 -500 3 -500 6 0 3 41 59 92 125 87 114 90 120 72 134
-10 8 -23 14 -29 14 -5 0 -57 -62 -115 -139z"/>
<path d="M330 6050 l0 -30 670 0 670 0 0 30 0 30 -670 0 -670 0 0 -30z"/>
<path d="M4060 6050 l0 -30 665 0 665 0 0 30 0 30 -665 0 -665 0 0 -30z"/>
<path d="M7780 6050 l0 -30 660 0 660 0 0 30 0 30 -660 0 -660 0 0 -30z"/>
<path d="M3761 5615 l-104 -135 -113 0 -114 0 0 -30 0 -30 665 0 665 0 0 30 0
30 -510 2 -510 3 90 117 c90 117 90 117 68 132 -12 9 -25 16 -28 16 -3 0 -52
-61 -109 -135z"/>
<path d="M7502 5615 l-103 -135 -124 0 -125 0 0 -30 0 -30 660 0 660 0 0 30 0
30 -494 2 -495 3 89 115 c89 115 90 115 69 133 -12 9 -24 17 -28 17 -3 0 -52
-61 -109 -135z"/>
<path d="M1570 5450 l0 -30 665 0 665 0 0 30 0 30 -665 0 -665 0 0 -30z"/>
<path d="M5290 5450 l0 -30 666 0 665 0 -3 28 -3 27 -662 3 -663 2 0 -30z"/>
<path d="M9007 5473 c-4 -3 -7 -17 -7 -30 l0 -23 665 0 665 0 0 30 0 30 -658
0 c-362 0 -662 -3 -665 -7z"/>
<path d="M2851 4955 l-111 -145 -120 0 -120 0 0 -30 0 -30 665 0 665 0 0 30 0
30 -500 0 c-275 0 -500 3 -500 7 0 4 41 61 91 126 88 114 90 119 73 138 -9 10
-20 19 -24 19 -4 0 -57 -65 -119 -145z"/>
<path d="M6564 4958 l-109 -143 -118 -3 -117 -3 0 -29 0 -30 660 0 660 0 0 30
0 30 -500 0 c-275 0 -500 3 -500 6 0 4 41 60 90 125 50 64 90 121 90 125 0 7
-31 33 -41 34 -3 0 -55 -64 -115 -142z"/>
<path d="M642 4783 l3 -28 663 -3 662 -2 0 30 0 30 -666 0 -665 0 3 -27z"/>
<path d="M4360 4780 l0 -30 665 0 665 0 0 30 0 30 -665 0 -665 0 0 -30z"/>
<path d="M8080 4780 l0 -30 660 0 660 0 0 30 0 30 -660 0 -660 0 0 -30z"/>
<path d="M4025 4362 c-139 -185 -122 -172 -231 -172 l-94 0 0 -30 0 -30 660 0
660 0 0 30 0 30 -520 0 c-286 0 -520 3 -520 6 0 3 40 58 90 122 83 109 88 118
73 134 -9 10 -21 18 -27 18 -6 -1 -47 -49 -91 -108z"/>
<path d="M7755 4330 l-108 -140 -118 0 -119 0 0 -30 0 -30 665 0 665 0 0 30 0
30 -500 0 c-285 0 -500 4 -500 9 0 5 38 59 85 119 47 61 85 114 85 118 0 8
-31 33 -41 34 -4 0 -55 -63 -114 -140z"/>
<path d="M1840 4160 l0 -30 663 2 662 3 3 28 3 27 -665 0 -666 0 0 -30z"/>
<path d="M5552 4163 l3 -28 663 -3 662 -2 0 30 0 30 -666 0 -665 0 3 -27z"/>
<path d="M9270 4160 l0 -30 665 0 665 0 0 30 0 30 -665 0 -665 0 0 -30z"/>
<path d="M4995 3684 l-110 -144 -127 0 -128 0 0 -30 0 -30 660 0 660 0 0 30 0
30 -490 0 c-269 0 -490 2 -490 5 0 3 41 57 90 121 50 64 90 120 90 124 0 4
-10 14 -23 23 -22 14 -25 11 -132 -129z"/>
<path d="M1273 3680 l-107 -140 -128 0 -128 0 0 -30 0 -30 665 0 665 0 0 30 0
30 -496 2 -496 3 91 119 c50 65 91 122 91 127 0 8 -32 29 -44 29 -3 0 -54 -63
-113 -140z"/>
<path d="M8703 3680 l-107 -140 -128 0 -128 0 0 -30 0 -30 665 0 665 0 0 30 0
30 -496 2 -496 3 91 119 c50 65 91 122 91 127 0 8 -32 29 -44 29 -3 0 -54 -63
-113 -140z"/>
<path d="M2770 3510 l0 -30 660 0 660 0 0 30 0 30 -660 0 -660 0 0 -30z"/>
<path d="M6480 3510 l0 -30 665 0 665 0 0 30 0 30 -665 0 -665 0 0 -30z"/>
<path d="M2116 3099 l-107 -139 -135 0 -135 0 3 -32 3 -33 660 0 660 0 0 30 0
30 -487 5 -487 5 89 115 c49 63 90 118 90 121 0 4 -11 14 -24 22 -24 16 -24
15 -130 -124z"/>
<path d="M5840 3100 l-105 -139 -140 -3 -140 -3 0 -30 0 -30 663 -3 662 -2 0
35 0 35 -480 0 c-264 0 -480 3 -480 6 0 3 35 51 78 107 43 56 82 108 86 115 7
12 -19 53 -33 52 -3 -1 -53 -63 -111 -140z"/>
<path d="M9513 3101 l-108 -141 -117 0 -118 0 0 -35 0 -35 663 2 662 3 0 30 0
30 -504 5 -503 5 91 119 c50 66 90 120 88 120 -1 1 -12 9 -24 19 -21 19 -22
18 -130 -122z"/>
<path d="M3600 2925 l0 -35 660 0 660 0 0 35 0 35 -660 0 -660 0 0 -35z"/>
<path d="M7312 2928 l3 -33 660 0 660 0 3 33 3 32 -666 0 -666 0 3 -32z"/>
<path d="M1021 2445 l-112 -145 -115 0 -114 0 0 -30 0 -30 663 2 662 3 3 28 3
27 -506 0 c-436 0 -506 2 -502 14 3 8 45 65 92 126 84 108 86 112 69 131 -9
10 -20 19 -24 19 -4 0 -58 -65 -119 -145z"/>
<path d="M4735 2445 l-110 -145 -117 0 -118 0 0 -30 0 -30 665 0 665 0 0 30 0
30 -505 0 c-278 0 -505 2 -505 5 0 2 43 60 95 127 l95 123 -23 17 c-12 10 -24
17 -27 17 -3 0 -54 -65 -115 -144z"/>
<path d="M8490 2478 c-47 -62 -98 -127 -114 -145 l-28 -33 -119 0 -119 0 0
-30 0 -30 663 2 662 3 3 28 3 27 -500 0 c-276 0 -501 3 -501 6 0 3 43 61 95
129 l95 123 -25 16 c-13 9 -26 16 -27 16 -2 0 -42 -50 -88 -112z"/>
<path d="M2540 2270 l0 -30 660 0 660 0 0 30 0 30 -660 0 -660 0 0 -30z"/>
<path d="M6250 2270 l0 -30 665 0 665 0 0 30 0 30 -665 0 -665 0 0 -30z"/>
<path d="M1966 1851 c-59 -77 -106 -144 -104 -148 2 -4 -62 -10 -142 -13
l-145 -5 0 -30 0 -30 663 -3 662 -2 0 35 0 35 -485 0 c-267 0 -485 3 -485 6 0
3 43 61 95 129 52 68 95 127 95 131 0 7 -31 33 -41 34 -3 0 -54 -63 -113 -139z"/>
<path d="M5684 1848 c-60 -78 -108 -146 -106 -150 1 -4 -63 -8 -143 -8 l-145
0 0 -35 0 -35 663 2 662 3 0 30 0 30 -487 3 -488 2 100 129 c55 71 100 133
100 137 0 7 -31 33 -41 34 -3 0 -55 -64 -115 -142z"/>
<path d="M9375 1858 c-55 -72 -104 -139 -109 -149 -8 -16 -24 -19 -135 -21
l-126 -3 0 -30 0 -30 663 -3 662 -2 0 35 0 35 -500 2 -499 3 99 130 c100 130
100 130 79 148 -12 9 -24 17 -28 17 -3 -1 -51 -60 -106 -132z"/>
<path d="M3437 1683 c-4 -3 -7 -19 -7 -35 l0 -28 666 0 665 0 -3 33 -3 32
-656 3 c-360 1 -659 -1 -662 -5z"/>
<path d="M7150 1655 l0 -35 660 0 660 0 0 35 0 35 -660 0 -660 0 0 -35z"/>
<path d="M4580 1209 l-105 -138 -122 0 -123 -1 0 -35 0 -35 660 0 660 0 0 35
0 35 -498 2 -499 3 89 114 c48 63 88 118 88 122 0 3 -10 13 -23 22 -22 14 -25
11 -127 -124z"/>
<path d="M8290 1209 l-105 -138 -120 -3 -120 -3 0 -30 0 -30 663 -3 662 -2 0
35 0 35 -500 0 c-275 0 -500 3 -500 6 0 3 36 53 80 110 45 57 83 110 86 118 3
7 -5 20 -18 28 -23 15 -25 12 -128 -123z"/>
<path d="M951 1205 l-103 -135 -176 -2 -177 -3 0 -30 0 -30 673 -3 672 -2 0
35 0 35 -455 2 -455 3 90 116 c84 111 88 118 71 133 -10 9 -22 16 -27 16 -6 0
-56 -61 -113 -135z"/>
<path d="M2370 1035 l0 -35 663 2 662 3 0 30 0 30 -662 3 -663 2 0 -35z"/>
<path d="M6090 1035 l0 -35 660 0 660 0 0 35 0 35 -660 0 -660 0 0 -35z"/>
<path d="M9800 1035 l0 -35 663 2 662 3 0 30 0 30 -662 3 -663 2 0 -35z"/>
<path d="M2099 631 l-114 -150 -107 0 -108 -1 0 -30 0 -30 665 0 665 0 0 30 0
30 -515 0 c-283 0 -515 3 -515 6 0 3 43 62 96 131 93 120 95 125 78 144 -9 10
-20 19 -24 19 -4 0 -58 -67 -121 -149z"/>
<path d="M5841 629 l-113 -149 -119 0 -119 0 0 -30 0 -30 660 0 660 0 0 30 0
30 -495 0 c-273 0 -495 4 -495 9 0 4 43 64 95 132 95 124 95 124 74 142 -12 9
-24 17 -28 16 -3 0 -57 -67 -120 -150z"/>
<path d="M9569 631 l-114 -150 -127 0 -128 -1 0 -30 0 -30 665 0 665 0 0 30 0
30 -495 0 c-272 0 -495 3 -495 6 0 3 43 62 96 131 93 120 95 125 78 144 -9 10
-20 19 -24 19 -5 0 -59 -67 -121 -149z"/>
<path d="M3630 450 l0 -30 665 0 665 0 0 30 0 30 -665 0 -665 0 0 -30z"/>
<path d="M7350 450 l0 -30 660 0 660 0 0 30 0 30 -660 0 -660 0 0 -30z"/>
</g>
</svg>
