<?xml version="1.0" standalone="no"?>
<!DOCTYPE svg PUBLIC "-//W3C//DTD SVG 20010904//EN"
 "http://www.w3.org/TR/2001/REC-SVG-20010904/DTD/svg10.dtd">
<svg version="1.0" xmlns="http://www.w3.org/2000/svg"
 width="1125.000000pt" height="900.000000pt" viewBox="0 0 1125.000000 900.000000"
 preserveAspectRatio="xMidYMid meet">
<metadata>
Created by potrace 1.13, written by Peter Selinger 2001-2015
</metadata>
<g transform="translate(0.000000,900.000000) scale(0.100000,-0.100000)"
fill="#000000" stroke="none">
<path d="M0 4500 l0 -4500 5625 0 5625 0 0 4500 0 4500 -5625 0 -5625 0 0
-4500z m11205 2175 l0 -2280 -5580 0 -5580 0 -3 2270 c-1 1249 0 2276 3 2283
3 10 1125 12 5582 10 l5578 -3 0 -2280z m0 -2760 l0 -410 -5580 0 -5580 0 -3
400 c-1 220 0 406 3 412 3 11 1121 13 5582 11 l5578 -3 0 -410z m0 -2175 l0
-1695 -4587 -3 c-3991 -2 -4588 0 -4588 12 0 8 5 18 11 22 8 4 -25 42 -87 100
l-99 93 98 92 98 92 -22 23 -22 23 -105 -99 -105 -100 -638 0 -639 0 0 -30 0
-30 636 0 636 0 99 -91 c54 -51 99 -96 99 -100 0 -5 -429 -8 -973 -7 l-972 3
-3 1685 c-1 927 0 1691 3 1698 3 10 1125 12 5582 10 l5578 -3 0 -1695z"/>
<path d="M6102 8490 l-104 -100 -639 0 -640 0 3 -27 3 -28 640 -3 640 -3 105
-99 c98 -92 106 -97 123 -83 9 9 17 21 17 27 0 6 -43 51 -95 100 l-96 88 98
93 c98 92 98 93 79 114 -11 11 -22 21 -25 21 -3 -1 -52 -46 -109 -100z"/>
<path d="M3498 7550 l-106 -100 -636 0 -636 0 0 -30 0 -30 638 0 637 -1 105
-99 105 -99 23 22 23 21 -98 93 -98 93 97 94 97 93 -22 22 -23 21 -106 -100z"/>
<path d="M9864 7515 l-102 -95 -638 -2 -639 -3 0 -30 0 -30 642 -5 642 -5 101
-94 102 -94 21 22 22 22 -99 93 -99 92 99 92 c97 90 98 91 79 112 -10 11 -21
20 -24 20 -3 0 -52 -43 -107 -95z"/>
<path d="M6990 6400 l-105 -100 -637 0 -638 0 0 -30 0 -30 638 0 638 0 106
-100 105 -99 22 23 22 23 -98 92 -98 92 97 92 c95 90 97 93 81 115 -8 12 -18
22 -22 22 -3 -1 -53 -46 -111 -100z"/>
<path d="M2290 5570 l-105 -99 -637 -1 -638 0 0 -30 0 -30 639 0 639 0 100
-95 c55 -52 104 -95 109 -95 6 0 18 8 27 19 16 18 13 22 -81 111 l-98 92 98
91 c95 90 97 93 82 115 -9 12 -19 22 -23 22 -4 -1 -54 -45 -112 -100z"/>
<path d="M9807 5361 l-106 -101 -641 0 -640 0 0 -30 0 -30 639 0 638 0 107
-102 107 -101 22 22 22 23 -99 93 -98 93 98 95 99 96 -21 21 -21 22 -106 -101z"/>
<path d="M3565 4110 l-100 -100 -582 0 -583 0 0 -30 0 -30 583 0 582 0 100
-100 99 -100 23 22 24 22 -93 93 -93 93 93 93 93 93 -24 22 -23 22 -99 -100z"/>
<path d="M1330 4090 l-93 -100 -588 0 -589 0 0 -30 0 -30 587 0 588 0 97 -97
98 -98 22 23 23 22 -88 88 c-48 48 -87 92 -87 97 0 5 39 49 87 97 86 86 87 88
68 108 -10 11 -22 20 -26 20 -4 0 -49 -45 -99 -100z"/>
<path d="M10340 4075 l-94 -95 -586 -2 -585 -3 0 -30 0 -30 585 -3 585 -2 97
-97 98 -98 22 23 23 22 -88 88 c-48 48 -87 92 -87 97 0 5 39 49 87 97 86 86
87 88 68 108 -10 11 -21 20 -24 20 -4 0 -49 -43 -101 -95z"/>
<path d="M8107 4055 l-89 -95 -589 0 -589 0 0 -30 0 -30 582 0 583 0 100 -100
100 -99 25 19 25 19 -92 93 -92 93 88 95 c82 88 88 96 73 113 -8 9 -20 17 -26
17 -6 -1 -51 -43 -99 -95z"/>
<path d="M5875 4040 l-100 -100 -582 0 -583 0 0 -30 0 -30 583 0 582 0 100
-100 c93 -94 100 -98 117 -83 10 9 18 21 18 27 0 6 -39 50 -87 98 l-88 88 88
88 c48 48 87 92 87 98 0 6 -8 18 -18 27 -17 15 -24 11 -117 -83z"/>
<path d="M6470 2780 l-105 -99 -637 -1 -638 0 0 -30 0 -30 638 0 638 0 106
-100 105 -99 22 23 22 23 -98 92 -98 92 97 92 c94 89 96 93 81 115 -8 12 -18
22 -22 22 -3 -1 -53 -45 -111 -100z"/>
<path d="M2553 2725 l-101 -95 -641 0 -641 0 0 -35 0 -35 643 0 643 0 44 -46
c25 -25 71 -68 103 -96 l58 -51 21 21 21 20 -98 94 -98 93 98 93 c95 90 97 93
80 112 -10 11 -21 20 -24 20 -4 0 -52 -43 -108 -95z"/>
<path d="M10040 1580 l-105 -99 -637 -1 -638 0 0 -30 0 -30 636 0 636 0 106
-100 106 -100 23 21 22 22 -97 93 -97 94 98 93 98 93 -23 21 -23 22 -105 -99z"/>
</g>
</svg>
