<?xml version="1.0" standalone="no"?>
<!DOCTYPE svg PUBLIC "-//W3C//DTD SVG 20010904//EN"
 "http://www.w3.org/TR/2001/REC-SVG-20010904/DTD/svg10.dtd">
<svg version="1.0" xmlns="http://www.w3.org/2000/svg"
 width="1125.000000pt" height="900.000000pt" viewBox="0 0 1125.000000 900.000000"
 preserveAspectRatio="xMidYMid meet">
<metadata>
Created by potrace 1.13, written by Peter Selinger 2001-2015
</metadata>
<g transform="translate(0.000000,900.000000) scale(0.100000,-0.100000)"
fill="#000000" stroke="none">
<path d="M0 4500 l0 -4500 5625 0 5625 0 0 4500 0 4500 -5625 0 -5625 0 0
-4500z m11072 4425 c4 -16 15 -36 25 -42 23 -18 68 -16 83 2 7 8 16 15 21 15
5 0 9 -85 9 -190 l0 -190 -692 -2 -693 -3 0 -30 0 -30 693 -3 692 -2 0 -160 0
-160 -46 0 c-109 0 -170 -82 -143 -193 9 -40 23 -63 63 -102 29 -29 66 -55 86
-61 l35 -10 3 -542 c2 -465 0 -547 -13 -578 -19 -46 -19 -87 0 -124 13 -25 15
-113 13 -647 l-3 -618 -372 -3 -373 -2 0 -30 0 -30 375 0 375 0 0 -289 c0
-281 -1 -289 -22 -316 l-21 -27 19 -117 c17 -104 19 -171 19 -676 l0 -560
-438 -3 -438 -2 3 -28 3 -27 435 -5 435 -5 0 -425 0 -425 -92 -3 -93 -3 0 -29
0 -29 93 -3 92 -3 0 -1085 0 -1085 -237 -3 -236 -2 -13 37 c-18 57 -38 82 -80
104 -91 46 -207 1 -260 -103 l-19 -38 -471 0 c-456 0 -472 1 -496 20 -33 25
-68 25 -100 0 -26 -20 -41 -20 -3720 -20 -3680 0 -3695 0 -3720 20 -14 11 -37
20 -50 20 -14 0 -36 -9 -50 -20 -25 -20 -41 -20 -730 -20 -690 0 -705 0 -730
20 -33 25 -57 25 -99 -1 -25 -15 -46 -19 -91 -17 l-58 3 0 505 0 505 1137 3
1138 2 0 30 0 30 -1137 2 -1138 3 -3 309 c-2 291 -1 308 15 301 50 -19 72 -17
97 8 33 33 33 71 0 104 -25 25 -47 27 -97 8 -16 -7 -17 4 -15 176 l3 184 1268
3 1267 2 0 30 0 30 -1267 2 -1268 3 0 425 0 425 218 3 217 2 0 30 0 30 -217 2
-218 3 -3 373 c-1 204 0 372 4 372 3 0 20 -11 37 -24 90 -68 314 -96 602 -76
191 13 344 34 402 56 92 34 137 135 114 256 -27 137 -106 248 -187 261 -22 4
-83 34 -143 72 -113 70 -261 133 -411 173 -77 20 -119 25 -225 26 -72 1 -145
-3 -162 -7 l-33 -9 0 256 0 256 755 0 755 0 0 30 0 30 -753 2 -752 3 -3 578
c-1 321 2 577 7 577 4 0 41 -15 82 -34 73 -34 429 -154 522 -177 80 -20 164
-7 259 39 262 127 340 236 264 365 -62 107 -192 167 -561 259 -22 6 -87 10
-145 10 -123 0 -226 -24 -339 -77 -40 -19 -77 -35 -82 -35 -5 0 -9 216 -9 510
l0 510 36 47 c33 44 36 51 32 104 -3 41 -12 69 -36 106 l-32 50 0 181 0 182
753 2 752 3 0 30 0 30 -752 3 -753 2 0 213 c0 118 3 217 7 220 3 4 2484 6
5511 5 l5506 -3 8 -30z m121 -868 c15 -10 17 -27 15 -117 -3 -97 -4 -105 -22
-102 -53 9 -98 70 -104 137 -4 47 -2 54 23 73 31 25 63 28 88 9z m-10573
-1261 c257 -64 341 -94 428 -152 29 -19 62 -49 72 -67 57 -92 -7 -170 -228
-280 -79 -39 -91 -42 -161 -41 -66 1 -106 11 -290 73 -210 70 -378 140 -393
164 -4 7 -8 49 -8 94 0 79 1 82 29 103 138 98 390 146 551 106z m-252 -2172
c181 -37 350 -104 497 -198 49 -31 107 -59 127 -63 67 -10 128 -101 145 -213
16 -103 -11 -167 -81 -190 -126 -41 -620 -65 -780 -37 -49 9 -110 26 -135 39
-39 21 -50 33 -71 84 -23 56 -25 70 -28 305 -3 196 -1 247 10 256 41 34 193
42 316 17z m10235 -4495 c29 -15 56 -50 57 -71 0 -16 -12 -18 -110 -18 -122 0
-131 6 -82 53 45 43 95 57 135 36z"/>
<path d="M9175 8881 c-161 -42 -196 -188 -72 -297 53 -47 102 -64 179 -64 68
0 134 32 166 80 20 30 23 45 20 97 -3 51 -9 69 -35 100 -55 69 -172 107 -258
84z m141 -72 c72 -22 117 -118 80 -174 -53 -82 -219 -68 -282 24 -75 111 42
198 202 150z"/>
<path d="M465 8850 c-26 -29 -24 -79 4 -102 70 -56 164 39 101 102 -26 26 -81
26 -105 0z"/>
<path d="M1366 8809 c-34 -27 -35 -71 -1 -104 30 -30 54 -31 89 -4 19 15 26
30 26 54 0 36 -36 75 -70 75 -10 0 -29 -9 -44 -21z"/>
<path d="M5922 8787 c-44 -47 -13 -117 52 -117 41 0 69 29 69 70 0 65 -76 95
-121 47z"/>
<path d="M7645 8745 c-34 -33 -33 -77 1 -104 15 -12 34 -21 44 -21 34 0 70 39
70 75 0 24 -7 39 -26 54 -35 27 -59 26 -89 -4z"/>
<path d="M4431 8694 c-41 -53 -13 -114 52 -114 42 0 70 29 70 72 0 64 -83 92
-122 42z"/>
<path d="M3570 8673 c-51 -19 -68 -85 -30 -123 61 -61 159 32 103 98 -20 23
-50 33 -73 25z"/>
<path d="M6810 8597 c-75 -38 -28 -154 54 -133 30 7 60 58 51 86 -7 21 -51 60
-69 60 -6 0 -22 -6 -36 -13z"/>
<path d="M2762 8540 c-26 -24 -29 -66 -6 -98 11 -16 25 -22 54 -22 29 0 43 6
54 22 52 74 -37 158 -102 98z"/>
<path d="M8605 8515 c-14 -13 -25 -36 -25 -50 0 -28 40 -75 64 -75 29 0 64 22
75 48 16 33 -1 75 -35 91 -37 16 -52 14 -79 -14z"/>
<path d="M4204 8246 c-133 -32 -224 -130 -224 -240 0 -105 135 -294 277 -387
203 -132 520 -203 666 -149 162 61 184 245 47 393 -22 25 -91 79 -153 120 -61
41 -144 102 -184 136 -87 73 -154 108 -242 127 -79 16 -119 16 -187 0z m263
-91 c29 -13 91 -55 138 -94 46 -38 128 -98 182 -134 114 -74 173 -134 198
-200 48 -127 -33 -217 -196 -217 -123 0 -383 84 -499 161 -116 78 -250 256
-250 333 0 156 235 239 427 151z"/>
<path d="M6255 8251 c-73 -18 -112 -51 -144 -121 -74 -163 76 -342 232 -276
87 36 129 160 96 279 -13 48 -61 103 -97 111 -15 4 -34 8 -42 10 -8 2 -28 0
-45 -3z m98 -91 c48 -57 47 -168 -3 -224 -24 -26 -35 -31 -75 -31 -41 0 -51 4
-80 37 -45 48 -53 96 -29 156 37 89 137 122 187 62z"/>
<path d="M5215 8215 c-46 -45 -19 -118 43 -118 43 0 72 28 72 70 0 67 -68 96
-115 48z"/>
<path d="M6840 8030 l0 -30 825 0 825 0 0 30 0 30 -825 0 -825 0 0 -30z"/>
<path d="M9631 7934 c-12 -15 -21 -35 -21 -46 0 -27 45 -68 75 -68 30 0 75 41
75 68 0 35 -38 72 -75 72 -24 0 -39 -7 -54 -26z"/>
<path d="M422 7933 c-51 -43 -24 -123 41 -123 38 0 50 7 66 37 17 33 14 51
-14 78 -28 29 -65 32 -93 8z"/>
<path d="M2321 7914 c-12 -15 -21 -34 -21 -44 0 -34 39 -70 75 -70 36 0 75 36
75 70 0 34 -39 70 -75 70 -24 0 -39 -7 -54 -26z"/>
<path d="M3402 7827 c-43 -46 -15 -120 46 -120 43 0 72 28 72 70 0 66 -74 97
-118 50z"/>
<path d="M10370 7690 c-43 -43 -11 -120 50 -120 38 0 70 32 70 70 0 38 -32 70
-70 70 -17 0 -39 -9 -50 -20z"/>
<path d="M2740 7668 c-25 -13 -55 -39 -68 -58 -51 -75 -5 -204 92 -265 96 -59
234 -33 292 54 31 48 40 106 24 155 -14 44 -86 109 -138 124 -65 20 -152 15
-202 -10z m215 -64 c108 -56 89 -188 -34 -225 -71 -21 -154 18 -191 92 -33 64
-21 116 34 144 42 21 139 16 191 -11z"/>
<path d="M713 7575 c-66 -47 -8 -150 70 -123 51 18 62 74 22 113 -27 28 -61
32 -92 10z"/>
<path d="M7299 7532 c-28 -23 -30 -73 -4 -102 24 -26 79 -26 105 0 63 63 -31
158 -101 102z"/>
<path d="M8232 7430 c-77 -31 -34 -153 48 -135 65 14 74 106 14 134 -29 13
-31 13 -62 1z"/>
<path d="M9136 7419 c-19 -15 -26 -30 -26 -54 0 -36 36 -75 70 -75 34 0 70 39
70 75 0 36 -36 75 -70 75 -10 0 -29 -9 -44 -21z"/>
<path d="M1546 7389 c-19 -15 -26 -30 -26 -54 0 -36 36 -75 70 -75 34 0 70 39
70 75 0 36 -36 75 -70 75 -10 0 -29 -9 -44 -21z"/>
<path d="M5510 7370 c-11 -11 -20 -33 -20 -50 0 -17 9 -39 20 -50 11 -11 33
-20 50 -20 17 0 39 9 50 20 11 11 20 33 20 50 0 17 -9 39 -20 50 -11 11 -33
20 -50 20 -17 0 -39 -9 -50 -20z"/>
<path d="M11072 7363 c-7 -3 -19 -18 -28 -35 -13 -24 -13 -35 -4 -58 31 -74
140 -51 140 30 0 45 -63 81 -108 63z"/>
<path d="M3620 7148 c-26 -28 -26 -58 1 -92 39 -50 122 -22 122 42 0 66 -78
98 -123 50z"/>
<path d="M2161 7064 c-12 -15 -21 -34 -21 -44 0 -32 39 -70 71 -70 34 0 79 39
79 68 0 35 -38 72 -75 72 -24 0 -39 -7 -54 -26z"/>
<path d="M6472 7047 c-45 -48 -14 -117 51 -117 43 0 70 29 69 72 -2 63 -77 91
-120 45z"/>
<path d="M8132 7014 c-76 -39 -97 -125 -49 -206 31 -53 76 -89 153 -125 46
-21 67 -25 121 -21 60 4 68 7 99 40 112 123 -19 311 -226 325 -48 3 -74 -1
-98 -13z m157 -60 c123 -36 188 -163 113 -220 -56 -43 -225 25 -267 106 -29
55 -14 105 35 123 27 10 66 7 119 -9z"/>
<path d="M9775 6955 c-46 -46 -19 -118 44 -118 66 0 98 76 51 123 -27 27 -66
25 -95 -5z"/>
<path d="M4451 6814 c-12 -15 -21 -34 -21 -44 0 -34 39 -70 75 -70 36 0 75 36
75 70 0 34 -39 70 -75 70 -24 0 -39 -7 -54 -26z"/>
<path d="M10370 6820 c-24 -24 -26 -67 -4 -98 20 -29 76 -30 104 -2 43 43 11
120 -50 120 -17 0 -39 -9 -50 -20z"/>
<path d="M1500 6740 l0 -30 1265 0 1265 0 0 30 0 30 -1265 0 -1265 0 0 -30z"/>
<path d="M4960 6720 l0 -30 1125 0 1125 0 0 30 0 30 -1125 0 -1125 0 0 -30z"/>
<path d="M9255 6635 c-27 -8 -53 -14 -57 -15 -4 0 -42 -24 -85 -53 -89 -61
-128 -78 -243 -106 -98 -25 -142 -50 -180 -103 -138 -190 52 -460 287 -410
116 24 243 97 428 245 121 97 161 146 171 213 14 95 -58 199 -158 229 -62 18
-97 18 -163 0z m173 -72 c88 -41 112 -151 50 -224 -13 -15 -63 -59 -112 -98
-227 -184 -391 -259 -498 -231 -125 34 -195 174 -143 285 26 54 70 81 177 109
109 28 154 48 248 112 104 70 194 85 278 47z"/>
<path d="M7459 6628 c-16 -5 -32 -22 -39 -39 -35 -84 84 -137 129 -58 31 55
-28 118 -90 97z"/>
<path d="M1506 6549 c-19 -15 -26 -30 -26 -54 0 -36 36 -75 70 -75 34 0 70 39
70 75 0 36 -36 75 -70 75 -10 0 -29 -9 -44 -21z"/>
<path d="M2760 6430 c-43 -43 -11 -120 50 -120 38 0 70 32 70 70 0 38 -32 70
-70 70 -17 0 -39 -9 -50 -20z"/>
<path d="M6610 6270 c-11 -11 -20 -33 -20 -50 0 -17 9 -39 20 -50 11 -11 33
-20 50 -20 17 0 39 9 50 20 11 11 20 33 20 50 0 17 -9 39 -20 50 -11 11 -33
20 -50 20 -17 0 -39 -9 -50 -20z"/>
<path d="M3997 6202 c-25 -28 -22 -87 5 -106 50 -35 118 -4 118 54 0 59 -85
95 -123 52z"/>
<path d="M5301 6194 c-12 -15 -21 -34 -21 -44 0 -33 39 -70 74 -70 60 0 93 66
56 113 -29 37 -80 37 -109 1z"/>
<path d="M11052 6170 c-77 -31 -34 -153 48 -135 65 14 74 106 14 134 -29 13
-31 13 -62 1z"/>
<path d="M4530 6054 c-74 -32 -110 -86 -110 -164 0 -62 17 -97 70 -142 72 -62
195 -86 267 -52 78 38 117 148 78 225 -58 114 -202 178 -305 133z m179 -82
c56 -34 84 -84 77 -136 -10 -80 -86 -114 -184 -82 -104 35 -153 134 -100 201
47 61 126 67 207 17z"/>
<path d="M9680 6040 c-11 -11 -20 -33 -20 -50 0 -17 9 -39 20 -50 11 -11 33
-20 50 -20 17 0 39 9 50 20 11 11 20 33 20 50 0 17 -9 39 -20 50 -11 11 -33
20 -50 20 -17 0 -39 -9 -50 -20z"/>
<path d="M2235 5925 c-14 -13 -25 -36 -25 -50 0 -28 40 -75 64 -75 29 0 64 22
75 48 16 33 -1 75 -35 91 -37 16 -52 14 -79 -14z"/>
<path d="M7965 5925 c-14 -13 -25 -36 -25 -50 0 -30 41 -75 68 -75 35 0 72 38
72 75 0 24 -7 39 -26 54 -35 27 -59 26 -89 -4z"/>
<path d="M1455 5855 c-41 -40 -30 -92 25 -115 25 -10 34 -10 55 4 50 33 55 91
12 121 -31 22 -65 18 -92 -10z"/>
<path d="M10135 5795 c-14 -13 -25 -35 -25 -47 0 -56 61 -93 106 -63 37 24 48
52 33 86 -22 54 -74 65 -114 24z"/>
<path d="M3105 5765 c-37 -37 -30 -91 16 -115 55 -30 123 32 99 90 -11 27 -46
50 -76 50 -8 0 -26 -11 -39 -25z"/>
<path d="M5450 5735 l0 -35 640 0 640 0 0 35 0 35 -640 0 -640 0 0 -35z"/>
<path d="M7180 5740 c-26 -26 -25 -60 1 -94 25 -31 66 -35 100 -8 28 23 30 73
4 102 -24 26 -79 26 -105 0z"/>
<path d="M5860 5540 c-62 -62 31 -158 99 -102 28 22 31 75 6 102 -24 26 -79
26 -105 0z"/>
<path d="M7262 5418 l3 -33 1178 -3 1177 -2 0 35 0 35 -1181 0 -1180 0 3 -32z"/>
<path d="M2780 5365 l0 -35 1325 0 1325 0 0 35 0 35 -1325 0 -1325 0 0 -35z"/>
<path d="M2250 5361 c-200 -43 -216 -273 -25 -374 61 -33 184 -31 244 3 70 40
104 89 109 159 9 127 -72 201 -238 215 -30 3 -71 1 -90 -3z m165 -72 c59 -17
105 -67 105 -117 0 -123 -161 -191 -283 -119 -50 30 -86 86 -87 135 0 37 26
78 62 95 39 19 144 22 203 6z"/>
<path d="M6617 5172 c-25 -28 -22 -87 5 -106 71 -50 159 43 98 104 -26 26 -81
26 -103 2z"/>
<path d="M8105 5145 c-32 -31 -32 -69 0 -100 30 -30 54 -31 89 -4 18 14 26 30
26 52 0 38 -7 50 -37 66 -33 17 -51 14 -78 -14z"/>
<path d="M4009 5072 c-28 -23 -30 -73 -4 -102 25 -27 78 -27 105 2 26 28 26
58 -1 92 -25 31 -66 35 -100 8z"/>
<path d="M416 5049 c-36 -28 -36 -80 0 -108 15 -12 34 -21 44 -21 34 0 70 39
70 75 0 36 -36 75 -70 75 -10 0 -29 -9 -44 -21z"/>
<path d="M3298 4975 c-54 -30 -42 -116 18 -131 83 -21 126 99 48 135 -31 14
-33 14 -66 -4z"/>
<path d="M4855 4959 c-100 -28 -263 -110 -309 -156 -82 -81 -98 -181 -47 -290
79 -167 209 -227 491 -227 242 -1 357 43 415 159 25 50 29 70 28 130 -2 164
-118 324 -278 384 -73 28 -202 27 -300 0z m313 -73 c119 -61 192 -170 200
-297 5 -85 -15 -139 -64 -178 -63 -50 -245 -76 -412 -60 -133 12 -215 40 -266
87 -46 44 -96 144 -96 191 0 47 34 114 73 144 63 48 212 113 322 141 11 3 58
4 105 2 70 -2 95 -7 138 -30z"/>
<path d="M9176 4889 c-19 -15 -26 -30 -26 -54 0 -36 36 -75 70 -75 34 0 70 39
70 75 0 36 -36 75 -70 75 -10 0 -29 -9 -44 -21z"/>
<path d="M10290 4860 c-24 -24 -26 -67 -4 -98 20 -29 76 -30 104 -2 43 43 11
120 -50 120 -17 0 -39 -9 -50 -20z"/>
<path d="M1540 4780 c-11 -11 -20 -33 -20 -50 0 -17 9 -39 20 -50 11 -11 33
-20 50 -20 17 0 39 9 50 20 11 11 20 33 20 50 0 17 -9 39 -20 50 -11 11 -33
20 -50 20 -17 0 -39 -9 -50 -20z"/>
<path d="M5757 4652 c-40 -44 -6 -122 53 -122 60 0 92 78 50 120 -26 26 -81
26 -103 2z"/>
<path d="M7345 4650 c-42 -47 -8 -120 55 -120 33 0 70 40 70 74 0 57 -86 89
-125 46z"/>
<path d="M2406 4629 c-19 -15 -26 -30 -26 -54 0 -36 36 -75 70 -75 34 0 70 39
70 75 0 36 -36 75 -70 75 -10 0 -29 -9 -44 -21z"/>
<path d="M9870 4518 c-27 -29 -25 -69 3 -96 46 -43 120 -15 120 46 0 66 -78
98 -123 50z"/>
<path d="M8387 4442 c-23 -25 -21 -78 3 -102 61 -61 154 27 104 98 -20 28 -83
31 -107 4z"/>
<path d="M3867 4298 c-41 -32 -38 -94 6 -123 46 -30 107 6 107 63 0 51 -73 90
-113 60z"/>
<path d="M1650 4150 l0 -30 936 0 935 0 -3 28 -3 27 -932 3 -933 2 0 -30z"/>
<path d="M10456 4105 c-107 -38 -164 -168 -120 -273 57 -138 246 -179 326 -71
68 91 61 221 -15 299 -57 58 -115 72 -191 45z m108 -59 c90 -38 112 -196 35
-260 -103 -87 -268 61 -205 182 19 37 58 71 92 82 40 12 41 12 78 -4z"/>
<path d="M7602 4087 c-115 -42 -173 -174 -123 -283 60 -132 259 -139 328 -11
13 23 18 55 18 112 0 67 -4 86 -24 119 -40 64 -123 90 -199 63z m125 -73 c29
-18 47 -85 38 -141 -14 -96 -109 -143 -185 -91 -68 46 -77 137 -18 203 47 54
110 65 165 29z"/>
<path d="M8712 4073 l3 -28 643 -3 642 -2 0 30 0 30 -646 0 -645 0 3 -27z"/>
<path d="M4730 4040 l0 -30 1110 0 1110 0 0 30 0 30 -1110 0 -1110 0 0 -30z"/>
<path d="M3030 3752 c-51 -16 -68 -84 -30 -122 56 -56 148 19 110 90 -11 20
-58 39 -80 32z"/>
<path d="M8440 3740 c-43 -43 -11 -120 50 -120 38 0 70 32 70 70 0 38 -32 70
-70 70 -17 0 -39 -9 -50 -20z"/>
<path d="M4165 3690 c-42 -46 -10 -120 51 -120 35 0 74 37 74 70 0 10 -9 29
-21 44 -26 33 -77 36 -104 6z"/>
<path d="M5533 3655 c-66 -47 -8 -150 70 -123 51 18 62 74 22 113 -27 28 -61
32 -92 10z"/>
<path d="M9225 3625 c-14 -13 -25 -36 -25 -50 0 -28 40 -75 64 -75 78 0 109
107 40 139 -37 16 -52 14 -79 -14z"/>
<path d="M10890 3610 c-26 -26 -26 -81 -2 -103 44 -40 122 -7 122 51 0 60 -78
94 -120 52z"/>
<path d="M735 3505 c-14 -13 -25 -36 -25 -50 0 -28 40 -75 64 -75 78 0 109
107 40 139 -37 16 -52 14 -79 -14z"/>
<path d="M6442 3477 c-43 -46 -15 -120 46 -120 43 0 72 28 72 70 0 66 -74 97
-118 50z"/>
<path d="M1915 3455 c-40 -39 -29 -97 22 -116 58 -22 116 36 94 94 -19 51 -77
62 -116 22z"/>
<path d="M7685 3215 c-30 -30 -31 -54 -4 -89 15 -19 30 -26 54 -26 37 0 75 37
75 72 0 27 -45 68 -75 68 -14 0 -37 -11 -50 -25z"/>
<path d="M3090 3170 l0 -30 1040 0 1040 0 0 30 0 30 -1040 0 -1040 0 0 -30z"/>
<path d="M9889 3062 c-48 -40 -17 -122 46 -122 65 0 98 75 52 118 -28 27 -67
28 -98 4z"/>
<path d="M1247 2923 c-42 -47 -10 -123 51 -123 60 0 94 78 52 120 -25 25 -81
26 -103 3z"/>
<path d="M6677 2922 c-23 -25 -21 -78 3 -102 61 -61 154 27 104 98 -20 28 -83
31 -107 4z"/>
<path d="M3078 2916 c-94 -34 -140 -91 -146 -181 -5 -77 20 -130 81 -172 37
-26 48 -28 136 -28 87 0 100 3 144 28 92 54 128 151 89 239 -44 99 -191 154
-304 114z m181 -74 c20 -10 46 -34 59 -53 60 -88 -32 -199 -166 -199 -106 0
-167 54 -159 143 10 113 148 170 266 109z"/>
<path d="M8580 2900 c-43 -43 -11 -120 50 -120 38 0 70 32 70 70 0 38 -32 70
-70 70 -17 0 -39 -9 -50 -20z"/>
<path d="M110 2873 c-53 -19 -68 -86 -28 -123 63 -58 157 33 101 98 -20 23
-50 33 -73 25z"/>
<path d="M5582 2834 c-29 -20 -30 -76 -2 -104 43 -43 120 -11 120 50 0 59 -67
90 -118 54z"/>
<path d="M4342 2807 c-45 -48 -17 -117 47 -117 46 0 71 24 71 68 0 65 -74 96
-118 49z"/>
<path d="M10482 2733 c-32 -27 -37 -64 -12 -96 57 -72 167 8 113 81 -25 33
-71 40 -101 15z"/>
<path d="M2235 2715 c-40 -39 -29 -97 22 -116 62 -23 119 40 89 99 -25 49 -72
56 -111 17z"/>
<path d="M4080 2440 l0 -30 1275 0 1275 0 0 30 0 30 -1275 0 -1275 0 0 -30z"/>
<path d="M8150 2440 l0 -30 1240 0 1240 0 0 30 0 30 -1240 0 -1240 0 0 -30z"/>
<path d="M7225 2436 c-63 -20 -99 -42 -137 -84 -46 -51 -61 -99 -56 -175 5
-88 38 -149 127 -237 125 -124 239 -179 371 -180 132 0 231 68 294 200 64 137
42 246 -72 352 -104 95 -226 138 -392 137 -52 0 -113 -6 -135 -13z m330 -76
c106 -40 187 -106 227 -184 26 -51 20 -123 -16 -193 -37 -74 -70 -109 -132
-139 -77 -38 -165 -31 -269 20 -93 46 -213 156 -249 228 -61 121 -14 233 116
280 74 26 237 20 323 -12z"/>
<path d="M3515 2120 c-42 -46 -10 -120 51 -120 35 0 74 37 74 70 0 10 -9 29
-21 44 -26 33 -77 36 -104 6z"/>
<path d="M5600 2120 c-42 -42 -12 -120 48 -120 46 0 72 25 72 70 0 29 -6 43
-22 54 -31 22 -74 20 -98 -4z"/>
<path d="M9060 2050 c-61 -61 27 -154 98 -104 28 20 31 83 4 107 -25 23 -78
21 -102 -3z"/>
<path d="M2663 1928 c-81 -39 -20 -167 62 -130 55 25 58 100 5 127 -33 17 -37
17 -67 3z"/>
<path d="M4602 1933 c-7 -3 -19 -18 -28 -35 -13 -24 -13 -35 -4 -58 31 -74
140 -51 140 30 0 45 -63 81 -108 63z"/>
<path d="M6425 1890 c-42 -47 -8 -120 55 -120 33 0 70 40 70 74 0 57 -86 89
-125 46z"/>
<path d="M10705 1904 c-205 -53 -288 -123 -288 -244 0 -113 83 -210 214 -251
178 -56 419 16 486 146 23 43 20 122 -5 172 -54 105 -171 173 -305 179 -45 1
-91 1 -102 -2z m235 -96 c50 -25 73 -45 98 -82 79 -118 12 -218 -175 -262
-199 -47 -383 49 -383 199 0 38 6 53 31 82 39 44 66 59 160 85 102 28 183 21
269 -22z"/>
<path d="M8327 1822 c-23 -25 -21 -78 3 -102 61 -61 154 27 104 98 -20 28 -83
31 -107 4z"/>
<path d="M5380 1803 c-43 -22 -60 -38 -78 -73 -46 -89 -6 -204 92 -265 42 -26
61 -30 130 -33 73 -3 86 -1 136 25 88 47 134 137 110 218 -18 59 -42 88 -101
119 -44 24 -67 30 -143 33 -85 4 -95 3 -146 -24z m257 -62 c50 -25 73 -59 73
-108 0 -82 -74 -143 -175 -143 -172 0 -264 195 -123 261 55 26 165 21 225 -10z"/>
<path d="M1003 1715 c-66 -46 -8 -150 68 -123 26 9 49 44 49 74 0 23 -46 64
-72 64 -13 0 -33 -7 -45 -15z"/>
<path d="M9747 1662 c-40 -44 -7 -122 51 -122 59 0 92 67 56 118 -20 28 -83
31 -107 4z"/>
<path d="M1845 1615 c-40 -39 -29 -97 22 -116 62 -23 119 40 89 99 -25 49 -72
56 -111 17z"/>
<path d="M7415 1385 c-46 -45 -19 -118 43 -118 43 0 72 28 72 70 0 67 -68 96
-115 48z"/>
<path d="M3190 1377 c-13 -7 -29 -25 -34 -39 -29 -83 94 -137 128 -56 17 39
11 63 -22 88 -29 23 -38 24 -72 7z"/>
<path d="M4040 1370 c-11 -11 -20 -33 -20 -50 0 -17 9 -39 20 -50 11 -11 33
-20 50 -20 17 0 39 9 50 20 11 11 20 33 20 50 0 17 -9 39 -20 50 -11 11 -33
20 -50 20 -17 0 -39 -9 -50 -20z"/>
<path d="M8761 1174 c-12 -15 -21 -34 -21 -44 0 -34 39 -70 75 -70 36 0 75 36
75 70 0 34 -39 70 -75 70 -24 0 -39 -7 -54 -26z"/>
<path d="M9512 1153 c-146 -72 -100 -344 67 -394 104 -31 194 43 216 177 13
85 -32 177 -105 214 -48 25 -132 26 -178 3z m148 -58 c51 -27 70 -61 70 -130
0 -137 -107 -197 -193 -107 -35 36 -47 73 -47 138 0 48 4 60 29 85 34 33 92
39 141 14z"/>
<path d="M4670 1030 l0 -30 1660 0 1660 0 0 30 0 30 -1660 0 -1660 0 0 -30z"/>
<path d="M3563 996 c-203 -39 -351 -123 -438 -251 -35 -51 -39 -61 -38 -119 1
-77 33 -179 77 -244 30 -43 48 -55 247 -155 l214 -108 75 4 c96 6 222 48 377
126 344 172 426 285 338 461 -27 53 -101 125 -150 146 -19 8 -56 14 -83 14
-38 0 -72 11 -145 45 -52 25 -122 55 -154 66 -76 26 -224 33 -320 15z m292
-73 c28 -8 98 -38 157 -65 77 -35 123 -50 160 -52 29 -2 59 -4 66 -5 22 -2
103 -84 124 -124 26 -52 26 -117 -2 -161 -64 -105 -466 -309 -652 -331 l-57
-7 -207 103 c-172 87 -211 110 -231 140 -35 54 -63 142 -63 203 0 48 4 60 40
105 135 171 447 262 665 194z"/>
<path d="M10292 984 c-62 -43 -32 -134 44 -134 23 0 64 47 64 73 0 55 -65 92
-108 61z"/>
<path d="M11077 923 c-9 -2 -24 -18 -33 -35 -30 -59 27 -122 89 -99 51 19 62
77 22 116 -23 24 -40 28 -78 18z"/>
<path d="M7103 758 c-68 -33 -39 -138 38 -138 28 0 69 44 69 73 0 51 -61 88
-107 65z"/>
<path d="M5120 700 c-43 -43 -11 -120 50 -120 38 0 70 32 70 70 0 38 -32 70
-70 70 -17 0 -39 -9 -50 -20z"/>
<path d="M1135 605 c-48 -47 -19 -115 48 -115 42 0 70 29 70 72 0 62 -73 89
-118 43z"/>
<path d="M2532 607 c-45 -48 -17 -117 47 -117 46 0 71 24 71 68 0 65 -74 96
-118 49z"/>
<path d="M6152 537 c-45 -48 -14 -117 51 -117 42 0 67 26 67 68 0 65 -74 96
-118 49z"/>
<path d="M8053 510 c-46 -19 -57 -83 -20 -118 47 -44 117 -13 117 52 0 50 -50
84 -97 66z"/>
<path d="M8805 405 c-14 -13 -25 -31 -25 -39 0 -30 23 -65 50 -76 58 -24 120
44 90 99 -24 46 -78 53 -115 16z"/>
</g>
</svg>
