<?xml version="1.0" standalone="no"?>
<!DOCTYPE svg PUBLIC "-//W3C//DTD SVG 20010904//EN"
 "http://www.w3.org/TR/2001/REC-SVG-20010904/DTD/svg10.dtd">
<svg version="1.0" xmlns="http://www.w3.org/2000/svg"
 width="1125.000000pt" height="900.000000pt" viewBox="0 0 1125.000000 900.000000"
 preserveAspectRatio="xMidYMid meet">
<metadata>
Created by potrace 1.13, written by Peter Selinger 2001-2015
</metadata>
<g transform="translate(0.000000,900.000000) scale(0.100000,-0.100000)"
fill="#000000" stroke="none">
<path d="M0 4500 l0 -4500 5625 0 5625 0 0 4500 0 4500 -5625 0 -5625 0 0
-4500z m523 4435 c-50 -418 -66 -986 -34 -1153 10 -53 12 -55 46 -46 21 5 25
11 21 28 -19 66 -27 345 -17 571 12 263 38 566 52 602 l9 23 481 0 482 0 -6
-32 c-3 -18 -16 -89 -28 -158 -19 -104 -23 -161 -24 -342 0 -119 3 -219 7
-223 4 -4 18 -5 31 -1 l23 5 -4 141 c-3 77 1 191 8 253 13 128 47 313 61 339
9 16 28 18 219 18 126 0 211 -4 215 -10 9 -15 -13 -162 -45 -300 -17 -69 -35
-156 -40 -195 -18 -117 -24 -467 -11 -635 16 -219 17 -220 53 -220 l31 0 -7
48 c-16 130 -28 403 -22 545 8 199 20 295 52 427 15 58 34 157 43 220 l17 115
175 0 174 0 -3 -79 c-2 -44 -16 -170 -32 -280 -35 -233 -40 -437 -15 -601 19
-124 22 -135 43 -135 40 1 43 12 25 96 -12 58 -17 133 -17 279 0 170 4 226 27
375 15 96 31 213 35 260 l7 85 183 3 182 2 0 -42 c0 -24 -7 -106 -15 -183 -20
-193 -21 -185 14 -185 33 0 31 -9 55 246 7 77 16 146 20 152 11 18 595 17 601
0 5 -15 32 -443 40 -633 3 -71 8 -167 11 -212 l6 -83 29 0 c25 0 29 4 29 28 0
62 -21 461 -36 670 -8 122 -12 227 -9 232 3 6 50 10 103 10 l97 0 0 -187 c0
-178 2 -192 28 -270 l27 -82 30 11 c17 5 30 11 30 12 0 1 -9 27 -20 58 -31 90
-43 192 -37 321 3 64 9 122 12 127 6 10 605 15 605 5 0 -3 -9 -41 -21 -85 -11
-44 -17 -84 -14 -90 3 -5 17 -10 30 -10 19 0 26 7 31 28 3 15 14 56 23 92 l18
65 236 3 c205 2 237 0 237 -13 0 -8 -6 -86 -14 -172 -38 -417 -27 -725 33
-950 12 -45 25 -52 54 -30 15 11 16 16 2 62 -9 27 -23 104 -31 170 -25 184
-12 709 21 903 l6 32 522 -2 c457 -3 522 -5 520 -18 -13 -93 -43 -413 -48
-515 -5 -110 4 -288 16 -300 2 -2 15 -1 29 2 l25 4 0 237 c0 227 23 506 46
570 8 22 9 22 234 22 124 0 225 -1 225 -2 0 -2 -9 -50 -21 -108 -45 -235 -60
-359 -66 -545 -7 -251 15 -410 78 -562 l21 -52 28 14 28 14 -25 61 c-53 133
-67 227 -67 460 0 225 13 343 67 605 l22 110 174 3 174 2 -6 -37 c-20 -127
-29 -305 -24 -443 6 -158 20 -245 58 -358 19 -56 23 -62 42 -56 33 10 40 20
29 41 -22 40 -52 185 -64 302 -9 97 -9 159 1 294 7 95 16 190 20 212 l6 40
493 3 c270 1 492 -1 492 -5 0 -5 -12 -62 -26 -128 -20 -93 -27 -160 -31 -300
-5 -186 5 -289 42 -413 14 -47 18 -52 38 -46 12 3 25 9 28 13 4 3 -4 49 -18
101 -51 197 -41 488 26 738 l12 42 255 0 256 0 -6 -27 c-44 -206 -44 -766 0
-1163 16 -151 41 -300 53 -318 11 -19 65 3 57 23 -45 118 -94 781 -81 1095 7
154 28 361 40 380 6 11 447 15 457 4 3 -3 0 -29 -8 -57 -67 -253 -62 -718 10
-1022 23 -95 56 -195 74 -223 13 -20 65 6 56 27 -28 66 -57 157 -74 233 -66
294 -67 739 -2 978 l17 65 240 3 c132 1 245 0 251 -2 8 -3 2 -38 -17 -112 -48
-184 -62 -291 -57 -437 4 -89 12 -159 27 -215 24 -92 90 -254 106 -258 6 -2
18 3 29 11 18 14 17 17 -18 100 -65 152 -79 220 -80 395 -1 164 16 271 67 440
l23 75 462 3 c380 2 462 0 462 -11 0 -7 -11 -45 -24 -83 -54 -160 -70 -250
-70 -411 -1 -83 2 -154 5 -158 4 -3 17 -3 30 0 24 6 24 7 24 148 1 121 5 158
29 252 15 61 40 144 54 185 l27 75 140 0 140 0 0 -290 c0 -229 -4 -322 -20
-440 -12 -97 -19 -212 -20 -325 0 -189 7 -250 30 -250 13 0 15 -179 15 -1382
0 -760 -2 -1379 -4 -1377 -3 3 -14 67 -25 144 -27 178 -33 199 -57 203 -34 4
-45 -10 -34 -48 19 -65 49 -315 71 -580 15 -193 25 -268 35 -276 12 -10 14
-339 12 -2150 l-3 -2139 -192 -3 c-165 -2 -193 0 -193 12 0 21 85 312 105 359
15 37 15 37 -11 48 -15 5 -30 6 -34 2 -12 -13 -71 -199 -100 -313 l-27 -105
-191 -3 c-106 -1 -192 1 -192 6 0 4 29 84 65 176 139 358 152 463 109 889 -6
55 -7 57 -36 57 l-30 0 9 -112 c4 -62 8 -194 7 -293 -1 -165 -3 -187 -27 -267
-31 -103 -155 -428 -169 -445 -8 -10 -68 -13 -236 -13 l-225 0 7 67 c13 127
47 275 112 485 77 252 145 525 176 703 17 98 22 172 22 302 1 94 -1 174 -4
176 -3 3 -16 3 -30 0 l-25 -4 -1 -162 c0 -120 -6 -197 -23 -297 -29 -170 -104
-471 -176 -705 -62 -199 -88 -308 -105 -435 -6 -47 -13 -95 -16 -108 l-4 -22
-230 0 c-126 0 -231 4 -234 8 -12 20 67 424 109 557 29 91 52 281 41 337 -6
33 -10 38 -35 38 l-29 0 -5 -137 c-4 -111 -10 -155 -31 -223 -33 -106 -70
-271 -97 -437 -11 -70 -23 -131 -25 -135 -5 -8 -337 -11 -345 -3 -3 2 5 73 17
157 64 440 113 986 121 1356 6 262 5 272 -13 271 -49 -2 -49 1 -50 -249 -2
-245 -18 -483 -60 -880 -28 -265 -78 -632 -88 -649 -5 -7 -78 -11 -232 -11
l-224 0 0 38 c0 54 34 255 74 432 19 86 42 198 51 250 15 94 20 312 9 381 -5
32 -9 35 -34 31 l-28 -4 5 -136 c6 -159 -5 -246 -67 -522 -32 -146 -80 -421
-80 -462 0 -5 -99 -8 -220 -8 -121 0 -220 4 -220 8 0 5 16 58 35 118 19 60 35
116 35 125 0 17 -40 34 -52 21 -3 -4 -24 -65 -46 -137 l-40 -130 -243 -3
c-133 -1 -246 1 -250 5 -9 9 14 270 37 418 9 55 32 172 52 260 34 151 36 170
36 330 0 94 -3 187 -7 207 -7 34 -11 38 -38 38 l-30 0 7 -72 c5 -40 8 -129 8
-198 -1 -106 -7 -150 -37 -287 -39 -176 -70 -371 -87 -558 -6 -66 -13 -126
-15 -132 -3 -10 -51 -13 -195 -13 l-190 0 0 23 c0 54 35 222 75 362 58 203 65
241 72 380 8 183 -11 302 -119 758 -11 45 -13 48 -37 42 -14 -4 -28 -8 -30
-11 -2 -2 17 -91 42 -197 64 -267 80 -370 80 -527 1 -157 -11 -236 -64 -412
-36 -121 -75 -301 -81 -378 l-3 -35 -194 -3 c-107 -1 -198 1 -202 5 -11 11 15
206 47 363 41 204 35 405 -22 668 -36 170 -32 160 -60 154 -13 -2 -26 -8 -29
-12 -2 -4 7 -57 20 -118 59 -262 71 -479 34 -655 -12 -56 -31 -169 -43 -252
l-21 -150 -267 -3 c-178 -1 -268 1 -268 8 0 6 22 70 49 143 105 288 113 408
45 687 -34 142 -40 226 -20 328 18 94 12 177 -11 168 -8 -4 -20 -6 -28 -6 -15
0 -28 -130 -28 -295 0 -87 5 -131 26 -211 37 -141 49 -262 36 -363 -10 -84
-24 -132 -98 -341 l-41 -115 -212 -3 c-116 -1 -215 1 -219 5 -4 5 1 58 11 118
10 61 20 143 24 183 l6 72 -33 0 -34 0 -6 -92 c-7 -103 -34 -269 -46 -281 -4
-4 -104 -6 -222 -5 l-214 3 3 25 c6 59 50 167 143 355 75 151 106 224 124 299
41 162 31 321 -31 511 -34 101 -29 96 -63 84 l-29 -10 34 -104 c47 -143 62
-269 46 -380 -17 -115 -48 -197 -153 -405 -49 -98 -99 -214 -114 -265 -15 -50
-29 -96 -31 -102 -2 -10 -57 -13 -230 -13 l-227 0 7 55 c9 76 65 289 126 480
78 244 100 343 107 485 5 123 -7 230 -47 416 -10 48 -12 50 -40 46 -17 -2 -30
-7 -30 -11 0 -3 11 -62 25 -131 58 -299 47 -405 -93 -847 -53 -169 -96 -336
-117 -456 l-6 -37 -196 0 -195 0 7 28 c3 15 25 70 47 122 132 309 146 469 77
885 -26 159 -25 157 -57 153 -33 -4 -33 6 3 -213 21 -130 28 -205 28 -320 1
-186 -9 -230 -105 -472 l-73 -183 -157 0 c-147 0 -158 1 -158 19 0 20 100 381
124 450 17 47 15 55 -21 65 -21 7 -24 -1 -57 -106 -19 -62 -52 -176 -71 -253
-20 -77 -40 -147 -44 -155 -11 -21 -451 -28 -451 -7 0 7 22 93 50 191 88 317
95 357 95 566 0 176 -2 191 -34 318 l-33 134 -27 -7 c-14 -4 -28 -8 -30 -10
-2 -2 8 -50 23 -107 14 -57 31 -137 37 -178 17 -110 5 -311 -25 -443 -31 -133
-114 -436 -125 -457 -7 -12 -42 -15 -205 -18 l-196 -2 0 25 c0 41 46 225 110
436 92 307 105 383 105 639 0 240 -15 360 -43 360 -41 -1 -45 -13 -31 -91 9
-48 14 -145 13 -274 0 -237 -16 -326 -114 -650 -33 -110 -69 -245 -81 -300
-33 -161 -10 -146 -211 -143 l-173 3 3 45 c10 172 42 356 87 515 53 186 67
279 72 497 6 211 -3 327 -38 495 -21 102 -22 103 -48 96 -14 -3 -28 -7 -30 -9
-2 -2 6 -50 18 -106 33 -163 44 -297 38 -483 -6 -188 -23 -308 -62 -435 -38
-126 -72 -297 -90 -459 -8 -79 -18 -148 -21 -153 -3 -4 -84 -8 -180 -8 -143 0
-174 2 -174 14 0 8 31 155 70 328 38 172 72 332 76 355 7 43 6 43 -24 43 -29
0 -31 -3 -42 -57 -7 -32 -38 -177 -70 -323 -32 -146 -63 -285 -67 -310 l-9
-45 -187 -3 c-182 -2 -187 -2 -187 18 0 40 41 210 76 312 19 56 41 141 49 187
20 110 19 378 -1 551 -16 142 -71 439 -83 453 -4 4 -19 3 -33 -2 l-26 -10 24
-108 c52 -239 67 -375 68 -613 1 -247 -2 -268 -64 -458 -21 -64 -45 -155 -54
-202 -28 -145 3 -130 -281 -130 l-245 0 0 23 c0 33 33 162 89 348 67 224 85
341 78 488 -6 107 -16 165 -62 368 -16 71 -17 73 -43 67 -15 -4 -29 -8 -31
-10 -1 -1 11 -63 27 -136 74 -320 68 -441 -34 -775 -38 -125 -63 -222 -90
-351 -4 -22 -6 -22 -165 -22 l-161 0 7 57 c3 32 22 103 42 158 112 319 122
441 63 729 -36 175 -51 226 -69 226 -42 -1 -43 -11 -12 -151 46 -204 54 -272
49 -409 -4 -116 -8 -134 -48 -245 -36 -102 -80 -260 -96 -343 -3 -13 -9 -20
-14 -17 -11 7 -15 8897 -4 8908 3 3 112 5 242 4 231 -2 237 -3 235 -22z"/>
<path d="M10300 8872 c0 -195 182 -1125 255 -1298 13 -32 16 -34 37 -23 13 6
24 13 26 14 2 2 -10 47 -27 101 -78 253 -196 860 -226 1167 -6 66 -7 67 -36
67 -25 0 -29 -4 -29 -28z"/>
<path d="M1126 8717 c-9 -57 -47 -211 -85 -343 -73 -252 -91 -355 -91 -514 0
-156 36 -410 60 -425 5 -3 19 0 32 6 l24 10 -18 71 c-29 115 -42 329 -29 466
12 123 20 160 94 414 49 166 87 336 87 387 0 27 -3 31 -28 31 -29 0 -29 0 -46
-103z"/>
<path d="M5556 8743 c-25 -154 17 -740 80 -1121 29 -177 31 -182 53 -182 40 1
42 12 21 120 -52 268 -93 694 -94 992 l-1 228 -26 0 c-23 0 -27 -5 -33 -37z"/>
<path d="M7686 8722 c-12 -20 -26 -144 -26 -232 0 -254 87 -700 182 -927 30
-74 41 -83 71 -60 14 11 14 17 -8 68 -60 140 -135 443 -166 674 -16 114 -17
378 -2 428 11 36 10 38 -13 48 -31 11 -32 11 -38 1z"/>
<path d="M3264 8553 c-13 -79 -55 -255 -104 -432 -104 -385 -113 -457 -75
-626 35 -153 63 -245 76 -245 6 0 18 4 28 10 17 8 15 18 -20 157 -59 228 -54
305 45 664 59 214 102 391 111 457 l7 52 -31 0 c-27 0 -31 -4 -37 -37z"/>
<path d="M4542 8483 c-19 -4 -22 -9 -18 -31 23 -115 65 -435 66 -499 0 -8 13
-13 30 -13 27 0 30 3 30 33 0 66 -44 399 -65 495 -3 12 -9 21 -13 21 -4 -1
-17 -4 -30 -6z"/>
<path d="M4130 8006 c0 -151 14 -334 41 -517 17 -119 52 -285 63 -296 2 -2 15
2 30 8 17 8 25 18 21 27 -3 8 -16 69 -30 136 -32 163 -55 374 -62 589 l-6 177
-29 0 -28 0 0 -124z"/>
<path d="M1514 7653 c-8 -6 -8 -28 3 -83 33 -183 12 -587 -52 -959 -13 -80
-23 -146 -22 -147 1 -1 14 -5 29 -9 32 -8 28 -20 63 192 45 283 59 435 58 663
-2 245 -15 343 -48 348 -11 1 -25 -1 -31 -5z"/>
<path d="M6216 7593 c-15 -4 -17 -11 -12 -41 55 -314 46 -563 -33 -971 -12
-58 -20 -105 -18 -106 1 -1 14 -5 29 -9 28 -6 28 -9 58 144 68 342 79 729 26
936 -12 49 -18 55 -50 47z"/>
<path d="M9854 7580 l-22 -9 34 -118 c93 -320 151 -591 162 -755 l7 -103 30 0
30 0 -3 85 c-5 112 -33 276 -82 475 -54 219 -115 428 -126 431 -5 2 -19 -1
-30 -6z"/>
<path d="M4718 7543 c-23 -6 -23 -6 8 -94 37 -110 81 -283 104 -416 19 -112
44 -384 38 -414 -2 -10 6 -14 27 -14 l30 0 -1 105 c-1 125 -17 262 -50 424
-38 189 -109 417 -128 415 -6 -1 -19 -3 -28 -6z"/>
<path d="M10943 7503 c-13 -2 -23 -7 -23 -11 0 -4 27 -127 60 -274 160 -716
165 -891 41 -1423 -11 -44 -22 -104 -26 -132 l-7 -53 36 0 c35 0 36 1 36 40 0
21 9 79 21 127 80 342 83 364 84 593 0 271 -20 406 -144 954 -23 98 -41 180
-41 182 0 2 -3 3 -7 3 -5 -1 -18 -4 -30 -6z"/>
<path d="M7253 7493 c-27 -5 -27 7 -6 -133 18 -127 25 -568 10 -737 l-8 -93
30 0 c28 0 30 3 38 48 4 26 8 193 8 372 0 270 -3 344 -19 438 -10 61 -21 111
-25 111 -3 -1 -16 -4 -28 -6z"/>
<path d="M2498 7485 c-3 -3 -2 -25 3 -49 24 -130 41 -351 46 -596 6 -284 -3
-434 -33 -604 -14 -74 -14 -90 -3 -97 37 -23 47 -11 63 79 54 300 54 720 0
1145 l-17 127 -27 0 c-15 0 -29 -2 -32 -5z"/>
<path d="M8453 7463 c-13 -3 -23 -12 -23 -22 0 -9 14 -107 32 -216 27 -173 32
-227 32 -395 1 -173 -2 -211 -26 -335 -34 -174 -47 -276 -49 -385 l-2 -85 30
-3 30 -3 6 123 c4 68 13 161 21 208 8 47 24 138 35 203 25 144 28 358 6 522
-25 194 -58 395 -64 394 -3 -1 -16 -4 -28 -6z"/>
<path d="M3677 7452 c-27 -3 -28 -6 -23 -35 38 -212 60 -550 53 -802 -6 -183
-32 -447 -52 -526 -6 -23 -3 -27 21 -33 41 -11 38 -19 70 209 21 150 29 583
15 765 -14 172 -41 401 -50 415 -3 6 -19 9 -34 7z"/>
<path d="M257 7418 c-21 -7 -27 -15 -22 -27 4 -9 24 -74 46 -146 78 -259 118
-487 119 -672 l0 -103 30 0 30 0 0 118 c0 188 -33 376 -110 643 -56 195 -58
199 -93 187z"/>
<path d="M9424 7247 c-3 -8 7 -99 22 -203 31 -227 42 -506 25 -639 -7 -50 -30
-171 -53 -270 -25 -111 -42 -217 -45 -277 l-6 -98 30 0 30 0 6 93 c3 50 24
171 46 267 56 249 64 315 64 495 -1 147 -17 320 -54 569 -11 71 -13 76 -36 76
-13 0 -26 -6 -29 -13z"/>
<path d="M5490 7210 c-14 -4 -24 -12 -22 -19 1 -7 11 -63 21 -125 49 -289 35
-484 -64 -896 -24 -102 -51 -228 -60 -280 -39 -244 -2 -441 121 -652 43 -73
46 -76 70 -66 13 6 24 15 24 20 0 5 -20 44 -45 88 -93 159 -133 321 -121 485
7 94 30 217 90 470 84 357 96 604 40 887 -9 45 -19 86 -23 89 -3 3 -17 3 -31
-1z"/>
<path d="M824 7093 c3 -10 13 -112 22 -228 24 -287 24 -835 0 -1065 -9 -91
-22 -212 -28 -270 -17 -168 -14 -566 5 -688 28 -176 42 -206 86 -183 19 10 19
14 7 49 -34 94 -41 186 -41 497 1 225 5 350 18 455 47 403 49 830 6 1318 l-12
132 -34 0 c-28 0 -33 -3 -29 -17z"/>
<path d="M10514 7096 c-3 -8 4 -65 15 -127 38 -209 52 -352 52 -526 0 -190 -7
-258 -56 -513 -57 -301 -70 -548 -40 -804 17 -149 33 -221 77 -364 31 -100 32
-103 57 -97 14 4 28 8 30 10 2 2 -11 48 -28 102 -73 228 -104 522 -83 790 12
149 21 210 71 477 57 302 49 567 -30 1004 -10 56 -14 62 -35 62 -14 0 -27 -6
-30 -14z"/>
<path d="M6803 7003 c-13 -2 -23 -5 -23 -6 0 -1 7 -65 15 -142 28 -267 20
-382 -55 -755 -67 -335 -73 -385 -68 -562 3 -126 9 -173 33 -266 26 -104 30
-112 49 -106 12 3 24 9 29 13 4 4 -4 54 -18 112 -32 128 -43 322 -26 454 7 50
34 200 61 335 59 295 70 377 70 536 0 167 -22 396 -38 393 -4 -1 -17 -4 -29
-6z"/>
<path d="M1964 6878 c3 -57 9 -209 12 -338 7 -276 -2 -371 -66 -645 -77 -336
-107 -568 -97 -776 7 -152 11 -163 46 -154 14 4 27 7 27 8 1 1 -3 47 -8 102
-19 186 12 452 91 798 83 357 90 495 55 1010 l-7 97 -30 0 -30 0 7 -102z"/>
<path d="M7867 6958 c-19 -7 -26 -15 -23 -26 41 -132 82 -393 97 -614 13 -194
1 -400 -30 -533 -104 -441 -121 -550 -121 -769 0 -158 17 -282 55 -389 13 -38
26 -71 28 -74 4 -4 41 11 55 22 1 1 -9 32 -23 69 -85 225 -70 601 41 1016 73
277 82 576 28 950 -16 110 -61 327 -72 346 -5 8 -16 8 -35 2z"/>
<path d="M9006 6949 c-5 -16 -20 -120 -76 -529 -58 -421 -85 -580 -136 -791
-64 -271 -77 -366 -78 -569 0 -183 9 -242 53 -361 31 -80 34 -83 62 -69 13 7
25 14 27 15 1 1 -8 26 -22 56 -81 184 -81 489 -1 829 63 262 90 413 146 810
33 234 66 466 73 515 8 50 13 91 13 92 -1 1 -14 4 -29 8 -19 5 -29 3 -32 -6z"/>
<path d="M3147 6583 c8 -320 -15 -482 -117 -813 -88 -287 -115 -450 -114 -710
0 -189 8 -257 46 -387 21 -74 30 -83 62 -60 17 13 17 16 -2 78 -34 110 -46
208 -45 374 0 241 33 436 118 705 50 159 82 295 101 430 18 125 23 373 10 513
-8 87 -8 87 -36 87 l-28 0 5 -217z"/>
<path d="M4240 6457 c0 -252 -17 -476 -50 -652 -38 -203 -42 -239 -35 -355 13
-246 81 -593 172 -875 37 -115 91 -255 100 -255 4 0 44 19 50 25 2 1 -13 38
-31 82 -59 138 -122 362 -171 604 -62 301 -73 521 -37 694 48 227 74 569 64
833 l-5 132 -28 0 -29 0 0 -233z"/>
<path d="M4821 6072 c-72 -458 -96 -730 -88 -967 7 -191 27 -317 73 -444 31
-88 113 -231 133 -231 4 0 15 8 25 19 16 17 15 21 -20 72 -108 159 -149 345
-148 679 1 236 14 375 70 753 20 131 35 240 33 241 -2 2 -16 6 -30 9 l-26 7
-22 -138z"/>
<path d="M1375 5938 c-3 -35 -20 -142 -35 -238 -39 -232 -50 -352 -50 -534 0
-161 12 -294 36 -391 14 -58 53 -165 60 -165 2 0 15 5 29 12 18 8 24 16 19 27
-50 114 -72 232 -80 431 -8 188 6 367 47 605 16 97 31 207 32 243 2 66 1 67
-24 70 -26 3 -27 1 -34 -60z"/>
<path d="M6136 5968 c-3 -13 -6 -38 -6 -57 0 -18 -12 -77 -27 -130 -25 -86
-28 -112 -28 -251 1 -171 14 -244 91 -481 76 -237 240 -609 268 -609 7 0 20 6
30 13 17 12 16 17 -17 78 -93 169 -227 525 -283 749 -25 100 -28 133 -28 255
1 101 6 155 18 195 19 62 51 238 45 244 -2 2 -16 7 -30 11 -22 5 -27 3 -33
-17z"/>
<path d="M7271 5888 c-25 -165 -35 -450 -23 -666 15 -265 43 -442 70 -442 4 0
16 6 26 13 17 12 17 18 2 87 -39 193 -52 658 -25 890 20 175 19 184 -12 188
-26 3 -27 1 -38 -70z"/>
<path d="M275 5891 c-3 -6 -16 -72 -28 -148 -18 -118 -21 -180 -21 -423 0
-315 10 -397 74 -572 41 -113 55 -132 83 -117 12 7 23 13 25 14 1 1 -11 31
-27 67 -40 88 -68 198 -87 343 -22 163 -14 473 16 678 12 82 20 150 18 151
-11 11 -47 15 -53 7z"/>
<path d="M9940 5838 c-41 -191 -53 -292 -57 -497 -6 -245 5 -368 47 -537 30
-119 82 -256 125 -329 28 -49 31 -51 59 -30 18 14 18 17 -17 82 -44 86 -92
222 -117 332 -61 276 -51 644 26 994 5 20 3 27 -9 27 -8 0 -22 3 -30 6 -11 4
-18 -8 -27 -48z"/>
<path d="M2407 5633 c-16 -54 -64 -323 -91 -513 -43 -297 -61 -718 -36 -875
10 -67 37 -165 45 -165 2 0 16 5 30 12 17 8 24 17 20 27 -35 88 -40 141 -40
386 0 315 30 595 105 979 16 83 29 151 27 152 -1 1 -14 5 -29 9 -20 5 -27 3
-31 -12z"/>
<path d="M3556 5624 c-3 -8 -13 -64 -23 -126 -24 -156 -24 -524 0 -655 15 -85
52 -203 63 -203 3 0 15 7 28 15 l24 16 -19 49 c-62 163 -74 564 -24 825 7 39
11 73 9 76 -8 14 -53 16 -58 3z"/>
<path d="M8286 5412 c-13 -21 -47 -236 -52 -335 -7 -119 3 -216 33 -308 17
-53 181 -388 204 -415 10 -12 35 -7 57 11 2 2 -33 72 -77 157 -106 204 -138
288 -151 397 -13 103 -1 260 29 399 l18 84 -24 9 c-29 11 -31 11 -37 1z"/>
<path d="M9294 5179 c16 -119 129 -454 248 -732 62 -146 174 -377 183 -377 3
0 16 7 30 16 l24 15 -30 50 c-65 112 -219 475 -303 717 -37 107 -80 260 -91
325 -5 33 -9 37 -37 37 l-31 0 7 -51z"/>
<path d="M5414 4796 l-21 -15 28 -59 c99 -206 167 -560 191 -999 14 -252 2
-472 -37 -688 -68 -373 -53 -695 46 -992 l30 -92 30 11 c22 8 28 15 23 27 -3
9 -17 50 -30 91 -87 270 -100 592 -39 935 33 187 45 328 45 520 0 465 -83 965
-201 1212 -17 35 -33 63 -37 63 -4 0 -17 -7 -28 -14z"/>
<path d="M5922 4561 c-11 -7 -6 -44 28 -192 96 -426 152 -746 172 -978 l12
-151 28 0 c27 0 28 2 28 54 0 188 -84 687 -197 1169 -25 109 -34 122 -71 98z"/>
<path d="M7053 4442 l-22 -17 44 -88 c69 -141 100 -291 111 -544 l7 -153 30 0
30 0 -6 163 c-7 185 -25 309 -63 429 -26 81 -85 212 -102 221 -4 3 -17 -2 -29
-11z"/>
<path d="M3962 4429 c-16 -6 -22 -15 -18 -26 135 -456 169 -620 170 -840 l1
-153 33 0 32 0 0 126 c0 224 -39 417 -176 887 -6 19 -9 20 -42 6z"/>
<path d="M1594 4257 c8 -87 -5 -244 -40 -500 -14 -103 -23 -194 -20 -202 5
-15 56 -21 56 -7 0 4 13 107 29 227 36 266 46 400 37 488 -8 66 -8 67 -38 67
l-31 0 7 -73z"/>
<path d="M9212 4303 c-16 -3 -21 -10 -18 -21 17 -56 67 -335 77 -431 11 -109
7 -354 -7 -412 -5 -24 -2 -27 24 -31 24 -3 32 0 37 16 14 43 17 366 5 463 -21
175 -73 424 -88 422 -4 -1 -17 -4 -30 -6z"/>
<path d="M10873 4303 l-21 -4 18 -67 c11 -37 42 -134 70 -217 72 -213 92 -297
92 -390 1 -90 -8 -128 -91 -387 -79 -246 -76 -234 -45 -242 15 -4 28 -6 29 -4
5 4 109 328 141 438 50 168 37 310 -48 547 -17 48 -48 142 -68 207 -20 66 -41
121 -46 121 -5 1 -19 0 -31 -2z"/>
<path d="M578 4238 c-16 -12 -15 -18 8 -73 70 -167 132 -463 141 -667 l6 -138
30 0 30 0 -6 153 c-7 187 -46 388 -115 592 -48 142 -60 159 -94 133z"/>
<path d="M8210 4198 c-13 -5 -26 -10 -27 -12 -2 -1 11 -40 28 -87 46 -126 95
-313 115 -435 21 -138 14 -284 -22 -444 -14 -63 -28 -135 -31 -159 -6 -42 -5
-43 18 -36 13 4 27 10 31 14 4 3 21 67 38 141 67 293 49 525 -70 881 -52 153
-49 149 -80 137z"/>
<path d="M3020 4188 c1 -113 45 -542 71 -685 10 -56 14 -63 34 -63 13 0 26 4
30 9 3 6 -6 88 -19 183 -23 158 -43 369 -49 508 -2 54 -2 55 -34 58 -22 2 -33
-1 -33 -10z"/>
<path d="M5096 4062 c-3 -5 6 -62 20 -128 49 -236 43 -387 -23 -621 -114 -404
-129 -496 -120 -736 7 -200 40 -357 75 -357 41 1 43 12 16 116 -18 71 -27 138
-31 234 -8 201 15 365 88 607 69 231 80 289 86 438 4 116 2 160 -16 260 -33
181 -37 195 -66 195 -13 0 -26 -4 -29 -8z"/>
<path d="M139 4023 c-19 -5 -23 12 60 -308 81 -310 80 -448 -3 -665 -67 -172
-101 -375 -116 -677 -11 -244 9 -685 32 -708 2 -2 16 -1 31 2 25 5 28 9 23 33
-19 96 -28 320 -23 569 7 353 32 534 98 720 61 172 71 213 76 336 6 142 -9
237 -86 520 -48 180 -53 189 -92 178z"/>
<path d="M999 4022 c-14 -6 -10 -27 33 -172 69 -236 89 -343 89 -480 0 -124
-11 -193 -81 -490 -73 -308 -93 -444 -94 -632 -1 -100 3 -171 9 -177 6 -5 22
-7 37 -4 25 5 27 8 20 32 -4 14 -6 87 -5 161 2 161 27 316 108 669 73 316 84
425 61 585 -14 97 -112 476 -132 508 -6 9 -22 9 -45 0z"/>
<path d="M6593 3993 c-13 -2 -23 -8 -23 -12 0 -4 21 -94 46 -201 85 -366 92
-481 45 -840 -16 -124 -35 -289 -42 -367 -11 -138 -9 -436 3 -449 4 -3 20 -3
36 0 l29 7 -10 57 c-19 115 3 443 54 802 22 161 26 386 9 495 -24 150 -108
516 -118 514 -4 -1 -17 -4 -29 -6z"/>
<path d="M10418 3992 c-16 -2 -28 -5 -28 -6 0 -2 11 -57 24 -122 37 -181 48
-275 47 -419 -1 -152 -17 -248 -71 -432 -138 -460 -144 -689 -25 -981 19 -47
39 -90 43 -94 9 -9 62 10 62 22 0 3 -4 10 -9 16 -19 18 -79 181 -97 259 -14
58 -19 117 -18 215 1 150 19 254 80 462 94 317 114 461 96 663 -11 120 -55
374 -70 405 -4 9 -17 14 -34 12z"/>
<path d="M3508 3985 c-8 -8 10 -138 48 -350 56 -310 53 -420 -31 -975 -44
-291 -57 -445 -45 -537 15 -113 19 -125 44 -117 34 10 37 18 27 65 -22 95 -12
244 38 594 85 581 87 659 26 998 -20 105 -38 222 -42 260 -6 65 -7 67 -33 67
-15 0 -29 -2 -32 -5z"/>
<path d="M4606 3853 c5 -71 9 -198 9 -283 -1 -147 -3 -163 -43 -325 -59 -243
-63 -274 -69 -533 -6 -247 4 -408 37 -589 15 -84 54 -227 65 -241 4 -5 55 21
55 27 0 3 -10 33 -21 66 -54 161 -85 473 -76 755 7 222 15 274 70 495 l42 170
0 195 c0 107 -4 239 -8 293 l-9 97 -30 0 -30 0 8 -127z"/>
<path d="M1983 3923 c-13 -2 -23 -11 -23 -19 0 -8 22 -103 49 -212 93 -369
105 -438 105 -617 0 -143 -3 -171 -27 -261 -58 -217 -93 -567 -73 -728 7 -54
9 -57 33 -54 l26 3 2 195 c2 215 17 336 67 545 43 176 49 347 19 523 -23 135
-142 633 -150 631 -4 -1 -16 -4 -28 -6z"/>
<path d="M8777 3912 c-24 -3 -28 -7 -23 -25 3 -12 17 -82 31 -155 41 -219 30
-382 -39 -612 -128 -423 -149 -698 -74 -983 20 -76 21 -78 47 -72 14 4 28 8
29 10 2 2 -3 28 -12 59 -74 255 -57 546 54 916 68 226 82 314 77 480 -3 131
-35 342 -56 375 -3 6 -19 9 -34 7z"/>
<path d="M2463 3718 c4 -121 12 -181 37 -288 17 -74 40 -173 51 -220 42 -181
36 -326 -21 -570 -51 -218 -50 -369 6 -602 13 -57 26 -113 29 -125 4 -18 12
-23 35 -23 17 0 30 4 30 8 0 5 -13 66 -30 138 -58 251 -59 393 -5 609 57 232
59 404 5 630 -59 250 -72 321 -77 450 -6 131 -10 145 -47 145 -18 0 -18 -8
-13 -152z"/>
<path d="M7776 3853 c-21 -6 -21 -5 18 -218 60 -318 57 -437 -21 -735 -71
-271 -92 -366 -108 -488 -24 -180 -17 -343 21 -482 23 -85 20 -80 52 -69 l29
10 -18 66 c-64 230 -46 457 71 893 76 282 93 428 70 610 -18 143 -74 420 -84
419 -6 -1 -19 -3 -30 -6z"/>
<path d="M9855 3413 c9 -139 -4 -235 -65 -504 -92 -402 -127 -634 -137 -894
-6 -178 4 -296 34 -385 8 -25 16 -46 18 -48 1 -1 15 3 29 10 21 9 26 17 21 32
-38 123 -39 134 -39 316 0 271 33 505 134 950 26 118 53 250 59 293 12 86 14
240 5 300 -6 33 -10 37 -36 37 l-30 0 7 -107z"/>
<path d="M3126 3068 c-3 -18 -7 -87 -10 -153 -3 -66 -15 -181 -26 -255 -12
-74 -26 -171 -32 -215 -25 -167 -12 -804 16 -833 3 -2 17 -1 32 2 22 6 25 11
20 34 -3 15 -11 114 -17 220 -14 233 -2 496 36 738 20 130 44 387 45 477 0 12
-8 17 -30 17 -25 0 -30 -4 -34 -32z"/>
<path d="M7196 3063 c-3 -10 -17 -85 -30 -168 -92 -548 -87 -912 16 -1177 30
-79 40 -88 72 -65 17 12 17 16 3 43 -24 48 -57 162 -74 264 -12 66 -16 155
-16 295 -1 215 13 357 63 645 16 90 28 165 27 167 -1 1 -14 4 -29 8 -20 5 -27
3 -32 -12z"/>
<path d="M1476 3028 c-3 -13 -8 -59 -11 -103 -4 -44 -20 -138 -37 -210 -29
-123 -30 -138 -25 -280 7 -179 33 -394 87 -714 44 -260 104 -539 119 -554 12
-12 51 1 51 18 0 7 -11 60 -25 117 -78 327 -175 991 -175 1201 0 41 12 120 29
196 16 69 32 155 36 191 3 36 8 86 11 113 l6 47 -31 0 c-24 0 -32 -5 -35 -22z"/>
<path d="M4045 2988 c-2 -7 -20 -129 -40 -272 -48 -348 -53 -463 -25 -636 14
-92 23 -206 27 -357 l6 -223 30 0 30 0 -6 243 c-4 133 -11 267 -17 297 -38
206 -35 296 24 710 18 129 32 235 32 236 -1 1 -13 4 -29 8 -18 4 -29 2 -32 -6z"/>
<path d="M9286 2868 c-69 -245 -69 -790 0 -1085 17 -72 19 -74 43 -68 35 9 35
9 23 58 -31 120 -44 255 -49 500 -6 273 4 414 37 555 10 42 18 78 17 79 -1 1
-14 4 -29 8 -26 7 -28 4 -42 -47z"/>
<path d="M647 2853 c-8 -14 -26 -114 -38 -218 -19 -152 -16 -632 4 -782 22
-155 21 -154 58 -141 23 8 28 14 24 31 -21 83 -27 167 -32 429 -6 304 4 496
32 615 10 44 11 60 2 65 -16 10 -45 10 -50 1z"/>
<path d="M6065 2695 c-8 -98 -1 -267 21 -465 16 -151 67 -469 88 -545 12 -46
15 -50 41 -48 15 1 29 4 31 6 2 1 -3 27 -11 57 -24 88 -73 402 -91 570 -8 85
-16 234 -17 330 l-2 175 -27 3 c-26 3 -26 3 -33 -83z"/>
<path d="M8188 2688 c-23 -75 -16 -416 11 -578 39 -230 129 -545 162 -565 5
-4 19 -3 30 0 25 8 25 5 -30 165 -44 128 -81 287 -107 460 -21 138 -25 434 -6
495 12 42 10 49 -25 59 -19 6 -24 2 -35 -36z"/>
<path d="M10870 2593 c1 -148 20 -428 34 -494 8 -36 21 -82 30 -103 14 -34 17
-36 38 -25 13 6 24 13 26 14 2 2 -6 34 -17 71 -30 101 -41 215 -41 426 l0 188
-35 0 -35 0 0 -77z"/>
<path d="M5191 1806 c-15 -16 -19 -26 -12 -31 19 -11 67 -115 94 -201 55 -174
107 -480 107 -629 0 -81 1 -85 24 -91 45 -11 49 1 42 105 -22 301 -93 625
-171 782 -44 87 -55 95 -84 65z"/>
<path d="M10903 1619 c-13 -5 -23 -12 -23 -17 0 -4 23 -75 50 -157 100 -296
150 -498 150 -600 0 -54 8 -65 47 -65 25 0 11 170 -25 315 -34 133 -158 522
-170 528 -4 3 -17 1 -29 -4z"/>
<path d="M3485 1543 c-6 -5 -11 -71 -11 -158 -1 -122 -7 -180 -33 -315 -39
-207 -39 -210 -3 -210 l28 0 33 186 c37 207 50 337 41 434 -4 55 -8 65 -25 68
-11 1 -24 -1 -30 -5z"/>
<path d="M7952 1432 c-10 -7 -7 -35 13 -132 43 -214 57 -341 53 -515 l-3 -160
26 -3 c23 -3 27 1 32 35 12 70 7 327 -8 433 -14 97 -50 292 -61 333 -6 18 -30
22 -52 9z"/>
</g>
</svg>
