<?xml version="1.0" standalone="no"?>
<!DOCTYPE svg PUBLIC "-//W3C//DTD SVG 20010904//EN"
 "http://www.w3.org/TR/2001/REC-SVG-20010904/DTD/svg10.dtd">
<svg version="1.0" xmlns="http://www.w3.org/2000/svg"
 width="1811.000000pt" height="1217.000000pt" viewBox="0 0 1811.000000 1217.000000"
 preserveAspectRatio="xMidYMid meet">
<metadata>
Created by potrace 1.13, written by Peter Selinger 2001-2015
</metadata>
<g transform="translate(0.000000,1217.000000) scale(0.100000,-0.100000)"
fill="#000000" stroke="none">
<path d="M278 12089 c-87 -43 -158 -82 -158 -87 0 -4 5 -14 10 -22 8 -13 43 2
212 87 l203 102 -55 0 c-49 0 -72 -9 -212 -80z"/>
<path d="M1355 12021 c70 -83 132 -154 138 -160 8 -6 18 -5 30 4 17 12 10 24
-104 159 -113 134 -126 146 -156 146 l-34 0 126 -149z"/>
<path d="M7463 12087 c-90 -45 -163 -86 -163 -92 1 -41 19 -36 226 69 l209
105 -55 0 c-49 0 -73 -9 -217 -82z"/>
<path d="M8416 12158 c23 -38 258 -308 268 -308 7 0 17 5 23 11 9 9 -20 50
-113 160 -110 131 -128 149 -155 149 -22 0 -28 -4 -23 -12z"/>
<path d="M12473 12034 c-194 -124 -212 -137 -202 -156 6 -11 17 -17 24 -14 41
15 445 281 442 290 -11 33 -60 10 -264 -120z"/>
<path d="M14587 12089 c-145 -73 -157 -81 -147 -99 6 -11 14 -20 18 -19 4 0
95 45 202 99 l195 99 -55 0 c-49 0 -73 -9 -213 -80z"/>
<path d="M15561 12153 c33 -46 253 -303 260 -303 3 0 12 7 19 15 14 17 13 19
-132 190 -80 94 -98 110 -127 113 -31 3 -32 2 -20 -15z"/>
<path d="M5350 11990 c-118 -76 -215 -143 -214 -149 2 -27 5 -31 15 -31 6 0
112 64 235 142 193 123 221 145 213 160 -5 10 -15 18 -22 17 -7 0 -109 -63
-227 -139z"/>
<path d="M13230 12100 c-9 -18 7 -31 177 -144 180 -121 187 -124 201 -105 8
11 12 22 11 23 -14 12 -370 246 -373 246 -3 0 -10 -9 -16 -20z"/>
<path d="M6091 12093 c-8 -15 18 -36 176 -141 149 -99 187 -121 199 -111 8 6
14 15 14 20 0 10 -355 249 -369 249 -6 0 -14 -8 -20 -17z"/>
<path d="M2843 11975 c-144 -33 -265 -63 -268 -67 -4 -4 -4 -15 -1 -26 6 -18
20 -15 271 42 145 34 266 64 270 67 3 3 2 15 -2 25 -8 19 -19 17 -270 -41z"/>
<path d="M10100 12010 c-63 -15 -177 -42 -252 -60 -130 -30 -138 -33 -138 -56
0 -13 3 -24 6 -24 7 0 538 122 541 124 1 1 0 12 -4 24 -7 27 -10 27 -153 -8z"/>
<path d="M17155 11976 c-121 -29 -232 -55 -247 -59 -20 -5 -25 -12 -21 -27 3
-12 13 -20 27 -19 11 0 131 26 266 57 225 53 245 59 248 80 5 31 -14 29 -273
-32z"/>
<path d="M3945 11518 c-49 -155 -90 -287 -90 -293 0 -5 10 -11 22 -13 23 -3
12 -32 190 522 13 41 13 50 2 57 -8 5 -18 9 -24 9 -5 0 -50 -127 -100 -282z"/>
<path d="M11662 11638 c-7 -7 -12 -17 -12 -23 0 -11 470 -338 503 -350 17 -7
44 22 31 34 -5 4 -81 57 -169 116 -88 60 -201 137 -251 171 -69 48 -94 60
-102 52z"/>
<path d="M10941 11273 c-92 -287 -95 -302 -55 -303 12 0 197 567 189 581 -4 5
-14 9 -24 9 -14 0 -35 -55 -110 -287z"/>
<path d="M588 11503 c-15 -17 1 -37 208 -273 124 -140 228 -256 233 -258 4 -1
14 4 20 12 10 12 10 19 -1 34 -16 22 -439 502 -442 502 -2 0 -10 -8 -18 -17z"/>
<path d="M14906 11502 c-16 -19 -9 -29 209 -276 201 -227 228 -255 246 -246
10 6 19 13 19 16 0 4 -351 407 -445 512 -9 10 -15 9 -29 -6z"/>
<path d="M7811 11456 c-7 -8 -9 -21 -5 -28 11 -18 432 -496 443 -502 4 -3 15
2 23 12 14 16 -3 38 -210 272 -124 140 -228 256 -232 258 -4 1 -13 -4 -19 -12z"/>
<path d="M2861 11451 c-11 -7 15 -61 119 -255 74 -135 138 -246 144 -246 44 1
37 19 -96 263 -73 136 -137 247 -143 247 -5 0 -16 -4 -24 -9z"/>
<path d="M9723 11453 c-7 -2 -13 -9 -13 -13 0 -10 248 -471 261 -484 5 -6 16
-6 28 0 19 8 12 25 -112 253 -73 135 -136 246 -142 247 -5 1 -16 0 -22 -3z"/>
<path d="M17174 11446 c-3 -9 48 -115 127 -260 118 -219 134 -244 150 -235 11
5 19 14 19 19 0 5 -58 116 -129 247 -122 225 -153 267 -167 229z"/>
<path d="M5887 11413 c-10 -3 -17 -10 -14 -16 142 -407 182 -507 198 -507 10
0 20 4 23 9 7 10 -174 522 -183 520 -3 -1 -14 -3 -24 -6z"/>
<path d="M6731 11133 c-134 -230 -142 -247 -125 -260 10 -7 21 -10 25 -6 4 5
70 116 148 248 124 214 138 241 123 253 -8 6 -18 12 -22 12 -3 0 -70 -111
-149 -247z"/>
<path d="M13871 11133 c-134 -230 -142 -247 -125 -260 10 -7 21 -10 25 -6 4 5
71 116 148 248 126 215 139 241 124 253 -9 6 -19 12 -23 12 -3 0 -70 -111
-149 -247z"/>
<path d="M1740 11338 c-6 -13 -53 -124 -105 -248 -84 -202 -92 -226 -77 -237
8 -7 19 -13 22 -13 5 0 175 399 205 482 4 11 -1 20 -14 28 -18 9 -23 7 -31
-12z"/>
<path d="M8889 11282 c-124 -298 -169 -408 -169 -418 0 -20 41 -24 47 -6 4 9
50 121 103 249 97 231 97 231 74 242 -21 9 -24 6 -55 -67z"/>
<path d="M13008 11353 c-10 -2 -18 -7 -18 -10 0 -3 37 -107 81 -232 45 -124
86 -239 92 -254 7 -21 15 -27 31 -25 11 2 21 8 21 14 0 18 -179 514 -185 513
-3 -1 -13 -3 -22 -6z"/>
<path d="M15961 11117 c-56 -134 -101 -248 -101 -254 0 -6 9 -13 20 -16 16 -4
24 2 36 31 8 21 46 111 84 202 38 91 77 186 88 211 l20 47 -23 10 c-22 10 -25
5 -124 -231z"/>
<path d="M4710 11245 c-7 -9 -10 -18 -7 -21 3 -4 120 -84 259 -179 224 -154
254 -172 266 -157 7 9 11 20 10 24 -3 9 -499 348 -509 348 -4 0 -12 -7 -19
-15z"/>
<path d="M2055 10559 c-132 -10 -241 -18 -242 -18 -2 -1 -3 -12 -3 -26 0 -26
1 -26 58 -20 78 8 478 35 514 35 23 0 28 4 28 25 0 24 -2 25 -57 24 -32 -1
-166 -10 -298 -20z"/>
<path d="M9230 10559 c-129 -9 -238 -18 -242 -18 -5 -1 -8 -12 -8 -26 0 -25 1
-25 63 -20 99 9 484 35 517 35 25 0 30 4 30 25 0 24 -2 25 -62 24 -35 -1 -169
-10 -298 -20z"/>
<path d="M16370 10559 c-129 -9 -238 -18 -242 -18 -5 -1 -8 -10 -8 -20 0 -11
3 -22 8 -24 4 -3 124 3 267 14 143 10 277 18 298 19 33 0 37 3 37 25 0 24 -2
25 -62 24 -35 -1 -169 -10 -298 -20z"/>
<path d="M175 10539 c-55 -16 -117 -34 -137 -40 -31 -8 -38 -14 -38 -34 0 -14
2 -25 5 -25 8 0 299 83 303 86 9 6 -10 44 -21 43 -7 0 -57 -14 -112 -30z"/>
<path d="M14288 10482 c-244 -70 -298 -89 -298 -103 0 -10 4 -20 9 -24 5 -3
147 34 315 82 287 82 306 88 306 110 0 16 -6 23 -17 22 -10 -1 -152 -40 -315
-87z"/>
<path d="M6900 10435 l0 -25 336 0 335 0 -3 23 -3 22 -332 3 -333 2 0 -25z"/>
<path d="M12347 10193 c-176 -231 -195 -259 -180 -271 10 -7 20 -11 24 -10 6
3 153 192 352 456 33 43 37 55 27 67 -7 8 -16 15 -20 15 -4 0 -95 -116 -203
-257z"/>
<path d="M3940 10347 c0 -22 10 -24 263 -71 144 -26 269 -50 278 -52 11 -3 18
3 21 20 6 29 35 21 -314 86 -119 22 -223 40 -232 40 -10 0 -16 -9 -16 -23z"/>
<path d="M11080 10347 c0 -22 10 -24 263 -71 144 -26 269 -50 278 -52 11 -3
18 3 21 20 4 19 0 26 -16 30 -46 11 -515 96 -530 96 -10 0 -16 -8 -16 -23z"/>
<path d="M3018 10182 c-212 -148 -236 -167 -227 -184 6 -11 16 -17 24 -14 32
12 465 321 465 332 0 43 -31 28 -262 -134z"/>
<path d="M10158 10182 c-212 -148 -236 -167 -227 -184 6 -11 17 -17 24 -14 33
12 465 320 465 331 0 44 -31 29 -262 -133z"/>
<path d="M17349 10194 c-266 -185 -259 -179 -237 -200 14 -14 36 -2 249 147
129 89 236 163 238 165 1 1 -3 12 -11 23 -14 20 -22 16 -239 -135z"/>
<path d="M1114 10286 c-13 -30 -69 -150 -124 -268 -88 -190 -97 -214 -82 -225
9 -7 19 -13 22 -13 5 0 224 466 245 522 4 11 -1 20 -15 28 -19 10 -23 7 -46
-44z"/>
<path d="M8191 10075 c-66 -145 -121 -268 -121 -273 0 -13 32 -25 41 -15 8 9
238 509 242 525 1 5 -8 14 -19 18 -20 8 -30 -10 -143 -255z"/>
<path d="M15331 10074 c-66 -145 -121 -268 -121 -273 0 -12 32 -23 41 -14 8 9
236 502 241 522 2 7 -7 17 -18 21 -20 8 -30 -10 -143 -256z"/>
<path d="M5185 10008 c-104 -138 -191 -257 -193 -264 -2 -7 5 -17 15 -22 15
-8 45 26 212 246 151 198 192 258 184 270 -5 9 -14 17 -19 18 -5 2 -94 -110
-199 -248z"/>
<path d="M6313 10047 c-145 -61 -263 -114 -263 -117 0 -3 6 -14 13 -22 11 -15
36 -7 247 83 129 55 250 107 268 114 29 13 32 17 22 35 -6 11 -14 20 -18 20
-4 -1 -125 -51 -269 -113z"/>
<path d="M13240 9954 c-146 -62 -265 -117 -264 -123 2 -27 5 -31 17 -31 10 0
525 215 533 222 1 2 -3 12 -9 24 -12 20 -19 17 -277 -92z"/>
<path d="M7341 9806 c-9 -11 22 -58 150 -232 194 -263 188 -257 212 -239 17
12 5 31 -155 248 -95 130 -178 236 -184 236 -6 1 -17 -5 -23 -13z"/>
<path d="M14287 9765 c-17 -12 -5 -31 154 -247 94 -128 175 -236 179 -241 3
-4 14 1 23 11 16 18 9 29 -144 238 -195 264 -188 257 -212 239z"/>
<path d="M0 9732 c0 -39 13 -59 151 -247 83 -113 157 -205 163 -205 7 0 17 5
23 11 8 8 -7 37 -60 108 -39 53 -117 159 -174 236 l-103 139 0 -42z"/>
<path d="M1870 9745 c-8 -9 -9 -19 -4 -24 13 -12 417 -249 436 -256 11 -4 20
1 27 13 10 18 -8 31 -203 146 -117 69 -220 128 -228 131 -8 3 -21 -1 -28 -10z"/>
<path d="M9041 9742 c-8 -16 17 -34 201 -142 258 -153 247 -147 259 -129 5 8
9 17 9 21 0 9 -434 268 -449 268 -6 0 -15 -8 -20 -18z"/>
<path d="M16187 9753 c-4 -3 -7 -12 -7 -19 0 -13 428 -274 448 -274 8 0 22 22
22 35 0 6 -438 265 -448 265 -5 0 -12 -3 -15 -7z"/>
<path d="M4242 9741 c-11 -6 1 -60 56 -262 39 -140 75 -273 82 -297 9 -36 15
-43 33 -40 14 2 21 9 20 21 -3 46 -158 587 -167 587 -6 0 -17 -4 -24 -9z"/>
<path d="M3407 9618 c-8 -13 -72 -133 -141 -268 -118 -226 -126 -245 -110
-257 10 -7 21 -10 25 -6 8 8 279 522 279 529 0 2 -9 8 -20 14 -16 8 -22 6 -33
-12z"/>
<path d="M17635 9453 c-54 -104 -117 -224 -141 -269 l-44 -81 23 -10 c23 -11
28 -3 164 255 123 235 138 268 124 279 -9 7 -19 13 -23 13 -3 0 -50 -84 -103
-187z"/>
<path d="M13617 9508 c-15 -12 -8 -38 89 -300 59 -159 112 -288 118 -288 40 1
36 17 -71 308 -60 161 -111 292 -114 292 -3 0 -13 -6 -22 -12z"/>
<path d="M6580 9221 c-134 -270 -139 -281 -119 -292 11 -6 22 -9 23 -7 9 11
276 543 276 549 0 5 -9 13 -20 19 -18 10 -30 -10 -160 -269z"/>
<path d="M10310 9441 c0 -21 47 -484 56 -549 5 -38 8 -42 27 -36 12 3 23 7 24
8 1 1 -11 125 -27 276 -16 151 -30 285 -30 298 0 17 -6 22 -25 22 -18 0 -25
-5 -25 -19z"/>
<path d="M11393 9328 c-203 -86 -263 -116 -263 -129 0 -10 4 -20 9 -23 7 -5
525 206 539 219 6 6 -9 45 -16 45 -4 -1 -125 -51 -269 -112z"/>
<path d="M12439 9084 c-6 -8 -9 -19 -6 -26 9 -23 506 -353 516 -342 5 5 11 14
13 21 2 6 -113 90 -254 186 -210 143 -259 172 -269 161z"/>
<path d="M5290 9075 c-7 -9 -11 -17 -9 -19 33 -26 514 -346 520 -346 4 0 13 8
18 18 8 16 -24 41 -244 190 -139 95 -258 172 -263 172 -5 0 -15 -7 -22 -15z"/>
<path d="M1348 9010 c-103 -15 -225 -33 -273 -40 -81 -11 -85 -13 -79 -34 4
-11 8 -22 9 -24 3 -3 459 60 543 75 26 4 32 10 32 29 0 30 8 30 -232 -6z"/>
<path d="M8528 9010 c-103 -15 -225 -33 -272 -40 -81 -11 -86 -14 -86 -36 0
-13 4 -24 8 -24 5 0 134 18 287 40 153 22 281 40 285 40 4 0 5 11 2 25 -5 30
12 30 -224 -5z"/>
<path d="M15668 9010 c-103 -15 -225 -33 -272 -40 -81 -11 -86 -14 -86 -36 0
-13 4 -24 8 -24 14 0 577 81 579 84 1 1 0 12 -4 24 -6 26 8 27 -225 -8z"/>
<path d="M272 8557 c-144 -89 -262 -167 -262 -173 0 -42 31 -28 292 133 242
149 267 167 258 184 -6 10 -14 19 -18 19 -4 0 -125 -73 -270 -163z"/>
<path d="M7443 8557 c-144 -89 -262 -165 -263 -168 0 -3 6 -13 13 -22 11 -15
38 -1 271 142 142 88 262 163 268 169 11 11 0 42 -16 41 -6 0 -129 -73 -273
-162z"/>
<path d="M14583 8557 c-144 -89 -262 -165 -263 -168 0 -3 6 -13 13 -22 11 -16
36 -3 267 139 140 86 261 162 268 168 14 14 6 46 -12 45 -6 0 -129 -73 -273
-162z"/>
<path d="M2121 8489 c-78 -121 -141 -224 -141 -227 0 -4 8 -12 19 -19 17 -10
32 10 161 213 135 213 154 254 116 254 -8 0 -78 -99 -155 -221z"/>
<path d="M9292 8484 c-111 -174 -141 -229 -130 -235 7 -5 18 -8 25 -6 7 1 75
101 152 222 104 164 137 223 129 232 -6 7 -16 13 -22 13 -6 0 -76 -102 -154
-226z"/>
<path d="M16432 8483 c-141 -222 -150 -242 -106 -243 6 0 69 91 139 203 71
111 135 213 144 225 12 20 12 25 0 33 -8 5 -18 9 -24 9 -5 0 -74 -102 -153
-227z"/>
<path d="M3655 8639 c-4 -11 -5 -22 -3 -23 10 -8 535 -226 545 -226 14 0 26
31 16 40 -9 8 -535 230 -545 230 -4 0 -10 -9 -13 -21z"/>
<path d="M11040 8530 c-91 -4 -189 -8 -217 -9 -50 -1 -53 -2 -53 -27 l0 -26
133 6 c72 3 207 9 300 12 l167 6 0 24 c0 27 2 27 -330 14z"/>
<path d="M5093 8247 c-111 -89 -202 -167 -202 -173 -1 -6 5 -17 13 -23 11 -9
56 23 221 155 200 160 206 166 189 185 -9 10 -18 19 -18 18 -1 0 -92 -73 -203
-162z"/>
<path d="M12233 8247 c-111 -89 -202 -167 -202 -173 -1 -6 5 -17 13 -23 11 -9
56 23 221 155 200 160 206 166 189 185 -9 10 -18 19 -18 18 -1 0 -92 -73 -203
-162z"/>
<path d="M2750 8305 c-12 -14 -10 -20 16 -40 16 -12 128 -102 249 -198 192
-153 222 -173 233 -159 6 9 12 19 12 23 0 7 -466 378 -484 385 -7 3 -19 -2
-26 -11z"/>
<path d="M9889 8304 c-11 -14 -11 -18 2 -28 8 -6 118 -92 243 -191 125 -99
235 -180 244 -180 9 0 18 7 20 16 2 11 -74 77 -233 203 -130 103 -242 189
-249 192 -7 3 -19 -3 -27 -12z"/>
<path d="M17067 8313 c-4 -3 -7 -12 -7 -19 0 -12 454 -378 483 -389 17 -7 44
22 31 34 -57 49 -484 381 -491 381 -5 0 -13 -3 -16 -7z"/>
<path d="M1024 8284 c-13 -6 148 -556 164 -562 6 -2 17 0 25 5 11 6 -2 60 -68
283 -79 269 -88 288 -121 274z"/>
<path d="M8202 8281 c-10 -6 4 -67 68 -282 45 -151 83 -276 85 -277 2 -2 13
-1 25 3 13 4 19 12 16 23 -108 370 -162 542 -170 542 -6 0 -17 -4 -24 -9z"/>
<path d="M15342 8282 c-9 -6 7 -74 70 -285 45 -152 86 -277 92 -277 40 1 38
15 -43 288 -45 149 -81 274 -81 277 0 8 -23 6 -38 -3z"/>
<path d="M6170 8226 c0 -19 6 -26 28 -30 40 -9 501 -76 518 -76 8 0 14 10 14
25 0 14 -6 25 -13 25 -12 0 -448 64 -514 75 -30 5 -33 4 -33 -19z"/>
<path d="M13310 8226 c0 -19 6 -26 28 -30 40 -9 501 -76 518 -76 8 0 14 10 14
25 0 14 -6 25 -13 25 -12 0 -448 64 -514 75 -30 5 -33 4 -33 -19z"/>
<path d="M4063 7953 c-7 -2 -13 -9 -13 -14 0 -7 306 -474 326 -498 1 -1 12 3
23 11 19 14 14 23 -144 261 -91 136 -168 247 -173 246 -4 0 -13 -3 -19 -6z"/>
<path d="M11203 7953 c-7 -2 -13 -9 -13 -14 0 -7 306 -474 326 -498 1 -1 12 3
23 11 19 14 14 23 -144 261 -91 136 -168 247 -173 246 -4 0 -13 -3 -19 -6z"/>
<path d="M5641 7846 c-9 -11 33 -59 205 -240 119 -124 219 -226 224 -226 4 0
13 7 20 15 11 13 -14 43 -156 191 -93 96 -189 197 -212 225 -46 51 -62 58 -81
35z"/>
<path d="M12781 7847 c-9 -11 35 -62 205 -240 119 -125 219 -227 224 -227 4 0
13 7 20 15 11 13 -14 43 -156 191 -93 97 -188 198 -212 225 -45 51 -62 58 -81
36z"/>
<path d="M59 7768 c-6 -11 -7 -23 -2 -27 4 -4 110 -56 236 -116 218 -104 240
-111 249 -78 2 7 -95 59 -235 127 -227 110 -237 114 -248 94z"/>
<path d="M7232 7765 c-10 -22 -2 -26 223 -134 128 -61 238 -111 243 -111 9 0
22 22 22 36 0 3 -51 29 -112 58 -62 30 -170 81 -239 114 l-127 60 -10 -23z"/>
<path d="M14372 7765 c-10 -21 -2 -26 224 -134 128 -61 238 -111 243 -111 8 0
21 23 21 36 0 4 -118 62 -376 184 l-102 48 -10 -23z"/>
<path d="M2093 7527 c-250 -84 -272 -93 -267 -112 4 -11 8 -22 10 -24 2 -2
553 177 561 183 7 6 -11 46 -21 45 -6 0 -134 -42 -283 -92z"/>
<path d="M9268 7528 c-148 -50 -268 -95 -268 -102 1 -39 17 -36 291 56 150 50
276 92 277 94 8 6 -10 44 -21 43 -7 -1 -132 -42 -279 -91z"/>
<path d="M16413 7527 c-150 -51 -273 -96 -273 -102 1 -37 18 -34 291 57 150
50 276 92 277 94 6 4 -9 44 -16 43 -4 0 -130 -42 -279 -92z"/>
<path d="M3031 7119 c-51 -165 -91 -302 -89 -303 1 -2 12 -6 23 -10 18 -5 27
18 113 295 51 166 92 302 90 304 -2 1 -12 5 -24 9 -19 6 -26 -14 -113 -295z"/>
<path d="M5047 7371 c-7 -25 -49 -164 -92 -309 -66 -221 -77 -265 -65 -272 8
-6 19 -8 24 -7 7 2 193 596 196 623 0 1 -11 4 -25 6 -22 5 -26 0 -38 -41z"/>
<path d="M10172 7119 c-52 -166 -92 -302 -90 -304 2 -1 12 -5 23 -9 19 -5 27
16 113 295 52 166 92 302 90 304 -2 1 -12 5 -23 9 -19 5 -27 -16 -113 -295z"/>
<path d="M12110 7109 c-78 -258 -91 -312 -79 -320 8 -5 18 -7 24 -6 9 3 199
617 193 622 -2 2 -12 5 -24 9 -20 6 -26 -12 -114 -305z"/>
<path d="M17435 7407 c-2 -7 -43 -138 -91 -292 -48 -154 -89 -285 -91 -291 -4
-10 36 -28 45 -20 6 7 182 577 182 591 0 17 -40 27 -45 12z"/>
<path d="M6587 7289 c-9 -6 -17 -14 -17 -20 0 -18 293 -509 304 -509 45 1 37
19 -114 276 -84 143 -153 260 -154 261 -1 1 -9 -3 -19 -8z"/>
<path d="M14023 7008 c-122 -254 -130 -274 -112 -282 12 -6 23 -6 28 0 5 5 66
126 135 269 112 233 123 261 109 273 -9 6 -19 12 -23 12 -3 0 -65 -123 -137
-272z"/>
<path d="M821 6949 c-146 -110 -267 -201 -269 -204 -9 -9 21 -36 34 -31 22 9
534 396 534 404 0 9 -22 32 -29 31 -4 0 -125 -90 -270 -200z"/>
<path d="M15140 6950 c-146 -109 -266 -206 -268 -214 -10 -49 39 -20 298 174
239 179 268 204 259 221 -5 10 -13 19 -17 19 -4 0 -126 -90 -272 -200z"/>
<path d="M3630 6977 c0 -24 4 -26 63 -31 70 -7 554 -36 591 -36 25 0 45 38 23
45 -7 2 -133 11 -282 20 -148 8 -298 18 -332 21 -62 6 -63 5 -63 -19z"/>
<path d="M10770 6977 c0 -24 4 -26 63 -31 70 -7 554 -36 591 -36 24 0 43 27
29 41 -4 4 -129 14 -278 23 -148 9 -300 19 -337 22 -68 6 -68 6 -68 -19z"/>
<path d="M8075 6970 c-104 -4 -238 -8 -297 -9 l-108 -1 0 -26 0 -27 253 7
c138 3 294 9 345 12 88 6 93 8 90 28 -4 25 -11 26 -283 16z"/>
<path d="M2057 6785 c-18 -13 -8 -28 153 -227 95 -117 178 -214 185 -216 6 -2
17 3 23 11 10 11 -23 57 -163 230 -97 120 -177 217 -178 217 -1 0 -10 -7 -20
-15z"/>
<path d="M9231 6786 c-7 -8 -9 -21 -5 -28 20 -34 336 -418 343 -418 5 0 14 7
21 15 10 11 -19 52 -160 227 -95 117 -176 214 -180 216 -4 1 -13 -4 -19 -12z"/>
<path d="M16371 6786 c-7 -8 -9 -21 -5 -28 17 -28 336 -418 342 -418 17 1 34
19 29 31 -7 18 -337 423 -347 427 -4 1 -13 -4 -19 -12z"/>
<path d="M5557 6763 c-4 -3 -7 -13 -7 -22 0 -13 60 -31 273 -85 149 -38 277
-71 284 -73 10 -4 29 34 21 42 -5 5 -542 145 -555 145 -6 0 -13 -3 -16 -7z"/>
<path d="M12973 6632 c-145 -59 -263 -110 -263 -113 0 -3 6 -13 13 -22 11 -16
34 -8 272 89 143 58 266 108 272 111 16 6 -2 43 -20 42 -7 0 -130 -49 -274
-107z"/>
<path d="M3442 6297 c-303 -85 -322 -92 -316 -111 4 -12 8 -22 9 -24 3 -3 656
178 663 184 8 6 -10 44 -21 43 -7 0 -157 -41 -335 -92z"/>
<path d="M10582 6297 c-302 -85 -322 -92 -316 -111 4 -12 8 -22 9 -24 3 -3
656 178 663 184 8 6 -10 44 -21 43 -7 0 -157 -42 -335 -92z"/>
<path d="M18015 6370 c-33 -10 -176 -51 -317 -91 -215 -60 -258 -75 -258 -90
0 -10 4 -20 9 -23 5 -3 156 36 335 86 299 84 327 94 324 112 -4 27 -21 28 -93
6z"/>
<path d="M1365 6338 c-9 -24 -95 -449 -95 -467 0 -28 39 -34 45 -8 21 88 95
454 95 469 0 21 -38 26 -45 6z"/>
<path d="M8535 6328 c-13 -57 -95 -460 -95 -468 0 -6 11 -10 25 -10 14 0 25 4
25 8 0 5 22 114 49 242 27 129 47 238 45 242 -11 17 -44 7 -49 -14z"/>
<path d="M15680 6347 c0 -2 -22 -110 -50 -241 -27 -131 -50 -242 -50 -247 0
-5 11 -9 25 -9 14 0 25 3 25 8 0 4 22 113 49 242 27 129 47 238 45 242 -5 7
-44 12 -44 5z"/>
<path d="M4232 6104 c-151 -177 -181 -218 -172 -230 7 -8 16 -14 21 -14 4 0
90 95 190 211 144 167 180 215 172 227 -5 9 -14 17 -19 18 -5 1 -91 -94 -192
-212z"/>
<path d="M11372 6104 c-151 -177 -181 -218 -172 -230 7 -8 16 -14 21 -14 4 0
90 95 190 211 144 167 180 215 172 227 -5 9 -14 17 -19 18 -5 1 -91 -94 -192
-212z"/>
<path d="M160 6285 c-15 -19 -30 -1 214 -258 169 -177 211 -209 211 -166 0 14
-385 430 -404 437 -5 1 -14 -4 -21 -13z"/>
<path d="M7336 6285 c-18 -14 -10 -24 130 -170 82 -86 176 -186 209 -222 59
-64 60 -65 77 -46 17 19 12 26 -188 236 -113 119 -207 217 -208 217 0 0 -10
-7 -20 -15z"/>
<path d="M14478 6284 c-15 -18 -6 -30 190 -236 193 -203 208 -216 224 -201 17
15 14 20 -42 82 -33 36 -126 135 -207 220 -142 146 -149 152 -165 135z"/>
<path d="M6124 5979 c-247 -187 -243 -184 -222 -205 14 -15 34 -2 229 146 118
90 218 167 223 171 9 8 -10 39 -24 39 -4 0 -97 -68 -206 -151z"/>
<path d="M13264 5979 c-248 -189 -243 -184 -222 -205 15 -15 33 -3 229 146
118 90 218 166 223 171 9 8 -9 39 -24 39 -3 0 -96 -68 -206 -151z"/>
<path d="M4962 6058 c-7 -7 -12 -16 -12 -20 0 -13 339 -448 349 -448 5 0 14 6
20 14 10 12 -19 56 -161 240 -95 124 -175 225 -178 225 -4 1 -11 -4 -18 -11z"/>
<path d="M12102 6058 c-7 -7 -12 -16 -12 -20 0 -8 299 -399 331 -433 17 -18
20 -18 35 -3 15 15 2 34 -157 242 -96 124 -176 225 -179 226 -4 0 -11 -5 -18
-12z"/>
<path d="M6726 5708 c-3 -35 -8 -154 -12 -265 l-7 -203 22 0 c12 0 23 6 26 13
2 6 8 122 13 257 10 247 8 259 -24 260 -7 0 -14 -26 -18 -62z"/>
<path d="M13866 5698 c-3 -40 -8 -160 -12 -265 l-7 -193 22 0 c12 0 23 6 26
13 2 6 8 122 14 257 10 248 9 259 -25 260 -7 0 -14 -29 -18 -72z"/>
<path d="M10289 5724 c-16 -18 -7 -29 180 -226 182 -191 197 -205 213 -191 17
15 15 19 -22 62 -22 25 -111 120 -197 210 -151 156 -159 162 -174 145z"/>
<path d="M2188 5451 c-196 -161 -225 -188 -216 -204 5 -10 16 -16 23 -13 27
10 445 359 445 371 0 7 -6 17 -12 23 -10 7 -74 -41 -240 -177z"/>
<path d="M9361 5449 c-122 -99 -221 -184 -221 -188 0 -5 7 -14 15 -21 12 -10
51 18 232 166 120 97 222 181 227 185 9 8 -10 39 -24 39 -5 0 -108 -81 -229
-181z"/>
<path d="M16501 5449 c-122 -99 -221 -184 -221 -188 0 -5 7 -14 15 -21 12 -10
51 18 232 166 120 97 222 181 227 185 9 8 -10 39 -24 39 -5 0 -108 -81 -229
-181z"/>
<path d="M3149 5534 c-16 -18 -7 -29 180 -226 181 -190 197 -205 213 -191 16
15 16 18 -12 52 -16 20 -105 114 -197 210 -160 165 -169 172 -184 155z"/>
<path d="M17460 5535 c-14 -17 15 -51 249 -295 122 -128 130 -134 147 -118 16
16 10 25 -122 163 -76 80 -163 173 -192 206 -30 32 -57 59 -62 59 -4 0 -13 -7
-20 -15z"/>
<path d="M4370 5280 c-85 -4 -183 -8 -217 -9 -61 -1 -63 -2 -63 -27 l0 -26
158 6 c410 17 402 16 402 42 0 27 14 27 -280 14z"/>
<path d="M11510 5280 c-85 -4 -183 -8 -217 -9 -61 -1 -63 -2 -63 -27 l0 -26
158 6 c410 17 402 16 402 42 0 27 14 27 -280 14z"/>
<path d="M5343 5017 c-122 -78 -223 -147 -223 -153 0 -6 6 -17 13 -23 11 -8
50 12 173 90 316 201 296 186 282 209 -7 11 -15 20 -18 19 -3 0 -105 -64 -227
-142z"/>
<path d="M12483 5017 c-122 -78 -222 -147 -223 -153 0 -6 6 -17 13 -23 11 -8
50 12 173 90 316 201 296 186 282 209 -7 11 -15 20 -18 19 -3 0 -105 -65 -227
-142z"/>
<path d="M1180 5085 c-14 -17 -27 1 169 -233 80 -95 148 -172 152 -172 3 0 12
7 19 15 14 17 27 -1 -169 233 -80 95 -148 172 -152 172 -3 0 -12 -7 -19 -15z"/>
<path d="M8350 5085 c-10 -12 17 -48 151 -207 89 -106 164 -195 165 -197 2 -1
12 4 24 12 20 14 17 20 -145 211 -91 108 -169 196 -174 196 -5 0 -14 -7 -21
-15z"/>
<path d="M15495 5086 c-16 -12 -4 -29 145 -207 90 -107 165 -196 166 -198 2
-1 12 4 24 12 20 14 17 19 -139 205 -89 105 -165 193 -170 196 -4 3 -16 -1
-26 -8z"/>
<path d="M307 4939 c-182 -92 -197 -101 -187 -119 6 -11 13 -20 15 -20 3 0 97
46 209 102 181 90 203 104 195 120 -5 10 -15 18 -22 17 -7 0 -101 -45 -210
-100z"/>
<path d="M7488 4939 c-189 -95 -223 -120 -184 -135 7 -3 105 40 216 96 155 78
200 105 196 116 -3 9 -6 18 -6 20 0 12 -44 -6 -222 -97z"/>
<path d="M14628 4939 c-109 -54 -198 -102 -198 -107 0 -4 5 -14 10 -22 8 -13
42 1 210 85 111 55 204 103 206 107 7 11 -7 38 -20 37 -6 0 -100 -45 -208
-100z"/>
<path d="M6092 4938 c-7 -7 -12 -17 -12 -22 0 -6 84 -66 185 -133 176 -117
185 -122 196 -102 6 12 7 25 2 29 -7 7 -324 218 -349 233 -6 3 -16 1 -22 -5z"/>
<path d="M13232 4938 c-7 -7 -12 -17 -12 -22 0 -6 84 -66 185 -133 176 -117
185 -122 196 -102 6 12 7 25 2 29 -7 7 -324 218 -349 233 -6 3 -16 1 -22 -5z"/>
<path d="M2915 4830 c-88 -21 -204 -48 -257 -60 -54 -12 -98 -28 -98 -34 1
-38 14 -37 281 25 145 34 266 63 267 64 8 7 -10 45 -21 44 -7 0 -84 -18 -172
-39z"/>
<path d="M10055 4830 c-88 -21 -204 -48 -257 -60 -54 -12 -98 -28 -98 -34 1
-38 14 -37 277 24 144 33 264 60 268 60 14 0 -1 45 -15 47 -8 1 -87 -16 -175
-37z"/>
<path d="M17270 4840 c-63 -15 -177 -42 -252 -60 -130 -30 -138 -33 -138 -56
0 -13 3 -24 6 -24 3 0 123 27 266 60 143 33 261 60 264 60 2 0 4 11 4 25 0 31
-2 31 -150 -5z"/>
<path d="M10962 4229 c-51 -160 -92 -292 -90 -294 2 -1 12 -5 23 -9 19 -5 28
16 114 285 51 160 91 292 89 294 -2 1 -12 5 -23 9 -19 5 -28 -17 -113 -285z"/>
<path d="M3831 4209 c-51 -160 -91 -292 -89 -294 2 -1 12 -5 23 -9 19 -5 28
17 113 285 51 160 92 292 90 294 -2 1 -12 5 -23 9 -19 5 -28 -16 -114 -285z"/>
<path d="M6751 4244 c-142 -244 -150 -263 -106 -264 6 0 75 111 154 246 143
245 151 263 106 264 -6 0 -75 -111 -154 -246z"/>
<path d="M1791 4214 c-103 -247 -107 -263 -66 -264 6 0 57 111 113 247 102
245 106 262 66 263 -6 0 -57 -111 -113 -246z"/>
<path d="M16200 4438 c-6 -13 -53 -124 -105 -248 -88 -212 -92 -226 -74 -234
12 -6 23 -6 28 0 10 11 201 470 201 483 0 8 -23 21 -36 21 -2 0 -9 -10 -14
-22z"/>
<path d="M9105 4420 c-10 -16 -195 -464 -197 -478 -2 -8 6 -18 18 -22 19 -7
28 10 122 238 56 136 102 250 102 253 0 10 -39 18 -45 9z"/>
<path d="M14033 4378 c-4 -7 -70 -119 -145 -248 -124 -211 -136 -236 -121
-247 9 -7 19 -13 22 -13 5 0 280 467 289 491 2 4 -6 12 -17 18 -15 8 -22 8
-28 -1z"/>
<path d="M4750 4355 c-7 -8 -11 -18 -8 -20 3 -3 119 -84 259 -179 222 -152
256 -172 267 -158 6 9 12 19 12 23 0 7 -479 336 -503 345 -8 3 -20 -2 -27 -11z"/>
<path d="M587 4315 c-18 -13 -3 -32 209 -273 199 -225 231 -258 246 -248 10 6
18 14 18 18 0 7 -448 518 -453 518 -1 0 -10 -7 -20 -15z"/>
<path d="M14900 4315 c-10 -13 -10 -18 2 -33 8 -9 111 -126 228 -260 203 -232
213 -242 231 -226 18 16 16 19 -40 83 -32 36 -133 152 -225 256 -92 105 -170
191 -175 193 -4 1 -14 -4 -21 -13z"/>
<path d="M2593 4303 c-7 -2 -13 -10 -13 -15 0 -6 59 -121 131 -254 118 -220
133 -243 150 -233 10 5 19 13 19 17 0 14 -258 486 -267 488 -4 1 -14 0 -20 -3z"/>
<path d="M9723 4302 c-9 -6 24 -76 117 -247 71 -132 131 -244 133 -249 3 -10
47 2 47 13 0 19 -260 486 -272 488 -7 2 -18 -1 -25 -5z"/>
<path d="M16907 4298 c-15 -12 -4 -37 116 -260 72 -136 135 -248 138 -248 3 0
13 6 22 13 16 11 6 34 -115 259 -73 136 -136 248 -139 248 -3 0 -13 -6 -22
-12z"/>
<path d="M7756 4231 c-17 -18 -10 -28 209 -275 124 -141 229 -256 234 -256 5
0 14 7 21 15 10 12 -27 58 -211 267 -122 139 -225 256 -229 261 -4 4 -14 -1
-24 -12z"/>
<path d="M11913 4212 c-10 -17 13 -36 249 -196 241 -165 261 -176 273 -159 11
14 11 21 2 29 -17 16 -484 333 -499 339 -7 3 -18 -3 -25 -13z"/>
<path d="M12925 4150 c-5 -8 167 -505 178 -516 8 -8 48 10 44 20 -2 6 -44 122
-93 258 -69 191 -93 248 -106 248 -9 0 -20 -4 -23 -10z"/>
<path d="M5883 3883 c-7 -2 -13 -9 -13 -15 0 -16 171 -492 181 -502 5 -6 16
-6 27 0 18 8 13 25 -73 263 -50 140 -96 256 -101 257 -5 1 -15 0 -21 -3z"/>
<path d="M0 3425 l0 -25 198 2 c196 3 197 3 200 26 l3 22 -200 0 -201 0 0 -25z"/>
<path d="M7228 3297 c-159 -83 -288 -156 -288 -162 1 -44 19 -37 306 115 159
84 291 154 292 156 6 4 -9 44 -16 44 -4 0 -136 -69 -294 -153z"/>
<path d="M14042 3428 l3 -23 333 -3 332 -2 0 25 0 25 -336 0 -335 0 3 -22z"/>
<path d="M2110 3415 l-295 -20 0 -24 c0 -29 -17 -29 360 -3 218 16 240 19 243
36 2 10 0 21 -5 25 -4 4 -141 -2 -303 -14z"/>
<path d="M16430 3415 l-295 -20 -3 -25 -3 -25 293 19 c161 10 297 22 301 26 5
4 7 16 5 26 -3 19 -10 18 -298 -1z"/>
<path d="M9285 3409 c-132 -10 -252 -18 -267 -18 -23 -1 -28 -6 -28 -26 0 -17
5 -25 18 -25 43 0 586 41 590 45 2 2 1 13 -3 24 -8 25 14 25 -310 0z"/>
<path d="M5209 3056 c-107 -141 -195 -260 -197 -265 -2 -5 6 -14 16 -20 18 -9
37 13 188 211 93 122 181 239 196 259 27 35 27 37 9 53 -17 16 -27 5 -212
-238z"/>
<path d="M11086 3207 c-3 -12 -3 -23 -1 -26 7 -6 515 -101 543 -101 19 0 23 5
20 22 -3 21 -17 25 -208 60 -113 21 -237 44 -277 52 -69 13 -72 13 -77 -7z"/>
<path d="M3950 3195 c0 -14 2 -25 3 -25 2 0 125 -22 273 -50 148 -27 272 -50
277 -50 4 0 7 11 7 25 0 14 -3 25 -6 25 -3 0 -126 23 -273 50 -147 28 -271 50
-274 50 -4 0 -7 -11 -7 -25z"/>
<path d="M10163 3037 c-128 -89 -232 -165 -232 -168 -1 -3 5 -13 12 -23 11
-16 31 -5 217 125 286 197 272 186 260 210 -6 10 -14 19 -18 18 -4 -1 -111
-74 -239 -162z"/>
<path d="M1021 2923 c-115 -249 -122 -268 -105 -280 10 -7 21 -10 25 -6 4 5
61 125 127 268 107 232 119 261 104 273 -9 6 -19 12 -22 12 -4 0 -62 -120
-129 -267z"/>
<path d="M3023 3027 c-128 -89 -231 -166 -230 -171 12 -38 37 -25 252 124 121
84 226 158 233 164 14 14 6 46 -12 45 -6 0 -116 -73 -243 -162z"/>
<path d="M15423 3113 c-222 -480 -213 -457 -196 -470 9 -7 20 -13 23 -13 4 0
150 310 241 513 11 24 10 30 -2 38 -25 16 -30 11 -66 -68z"/>
<path d="M17349 3034 c-123 -85 -228 -159 -232 -164 -5 -4 -4 -17 2 -28 10
-20 25 -11 250 145 209 145 239 169 230 185 -5 10 -13 18 -18 18 -4 0 -108
-70 -232 -156z"/>
<path d="M8291 3118 c-16 -35 -70 -152 -120 -262 -51 -109 -90 -205 -87 -213
16 -42 44 2 158 250 66 143 117 265 114 273 -12 31 -38 12 -65 -48z"/>
<path d="M12326 2853 c-151 -200 -192 -260 -184 -271 6 -7 17 -12 24 -10 6 2
94 111 194 243 101 132 187 246 193 253 10 12 -7 42 -23 42 -5 0 -96 -116
-204 -257z"/>
<path d="M13298 2772 c-246 -104 -267 -115 -257 -133 5 -10 13 -19 18 -19 16
0 526 219 528 227 2 5 -2 16 -9 24 -12 14 -44 2 -280 -99z"/>
<path d="M0 2732 c0 -38 13 -59 156 -252 86 -115 159 -210 164 -210 4 0 13 7
20 15 10 12 -16 53 -156 242 -92 126 -171 232 -176 238 -4 5 -8 -10 -8 -33z"/>
<path d="M14290 2755 c-10 -12 17 -53 157 -241 92 -125 171 -232 174 -237 4
-6 15 -4 28 5 20 14 16 21 -155 251 -97 130 -179 237 -184 237 -4 0 -13 -7
-20 -15z"/>
<path d="M6120 2570 c-140 -60 -261 -112 -268 -117 -14 -9 -7 -43 10 -43 13 0
511 210 522 221 6 5 6 16 0 27 -8 18 -27 12 -264 -88z"/>
<path d="M1881 2607 c-6 -6 -11 -16 -11 -23 0 -10 398 -252 443 -270 10 -3 18
2 22 16 4 12 5 23 3 24 -1 2 -68 41 -148 88 -80 47 -179 106 -222 131 -55 32
-79 42 -87 34z"/>
<path d="M7151 2607 c-8 -10 27 -64 155 -238 92 -123 171 -229 178 -236 8 -9
15 -9 30 2 17 13 8 29 -155 249 -96 130 -179 236 -185 236 -6 0 -17 -6 -23
-13z"/>
<path d="M16190 2599 c-7 -11 -10 -22 -8 -24 8 -7 448 -265 452 -265 3 0 10 9
16 20 9 17 -9 31 -212 151 -123 72 -226 134 -230 136 -4 2 -12 -6 -18 -18z"/>
<path d="M9053 2590 c-12 -18 -5 -24 90 -79 56 -33 158 -94 227 -135 111 -66
126 -73 138 -58 6 9 12 19 12 22 0 6 -441 270 -451 270 -2 0 -10 -9 -16 -20z"/>
<path d="M11309 2434 c-11 -13 17 -45 206 -234 208 -209 220 -219 238 -203 17
16 8 27 -200 235 -120 120 -221 218 -224 218 -4 0 -12 -7 -20 -16z"/>
<path d="M4011 2413 c-7 -15 19 -44 151 -168 312 -292 293 -277 312 -256 16
17 5 29 -210 230 -124 116 -230 211 -235 211 -4 0 -12 -8 -18 -17z"/>
<path d="M3184 2296 c-6 -15 39 -503 52 -568 5 -27 36 -40 47 -20 2 4 -10 140
-27 302 -27 258 -33 295 -49 298 -9 2 -20 -4 -23 -12z"/>
<path d="M10313 2288 c3 -13 18 -148 33 -300 28 -276 28 -278 51 -278 29 0 29
-14 -2 300 -32 315 -29 300 -61 300 -22 0 -25 -4 -21 -22z"/>
<path d="M17496 2301 c-3 -4 8 -136 24 -291 17 -156 30 -289 30 -297 0 -7 11
-13 25 -13 14 0 25 6 25 13 0 7 -13 143 -30 302 -16 159 -30 290 -30 292 0 7
-39 2 -44 -6z"/>
<path d="M13648 2273 c-10 -3 -18 -9 -18 -15 0 -24 206 -578 215 -578 40 1 37
16 -65 301 -56 156 -105 287 -109 290 -3 3 -14 4 -23 2z"/>
<path d="M6313 2107 c-10 -21 2 -28 266 -164 248 -128 277 -141 289 -126 6 9
12 20 12 23 0 4 -125 71 -279 148 -272 139 -278 141 -288 119z"/>
<path d="M12440 1929 c-7 -11 -10 -22 -8 -23 2 -2 117 -80 257 -175 222 -150
256 -170 269 -157 8 8 12 19 8 24 -5 8 -461 321 -503 346 -7 4 -17 -2 -23 -15z"/>
<path d="M5301 1922 c-9 -17 18 -37 247 -194 251 -171 282 -187 282 -143 0 11
-468 337 -504 351 -8 3 -19 -3 -25 -14z"/>
<path d="M1270 1850 c-140 -21 -258 -39 -262 -39 -8 -1 -12 -51 -5 -51 15 0
565 81 574 84 6 3 9 14 6 25 -7 27 -3 27 -313 -19z"/>
<path d="M8463 1847 c-276 -40 -283 -42 -283 -64 0 -16 6 -23 19 -23 20 0 503
68 539 75 15 4 22 13 22 30 0 14 -3 24 -7 24 -5 -1 -135 -20 -290 -42z"/>
<path d="M15581 1849 c-145 -21 -266 -40 -267 -42 -2 -2 -1 -13 3 -26 4 -17
11 -21 27 -18 11 3 141 22 289 43 262 37 267 38 267 61 0 30 8 30 -319 -18z"/>
<path d="M11000 1570 c-91 -4 -180 -8 -198 -9 -29 -1 -33 -4 -30 -23 3 -26
-29 -25 381 -13 l227 7 0 24 c0 24 0 24 -107 22 -60 -1 -182 -5 -273 -8z"/>
<path d="M285 1414 c-137 -85 -256 -159 -264 -163 -12 -7 -12 -11 0 -29 14
-20 22 -16 274 140 143 88 264 163 268 167 10 10 -2 41 -17 41 -6 -1 -123 -71
-261 -156z"/>
<path d="M2127 1343 c-128 -201 -143 -229 -129 -240 9 -7 19 -13 22 -13 8 0
294 450 289 453 -2 2 -11 8 -20 15 -15 11 -34 -15 -162 -215z"/>
<path d="M7466 1411 c-142 -88 -263 -164 -269 -170 -8 -8 -7 -16 5 -27 14 -14
39 -1 281 148 147 89 267 166 267 169 0 3 -6 13 -12 22 -12 15 -39 1 -272
-142z"/>
<path d="M14590 1409 c-140 -87 -256 -163 -258 -169 -2 -6 1 -17 7 -24 10 -11
62 17 281 152 238 146 268 167 259 184 -5 10 -15 18 -22 17 -7 -1 -127 -72
-267 -160z"/>
<path d="M16445 1348 c-77 -122 -141 -226 -143 -233 -4 -18 29 -28 44 -13 20
22 274 427 274 437 0 6 -8 15 -17 20 -16 8 -38 -22 -158 -211z"/>
<path d="M9302 1333 c-133 -209 -143 -228 -126 -240 11 -8 21 -10 27 -4 5 5
72 108 148 228 125 196 137 219 122 231 -9 6 -19 12 -22 12 -3 0 -71 -103
-149 -227z"/>
<path d="M4000 1380 c-91 -4 -209 -8 -262 -9 l-98 -1 0 -26 0 -26 228 6 c125
4 260 9 300 12 68 6 72 8 72 30 0 21 -4 24 -37 22 -21 -1 -112 -5 -203 -8z"/>
<path d="M12235 1094 c-198 -158 -206 -166 -190 -184 16 -18 25 -12 220 143
112 89 204 167 204 173 1 6 -5 17 -13 23 -11 9 -56 -23 -221 -155z"/>
<path d="M5112 1101 c-101 -82 -190 -155 -198 -163 -15 -15 -10 -48 7 -48 5 0
101 73 213 163 169 136 202 166 194 180 -5 9 -14 17 -21 16 -7 0 -95 -67 -195
-148z"/>
<path d="M9899 1164 c-8 -10 -10 -20 -3 -29 5 -7 110 -93 234 -191 124 -97
231 -181 238 -187 9 -7 18 -5 30 6 14 15 14 19 2 31 -11 10 -374 298 -476 378
-7 5 -16 2 -25 -8z"/>
<path d="M2760 1154 c-17 -19 -32 -6 249 -228 185 -146 237 -183 248 -174 8 6
13 17 11 23 -3 11 -480 395 -491 395 -2 0 -10 -7 -17 -16z"/>
<path d="M17074 1152 c-11 -16 15 -40 238 -216 137 -109 250 -197 251 -195 2
2 8 11 15 20 11 15 -17 41 -229 209 -132 105 -246 193 -252 196 -7 2 -17 -4
-23 -14z"/>
<path d="M1026 1132 c-2 -4 32 -133 77 -285 76 -256 83 -276 102 -271 11 4 22
8 23 10 2 1 -29 112 -68 246 -40 134 -77 258 -82 276 -9 31 -39 45 -52 24z"/>
<path d="M8218 1133 c-10 -2 -18 -8 -18 -12 0 -4 27 -100 61 -212 33 -112 69
-235 80 -272 18 -60 23 -68 42 -65 12 2 22 8 22 14 0 19 -160 554 -165 553 -3
-1 -13 -3 -22 -6z"/>
<path d="M15340 1123 c1 -20 154 -541 162 -549 3 -2 14 -1 25 3 20 8 18 17
-61 283 -73 248 -83 275 -104 278 -16 3 -22 -2 -22 -15z"/>
<path d="M13317 1078 c-4 -12 -5 -23 -4 -24 7 -6 551 -83 558 -78 9 5 13 44 4
44 -2 0 -126 18 -275 40 -149 22 -272 40 -274 40 -2 0 -6 -10 -9 -22z"/>
<path d="M6180 1067 c0 -22 8 -23 268 -61 147 -21 272 -39 277 -40 6 0 10 10
10 24 0 24 -1 24 -250 62 -303 45 -305 45 -305 15z"/>
<path d="M11208 804 c-15 -15 -4 -35 149 -265 151 -226 167 -247 184 -236 11
7 17 17 15 24 -6 14 -325 493 -329 493 -1 0 -10 -7 -19 -16z"/>
<path d="M4070 795 c-11 -13 13 -54 150 -260 90 -135 165 -245 167 -245 2 0
12 5 22 12 17 11 6 31 -147 260 -91 136 -168 248 -172 248 -4 0 -13 -7 -20
-15z"/>
<path d="M5659 694 c-16 -18 -6 -30 200 -246 200 -209 217 -225 233 -211 16
15 15 19 -22 62 -22 25 -120 129 -217 230 -170 175 -179 182 -194 165z"/>
<path d="M12792 702 c-19 -3 -21 -8 -15 -30 3 -15 38 -153 78 -307 64 -253 73
-280 91 -277 10 2 21 6 23 8 4 4 -136 565 -148 594 -3 9 -16 14 -29 12z"/>
<path d="M66 625 c-3 -9 -6 -20 -6 -24 0 -4 106 -59 236 -121 193 -94 237
-111 245 -100 5 8 9 20 9 25 -1 7 -404 207 -470 233 -4 2 -10 -4 -14 -13z"/>
<path d="M14379 619 c-6 -12 -9 -22 -7 -24 14 -14 471 -224 479 -220 5 4 9 14
9 24 0 13 -32 33 -117 73 -65 31 -171 81 -235 111 -114 54 -118 56 -129 36z"/>
<path d="M7240 610 c-10 -19 -3 -24 92 -69 57 -27 165 -78 240 -114 133 -63
138 -65 149 -46 6 12 9 22 7 24 -6 6 -464 225 -471 225 -3 0 -11 -9 -17 -20z"/>
<path d="M2098 378 c-148 -49 -268 -95 -268 -101 1 -39 17 -36 293 56 247 82
277 94 275 112 -2 11 -10 21 -18 22 -8 1 -135 -39 -282 -89z"/>
<path d="M9283 377 c-215 -72 -273 -95 -273 -109 0 -9 5 -20 10 -23 6 -4 134
35 286 85 216 72 274 95 270 107 -3 8 -6 19 -6 24 0 13 11 16 -287 -84z"/>
<path d="M16411 380 c-145 -49 -265 -91 -266 -92 -2 -2 1 -13 6 -25 8 -22 11
-21 276 68 147 49 273 91 280 93 17 7 3 46 -16 45 -9 0 -135 -41 -280 -89z"/>
</g>
</svg>
