<?xml version="1.0" standalone="no"?>
<!DOCTYPE svg PUBLIC "-//W3C//DTD SVG 20010904//EN"
 "http://www.w3.org/TR/2001/REC-SVG-20010904/DTD/svg10.dtd">
<svg version="1.0" xmlns="http://www.w3.org/2000/svg"
 width="1811.000000pt" height="1217.000000pt" viewBox="0 0 1811.000000 1217.000000"
 preserveAspectRatio="xMidYMid meet">
<metadata>
Created by potrace 1.13, written by Peter Selinger 2001-2015
</metadata>
<g transform="translate(0.000000,1217.000000) scale(0.100000,-0.100000)"
fill="#000000" stroke="none">
<path d="M670 12050 l0 -120 -335 0 -335 0 0 -25 0 -25 335 0 335 0 0 -110 0
-110 25 0 25 0 0 110 0 110 380 0 380 0 0 25 0 25 -380 0 -380 0 0 120 0 120
-25 0 -25 0 0 -120z"/>
<path d="M3550 12050 l0 -120 -375 0 -375 0 0 -25 0 -25 375 0 375 0 0 -110 0
-110 25 0 25 0 0 110 0 110 375 0 375 0 0 25 0 25 -375 0 -375 0 0 120 0 120
-25 0 -25 0 0 -120z"/>
<path d="M6420 12050 l0 -120 -370 0 -370 0 0 -25 0 -25 370 0 370 0 0 -110 0
-110 25 0 25 0 0 110 0 110 380 0 380 0 0 25 0 25 -380 0 -380 0 0 120 0 120
-25 0 -25 0 0 -120z"/>
<path d="M9300 12050 l0 -120 -375 0 -375 0 0 -25 0 -25 375 0 375 0 0 -110 0
-110 25 0 25 0 0 110 0 110 378 2 377 3 3 23 3 22 -380 0 -381 0 0 120 0 120
-25 0 -25 0 0 -120z"/>
<path d="M12170 12050 l0 -120 -370 0 -370 0 0 -25 0 -25 370 0 370 0 0 -110
0 -110 25 0 25 0 0 110 0 110 380 0 380 0 0 25 0 25 -380 0 -380 0 0 120 0
120 -25 0 -25 0 0 -120z"/>
<path d="M15050 12050 l0 -120 -375 0 -375 0 0 -25 0 -25 375 0 375 0 0 -110
0 -110 25 0 25 0 0 110 0 110 375 0 375 0 0 25 0 25 -375 0 -375 0 0 120 0
120 -25 0 -25 0 0 -120z"/>
<path d="M17920 12050 l0 -120 -370 0 -370 0 0 -25 0 -25 370 0 370 0 0 -110
0 -110 25 0 25 0 0 110 0 110 70 0 c68 0 70 1 70 25 0 24 -2 25 -70 25 l-70 0
0 120 0 120 -25 0 -25 0 0 -120z"/>
<path d="M2110 11100 l0 -130 -375 0 -375 0 0 -25 0 -25 375 0 375 0 0 -110 0
-110 25 0 25 0 0 110 0 110 375 0 375 0 0 25 0 25 -375 0 -375 0 0 130 0 130
-25 0 -25 0 0 -130z"/>
<path d="M4980 11100 l0 -130 -370 0 -370 0 0 -25 0 -25 370 0 370 0 0 -110 0
-110 25 0 25 0 0 110 0 110 380 0 380 0 0 25 0 25 -380 0 -380 0 0 130 0 130
-25 0 -25 0 0 -130z"/>
<path d="M7860 11100 l0 -130 -375 0 -375 0 0 -25 0 -25 375 0 375 0 0 -110 0
-110 25 0 25 0 0 110 0 110 375 0 375 0 0 25 0 25 -375 0 -375 0 0 130 0 130
-25 0 -25 0 0 -130z"/>
<path d="M10730 11100 l0 -130 -376 0 -375 0 3 -22 3 -23 373 -3 372 -2 0
-110 0 -110 25 0 25 0 0 110 0 110 380 0 380 0 0 25 0 25 -380 0 -380 0 0 130
0 130 -25 0 -25 0 0 -130z"/>
<path d="M13608 11103 l-3 -128 -372 -3 -373 -2 0 -25 0 -25 375 0 375 0 0
-110 0 -110 25 0 25 0 0 110 0 110 375 0 375 0 0 25 0 25 -375 0 -375 0 0 130
0 130 -25 0 -24 0 -3 -127z"/>
<path d="M16480 11100 l0 -130 -370 0 -370 0 0 -25 0 -25 370 0 370 0 0 -110
0 -110 25 0 25 0 0 110 0 110 380 0 380 0 0 25 0 25 -380 0 -380 0 0 130 0
130 -25 0 -25 0 0 -130z"/>
<path d="M670 10145 l0 -125 -335 0 -335 0 0 -25 0 -25 335 0 335 0 0 -115 0
-115 25 0 25 0 0 115 0 115 380 0 380 0 0 25 0 25 -380 0 -380 0 0 125 0 125
-25 0 -25 0 0 -125z"/>
<path d="M3550 10145 l0 -125 -375 0 -375 0 0 -25 0 -25 375 0 375 0 0 -115 0
-115 25 0 25 0 0 115 0 115 375 0 375 0 0 25 0 25 -375 0 -375 0 0 125 0 125
-25 0 -25 0 0 -125z"/>
<path d="M6420 10145 l0 -125 -370 0 -370 0 0 -25 0 -25 370 0 369 0 3 -112
c3 -108 4 -113 25 -116 22 -3 22 -1 25 110 l3 113 378 3 377 2 0 25 0 25 -380
0 -380 0 0 125 0 125 -25 0 -25 0 0 -125z"/>
<path d="M9300 10145 l0 -125 -372 -2 -373 -3 -3 -22 -3 -23 375 0 376 0 0
-115 0 -115 25 0 25 0 0 115 0 115 381 0 380 0 -3 23 -3 22 -377 3 -378 2 0
125 0 125 -25 0 -25 0 0 -125z"/>
<path d="M12170 10145 l0 -125 -370 0 -370 0 0 -25 0 -25 370 0 370 0 0 -115
0 -115 25 0 25 0 0 115 0 115 380 0 380 0 0 25 0 25 -380 0 -380 0 0 125 0
125 -25 0 -25 0 0 -125z"/>
<path d="M15050 10145 l0 -125 -375 0 -375 0 0 -25 0 -25 375 0 375 0 0 -115
0 -115 25 0 25 0 0 115 0 115 375 0 375 0 0 25 0 25 -375 0 -375 0 0 125 0
125 -25 0 -25 0 0 -125z"/>
<path d="M17920 10145 l0 -125 -370 0 -370 0 0 -25 0 -25 370 0 370 0 0 -115
0 -115 25 0 25 0 0 115 0 115 70 0 c68 0 70 1 70 25 0 24 -2 25 -70 25 l-70 0
0 125 0 125 -25 0 -25 0 0 -125z"/>
<path d="M2110 9195 l0 -125 -375 0 -375 0 0 -25 0 -25 375 0 375 0 0 -116 c0
-114 0 -115 23 -112 21 3 22 7 25 116 l3 112 374 0 375 0 0 25 0 25 -375 0
-375 0 0 125 0 125 -25 0 -25 0 0 -125z"/>
<path d="M4980 9195 l0 -125 -370 0 -370 0 0 -25 0 -25 370 0 369 0 3 -112 c3
-109 4 -113 26 -116 22 -3 22 -2 22 112 l0 116 380 0 380 0 0 25 0 25 -380 0
-380 0 0 125 0 125 -25 0 -25 0 0 -125z"/>
<path d="M7860 9195 l0 -125 -375 0 -375 0 0 -25 0 -25 375 0 375 0 0 -116 c0
-114 0 -115 23 -112 21 3 22 7 25 116 l3 112 374 0 375 0 0 25 0 25 -375 0
-375 0 0 125 0 125 -25 0 -25 0 0 -125z"/>
<path d="M10730 9195 l0 -125 -372 -2 -373 -3 -3 -22 -3 -23 375 0 376 0 0
-115 0 -115 25 0 25 0 0 115 0 115 380 0 380 0 0 25 0 25 -380 0 -380 0 0 125
0 125 -25 0 -25 0 0 -125z"/>
<path d="M13610 9195 l0 -125 -375 0 -375 0 0 -25 0 -25 375 0 375 0 0 -116
c0 -114 0 -115 23 -112 21 3 22 7 25 116 l3 112 374 0 375 0 0 25 0 25 -375 0
-375 0 0 125 0 125 -25 0 -25 0 0 -125z"/>
<path d="M16480 9195 l0 -125 -370 0 -370 0 0 -25 0 -25 370 0 370 0 0 -115 0
-115 25 0 25 0 0 115 0 115 380 0 380 0 0 25 0 25 -380 0 -380 0 0 125 0 125
-25 0 -25 0 0 -125z"/>
<path d="M670 8230 l0 -130 -335 0 -335 0 0 -25 0 -25 335 0 335 0 0 -110 0
-110 25 0 25 0 0 110 0 110 380 0 380 0 0 25 0 25 -377 2 -378 3 -3 128 -3
127 -24 0 -25 0 0 -130z"/>
<path d="M3550 8230 l0 -130 -375 0 -375 0 0 -25 0 -25 375 0 375 0 0 -110 0
-110 25 0 25 0 0 110 0 110 375 0 375 0 0 25 0 25 -375 0 -375 0 0 130 0 130
-25 0 -25 0 0 -130z"/>
<path d="M6420 8230 l0 -130 -370 0 -370 0 0 -25 0 -25 370 0 370 0 0 -110 0
-110 25 0 25 0 0 110 0 110 380 0 380 0 0 25 0 25 -377 2 -378 3 -3 128 -3
127 -24 0 -25 0 0 -130z"/>
<path d="M9300 8230 l0 -130 -376 0 -375 0 3 -22 3 -23 373 -3 372 -2 0 -110
0 -110 25 0 25 0 0 110 0 110 378 2 377 3 3 23 3 22 -380 0 -381 0 0 130 0
130 -25 0 -25 0 0 -130z"/>
<path d="M12170 8230 l0 -130 -370 0 -370 0 0 -25 0 -25 370 0 370 0 0 -110 0
-110 25 0 25 0 0 110 0 110 380 0 380 0 0 25 0 25 -380 0 -380 0 0 130 0 130
-25 0 -25 0 0 -130z"/>
<path d="M15048 8233 l-3 -128 -372 -3 -373 -2 0 -25 0 -25 375 0 375 0 0
-110 0 -110 25 0 25 0 0 110 0 110 375 0 375 0 0 25 0 25 -375 0 -375 0 0 130
0 130 -25 0 -24 0 -3 -127z"/>
<path d="M17920 8230 l0 -130 -370 0 -370 0 0 -25 0 -25 370 0 370 0 0 -110 0
-110 25 0 25 0 0 110 0 110 70 0 c68 0 70 1 70 25 0 24 -2 25 -70 25 l-70 0 0
130 0 130 -25 0 -25 0 0 -130z"/>
<path d="M2108 7273 l-3 -128 -373 -3 -373 -2 3 -23 3 -22 373 -3 372 -2 0
-110 0 -110 25 0 25 0 0 110 0 110 375 0 375 0 0 25 0 25 -375 0 -375 0 0 130
0 130 -25 0 -24 0 -3 -127z"/>
<path d="M4980 7270 l0 -130 -370 0 -370 0 0 -25 0 -25 370 0 370 0 0 -110 0
-110 25 0 25 0 0 110 0 110 378 2 377 3 3 22 3 23 -378 2 -378 3 -3 128 -3
127 -24 0 -25 0 0 -130z"/>
<path d="M7858 7273 l-3 -128 -373 -3 -373 -2 3 -23 3 -22 373 -3 372 -2 0
-110 0 -110 25 0 25 0 0 110 0 110 375 0 375 0 0 25 0 25 -375 0 -375 0 0 130
0 130 -25 0 -24 0 -3 -127z"/>
<path d="M10730 7270 l0 -130 -376 0 -375 0 3 -22 3 -23 373 -3 372 -2 0 -110
0 -110 25 0 25 0 0 110 0 110 378 2 377 3 3 23 3 22 -380 0 -381 0 0 130 0
130 -25 0 -25 0 0 -130z"/>
<path d="M13608 7273 l-3 -128 -372 -3 -373 -2 0 -25 0 -25 375 0 375 0 0
-110 0 -110 25 0 25 0 0 110 0 110 375 0 375 0 0 25 0 25 -375 0 -375 0 0 130
0 130 -25 0 -24 0 -3 -127z"/>
<path d="M16480 7270 l0 -130 -370 0 -370 0 0 -25 0 -25 370 0 370 0 0 -110 0
-110 25 0 25 0 0 110 0 110 378 2 377 3 3 22 3 23 -378 2 -378 3 -3 128 -3
127 -24 0 -25 0 0 -130z"/>
<path d="M677 6443 c-4 -3 -7 -62 -7 -130 l0 -123 -335 0 -335 0 0 -25 0 -25
335 0 334 0 3 -112 c3 -109 4 -113 26 -116 22 -3 22 -2 22 112 l0 116 380 0
380 0 0 25 0 25 -380 0 -380 0 0 130 c0 119 -1 130 -18 130 -10 0 -22 -3 -25
-7z"/>
<path d="M3550 6321 l0 -131 -375 0 -375 0 0 -25 0 -25 375 0 375 0 0 -116 c0
-114 0 -115 23 -112 21 3 22 7 25 116 l3 112 374 0 375 0 0 25 0 25 -375 0
-374 0 -3 128 c-3 123 -4 127 -25 130 -23 3 -23 3 -23 -127z"/>
<path d="M6427 6443 c-4 -3 -7 -62 -7 -130 l0 -123 -370 0 -370 0 0 -25 0 -25
370 0 369 0 3 -112 c3 -109 4 -113 26 -116 22 -3 22 -2 22 112 l0 116 380 0
380 0 0 25 0 25 -380 0 -380 0 0 130 c0 119 -1 130 -18 130 -10 0 -22 -3 -25
-7z"/>
<path d="M9307 6444 c-4 -4 -7 -63 -7 -131 l0 -123 -375 0 -375 0 0 -25 0 -25
375 0 375 0 0 -115 0 -115 25 0 25 0 0 115 0 115 381 0 380 0 -3 23 -3 22
-377 3 -377 2 -3 127 c-3 106 -6 128 -18 131 -9 1 -19 0 -23 -4z"/>
<path d="M12177 6443 c-4 -3 -7 -62 -7 -130 l0 -123 -370 0 -370 0 0 -25 0
-25 370 0 369 0 3 -112 c3 -109 4 -113 26 -116 22 -3 22 -2 22 112 l0 116 380
0 380 0 0 25 0 25 -380 0 -380 0 0 130 c0 119 -1 130 -18 130 -10 0 -22 -3
-25 -7z"/>
<path d="M15050 6321 l0 -131 -375 0 -375 0 0 -25 0 -25 375 0 375 0 0 -116
c0 -114 0 -115 23 -112 21 3 22 7 25 116 l3 112 374 0 375 0 0 25 0 25 -375 0
-374 0 -3 128 c-3 123 -4 127 -25 130 -23 3 -23 3 -23 -127z"/>
<path d="M17927 6443 c-4 -3 -7 -62 -7 -130 l0 -123 -370 0 -370 0 0 -25 0
-25 370 0 369 0 3 -112 c3 -109 4 -113 26 -116 22 -3 22 -2 22 112 l0 116 70
0 c68 0 70 1 70 25 0 24 -2 25 -70 25 l-70 0 0 130 c0 119 -1 130 -18 130 -10
0 -22 -3 -25 -7z"/>
<path d="M2110 5361 l0 -131 -375 0 -375 0 0 -25 0 -25 375 0 375 0 0 -110 0
-110 25 0 25 0 0 110 0 110 375 0 375 0 0 25 0 25 -375 0 -374 0 -3 128 c-3
123 -4 127 -25 130 -23 3 -23 3 -23 -127z"/>
<path d="M4987 5483 c-4 -3 -7 -62 -7 -130 l0 -123 -370 0 -370 0 0 -25 0 -25
370 0 370 0 0 -110 0 -110 25 0 25 0 0 110 0 110 380 0 380 0 0 25 0 25 -380
0 -380 0 0 130 c0 119 -1 130 -18 130 -10 0 -22 -3 -25 -7z"/>
<path d="M7860 5360 l0 -130 -375 0 -375 0 0 -25 0 -25 375 0 375 0 0 -110 0
-110 25 0 25 0 0 110 0 110 375 0 375 0 0 25 0 25 -375 0 -375 0 0 130 0 130
-25 0 -25 0 0 -130z"/>
<path d="M10730 5360 l0 -130 -372 -2 c-365 -3 -373 -3 -373 -23 0 -20 8 -20
373 -23 l372 -2 0 -110 0 -110 25 0 25 0 0 110 0 110 380 0 380 0 0 25 0 25
-380 0 -380 0 0 130 0 130 -25 0 -25 0 0 -130z"/>
<path d="M13610 5361 l0 -131 -375 0 -375 0 0 -25 0 -25 375 0 375 0 0 -110 0
-110 25 0 25 0 0 110 0 110 375 0 375 0 0 25 0 25 -375 0 -374 0 -3 128 c-3
123 -4 127 -25 130 -23 3 -23 3 -23 -127z"/>
<path d="M16480 5360 l0 -130 -370 0 -370 0 0 -25 0 -25 370 0 370 0 0 -110 0
-110 25 0 25 0 0 110 0 110 380 0 380 0 0 25 0 25 -380 0 -380 0 0 130 0 130
-25 0 -25 0 0 -130z"/>
<path d="M670 4405 l0 -125 -335 0 -335 0 0 -25 0 -25 335 0 335 0 0 -115 0
-115 25 0 c24 0 24 0 27 113 l3 112 378 3 378 2 -3 23 -3 22 -377 3 -378 2 0
125 0 125 -25 0 -25 0 0 -125z"/>
<path d="M3550 4405 l0 -125 -372 -2 -373 -3 -3 -22 -3 -23 373 -2 373 -3 3
-112 c3 -112 3 -113 27 -113 24 0 24 1 27 113 l3 112 373 3 372 2 0 25 0 25
-375 0 -375 0 0 125 0 125 -25 0 -25 0 0 -125z"/>
<path d="M6420 4405 l0 -125 -370 0 -370 0 0 -25 0 -25 370 0 370 0 0 -115 0
-115 25 0 c24 0 24 0 27 113 l3 112 378 3 378 2 -3 23 -3 22 -377 3 -378 2 0
125 0 125 -25 0 -25 0 0 -125z"/>
<path d="M9300 4405 l0 -125 -372 -2 -373 -3 -3 -22 -3 -23 373 -2 373 -3 3
-112 c3 -112 3 -113 27 -113 24 0 24 1 27 113 l3 112 378 3 378 2 -3 23 -3 22
-377 3 -378 2 0 125 0 125 -25 0 -25 0 0 -125z"/>
<path d="M12170 4405 l0 -125 -370 0 -370 0 0 -25 0 -25 370 0 370 0 0 -115 0
-115 25 0 c24 0 24 0 27 113 l3 112 378 3 378 2 -3 23 -3 22 -377 3 -378 2 0
125 0 125 -25 0 -25 0 0 -125z"/>
<path d="M15050 4405 l0 -125 -372 -2 -373 -3 -3 -22 -3 -23 373 -2 373 -3 3
-112 c3 -113 3 -113 27 -113 l25 0 0 115 0 115 375 0 375 0 0 25 0 25 -375 0
-375 0 0 125 0 125 -25 0 -25 0 0 -125z"/>
<path d="M17920 4405 l0 -125 -370 0 -370 0 0 -25 0 -25 370 0 370 0 0 -115 0
-115 25 0 c24 0 24 0 27 113 l3 112 68 3 c64 3 67 4 67 27 0 24 -2 25 -70 25
l-70 0 0 125 0 125 -25 0 -25 0 0 -125z"/>
<path d="M2110 3441 l0 -131 -375 0 -375 0 0 -25 0 -25 375 0 375 0 0 -116 c0
-114 0 -115 23 -112 21 3 22 7 25 116 l3 112 374 0 375 0 0 25 0 25 -375 0
-374 0 -3 128 c-3 123 -4 127 -25 130 -23 3 -23 3 -23 -127z"/>
<path d="M4987 3563 c-4 -3 -7 -62 -7 -130 l0 -123 -370 0 -370 0 0 -25 0 -25
370 0 369 0 3 -112 c3 -109 4 -113 26 -116 22 -3 22 -2 22 112 l0 116 380 0
380 0 0 25 0 25 -380 0 -380 0 0 130 c0 119 -1 130 -18 130 -10 0 -22 -3 -25
-7z"/>
<path d="M7860 3441 l0 -131 -375 0 -375 0 0 -25 0 -25 375 0 375 0 0 -116 c0
-114 0 -115 23 -112 21 3 22 7 25 116 l3 112 374 0 375 0 0 25 0 25 -375 0
-374 0 -3 128 c-3 123 -4 127 -25 130 -23 3 -23 3 -23 -127z"/>
<path d="M10730 3440 l0 -130 -372 -2 -373 -3 -3 -22 -3 -23 375 0 375 0 3
-112 c3 -109 4 -113 26 -116 22 -3 22 -2 22 112 l0 116 380 0 380 0 0 25 0 25
-380 0 -380 0 0 130 0 130 -25 0 -25 0 0 -130z"/>
<path d="M13610 3441 l0 -131 -375 0 -375 0 0 -25 0 -25 375 0 375 0 0 -116
c0 -114 0 -115 23 -112 21 3 22 7 25 116 l3 112 374 0 375 0 0 25 0 25 -375 0
-374 0 -3 128 c-3 123 -4 127 -25 130 -23 3 -23 3 -23 -127z"/>
<path d="M16480 3440 l0 -130 -370 0 -370 0 0 -25 0 -25 370 0 369 0 3 -112
c3 -109 4 -113 26 -116 22 -3 22 -2 22 112 l0 116 380 0 380 0 0 25 0 25 -380
0 -380 0 0 130 0 130 -25 0 -25 0 0 -130z"/>
<path d="M670 2470 l0 -130 -335 0 -335 0 0 -25 0 -25 335 0 335 0 0 -110 0
-110 25 0 25 0 0 110 0 110 380 0 380 0 0 25 0 25 -377 2 -378 3 -3 128 -3
127 -24 0 -25 0 0 -130z"/>
<path d="M3548 2473 l-3 -128 -373 -3 -373 -2 3 -23 3 -22 373 -3 372 -2 0
-110 0 -110 25 0 25 0 0 110 0 110 375 0 375 0 0 25 0 25 -375 0 -375 0 0 130
0 130 -25 0 -24 0 -3 -127z"/>
<path d="M6420 2470 l0 -130 -370 0 -370 0 0 -25 0 -25 370 0 370 0 0 -110 0
-110 25 0 25 0 0 110 0 110 380 0 380 0 0 25 0 25 -377 2 -378 3 -3 128 -3
127 -24 0 -25 0 0 -130z"/>
<path d="M9300 2470 l0 -130 -376 0 -375 0 3 -22 3 -23 373 -3 372 -2 0 -110
0 -110 25 0 25 0 0 110 0 110 378 2 377 3 3 23 3 22 -380 0 -381 0 0 130 0
130 -25 0 -25 0 0 -130z"/>
<path d="M12170 2470 l0 -130 -370 0 -370 0 0 -25 0 -25 370 0 370 0 0 -110 0
-110 25 0 25 0 0 110 0 110 378 2 377 3 3 22 3 23 -378 2 -378 3 -3 128 -3
127 -24 0 -25 0 0 -130z"/>
<path d="M15048 2473 l-3 -128 -372 -3 -373 -2 0 -25 0 -25 375 0 375 0 0
-110 0 -110 25 0 25 0 0 110 0 110 375 0 375 0 0 25 0 25 -375 0 -375 0 0 130
0 130 -25 0 -24 0 -3 -127z"/>
<path d="M17920 2470 l0 -130 -370 0 -370 0 0 -25 0 -25 370 0 370 0 0 -110 0
-110 25 0 25 0 0 110 0 110 70 0 c68 0 70 1 70 25 0 23 -3 24 -67 27 l-68 3
-3 128 -3 127 -24 0 -25 0 0 -130z"/>
<path d="M2110 1515 l0 -125 -372 -2 -373 -3 -3 -22 -3 -23 373 -2 373 -3 3
-112 c3 -113 3 -113 27 -113 l25 0 0 115 0 115 375 0 375 0 0 25 0 25 -375 0
-375 0 0 125 0 125 -25 0 -25 0 0 -125z"/>
<path d="M4980 1515 l0 -125 -370 0 -370 0 0 -25 0 -25 370 0 370 0 0 -115 0
-115 25 0 c24 0 24 0 27 113 l3 112 378 3 378 2 -3 23 -3 22 -377 3 -378 2 0
125 0 125 -25 0 -25 0 0 -125z"/>
<path d="M7860 1515 l0 -125 -372 -2 -373 -3 -3 -22 -3 -23 373 -2 373 -3 3
-112 c3 -112 3 -113 27 -113 24 0 24 1 27 113 l3 112 373 3 372 2 0 25 0 25
-375 0 -375 0 0 125 0 125 -25 0 -25 0 0 -125z"/>
<path d="M10730 1515 l0 -125 -372 -2 -373 -3 -3 -22 -3 -23 373 -2 373 -3 3
-112 c3 -112 3 -113 27 -113 24 0 24 1 27 113 l3 112 378 3 378 2 -3 23 -3 22
-377 3 -378 2 0 125 0 125 -25 0 -25 0 0 -125z"/>
<path d="M13610 1515 l0 -125 -372 -2 -373 -3 -3 -22 -3 -23 373 -2 373 -3 3
-112 c3 -113 3 -113 27 -113 l25 0 0 115 0 115 375 0 375 0 0 25 0 25 -375 0
-375 0 0 125 0 125 -25 0 -25 0 0 -125z"/>
<path d="M16480 1515 l0 -125 -370 0 -370 0 0 -25 0 -25 370 0 370 0 0 -115 0
-115 25 0 c24 0 24 0 27 113 l3 112 378 3 378 2 -3 23 -3 22 -377 3 -378 2 0
125 0 125 -25 0 -25 0 0 -125z"/>
<path d="M677 683 c-4 -3 -7 -62 -7 -130 l0 -123 -335 0 -335 0 0 -25 0 -25
335 0 335 0 0 -110 0 -110 25 0 25 0 0 110 0 110 380 0 380 0 0 25 0 25 -380
0 -380 0 0 130 c0 119 -1 130 -18 130 -10 0 -22 -3 -25 -7z"/>
<path d="M3550 560 l0 -130 -375 0 -375 0 0 -25 0 -25 375 0 375 0 0 -110 0
-110 25 0 25 0 0 110 0 110 375 0 375 0 0 25 0 25 -375 0 -375 0 0 130 0 130
-25 0 -25 0 0 -130z"/>
<path d="M6427 683 c-4 -3 -7 -62 -7 -130 l0 -123 -370 0 -370 0 0 -25 0 -25
370 0 370 0 0 -110 0 -110 25 0 25 0 0 110 0 110 380 0 380 0 0 25 0 25 -380
0 -380 0 0 130 c0 119 -1 130 -18 130 -10 0 -22 -3 -25 -7z"/>
<path d="M9300 560 l0 -130 -375 0 -375 0 0 -25 0 -25 375 0 375 0 0 -110 0
-110 25 0 25 0 0 110 0 110 378 2 377 3 3 23 3 22 -380 0 -381 0 0 130 0 130
-25 0 -25 0 0 -130z"/>
<path d="M12170 560 l0 -130 -370 0 -370 0 0 -25 0 -25 370 0 370 0 0 -110 0
-110 25 0 25 0 0 110 0 110 380 0 380 0 0 25 0 25 -380 0 -380 0 0 130 0 130
-25 0 -25 0 0 -130z"/>
<path d="M15050 561 l0 -131 -375 0 -375 0 0 -25 0 -25 375 0 375 0 0 -110 0
-110 25 0 25 0 0 110 0 110 375 0 375 0 0 25 0 25 -375 0 -374 0 -3 128 c-3
123 -4 127 -25 130 -23 3 -23 3 -23 -127z"/>
<path d="M17927 683 c-4 -3 -7 -62 -7 -130 l0 -123 -370 0 -370 0 0 -25 0 -25
370 0 370 0 0 -110 0 -110 25 0 25 0 0 110 0 110 70 0 c68 0 70 1 70 25 0 24
-2 25 -70 25 l-70 0 0 130 c0 119 -1 130 -18 130 -10 0 -22 -3 -25 -7z"/>
</g>
</svg>
