<?xml version="1.0" standalone="no"?>
<!DOCTYPE svg PUBLIC "-//W3C//DTD SVG 20010904//EN"
 "http://www.w3.org/TR/2001/REC-SVG-20010904/DTD/svg10.dtd">
<svg version="1.0" xmlns="http://www.w3.org/2000/svg"
 width="1811.000000pt" height="1217.000000pt" viewBox="0 0 1811.000000 1217.000000"
 preserveAspectRatio="xMidYMid meet">
<metadata>
Created by potrace 1.13, written by Peter Selinger 2001-2015
</metadata>
<g transform="translate(0.000000,1217.000000) scale(0.100000,-0.100000)"
fill="#000000" stroke="none">
<path d="M14030 11805 c-30 -129 -59 -235 -65 -235 -5 0 -35 7 -65 15 -30 8
-55 13 -56 12 -1 -1 -5 -12 -8 -24 -7 -23 -5 -24 97 -49 15 -3 27 -9 27 -13 0
-3 -22 -96 -48 -206 -39 -163 -46 -202 -35 -208 8 -5 19 -7 25 -5 6 2 32 93
58 201 26 109 50 200 52 203 3 3 32 -2 64 -10 32 -8 59 -14 60 -13 1 1 5 12 8
24 7 23 5 24 -97 49 -19 4 -26 11 -23 23 12 37 106 444 106 457 0 8 -10 14
-23 14 -21 0 -25 -14 -77 -235z"/>
<path d="M7080 11663 c-63 -107 -119 -202 -126 -211 -11 -15 -17 -13 -64 16
-28 18 -55 32 -60 32 -7 0 -20 -23 -20 -36 0 -2 25 -20 55 -39 l54 -35 -58
-97 c-31 -54 -80 -137 -109 -185 -50 -85 -51 -88 -31 -99 12 -6 24 -7 28 -2 4
4 49 80 101 168 51 88 99 166 105 173 10 11 21 8 61 -17 56 -36 60 -37 74 -12
8 16 4 23 -33 45 -23 14 -48 29 -56 35 -11 7 8 44 86 177 55 93 112 190 126
215 l27 46 -23 10 c-21 10 -28 1 -137 -184z"/>
<path d="M4956 11765 c-18 -14 -18 -15 10 -49 16 -19 91 -102 166 -185 l138
-149 -53 -46 c-49 -43 -51 -46 -35 -62 16 -17 20 -15 69 26 l52 44 96 -105
c204 -221 194 -213 213 -192 15 17 8 27 -127 173 l-144 155 50 45 c49 44 50
46 32 62 -18 16 -21 15 -63 -22 -25 -22 -48 -39 -51 -40 -5 0 -109 111 -305
327 -26 29 -31 31 -48 18z"/>
<path d="M795 11670 c-4 -12 -5 -23 -3 -25 1 -1 101 -47 221 -100 119 -54 217
-102 217 -107 0 -5 -11 -31 -25 -58 -30 -59 -30 -57 -5 -70 17 -9 23 -4 50 50
17 33 33 60 35 60 3 0 91 -38 196 -86 105 -47 192 -84 194 -82 1 2 5 12 9 24
5 18 -13 28 -181 103 -104 46 -190 85 -192 87 -2 2 7 31 21 63 l26 59 -22 10
c-19 9 -24 4 -51 -49 l-30 -58 -210 94 c-255 116 -242 111 -250 85z"/>
<path d="M15177 11683 c-26 -26 0 -43 213 -138 121 -54 220 -99 220 -100 0 -2
-12 -29 -26 -60 -26 -55 -26 -59 -9 -71 24 -18 29 -13 56 51 12 30 26 55 30
55 3 0 91 -38 195 -85 172 -77 190 -83 202 -68 6 9 12 19 12 22 0 3 -55 30
-123 60 -67 30 -155 70 -195 88 l-72 33 27 56 c28 55 28 56 8 70 -18 14 -21
11 -48 -43 -16 -32 -30 -59 -32 -60 -1 -2 -102 42 -224 97 -122 55 -224 100
-225 100 -1 0 -6 -3 -9 -7z"/>
<path d="M4034 11501 l-169 -180 -48 47 c-44 44 -48 45 -64 29 -16 -16 -15
-20 30 -65 l47 -47 -123 -131 c-184 -197 -172 -181 -157 -199 7 -8 15 -15 19
-15 4 0 72 70 151 155 l144 155 48 -47 c45 -45 49 -46 65 -30 16 16 15 20 -29
64 l-46 48 38 43 c21 23 97 104 169 181 125 133 130 139 112 155 -18 16 -26 9
-187 -163z"/>
<path d="M8591 11453 c-22 -71 -54 -176 -72 -234 l-32 -106 -63 20 c-68 22
-70 22 -76 -7 -2 -15 9 -23 57 -39 33 -11 61 -21 63 -22 2 -2 -25 -94 -59
-204 -34 -111 -60 -203 -58 -205 2 -2 13 -6 24 -10 18 -5 23 4 43 72 13 42 41
134 63 204 l39 127 61 -21 c66 -22 64 -22 73 8 6 18 -1 23 -54 39 -33 10 -60
24 -60 30 0 7 31 113 69 236 68 221 70 238 34 239 -7 0 -30 -56 -52 -127z"/>
<path d="M2611 11547 c-4 -12 -36 -116 -71 -232 -35 -115 -65 -212 -66 -214
-2 -2 -31 6 -65 18 -34 11 -63 20 -64 18 -2 -1 -5 -12 -9 -24 -6 -19 0 -23 58
-43 l64 -21 -25 -82 c-14 -45 -42 -137 -63 -204 -36 -118 -37 -123 -18 -129
11 -3 24 -2 28 3 4 4 34 94 65 198 31 105 59 192 61 194 1 2 30 -6 63 -17 l60
-20 7 20 c8 26 0 32 -64 53 -36 11 -52 21 -48 30 12 32 136 444 136 453 0 5
-9 12 -21 15 -14 4 -22 -1 -28 -16z"/>
<path d="M16925 11343 c-37 -126 -71 -231 -75 -236 -3 -4 -33 2 -65 13 -46 16
-60 17 -67 8 -16 -26 -6 -37 48 -55 31 -9 58 -22 61 -28 2 -6 -23 -99 -56
-205 -33 -107 -57 -198 -55 -202 3 -4 14 -8 24 -8 19 0 27 21 115 313 14 48
30 87 34 87 4 0 33 -9 63 -19 l56 -19 6 21 c7 27 3 31 -61 52 -29 9 -53 19
-53 21 0 2 32 108 71 235 39 127 69 232 67 234 -2 1 -12 5 -24 9 -19 6 -25
-10 -89 -221z"/>
<path d="M12551 11406 c-10 -12 18 -48 154 -196 l166 -181 -51 -46 c-47 -42
-50 -47 -35 -62 17 -17 18 -17 82 36 l40 32 138 -152 c76 -84 144 -153 150
-155 7 -2 17 4 24 12 12 15 -8 39 -243 294 l-31 33 48 46 c38 36 46 48 36 59
-18 21 -32 17 -69 -21 -19 -19 -39 -35 -46 -35 -7 0 -84 78 -171 174 -87 96
-163 175 -169 175 -6 1 -17 -5 -23 -13z"/>
<path d="M11209 11218 c-90 -95 -164 -175 -166 -177 -2 -3 -26 17 -53 44 -47
47 -51 48 -67 32 -16 -16 -15 -20 32 -67 l49 -50 -50 -53 c-225 -235 -245
-259 -233 -273 6 -8 16 -14 21 -14 6 0 51 44 102 98 50 53 114 122 143 152
l52 55 46 -45 c42 -42 46 -43 62 -27 16 16 15 19 -27 61 -39 40 -42 47 -29 63
7 10 83 91 168 180 129 137 152 165 141 178 -7 8 -16 15 -20 15 -5 0 -81 -78
-171 -172z"/>
<path d="M9565 11209 c-4 -11 -5 -22 -3 -23 1 -1 98 -45 213 -96 116 -51 214
-97 220 -102 5 -5 -2 -30 -19 -65 -21 -44 -25 -58 -14 -64 25 -16 34 -9 61 46
15 30 30 55 34 55 5 0 91 -38 193 -84 164 -74 186 -82 198 -68 6 9 12 19 12
23 0 3 -33 21 -72 39 -40 17 -128 57 -195 87 l-122 55 29 59 c30 58 30 58 9
69 -25 14 -20 18 -55 -52 l-29 -56 -219 99 c-121 54 -223 99 -227 99 -4 0 -11
-9 -14 -21z"/>
<path d="M5328 10463 c-13 -3 -16 -12 -12 -31 2 -15 18 -108 34 -207 31 -189
30 -195 -16 -195 -41 0 -84 -13 -84 -24 1 -30 16 -36 75 -26 32 5 60 8 61 7 2
-2 21 -110 43 -241 22 -131 42 -240 45 -243 2 -3 14 -2 25 2 15 5 20 12 16 28
-6 26 -75 447 -75 457 0 4 29 11 65 15 61 6 65 8 65 32 0 25 0 25 -69 18 l-69
-7 -6 29 c-3 15 -17 98 -31 183 -32 195 -35 210 -43 209 -4 -1 -15 -3 -24 -6z"/>
<path d="M7104 10407 c-3 -8 31 -111 75 -229 45 -118 81 -219 81 -225 0 -6
-26 -20 -57 -30 -60 -20 -68 -29 -53 -53 7 -12 16 -12 63 3 29 9 58 17 64 17
6 0 43 -88 84 -195 40 -107 77 -195 83 -195 40 1 37 17 -33 205 -39 103 -71
194 -71 201 0 7 25 21 55 30 41 13 55 22 55 36 0 29 -22 31 -80 8 -29 -11 -54
-19 -55 -18 -1 2 -40 104 -86 228 -61 162 -89 226 -102 228 -9 2 -20 -3 -23
-11z"/>
<path d="M3996 10353 c-3 -32 -10 -128 -16 -213 -6 -85 -13 -170 -16 -189 l-5
-33 -65 7 c-40 4 -64 3 -64 -3 0 -6 -3 -17 -6 -25 -4 -12 9 -16 65 -22 39 -4
71 -10 71 -14 0 -3 -7 -87 -15 -186 -20 -244 -20 -235 10 -235 21 0 25 5 25
28 0 15 7 108 15 207 8 99 15 182 15 184 0 2 29 1 65 -3 64 -6 65 -6 65 17 0
20 -6 25 -37 31 -21 3 -50 6 -66 6 -26 0 -27 2 -22 38 2 20 9 107 15 192 6 85
13 181 16 213 6 56 5 57 -19 57 -23 0 -25 -4 -31 -57z"/>
<path d="M10122 10095 c-106 -74 -198 -135 -203 -135 -5 0 -24 23 -41 50 -34
54 -36 56 -61 38 -16 -12 -14 -17 19 -66 25 -37 32 -57 25 -65 -5 -7 -82 -61
-170 -122 -88 -60 -161 -115 -161 -121 0 -6 6 -16 13 -22 10 -9 54 17 186 109
96 66 175 119 176 117 1 -2 17 -26 36 -55 28 -42 38 -50 52 -42 23 14 22 24
-13 74 -16 24 -30 47 -30 52 0 4 90 70 200 146 180 124 199 140 190 158 -6 10
-14 19 -18 19 -4 -1 -94 -61 -200 -135z"/>
<path d="M13844 10187 c-2 -7 32 -109 76 -226 44 -118 80 -219 80 -226 0 -8
-26 -22 -57 -33 -47 -15 -57 -23 -55 -38 6 -29 8 -29 76 -7 l62 20 75 -198
c40 -110 78 -199 84 -199 38 1 35 18 -35 206 -38 104 -70 194 -70 201 0 7 25
20 55 29 41 13 55 22 55 36 0 27 -20 31 -69 13 -24 -8 -49 -15 -56 -15 -7 0
-48 95 -96 225 -66 177 -88 225 -102 225 -10 0 -20 -6 -23 -13z"/>
<path d="M2510 9985 c-107 -74 -198 -135 -202 -135 -4 0 -23 22 -40 50 -34 51
-48 59 -66 37 -9 -10 -3 -26 23 -65 19 -28 35 -53 35 -56 0 -2 -73 -55 -162
-116 -198 -136 -191 -130 -173 -153 12 -17 25 -10 190 103 195 136 178 132
222 53 18 -34 28 -39 52 -24 12 8 9 18 -17 61 -18 28 -32 55 -32 59 0 4 90 70
199 146 181 124 199 139 188 156 -7 11 -14 19 -17 19 -3 0 -93 -61 -200 -135z"/>
<path d="M16885 9985 c-104 -74 -194 -134 -200 -134 -5 -1 -25 22 -43 49 -34
53 -43 58 -61 36 -10 -12 -5 -25 23 -68 20 -29 32 -55 28 -59 -4 -3 -80 -57
-169 -118 -89 -62 -165 -116 -167 -120 -3 -4 0 -16 7 -25 12 -16 29 -6 186
103 96 66 177 118 181 116 5 -3 21 -25 37 -50 29 -47 43 -54 61 -32 9 10 3 26
-24 66 -20 29 -34 54 -32 55 2 2 90 62 195 135 106 73 195 137 199 142 6 10
-13 40 -25 38 -3 0 -91 -61 -196 -134z"/>
<path d="M810 10035 l0 -65 -215 0 -215 0 0 -25 0 -25 210 0 210 0 0 -65 c0
-62 1 -65 25 -65 23 0 24 4 27 63 l3 62 248 -3 247 -4 0 25 0 25 -245 7 -245
7 0 64 c0 62 -1 64 -25 64 -24 0 -25 -2 -25 -65z"/>
<path d="M15185 10035 l-7 -65 -214 0 -215 0 3 -22 c3 -23 4 -23 216 -26 l212
-2 0 -65 c0 -63 1 -65 25 -65 24 0 25 2 25 66 l0 66 250 -7 250 -7 0 25 0 25
-251 7 -250 7 6 64 c7 63 7 64 -18 64 -23 0 -25 -4 -32 -65z"/>
<path d="M12515 9975 l-7 -65 -36 0 c-20 0 -113 7 -207 15 -93 8 -173 15 -177
15 -5 0 -8 -11 -8 -24 0 -27 1 -28 263 -47 l159 -12 -4 -66 c-3 -61 -1 -66 18
-69 18 -3 22 4 27 35 4 21 7 50 7 66 0 33 -12 32 220 13 283 -24 275 -24 278
1 2 17 -3 24 -20 27 -21 4 -426 36 -456 36 -10 0 -12 15 -6 70 7 70 7 70 -19
70 -23 0 -25 -4 -32 -65z"/>
<path d="M10752 9986 c-9 -21 -2 -27 160 -117 94 -52 177 -99 185 -105 13 -8
10 -18 -17 -64 -30 -50 -31 -55 -14 -67 22 -16 27 -13 60 45 15 26 28 49 30
51 2 2 98 -49 213 -113 116 -64 214 -116 219 -116 19 0 23 34 7 46 -9 7 -104
60 -211 119 -107 59 -194 111 -194 115 0 5 14 33 31 61 24 41 27 54 17 60 -25
16 -36 9 -67 -46 l-31 -56 -43 25 c-48 28 -281 157 -313 174 -18 10 -23 8 -32
-12z"/>
<path d="M8436 9728 c-3 -24 -7 -53 -8 -66 l-3 -24 -212 2 -213 1 0 -26 0 -25
199 0 c110 0 206 -3 215 -6 12 -5 16 -21 16 -71 0 -61 1 -64 23 -61 20 3 22 9
25 66 l3 62 249 0 250 0 0 25 0 25 -247 2 -248 3 2 68 c1 64 0 67 -22 67 -20
0 -25 -6 -29 -42z"/>
<path d="M6546 9149 c-109 -77 -200 -138 -201 -137 -1 2 -17 26 -35 53 -18 28
-34 52 -36 54 -1 1 -12 -3 -23 -11 -20 -14 -20 -15 14 -66 19 -28 35 -55 35
-59 0 -4 -73 -57 -161 -118 -88 -60 -165 -115 -170 -121 -10 -12 -2 -44 12
-44 4 0 82 52 173 115 91 63 170 115 176 115 6 0 24 -22 41 -50 26 -43 33 -48
50 -40 25 14 24 18 -11 74 -17 26 -28 51 -25 56 3 5 85 64 183 131 222 154
214 146 199 170 -6 10 -14 19 -17 18 -3 0 -94 -63 -204 -140z"/>
<path d="M8403 8864 c-106 -73 -197 -134 -202 -134 -5 0 -23 23 -41 50 -36 55
-34 54 -61 40 -18 -10 -17 -13 17 -65 27 -40 34 -58 26 -67 -6 -7 -83 -62
-171 -123 -88 -60 -161 -115 -161 -121 0 -6 6 -16 13 -22 10 -9 54 17 186 109
96 66 174 119 176 117 1 -2 16 -24 34 -50 18 -27 39 -48 47 -48 28 0 26 29 -5
74 -17 24 -31 48 -31 53 1 4 24 24 53 44 326 223 347 240 337 260 -6 10 -14
19 -18 18 -4 0 -94 -61 -199 -135z"/>
<path d="M4912 8888 c-7 -7 -12 -15 -12 -19 0 -4 68 -89 150 -189 83 -100 150
-186 150 -190 0 -5 -22 -26 -50 -48 -48 -38 -49 -40 -30 -57 18 -16 21 -16 63
19 24 20 49 36 55 36 6 0 70 -72 142 -160 115 -140 134 -159 149 -148 9 7 18
13 20 15 2 1 -58 76 -132 167 l-136 164 49 44 c46 39 49 45 35 62 -13 18 -16
17 -65 -24 -28 -23 -52 -41 -54 -39 -2 2 -72 87 -156 189 -84 102 -155 186
-159 188 -4 1 -12 -3 -19 -10z"/>
<path d="M12175 8886 c-14 -10 -17 -17 -9 -27 6 -8 77 -94 158 -192 l147 -179
-51 -40 c-54 -43 -58 -49 -35 -68 12 -10 24 -5 66 29 l51 41 136 -165 c116
-141 138 -163 154 -154 10 5 18 13 18 17 0 4 -58 78 -130 164 -71 87 -130 161
-130 166 0 6 20 25 45 43 50 38 50 38 32 63 -12 16 -17 14 -65 -25 -29 -23
-54 -40 -56 -38 -7 11 -290 356 -300 367 -10 10 -16 9 -31 -2z"/>
<path d="M2723 8653 c-41 -87 -88 -186 -104 -221 l-28 -63 -60 31 c-60 30 -60
30 -71 9 -14 -25 -18 -20 48 -53 28 -14 52 -31 52 -37 0 -6 -38 -92 -85 -191
-47 -99 -85 -184 -85 -188 0 -12 32 -22 41 -13 5 5 46 88 93 187 47 98 87 180
89 183 3 2 30 -9 61 -24 49 -24 58 -25 66 -13 16 25 12 29 -45 57 -30 15 -55
30 -55 34 0 4 45 103 100 221 55 117 98 218 96 225 -3 7 -13 13 -21 13 -11 0
-41 -51 -92 -157z"/>
<path d="M9955 8702 c-27 -59 -74 -158 -103 -219 l-54 -113 -58 30 c-59 30
-59 30 -70 9 -14 -25 -18 -20 48 -53 28 -14 52 -31 52 -37 0 -5 -38 -91 -85
-190 -47 -99 -85 -184 -85 -189 0 -12 32 -22 41 -13 4 4 45 87 90 183 45 96
85 179 89 183 4 5 33 -4 64 -20 49 -24 58 -25 66 -13 16 25 12 29 -45 57 -30
15 -55 31 -55 36 0 5 45 104 100 220 55 116 98 217 96 224 -3 7 -13 13 -23 13
-13 0 -32 -31 -68 -108z"/>
<path d="M17071 8590 l-103 -219 -61 30 c-47 24 -62 28 -68 17 -16 -25 -9 -36
46 -64 30 -16 55 -32 55 -36 0 -3 -36 -81 -79 -172 -94 -196 -98 -206 -80
-217 24 -15 29 -10 58 54 16 34 56 120 90 190 l60 128 50 -26 c61 -30 67 -31
81 -5 9 17 4 23 -49 49 l-59 30 105 222 c104 221 109 238 67 239 -5 0 -57 -99
-113 -220z"/>
<path d="M1587 8664 c-108 -74 -201 -133 -206 -130 -5 4 -22 26 -38 51 -29 47
-43 54 -61 32 -9 -10 -3 -26 24 -66 20 -29 32 -57 27 -61 -4 -4 -69 -49 -143
-100 -214 -147 -204 -139 -185 -160 16 -17 24 -13 182 97 90 63 170 116 176
119 7 2 27 -19 45 -46 34 -53 43 -58 62 -35 9 11 6 23 -19 59 -17 24 -31 49
-31 55 0 5 90 71 199 147 179 123 198 139 188 156 -7 10 -14 18 -18 18 -3 0
-94 -61 -202 -136z"/>
<path d="M15963 8664 c-106 -73 -196 -134 -200 -134 -5 0 -21 20 -36 45 -33
52 -40 57 -61 49 -23 -9 -20 -18 19 -77 19 -28 31 -54 27 -58 -4 -3 -81 -57
-172 -119 -91 -62 -167 -114 -169 -116 -1 -1 3 -12 11 -23 14 -20 20 -17 188
99 95 66 176 117 180 115 5 -3 21 -25 37 -50 29 -47 43 -54 61 -32 9 10 3 26
-24 66 -20 29 -34 54 -32 55 2 2 86 61 188 131 222 153 217 149 200 169 -7 9
-15 16 -19 15 -3 0 -93 -61 -198 -135z"/>
<path d="M13793 8722 c-3 -9 -8 -20 -9 -23 -2 -4 99 -49 225 -100 l229 -93
-24 -54 c-29 -66 -29 -69 -5 -82 18 -9 23 -4 47 50 15 33 31 60 36 60 5 0 94
-35 198 -77 105 -42 192 -75 194 -72 2 2 6 13 8 23 2 17 -25 31 -184 96 -104
42 -191 79 -194 83 -4 3 4 31 17 62 20 48 21 58 9 65 -25 16 -30 12 -56 -49
l-26 -59 -230 93 c-197 81 -230 91 -235 77z"/>
<path d="M3920 8635 l0 -65 -215 0 -215 0 0 -25 0 -25 210 0 210 0 0 -70 c0
-68 1 -70 25 -70 23 0 24 4 27 63 l3 62 248 3 247 2 0 25 0 25 -245 0 -245 0
0 70 c0 68 -1 70 -25 70 -24 0 -25 -2 -25 -65z"/>
<path d="M11090 8635 l0 -65 -215 0 -215 0 0 -25 0 -25 210 0 210 0 0 -70 c0
-68 1 -70 25 -70 24 0 25 2 25 65 l0 65 250 0 250 0 0 25 0 25 -245 0 -245 0
0 70 c0 68 -1 70 -25 70 -24 0 -25 -2 -25 -65z"/>
<path d="M2 8475 c3 -26 14 -32 151 -88 122 -49 150 -58 158 -46 5 8 9 19 9
24 0 8 -147 71 -303 131 -16 6 -18 2 -15 -21z"/>
<path d="M6527 8170 c-3 -11 -2 -22 1 -24 4 -2 104 -43 222 -91 118 -48 217
-89 219 -91 3 -2 -5 -28 -17 -57 -12 -29 -22 -57 -22 -64 0 -9 21 -23 35 -23
2 0 16 27 31 60 23 51 30 59 47 54 11 -3 101 -39 199 -79 175 -72 179 -73 188
-52 7 20 2 25 -49 48 -31 14 -118 50 -193 80 -78 31 -138 60 -138 67 0 7 6 25
14 40 27 53 28 70 7 82 -19 10 -23 5 -46 -47 -14 -31 -27 -58 -29 -60 -1 -2
-102 37 -224 87 -122 49 -226 90 -231 90 -5 0 -11 -9 -14 -20z"/>
<path d="M13896 7614 c-3 -9 -6 -40 -6 -70 l0 -54 -216 0 -215 0 3 -22 c3 -23
4 -23 216 -26 l214 -2 -4 -66 c-3 -64 -3 -65 22 -62 23 3 25 7 28 67 l3 64
244 -5 c240 -5 243 -5 249 15 3 12 3 23 1 25 -2 3 -115 7 -250 10 l-247 5 4
63 c2 46 -1 65 -10 69 -22 8 -30 6 -36 -11z"/>
<path d="M1278 7583 c-10 -3 -18 -10 -18 -16 1 -7 38 -111 84 -232 94 -248 94
-227 -1 -256 -47 -13 -49 -17 -30 -43 12 -17 15 -16 65 3 29 12 57 21 61 21 5
0 41 -87 81 -192 39 -106 75 -196 79 -201 4 -4 15 -1 25 6 16 12 13 25 -53
202 -40 104 -70 194 -67 200 2 6 29 19 60 28 31 10 55 21 53 25 -2 4 -7 15
-10 24 -6 16 -10 16 -67 -4 -34 -11 -63 -19 -64 -17 -2 2 -40 103 -85 224 -46
121 -86 223 -89 226 -4 3 -15 4 -24 2z"/>
<path d="M8348 7583 c-10 -3 -18 -10 -18 -17 0 -8 36 -109 80 -227 44 -117 79
-218 77 -224 -3 -5 -30 -19 -61 -29 -49 -17 -55 -22 -50 -40 4 -12 7 -22 9
-24 1 -1 28 7 60 18 32 11 61 20 64 20 4 0 40 -89 80 -199 64 -170 77 -198 93
-193 34 8 40 -16 -95 344 l-25 66 59 22 c60 23 64 26 53 53 -5 13 -13 13 -61
-4 -31 -10 -59 -19 -63 -19 -4 0 -45 100 -90 223 -46 122 -86 225 -89 228 -3
3 -14 4 -23 2z"/>
<path d="M15653 7583 c-7 -2 -13 -10 -13 -18 0 -7 36 -108 80 -226 44 -117 79
-218 77 -224 -3 -5 -30 -19 -61 -29 -49 -17 -55 -22 -50 -40 4 -12 7 -22 9
-24 1 -1 28 7 60 18 32 11 61 20 64 20 4 0 40 -90 81 -199 68 -184 75 -198 94
-191 26 9 25 13 -25 147 -23 59 -54 142 -69 185 l-29 76 60 22 c57 22 67 32
51 57 -6 9 -22 7 -65 -9 -32 -11 -60 -18 -63 -15 -3 3 -43 106 -89 228 -45
123 -86 224 -91 225 -5 1 -15 0 -21 -3z"/>
<path d="M5500 7320 c-57 -121 -105 -220 -107 -220 -2 0 -30 13 -62 29 l-58
30 -11 -23 c-10 -22 -6 -25 49 -51 32 -16 59 -32 59 -36 0 -3 -40 -91 -90
-195 -89 -186 -93 -203 -52 -204 7 0 21 19 31 43 11 23 51 109 90 190 l70 148
59 -30 59 -30 11 23 c10 22 6 25 -49 51 -32 16 -59 29 -59 30 0 1 47 102 106
225 104 222 109 239 68 240 -6 0 -57 -99 -114 -220z"/>
<path d="M12740 7473 c-18 -38 -64 -135 -102 -218 -39 -82 -72 -151 -73 -153
-2 -2 -30 10 -63 27 l-59 30 -11 -23 c-10 -22 -6 -25 49 -51 32 -16 59 -30 59
-32 0 -1 -41 -89 -90 -195 -89 -189 -94 -207 -54 -208 6 0 51 84 99 188 48
103 89 188 90 190 2 2 28 -10 59 -25 49 -24 58 -25 66 -13 16 24 12 28 -42 56
-29 15 -54 28 -56 29 -2 2 44 103 102 226 105 220 110 238 69 239 -6 0 -26
-30 -43 -67z"/>
<path d="M3702 7248 c-7 -7 -12 -17 -11 -22 0 -6 70 -74 155 -150 l155 -139
-46 -47 c-43 -43 -44 -47 -28 -63 16 -16 20 -14 65 30 l47 46 158 -144 c224
-203 200 -186 220 -166 16 16 16 18 -2 35 -11 10 -93 85 -183 167 l-163 148
48 49 c45 45 46 49 30 65 -16 16 -20 15 -67 -32 l-50 -49 -37 35 c-80 75 -273
249 -276 249 -2 0 -8 -5 -15 -12z"/>
<path d="M10867 7242 c-15 -16 -7 -26 138 -157 85 -77 155 -141 155 -144 0 -3
-18 -26 -40 -52 -38 -45 -38 -47 -21 -63 18 -16 21 -14 59 29 22 25 42 45 46
45 3 0 85 -72 181 -160 96 -88 179 -160 184 -160 10 0 36 29 30 34 -11 8 -261
236 -307 279 l-54 50 48 48 c46 47 47 49 29 63 -18 14 -24 11 -67 -32 l-48
-46 -27 25 c-327 295 -286 263 -306 241z"/>
<path d="M2576 6988 c-3 -34 -8 -64 -11 -66 -5 -5 -307 14 -382 25 -41 5 -43
4 -43 -20 0 -30 4 -30 253 -48 l169 -12 -4 -66 c-3 -61 -1 -66 18 -69 23 -3
34 27 34 94 0 27 4 34 19 34 25 0 384 -28 439 -35 39 -4 42 -3 42 20 0 19 -6
25 -32 29 -29 5 -417 36 -447 36 -8 0 -9 20 -5 70 7 70 7 70 -18 70 -23 0 -26
-4 -32 -62z"/>
<path d="M9786 6988 c-3 -34 -8 -64 -11 -66 -5 -5 -307 14 -382 25 -41 5 -43
4 -43 -20 0 -30 3 -30 253 -48 l169 -13 -4 -65 c-3 -61 -1 -66 18 -69 18 -3
22 4 27 35 4 21 7 50 7 66 0 20 5 27 19 27 25 0 384 -28 439 -35 39 -4 42 -3
42 20 0 19 -6 25 -32 29 -30 5 -417 36 -447 36 -9 0 -10 18 -5 70 7 70 6 70
-18 70 -23 0 -26 -4 -32 -62z"/>
<path d="M16955 6985 l-7 -65 -42 0 c-38 0 -186 11 -328 25 -56 6 -58 5 -58
-18 0 -29 4 -30 253 -48 l169 -13 -7 -68 c-7 -68 -7 -68 18 -68 23 0 25 4 32
65 8 77 -27 71 275 46 118 -10 218 -16 223 -14 4 2 7 13 7 23 0 23 -12 25
-215 40 -82 6 -179 13 -214 17 l-63 6 6 68 c7 69 7 69 -18 69 -23 0 -25 -4
-31 -65z"/>
<path d="M6857 7003 c-4 -3 -7 -33 -7 -65 l0 -58 -215 0 -215 0 0 -25 0 -25
216 0 216 0 -4 -65 c-4 -66 -4 -66 21 -63 24 3 26 7 29 66 l3 63 244 -7 245
-7 0 26 0 27 -108 0 c-60 0 -171 3 -246 7 l-138 6 4 64 c3 58 1 63 -18 63 -11
0 -24 -3 -27 -7z"/>
<path d="M495 6736 l-160 -183 -51 43 c-50 42 -52 43 -68 25 -16 -18 -14 -21
33 -63 l51 -44 -140 -159 c-77 -88 -140 -163 -140 -167 0 -4 8 -12 18 -17 16
-8 39 13 158 149 l139 159 30 -27 c73 -66 72 -66 85 -42 11 20 7 26 -36 64
l-47 42 155 176 c86 96 159 181 163 187 6 11 -11 41 -24 41 -3 0 -78 -83 -166
-184z"/>
<path d="M14875 6740 c-87 -99 -162 -180 -168 -180 -6 0 -31 19 -54 42 -41 40
-44 41 -60 25 -16 -16 -14 -20 32 -67 l49 -50 -25 -27 c-181 -199 -252 -287
-242 -301 5 -9 14 -17 19 -18 5 -2 72 69 148 157 l139 160 47 -46 c43 -43 47
-44 63 -28 16 16 14 20 -29 64 l-47 48 159 180 c87 100 160 185 162 190 2 5
-5 14 -16 20 -17 9 -38 -11 -177 -169z"/>
<path d="M2396 6037 c-16 -12 -10 -29 88 -232 l106 -220 -56 -27 c-69 -33 -68
-32 -54 -57 l11 -21 49 25 c27 14 55 25 63 25 8 0 51 -79 102 -186 49 -102 92
-187 95 -189 4 -3 15 1 24 8 16 12 10 28 -73 201 -50 104 -91 191 -91 193 0 2
27 15 59 29 56 24 59 28 49 49 l-10 23 -59 -26 c-33 -14 -61 -23 -64 -21 -2 3
-51 103 -109 222 -58 119 -107 217 -109 217 -2 0 -11 -6 -21 -13z"/>
<path d="M9606 6037 c-16 -12 -10 -29 88 -232 l105 -220 -57 -27 c-31 -16 -57
-32 -56 -38 3 -26 5 -30 19 -30 9 0 33 9 55 20 22 11 45 20 53 20 7 0 52 -80
102 -185 49 -103 92 -188 95 -190 4 -2 15 1 24 8 16 12 9 29 -73 201 -50 104
-91 190 -91 192 0 3 25 15 55 29 55 24 60 30 49 58 -4 13 -15 11 -65 -11 -32
-14 -61 -23 -64 -20 -3 2 -52 102 -110 221 -57 119 -106 217 -108 217 -2 0
-11 -6 -21 -13z"/>
<path d="M16775 6036 c-18 -13 -15 -23 87 -232 l106 -219 -59 -28 c-57 -26
-67 -39 -51 -64 5 -8 25 -3 70 18 l63 28 19 -42 c10 -23 51 -110 92 -194 70
-146 74 -151 95 -140 22 12 21 14 -67 197 -49 102 -90 189 -90 193 0 4 25 19
55 32 57 26 61 30 45 55 -7 12 -17 11 -65 -9 -32 -13 -60 -20 -65 -15 -4 5
-52 101 -106 214 -53 113 -100 208 -104 213 -3 4 -15 1 -25 -7z"/>
<path d="M13480 6015 c-8 -10 -9 -19 -3 -27 6 -7 74 -90 152 -184 77 -95 141
-176 141 -181 0 -5 -23 -26 -51 -47 -48 -36 -50 -38 -34 -56 17 -18 19 -18 71
22 30 22 56 39 58 37 2 -2 60 -74 131 -159 70 -85 133 -156 140 -158 6 -2 17
3 23 11 9 11 -17 48 -124 178 l-136 164 33 25 c74 57 71 53 56 74 -14 19 -16
18 -65 -17 -27 -20 -52 -37 -55 -37 -3 0 -74 83 -158 185 -84 102 -155 185
-159 185 -4 0 -13 -7 -20 -15z"/>
<path d="M5306 5925 c-18 -14 -11 -25 129 -212 l148 -197 -28 -21 c-16 -11
-40 -30 -54 -42 -24 -20 -25 -23 -10 -38 15 -16 20 -14 66 19 28 20 53 36 56
36 2 0 62 -77 132 -170 122 -164 128 -170 146 -154 18 17 18 18 -4 48 -13 17
-70 94 -128 170 l-104 139 29 21 c69 50 77 60 62 79 -13 17 -17 16 -64 -17
-27 -20 -52 -36 -55 -36 -4 0 -68 82 -143 183 -168 224 -154 209 -178 192z"/>
<path d="M6682 5908 c-7 -7 -12 -16 -12 -20 0 -5 68 -90 150 -190 83 -100 150
-186 150 -190 0 -4 -22 -24 -49 -44 -43 -32 -48 -39 -38 -55 7 -11 15 -19 19
-19 3 0 29 18 56 39 l50 40 137 -165 c130 -158 138 -165 155 -149 18 16 13 24
-117 181 -74 91 -134 166 -132 167 2 2 26 20 52 41 46 36 47 39 31 57 -16 18
-18 17 -58 -15 -22 -18 -46 -36 -52 -39 -6 -3 -79 78 -165 183 -85 104 -156
189 -159 190 -4 0 -11 -5 -18 -12z"/>
<path d="M1186 5480 c-86 -99 -161 -180 -165 -180 -4 0 -25 18 -46 40 -42 43
-54 47 -73 28 -10 -10 -1 -23 37 -63 l50 -50 -140 -158 c-113 -128 -138 -162
-128 -173 6 -8 17 -14 23 -13 6 0 54 50 106 110 52 60 114 130 137 157 l41 47
46 -45 c44 -42 47 -43 63 -27 17 16 15 20 -29 64 l-46 46 145 166 c81 91 153
174 161 183 12 14 12 20 2 33 -7 8 -15 15 -19 15 -4 0 -78 -81 -165 -180z"/>
<path d="M8396 5480 c-87 -99 -161 -180 -165 -180 -4 0 -25 18 -46 40 -42 43
-54 47 -73 28 -10 -10 -1 -23 37 -63 l50 -50 -140 -158 c-113 -129 -138 -161
-128 -173 6 -8 17 -14 23 -13 6 0 51 46 99 102 48 56 110 127 137 157 l49 55
45 -45 c43 -42 47 -43 63 -27 16 16 15 20 -29 64 l-46 48 115 130 c205 231
207 233 193 250 -7 8 -16 15 -19 15 -4 0 -79 -81 -165 -180z"/>
<path d="M15580 5498 c-79 -90 -151 -172 -161 -182 -18 -19 -19 -19 -63 22
-51 47 -58 49 -77 26 -11 -13 -6 -21 34 -56 26 -22 47 -44 47 -49 0 -6 -61
-80 -136 -165 -114 -129 -134 -157 -124 -169 7 -8 16 -15 20 -15 5 0 70 70
145 155 151 171 135 163 203 101 31 -29 33 -29 50 -13 16 17 15 20 -31 63
l-47 46 22 26 c13 15 85 98 162 185 115 131 136 160 126 172 -7 8 -16 15 -20
15 -4 0 -72 -73 -150 -162z"/>
<path d="M12556 5612 c-2 -4 -9 -33 -16 -64 -7 -32 -16 -58 -19 -58 -3 0 -111
21 -239 47 -197 39 -235 44 -243 32 -5 -8 -7 -18 -6 -24 2 -5 108 -30 235 -56
128 -25 235 -49 239 -53 3 -3 1 -31 -6 -61 -13 -59 -10 -75 18 -75 15 0 21 13
31 65 7 36 13 65 14 65 1 0 92 -18 201 -40 109 -22 205 -40 212 -40 7 0 13 10
13 23 0 21 -10 25 -202 63 -228 45 -212 34 -194 130 6 37 5 42 -13 47 -12 3
-23 2 -25 -1z"/>
<path d="M10607 5409 c-6 -24 -8 -23 270 -135 95 -38 173 -73 173 -79 0 -5
-10 -34 -22 -63 -19 -46 -20 -55 -8 -62 25 -16 29 -12 55 47 14 31 27 59 29
60 2 2 92 -32 200 -76 172 -70 198 -78 203 -63 3 9 8 20 9 23 2 4 -83 41 -189
84 -105 43 -194 80 -196 82 -3 2 6 29 19 60 22 54 23 56 5 70 -22 15 -25 12
-50 -47 -10 -25 -22 -49 -25 -53 -4 -5 -108 33 -230 82 -123 50 -226 91 -230
91 -4 0 -10 -9 -13 -21z"/>
<path d="M3430 5230 c-9 -17 -7 -22 15 -30 42 -16 430 -173 433 -176 2 -1 -5
-19 -16 -41 -33 -65 -35 -81 -13 -93 19 -10 23 -5 46 47 14 31 28 59 30 61 3
3 93 -30 200 -74 164 -66 198 -76 205 -64 5 8 8 19 7 25 -2 5 -87 43 -190 85
-102 41 -189 78 -192 82 -4 4 4 32 18 62 26 56 26 56 6 67 -25 13 -28 11 -55
-54 -14 -32 -28 -51 -37 -49 -8 1 -108 40 -222 87 -114 47 -211 85 -216 85 -5
0 -13 -9 -19 -20z"/>
<path d="M17806 5233 c-4 -9 -3 -20 1 -23 10 -9 283 -120 294 -120 5 0 9 11 9
24 0 21 -15 30 -139 80 -76 31 -143 56 -148 56 -6 0 -14 -8 -17 -17z"/>
<path d="M5290 4675 c-10 -13 2 -31 76 -112 49 -54 124 -135 167 -182 l77 -85
-50 -44 c-48 -42 -50 -45 -34 -63 16 -18 18 -17 68 26 l51 45 30 -34 c111
-128 251 -276 261 -276 6 0 16 6 22 13 9 10 -21 48 -128 167 -77 84 -140 156
-140 160 0 4 20 26 44 48 33 30 41 44 34 56 -14 24 -27 20 -75 -25 -44 -40
-46 -41 -62 -23 -10 11 -84 92 -166 182 -81 89 -151 162 -155 162 -4 0 -13 -7
-20 -15z"/>
<path d="M7080 4439 c-69 -115 -128 -209 -132 -209 -4 0 -30 14 -56 30 -58 35
-58 36 -72 11 -9 -17 -3 -24 45 -53 30 -18 55 -36 55 -41 0 -4 -47 -87 -104
-185 -79 -132 -102 -179 -94 -189 6 -7 16 -13 22 -13 6 0 56 77 111 171 55 94
103 175 107 181 4 7 24 0 57 -21 59 -35 67 -37 75 -15 9 23 10 22 -44 55 -27
17 -50 34 -50 38 0 4 54 98 120 210 66 112 120 207 120 212 0 4 -8 13 -18 18
-16 9 -33 -15 -142 -200z"/>
<path d="M14248 4440 c-68 -115 -127 -210 -133 -210 -5 0 -30 14 -55 30 -53
35 -56 36 -70 11 -9 -17 -3 -24 45 -53 30 -18 55 -36 55 -39 0 -4 -47 -87
-105 -185 -93 -155 -104 -179 -91 -192 8 -8 19 -12 24 -8 6 3 53 79 106 169
53 89 100 168 105 176 8 12 18 8 60 -18 42 -27 54 -31 66 -21 23 19 19 25 -35
60 -27 18 -50 36 -50 42 0 5 52 96 115 203 63 107 118 200 120 207 3 7 -3 18
-14 25 -18 11 -29 -3 -143 -197z"/>
<path d="M12562 4478 c-7 -7 -12 -16 -12 -21 0 -5 73 -88 162 -184 l162 -176
-47 -43 c-50 -45 -55 -55 -33 -73 10 -9 23 -2 59 29 25 22 49 40 54 40 5 0 72
-69 149 -154 136 -151 139 -154 158 -136 20 20 13 29 -233 293 l-35 37 49 44
c48 42 49 45 33 62 -17 17 -19 17 -45 -7 -77 -68 -51 -81 -234 118 -90 98
-166 179 -169 181 -3 1 -11 -3 -18 -10z"/>
<path d="M1427 4363 c-3 -5 -35 -107 -72 -228 -37 -121 -69 -223 -71 -227 -2
-4 -31 3 -65 14 -65 22 -65 22 -71 -6 -2 -14 10 -23 57 -40 46 -17 59 -26 57
-39 -2 -10 -28 -98 -58 -195 -29 -97 -54 -182 -54 -188 0 -15 31 -27 40 -17 4
4 33 94 65 198 32 105 59 193 61 197 3 4 30 -2 60 -12 60 -21 74 -19 74 9 0
12 -16 22 -55 35 -30 9 -56 20 -58 24 -2 4 28 111 68 239 58 186 69 233 58
238 -20 7 -31 6 -36 -2z"/>
<path d="M8637 4363 c-3 -5 -35 -107 -72 -228 -37 -121 -69 -223 -71 -227 -2
-4 -31 3 -65 14 -33 11 -62 19 -64 17 -2 -2 -5 -13 -7 -24 -2 -16 8 -23 55
-40 32 -12 59 -25 59 -31 0 -5 -26 -96 -58 -202 -49 -163 -56 -195 -44 -202 8
-6 19 -8 24 -7 5 2 36 91 69 198 32 107 61 196 63 198 2 3 29 -3 59 -13 58
-18 75 -15 75 12 0 12 -18 24 -57 38 -32 11 -57 24 -57 29 1 6 32 109 68 229
37 120 65 225 62 232 -6 15 -32 19 -39 7z"/>
<path d="M15735 4143 c-37 -126 -70 -231 -72 -235 -2 -4 -31 3 -64 14 -51 17
-63 18 -70 7 -17 -27 -8 -36 51 -54 33 -10 60 -24 60 -30 0 -7 -27 -100 -59
-206 -33 -107 -59 -194 -58 -195 1 -1 12 -5 24 -8 20 -7 24 0 53 96 18 57 45
147 62 201 17 55 35 97 42 97 7 0 34 -7 60 -16 41 -14 50 -14 57 -3 17 27 8
36 -51 54 -33 10 -60 20 -60 22 0 2 32 107 70 234 39 126 68 234 65 239 -3 6
-14 10 -24 10 -14 0 -30 -44 -86 -227z"/>
<path d="M4039 4005 c-90 -96 -166 -175 -169 -175 -3 0 -26 20 -50 45 -41 42
-45 44 -62 28 -18 -16 -17 -19 28 -64 l47 -48 -50 -58 c-28 -32 -61 -67 -73
-78 -12 -11 -54 -55 -93 -98 -66 -74 -69 -79 -53 -95 16 -16 20 -14 64 33 26
28 91 97 145 154 l98 104 42 -41 c46 -45 56 -49 75 -30 10 10 2 22 -34 59
l-47 48 59 64 c32 36 108 117 168 181 91 98 106 118 96 131 -7 8 -16 15 -20
15 -4 0 -81 -79 -171 -175z"/>
<path d="M11209 4008 c-89 -95 -165 -174 -169 -176 -3 -1 -25 18 -50 43 -41
42 -45 44 -62 28 -18 -16 -17 -19 29 -65 l47 -48 -45 -47 c-226 -238 -249
-265 -238 -279 6 -8 17 -14 23 -14 6 0 74 68 150 150 77 83 142 150 145 150 3
0 25 -19 48 -42 41 -40 44 -41 60 -25 16 16 15 19 -27 62 l-44 45 25 27 c13
15 89 96 168 180 121 129 141 155 131 168 -7 8 -16 15 -20 15 -5 0 -81 -78
-171 -172z"/>
<path d="M2367 4013 c-26 -25 1 -43 213 -138 121 -54 220 -99 220 -100 0 -2
-12 -29 -26 -60 -26 -55 -26 -59 -9 -71 24 -18 29 -13 56 51 12 30 26 55 31
55 4 0 92 -38 196 -85 169 -76 188 -83 200 -68 6 9 12 20 12 23 0 3 -55 30
-122 60 -68 30 -156 69 -195 87 l-73 34 29 58 30 58 -23 11 c-22 10 -25 6 -52
-49 -15 -33 -33 -58 -38 -55 -6 2 -106 47 -223 100 -231 105 -217 99 -226 89z"/>
<path d="M9570 4001 c-5 -11 -6 -22 -1 -25 4 -3 104 -48 222 -101 117 -53 215
-97 217 -99 2 -2 -8 -27 -22 -55 -31 -61 -32 -67 -6 -81 18 -10 23 -5 46 50
15 33 30 60 34 60 5 0 93 -38 197 -85 170 -77 189 -83 201 -68 6 9 12 19 12
22 0 3 -55 31 -123 61 -67 30 -155 69 -195 87 l-72 34 25 49 c30 60 31 66 5
80 -18 10 -23 5 -47 -50 -14 -34 -31 -59 -37 -56 -6 2 -107 47 -223 100 -117
53 -215 96 -218 96 -2 0 -9 -9 -15 -19z"/>
<path d="M16740 4000 c-13 -23 -24 -17 240 -135 107 -48 196 -88 198 -90 2 -2
-10 -30 -27 -63 l-30 -59 23 -11 c22 -10 25 -6 51 49 16 32 32 59 35 59 4 0
92 -38 195 -85 187 -84 204 -88 205 -49 0 7 -82 49 -182 94 -101 45 -187 85
-191 90 -5 4 3 30 17 58 31 61 31 59 6 72 -17 9 -23 4 -50 -49 l-30 -60 -221
100 c-122 54 -223 99 -225 99 -2 0 -8 -9 -14 -20z"/>
<path d="M1136 3074 c-3 -9 -6 -38 -6 -65 l0 -49 -215 0 -215 0 0 -25 0 -25
215 0 215 0 0 -71 c0 -67 1 -70 23 -67 20 3 22 9 25 68 l3 65 247 0 247 0 3
23 3 22 -213 0 c-117 0 -230 3 -252 7 l-38 6 4 63 c4 60 3 64 -18 64 -12 0
-25 -7 -28 -16z"/>
<path d="M8340 3056 c0 -18 -3 -48 -6 -65 l-6 -31 -214 0 -214 0 0 -25 0 -25
215 0 215 0 0 -71 c0 -67 1 -70 23 -67 20 3 23 10 27 67 l5 64 248 -2 247 -2
0 25 0 26 -212 0 c-117 0 -230 3 -250 6 l-37 6 6 64 6 64 -27 0 c-23 0 -26 -4
-26 -34z"/>
<path d="M15510 3025 l0 -65 -215 0 -215 0 0 -25 0 -25 213 -2 212 -3 0 -65
c0 -60 2 -65 23 -68 19 -3 22 1 22 30 0 18 3 49 6 68 l6 35 244 -3 244 -4 0
26 0 26 -214 0 c-117 0 -228 3 -245 6 -31 6 -31 7 -31 70 0 62 -1 64 -25 64
-24 0 -25 -2 -25 -65z"/>
<path d="M2912 2925 c-106 -74 -197 -135 -202 -135 -4 0 -22 23 -40 50 -36 55
-34 54 -61 40 -18 -10 -17 -13 17 -65 20 -29 33 -58 30 -63 -3 -5 -80 -60
-171 -123 -90 -63 -165 -119 -165 -125 0 -6 6 -16 13 -22 10 -8 55 19 186 109
95 66 174 119 175 117 2 -2 17 -25 35 -51 22 -32 38 -47 48 -43 8 3 17 6 19 6
11 0 1 26 -26 65 -16 24 -30 47 -30 52 0 4 90 70 200 146 180 124 199 140 190
158 -6 10 -14 19 -18 19 -4 -1 -94 -61 -200 -135z"/>
<path d="M10115 2925 c-104 -74 -195 -134 -202 -134 -6 -1 -25 22 -43 50 -22
36 -36 49 -46 45 -9 -3 -18 -6 -20 -6 -11 0 -1 -26 30 -74 l34 -53 -174 -119
c-95 -65 -174 -122 -174 -125 0 -3 6 -13 13 -22 11 -16 29 -6 186 103 96 66
175 120 177 120 1 0 16 -22 34 -50 33 -51 47 -59 67 -39 9 9 2 25 -24 65 -20
30 -34 56 -32 58 2 1 87 60 189 130 220 152 218 150 200 170 -7 9 -15 16 -19
15 -3 0 -91 -61 -196 -134z"/>
<path d="M17290 2925 c-107 -74 -198 -135 -202 -135 -4 0 -23 22 -40 50 -34
51 -48 59 -66 37 -9 -10 -3 -26 23 -65 19 -28 35 -53 35 -56 0 -2 -79 -59
-175 -126 -155 -107 -174 -124 -163 -138 7 -10 13 -19 15 -21 1 -1 81 52 178
119 97 67 177 121 179 119 1 -2 16 -25 32 -51 30 -49 38 -54 63 -39 11 7 8 19
-18 60 -17 28 -31 55 -31 59 0 5 90 71 199 147 181 124 199 139 188 156 -7 11
-14 19 -17 19 -3 0 -93 -61 -200 -135z"/>
<path d="M4100 2850 c-85 -98 -159 -179 -165 -179 -5 -1 -29 18 -52 41 -41 40
-44 41 -60 25 -16 -16 -15 -20 30 -65 l48 -48 -127 -145 c-70 -79 -133 -151
-140 -160 -12 -14 -12 -18 4 -32 18 -16 25 -10 143 124 68 77 132 151 141 162
l17 22 45 -44 c29 -28 50 -42 60 -38 26 10 19 30 -24 72 -22 21 -40 42 -40 46
0 4 72 89 160 189 146 167 159 184 143 196 -10 7 -20 13 -23 13 -3 0 -75 -80
-160 -179z"/>
<path d="M6666 3022 c-3 -5 33 -109 79 -233 47 -123 85 -227 85 -230 0 -3 -27
-14 -60 -24 -46 -14 -60 -23 -60 -37 0 -28 20 -30 83 -9 l58 20 8 -22 c107
-289 135 -363 141 -370 9 -11 40 3 40 18 0 6 -32 97 -70 200 -39 103 -69 189
-67 191 2 2 28 12 57 22 57 20 65 28 50 52 -8 13 -17 12 -69 -7 -54 -19 -60
-20 -66 -5 -4 10 -40 105 -80 212 -40 107 -76 203 -80 213 -7 17 -40 24 -49 9z"/>
<path d="M11274 2850 c-87 -99 -160 -180 -163 -180 -2 0 -27 19 -54 41 -46 39
-50 41 -65 24 -16 -16 -14 -19 31 -59 26 -23 47 -46 47 -50 0 -4 -61 -78 -136
-163 -129 -146 -151 -183 -110 -183 8 0 76 70 151 155 l137 155 49 -42 c47
-39 51 -41 67 -24 16 16 14 19 -33 60 l-49 43 89 103 c249 284 238 269 225
285 -7 8 -16 15 -20 15 -4 0 -79 -81 -166 -180z"/>
<path d="M13844 3017 c-2 -7 32 -109 76 -226 44 -118 80 -219 80 -226 0 -8
-26 -22 -57 -33 -47 -15 -57 -23 -55 -38 2 -10 6 -21 8 -24 4 -3 56 12 119 36
6 3 44 -86 85 -196 41 -110 79 -200 85 -200 40 1 38 17 -34 207 -39 104 -71
194 -71 200 0 6 23 19 51 28 51 17 70 38 51 57 -7 7 -25 6 -58 -6 -26 -9 -53
-16 -60 -16 -6 0 -49 101 -95 225 -66 177 -88 225 -102 225 -10 0 -20 -6 -23
-13z"/>
<path d="M5346 2848 c-3 -13 -6 -40 -6 -61 0 -24 -5 -40 -15 -43 -8 -3 -103 1
-212 10 -159 13 -198 14 -205 4 -13 -21 -9 -38 10 -38 9 0 94 -7 187 -15 94
-8 182 -15 197 -15 26 0 26 -1 25 -67 -2 -62 0 -68 18 -68 17 0 21 9 26 58 4
32 9 60 12 63 3 4 114 -2 246 -12 239 -19 240 -19 245 1 3 11 2 22 -2 26 -4 3
-83 11 -177 18 -93 7 -201 15 -239 18 l-68 6 4 69 c5 65 4 68 -17 68 -15 0
-25 -8 -29 -22z"/>
<path d="M12515 2805 c-8 -77 18 -71 -235 -50 -96 8 -181 15 -187 15 -7 0 -13
-11 -13 -24 0 -27 -5 -26 269 -47 l154 -12 -6 -63 c-6 -57 -4 -64 14 -69 11
-4 22 -5 25 -3 2 3 7 32 10 66 8 73 -15 69 239 47 94 -8 192 -15 218 -15 44 0
48 2 45 23 -3 21 -9 22 -208 39 -113 9 -222 17 -244 17 l-38 1 7 70 c7 70 7
70 -18 70 -23 0 -25 -4 -32 -65z"/>
<path d="M1385 1775 c-104 -74 -195 -134 -201 -135 -7 0 -27 23 -44 51 -22 33
-38 48 -47 45 -8 -4 -17 -6 -19 -6 -12 0 0 -31 30 -76 l35 -51 -174 -119 c-96
-65 -174 -124 -175 -130 0 -6 6 -17 14 -23 10 -9 46 12 162 92 82 57 161 111
175 120 l26 18 33 -51 c33 -51 47 -59 67 -39 9 9 2 25 -24 65 -20 30 -34 56
-32 57 2 2 91 63 197 137 106 73 195 137 198 142 6 9 -14 38 -25 37 -3 0 -91
-61 -196 -134z"/>
<path d="M15762 1775 c-106 -74 -198 -135 -203 -135 -5 0 -24 22 -41 50 -36
55 -37 55 -61 38 -16 -12 -14 -17 18 -66 20 -29 34 -56 31 -61 -3 -4 -80 -59
-171 -122 -90 -63 -165 -119 -165 -125 0 -6 6 -16 13 -22 10 -8 55 19 186 109
95 66 174 119 175 117 2 -2 18 -26 37 -55 30 -45 37 -49 52 -38 23 16 22 19
-13 70 -16 24 -30 47 -30 52 0 4 90 70 200 146 180 124 199 140 190 158 -6 10
-14 19 -18 19 -4 -1 -94 -61 -200 -135z"/>
<path d="M2450 1770 c0 -6 29 -113 65 -237 36 -125 62 -230 57 -234 -4 -4 -32
-14 -62 -22 -45 -11 -54 -17 -52 -33 6 -28 6 -28 74 -11 34 9 63 15 64 14 1
-1 28 -93 59 -205 32 -111 63 -202 69 -202 37 1 36 16 -20 209 -30 107 -53
199 -51 206 3 6 30 17 61 24 55 12 64 22 47 49 -7 11 -18 11 -67 -2 -37 -10
-61 -12 -64 -5 -4 5 -35 110 -70 234 -60 210 -65 225 -87 225 -13 0 -23 -5
-23 -10z"/>
<path d="M16830 1764 c0 -8 27 -108 59 -222 33 -114 61 -216 63 -226 2 -15 -8
-22 -56 -35 -61 -17 -72 -26 -57 -50 8 -12 18 -12 71 2 47 12 62 12 66 3 3 -7
29 -97 58 -201 30 -104 58 -191 64 -193 6 -2 18 0 25 5 12 7 8 31 -24 143 -22
74 -48 165 -58 202 l-19 68 61 18 c51 15 61 22 59 38 -5 27 -4 27 -68 10 -31
-8 -60 -13 -64 -11 -3 2 -35 108 -71 234 -59 213 -66 231 -86 231 -14 0 -23
-6 -23 -16z"/>
<path d="M5002 1718 c-7 -7 -12 -16 -12 -20 0 -5 68 -90 150 -190 83 -100 150
-185 150 -189 0 -4 -23 -24 -50 -44 -44 -32 -49 -39 -38 -54 7 -9 13 -18 15
-20 1 -2 27 15 57 37 l55 42 39 -48 c245 -298 233 -284 252 -267 18 16 13 24
-117 182 -75 90 -132 168 -127 172 5 4 28 22 52 40 41 32 42 34 26 52 -16 18
-18 18 -58 -13 -22 -17 -46 -35 -52 -40 -6 -4 -69 65 -165 182 -85 104 -156
189 -159 190 -4 0 -11 -5 -18 -12z"/>
<path d="M12175 1717 c-17 -13 -18 -17 -5 -33 8 -10 80 -97 158 -192 l144
-174 -23 -16 c-13 -9 -37 -29 -54 -44 -28 -25 -29 -28 -14 -43 16 -16 20 -14
69 24 l52 41 136 -164 c120 -146 137 -163 154 -153 10 7 18 14 18 17 0 4 -58
77 -130 163 -71 86 -130 161 -130 167 0 5 20 24 45 42 50 37 50 37 32 62 -12
16 -17 15 -65 -23 l-52 -41 -137 167 c-76 92 -147 177 -158 190 -18 22 -22 23
-40 10z"/>
<path d="M9956 1548 c-24 -51 -71 -151 -104 -221 l-61 -128 -60 31 c-60 30
-60 30 -71 9 -14 -25 -18 -20 50 -54 30 -15 56 -28 57 -30 2 -1 -38 -88 -88
-194 -91 -193 -96 -210 -54 -211 6 0 50 86 99 190 49 105 90 190 92 190 2 0
29 -12 59 -27 48 -24 57 -25 65 -13 16 25 12 29 -45 57 -30 15 -55 30 -55 33
0 4 47 105 104 226 102 214 107 233 68 234 -7 0 -33 -42 -56 -92z"/>
<path d="M8794 1499 c-104 -72 -194 -133 -200 -136 -6 -2 -26 19 -44 46 -33
52 -47 60 -67 40 -9 -9 -3 -25 23 -63 19 -28 34 -54 34 -57 0 -4 -76 -59 -170
-124 -93 -65 -170 -123 -170 -130 0 -42 30 -29 195 86 94 65 173 119 176 119
4 0 22 -23 39 -51 22 -33 38 -48 47 -45 8 4 17 6 19 6 12 0 1 30 -26 70 -16
25 -30 48 -30 51 0 4 90 69 199 144 175 121 199 141 190 157 -5 10 -13 18 -17
18 -5 0 -94 -59 -198 -131z"/>
<path d="M3910 1465 l0 -65 -215 0 -215 0 0 -25 0 -25 213 -2 212 -3 0 -65 c0
-59 2 -65 21 -68 23 -3 34 27 34 97 l0 36 245 -3 245 -3 0 25 0 26 -214 0
c-117 0 -228 3 -245 6 -31 6 -31 7 -31 70 0 62 -1 64 -25 64 -24 0 -25 -2 -25
-65z"/>
<path d="M11090 1465 l0 -65 -215 0 -215 0 0 -25 0 -25 210 0 210 0 0 -70 c0
-68 1 -70 25 -70 23 0 24 3 27 66 l3 67 248 -2 247 -2 0 25 0 26 -222 0 c-123
0 -233 3 -245 6 -21 6 -23 12 -23 70 0 62 -1 64 -25 64 -24 0 -25 -2 -25 -65z"/>
<path d="M6615 1360 c-4 -12 -5 -24 -2 -26 3 -3 102 -45 221 -93 119 -48 219
-90 222 -94 3 -3 -6 -32 -20 -63 -21 -45 -24 -59 -14 -66 25 -16 36 -7 62 51
l27 60 196 -80 c196 -80 212 -83 213 -43 0 6 -87 45 -192 88 -106 43 -194 79
-196 81 -1 1 9 28 23 60 21 46 23 60 13 66 -26 17 -36 8 -58 -46 -12 -30 -27
-55 -32 -55 -5 0 -105 39 -221 86 -117 47 -217 88 -224 91 -6 2 -14 -5 -18
-17z"/>
<path d="M13790 1360 c-5 -10 -10 -20 -10 -23 0 -2 103 -45 229 -96 l230 -93
-25 -56 c-26 -60 -25 -82 3 -82 13 0 25 18 42 59 l24 60 51 -20 c28 -12 118
-48 199 -81 81 -33 149 -59 151 -57 2 2 6 13 10 24 5 18 -15 28 -189 99 -107
43 -195 81 -195 85 0 3 10 30 22 59 19 46 20 55 8 62 -25 16 -29 12 -55 -45
-13 -30 -28 -55 -33 -55 -5 0 -98 36 -208 81 -109 44 -209 85 -221 90 -18 6
-25 4 -33 -11z"/>
<path d="M0 1117 c0 -27 0 -27 179 -99 124 -49 140 -50 141 -13 0 9 -294 135
-314 135 -3 0 -6 -11 -6 -23z"/>
<path d="M3547 502 c-16 -18 -10 -25 135 -157 84 -76 155 -142 157 -148 2 -5
-16 -29 -40 -53 -41 -42 -42 -45 -26 -61 16 -16 20 -15 65 30 l47 47 89 -80
c77 -69 93 -80 125 -80 l36 1 -35 32 c-19 17 -69 62 -110 100 l-74 67 47 48
c46 46 47 49 29 65 -17 16 -21 14 -62 -28 -24 -25 -47 -45 -51 -45 -3 0 -66
55 -140 121 -74 67 -143 130 -155 140 -20 19 -21 19 -37 1z"/>
<path d="M8338 413 c-10 -2 -18 -10 -17 -16 0 -7 33 -97 72 -202 69 -181 74
-190 101 -193 15 -2 27 1 25 6 -2 5 -38 100 -79 211 -41 110 -77 200 -80 200
-3 -1 -13 -3 -22 -6z"/>
<path d="M12751 328 c-11 -24 -49 -105 -85 -181 -36 -76 -66 -141 -66 -144 0
-2 12 -3 27 -1 24 3 35 20 110 178 82 173 86 189 45 190 -7 0 -21 -19 -31 -42z"/>
<path d="M973 349 l-22 -8 25 -68 c14 -37 43 -113 63 -168 34 -89 41 -100 64
-103 15 -2 27 -1 27 1 0 6 -130 350 -133 353 -1 1 -12 -2 -24 -7z"/>
<path d="M15347 348 c-15 -12 -11 -27 46 -180 59 -161 63 -168 89 -168 l28 0
-24 63 c-13 34 -43 115 -67 180 -24 64 -46 117 -49 117 -4 0 -14 -6 -23 -12z"/>
<path d="M5727 174 c-89 -191 -85 -176 -52 -172 25 3 34 17 98 152 69 148 72
165 32 166 -6 0 -41 -65 -78 -146z"/>
<path d="M2508 140 l-66 -140 27 0 c26 0 32 10 91 131 50 105 60 133 49 140
-8 5 -19 9 -24 9 -6 0 -41 -63 -77 -140z"/>
<path d="M16887 145 c-37 -74 -67 -137 -67 -140 0 -3 12 -5 28 -4 25 0 32 11
90 131 62 129 65 147 27 148 -6 0 -41 -61 -78 -135z"/>
</g>
</svg>
