<?xml version="1.0" standalone="no"?>
<!DOCTYPE svg PUBLIC "-//W3C//DTD SVG 20010904//EN"
 "http://www.w3.org/TR/2001/REC-SVG-20010904/DTD/svg10.dtd">
<svg version="1.0" xmlns="http://www.w3.org/2000/svg"
 width="1125.000000pt" height="900.000000pt" viewBox="0 0 1125.000000 900.000000"
 preserveAspectRatio="xMidYMid meet">
<metadata>
Created by potrace 1.13, written by Peter Selinger 2001-2015
</metadata>
<g transform="translate(0.000000,900.000000) scale(0.100000,-0.100000)"
fill="#000000" stroke="none">
<path d="M0 4500 l0 -4500 5625 0 5625 0 0 4500 0 4500 -5625 0 -5625 0 0
-4500z m580 4451 c19 1 990 3 2157 5 l2122 4 -6 -35 c-8 -53 17 -85 67 -85 50
0 75 32 67 85 l-6 35 3112 -2 3112 -3 -1 -215 c-1 -118 -2 -237 -2 -265 -1
-27 0 -342 1 -700 l2 -650 -423 -3 -423 -2 3 -28 3 -27 423 -3 422 -2 -2
-1728 -3 -1727 -695 -5 -695 -5 -3 -27 -3 -28 698 -2 698 -3 3 -912 c1 -569
-1 -913 -7 -913 -6 0 -13 5 -16 10 -11 18 -74 11 -95 -10 -26 -26 -25 -60 1
-95 22 -27 55 -31 102 -10 16 7 17 -14 15 -396 l-3 -404 -32 -3 c-29 -3 -33
-7 -33 -32 0 -25 4 -29 33 -32 l32 -3 0 -345 0 -345 -5580 0 -5580 0 0 345 0
345 1723 3 1722 2 0 30 0 30 -1723 2 -1722 3 0 1365 0 1365 782 3 783 2 0 30
0 30 -782 2 -783 3 -3 593 -2 593 22 -6 c25 -8 25 -8 51 -6 26 2 57 38 57 66
0 14 -12 37 -26 52 -22 22 -31 24 -65 19 l-39 -6 0 690 0 690 33 0 c42 0 70
29 70 70 0 41 -28 70 -70 70 l-33 0 0 315 0 315 1105 0 1105 0 0 30 0 30
-1102 2 -1103 3 -2 905 c-1 498 0 911 2 918 4 10 56 12 252 8 137 -3 264 -5
283 -5z"/>
<path d="M9062 8887 c-44 -47 -13 -117 52 -117 41 0 69 29 69 72 0 61 -78 91
-121 45z"/>
<path d="M3795 8785 c-14 -13 -25 -36 -25 -50 0 -28 40 -75 64 -75 29 0 64 22
75 48 16 33 -1 75 -35 91 -37 16 -52 14 -79 -14z"/>
<path d="M7132 8764 c-28 -20 -31 -83 -4 -107 25 -23 78 -21 102 3 61 61 -27
154 -98 104z"/>
<path d="M6231 8684 c-12 -15 -21 -34 -21 -44 0 -34 39 -70 75 -70 36 0 75 36
75 70 0 34 -39 70 -75 70 -24 0 -39 -7 -54 -26z"/>
<path d="M9707 8669 c-48 -28 -40 -107 12 -129 75 -31 134 58 76 115 -25 26
-58 31 -88 14z"/>
<path d="M7732 8523 c-7 -3 -19 -18 -28 -34 -12 -25 -13 -34 -2 -57 7 -15 25
-33 40 -40 46 -22 98 14 98 69 0 44 -63 80 -108 62z"/>
<path d="M1692 8485 c-59 -25 -51 -107 11 -130 62 -21 118 52 80 103 -26 34
-53 42 -91 27z"/>
<path d="M3430 8380 l0 -30 1650 0 1650 0 0 30 0 30 -1650 0 -1650 0 0 -30z"/>
<path d="M2592 8360 c-26 -24 -29 -66 -6 -98 11 -16 25 -22 53 -22 46 0 71 24
71 68 0 64 -72 95 -118 52z"/>
<path d="M8010 8340 l0 -30 1470 0 1470 0 0 30 0 30 -1470 0 -1470 0 0 -30z"/>
<path d="M919 8292 c-28 -23 -30 -73 -4 -102 24 -26 79 -26 105 0 63 63 -31
158 -101 102z"/>
<path d="M5807 8092 c-25 -28 -22 -87 5 -106 71 -50 159 43 98 104 -26 26 -81
26 -103 2z"/>
<path d="M4052 8073 c-7 -3 -19 -18 -28 -35 -13 -24 -13 -35 -4 -58 31 -74
140 -51 140 30 0 45 -63 81 -108 63z"/>
<path d="M5077 7952 c-40 -44 -7 -122 51 -122 60 0 94 78 52 120 -26 26 -81
26 -103 2z"/>
<path d="M7374 7958 c-53 -25 -50 -105 5 -128 75 -31 134 58 76 115 -26 27
-47 30 -81 13z"/>
<path d="M9027 7952 c-40 -44 -7 -122 51 -122 60 0 94 78 52 120 -26 26 -81
26 -103 2z"/>
<path d="M10380 7950 c-61 -61 27 -154 98 -104 28 20 31 83 4 107 -25 23 -78
21 -102 -3z"/>
<path d="M6512 7880 c-48 -45 -16 -123 50 -123 64 0 92 83 42 122 -34 27 -64
27 -92 1z"/>
<path d="M2193 7798 c-28 -14 -43 -55 -31 -89 9 -26 44 -49 74 -49 24 0 64 47
64 75 0 30 -41 75 -67 74 -10 0 -28 -5 -40 -11z"/>
<path d="M3440 7740 c-26 -26 -26 -81 -2 -103 44 -40 122 -7 122 51 0 62 -77
95 -120 52z"/>
<path d="M377 7728 c-41 -32 -38 -94 6 -123 46 -30 107 6 107 63 0 51 -73 90
-113 60z"/>
<path d="M9810 7670 c-11 -11 -20 -33 -20 -50 0 -17 9 -39 20 -50 11 -11 33
-20 50 -20 17 0 39 9 50 20 11 11 20 33 20 50 0 17 -9 39 -20 50 -11 11 -33
20 -50 20 -17 0 -39 -9 -50 -20z"/>
<path d="M8236 7629 c-19 -15 -26 -30 -26 -54 0 -36 36 -75 70 -75 10 0 29 9
44 21 34 27 35 71 1 104 -30 30 -54 31 -89 4z"/>
<path d="M1170 7580 c-26 -26 -26 -81 -2 -103 25 -23 78 -21 102 3 43 43 11
120 -50 120 -17 0 -39 -9 -50 -20z"/>
<path d="M10725 7548 c-50 -27 -59 -75 -20 -113 42 -43 106 -23 120 36 12 48
-57 101 -100 77z"/>
<path d="M5915 7395 c-14 -13 -25 -36 -25 -50 0 -28 40 -75 64 -75 29 0 64 22
75 48 16 33 -1 75 -35 91 -37 16 -52 14 -79 -14z"/>
<path d="M4800 7360 c-43 -43 -11 -120 50 -120 17 0 39 9 50 20 26 26 26 81 2
103 -25 23 -78 21 -102 -3z"/>
<path d="M6830 7260 c-26 -26 -26 -81 -2 -103 28 -25 87 -22 106 5 51 73 -42
160 -104 98z"/>
<path d="M7597 7179 c-48 -28 -40 -107 12 -129 75 -31 134 58 76 115 -25 26
-58 31 -88 14z"/>
<path d="M3465 7075 c-34 -33 -33 -77 1 -104 15 -12 34 -21 44 -21 10 0 29 9
44 21 36 28 36 80 0 108 -35 27 -59 26 -89 -4z"/>
<path d="M2500 6997 c-13 -7 -31 -24 -39 -38 -30 -53 36 -117 94 -91 55 25 58
100 5 127 -35 18 -29 18 -60 2z"/>
<path d="M8627 6920 c-72 -57 8 -167 81 -113 51 38 34 114 -28 128 -18 4 -34
0 -53 -15z"/>
<path d="M9532 6930 c-49 -20 -54 -95 -7 -126 73 -48 147 61 79 115 -29 23
-38 24 -72 11z"/>
<path d="M5440 6842 c-51 -16 -68 -84 -30 -122 60 -60 154 26 105 97 -15 21
-50 33 -75 25z"/>
<path d="M4581 6794 c-12 -15 -21 -34 -21 -44 0 -34 39 -70 75 -70 36 0 75 36
75 70 0 34 -39 70 -75 70 -24 0 -39 -7 -54 -26z"/>
<path d="M1713 6768 c-68 -33 -40 -138 37 -138 28 0 70 44 70 73 0 51 -61 88
-107 65z"/>
<path d="M6325 6705 c-30 -30 -31 -54 -4 -89 20 -26 69 -36 95 -18 15 10 34
47 34 67 0 25 -46 65 -75 65 -14 0 -37 -11 -50 -25z"/>
<path d="M7316 6619 c-46 -36 -26 -110 34 -124 38 -9 80 27 80 68 0 38 -7 50
-37 66 -31 16 -47 14 -77 -10z"/>
<path d="M10568 6590 c-24 -25 -29 -36 -24 -58 15 -60 79 -80 121 -37 39 38
32 86 -16 110 -39 21 -46 19 -81 -15z"/>
<path d="M793 6575 c-49 -21 -58 -71 -18 -110 45 -46 118 -19 118 43 0 58 -47
89 -100 67z"/>
<path d="M3760 6550 c-26 -26 -26 -81 0 -105 29 -26 79 -24 102 4 56 70 -39
164 -102 101z"/>
<path d="M2936 6504 c-43 -43 -19 -116 41 -122 62 -6 101 62 63 111 -25 31
-78 37 -104 11z"/>
<path d="M4954 6336 c-3 -8 -4 -23 -2 -33 3 -17 65 -18 1491 -21 l1487 -2 0
35 0 35 -1485 0 c-1285 0 -1486 -2 -1491 -14z"/>
<path d="M8159 6287 c-37 -19 -53 -60 -37 -94 26 -55 104 -54 130 2 26 57 -37
119 -93 92z"/>
<path d="M9051 6244 c-12 -15 -21 -34 -21 -44 0 -10 9 -29 21 -44 41 -52 122
-23 122 44 0 67 -81 96 -122 44z"/>
<path d="M2310 6217 c-13 -7 -29 -25 -34 -39 -29 -83 94 -137 128 -56 17 39
11 63 -22 88 -29 23 -38 24 -72 7z"/>
<path d="M9880 6160 c-26 -26 -26 -81 -2 -103 28 -25 87 -22 106 5 50 71 -43
159 -104 98z"/>
<path d="M1496 6069 c-19 -15 -26 -30 -26 -54 0 -36 36 -75 70 -75 34 0 70 39
70 75 0 36 -36 75 -70 75 -10 0 -29 -9 -44 -21z"/>
<path d="M4310 6020 c-43 -43 -11 -120 50 -120 38 0 70 32 70 70 0 38 -32 70
-70 70 -17 0 -39 -9 -50 -20z"/>
<path d="M7560 5950 c-26 -26 -25 -60 1 -94 25 -31 66 -35 100 -8 28 23 30 73
4 102 -24 26 -79 26 -105 0z"/>
<path d="M6446 5909 c-19 -15 -26 -30 -26 -54 0 -36 36 -75 70 -75 34 0 70 39
70 75 0 36 -36 75 -70 75 -10 0 -29 -9 -44 -21z"/>
<path d="M3370 5860 c-43 -43 -11 -120 50 -120 38 0 70 32 70 70 0 38 -32 70
-70 70 -17 0 -39 -9 -50 -20z"/>
<path d="M10631 5854 c-12 -15 -21 -34 -21 -44 0 -34 39 -70 75 -70 36 0 75
36 75 70 0 34 -39 70 -75 70 -24 0 -39 -7 -54 -26z"/>
<path d="M5572 5840 c-48 -45 -16 -123 50 -123 61 0 91 78 45 121 -29 28 -67
28 -95 2z"/>
<path d="M8185 5675 c-28 -27 -32 -61 -10 -92 49 -70 160 0 120 76 -24 48 -72
55 -110 16z"/>
<path d="M9260 5630 c-11 -11 -20 -33 -20 -50 0 -17 9 -39 20 -50 11 -11 33
-20 50 -20 17 0 39 9 50 20 11 11 20 33 20 50 0 17 -9 39 -20 50 -11 11 -33
20 -50 20 -17 0 -39 -9 -50 -20z"/>
<path d="M185 5605 c-28 -27 -31 -45 -14 -78 16 -30 28 -37 66 -37 41 0 77 42
68 80 -14 58 -78 78 -120 35z"/>
<path d="M6977 5528 c-41 -32 -38 -94 6 -123 46 -30 107 6 107 63 0 51 -73 90
-113 60z"/>
<path d="M4890 5513 c-53 -19 -68 -86 -28 -123 63 -58 157 33 101 98 -20 23
-50 33 -73 25z"/>
<path d="M805 5425 c-14 -13 -25 -36 -25 -50 0 -28 40 -75 64 -75 78 0 109
107 40 139 -37 16 -52 14 -79 -14z"/>
<path d="M1726 5429 c-19 -15 -26 -30 -26 -54 0 -36 36 -75 70 -75 34 0 70 39
70 75 0 36 -36 75 -70 75 -10 0 -29 -9 -44 -21z"/>
<path d="M2653 5438 c-68 -33 -39 -138 38 -138 28 0 69 44 69 73 0 51 -61 88
-107 65z"/>
<path d="M3832 5384 c-28 -20 -31 -83 -4 -107 25 -23 78 -21 102 3 61 61 -27
154 -98 104z"/>
<path d="M8070 5350 l0 -30 1515 0 1515 0 0 30 0 30 -1515 0 -1515 0 0 -30z"/>
<path d="M6280 5240 c-11 -11 -20 -33 -20 -50 0 -17 9 -39 20 -50 11 -11 33
-20 50 -20 17 0 39 9 50 20 11 11 20 33 20 50 0 17 -9 39 -20 50 -11 11 -33
20 -50 20 -17 0 -39 -9 -50 -20z"/>
<path d="M7480 5192 c-51 -16 -68 -84 -30 -122 60 -60 154 26 105 97 -15 21
-50 33 -75 25z"/>
<path d="M5572 5127 c-45 -48 -16 -120 48 -120 67 0 96 81 44 122 -35 27 -65
27 -92 -2z"/>
<path d="M9327 5082 c-23 -25 -21 -78 3 -102 43 -43 120 -11 120 50 0 17 -9
39 -20 50 -26 26 -81 26 -103 2z"/>
<path d="M1560 5030 l0 -30 1810 0 1810 0 0 30 0 30 -1810 0 -1810 0 0 -30z"/>
<path d="M8160 4920 c-43 -43 -11 -120 50 -120 38 0 70 32 70 70 0 38 -32 70
-70 70 -17 0 -39 -9 -50 -20z"/>
<path d="M10475 4895 c-28 -27 -30 -42 -14 -79 32 -69 139 -38 139 40 0 24
-47 64 -75 64 -14 0 -37 -11 -50 -25z"/>
<path d="M6733 4740 c-46 -19 -57 -83 -20 -118 48 -45 117 -14 117 51 0 51
-50 86 -97 67z"/>
<path d="M645 4645 c-14 -13 -25 -36 -25 -50 0 -30 41 -75 68 -75 35 0 72 38
72 73 0 38 -7 50 -37 66 -33 17 -51 14 -78 -14z"/>
<path d="M4660 4643 c-53 -19 -68 -86 -28 -123 64 -60 158 31 101 98 -20 23
-50 33 -73 25z"/>
<path d="M2333 4568 c-52 -25 -52 -105 1 -129 83 -38 147 84 66 126 -33 17
-37 17 -67 3z"/>
<path d="M8821 4524 c-12 -15 -21 -34 -21 -44 0 -34 39 -70 75 -70 36 0 75 36
75 70 0 34 -39 70 -75 70 -24 0 -39 -7 -54 -26z"/>
<path d="M9717 4532 c-40 -44 -6 -122 53 -122 60 0 92 78 50 120 -26 26 -81
26 -103 2z"/>
<path d="M1406 4489 c-19 -15 -26 -30 -26 -54 0 -36 36 -75 70 -75 10 0 29 9
44 21 34 27 35 71 1 104 -30 30 -54 31 -89 4z"/>
<path d="M3108 4405 c-54 -30 -42 -116 18 -131 83 -21 126 99 48 135 -31 14
-33 14 -66 -4z"/>
<path d="M3895 4408 c-50 -27 -59 -75 -20 -113 42 -43 106 -23 121 37 5 22 0
33 -24 58 -33 32 -46 35 -77 18z"/>
<path d="M5293 4410 c-48 -19 -58 -87 -17 -119 53 -41 114 -13 114 52 0 51
-50 86 -97 67z"/>
<path d="M7585 4408 c-50 -27 -59 -75 -20 -113 42 -43 106 -23 121 37 5 22 0
33 -24 58 -33 32 -46 35 -77 18z"/>
<path d="M10931 4274 c-41 -53 -13 -114 52 -114 42 0 70 29 70 72 0 64 -83 92
-122 42z"/>
<path d="M6155 4235 c-14 -13 -25 -30 -25 -37 1 -59 51 -98 100 -78 27 11 50
46 50 76 0 24 -47 64 -75 64 -14 0 -37 -11 -50 -25z"/>
<path d="M7030 4133 c-15 -19 -19 -35 -15 -53 14 -62 90 -79 128 -28 54 73
-56 153 -113 81z"/>
<path d="M8405 4095 c-30 -29 -32 -68 -5 -95 47 -47 123 -15 123 51 0 63 -72
90 -118 44z"/>
<path d="M10206 4029 c-52 -41 -23 -122 44 -122 67 0 96 81 44 122 -15 12 -34
21 -44 21 -10 0 -29 -9 -44 -21z"/>
<path d="M205 3980 c-42 -47 -8 -120 55 -120 33 0 70 40 70 74 0 57 -86 89
-125 46z"/>
<path d="M9312 3963 c-52 -44 -24 -123 43 -123 67 0 97 69 50 115 -28 29 -65
32 -93 8z"/>
<path d="M1855 3910 c-42 -47 -8 -120 55 -120 33 0 70 40 70 76 0 57 -86 87
-125 44z"/>
<path d="M4769 3892 c-28 -23 -30 -73 -4 -102 24 -26 79 -26 105 0 63 63 -31
158 -101 102z"/>
<path d="M940 3820 c-11 -11 -20 -33 -20 -50 0 -17 9 -39 20 -50 43 -43 120
-11 120 50 0 38 -32 70 -70 70 -17 0 -39 -9 -50 -20z"/>
<path d="M4012 3727 c-45 -48 -14 -117 51 -117 42 0 67 26 67 68 0 65 -74 96
-118 49z"/>
<path d="M2530 3703 c-51 -19 -68 -85 -30 -123 61 -61 159 32 103 98 -20 23
-50 33 -73 25z"/>
<path d="M5320 3660 l0 -30 1305 0 1305 0 0 30 0 30 -1305 0 -1305 0 0 -30z"/>
<path d="M7405 3545 c-14 -13 -25 -36 -25 -50 0 -28 40 -75 64 -75 78 0 109
107 40 139 -37 16 -52 14 -79 -14z"/>
<path d="M8149 3419 c-15 -6 -33 -23 -39 -40 -35 -84 84 -137 129 -58 19 33 1
81 -35 98 -14 6 -26 11 -27 10 -1 0 -14 -5 -28 -10z"/>
<path d="M3201 3294 c-27 -34 -27 -64 -1 -92 45 -48 123 -16 123 50 0 64 -83
92 -122 42z"/>
<path d="M5730 3307 c-14 -7 -31 -25 -38 -40 -22 -45 15 -97 69 -97 28 0 69
44 69 73 0 51 -55 86 -100 64z"/>
<path d="M735 3245 c-40 -39 -29 -95 22 -113 78 -27 136 76 70 123 -31 22 -65
18 -92 -10z"/>
<path d="M11050 3250 c-47 -47 -15 -124 52 -122 63 2 89 71 43 117 -29 30 -68
32 -95 5z"/>
<path d="M8960 3160 c-28 -28 -27 -84 2 -104 51 -36 118 -5 118 54 0 38 -32
70 -70 70 -17 0 -39 -9 -50 -20z"/>
<path d="M1590 3153 c-51 -19 -68 -85 -30 -123 61 -61 159 32 103 98 -20 23
-50 33 -73 25z"/>
<path d="M6670 3147 c-13 -7 -31 -24 -39 -38 -30 -53 36 -117 94 -91 55 25 58
100 5 127 -35 18 -29 18 -60 2z"/>
<path d="M7561 2944 c-27 -35 -27 -65 2 -92 48 -46 120 -16 120 50 0 64 -83
92 -122 42z"/>
<path d="M10136 2929 c-50 -39 -22 -122 42 -122 66 0 98 78 50 123 -28 26 -58
26 -92 -1z"/>
<path d="M4777 2929 c-48 -28 -40 -107 13 -129 23 -9 34 -9 58 4 49 25 56 72
17 111 -25 26 -58 31 -88 14z"/>
<path d="M2476 2885 c-59 -60 10 -155 83 -114 63 36 42 121 -31 127 -23 2 -41
-3 -52 -13z"/>
<path d="M3791 2704 c-27 -34 -27 -64 -1 -92 47 -50 140 -6 125 58 -14 60 -88
80 -124 34z"/>
<path d="M6005 2695 c-28 -27 -30 -42 -14 -79 32 -69 139 -38 139 40 0 24 -47
64 -75 64 -14 0 -37 -11 -50 -25z"/>
<path d="M9256 2648 c-36 -51 -5 -118 54 -118 59 0 90 67 54 118 -11 16 -25
22 -54 22 -29 0 -43 -6 -54 -22z"/>
<path d="M1283 2600 c-46 -19 -57 -83 -20 -118 48 -45 117 -14 117 51 0 51
-50 86 -97 67z"/>
<path d="M8166 2539 c-19 -15 -26 -30 -26 -54 0 -36 36 -75 70 -75 34 0 70 39
70 75 0 36 -36 75 -70 75 -10 0 -29 -9 -44 -21z"/>
<path d="M11072 2537 c-43 -46 -15 -120 46 -120 43 0 72 28 72 69 0 66 -74 98
-118 51z"/>
<path d="M537 2518 c-38 -34 -40 -75 -5 -108 29 -27 64 -25 93 5 29 28 32 65
8 93 -28 33 -66 37 -96 10z"/>
<path d="M6855 2445 c-14 -13 -25 -36 -25 -50 0 -28 40 -75 64 -75 78 0 109
107 40 139 -37 16 -52 14 -79 -14z"/>
<path d="M1570 2370 l0 -30 1990 0 1990 0 0 30 0 30 -1990 0 -1990 0 0 -30z"/>
<path d="M2515 2228 c-28 -16 -35 -28 -35 -65 0 -41 42 -77 80 -68 60 14 80
88 34 124 -30 24 -50 26 -79 9z"/>
<path d="M9675 2125 c-14 -13 -25 -36 -25 -50 0 -28 40 -75 64 -75 76 0 106
91 44 134 -32 22 -55 20 -83 -9z"/>
<path d="M7488 2094 c-51 -27 -46 -101 7 -126 58 -26 119 33 95 91 -6 16 -23
33 -36 40 -31 14 -33 14 -66 -5z"/>
<path d="M3440 2080 c-26 -26 -26 -81 -2 -103 44 -40 122 -7 122 51 0 60 -78
94 -120 52z"/>
<path d="M8642 2077 c-45 -48 -14 -117 51 -117 42 0 67 26 67 68 0 65 -74 96
-118 49z"/>
<path d="M10473 2050 c-48 -19 -58 -87 -17 -119 53 -41 114 -13 114 52 0 51
-50 86 -97 67z"/>
<path d="M4862 1990 c-48 -45 -16 -123 50 -123 64 0 92 83 42 122 -34 27 -64
27 -92 1z"/>
<path d="M6243 1892 c-51 -8 -70 -83 -30 -120 48 -45 117 -14 117 51 0 48 -38
77 -87 69z"/>
<path d="M575 1825 c-40 -39 -29 -97 22 -116 58 -22 116 36 94 94 -19 51 -77
62 -116 22z"/>
<path d="M1831 1774 c-12 -15 -21 -34 -21 -44 0 -34 39 -70 75 -70 36 0 75 36
75 70 0 34 -39 70 -75 70 -24 0 -39 -7 -54 -26z"/>
<path d="M4031 1684 c-12 -15 -21 -34 -21 -44 0 -34 39 -70 75 -70 24 0 39 7
54 26 27 35 26 59 -4 89 -33 34 -77 33 -104 -1z"/>
<path d="M5416 1669 c-36 -29 -36 -80 1 -109 47 -37 113 -2 113 60 0 31 -39
70 -70 70 -10 0 -29 -9 -44 -21z"/>
<path d="M2826 1579 c-36 -28 -36 -80 0 -108 15 -12 34 -21 44 -21 34 0 70 39
70 75 0 36 -36 75 -70 75 -10 0 -29 -9 -44 -21z"/>
<path d="M5940 1550 l0 -30 1775 0 1775 0 0 30 0 30 -1775 0 -1775 0 0 -30z"/>
<path d="M7443 1428 c-68 -33 -40 -138 37 -138 28 0 70 44 70 73 0 51 -61 88
-107 65z"/>
<path d="M1293 1342 c-51 -8 -70 -83 -30 -120 48 -45 117 -14 117 51 0 48 -38
77 -87 69z"/>
<path d="M9879 1336 c-13 -6 -30 -23 -38 -37 -12 -22 -12 -29 0 -54 29 -60
111 -55 133 8 20 55 -43 109 -95 83z"/>
<path d="M3485 1275 c-39 -39 -32 -86 17 -111 59 -30 122 27 99 89 -19 51 -77
62 -116 22z"/>
<path d="M8390 1230 c-43 -43 -11 -120 50 -120 38 0 70 32 70 70 0 38 -32 70
-70 70 -17 0 -39 -9 -50 -20z"/>
<path d="M6140 1160 c-62 -62 31 -158 99 -102 28 22 31 75 6 102 -24 26 -79
26 -105 0z"/>
<path d="M4806 1149 c-36 -28 -36 -80 0 -108 15 -12 34 -21 44 -21 34 0 70 39
70 75 0 36 -36 75 -70 75 -10 0 -29 -9 -44 -21z"/>
<path d="M10635 1115 c-28 -27 -30 -42 -14 -79 16 -34 58 -51 91 -35 26 11 48
46 48 75 0 24 -47 64 -75 64 -14 0 -37 -11 -50 -25z"/>
<path d="M271 1064 c-12 -15 -21 -34 -21 -44 0 -34 39 -70 75 -70 36 0 75 36
75 70 0 34 -39 70 -75 70 -24 0 -39 -7 -54 -26z"/>
<path d="M2200 1070 c-11 -11 -20 -33 -20 -50 0 -17 9 -39 20 -50 43 -43 120
-11 120 50 0 38 -32 70 -70 70 -17 0 -39 -9 -50 -20z"/>
<path d="M9313 895 c-70 -49 0 -160 76 -120 48 24 55 72 16 110 -27 28 -61 32
-92 10z"/>
<path d="M6760 840 c-42 -42 -8 -120 53 -120 58 0 91 85 49 123 -25 23 -78 21
-102 -3z"/>
<path d="M7657 840 c-20 -16 -27 -30 -27 -56 0 -68 68 -97 115 -49 63 63 -18
160 -88 105z"/>
<path d="M4426 699 c-36 -28 -36 -80 0 -108 15 -12 34 -21 44 -21 10 0 29 9
44 21 34 27 35 71 1 104 -30 30 -54 31 -89 4z"/>
<path d="M663 560 c-47 -19 -56 -78 -18 -115 47 -48 115 -19 115 48 0 51 -50
86 -97 67z"/>
<path d="M2850 563 c-53 -19 -68 -86 -28 -123 63 -58 157 33 101 98 -20 23
-50 33 -73 25z"/>
<path d="M8520 487 c-52 -26 -49 -104 4 -128 36 -17 73 -3 92 32 19 38 6 80
-32 98 -31 14 -33 14 -64 -2z"/>
<path d="M5136 454 c-43 -43 -19 -116 41 -122 62 -6 101 62 63 111 -25 31 -78
37 -104 11z"/>
<path d="M7166 419 c-50 -39 -22 -122 42 -122 43 0 72 28 72 70 0 65 -61 93
-114 52z"/>
<path d="M3829 398 c-16 -5 -32 -22 -39 -39 -35 -84 84 -137 129 -58 31 55
-28 118 -90 97z"/>
<path d="M6160 397 c-76 -38 -28 -154 55 -133 29 7 56 56 48 87 -11 41 -65 65
-103 46z"/>
<path d="M9880 360 c-43 -43 -11 -120 50 -120 38 0 70 32 70 70 0 38 -32 70
-70 70 -17 0 -39 -9 -50 -20z"/>
<path d="M10885 360 c-41 -45 -10 -120 50 -120 38 0 75 35 75 71 0 58 -87 91
-125 49z"/>
<path d="M1586 339 c-50 -39 -22 -122 42 -122 43 0 72 28 72 70 0 65 -61 93
-114 52z"/>
</g>
</svg>
