<?xml version="1.0" standalone="no"?>
<!DOCTYPE svg PUBLIC "-//W3C//DTD SVG 20010904//EN"
 "http://www.w3.org/TR/2001/REC-SVG-20010904/DTD/svg10.dtd">
<svg version="1.0" xmlns="http://www.w3.org/2000/svg"
 width="1125.000000pt" height="900.000000pt" viewBox="0 0 1125.000000 900.000000"
 preserveAspectRatio="xMidYMid meet">
<metadata>
Created by potrace 1.13, written by Peter Selinger 2001-2015
</metadata>
<g transform="translate(0.000000,900.000000) scale(0.100000,-0.100000)"
fill="#000000" stroke="none">
<path d="M0 4500 l0 -4500 5625 0 5625 0 0 4500 0 4500 -5625 0 -5625 0 0
-4500z m570 4445 c0 -12 -20 -15 -119 -15 -126 0 -252 -19 -335 -51 -28 -10
-57 -19 -63 -19 -14 0 -19 81 -6 93 3 4 123 7 265 7 223 0 258 -2 258 -15z
m1948 0 c-2 -5 -48 -8 -113 -6 -112 3 -256 -15 -347 -43 -26 -8 -98 -37 -160
-65 -189 -83 -326 -107 -553 -98 -165 7 -265 29 -392 86 -93 42 -249 91 -289
91 -19 0 -24 5 -24 25 l0 25 940 -2 c600 -2 939 -7 938 -13z m1910 -6 c2 -14
-17 -17 -145 -22 -176 -7 -292 -30 -493 -96 -203 -67 -255 -76 -460 -76 -211
1 -309 20 -463 91 -56 26 -141 56 -189 68 -70 16 -88 24 -88 38 0 17 46 18
917 16 833 -3 918 -4 921 -19z m1850 -1 c3 -16 -8 -18 -126 -18 -200 0 -332
-27 -488 -101 -127 -59 -180 -70 -357 -76 -244 -8 -400 18 -600 102 -48 20
-116 42 -150 49 -56 11 -62 15 -65 39 l-3 27 893 -2 c841 -3 893 -4 896 -20z
m1790 -4 c3 -20 -2 -21 -145 -27 -153 -6 -280 -29 -363 -65 -25 -10 -108 -41
-185 -68 -140 -49 -140 -49 -265 -48 -107 1 -142 6 -244 33 -94 25 -121 29
-128 19 -8 -14 -11 -48 -3 -48 2 0 44 -11 92 -24 48 -14 100 -27 116 -30 l27
-6 0 -259 0 -258 -82 -7 c-108 -8 -158 -22 -158 -44 0 -37 12 -40 95 -25 59
10 131 13 270 10 211 -6 271 -16 455 -77 129 -44 295 -80 363 -80 83 0 77 22
77 -295 l0 -282 -110 -7 c-132 -8 -246 -27 -320 -54 -30 -10 -122 -44 -205
-73 l-150 -54 -140 1 c-116 0 -155 4 -232 25 -91 25 -92 25 -97 4 -11 -39 -5
-42 92 -65 53 -12 103 -24 110 -26 10 -3 12 -70 10 -311 l-3 -308 -40 -3 c-22
-1 -70 -7 -107 -13 -53 -8 -68 -15 -68 -27 1 -41 13 -45 91 -31 103 17 353 15
466 -5 51 -9 156 -36 235 -62 129 -41 207 -60 321 -79 l37 -6 0 -248 0 -248
-92 -7 c-138 -11 -223 -31 -407 -97 -91 -33 -193 -67 -226 -75 -84 -19 -203
-17 -315 6 -98 20 -109 18 -110 -21 0 -12 19 -21 70 -34 l70 -17 0 -308 0
-307 -71 -7 c-69 -7 -70 -8 -67 -34 l3 -27 190 -1 c223 -1 307 -14 499 -78
131 -44 241 -69 349 -82 l57 -6 0 -312 0 -312 -105 -13 c-129 -15 -201 -34
-380 -101 -229 -85 -327 -97 -505 -60 -98 20 -109 18 -110 -22 0 -13 13 -21
45 -29 l45 -11 0 -303 0 -302 -41 -6 c-49 -6 -53 -10 -46 -39 l6 -23 175 3
c216 5 324 -11 514 -73 123 -40 199 -59 315 -79 l37 -7 0 -293 0 -292 -77 -12
c-43 -7 -136 -33 -208 -58 -328 -116 -298 -108 -435 -108 -97 0 -146 5 -219
23 -77 19 -95 21 -102 10 -22 -35 -10 -46 79 -67 48 -11 108 -24 135 -28 l47
-6 0 -303 0 -302 -67 -7 c-112 -10 -203 -28 -203 -40 0 -6 3 -20 6 -32 5 -20
7 -20 67 -6 40 9 126 14 242 15 214 1 306 -13 499 -77 127 -42 235 -68 344
-81 l52 -7 0 -273 0 -274 -47 -6 c-144 -17 -200 -30 -318 -71 -335 -118 -296
-109 -445 -108 -124 1 -145 4 -260 36 -128 37 -139 36 -140 -4 0 -19 107 -57
230 -82 l65 -13 0 -234 0 -234 -862 -3 -863 -2 0 238 0 238 113 12 c132 14
193 30 303 83 111 52 207 77 352 91 195 19 403 -8 529 -68 29 -13 66 -27 81
-30 24 -5 30 -2 35 17 4 13 3 27 -1 31 -4 3 -45 22 -92 41 -98 41 -201 64
-324 73 l-86 7 0 257 0 257 67 12 c50 9 424 133 441 146 9 7 -12 55 -23 55 -8
0 -86 -27 -173 -59 -215 -79 -290 -95 -411 -88 -112 7 -302 56 -431 112 -119
51 -225 75 -367 82 l-123 6 0 304 0 303 43 0 c134 0 284 34 404 90 172 82 368
113 591 92 121 -11 244 -39 287 -66 24 -15 185 -70 190 -65 2 2 6 16 10 30 6
26 3 28 -67 52 -40 14 -101 37 -134 51 -90 38 -193 57 -336 63 l-128 6 0 268
0 268 58 6 c84 10 155 29 293 81 68 26 168 58 221 72 95 25 97 26 91 51 -3 14
-7 28 -9 30 -8 9 -157 -33 -280 -79 -225 -84 -270 -93 -409 -87 -132 6 -238
31 -398 93 -160 62 -170 65 -243 79 -40 8 -119 17 -178 21 l-106 7 0 287 0
287 113 6 c155 8 255 31 367 82 158 72 240 92 425 102 171 9 396 -25 470 -71
25 -16 204 -76 226 -76 17 0 34 40 21 51 -4 4 -47 20 -97 37 -49 17 -118 42
-151 56 -68 29 -164 51 -267 61 l-67 7 2 300 3 300 70 18 c39 10 131 41 206
69 130 48 224 76 279 83 21 3 24 7 22 33 -2 17 -5 31 -6 32 -8 9 -173 -38
-321 -91 -99 -35 -208 -70 -243 -77 -131 -25 -366 15 -561 97 -118 50 -244 82
-351 90 l-90 7 0 302 0 302 103 7 c142 9 222 28 336 80 131 60 221 84 368 98
210 20 378 -5 574 -86 85 -35 176 -62 184 -55 2 2 6 15 10 29 5 23 2 26 -57
43 -35 10 -104 36 -154 57 -84 36 -178 60 -296 75 l-48 6 0 233 0 233 64 5
c41 4 122 26 227 63 90 31 187 64 214 73 28 9 51 17 53 18 2 1 0 13 -4 28 -4
16 -13 26 -24 26 -10 0 -87 -25 -171 -56 -213 -78 -277 -94 -380 -94 -132 0
-314 44 -484 115 -110 47 -180 64 -317 77 l-118 12 0 301 0 302 88 6 c123 8
222 33 332 83 121 55 217 81 355 94 185 19 393 -6 525 -64 83 -36 179 -70 185
-64 2 1 6 15 10 29 6 24 3 27 -77 57 -46 17 -113 42 -149 56 -36 13 -102 30
-147 37 l-82 12 0 279 0 278 28 6 c52 11 98 26 264 86 165 60 168 61 161 87
-3 14 -7 27 -8 29 -3 3 -23 -4 -280 -96 l-130 -47 -150 1 c-142 0 -156 2 -271
37 -67 19 -164 54 -215 76 -96 41 -204 65 -341 77 l-78 6 0 248 0 247 93 7
c140 11 233 33 337 81 163 74 248 94 431 102 185 8 396 -24 473 -72 24 -15
126 -49 131 -43 2 1 6 14 10 28 5 24 0 27 -112 72 -65 26 -151 52 -190 59 -67
11 -73 14 -73 36 l0 23 863 -2 862 -3 3 -21z m1980 5 c3 -14 -20 -17 -185 -22
-199 -6 -288 -20 -402 -64 -252 -95 -302 -106 -496 -107 -178 0 -265 15 -457
79 -134 44 -272 75 -334 75 -36 0 -51 17 -40 45 5 13 117 15 958 13 866 -3
953 -4 956 -19z m1160 -59 c1 -41 -2 -81 -6 -88 -15 -23 -188 -52 -312 -52
-185 0 -351 34 -507 103 -77 34 -197 67 -247 67 -21 0 -26 5 -26 25 l0 25 548
-2 547 -3 3 -75z m-8698 -10 c119 -14 228 -43 329 -89 47 -21 109 -46 136 -55
74 -23 219 -46 291 -46 l64 0 0 -259 0 -258 -78 -6 c-110 -9 -247 -40 -398
-91 -155 -53 -289 -80 -346 -71 -26 5 -49 3 -64 -5 -19 -10 -49 -11 -146 -2
-154 14 -254 40 -377 96 -109 50 -229 82 -346 93 l-80 8 0 240 0 239 110 17
c145 22 176 31 319 94 212 93 373 120 586 95z m-1914 -11 c103 -14 229 -52
339 -100 123 -55 227 -79 373 -86 l122 -6 -2 -241 -3 -241 -91 -6 c-121 -9
-233 -39 -365 -100 -134 -61 -236 -86 -399 -99 -189 -15 -432 16 -508 66 l-22
14 0 353 c0 193 4 357 8 364 12 19 135 62 220 77 95 17 226 19 328 5z m3941
-24 c43 -9 119 -34 168 -55 50 -21 115 -45 145 -54 78 -22 224 -46 281 -46
l49 0 0 -254 0 -255 -57 -6 c-176 -19 -286 -46 -384 -96 -164 -82 -373 -107
-620 -75 -137 19 -216 40 -311 82 -101 45 -213 74 -320 81 l-88 6 0 257 0 257
78 7 c98 8 203 33 373 89 117 39 240 67 359 81 64 8 247 -3 327 -19z m5677 0
c38 -8 103 -31 145 -49 99 -45 192 -72 316 -94 l100 -17 3 -247 c1 -137 -1
-248 -6 -248 -4 0 -46 -5 -92 -10 -112 -14 -202 -41 -330 -100 -129 -59 -239
-85 -317 -75 -40 5 -58 3 -64 -6 -6 -10 -31 -10 -126 -1 -151 15 -263 42 -381
93 -121 52 -176 65 -319 79 -65 6 -121 15 -126 19 -4 4 -6 117 -5 252 l3 244
90 13 c112 15 215 43 325 87 172 69 280 85 535 80 112 -3 206 -10 249 -20z
m-1929 -14 c55 -11 154 -39 220 -61 125 -42 311 -80 396 -80 l49 0 0 -254 0
-254 -77 -6 c-129 -11 -262 -35 -332 -60 -36 -14 -103 -38 -148 -55 -116 -43
-226 -61 -367 -61 -156 0 -277 21 -445 76 -74 24 -166 50 -205 59 -65 13 -260
35 -313 35 l-23 0 0 250 0 250 78 0 c99 0 201 25 384 94 132 50 236 77 338 90
86 11 348 -3 445 -23z m2925 -399 c0 -164 -3 -301 -6 -304 -3 -4 -34 2 -68 12
-59 16 -136 31 -248 45 l-48 6 0 251 c0 225 2 250 16 244 22 -8 218 11 279 28
28 7 56 14 63 15 9 1 12 -65 12 -297z m-9492 -331 c45 -11 126 -41 180 -65
146 -67 326 -106 489 -106 l63 0 0 -276 0 -276 -57 7 c-74 8 -241 -9 -345 -36
-45 -11 -130 -43 -190 -70 -186 -85 -388 -118 -606 -99 -146 13 -223 33 -345
87 -83 37 -190 70 -320 97 l-27 6 0 275 0 275 23 4 c12 2 60 10 107 16 102 14
222 51 310 95 150 75 261 96 475 91 118 -3 181 -10 243 -25z m9312 -2 c52 -10
113 -25 135 -32 l40 -14 3 -396 2 -396 -23 -15 c-31 -21 -176 -54 -272 -62
-162 -13 -409 31 -562 100 -89 39 -170 62 -260 72 l-63 7 0 282 0 283 23 6
c12 3 34 6 48 6 52 0 185 41 288 89 128 59 207 81 326 90 120 8 200 3 315 -20z
m-5553 -9 c51 -10 117 -30 147 -44 133 -63 343 -119 494 -132 l82 -7 0 -268 0
-269 -77 0 c-191 0 -349 -33 -504 -106 -113 -52 -195 -72 -339 -80 -198 -12
-416 24 -588 97 -73 31 -233 76 -279 79 -2 0 -3 128 -3 284 l0 284 81 12 c104
15 196 43 282 86 170 86 459 112 704 64z m3767 4 c58 -9 121 -28 175 -53 143
-64 350 -111 494 -111 l57 0 0 -280 0 -280 -92 0 c-196 0 -372 -31 -514 -90
-146 -60 -240 -81 -400 -87 -179 -7 -292 11 -504 79 -103 33 -194 55 -270 65
-63 9 -121 17 -127 19 -10 3 -13 69 -13 288 l0 285 33 5 c17 3 60 8 95 11 88
9 195 37 309 83 54 22 132 47 174 56 158 36 401 40 583 10z m-5658 -3 c49 -10
119 -31 155 -46 182 -76 297 -103 487 -112 l122 -6 0 -281 0 -281 -113 -2
c-146 -3 -296 -32 -480 -93 -198 -66 -291 -83 -462 -83 -198 0 -327 27 -485
101 -80 37 -183 69 -250 78 l-50 7 2 280 3 281 94 14 c53 7 167 37 260 67 143
46 243 71 351 88 76 12 281 5 366 -12z m-3441 -131 c78 -20 226 -40 298 -40
l47 0 0 -270 0 -270 -77 0 c-113 0 -212 -16 -351 -56 l-22 -6 0 337 c0 317 1
337 18 330 9 -4 49 -15 87 -25z m490 -671 c55 -11 138 -36 185 -56 208 -87
360 -122 528 -123 l62 0 0 -289 0 -290 -57 -5 c-172 -18 -286 -47 -393 -101
-84 -42 -204 -80 -305 -95 -171 -27 -437 -9 -562 38 l-48 18 -3 423 c-1 275 1
428 8 436 15 18 143 54 230 64 98 12 230 5 355 -20z m1985 1 c47 -12 128 -42
180 -66 138 -62 324 -104 467 -104 l43 0 -2 -307 -3 -308 -80 -7 c-112 -10
-206 -32 -380 -88 -201 -66 -289 -81 -460 -80 -134 0 -195 6 -297 29 -54 13
-158 50 -174 63 -44 34 -288 98 -374 98 -75 0 -70 -20 -70 305 l0 292 68 7
c109 10 225 42 341 95 94 43 197 77 291 95 14 2 102 3 195 1 136 -2 187 -7
255 -25z m7405 10 c135 -13 206 -30 304 -75 89 -40 246 -82 346 -92 l70 -8 3
-302 2 -301 -62 -7 c-113 -12 -227 -44 -336 -94 -134 -62 -187 -77 -313 -91
-183 -20 -430 18 -597 94 -106 48 -175 65 -324 78 l-128 12 0 307 0 306 68 6
c92 9 203 38 319 85 193 78 404 104 648 82z m-5540 -19 c50 -10 134 -37 187
-60 118 -50 222 -76 374 -92 l114 -13 0 -302 0 -301 -102 -12 c-141 -16 -216
-36 -329 -87 -123 -56 -219 -81 -350 -89 -201 -14 -427 23 -598 97 -93 39
-229 72 -353 84 l-58 5 0 304 0 304 33 5 c152 22 241 41 343 76 228 78 333 98
519 99 91 0 157 -5 220 -18z m3712 -7 c50 -7 160 -36 245 -63 160 -51 305 -81
392 -81 28 0 61 -3 74 -6 l22 -6 0 -303 0 -302 -92 -7 c-132 -10 -279 -42
-373 -80 -170 -70 -295 -96 -465 -96 -142 0 -264 22 -447 81 -173 56 -270 75
-430 85 l-113 7 0 301 0 301 73 1 c103 2 169 18 362 89 94 34 197 68 230 75
139 29 348 31 522 4z m3013 -460 l0 -366 -22 5 c-13 3 -59 14 -103 26 -44 12
-124 27 -177 33 l-98 11 0 298 0 299 54 0 c77 0 198 18 264 40 31 10 63 18 70
19 9 1 12 -78 12 -365z m-9500 -384 c47 -12 123 -40 169 -61 105 -50 198 -76
331 -94 58 -8 111 -15 118 -15 9 0 12 -53 12 -230 l0 -230 -53 0 c-155 0 -317
-37 -482 -110 -197 -87 -298 -105 -542 -97 -192 6 -269 22 -414 87 -101 45
-208 77 -319 94 l-75 12 -3 230 -2 230 122 12 c148 14 254 40 362 88 108 49
231 92 297 103 30 6 131 8 224 7 136 -3 187 -8 255 -26z m9185 20 c101 -12
246 -45 288 -66 l27 -15 0 -332 c0 -182 -4 -337 -8 -344 -12 -18 -99 -53 -192
-75 -65 -15 -117 -20 -220 -20 -195 1 -340 32 -539 117 -58 24 -149 45 -273
60 l-48 6 0 237 0 238 113 12 c137 14 192 30 327 92 189 87 332 111 525 90z
m-5445 -26 c47 -8 115 -29 151 -44 142 -63 377 -129 457 -130 l32 0 0 -235 0
-235 -58 0 c-152 0 -328 -38 -456 -99 -112 -53 -170 -69 -302 -82 -179 -19
-437 12 -569 68 -127 53 -230 85 -311 96 l-84 11 0 242 0 241 94 7 c123 8 229
36 346 91 151 71 298 97 500 90 64 -3 154 -12 200 -21z m3781 2 c41 -8 104
-26 140 -41 161 -68 252 -92 457 -121 l32 -5 0 -238 0 -238 -132 -6 c-168 -9
-283 -33 -428 -90 -175 -69 -246 -82 -440 -82 -188 0 -239 9 -456 79 -145 46
-256 70 -381 81 l-73 7 0 249 0 249 96 0 c127 0 271 30 414 87 125 49 205 69
338 83 108 11 332 4 433 -14z m-5616 -11 c33 -9 102 -34 152 -56 111 -47 220
-74 366 -90 l107 -12 0 -237 0 -237 -122 -12 c-161 -15 -239 -32 -417 -91
-207 -69 -298 -83 -501 -77 -185 5 -308 30 -416 85 -77 39 -199 77 -296 92
l-78 13 0 233 0 232 68 7 c127 12 238 37 402 90 230 74 298 85 505 81 119 -3
188 -9 230 -21z m-3435 -134 c52 -11 111 -21 130 -21 19 0 45 -3 58 -6 l22 -6
0 -229 0 -229 -67 0 c-60 -1 -144 -12 -250 -35 l-33 -7 0 282 0 282 23 -5 c12
-3 65 -15 117 -26z m2345 -573 c55 -10 136 -35 180 -55 163 -73 275 -102 458
-118 l67 -7 0 -303 0 -303 -72 -7 c-131 -11 -240 -36 -408 -90 -238 -77 -258
-80 -475 -80 -223 1 -306 17 -465 90 -104 47 -211 78 -333 94 -43 6 -80 11
-83 11 -2 0 -3 132 -2 293 l3 292 73 7 c115 12 238 45 342 92 122 56 199 81
291 95 150 23 269 20 424 -11z m-1954 -4 c87 -16 178 -47 297 -99 95 -42 224
-70 365 -80 l97 -7 0 -288 0 -287 -97 -7 c-127 -10 -263 -45 -382 -100 -119
-54 -171 -71 -285 -91 -146 -25 -427 -17 -503 15 l-23 10 0 449 c0 347 3 451
13 458 16 13 87 31 162 43 75 11 255 3 356 -16z m9529 -9 c47 -9 125 -34 173
-56 90 -40 240 -82 341 -94 l56 -7 0 -303 0 -302 -83 -6 c-113 -9 -222 -40
-347 -97 -167 -77 -206 -85 -420 -85 -168 0 -195 3 -294 28 -60 15 -148 45
-196 67 -139 62 -219 75 -470 75 -254 -1 -337 -14 -505 -80 -194 -76 -339
-102 -520 -91 -132 8 -250 33 -408 86 -135 46 -250 68 -394 77 l-103 6 0 302
0 303 118 4 c126 5 93 -4 483 133 97 34 206 48 374 48 181 0 303 -19 465 -74
160 -53 269 -78 383 -85 l97 -7 0 -304 0 -303 30 0 30 0 0 304 0 303 79 7
c101 8 210 36 339 86 118 46 195 66 313 79 113 13 355 5 459 -14z m-5676 0
c42 -8 116 -30 164 -50 154 -64 231 -83 445 -110 l47 -6 0 -305 0 -304 -44 0
c-132 0 -287 -36 -416 -95 -119 -55 -188 -74 -315 -84 -215 -18 -459 20 -655
102 -90 38 -181 60 -292 72 l-68 7 0 303 0 303 23 6 c12 3 38 6 58 6 68 0 203
31 350 80 80 27 182 56 225 64 43 8 88 17 99 19 51 11 309 6 379 -8z m6786
-480 c0 -217 -3 -395 -8 -395 -4 0 -41 13 -82 29 -89 34 -228 67 -322 76 l-68
7 0 298 0 297 113 6 c112 7 242 32 307 61 19 8 41 15 48 16 9 0 12 -85 12
-395z m-9764 -346 c131 -14 221 -39 339 -92 116 -52 236 -84 346 -93 l79 -7 0
-298 0 -298 -47 -6 c-152 -20 -244 -47 -383 -111 -161 -73 -242 -89 -470 -89
-225 0 -301 13 -440 75 -127 56 -241 90 -375 109 l-120 17 0 295 0 294 100 7
c125 9 269 45 371 93 108 50 197 80 280 94 140 23 193 25 320 10z m9444 -19
c92 -20 192 -51 258 -81 l62 -28 -2 -383 -3 -383 -55 -27 c-90 -44 -173 -61
-325 -66 -210 -7 -381 25 -555 103 -88 39 -197 63 -326 72 l-94 6 0 303 0 303
33 5 c17 3 59 8 92 11 93 9 171 32 285 85 177 82 270 101 455 95 66 -2 145 -9
175 -15z m-7415 -16 c39 -8 120 -35 180 -59 128 -52 246 -82 365 -92 l85 -8 3
-312 2 -313 -36 0 c-65 0 -236 -40 -384 -90 -174 -59 -294 -80 -455 -80 -195
0 -328 27 -485 100 -109 50 -213 77 -357 92 l-113 12 0 292 0 292 23 6 c12 3
45 6 73 6 87 0 222 29 374 79 164 55 259 78 375 91 98 10 256 3 350 -16z
m1883 2 c41 -9 104 -29 140 -45 167 -72 395 -131 511 -131 l61 0 0 -300 0
-300 -67 0 c-77 0 -222 -22 -303 -45 -30 -9 -98 -36 -150 -60 -129 -59 -222
-77 -395 -78 -217 0 -362 28 -538 102 -106 46 -203 68 -340 77 l-97 7 0 301 0
302 123 11 c150 15 215 31 337 88 162 75 278 96 500 90 80 -2 178 -10 218 -19z
m3787 -1 c44 -9 114 -32 155 -50 105 -47 238 -84 350 -96 52 -6 105 -13 118
-15 l22 -4 -2 -303 -3 -302 -100 -8 c-140 -11 -264 -38 -375 -82 -190 -76
-338 -101 -520 -91 -135 7 -240 29 -405 84 -141 48 -243 68 -383 78 l-102 7 0
312 0 312 88 6 c126 8 232 33 360 83 193 76 306 95 552 89 102 -2 196 -10 245
-20z m-8892 -165 l57 0 0 -299 0 -298 -72 -7 c-40 -4 -99 -13 -130 -20 -32 -7
-60 -11 -63 -8 -6 7 -7 647 0 653 2 3 37 0 77 -7 40 -7 99 -13 131 -14z m2143
-661 c129 -14 230 -41 335 -89 103 -48 251 -88 364 -98 l80 -7 3 -296 2 -296
-62 -7 c-105 -12 -196 -34 -353 -85 -236 -78 -401 -101 -587 -81 -137 14 -239
40 -347 89 -116 53 -204 79 -314 92 -51 6 -111 13 -134 15 l-43 5 0 278 0 278
98 6 c132 9 241 37 371 97 209 95 375 123 587 99z m-1919 -10 c119 -16 223
-45 341 -95 134 -58 233 -83 359 -92 l98 -7 0 -280 0 -280 -75 -7 c-100 -10
-229 -48 -349 -103 -123 -56 -222 -82 -370 -96 -123 -11 -309 0 -393 24 l-43
13 0 444 0 444 45 13 c107 31 258 40 387 22z m3953 -26 c41 -8 118 -33 170
-55 109 -46 206 -72 335 -91 l90 -12 0 -295 0 -295 -75 -7 c-110 -11 -214 -41
-326 -92 -122 -56 -197 -74 -339 -82 -204 -12 -420 23 -593 97 -114 49 -236
76 -362 81 l-90 3 0 291 0 292 31 6 c17 3 51 6 75 6 71 0 233 35 355 78 281
97 505 120 729 75z m5668 3 c40 -8 107 -31 150 -50 95 -42 194 -73 292 -89
l75 -13 0 -294 0 -295 -59 -7 c-90 -12 -199 -44 -276 -83 -169 -85 -346 -116
-545 -96 -140 14 -280 49 -382 95 -43 19 -105 41 -138 50 -68 17 -229 36 -305
36 l-50 0 0 294 0 293 88 6 c117 8 214 30 325 73 126 49 244 81 341 93 107 13
392 5 484 -13z m-1946 -11 c48 -8 152 -36 230 -61 159 -51 240 -69 346 -80
l72 -7 0 -293 0 -293 -42 -5 c-24 -3 -68 -8 -98 -11 -102 -11 -185 -33 -300
-78 -153 -61 -286 -87 -437 -87 -158 0 -272 20 -458 80 -174 56 -285 77 -462
86 l-123 7 0 291 0 291 128 0 c145 0 161 4 383 86 142 52 252 81 364 93 74 8
309 -3 397 -19z m3058 -450 c0 -212 -1 -385 -2 -385 -2 0 -46 15 -99 34 -109
39 -215 61 -341 72 l-88 7 0 288 0 289 53 -6 c89 -10 261 13 367 50 52 19 98
34 103 35 4 0 7 -172 7 -384z m-9590 -365 c47 -12 128 -42 180 -65 131 -60
212 -81 383 -100 l57 -6 -2 -272 -3 -271 -81 -12 c-100 -14 -210 -47 -286 -85
-165 -83 -334 -115 -570 -106 -174 6 -270 26 -388 80 -152 70 -348 117 -492
117 l-68 0 0 268 0 268 132 11 c163 15 263 40 388 97 107 50 161 69 240 85 30
6 64 13 75 15 11 3 94 3 185 2 130 -3 183 -9 250 -26z m9288 4 c90 -16 240
-64 278 -89 l24 -15 0 -370 c0 -423 13 -375 -111 -411 -94 -27 -328 -37 -450
-19 -105 15 -234 52 -329 95 -99 44 -206 65 -367 72 l-133 6 0 277 0 277 98 6
c132 9 238 36 368 96 213 98 381 118 622 75z m-5548 -10 c47 -9 120 -31 164
-50 104 -46 283 -100 385 -116 l81 -12 0 -273 0 -273 -22 -4 c-190 -33 -246
-48 -335 -89 -123 -57 -183 -74 -308 -87 -213 -23 -457 14 -658 99 -111 48
-212 69 -358 78 l-109 6 0 277 0 277 108 6 c139 9 215 28 333 82 209 98 459
125 719 79z m3781 1 c41 -7 104 -25 140 -40 157 -66 249 -91 447 -121 l32 -5
0 -278 0 -278 -31 -7 c-17 -3 -46 -6 -63 -6 -63 0 -214 -39 -326 -83 -175 -69
-247 -82 -435 -82 -183 1 -258 14 -442 76 -170 57 -293 80 -471 86 l-152 6 2
286 3 286 28 -3 c52 -5 252 18 333 38 43 11 126 39 183 61 119 47 207 67 341
79 114 10 306 3 411 -15z m-5611 -13 c41 -11 112 -36 156 -56 98 -43 213 -72
351 -87 l103 -12 0 -281 0 -282 -105 -17 c-57 -9 -181 -41 -274 -72 -209 -68
-306 -85 -475 -85 -198 0 -319 25 -487 101 -129 59 -315 99 -456 99 l-43 0 0
269 0 268 88 7 c133 11 233 33 392 86 127 42 232 68 335 84 17 2 100 3 185 1
116 -2 174 -8 230 -23z m-3320 -152 c19 0 45 -3 58 -6 l22 -6 -2 -271 -3 -271
-75 -12 c-41 -7 -94 -20 -117 -28 -22 -8 -44 -12 -47 -9 -7 8 -8 618 -1 625 3
2 33 -1 67 -8 35 -8 79 -14 98 -14z m2229 -610 c132 -14 234 -41 342 -90 103
-48 251 -88 364 -98 l80 -7 3 -311 2 -312 -97 -17 c-54 -10 -174 -42 -266 -71
-224 -72 -302 -84 -507 -80 -195 5 -283 23 -430 91 -152 69 -324 105 -507 105
l-83 0 0 290 c0 225 3 290 13 290 6 0 62 5 123 10 138 12 278 47 380 95 141
66 225 90 389 109 60 6 95 6 194 -4z m-1889 -15 c126 -19 221 -47 328 -94 112
-51 179 -69 299 -85 l98 -12 3 -297 2 -297 -27 -5 c-104 -21 -197 -51 -290
-93 -188 -85 -314 -108 -547 -99 -156 6 -257 23 -332 57 l-44 19 0 426 0 426
33 13 c32 14 155 42 212 49 71 9 177 6 265 -8z m3925 -21 c44 -9 107 -27 140
-41 33 -14 88 -36 121 -48 68 -26 254 -65 312 -65 20 0 47 -3 60 -6 l22 -6 0
-304 c0 -236 -3 -304 -12 -304 -32 -1 -159 -22 -218 -36 -36 -9 -112 -38 -170
-64 -58 -26 -127 -52 -154 -59 -92 -23 -255 -31 -380 -20 -184 16 -251 32
-438 108 -105 42 -200 61 -345 68 l-123 6 0 303 0 302 68 7 c145 13 261 37
403 85 288 96 487 116 714 74z m5672 2 c40 -8 108 -30 151 -50 133 -58 321
-106 420 -106 l32 0 0 -303 0 -303 -88 -12 c-105 -14 -183 -39 -312 -98 -154
-70 -198 -78 -410 -78 -166 0 -196 3 -292 27 -58 14 -146 44 -195 66 -128 57
-207 72 -430 78 l-193 6 0 307 0 307 138 6 c158 7 251 27 399 86 177 72 307
92 548 85 88 -2 192 -10 232 -18z m-1944 -11 c48 -8 156 -37 240 -64 84 -27
190 -55 237 -63 l85 -14 3 -316 2 -315 -92 -17 c-51 -10 -144 -37 -206 -62
-184 -73 -261 -88 -447 -88 -185 -1 -257 12 -464 80 -150 50 -257 71 -403 81
l-98 6 0 304 0 303 48 0 c66 0 169 28 333 89 162 60 230 79 336 91 103 12 316
4 426 -15z m3007 -456 c0 -239 -3 -359 -10 -359 -6 0 -45 9 -88 20 -89 23
-198 40 -259 40 l-43 0 0 299 0 298 93 7 c91 7 244 38 275 55 9 5 20 7 24 5 5
-3 8 -167 8 -365z m-9651 -359 c134 -14 233 -41 350 -94 108 -49 231 -83 336
-91 39 -3 89 -8 113 -11 l42 -5 0 -253 0 -253 -110 -12 c-125 -13 -254 -48
-338 -90 -157 -79 -309 -111 -523 -111 -157 0 -285 19 -373 56 -174 72 -213
87 -284 105 -42 11 -121 25 -175 31 l-97 12 2 255 3 256 45 2 c158 8 321 48
443 109 113 57 281 97 428 103 20 0 82 -4 138 -9z m9492 -29 c47 -11 102 -26
123 -35 l36 -15 -2 -397 -3 -398 -50 -13 c-202 -54 -526 -21 -742 76 -101 45
-197 67 -336 77 l-97 7 0 262 0 263 23 6 c12 3 40 6 62 6 70 0 206 39 315 89
179 83 270 102 460 96 70 -3 163 -13 211 -24z m-7441 -11 c47 -10 123 -35 169
-55 108 -47 239 -80 375 -94 60 -6 118 -11 128 -11 17 0 18 -15 18 -264 l0
-265 -47 -5 c-153 -19 -267 -44 -415 -92 -231 -75 -313 -87 -518 -81 -195 6
-286 26 -432 93 -96 43 -213 77 -313 89 -27 3 -65 8 -82 11 l-33 5 0 259 0
260 44 0 c80 0 216 30 385 85 154 50 286 79 401 89 78 6 232 -5 320 -24z
m1776 20 c99 -12 187 -35 235 -59 92 -48 369 -123 489 -133 l35 -3 3 -256 2
-255 -107 -12 c-139 -14 -237 -40 -343 -90 -112 -52 -169 -69 -293 -82 -199
-23 -490 17 -627 85 -92 46 -205 74 -357 90 l-63 7 0 264 c0 145 3 264 8 264
4 0 48 5 97 10 109 12 207 40 297 86 157 79 401 112 624 84z m3879 -15 c44 -9
114 -32 155 -50 103 -46 234 -83 343 -96 51 -6 107 -13 125 -15 l32 -5 0 -264
0 -265 -44 0 c-25 0 -98 -7 -163 -15 -111 -15 -148 -25 -363 -103 -131 -48
-251 -65 -405 -59 -153 6 -247 24 -410 79 -148 49 -280 76 -424 84 l-111 7 0
274 0 273 69 0 c37 0 108 7 157 15 84 15 128 29 334 104 47 17 133 37 190 45
134 20 402 15 515 -9z m-9120 -130 c55 -14 144 -29 198 -32 l97 -6 0 -257 0
-257 -67 -7 c-92 -9 -192 -33 -263 -62 -33 -13 -62 -24 -65 -24 -3 0 -5 151
-5 335 0 184 1 335 3 335 1 0 47 -11 102 -25z m2360 -615 c144 -14 247 -40
364 -94 120 -55 231 -83 391 -99 l125 -12 0 -235 0 -235 -917 -3 -918 -2 0
239 0 238 61 7 c96 11 237 50 324 91 147 68 252 96 400 108 22 2 45 4 50 5 6
1 60 -3 120 -8z m-1815 -25 c96 -20 186 -49 279 -92 107 -48 207 -71 369 -85
l142 -11 0 -232 0 -232 -717 1 -718 1 0 285 0 285 55 27 c49 24 180 60 265 72
56 8 250 -3 325 -19z m3905 -20 c39 -10 104 -33 145 -51 122 -53 241 -81 423
-99 l67 -7 0 -239 0 -239 -890 0 -890 0 0 245 0 245 34 0 c69 0 216 33 356 79
165 55 275 80 399 89 113 9 269 -1 356 -23z m5604 15 c68 -12 123 -29 230 -75
81 -34 229 -72 323 -82 l73 -8 0 -240 0 -240 -877 -3 -878 -2 0 244 0 244 58
6 c97 12 214 43 319 85 114 46 194 67 314 80 98 11 346 6 438 -9z m-1920 -15
c52 -9 154 -35 227 -60 167 -55 262 -75 392 -82 l102 -6 0 -243 0 -244 -955 0
-955 0 0 235 0 235 73 0 c90 0 180 22 358 89 76 28 163 58 195 66 143 36 374
40 563 10z m2926 -376 l0 -254 -155 0 -155 0 -3 236 -2 236 92 7 c51 4 118 13
148 20 30 8 60 13 65 12 6 -2 10 -96 10 -257z"/>
</g>
</svg>
