<?xml version="1.0" standalone="no"?>
<!DOCTYPE svg PUBLIC "-//W3C//DTD SVG 20010904//EN"
 "http://www.w3.org/TR/2001/REC-SVG-20010904/DTD/svg10.dtd">
<svg version="1.0" xmlns="http://www.w3.org/2000/svg"
 width="1125.000000pt" height="900.000000pt" viewBox="0 0 1125.000000 900.000000"
 preserveAspectRatio="xMidYMid meet">
<metadata>
Created by potrace 1.13, written by Peter Selinger 2001-2015
</metadata>
<g transform="translate(0.000000,900.000000) scale(0.100000,-0.100000)"
fill="#000000" stroke="none">
<path d="M0 4500 l0 -4500 5625 0 5625 0 0 4500 0 4500 -5625 0 -5625 0 0
-4500z m11205 3885 l0 -570 -72 -3 -73 -3 0 -29 0 -29 73 -3 72 -3 3 -267 2
-268 -537 -2 -538 -3 0 -30 0 -30 538 -3 537 -2 -2 -258 -3 -257 -5580 0
-5580 0 -3 257 -2 257 127 3 128 3 0 30 0 30 -128 3 -127 3 2 267 3 267 588 3
587 2 0 30 0 30 -587 2 -588 3 -3 560 c-1 308 0 566 3 573 3 10 1125 12 5582
10 l5578 -3 0 -570z m-10185 -2135 l0 -310 -490 0 -490 0 0 303 c0 167 3 307
7 310 3 4 224 7 490 7 l483 0 0 -310z m3070 0 l0 -310 -1505 0 -1505 0 0 310
0 310 1505 0 1505 0 0 -310z m3160 0 l0 -310 -1550 0 -1550 0 0 310 0 310
1550 0 1550 0 0 -310z m3070 0 l0 -310 -1505 0 -1505 0 0 310 0 310 1505 0
1505 0 0 -310z m888 -2 l2 -308 -410 0 -410 0 0 310 0 310 408 -2 407 -3 3
-307z m0 -960 l2 -588 -520 0 -520 0 0 -35 0 -35 520 0 520 0 0 -275 0 -275
-75 0 -75 0 0 -30 0 -29 73 -3 72 -3 0 -255 0 -255 -5580 0 -5580 0 0 255 0
255 588 3 587 2 0 30 0 30 -590 0 -590 0 0 275 0 275 145 0 145 0 0 35 0 35
-145 0 -145 0 0 583 c0 321 3 587 7 590 3 4 2515 6 5582 5 l5576 -3 3 -587z
m-8928 -2153 l0 -305 -1118 2 -1117 3 -3 290 c-1 159 0 295 3 302 3 10 231 13
1120 13 l1115 0 0 -305z m2430 0 l0 -305 -1180 0 -1180 0 0 305 0 305 1180 0
1180 0 0 -305z m1970 0 l0 -305 -955 0 -955 0 0 305 0 305 955 0 955 0 0 -305z
m2500 0 l0 -305 -1220 0 -1220 0 0 305 0 305 1220 0 1220 0 0 -305z m2025 0
l0 -300 -982 -3 -983 -2 0 305 0 305 983 -2 982 -3 0 -300z m0 -945 l0 -575
-387 -3 -388 -2 0 -30 0 -30 390 0 390 0 0 -275 0 -275 -90 0 -90 0 0 -35 0
-35 90 0 90 0 -2 -237 -3 -238 -5580 0 -5580 0 -3 238 -2 237 575 0 575 0 0
35 0 35 -575 0 -575 0 0 275 0 275 275 0 275 0 0 30 0 30 -272 2 -273 3 -3
565 c-1 311 0 571 3 578 3 10 1125 12 5582 10 l5578 -3 0 -575z m-9207 -1972
l-3 -173 -975 0 -975 0 -3 160 c-1 87 0 165 2 172 4 11 194 13 981 13 l975 0
-2 -172z m2920 0 l-3 -173 -1425 0 -1425 0 -3 173 -2 172 1430 0 1430 0 -2
-172z m2860 0 l-3 -173 -1397 -3 -1398 -2 0 175 0 175 1400 0 1400 0 -2 -172z
m3427 -3 l0 -170 -1680 0 -1680 0 -3 173 -2 172 1682 -2 1683 -3 0 -170z"/>
<path d="M530 8440 l0 -30 663 2 662 3 3 28 3 27 -665 0 -666 0 0 -30z"/>
<path d="M2390 8440 l0 -30 660 0 660 0 0 30 0 30 -660 0 -660 0 0 -30z"/>
<path d="M4240 8440 l0 -30 665 0 665 0 0 30 0 30 -665 0 -665 0 0 -30z"/>
<path d="M6120 8440 l0 -30 663 2 662 3 3 28 3 27 -665 0 -666 0 0 -30z"/>
<path d="M7980 8440 l0 -30 660 0 660 0 0 30 0 30 -660 0 -660 0 0 -30z"/>
<path d="M9830 8440 l0 -30 665 0 665 0 0 30 0 30 -665 0 -665 0 0 -30z"/>
<path d="M1760 7780 l0 -30 660 0 660 0 0 30 0 30 -660 0 -660 0 0 -30z"/>
<path d="M3610 7780 l0 -30 665 0 665 0 0 30 0 30 -665 0 -665 0 0 -30z"/>
<path d="M5480 7780 l0 -30 665 0 665 0 0 30 0 30 -665 0 -665 0 0 -30z"/>
<path d="M7350 7780 l0 -30 660 0 660 0 0 30 0 30 -660 0 -660 0 0 -30z"/>
<path d="M9200 7780 l0 -30 665 0 665 0 0 30 0 30 -665 0 -665 0 0 -30z"/>
<path d="M830 7175 l0 -35 660 0 660 0 0 35 0 35 -660 0 -660 0 0 -35z"/>
<path d="M2684 7196 c-3 -8 -4 -23 -2 -33 3 -17 36 -18 666 -21 l662 -2 0 35
0 35 -660 0 c-566 0 -661 -2 -666 -14z"/>
<path d="M4544 7196 c-3 -8 -4 -23 -2 -33 3 -17 36 -18 666 -21 l662 -2 0 35
0 35 -660 0 c-566 0 -661 -2 -666 -14z"/>
<path d="M6420 7175 l0 -35 660 0 660 0 0 35 0 35 -660 0 -660 0 0 -35z"/>
<path d="M8274 7196 c-3 -8 -4 -23 -2 -33 3 -17 36 -18 666 -21 l662 -2 0 35
0 35 -660 0 c-566 0 -661 -2 -666 -14z"/>
<path d="M60 5320 l0 -30 665 0 665 0 0 30 0 30 -665 0 -665 0 0 -30z"/>
<path d="M1920 5320 l0 -30 665 0 665 0 0 30 0 30 -665 0 -665 0 0 -30z"/>
<path d="M3780 5320 l0 -30 665 0 665 0 0 30 0 30 -665 0 -665 0 0 -30z"/>
<path d="M5650 5320 l0 -30 660 0 660 0 0 30 0 30 -660 0 -660 0 0 -30z"/>
<path d="M7510 5320 l0 -30 665 0 665 0 0 30 0 30 -665 0 -665 0 0 -30z"/>
<path d="M9370 5320 l0 -30 665 0 665 0 0 30 0 30 -665 0 -665 0 0 -30z"/>
<path d="M860 4665 l0 -35 663 2 662 3 0 30 0 30 -662 3 -663 2 0 -35z"/>
<path d="M2720 4665 l0 -35 660 0 660 0 0 35 0 35 -660 0 -660 0 0 -35z"/>
<path d="M4580 4665 l0 -35 660 0 660 0 0 35 0 35 -660 0 -660 0 0 -35z"/>
<path d="M6450 4665 l0 -35 663 2 662 3 0 30 0 30 -662 3 -663 2 0 -35z"/>
<path d="M8310 4665 l0 -35 660 0 660 0 0 35 0 35 -660 0 -660 0 0 -35z"/>
<path d="M1760 4050 l0 -30 660 0 660 0 0 30 0 30 -660 0 -660 0 0 -30z"/>
<path d="M3610 4050 l0 -30 665 0 665 0 0 30 0 30 -665 0 -665 0 0 -30z"/>
<path d="M5480 4050 l0 -30 665 0 665 0 0 30 0 30 -665 0 -665 0 0 -30z"/>
<path d="M7350 4050 l0 -30 660 0 660 0 0 30 0 30 -660 0 -660 0 0 -30z"/>
<path d="M9207 4073 c-4 -3 -7 -17 -7 -30 l0 -23 665 0 665 0 0 30 0 30 -658
0 c-362 0 -662 -3 -665 -7z"/>
<path d="M230 2240 l0 -30 665 0 665 0 0 30 0 30 -665 0 -665 0 0 -30z"/>
<path d="M2090 2240 l0 -30 660 0 660 0 0 30 0 30 -660 0 -660 0 0 -30z"/>
<path d="M3950 2240 l0 -30 660 0 660 0 0 30 0 30 -660 0 -660 0 0 -30z"/>
<path d="M5810 2240 l0 -30 665 0 665 0 0 30 0 30 -665 0 -665 0 0 -30z"/>
<path d="M7680 2240 l0 -30 660 0 660 0 0 30 0 30 -660 0 -660 0 0 -30z"/>
<path d="M9540 2240 l0 -30 660 0 660 0 0 30 0 30 -660 0 -660 0 0 -30z"/>
<path d="M1130 1580 l0 -30 660 0 660 0 0 30 0 30 -660 0 -660 0 0 -30z"/>
<path d="M2980 1580 l0 -30 665 0 665 0 0 30 0 30 -665 0 -665 0 0 -30z"/>
<path d="M4840 1580 l0 -30 665 0 665 0 0 30 0 30 -665 0 -665 0 0 -30z"/>
<path d="M6720 1580 l0 -30 660 0 660 0 0 30 0 30 -660 0 -660 0 0 -30z"/>
<path d="M8570 1580 l0 -30 665 0 665 0 0 30 0 30 -665 0 -665 0 0 -30z"/>
<path d="M1724 986 c-3 -8 -4 -23 -2 -33 3 -17 36 -18 666 -21 l662 -2 0 35 0
35 -660 0 c-566 0 -661 -2 -666 -14z"/>
<path d="M3580 965 l0 -35 663 2 662 3 0 30 0 30 -662 3 -663 2 0 -35z"/>
<path d="M5450 965 l0 -35 663 2 662 3 0 30 0 30 -662 3 -663 2 0 -35z"/>
<path d="M7314 986 c-3 -8 -4 -23 -2 -33 3 -17 36 -18 666 -21 l662 -2 0 35 0
35 -660 0 c-566 0 -661 -2 -666 -14z"/>
<path d="M9177 993 c-4 -3 -7 -19 -7 -35 l0 -28 663 2 662 3 0 30 0 30 -656 3
c-360 1 -659 -1 -662 -5z"/>
</g>
</svg>
