<?xml version="1.0" standalone="no"?>
<!DOCTYPE svg PUBLIC "-//W3C//DTD SVG 20010904//EN"
 "http://www.w3.org/TR/2001/REC-SVG-20010904/DTD/svg10.dtd">
<svg version="1.0" xmlns="http://www.w3.org/2000/svg"
 width="1125.000000pt" height="900.000000pt" viewBox="0 0 1125.000000 900.000000"
 preserveAspectRatio="xMidYMid meet">
<metadata>
Created by potrace 1.13, written by Peter Selinger 2001-2015
</metadata>
<g transform="translate(0.000000,900.000000) scale(0.100000,-0.100000)"
fill="#000000" stroke="none">
<path d="M0 4500 l0 -4500 5625 0 5625 0 0 4500 0 4500 -5625 0 -5625 0 0
-4500z m3078 4447 c-2 -7 -57 -97 -123 -200 l-120 -187 -1395 3 -1395 2 -3 26
c-2 18 26 72 93 185 54 87 102 165 107 172 16 18 2841 18 2836 -1z m970 -21
c28 -47 108 -91 217 -118 79 -20 115 -23 295 -23 156 1 223 5 280 18 104 23
199 73 229 120 l24 37 377 0 c207 0 379 -2 382 -6 5 -4 -211 -367 -230 -386
-4 -4 -616 -7 -1360 -6 l-1351 3 110 170 c60 94 119 182 130 198 l20 27 428 0
429 0 20 -34z m960 22 c-6 -21 -108 -67 -188 -85 -56 -13 -121 -17 -260 -17
-207 0 -295 14 -390 61 -103 53 -102 53 390 53 357 0 451 -3 448 -12z m3588
-5 c-4 -10 -57 -100 -118 -200 l-111 -183 -1333 0 c-734 0 -1334 3 -1334 6 0
5 132 223 207 342 l33 52 1331 0 c1256 0 1331 -1 1325 -17z m2609 -183 l0
-195 -1379 -3 c-1310 -2 -1378 -1 -1371 15 11 30 218 367 229 375 6 4 576 7
1266 5 l1255 -2 0 -195z m-9495 -266 c0 -3 -102 -176 -227 -385 l-228 -379
-607 0 -608 0 0 378 c0 208 3 382 7 385 8 9 1663 9 1663 1z m2670 1 c0 -7
-441 -738 -454 -753 -9 -9 -278 -12 -1304 -10 l-1292 3 216 360 c118 198 222
370 230 383 l14 22 1295 0 c712 0 1295 -2 1295 -5z m2720 -1 c0 -3 -102 -176
-227 -385 l-228 -379 -1322 0 c-728 0 -1323 2 -1323 5 0 5 375 629 437 728
l23 37 1320 0 c726 0 1320 -3 1320 -6z m3087 -1 c-28 -52 -443 -741 -451 -751
-9 -9 -320 -12 -1513 -10 l-1501 3 229 383 230 382 1505 0 c828 0 1503 -3
1501 -7z m1021 -380 l2 -383 -701 0 c-391 0 -699 4 -697 9 2 4 104 178 228
385 l225 376 470 -2 470 -3 3 -382z m-8197 -470 c-5 -10 -90 -148 -189 -308
l-179 -290 -1299 0 -1299 0 -3 285 c-1 157 0 295 3 308 l5 22 1486 0 c1411 0
1484 -1 1475 -17z m2817 9 c-1 -5 -86 -144 -188 -310 l-185 -301 -1368 -1
c-821 0 -1367 4 -1365 9 2 5 86 145 188 310 l185 301 1368 0 c753 0 1367 -4
1365 -8z m2642 2 c0 -4 -84 -143 -187 -310 l-187 -304 -1284 0 -1284 0 29 48
c15 27 100 166 188 310 l160 261 1283 1 c705 0 1282 -3 1282 -6z m2737 -34
c-3 -28 -51 -114 -161 -292 -85 -139 -161 -261 -168 -271 -12 -16 -85 -17
-1360 -15 l-1346 3 120 195 c66 107 152 246 190 308 l69 112 1331 0 1331 0 -6
-40z m1 -372 l-3 -203 -127 -3 c-71 -1 -128 0 -128 3 0 12 245 405 253 405 4
0 6 -91 5 -202z m-9340 -326 c-18 -32 -103 -178 -188 -325 l-155 -267 -740 3
-740 2 -3 310 c-1 170 0 315 3 322 3 10 195 13 930 13 l926 0 -33 -58z m2525
29 c-10 -15 -103 -162 -208 -324 l-190 -297 -1198 0 c-659 0 -1197 4 -1195 8
2 5 86 151 188 325 l185 317 1218 0 1219 0 -19 -29z m2777 24 c0 -3 -84 -149
-186 -325 l-187 -320 -1364 0 -1365 0 19 29 c10 15 104 162 208 325 l190 296
1343 0 c738 0 1342 -2 1342 -5z m3112 -27 c-11 -18 -93 -159 -182 -313 -89
-154 -168 -286 -174 -293 -9 -9 -324 -12 -1533 -10 l-1521 3 167 285 c91 157
176 302 188 323 l22 37 1526 0 1527 0 -20 -32z m923 -293 l0 -320 -602 -3
c-332 -1 -603 0 -603 3 0 3 84 149 186 325 l187 320 416 -2 416 -3 0 -320z
m-10817 -394 c-10 -27 -334 -560 -340 -561 -10 0 -11 554 -1 563 10 10 345 8
341 -2z m3112 2 c-1 -5 -105 -181 -233 -393 l-232 -385 -1495 0 -1495 0 1 42
c1 36 26 85 179 340 98 164 193 322 212 351 l33 52 1515 0 c833 0 1515 -3
1515 -7z m2506 -9 c-9 -24 -437 -736 -454 -756 -14 -17 -85 -18 -1222 -18
-664 0 -1209 3 -1212 6 -5 4 364 631 448 762 l14 22 1216 0 c1113 0 1216 -1
1210 -16z m2800 0 c-9 -24 -437 -736 -454 -756 -14 -17 -92 -18 -1369 -18
-1135 0 -1354 2 -1351 14 2 7 106 185 232 395 l229 381 1359 0 c1245 0 1360
-1 1354 -16z m2402 -349 c1 -198 0 -375 -3 -392 l-6 -33 -1384 0 c-994 0
-1385 3 -1385 11 0 6 104 184 231 395 l230 384 1157 -2 1157 -3 3 -360z
m-9520 -494 c-1 -4 -99 -169 -217 -365 l-214 -356 -606 2 -606 3 -3 363 -2
362 826 0 c459 0 824 -4 822 -9z m2730 -29 c-13 -21 -111 -186 -218 -365
l-195 -326 -1333 -1 c-1117 0 -1333 2 -1330 14 2 7 98 171 213 364 l210 351
1338 1 1338 0 -23 -38z m2430 -314 c-116 -194 -216 -359 -222 -366 -9 -9 -273
-12 -1279 -10 l-1267 3 217 363 218 362 1272 0 1272 0 -211 -352z m3320 328
c-7 -13 -105 -177 -218 -365 l-205 -341 -1522 0 c-838 0 -1523 3 -1523 6 0 3
97 167 216 365 l215 359 1525 0 1525 0 -13 -24z m1042 -336 c0 -279 -3 -362
-12 -365 -7 -3 -320 -4 -695 -3 l-681 3 216 362 217 362 478 1 477 0 0 -360z
m-8160 -436 c0 -3 -113 -186 -251 -405 l-252 -399 -1253 0 -1254 0 0 309 c0
170 4 320 9 334 5 13 30 56 56 95 l46 72 1449 0 c798 0 1450 -3 1450 -6z
m2748 -2 c-1 -5 -115 -187 -253 -405 l-250 -397 -1337 0 -1337 0 131 208 c72
114 187 296 255 405 l125 197 1335 0 c734 0 1333 -4 1331 -8z m2690 -30 c-13
-22 -126 -204 -253 -405 l-230 -366 -1319 -1 -1318 0 14 23 c8 12 120 189 248
392 128 204 237 376 242 383 8 9 285 12 1325 12 l1314 0 -23 -38z m2717 -82
l0 -115 -174 -275 c-95 -151 -178 -281 -185 -288 -9 -9 -295 -12 -1389 -10
l-1378 3 253 402 253 402 1310 -2 1310 -2 0 -115z m5 -465 l0 -225 -145 0
c-80 0 -145 2 -145 4 0 3 48 81 106 173 165 261 173 273 179 273 3 0 5 -101 5
-225z m-9293 -297 c-3 -7 -86 -143 -185 -303 l-180 -290 -756 -3 -756 -2 0 64
c0 36 3 67 7 69 5 3 44 -1 88 -9 44 -7 139 -13 210 -13 267 -1 475 60 520 154
30 64 -6 117 -110 166 -151 70 -454 89 -687 42 l-28 -5 0 64 c0 36 3 68 7 71
3 4 427 7 941 7 743 0 933 -3 929 -12z m2483 6 c0 -3 -86 -141 -191 -305
l-191 -299 -1195 0 c-984 0 -1194 2 -1190 13 3 7 87 145 187 305 l181 292
1200 0 c659 0 1199 -3 1199 -6z m2690 1 c0 -2 -84 -140 -186 -305 l-186 -300
-1309 0 c-720 0 -1309 3 -1309 6 0 4 86 141 191 305 l191 299 1304 0 c717 0
1304 -2 1304 -5z m3130 -6 c0 -7 -82 -144 -182 -305 l-182 -294 -1532 0 -1533
0 166 268 c91 147 177 284 190 305 l23 37 1525 0 c1129 0 1525 -3 1525 -11z
m988 -81 l3 -87 -29 -15 c-47 -24 -82 -73 -82 -113 0 -34 25 -67 94 -121 12
-10 16 -31 16 -97 l0 -85 -641 0 -641 0 14 23 c8 12 86 137 173 277 87 140
167 267 177 283 l20 27 446 -2 447 -3 3 -87z m-10613 -103 c44 -9 109 -30 145
-48 53 -26 66 -37 68 -59 12 -102 -423 -174 -703 -116 l-60 13 0 100 0 99 40
9 c138 30 369 31 510 2z m-227 -507 c-8 -13 -81 -137 -164 -275 -82 -139 -152
-253 -156 -253 -5 0 -8 124 -8 275 l0 275 171 0 171 0 -14 -22z m3100 0 c-8
-13 -101 -168 -207 -345 l-192 -323 -1509 0 c-831 0 -1510 3 -1510 6 0 3 91
158 202 345 l202 339 1514 0 1514 0 -14 -22z m2570 13 c-1 -5 -93 -160 -203
-345 l-200 -336 -1242 0 c-684 0 -1243 3 -1243 7 0 3 91 159 201 345 l202 338
1244 0 c730 0 1243 -4 1241 -9z m2760 0 c-1 -5 -93 -161 -203 -345 l-200 -336
-1343 0 -1343 0 12 22 c21 40 381 643 392 656 7 9 289 12 1349 12 819 0 1338
-4 1336 -9z m2412 -331 c0 -263 -3 -342 -12 -345 -7 -3 -624 -4 -1370 -3
l-1357 3 190 320 c105 176 197 330 205 343 l14 22 1165 0 1165 0 0 -340z
m-9484 -437 c-9 -16 -107 -176 -218 -358 l-203 -330 -633 -3 -632 -2 0 353 c0
195 3 357 7 360 3 4 386 7 850 7 l844 0 -15 -27z m2617 -2 c-10 -15 -115 -177
-233 -360 l-215 -331 -1258 0 c-692 0 -1257 4 -1255 9 2 4 100 166 218 359
l215 352 1273 0 1274 0 -19 -29z m2728 12 c-6 -10 -104 -171 -219 -358 l-209
-340 -1337 -3 -1337 -2 38 59 c21 32 126 194 233 360 l195 301 1323 0 c1257 0
1322 -1 1313 -17z m3012 -14 c-10 -17 -108 -177 -219 -357 l-200 -327 -1472
-3 c-810 -1 -1472 0 -1472 4 0 3 98 165 218 360 l217 354 1473 0 1473 0 -18
-31z m1125 -331 l2 -358 -736 0 c-430 0 -734 4 -732 9 2 5 100 167 218 360
l215 351 515 -3 515 -2 3 -357z m-8255 -476 c-15 -27 -129 -218 -253 -425
l-225 -377 -1217 0 -1218 0 0 425 0 425 1471 0 1471 0 -29 -48z m2608 -4 c-16
-29 -128 -219 -248 -423 l-219 -370 -1273 -3 -1273 -2 29 49 c15 26 129 217
253 424 l225 376 1268 1 1268 0 -30 -52z m2712 5 c-15 -27 -127 -217 -249
-423 l-222 -375 -1317 -3 c-849 -1 -1316 1 -1313 8 1 5 113 196 248 425 l245
415 1318 0 1318 0 -28 -47z m2925 18 c-7 -16 -118 -207 -247 -425 l-235 -396
-1422 0 -1422 0 251 425 251 425 1418 0 1418 0 -12 -29z m12 -476 l0 -345
-210 0 -210 0 27 48 c148 256 380 642 386 642 4 0 7 -155 7 -345z m-9897 -412
c4 -7 -313 -532 -343 -568 -11 -13 -65 -15 -469 -13 l-456 3 -3 280 c-1 154 0
285 3 292 3 10 136 13 634 13 346 0 632 -3 634 -7z m2786 -5 c0 -7 -78 -139
-173 -293 l-172 -280 -1352 -3 c-888 -1 -1352 1 -1352 8 0 9 320 540 342 568
8 9 292 12 1359 12 1073 0 1349 -3 1348 -12z m2658 -1 c-10 -26 -341 -562
-351 -569 -14 -10 -2564 -10 -2569 0 -4 7 312 530 342 566 12 15 117 16 1298
16 1047 0 1284 -2 1280 -13z m2983 5 c0 -12 -341 -566 -354 -574 -15 -10
-2896 -10 -2896 0 0 4 26 50 58 102 32 52 111 182 176 288 l118 192 1449 0
c797 0 1449 -4 1449 -8z m1465 -287 l0 -290 -869 -3 c-709 -2 -867 0 -863 11
10 26 341 562 351 569 6 4 319 7 696 5 l685 -2 0 -290z"/>
<path d="M8249 8295 c-159 -26 -274 -77 -304 -134 -47 -91 30 -165 223 -214
77 -19 111 -22 297 -21 183 1 220 3 290 22 156 43 225 94 225 164 0 77 -90
136 -264 174 -100 22 -359 27 -467 9z m449 -70 c136 -28 222 -74 222 -117 0
-24 -62 -62 -141 -86 -242 -74 -641 -45 -759 55 -38 32 -38 46 3 77 52 40 164
72 317 90 64 8 288 -4 358 -19z"/>
<path d="M1105 7535 c-164 -27 -277 -77 -309 -138 -34 -62 0 -120 97 -166 111
-52 199 -66 417 -66 218 0 306 14 417 66 95 45 128 99 99 161 -28 57 -117 103
-260 134 -103 22 -350 27 -461 9z m464 -75 c107 -22 194 -65 199 -99 19 -127
-547 -190 -814 -90 -76 29 -120 70 -104 99 24 45 159 92 319 110 105 12 290 3
400 -20z"/>
<path d="M5374 6836 c-296 -56 -388 -202 -190 -299 103 -51 219 -70 416 -71
250 -1 409 36 491 113 33 32 39 44 39 79 0 72 -67 121 -227 164 -101 27 -417
35 -529 14z m508 -74 c87 -21 165 -58 182 -85 38 -60 -118 -127 -345 -148
-275 -26 -602 53 -575 139 12 38 141 91 271 112 99 15 378 5 467 -18z"/>
<path d="M9799 6055 c-206 -33 -319 -100 -319 -189 0 -62 101 -127 255 -162
120 -28 458 -26 566 4 182 49 258 118 224 199 -25 60 -111 107 -255 140 -94
21 -365 26 -471 8z m456 -70 c44 -9 108 -29 142 -46 112 -54 93 -105 -57 -153
-247 -79 -666 -48 -777 56 -32 30 -29 44 17 77 43 31 154 65 265 80 94 13 312
6 410 -14z"/>
<path d="M2760 5253 c-234 -38 -350 -101 -350 -190 0 -73 94 -132 272 -170
112 -24 399 -25 508 -1 114 25 187 56 231 97 32 31 39 45 39 76 0 32 -7 45
-43 79 -79 76 -253 117 -492 115 -77 -1 -151 -4 -165 -6z m434 -77 c93 -21
192 -68 201 -96 15 -47 -70 -95 -225 -127 -93 -19 -358 -22 -450 -4 -140 26
-250 77 -250 116 0 41 122 98 260 120 106 18 366 12 464 -9z"/>
<path d="M6675 4384 c-183 -34 -279 -88 -291 -165 -8 -52 23 -91 98 -128 124
-60 293 -87 488 -77 212 11 352 49 424 116 72 68 50 140 -62 196 -99 50 -193
67 -397 70 -128 2 -203 -1 -260 -12z m513 -73 c189 -47 234 -110 119 -165
-155 -75 -432 -94 -659 -46 -98 21 -182 60 -199 92 -10 19 -8 25 19 49 38 34
123 66 226 84 118 21 384 13 494 -14z"/>
<path d="M4395 2924 c-157 -23 -284 -71 -328 -123 -79 -95 13 -187 238 -239
104 -24 412 -23 525 1 168 36 260 98 260 175 0 30 -7 45 -32 69 -84 79 -215
113 -458 118 -96 2 -188 1 -205 -1z m424 -78 c41 -9 101 -28 133 -43 100 -45
102 -86 5 -132 -167 -81 -505 -92 -720 -25 -93 30 -148 72 -131 101 29 48 119
84 269 109 102 17 344 11 444 -10z"/>
<path d="M8183 2145 c-192 -35 -293 -96 -293 -178 0 -34 6 -46 39 -77 143
-137 666 -161 909 -42 198 97 101 245 -194 297 -99 18 -363 18 -461 0z m512
-74 c104 -28 164 -58 178 -89 10 -22 8 -27 -22 -52 -71 -60 -229 -93 -441 -93
-213 1 -384 39 -440 98 -20 21 -22 29 -12 49 18 41 143 87 297 110 17 2 104 3
195 1 128 -2 183 -8 245 -24z"/>
<path d="M993 1286 c-152 -29 -253 -80 -279 -141 -20 -48 -9 -79 39 -120 192
-165 880 -142 988 32 53 86 -23 165 -209 215 -100 27 -426 35 -539 14z m450
-61 c107 -19 190 -49 229 -84 26 -23 29 -30 19 -48 -14 -26 -96 -67 -176 -88
-282 -73 -765 0 -743 111 8 41 131 94 263 113 100 14 315 12 408 -4z"/>
<path d="M7843 476 c-126 -24 -201 -54 -249 -100 -36 -35 -44 -49 -44 -78 0
-47 30 -82 99 -117 241 -121 767 -99 912 39 33 31 39 43 39 78 0 73 -78 128
-240 168 -90 22 -418 28 -517 10z m441 -61 c150 -26 256 -74 256 -115 0 -43
-115 -97 -256 -121 -105 -18 -333 -15 -439 5 -97 19 -193 57 -221 87 -50 55
70 118 286 152 67 11 295 6 374 -8z"/>
</g>
</svg>
