<?xml version="1.0" standalone="no"?>
<!DOCTYPE svg PUBLIC "-//W3C//DTD SVG 20010904//EN"
 "http://www.w3.org/TR/2001/REC-SVG-20010904/DTD/svg10.dtd">
<svg version="1.0" xmlns="http://www.w3.org/2000/svg"
 width="1125.000000pt" height="900.000000pt" viewBox="0 0 1125.000000 900.000000"
 preserveAspectRatio="xMidYMid meet">
<metadata>
Created by potrace 1.13, written by Peter Selinger 2001-2015
</metadata>
<g transform="translate(0.000000,900.000000) scale(0.100000,-0.100000)"
fill="#000000" stroke="none">
<path d="M0 4500 l0 -4500 5625 0 5625 0 0 4500 0 4500 -5625 0 -5625 0 0
-4500z m1126 4445 c-9 -23 -346 -577 -364 -598 -14 -16 -42 -17 -366 -15
l-351 3 -3 300 c-1 165 0 305 3 312 3 10 119 13 546 13 484 0 541 -2 535 -15z
m2473 3 c0 -7 -87 -148 -193 -313 l-192 -300 -1187 -3 c-769 -1 -1187 1 -1187
8 0 13 360 603 374 612 6 4 545 8 1199 8 943 0 1187 -3 1186 -12z m2861 4 c0
-4 -85 -144 -188 -312 l-189 -305 -1391 -3 c-1043 -1 -1392 1 -1392 9 0 12
351 570 378 602 14 16 93 17 1399 17 760 0 1383 -3 1383 -8z m3097 -4 c-3 -7
-88 -148 -190 -313 l-185 -300 -1503 -3 c-827 -1 -1506 1 -1510 5 -6 7 341
579 370 611 17 18 3025 18 3018 0z m1648 -303 l0 -310 -974 -3 c-782 -2 -972
0 -968 11 4 10 307 506 363 595 l15 22 782 -2 782 -3 0 -310z m-8544 -392 c-5
-10 -122 -191 -259 -403 l-249 -385 -1054 0 -1054 0 -3 403 -2 402 1315 0
c1250 0 1315 -1 1306 -17z m2757 -5 c-8 -13 -120 -195 -248 -405 l-234 -383
-1354 0 c-760 0 -1352 4 -1350 9 2 4 118 187 258 404 l255 396 1344 1 1343 0
-14 -22z m2741 0 c-29 -54 -462 -764 -473 -776 -9 -9 -286 -12 -1343 -10
l-1331 3 247 403 246 402 1333 0 1333 0 -12 -22z m2851 16 c0 -13 -484 -796
-494 -800 -6 -2 -629 -3 -1384 -2 l-1372 3 242 402 243 402 1383 1 c760 0
1382 -3 1382 -6z m198 -396 l-3 -403 -302 -3 c-167 -1 -303 0 -303 2 0 4 392
648 462 759 l30 47 59 0 59 0 -2 -402z m-10192 -495 c-8 -16 -111 -188 -228
-383 l-214 -355 -267 -3 -267 -2 0 378 c0 208 3 382 7 385 3 4 226 7 495 7
l489 0 -15 -27z m2672 5 c-8 -13 -113 -186 -233 -385 l-218 -363 -421 0
c-1559 -1 -2160 1 -2164 4 -2 3 99 176 225 385 l228 381 1299 0 1298 0 -14
-22z m2718 -5 c-8 -16 -111 -188 -228 -383 l-214 -355 -1328 -3 c-1099 -2
-1326 0 -1319 11 4 7 109 181 233 385 l225 372 1323 0 1323 0 -15 -27z m2872
-358 l-231 -385 -1504 0 c-841 0 -1503 4 -1501 9 2 4 104 177 228 384 l225
376 1507 1 1507 0 -231 -385z m1930 -2 l2 -382 -297 -3 c-164 -2 -633 -1
-1043 2 l-746 5 229 383 230 382 811 -2 811 -3 3 -382z m-8878 -459 c0 -4 -84
-143 -187 -310 l-187 -304 -955 2 -956 3 -3 308 -2 307 1145 0 c630 0 1145 -3
1145 -6z m2742 -121 c-44 -71 -129 -210 -191 -310 l-113 -183 -1369 0 -1369 0
78 128 c44 70 129 209 191 310 l113 182 1369 0 1369 0 -78 -127z m2704 100
c-8 -16 -93 -154 -188 -308 l-174 -280 -1282 -3 c-705 -1 -1282 1 -1282 4 0 4
84 143 187 310 l187 304 1283 0 1284 0 -15 -27z m2784 21 c0 -3 -84 -142 -187
-310 l-188 -304 -1348 0 c-742 0 -1347 4 -1345 8 2 5 86 144 188 310 l185 301
1348 1 c741 0 1347 -3 1347 -6z m650 -299 c0 -235 -3 -307 -12 -310 -7 -3
-221 -4 -475 -3 l-462 3 170 275 c93 151 178 290 189 308 l19 32 286 0 285 0
0 -305z m-10000 -382 c0 -5 -83 -150 -184 -323 l-183 -315 -399 0 -399 0 -3
310 c-1 170 0 315 3 322 3 10 127 13 585 13 319 0 580 -3 580 -7z m2510 0 c-1
-5 -92 -150 -204 -323 l-203 -315 -1197 -3 c-1082 -2 -1198 -1 -1192 14 5 14
252 441 333 577 l34 57 1215 0 c668 0 1214 -3 1214 -7z m2743 -42 c-15 -26
-100 -172 -188 -324 l-160 -277 -1362 0 c-750 0 -1363 2 -1363 4 0 3 93 149
206 325 l206 321 1345 0 1345 0 -29 -49z m3147 43 c0 -3 -84 -149 -186 -325
l-186 -319 -1525 0 c-838 0 -1523 4 -1521 8 2 5 86 151 187 325 l184 317 1524
0 c837 0 1523 -2 1523 -6z m1598 -317 c2 -249 0 -319 -10 -322 -7 -3 -434 -4
-949 -3 l-935 3 165 285 c91 157 176 302 188 323 l22 37 758 -2 758 -3 3 -318z
m-8398 -398 c0 -6 -104 -184 -231 -395 l-230 -384 -1152 2 -1152 3 -3 380 c-1
209 0 386 3 392 6 17 2765 19 2765 2z m2520 7 c0 -3 -105 -179 -233 -393
l-233 -388 -1218 -3 c-1117 -2 -1218 -1 -1212 14 9 24 437 736 454 757 14 16
85 17 1229 17 667 0 1213 -2 1213 -4z m2800 0 c0 -3 -105 -179 -233 -393
l-233 -388 -1362 -3 c-749 -1 -1362 0 -1362 2 0 4 422 711 456 764 l14 22
1360 0 c748 0 1360 -2 1360 -4z m2850 -3 c-1 -5 -105 -181 -233 -393 l-232
-385 -1387 -3 c-764 -1 -1388 1 -1388 4 0 7 423 714 452 757 l19 27 1385 0
c761 0 1384 -3 1384 -7z m225 -388 l0 -390 -307 -3 c-170 -1 -308 0 -308 2 0
4 422 710 456 764 14 21 21 23 87 20 l72 -3 0 -390z m-10210 -482 c-9 -16
-107 -179 -218 -363 l-202 -335 -265 0 -265 0 -3 363 -2 362 485 0 486 0 -16
-27z m2755 21 c0 -3 -97 -167 -216 -365 l-215 -359 -1335 0 c-745 0 -1334 4
-1332 9 2 4 99 169 217 365 l214 356 1333 0 c734 0 1334 -3 1334 -6z m2618 -3
c-1 -4 -99 -169 -217 -365 l-214 -356 -1268 0 c-698 0 -1269 3 -1269 6 0 3 97
167 216 365 l215 359 1270 0 c709 0 1269 -4 1267 -9z m2914 -353 l-218 -363
-1523 -3 c-1278 -2 -1522 0 -1519 12 2 7 98 171 213 364 l210 351 1527 1 1527
0 -217 -362z m1926 0 l-3 -363 -1033 -3 c-581 -1 -1032 2 -1030 7 1 4 99 169
217 365 l214 356 818 0 819 0 -2 -362z m-8859 -467 c-13 -21 -127 -204 -254
-405 l-230 -365 -912 -1 -913 0 0 398 c0 219 3 402 7 405 3 4 528 7 1166 7
l1159 0 -23 -39z m2762 22 c-6 -10 -120 -191 -254 -403 l-244 -385 -1337 -3
-1337 -2 23 38 c13 22 127 204 253 405 l230 366 1338 1 c1271 0 1337 -1 1328
-17z m2587 -190 c-72 -115 -187 -297 -255 -405 l-125 -198 -1315 0 c-763 0
-1313 4 -1311 9 2 5 116 187 253 405 l250 396 1317 0 1317 0 -131 -207z m2962
201 c0 -3 -113 -186 -251 -405 l-252 -399 -1378 0 c-759 0 -1379 3 -1379 6 0
3 113 186 251 405 l252 399 1378 0 c759 0 1379 -3 1379 -6z m548 -401 l2 -403
-490 0 -489 0 131 208 c72 114 187 296 255 405 l125 197 231 -2 232 -3 3 -402z
m-9980 -477 c-2 -8 -84 -145 -183 -305 l-180 -291 -412 0 -413 0 0 298 c0 164
3 302 7 305 3 4 271 7 595 7 507 0 589 -2 586 -14z m2482 3 c0 -5 -84 -142
-187 -304 l-188 -295 -1199 0 -1198 0 14 23 c8 12 88 141 178 287 90 146 170
273 178 283 14 16 84 17 1209 17 827 0 1193 -3 1193 -11z m2688 -3 c-2 -7 -84
-144 -183 -305 l-180 -291 -1314 0 -1313 0 15 23 c8 12 83 130 167 262 84 132
166 259 182 283 l29 42 1300 0 c1096 0 1300 -2 1297 -14z m3138 -2 c-13 -33
-360 -586 -370 -590 -6 -2 -696 -3 -1533 -2 l-1523 3 178 286 c97 157 183 293
191 302 12 16 133 17 1538 17 1408 0 1525 -1 1519 -16z m1672 -291 l2 -303
-980 0 c-539 0 -980 2 -980 4 0 9 364 592 374 598 6 4 364 7 796 5 l785 -2 3
-302z m-8418 -378 c0 -3 -91 -159 -202 -345 l-203 -340 -1170 2 -1170 3 -3
343 -2 342 1375 0 c756 0 1375 -2 1375 -5z m2552 -27 c-11 -18 -104 -174 -206
-345 l-187 -313 -1245 0 c-685 0 -1243 3 -1241 8 14 24 381 641 393 660 l14
22 1246 0 1246 0 -20 -32z m2751 -15 c-15 -27 -107 -181 -204 -343 l-177 -295
-1341 -3 c-737 -1 -1341 1 -1341 4 0 4 91 159 202 345 l202 339 1344 0 1343 0
-28 -47z m2857 10 c-12 -21 -103 -175 -203 -343 l-182 -305 -1388 -3 c-763 -1
-1387 0 -1387 4 0 3 91 158 202 345 l202 339 1389 0 1388 0 -21 -37z m258
-305 l-3 -343 -283 -3 c-168 -1 -282 1 -280 7 1 5 93 160 203 345 l200 336 83
0 82 0 -2 -342z m-10196 -485 c-27 -43 -126 -205 -221 -360 l-173 -283 -289 0
-289 0 0 353 c0 195 3 357 7 360 3 4 233 7 510 7 l503 0 -48 -77z m2658 70 c0
-5 -103 -165 -229 -358 l-228 -350 -1262 -3 -1261 -2 48 77 c27 43 126 205
221 361 l173 282 1269 0 c698 0 1269 -3 1269 -7z m2720 1 c0 -3 -98 -165 -217
-360 l-216 -354 -1335 0 c-733 0 -1332 4 -1330 9 2 4 106 166 232 360 l229
351 1318 0 c726 0 1319 -3 1319 -6z m3020 0 c0 -4 -97 -166 -216 -360 l-217
-354 -1475 0 -1474 0 15 23 c8 12 101 164 207 337 106 173 200 325 208 338
l14 22 1469 0 c808 0 1469 -3 1469 -6z m1798 -356 l2 -358 -1080 0 -1080 0 78
128 c43 70 143 232 221 360 l143 232 856 -2 857 -3 3 -357z m-9024 -620 c-64
-106 -121 -196 -128 -200 -6 -4 -461 -7 -1011 -5 l-1000 2 -3 198 -2 197 1129
0 1130 0 -115 -192z m2615 5 c-61 -104 -115 -194 -121 -200 -8 -10 -275 -13
-1274 -13 -695 0 -1264 3 -1264 6 0 3 52 93 116 200 l117 194 1268 0 1268 0
-110 -187z m2811 180 c0 -5 -51 -93 -113 -198 l-113 -190 -1309 -3 c-720 -1
-1312 1 -1316 5 -3 5 45 95 108 201 l115 192 1314 0 c723 0 1314 -3 1314 -7z
m2920 3 c0 -9 -224 -382 -234 -388 -13 -9 -2836 -11 -2836 -2 0 3 52 93 115
200 l116 194 1419 0 c781 0 1420 -2 1420 -4z m678 -193 l-3 -198 -414 -3
c-391 -2 -413 -1 -407 15 4 10 55 100 114 200 l107 183 303 0 302 0 -2 -197z"/>
</g>
</svg>
