<?xml version="1.0" standalone="no"?>
<!DOCTYPE svg PUBLIC "-//W3C//DTD SVG 20010904//EN"
 "http://www.w3.org/TR/2001/REC-SVG-20010904/DTD/svg10.dtd">
<svg version="1.0" xmlns="http://www.w3.org/2000/svg"
 width="1134.000000pt" height="909.000000pt" viewBox="0 0 1134.000000 909.000000"
 preserveAspectRatio="xMidYMid meet">
<metadata>
Created by potrace 1.13, written by Peter Selinger 2001-2015
</metadata>
<g transform="translate(0.000000,909.000000) scale(0.100000,-0.100000)"
fill="#000000" stroke="none">
<path d="M0 4545 l0 -4545 5670 0 5670 0 0 4545 0 4545 -5670 0 -5670 0 0
-4545z m7620 4437 c0 -59 91 -84 129 -36 12 15 21 33 21 40 0 12 276 14 1740
14 l1740 0 0 -4455 0 -4455 -5580 0 -5580 0 0 3125 0 3125 27 0 c15 0 37 10
50 22 46 43 16 118 -47 118 l-30 0 0 742 c0 577 3 739 12 730 22 -22 75 -14
97 14 26 34 26 54 0 88 -22 28 -75 36 -97 14 -9 -9 -12 58 -12 304 l0 315 24
-4 c32 -6 76 36 76 72 0 36 -44 78 -76 72 -24 -4 -24 -4 -24 84 l0 89 3765 0
c3630 0 3765 -1 3765 -18z"/>
<path d="M6741 8954 c-12 -15 -21 -34 -21 -44 0 -34 39 -70 75 -70 36 0 75 36
75 70 0 34 -39 70 -75 70 -24 0 -39 -7 -54 -26z"/>
<path d="M10765 8920 c-26 -29 -24 -79 4 -102 70 -56 164 39 101 102 -26 26
-81 26 -105 0z"/>
<path d="M2609 8841 c-25 -25 -30 -37 -25 -59 15 -60 79 -80 121 -37 43 42 23
106 -37 121 -22 5 -34 0 -59 -25z"/>
<path d="M6143 8860 c-48 -19 -58 -87 -17 -119 35 -27 65 -27 92 2 54 57 -3
145 -75 117z"/>
<path d="M10043 8858 c-51 -24 -50 -106 1 -129 83 -38 147 84 66 126 -33 17
-37 17 -67 3z"/>
<path d="M4688 8835 c-54 -30 -42 -116 18 -131 83 -21 126 99 48 135 -31 14
-33 14 -66 -4z"/>
<path d="M5370 8843 c-53 -19 -68 -86 -28 -123 63 -58 157 33 101 98 -20 23
-50 33 -73 25z"/>
<path d="M9300 8817 c-52 -26 -49 -104 4 -128 36 -17 73 -3 92 32 19 38 6 80
-32 98 -31 14 -33 14 -64 -2z"/>
<path d="M4050 8757 c-52 -26 -49 -104 4 -128 81 -37 138 73 64 125 -27 19
-35 20 -68 3z"/>
<path d="M1636 8729 c-52 -41 -23 -122 44 -122 67 0 96 81 44 122 -15 12 -34
21 -44 21 -10 0 -29 -9 -44 -21z"/>
<path d="M205 8445 c-28 -27 -31 -45 -14 -78 16 -30 28 -37 66 -37 41 0 77 42
68 80 -14 58 -78 78 -120 35z"/>
<path d="M622 8447 c-45 -48 -17 -117 47 -117 46 0 71 24 71 68 0 65 -74 96
-118 49z"/>
<path d="M1040 8450 c-26 -26 -26 -81 -2 -103 28 -25 87 -22 106 5 50 71 -43
159 -104 98z"/>
<path d="M1455 8445 c-30 -30 -31 -54 -4 -89 20 -26 69 -36 95 -18 15 10 34
47 34 67 0 25 -46 65 -75 65 -14 0 -37 -11 -50 -25z"/>
<path d="M1872 8447 c-45 -48 -14 -117 51 -117 42 0 67 26 67 68 0 65 -74 96
-118 49z"/>
<path d="M2290 8450 c-26 -26 -26 -81 -2 -103 28 -25 87 -22 106 5 50 71 -43
159 -104 98z"/>
<path d="M2712 8453 c-52 -44 -24 -123 44 -123 68 0 97 68 49 115 -28 29 -65
32 -93 8z"/>
<path d="M3125 8445 c-48 -47 -19 -115 48 -115 42 0 70 29 70 72 0 62 -73 89
-118 43z"/>
<path d="M3542 8450 c-26 -24 -29 -66 -6 -98 11 -16 25 -22 54 -22 29 0 43 6
54 22 35 50 4 118 -54 118 -14 0 -36 -9 -48 -20z"/>
<path d="M3959 8452 c-49 -40 -17 -122 48 -122 67 0 96 68 48 115 -29 30 -64
32 -96 7z"/>
<path d="M4372 8447 c-45 -48 -14 -117 51 -117 42 0 67 26 67 68 0 65 -74 96
-118 49z"/>
<path d="M4790 8450 c-26 -26 -26 -81 -2 -103 28 -25 87 -22 106 5 50 71 -43
159 -104 98z"/>
<path d="M5205 8445 c-30 -30 -31 -54 -4 -89 20 -26 69 -36 95 -18 15 10 34
47 34 67 0 25 -46 65 -75 65 -14 0 -37 -11 -50 -25z"/>
<path d="M5625 8445 c-48 -47 -19 -115 49 -115 68 0 96 79 44 123 -28 24 -65
21 -93 -8z"/>
<path d="M6042 8450 c-26 -24 -29 -66 -6 -98 11 -16 25 -22 54 -22 29 0 43 6
54 22 35 50 4 118 -54 118 -14 0 -36 -9 -48 -20z"/>
<path d="M6459 8452 c-49 -40 -17 -122 48 -122 67 0 96 68 48 115 -29 30 -64
32 -96 7z"/>
<path d="M6875 8445 c-28 -27 -31 -45 -14 -78 16 -30 28 -37 66 -37 35 0 73
37 73 72 0 27 -45 68 -75 68 -14 0 -37 -11 -50 -25z"/>
<path d="M7291 8444 c-26 -34 -27 -68 -1 -94 38 -38 114 -19 120 30 11 78 -73
123 -119 64z"/>
<path d="M7710 8450 c-26 -26 -26 -81 -2 -103 28 -25 87 -22 106 5 50 71 -43
159 -104 98z"/>
<path d="M8132 8453 c-52 -44 -24 -123 43 -123 67 0 97 69 50 115 -28 29 -65
32 -93 8z"/>
<path d="M8540 8450 c-26 -26 -26 -81 -2 -103 28 -25 87 -22 106 5 50 71 -43
159 -104 98z"/>
<path d="M8950 8450 c-26 -26 -26 -81 -2 -103 28 -25 87 -22 106 5 50 71 -43
159 -104 98z"/>
<path d="M9370 8450 c-46 -46 -18 -120 47 -120 66 0 97 74 50 118 -29 27 -71
28 -97 2z"/>
<path d="M9785 8445 c-14 -13 -25 -31 -25 -39 0 -30 23 -65 49 -74 76 -27 134
77 68 123 -31 22 -65 18 -92 -10z"/>
<path d="M10202 8447 c-45 -48 -17 -117 47 -117 46 0 71 24 71 68 0 65 -74 96
-118 49z"/>
<path d="M10620 8450 c-46 -46 -18 -120 47 -120 66 0 97 74 50 118 -29 27 -71
28 -97 2z"/>
<path d="M11035 8445 c-30 -29 -32 -68 -5 -95 47 -47 123 -15 123 51 0 63 -72
90 -118 44z"/>
<path d="M539 8222 c-49 -40 -17 -122 48 -122 65 0 93 61 52 114 -25 31 -66
35 -100 8z"/>
<path d="M9241 8214 c-12 -15 -21 -34 -21 -44 0 -34 39 -70 75 -70 24 0 39 7
54 26 27 35 26 59 -4 89 -33 34 -77 33 -104 -1z"/>
<path d="M5377 8142 c-40 -45 -6 -122 53 -122 17 0 39 9 50 20 45 45 11 120
-53 120 -20 0 -41 -8 -50 -18z"/>
<path d="M3905 8125 c-40 -39 -29 -97 22 -116 36 -13 78 5 93 40 31 75 -58
134 -115 76z"/>
<path d="M6032 8127 c-45 -48 -14 -117 51 -117 42 0 70 29 70 72 0 61 -78 91
-121 45z"/>
<path d="M8639 8132 c-28 -23 -30 -73 -4 -102 25 -27 78 -27 105 2 26 28 26
58 -1 92 -25 31 -66 35 -100 8z"/>
<path d="M7991 8094 c-12 -15 -21 -35 -21 -46 0 -27 45 -68 75 -68 30 0 75 41
75 68 0 35 -38 72 -75 72 -24 0 -39 -7 -54 -26z"/>
<path d="M10740 8087 c-55 -28 -48 -110 13 -131 77 -27 124 80 55 128 -27 19
-35 20 -68 3z"/>
<path d="M1765 8025 c-14 -13 -25 -36 -25 -50 0 -30 41 -75 68 -75 35 0 72 38
72 75 0 24 -7 39 -26 54 -35 27 -59 26 -89 -4z"/>
<path d="M2612 8040 c-67 -28 -39 -140 36 -140 30 0 72 43 72 73 0 51 -59 87
-108 67z"/>
<path d="M4693 8038 c-81 -39 -20 -167 62 -130 55 25 58 100 5 127 -33 17 -37
17 -67 3z"/>
<path d="M6883 8038 c-35 -17 -48 -60 -29 -96 35 -68 136 -41 136 36 0 47 -63
82 -107 60z"/>
<path d="M9900 8043 c-53 -19 -67 -83 -27 -121 29 -28 57 -28 91 -1 57 45 4
146 -64 122z"/>
<path d="M3236 7949 c-34 -27 -35 -71 -1 -104 30 -30 54 -31 89 -4 36 28 36
80 0 108 -15 12 -34 21 -44 21 -10 0 -29 -9 -44 -21z"/>
<path d="M973 7875 c-66 -47 -8 -150 70 -123 51 18 62 74 22 113 -27 28 -61
32 -92 10z"/>
<path d="M7410 7790 c-11 -11 -20 -33 -20 -50 0 -17 9 -39 20 -50 11 -11 33
-20 50 -20 17 0 39 9 50 20 11 11 20 33 20 50 0 17 -9 39 -20 50 -11 11 -33
20 -50 20 -17 0 -39 -9 -50 -20z"/>
<path d="M6116 7708 c-36 -51 -5 -118 54 -118 40 0 70 31 70 73 0 43 -26 67
-73 67 -26 0 -40 -6 -51 -22z"/>
<path d="M8381 7704 c-27 -35 -26 -59 4 -89 33 -34 77 -33 104 1 12 15 21 34
21 44 0 34 -39 70 -75 70 -24 0 -39 -7 -54 -26z"/>
<path d="M9125 7670 c-42 -47 -8 -120 55 -120 33 0 70 40 70 76 0 57 -86 87
-125 44z"/>
<path d="M4073 7610 c-49 -20 -56 -90 -11 -123 73 -54 153 56 82 112 -29 23
-38 24 -71 11z"/>
<path d="M10040 7547 c-80 -40 -24 -162 59 -127 53 22 59 89 9 124 -27 19 -35
20 -68 3z"/>
<path d="M10616 7539 c-26 -20 -36 -69 -18 -95 10 -15 47 -34 67 -34 25 0 65
46 65 75 0 30 -41 75 -68 75 -11 0 -31 -9 -46 -21z"/>
<path d="M185 7495 c-14 -13 -25 -36 -25 -50 0 -28 40 -75 64 -75 78 0 109
107 40 139 -37 16 -52 14 -79 -14z"/>
<path d="M2530 7480 c-26 -26 -26 -81 0 -105 29 -26 79 -24 102 4 27 34 23 75
-8 100 -34 26 -68 27 -94 1z"/>
<path d="M1450 7470 c-43 -43 -11 -120 50 -120 38 0 70 32 70 70 0 38 -32 70
-70 70 -17 0 -39 -9 -50 -20z"/>
<path d="M3151 7394 c-27 -34 -27 -64 -1 -92 45 -48 123 -16 123 50 0 64 -83
92 -122 42z"/>
<path d="M5535 7395 c-30 -30 -31 -54 -4 -89 15 -19 30 -26 54 -26 37 0 75 37
75 72 0 27 -45 68 -75 68 -14 0 -37 -11 -50 -25z"/>
<path d="M4790 7318 c-26 -28 -26 -58 1 -92 39 -50 122 -22 122 42 0 66 -78
98 -123 50z"/>
<path d="M9555 7320 c-42 -47 -8 -120 55 -120 33 0 70 40 70 74 0 57 -86 89
-125 46z"/>
<path d="M6705 7280 c-42 -47 -8 -120 55 -120 33 0 70 40 70 74 0 57 -86 89
-125 46z"/>
<path d="M7366 7278 c-36 -51 -5 -118 54 -118 59 0 90 67 54 118 -11 16 -25
22 -54 22 -29 0 -43 -6 -54 -22z"/>
<path d="M8093 7255 c-49 -21 -58 -71 -18 -110 45 -46 118 -19 118 43 0 58
-47 89 -100 67z"/>
<path d="M220 7060 c-35 -8 -57 -51 -45 -87 23 -62 105 -70 130 -11 25 62 -20
114 -85 98z"/>
<path d="M640 7063 c-51 -19 -68 -85 -30 -123 61 -61 159 32 103 98 -20 23
-50 33 -73 25z"/>
<path d="M1049 7057 c-37 -19 -53 -60 -37 -94 26 -55 104 -54 130 2 26 57 -37
119 -93 92z"/>
<path d="M1462 7055 c-59 -25 -51 -107 11 -130 62 -21 118 52 80 103 -26 34
-53 42 -91 27z"/>
<path d="M1883 7060 c-46 -19 -57 -83 -20 -118 47 -44 117 -13 117 52 0 50
-50 84 -97 66z"/>
<path d="M2299 7057 c-37 -19 -53 -60 -37 -94 26 -55 104 -54 130 2 26 57 -37
119 -93 92z"/>
<path d="M2719 7058 c-16 -5 -32 -22 -39 -39 -35 -84 84 -137 129 -58 31 55
-28 118 -90 97z"/>
<path d="M3133 7060 c-46 -19 -57 -83 -20 -118 48 -45 117 -14 117 51 0 51
-50 86 -97 67z"/>
<path d="M3560 7063 c-51 -19 -68 -85 -30 -123 61 -61 159 33 103 98 -20 23
-50 33 -73 25z"/>
<path d="M3969 7058 c-16 -5 -32 -22 -39 -39 -35 -84 84 -137 129 -58 31 55
-28 118 -90 97z"/>
<path d="M4383 7060 c-46 -19 -57 -83 -20 -118 47 -44 117 -13 117 52 0 50
-50 84 -97 66z"/>
<path d="M4799 7057 c-37 -19 -53 -60 -37 -94 26 -55 104 -54 130 2 26 57 -37
119 -93 92z"/>
<path d="M5212 7055 c-59 -25 -51 -107 11 -130 62 -21 118 52 80 103 -26 34
-53 42 -91 27z"/>
<path d="M5633 7060 c-46 -19 -57 -83 -20 -118 48 -45 117 -14 117 51 0 51
-50 86 -97 67z"/>
<path d="M6060 7063 c-51 -19 -68 -85 -30 -123 61 -61 159 33 103 98 -20 23
-50 33 -73 25z"/>
<path d="M6469 7058 c-16 -5 -32 -22 -39 -39 -35 -84 84 -137 129 -58 31 55
-28 118 -90 97z"/>
<path d="M6882 7055 c-78 -34 -32 -152 52 -131 33 8 59 57 47 88 -17 46 -54
61 -99 43z"/>
<path d="M7303 7060 c-46 -19 -57 -83 -20 -118 47 -44 117 -13 117 52 0 50
-50 84 -97 66z"/>
<path d="M7719 7057 c-37 -19 -50 -54 -35 -91 24 -58 102 -58 128 -1 26 57
-37 119 -93 92z"/>
<path d="M8132 7055 c-59 -25 -51 -107 11 -130 62 -21 118 52 80 103 -26 34
-53 42 -91 27z"/>
<path d="M8549 7057 c-37 -19 -53 -60 -37 -94 26 -55 104 -54 130 2 26 57 -37
119 -93 92z"/>
<path d="M8970 7063 c-51 -19 -68 -85 -30 -123 61 -61 159 33 103 98 -20 23
-50 33 -73 25z"/>
<path d="M9379 7056 c-13 -6 -30 -23 -38 -37 -12 -22 -12 -29 0 -54 29 -60
111 -55 133 8 20 55 -43 109 -95 83z"/>
<path d="M9800 7060 c-35 -8 -57 -51 -45 -87 23 -62 105 -70 130 -11 25 62
-20 114 -85 98z"/>
<path d="M10220 7063 c-51 -19 -68 -85 -30 -123 61 -61 159 32 103 98 -20 23
-50 33 -73 25z"/>
<path d="M10629 7056 c-13 -6 -30 -23 -38 -37 -12 -22 -12 -29 0 -54 29 -60
111 -55 133 8 20 55 -43 109 -95 83z"/>
<path d="M11043 7060 c-46 -19 -57 -83 -20 -118 48 -45 117 -14 117 51 0 51
-50 86 -97 67z"/>
<path d="M1707 6820 c-35 -28 -37 -80 -5 -110 63 -58 156 32 101 98 -27 32
-64 37 -96 12z"/>
<path d="M4127 6820 c-37 -29 -37 -80 -1 -109 15 -12 34 -21 44 -21 33 0 70
39 70 74 0 60 -66 93 -113 56z"/>
<path d="M5726 6779 c-19 -15 -26 -30 -26 -54 0 -36 36 -75 70 -75 34 0 70 39
70 75 0 36 -36 75 -70 75 -10 0 -29 -9 -44 -21z"/>
<path d="M10383 6788 c-29 -14 -46 -61 -32 -92 11 -24 47 -46 75 -46 24 0 64
47 64 75 0 30 -41 75 -67 74 -10 0 -28 -5 -40 -11z"/>
<path d="M1035 6735 c-40 -39 -29 -97 22 -116 58 -22 116 36 94 94 -19 51 -77
62 -116 22z"/>
<path d="M3266 6739 c-36 -28 -36 -80 0 -108 15 -12 34 -21 44 -21 34 0 70 39
70 75 0 36 -36 75 -70 75 -10 0 -29 -9 -44 -21z"/>
<path d="M9525 6748 c-28 -16 -35 -28 -35 -65 0 -35 37 -73 72 -73 27 0 68 45
68 75 0 30 -41 75 -67 75 -10 0 -27 -6 -38 -12z"/>
<path d="M5027 6708 c-41 -32 -38 -94 6 -123 46 -30 107 6 107 63 0 51 -73 90
-113 60z"/>
<path d="M6630 6580 c-26 -26 -26 -81 -2 -103 44 -40 122 -7 122 51 0 60 -78
94 -120 52z"/>
<path d="M7452 6544 c-16 -11 -22 -25 -22 -54 0 -29 6 -43 22 -54 51 -36 118
-5 118 54 0 59 -67 90 -118 54z"/>
<path d="M8072 6537 c-28 -30 -28 -68 1 -95 48 -45 120 -16 120 48 0 65 -76
95 -121 47z"/>
<path d="M9125 6500 c-42 -46 -8 -120 54 -120 34 0 71 37 71 71 0 60 -85 93
-125 49z"/>
<path d="M10690 6500 c-43 -43 -11 -120 50 -120 38 0 70 32 70 70 0 38 -32 70
-70 70 -17 0 -39 -9 -50 -20z"/>
<path d="M2251 6454 c-12 -15 -21 -35 -21 -46 0 -27 45 -68 75 -68 30 0 75 41
75 68 0 35 -38 72 -75 72 -24 0 -39 -7 -54 -26z"/>
<path d="M3787 6390 c-20 -16 -27 -30 -27 -56 0 -68 68 -97 115 -49 63 63 -18
160 -88 105z"/>
<path d="M816 6349 c-36 -28 -36 -80 0 -108 15 -12 34 -21 44 -21 34 0 70 39
70 75 0 36 -36 75 -70 75 -10 0 -29 -9 -44 -21z"/>
<path d="M4405 6345 c-14 -13 -25 -36 -25 -50 0 -28 40 -75 64 -75 78 0 109
107 40 139 -37 16 -52 14 -79 -14z"/>
<path d="M8666 6349 c-49 -39 -22 -129 40 -129 37 0 74 37 74 75 0 36 -36 75
-70 75 -10 0 -29 -9 -44 -21z"/>
<path d="M5265 6305 c-14 -13 -25 -36 -25 -50 0 -30 41 -75 68 -75 35 0 72 38
72 75 0 24 -7 39 -26 54 -35 27 -59 26 -89 -4z"/>
<path d="M9715 6265 c-28 -27 -32 -61 -10 -92 49 -70 160 0 120 76 -24 48 -72
55 -110 16z"/>
<path d="M1592 6227 c-43 -46 -15 -120 46 -120 43 0 72 28 72 70 0 66 -74 97
-118 50z"/>
<path d="M10300 6190 c-26 -26 -26 -81 -2 -103 44 -40 122 -7 122 51 0 60 -78
94 -120 52z"/>
<path d="M3296 6119 c-36 -28 -36 -80 0 -108 15 -12 34 -21 44 -21 34 0 70 39
70 75 0 36 -36 75 -70 75 -10 0 -29 -9 -44 -21z"/>
<path d="M6143 6010 c-46 -19 -57 -83 -20 -118 47 -44 117 -13 117 52 0 50
-50 84 -97 66z"/>
<path d="M2636 5979 c-36 -28 -36 -80 0 -108 15 -12 34 -21 44 -21 34 0 70 39
70 75 0 36 -36 75 -70 75 -10 0 -29 -9 -44 -21z"/>
<path d="M426 5959 c-36 -28 -36 -80 0 -108 15 -12 34 -21 44 -21 34 0 70 39
70 75 0 36 -36 75 -70 75 -10 0 -29 -9 -44 -21z"/>
<path d="M7660 5967 c-52 -26 -49 -104 4 -128 36 -17 73 -3 92 32 19 38 6 80
-32 98 -31 14 -33 14 -64 -2z"/>
<path d="M5197 5942 c-40 -45 -6 -122 53 -122 17 0 39 9 50 20 45 45 11 120
-53 120 -20 0 -41 -8 -50 -18z"/>
<path d="M7026 5919 c-19 -15 -26 -30 -26 -54 0 -36 36 -75 70 -75 34 0 70 39
70 75 0 36 -36 75 -70 75 -10 0 -29 -9 -44 -21z"/>
<path d="M8402 5930 c-27 -11 -44 -52 -36 -85 8 -31 23 -43 62 -51 25 -5 36
-1 56 19 33 33 33 71 1 102 -25 26 -45 30 -83 15z"/>
<path d="M9285 5915 c-14 -13 -25 -36 -25 -50 0 -28 40 -75 64 -75 29 0 64 22
75 48 16 33 -1 75 -35 91 -37 16 -52 14 -79 -14z"/>
<path d="M10885 5915 c-14 -13 -25 -36 -25 -50 0 -33 42 -75 75 -75 33 0 75
42 75 75 0 33 -42 75 -75 75 -14 0 -37 -11 -50 -25z"/>
<path d="M4209 5918 c-38 -13 -57 -62 -38 -97 32 -57 111 -49 132 13 17 51
-40 103 -94 84z"/>
<path d="M195 5635 c-28 -27 -32 -61 -10 -92 47 -66 150 -8 123 70 -18 51 -74
62 -113 22z"/>
<path d="M612 5637 c-31 -33 -29 -80 5 -107 32 -25 69 -20 96 12 26 30 22 73
-9 97 -35 27 -65 27 -92 -2z"/>
<path d="M1039 5650 c-27 -15 -43 -65 -29 -89 28 -53 94 -62 125 -18 44 62
-31 145 -96 107z"/>
<path d="M1445 5635 c-40 -39 -29 -97 22 -116 36 -13 78 5 93 40 31 75 -58
134 -115 76z"/>
<path d="M1866 5639 c-52 -41 -23 -122 44 -122 67 0 96 81 44 122 -15 12 -34
21 -44 21 -10 0 -29 -9 -44 -21z"/>
<path d="M2292 5653 c-7 -3 -19 -18 -27 -33 -40 -77 71 -147 120 -77 42 60
-24 138 -93 110z"/>
<path d="M2695 5635 c-28 -27 -30 -42 -14 -79 16 -34 58 -51 91 -35 26 11 48
46 48 75 0 24 -47 64 -75 64 -14 0 -37 -11 -50 -25z"/>
<path d="M3116 5639 c-46 -36 -26 -110 34 -124 64 -15 108 78 58 125 -28 26
-58 26 -92 -1z"/>
<path d="M3532 5640 c-50 -47 -6 -140 58 -125 60 14 80 88 34 124 -34 27 -64
27 -92 1z"/>
<path d="M3945 5635 c-28 -27 -30 -42 -14 -79 16 -34 58 -51 91 -35 26 11 48
46 48 75 0 24 -47 64 -75 64 -14 0 -37 -11 -50 -25z"/>
<path d="M4366 5639 c-52 -41 -23 -122 44 -122 67 0 96 81 44 122 -15 12 -34
21 -44 21 -10 0 -29 -9 -44 -21z"/>
<path d="M4792 5653 c-7 -3 -19 -18 -27 -33 -40 -77 71 -147 120 -77 42 60
-24 138 -93 110z"/>
<path d="M5195 5635 c-40 -39 -29 -97 22 -116 36 -13 78 5 93 40 31 75 -58
134 -115 76z"/>
<path d="M5616 5639 c-46 -36 -26 -110 34 -124 64 -15 108 78 58 125 -28 26
-58 26 -92 -1z"/>
<path d="M6032 5640 c-50 -47 -6 -140 58 -125 60 14 80 88 34 124 -34 27 -64
27 -92 1z"/>
<path d="M6445 5635 c-28 -27 -30 -42 -14 -79 16 -34 58 -51 91 -35 26 11 48
46 48 75 0 24 -47 64 -75 64 -14 0 -37 -11 -50 -25z"/>
<path d="M6865 5635 c-28 -27 -32 -61 -10 -92 49 -70 160 0 120 76 -24 48 -72
55 -110 16z"/>
<path d="M7286 5639 c-50 -39 -22 -122 42 -122 69 0 99 80 46 122 -15 12 -34
21 -44 21 -10 0 -29 -9 -44 -21z"/>
<path d="M7707 5648 c-41 -32 -38 -94 6 -123 46 -30 107 6 107 63 0 51 -73 90
-113 60z"/>
<path d="M8115 5635 c-39 -39 -32 -86 17 -111 59 -30 122 27 99 89 -19 51 -77
62 -116 22z"/>
<path d="M8542 5653 c-7 -3 -19 -18 -27 -33 -40 -77 71 -147 120 -77 42 60
-24 138 -93 110z"/>
<path d="M8940 5640 c-30 -30 -27 -83 7 -110 70 -55 151 42 88 105 -29 30 -68
32 -95 5z"/>
<path d="M9367 5649 c-48 -28 -40 -107 13 -129 23 -9 34 -9 58 4 49 25 56 72
17 111 -25 26 -58 31 -88 14z"/>
<path d="M9775 5635 c-28 -27 -32 -61 -10 -92 47 -66 150 -8 123 70 -18 51
-74 62 -113 22z"/>
<path d="M10196 5639 c-36 -29 -36 -80 1 -109 47 -37 113 -2 113 60 0 31 -39
70 -70 70 -10 0 -29 -9 -44 -21z"/>
<path d="M10617 5649 c-48 -28 -40 -107 13 -129 23 -9 34 -9 58 4 49 25 56 72
17 111 -25 26 -58 31 -88 14z"/>
<path d="M11026 5639 c-46 -36 -26 -110 34 -124 64 -15 108 78 58 125 -28 26
-58 26 -92 -1z"/>
<path d="M5037 5418 c-45 -35 -37 -101 16 -126 22 -11 31 -10 55 2 49 25 56
73 17 111 -26 27 -62 32 -88 13z"/>
<path d="M6512 5407 c-43 -46 -15 -120 46 -120 43 0 72 28 72 70 0 66 -74 97
-118 50z"/>
<path d="M10881 5324 c-12 -15 -21 -34 -21 -44 0 -34 39 -70 75 -70 36 0 75
36 75 70 0 34 -39 70 -75 70 -24 0 -39 -7 -54 -26z"/>
<path d="M300 5288 c-27 -29 -25 -69 3 -96 46 -43 120 -15 120 46 0 66 -78 98
-123 50z"/>
<path d="M5770 5290 c-11 -11 -20 -33 -20 -50 0 -17 9 -39 20 -50 11 -11 33
-20 50 -20 17 0 39 9 50 20 11 11 20 33 20 50 0 17 -9 39 -20 50 -11 11 -33
20 -50 20 -17 0 -39 -9 -50 -20z"/>
<path d="M9591 5284 c-12 -15 -21 -34 -21 -44 0 -34 39 -70 75 -70 36 0 75 36
75 70 0 34 -39 70 -75 70 -24 0 -39 -7 -54 -26z"/>
<path d="M1550 5250 c-61 -61 27 -154 98 -104 28 20 31 83 4 107 -25 23 -78
21 -102 -3z"/>
<path d="M3385 5250 c-26 -29 -24 -79 4 -102 70 -56 164 39 101 102 -26 26
-81 26 -105 0z"/>
<path d="M7290 5210 c-42 -42 -8 -120 53 -120 58 0 91 85 49 123 -25 23 -78
21 -102 -3z"/>
<path d="M8370 5187 c-13 -7 -31 -24 -39 -38 -30 -53 36 -117 94 -91 55 25 58
100 5 127 -35 18 -29 18 -60 2z"/>
<path d="M937 5138 c-38 -34 -40 -75 -5 -108 29 -27 64 -25 93 5 29 28 32 65
8 93 -28 33 -66 37 -96 10z"/>
<path d="M10495 5095 c-27 -26 -31 -54 -15 -85 42 -79 163 -20 129 62 -21 51
-76 62 -114 23z"/>
<path d="M1985 5055 c-43 -42 -23 -106 35 -120 38 -9 80 27 80 68 0 38 -7 50
-37 66 -33 17 -51 14 -78 -14z"/>
<path d="M4486 5059 c-36 -28 -36 -80 0 -108 15 -12 34 -21 44 -21 10 0 29 9
44 21 34 27 36 79 4 109 -28 26 -58 26 -92 -1z"/>
<path d="M9217 5069 c-48 -28 -40 -107 12 -129 75 -31 134 58 76 115 -25 26
-58 31 -88 14z"/>
<path d="M6351 4814 c-12 -15 -21 -35 -21 -46 0 -27 45 -68 75 -68 30 0 75 41
75 68 0 35 -38 72 -75 72 -24 0 -39 -7 -54 -26z"/>
<path d="M1379 4797 c-37 -19 -53 -60 -37 -94 26 -55 104 -54 130 2 26 57 -37
119 -93 92z"/>
<path d="M2863 4760 c-48 -19 -58 -87 -17 -119 34 -27 64 -27 92 -1 57 53 -3
149 -75 120z"/>
<path d="M5323 4760 c-48 -19 -58 -87 -17 -119 35 -27 65 -27 92 2 54 57 -3
145 -75 117z"/>
<path d="M4340 4717 c-52 -26 -49 -104 5 -129 81 -37 143 87 64 127 -34 18
-37 18 -69 2z"/>
<path d="M3746 4669 c-36 -28 -36 -80 0 -108 35 -27 59 -26 89 4 34 33 33 77
-1 104 -15 12 -34 21 -44 21 -10 0 -29 -9 -44 -21z"/>
<path d="M8075 4665 c-14 -13 -25 -36 -25 -50 0 -28 40 -75 64 -75 29 0 64 22
75 48 16 33 -1 75 -35 91 -37 16 -52 14 -79 -14z"/>
<path d="M10616 4669 c-34 -27 -35 -71 -1 -104 30 -30 54 -31 89 -4 19 15 26
30 26 54 0 36 -36 75 -70 75 -10 0 -29 -9 -44 -21z"/>
<path d="M7336 4629 c-46 -36 -26 -110 34 -124 64 -15 108 78 58 125 -28 26
-58 26 -92 -1z"/>
<path d="M9322 4547 c-45 -48 -14 -117 51 -117 42 0 70 29 70 72 0 61 -78 91
-121 45z"/>
<path d="M181 4504 c-12 -15 -21 -34 -21 -44 0 -34 39 -70 75 -70 36 0 75 36
75 70 0 34 -39 70 -75 70 -24 0 -39 -7 -54 -26z"/>
<path d="M9870 4510 c-43 -43 -11 -120 50 -120 38 0 70 32 70 70 0 38 -32 70
-70 70 -17 0 -39 -9 -50 -20z"/>
<path d="M2285 4485 c-30 -29 -32 -68 -5 -95 47 -47 123 -15 123 51 0 63 -72
90 -118 44z"/>
<path d="M810 4470 c-11 -11 -20 -33 -20 -50 0 -59 67 -90 118 -54 28 20 31
83 4 107 -25 23 -78 21 -102 -3z"/>
<path d="M255 4235 c-34 -33 -33 -77 1 -104 15 -12 34 -21 44 -21 34 0 70 39
70 75 0 24 -7 39 -26 54 -35 27 -59 26 -89 -4z"/>
<path d="M676 4239 c-36 -28 -36 -80 0 -108 15 -12 35 -21 46 -21 27 0 68 45
68 75 0 30 -41 75 -68 75 -11 0 -31 -9 -46 -21z"/>
<path d="M1103 4248 c-35 -17 -48 -60 -29 -96 35 -68 136 -41 136 36 0 47 -63
82 -107 60z"/>
<path d="M1505 4235 c-14 -13 -25 -36 -25 -50 0 -28 40 -75 64 -75 78 0 109
107 40 139 -37 16 -52 14 -79 -14z"/>
<path d="M1926 4239 c-19 -15 -26 -30 -26 -54 0 -36 36 -75 70 -75 34 0 70 39
70 75 0 36 -36 75 -70 75 -10 0 -29 -9 -44 -21z"/>
<path d="M2353 4248 c-35 -17 -48 -60 -29 -96 35 -68 136 -41 136 36 0 47 -63
82 -107 60z"/>
<path d="M2772 4250 c-77 -31 -34 -153 48 -135 65 14 74 106 14 134 -29 13
-31 13 -62 1z"/>
<path d="M3176 4239 c-36 -28 -36 -80 0 -108 15 -12 34 -21 44 -21 34 0 70 39
70 75 0 36 -36 75 -70 75 -10 0 -29 -9 -44 -21z"/>
<path d="M3603 4248 c-28 -14 -43 -55 -31 -89 9 -26 44 -49 74 -49 24 0 64 47
64 75 0 30 -41 75 -67 74 -10 0 -28 -5 -40 -11z"/>
<path d="M4022 4250 c-77 -31 -34 -153 48 -135 65 14 74 106 14 134 -29 13
-31 13 -62 1z"/>
<path d="M4426 4239 c-36 -28 -36 -80 0 -108 15 -12 34 -21 44 -21 34 0 70 39
70 75 0 36 -36 75 -70 75 -10 0 -29 -9 -44 -21z"/>
<path d="M4853 4248 c-35 -17 -48 -60 -29 -96 35 -68 136 -41 136 36 0 47 -63
82 -107 60z"/>
<path d="M5255 4235 c-14 -13 -25 -36 -25 -50 0 -28 40 -75 64 -75 78 0 109
107 40 139 -37 16 -52 14 -79 -14z"/>
<path d="M5676 4239 c-19 -15 -26 -30 -26 -54 0 -36 36 -75 70 -75 34 0 70 39
70 75 0 36 -36 75 -70 75 -10 0 -29 -9 -44 -21z"/>
<path d="M6103 4248 c-28 -14 -43 -55 -31 -89 9 -26 44 -49 74 -49 24 0 64 47
64 75 0 30 -41 75 -67 74 -10 0 -28 -5 -40 -11z"/>
<path d="M6522 4250 c-77 -31 -34 -153 48 -135 65 14 74 106 14 134 -29 13
-31 13 -62 1z"/>
<path d="M6925 4235 c-14 -13 -25 -36 -25 -50 0 -30 41 -75 68 -75 35 0 72 38
72 75 0 24 -7 39 -26 54 -35 27 -59 26 -89 -4z"/>
<path d="M7346 4239 c-19 -15 -26 -30 -26 -54 0 -36 36 -75 70 -75 34 0 70 39
70 75 0 36 -36 75 -70 75 -10 0 -29 -9 -44 -21z"/>
<path d="M7773 4248 c-12 -6 -27 -23 -33 -38 -24 -58 44 -120 99 -90 46 24 53
78 16 115 -26 27 -47 30 -82 13z"/>
<path d="M8175 4235 c-14 -13 -25 -36 -25 -50 0 -28 40 -75 64 -75 29 0 64 22
75 48 16 33 -1 75 -35 91 -37 16 -52 14 -79 -14z"/>
<path d="M8603 4248 c-35 -17 -48 -60 -29 -96 35 -68 136 -41 136 36 0 47 -63
82 -107 60z"/>
<path d="M9014 4248 c-69 -33 -37 -138 42 -138 24 0 64 47 64 75 0 30 -41 75
-67 74 -10 0 -28 -5 -39 -11z"/>
<path d="M9433 4250 c-47 -19 -56 -78 -18 -115 47 -48 119 -19 119 49 0 20 -7
43 -14 50 -20 20 -60 27 -87 16z"/>
<path d="M9835 4235 c-14 -13 -25 -36 -25 -50 0 -30 41 -75 68 -75 35 0 72 38
72 75 0 24 -7 39 -26 54 -35 27 -59 26 -89 -4z"/>
<path d="M10256 4239 c-19 -15 -26 -30 -26 -54 0 -37 37 -75 72 -75 27 0 68
45 68 75 0 30 -41 75 -68 75 -11 0 -31 -9 -46 -21z"/>
<path d="M10682 4250 c-22 -9 -42 -46 -42 -76 0 -24 47 -64 75 -64 14 0 37 11
52 26 20 20 24 31 19 57 -4 17 -12 37 -19 44 -18 17 -59 24 -85 13z"/>
<path d="M11086 4239 c-19 -15 -26 -30 -26 -54 0 -36 36 -75 70 -75 34 0 70
39 70 75 0 36 -36 75 -70 75 -10 0 -29 -9 -44 -21z"/>
<path d="M8070 4000 c-26 -26 -25 -60 1 -94 25 -31 66 -35 100 -8 28 23 30 73
4 102 -24 26 -79 26 -105 0z"/>
<path d="M7543 3938 c-68 -33 -40 -138 37 -138 28 0 70 44 70 73 0 51 -61 88
-107 65z"/>
<path d="M305 3885 c-32 -31 -32 -69 0 -100 27 -28 42 -30 79 -14 50 23 51
105 0 128 -37 16 -52 14 -79 -14z"/>
<path d="M4654 3899 c-32 -16 -48 -56 -34 -89 11 -27 46 -50 76 -50 23 0 64
47 64 73 0 51 -61 88 -106 66z"/>
<path d="M6085 3885 c-14 -13 -25 -36 -25 -50 0 -30 41 -75 68 -75 35 0 72 38
72 75 0 24 -7 39 -26 54 -35 27 -59 26 -89 -4z"/>
<path d="M10850 3883 c-76 -27 -58 -143 21 -143 55 0 92 87 52 122 -22 19 -53
28 -73 21z"/>
<path d="M816 3849 c-36 -28 -36 -80 0 -108 15 -12 34 -21 44 -21 34 0 70 39
70 75 0 36 -36 75 -70 75 -10 0 -29 -9 -44 -21z"/>
<path d="M1555 3845 c-14 -13 -25 -36 -25 -50 0 -30 41 -75 68 -75 35 0 72 38
72 73 0 38 -7 50 -37 66 -33 17 -51 14 -78 -14z"/>
<path d="M2583 3858 c-27 -13 -43 -55 -32 -84 9 -26 47 -54 72 -54 26 0 67 45
67 75 0 30 -41 75 -67 74 -10 0 -28 -5 -40 -11z"/>
<path d="M4015 3845 c-14 -13 -25 -36 -25 -50 0 -30 41 -75 68 -75 35 0 72 38
72 73 0 38 -7 50 -37 66 -33 17 -51 14 -78 -14z"/>
<path d="M9402 3833 c-52 -44 -24 -123 44 -123 68 0 97 68 49 115 -28 29 -65
32 -93 8z"/>
<path d="M3312 3770 c-48 -45 -16 -123 50 -123 61 0 91 78 45 121 -29 28 -67
28 -95 2z"/>
<path d="M6713 3775 c-66 -47 -8 -150 70 -123 51 18 62 74 22 113 -27 28 -61
32 -92 10z"/>
<path d="M9830 3610 c-43 -43 -11 -120 50 -120 59 0 90 67 54 118 -20 29 -76
30 -104 2z"/>
<path d="M5553 3548 c-12 -6 -27 -24 -34 -40 -34 -83 86 -136 130 -57 19 33 1
81 -35 98 -29 13 -32 13 -61 -1z"/>
<path d="M9040 3553 c-76 -27 -58 -143 21 -143 55 0 92 87 52 122 -22 19 -53
28 -73 21z"/>
<path d="M8070 3520 c-43 -43 -11 -120 50 -120 17 0 39 9 50 20 26 26 26 81 2
103 -25 23 -78 21 -102 -3z"/>
<path d="M7457 3500 c-72 -57 8 -167 81 -113 51 38 34 114 -28 128 -18 4 -34
0 -53 -15z"/>
<path d="M10392 3504 c-63 -44 -37 -134 39 -134 28 0 69 44 69 73 0 55 -65 92
-108 61z"/>
<path d="M2102 3380 c-48 -45 -16 -123 50 -123 64 0 92 83 42 122 -34 27 -64
27 -92 1z"/>
<path d="M3819 3342 c-49 -40 -17 -122 48 -122 67 0 96 68 48 115 -29 30 -64
32 -96 7z"/>
<path d="M4755 3335 c-30 -29 -32 -64 -5 -93 30 -32 82 -30 110 5 55 70 -42
151 -105 88z"/>
<path d="M691 3294 c-27 -34 -27 -64 -1 -92 45 -48 123 -16 123 50 0 64 -83
92 -122 42z"/>
<path d="M1322 3304 c-28 -20 -31 -83 -4 -107 25 -23 78 -21 102 3 61 61 -27
154 -98 104z"/>
<path d="M6821 3254 c-12 -15 -21 -34 -21 -44 0 -10 9 -29 21 -44 41 -52 122
-23 122 44 0 67 -81 96 -122 44z"/>
<path d="M11040 3260 c-43 -43 -11 -120 50 -120 38 0 70 32 70 70 0 38 -32 70
-70 70 -17 0 -39 -9 -50 -20z"/>
<path d="M3111 3214 c-12 -15 -21 -34 -21 -44 0 -34 39 -70 75 -70 36 0 75 36
75 70 0 34 -39 70 -75 70 -24 0 -39 -7 -54 -26z"/>
<path d="M6080 3220 c-11 -11 -20 -33 -20 -50 0 -59 67 -90 118 -54 28 20 31
83 4 107 -25 23 -78 21 -102 -3z"/>
<path d="M8540 3220 c-11 -11 -20 -33 -20 -50 0 -59 67 -90 118 -54 28 20 31
83 4 107 -25 23 -78 21 -102 -3z"/>
<path d="M7770 3170 c-26 -26 -26 -81 -2 -103 28 -25 87 -22 106 5 50 71 -43
159 -104 98z"/>
<path d="M2496 3109 c-52 -41 -23 -129 42 -129 66 0 97 89 46 129 -15 12 -34
21 -44 21 -10 0 -29 -9 -44 -21z"/>
<path d="M9730 3117 c-52 -26 -49 -104 4 -128 81 -37 138 73 64 125 -27 19
-35 20 -68 3z"/>
<path d="M240 2830 c-24 -24 -26 -67 -4 -98 11 -16 25 -22 54 -22 29 0 43 6
54 22 36 51 5 118 -54 118 -17 0 -39 -9 -50 -20z"/>
<path d="M662 2833 c-32 -27 -37 -64 -12 -96 28 -35 80 -37 110 -5 58 63 -32
156 -98 101z"/>
<path d="M1071 2824 c-24 -30 -26 -46 -10 -77 16 -30 28 -37 66 -37 41 0 77
42 68 80 -14 60 -88 80 -124 34z"/>
<path d="M1492 2827 c-45 -48 -14 -117 51 -117 42 0 67 26 67 68 0 65 -74 96
-118 49z"/>
<path d="M1911 2832 c-28 -22 -31 -75 -6 -102 24 -26 79 -26 105 0 62 62 -31
158 -99 102z"/>
<path d="M2321 2824 c-24 -30 -26 -46 -10 -77 16 -30 28 -37 66 -37 22 0 38 8
52 26 27 35 26 59 -4 89 -33 34 -77 33 -104 -1z"/>
<path d="M2742 2827 c-45 -48 -14 -117 51 -117 43 0 67 26 67 73 0 63 -74 91
-118 44z"/>
<path d="M3160 2830 c-26 -26 -26 -81 -2 -103 44 -40 122 -7 122 51 0 60 -78
94 -120 52z"/>
<path d="M3575 2825 c-30 -30 -31 -54 -4 -89 15 -19 30 -26 54 -26 37 0 75 37
75 72 0 27 -45 68 -75 68 -14 0 -37 -11 -50 -25z"/>
<path d="M3992 2827 c-45 -48 -14 -117 51 -117 43 0 67 26 67 73 0 63 -74 91
-118 44z"/>
<path d="M4411 2832 c-28 -22 -31 -75 -6 -102 24 -26 79 -26 105 0 62 62 -31
158 -99 102z"/>
<path d="M4825 2825 c-28 -27 -31 -45 -14 -78 16 -30 28 -37 66 -37 35 0 73
37 73 72 0 27 -45 68 -75 68 -14 0 -37 -11 -50 -25z"/>
<path d="M5242 2827 c-45 -48 -14 -117 51 -117 42 0 67 26 67 68 0 65 -74 96
-118 49z"/>
<path d="M5660 2830 c-26 -26 -26 -81 -2 -103 44 -40 122 -7 122 51 0 60 -78
94 -120 52z"/>
<path d="M6075 2825 c-30 -30 -31 -54 -4 -89 15 -19 30 -26 54 -26 37 0 75 37
75 72 0 27 -45 68 -75 68 -14 0 -37 -11 -50 -25z"/>
<path d="M6492 2827 c-45 -48 -14 -117 51 -117 43 0 67 26 67 73 0 63 -74 91
-118 44z"/>
<path d="M6910 2830 c-24 -24 -26 -67 -4 -98 11 -16 25 -22 54 -22 29 0 43 6
54 22 36 51 5 118 -54 118 -17 0 -39 -9 -50 -20z"/>
<path d="M7332 2834 c-28 -20 -31 -83 -4 -107 25 -23 78 -21 102 3 61 61 -27
154 -98 104z"/>
<path d="M7745 2825 c-30 -30 -31 -54 -4 -89 15 -19 30 -26 54 -26 37 0 75 37
75 72 0 27 -45 68 -75 68 -14 0 -37 -11 -50 -25z"/>
<path d="M8162 2827 c-45 -48 -14 -117 51 -117 42 0 67 26 67 68 0 65 -74 96
-118 49z"/>
<path d="M8575 2825 c-28 -27 -31 -45 -14 -78 16 -30 28 -37 66 -37 35 0 73
37 73 72 0 27 -45 68 -75 68 -14 0 -37 -11 -50 -25z"/>
<path d="M8985 2825 c-30 -30 -31 -54 -4 -89 15 -19 30 -26 54 -26 37 0 75 37
75 72 0 27 -45 68 -75 68 -14 0 -37 -11 -50 -25z"/>
<path d="M9401 2824 c-41 -53 -13 -114 52 -114 42 0 70 29 70 72 0 64 -83 92
-122 42z"/>
<path d="M9820 2830 c-24 -24 -26 -67 -4 -98 11 -16 25 -22 54 -22 29 0 43 6
54 22 36 51 5 118 -54 118 -17 0 -39 -9 -50 -20z"/>
<path d="M10242 2833 c-32 -27 -37 -64 -12 -96 28 -35 80 -37 110 -5 58 63
-32 156 -98 101z"/>
<path d="M10651 2824 c-41 -53 -13 -114 52 -114 42 0 70 29 70 72 0 64 -83 92
-122 42z"/>
<path d="M11070 2830 c-26 -26 -26 -81 -2 -103 44 -40 122 -7 122 51 0 60 -78
94 -120 52z"/>
<path d="M2846 2599 c-36 -28 -36 -80 0 -108 15 -12 34 -21 44 -21 34 0 70 39
70 75 0 36 -36 75 -70 75 -10 0 -29 -9 -44 -21z"/>
<path d="M3666 2599 c-36 -28 -36 -80 0 -108 15 -12 34 -21 44 -21 34 0 70 39
70 75 0 36 -36 75 -70 75 -10 0 -29 -9 -44 -21z"/>
<path d="M5858 2606 c-10 -7 -21 -24 -26 -37 -28 -74 78 -130 123 -66 22 31
18 65 -10 92 -26 27 -60 32 -87 11z"/>
<path d="M520 2560 c-26 -26 -26 -81 -2 -103 28 -25 87 -22 106 5 50 71 -43
159 -104 98z"/>
<path d="M7722 2477 c-45 -48 -14 -117 51 -117 42 0 67 26 67 68 0 65 -74 96
-118 49z"/>
<path d="M9910 2480 c-26 -26 -26 -81 -2 -103 44 -40 122 -7 122 51 0 60 -78
94 -120 52z"/>
<path d="M1520 2440 c-26 -26 -26 -81 -2 -103 45 -40 122 -6 122 53 0 17 -9
39 -20 50 -11 11 -33 20 -50 20 -17 0 -39 -9 -50 -20z"/>
<path d="M10781 2434 c-12 -15 -21 -34 -21 -44 0 -34 39 -70 75 -70 36 0 75
36 75 70 0 34 -39 70 -75 70 -24 0 -39 -7 -54 -26z"/>
<path d="M4610 2370 c-11 -11 -20 -33 -20 -50 0 -17 9 -39 20 -50 11 -11 33
-20 50 -20 17 0 39 9 50 20 11 11 20 33 20 50 0 17 -9 39 -20 50 -11 11 -33
20 -50 20 -17 0 -39 -9 -50 -20z"/>
<path d="M8993 2340 c-46 -19 -57 -83 -20 -118 48 -45 117 -14 117 51 0 51
-50 86 -97 67z"/>
<path d="M6840 2257 c-52 -26 -49 -104 4 -128 36 -17 73 -3 92 32 19 38 6 80
-32 98 -31 14 -33 14 -64 -2z"/>
<path d="M3477 2179 c-48 -28 -40 -107 13 -129 23 -9 34 -9 58 4 49 25 56 72
17 111 -25 26 -58 31 -88 14z"/>
<path d="M5419 2132 c-29 -24 -30 -75 -1 -104 29 -29 80 -28 104 1 56 70 -33
159 -103 103z"/>
<path d="M8385 2125 c-28 -27 -30 -42 -14 -79 32 -69 139 -38 139 40 0 24 -47
64 -75 64 -14 0 -37 -11 -50 -25z"/>
<path d="M1100 2090 c-42 -42 -8 -120 53 -120 58 0 91 85 49 123 -25 23 -78
21 -102 -3z"/>
<path d="M2100 2090 c-26 -26 -26 -81 -2 -103 44 -40 122 -7 122 51 0 60 -78
94 -120 52z"/>
<path d="M6202 2014 c-29 -20 -30 -76 -2 -104 43 -43 120 -11 120 50 0 59 -67
90 -118 54z"/>
<path d="M7497 2012 c-25 -28 -22 -87 5 -106 71 -50 159 43 98 104 -26 26 -81
26 -103 2z"/>
<path d="M10302 2014 c-29 -20 -30 -76 -2 -104 43 -43 120 -11 120 50 0 59
-67 90 -118 54z"/>
<path d="M417 1932 c-40 -45 -6 -122 53 -122 59 0 90 67 54 118 -20 28 -83 31
-107 4z"/>
<path d="M4992 1847 c-45 -48 -14 -117 51 -117 42 0 67 26 67 68 0 65 -74 96
-118 49z"/>
<path d="M9741 1844 c-27 -34 -27 -64 -1 -92 47 -50 140 -6 125 58 -14 60 -88
80 -124 34z"/>
<path d="M10824 1828 c-69 -33 -37 -138 42 -138 24 0 64 47 64 75 0 30 -41 75
-67 74 -10 0 -28 -5 -39 -11z"/>
<path d="M2560 1780 c-11 -11 -20 -33 -20 -50 0 -17 9 -39 20 -50 11 -11 33
-20 50 -20 17 0 39 9 50 20 11 11 20 33 20 50 0 17 -9 39 -20 50 -11 11 -33
20 -50 20 -17 0 -39 -9 -50 -20z"/>
<path d="M3391 1774 c-12 -15 -21 -34 -21 -44 0 -34 39 -70 75 -70 43 0 79 41
70 80 -14 60 -88 80 -124 34z"/>
<path d="M8012 1777 c-45 -48 -14 -117 51 -117 43 0 67 26 67 73 0 63 -74 91
-118 44z"/>
<path d="M9285 1735 c-39 -38 -32 -86 16 -110 76 -40 146 71 76 120 -31 22
-65 18 -92 -10z"/>
<path d="M4252 1703 c-52 -44 -24 -123 44 -123 68 0 97 68 49 115 -28 29 -65
32 -93 8z"/>
<path d="M6745 1695 c-30 -30 -31 -54 -4 -89 20 -26 69 -36 95 -18 15 10 34
47 34 67 0 25 -46 65 -75 65 -14 0 -37 -11 -50 -25z"/>
<path d="M1280 1660 c-26 -26 -26 -81 -2 -103 44 -40 122 -6 122 53 0 60 -78
92 -120 50z"/>
<path d="M236 1408 c-36 -51 -5 -118 54 -118 59 0 90 67 54 118 -21 31 -87 31
-108 0z"/>
<path d="M650 1403 c-37 -47 -2 -113 60 -113 33 0 70 40 70 74 0 63 -90 89
-130 39z"/>
<path d="M1076 1414 c-43 -43 -19 -116 41 -122 62 -6 101 62 63 111 -25 31
-78 37 -104 11z"/>
<path d="M1490 1410 c-11 -11 -20 -33 -20 -50 0 -17 9 -39 20 -50 45 -45 120
-11 120 53 0 20 -8 41 -18 50 -25 23 -78 21 -102 -3z"/>
<path d="M1905 1410 c-25 -27 -22 -80 6 -102 68 -56 161 40 99 102 -26 26 -81
26 -105 0z"/>
<path d="M2321 1404 c-12 -15 -21 -34 -21 -44 0 -32 39 -70 71 -70 34 0 79 39
79 68 0 35 -38 72 -75 72 -24 0 -39 -7 -54 -26z"/>
<path d="M2740 1410 c-61 -61 27 -154 98 -104 28 20 31 83 4 107 -25 23 -78
21 -102 -3z"/>
<path d="M3157 1412 c-40 -44 -7 -122 51 -122 60 0 94 78 52 120 -26 26 -81
26 -103 2z"/>
<path d="M3571 1404 c-12 -15 -21 -35 -21 -46 0 -27 45 -68 75 -68 30 0 75 41
75 68 0 35 -38 72 -75 72 -24 0 -39 -7 -54 -26z"/>
<path d="M3990 1410 c-61 -61 27 -154 98 -104 28 20 31 83 4 107 -25 23 -78
21 -102 -3z"/>
<path d="M4405 1410 c-25 -27 -22 -80 6 -102 68 -56 161 40 99 102 -26 26 -81
26 -105 0z"/>
<path d="M4826 1414 c-27 -27 -31 -63 -9 -92 28 -38 75 -41 108 -8 30 31 32
55 4 90 -24 30 -78 36 -103 10z"/>
<path d="M5240 1410 c-43 -43 -10 -120 52 -120 59 0 93 84 50 123 -25 23 -78
21 -102 -3z"/>
<path d="M5657 1412 c-40 -44 -7 -122 51 -122 60 0 94 78 52 120 -26 26 -81
26 -103 2z"/>
<path d="M6071 1404 c-27 -35 -26 -59 4 -89 33 -34 77 -33 104 1 12 15 21 34
21 44 0 34 -39 70 -75 70 -24 0 -39 -7 -54 -26z"/>
<path d="M6490 1410 c-61 -61 27 -154 98 -104 28 20 31 83 4 107 -25 23 -78
21 -102 -3z"/>
<path d="M6906 1408 c-36 -51 -5 -118 54 -118 59 0 90 67 54 118 -21 31 -87
31 -108 0z"/>
<path d="M7327 1412 c-25 -28 -22 -87 5 -106 71 -50 159 43 98 104 -26 26 -81
26 -103 2z"/>
<path d="M7741 1404 c-12 -15 -21 -35 -21 -46 0 -27 45 -68 75 -68 30 0 75 41
75 68 0 35 -38 72 -75 72 -24 0 -39 -7 -54 -26z"/>
<path d="M8160 1410 c-42 -42 -8 -120 53 -120 58 0 91 85 49 123 -25 23 -78
21 -102 -3z"/>
<path d="M8571 1404 c-12 -15 -21 -34 -21 -44 0 -32 39 -70 71 -70 34 0 79 39
79 68 0 35 -38 72 -75 72 -24 0 -39 -7 -54 -26z"/>
<path d="M8981 1404 c-12 -15 -21 -35 -21 -46 0 -27 45 -68 75 -68 30 0 75 41
75 68 0 35 -38 72 -75 72 -24 0 -39 -7 -54 -26z"/>
<path d="M9400 1410 c-26 -26 -25 -60 1 -94 25 -31 66 -35 100 -8 28 23 30 73
4 102 -24 26 -79 26 -105 0z"/>
<path d="M9816 1408 c-36 -51 -5 -118 54 -118 59 0 90 67 54 118 -21 31 -87
31 -108 0z"/>
<path d="M10230 1403 c-37 -47 -2 -113 60 -113 33 0 70 40 70 74 0 63 -90 89
-130 39z"/>
<path d="M10650 1410 c-26 -26 -25 -60 1 -94 25 -31 66 -35 100 -8 28 23 30
73 4 102 -24 26 -79 26 -105 0z"/>
<path d="M11067 1412 c-40 -44 -7 -122 51 -122 60 0 94 78 52 120 -26 26 -81
26 -103 2z"/>
<path d="M1476 1115 c-59 -59 10 -155 83 -114 62 35 41 121 -31 127 -23 2 -41
-3 -52 -13z"/>
<path d="M10675 1105 c-40 -39 -29 -97 22 -116 58 -22 116 36 94 94 -19 51
-77 62 -116 22z"/>
<path d="M7776 1089 c-19 -15 -26 -30 -26 -54 0 -36 36 -75 70 -75 34 0 70 39
70 75 0 36 -36 75 -70 75 -10 0 -29 -9 -44 -21z"/>
<path d="M9121 1084 c-12 -15 -21 -34 -21 -44 0 -34 39 -70 75 -70 36 0 75 36
75 70 0 34 -39 70 -75 70 -24 0 -39 -7 -54 -26z"/>
<path d="M3643 1090 c-48 -19 -58 -87 -17 -119 53 -41 114 -13 114 52 0 51
-50 86 -97 67z"/>
<path d="M6760 1050 c-42 -42 -12 -120 48 -120 46 0 72 25 72 70 0 29 -6 43
-22 54 -31 22 -74 20 -98 -4z"/>
<path d="M4380 1047 c-52 -26 -49 -104 5 -129 58 -26 119 33 95 91 -6 16 -23
33 -36 40 -31 14 -33 14 -64 -2z"/>
<path d="M9957 1038 c-37 -33 -40 -75 -7 -108 27 -27 66 -25 95 5 29 28 32 65
8 93 -28 33 -66 37 -96 10z"/>
<path d="M6154 1028 c-69 -33 -37 -138 42 -138 24 0 64 47 64 75 0 30 -41 75
-67 74 -10 0 -28 -5 -39 -11z"/>
<path d="M5552 1010 c-45 -19 -51 -96 -9 -125 50 -35 111 -2 111 59 0 20 -7
43 -14 50 -20 20 -60 27 -88 16z"/>
<path d="M611 794 c-12 -15 -21 -34 -21 -44 0 -34 39 -70 75 -70 36 0 75 36
75 70 0 34 -39 70 -75 70 -24 0 -39 -7 -54 -26z"/>
<path d="M8309 802 c-48 -40 -17 -122 47 -122 66 0 98 74 51 118 -28 27 -67
28 -98 4z"/>
<path d="M2910 743 c-51 -19 -68 -85 -30 -123 45 -45 120 -11 120 53 0 47 -49
85 -90 70z"/>
<path d="M1277 722 c-40 -44 -7 -122 51 -122 60 0 94 78 52 120 -26 26 -81 26
-103 2z"/>
<path d="M2175 720 c-42 -47 -8 -120 55 -120 33 0 70 40 70 76 0 57 -86 87
-125 44z"/>
<path d="M7095 720 c-42 -47 -8 -120 55 -120 33 0 70 40 70 76 0 57 -86 87
-125 44z"/>
<path d="M4980 703 c-51 -19 -68 -85 -30 -123 61 -61 159 32 103 98 -20 23
-50 33 -73 25z"/>
<path d="M10910 680 c-26 -26 -26 -81 0 -105 29 -26 79 -24 102 4 27 34 23 75
-8 100 -34 26 -68 27 -94 1z"/>
<path d="M9916 609 c-26 -20 -36 -69 -18 -95 10 -15 47 -34 67 -34 25 0 65 46
65 75 0 30 -41 75 -68 75 -11 0 -31 -9 -46 -21z"/>
<path d="M4172 530 c-50 -47 -6 -140 58 -125 60 14 80 88 34 124 -34 27 -64
27 -92 1z"/>
<path d="M185 485 c-28 -27 -30 -42 -14 -79 32 -69 139 -38 139 40 0 24 -47
64 -75 64 -14 0 -37 -11 -50 -25z"/>
<path d="M3350 490 c-26 -26 -26 -81 0 -105 29 -26 79 -24 102 4 27 34 23 75
-8 100 -34 26 -68 27 -94 1z"/>
<path d="M6380 460 c-43 -43 -11 -120 50 -120 38 0 70 32 70 70 0 38 -32 70
-70 70 -17 0 -39 -9 -50 -20z"/>
<path d="M1673 438 c-28 -14 -43 -55 -31 -89 9 -26 44 -49 74 -49 24 0 64 47
64 75 0 30 -41 75 -67 74 -10 0 -28 -5 -40 -11z"/>
<path d="M10470 388 c-27 -29 -25 -69 3 -96 46 -43 120 -15 120 46 0 66 -78
98 -123 50z"/>
<path d="M9092 374 c-16 -11 -22 -25 -22 -54 0 -29 6 -43 22 -54 51 -36 118
-5 118 54 0 59 -67 90 -118 54z"/>
<path d="M5650 330 c-61 -61 27 -154 98 -104 28 20 31 83 4 107 -25 23 -78 21
-102 -3z"/>
<path d="M7561 324 c-27 -35 -26 -59 4 -89 33 -34 77 -33 104 1 12 15 21 34
21 44 0 34 -39 70 -75 70 -24 0 -39 -7 -54 -26z"/>
<path d="M8381 284 c-12 -15 -21 -35 -21 -46 0 -27 45 -68 75 -68 29 0 75 40
75 65 0 20 -19 57 -34 67 -26 18 -75 8 -95 -18z"/>
</g>
</svg>
