<?xml version="1.0" standalone="no"?>
<!DOCTYPE svg PUBLIC "-//W3C//DTD SVG 20010904//EN"
 "http://www.w3.org/TR/2001/REC-SVG-20010904/DTD/svg10.dtd">
<svg version="1.0" xmlns="http://www.w3.org/2000/svg"
 width="1125.000000pt" height="900.000000pt" viewBox="0 0 1125.000000 900.000000"
 preserveAspectRatio="xMidYMid meet">
<metadata>
Created by potrace 1.13, written by Peter Selinger 2001-2015
</metadata>
<g transform="translate(0.000000,900.000000) scale(0.100000,-0.100000)"
fill="#000000" stroke="none">
<path d="M0 4500 l0 -4500 5625 0 5625 0 0 4500 0 4500 -5625 0 -5625 0 0
-4500z m11205 4330 l0 -125 -212 -3 -213 -2 0 -30 0 -30 213 -2 212 -3 0 -275
0 -275 -602 -3 -603 -2 0 -30 0 -30 603 -2 602 -3 3 -257 2 -258 -297 -2 -298
-3 -3 -32 -3 -33 300 0 301 0 -2 -1222 -3 -1223 -362 -3 -363 -2 0 -30 0 -30
363 -2 362 -3 0 -600 0 -600 -233 -3 -233 -2 3 -28 3 -27 230 -5 230 -5 0
-194 0 -194 -87 -18 c-268 -54 -390 -147 -308 -234 38 -41 183 -76 355 -87
l40 -3 0 -220 0 -220 -347 -3 -348 -2 0 -30 0 -30 348 -2 347 -3 0 -1180 0
-1180 -482 -3 -481 -2 -75 30 c-140 56 -300 80 -532 80 -222 0 -437 -32 -581
-86 l-64 -24 -2168 0 -2167 0 -55 26 c-130 60 -344 89 -605 81 -207 -6 -366
-31 -498 -77 l-87 -30 -1683 2 -1682 3 0 1180 0 1180 315 5 315 5 3 27 3 28
-318 2 -318 3 0 218 0 218 212 4 c410 8 644 54 706 137 64 86 -81 174 -342
208 -114 15 -350 18 -484 7 l-97 -8 2 193 3 193 433 3 432 2 0 30 0 30 -433 2
-432 3 0 600 0 600 298 3 297 2 0 30 0 30 -297 2 -298 3 -3 1222 -2 1223 367
2 368 3 0 30 0 30 -368 3 -367 2 2 258 3 257 63 3 c62 3 63 3 60 30 -3 25 -7
27 -63 32 l-60 5 0 275 0 275 448 3 447 2 0 30 0 30 -448 2 -447 3 -3 114 c-1
63 0 121 2 128 4 11 988 13 5583 11 l5578 -3 0 -125z m-10510 -5643 c92 -20
164 -45 198 -69 27 -19 27 -21 11 -39 -10 -11 -47 -28 -83 -40 -127 -39 -251
-52 -521 -53 l-255 -1 -3 102 c-3 114 -8 106 78 117 83 10 507 -3 575 -17z
m10513 -99 l-3 -103 -87 3 c-96 3 -234 34 -257 57 -13 13 -12 17 3 34 24 26
102 59 210 87 146 37 137 42 134 -78z m-6853 -3019 c39 -6 77 -15 85 -20 9 -5
-152 -9 -378 -9 -226 0 -391 4 -388 9 3 5 52 14 108 21 57 6 112 13 123 15 40
7 382 -5 450 -16z m5580 0 c39 -6 74 -15 80 -20 5 -5 -150 -9 -385 -9 -438 0
-481 12 -165 44 70 7 397 -3 470 -15z"/>
<path d="M3890 8823 c-311 -32 -520 -116 -520 -208 0 -91 141 -132 485 -142
423 -11 753 35 842 119 27 25 30 73 7 106 -55 79 -310 133 -614 130 -91 -1
-181 -3 -200 -5z m530 -78 c105 -19 187 -46 222 -74 19 -16 20 -21 9 -34 -89
-108 -986 -146 -1186 -50 -40 19 -42 25 -18 49 53 53 222 99 473 128 80 9 409
-3 500 -19z"/>
<path d="M9427 8820 c-245 -31 -435 -99 -472 -170 -66 -128 166 -190 665 -177
365 10 580 49 650 118 41 41 39 72 -7 119 -42 41 -122 72 -251 96 -91 18 -484
27 -585 14z m565 -74 c161 -29 268 -80 236 -112 -8 -8 -39 -23 -70 -34 -278
-97 -1148 -87 -1148 15 0 48 215 119 441 144 111 13 444 5 541 -13z"/>
<path d="M1470 8670 l0 -30 665 0 665 0 0 30 0 30 -665 0 -665 0 0 -30z"/>
<path d="M5210 8670 l0 -30 660 0 660 0 0 30 0 30 -660 0 -660 0 0 -30z"/>
<path d="M7060 8670 l0 -30 665 0 665 0 0 30 0 30 -665 0 -665 0 0 -30z"/>
<path d="M1300 8224 c-301 -34 -454 -78 -532 -152 -30 -27 -36 -68 -18 -103
16 -28 76 -56 171 -76 122 -26 690 -26 857 0 208 33 312 83 312 152 0 103
-221 172 -575 180 -99 2 -196 1 -215 -1z m313 -64 c76 -6 178 -19 227 -29 95
-21 194 -65 188 -83 -14 -40 -130 -77 -309 -100 -143 -18 -658 -18 -759 1 -90
16 -163 46 -158 63 20 59 253 129 486 147 154 12 173 12 325 1z"/>
<path d="M6825 8220 c-241 -25 -453 -95 -499 -164 -23 -35 -20 -60 10 -95 32
-39 115 -65 254 -81 141 -17 630 -8 765 14 194 31 291 73 309 133 22 80 -83
141 -308 179 -112 18 -410 26 -531 14z m535 -80 c116 -19 217 -55 234 -83 15
-24 -10 -42 -94 -67 -119 -36 -256 -51 -520 -57 -341 -7 -549 16 -595 67 -16
17 -14 20 23 45 161 106 617 152 952 95z"/>
<path d="M2550 8050 l0 -30 665 0 665 0 0 30 0 30 -665 0 -665 0 0 -30z"/>
<path d="M4410 8050 l0 -30 670 0 670 0 0 30 0 30 -670 0 -670 0 0 -30z"/>
<path d="M8147 8073 c-4 -3 -7 -17 -7 -30 l0 -23 665 0 665 0 0 30 0 30 -658
0 c-362 0 -662 -3 -665 -7z"/>
<path d="M3743 7680 c-254 -21 -463 -85 -527 -160 -29 -35 -31 -48 -14 -85 39
-86 359 -129 773 -106 313 19 480 54 542 116 75 75 15 145 -169 194 -142 39
-412 57 -605 41z m522 -83 c92 -20 164 -45 198 -69 27 -19 27 -21 11 -39 -22
-25 -123 -56 -244 -76 -144 -23 -653 -30 -786 -9 -120 18 -184 41 -184 66 0
39 170 104 340 129 41 6 86 13 100 15 60 11 498 -3 565 -17z"/>
<path d="M9325 7679 c-284 -22 -521 -99 -549 -180 -13 -38 0 -75 33 -99 154
-109 1015 -100 1240 14 28 14 55 35 61 45 61 114 -112 195 -469 221 -149 11
-170 11 -316 -1z m530 -87 c126 -27 205 -64 205 -94 0 -20 -113 -59 -231 -80
-113 -21 -155 -23 -469 -22 -325 0 -350 1 -424 22 -77 21 -106 36 -106 53 0
17 78 60 152 84 66 21 162 40 293 59 17 2 134 3 260 1 182 -3 249 -7 320 -23z"/>
<path d="M1310 7465 l0 -35 660 0 660 0 0 35 0 35 -660 0 -660 0 0 -35z"/>
<path d="M5047 7493 c-4 -3 -7 -19 -7 -35 l0 -28 663 2 662 3 0 30 0 30 -656
3 c-360 1 -659 -1 -662 -5z"/>
<path d="M6900 7465 l0 -35 660 0 660 0 0 35 0 35 -660 0 -660 0 0 -35z"/>
<path d="M705 7053 c-278 -33 -459 -89 -514 -159 -61 -77 12 -141 199 -175
116 -22 649 -18 804 4 143 22 264 58 299 91 108 101 -47 201 -365 235 -90 10
-354 13 -423 4z m388 -63 c146 -14 241 -35 307 -68 70 -34 74 -53 18 -79 -115
-54 -314 -77 -663 -77 -228 0 -297 3 -371 18 -108 21 -163 49 -143 72 7 9 33
26 58 39 164 82 500 123 794 95z"/>
<path d="M6275 7053 c-143 -12 -350 -60 -430 -100 -56 -28 -95 -74 -95 -110 0
-61 60 -96 212 -124 91 -17 492 -23 654 -10 329 27 484 81 484 169 0 82 -138
142 -395 172 -83 9 -335 11 -430 3z m390 -63 c61 -6 144 -18 185 -26 87 -18
185 -62 185 -84 0 -21 -79 -58 -161 -75 -150 -31 -263 -39 -544 -39 -295 0
-394 10 -483 48 -55 22 -46 44 34 84 161 79 497 119 784 92z"/>
<path d="M2004 6866 c-3 -8 -4 -23 -2 -33 3 -17 36 -18 666 -21 l662 -2 0 35
0 35 -660 0 c-566 0 -661 -2 -666 -14z"/>
<path d="M3860 6845 l0 -35 668 2 667 3 3 33 3 32 -670 0 -671 0 0 -35z"/>
<path d="M7594 6866 c-3 -8 -4 -23 -2 -33 3 -17 36 -18 666 -21 l662 -2 0 35
0 35 -660 0 c-566 0 -661 -2 -666 -14z"/>
<path d="M9452 6848 l3 -33 660 0 660 0 0 30 0 30 -663 3 -663 2 3 -32z"/>
<path d="M2756 6389 c-161 -17 -338 -64 -412 -109 -73 -45 -95 -108 -51 -147
72 -66 229 -93 552 -93 485 0 775 65 775 174 0 17 -7 42 -16 55 -36 51 -191
100 -379 121 -105 11 -355 11 -469 -1z m439 -59 c192 -18 360 -70 360 -110 0
-21 -79 -58 -161 -75 -242 -50 -779 -59 -949 -14 -51 13 -115 40 -115 49 0 16
51 52 106 74 170 69 489 101 759 76z"/>
<path d="M8330 6390 c-331 -41 -526 -137 -479 -236 19 -39 87 -71 191 -92 108
-21 643 -23 788 -3 250 34 370 84 370 155 0 39 -54 92 -118 116 -117 45 -234
61 -462 65 -118 2 -249 0 -290 -5z m553 -74 c105 -17 203 -49 237 -76 l25 -20
-23 -20 c-76 -64 -446 -108 -802 -96 -260 9 -416 41 -408 83 10 51 226 120
448 143 115 12 415 4 523 -14z"/>
<path d="M400 6220 l0 -30 665 0 665 0 0 30 0 30 -665 0 -665 0 0 -30z"/>
<path d="M4120 6220 l0 -30 670 0 670 0 0 30 0 30 -670 0 -670 0 0 -30z"/>
<path d="M5990 6220 l0 -30 665 0 665 0 0 30 0 30 -665 0 -665 0 0 -30z"/>
<path d="M9710 6220 l0 -30 666 0 665 0 -3 28 -3 27 -662 3 -663 2 0 -30z"/>
<path d="M775 5803 c-278 -33 -459 -89 -514 -159 -61 -77 12 -141 199 -175
116 -21 649 -18 804 5 144 21 262 57 298 91 108 101 -46 200 -364 234 -90 10
-354 13 -423 4z m390 -63 c193 -19 355 -68 363 -111 4 -21 -61 -52 -153 -72
-141 -31 -270 -41 -550 -41 -303 0 -426 14 -496 56 l-34 21 34 27 c61 51 282
109 471 123 103 8 262 6 365 -3z"/>
<path d="M6345 5803 c-221 -19 -433 -82 -497 -148 -38 -38 -38 -87 -1 -121 56
-52 177 -73 464 -81 433 -11 772 39 839 125 102 129 -180 235 -615 230 -82 -1
-168 -3 -190 -5z m390 -63 c61 -6 144 -18 185 -26 87 -18 185 -62 185 -84 0
-21 -79 -58 -161 -75 -144 -30 -273 -39 -549 -39 -289 1 -390 11 -478 48 -54
22 -46 44 33 84 157 79 497 119 785 92z"/>
<path d="M2100 5620 l0 -30 665 0 665 0 0 30 0 30 -665 0 -665 0 0 -30z"/>
<path d="M3960 5620 l0 -30 670 0 670 0 0 30 0 30 -670 0 -670 0 0 -30z"/>
<path d="M7690 5620 l0 -30 665 0 665 0 0 30 0 30 -665 0 -665 0 0 -30z"/>
<path d="M9550 5620 l0 -30 665 0 665 0 0 30 0 30 -665 0 -665 0 0 -30z"/>
<path d="M3540 5143 c-94 -9 -243 -38 -315 -60 -212 -66 -268 -167 -130 -235
77 -39 245 -58 500 -58 494 0 780 66 777 179 0 18 -9 42 -19 53 -47 52 -192
98 -375 117 -90 10 -356 13 -438 4z m405 -63 c192 -18 360 -70 360 -110 0 -8
-21 -25 -46 -38 -90 -44 -265 -69 -559 -78 -291 -10 -525 14 -597 61 l-25 17
22 23 c51 55 235 104 480 128 79 8 262 6 365 -3z"/>
<path d="M9080 5140 c-330 -41 -526 -137 -479 -236 19 -38 88 -72 190 -92 109
-21 643 -24 789 -3 256 35 370 84 370 159 0 65 -91 116 -270 153 -110 23 -473
34 -600 19z m553 -74 c105 -17 203 -49 237 -76 l25 -20 -23 -20 c-76 -64 -446
-108 -802 -96 -260 9 -416 41 -408 83 10 51 226 120 448 143 116 12 416 4 523
-14z"/>
<path d="M1172 4953 l3 -28 663 -3 662 -2 0 30 0 30 -666 0 -665 0 3 -27z"/>
<path d="M4910 4950 l0 -30 660 0 660 0 0 30 0 30 -660 0 -660 0 0 -30z"/>
<path d="M6762 4953 l3 -28 663 -3 662 -2 0 30 0 30 -666 0 -665 0 3 -27z"/>
<path d="M1103 4520 c-254 -21 -463 -85 -527 -160 -33 -39 -33 -60 0 -99 64
-77 363 -113 754 -91 316 17 485 53 547 115 70 70 25 135 -125 184 -136 44
-442 68 -649 51z m542 -88 c99 -21 159 -44 187 -69 17 -15 17 -17 1 -35 -21
-24 -124 -55 -243 -74 -130 -21 -611 -31 -748 -15 -169 20 -242 50 -211 87 34
41 177 90 329 113 41 6 86 13 100 15 14 3 131 3 260 1 187 -2 253 -7 325 -23z"/>
<path d="M6678 4519 c-285 -23 -514 -100 -542 -181 -23 -66 33 -116 161 -143
123 -27 379 -38 598 -26 365 20 547 65 580 144 15 36 11 52 -23 89 -53 58
-212 101 -433 118 -148 11 -198 11 -341 -1z m432 -69 c153 -19 310 -72 310
-105 0 -40 -165 -85 -389 -105 -174 -16 -620 -8 -713 13 -78 18 -131 43 -125
60 14 43 198 108 373 131 121 17 428 20 544 6z"/>
<path d="M2370 4335 l0 -35 660 0 660 0 0 35 0 35 -660 0 -660 0 0 -35z"/>
<path d="M4230 4335 l0 -35 665 0 665 0 0 35 0 35 -665 0 -665 0 0 -35z"/>
<path d="M7960 4335 l0 -35 663 2 662 3 0 30 0 30 -662 3 -663 2 0 -35z"/>
<path d="M9820 4335 l0 -35 660 0 660 0 0 35 0 35 -660 0 -660 0 0 -35z"/>
<path d="M3795 3894 c-16 -2 -66 -9 -110 -15 -179 -23 -359 -88 -404 -145 -61
-77 12 -141 199 -175 116 -21 649 -18 803 4 200 30 303 70 327 128 33 79 -68
144 -287 185 -84 16 -454 28 -528 18z m514 -80 c150 -26 241 -64 241 -99 0
-19 -74 -50 -160 -69 -120 -25 -231 -36 -450 -42 -294 -9 -527 15 -599 63
l-25 16 33 28 c60 49 253 101 466 123 86 9 403 -4 494 -20z"/>
<path d="M9360 3893 c-383 -39 -605 -159 -492 -265 59 -56 177 -78 462 -85
431 -11 774 40 840 125 79 100 -71 189 -372 221 -90 10 -357 13 -438 4z m406
-64 c193 -18 359 -69 359 -109 0 -118 -1057 -167 -1209 -55 -28 21 -14 40 56
74 160 79 507 118 794 90z"/>
<path d="M1440 3680 l0 -30 665 0 665 0 0 30 0 30 -665 0 -665 0 0 -30z"/>
<path d="M5170 3680 l0 -30 665 0 665 0 0 30 0 30 -665 0 -665 0 0 -30z"/>
<path d="M7030 3680 l0 -30 665 0 665 0 0 30 0 30 -665 0 -665 0 0 -30z"/>
<path d="M5800 3273 c-216 -15 -392 -52 -497 -103 -73 -36 -103 -70 -103 -116
0 -75 123 -118 392 -135 297 -19 703 14 849 70 144 55 146 149 7 211 -124 55
-427 89 -648 73z m405 -78 c161 -24 285 -70 285 -106 0 -17 -85 -52 -171 -69
-155 -32 -332 -43 -611 -37 -228 4 -274 7 -343 26 -92 25 -116 41 -95 66 35
42 198 96 360 119 132 19 450 20 575 1z"/>
<path d="M1410 3100 l0 -30 660 0 660 0 0 30 0 30 -660 0 -660 0 0 -30z"/>
<path d="M3267 3123 c-4 -3 -7 -17 -7 -30 l0 -23 665 0 665 0 0 30 0 30 -658
0 c-362 0 -662 -3 -665 -7z"/>
<path d="M7000 3100 l0 -30 660 0 660 0 0 30 0 30 -660 0 -660 0 0 -30z"/>
<path d="M8857 3123 c-4 -3 -7 -17 -7 -30 l0 -23 665 0 665 0 0 30 0 30 -658
0 c-362 0 -662 -3 -665 -7z"/>
<path d="M3667 2610 c-258 -23 -457 -85 -521 -160 -33 -39 -33 -60 0 -99 55
-66 222 -94 554 -94 427 0 694 46 760 131 69 87 -48 167 -300 206 -122 19
-367 27 -493 16z m468 -75 c127 -19 227 -49 261 -78 l27 -23 -27 -21 c-39 -31
-167 -62 -333 -79 -194 -21 -651 -14 -758 10 -75 18 -115 39 -115 60 0 35 184
103 340 125 41 6 86 13 100 15 73 10 414 5 505 -9z"/>
<path d="M9237 2609 c-273 -22 -503 -101 -531 -181 -23 -66 33 -116 161 -143
125 -27 375 -37 598 -25 400 21 585 76 585 173 0 128 -385 211 -813 176z m443
-69 c155 -19 310 -72 310 -106 0 -22 -92 -60 -190 -78 -139 -25 -292 -36 -520
-36 -283 0 -446 21 -505 63 -17 13 -17 17 -5 32 35 42 197 95 360 119 115 17
433 20 550 6z"/>
<path d="M1210 2440 l0 -30 660 0 660 0 0 30 0 30 -660 0 -660 0 0 -30z"/>
<path d="M4940 2440 l0 -30 663 2 662 3 3 28 3 27 -665 0 -666 0 0 -30z"/>
<path d="M6800 2440 l0 -30 660 0 660 0 0 30 0 30 -660 0 -660 0 0 -30z"/>
<path d="M760 1979 c-248 -28 -444 -99 -475 -172 -50 -118 137 -177 565 -177
452 0 741 57 774 151 31 91 -95 160 -350 194 -124 16 -388 18 -514 4z m445
-59 c185 -18 349 -66 362 -107 11 -33 -136 -80 -332 -104 -148 -19 -637 -17
-740 3 -158 31 -189 60 -110 105 152 87 510 132 820 103z"/>
<path d="M6330 1979 c-207 -25 -378 -79 -441 -139 -85 -81 -29 -148 156 -186
99 -21 485 -29 665 -15 269 21 406 56 468 117 42 42 41 69 -6 113 -43 41 -124
72 -252 97 -100 19 -474 28 -590 13z m565 -73 c189 -32 291 -89 223 -124 -209
-108 -1035 -125 -1187 -25 l-25 16 35 29 c57 48 233 96 424 118 111 12 422 4
530 -14z"/>
<path d="M2104 1846 c-3 -8 -4 -23 -2 -33 3 -17 36 -18 666 -21 l662 -2 0 35
0 35 -660 0 c-566 0 -661 -2 -666 -14z"/>
<path d="M3960 1825 l0 -35 671 0 670 0 -3 33 -3 32 -667 3 -668 2 0 -35z"/>
<path d="M7694 1846 c-3 -8 -4 -23 -2 -33 3 -17 36 -18 666 -21 l662 -2 0 35
0 35 -660 0 c-566 0 -661 -2 -666 -14z"/>
<path d="M9550 1825 l0 -35 663 2 662 3 0 30 0 30 -662 3 -663 2 0 -35z"/>
<path d="M2555 1388 c-226 -25 -430 -98 -466 -167 -63 -119 127 -181 557 -181
407 0 703 49 764 128 79 100 -71 189 -372 221 -114 13 -369 12 -483 -1z m451
-59 c193 -18 359 -69 359 -109 0 -35 -109 -70 -300 -97 -165 -23 -653 -23
-770 -1 -98 19 -155 42 -155 62 0 8 20 27 45 42 151 88 510 134 821 103z"/>
<path d="M8140 1389 c-216 -25 -386 -77 -451 -139 -89 -84 -23 -154 181 -191
112 -21 647 -18 799 4 166 24 256 53 303 97 43 42 47 66 17 104 -66 84 -308
137 -614 135 -88 -1 -194 -5 -235 -10z m433 -59 c146 -14 241 -35 307 -68 70
-34 74 -53 18 -79 -210 -99 -1022 -111 -1165 -18 l-27 18 35 29 c59 49 269
104 464 121 90 8 267 6 368 -3z"/>
<path d="M202 1208 l3 -33 660 0 660 0 3 33 3 32 -666 0 -666 0 3 -32z"/>
<path d="M3920 1205 l0 -35 670 0 670 0 0 35 0 35 -670 0 -670 0 0 -35z"/>
<path d="M5792 1208 l3 -33 660 0 660 0 3 33 3 32 -666 0 -666 0 3 -32z"/>
<path d="M9510 1205 l0 -35 660 0 660 0 0 35 0 35 -660 0 -660 0 0 -35z"/>
<path d="M980 788 c-227 -23 -436 -98 -474 -168 -17 -32 -18 -39 -5 -65 18
-38 83 -71 180 -91 104 -21 495 -30 685 -15 325 26 484 82 484 171 0 106 -274
182 -642 179 -79 -1 -181 -6 -228 -11z m555 -73 c107 -18 201 -48 235 -74 20
-16 22 -22 11 -35 -55 -66 -433 -115 -806 -102 -265 8 -421 40 -413 83 8 48
240 121 448 142 128 13 414 5 525 -14z"/>
<path d="M6605 793 c-278 -33 -451 -85 -510 -154 -45 -54 -28 -103 50 -141 91
-45 282 -62 599 -55 363 9 564 43 643 112 42 36 49 81 17 116 -48 53 -191 98
-376 118 -90 10 -354 13 -423 4z m385 -64 c198 -18 359 -66 368 -110 6 -33
-132 -76 -318 -99 -47 -6 -177 -13 -290 -17 -299 -9 -525 15 -598 63 l-26 17
35 29 c60 50 280 107 469 121 103 8 252 6 360 -4z"/>
<path d="M2300 620 l0 -30 665 0 665 0 0 30 0 30 -665 0 -665 0 0 -30z"/>
<path d="M4160 620 l0 -30 670 0 670 0 0 30 0 30 -670 0 -670 0 0 -30z"/>
<path d="M7890 620 l0 -30 665 0 665 0 0 30 0 30 -665 0 -665 0 0 -30z"/>
<path d="M9750 620 l0 -30 663 2 662 3 3 28 3 27 -665 0 -666 0 0 -30z"/>
</g>
</svg>
