<?xml version="1.0" standalone="no"?>
<!DOCTYPE svg PUBLIC "-//W3C//DTD SVG 20010904//EN"
 "http://www.w3.org/TR/2001/REC-SVG-20010904/DTD/svg10.dtd">
<svg version="1.0" xmlns="http://www.w3.org/2000/svg"
 width="1125.000000pt" height="900.000000pt" viewBox="0 0 1125.000000 900.000000"
 preserveAspectRatio="xMidYMid meet">
<metadata>
Created by potrace 1.13, written by Peter Selinger 2001-2015
</metadata>
<g transform="translate(0.000000,900.000000) scale(0.100000,-0.100000)"
fill="#000000" stroke="none">
<path d="M0 4500 l0 -4500 5625 0 5625 0 0 4500 0 4500 -5625 0 -5625 0 0
-4500z m11205 3860 l0 -595 -5580 0 -5580 0 -3 585 c-1 322 0 591 3 598 3 10
1125 12 5582 10 l5578 -3 0 -595z m3 -787 l-3 -128 -52 -3 c-51 -3 -53 -4 -53
-32 0 -28 2 -29 53 -32 l52 -3 0 -1535 0 -1535 -5580 0 -5580 0 -3 478 c-2
467 -2 478 17 485 19 7 20 19 24 202 4 157 10 221 31 329 37 187 35 223 -19
391 -54 170 -57 216 -16 333 42 121 44 156 21 287 -35 204 -30 234 89 483 l69
146 -106 3 -107 3 -3 128 -3 127 5586 0 5586 0 -3 -127z m-11084 -270 c-20
-43 -46 -98 -58 -123 l-21 -45 -3 109 c-1 61 0 116 2 123 4 9 24 13 60 13 l55
0 -35 -77z m11081 -4388 l0 -1320 -5580 0 -5580 0 -3 1310 c-1 721 0 1316 3
1323 3 10 1125 12 5582 10 l5578 -3 0 -1320z m0 -1470 l0 -80 -67 -3 c-68 -3
-68 -3 -68 -32 0 -29 0 -29 68 -32 l67 -3 0 -625 0 -625 -5580 0 -5580 0 0
595 0 595 27 60 26 60 -26 5 c-26 5 -27 8 -30 74 -2 38 -1 75 2 83 5 11 908
13 5583 11 l5578 -3 0 -80z"/>
<path d="M690 7410 l0 -30 170 0 c94 0 170 -2 170 -4 0 -1 -24 -54 -54 -117
-94 -197 -101 -249 -66 -455 22 -131 21 -149 -23 -274 -40 -115 -35 -188 21
-362 50 -151 51 -179 16 -359 -19 -98 -27 -181 -31 -310 -7 -209 -3 -232 35
-227 l27 3 -3 115 c-4 131 9 279 38 428 31 159 27 220 -21 369 -57 174 -59
216 -20 328 44 125 47 169 22 305 -12 63 -21 134 -21 158 0 61 39 170 115 322
36 71 65 132 65 135 0 3 -99 5 -220 5 l-220 0 0 -30z"/>
<path d="M1580 7410 l0 -30 165 0 c91 0 165 -4 165 -9 0 -4 -22 -55 -49 -112
-92 -197 -100 -241 -72 -412 28 -168 27 -193 -11 -300 -46 -130 -44 -192 12
-362 51 -155 54 -224 19 -380 -18 -81 -23 -142 -27 -317 l-4 -218 30 0 30 0 5
208 c4 164 9 228 27 307 13 58 23 138 24 190 1 81 -4 103 -42 219 -53 161 -55
216 -12 339 35 100 38 172 15 294 -20 103 -19 198 2 264 10 30 50 120 90 202
l72 147 -219 0 -220 0 0 -30z"/>
<path d="M2450 7410 l0 -30 170 0 c94 0 170 -2 170 -5 0 -3 -22 -50 -49 -104
-94 -186 -109 -275 -76 -448 23 -119 19 -180 -16 -283 -43 -124 -38 -203 21
-385 47 -147 48 -173 9 -360 -15 -74 -22 -155 -26 -313 l-6 -213 32 3 31 3 4
195 c3 159 8 220 30 329 37 187 35 223 -19 391 -54 169 -56 213 -16 331 42
125 44 158 21 289 -36 205 -28 244 90 481 39 76 70 141 70 144 0 3 -99 5 -220
5 l-220 0 0 -30z"/>
<path d="M3310 7410 l0 -30 170 0 169 0 -46 -97 c-100 -213 -112 -283 -79
-463 23 -124 20 -174 -15 -276 -45 -130 -43 -193 12 -359 38 -113 43 -140 42
-210 0 -44 -11 -125 -23 -180 -18 -80 -23 -143 -27 -313 l-5 -213 32 3 32 3
-1 150 c-1 146 10 252 44 440 23 120 16 184 -34 337 -49 153 -52 207 -15 311
44 125 46 156 24 294 -35 216 -31 236 88 486 l71 147 -220 0 -219 0 0 -30z"/>
<path d="M4180 7410 l0 -30 170 0 c94 0 170 -2 170 -5 0 -3 -20 -46 -45 -95
-98 -195 -111 -275 -75 -477 22 -125 19 -157 -24 -278 -39 -108 -36 -175 19
-345 53 -165 54 -190 19 -371 -22 -114 -26 -163 -28 -334 l-1 -200 28 0 28 0
4 190 c2 153 8 216 29 324 38 193 35 241 -19 411 -54 167 -55 205 -15 320 43
120 46 165 21 300 -12 63 -21 134 -21 158 0 61 39 170 115 322 36 71 65 132
65 135 0 3 -99 5 -220 5 l-220 0 0 -30z"/>
<path d="M5040 7410 l0 -30 170 0 c94 0 170 -2 170 -5 0 -3 -20 -45 -44 -93
-97 -194 -113 -283 -81 -449 24 -123 21 -195 -14 -293 -44 -123 -42 -186 10
-346 50 -156 56 -204 34 -319 -35 -192 -45 -301 -43 -450 l3 -150 30 0 29 0
-2 125 c-3 144 9 281 39 429 29 139 23 221 -26 366 -52 156 -55 207 -16 325
44 131 46 157 22 296 -36 206 -32 227 84 462 41 85 75 156 75 158 0 2 -99 4
-220 4 l-220 0 0 -30z"/>
<path d="M5917 7433 c-4 -3 -7 -17 -7 -30 l0 -23 171 0 c133 0 170 -3 166 -12
-3 -7 -30 -68 -61 -134 -84 -185 -90 -231 -55 -424 24 -130 22 -155 -23 -285
-40 -117 -36 -181 21 -356 49 -151 51 -186 16 -370 -28 -143 -44 -397 -31
-482 7 -45 9 -48 34 -45 l27 3 -3 95 c-4 121 12 305 38 438 31 160 27 228 -21
379 -57 180 -58 204 -15 341 42 131 43 160 16 307 -11 60 -20 123 -20 140 0
59 31 149 105 303 41 85 75 157 75 158 0 7 -427 4 -433 -3z"/>
<path d="M6790 7410 l0 -30 165 0 c91 0 165 -4 165 -9 0 -5 -25 -60 -55 -122
-57 -119 -85 -209 -85 -269 0 -19 9 -87 20 -150 26 -152 26 -160 -16 -292 -44
-140 -42 -182 16 -360 47 -147 51 -213 20 -364 -28 -133 -43 -338 -35 -452 l7
-93 26 3 27 3 6 210 c5 163 11 232 29 310 12 57 22 137 23 185 0 75 -5 101
-43 215 -54 166 -56 215 -12 341 38 108 39 148 12 317 -28 172 -20 207 100
446 33 66 60 125 60 131 0 6 -76 10 -215 10 l-215 0 0 -30z"/>
<path d="M7650 7410 l0 -30 165 0 c91 0 165 -4 165 -9 0 -5 -25 -60 -55 -122
-58 -122 -85 -209 -85 -274 0 -23 9 -90 20 -150 26 -144 26 -162 -12 -269 -47
-133 -45 -210 10 -379 49 -150 52 -203 22 -359 -28 -140 -44 -356 -35 -462 7
-87 7 -87 33 -84 l27 3 6 210 c5 162 11 234 28 315 36 166 32 240 -19 395 -55
165 -56 214 -12 341 38 109 40 150 11 320 -21 119 -21 128 -5 192 8 37 50 136
91 220 41 84 75 157 75 163 0 5 -88 9 -215 9 l-215 0 0 -30z"/>
<path d="M8520 7410 l0 -30 165 0 c91 0 165 -4 165 -9 0 -4 -22 -55 -49 -112
-92 -197 -100 -241 -72 -412 28 -168 27 -193 -11 -300 -46 -130 -44 -192 12
-362 51 -154 55 -222 19 -380 -18 -81 -23 -142 -27 -317 l-4 -218 30 0 30 0 5
208 c4 164 9 228 27 307 13 58 23 138 24 190 1 81 -4 103 -42 219 -53 161 -55
216 -12 339 35 100 38 166 15 297 -19 110 -19 197 1 257 9 26 49 117 89 201
l74 152 -220 0 -219 0 0 -30z"/>
<path d="M9380 7410 l0 -30 165 0 c91 0 165 -4 165 -9 0 -5 -22 -55 -49 -112
-93 -197 -101 -245 -72 -416 28 -161 27 -189 -11 -296 -47 -131 -44 -200 12
-367 50 -148 53 -208 20 -370 -25 -126 -39 -314 -32 -444 l5 -96 27 0 28 0 4
208 c4 164 10 230 28 317 36 173 33 244 -19 400 -54 162 -56 212 -12 339 36
104 39 170 15 297 -34 179 -23 230 103 482 l63 127 -220 0 -220 0 0 -30z"/>
<path d="M10250 7410 l0 -30 170 0 169 0 -46 -97 c-99 -212 -112 -287 -79
-458 24 -120 21 -178 -15 -281 -45 -129 -43 -192 12 -359 51 -154 55 -228 19
-390 -18 -80 -23 -143 -27 -313 l-5 -213 32 3 32 3 -1 150 c-1 146 10 252 44
440 23 120 16 184 -34 337 -51 158 -53 205 -10 326 37 102 40 181 15 311 -33
169 -24 211 92 454 l71 147 -220 0 -219 0 0 -30z"/>
<path d="M160 3965 l0 -34 140 -3 140 -3 -42 -69 -41 -69 6 -86 c4 -47 13
-108 22 -135 22 -72 19 -119 -14 -194 -56 -128 -51 -183 30 -357 55 -118 56
-163 5 -298 -21 -54 -35 -105 -32 -113 3 -8 16 -14 29 -14 20 0 28 13 62 103
32 85 38 115 39 177 0 70 -4 83 -52 185 -64 136 -68 189 -23 293 43 100 45
121 21 214 -12 45 -24 109 -27 143 -5 60 -4 64 39 136 54 89 78 134 78 149 0
6 -64 10 -190 10 l-190 0 0 -35z"/>
<path d="M850 3965 l0 -34 140 -3 140 -3 -40 -65 c-34 -56 -39 -73 -40 -125 0
-33 9 -97 20 -143 27 -111 25 -141 -9 -220 -55 -127 -51 -180 26 -347 60 -129
61 -170 9 -308 -21 -54 -35 -105 -32 -113 3 -8 16 -14 29 -14 20 0 28 13 62
103 32 84 38 115 39 177 0 70 -3 82 -52 186 -64 137 -68 188 -23 292 43 100
45 121 21 214 -12 45 -24 110 -27 144 -6 60 -4 65 34 126 47 73 83 143 83 158
0 6 -65 10 -190 10 l-190 0 0 -35z"/>
<path d="M1552 3968 l3 -33 138 -3 c75 -1 137 -5 137 -8 0 -3 -18 -35 -41 -72
-40 -65 -41 -69 -36 -137 3 -38 15 -108 27 -154 24 -93 22 -104 -22 -205 -27
-62 -30 -78 -26 -145 4 -65 11 -91 52 -176 65 -136 67 -172 21 -300 -46 -125
-47 -137 -15 -145 24 -6 27 -1 64 94 34 87 40 112 40 181 1 75 -2 86 -48 185
-65 140 -70 189 -27 290 43 101 47 139 22 235 -42 167 -42 168 33 298 36 64
66 118 66 121 0 3 -88 6 -196 6 l-195 0 3 -32z"/>
<path d="M2260 3965 l0 -35 139 0 139 0 -45 -77 c-43 -75 -44 -80 -39 -140 4
-34 15 -96 26 -139 26 -102 26 -113 -12 -197 -27 -61 -32 -84 -32 -152 0 -76
2 -86 52 -192 66 -143 67 -173 12 -320 -22 -58 -38 -109 -35 -113 3 -4 16 -10
29 -12 23 -5 27 2 62 91 34 85 38 106 39 186 0 88 -1 93 -50 195 -63 134 -67
188 -17 297 38 85 41 132 11 238 -11 41 -21 98 -22 127 -1 45 4 61 34 108 35
53 89 153 89 165 0 3 -85 5 -190 5 l-190 0 0 -35z"/>
<path d="M2960 3965 l0 -34 140 -3 140 -3 -42 -68 c-37 -61 -41 -74 -40 -130
1 -34 10 -98 22 -141 27 -107 25 -135 -12 -219 -27 -59 -32 -84 -32 -142 0
-63 5 -81 53 -185 68 -147 70 -182 14 -330 -41 -108 -41 -120 2 -120 16 0 27
20 60 108 58 155 56 200 -14 355 -65 146 -68 189 -23 292 44 102 45 126 17
240 -38 151 -36 168 35 287 33 56 60 108 60 115 0 10 -41 13 -190 13 l-190 0
0 -35z"/>
<path d="M3674 3986 c-3 -8 -4 -23 -2 -33 3 -16 17 -18 145 -21 l142 -3 -42
-67 c-38 -61 -42 -73 -42 -132 1 -36 11 -107 24 -159 27 -105 26 -112 -24
-230 -41 -96 -33 -166 31 -302 45 -95 49 -110 48 -174 0 -56 -7 -88 -37 -163
-20 -52 -35 -97 -32 -102 3 -4 16 -10 29 -12 22 -4 27 3 62 96 34 89 39 111
39 186 0 81 -2 90 -50 190 -62 131 -66 191 -22 285 40 83 44 142 17 244 -34
134 -32 175 12 243 36 55 88 152 88 163 0 3 -86 5 -190 5 -157 0 -192 -3 -196
-14z"/>
<path d="M4380 3965 l0 -34 140 -3 140 -3 -43 -69 c-38 -64 -42 -75 -40 -130
1 -34 11 -97 23 -140 27 -106 26 -135 -12 -219 -26 -59 -32 -85 -33 -142 0
-63 5 -82 53 -187 67 -150 68 -189 13 -333 -22 -55 -37 -103 -34 -107 2 -5 16
-8 31 -8 25 0 30 8 60 89 18 48 38 117 44 152 12 72 6 95 -67 258 -48 107 -50
159 -10 251 46 106 47 123 20 242 -37 158 -35 171 35 291 33 57 60 109 60 115
0 9 -50 12 -190 12 l-190 0 0 -35z"/>
<path d="M5082 3968 l3 -33 138 -3 c76 -1 137 -6 135 -10 -2 -4 -21 -38 -42
-75 -38 -68 -39 -70 -33 -145 4 -43 16 -108 27 -147 22 -77 20 -99 -17 -183
-54 -123 -49 -190 25 -347 61 -129 62 -176 8 -314 -20 -52 -34 -101 -32 -108
3 -7 16 -13 29 -13 21 0 28 12 63 103 33 86 39 114 39 177 0 69 -4 83 -50 180
-66 141 -69 183 -21 307 42 107 43 124 16 218 -11 38 -23 97 -26 130 -5 56 -3
64 31 120 20 33 50 86 66 118 l29 57 -195 0 -196 0 3 -32z"/>
<path d="M5800 3965 l0 -34 139 -3 139 -3 -41 -70 c-38 -63 -42 -76 -40 -130
0 -33 11 -97 22 -142 28 -108 27 -125 -14 -223 -52 -126 -48 -169 32 -344 43
-93 45 -102 40 -165 -3 -42 -18 -99 -40 -156 -20 -49 -33 -93 -29 -97 4 -3 18
-8 30 -10 21 -3 27 6 58 87 66 175 66 232 0 363 -74 147 -77 198 -22 327 31
73 33 133 6 234 -29 107 -26 167 8 222 45 71 92 158 92 169 0 6 -68 10 -190
10 l-190 0 0 -35z"/>
<path d="M6502 3968 l3 -33 138 -3 c75 -1 137 -5 137 -8 0 -3 -17 -31 -37 -62
-49 -76 -54 -147 -19 -284 26 -105 25 -127 -13 -209 -54 -119 -49 -182 27
-344 60 -129 61 -177 8 -314 -21 -51 -35 -100 -32 -107 3 -8 16 -14 28 -14 19
0 28 13 55 83 69 176 68 223 -3 379 -63 136 -68 193 -26 293 45 104 47 126 18
245 -35 144 -34 166 14 244 21 36 51 88 65 115 l25 51 -195 0 -196 0 3 -32z"/>
<path d="M7192 3968 l3 -33 138 -3 c75 -1 137 -4 137 -6 0 -2 -18 -35 -40 -72
-49 -84 -52 -132 -16 -276 26 -105 25 -127 -12 -208 -54 -118 -49 -187 25
-345 61 -129 63 -177 9 -314 -21 -51 -35 -100 -32 -107 3 -8 16 -14 29 -14 20
0 28 11 55 83 67 179 67 224 -4 379 -63 136 -68 193 -26 293 45 104 47 126 18
245 -35 143 -34 162 15 245 22 39 52 91 65 118 l24 47 -195 0 -196 0 3 -32z"/>
<path d="M7910 3965 l0 -34 139 -3 139 -3 -41 -70 c-38 -63 -42 -76 -41 -131
1 -33 12 -100 24 -148 25 -99 23 -130 -15 -214 -52 -112 -45 -179 32 -345 43
-94 45 -102 40 -165 -3 -39 -18 -99 -35 -143 -42 -104 -42 -111 -10 -119 26
-8 27 -5 63 87 68 178 67 224 -11 387 -61 128 -63 177 -16 288 38 90 40 134
12 243 -30 119 -27 168 16 239 37 62 84 152 84 161 0 3 -85 5 -190 5 l-190 0
0 -35z"/>
<path d="M8612 3968 l3 -33 138 -3 c75 -1 137 -5 137 -7 0 -2 -18 -33 -40 -67
-35 -55 -40 -70 -40 -123 0 -33 9 -97 20 -143 27 -110 25 -141 -9 -221 -54
-127 -51 -179 23 -341 24 -52 47 -109 50 -126 9 -39 -6 -107 -45 -208 -33 -85
-32 -106 4 -106 20 0 28 13 62 103 32 85 39 114 39 177 1 70 -3 83 -52 186
-64 137 -68 188 -23 292 44 100 45 123 17 242 -36 144 -34 170 13 244 21 34
50 85 65 114 l26 52 -195 0 -196 0 3 -32z"/>
<path d="M9312 3968 l3 -33 138 -3 c75 -1 137 -5 137 -8 0 -3 -19 -37 -41 -75
-41 -69 -42 -71 -36 -142 4 -40 16 -106 28 -147 23 -85 21 -104 -21 -200 -51
-115 -43 -179 42 -364 49 -107 49 -142 -7 -289 -20 -54 -33 -102 -30 -107 3
-6 17 -10 29 -10 20 0 29 13 62 98 34 86 38 107 38 182 0 81 -3 90 -48 185
-66 136 -70 185 -26 286 43 96 46 136 21 234 -11 44 -23 103 -27 132 -6 50 -5
54 60 166 36 62 66 117 66 120 0 4 -88 7 -196 7 l-195 0 3 -32z"/>
<path d="M10020 3965 l0 -34 139 -3 139 -3 -39 -64 c-52 -86 -55 -112 -29
-233 36 -165 36 -166 -1 -249 -28 -63 -33 -86 -33 -154 -1 -76 2 -85 52 -191
67 -142 68 -173 12 -321 -22 -58 -38 -109 -35 -113 3 -4 16 -10 29 -12 23 -5
27 2 61 91 67 174 66 219 -11 382 -61 131 -64 185 -16 296 34 76 41 147 22
198 -6 15 -17 64 -24 109 -17 92 -18 88 69 241 24 44 45 83 45 88 0 4 -85 7
-190 7 l-190 0 0 -35z"/>
<path d="M10722 3968 l3 -33 137 -5 138 -5 -40 -65 c-35 -58 -39 -72 -40 -131
0 -36 9 -99 20 -140 27 -101 25 -139 -9 -217 -56 -128 -51 -183 30 -357 55
-118 56 -163 5 -298 -21 -54 -35 -105 -32 -113 3 -8 16 -14 29 -14 20 0 28 13
62 108 33 88 40 119 39 177 0 63 -6 82 -52 180 -64 136 -68 189 -23 293 43
100 45 121 21 214 -12 45 -24 109 -27 143 -5 60 -4 64 39 136 54 89 78 134 78
149 0 6 -64 10 -191 10 l-190 0 3 -32z"/>
<path d="M390 1330 l0 -30 105 0 c58 0 105 -4 105 -9 0 -5 -7 -28 -16 -52 -24
-68 -54 -261 -61 -391 l-6 -118 30 0 30 0 6 103 c3 56 15 160 27 230 19 119
30 155 74 260 l16 37 -155 0 -155 0 0 -30z"/>
<path d="M980 1330 l0 -30 105 0 c58 0 105 -2 105 -5 0 -3 -7 -22 -16 -43 -22
-54 -61 -302 -65 -417 l-4 -100 30 0 30 0 7 115 c9 162 41 335 77 422 17 40
31 76 31 80 0 5 -67 8 -150 8 l-150 0 0 -30z"/>
<path d="M1580 1330 l0 -30 105 0 c58 0 105 -1 105 -2 0 -2 -8 -25 -19 -53
-25 -67 -60 -297 -63 -415 l-3 -95 30 0 30 0 7 120 c9 160 40 326 77 420 17
42 31 78 31 81 0 2 -67 4 -150 4 l-150 0 0 -30z"/>
<path d="M2162 1333 l3 -28 106 -3 107 -3 -18 -47 c-26 -68 -61 -279 -67 -409
l-6 -113 30 0 30 0 7 108 c8 119 40 323 61 380 7 20 22 61 34 90 l21 52 -156
0 -155 0 3 -27z"/>
<path d="M2760 1330 l0 -30 105 0 c58 0 105 -4 105 -9 0 -5 -7 -28 -16 -52
-24 -68 -54 -261 -61 -391 l-6 -118 30 0 30 0 6 103 c3 56 15 160 27 230 19
119 30 155 74 260 l16 37 -155 0 -155 0 0 -30z"/>
<path d="M3350 1330 l0 -30 105 0 c58 0 105 -2 105 -4 0 -2 -7 -20 -15 -40
-23 -54 -63 -307 -67 -421 l-3 -100 30 0 30 0 7 115 c9 162 41 335 77 422 17
40 31 76 31 80 0 5 -67 8 -150 8 l-150 0 0 -30z"/>
<path d="M3960 1330 l0 -30 105 0 c58 0 105 -2 105 -4 0 -2 -7 -23 -16 -47
-25 -73 -56 -267 -61 -396 l-6 -123 30 0 30 0 6 113 c7 156 41 334 81 434 l33
83 -153 0 -154 0 0 -30z"/>
<path d="M4550 1330 l0 -30 104 0 105 0 -19 -57 c-26 -78 -58 -274 -66 -405
l-7 -108 30 0 c27 0 31 4 37 38 3 20 6 63 6 94 0 96 46 336 79 417 17 41 31
75 31 77 0 2 -67 4 -150 4 l-150 0 0 -30z"/>
<path d="M5150 1330 l0 -30 105 0 105 0 -19 -47 c-24 -61 -61 -288 -68 -420
l-6 -103 30 0 31 0 7 103 c11 166 48 363 84 446 17 40 31 75 31 77 0 2 -67 4
-150 4 l-150 0 0 -30z"/>
<path d="M5730 1330 l0 -30 105 0 c58 0 105 -4 105 -9 0 -5 -7 -25 -15 -44
-23 -56 -65 -331 -65 -429 l0 -88 29 0 28 0 6 113 c9 159 42 337 82 435 l33
82 -154 0 -154 0 0 -30z"/>
<path d="M6330 1330 l0 -30 105 0 c58 0 105 -2 105 -4 0 -2 -7 -23 -16 -47
-26 -73 -54 -256 -61 -391 l-6 -128 30 0 30 0 6 113 c7 156 41 334 81 434 l33
83 -153 0 -154 0 0 -30z"/>
<path d="M6920 1330 l0 -30 104 0 105 0 -19 -56 c-25 -73 -57 -270 -66 -406
l-7 -108 30 0 c29 0 30 2 37 53 3 28 6 72 6 97 0 86 47 323 79 399 17 41 31
75 31 77 0 2 -67 4 -150 4 l-150 0 0 -30z"/>
<path d="M7520 1330 l0 -30 105 0 105 0 -16 -37 c-23 -56 -63 -291 -71 -420
l-6 -113 30 0 31 0 7 103 c11 166 48 363 84 446 17 40 31 75 31 77 0 2 -67 4
-150 4 l-150 0 0 -30z"/>
<path d="M8100 1330 l0 -30 105 0 c58 0 105 -4 105 -9 0 -5 -7 -25 -15 -44
-23 -56 -65 -331 -65 -429 l0 -88 29 0 28 0 6 113 c9 166 41 334 81 432 l34
85 -154 0 -154 0 0 -30z"/>
<path d="M8700 1330 l0 -30 105 0 c58 0 105 -2 105 -4 0 -2 -7 -23 -16 -47
-25 -71 -64 -327 -64 -426 l0 -93 29 0 28 0 6 118 c9 165 41 335 81 432 l34
80 -154 0 -154 0 0 -30z"/>
<path d="M9300 1330 l0 -30 105 0 c58 0 105 -2 105 -5 0 -3 -7 -22 -16 -43
-23 -56 -62 -304 -65 -417 l-3 -100 31 -3 30 -3 6 118 c6 152 41 339 78 428
16 38 29 73 29 77 0 5 -67 8 -150 8 l-150 0 0 -30z"/>
<path d="M9890 1330 l0 -30 105 0 105 0 -16 -37 c-23 -56 -63 -291 -71 -420
l-6 -113 30 0 31 0 7 108 c4 59 17 166 30 237 19 110 34 159 82 273 4 9 -29
12 -146 12 l-151 0 0 -30z"/>
<path d="M10482 1333 l3 -28 106 -3 107 -3 -19 -48 c-24 -66 -59 -283 -66
-413 l-6 -108 30 0 30 0 7 100 c7 119 41 333 60 387 8 21 23 62 35 91 l21 52
-156 0 -155 0 3 -27z"/>
</g>
</svg>
