<?xml version="1.0" standalone="no"?>
<!DOCTYPE svg PUBLIC "-//W3C//DTD SVG 20010904//EN"
 "http://www.w3.org/TR/2001/REC-SVG-20010904/DTD/svg10.dtd">
<svg version="1.0" xmlns="http://www.w3.org/2000/svg"
 width="1125.000000pt" height="900.000000pt" viewBox="0 0 1125.000000 900.000000"
 preserveAspectRatio="xMidYMid meet">
<metadata>
Created by potrace 1.13, written by Peter Selinger 2001-2015
</metadata>
<g transform="translate(0.000000,900.000000) scale(0.100000,-0.100000)"
fill="#000000" stroke="none">
<path d="M0 4500 l0 -4500 5625 0 5625 0 0 4500 0 4500 -5625 0 -5625 0 0
-4500z m11208 3549 l2 -907 -35 -6 c-38 -7 -65 -38 -65 -74 0 -31 43 -72 75
-72 l25 0 0 -232 c0 -220 -1 -235 -22 -274 l-22 -41 22 -37 c19 -32 22 -52 22
-145 l0 -109 -45 6 c-35 3 -50 0 -65 -13 -26 -24 -26 -79 0 -105 21 -21 74
-27 85 -10 3 6 10 10 16 10 5 0 9 -356 9 -931 l0 -932 -25 -23 c-33 -30 -33
-74 0 -105 l25 -24 0 -425 0 -426 -34 -12 c-47 -17 -64 -58 -41 -101 10 -21
26 -34 45 -38 l30 -6 -2 -1486 -3 -1486 -33 -3 c-25 -3 -41 4 -68 27 -44 39
-68 39 -104 1 l-28 -30 -126 0 c-100 0 -126 3 -126 14 0 30 -41 66 -75 66 -34
0 -75 -36 -75 -66 0 -11 -26 -14 -124 -14 -110 0 -126 2 -138 18 -33 47 -96
50 -125 6 l-15 -24 -934 0 c-895 0 -933 1 -946 18 -33 47 -96 50 -125 6 -15
-23 -20 -24 -139 -24 l-124 0 -14 35 c-29 69 -116 58 -140 -17 -5 -16 -20 -18
-128 -18 -118 0 -123 1 -143 25 -33 40 -67 42 -108 6 l-35 -31 -911 0 -912 0
-29 21 c-36 27 -71 27 -106 0 -24 -19 -39 -21 -150 -21 l-123 0 -15 29 c-28
54 -83 56 -123 6 l-28 -35 -121 0 c-108 0 -123 2 -139 20 -24 27 -86 27 -110
0 -18 -20 -31 -20 -953 -20 l-936 0 -23 22 c-29 27 -78 26 -107 -1 -20 -19
-35 -21 -148 -21 -124 0 -125 0 -136 25 -25 55 -100 57 -130 5 l-17 -30 -121
0 c-104 0 -125 3 -146 19 -38 31 -73 31 -108 1 -23 -20 -35 -20 -859 -18
l-836 3 -3 913 c-2 863 -1 913 15 918 34 10 48 21 63 47 21 38 4 79 -40 93
l-35 12 -3 206 -2 206 25 0 c83 0 87 131 4 143 l-24 4 -3 947 -2 947 35 33
c45 42 45 70 0 112 l-35 32 0 2145 c0 1179 3 2147 7 2150 3 4 2515 6 5582 4
l5576 -2 3 -906z"/>
<path d="M7085 8865 c-14 -13 -25 -36 -25 -50 0 -30 41 -75 68 -75 35 0 72 38
72 75 0 24 -7 39 -26 54 -35 27 -59 26 -89 -4z"/>
<path d="M1575 8785 c-39 -39 -32 -86 17 -111 59 -30 122 27 99 89 -19 51 -77
62 -116 22z"/>
<path d="M9307 8762 c-25 -28 -22 -87 5 -106 51 -36 118 -5 118 54 0 17 -9 39
-20 50 -26 26 -81 26 -103 2z"/>
<path d="M10427 8762 c-25 -28 -22 -87 5 -106 73 -51 160 42 98 104 -26 26
-81 26 -103 2z"/>
<path d="M3802 8747 c-43 -46 -15 -120 46 -120 43 0 72 28 72 69 0 66 -74 98
-118 51z"/>
<path d="M4855 8705 c-30 -30 -31 -54 -4 -89 15 -19 30 -26 54 -26 37 0 75 37
75 72 0 27 -45 68 -75 68 -14 0 -37 -11 -50 -25z"/>
<path d="M8215 8615 c-28 -27 -30 -42 -14 -78 32 -71 139 -41 139 39 0 24 -47
64 -75 64 -14 0 -37 -11 -50 -25z"/>
<path d="M210 8617 c-52 -26 -49 -104 5 -129 58 -26 119 33 95 91 -6 16 -23
33 -36 40 -31 14 -33 14 -64 -2z"/>
<path d="M2552 8580 c-26 -24 -29 -66 -6 -98 11 -16 25 -22 53 -22 46 0 71 24
71 68 0 64 -72 95 -118 52z"/>
<path d="M6002 8577 c-45 -48 -17 -117 47 -117 46 0 71 24 71 68 0 65 -74 96
-118 49z"/>
<path d="M7010 8310 c-45 -45 -11 -120 53 -120 42 0 67 26 67 68 0 41 -31 72
-70 72 -17 0 -39 -9 -50 -20z"/>
<path d="M9842 8314 c-28 -20 -31 -83 -4 -107 25 -23 78 -21 102 3 61 61 -27
154 -98 104z"/>
<path d="M1390 8300 c-26 -26 -26 -81 0 -105 29 -26 79 -24 102 4 27 34 23 75
-8 100 -34 26 -68 27 -94 1z"/>
<path d="M4215 8295 c-39 -38 -32 -86 16 -110 76 -40 146 71 76 120 -31 22
-65 18 -92 -10z"/>
<path d="M6640 8303 c-76 -27 -58 -143 21 -143 55 0 92 87 52 122 -22 19 -53
28 -73 21z"/>
<path d="M7440 8297 c-14 -7 -31 -25 -38 -40 -27 -56 35 -115 93 -89 55 25 58
100 5 127 -35 18 -29 18 -60 2z"/>
<path d="M9460 8297 c-13 -7 -31 -24 -39 -38 -30 -53 36 -117 94 -91 55 25 58
100 5 127 -35 18 -29 18 -60 2z"/>
<path d="M10265 8298 c-50 -27 -59 -75 -20 -113 42 -43 106 -23 120 36 12 48
-57 101 -100 77z"/>
<path d="M985 8270 c-26 -29 -24 -79 4 -102 70 -56 164 39 101 102 -26 26 -81
26 -105 0z"/>
<path d="M1791 8264 c-12 -15 -21 -34 -21 -44 0 -32 39 -70 71 -70 34 0 79 39
79 68 0 35 -38 72 -75 72 -24 0 -39 -7 -54 -26z"/>
<path d="M3810 8270 c-63 -63 31 -158 101 -102 28 23 30 73 4 102 -24 26 -79
26 -105 0z"/>
<path d="M4620 8270 c-43 -43 -11 -120 50 -120 38 0 70 32 70 70 0 38 -32 70
-70 70 -17 0 -39 -9 -50 -20z"/>
<path d="M7820 8190 c-11 -11 -20 -33 -20 -50 0 -17 9 -39 20 -50 11 -11 33
-20 50 -20 17 0 39 9 50 20 11 11 20 33 20 50 0 17 -9 39 -20 50 -11 11 -33
20 -50 20 -17 0 -39 -9 -50 -20z"/>
<path d="M10645 8190 c-25 -27 -22 -80 6 -102 68 -56 161 40 99 102 -26 26
-81 26 -105 0z"/>
<path d="M2200 8180 c-26 -26 -26 -81 -2 -103 44 -40 122 -7 122 51 0 60 -78
94 -120 52z"/>
<path d="M5021 8174 c-27 -34 -27 -64 -1 -92 47 -50 140 -6 125 58 -14 60 -88
80 -124 34z"/>
<path d="M583 8175 c-45 -31 -37 -103 14 -124 38 -16 80 0 93 34 15 39 12 54
-15 80 -27 28 -61 32 -92 10z"/>
<path d="M6253 8170 c-26 -11 -43 -40 -43 -74 0 -27 41 -66 70 -66 34 0 70 39
70 75 0 24 -7 39 -26 54 -29 23 -38 24 -71 11z"/>
<path d="M9067 8160 c-35 -28 -37 -80 -5 -110 29 -27 64 -25 93 5 63 63 -18
160 -88 105z"/>
<path d="M3430 8138 c-27 -29 -25 -64 5 -93 63 -63 160 18 105 88 -28 35 -80
37 -110 5z"/>
<path d="M8232 8124 c-63 -44 -37 -134 39 -134 28 0 69 44 69 73 0 55 -65 92
-108 61z"/>
<path d="M11017 8120 c-35 -28 -37 -80 -5 -110 63 -58 156 32 101 98 -27 32
-64 37 -96 12z"/>
<path d="M149 8102 c-28 -23 -30 -73 -4 -102 25 -28 76 -26 103 3 28 29 28 57
1 91 -25 31 -66 35 -100 8z"/>
<path d="M2580 8100 c-26 -26 -25 -60 1 -94 25 -31 66 -35 100 -8 28 23 30 73
4 102 -24 26 -79 26 -105 0z"/>
<path d="M5386 8105 c-59 -60 10 -155 83 -114 63 36 42 121 -31 127 -23 2 -41
-3 -52 -13z"/>
<path d="M5805 8085 c-41 -40 -29 -95 24 -113 20 -7 35 -7 52 2 34 17 49 52
37 87 -18 53 -73 65 -113 24z"/>
<path d="M8630 8090 c-26 -26 -26 -81 0 -105 27 -25 80 -22 102 6 56 68 -40
161 -102 99z"/>
<path d="M3017 8089 c-48 -28 -40 -107 12 -129 75 -31 134 58 76 115 -25 26
-58 31 -88 14z"/>
<path d="M9792 7813 c-7 -3 -19 -18 -27 -33 -40 -77 71 -147 120 -77 42 60
-24 138 -93 110z"/>
<path d="M4205 7755 c-14 -13 -25 -31 -25 -39 0 -30 23 -65 49 -74 76 -27 134
77 68 123 -31 22 -65 18 -92 -10z"/>
<path d="M2055 7715 c-30 -30 -31 -54 -4 -89 15 -19 30 -26 54 -26 36 0 75 36
75 70 0 10 -9 29 -21 44 -27 34 -71 35 -104 1z"/>
<path d="M7630 7680 c-28 -28 -27 -84 2 -104 51 -36 118 -5 118 54 0 17 -9 39
-20 50 -11 11 -33 20 -50 20 -17 0 -39 -9 -50 -20z"/>
<path d="M711 7634 c-12 -15 -21 -34 -21 -44 0 -34 39 -70 75 -70 36 0 75 36
75 70 0 34 -39 70 -75 70 -24 0 -39 -7 -54 -26z"/>
<path d="M10952 7644 c-29 -20 -30 -76 -2 -104 43 -43 120 -11 120 50 0 59
-67 90 -118 54z"/>
<path d="M5310 7600 c-43 -43 -10 -120 52 -120 59 0 93 84 50 123 -25 23 -78
21 -102 -3z"/>
<path d="M6405 7535 c-14 -13 -25 -30 -25 -37 1 -59 51 -98 100 -78 36 15 55
57 41 93 -19 51 -77 62 -116 22z"/>
<path d="M3140 7497 c-52 -26 -49 -104 4 -128 36 -17 73 -3 92 32 19 38 6 80
-32 98 -31 14 -33 14 -64 -2z"/>
<path d="M8765 7485 c-34 -33 -33 -77 1 -104 15 -12 34 -21 44 -21 34 0 70 39
70 75 0 24 -7 39 -26 54 -35 27 -59 26 -89 -4z"/>
<path d="M7519 7247 c-37 -19 -53 -60 -37 -94 26 -55 104 -54 130 2 26 57 -37
119 -93 92z"/>
<path d="M10342 7245 c-59 -25 -51 -107 11 -130 62 -21 118 52 80 103 -26 34
-53 42 -91 27z"/>
<path d="M1871 7214 c-12 -15 -21 -34 -21 -44 0 -34 39 -70 75 -70 36 0 75 36
75 70 0 34 -39 70 -75 70 -24 0 -39 -7 -54 -26z"/>
<path d="M4700 7220 c-43 -43 -11 -120 50 -120 38 0 70 32 70 70 0 38 -32 70
-70 70 -17 0 -39 -9 -50 -20z"/>
<path d="M7107 7219 c-48 -28 -40 -107 13 -129 23 -9 34 -9 58 4 49 25 56 72
17 111 -25 26 -58 31 -88 14z"/>
<path d="M7905 7205 c-14 -13 -25 -35 -25 -47 0 -56 61 -93 106 -63 37 24 48
52 33 86 -22 54 -74 65 -114 24z"/>
<path d="M9925 7205 c-28 -27 -32 -61 -10 -92 47 -66 150 -8 123 70 -18 51
-74 62 -113 22z"/>
<path d="M10736 7209 c-52 -41 -23 -122 44 -122 67 0 96 81 44 122 -15 12 -34
21 -44 21 -10 0 -29 -9 -44 -21z"/>
<path d="M1475 7195 c-14 -13 -25 -36 -25 -50 0 -28 40 -75 64 -75 29 0 64 22
75 48 16 33 -1 75 -35 91 -37 16 -52 14 -79 -14z"/>
<path d="M2286 7199 c-19 -15 -26 -30 -26 -54 0 -36 36 -75 70 -75 34 0 70 39
70 75 0 36 -36 75 -70 75 -10 0 -29 -9 -44 -21z"/>
<path d="M4306 7199 c-36 -28 -36 -80 0 -108 15 -12 34 -21 44 -21 34 0 70 39
70 75 0 36 -36 75 -70 75 -10 0 -29 -9 -44 -21z"/>
<path d="M5123 7208 c-35 -17 -48 -60 -29 -96 35 -68 136 -41 136 36 0 47 -63
82 -107 60z"/>
<path d="M8323 7128 c-68 -33 -39 -138 38 -138 28 0 69 44 69 73 0 51 -61 88
-107 65z"/>
<path d="M2709 7118 c-38 -13 -57 -62 -38 -97 32 -57 111 -49 132 13 17 51
-40 103 -94 84z"/>
<path d="M5507 7102 c-24 -26 -21 -77 5 -102 63 -58 152 26 102 98 -20 28 -83
31 -107 4z"/>
<path d="M6719 7082 c-15 -13 -22 -30 -22 -51 0 -66 76 -98 123 -51 27 27 25
66 -5 95 -29 30 -64 32 -96 7z"/>
<path d="M9545 7075 c-40 -39 -29 -95 22 -113 78 -27 136 76 70 123 -31 22
-65 18 -92 -10z"/>
<path d="M1095 7065 c-40 -39 -29 -97 22 -116 58 -22 116 36 94 94 -19 51 -77
62 -116 22z"/>
<path d="M3926 7069 c-36 -28 -36 -80 0 -108 15 -12 34 -21 44 -21 34 0 70 39
70 75 0 36 -36 75 -70 75 -10 0 -29 -9 -44 -21z"/>
<path d="M220 7040 c-26 -26 -26 -81 0 -105 29 -26 79 -24 102 4 56 70 -39
164 -102 101z"/>
<path d="M8705 7035 c-39 -38 -32 -86 16 -110 76 -40 146 71 76 120 -31 22
-65 18 -92 -10z"/>
<path d="M650 7037 c-33 -16 -47 -58 -32 -92 25 -55 100 -58 127 -5 32 61 -33
128 -95 97z"/>
<path d="M3076 7029 c-36 -28 -36 -80 0 -108 35 -27 59 -26 89 4 34 33 33 77
-1 104 -15 12 -34 21 -44 21 -10 0 -29 -9 -44 -21z"/>
<path d="M5876 7029 c-19 -15 -26 -30 -26 -54 0 -36 36 -75 70 -75 34 0 70 39
70 75 0 36 -36 75 -70 75 -10 0 -29 -9 -44 -21z"/>
<path d="M6287 7012 c-40 -44 -7 -122 51 -122 60 0 94 78 52 120 -26 26 -81
26 -103 2z"/>
<path d="M9111 7004 c-27 -35 -26 -59 4 -89 33 -34 77 -33 104 1 12 15 21 34
21 44 0 34 -39 70 -75 70 -24 0 -39 -7 -54 -26z"/>
<path d="M3490 7000 c-45 -45 -11 -120 53 -120 43 0 67 26 67 73 0 26 -6 40
-22 51 -31 22 -74 20 -98 -4z"/>
<path d="M4525 6718 c-50 -27 -59 -75 -20 -113 42 -43 106 -23 120 36 12 48
-57 101 -100 77z"/>
<path d="M10073 6720 c-46 -19 -57 -83 -20 -118 30 -28 68 -28 95 1 54 57 -3
145 -75 117z"/>
<path d="M7815 6665 c-34 -33 -33 -77 1 -104 15 -12 34 -21 44 -21 34 0 70 39
70 75 0 24 -7 39 -26 54 -35 27 -59 26 -89 -4z"/>
<path d="M2340 6650 c-61 -61 27 -154 98 -104 28 20 31 83 4 107 -25 23 -78
21 -102 -3z"/>
<path d="M1170 6600 c-43 -43 -11 -120 50 -120 38 0 70 32 70 70 0 38 -32 70
-70 70 -17 0 -39 -9 -50 -20z"/>
<path d="M6661 6554 c-12 -15 -21 -34 -21 -44 0 -34 39 -70 75 -70 36 0 75 36
75 70 0 34 -39 70 -75 70 -24 0 -39 -7 -54 -26z"/>
<path d="M5625 6505 c-48 -47 -19 -115 49 -115 68 0 96 79 44 123 -28 24 -65
21 -93 -8z"/>
<path d="M3410 6470 c-24 -24 -26 -67 -4 -98 20 -29 76 -30 104 -2 43 43 11
120 -50 120 -17 0 -39 -9 -50 -20z"/>
<path d="M9000 6463 c-53 -19 -68 -86 -28 -123 63 -59 157 32 101 98 -20 23
-50 33 -73 25z"/>
<path d="M7460 6260 c-63 -63 31 -158 101 -102 28 23 30 73 4 102 -24 26 -79
26 -105 0z"/>
<path d="M10290 6260 c-43 -43 -11 -120 50 -120 38 0 70 32 70 70 0 38 -32 70
-70 70 -17 0 -39 -9 -50 -20z"/>
<path d="M1840 6250 c-24 -24 -26 -67 -4 -98 11 -16 25 -22 54 -22 29 0 43 6
54 22 36 51 5 118 -54 118 -17 0 -39 -9 -50 -20z"/>
<path d="M4665 6245 c-30 -30 -31 -54 -4 -89 15 -19 30 -26 54 -26 36 0 75 36
75 70 0 10 -9 29 -21 44 -27 34 -71 35 -104 1z"/>
<path d="M7065 6235 c-34 -33 -33 -77 1 -104 15 -12 34 -21 44 -21 34 0 70 39
70 75 0 24 -7 39 -26 54 -35 27 -59 26 -89 -4z"/>
<path d="M7876 6239 c-71 -56 9 -166 82 -112 38 28 41 75 8 108 -31 30 -55 32
-90 4z"/>
<path d="M9896 6239 c-26 -20 -36 -69 -18 -95 10 -15 47 -34 67 -34 25 0 65
46 65 75 0 30 -41 75 -68 75 -11 0 -31 -9 -46 -21z"/>
<path d="M10709 6245 c-65 -35 -34 -135 41 -135 11 0 32 12 47 26 20 20 24 31
19 57 -4 17 -12 37 -19 44 -20 20 -60 24 -88 8z"/>
<path d="M1470 6242 c-51 -16 -68 -84 -30 -122 60 -60 154 26 105 97 -15 21
-50 33 -75 25z"/>
<path d="M2270 6237 c-14 -7 -31 -24 -39 -38 -12 -22 -12 -29 0 -54 27 -57
105 -57 131 0 26 57 -37 119 -92 92z"/>
<path d="M4289 6238 c-38 -13 -57 -62 -38 -97 32 -57 111 -49 132 13 17 51
-40 103 -94 84z"/>
<path d="M5103 6242 c-51 -8 -70 -83 -30 -120 48 -45 117 -14 117 51 0 48 -38
77 -87 69z"/>
<path d="M8270 6140 c-42 -42 -8 -120 53 -120 58 0 91 85 49 123 -25 23 -78
21 -102 -3z"/>
<path d="M2650 6130 c-43 -43 -11 -120 50 -120 38 0 70 32 70 70 0 38 -32 70
-70 70 -17 0 -39 -9 -50 -20z"/>
<path d="M5471 6124 c-12 -15 -21 -34 -21 -44 0 -34 39 -70 75 -70 36 0 75 36
75 70 0 34 -39 70 -75 70 -24 0 -39 -7 -54 -26z"/>
<path d="M6685 6105 c-14 -13 -25 -36 -25 -50 0 -30 41 -75 67 -75 25 0 63 28
72 54 12 30 -6 71 -35 85 -37 16 -52 14 -79 -14z"/>
<path d="M9516 6109 c-19 -15 -26 -30 -26 -54 0 -36 36 -75 70 -75 34 0 70 39
70 75 0 36 -36 75 -70 75 -10 0 -29 -9 -44 -21z"/>
<path d="M1090 6113 c-55 -20 -68 -87 -24 -122 15 -12 34 -21 44 -21 33 0 70
39 70 74 0 46 -49 84 -90 69z"/>
<path d="M3903 6108 c-52 -25 -52 -105 1 -129 83 -38 147 84 66 126 -33 17
-37 17 -67 3z"/>
<path d="M185 6065 c-14 -13 -25 -36 -25 -50 0 -28 40 -75 64 -75 30 0 65 23
76 50 20 49 -19 99 -78 100 -7 0 -24 -11 -37 -25z"/>
<path d="M8676 6069 c-19 -15 -26 -30 -26 -54 0 -37 37 -75 72 -75 27 0 68 45
68 75 0 30 -41 75 -68 75 -11 0 -31 -9 -46 -21z"/>
<path d="M3048 6064 c-51 -27 -46 -101 7 -126 58 -26 119 33 95 91 -6 16 -23
33 -36 40 -31 14 -33 14 -66 -5z"/>
<path d="M5853 6068 c-81 -39 -20 -167 62 -130 55 25 58 100 5 127 -33 17 -37
17 -67 3z"/>
<path d="M597 6052 c-25 -28 -22 -87 5 -106 71 -50 159 43 98 104 -26 26 -81
26 -103 2z"/>
<path d="M6251 6034 c-12 -15 -21 -34 -21 -44 0 -34 39 -70 75 -70 43 0 79 41
70 80 -14 60 -88 80 -124 34z"/>
<path d="M9080 6040 c-45 -45 -11 -120 54 -120 25 0 39 7 50 22 36 51 5 118
-54 118 -17 0 -39 -9 -50 -20z"/>
<path d="M3459 6032 c-63 -52 8 -155 80 -117 48 24 55 72 16 110 -29 30 -64
32 -96 7z"/>
<path d="M4863 5730 c-25 -10 -43 -39 -43 -70 0 -29 44 -70 75 -70 62 0 89 89
39 129 -29 23 -38 24 -71 11z"/>
<path d="M10420 5733 c-53 -19 -68 -86 -28 -123 63 -58 157 33 101 98 -20 23
-50 33 -73 25z"/>
<path d="M8156 5679 c-19 -15 -26 -30 -26 -54 0 -36 36 -75 70 -75 34 0 70 39
70 75 0 36 -36 75 -70 75 -10 0 -29 -9 -44 -21z"/>
<path d="M2680 5660 c-43 -43 -11 -120 50 -120 17 0 39 9 50 20 26 26 26 81 2
103 -25 23 -78 21 -102 -3z"/>
<path d="M1510 5610 c-26 -26 -26 -81 -2 -103 25 -23 78 -21 102 3 43 43 11
120 -50 120 -17 0 -39 -9 -50 -20z"/>
<path d="M7001 5564 c-12 -15 -21 -34 -21 -44 0 -10 9 -29 21 -44 41 -52 122
-23 122 44 0 67 -81 96 -122 44z"/>
<path d="M5962 5517 c-45 -48 -14 -117 51 -117 42 0 67 26 67 68 0 65 -74 96
-118 49z"/>
<path d="M266 5509 c-36 -28 -36 -80 0 -108 15 -12 34 -21 44 -21 34 0 70 39
70 75 0 36 -36 75 -70 75 -10 0 -29 -9 -44 -21z"/>
<path d="M3750 5480 c-26 -26 -26 -81 -2 -103 44 -40 122 -7 122 51 0 60 -78
94 -120 52z"/>
<path d="M9340 5473 c-51 -19 -68 -85 -30 -123 61 -61 159 33 103 98 -20 23
-50 33 -73 25z"/>
<path d="M7740 5220 c-45 -45 -11 -120 54 -120 25 0 39 7 50 22 36 51 5 118
-54 118 -17 0 -39 -9 -50 -20z"/>
<path d="M10569 5222 c-49 -40 -17 -122 48 -122 65 0 93 61 52 114 -25 31 -66
35 -100 8z"/>
<path d="M2120 5210 c-47 -47 -15 -123 51 -123 63 0 90 72 44 118 -29 30 -68
32 -95 5z"/>
<path d="M4945 5205 c-39 -38 -32 -86 16 -110 76 -40 146 71 76 120 -31 22
-65 18 -92 -10z"/>
<path d="M7370 5213 c-51 -19 -68 -85 -30 -123 61 -61 159 32 103 98 -20 23
-50 33 -73 25z"/>
<path d="M8170 5207 c-14 -7 -31 -24 -39 -38 -12 -22 -12 -29 0 -54 27 -57
105 -57 131 0 26 57 -37 119 -92 92z"/>
<path d="M10189 5206 c-13 -6 -30 -23 -38 -37 -12 -22 -12 -29 0 -54 40 -84
165 -32 129 54 -15 37 -57 54 -91 37z"/>
<path d="M10993 5205 c-49 -21 -58 -71 -18 -110 45 -46 118 -19 118 43 0 58
-47 89 -100 67z"/>
<path d="M1715 5180 c-42 -47 -8 -120 55 -120 33 0 70 40 70 74 0 57 -86 89
-125 46z"/>
<path d="M2521 5174 c-12 -15 -21 -34 -21 -44 0 -31 39 -70 70 -70 62 0 97 66
60 113 -29 37 -80 37 -109 1z"/>
<path d="M4540 5180 c-61 -61 27 -154 98 -104 28 20 31 83 4 107 -25 23 -78
21 -102 -3z"/>
<path d="M5350 5180 c-43 -43 -11 -120 50 -120 38 0 70 32 70 70 0 17 -9 39
-20 50 -11 11 -33 20 -50 20 -17 0 -39 -9 -50 -20z"/>
<path d="M100 5100 c-43 -43 -11 -120 50 -120 38 0 70 32 70 70 0 38 -32 70
-70 70 -17 0 -39 -9 -50 -20z"/>
<path d="M8550 5100 c-43 -43 -11 -120 50 -120 38 0 70 32 70 70 0 38 -32 70
-70 70 -17 0 -39 -9 -50 -20z"/>
<path d="M2929 5092 c-28 -23 -30 -73 -4 -102 24 -26 79 -26 105 0 63 63 -31
158 -101 102z"/>
<path d="M5751 5084 c-41 -53 -13 -114 52 -114 42 0 70 29 70 72 0 64 -83 92
-122 42z"/>
<path d="M6990 5083 c-55 -20 -68 -87 -24 -122 15 -12 34 -21 44 -21 33 0 70
39 70 74 0 46 -49 84 -90 69z"/>
<path d="M9802 5074 c-63 -44 -37 -134 39 -134 28 0 69 44 69 73 0 55 -65 92
-108 61z"/>
<path d="M1335 5050 c-25 -27 -22 -80 6 -102 68 -56 161 40 99 102 -26 26 -81
26 -105 0z"/>
<path d="M4160 5050 c-26 -26 -25 -60 1 -94 25 -31 66 -35 100 -8 28 23 30 73
4 102 -24 26 -79 26 -105 0z"/>
<path d="M483 5040 c-48 -19 -58 -87 -17 -119 34 -27 64 -27 92 -1 57 53 -3
149 -75 120z"/>
<path d="M8963 5038 c-68 -33 -40 -138 37 -138 28 0 70 44 70 73 0 51 -61 88
-107 65z"/>
<path d="M3310 5010 c-42 -42 -8 -120 53 -120 58 0 91 85 49 123 -25 23 -78
21 -102 -3z"/>
<path d="M6110 5008 c-58 -63 32 -156 98 -100 32 26 37 63 12 95 -28 35 -80
37 -110 5z"/>
<path d="M6536 4999 c-50 -39 -22 -122 42 -122 43 0 72 28 72 70 0 65 -61 93
-114 52z"/>
<path d="M9360 5000 c-26 -26 -26 -81 0 -105 29 -26 79 -24 102 4 56 70 -39
164 -102 101z"/>
<path d="M955 4985 c-14 -13 -25 -36 -25 -50 0 -30 41 -75 68 -75 35 0 72 38
72 73 0 38 -7 50 -37 66 -33 17 -51 14 -78 -14z"/>
<path d="M3735 4985 c-61 -60 7 -150 84 -111 67 35 38 136 -39 136 -11 0 -32
-11 -45 -25z"/>
<path d="M2212 4697 c-45 -48 -14 -117 51 -117 42 0 67 26 67 68 0 65 -74 96
-118 49z"/>
<path d="M7760 4700 c-26 -26 -26 -81 -2 -103 28 -25 87 -22 106 5 50 71 -43
159 -104 98z"/>
<path d="M5520 4660 c-26 -26 -26 -81 -2 -103 25 -23 78 -21 102 3 43 43 11
120 -50 120 -17 0 -39 -9 -50 -20z"/>
<path d="M10038 4604 c-51 -27 -46 -101 7 -126 58 -26 119 33 95 91 -6 16 -23
33 -36 40 -31 14 -33 14 -66 -5z"/>
<path d="M4390 4567 c-79 -40 -24 -162 58 -128 59 25 63 104 6 130 -31 14 -33
14 -64 -2z"/>
<path d="M3363 4522 c-51 -8 -70 -83 -30 -120 48 -45 117 -14 117 51 0 48 -38
77 -87 69z"/>
<path d="M8901 4484 c-12 -15 -21 -34 -21 -44 0 -34 39 -70 75 -70 36 0 75 36
75 70 0 34 -39 70 -75 70 -24 0 -39 -7 -54 -26z"/>
<path d="M1127 4470 c-35 -28 -37 -80 -5 -110 63 -58 156 32 101 98 -27 32
-64 37 -96 12z"/>
<path d="M6680 4440 c-26 -26 -26 -81 0 -105 29 -26 79 -24 102 4 56 70 -39
164 -102 101z"/>
<path d="M7950 4180 c-26 -26 -26 -81 0 -105 29 -26 79 -24 102 4 27 34 23 75
-8 100 -34 26 -68 27 -94 1z"/>
<path d="M10775 4175 c-28 -27 -30 -42 -14 -79 16 -34 58 -51 91 -35 26 11 48
46 48 75 0 24 -47 64 -75 64 -14 0 -37 -11 -50 -25z"/>
<path d="M2347 4183 c-9 -2 -24 -18 -33 -35 -30 -59 27 -122 89 -99 51 19 62
77 22 116 -23 24 -40 28 -78 18z"/>
<path d="M5155 4165 c-14 -13 -25 -36 -25 -50 0 -30 41 -75 68 -75 35 0 72 38
72 75 0 24 -7 39 -26 54 -35 27 -59 26 -89 -4z"/>
<path d="M7545 4150 c-26 -29 -24 -79 4 -102 70 -56 164 39 101 102 -26 26
-81 26 -105 0z"/>
<path d="M8351 4144 c-12 -15 -21 -34 -21 -44 0 -34 39 -70 75 -70 36 0 75 36
75 70 0 34 -39 70 -75 70 -24 0 -39 -7 -54 -26z"/>
<path d="M10371 4144 c-12 -15 -21 -34 -21 -44 0 -32 39 -70 71 -70 34 0 79
39 79 68 0 35 -38 72 -75 72 -24 0 -39 -7 -54 -26z"/>
<path d="M1921 4134 c-12 -15 -21 -34 -21 -44 0 -34 39 -70 75 -70 36 0 75 36
75 70 0 34 -39 70 -75 70 -24 0 -39 -7 -54 -26z"/>
<path d="M2732 4137 c-45 -48 -14 -117 51 -117 43 0 67 26 67 73 0 63 -74 91
-118 44z"/>
<path d="M4750 4140 c-11 -11 -20 -33 -20 -50 0 -17 9 -39 20 -50 11 -11 33
-20 50 -20 17 0 39 9 50 20 11 11 20 33 20 50 0 17 -9 39 -20 50 -11 11 -33
20 -50 20 -17 0 -39 -9 -50 -20z"/>
<path d="M5561 4142 c-28 -22 -31 -75 -6 -102 24 -26 79 -26 105 0 62 62 -31
158 -99 102z"/>
<path d="M310 4060 c-26 -26 -26 -81 -2 -103 44 -40 122 -6 122 53 0 60 -78
92 -120 50z"/>
<path d="M8760 4060 c-26 -26 -26 -81 -2 -103 44 -40 122 -7 122 51 0 60 -78
94 -120 52z"/>
<path d="M3147 4059 c-48 -28 -40 -107 13 -129 23 -9 34 -9 58 4 49 25 56 72
17 111 -25 26 -58 31 -88 14z"/>
<path d="M5966 4049 c-50 -39 -22 -122 42 -122 66 0 98 78 50 123 -28 26 -58
26 -92 -1z"/>
<path d="M7167 4022 c-40 -44 -7 -122 51 -122 60 0 94 78 52 120 -26 26 -81
26 -103 2z"/>
<path d="M9991 4014 c-12 -15 -21 -35 -21 -46 0 -27 45 -68 75 -68 29 0 75 40
75 65 0 20 -19 57 -34 67 -26 18 -75 8 -95 -18z"/>
<path d="M1541 4004 c-12 -15 -21 -34 -21 -44 0 -34 39 -70 75 -70 36 0 75 36
75 70 0 34 -39 70 -75 70 -24 0 -39 -7 -54 -26z"/>
<path d="M4370 4010 c-42 -42 -12 -120 48 -120 46 0 72 25 72 70 0 29 -6 43
-22 54 -31 22 -74 20 -98 -4z"/>
<path d="M666 3978 c-36 -51 -5 -118 54 -118 59 0 90 67 54 118 -11 16 -25 22
-54 22 -29 0 -43 -6 -54 -22z"/>
<path d="M9151 3974 c-12 -15 -21 -35 -21 -46 0 -27 45 -68 75 -68 30 0 75 41
75 68 0 35 -38 72 -75 72 -24 0 -39 -7 -54 -26z"/>
<path d="M3520 3970 c-11 -11 -20 -33 -20 -50 0 -17 9 -39 20 -50 11 -11 33
-20 50 -20 17 0 39 9 50 20 11 11 20 33 20 50 0 17 -9 39 -20 50 -11 11 -33
20 -50 20 -17 0 -39 -9 -50 -20z"/>
<path d="M6320 3968 c-43 -47 -12 -118 53 -118 43 0 67 26 67 73 0 62 -77 91
-120 45z"/>
<path d="M6746 3959 c-19 -15 -26 -30 -26 -54 0 -36 36 -75 70 -75 34 0 70 39
70 75 0 36 -36 75 -70 75 -10 0 -29 -9 -44 -21z"/>
<path d="M9582 3973 c-7 -3 -19 -18 -28 -35 -13 -24 -13 -35 -4 -58 31 -74
140 -51 140 30 0 45 -63 81 -108 63z"/>
<path d="M1137 3950 c-37 -29 -37 -80 -1 -109 15 -12 34 -21 44 -21 33 0 70
39 70 74 0 60 -66 93 -113 56z"/>
<path d="M3960 3957 c-52 -26 -49 -104 4 -128 81 -37 138 73 64 125 -27 19
-35 20 -68 3z"/>
<path d="M5209 3712 c-49 -40 -17 -122 48 -122 65 0 93 61 52 114 -25 31 -66
35 -100 8z"/>
<path d="M10751 3704 c-27 -34 -27 -64 -1 -92 47 -50 140 -6 125 58 -14 60
-88 80 -124 34z"/>
<path d="M8511 3664 c-12 -15 -21 -34 -21 -44 0 -34 39 -70 75 -70 24 0 39 7
54 26 27 35 26 59 -4 89 -33 34 -77 33 -104 -1z"/>
<path d="M3045 3655 c-14 -13 -25 -31 -25 -39 0 -30 23 -65 50 -76 58 -24 120
44 90 99 -24 46 -78 53 -115 16z"/>
<path d="M1890 3617 c-52 -26 -49 -104 4 -128 36 -17 73 -3 92 32 19 38 6 80
-32 98 -31 14 -33 14 -64 -2z"/>
<path d="M7376 3569 c-19 -15 -26 -30 -26 -54 0 -37 37 -75 72 -75 27 0 68 45
68 75 0 30 -41 75 -68 75 -11 0 -31 -9 -46 -21z"/>
<path d="M6350 3527 c-13 -7 -31 -24 -39 -38 -30 -53 36 -117 94 -91 55 25 58
100 5 127 -35 18 -29 18 -60 2z"/>
<path d="M621 3494 c-26 -34 -26 -54 0 -88 41 -52 122 -23 122 44 0 67 -81 96
-122 44z"/>
<path d="M4130 3487 c-52 -26 -49 -104 4 -128 81 -37 138 73 64 125 -27 19
-35 20 -68 3z"/>
<path d="M9675 3445 c-48 -47 -19 -115 48 -115 42 0 70 29 70 72 0 62 -73 89
-118 43z"/>
<path d="M7911 3164 c-12 -15 -21 -34 -21 -44 0 -34 39 -70 75 -70 36 0 75 36
75 70 0 34 -39 70 -75 70 -24 0 -39 -7 -54 -26z"/>
<path d="M10740 3170 c-43 -43 -11 -120 50 -120 38 0 70 32 70 70 0 38 -32 70
-70 70 -17 0 -39 -9 -50 -20z"/>
<path d="M2292 3157 c-45 -48 -14 -117 51 -117 42 0 67 26 67 68 0 65 -74 96
-118 49z"/>
<path d="M5119 3162 c-49 -40 -17 -122 48 -122 65 0 93 61 52 114 -25 31 -66
35 -100 8z"/>
<path d="M7530 3157 c-13 -7 -29 -25 -34 -39 -29 -83 94 -137 128 -56 17 39
11 63 -22 88 -29 23 -38 24 -72 7z"/>
<path d="M8326 3149 c-19 -15 -26 -30 -26 -54 0 -36 36 -75 70 -75 34 0 70 39
70 75 0 36 -36 75 -70 75 -10 0 -29 -9 -44 -21z"/>
<path d="M10346 3149 c-19 -15 -26 -30 -26 -54 0 -36 36 -75 70 -75 34 0 70
39 70 75 0 36 -36 75 -70 75 -10 0 -29 -9 -44 -21z"/>
<path d="M4739 3146 c-37 -18 -56 -59 -41 -90 25 -56 101 -59 131 -5 31 56
-33 124 -90 95z"/>
<path d="M1886 3128 c-51 -73 42 -160 104 -98 26 26 26 81 2 103 -28 25 -87
22 -106 -5z"/>
<path d="M2695 3130 c-42 -47 -8 -120 55 -120 33 0 70 40 70 76 0 57 -86 87
-125 44z"/>
<path d="M5520 3130 c-27 -27 -25 -66 5 -95 29 -30 64 -32 96 -7 28 23 30 73
4 102 -24 26 -79 26 -105 0z"/>
<path d="M271 3044 c-12 -15 -21 -35 -21 -46 0 -27 45 -68 75 -68 30 0 75 41
75 68 0 35 -38 72 -75 72 -24 0 -39 -7 -54 -26z"/>
<path d="M8720 3048 c-58 -63 32 -156 98 -100 32 26 37 63 12 95 -28 35 -80
37 -110 5z"/>
<path d="M3100 3040 c-11 -11 -20 -33 -20 -50 0 -17 9 -39 20 -50 11 -11 33
-20 50 -20 17 0 39 9 50 20 11 11 20 33 20 50 0 17 -9 39 -20 50 -11 11 -33
20 -50 20 -17 0 -39 -9 -50 -20z"/>
<path d="M5925 3040 c-42 -46 -10 -120 51 -120 35 0 74 37 74 70 0 10 -9 29
-21 44 -26 33 -77 36 -104 6z"/>
<path d="M7135 3015 c-14 -13 -25 -36 -25 -50 0 -28 40 -75 64 -75 29 0 64 22
75 48 16 33 -1 75 -35 91 -37 16 -52 14 -79 -14z"/>
<path d="M9966 3019 c-19 -15 -26 -30 -26 -54 0 -36 36 -75 70 -75 34 0 70 39
70 75 0 36 -36 75 -70 75 -10 0 -29 -9 -44 -21z"/>
<path d="M1533 3020 c-48 -19 -58 -87 -17 -119 34 -27 64 -27 92 -1 57 53 -3
149 -75 120z"/>
<path d="M4360 3017 c-13 -7 -31 -24 -39 -38 -30 -53 36 -117 94 -91 55 25 58
100 5 127 -35 18 -29 18 -60 2z"/>
<path d="M652 2990 c-67 -28 -39 -140 36 -140 30 0 72 43 72 73 0 51 -59 87
-108 67z"/>
<path d="M9126 2979 c-19 -15 -26 -30 -26 -54 0 -36 36 -75 70 -75 34 0 70 39
70 75 0 36 -36 75 -70 75 -10 0 -29 -9 -44 -21z"/>
<path d="M3509 2979 c-38 -14 -55 -59 -37 -96 39 -82 164 -29 129 55 -10 23
-51 56 -64 51 -1 0 -14 -5 -28 -10z"/>
<path d="M6310 2977 c-70 -35 -48 -137 30 -137 28 0 70 44 70 73 0 51 -55 86
-100 64z"/>
<path d="M6705 2945 c-30 -30 -31 -54 -4 -89 15 -19 30 -26 54 -26 36 0 75 36
75 70 0 10 -9 29 -21 44 -27 34 -71 35 -104 1z"/>
<path d="M9532 2947 c-45 -48 -14 -117 51 -117 43 0 67 26 67 73 0 63 -74 91
-118 44z"/>
<path d="M1095 2935 c-28 -27 -30 -42 -14 -79 16 -34 58 -51 91 -35 26 11 48
46 48 75 0 24 -47 64 -75 64 -14 0 -37 -11 -50 -25z"/>
<path d="M3910 2940 c-26 -26 -26 -81 0 -105 29 -26 79 -24 102 4 27 34 23 75
-8 100 -34 26 -68 27 -94 1z"/>
<path d="M2327 2679 c-48 -28 -40 -107 13 -129 23 -9 34 -9 58 4 49 25 56 72
17 111 -25 26 -58 31 -88 14z"/>
<path d="M7865 2665 c-28 -27 -32 -61 -10 -92 49 -70 160 0 120 76 -24 48 -72
55 -110 16z"/>
<path d="M5625 2625 c-40 -39 -29 -95 22 -113 78 -27 136 76 70 123 -31 22
-65 18 -92 -10z"/>
<path d="M10160 2582 c-51 -16 -68 -84 -30 -122 60 -60 154 26 105 97 -15 21
-50 33 -75 25z"/>
<path d="M4500 2537 c-70 -35 -48 -137 30 -137 28 0 70 44 70 73 0 51 -55 86
-100 64z"/>
<path d="M3431 2464 c-27 -35 -26 -59 4 -89 33 -34 77 -33 104 1 12 15 21 34
21 44 0 34 -39 70 -75 70 -24 0 -39 -7 -54 -26z"/>
<path d="M9010 2460 c-26 -26 -26 -81 -2 -103 44 -40 122 -7 122 51 0 60 -78
94 -120 52z"/>
<path d="M1220 2430 c-27 -27 -26 -71 3 -98 54 -51 128 -7 117 68 -6 49 -82
68 -120 30z"/>
<path d="M6785 2405 c-28 -27 -32 -61 -10 -92 45 -64 151 -8 123 66 -20 54
-74 66 -113 26z"/>
<path d="M7645 2120 c-10 -11 -18 -34 -18 -50 0 -65 76 -95 121 -47 28 29 28
57 1 91 -26 33 -77 36 -104 6z"/>
<path d="M10471 2114 c-12 -15 -21 -34 -21 -44 0 -10 9 -29 21 -44 41 -52 122
-23 122 44 0 67 -81 96 -122 44z"/>
<path d="M2025 2105 c-28 -27 -31 -45 -14 -78 16 -30 28 -37 66 -37 41 0 77
42 68 80 -14 58 -78 78 -120 35z"/>
<path d="M4850 2110 c-26 -26 -26 -81 -2 -103 28 -25 87 -22 106 5 50 71 -43
159 -104 98z"/>
<path d="M7263 2108 c-81 -39 -20 -167 62 -130 55 25 58 100 5 127 -33 17 -37
17 -67 3z"/>
<path d="M8070 2107 c-13 -7 -29 -25 -34 -39 -29 -83 94 -137 128 -56 17 39
11 63 -22 88 -29 23 -38 24 -72 7z"/>
<path d="M10093 2110 c-25 -10 -43 -39 -43 -70 0 -29 44 -70 75 -70 62 0 89
89 39 129 -29 23 -38 24 -71 11z"/>
<path d="M10910 2113 c-55 -20 -68 -87 -24 -122 15 -12 34 -21 44 -21 33 0 70
39 70 74 0 46 -49 84 -90 69z"/>
<path d="M1620 2080 c-26 -26 -25 -60 1 -94 25 -31 66 -35 100 -8 28 23 30 73
4 102 -24 26 -79 26 -105 0z"/>
<path d="M2426 2078 c-36 -51 -5 -118 54 -118 59 0 90 67 54 118 -21 31 -87
31 -108 0z"/>
<path d="M4447 2082 c-40 -44 -7 -122 51 -122 60 0 94 78 52 120 -26 26 -81
26 -103 2z"/>
<path d="M5251 2074 c-12 -15 -21 -35 -21 -46 0 -27 45 -68 75 -68 29 0 75 40
75 65 0 20 -19 57 -34 67 -26 18 -75 8 -95 -18z"/>
<path d="M8450 1993 c-37 -47 -2 -113 60 -113 33 0 70 40 70 74 0 63 -90 89
-130 39z"/>
<path d="M2831 1984 c-12 -15 -21 -34 -21 -44 0 -34 39 -70 75 -70 65 0 93 72
48 123 -25 27 -78 22 -102 -9z"/>
<path d="M5660 1990 c-43 -43 -11 -120 50 -120 38 0 70 32 70 70 0 38 -32 70
-70 70 -17 0 -39 -9 -50 -20z"/>
<path d="M6883 1978 c-35 -17 -48 -60 -29 -96 35 -68 136 -41 136 36 0 47 -63
82 -107 60z"/>
<path d="M9695 1965 c-37 -37 -30 -91 16 -115 55 -30 123 32 99 90 -11 27 -46
50 -76 50 -8 0 -26 -11 -39 -25z"/>
<path d="M1262 1965 c-59 -25 -51 -107 11 -130 62 -21 118 52 80 103 -26 34
-53 42 -91 27z"/>
<path d="M4100 1973 c-53 -19 -68 -86 -28 -123 63 -59 157 32 101 98 -20 23
-50 33 -73 25z"/>
<path d="M376 1929 c-26 -20 -36 -69 -18 -95 10 -15 47 -34 67 -34 25 0 65 46
65 75 0 30 -41 75 -68 75 -11 0 -31 -9 -46 -21z"/>
<path d="M8870 1937 c-80 -40 -24 -162 59 -127 53 22 59 89 9 124 -27 19 -35
20 -68 3z"/>
<path d="M3250 1933 c-51 -19 -68 -85 -30 -123 61 -61 159 32 103 98 -20 23
-50 33 -73 25z"/>
<path d="M6043 1930 c-46 -19 -57 -83 -20 -118 47 -44 117 -13 117 52 0 50
-50 84 -97 66z"/>
<path d="M780 1908 c-59 -64 25 -153 98 -102 28 20 31 83 4 107 -26 24 -77 21
-102 -5z"/>
<path d="M6440 1900 c-26 -26 -26 -81 -2 -103 44 -40 122 -7 122 51 0 60 -78
94 -120 52z"/>
<path d="M9265 1895 c-30 -30 -31 -54 -4 -89 15 -19 30 -26 54 -26 37 0 75 37
75 72 0 27 -45 68 -75 68 -14 0 -37 -11 -50 -25z"/>
<path d="M3646 1889 c-50 -39 -22 -122 42 -122 66 0 98 78 50 123 -28 26 -58
26 -92 -1z"/>
<path d="M10870 1650 c-43 -43 -11 -120 50 -120 17 0 39 9 50 20 26 26 26 81
2 103 -25 23 -78 21 -102 -3z"/>
<path d="M1906 1629 c-19 -15 -26 -30 -26 -54 0 -36 36 -75 70 -75 34 0 70 39
70 75 0 36 -36 75 -70 75 -10 0 -29 -9 -44 -21z"/>
<path d="M7463 1638 c-12 -6 -27 -23 -33 -38 -24 -58 44 -120 99 -90 46 24 53
78 16 115 -26 27 -47 30 -82 13z"/>
<path d="M5222 1603 c-7 -3 -19 -18 -28 -35 -13 -24 -13 -35 -4 -58 31 -74
140 -51 140 30 0 45 -63 81 -108 63z"/>
<path d="M9710 1520 c-62 -62 25 -155 98 -104 28 20 31 83 4 107 -25 23 -78
21 -102 -3z"/>
<path d="M4060 1480 c-42 -42 -8 -120 53 -120 58 0 91 85 49 123 -25 23 -78
21 -102 -3z"/>
<path d="M3020 1430 c-11 -11 -20 -33 -20 -50 0 -17 9 -39 20 -50 11 -11 33
-20 50 -20 17 0 39 9 50 20 11 11 20 33 20 50 0 17 -9 39 -20 50 -11 11 -33
20 -50 20 -17 0 -39 -9 -50 -20z"/>
<path d="M692 1420 c-48 -45 -16 -123 50 -123 64 0 92 83 42 122 -34 27 -64
27 -92 1z"/>
<path d="M8595 1415 c-29 -28 -32 -65 -7 -93 43 -52 122 -24 122 44 0 68 -68
97 -115 49z"/>
<path d="M6383 1378 c-68 -33 -40 -138 37 -138 28 0 70 44 70 73 0 51 -61 88
-107 65z"/>
<path d="M7380 1100 c-61 -61 27 -154 98 -104 28 20 31 83 4 107 -25 23 -78
21 -102 -3z"/>
<path d="M10207 1102 c-23 -25 -21 -78 3 -102 43 -43 120 -11 120 50 0 17 -9
39 -20 50 -26 26 -81 26 -103 2z"/>
<path d="M1760 1090 c-24 -24 -26 -67 -4 -98 20 -29 76 -30 104 -2 43 43 11
120 -50 120 -17 0 -39 -9 -50 -20z"/>
<path d="M4581 1084 c-12 -15 -21 -34 -21 -44 0 -34 39 -70 75 -70 36 0 75 36
75 70 0 34 -39 70 -75 70 -24 0 -39 -7 -54 -26z"/>
<path d="M6986 1079 c-19 -15 -26 -30 -26 -54 0 -36 36 -75 70 -75 34 0 70 39
70 75 0 36 -36 75 -70 75 -10 0 -29 -9 -44 -21z"/>
<path d="M7796 1079 c-26 -20 -36 -69 -18 -95 10 -15 47 -34 67 -34 25 0 65
46 65 75 0 30 -41 75 -68 75 -11 0 -31 -9 -46 -21z"/>
<path d="M9823 1088 c-28 -14 -43 -55 -31 -89 9 -26 44 -49 74 -49 24 0 64 47
64 75 0 30 -41 75 -67 74 -10 0 -28 -5 -40 -11z"/>
<path d="M10633 1090 c-47 -19 -56 -78 -18 -115 47 -48 119 -19 119 49 0 20
-7 43 -14 50 -20 20 -60 27 -87 16z"/>
<path d="M1390 1083 c-51 -19 -68 -85 -30 -123 61 -61 159 33 103 98 -20 23
-50 33 -73 25z"/>
<path d="M2183 1078 c-12 -6 -27 -24 -34 -40 -34 -83 86 -136 130 -57 19 33 1
81 -35 98 -29 13 -32 13 -61 -1z"/>
<path d="M4205 1078 c-50 -27 -59 -75 -20 -113 42 -43 106 -23 120 36 12 48
-57 101 -100 77z"/>
<path d="M5013 1080 c-48 -19 -58 -87 -17 -119 34 -27 64 -27 92 -1 57 53 -3
149 -75 120z"/>
<path d="M8223 1002 c-51 -8 -70 -83 -30 -120 48 -45 117 -14 117 51 0 48 -38
77 -87 69z"/>
<path d="M11050 1002 c-51 -16 -68 -84 -30 -122 60 -60 154 26 105 97 -15 21
-50 33 -75 25z"/>
<path d="M2572 974 c-29 -20 -30 -76 -2 -104 43 -43 120 -11 120 50 0 59 -67
90 -118 54z"/>
<path d="M5391 964 c-12 -15 -21 -34 -21 -44 0 -34 39 -70 75 -70 36 0 75 36
75 70 0 34 -39 70 -75 70 -24 0 -39 -7 -54 -26z"/>
<path d="M6605 945 c-43 -42 -23 -106 35 -120 38 -9 80 27 80 68 0 38 -7 50
-37 66 -33 17 -51 14 -78 -14z"/>
<path d="M9436 949 c-19 -15 -26 -30 -26 -54 0 -37 37 -75 72 -75 29 0 68 45
68 79 0 32 -38 71 -70 71 -10 0 -29 -9 -44 -21z"/>
<path d="M986 939 c-36 -28 -36 -80 0 -108 15 -12 34 -21 44 -21 34 0 70 39
70 75 0 36 -36 75 -70 75 -10 0 -29 -9 -44 -21z"/>
<path d="M3818 945 c-54 -30 -42 -116 18 -131 83 -21 126 99 48 135 -31 14
-33 14 -66 -4z"/>
<path d="M105 905 c-40 -39 -29 -97 22 -116 62 -23 119 40 89 99 -25 49 -72
56 -111 17z"/>
<path d="M8605 918 c-28 -16 -35 -28 -35 -65 0 -35 37 -73 72 -73 27 0 68 45
68 75 0 30 -41 75 -67 75 -10 0 -27 -6 -38 -12z"/>
<path d="M2970 907 c-52 -26 -49 -104 5 -129 58 -26 119 33 95 91 -6 16 -23
33 -36 40 -31 14 -33 14 -64 -2z"/>
<path d="M5773 908 c-81 -39 -20 -167 62 -130 55 25 58 100 5 127 -33 17 -37
17 -67 3z"/>
<path d="M515 890 c-26 -29 -24 -79 4 -102 70 -56 164 39 101 102 -26 26 -81
26 -105 0z"/>
<path d="M6171 874 c-27 -35 -27 -65 2 -92 48 -45 120 -16 120 48 0 67 -81 96
-122 44z"/>
<path d="M9000 880 c-43 -43 -11 -120 50 -120 38 0 70 32 70 70 0 38 -32 70
-70 70 -17 0 -39 -9 -50 -20z"/>
<path d="M3383 875 c-66 -47 -8 -150 70 -123 51 18 62 74 22 113 -27 28 -61
32 -92 10z"/>
<path d="M4935 635 c-14 -13 -25 -36 -25 -50 0 -28 40 -75 64 -75 29 0 64 22
75 48 16 33 -1 75 -35 91 -37 16 -52 14 -79 -14z"/>
<path d="M7772 607 c-45 -48 -14 -117 51 -117 43 0 67 26 67 73 0 63 -74 91
-118 44z"/>
<path d="M10640 612 c-29 -23 -31 -73 -5 -102 22 -24 77 -27 99 -4 64 64 -24
163 -94 106z"/>
<path d="M2149 572 c-15 -13 -22 -30 -22 -51 0 -66 76 -98 123 -51 27 27 25
66 -5 95 -29 30 -64 32 -96 7z"/>
<path d="M3605 345 c-30 -30 -31 -54 -4 -89 28 -36 80 -36 108 0 12 15 21 34
21 44 0 10 -9 29 -21 44 -27 34 -71 35 -104 1z"/>
<path d="M6392 347 c-45 -48 -14 -117 51 -117 42 0 67 26 67 68 0 65 -74 96
-118 49z"/>
<path d="M9282 347 c-45 -48 -14 -117 51 -117 43 0 67 26 67 73 0 63 -74 91
-118 44z"/>
<path d="M660 337 c-13 -7 -31 -24 -39 -38 -30 -53 36 -117 94 -91 55 25 58
100 5 127 -35 18 -29 18 -60 2z"/>
</g>
</svg>
