<?xml version="1.0" standalone="no"?>
<!DOCTYPE svg PUBLIC "-//W3C//DTD SVG 20010904//EN"
 "http://www.w3.org/TR/2001/REC-SVG-20010904/DTD/svg10.dtd">
<svg version="1.0" xmlns="http://www.w3.org/2000/svg"
 width="1125.000000pt" height="900.000000pt" viewBox="0 0 1125.000000 900.000000"
 preserveAspectRatio="xMidYMid meet">
<metadata>
Created by potrace 1.13, written by Peter Selinger 2001-2015
</metadata>
<g transform="translate(0.000000,900.000000) scale(0.100000,-0.100000)"
fill="#000000" stroke="none">
<path d="M0 4500 l0 -4500 5625 0 5625 0 0 4500 0 4500 -5625 0 -5625 0 0
-4500z m2708 4398 c-8 -13 -119 -195 -248 -405 l-233 -383 -1094 0 -1093 0 0
398 c0 219 3 402 7 405 3 4 607 7 1341 7 l1334 0 -14 -22z m2920 -15 c-12 -21
-129 -202 -259 -403 l-236 -365 -1417 -3 c-1175 -2 -1416 0 -1409 11 4 7 116
190 248 405 l240 392 1428 0 1429 0 -24 -37z m2770 15 c-8 -13 -119 -195 -248
-405 l-233 -383 -1354 0 c-744 0 -1353 2 -1353 4 0 5 443 693 492 764 l29 42
1341 0 1340 0 -14 -22z m2750 14 c-1 -5 -111 -187 -243 -405 l-240 -397 -1337
0 -1338 0 103 168 c56 92 167 274 247 405 l145 237 1333 0 c734 0 1332 -4
1330 -8z m62 -422 l0 -380 -236 0 -236 0 29 48 c127 218 430 711 436 712 4 0
7 -171 7 -380z m-10010 -451 c0 -6 -102 -181 -228 -390 l-227 -379 -350 2
-350 3 -3 375 c-1 206 0 381 3 387 6 17 1155 19 1155 2z m2800 0 c0 -6 -102
-181 -227 -390 l-228 -379 -1363 0 c-750 0 -1361 3 -1359 8 3 4 105 174 227
377 122 204 227 376 232 383 14 16 2718 18 2718 1z m2670 1 c0 -11 -436 -738
-454 -758 -9 -9 -278 -12 -1304 -10 l-1291 3 225 375 c124 206 230 381 236
388 13 15 2588 18 2588 2z m2720 -1 c0 -6 -102 -181 -227 -390 l-228 -379
-1322 0 c-728 0 -1323 2 -1323 5 0 8 442 739 458 758 14 16 90 17 1329 17 937
0 1313 -3 1313 -11z m1818 -377 c2 -301 0 -384 -10 -387 -7 -3 -502 -4 -1100
-3 l-1086 3 216 361 c120 198 225 372 235 387 l18 27 862 -2 862 -3 3 -383z
m-8947 -469 c-6 -10 -91 -148 -189 -308 l-179 -290 -926 -3 -927 -2 0 303 c0
167 3 307 7 310 3 4 505 7 1115 7 1053 0 1108 -1 1099 -17z m3049 10 c0 -3
-84 -143 -186 -310 l-187 -303 -1483 0 c-816 0 -1484 3 -1484 6 0 3 84 142
187 310 l188 304 1482 0 c816 0 1483 -3 1483 -7z m2813 -5 c-4 -7 -89 -146
-189 -308 l-182 -295 -1371 -3 -1371 -2 78 127 c44 71 129 210 191 311 l113
182 1369 0 c1094 0 1369 -3 1362 -12z m2620 -36 c-15 -27 -100 -166 -188 -310
l-160 -261 -1282 -1 c-706 0 -1283 3 -1283 6 0 4 84 143 187 310 l187 304
1284 0 1284 0 -29 -48z m465 -264 l2 -308 -370 0 -371 0 12 21 c18 34 350 573
362 587 7 9 53 12 186 10 l176 -3 3 -307z m-9900 -387 c-1 -5 -86 -151 -187
-325 l-184 -316 -446 2 -446 3 -3 323 -2 322 636 0 c359 0 634 -4 632 -9z
m2850 -49 c-18 -32 -103 -178 -188 -325 l-155 -267 -1398 0 c-1179 0 -1398 2
-1395 14 2 7 84 153 183 324 l180 311 1403 1 1403 0 -33 -58z m2525 29 c-10
-15 -103 -162 -208 -324 l-190 -297 -1198 0 -1197 0 17 33 c10 19 94 165 188
325 l169 292 1219 0 1219 0 -19 -29z m2777 24 c0 -3 -84 -149 -186 -325 l-186
-320 -1360 0 c-1136 0 -1359 2 -1356 13 2 8 93 154 203 325 l200 312 1343 0
c738 0 1342 -2 1342 -5z m1748 -317 l-3 -323 -1017 -3 c-560 -1 -1018 2 -1018
6 0 8 315 556 356 620 l14 22 835 0 835 0 -2 -322z m-8530 -397 c-1 -4 -106
-180 -232 -390 l-229 -381 -1086 2 -1086 3 -3 375 c-1 206 0 381 3 387 3 10
275 13 1321 13 735 0 1314 -4 1312 -9z m3112 3 c0 -3 -104 -179 -231 -390
l-230 -384 -1520 0 -1520 0 23 38 c13 22 118 197 233 390 l210 351 1518 1
c834 0 1517 -3 1517 -6z m2287 -381 l-233 -388 -1218 -3 c-1117 -2 -1218 -1
-1212 14 7 17 433 731 449 752 7 9 265 12 1228 12 l1218 0 -232 -387z m2800 0
l-233 -388 -1363 -3 c-767 -1 -1361 2 -1359 7 1 4 106 180 232 390 l229 381
1363 0 1363 0 -232 -387z m328 -4 l0 -384 -243 -3 c-138 -1 -242 1 -240 6 16
44 464 772 472 769 8 -3 11 -119 11 -388z m-10007 -458 c-1 -4 -99 -169 -217
-365 l-214 -356 -363 0 -364 0 0 358 c0 197 3 362 7 365 10 10 1155 8 1151 -2z
m2780 -5 c-2 -7 -97 -171 -213 -364 l-210 -351 -1358 -1 c-747 0 -1356 3
-1354 8 3 4 98 162 212 352 114 190 212 351 217 358 16 19 2711 18 2706 -2z
m2752 8 c0 -3 -97 -167 -216 -365 l-215 -359 -1335 0 c-745 0 -1334 4 -1332 9
2 4 99 169 217 365 l214 356 1333 0 c734 0 1334 -3 1334 -6z m2618 -3 c-1 -4
-99 -169 -217 -365 l-214 -356 -1268 0 c-698 0 -1269 3 -1269 6 0 3 97 167
216 365 l215 359 1270 0 c709 0 1269 -4 1267 -9z m1860 -358 l2 -363 -1109 0
-1110 0 205 343 c113 188 212 352 220 365 l15 22 887 -2 887 -3 3 -362z
m-8850 -437 c-2 -8 -115 -192 -253 -410 l-250 -396 -905 2 -905 3 -3 395 c-1
217 0 401 3 407 3 10 244 13 1160 13 989 0 1156 -2 1153 -14z m2982 3 c0 -6
-113 -191 -251 -410 l-252 -399 -1448 0 c-821 0 -1449 4 -1449 9 0 9 477 768
500 796 11 13 181 15 1456 15 1061 0 1444 -3 1444 -11z m2748 -2 c-2 -8 -115
-192 -253 -410 l-250 -397 -1334 0 c-1167 0 -1332 2 -1328 15 6 14 453 726
489 778 l19 27 1330 0 c1102 0 1330 -2 1327 -13z m2708 -3 c-3 -8 -117 -193
-253 -409 l-248 -394 -1319 -1 -1318 0 14 23 c8 12 120 189 248 392 128 204
240 378 248 388 14 16 90 17 1325 17 1189 0 1309 -1 1303 -16z m412 -392 c2
-317 0 -404 -10 -407 -7 -3 -196 -4 -420 -3 l-408 3 257 408 257 407 161 -2
160 -3 3 -403z m-9968 -479 c0 -5 -83 -141 -184 -303 l-183 -295 -414 0 -414
0 -3 290 c-1 159 0 295 3 302 3 10 130 13 600 13 327 0 595 -3 595 -7z m2967
-5 c-3 -7 -86 -143 -185 -303 l-180 -290 -1446 -3 c-795 -1 -1446 0 -1446 3 0
3 84 140 186 305 l186 300 1445 0 c1152 0 1444 -3 1440 -12z m2483 7 c0 -3
-86 -141 -191 -305 l-191 -300 -1194 0 c-657 0 -1194 3 -1194 6 0 6 27 50 242
397 l129 207 1200 0 c659 0 1199 -2 1199 -5z m2690 0 c0 -3 -84 -140 -186
-305 l-186 -300 -1309 0 c-720 0 -1309 3 -1309 6 0 4 86 141 191 305 l191 299
1304 0 c717 0 1304 -2 1304 -5z m1825 -300 l0 -300 -1059 -3 c-884 -2 -1057 0
-1053 11 4 11 227 374 344 560 l23 37 873 -2 872 -3 0 -300z m-8535 -372 c0
-3 -91 -159 -202 -345 l-202 -338 -1113 0 -1113 0 0 338 c0 186 3 342 7 345 8
9 2623 9 2623 0z m3100 1 c0 -3 -91 -158 -202 -345 l-202 -339 -1514 0 -1514
0 14 23 c8 12 101 167 206 345 l192 322 1510 0 c831 0 1510 -2 1510 -6z m2543
-41 c-86 -148 -375 -629 -381 -635 -5 -5 -567 -7 -1250 -6 l-1241 3 185 310
c102 171 194 325 204 343 l19 32 1246 0 1246 0 -28 -47z m2773 20 c-9 -16
-100 -170 -204 -343 l-188 -315 -1342 -3 c-738 -1 -1342 0 -1342 3 0 4 91 159
202 346 l202 339 1343 0 1344 0 -15 -27z m122 -321 l2 -342 -220 0 c-121 0
-220 2 -220 5 0 3 91 159 203 346 137 231 207 338 217 337 13 -3 15 -51 18
-346z m-10098 -412 c0 -6 -98 -171 -217 -366 l-218 -354 -315 2 -315 3 -3 350
c-1 192 0 356 3 362 6 17 1065 19 1065 3z m2916 -7 c-13 -34 -429 -705 -440
-709 -6 -2 -646 -3 -1423 -2 l-1411 3 213 348 c118 192 219 355 226 363 10 12
214 14 1426 14 1314 0 1415 -1 1409 -17z m2624 11 c0 -4 -105 -168 -232 -365
l-233 -359 -1258 0 c-692 0 -1257 4 -1255 8 2 5 101 169 222 365 l219 357
1268 0 c698 0 1269 -3 1269 -6z m2720 -1 c0 -5 -98 -168 -218 -363 l-218 -355
-1338 -3 c-1115 -2 -1336 0 -1329 11 4 8 111 172 237 365 l229 352 1318 0
c726 0 1319 -3 1319 -7z m1835 -358 l0 -360 -1097 -3 c-604 -1 -1098 0 -1098
3 0 4 214 355 409 673 l33 52 876 -2 877 -3 0 -360z m-8975 -432 c0 -5 -112
-197 -248 -428 l-249 -420 -844 0 -844 0 -3 415 c-1 228 0 421 3 427 3 10 231
13 1095 13 599 0 1090 -3 1090 -7z m2792 -423 l-256 -430 -1478 0 c-813 0
-1478 3 -1478 6 0 4 392 672 482 822 l20 32 1483 0 1484 0 -257 -430z m2839
383 c-15 -27 -126 -214 -246 -418 -119 -203 -223 -376 -229 -383 -9 -9 -273
-12 -1279 -10 l-1267 3 256 428 257 427 1268 0 1268 0 -28 -47z m2729 40 c0
-5 -112 -197 -249 -428 l-248 -420 -1317 -3 c-724 -1 -1316 0 -1316 3 0 3 113
197 251 430 l251 425 1314 0 c723 0 1314 -3 1314 -7z m615 -423 l0 -425 -519
-3 c-452 -2 -517 0 -513 12 5 13 307 526 449 764 l50 82 266 -2 267 -3 0 -425z
m-10470 -537 c-52 -91 -19 -84 -374 -81 l-316 3 -3 49 c-2 27 -1 55 2 62 4 12
68 14 362 14 l356 0 -27 -47z m2875 40 c0 -5 -17 -33 -38 -63 l-37 -55 -715
-3 c-617 -2 -721 0 -762 13 -59 19 -141 19 -193 0 -33 -12 -134 -14 -567 -15
-378 0 -528 3 -528 11 0 6 15 35 33 65 l32 53 1388 1 c763 0 1387 -3 1387 -7z
m2769 -31 c-12 -20 -31 -49 -41 -65 l-19 -27 -678 0 c-578 0 -685 2 -721 15
-54 19 -136 19 -190 0 -36 -13 -127 -15 -576 -15 -366 0 -534 3 -534 10 0 6
16 35 35 65 l35 55 1356 0 1356 0 -23 -38z m2671 32 c0 -11 -62 -109 -74 -116
-6 -4 -320 -8 -697 -8 -585 0 -693 2 -729 15 -54 19 -136 19 -190 0 -35 -12
-118 -15 -495 -15 -248 0 -454 3 -457 6 -4 3 10 32 30 65 l37 59 1288 0 c708
0 1287 -3 1287 -6z m2155 -59 l0 -60 -378 -3 c-318 -2 -383 0 -413 13 -46 19
-137 19 -189 0 -33 -12 -139 -14 -602 -15 -310 0 -563 3 -563 6 0 4 16 33 36
65 l36 59 1036 -2 1037 -3 0 -60z"/>
<path d="M987 8706 c-91 -33 -147 -115 -147 -216 0 -73 22 -121 79 -173 109
-99 282 -63 352 74 13 26 19 59 19 100 0 160 -152 268 -303 215z m154 -69
c153 -81 96 -311 -76 -311 -172 0 -229 230 -76 311 24 13 58 23 76 23 18 0 52
-10 76 -23z"/>
<path d="M3941 8694 c-63 -32 -104 -84 -121 -155 -22 -92 21 -195 103 -243 88
-52 191 -44 268 22 53 46 79 101 79 172 0 172 -175 280 -329 204z m196 -67
c39 -26 73 -90 73 -135 0 -74 -64 -153 -134 -166 -107 -20 -196 58 -196 172 0
63 30 109 90 140 54 28 116 24 167 -11z"/>
<path d="M6735 8696 c-60 -28 -87 -56 -114 -116 -36 -79 -19 -183 42 -249 33
-36 115 -71 167 -71 52 0 134 35 167 71 34 37 63 110 63 159 0 52 -35 134 -71
167 -37 34 -110 63 -159 63 -27 0 -65 -10 -95 -24z m161 -55 c48 -22 80 -59
96 -112 23 -79 -33 -174 -120 -200 -115 -34 -238 86 -204 200 7 21 22 51 34
66 24 31 91 65 128 65 14 0 43 -9 66 -19z"/>
<path d="M9382 8707 c-84 -31 -152 -127 -152 -217 0 -49 29 -122 63 -159 33
-36 115 -71 167 -71 52 0 134 35 167 71 34 37 63 110 63 159 0 52 -35 134 -71
167 -60 55 -162 77 -237 50z m144 -66 c48 -22 80 -59 96 -112 23 -79 -33 -174
-120 -200 -115 -34 -238 86 -204 200 7 21 22 51 34 66 24 31 91 65 128 65 14
0 43 -9 66 -19z"/>
<path d="M2317 7846 c-101 -28 -167 -114 -167 -218 0 -135 92 -228 225 -228
134 0 228 93 228 225 0 153 -139 261 -286 221z m144 -79 c53 -36 79 -82 79
-142 0 -88 -60 -154 -148 -163 -61 -5 -113 17 -150 66 -36 47 -39 145 -6 189
55 75 155 97 225 50z"/>
<path d="M5077 7846 c-143 -39 -209 -193 -139 -327 40 -76 94 -112 176 -117
76 -5 126 9 172 51 102 89 105 248 7 338 -61 57 -137 76 -216 55z m144 -79
c105 -70 108 -206 6 -281 -42 -31 -140 -30 -185 2 -98 70 -92 220 12 283 45
27 123 26 167 -4z"/>
<path d="M7628 7846 c-167 -45 -224 -259 -102 -380 67 -66 174 -86 260 -47 49
23 107 88 122 140 52 170 -108 334 -280 287z m139 -73 c82 -39 115 -160 63
-236 -88 -129 -282 -86 -307 68 -6 40 17 113 45 138 53 48 135 61 199 30z"/>
<path d="M10635 7851 c-131 -33 -207 -160 -170 -286 19 -66 61 -116 121 -145
64 -32 164 -26 223 13 64 42 95 97 99 176 4 74 -9 117 -52 168 -47 56 -152 91
-221 74z m135 -83 c58 -40 75 -72 75 -142 0 -53 -4 -68 -27 -98 -37 -49 -89
-71 -150 -66 -159 16 -204 214 -69 305 47 32 125 32 171 1z"/>
<path d="M635 7101 c-131 -33 -207 -160 -170 -286 19 -66 61 -116 121 -145 64
-32 164 -26 223 13 64 42 95 97 99 176 4 74 -9 117 -52 168 -47 56 -152 91
-221 74z m135 -83 c58 -40 75 -72 75 -142 0 -53 -4 -68 -27 -98 -37 -49 -89
-71 -150 -66 -159 16 -204 214 -69 305 47 32 125 32 171 1z"/>
<path d="M3554 7101 c-139 -34 -215 -170 -169 -302 32 -90 117 -148 218 -149
168 0 277 176 202 327 -31 62 -81 102 -149 120 -55 14 -57 14 -102 4z m149
-94 c43 -33 72 -102 64 -152 -19 -118 -146 -180 -249 -123 -112 63 -110 234 3
292 51 25 137 17 182 -17z"/>
<path d="M6537 7096 c-60 -16 -93 -40 -132 -95 -27 -39 -30 -50 -30 -125 0
-73 3 -87 28 -124 44 -67 97 -96 181 -100 60 -3 78 0 116 21 25 13 60 43 78
66 31 41 32 46 32 132 0 98 -10 127 -57 170 -60 57 -137 76 -216 55z m144 -79
c18 -12 44 -38 57 -57 20 -29 23 -44 20 -93 -5 -61 -23 -95 -72 -131 -39 -30
-143 -30 -182 0 -54 40 -69 70 -69 139 0 71 17 103 75 143 46 31 124 31 171
-1z"/>
<path d="M9218 7096 c-100 -27 -168 -117 -168 -222 0 -122 101 -224 222 -224
137 0 232 93 232 225 0 152 -141 261 -286 221z m142 -77 c44 -27 62 -52 76
-103 19 -72 -8 -137 -77 -184 -45 -31 -129 -28 -178 8 -38 26 -70 90 -71 138
0 37 28 98 57 124 47 43 137 50 193 17z"/>
<path d="M2445 6406 c-178 -78 -187 -328 -15 -416 82 -41 180 -30 252 30 159
132 61 401 -147 400 -33 -1 -73 -7 -90 -14z m170 -69 c86 -49 110 -164 51
-241 -35 -47 -74 -66 -132 -66 -88 0 -154 57 -162 141 -6 62 2 90 35 130 52
61 137 76 208 36z"/>
<path d="M5225 6401 c-118 -53 -167 -193 -109 -310 50 -100 159 -148 266 -117
121 35 192 160 158 280 -16 57 -72 123 -124 147 -53 24 -139 24 -191 0z m152
-52 c71 -26 122 -113 108 -182 -18 -84 -84 -137 -173 -137 -63 0 -109 30 -139
90 -28 55 -29 92 -2 147 36 75 128 112 206 82z"/>
<path d="M7725 6401 c-118 -53 -167 -193 -109 -310 50 -100 159 -148 266 -117
121 35 192 160 158 280 -16 57 -72 123 -124 147 -53 24 -139 24 -191 0z m152
-52 c71 -26 122 -113 108 -182 -18 -84 -84 -137 -173 -137 -63 0 -109 30 -139
90 -28 55 -29 92 -2 147 36 75 128 112 206 82z"/>
<path d="M10750 6404 c-90 -39 -148 -139 -137 -236 12 -99 79 -174 180 -199
162 -40 313 122 268 289 -15 53 -73 119 -126 143 -49 23 -137 24 -185 3z m166
-65 c79 -38 112 -130 76 -211 -62 -140 -272 -127 -311 20 -16 57 -5 107 33
150 56 64 127 78 202 41z"/>
<path d="M950 5635 c-27 -8 -63 -32 -88 -56 -146 -145 -45 -390 160 -389 192
1 299 225 177 373 -59 72 -160 101 -249 72z m160 -77 c49 -34 72 -71 77 -125
10 -104 -76 -189 -180 -180 -128 11 -193 160 -117 267 43 61 157 80 220 38z"/>
<path d="M3924 5636 c-58 -18 -102 -54 -132 -106 -22 -37 -27 -57 -27 -110 1
-134 95 -230 225 -230 246 0 316 324 94 438 -35 18 -116 23 -160 8z m157 -79
c39 -26 79 -97 79 -143 0 -51 -40 -115 -90 -141 -149 -79 -301 76 -223 229 37
74 161 104 234 55z"/>
<path d="M6679 5634 c-97 -29 -171 -147 -155 -246 30 -184 242 -262 378 -140
79 71 99 171 54 268 -26 56 -74 98 -133 120 -48 17 -86 16 -144 -2z m136 -57
c6 -4 23 -17 39 -29 33 -25 65 -90 66 -132 0 -48 -37 -111 -82 -141 -92 -61
-223 -5 -247 106 -19 88 37 180 121 196 52 10 90 10 103 0z"/>
<path d="M9430 5641 c-109 -34 -170 -115 -170 -229 0 -187 227 -291 374 -171
76 63 102 189 58 275 -50 98 -168 153 -262 125z m152 -86 c62 -46 87 -149 53
-215 -21 -42 -78 -81 -125 -87 -56 -8 -123 20 -158 65 -23 30 -27 45 -27 98 0
70 17 102 76 142 28 20 44 23 94 20 40 -2 70 -10 87 -23z"/>
<path d="M2255 4806 c-60 -28 -87 -56 -114 -116 -26 -57 -26 -123 0 -180 27
-60 54 -88 114 -116 91 -43 183 -27 255 46 73 72 89 164 46 255 -28 60 -56 87
-116 114 -60 27 -123 26 -185 -3z m161 -55 c48 -22 80 -59 96 -112 34 -114
-89 -234 -204 -200 -87 26 -143 121 -120 200 16 53 48 90 96 112 52 23 80 23
132 0z"/>
<path d="M5020 4809 c-92 -42 -134 -107 -134 -209 0 -102 42 -167 134 -209
147 -67 320 46 320 209 0 162 -174 276 -320 209z m155 -58 c115 -52 138 -191
46 -274 -50 -45 -108 -56 -169 -32 -139 56 -144 244 -8 306 51 23 80 23 131 0z"/>
<path d="M7636 4815 c-153 -54 -197 -262 -80 -379 143 -142 384 -40 384 163 0
161 -153 270 -304 216z m171 -76 c103 -64 94 -227 -17 -287 -142 -75 -295 82
-221 227 44 85 153 113 238 60z"/>
<path d="M10615 4806 c-60 -28 -87 -56 -114 -116 -36 -79 -19 -183 42 -249 31
-34 115 -71 161 -71 94 0 173 50 212 134 31 66 31 127 0 191 -28 60 -56 87
-116 114 -60 27 -123 26 -185 -3z m161 -55 c48 -22 80 -59 96 -112 34 -114
-89 -234 -204 -200 -87 26 -143 121 -120 200 16 53 48 90 96 112 52 23 80 23
132 0z"/>
<path d="M515 3961 c-116 -53 -168 -192 -116 -307 64 -140 256 -176 365 -68
84 85 93 213 22 307 -59 77 -183 109 -271 68z m161 -60 c55 -25 87 -71 92
-136 8 -103 -60 -179 -163 -179 -172 0 -228 231 -76 311 53 28 92 29 147 4z"/>
<path d="M3522 3967 c-54 -20 -103 -67 -129 -125 -90 -195 122 -392 315 -293
48 25 76 55 101 111 40 87 22 180 -49 250 -65 65 -155 87 -238 57z m130 -57
c51 -15 105 -77 113 -132 24 -158 -169 -256 -281 -144 -69 69 -66 168 7 238
49 46 92 57 161 38z"/>
<path d="M6375 3961 c-88 -40 -135 -114 -135 -211 0 -99 58 -183 149 -215 82
-28 168 -11 229 48 52 50 72 97 72 170 0 53 -5 71 -32 117 -59 97 -183 137
-283 91z m161 -60 c56 -25 87 -71 92 -137 8 -100 -63 -178 -163 -178 -175 0
-230 243 -71 315 23 10 55 19 71 19 17 0 48 -9 71 -19z"/>
<path d="M9071 3954 c-100 -50 -148 -159 -117 -266 35 -121 160 -192 280 -158
57 16 123 72 147 124 24 53 24 139 0 191 -56 120 -191 168 -310 109z m179 -57
c50 -26 90 -90 90 -143 0 -101 -99 -188 -193 -169 -84 18 -137 84 -137 173 0
63 30 109 90 140 56 28 96 28 150 -1z"/>
<path d="M2490 3221 c-187 -38 -250 -273 -106 -398 46 -41 95 -56 171 -51 47
3 73 11 103 31 109 72 134 239 51 340 -49 59 -144 93 -219 78z m114 -75 c81
-34 118 -143 77 -223 -32 -63 -74 -88 -148 -88 -47 0 -68 5 -90 21 -102 75
-99 211 6 281 40 27 104 30 155 9z"/>
<path d="M5287 3216 c-60 -16 -93 -40 -132 -95 -27 -39 -30 -50 -30 -125 0
-73 3 -87 28 -124 42 -65 97 -96 176 -100 74 -4 117 9 168 52 96 80 99 252 7
338 -57 53 -142 74 -217 54z m144 -79 c18 -12 44 -38 57 -57 20 -29 23 -44 20
-93 -5 -61 -23 -95 -72 -131 -39 -30 -143 -30 -182 0 -54 40 -69 70 -69 139 0
71 17 103 75 143 46 31 124 31 171 -1z"/>
<path d="M7667 3219 c-55 -13 -90 -33 -124 -73 -41 -46 -56 -96 -51 -171 7
-118 87 -196 207 -203 74 -4 117 9 168 52 96 80 99 252 7 338 -53 49 -139 73
-207 57z m134 -82 c18 -12 44 -38 57 -57 20 -29 23 -44 20 -93 -5 -61 -23 -95
-72 -131 -39 -30 -143 -30 -182 0 -54 40 -69 70 -69 139 0 71 17 103 75 143
46 31 124 31 171 -1z"/>
<path d="M10640 3221 c-95 -19 -166 -94 -184 -194 -10 -52 17 -138 55 -181 48
-56 107 -79 188 -74 81 4 135 35 178 99 39 59 45 159 13 223 -45 93 -151 147
-250 127z m130 -83 c58 -40 75 -72 75 -142 0 -53 -4 -68 -27 -98 -37 -49 -89
-71 -150 -66 -159 16 -204 214 -69 305 47 32 125 32 171 1z"/>
<path d="M1020 2511 c-108 -35 -172 -117 -172 -220 0 -99 43 -168 126 -207 71
-33 138 -32 207 4 76 40 112 94 117 176 5 76 -9 126 -51 172 -54 63 -160 97
-227 75z m141 -84 c58 -39 81 -83 77 -148 -5 -67 -33 -111 -91 -140 -55 -29
-123 -22 -173 16 -125 95 -57 295 101 295 38 0 61 -6 86 -23z"/>
<path d="M4012 2510 c-160 -38 -225 -249 -114 -372 48 -53 102 -78 172 -78
178 0 286 191 195 346 -30 51 -70 82 -132 100 -50 15 -71 16 -121 4z m151 -85
c91 -62 98 -185 16 -260 -66 -60 -152 -59 -220 2 -64 58 -75 136 -29 211 46
74 158 97 233 47z"/>
<path d="M6705 2511 c-106 -26 -175 -114 -175 -223 1 -94 52 -172 139 -211 36
-16 57 -18 110 -13 80 7 132 39 175 110 76 122 2 299 -139 335 -48 12 -66 12
-110 2z m138 -81 c47 -24 71 -67 75 -135 3 -50 0 -66 -20 -95 -54 -80 -135
-101 -218 -57 -111 58 -119 205 -16 281 25 19 134 38 146 26 3 -3 18 -12 33
-20z"/>
<path d="M9485 2511 c-176 -43 -235 -263 -104 -388 136 -129 355 -52 385 135
16 102 -58 217 -159 247 -54 16 -75 17 -122 6z m131 -77 c93 -44 117 -172 47
-255 -52 -61 -129 -75 -203 -36 -114 60 -117 220 -6 288 39 24 115 25 162 3z"/>
<path d="M2297 1729 c-99 -23 -177 -121 -177 -223 0 -80 60 -173 134 -207 24
-11 64 -19 96 -19 172 0 280 175 204 329 -32 64 -86 105 -155 120 -56 12 -50
12 -102 0z m152 -89 c37 -26 70 -90 71 -134 0 -51 -38 -114 -84 -141 -79 -46
-173 -25 -226 52 -51 75 -20 195 61 237 48 24 135 17 178 -14z"/>
<path d="M5200 1725 c-188 -60 -219 -311 -50 -412 155 -93 342 12 344 192 1
154 -149 266 -294 220z m150 -76 c77 -43 106 -159 58 -229 -36 -52 -71 -73
-130 -77 -174 -13 -244 216 -94 308 43 26 118 25 166 -2z"/>
<path d="M7665 1731 c-76 -19 -143 -78 -165 -146 -20 -60 -9 -156 23 -204 42
-64 97 -95 176 -99 44 -3 79 1 101 10 180 76 191 330 20 418 -43 22 -114 32
-155 21z m136 -84 c18 -12 44 -38 57 -57 20 -29 23 -44 20 -93 -5 -61 -23 -95
-72 -131 -39 -30 -143 -30 -182 0 -49 36 -67 70 -72 131 -3 49 0 64 20 93 37
55 83 80 143 80 38 0 61 -6 86 -23z"/>
<path d="M10592 1726 c-139 -45 -202 -198 -134 -327 83 -161 319 -160 402 1
44 85 33 179 -27 249 -63 74 -157 104 -241 77z m153 -81 c92 -54 104 -187 23
-262 -78 -73 -207 -49 -255 47 -29 56 -29 104 0 155 48 85 146 111 232 60z"/>
<path d="M435 861 c-83 -38 -135 -120 -135 -211 0 -203 245 -303 389 -159 95
95 88 252 -14 337 -65 53 -166 67 -240 33z m190 -75 c46 -36 67 -78 67 -138
-2 -142 -163 -213 -273 -121 -61 52 -75 129 -36 203 47 89 163 116 242 56z"/>
<path d="M3455 861 c-211 -98 -163 -406 69 -437 83 -12 178 36 223 113 37 63
39 156 5 220 -56 106 -190 153 -297 104z m158 -55 c65 -27 116 -119 101 -183
-19 -81 -85 -135 -163 -135 -90 0 -157 60 -167 148 -14 123 114 218 229 170z"/>
<path d="M6274 866 c-90 -39 -151 -140 -141 -234 11 -102 91 -191 188 -207
167 -28 305 131 258 298 -13 49 -73 115 -124 138 -47 22 -137 24 -181 5z m149
-60 c44 -18 95 -78 103 -122 13 -68 -27 -148 -89 -180 -39 -21 -115 -21 -154
0 -66 34 -102 115 -83 186 27 101 130 155 223 116z"/>
<path d="M8845 861 c-119 -54 -167 -194 -107 -312 82 -162 306 -170 399 -12
23 40 28 59 28 113 -1 100 -53 179 -142 217 -45 18 -131 16 -178 -6z m158 -55
c71 -29 117 -121 97 -195 -21 -78 -79 -123 -160 -123 -80 0 -138 44 -161 122
-16 52 -4 104 34 147 53 60 122 78 190 49z"/>
</g>
</svg>
