<?xml version="1.0" standalone="no"?>
<!DOCTYPE svg PUBLIC "-//W3C//DTD SVG 20010904//EN"
 "http://www.w3.org/TR/2001/REC-SVG-20010904/DTD/svg10.dtd">
<svg version="1.0" xmlns="http://www.w3.org/2000/svg"
 width="1811.000000pt" height="1217.000000pt" viewBox="0 0 1811.000000 1217.000000"
 preserveAspectRatio="xMidYMid meet">
<metadata>
Created by potrace 1.13, written by Peter Selinger 2001-2015
</metadata>
<g transform="translate(0.000000,1217.000000) scale(0.100000,-0.100000)"
fill="#000000" stroke="none">
<path d="M250 11714 l0 -455 23 3 22 3 3 453 2 452 -25 0 -25 0 0 -456z"/>
<path d="M500 11730 l0 -440 25 0 25 0 0 440 0 440 -25 0 -25 0 0 -440z"/>
<path d="M970 11700 l0 -470 25 0 25 0 0 470 0 470 -25 0 -25 0 0 -470z"/>
<path d="M1210 11730 l0 -440 25 0 25 0 0 440 0 440 -25 0 -25 0 0 -440z"/>
<path d="M1350 11715 l0 -455 25 0 25 0 0 455 0 455 -25 0 -25 0 0 -455z"/>
<path d="M1530 11720 l0 -450 25 0 25 0 0 450 0 450 -25 0 -25 0 0 -450z"/>
<path d="M1820 11715 l0 -455 25 0 25 0 0 455 0 455 -25 0 -25 0 0 -455z"/>
<path d="M1950 11715 l0 -455 25 0 25 0 0 455 0 455 -25 0 -25 0 0 -455z"/>
<path d="M2100 11730 l0 -440 25 0 25 0 0 440 0 440 -25 0 -25 0 0 -440z"/>
<path d="M3040 11735 l0 -435 25 0 25 0 0 435 0 435 -25 0 -25 0 0 -435z"/>
<path d="M3172 11733 l3 -438 23 -3 22 -3 0 440 0 441 -25 0 -25 0 2 -437z"/>
<path d="M3372 11738 l3 -433 25 0 25 0 3 433 2 432 -30 0 -30 0 2 -432z"/>
<path d="M3700 11740 l0 -430 25 0 25 0 0 430 0 430 -25 0 -25 0 0 -430z"/>
<path d="M3940 11735 l0 -435 25 0 25 0 0 435 0 435 -25 0 -25 0 0 -435z"/>
<path d="M4072 11733 l3 -438 23 -3 22 -3 0 440 0 441 -25 0 -25 0 2 -437z"/>
<path d="M4272 11738 l3 -433 25 0 25 0 3 433 2 432 -30 0 -30 0 2 -432z"/>
<path d="M4600 11740 l0 -430 25 0 25 0 0 430 0 430 -25 0 -25 0 0 -430z"/>
<path d="M4970 11775 l0 -395 25 0 25 0 0 395 0 395 -25 0 -25 0 0 -395z"/>
<path d="M5082 11743 l3 -428 23 -3 22 -3 0 430 0 431 -25 0 -25 0 2 -427z"/>
<path d="M5230 11726 l0 -444 -92 -6 c-51 -3 -178 -8 -283 -11 -253 -8 -774
-32 -1065 -50 -724 -44 -1083 -43 -1985 5 -198 10 -195 11 -195 -52 0 -35 2
-38 29 -38 65 0 61 28 61 -416 l0 -404 25 0 25 0 0 405 0 406 62 -3 63 -3 3
-387 2 -388 25 0 25 0 0 385 0 385 88 0 c49 0 123 -3 165 -6 l77 -7 0 -368 0
-369 25 0 25 0 0 370 0 370 38 0 c20 0 67 -3 105 -7 l67 -6 0 -353 0 -354 25
0 25 0 0 353 0 352 247 -3 c257 -4 505 5 1067 38 182 11 358 20 393 20 l63 0
0 -340 0 -340 25 0 25 0 0 345 0 345 73 0 c39 0 96 3 125 6 l52 7 0 -347 0
-346 25 0 25 0 0 343 0 344 113 6 c61 4 145 7 185 7 l72 0 -2 -332 -3 -333
-100 -12 c-363 -46 -1027 -113 -1272 -129 l-103 -7 -2 359 -3 359 -22 3 -23 3
0 -365 0 -366 -33 0 c-19 0 -75 -3 -125 -6 l-92 -7 0 357 0 356 -25 0 -25 0 0
-355 0 -354 -32 -5 c-18 -3 -125 -7 -238 -11 -175 -4 -1097 -41 -1502 -60
l-128 -6 0 411 0 410 -25 0 -25 0 0 -410 0 -410 -105 0 -105 0 0 415 0 415
-25 0 -25 0 0 -415 0 -415 -215 0 -215 0 0 415 0 415 -25 0 -25 0 0 -416 0
-416 -22 6 c-13 3 -40 6 -60 6 l-38 0 0 420 0 420 -25 0 -25 0 0 -415 0 -415
-30 0 -30 0 0 400 0 400 -25 0 -25 0 0 -395 0 -395 -45 0 -45 0 0 395 0 395
-25 0 -25 0 -2 -392 -3 -393 -57 3 -58 4 0 -50 0 -50 73 -6 c39 -3 152 -11
249 -17 l178 -12 0 -509 0 -508 25 0 25 0 0 505 0 505 128 -1 c70 -1 117 -4
104 -6 l-22 -4 2 -507 3 -507 23 -3 22 -3 0 513 0 513 45 -3 45 -4 0 -514 0
-514 25 0 25 0 0 520 0 520 35 0 35 0 2 -517 3 -518 22 -3 23 -3 2 518 3 518
95 2 c168 4 673 23 1130 43 245 11 582 24 750 30 168 5 326 13 353 16 l47 6 0
-546 0 -546 25 0 25 0 0 545 0 545 28 0 c15 0 37 3 50 6 l22 6 0 -541 0 -541
25 0 25 0 0 539 0 538 46 7 c26 3 64 6 85 6 l39 0 2 -537 3 -538 22 -3 23 -3
2 543 3 543 45 6 c25 3 80 9 123 13 l77 7 0 -556 0 -555 25 0 25 0 0 558 0
558 173 17 c94 10 178 17 185 17 9 0 12 -129 12 -610 l0 -610 25 0 25 0 0 615
c0 338 4 615 8 615 4 0 138 16 296 35 159 19 293 35 297 35 5 0 9 -306 9 -680
l0 -680 25 0 25 0 0 684 0 683 38 7 c49 8 916 8 1060 -1 l112 -6 0 -684 0
-683 -37 0 -38 0 3 680 2 680 -25 0 -25 0 -2 -682 -3 -683 -100 2 c-342 7
-566 5 -755 -8 -263 -17 -242 -17 -960 0 -631 15 -1491 11 -2200 -9 -386 -11
-1391 -7 -1521 6 l-56 6 -7 -43 c-8 -48 1 -59 51 -59 67 0 63 29 63 -407 l0
-395 -77 6 c-43 3 -141 14 -218 23 l-140 16 3 394 2 394 -22 -3 -23 -3 0 -389
0 -389 -80 7 c-44 3 -97 6 -117 6 l-38 0 0 380 0 380 -25 0 -25 0 0 -380 0
-380 -45 0 -45 0 0 -50 0 -50 113 0 c109 0 320 -15 364 -25 l23 -5 0 -590 0
-590 25 0 25 0 0 586 0 587 68 -7 c131 -13 419 -26 575 -26 l157 0 0 -585 0
-585 25 0 25 0 0 585 0 585 74 0 c40 0 101 3 135 6 l61 7 0 -586 c0 -549 1
-586 18 -590 9 -2 -19 -7 -63 -11 -44 -4 -125 -14 -180 -22 -55 -8 -131 -19
-170 -24 -107 -14 -552 -10 -933 8 l-343 17 3 -50 3 -50 58 -3 57 -3 0 -403 0
-404 -22 -6 c-13 -3 -40 -6 -60 -6 l-38 0 0 -54 c0 -51 1 -53 25 -48 l25 4 0
-536 0 -536 25 0 25 0 0 540 0 540 21 0 c20 0 21 4 15 50 -6 46 -5 50 14 50
20 0 20 4 20 405 0 337 2 405 14 405 7 0 28 -3 45 -6 l31 -6 0 -400 0 -399 23
3 22 3 3 398 2 397 35 0 35 0 0 -390 0 -390 25 0 25 0 0 385 0 385 55 0 55 0
0 -395 0 -395 25 0 25 0 0 396 0 397 31 -7 c17 -3 82 -6 143 -7 61 0 105 -3
99 -6 -10 -4 -13 -87 -13 -369 l0 -364 25 0 25 0 0 370 0 371 58 -3 57 -3 3
-379 2 -378 -152 3 -153 4 -3 -47 -3 -46 65 -7 66 -7 0 -585 0 -584 23 3 22 3
3 583 2 582 40 0 40 0 2 -587 3 -588 23 -3 22 -3 0 590 0 591 40 0 40 0 0
-590 0 -590 25 0 25 0 0 591 0 592 31 -7 c17 -3 42 -6 55 -6 l24 0 2 -577 3
-578 22 -3 23 -3 0 580 0 581 65 0 65 0 2 -577 3 -578 22 -3 23 -3 0 577 0
577 123 -7 c174 -9 408 -26 434 -32 l23 -4 2 -533 3 -532 22 -3 23 -3 0 530
c0 291 3 532 8 534 11 7 225 -21 332 -43 52 -11 154 -25 225 -31 72 -6 136
-13 143 -15 9 -3 12 -114 12 -513 l0 -510 -32 -6 c-18 -3 -165 -7 -325 -8
l-293 -2 0 -27 c0 -16 -4 -28 -10 -28 -7 0 -10 -180 -10 -521 l0 -522 -38 7
c-20 3 -135 6 -254 6 l-218 0 0 505 c0 330 -3 505 -10 505 -5 0 -10 10 -10 23
l0 22 -493 1 c-406 0 -515 3 -622 17 -167 22 -283 34 -417 42 l-108 6 0 -49 0
-49 80 -7 80 -7 0 -520 0 -520 -42 3 -43 3 -3 512 -2 513 -25 0 -25 0 0 -510
c0 -333 -3 -510 -10 -510 -5 0 -10 -22 -10 -50 0 -60 -10 -57 195 -64 83 -4
201 -9 263 -13 l112 -6 0 -338 0 -339 25 0 25 0 0 334 c0 184 3 336 8 338 4 2
98 2 210 0 l202 -3 0 -379 0 -380 -74 0 -73 0 -7 -41 c-4 -22 -4 -45 0 -50 3
-6 168 -7 452 -3 457 7 543 5 1282 -37 547 -30 1481 -94 1538 -105 l22 -4 0
-421 0 -420 23 3 22 3 3 418 2 417 29 0 c15 0 69 -3 119 -6 l92 -7 0 -408 0
-409 25 0 25 0 0 411 0 412 61 -7 c34 -3 118 -6 185 -6 l124 0 0 -415 0 -415
25 0 25 0 2 413 3 412 40 0 40 0 3 -418 2 -418 23 3 22 3 3 412 2 413 378 2
377 3 3 46 3 46 -573 6 c-315 4 -679 11 -808 17 -200 9 -897 57 -1097 76 l-63
6 0 444 0 444 -25 0 -25 0 0 -446 0 -446 -31 6 c-17 3 -35 6 -40 6 -5 0 -9
197 -9 445 l0 445 75 0 c40 0 253 11 472 25 366 24 521 27 938 21 33 -1 134 1
225 4 l165 5 3 -497 2 -498 25 0 25 0 0 500 c0 493 0 500 20 500 20 0 20 -7
20 -500 l0 -500 25 0 25 0 0 504 0 503 46 7 c26 3 71 6 100 6 l54 0 0 -495 0
-495 25 0 25 0 0 494 0 494 98 6 c53 3 167 8 252 11 85 3 194 8 243 11 l87 6
0 -496 0 -496 25 0 25 0 0 494 0 493 68 6 c37 4 95 7 130 7 l62 0 0 -500 0
-500 25 0 25 0 2 502 3 503 170 6 c94 4 173 5 178 2 4 -2 7 -231 7 -509 l0
-504 25 0 25 0 0 510 c0 401 3 510 13 510 418 13 799 18 1004 13 l263 -6 2
-541 3 -541 23 -3 22 -3 0 541 0 541 58 -3 57 -3 0 -540 0 -540 -155 -6 c-85
-4 -356 -10 -602 -14 l-448 -8 0 552 0 552 -22 -3 -23 -3 -3 -552 -2 -553
-218 -1 c-119 -1 -386 -5 -592 -8 l-375 -6 -3 -43 c-2 -28 -8 -42 -18 -42 -12
0 -14 -66 -14 -464 l0 -464 -117 -8 c-269 -17 -525 -11 -753 18 -329 42 -415
48 -684 48 l-249 0 7 -77 c3 -42 6 -291 6 -555 l0 -478 25 0 25 0 2 502 3 503
73 3 72 3 0 -501 0 -500 30 0 30 0 0 500 0 501 133 -3 132 -3 3 -497 2 -498
25 0 25 0 0 496 0 496 53 -6 c28 -3 100 -11 160 -17 l107 -12 0 -443 0 -444
25 0 25 0 0 440 0 441 48 -7 c26 -3 72 -9 102 -12 l55 -7 3 -476 2 -476 -167
-7 c-93 -3 -289 -11 -438 -16 -267 -10 -562 -26 -1075 -56 -333 -20 -833 -23
-1190 -6 -734 33 -733 33 -742 20 -4 -7 -8 -30 -8 -50 l0 -38 45 0 45 0 0
-125 0 -125 25 0 25 0 0 120 0 120 65 0 65 0 0 -120 0 -120 25 0 25 0 0 115 0
115 162 -2 163 -3 3 -112 c3 -113 3 -113 27 -113 l25 0 0 110 0 110 83 0 c133
0 127 5 127 -116 l0 -104 25 0 25 0 0 103 0 102 358 1 c201 1 477 8 632 18
151 9 326 19 388 23 l112 6 0 -126 0 -127 25 0 25 0 0 124 c0 110 -2 125 -17
129 -10 3 18 5 62 6 44 1 104 4 133 7 l52 7 0 -137 0 -136 25 0 25 0 0 134 0
133 83 6 c45 4 101 7 125 7 l42 0 0 -140 0 -140 25 0 25 0 0 139 0 138 53 7
c28 3 112 6 185 6 l132 0 0 -145 0 -145 25 0 25 0 0 150 0 150 123 0 c67 0
274 1 460 3 l337 4 0 -154 0 -153 25 0 25 0 0 154 0 153 68 6 c37 4 79 7 95 7
l27 0 0 -160 0 -160 25 0 25 0 0 160 0 160 45 0 45 0 0 -160 0 -160 25 0 25 0
0 159 0 158 56 7 c30 3 60 4 65 1 5 -4 9 -78 9 -166 l0 -159 25 0 25 0 0 165
0 165 45 0 45 0 0 -165 0 -165 25 0 25 0 0 165 0 165 45 0 45 0 0 -165 0 -165
25 0 25 0 0 165 0 165 45 0 45 0 0 -165 0 -165 25 0 25 0 0 165 0 165 50 0 50
0 0 -165 0 -165 25 0 25 0 0 165 0 165 125 0 125 0 0 -165 0 -165 25 0 25 0 0
160 0 160 125 0 125 0 0 -160 0 -160 25 0 25 0 0 155 0 155 45 0 c79 0 325
-29 516 -61 101 -17 235 -33 297 -36 l112 -6 0 -103 0 -104 25 0 25 0 0 100 0
100 195 0 195 0 0 -100 0 -100 25 0 c25 0 25 0 25 99 l0 98 115 7 c64 4 120 4
125 1 6 -3 10 -51 10 -106 0 -99 0 -99 25 -99 l25 0 0 105 0 105 103 0 c56 0
180 3 275 7 l172 6 0 -111 0 -112 25 0 25 0 0 109 0 109 51 4 c28 1 53 1 55
-1 2 -2 4 -53 4 -113 l0 -108 25 0 25 0 0 115 0 115 25 0 25 0 0 -115 0 -115
25 0 25 0 0 113 0 114 138 6 c75 4 295 9 487 12 193 3 392 8 443 11 l93 6 -3
46 -3 47 -55 0 c-30 0 -250 -4 -487 -8 l-433 -8 0 499 0 499 38 7 c20 3 49 6
65 6 l27 0 0 -490 0 -490 25 0 25 0 0 490 c0 421 2 490 14 490 32 0 273 21
294 25 l22 5 0 -495 0 -495 25 0 25 0 0 499 0 499 73 7 c39 3 84 8 99 11 l28
6 2 -499 3 -498 23 -3 22 -3 0 496 0 495 28 11 c34 14 883 25 1095 14 l147 -7
0 -519 0 -519 25 0 25 0 0 513 c0 283 2 516 5 519 3 3 22 2 43 -1 l37 -6 3
-513 c2 -504 3 -512 22 -512 20 0 20 7 20 510 0 408 3 512 13 516 7 2 31 1 52
-4 l40 -8 3 -487 2 -487 25 0 25 0 0 489 0 488 53 -4 c28 -3 129 -13 222 -24
94 -10 260 -28 370 -40 110 -12 210 -23 223 -25 l22 -4 0 -440 0 -440 25 0 25
0 0 440 0 440 40 0 40 0 0 -440 0 -440 25 0 25 0 0 439 0 439 58 6 c31 4 65 9
75 12 16 5 17 -21 17 -440 l0 -446 25 0 25 0 0 449 0 449 123 22 c67 12 129
22 137 23 13 2 15 -58 18 -471 l2 -473 23 3 22 3 3 468 c2 453 2 469 -17 474
-14 3 -20 17 -25 54 l-7 50 -37 -7 c-20 -3 -107 -20 -192 -36 -262 -50 -365
-48 -905 16 -464 56 -821 76 -1357 76 -430 0 -636 -10 -923 -45 -376 -46
-1028 -63 -1778 -46 -546 13 -749 23 -997 51 -314 35 -528 50 -841 60 -281 8
-401 7 -591 -5 l-68 -4 0 400 0 399 -25 0 -25 0 0 -400 0 -400 -40 0 -40 0 0
395 0 395 -25 0 -25 0 0 -400 0 -400 -34 0 c-19 0 -41 -3 -50 -6 -14 -6 -16
34 -16 400 l0 406 -25 0 -25 0 0 -399 0 -400 23 -3 c12 -2 -54 -9 -148 -16
-93 -7 -196 -15 -227 -19 l-58 -6 0 452 0 451 45 0 45 0 0 -435 0 -435 25 0
25 0 0 434 0 434 273 6 c415 9 1236 26 1290 26 l47 0 0 -420 0 -420 25 0 25 0
0 420 0 420 33 0 c19 0 75 3 125 6 l92 7 0 -457 0 -456 25 0 25 0 0 455 0 455
68 0 c81 0 620 17 860 26 l172 7 0 -457 0 -456 25 0 25 0 0 454 0 453 38 7
c20 3 56 6 80 6 l42 0 0 -500 0 -500 25 0 25 0 0 500 0 500 93 0 c52 0 128 3
170 6 l77 7 0 -507 0 -506 25 0 25 0 0 505 0 505 55 0 55 0 0 -520 0 -520 25
0 25 0 0 520 0 520 25 0 25 0 0 -510 0 -510 25 0 25 0 2 512 3 513 190 7 c203
7 466 24 527 34 l38 7 -6 41 c-4 22 -9 44 -13 48 -3 4 -42 3 -86 -2 -44 -4
-113 -11 -152 -14 l-73 -6 0 390 0 390 -25 0 -25 0 0 -389 0 -389 -107 -6
c-60 -4 -369 -13 -688 -21 -319 -9 -692 -20 -830 -25 -137 -5 -303 -10 -367
-10 l-118 0 0 526 0 527 43 -7 c23 -4 141 -23 262 -42 121 -19 234 -36 250
-39 l30 -5 -3 -440 -2 -440 25 0 25 0 0 436 0 435 28 -3 27 -3 3 -423 2 -423
23 3 22 3 3 417 c2 345 5 418 16 418 7 0 28 -3 45 -6 l31 -6 0 -424 0 -424 25
0 25 0 0 426 c0 384 2 426 16 420 9 -3 27 -6 40 -6 l24 0 0 -425 0 -425 25 0
25 0 0 423 0 422 113 -3 c61 -2 118 -5 125 -7 9 -3 12 -91 12 -395 l0 -390 25
0 25 0 0 394 0 394 338 7 c320 6 566 0 1017 -25 94 -5 189 -10 213 -10 l42 0
0 -340 0 -340 25 0 25 0 0 341 0 341 23 -6 c12 -3 106 -6 210 -6 l187 0 0
-380 0 -380 -75 0 c-82 0 -74 6 -90 -73 -2 -9 2 -18 8 -19 7 -1 273 -2 592 -2
600 -1 634 -3 1640 -66 366 -23 1000 -70 1033 -76 l22 -4 0 -420 0 -420 25 0
25 0 0 420 0 420 33 0 c19 0 75 -3 125 -6 l92 -7 0 -408 0 -409 25 0 25 0 0
411 0 412 61 -7 c34 -3 118 -6 185 -6 l124 0 0 -415 0 -415 25 0 25 0 0 416 0
415 38 -3 37 -3 3 -418 2 -417 25 0 25 0 0 415 0 415 380 0 380 0 0 50 0 50
-337 0 c-723 0 -1455 33 -2140 96 l-63 6 0 444 0 445 -22 -3 -23 -3 -3 -444
-2 -443 -31 6 c-17 3 -35 6 -40 6 -5 0 -9 197 -9 445 l0 445 79 0 c43 0 256
11 472 25 282 19 464 25 639 24 303 -3 522 -1 618 7 l72 6 0 -501 0 -501 25 0
25 0 0 499 c0 490 0 499 20 504 20 5 20 0 20 -499 l0 -504 25 0 25 0 0 504 0
503 53 7 c28 3 73 6 100 6 l47 0 0 -495 0 -495 25 0 25 0 0 494 0 494 103 6
c56 3 170 8 252 11 83 3 192 8 243 11 l92 6 0 -496 0 -496 25 0 25 0 0 494 0
493 68 6 c37 4 93 7 125 7 l57 0 0 -500 0 -500 25 0 25 0 0 500 0 500 23 4
c12 3 93 7 180 10 l157 4 0 -509 0 -509 25 0 25 0 0 508 0 509 113 6 c61 4
140 7 175 7 l62 0 0 51 0 52 -192 -7 c-321 -12 -1136 -45 -1255 -52 l-113 -6
0 432 0 433 138 -6 c75 -4 219 -10 320 -13 l182 -7 0 -358 0 -359 25 0 25 0 0
360 0 360 49 0 c88 0 81 31 81 -361 l0 -349 25 0 25 0 0 350 0 350 185 0 185
0 0 -385 0 -385 25 0 25 0 0 380 0 380 50 0 50 0 0 -360 0 -360 25 0 25 0 0
360 0 360 60 0 60 0 0 50 0 50 -37 0 c-391 1 -1828 48 -1980 65 l-43 5 0 -49
c0 -54 9 -61 83 -61 l37 0 0 -444 0 -443 -37 -7 c-21 -3 -55 -6 -75 -6 l-38 0
0 480 c0 420 -2 480 -15 480 -10 0 -15 10 -15 34 0 34 0 35 -52 40 -95 11
-672 46 -746 46 l-72 0 0 470 0 470 185 0 185 0 2 -442 3 -443 23 -3 22 -3 0
445 0 446 40 0 40 0 2 -447 3 -448 23 -3 22 -3 0 450 0 451 75 0 75 0 0 -460
0 -460 25 0 25 0 0 459 0 458 61 7 c34 3 97 6 140 6 l79 0 0 -480 0 -480 25 0
25 0 0 480 0 480 283 0 c155 0 306 3 334 6 l53 7 2 -504 3 -504 22 -3 23 -3 2
503 3 503 113 3 112 3 0 -511 0 -510 25 0 25 0 0 510 0 510 45 0 45 0 0 -511
0 -510 23 3 22 3 3 508 2 507 35 0 35 0 0 -515 0 -515 25 0 25 0 0 514 c0 572
-6 526 71 526 l39 0 0 -520 0 -520 25 0 25 0 2 518 3 517 168 3 167 2 0 -520
0 -520 25 0 25 0 2 523 3 522 48 3 47 3 0 50 0 50 -87 -3 -88 -3 -3 548 -2
547 -25 0 -25 0 0 -550 0 -550 -40 0 -40 0 0 545 0 545 -25 0 -25 0 0 -545 0
-545 -50 0 -50 0 0 546 0 545 -22 -3 -23 -3 -3 -541 -2 -541 -92 -7 c-50 -3
-196 -6 -325 -6 l-233 0 2 548 3 547 98 3 97 3 0 -536 0 -536 23 3 22 3 3 538
2 537 40 0 40 0 0 -525 0 -525 25 0 25 0 0 524 0 523 38 7 c20 3 49 6 65 6
l27 0 0 -525 0 -525 25 0 25 0 0 524 0 524 113 6 c61 3 196 9 300 12 l187 6 0
49 0 49 -80 0 -80 0 0 495 0 495 70 0 70 0 0 -480 c0 -313 3 -480 10 -480 7 0
10 183 10 530 l0 530 -170 0 -170 0 0 436 0 435 48 -3 47 -3 3 -412 2 -413 25
0 25 0 0 416 0 416 95 -7 95 -7 0 51 c0 50 -1 51 -30 51 l-30 0 0 650 0 650
-25 0 -25 0 0 -645 0 -645 -85 0 -85 0 -2 663 -3 662 -22 3 -23 3 0 -664 c0
-597 -2 -665 -16 -671 -9 -3 -60 -6 -115 -6 l-99 0 0 665 0 665 -25 0 -25 0 0
-670 0 -670 -55 0 -55 0 0 678 0 679 233 7 c127 3 289 9 360 13 l127 6 0 48
c0 37 -4 49 -15 49 -23 0 -23 648 0 656 11 4 15 21 15 57 l0 50 -444 -7 c-244
-4 -551 -11 -682 -16 -132 -5 -371 -10 -531 -10 l-293 0 0 445 0 445 -25 0
-25 0 0 -444 0 -444 -102 -6 c-57 -3 -242 -11 -413 -16 -321 -11 -659 -28
-1115 -56 -359 -23 -909 -23 -1440 -1 -239 9 -461 20 -492 23 -53 6 -58 5 -58
-13 0 -11 -3 -35 -6 -52 -6 -30 -5 -31 29 -31 72 0 67 32 67 -416 l0 -404 25
0 25 0 0 405 0 406 63 -3 62 -3 3 -387 2 -388 25 0 25 0 0 385 0 385 88 0 c49
0 123 -3 165 -6 l77 -7 0 -368 0 -369 25 0 25 0 0 370 0 370 33 0 c17 0 62 -3
100 -7 l67 -6 0 -353 0 -354 25 0 25 0 0 353 0 352 252 -3 c262 -4 512 5 1068
39 179 10 355 19 392 19 l68 0 0 -341 0 -340 23 3 22 3 3 343 2 342 74 0 c40
0 94 3 120 6 l46 7 0 -347 0 -346 25 0 25 0 0 343 0 344 122 6 c66 4 150 7
185 7 l63 0 0 -334 0 -333 -52 -6 c-29 -3 -215 -24 -413 -46 -366 -41 -900
-91 -974 -91 l-41 0 0 361 0 360 -22 -3 -23 -3 -3 -362 -2 -363 -34 0 c-18 0
-74 -3 -124 -6 l-92 -7 0 357 0 357 -22 -3 -23 -3 -3 -352 -2 -352 -33 -5
c-17 -3 -129 -8 -247 -11 -118 -3 -361 -12 -540 -20 -642 -29 -1063 -44 -1071
-39 -5 3 -9 187 -9 410 l0 404 -25 0 -25 0 0 -410 0 -410 -105 0 -105 0 0 415
0 415 -25 0 -25 0 0 -415 0 -415 -210 0 -210 0 0 415 0 415 -25 0 -25 0 0
-409 c0 -226 -3 -411 -7 -414 -5 -2 -34 -1 -65 1 l-58 4 0 420 0 419 -22 -3
-23 -3 -3 -412 -2 -413 -30 0 -30 0 0 400 0 400 -25 0 -25 0 0 -395 0 -395
-45 0 -45 0 0 395 0 395 -25 0 -25 0 0 -396 0 -396 -22 6 c-13 3 -60 6 -105 6
l-83 0 0 390 0 390 -25 0 -25 0 0 -385 0 -385 -97 0 c-54 0 -122 3 -150 6
l-53 7 0 392 0 392 273 8 c149 4 409 11 577 14 l305 6 3 49 3 49 -413 -7
c-227 -3 -448 -9 -490 -13 l-78 -6 0 482 0 481 -25 0 -25 0 0 -479 0 -479
-197 -6 c-791 -27 -1466 -33 -1696 -16 -70 5 -209 23 -310 40 -180 30 -449 60
-533 60 l-44 0 0 440 0 440 -25 0 -25 0 0 -435 0 -435 -167 2 -168 3 -3 433
c-2 424 -3 432 -22 432 -20 0 -20 -7 -20 -428 l0 -429 -507 -7 c-280 -4 -609
-11 -733 -16 -124 -5 -361 -9 -527 -10 l-303 0 0 445 0 445 -25 0 -25 0 0
-444z m1498 -859 l2 -337 -47 0 -48 0 3 334 3 335 27 4 c61 9 57 32 60 -336z
m142 8 l0 -335 -45 0 -45 0 0 335 0 335 45 0 45 0 0 -335z m140 0 l0 -335 -45
0 -45 0 0 328 c0 181 3 332 7 335 3 4 24 7 45 7 l38 0 0 -335z m148 3 l2 -328
-34 0 c-19 0 -41 -3 -50 -6 -14 -6 -16 28 -16 330 l0 337 48 -3 47 -3 3 -327z
m225 326 l77 -7 0 -317 0 -317 -82 -6 c-46 -4 -102 -7 -125 -7 l-43 0 0 330 0
330 48 0 c27 0 83 -3 125 -6z m10217 -334 l0 -340 -47 0 -48 0 3 334 3 335 27
4 c68 10 62 43 62 -333z m150 6 l0 -334 -46 -4 c-25 -2 -47 -1 -50 1 -7 7 -5
657 3 664 3 4 26 7 50 7 l43 0 0 -334z m130 -1 l0 -335 -40 0 -40 0 0 335 0
335 40 0 40 0 0 -335z m150 6 l0 -329 -46 -4 c-25 -2 -47 -1 -50 1 -7 7 -5
647 3 654 3 4 26 7 50 7 l43 0 0 -329z m-11622 -13 l-3 -333 -40 0 -40 0 -3
333 -2 332 45 0 45 0 -2 -332z m182 -3 l0 -335 -65 0 -65 0 0 335 0 335 65 0
65 0 0 -335z m1148 329 l22 -6 0 -314 0 -314 -125 0 -125 0 0 320 0 320 103 0
c56 0 112 -3 125 -6z m9542 -329 l0 -335 -40 0 -40 0 0 335 0 335 40 0 40 0 0
-335z m182 0 l3 -336 -65 3 -65 3 -3 333 -2 332 65 0 64 0 3 -335z m-11432 10
l0 -315 25 0 25 0 0 315 0 315 95 0 95 0 0 -325 0 -325 -250 0 -250 0 0 290 0
290 -25 0 -25 0 0 -290 0 -290 -140 0 -140 0 0 300 0 300 -25 0 -25 0 0 -300
0 -300 -29 0 c-15 0 -49 -3 -75 -6 l-46 -7 0 322 0 321 -25 0 -25 0 0 -325 0
-325 -24 0 c-13 0 -31 -3 -40 -6 -14 -6 -16 27 -16 325 0 182 1 332 3 333 1 1
193 5 427 8 234 3 440 7 458 8 l32 2 0 -315z m2119 284 c85 -11 204 -28 265
-39 61 -12 154 -23 206 -26 52 -3 110 -7 128 -10 l32 -5 0 -291 0 -291 -62 8
c-35 4 -115 12 -178 19 l-115 11 -3 278 -2 277 -25 0 -25 0 0 -276 0 -277 -61
7 c-34 3 -82 6 -105 6 l-44 0 0 275 0 275 -25 0 -25 0 0 -273 0 -272 -45 3
-45 4 0 274 0 274 -25 0 -25 0 0 -275 0 -275 -80 0 -80 0 0 316 0 316 93 -7
c50 -4 161 -15 246 -26z m8751 -284 l0 -315 25 0 25 0 0 315 0 315 100 0 100
0 0 -325 0 -325 -255 0 -255 0 0 290 0 290 -25 0 -25 0 0 -290 0 -290 -135 0
-135 0 0 300 0 300 -25 0 -25 0 0 -300 0 -300 -29 0 c-15 0 -49 -3 -75 -6
l-46 -7 0 322 0 321 -25 0 -25 0 0 -324 0 -324 -37 -5 c-21 -2 -41 -2 -45 0
-7 4 -12 650 -5 655 1 1 193 5 427 8 234 3 440 7 458 8 l32 2 0 -315z m-6520
-166 l0 -389 -25 0 -25 0 0 389 c0 363 1 390 18 394 9 2 20 2 25 0 4 -2 7
-179 7 -394z m-262 4 l2 -383 -57 0 c-32 0 -109 3 -170 7 l-113 6 -2 366 -3
366 -22 3 -23 3 0 -390 c0 -254 4 -391 10 -391 6 0 10 -11 10 -24 0 -32 11
-34 210 -41 91 -3 193 -8 228 -11 l62 -6 0 -504 0 -504 25 0 25 0 0 505 0 505
35 0 35 0 0 -510 0 -510 25 0 25 0 0 504 c0 341 3 507 10 511 6 4 33 4 60 0
l50 -7 0 -504 0 -504 25 0 25 0 0 505 0 505 38 0 c61 0 405 -19 582 -31 l165
-12 0 -506 0 -506 23 -3 22 -3 0 505 0 506 108 0 c59 0 137 -3 174 -7 l68 -6
2 -511 3 -511 22 -3 23 -3 2 518 3 518 38 3 37 3 0 -520 0 -521 25 0 25 0 0
518 0 519 268 6 c147 4 524 18 837 32 456 19 915 38 1240 49 l30 1 3 -543 2
-543 23 3 22 3 3 541 2 541 42 6 c23 3 46 3 50 1 4 -3 8 -246 8 -540 l0 -534
25 0 25 0 0 539 0 538 38 7 c20 3 58 6 85 6 l47 0 0 -540 0 -540 25 0 25 0 0
544 0 544 68 6 c37 4 93 9 125 12 l57 6 0 -556 0 -556 25 0 25 0 0 558 0 558
168 17 c92 10 175 17 185 17 16 0 17 -36 17 -610 l0 -610 25 0 25 0 0 615 c0
338 2 615 5 615 3 0 136 16 295 35 159 19 294 35 300 35 7 0 10 -231 10 -680
l0 -680 25 0 25 0 0 684 0 683 38 7 c50 8 896 8 1050 -1 l122 -6 0 -684 0
-683 -40 0 -40 0 0 680 0 680 -25 0 -25 0 2 -680 3 -681 -24 -6 c-13 -3 -78
-2 -145 3 -160 12 -467 8 -751 -10 -178 -12 -288 -13 -485 -6 -527 19 -1622
24 -2175 9 -614 -16 -1858 -18 -1952 -3 -35 6 -63 8 -63 5 -1 -3 -5 -25 -9
-49 -9 -47 -7 -48 69 -54 l35 -3 3 -398 2 -399 -92 7 c-51 4 -138 13 -192 21
-55 8 -113 14 -130 15 -17 0 -25 3 -18 6 9 4 12 92 12 394 l0 389 -25 0 -25 0
0 -391 0 -392 -77 7 c-42 3 -93 6 -114 6 l-39 0 -2 378 -3 377 -22 3 -23 3 -2
-378 -3 -378 -45 0 -45 0 -3 373 -2 372 -25 0 -25 0 0 -370 0 -370 -105 0
-105 0 0 370 0 369 88 3 87 3 3 46 3 46 -148 6 c-81 4 -265 12 -408 18 -143 7
-475 12 -737 13 l-478 1 0 633 0 632 -25 0 -25 0 0 -635 0 -635 -60 0 -60 0 0
620 0 620 -25 0 -25 0 -2 -622 -3 -623 -125 -12 c-69 -7 -197 -24 -285 -37
-211 -33 -306 -40 -409 -31 l-86 7 0 684 0 684 -25 0 -25 0 0 -681 0 -682 -42
6 c-24 3 -105 14 -180 23 l-138 17 0 659 0 658 -25 0 -25 0 0 -656 0 -657 -77
7 c-42 3 -98 6 -125 6 l-48 0 0 650 0 650 -25 0 -25 0 0 -645 0 -645 -90 0
-90 0 0 665 0 665 -25 0 -25 0 0 -664 c0 -596 -2 -664 -16 -670 -9 -3 -60 -6
-115 -6 l-99 0 0 665 0 665 -25 0 -25 0 0 -670 0 -670 -55 0 -55 0 0 678 0
678 518 17 c879 30 1251 20 1715 -44 82 -12 150 -19 151 -17 2 1 7 24 10 51 7
45 6 47 -18 47 -59 0 -56 -14 -56 306 l0 294 195 0 195 0 0 -335 0 -335 25 0
25 0 0 335 0 335 125 0 125 0 0 -350 0 -350 25 0 25 0 0 355 0 355 218 3 c119
1 242 3 272 2 l55 0 3 -382z m162 -3 l0 -390 -39 0 c-77 0 -71 -31 -71 396 l0
384 55 0 55 0 0 -390z m-930 -2105 l0 -395 25 0 25 0 0 395 0 395 80 0 80 0 0
-424 0 -423 -46 -7 c-25 -3 -116 -8 -202 -11 -86 -3 -169 -8 -184 -10 l-28 -4
0 439 0 440 125 0 125 0 0 -395z m478 388 l122 -6 0 -374 0 -373 25 0 25 0 0
375 0 375 55 0 55 0 0 -385 0 -385 25 0 25 0 0 380 0 380 25 0 25 0 0 -375 0
-375 25 0 25 0 0 376 0 377 92 -7 c50 -3 117 -6 150 -6 l58 0 0 -374 0 -374
-22 -6 c-13 -3 -81 -6 -151 -6 -154 0 -419 -15 -618 -35 -80 -8 -149 -15 -152
-15 -4 0 -7 189 -7 420 l0 420 48 0 c27 0 104 -3 170 -7z m-2838 -418 l0 -415
25 0 25 0 0 416 0 415 123 -7 c67 -3 125 -10 130 -13 4 -4 6 -196 5 -427 l-3
-419 -202 -3 -203 -2 0 428 c0 236 3 432 7 435 3 4 26 7 50 7 l43 0 0 -415z
m2060 -20 l0 -434 -191 -3 c-105 -2 -193 -1 -195 1 -2 2 -4 184 -4 403 l0 398
-25 0 -25 0 0 -405 0 -405 -375 0 -375 0 0 401 0 400 43 -3 42 -3 3 -393 2
-393 23 3 22 3 3 388 2 387 69 0 c38 0 83 3 100 6 l31 7 0 -367 0 -366 25 0
25 0 2 367 3 367 105 17 c93 16 326 43 435 52 22 2 88 4 148 5 l107 2 0 -435z
m-2340 0 l0 -425 -50 0 -50 0 0 419 0 420 28 4 c15 2 37 5 50 6 l22 1 0 -425z
m130 -5 l0 -430 -24 0 c-59 0 -56 -26 -56 436 l0 424 40 0 40 0 0 -430z
m10740 5 l0 -425 -45 0 -45 0 0 419 0 420 23 4 c12 2 32 5 45 6 l22 1 0 -425z
m140 1 c0 -290 -3 -427 -11 -431 -6 -4 -26 -4 -45 -1 l-34 7 0 424 0 425 45 0
45 0 0 -424z m-11607 402 l127 -12 0 -403 0 -403 -45 0 -45 0 0 400 0 400 -25
0 -25 0 0 -401 0 -401 -57 6 c-32 3 -146 8 -253 12 l-195 6 3 399 2 398 113 4
c61 1 148 4 192 5 44 1 137 -3 208 -10z m447 -408 l0 -420 -82 0 c-46 0 -107
3 -135 6 l-53 7 0 403 0 403 43 5 c23 4 71 8 107 9 36 2 77 4 93 5 l27 2 0
-420z m992 403 l38 -6 2 -406 3 -406 25 0 25 0 3 404 2 403 48 -6 c26 -4 62
-10 80 -13 l32 -5 0 -404 0 -404 -184 0 c-101 0 -204 3 -230 6 l-46 7 0 425 0
425 83 -7 c45 -4 99 -9 119 -13z m9436 5 l132 -11 0 -404 0 -403 -45 0 -45 0
0 400 0 400 -25 0 -25 0 0 -401 0 -401 -57 6 c-32 3 -150 8 -263 12 -113 4
-199 9 -192 11 9 4 12 92 12 398 l0 394 108 4 c59 1 143 4 187 5 44 1 140 -3
213 -10z m452 -408 l0 -420 -82 0 c-46 0 -107 3 -135 6 l-53 7 0 403 0 403 43
5 c23 4 69 8 102 9 33 2 75 4 93 5 l32 2 0 -420z m-12880 400 c611 -15 691
-16 848 -6 l142 8 0 -391 0 -391 -67 0 c-38 0 -98 3 -135 7 l-68 6 -2 336 -3
336 -22 3 -23 3 0 -336 c0 -260 -3 -337 -12 -340 -7 -2 -41 -5 -75 -7 l-63 -4
0 353 0 353 -25 0 -25 0 -2 -352 -3 -353 -42 -3 -43 -3 0 360 0 361 -25 0 -25
0 0 -360 0 -360 -197 1 c-109 0 -192 3 -185 6 9 4 12 87 12 369 l0 364 -25 0
-25 0 0 -365 0 -365 -107 0 c-60 0 -114 4 -120 8 -10 6 -13 94 -15 363 l-3
354 -22 3 -23 3 -2 -358 -3 -358 -243 -5 -242 -5 0 343 0 342 -25 0 -25 0 -2
-342 -3 -343 -107 -3 -108 -3 0 361 0 360 -25 0 -25 0 0 -359 0 -358 -122 -6
c-68 -3 -126 -3 -130 -1 -5 3 -8 162 -8 355 l0 349 -25 0 -25 0 0 -355 0 -354
-97 2 -98 2 -3 -47 -3 -48 53 0 c29 0 70 -3 91 -6 l37 -7 0 -578 0 -579 25 0
25 0 0 580 0 580 40 0 40 0 0 -579 c0 -376 4 -582 10 -586 6 -3 10 -26 10 -49
0 -35 4 -45 20 -49 20 -5 20 -14 20 -517 l0 -513 -177 7 c-182 7 -379 21 -445
32 l-38 6 -2 481 -3 482 -22 3 -23 3 0 -480 0 -481 -24 6 c-12 3 -59 11 -102
18 l-79 12 -3 447 -2 447 50 0 50 0 0 50 0 50 -122 0 c-68 0 -160 3 -205 7
l-83 6 0 608 0 609 -25 0 -25 0 0 -610 0 -610 -40 0 -40 0 0 605 0 605 -25 0
-25 0 0 -605 0 -605 -52 0 -53 0 3 587 c1 401 6 590 13 599 7 8 8 29 4 53 l-6
39 -285 -6 -284 -5 0 396 0 397 45 0 45 0 0 -365 0 -365 25 0 25 0 0 365 0
365 35 0 35 0 0 -355 0 -355 25 0 25 0 2 353 3 352 58 3 57 3 0 -371 0 -370
25 0 25 0 0 370 0 370 65 0 65 0 0 -355 0 -355 25 0 25 0 0 355 0 355 165 0
165 0 0 -400 0 -400 25 0 25 0 0 405 0 405 198 1 c108 1 287 5 397 9 326 11
1368 11 1815 0z m10870 0 c616 -15 701 -16 858 -6 l142 9 0 -392 0 -391 -72 0
c-40 0 -103 3 -140 7 l-68 6 0 338 0 339 -25 0 -25 0 0 -339 0 -339 -67 -4
c-38 -2 -71 -2 -75 0 -5 2 -8 160 -8 353 l0 349 -25 0 -25 0 0 -355 0 -355
-40 0 -40 0 0 360 0 360 -25 0 -25 0 0 -360 0 -360 -202 1 c-112 1 -195 3
-185 6 16 4 17 28 15 366 l-3 362 -22 3 -23 3 0 -365 0 -366 -109 0 c-60 0
-116 3 -125 6 -14 5 -16 47 -16 365 l0 359 -25 0 -25 0 0 -360 0 -360 -245 0
-245 0 0 340 0 340 -25 0 -25 0 0 -345 0 -345 -105 0 -105 0 0 360 0 360 -25
0 -25 0 0 -360 0 -360 -69 0 c-37 0 -96 -3 -130 -6 l-61 -7 0 357 0 356 -25 0
-25 0 -2 -352 -3 -353 -97 4 -98 3 0 -28 c0 -16 -3 -39 -6 -51 -6 -22 -3 -23
43 -23 28 0 71 -3 97 -6 l46 -7 0 -578 0 -579 25 0 25 0 0 580 0 580 40 0 40
0 0 -553 c0 -305 3 -588 6 -630 6 -66 10 -77 25 -77 18 0 19 -20 19 -516 l0
-517 -172 7 c-178 7 -385 22 -450 32 l-38 6 0 484 0 484 -25 0 -25 0 0 -480 0
-480 -22 5 c-13 3 -57 11 -98 18 l-75 13 -3 447 -2 447 50 0 51 0 -3 48 -3 47
-193 7 c-106 3 -199 9 -207 12 -13 5 -15 88 -15 611 0 598 0 605 -20 605 -20
0 -20 -8 -22 -607 l-3 -608 -42 -3 -43 -3 0 605 0 606 -25 0 -25 0 0 -605 0
-605 -47 0 -48 0 3 592 c1 346 6 594 12 598 5 3 6 24 3 47 l-5 41 -284 -5
-284 -6 0 397 0 397 43 -3 42 -3 3 -363 2 -363 23 3 22 3 3 363 2 362 35 0 35
0 0 -355 0 -355 25 0 25 0 0 355 0 355 55 0 55 0 0 -370 0 -370 25 0 25 0 0
370 0 370 65 0 65 0 0 -355 0 -355 25 0 25 0 0 355 0 355 165 0 165 0 0 -400
0 -400 25 0 25 0 2 403 3 402 310 7 c171 4 348 9 395 11 207 8 1323 6 1700 -3z
m-14397 -16 l77 -7 0 -393 0 -394 -44 0 c-23 0 -71 3 -105 6 l-61 7 0 393 0
394 28 0 c16 0 63 -3 105 -6z m10880 0 l77 -7 0 -395 0 -395 -100 6 c-55 3
-105 9 -110 12 -11 7 -14 767 -3 778 8 9 39 9 136 1z m-918 -824 c143 -6 285
-14 315 -18 l55 -7 5 -590 5 -590 23 -3 22 -3 0 587 0 587 73 -7 c146 -13 426
-26 574 -26 l153 0 2 -582 3 -583 25 0 25 0 3 581 2 581 128 6 c70 3 130 3
134 0 5 -2 8 -265 8 -583 0 -543 1 -579 18 -582 9 -3 -21 -8 -68 -12 -47 -4
-143 -17 -215 -29 -118 -20 -165 -22 -500 -22 -243 1 -480 8 -690 20 -263 16
-421 19 -890 17 -719 -3 -831 5 -1435 103 -151 24 -320 49 -375 55 -120 12
-724 31 -885 27 l-115 -2 -3 483 c-2 473 -3 482 -22 482 -19 0 -20 -9 -22
-482 l-3 -483 -137 -3 -138 -3 0 496 0 496 73 -3 72 -3 3 -478 2 -478 23 3 22
3 3 479 2 479 107 -6 c58 -4 162 -7 230 -7 l123 0 0 -475 0 -475 25 0 25 0 0
475 0 475 160 0 160 0 0 -450 0 -450 25 0 25 0 0 450 0 450 55 0 55 0 0 -465
0 -465 25 0 25 0 0 465 0 465 50 0 50 0 0 -455 0 -455 25 0 25 0 0 454 0 454
238 6 c561 14 845 29 980 51 l32 6 0 -571 0 -570 25 0 25 0 0 570 c0 448 3
572 13 575 24 8 336 27 552 35 339 11 391 11 670 0z m-7055 -610 l0 -590 25 0
25 0 0 590 0 590 40 0 40 0 2 -595 3 -595 -100 -2 c-191 -2 -690 3 -723 9
l-32 5 2 582 3 581 240 5 c132 3 293 7 358 8 l117 2 0 -590z m693 574 l337 -7
0 -539 0 -538 25 0 25 0 0 540 0 540 40 0 40 0 0 -540 0 -540 25 0 25 0 0 545
0 545 40 0 40 0 0 -563 0 -564 -257 -12 c-142 -6 -273 -14 -290 -17 l-33 -5 0
561 0 560 -25 0 -25 0 0 -559 0 -558 -82 -6 c-46 -4 -108 -7 -138 -7 l-55 0 0
577 0 578 -25 0 -25 0 -3 -569 c-1 -412 1 -573 9 -582 10 -12 -3 -14 -75 -14
l-86 0 0 588 c0 324 3 592 8 596 4 5 43 6 87 2 44 -3 232 -9 418 -12z m10187
-574 l0 -590 25 0 25 0 0 590 0 590 40 0 40 0 2 -595 3 -595 -100 -1 c-192 -3
-700 2 -727 7 l-28 6 0 584 0 584 243 3 c133 1 295 3 360 5 l117 2 0 -590z
m688 574 l342 -7 0 -539 0 -538 25 0 25 0 0 540 0 540 35 0 35 0 0 -540 0
-540 25 0 25 0 0 546 0 545 43 -3 42 -3 3 -558 c2 -441 0 -558 -10 -562 -7 -2
-121 -9 -253 -15 -132 -6 -257 -13 -277 -15 l-38 -5 0 560 0 560 -25 0 -25 0
0 -554 c0 -305 -4 -557 -8 -560 -5 -3 -68 -8 -140 -12 l-132 -7 0 582 0 581
-25 0 -25 0 2 -585 3 -585 -80 0 -80 0 3 596 2 597 83 -6 c45 -4 236 -10 425
-13z m-10130 0 l52 -7 0 -534 0 -534 23 3 22 3 3 533 2 533 38 -3 c20 -2 36
-6 35 -10 -2 -5 -3 -253 -3 -553 l0 -545 -135 0 -135 0 0 560 0 560 23 0 c12
0 46 -3 75 -6z m10876 0 l46 -7 2 -531 3 -531 23 -3 22 -3 0 536 0 536 40 -3
41 -3 -1 -544 c0 -299 -3 -547 -6 -552 -3 -5 -63 -9 -135 -9 l-129 0 0 560 0
560 24 0 c13 0 44 -3 70 -6z m-10212 -33 c4 -4 9 -229 10 -501 3 -487 3 -495
23 -495 20 0 20 8 23 498 l2 497 125 0 125 0 2 -497 3 -498 23 -3 22 -3 0 495
0 496 180 0 180 0 2 -492 c3 -485 3 -493 23 -493 20 0 20 8 23 488 l2 487 50
0 50 0 2 -487 c3 -480 3 -488 23 -488 20 0 20 8 23 488 l2 487 30 0 30 0 0
-498 0 -499 -217 -7 c-120 -4 -360 -13 -533 -21 -173 -8 -395 -17 -492 -21
l-178 -7 0 547 0 547 218 -7 c119 -3 220 -9 224 -13z m10870 0 c4 -4 9 -229
10 -501 l3 -495 23 -3 22 -3 0 501 0 501 128 -3 127 -3 5 -495 c5 -487 5 -495
25 -495 20 0 20 8 23 493 l2 492 178 -2 177 -3 3 -493 2 -493 23 3 22 3 3 488
2 487 50 0 50 0 0 -491 0 -490 23 3 22 3 3 488 2 487 30 0 30 0 -2 -497 -3
-498 -195 -7 c-107 -4 -404 -17 -660 -28 -256 -11 -487 -20 -513 -20 l-47 0
-2 546 -3 545 215 -7 c118 -3 218 -9 222 -13z m-8932 -1111 c162 -5 342 -14
400 -20 104 -11 349 -47 383 -56 16 -5 17 -38 17 -504 0 -466 1 -499 18 -503
9 -3 -41 -5 -113 -6 -71 -1 -160 -4 -197 -8 l-68 -6 0 522 0 521 -25 0 -25 0
0 -520 0 -520 -105 0 -105 0 0 525 0 525 -25 0 -25 0 -2 -527 -3 -528 -40 0
-40 0 -3 538 -2 538 -23 -3 -22 -3 -3 -536 -2 -537 -328 -6 c-180 -3 -384 -8
-454 -11 l-128 -4 0 549 0 550 -25 0 -25 0 0 -551 0 -550 -42 3 -43 3 -3 543
-2 543 -23 -3 -22 -3 -3 -542 -2 -543 -45 0 -45 0 0 545 0 545 -25 0 -25 0 0
-543 0 -544 -97 -6 c-54 -4 -200 -7 -325 -7 l-228 0 0 550 0 550 95 0 95 0 0
-535 0 -535 25 0 25 0 0 540 0 540 45 0 45 0 0 -525 0 -525 25 0 25 0 0 524 0
524 31 6 c17 3 47 6 65 6 l34 0 0 -525 0 -525 25 0 25 0 0 524 0 524 123 7
c67 4 275 10 462 14 187 4 367 8 400 9 33 1 193 -3 355 -8z m-1950 -594 l0
-543 -82 -6 c-46 -4 -104 -7 -130 -7 l-48 0 0 505 0 505 -25 0 -25 0 0 -505 0
-505 -140 0 -140 0 0 515 0 515 -25 0 -25 0 0 -515 0 -515 -75 0 -75 0 0 530
0 530 -25 0 -25 0 0 -530 0 -530 -40 0 -40 0 0 534 0 534 143 6 c314 14 558
23 665 24 l112 2 0 -544z m10870 0 l0 -543 -77 -7 c-42 -3 -100 -6 -130 -6
l-53 0 0 505 0 505 -25 0 -25 0 0 -505 0 -505 -135 0 -135 0 0 515 0 515 -25
0 -25 0 0 -515 0 -515 -75 0 -75 0 0 530 0 530 -25 0 -25 0 0 -530 0 -530 -45
0 -45 0 2 533 3 532 125 7 c156 10 540 24 683 26 l107 2 0 -544z m-11842 -28
l-3 -533 -545 -3 -545 -2 3 515 2 515 45 0 45 0 0 -490 0 -490 25 0 25 0 0
490 0 490 78 0 c42 0 94 3 115 6 l37 7 0 -512 0 -511 25 0 25 0 0 509 0 508
77 7 c42 3 98 6 125 6 l48 0 0 -515 0 -515 25 0 25 0 0 520 0 519 98 4 c53 1
136 4 185 5 l87 2 -2 -532z m3982 504 l175 -27 3 -462 2 -462 -52 -5 c-29 -3
-117 -7 -195 -9 l-143 -3 0 498 c0 468 1 498 18 497 9 0 96 -12 192 -27z
m6890 -507 l0 -535 -545 0 -545 0 2 513 3 512 42 3 43 3 2 -488 3 -488 23 -3
22 -3 0 486 c0 380 3 486 13 490 6 2 60 6 120 8 l107 5 0 -509 0 -509 25 0 25
0 0 509 0 508 77 7 c42 3 96 6 120 6 l43 0 0 -515 0 -515 25 0 25 0 2 518 3
517 95 6 c52 3 134 6 183 7 l87 2 0 -535z m-12390 -10 l0 -505 25 0 25 0 0
505 0 505 35 0 35 0 0 -500 0 -500 25 0 25 0 2 498 3 497 40 0 40 0 5 -500 c5
-492 5 -500 25 -500 20 0 20 8 25 500 l5 500 30 0 30 0 3 -512 2 -513 -252 0
c-139 0 -283 3 -320 7 l-68 6 0 508 0 509 130 0 130 0 0 -505z m10870 0 l0
-505 25 0 25 0 2 503 3 502 35 0 35 0 3 -497 2 -498 25 0 25 0 0 501 0 500 43
-3 42 -3 3 -503 2 -503 23 3 22 3 3 503 2 502 30 0 30 0 0 -515 0 -515 -252 0
c-139 0 -283 3 -320 7 l-68 6 0 508 0 509 130 0 130 0 0 -505z m-4960 467 l65
-7 3 -441 2 -441 -37 -7 c-21 -3 -77 -6 -125 -6 l-88 0 0 460 0 461 58 -6 c31
-4 86 -9 122 -13z m-7748 -389 l3 -398 23 -3 22 -3 0 400 0 401 65 0 65 0 2
-382 3 -383 23 -3 22 -3 0 385 0 386 53 0 c28 0 103 -3 165 -7 l112 -6 0 -444
c0 -419 -1 -444 -17 -439 -40 12 -408 40 -795 61 l-118 7 0 394 0 394 23 0
c12 0 32 3 45 6 l22 6 0 -376 0 -376 25 0 25 0 0 380 c0 368 1 380 19 380 11
0 26 3 35 6 14 6 16 -32 16 -375 l0 -381 25 0 25 0 0 379 0 380 23 4 c12 2 37
5 54 6 l33 1 2 -397z m10878 -3 l0 -400 25 0 25 0 0 400 0 400 65 0 65 0 0
-386 0 -385 23 3 22 3 3 383 2 382 44 0 c23 0 98 -3 164 -7 l122 -6 0 -444 0
-443 -22 5 c-55 12 -446 42 -795 61 l-123 6 0 389 c0 303 3 390 13 393 6 3 27
7 45 10 l32 6 0 -375 0 -375 25 0 25 0 0 379 0 379 35 4 c20 2 38 2 40 -1 3
-2 5 -172 5 -378 l0 -373 25 0 25 0 0 379 0 380 23 4 c12 2 37 5 55 6 l32 1 0
-400z m-2300 -20 l0 -410 25 0 25 0 0 410 0 410 25 0 25 0 0 -400 0 -400 25 0
25 0 0 400 0 400 73 0 c41 0 108 -3 150 -6 l77 -7 0 -403 0 -404 25 0 25 0 0
405 0 405 28 0 c16 0 63 -3 105 -6 l77 -7 0 -403 c0 -375 -1 -403 -17 -408
-53 -16 -524 -37 -1125 -52 l-278 -7 0 442 0 441 80 0 80 0 0 -420 0 -420 25
0 25 0 0 420 0 420 170 0 170 0 0 -390 0 -390 25 0 25 0 0 389 c0 302 3 390
13 394 6 3 31 6 55 6 l42 1 0 -410z m828 384 l22 -6 0 -399 0 -399 25 0 25 0
0 400 0 400 35 0 35 0 2 -387 3 -388 23 -3 22 -3 0 385 0 386 60 0 60 0 0
-395 0 -395 25 0 25 0 0 396 0 397 31 -7 c17 -3 82 -6 143 -7 61 0 105 -3 99
-6 -10 -4 -13 -87 -13 -369 l0 -364 25 0 25 0 0 370 0 370 55 0 55 0 0 -381 0
-382 -150 5 -150 6 0 -48 0 -48 60 -7 60 -7 2 -581 3 -582 23 -3 22 -3 0 585
0 586 45 0 45 0 0 -590 0 -590 25 0 25 0 0 590 0 590 35 0 35 0 2 -587 3 -588
23 -3 22 -3 0 585 c0 322 4 587 9 590 4 3 31 3 60 -1 l51 -6 0 -579 0 -579 23
3 22 3 3 578 2 578 63 -3 62 -3 3 -578 2 -578 23 3 22 3 3 573 2 572 43 0 c59
0 465 -29 505 -35 l32 -6 0 -534 0 -535 25 0 25 0 0 535 0 536 33 -5 c17 -3
70 -11 117 -16 47 -6 141 -22 210 -35 69 -13 168 -26 220 -30 52 -3 105 -8
118 -11 l22 -4 0 -509 0 -509 -23 -6 c-13 -3 -160 -8 -328 -11 l-304 -6 -6
-27 c-4 -15 -7 -257 -8 -539 0 -281 -4 -513 -8 -515 -5 -2 -119 -2 -255 0
l-248 3 0 491 c0 445 -2 495 -17 531 -18 39 -18 39 -63 33 -74 -10 -732 -7
-900 4 -85 6 -198 17 -251 25 -365 55 -1235 45 -1769 -20 -63 -7 -152 -17
-197 -20 l-83 -7 0 556 0 556 -25 0 -25 0 0 -554 0 -555 -57 -8 c-93 -13
-2407 -9 -2843 5 -438 14 -1049 40 -1097 46 -35 5 -43 -5 -43 -59 0 -37 15
-45 88 -45 l42 0 0 -444 0 -443 -37 -7 c-21 -3 -55 -6 -75 -6 l-38 0 0 476 c0
467 0 476 -20 481 -15 4 -20 14 -20 39 0 31 -2 33 -42 38 -38 5 -631 42 -766
49 -29 1 -52 5 -52 10 0 4 0 214 0 467 l0 460 185 0 185 0 0 -446 0 -445 23 3
22 3 3 443 2 442 40 0 40 0 0 -450 0 -450 25 0 25 0 0 450 0 450 75 0 75 0 0
-460 0 -460 25 0 25 0 0 459 0 458 53 7 c28 3 89 6 134 6 l83 0 2 -477 3 -478
23 -3 22 -3 0 475 c0 261 3 477 8 480 4 2 156 6 337 7 l330 3 3 -503 2 -502
23 3 22 3 3 503 2 502 110 0 110 0 0 -510 0 -510 25 0 25 0 0 510 0 510 45 0
45 0 0 -510 0 -510 25 0 25 0 0 510 0 510 40 0 40 0 0 -515 0 -515 25 0 25 0
2 518 3 517 53 3 52 3 0 -520 0 -521 25 0 25 0 0 520 0 520 170 0 170 0 0
-520 0 -520 25 0 25 0 2 523 3 522 123 3 122 3 0 -531 0 -530 25 0 25 0 0 530
0 530 68 0 c37 0 118 3 180 7 l112 6 0 -536 0 -537 25 0 25 0 0 533 0 534 186
6 c102 4 190 4 195 1 5 -3 9 -239 9 -540 l0 -534 25 0 25 0 0 539 0 540 121 3
c66 2 123 1 125 -1 2 -2 4 -249 4 -548 l0 -543 25 0 25 0 0 550 0 550 140 0
140 0 0 -560 0 -560 25 0 25 0 0 565 0 565 50 0 50 0 0 -570 0 -570 25 0 25 0
0 569 0 568 77 7 c42 3 116 6 165 6 l88 0 0 -535 0 -535 25 0 25 0 0 535 0
535 23 4 c12 3 118 7 234 8 l213 3 2 -520 3 -520 22 -3 23 -3 2 523 3 523 108
3 107 3 0 -526 0 -526 23 3 22 3 5 525 5 525 38 3 37 3 0 -515 0 -516 25 0 25
0 2 513 3 512 38 3 37 3 0 -520 0 -521 25 0 25 0 0 519 0 519 31 6 c17 3 42 6
55 6 l24 0 0 -525 0 -525 25 0 25 0 0 524 0 524 93 6 c50 4 109 9 130 12 l37
6 0 -536 0 -536 25 0 25 0 2 538 3 537 22 3 c20 3 21 7 16 53 -5 41 -3 49 11
49 15 0 16 36 16 405 l0 405 23 0 c12 0 32 -3 45 -6z m-9828 -405 l0 -392 -67
6 c-38 4 -85 7 -105 7 l-38 0 0 380 0 379 88 4 c48 1 95 4 105 5 16 2 17 -23
17 -389z m10870 0 l0 -392 -61 7 c-34 3 -82 6 -105 6 l-44 0 0 380 0 379 88 4
c48 1 95 4 105 5 16 2 17 -23 17 -389z m-9160 -1139 l0 -500 25 0 25 0 0 495
0 495 60 0 60 0 0 -490 0 -490 25 0 25 0 0 492 0 491 113 -6 c61 -4 131 -7
154 -7 l43 0 2 -480 3 -480 -30 -5 c-29 -4 -537 -35 -582 -35 l-23 0 0 510 0
510 50 0 50 0 0 -500z m10870 0 l0 -500 25 0 25 0 0 495 0 495 65 0 65 0 0
-491 0 -490 23 3 22 3 3 489 2 489 113 -6 c61 -4 131 -7 155 -7 l42 0 0 -480
0 -479 -32 -5 c-31 -5 -526 -36 -575 -36 l-23 0 0 510 0 510 45 0 45 0 0 -500z
m-10190 10 l0 -470 25 0 25 0 0 470 0 470 90 0 90 0 0 -469 0 -468 -112 -7
c-62 -4 -137 -10 -165 -13 l-53 -6 0 482 0 481 50 0 50 0 0 -470z m528 3 l2
-463 -125 0 -125 0 0 465 0 466 123 -3 122 -3 3 -462z m10352 -3 l0 -470 25 0
25 0 0 470 0 470 85 0 85 0 0 -460 c0 -253 0 -463 0 -467 0 -5 -37 -11 -82
-15 -46 -3 -118 -9 -160 -12 l-78 -6 0 480 0 480 50 0 50 0 0 -470z m520 5 l0
-465 -125 0 -125 0 0 458 c0 252 3 462 7 465 3 4 60 7 125 7 l118 0 0 -465z
m-10836 -571 c14 -5 16 -59 16 -505 l0 -499 -72 0 c-40 0 -251 -11 -468 -25
-217 -14 -439 -25 -492 -25 l-96 0 -10 -47 c-7 -30 -7 -50 -1 -54 6 -3 8 -178
7 -445 l-3 -439 -100 4 c-55 2 -138 6 -185 10 l-85 6 -3 438 -2 437 -25 0 -25
0 0 -435 0 -435 -59 0 c-32 0 -86 3 -120 6 l-61 7 0 427 c0 419 0 428 -20 433
-15 4 -20 14 -20 36 l0 31 -95 0 -95 0 0 495 0 495 100 0 100 0 0 -480 0 -480
25 0 25 0 0 479 0 479 83 6 c45 3 139 7 210 10 l127 5 0 -460 0 -459 25 0 25
0 0 454 c0 296 4 457 10 461 6 4 51 9 100 12 l90 6 0 -497 0 -496 25 0 25 0 0
500 0 500 53 0 c30 0 88 3 130 6 l77 7 0 -497 0 -496 25 0 25 0 0 498 0 498
208 16 c218 16 499 22 526 12z m10878 1 c11 -4 13 -96 10 -505 l-2 -500 -73 0
c-39 0 -247 -11 -462 -25 -214 -14 -434 -25 -487 -25 -56 0 -100 -4 -103 -10
-4 -6 -6 -230 -5 -497 l1 -486 -58 6 c-32 4 -115 9 -185 13 l-128 7 0 438 0
439 -25 0 -25 0 0 -435 0 -435 -57 0 c-32 0 -88 3 -125 7 l-68 6 0 428 c0 366
-2 429 -14 429 -9 0 -16 12 -18 33 l-3 32 -92 3 -93 3 0 494 0 495 100 0 100
0 0 -480 0 -480 25 0 25 0 0 479 0 479 83 6 c45 3 139 8 210 10 l127 6 0 -460
0 -460 25 0 25 0 0 459 0 458 53 7 c28 3 71 6 95 6 l42 0 0 -495 0 -495 25 0
25 0 0 495 c0 388 3 496 13 500 6 2 65 6 130 10 l117 6 0 -496 0 -495 25 0 25
0 2 498 3 497 210 16 c208 16 501 24 527 14z m-10571 -21 c5 -3 9 -221 9 -495
l0 -489 -72 0 c-40 0 -97 3 -125 6 l-53 7 0 495 0 495 116 -7 c64 -3 120 -9
125 -12z m10802 10 l77 -7 0 -493 0 -494 -64 0 c-34 0 -91 3 -125 6 l-61 7 0
493 0 494 48 0 c27 0 83 -3 125 -6z m-10385 -33 c18 -1 18 -950 0 -955 -7 -3
-91 -7 -185 -10 l-173 -6 0 498 0 497 173 -12 c94 -6 178 -12 185 -12z m10835
2 l47 -6 0 -477 0 -477 -177 -6 c-97 -3 -180 -4 -185 -1 -4 3 -8 226 -8 496
l0 491 138 -7 c75 -4 158 -9 185 -13z m-10724 -9 l31 -6 0 -469 0 -469 -40 0
-40 0 0 475 c0 265 4 475 9 475 5 0 23 -3 40 -6z m5219 -511 l2 -513 -25 0
-25 0 0 516 0 515 23 -3 22 -3 3 -512z m690 511 l52 -7 0 -518 0 -519 -40 0
-40 0 0 515 0 515 -25 0 -25 0 0 -510 0 -510 -105 0 -105 0 0 510 0 510 -25 0
-25 0 0 -505 0 -505 -150 0 -150 0 0 515 0 515 293 0 c160 0 316 -3 345 -6z
m4970 0 l22 -6 0 -469 0 -469 -40 0 -40 0 0 475 c0 523 -5 485 58 469z
m-15680 -10 l22 -6 0 -509 0 -509 25 0 25 0 0 510 0 510 33 -6 c17 -3 42 -7
55 -10 l22 -4 0 -513 0 -512 -97 3 c-54 1 -108 5 -120 8 l-23 4 0 520 c0 572
-5 530 58 514z m9754 -501 l3 -508 23 -3 22 -3 0 510 0 511 60 0 60 0 -2 -512
-3 -513 -247 -3 -248 -2 0 499 0 500 33 6 c17 3 86 9 152 14 66 4 126 9 132
10 10 1 13 -110 15 -506z m1116 501 l22 -6 0 -509 0 -509 25 0 25 0 0 510 0
511 38 -6 c80 -14 72 44 72 -528 l0 -512 -87 3 c-49 1 -103 5 -120 8 l-33 5 0
519 c0 572 -5 530 58 514z m-5560 -40 l42 -5 0 -428 0 -428 -67 -6 c-38 -4
-98 -7 -135 -7 l-68 0 0 443 0 443 93 -3 c50 -2 111 -6 135 -9z m10880 0 l42
-5 0 -429 0 -428 -92 -7 c-51 -4 -113 -5 -138 -3 l-45 3 -3 430 c-1 237 0 435
2 440 4 10 152 10 234 -1z m-15745 -4 l47 0 0 -485 0 -485 25 0 25 0 0 480 0
480 55 0 55 0 2 -497 3 -498 22 -3 23 -3 2 498 3 498 105 0 105 0 0 -500 0
-500 -190 -3 c-104 -2 -259 0 -342 3 l-153 7 0 511 0 510 83 -6 c45 -4 103 -7
130 -7z m8925 -482 l-3 -493 -80 3 c-155 6 -626 64 -787 98 l-28 6 -2 401 -3
402 -22 3 -23 3 0 -402 0 -401 -28 5 c-104 21 -461 56 -569 57 l-23 0 0 375 0
375 -25 0 -25 0 0 -375 0 -375 -45 0 -45 0 0 380 0 380 408 0 c389 0 871 12
1014 26 l68 6 2 -468 3 -469 22 -3 23 -3 2 473 3 473 40 6 c22 3 59 7 83 8
l42 1 -2 -492z m1995 475 c4 -2 7 -220 7 -484 l0 -479 25 0 25 0 0 480 0 480
55 0 55 0 0 -500 0 -500 25 0 25 0 0 500 0 500 105 0 105 0 0 -505 0 -505
-223 0 c-123 0 -279 3 -345 7 l-122 6 0 509 0 510 128 -8 c70 -3 130 -8 135
-11z m-10023 -478 l0 -485 -37 0 c-21 0 -92 -9 -158 -20 -66 -11 -132 -20
-147 -20 l-28 0 0 500 0 500 40 0 40 0 2 -467 3 -468 22 -3 23 -3 2 468 3 468
38 3 37 3 0 -465 0 -466 25 0 25 0 0 464 0 465 43 4 c23 2 48 4 55 5 9 2 12
-101 12 -483z m4575 466 l130 -6 3 -358 2 -358 23 3 22 3 3 358 2 358 58 -3
57 -3 5 -350 5 -350 23 -3 22 -3 0 351 0 350 188 -2 187 -3 3 -383 2 -383 23
3 22 3 3 380 2 380 50 -3 50 -4 0 -360 0 -359 23 3 22 3 3 358 2 357 125 0
125 0 0 -360 0 -360 25 0 25 0 0 360 0 360 125 0 125 0 0 -350 0 -350 25 0 25
0 0 350 0 350 80 0 80 0 0 -377 0 -378 -343 -2 c-368 -3 -684 -12 -1395 -43
-250 -11 -458 -18 -463 -14 -11 6 -13 837 -2 848 7 6 208 1 508 -13z m6303
-469 l2 -482 -37 0 c-21 0 -83 -7 -138 -16 -55 -8 -124 -18 -153 -21 l-52 -6
2 499 3 499 43 3 42 3 0 -470 0 -471 25 0 25 0 0 470 0 470 35 0 35 0 2 -462
3 -463 23 -3 22 -3 0 465 0 465 48 4 c26 2 52 3 57 2 6 -1 11 -172 13 -483z
m-4022 -442 c12 0 14 -88 14 -535 l0 -535 -45 0 -45 0 0 541 0 542 31 -7 c17
-3 38 -6 45 -6z m-6446 -510 l0 -380 25 0 25 0 0 374 c0 223 4 377 9 381 6 3
28 3 50 -1 l41 -7 2 -356 3 -356 23 -3 22 -3 0 360 0 361 90 0 90 0 0 -416 0
-415 -67 6 c-209 17 -542 26 -868 23 l-370 -3 0 375 0 375 95 7 c52 4 156 16
230 27 176 27 182 27 408 29 l192 2 0 -380z m10880 0 l0 -380 25 0 25 0 0 381
0 382 31 -7 c17 -3 40 -6 50 -6 18 0 19 -15 19 -360 l0 -360 25 0 25 0 0 360
0 360 85 0 85 0 0 -416 0 -416 -47 6 c-130 15 -616 28 -916 24 l-337 -4 0 376
0 377 103 6 c56 4 129 12 162 18 134 25 280 37 468 38 l197 1 0 -380z m-6798
-1150 c3 -517 18 -457 -112 -461 l-75 -2 -3 444 c-1 244 0 450 3 457 3 8 32
12 94 12 l91 0 2 -450z m1116 -983 l2 -497 25 0 25 0 0 501 0 500 38 -3 37 -3
3 -512 2 -513 -367 0 c-203 -1 -487 -5 -633 -10 -146 -6 -446 -13 -667 -16
l-403 -6 0 476 0 476 75 0 75 0 0 -415 0 -415 25 0 25 0 0 414 0 415 53 5 c28
3 115 8 192 11 77 3 182 8 233 12 l92 6 0 -472 0 -471 25 0 25 0 0 474 0 473
92 7 c50 3 106 6 125 6 l33 0 0 -480 0 -480 25 0 25 0 0 485 c0 455 1 485 18
485 9 0 105 7 212 14 107 8 239 17 293 21 l97 7 0 -506 0 -506 25 0 25 0 0
505 0 504 63 3 c34 2 67 3 72 3 6 -1 11 -177 13 -498z m612 483 c91 -6 254
-20 362 -30 109 -11 202 -20 208 -20 7 0 10 -166 10 -480 l0 -480 25 0 25 0 0
476 0 476 48 -6 c26 -3 82 -8 125 -11 l77 -7 0 -499 0 -499 25 0 25 0 0 501 0
502 61 -7 c34 -3 105 -7 158 -7 53 -1 86 -4 74 -6 l-23 -4 0 -495 0 -494 25 0
25 0 0 501 0 501 23 -6 c12 -3 57 -6 100 -6 l77 0 0 -495 0 -495 25 0 25 0 2
493 3 492 105 3 c58 2 142 0 188 -3 l82 -7 0 -469 0 -469 25 0 25 0 0 470 0
470 55 0 55 0 0 -490 0 -490 25 0 25 0 0 490 0 490 110 0 110 0 0 -495 0 -495
25 0 25 0 0 494 0 494 23 6 c62 16 57 56 57 -489 l0 -495 25 0 25 0 2 493 3
492 38 3 37 3 0 -490 0 -491 25 0 25 0 0 490 0 490 55 0 55 0 0 -503 0 -504
-217 -6 c-1255 -36 -1645 -32 -1963 22 -159 27 -417 57 -545 63 l-50 3 -3 488
-2 488 -23 -3 -22 -3 -3 -482 -2 -483 -73 0 c-39 0 -116 3 -169 7 l-98 6 0
509 0 508 138 0 c75 0 211 -5 302 -10z"/>
<path d="M16800 9745 l0 -665 25 0 25 0 0 665 0 665 -25 0 -25 0 0 -665z"/>
<path d="M17072 9738 l3 -673 23 -3 22 -3 0 675 0 676 -25 0 -25 0 2 -672z"/>
<path d="M8580 9739 l0 -660 23 3 22 3 3 658 2 657 -25 0 -25 0 0 -661z"/>
<path d="M8280 9740 l0 -640 25 0 25 0 0 640 0 640 -25 0 -25 0 0 -640z"/>
<path d="M15750 9715 l0 -635 25 0 25 0 0 635 0 635 -25 0 -25 0 0 -635z"/>
<path d="M16255 10338 c-3 -7 -4 -283 -3 -613 l3 -600 23 -3 22 -3 0 615 c0
613 0 616 -20 616 -11 0 -23 -6 -25 -12z"/>
<path d="M16590 9715 l0 -635 25 0 25 0 0 635 0 635 -25 0 -25 0 0 -635z"/>
<path d="M15550 9725 l0 -615 25 0 25 0 0 615 0 615 -25 0 -25 0 0 -615z"/>
<path d="M16390 9725 l0 -615 25 0 25 0 0 615 0 615 -25 0 -25 0 0 -615z"/>
<path d="M9120 9725 l0 -605 25 0 25 0 0 605 0 605 -25 0 -25 0 0 -605z"/>
<path d="M9322 9723 l3 -588 23 -3 22 -3 0 590 0 591 -25 0 -25 0 2 -587z"/>
<path d="M9850 9700 l0 -520 25 0 25 0 0 520 0 520 -25 0 -25 0 0 -520z"/>
<path d="M10112 9698 l3 -513 23 -3 22 -3 0 515 0 516 -25 0 -25 0 2 -512z"/>
<path d="M13650 9655 l0 -556 23 3 22 3 0 550 0 550 -22 3 -23 3 0 -556z"/>
<path d="M13750 9690 l0 -500 25 0 25 0 0 500 0 500 -25 0 -25 0 0 -500z"/>
<path d="M14017 10183 c-4 -3 -7 -226 -7 -495 l0 -488 25 0 25 0 0 495 c0 473
-1 495 -18 495 -10 0 -22 -3 -25 -7z"/>
<path d="M13350 9661 l0 -501 25 0 25 0 -2 498 -3 497 -22 3 -23 3 0 -500z"/>
<path d="M11640 9640 l0 -511 23 3 22 3 0 505 0 505 -22 3 -23 3 0 -511z"/>
<path d="M12065 10138 c-3 -7 -4 -236 -3 -508 l3 -495 23 -3 22 -3 0 510 c0
507 0 511 -20 511 -11 0 -23 -6 -25 -12z"/>
<path d="M13870 9645 l0 -495 25 0 25 0 0 495 0 495 -25 0 -25 0 0 -495z"/>
<path d="M10850 9665 l0 -465 25 0 25 0 0 465 0 465 -25 0 -25 0 0 -465z"/>
<path d="M13510 9630 l0 -500 25 0 25 0 0 500 0 500 -25 0 -25 0 0 -500z"/>
<path d="M12242 9623 l3 -488 23 -3 22 -3 0 490 0 491 -25 0 -25 0 2 -487z"/>
<path d="M12880 9635 l0 -466 23 3 22 3 0 460 0 460 -22 3 -23 3 0 -466z"/>
<path d="M12620 9615 l0 -455 25 0 25 0 0 455 0 455 -25 0 -25 0 0 -455z"/>
<path d="M11090 8605 l0 -375 25 0 25 0 0 375 0 375 -25 0 -25 0 0 -375z"/>
<path d="M11562 8553 l3 -368 23 -3 22 -3 0 370 0 371 -25 0 -25 0 2 -367z"/>
<path d="M6420 8525 l0 -335 25 0 25 0 0 335 0 335 -25 0 -25 0 0 -335z"/>
<path d="M17300 8524 l0 -335 23 3 22 3 3 333 2 332 -25 0 -25 0 0 -336z"/>
<path d="M2350 8520 l0 -370 25 0 25 0 0 370 0 370 -25 0 -25 0 0 -370z"/>
<path d="M3770 8550 l0 -340 25 0 25 0 0 340 0 340 -25 0 -25 0 0 -340z"/>
<path d="M3892 8553 l3 -338 23 -3 22 -3 0 340 0 341 -25 0 -25 0 2 -337z"/>
<path d="M2820 8545 l0 -335 25 0 25 0 0 335 0 335 -25 0 -25 0 0 -335z"/>
<path d="M3497 8853 c-4 -3 -7 -154 -7 -335 l0 -328 25 0 25 0 0 335 c0 318
-1 335 -18 335 -10 0 -22 -3 -25 -7z"/>
<path d="M2100 7505 l0 -595 25 0 25 0 0 595 0 595 -25 0 -25 0 0 -595z"/>
<path d="M2327 8053 c-4 -3 -7 -258 -7 -565 l0 -558 25 0 25 0 0 565 c0 541
-1 565 -18 565 -10 0 -22 -3 -25 -7z"/>
<path d="M2620 7495 l0 -565 25 0 25 0 0 565 0 565 -25 0 -25 0 0 -565z"/>
<path d="M2990 6325 l0 -505 25 0 25 0 0 505 0 505 -25 0 -25 0 0 -505z"/>
<path d="M13230 8520 l0 -371 23 3 22 3 0 365 0 365 -22 3 -23 3 0 -371z"/>
<path d="M14650 8550 l0 -340 25 0 25 0 0 340 0 340 -25 0 -25 0 0 -340z"/>
<path d="M14770 8549 l0 -340 23 3 22 3 3 338 2 337 -25 0 -25 0 0 -341z"/>
<path d="M13700 8545 l0 -336 23 3 22 3 0 330 0 330 -22 3 -23 3 0 -336z"/>
<path d="M14370 8525 l0 -335 25 0 25 0 0 335 0 335 -25 0 -25 0 0 -335z"/>
<path d="M12980 7505 l0 -595 25 0 25 0 0 595 0 595 -25 0 -25 0 0 -595z"/>
<path d="M13200 7495 l0 -565 25 0 25 0 0 565 0 565 -25 0 -25 0 0 -565z"/>
<path d="M13500 7496 l0 -566 25 0 25 0 -2 563 -3 562 -22 3 -23 3 0 -565z"/>
<path d="M13860 6325 l0 -505 25 0 25 0 0 505 0 505 -25 0 -25 0 0 -505z"/>
<path d="M11120 7485 l0 -605 25 0 25 0 0 605 0 605 -25 0 -25 0 0 -605z"/>
<path d="M10140 7470 l0 -590 25 0 25 0 0 590 0 590 -25 0 -25 0 0 -590z"/>
<path d="M10560 7470 l0 -590 25 0 25 0 0 590 0 590 -25 0 -25 0 0 -590z"/>
<path d="M10740 7485 l0 -575 25 0 25 0 0 575 0 575 -25 0 -25 0 0 -575z"/>
<path d="M10275 8038 c-3 -7 -4 -267 -3 -578 l3 -565 23 -3 22 -3 0 580 c0
577 0 581 -20 581 -11 0 -23 -6 -25 -12z"/>
<path d="M10400 7480 l0 -570 25 0 25 0 0 570 0 570 -25 0 -25 0 0 -570z"/>
<path d="M11850 7441 l0 -591 25 0 25 0 -2 588 -3 587 -22 3 -23 3 0 -590z"/>
<path d="M12090 7465 l0 -565 25 0 25 0 0 565 0 565 -25 0 -25 0 0 -565z"/>
<path d="M9875 8008 c-3 -7 -4 -260 -3 -563 l3 -550 23 -3 22 -3 0 565 c0 562
0 566 -20 566 -11 0 -23 -6 -25 -12z"/>
<path d="M9180 7495 l0 -515 25 0 25 0 0 515 0 515 -25 0 -25 0 0 -515z"/>
<path d="M9282 7483 l3 -528 23 -3 22 -3 0 530 0 531 -25 0 -25 0 2 -527z"/>
<path d="M9030 7475 l0 -525 25 0 25 0 0 525 0 525 -25 0 -25 0 0 -525z"/>
<path d="M9412 7458 l3 -513 23 -3 22 -3 0 515 0 516 -25 0 -25 0 2 -512z"/>
<path d="M8710 7510 l0 -430 25 0 25 0 0 430 0 430 -25 0 -25 0 0 -430z"/>
<path d="M3375 8058 c-3 -7 -4 -267 -3 -578 l3 -565 25 0 25 0 0 575 0 575
-23 3 c-12 2 -24 -3 -27 -10z"/>
<path d="M3700 7480 l0 -560 25 0 25 0 0 560 0 560 -25 0 -25 0 0 -560z"/>
<path d="M14250 7490 l0 -580 25 0 25 0 0 580 0 580 -25 0 -25 0 0 -580z"/>
<path d="M14580 7480 l0 -560 25 0 25 0 0 560 0 560 -25 0 -25 0 0 -560z"/>
<path d="M7160 6370 l0 -540 25 0 25 0 0 540 0 540 -25 0 -25 0 0 -540z"/>
<path d="M7460 6370 l0 -540 25 0 25 0 0 540 0 540 -25 0 -25 0 0 -540z"/>
<path d="M7760 6375 l0 -525 25 0 25 0 0 525 0 525 -25 0 -25 0 0 -525z"/>
<path d="M11450 5290 l0 -590 25 0 25 0 0 590 0 590 -25 0 -25 0 0 -590z"/>
<path d="M12700 5255 l0 -546 23 3 22 3 0 540 0 540 -22 3 -23 3 0 -546z"/>
<path d="M13420 5210 l0 -500 25 0 25 0 0 500 0 500 -25 0 -25 0 0 -500z"/>
<path d="M13590 5180 l0 -500 25 0 25 0 0 500 0 500 -25 0 -25 0 0 -500z"/>
<path d="M12670 4091 l0 -491 25 0 25 0 -2 488 -3 487 -22 3 -23 3 0 -490z"/>
<path d="M3812 4123 l3 -498 23 -3 22 -3 0 500 0 501 -25 0 -25 0 2 -497z"/>
<path d="M3970 4135 l0 -485 25 0 25 0 0 485 0 485 -25 0 -25 0 0 -485z"/>
<path d="M3710 4105 l0 -485 25 0 25 0 0 485 0 485 -25 0 -25 0 0 -485z"/>
<path d="M3570 4099 l0 -480 23 3 22 3 3 478 2 477 -25 0 -25 0 0 -481z"/>
<path d="M14690 4119 l0 -500 23 3 22 3 3 498 2 497 -25 0 -25 0 0 -501z"/>
<path d="M14840 4135 l0 -485 25 0 25 0 0 485 0 485 -25 0 -25 0 0 -485z"/>
<path d="M14590 4104 l0 -485 23 3 22 3 3 483 2 482 -25 0 -25 0 0 -486z"/>
<path d="M14442 4103 l3 -478 23 -3 22 -3 0 480 0 481 -25 0 -25 0 2 -477z"/>
<path d="M8280 4100 l0 -370 25 0 25 0 0 370 0 370 -25 0 -25 0 0 -370z"/>
<path d="M9127 4463 c-4 -3 -7 -195 -7 -425 l0 -418 25 0 25 0 0 425 c0 405
-1 425 -18 425 -10 0 -22 -3 -25 -7z"/>
<path d="M5940 4101 l0 -391 25 0 25 0 -2 388 -3 387 -22 3 -23 3 0 -390z"/>
<path d="M6180 4124 l0 -365 23 3 22 3 3 363 2 362 -25 0 -25 0 0 -366z"/>
<path d="M6640 4110 l0 -370 25 0 25 0 0 370 0 370 -25 0 -25 0 0 -370z"/>
<path d="M6780 4110 l0 -370 25 0 25 0 0 370 0 370 -25 0 -25 0 0 -370z"/>
<path d="M1890 3085 l0 -375 25 0 25 0 0 375 0 375 -25 0 -25 0 0 -375z"/>
<path d="M1600 3080 l0 -360 25 0 25 0 0 360 0 360 -25 0 -25 0 0 -360z"/>
<path d="M1420 3070 l0 -360 25 0 25 0 0 360 0 360 -25 0 -25 0 0 -360z"/>
<path d="M1290 3046 l0 -366 25 0 25 0 -2 363 -3 362 -22 3 -23 3 0 -365z"/>
<path d="M12770 3086 l0 -376 25 0 25 0 -2 373 -3 372 -22 3 -23 3 0 -375z"/>
<path d="M12480 3080 l0 -360 25 0 25 0 0 360 0 360 -25 0 -25 0 0 -360z"/>
<path d="M12300 3070 l0 -360 25 0 25 0 0 360 0 360 -25 0 -25 0 0 -360z"/>
<path d="M12160 3045 l0 -365 25 0 25 0 0 365 0 365 -25 0 -25 0 0 -365z"/>
<path d="M6760 925 l0 -485 25 0 25 0 0 485 0 485 -25 0 -25 0 0 -485z"/>
<path d="M6890 946 l0 -466 25 0 25 0 -2 463 -3 462 -22 3 -23 3 0 -465z"/>
<path d="M5557 1333 c-4 -3 -7 -199 -7 -435 l0 -428 25 0 25 0 0 435 c0 415
-1 435 -18 435 -10 0 -22 -3 -25 -7z"/>
<path d="M8260 905 l0 -485 25 0 25 0 0 485 0 485 -25 0 -25 0 0 -485z"/>
<path d="M8100 910 l0 -460 25 0 25 0 0 460 0 460 -25 0 -25 0 0 -460z"/>
<path d="M9130 840 l0 -490 25 0 25 0 0 490 0 490 -25 0 -25 0 0 -490z"/>
<path d="M9410 825 l0 -485 25 0 25 0 0 485 0 485 -25 0 -25 0 0 -485z"/>
<path d="M5430 11779 l0 -390 23 3 22 3 3 388 2 387 -25 0 -25 0 0 -391z"/>
<path d="M5552 11758 l3 -413 23 -3 22 -3 0 415 0 416 -25 0 -25 0 2 -412z"/>
<path d="M6050 11745 l0 -425 25 0 25 0 0 425 0 425 -25 0 -25 0 0 -425z"/>
<path d="M6350 11745 l0 -425 25 0 25 0 0 425 0 425 -25 0 -25 0 0 -425z"/>
<path d="M6760 11745 l0 -425 25 0 25 0 0 425 0 425 -25 0 -25 0 0 -425z"/>
<path d="M6890 11765 l0 -405 25 0 25 0 0 405 0 405 -25 0 -25 0 0 -405z"/>
<path d="M7020 11745 l0 -425 25 0 25 0 0 425 0 425 -25 0 -25 0 0 -425z"/>
<path d="M7220 11755 l0 -415 25 0 25 0 0 415 0 415 -25 0 -25 0 0 -415z"/>
<path d="M8100 11745 l0 -425 25 0 25 0 0 425 0 425 -25 0 -25 0 0 -425z"/>
<path d="M8260 11735 l0 -435 25 0 25 0 0 435 0 435 -25 0 -25 0 0 -435z"/>
<path d="M8410 11740 l0 -430 25 0 25 0 0 430 0 430 -25 0 -25 0 0 -430z"/>
<path d="M8710 11705 l0 -465 25 0 25 0 0 465 0 465 -25 0 -25 0 0 -465z"/>
<path d="M9030 11700 l0 -470 25 0 25 0 0 470 0 470 -25 0 -25 0 0 -470z"/>
<path d="M9130 11700 l0 -470 25 0 25 0 0 470 0 470 -25 0 -25 0 0 -470z"/>
<path d="M9280 11700 l0 -470 25 0 25 0 0 470 0 470 -25 0 -25 0 0 -470z"/>
<path d="M9410 11695 l0 -475 25 0 25 0 0 475 0 475 -25 0 -25 0 0 -475z"/>
<path d="M9710 11715 l0 -455 25 0 25 0 0 455 0 455 -25 0 -25 0 0 -455z"/>
<path d="M9870 11700 l0 -470 25 0 25 0 0 470 0 470 -25 0 -25 0 0 -470z"/>
<path d="M10140 11689 l0 -480 23 3 22 3 3 478 2 477 -25 0 -25 0 0 -481z"/>
<path d="M10270 11700 l0 -470 25 0 25 0 0 470 0 470 -25 0 -25 0 0 -470z"/>
<path d="M10400 11705 l0 -465 25 0 25 0 0 465 0 465 -25 0 -25 0 0 -465z"/>
<path d="M10740 11705 l0 -465 25 0 25 0 0 465 0 465 -25 0 -25 0 0 -465z"/>
<path d="M11120 11715 l0 -455 25 0 25 0 0 455 0 455 -25 0 -25 0 0 -455z"/>
<path d="M11372 11733 l3 -438 23 -3 22 -3 0 440 0 441 -25 0 -25 0 2 -437z"/>
<path d="M11850 11699 l0 -470 23 3 22 3 3 468 2 467 -25 0 -25 0 0 -471z"/>
<path d="M12090 11730 l0 -440 25 0 25 0 0 440 0 440 -25 0 -25 0 0 -440z"/>
<path d="M12222 11718 l3 -453 25 0 25 0 3 453 2 452 -30 0 -30 0 2 -452z"/>
<path d="M12400 11720 l0 -450 25 0 25 0 0 450 0 450 -25 0 -25 0 0 -450z"/>
<path d="M12690 11715 l0 -455 25 0 25 0 0 455 0 455 -25 0 -25 0 0 -455z"/>
<path d="M12830 11715 c0 -448 0 -455 20 -455 20 0 20 7 20 455 0 448 0 455
-20 455 -20 0 -20 -7 -20 -455z"/>
<path d="M12980 11729 l0 -440 23 3 22 3 3 438 2 437 -25 0 -25 0 0 -441z"/>
<path d="M13920 11735 l0 -435 25 0 25 0 0 435 0 435 -25 0 -25 0 0 -435z"/>
<path d="M14050 11730 l0 -440 25 0 25 0 0 440 0 440 -25 0 -25 0 0 -440z"/>
<path d="M14250 11735 l0 -435 25 0 25 0 0 435 0 435 -25 0 -25 0 0 -435z"/>
<path d="M14580 11740 l0 -430 25 0 25 0 0 430 0 430 -25 0 -25 0 0 -430z"/>
<path d="M14820 11735 l0 -435 25 0 25 0 0 435 0 435 -25 0 -25 0 0 -435z"/>
<path d="M14950 11730 l0 -440 25 0 25 0 0 440 0 440 -25 0 -25 0 0 -440z"/>
<path d="M15150 11735 l0 -435 25 0 25 0 0 435 0 435 -25 0 -25 0 0 -435z"/>
<path d="M15480 11740 l0 -430 25 0 25 0 0 430 0 430 -25 0 -25 0 0 -430z"/>
<path d="M15850 11775 l0 -395 25 0 25 0 0 395 0 395 -25 0 -25 0 0 -395z"/>
<path d="M15960 11740 l0 -430 25 0 25 0 0 430 0 430 -25 0 -25 0 0 -430z"/>
<path d="M16300 11780 l0 -390 25 0 25 0 0 390 0 390 -25 0 -25 0 0 -390z"/>
<path d="M16430 11755 l0 -415 25 0 25 0 0 415 0 415 -25 0 -25 0 0 -415z"/>
<path d="M16920 11745 l0 -425 25 0 25 0 0 425 0 425 -25 0 -25 0 0 -425z"/>
<path d="M17230 11745 l0 -425 25 0 25 0 0 425 0 425 -25 0 -25 0 0 -425z"/>
<path d="M17640 11745 l0 -425 25 0 25 0 0 425 0 425 -25 0 -25 0 0 -425z"/>
<path d="M17760 11765 l0 -405 25 0 25 0 0 405 0 405 -25 0 -25 0 0 -405z"/>
<path d="M17900 11745 l0 -425 25 0 25 0 0 425 0 425 -25 0 -25 0 0 -425z"/>
<path d="M18090 11755 c0 -270 3 -415 10 -415 7 0 10 145 10 415 0 270 -3 415
-10 415 -7 0 -10 -145 -10 -415z"/>
<path d="M2322 11738 l3 -423 23 -3 22 -3 0 425 0 426 -25 0 -25 0 2 -422z"/>
<path d="M2620 11740 l0 -420 25 0 25 0 0 420 0 420 -25 0 -25 0 0 -420z"/>
<path d="M13200 11735 l0 -425 25 0 25 0 0 425 0 425 -25 0 -25 0 0 -425z"/>
<path d="M13500 11740 l0 -420 25 0 25 0 0 420 0 420 -25 0 -25 0 0 -420z"/>
<path d="M102 11223 l-102 -4 0 -51 0 -51 157 6 c87 4 247 7 356 7 l197 0 0
50 0 50 -252 -2 c-139 -1 -299 -4 -356 -5z"/>
<path d="M1540 10730 l0 -400 25 0 25 0 0 400 0 400 -25 0 -25 0 0 -400z"/>
<path d="M12420 10731 l0 -401 25 0 25 0 -2 398 -3 397 -22 3 -23 3 0 -400z"/>
<path d="M4060 10780 l0 -340 25 0 25 0 0 340 0 340 -25 0 -25 0 0 -340z"/>
<path d="M14932 10783 l3 -338 23 -3 22 -3 0 340 0 341 -25 0 -25 0 2 -337z"/>
<path d="M3940 10765 l0 -345 25 0 25 0 0 345 0 345 -25 0 -25 0 0 -345z"/>
<path d="M14820 10764 l0 -345 23 3 22 3 3 343 2 342 -25 0 -25 0 0 -346z"/>
<path d="M3802 10758 l3 -343 23 -3 22 -3 0 345 0 346 -25 0 -25 0 2 -342z"/>
<path d="M14680 10754 l0 -345 23 3 22 3 3 343 2 342 -25 0 -25 0 0 -346z"/>
<path d="M3677 11053 c-4 -3 -7 -154 -7 -335 l0 -328 25 0 25 0 0 335 c0 318
-1 335 -18 335 -10 0 -22 -3 -25 -7z"/>
<path d="M14550 10725 l0 -335 25 0 25 0 0 335 0 335 -25 0 -25 0 0 -335z"/>
<path d="M2990 10714 l0 -335 23 3 22 3 3 333 2 332 -25 0 -25 0 0 -336z"/>
<path d="M13862 10718 l3 -333 23 -3 22 -3 0 335 0 336 -25 0 -25 0 2 -332z"/>
<path d="M850 10665 l0 -365 25 0 25 0 0 365 0 365 -25 0 -25 0 0 -365z"/>
<path d="M11730 10665 l0 -365 25 0 25 0 0 365 0 365 -25 0 -25 0 0 -365z"/>
<path d="M5920 9745 l0 -665 25 0 25 0 0 665 0 665 -25 0 -25 0 0 -665z"/>
<path d="M6200 9734 l0 -675 23 3 22 3 3 673 2 672 -25 0 -25 0 0 -676z"/>
<path d="M4880 9714 l0 -635 23 3 22 3 3 633 2 632 -25 0 -25 0 0 -636z"/>
<path d="M5380 9735 l0 -615 25 0 25 0 0 615 0 615 -25 0 -25 0 0 -615z"/>
<path d="M5710 9715 l0 -635 25 0 25 0 0 635 0 635 -25 0 -25 0 0 -635z"/>
<path d="M4680 9725 l0 -615 25 0 25 0 0 615 0 615 -25 0 -25 0 0 -615z"/>
<path d="M5510 9725 l0 -615 25 0 25 0 0 615 0 615 -25 0 -25 0 0 -615z"/>
<path d="M2770 9655 l0 -555 25 0 25 0 0 555 0 555 -25 0 -25 0 0 -555z"/>
<path d="M2880 9690 l0 -500 25 0 25 0 0 500 0 500 -25 0 -25 0 0 -500z"/>
<path d="M3140 9696 l0 -496 25 0 25 0 -2 493 -3 492 -22 3 -23 3 0 -495z"/>
<path d="M2470 9660 l0 -500 25 0 25 0 0 500 0 500 -25 0 -25 0 0 -500z"/>
<path d="M1190 9640 l0 -511 23 3 22 3 0 505 0 505 -22 3 -23 3 0 -511z"/>
<path d="M3000 9645 l0 -495 25 0 25 0 0 495 0 495 -25 0 -25 0 0 -495z"/>
<path d="M0 9665 c0 -303 3 -465 10 -465 7 0 10 162 10 465 0 303 -3 465 -10
465 -7 0 -10 -162 -10 -465z"/>
<path d="M2640 9630 l0 -500 25 0 25 0 0 500 0 500 -25 0 -25 0 0 -500z"/>
<path d="M1370 9619 l0 -490 23 3 22 3 3 488 2 487 -25 0 -25 0 0 -491z"/>
<path d="M2000 9635 l0 -465 25 0 25 0 0 465 0 465 -25 0 -25 0 0 -465z"/>
<path d="M1750 9615 l0 -455 25 0 25 0 0 455 0 455 -25 0 -25 0 0 -455z"/>
<path d="M210 8605 l0 -375 25 0 25 0 0 375 0 375 -25 0 -25 0 0 -375z"/>
<path d="M690 8549 l0 -370 23 3 22 3 3 368 2 367 -25 0 -25 0 0 -371z"/>
<path d="M250 7486 l0 -606 25 0 25 0 -2 603 -3 602 -22 3 -23 3 0 -605z"/>
<path d="M970 7440 l0 -590 25 0 25 0 0 590 0 590 -25 0 -25 0 0 -590z"/>
<path d="M1210 7465 l0 -565 25 0 25 0 0 565 0 565 -25 0 -25 0 0 -565z"/>
<path d="M18030 6370 l0 -540 25 0 25 0 0 540 0 540 -25 0 -25 0 0 -540z"/>
<path d="M570 5290 l0 -590 25 0 25 0 0 590 0 590 -25 0 -25 0 0 -590z"/>
<path d="M1820 5256 l0 -546 25 0 25 0 -2 543 -3 542 -22 3 -23 3 0 -545z"/>
<path d="M2545 5698 c-3 -7 -4 -231 -3 -498 l3 -485 25 0 25 0 0 495 0 495
-23 3 c-12 2 -24 -3 -27 -10z"/>
<path d="M2710 5180 l0 -500 25 0 25 0 0 500 0 500 -25 0 -25 0 0 -500z"/>
<path d="M1797 4574 c-4 -4 -7 -225 -7 -491 l0 -483 25 0 25 0 -2 487 c-3 431
-5 488 -18 491 -9 1 -19 0 -23 -4z"/>
<path d="M16810 4100 l0 -390 25 0 25 0 0 390 0 390 -25 0 -25 0 0 -390z"/>
<path d="M17052 4128 l3 -363 23 -3 22 -3 0 365 0 366 -25 0 -25 0 2 -362z"/>
<path d="M17510 4110 l0 -370 25 0 25 0 0 370 0 370 -25 0 -25 0 0 -370z"/>
<path d="M17660 4110 l0 -370 25 0 25 0 0 370 0 370 -25 0 -25 0 0 -370z"/>
<path d="M17960 3060 c0 -431 -3 -552 -12 -555 -7 -2 -276 -8 -598 -12 l-585
-8 -3 -42 c-2 -24 -7 -43 -13 -43 -5 0 -9 -180 -9 -464 l0 -463 -87 -6 c-49
-4 -180 -9 -293 -13 -184 -5 -226 -3 -410 20 -372 46 -504 56 -763 56 l-250 0
7 -77 c3 -42 6 -291 6 -555 l0 -478 25 0 25 0 0 505 0 505 75 0 75 0 0 -500 0
-500 25 0 25 0 0 500 0 501 138 -3 137 -3 3 -498 2 -497 25 0 25 0 0 496 0
496 68 -8 c37 -4 108 -12 157 -18 l90 -11 3 -442 2 -443 25 0 25 0 0 440 0
441 48 -7 c26 -3 72 -9 102 -12 l55 -7 0 -475 0 -475 -125 -7 c-69 -3 -271
-11 -450 -18 -179 -6 -397 -15 -485 -20 -88 -5 -324 -19 -525 -31 -433 -25
-892 -29 -1285 -11 -600 27 -738 33 -740 30 -2 -2 -5 -23 -7 -48 l-3 -45 48
-3 47 -3 0 -125 0 -124 25 0 25 0 0 120 0 120 65 0 65 0 0 -120 0 -120 25 0
25 0 0 118 0 117 162 -5 163 -5 3 -112 c3 -113 3 -113 27 -113 l25 0 0 110 0
110 78 0 c128 0 122 5 122 -116 l0 -104 25 0 25 0 0 103 0 103 210 -4 c211 -5
536 7 970 33 129 8 253 15 275 15 l40 0 -3 -125 -3 -125 25 0 26 0 0 124 c0
90 -3 126 -12 129 -7 3 23 6 67 6 44 1 104 4 133 7 l52 7 0 -137 0 -136 25 0
25 0 0 134 0 133 83 6 c45 4 99 7 120 7 l37 0 0 -140 0 -140 25 0 25 0 0 140
c0 126 2 140 18 141 9 1 92 4 185 8 l167 6 0 -147 0 -148 25 0 25 0 0 145 c0
108 3 147 13 150 6 2 213 6 460 7 l447 4 0 -153 0 -153 25 0 25 0 0 154 0 153
90 7 c49 4 94 5 100 1 6 -4 10 -66 10 -161 l0 -154 25 0 25 0 0 160 0 160 40
0 40 0 0 -160 0 -160 25 0 25 0 0 160 c0 149 1 160 19 160 10 0 39 3 65 6 l46
7 0 -167 0 -166 25 0 25 0 0 165 0 165 45 0 45 0 0 -165 0 -165 25 0 25 0 0
165 0 165 50 0 50 0 0 -165 0 -165 25 0 25 0 0 165 0 165 40 0 40 0 0 -165 0
-165 25 0 25 0 0 165 0 165 50 0 50 0 0 -165 0 -165 25 0 25 0 0 165 c0 140 2
165 15 165 11 0 15 12 15 50 l0 50 -312 0 c-172 -1 -430 -5 -573 -10 -143 -6
-441 -13 -662 -16 l-403 -6 0 476 0 476 70 0 70 0 0 -415 0 -415 25 0 25 0 0
414 0 415 53 5 c28 3 115 8 192 11 77 3 182 8 232 12 l93 6 2 -469 3 -469 23
-3 22 -3 0 470 c0 258 4 472 8 475 4 2 63 8 130 12 l122 7 0 -482 0 -481 25 0
25 0 0 485 c0 381 3 485 13 485 6 0 102 6 212 14 110 8 244 18 298 21 l97 7 0
-507 0 -506 23 3 22 3 3 502 2 503 48 0 c26 0 57 3 70 6 l22 6 0 -501 c0 -327
3 -501 10 -501 7 0 10 190 10 549 l0 549 -107 -4 c-60 -3 -136 -6 -170 -8
l-63 -4 0 399 0 399 -25 0 -25 0 0 -400 0 -400 -45 0 -45 0 0 395 0 395 -25 0
-25 0 0 -399 0 -399 -45 -4 -45 -3 0 402 0 403 -25 0 -25 0 0 -399 c0 -372 1
-400 18 -403 9 -2 -59 -10 -153 -16 -93 -7 -194 -15 -222 -18 l-53 -6 0 451 0
451 45 0 45 0 0 -435 0 -435 25 0 25 0 0 433 0 434 203 6 c111 4 285 7 387 7
102 0 222 3 268 7 l82 6 0 48 0 49 -50 0 -50 0 -2 548 -3 547 -22 3 -23 3 0
-551z m-980 -1120 c0 -247 -1 -450 -2 -451 -2 0 -45 -4 -96 -7 l-92 -7 0 458
0 457 95 0 95 0 0 -450z"/>
<path d="M7810 3105 l0 -495 25 0 25 0 0 495 0 495 -25 0 -25 0 0 -495z"/>
<path d="M7220 3080 l0 -490 25 0 25 0 0 490 0 490 -25 0 -25 0 0 -490z"/>
<path d="M18090 3080 c0 -320 3 -490 10 -490 7 0 10 170 10 490 0 320 -3 490
-10 490 -7 0 -10 -170 -10 -490z"/>
<path d="M7370 3055 l0 -495 25 0 25 0 0 495 0 495 -25 0 -25 0 0 -495z"/>
<path d="M5257 3533 c-4 -3 -7 -235 -7 -515 l0 -508 25 0 25 0 0 515 c0 493
-1 515 -18 515 -10 0 -22 -3 -25 -7z"/>
<path d="M5500 3044 l0 -495 23 3 22 3 3 493 2 492 -25 0 -25 0 0 -496z"/>
<path d="M16130 3025 l0 -515 25 0 25 0 0 515 0 515 -25 0 -25 0 0 -515z"/>
<path d="M16375 3528 c-3 -7 -4 -229 -3 -493 l3 -480 23 -3 22 -3 0 495 c0
492 0 496 -20 496 -11 0 -23 -6 -25 -12z"/>
<path d="M6970 3025 l0 -495 25 0 25 0 0 495 0 495 -25 0 -25 0 0 -495z"/>
<path d="M17850 3025 l0 -495 25 0 25 0 0 495 0 495 -25 0 -25 0 0 -495z"/>
<path d="M5630 2994 l0 -495 23 3 22 3 3 493 2 492 -25 0 -25 0 0 -496z"/>
<path d="M8790 3060 l0 -430 25 0 25 0 0 430 0 430 -25 0 -25 0 0 -430z"/>
<path d="M16502 2998 l3 -493 23 -3 22 -3 0 495 0 496 -25 0 -25 0 2 -492z"/>
<path d="M4020 3024 l0 -455 23 3 22 3 3 453 2 452 -25 0 -25 0 0 -456z"/>
<path d="M14892 3028 l3 -453 23 -3 22 -3 0 455 0 456 -25 0 -25 0 2 -452z"/>
<path d="M4150 3020 l0 -450 25 0 25 0 0 450 0 450 -25 0 -25 0 0 -450z"/>
<path d="M15025 3458 c-3 -7 -4 -209 -3 -448 l3 -435 23 -3 22 -3 0 450 c0
447 0 451 -20 451 -11 0 -23 -6 -25 -12z"/>
<path d="M3450 3010 l0 -430 25 0 25 0 0 430 0 430 -25 0 -25 0 0 -430z"/>
<path d="M4350 3010 l0 -430 25 0 25 0 0 430 0 430 -25 0 -25 0 0 -430z"/>
<path d="M14320 3010 l0 -430 25 0 25 0 0 430 0 430 -25 0 -25 0 0 -430z"/>
<path d="M15220 3010 l0 -430 25 0 25 0 0 430 0 430 -25 0 -25 0 0 -430z"/>
<path d="M3775 3407 c-3 -6 -4 -194 -3 -417 l3 -405 23 -3 22 -3 0 420 c0 416
0 421 -20 421 -11 0 -23 -6 -25 -13z"/>
<path d="M4675 3407 c-3 -6 -4 -194 -3 -417 l3 -405 23 -3 22 -3 0 420 c0 416
0 421 -20 421 -11 0 -23 -6 -25 -13z"/>
<path d="M14650 3000 l0 -420 25 0 25 0 0 420 0 420 -25 0 -25 0 0 -420z"/>
<path d="M15550 3000 l0 -420 25 0 25 0 0 420 0 420 -25 0 -25 0 0 -420z"/>
<path d="M320 3060 l0 -350 25 0 25 0 0 350 0 350 -25 0 -25 0 0 -350z"/>
<path d="M11195 3397 c-3 -6 -4 -163 -3 -347 l3 -335 23 -3 22 -3 0 350 c0
346 0 351 -20 351 -11 0 -23 -6 -25 -13z"/>
<path d="M9950 3005 l0 -385 25 0 25 0 0 385 0 385 -25 0 -25 0 0 -385z"/>
<path d="M10210 2995 l0 -385 25 0 25 0 0 385 0 385 -25 0 -25 0 0 -385z"/>
<path d="M10820 3064 l0 -315 23 3 22 3 3 313 2 312 -25 0 -25 0 0 -316z"/>
<path d="M10350 2995 l0 -375 25 0 25 0 0 375 0 375 -25 0 -25 0 0 -375z"/>
<path d="M10477 3363 c-4 -3 -7 -170 -7 -370 l0 -363 25 0 25 0 0 370 c0 352
-1 370 -18 370 -10 0 -22 -3 -25 -7z"/>
<path d="M2100 2070 l0 -430 25 0 25 0 0 430 0 430 -25 0 -25 0 0 -430z"/>
<path d="M12970 2070 l0 -430 25 0 25 0 0 430 0 430 -25 0 -25 0 0 -430z"/>
<path d="M70 2020 l0 -470 25 0 25 0 0 470 0 470 -25 0 -25 0 0 -470z"/>
<path d="M210 2030 l0 -460 25 0 25 0 0 460 0 460 -25 0 -25 0 0 -460z"/>
<path d="M375 2478 c-3 -7 -4 -220 -3 -473 l3 -460 23 -3 22 -3 0 475 c0 472
0 476 -20 476 -11 0 -23 -6 -25 -12z"/>
<path d="M850 2075 l0 -415 25 0 25 0 0 415 0 415 -25 0 -25 0 0 -415z"/>
<path d="M10950 2020 l0 -470 25 0 25 0 0 470 0 470 -25 0 -25 0 0 -470z"/>
<path d="M11090 2030 l0 -460 25 0 25 0 0 460 0 460 -25 0 -25 0 0 -460z"/>
<path d="M11250 2015 l0 -475 25 0 25 0 0 475 0 475 -25 0 -25 0 0 -475z"/>
<path d="M11727 2483 c-4 -3 -7 -190 -7 -415 l0 -408 25 0 25 0 0 415 c0 396
-1 415 -18 415 -10 0 -22 -3 -25 -7z"/>
<path d="M1110 2065 l0 -415 25 0 25 0 0 415 0 415 -25 0 -25 0 0 -415z"/>
<path d="M1540 2035 l0 -445 25 0 25 0 0 445 0 445 -25 0 -25 0 0 -445z"/>
<path d="M1720 2050 l0 -430 25 0 25 0 0 430 0 430 -25 0 -25 0 0 -430z"/>
<path d="M10567 2473 c-4 -3 -7 -224 -7 -490 l0 -483 25 0 25 0 0 490 c0 468
-1 490 -18 490 -10 0 -22 -3 -25 -7z"/>
<path d="M10825 2468 c-3 -7 -4 -218 -3 -468 l3 -455 23 -3 22 -3 0 470 c0
467 0 471 -20 471 -11 0 -23 -6 -25 -12z"/>
<path d="M11990 2065 l0 -415 25 0 25 0 0 415 0 415 -25 0 -25 0 0 -415z"/>
<path d="M12410 2035 l0 -445 25 0 25 0 0 445 0 445 -25 0 -25 0 0 -445z"/>
<path d="M12590 2050 l0 -430 25 0 25 0 0 430 0 430 -25 0 -25 0 0 -430z"/>
<path d="M1250 2095 l0 -375 25 0 25 0 0 375 0 375 -25 0 -25 0 0 -375z"/>
<path d="M1375 2457 c-3 -6 -4 -199 -3 -427 l3 -415 23 -3 22 -3 0 430 c0 427
0 431 -20 431 -11 0 -23 -6 -25 -13z"/>
<path d="M12130 2096 l0 -376 25 0 25 0 -2 373 -3 372 -22 3 -23 3 0 -375z"/>
<path d="M12250 2040 l0 -430 25 0 25 0 0 430 0 430 -25 0 -25 0 0 -430z"/>
<path d="M690 2065 l0 -365 25 0 25 0 0 365 0 365 -25 0 -25 0 0 -365z"/>
<path d="M8610 2005 l0 -425 25 0 25 0 0 425 0 425 -25 0 -25 0 0 -425z"/>
<path d="M9050 1945 l0 -485 25 0 25 0 0 485 0 485 -25 0 -25 0 0 -485z"/>
<path d="M11560 2065 l0 -365 25 0 25 0 0 365 0 365 -25 0 -25 0 0 -365z"/>
<path d="M3370 1965 l0 -445 25 0 25 0 0 445 0 445 -25 0 -25 0 0 -445z"/>
<path d="M3897 2403 c-4 -3 -7 -183 -7 -400 l0 -393 25 0 25 0 0 400 c0 381
-1 400 -18 400 -10 0 -22 -3 -25 -7z"/>
<path d="M14250 1965 l0 -445 25 0 25 0 0 445 0 445 -25 0 -25 0 0 -445z"/>
<path d="M14770 2011 l0 -401 25 0 25 0 -2 398 -3 397 -22 3 -23 3 0 -400z"/>
<path d="M2350 2030 l0 -370 25 0 25 0 0 370 0 370 -25 0 -25 0 0 -370z"/>
<path d="M7595 2388 c-3 -7 -4 -191 -3 -408 l3 -395 25 0 25 0 0 405 0 405
-23 3 c-12 2 -24 -3 -27 -10z"/>
<path d="M7810 1981 l0 -421 25 0 25 0 -2 418 -3 417 -22 3 -23 3 0 -420z"/>
<path d="M13230 2030 l0 -371 23 3 22 3 0 365 0 365 -22 3 -23 3 0 -371z"/>
<path d="M2820 1940 l0 -450 25 0 25 0 0 450 0 450 -25 0 -25 0 0 -450z"/>
<path d="M3060 1940 l0 -450 25 0 25 0 0 450 0 450 -25 0 -25 0 0 -450z"/>
<path d="M13700 1939 l0 -450 23 3 22 3 3 448 2 447 -25 0 -25 0 0 -451z"/>
<path d="M13940 1940 l0 -450 25 0 25 0 0 450 0 450 -25 0 -25 0 0 -450z"/>
<path d="M3640 1949 l0 -430 23 3 22 3 3 428 2 427 -25 0 -25 0 0 -431z"/>
<path d="M14512 1953 l3 -428 23 -3 22 -3 0 430 0 431 -25 0 -25 0 2 -427z"/>
<path d="M3497 2363 c-4 -3 -7 -192 -7 -420 l0 -413 25 0 25 0 0 420 c0 401
-1 420 -18 420 -10 0 -22 -3 -25 -7z"/>
<path d="M5230 1935 l0 -436 23 3 22 3 0 430 0 430 -22 3 -23 3 0 -436z"/>
<path d="M6420 1980 l0 -390 25 0 25 0 0 390 0 390 -25 0 -25 0 0 -390z"/>
<path d="M14370 1950 l0 -420 25 0 25 0 0 420 0 420 -25 0 -25 0 0 -420z"/>
<path d="M16100 1935 l0 -435 25 0 25 0 0 435 0 435 -25 0 -25 0 0 -435z"/>
<path d="M17300 1979 l0 -390 23 3 22 3 3 388 2 387 -25 0 -25 0 0 -391z"/>
<path d="M6990 1955 l0 -395 25 0 25 0 0 395 0 395 -25 0 -25 0 0 -395z"/>
<path d="M7300 1986 l0 -366 25 0 25 0 -2 363 -3 362 -22 3 -23 3 0 -365z"/>
<path d="M17870 1955 l0 -395 25 0 25 0 0 395 0 395 -25 0 -25 0 0 -395z"/>
<path d="M5550 1925 l0 -415 25 0 25 0 0 415 0 415 -25 0 -25 0 0 -415z"/>
<path d="M16430 1925 l0 -415 25 0 25 0 0 415 0 415 -25 0 -25 0 0 -415z"/>
<path d="M3750 1980 l0 -350 25 0 25 0 0 350 0 350 -25 0 -25 0 0 -350z"/>
<path d="M14630 1980 l0 -350 25 0 25 0 0 350 0 350 -25 0 -25 0 0 -350z"/>
<path d="M720 1523 c-136 -7 -343 -25 -430 -38 -52 -8 -139 -17 -192 -21 l-98
-7 0 -50 0 -50 103 7 c56 4 111 8 122 9 20 2 20 -5 23 -490 l2 -493 25 0 25 0
0 499 0 499 68 6 c37 4 82 10 100 13 l32 5 0 -501 0 -501 25 0 25 0 0 499 0
499 28 6 c42 11 930 20 1095 11 l147 -7 0 -520 0 -519 23 3 22 3 3 519 c2 466
4 517 18 512 9 -3 27 -6 40 -6 l24 0 0 -515 0 -515 25 0 25 0 0 516 0 517 38
-7 c20 -3 43 -6 50 -6 9 0 12 -105 12 -490 l0 -490 25 0 25 0 0 490 0 491 32
-5 c18 -3 65 -8 103 -11 39 -3 183 -19 320 -36 138 -16 291 -33 340 -37 l90
-7 3 -442 2 -443 25 0 25 0 0 440 0 440 40 0 40 0 0 -440 0 -440 25 0 25 0 0
435 c0 339 3 437 13 440 6 3 40 9 75 13 l62 9 0 -444 0 -443 30 0 30 0 0 449
0 448 113 22 c61 12 122 24 135 26 l22 5 0 -475 0 -475 25 0 25 0 0 475 c0
398 -2 475 -14 475 -14 0 -26 29 -26 67 0 12 -4 24 -9 27 -5 3 -92 -10 -193
-29 -297 -58 -381 -57 -898 5 -506 61 -859 80 -1420 78 -228 -1 -440 -3 -470
-5z"/>
<path d="M3940 930 l0 -510 25 0 25 0 0 510 0 510 -25 0 -25 0 0 -510z"/>
<path d="M14820 930 l0 -510 25 0 25 0 0 510 0 510 -25 0 -25 0 0 -510z"/>
<path d="M1530 901 l0 -511 25 0 25 0 -2 508 -3 507 -22 3 -23 3 0 -510z"/>
<path d="M12405 1398 c-3 -7 -4 -236 -3 -508 l3 -495 23 -3 22 -3 0 510 c0
507 0 511 -20 511 -11 0 -23 -6 -25 -12z"/>
<path d="M17640 925 l0 -485 25 0 25 0 0 485 0 485 -25 0 -25 0 0 -485z"/>
<path d="M17760 945 l0 -465 25 0 25 0 0 465 0 465 -25 0 -25 0 0 -465z"/>
<path d="M1350 885 l0 -505 25 0 25 0 0 505 0 505 -25 0 -25 0 0 -505z"/>
<path d="M12225 1378 c-3 -7 -4 -233 -3 -503 l3 -490 25 0 25 0 0 500 0 500
-23 3 c-12 2 -24 -3 -27 -10z"/>
<path d="M970 865 l0 -505 25 0 25 0 0 505 0 505 -25 0 -25 0 0 -505z"/>
<path d="M1210 890 l0 -480 25 0 25 0 0 480 0 480 -25 0 -25 0 0 -480z"/>
<path d="M11850 866 l0 -506 25 0 25 0 -2 503 -3 502 -22 3 -23 3 0 -505z"/>
<path d="M12090 890 l0 -480 25 0 25 0 0 480 0 480 -25 0 -25 0 0 -480z"/>
<path d="M16430 905 l0 -435 25 0 25 0 0 435 0 435 -25 0 -25 0 0 -435z"/>
<path d="M5080 875 l0 -435 25 0 25 0 0 435 0 435 -25 0 -25 0 0 -435z"/>
<path d="M15960 875 l0 -435 25 0 25 0 0 435 0 435 -25 0 -25 0 0 -435z"/>
<path d="M2320 860 l0 -420 25 0 25 0 0 420 0 420 -25 0 -25 0 0 -420z"/>
<path d="M2620 860 l0 -420 25 0 25 0 0 420 0 420 -25 0 -25 0 0 -420z"/>
<path d="M13200 860 l0 -420 25 0 25 0 0 420 0 420 -25 0 -25 0 0 -420z"/>
<path d="M13500 859 l0 -420 23 3 22 3 3 418 2 417 -25 0 -25 0 0 -421z"/>
<path d="M320 350 c-162 -4 -301 -8 -307 -9 -9 -1 -13 -18 -13 -49 l0 -48 263
3 c144 2 304 6 355 9 l92 6 0 49 0 49 -47 -2 c-27 -1 -181 -5 -343 -8z"/>
</g>
</svg>
