<?xml version="1.0" standalone="no"?>
<!DOCTYPE svg PUBLIC "-//W3C//DTD SVG 20010904//EN"
 "http://www.w3.org/TR/2001/REC-SVG-20010904/DTD/svg10.dtd">
<svg version="1.0" xmlns="http://www.w3.org/2000/svg"
 width="1811.000000pt" height="1217.000000pt" viewBox="0 0 1811.000000 1217.000000"
 preserveAspectRatio="xMidYMid meet">
<metadata>
Created by potrace 1.13, written by Peter Selinger 2001-2015
</metadata>
<g transform="translate(0.000000,1217.000000) scale(0.100000,-0.100000)"
fill="#000000" stroke="none">
<path d="M98 12143 c11 -16 65 -79 119 -142 139 -161 134 -154 193 -290 30
-67 60 -125 67 -128 7 -3 10 -9 7 -14 -7 -12 112 -239 183 -349 31 -47 76
-109 100 -138 43 -50 46 -52 64 -36 18 16 17 18 -25 68 -106 126 -215 319
-346 610 -65 144 -71 153 -195 297 -111 129 -132 149 -157 149 l-29 0 19 -27z"/>
<path d="M427 12156 c23 -40 537 -567 558 -572 14 -3 25 -12 25 -19 0 -7 42
-50 94 -94 99 -86 263 -264 359 -389 38 -50 98 -158 172 -307 130 -263 235
-447 318 -556 31 -42 125 -148 208 -235 349 -366 774 -837 975 -1079 188 -226
373 -480 458 -627 29 -50 33 -53 55 -39 20 13 9 35 -80 172 -235 360 -704 909
-1366 1601 -237 247 -299 340 -513 765 -141 281 -177 336 -356 535 -107 119
-270 268 -293 268 -6 0 -11 7 -11 14 0 8 -16 27 -35 41 -19 15 -143 141 -276
281 -209 220 -245 254 -271 254 -22 0 -27 -3 -21 -14z"/>
<path d="M760 12165 c0 -7 184 -228 298 -357 81 -92 87 -97 104 -81 15 14 16
19 5 32 -7 9 -49 57 -93 106 -43 50 -119 138 -168 198 -75 90 -93 107 -117
107 -16 0 -29 -2 -29 -5z"/>
<path d="M1123 12163 c207 -346 370 -583 401 -583 8 0 13 -6 12 -14 0 -7 56
-80 125 -162 156 -184 294 -367 407 -539 368 -561 436 -655 791 -1099 321
-400 578 -767 823 -1176 120 -200 153 -262 289 -558 186 -403 307 -597 606
-973 103 -130 270 -339 370 -465 100 -126 214 -264 254 -307 66 -72 73 -77 88
-62 19 18 21 14 -83 131 -78 89 -592 733 -759 952 -163 214 -311 477 -486 865
-102 224 -186 372 -404 712 -234 363 -366 547 -661 915 -341 426 -481 619
-705 968 -131 204 -246 366 -368 518 -120 150 -245 294 -255 294 -4 0 -8 4 -8
10 0 5 -29 47 -64 92 -76 100 -182 258 -261 391 -52 88 -60 97 -87 97 -16 0
-27 -3 -25 -7z"/>
<path d="M1497 12158 c6 -7 110 -140 232 -295 122 -156 228 -283 236 -283 8 0
12 -6 10 -12 -3 -7 28 -54 67 -104 40 -50 118 -152 173 -228 55 -76 169 -222
254 -324 210 -254 275 -343 403 -555 61 -100 188 -299 282 -442 240 -362 816
-1209 825 -1213 4 -1 14 3 23 10 15 12 -6 46 -187 313 -458 673 -787 1170
-893 1346 -126 210 -210 327 -410 566 -76 93 -180 224 -230 293 -153 209 -266
350 -280 350 -7 0 -11 4 -8 9 4 5 -94 137 -217 293 -206 263 -225 283 -257
286 -27 3 -32 1 -23 -10z"/>
<path d="M2061 12011 c132 -136 156 -157 171 -147 10 6 18 14 18 18 0 4 -61
70 -136 147 -124 128 -139 141 -171 141 -35 0 -35 0 118 -159z"/>
<path d="M2705 11878 c164 -161 304 -294 311 -296 8 -2 14 -10 14 -19 0 -8 28
-45 63 -81 162 -171 557 -625 723 -832 168 -210 208 -267 572 -812 492 -736
785 -1151 945 -1343 28 -33 54 -63 57 -68 4 -4 14 1 24 12 16 18 15 21 -37 82
-171 203 -446 594 -980 1394 -330 495 -371 553 -541 765 -241 300 -772 900
-796 900 -6 0 -9 4 -6 9 3 5 -125 137 -284 295 -273 268 -293 286 -327 286
-35 0 -31 -5 262 -292z"/>
<path d="M3260 12162 c0 -12 236 -355 327 -475 42 -55 84 -102 94 -104 10 -3
16 -10 13 -17 -2 -6 33 -52 79 -101 133 -144 204 -231 638 -781 192 -243 498
-531 864 -813 66 -51 158 -127 205 -169 46 -42 88 -76 92 -75 4 2 8 -3 8 -10
0 -7 37 -53 83 -103 46 -49 173 -190 282 -314 110 -124 283 -306 385 -404 634
-615 1143 -1141 1308 -1352 59 -75 71 -84 91 -60 13 16 -51 100 -238 311 -108
122 -757 777 -1135 1145 -93 91 -260 266 -370 390 -311 349 -379 421 -393 416
-8 -3 -13 2 -13 13 0 23 -121 134 -280 256 -392 302 -678 577 -910 875 -261
337 -460 579 -587 715 -96 103 -267 329 -398 527 -78 119 -94 137 -117 137
-16 1 -28 -3 -28 -7z"/>
<path d="M3682 12153 c9 -10 100 -121 204 -248 246 -301 267 -325 282 -325 6
0 12 -6 12 -14 0 -8 20 -36 44 -63 61 -68 180 -235 306 -431 321 -498 378
-572 560 -717 131 -104 211 -176 373 -334 59 -58 107 -101 108 -96 0 6 3 3 7
-6 4 -9 90 -104 192 -211 102 -106 352 -373 556 -593 457 -493 618 -652 639
-635 8 7 15 16 15 19 0 4 -82 90 -183 192 -101 101 -318 330 -483 509 -450
489 -705 752 -720 746 -9 -3 -14 2 -14 13 0 30 -294 307 -480 453 -130 101
-262 264 -412 507 -206 334 -428 642 -476 661 -7 3 -12 8 -10 11 2 3 -51 71
-117 150 -66 80 -172 209 -235 287 -107 131 -118 141 -149 142 -32 0 -33 -1
-19 -17z"/>
<path d="M4165 12023 c83 -82 213 -214 289 -295 77 -82 146 -148 153 -148 8 0
11 -5 8 -10 -4 -6 15 -34 41 -63 82 -90 115 -150 283 -512 83 -178 125 -238
245 -350 153 -142 356 -305 381 -305 4 0 13 -6 19 -14 6 -7 90 -65 186 -128
283 -185 378 -275 637 -603 227 -287 563 -770 748 -1075 230 -379 582 -849
953 -1273 89 -102 95 -107 113 -91 17 15 11 23 -111 165 -365 423 -698 871
-915 1229 -187 308 -512 775 -744 1069 -167 214 -284 343 -386 429 -102 86
-461 326 -474 317 -5 -3 -11 1 -13 8 -2 8 -48 48 -103 89 -55 42 -156 126
-224 188 -134 122 -183 188 -253 337 -187 401 -222 464 -306 554 -27 30 -101
110 -163 179 -63 69 -187 198 -277 287 -152 153 -164 163 -199 163 l-38 0 150
-147z"/>
<path d="M4561 12078 c178 -194 472 -488 495 -494 13 -3 24 -12 24 -19 0 -7
33 -44 73 -82 40 -37 149 -150 242 -250 93 -101 171 -181 173 -178 3 2 12 -9
21 -25 9 -16 56 -73 105 -127 177 -194 377 -441 796 -982 490 -632 999 -1197
1345 -1492 328 -279 525 -508 1455 -1689 250 -318 458 -570 470 -570 4 0 13 7
20 15 10 13 10 19 -2 33 -77 88 -262 316 -448 552 -939 1194 -1146 1432 -1495
1727 -353 297 -861 876 -1515 1724 -329 426 -706 869 -729 854 -6 -3 -11 2
-11 12 0 10 -78 102 -172 205 -179 192 -278 288 -297 288 -6 0 -11 5 -11 10 0
6 -55 64 -122 129 -68 65 -193 194 -278 285 -141 152 -157 166 -188 166 l-34
0 83 -92z"/>
<path d="M5767 12155 c3 -9 69 -67 147 -129 77 -62 152 -127 166 -144 23 -29
27 -30 44 -17 18 14 18 15 -9 50 -15 20 -79 78 -143 129 -65 51 -123 100 -131
109 -18 23 -83 24 -74 2z"/>
<path d="M6332 11988 c131 -146 222 -254 284 -337 2 -1 12 3 23 11 20 15 20
17 -42 96 -35 45 -131 156 -212 247 -137 152 -151 165 -182 165 -34 0 -34 0
129 -182z"/>
<path d="M6867 12020 c75 -82 140 -150 144 -150 3 0 12 7 19 15 11 13 8 21
-17 48 -16 18 -71 78 -123 135 -83 91 -96 102 -127 102 l-34 0 138 -150z"/>
<path d="M7120 12164 c0 -4 46 -57 103 -118 135 -145 202 -225 299 -357 44
-60 86 -109 93 -109 7 0 12 -6 11 -13 -1 -15 128 -220 243 -385 123 -176 215
-285 446 -526 505 -526 700 -736 900 -971 66 -77 275 -313 464 -525 623 -695
963 -1091 1132 -1315 41 -55 129 -181 195 -280 66 -99 220 -323 342 -497 237
-339 406 -590 454 -675 26 -46 32 -51 49 -43 10 6 19 14 19 19 0 25 -174 287
-484 731 -121 173 -274 396 -340 495 -245 368 -454 619 -1295 1560 -202 226
-436 490 -521 589 -193 225 -342 386 -740 801 -417 434 -485 515 -649 768
-104 161 -142 219 -168 253 -13 16 -55 74 -95 129 -94 131 -166 219 -294 360
-89 96 -110 115 -135 115 -16 0 -29 -3 -29 -6z"/>
<path d="M7585 12128 c123 -137 533 -548 546 -548 9 0 16 -6 15 -14 0 -8 65
-83 145 -168 152 -160 218 -246 439 -568 309 -453 507 -686 1119 -1319 401
-415 798 -789 1092 -1029 334 -272 760 -713 1248 -1291 85 -99 157 -181 161
-181 4 0 13 7 20 15 10 12 -11 43 -133 187 -477 568 -929 1035 -1262 1307
-376 307 -912 826 -1461 1416 -315 338 -502 570 -744 925 -74 107 -170 245
-214 305 -85 117 -360 415 -383 415 -8 0 -12 4 -9 8 3 5 -119 136 -271 293
-248 256 -279 284 -311 287 l-36 3 39 -43z"/>
<path d="M8313 11992 c78 -97 182 -230 231 -295 49 -64 95 -117 103 -117 8 0
11 -5 8 -10 -4 -6 25 -53 64 -105 39 -52 124 -184 190 -292 360 -602 498 -794
925 -1290 295 -344 775 -856 830 -885 13 -7 22 -6 32 4 12 12 -13 41 -169 198
-384 387 -905 991 -1158 1340 -80 110 -258 392 -424 670 -95 160 -241 370
-257 370 -4 0 -8 5 -8 11 0 12 -134 189 -319 422 -116 145 -128 157 -158 157
l-32 0 142 -178z"/>
<path d="M8570 12165 c0 -8 275 -419 339 -507 31 -43 62 -77 69 -78 6 0 12 -7
12 -15 0 -9 20 -37 43 -63 43 -46 217 -297 467 -672 68 -102 164 -239 214
-305 316 -421 838 -1044 1281 -1530 422 -463 800 -901 1003 -1162 53 -68 98
-123 101 -123 3 0 13 4 21 10 21 13 9 31 -147 226 -234 290 -534 636 -928
1069 -365 401 -719 816 -1046 1225 -226 284 -318 408 -486 660 -354 530 -463
680 -494 680 -6 0 -8 3 -5 8 2 4 -21 41 -52 83 -31 42 -120 171 -197 287 -125
190 -143 212 -167 212 -16 0 -28 -2 -28 -5z"/>
<path d="M9002 12161 c2 -5 62 -77 133 -161 121 -141 134 -160 188 -278 31
-70 63 -131 70 -137 8 -5 12 -15 10 -22 -3 -7 28 -72 68 -145 133 -246 246
-401 275 -377 20 17 17 33 -11 59 -41 39 -149 206 -216 335 -34 66 -69 128
-77 138 -8 9 -12 17 -8 17 3 0 -4 21 -18 48 -13 26 -41 88 -62 137 -33 78 -55
110 -168 243 -112 130 -135 152 -159 152 -16 0 -27 -4 -25 -9z"/>
<path d="M9366 12128 c277 -294 530 -548 545 -548 11 0 19 -6 19 -14 0 -8 30
-41 68 -73 120 -103 305 -303 404 -439 24 -34 103 -180 176 -325 128 -258 221
-419 305 -528 23 -30 131 -148 239 -263 715 -755 1157 -1278 1358 -1609 64
-105 66 -107 87 -87 15 15 12 23 -42 110 -224 362 -652 868 -1367 1621 -277
291 -344 388 -540 787 -148 299 -164 324 -369 556 -91 103 -267 264 -289 264
-5 0 -10 4 -10 9 0 5 -30 38 -67 74 -38 36 -162 165 -278 286 -194 204 -213
221 -245 221 l-34 0 40 -42z"/>
<path d="M9731 12094 c35 -42 124 -146 197 -231 128 -148 135 -154 153 -137
18 16 17 18 -22 63 -22 25 -104 120 -181 211 -127 148 -145 165 -176 168 l-35
3 64 -77z"/>
<path d="M10040 12166 c0 -6 163 -271 213 -346 84 -125 169 -232 188 -237 10
-3 16 -10 13 -17 -3 -7 32 -55 77 -107 210 -241 348 -427 559 -754 221 -343
338 -502 684 -935 251 -313 366 -470 578 -789 241 -364 367 -582 498 -866 240
-518 316 -642 668 -1084 108 -137 271 -342 362 -456 206 -261 307 -370 326
-354 8 6 14 16 14 21 0 6 -31 43 -69 84 -38 40 -142 167 -232 280 -90 114
-253 318 -361 455 -108 136 -219 278 -245 316 -136 190 -259 412 -397 715
-117 257 -144 308 -264 508 -255 426 -500 776 -843 1207 -284 356 -440 565
-577 773 -269 409 -348 524 -427 625 -131 168 -308 375 -321 375 -6 0 -11 6
-11 13 0 6 -36 59 -79 117 -73 96 -179 258 -265 403 -28 47 -38 57 -61 57 -16
0 -28 -2 -28 -4z"/>
<path d="M10421 12150 c8 -11 111 -143 229 -294 128 -164 222 -275 232 -275
10 -1 15 -7 12 -14 -2 -7 33 -61 78 -119 46 -58 123 -161 173 -229 49 -68 155
-202 234 -298 201 -241 292 -365 395 -537 49 -82 147 -237 217 -345 118 -183
882 -1314 898 -1332 13 -13 43 5 38 22 -2 9 -176 270 -386 580 -418 616 -590
877 -727 1105 -103 171 -198 301 -392 534 -77 92 -180 223 -230 292 -156 213
-256 339 -270 340 -7 0 -11 4 -8 8 3 5 -96 138 -220 295 -207 264 -228 287
-256 287 -28 0 -29 -1 -17 -20z"/>
<path d="M10981 12010 c145 -151 154 -159 171 -143 21 19 26 13 -162 206 -82
84 -99 97 -128 97 -33 0 -31 -2 119 -160z"/>
<path d="M11624 11878 c165 -161 305 -295 313 -296 8 -2 12 -10 9 -17 -2 -7 5
-21 16 -32 28 -25 385 -425 534 -598 304 -354 432 -524 707 -941 475 -720 860
-1271 1050 -1502 57 -69 61 -72 78 -56 18 16 18 18 -12 53 -60 73 -319 420
-421 566 -168 241 -374 544 -626 925 -307 465 -432 631 -731 980 -187 218
-508 576 -541 604 -17 14 -30 29 -30 34 0 6 -129 136 -286 291 -268 263 -289
281 -323 281 -35 0 -30 -6 263 -292z"/>
<path d="M12285 11998 c163 -242 297 -418 317 -418 11 0 15 -5 12 -14 -3 -8
28 -48 73 -97 124 -132 218 -247 636 -777 194 -246 505 -539 877 -827 63 -49
152 -123 198 -164 46 -42 88 -75 93 -74 5 2 9 -5 9 -15 0 -10 16 -34 36 -53
20 -18 144 -155 276 -304 134 -150 335 -361 452 -474 348 -337 963 -957 1087
-1096 64 -72 148 -170 189 -220 40 -49 78 -91 85 -93 6 -2 17 3 23 11 9 11 -8
37 -81 128 -52 63 -142 168 -202 234 -119 131 -751 766 -1071 1076 -110 106
-295 300 -409 429 -285 322 -362 403 -374 395 -6 -3 -11 2 -11 13 0 22 -114
126 -270 247 -371 287 -675 573 -869 819 -246 312 -413 521 -484 606 -106 126
-223 250 -236 250 -6 0 -10 4 -9 9 2 5 -36 60 -83 122 -47 63 -139 192 -203
287 -108 158 -120 172 -147 172 -30 0 -30 0 86 -172z"/>
<path d="M12602 12152 c64 -89 467 -566 480 -570 10 -2 18 -11 18 -19 0 -8 21
-39 48 -67 66 -73 248 -335 391 -564 185 -297 313 -457 450 -562 100 -76 166
-134 345 -304 82 -77 153 -140 158 -138 4 1 8 -4 8 -10 1 -7 38 -52 83 -100
372 -393 556 -589 762 -813 253 -274 481 -507 514 -525 16 -8 22 -6 31 9 9 17
3 27 -42 67 -82 74 -196 192 -531 554 -511 552 -789 841 -804 836 -8 -3 -13 2
-13 13 0 29 -318 326 -481 451 -130 100 -253 253 -429 535 -192 307 -361 547
-429 608 -23 20 -39 37 -36 37 2 0 -53 69 -123 153 -70 84 -178 215 -239 290
-100 122 -116 137 -144 137 -27 0 -29 -2 -17 -18z"/>
<path d="M13161 11943 c124 -126 253 -258 287 -295 34 -38 68 -68 77 -68 9 0
13 -5 10 -10 -4 -6 18 -39 48 -73 64 -73 138 -202 214 -371 106 -235 163 -336
237 -414 122 -128 418 -372 452 -372 8 0 14 -4 14 -9 0 -5 71 -55 158 -111
204 -133 296 -206 412 -326 224 -232 662 -825 931 -1261 290 -468 547 -822
928 -1273 161 -191 192 -222 208 -208 7 6 13 14 13 19 0 5 -59 77 -131 161
-357 415 -686 857 -894 1198 -186 305 -382 594 -616 907 -259 345 -427 535
-584 658 -109 85 -404 277 -416 270 -5 -4 -9 0 -9 7 0 7 -19 26 -43 42 -98 69
-239 188 -342 291 -123 122 -138 147 -273 441 -38 83 -90 189 -117 235 -53 92
-140 199 -162 199 -8 0 -12 4 -9 9 8 12 -91 119 -343 374 -189 190 -209 207
-241 207 -34 0 -30 -4 191 -227z"/>
<path d="M13461 12098 c134 -152 502 -518 520 -518 11 0 19 -6 19 -13 0 -7 30
-42 66 -77 36 -36 145 -149 241 -253 96 -103 179 -184 184 -181 5 3 9 -2 9
-11 0 -9 43 -65 96 -123 156 -172 365 -427 598 -727 749 -965 1191 -1462 1605
-1805 205 -169 452 -447 925 -1040 161 -201 312 -391 337 -423 l44 -58 3 36
c4 44 31 6 -343 475 -480 600 -729 880 -940 1053 -365 301 -895 891 -1485
1657 -417 540 -805 1000 -831 984 -5 -3 -9 3 -9 13 0 24 -438 493 -460 493 -9
0 -368 364 -481 487 -83 90 -98 102 -128 103 l-33 0 63 -72z"/>
<path d="M14680 12162 c0 -12 54 -60 165 -147 55 -43 118 -98 140 -121 36 -38
42 -41 58 -29 18 13 18 15 -5 45 -39 55 -302 260 -332 260 -14 0 -26 -4 -26
-8z"/>
<path d="M15116 12138 c103 -111 299 -334 349 -398 32 -41 62 -79 66 -84 8 -9
39 10 39 24 0 14 -128 170 -270 328 -134 150 -148 162 -179 162 l-35 0 30 -32z"/>
<path d="M15728 12083 c208 -228 199 -220 218 -201 16 16 10 24 -106 152 -113
125 -126 136 -158 136 l-34 0 80 -87z"/>
<path d="M16121 12069 c164 -178 321 -370 380 -466 8 -13 19 -23 26 -23 7 0
13 -7 13 -15 0 -8 18 -41 41 -72 22 -32 80 -120 129 -196 172 -265 235 -341
624 -747 391 -407 491 -514 645 -687 l126 -143 3 35 c3 33 -6 46 -112 165
-148 164 -241 263 -617 655 -388 406 -455 485 -614 730 -123 190 -169 256
-185 269 -8 6 -16 17 -18 24 -7 35 -193 272 -350 445 -105 116 -118 127 -150
127 l-34 0 93 -101z"/>
<path d="M16746 11875 c159 -162 294 -295 301 -295 7 0 13 -6 13 -14 0 -8 64
-81 143 -163 154 -159 211 -232 417 -534 73 -107 164 -237 203 -289 79 -107
264 -337 278 -346 5 -3 9 10 9 29 0 28 -15 52 -77 128 -111 136 -222 288 -373
509 -74 107 -165 238 -204 290 -70 95 -335 380 -363 390 -8 3 -13 9 -11 12 2
4 -122 136 -275 293 -260 266 -281 285 -314 285 -34 0 -29 -6 253 -295z"/>
<path d="M17107 12147 c195 -244 303 -381 367 -464 43 -57 85 -103 93 -103 8
0 11 -5 8 -10 -3 -6 27 -56 68 -113 41 -56 133 -199 204 -317 71 -118 158
-261 194 -318 l64 -102 3 41 c3 33 -3 52 -29 93 -17 28 -97 159 -177 291 -140
233 -277 435 -294 435 -4 0 -8 5 -8 10 0 12 -111 158 -308 407 -128 161 -139
172 -170 173 l-33 0 18 -23z"/>
<path d="M17611 11973 c176 -264 270 -393 286 -393 7 0 13 -7 13 -16 0 -9 24
-44 54 -77 29 -34 74 -93 100 -132 l46 -70 0 46 c0 39 -8 57 -49 115 -26 38
-67 86 -90 107 -22 20 -39 37 -36 37 3 0 -22 37 -55 81 -34 45 -124 176 -201
290 -130 194 -142 209 -169 209 -30 0 -30 -1 101 -197z"/>
<path d="M5005 11934 c-17 -13 -16 -15 9 -49 68 -89 366 -305 421 -305 17 0
25 -5 22 -12 -4 -14 102 -90 115 -82 4 3 8 1 8 -4 0 -4 48 -45 108 -89 317
-237 673 -639 1072 -1211 47 -67 89 -120 94 -119 5 2 14 10 19 18 8 12 -20 57
-118 195 -400 559 -728 927 -1028 1151 -97 72 -137 98 -137 89 0 -2 -14 9 -32
26 -17 16 -44 32 -60 35 -15 3 -28 9 -28 14 0 4 -66 51 -146 104 -94 62 -173
124 -223 174 -69 69 -80 77 -96 65z"/>
<path d="M13927 11938 c-26 -14 -21 -25 36 -85 92 -98 342 -273 390 -273 18 0
25 -4 21 -13 -5 -14 99 -85 117 -79 5 1 9 -2 9 -7 0 -5 53 -48 118 -96 74 -56
183 -154 298 -269 247 -247 439 -481 711 -863 118 -165 139 -190 155 -182 10
5 18 14 18 18 0 12 -238 345 -355 497 -205 266 -402 487 -595 668 -93 87 -328
271 -337 263 -2 -3 -18 9 -35 24 -16 16 -42 32 -56 36 -15 3 -33 14 -42 23 -8
9 -46 36 -85 60 -114 72 -249 176 -302 234 -39 43 -53 52 -66 44z"/>
<path d="M5703 11899 c-9 -9 7 -32 64 -93 41 -45 100 -114 131 -153 31 -40 62
-73 70 -73 7 0 10 -4 7 -10 -8 -13 137 -207 242 -325 44 -49 156 -160 249
-245 340 -314 477 -464 599 -655 21 -33 98 -163 172 -289 162 -278 188 -315
350 -497 165 -186 715 -739 735 -739 49 0 16 40 -246 302 -282 282 -475 488
-578 617 -32 40 -104 151 -160 245 -193 328 -251 422 -326 525 -82 113 -271
308 -519 534 -173 159 -282 277 -396 430 -44 59 -84 107 -89 107 -4 0 -8 6 -8
13 -1 28 -249 317 -274 317 -6 0 -17 -5 -23 -11z"/>
<path d="M14620 11895 c-10 -12 3 -30 77 -107 49 -51 109 -119 132 -150 24
-32 49 -58 57 -58 7 0 11 -6 9 -12 -9 -23 181 -261 316 -398 74 -74 237 -233
362 -354 306 -294 308 -296 671 -911 81 -137 138 -211 292 -380 279 -306 680
-705 709 -705 7 0 15 7 19 15 4 10 -69 88 -230 248 -241 236 -479 488 -599
632 -37 44 -101 139 -144 210 -43 72 -126 212 -185 312 -164 275 -230 356
-503 619 -362 349 -477 468 -571 594 -47 63 -91 120 -99 126 -7 6 -13 15 -13
19 0 24 -254 315 -276 315 -6 0 -17 -7 -24 -15z"/>
<path d="M7053 11764 c-9 -4 -8 -14 2 -43 24 -70 65 -141 81 -141 8 0 12 -5 9
-10 -11 -18 23 -60 159 -195 94 -93 140 -146 160 -186 75 -151 711 -842 2585
-2812 454 -478 474 -497 492 -481 18 16 16 20 -69 108 -92 96 -1066 1122
-1382 1456 -277 292 -1101 1177 -1230 1320 -186 206 -319 370 -353 434 -23 44
-73 102 -178 207 -130 130 -150 154 -186 230 -23 46 -44 92 -47 102 -5 17 -19
20 -43 11z"/>
<path d="M15971 11761 c-12 -8 -7 -25 27 -95 23 -47 46 -86 52 -86 5 0 10 -9
10 -21 0 -14 46 -67 132 -153 134 -134 180 -188 203 -241 16 -37 176 -230 366
-440 136 -150 997 -1075 1235 -1325 l109 -115 3 33 c3 31 -8 45 -145 190 -860
907 -1523 1638 -1523 1679 0 25 -87 130 -208 251 -129 130 -140 143 -182 234
-45 97 -52 106 -79 89z"/>
<path d="M0 11683 c0 -44 38 -103 66 -103 7 0 11 -6 8 -14 -3 -7 17 -37 44
-67 43 -48 214 -295 531 -767 252 -375 866 -1120 1458 -1769 407 -447 809
-914 980 -1140 57 -75 91 -112 101 -108 7 3 16 5 18 5 52 0 -462 617 -1062
1276 -589 646 -1204 1392 -1455 1766 -444 661 -556 818 -587 818 -7 0 -11 4
-8 8 4 7 -55 95 -85 127 -5 5 -9 -7 -9 -32z"/>
<path d="M2521 11486 c-10 -12 7 -37 92 -143 127 -157 227 -300 477 -683 235
-359 298 -464 475 -785 196 -357 218 -394 320 -550 106 -161 172 -241 461
-560 348 -383 441 -495 581 -702 191 -281 287 -392 482 -554 85 -70 158 -126
162 -123 4 2 9 -2 11 -9 2 -7 53 -56 113 -107 278 -236 465 -416 624 -600 65
-74 367 -434 673 -800 305 -366 590 -705 633 -753 73 -84 78 -88 95 -72 18 16
15 21 -74 124 -51 58 -335 396 -631 751 -698 836 -736 880 -905 1043 -190 184
-500 449 -517 443 -8 -3 -13 2 -13 12 -1 10 -60 65 -136 127 -180 146 -290
272 -477 548 -140 207 -233 319 -581 702 -413 456 -444 499 -764 1080 -91 165
-197 352 -235 415 -102 166 -433 671 -548 835 -103 147 -276 366 -295 372 -6
2 -16 -3 -23 -11z"/>
<path d="M6693 11489 c-8 -8 12 -44 67 -127 43 -64 136 -216 206 -337 245
-423 309 -510 531 -721 420 -400 685 -627 1014 -870 247 -182 502 -421 752
-703 214 -241 254 -294 978 -1291 490 -675 767 -1037 912 -1195 52 -56 56 -59
73 -43 16 16 12 22 -73 120 -206 238 -375 462 -1123 1493 -408 563 -505 691
-646 855 -319 370 -582 615 -950 885 -206 150 -476 384 -832 719 -299 281
-338 333 -657 886 -97 168 -213 340 -229 340 -7 0 -17 -5 -23 -11z"/>
<path d="M11440 11485 c-10 -12 9 -40 107 -162 121 -151 308 -423 565 -823
176 -274 205 -323 392 -663 307 -559 348 -617 747 -1057 364 -402 453 -510
588 -710 183 -271 299 -405 487 -561 79 -65 149 -120 156 -121 7 -2 17 -10 23
-19 5 -9 75 -72 155 -140 355 -304 452 -405 890 -929 1002 -1200 1061 -1270
1074 -1266 5 1 14 9 19 17 7 12 -24 55 -140 190 -82 96 -367 435 -633 754
-539 646 -631 755 -740 869 -158 166 -596 550 -617 541 -7 -2 -13 2 -13 10 0
8 -64 68 -143 133 -184 154 -297 283 -478 552 -135 201 -212 294 -588 710
-400 442 -440 498 -750 1062 -180 328 -214 385 -389 658 -257 399 -444 672
-565 823 -65 81 -122 147 -126 147 -5 0 -14 -7 -21 -15z"/>
<path d="M15611 11486 c-9 -11 -1 -29 41 -85 29 -39 114 -175 188 -302 301
-516 346 -577 602 -821 384 -364 637 -582 914 -789 251 -187 336 -260 557
-478 195 -192 197 -194 197 -159 0 32 -15 49 -182 214 -207 203 -295 279 -541
462 -275 206 -531 426 -899 776 -272 258 -267 250 -669 929 -92 154 -171 267
-188 267 -5 0 -14 -6 -20 -14z"/>
<path d="M832 11428 c-7 -7 -12 -15 -12 -19 0 -3 88 -116 195 -250 219 -272
375 -488 502 -691 76 -121 88 -136 104 -127 11 5 19 13 19 18 0 15 -165 270
-277 428 -104 147 -496 645 -512 651 -4 1 -12 -3 -19 -10z"/>
<path d="M9748 11426 c-16 -12 0 -35 177 -256 217 -271 367 -477 505 -693 84
-133 94 -145 111 -134 11 7 17 18 14 25 -11 30 -179 285 -282 430 -106 149
-492 641 -503 641 -3 0 -13 -6 -22 -13z"/>
<path d="M0 11204 c0 -46 9 -64 126 -254 229 -372 288 -456 527 -753 315 -390
905 -1042 1067 -1177 46 -38 49 -40 59 -22 9 17 -13 43 -167 198 -358 362
-827 900 -1114 1279 -87 115 -205 295 -377 580 l-121 199 0 -50z"/>
<path d="M3690 11225 c-10 -12 2 -31 66 -107 232 -275 520 -589 938 -1023 138
-143 343 -361 455 -485 224 -247 409 -440 422 -440 5 0 9 -5 9 -11 0 -6 24
-43 53 -82 85 -115 370 -532 799 -1172 562 -836 538 -806 1077 -1390 221 -239
416 -463 503 -580 33 -44 64 -81 68 -83 4 -1 13 4 20 13 16 19 -3 49 -136 211
-120 147 -175 209 -488 549 -283 307 -420 466 -527 610 -41 55 -255 370 -477
700 -683 1017 -849 1255 -877 1255 -8 0 -15 8 -15 18 0 10 -25 42 -56 72 -31
30 -160 170 -288 310 -127 140 -348 376 -491 525 -453 470 -719 759 -949 1033
-42 50 -81 92 -85 92 -5 0 -14 -7 -21 -15z"/>
<path d="M12610 11225 c-10 -12 -1 -27 48 -87 179 -219 598 -677 978 -1068
115 -119 301 -317 413 -440 262 -289 430 -462 442 -454 27 16 3 54 -104 163
-62 64 -198 210 -302 326 -105 115 -273 296 -375 400 -401 413 -729 768 -948
1028 -68 81 -128 147 -132 147 -4 0 -13 -7 -20 -15z"/>
<path d="M3227 10902 c-16 -17 -15 -20 19 -53 20 -19 97 -108 172 -199 75 -91
164 -197 198 -237 124 -143 188 -253 450 -766 178 -349 311 -582 345 -603 6
-3 18 0 26 9 13 13 9 23 -39 93 -74 106 -129 207 -301 549 -237 472 -314 600
-463 775 -49 58 -140 166 -201 240 -61 74 -129 152 -150 173 -38 36 -40 37
-56 19z"/>
<path d="M12145 10906 c-18 -13 -16 -17 36 -74 31 -33 105 -120 165 -193 60
-73 139 -168 176 -212 133 -154 187 -244 429 -719 204 -401 295 -564 354 -633
31 -38 35 -39 51 -23 16 16 15 19 -13 55 -72 92 -184 294 -386 698 -186 372
-263 498 -418 681 -52 60 -142 168 -201 240 -58 71 -122 144 -140 162 -31 29
-36 31 -53 18z"/>
<path d="M7417 10823 c-16 -19 -12 -25 100 -154 144 -165 451 -478 637 -651
133 -123 139 -128 157 -112 19 17 16 20 -58 88 -217 196 -589 578 -773 794
-44 52 -46 53 -63 35z"/>
<path d="M16337 10825 c-9 -7 -17 -15 -17 -18 0 -22 442 -498 613 -659 261
-247 277 -260 293 -247 8 6 14 17 13 23 0 6 -41 47 -90 91 -202 180 -519 507
-754 777 -35 40 -43 44 -58 33z"/>
<path d="M0 10603 c0 -37 9 -53 87 -153 189 -243 346 -419 762 -853 435 -454
842 -842 1145 -1090 87 -72 218 -185 290 -252 240 -223 638 -650 950 -1019 83
-99 161 -191 173 -205 21 -25 23 -25 39 -9 17 17 15 20 -26 70 -500 602 -987
1116 -1309 1382 -354 292 -736 650 -1148 1076 -485 501 -706 752 -947 1075
-14 19 -15 18 -16 -22z"/>
<path d="M1167 10582 c-16 -18 -14 -22 50 -98 278 -330 619 -666 1118 -1103
116 -101 231 -205 257 -229 40 -38 49 -43 63 -32 8 7 15 18 14 24 0 6 -93 92
-206 191 -580 507 -968 888 -1243 1223 -35 42 -36 43 -53 24z"/>
<path d="M10087 10585 c-10 -7 -17 -15 -17 -19 0 -18 271 -317 460 -510 222
-226 398 -390 784 -729 203 -179 250 -216 262 -206 8 6 14 15 14 20 0 4 -55
57 -122 116 -448 395 -596 530 -777 708 -189 186 -363 371 -522 556 -57 65
-68 74 -82 64z"/>
<path d="M0 10057 c0 -33 8 -47 63 -105 34 -37 116 -130 182 -207 66 -77 286
-327 490 -555 931 -1044 1080 -1222 1349 -1619 95 -141 249 -364 341 -496 178
-252 436 -637 470 -699 19 -34 22 -36 40 -22 20 15 20 15 -4 58 -45 82 -208
324 -431 643 -123 176 -297 428 -387 561 -254 376 -446 606 -1298 1559 -187
209 -422 475 -522 590 -100 116 -207 237 -237 270 l-55 60 -1 -38z"/>
<path d="M6947 9872 c-16 -18 -11 -25 111 -158 286 -312 837 -854 1078 -1062
45 -38 137 -112 205 -163 325 -243 646 -531 867 -774 195 -214 845 -935 872
-967 25 -29 26 -29 43 -10 18 20 14 24 -145 198 -90 99 -298 330 -462 514
-460 514 -712 753 -1129 1067 -216 163 -276 217 -658 584 -218 211 -507 507
-690 707 -72 79 -76 82 -92 64z"/>
<path d="M15866 9875 c-18 -14 -17 -16 17 -58 69 -84 405 -433 648 -672 290
-286 489 -469 619 -571 52 -40 158 -123 235 -183 205 -159 348 -285 548 -480
176 -173 177 -174 177 -139 0 32 -14 48 -163 194 -186 182 -332 310 -532 465
-282 219 -343 269 -480 395 -274 252 -772 752 -990 996 -55 61 -62 66 -79 53z"/>
<path d="M2 9604 c3 -47 -79 43 1062 -1156 516 -544 540 -567 558 -551 18 16
17 19 -35 72 -148 154 -1530 1612 -1579 1666 -6 6 -8 -6 -6 -31z"/>
<path d="M7936 9591 c-16 -18 -12 -23 71 -101 89 -84 226 -202 658 -571 132
-113 284 -247 338 -299 93 -88 99 -92 115 -76 16 16 12 23 -81 112 -54 52
-207 188 -340 301 -433 370 -571 489 -658 572 -83 77 -87 80 -103 62z"/>
<path d="M16856 9591 c-16 -17 -12 -23 76 -107 51 -48 201 -180 333 -293 455
-388 570 -489 660 -575 50 -47 93 -86 96 -86 4 0 12 7 20 16 11 14 1 28 -82
106 -51 50 -202 183 -334 296 -513 440 -582 500 -666 579 -83 79 -87 82 -103
64z"/>
<path d="M14503 9173 c-8 -19 -1 -31 103 -175 136 -190 565 -820 864 -1268
423 -636 409 -617 917 -1170 288 -314 440 -489 541 -621 56 -74 69 -86 84 -78
10 5 18 14 18 18 0 13 -130 179 -243 311 -55 63 -217 243 -361 399 -304 331
-441 488 -541 623 -40 53 -249 359 -464 680 -600 894 -881 1298 -902 1298 -5
0 -12 -7 -16 -17z"/>
<path d="M0 9131 c0 -30 13 -48 113 -150 334 -344 418 -449 1072 -1351 621
-856 918 -1246 1055 -1388 42 -44 54 -51 66 -42 22 19 17 33 -32 80 -115 112
-429 525 -1086 1430 -615 848 -703 958 -1021 1285 -163 167 -166 169 -167 136z"/>
<path d="M5320 8835 c-15 -18 -18 -16 135 -175 60 -63 113 -114 117 -112 5 1
8 -4 8 -12 0 -7 24 -43 54 -79 78 -96 134 -184 220 -345 120 -228 267 -435
602 -852 233 -291 226 -283 247 -275 25 10 21 24 -21 74 -90 107 -375 466
-468 591 -150 201 -233 329 -319 490 -112 213 -272 437 -302 426 -8 -3 -13 2
-13 14 0 18 -225 270 -241 270 -4 0 -12 -7 -19 -15z"/>
<path d="M14238 8834 c-16 -16 -10 -25 109 -148 70 -72 133 -132 140 -134 7
-2 13 -10 13 -18 0 -8 22 -42 50 -75 77 -92 124 -167 221 -345 132 -245 279
-453 607 -861 230 -285 227 -282 247 -262 16 16 6 30 -145 215 -185 228 -427
545 -520 684 -35 52 -97 157 -138 234 -41 78 -94 172 -119 211 -67 104 -176
236 -190 230 -8 -2 -13 4 -13 16 0 12 -48 69 -122 145 -116 118 -124 124 -140
108z"/>
<path d="M2803 8695 c-7 -11 30 -54 147 -173 248 -250 473 -523 575 -697 29
-49 153 -281 275 -515 399 -762 574 -1077 705 -1275 109 -165 293 -372 672
-757 188 -191 350 -359 359 -373 9 -14 23 -25 30 -25 8 0 14 -6 14 -12 0 -7
37 -58 82 -113 237 -291 407 -544 524 -781 86 -173 171 -300 315 -467 110
-128 502 -557 509 -557 4 0 13 7 20 15 14 17 35 -8 -247 302 -208 228 -332
374 -414 489 -56 78 -80 120 -158 284 -81 168 -261 435 -477 705 -83 103 -131
155 -140 151 -10 -4 -14 2 -14 19 0 18 -86 111 -353 383 -369 375 -563 591
-664 739 -126 184 -310 516 -732 1321 -123 233 -244 461 -271 505 -98 167
-322 438 -565 685 -88 89 -165 162 -172 162 -7 0 -16 -7 -20 -15z"/>
<path d="M11720 8695 c-10 -12 5 -30 84 -106 174 -166 434 -464 559 -641 75
-107 105 -161 392 -708 517 -988 647 -1208 859 -1455 106 -122 474 -511 605
-637 58 -57 140 -140 182 -186 42 -45 81 -82 87 -82 7 0 12 -7 12 -15 0 -8 27
-48 61 -88 229 -272 445 -591 550 -815 66 -138 138 -249 264 -402 105 -128
544 -610 555 -610 4 0 13 7 20 15 10 13 -1 30 -72 108 -47 50 -142 155 -213
232 -294 322 -421 492 -510 680 -107 229 -246 437 -518 778 -61 76 -116 136
-123 133 -7 -3 -14 7 -17 22 -4 18 -103 125 -298 322 -397 401 -620 649 -728
808 -105 156 -338 578 -681 1232 -122 234 -250 473 -283 532 -109 195 -332
471 -602 746 -82 84 -155 152 -161 152 -6 0 -17 -7 -24 -15z"/>
<path d="M4809 8664 c-12 -15 -4 -26 66 -92 93 -87 306 -249 417 -317 70 -43
128 -97 230 -212 21 -24 42 -43 48 -43 5 0 10 -6 10 -13 0 -7 46 -68 101 -137
56 -69 176 -224 266 -345 231 -311 331 -437 493 -620 196 -221 490 -527 503
-522 6 2 15 11 21 20 9 13 6 20 -11 32 -29 21 -318 326 -476 504 -156 175
-278 328 -457 572 -202 276 -410 531 -426 525 -9 -4 -14 2 -14 17 0 37 -164
204 -256 261 -109 67 -323 229 -416 315 -42 39 -78 71 -81 71 -2 0 -11 -7 -18
-16z"/>
<path d="M13729 8664 c-12 -15 -4 -26 71 -97 98 -92 261 -216 405 -309 92 -60
163 -126 253 -238 16 -19 23 -22 33 -13 21 20 1 56 -77 141 -57 61 -110 105
-203 166 -154 102 -281 200 -382 294 -42 40 -79 72 -82 72 -2 0 -11 -7 -18
-16z"/>
<path d="M8749 8604 c-11 -14 -6 -22 41 -62 93 -76 348 -338 504 -517 205
-234 366 -437 536 -675 334 -468 731 -923 1030 -1179 283 -242 836 -771 972
-927 39 -46 46 -50 62 -38 18 13 18 14 1 41 -25 38 -454 466 -645 643 -85 79
-234 212 -330 295 -341 296 -696 701 -1050 1195 -253 354 -514 668 -810 974
-102 106 -277 266 -291 266 -4 0 -13 -7 -20 -16z"/>
<path d="M17669 8604 c-12 -14 -6 -23 51 -71 36 -31 138 -130 228 -222 161
-165 162 -166 162 -130 0 31 -13 49 -118 160 -103 107 -278 268 -301 277 -4 1
-14 -5 -22 -14z"/>
<path d="M4123 8543 c-7 -2 -13 -9 -13 -15 0 -26 140 -179 470 -513 354 -359
398 -402 630 -610 67 -60 174 -165 237 -232 64 -68 119 -120 124 -117 5 3 9
-2 9 -11 0 -9 36 -59 80 -111 104 -123 162 -202 302 -414 132 -198 234 -329
399 -509 147 -160 292 -295 794 -736 572 -502 763 -674 894 -806 211 -212 372
-412 581 -723 174 -259 367 -511 569 -741 57 -66 79 -102 122 -199 29 -66 60
-127 68 -136 9 -9 17 -26 18 -38 2 -13 33 -78 69 -145 123 -226 243 -389 270
-366 21 17 18 24 -32 86 -65 79 -127 178 -197 313 -33 63 -67 123 -75 133 -8
9 -12 17 -8 17 3 0 -4 21 -18 48 -13 26 -41 88 -62 137 -32 76 -55 110 -149
220 -224 261 -358 437 -535 701 -208 310 -372 514 -584 727 -126 127 -314 297
-901 812 -503 442 -658 586 -803 746 -167 186 -249 292 -398 517 -177 265
-357 492 -390 492 -8 0 -14 7 -14 16 0 24 -151 185 -304 325 -285 262 -343
318 -672 650 -187 189 -366 377 -398 417 -32 39 -61 72 -65 71 -3 0 -12 -3
-18 -6z"/>
<path d="M13043 8543 c-21 -8 -15 -23 30 -82 55 -72 800 -830 897 -912 41 -35
174 -162 295 -282 122 -120 224 -214 228 -211 4 4 7 -1 7 -11 0 -9 31 -54 68
-99 110 -130 164 -202 258 -346 299 -457 495 -666 1224 -1305 1046 -917 1133
-1008 1527 -1590 147 -218 272 -382 434 -575 l94 -113 3 36 c3 31 -6 46 -87
143 -158 191 -258 323 -404 539 -394 582 -482 674 -1502 1570 -513 450 -777
702 -937 895 -119 145 -155 193 -299 410 -155 234 -335 460 -365 460 -8 0 -14
8 -14 18 0 20 -374 397 -460 463 -71 55 -819 811 -905 915 -69 83 -72 85 -92
77z"/>
<path d="M0 8460 c0 -31 9 -44 66 -100 251 -247 625 -696 882 -1060 271 -384
706 -880 968 -1105 248 -214 494 -443 773 -722 260 -261 301 -294 301 -247 0
38 -690 704 -1043 1008 -259 222 -689 714 -959 1096 -264 375 -549 719 -845
1020 l-142 145 -1 -35z"/>
<path d="M7570 8305 c-15 -18 -20 -12 125 -170 459 -500 1032 -1161 1345
-1550 504 -628 1500 -1728 1955 -2160 232 -220 475 -462 573 -570 76 -85 82
-89 98 -73 16 16 14 21 -51 95 -38 43 -167 175 -288 293 -581 568 -792 786
-1253 1295 -466 515 -722 811 -994 1150 -216 268 -614 735 -962 1125 -286 322
-516 574 -527 578 -4 1 -14 -4 -21 -13z"/>
<path d="M16480 8304 c-11 -13 -4 -25 52 -82 281 -289 1123 -1256 1438 -1652
68 -85 127 -159 132 -164 4 -6 8 7 8 30 0 35 -12 54 -112 179 -355 445 -1458
1702 -1494 1704 -6 1 -17 -6 -24 -15z"/>
<path d="M6610 8209 c-11 -19 -7 -25 27 -52 21 -18 65 -56 98 -87 370 -340
653 -632 954 -980 102 -118 319 -368 481 -555 570 -656 997 -1158 1134 -1332
41 -53 51 -61 67 -52 11 5 19 13 19 18 0 20 -486 597 -1020 1211 -155 179
-403 465 -550 636 -392 453 -739 813 -1083 1120 -110 98 -113 100 -127 73z"/>
<path d="M15532 8218 c-21 -21 -14 -32 61 -95 219 -185 684 -653 931 -938 794
-913 1266 -1461 1486 -1724 l95 -113 3 36 c3 33 -6 47 -105 164 -200 236 -526
615 -788 917 -144 165 -366 422 -494 570 -376 435 -727 798 -1061 1095 -116
103 -114 102 -128 88z"/>
<path d="M1207 8063 c-14 -17 -12 -22 29 -73 185 -227 510 -653 1338 -1752
301 -401 551 -728 555 -728 5 0 14 6 20 14 13 16 -37 84 -948 1291 -567 751
-963 1265 -975 1265 -2 0 -10 -8 -19 -17z"/>
<path d="M10127 8063 c-16 -18 -10 -27 127 -199 187 -234 565 -732 1236 -1626
300 -400 550 -727 556 -727 6 -1 17 5 23 13 9 11 -109 173 -571 787 -704 937
-1018 1349 -1197 1574 -75 93 -141 176 -146 183 -9 11 -14 10 -28 -5z"/>
<path d="M0 8040 c0 -28 13 -44 89 -116 93 -88 141 -140 661 -719 173 -192
343 -379 377 -415 58 -61 63 -64 79 -48 15 15 4 30 -178 230 -106 117 -310
344 -453 503 -283 316 -428 470 -517 547 l-58 50 0 -32z"/>
<path d="M4273 8013 c-7 -2 -13 -10 -13 -16 0 -7 77 -93 171 -192 394 -413
467 -498 610 -705 253 -368 490 -670 525 -670 8 0 14 -6 14 -14 0 -8 87 -95
194 -195 223 -209 323 -312 457 -471 271 -325 570 -738 824 -1140 224 -354
359 -529 603 -784 280 -292 636 -715 916 -1089 32 -42 65 -77 73 -77 8 0 11
-4 8 -10 -3 -5 26 -53 65 -106 40 -53 126 -187 193 -298 361 -602 492 -784
922 -1284 292 -341 774 -855 829 -884 13 -7 22 -6 32 4 11 11 -17 44 -179 208
-387 392 -900 986 -1148 1330 -79 109 -254 385 -424 670 -99 166 -240 370
-256 370 -5 0 -9 5 -9 10 0 14 -114 166 -309 410 -255 320 -459 554 -691 795
-69 72 -158 168 -197 215 -97 116 -265 352 -364 512 -246 399 -625 920 -900
1238 -166 192 -608 618 -629 605 -5 -3 -10 2 -10 14 0 10 -33 56 -74 100 -75
81 -253 320 -425 571 -102 148 -162 224 -272 345 -124 137 -513 545 -519 544
-3 0 -11 -3 -17 -6z"/>
<path d="M13182 8007 c-9 -11 20 -47 145 -178 421 -443 477 -507 638 -739 288
-411 489 -667 518 -657 30 10 14 43 -63 130 -82 92 -210 264 -415 557 -59 85
-134 187 -165 225 -107 131 -613 668 -634 673 -7 2 -18 -3 -24 -11z"/>
<path d="M14507 8014 c-18 -18 -2 -52 62 -127 95 -114 252 -318 413 -537 203
-275 412 -518 723 -838 141 -145 149 -152 166 -136 18 16 12 23 -124 163 -310
320 -533 579 -733 851 -201 274 -473 620 -493 628 -4 1 -10 -1 -14 -4z"/>
<path d="M8633 7984 c-3 -9 6 -28 24 -47 138 -150 190 -210 288 -332 61 -77
171 -223 244 -324 73 -101 298 -409 500 -685 202 -275 436 -598 521 -716 223
-314 243 -339 926 -1135 40 -47 43 -49 60 -33 20 19 30 6 -341 438 -297 345
-412 489 -597 748 -89 125 -351 486 -583 802 -231 316 -460 629 -507 695 -171
238 -483 605 -514 605 -8 0 -17 -7 -21 -16z"/>
<path d="M17551 7986 c-10 -12 4 -33 89 -122 118 -126 263 -302 384 -468 l86
-118 0 42 c0 35 -9 55 -47 109 -126 177 -456 562 -487 569 -7 2 -18 -4 -25
-12z"/>
<path d="M2340 7875 c-11 -13 9 -37 126 -158 208 -214 461 -508 904 -1057 602
-744 995 -1162 1375 -1465 231 -185 335 -284 472 -453 190 -236 344 -412 354
-406 5 3 9 -2 9 -10 0 -9 43 -61 96 -117 91 -96 170 -193 444 -542 63 -81 120
-147 126 -147 6 0 16 6 22 13 9 10 -13 45 -96 149 -59 74 -162 205 -228 289
-140 177 -329 385 -350 383 -8 -1 -14 7 -14 18 0 10 -19 40 -43 66 -63 69
-190 220 -304 363 -118 147 -207 232 -436 416 -93 74 -230 193 -305 263 -237
220 -624 648 -948 1047 -630 773 -821 998 -1033 1215 -79 82 -147 148 -151
148 -4 0 -13 -7 -20 -15z"/>
<path d="M11260 7875 c-10 -13 7 -35 112 -143 217 -224 450 -497 927 -1085
566 -698 985 -1147 1326 -1421 270 -217 367 -308 498 -471 188 -232 358 -426
368 -420 5 4 9 -1 9 -10 0 -10 41 -60 92 -114 83 -87 169 -192 463 -565 54
-69 104 -126 111 -126 6 0 16 6 22 13 8 9 -13 42 -81 128 -51 63 -156 196
-233 295 -150 190 -341 400 -361 398 -7 -1 -13 6 -13 15 0 9 -41 63 -91 121
-50 58 -153 182 -229 275 -149 185 -247 278 -525 501 -339 271 -753 717 -1355
1459 -299 368 -562 683 -694 830 -112 124 -317 335 -327 335 -4 0 -12 -7 -19
-15z"/>
<path d="M3904 7755 c-18 -14 -18 -17 30 -107 209 -395 663 -1036 923 -1303
32 -33 111 -112 176 -175 157 -153 214 -229 362 -485 32 -55 59 -102 61 -104
1 -1 12 3 23 11 20 14 19 18 -55 143 -152 261 -220 346 -458 576 -71 68 -164
167 -208 219 -266 316 -641 867 -783 1150 -25 50 -47 90 -48 90 -2 0 -12 -7
-23 -15z"/>
<path d="M12818 7759 c-16 -9 -15 -15 16 -77 147 -292 495 -808 777 -1152 51
-63 184 -205 295 -315 213 -212 262 -276 409 -532 51 -88 61 -100 77 -92 10 5
18 14 18 19 0 14 -136 244 -203 345 -44 64 -117 146 -256 285 -215 214 -304
316 -480 550 -220 292 -436 622 -561 857 -36 67 -67 122 -70 122 -3 0 -13 -4
-22 -10z"/>
<path d="M0 7678 c0 -31 12 -52 73 -130 39 -51 108 -142 152 -203 43 -60 269
-369 500 -685 232 -316 488 -669 570 -785 181 -254 305 -410 631 -790 137
-160 268 -313 291 -340 39 -47 43 -49 59 -33 21 21 35 3 -305 398 -334 389
-452 537 -657 825 -313 440 -1214 1665 -1278 1740 l-35 40 -1 -37z"/>
<path d="M3380 7445 c-10 -12 -1 -30 53 -102 152 -206 278 -423 403 -694 41
-90 99 -204 129 -253 138 -236 372 -533 689 -879 103 -112 109 -117 127 -101
17 16 14 21 -89 133 -261 284 -457 526 -597 736 -100 150 -132 209 -253 465
-83 174 -172 336 -255 460 -74 111 -178 250 -187 250 -4 0 -13 -7 -20 -15z"/>
<path d="M12300 7445 c-14 -17 -15 -14 70 -130 136 -183 214 -319 367 -633 68
-139 149 -295 181 -345 142 -225 346 -482 641 -807 58 -63 108 -119 112 -124
9 -10 39 10 39 25 0 5 -48 62 -107 127 -302 330 -520 605 -659 832 -32 52 -97
178 -144 280 -90 192 -168 338 -253 475 -60 96 -218 315 -228 315 -3 0 -12 -7
-19 -15z"/>
<path d="M0 7253 c0 -38 19 -64 286 -404 244 -310 402 -506 526 -652 25 -30
28 -31 44 -15 21 20 27 10 -111 174 -55 66 -210 259 -345 429 -134 171 -279
355 -322 409 l-78 99 0 -40z"/>
<path d="M7276 7265 c-17 -13 -8 -27 143 -220 360 -456 601 -747 831 -1000
302 -332 663 -752 944 -1100 286 -353 356 -428 1157 -1226 755 -752 789 -785
806 -767 16 17 -18 52 -769 801 -798 794 -868 868 -1154 1222 -281 348 -694
829 -970 1130 -199 218 -455 526 -804 970 -89 113 -162 205 -163 205 -1 0 -10
-7 -21 -15z"/>
<path d="M16195 7266 c-23 -16 -47 18 292 -409 289 -363 487 -598 667 -796
247 -271 606 -686 857 -991 93 -113 94 -114 97 -82 2 19 -3 43 -11 55 -46 69
-706 836 -902 1047 -183 198 -429 494 -765 920 -238 302 -212 273 -235 256z"/>
<path d="M2818 6976 c-15 -11 -9 -25 71 -152 85 -136 482 -749 666 -1029 148
-226 428 -591 870 -1135 470 -578 591 -710 851 -920 71 -57 164 -136 207 -175
43 -38 82 -69 87 -68 6 2 10 -2 10 -8 0 -6 22 -35 49 -65 27 -30 63 -78 80
-107 45 -76 82 -114 223 -226 70 -56 137 -114 149 -130 18 -25 24 -28 40 -18
11 7 19 15 19 19 0 16 -67 82 -153 150 -128 100 -203 174 -239 236 -39 69
-137 175 -155 168 -8 -3 -13 2 -13 12 0 20 -97 109 -275 252 -250 201 -393
358 -901 985 -231 285 -476 598 -617 786 -96 129 -737 1104 -898 1366 -24 40
-46 73 -49 73 -3 -1 -13 -6 -22 -14z"/>
<path d="M11736 6977 c-16 -12 -13 -21 45 -112 216 -344 776 -1199 847 -1295
285 -384 1027 -1306 1216 -1510 87 -94 223 -217 366 -333 69 -56 158 -132 198
-169 41 -37 78 -65 83 -62 5 3 9 -1 9 -9 0 -7 14 -26 31 -43 17 -16 59 -72 95
-125 63 -95 103 -135 233 -234 35 -27 87 -72 115 -101 46 -46 54 -50 70 -39
17 13 17 15 -9 49 -15 19 -58 60 -96 91 -38 30 -101 80 -139 111 -50 40 -87
82 -127 143 -68 102 -141 184 -160 177 -7 -3 -13 1 -13 10 0 19 -93 106 -260
240 -270 218 -401 361 -906 984 -454 560 -700 885 -862 1136 -60 93 -221 342
-358 554 -138 212 -271 420 -298 463 -26 42 -52 79 -56 82 -4 2 -15 -1 -24 -8z"/>
<path d="M0 6776 c0 -34 16 -58 157 -235 245 -304 506 -606 972 -1121 460
-508 681 -737 1238 -1280 127 -124 259 -258 294 -298 48 -56 68 -72 82 -67 9
4 17 12 17 17 0 30 -304 346 -557 579 -439 406 -1503 1573 -2008 2204 -213
266 -195 248 -195 201z"/>
<path d="M8511 6756 c-9 -11 10 -42 100 -162 62 -82 266 -381 455 -664 410
-617 537 -782 1108 -1449 525 -613 765 -871 1151 -1236 176 -167 383 -367 460
-444 77 -78 146 -141 153 -141 8 0 12 -6 9 -14 -3 -8 6 -24 20 -37 35 -33 382
-422 534 -599 312 -363 409 -495 826 -1120 181 -272 390 -583 465 -690 125
-180 138 -195 169 -198 31 -3 32 -3 18 17 -8 11 -87 125 -175 253 -89 128
-298 438 -464 688 -386 579 -490 721 -799 1080 -187 218 -508 576 -541 604
-17 14 -30 29 -30 33 0 13 -430 436 -700 690 -291 273 -566 572 -1063 1152
-567 662 -690 823 -1112 1456 -327 491 -534 784 -561 792 -6 2 -16 -3 -23 -11z"/>
<path d="M17430 6755 c-10 -13 -6 -24 29 -68 85 -106 248 -340 445 -636 200
-302 201 -303 204 -263 3 39 -8 59 -171 304 -260 392 -465 678 -487 678 -4 0
-13 -7 -20 -15z"/>
<path d="M969 6734 c-11 -13 38 -66 367 -396 640 -642 1028 -1012 1277 -1219
245 -204 643 -622 907 -952 90 -112 120 -135 128 -97 6 33 -348 448 -613 718
-177 181 -252 250 -465 432 -179 152 -494 454 -1026 982 -303 302 -553 548
-556 548 -3 0 -11 -7 -19 -16z"/>
<path d="M9889 6734 c-11 -14 58 -86 556 -583 614 -611 799 -788 1067 -1017
301 -258 594 -560 859 -884 56 -69 115 -142 133 -163 22 -28 36 -37 49 -32 9
4 17 12 17 18 0 14 -200 261 -346 427 -229 260 -448 475 -724 710 -194 165
-456 416 -1006 962 -319 318 -583 578 -586 578 -3 0 -12 -7 -19 -16z"/>
<path d="M7235 6516 c-20 -14 -20 -15 1 -38 11 -13 133 -151 270 -308 137
-156 292 -332 344 -390 273 -302 406 -488 797 -1115 116 -187 242 -387 280
-445 165 -255 704 -939 1041 -1323 91 -103 96 -107 114 -90 18 16 18 17 -5 42
-309 343 -894 1078 -1083 1361 -39 58 -137 212 -218 343 -450 727 -599 939
-886 1257 -52 58 -207 234 -344 390 -319 366 -287 333 -311 316z"/>
<path d="M16150 6515 c-10 -13 -10 -19 2 -33 67 -79 517 -591 599 -682 311
-345 432 -516 911 -1290 165 -265 342 -527 423 -625 l24 -30 1 38 c0 32 -16
60 -113 195 -62 86 -182 270 -266 407 -321 520 -497 787 -662 1005 -91 120
-97 128 -354 416 -88 98 -245 277 -350 397 -104 119 -193 217 -196 217 -4 0
-12 -7 -19 -15z"/>
<path d="M14507 6443 c-21 -21 12 -59 211 -246 119 -112 251 -242 292 -288
257 -286 571 -700 832 -1099 63 -96 163 -249 223 -340 180 -275 278 -399 486
-616 267 -279 556 -617 842 -986 88 -114 167 -208 174 -208 8 0 11 -5 8 -10
-3 -6 27 -56 68 -113 41 -56 133 -199 204 -317 71 -118 158 -261 194 -318 l64
-102 3 40 c2 28 -3 52 -16 73 -314 521 -461 747 -483 747 -4 0 -9 6 -11 14 -5
21 -301 402 -489 626 -193 232 -349 408 -519 585 -241 250 -348 394 -650 870
-234 369 -631 897 -882 1175 -79 88 -529 520 -541 520 -2 0 -7 -3 -10 -7z"/>
<path d="M0 6200 c0 -43 16 -69 249 -420 266 -400 375 -546 713 -951 579 -695
1014 -1177 1338 -1481 118 -112 326 -312 461 -445 135 -134 251 -243 257 -243
7 0 12 -7 12 -15 0 -8 28 -45 63 -82 207 -224 557 -627 723 -833 169 -212 210
-268 575 -815 195 -291 415 -617 488 -723 123 -175 137 -192 164 -192 35 0 54
-33 -153 266 -84 120 -301 442 -483 714 -181 272 -357 531 -390 575 -153 202
-442 548 -657 786 -52 58 -138 153 -190 212 -52 59 -101 107 -108 107 -7 0
-11 4 -8 8 6 10 -412 426 -699 696 -284 268 -568 574 -1053 1140 -543 633
-704 841 -1033 1336 -266 400 -269 404 -269 360z"/>
<path d="M5415 6109 c-4 -11 -5 -22 -3 -23 1 -1 34 -24 72 -51 38 -26 75 -48
83 -48 7 0 13 -5 13 -11 1 -6 38 -38 83 -71 281 -205 499 -419 688 -676 273
-371 412 -539 602 -733 103 -105 108 -108 126 -92 18 17 16 21 -87 125 -190
191 -328 359 -602 732 -190 257 -369 435 -669 663 -63 48 -120 85 -128 82 -7
-3 -13 1 -13 9 0 13 -133 115 -151 115 -4 0 -11 -9 -14 -21z"/>
<path d="M14333 6112 c-10 -17 -2 -25 69 -76 43 -31 84 -54 89 -51 5 4 9 0 9
-7 1 -7 40 -42 88 -78 312 -233 493 -418 748 -760 223 -300 349 -451 518 -627
117 -121 125 -127 142 -111 16 16 11 24 -105 144 -169 176 -293 326 -511 619
-193 259 -278 358 -415 486 -172 160 -430 363 -452 355 -7 -3 -13 1 -13 8 0
13 -110 99 -142 111 -7 3 -18 -3 -25 -13z"/>
<path d="M7445 5817 c-22 -17 -38 6 139 -203 176 -210 397 -510 1081 -1469
315 -442 528 -730 641 -866 120 -144 583 -619 604 -619 10 0 20 -8 23 -19 2
-10 44 -52 93 -94 98 -83 258 -258 358 -390 45 -59 100 -158 184 -328 206
-418 271 -513 545 -802 331 -348 545 -584 907 -1000 19 -22 32 -28 54 -25 l29
3 -80 95 c-175 208 -529 598 -862 950 -286 302 -344 387 -552 808 -132 266
-175 332 -357 534 -101 113 -270 268 -292 268 -5 0 -10 7 -10 15 0 8 -4 15 -9
15 -14 0 -510 518 -599 625 -112 135 -327 424 -637 860 -675 947 -903 1256
-1078 1465 -174 208 -159 193 -182 177z"/>
<path d="M16362 5818 c-7 -7 -12 -16 -12 -21 0 -4 33 -45 73 -90 191 -215 425
-530 1192 -1607 131 -184 295 -411 364 -504 125 -169 126 -169 129 -133 3 34
-9 54 -131 220 -73 100 -241 333 -372 517 -596 837 -883 1229 -1053 1433 -86
103 -169 197 -175 197 -2 0 -8 -5 -15 -12z"/>
<path d="M0 5707 c0 -35 16 -58 173 -245 95 -114 192 -233 217 -264 36 -47 47
-55 62 -47 10 5 18 14 18 19 0 10 -123 163 -313 390 -173 207 -157 191 -157
147z"/>
<path d="M607 5708 c-16 -12 -11 -21 51 -98 142 -176 394 -451 1312 -1435 349
-374 713 -767 809 -873 165 -182 175 -191 193 -176 17 16 15 20 -45 87 -114
130 -396 435 -977 1057 -841 901 -1063 1144 -1234 1350 -44 52 -82 96 -85 98
-4 1 -15 -3 -24 -10z"/>
<path d="M9521 5706 c-10 -11 -2 -26 35 -73 149 -184 440 -502 1308 -1432 351
-377 722 -776 824 -888 151 -166 187 -201 199 -192 7 7 13 18 11 25 -4 18
-265 304 -778 853 -1073 1149 -1423 1531 -1530 1674 -37 49 -50 56 -69 33z"/>
<path d="M3344 5635 c-17 -44 738 -1009 1225 -1565 169 -192 592 -632 775
-804 128 -121 138 -128 154 -112 15 15 2 31 -210 239 -275 269 -504 507 -681
710 -354 404 -856 1029 -1117 1391 -107 149 -134 174 -146 141z"/>
<path d="M12262 5638 c-35 -43 1032 -1378 1452 -1818 214 -223 505 -516 599
-602 82 -76 89 -80 105 -64 15 15 6 26 -142 169 -239 228 -634 643 -830 870
-347 404 -802 975 -1037 1300 -62 86 -118 157 -125 157 -6 0 -16 -6 -22 -12z"/>
<path d="M8456 5465 c-18 -13 -16 -17 31 -72 160 -187 630 -817 1069 -1433
263 -369 358 -510 519 -775 198 -324 330 -513 366 -522 10 -3 16 -10 13 -16
-2 -7 46 -70 107 -142 207 -242 318 -393 528 -718 222 -344 353 -522 730 -992
182 -228 346 -451 496 -677 70 -106 81 -118 107 -118 21 0 27 4 22 13 -4 6
-51 77 -104 157 -159 238 -295 422 -486 660 -348 435 -534 686 -690 932 -199
316 -342 513 -548 756 -66 78 -127 142 -134 142 -7 0 -11 4 -8 8 3 5 -22 44
-56 88 -85 111 -156 219 -293 444 -155 254 -271 428 -528 789 -463 650 -1044
1424 -1108 1478 -11 9 -18 8 -33 -2z"/>
<path d="M17375 5466 c-16 -11 -6 -26 107 -167 102 -128 472 -617 596 -788
l32 -45 0 45 c0 42 -11 59 -236 359 -223 297 -454 593 -473 604 -4 3 -16 0
-26 -8z"/>
<path d="M2067 5396 c-18 -14 -12 -24 94 -158 708 -899 1055 -1286 1494 -1668
298 -258 542 -490 754 -715 101 -107 190 -195 198 -195 8 0 11 -5 8 -10 -4 -6
15 -34 41 -63 82 -90 115 -150 283 -512 83 -178 125 -238 245 -350 153 -142
356 -305 381 -305 4 0 13 -6 19 -14 6 -7 90 -65 186 -128 289 -189 389 -285
663 -636 114 -146 407 -550 443 -611 14 -23 26 -31 46 -31 15 0 28 3 28 6 0 9
-159 239 -279 404 -240 329 -466 599 -591 707 -89 77 -476 337 -489 328 -5 -3
-11 1 -13 8 -2 8 -48 48 -103 89 -152 115 -341 292 -387 362 -22 34 -59 102
-83 151 -219 455 -258 523 -334 588 -15 13 -30 28 -32 34 -2 6 -89 101 -192
211 -191 203 -441 442 -692 662 -315 276 -375 332 -517 484 -260 277 -509 570
-867 1021 -301 380 -282 358 -304 341z"/>
<path d="M10986 5397 c-22 -16 -27 -10 318 -442 531 -666 843 -1009 1201
-1323 394 -346 703 -643 943 -904 34 -38 68 -68 77 -68 9 0 13 -5 10 -10 -4
-6 18 -39 48 -73 67 -77 130 -186 213 -369 97 -213 164 -336 214 -391 115
-128 449 -403 477 -393 7 3 13 -1 13 -8 0 -8 71 -60 157 -116 214 -139 291
-200 408 -321 159 -164 404 -479 645 -827 92 -132 108 -151 133 -152 15 0 27
3 27 6 0 9 -220 322 -348 494 -278 374 -445 561 -617 692 -103 78 -386 259
-396 253 -5 -4 -9 0 -9 7 -1 7 -44 45 -98 85 -110 81 -296 245 -360 318 -27
31 -73 110 -123 215 -184 378 -223 451 -281 521 -33 38 -66 69 -74 69 -8 0
-13 4 -10 9 8 12 -88 116 -333 364 -212 214 -385 376 -691 644 -357 312 -676
667 -1249 1388 -122 154 -235 295 -249 313 -25 31 -29 32 -46 19z"/>
<path d="M0 5315 c0 -31 19 -58 143 -208 79 -94 190 -230 247 -301 189 -233
283 -332 1061 -1106 662 -659 771 -763 785 -753 15 11 11 18 -30 66 -26 30
-341 346 -701 702 -673 665 -869 869 -1045 1085 -208 254 -453 550 -456 550
-2 0 -4 -16 -4 -35z"/>
<path d="M5847 5312 c-15 -16 -12 -23 46 -97 35 -44 168 -224 297 -400 430
-587 680 -875 1390 -1605 206 -212 411 -422 454 -467 44 -46 87 -83 97 -83 9
0 16 -6 15 -14 0 -7 65 -83 145 -167 152 -161 219 -248 439 -569 343 -501 643
-845 1372 -1572 325 -325 339 -338 376 -338 l37 0 -230 224 c-236 230 -700
709 -890 920 -247 276 -417 492 -625 796 -73 107 -170 245 -213 305 -89 121
-361 415 -385 415 -8 0 -12 3 -9 7 8 7 -13 30 -518 548 -388 398 -607 633
-840 900 -201 229 -277 326 -532 672 -224 305 -403 543 -407 543 -2 0 -10 -8
-19 -18z"/>
<path d="M14766 5315 c-21 -16 -23 -14 64 -125 37 -47 171 -228 299 -402 320
-437 495 -650 881 -1068 231 -251 1023 -1060 1037 -1060 7 0 13 -6 13 -13 0
-8 69 -85 153 -173 153 -161 202 -224 483 -634 104 -151 294 -400 373 -490
l40 -45 1 36 c0 30 -12 51 -76 129 -116 144 -228 296 -374 510 -73 107 -165
238 -203 290 -76 103 -344 390 -364 390 -7 0 -12 4 -10 9 1 5 -196 213 -438
463 -516 531 -546 563 -736 773 -329 365 -436 497 -764 945 -198 270 -320 433
-354 472 -3 4 -14 1 -25 -7z"/>
<path d="M6902 5273 c-8 -14 18 -46 138 -172 426 -450 1027 -1164 1346 -1601
54 -74 191 -272 304 -440 238 -354 271 -399 288 -400 6 0 12 -7 12 -15 0 -9
20 -37 44 -63 44 -48 188 -255 446 -642 159 -239 277 -398 496 -671 306 -381
615 -746 922 -1086 153 -170 167 -183 199 -183 l35 0 -53 57 c-289 317 -489
546 -745 853 -405 486 -612 757 -831 1085 -348 521 -453 665 -484 665 -6 0 -8
3 -5 8 2 4 -16 34 -41 67 -25 33 -134 193 -243 355 -109 162 -245 359 -302
437 -329 451 -1033 1284 -1407 1666 -53 53 -99 97 -103 97 -4 0 -11 -8 -16
-17z"/>
<path d="M15821 5277 c-6 -6 -11 -14 -11 -18 0 -4 48 -56 106 -116 148 -150
352 -377 589 -653 506 -592 754 -911 1048 -1350 228 -342 327 -480 343 -480 8
0 14 -7 14 -16 0 -9 21 -39 46 -68 26 -28 71 -87 100 -131 l54 -80 0 46 c0 39
-8 57 -49 115 -26 38 -67 86 -90 107 -22 20 -39 37 -36 37 3 0 -22 37 -56 82
-33 44 -149 214 -258 377 -110 163 -252 368 -318 456 -303 408 -842 1050
-1240 1477 -184 197 -224 233 -242 215z"/>
<path d="M4312 5158 c-7 -7 -12 -16 -12 -20 0 -15 330 -379 480 -529 238 -238
778 -732 791 -723 5 3 9 0 9 -7 0 -6 79 -93 177 -193 295 -303 714 -764 808
-889 51 -67 61 -73 78 -45 13 19 -77 133 -303 383 -385 426 -731 782 -748 771
-6 -3 -12 2 -14 12 -2 10 -64 74 -139 142 -589 539 -680 629 -984 973 -66 75
-122 136 -125 136 -4 1 -11 -4 -18 -11z"/>
<path d="M13228 5154 c-15 -16 -5 -30 145 -198 237 -265 334 -363 616 -625
398 -370 491 -452 501 -446 6 3 10 1 10 -5 0 -7 92 -107 203 -223 319 -332
659 -706 762 -837 32 -41 62 -79 66 -84 8 -9 39 10 39 24 0 52 -1022 1159
-1057 1146 -7 -3 -13 1 -13 8 0 8 -48 58 -107 112 -535 488 -673 622 -930 907
-118 130 -216 237 -217 237 -1 0 -9 -7 -18 -16z"/>
<path d="M12278 5024 c-16 -16 -14 -21 22 -74 43 -64 162 -284 282 -525 242
-484 415 -731 837 -1200 203 -225 541 -565 563 -565 10 0 18 -6 18 -13 0 -7
32 -44 71 -82 39 -39 147 -152 241 -252 94 -101 174 -180 179 -177 5 3 9 -2 9
-11 0 -9 43 -64 97 -123 153 -170 380 -446 601 -732 385 -497 654 -826 925
-1132 110 -124 125 -137 156 -137 l34 -1 -24 29 c-13 16 -81 93 -151 170 -246
274 -498 582 -900 1101 -338 436 -700 863 -725 855 -7 -3 -13 3 -13 13 -1 29
-440 492 -467 492 -7 0 -13 3 -13 8 0 4 -96 104 -213 222 -313 317 -573 610
-759 856 -163 216 -228 326 -455 768 -161 315 -235 449 -277 500 -20 25 -22
26 -38 10z"/>
<path d="M3353 5019 c-8 -8 -3 -24 21 -58 47 -65 119 -197 226 -411 243 -486
349 -659 586 -955 262 -329 832 -935 879 -935 8 0 15 -6 15 -14 0 -7 26 -37
58 -67 31 -29 138 -140 237 -246 99 -107 184 -195 190 -196 5 -1 17 -14 25
-29 8 -15 55 -71 104 -125 137 -150 354 -413 555 -673 441 -568 679 -860 942
-1155 125 -139 137 -150 173 -153 l39 -3 -104 113 c-267 291 -550 632 -889
1073 -393 511 -782 972 -817 969 -7 -1 -13 6 -13 15 0 10 -78 101 -172 203
-180 193 -278 288 -297 288 -6 0 -11 4 -11 8 0 5 -93 103 -207 218 -389 392
-708 765 -891 1040 -86 128 -168 277 -355 641 -170 331 -247 463 -270 463 -7
0 -18 -5 -24 -11z"/>
<path d="M0 4877 c0 -34 22 -68 207 -320 488 -665 771 -1074 948 -1367 173
-288 342 -530 370 -530 8 0 12 -6 10 -12 -3 -7 27 -49 66 -93 201 -229 361
-444 562 -755 230 -355 351 -521 699 -957 228 -285 352 -453 518 -700 83 -125
98 -142 123 -143 15 0 27 3 27 6 0 8 -214 322 -322 473 -49 68 -185 243 -302
390 -286 356 -443 568 -594 796 -69 105 -162 246 -208 315 -134 204 -357 492
-503 649 -23 24 -41 46 -41 48 0 1 -29 40 -63 85 -88 115 -149 207 -305 462
-156 256 -263 415 -539 801 -207 291 -585 808 -628 860 l-24 30 -1 -38z"/>
<path d="M0 4274 c0 -42 7 -57 72 -148 222 -314 698 -910 982 -1233 85 -96 91
-101 108 -86 15 14 16 19 5 32 -8 9 -47 54 -88 101 -317 363 -845 1030 -1017
1288 l-62 93 0 -47z"/>
<path d="M2591 4256 c-10 -12 3 -34 70 -123 46 -59 172 -243 280 -408 109
-165 268 -407 354 -537 186 -282 359 -518 385 -525 10 -3 17 -10 14 -16 -2 -7
41 -61 97 -122 88 -95 363 -433 609 -748 196 -250 494 -530 885 -834 72 -55
164 -133 206 -172 42 -38 79 -67 83 -64 3 3 6 0 6 -8 1 -8 20 -35 43 -60 23
-26 134 -150 246 -275 300 -336 328 -364 371 -364 l35 0 -81 83 c-45 45 -155
165 -245 267 -264 298 -342 381 -356 376 -8 -3 -13 2 -13 13 0 24 -99 116
-265 244 -293 227 -563 469 -728 652 -54 60 -159 187 -232 280 -329 422 -603
745 -632 745 -8 0 -11 5 -8 10 3 6 -12 31 -33 58 -71 84 -204 272 -347 490
-533 811 -690 1039 -721 1049 -6 2 -16 -3 -23 -11z"/>
<path d="M11511 4256 c-10 -11 6 -38 79 -138 51 -67 158 -223 238 -346 599
-910 740 -1112 774 -1112 11 0 15 -5 12 -14 -3 -8 28 -48 73 -97 124 -132 217
-245 637 -779 191 -242 487 -521 861 -812 72 -56 168 -136 214 -177 46 -42 87
-75 92 -74 5 2 9 -4 9 -13 0 -9 33 -51 73 -93 70 -73 451 -496 510 -567 23
-27 36 -34 64 -34 l35 0 -44 49 c-454 512 -614 685 -627 676 -6 -3 -11 2 -11
13 0 22 -108 122 -250 232 -388 300 -694 587 -889 834 -488 619 -687 856 -719
856 -7 0 -11 4 -10 8 2 5 -44 71 -101 148 -95 127 -188 266 -654 974 -164 248
-330 480 -346 480 -5 0 -14 -6 -20 -14z"/>
<path d="M4181 4066 c-9 -11 -4 -23 25 -57 60 -70 219 -288 377 -514 164 -236
300 -393 323 -374 8 6 14 16 14 21 0 5 -34 46 -75 91 -42 45 -142 177 -222
292 -134 191 -343 477 -392 533 -22 25 -34 28 -50 8z"/>
<path d="M13101 4066 c-10 -11 2 -32 59 -103 64 -80 177 -236 407 -563 80
-113 228 -285 247 -285 5 0 14 7 19 17 9 13 -4 32 -69 101 -43 47 -150 186
-237 311 -242 347 -386 536 -407 536 -4 0 -13 -6 -19 -14z"/>
<path d="M6526 3995 c-18 -14 -17 -17 24 -72 149 -199 390 -486 625 -743 191
-210 248 -277 347 -411 44 -60 86 -109 94 -109 9 0 12 -4 9 -10 -6 -9 126
-219 252 -399 109 -159 218 -286 448 -525 483 -503 670 -703 838 -900 65 -78
257 -295 425 -483 292 -327 308 -343 341 -343 l35 0 -36 38 c-79 83 -563 629
-700 789 -186 217 -338 381 -757 818 -397 415 -496 534 -659 792 -98 157 -145
223 -160 223 -7 0 -11 4 -8 9 13 20 -189 278 -380 488 -263 287 -447 503 -613
718 -51 66 -96 123 -99 127 -4 4 -16 0 -26 -7z"/>
<path d="M15446 3995 c-19 -14 -18 -16 7 -52 88 -127 390 -488 622 -743 231
-254 241 -266 347 -407 54 -73 103 -133 108 -133 6 0 10 -7 10 -15 0 -8 19
-42 43 -74 23 -33 76 -112 117 -178 165 -260 243 -354 644 -773 353 -367 557
-586 676 -723 l85 -98 3 36 c3 33 -5 45 -111 163 -155 173 -251 275 -608 647
-429 448 -504 540 -703 862 -31 51 -71 108 -89 127 -18 19 -33 40 -35 46 -3
14 -154 218 -219 295 -27 33 -103 119 -169 190 -238 260 -440 497 -609 715
-49 63 -91 118 -94 122 -3 4 -15 0 -25 -7z"/>
<path d="M945 3950 c-16 -18 -14 -23 57 -102 101 -114 269 -323 637 -790 172
-219 319 -398 326 -398 8 0 12 -6 10 -12 -3 -7 28 -54 67 -104 40 -50 118
-152 173 -228 55 -76 169 -222 254 -324 211 -255 284 -356 414 -572 99 -165
432 -668 808 -1222 119 -175 137 -197 162 -198 15 0 27 2 27 5 0 3 -129 195
-286 426 -367 540 -528 785 -675 1025 -129 213 -225 346 -405 559 -64 77 -164
203 -221 280 -172 233 -277 365 -291 365 -7 0 -11 4 -8 9 9 14 -811 1052 -977
1238 -53 59 -56 61 -72 43z"/>
<path d="M9860 3954 c-16 -19 -33 4 160 -226 85 -102 310 -384 500 -626 209
-267 352 -441 362 -441 10 -1 15 -7 12 -14 -2 -7 33 -61 78 -119 46 -58 123
-161 173 -229 49 -68 155 -202 234 -298 201 -242 292 -365 395 -537 116 -193
308 -487 591 -904 125 -184 261 -386 303 -447 67 -101 78 -113 105 -113 l29 0
-17 27 c-10 16 -108 161 -218 323 -353 518 -611 910 -728 1103 -128 212 -216
333 -417 575 -77 92 -180 223 -230 292 -156 213 -256 339 -270 340 -7 0 -11 4
-8 8 9 16 -934 1204 -1016 1280 -23 21 -26 21 -38 6z"/>
<path d="M1 3832 c-1 -41 9 -57 157 -255 208 -278 241 -316 530 -620 245 -258
287 -297 316 -297 9 0 13 -6 10 -14 -3 -8 31 -44 89 -94 99 -86 260 -260 360
-389 39 -52 97 -156 177 -318 130 -260 232 -439 317 -552 29 -39 122 -143 205
-230 290 -304 744 -803 892 -981 62 -73 73 -82 103 -82 l34 0 -78 92 c-199
234 -641 719 -913 1004 -236 246 -294 333 -508 760 -143 284 -182 342 -369
549 -98 109 -260 255 -282 255 -6 0 -11 7 -11 14 0 8 -15 27 -34 41 -42 32
-493 506 -578 607 -52 62 -349 454 -400 528 l-17 25 0 -43z"/>
<path d="M3458 3524 c-15 -18 -13 -22 38 -79 60 -65 324 -379 528 -628 71 -86
135 -157 143 -157 7 0 13 -6 13 -14 0 -8 20 -36 43 -62 85 -95 266 -358 432
-626 155 -250 275 -395 435 -522 116 -93 319 -276 419 -379 30 -31 58 -54 63
-51 4 3 8 0 8 -6 0 -6 112 -129 248 -273 137 -144 345 -367 463 -494 198 -216
217 -233 248 -233 l34 0 -44 48 c-452 497 -918 984 -935 978 -9 -3 -14 2 -14
13 0 31 -292 306 -481 454 -136 105 -251 252 -452 570 -197 315 -391 581 -434
597 -8 3 -15 10 -15 15 0 15 -543 671 -665 804 -56 61 -59 62 -75 45z"/>
<path d="M12377 3523 c-16 -19 -14 -23 60 -104 75 -82 221 -257 496 -591 76
-93 145 -168 153 -168 8 0 14 -8 14 -18 0 -10 12 -29 26 -43 63 -58 245 -317
423 -602 176 -283 307 -445 440 -546 93 -71 228 -191 383 -339 63 -61 118
-109 122 -105 3 3 6 0 6 -8 0 -8 89 -106 196 -219 108 -113 316 -334 462 -493
249 -269 267 -287 300 -287 l34 0 -103 112 c-653 705 -859 920 -876 914 -8 -3
-13 2 -13 14 0 29 -327 334 -496 462 -114 87 -246 254 -415 525 -193 308 -364
551 -433 611 -20 18 -34 32 -31 32 3 0 -39 53 -93 118 -54 64 -173 207 -263
317 -90 110 -200 240 -244 289 -44 49 -91 102 -105 118 -25 29 -26 29 -43 11z"/>
<path d="M0 3385 c0 -44 42 -101 248 -341 94 -108 108 -131 158 -244 30 -69
61 -130 69 -136 8 -6 12 -14 9 -17 -8 -8 115 -242 183 -347 31 -47 76 -109
100 -138 43 -50 46 -52 64 -36 18 16 17 18 -25 68 -109 129 -281 439 -386 697
-15 37 -54 93 -113 160 -49 57 -135 160 -190 229 -55 69 -104 129 -109 135 -4
5 -8 -8 -8 -30z"/>
<path d="M5005 3014 c-16 -12 -15 -16 15 -54 72 -91 361 -300 414 -300 16 0
24 -5 21 -12 -5 -13 92 -82 108 -78 5 1 14 -5 20 -14 7 -8 57 -48 112 -89 308
-228 687 -658 1076 -1219 41 -59 78 -106 83 -105 5 2 14 10 19 18 7 11 -13 46
-78 139 -308 438 -622 816 -860 1033 -130 119 -345 283 -345 263 0 -2 -14 9
-32 26 -17 16 -44 32 -60 35 -15 3 -28 11 -28 18 0 7 -7 16 -16 19 -55 21
-286 188 -353 255 -69 69 -80 76 -96 65z"/>
<path d="M13924 3015 c-13 -9 -14 -16 -6 -32 38 -70 378 -323 434 -323 19 0
26 -4 22 -13 -5 -14 99 -85 117 -79 5 1 9 -2 9 -7 0 -4 51 -46 113 -91 136
-101 445 -406 601 -595 128 -155 337 -430 460 -607 79 -113 91 -126 108 -117
12 6 17 17 14 26 -9 24 -233 335 -351 488 -260 338 -510 608 -720 781 -70 57
-188 142 -204 146 -7 2 -27 16 -44 31 -17 16 -43 31 -59 34 -15 3 -28 9 -28
14 0 4 -66 51 -147 105 -90 60 -176 126 -225 174 -66 65 -81 75 -94 65z"/>
<path d="M5702 2978 c-8 -8 6 -30 60 -87 39 -42 98 -110 131 -151 33 -41 66
-76 73 -78 8 -2 12 -8 9 -13 -8 -12 142 -212 248 -329 47 -53 154 -158 237
-235 237 -216 426 -409 504 -515 66 -88 129 -190 347 -560 41 -69 96 -155 124
-192 78 -103 278 -320 534 -580 218 -221 237 -238 269 -238 35 0 32 3 -199
237 -257 260 -450 467 -541 582 -32 40 -104 151 -160 245 -201 341 -264 443
-336 539 -79 106 -272 303 -511 522 -164 150 -308 307 -410 448 -35 48 -67 87
-72 87 -5 0 -9 6 -9 13 0 29 -249 317 -274 317 -6 0 -17 -5 -24 -12z"/>
<path d="M14621 2977 c-8 -11 10 -36 83 -115 51 -55 110 -123 130 -151 21 -28
44 -51 52 -51 9 0 12 -5 9 -10 -9 -15 127 -197 242 -325 55 -60 171 -176 259
-256 87 -81 227 -216 309 -300 171 -175 242 -275 444 -622 154 -264 174 -296
250 -387 99 -118 362 -399 551 -588 160 -159 175 -172 209 -172 36 0 34 2
-205 243 -253 254 -443 457 -537 574 -31 38 -129 193 -218 344 -89 151 -194
321 -233 379 -80 119 -282 331 -540 569 -181 166 -308 303 -409 441 -39 52
-76 100 -83 106 -8 6 -14 15 -14 19 0 24 -254 315 -275 315 -7 0 -18 -6 -24
-13z"/>
<path d="M7053 2844 c-9 -4 -8 -14 2 -43 24 -70 65 -141 81 -141 8 0 12 -5 9
-10 -11 -18 23 -60 160 -195 88 -87 139 -146 155 -179 53 -111 245 -329 1055
-1195 203 -218 515 -550 693 -739 309 -326 326 -342 361 -342 l36 0 -76 78
c-220 225 -1302 1381 -1613 1722 -232 254 -371 423 -409 494 -22 43 -70 99
-162 191 -71 72 -139 141 -150 155 -19 24 -88 157 -99 193 -5 17 -19 20 -43
11z"/>
<path d="M15971 2841 c-12 -8 -7 -25 27 -95 23 -47 46 -86 52 -86 5 0 10 -10
10 -21 0 -14 46 -67 134 -154 124 -124 196 -209 196 -234 0 -24 219 -281 490
-576 218 -238 990 -1064 1127 -1207 l103 -106 0 35 c0 32 -19 55 -218 266
-948 1006 -1426 1535 -1453 1605 -20 50 -77 120 -208 251 -128 128 -139 142
-181 233 -45 97 -52 106 -79 89z"/>
<path d="M0 2763 c0 -39 40 -103 65 -103 8 0 12 -6 9 -13 -2 -7 17 -37 44 -67
43 -49 270 -377 512 -740 226 -339 847 -1103 1320 -1623 80 -88 156 -173 170
-189 20 -23 32 -29 57 -26 32 3 31 4 -150 204 -297 326 -623 711 -933 1099
-216 269 -321 411 -444 595 -364 546 -518 760 -546 760 -6 0 -11 6 -11 13 0
12 -81 127 -89 127 -2 0 -4 -16 -4 -37z"/>
<path d="M2521 2566 c-9 -11 10 -40 92 -142 129 -161 233 -310 474 -679 238
-365 301 -468 447 -735 320 -582 383 -677 638 -973 27 -32 39 -38 65 -35 l31
3 -110 125 c-185 212 -268 340 -533 820 -92 168 -200 357 -238 420 -92 149
-462 714 -558 851 -101 143 -271 358 -285 359 -6 0 -17 -6 -23 -14z"/>
<path d="M6693 2569 c-8 -8 8 -40 61 -118 40 -58 108 -167 151 -241 319 -553
358 -605 662 -891 388 -365 600 -548 861 -742 223 -166 320 -247 514 -430 137
-128 162 -148 186 -144 25 3 19 12 -118 146 -175 173 -318 294 -550 467 -267
198 -541 435 -911 789 -242 231 -284 287 -539 725 -157 269 -275 450 -294 450
-7 0 -17 -5 -23 -11z"/>
<path d="M11441 2566 c-10 -12 10 -42 106 -163 120 -150 331 -458 575 -838
163 -255 207 -329 383 -650 248 -453 334 -585 514 -796 94 -110 105 -119 137
-119 l35 0 -98 111 c-194 219 -292 368 -553 844 -216 394 -316 555 -664 1075
-159 237 -395 550 -415 550 -5 0 -14 -6 -20 -14z"/>
<path d="M15610 2565 c-10 -12 -5 -22 23 -57 47 -59 103 -147 242 -388 263
-453 313 -520 578 -772 371 -351 627 -573 904 -780 235 -175 333 -258 505
-426 135 -133 149 -143 179 -140 l33 3 -129 129 c-174 172 -312 290 -540 461
-298 223 -499 396 -888 762 -263 248 -319 317 -491 607 -62 105 -155 262 -207
349 -92 154 -171 267 -188 267 -5 0 -14 -7 -21 -15z"/>
<path d="M832 2508 c-7 -7 -12 -15 -12 -19 0 -3 88 -115 195 -249 219 -273
380 -495 504 -694 74 -118 87 -134 103 -125 10 5 18 13 18 18 0 16 -168 276
-279 431 -103 146 -494 642 -510 648 -4 1 -12 -3 -19 -10z"/>
<path d="M9747 2506 c-16 -13 -6 -29 131 -197 266 -330 446 -578 597 -822 41
-67 49 -76 64 -65 9 7 18 13 20 15 10 6 -210 341 -337 513 -95 129 -444 569
-452 569 -3 0 -13 -6 -23 -13z"/>
<path d="M0 2285 c0 -43 9 -64 92 -199 278 -457 432 -668 811 -1109 281 -327
709 -786 816 -876 48 -41 50 -41 61 -21 10 19 1 30 -88 115 -209 199 -664 703
-961 1065 -247 301 -361 464 -610 875 l-121 199 0 -49z"/>
<path d="M3691 2306 c-10 -12 7 -37 87 -133 197 -236 492 -558 877 -957 273
-283 331 -345 595 -636 98 -107 212 -228 254 -269 42 -40 76 -75 76 -78 0 -3
29 -44 64 -92 35 -47 71 -98 81 -114 12 -19 26 -27 46 -27 16 0 29 2 29 5 0 6
-88 130 -147 207 -24 32 -51 58 -59 58 -8 0 -14 8 -14 18 0 10 -21 38 -46 62
-26 25 -157 167 -293 315 -135 149 -359 387 -496 530 -487 505 -850 903 -1001
1098 -25 30 -36 33 -53 13z"/>
<path d="M12610 2305 c-10 -12 7 -38 108 -157 212 -253 563 -633 942 -1023
102 -104 277 -291 389 -415 261 -287 430 -462 442 -454 23 14 6 53 -47 104
-31 30 -167 176 -303 325 -135 148 -363 391 -507 540 -403 417 -692 732 -898
978 -54 64 -102 117 -106 117 -4 0 -13 -7 -20 -15z"/>
<path d="M3227 1982 c-16 -17 -14 -20 24 -58 22 -21 88 -97 147 -169 59 -71
147 -177 196 -234 148 -174 223 -300 471 -791 166 -330 232 -450 301 -548 48
-66 55 -70 73 -48 10 12 2 30 -42 93 -73 106 -128 205 -310 568 -230 458 -305
582 -453 756 -49 57 -137 163 -196 234 -59 72 -126 149 -151 173 -42 41 -44
42 -60 24z"/>
<path d="M12140 1985 c-10 -12 -3 -25 42 -74 31 -32 104 -119 164 -192 60 -73
139 -168 176 -212 133 -154 188 -246 428 -719 200 -392 297 -565 356 -634 31
-37 34 -38 50 -22 16 16 15 19 -13 55 -72 92 -184 294 -383 693 -182 363 -271
511 -393 652 -35 40 -114 135 -175 210 -123 150 -220 258 -232 258 -4 0 -13
-7 -20 -15z"/>
<path d="M7417 1903 c-16 -18 -12 -25 105 -159 148 -168 442 -469 632 -646
132 -123 140 -128 157 -112 18 16 16 20 -64 92 -230 211 -605 598 -788 815
-24 28 -25 28 -42 10z"/>
<path d="M16337 1905 c-9 -7 -17 -15 -17 -19 0 -3 72 -87 161 -186 179 -201
397 -423 597 -608 112 -104 135 -122 148 -111 8 7 14 17 12 23 -2 6 -59 63
-127 126 -232 214 -487 478 -716 742 -35 40 -43 44 -58 33z"/>
<path d="M0 1683 c0 -37 9 -53 87 -153 100 -129 293 -357 408 -480 216 -234
670 -700 841 -865 175 -169 195 -185 228 -185 34 0 32 3 -162 191 -213 207
-608 610 -815 834 -214 231 -408 462 -571 680 -14 19 -15 18 -16 -22z"/>
<path d="M1166 1665 c-18 -14 -18 -15 6 -48 53 -68 287 -327 417 -461 176
-179 383 -374 651 -611 118 -104 256 -228 308 -273 76 -69 95 -82 107 -72 8 7
15 18 14 24 0 6 -59 63 -132 126 -650 568 -1016 926 -1317 1287 -32 38 -37 41
-54 28z"/>
<path d="M10086 1667 c-11 -8 -17 -19 -15 -24 10 -26 281 -326 464 -512 217
-221 394 -386 779 -725 221 -194 250 -216 263 -203 9 8 12 20 9 26 -4 6 -138
126 -299 268 -160 141 -354 316 -432 389 -245 230 -562 562 -721 756 -27 34
-32 36 -48 25z"/>
<path d="M0 1138 c0 -32 9 -47 58 -100 32 -35 118 -133 192 -218 73 -85 266
-305 429 -487 280 -315 298 -333 330 -333 l35 0 -26 28 c-91 98 -574 643 -725
817 -100 116 -207 237 -237 270 l-55 60 -1 -37z"/>
<path d="M6947 953 c-16 -19 -12 -25 110 -159 70 -76 274 -286 454 -466 315
-317 328 -328 365 -328 l38 0 -244 239 c-204 199 -530 535 -671 694 -34 38
-35 38 -52 20z"/>
<path d="M15866 955 c-18 -13 -18 -15 4 -42 52 -67 380 -409 623 -650 250
-248 266 -263 301 -263 37 0 36 1 -205 237 -228 225 -510 516 -644 665 -55 61
-62 65 -79 53z"/>
<path d="M2 684 c3 -39 20 -59 307 -362 285 -301 307 -322 339 -322 l35 0 -69
73 c-118 125 -587 621 -601 637 -12 13 -14 10 -11 -26z"/>
<path d="M7936 672 c-16 -19 -14 -22 71 -102 48 -45 178 -160 288 -254 391
-336 366 -316 410 -316 22 0 35 4 30 8 -6 5 -113 96 -240 203 -255 215 -389
333 -481 421 -59 57 -61 58 -78 40z"/>
<path d="M16857 672 c-16 -17 -13 -22 56 -88 96 -94 199 -184 456 -402 198
-168 218 -182 253 -182 38 0 37 2 -199 202 -279 236 -382 326 -479 420 -67 66
-71 68 -87 50z"/>
<path d="M14503 254 c-8 -21 0 -34 87 -152 64 -89 78 -102 103 -102 l29 0 -18
28 c-46 71 -177 242 -185 242 -5 0 -12 -7 -16 -16z"/>
</g>
</svg>
