<?xml version="1.0" standalone="no"?>
<!DOCTYPE svg PUBLIC "-//W3C//DTD SVG 20010904//EN"
 "http://www.w3.org/TR/2001/REC-SVG-20010904/DTD/svg10.dtd">
<svg version="1.0" xmlns="http://www.w3.org/2000/svg"
 width="1811.000000pt" height="1217.000000pt" viewBox="0 0 1811.000000 1217.000000"
 preserveAspectRatio="xMidYMid meet">
<metadata>
Created by potrace 1.13, written by Peter Selinger 2001-2015
</metadata>
<g transform="translate(0.000000,1217.000000) scale(0.100000,-0.100000)"
fill="#000000" stroke="none">
<path d="M615 12152 c106 -97 186 -162 199 -162 9 0 16 -6 14 -14 -2 -8 51
-61 117 -119 89 -78 123 -102 133 -95 6 6 12 16 12 23 0 12 -187 181 -224 202
-12 6 -21 15 -20 20 0 4 -39 43 -87 86 -76 67 -93 77 -126 77 -37 0 -37 0 -18
-18z"/>
<path d="M946 12161 c84 -78 198 -171 210 -171 8 0 14 -6 12 -13 -2 -8 177
-171 397 -363 388 -340 562 -510 590 -578 23 -55 27 -115 15 -179 -15 -73 -8
-92 67 -189 100 -131 871 -905 1390 -1397 83 -79 154 -154 157 -166 3 -13 -1
-42 -9 -65 -39 -110 -4 -185 203 -434 46 -56 89 -102 96 -104 7 -2 18 3 24 11
9 10 -10 38 -84 127 -116 139 -192 252 -200 297 -4 20 0 57 10 91 22 81 10
117 -61 184 -198 185 -344 327 -807 787 -525 523 -658 662 -715 748 -28 41
-31 53 -24 83 15 64 8 172 -14 222 -38 85 -197 243 -592 588 -211 184 -392
340 -403 346 -10 5 -16 12 -14 15 3 3 -37 42 -89 87 -82 71 -99 82 -131 82
-23 0 -34 -4 -28 -9z"/>
<path d="M1371 12166 c115 -102 205 -176 215 -176 8 0 14 -7 14 -15 0 -8 129
-128 287 -266 260 -227 289 -249 300 -232 7 9 12 20 11 24 -5 13 -551 484
-564 487 -8 2 -12 7 -9 11 2 5 -38 45 -89 90 -82 71 -99 81 -132 81 -20 0 -35
-2 -33 -4z"/>
<path d="M2556 12148 c49 -60 150 -158 162 -158 7 0 10 -5 6 -11 -3 -6 22 -40
58 -78 35 -36 100 -106 144 -156 43 -49 139 -153 212 -230 74 -77 156 -174
184 -215 60 -89 60 -100 -1 -241 -57 -134 -56 -165 9 -261 27 -40 99 -127 160
-193 60 -66 280 -309 488 -540 207 -230 519 -576 692 -768 173 -191 329 -368
347 -393 44 -61 49 -111 22 -204 -33 -114 -30 -173 13 -262 83 -166 163 -255
993 -1098 279 -284 504 -520 526 -553 52 -80 65 -146 44 -227 -14 -56 -14 -67
0 -123 37 -144 116 -238 695 -822 892 -901 967 -978 989 -1023 20 -39 22 -53
16 -131 -8 -102 1 -129 83 -227 62 -74 291 -279 309 -278 7 1 13 -4 13 -11 0
-6 26 -36 58 -66 110 -104 1044 -914 1061 -920 9 -3 16 -11 16 -18 0 -7 54
-59 120 -116 89 -77 123 -101 132 -93 7 6 13 16 13 22 0 11 -169 164 -218 197
-13 9 -23 19 -23 23 1 4 -232 209 -516 457 -285 249 -541 474 -570 501 -28 28
-56 47 -62 44 -6 -4 -11 -1 -11 7 0 8 -54 63 -119 122 -124 111 -185 177 -222
239 -19 33 -21 45 -14 121 6 77 5 89 -18 139 -32 70 -52 91 -837 881 -652 656
-771 786 -823 898 -35 75 -39 110 -21 182 13 51 14 73 5 117 -23 111 -58 152
-560 662 -860 874 -963 989 -1028 1146 -28 69 -28 85 -1 168 26 79 28 181 6
232 -8 19 -69 94 -134 165 -66 72 -388 429 -716 795 -329 366 -645 717 -704
780 -143 155 -204 242 -204 290 0 22 17 75 40 128 53 119 59 165 30 223 -35
67 -102 150 -235 288 -66 69 -168 180 -226 246 -58 66 -126 138 -150 160 -24
22 -42 40 -39 41 3 1 -30 38 -73 83 -65 68 -82 81 -109 81 l-31 0 19 -22z"/>
<path d="M2975 12080 c49 -49 96 -90 103 -90 8 0 12 -6 9 -14 -3 -8 12 -30 35
-52 22 -22 104 -111 182 -199 77 -88 196 -217 263 -287 67 -69 129 -141 139
-159 22 -44 20 -116 -6 -219 -39 -151 -17 -257 86 -411 80 -120 164 -216 417
-475 297 -307 444 -469 607 -669 40 -49 157 -180 260 -290 401 -428 400 -427
359 -580 -40 -151 -27 -219 66 -345 26 -36 465 -481 975 -990 572 -571 937
-942 953 -970 44 -76 52 -129 33 -207 -15 -62 -15 -73 -1 -127 20 -75 61 -147
139 -244 83 -104 1095 -1127 1112 -1126 8 1 14 -3 14 -9 0 -6 92 -103 204
-216 124 -126 212 -223 226 -250 20 -39 21 -53 15 -131 -8 -99 -2 -116 69
-209 67 -89 919 -851 951 -851 9 0 15 -7 13 -15 -2 -8 151 -148 377 -345 396
-344 593 -538 616 -607 12 -34 13 -74 6 -219 -2 -55 48 -124 245 -334 164
-175 1030 -1030 1235 -1220 125 -115 145 -145 132 -193 -7 -25 -5 -27 21 -27
24 0 29 5 32 27 9 71 -5 93 -144 223 -234 220 -985 959 -1163 1145 -198 207
-257 273 -292 332 -23 40 -24 46 -13 99 13 61 9 111 -16 186 -26 81 -176 231
-589 592 -209 183 -391 340 -405 349 -14 10 -24 21 -24 25 1 4 -112 106 -250
227 -319 278 -641 573 -683 624 -69 84 -76 102 -68 195 11 126 -5 154 -208
367 -217 229 -263 273 -276 265 -6 -4 -11 -2 -11 5 0 7 -231 245 -513 528
-512 515 -620 633 -671 736 -42 81 -47 118 -29 196 18 83 8 147 -38 229 -24
42 -258 281 -959 980 -510 509 -949 954 -975 990 -85 116 -92 154 -56 310 25
108 21 149 -22 222 -27 46 -171 208 -406 458 -80 86 -194 214 -252 285 -137
168 -298 343 -580 635 -322 332 -417 453 -466 587 -28 79 -29 131 -2 242 27
113 27 186 0 240 -12 23 -77 99 -144 169 -67 70 -185 199 -263 287 -78 88
-162 179 -187 203 -26 23 -43 42 -39 42 3 0 -31 38 -78 85 -74 74 -89 85 -120
85 l-35 0 90 -90z"/>
<path d="M3330 12080 c52 -49 101 -90 108 -90 6 0 12 -6 12 -14 0 -8 34 -45
77 -83 101 -90 499 -536 542 -608 53 -87 59 -126 53 -326 -6 -200 7 -284 59
-388 36 -73 57 -95 507 -569 338 -356 387 -400 387 -351 0 9 -156 180 -346
380 -449 473 -469 495 -501 560 -52 102 -61 165 -55 364 6 231 -9 296 -99 413
-54 71 -417 473 -475 526 -30 27 -107 101 -172 163 -108 102 -122 113 -155
113 l-37 -1 95 -89z"/>
<path d="M4211 12083 c46 -49 89 -89 96 -91 7 -2 13 -11 13 -20 0 -9 42 -59
93 -113 50 -53 128 -136 172 -185 76 -83 220 -214 525 -479 170 -147 278 -252
296 -287 18 -35 18 -99 -1 -168 -8 -30 -15 -71 -15 -90 0 -45 47 -142 97 -200
38 -44 797 -798 1150 -1142 204 -199 200 -192 189 -326 -21 -245 -22 -226 13
-297 37 -75 71 -111 340 -360 107 -99 350 -333 539 -520 357 -352 446 -455
525 -610 29 -57 30 -66 31 -190 1 -156 6 -166 111 -271 67 -66 310 -244 322
-236 3 2 9 0 12 -6 3 -5 56 -46 116 -92 308 -233 444 -387 479 -540 9 -36 29
-141 45 -233 22 -122 38 -183 58 -220 19 -36 78 -101 188 -207 88 -85 394
-388 679 -672 406 -404 522 -515 533 -507 7 7 13 17 13 23 0 11 -911 923
-1191 1191 -80 77 -158 161 -172 186 -25 42 -67 228 -92 399 -22 151 -119 296
-308 458 -138 118 -320 253 -334 248 -7 -3 -13 0 -13 7 0 7 -50 46 -111 87
-143 97 -264 213 -279 270 -6 23 -10 90 -8 149 3 105 2 108 -31 172 -18 35
-67 113 -109 172 -63 90 -136 168 -437 466 -199 196 -445 433 -546 527 -246
226 -283 265 -315 330 -24 50 -26 61 -20 127 4 40 9 117 12 172 5 92 4 103
-18 141 -12 23 -117 133 -233 245 -447 433 -1105 1092 -1135 1137 -47 71 -56
113 -41 180 7 32 15 85 18 118 9 109 -13 136 -337 418 -303 263 -441 389 -510
465 -36 40 -112 123 -170 186 -58 62 -138 149 -178 194 -66 72 -78 81 -109 81
l-36 0 84 -87z"/>
<path d="M4510 12163 c0 -5 38 -48 84 -97 46 -49 89 -98 96 -110 6 -11 33 -46
60 -76 46 -52 50 -54 66 -38 16 16 15 20 -18 61 -20 24 -48 54 -62 68 -14 13
-26 28 -26 33 0 4 -32 44 -71 87 -58 64 -77 79 -100 79 -16 0 -29 -3 -29 -7z"/>
<path d="M4960 12164 c0 -13 164 -174 178 -174 8 0 12 -6 9 -12 -2 -7 19 -39
47 -71 51 -56 53 -57 69 -39 17 19 16 22 -38 78 -30 33 -55 60 -55 62 0 1 -32
39 -72 82 -62 69 -76 80 -105 80 -18 0 -33 -3 -33 -6z"/>
<path d="M5483 12073 c53 -53 97 -98 97 -101 0 -2 46 -54 103 -115 95 -102
267 -267 484 -464 98 -89 168 -183 179 -240 4 -22 -1 -66 -14 -121 -11 -48
-23 -108 -26 -133 -11 -99 -20 -88 444 -549 416 -414 497 -496 762 -783 196
-212 257 -286 264 -323 4 -22 -1 -58 -15 -103 -31 -100 -28 -174 9 -247 27
-56 341 -410 714 -807 106 -113 112 -118 128 -100 16 17 11 25 -104 148 -343
367 -663 726 -689 770 -36 62 -38 117 -7 236 36 139 40 131 -319 521 -103 112
-397 413 -655 670 -257 257 -472 479 -478 493 -12 31 -7 77 22 198 41 174 1
248 -260 479 -125 110 -512 494 -512 507 0 3 -35 41 -78 84 -67 67 -82 77
-112 77 l-35 0 98 -97z"/>
<path d="M7060 12080 c52 -49 101 -89 109 -90 7 0 11 -6 8 -14 -3 -8 22 -40
59 -77 61 -60 65 -63 81 -46 17 17 15 21 -48 82 -36 36 -64 66 -62 68 2 3 -35
41 -82 86 -76 71 -91 81 -123 81 l-37 0 95 -90z"/>
<path d="M7496 12080 c60 -49 114 -90 121 -90 7 0 13 -6 13 -14 0 -7 27 -36
59 -65 33 -28 74 -76 91 -106 l31 -55 -35 -58 c-77 -124 -53 -168 236 -437
315 -295 495 -476 503 -507 4 -17 -2 -52 -19 -100 -37 -109 -30 -129 96 -250
56 -54 105 -98 110 -98 4 0 21 -13 36 -29 15 -16 131 -120 257 -232 342 -303
708 -632 809 -729 125 -119 241 -262 284 -349 32 -65 37 -85 42 -175 4 -68 12
-112 24 -136 10 -19 183 -200 384 -402 348 -350 367 -367 384 -351 18 16 2 34
-345 382 -201 201 -371 377 -378 391 -7 14 -16 71 -20 127 -5 94 -9 110 -47
185 -48 98 -158 234 -298 368 -239 230 -1082 975 -1100 974 -8 -1 -14 4 -14
10 0 6 -39 47 -86 91 -48 43 -93 93 -100 111 -12 29 -11 39 13 107 42 116 37
127 -161 322 -89 88 -248 241 -354 339 -193 179 -242 238 -242 290 0 16 16 54
36 86 27 43 34 64 29 82 -15 50 -67 127 -113 168 -26 23 -63 57 -82 75 -19 18
-71 63 -115 99 -68 56 -85 66 -118 66 l-39 0 108 -90z"/>
<path d="M8960 12080 c52 -49 100 -89 107 -90 7 0 10 -6 7 -13 -2 -7 189 -205
460 -473 456 -452 465 -461 481 -517 27 -94 9 -157 -80 -288 -30 -43 -57 -94
-61 -114 -10 -58 27 -116 171 -265 72 -74 312 -326 535 -560 222 -234 490
-513 594 -620 203 -209 264 -284 304 -369 23 -51 24 -59 18 -172 -10 -160 0
-181 141 -314 697 -656 1492 -1475 1553 -1601 23 -46 25 -95 9 -194 -9 -55 -9
-79 1 -117 16 -58 20 -62 1082 -1130 405 -407 753 -763 772 -791 20 -27 47
-75 62 -106 22 -49 26 -69 23 -134 -9 -232 -7 -253 29 -309 21 -32 96 -107
195 -195 233 -206 531 -476 687 -621 74 -70 141 -127 149 -127 7 0 11 -6 8
-14 -3 -8 22 -40 59 -77 61 -60 65 -63 81 -46 17 17 15 21 -48 82 -36 36 -65
66 -62 68 7 8 -483 457 -890 816 -58 52 -119 112 -134 135 -32 48 -40 122 -25
229 16 119 -18 235 -102 342 -17 22 -346 357 -731 745 -1048 1055 -1082 1090
-1100 1134 -14 33 -15 50 -4 130 15 112 7 170 -31 229 -66 104 -346 403 -830
887 -283 283 -577 570 -652 638 -75 68 -149 142 -165 164 -28 41 -28 43 -28
187 0 139 -1 149 -26 196 -48 90 -114 169 -301 361 -101 104 -366 380 -588
614 -222 234 -465 488 -540 565 -75 77 -144 157 -154 178 -22 48 -15 72 50
162 62 88 87 154 87 235 1 117 -4 124 -391 509 -191 190 -399 397 -463 458
-64 62 -115 114 -113 116 2 2 -34 40 -80 85 -76 74 -87 82 -122 82 l-39 -1 95
-89z"/>
<path d="M9630 12167 c0 -11 201 -177 213 -177 8 0 14 -7 13 -15 0 -8 53 -62
119 -119 107 -94 121 -104 133 -89 6 9 12 20 12 23 0 8 -180 166 -218 191 -13
9 -23 19 -23 23 1 4 -39 42 -89 86 -76 67 -96 80 -125 80 -19 0 -35 -2 -35 -3z"/>
<path d="M9985 12152 c106 -97 186 -162 199 -162 9 0 16 -6 14 -14 -2 -8 157
-153 367 -335 343 -299 524 -470 595 -564 41 -55 56 -134 40 -217 -12 -61 -11
-69 9 -108 11 -23 55 -83 98 -134 87 -106 999 -1019 1300 -1301 124 -116 203
-198 205 -212 3 -13 -1 -41 -8 -62 -39 -111 7 -207 220 -458 72 -85 86 -94
104 -72 9 11 -4 31 -60 98 -103 121 -188 237 -210 288 -20 44 -20 77 -1 151
19 72 6 93 -154 245 -488 462 -1233 1208 -1376 1377 -84 100 -90 116 -76 188
13 65 1 158 -28 213 -36 71 -232 261 -590 574 -211 183 -390 336 -398 339 -8
4 -13 9 -10 13 2 4 -38 44 -90 89 -82 71 -100 82 -132 82 -37 0 -37 0 -18 -18z"/>
<path d="M10406 12161 c63 -60 200 -171 211 -171 8 0 13 -6 11 -13 -2 -7 127
-127 286 -266 266 -232 291 -252 303 -235 7 10 12 21 11 25 -5 10 -538 473
-559 485 -11 5 -17 12 -14 15 3 3 -37 43 -89 87 -82 72 -99 82 -132 82 -23 0
-34 -4 -28 -9z"/>
<path d="M11570 12162 c0 -13 165 -172 178 -172 7 0 10 -4 7 -10 -6 -10 171
-211 370 -419 142 -149 214 -234 251 -296 32 -56 29 -83 -28 -210 -49 -109
-52 -155 -14 -219 38 -66 127 -173 258 -311 62 -67 380 -419 707 -784 327
-365 630 -702 673 -748 43 -47 86 -99 95 -116 23 -45 20 -130 -7 -211 -29 -87
-24 -134 25 -233 66 -133 171 -255 569 -663 936 -959 940 -962 967 -1020 37
-78 41 -112 23 -185 -27 -107 2 -192 118 -346 37 -49 361 -385 788 -818 399
-403 741 -756 760 -783 35 -50 35 -51 32 -149 -3 -114 6 -138 81 -230 60 -73
304 -292 317 -284 5 3 10 0 10 -7 0 -8 24 -36 53 -64 72 -69 294 -264 301
-264 3 0 6 13 6 29 0 24 -17 44 -107 122 -60 51 -136 120 -170 152 -34 33 -67
56 -72 52 -6 -3 -11 0 -11 8 0 8 -55 64 -121 123 -122 109 -196 191 -226 247
-12 24 -14 48 -8 114 6 79 5 88 -21 141 -30 62 -70 104 -995 1037 -579 585
-648 664 -685 792 -14 48 -14 60 1 124 14 65 14 76 0 132 -31 121 -17 105
-645 742 -711 722 -825 847 -905 990 -19 33 -39 81 -46 106 -11 42 -10 55 11
125 30 101 30 185 1 242 -12 23 -76 102 -144 175 -67 73 -386 427 -710 787
-323 360 -637 709 -698 775 -137 150 -203 243 -202 288 0 18 19 73 41 122 57
125 61 161 29 227 -33 66 -110 161 -252 308 -61 63 -162 172 -223 242 -62 70
-126 138 -143 152 -17 14 -27 26 -22 26 4 0 -30 38 -77 85 -66 66 -91 85 -112
85 -16 0 -28 -3 -28 -8z"/>
<path d="M12005 12080 c49 -49 96 -90 103 -90 7 0 10 -5 6 -11 -3 -6 22 -40
58 -78 36 -36 118 -127 184 -201 65 -74 174 -192 241 -261 66 -70 128 -140
137 -157 22 -42 20 -118 -5 -221 -61 -252 15 -386 515 -900 255 -262 418 -442
561 -616 50 -60 148 -172 219 -248 382 -410 422 -458 442 -523 13 -43 12 -55
-8 -138 -48 -203 -30 -248 206 -498 89 -95 525 -533 968 -973 695 -691 808
-808 830 -855 36 -78 40 -112 23 -189 -26 -110 1 -188 116 -341 80 -107 1118
-1163 1136 -1156 7 3 13 0 13 -7 0 -7 81 -93 180 -192 178 -178 180 -179 180
-145 0 32 -15 50 -175 210 -96 96 -175 172 -175 169 0 -3 -69 65 -152 150 -84
86 -315 320 -513 521 -452 457 -525 545 -561 667 -14 48 -14 60 1 124 14 64
14 77 0 131 -8 32 -27 80 -41 106 -18 31 -297 315 -822 837 -837 832 -1105
1107 -1148 1181 -14 24 -30 62 -35 83 -9 39 -7 54 25 195 11 54 13 81 5 117
-17 79 -59 131 -384 479 -100 107 -223 245 -272 305 -142 174 -325 375 -580
637 -260 268 -372 396 -439 504 -85 137 -101 224 -64 364 25 96 25 182 1 237
-11 24 -74 98 -148 175 -70 73 -191 205 -269 293 -77 88 -160 177 -182 198
-23 20 -39 37 -35 37 4 0 -30 38 -77 85 -74 74 -89 85 -120 85 l-35 0 90 -90z"/>
<path d="M12360 12080 c52 -50 101 -90 108 -90 6 0 12 -6 12 -14 0 -8 34 -45
76 -83 42 -37 165 -167 273 -288 336 -375 325 -353 322 -645 -2 -226 6 -276
59 -386 16 -33 53 -87 81 -120 56 -64 733 -777 766 -807 20 -17 53 -14 53 5 0
5 -161 179 -358 386 -445 468 -466 491 -501 566 -44 93 -52 154 -50 373 3 293
11 276 -335 662 -107 120 -228 247 -268 284 -40 36 -115 107 -167 157 -84 80
-99 90 -130 90 l-36 -1 95 -89z"/>
<path d="M13242 12080 c46 -49 89 -90 96 -90 8 0 12 -6 9 -12 -2 -7 37 -56 87
-110 50 -53 134 -142 186 -199 52 -56 219 -210 370 -342 304 -265 424 -378
446 -419 18 -34 18 -88 -1 -158 -27 -100 -15 -168 45 -255 29 -43 888 -901
1200 -1200 80 -76 153 -152 163 -169 16 -27 18 -43 11 -136 -4 -58 -8 -141 -8
-185 -1 -138 11 -154 379 -496 276 -256 838 -812 890 -879 59 -77 138 -197
165 -249 19 -38 22 -61 23 -175 2 -157 7 -169 111 -271 63 -62 293 -233 320
-238 6 -1 15 -7 21 -13 5 -6 65 -52 132 -103 67 -51 145 -113 173 -138 l50
-45 0 35 c0 32 -7 42 -72 95 -135 109 -267 204 -276 198 -6 -3 -12 1 -15 8 -3
8 -56 49 -116 91 -131 90 -244 197 -266 249 -12 28 -15 67 -14 154 2 110 1
120 -26 172 -31 62 -108 179 -170 260 -48 62 -574 584 -855 849 -102 95 -224
210 -271 255 -58 54 -96 99 -114 136 -27 52 -27 58 -19 145 4 49 8 133 9 185
0 79 -3 100 -20 126 -11 17 -99 106 -195 199 -96 93 -396 389 -667 657 -586
582 -579 574 -538 728 20 76 19 143 -4 188 -27 51 -140 159 -461 439 -151 132
-313 281 -360 332 -47 51 -130 141 -185 200 -55 59 -133 144 -173 189 -65 73
-77 82 -108 82 l-35 0 83 -90z"/>
<path d="M13611 12080 c45 -49 85 -90 89 -90 4 0 11 -10 14 -22 3 -13 31 -50
61 -83 51 -56 55 -59 71 -43 16 16 15 19 -14 55 -16 21 -44 51 -61 67 -17 17
-31 34 -31 39 0 5 -32 44 -71 88 -63 70 -76 79 -106 79 l-35 0 83 -90z"/>
<path d="M14065 12080 c49 -49 95 -90 102 -90 7 0 10 -6 8 -12 -2 -7 20 -39
49 -71 51 -56 53 -57 69 -39 17 19 16 22 -35 76 -30 31 -51 56 -49 56 3 0 -32
38 -79 85 -74 74 -89 85 -120 85 l-35 0 90 -90z"/>
<path d="M14501 12083 c46 -49 89 -89 96 -91 7 -2 13 -10 13 -18 0 -19 362
-381 526 -527 143 -126 217 -215 235 -280 10 -36 8 -56 -11 -135 -12 -50 -23
-120 -23 -155 -2 -56 2 -69 28 -107 16 -23 193 -203 393 -399 447 -437 992
-1015 1036 -1098 20 -36 20 -36 -5 -132 -32 -126 -29 -174 11 -250 31 -58 237
-291 653 -739 161 -173 171 -182 188 -166 18 16 15 20 -57 98 -332 358 -702
769 -726 806 -50 78 -53 107 -22 230 36 142 32 156 -82 286 -195 224 -620 668
-902 943 -166 161 -339 334 -384 384 l-83 91 2 57 c1 32 11 97 23 145 45 180
12 233 -356 566 -82 75 -211 200 -285 279 -296 315 -279 299 -317 299 l-35 0
84 -87z"/>
<path d="M16090 12080 c52 -49 101 -89 109 -90 7 0 11 -6 8 -14 -3 -8 22 -40
59 -77 61 -60 65 -63 81 -46 17 17 15 21 -48 82 -36 36 -64 66 -62 68 2 3 -35
41 -83 86 -76 71 -91 81 -123 81 l-36 -1 95 -89z"/>
<path d="M16526 12080 c60 -49 114 -90 121 -90 7 0 13 -6 13 -14 0 -8 23 -33
50 -56 51 -43 102 -108 119 -152 7 -20 2 -35 -25 -78 -24 -39 -34 -66 -34 -95
0 -74 43 -127 277 -346 332 -311 489 -470 497 -503 5 -20 -1 -51 -20 -102 -26
-73 -26 -75 -10 -119 13 -33 44 -69 119 -139 55 -52 104 -93 109 -90 4 3 8 1
8 -4 0 -8 299 -279 342 -310 16 -12 18 -10 18 17 0 26 -21 49 -166 178 -91 81
-172 147 -180 147 -8 -1 -14 3 -14 10 0 6 -39 47 -86 90 -115 106 -121 121
-87 220 40 117 35 128 -151 311 -83 83 -243 235 -354 339 -112 104 -214 208
-228 231 -31 53 -30 91 1 137 47 69 49 85 19 147 -33 66 -119 154 -289 295
-68 56 -85 66 -118 66 l-39 0 108 -90z"/>
<path d="M2 12045 c2 -29 9 -42 25 -51 13 -6 20 -14 16 -17 -3 -4 201 -213
455 -464 253 -252 467 -472 476 -489 45 -91 29 -179 -56 -305 -32 -49 -63
-101 -69 -118 -17 -47 4 -100 68 -174 61 -70 941 -993 1223 -1282 205 -211
265 -282 303 -364 30 -62 30 -65 23 -182 -9 -160 0 -181 136 -309 260 -243
748 -723 1013 -995 324 -332 513 -545 546 -612 20 -41 21 -53 13 -132 -12
-124 -9 -171 10 -211 20 -40 142 -164 1137 -1165 700 -705 706 -711 748 -795
47 -95 50 -122 37 -281 -10 -107 -1 -148 43 -212 14 -20 139 -137 276 -260
215 -191 351 -314 671 -609 34 -32 67 -58 74 -58 7 0 10 -6 7 -14 -3 -8 22
-40 59 -77 61 -60 65 -63 81 -46 17 17 15 21 -48 82 -36 36 -65 66 -62 68 7 8
-364 350 -732 676 -253 224 -277 248 -307 306 -19 36 -20 49 -12 135 16 187 4
248 -72 368 -23 36 -274 296 -693 717 -1081 1087 -1157 1165 -1171 1208 -9 29
-9 53 -1 101 18 104 14 166 -14 223 -14 28 -87 122 -163 210 -148 172 -1151
1180 -1349 1357 -67 59 -134 127 -150 149 -28 40 -28 42 -25 176 l3 136 -34
70 c-43 89 -101 159 -302 365 -88 91 -343 356 -565 590 -222 234 -470 493
-550 575 -149 153 -187 208 -174 248 4 12 29 55 56 96 72 105 91 154 92 231 2
125 -1 129 -348 478 -171 173 -381 381 -467 462 -86 82 -155 151 -153 153 2 2
-15 21 -37 43 l-40 39 3 -40z"/>
<path d="M6079 11934 c-12 -15 3 -32 136 -157 83 -78 211 -202 286 -276 158
-157 161 -163 134 -311 -8 -47 -15 -106 -15 -131 0 -64 48 -157 109 -211 27
-24 99 -98 160 -165 141 -154 269 -273 771 -713 494 -432 572 -509 611 -607 7
-15 15 -93 18 -173 9 -201 20 -223 194 -395 82 -80 151 -140 181 -155 63 -31
213 -130 245 -160 34 -33 48 -74 67 -191 25 -162 39 -183 263 -414 108 -110
301 -314 430 -453 224 -241 235 -251 253 -235 18 16 17 18 -15 52 -18 20 -130
140 -247 266 -118 127 -294 311 -391 410 -204 209 -221 235 -245 386 -18 118
-40 177 -81 215 -33 32 -183 131 -204 136 -7 2 -16 6 -19 9 -3 4 -30 22 -60
42 -78 50 -266 245 -292 304 -18 39 -23 76 -28 195 -6 131 -10 152 -33 201
-27 54 -144 197 -190 233 -42 33 -744 652 -913 805 -88 81 -207 198 -264 260
-57 63 -133 143 -170 179 -104 102 -111 130 -80 335 8 50 7 84 -1 125 -10 49
-20 64 -88 133 -84 87 -488 470 -500 475 -5 1 -14 -5 -22 -14z"/>
<path d="M15109 11934 c-14 -18 -42 11 334 -348 109 -104 205 -203 214 -220
19 -35 21 -135 4 -206 -6 -25 -11 -67 -11 -95 0 -90 31 -136 237 -351 210
-219 328 -329 813 -754 415 -364 442 -389 508 -464 92 -105 104 -138 112 -306
7 -176 23 -216 126 -333 114 -128 267 -249 294 -232 6 3 10 1 10 -4 0 -6 31
-31 70 -56 93 -60 147 -110 159 -148 6 -18 18 -77 26 -132 15 -98 44 -173 85
-225 l20 -25 0 39 c0 22 -9 58 -20 80 -10 23 -26 86 -35 141 -20 133 -38 176
-90 224 -44 41 -175 129 -198 134 -6 1 -14 5 -17 8 -3 3 -30 22 -60 41 -51 33
-212 187 -260 250 -43 56 -53 98 -60 249 -7 131 -10 151 -34 200 -58 115 -98
154 -601 595 -513 450 -637 564 -781 721 -64 70 -135 143 -156 162 -21 18 -52
56 -68 85 -33 56 -38 114 -19 196 15 63 15 168 0 212 -8 26 -55 78 -159 180
-188 182 -418 398 -424 398 -3 0 -12 -7 -19 -16z"/>
<path d="M552 11878 c-7 -7 -12 -15 -12 -20 0 -4 125 -121 278 -259 392 -357
539 -497 563 -536 32 -52 27 -103 -25 -230 -37 -89 -46 -124 -46 -170 0 -68
31 -143 88 -213 51 -62 1007 -1083 1223 -1306 97 -100 189 -203 204 -229 27
-45 27 -50 20 -133 -14 -155 -11 -212 14 -262 16 -30 181 -203 510 -535 1013
-1019 1242 -1268 1266 -1374 3 -15 -2 -61 -11 -101 -23 -104 -15 -181 27 -261
29 -55 112 -142 614 -640 319 -316 632 -622 695 -680 160 -146 628 -616 657
-661 42 -62 45 -99 21 -240 -29 -173 -25 -182 136 -343 190 -189 813 -725 843
-725 7 0 13 -6 13 -14 0 -7 26 -36 58 -63 31 -28 72 -76 90 -106 l34 -56 -36
-58 c-77 -125 -53 -169 241 -444 322 -302 491 -471 498 -501 4 -17 -2 -53 -19
-100 -38 -110 -30 -128 101 -255 58 -57 109 -100 114 -97 5 3 9 1 9 -4 0 -5
114 -110 253 -233 735 -653 905 -812 1009 -941 60 -75 75 -88 100 -88 l30 0
-27 38 c-116 155 -203 244 -540 547 -484 435 -798 710 -811 709 -8 -1 -14 3
-14 10 0 6 -39 47 -86 90 -48 44 -93 94 -100 112 -12 29 -11 39 13 107 42 115
35 128 -151 312 -83 83 -243 235 -354 339 -112 104 -214 208 -228 231 -32 55
-31 93 5 142 16 22 32 49 36 62 11 34 -40 127 -104 189 -94 92 -119 114 -321
283 -286 239 -489 419 -621 550 -143 142 -149 156 -124 280 10 46 18 114 18
150 0 108 -20 135 -338 453 -154 155 -328 323 -385 375 -58 52 -364 351 -681
665 -511 508 -579 578 -607 635 -37 75 -40 114 -15 242 l17 87 -32 64 c-63
129 -288 371 -1163 1253 -668 673 -631 627 -611 769 30 204 20 226 -212 465
-208 215 -1175 1246 -1233 1316 -97 116 -104 184 -37 348 56 137 60 192 21
260 -15 25 -91 105 -169 179 -177 166 -685 628 -690 628 -2 0 -9 -5 -16 -12z"/>
<path d="M9582 11878 c-7 -7 -12 -17 -11 -22 0 -6 136 -134 302 -284 384 -346
533 -490 546 -525 20 -52 12 -101 -34 -213 -64 -156 -62 -226 10 -339 32 -51
918 -1003 1261 -1356 118 -122 189 -203 204 -234 24 -49 24 -46 4 -246 -12
-125 -15 -121 500 -639 989 -994 1260 -1285 1295 -1393 9 -26 8 -50 -4 -106
-19 -91 -19 -167 0 -220 35 -101 31 -97 1609 -1644 198 -194 372 -372 388
-396 34 -54 37 -126 11 -262 -14 -73 -15 -94 -4 -129 16 -54 89 -138 241 -280
241 -222 723 -630 746 -630 8 0 14 -6 14 -14 0 -8 25 -36 55 -61 48 -42 100
-111 117 -156 3 -8 -9 -39 -28 -69 -71 -113 -44 -173 176 -378 324 -304 557
-536 564 -566 5 -20 -1 -50 -20 -102 -26 -73 -26 -75 -10 -119 13 -33 44 -70
118 -140 55 -52 105 -92 109 -89 5 3 9 1 9 -4 0 -8 320 -299 348 -316 8 -5 12
1 12 23 0 26 -21 49 -166 178 -92 81 -173 147 -180 147 -8 -1 -14 3 -14 10 0
6 -39 47 -86 90 -115 106 -121 121 -87 220 39 114 33 128 -130 290 -73 72
-235 227 -360 345 -278 261 -301 297 -242 383 47 69 49 85 19 146 -37 76 -89
126 -399 387 -454 382 -727 637 -755 703 -11 29 -11 47 4 130 9 54 16 124 16
158 0 103 -20 131 -313 425 -145 145 -319 316 -388 379 -68 63 -383 371 -700
685 -517 511 -579 577 -608 634 -36 75 -40 130 -15 238 12 55 13 79 5 111 -33
120 -236 343 -1197 1312 -629 634 -613 615 -600 722 4 29 9 88 13 130 9 119
-10 149 -236 382 -102 105 -423 445 -712 754 -390 417 -535 578 -558 621 -45
85 -43 133 14 275 74 188 64 232 -83 375 -100 98 -748 691 -754 691 -2 0 -9
-5 -16 -12z"/>
<path d="M6728 11834 c-16 -16 -13 -22 55 -97 40 -44 139 -150 221 -234 147
-153 148 -155 142 -191 -4 -20 -9 -69 -13 -109 -5 -65 -3 -78 21 -127 54 -110
131 -187 729 -730 402 -365 440 -411 470 -570 17 -90 48 -130 132 -173 27 -14
85 -58 128 -97 43 -39 83 -73 90 -75 7 -2 17 -10 22 -17 18 -23 478 -425 653
-571 115 -97 179 -157 192 -183 26 -51 40 -144 40 -271 0 -171 -14 -152 390
-515 247 -222 802 -737 954 -884 76 -74 168 -171 204 -215 37 -44 106 -126
155 -182 48 -56 94 -118 102 -137 8 -19 19 -99 24 -182 15 -222 18 -226 384
-581 225 -219 1057 -1007 1105 -1048 31 -26 35 -27 50 -12 15 16 8 24 -93 119
-862 807 -1330 1267 -1365 1341 -17 38 -24 76 -31 188 -5 77 -14 158 -20 180
-7 23 -43 75 -87 127 -41 48 -117 137 -167 197 -51 61 -153 169 -226 240 -211
205 -810 758 -1137 1049 -187 166 -185 163 -193 355 -7 158 -21 222 -63 286
-9 14 -67 66 -129 117 -61 51 -238 203 -391 338 -335 294 -333 293 -346 285
-5 -3 -10 0 -10 8 0 21 -147 150 -205 180 -75 38 -100 70 -114 151 -15 87 -55
166 -125 249 -30 35 -196 192 -368 348 -493 448 -547 499 -620 584 -107 125
-122 170 -98 296 17 87 9 102 -124 239 -67 69 -166 174 -221 233 -94 101 -101
107 -117 91z"/>
<path d="M15757 11833 c-16 -18 -12 -24 74 -118 51 -55 148 -157 218 -228
l126 -127 -4 -53 c-3 -28 -5 -86 -5 -127 -1 -69 2 -81 34 -134 47 -77 179
-216 363 -383 665 -599 743 -677 788 -777 11 -25 26 -77 33 -115 18 -94 41
-123 133 -170 24 -12 80 -55 125 -96 46 -41 89 -73 96 -70 6 2 12 -1 12 -8 0
-10 114 -115 323 -296 l37 -33 0 33 c0 31 -14 46 -166 179 -91 80 -172 144
-180 144 -8 -1 -14 4 -14 11 0 19 -155 152 -208 179 -72 37 -98 71 -110 144
-6 35 -23 88 -37 119 -52 115 -66 128 -822 815 -178 163 -272 261 -325 342
-42 65 -47 105 -28 207 17 88 10 101 -134 249 -72 74 -172 179 -222 233 -86
94 -90 98 -107 80z"/>
<path d="M8540 11814 c-15 -17 -19 -12 94 -113 38 -34 70 -60 72 -58 2 2 28
-19 57 -47 28 -28 187 -173 352 -321 300 -269 489 -451 521 -500 16 -25 16
-28 -17 -92 -60 -118 -49 -253 32 -393 34 -59 61 -85 249 -247 69 -59 207
-183 308 -275 100 -93 186 -168 191 -168 15 0 35 30 25 39 -5 4 -90 82 -189
172 -207 189 -394 353 -447 392 -51 37 -114 137 -139 219 -29 94 -23 162 20
251 22 46 31 76 27 92 -10 38 -115 152 -294 317 -364 335 -662 599 -671 594
-5 -4 -11 0 -13 7 -3 14 -148 147 -159 147 -4 0 -12 -7 -19 -16z"/>
<path d="M17572 11818 c-7 -7 -12 -15 -12 -19 0 -13 173 -159 181 -153 5 3 9
1 9 -4 0 -6 66 -70 148 -143 81 -73 162 -146 180 -163 l32 -30 0 35 c0 31 -13
45 -166 183 -92 82 -173 149 -180 149 -8 0 -14 5 -15 11 0 10 -140 137 -158
144 -4 1 -12 -3 -19 -10z"/>
<path d="M7395 11779 c-4 -11 -5 -21 -3 -23 42 -26 120 -91 128 -107 7 -13 9
-52 4 -114 -6 -80 -4 -99 10 -122 10 -15 161 -170 336 -343 277 -274 320 -321
331 -358 10 -36 10 -48 -1 -65 -51 -80 -78 -179 -66 -242 7 -34 33 -65 184
-219 193 -195 377 -360 393 -351 5 4 9 2 9 -4 0 -6 132 -124 293 -263 588
-509 807 -713 833 -774 8 -19 22 -88 30 -152 19 -148 46 -209 136 -310 37 -42
99 -113 137 -157 96 -113 146 -162 401 -400 124 -115 274 -257 333 -314 102
-99 108 -104 125 -87 16 16 11 23 -103 134 -66 64 -212 203 -325 308 -313 292
-552 551 -608 657 -26 50 -35 84 -48 182 -23 179 -28 188 -229 377 -187 175
-954 843 -961 836 -12 -13 -528 493 -545 535 -17 40 -5 102 35 181 20 39 36
82 36 97 0 59 -51 129 -194 268 -77 75 -221 216 -319 313 l-179 177 6 98 c6
83 4 103 -11 133 -16 32 -132 130 -153 130 -5 0 -12 -9 -15 -21z"/>
<path d="M16425 11779 c-4 -11 -5 -21 -3 -23 1 -1 28 -20 59 -43 73 -54 85
-84 72 -171 -17 -116 -28 -101 337 -462 279 -276 330 -331 341 -367 10 -37 9
-45 -10 -76 -51 -83 -73 -193 -51 -254 22 -59 546 -563 570 -548 5 3 10 0 11
-7 0 -7 81 -82 180 -166 l179 -153 0 34 c0 31 -13 44 -169 178 -93 79 -171
143 -174 143 -9 -3 -146 125 -349 326 -203 200 -208 207 -208 246 0 47 27 133
59 184 56 92 31 129 -338 489 -170 165 -315 315 -324 333 -12 27 -13 44 -5 88
12 67 6 118 -18 155 -18 28 -128 115 -144 115 -5 0 -12 -9 -15 -21z"/>
<path d="M2450 11705 c-10 -12 26 -54 210 -248 241 -256 270 -290 270 -322 0
-12 -11 -59 -25 -105 -34 -113 -33 -171 4 -235 31 -54 72 -100 360 -405 101
-107 192 -204 202 -214 15 -16 21 -17 33 -6 9 7 16 16 16 21 0 4 -89 102 -197
216 -398 419 -398 419 -391 505 3 29 15 90 28 135 38 135 53 111 -318 501 -90
94 -167 172 -172 172 -4 0 -13 -7 -20 -15z"/>
<path d="M11480 11705 c-10 -12 24 -52 203 -242 250 -266 264 -281 272 -314 3
-14 -5 -61 -20 -112 -34 -119 -33 -178 5 -244 34 -59 145 -182 547 -603 31
-33 34 -34 50 -17 20 20 43 -8 -217 267 -344 364 -360 384 -360 458 0 25 10
77 22 116 30 100 29 155 -2 199 -33 45 -469 507 -479 507 -5 0 -14 -7 -21 -15z"/>
<path d="M4214 11696 c-18 -14 8 -41 428 -458 245 -244 466 -471 491 -504 63
-89 73 -132 57 -253 -15 -116 -5 -159 62 -263 94 -146 221 -278 810 -836 341
-325 351 -338 352 -471 1 -42 -3 -111 -8 -153 -8 -72 -7 -81 17 -130 23 -47
93 -141 185 -248 29 -33 31 -34 48 -18 17 16 14 21 -44 90 -34 40 -83 104
-109 142 -53 76 -49 45 -41 291 3 108 2 112 -30 178 -30 61 -61 93 -330 349
-665 632 -799 777 -854 922 -18 46 -18 58 -7 150 15 126 1 183 -67 277 -34 48
-925 949 -938 949 -1 0 -11 -6 -22 -14z"/>
<path d="M13239 11694 c-12 -14 34 -63 388 -413 450 -444 532 -530 571 -604
24 -47 26 -60 23 -137 -8 -193 -9 -191 31 -271 76 -150 173 -254 751 -803 202
-192 381 -369 397 -394 46 -69 54 -138 36 -308 -11 -100 4 -138 98 -257 122
-154 128 -160 151 -144 19 14 17 18 -43 88 -34 41 -83 105 -109 143 -53 76
-50 57 -42 281 4 114 -6 159 -52 228 -16 25 -204 212 -417 414 -448 426 -530
509 -619 618 -131 162 -150 214 -133 355 15 115 5 164 -55 256 -24 37 -205
224 -493 512 -251 248 -459 452 -462 452 -4 0 -14 -7 -21 -16z"/>
<path d="M5072 11598 c-7 -7 -12 -17 -12 -23 0 -11 109 -111 425 -392 205
-182 271 -250 281 -288 4 -17 -2 -49 -16 -88 -65 -185 -53 -225 130 -412 64
-66 210 -219 325 -340 115 -121 306 -321 424 -445 246 -257 435 -458 511 -545
112 -129 135 -207 85 -294 -55 -95 -29 -149 191 -392 104 -116 322 -326 779
-751 232 -216 254 -244 359 -471 38 -82 62 -121 95 -151 24 -23 48 -43 55 -45
22 -8 522 -518 586 -598 36 -45 70 -82 76 -83 6 0 17 6 23 14 9 11 -5 34 -70
112 -120 144 -566 587 -584 580 -8 -3 -15 0 -15 7 0 7 -16 29 -36 48 -22 21
-59 83 -98 165 -108 224 -122 241 -432 530 -590 549 -778 739 -877 889 -33 49
-34 71 -2 131 35 67 34 133 -5 210 -42 85 -120 171 -710 789 -173 182 -355
373 -405 425 -49 52 -149 156 -221 230 -186 191 -194 211 -144 360 44 129 40
149 -48 242 -37 39 -177 169 -312 288 -135 120 -265 238 -290 264 -48 50 -51
51 -68 34z"/>
<path d="M14102 11598 c-26 -26 -52 -1 458 -455 161 -144 227 -212 236 -246 4
-17 -6 -60 -27 -122 -31 -91 -32 -99 -21 -152 6 -31 24 -74 39 -96 16 -22 118
-133 228 -246 492 -507 1086 -1135 1178 -1245 91 -109 108 -184 62 -265 -39
-67 -34 -107 23 -190 104 -154 303 -355 884 -894 152 -141 271 -260 291 -290
51 -77 101 -172 143 -267 28 -64 48 -95 82 -125 25 -22 51 -40 56 -40 6 0 13
-5 16 -11 3 -6 85 -88 183 -184 176 -172 177 -172 177 -137 0 32 -13 48 -167
196 -98 96 -172 160 -180 157 -7 -3 -13 0 -13 7 0 7 -16 29 -36 48 -22 21 -61
87 -104 174 -104 213 -127 242 -353 451 -600 556 -831 788 -934 937 -24 33
-43 71 -43 84 0 13 11 46 25 73 48 96 26 187 -74 308 -71 85 -256 284 -541
582 -756 789 -862 903 -880 943 -26 56 -25 77 10 177 17 46 30 95 30 107 0 66
-68 139 -419 449 -117 104 -237 210 -266 236 -39 35 -55 44 -63 36z"/>
<path d="M0 11388 c0 -32 13 -46 182 -199 206 -186 396 -370 423 -412 18 -27
17 -28 -15 -91 -59 -117 -50 -248 27 -386 38 -68 71 -102 213 -221 47 -39 177
-155 289 -258 251 -230 247 -227 267 -211 8 7 13 16 12 20 -7 18 -524 484
-618 557 -74 57 -133 144 -161 236 -29 94 -23 164 20 249 25 48 32 73 27 92
-14 55 -132 173 -568 570 l-98 88 0 -34z"/>
<path d="M2987 10422 c-16 -17 -13 -21 44 -78 33 -32 307 -314 607 -627 353
-366 558 -586 577 -620 29 -51 30 -55 31 -197 1 -131 3 -151 26 -206 44 -105
95 -172 267 -348 92 -94 374 -389 627 -656 252 -267 546 -576 652 -688 l194
-203 -6 -38 c-3 -21 -17 -63 -31 -92 -31 -66 -31 -115 -2 -200 46 -133 183
-326 419 -587 62 -68 329 -338 593 -599 264 -261 515 -514 558 -561 130 -144
163 -221 117 -279 -66 -84 25 -227 321 -504 266 -250 723 -649 732 -640 5 5 7
18 5 29 -1 10 -113 117 -248 237 -364 323 -572 517 -651 607 -127 144 -151
201 -109 255 30 39 26 103 -10 172 -46 86 -154 200 -665 704 -485 479 -655
657 -810 852 -143 179 -225 333 -225 422 0 18 11 55 24 81 58 116 50 148 -73
276 -53 56 -380 400 -727 766 -347 366 -673 708 -723 760 -101 104 -149 170
-182 252 -19 45 -22 75 -23 198 l-1 145 -35 63 c-27 48 -159 191 -572 620
-295 306 -570 590 -610 630 -71 70 -75 72 -91 54z"/>
<path d="M12018 10424 c-15 -15 31 -66 590 -645 468 -485 614 -642 637 -686
29 -55 30 -61 31 -197 0 -120 4 -149 23 -197 39 -100 100 -180 265 -349 90
-91 407 -424 706 -740 299 -316 594 -626 654 -688 107 -109 111 -115 110 -155
-1 -24 -13 -65 -29 -97 -24 -46 -27 -63 -23 -115 7 -76 48 -168 132 -294 128
-192 272 -349 835 -911 620 -620 668 -670 723 -754 44 -68 49 -114 18 -153
-65 -83 14 -212 298 -482 254 -241 745 -672 755 -662 5 5 7 17 5 28 -1 11
-149 149 -328 308 -505 449 -700 654 -700 737 0 16 9 41 20 55 26 33 26 94 -1
152 -37 82 -131 183 -715 766 -319 319 -625 633 -680 698 -262 313 -352 494
-296 603 29 58 44 121 36 157 -5 22 -63 90 -203 237 -108 113 -401 421 -651
685 -249 264 -529 557 -620 650 -254 259 -284 314 -285 536 0 208 37 159 -627
847 -702 728 -659 686 -680 666z"/>
<path d="M1 10039 c0 -28 10 -42 53 -79 28 -25 175 -155 326 -290 470 -420
596 -551 676 -704 34 -64 38 -80 44 -176 4 -71 12 -116 24 -140 10 -19 184
-201 387 -405 351 -352 369 -369 386 -352 16 16 0 35 -348 385 -222 223 -372
381 -382 404 -11 23 -17 62 -17 110 0 187 -116 351 -495 697 -131 120 -571
513 -637 569 -17 14 -18 12 -17 -19z"/>
<path d="M0 9587 c0 -31 11 -44 133 -148 394 -338 660 -589 682 -644 9 -20 23
-86 30 -145 16 -116 41 -198 77 -246 34 -45 211 -245 303 -342 44 -47 172
-171 285 -276 113 -105 260 -245 328 -310 115 -112 124 -118 140 -103 15 16
13 20 -33 68 -28 28 -180 174 -340 323 -159 150 -325 311 -367 357 -187 203
-283 317 -304 364 -14 30 -29 97 -39 170 -9 66 -25 140 -36 165 -29 65 -230
256 -701 664 l-158 136 0 -33z"/>
<path d="M5158 9563 c-16 -16 2 -36 310 -347 180 -182 351 -359 380 -394 95
-114 103 -146 87 -314 -13 -145 -15 -142 314 -513 382 -431 850 -925 1167
-1230 218 -210 276 -280 300 -363 15 -51 15 -61 0 -128 -14 -65 -14 -78 0
-130 19 -76 74 -168 160 -269 80 -95 815 -840 828 -840 5 0 34 -27 65 -60 30
-33 182 -188 337 -345 178 -181 290 -301 304 -329 20 -39 21 -53 15 -131 -6
-72 -4 -93 10 -121 37 -73 108 -149 299 -323 330 -300 866 -766 882 -766 8 0
14 -6 12 -13 -2 -8 127 -128 286 -267 265 -231 291 -251 303 -234 7 10 13 20
12 23 0 8 -523 462 -553 481 -13 8 -23 18 -22 22 1 4 -155 144 -345 310 -433
379 -713 633 -761 692 -75 89 -81 106 -73 200 11 126 -4 152 -213 371 -267
282 -519 528 -531 521 -6 -4 -11 -2 -11 5 0 7 -172 186 -383 398 -388 391
-492 508 -541 606 -42 81 -48 120 -30 190 20 75 12 130 -27 215 -27 58 -62 96
-309 340 -433 429 -762 777 -1181 1250 -278 313 -277 312 -263 444 13 129 8
171 -28 237 -37 70 -215 263 -550 597 -219 218 -234 231 -250 215z"/>
<path d="M14188 9564 c-16 -17 0 -35 311 -349 321 -326 421 -436 456 -504 15
-30 16 -52 10 -168 l-7 -134 31 -62 c18 -37 73 -110 137 -182 577 -647 783
-867 1259 -1340 256 -255 316 -320 337 -365 37 -79 41 -119 23 -191 -27 -103
2 -187 116 -338 74 -99 855 -897 875 -895 8 1 14 -3 14 -10 0 -6 81 -92 180
-191 178 -178 180 -179 180 -145 0 32 -15 50 -175 210 -96 96 -175 171 -175
167 0 -4 -17 12 -37 35 -21 24 -200 207 -398 408 -505 511 -570 604 -530 757
19 73 12 128 -27 213 -27 58 -61 96 -337 370 -331 328 -652 662 -876 910 -348
386 -492 554 -518 602 -28 53 -28 53 -21 184 6 120 5 134 -15 179 -35 78 -118
172 -466 523 -313 316 -331 332 -347 316z"/>
<path d="M1497 9372 c-14 -16 2 -33 216 -241 320 -308 292 -267 292 -425 0
-127 1 -132 30 -183 17 -28 98 -125 180 -216 83 -91 258 -286 390 -435 132
-149 245 -271 251 -271 6 -1 17 5 23 13 10 12 -36 68 -245 303 -142 158 -319
355 -393 436 -75 81 -149 171 -165 200 -27 51 -28 54 -22 159 6 84 4 114 -8
143 -10 24 -91 110 -233 249 -302 294 -296 290 -316 268z"/>
<path d="M10527 9373 c-15 -15 1 -34 234 -261 137 -134 255 -254 262 -266 8
-13 12 -66 12 -146 0 -157 8 -175 147 -325 56 -60 234 -258 396 -440 163 -181
301 -331 307 -333 7 -2 17 4 24 11 12 15 -139 190 -608 705 -97 107 -186 215
-199 240 -21 43 -23 56 -18 147 3 56 1 117 -4 137 -8 28 -58 82 -218 240 -313
309 -315 311 -335 291z"/>
<path d="M8560 9245 c-11 -14 -3 -26 61 -83 40 -37 79 -66 86 -66 7 1 13 -2
13 -6 0 -4 122 -129 272 -277 l272 -271 7 -118 c8 -122 22 -180 61 -243 35
-57 373 -400 608 -619 118 -109 303 -288 410 -398 197 -201 469 -463 657 -632
145 -131 156 -157 163 -367 5 -141 8 -165 29 -205 15 -31 121 -141 329 -345
633 -619 1266 -1252 1307 -1307 58 -77 63 -113 29 -208 -40 -115 -25 -170 87
-310 87 -108 738 -830 750 -830 5 0 9 -8 9 -17 1 -10 27 -47 60 -83 56 -61 60
-64 76 -48 16 16 14 20 -32 73 -27 31 -59 70 -71 86 -12 17 -118 137 -235 267
-500 553 -563 628 -598 704 -25 55 -25 60 6 154 32 99 27 142 -26 221 -38 56
-713 734 -1337 1343 -221 215 -297 296 -312 330 -17 37 -21 67 -21 170 0 212
-26 270 -177 407 -176 158 -473 444 -673 647 -113 115 -297 294 -410 399 -264
243 -570 560 -598 618 -28 57 -42 133 -42 221 0 38 -6 83 -14 101 -13 31 -544
567 -562 567 -5 0 -42 32 -82 70 -40 39 -77 70 -81 70 -5 0 -14 -7 -21 -15z"/>
<path d="M17589 9244 c-11 -14 -3 -25 61 -82 41 -37 78 -67 84 -67 6 0 13 -5
16 -10 3 -6 85 -88 183 -184 176 -173 177 -174 177 -139 0 32 -14 49 -165 197
-90 88 -168 161 -172 161 -5 0 -41 32 -81 70 -40 39 -77 70 -81 70 -5 0 -14
-7 -22 -16z"/>
<path d="M4403 9239 c-7 -7 -13 -17 -13 -22 0 -5 43 -55 96 -110 126 -134 130
-141 125 -247 -10 -206 -8 -220 26 -293 65 -138 129 -213 459 -547 616 -623
1125 -1154 1155 -1205 34 -58 37 -105 13 -186 -22 -74 -15 -176 19 -250 63
-142 112 -197 613 -693 633 -626 1035 -1040 1073 -1108 37 -63 38 -87 10 -180
-13 -42 -19 -83 -16 -103 13 -77 91 -156 397 -402 96 -77 213 -172 259 -211
46 -39 88 -69 92 -66 4 2 9 -2 11 -10 3 -12 152 -148 408 -371 84 -73 103 -85
115 -75 8 7 15 16 15 20 0 4 -87 83 -192 176 -106 93 -221 195 -256 227 -35
31 -70 57 -78 57 -8 0 -14 6 -15 13 0 14 -47 53 -328 280 -260 210 -332 276
-361 330 l-24 45 23 81 c31 105 26 153 -24 228 -51 77 -425 462 -1036 1066
-436 432 -526 525 -572 598 -98 150 -114 221 -81 350 32 125 9 191 -110 318
-101 108 -973 1005 -1214 1249 -192 194 -281 309 -322 419 -19 51 -21 67 -14
138 21 203 9 237 -137 388 -84 88 -106 106 -116 96z"/>
<path d="M13428 9234 c-16 -16 -11 -23 82 -122 125 -132 136 -154 130 -252
-10 -195 -8 -219 32 -303 20 -42 59 -107 85 -145 26 -37 210 -231 408 -432
704 -715 1089 -1117 1118 -1171 32 -61 33 -85 7 -194 -24 -100 -17 -152 35
-261 62 -129 142 -219 541 -610 564 -553 1103 -1108 1137 -1173 32 -59 32 -81
1 -192 -16 -58 -16 -72 -5 -109 18 -60 128 -167 376 -365 110 -88 232 -188
272 -222 39 -34 78 -64 85 -65 7 -2 15 -8 18 -15 5 -10 75 -75 288 -262 l72
-63 0 34 c0 30 -9 42 -87 110 -49 42 -126 110 -172 151 -47 42 -89 74 -93 71
-4 -3 -8 1 -9 8 0 15 -52 58 -319 273 -244 197 -306 250 -352 308 -44 56 -47
79 -18 162 52 151 37 175 -371 595 -179 184 -516 522 -748 750 -497 488 -566
571 -606 727 -15 58 -15 66 5 141 47 187 47 187 -395 644 -192 199 -521 536
-730 748 -377 382 -432 445 -501 580 -30 59 -32 89 -23 280 5 113 -12 145
-143 284 -97 102 -104 107 -120 90z"/>
<path d="M0 9171 c0 -27 25 -51 213 -211 116 -100 234 -200 261 -223 80 -67
97 -117 105 -311 6 -152 8 -164 34 -208 15 -25 64 -80 109 -121 46 -41 160
-143 253 -227 358 -323 797 -732 965 -900 172 -171 408 -440 442 -503 12 -23
20 -75 28 -187 13 -204 22 -222 189 -394 155 -159 924 -893 1299 -1240 31 -29
33 -29 50 -13 16 17 15 20 -33 65 -447 416 -1148 1087 -1291 1234 -143 148
-151 166 -164 346 -12 191 -18 208 -99 300 -37 42 -112 131 -167 197 -149 180
-649 653 -1423 1346 -128 114 -141 140 -141 284 0 199 -30 289 -122 368 -29
25 -148 127 -265 226 -116 100 -215 185 -218 191 -12 20 -25 10 -25 -19z"/>
<path d="M0 8811 c0 -31 12 -48 120 -156 l120 -122 0 -69 c0 -100 17 -189 48
-253 34 -70 315 -363 602 -629 113 -104 261 -247 330 -318 224 -230 542 -537
768 -743 134 -121 144 -143 152 -351 5 -145 9 -171 29 -210 16 -31 116 -136
314 -330 612 -598 1309 -1297 1337 -1341 44 -68 46 -95 14 -195 -51 -161 -57
-151 524 -796 168 -186 308 -338 313 -338 5 0 9 -6 9 -14 0 -14 108 -146 120
-146 3 0 14 6 23 13 16 11 11 19 -46 82 -35 39 -66 75 -68 81 -2 7 -121 141
-264 299 -484 536 -541 605 -572 683 -16 43 -16 46 11 129 31 95 30 135 -5
206 -21 41 -721 747 -1371 1383 -203 198 -283 283 -298 315 -16 37 -20 66 -20
175 0 105 -4 146 -21 200 -24 78 -23 76 -404 434 -252 236 -310 293 -495 486
-69 71 -224 221 -345 333 -121 112 -298 284 -394 384 -212 219 -229 249 -237
408 -3 57 -10 118 -15 136 -7 20 -58 80 -145 165 l-134 134 0 -35z"/>
<path d="M3570 8285 c-11 -13 18 -47 182 -218 881 -914 1366 -1430 1392 -1477
32 -59 36 -102 18 -199 -13 -75 -3 -142 31 -189 12 -17 117 -120 232 -230 116
-109 418 -405 673 -657 437 -432 464 -457 481 -441 17 15 -3 36 -358 389 -394
391 -674 665 -877 857 -146 139 -154 157 -128 290 30 163 20 179 -405 624
-833 871 -1213 1266 -1221 1266 -4 0 -13 -7 -20 -15z"/>
<path d="M12600 8284 c-12 -13 -1 -28 71 -102 47 -48 191 -197 320 -332 900
-940 1079 -1129 1122 -1177 87 -101 102 -150 81 -262 -17 -87 -11 -144 19
-195 12 -19 85 -95 162 -167 77 -73 382 -371 678 -662 502 -494 539 -529 555
-513 15 15 6 27 -143 177 -187 187 -891 877 -1082 1059 -158 152 -164 164
-139 300 17 92 12 129 -24 200 -29 56 -65 96 -635 691 -780 815 -957 999 -965
999 -4 0 -13 -7 -20 -16z"/>
<path d="M1 8173 c-1 -87 -14 -69 239 -328 102 -105 286 -300 409 -433 214
-230 226 -241 243 -225 18 16 17 18 -10 47 -324 350 -479 514 -633 671 -184
189 -210 222 -235 300 l-13 40 0 -72z"/>
<path d="M7069 7964 c-12 -14 31 -60 353 -378 202 -198 375 -377 384 -396 12
-24 20 -71 24 -150 5 -78 12 -125 23 -147 10 -18 66 -86 125 -151 59 -66 217
-245 350 -400 133 -154 247 -284 253 -287 6 -4 18 -1 26 8 14 13 -12 46 -233
303 -137 158 -292 335 -344 392 -146 160 -143 155 -151 291 -4 91 -10 126 -28
161 -16 32 -130 152 -389 407 -202 200 -370 363 -373 363 -4 0 -13 -7 -20 -16z"/>
<path d="M16099 7964 c-12 -15 29 -59 353 -378 201 -198 374 -377 384 -396 12
-24 19 -70 24 -150 4 -79 11 -125 23 -147 10 -18 69 -90 132 -160 64 -70 222
-253 353 -405 130 -152 242 -277 248 -277 6 -1 17 5 23 13 10 11 -35 69 -237
303 -137 158 -297 341 -355 405 -58 65 -112 128 -118 140 -7 13 -16 75 -20
138 -5 89 -11 126 -28 160 -16 32 -131 152 -389 407 -202 199 -370 363 -373
363 -4 0 -13 -7 -20 -16z"/>
<path d="M8580 7555 c-10 -12 0 -27 55 -89 38 -42 72 -73 76 -70 5 3 9 0 9 -6
0 -5 105 -124 233 -263 128 -138 383 -416 567 -617 183 -201 374 -407 423
-459 112 -119 197 -232 197 -265 0 -14 -12 -62 -26 -107 -35 -112 -31 -132 53
-225 73 -80 628 -586 933 -849 102 -88 202 -177 222 -198 79 -79 100 -162 79
-315 -17 -124 -8 -144 127 -269 59 -54 244 -227 412 -384 444 -415 514 -479
528 -479 6 0 12 -6 12 -14 0 -8 32 -43 71 -78 39 -35 162 -164 273 -287 342
-381 328 -352 330 -676 3 -345 0 -341 393 -755 554 -585 527 -558 546 -548 9
5 17 14 17 20 0 5 -87 101 -193 212 -107 110 -285 298 -397 416 -315 333 -315
333 -316 660 -1 254 -7 285 -73 387 -52 80 -462 534 -547 607 -38 32 -70 62
-72 67 -2 4 -58 58 -125 120 -67 62 -284 264 -482 449 -198 185 -378 352 -399
371 -59 51 -69 84 -55 181 23 161 -5 262 -99 356 -26 26 -108 99 -182 162
-243 207 -803 712 -913 825 -59 60 -110 119 -113 131 -3 12 6 58 20 103 39
124 36 143 -32 237 -32 43 -119 144 -194 224 -74 80 -373 404 -663 720 -291
316 -534 574 -542 574 -7 -1 -13 4 -13 10 0 14 -107 136 -120 136 -4 0 -13 -7
-20 -15z"/>
<path d="M17610 7555 c-10 -12 -1 -27 55 -90 37 -41 71 -72 76 -69 5 3 9 0 9
-6 0 -6 80 -98 177 -203 97 -106 178 -194 180 -196 2 -2 3 13 3 35 -1 36 -12
51 -168 219 -92 99 -172 179 -179 179 -7 -1 -13 3 -13 10 0 13 -108 136 -120
136 -4 0 -13 -7 -20 -15z"/>
<path d="M3189 7244 c-12 -14 -9 -20 21 -47 137 -120 451 -422 475 -457 31
-45 35 -73 20 -167 -13 -85 6 -131 114 -273 134 -178 303 -388 406 -508 83
-97 89 -102 106 -86 18 16 17 19 -24 66 -225 265 -507 625 -539 688 -20 39
-23 92 -7 154 14 57 0 109 -46 169 -37 48 -491 477 -505 477 -4 0 -14 -7 -21
-16z"/>
<path d="M12220 7244 c-11 -13 -9 -19 16 -43 16 -15 124 -116 240 -224 115
-107 223 -213 238 -235 30 -43 32 -65 21 -179 -11 -109 -10 -111 304 -508 52
-66 142 -175 199 -243 99 -117 105 -122 122 -107 18 16 13 24 -108 168 -70 84
-166 201 -212 261 -47 60 -115 148 -153 195 -98 125 -112 157 -102 239 18 149
10 170 -119 298 -118 117 -418 394 -427 394 -3 0 -12 -7 -19 -16z"/>
<path d="M2164 7143 c-8 -13 11 -37 109 -137 213 -216 421 -446 450 -495 24
-43 28 -62 33 -162 6 -131 23 -177 101 -288 26 -36 345 -368 708 -736 849
-862 907 -922 937 -970 39 -63 49 -102 57 -220 8 -129 19 -155 97 -245 82 -95
897 -924 912 -928 6 -2 12 -9 12 -16 0 -20 270 -295 426 -435 194 -175 288
-272 318 -333 30 -61 32 -83 10 -163 -25 -95 -34 -185 -23 -230 9 -35 72 -101
463 -490 423 -421 706 -715 910 -948 101 -117 107 -136 77 -236 -28 -91 -27
-111 2 -111 20 0 25 10 46 99 32 132 27 149 -85 277 -195 224 -620 668 -902
943 -166 161 -339 334 -384 384 l-83 91 2 58 c1 31 12 95 24 140 46 180 9 239
-356 570 -82 74 -211 200 -285 278 -74 79 -324 337 -556 574 -590 604 -574
584 -574 704 0 92 -15 166 -46 231 -33 66 -70 105 -939 987 -375 379 -702 720
-728 756 -71 100 -85 138 -91 258 -6 112 -16 156 -51 208 -47 70 -551 602
-571 602 -5 0 -14 -7 -20 -17z"/>
<path d="M11191 7142 c-8 -16 9 -37 105 -133 170 -167 439 -461 460 -500 12
-24 20 -69 25 -151 6 -102 11 -125 38 -185 18 -37 51 -93 74 -123 22 -30 325
-343 672 -695 986 -1003 947 -961 984 -1036 29 -59 33 -79 40 -187 7 -117 8
-122 44 -176 20 -30 119 -140 219 -243 386 -398 739 -753 748 -753 6 0 10 -7
10 -16 0 -20 363 -384 532 -533 138 -122 211 -209 229 -274 10 -35 8 -57 -9
-132 -35 -152 -37 -188 -12 -240 16 -33 123 -144 392 -408 394 -386 877 -892
1020 -1067 50 -61 53 -84 29 -174 -27 -99 -27 -116 2 -116 20 0 24 10 46 98
35 147 35 148 -183 387 -272 298 -542 577 -879 907 -216 211 -371 372 -381
393 -20 40 -17 80 16 214 42 177 9 231 -347 552 -82 75 -222 212 -310 304 -88
93 -273 284 -411 425 -483 492 -632 649 -665 696 -31 45 -33 55 -41 164 -8
129 -23 179 -79 260 -20 30 -374 396 -785 814 -412 417 -778 793 -813 835 -35
42 -78 105 -95 140 -26 57 -30 80 -36 181 -5 104 -8 120 -35 167 -43 74 -558
623 -585 623 -5 0 -14 -8 -19 -18z"/>
<path d="M0 7078 c0 -29 43 -80 376 -443 207 -225 438 -477 515 -560 76 -82
159 -178 183 -213 49 -70 48 -60 6 -203 -14 -46 -20 -86 -16 -102 3 -14 36
-60 74 -102 81 -92 741 -690 1038 -943 198 -167 224 -225 194 -432 -13 -90 0
-134 59 -190 50 -49 876 -819 952 -888 25 -23 51 -42 58 -42 6 0 11 -6 11 -14
0 -8 32 -43 71 -78 95 -84 506 -543 547 -612 53 -87 60 -131 54 -328 -6 -199
7 -283 59 -387 37 -74 61 -101 506 -569 299 -314 367 -381 379 -371 8 6 14 16
14 21 0 5 -161 179 -358 386 -436 458 -465 490 -496 555 -49 101 -57 155 -54
377 2 233 -4 263 -83 375 -47 68 -438 504 -495 554 -21 18 -106 98 -189 176
-207 196 -782 733 -887 829 -49 44 -91 91 -97 108 -8 22 -8 51 0 102 27 174
-10 291 -125 391 -311 270 -431 375 -691 609 -315 283 -482 447 -491 482 -3
12 6 59 21 105 15 46 27 98 28 116 1 44 -72 148 -193 277 -53 56 -291 314
-529 574 -238 259 -435 472 -437 472 -2 0 -4 -15 -4 -32z"/>
<path d="M2610 6995 c-11 -13 -2 -25 56 -77 38 -34 132 -125 210 -202 169
-169 200 -222 239 -409 13 -65 32 -131 42 -147 26 -39 448 -489 737 -785 231
-237 245 -249 262 -233 16 16 5 30 -232 273 -397 408 -705 739 -727 781 -9 17
-25 78 -37 135 -31 157 -78 247 -187 360 -103 107 -330 319 -342 319 -5 0 -14
-7 -21 -15z"/>
<path d="M11640 6995 c-11 -13 -1 -26 66 -87 43 -39 138 -130 210 -202 155
-155 189 -214 224 -386 12 -58 30 -123 41 -146 10 -22 97 -124 192 -225 237
-253 788 -819 797 -819 4 0 13 7 20 15 11 13 -32 60 -273 308 -289 297 -628
656 -673 713 -13 17 -31 62 -40 100 -54 240 -83 302 -198 423 -92 96 -334 321
-346 321 -4 0 -13 -7 -20 -15z"/>
<path d="M1350 6705 c-11 -13 17 -46 192 -223 232 -235 245 -254 278 -422 22
-114 56 -196 119 -289 25 -36 197 -212 438 -446 383 -373 397 -385 415 -368
19 17 17 19 -59 93 -465 448 -722 704 -755 753 -60 88 -84 150 -112 279 -14
69 -36 140 -53 170 -18 36 -96 122 -232 261 -113 114 -208 207 -212 207 -3 0
-12 -7 -19 -15z"/>
<path d="M10380 6705 c-11 -13 17 -46 192 -223 232 -234 243 -251 277 -422 26
-131 87 -258 168 -351 32 -37 128 -133 213 -215 85 -81 248 -240 362 -353 179
-177 209 -203 222 -192 9 8 16 17 16 22 0 8 -191 196 -574 569 -83 80 -174
172 -203 205 -73 82 -129 197 -153 315 -22 109 -41 168 -72 219 -21 36 -416
441 -429 441 -3 0 -12 -7 -19 -15z"/>
<path d="M0 6682 c0 -29 14 -48 96 -135 53 -56 126 -139 162 -184 37 -45 72
-82 78 -82 6 -1 17 5 23 13 10 11 -3 32 -66 107 -43 52 -126 143 -185 204
-107 109 -107 110 -108 77z"/>
<path d="M0 6278 c0 -27 9 -41 54 -80 67 -59 169 -184 201 -247 16 -33 37
-120 65 -270 22 -123 49 -239 60 -260 31 -60 116 -151 320 -344 107 -101 393
-382 635 -625 409 -410 441 -440 457 -425 16 14 -2 35 -270 309 -157 162 -437
439 -622 617 -184 177 -359 347 -388 377 -96 100 -100 111 -161 460 -15 83
-30 135 -55 185 -40 80 -143 205 -234 283 l-62 54 0 -34z"/>
<path d="M440 6215 c-10 -12 0 -28 62 -94 142 -151 179 -228 196 -404 18 -184
61 -251 302 -464 74 -66 281 -261 460 -433 179 -172 377 -359 440 -416 172
-154 199 -205 200 -369 1 -106 16 -138 126 -255 157 -167 837 -820 854 -820 7
0 10 -6 7 -14 -3 -8 6 -24 20 -37 14 -13 96 -103 182 -199 86 -96 211 -232
278 -301 66 -70 129 -141 138 -160 23 -44 22 -115 -4 -216 -26 -102 -26 -163
-1 -244 45 -146 162 -296 512 -656 253 -259 438 -463 581 -638 49 -60 171
-197 270 -302 154 -165 184 -193 209 -193 17 0 28 4 26 9 -1 5 -89 101 -193
213 -105 111 -229 250 -276 308 -141 172 -330 380 -578 635 -338 347 -453 492
-501 629 -25 71 -25 127 1 235 28 114 27 186 -1 241 -12 24 -75 98 -139 164
-64 67 -187 200 -272 296 -86 96 -172 189 -192 207 -19 17 -33 33 -31 36 3 2
-161 164 -363 359 -409 395 -552 539 -582 589 -17 27 -21 51 -21 116 0 176
-35 241 -222 409 -68 61 -269 252 -448 424 -179 172 -381 363 -450 425 -235
211 -267 258 -282 424 -11 125 -38 212 -88 289 -41 62 -185 222 -200 222 -4 0
-13 -7 -20 -15z"/>
<path d="M9470 6215 c-10 -13 -1 -27 57 -88 140 -147 180 -228 199 -398 21
-193 63 -265 259 -436 66 -58 298 -275 515 -483 217 -208 422 -402 456 -431
140 -124 166 -173 172 -324 3 -79 10 -120 22 -145 18 -35 246 -291 274 -307 7
-4 160 -150 340 -323 180 -173 334 -317 342 -318 9 -2 13 -10 10 -17 -2 -7 5
-21 16 -32 12 -10 91 -97 177 -193 86 -96 211 -232 278 -302 68 -70 132 -142
143 -160 27 -44 26 -125 -1 -230 -41 -159 -11 -277 116 -453 77 -108 151 -190
405 -451 230 -235 420 -444 553 -607 76 -94 201 -231 393 -436 69 -73 83 -83
109 -80 l30 4 -75 81 c-41 44 -133 144 -205 221 -71 76 -167 184 -212 240
-134 164 -324 373 -553 608 -255 262 -328 343 -405 450 -121 167 -146 267
-106 422 26 101 27 184 2 239 -11 24 -73 98 -143 170 -68 71 -194 208 -280
305 -86 96 -170 187 -186 201 -17 14 -29 28 -26 31 3 2 -165 168 -373 367
-373 357 -538 526 -574 585 -14 23 -19 50 -19 110 0 169 -42 252 -195 386 -33
28 -240 224 -460 434 -220 210 -445 421 -500 469 -190 165 -231 232 -251 415
-14 131 -36 195 -95 283 -42 61 -175 208 -189 208 -4 0 -13 -7 -20 -15z"/>
<path d="M8972 5217 c-10 -12 23 -49 175 -198 104 -101 273 -267 376 -369 104
-102 198 -203 209 -225 19 -36 20 -44 8 -108 -19 -109 3 -178 88 -270 26 -27
181 -166 344 -309 368 -320 518 -457 676 -616 112 -113 125 -123 139 -109 15
14 12 20 -26 65 -78 94 -383 374 -796 733 -289 251 -338 300 -367 366 -17 38
-19 56 -12 97 14 90 9 150 -15 189 -24 39 -755 760 -775 765 -7 2 -18 -3 -24
-11z"/>
<path d="M0 5168 c0 -32 25 -58 344 -371 210 -206 350 -350 361 -373 13 -29
16 -47 9 -83 -15 -82 -9 -153 15 -199 34 -66 84 -116 331 -331 371 -322 587
-518 739 -668 125 -124 146 -141 162 -132 19 10 17 13 -21 60 -82 96 -391 382
-810 746 -146 126 -282 248 -302 271 -69 77 -84 127 -67 224 19 105 7 131
-114 256 -56 57 -225 223 -374 369 -266 258 -273 264 -273 231z"/>
<path d="M4998 5094 c-16 -16 -9 -26 135 -178 175 -186 516 -529 566 -570 l33
-28 -8 -72 c-13 -103 -9 -168 13 -209 16 -32 293 -341 487 -544 62 -66 82 -81
92 -72 8 6 14 15 14 20 0 5 -120 140 -267 300 -148 159 -274 302 -282 317 -17
31 -18 86 -7 198 l9 81 -44 39 c-73 65 -364 358 -550 552 -165 174 -175 182
-191 166z"/>
<path d="M14028 5093 c-16 -17 -8 -27 149 -193 266 -281 498 -514 537 -540 20
-14 39 -33 42 -43 3 -10 0 -56 -6 -103 -16 -115 -4 -166 58 -237 251 -283 511
-557 529 -557 42 0 13 41 -173 242 -405 438 -384 405 -363 553 15 113 7 139
-56 184 -37 26 -261 254 -625 634 -72 75 -76 78 -92 60z"/>
<path d="M0 4749 c0 -26 7 -42 26 -60 87 -80 337 -355 355 -390 19 -38 20 -52
14 -126 -6 -78 -5 -88 19 -137 45 -91 194 -233 824 -783 184 -161 341 -293
349 -293 7 0 13 -6 11 -13 -2 -7 127 -127 286 -265 235 -205 291 -250 303
-241 7 7 13 18 11 24 -3 14 -529 474 -561 492 -12 6 -20 15 -18 19 2 4 -152
142 -341 308 -577 504 -745 660 -806 750 -25 37 -27 47 -27 152 l0 111 -38 56
c-21 31 -121 141 -222 244 -183 187 -184 188 -185 152z"/>
<path d="M3150 4635 c-10 -13 2 -30 76 -110 163 -176 234 -260 254 -301 26
-52 26 -124 0 -206 -35 -110 -25 -151 50 -223 23 -22 81 -85 128 -140 188
-218 629 -689 649 -693 8 -2 12 -9 10 -15 -3 -7 39 -58 92 -114 53 -56 137
-146 186 -199 50 -53 230 -219 400 -369 332 -291 410 -367 421 -409 7 -31 1
-96 -17 -179 -16 -71 -4 -124 45 -201 31 -48 816 -836 1201 -1206 159 -153
185 -185 185 -237 0 -29 3 -33 25 -33 22 0 25 4 25 38 0 22 -10 57 -22 79 -13
22 -104 118 -203 214 -99 95 -399 391 -667 656 -420 417 -491 492 -517 545
-35 69 -38 103 -16 174 17 57 19 141 5 179 -17 45 -113 137 -435 420 -170 149
-348 313 -395 364 -47 51 -128 139 -181 195 -52 55 -113 122 -135 147 -21 26
-129 143 -239 260 -110 118 -245 266 -300 329 -55 63 -137 153 -182 201 -94
99 -98 112 -63 214 25 74 26 166 1 220 -10 22 -36 63 -58 90 -53 67 -294 325
-303 325 -4 0 -13 -7 -20 -15z"/>
<path d="M4690 4635 c-10 -12 -7 -21 19 -52 118 -141 207 -281 225 -358 4 -16
11 -62 16 -102 10 -93 24 -113 158 -228 57 -49 228 -213 380 -363 244 -242
277 -271 290 -258 14 13 7 25 -62 100 -84 93 -439 437 -603 585 -109 97 -105
90 -118 210 -9 78 -48 173 -109 265 -60 89 -163 216 -176 216 -4 0 -13 -7 -20
-15z"/>
<path d="M12180 4635 c-14 -17 -27 0 203 -251 149 -162 172 -228 127 -359 -11
-32 -20 -80 -20 -108 0 -48 2 -52 78 -131 43 -44 105 -112 137 -151 65 -76
323 -358 503 -549 62 -67 120 -122 128 -124 8 -2 13 -9 12 -16 -3 -12 88 -114
287 -324 50 -52 214 -203 365 -335 307 -267 415 -369 436 -409 18 -35 18 -100
-1 -162 -28 -92 -15 -164 46 -252 29 -42 949 -963 1224 -1224 129 -122 154
-156 155 -207 0 -29 3 -33 26 -33 26 0 27 1 21 51 -4 28 -14 63 -24 78 -10 15
-85 92 -168 171 -331 318 -1166 1152 -1194 1194 -49 71 -58 121 -38 208 22 95
22 150 -2 196 -26 50 -128 147 -451 429 -275 241 -317 282 -571 559 -76 82
-212 230 -305 329 -92 99 -233 254 -313 345 -80 90 -181 201 -223 245 -89 93
-92 104 -58 213 36 116 21 208 -51 301 -35 46 -302 331 -310 331 -3 0 -12 -7
-19 -15z"/>
<path d="M13720 4635 c-10 -12 3 -33 75 -122 108 -134 163 -241 176 -343 17
-125 26 -149 77 -195 26 -23 98 -89 160 -145 62 -56 219 -208 348 -337 213
-213 237 -234 251 -220 14 14 8 24 -63 103 -89 98 -518 511 -617 594 -35 30
-70 64 -78 75 -7 11 -18 62 -25 114 -16 124 -71 237 -189 384 -47 59 -90 107
-94 107 -5 0 -14 -7 -21 -15z"/>
<path d="M4098 4484 c-16 -16 -13 -21 43 -83 32 -36 67 -85 76 -109 15 -40 15
-48 -2 -130 -22 -104 -22 -200 0 -262 27 -78 81 -143 228 -276 78 -71 264
-249 413 -396 149 -148 277 -268 284 -268 6 0 10 -6 7 -12 -2 -7 19 -39 47
-71 51 -56 53 -57 69 -39 17 19 16 22 -35 76 -30 31 -52 56 -49 56 16 0 -450
458 -679 668 -80 73 -162 154 -182 180 -71 89 -86 184 -54 337 26 123 10 175
-90 283 -56 60 -60 63 -76 46z"/>
<path d="M13128 4483 c-17 -19 -17 -21 7 -43 46 -43 106 -128 116 -163 7 -26
4 -61 -11 -138 -22 -110 -20 -167 7 -243 27 -77 74 -134 231 -277 86 -79 274
-260 418 -401 143 -142 266 -258 273 -258 7 0 11 -6 8 -13 -2 -7 19 -38 47
-70 50 -57 52 -58 69 -40 16 19 15 22 -36 76 -29 32 -52 59 -50 61 5 5 -545
545 -700 685 -164 150 -199 196 -224 295 -16 65 -15 71 5 175 13 64 20 122 16
142 -9 48 -44 105 -106 173 -52 57 -53 58 -70 39z"/>
<path d="M0 4334 c0 -30 9 -46 50 -91 81 -88 93 -121 85 -219 -8 -100 6 -139
83 -229 92 -107 909 -835 937 -835 9 0 15 -6 13 -14 -2 -8 167 -163 392 -359
352 -307 533 -480 583 -557 30 -46 41 -127 27 -200 -12 -61 -11 -69 9 -108 12
-23 56 -83 98 -134 88 -106 1009 -1028 1304 -1305 110 -103 200 -195 203 -208
3 -13 2 -35 -4 -49 -9 -24 -7 -26 19 -26 23 0 30 5 34 29 14 67 -3 88 -236
308 -329 312 -1191 1174 -1280 1281 -104 126 -112 141 -97 204 15 60 7 145
-19 203 -35 80 -210 252 -596 589 -209 183 -388 337 -398 343 -11 5 -17 13
-15 16 1 3 -114 109 -258 234 -488 426 -663 590 -722 677 -25 37 -27 47 -27
152 0 112 0 112 -35 162 -19 27 -61 77 -92 111 l-58 62 0 -37z"/>
<path d="M6999 4274 c-16 -15 -15 -19 7 -51 29 -43 30 -59 4 -165 -11 -46 -20
-96 -20 -112 0 -95 131 -238 515 -560 105 -88 226 -193 271 -233 75 -67 82
-71 100 -58 18 14 16 17 -36 68 -31 28 -157 137 -280 241 -350 295 -520 470
-520 534 0 15 10 70 22 122 25 111 20 156 -20 201 -25 28 -28 29 -43 13z"/>
<path d="M16029 4274 c-16 -15 -15 -19 7 -51 29 -43 29 -55 4 -161 -28 -116
-26 -149 11 -207 68 -107 177 -212 520 -501 97 -82 208 -177 246 -211 64 -57
70 -60 88 -46 19 14 18 17 -40 70 -33 30 -152 133 -265 228 -394 332 -530 473
-530 548 0 16 10 71 22 122 24 105 18 150 -25 200 -20 24 -23 25 -38 9z"/>
<path d="M2 3689 c3 -34 27 -58 398 -381 217 -189 403 -347 413 -351 9 -3 16
-11 15 -16 -2 -6 51 -57 117 -115 90 -78 123 -102 132 -94 7 6 13 16 13 23 0
11 -166 161 -218 196 -13 9 -23 19 -22 23 0 4 -181 165 -402 358 -222 193
-413 360 -426 372 l-23 21 3 -36z"/>
<path d="M2273 3426 c-6 -11 53 -77 221 -248 126 -128 230 -235 230 -238 1 -8
247 -279 377 -415 211 -221 276 -311 266 -368 -3 -18 -23 -76 -46 -128 -57
-133 -56 -165 8 -261 28 -40 97 -125 155 -188 114 -124 1367 -1516 1401 -1556
14 -16 31 -24 54 -24 l33 0 -34 39 c-54 64 -1289 1436 -1404 1561 -141 152
-204 242 -204 289 0 20 18 77 42 131 57 131 59 169 13 244 -45 75 -100 140
-240 286 -61 63 -157 168 -213 232 -57 64 -120 131 -140 149 -20 18 -37 36
-37 41 0 14 -446 468 -460 468 -8 0 -18 -6 -22 -14z"/>
<path d="M11302 3427 c-8 -9 45 -69 219 -247 126 -129 229 -236 229 -238 0 -6
243 -274 360 -396 148 -155 231 -253 265 -311 34 -57 31 -82 -23 -202 -52
-117 -57 -145 -32 -200 26 -60 124 -183 256 -323 112 -118 1304 -1443 1337
-1486 13 -17 29 -24 54 -24 l35 0 -34 38 c-134 154 -1256 1401 -1346 1497
-132 139 -236 268 -257 318 -17 40 -13 56 38 173 20 44 39 99 43 122 13 79
-50 172 -280 411 -66 70 -172 184 -235 254 -62 70 -122 132 -133 138 -10 5
-17 13 -14 17 6 10 -445 473 -460 472 -6 0 -16 -6 -22 -13z"/>
<path d="M8806 3231 c-16 -17 -10 -25 115 -145 72 -69 135 -126 140 -126 5 0
9 -6 9 -14 0 -7 209 -220 464 -473 443 -439 465 -462 480 -513 19 -64 19 -65
5 -130 -7 -34 -32 -84 -75 -147 -113 -171 -114 -171 193 -490 126 -131 365
-382 533 -558 167 -176 373 -391 458 -478 141 -146 156 -158 185 -155 32 3 30
5 -128 168 -89 91 -343 356 -565 590 -223 234 -466 488 -541 566 -142 146
-168 188 -150 235 5 13 31 57 59 98 28 40 59 96 69 125 24 71 22 159 -6 221
-22 50 -38 67 -812 830 -75 74 -135 136 -133 138 2 2 -61 65 -140 140 -137
130 -144 135 -160 118z"/>
<path d="M17837 3232 c-15 -17 -9 -26 111 -145 70 -70 133 -127 139 -127 6 0
14 -8 16 -17 3 -10 5 0 4 22 -2 37 -10 48 -128 162 -119 116 -127 122 -142
105z"/>
<path d="M0 3018 c0 -27 6 -41 22 -53 13 -8 23 -20 23 -26 0 -5 205 -214 456
-462 251 -249 464 -467 473 -484 45 -89 26 -188 -60 -314 -31 -45 -60 -95 -65
-112 -13 -45 4 -94 53 -154 47 -57 963 -1018 1202 -1261 122 -124 155 -152
178 -152 15 0 28 4 28 8 0 4 -23 30 -51 57 -28 28 -277 286 -552 575 -276 289
-565 590 -642 670 -144 148 -182 203 -169 243 3 12 26 50 51 85 71 101 97 166
97 247 1 122 -3 127 -392 514 -191 191 -399 397 -463 458 -64 62 -115 114
-113 116 2 2 -14 21 -36 42 l-40 39 0 -36z"/>
<path d="M6079 2904 c-11 -14 -4 -25 62 -87 41 -40 167 -161 281 -269 243
-233 241 -229 214 -387 -35 -201 -28 -218 221 -477 210 -219 328 -329 813
-754 429 -376 445 -390 508 -464 93 -107 105 -138 113 -311 4 -82 7 -151 8
-152 1 -2 14 -3 30 -3 29 0 29 1 20 32 -5 18 -9 77 -9 130 0 127 -13 185 -59
255 -57 88 -143 170 -541 519 -490 428 -664 588 -795 729 -60 65 -140 148
-176 184 -103 104 -110 132 -79 336 8 50 7 84 -1 124 -10 49 -20 65 -83 129
-79 82 -494 475 -505 480 -5 1 -14 -5 -22 -14z"/>
<path d="M15112 2908 c-7 -7 -12 -15 -12 -19 0 -4 119 -120 265 -259 146 -138
273 -263 281 -276 26 -39 34 -94 23 -164 -37 -239 -36 -241 227 -516 218 -227
311 -313 844 -781 397 -348 505 -454 546 -535 24 -48 28 -68 35 -203 4 -82 8
-151 8 -152 1 -2 11 -3 24 -3 23 0 23 0 19 127 -8 284 -13 291 -607 812 -198
173 -425 375 -505 447 -187 170 -512 509 -540 565 -24 46 -24 91 -1 238 13 83
0 155 -38 201 -29 37 -542 529 -551 530 -4 0 -11 -5 -18 -12z"/>
<path d="M550 2845 c-6 -8 -9 -19 -5 -25 4 -6 107 -102 228 -212 389 -353 574
-527 602 -568 39 -57 36 -103 -19 -237 -37 -89 -46 -124 -46 -170 0 -68 31
-142 88 -213 52 -63 1005 -1083 1186 -1267 137 -140 152 -153 184 -153 l36 0
-155 158 c-85 86 -283 294 -440 462 -157 168 -399 426 -537 574 -346 370 -353
386 -266 599 51 124 58 190 29 249 -10 18 -59 74 -109 123 -97 96 -752 695
-759 695 -3 0 -10 -7 -17 -15z"/>
<path d="M9577 2842 c-14 -16 -2 -29 166 -181 405 -365 640 -588 663 -627 35
-60 32 -108 -18 -222 -69 -162 -63 -257 25 -373 48 -65 953 -1034 1191 -1276
146 -149 162 -163 194 -163 35 0 34 1 -134 173 -93 94 -404 423 -690 729 -582
622 -590 632 -582 741 3 43 17 91 46 159 73 168 60 226 -81 362 -101 98 -735
678 -753 689 -6 3 -18 -1 -27 -11z"/>
<path d="M6728 2804 c-16 -16 -13 -21 44 -87 34 -38 134 -143 221 -233 l159
-165 -9 -52 c-4 -29 -8 -84 -8 -122 0 -63 4 -77 35 -129 47 -77 179 -216 363
-383 759 -685 787 -714 816 -868 7 -33 14 -70 16 -82 7 -31 59 -80 116 -108
27 -14 86 -59 131 -100 46 -41 87 -75 92 -75 5 0 14 -7 20 -15 6 -8 106 -98
221 -199 198 -175 212 -186 250 -185 33 0 37 2 24 12 -9 7 -118 102 -243 212
-125 110 -234 199 -242 199 -8 -1 -14 4 -14 11 0 19 -155 152 -208 179 -71 36
-97 71 -110 144 -6 35 -22 88 -36 118 -53 116 -66 129 -823 816 -248 226 -349
346 -360 427 -3 23 0 74 6 114 9 54 9 81 1 103 -6 16 -69 88 -139 159 -70 72
-167 174 -217 228 -84 92 -90 97 -106 81z"/>
<path d="M15757 2802 c-17 -18 -14 -23 65 -108 45 -49 141 -150 214 -224 72
-74 134 -145 138 -156 4 -12 2 -41 -3 -65 -17 -70 -13 -149 9 -198 44 -96 178
-236 530 -552 607 -545 641 -583 673 -754 8 -39 20 -80 28 -93 14 -23 109 -92
126 -92 5 0 49 -36 98 -80 50 -44 96 -80 103 -80 6 0 12 -4 12 -8 0 -7 223
-208 332 -300 l28 -24 0 34 c-1 30 -15 45 -167 178 -91 80 -172 144 -179 144
-8 -1 -14 4 -14 11 0 18 -158 153 -210 180 -67 34 -97 68 -105 121 -19 130
-73 224 -199 348 -45 45 -221 207 -391 361 -453 408 -569 525 -619 622 -18 37
-21 97 -6 174 6 30 8 67 4 84 -4 19 -52 76 -143 170 -75 77 -175 182 -222 233
-82 90 -86 92 -102 74z"/>
<path d="M8541 2782 c-9 -17 0 -30 75 -96 48 -41 90 -73 95 -70 5 3 9 1 9 -5
0 -5 109 -108 243 -228 475 -427 625 -570 674 -641 15 -21 14 -27 -18 -89 -31
-62 -34 -74 -33 -158 0 -69 5 -103 23 -147 36 -92 97 -174 175 -236 82 -66
192 -163 435 -386 139 -128 176 -157 189 -150 9 6 17 15 18 20 3 9 -376 357
-524 481 -153 128 -188 167 -229 250 -34 71 -37 86 -38 163 0 77 3 92 33 153
23 46 32 75 28 92 -8 32 -113 149 -238 266 -286 265 -720 649 -728 644 -6 -3
-10 0 -11 7 0 12 -139 139 -159 146 -5 2 -13 -6 -19 -16z"/>
<path d="M17572 2788 c-7 -7 -12 -15 -12 -19 0 -13 171 -159 181 -154 5 4 9 0
10 -7 0 -11 104 -107 310 -287 l50 -44 -3 35 c-3 32 -21 51 -172 187 -92 84
-170 151 -172 149 -1 -2 -40 31 -86 74 -45 43 -85 78 -88 78 -3 0 -11 -5 -18
-12z"/>
<path d="M7395 2749 c-4 -11 -5 -22 -3 -23 138 -96 141 -101 132 -221 -6 -80
-4 -99 10 -122 10 -15 161 -170 336 -343 277 -274 320 -321 331 -358 10 -36
10 -48 -1 -65 -51 -80 -78 -178 -66 -242 7 -35 31 -64 184 -218 201 -203 377
-361 392 -352 5 3 10 0 11 -7 0 -7 64 -67 142 -133 78 -66 267 -230 421 -365
154 -135 295 -258 313 -273 24 -21 41 -27 65 -25 31 3 27 7 -147 163 -263 234
-744 649 -764 658 -29 14 -146 123 -361 334 l-205 203 0 58 c0 48 7 72 38 133
71 141 72 139 -330 535 l-325 320 6 100 c6 86 5 103 -12 134 -17 32 -132 130
-152 130 -5 0 -12 -9 -15 -21z"/>
<path d="M16424 2748 c-4 -15 -1 -25 12 -34 118 -81 132 -104 117 -202 -6 -41
-6 -80 -1 -100 11 -40 159 -198 378 -403 294 -276 334 -332 291 -402 -51 -83
-73 -193 -51 -254 22 -58 546 -563 569 -549 5 4 11 0 13 -7 2 -8 55 -58 118
-112 63 -55 143 -123 178 -153 l62 -54 0 33 c0 31 -13 45 -168 178 -93 80
-171 145 -174 144 -11 -2 -137 115 -345 322 -207 205 -213 212 -213 251 0 49
25 125 58 178 30 49 24 104 -18 168 -16 24 -163 175 -328 335 -164 161 -306
306 -314 322 -11 25 -13 44 -5 96 13 90 3 129 -43 175 -34 34 -111 90 -124 90
-3 0 -8 -10 -12 -22z"/>
<path d="M2456 2677 c-18 -14 -7 -28 204 -251 244 -258 270 -289 270 -321 0
-12 -11 -59 -25 -105 -34 -113 -33 -171 4 -235 33 -58 156 -194 553 -610 26
-28 29 -28 45 -12 20 20 42 -7 -203 252 -367 387 -378 402 -372 487 3 29 15
90 28 135 34 121 30 129 -143 315 -78 84 -187 199 -242 256 -93 96 -101 102
-119 89z"/>
<path d="M11480 2675 c-10 -12 29 -57 228 -270 153 -163 243 -266 247 -283 3
-17 -4 -62 -20 -115 -31 -108 -32 -178 -4 -232 29 -54 73 -104 314 -360 303
-322 272 -293 292 -272 16 16 15 19 -18 54 -19 21 -114 121 -210 223 -349 370
-354 376 -346 464 2 28 14 87 26 131 26 94 22 128 -19 180 -47 59 -460 495
-469 495 -5 0 -14 -7 -21 -15z"/>
<path d="M4215 2664 c-18 -13 11 -44 436 -467 273 -270 470 -474 491 -507 57
-89 63 -118 49 -240 -12 -99 -12 -108 8 -160 38 -102 138 -235 300 -398 53
-53 265 -257 471 -453 206 -196 386 -375 400 -398 19 -31 31 -41 53 -41 l28 0
-17 33 c-32 62 -69 99 -438 451 -484 461 -489 466 -578 569 -92 106 -145 183
-170 250 -18 47 -18 59 -7 151 21 178 -3 223 -268 496 -88 91 -290 292 -449
446 -269 262 -291 281 -309 268z"/>
<path d="M13244 2665 c-18 -13 11 -44 432 -462 562 -559 568 -568 544 -746 -7
-49 -9 -105 -5 -125 18 -97 147 -275 329 -457 76 -75 412 -396 756 -722 41
-39 86 -89 100 -112 17 -28 32 -41 48 -41 66 -1 -4 84 -305 371 -147 140 -337
321 -423 402 -246 234 -378 389 -433 506 l-30 63 13 112 c11 100 10 116 -5
161 -10 28 -31 70 -48 95 -53 77 -240 271 -604 627 -325 318 -351 341 -369
328z"/>
<path d="M14101 2567 c-6 -6 -11 -16 -11 -23 0 -12 134 -135 440 -405 189
-167 256 -237 266 -273 4 -16 -5 -57 -26 -118 -59 -169 -43 -202 224 -477 339
-347 1057 -1103 1168 -1229 29 -32 45 -42 69 -42 l31 0 -30 38 c-63 78 -733
786 -1178 1243 -222 228 -239 249 -255 311 -12 43 -11 53 21 146 55 163 57
160 -340 512 -135 120 -272 243 -306 273 -46 42 -64 53 -73 44z"/>
<path d="M5063 2553 c-7 -19 -9 -17 307 -296 270 -239 387 -354 396 -392 5
-21 1 -48 -15 -90 -37 -98 -44 -141 -31 -192 17 -69 51 -111 267 -334 236
-244 953 -995 1044 -1094 35 -39 81 -89 101 -113 29 -32 45 -42 69 -42 29 0
29 1 16 21 -27 37 -195 219 -486 524 -158 165 -374 392 -481 505 -107 113
-252 264 -321 335 -180 186 -188 205 -138 354 42 128 38 150 -44 238 -34 36
-174 166 -311 287 -136 122 -269 240 -295 263 -50 46 -68 52 -78 26z"/>
<path d="M0 2358 c0 -32 14 -47 193 -209 218 -197 413 -390 422 -418 3 -12 -7
-43 -25 -79 -57 -107 -51 -228 17 -363 39 -78 69 -109 263 -276 69 -59 207
-183 308 -275 100 -93 186 -168 191 -168 5 0 14 7 21 14 9 12 -1 26 -57 79
-206 193 -508 460 -575 510 -51 37 -114 137 -139 219 -29 94 -23 163 20 249
25 48 32 73 27 92 -13 55 -107 149 -563 566 l-103 93 0 -34z"/>
<path d="M2988 1394 c-16 -16 3 -38 265 -308 859 -888 931 -965 962 -1025 24
-47 35 -60 54 -60 20 -1 22 2 16 27 -17 70 -87 149 -617 699 -702 730 -659
687 -680 667z"/>
<path d="M12018 1394 c-15 -16 20 -55 481 -533 755 -784 737 -764 756 -815 14
-37 22 -46 41 -46 30 0 30 12 -1 78 -15 33 -59 89 -118 150 -335 349 -1139
1182 -1140 1182 -2 0 -10 -7 -19 -16z"/>
<path d="M1 1009 c1 -32 21 -52 311 -309 341 -302 602 -554 668 -643 35 -47
48 -57 72 -57 l29 0 -42 61 c-89 126 -255 286 -769 744 -129 115 -243 215
-252 223 -17 14 -18 12 -17 -19z"/>
<path d="M0 552 c0 -25 26 -51 208 -209 114 -99 248 -217 297 -262 77 -69 95
-81 125 -80 l35 0 -65 61 c-89 83 -580 512 -591 516 -5 2 -9 -9 -9 -26z"/>
<path d="M5157 533 c-16 -18 -4 -31 242 -277 240 -240 260 -257 290 -254 31 3
24 10 -242 276 -260 260 -274 272 -290 255z"/>
<path d="M14181 526 c-9 -10 41 -65 244 -267 233 -231 259 -254 293 -257 36
-3 29 5 -233 267 -148 149 -275 271 -281 271 -6 0 -17 -6 -23 -14z"/>
<path d="M1497 342 c-16 -17 -6 -28 152 -180 149 -143 173 -162 203 -162 l33
0 -90 91 c-50 50 -133 131 -186 180 -91 84 -97 88 -112 71z"/>
<path d="M10526 341 c-15 -17 -7 -26 153 -179 149 -143 173 -162 202 -162 l33
0 -59 61 c-33 33 -117 114 -186 180 -120 113 -127 118 -143 100z"/>
<path d="M8559 214 c-11 -13 -2 -25 62 -84 41 -38 80 -67 87 -65 6 2 12 -1 12
-9 0 -26 45 -56 86 -56 l39 1 -50 44 c-27 25 -52 45 -55 45 -3 0 -38 32 -78
70 -40 39 -77 70 -81 70 -5 0 -14 -7 -22 -16z"/>
<path d="M17589 214 c-11 -14 -3 -25 61 -85 41 -37 81 -66 88 -64 6 2 12 -1
12 -9 0 -26 45 -56 86 -56 l39 0 -50 45 c-27 24 -52 44 -55 45 -3 0 -38 32
-79 70 -40 39 -77 70 -81 70 -4 0 -14 -7 -21 -16z"/>
</g>
</svg>
