<?xml version="1.0" standalone="no"?>
<!DOCTYPE svg PUBLIC "-//W3C//DTD SVG 20010904//EN"
 "http://www.w3.org/TR/2001/REC-SVG-20010904/DTD/svg10.dtd">
<svg version="1.0" xmlns="http://www.w3.org/2000/svg"
 width="1125.000000pt" height="900.000000pt" viewBox="0 0 1125.000000 900.000000"
 preserveAspectRatio="xMidYMid meet">
<metadata>
Created by potrace 1.13, written by Peter Selinger 2001-2015
</metadata>
<g transform="translate(0.000000,900.000000) scale(0.100000,-0.100000)"
fill="#000000" stroke="none">
<path d="M0 4500 l0 -4500 5625 0 5625 0 0 4500 0 4500 -5625 0 -5625 0 0
-4500z m950 4428 c0 -97 139 -104 144 -8 l2 35 125 3 125 3 9 -33 c21 -67 104
-68 135 -1 l15 33 128 0 127 0 0 -35 c0 -44 29 -75 70 -75 41 0 70 31 70 75
l0 35 1046 0 c992 0 1046 -1 1039 -17 -17 -40 -16 -60 5 -86 30 -38 80 -38
110 0 21 26 22 46 5 86 -7 16 2 17 131 15 114 -2 138 -6 136 -17 -6 -26 19
-69 47 -81 51 -21 101 15 101 74 l0 26 140 0 c128 0 160 -6 130 -25 -17 -11
-11 -60 10 -83 13 -14 33 -22 54 -22 55 0 83 48 62 108 l-7 22 917 0 c505 0
914 -3 911 -6 -10 -10 -274 -110 -393 -150 -93 -30 -152 -43 -286 -59 -43 -6
-48 -9 -48 -31 0 -14 7 -27 15 -30 23 -9 193 16 284 43 47 13 164 55 262 93
283 111 428 140 689 140 168 0 271 -12 378 -43 l83 -24 14 33 14 34 1118 -2
1118 -3 3 -22 c3 -21 7 -21 200 -25 l197 -5 164 -47 c89 -26 191 -63 225 -81
84 -47 201 -77 326 -84 l105 -6 0 -150 0 -150 -37 3 c-45 4 -78 -24 -78 -68 0
-44 33 -72 78 -68 l37 3 3 -229 c1 -126 -2 -234 -6 -240 -19 -23 -22 -64 -7
-70 13 -4 15 -38 15 -211 l0 -205 -24 -12 c-37 -16 -51 -59 -32 -96 9 -17 25
-33 36 -37 20 -6 20 -14 20 -466 l0 -459 -24 0 c-38 0 -56 -10 -71 -41 -11
-20 -12 -35 -5 -53 11 -30 51 -58 77 -54 17 3 18 -16 21 -424 l2 -427 -22 -12
c-63 -33 -66 -104 -7 -135 l29 -15 -2 -207 -3 -207 -90 -3 c-85 -3 -286 11
-352 24 -27 5 -31 3 -36 -23 -3 -15 -4 -29 -2 -31 10 -10 157 -25 305 -31
l175 -6 3 -694 c2 -605 0 -697 -13 -717 -19 -29 -19 -61 0 -94 11 -19 14 -67
15 -202 l0 -176 -38 5 c-72 10 -114 -65 -66 -118 15 -17 27 -20 61 -16 l43 5
0 -196 0 -195 -23 21 c-46 43 -127 16 -127 -42 0 -13 9 -35 21 -50 25 -32 66
-34 103 -5 l26 20 0 -195 0 -196 -30 0 c-40 0 -70 -31 -70 -73 0 -40 25 -67
66 -71 l29 -3 3 -462 c1 -276 -1 -461 -7 -461 -5 0 -56 11 -113 24 -193 46
-310 59 -513 58 -106 0 -228 -6 -275 -14 -85 -13 -85 -13 -83 -42 1 -16 3 -30
5 -31 2 -1 48 4 103 12 126 18 472 12 591 -10 118 -23 252 -55 275 -67 19 -10
19 -21 17 -283 l-3 -272 -707 -3 -708 -2 0 30 c0 38 -39 80 -73 80 -37 0 -69
-31 -72 -70 l-2 -35 -137 -3 c-125 -2 -139 -1 -163 18 -33 26 -84 26 -108 0
-16 -18 -31 -20 -148 -20 l-129 0 -35 30 c-18 16 -42 30 -53 30 -11 0 -35 -14
-53 -30 -34 -29 -37 -30 -146 -30 -101 0 -130 7 -101 25 15 9 12 58 -6 83 -20
29 -83 31 -109 2 -14 -15 -16 -29 -12 -65 l7 -45 -730 0 -730 0 0 29 c0 32
-39 71 -70 71 -28 0 -68 -38 -72 -68 l-3 -27 -143 -3 c-115 -2 -147 0 -165 13
-27 19 -67 19 -93 0 -14 -11 -52 -14 -157 -15 l-139 0 -28 30 c-15 17 -37 30
-49 30 -11 0 -36 -13 -54 -30 -34 -30 -35 -30 -157 -30 -108 0 -121 2 -116 16
17 44 16 61 -4 87 -42 53 -138 22 -127 -41 2 -15 8 -35 12 -44 7 -17 -31 -18
-723 -18 l-730 0 -5 28 c-8 40 -28 61 -64 68 -26 5 -37 1 -57 -19 -14 -15 -26
-38 -26 -52 l0 -25 -138 0 c-106 0 -143 3 -158 15 -24 18 -62 18 -94 0 -19
-11 -64 -14 -177 -15 l-152 0 -21 29 c-37 53 -98 53 -125 1 l-16 -30 -120 0
c-66 0 -119 3 -117 8 2 4 10 20 18 35 18 37 4 77 -34 96 -35 16 -67 4 -92 -35
-17 -26 -17 -28 3 -65 l21 -39 -739 0 -739 0 0 30 c0 38 -39 80 -73 80 -38 0
-69 -31 -71 -70 l-2 -35 -137 -3 c-126 -2 -140 -1 -164 18 -33 26 -84 26 -108
0 -16 -18 -31 -20 -143 -20 l-126 0 -32 35 c-45 49 -103 44 -124 -11 -9 -24
-10 -24 -150 -24 -77 0 -140 4 -140 9 0 5 7 14 15 21 8 7 15 28 15 46 0 26 -7
39 -30 56 l-30 22 0 184 c0 171 1 184 18 179 9 -2 91 -28 181 -56 90 -28 186
-54 212 -57 l49 -7 0 30 c0 29 -3 31 -59 42 -73 14 -371 109 -389 123 -9 8
-12 59 -10 212 l3 201 27 3 c30 4 68 44 68 72 0 28 -38 68 -68 72 l-27 3 -2
1414 c-2 1393 -2 1414 17 1439 26 32 25 72 0 105 -19 24 -20 38 -18 229 l3
203 150 12 c192 16 329 37 483 74 135 32 312 97 312 114 0 6 -6 19 -13 29 -12
17 -16 17 -73 -7 -188 -79 -506 -140 -774 -149 l-85 -3 0 1519 0 1519 270 -2
c362 -3 606 21 850 84 88 22 247 77 273 94 20 12 -6 64 -27 55 -68 -30 -284
-97 -366 -113 -220 -44 -346 -55 -665 -55 -168 -1 -313 2 -323 6 -16 7 -17 39
-17 466 l0 460 31 6 c17 3 53 6 79 6 34 0 50 4 54 16 16 40 9 44 -79 44 l-85
0 0 93 c0 52 3 97 7 100 3 4 208 7 455 7 l448 0 0 -32z m10255 -73 l0 -100
-95 1 c-116 2 -200 22 -305 73 -44 22 -138 57 -210 77 -71 20 -134 41 -140 46
-5 4 158 7 370 6 l380 -3 0 -100z"/>
<path d="M9620 8920 c-26 -26 -26 -81 -2 -103 45 -40 122 -6 122 53 0 17 -9
39 -20 50 -11 11 -33 20 -50 20 -17 0 -39 -9 -50 -20z"/>
<path d="M2230 8855 c-6 -15 -9 -29 -8 -31 10 -10 184 -68 294 -98 229 -63
287 -71 524 -71 187 0 229 3 320 23 107 24 279 77 293 91 4 4 3 19 -2 33 l-9
25 -99 -33 c-54 -19 -98 -34 -98 -35 0 0 -11 -2 -25 -5 -14 -2 -61 -11 -105
-20 -188 -37 -434 -29 -663 22 -93 21 -324 90 -394 119 -13 5 -20 0 -28 -20z"/>
<path d="M5213 8865 c-70 -49 0 -160 76 -120 48 24 55 72 16 110 -27 28 -61
32 -92 10z"/>
<path d="M590 8838 c-27 -29 -25 -64 5 -93 63 -63 160 18 105 88 -28 35 -80
37 -110 5z"/>
<path d="M8035 8815 c-14 -13 -25 -36 -25 -50 0 -28 40 -75 64 -75 78 0 109
107 40 139 -37 16 -52 14 -79 -14z"/>
<path d="M9240 8790 c-11 -11 -20 -33 -20 -50 0 -17 9 -39 20 -50 11 -11 33
-20 50 -20 17 0 39 9 50 20 11 11 20 33 20 50 0 17 -9 39 -20 50 -11 11 -33
20 -50 20 -17 0 -39 -9 -50 -20z"/>
<path d="M5590 8780 c-11 -11 -20 -33 -20 -50 0 -17 9 -39 20 -50 11 -11 33
-20 50 -20 17 0 39 9 50 20 11 11 20 33 20 50 0 17 -9 39 -20 50 -11 11 -33
20 -50 20 -17 0 -39 -9 -50 -20z"/>
<path d="M8395 8735 c-48 -47 -19 -115 49 -115 68 0 96 79 44 123 -28 24 -65
21 -93 -8z"/>
<path d="M8833 8740 c-49 -20 -56 -90 -11 -123 73 -54 153 56 82 112 -29 23
-38 24 -71 11z"/>
<path d="M1852 8487 c-45 -48 -14 -117 51 -117 42 0 67 26 67 68 0 65 -74 96
-118 49z"/>
<path d="M10302 8487 c-45 -48 -17 -117 47 -117 46 0 71 24 71 68 0 65 -74 96
-118 49z"/>
<path d="M4682 8480 c-32 -30 -30 -82 5 -110 70 -55 151 42 88 105 -29 30 -64
32 -93 5z"/>
<path d="M7505 8475 c-40 -39 -29 -97 22 -116 36 -13 78 5 93 40 31 75 -58
134 -115 76z"/>
<path d="M1446 8458 c-36 -51 -3 -118 56 -118 57 0 87 68 52 118 -11 16 -25
22 -54 22 -29 0 -43 -6 -54 -22z"/>
<path d="M2255 8460 c-41 -46 -7 -120 55 -120 33 0 70 40 70 76 0 57 -86 87
-125 44z"/>
<path d="M9897 8462 c-23 -25 -21 -78 3 -102 61 -61 154 27 104 98 -20 28 -83
31 -107 4z"/>
<path d="M10705 8460 c-41 -45 -9 -120 52 -120 31 0 73 42 73 75 0 57 -86 89
-125 45z"/>
<path d="M4275 8450 c-41 -45 -10 -120 50 -120 38 0 75 35 75 71 0 58 -87 91
-125 49z"/>
<path d="M5081 8444 c-12 -15 -21 -34 -21 -44 0 -34 39 -70 75 -70 36 0 75 36
75 70 0 34 -39 70 -75 70 -24 0 -39 -7 -54 -26z"/>
<path d="M7100 8448 c-59 -64 31 -156 99 -100 28 22 31 75 6 102 -25 27 -78
26 -105 -2z"/>
<path d="M7910 8450 c-11 -11 -20 -33 -20 -50 0 -17 9 -39 20 -50 11 -11 33
-20 50 -20 17 0 39 9 50 20 11 11 20 33 20 50 0 17 -9 39 -20 50 -11 11 -33
20 -50 20 -17 0 -39 -9 -50 -20z"/>
<path d="M2660 8370 c-43 -43 -11 -120 50 -120 38 0 70 32 70 70 0 38 -32 70
-70 70 -17 0 -39 -9 -50 -20z"/>
<path d="M5490 8360 c-26 -26 -26 -81 -2 -103 44 -40 122 -7 122 51 0 60 -78
94 -120 52z"/>
<path d="M8315 8355 c-48 -47 -19 -115 48 -115 42 0 70 29 70 72 0 62 -73 89
-118 43z"/>
<path d="M1093 8350 c-48 -19 -58 -87 -17 -119 34 -27 64 -27 92 -1 57 53 -3
149 -75 120z"/>
<path d="M9543 8350 c-48 -19 -58 -87 -17 -119 34 -27 64 -27 92 -1 57 53 -3
149 -75 120z"/>
<path d="M3897 8322 c-40 -44 -7 -122 51 -122 60 0 94 78 52 120 -26 26 -81
26 -103 2z"/>
<path d="M6720 8318 c-58 -63 32 -156 98 -100 32 26 37 63 12 95 -28 35 -80
37 -110 5z"/>
<path d="M253 8310 c-46 -19 -57 -83 -20 -118 47 -44 117 -13 117 52 0 50 -50
84 -97 66z"/>
<path d="M3043 8310 c-47 -19 -56 -78 -18 -115 47 -48 115 -19 115 48 0 51
-50 86 -97 67z"/>
<path d="M5870 8280 c-63 -63 31 -158 101 -102 28 23 30 73 4 102 -24 26 -79
26 -105 0z"/>
<path d="M8671 8274 c-12 -15 -21 -34 -21 -44 0 -32 39 -70 71 -70 34 0 79 39
79 68 0 35 -38 72 -75 72 -24 0 -39 -7 -54 -26z"/>
<path d="M645 8265 c-46 -45 -19 -118 43 -118 58 0 93 53 67 102 -24 48 -72
55 -110 16z"/>
<path d="M9095 8265 c-46 -45 -19 -118 43 -118 43 0 72 28 72 70 0 67 -68 96
-115 48z"/>
<path d="M3485 8255 c-14 -13 -25 -36 -25 -50 0 -30 41 -75 68 -75 11 0 31 9
46 21 36 28 36 80 0 108 -35 27 -59 26 -89 -4z"/>
<path d="M6311 8267 c-51 -25 -47 -107 5 -127 77 -30 138 57 79 115 -27 28
-48 31 -84 12z"/>
<path d="M10122 8007 c-45 -48 -14 -117 51 -117 42 0 67 26 67 68 0 65 -74 96
-118 49z"/>
<path d="M9720 7980 c-42 -42 -8 -120 53 -120 58 0 91 85 49 123 -25 23 -78
21 -102 -3z"/>
<path d="M10527 7982 c-40 -44 -7 -122 51 -122 60 0 94 78 52 120 -26 26 -81
26 -103 2z"/>
<path d="M1646 7959 c-34 -27 -35 -71 -1 -104 30 -30 54 -31 89 -4 19 15 26
30 26 54 0 36 -36 75 -70 75 -10 0 -29 -9 -44 -21z"/>
<path d="M7315 7964 c-16 -2 -67 -9 -113 -15 -83 -11 -84 -11 -77 -38 4 -14 8
-28 10 -30 2 -2 44 3 92 10 49 8 167 13 268 13 272 0 449 -34 845 -162 224
-72 323 -98 340 -87 5 3 10 17 10 30 0 21 -7 25 -57 35 -32 7 -148 41 -258 77
-410 132 -569 163 -845 168 -102 2 -198 1 -215 -1z"/>
<path d="M4452 7949 c-146 -13 -321 -50 -507 -109 -88 -27 -194 -60 -235 -72
-41 -12 -76 -23 -78 -24 -2 -1 0 -13 4 -28 4 -16 13 -26 25 -26 10 0 109 29
219 65 364 117 514 141 833 132 l207 -5 0 28 c0 25 -3 28 -52 33 -105 12 -315
15 -416 6z"/>
<path d="M2049 7932 c-48 -40 -17 -122 47 -122 66 0 98 74 51 118 -28 27 -67
28 -98 4z"/>
<path d="M6751 7924 c-12 -15 -21 -34 -21 -44 0 -31 39 -70 70 -70 62 0 97 66
60 113 -29 37 -80 37 -109 1z"/>
<path d="M10932 7887 c-45 -48 -14 -117 51 -117 43 0 67 26 67 73 0 63 -74 91
-118 44z"/>
<path d="M5140 7880 c-11 -11 -20 -33 -20 -50 0 -17 9 -39 20 -50 11 -11 33
-20 50 -20 17 0 39 9 50 20 11 11 20 33 20 50 0 17 -9 39 -20 50 -11 11 -33
20 -50 20 -17 0 -39 -9 -50 -20z"/>
<path d="M9363 7870 c-48 -19 -58 -87 -17 -119 53 -41 114 -13 114 52 0 51
-50 86 -97 67z"/>
<path d="M6393 7858 c-51 -24 -50 -106 1 -129 83 -38 147 84 66 126 -33 17
-37 17 -67 3z"/>
<path d="M2452 7837 c-43 -46 -15 -120 46 -120 43 0 72 28 72 69 0 66 -74 98
-118 51z"/>
<path d="M5540 7817 c-52 -26 -49 -104 5 -129 58 -26 119 33 95 91 -6 16 -23
33 -36 40 -31 14 -33 14 -64 -2z"/>
<path d="M8915 7785 c-40 -39 -29 -97 22 -116 36 -13 78 5 93 40 31 75 -58
134 -115 76z"/>
<path d="M5949 7782 c-49 -40 -17 -122 48 -122 67 0 96 68 48 115 -29 30 -64
32 -96 7z"/>
<path d="M2810 7760 c-42 -42 -12 -120 48 -120 46 0 72 25 72 70 0 29 -6 43
-22 54 -31 22 -74 20 -98 -4z"/>
<path d="M3237 7759 c-48 -28 -40 -107 12 -129 75 -31 134 58 76 115 -25 26
-58 31 -88 14z"/>
<path d="M1510 7470 c-43 -43 -11 -120 50 -120 38 0 70 32 70 70 0 38 -32 70
-70 70 -17 0 -39 -9 -50 -20z"/>
<path d="M9960 7470 c-11 -11 -20 -33 -20 -50 0 -17 9 -39 20 -50 11 -11 33
-20 50 -20 17 0 39 9 50 20 11 11 20 33 20 50 0 17 -9 39 -20 50 -11 11 -33
20 -50 20 -17 0 -39 -9 -50 -20z"/>
<path d="M4340 7460 c-25 -25 -26 -81 -2 -103 46 -42 122 -10 122 51 0 60 -78
94 -120 52z"/>
<path d="M7165 7455 c-30 -29 -32 -68 -5 -95 47 -47 123 -15 123 51 0 63 -72
90 -118 44z"/>
<path d="M1140 7463 c-55 -20 -68 -87 -24 -122 15 -12 34 -21 44 -21 33 0 70
39 70 74 0 46 -49 84 -90 69z"/>
<path d="M1932 7454 c-63 -44 -37 -134 39 -134 28 0 69 44 69 73 0 55 -65 92
-108 61z"/>
<path d="M9590 7463 c-53 -19 -67 -83 -27 -121 29 -28 57 -28 91 -1 57 45 4
146 -64 122z"/>
<path d="M10369 7441 c-25 -25 -30 -37 -25 -59 15 -60 79 -80 121 -37 43 42
23 106 -37 121 -22 5 -34 0 -59 -25z"/>
<path d="M3935 7430 c-42 -47 -8 -120 55 -120 33 0 70 40 70 74 0 57 -86 89
-125 46z"/>
<path d="M4740 7428 c-58 -63 32 -156 98 -100 32 26 37 63 12 95 -28 35 -80
37 -110 5z"/>
<path d="M6760 7430 c-42 -42 -8 -120 53 -120 58 0 91 85 49 123 -25 23 -78
21 -102 -3z"/>
<path d="M7567 7432 c-40 -45 -6 -122 53 -122 17 0 39 9 50 20 45 45 11 120
-53 120 -20 0 -41 -8 -50 -18z"/>
<path d="M2320 7350 c-43 -43 -11 -120 50 -120 59 0 90 67 54 118 -20 29 -76
30 -104 2z"/>
<path d="M10770 7350 c-43 -43 -11 -120 50 -120 38 0 70 32 70 70 0 38 -32 70
-70 70 -17 0 -39 -9 -50 -20z"/>
<path d="M5149 7342 c-28 -23 -30 -73 -4 -102 24 -26 79 -26 105 0 63 63 -31
158 -101 102z"/>
<path d="M7972 7337 c-44 -47 -13 -117 52 -117 41 0 69 29 69 72 0 61 -78 91
-121 45z"/>
<path d="M736 7319 c-36 -28 -36 -80 0 -108 15 -12 34 -21 44 -21 34 0 70 39
70 75 0 36 -36 75 -70 75 -10 0 -29 -9 -44 -21z"/>
<path d="M9186 7319 c-19 -15 -26 -30 -26 -54 0 -36 36 -75 70 -75 34 0 70 39
70 75 0 36 -36 75 -70 75 -10 0 -29 -9 -44 -21z"/>
<path d="M3580 7317 c-70 -35 -48 -137 30 -137 28 0 70 44 70 73 0 51 -55 86
-100 64z"/>
<path d="M6405 7318 c-50 -27 -59 -75 -20 -113 29 -30 64 -32 96 -7 59 48 -9
157 -76 120z"/>
<path d="M2684 7275 c-33 -33 -30 -80 8 -108 73 -54 153 56 82 112 -35 28 -59
26 -90 -4z"/>
<path d="M5553 7275 c-49 -21 -59 -77 -20 -113 48 -45 117 -14 117 51 0 54
-46 83 -97 62z"/>
<path d="M8361 7278 c-54 -19 -66 -74 -26 -113 28 -29 65 -32 93 -7 32 26 37
63 13 94 -24 30 -48 38 -80 26z"/>
<path d="M3091 7254 c-12 -15 -21 -34 -21 -44 0 -34 39 -70 75 -70 36 0 75 36
75 70 0 34 -39 70 -75 70 -24 0 -39 -7 -54 -26z"/>
<path d="M302 7247 c-45 -48 -14 -117 51 -117 43 0 70 29 69 72 -2 63 -77 91
-120 45z"/>
<path d="M8752 7247 c-45 -48 -14 -117 51 -117 42 0 67 26 67 68 0 65 -74 96
-118 49z"/>
<path d="M5955 7235 c-14 -13 -25 -30 -25 -37 1 -59 51 -98 100 -78 27 11 50
46 50 76 0 24 -47 64 -75 64 -14 0 -37 -11 -50 -25z"/>
<path d="M1376 6949 c-19 -15 -26 -30 -26 -54 0 -36 36 -75 70 -75 34 0 70 39
70 75 0 36 -36 75 -70 75 -10 0 -29 -9 -44 -21z"/>
<path d="M4217 6932 c-23 -25 -21 -78 3 -102 43 -43 120 -11 120 50 0 17 -9
39 -20 50 -26 26 -81 26 -103 2z"/>
<path d="M9722 6940 c-123 -19 -119 -17 -114 -51 4 -29 7 -31 35 -25 168 34
492 32 682 -3 133 -25 301 -71 535 -146 177 -57 295 -87 305 -77 3 3 5 17 5
31 0 24 -5 27 -62 38 -35 7 -160 44 -279 82 -409 132 -515 152 -824 156 -126
2 -254 0 -283 -5z"/>
<path d="M970 6920 c-26 -26 -26 -81 -2 -103 25 -23 78 -21 102 3 43 43 11
120 -50 120 -17 0 -39 -9 -50 -20z"/>
<path d="M1771 6914 c-12 -15 -21 -34 -21 -44 0 -34 39 -70 75 -70 36 0 75 36
75 70 0 34 -39 70 -75 70 -24 0 -39 -7 -54 -26z"/>
<path d="M6890 6930 c-175 -22 -349 -65 -645 -162 -128 -42 -130 -43 -127 -71
3 -26 6 -28 35 -22 18 4 106 31 197 60 91 29 199 62 240 74 203 56 487 82 689
62 63 -6 115 -10 116 -8 1 1 5 14 8 28 6 23 3 28 -21 33 -47 11 -413 15 -492
6z"/>
<path d="M9270 6927 c-52 -26 -49 -104 5 -129 58 -26 119 33 95 91 -6 16 -23
33 -36 40 -31 14 -33 14 -64 -2z"/>
<path d="M4629 6911 c-16 -13 -23 -29 -23 -55 0 -47 23 -70 70 -70 68 0 97 72
49 119 -29 30 -64 32 -96 6z"/>
<path d="M3988 6905 c-92 -51 -350 -112 -588 -141 -181 -23 -661 -26 -783 -5
-43 7 -80 11 -82 9 -2 -2 -6 -15 -10 -29 -8 -33 -4 -34 175 -50 183 -16 570
-6 760 20 236 32 453 87 563 142 41 21 41 22 27 50 -13 22 -26 23 -62 4z"/>
<path d="M7646 6858 c-51 -73 42 -160 104 -98 26 26 26 81 2 103 -28 25 -87
22 -106 -5z"/>
<path d="M8860 6840 c-26 -26 -26 -81 0 -105 29 -26 79 -24 102 4 27 34 23 75
-8 100 -34 26 -68 27 -94 1z"/>
<path d="M2182 6830 c-48 -45 -16 -123 50 -123 61 0 91 78 45 121 -29 28 -67
28 -95 2z"/>
<path d="M5060 6833 c-51 -19 -68 -85 -30 -123 61 -61 159 32 103 98 -20 23
-50 33 -73 25z"/>
<path d="M590 6790 c-43 -43 -11 -120 50 -120 38 0 70 32 70 70 0 38 -32 70
-70 70 -17 0 -39 -9 -50 -20z"/>
<path d="M8015 6785 c-14 -13 -25 -36 -25 -50 0 -30 41 -75 68 -75 35 0 72 38
72 75 0 24 -7 39 -26 54 -35 27 -59 26 -89 -4z"/>
<path d="M8430 6770 c-11 -11 -20 -33 -20 -50 0 -17 9 -39 20 -50 11 -11 33
-20 50 -20 17 0 39 9 50 20 11 11 20 33 20 50 0 17 -9 39 -20 50 -11 11 -33
20 -50 20 -17 0 -39 -9 -50 -20z"/>
<path d="M5415 6735 c-40 -39 -29 -97 22 -116 62 -23 119 40 89 99 -25 49 -72
56 -111 17z"/>
<path d="M165 6725 c-34 -33 -33 -77 1 -104 15 -12 34 -21 44 -21 10 0 29 9
44 21 36 28 36 80 0 108 -35 27 -59 26 -89 -4z"/>
<path d="M5835 6710 c-42 -46 -10 -120 51 -120 35 0 74 37 74 70 0 10 -9 29
-21 44 -26 33 -77 36 -104 6z"/>
<path d="M1060 6430 c-26 -26 -26 -81 -2 -103 28 -25 87 -22 106 5 50 71 -43
159 -104 98z"/>
<path d="M9510 6430 c-26 -26 -26 -81 -2 -103 28 -25 87 -22 106 5 50 71 -43
159 -104 98z"/>
<path d="M3897 6429 c-48 -28 -40 -107 12 -129 75 -31 134 58 76 115 -25 26
-58 31 -88 14z"/>
<path d="M6715 6415 c-63 -63 18 -160 88 -105 35 28 37 80 5 110 -29 27 -64
25 -93 -5z"/>
<path d="M657 6402 c-40 -44 -7 -122 51 -122 60 0 94 78 52 120 -26 26 -81 26
-103 2z"/>
<path d="M1461 6394 c-12 -15 -21 -35 -21 -46 0 -27 45 -68 75 -68 29 0 75 40
75 65 0 20 -19 57 -34 67 -26 18 -75 8 -95 -18z"/>
<path d="M9107 6403 c-42 -47 -10 -123 51 -123 60 0 94 78 52 120 -25 25 -81
26 -103 3z"/>
<path d="M9911 6394 c-12 -15 -21 -35 -21 -46 0 -27 45 -68 75 -68 30 0 75 41
75 68 0 35 -38 72 -75 72 -24 0 -39 -7 -54 -26z"/>
<path d="M3481 6384 c-12 -15 -21 -34 -21 -44 0 -34 39 -70 75 -70 36 0 75 36
75 70 0 34 -39 70 -75 70 -24 0 -39 -7 -54 -26z"/>
<path d="M4290 6388 c-43 -46 -10 -118 54 -118 42 0 66 26 66 73 0 62 -77 91
-120 45z"/>
<path d="M6310 6390 c-11 -11 -20 -33 -20 -50 0 -17 9 -39 20 -50 11 -11 33
-20 50 -20 17 0 39 9 50 20 11 11 20 33 20 50 0 17 -9 39 -20 50 -11 11 -33
20 -50 20 -17 0 -39 -9 -50 -20z"/>
<path d="M7122 6394 c-16 -11 -22 -25 -22 -54 0 -29 6 -43 22 -54 51 -36 118
-5 118 54 0 59 -67 90 -118 54z"/>
<path d="M1870 6310 c-43 -43 -11 -120 50 -120 38 0 70 32 70 70 0 38 -32 70
-70 70 -17 0 -39 -9 -50 -20z"/>
<path d="M10320 6310 c-26 -26 -26 -81 -2 -103 25 -23 78 -21 102 3 43 43 11
120 -50 120 -17 0 -39 -9 -50 -20z"/>
<path d="M4703 6305 c-64 -45 -8 -151 66 -123 54 20 66 74 26 113 -27 28 -61
32 -92 10z"/>
<path d="M7522 6297 c-45 -48 -17 -117 47 -117 46 0 71 24 71 68 0 65 -74 96
-118 49z"/>
<path d="M3075 6285 c-14 -13 -25 -36 -25 -50 0 -28 40 -75 64 -75 29 0 64 22
75 48 16 33 -1 75 -35 91 -37 16 -52 14 -79 -14z"/>
<path d="M310 6293 c-53 -19 -68 -86 -28 -123 63 -59 157 32 101 98 -20 23
-50 33 -73 25z"/>
<path d="M8760 6293 c-51 -19 -68 -85 -30 -123 61 -61 159 32 103 98 -20 23
-50 33 -73 25z"/>
<path d="M5930 6260 c-42 -42 -8 -120 53 -120 58 0 91 85 49 123 -25 23 -78
21 -102 -3z"/>
<path d="M2260 6253 c-53 -19 -67 -83 -27 -121 47 -44 117 -13 117 52 0 46
-49 84 -90 69z"/>
<path d="M10739 6248 c-16 -5 -32 -22 -39 -39 -35 -84 84 -137 129 -58 31 55
-28 118 -90 97z"/>
<path d="M2645 6215 c-30 -30 -31 -54 -4 -89 15 -19 30 -26 54 -26 37 0 75 37
75 72 0 27 -45 68 -75 68 -14 0 -37 -11 -50 -25z"/>
<path d="M5080 6220 c-43 -43 -11 -120 50 -120 17 0 39 9 50 20 11 11 20 33
20 50 0 17 -9 39 -20 50 -11 11 -33 20 -50 20 -17 0 -39 -9 -50 -20z"/>
<path d="M7880 6220 c-61 -61 27 -154 98 -104 28 20 31 83 4 107 -25 23 -78
21 -102 -3z"/>
<path d="M8306 6209 c-52 -41 -23 -122 44 -122 65 0 95 76 47 121 -29 28 -57
28 -91 1z"/>
<path d="M5505 6195 c-37 -37 -30 -91 16 -115 55 -30 123 32 99 90 -11 27 -46
50 -76 50 -8 0 -26 -11 -39 -25z"/>
<path d="M9416 5929 c-19 -15 -26 -30 -26 -54 0 -36 36 -75 70 -75 34 0 70 39
70 75 0 36 -36 75 -70 75 -10 0 -29 -9 -44 -21z"/>
<path d="M3705 5924 c-16 -2 -67 -9 -112 -15 -66 -9 -83 -14 -83 -28 1 -41 12
-44 106 -30 50 8 167 13 269 13 272 0 449 -34 845 -162 257 -83 329 -100 341
-80 21 33 10 46 -48 58 -32 7 -148 41 -258 77 -410 132 -569 163 -845 168
-102 2 -198 1 -215 -1z"/>
<path d="M6495 5905 c-39 -38 -32 -86 16 -110 76 -40 146 71 76 120 -31 22
-65 18 -92 -10z"/>
<path d="M917 5899 c-140 -14 -324 -55 -515 -116 -97 -31 -201 -63 -230 -71
-47 -14 -52 -18 -52 -44 0 -21 5 -28 19 -28 10 0 109 29 219 64 210 68 371
107 512 126 99 13 330 16 446 6 l81 -8 7 27 c4 15 5 29 3 31 -2 2 -55 8 -118
14 -130 11 -245 11 -372 -1z"/>
<path d="M6090 5880 c-62 -62 31 -158 99 -102 28 22 31 75 6 102 -24 26 -79
26 -105 0z"/>
<path d="M6900 5880 c-11 -11 -20 -33 -20 -50 0 -17 9 -39 20 -50 11 -11 33
-20 50 -20 17 0 39 9 50 20 11 11 20 33 20 50 0 17 -9 39 -20 50 -11 11 -33
20 -50 20 -17 0 -39 -9 -50 -20z"/>
<path d="M9791 5874 c-12 -15 -21 -34 -21 -44 0 -32 39 -70 71 -70 34 0 79 39
79 68 0 35 -38 72 -75 72 -24 0 -39 -7 -54 -26z"/>
<path d="M1620 5870 c-27 -27 -25 -66 5 -95 63 -63 160 18 105 88 -27 34 -80
37 -110 7z"/>
<path d="M8995 5854 c-151 -63 -393 -111 -673 -135 -158 -13 -589 -6 -681 10
-30 6 -56 9 -57 8 0 -1 -4 -14 -8 -29 -7 -32 -6 -33 129 -48 227 -25 693 -7
942 35 160 28 431 110 461 139 7 8 -15 56 -25 55 -5 -1 -44 -16 -88 -35z"/>
<path d="M10206 5859 c-19 -15 -26 -30 -26 -54 0 -36 36 -75 70 -75 34 0 70
39 70 75 0 36 -36 75 -70 75 -10 0 -29 -9 -44 -21z"/>
<path d="M7301 5784 c-27 -34 -27 -64 -1 -92 45 -48 123 -16 123 50 0 64 -83
92 -122 42z"/>
<path d="M2029 5782 c-48 -40 -17 -122 47 -122 66 0 98 74 51 118 -28 27 -67
28 -98 4z"/>
<path d="M10622 5775 c-59 -25 -51 -107 11 -130 62 -21 118 52 80 103 -26 34
-53 42 -91 27z"/>
<path d="M3236 5759 c-36 -28 -36 -80 0 -108 15 -12 34 -21 44 -21 34 0 70 39
70 75 0 36 -36 75 -70 75 -10 0 -29 -9 -44 -21z"/>
<path d="M5710 5748 c-27 -29 -25 -64 5 -93 63 -63 160 18 105 88 -28 35 -80
37 -110 5z"/>
<path d="M2420 5723 c-51 -19 -68 -85 -30 -123 61 -61 159 33 103 98 -20 23
-50 33 -73 25z"/>
<path d="M2802 5687 c-45 -48 -14 -117 51 -117 42 0 70 29 70 72 0 61 -78 91
-121 45z"/>
<path d="M5289 5691 c-28 -23 -32 -83 -6 -108 21 -21 82 -22 102 -2 8 8 17 29
21 46 5 26 1 37 -19 57 -31 31 -66 33 -98 7z"/>
<path d="M11006 5689 c-19 -15 -26 -30 -26 -54 0 -36 36 -75 70 -75 34 0 70
39 70 75 0 36 -36 75 -70 75 -10 0 -29 -9 -44 -21z"/>
<path d="M1091 5414 c-12 -15 -21 -34 -21 -44 0 -32 39 -70 71 -70 34 0 79 39
79 68 0 35 -38 72 -75 72 -24 0 -39 -7 -54 -26z"/>
<path d="M9541 5414 c-12 -15 -21 -34 -21 -44 0 -10 9 -29 21 -44 39 -50 122
-22 122 42 0 69 -80 99 -122 46z"/>
<path d="M3920 5410 c-45 -45 -11 -120 53 -120 42 0 67 26 67 68 0 41 -31 72
-70 72 -17 0 -39 -9 -50 -20z"/>
<path d="M6749 5412 c-28 -23 -30 -73 -4 -102 25 -27 78 -27 105 2 26 28 26
58 -1 92 -25 31 -66 35 -100 8z"/>
<path d="M695 5395 c-14 -13 -25 -36 -25 -50 0 -28 40 -75 64 -75 29 0 64 22
75 48 16 33 -1 75 -35 91 -37 16 -52 14 -79 -14z"/>
<path d="M1506 5399 c-19 -15 -26 -30 -26 -54 0 -36 36 -75 70 -75 34 0 70 39
70 75 0 36 -36 75 -70 75 -10 0 -29 -9 -44 -21z"/>
<path d="M9145 5395 c-14 -13 -25 -36 -25 -50 0 -28 40 -75 64 -75 78 0 109
107 40 139 -37 16 -52 14 -79 -14z"/>
<path d="M9956 5399 c-19 -15 -26 -30 -26 -54 0 -36 36 -75 70 -75 34 0 70 39
70 75 0 36 -36 75 -70 75 -10 0 -29 -9 -44 -21z"/>
<path d="M3550 5403 c-76 -27 -58 -143 21 -143 55 0 92 87 52 122 -22 19 -53
28 -73 21z"/>
<path d="M4350 5397 c-14 -7 -31 -25 -38 -40 -22 -45 15 -97 69 -97 28 0 69
44 69 73 0 51 -55 86 -100 64z"/>
<path d="M6363 5398 c-12 -6 -27 -24 -34 -40 -34 -83 86 -136 130 -57 19 33 1
81 -35 98 -29 13 -32 13 -61 -1z"/>
<path d="M7170 5397 c-76 -38 -28 -154 55 -133 29 7 56 56 48 87 -11 41 -65
65 -103 46z"/>
<path d="M1922 5315 c-59 -25 -51 -107 11 -130 62 -21 118 52 80 103 -26 34
-53 42 -91 27z"/>
<path d="M10373 5315 c-49 -21 -58 -71 -18 -110 45 -46 118 -19 118 43 0 58
-47 89 -100 67z"/>
<path d="M4730 5290 c-43 -43 -11 -120 50 -120 38 0 70 32 70 70 0 38 -32 70
-70 70 -17 0 -39 -9 -50 -20z"/>
<path d="M7555 5290 c-42 -47 -8 -120 55 -120 31 0 70 39 70 70 0 10 -9 29
-21 44 -26 33 -77 36 -104 6z"/>
<path d="M3117 5288 c-65 -50 -12 -153 64 -126 52 18 66 79 26 116 -26 24 -65
28 -90 10z"/>
<path d="M315 5265 c-40 -39 -29 -97 22 -116 58 -22 116 36 94 94 -19 51 -77
62 -116 22z"/>
<path d="M8765 5265 c-40 -39 -29 -97 22 -116 36 -13 78 5 93 40 31 75 -58
134 -115 76z"/>
<path d="M5983 5268 c-68 -33 -39 -138 38 -138 28 0 69 44 69 73 0 51 -61 88
-107 65z"/>
<path d="M2263 5224 c-20 -20 -24 -31 -19 -57 9 -43 29 -61 71 -61 42 0 62 18
71 61 5 26 1 37 -19 57 -15 15 -38 26 -52 26 -14 0 -37 -11 -52 -26z"/>
<path d="M10756 5229 c-19 -15 -26 -30 -26 -54 0 -36 36 -75 70 -75 34 0 70
39 70 75 0 36 -36 75 -70 75 -10 0 -29 -9 -44 -21z"/>
<path d="M5133 5228 c-52 -25 -52 -105 1 -129 83 -38 147 84 66 126 -33 17
-37 17 -67 3z"/>
<path d="M7927 5218 c-37 -33 -40 -75 -7 -108 27 -27 66 -25 95 5 29 28 32 65
8 93 -28 33 -66 37 -96 10z"/>
<path d="M2677 5212 c-23 -25 -21 -78 3 -102 43 -43 120 -11 120 50 0 17 -9
39 -20 50 -26 26 -81 26 -103 2z"/>
<path d="M8331 5194 c-12 -15 -21 -34 -21 -44 0 -34 39 -70 75 -70 36 0 75 36
75 70 0 34 -39 70 -75 70 -24 0 -39 -7 -54 -26z"/>
<path d="M5540 5190 c-26 -26 -26 -81 -2 -103 44 -40 122 -7 122 51 0 60 -78
94 -120 52z"/>
<path d="M9615 4905 c-29 -28 -31 -51 -9 -83 43 -62 134 -32 134 44 0 24 -47
64 -75 64 -14 0 -37 -11 -50 -25z"/>
<path d="M1295 4865 c-40 -39 -29 -97 22 -116 62 -23 119 40 89 99 -25 49 -72
56 -111 17z"/>
<path d="M10030 4877 c-80 -40 -24 -162 59 -127 53 22 59 89 9 124 -27 19 -35
20 -68 3z"/>
<path d="M6807 4860 c-148 -18 -149 -19 -142 -48 4 -15 8 -28 9 -30 2 -1 63 5
137 14 95 11 176 14 279 10 249 -9 412 -42 754 -153 220 -70 361 -107 376 -98
6 3 10 17 10 30 0 19 -7 26 -27 31 -95 21 -169 42 -333 95 -210 68 -374 111
-510 134 -110 19 -450 28 -553 15z"/>
<path d="M1660 4840 c-11 -11 -20 -33 -20 -50 0 -17 9 -39 20 -50 11 -11 33
-20 50 -20 17 0 39 9 50 20 11 11 20 33 20 50 0 17 -9 39 -20 50 -11 11 -33
20 -50 20 -17 0 -39 -9 -50 -20z"/>
<path d="M3985 4850 c-165 -16 -508 -95 -538 -124 -7 -6 -21 -11 -32 -12 -16
-1 -230 -63 -243 -70 -2 -1 0 -13 4 -28 4 -16 13 -26 25 -26 10 0 87 23 171
50 386 127 545 155 866 148 l222 -5 0 27 c0 25 -4 28 -47 34 -85 11 -336 15
-428 6z"/>
<path d="M2068 4810 c-24 -25 -29 -36 -24 -58 15 -60 79 -80 121 -37 39 38 32
86 -16 110 -39 21 -46 19 -81 -15z"/>
<path d="M4680 4820 c-11 -11 -20 -33 -20 -50 0 -17 9 -39 20 -50 11 -11 33
-20 50 -20 17 0 39 9 50 20 11 11 20 33 20 50 0 17 -9 39 -20 50 -11 11 -33
20 -50 20 -17 0 -39 -9 -50 -20z"/>
<path d="M9239 4782 c-49 -40 -17 -122 48 -122 65 0 93 61 52 114 -25 31 -66
35 -100 8z"/>
<path d="M10419 4782 c-49 -40 -17 -122 48 -122 65 0 93 61 52 114 -25 31 -66
35 -100 8z"/>
<path d="M6326 4749 c-19 -15 -26 -30 -26 -54 0 -36 36 -75 70 -75 34 0 70 39
70 75 0 36 -36 75 -70 75 -10 0 -29 -9 -44 -21z"/>
<path d="M5081 4724 c-24 -30 -26 -46 -10 -77 16 -30 28 -37 66 -37 41 0 77
42 68 80 -14 60 -88 80 -124 34z"/>
<path d="M2470 4720 c-11 -11 -20 -33 -20 -50 0 -17 9 -39 20 -50 11 -11 33
-20 50 -20 17 0 39 9 50 20 11 11 20 33 20 50 0 17 -9 39 -20 50 -11 11 -33
20 -50 20 -17 0 -39 -9 -50 -20z"/>
<path d="M8807 4712 c-40 -44 -7 -122 51 -122 60 0 94 78 52 120 -26 26 -81
26 -103 2z"/>
<path d="M8393 4665 c-70 -49 0 -160 76 -120 48 24 55 72 16 110 -27 28 -61
32 -92 10z"/>
<path d="M2853 4660 c-26 -11 -43 -40 -43 -74 0 -27 41 -66 70 -66 10 0 29 9
44 21 36 28 36 80 0 108 -29 23 -38 24 -71 11z"/>
<path d="M5467 4652 c-40 -44 -7 -122 51 -122 60 0 94 78 52 120 -26 26 -81
26 -103 2z"/>
<path d="M5895 4625 c-14 -13 -25 -36 -25 -50 0 -30 41 -75 68 -75 35 0 72 38
72 75 0 24 -7 39 -26 54 -35 27 -59 26 -89 -4z"/>
<path d="M1586 4349 c-19 -15 -26 -30 -26 -54 0 -36 36 -75 70 -75 34 0 70 39
70 75 0 36 -36 75 -70 75 -10 0 -29 -9 -44 -21z"/>
<path d="M10036 4349 c-19 -15 -26 -30 -26 -54 0 -36 36 -75 70 -75 34 0 70
39 70 75 0 36 -36 75 -70 75 -10 0 -29 -9 -44 -21z"/>
<path d="M4430 4347 c-14 -7 -31 -25 -38 -40 -27 -56 35 -115 93 -89 55 25 58
100 5 127 -35 18 -29 18 -60 2z"/>
<path d="M7248 4344 c-73 -39 -24 -150 57 -130 29 7 56 56 48 87 -12 43 -65
65 -105 43z"/>
<path d="M1180 4320 c-26 -26 -26 -81 -2 -103 44 -40 122 -6 122 53 0 60 -78
92 -120 50z"/>
<path d="M1992 4323 c-32 -27 -37 -64 -12 -96 28 -35 80 -37 110 -5 58 63 -32
156 -98 101z"/>
<path d="M9630 4320 c-26 -26 -26 -81 -2 -103 44 -40 122 -7 122 51 0 60 -78
94 -120 52z"/>
<path d="M10435 4315 c-30 -30 -31 -54 -4 -89 15 -19 30 -26 54 -26 36 0 75
36 75 70 0 10 -9 29 -21 44 -27 34 -71 35 -104 1z"/>
<path d="M4017 4319 c-48 -28 -40 -107 13 -129 23 -9 34 -9 58 4 49 25 56 72
17 111 -25 26 -58 31 -88 14z"/>
<path d="M4815 4305 c-28 -27 -32 -61 -10 -92 49 -70 160 0 120 76 -24 48 -72
55 -110 16z"/>
<path d="M6836 4309 c-50 -39 -22 -122 42 -122 66 0 98 78 50 123 -28 26 -58
26 -92 -1z"/>
<path d="M7642 4310 c-48 -45 -16 -123 50 -123 64 0 92 83 42 122 -34 27 -64
27 -92 1z"/>
<path d="M2396 4229 c-19 -15 -26 -30 -26 -54 0 -36 36 -75 70 -75 34 0 70 39
70 75 0 36 -36 75 -70 75 -10 0 -29 -9 -44 -21z"/>
<path d="M10846 4229 c-36 -29 -36 -80 1 -109 47 -37 113 -4 113 56 0 35 -37
74 -70 74 -10 0 -29 -9 -44 -21z"/>
<path d="M5233 4228 c-68 -33 -39 -138 38 -138 28 0 69 44 69 73 0 51 -61 88
-107 65z"/>
<path d="M8045 4215 c-14 -13 -25 -36 -25 -50 0 -28 40 -75 64 -75 76 0 106
91 44 134 -32 22 -55 20 -83 -9z"/>
<path d="M800 4190 c-11 -11 -20 -33 -20 -50 0 -17 9 -39 20 -50 43 -43 120
-11 120 50 0 38 -32 70 -70 70 -17 0 -39 -9 -50 -20z"/>
<path d="M9250 4190 c-43 -43 -11 -120 50 -120 38 0 70 32 70 70 0 38 -32 70
-70 70 -17 0 -39 -9 -50 -20z"/>
<path d="M3629 4182 c-49 -40 -17 -122 48 -122 67 0 96 68 48 115 -29 30 -64
32 -96 7z"/>
<path d="M6451 4174 c-26 -34 -27 -68 -1 -94 47 -47 124 -15 122 52 -2 65 -81
92 -121 42z"/>
<path d="M2750 4150 c-45 -45 -11 -120 53 -120 42 0 67 26 67 68 0 41 -31 72
-70 72 -17 0 -39 -9 -50 -20z"/>
<path d="M3181 4147 c-51 -25 -47 -107 5 -127 77 -30 138 57 79 115 -27 28
-48 31 -84 12z"/>
<path d="M5602 4137 c-43 -46 -15 -120 46 -120 43 0 72 28 72 70 0 66 -74 97
-118 50z"/>
<path d="M8405 4135 c-30 -29 -32 -68 -5 -95 47 -47 123 -15 123 51 0 63 -72
90 -118 44z"/>
<path d="M393 4140 c-48 -19 -58 -87 -17 -119 53 -41 114 -13 114 52 0 51 -50
86 -97 67z"/>
<path d="M8843 4140 c-48 -19 -58 -87 -17 -119 34 -27 64 -27 92 -1 57 53 -3
149 -75 120z"/>
<path d="M6021 4104 c-12 -15 -21 -34 -21 -44 0 -31 39 -70 70 -70 62 0 97 66
60 113 -29 37 -80 37 -109 1z"/>
<path d="M4465 3900 c-42 -47 -8 -120 55 -120 33 0 70 40 70 76 0 57 -86 87
-125 44z"/>
<path d="M10175 3903 c-186 -22 -336 -62 -564 -150 -206 -79 -341 -117 -453
-128 -68 -7 -68 -7 -68 -37 l0 -31 82 8 c120 10 239 43 459 128 306 118 460
151 704 151 165 0 269 -14 397 -54 34 -11 64 -18 66 -16 1 2 4 16 5 32 2 27
-1 29 -76 51 -151 43 -403 65 -552 46z"/>
<path d="M4912 3893 c-7 -3 -19 -18 -28 -35 -13 -24 -13 -35 -4 -58 31 -74
140 -51 140 30 0 45 -63 81 -108 63z"/>
<path d="M1366 3869 c-19 -15 -26 -30 -26 -54 0 -36 36 -75 70 -75 34 0 70 39
70 75 0 36 -36 75 -70 75 -10 0 -29 -9 -44 -21z"/>
<path d="M4070 3877 c-52 -26 -49 -104 5 -129 58 -26 119 33 95 91 -6 16 -23
33 -36 40 -31 14 -33 14 -64 -2z"/>
<path d="M7450 3850 c-43 -43 -11 -120 50 -120 38 0 70 32 70 70 0 38 -32 70
-70 70 -17 0 -39 -9 -50 -20z"/>
<path d="M1790 3822 l0 -30 193 -4 192 -5 162 -47 c90 -26 196 -64 238 -85
138 -71 301 -95 540 -80 77 5 146 11 153 14 6 2 12 15 12 28 l0 24 -237 -1
c-270 -1 -308 5 -448 74 -44 22 -152 61 -240 86 l-160 47 -202 5 -203 4 0 -30z"/>
<path d="M7080 3843 c-55 -20 -68 -87 -24 -122 15 -12 34 -21 44 -21 31 0 70
39 70 70 0 47 -50 87 -90 73z"/>
<path d="M7868 3830 c-35 -27 -42 -53 -24 -88 25 -49 73 -56 111 -17 29 28 32
65 8 93 -27 32 -64 37 -95 12z"/>
<path d="M11043 3790 c-48 -19 -58 -87 -17 -119 35 -27 65 -27 92 2 54 57 -3
145 -75 117z"/>
<path d="M986 3739 c-50 -39 -22 -122 42 -122 43 0 72 28 72 70 0 65 -61 93
-114 52z"/>
<path d="M5302 3731 l-10 -30 86 -31 c397 -144 777 -179 1109 -100 75 18 156
43 225 69 25 10 27 13 16 36 -6 14 -15 25 -19 25 -4 0 -49 -14 -98 -30 -156
-52 -262 -71 -441 -77 -194 -6 -322 9 -525 62 -110 29 -256 75 -316 100 -12 4
-19 -2 -27 -24z"/>
<path d="M8256 3728 c-36 -51 -5 -118 54 -118 59 0 90 67 54 118 -11 16 -25
22 -54 22 -29 0 -43 -6 -54 -22z"/>
<path d="M3637 3712 c-40 -45 -6 -122 53 -122 17 0 39 9 50 20 45 45 11 120
-53 120 -20 0 -41 -8 -50 -18z"/>
<path d="M146 3699 c-50 -39 -22 -122 42 -122 66 0 98 78 50 123 -28 26 -58
26 -92 -1z"/>
<path d="M550 3668 c-27 -29 -25 -69 3 -96 46 -43 120 -15 120 46 0 66 -78 98
-123 50z"/>
<path d="M8625 3655 c-34 -33 -33 -77 1 -104 15 -12 34 -21 44 -21 34 0 70 39
70 75 0 24 -7 39 -26 54 -35 27 -59 26 -89 -4z"/>
<path d="M1569 3386 c-13 -6 -30 -23 -38 -37 -12 -22 -12 -29 0 -54 40 -84
165 -32 129 54 -15 37 -57 54 -91 37z"/>
<path d="M10019 3388 c-16 -5 -32 -22 -39 -39 -35 -84 84 -137 129 -58 31 55
-28 118 -90 97z"/>
<path d="M4370 3360 c-63 -63 31 -158 101 -102 28 23 30 73 4 102 -24 26 -79
26 -105 0z"/>
<path d="M7197 3362 c-25 -28 -22 -87 5 -106 73 -51 160 42 98 104 -26 26 -81
26 -103 2z"/>
<path d="M1145 3345 c-39 -39 -32 -86 17 -111 59 -30 122 27 99 89 -19 51 -77
62 -116 22z"/>
<path d="M1955 3345 c-63 -63 18 -160 88 -105 35 28 37 80 5 110 -29 27 -64
25 -93 -5z"/>
<path d="M9595 3345 c-58 -57 1 -146 76 -115 35 15 53 57 40 93 -19 51 -77 62
-116 22z"/>
<path d="M10406 3349 c-46 -36 -26 -110 34 -124 38 -9 80 27 80 68 0 38 -7 50
-37 66 -31 16 -47 14 -77 -10z"/>
<path d="M3975 3335 c-34 -33 -33 -77 1 -104 15 -12 34 -21 44 -21 10 0 29 9
44 21 36 28 36 80 0 108 -35 27 -59 26 -89 -4z"/>
<path d="M4786 3339 c-36 -28 -36 -80 0 -108 15 -12 35 -21 46 -21 27 0 68 45
68 75 0 30 -41 75 -68 75 -11 0 -31 -9 -46 -21z"/>
<path d="M6813 3348 c-35 -17 -48 -60 -29 -96 35 -68 136 -41 136 36 0 47 -63
82 -107 60z"/>
<path d="M7620 3347 c-52 -26 -49 -104 5 -129 58 -26 119 33 95 91 -6 16 -23
33 -36 40 -31 14 -33 14 -64 -2z"/>
<path d="M2373 3268 c-81 -39 -20 -167 62 -130 55 25 58 100 5 127 -33 17 -37
17 -67 3z"/>
<path d="M10818 3265 c-78 -43 -14 -164 68 -126 54 24 53 105 -2 130 -31 14
-33 14 -66 -4z"/>
<path d="M5180 3240 c-42 -42 -8 -120 53 -120 58 0 91 85 49 123 -25 23 -78
21 -102 -3z"/>
<path d="M8007 3242 c-40 -44 -7 -122 51 -122 60 0 94 78 52 120 -26 26 -81
26 -103 2z"/>
<path d="M773 3225 c-66 -46 -8 -150 68 -123 26 9 49 44 49 74 0 23 -46 64
-72 64 -13 0 -33 -7 -45 -15z"/>
<path d="M9215 3215 c-28 -27 -30 -42 -14 -79 32 -69 139 -38 139 40 0 24 -47
64 -75 64 -14 0 -37 -11 -50 -25z"/>
<path d="M3595 3205 c-14 -13 -25 -36 -25 -50 0 -30 41 -75 67 -75 25 0 63 28
72 54 12 30 -6 71 -35 85 -37 16 -52 14 -79 -14z"/>
<path d="M6435 3218 c-28 -16 -35 -28 -35 -65 0 -35 37 -73 72 -73 27 0 68 45
68 75 0 30 -41 75 -67 75 -10 0 -27 -6 -38 -12z"/>
<path d="M2825 3175 c-46 -46 -19 -118 44 -118 66 0 98 76 51 123 -27 27 -66
25 -95 -5z"/>
<path d="M3220 3183 c-53 -19 -68 -86 -28 -123 63 -59 157 32 101 98 -20 23
-50 33 -73 25z"/>
<path d="M5584 3178 c-69 -33 -37 -138 42 -138 24 0 64 47 64 75 0 30 -41 75
-67 74 -10 0 -28 -5 -39 -11z"/>
<path d="M8376 3169 c-19 -15 -26 -30 -26 -54 0 -37 37 -75 72 -75 29 0 68 45
68 79 0 32 -38 71 -70 71 -10 0 -29 -9 -44 -21z"/>
<path d="M335 3150 c-26 -29 -24 -79 4 -102 70 -56 164 39 101 102 -26 26 -81
26 -105 0z"/>
<path d="M8785 3150 c-42 -47 -8 -120 55 -120 33 0 70 40 70 74 0 57 -86 89
-125 46z"/>
<path d="M5990 3140 c-43 -43 -11 -120 50 -120 38 0 70 32 70 70 0 38 -32 70
-70 70 -17 0 -39 -9 -50 -20z"/>
<path d="M1795 2890 c-199 -17 -345 -55 -611 -159 -206 -80 -317 -111 -426
-118 l-78 -6 0 -33 0 -33 58 5 c145 13 268 49 567 164 234 90 438 126 673 117
143 -5 241 -20 349 -54 29 -9 55 -15 57 -12 2 2 7 16 11 30 6 26 4 27 -77 49
-173 47 -357 64 -523 50z"/>
<path d="M7160 2827 c-13 -7 -29 -25 -34 -39 -29 -83 94 -137 128 -56 17 39
11 63 -22 88 -29 23 -38 24 -72 7z"/>
<path d="M10300 2810 c-46 -46 -18 -120 47 -120 66 0 97 74 50 118 -29 27 -71
28 -97 2z"/>
<path d="M4321 2794 c-27 -35 -27 -65 2 -92 48 -46 120 -16 120 50 0 64 -83
92 -122 42z"/>
<path d="M7861 2794 c-12 -15 -21 -34 -21 -44 0 -34 39 -70 75 -70 36 0 75 36
75 70 0 34 -39 70 -75 70 -24 0 -39 -7 -54 -26z"/>
<path d="M4680 2778 l0 -33 147 3 c81 2 175 -2 212 -8 106 -18 362 -95 411
-124 126 -73 329 -105 556 -87 77 6 146 11 152 11 7 0 12 13 12 28 l0 28 -242
0 c-227 -1 -248 1 -318 22 -41 13 -98 36 -126 52 -54 30 -316 111 -418 129
-33 6 -133 11 -223 11 l-163 0 0 -32z"/>
<path d="M6742 2787 c-43 -46 -16 -117 46 -119 43 -1 72 26 72 69 0 66 -74 97
-118 50z"/>
<path d="M7550 2790 c-26 -26 -26 -81 0 -105 27 -25 80 -22 102 6 56 68 -40
161 -102 99z"/>
<path d="M9890 2773 c-55 -70 42 -151 105 -88 48 47 19 115 -49 115 -26 0 -40
-7 -56 -27z"/>
<path d="M10700 2778 c-27 -29 -25 -64 5 -93 63 -63 160 18 105 88 -28 35 -80
37 -110 5z"/>
<path d="M8166 2714 c-4 -15 -6 -28 -4 -29 9 -9 229 -80 323 -105 322 -85 611
-91 890 -20 61 16 136 39 168 51 50 19 57 25 51 43 -11 35 -17 36 -89 10 -39
-14 -115 -36 -170 -49 -322 -77 -631 -50 -1044 90 -58 19 -108 35 -112 35 -4
0 -10 -12 -13 -26z"/>
<path d="M2777 2719 c-48 -28 -40 -107 12 -129 75 -31 134 58 76 115 -25 26
-58 31 -88 14z"/>
<path d="M3941 2664 c-12 -15 -21 -34 -21 -44 0 -34 39 -70 75 -70 36 0 75 36
75 70 0 34 -39 70 -75 70 -24 0 -39 -7 -54 -26z"/>
<path d="M6362 2657 c-45 -48 -14 -117 51 -117 43 0 67 26 67 73 0 63 -74 91
-118 44z"/>
<path d="M3129 2632 c-48 -40 -17 -122 47 -122 66 0 98 74 51 118 -28 27 -67
28 -98 4z"/>
<path d="M250 2627 c-70 -35 -48 -137 30 -137 28 0 70 44 70 73 0 51 -55 86
-100 64z"/>
<path d="M3566 2609 c-36 -28 -36 -80 0 -108 15 -12 34 -21 44 -21 34 0 70 39
70 75 0 36 -36 75 -70 75 -10 0 -29 -9 -44 -21z"/>
<path d="M1822 2327 c-28 -29 -28 -57 -1 -91 39 -50 122 -22 122 42 0 67 -76
97 -121 49z"/>
<path d="M10270 2328 c-27 -29 -25 -69 3 -96 46 -43 120 -15 120 46 0 66 -78
98 -123 50z"/>
<path d="M4650 2320 c-11 -11 -20 -33 -20 -50 0 -17 9 -39 20 -50 11 -11 33
-20 50 -20 17 0 39 9 50 20 11 11 20 33 20 50 0 17 -9 39 -20 50 -11 11 -33
20 -50 20 -17 0 -39 -9 -50 -20z"/>
<path d="M7475 2315 c-30 -30 -31 -54 -4 -89 15 -19 30 -26 54 -26 36 0 75 36
75 70 0 10 -9 29 -21 44 -27 34 -71 35 -104 1z"/>
<path d="M1425 2305 c-14 -13 -25 -36 -25 -50 0 -29 40 -75 65 -75 20 0 57 19
67 34 18 26 8 75 -18 95 -35 27 -59 26 -89 -4z"/>
<path d="M9875 2305 c-14 -13 -25 -36 -25 -50 0 -30 41 -75 68 -75 35 0 72 38
72 75 0 24 -7 39 -26 54 -35 27 -59 26 -89 -4z"/>
<path d="M10686 2309 c-19 -15 -26 -30 -26 -54 0 -36 36 -75 70 -75 10 0 29 9
44 21 34 27 35 71 1 104 -30 30 -54 31 -89 4z"/>
<path d="M4280 2313 c-51 -19 -68 -85 -30 -123 61 -61 159 32 103 98 -20 23
-50 33 -73 25z"/>
<path d="M5080 2307 c-13 -7 -31 -24 -39 -38 -30 -53 36 -117 94 -91 55 25 58
100 5 127 -35 18 -29 18 -60 2z"/>
<path d="M7099 2308 c-16 -5 -32 -22 -39 -39 -35 -84 84 -137 129 -58 31 55
-28 118 -90 97z"/>
<path d="M7903 2310 c-48 -19 -58 -87 -17 -119 53 -41 114 -13 114 52 0 51
-50 86 -97 67z"/>
<path d="M2277 2299 c-28 -16 -40 -58 -26 -90 21 -53 104 -55 128 -3 16 37 14
52 -14 79 -25 26 -58 31 -88 14z"/>
<path d="M2672 2214 c-28 -20 -31 -83 -4 -107 25 -23 78 -21 102 3 61 61 -27
154 -98 104z"/>
<path d="M5460 2200 c-43 -43 -11 -120 50 -120 38 0 70 32 70 70 0 38 -32 70
-70 70 -17 0 -39 -9 -50 -20z"/>
<path d="M8281 2194 c-12 -15 -21 -34 -21 -44 0 -34 39 -70 75 -70 36 0 75 36
75 70 0 34 -39 70 -75 70 -24 0 -39 -7 -54 -26z"/>
<path d="M1045 2175 c-40 -39 -29 -97 22 -116 62 -23 119 40 89 99 -25 49 -72
56 -111 17z"/>
<path d="M9495 2175 c-58 -57 1 -146 76 -115 53 22 55 105 3 129 -37 16 -52
14 -79 -14z"/>
<path d="M3900 2183 c-56 -21 -68 -87 -24 -122 15 -12 34 -21 44 -21 34 0 70
39 70 75 0 49 -46 84 -90 68z"/>
<path d="M6713 2178 c-68 -33 -40 -138 37 -138 28 0 70 44 70 73 0 51 -61 88
-107 65z"/>
<path d="M205 2135 c-14 -13 -25 -36 -25 -50 0 -28 40 -75 64 -75 78 0 109
107 40 139 -37 16 -52 14 -79 -14z"/>
<path d="M3070 2130 c-11 -11 -20 -33 -20 -50 0 -17 9 -39 20 -50 11 -11 33
-20 50 -20 17 0 39 9 50 20 11 11 20 33 20 50 0 17 -9 39 -20 50 -11 11 -33
20 -50 20 -17 0 -39 -9 -50 -20z"/>
<path d="M5858 2134 c-51 -27 -46 -101 7 -126 58 -26 119 33 95 91 -6 16 -23
33 -36 40 -31 14 -33 14 -66 -5z"/>
<path d="M8649 2121 c-25 -25 -30 -37 -25 -59 15 -60 79 -80 121 -37 43 42 23
106 -37 121 -22 5 -34 0 -59 -25z"/>
<path d="M611 2104 c-12 -15 -21 -34 -21 -44 0 -34 39 -70 75 -70 36 0 75 36
75 70 0 34 -39 70 -75 70 -24 0 -39 -7 -54 -26z"/>
<path d="M9061 2104 c-12 -15 -21 -34 -21 -44 0 -34 39 -70 75 -70 36 0 75 36
75 70 0 34 -39 70 -75 70 -24 0 -39 -7 -54 -26z"/>
<path d="M3485 2095 c-28 -27 -30 -42 -14 -79 32 -69 139 -38 139 40 0 24 -47
64 -75 64 -14 0 -37 -11 -50 -25z"/>
<path d="M6269 2102 c-15 -13 -22 -30 -22 -51 0 -66 76 -98 123 -51 27 27 25
66 -5 95 -29 30 -64 32 -96 7z"/>
<path d="M10185 1843 c-68 -9 -244 -47 -305 -65 -36 -11 -145 -51 -242 -89
-203 -78 -309 -108 -423 -117 l-80 -7 -3 -33 -3 -34 68 7 c152 15 254 45 565
164 238 91 439 127 668 118 142 -6 227 -19 343 -53 60 -18 73 -15 79 21 3 17
-9 23 -77 43 -132 38 -248 52 -410 50 -82 0 -163 -3 -180 -5z"/>
<path d="M4543 1798 c-12 -6 -27 -24 -34 -40 -34 -83 86 -136 130 -57 19 33 1
81 -35 98 -29 13 -32 13 -61 -1z"/>
<path d="M7651 1784 c-27 -35 -26 -59 4 -89 33 -34 77 -33 104 1 12 15 21 34
21 44 0 34 -39 70 -75 70 -24 0 -39 -7 -54 -26z"/>
<path d="M1888 1793 c-56 -4 -58 -5 -58 -33 l0 -28 198 -4 197 -4 150 -43 c83
-24 191 -62 240 -86 152 -73 195 -80 463 -79 128 1 234 3 236 5 2 2 6 16 10
31 l6 27 -227 -2 c-264 -2 -330 8 -455 72 -68 35 -242 92 -388 127 -59 14
-277 24 -372 17z"/>
<path d="M7255 1765 c-14 -13 -25 -34 -25 -45 0 -77 101 -106 136 -39 39 77
-51 145 -111 84z"/>
<path d="M8065 1765 c-14 -13 -25 -36 -25 -50 0 -30 41 -75 68 -75 35 0 72 38
72 75 0 24 -7 39 -26 54 -35 27 -59 26 -89 -4z"/>
<path d="M1502 1757 c-38 -40 -25 -97 27 -115 35 -12 70 3 87 37 36 70 -60
135 -114 78z"/>
<path d="M4125 1755 c-40 -39 -28 -93 26 -113 74 -28 130 78 66 123 -31 22
-65 18 -92 -10z"/>
<path d="M4932 1757 c-45 -48 -17 -117 47 -117 46 0 71 24 71 68 0 65 -74 96
-118 49z"/>
<path d="M1087 1682 c-40 -45 -6 -122 53 -122 17 0 39 9 50 20 45 45 11 120
-53 120 -20 0 -41 -8 -50 -18z"/>
<path d="M5346 1678 c-3 -13 -6 -26 -6 -30 0 -17 308 -104 470 -132 300 -52
609 -45 860 18 95 25 219 66 225 76 3 5 0 19 -5 32 l-11 23 -113 -37 c-178
-60 -317 -80 -546 -82 -262 -1 -476 32 -734 114 -68 22 -126 40 -129 40 -2 0
-7 -10 -11 -22z"/>
<path d="M8489 1689 c-15 -6 -33 -23 -39 -40 -35 -84 84 -137 129 -58 19 33 1
81 -35 98 -14 6 -26 11 -27 10 -1 0 -14 -5 -28 -10z"/>
<path d="M247 1642 c-25 -28 -22 -87 5 -106 73 -51 160 42 98 104 -26 26 -81
26 -103 2z"/>
<path d="M3731 1624 c-27 -34 -27 -64 -1 -92 45 -48 123 -16 123 50 0 64 -83
92 -122 42z"/>
<path d="M666 1619 c-36 -28 -36 -80 0 -108 15 -12 34 -21 44 -21 34 0 70 39
70 75 0 36 -36 75 -70 75 -10 0 -29 -9 -44 -21z"/>
<path d="M8842 1613 c-7 -3 -19 -18 -28 -35 -13 -24 -13 -35 -4 -58 31 -74
140 -51 140 30 0 45 -63 81 -108 63z"/>
<path d="M2032 1287 c-45 -48 -14 -117 51 -117 42 0 67 26 67 68 0 65 -74 96
-118 49z"/>
<path d="M10480 1290 c-45 -45 -11 -120 53 -120 42 0 67 26 67 68 0 41 -31 72
-70 72 -17 0 -39 -9 -50 -20z"/>
<path d="M4860 1280 c-26 -26 -26 -81 0 -105 29 -26 79 -24 102 4 27 34 23 75
-8 100 -34 26 -68 27 -94 1z"/>
<path d="M7685 1275 c-39 -38 -32 -86 16 -110 76 -40 146 71 76 120 -31 22
-65 18 -92 -10z"/>
<path d="M1653 1280 c-46 -19 -57 -83 -20 -118 47 -44 117 -13 117 52 0 50
-50 84 -97 66z"/>
<path d="M2470 1283 c-51 -19 -68 -85 -30 -123 61 -61 159 33 103 98 -20 23
-50 33 -73 25z"/>
<path d="M10110 1283 c-76 -27 -58 -143 21 -143 55 0 92 87 52 122 -22 19 -53
28 -73 21z"/>
<path d="M10910 1277 c-14 -7 -31 -25 -38 -40 -22 -45 15 -97 69 -97 28 0 69
44 69 73 0 51 -55 86 -100 64z"/>
<path d="M4455 1250 c-26 -29 -24 -79 4 -102 70 -56 164 39 101 102 -26 26
-81 26 -105 0z"/>
<path d="M5261 1244 c-12 -15 -21 -34 -21 -44 0 -32 39 -70 71 -70 34 0 79 39
79 68 0 35 -38 72 -75 72 -24 0 -39 -7 -54 -26z"/>
<path d="M7280 1250 c-26 -26 -25 -60 1 -94 25 -31 66 -35 100 -8 28 23 30 73
4 102 -24 26 -79 26 -105 0z"/>
<path d="M8090 1250 c-43 -43 -11 -120 50 -120 59 0 90 67 54 118 -20 29 -76
30 -104 2z"/>
<path d="M2840 1170 c-11 -11 -20 -33 -20 -50 0 -17 9 -39 20 -50 45 -45 120
-11 120 53 0 20 -8 41 -18 50 -25 23 -78 21 -102 -3z"/>
<path d="M5670 1160 c-26 -26 -26 -81 -2 -103 44 -40 122 -7 122 51 0 60 -78
94 -120 52z"/>
<path d="M8491 1154 c-24 -30 -26 -46 -10 -77 16 -30 28 -37 66 -37 41 0 77
42 68 80 -14 60 -88 80 -124 34z"/>
<path d="M1272 1150 c-49 -20 -54 -95 -7 -126 73 -48 147 61 79 115 -29 23
-38 24 -72 11z"/>
<path d="M9723 1150 c-26 -11 -43 -40 -43 -74 0 -27 41 -66 70 -66 34 0 70 39
70 75 0 24 -7 39 -26 54 -29 23 -38 24 -71 11z"/>
<path d="M4077 1122 c-23 -25 -21 -78 3 -102 61 -61 154 27 104 98 -20 28 -83
31 -107 4z"/>
<path d="M6900 1118 c-27 -29 -25 -64 5 -93 63 -63 160 18 105 88 -28 35 -80
37 -110 5z"/>
<path d="M433 1110 c-48 -20 -58 -87 -17 -119 34 -27 64 -27 92 -1 32 30 30
82 -4 109 -29 23 -38 24 -71 11z"/>
<path d="M3220 1107 c-13 -7 -29 -25 -34 -39 -29 -83 94 -137 128 -56 17 39
11 63 -22 88 -29 23 -38 24 -72 7z"/>
<path d="M6050 1080 c-26 -26 -25 -60 1 -94 25 -31 66 -35 100 -8 28 23 30 73
4 102 -24 26 -79 26 -105 0z"/>
<path d="M8851 1074 c-12 -15 -21 -35 -21 -46 0 -27 45 -68 75 -68 30 0 75 41
75 68 0 35 -38 72 -75 72 -24 0 -39 -7 -54 -26z"/>
<path d="M825 1065 c-30 -29 -32 -68 -5 -95 47 -47 123 -15 123 51 0 63 -72
90 -118 44z"/>
<path d="M9275 1065 c-30 -29 -32 -68 -5 -95 47 -47 124 -15 122 52 -2 63 -71
89 -117 43z"/>
<path d="M3665 1055 c-43 -42 -23 -106 35 -120 38 -9 80 27 80 68 0 38 -7 50
-37 66 -33 17 -51 14 -78 -14z"/>
<path d="M6487 1069 c-48 -28 -40 -107 12 -129 75 -31 134 58 76 115 -25 26
-58 31 -88 14z"/>
<path d="M1960 800 c-11 -11 -20 -33 -20 -50 0 -17 9 -39 20 -50 43 -43 120
-11 120 50 0 38 -32 70 -70 70 -17 0 -39 -9 -50 -20z"/>
<path d="M5193 808 c-68 -33 -40 -138 37 -138 28 0 70 44 70 73 0 51 -61 88
-107 65z"/>
<path d="M1567 780 c-72 -57 8 -167 81 -113 51 38 34 114 -28 128 -18 4 -34 0
-53 -15z"/>
<path d="M2383 788 c-68 -33 -40 -138 37 -138 28 0 70 44 70 73 0 51 -61 88
-107 65z"/>
<path d="M4775 765 c-30 -30 -31 -54 -4 -89 15 -19 30 -26 54 -26 37 0 75 37
75 72 0 27 -45 68 -75 68 -14 0 -37 -11 -50 -25z"/>
<path d="M5582 767 c-45 -48 -14 -117 51 -117 42 0 67 26 67 68 0 65 -74 96
-118 49z"/>
<path d="M4455 700 c-252 -96 -655 -149 -1050 -137 -110 4 -231 11 -269 17
-73 11 -85 6 -86 -31 0 -21 18 -25 165 -40 154 -15 598 -6 755 16 150 20 299
50 407 82 89 25 213 77 213 88 0 12 -21 45 -28 44 -4 0 -52 -18 -107 -39z"/>
<path d="M7448 725 c-133 -18 -308 -63 -533 -135 -104 -34 -190 -62 -191 -63
-1 -1 0 -14 3 -29 6 -34 -3 -35 225 38 354 114 481 137 748 138 107 1 221 -2
253 -7 l58 -7 -3 32 c-3 32 -4 33 -63 39 -103 11 -396 8 -497 -6z"/>
<path d="M9902 703 c-32 -27 -37 -64 -12 -96 28 -35 80 -37 110 -5 58 63 -32
156 -98 101z"/>
<path d="M2766 678 c-36 -51 -5 -118 54 -118 59 0 90 67 54 118 -11 16 -25 22
-54 22 -29 0 -43 -6 -54 -22z"/>
<path d="M5997 689 c-48 -28 -40 -107 12 -129 75 -31 134 58 76 115 -25 26
-58 31 -88 14z"/>
<path d="M8293 678 c-68 -33 -40 -138 37 -138 28 0 70 44 70 73 0 51 -61 88
-107 65z"/>
<path d="M1186 649 c-36 -28 -36 -80 0 -108 15 -12 34 -21 44 -21 34 0 70 39
70 75 0 36 -36 75 -70 75 -10 0 -29 -9 -44 -21z"/>
<path d="M9481 634 c-27 -34 -27 -64 -1 -92 45 -48 123 -16 123 50 0 64 -83
92 -122 42z"/>
<path d="M8643 595 c-70 -49 0 -160 76 -120 48 24 55 72 16 110 -27 28 -61 32
-92 10z"/>
<path d="M752 577 c-45 -48 -14 -117 51 -117 42 0 67 26 67 68 0 65 -74 96
-118 49z"/>
<path d="M9079 588 c-16 -5 -32 -22 -39 -39 -35 -84 84 -137 129 -58 31 55
-28 118 -90 97z"/>
<path d="M6351 554 c-12 -15 -21 -34 -21 -44 0 -34 39 -70 75 -70 36 0 75 36
75 70 0 34 -39 70 -75 70 -24 0 -39 -7 -54 -26z"/>
<path d="M1995 280 c-41 -45 -9 -120 52 -120 31 0 73 42 73 75 0 57 -86 89
-125 45z"/>
<path d="M10440 273 c-55 -70 42 -151 105 -88 48 47 19 115 -49 115 -26 0 -40
-7 -56 -27z"/>
<path d="M4821 264 c-12 -15 -21 -34 -21 -44 0 -10 9 -29 21 -44 41 -52 122
-23 122 44 0 67 -81 96 -122 44z"/>
<path d="M7650 270 c-43 -43 -11 -120 50 -120 38 0 70 32 70 70 0 38 -32 70
-70 70 -17 0 -39 -9 -50 -20z"/>
<path d="M1607 269 c-48 -28 -40 -107 12 -129 75 -31 134 58 76 115 -25 26
-58 31 -88 14z"/>
<path d="M2405 255 c-28 -27 -32 -61 -10 -92 49 -70 160 0 120 76 -24 48 -72
55 -110 16z"/>
<path d="M10045 255 c-14 -13 -25 -31 -25 -39 0 -30 23 -65 50 -76 58 -24 120
44 90 99 -24 46 -78 53 -115 16z"/>
<path d="M10855 255 c-28 -27 -32 -61 -10 -92 47 -66 150 -8 123 70 -18 51
-74 62 -113 22z"/>
<path d="M4440 257 c-55 -28 -48 -110 13 -131 77 -27 124 80 55 128 -27 19
-35 20 -68 3z"/>
<path d="M5236 249 c-19 -15 -26 -30 -26 -54 0 -36 36 -75 70 -75 34 0 70 39
70 75 0 36 -36 75 -70 75 -10 0 -29 -9 -44 -21z"/>
<path d="M7257 250 c-19 -15 -27 -30 -27 -53 0 -38 7 -50 37 -66 33 -17 51
-14 78 14 63 63 -18 160 -88 105z"/>
<path d="M8073 258 c-68 -33 -40 -138 37 -138 28 0 70 44 70 73 0 51 -61 88
-107 65z"/>
</g>
</svg>
