<?xml version="1.0" standalone="no"?>
<!DOCTYPE svg PUBLIC "-//W3C//DTD SVG 20010904//EN"
 "http://www.w3.org/TR/2001/REC-SVG-20010904/DTD/svg10.dtd">
<svg version="1.0" xmlns="http://www.w3.org/2000/svg"
 width="1125.000000pt" height="900.000000pt" viewBox="0 0 1125.000000 900.000000"
 preserveAspectRatio="xMidYMid meet">
<metadata>
Created by potrace 1.13, written by Peter Selinger 2001-2015
</metadata>
<g transform="translate(0.000000,900.000000) scale(0.100000,-0.100000)"
fill="#000000" stroke="none">
<path d="M0 4500 l0 -4500 5625 0 5625 0 0 4500 0 4500 -5625 0 -5625 0 0
-4500z m1172 4333 c-66 -71 -166 -173 -221 -228 l-100 -99 -152 12 c-242 20
-240 -8 -13 228 226 234 173 209 448 212 l158 2 -120 -127z m598 121 c0 -3
-87 -95 -192 -205 -106 -110 -193 -205 -193 -212 0 -16 -66 -24 -275 -32
l-175 -7 65 68 c36 38 137 142 225 232 l160 162 192 0 c106 0 193 -3 193 -6z
m490 -2 c0 -4 -79 -86 -175 -182 -124 -123 -174 -180 -171 -192 4 -16 -7 -18
-115 -18 -65 0 -163 -5 -218 -11 -56 -6 -105 -9 -110 -7 -6 1 82 96 196 211
l205 207 194 0 c107 0 194 -3 194 -8z m402 -89 c-50 -54 -151 -158 -226 -232
-74 -74 -132 -139 -129 -145 4 -5 -1 -7 -11 -3 -38 15 -147 41 -237 56 l-96
16 196 203 196 202 199 0 198 0 -90 -97z m566 87 c-1 -5 -128 -138 -282 -295
-233 -239 -276 -288 -266 -300 17 -21 15 -20 -107 28 -59 24 -132 52 -162 62
l-53 17 103 107 c57 58 167 170 244 249 l140 142 193 0 c122 0 192 -4 190 -10z
m463 1 c25 -6 7 -27 -311 -352 l-338 -345 -99 17 c-119 20 -225 49 -221 60 2
5 139 148 306 319 l304 310 166 -1 c92 -1 179 -4 193 -8z m4258 -10 c-10 -15
-29 -19 -107 -24 -91 -5 -263 6 -284 19 -27 17 33 24 210 24 185 0 192 -1 181
-19z m1036 10 c-7 -12 -58 -28 -117 -36 -46 -6 -338 12 -347 21 -3 3 1 9 9 14
20 13 463 13 455 1z m-8205 -19 c0 -4 -79 -86 -175 -182 -96 -96 -175 -181
-175 -189 0 -11 -12 -13 -62 -7 -35 3 -119 11 -188 17 -69 6 -127 13 -130 16
-2 2 61 69 140 148 120 120 141 146 131 159 -14 16 7 19 254 34 201 13 205 13
205 4z m3285 -11 l110 -7 -210 -214 c-451 -462 -420 -427 -406 -444 12 -14 -7
-16 -195 -16 -115 0 -214 4 -221 8 -8 5 99 122 320 350 l332 343 80 -7 c44 -4
130 -10 190 -13z m463 -17 c56 -4 102 -10 102 -14 0 -4 -119 -130 -265 -279
-146 -149 -265 -274 -265 -278 0 -3 7 -14 15 -23 15 -16 12 -18 -32 -23 -75
-10 -342 -35 -410 -40 l-62 -3 31 35 c18 20 160 168 317 329 157 161 285 298
283 304 -2 7 25 9 90 4 51 -3 139 -9 196 -12z m-4258 3 c0 -1 -52 -54 -115
-117 l-115 -115 0 112 0 112 58 4 c85 5 172 7 172 4z m4635 -49 c66 -11 128
-23 137 -27 13 -5 -29 -53 -184 -214 -165 -171 -198 -210 -188 -222 10 -12 7
-15 -12 -20 -42 -9 -381 -63 -448 -71 l-65 -7 278 286 c164 168 276 291 272
297 -8 13 24 10 210 -22z m6305 -118 l0 -150 -27 6 c-44 11 -125 54 -156 83
-34 31 -57 72 -57 100 0 52 104 110 198 111 l42 0 0 -150z m-6009 49 c116 -38
195 -85 220 -131 27 -49 -50 -114 -187 -158 -94 -30 -479 -113 -497 -107 -6 2
78 93 186 204 108 110 194 203 190 207 -12 12 24 6 88 -15z m719 -1257 c0 -4
-38 -45 -85 -92 -55 -54 -85 -92 -85 -106 0 -17 -5 -21 -18 -17 -13 3 -34 -12
-70 -52 -29 -31 -52 -61 -52 -66 0 -6 -26 -7 -62 -4 -227 19 -314 27 -318 31
-2 3 54 63 125 134 102 102 127 132 117 142 -21 21 -14 27 36 31 94 7 412 7
412 -1z m490 1 c0 -4 -70 -77 -156 -164 -89 -89 -153 -162 -150 -168 5 -8 -56
-11 -210 -11 l-218 0 37 38 c20 21 37 45 37 55 0 10 5 14 13 11 9 -3 55 38
116 102 77 80 100 111 96 125 -6 18 3 19 214 19 122 0 221 -3 221 -7z m352
-140 c-77 -82 -152 -159 -166 -172 -26 -24 -30 -25 -227 -27 l-200 -3 129 137
c72 75 142 148 156 161 20 19 23 27 15 38 -10 11 26 13 211 13 l222 0 -140
-147z m572 141 l46 -7 -145 -148 c-80 -81 -144 -154 -143 -161 4 -17 -133 -29
-302 -26 l-135 3 157 161 c122 124 155 163 146 172 -9 9 26 12 159 12 93 0
191 -3 217 -6z m3723 -7 l72 -12 -219 -226 c-121 -125 -216 -230 -212 -234 10
-10 -142 3 -263 23 -55 9 -99 21 -98 25 1 5 82 93 182 196 135 142 177 191
168 200 -6 6 -7 11 -1 12 5 0 63 6 129 13 153 17 156 17 242 3z m-5769 -148
l-133 -141 -46 6 c-74 10 -162 35 -189 55 -52 38 -34 73 61 115 80 37 336 100
422 105 12 1 -30 -51 -115 -140z m2284 121 c58 -17 92 -51 84 -83 -8 -32 -70
-70 -141 -88 -27 -7 -79 -25 -115 -41 -64 -29 -191 -68 -220 -68 -8 0 47 62
123 138 75 75 137 143 137 151 0 15 63 11 132 -9z m3638 -194 c0 -189 -1 -205
-20 -229 -13 -16 -16 -28 -10 -32 5 -3 10 -9 10 -13 0 -7 -54 -6 -299 6 l-133
7 215 221 c163 167 213 224 205 232 -9 9 -7 12 10 12 22 0 22 0 22 -204z
m-10903 180 c4 -3 -250 -266 -258 -266 -5 0 -9 63 -9 140 l0 140 133 -6 c72
-4 133 -7 134 -8z m10285 -23 c-17 -21 -96 -103 -176 -183 -80 -80 -146 -150
-146 -157 0 -8 -17 -6 -57 8 -304 103 -193 250 260 344 156 33 155 33 119 -12z
m-9869 11 c26 -4 46 -10 45 -15 -2 -4 -107 -115 -235 -247 l-232 -239 22 -22
22 -23 -34 14 c-19 8 -39 23 -45 33 -17 30 -27 35 -82 35 -28 0 -72 3 -98 6
l-46 7 0 48 0 48 160 164 c136 140 158 166 145 177 -36 30 -15 33 158 27 94
-4 194 -10 220 -13z m365 -30 c78 -4 142 -10 142 -13 0 -4 -30 -36 -66 -71
-36 -36 -142 -145 -236 -243 -135 -141 -168 -180 -159 -191 9 -11 4 -15 -26
-20 -89 -14 -365 2 -386 23 -4 4 103 120 238 258 135 138 245 257 245 263 0 9
15 11 53 6 28 -3 116 -9 195 -12z m409 -45 c112 -28 144 -57 124 -112 -29 -77
-238 -220 -417 -286 -106 -39 -384 -100 -384 -84 0 3 106 113 236 245 164 166
234 244 230 255 -5 13 3 14 66 8 40 -4 105 -16 145 -26z m993 -737 l125 -18
-230 -235 c-496 -506 -589 -599 -606 -599 -27 0 -169 30 -222 46 -84 28 -81
52 14 107 61 35 160 141 238 257 206 304 310 406 451 444 70 19 80 19 230 -2z
m1568 -27 c2 -2 -197 -210 -442 -461 -429 -438 -446 -457 -430 -475 16 -18 16
-19 -9 -19 -31 0 -388 30 -402 34 -5 1 183 199 419 440 361 368 426 439 416
452 -7 8 -11 16 -8 19 18 18 439 28 456 10z m-1125 -13 l138 -7 -395 -405
c-218 -223 -395 -409 -396 -414 0 -5 7 -18 16 -27 16 -18 14 -18 -52 -12 -201
18 -355 39 -354 48 0 6 181 195 401 422 l401 411 51 -5 c29 -2 114 -8 190 -11z
m1320 -23 c101 -25 187 -58 187 -71 0 -5 -183 -196 -406 -424 -348 -355 -405
-416 -399 -435 7 -22 6 -22 -76 -16 -46 4 -142 9 -212 13 -70 4 -126 10 -125
14 2 4 206 215 453 469 248 254 449 466 447 471 -2 11 4 10 131 -21z m-954
-249 c-539 -553 -587 -604 -577 -617 8 -10 2 -13 -23 -13 -45 0 -372 29 -376
34 -2 1 176 187 396 412 353 362 397 411 385 425 -8 8 -14 19 -14 22 0 4 106
7 236 7 l236 0 -263 -270z m1331 87 c25 -17 63 -45 85 -62 l40 -33 -322 -328
c-177 -181 -321 -334 -319 -340 6 -17 -75 -24 -268 -24 l-168 0 253 260 c140
143 323 332 408 420 153 160 154 161 135 182 -16 17 -7 15 46 -12 36 -18 85
-46 110 -63z m2384 35 l40 -7 -174 -178 c-166 -170 -175 -178 -204 -171 -164
35 -266 140 -223 229 40 84 193 131 432 133 50 1 108 -2 129 -6z m324 -28 c84
-9 151 -20 150 -25 -2 -4 -67 -75 -145 -157 -78 -82 -140 -152 -137 -155 3 -2
-89 -4 -204 -3 l-209 1 108 115 c231 245 232 247 259 244 14 -2 94 -11 178
-20z m412 -54 c80 -12 151 -23 158 -26 8 -2 -43 -63 -132 -157 l-146 -152
-177 19 c-98 10 -180 21 -183 23 -2 2 62 70 143 151 81 81 147 152 147 158 0
6 10 10 23 8 12 -2 87 -13 167 -24z m421 -66 c90 -14 165 -27 168 -30 3 -2
-55 -65 -128 -139 -73 -73 -130 -138 -126 -144 3 -6 -2 -11 -12 -11 -27 0
-357 42 -363 47 -3 3 290 303 296 303 1 0 76 -11 165 -26z m-3290 -149 c44
-89 48 -151 15 -218 -16 -34 -41 -64 -64 -80 -49 -35 -194 -97 -313 -135 -93
-30 -317 -78 -325 -70 -2 3 132 145 299 316 l302 312 28 -33 c15 -17 41 -59
58 -92z m4429 117 c0 -5 -79 -91 -176 -191 -148 -152 -174 -184 -164 -196 16
-19 25 -19 -194 5 -99 11 -186 20 -193 20 -8 0 44 62 116 137 123 128 130 138
115 154 -16 17 -11 18 103 12 111 -5 125 -4 199 20 124 41 194 55 194 39z
m-571 -48 l44 -6 -136 -136 c-76 -76 -137 -143 -137 -151 0 -9 -9 -12 -32 -8
-18 3 -91 13 -163 22 -71 9 -141 18 -154 21 -21 4 -9 20 120 152 l144 147 135
-18 c74 -9 155 -20 179 -23z m756 14 c75 -25 138 -61 170 -100 57 -68 16 -115
-142 -164 -59 -18 -154 -49 -211 -69 -94 -33 -110 -35 -198 -33 l-95 3 180
187 c100 102 181 191 181 197 0 13 26 8 115 -21z m-891 -1661 c-54 -56 -196
-200 -313 -319 -182 -185 -212 -220 -201 -233 18 -22 -7 -20 -70 5 -28 11 -61
20 -74 20 -29 0 -132 35 -163 56 -24 15 -23 16 201 247 169 174 222 235 214
244 -15 18 -11 19 227 52 239 34 268 38 274 33 3 -1 -40 -49 -95 -105z m301
98 c44 -9 117 -21 162 -28 l82 -12 -329 -335 c-181 -184 -327 -340 -325 -347
3 -8 -12 -10 -53 -6 -70 6 -305 43 -312 49 -7 8 670 694 685 694 5 0 46 -7 90
-15z m704 -61 c2 -2 -129 -138 -290 -304 -162 -165 -296 -305 -298 -311 -1 -6
5 -16 15 -24 11 -7 16 -17 12 -20 -4 -4 -116 -10 -250 -12 l-243 -5 105 108
c58 60 206 211 329 336 122 125 220 232 216 237 -5 9 393 4 404 -5z m308 -15
c71 -6 132 -15 137 -19 4 -5 -97 -116 -225 -247 -129 -131 -253 -259 -277
-285 l-42 -48 -188 -20 c-103 -11 -204 -22 -226 -24 l-39 -4 39 41 c22 22 162
166 311 320 150 154 270 284 267 288 -7 12 90 11 243 -2z m-1986 -213 c-155
-156 -212 -219 -207 -231 8 -23 -44 15 -79 56 -70 84 -85 174 -39 229 46 54
111 78 348 130 219 48 221 61 -23 -184z m2419 148 c63 -14 117 -28 119 -30 5
-4 -151 -173 -258 -279 -74 -73 -79 -80 -65 -96 14 -16 12 -18 -38 -28 -89
-18 -462 -81 -481 -81 -12 0 74 95 240 266 142 146 257 271 255 277 -4 14 86
2 228 -29z m263 -82 c68 -31 127 -83 127 -112 0 -26 -46 -78 -89 -99 -20 -10
-72 -30 -117 -44 -84 -27 -324 -80 -331 -74 -3 4 336 357 343 357 3 0 32 -13
67 -28z m-7025 -189 c21 -5 7 -23 -155 -187 -98 -99 -283 -288 -411 -418
l-232 -238 -72 26 c-40 15 -104 42 -141 61 l-68 34 269 277 c149 152 296 302
326 332 60 58 65 70 39 91 -14 12 -8 15 48 20 91 8 370 10 397 2z m-599 -141
c-68 -70 -218 -223 -333 -340 l-209 -212 -100 66 c-201 134 -327 292 -327 409
0 74 14 89 79 83 30 -3 77 -18 112 -36 l59 -31 72 30 c87 36 170 61 177 54 3
-3 -73 -84 -169 -180 l-175 -175 23 -22 24 -23 193 200 c138 143 190 203 183
212 -11 13 12 21 152 48 96 20 353 54 359 48 3 -2 -51 -61 -120 -131z m906
111 c66 -9 126 -19 134 -23 10 -6 -94 -119 -380 -410 -243 -249 -394 -410
-393 -422 1 -16 -9 -18 -102 -18 -92 0 -252 22 -280 38 -7 4 148 171 392 421
342 351 402 416 391 429 -14 17 15 15 238 -15z m436 -59 c76 -10 139 -21 139
-25 0 -4 -164 -175 -364 -381 -219 -224 -361 -377 -356 -383 5 -7 -66 -10
-210 -10 l-218 0 116 120 c663 685 685 707 720 701 19 -3 96 -13 173 -22z
m578 -70 c5 -4 -26 -37 -450 -472 l-286 -294 -179 17 c-99 9 -180 18 -182 20
-1 1 163 172 365 380 202 207 369 380 371 384 2 7 352 -28 361 -35z m304 -28
c76 -8 140 -15 142 -17 2 -2 -163 -175 -366 -383 -314 -323 -367 -381 -357
-394 11 -13 10 -14 -12 -9 -14 3 -92 15 -175 27 -82 12 -160 23 -173 26 -20 4
25 54 345 381 202 206 367 380 365 385 -1 5 19 6 45 3 27 -3 110 -12 186 -19z
m397 -36 c85 -6 166 -13 179 -16 l24 -5 -32 -33 c-17 -17 -31 -42 -31 -55 0
-19 -3 -21 -13 -12 -11 8 -87 -64 -360 -345 -191 -196 -345 -360 -341 -365 3
-5 2 -9 -3 -9 -26 -1 -353 66 -351 72 2 3 169 175 372 382 324 331 367 378
355 392 -12 15 -10 16 16 11 17 -4 100 -11 185 -17z m493 -36 c81 -4 150 -11
153 -16 3 -5 -110 -126 -250 -269 -165 -168 -256 -268 -256 -281 0 -13 -5 -18
-14 -15 -10 4 -71 -52 -173 -156 l-158 -162 -158 40 c-86 22 -156 43 -155 46
2 4 150 158 331 342 180 185 327 342 327 350 0 8 6 14 13 13 19 -2 110 101
101 115 -5 9 5 10 42 6 27 -4 116 -10 197 -13z m522 -39 c33 -9 64 -20 68 -24
5 -5 -107 -126 -247 -269 -141 -144 -256 -267 -256 -274 0 -7 -22 -27 -48 -45
-26 -18 -98 -79 -160 -136 -126 -116 -191 -154 -280 -163 -59 -6 -185 9 -212
26 -12 7 15 39 123 148 75 76 137 146 137 156 0 9 4 15 9 12 13 -9 566 561
564 581 -1 14 13 15 120 10 67 -3 149 -13 182 -22z m275 -152 c137 -150 24
-263 -307 -308 -65 -9 -151 -25 -192 -36 -40 -11 -75 -18 -76 -17 -2 2 95 104
215 228 120 124 215 229 212 234 -16 28 108 -57 148 -101z m-5627 -550 c37 -3
66 -10 65 -14 -2 -4 -110 -118 -240 -252 l-237 -244 -203 -9 c-112 -6 -205 -9
-207 -7 -2 1 100 110 227 241 176 181 228 242 220 250 -7 7 -10 13 -7 13 2 1
45 7 94 14 108 14 196 17 288 8z m257 -33 c113 -19 181 -33 218 -46 9 -2 -57
-77 -167 -191 -100 -103 -181 -192 -181 -199 0 -8 -39 -14 -127 -18 -71 -4
-171 -9 -223 -12 l-95 -6 45 48 c24 27 123 129 219 226 173 175 175 177 156
198 -18 20 -18 20 6 20 13 0 80 -9 149 -20z m-725 -32 c-21 -24 -133 -139
-249 -256 l-210 -213 -111 -10 c-60 -5 -129 -9 -152 -9 l-43 0 0 55 0 56 180
186 c139 145 177 190 168 200 -8 11 7 13 83 14 52 1 141 5 199 9 58 3 120 7
139 8 l33 2 -37 -42z m-610 -128 l-150 -150 -3 132 c-1 73 0 138 2 144 5 14
56 19 211 22 l90 2 -150 -150z m11015 -67 l0 -196 -50 -53 c-27 -29 -50 -58
-50 -63 0 -6 -12 -11 -26 -11 -45 0 -219 -39 -265 -59 -49 -22 -164 -44 -200
-39 -19 2 21 47 259 292 269 275 281 290 266 308 -16 17 -15 18 24 18 l42 0 0
-197z m-397 -109 c-159 -163 -287 -302 -285 -310 3 -12 -11 -14 -80 -9 -117 8
-268 26 -290 34 -15 5 25 52 235 266 140 143 252 266 250 273 -3 7 6 12 24 13
15 0 93 6 173 13 80 8 171 14 203 15 l59 1 -289 -296z m-8873 225 c202 -93
155 -206 -116 -275 -87 -21 -287 -54 -336 -54 -17 0 22 44 156 180 98 98 175
183 172 189 -9 14 43 -2 124 -40z m8442 -166 c-105 -109 -215 -222 -246 -252
-44 -43 -53 -58 -44 -68 9 -12 6 -13 -18 -7 -106 25 -294 96 -294 112 0 6 56
65 260 276 l105 110 160 11 c88 7 184 13 214 14 l53 1 -190 -197z m-360 130
c-17 -21 -93 -100 -170 -177 l-140 -139 -34 24 c-257 178 -251 257 24 300 63
10 229 25 311 28 l39 1 -30 -37z m-1943 -990 c-18 -21 -172 -181 -343 -356
l-311 -317 -105 15 c-58 8 -138 15 -177 15 -40 0 -73 4 -73 8 0 4 135 147 300
316 165 169 300 311 300 316 0 5 -6 12 -12 17 -18 11 87 19 286 21 l168 2 -33
-37z m241 22 c132 -16 220 -33 220 -44 0 -16 -734 -761 -750 -761 -18 0 -277
83 -285 92 -3 3 147 162 334 354 257 264 337 352 329 361 -13 17 3 16 152 -2z
m-1019 -324 c-171 -175 -311 -323 -311 -328 0 -6 -61 -12 -152 -15 -170 -4
-261 0 -256 12 2 5 128 137 281 293 152 157 277 290 277 295 0 6 18 13 40 17
80 13 336 43 384 44 l48 1 -311 -319z m1438 208 c75 -34 139 -65 144 -69 10
-9 -678 -715 -695 -713 -53 6 -308 68 -308 74 0 4 162 173 359 376 268 275
357 371 349 381 -20 23 13 13 151 -49z m-5670 35 c5 -5 -61 -76 -357 -378
l-243 -249 -142 17 c-78 9 -159 20 -180 22 l-37 6 270 276 c154 158 268 282
266 289 -3 7 -4 14 -3 14 18 11 414 14 426 3z m3926 -56 c-39 -40 -161 -165
-271 -278 -111 -113 -203 -211 -206 -219 -5 -19 -86 5 -193 57 -143 70 -215
143 -215 220 0 79 121 145 340 187 33 6 25 -3 -112 -142 -82 -81 -148 -153
-148 -159 0 -6 8 -19 19 -28 18 -16 25 -10 185 156 91 95 166 177 166 184 0 7
90 26 243 52 133 22 246 41 252 41 5 1 -22 -32 -60 -71z m-3825 38 c145 -37
294 -77 297 -79 1 -2 -124 -133 -278 -291 -196 -201 -279 -292 -275 -303 5
-12 1 -14 -16 -10 -13 3 -95 18 -183 33 -88 14 -162 28 -165 31 -2 2 68 77
155 166 455 461 421 424 400 447 -22 24 -13 25 65 6z m-775 -188 c-105 -106
-229 -233 -277 -283 l-86 -90 -181 11 c-100 6 -184 14 -187 16 -3 3 88 101
202 217 168 172 204 214 195 225 -15 18 -15 18 144 45 214 38 289 49 335 50
l45 1 -190 -192z m-543 -55 c-83 -87 -173 -180 -201 -208 -28 -27 -51 -55 -51
-62 0 -16 4 -17 -76 8 -133 41 -214 99 -214 154 0 56 121 130 285 175 80 21
368 87 394 89 7 0 -54 -70 -137 -156z m1873 132 c83 -9 156 -19 164 -21 15 -5
-38 -62 -388 -416 l-194 -197 -111 15 c-153 20 -227 35 -224 44 2 5 126 135
277 289 197 202 271 286 267 297 -5 13 0 15 26 12 18 -3 101 -13 183 -23z
m5390 -51 c72 -20 133 -40 138 -44 4 -4 -128 -145 -293 -315 l-300 -308 22
-25 23 -24 -45 6 c-192 24 -357 49 -369 56 -19 10 656 703 679 697 8 -3 74
-22 145 -43z m-4827 10 l82 -6 -279 -286 c-260 -267 -278 -288 -264 -304 15
-17 9 -18 -123 -18 -167 0 -306 10 -302 21 2 5 134 143 293 306 l290 298 110
-3 c61 -1 147 -5 193 -8z m382 -30 c63 -8 121 -17 129 -19 8 -3 -76 -96 -223
-245 -140 -143 -233 -246 -230 -254 3 -9 -7 -15 -33 -19 -77 -12 -280 -36
-363 -42 l-85 -6 50 53 c28 29 156 160 284 291 161 164 231 243 227 253 -7 17
27 16 244 -12z m356 -90 c58 -27 114 -84 114 -115 0 -49 -42 -94 -125 -137
-82 -41 -526 -172 -585 -172 -8 0 55 71 140 158 275 279 285 291 272 304 -7 7
-12 15 -12 19 0 11 135 -28 196 -57z m4441 32 c59 -9 134 -20 166 -24 l58 -7
-280 -286 c-254 -259 -278 -287 -264 -302 14 -14 10 -16 -42 -22 -64 -8 -382
-1 -392 8 -3 4 133 148 303 322 170 174 311 321 313 326 2 6 9 8 16 5 7 -2 62
-12 122 -20z m429 -319 l-295 -304 -202 -6 c-112 -4 -204 -6 -205 -4 -1 1 125
133 280 292 156 160 281 295 279 301 -3 8 16 10 64 7 37 -2 124 0 193 5 69 5
138 10 154 11 25 1 -9 -37 -268 -302z m604 288 c58 -8 113 -18 123 -21 13 -4
-39 -63 -238 -267 -141 -143 -254 -266 -251 -273 3 -9 -44 -14 -187 -19 -106
-4 -205 -5 -221 -4 -27 4 -12 21 253 292 154 159 281 293 281 298 0 14 121 11
240 -6z m280 -55 c116 -32 230 -74 230 -85 0 -5 -84 -94 -187 -197 -157 -157
-185 -189 -174 -202 10 -12 6 -15 -31 -20 -60 -7 -418 -15 -418 -9 0 3 110
118 245 256 147 149 244 256 241 264 -7 18 6 17 94 -7z m406 -175 c21 -21 24
-34 24 -94 0 -66 -2 -71 -30 -91 -47 -34 -179 -78 -314 -105 -68 -14 -131 -25
-141 -25 -10 0 55 74 162 186 98 102 177 190 175 195 -3 14 97 -39 124 -66z
m-9570 -1322 c12 -4 -5 -26 -67 -89 l-84 -84 -192 0 c-106 0 -193 3 -193 8 0
4 31 39 70 77 53 53 68 74 64 89 -6 19 -1 19 190 12 108 -4 204 -10 212 -13z
m-541 -78 c-43 -47 -87 -88 -99 -90 -11 -3 -104 -4 -206 -3 l-184 3 67 71 c36
39 64 74 61 77 -15 14 70 21 314 25 l124 2 -77 -85z m5043 71 c3 -4 -30 -42
-73 -86 l-80 -80 -192 0 c-106 0 -193 4 -193 8 0 4 27 34 60 67 33 33 60 67
60 77 0 11 10 18 33 21 44 7 377 0 385 -7z m-4288 -20 c58 -8 136 -18 173 -22
l69 -7 -58 -58 -58 -59 -193 0 c-106 0 -193 4 -193 8 0 4 27 34 60 67 39 39
56 63 50 69 -18 18 -10 28 18 22 15 -3 74 -12 132 -20z m4593 -17 c70 -12 127
-25 127 -29 0 -4 -22 -28 -50 -54 l-49 -46 -196 0 -197 0 56 62 c58 64 63 73
46 83 -42 26 41 21 263 -16z m-5783 23 c0 -5 -33 -41 -74 -80 l-74 -72 -198 0
-198 0 52 52 c28 29 50 58 49 63 -1 6 78 16 198 26 255 21 245 20 245 11z
m4910 -77 l-74 -75 -203 0 c-112 0 -203 4 -203 8 0 13 41 48 76 65 17 9 60 21
95 27 115 20 313 48 349 49 l34 1 -74 -75z m-2070 -10 l-64 -65 -193 0 c-106
0 -193 3 -193 7 0 4 12 19 27 35 21 22 24 30 14 42 -10 12 -3 15 51 21 121 13
254 22 338 24 l84 1 -64 -65z m400 35 c87 -29 92 -35 52 -71 l-32 -29 -197 0
-197 0 52 53 c29 29 52 59 52 66 0 22 189 9 270 -19z m-1565 -1 c110 -6 202
-13 205 -16 3 -3 -14 -22 -37 -44 l-42 -39 -198 0 -197 0 32 33 c37 38 38 44
15 70 -17 19 -17 19 2 14 11 -3 110 -11 220 -18z m8893 -46 l-3 -48 -160 -3
-159 -3 28 30 c15 16 25 34 22 40 -10 15 53 23 222 29 l53 2 -3 -47z m-8240
-10 l-42 -43 -193 0 c-106 0 -193 4 -193 8 0 5 9 17 21 28 11 10 18 25 16 34
-3 13 23 15 215 15 l218 1 -42 -43z m3809 8 c84 -20 156 -41 160 -44 3 -4 -82
-7 -190 -7 -109 0 -197 3 -197 7 0 5 72 85 75 83 0 -1 69 -18 152 -39z m4058
-11 l-39 -40 -193 0 c-177 0 -215 5 -183 25 6 4 8 11 5 16 -4 5 -3 9 2 10 7 1
369 24 423 28 23 1 22 -1 -15 -39z"/>
</g>
</svg>
