<?xml version="1.0" standalone="no"?>
<!DOCTYPE svg PUBLIC "-//W3C//DTD SVG 20010904//EN"
 "http://www.w3.org/TR/2001/REC-SVG-20010904/DTD/svg10.dtd">
<svg version="1.0" xmlns="http://www.w3.org/2000/svg"
 width="1125.000000pt" height="900.000000pt" viewBox="0 0 1125.000000 900.000000"
 preserveAspectRatio="xMidYMid meet">
<metadata>
Created by potrace 1.13, written by Peter Selinger 2001-2015
</metadata>
<g transform="translate(0.000000,900.000000) scale(0.100000,-0.100000)"
fill="#000000" stroke="none">
<path d="M0 4500 l0 -4500 5625 0 5625 0 0 4500 0 4500 -5625 0 -5625 0 0
-4500z m1410 4432 c102 -35 283 -70 426 -82 211 -19 423 7 649 80 l95 30 798
0 c685 0 805 -2 852 -15 130 -36 260 -68 264 -64 2 2 6 16 9 30 5 21 2 27 -21
36 -20 8 48 11 273 12 197 0 295 -3 285 -9 -8 -5 -34 -10 -57 -10 -41 0 -43
-1 -43 -30 0 -29 2 -30 43 -30 64 0 161 18 278 50 l106 30 814 -3 c586 -2 829
-7 869 -15 138 -30 672 -31 840 -1 44 8 340 13 936 16 l870 4 75 -24 c41 -14
101 -30 134 -38 67 -14 300 -17 417 -5 73 7 77 9 87 37 l10 29 151 0 c143 0
152 -1 157 -20 7 -25 15 -25 112 0 64 17 103 20 222 18 l144 -3 3 -148 3 -148
-28 8 c-40 10 -63 6 -84 -13 -25 -23 -25 -78 1 -104 21 -21 74 -27 85 -10 20
33 25 -10 25 -240 0 -227 -2 -250 -17 -259 -28 -14 -237 -59 -363 -77 -161
-23 -687 -30 -827 -12 -100 13 -102 13 -107 -7 -11 -39 -7 -42 92 -53 334 -39
811 -14 1110 58 46 11 90 20 98 20 12 0 14 -66 14 -454 0 -351 -3 -456 -12
-463 -12 -9 -343 -115 -400 -129 -21 -5 -28 -12 -28 -30 0 -14 7 -27 15 -31 9
-3 102 22 208 56 106 33 198 61 205 61 9 0 12 -59 12 -260 0 -223 -2 -264 -17
-295 -16 -33 -16 -37 0 -70 14 -30 17 -69 17 -235 0 -110 -1 -200 -2 -200 -2
0 -52 -7 -113 -16 -210 -30 -623 -30 -890 -1 -16 2 -20 -4 -20 -28 0 -27 4
-30 40 -37 174 -31 643 -28 883 5 51 8 95 11 97 8 3 -2 5 -90 5 -195 l0 -192
-30 -26 c-21 -18 -30 -35 -30 -57 0 -30 29 -71 50 -71 7 0 9 -66 8 -192 l-3
-193 -40 -7 c-197 -34 -322 -43 -610 -42 -176 0 -329 5 -370 12 -73 12 -85 8
-85 -29 0 -23 12 -26 156 -40 232 -22 660 -5 912 37 l42 7 -2 -459 -3 -459
-175 -57 c-96 -32 -190 -61 -208 -64 -24 -5 -32 -11 -28 -21 3 -8 6 -21 6 -29
0 -23 32 -17 210 41 93 30 176 55 185 55 13 0 15 -51 15 -425 l0 -424 -35 -7
c-37 -7 -38 -7 -29 -41 5 -17 14 -23 35 -23 l29 0 0 -509 c0 -397 -3 -512 -12
-518 -21 -12 -400 -133 -420 -133 -18 0 -24 -23 -12 -53 7 -18 12 -17 248 59
93 30 175 54 183 54 11 0 13 -152 11 -902 l-3 -903 -5580 0 -5580 0 -3 914
c-1 503 1 918 5 922 5 4 55 15 113 25 103 18 410 26 550 14 l55 -4 3 30 3 31
-68 6 c-179 17 -472 4 -631 -29 l-32 -6 0 505 c0 390 3 508 12 513 23 14 245
17 365 4 210 -21 355 -55 665 -156 172 -56 308 -93 341 -94 5 0 7 14 5 32 -3
30 -6 32 -63 44 -33 7 -145 40 -250 74 -405 131 -561 161 -855 167 l-215 4 -3
429 c-2 401 -1 430 15 439 10 5 63 17 118 27 81 16 149 19 363 19 l263 0 6 23
c3 13 4 25 1 27 -2 2 -68 10 -147 16 -163 13 -372 1 -524 -30 -63 -12 -90 -14
-93 -6 -3 6 -3 98 -2 205 3 193 3 195 25 198 26 4 63 46 63 72 0 26 -37 68
-63 72 -22 3 -22 5 -22 177 l0 174 131 42 c71 23 144 50 162 59 29 15 30 18
20 41 -6 14 -14 25 -17 25 -3 0 -42 -14 -86 -31 -124 -49 -205 -70 -211 -56
-2 7 -3 214 -2 462 l3 450 122 32 c140 37 273 89 273 107 0 7 -6 20 -13 29
-11 15 -19 14 -97 -18 -88 -35 -270 -86 -282 -79 -4 3 -6 244 -5 536 l2 532
30 8 c124 33 423 49 618 33 l87 -7 0 30 c0 30 -1 31 -67 39 -162 20 -508 2
-647 -33 l-26 -6 0 466 0 467 57 25 c32 14 59 27 61 29 4 4 -21 55 -27 55 -3
-1 -17 -7 -31 -15 -14 -8 -33 -14 -42 -15 -17 0 -18 27 -18 428 0 236 3 432 7
436 4 4 297 5 653 4 636 -4 646 -4 710 -26z m909 18 c-35 -20 -209 -40 -353
-40 -142 0 -332 21 -366 41 -9 5 143 8 360 8 240 0 369 -3 359 -9z"/>
<path d="M5841 8684 c-12 -15 -21 -34 -21 -44 0 -34 39 -70 75 -70 36 0 75 36
75 70 0 34 -39 70 -75 70 -24 0 -39 -7 -54 -26z"/>
<path d="M8670 8688 c-27 -29 -25 -69 3 -96 46 -43 120 -15 120 46 0 66 -78
98 -123 50z"/>
<path d="M221 8674 c-41 -53 -13 -114 52 -114 42 0 70 29 70 72 0 64 -83 92
-122 42z"/>
<path d="M3050 8680 c-26 -26 -26 -81 -2 -103 44 -40 122 -7 122 51 0 60 -78
94 -120 52z"/>
<path d="M5460 8677 c-34 -17 -48 -69 -26 -102 9 -13 28 -28 42 -31 81 -20
127 93 53 131 -34 18 -37 18 -69 2z"/>
<path d="M6255 8665 c-14 -13 -25 -36 -25 -50 0 -29 40 -75 65 -75 20 0 57 19
67 34 18 26 8 75 -18 95 -35 27 -59 26 -89 -4z"/>
<path d="M8274 8665 c-33 -33 -30 -80 8 -108 73 -54 153 56 82 112 -35 28 -59
26 -90 -4z"/>
<path d="M9086 8669 c-19 -15 -26 -30 -26 -54 0 -36 36 -75 70 -75 10 0 29 9
44 21 34 27 35 71 1 104 -30 30 -54 31 -89 4z"/>
<path d="M660 8673 c-51 -19 -68 -85 -30 -123 61 -61 159 32 103 98 -20 23
-50 33 -73 25z"/>
<path d="M2669 8666 c-71 -35 -46 -136 34 -136 29 0 67 39 67 69 0 54 -55 90
-101 67z"/>
<path d="M3479 8668 c-16 -5 -32 -22 -39 -39 -35 -84 84 -137 129 -58 31 55
-28 118 -90 97z"/>
<path d="M6651 8564 c-12 -15 -21 -35 -21 -46 0 -27 45 -68 75 -68 29 0 75 40
75 65 0 20 -19 57 -34 67 -26 18 -75 8 -95 -18z"/>
<path d="M9480 8570 c-62 -62 31 -158 99 -102 28 22 31 75 6 102 -24 26 -79
26 -105 0z"/>
<path d="M1032 8557 c-28 -30 -28 -68 1 -95 48 -45 120 -16 120 48 0 65 -76
95 -121 47z"/>
<path d="M3862 8564 c-16 -11 -22 -25 -22 -54 0 -29 6 -43 22 -54 51 -36 118
-5 118 54 0 59 -67 90 -118 54z"/>
<path d="M5084 8550 c-11 -4 -26 -22 -33 -38 -34 -82 87 -141 129 -62 16 31
12 59 -15 85 -25 26 -45 30 -81 15z"/>
<path d="M7895 8535 c-14 -13 -25 -36 -25 -50 0 -28 40 -75 64 -75 78 0 109
107 40 139 -37 16 -52 14 -79 -14z"/>
<path d="M2300 8543 c-53 -19 -68 -86 -28 -123 63 -58 157 33 101 98 -20 23
-50 33 -73 25z"/>
<path d="M10750 8543 c-53 -19 -67 -83 -27 -121 29 -28 57 -28 91 -1 57 45 4
146 -64 122z"/>
<path d="M7055 8495 c-14 -13 -25 -36 -25 -50 0 -29 40 -75 65 -75 20 0 57 19
67 34 18 26 8 75 -18 95 -35 27 -59 26 -89 -4z"/>
<path d="M9845 8495 c-14 -13 -25 -36 -25 -50 0 -28 40 -75 64 -75 29 0 64 22
75 48 16 33 -1 75 -35 91 -37 16 -52 14 -79 -14z"/>
<path d="M1440 8497 c-70 -35 -48 -137 30 -137 28 0 70 44 70 73 0 51 -55 86
-100 64z"/>
<path d="M4250 8503 c-53 -19 -68 -86 -28 -123 63 -59 157 32 101 98 -20 23
-50 33 -73 25z"/>
<path d="M10255 8480 c-25 -27 -22 -80 6 -102 68 -56 161 40 99 102 -26 26
-81 26 -105 0z"/>
<path d="M4639 8472 c-28 -23 -30 -73 -4 -102 24 -26 79 -26 105 0 63 63 -31
158 -101 102z"/>
<path d="M7461 8464 c-12 -15 -21 -34 -21 -44 0 -34 39 -70 75 -70 24 0 39 7
54 26 27 35 26 59 -4 89 -33 34 -77 33 -104 -1z"/>
<path d="M1842 8457 c-43 -46 -15 -120 46 -120 67 0 97 76 49 121 -30 28 -68
28 -95 -1z"/>
<path d="M8810 8195 c-144 -23 -283 -63 -468 -134 -252 -97 -369 -131 -460
-131 -64 0 -82 -9 -82 -41 0 -34 10 -35 125 -19 116 17 220 48 420 125 296
114 424 143 655 152 162 6 287 -9 428 -50 l83 -24 10 24 c5 14 7 28 4 33 -7
11 -156 50 -255 66 -105 17 -346 17 -460 -1z"/>
<path d="M5897 8166 c-48 -8 -90 -16 -93 -19 -3 -2 -2 -17 2 -32 6 -23 11 -26
33 -22 99 20 254 29 401 24 249 -8 403 -40 768 -158 205 -66 339 -101 355 -92
4 2 7 16 7 31 0 26 -4 28 -62 39 -35 7 -155 42 -268 78 -222 71 -384 115 -525
141 -122 22 -496 28 -618 10z"/>
<path d="M3140 8164 c-224 -26 -329 -51 -615 -141 -115 -36 -211 -67 -212 -67
-8 -4 12 -56 22 -56 7 0 98 27 201 61 222 71 382 112 514 130 109 14 358 18
473 6 l77 -8 0 29 c0 24 -5 31 -27 36 -35 7 -385 16 -433 10z"/>
<path d="M543 8123 c-7 -2 -13 -18 -13 -34 l0 -29 123 6 c74 4 156 2 208 -5
116 -15 367 -90 458 -136 131 -65 200 -79 416 -79 238 0 281 6 288 40 2 13 0
27 -4 30 -5 3 -73 0 -151 -6 -232 -18 -392 4 -526 75 -71 37 -332 117 -442
134 -65 11 -334 14 -357 4z"/>
<path d="M4020 8035 c-5 -14 -10 -28 -10 -29 0 -6 171 -64 278 -96 215 -62
306 -75 542 -75 185 1 230 4 317 23 103 22 281 77 296 91 4 4 3 19 -2 33 l-10
26 -98 -34 c-352 -119 -713 -110 -1138 31 -71 24 -138 46 -147 50 -13 5 -20 0
-28 -20z"/>
<path d="M6125 7645 c-30 -29 -32 -64 -5 -93 30 -32 82 -30 110 5 55 70 -42
151 -105 88z"/>
<path d="M8952 7650 c-26 -24 -29 -66 -6 -98 11 -16 25 -22 53 -22 46 0 71 24
71 68 0 64 -72 95 -118 52z"/>
<path d="M506 7639 c-46 -36 -26 -110 34 -124 39 -9 80 27 80 70 0 36 -36 75
-70 75 -10 0 -29 -9 -44 -21z"/>
<path d="M3337 7649 c-48 -28 -40 -107 12 -129 75 -31 134 58 76 115 -25 26
-58 31 -88 14z"/>
<path d="M5720 7620 c-62 -62 31 -158 99 -102 28 22 31 75 6 102 -24 26 -79
26 -105 0z"/>
<path d="M6527 7622 c-40 -45 -6 -122 53 -122 59 0 90 67 54 118 -20 28 -83
31 -107 4z"/>
<path d="M8547 7622 c-23 -25 -21 -78 3 -102 61 -61 154 27 104 98 -20 28 -83
31 -107 4z"/>
<path d="M9350 7613 c-55 -70 42 -151 105 -88 48 47 19 115 -49 115 -26 0 -40
-7 -56 -27z"/>
<path d="M100 7610 c-43 -43 -11 -120 50 -120 38 0 70 32 70 70 0 38 -32 70
-70 70 -17 0 -39 -9 -50 -20z"/>
<path d="M905 7610 c-41 -45 -10 -120 50 -120 38 0 75 35 75 71 0 58 -87 91
-125 49z"/>
<path d="M2921 7604 c-12 -15 -21 -34 -21 -44 0 -34 39 -70 75 -70 36 0 75 36
75 70 0 34 -39 70 -75 70 -24 0 -39 -7 -54 -26z"/>
<path d="M3730 7608 c-27 -29 -25 -69 3 -96 48 -45 120 -16 120 48 0 64 -79
95 -123 48z"/>
<path d="M6931 7524 c-27 -35 -27 -65 2 -92 48 -45 120 -16 120 48 0 67 -81
96 -122 44z"/>
<path d="M9760 7530 c-11 -11 -20 -33 -20 -50 0 -17 9 -39 20 -50 11 -11 33
-20 50 -20 17 0 39 9 50 20 11 11 20 33 20 50 0 17 -9 39 -20 50 -11 11 -33
20 -50 20 -17 0 -39 -9 -50 -20z"/>
<path d="M1312 7517 c-45 -48 -17 -117 47 -117 46 0 71 24 71 68 0 65 -74 96
-118 49z"/>
<path d="M4142 7523 c-52 -44 -24 -123 44 -123 68 0 97 68 49 115 -28 29 -65
32 -93 8z"/>
<path d="M5365 7508 c-50 -27 -59 -75 -20 -113 42 -43 106 -23 120 36 12 48
-57 101 -100 77z"/>
<path d="M8193 7510 c-46 -19 -57 -83 -20 -118 47 -44 117 -13 117 52 0 50
-50 84 -97 66z"/>
<path d="M2545 7480 c-42 -47 -8 -120 55 -120 33 0 70 40 70 74 0 57 -86 89
-125 46z"/>
<path d="M10995 7480 c-26 -29 -24 -79 4 -102 70 -56 164 39 101 102 -26 26
-81 26 -105 0z"/>
<path d="M7360 7473 c-53 -19 -68 -86 -28 -123 63 -59 157 32 101 98 -20 23
-50 33 -73 25z"/>
<path d="M10143 7470 c-46 -19 -57 -83 -20 -118 48 -45 117 -14 117 51 0 51
-50 86 -97 67z"/>
<path d="M1691 7434 c-12 -15 -21 -34 -21 -44 0 -34 39 -70 75 -70 36 0 75 36
75 70 0 34 -39 70 -75 70 -24 0 -39 -7 -54 -26z"/>
<path d="M4495 7440 c-26 -29 -24 -79 4 -102 70 -56 164 39 101 102 -26 26
-81 26 -105 0z"/>
<path d="M4915 7425 c-28 -27 -30 -42 -14 -79 16 -34 58 -51 91 -35 26 11 48
46 48 75 0 24 -47 64 -75 64 -14 0 -37 -11 -50 -25z"/>
<path d="M7746 7429 c-46 -36 -26 -110 34 -124 39 -9 80 27 80 71 0 66 -61 95
-114 53z"/>
<path d="M2126 7419 c-26 -20 -36 -69 -18 -95 10 -15 47 -34 67 -34 25 0 65
46 65 75 0 30 -41 75 -68 75 -11 0 -31 -9 -46 -21z"/>
<path d="M10615 7415 c-14 -13 -25 -36 -25 -50 0 -30 41 -75 68 -75 35 0 72
38 72 75 0 24 -7 39 -26 54 -35 27 -59 26 -89 -4z"/>
<path d="M6070 7163 c-261 -39 -319 -55 -571 -153 -203 -79 -296 -106 -426
-122 l-93 -11 0 -30 0 -30 79 7 c110 9 240 44 416 111 315 120 420 148 632
167 102 9 157 9 246 0 98 -10 265 -45 318 -66 21 -9 47 43 27 55 -24 15 -164
49 -263 64 -90 13 -300 18 -365 8z"/>
<path d="M3086 7125 c-54 -8 -100 -16 -103 -18 -2 -3 -1 -17 3 -32 6 -25 9
-27 46 -21 275 44 587 26 868 -50 52 -14 178 -53 280 -86 205 -66 345 -102
360 -93 6 3 10 17 10 30 0 19 -7 26 -27 31 -98 22 -169 42 -329 94 -204 67
-375 112 -514 136 -132 22 -464 28 -594 9z"/>
<path d="M8960 7082 l0 -30 193 -4 192 -5 162 -47 c90 -26 196 -64 238 -85
139 -71 311 -98 529 -81 72 5 141 10 154 10 18 0 22 6 22 28 l0 29 -237 -1
c-270 -1 -308 5 -448 74 -44 22 -152 61 -240 86 l-160 47 -202 5 -203 4 0 -30z"/>
<path d="M8475 7068 c-125 -53 -335 -100 -580 -130 -136 -17 -666 -17 -764 0
-40 7 -75 11 -76 10 -1 -2 -5 -15 -9 -29 -7 -33 -5 -33 152 -50 150 -15 606
-7 771 15 228 30 485 96 593 152 25 13 26 17 16 39 -14 30 -16 30 -103 -7z"/>
<path d="M1198 6994 c-7 -15 -8 -28 -2 -33 18 -18 330 -112 452 -137 234 -47
472 -49 689 -5 112 23 285 81 290 96 2 6 -3 19 -10 29 -13 18 -17 17 -110 -13
-156 -52 -266 -72 -442 -78 -239 -8 -430 23 -712 117 l-144 48 -11 -24z"/>
<path d="M6335 6605 c-14 -13 -25 -36 -25 -50 0 -30 41 -75 68 -75 35 0 72 38
72 73 0 38 -7 50 -37 66 -33 17 -51 14 -78 -14z"/>
<path d="M9166 6609 c-19 -15 -26 -30 -26 -54 0 -37 37 -75 72 -75 29 0 68 45
68 79 0 32 -38 71 -70 71 -10 0 -29 -9 -44 -21z"/>
<path d="M716 6599 c-36 -28 -36 -80 0 -108 15 -12 34 -21 44 -21 34 0 70 39
70 75 0 36 -36 75 -70 75 -10 0 -29 -9 -44 -21z"/>
<path d="M3548 6605 c-53 -29 -42 -116 16 -131 84 -21 131 92 56 131 -35 18
-38 18 -72 0z"/>
<path d="M5930 6580 c-11 -11 -20 -33 -20 -50 0 -17 9 -39 20 -50 11 -11 33
-20 50 -20 17 0 39 9 50 20 11 11 20 33 20 50 0 17 -9 39 -20 50 -11 11 -33
20 -50 20 -17 0 -39 -9 -50 -20z"/>
<path d="M6742 6584 c-28 -20 -31 -83 -4 -107 45 -40 122 -6 122 53 0 59 -67
90 -118 54z"/>
<path d="M8759 6582 c-28 -23 -30 -73 -4 -102 24 -26 79 -26 105 0 63 63 -31
158 -101 102z"/>
<path d="M9561 6574 c-12 -15 -21 -34 -21 -44 0 -34 39 -70 75 -70 36 0 75 36
75 70 0 34 -39 70 -75 70 -24 0 -39 -7 -54 -26z"/>
<path d="M310 6570 c-26 -26 -26 -81 -2 -103 44 -40 122 -7 122 51 0 60 -78
94 -120 52z"/>
<path d="M1115 6565 c-30 -30 -31 -54 -4 -89 20 -26 69 -36 95 -18 15 10 34
47 34 67 0 25 -46 65 -75 65 -14 0 -37 -11 -50 -25z"/>
<path d="M3135 6565 c-48 -47 -19 -115 49 -115 68 0 96 79 44 123 -28 24 -65
21 -93 -8z"/>
<path d="M3942 6567 c-45 -48 -17 -117 47 -117 46 0 71 24 71 68 0 65 -74 96
-118 49z"/>
<path d="M7146 6489 c-50 -39 -22 -122 42 -122 43 0 72 28 72 70 0 65 -61 93
-114 52z"/>
<path d="M9970 6490 c-26 -26 -26 -81 0 -105 29 -26 79 -24 102 4 56 70 -39
164 -102 101z"/>
<path d="M1526 6479 c-19 -15 -26 -30 -26 -54 0 -36 36 -75 70 -75 34 0 70 39
70 75 0 36 -36 75 -70 75 -10 0 -29 -9 -44 -21z"/>
<path d="M4345 6475 c-48 -47 -19 -119 49 -119 47 0 70 23 70 70 0 68 -72 97
-119 49z"/>
<path d="M5550 6450 c-61 -61 27 -154 98 -104 28 20 31 83 4 107 -25 23 -78
21 -102 -3z"/>
<path d="M8377 6452 c-40 -45 -6 -122 53 -122 17 0 39 9 50 20 45 45 11 120
-53 120 -20 0 -41 -8 -50 -18z"/>
<path d="M2751 6434 c-12 -15 -21 -34 -21 -44 0 -34 39 -70 75 -70 36 0 75 36
75 70 0 34 -39 70 -75 70 -24 0 -39 -7 -54 -26z"/>
<path d="M7537 6412 c-25 -28 -22 -87 5 -106 51 -36 118 -5 118 54 0 17 -9 39
-20 50 -26 26 -81 26 -103 2z"/>
<path d="M10330 6410 c-43 -43 -11 -120 50 -120 38 0 70 32 70 70 0 38 -32 70
-70 70 -17 0 -39 -9 -50 -20z"/>
<path d="M1901 6394 c-27 -34 -27 -64 -1 -92 47 -50 140 -6 125 58 -14 60 -88
80 -124 34z"/>
<path d="M4705 6395 c-30 -30 -31 -54 -4 -89 15 -19 30 -26 54 -26 36 0 75 36
75 70 0 10 -9 29 -21 44 -27 34 -71 35 -104 1z"/>
<path d="M5140 6397 c-52 -26 -49 -104 4 -128 36 -17 73 -3 92 32 19 38 6 80
-32 98 -31 14 -33 14 -64 -2z"/>
<path d="M7956 6389 c-19 -15 -26 -30 -26 -54 0 -36 36 -75 70 -75 34 0 70 39
70 75 0 36 -36 75 -70 75 -10 0 -29 -9 -44 -21z"/>
<path d="M2350 6387 c-14 -7 -31 -24 -39 -38 -12 -22 -12 -29 0 -54 27 -57
105 -57 131 0 26 57 -37 119 -92 92z"/>
<path d="M10820 6393 c-51 -19 -68 -85 -30 -123 61 -61 159 32 103 98 -20 23
-50 33 -73 25z"/>
<path d="M9100 6089 c-154 -20 -294 -60 -526 -149 -178 -70 -297 -106 -379
-114 -136 -15 -135 -15 -135 -47 0 -35 9 -36 150 -14 117 17 186 38 415 127
294 114 519 157 754 145 112 -6 271 -34 352 -62 39 -14 40 -14 50 12 5 14 6
30 1 35 -12 12 -186 55 -276 67 -88 13 -310 12 -406 0z"/>
<path d="M815 6061 c-4 -7 -4 -22 -1 -34 5 -22 8 -22 188 -22 l183 0 170 -49
c94 -27 205 -66 248 -87 131 -66 222 -83 432 -82 99 1 200 5 225 10 40 7 45
12 48 37 l4 28 -114 -8 c-273 -19 -418 -2 -557 67 -46 23 -161 64 -255 92
l-171 50 -196 5 c-144 3 -198 1 -204 -7z"/>
<path d="M6162 6056 c-51 -7 -94 -15 -96 -17 -3 -2 -2 -17 1 -33 5 -26 8 -28
42 -22 195 33 465 32 661 -3 152 -27 274 -59 497 -132 214 -69 344 -102 356
-90 5 5 7 19 5 32 -2 20 -12 25 -63 35 -33 7 -152 42 -265 79 -220 70 -381
114 -525 140 -121 23 -485 29 -613 11z"/>
<path d="M3330 6046 c-158 -21 -283 -51 -499 -121 -108 -34 -211 -66 -229 -70
-24 -5 -32 -11 -28 -22 3 -8 6 -21 6 -29 0 -8 7 -14 15 -14 8 0 99 27 202 60
351 113 509 143 758 144 88 0 193 -3 233 -7 l72 -8 0 29 c0 24 -5 31 -27 36
-64 14 -400 15 -503 2z"/>
<path d="M4280 5924 c-14 -35 -17 -33 155 -89 163 -53 317 -89 451 -106 136
-17 402 -7 529 21 102 22 274 75 288 89 4 4 3 19 -2 33 l-9 25 -99 -33 c-290
-97 -575 -109 -892 -38 -92 21 -336 95 -398 120 -8 3 -17 -6 -23 -22z"/>
<path d="M6299 5602 c-49 -40 -17 -122 48 -122 65 0 93 61 52 114 -25 31 -66
35 -100 8z"/>
<path d="M9121 5594 c-27 -34 -27 -64 -1 -92 47 -50 140 -6 125 58 -14 60 -88
80 -124 34z"/>
<path d="M675 5585 c-14 -13 -25 -30 -25 -37 1 -59 51 -98 100 -78 36 15 55
57 41 93 -19 51 -77 62 -116 22z"/>
<path d="M3506 5589 c-52 -41 -23 -122 44 -122 67 0 96 81 44 122 -15 12 -34
21 -44 21 -10 0 -29 -9 -44 -21z"/>
<path d="M5890 5563 c-55 -70 42 -151 105 -88 30 29 32 64 5 93 -30 32 -82 30
-110 -5z"/>
<path d="M6700 5570 c-27 -27 -25 -66 5 -95 29 -30 64 -32 96 -7 28 23 30 73
4 102 -24 26 -79 26 -105 0z"/>
<path d="M8720 5570 c-26 -26 -25 -60 1 -94 25 -31 66 -35 100 -8 28 23 30 73
4 102 -24 26 -79 26 -105 0z"/>
<path d="M9526 5568 c-35 -50 -4 -118 54 -118 59 0 95 85 52 123 -28 25 -87
22 -106 -5z"/>
<path d="M272 5557 c-28 -29 -28 -57 -1 -91 41 -52 122 -23 122 44 0 65 -76
95 -121 47z"/>
<path d="M1080 5560 c-43 -43 -11 -120 50 -120 38 0 70 32 70 70 0 38 -32 70
-70 70 -17 0 -39 -9 -50 -20z"/>
<path d="M3102 5564 c-29 -20 -30 -76 -2 -104 43 -43 120 -11 120 50 0 59 -67
90 -118 54z"/>
<path d="M3900 5553 c-37 -47 -4 -113 56 -113 35 0 74 37 74 70 0 10 -9 29
-21 44 -29 36 -80 36 -109 -1z"/>
<path d="M7105 5480 c-41 -45 -10 -120 50 -120 38 0 75 35 75 71 0 58 -87 91
-125 49z"/>
<path d="M9931 5474 c-12 -15 -21 -34 -21 -44 0 -10 9 -29 21 -44 41 -52 122
-23 122 44 0 67 -81 96 -122 44z"/>
<path d="M1485 5465 c-28 -27 -31 -45 -14 -78 16 -30 28 -37 66 -37 35 0 73
37 73 72 0 27 -45 68 -75 68 -14 0 -37 -11 -50 -25z"/>
<path d="M4310 5470 c-24 -24 -26 -67 -4 -98 11 -16 25 -22 54 -22 29 0 43 6
54 22 36 51 5 118 -54 118 -17 0 -39 -9 -50 -20z"/>
<path d="M5540 5457 c-14 -7 -31 -25 -38 -40 -22 -45 15 -97 69 -97 28 0 69
44 69 73 0 51 -55 86 -100 64z"/>
<path d="M8358 5454 c-51 -27 -46 -101 7 -126 58 -26 119 33 95 91 -6 16 -23
33 -36 40 -31 14 -33 14 -66 -5z"/>
<path d="M2716 5428 c-36 -51 -5 -118 54 -118 59 0 90 67 54 118 -11 16 -25
22 -54 22 -29 0 -43 -6 -54 -22z"/>
<path d="M7525 5418 c-50 -27 -59 -75 -20 -113 42 -43 106 -23 120 36 12 48
-57 101 -100 77z"/>
<path d="M10319 5418 c-16 -5 -32 -22 -39 -39 -35 -84 84 -137 129 -58 31 55
-28 118 -90 97z"/>
<path d="M1867 5392 c-23 -25 -21 -78 3 -102 43 -43 120 -11 120 50 0 17 -9
39 -20 50 -26 26 -81 26 -103 2z"/>
<path d="M4670 5390 c-43 -43 -11 -120 50 -120 17 0 39 9 50 20 26 26 26 81 2
103 -25 23 -78 21 -102 -3z"/>
<path d="M5092 5380 c-48 -45 -16 -123 50 -123 64 0 92 83 42 122 -34 27 -64
27 -92 1z"/>
<path d="M7927 5389 c-48 -28 -40 -107 13 -129 58 -24 120 44 90 99 -20 38
-66 51 -103 30z"/>
<path d="M2295 5365 c-14 -13 -25 -36 -25 -50 0 -30 41 -75 68 -75 35 0 72 38
72 75 0 24 -7 39 -26 54 -35 27 -59 26 -89 -4z"/>
<path d="M10755 5365 c-27 -26 -31 -54 -15 -85 42 -79 163 -20 129 62 -21 51
-76 62 -114 23z"/>
<path d="M9090 5084 c-252 -28 -372 -58 -618 -154 -215 -83 -337 -118 -449
-127 l-83 -6 0 -30 0 -30 88 5 c118 8 222 36 451 124 106 42 235 86 285 99
270 72 577 74 810 4 71 -21 79 -19 90 17 6 20 -1 24 -76 44 -46 12 -117 28
-158 35 -80 14 -282 25 -340 19z"/>
<path d="M740 5032 l0 -30 193 -4 192 -5 162 -47 c90 -26 196 -64 238 -85 139
-72 306 -96 540 -80 77 5 146 11 153 14 6 2 12 15 12 28 l0 24 -237 -1 c-270
-1 -309 5 -448 74 -44 22 -152 61 -240 87 l-160 46 -202 5 -203 4 0 -30z"/>
<path d="M6127 5050 c-48 -5 -109 -13 -135 -18 -44 -7 -47 -10 -45 -36 1 -16
3 -30 5 -31 2 -2 23 1 48 6 25 6 138 13 252 16 314 9 483 -21 913 -160 300
-97 345 -104 345 -54 0 20 -7 25 -60 35 -33 7 -158 44 -277 83 -371 118 -559
156 -817 164 -77 2 -180 0 -229 -5z"/>
<path d="M3145 5020 c-143 -22 -252 -50 -483 -124 -95 -31 -179 -56 -187 -56
-20 0 -27 -15 -19 -44 8 -31 -3 -33 244 46 194 62 332 98 465 119 88 15 462
19 533 6 l43 -7 -3 32 c-3 32 -5 33 -58 40 -116 13 -412 7 -535 -12z"/>
<path d="M4156 4904 c-4 -15 -6 -28 -4 -29 8 -8 255 -87 338 -109 191 -49 284
-60 480 -60 151 0 206 4 296 22 95 19 307 82 320 95 3 2 0 17 -6 32 -8 20 -15
25 -28 20 -391 -153 -793 -147 -1269 19 -56 20 -106 36 -112 36 -5 0 -12 -12
-15 -26z"/>
<path d="M6032 4547 c-45 -48 -16 -120 48 -120 41 0 70 28 70 69 0 66 -74 98
-118 51z"/>
<path d="M8859 4552 c-15 -13 -22 -30 -22 -51 0 -66 76 -98 123 -51 27 27 25
66 -5 95 -29 30 -64 32 -96 7z"/>
<path d="M423 4548 c-46 -22 -47 -90 -1 -122 32 -22 55 -20 83 9 32 31 32 69
0 100 -26 27 -47 30 -82 13z"/>
<path d="M3235 4535 c-58 -57 1 -146 76 -115 77 32 47 139 -39 140 -7 0 -24
-11 -37 -25z"/>
<path d="M5627 4522 c-40 -44 -7 -122 51 -122 60 0 94 78 52 120 -26 26 -81
26 -103 2z"/>
<path d="M6430 4513 c-15 -19 -19 -35 -15 -53 14 -62 90 -79 128 -28 54 73
-56 153 -113 81z"/>
<path d="M8451 4514 c-28 -35 -26 -59 4 -90 33 -33 80 -30 108 8 54 73 -56
153 -112 82z"/>
<path d="M9260 4520 c-26 -26 -25 -60 1 -94 25 -31 66 -35 100 -8 28 23 30 73
4 102 -24 26 -79 26 -105 0z"/>
<path d="M811 4504 c-12 -15 -21 -34 -21 -44 0 -10 9 -29 21 -44 41 -52 122
-23 122 44 0 67 -81 96 -122 44z"/>
<path d="M2830 4510 c-45 -45 -11 -120 53 -120 43 0 67 26 67 73 0 26 -6 40
-22 51 -31 22 -74 20 -98 -4z"/>
<path d="M3640 4510 c-11 -11 -20 -33 -20 -50 0 -17 9 -39 20 -50 11 -11 33
-20 50 -20 17 0 39 9 50 20 11 11 20 33 20 50 0 17 -9 39 -20 50 -11 11 -33
20 -50 20 -17 0 -39 -9 -50 -20z"/>
<path d="M6840 4430 c-43 -43 -11 -120 50 -120 38 0 70 32 70 70 0 38 -32 70
-70 70 -17 0 -39 -9 -50 -20z"/>
<path d="M9669 4432 c-28 -23 -30 -73 -4 -102 25 -27 78 -27 105 2 26 28 26
58 -1 92 -25 31 -66 35 -100 8z"/>
<path d="M1232 4433 c-23 -9 -43 -60 -33 -85 29 -78 141 -63 141 19 0 47 -61
85 -108 66z"/>
<path d="M4045 4415 c-46 -45 -19 -118 43 -118 58 0 93 53 67 102 -24 48 -72
55 -110 16z"/>
<path d="M8099 4407 c-37 -19 -53 -60 -37 -94 26 -55 104 -54 130 2 26 57 -37
119 -93 92z"/>
<path d="M5246 4388 c-35 -50 -4 -118 54 -118 59 0 95 85 52 123 -28 25 -87
22 -106 -5z"/>
<path d="M2450 4378 c-27 -29 -25 -69 3 -96 46 -43 120 -15 120 46 0 66 -78
98 -123 50z"/>
<path d="M10901 4374 c-12 -15 -21 -34 -21 -44 0 -10 9 -29 21 -44 41 -52 122
-23 122 44 0 67 -81 96 -122 44z"/>
<path d="M7230 4343 c-55 -70 42 -151 105 -88 48 47 19 115 -49 115 -26 0 -40
-7 -56 -27z"/>
<path d="M10025 4350 c-25 -27 -22 -80 6 -102 68 -56 161 40 99 102 -26 26
-81 26 -105 0z"/>
<path d="M1600 4340 c-42 -42 -12 -120 48 -120 46 0 72 25 72 70 0 29 -6 43
-22 54 -31 22 -74 20 -98 -4z"/>
<path d="M4401 4334 c-12 -15 -21 -34 -21 -44 0 -10 9 -29 21 -44 41 -52 122
-23 122 44 0 67 -81 96 -122 44z"/>
<path d="M10442 4337 c-45 -48 -17 -117 47 -117 46 0 71 24 71 68 0 65 -74 96
-118 49z"/>
<path d="M4826 4329 c-34 -27 -35 -71 -1 -104 30 -30 54 -31 89 -4 18 14 26
30 26 52 0 38 -7 50 -37 66 -31 16 -47 14 -77 -10z"/>
<path d="M7665 4338 c-28 -16 -35 -28 -35 -65 0 -41 42 -77 80 -68 60 14 80
88 34 124 -30 24 -50 26 -79 9z"/>
<path d="M2040 4327 c-52 -26 -49 -104 5 -129 58 -26 119 33 95 91 -6 16 -23
33 -36 40 -31 14 -33 14 -64 -2z"/>
<path d="M6105 4064 c-243 -35 -324 -56 -568 -150 -212 -81 -315 -111 -434
-126 -93 -11 -93 -11 -93 -40 0 -26 3 -28 39 -28 113 0 282 46 525 141 237 94
407 134 620 145 132 7 308 -13 436 -50 46 -14 86 -23 88 -22 1 2 4 16 5 32 2
25 -3 29 -43 41 -126 38 -230 54 -385 58 -88 2 -173 1 -190 -1z"/>
<path d="M3157 4029 c-144 -16 -147 -17 -147 -51 l0 -31 48 7 c392 55 660 22
1176 -144 174 -56 294 -89 322 -90 7 0 14 13 16 30 4 28 3 30 -51 41 -31 6
-167 46 -303 90 -274 86 -415 121 -591 144 -123 16 -353 18 -470 4z"/>
<path d="M8980 3980 l0 -30 158 0 c87 0 185 -5 218 -11 109 -20 338 -90 404
-124 152 -78 314 -103 553 -85 152 11 167 16 167 52 0 16 -15 17 -207 11 -251
-7 -329 5 -468 71 -89 43 -277 103 -411 131 -45 10 -129 15 -241 15 l-173 0 0
-30z"/>
<path d="M8485 3963 c-173 -67 -390 -111 -670 -134 -154 -13 -582 -6 -675 11
-57 10 -70 4 -70 -31 0 -23 10 -25 144 -39 159 -17 630 -8 790 14 220 31 373
68 529 128 79 30 84 36 67 69 -13 23 -5 24 -115 -18z"/>
<path d="M1221 3889 c-9 -27 -8 -29 42 -47 131 -49 349 -110 472 -131 297 -52
640 -20 889 84 33 14 35 17 25 38 -6 12 -13 23 -14 25 -2 2 -54 -13 -115 -33
-186 -60 -323 -78 -535 -72 -216 6 -341 30 -589 111 l-165 53 -10 -28z"/>
<path d="M5765 3525 c-30 -30 -31 -54 -4 -89 20 -26 69 -36 95 -18 15 10 34
47 34 67 0 25 -46 65 -75 65 -14 0 -37 -11 -50 -25z"/>
<path d="M8592 3527 c-45 -48 -14 -117 51 -117 42 0 67 26 67 68 0 65 -74 96
-118 49z"/>
<path d="M145 3515 c-28 -27 -32 -61 -10 -92 49 -70 160 0 120 76 -24 48 -72
55 -110 16z"/>
<path d="M2972 3520 c-50 -47 -6 -140 58 -125 60 14 80 88 34 124 -34 27 -64
27 -92 1z"/>
<path d="M5366 3505 c-59 -59 10 -155 83 -114 62 35 41 121 -31 127 -23 2 -41
-3 -52 -13z"/>
<path d="M6166 3498 c-50 -71 43 -159 104 -98 26 26 26 81 2 103 -28 25 -87
22 -106 -5z"/>
<path d="M8186 3498 c-50 -71 43 -159 104 -98 26 26 26 81 2 103 -28 25 -87
22 -106 -5z"/>
<path d="M8997 3502 c-40 -44 -7 -122 51 -122 60 0 94 78 52 120 -26 26 -81
26 -103 2z"/>
<path d="M552 3494 c-50 -34 -15 -124 48 -124 17 0 39 9 50 20 11 11 20 33 20
50 0 59 -67 90 -118 54z"/>
<path d="M2565 3490 c-42 -46 -8 -120 54 -120 34 0 71 37 71 71 0 60 -85 93
-125 49z"/>
<path d="M3371 3484 c-12 -15 -21 -34 -21 -44 0 -34 39 -70 75 -70 36 0 75 36
75 70 0 34 -39 70 -75 70 -24 0 -39 -7 -54 -26z"/>
<path d="M11017 3492 c-25 -28 -22 -87 5 -106 71 -50 159 43 98 104 -26 26
-81 26 -103 2z"/>
<path d="M6571 3404 c-12 -15 -21 -34 -21 -44 0 -34 39 -70 75 -70 36 0 75 36
75 70 0 34 -39 70 -75 70 -24 0 -39 -7 -54 -26z"/>
<path d="M9400 3408 c-43 -47 -12 -118 53 -118 43 0 67 26 67 73 0 62 -77 91
-120 45z"/>
<path d="M951 3394 c-41 -53 -13 -114 52 -114 43 0 70 29 69 72 -2 65 -82 92
-121 42z"/>
<path d="M3780 3400 c-26 -26 -26 -81 -2 -103 44 -40 122 -7 122 51 0 60 -78
94 -120 52z"/>
<path d="M5003 3388 c-12 -6 -27 -24 -34 -40 -34 -83 86 -136 130 -57 19 33 1
81 -35 98 -29 13 -32 13 -61 -1z"/>
<path d="M7833 3390 c-48 -19 -58 -87 -17 -119 53 -41 114 -13 114 52 0 51
-50 86 -97 67z"/>
<path d="M2187 3362 c-40 -44 -7 -122 51 -122 60 0 94 78 52 120 -26 26 -81
26 -103 2z"/>
<path d="M10637 3362 c-23 -25 -21 -78 3 -102 43 -43 120 -11 120 50 0 17 -9
39 -20 50 -26 26 -81 26 -103 2z"/>
<path d="M6993 3350 c-46 -19 -57 -83 -20 -118 48 -45 117 -14 117 51 0 51
-50 86 -97 67z"/>
<path d="M9785 3348 c-50 -27 -59 -75 -20 -113 29 -30 64 -32 96 -7 59 48 -9
157 -76 120z"/>
<path d="M1335 3320 c-42 -47 -8 -120 55 -120 33 0 70 40 70 74 0 57 -86 89
-125 46z"/>
<path d="M4137 3322 c-40 -45 -6 -122 53 -122 17 0 39 9 50 20 45 45 11 120
-53 120 -20 0 -41 -8 -50 -18z"/>
<path d="M10179 3322 c-49 -40 -17 -122 48 -122 65 0 93 61 52 114 -25 31 -66
35 -100 8z"/>
<path d="M4572 3323 c-7 -3 -19 -18 -27 -33 -40 -77 71 -147 120 -77 42 60
-24 138 -93 110z"/>
<path d="M7385 3305 c-41 -40 -30 -92 25 -115 25 -10 34 -10 55 4 50 33 55 91
12 121 -31 22 -65 18 -92 -10z"/>
<path d="M1766 3299 c-19 -15 -26 -30 -26 -54 0 -36 36 -75 70 -75 34 0 70 39
70 75 0 36 -36 75 -70 75 -10 0 -29 -9 -44 -21z"/>
<path d="M2883 3054 c-143 -20 -283 -59 -452 -126 -227 -88 -322 -117 -451
-136 -106 -16 -115 -19 -118 -40 -5 -32 18 -37 117 -24 127 17 222 45 420 122
318 124 457 154 711 154 170 0 272 -13 401 -54 l60 -18 11 24 c15 32 8 38 -82
63 -180 50 -423 64 -617 35z"/>
<path d="M8381 3044 c-139 -19 -277 -54 -499 -125 -100 -33 -189 -59 -197 -59
-20 0 -28 -17 -21 -46 8 -30 -2 -31 245 47 345 111 457 132 721 133 102 1 214
-1 250 -4 l65 -5 0 30 c0 29 -1 30 -60 36 -106 12 -397 7 -504 -7z"/>
<path d="M5840 2982 l0 -30 198 -4 197 -5 160 -47 c88 -26 196 -65 240 -87
101 -49 175 -68 296 -77 79 -6 389 3 395 11 0 1 4 14 7 28 l7 27 -243 -2
c-227 -1 -247 0 -317 22 -41 13 -100 37 -130 53 -30 17 -131 53 -225 81 l-170
51 -207 5 -208 4 0 -30z"/>
<path d="M5345 2964 c-268 -112 -832 -172 -1243 -133 -178 17 -167 18 -170
-13 -2 -18 2 -28 15 -32 83 -25 550 -35 758 -16 306 28 586 90 727 161 35 18
37 21 26 44 -14 31 -14 30 -113 -11z"/>
<path d="M9358 2895 c-7 -16 -8 -29 -2 -34 18 -17 328 -112 453 -138 115 -25
146 -27 351 -28 181 0 242 4 310 18 47 10 86 22 88 27 2 5 9 7 17 4 13 -6 194
51 208 65 4 4 3 19 -3 33 l-12 24 -96 -34 c-176 -61 -271 -76 -502 -76 -175
-1 -222 3 -319 22 -114 23 -288 73 -414 117 l-68 25 -11 -25z"/>
<path d="M6156 2529 c-50 -39 -22 -122 42 -122 43 0 72 28 72 70 0 65 -61 93
-114 52z"/>
<path d="M8980 2530 c-26 -26 -26 -81 0 -105 29 -26 79 -24 102 4 27 34 23 75
-8 100 -34 26 -68 27 -94 1z"/>
<path d="M536 2519 c-36 -28 -36 -80 0 -108 15 -12 34 -21 44 -21 34 0 70 39
70 75 0 36 -36 75 -70 75 -10 0 -29 -9 -44 -21z"/>
<path d="M3356 2517 c-15 -15 -26 -38 -26 -52 0 -14 11 -37 26 -52 20 -20 31
-24 57 -19 43 9 61 29 61 71 0 42 -18 62 -61 71 -26 5 -37 1 -57 -19z"/>
<path d="M5750 2500 c-43 -43 -11 -120 50 -120 38 0 70 32 70 70 0 38 -32 70
-70 70 -17 0 -39 -9 -50 -20z"/>
<path d="M6555 2500 c-25 -27 -22 -80 6 -102 68 -56 161 40 99 102 -26 26 -81
26 -105 0z"/>
<path d="M8575 2500 c-42 -46 -8 -120 54 -120 34 0 71 37 71 71 0 60 -85 93
-125 49z"/>
<path d="M9381 2494 c-12 -15 -21 -34 -21 -44 0 -34 39 -70 75 -70 36 0 75 36
75 70 0 34 -39 70 -75 70 -24 0 -39 -7 -54 -26z"/>
<path d="M132 2494 c-28 -20 -31 -83 -4 -107 25 -23 78 -21 102 3 61 61 -27
154 -98 104z"/>
<path d="M931 2484 c-12 -15 -21 -34 -21 -44 0 -34 39 -70 75 -70 36 0 75 36
75 70 0 34 -39 70 -75 70 -24 0 -39 -7 -54 -26z"/>
<path d="M2951 2484 c-27 -34 -27 -64 -1 -92 45 -48 123 -16 123 50 0 64 -83
92 -122 42z"/>
<path d="M3760 2490 c-45 -45 -11 -120 54 -120 25 0 39 7 50 22 36 51 5 118
-54 118 -17 0 -39 -9 -50 -20z"/>
<path d="M6962 2407 c-45 -48 -14 -117 51 -117 42 0 67 26 67 68 0 65 -74 96
-118 49z"/>
<path d="M9790 2410 c-26 -26 -26 -81 -2 -103 44 -40 122 -7 122 51 0 60 -78
94 -120 52z"/>
<path d="M1342 2400 c-48 -45 -16 -123 50 -123 64 0 92 83 42 122 -34 27 -64
27 -92 1z"/>
<path d="M4165 2395 c-39 -39 -32 -86 17 -111 59 -30 122 27 99 89 -19 51 -77
62 -116 22z"/>
<path d="M5370 2370 c-42 -42 -8 -120 53 -120 58 0 91 85 49 123 -25 23 -78
21 -102 -3z"/>
<path d="M8197 2372 c-40 -44 -7 -122 51 -122 60 0 94 78 52 120 -26 26 -81
26 -103 2z"/>
<path d="M2571 2354 c-12 -15 -21 -34 -21 -44 0 -34 39 -70 75 -70 36 0 75 36
75 70 0 34 -39 70 -75 70 -24 0 -39 -7 -54 -26z"/>
<path d="M11021 2354 c-12 -15 -21 -34 -21 -44 0 -34 39 -70 75 -70 36 0 75
36 75 70 0 34 -39 70 -75 70 -24 0 -39 -7 -54 -26z"/>
<path d="M7357 2332 c-25 -28 -22 -87 5 -106 71 -50 159 43 98 104 -26 26 -81
26 -103 2z"/>
<path d="M10147 2332 c-23 -25 -21 -78 3 -102 43 -43 120 -11 120 50 0 17 -9
39 -20 50 -26 26 -81 26 -103 2z"/>
<path d="M1721 2314 c-27 -35 -27 -65 2 -92 48 -45 120 -16 120 48 0 67 -81
96 -122 44z"/>
<path d="M4521 2314 c-12 -15 -21 -34 -21 -44 0 -34 39 -70 75 -70 36 0 75 36
75 70 0 34 -39 70 -75 70 -24 0 -39 -7 -54 -26z"/>
<path d="M4945 2305 c-14 -13 -25 -36 -25 -50 0 -28 40 -75 64 -75 29 0 64 22
75 48 16 33 -1 75 -35 91 -37 16 -52 14 -79 -14z"/>
<path d="M7776 2309 c-19 -15 -26 -30 -26 -54 0 -36 36 -75 70 -75 34 0 70 39
70 75 0 36 -36 75 -70 75 -10 0 -29 -9 -44 -21z"/>
<path d="M2163 2308 c-81 -39 -20 -167 62 -130 55 25 58 100 5 127 -33 17 -37
17 -67 3z"/>
<path d="M10617 2300 c-35 -28 -37 -80 -5 -110 63 -58 156 32 101 98 -27 32
-64 37 -96 12z"/>
<path d="M6095 2033 c-226 -26 -358 -60 -595 -152 -211 -83 -336 -118 -450
-127 -80 -7 -80 -7 -80 -35 0 -28 1 -29 54 -29 120 0 223 29 601 170 321 120
632 145 920 76 55 -14 108 -28 117 -31 13 -5 20 0 28 20 6 15 9 30 6 32 -2 2
-44 15 -93 29 -152 42 -377 63 -508 47z"/>
<path d="M3195 2004 c-16 -2 -74 -9 -128 -15 -93 -11 -98 -13 -93 -33 3 -11 6
-26 6 -32 0 -7 28 -6 88 4 49 7 166 14 267 14 275 1 441 -29 811 -148 232 -74
338 -104 372 -104 18 0 22 6 22 28 0 26 -4 29 -73 45 -40 9 -164 46 -274 81
-369 119 -549 155 -803 161 -91 2 -178 2 -195 -1z"/>
<path d="M8950 1947 l0 -36 128 6 c71 3 162 1 207 -5 115 -16 355 -88 460
-137 132 -63 218 -80 405 -80 85 1 185 4 221 9 61 7 67 10 72 32 3 16 -1 28
-9 31 -7 2 -79 0 -161 -7 -228 -17 -393 8 -523 81 -30 16 -134 53 -230 81
l-175 51 -197 5 -198 4 0 -35z"/>
<path d="M8475 1938 c-143 -61 -397 -114 -665 -139 -137 -12 -631 -6 -713 9
-51 9 -53 8 -59 -33 -4 -25 25 -30 263 -45 409 -26 869 29 1169 139 114 42
114 42 99 74 -7 15 -15 27 -18 26 -3 0 -37 -14 -76 -31z"/>
<path d="M1187 1858 c-3 -12 -4 -25 -1 -29 6 -10 252 -91 359 -118 268 -68
533 -76 784 -25 106 22 291 84 291 98 0 7 -6 20 -12 29 -12 15 -21 14 -118
-17 -370 -120 -706 -108 -1155 44 -65 22 -124 40 -131 40 -6 0 -14 -10 -17
-22z"/>
<path d="M5812 1507 c-43 -46 -15 -120 46 -120 43 0 72 28 72 70 0 66 -74 97
-118 50z"/>
<path d="M8640 1510 c-26 -26 -26 -81 0 -105 27 -25 80 -22 102 6 56 68 -40
161 -102 99z"/>
<path d="M205 1508 c-28 -16 -35 -28 -35 -65 0 -22 8 -38 26 -52 35 -27 59
-26 89 4 34 33 33 77 -1 104 -30 24 -50 26 -79 9z"/>
<path d="M3015 1495 c-40 -39 -29 -97 22 -116 58 -22 116 36 94 94 -19 51 -77
62 -116 22z"/>
<path d="M5406 1478 c-36 -51 -5 -118 54 -118 59 0 90 67 54 118 -21 31 -87
31 -108 0z"/>
<path d="M6215 1480 c-26 -29 -24 -79 4 -102 70 -56 164 39 101 102 -26 26
-81 26 -105 0z"/>
<path d="M8235 1480 c-42 -47 -8 -120 55 -120 33 0 70 40 70 76 0 57 -86 87
-125 44z"/>
<path d="M9046 1484 c-43 -43 -19 -116 41 -122 62 -6 101 62 63 111 -25 31
-78 37 -104 11z"/>
<path d="M591 1464 c-12 -15 -21 -34 -21 -44 0 -34 39 -70 75 -70 36 0 75 36
75 70 0 34 -39 70 -75 70 -24 0 -39 -7 -54 -26z"/>
<path d="M2612 1467 c-44 -47 -13 -117 52 -117 41 0 69 29 69 72 0 61 -78 91
-121 45z"/>
<path d="M3420 1470 c-11 -11 -20 -33 -20 -50 0 -17 9 -39 20 -50 11 -11 33
-20 50 -20 17 0 39 9 50 20 11 11 20 33 20 50 0 17 -9 39 -20 50 -11 11 -33
20 -50 20 -17 0 -39 -9 -50 -20z"/>
<path d="M11061 1464 c-27 -35 -27 -65 2 -92 48 -45 120 -16 120 48 0 67 -81
96 -122 44z"/>
<path d="M6620 1390 c-45 -45 -11 -120 53 -120 42 0 67 26 67 68 0 41 -31 72
-70 72 -17 0 -39 -9 -50 -20z"/>
<path d="M9451 1392 c-28 -22 -31 -75 -6 -102 24 -26 79 -26 105 0 62 62 -31
158 -99 102z"/>
<path d="M1000 1380 c-26 -26 -26 -81 0 -105 29 -26 79 -24 102 4 27 34 23 75
-8 100 -34 26 -68 27 -94 1z"/>
<path d="M3825 1375 c-39 -38 -32 -86 16 -110 76 -40 146 71 76 120 -31 22
-65 18 -92 -10z"/>
<path d="M5063 1372 c-51 -8 -70 -83 -30 -120 48 -45 117 -14 117 51 0 48 -38
77 -87 69z"/>
<path d="M7890 1372 c-51 -16 -68 -84 -30 -122 57 -57 149 18 110 90 -11 20
-58 39 -80 32z"/>
<path d="M2231 1334 c-12 -15 -21 -34 -21 -44 0 -34 39 -70 75 -70 36 0 75 36
75 70 0 34 -39 70 -75 70 -24 0 -39 -7 -54 -26z"/>
<path d="M10681 1334 c-12 -15 -21 -34 -21 -44 0 -34 39 -70 75 -70 36 0 75
36 75 70 0 34 -39 70 -75 70 -24 0 -39 -7 -54 -26z"/>
<path d="M7015 1310 c-42 -47 -8 -120 55 -120 33 0 70 40 70 76 0 57 -86 87
-125 44z"/>
<path d="M9807 1312 c-23 -25 -21 -78 3 -102 61 -61 154 27 104 98 -20 28 -83
31 -107 4z"/>
<path d="M1380 1298 c-27 -29 -25 -69 3 -96 46 -43 120 -15 120 46 0 66 -78
98 -123 50z"/>
<path d="M4181 1294 c-12 -15 -21 -34 -21 -44 0 -34 39 -70 75 -70 36 0 75 36
75 70 0 34 -39 70 -75 70 -24 0 -39 -7 -54 -26z"/>
<path d="M10221 1294 c-41 -53 -13 -114 52 -114 42 0 70 29 70 72 0 64 -83 92
-122 42z"/>
<path d="M4605 1285 c-28 -27 -32 -61 -10 -92 47 -66 150 -8 123 70 -18 51
-74 62 -113 22z"/>
<path d="M7436 1289 c-19 -15 -26 -30 -26 -54 0 -36 36 -75 70 -75 34 0 70 39
70 75 0 36 -36 75 -70 75 -10 0 -29 -9 -44 -21z"/>
<path d="M1823 1288 c-68 -33 -40 -138 37 -138 28 0 70 44 70 73 0 51 -61 88
-107 65z"/>
<path d="M8535 1013 c-181 -22 -321 -60 -563 -152 -114 -43 -237 -86 -273 -95
-57 -14 -189 -35 -226 -36 -8 0 -13 -13 -13 -30 0 -27 3 -30 34 -30 44 0 196
27 266 47 30 8 134 46 231 84 317 123 455 153 709 153 170 0 272 -13 401 -53
59 -19 59 -19 70 1 6 11 8 25 6 32 -7 17 -136 52 -262 71 -90 13 -301 18 -380
8z"/>
<path d="M5560 974 c-52 -7 -98 -13 -101 -13 -3 -1 -3 -15 -1 -32 4 -30 6 -31
42 -25 127 20 261 28 395 23 242 -10 412 -45 760 -157 163 -53 331 -100 358
-100 5 0 7 14 5 32 -3 31 -6 33 -63 44 -33 7 -145 40 -250 74 -253 82 -463
135 -613 154 -148 19 -398 19 -532 0z"/>
<path d="M2815 974 c-16 -2 -72 -9 -124 -15 -125 -14 -286 -55 -515 -128 -103
-34 -193 -61 -200 -61 -8 0 -11 -11 -8 -31 4 -29 6 -30 41 -24 20 4 104 28
186 55 83 27 182 58 220 69 215 62 467 88 689 71 77 -6 140 -9 141 -8 1 2 5
15 8 29 6 25 4 27 -36 33 -54 8 -363 16 -402 10z"/>
<path d="M286 962 c-3 -5 -3 -18 0 -29 5 -20 14 -21 197 -25 l192 -5 170 -50
c94 -28 190 -62 215 -77 126 -73 321 -103 557 -86 81 6 150 13 155 16 4 3 8
15 8 28 l0 23 -242 -1 c-228 -1 -248 0 -318 22 -41 13 -100 37 -130 54 -55 30
-264 96 -393 123 -74 16 -402 21 -411 7z"/>
<path d="M11112 940 c-108 -49 -305 -99 -507 -129 -208 -31 -584 -40 -790 -20
-171 17 -160 18 -163 -13 -2 -18 2 -28 15 -32 78 -25 570 -35 766 -16 296 29
483 67 660 136 50 19 93 36 94 38 5 5 -19 56 -26 56 -3 0 -25 -9 -49 -20z"/>
<path d="M3671 844 c-6 -15 -10 -28 -8 -31 12 -12 218 -79 332 -108 359 -92
690 -88 988 12 112 38 128 51 108 83 -8 12 -24 10 -109 -18 -188 -62 -276 -76
-492 -77 -120 0 -224 5 -270 13 -137 24 -411 101 -521 146 -11 5 -19 -2 -28
-20z"/>
<path d="M5366 469 c-19 -15 -26 -30 -26 -54 0 -36 36 -75 70 -75 34 0 70 39
70 75 0 36 -36 75 -70 75 -10 0 -29 -9 -44 -21z"/>
<path d="M8207 483 c-9 -2 -24 -18 -33 -35 -19 -37 -5 -80 32 -97 37 -16 52
-14 79 14 58 57 3 139 -78 118z"/>
<path d="M2580 467 c-13 -7 -29 -25 -34 -39 -29 -83 94 -137 128 -56 17 39 11
63 -22 88 -29 23 -38 24 -72 7z"/>
<path d="M11030 467 c-52 -26 -49 -104 4 -128 81 -37 138 73 64 125 -27 19
-35 20 -68 3z"/>
<path d="M4960 440 c-26 -26 -26 -81 -2 -103 25 -23 78 -21 102 3 43 43 11
120 -50 120 -17 0 -39 -9 -50 -20z"/>
<path d="M5761 434 c-12 -15 -21 -34 -21 -44 0 -34 39 -70 75 -70 36 0 75 36
75 70 0 34 -39 70 -75 70 -24 0 -39 -7 -54 -26z"/>
<path d="M7781 434 c-12 -15 -21 -34 -21 -44 0 -34 39 -70 75 -70 36 0 75 36
75 70 0 34 -39 70 -75 70 -24 0 -39 -7 -54 -26z"/>
<path d="M8592 437 c-45 -48 -14 -117 51 -117 42 0 70 29 70 72 0 61 -78 91
-121 45z"/>
<path d="M145 425 c-30 -29 -32 -68 -5 -95 47 -47 123 -15 123 51 0 63 -72 90
-118 44z"/>
<path d="M2162 427 c-43 -46 -15 -120 46 -120 43 0 72 28 72 70 0 66 -74 97
-118 50z"/>
<path d="M2970 430 c-26 -26 -26 -81 0 -105 29 -26 79 -24 102 4 56 70 -39
164 -102 101z"/>
<path d="M10616 429 c-50 -39 -22 -122 42 -122 43 0 72 28 72 70 0 65 -61 93
-114 52z"/>
<path d="M6172 350 c-48 -45 -16 -123 50 -123 64 0 92 83 42 122 -34 27 -64
27 -92 1z"/>
<path d="M9003 355 c-43 -30 -38 -88 12 -121 21 -14 30 -14 55 -4 55 23 66 75
25 115 -27 28 -61 32 -92 10z"/>
<path d="M564 348 c-69 -33 -37 -138 42 -138 24 0 64 47 64 75 0 30 -41 75
-67 74 -10 0 -28 -5 -39 -11z"/>
<path d="M3375 335 c-14 -13 -25 -36 -25 -50 0 -28 40 -75 64 -75 78 0 109
107 40 139 -37 16 -52 14 -79 -14z"/>
<path d="M10196 318 c-36 -51 -5 -118 54 -118 59 0 90 67 54 118 -11 16 -25
22 -54 22 -29 0 -43 -6 -54 -22z"/>
<path d="M4580 310 c-43 -43 -11 -120 50 -120 38 0 70 32 70 70 0 38 -32 70
-70 70 -17 0 -39 -9 -50 -20z"/>
<path d="M7405 310 c-42 -46 -10 -120 51 -120 35 0 74 37 74 70 0 10 -9 29
-21 44 -26 33 -77 36 -104 6z"/>
<path d="M1782 297 c-45 -48 -14 -117 51 -117 42 0 70 29 70 72 0 61 -78 91
-121 45z"/>
<path d="M6561 264 c-12 -15 -21 -34 -21 -44 0 -34 39 -70 75 -70 36 0 75 36
75 70 0 10 -9 29 -21 44 -28 36 -80 36 -108 0z"/>
<path d="M9355 270 c-41 -45 -10 -120 50 -120 38 0 75 35 75 71 0 58 -87 91
-125 49z"/>
<path d="M932 257 c-45 -48 -14 -117 51 -117 42 0 67 26 67 68 0 65 -74 96
-118 49z"/>
<path d="M3731 254 c-41 -53 -13 -114 52 -114 42 0 70 29 70 72 0 64 -83 92
-122 42z"/>
<path d="M9775 255 c-14 -13 -25 -36 -25 -50 0 -30 41 -75 68 -75 35 0 72 38
72 73 0 38 -7 50 -37 66 -33 17 -51 14 -78 -14z"/>
<path d="M4173 260 c-48 -20 -58 -87 -17 -119 34 -27 64 -27 92 -1 32 30 30
82 -4 109 -29 23 -38 24 -71 11z"/>
<path d="M6987 250 c-35 -28 -37 -80 -5 -110 29 -27 64 -25 93 5 63 63 -18
160 -88 105z"/>
<path d="M1356 235 c-59 -59 10 -155 83 -114 62 35 41 121 -31 127 -23 2 -41
-3 -52 -13z"/>
</g>
</svg>
