<?xml version="1.0" standalone="no"?>
<!DOCTYPE svg PUBLIC "-//W3C//DTD SVG 20010904//EN"
 "http://www.w3.org/TR/2001/REC-SVG-20010904/DTD/svg10.dtd">
<svg version="1.0" xmlns="http://www.w3.org/2000/svg"
 width="1125.000000pt" height="900.000000pt" viewBox="0 0 1125.000000 900.000000"
 preserveAspectRatio="xMidYMid meet">
<metadata>
Created by potrace 1.13, written by Peter Selinger 2001-2015
</metadata>
<g transform="translate(0.000000,900.000000) scale(0.100000,-0.100000)"
fill="#000000" stroke="none">
<path d="M0 4500 l0 -4500 5625 0 5625 0 0 4500 0 4500 -5625 0 -5625 0 0
-4500z m2020 2765 c932 -932 1701 -1695 1708 -1695 7 0 10 -5 6 -11 -9 -15
1605 -1629 1623 -1622 8 3 13 -2 13 -13 0 -12 746 -765 1925 -1944 1059 -1059
1925 -1928 1925 -1932 0 -5 -98 -8 -217 -8 l-218 0 -1696 1696 c-1007 1007
-1701 1694 -1708 1690 -6 -4 -11 0 -11 11 0 23 -2109 2133 -2132 2133 -12 0
-15 5 -11 16 4 12 -425 445 -1591 1608 l-1597 1591 0 81 c1 44 4 84 8 87 3 4
67 7 142 7 l136 0 1695 -1695z m540 0 c932 -932 1701 -1695 1708 -1695 7 0 10
-5 6 -11 -9 -15 1065 -1089 1083 -1082 8 3 13 -2 13 -13 0 -12 850 -869 2195
-2214 1207 -1207 2195 -2198 2195 -2202 0 -5 -98 -8 -217 -8 l-218 0 -1966
1966 c-1168 1168 -1971 1964 -1978 1960 -6 -4 -11 0 -11 11 0 23 -1569 1593
-1592 1593 -12 0 -15 5 -11 15 4 11 -488 507 -1671 1686 -922 919 -1676 1675
-1676 1680 0 5 97 9 222 9 l223 0 1695 -1695z m540 0 c932 -932 1701 -1695
1708 -1695 7 0 10 -5 6 -11 -9 -15 525 -549 543 -542 8 3 13 -2 13 -13 0 -12
954 -973 2465 -2484 1356 -1356 2465 -2468 2465 -2472 0 -5 -98 -8 -217 -8
l-218 0 -2236 2236 c-1329 1329 -2241 2234 -2248 2230 -6 -4 -11 0 -11 11 0
23 -1029 1053 -1052 1053 -10 0 -15 6 -12 18 3 12 -463 483 -1671 1685 -921
918 -1675 1673 -1675 1678 0 5 94 9 222 9 l223 0 1695 -1695z m541 -1 c1238
-1238 1701 -1695 1713 -1691 9 4 16 14 16 24 0 11 -697 715 -1665 1683 -916
916 -1665 1668 -1665 1672 0 5 99 8 220 8 l221 0 1430 -1427 c787 -786 1437
-1427 1445 -1425 9 2 14 -6 14 -20 0 -28 485 -518 513 -518 11 0 15 -5 11 -11
-4 -7 1072 -1090 2655 -2673 l2662 -2662 -3 -89 -3 -90 -130 -3 -129 -3 -2766
2766 c-2040 2040 -2771 2765 -2788 2765 -16 0 -22 -6 -22 -23 0 -16 715 -737
2735 -2757 1504 -1504 2735 -2738 2735 -2742 0 -5 -98 -8 -217 -8 l-218 0
-2506 2506 c-1490 1490 -2511 2504 -2518 2500 -6 -4 -11 0 -11 11 0 20 -497
513 -517 513 -7 0 -10 6 -7 13 2 7 -702 718 -1671 1687 -921 921 -1675 1678
-1675 1682 0 5 100 8 222 8 l223 0 1696 -1696z m538 536 c724 -721 1169 -1156
1177 -1153 9 3 14 -3 14 -18 0 -18 127 -151 517 -541 303 -303 525 -518 536
-518 11 0 15 -5 11 -11 -4 -7 963 -981 2385 -2403 l2391 -2391 0 -218 c0 -119
-3 -217 -8 -217 -4 0 -1186 1179 -2627 2620 -1556 1556 -2627 2620 -2638 2620
-11 0 -15 5 -11 11 9 15 -527 551 -543 544 -8 -2 -13 3 -13 13 0 9 -623 640
-1395 1412 -767 767 -1395 1398 -1395 1402 0 5 98 8 218 7 l217 0 1164 -1159z
m266 270 c679 -679 895 -889 908 -884 13 5 17 1 17 -17 0 -18 190 -214 787
-811 464 -464 795 -788 806 -788 11 0 15 -5 11 -11 -4 -7 854 -872 2115 -2133
l2121 -2121 0 -218 c0 -119 -3 -217 -8 -217 -4 0 -1065 1058 -2357 2350 -1304
1304 -2358 2350 -2367 2350 -10 0 -15 5 -13 13 7 16 -1069 1092 -1084 1083 -6
-4 -11 0 -11 11 0 11 -460 478 -1125 1143 -619 619 -1125 1128 -1125 1132 0 5
98 8 217 8 l218 0 890 -890z m271 269 c451 -451 626 -620 638 -616 12 5 16 0
16 -16 0 -28 2105 -2137 2133 -2137 11 0 15 -5 11 -11 -4 -7 745 -763 1845
-1863 l1851 -1851 0 -218 c0 -119 -3 -217 -8 -217 -4 0 -943 936 -2087 2080
-1154 1154 -2088 2080 -2097 2080 -10 0 -15 5 -13 13 7 16 -1609 1632 -1624
1623 -6 -4 -11 0 -11 11 0 11 -351 369 -855 873 -470 470 -855 858 -855 862 0
5 98 8 217 8 l218 0 621 -621z m270 270 c253 -253 357 -350 368 -346 12 5 16
0 16 -16 0 -28 2645 -2677 2673 -2677 11 0 15 -5 11 -11 -4 -7 636 -654 1575
-1593 l1581 -1581 0 -218 c0 -138 -4 -217 -10 -215 -5 2 -823 816 -1818 1811
-994 994 -1816 1807 -1825 1807 -9 0 -14 6 -12 13 7 16 -2149 2172 -2164 2163
-6 -4 -11 0 -11 11 0 11 -242 260 -585 603 -322 322 -585 588 -585 592 0 5 98
8 217 8 l217 0 352 -351z m270 270 c56 -55 88 -80 98 -76 12 5 16 0 16 -16 0
-28 3185 -3217 3213 -3217 11 0 15 -5 11 -11 -4 -7 527 -545 1305 -1323 l1311
-1311 0 -224 0 -223 -1551 1546 c-853 850 -1557 1546 -1565 1546 -7 0 -11 6
-9 13 7 16 -2689 2712 -2704 2703 -6 -4 -11 0 -11 11 0 10 -133 151 -315 333
-173 173 -315 318 -315 322 0 5 97 8 216 8 l216 0 84 -81z m2154 -1614 c1001
-1001 1702 -1695 1713 -1695 11 0 15 -5 11 -11 -4 -7 418 -436 1035 -1053
l1041 -1041 0 -224 0 -223 -1280 1274 c-705 700 -1287 1274 -1295 1276 -8 2
-12 9 -9 15 6 17 -3231 3251 -3245 3243 -7 -4 -11 0 -11 11 0 11 -20 39 -45
63 -25 24 -45 48 -45 52 0 4 98 8 217 8 l218 0 1695 -1695z m540 0 c1001
-1001 1702 -1695 1713 -1695 11 0 15 -5 11 -11 -4 -7 309 -327 765 -783 l771
-771 0 -224 0 -223 -197 190 c-109 105 -565 558 -1013 1006 -448 449 -820 816
-827 816 -7 0 -10 6 -8 13 3 6 -733 751 -1670 1687 -921 921 -1675 1678 -1675
1682 0 5 98 8 217 8 l218 0 1695 -1695z m540 0 c935 -935 1703 -1695 1712
-1695 11 0 15 -5 12 -14 -3 -8 182 -200 496 -512 l500 -499 0 -222 c0 -123 -3
-223 -8 -223 -4 0 -338 331 -742 735 -404 404 -740 735 -747 735 -7 0 -10 6
-8 13 3 6 -733 751 -1670 1687 -921 921 -1675 1678 -1675 1682 0 5 98 8 217 8
l218 0 1695 -1695z m540 0 c932 -932 1703 -1695 1712 -1695 10 0 15 -6 11 -18
-3 -12 60 -81 226 -245 l231 -228 0 -220 c0 -120 -3 -219 -8 -219 -4 0 -216
209 -472 465 -256 256 -470 465 -477 465 -7 0 -10 6 -8 13 3 6 -733 751 -1670
1687 -921 921 -1675 1678 -1675 1682 0 5 98 8 217 8 l218 0 1695 -1695z m512
28 l1668 -1668 0 -222 c0 -123 -3 -223 -8 -223 -4 0 -95 88 -202 195 -107 107
-200 195 -207 195 -7 0 -10 6 -8 13 3 6 -733 751 -1670 1687 -921 921 -1675
1678 -1675 1682 0 5 98 8 217 8 l218 0 1667 -1667z m270 269 l1398 -1397 0
-218 c0 -119 -3 -217 -7 -217 -10 0 -3223 3213 -3223 3222 0 5 98 8 217 8
l218 0 1397 -1398z m270 270 l1128 -1127 0 -218 c0 -119 -3 -217 -7 -217 -10
0 -2683 2673 -2683 2682 0 5 98 8 217 8 l218 0 1127 -1128z m270 270 l858
-857 0 -218 c0 -119 -3 -217 -7 -217 -10 0 -2143 2133 -2143 2142 0 5 98 8
217 8 l218 0 857 -858z m270 270 l588 -587 0 -218 c0 -119 -3 -217 -7 -217
-10 0 -1603 1593 -1603 1602 0 5 98 8 217 8 l218 0 587 -588z m270 270 l318
-317 0 -218 c0 -119 -3 -217 -7 -217 -10 0 -1063 1053 -1063 1062 0 5 98 8
217 8 l218 0 317 -318z m269 269 l49 -48 0 -217 c0 -119 -3 -216 -7 -216 -10
0 -523 513 -523 522 0 5 97 8 216 8 l217 0 48 -49z m-9546 -1781 c858 -858
1566 -1560 1573 -1560 7 0 10 -5 6 -11 -9 -15 2145 -2169 2163 -2162 8 3 13
-2 13 -13 0 -12 643 -662 1655 -1674 910 -910 1655 -1658 1655 -1662 0 -5 -98
-8 -217 -8 l-218 0 -1426 1426 c-846 846 -1431 1424 -1438 1420 -6 -4 -11 0
-11 11 0 23 -2649 2673 -2672 2673 -12 0 -15 5 -11 17 5 12 -323 344 -1321
1337 l-1327 1321 1 223 c0 122 3 222 8 222 4 0 709 -702 1567 -1560z m-270
-270 c709 -709 1296 -1290 1303 -1290 7 0 10 -5 6 -11 -4 -7 540 -558 1342
-1360 1040 -1040 1351 -1346 1361 -1337 10 8 13 5 13 -13 0 -18 323 -347 1385
-1409 762 -762 1385 -1388 1385 -1392 0 -5 -98 -8 -217 -8 l-218 0 -1156 1156
c-685 685 -1161 1154 -1168 1150 -6 -4 -11 0 -11 11 0 25 -3189 3213 -3214
3213 -14 0 -16 3 -7 14 9 11 -196 220 -1049 1068 l-1060 1055 0 222 c0 121 3
221 8 221 4 0 588 -580 1297 -1290z m-270 -270 c561 -561 1026 -1020 1033
-1020 7 0 10 -5 6 -11 -4 -7 649 -667 1612 -1630 1248 -1248 1621 -1616 1631
-1607 10 8 13 5 13 -13 0 -18 261 -285 1115 -1139 613 -613 1115 -1118 1115
-1122 0 -5 -98 -8 -217 -8 l-218 0 -886 886 c-524 524 -891 884 -898 880 -6
-4 -11 0 -11 11 0 25 -3729 3753 -3754 3753 -14 0 -16 3 -8 13 9 10 -170 194
-778 802 l-790 790 0 217 c0 120 3 218 8 218 4 0 466 -459 1027 -1020z m-270
-270 c412 -412 756 -750 763 -750 7 0 10 -5 6 -11 -4 -7 758 -776 1882 -1900
1456 -1456 1891 -1886 1901 -1877 10 8 13 5 13 -13 0 -18 199 -223 845 -869
465 -465 845 -848 845 -852 0 -5 -98 -8 -217 -8 l-218 0 -616 616 c-364 363
-621 614 -628 610 -6 -4 -11 0 -11 11 0 25 -4269 4293 -4294 4293 -14 0 -16 3
-8 13 9 10 -108 132 -508 532 l-520 520 0 217 c0 120 3 218 8 218 4 0 345
-337 757 -750z m-270 -270 c264 -264 486 -480 493 -480 7 0 10 -5 6 -11 -4 -7
867 -885 2152 -2170 1664 -1664 2161 -2156 2171 -2147 10 8 13 5 13 -13 0 -18
138 -162 575 -599 316 -316 575 -578 575 -582 0 -5 -98 -8 -217 -8 l-217 0
-347 346 c-203 202 -351 344 -358 340 -6 -4 -11 0 -11 11 0 25 -4809 4833
-4834 4833 -14 0 -16 3 -8 13 9 10 -46 70 -238 262 l-250 250 0 217 c0 120 3
218 8 218 4 0 223 -216 487 -480z m-270 -270 c115 -115 215 -210 222 -210 7 0
10 -6 8 -12 -3 -7 1062 -1081 2419 -2437 1772 -1772 2428 -2422 2440 -2418 12
5 16 0 16 -16 0 -16 88 -110 305 -327 168 -168 305 -308 305 -312 0 -5 -97 -8
-216 -8 l-216 0 -78 76 c-43 42 -83 73 -89 69 -6 -3 -11 2 -11 12 0 11 -1085
1103 -2665 2683 l-2665 2665 0 223 c0 122 3 222 8 222 4 0 102 -94 217 -210z
m2430 -2980 c1909 -1909 2645 -2639 2658 -2636 12 3 17 -2 17 -18 0 -12 16
-37 35 -56 19 -19 35 -38 35 -42 0 -4 -98 -8 -217 -8 l-218 0 -2482 2483
-2483 2482 0 218 c0 119 3 217 8 217 4 0 1195 -1188 2647 -2640z m-218 -322
c1333 -1333 2423 -2426 2423 -2430 0 -5 -98 -8 -217 -8 l-218 0 -2212 2213
-2213 2212 0 218 c0 119 3 217 7 217 5 0 1098 -1090 2430 -2422z m-270 -270
c1184 -1184 2153 -2156 2153 -2160 0 -5 -98 -8 -217 -8 l-218 0 -1942 1943
-1943 1942 0 218 c0 119 3 217 7 217 5 0 977 -969 2160 -2152z m-270 -270
c1036 -1036 1883 -1886 1883 -1890 0 -5 -98 -8 -217 -8 l-218 0 -1672 1673
-1673 1672 0 218 c0 119 3 217 7 217 5 0 855 -847 1890 -1882z m-270 -270
c887 -887 1613 -1616 1613 -1620 0 -5 -98 -8 -217 -8 l-218 0 -1402 1403
-1403 1402 0 218 c0 119 3 217 7 217 5 0 734 -726 1620 -1612z m-270 -270
c739 -739 1343 -1346 1343 -1350 0 -5 -98 -8 -217 -8 l-218 0 -1132 1133
-1133 1132 0 218 c0 119 3 217 7 217 5 0 612 -604 1350 -1342z m-270 -270
c590 -590 1073 -1076 1073 -1080 0 -5 -98 -8 -217 -8 l-218 0 -862 863 -863
862 0 218 c0 119 3 217 7 217 5 0 491 -483 1080 -1072z m-262 -278 l810 -810
-225 0 -225 0 -592 593 -593 592 0 218 c0 119 3 217 8 217 4 0 372 -364 817
-810z m-270 -270 l540 -540 -225 0 -225 0 -322 323 -323 322 0 218 c0 119 3
217 8 217 4 0 250 -243 547 -540z m-275 -265 l275 -275 -224 0 -224 0 -54 53
-53 54 0 221 c0 122 1 222 3 222 1 0 126 -124 277 -275z"/>
</g>
</svg>
