<?xml version="1.0" standalone="no"?>
<!DOCTYPE svg PUBLIC "-//W3C//DTD SVG 20010904//EN"
 "http://www.w3.org/TR/2001/REC-SVG-20010904/DTD/svg10.dtd">
<svg version="1.0" xmlns="http://www.w3.org/2000/svg"
 width="1125.000000pt" height="900.000000pt" viewBox="0 0 1125.000000 900.000000"
 preserveAspectRatio="xMidYMid meet">
<metadata>
Created by potrace 1.13, written by Peter Selinger 2001-2015
</metadata>
<g transform="translate(0.000000,900.000000) scale(0.100000,-0.100000)"
fill="#000000" stroke="none">
<path d="M0 4500 l0 -4500 5625 0 5625 0 0 4500 0 4500 -5625 0 -5625 0 0
-4500z m6405 4443 c-18 -40 -17 -84 0 -103 24 -26 79 -26 105 0 24 24 26 72 5
90 -8 7 -15 16 -15 21 0 5 449 8 998 8 916 0 995 -1 967 -16 -44 -23 -74 -53
-96 -95 -61 -118 33 -228 195 -228 87 0 141 14 172 45 64 64 -10 211 -135 269
l-46 21 275 3 c240 2 280 0 313 -14 35 -16 39 -16 75 0 34 15 110 16 887 14
l850 -3 3 -31 c9 -93 142 -86 142 8 0 29 0 29 53 26 l52 -3 3 -182 2 -182 -30
-16 c-53 -27 -53 -103 0 -130 l29 -15 1 -3459 0 -3458 -36 -6 c-102 -17 -175
-148 -130 -235 21 -41 50 -63 108 -83 l53 -18 3 -409 2 -410 -30 -30 c-38 -38
-38 -62 0 -106 29 -32 31 -39 28 -103 l-3 -68 -147 -3 -147 -3 6 35 c4 28 1
39 -20 60 -52 51 -123 20 -121 -53 l1 -41 -751 0 -752 0 -56 55 c-69 66 -142
93 -205 76 -39 -11 -100 -65 -122 -109 l-12 -22 -1349 0 -1350 0 0 22 c0 33
-38 68 -75 68 -36 0 -60 -22 -70 -62 l-7 -28 -2077 0 -2077 0 -22 25 c-30 34
-80 34 -112 0 l-24 -25 -835 2 -836 3 1 190 c1 105 2 208 2 230 0 22 -1 581
-4 1243 -4 1059 -2 1206 11 1232 19 37 19 71 0 96 -12 16 -14 74 -15 339 0
313 0 321 22 363 l23 42 -23 40 c-22 38 -22 46 -22 351 l0 312 23 -21 c31 -29
80 -29 107 0 26 28 26 58 -1 92 -25 32 -66 34 -103 5 l-26 -20 0 1165 c0 641
3 1166 6 1166 3 0 12 -7 20 -15 25 -24 62 -29 89 -11 73 48 16 160 -65 126
-16 -7 -30 -16 -30 -21 0 -5 -5 -9 -10 -9 -7 0 -9 172 -8 512 l3 511 55 12
c30 6 65 16 77 23 70 39 51 146 -40 230 -26 23 -51 42 -56 42 -5 0 -17 7 -25
16 -14 13 -16 58 -16 338 0 177 3 326 7 329 3 4 1437 7 3186 7 3024 0 3179 -1
3172 -17z m2200 -83 c48 -30 87 -83 88 -122 2 -29 -2 -34 -33 -45 -53 -18
-139 -15 -187 7 -75 33 -81 94 -17 158 31 31 39 34 74 29 22 -3 55 -15 75 -27z
m-8518 -669 c31 -26 73 -90 73 -112 0 -22 -24 -36 -79 -45 l-41 -7 0 92 c0 98
6 106 47 72z m11121 -6849 c3 -115 -2 -121 -66 -82 -58 36 -66 87 -21 144 22
28 56 47 74 42 6 -1 11 -47 13 -104z"/>
<path d="M10590 8810 c-26 -26 -26 -81 -2 -103 44 -40 122 -7 122 51 0 60 -78
94 -120 52z"/>
<path d="M5865 8795 c-14 -13 -25 -36 -25 -50 0 -30 41 -75 68 -75 35 0 72 38
72 75 0 24 -7 39 -26 54 -35 27 -59 26 -89 -4z"/>
<path d="M331 8682 c-28 -22 -31 -75 -6 -102 39 -43 125 -13 125 44 0 61 -72
97 -119 58z"/>
<path d="M10213 8678 c-28 -14 -43 -55 -31 -89 9 -26 44 -49 74 -49 24 0 64
47 64 75 0 30 -41 75 -67 74 -10 0 -28 -5 -40 -11z"/>
<path d="M5260 8650 c-62 -62 31 -158 99 -102 28 22 31 75 6 102 -24 26 -79
26 -105 0z"/>
<path d="M7967 8578 c-37 -33 -40 -75 -7 -108 27 -27 66 -25 95 5 29 28 32 65
8 93 -28 33 -66 37 -96 10z"/>
<path d="M1059 8552 c-15 -13 -22 -30 -22 -51 0 -66 76 -98 123 -51 27 27 25
66 -5 95 -29 30 -64 32 -96 7z"/>
<path d="M4665 8545 c-40 -39 -29 -95 22 -113 78 -27 136 76 70 123 -31 22
-65 18 -92 -10z"/>
<path d="M7325 8525 c-49 -17 -102 -75 -116 -129 -21 -79 35 -160 130 -186 54
-15 139 -11 196 8 39 13 54 25 69 52 26 50 10 103 -54 173 -71 78 -153 108
-225 82z m133 -83 c57 -38 94 -90 90 -127 -3 -27 -8 -31 -58 -44 -68 -17 -136
-9 -182 22 -27 19 -34 30 -36 65 -3 37 1 47 31 77 45 45 95 48 155 7z"/>
<path d="M9805 8520 c-42 -47 -8 -120 55 -120 33 0 70 40 70 76 0 57 -86 87
-125 44z"/>
<path d="M1726 8499 c-19 -15 -26 -30 -26 -54 0 -36 36 -75 70 -75 34 0 70 39
70 75 0 36 -36 75 -70 75 -10 0 -29 -9 -44 -21z"/>
<path d="M4132 8513 c-7 -3 -19 -18 -28 -35 -13 -24 -13 -35 -4 -58 31 -74
140 -51 140 30 0 45 -63 81 -108 63z"/>
<path d="M3545 8465 c-39 -38 -32 -86 16 -110 49 -26 102 9 102 67 0 62 -73
89 -118 43z"/>
<path d="M2335 8455 c-28 -27 -32 -61 -10 -92 47 -66 150 -8 123 70 -18 51
-74 62 -113 22z"/>
<path d="M2927 8450 c-35 -28 -37 -80 -5 -110 63 -58 156 32 101 98 -27 32
-64 37 -96 12z"/>
<path d="M9400 8390 c-26 -26 -25 -60 1 -94 25 -31 66 -35 100 -8 28 23 30 73
4 102 -24 26 -79 26 -105 0z"/>
<path d="M6749 8292 c-15 -13 -22 -30 -22 -51 0 -66 76 -98 123 -51 27 27 25
66 -5 95 -29 30 -64 32 -96 7z"/>
<path d="M9002 8290 c-48 -45 -16 -123 50 -123 61 0 91 78 45 121 -29 28 -67
28 -95 2z"/>
<path d="M6092 8243 c-58 -28 -108 -121 -97 -179 8 -44 50 -93 100 -115 46
-21 152 -25 220 -8 89 22 113 94 62 182 -65 110 -194 165 -285 120z m137 -62
c67 -35 123 -115 108 -155 -12 -31 -145 -47 -204 -25 -81 30 -98 101 -39 163
39 42 76 47 135 17z"/>
<path d="M8585 8195 c-28 -27 -32 -61 -10 -92 47 -66 150 -8 123 70 -18 51
-74 62 -113 22z"/>
<path d="M590 8160 c-26 -26 -26 -81 0 -105 29 -26 79 -24 102 4 27 34 23 75
-8 100 -34 26 -68 27 -94 1z"/>
<path d="M1163 8101 c-55 -26 -103 -98 -103 -155 0 -115 127 -184 284 -156
141 25 167 118 66 234 -72 82 -171 113 -247 77z m115 -56 c82 -35 153 -138
119 -173 -22 -21 -165 -29 -207 -12 -37 16 -70 55 -70 85 0 45 65 114 108 115
7 0 29 -7 50 -15z"/>
<path d="M4873 8070 c-38 -23 -80 -83 -89 -127 -14 -69 44 -150 123 -172 49
-14 147 -14 197 0 89 25 113 103 57 191 -69 108 -204 159 -288 108z m146 -59
c67 -35 123 -115 108 -155 -8 -19 -69 -36 -132 -36 -58 0 -110 23 -138 61 -17
23 -18 31 -7 63 15 45 63 86 101 86 16 0 47 -9 68 -19z"/>
<path d="M5547 8079 c-48 -28 -40 -107 12 -129 75 -31 134 58 76 115 -25 26
-58 31 -88 14z"/>
<path d="M8195 8065 c-43 -42 -23 -106 35 -120 38 -9 80 27 80 68 0 38 -7 50
-37 66 -33 17 -51 14 -78 -14z"/>
<path d="M1807 8020 c-37 -29 -37 -80 -1 -109 15 -12 34 -21 44 -21 31 0 70
39 70 70 0 62 -66 97 -113 60z"/>
<path d="M2370 8029 c-95 -38 -140 -161 -87 -240 33 -51 104 -82 185 -82 156
1 223 54 193 152 -34 115 -195 208 -291 170z m115 -68 c65 -29 133 -118 119
-156 -12 -31 -151 -47 -211 -24 -83 31 -97 97 -34 160 44 44 66 48 126 20z"/>
<path d="M3623 7990 c-40 -24 -82 -86 -89 -132 -12 -68 41 -139 125 -167 80
-26 235 -2 266 42 21 30 19 90 -4 136 -23 45 -91 108 -137 127 -48 20 -123 18
-161 -6z m175 -77 c80 -65 105 -135 55 -154 -75 -29 -182 -19 -227 20 -45 40
-37 105 20 150 39 31 102 24 152 -16z"/>
<path d="M7805 7975 c-14 -13 -25 -36 -25 -50 0 -30 41 -75 68 -75 35 0 72 38
72 75 0 24 -7 39 -26 54 -35 27 -59 26 -89 -4z"/>
<path d="M9776 7958 c-50 -71 43 -159 104 -98 26 26 26 81 2 103 -28 25 -87
22 -106 -5z"/>
<path d="M4272 7947 c-45 -48 -14 -117 51 -117 42 0 70 29 70 72 0 61 -78 91
-121 45z"/>
<path d="M3047 7949 c-48 -28 -40 -107 12 -129 75 -31 134 58 76 115 -25 26
-58 31 -88 14z"/>
<path d="M10343 7940 c-60 -36 -104 -127 -89 -184 9 -37 56 -87 101 -107 46
-21 157 -25 219 -8 83 23 108 88 65 175 -54 114 -208 178 -296 124z m168 -74
c48 -32 92 -96 87 -128 -6 -47 -147 -65 -224 -28 -75 37 -79 113 -8 169 36 29
88 24 145 -13z"/>
<path d="M7381 7904 c-12 -15 -21 -34 -21 -44 0 -34 39 -70 75 -70 36 0 75 36
75 70 0 34 -39 70 -75 70 -24 0 -39 -7 -54 -26z"/>
<path d="M6967 7832 c-40 -44 -7 -122 51 -122 60 0 94 78 52 120 -26 26 -81
26 -103 2z"/>
<path d="M6587 7758 c-37 -33 -40 -75 -7 -108 27 -27 66 -25 95 5 29 28 32 65
8 93 -28 33 -66 37 -96 10z"/>
<path d="M185 7725 c-14 -13 -25 -31 -25 -39 0 -30 23 -65 49 -74 76 -27 134
77 68 123 -31 22 -65 18 -92 -10z"/>
<path d="M11021 7692 c-28 -22 -31 -75 -6 -102 24 -26 79 -26 105 0 62 62 -31
158 -99 102z"/>
<path d="M6166 7679 c-19 -15 -26 -30 -26 -54 0 -36 36 -75 70 -75 34 0 70 39
70 75 0 36 -36 75 -70 75 -10 0 -29 -9 -44 -21z"/>
<path d="M620 7682 c-51 -16 -68 -84 -30 -122 57 -57 149 18 110 90 -11 20
-58 39 -80 32z"/>
<path d="M5772 7634 c-63 -44 -37 -134 39 -134 28 0 69 44 69 73 0 55 -65 92
-108 61z"/>
<path d="M992 7597 c-43 -46 -15 -120 46 -120 43 0 72 28 72 70 0 66 -74 97
-118 50z"/>
<path d="M5331 7562 c-28 -22 -31 -75 -6 -102 24 -26 79 -26 105 0 62 62 -31
158 -99 102z"/>
<path d="M1416 7528 c-50 -71 43 -159 104 -98 26 26 26 81 2 103 -28 25 -87
22 -106 -5z"/>
<path d="M1825 7505 c-14 -13 -25 -30 -25 -37 1 -59 51 -98 100 -78 27 11 50
46 50 76 0 24 -47 64 -75 64 -14 0 -37 -11 -50 -25z"/>
<path d="M4949 7520 c-27 -15 -43 -65 -29 -89 28 -53 94 -62 125 -18 44 62
-31 145 -96 107z"/>
<path d="M4532 7477 c-28 -30 -28 -68 1 -95 48 -45 120 -16 120 48 0 65 -76
95 -121 47z"/>
<path d="M2237 7460 c-72 -57 8 -167 81 -113 51 38 34 114 -28 128 -18 4 -34
0 -53 -15z"/>
<path d="M7511 7434 c-12 -15 -21 -34 -21 -44 0 -34 39 -70 75 -70 36 0 75 36
75 70 0 34 -39 70 -75 70 -24 0 -39 -7 -54 -26z"/>
<path d="M2645 7425 c-30 -30 -31 -54 -4 -89 15 -19 30 -26 54 -26 37 0 75 37
75 72 0 27 -45 68 -75 68 -14 0 -37 -11 -50 -25z"/>
<path d="M4105 7425 c-48 -47 -19 -115 49 -115 68 0 96 79 44 123 -28 24 -65
21 -93 -8z"/>
<path d="M3071 7394 c-12 -15 -21 -35 -21 -46 0 -27 45 -68 75 -68 30 0 75 41
75 68 0 35 -38 72 -75 72 -24 0 -39 -7 -54 -26z"/>
<path d="M3647 7402 c-40 -44 -7 -122 51 -122 60 0 94 78 52 120 -26 26 -81
26 -103 2z"/>
<path d="M6143 7380 c-48 -19 -58 -87 -17 -119 53 -41 114 -13 114 52 0 51
-50 86 -97 67z"/>
<path d="M8146 7249 c-19 -15 -26 -30 -26 -54 0 -36 36 -75 70 -75 34 0 70 39
70 75 0 36 -36 75 -70 75 -10 0 -29 -9 -44 -21z"/>
<path d="M5730 7220 c-42 -42 -12 -120 48 -120 44 0 72 26 72 66 0 43 -29 74
-70 74 -17 0 -39 -9 -50 -20z"/>
<path d="M3922 7189 c-88 -44 -128 -159 -80 -229 49 -72 158 -104 273 -80 73
15 115 52 115 101 0 78 -87 182 -177 213 -61 21 -80 20 -131 -5z m131 -60 c39
-20 96 -82 108 -117 15 -45 1 -59 -73 -72 -161 -30 -264 75 -168 171 22 23 38
29 70 29 23 0 51 -5 63 -11z"/>
<path d="M2112 7167 c-43 -46 -16 -117 46 -119 43 -1 72 26 72 69 0 66 -74 97
-118 50z"/>
<path d="M8752 7127 c-45 -48 -14 -117 51 -117 42 0 67 26 67 68 0 65 -74 96
-118 49z"/>
<path d="M1530 7123 c-51 -19 -68 -85 -30 -123 61 -61 159 32 103 98 -20 23
-50 33 -73 25z"/>
<path d="M5315 7075 c-39 -39 -32 -86 17 -111 59 -30 122 27 99 89 -19 51 -77
62 -116 22z"/>
<path d="M1071 7054 c-12 -15 -21 -34 -21 -44 0 -34 39 -70 75 -70 43 0 79 41
70 80 -14 60 -88 80 -124 34z"/>
<path d="M6300 7037 c-80 -40 -24 -162 59 -127 53 22 59 89 9 124 -27 19 -35
20 -68 3z"/>
<path d="M9346 7029 c-26 -20 -36 -69 -18 -95 10 -15 47 -34 67 -34 25 0 65
46 65 75 0 30 -41 75 -68 75 -11 0 -31 -9 -46 -21z"/>
<path d="M547 7019 c-10 -6 -23 -22 -28 -37 -23 -61 42 -118 101 -87 47 24 54
72 15 110 -25 26 -58 31 -88 14z"/>
<path d="M9990 6960 c-26 -26 -26 -81 -2 -103 45 -40 122 -6 122 53 0 17 -9
39 -20 50 -11 11 -33 20 -50 20 -17 0 -39 -9 -50 -20z"/>
<path d="M4938 6944 c-51 -27 -46 -101 7 -126 58 -26 119 33 95 91 -6 16 -23
33 -36 40 -31 14 -33 14 -66 -5z"/>
<path d="M2614 6901 c-85 -52 -119 -161 -72 -231 48 -72 178 -103 296 -71 108
30 120 123 30 226 -74 84 -186 118 -254 76z m131 -60 c69 -32 134 -117 119
-156 -12 -31 -151 -47 -211 -24 -83 31 -97 97 -34 160 44 44 66 48 126 20z"/>
<path d="M3313 6908 c-68 -33 -40 -138 37 -138 28 0 70 44 70 73 0 51 -61 88
-107 65z"/>
<path d="M6875 6901 c-73 -44 -113 -126 -95 -192 21 -74 102 -121 210 -121
159 0 228 62 182 164 -57 129 -207 204 -297 149z m123 -57 c67 -27 122 -95
122 -148 0 -20 -7 -27 -37 -35 -161 -45 -292 39 -224 143 36 55 77 66 139 40z"/>
<path d="M10611 6874 c-12 -15 -21 -34 -21 -44 0 -31 39 -70 70 -70 62 0 97
66 60 113 -29 37 -80 37 -109 1z"/>
<path d="M4522 6833 c-7 -3 -19 -18 -27 -33 -40 -77 71 -147 120 -77 42 60
-24 138 -93 110z"/>
<path d="M5460 6740 c-26 -26 -26 -81 -2 -103 44 -40 122 -7 122 51 0 60 -78
94 -120 52z"/>
<path d="M4134 6738 c-69 -33 -37 -138 42 -138 24 0 64 47 64 75 0 30 -41 75
-67 74 -10 0 -28 -5 -39 -11z"/>
<path d="M1432 6649 c-46 -30 -85 -101 -85 -155 0 -87 76 -145 198 -152 205
-11 274 98 150 236 -80 89 -189 118 -263 71z m144 -55 c51 -24 114 -98 114
-133 0 -38 -23 -51 -100 -58 -97 -9 -180 32 -180 88 0 17 7 43 15 59 30 59 86
75 151 44z"/>
<path d="M3730 6647 c-52 -26 -49 -104 4 -128 81 -37 138 73 64 125 -27 19
-35 20 -68 3z"/>
<path d="M2085 6605 c-29 -28 -31 -51 -9 -83 43 -62 134 -32 134 44 0 24 -47
64 -75 64 -14 0 -37 -11 -50 -25z"/>
<path d="M7555 6605 c-40 -39 -28 -93 26 -113 74 -28 130 78 66 123 -31 22
-65 18 -92 -10z"/>
<path d="M8095 6571 c-11 -5 -33 -21 -48 -37 -90 -90 -76 -209 30 -260 48 -23
151 -30 218 -15 116 26 135 122 44 225 -69 79 -173 115 -244 87z m121 -67 c54
-26 114 -98 114 -137 0 -31 -4 -35 -39 -45 -48 -15 -131 -15 -168 -1 -70 26
-92 85 -54 143 37 55 86 69 147 40z"/>
<path d="M3310 6530 c-43 -43 -11 -120 50 -120 38 0 70 32 70 70 0 38 -32 70
-70 70 -17 0 -39 -9 -50 -20z"/>
<path d="M5822 6527 c-45 -48 -14 -117 51 -117 43 0 67 26 67 73 0 63 -74 91
-118 44z"/>
<path d="M184 6441 c-41 -25 -69 -66 -84 -119 -10 -39 -9 -49 12 -90 43 -87
173 -125 299 -88 83 24 109 63 89 135 -13 48 -88 135 -141 161 -50 26 -133 26
-175 1z m164 -69 c87 -58 120 -142 65 -163 -47 -18 -116 -22 -162 -9 -94 25
-120 98 -57 164 43 47 93 49 154 8z"/>
<path d="M2920 6440 c-26 -26 -26 -81 -2 -103 44 -40 122 -7 122 51 0 60 -78
94 -120 52z"/>
<path d="M866 6429 c-34 -27 -35 -71 -1 -104 30 -30 54 -31 89 -4 19 15 26 30
26 54 0 36 -36 75 -70 75 -10 0 -29 -9 -44 -21z"/>
<path d="M2532 6350 c-22 -9 -42 -46 -42 -76 0 -24 47 -64 75 -64 14 0 37 11
52 26 20 20 24 31 19 57 -4 17 -12 37 -19 44 -18 17 -59 24 -85 13z"/>
<path d="M6203 6348 c-68 -33 -39 -138 38 -138 28 0 69 44 69 73 0 51 -61 88
-107 65z"/>
<path d="M8782 6350 c-22 -9 -42 -46 -42 -76 0 -24 47 -64 75 -64 14 0 37 11
52 26 20 20 24 31 19 57 -4 17 -12 37 -19 44 -18 17 -59 24 -85 13z"/>
<path d="M9345 6348 c-132 -72 -144 -231 -23 -294 44 -23 119 -32 188 -22 113
15 153 59 130 143 -33 120 -207 222 -295 173z m121 -67 c68 -31 136 -126 114
-161 -17 -27 -152 -40 -207 -19 -70 26 -92 85 -54 143 38 57 80 67 147 37z"/>
<path d="M4180 6320 c-42 -42 -8 -120 53 -120 58 0 91 85 49 123 -25 23 -78
21 -102 -3z"/>
<path d="M2130 6263 c-51 -19 -68 -85 -30 -123 61 -61 159 33 103 98 -20 23
-50 33 -73 25z"/>
<path d="M4760 6263 c-51 -19 -68 -85 -30 -123 61 -61 159 33 103 98 -20 23
-50 33 -73 25z"/>
<path d="M5772 6217 c-45 -48 -16 -120 48 -120 41 0 70 28 70 69 0 66 -74 98
-118 51z"/>
<path d="M5300 6190 c-42 -42 -8 -120 53 -120 58 0 91 85 49 123 -25 23 -78
21 -102 -3z"/>
<path d="M1695 6175 c-28 -27 -31 -45 -14 -78 16 -30 28 -37 66 -37 35 0 73
37 73 72 0 27 -45 68 -75 68 -14 0 -37 -11 -50 -25z"/>
<path d="M10564 6190 c-11 -4 -37 -27 -57 -51 -107 -125 -16 -269 170 -269
120 0 193 41 193 107 0 107 -123 223 -235 222 -27 0 -59 -4 -71 -9z m140 -73
c53 -30 97 -87 99 -128 2 -30 -1 -34 -43 -46 -26 -9 -68 -12 -102 -10 -129 11
-175 95 -96 176 37 38 85 41 142 8z"/>
<path d="M6566 6167 c-15 -15 -26 -38 -26 -52 0 -14 11 -37 26 -52 20 -20 31
-24 57 -19 43 9 61 29 61 71 0 42 -18 62 -61 71 -26 5 -37 1 -57 -19z"/>
<path d="M9996 6169 c-19 -15 -26 -30 -26 -54 0 -36 36 -75 70 -75 34 0 70 39
70 75 0 36 -36 75 -70 75 -10 0 -29 -9 -44 -21z"/>
<path d="M2995 6100 c-41 -45 -10 -120 50 -120 38 0 75 35 75 71 0 58 -87 91
-125 49z"/>
<path d="M1332 6084 c-63 -44 -37 -134 39 -134 28 0 69 44 69 73 0 55 -65 92
-108 61z"/>
<path d="M903 6008 c-12 -6 -26 -22 -31 -37 -27 -76 77 -134 123 -68 22 31 18
65 -10 92 -26 27 -47 30 -82 13z"/>
<path d="M7021 5998 c-54 -19 -66 -74 -26 -113 28 -29 65 -32 93 -7 32 26 37
63 13 94 -24 30 -48 38 -80 26z"/>
<path d="M481 5924 c-12 -15 -21 -34 -21 -44 0 -33 39 -70 74 -70 60 0 93 66
56 113 -29 37 -80 37 -109 1z"/>
<path d="M3631 5924 c-12 -15 -21 -34 -21 -44 0 -34 39 -70 75 -70 36 0 75 36
75 70 0 34 -39 70 -75 70 -24 0 -39 -7 -54 -26z"/>
<path d="M86 5869 c-36 -28 -36 -80 0 -108 15 -12 34 -21 44 -21 34 0 70 39
70 75 0 36 -36 75 -70 75 -10 0 -29 -9 -44 -21z"/>
<path d="M6399 5871 c-28 -23 -32 -83 -6 -108 21 -21 82 -22 102 -2 8 8 17 29
21 46 5 26 1 37 -19 57 -31 31 -66 33 -98 7z"/>
<path d="M7437 5850 c-35 -28 -37 -80 -5 -110 29 -27 64 -25 93 5 63 63 -18
160 -88 105z"/>
<path d="M4340 5790 c-26 -26 -26 -81 0 -105 11 -10 34 -18 52 -17 65 2 92 82
42 121 -34 26 -68 27 -94 1z"/>
<path d="M5961 5754 c-27 -35 -26 -59 4 -89 33 -34 77 -33 104 1 12 15 21 34
21 44 0 34 -39 70 -75 70 -24 0 -39 -7 -54 -26z"/>
<path d="M5005 5735 c-14 -13 -25 -36 -25 -50 0 -30 41 -75 68 -75 35 0 72 38
72 73 0 38 -7 50 -37 66 -33 17 -51 14 -78 -14z"/>
<path d="M5525 5735 c-14 -13 -25 -36 -25 -50 0 -28 40 -75 64 -75 78 0 109
107 40 139 -37 16 -52 14 -79 -14z"/>
<path d="M1497 5722 c-23 -25 -21 -78 3 -102 61 -61 154 27 104 98 -20 28 -83
31 -107 4z"/>
<path d="M7865 5705 c-14 -13 -25 -36 -25 -50 0 -29 40 -75 65 -75 20 0 57 19
67 34 4 6 8 25 8 41 0 36 -8 48 -37 64 -33 17 -51 14 -78 -14z"/>
<path d="M8400 5600 c-11 -11 -20 -33 -20 -50 0 -17 9 -39 20 -50 11 -11 33
-20 50 -20 17 0 39 9 50 20 11 11 20 33 20 50 0 17 -9 39 -20 50 -11 11 -33
20 -50 20 -17 0 -39 -9 -50 -20z"/>
<path d="M2156 5569 c-19 -15 -26 -30 -26 -54 0 -36 36 -75 70 -75 34 0 70 39
70 75 0 36 -36 75 -70 75 -10 0 -29 -9 -44 -21z"/>
<path d="M7255 5565 c-39 -39 -32 -86 17 -111 59 -30 122 27 99 89 -19 51 -77
62 -116 22z"/>
<path d="M8872 5530 c-49 -20 -54 -95 -7 -126 73 -48 147 61 79 115 -29 23
-38 24 -72 11z"/>
<path d="M2730 5453 c-55 -70 42 -151 105 -88 30 29 32 64 5 93 -30 32 -82 30
-110 -5z"/>
<path d="M6860 5458 c-27 -29 -25 -64 5 -93 63 -63 160 18 105 88 -28 35 -80
37 -110 5z"/>
<path d="M9315 5435 c-43 -42 -23 -106 35 -120 38 -9 80 27 80 68 0 38 -7 50
-37 66 -33 17 -51 14 -78 -14z"/>
<path d="M423 5401 c-48 -22 -91 -80 -100 -134 -19 -122 114 -207 281 -177 87
15 126 48 126 105 0 72 -73 165 -160 204 -56 26 -93 26 -147 2z m136 -67 c38
-19 62 -40 82 -72 55 -86 36 -107 -97 -107 -102 0 -140 16 -158 67 -17 48 50
138 105 138 8 0 39 -12 68 -26z"/>
<path d="M6462 5397 c-45 -48 -16 -120 48 -120 65 0 95 76 47 121 -30 28 -68
28 -95 -1z"/>
<path d="M3357 5390 c-35 -28 -37 -80 -5 -110 63 -58 156 32 101 98 -27 32
-64 37 -96 12z"/>
<path d="M8053 5398 c-68 -33 -40 -138 37 -138 28 0 70 44 70 73 0 51 -61 88
-107 65z"/>
<path d="M9727 5372 c-40 -45 -6 -122 53 -122 17 0 39 9 50 20 45 45 11 120
-53 120 -20 0 -41 -8 -50 -18z"/>
<path d="M6076 5349 c-19 -15 -26 -30 -26 -54 0 -36 36 -75 70 -75 34 0 70 39
70 75 0 36 -36 75 -70 75 -10 0 -29 -9 -44 -21z"/>
<path d="M3960 5320 c-45 -45 -11 -120 54 -120 25 0 39 7 50 22 36 51 5 118
-54 118 -17 0 -39 -9 -50 -20z"/>
<path d="M4560 5320 c-26 -26 -26 -81 -2 -103 25 -23 78 -21 102 3 43 43 11
120 -50 120 -17 0 -39 -9 -50 -20z"/>
<path d="M7573 5314 c-40 -20 -77 -68 -93 -121 -16 -53 -1 -102 45 -142 42
-36 90 -51 170 -51 167 0 230 76 162 193 -65 110 -194 165 -284 121z m136 -63
c67 -35 123 -115 108 -155 -12 -31 -145 -47 -204 -25 -81 30 -98 101 -39 163
39 42 76 47 135 17z"/>
<path d="M10157 5319 c-28 -16 -40 -58 -27 -90 24 -57 109 -59 130 -4 15 39
12 54 -15 80 -25 26 -58 31 -88 14z"/>
<path d="M5673 5305 c-49 -21 -58 -71 -18 -110 45 -46 118 -19 118 43 0 58
-47 89 -100 67z"/>
<path d="M5141 5274 c-12 -15 -21 -34 -21 -44 0 -34 39 -70 75 -70 36 0 75 36
75 70 0 34 -39 70 -75 70 -24 0 -39 -7 -54 -26z"/>
<path d="M10592 5284 c-28 -20 -31 -83 -4 -107 44 -40 122 -7 122 51 0 59 -67
92 -118 56z"/>
<path d="M11030 5240 c-43 -43 -11 -120 50 -120 38 0 70 32 70 70 0 38 -32 70
-70 70 -17 0 -39 -9 -50 -20z"/>
<path d="M1107 5149 c-48 -28 -40 -107 13 -129 23 -9 34 -9 58 4 49 25 56 72
17 111 -25 26 -58 31 -88 14z"/>
<path d="M9683 5140 c-47 -19 -56 -78 -18 -115 42 -43 106 -23 121 37 5 22 0
33 -24 58 -32 31 -43 34 -79 20z"/>
<path d="M1652 5123 c-58 -28 -108 -121 -97 -179 8 -44 50 -93 100 -115 47
-22 166 -25 226 -8 84 26 106 97 56 182 -65 110 -194 165 -285 120z m126 -59
c64 -26 122 -95 122 -144 0 -28 -54 -50 -125 -50 -130 0 -194 77 -134 161 35
49 75 59 137 33z"/>
<path d="M6603 5055 c-61 -26 -114 -128 -99 -189 9 -37 56 -87 101 -107 46
-21 157 -25 219 -8 109 30 116 139 16 239 -73 73 -162 98 -237 65z m158 -79
c48 -32 92 -96 87 -128 -6 -45 -138 -64 -218 -32 -79 32 -87 111 -17 170 38
32 88 29 148 -10z"/>
<path d="M7150 5020 c-43 -43 -11 -120 50 -120 38 0 70 32 70 70 0 38 -32 70
-70 70 -17 0 -39 -9 -50 -20z"/>
<path d="M9113 5010 c-48 -19 -58 -87 -17 -119 35 -27 65 -27 92 2 54 57 -3
145 -75 117z"/>
<path d="M2873 4961 c-69 -43 -103 -153 -68 -221 36 -69 171 -107 284 -80 65
15 99 42 107 84 12 66 -60 172 -148 217 -50 25 -133 25 -175 0z m173 -73 c32
-22 56 -49 73 -82 l25 -49 -22 -17 c-26 -22 -107 -34 -160 -25 -112 19 -146
103 -72 176 40 41 92 40 156 -3z"/>
<path d="M10686 4959 c-19 -15 -26 -30 -26 -54 0 -36 36 -75 70 -75 10 0 29 9
44 21 34 27 35 71 1 104 -30 30 -54 31 -89 4z"/>
<path d="M2320 4930 c-26 -26 -26 -81 -2 -103 28 -25 87 -22 106 5 51 73 -42
160 -104 98z"/>
<path d="M5350 4932 c-81 -44 -120 -152 -82 -222 29 -52 112 -92 194 -93 138
-1 204 40 196 123 -13 135 -200 252 -308 192z m137 -63 c78 -38 135 -132 100
-166 -17 -17 -127 -29 -179 -19 -18 3 -46 17 -62 30 -38 30 -40 78 -7 125 39
54 80 63 148 30z"/>
<path d="M4114 4911 c-51 -31 -86 -85 -92 -141 -6 -67 21 -110 94 -146 49 -24
63 -26 137 -22 157 8 212 71 157 178 -61 120 -208 185 -296 131z m166 -75 c42
-28 94 -105 88 -133 -4 -22 -66 -41 -133 -42 -59 -1 -128 28 -145 59 -19 35
-4 85 37 120 31 28 42 31 75 27 22 -3 57 -17 78 -31z"/>
<path d="M8545 4875 c-40 -39 -29 -97 22 -116 36 -13 78 5 93 40 31 75 -58
134 -115 76z"/>
<path d="M6041 4844 c-12 -15 -21 -34 -21 -44 0 -10 9 -29 21 -44 41 -52 122
-23 122 44 0 67 -81 96 -122 44z"/>
<path d="M3546 4814 c-64 -64 24 -163 94 -106 29 23 31 73 5 102 -22 24 -77
27 -99 4z"/>
<path d="M7970 4760 c-45 -45 -11 -120 53 -120 42 0 67 26 67 68 0 41 -31 72
-70 72 -17 0 -39 -9 -50 -20z"/>
<path d="M4786 4749 c-36 -28 -36 -80 0 -108 15 -12 34 -21 44 -21 34 0 70 39
70 75 0 36 -36 75 -70 75 -10 0 -29 -9 -44 -21z"/>
<path d="M10092 4717 c-28 -30 -28 -68 1 -95 48 -45 120 -16 120 48 0 65 -76
95 -121 47z"/>
<path d="M7357 4642 c-40 -44 -7 -122 51 -122 60 0 94 78 52 120 -26 26 -81
26 -103 2z"/>
<path d="M9484 4626 c-83 -37 -121 -173 -69 -252 27 -41 98 -68 159 -59 93 12
216 93 230 151 15 56 -46 128 -133 159 -53 18 -145 19 -187 1z m167 -61 c53
-19 89 -51 89 -80 0 -41 -118 -108 -190 -108 -82 0 -121 64 -84 140 31 62 96
79 185 48z"/>
<path d="M10977 4589 c-48 -28 -40 -107 13 -129 58 -24 120 44 90 99 -20 38
-66 51 -103 30z"/>
<path d="M6750 4537 c-52 -26 -49 -104 4 -128 36 -17 73 -3 92 32 19 38 6 80
-32 98 -31 14 -33 14 -64 -2z"/>
<path d="M817 4473 c-9 -2 -24 -18 -33 -35 -19 -37 -5 -80 32 -97 37 -16 52
-14 79 14 58 57 3 139 -78 118z"/>
<path d="M6166 4449 c-46 -36 -26 -110 34 -124 38 -9 80 27 80 68 0 38 -7 50
-37 66 -31 16 -47 14 -77 -10z"/>
<path d="M10590 4410 c-26 -26 -26 -81 0 -105 29 -26 79 -24 102 4 27 34 23
75 -8 100 -34 26 -68 27 -94 1z"/>
<path d="M5542 4373 c-51 -43 -24 -123 41 -123 38 0 50 7 66 37 17 33 14 51
-14 78 -28 29 -65 32 -93 8z"/>
<path d="M8899 4361 c-28 -23 -32 -83 -6 -108 25 -26 85 -22 108 6 26 32 24
67 -6 96 -29 30 -64 32 -96 6z"/>
<path d="M1591 4344 c-12 -15 -21 -34 -21 -44 0 -34 39 -70 75 -70 36 0 75 36
75 70 0 34 -39 70 -75 70 -24 0 -39 -7 -54 -26z"/>
<path d="M2280 4330 c-11 -11 -20 -33 -20 -50 0 -17 9 -39 20 -50 11 -11 33
-20 50 -20 17 0 39 9 50 20 11 11 20 33 20 50 0 17 -9 39 -20 50 -11 11 -33
20 -50 20 -17 0 -39 -9 -50 -20z"/>
<path d="M4841 4324 c-12 -15 -21 -34 -21 -44 0 -34 39 -70 75 -70 36 0 75 36
75 70 0 34 -39 70 -75 70 -24 0 -39 -7 -54 -26z"/>
<path d="M8225 4331 c-11 -5 -33 -21 -48 -37 -100 -100 -70 -228 62 -272 43
-15 139 -15 197 -1 51 13 94 57 94 97 0 65 -88 176 -165 208 -37 15 -108 18
-140 5z m109 -61 c68 -26 151 -135 125 -166 -26 -31 -137 -44 -200 -23 -76 26
-100 82 -60 143 34 51 81 67 135 46z"/>
<path d="M4160 4317 c-76 -38 -28 -154 55 -133 29 7 56 56 48 87 -11 41 -65
65 -103 46z"/>
<path d="M2901 4284 c-12 -15 -21 -34 -21 -44 0 -34 39 -70 75 -70 36 0 75 36
75 70 0 34 -39 70 -75 70 -24 0 -39 -7 -54 -26z"/>
<path d="M3501 4284 c-12 -15 -21 -34 -21 -44 0 -34 39 -70 75 -70 36 0 75 36
75 70 0 34 -39 70 -75 70 -24 0 -39 -7 -54 -26z"/>
<path d="M10200 4277 c-52 -26 -49 -104 5 -129 58 -26 119 33 95 91 -6 16 -23
33 -36 40 -31 14 -33 14 -64 -2z"/>
<path d="M9810 4147 c-52 -26 -49 -104 5 -129 58 -26 119 33 95 91 -6 16 -23
33 -36 40 -31 14 -33 14 -64 -2z"/>
<path d="M7030 4059 c-35 -14 -69 -48 -91 -91 -62 -121 33 -232 196 -232 80 0
157 24 180 57 48 68 -31 204 -149 258 -45 20 -97 23 -136 8z m115 -68 c62 -29
125 -105 125 -152 0 -18 -69 -39 -130 -39 -96 0 -160 38 -160 96 0 28 40 86
70 101 33 17 48 16 95 -6z"/>
<path d="M7693 4060 c-46 -19 -57 -83 -20 -118 48 -45 117 -14 117 51 0 51
-50 86 -97 67z"/>
<path d="M9396 4019 c-52 -41 -23 -122 44 -122 67 0 96 81 44 122 -15 12 -34
21 -44 21 -10 0 -29 -9 -44 -21z"/>
<path d="M9000 3900 c-43 -43 -11 -120 50 -120 38 0 70 32 70 70 0 38 -32 70
-70 70 -17 0 -39 -9 -50 -20z"/>
<path d="M5872 3842 c-102 -30 -158 -177 -96 -252 45 -53 98 -74 189 -74 66
-1 89 4 130 24 42 21 52 31 59 62 8 31 5 45 -18 92 -52 107 -172 174 -264 148z
m123 -83 c42 -25 71 -58 89 -100 20 -49 7 -65 -67 -78 -159 -29 -261 66 -177
163 44 49 91 54 155 15z"/>
<path d="M6475 3795 c-14 -13 -25 -36 -25 -50 0 -28 40 -75 64 -75 30 0 65 23
76 50 20 49 -19 99 -78 100 -7 0 -24 -11 -37 -25z"/>
<path d="M8603 3795 c-49 -21 -58 -71 -18 -110 45 -46 118 -19 118 43 0 58
-47 89 -100 67z"/>
<path d="M997 3785 c-48 -17 -74 -40 -98 -87 -25 -49 -24 -112 1 -154 41 -66
165 -99 276 -75 101 23 134 78 96 163 -50 113 -182 187 -275 153z m139 -87
c58 -39 105 -118 85 -142 -17 -21 -115 -39 -165 -32 -114 17 -151 102 -76 177
40 41 92 40 156 -3z"/>
<path d="M553 3758 c-81 -39 -20 -167 62 -130 55 25 58 100 5 127 -33 17 -37
17 -67 3z"/>
<path d="M4573 3700 c-88 -45 -129 -159 -81 -230 86 -130 388 -111 388 25 0
48 -30 103 -79 148 -81 73 -158 92 -228 57z m138 -66 c35 -18 97 -88 105 -120
9 -35 -10 -51 -74 -64 -94 -17 -185 14 -206 72 -13 36 20 98 64 120 35 18 64
16 111 -8z"/>
<path d="M8190 3690 c-61 -61 27 -154 98 -104 28 20 31 83 4 107 -25 23 -78
21 -102 -3z"/>
<path d="M5250 3680 c-26 -26 -26 -81 -2 -103 28 -25 87 -22 106 5 51 73 -42
160 -104 98z"/>
<path d="M2205 3678 c-35 -19 -66 -52 -86 -90 -61 -118 33 -228 195 -228 131
0 196 35 196 106 0 106 -126 224 -240 223 -25 0 -54 -5 -65 -11z m150 -78 c48
-30 87 -83 88 -122 2 -29 -2 -34 -33 -45 -53 -18 -139 -15 -187 7 -75 33 -81
94 -17 158 31 31 39 34 74 29 22 -3 55 -15 75 -27z"/>
<path d="M3320 3621 c-84 -44 -125 -163 -78 -230 35 -52 104 -83 185 -85 130
-2 203 38 203 111 0 97 -134 222 -240 223 -19 0 -51 -8 -70 -19z m139 -67 c38
-19 62 -40 82 -72 33 -52 36 -74 14 -92 -22 -18 -154 -25 -198 -11 -42 14 -77
53 -77 86 0 46 65 114 111 115 8 0 39 -12 68 -26z"/>
<path d="M9472 3604 c-16 -11 -22 -25 -22 -54 0 -29 6 -43 22 -54 51 -36 118
-5 118 54 0 59 -67 90 -118 54z"/>
<path d="M1632 3590 c-48 -45 -16 -123 50 -123 61 0 91 78 45 121 -29 28 -67
28 -95 2z"/>
<path d="M4015 3585 c-46 -46 -19 -118 44 -118 66 0 98 76 51 123 -27 27 -66
25 -95 -5z"/>
<path d="M7765 3585 c-46 -46 -19 -118 44 -118 66 0 98 76 51 123 -27 27 -66
25 -95 -5z"/>
<path d="M7406 3539 c-19 -15 -26 -30 -26 -54 0 -37 37 -75 72 -75 27 0 68 45
68 75 0 30 -41 75 -68 75 -11 0 -31 -9 -46 -21z"/>
<path d="M2829 3512 c-28 -23 -30 -73 -4 -102 24 -26 79 -26 105 0 63 63 -31
158 -101 102z"/>
<path d="M10110 3503 c-76 -27 -58 -143 21 -143 55 0 92 87 52 122 -22 19 -53
28 -73 21z"/>
<path d="M10720 3460 c-26 -26 -26 -81 0 -105 29 -26 79 -24 102 4 27 34 23
75 -8 100 -34 26 -68 27 -94 1z"/>
<path d="M7010 3457 c-52 -26 -49 -104 5 -129 58 -26 119 33 95 91 -6 16 -23
33 -36 40 -31 14 -33 14 -64 -2z"/>
<path d="M6593 3378 c-27 -13 -43 -55 -32 -84 9 -26 47 -54 72 -54 26 0 67 45
67 75 0 30 -41 75 -67 74 -10 0 -28 -5 -40 -11z"/>
<path d="M7929 3366 c-37 -18 -56 -59 -41 -90 25 -56 101 -59 131 -5 31 56
-33 124 -90 95z"/>
<path d="M306 3329 c-50 -39 -22 -122 42 -122 66 0 98 78 50 123 -28 26 -58
26 -92 -1z"/>
<path d="M725 3290 c-42 -47 -8 -120 55 -120 33 0 70 40 70 76 0 57 -86 87
-125 44z"/>
<path d="M6175 3285 c-40 -39 -29 -95 22 -113 78 -27 136 76 70 123 -31 22
-65 18 -92 -10z"/>
<path d="M1145 3255 c-39 -38 -32 -86 16 -110 76 -40 146 71 76 120 -31 22
-65 18 -92 -10z"/>
<path d="M5741 3244 c-24 -30 -26 -46 -10 -77 16 -30 28 -37 66 -37 41 0 77
42 68 80 -14 60 -88 80 -124 34z"/>
<path d="M1633 3235 c-49 -21 -59 -77 -20 -113 48 -45 117 -14 117 51 0 54
-46 83 -97 62z"/>
<path d="M5346 3199 c-52 -41 -23 -122 44 -122 67 0 96 81 44 122 -15 12 -34
21 -44 21 -10 0 -29 -9 -44 -21z"/>
<path d="M7505 3195 c-29 -28 -32 -65 -7 -93 43 -52 122 -24 122 44 0 68 -68
97 -115 49z"/>
<path d="M8755 3195 c-29 -28 -32 -65 -7 -93 43 -52 122 -24 122 44 0 68 -68
97 -115 49z"/>
<path d="M9316 3190 c-71 -22 -135 -125 -122 -194 21 -111 202 -170 342 -111
48 20 63 41 64 88 1 123 -169 253 -284 217z m131 -86 c45 -30 93 -96 93 -130
0 -29 -54 -48 -136 -48 -102 1 -168 56 -143 121 31 84 108 107 186 57z"/>
<path d="M2155 3168 c-50 -27 -59 -75 -20 -113 29 -30 64 -32 96 -7 59 48 -9
157 -76 120z"/>
<path d="M4953 3158 c-68 -33 -39 -138 38 -138 28 0 69 44 69 73 0 51 -61 88
-107 65z"/>
<path d="M2617 3102 c-40 -45 -6 -122 53 -122 17 0 39 9 50 20 45 45 11 120
-53 120 -20 0 -41 -8 -50 -18z"/>
<path d="M4530 3090 c-27 -27 -25 -66 5 -95 29 -30 64 -32 96 -7 28 23 30 73
4 102 -24 26 -79 26 -105 0z"/>
<path d="M3146 3069 c-36 -28 -36 -80 0 -108 15 -12 34 -21 44 -21 34 0 70 39
70 75 0 36 -36 75 -70 75 -10 0 -29 -9 -44 -21z"/>
<path d="M4105 3065 c-58 -57 1 -146 76 -115 35 15 53 57 40 93 -19 51 -77 62
-116 22z"/>
<path d="M10533 3070 c-38 -23 -80 -83 -89 -127 -14 -69 44 -150 123 -172 49
-14 147 -14 197 0 89 25 113 103 57 191 -69 108 -204 159 -288 108z m146 -59
c67 -35 123 -115 108 -155 -8 -19 -69 -36 -132 -36 -58 0 -110 23 -138 61 -17
23 -18 31 -7 63 15 45 63 86 101 86 16 0 47 -9 68 -19z"/>
<path d="M3610 3050 c-26 -26 -26 -81 -2 -103 44 -40 122 -7 122 51 0 62 -77
95 -120 52z"/>
<path d="M7135 3040 c-41 -45 -10 -120 50 -120 38 0 75 35 75 71 0 60 -85 93
-125 49z"/>
<path d="M9987 3002 c-23 -25 -21 -78 3 -102 43 -43 120 -11 120 50 0 17 -9
39 -20 50 -26 26 -81 26 -103 2z"/>
<path d="M6753 2905 c-70 -49 0 -160 76 -120 48 24 55 72 16 110 -27 28 -61
32 -92 10z"/>
<path d="M8146 2769 c-52 -41 -23 -122 44 -122 67 0 96 81 44 122 -15 12 -34
21 -44 21 -10 0 -29 -9 -44 -21z"/>
<path d="M6360 2767 c-52 -26 -49 -104 4 -128 81 -37 138 73 64 125 -27 19
-35 20 -68 3z"/>
<path d="M3765 2725 c-28 -27 -30 -42 -14 -79 32 -69 139 -38 139 40 0 24 -47
64 -75 64 -14 0 -37 -11 -50 -25z"/>
<path d="M1590 2640 c-42 -42 -12 -120 48 -120 46 0 72 25 72 70 0 29 -6 43
-22 54 -31 22 -74 20 -98 -4z"/>
<path d="M905 2638 c-32 -17 -76 -61 -91 -90 -8 -15 -14 -48 -14 -74 0 -42 5
-51 43 -89 83 -83 261 -101 333 -34 67 63 -13 235 -133 286 -39 16 -110 17
-138 1z m154 -86 c40 -32 81 -96 81 -128 0 -35 -25 -47 -98 -47 -74 0 -127 17
-161 54 -33 36 -27 75 19 121 37 37 44 40 81 35 24 -3 56 -18 78 -35z"/>
<path d="M5970 2637 c-13 -7 -29 -25 -34 -39 -29 -83 94 -137 128 -56 17 39
11 63 -22 88 -29 23 -38 24 -72 7z"/>
<path d="M8770 2643 c-53 -19 -68 -86 -28 -123 63 -58 157 33 101 98 -20 23
-50 33 -73 25z"/>
<path d="M3317 2563 c-9 -2 -24 -18 -33 -35 -19 -37 -5 -80 32 -97 37 -16 52
-14 79 14 58 57 3 139 -78 118z"/>
<path d="M9346 2528 c-50 -71 43 -159 104 -98 26 26 26 81 2 103 -28 25 -87
22 -106 -5z"/>
<path d="M5550 2520 c-26 -26 -26 -81 -2 -103 25 -23 78 -21 102 3 43 43 11
120 -50 120 -17 0 -39 -9 -50 -20z"/>
<path d="M10020 2513 c-53 -19 -68 -86 -28 -123 63 -58 157 33 101 98 -20 23
-50 33 -73 25z"/>
<path d="M10628 2504 c-51 -27 -46 -101 7 -126 58 -26 119 33 95 91 -6 16 -23
33 -36 40 -31 14 -33 14 -66 -5z"/>
<path d="M6977 2460 c-19 -15 -27 -30 -27 -53 0 -38 7 -50 37 -66 33 -17 51
-14 78 14 63 63 -18 160 -88 105z"/>
<path d="M360 2400 c-63 -63 31 -158 101 -102 28 23 30 73 4 102 -24 26 -79
26 -105 0z"/>
<path d="M5141 2384 c-12 -15 -21 -34 -21 -44 0 -34 39 -70 75 -70 36 0 75 36
75 70 0 34 -39 70 -75 70 -24 0 -39 -7 -54 -26z"/>
<path d="M2792 2380 c-50 -47 -6 -140 58 -125 60 14 80 88 34 124 -34 27 -64
27 -92 1z"/>
<path d="M7591 2294 c-41 -53 -13 -114 52 -114 42 0 70 29 70 72 0 64 -83 92
-122 42z"/>
<path d="M4756 2287 c-15 -15 -26 -38 -26 -52 0 -14 11 -37 26 -52 20 -20 31
-24 57 -19 43 9 61 29 61 71 0 42 -18 62 -61 71 -26 5 -37 1 -57 -19z"/>
<path d="M2220 2253 c-53 -19 -68 -86 -28 -123 63 -59 157 32 101 98 -20 23
-50 33 -73 25z"/>
<path d="M4347 2200 c-35 -28 -37 -80 -5 -110 29 -27 64 -25 93 5 63 63 -18
160 -88 105z"/>
<path d="M8195 2155 c-14 -13 -25 -36 -25 -50 0 -29 40 -75 65 -75 20 0 57 19
67 34 18 26 8 75 -18 95 -35 27 -59 26 -89 -4z"/>
<path d="M3959 2118 c-38 -13 -57 -62 -38 -97 32 -57 111 -49 132 13 17 51
-40 103 -94 84z"/>
<path d="M1615 2090 c-42 -46 -10 -120 51 -120 35 0 74 37 74 70 0 10 -9 29
-21 44 -26 33 -77 36 -104 6z"/>
<path d="M8813 2080 c-48 -19 -58 -87 -17 -119 34 -27 64 -27 92 -1 57 53 -3
149 -75 120z"/>
<path d="M5644 2039 c-32 -16 -48 -56 -34 -89 11 -27 46 -50 76 -50 23 0 64
47 64 73 0 51 -61 88 -106 66z"/>
<path d="M9440 2010 c-61 -61 27 -154 98 -104 28 20 31 83 4 107 -25 23 -78
21 -102 -3z"/>
<path d="M3545 1985 c-40 -39 -29 -97 22 -116 62 -23 119 40 89 99 -25 49 -72
56 -111 17z"/>
<path d="M10046 1989 c-34 -27 -35 -71 -1 -104 30 -30 54 -31 89 -4 19 15 26
30 26 54 0 36 -36 75 -70 75 -10 0 -29 -9 -44 -21z"/>
<path d="M10682 2003 c-7 -3 -19 -18 -28 -35 -13 -24 -13 -35 -4 -58 31 -74
140 -51 140 30 0 45 -63 81 -108 63z"/>
<path d="M1005 1945 c-39 -39 -32 -86 17 -111 59 -30 122 27 99 89 -19 51 -77
62 -116 22z"/>
<path d="M6250 1935 c-70 -32 -110 -94 -110 -171 0 -43 4 -51 44 -89 63 -61
144 -78 255 -54 104 22 133 80 86 174 -54 112 -187 179 -275 140z m158 -92
c20 -16 48 -50 62 -76 22 -42 23 -48 10 -62 -25 -25 -124 -38 -181 -25 -55 13
-99 52 -99 87 0 32 25 78 52 98 35 25 110 15 156 -22z"/>
<path d="M3142 1907 c-45 -48 -16 -120 48 -120 65 0 95 76 47 121 -30 28 -68
28 -95 -1z"/>
<path d="M2750 1830 c-11 -11 -20 -33 -20 -50 0 -17 9 -39 20 -50 11 -11 33
-20 50 -20 17 0 39 9 50 20 11 11 20 33 20 50 0 17 -9 39 -20 50 -11 11 -33
20 -50 20 -17 0 -39 -9 -50 -20z"/>
<path d="M410 1817 c-76 -38 -28 -154 55 -133 29 7 56 56 48 87 -11 41 -65 65
-103 46z"/>
<path d="M2350 1777 c-55 -28 -48 -110 13 -131 77 -27 124 80 55 128 -27 19
-35 20 -68 3z"/>
<path d="M7425 1725 c-73 -40 -110 -103 -102 -179 4 -41 11 -55 40 -82 73 -67
207 -80 307 -31 34 17 47 30 54 55 36 128 -182 300 -299 237z m136 -71 c35
-18 95 -89 104 -121 10 -41 -13 -55 -99 -61 -90 -6 -115 0 -155 34 -38 31 -40
67 -8 115 40 59 88 69 158 33z"/>
<path d="M6870 1680 c-43 -43 -11 -120 50 -120 38 0 70 32 70 70 0 38 -32 70
-70 70 -17 0 -39 -9 -50 -20z"/>
<path d="M1930 1660 c-11 -11 -20 -33 -20 -50 0 -17 9 -39 20 -50 11 -11 33
-20 50 -20 17 0 39 9 50 20 11 11 20 33 20 50 0 17 -9 39 -20 50 -11 11 -33
20 -50 20 -17 0 -39 -9 -50 -20z"/>
<path d="M4065 1605 c-28 -27 -31 -45 -14 -78 16 -30 28 -37 66 -37 35 0 73
37 73 72 0 27 -45 68 -75 68 -14 0 -37 -11 -50 -25z"/>
<path d="M1506 1599 c-19 -15 -26 -30 -26 -54 0 -36 36 -75 70 -75 34 0 70 39
70 75 0 36 -36 75 -70 75 -10 0 -29 -9 -44 -21z"/>
<path d="M8695 1564 c-5 -1 -22 -5 -37 -8 -41 -9 -95 -61 -114 -111 -42 -111
37 -202 187 -213 80 -5 171 18 194 50 21 31 19 91 -4 137 -19 37 -81 100 -119
120 -23 12 -93 29 -107 25z m68 -77 c62 -26 129 -121 114 -161 -8 -20 -106
-40 -159 -32 -93 14 -140 68 -114 130 28 67 90 91 159 63z"/>
<path d="M1143 1520 c-48 -20 -58 -87 -17 -119 34 -27 64 -27 92 -1 32 30 30
82 -4 109 -29 23 -38 24 -71 11z"/>
<path d="M9946 1520 c-70 -21 -135 -125 -122 -194 20 -105 168 -163 310 -122
73 22 96 44 96 96 0 85 -87 186 -183 215 -56 17 -60 17 -101 5z m113 -74 c37
-20 99 -89 107 -121 10 -40 -1 -53 -62 -65 -91 -19 -176 3 -210 55 -21 32 -13
64 27 110 26 29 38 35 71 35 21 0 51 -6 67 -14z"/>
<path d="M8120 1507 c-14 -7 -31 -25 -38 -40 -27 -56 35 -115 93 -89 55 25 58
100 5 127 -35 18 -29 18 -60 2z"/>
<path d="M701 1444 c-12 -15 -21 -35 -21 -46 0 -27 45 -68 75 -68 30 0 75 41
75 68 0 35 -38 72 -75 72 -24 0 -39 -7 -54 -26z"/>
<path d="M4442 1437 c-45 -48 -14 -117 51 -117 43 0 67 26 67 73 0 63 -74 91
-118 44z"/>
<path d="M9340 1440 c-26 -26 -26 -81 -2 -103 44 -40 122 -7 122 51 0 60 -78
94 -120 52z"/>
<path d="M10575 1385 c-28 -27 -30 -42 -14 -79 16 -34 58 -51 91 -35 26 11 48
46 48 75 0 24 -47 64 -75 64 -14 0 -37 -11 -50 -25z"/>
<path d="M293 1388 c-51 -24 -50 -106 1 -129 83 -38 147 84 66 126 -33 17 -37
17 -67 3z"/>
<path d="M4831 1304 c-41 -53 -13 -114 52 -114 42 0 70 29 70 72 0 64 -83 92
-122 42z"/>
<path d="M1510 1230 c-61 -61 27 -154 98 -104 28 20 31 83 4 107 -25 23 -78
21 -102 -3z"/>
<path d="M5253 1218 c-68 -33 -39 -138 38 -138 28 0 69 44 69 73 0 51 -61 88
-107 65z"/>
<path d="M5625 1100 c-41 -45 -10 -120 50 -120 38 0 75 35 75 71 0 58 -87 91
-125 49z"/>
<path d="M599 1087 c-62 -42 -100 -122 -85 -182 10 -41 63 -92 113 -109 91
-31 245 -11 278 37 25 35 19 97 -14 149 -71 112 -208 162 -292 105z m144 -53
c63 -32 117 -98 117 -143 0 -31 -38 -45 -125 -46 -87 0 -120 13 -151 60 -21
32 -5 84 37 120 35 29 76 32 122 9z"/>
<path d="M4665 1085 c-39 -38 -32 -86 16 -110 76 -40 146 71 76 120 -31 22
-65 18 -92 -10z"/>
<path d="M2920 1050 c-26 -26 -26 -81 -2 -103 44 -40 122 -7 122 51 0 60 -78
94 -120 52z"/>
<path d="M4127 1022 c-40 -44 -7 -122 51 -122 59 0 92 67 56 118 -20 28 -83
31 -107 4z"/>
<path d="M6026 1018 c-50 -71 43 -159 104 -98 26 26 26 81 2 103 -28 25 -87
22 -106 -5z"/>
<path d="M2251 1004 c-12 -15 -21 -34 -21 -44 0 -34 39 -70 75 -70 36 0 75 36
75 70 0 34 -39 70 -75 70 -24 0 -39 -7 -54 -26z"/>
<path d="M3541 1004 c-27 -34 -27 -64 -1 -92 47 -50 140 -6 125 58 -14 60 -88
80 -124 34z"/>
<path d="M6435 955 c-39 -39 -32 -86 17 -111 59 -30 122 27 99 89 -19 51 -77
62 -116 22z"/>
<path d="M6852 917 c-45 -48 -17 -117 47 -117 46 0 71 24 71 68 0 65 -74 96
-118 49z"/>
<path d="M7271 882 c-28 -22 -31 -75 -6 -102 24 -26 79 -26 105 0 62 62 -31
158 -99 102z"/>
<path d="M7685 865 c-40 -39 -29 -97 22 -116 58 -22 116 36 94 94 -19 51 -77
62 -116 22z"/>
<path d="M8090 830 c-26 -26 -26 -81 0 -105 29 -26 79 -24 102 4 25 32 23 67
-7 96 -29 30 -68 32 -95 5z"/>
<path d="M8527 838 c-41 -32 -38 -94 6 -123 46 -30 107 6 107 63 0 51 -73 90
-113 60z"/>
<path d="M8926 829 c-50 -39 -22 -122 42 -122 66 0 98 78 50 123 -28 26 -58
26 -92 -1z"/>
<path d="M9340 830 c-26 -26 -26 -81 0 -105 29 -26 79 -24 102 4 25 32 23 67
-7 96 -29 30 -68 32 -95 5z"/>
<path d="M9786 829 c-50 -39 -22 -122 42 -122 66 0 98 78 50 123 -28 26 -58
26 -92 -1z"/>
<path d="M10207 818 c-37 -33 -40 -75 -7 -108 27 -27 66 -25 95 5 29 28 32 65
8 93 -28 33 -66 37 -96 10z"/>
<path d="M10623 830 c-48 -19 -58 -87 -17 -119 34 -27 64 -27 92 -1 57 53 -3
149 -75 120z"/>
<path d="M1391 794 c-12 -15 -21 -34 -21 -44 0 -34 39 -70 75 -70 36 0 75 36
75 70 0 34 -39 70 -75 70 -24 0 -39 -7 -54 -26z"/>
<path d="M11030 800 c-43 -43 -11 -120 50 -120 38 0 70 32 70 70 0 38 -32 70
-70 70 -17 0 -39 -9 -50 -20z"/>
<path d="M1956 760 c-61 -19 -126 -108 -126 -173 0 -107 153 -182 299 -147 74
18 111 51 111 101 0 84 -87 186 -183 214 -56 17 -60 17 -101 5z m112 -74 c15
-8 41 -29 58 -48 90 -96 66 -141 -75 -142 -74 -1 -125 21 -150 66 -18 31 -4
72 36 113 30 29 87 34 131 11z"/>
<path d="M6166 699 c-50 -39 -22 -122 42 -122 66 0 98 78 50 123 -28 26 -58
26 -92 -1z"/>
<path d="M5331 643 c-36 -18 -86 -87 -96 -134 -15 -66 44 -147 122 -168 90
-25 225 -7 264 36 62 65 -11 208 -135 264 -51 23 -111 24 -155 2z m138 -62
c67 -35 123 -115 108 -155 -12 -31 -145 -47 -204 -25 -81 30 -98 101 -39 163
39 42 76 47 135 17z"/>
<path d="M5776 609 c-19 -15 -26 -30 -26 -54 0 -36 36 -75 70 -75 34 0 70 39
70 75 0 36 -36 75 -70 75 -10 0 -29 -9 -44 -21z"/>
<path d="M3169 567 c-63 -42 -100 -122 -84 -184 9 -39 74 -99 120 -112 22 -6
67 -11 100 -11 161 0 221 69 164 186 -56 116 -213 180 -300 121z m156 -60 c52
-29 107 -102 103 -136 -2 -20 -12 -29 -38 -38 -56 -19 -138 -16 -186 7 -76 37
-81 107 -12 165 37 31 80 32 133 2z"/>
<path d="M10165 578 c-36 -19 -67 -52 -87 -92 -41 -80 -6 -164 87 -207 80 -37
255 -17 290 34 19 27 19 78 1 121 -19 46 -88 113 -139 137 -47 21 -121 24
-152 7z m147 -77 c55 -35 90 -82 92 -124 1 -28 -3 -33 -34 -44 -53 -18 -139
-15 -186 6 -75 34 -81 108 -12 166 39 33 83 32 140 -4z"/>
<path d="M2620 540 c-43 -43 -11 -120 50 -120 38 0 70 32 70 70 0 38 -32 70
-70 70 -17 0 -39 -9 -50 -20z"/>
<path d="M4305 546 c-66 -29 -124 -126 -111 -188 20 -98 151 -157 289 -128 78
16 117 50 117 100 0 21 -4 50 -10 64 -16 43 -92 118 -145 142 -56 27 -96 29
-140 10z m140 -81 c49 -28 85 -75 92 -119 5 -32 3 -34 -33 -46 -96 -32 -215
-5 -243 54 -13 27 -12 34 10 74 39 74 91 84 174 37z"/>
<path d="M4900 490 c-26 -26 -26 -81 -2 -103 44 -40 122 -7 122 51 0 60 -78
94 -120 52z"/>
<path d="M7450 490 c-24 -24 -26 -67 -4 -98 11 -16 25 -22 54 -22 29 0 43 6
54 22 36 51 5 118 -54 118 -17 0 -39 -9 -50 -20z"/>
<path d="M3832 453 c-7 -3 -19 -18 -27 -33 -40 -77 71 -147 120 -77 42 60 -24
138 -93 110z"/>
<path d="M8700 410 c-43 -43 -11 -120 50 -120 38 0 70 32 70 70 0 38 -32 70
-70 70 -17 0 -39 -9 -50 -20z"/>
<path d="M7035 355 c-48 -47 -19 -115 48 -115 42 0 70 29 70 72 0 62 -73 89
-118 43z"/>
<path d="M547 332 c-40 -44 -7 -122 51 -122 60 0 94 78 52 120 -26 26 -81 26
-103 2z"/>
<path d="M9650 240 c-43 -43 -11 -120 50 -120 38 0 70 32 70 70 0 38 -32 70
-70 70 -17 0 -39 -9 -50 -20z"/>
<path d="M6565 225 c-28 -27 -31 -45 -14 -78 16 -30 28 -37 66 -37 35 0 73 37
73 72 0 27 -45 68 -75 68 -14 0 -37 -11 -50 -25z"/>
<path d="M1147 202 c-25 -28 -22 -87 5 -106 71 -50 159 43 98 104 -26 26 -81
26 -103 2z"/>
<path d="M8140 190 c-24 -24 -26 -67 -4 -98 21 -31 87 -31 108 0 36 51 5 118
-54 118 -17 0 -39 -9 -50 -20z"/>
</g>
</svg>
