<?xml version="1.0" standalone="no"?>
<!DOCTYPE svg PUBLIC "-//W3C//DTD SVG 20010904//EN"
 "http://www.w3.org/TR/2001/REC-SVG-20010904/DTD/svg10.dtd">
<svg version="1.0" xmlns="http://www.w3.org/2000/svg"
 width="1811.000000pt" height="1217.000000pt" viewBox="0 0 1811.000000 1217.000000"
 preserveAspectRatio="xMidYMid meet">
<metadata>
Created by potrace 1.13, written by Peter Selinger 2001-2015
</metadata>
<g transform="translate(0.000000,1217.000000) scale(0.100000,-0.100000)"
fill="#000000" stroke="none">
<path d="M450 11943 c0 -5 85 -123 189 -263 l189 -255 -149 -3 -149 -3 0 -24
0 -25 200 0 200 0 -79 108 c-44 59 -129 175 -190 257 -61 83 -111 153 -111
158 0 4 74 7 165 7 l165 0 0 25 0 25 -215 0 c-118 0 -215 -3 -215 -7z"/>
<path d="M1730 11945 c0 -3 85 -121 189 -263 l190 -257 -147 -5 c-143 -5 -147
-6 -150 -27 l-3 -23 201 0 c192 0 201 1 188 18 -7 10 -93 127 -190 259 -98
133 -178 244 -178 247 0 3 74 6 165 6 l165 0 0 25 0 25 -215 0 c-118 0 -215
-2 -215 -5z"/>
<path d="M3010 11945 c0 -2 86 -121 190 -262 l190 -258 -145 -3 -145 -3 0 -24
0 -25 196 0 c156 0 194 3 187 13 -51 65 -373 507 -373 512 0 3 74 5 165 5
l165 0 0 25 0 25 -215 0 c-118 0 -215 -2 -215 -5z"/>
<path d="M4270 11945 c0 -2 86 -120 190 -262 l191 -258 -146 -3 -145 -3 0 -24
0 -25 196 0 195 0 -23 33 c-12 17 -98 134 -190 259 -93 125 -168 230 -168 233
0 3 74 5 165 5 l165 0 0 25 0 25 -215 0 c-118 0 -215 -2 -215 -5z"/>
<path d="M5540 11947 c0 -2 86 -120 191 -263 l190 -259 -145 -3 -146 -3 0 -24
0 -25 196 0 c153 0 194 3 188 13 -5 6 -90 124 -191 260 -101 136 -183 250
-183 252 0 3 74 5 165 5 l165 0 0 25 0 25 -215 0 c-118 0 -215 -2 -215 -3z"/>
<path d="M6826 11938 c5 -7 91 -124 191 -261 101 -136 183 -249 183 -252 0 -3
-65 -5 -145 -5 l-145 0 0 -25 0 -25 196 0 196 0 -15 24 c-9 12 -95 131 -192
262 l-176 239 171 3 c171 2 171 3 168 25 -3 22 -4 22 -221 25 -175 2 -217 0
-211 -10z"/>
<path d="M8132 11918 c99 -132 358 -487 358 -492 0 -3 -65 -6 -145 -6 l-145 0
0 -25 0 -25 195 0 c107 0 195 2 195 5 0 3 -85 121 -189 262 l-190 258 170 3
169 2 0 25 0 25 -221 0 -221 0 24 -32z"/>
<path d="M9400 11943 c0 -5 85 -123 188 -263 l188 -255 -148 -3 -148 -3 0 -24
0 -25 195 0 c107 0 195 3 195 6 0 3 -81 117 -181 252 -99 134 -183 251 -186
258 -4 12 25 14 161 14 l166 0 0 25 0 25 -215 0 c-118 0 -215 -3 -215 -7z"/>
<path d="M10680 11943 c1 -5 86 -123 189 -263 l189 -255 -149 -3 -149 -3 0
-24 0 -25 200 0 200 0 -49 68 c-27 37 -113 153 -190 257 -77 105 -141 193
-141 198 0 4 74 7 165 7 l165 0 0 25 0 25 -215 0 c-118 0 -215 -3 -215 -7z"/>
<path d="M11940 11945 c0 -3 85 -122 189 -263 l189 -257 -149 -3 -149 -3 0
-24 0 -25 201 0 201 0 -24 33 c-92 120 -358 486 -358 491 0 3 74 6 165 6 l165
0 0 25 0 25 -215 0 c-118 0 -215 -2 -215 -5z"/>
<path d="M13210 11945 c0 -2 85 -120 190 -262 l189 -258 -144 -3 -145 -3 0
-24 0 -25 196 0 196 0 -24 33 c-99 130 -358 487 -358 492 0 3 74 5 165 5 l165
0 0 25 0 25 -215 0 c-118 0 -215 -2 -215 -5z"/>
<path d="M14503 11926 c9 -12 95 -131 192 -262 l176 -239 -145 -3 -146 -3 0
-24 0 -25 196 0 c154 0 194 3 187 13 -4 6 -90 123 -190 260 -101 136 -183 249
-183 252 0 3 74 5 165 5 l165 0 0 25 0 25 -216 0 -216 0 15 -24z"/>
<path d="M15786 11938 c5 -7 91 -124 191 -261 101 -136 183 -249 183 -252 0
-3 -65 -5 -145 -5 l-145 0 0 -25 0 -25 195 0 c107 0 195 2 195 3 0 2 -86 120
-190 263 l-191 259 171 3 c171 2 171 3 168 25 -3 22 -4 22 -221 25 -175 2
-217 0 -211 -10z"/>
<path d="M17067 11938 c51 -66 373 -508 373 -513 0 -3 -65 -5 -145 -5 l-145 0
0 -25 0 -25 195 0 c107 0 195 2 195 5 0 2 -85 120 -190 262 l-190 258 170 3
170 2 0 25 0 25 -221 0 c-176 0 -219 -3 -212 -12z"/>
<path d="M1070 10683 c0 -5 85 -123 189 -263 l188 -255 -149 -3 -148 -3 0 -24
0 -25 195 0 c107 0 195 3 195 8 0 4 -84 119 -185 257 -102 137 -185 253 -185
257 0 5 74 8 165 8 l165 0 0 25 0 25 -215 0 c-118 0 -215 -3 -215 -7z"/>
<path d="M2350 10683 c1 -5 86 -123 189 -263 l189 -255 -146 -5 c-143 -5 -147
-6 -150 -27 l-3 -23 200 0 201 0 -49 68 c-27 37 -113 153 -190 257 -77 105
-141 193 -141 198 0 4 74 7 165 7 l165 0 0 25 0 25 -215 0 c-118 0 -215 -3
-215 -7z"/>
<path d="M3610 10685 c0 -3 85 -122 189 -263 l189 -257 -144 -3 -144 -3 0 -24
0 -25 196 0 196 0 -24 33 c-92 120 -358 486 -358 491 0 3 74 6 165 6 l165 0 0
25 0 25 -215 0 c-118 0 -215 -2 -215 -5z"/>
<path d="M4880 10685 c0 -3 85 -121 190 -263 l189 -257 -144 -3 -145 -3 0 -24
0 -25 196 0 196 0 -24 33 c-123 164 -358 486 -358 491 0 3 74 6 165 6 l165 0
0 25 0 25 -215 0 c-118 0 -215 -2 -215 -5z"/>
<path d="M6173 10666 c9 -12 95 -131 192 -262 l176 -239 -145 -3 -146 -3 0
-24 0 -25 196 0 c154 0 194 3 187 13 -4 6 -90 123 -190 260 -101 136 -183 249
-183 252 0 3 74 5 165 5 l165 0 0 25 0 25 -216 0 -216 0 15 -24z"/>
<path d="M7456 10678 c5 -7 90 -125 191 -261 101 -136 183 -250 183 -252 0 -3
-65 -5 -145 -5 l-145 0 0 -25 0 -25 195 0 c107 0 195 2 195 4 0 2 -86 120
-191 262 l-190 259 171 3 c171 2 171 3 168 25 -3 22 -4 22 -221 25 -175 2
-217 0 -211 -10z"/>
<path d="M8744 10675 c3 -8 87 -125 186 -260 99 -134 180 -247 180 -250 0 -3
-65 -5 -145 -5 l-145 0 0 -25 0 -25 195 0 c107 0 195 2 195 5 0 2 -86 121
-190 262 l-190 258 170 3 170 2 0 25 0 25 -216 0 c-188 0 -215 -2 -210 -15z"/>
<path d="M10020 10682 c0 -4 85 -122 188 -262 l188 -255 -148 -3 -148 -3 0
-24 0 -25 195 0 c107 0 195 3 195 6 0 3 -81 116 -181 251 -99 134 -183 251
-186 259 -4 12 20 14 161 14 l166 0 0 25 0 25 -215 0 c-118 0 -215 -3 -215 -8z"/>
<path d="M11280 10683 c0 -5 85 -123 188 -263 l188 -255 -148 -3 -148 -3 0
-24 0 -25 195 0 c107 0 195 3 195 6 0 3 -81 117 -181 252 -99 134 -183 251
-186 258 -4 12 25 14 161 14 l166 0 0 25 0 25 -215 0 c-118 0 -215 -3 -215 -7z"/>
<path d="M12550 10683 c0 -5 85 -123 189 -263 l189 -255 -147 -5 c-142 -5
-146 -6 -149 -27 l-3 -23 200 0 201 0 -79 108 c-44 59 -129 175 -190 257 -61
83 -111 153 -111 158 0 4 74 7 165 7 l165 0 0 25 0 25 -215 0 c-118 0 -215 -3
-215 -7z"/>
<path d="M13830 10685 c0 -3 85 -121 189 -263 l190 -257 -145 -3 -144 -3 0
-24 0 -25 196 0 196 0 -24 33 c-99 131 -358 486 -358 491 0 3 74 6 165 6 l165
0 0 25 0 25 -215 0 c-118 0 -215 -2 -215 -5z"/>
<path d="M15133 10666 c9 -12 95 -131 192 -262 l176 -239 -145 -3 -146 -3 0
-24 0 -25 196 0 c154 0 194 3 187 13 -4 6 -90 123 -190 260 -101 136 -183 249
-183 252 0 3 74 5 165 5 l165 0 0 25 0 25 -216 0 -216 0 15 -24z"/>
<path d="M16406 10678 c5 -7 91 -125 192 -263 l184 -250 -146 -3 -146 -3 0
-24 0 -25 196 0 c153 0 194 3 188 13 -5 6 -91 125 -192 262 l-184 250 172 3
c171 2 171 3 168 25 -3 22 -4 22 -221 25 -175 2 -217 0 -211 -10z"/>
<path d="M17702 10658 c12 -18 98 -135 190 -260 93 -125 168 -230 168 -233 0
-3 -65 -5 -145 -5 l-145 0 0 -25 0 -25 170 0 170 0 0 38 c0 34 -20 65 -165
263 l-165 224 165 3 165 2 0 25 0 25 -216 0 -215 0 23 -32z"/>
<path d="M0 10431 c0 -37 10 -55 80 -150 44 -60 80 -112 80 -115 0 -3 -36 -6
-80 -6 -79 0 -80 0 -80 -25 l0 -25 130 0 c72 0 130 2 130 5 0 5 -237 331 -256
354 -2 2 -4 -15 -4 -38z"/>
<path d="M450 9395 c0 -2 83 -117 185 -255 102 -138 185 -255 185 -260 0 -6
-59 -10 -146 -10 -145 0 -145 0 -142 -22 3 -23 4 -23 197 -26 168 -2 193 -1
188 13 -4 8 -87 125 -187 260 -99 135 -180 247 -180 250 0 3 74 5 165 5 l165
0 0 25 0 25 -215 0 c-118 0 -215 -2 -215 -5z"/>
<path d="M1730 9397 c0 -2 86 -120 191 -263 l190 -259 -150 -3 c-144 -2 -151
-4 -151 -23 0 -11 6 -22 13 -25 7 -2 97 -3 200 -2 l188 3 -191 258 c-104 142
-190 260 -190 262 0 3 74 5 165 5 l165 0 0 25 0 25 -215 0 c-118 0 -215 -2
-215 -3z"/>
<path d="M3017 9388 c4 -7 90 -124 190 -261 101 -136 183 -249 183 -252 0 -3
-65 -5 -145 -5 l-145 0 0 -25 0 -25 196 0 196 0 -15 24 c-9 12 -95 131 -192
262 l-176 239 165 3 166 2 0 25 0 25 -216 0 c-170 0 -214 -3 -207 -12z"/>
<path d="M4292 9368 c12 -18 98 -135 190 -260 93 -125 168 -230 168 -233 0 -3
-65 -5 -145 -5 l-145 0 0 -25 0 -25 195 0 c107 0 195 2 195 5 0 2 -86 120
-190 262 l-191 258 166 3 165 2 0 25 0 25 -216 0 -215 0 23 -32z"/>
<path d="M5562 9368 c123 -165 358 -487 358 -492 0 -3 -65 -6 -145 -6 l-145 0
0 -25 0 -25 195 0 c107 0 195 2 195 5 0 3 -85 121 -190 263 l-189 257 164 3
165 2 0 25 0 25 -216 0 -216 0 24 -32z"/>
<path d="M6877 9323 c190 -258 323 -442 323 -447 0 -3 -65 -6 -145 -6 l-145 0
0 -25 0 -25 195 0 c107 0 195 3 195 8 -1 4 -86 122 -189 262 l-189 255 169 3
169 2 0 25 0 25 -220 0 -221 0 58 -77z"/>
<path d="M8296 9149 c102 -138 188 -257 191 -265 4 -12 -20 -14 -141 -14
l-146 0 0 -25 0 -25 195 0 c107 0 195 3 195 8 0 4 -85 122 -188 262 l-188 255
168 3 168 2 0 25 0 25 -220 0 -219 0 185 -251z"/>
<path d="M9400 9395 c0 -3 83 -118 185 -256 102 -138 185 -255 185 -260 0 -5
-66 -9 -146 -9 -145 0 -145 0 -142 -22 3 -23 4 -23 197 -26 166 -2 193 0 188
12 -3 8 -87 125 -186 259 -100 135 -181 248 -181 251 0 3 74 6 165 6 l165 0 0
25 0 25 -215 0 c-118 0 -215 -2 -215 -5z"/>
<path d="M10693 9376 c9 -12 95 -131 192 -262 l176 -239 -150 -3 c-144 -2
-151 -4 -151 -23 0 -11 6 -22 13 -25 7 -2 97 -3 200 -2 l187 3 -190 258 c-104
141 -190 260 -190 262 0 3 74 5 165 5 l165 0 0 25 0 25 -216 0 -216 0 15 -24z"/>
<path d="M11940 9397 c0 -2 86 -120 191 -263 l190 -259 -150 -3 c-144 -2 -151
-4 -151 -23 0 -11 6 -22 13 -25 7 -2 97 -3 200 -2 l188 3 -191 258 c-104 142
-190 260 -190 262 0 3 74 5 165 5 l165 0 0 25 0 25 -215 0 c-118 0 -215 -2
-215 -3z"/>
<path d="M13216 9388 c5 -7 90 -125 191 -261 101 -136 183 -250 183 -252 0 -3
-65 -5 -145 -5 l-145 0 0 -25 0 -25 195 0 c107 0 195 2 195 3 0 2 -86 120
-191 263 l-190 259 165 3 166 2 0 25 0 25 -216 0 c-169 0 -214 -3 -208 -12z"/>
<path d="M14497 9388 c51 -66 373 -508 373 -513 0 -3 -65 -5 -145 -5 l-145 0
0 -25 0 -25 195 0 c107 0 195 2 195 5 0 2 -86 121 -190 262 l-190 258 165 3
165 2 0 25 0 25 -216 0 c-172 0 -214 -3 -207 -12z"/>
<path d="M15802 9368 c92 -121 358 -487 358 -492 0 -3 -65 -6 -145 -6 l-145 0
0 -25 0 -25 195 0 c107 0 195 3 195 8 -1 4 -86 122 -190 262 l-189 255 170 3
169 2 0 25 0 25 -221 0 -221 0 24 -32z"/>
<path d="M17232 9168 c94 -128 179 -244 189 -257 11 -13 19 -28 19 -32 0 -5
-65 -9 -145 -9 l-145 0 0 -25 0 -25 195 0 c107 0 195 3 195 8 0 4 -85 122
-189 262 l-188 255 169 3 168 2 0 25 0 25 -220 0 -220 0 172 -232z"/>
<path d="M1070 8115 c0 -3 85 -121 189 -263 l190 -257 -150 -3 -149 -3 0 -24
0 -25 201 0 201 0 -24 33 c-99 131 -358 486 -358 491 0 3 74 6 165 6 l165 0 0
25 0 25 -215 0 c-118 0 -215 -2 -215 -5z"/>
<path d="M2350 8115 c0 -2 86 -120 190 -262 l191 -258 -151 -3 c-150 -3 -151
-3 -148 -25 3 -22 5 -22 201 -25 l199 -2 -23 32 c-13 18 -99 135 -191 260 -93
125 -168 230 -168 233 0 3 74 5 165 5 l165 0 0 25 0 25 -215 0 c-118 0 -215
-2 -215 -5z"/>
<path d="M3623 8096 c9 -12 95 -131 192 -262 l176 -239 -145 -3 -146 -3 0 -24
0 -25 196 0 c154 0 194 3 187 13 -4 6 -90 123 -190 260 -101 136 -183 249
-183 252 0 3 74 5 165 5 l165 0 0 25 0 25 -216 0 -216 0 15 -24z"/>
<path d="M4886 8108 c5 -7 91 -125 192 -263 l184 -250 -146 -3 -146 -3 0 -24
0 -25 196 0 c153 0 194 3 188 13 -5 6 -91 125 -192 262 l-184 250 166 3 166 2
0 25 0 25 -216 0 c-169 0 -214 -3 -208 -12z"/>
<path d="M6167 8108 c4 -7 90 -124 190 -261 101 -136 183 -249 183 -252 0 -3
-65 -5 -145 -5 l-145 0 0 -25 0 -25 196 0 196 0 -15 24 c-9 12 -95 131 -192
262 l-176 239 165 3 166 2 0 25 0 25 -216 0 c-170 0 -214 -3 -207 -12z"/>
<path d="M7472 8088 c99 -132 358 -487 358 -492 0 -3 -65 -6 -145 -6 l-145 0
0 -25 0 -25 195 0 c107 0 195 2 195 5 0 3 -85 121 -189 263 l-190 257 170 3
169 2 0 25 0 25 -221 0 -221 0 24 -32z"/>
<path d="M8813 8008 c187 -254 297 -406 297 -412 0 -3 -65 -6 -145 -6 l-145 0
0 -25 0 -25 195 0 c107 0 195 3 195 8 0 4 -85 122 -189 262 l-189 255 169 3
169 2 0 25 0 25 -220 0 -220 0 83 -112z"/>
<path d="M10020 8113 c1 -5 86 -123 189 -263 l189 -255 -149 -3 -149 -3 0 -24
0 -25 195 0 c107 0 195 3 195 8 0 4 -85 122 -188 262 l-188 255 168 3 168 2 0
25 0 25 -215 0 c-118 0 -215 -3 -215 -7z"/>
<path d="M11280 8115 c0 -3 85 -121 189 -263 l190 -257 -150 -3 -149 -3 0 -24
0 -25 201 0 201 0 -24 33 c-99 131 -358 486 -358 491 0 3 74 6 165 6 l165 0 0
25 0 25 -215 0 c-118 0 -215 -2 -215 -5z"/>
<path d="M12550 8115 c0 -2 85 -120 190 -262 l190 -258 -151 -3 c-149 -3 -150
-3 -147 -25 3 -22 5 -22 202 -25 160 -2 197 0 189 10 -50 64 -373 508 -373
513 0 3 74 5 165 5 l165 0 0 25 0 25 -215 0 c-118 0 -215 -2 -215 -5z"/>
<path d="M13830 8117 c0 -2 86 -120 190 -263 l191 -259 -146 -3 -145 -3 0 -24
0 -25 196 0 c153 0 194 3 188 13 -5 6 -90 124 -191 260 -101 136 -183 250
-183 252 0 3 74 5 165 5 l165 0 0 25 0 25 -215 0 c-118 0 -215 -1 -215 -3z"/>
<path d="M15127 8108 c4 -7 90 -124 190 -261 101 -136 183 -249 183 -252 0 -3
-65 -5 -145 -5 l-145 0 0 -25 0 -25 196 0 196 0 -15 24 c-9 12 -95 131 -192
262 l-176 239 165 3 166 2 0 25 0 25 -216 0 c-170 0 -214 -3 -207 -12z"/>
<path d="M16422 8088 c123 -165 358 -487 358 -492 0 -3 -65 -6 -145 -6 l-145
0 0 -25 0 -25 195 0 c107 0 195 2 195 5 0 3 -85 121 -190 263 l-189 257 169 3
170 2 0 25 0 25 -221 0 -221 0 24 -32z"/>
<path d="M17733 8048 c242 -329 327 -446 327 -452 0 -3 -65 -6 -145 -6 l-145
0 0 -25 0 -25 170 0 170 0 0 40 c0 35 -17 62 -164 262 l-164 223 164 3 164 2
0 25 0 25 -215 0 -216 0 54 -72z"/>
<path d="M0 7863 c0 -36 11 -56 80 -149 44 -60 80 -112 80 -116 0 -4 -36 -8
-80 -8 -79 0 -80 0 -80 -25 l0 -25 130 0 c72 0 130 3 130 8 -1 6 -239 335
-255 350 -3 3 -5 -13 -5 -35z"/>
<path d="M456 6818 c5 -7 88 -122 186 -254 98 -133 178 -244 178 -248 0 -3
-64 -7 -142 -8 -140 -3 -143 -4 -146 -25 l-3 -23 195 0 c108 0 196 2 196 5 0
3 -84 119 -186 258 l-186 252 164 5 c160 5 163 5 166 28 l3 22 -216 0 c-170 0
-215 -3 -209 -12z"/>
<path d="M1762 6784 c18 -26 103 -141 189 -258 l156 -211 -146 -5 c-142 -5
-146 -6 -149 -27 l-3 -23 200 0 200 0 -190 258 -189 257 162 5 c160 5 163 5
166 28 l3 22 -216 0 -216 0 33 -46z"/>
<path d="M3029 6803 c10 -16 96 -131 189 -258 l170 -230 -144 -3 -144 -3 0
-24 0 -25 195 0 195 0 -49 68 c-27 37 -113 153 -190 257 l-140 190 165 3 164
2 0 25 0 25 -216 0 -215 0 20 -27z"/>
<path d="M4319 6763 c27 -38 112 -153 189 -258 l140 -190 -144 -3 -144 -3 0
-24 0 -25 196 0 195 0 -20 28 c-11 15 -96 131 -189 257 l-170 230 164 3 164 2
0 25 0 25 -215 0 -215 0 49 -67z"/>
<path d="M5619 6723 c44 -60 129 -175 190 -258 l110 -150 -144 -3 -145 -3 0
-24 0 -25 196 0 195 0 -19 28 c-11 15 -97 131 -190 257 l-170 230 164 3 164 2
0 25 0 25 -215 0 -215 0 79 -107z"/>
<path d="M6830 6824 c0 -3 83 -119 186 -257 l185 -252 -145 -3 -146 -3 0 -24
0 -25 196 0 c194 0 196 0 183 20 -8 11 -94 128 -191 260 l-177 240 167 2 c165
3 167 3 170 26 l3 22 -215 0 c-119 0 -216 -3 -216 -6z"/>
<path d="M8120 6825 c0 -2 83 -117 185 -255 102 -138 185 -253 185 -255 0 -3
-65 -5 -145 -5 l-145 0 0 -25 0 -25 196 0 c153 0 194 3 188 13 -4 6 -88 121
-186 255 -98 133 -178 244 -178 247 0 2 73 6 163 7 159 3 162 3 165 26 l3 22
-215 0 c-119 0 -216 -2 -216 -5z"/>
<path d="M9406 6818 c4 -7 88 -122 186 -255 98 -133 178 -245 178 -248 0 -3
-65 -5 -145 -5 l-145 0 0 -25 0 -25 195 0 c107 0 195 2 195 5 0 2 -84 118
-186 257 l-186 253 163 5 c161 5 164 5 167 28 l3 22 -216 0 c-170 0 -215 -3
-209 -12z"/>
<path d="M10691 6810 c8 -11 94 -128 191 -260 l177 -239 -147 -3 c-144 -3
-147 -3 -150 -25 l-3 -23 195 0 c108 0 196 3 196 6 0 3 -83 119 -186 257
l-185 252 165 3 166 2 0 25 0 25 -216 0 c-214 0 -216 0 -203 -20z"/>
<path d="M11972 6784 c18 -26 103 -141 189 -258 l155 -211 -145 -5 c-142 -5
-146 -6 -149 -27 l-3 -23 200 0 200 0 -190 258 -190 257 163 5 c160 5 163 5
166 28 l3 22 -216 0 -216 0 33 -46z"/>
<path d="M13228 6803 c11 -16 97 -131 190 -258 l170 -230 -144 -3 -144 -3 0
-24 0 -25 195 0 195 0 -83 112 c-45 61 -130 177 -189 257 l-106 146 161 5
c159 5 162 5 165 28 l3 22 -216 0 -216 0 19 -27z"/>
<path d="M14539 6763 c27 -38 113 -153 190 -258 l140 -190 -145 -3 -144 -3 0
-24 0 -25 196 0 195 0 -20 28 c-10 15 -96 131 -189 257 l-170 230 164 3 164 2
0 25 0 25 -215 0 -215 0 49 -67z"/>
<path d="M15790 6824 c0 -3 83 -119 186 -257 l185 -252 -145 -3 -146 -3 0 -24
0 -25 196 0 195 0 -23 33 c-12 17 -98 134 -190 259 l-167 228 167 2 c165 3
167 3 170 26 l3 22 -215 0 c-119 0 -216 -3 -216 -6z"/>
<path d="M17070 6825 c0 -2 84 -118 186 -257 l186 -253 -146 -3 -146 -3 0 -24
0 -25 196 0 c153 0 194 3 188 13 -5 6 -88 121 -186 254 -98 133 -178 244 -178
247 0 3 73 7 163 8 159 3 162 3 165 26 l3 22 -215 0 c-119 0 -216 -2 -216 -5z"/>
<path d="M1076 5548 c4 -7 88 -122 186 -255 98 -133 178 -244 178 -247 0 -3
-64 -7 -142 -8 -140 -3 -143 -4 -146 -25 l-3 -23 195 0 c108 0 196 2 196 5 0
3 -83 117 -185 255 -102 138 -185 253 -185 255 0 3 74 5 165 5 l165 0 0 25 0
25 -216 0 c-169 0 -214 -3 -208 -12z"/>
<path d="M2357 5548 c4 -7 89 -124 190 -260 l182 -247 -147 -3 c-144 -3 -147
-3 -150 -25 l-3 -23 195 0 c108 0 196 3 196 6 0 3 -83 119 -186 257 l-185 252
165 3 166 2 0 25 0 25 -216 0 c-169 0 -214 -3 -207 -12z"/>
<path d="M3639 5518 c16 -24 101 -140 188 -258 l159 -215 -143 -3 -143 -3 0
-24 0 -25 190 0 c105 0 190 3 190 6 0 3 -83 119 -185 258 l-186 251 166 3 165
2 0 25 0 25 -215 0 -216 0 30 -42z"/>
<path d="M4910 5518 c16 -24 102 -140 189 -258 l158 -215 -143 -3 -144 -3 0
-24 0 -25 195 0 195 0 -79 108 c-44 59 -129 175 -190 257 l-110 150 164 3 165
2 0 25 0 25 -216 0 -215 0 31 -42z"/>
<path d="M6179 5533 c11 -16 96 -131 189 -258 l170 -230 -144 -3 -144 -3 0
-24 0 -25 196 0 195 0 -20 28 c-11 15 -96 131 -189 257 l-170 230 164 3 164 2
0 25 0 25 -216 0 -215 0 20 -27z"/>
<path d="M7641 5303 l190 -258 -146 -3 -145 -3 0 -24 0 -25 195 0 196 0 -30
43 c-16 23 -101 139 -188 257 l-159 215 165 5 c163 5 166 5 169 28 l3 22 -220
0 -220 0 190 -257z"/>
<path d="M8740 5555 c0 -3 84 -119 186 -258 l186 -252 -146 -3 -146 -3 0 -24
0 -25 196 0 c153 0 194 3 188 13 -5 6 -88 121 -186 254 -98 132 -178 244 -178
247 0 3 73 7 163 8 159 3 162 3 165 26 l3 22 -215 0 c-119 0 -216 -2 -216 -5z"/>
<path d="M10035 5534 c9 -15 93 -129 186 -255 93 -126 169 -231 169 -234 0 -2
-64 -6 -142 -7 -140 -3 -143 -4 -146 -25 l-3 -23 196 0 197 0 -16 24 c-8 14
-92 128 -186 255 -93 127 -170 233 -170 236 0 3 74 5 165 5 l165 0 0 25 0 25
-216 0 -216 0 17 -26z"/>
<path d="M11286 5548 c4 -7 88 -122 186 -255 98 -133 178 -244 178 -247 0 -3
-64 -7 -142 -8 -140 -3 -143 -4 -146 -25 l-3 -23 195 0 c108 0 196 2 196 5 0
3 -83 117 -185 255 -102 138 -185 253 -185 255 0 3 74 5 165 5 l165 0 0 25 0
25 -216 0 c-169 0 -214 -3 -208 -12z"/>
<path d="M12556 5548 c5 -7 90 -124 191 -260 l182 -247 -147 -3 c-144 -3 -147
-3 -150 -25 l-3 -23 195 0 c108 0 196 2 196 5 0 3 -84 119 -186 258 l-185 252
165 3 166 2 0 25 0 25 -216 0 c-169 0 -214 -3 -208 -12z"/>
<path d="M13862 5514 c18 -26 103 -141 189 -258 l155 -211 -143 -3 -143 -3 0
-24 0 -25 195 0 195 0 -83 113 c-46 61 -132 177 -191 257 l-107 145 166 3 165
2 0 25 0 25 -216 0 -215 0 33 -46z"/>
<path d="M15139 5533 c11 -16 96 -131 189 -258 l170 -230 -144 -3 -144 -3 0
-24 0 -25 196 0 195 0 -20 28 c-11 15 -96 131 -189 257 l-170 230 164 3 164 2
0 25 0 25 -216 0 -215 0 20 -27z"/>
<path d="M16578 5320 c97 -132 183 -249 191 -260 13 -20 11 -20 -133 -20
l-146 0 0 -25 0 -25 196 0 195 0 -33 46 c-18 26 -103 141 -189 258 l-156 211
166 5 c163 5 166 5 169 28 l3 22 -220 0 -221 0 178 -240z"/>
<path d="M17690 5555 c0 -3 83 -119 185 -258 l186 -252 -146 -3 -145 -3 0 -24
0 -25 170 0 170 0 0 36 c0 32 -23 68 -165 260 l-165 224 165 0 165 0 0 25 0
25 -210 0 c-115 0 -210 -2 -210 -5z"/>
<path d="M0 5303 c0 -32 13 -56 80 -146 44 -59 80 -109 80 -112 0 -3 -36 -5
-80 -5 -79 0 -80 0 -80 -25 l0 -25 131 0 c101 0 129 3 123 13 -16 26 -246 337
-250 337 -2 0 -4 -17 -4 -37z"/>
<path d="M450 4273 c1 -5 86 -123 189 -263 l189 -255 -149 -3 -149 -3 0 -24 0
-25 200 0 200 0 -49 68 c-27 37 -113 153 -190 257 -77 105 -141 193 -141 198
0 4 74 7 165 7 l165 0 0 25 0 25 -215 0 c-118 0 -215 -3 -215 -7z"/>
<path d="M1730 4275 c0 -3 85 -121 189 -262 l190 -258 -150 -3 c-149 -3 -150
-3 -147 -25 3 -22 5 -22 202 -25 l199 -2 -25 32 c-97 129 -358 487 -358 492 0
3 74 6 165 6 l165 0 0 25 0 25 -215 0 c-118 0 -215 -2 -215 -5z"/>
<path d="M3010 4275 c0 -2 86 -120 190 -262 l191 -258 -146 -3 -145 -3 0 -24
0 -25 196 0 195 0 -23 33 c-12 17 -98 134 -190 259 -93 125 -168 230 -168 233
0 3 74 5 165 5 l165 0 0 25 0 25 -215 0 c-118 0 -215 -2 -215 -5z"/>
<path d="M4283 4256 c9 -12 95 -131 192 -262 l176 -239 -145 -3 -146 -3 0 -24
0 -25 196 0 c154 0 194 3 187 13 -4 6 -90 123 -190 260 -101 136 -183 249
-183 252 0 3 74 5 165 5 l165 0 0 25 0 25 -216 0 -216 0 15 -24z"/>
<path d="M5546 4268 c5 -7 91 -125 192 -263 l184 -250 -146 -3 -146 -3 0 -24
0 -25 196 0 c153 0 194 3 188 13 -5 6 -91 125 -192 262 l-184 250 166 3 166 2
0 25 0 25 -216 0 c-169 0 -214 -3 -208 -12z"/>
<path d="M6842 4248 c12 -18 98 -135 190 -260 93 -125 168 -230 168 -233 0 -3
-65 -5 -145 -5 l-145 0 0 -25 0 -25 195 0 c107 0 195 2 195 5 0 2 -86 120
-190 262 l-191 258 171 3 170 2 0 25 0 25 -221 0 -220 0 23 -32z"/>
<path d="M8122 4262 c7 -10 93 -127 191 -259 97 -133 177 -244 177 -247 0 -3
-65 -6 -145 -6 l-145 0 0 -25 0 -25 195 0 c107 0 195 2 195 5 0 3 -85 121
-189 263 l-189 257 169 3 169 2 0 25 0 25 -221 0 c-211 0 -220 -1 -207 -18z"/>
<path d="M9400 4273 c0 -5 85 -123 189 -263 l188 -255 -149 -3 -148 -3 0 -24
0 -25 195 0 c107 0 195 3 195 8 -1 4 -84 120 -185 257 -102 138 -185 253 -185
258 0 4 74 7 165 7 l165 0 0 25 0 25 -215 0 c-118 0 -215 -3 -215 -7z"/>
<path d="M10680 4273 c1 -5 86 -123 190 -263 l189 -255 -150 -3 -149 -3 0 -24
0 -25 201 0 201 0 -24 33 c-92 120 -358 486 -358 491 0 3 74 6 165 6 l165 0 0
25 0 25 -215 0 c-118 0 -215 -3 -215 -7z"/>
<path d="M11940 4275 c0 -3 85 -121 189 -263 l190 -257 -150 -3 c-149 -3 -150
-3 -147 -25 3 -22 5 -22 202 -25 l199 -2 -25 32 c-99 132 -358 487 -358 492 0
3 74 6 165 6 l165 0 0 25 0 25 -215 0 c-118 0 -215 -2 -215 -5z"/>
<path d="M13210 4275 c0 -2 86 -120 190 -262 l190 -258 -145 -3 -145 -3 0 -24
0 -25 196 0 c156 0 194 3 187 13 -43 55 -373 508 -373 512 0 3 74 5 165 5
l165 0 0 25 0 25 -215 0 c-118 0 -215 -2 -215 -5z"/>
<path d="M14490 4277 c0 -2 86 -120 191 -263 l190 -259 -145 -3 -146 -3 0 -24
0 -25 196 0 c153 0 194 3 188 13 -5 6 -90 124 -191 260 -101 136 -183 250
-183 252 0 3 74 5 165 5 l165 0 0 25 0 25 -215 0 c-118 0 -215 -2 -215 -3z"/>
<path d="M15801 4248 c13 -18 99 -135 191 -260 93 -125 168 -230 168 -233 0
-3 -65 -5 -145 -5 l-145 0 0 -25 0 -25 195 0 c107 0 195 2 195 4 0 2 -86 120
-190 263 l-190 258 170 3 c171 2 171 3 168 25 -3 22 -4 22 -221 25 l-219 2 23
-32z"/>
<path d="M17082 4248 c123 -165 358 -487 358 -492 0 -3 -65 -6 -145 -6 l-145
0 0 -25 0 -25 195 0 c107 0 195 2 195 5 0 3 -85 121 -189 262 l-190 258 170 3
169 2 0 25 0 25 -221 0 -221 0 24 -32z"/>
<path d="M1070 3013 c1 -5 85 -123 189 -263 l188 -255 -149 -3 -148 -3 0 -24
0 -25 195 0 c107 0 195 3 195 8 -1 4 -84 120 -185 257 -102 138 -185 253 -185
258 0 4 74 7 165 7 l165 0 0 25 0 25 -215 0 c-118 0 -215 -3 -215 -7z"/>
<path d="M2350 3013 c1 -5 86 -123 190 -263 l189 -255 -147 -5 c-139 -5 -147
-6 -147 -25 0 -19 8 -20 199 -23 l199 -2 -25 32 c-92 121 -358 486 -358 492 0
3 74 6 165 6 l165 0 0 25 0 25 -215 0 c-118 0 -215 -3 -215 -7z"/>
<path d="M3610 3015 c0 -3 85 -121 189 -262 l190 -258 -145 -3 -144 -3 0 -24
0 -25 196 0 196 0 -24 33 c-99 131 -358 486 -358 491 0 3 74 6 165 6 l165 0 0
25 0 25 -215 0 c-118 0 -215 -2 -215 -5z"/>
<path d="M4880 3015 c0 -2 86 -121 190 -262 l190 -258 -145 -3 -145 -3 0 -24
0 -25 196 0 c156 0 194 3 187 13 -51 65 -373 507 -373 512 0 3 74 5 165 5
l165 0 0 25 0 25 -215 0 c-118 0 -215 -2 -215 -5z"/>
<path d="M6160 3017 c0 -2 86 -120 191 -263 l190 -259 -145 -3 -146 -3 0 -24
0 -25 196 0 c153 0 194 3 188 13 -5 6 -90 124 -191 260 -101 136 -183 250
-183 252 0 3 74 5 165 5 l165 0 0 25 0 25 -215 0 c-118 0 -215 -2 -215 -3z"/>
<path d="M7456 3008 c5 -7 91 -124 191 -261 101 -136 183 -249 183 -252 0 -3
-65 -5 -145 -5 l-145 0 0 -25 0 -25 196 0 196 0 -15 24 c-9 12 -95 131 -192
262 l-176 239 171 3 c171 2 171 3 168 25 -3 22 -4 22 -221 25 -175 2 -217 0
-211 -10z"/>
<path d="M8752 2988 c123 -165 358 -487 358 -492 0 -3 -65 -6 -145 -6 l-145 0
0 -25 0 -25 195 0 c107 0 195 2 195 5 0 3 -85 121 -190 263 l-189 257 169 3
170 2 0 25 0 25 -221 0 -221 0 24 -32z"/>
<path d="M10020 3013 c0 -5 85 -123 188 -263 l188 -255 -148 -3 -148 -3 0 -24
0 -25 195 0 c107 0 195 3 195 6 0 3 -81 117 -181 252 -99 134 -183 251 -186
258 -4 12 25 14 161 14 l166 0 0 25 0 25 -215 0 c-118 0 -215 -3 -215 -7z"/>
<path d="M11280 3013 c0 -5 85 -123 189 -263 l188 -255 -149 -3 -148 -3 0 -24
0 -25 195 0 c107 0 195 3 195 8 0 4 -84 119 -185 257 -102 137 -185 253 -185
257 0 5 74 8 165 8 l165 0 0 25 0 25 -215 0 c-118 0 -215 -3 -215 -7z"/>
<path d="M12550 3013 c1 -5 86 -123 189 -263 l189 -255 -149 -3 -149 -3 0 -24
0 -25 200 0 200 0 -49 68 c-27 37 -113 153 -190 257 -77 105 -141 193 -141
198 0 4 74 7 165 7 l165 0 0 25 0 25 -215 0 c-118 0 -215 -3 -215 -7z"/>
<path d="M13830 3015 c0 -3 85 -121 190 -263 l189 -257 -144 -3 -145 -3 0 -24
0 -25 196 0 196 0 -24 33 c-123 164 -358 486 -358 491 0 3 74 6 165 6 l165 0
0 25 0 25 -215 0 c-118 0 -215 -2 -215 -5z"/>
<path d="M15120 3017 c0 -2 86 -120 191 -263 l190 -259 -145 -3 -146 -3 0 -24
0 -25 196 0 c153 0 194 3 188 13 -5 6 -90 124 -191 260 -101 136 -183 250
-183 252 0 3 74 5 165 5 l165 0 0 25 0 25 -215 0 c-118 0 -215 -2 -215 -3z"/>
<path d="M16406 3008 c5 -7 90 -125 191 -261 101 -136 183 -250 183 -252 0 -3
-65 -5 -145 -5 l-145 0 0 -25 0 -25 195 0 c107 0 195 2 195 3 0 2 -86 120
-191 263 l-190 259 171 3 c171 2 171 3 168 25 -3 22 -4 22 -221 25 -175 2
-217 0 -211 -10z"/>
<path d="M17687 3008 c51 -66 373 -508 373 -513 0 -3 -65 -5 -145 -5 l-145 0
0 -25 0 -25 170 0 170 0 0 39 c0 34 -19 64 -165 262 l-165 224 165 3 165 2 0
25 0 25 -216 0 c-172 0 -214 -3 -207 -12z"/>
<path d="M0 2762 c0 -37 10 -56 80 -151 44 -60 80 -111 80 -115 0 -3 -36 -6
-80 -6 -79 0 -80 0 -80 -25 l0 -25 130 0 c72 0 130 3 130 8 -1 4 -59 86 -130
181 l-130 175 0 -42z"/>
<path d="M465 1704 c9 -15 93 -129 186 -255 93 -126 169 -234 169 -239 0 -6
-57 -10 -146 -10 -145 0 -145 0 -142 -22 3 -23 4 -23 196 -26 110 -1 192 1
192 7 0 5 -83 122 -185 260 -102 138 -185 254 -185 256 0 3 74 5 165 5 l165 0
0 25 0 25 -216 0 -216 0 17 -26z"/>
<path d="M1736 1718 c5 -7 88 -122 186 -255 98 -132 178 -246 178 -252 0 -7
-47 -11 -146 -11 -145 0 -145 0 -142 -22 3 -23 4 -23 196 -26 126 -2 192 1
192 8 0 5 -84 124 -186 263 l-186 252 166 3 166 2 0 25 0 25 -216 0 c-169 0
-214 -3 -208 -12z"/>
<path d="M3032 1698 c12 -18 98 -135 190 -260 93 -125 168 -230 168 -233 0 -3
-65 -5 -145 -5 l-145 0 0 -25 0 -25 188 0 c104 0 191 3 194 6 4 3 -79 121
-183 262 l-190 257 166 3 165 2 0 25 0 25 -216 0 -215 0 23 -32z"/>
<path d="M4277 1718 c51 -66 373 -508 373 -513 0 -3 -65 -5 -145 -5 l-145 0 0
-25 0 -25 195 0 c107 0 195 2 195 5 0 2 -86 121 -190 262 l-190 258 165 3 165
2 0 25 0 25 -216 0 c-172 0 -214 -3 -207 -12z"/>
<path d="M5562 1698 c99 -132 358 -487 358 -492 0 -3 -65 -6 -145 -6 l-145 0
0 -25 0 -25 195 0 c107 0 195 2 195 5 0 3 -85 121 -189 263 l-190 257 165 3
164 2 0 25 0 25 -216 0 -216 0 24 -32z"/>
<path d="M6903 1618 c187 -254 297 -406 297 -412 0 -3 -65 -6 -145 -6 l-145 0
0 -25 0 -25 195 0 c107 0 195 3 195 8 0 4 -85 122 -189 262 l-189 255 167 5
c163 5 166 5 169 28 l3 22 -220 0 -221 0 83 -112z"/>
<path d="M8120 1724 c0 -3 81 -116 181 -251 99 -134 183 -251 186 -259 4 -12
-18 -14 -141 -14 l-146 0 0 -25 0 -25 195 0 c107 0 195 3 195 8 0 4 -85 122
-188 262 l-188 255 168 3 168 2 0 25 0 25 -215 0 c-118 0 -215 -3 -215 -6z"/>
<path d="M9400 1725 c0 -3 83 -117 185 -255 102 -138 185 -255 185 -260 0 -6
-59 -10 -146 -10 -145 0 -145 0 -142 -22 3 -23 4 -23 197 -26 170 -2 193 -1
187 13 -3 8 -87 125 -186 260 -99 134 -180 247 -180 250 0 3 74 5 165 5 l165
0 0 25 0 25 -215 0 c-118 0 -215 -2 -215 -5z"/>
<path d="M10686 1718 c4 -7 88 -122 186 -255 98 -133 178 -247 178 -253 0 -6
-51 -10 -146 -10 -145 0 -145 0 -142 -22 3 -23 4 -23 196 -26 124 -1 192 1
192 8 0 5 -83 122 -185 260 -102 138 -185 253 -185 255 0 3 74 5 165 5 l165 0
0 25 0 25 -216 0 c-169 0 -214 -3 -208 -12z"/>
<path d="M11946 1718 c5 -7 91 -125 192 -263 l184 -250 -152 -3 c-150 -3 -151
-3 -148 -25 3 -22 5 -22 196 -25 126 -2 192 1 192 8 0 5 -84 124 -186 263
l-186 252 166 3 166 2 0 25 0 25 -216 0 c-169 0 -214 -3 -208 -12z"/>
<path d="M13217 1718 c4 -7 90 -124 190 -261 101 -136 183 -249 183 -252 0 -3
-65 -5 -145 -5 l-145 0 0 -25 0 -25 196 0 196 0 -15 24 c-9 12 -95 131 -192
262 l-176 239 165 3 166 2 0 25 0 25 -216 0 c-170 0 -214 -3 -207 -12z"/>
<path d="M14512 1698 c123 -165 358 -487 358 -492 0 -3 -65 -6 -145 -6 l-145
0 0 -25 0 -25 195 0 c107 0 195 2 195 5 0 3 -85 121 -190 263 l-189 257 164 3
165 2 0 25 0 25 -216 0 -216 0 24 -32z"/>
<path d="M15829 1663 c27 -38 113 -153 190 -258 77 -104 141 -193 141 -197 0
-5 -65 -8 -145 -8 l-145 0 0 -25 0 -25 195 0 c107 0 195 3 195 8 -1 4 -86 122
-189 262 l-189 255 166 5 c164 5 167 5 170 28 l3 22 -220 0 -221 0 49 -67z"/>
<path d="M17246 1479 c102 -138 188 -257 191 -265 4 -12 -21 -14 -142 -14
-146 0 -146 0 -143 -22 3 -23 4 -23 196 -26 105 -1 192 1 192 5 0 5 -85 123
-188 263 l-188 255 168 3 168 2 0 25 0 25 -220 0 -219 0 185 -251z"/>
<path d="M1072 441 c2 -4 75 -105 162 -225 142 -192 163 -216 188 -216 15 0
28 2 28 5 0 2 -63 90 -140 194 -77 104 -140 191 -140 195 0 3 74 6 165 6 l165
0 0 25 0 25 -216 0 c-119 0 -214 -4 -212 -9z"/>
<path d="M2367 422 c10 -16 83 -117 163 -225 127 -174 148 -197 172 -197 16 0
28 2 28 6 0 3 -63 90 -140 195 -77 104 -140 192 -140 194 0 3 74 5 165 5 l165
0 0 25 0 25 -216 0 -216 0 19 -28z"/>
<path d="M3617 436 c4 -8 78 -109 163 -225 136 -185 158 -211 183 -211 15 0
27 3 27 6 0 4 -63 91 -140 195 -77 104 -140 192 -140 194 0 3 74 5 165 5 l165
0 0 25 0 25 -215 0 c-182 0 -215 -2 -208 -14z"/>
<path d="M4887 437 c4 -8 78 -109 163 -225 145 -198 157 -211 187 -212 l32 0
-145 198 -146 197 166 3 166 2 0 25 0 25 -215 0 c-178 0 -215 -2 -208 -13z"/>
<path d="M6197 397 c21 -30 94 -131 163 -225 117 -160 127 -171 158 -171 l33
-1 -39 53 c-21 28 -87 117 -146 197 l-107 145 166 3 165 2 0 25 0 25 -216 0
-216 0 39 -53z"/>
<path d="M7458 438 c5 -7 76 -103 157 -213 80 -110 152 -206 159 -213 8 -8 25
-12 39 -10 25 3 19 13 -118 198 l-143 195 169 3 169 2 0 25 0 25 -221 0 c-176
0 -219 -3 -211 -12z"/>
<path d="M8896 225 c150 -204 169 -225 195 -225 16 0 29 1 29 3 0 1 -65 90
-144 197 l-143 195 168 3 169 2 0 25 0 25 -220 0 -220 0 166 -225z"/>
<path d="M10020 444 c0 -3 73 -104 162 -225 146 -198 164 -219 190 -219 35 0
46 -18 -119 206 -73 100 -133 184 -133 188 0 3 74 6 165 6 l165 0 0 25 0 25
-215 0 c-118 0 -215 -3 -215 -6z"/>
<path d="M11282 441 c2 -4 75 -105 162 -225 142 -192 163 -216 188 -216 15 0
28 2 28 5 0 2 -63 90 -140 194 -77 104 -140 191 -140 195 0 3 74 6 165 6 l165
0 0 25 0 25 -216 0 c-119 0 -214 -4 -212 -9z"/>
<path d="M12552 442 c2 -4 75 -106 163 -225 141 -192 163 -217 187 -217 16 0
28 2 28 5 0 3 -63 91 -140 195 -77 104 -140 192 -140 195 0 3 74 5 165 5 l165
0 0 25 0 25 -216 0 c-119 0 -214 -4 -212 -8z"/>
<path d="M13837 436 c4 -7 78 -108 163 -224 136 -186 158 -212 183 -212 15 0
27 3 27 6 0 3 -63 92 -141 198 l-141 191 166 3 166 2 0 25 0 25 -215 0 c-180
0 -215 -2 -208 -14z"/>
<path d="M15157 397 c21 -30 94 -131 163 -225 117 -160 127 -171 158 -171 l33
-1 -39 53 c-21 28 -87 117 -146 197 l-107 145 166 3 165 2 0 25 0 25 -216 0
-216 0 39 -53z"/>
<path d="M16412 432 c131 -183 315 -425 324 -429 7 -2 22 -3 32 -1 17 2 -2 34
-123 198 l-144 195 170 3 169 2 0 25 0 25 -221 0 c-211 0 -220 -1 -207 -18z"/>
<path d="M17807 278 c213 -291 202 -278 234 -278 16 0 29 1 29 3 0 1 -65 90
-144 197 l-144 195 164 3 164 2 0 25 0 25 -215 0 -215 0 127 -172z"/>
</g>
</svg>
