<?xml version="1.0" standalone="no"?>
<!DOCTYPE svg PUBLIC "-//W3C//DTD SVG 20010904//EN"
 "http://www.w3.org/TR/2001/REC-SVG-20010904/DTD/svg10.dtd">
<svg version="1.0" xmlns="http://www.w3.org/2000/svg"
 width="1125.000000pt" height="900.000000pt" viewBox="0 0 1125.000000 900.000000"
 preserveAspectRatio="xMidYMid meet">
<metadata>
Created by potrace 1.13, written by Peter Selinger 2001-2015
</metadata>
<g transform="translate(0.000000,900.000000) scale(0.100000,-0.100000)"
fill="#000000" stroke="none">
<path d="M0 4500 l0 -4500 5625 0 5625 0 0 4500 0 4500 -5625 0 -5625 0 0
-4500z m11205 4285 l0 -170 -5580 0 -5580 0 -3 160 c-1 87 0 165 2 172 4 11
1034 13 5583 11 l5578 -3 0 -170z m-9835 -585 l0 -350 -662 2 -663 3 -3 335
c-1 184 0 341 3 347 3 10 144 13 665 13 l660 0 0 -350z m2790 0 l0 -350 -1360
0 -1360 0 0 350 0 350 1360 0 1360 0 0 -350z m2278 3 l-3 -348 -1102 -3 -1103
-2 0 350 0 350 1105 0 1105 0 -2 -347z m2532 -3 l0 -350 -1235 0 -1235 0 0
350 0 350 1235 0 1235 0 0 -350z m2235 0 l0 -345 -1087 -3 -1088 -2 0 350 0
350 1088 -2 1087 -3 0 -345z m-8657 -737 l2 -323 -1220 0 -1220 0 0 325 0 325
1218 -2 1217 -3 3 -322z m2482 2 l0 -325 -1210 0 -1210 0 0 325 0 325 1210 0
1210 0 0 -325z m2350 0 l0 -325 -1145 0 -1145 0 0 325 0 325 1145 0 1145 0 0
-325z m2818 -2 l2 -323 -1375 0 -1375 0 0 325 0 325 1373 -2 1372 -3 3 -322z
m1010 0 l2 -323 -475 0 -475 0 0 325 0 325 473 -2 472 -3 3 -322z m-10140
-751 l2 -362 -512 2 -513 3 -3 350 c-1 192 0 356 3 363 3 10 110 12 512 10
l508 -3 3 -363z m2672 3 l0 -365 -1305 0 -1305 0 0 365 0 365 1305 0 1305 0 0
-365z m2480 0 l0 -365 -1210 0 -1210 0 0 365 0 365 1210 0 1210 0 0 -365z
m2440 0 l0 -365 -1185 0 -1185 0 0 365 0 365 1185 0 1185 0 0 -365z m2545 0
l0 -360 -1242 -3 -1243 -2 0 358 c0 197 3 362 7 365 3 4 563 6 1242 5 l1236
-3 0 -360z m-9300 -720 l0 -290 -930 0 -930 0 -3 280 c-1 154 0 285 3 292 3
11 190 13 932 11 l928 -3 0 -290z m2785 0 l0 -295 -1360 0 -1360 0 0 295 0
295 1360 0 1360 0 0 -295z m2278 3 l-3 -293 -1102 -3 -1103 -2 0 295 0 295
1105 0 1105 0 -2 -292z m2530 0 l-3 -293 -1232 -3 -1233 -2 0 295 0 295 1235
0 1235 0 -2 -292z m1707 -3 l0 -290 -820 0 -820 0 -3 293 -2 292 822 -2 823
-3 0 -290z m3 -1072 l-3 -718 -162 -3 -163 -2 0 -30 0 -30 163 -2 162 -3 0
-300 0 -300 -5580 0 -5580 0 0 300 0 300 103 3 102 3 0 29 0 29 -103 3 -102 3
0 370 0 370 388 3 387 2 0 30 0 30 -390 0 -390 0 0 315 0 315 5585 0 5585 0
-2 -717z m-8978 -1738 l0 -285 -1092 2 -1093 3 -3 283 -2 282 1095 0 1095 0 0
-285z m2510 0 l0 -285 -1225 0 -1225 0 0 285 0 285 1225 0 1225 0 0 -285z
m2380 0 l0 -285 -1160 0 -1160 0 0 285 0 285 1160 0 1160 0 0 -285z m2700 0
l0 -285 -1320 0 -1320 0 0 285 0 285 1320 0 1320 0 0 -285z m1388 3 l-3 -283
-657 -3 -658 -2 0 285 0 285 660 0 660 0 -2 -282z m-10138 -748 l0 -400 -512
2 -513 3 -3 385 c-1 212 0 391 3 397 3 10 115 13 515 13 l510 0 0 -400z m2700
0 l0 -400 -1320 0 -1320 0 0 400 0 400 1320 0 1320 0 0 -400z m2530 0 l0 -400
-1235 0 -1235 0 0 400 0 400 1235 0 1235 0 0 -400z m2390 0 l0 -400 -1165 0
-1165 0 0 400 0 400 1165 0 1165 0 0 -400z m2515 0 l0 -395 -1227 -3 -1228 -2
0 400 0 400 1228 -2 1227 -3 0 -395z m-11015 -820 l0 -360 -75 0 -75 0 0 353
c0 195 3 357 7 360 3 4 37 7 75 7 l68 0 0 -360z m2550 0 l0 -360 -1245 0
-1245 0 0 360 0 360 1245 0 1245 0 0 -360z m2410 0 l0 -360 -1170 0 -1170 0 0
360 0 360 1170 0 1170 0 0 -360z m2400 0 l0 -360 -1170 0 -1170 0 0 360 0 360
1170 0 1170 0 0 -360z m2790 0 l0 -360 -1365 0 -1365 0 0 360 0 360 1365 0
1365 0 0 -360z m868 -2 l2 -358 -405 0 -405 0 0 360 0 360 403 -2 402 -3 3
-357z m0 -765 l2 -343 -70 0 -70 0 0 336 0 335 -32 -3 -33 -3 -3 -332 -2 -333
-1215 0 -1215 0 0 335 0 335 -30 0 -30 0 0 -335 0 -335 -1375 0 -1375 0 -2
333 -3 332 -30 0 -30 0 -3 -332 -2 -333 -1145 0 -1145 0 0 335 0 335 -30 0
-30 0 0 -335 0 -335 -1210 0 -1210 0 0 335 0 335 -30 0 -30 0 0 -335 0 -335
-410 0 -410 0 0 338 c0 186 3 342 7 345 3 4 2515 6 5582 5 l5576 -3 3 -342z
m0 -610 l-3 -198 -5580 0 -5580 0 -3 198 -2 197 5585 0 5585 0 -2 -197z"/>
<path d="M1300 4980 l0 -30 595 0 595 0 0 30 0 30 -595 0 -595 0 0 -30z"/>
<path d="M2970 4980 l0 -30 595 0 595 0 0 30 0 30 -595 0 -595 0 0 -30z"/>
<path d="M4640 4980 l0 -30 655 0 655 0 0 30 0 30 -655 0 -655 0 0 -30z"/>
<path d="M6430 4980 l0 -30 595 0 595 0 0 30 0 30 -595 0 -595 0 0 -30z"/>
<path d="M8100 4980 l0 -30 601 0 600 0 -3 28 -3 27 -597 3 -598 2 0 -30z"/>
<path d="M9770 4980 l0 -30 600 0 600 0 0 30 0 30 -600 0 -600 0 0 -30z"/>
<path d="M730 4170 l0 -30 595 0 595 0 0 30 0 30 -595 0 -595 0 0 -30z"/>
<path d="M2400 4170 l0 -30 600 0 600 0 0 30 0 30 -600 0 -600 0 0 -30z"/>
<path d="M4070 4170 l0 -30 655 0 655 0 0 30 0 30 -655 0 -655 0 0 -30z"/>
<path d="M5860 4170 l0 -30 600 0 600 0 0 30 0 30 -600 0 -600 0 0 -30z"/>
<path d="M7530 4170 l0 -30 600 0 600 0 0 30 0 30 -600 0 -600 0 0 -30z"/>
<path d="M9210 4170 l0 -30 595 0 595 0 0 30 0 30 -595 0 -595 0 0 -30z"/>
</g>
</svg>
