<?xml version="1.0" standalone="no"?>
<!DOCTYPE svg PUBLIC "-//W3C//DTD SVG 20010904//EN"
 "http://www.w3.org/TR/2001/REC-SVG-20010904/DTD/svg10.dtd">
<svg version="1.0" xmlns="http://www.w3.org/2000/svg"
 width="1125.000000pt" height="900.000000pt" viewBox="0 0 1125.000000 900.000000"
 preserveAspectRatio="xMidYMid meet">
<metadata>
Created by potrace 1.13, written by Peter Selinger 2001-2015
</metadata>
<g transform="translate(0.000000,900.000000) scale(0.100000,-0.100000)"
fill="#000000" stroke="none">
<path d="M0 4500 l0 -4500 5625 0 5625 0 0 4500 0 4500 -5625 0 -5625 0 0
-4500z m782 4425 c-6 -49 -52 -123 -110 -176 -83 -76 -120 -84 -397 -84 l-230
0 -3 134 c-1 74 0 141 2 148 4 11 77 13 373 11 l368 -3 -3 -30z m808 30 c0 -3
-18 -42 -41 -86 -22 -45 -39 -83 -37 -85 2 -1 52 15 111 37 376 138 524 130
881 -48 48 -24 90 -42 92 -40 6 6 -53 154 -72 181 -33 47 -41 46 426 46 292 0
440 -3 440 -10 0 -17 -57 -119 -63 -113 -3 3 -21 -7 -39 -21 -53 -40 -114 -62
-233 -86 -60 -12 -202 -41 -315 -65 -113 -24 -261 -51 -330 -60 -69 -9 -151
-22 -183 -30 -165 -42 -598 -46 -728 -7 -36 11 -108 25 -160 32 -136 18 -246
72 -358 175 -46 42 -121 148 -121 172 0 11 66 13 365 13 201 0 365 -2 365 -5z
m2856 -55 c217 -197 497 -192 708 14 l48 46 503 0 c346 0 506 -3 510 -11 27
-43 -58 -161 -143 -197 -77 -32 -484 -68 -819 -72 -100 -1 -208 -6 -240 -10
-70 -11 -842 -40 -1069 -41 -155 -1 -163 0 -214 26 -110 56 -210 175 -210 250
0 23 3 45 7 48 3 4 197 7 429 7 l424 0 66 -60z m654 53 c0 -13 -66 -62 -117
-88 -115 -57 -253 -60 -364 -8 -65 30 -129 77 -129 94 0 5 128 9 305 9 168 0
305 -3 305 -7z m2160 0 c0 -4 -20 -47 -45 -95 -25 -48 -42 -88 -36 -88 5 0 49
16 99 35 360 139 512 133 860 -31 64 -30 117 -52 120 -50 6 6 -33 107 -65 169
-16 28 -29 55 -31 60 -2 4 196 6 440 5 l443 -3 -2 -39 c-8 -129 -143 -213
-423 -266 -354 -66 -1068 -78 -1465 -23 -60 8 -218 18 -350 22 l-240 7 -86 40
c-129 62 -199 133 -199 203 0 66 -37 61 496 61 266 0 484 -3 484 -7z m2945
-58 c46 -44 95 -79 151 -107 75 -37 92 -41 177 -46 154 -8 272 39 391 154 l67
65 107 -3 107 -3 3 -152 3 -152 -33 -6 c-181 -31 -240 -35 -471 -35 -136 0
-359 -5 -495 -11 -212 -9 -261 -8 -347 5 -55 8 -164 20 -243 26 -271 20 -455
113 -496 249 -26 87 -63 81 508 81 l503 0 68 -65z m685 55 c0 -15 -101 -87
-165 -117 -53 -25 -72 -28 -160 -28 -92 0 -105 3 -169 33 -70 33 -156 95 -156
113 0 5 131 9 325 9 203 0 325 -4 325 -10z m-7392 -172 c13 -20 50 -62 84 -94
l62 -57 -159 9 c-186 9 -200 10 -365 13 l-125 3 108 23 c126 28 230 78 235
114 3 15 8 21 18 17 17 -7 57 35 75 78 l13 29 16 -50 c9 -27 26 -65 38 -85z
m-2632 31 c33 -48 111 -120 174 -162 l45 -29 -218 5 c-120 3 -221 8 -225 12
-4 4 4 15 18 24 51 33 118 103 141 146 13 25 27 45 30 45 4 0 19 -18 35 -41z
m8246 -38 c15 -21 53 -55 85 -77 32 -21 62 -42 68 -47 5 -4 -28 -5 -75 -1 -47
4 -86 10 -88 13 -1 4 -46 5 -100 3 l-97 -4 45 29 c25 17 63 50 85 75 22 26 42
46 45 47 3 0 17 -17 32 -38z m-2835 -11 c19 -21 56 -54 83 -71 28 -18 50 -35
50 -37 0 -7 -277 8 -317 16 l-33 7 53 28 c30 15 69 43 87 62 19 19 36 35 39
35 2 0 19 -18 38 -40z m-222 -152 c39 -5 178 -14 310 -18 746 -26 797 -29 870
-51 99 -29 159 -65 215 -126 87 -95 111 -222 58 -310 -48 -80 -163 -152 -274
-172 -274 -50 -665 -60 -1359 -36 -453 16 -563 17 -822 7 -263 -11 -304 -11
-350 3 -57 17 -137 68 -165 106 -19 25 -19 26 6 74 31 57 35 138 9 192 -15 33
-15 37 3 72 50 95 167 173 334 224 78 24 108 27 380 37 529 20 641 20 785 -2z
m3260 -28 c110 -5 234 -16 275 -24 41 -8 138 -20 215 -26 287 -23 443 -72 505
-160 31 -44 46 -217 25 -287 -19 -62 -58 -115 -105 -142 -46 -26 -196 -54
-380 -71 -168 -17 -738 -18 -1325 -3 -408 10 -494 15 -570 31 -167 36 -250 80
-319 166 -29 36 -31 43 -29 112 3 84 15 113 71 171 120 123 261 172 542 187
63 4 207 20 320 36 223 31 294 32 775 10z m-8645 -10 c47 -5 195 -12 330 -15
167 -5 261 -11 296 -21 28 -8 102 -23 163 -33 89 -15 124 -26 168 -53 70 -42
133 -112 173 -191 25 -51 30 -69 24 -102 -9 -55 -38 -109 -87 -162 -59 -64
-110 -90 -223 -114 -183 -38 -403 -41 -788 -10 -171 14 -400 14 -511 -1 -50
-7 -108 -12 -130 -13 l-40 0 0 90 0 89 75 28 c151 58 225 73 360 72 150 0 219
-20 429 -120 74 -35 135 -64 137 -64 8 0 -47 134 -78 193 -47 89 -175 216
-258 255 -115 54 -222 66 -335 37 -93 -25 -154 -63 -247 -157 l-88 -87 0 185
c0 140 3 184 13 185 6 1 70 7 142 14 132 13 320 11 475 -5z m4060 16 c0 -2
-25 -18 -56 -36 -61 -34 -136 -106 -160 -152 l-15 -29 -39 44 c-42 48 -145
119 -198 138 -18 6 -30 14 -27 17 3 3 94 9 203 12 108 4 218 7 245 8 26 1 47
0 47 -2z m-840 -26 c241 -14 385 -62 494 -161 77 -70 82 -84 61 -163 -13 -47
-16 -84 -12 -131 l6 -64 -42 -34 c-23 -19 -61 -44 -84 -56 -61 -31 -271 -80
-393 -92 -58 -6 -134 -17 -170 -25 -152 -34 -839 -28 -1230 11 -80 8 -192 19
-250 24 -158 14 -275 66 -330 147 -22 32 -25 49 -25 118 0 69 4 90 29 141 36
72 110 149 186 192 45 26 84 36 215 58 295 50 388 55 910 49 264 -2 550 -9
635 -14z m7315 -360 l0 -355 -70 -9 c-127 -17 -387 31 -499 92 -66 36 -147
116 -174 173 -14 30 -22 64 -22 101 0 104 88 231 195 279 78 35 408 80 545 75
l25 -1 0 -355z m-595 346 c0 -2 -24 -19 -54 -39 -54 -36 -111 -98 -139 -151
l-15 -30 -25 51 c-31 60 -72 97 -147 132 l-55 26 165 5 c91 3 189 7 218 8 28
1 52 0 52 -2z m-2897 -16 c48 0 87 -3 87 -8 0 -4 -24 -22 -53 -39 -29 -17 -78
-58 -110 -92 l-57 -60 -20 39 c-25 50 -74 105 -125 143 l-40 30 115 -7 c63 -3
154 -6 203 -6z m-5733 -101 c-28 -28 -65 -75 -82 -106 l-31 -54 -28 49 c-15
28 -51 73 -79 102 -27 28 -50 52 -50 54 0 1 72 3 161 4 l160 2 -51 -51z
m-1385 -54 c83 -22 146 -59 211 -125 50 -51 129 -159 121 -166 -2 -2 -47 15
-101 37 -244 100 -423 106 -670 20 -33 -12 -63 -21 -68 -21 -15 0 53 91 105
141 115 109 260 151 402 114z m9861 -377 c37 -50 94 -95 173 -135 63 -32 65
-33 31 -33 -19 0 -89 7 -155 15 -66 8 -156 15 -200 15 -66 1 -77 3 -61 13 52
31 116 102 136 149 21 49 23 51 36 33 7 -11 25 -37 40 -57z m-2881 43 c10 -32
102 -110 165 -140 l60 -28 -58 -6 c-31 -4 -169 -9 -307 -12 l-250 -5 72 20
c107 28 181 68 243 131 30 31 58 57 62 58 4 0 9 -8 13 -18z m-5705 -24 c0 -19
58 -86 102 -117 l39 -28 -63 -6 c-35 -3 -114 -8 -177 -10 l-114 -6 54 38 c30
21 74 63 99 94 42 53 60 63 60 35z m2684 -105 l51 -37 -60 -7 c-33 -3 -118 -9
-190 -12 l-130 -6 51 18 c57 20 124 59 169 96 29 25 30 25 44 6 7 -11 37 -37
65 -58z m1611 -91 l130 -6 -50 -19 c-116 -43 -253 -116 -303 -162 l-53 -47
-16 23 c-61 87 -145 148 -273 198 l-85 33 260 -7 c143 -3 319 -9 390 -13z
m-876 -6 c275 -35 462 -122 536 -249 25 -42 25 -43 9 -115 -31 -149 -93 -259
-184 -326 -39 -28 -75 -43 -162 -65 -62 -15 -138 -37 -168 -49 -47 -18 -76
-21 -206 -21 -83 0 -243 7 -355 15 -112 9 -220 13 -239 10 -19 -3 -65 1 -102
10 -52 12 -119 15 -315 13 -225 -3 -258 -1 -361 20 -161 32 -217 56 -275 114
-115 115 -121 242 -19 376 26 34 149 134 228 186 65 43 201 59 484 58 154 -1
297 4 415 16 248 24 565 27 714 7z m-4444 -15 c83 -6 179 -13 215 -17 l65 -6
-52 -18 c-121 -41 -265 -143 -302 -213 l-14 -26 -30 52 c-56 98 -153 176 -281
225 l-61 24 155 -5 c86 -3 223 -10 305 -16z m1396 0 c30 -5 133 -14 229 -20
200 -13 369 -43 550 -98 211 -63 270 -114 278 -238 9 -138 -64 -253 -202 -318
-99 -48 -171 -64 -316 -71 -69 -4 -143 -10 -165 -15 -22 -5 -134 -7 -250 -3
-166 4 -262 1 -458 -16 -376 -32 -547 -25 -762 29 -168 43 -318 139 -367 234
-18 34 -19 46 -9 92 15 78 52 142 113 201 140 132 357 188 823 213 413 22 466
23 536 10z m5079 -4 c124 0 396 2 605 5 398 4 459 0 623 -42 153 -39 262 -110
319 -206 23 -39 25 -52 21 -116 -6 -93 -36 -156 -108 -227 -74 -74 -158 -117
-265 -136 -47 -8 -114 -24 -149 -34 -49 -16 -114 -22 -283 -30 -286 -13 -799
-12 -888 1 -65 9 -151 10 -540 5 -250 -3 -393 23 -551 99 -110 53 -175 118
-199 198 -18 62 -19 72 -1 128 8 24 17 56 20 70 10 47 85 108 201 164 159 77
258 106 445 129 19 2 145 1 280 -2 135 -4 346 -7 470 -6z m1720 -4 l195 -7
-75 -40 c-49 -25 -101 -65 -149 -112 -41 -41 -75 -72 -76 -71 -1 2 -11 19 -23
39 -37 61 -118 128 -205 169 l-82 39 110 -6 c61 -3 198 -8 305 -11z m1440 -8
c72 -9 225 -17 360 -19 129 -2 265 -4 303 -4 l67 -1 -2 -352 -3 -353 -120 1
c-66 0 -374 4 -685 9 -447 6 -612 5 -790 -6 -300 -19 -348 -17 -411 18 -66 36
-159 136 -198 214 -78 157 -11 295 198 403 177 91 260 101 841 104 236 1 346
-2 440 -14z m-10220 -20 c52 -7 107 -14 121 -14 43 0 166 -68 223 -123 70 -70
96 -126 96 -208 0 -121 -84 -238 -221 -307 -96 -49 -147 -58 -299 -56 l-135 2
-3 356 -2 357 22 9 c24 10 37 9 198 -16z m3314 -22 c-5 -5 -22 -19 -39 -31
-51 -37 -144 -133 -167 -170 l-22 -35 -7 30 c-15 73 -95 137 -232 185 l-82 29
279 0 c154 0 276 -4 270 -8z m5465 -613 l56 -62 -75 6 c-41 4 -121 10 -177 13
l-101 7 46 37 c51 39 89 85 117 139 l17 34 30 -56 c17 -31 56 -84 87 -118z
m-5653 40 c21 -29 64 -69 97 -90 l60 -39 -226 0 c-125 0 -227 2 -227 4 0 2 30
21 66 42 70 41 143 114 166 164 l13 30 6 -29 c3 -16 23 -53 45 -82z m2483 69
c15 -32 87 -111 131 -141 25 -18 25 -18 -24 -12 -27 3 -96 5 -153 5 l-105 0
40 48 c21 26 50 66 63 89 13 24 26 43 29 43 3 0 11 -14 19 -32z m-5049 -102
c24 -21 88 -60 143 -86 l99 -47 -53 4 c-30 2 -152 10 -272 18 -119 8 -225 15
-235 15 -11 0 -4 8 18 21 69 42 137 99 169 144 l33 46 27 -38 c15 -21 47 -56
71 -77z m5171 -116 c57 -6 187 -24 289 -41 177 -29 203 -31 620 -39 318 -6
462 -13 535 -25 183 -29 272 -64 352 -138 62 -57 83 -102 83 -180 0 -122 -74
-225 -218 -300 -130 -68 -144 -70 -567 -72 -312 -2 -391 -5 -440 -19 -50 -13
-121 -16 -420 -16 -389 0 -509 7 -740 46 -271 45 -326 64 -389 134 -117 130
-113 286 11 420 85 92 154 133 257 153 47 10 117 29 154 44 37 14 85 29 107
33 61 11 251 11 366 0z m3089 -16 c273 -28 385 -35 475 -29 50 3 200 12 335
21 285 19 459 14 572 -15 97 -25 129 -42 178 -93 52 -52 69 -112 77 -259 10
-196 -18 -261 -130 -298 -276 -91 -618 -112 -1167 -70 -168 13 -442 24 -705
29 -454 8 -503 13 -596 60 -129 66 -190 196 -144 306 55 132 250 288 385 309
25 4 81 16 125 27 44 12 103 24 130 29 64 10 279 2 465 -17z m1838 -10 l91 -7
-57 -39 c-70 -49 -127 -103 -153 -146 -20 -32 -39 -35 -39 -6 0 44 -63 135
-125 181 l-30 22 111 1 c61 0 152 -3 202 -6z m-10368 -19 c118 -8 283 -20 365
-26 83 -5 312 -14 510 -19 253 -6 380 -13 427 -24 118 -26 185 -72 225 -154
87 -177 -41 -391 -297 -497 -52 -21 -91 -29 -195 -36 -71 -5 -173 -16 -225
-23 -119 -17 -437 -7 -1122 36 l-198 12 0 368 0 367 128 4 c70 1 136 4 147 5
11 1 117 -5 235 -13z m2925 -2 c1100 -29 1002 -24 1064 -58 280 -154 295 -426
33 -598 l-67 -44 -177 -12 c-183 -12 -303 -29 -398 -57 -46 -14 -116 -17 -435
-18 l-380 -1 -105 28 c-64 16 -192 37 -329 52 -257 29 -279 37 -387 138 -174
162 -137 314 118 483 95 63 153 84 241 85 39 1 97 4 127 9 79 10 50 11 695 -7z
m-1062 0 c4 -3 -17 -23 -46 -42 -82 -55 -139 -105 -176 -155 l-34 -45 -22 47
c-27 59 -100 127 -168 157 l-52 23 80 6 c44 4 91 8 105 10 52 6 307 6 313 -1z
m8797 -357 c0 -209 -4 -357 -9 -361 -15 -9 -141 42 -200 82 -164 108 -236 260
-181 380 53 118 243 250 363 252 l27 1 0 -354z m-6310 318 l245 -17 -66 -66
c-90 -90 -123 -160 -128 -268 -3 -75 0 -89 27 -145 16 -35 48 -84 71 -110 l43
-48 -110 0 c-60 0 -165 -3 -233 -7 l-124 -6 66 65 c92 91 134 176 133 273 -1
59 -6 84 -31 137 -33 71 -86 135 -147 180 -48 34 -67 34 254 12z m3215 -16
c-62 -49 -133 -125 -164 -174 l-29 -44 -26 44 c-34 57 -101 116 -181 158 l-65
33 193 5 c105 3 219 6 252 7 l60 2 -40 -31z m-5875 -550 c71 -72 71 -77 -5
-78 -16 0 -71 -9 -121 -19 -49 -11 -119 -23 -155 -26 l-64 -7 44 30 c67 46
140 122 174 180 l30 53 15 -33 c9 -18 46 -63 82 -100z m5756 -9 c16 -15 44
-36 62 -46 l32 -20 -127 -6 c-71 -4 -150 -9 -178 -13 l-50 -7 50 41 c53 42 81
76 109 130 l17 34 28 -44 c16 -23 41 -55 57 -69z m2897 -16 c31 -28 79 -64
107 -80 l51 -30 -88 -6 c-48 -4 -198 -9 -333 -12 l-245 -5 110 29 c210 55 239
77 281 220 3 8 15 -1 32 -25 16 -22 54 -62 85 -91z m-8406 -127 c60 -21 319
-64 483 -80 147 -14 191 -26 301 -81 27 -14 54 -23 59 -20 6 4 10 2 10 -2 0
-5 27 -28 60 -51 33 -24 72 -60 86 -81 l25 -39 -16 -63 c-10 -37 -15 -81 -11
-104 5 -39 3 -42 -69 -111 -40 -39 -80 -71 -87 -72 -7 0 -42 -13 -78 -27 -35
-15 -82 -29 -105 -30 -22 -2 -137 -8 -255 -13 -118 -6 -264 -19 -325 -29 -211
-35 -663 -14 -1250 58 -192 24 -246 42 -318 108 -61 56 -70 83 -65 189 7 142
64 234 185 296 84 42 149 56 267 56 61 1 145 7 186 15 41 8 120 19 175 25 248
26 295 32 380 50 111 23 304 27 362 6z m5911 -11 c279 -43 506 -156 573 -286
49 -97 30 -203 -51 -292 -63 -69 -135 -107 -290 -152 -145 -42 -200 -50 -405
-65 -82 -6 -181 -17 -220 -26 -152 -33 -200 -37 -405 -31 -298 9 -556 36 -877
92 -206 36 -304 77 -386 161 -69 71 -87 207 -39 300 31 61 122 140 207 181 98
46 152 52 500 53 154 1 312 5 350 10 39 4 142 16 230 25 88 10 162 21 165 26
19 29 463 32 648 4z m682 15 c102 -5 205 -13 230 -16 l45 -6 -40 -13 c-92 -27
-186 -103 -247 -198 l-32 -50 -15 24 c-59 91 -162 168 -302 224 -44 18 -83 35
-86 39 -10 9 240 7 447 -4z m-3660 -38 c167 -29 454 -81 569 -102 98 -18 180
-82 201 -158 15 -54 12 -181 -5 -239 -18 -60 -84 -139 -148 -176 -55 -33 -164
-65 -255 -76 -52 -7 -116 -5 -225 6 -118 12 -305 16 -837 17 -605 1 -695 4
-775 19 -181 35 -289 80 -349 147 -29 32 -36 47 -31 64 4 11 10 60 13 107 6
71 12 93 35 128 46 70 117 130 202 172 l80 40 175 5 c205 6 306 18 375 47 41
17 81 22 230 27 345 14 550 6 745 -28z m-4935 -38 c216 -35 353 -114 386 -223
32 -106 -80 -266 -247 -353 -152 -80 -362 -132 -504 -126 l-75 3 -3 350 c-1
192 0 356 3 363 6 16 311 7 440 -14z m9652 10 c278 -14 335 -14 622 0 174 9
346 16 384 16 l67 0 0 -359 c0 -198 -3 -362 -8 -365 -13 -8 -198 -8 -427 0
-136 4 -347 2 -550 -5 -366 -14 -702 -4 -805 25 -144 41 -270 139 -323 252
-35 76 -34 123 7 207 54 109 153 185 277 211 171 36 339 40 756 18z m-9049
-29 c2 -1 -17 -14 -42 -29 -24 -14 -63 -47 -86 -73 -37 -42 -43 -46 -52 -30
-21 38 -72 89 -114 113 -24 14 -44 28 -44 30 0 4 333 -7 338 -11z m5317 -18
c-16 -12 -59 -51 -94 -86 -36 -35 -67 -59 -69 -53 -10 30 -65 92 -107 120
l-48 31 144 4 c79 1 158 3 174 4 l30 2 -30 -22z m-2748 -47 c-36 -33 -75 -76
-87 -96 l-22 -34 -38 39 c-51 52 -139 111 -156 104 -8 -3 -14 0 -14 6 0 6 -12
17 -27 25 -26 14 -9 15 191 16 l219 0 -66 -60z m-2764 -457 c9 -17 40 -52 69
-77 l53 -46 -125 0 c-114 0 -259 -11 -335 -26 -16 -3 16 18 72 46 71 36 124
71 170 115 62 57 69 61 74 41 3 -11 13 -35 22 -53z m8171 42 c19 -35 119 -135
166 -167 24 -17 23 -17 -65 -18 -49 0 -153 -7 -230 -15 -77 -8 -158 -14 -180
-14 -38 0 -38 1 -15 11 117 51 157 74 203 117 30 28 62 67 73 86 10 19 21 35
24 35 3 0 14 -16 24 -35z m-2696 -147 c25 -17 78 -44 116 -60 l71 -29 -240 5
c-132 2 -248 7 -258 11 -15 6 -10 13 30 40 54 36 118 103 135 141 l12 25 44
-51 c24 -28 64 -65 90 -82z m-2692 -10 c35 -16 64 -32 64 -34 0 -2 -90 -4
-200 -4 -169 0 -200 2 -200 15 0 9 6 12 15 9 20 -8 70 25 124 80 l44 45 44
-40 c25 -22 73 -54 109 -71z m-2531 -78 c204 -19 382 -60 500 -116 57 -27 242
-177 269 -220 11 -16 21 -53 23 -89 5 -58 4 -62 -34 -110 -39 -49 -86 -90
-130 -113 -53 -29 -495 -108 -763 -138 -195 -21 -672 -30 -793 -15 -51 6 -111
14 -135 17 l-43 5 3 87 3 87 100 38 c178 70 272 89 410 84 143 -5 211 -25 413
-122 72 -35 132 -60 132 -55 0 23 -53 148 -87 204 -204 336 -594 385 -847 104
-30 -33 -67 -84 -83 -114 -15 -30 -31 -54 -36 -54 -4 0 -6 105 -5 232 l3 233
40 7 c22 4 112 10 200 13 134 4 260 15 460 38 67 8 297 6 400 -3z m3669 -20
c13 0 -11 -17 -58 -43 -50 -26 -108 -69 -155 -114 -41 -40 -76 -71 -76 -70
-36 61 -126 139 -226 192 l-61 32 68 -4 c38 -2 150 0 249 5 99 5 193 8 209 6
16 -2 38 -4 50 -4z m4616 -1 c41 -6 181 -14 310 -19 257 -9 304 -17 425 -75
138 -66 203 -150 192 -248 -7 -72 -43 -162 -81 -205 -51 -58 -233 -133 -431
-177 -38 -8 -146 -20 -240 -25 -93 -5 -233 -15 -310 -21 -109 -10 -221 -10
-500 -1 -489 16 -679 41 -928 119 -136 43 -185 77 -213 148 -37 97 5 248 89
320 77 66 136 87 266 97 64 5 172 18 241 29 72 12 245 26 405 35 154 8 314 18
355 23 106 12 331 12 420 0z m-5440 -13 c225 -31 389 -111 474 -234 l27 -40
-16 -57 c-14 -48 -15 -64 -5 -101 12 -42 11 -45 -19 -83 -35 -44 -104 -97
-168 -130 -49 -24 -247 -63 -458 -88 -124 -15 -231 -18 -610 -18 -573 0 -799
12 -908 49 -125 42 -226 117 -269 200 -29 57 -43 178 -24 214 36 70 180 164
322 211 79 26 109 30 259 36 186 7 477 31 540 44 71 15 737 12 855 -3z m6699
-10 c-78 -32 -164 -93 -226 -158 l-51 -55 -32 49 c-36 54 -99 107 -171 140
-26 13 -48 26 -49 30 0 8 131 12 420 15 l165 2 -56 -23z m-5350 -6 c104 -7
239 -7 410 -1 151 6 289 6 336 1 44 -5 243 -9 442 -9 497 -1 624 -19 808 -114
83 -43 205 -148 231 -198 57 -111 -72 -253 -315 -348 -106 -42 -188 -53 -471
-61 -151 -4 -290 -13 -309 -18 -32 -11 -415 -5 -1156 17 -262 8 -286 10 -370
35 -140 42 -246 98 -321 169 l-65 62 15 59 c12 44 13 69 6 103 -13 55 -8 64
72 139 70 65 175 125 283 161 76 25 65 25 404 3z m-3504 -5 c99 -8 216 -15
260 -16 135 -2 139 -7 48 -58 -43 -25 -104 -71 -135 -103 -32 -32 -58 -54 -58
-49 0 16 -208 186 -261 214 -29 15 -49 27 -44 27 6 0 91 -7 190 -15z m9368 -2
c4 -2 7 -166 7 -364 l0 -359 -57 0 c-95 0 -382 46 -471 75 -288 96 -350 294
-150 481 104 97 191 138 355 168 71 14 292 13 316 -1z m-3576 -63 l114 0 -48
-47 c-26 -27 -57 -66 -68 -88 -11 -22 -21 -42 -22 -44 -2 -2 -34 26 -73 62
-38 37 -94 81 -122 98 l-53 31 79 -6 c43 -3 130 -6 193 -6z m-6958 -129 c88
-27 141 -62 212 -140 65 -71 123 -159 98 -148 -244 103 -309 121 -444 121
-110 0 -171 -11 -303 -54 -48 -15 -89 -27 -90 -25 -8 7 58 92 104 135 127 118
276 157 423 111z m1397 -422 c22 -20 61 -50 87 -66 l48 -30 -113 -9 c-127 -10
-394 -9 -478 2 l-55 7 105 23 c135 31 182 55 255 129 l60 61 26 -40 c15 -23
44 -57 65 -77z m8319 102 c8 -27 76 -95 125 -126 48 -31 173 -81 224 -90 21
-4 34 -11 29 -15 -12 -11 -233 6 -246 19 -7 7 -75 11 -193 11 -99 0 -202 3
-228 6 l-47 7 89 37 c49 20 105 46 125 58 38 24 97 86 97 102 0 18 18 10 25
-9z m-2723 -73 c42 -42 59 -51 170 -86 142 -46 145 -44 -82 -67 -165 -16 -515
-21 -524 -6 -3 4 14 14 37 21 101 30 277 140 314 196 16 25 18 26 28 8 5 -10
31 -40 57 -66z m-3075 12 c40 -36 100 -76 156 -105 l92 -46 -100 6 c-55 4
-176 12 -269 19 l-170 11 63 38 c34 22 83 61 109 87 26 27 49 49 50 49 2 1 33
-26 69 -59z m31 -200 c40 -6 170 -13 290 -15 438 -7 648 -20 753 -48 209 -55
302 -113 330 -206 16 -52 11 -62 -95 -210 -145 -200 -209 -254 -332 -275 -43
-8 -115 -23 -159 -35 -150 -38 -562 -52 -849 -30 -89 7 -181 21 -251 39 -60
16 -164 33 -230 40 -81 7 -167 24 -265 52 -246 68 -305 106 -374 238 -69 130
-66 220 9 307 63 74 187 116 435 149 123 16 619 12 738 -6z m-2758 -14 c80 0
199 2 265 4 66 2 239 1 385 -2 234 -5 274 -8 340 -27 185 -55 337 -172 414
-319 49 -95 45 -127 -24 -194 -39 -38 -64 -52 -131 -73 -220 -69 -455 -104
-854 -124 -560 -30 -661 -33 -794 -27 -155 8 -292 36 -372 76 -141 72 -257
169 -290 245 -17 38 -18 53 -10 104 25 157 172 293 362 336 52 12 112 14 314
8 138 -4 315 -7 395 -7z m6525 -1 c157 -25 300 -85 384 -161 70 -63 90 -106
93 -197 2 -62 -2 -81 -25 -129 -52 -105 -226 -238 -313 -238 -48 0 -159 -25
-240 -54 -102 -37 -240 -49 -503 -43 -193 3 -253 9 -411 35 -238 40 -351 49
-704 57 -306 7 -382 17 -476 65 -61 31 -121 89 -143 139 -60 135 77 357 281
459 64 31 87 37 151 39 42 2 175 8 296 14 176 9 249 9 365 -2 198 -18 460 -15
660 9 204 24 461 27 585 7z m2100 -2 c64 -13 124 -16 300 -13 121 1 265 3 320
4 l100 1 3 -372 c2 -348 1 -373 -16 -382 -43 -23 -189 -42 -415 -53 -275 -13
-389 -7 -647 36 -218 36 -361 53 -537 66 -305 21 -545 129 -633 284 -37 63
-41 145 -11 205 31 60 118 139 196 176 70 33 71 33 260 40 105 3 213 10 240
14 28 5 210 9 405 10 297 1 368 -2 435 -16z m-9546 -16 c-57 -40 -89 -70 -126
-121 -25 -33 -46 -62 -47 -63 -1 -2 -27 20 -56 47 -30 27 -82 65 -117 82 -60
31 -62 33 -36 39 16 4 73 8 128 9 55 1 134 5 175 9 70 6 89 5 79 -2z m2496
-30 c-75 -64 -95 -108 -95 -213 l-1 -89 -32 60 c-41 77 -155 189 -240 239 -37
21 -67 39 -67 40 0 0 108 1 240 1 l240 0 -45 -38z m2780 25 l49 -7 -52 -33
c-28 -19 -77 -61 -107 -94 -31 -33 -57 -59 -58 -57 -2 2 -15 23 -30 47 -33 51
-88 92 -164 122 -32 13 -61 26 -66 30 -9 8 358 1 428 -8z m2708 8 l137 0 -74
-72 c-40 -40 -78 -81 -83 -91 -8 -15 -17 -10 -69 41 -33 32 -89 75 -124 96
l-65 38 70 -6 c39 -3 132 -6 208 -6z m-8598 -26 c163 -37 319 -118 374 -194
27 -37 29 -47 25 -93 -8 -77 -55 -165 -119 -226 -101 -95 -350 -191 -497 -191
l-68 0 0 358 c0 197 2 361 5 364 10 10 212 -3 280 -18z m3056 -425 c56 -111
130 -176 254 -220 l50 -18 -90 1 c-49 0 -180 5 -290 11 l-200 12 64 24 c48 17
79 38 118 77 52 52 53 53 53 113 0 34 2 61 5 61 3 0 19 -28 36 -61z m2661
-164 c27 -30 58 -57 69 -60 47 -15 7 -20 -161 -20 l-179 -1 53 56 c28 30 72
83 96 118 l45 63 14 -51 c10 -36 29 -68 63 -105z m-5232 64 c0 -12 145 -116
213 -154 37 -20 67 -39 67 -42 0 -7 -553 5 -626 13 l-52 6 89 44 c93 47 183
121 220 181 l22 35 33 -38 c18 -22 33 -42 34 -45z m8223 -38 c44 -29 120 -71
172 -93 28 -11 22 -13 -70 -19 -55 -3 -171 -4 -257 -1 l-158 5 60 54 c33 30
76 81 97 114 l37 60 39 -46 c21 -25 58 -58 80 -74z m-5608 -156 c132 -8 301
-15 376 -15 99 0 164 -6 235 -21 55 -11 157 -29 227 -39 154 -23 203 -46 298
-140 86 -85 135 -180 125 -242 -9 -56 -44 -114 -99 -165 -90 -83 -189 -114
-429 -133 -85 -6 -173 -20 -235 -37 -95 -25 -108 -26 -465 -30 -273 -4 -380
-2 -420 8 -30 7 -137 13 -244 15 -181 3 -196 5 -285 33 -166 54 -285 144 -338
256 -19 41 -21 57 -15 114 8 80 31 128 92 194 177 190 490 243 1177 202z
m2880 -26 c61 -5 173 -9 250 -9 132 0 257 -10 745 -59 430 -43 484 -55 547
-124 103 -112 74 -289 -70 -424 -35 -33 -86 -70 -113 -83 -55 -26 -129 -32
-644 -50 -151 -5 -304 -14 -340 -21 -41 -7 -214 -12 -475 -13 -365 -1 -419 1
-490 17 -53 13 -148 21 -285 27 -128 5 -219 13 -242 21 -132 49 -245 219 -223
337 27 148 238 294 468 323 43 5 114 21 158 35 133 42 391 50 714 23z m3310
-14 c187 -31 359 -53 556 -69 90 -8 189 -22 219 -31 156 -49 277 -139 300
-225 16 -61 8 -215 -14 -257 -38 -75 -122 -115 -267 -128 -41 -4 -135 -17
-209 -30 -74 -13 -212 -31 -305 -41 -163 -17 -176 -17 -300 0 -90 13 -242 21
-495 26 -339 8 -373 10 -475 34 -65 15 -172 30 -259 36 -121 8 -160 15 -201
34 -244 111 -236 383 17 550 40 26 78 40 152 55 54 12 130 31 170 43 67 21 90
22 453 23 210 1 386 5 390 9 10 10 86 1 268 -29z m-7279 -8 c-50 -32 -118 -90
-156 -135 l-43 -50 -32 47 c-17 25 -55 65 -84 88 -61 51 -60 51 94 56 236 7
241 7 221 -6z m-1806 -7 c96 -5 386 -10 645 -11 572 -2 684 -8 744 -38 63 -33
127 -96 155 -155 23 -46 24 -57 17 -119 -13 -102 -71 -177 -201 -262 -156
-102 -283 -151 -457 -176 -72 -11 -167 -31 -209 -45 -104 -34 -293 -46 -498
-34 -211 13 -643 79 -674 103 -9 7 -12 88 -10 366 l3 355 60 12 c76 15 204 16
425 4z m10678 -373 c2 -266 0 -337 -10 -337 -33 0 -208 55 -251 78 -93 50
-167 159 -167 247 0 70 30 127 109 205 42 42 100 88 130 104 48 26 131 46 171
42 13 -1 15 -47 18 -339z m-6068 317 c0 0 -25 -18 -55 -39 -78 -53 -140 -126
-165 -193 -44 -116 -4 -255 104 -365 30 -30 52 -58 49 -61 -9 -9 -117 -7 -318
5 -242 14 -238 13 -182 50 101 67 166 164 175 261 4 53 1 66 -33 134 -26 53
-58 97 -104 143 l-66 66 297 0 c164 0 298 0 298 -1z m5725 -56 c-32 -29 -72
-74 -90 -101 l-33 -48 -21 34 c-27 44 -85 97 -140 128 l-44 24 134 5 c74 3
160 7 192 8 l59 2 -57 -52z m-2822 -11 c-27 -29 -55 -63 -62 -75 -15 -28 -27
-28 -35 1 -3 13 -24 44 -46 70 l-41 46 38 4 c21 2 74 4 117 5 l79 2 -50 -53z
m-5812 -510 c30 -27 89 -66 133 -87 l79 -38 -48 -8 c-44 -6 -175 -3 -495 12
-69 3 -132 8 -140 10 -8 3 21 24 70 50 102 55 170 105 230 170 l45 49 36 -55
c20 -31 60 -77 90 -103z m5809 1 l34 -26 -45 -6 c-24 -3 -90 -7 -147 -9 l-102
-4 53 56 c29 31 63 73 76 94 l23 37 38 -58 c20 -32 52 -70 70 -84z m2835 -30
c23 -15 68 -40 100 -54 40 -17 50 -24 29 -20 -18 3 -113 8 -212 12 l-180 7 42
31 c47 36 85 89 93 128 5 26 6 26 47 -24 22 -28 59 -64 81 -80z m-2558 -83
c81 -19 280 -45 344 -45 87 0 204 -72 245 -152 25 -48 28 -126 9 -219 -30
-148 -95 -253 -178 -283 -64 -24 -376 -56 -538 -56 -107 0 -168 -5 -239 -21
-80 -17 -144 -21 -410 -26 -319 -5 -446 2 -585 31 -38 9 -122 18 -185 22 -192
10 -346 61 -448 149 -82 71 -120 183 -87 261 46 111 191 219 345 259 81 21
443 44 689 45 114 0 223 6 290 16 236 35 637 45 748 19z m-3562 -26 c81 -7
224 -9 338 -6 145 5 226 2 300 -8 56 -8 174 -19 262 -26 151 -10 164 -13 235
-47 92 -43 211 -157 253 -243 65 -131 13 -295 -115 -360 -59 -30 -284 -42
-628 -35 -306 7 -434 -1 -570 -33 -75 -18 -118 -21 -367 -21 -226 0 -293 3
-340 16 -32 9 -112 18 -178 21 -110 5 -124 8 -165 34 -69 43 -136 117 -167
184 -51 111 -34 202 62 331 82 110 134 138 280 154 128 13 336 48 344 56 7 8
265 -2 456 -17z m6315 -32 l135 -12 0 -345 0 -345 -60 -8 c-33 -4 -125 -17
-205 -29 -136 -20 -169 -21 -535 -14 -395 6 -467 11 -631 40 -50 9 -161 20
-246 25 -149 7 -156 9 -230 44 -191 92 -286 257 -221 383 28 53 92 110 158
140 61 28 292 59 550 74 88 5 205 18 260 30 182 38 677 46 1025 17z m-1685 -6
l70 -7 -70 -8 c-92 -10 -139 -23 -198 -52 -87 -44 -153 -117 -183 -203 l-13
-36 -1 62 c0 83 -29 156 -82 210 l-42 43 224 -1 c124 -1 257 -4 295 -8z
m-7208 -17 c94 -4 236 -2 315 4 105 8 203 8 373 -1 225 -12 232 -13 297 -44
37 -17 87 -50 113 -74 25 -23 48 -39 51 -36 4 3 14 -8 24 -26 9 -18 31 -57 48
-87 35 -61 40 -111 18 -164 -14 -33 -86 -144 -86 -132 0 3 -24 -7 -52 -23 -57
-32 -215 -79 -343 -104 -44 -9 -161 -18 -260 -22 -99 -3 -205 -11 -235 -16
-209 -38 -919 2 -1175 67 -106 27 -238 98 -306 164 l-62 60 5 50 c7 73 59 170
120 225 72 65 127 89 243 108 55 9 141 28 190 41 87 24 98 25 320 20 127 -2
307 -7 402 -10z m4213 -15 c-65 -40 -127 -98 -165 -154 l-38 -55 -32 48 c-33
49 -149 162 -166 162 -5 0 -9 3 -9 8 0 4 100 8 223 10 l222 3 -35 -22z m-5996
-28 c211 -33 285 -60 358 -133 136 -136 86 -335 -107 -424 -63 -29 -272 -60
-462 -70 l-143 -7 0 338 0 338 83 -7 c45 -4 167 -20 271 -35z m3273 -10 c-50
-54 -105 -136 -128 -191 -8 -20 -14 -68 -14 -110 0 -64 5 -85 32 -143 19 -40
56 -92 89 -127 l56 -59 -34 -5 c-80 -13 -396 -36 -490 -35 l-103 0 100 33
c121 39 165 61 165 82 0 10 6 14 14 11 18 -7 77 56 107 115 12 23 24 69 26
103 6 71 -7 110 -70 202 -31 47 -46 61 -59 57 -13 -4 -18 0 -18 14 0 11 -21
37 -47 60 l-48 40 234 1 233 0 -45 -48z m-2712 -83 c-25 -28 -53 -65 -62 -81
l-15 -29 -20 33 c-11 19 -41 55 -66 82 l-46 47 128 0 128 0 -47 -52z m8068
-311 c30 -66 75 -118 148 -172 l56 -41 -201 -13 c-111 -6 -219 -14 -241 -17
-35 -4 -38 -3 -21 8 75 52 99 74 131 120 36 53 84 185 86 236 1 16 4 9 9 -20
5 -26 19 -71 33 -101z m-8008 -173 c25 -14 45 -27 43 -28 -2 -1 -81 1 -177 4
l-174 5 41 29 c23 16 58 50 78 76 l36 47 54 -53 c30 -29 75 -65 99 -80z m5370
-11 l60 -32 -150 -1 c-82 0 -161 -3 -175 -7 -23 -6 -21 -3 16 40 22 25 51 66
64 90 l23 43 51 -51 c28 -27 78 -65 111 -82z m-5190 -102 c280 -48 440 -119
559 -252 24 -27 54 -69 65 -93 21 -42 21 -44 4 -111 -31 -120 -132 -207 -289
-250 -233 -65 -521 -90 -904 -81 -232 6 -540 28 -578 41 -9 3 -12 24 -10 71
l3 67 65 24 c312 117 475 107 799 -48 68 -32 126 -57 128 -55 8 7 -49 143 -87
206 -72 121 -174 210 -297 257 -56 21 -85 26 -163 26 -151 0 -261 -52 -377
-176 -34 -37 -65 -67 -68 -67 -3 0 -5 92 -5 205 0 204 0 205 23 209 39 8 308
38 412 47 184 14 586 3 720 -20z m5559 -6 c61 -8 162 -21 225 -29 100 -12 124
-19 206 -60 97 -48 225 -155 287 -240 49 -68 36 -135 -44 -222 -58 -63 -120
-98 -233 -133 -206 -64 -308 -82 -505 -91 -113 -5 -214 -15 -260 -25 -117 -28
-637 -14 -970 25 -47 5 -152 15 -235 21 -366 26 -587 112 -683 264 -20 31 -25
51 -23 97 1 31 -4 77 -10 102 -10 42 -9 49 16 91 34 59 103 108 187 135 53 17
110 23 280 31 117 5 288 14 380 19 92 6 277 11 410 11 134 1 317 5 408 9 296
12 450 10 564 -5z m2681 5 c22 -5 132 -16 245 -25 211 -17 272 -28 367 -70
121 -54 196 -132 227 -235 59 -198 -15 -255 -469 -355 -369 -82 -496 -89 -865
-50 -197 21 -339 29 -625 35 -395 9 -442 14 -549 65 -112 53 -187 148 -200
253 -6 44 -3 62 15 100 34 71 134 164 221 205 72 35 77 36 293 52 121 10 223
19 227 21 4 3 109 -1 235 -7 189 -9 257 -9 398 4 197 17 422 21 480 7z m-5545
-34 c35 -10 94 -16 166 -16 103 0 115 -2 170 -30 64 -32 141 -100 178 -158 19
-30 25 -56 30 -133 6 -94 6 -96 -25 -142 -45 -68 -140 -151 -215 -188 -59 -29
-79 -34 -190 -41 -134 -8 -222 -25 -298 -58 -114 -48 -696 -49 -1080 0 -83 10
-182 22 -221 25 -181 16 -376 113 -479 240 -33 40 -36 49 -30 82 24 135 163
280 327 343 61 24 94 29 212 35 77 4 193 13 259 20 84 10 194 12 375 9 212 -4
289 -2 446 15 207 22 291 21 375 -3z m-2060 -21 c102 -8 212 -16 245 -17 l60
-3 -56 -36 c-60 -40 -151 -127 -177 -171 -9 -15 -19 -28 -22 -28 -4 0 -21 22
-38 49 -40 62 -129 144 -199 183 -29 16 -53 32 -53 34 0 7 46 5 240 -11z
m9378 -337 l-3 -353 -140 -13 c-302 -28 -480 12 -601 133 -54 54 -94 138 -94
198 1 138 210 307 440 356 50 11 229 26 353 30 l47 1 -2 -352z m-6670 300
c-24 -24 -53 -55 -64 -70 l-19 -28 -67 66 c-38 37 -68 68 -68 70 0 2 59 4 131
4 l132 0 -45 -42z m3126 3 c-55 -43 -102 -99 -131 -154 l-20 -36 -64 66 c-35
36 -95 87 -133 114 l-69 49 233 0 233 0 -49 -39z m2885 26 l65 -2 -60 -37
c-78 -48 -147 -110 -185 -165 l-31 -44 -28 58 c-30 64 -76 116 -145 163 -25
17 -45 32 -45 33 0 2 332 -2 429 -6z m-9927 -216 c70 -24 129 -61 183 -116 48
-47 121 -152 113 -161 -3 -3 -45 12 -94 32 -248 103 -410 109 -661 25 -46 -15
-83 -24 -83 -20 0 4 21 35 46 68 53 71 149 143 226 171 73 26 197 26 270 1z
m3968 -360 c51 -41 144 -88 215 -111 90 -28 60 -32 -210 -26 -148 3 -290 9
-314 13 l-45 8 44 29 c60 40 137 112 172 164 l30 43 29 -40 c15 -22 51 -58 79
-80z m2979 83 c33 -48 94 -96 165 -132 l58 -29 -133 -12 c-74 -7 -190 -23
-259 -37 -69 -13 -174 -27 -235 -29 -125 -6 -124 -5 71 54 117 35 200 89 261
170 21 27 40 50 43 50 3 1 16 -15 29 -35z m2782 -25 c27 -55 100 -127 169
-167 l55 -33 -55 6 c-113 11 -400 25 -545 25 l-150 1 145 37 c166 43 274 89
321 138 18 19 34 34 36 34 1 0 12 -19 24 -41z m-8459 -8 c30 -38 143 -129 186
-149 28 -14 30 -17 15 -23 -23 -10 -283 -11 -402 -2 l-92 6 63 31 c40 20 86
55 128 98 36 36 68 67 72 67 4 1 17 -12 30 -28z m6350 -190 c206 -36 373 -102
489 -194 70 -56 139 -156 139 -202 0 -19 4 -45 10 -60 37 -97 -214 -306 -400
-334 -119 -18 -492 -36 -755 -36 -326 0 -1001 21 -1119 35 -197 23 -383 114
-474 232 -42 54 -44 59 -46 133 -3 70 -1 80 27 121 38 57 132 134 211 172 54
26 81 31 226 43 91 8 293 14 450 14 271 0 291 1 415 27 122 25 228 37 520 57
182 12 185 12 307 -8z m659 -17 c136 -13 266 -24 290 -24 l44 0 -35 -22 c-130
-81 -207 -136 -249 -178 l-48 -48 -46 54 c-85 101 -162 152 -367 242 -34 15
92 8 411 -24z m-4615 -30 c184 -19 348 -21 714 -10 412 12 635 -15 805 -98 85
-42 147 -94 179 -149 21 -36 24 -54 23 -127 -2 -73 -6 -92 -29 -131 -15 -26
-50 -67 -78 -92 -57 -52 -84 -59 -265 -76 -61 -5 -155 -19 -210 -30 -116 -24
-398 -47 -746 -61 -211 -9 -252 -8 -295 5 -94 29 -229 45 -379 45 -157 0 -206
8 -369 57 -70 21 -98 36 -136 70 -97 87 -136 222 -91 311 24 48 95 114 191
179 72 48 82 52 185 67 61 9 146 25 190 35 103 24 131 24 311 5z m6139 -6 c79
-7 229 -10 380 -8 138 2 284 4 325 4 l75 1 3 -383 2 -382 -27 -11 c-46 -17
-337 -30 -538 -23 -195 7 -204 8 -365 44 -85 19 -131 22 -435 25 -371 3 -460
13 -584 62 -93 37 -183 96 -236 156 -59 65 -71 89 -78 160 -5 53 -3 60 27 100
33 44 194 159 281 202 58 28 178 54 308 65 124 12 700 3 862 -12z m-8733 5
c77 -5 95 -9 91 -20 -4 -10 1 -13 18 -9 116 26 480 36 576 16 26 -5 118 -16
203 -24 221 -21 416 -70 555 -139 121 -59 155 -100 155 -184 0 -99 -84 -210
-203 -267 -74 -36 -317 -105 -412 -116 -97 -13 -559 -37 -855 -46 -196 -6
-224 -5 -315 15 -55 12 -171 28 -257 35 -127 12 -168 19 -212 39 -119 55 -233
152 -260 221 -7 17 -12 71 -11 121 1 79 4 96 30 143 16 29 45 67 64 84 70 62
203 110 352 127 92 10 352 13 481 4z m-1321 -32 c76 -26 133 -63 202 -130 90
-87 119 -138 122 -218 3 -54 -1 -75 -20 -112 -27 -54 -105 -130 -162 -159 -60
-31 -208 -70 -308 -82 -49 -5 -107 -13 -127 -16 l-38 -6 0 369 c0 204 3 373 8
378 14 15 264 -3 323 -24z m342 9 l182 -1 -30 -21 c-50 -36 -110 -105 -129
-147 l-18 -40 -38 47 c-36 46 -95 103 -156 150 -17 14 -22 21 -11 18 10 -3
100 -6 200 -6z m5441 -37 c75 -6 76 -6 52 -22 -33 -22 -94 -79 -130 -121 -25
-30 -29 -32 -38 -16 -21 38 -72 87 -130 126 l-60 40 114 0 c63 0 150 -3 192
-7z m-2634 -24 c-86 -69 -126 -107 -150 -146 l-28 -44 -21 35 c-29 46 -76 80
-174 126 l-82 39 210 3 c116 2 224 4 240 5 l30 2 -25 -20z m-160 -426 c44
-100 129 -176 235 -209 l60 -19 -60 -6 c-76 -9 -366 -8 -510 0 l-110 6 65 24
c128 46 236 131 277 216 9 19 18 35 19 35 2 0 12 -21 24 -47z m2829 -143 c33
-24 59 -45 58 -46 -1 -1 -40 5 -87 12 -47 7 -115 13 -152 13 -38 1 -68 5 -68
9 0 5 14 21 31 38 17 16 42 48 56 72 l25 42 38 -48 c21 -26 66 -68 99 -92z
m2780 100 c83 -104 279 -206 434 -226 73 -10 41 -19 -142 -39 -164 -19 -248
-15 -531 23 l-125 17 77 43 c83 45 184 133 218 188 12 19 25 34 29 34 4 0 22
-18 40 -40z m-8064 -146 l50 -29 -100 -3 c-55 -2 -127 2 -161 8 -33 5 -81 10
-105 11 l-44 0 25 17 c42 29 120 104 137 133 l16 27 66 -67 c36 -37 89 -81
116 -97z m5335 -63 c153 -28 457 -58 660 -65 624 -24 928 -98 992 -242 16 -38
18 -52 9 -99 -11 -56 -32 -107 -59 -137 -14 -17 -50 -18 -478 -18 l-462 0 -43
78 c-57 104 -171 218 -259 259 -148 70 -282 70 -430 1 -84 -40 -211 -165 -259
-258 -19 -36 -39 -68 -45 -72 -6 -4 -210 -8 -453 -8 l-442 0 -24 32 c-66 88
-77 160 -38 241 28 57 106 136 170 170 69 38 250 84 381 97 63 6 158 20 210
30 129 25 404 21 570 -9z m-5570 -21 c25 -6 134 -10 243 -10 140 0 216 -4 262
-15 86 -20 282 -45 350 -45 88 0 257 -68 370 -148 78 -55 164 -133 170 -153
11 -33 -6 -126 -26 -148 -19 -21 -28 -21 -404 -21 l-384 0 -42 83 c-55 106
-174 229 -267 275 -155 76 -344 66 -482 -27 -95 -63 -201 -192 -244 -294 l-15
-38 -78 3 -78 3 0 240 0 239 110 23 c175 37 420 53 515 33z m3318 -25 c54 -8
172 -19 262 -25 188 -13 218 -24 319 -115 76 -70 111 -127 111 -185 0 -48 -12
-73 -64 -128 -59 -64 -43 -62 -526 -62 -287 0 -440 3 -440 10 0 6 4 10 8 10
17 0 123 114 162 174 38 57 106 213 97 222 -2 2 -60 -23 -128 -55 -68 -33
-167 -75 -219 -93 -88 -30 -105 -32 -220 -32 -137 1 -195 14 -409 95 -58 21
-106 39 -107 39 -2 0 10 -29 26 -65 40 -90 97 -170 169 -238 33 -32 61 -60 61
-63 0 -2 -200 -4 -444 -4 l-444 0 -32 27 c-31 25 -32 29 -28 88 8 130 115 272
253 336 118 56 218 64 715 61 239 -1 476 2 525 7 142 13 247 12 353 -4z m1037
-28 c-183 -135 -244 -286 -172 -424 15 -29 27 -55 27 -58 0 -3 -49 -5 -110 -5
-60 0 -110 2 -110 5 0 3 16 25 35 50 87 115 67 216 -70 352 l-73 71 102 6 c55
3 162 10 236 15 74 4 142 8 150 9 8 0 2 -9 -15 -21z m5095 -1 l286 -23 64 -34
c81 -43 172 -127 199 -183 25 -51 28 -159 7 -211 l-15 -35 -455 0 c-251 0
-456 2 -456 5 0 3 18 30 40 58 39 53 112 198 125 249 7 28 7 28 -117 -32 -339
-162 -486 -169 -833 -41 -71 26 -131 47 -133 45 -7 -5 73 -153 114 -211 24
-34 44 -64 44 -67 0 -4 -219 -5 -487 -4 l-487 3 -24 40 c-33 57 -28 146 14
236 95 201 262 243 725 182 296 -39 470 -37 769 10 124 19 250 35 280 36 30 0
183 -10 340 -23z m-7820 -14 c-57 -38 -129 -115 -165 -177 l-38 -65 -56 53
c-59 56 -146 118 -221 158 l-45 24 190 11 c105 6 228 11 275 12 83 1 84 1 60
-16z m5751 -28 c-28 -26 -63 -66 -77 -90 -14 -24 -28 -44 -30 -44 -2 0 -22 18
-44 40 -39 39 -119 85 -195 111 -38 13 -30 14 135 19 96 3 195 7 219 8 l43 2
-51 -46z m3154 -209 l0 -230 -185 -3 c-102 -1 -194 0 -205 2 -48 12 -75 168
-41 235 19 36 91 101 149 135 62 37 226 96 257 93 l25 -2 0 -230z m-431 215
l151 0 -62 -41 c-34 -22 -80 -60 -102 -85 l-39 -45 -22 36 c-12 19 -49 60 -83
91 -61 56 -62 56 -28 50 18 -3 102 -6 185 -6z m-9949 -115 c119 -31 218 -107
295 -226 22 -34 38 -64 36 -66 -1 -2 -33 10 -69 26 -241 108 -416 120 -659 47
-62 -19 -114 -33 -116 -32 -1 2 18 31 44 65 120 159 298 230 469 186z m5637
-16 c81 -17 153 -55 220 -117 54 -50 144 -169 135 -179 -2 -2 -46 15 -98 36
-240 100 -420 107 -659 26 -41 -14 -77 -25 -82 -25 -16 0 49 84 108 141 112
105 242 146 376 118z m-2662 -34 c0 -3 -16 -31 -36 -62 -47 -74 -126 -150
-195 -188 -53 -29 -57 -30 -194 -30 -135 0 -142 1 -198 29 -32 16 -79 50 -106
76 -50 48 -114 130 -107 137 2 3 47 -9 98 -26 135 -43 216 -55 332 -48 105 5
216 36 336 91 57 26 70 30 70 21z m5969 -141 c-19 -30 -55 -76 -81 -100 l-47
-44 -270 0 -270 0 -35 31 c-39 34 -111 127 -104 134 3 3 31 -4 64 -16 252 -87
439 -82 677 20 51 21 94 37 96 35 2 -2 -11 -29 -30 -60z m-8834 -83 c50 -18
98 -35 108 -38 57 -18 -20 -23 -353 -23 -203 0 -370 4 -370 8 0 9 175 66 250
82 25 5 97 8 160 6 98 -3 128 -8 205 -35z m5642 -15 c45 -15 85 -31 88 -36 4
-6 -109 -10 -311 -10 -183 0 -314 4 -308 9 12 11 95 38 175 56 97 22 253 14
356 -19z"/>
<path d="M5863 8475 c-161 -44 -290 -160 -385 -349 -21 -43 -38 -80 -36 -82 2
-1 55 17 118 41 245 93 395 114 551 77 83 -20 244 -84 363 -144 l59 -30 -7 29
c-14 53 -83 188 -129 250 -130 175 -345 259 -534 208z m210 -60 c89 -23 156
-62 222 -129 58 -57 123 -151 113 -162 -3 -2 -34 9 -69 25 -35 16 -102 41
-149 57 -78 26 -97 28 -230 28 -150 0 -161 -2 -374 -71 -19 -6 -19 -6 0 27 34
61 137 155 205 189 103 50 186 61 282 36z"/>
<path d="M9287 8400 c-321 -158 -470 -164 -821 -34 -66 24 -121 42 -124 40 -8
-9 69 -155 113 -214 230 -306 629 -300 850 12 51 72 66 102 99 190 17 44 21
66 13 65 -7 0 -65 -27 -130 -59z m-3 -117 c-46 -78 -149 -175 -229 -213 -58
-28 -84 -34 -156 -38 -111 -6 -194 20 -282 87 -54 40 -164 167 -154 177 2 2
26 -5 54 -16 122 -46 215 -64 338 -64 137 0 211 17 361 82 49 21 91 38 92 36
2 -1 -9 -24 -24 -51z"/>
<path d="M3665 8364 c-335 -162 -488 -167 -847 -29 -50 19 -94 35 -98 35 -14
0 38 -109 85 -181 112 -167 267 -259 440 -259 181 0 331 86 444 255 41 62 119
232 109 240 -2 1 -61 -26 -133 -61z m-10 -119 c-38 -64 -116 -147 -173 -184
-84 -53 -155 -73 -252 -69 -107 5 -194 43 -276 120 -49 46 -114 127 -114 141
0 3 41 -8 90 -24 258 -83 433 -72 685 41 33 15 62 26 63 24 2 -1 -8 -23 -23
-49z"/>
<path d="M5005 7619 c-66 -31 -163 -72 -215 -91 -90 -31 -103 -33 -230 -32
-148 0 -199 12 -414 93 -56 21 -102 37 -104 36 -7 -5 55 -127 94 -187 226
-340 656 -343 882 -5 43 65 120 233 111 241 -2 2 -58 -23 -124 -55z m5 -78 c0
-20 -85 -134 -133 -176 -179 -162 -417 -163 -593 -3 -54 50 -120 135 -112 144
3 2 31 -5 64 -17 248 -86 446 -80 672 20 97 43 102 45 102 32z"/>
<path d="M1866 7609 c-116 -27 -251 -128 -330 -247 -35 -53 -96 -172 -96 -187
0 -2 45 14 100 35 369 141 522 135 867 -30 68 -32 123 -55 123 -49 0 26 -83
196 -123 252 -131 183 -344 272 -541 226z m290 -93 c53 -25 94 -55 138 -98 56
-57 124 -153 115 -163 -2 -2 -46 15 -98 36 -240 103 -421 108 -675 20 -33 -12
-61 -19 -64 -17 -8 8 55 91 104 137 143 133 315 164 480 85z"/>
<path d="M7286 7639 c-119 -24 -241 -104 -322 -212 -43 -58 -129 -215 -122
-223 2 -1 52 15 111 37 376 138 524 130 881 -48 48 -24 90 -42 92 -40 8 8 -56
158 -92 215 -42 67 -122 152 -181 193 -97 68 -254 101 -367 78z m232 -80 c64
-22 166 -93 208 -145 42 -54 86 -125 81 -131 -3 -2 -27 5 -54 17 -264 118
-438 129 -696 44 -43 -14 -81 -23 -84 -20 -10 10 76 115 130 158 127 101 269
127 415 77z"/>
<path d="M10879 7605 c-320 -151 -471 -157 -810 -30 -67 25 -124 44 -126 41
-2 -2 14 -39 35 -82 104 -207 248 -324 436 -354 193 -31 413 88 525 284 26 45
91 190 91 202 0 9 -23 0 -151 -61z m0 -121 c-47 -78 -149 -170 -228 -207 -53
-25 -82 -32 -151 -35 -103 -4 -179 17 -265 73 -53 36 -140 128 -166 177 -10
19 -9 20 7 13 52 -21 178 -57 254 -71 151 -29 309 -5 490 75 47 21 87 36 89
34 2 -1 -11 -28 -30 -59z"/>
<path d="M6300 6781 c-118 -38 -211 -105 -286 -204 -43 -57 -92 -145 -114
-203 l-9 -24 67 26 c246 95 349 118 486 111 125 -6 221 -35 405 -123 74 -35
135 -64 137 -64 10 0 -72 183 -107 236 -80 123 -217 225 -339 253 -68 16 -178
12 -240 -8z m235 -57 c76 -19 136 -54 203 -118 47 -45 136 -165 128 -173 -2
-2 -40 12 -85 32 -245 104 -401 114 -643 41 -62 -19 -114 -33 -116 -32 -6 7
88 125 123 153 119 99 256 133 390 97z"/>
<path d="M9750 6828 c-365 -172 -503 -179 -860 -43 -63 24 -116 42 -118 40 -9
-9 94 -188 142 -247 203 -246 536 -263 756 -38 36 37 80 92 98 123 35 59 94
196 90 207 -2 4 -50 -15 -108 -42z m-14 -94 c-3 -8 -22 -40 -42 -70 -102 -154
-287 -243 -446 -215 -78 13 -171 58 -231 111 -48 43 -123 138 -115 146 3 2 39
-6 79 -19 144 -47 223 -60 342 -55 117 5 232 36 352 93 61 28 69 30 61 9z"/>
<path d="M648 6831 c-119 -38 -224 -122 -304 -242 -36 -54 -94 -167 -94 -183
0 -2 44 13 98 34 281 111 458 128 650 65 42 -14 137 -55 211 -90 133 -65 133
-65 127 -37 -4 15 -29 72 -56 127 -79 164 -204 281 -347 325 -83 26 -206 26
-285 1z m253 -57 c70 -20 132 -57 193 -113 45 -42 126 -153 126 -172 0 -4 -26
4 -57 18 -102 45 -223 82 -309 94 -105 15 -210 2 -365 -45 -60 -18 -109 -30
-109 -25 0 28 146 176 205 207 97 50 218 65 316 36z"/>
<path d="M3925 6750 c-66 -32 -163 -73 -215 -91 -90 -32 -102 -33 -235 -33
-154 0 -186 7 -398 86 -59 22 -110 38 -113 35 -4 -3 16 -48 42 -99 68 -129
177 -240 289 -294 68 -32 93 -38 164 -42 257 -14 455 138 567 435 13 35 23 63
21 62 -1 0 -56 -27 -122 -59z m-22 -122 c-44 -82 -138 -169 -228 -214 -73 -36
-83 -38 -169 -38 -106 0 -166 6 -166 16 0 4 -19 17 -42 29 -23 12 -69 47 -101
78 -64 60 -130 148 -105 139 66 -26 196 -61 272 -74 147 -26 288 -3 461 74 50
22 94 40 98 41 5 1 -4 -22 -20 -51z"/>
<path d="M2020 6021 c-118 -38 -211 -105 -286 -204 -43 -57 -92 -145 -114
-202 l-9 -24 67 26 c415 158 564 153 932 -32 51 -25 93 -45 95 -43 8 8 -67
174 -105 232 -50 78 -147 171 -216 208 -107 58 -256 74 -364 39z m235 -57 c76
-19 135 -54 204 -118 48 -45 136 -164 128 -172 -2 -2 -41 12 -88 32 -258 109
-433 115 -693 25 -33 -12 -61 -19 -63 -17 -8 7 87 125 128 158 119 96 249 128
384 92z"/>
<path d="M7630 5979 c-68 -11 -203 -77 -252 -124 -66 -62 -127 -144 -169 -227
-22 -44 -38 -82 -36 -84 2 -3 60 16 128 41 345 129 474 124 813 -32 76 -35
140 -62 142 -60 2 2 -6 28 -17 58 -78 206 -213 351 -380 408 -68 24 -158 31
-229 20z m253 -96 c79 -38 165 -114 219 -197 21 -33 38 -62 38 -66 0 -4 -41
10 -90 31 -246 106 -414 114 -664 30 -47 -16 -86 -25 -86 -21 0 19 95 132 138
163 105 77 169 98 287 94 77 -2 100 -7 158 -34z"/>
<path d="M5250 5975 c-74 -35 -173 -77 -220 -92 -77 -25 -98 -28 -220 -27
-149 1 -213 15 -412 94 -54 21 -98 33 -98 28 0 -15 68 -146 99 -192 42 -60
154 -162 209 -190 87 -44 158 -59 251 -53 221 13 389 150 495 403 20 48 35 88
34 89 -2 2 -64 -26 -138 -60z m-7 -117 c-15 -28 -55 -79 -88 -113 -206 -209
-501 -186 -685 53 -28 36 -49 67 -47 69 2 2 45 -10 95 -26 124 -41 201 -54
312 -53 107 1 220 29 350 87 41 18 79 34 83 34 5 1 -4 -22 -20 -51z"/>
<path d="M10965 5994 c-335 -162 -481 -168 -838 -33 -60 22 -111 38 -114 36
-3 -3 16 -45 41 -94 78 -151 165 -239 296 -302 66 -31 86 -36 171 -39 196 -8
348 75 468 253 41 62 119 232 109 240 -2 1 -61 -26 -133 -61z m-10 -118 c-184
-313 -561 -342 -776 -58 -27 36 -48 66 -46 68 1 2 52 -13 112 -32 149 -47 259
-61 368 -45 86 12 208 49 307 93 30 14 57 24 58 22 2 -1 -8 -23 -23 -48z"/>
<path d="M9370 5188 c-365 -173 -500 -179 -871 -40 -57 22 -105 38 -107 37 -7
-6 52 -123 93 -186 271 -406 789 -318 970 165 14 38 24 70 23 72 -2 1 -50 -20
-108 -48z m-10 -86 c0 -5 -23 -41 -50 -80 -175 -250 -469 -291 -680 -95 -56
51 -117 129 -109 138 3 2 45 -9 95 -25 130 -42 211 -53 333 -48 110 6 229 37
346 93 56 26 65 29 65 17z"/>
<path d="M3655 5189 c-182 -88 -290 -121 -411 -127 -137 -6 -240 17 -486 112
l-68 26 25 -57 c153 -346 461 -482 748 -331 74 39 179 142 225 220 35 60 94
197 90 208 -2 4 -57 -19 -123 -51z m-21 -126 c-44 -76 -140 -166 -221 -207
-189 -95 -406 -33 -547 155 -26 34 -45 63 -44 65 2 1 54 -13 117 -32 237 -72
409 -61 640 41 42 19 77 32 80 30 2 -2 -9 -26 -25 -52z"/>
<path d="M5878 5195 c-164 -41 -294 -158 -390 -349 -21 -43 -38 -80 -36 -82 3
-2 51 14 109 36 197 76 280 95 414 94 145 -1 218 -21 424 -120 74 -35 136 -62
138 -60 8 7 -57 162 -88 211 -78 124 -186 214 -304 256 -77 27 -192 33 -267
14z m195 -60 c123 -26 221 -96 302 -215 27 -38 46 -72 44 -74 -2 -3 -54 15
-114 39 -234 94 -403 99 -635 20 -41 -14 -77 -25 -82 -25 -18 0 27 65 86 125
88 87 197 138 311 144 11 0 51 -6 88 -14z"/>
<path d="M4660 4371 c-95 -30 -142 -61 -226 -145 -62 -63 -91 -102 -128 -174
-26 -52 -45 -96 -42 -99 3 -3 56 14 118 37 196 73 285 92 418 87 136 -4 223
-30 424 -126 69 -33 126 -59 126 -58 0 1 -9 27 -21 57 -87 230 -219 368 -408
424 -72 21 -191 20 -261 -3z m314 -85 c40 -19 93 -54 119 -76 43 -39 144 -176
135 -185 -2 -3 -47 14 -99 36 -239 103 -418 110 -671 23 -40 -13 -73 -24 -75
-24 -11 0 68 101 109 141 95 91 198 131 326 125 72 -3 94 -9 156 -40z"/>
<path d="M2430 4346 c-119 -61 -255 -115 -346 -137 -158 -38 -311 -16 -564 81
-58 22 -106 40 -107 40 -8 0 63 -140 95 -187 49 -71 141 -160 206 -198 229
-134 517 -51 682 196 44 66 121 240 106 239 -4 -1 -36 -16 -72 -34z m-62 -137
c-13 -22 -51 -71 -85 -108 -168 -183 -401 -209 -592 -65 -56 42 -158 161 -147
171 3 3 40 -7 83 -21 244 -81 422 -75 653 23 52 22 99 40 103 41 4 0 -3 -18
-15 -41z"/>
<path d="M7845 4320 c-322 -158 -469 -164 -819 -34 -66 24 -122 42 -124 39 -3
-3 11 -38 32 -79 115 -233 295 -361 506 -359 224 3 416 155 516 411 20 50 28
82 21 81 -7 0 -66 -27 -132 -59z m-10 -127 c-47 -74 -76 -106 -147 -159 -162
-120 -381 -111 -537 23 -43 36 -135 152 -128 160 2 2 21 -4 41 -12 70 -29 221
-65 301 -71 127 -10 276 22 438 96 34 15 64 26 65 24 2 -1 -13 -29 -33 -61z"/>
<path d="M10365 4394 c-176 -27 -336 -157 -436 -356 -22 -44 -39 -82 -36 -84
2 -2 57 16 123 40 356 132 493 126 831 -34 69 -33 128 -58 130 -56 2 2 -10 39
-26 82 -70 180 -206 324 -362 382 -56 21 -169 34 -224 26z m202 -85 c71 -26
167 -93 209 -145 41 -52 87 -125 81 -130 -3 -3 -42 11 -88 30 -255 104 -403
111 -661 30 -44 -14 -82 -24 -84 -21 -8 8 83 122 122 152 101 79 168 104 281
105 60 0 98 -6 140 -21z"/>
<path d="M3805 3560 c-66 -33 -163 -74 -215 -91 -86 -30 -106 -33 -215 -33
-136 -1 -226 20 -414 93 -58 22 -107 39 -109 37 -7 -8 78 -164 122 -223 105
-139 263 -223 420 -223 56 0 149 25 216 57 73 36 205 169 248 250 38 72 85
193 74 192 -4 0 -61 -27 -127 -59z m-7 -112 c-36 -67 -164 -191 -229 -221
-155 -73 -313 -52 -454 60 -51 41 -142 149 -133 159 3 3 41 -6 84 -20 266 -85
437 -75 694 43 25 11 49 21 53 21 5 0 -2 -19 -15 -42z"/>
<path d="M6298 3566 c-88 -31 -186 -102 -248 -179 -50 -62 -138 -222 -128
-232 3 -3 53 12 112 34 356 134 502 128 850 -38 l125 -59 -23 62 c-76 201
-179 322 -341 398 -63 29 -81 33 -175 36 -91 2 -114 -1 -172 -22z m339 -81
c89 -44 181 -130 226 -213 32 -59 38 -59 -77 -8 -88 40 -218 75 -304 82 -93 8
-218 -12 -347 -55 -49 -17 -91 -29 -93 -27 -9 10 102 137 156 178 86 65 162
89 274 85 77 -3 95 -7 165 -42z"/>
<path d="M9715 3569 c-215 -106 -363 -141 -513 -120 -88 13 -222 52 -351 103
-40 16 -76 26 -79 23 -3 -3 13 -42 36 -88 255 -502 825 -460 1026 76 17 44 21
67 13 66 -7 0 -66 -27 -132 -60z m-1 -116 c-45 -77 -149 -175 -229 -214 -66
-32 -75 -34 -180 -34 -105 0 -114 2 -180 34 -73 36 -183 136 -217 197 l-18 32
104 -33 c250 -80 413 -71 653 33 48 21 90 37 91 36 2 -1 -9 -24 -24 -51z"/>
<path d="M703 3575 c-161 -44 -290 -160 -385 -349 -21 -43 -38 -80 -36 -82 2
-1 55 17 118 41 160 61 260 86 366 92 144 9 251 -20 497 -135 59 -28 107 -47
107 -42 0 18 -60 155 -92 208 -46 78 -151 181 -224 219 -114 61 -239 78 -351
48z m258 -75 c73 -27 143 -75 195 -133 47 -53 100 -134 92 -143 -3 -2 -35 9
-71 25 -133 60 -224 83 -344 89 -120 5 -198 -8 -342 -55 -40 -13 -76 -21 -79
-19 -9 10 82 119 133 159 58 46 134 84 197 97 58 12 159 3 219 -20z"/>
<path d="M7575 2823 c-194 -28 -352 -153 -451 -360 -20 -41 -34 -76 -32 -79 3
-2 58 16 124 40 353 131 490 125 827 -36 70 -34 129 -59 131 -57 2 2 -11 42
-29 88 -58 145 -160 272 -270 337 -85 50 -217 79 -300 67z m228 -101 c79 -39
162 -112 211 -187 58 -86 57 -87 -44 -44 -156 67 -228 84 -365 83 -122 0 -196
-14 -338 -63 l-58 -20 18 30 c54 91 163 182 263 219 44 16 74 20 151 17 84 -2
103 -6 162 -35z"/>
<path d="M5297 2784 c-118 -61 -279 -122 -367 -140 -146 -29 -292 -6 -530 85
-57 22 -106 38 -108 36 -8 -7 48 -117 94 -186 120 -180 320 -280 505 -252 139
22 285 118 373 246 30 43 116 223 116 242 0 10 -16 4 -83 -31z m-59 -136 c-13
-23 -52 -73 -87 -110 -186 -199 -450 -203 -639 -11 -37 38 -75 82 -85 100
l-17 32 87 -30 c218 -73 370 -78 555 -16 59 20 125 45 145 56 59 31 68 27 41
-21z"/>
<path d="M11045 2744 c-335 -162 -477 -169 -829 -38 -66 24 -122 42 -124 39
-3 -3 11 -38 32 -79 114 -231 292 -358 501 -358 228 0 424 156 524 417 17 43
30 79 28 80 -1 1 -60 -26 -132 -61z m-10 -116 c-112 -173 -249 -258 -414 -258
-135 0 -269 73 -364 199 -26 35 -46 65 -44 67 2 2 21 -3 41 -11 70 -29 221
-65 301 -71 126 -10 279 24 445 98 30 14 57 24 59 22 2 -2 -9 -23 -24 -46z"/>
<path d="M2185 2793 c-145 -20 -275 -99 -369 -224 -47 -62 -123 -205 -114
-214 2 -3 58 15 124 39 351 130 492 124 827 -36 70 -34 129 -59 131 -57 2 2
-10 40 -28 85 -98 242 -271 387 -486 406 -30 3 -68 4 -85 1z m180 -83 c73 -25
138 -67 191 -122 40 -42 114 -145 114 -160 0 -4 -29 6 -64 21 -267 121 -449
128 -729 32 l-58 -20 18 30 c31 53 111 135 162 168 112 72 249 91 366 51z"/>
<path d="M5963 1985 c-157 -34 -301 -157 -391 -332 -29 -57 -50 -103 -46 -103
4 0 59 20 123 44 351 134 516 125 859 -48 52 -26 97 -46 101 -44 11 4 -45 139
-87 212 -51 89 -155 187 -243 229 -73 35 -164 58 -223 56 -17 0 -59 -7 -93
-14z m279 -93 c85 -41 155 -105 213 -191 25 -38 45 -71 45 -74 0 -2 -41 13
-90 34 -247 106 -423 114 -673 30 -48 -16 -87 -27 -87 -25 0 15 64 95 112 140
98 93 182 125 319 121 85 -2 103 -6 161 -35z"/>
<path d="M9305 2029 c-322 -158 -480 -165 -826 -33 -64 24 -119 44 -123 44 -4
0 17 -46 46 -102 124 -243 344 -375 562 -339 206 34 370 189 464 439 13 34 16
52 9 51 -7 0 -66 -27 -132 -60z m-2 -111 c-43 -80 -146 -179 -228 -219 -66
-32 -75 -34 -180 -34 -103 0 -114 2 -178 32 -72 34 -161 111 -208 180 -16 23
-29 44 -29 46 0 3 39 -8 87 -24 254 -85 429 -77 670 30 48 21 89 39 91 40 2 1
-9 -23 -25 -51z"/>
<path d="M3665 1939 c-66 -33 -163 -73 -215 -91 -84 -28 -108 -32 -210 -32
-131 -1 -205 16 -399 88 -64 24 -117 40 -119 36 -5 -13 57 -130 104 -196 201
-284 548 -321 783 -84 74 74 118 144 162 250 30 75 34 91 22 89 -5 0 -62 -27
-128 -60z m15 -78 c0 -21 -86 -135 -133 -176 -214 -188 -493 -148 -672 96 -19
26 -35 49 -35 52 0 2 37 -8 83 -23 250 -84 431 -78 662 23 89 39 95 41 95 28z"/>
<path d="M7865 1159 c-66 -33 -163 -74 -215 -91 -88 -29 -105 -32 -225 -32
-143 1 -196 12 -407 93 -56 21 -105 38 -106 36 -2 -2 15 -42 38 -89 75 -153
197 -272 337 -327 82 -32 232 -33 318 -1 159 59 289 196 364 386 17 42 31 79
31 81 0 10 -16 3 -135 -56z m15 -74 c0 -3 -16 -31 -36 -62 -108 -170 -291
-263 -456 -234 -79 14 -171 58 -230 110 -47 42 -124 138 -116 146 2 2 40 -7
83 -21 251 -80 415 -73 646 24 99 42 109 45 109 37z"/>
<path d="M4580 1147 c-140 -47 -264 -162 -344 -316 -25 -49 -46 -93 -46 -99 0
-5 57 13 128 39 191 72 289 93 420 87 128 -6 222 -34 416 -127 69 -33 126 -58
126 -56 0 3 -14 39 -31 82 -82 208 -219 344 -398 397 -79 23 -192 20 -271 -7z
m246 -51 c66 -17 144 -60 199 -108 44 -39 142 -174 133 -183 -3 -3 -35 8 -71
25 -100 45 -207 78 -296 90 -124 17 -222 1 -465 -77 -50 -16 107 160 182 204
99 58 216 76 318 49z"/>
<path d="M10471 1150 c-112 -24 -236 -106 -316 -209 -42 -56 -132 -218 -123
-226 1 -1 56 17 122 41 198 74 264 89 401 88 145 -1 218 -21 424 -120 74 -35
136 -62 138 -60 2 2 -11 41 -29 87 -75 189 -205 324 -363 380 -68 24 -188 33
-254 19z m244 -81 c100 -37 193 -121 270 -242 10 -15 16 -29 14 -32 -3 -2 -55
16 -116 41 -62 25 -142 51 -180 59 -140 30 -295 15 -474 -45 -34 -12 -64 -19
-66 -16 -9 8 65 103 115 147 53 47 147 95 213 109 61 12 159 3 224 -21z"/>
<path d="M2335 1109 c-66 -32 -163 -73 -215 -91 -89 -31 -103 -33 -230 -32
-148 0 -199 12 -414 93 -56 21 -102 37 -104 36 -1 -1 9 -28 24 -61 177 -402
592 -508 874 -224 36 36 80 91 98 122 35 60 94 197 90 208 -2 4 -57 -19 -123
-51z m-21 -126 c-15 -26 -56 -76 -90 -111 -179 -179 -426 -187 -610 -20 -54
50 -120 135 -112 144 3 2 31 -5 64 -17 253 -88 436 -83 675 20 52 21 96 38 98
36 2 -2 -9 -26 -25 -52z"/>
</g>
</svg>
