<?xml version="1.0" standalone="no"?>
<!DOCTYPE svg PUBLIC "-//W3C//DTD SVG 20010904//EN"
 "http://www.w3.org/TR/2001/REC-SVG-20010904/DTD/svg10.dtd">
<svg version="1.0" xmlns="http://www.w3.org/2000/svg"
 width="1125.000000pt" height="900.000000pt" viewBox="0 0 1125.000000 900.000000"
 preserveAspectRatio="xMidYMid meet">
<metadata>
Created by potrace 1.13, written by Peter Selinger 2001-2015
</metadata>
<g transform="translate(0.000000,900.000000) scale(0.100000,-0.100000)"
fill="#000000" stroke="none">
<path d="M0 4500 l0 -4500 5625 0 5625 0 0 4500 0 4500 -5625 0 -5625 0 0
-4500z m723 4453 c5 -9 -62 -816 -68 -821 -2 -2 -140 81 -307 185 l-303 190
-3 214 c-1 117 0 219 2 226 4 10 78 13 340 13 184 0 337 -3 339 -7z m1059 -4
c11 -6 122 -85 246 -176 l225 -165 391 167 c215 92 393 171 394 176 2 5 75 9
163 9 127 0 159 -3 159 -14 0 -7 -16 -80 -35 -162 -19 -82 -35 -155 -35 -161
0 -10 94 -13 439 -13 l439 0 187 170 c103 94 197 172 209 175 11 3 165 4 341
3 l320 -3 80 -157 79 -157 324 -172 323 -172 355 133 c195 73 354 136 354 141
0 4 -58 90 -130 191 -71 101 -130 187 -130 191 0 5 66 6 148 3 81 -3 167 -6
192 -5 25 0 128 1 230 2 l185 2 182 -69 183 -69 102 69 103 69 180 -2 c99 -1
203 -2 230 -2 28 0 637 2 1355 5 718 2 1314 2 1325 0 12 -3 80 -86 165 -203
l145 -198 3 -159 3 -158 -35 -33 c-46 -41 -46 -68 -1 -111 l35 -33 0 -100 c0
-56 -4 -101 -9 -101 -5 0 -113 67 -240 149 -222 143 -237 151 -372 196 -77 26
-142 45 -144 44 -25 -27 -225 -365 -221 -375 3 -7 102 -140 221 -294 139 -180
221 -278 228 -273 7 4 126 82 264 175 139 92 257 168 263 168 6 0 10 -34 10
-85 l0 -85 -35 0 c-22 0 -43 -8 -55 -20 -44 -44 -8 -120 58 -120 l34 0 -4 -92
-3 -93 -108 -139 c-59 -76 -107 -141 -107 -145 0 -3 39 -21 88 -40 48 -18 97
-40 110 -47 l22 -14 0 -385 c0 -212 -4 -385 -8 -385 -4 0 -20 25 -35 55 -15
30 -30 55 -34 55 -5 0 -169 -122 -366 -269 l-358 -269 316 -249 c174 -136 319
-249 324 -251 4 -1 39 56 77 128 38 71 72 130 77 130 4 0 6 -341 5 -757 l-3
-757 -110 -79 c-60 -43 -118 -85 -128 -92 -18 -12 -17 -26 8 -381 l27 -369
-53 -322 c-29 -177 -50 -325 -47 -329 4 -4 74 -30 155 -59 l148 -53 3 -311 c1
-181 -2 -311 -7 -311 -5 0 -78 54 -162 119 -85 66 -156 117 -159 115 -3 -3
-64 -195 -137 -427 l-131 -422 186 -267 c103 -147 190 -268 193 -268 3 0 50
38 105 85 54 47 102 85 107 85 4 0 6 -109 5 -242 l-3 -243 -335 0 -335 0 -172
87 -172 88 -47 -68 c-78 -111 -80 -112 -146 -112 -53 0 -73 10 -48 25 17 11
11 64 -10 85 -26 26 -81 26 -104 1 -19 -21 -23 -44 -13 -83 l7 -28 -110 0
c-69 0 -110 4 -110 10 0 6 64 102 142 213 77 111 149 213 159 227 17 25 16 28
-121 344 l-137 318 -284 219 c-156 120 -287 219 -291 219 -10 0 -490 -879
-484 -888 2 -4 203 -93 445 -196 l439 -189 55 -131 c30 -72 52 -134 50 -139
-2 -4 -391 -7 -863 -7 l-859 0 -17 35 c-32 69 -115 58 -138 -18 -5 -16 -28
-17 -348 -15 -227 2 -342 6 -341 13 1 6 5 37 8 70 l7 60 -298 234 c-165 129
-305 239 -312 244 -7 5 -15 7 -18 4 -3 -3 -52 -131 -110 -284 -57 -153 -111
-293 -119 -311 l-15 -32 -305 0 c-203 0 -305 3 -305 10 0 6 25 65 55 131 53
118 54 120 32 128 -12 5 -141 56 -287 115 -145 58 -267 102 -271 98 -4 -4 -75
-110 -159 -237 -84 -126 -158 -233 -164 -237 -6 -5 -141 -7 -301 -5 l-290 2
-3 260 -2 260 -157 92 c-109 64 -160 88 -165 80 -5 -8 -8 -7 -8 4 0 20 -329
215 -340 202 -4 -4 -55 -142 -114 -306 l-108 -298 35 -142 c20 -77 33 -145 31
-149 -3 -4 -22 -8 -42 -8 -26 0 -42 7 -57 25 -33 40 -67 42 -108 5 -33 -29
-40 -31 -99 -28 l-63 3 -31 85 c-23 60 -37 84 -47 82 -9 -1 -116 -39 -239 -85
l-223 -81 -387 -4 c-253 -2 -388 0 -388 7 0 5 43 103 95 218 52 114 91 209 86
211 -6 2 -1217 -285 -1342 -318 l-36 -10 5 -55 5 -55 -209 2 -209 3 -3 78 c-3
71 -1 81 23 108 32 38 32 69 0 107 -24 29 -25 36 -25 162 l0 132 30 26 30 26
0 341 0 341 -30 26 -30 26 0 331 c0 181 3 332 8 334 4 3 79 -22 167 -54 88
-32 165 -58 171 -58 14 -1 500 646 496 660 -7 27 -379 609 -389 609 -7 0 -10
6 -8 13 3 6 -87 158 -199 337 -173 278 -206 325 -225 322 l-21 -3 0 532 c0
312 4 529 9 524 5 -6 100 -181 211 -390 111 -209 206 -384 210 -388 8 -9 740
323 740 335 0 4 -113 108 -251 231 l-251 223 -325 27 c-179 15 -329 30 -334
33 -5 3 -9 43 -9 89 l0 83 29 -29 c52 -52 121 -26 121 44 0 77 -97 99 -134 30
-14 -26 -15 -17 -16 131 0 149 2 162 25 215 l26 57 -25 54 c-26 55 -26 56 -26
334 l0 278 29 -31 c31 -33 50 -38 84 -20 30 16 37 28 37 66 0 22 -8 38 -26 52
-37 29 -61 26 -95 -10 l-29 -31 0 191 c0 105 4 191 9 191 4 0 30 -9 57 -21 44
-18 55 -30 103 -109 102 -168 215 -298 299 -347 80 -47 202 -22 379 78 101 57
265 218 310 304 85 163 84 316 -4 475 -34 63 -112 168 -149 202 -14 12 -123
32 -429 77 -226 34 -420 64 -432 66 -19 4 -32 -7 -75 -65 -29 -38 -56 -70 -60
-70 -5 0 -8 92 -8 204 0 168 3 206 15 216 13 11 13 15 0 33 -13 18 -15 75 -15
339 0 175 2 318 5 318 3 0 152 -92 332 -204 180 -113 329 -203 331 -201 3 3
80 879 82 928 0 12 968 9 992 -4z m1103 2 c-6 -5 -148 -69 -316 -141 l-307
-131 -178 131 c-99 72 -180 135 -182 140 -2 6 177 10 494 10 309 0 494 -4 489
-9z m1555 0 c0 -5 -67 -71 -150 -145 l-150 -136 -385 0 c-301 0 -385 3 -385
13 0 25 54 252 63 265 7 9 121 12 508 12 298 0 499 -4 499 -9z m1967 -13 c11
-13 71 -95 132 -183 96 -136 109 -160 94 -166 -265 -101 -586 -219 -596 -219
-6 0 -145 71 -307 158 l-295 157 -67 130 c-36 71 -64 133 -61 137 2 5 246 8
542 8 l538 0 20 -22z m4801 -125 c1 -79 -1 -143 -5 -142 -10 0 -197 257 -201
276 -3 11 17 13 100 11 l103 -3 3 -142z m-602 -677 c66 -23 134 -59 250 -134
275 -175 349 -226 352 -244 2 -12 -66 -63 -253 -188 -141 -94 -263 -174 -270
-176 -8 -4 -83 85 -204 243 -174 226 -189 249 -178 268 7 11 49 77 93 147 67
109 82 127 99 122 11 -4 61 -21 111 -38z m-10011 -806 l400 -60 39 -42 c54
-59 111 -149 137 -217 17 -42 23 -78 23 -147 1 -85 -1 -95 -36 -165 -46 -92
-112 -172 -203 -244 -124 -99 -316 -179 -386 -162 -69 18 -188 149 -311 344
-66 105 -68 107 -130 132 -35 14 -69 30 -76 34 -9 6 -12 59 -12 201 l0 193 73
96 c39 53 74 97 77 97 3 0 185 -27 405 -60z m10615 -1671 l0 -169 -59 -112
c-33 -62 -73 -137 -88 -166 l-29 -52 -255 200 c-140 110 -254 204 -254 209 0
5 133 109 295 231 l295 221 47 -97 48 -97 0 -168z m-10748 -725 l218 -17 207
-185 c115 -101 209 -187 211 -191 4 -11 -591 -282 -600 -273 -9 9 -368 680
-368 689 0 3 26 3 58 0 31 -3 155 -14 274 -23z m-214 -1399 c101 -162 190
-295 197 -295 8 0 12 -6 9 -14 -3 -8 75 -141 172 -297 98 -156 178 -291 178
-299 0 -11 -288 -406 -429 -588 -2 -2 -76 24 -166 56 l-164 59 -3 814 c-1 448
0 824 3 837 3 12 9 22 13 22 4 -1 89 -133 190 -295z m10962 -570 c0 -421 -2
-765 -4 -765 -3 0 -57 18 -120 41 -94 33 -116 45 -116 61 0 10 21 144 47 296
l46 277 -12 190 c-7 105 -18 268 -25 364 l-12 173 90 64 c49 35 93 64 98 64 4
0 8 -344 8 -765z m-150 -1431 c74 -57 138 -110 142 -117 10 -15 10 -778 0
-793 -14 -22 -196 -173 -203 -168 -4 2 -69 93 -145 202 -76 108 -146 208 -156
222 -18 25 -18 28 92 380 132 422 118 380 127 380 4 0 69 -48 143 -106z
m-1710 -227 l252 -194 127 -296 128 -295 -113 -162 c-62 -89 -119 -168 -125
-176 -10 -12 -20 4 -53 83 l-41 98 -428 184 c-417 179 -427 184 -414 205 7 11
103 184 212 384 109 199 200 362 202 362 1 0 115 -87 253 -193z m-5682 -527
c75 -44 143 -78 149 -75 7 2 13 -1 13 -8 0 -7 61 -48 135 -91 l135 -78 -2
-242 -3 -241 -345 0 -345 0 -37 143 -36 144 95 264 c53 145 98 264 100 264 2
0 65 -36 141 -80z m3035 -416 l262 -205 -4 -37 c-1 -20 -7 -46 -12 -59 l-9
-23 -350 0 c-263 0 -350 3 -350 12 0 6 39 116 86 242 48 127 91 241 95 254 5
12 11 22 15 22 3 0 124 -93 267 -206z m-1348 -8 c171 -69 210 -88 208 -103 -1
-10 -22 -62 -47 -116 l-45 -97 -317 0 c-179 0 -314 4 -312 9 2 5 62 97 133
205 108 164 133 195 150 191 11 -2 115 -43 230 -89z m-3632 17 c-4 -10 -39
-88 -78 -173 l-71 -155 -525 0 -524 0 0 30 0 30 585 141 c322 78 593 142 602
143 13 1 16 -4 11 -16z m1153 -268 c27 -66 29 -65 -123 -65 -85 0 -133 4 -128
9 7 7 204 83 233 90 2 1 10 -15 18 -34z"/>
<path d="M9995 8872 c-225 -25 -412 -46 -413 -48 -4 -2 334 -591 348 -607 4
-5 126 143 270 330 145 186 270 346 278 356 14 16 12 17 -29 16 -24 -1 -228
-22 -454 -47z m355 -27 c0 -4 -381 -498 -400 -518 -6 -7 -258 411 -263 437 -1
5 144 26 323 47 179 20 328 37 333 38 4 0 7 -1 7 -4z"/>
<path d="M4847 8828 c-37 -33 -40 -75 -7 -108 27 -27 66 -25 95 5 29 28 32 65
8 93 -28 33 -66 37 -96 10z"/>
<path d="M7907 8622 l-218 -218 -219 -54 -220 -54 0 -212 0 -212 44 -59 c73
-100 160 -159 266 -183 86 -19 343 -25 456 -10 268 33 390 121 458 328 46 140
81 382 74 502 l-3 54 -205 168 c-113 92 -207 168 -210 168 -3 0 -103 -98 -223
-218z m422 -22 l163 -133 -7 -101 c-15 -217 -63 -418 -122 -515 -63 -101 -185
-153 -405 -173 -133 -12 -332 -2 -424 23 -52 14 -126 70 -181 137 l-43 53 0
177 0 178 203 49 202 49 210 208 c179 177 212 205 225 194 8 -7 89 -73 179
-146z"/>
<path d="M8745 8745 c-58 -57 1 -146 76 -115 77 32 47 139 -39 140 -7 0 -24
-11 -37 -25z"/>
<path d="M1635 8655 c-30 -30 -31 -54 -4 -89 15 -19 30 -26 54 -26 37 0 75 37
75 72 0 27 -45 68 -75 68 -14 0 -37 -11 -50 -25z"/>
<path d="M2920 8660 c-26 -26 -26 -81 -2 -103 44 -40 122 -6 122 53 0 60 -78
92 -120 50z"/>
<path d="M9367 8642 c-40 -44 -6 -122 53 -122 60 0 92 78 50 120 -26 26 -81
26 -103 2z"/>
<path d="M1013 8640 c-25 -10 -43 -39 -43 -70 0 -28 43 -70 73 -70 63 0 91 89
41 129 -29 23 -38 24 -71 11z"/>
<path d="M7260 8590 c-11 -11 -20 -33 -20 -50 0 -17 9 -39 20 -50 11 -11 33
-20 50 -20 17 0 39 9 50 20 11 11 20 33 20 50 0 17 -9 39 -20 50 -11 11 -33
20 -50 20 -17 0 -39 -9 -50 -20z"/>
<path d="M4777 8531 l-248 -56 -109 -190 c-60 -104 -110 -194 -110 -199 0 -14
160 -440 170 -450 8 -8 484 197 506 218 7 7 20 131 33 306 12 162 25 325 28
363 5 54 3 67 -8 66 -8 -1 -126 -27 -262 -58z m203 -43 c0 -59 -43 -584 -49
-590 -8 -9 -413 -189 -417 -186 -6 7 -134 356 -134 367 0 13 166 308 185 329
10 11 354 97 403 101 6 1 12 -9 12 -21z"/>
<path d="M10670 8510 c-43 -43 -11 -120 50 -120 17 0 39 9 50 20 26 26 26 81
2 103 -25 23 -78 21 -102 -3z"/>
<path d="M2616 8203 c-32 -159 -62 -309 -67 -334 -9 -43 -18 -52 -194 -198
-102 -85 -192 -159 -202 -166 -15 -11 38 -40 396 -219 227 -114 415 -206 416
-204 6 6 195 832 195 851 0 18 -464 557 -479 557 -5 0 -34 -129 -65 -287z
m295 -64 c102 -117 183 -218 182 -227 -3 -21 -162 -712 -168 -730 -3 -8 -112
41 -335 153 -181 91 -330 168 -329 173 0 4 76 69 168 146 l169 139 47 236 c65
330 66 332 75 326 4 -2 90 -100 191 -216z"/>
<path d="M4116 8359 c-36 -28 -36 -80 0 -108 15 -12 35 -21 46 -21 27 0 68 45
68 75 0 30 -41 75 -68 75 -11 0 -31 -9 -46 -21z"/>
<path d="M1508 8313 c-29 -34 -438 -612 -444 -628 -5 -13 31 -15 335 -15 l341
0 190 142 c147 111 187 145 177 154 -6 7 -131 85 -277 174 -146 90 -274 169
-286 177 -18 11 -23 11 -36 -4z m264 -210 c123 -75 227 -140 231 -144 5 -4
-54 -55 -132 -113 l-141 -106 -275 2 -276 3 176 248 c97 136 181 247 186 247
4 0 109 -61 231 -137z"/>
<path d="M6710 8317 c-14 -7 -31 -24 -39 -38 -12 -22 -12 -29 0 -54 27 -57
105 -57 131 0 26 57 -37 119 -92 92z"/>
<path d="M2190 8307 c-13 -7 -29 -25 -34 -39 -29 -83 94 -137 128 -56 17 39
11 63 -22 88 -29 23 -38 24 -72 7z"/>
<path d="M8923 8089 c-158 -127 -289 -232 -290 -233 -2 -1 201 -91 449 -200
393 -171 454 -195 464 -182 6 9 24 62 40 118 24 88 28 122 29 228 0 156 -6
168 -135 268 -52 40 -134 108 -182 152 l-86 80 -289 -231z m355 84 c36 -32
106 -90 156 -128 118 -92 129 -111 123 -235 -5 -95 -43 -273 -57 -268 -101 38
-739 326 -737 332 4 11 429 354 441 355 5 1 38 -25 74 -56z"/>
<path d="M5332 8197 c-45 -48 -14 -117 51 -117 43 0 67 26 67 73 0 63 -74 91
-118 44z"/>
<path d="M3463 8192 c-51 -8 -70 -83 -30 -120 48 -45 117 -14 117 51 0 48 -38
77 -87 69z"/>
<path d="M976 8157 c-15 -15 -26 -38 -26 -52 0 -14 11 -37 26 -52 20 -20 31
-24 57 -19 43 9 61 29 61 71 0 42 -18 62 -61 71 -26 5 -37 1 -57 -19z"/>
<path d="M9760 8070 c-26 -26 -26 -81 -2 -103 28 -25 87 -22 106 5 51 73 -42
160 -104 98z"/>
<path d="M5758 7966 c-114 -113 -191 -247 -244 -423 -37 -122 -40 -313 -7
-418 67 -213 245 -320 606 -365 84 -10 404 -16 413 -8 2 3 -38 128 -89 279
l-93 274 -247 350 c-137 193 -254 356 -261 363 -11 11 -25 2 -78 -52z m302
-370 l233 -329 73 -221 c41 -121 74 -225 74 -230 0 -13 -310 0 -410 18 -316
58 -443 161 -482 391 -26 159 36 403 143 562 52 77 121 155 129 146 5 -4 113
-156 240 -337z"/>
<path d="M6260 7847 c-52 -26 -49 -104 5 -129 58 -26 119 33 95 91 -6 16 -23
33 -36 40 -31 14 -33 14 -64 -2z"/>
<path d="M386 7827 c-15 -15 -26 -38 -26 -52 0 -14 11 -37 26 -52 20 -20 31
-24 57 -19 43 9 61 29 61 71 0 42 -18 62 -61 71 -26 5 -37 1 -57 -19z"/>
<path d="M6970 7780 c-26 -26 -25 -60 1 -94 25 -31 66 -35 100 -8 28 23 30 73
4 102 -24 26 -79 26 -105 0z"/>
<path d="M3500 7740 c0 -28 98 -1024 105 -1066 5 -30 12 -35 107 -73 55 -22
104 -38 108 -36 5 3 10 1 12 -4 3 -9 324 -141 343 -141 6 0 33 160 66 390 l55
389 -225 161 c-161 115 -227 157 -233 148 -5 -9 -8 -7 -8 7 -1 14 -46 52 -156
130 -86 61 -160 112 -165 113 -5 2 -9 -6 -9 -18z m195 -189 c80 -58 113 -76
123 -69 9 8 12 5 12 -8 0 -13 62 -63 196 -159 107 -76 197 -142 199 -145 2 -3
-18 -154 -44 -335 -38 -263 -50 -329 -62 -327 -8 1 -72 26 -142 54 -70 28
-131 48 -134 44 -3 -3 -11 0 -17 8 -6 7 -44 26 -84 41 -53 21 -74 34 -77 49
-2 12 -22 210 -45 441 -22 231 -43 435 -46 453 -2 17 -1 32 3 32 5 0 58 -36
118 -79z"/>
<path d="M4131 7644 c-12 -15 -21 -35 -21 -46 0 -27 45 -68 75 -68 30 0 75 41
75 68 0 35 -38 72 -75 72 -24 0 -39 -7 -54 -26z"/>
<path d="M1932 7617 c-45 -48 -16 -120 48 -120 67 0 96 81 44 122 -35 27 -65
27 -92 -2z"/>
<path d="M826 7569 c-36 -28 -36 -80 0 -108 15 -12 35 -21 46 -21 27 0 68 45
68 75 0 30 -41 75 -68 75 -11 0 -31 -9 -46 -21z"/>
<path d="M5230 7550 c-26 -26 -26 -81 0 -105 27 -25 80 -22 102 6 56 68 -40
161 -102 99z"/>
<path d="M8473 7508 c-28 -14 -43 -55 -31 -89 9 -26 44 -49 74 -49 24 0 64 47
64 75 0 30 -41 75 -67 74 -10 0 -28 -5 -40 -11z"/>
<path d="M3211 7454 c-12 -15 -21 -34 -21 -44 0 -34 39 -70 75 -70 36 0 75 36
75 70 0 34 -39 70 -75 70 -24 0 -39 -7 -54 -26z"/>
<path d="M4977 7435 c-54 -112 -448 -1008 -445 -1010 6 -6 799 53 806 59 4 5
-318 937 -337 974 -5 8 -13 0 -24 -23z m146 -506 c69 -196 127 -365 129 -375
3 -17 -16 -20 -307 -41 -170 -12 -311 -20 -313 -18 -2 2 76 184 174 404 98
221 181 398 185 393 4 -4 63 -167 132 -363z"/>
<path d="M10138 7454 c-51 -27 -46 -101 7 -126 58 -26 119 33 95 91 -6 16 -23
33 -36 40 -31 14 -33 14 -66 -5z"/>
<path d="M7625 7415 c-40 -39 -29 -95 22 -113 78 -27 136 76 70 123 -31 22
-65 18 -92 -10z"/>
<path d="M1359 7412 c-49 -40 -17 -122 48 -122 65 0 93 61 52 114 -25 31 -66
35 -100 8z"/>
<path d="M6710 7327 c-13 -7 -31 -24 -39 -38 -30 -53 36 -117 94 -91 55 25 58
100 5 127 -35 18 -29 18 -60 2z"/>
<path d="M4556 7289 c-50 -39 -22 -122 42 -122 43 0 72 28 72 70 0 65 -61 93
-114 52z"/>
<path d="M7220 7283 c-1 -10 -14 -166 -29 -348 -16 -181 -27 -332 -24 -335 11
-12 233 -1 296 14 183 44 300 161 301 304 1 127 -79 197 -338 297 -64 25 -134
54 -156 65 -48 24 -50 24 -50 3z m190 -129 c238 -95 290 -138 290 -234 0 -151
-164 -259 -394 -260 l-79 0 6 38 c3 20 14 142 23 270 12 151 22 232 29 232 6
0 62 -21 125 -46z"/>
<path d="M9521 7254 c-12 -15 -21 -34 -21 -44 0 -34 39 -70 75 -70 36 0 75 36
75 70 0 34 -39 70 -75 70 -24 0 -39 -7 -54 -26z"/>
<path d="M8150 7235 c0 -3 30 -104 66 -223 l65 -217 46 -368 c26 -202 50 -366
55 -365 4 2 82 88 173 192 l165 189 0 353 0 353 -32 6 c-263 44 -511 85 -523
85 -8 0 -15 -2 -15 -5z m313 -107 l197 -32 0 -314 0 -313 -117 -134 c-65 -73
-119 -132 -121 -131 -1 2 -20 140 -42 307 -35 278 -43 318 -89 469 -28 91 -51
168 -51 173 0 11 10 10 223 -25z"/>
<path d="M10449 7171 c-28 -23 -32 -83 -6 -108 21 -21 82 -22 102 -2 8 8 17
29 21 46 5 26 1 37 -19 57 -31 31 -66 33 -98 7z"/>
<path d="M9005 7155 c-39 -39 -32 -86 17 -111 59 -30 122 27 99 89 -19 51 -77
62 -116 22z"/>
<path d="M1915 7095 c-63 -63 18 -160 88 -105 35 28 37 80 5 110 -29 27 -64
25 -93 -5z"/>
<path d="M2430 7060 c-26 -26 -25 -60 1 -94 25 -31 66 -35 100 -8 28 23 30 73
4 102 -24 26 -79 26 -105 0z"/>
<path d="M9262 6733 c-88 -164 -159 -299 -158 -300 1 -1 85 -20 186 -43 102
-22 192 -43 200 -45 8 -3 71 -117 140 -254 l124 -250 77 -30 c139 -55 226 -75
334 -75 128 -1 177 17 239 85 65 73 81 140 81 349 0 183 -18 280 -77 410 l-29
65 -472 193 c-260 106 -475 192 -478 192 -4 0 -79 -134 -167 -297z m637 40
l434 -177 23 -53 c83 -186 98 -500 31 -641 -57 -122 -217 -140 -472 -54 l-110
37 -125 247 c-69 136 -129 252 -135 257 -5 5 -84 26 -175 47 -91 20 -167 38
-169 40 -2 1 18 43 44 91 174 323 207 383 213 383 4 0 202 -79 441 -177z"/>
<path d="M10060 6990 c-26 -26 -25 -60 1 -94 25 -31 66 -35 100 -8 28 23 30
73 4 102 -24 26 -79 26 -105 0z"/>
<path d="M1460 6870 c-43 -43 -11 -120 50 -120 38 0 70 32 70 70 0 38 -32 70
-70 70 -17 0 -39 -9 -50 -20z"/>
<path d="M5410 6870 c-11 -11 -20 -33 -20 -50 0 -17 9 -39 20 -50 11 -11 33
-20 50 -20 17 0 39 9 50 20 11 11 20 33 20 50 0 17 -9 39 -20 50 -11 11 -33
20 -50 20 -17 0 -39 -9 -50 -20z"/>
<path d="M7935 6870 c-42 -46 -10 -120 51 -120 35 0 74 37 74 70 0 10 -9 29
-21 44 -26 33 -77 36 -104 6z"/>
<path d="M3228 6864 c-75 -40 -21 -156 60 -128 63 22 63 111 0 133 -17 6 -31
11 -32 11 -1 -1 -13 -7 -28 -16z"/>
<path d="M10746 6839 c-19 -15 -26 -30 -26 -54 0 -36 36 -75 70 -75 34 0 70
39 70 75 0 36 -36 75 -70 75 -10 0 -29 -9 -44 -21z"/>
<path d="M2257 6691 c-218 -59 -399 -110 -401 -112 -3 -2 80 -186 184 -409
l188 -405 357 -303 c197 -167 360 -300 365 -295 18 21 491 1196 483 1203 -23
21 -753 430 -764 429 -8 -1 -193 -50 -412 -108z m754 -152 c184 -105 338 -194
342 -198 8 -8 -415 -1057 -431 -1072 -4 -4 -150 115 -325 265 l-319 271 -169
364 c-93 200 -167 366 -165 369 7 7 688 190 712 191 12 0 172 -85 355 -190z"/>
<path d="M6792 6687 c-45 -48 -17 -117 47 -117 46 0 71 24 71 68 0 65 -74 96
-118 49z"/>
<path d="M8885 6505 c-28 -27 -32 -61 -10 -92 45 -64 151 -8 123 66 -20 54
-74 66 -113 26z"/>
<path d="M1115 6435 c-40 -39 -29 -97 22 -116 58 -22 116 36 94 94 -19 51 -77
62 -116 22z"/>
<path d="M5932 6427 c-45 -48 -17 -117 47 -117 46 0 71 24 71 68 0 65 -74 96
-118 49z"/>
<path d="M6408 6277 l-576 -110 170 -341 c94 -188 171 -342 173 -344 2 -3 926
375 932 382 5 5 -108 510 -115 517 -4 3 -267 -44 -584 -104z m557 -44 c9 -43
30 -134 45 -203 16 -69 27 -126 25 -128 -6 -6 -828 -343 -830 -340 -14 15
-275 552 -271 556 7 7 951 189 987 191 26 1 28 -3 44 -76z"/>
<path d="M7390 6350 c-11 -11 -20 -33 -20 -50 0 -17 9 -39 20 -50 11 -11 33
-20 50 -20 17 0 39 9 50 20 11 11 20 33 20 50 0 17 -9 39 -20 50 -11 11 -33
20 -50 20 -17 0 -39 -9 -50 -20z"/>
<path d="M1650 6330 c-42 -42 -8 -120 53 -120 58 0 91 85 49 123 -25 23 -78
21 -102 -3z"/>
<path d="M3947 6263 c-9 -2 -24 -18 -33 -35 -30 -59 27 -122 89 -99 51 19 62
77 22 116 -23 24 -40 28 -78 18z"/>
<path d="M935 6238 c-3 -7 -54 -160 -114 -339 l-109 -327 199 -198 199 -199
438 -22 c240 -11 439 -20 441 -17 2 2 -37 164 -86 361 l-89 358 -196 66 c-169
57 -224 81 -395 174 -109 59 -217 119 -240 132 -33 19 -44 22 -48 11z m275
-207 c144 -79 209 -108 365 -161 l189 -65 74 -298 c41 -164 72 -300 69 -303
-3 -3 -177 3 -387 13 l-381 19 -178 178 -179 178 95 284 95 284 31 -16 c18 -9
111 -60 207 -113z"/>
<path d="M10775 6225 c-30 -30 -31 -54 -4 -89 15 -19 30 -26 54 -26 37 0 75
37 75 72 0 27 -45 68 -75 68 -14 0 -37 -11 -50 -25z"/>
<path d="M5308 6190 c-24 -25 -29 -36 -24 -58 15 -60 79 -80 121 -37 39 38 32
86 -16 110 -39 21 -46 19 -81 -15z"/>
<path d="M4497 6142 c-23 -25 -21 -78 3 -102 43 -43 120 -11 120 50 0 17 -9
39 -20 50 -26 26 -81 26 -103 2z"/>
<path d="M9303 6140 c-25 -10 -43 -39 -43 -70 0 -28 43 -70 73 -70 63 0 91 89
41 129 -29 23 -38 24 -71 11z"/>
<path d="M7980 6077 c-76 -38 -28 -154 55 -133 29 7 56 56 48 87 -11 41 -65
65 -103 46z"/>
<path d="M4856 5908 l-140 -81 -199 37 c-109 21 -200 36 -202 34 -5 -5 21
-757 26 -762 7 -7 633 -236 645 -236 10 0 470 969 462 975 -7 5 -426 115 -439
115 -8 0 -77 -37 -153 -82z m457 -60 c26 -6 47 -14 47 -18 0 -10 -390 -844
-398 -851 -4 -3 -131 40 -282 96 l-275 102 -6 58 c-4 32 -10 179 -14 325 l-7
267 173 -32 174 -33 145 83 145 82 125 -34 c69 -18 146 -39 173 -45z"/>
<path d="M385 5915 c-40 -39 -29 -97 22 -116 58 -22 116 36 94 94 -19 51 -77
62 -116 22z"/>
<path d="M1965 5915 c-40 -39 -29 -97 22 -116 36 -13 78 5 93 40 31 75 -58
134 -115 76z"/>
<path d="M8777 5882 c-40 -44 -7 -122 51 -122 60 0 94 78 52 120 -26 26 -81
26 -103 2z"/>
<path d="M3455 5810 c-26 -29 -24 -79 4 -102 70 -56 164 39 101 102 -26 26
-81 26 -105 0z"/>
<path d="M7267 5812 c-40 -44 -7 -122 51 -122 60 0 94 78 52 120 -26 26 -81
26 -103 2z"/>
<path d="M7787 5766 l-299 -21 -67 -270 -67 -271 193 -174 c107 -96 206 -185
221 -197 26 -21 47 -23 409 -44 l382 -21 348 152 c191 83 351 155 355 158 6 6
-368 420 -491 546 l-38 38 -298 64 c-163 35 -309 63 -324 63 -14 -1 -160 -11
-324 -23z m642 -102 l273 -58 231 -249 c129 -140 226 -252 221 -257 -5 -4
-143 -67 -308 -139 l-298 -130 -367 21 -366 20 -95 86 c-52 48 -141 128 -196
179 l-102 93 57 227 57 228 40 3 c287 22 543 39 559 37 11 -2 143 -30 294 -61z"/>
<path d="M9942 5567 c-45 -48 -14 -117 51 -117 42 0 67 26 67 68 0 65 -74 96
-118 49z"/>
<path d="M9261 5544 c-12 -15 -21 -34 -21 -44 0 -34 39 -70 75 -70 36 0 75 36
75 70 0 34 -39 70 -75 70 -24 0 -39 -7 -54 -26z"/>
<path d="M6640 5480 c-26 -26 -25 -60 1 -94 25 -31 66 -35 100 -8 28 23 30 73
4 102 -24 26 -79 26 -105 0z"/>
<path d="M9471 5018 c-74 -238 -135 -436 -135 -439 -2 -13 639 -1019 649
-1019 25 0 698 159 705 167 4 4 67 188 141 408 l132 401 -244 324 -244 323
-410 128 c-225 71 -421 131 -435 134 -25 5 -26 3 -159 -427z m564 236 c203
-63 378 -117 388 -120 19 -6 467 -596 467 -615 0 -19 -241 -738 -249 -743 -22
-14 -633 -147 -640 -140 -4 5 -141 221 -304 479 l-296 470 122 392 c67 216
126 393 132 393 5 0 176 -52 380 -116z"/>
<path d="M3977 5412 c-40 -44 -7 -122 51 -122 60 0 94 78 52 120 -26 26 -81
26 -103 2z"/>
<path d="M5641 5404 c-12 -15 -21 -35 -21 -46 0 -27 45 -68 75 -68 30 0 75 41
75 68 0 35 -38 72 -75 72 -24 0 -39 -7 -54 -26z"/>
<path d="M2221 5354 c-12 -15 -21 -34 -21 -44 0 -34 39 -70 75 -70 36 0 75 36
75 70 0 34 -39 70 -75 70 -24 0 -39 -7 -54 -26z"/>
<path d="M643 5338 c-28 -14 -43 -55 -31 -89 9 -26 44 -49 74 -49 24 0 64 47
64 75 0 30 -41 75 -67 74 -10 0 -28 -5 -40 -11z"/>
<path d="M3370 5290 c-43 -43 -11 -120 50 -120 38 0 70 32 70 70 0 38 -32 70
-70 70 -17 0 -39 -9 -50 -20z"/>
<path d="M6705 5233 c-154 -13 -282 -26 -284 -29 -2 -2 9 -109 25 -237 l29
-232 398 -3 c218 -1 397 1 397 5 0 5 -39 124 -86 265 l-86 258 -56 -1 c-31 -1
-183 -12 -337 -26z m412 -228 c35 -104 63 -195 63 -202 0 -10 -69 -13 -324
-13 l-324 0 -5 33 c-16 86 -40 318 -34 323 6 7 507 53 541 50 16 -1 31 -35 83
-191z"/>
<path d="M10642 5243 c-32 -27 -37 -64 -12 -96 57 -72 167 8 113 81 -25 33
-71 40 -101 15z"/>
<path d="M2030 4871 l-119 -180 56 -283 c31 -156 59 -286 62 -290 3 -4 80 57
171 135 91 78 185 158 208 178 l43 37 -145 291 c-81 160 -148 291 -151 291 -3
0 -59 -81 -125 -179z m230 -161 c60 -121 110 -222 110 -225 0 -12 -294 -255
-300 -248 -4 4 -26 105 -50 224 l-42 216 83 126 c46 70 85 127 86 127 2 0 52
-99 113 -220z"/>
<path d="M3697 4975 c-257 -35 -393 -57 -402 -66 -209 -224 -595 -654 -589
-656 5 -2 171 -66 369 -142 l359 -138 198 149 c109 81 198 155 198 163 0 8 6
12 13 9 10 -3 171 107 237 163 3 3 59 519 60 561 0 17 -9 16 -443 -43z m372
-32 c0 -10 -10 -115 -22 -233 l-22 -215 -95 -72 c-60 -46 -96 -80 -98 -94 -3
-16 -6 -19 -12 -9 -6 10 -56 -22 -198 -128 -104 -78 -195 -142 -202 -142 -15
0 -591 219 -602 229 -6 5 348 401 513 575 7 7 648 101 722 105 10 1 17 -6 16
-16z"/>
<path d="M5214 4664 c-263 -191 -482 -349 -487 -353 -7 -7 151 -442 166 -457
7 -7 652 -53 767 -54 48 -1 145 17 370 70 168 39 321 75 341 80 l36 10 -56
333 -55 334 -274 174 c-151 96 -286 182 -301 191 l-27 18 -480 -346z m757 95
c148 -94 269 -173 269 -176 0 -2 20 -125 45 -273 25 -148 45 -277 45 -287 0
-17 -40 -28 -319 -92 l-319 -74 -338 22 c-187 12 -357 24 -379 27 l-41 5 -68
184 c-38 102 -66 188 -62 192 18 18 882 642 890 642 4 1 129 -76 277 -170z"/>
<path d="M6155 4960 c-42 -47 -8 -120 55 -120 33 0 70 40 70 74 0 57 -86 89
-125 46z"/>
<path d="M1110 4963 c-53 -19 -68 -86 -28 -123 63 -58 157 33 101 98 -20 23
-50 33 -73 25z"/>
<path d="M1700 4963 c-53 -19 -68 -86 -28 -123 63 -58 157 33 101 98 -20 23
-50 33 -73 25z"/>
<path d="M2761 4904 c-41 -53 -13 -114 52 -114 42 0 70 29 70 72 0 64 -83 92
-122 42z"/>
<path d="M5156 4879 c-19 -15 -26 -30 -26 -54 0 -36 36 -75 70 -75 34 0 70 39
70 75 0 36 -36 75 -70 75 -10 0 -29 -9 -44 -21z"/>
<path d="M7425 4855 c-39 -39 -32 -86 17 -111 59 -30 122 27 99 89 -19 51 -77
62 -116 22z"/>
<path d="M11026 4739 c-19 -15 -26 -30 -26 -54 0 -37 37 -75 72 -75 27 0 68
45 68 75 0 30 -41 75 -68 75 -11 0 -31 -9 -46 -21z"/>
<path d="M4405 4715 c-40 -39 -29 -95 22 -113 78 -27 136 76 70 123 -31 22
-65 18 -92 -10z"/>
<path d="M8970 4700 c-43 -43 -11 -120 50 -120 38 0 70 32 70 70 0 38 -32 70
-70 70 -17 0 -39 -9 -50 -20z"/>
<path d="M6967 4609 c-48 -28 -40 -107 13 -129 23 -9 34 -9 58 4 49 25 56 72
17 111 -25 26 -58 31 -88 14z"/>
<path d="M8217 4609 c-48 -28 -40 -107 13 -129 23 -9 34 -9 58 4 49 25 56 72
17 111 -25 26 -58 31 -88 14z"/>
<path d="M1440 4490 c-26 -26 -25 -60 1 -94 25 -31 66 -35 100 -8 28 23 30 73
4 102 -24 26 -79 26 -105 0z"/>
<path d="M8235 4378 c-121 -60 -222 -112 -223 -113 -6 -6 338 -575 348 -575 9
0 621 554 623 565 2 7 -501 235 -518 234 -5 0 -109 -50 -230 -111z m438 -45
c108 -48 197 -90 197 -94 0 -4 -100 -99 -222 -210 -123 -111 -235 -213 -249
-227 l-27 -24 -136 227 c-75 124 -136 228 -136 231 0 5 352 183 365 184 6 0
99 -39 208 -87z"/>
<path d="M7793 4300 c-48 -20 -58 -87 -17 -119 34 -27 64 -27 92 -1 32 30 30
82 -4 109 -29 23 -38 24 -71 11z"/>
<path d="M6562 4253 c-32 -27 -37 -64 -12 -96 57 -72 167 8 113 81 -25 33 -71
40 -101 15z"/>
<path d="M9249 4252 c-28 -23 -30 -73 -4 -102 24 -26 79 -26 105 0 63 63 -31
158 -101 102z"/>
<path d="M4057 4183 c-45 -51 -17 -123 48 -123 36 0 75 36 75 70 0 10 -9 29
-21 44 -24 31 -77 36 -102 9z"/>
<path d="M1007 4162 c-23 -25 -21 -78 3 -102 61 -61 154 27 104 98 -20 28 -83
31 -107 4z"/>
<path d="M2495 4135 c-40 -39 -29 -97 22 -116 36 -13 78 5 93 40 31 75 -58
134 -115 76z"/>
<path d="M7143 4091 c-254 -15 -464 -29 -466 -31 -2 -3 40 -203 94 -445 54
-242 103 -463 109 -492 l11 -52 636 -212 c350 -116 643 -212 651 -213 12 -1
28 58 72 254 l57 255 -29 43 c-16 23 -35 42 -42 42 -7 0 -12 8 -12 18 1 10
-125 208 -279 440 -268 404 -281 421 -310 420 -16 0 -238 -13 -492 -27z m761
-446 c148 -223 275 -405 283 -405 8 0 11 -5 8 -11 -4 -5 5 -28 19 -49 l25 -38
-46 -211 c-28 -125 -51 -210 -58 -208 -5 2 -276 93 -601 201 l-590 196 -14 63
c-7 34 -15 70 -16 79 -2 9 -37 169 -79 355 -41 186 -76 349 -77 363 l-3 25
360 21 c198 12 396 22 440 22 l80 1 269 -404z"/>
<path d="M286 4089 c-36 -28 -36 -80 0 -108 15 -12 34 -21 44 -21 34 0 70 39
70 75 0 36 -36 75 -70 75 -10 0 -29 -9 -44 -21z"/>
<path d="M1156 3863 c-141 -125 -256 -230 -256 -233 0 -3 189 -55 420 -117
l421 -111 514 171 c283 95 515 174 515 177 0 5 -1336 341 -1352 340 -4 0 -122
-102 -262 -227z m850 21 c300 -75 542 -140 537 -144 -4 -4 -187 -67 -407 -140
l-398 -132 -354 93 c-195 52 -353 98 -351 103 7 20 393 356 410 356 9 0 263
-61 563 -136z"/>
<path d="M4115 3900 c-121 -106 -231 -196 -245 -202 -13 -5 -43 -12 -65 -15
-70 -10 -506 -90 -510 -94 -5 -6 52 -669 59 -676 5 -5 1018 134 1127 154 l26
5 -14 76 c-7 43 -16 93 -19 112 -16 104 -135 816 -137 824 -2 5 -102 -78 -222
-184z m250 -358 c38 -226 66 -414 64 -416 -5 -5 -981 -146 -1008 -146 -15 0
-20 36 -39 276 -13 152 -21 278 -19 281 3 2 127 27 277 54 l273 50 186 163
c102 90 189 161 192 158 3 -4 37 -193 74 -420z"/>
<path d="M11017 4042 c-25 -28 -22 -87 5 -106 71 -50 159 43 98 104 -26 26
-81 26 -103 2z"/>
<path d="M8890 3647 c-140 -204 -255 -380 -254 -389 0 -10 -5 -18 -13 -18 -13
0 -90 -107 -82 -114 2 -2 179 -28 393 -59 l390 -56 127 102 c98 77 125 104
117 114 -8 10 -4 13 16 13 22 0 26 3 21 23 -3 12 -28 134 -55 270 -27 136 -52
252 -56 258 -7 12 -331 229 -341 229 -5 0 -123 -168 -263 -373z m415 200 c66
-44 124 -83 129 -87 4 -5 32 -123 60 -264 48 -237 50 -256 33 -256 -10 0 -64
-37 -119 -82 l-101 -81 -261 37 c-143 20 -293 42 -333 48 l-72 10 15 24 c9 13
13 28 9 34 -3 5 0 10 8 10 7 0 121 157 253 349 131 192 244 346 249 343 6 -3
64 -41 130 -85z"/>
<path d="M3459 3852 c-48 -40 -17 -122 47 -122 66 0 98 74 51 118 -28 27 -67
28 -98 4z"/>
<path d="M8707 3832 c-23 -25 -21 -78 3 -102 61 -61 154 27 104 98 -20 28 -83
31 -107 4z"/>
<path d="M4705 3770 c-26 -29 -24 -79 4 -102 70 -56 164 39 101 102 -26 26
-81 26 -105 0z"/>
<path d="M9670 3777 c-14 -7 -31 -24 -39 -38 -12 -22 -12 -29 0 -54 27 -57
105 -57 131 0 26 57 -37 119 -92 92z"/>
<path d="M5740 3707 c-52 -26 -49 -104 4 -128 81 -37 138 73 64 125 -27 19
-35 20 -68 3z"/>
<path d="M610 3577 c-33 -16 -47 -58 -32 -92 25 -55 100 -58 127 -5 32 61 -33
128 -95 97z"/>
<path d="M5132 3426 c-87 -96 -141 -163 -138 -172 3 -9 -1 -14 -13 -14 -11 0
-68 -56 -141 -137 l-122 -138 277 -3 c153 -1 280 -1 282 1 2 2 2 143 1 313
l-3 309 -143 -159z m85 -183 c-3 -2 -41 -3 -85 -1 l-81 3 82 89 82 90 3 -89
c2 -48 1 -89 -1 -92z m3 -128 l0 -95 -180 0 c-99 0 -180 3 -180 6 0 3 37 46
81 95 l82 89 98 0 99 0 0 -95z"/>
<path d="M6380 3570 c-26 -26 -25 -60 1 -94 25 -31 66 -35 100 -8 28 23 30 73
4 102 -24 26 -79 26 -105 0z"/>
<path d="M2706 3539 c-50 -39 -22 -122 42 -122 43 0 72 28 72 70 0 65 -61 93
-114 52z"/>
<path d="M10617 3502 c-23 -25 -21 -78 3 -102 61 -61 154 27 104 98 -20 28
-83 31 -107 4z"/>
<path d="M5890 3390 c-47 -66 -84 -126 -84 -135 1 -8 -4 -15 -11 -15 -7 0 -66
-73 -131 -162 -64 -90 -121 -168 -125 -174 -9 -11 146 -601 162 -618 5 -5 95
24 212 68 112 42 208 76 213 76 5 0 117 -122 249 -270 132 -148 242 -269 245
-269 4 -1 161 671 174 740 0 4 -125 141 -279 305 -197 211 -286 300 -304 302
-18 3 -21 6 -11 12 10 6 -16 40 -104 134 -65 69 -119 126 -120 126 0 -1 -39
-55 -86 -120z m272 -150 c10 0 15 -5 13 -13 -3 -7 121 -147 275 -312 183 -195
278 -304 275 -314 -2 -9 -32 -135 -65 -281 -33 -146 -64 -273 -68 -282 -5 -14
-52 33 -226 226 -210 234 -220 244 -245 234 -179 -68 -375 -138 -378 -134 -2
2 -36 119 -74 261 l-70 256 23 32 c12 18 67 93 121 167 53 74 95 140 93 147
-3 7 1 13 9 13 7 0 42 39 77 86 l63 87 80 -87 c44 -47 88 -86 97 -86z"/>
<path d="M8242 3470 c-26 -24 -29 -66 -6 -98 11 -16 25 -22 53 -22 46 0 71 24
71 68 0 64 -72 95 -118 52z"/>
<path d="M10306 3065 l-147 -176 23 -28 c81 -95 422 -481 424 -478 1 1 -25
195 -58 430 -54 371 -64 427 -78 427 -10 0 -80 -75 -164 -175z m174 -217 c21
-145 36 -264 35 -266 -1 -1 -64 67 -138 152 l-137 154 97 116 c53 64 98 114
100 112 3 -2 22 -123 43 -268z"/>
<path d="M9760 3120 c-43 -43 -11 -120 50 -120 38 0 70 32 70 70 0 38 -32 70
-70 70 -17 0 -39 -9 -50 -20z"/>
<path d="M920 3062 c-51 -16 -68 -84 -30 -122 57 -57 149 18 110 90 -11 20
-58 39 -80 32z"/>
<path d="M1455 3029 c-14 -21 -275 -653 -275 -663 0 -6 177 -47 418 -95 229
-46 422 -88 427 -92 6 -4 69 -114 140 -243 72 -130 134 -236 138 -236 6 0 645
591 800 740 l38 37 -384 247 -385 247 -403 29 c-222 16 -427 32 -456 35 -31 3
-54 1 -58 -6z m490 -89 l407 -30 344 -222 c190 -122 341 -225 337 -229 -164
-156 -709 -659 -714 -659 -4 0 -61 99 -128 219 l-122 219 -47 10 c-26 6 -208
43 -405 83 -196 40 -356 76 -355 80 2 4 55 131 118 283 100 242 117 276 136
276 12 0 205 -14 429 -30z"/>
<path d="M8436 3019 c-46 -36 -26 -110 34 -124 64 -15 108 78 58 125 -28 26
-58 26 -92 -1z"/>
<path d="M2953 2978 c-68 -33 -39 -138 38 -138 28 0 69 44 69 73 0 51 -61 88
-107 65z"/>
<path d="M4376 2969 c-36 -28 -36 -80 0 -108 15 -12 34 -21 44 -21 10 0 29 9
44 21 34 27 35 71 1 104 -30 30 -54 31 -89 4z"/>
<path d="M10720 2918 c-27 -29 -25 -69 3 -96 46 -43 120 -15 120 46 0 66 -78
98 -123 50z"/>
<path d="M6971 2804 c-41 -53 -13 -114 52 -114 42 0 70 29 70 72 0 64 -83 92
-122 42z"/>
<path d="M9440 2707 c-184 -49 -336 -91 -338 -92 -1 -1 28 -203 65 -450 l68
-448 510 -133 c280 -73 510 -132 511 -131 20 27 321 554 318 558 -2 3 -111 55
-243 114 l-239 109 -152 283 c-83 156 -155 282 -158 282 -4 -1 -158 -42 -342
-92z m465 -257 l143 -264 213 -98 c118 -53 218 -99 223 -101 14 -5 -253 -457
-270 -457 -22 0 -908 232 -917 240 -8 7 -129 792 -122 798 8 8 552 151 569
149 13 -1 59 -77 161 -267z"/>
<path d="M5255 2755 c-58 -57 1 -146 76 -115 35 15 53 57 40 93 -19 51 -77 62
-116 22z"/>
<path d="M4013 2657 c-101 -56 -183 -108 -183 -115 0 -7 -5 -10 -10 -7 -6 4
-116 -53 -245 -125 -209 -117 -234 -134 -230 -153 3 -12 40 -221 83 -464 43
-243 80 -444 83 -447 2 -2 127 19 277 46 150 28 278 48 285 45 8 -3 33 -97 62
-231 45 -204 52 -226 70 -225 11 0 161 13 334 27 249 21 315 30 322 42 9 17
272 1491 267 1496 -6 5 -899 214 -917 214 -9 0 -98 -46 -198 -103z m640 -61
c219 -52 400 -96 402 -98 2 -2 -52 -316 -120 -698 -69 -382 -125 -698 -125
-701 0 -6 -569 -54 -574 -48 -2 2 -26 107 -54 232 -27 126 -52 230 -54 232 -1
1 -122 -19 -268 -46 -146 -27 -274 -48 -284 -47 -18 3 -27 44 -92 413 -53 299
-69 412 -61 417 7 4 101 58 210 119 132 74 197 116 197 127 0 12 3 13 8 5 5
-9 62 19 192 92 120 67 192 102 205 99 11 -3 199 -47 418 -98z"/>
<path d="M3640 2730 c-11 -11 -20 -33 -20 -50 0 -17 9 -39 20 -50 11 -11 33
-20 50 -20 17 0 39 9 50 20 11 11 20 33 20 50 0 17 -9 39 -20 50 -11 11 -33
20 -50 20 -17 0 -39 -9 -50 -20z"/>
<path d="M7602 2604 c-28 -20 -31 -83 -4 -107 44 -40 122 -7 122 51 0 59 -67
92 -118 56z"/>
<path d="M10205 2495 c-14 -13 -25 -36 -25 -50 0 -30 41 -75 68 -75 35 0 72
38 72 73 0 38 -7 50 -37 66 -33 17 -51 14 -78 -14z"/>
<path d="M8692 2417 c-43 -46 -15 -120 46 -120 43 0 72 28 72 70 0 66 -74 97
-118 50z"/>
<path d="M7784 2304 l-161 -55 -58 -200 c-31 -111 -53 -205 -48 -209 10 -10
866 -330 881 -330 9 0 12 106 12 425 l0 425 -232 -1 -233 -1 -161 -54z m564
-356 c2 -275 0 -348 -10 -348 -24 1 -753 278 -752 287 1 4 21 77 45 160 l43
153 146 49 145 50 190 -2 190 -2 3 -347z"/>
<path d="M780 2188 c-58 -63 32 -156 98 -100 32 26 37 63 12 95 -28 35 -80 37
-110 5z"/>
<path d="M5323 2188 c-68 -33 -39 -138 38 -138 28 0 69 44 69 73 0 51 -61 88
-107 65z"/>
<path d="M7075 2130 c-42 -46 -8 -120 54 -120 34 0 71 37 71 71 0 60 -85 93
-125 49z"/>
<path d="M1563 2118 c-28 -14 -43 -55 -31 -89 9 -26 44 -49 74 -49 24 0 64 47
64 75 0 30 -41 75 -67 74 -10 0 -28 -5 -40 -11z"/>
<path d="M5981 2074 c-27 -34 -27 -64 -1 -92 45 -48 123 -16 123 50 0 64 -83
92 -122 42z"/>
<path d="M768 1885 l-215 -135 -83 -219 -82 -220 107 -323 c59 -178 110 -326
114 -330 3 -3 190 31 416 76 l410 82 137 464 c75 256 135 466 134 468 -6 6
-701 272 -711 272 -6 0 -108 -61 -227 -135z m545 -51 c166 -64 306 -119 310
-123 6 -6 -226 -826 -238 -839 -1 -1 -167 -35 -368 -76 l-366 -73 -96 286
c-52 157 -95 295 -94 306 0 11 33 104 72 208 l72 187 190 119 c105 66 196 120
203 120 7 1 149 -51 315 -115z"/>
<path d="M3020 2003 c-53 -19 -68 -86 -28 -123 63 -58 157 33 101 98 -20 23
-50 33 -73 25z"/>
<path d="M10699 1952 c-49 -40 -17 -122 48 -122 65 0 93 61 52 114 -25 31 -66
35 -100 8z"/>
<path d="M87 1932 c-40 -45 -6 -122 53 -122 61 0 93 77 50 120 -26 26 -81 26
-103 2z"/>
<path d="M8807 1779 c-48 -28 -40 -107 12 -129 75 -31 134 58 76 115 -25 26
-58 31 -88 14z"/>
<path d="M6800 1480 l0 -282 62 -106 c69 -117 158 -240 209 -289 19 -18 54
-43 79 -55 37 -19 51 -35 78 -88 48 -96 91 -292 117 -533 4 -32 10 -57 14 -55
4 2 175 111 379 242 313 201 372 243 372 262 0 13 11 166 25 341 14 174 22
320 18 324 -6 4 -1202 466 -1335 515 -17 6 -18 -12 -18 -276z m685 -47 c325
-124 594 -230 599 -234 13 -12 -32 -601 -47 -615 -13 -13 -606 -394 -623 -401
-6 -2 -17 41 -28 114 -31 212 -79 374 -135 452 -12 16 -37 36 -58 46 -80 38
-187 167 -292 353 l-41 74 0 225 c0 210 1 225 18 219 9 -4 283 -108 607 -233z"/>
<path d="M5625 1638 c-192 -61 -351 -112 -353 -113 -2 -2 67 -93 152 -203
l156 -200 0 -231 c0 -127 2 -231 5 -231 7 0 893 709 900 720 6 9 -483 370
-500 369 -5 -1 -167 -51 -360 -111z m560 -104 c110 -80 201 -147 203 -149 4
-4 -723 -588 -738 -593 -6 -2 -10 64 -10 176 l0 180 -130 167 c-71 92 -130
170 -130 174 0 5 572 188 595 190 6 0 100 -65 210 -145z"/>
<path d="M2030 1673 c-53 -19 -68 -86 -28 -123 63 -58 157 33 101 98 -20 23
-50 33 -73 25z"/>
<path d="M6477 1662 c-40 -44 -7 -122 51 -122 60 0 94 78 52 120 -26 26 -81
26 -103 2z"/>
<path d="M2961 1554 c-41 -53 -13 -114 52 -114 43 0 70 29 69 72 -2 65 -82 92
-121 42z"/>
<path d="M216 1519 c-36 -28 -36 -80 0 -108 15 -12 34 -21 44 -21 34 0 70 39
70 75 0 36 -36 75 -70 75 -10 0 -29 -9 -44 -21z"/>
<path d="M9847 1308 c-65 -50 -12 -153 64 -126 53 18 65 73 24 113 -26 27 -62
32 -88 13z"/>
<path d="M2238 1274 c-168 -12 -318 -24 -332 -26 -23 -3 -2 -28 221 -273 135
-148 264 -291 288 -317 l42 -47 364 140 c200 77 367 143 371 147 4 4 -107 96
-247 205 l-254 197 -73 -1 c-40 -1 -211 -12 -380 -25z m628 -189 c109 -85 200
-158 202 -163 2 -7 -571 -233 -590 -232 -9 0 -458 492 -458 501 0 5 493 44
601 48 44 1 51 -3 245 -154z"/>
<path d="M10300 1263 c-37 -47 -2 -113 60 -113 33 0 70 40 70 74 0 63 -90 89
-130 39z"/>
<path d="M8485 1245 c-57 -57 1 -146 76 -115 56 24 59 103 3 129 -37 16 -52
14 -79 -14z"/>
<path d="M3540 1213 c-53 -19 -67 -83 -27 -121 29 -28 57 -28 91 -1 57 45 4
146 -64 122z"/>
<path d="M5125 1165 c-40 -39 -29 -95 22 -113 78 -27 136 76 70 123 -31 22
-65 18 -92 -10z"/>
<path d="M6432 963 c-52 -44 -24 -123 43 -123 36 0 75 36 75 70 0 10 -9 29
-21 44 -24 31 -67 35 -97 9z"/>
<path d="M4215 775 c-46 -46 -19 -118 44 -118 66 0 98 76 51 123 -27 27 -66
25 -95 -5z"/>
<path d="M330 750 c-61 -61 27 -154 98 -104 28 20 31 83 4 107 -25 23 -78 21
-102 -3z"/>
<path d="M1510 680 c-63 -63 31 -158 101 -102 28 23 30 73 4 102 -24 26 -79
26 -105 0z"/>
<path d="M2067 682 c-40 -44 -7 -122 51 -122 60 0 94 78 52 120 -26 26 -81 26
-103 2z"/>
<path d="M3071 674 c-27 -35 -26 -59 4 -89 33 -34 77 -33 104 1 12 15 21 34
21 44 0 34 -39 70 -75 70 -24 0 -39 -7 -54 -26z"/>
<path d="M10233 692 c-54 -8 -71 -87 -27 -121 53 -41 114 -13 114 52 0 48 -38
77 -87 69z"/>
<path d="M5929 556 c-37 -18 -56 -59 -41 -90 25 -56 101 -59 131 -5 31 56 -33
124 -90 95z"/>
<path d="M8271 484 c-12 -15 -21 -34 -21 -44 0 -34 39 -70 75 -70 36 0 75 36
75 70 0 34 -39 70 -75 70 -24 0 -39 -7 -54 -26z"/>
<path d="M735 488 c-50 -27 -59 -75 -20 -113 42 -43 106 -23 120 36 12 48 -57
101 -100 77z"/>
<path d="M4673 478 c-30 -15 -46 -58 -34 -91 20 -51 77 -62 118 -21 20 20 24
31 19 57 -4 17 -12 37 -19 44 -18 18 -59 23 -84 11z"/>
<path d="M2535 420 c-42 -46 -8 -120 54 -120 34 0 71 37 71 71 0 60 -85 93
-125 49z"/>
<path d="M10650 280 c-27 -27 -25 -66 5 -95 63 -63 160 18 105 88 -27 34 -80
37 -110 7z"/>
<path d="M9036 259 c-19 -15 -26 -30 -26 -54 0 -36 36 -75 70 -75 34 0 70 39
70 75 0 36 -36 75 -70 75 -10 0 -29 -9 -44 -21z"/>
<path d="M1930 180 c-26 -26 -26 -81 -2 -103 28 -25 87 -22 106 5 50 71 -43
159 -104 98z"/>
</g>
</svg>
