<?xml version="1.0" standalone="no"?>
<!DOCTYPE svg PUBLIC "-//W3C//DTD SVG 20010904//EN"
 "http://www.w3.org/TR/2001/REC-SVG-20010904/DTD/svg10.dtd">
<svg version="1.0" xmlns="http://www.w3.org/2000/svg"
 width="1125.000000pt" height="900.000000pt" viewBox="0 0 1125.000000 900.000000"
 preserveAspectRatio="xMidYMid meet">
<metadata>
Created by potrace 1.13, written by Peter Selinger 2001-2015
</metadata>
<g transform="translate(0.000000,900.000000) scale(0.100000,-0.100000)"
fill="#000000" stroke="none">
<path d="M0 4500 l0 -4500 5625 0 5625 0 0 4500 0 4500 -5625 0 -5625 0 0
-4500z m438 4193 l2 -263 -200 0 -200 0 0 258 c0 142 3 262 7 266 4 3 93 5
197 4 l191 -3 3 -262z m3130 0 l2 -263 -742 -2 c-409 -2 -1100 -2 -1535 0
l-793 2 0 258 c0 142 3 262 7 265 3 4 693 6 1532 5 l1526 -3 3 -262z m2862 2
l0 -265 -762 -2 c-420 -2 -1050 -2 -1400 0 l-638 2 0 258 c0 142 3 262 7 265
3 4 633 7 1400 7 l1393 0 0 -265z m2658 -2 l2 -263 -537 -2 c-296 -2 -881 -2
-1300 0 l-763 2 0 258 c0 142 3 262 7 265 3 4 587 6 1297 5 l1291 -3 3 -262z
m2120 0 l2 -263 -337 -2 c-186 -2 -650 -2 -1030 0 l-693 2 0 265 0 265 1028
-2 1027 -3 3 -262z m-9168 -723 l0 -390 -997 2 -998 3 0 110 0 110 485 3 485
2 98 154 c53 84 97 156 97 160 0 3 -221 5 -492 4 l-492 -3 -81 -127 c-44 -70
-86 -133 -93 -140 -9 -9 -12 43 -12 245 l0 257 1000 0 1000 0 0 -390z m2840 0
l0 -390 -1385 0 -1385 0 0 390 0 390 1385 0 1385 0 0 -390z m3100 0 l0 -390
-1517 2 -1518 3 -3 388 -2 387 1520 0 1520 0 0 -390z m2530 0 l0 -390 -1235 0
-1235 0 0 390 0 390 1235 0 1235 0 0 -390z m698 3 l-3 -388 -317 -3 -318 -2 0
390 0 390 320 0 320 0 -2 -387z m-10108 93 c0 -3 -28 -48 -61 -100 l-61 -96
-414 0 c-264 0 -414 4 -414 10 0 5 26 50 58 100 l57 90 418 0 c229 0 417 -2
417 -4z m-820 -911 l0 -366 -117 3 -118 3 -3 350 c-1 192 0 356 3 362 3 10 36
13 120 13 l115 0 0 -365z m3130 0 l0 -365 -1530 0 -1530 0 0 365 0 365 1530 0
1530 0 0 -365z m2770 0 l0 -365 -1355 0 -1355 0 0 365 0 365 1355 0 1355 0 0
-365z m2760 0 l0 -365 -1345 0 -1345 0 0 365 0 365 1345 0 1345 0 0 -365z
m2265 0 l0 -360 -1102 -3 -1103 -2 0 365 0 365 1103 -2 1102 -3 0 -360z
m-9505 -835 l0 -410 -827 2 -828 3 -3 128 -3 127 339 0 c310 0 340 1 354 18
27 30 188 289 188 301 0 8 -118 11 -440 11 l-440 0 0 108 c0 60 3 112 7 115 3
4 377 7 830 7 l823 0 0 -410z m2838 3 l-3 -408 -1385 0 -1385 0 -3 395 c-1
217 0 401 3 407 3 10 289 13 1390 13 l1385 0 -2 -407z m2970 0 l-3 -408 -1450
0 -1450 0 -3 395 c-1 217 0 401 3 407 3 10 302 13 1455 13 l1450 0 -2 -407z
m2760 0 l-3 -408 -1345 0 -1345 0 -3 408 -2 407 1350 0 1350 0 -2 -407z m940
284 c3 -133 10 -113 -104 -293 -46 -72 -84 -134 -84 -138 0 -3 43 -6 95 -6
l96 0 -3 -127 -3 -128 -435 0 -435 0 -3 408 -2 407 437 -2 438 -3 3 -118z
m-10400 -185 c-1 -5 -28 -48 -58 -95 l-55 -87 -327 0 -328 0 0 95 0 95 386 0
c212 0 384 -4 382 -8z m-270 -874 l-3 -303 -245 0 -245 0 -3 303 -2 302 250 0
250 0 -2 -302z m3150 0 l-3 -303 -1542 -3 -1543 -2 0 305 0 305 1545 0 1545 0
-2 -302z m2942 -3 l0 -305 -1440 0 -1440 0 0 305 0 305 1440 0 1440 0 0 -305z
m2590 0 l0 -305 -1260 0 -1260 0 0 305 0 305 1260 0 1260 0 0 -305z m1988 3
l-3 -303 -957 -3 -958 -2 0 305 0 305 960 0 960 0 -2 -302z m-9168 -713 l0
-345 -997 2 -998 3 -3 330 c-1 181 0 336 3 342 3 10 209 13 1000 13 l995 0 0
-345z m2840 0 l0 -345 -1390 0 -1390 0 0 345 0 345 1390 0 1390 0 0 -345z
m3090 0 l0 -345 -1515 0 -1515 0 0 345 0 345 1515 0 1515 0 0 -345z m2580 0
l0 -345 -1255 0 -1255 0 0 345 0 345 1255 0 1255 0 0 -345z m655 0 l0 -340
-292 -3 -293 -2 0 345 0 345 293 -2 292 -3 0 -340z m-10895 -770 l0 -366 -132
3 -133 3 -3 350 c-1 192 0 356 3 362 3 10 39 13 135 13 l130 0 0 -365z m3030
0 l0 -365 -1480 0 -1480 0 0 365 0 365 1480 0 1480 0 0 -365z m2890 0 l0 -365
-1410 0 -1410 0 0 365 0 365 1410 0 1410 0 0 -365z m2808 3 l-3 -363 -1367 -3
-1368 -2 0 365 0 365 1370 0 1370 0 -2 -362z m2167 -3 l0 -360 -1052 -3 -1053
-2 0 365 0 365 1053 -2 1052 -3 0 -360z m-9705 -855 l0 -430 -728 2 -727 3 -3
117 -3 118 243 2 242 3 98 150 c53 83 97 153 97 157 1 4 -151 9 -336 10 l-338
3 -3 148 -3 147 731 0 730 0 0 -430z m2918 3 l-3 -428 -1422 -3 -1423 -2 0
430 0 430 1425 0 1425 0 -2 -427z m3032 -3 l0 -430 -1482 2 -1483 3 -3 428 -2
427 1485 0 1485 0 0 -430z m2620 0 l0 -430 -1275 0 -1275 0 0 430 0 430 1275
0 1275 0 0 -430z m1138 283 l-3 -148 -98 -5 -97 -5 -95 -149 c-52 -83 -95
-154 -95 -158 0 -4 88 -8 195 -8 l196 0 -3 -117 -3 -118 -535 0 -535 0 -3 428
-2 427 540 0 541 0 -3 -147z m-10620 -251 c-13 -21 -39 -63 -58 -95 l-35 -56
-227 -1 -228 0 0 95 0 95 286 0 285 0 -23 -38z m10622 -57 l0 -95 -141 0
c-109 0 -139 3 -133 13 5 6 32 49 61 95 l53 82 80 0 80 0 0 -95z m-8212 -782
l-3 -318 -1472 -3 -1473 -2 0 320 0 320 1475 0 1475 0 -2 -317z m2832 -3 l0
-320 -1385 0 -1385 0 0 320 0 320 1385 0 1385 0 0 -320z m2790 0 l0 -320
-1360 0 -1360 0 0 320 0 320 1360 0 1360 0 0 -320z m2588 3 l-3 -318 -1262 -3
-1263 -2 0 320 0 320 1265 0 1265 0 -2 -317z m-9478 -828 l0 -445 -845 0 -846
0 3 103 3 102 395 3 395 3 95 151 c52 83 97 155 98 159 2 5 -219 9 -492 9
l-496 0 0 173 c0 96 3 177 7 180 3 4 384 7 845 7 l838 0 0 -445z m2818 -2 l2
-443 -1375 0 -1375 0 0 445 0 445 1373 -2 1372 -3 3 -442z m2992 2 l0 -445
-1465 0 -1465 0 0 445 0 445 1465 0 1465 0 0 -445z m2810 0 l0 -445 -1375 0
-1375 0 0 445 0 445 1375 0 1375 0 0 -445z m855 170 l0 -271 -42 -66 -42 -67
42 -3 42 -3 3 -102 3 -103 -396 0 -395 0 0 445 0 445 393 -2 392 -3 0 -270z
m-10291 -157 c-4 -7 -32 -52 -62 -101 l-55 -87 -376 2 -376 3 -3 57 c-2 42 2
67 18 97 l20 41 421 0 c333 0 419 -3 413 -12z m-444 -928 l0 -400 -215 0 -215
0 0 400 0 400 215 0 215 0 0 -400z m3100 0 l0 -400 -1520 0 -1520 0 0 400 0
400 1520 0 1520 0 0 -400z m2840 0 l0 -400 -1390 0 -1390 0 0 400 0 400 1390
0 1390 0 0 -400z m2670 0 l0 -400 -1305 0 -1305 0 0 400 0 400 1305 0 1305 0
0 -400z m2130 0 l0 -400 -1035 0 -1035 0 0 400 0 400 1035 0 1035 0 0 -400z
m-9142 -542 l-3 -73 -1010 0 -1010 0 -3 73 -3 72 1016 0 1016 0 -3 -72z m2822
-3 l0 -75 -1377 2 -1378 3 -3 73 -3 72 1381 0 1380 0 0 -75z m3118 3 l-3 -73
-1522 -3 -1523 -2 0 75 0 75 1525 0 1526 0 -3 -72z m2572 -3 l0 -75 -1255 0
-1255 0 0 75 0 75 1255 0 1255 0 0 -75z m628 3 l-3 -73 -277 -3 -278 -2 0 75
0 75 280 0 281 0 -3 -72z"/>
<path d="M1648 8808 c-36 -57 -82 -129 -102 -160 l-37 -58 495 0 494 0 86 135
c47 74 93 146 102 160 l16 25 -495 0 -495 0 -64 -102z m929 28 c-3 -8 -31 -53
-61 -100 l-56 -86 -416 0 c-353 0 -415 2 -411 14 3 8 31 53 61 100 l56 86 416
0 c353 0 415 -2 411 -14z"/>
<path d="M4593 8853 c-20 -32 -60 -95 -89 -139 -29 -45 -57 -91 -63 -103 l-12
-21 493 0 493 0 98 154 c53 84 97 156 97 160 0 3 -221 6 -490 6 l-490 0 -37
-57z m907 -7 c0 -3 -28 -48 -61 -100 l-61 -96 -414 0 c-250 0 -414 4 -414 9 0
5 26 50 58 100 l57 91 418 0 c229 0 417 -2 417 -4z"/>
<path d="M7357 8858 c-51 -80 -153 -241 -161 -255 -6 -10 94 -13 486 -13 l493
0 98 153 c53 85 97 157 97 160 0 4 -220 7 -490 7 l-489 0 -34 -52z m903 -13
c0 -3 -27 -48 -61 -100 l-61 -95 -414 0 c-250 0 -414 4 -414 9 0 5 26 50 58
100 l57 91 418 0 c229 0 417 -2 417 -5z"/>
<path d="M9966 8775 c-47 -74 -93 -146 -102 -160 l-16 -25 494 0 495 0 91 143
c50 79 94 151 98 160 6 16 -31 17 -484 17 l-490 0 -86 -135z m948 53 c-4 -7
-32 -50 -61 -95 l-53 -83 -420 0 -420 0 53 83 c29 45 56 88 61 95 5 9 102 12
427 12 333 0 419 -3 413 -12z"/>
<path d="M3048 7976 c-54 -84 -98 -156 -98 -160 0 -3 221 -5 492 -4 l492 3 83
130 c46 72 90 142 99 158 l15 27 -493 0 -493 0 -97 -154z m953 62 c-12 -18
-40 -63 -63 -100 l-43 -68 -417 0 c-230 0 -418 2 -418 5 0 3 27 48 61 100 l61
95 420 0 420 0 -21 -32z"/>
<path d="M5976 7995 c-47 -74 -93 -146 -102 -160 l-16 -25 495 0 495 0 64 103
c36 56 82 128 102 160 l37 57 -495 0 -494 0 -86 -135z m951 61 c-3 -8 -31 -53
-61 -100 l-56 -86 -416 0 c-353 0 -415 2 -411 14 3 8 31 53 61 100 l56 86 416
0 c353 0 415 -2 411 -14z"/>
<path d="M8830 7979 c-52 -83 -97 -155 -98 -160 -2 -6 194 -8 489 -7 l493 3
98 153 c54 84 98 155 98 158 0 2 -222 4 -492 4 l-493 0 -95 -151z m958 69 c-8
-13 -36 -58 -63 -100 l-48 -78 -419 0 c-333 0 -418 3 -412 13 4 6 32 51 62
100 l55 87 419 0 420 0 -14 -22z"/>
<path d="M1327 7167 c-53 -85 -97 -157 -97 -160 0 -4 221 -6 491 -5 l491 3 77
120 c42 66 87 137 100 158 l23 37 -494 0 -493 0 -98 -153z m967 81 c-5 -7 -32
-50 -61 -95 l-53 -83 -420 0 -420 0 53 83 c29 45 56 88 61 95 5 9 102 12 427
12 334 0 419 -3 413 -12z"/>
<path d="M4387 7268 c-51 -80 -153 -241 -161 -255 -6 -10 94 -13 486 -13 l493
0 102 160 102 160 -494 0 -494 0 -34 -52z m901 -16 c-1 -5 -28 -48 -58 -95
l-55 -87 -418 0 c-230 0 -417 4 -415 8 2 4 28 47 58 95 l55 87 418 0 c230 0
417 -4 415 -8z"/>
<path d="M7136 7169 c-53 -83 -96 -155 -96 -160 0 -5 197 -9 489 -9 l488 0 94
147 c52 81 98 153 102 160 7 11 -80 13 -486 13 l-495 0 -96 -151z m964 85 c0
-4 -25 -47 -56 -95 l-56 -89 -419 0 c-334 0 -419 3 -413 13 4 6 32 49 61 95
l53 82 415 0 c228 0 415 -3 415 -6z"/>
<path d="M9687 7167 c-53 -85 -97 -157 -97 -160 0 -4 221 -6 491 -5 l491 3 77
120 c42 66 87 137 100 158 l23 37 -494 0 -493 0 -98 -153z m939 38 c-20 -30
-47 -73 -61 -95 l-25 -40 -420 0 -421 0 35 55 c20 30 47 73 61 95 l25 40 420
0 421 0 -35 -55z"/>
<path d="M2778 6483 c-31 -36 -196 -302 -190 -307 3 -3 222 -6 487 -6 447 0
483 1 497 18 26 30 188 291 188 301 0 8 -152 11 -483 11 -448 0 -485 -1 -499
-17z m860 -76 c-7 -13 -33 -55 -58 -95 l-45 -72 -417 0 c-230 0 -418 2 -418 5
0 3 26 46 57 95 l56 90 419 0 419 0 -13 -23z"/>
<path d="M5668 6483 c-31 -36 -196 -302 -190 -307 3 -3 222 -6 487 -6 447 0
483 1 497 18 26 30 188 291 188 301 0 8 -152 11 -483 11 -448 0 -485 -1 -499
-17z m870 -61 c-1 -4 -28 -47 -58 -95 l-55 -87 -418 0 c-230 0 -417 4 -415 8
2 5 28 48 58 95 l55 87 418 0 c230 0 417 -4 415 -8z"/>
<path d="M8496 6448 c-129 -203 -166 -263 -166 -270 0 -4 220 -8 489 -8 l489
0 101 159 c56 87 101 161 101 165 0 3 -221 6 -490 6 l-490 0 -34 -52z m842
-113 l-60 -95 -420 0 c-333 0 -418 3 -412 13 4 6 32 49 61 95 l53 82 419 0
420 0 -61 -95z"/>
<path d="M1620 5559 c-52 -83 -97 -155 -98 -160 -2 -6 194 -8 489 -7 l493 3
98 153 c54 84 98 155 98 158 0 2 -222 4 -492 4 l-493 0 -95 -151z m964 79 c-4
-7 -32 -50 -61 -95 l-53 -83 -419 0 -420 0 61 95 60 95 420 0 c333 0 418 -3
412 -12z"/>
<path d="M4640 5558 c-52 -83 -97 -155 -98 -160 -2 -4 215 -7 489 -6 l493 3
98 150 c53 83 97 153 97 158 1 4 -221 7 -491 7 l-493 -1 -95 -151z m948 54
c-13 -21 -39 -63 -58 -95 l-35 -56 -417 -1 c-230 0 -418 3 -418 6 0 4 25 46
56 95 l57 89 419 0 419 0 -23 -38z"/>
<path d="M7642 5698 c-15 -20 -192 -299 -192 -304 0 -2 220 -4 488 -4 453 0
490 1 504 18 18 21 188 289 188 296 0 4 -220 6 -489 6 -379 0 -491 -3 -499
-12z m876 -56 c-1 -4 -28 -47 -58 -95 l-55 -87 -418 0 c-230 0 -417 4 -415 8
2 5 28 48 58 95 l55 87 418 0 c230 0 417 -4 415 -8z"/>
<path d="M10122 5698 c-16 -22 -192 -298 -192 -303 0 -3 221 -4 492 -3 l492 3
98 150 c53 83 97 153 98 158 0 4 -220 7 -489 7 -379 0 -491 -3 -499 -12z m866
-71 c-7 -13 -33 -55 -58 -95 l-45 -72 -417 0 c-230 0 -418 2 -418 5 0 3 26 46
57 95 l56 90 419 0 419 0 -13 -23z"/>
<path d="M238 4826 c-54 -84 -98 -156 -98 -160 0 -3 221 -5 492 -4 l492 3 83
130 c46 72 90 142 99 158 l15 27 -493 0 -493 0 -97 -154z m966 82 c-5 -7 -32
-50 -61 -95 l-53 -83 -420 0 -420 0 53 83 c29 45 56 88 61 95 5 9 102 12 427
12 334 0 419 -3 413 -12z"/>
<path d="M3037 4928 c-128 -201 -157 -248 -157 -258 0 -7 157 -10 483 -10 448
0 485 1 499 18 9 9 56 81 106 160 l91 142 -494 0 -494 0 -34 -52z m901 -16
c-1 -5 -28 -48 -58 -95 l-55 -87 -418 0 c-230 0 -417 4 -415 8 2 4 28 47 58
95 l55 87 418 0 c230 0 417 -4 415 -8z"/>
<path d="M5922 4837 c-50 -79 -94 -151 -98 -160 -6 -16 31 -17 484 -17 l490 0
86 135 c47 74 93 146 102 160 l16 25 -494 0 -495 0 -91 -143z m906 -12 l-60
-95 -420 0 c-333 0 -418 3 -412 13 4 6 32 49 61 95 l53 82 419 0 420 0 -61
-95z"/>
<path d="M8917 4928 c-128 -201 -157 -248 -157 -258 0 -7 158 -10 488 -10
l487 0 102 160 102 160 -494 0 -494 0 -34 -52z m903 -13 c0 -3 -26 -46 -57
-95 l-56 -90 -419 0 -419 0 13 23 c7 13 33 55 58 95 l45 72 418 0 c229 0 417
-2 417 -5z"/>
<path d="M1416 4162 c-24 -38 -69 -108 -100 -156 -31 -48 -56 -89 -56 -91 0
-3 222 -5 493 -5 l492 0 95 151 c52 83 97 155 98 160 2 5 -198 9 -487 9 l-491
0 -44 -68z m914 4 c0 -3 -28 -48 -61 -100 l-61 -96 -420 0 -420 0 14 23 c8 12
37 57 64 99 l49 78 418 0 c229 0 417 -2 417 -4z"/>
<path d="M4278 4076 c-54 -84 -98 -156 -98 -160 0 -3 221 -5 492 -4 l492 3 83
130 c46 72 90 142 99 158 l15 27 -493 0 -493 0 -97 -154z m962 85 c0 -5 -26
-50 -57 -100 l-58 -91 -417 0 c-230 0 -418 2 -418 5 0 3 27 48 61 100 l61 95
414 0 c250 0 414 -4 414 -9z"/>
<path d="M7312 4218 c-15 -20 -192 -299 -192 -304 0 -2 222 -4 493 -4 l492 0
95 151 c52 83 97 155 98 160 2 5 -198 9 -486 9 -380 0 -492 -3 -500 -12z m872
-60 c-4 -7 -32 -52 -62 -100 l-55 -88 -419 0 -420 0 14 23 c8 12 36 57 63 100
l48 77 419 0 c333 0 418 -3 412 -12z"/>
<path d="M9821 4192 c-14 -20 -60 -92 -103 -160 l-78 -122 496 2 497 3 89 140
c49 77 93 148 99 158 9 16 -17 17 -483 17 l-493 0 -24 -38z m885 -39 c-4 -9
-30 -54 -59 -99 l-52 -84 -417 0 c-230 0 -418 2 -418 5 0 3 16 30 35 60 19 30
46 73 60 95 l25 40 416 0 c384 0 416 -1 410 -17z"/>
<path d="M2516 3288 c-18 -29 -63 -100 -100 -158 l-67 -105 487 -3 c320 -1
491 1 499 8 14 11 195 294 195 304 0 3 -221 6 -490 6 l-490 0 -34 -52z m902
-16 c-1 -5 -28 -48 -58 -95 l-55 -87 -418 0 c-230 0 -417 4 -415 8 2 4 28 47
58 95 l55 87 418 0 c230 0 417 -4 415 -8z"/>
<path d="M5500 3189 c-52 -83 -97 -155 -98 -160 -2 -6 194 -8 489 -7 l493 3
98 153 c54 84 98 155 98 158 0 2 -222 4 -492 4 l-493 0 -95 -151z m964 79 c-4
-7 -32 -50 -61 -95 l-53 -83 -419 0 -420 0 61 95 60 95 420 0 c333 0 418 -3
412 -12z"/>
<path d="M8303 3197 c-51 -78 -95 -150 -98 -160 -7 -16 22 -17 483 -17 l490 0
87 138 c49 75 95 147 103 160 l14 22 -494 0 -494 0 -91 -143z m911 -4 c-31
-49 -59 -91 -63 -96 -4 -4 -195 -6 -424 -5 l-416 3 60 93 59 92 420 0 420 0
-56 -87z"/>
<path d="M1112 2548 c-15 -20 -192 -299 -192 -304 0 -2 222 -4 493 -4 l492 0
95 151 c52 83 97 155 98 160 2 5 -198 9 -486 9 -380 0 -492 -3 -500 -12z m866
-71 c-7 -13 -33 -55 -58 -95 l-45 -72 -417 0 c-230 0 -418 2 -418 5 0 3 26 46
57 95 l56 90 419 0 419 0 -13 -23z"/>
<path d="M4022 2417 c-50 -79 -94 -151 -98 -160 -6 -16 31 -17 484 -17 l490 0
86 135 c47 74 93 146 102 160 l16 25 -494 0 -495 0 -91 -143z m906 -12 l-60
-95 -420 0 c-333 0 -418 3 -412 13 4 6 32 49 61 95 l53 82 419 0 420 0 -61
-95z"/>
<path d="M6782 2417 c-50 -79 -94 -151 -98 -160 -6 -16 31 -17 484 -17 l490 0
86 135 c47 74 93 146 102 160 l16 25 -494 0 -495 0 -91 -143z m912 -4 c-31
-49 -59 -91 -63 -96 -4 -4 -195 -6 -424 -5 l-416 3 60 93 59 92 420 0 420 0
-56 -87z"/>
<path d="M9510 2408 c-52 -83 -97 -155 -98 -160 -2 -4 215 -7 489 -6 l493 3
98 150 c53 83 97 153 97 158 1 4 -221 7 -491 7 l-493 -1 -95 -151z m958 69
c-7 -13 -33 -55 -58 -95 l-45 -72 -417 0 c-230 0 -418 2 -418 5 0 3 26 46 57
95 l56 90 419 0 419 0 -13 -23z"/>
<path d="M2696 1525 c-47 -74 -93 -146 -102 -160 l-16 -25 495 0 495 0 64 103
c36 56 82 128 102 160 l37 57 -495 0 -494 0 -86 -135z m951 62 c-3 -7 -30 -52
-61 -100 l-56 -87 -415 0 c-228 0 -415 4 -415 8 0 4 27 49 60 100 l59 92 417
0 c336 0 415 -2 411 -13z"/>
<path d="M5608 1558 c-36 -57 -82 -129 -102 -160 l-37 -58 494 0 494 0 94 147
c52 80 98 152 102 160 7 11 -75 13 -486 13 l-495 0 -64 -102z m929 28 c-3 -8
-31 -53 -61 -100 l-56 -86 -416 0 c-353 0 -415 2 -411 14 3 8 31 53 61 100
l56 86 416 0 c353 0 415 -2 411 -14z"/>
<path d="M8570 1508 c-52 -83 -96 -155 -98 -159 -2 -5 218 -9 490 -9 l493 1
95 151 c52 83 97 155 98 159 2 5 -218 9 -490 9 l-493 -1 -95 -151z m958 70
c-8 -13 -36 -58 -63 -100 l-48 -78 -420 0 -419 0 14 23 c8 12 36 57 62 100
l48 77 420 0 420 0 -14 -22z"/>
<path d="M1632 808 c-15 -20 -192 -299 -192 -304 0 -2 222 -4 493 -4 l492 0
95 151 c52 83 97 155 98 160 2 5 -198 9 -486 9 -380 0 -492 -3 -500 -12z m816
-153 l-60 -95 -420 0 c-333 0 -418 3 -412 13 4 6 32 49 61 95 l53 82 419 0
420 0 -61 -95z"/>
<path d="M4678 803 c-20 -23 -188 -288 -188 -297 0 -3 221 -5 492 -4 l491 3
93 145 c52 80 94 151 94 158 0 9 -103 12 -483 12 -448 0 -485 -1 -499 -17z
m870 -61 c-1 -4 -28 -47 -58 -95 l-55 -87 -418 0 c-230 0 -417 4 -415 8 2 5
28 48 58 95 l55 87 418 0 c230 0 417 -4 415 -8z"/>
<path d="M7492 808 c-24 -31 -192 -300 -192 -309 0 -5 192 -9 489 -9 l489 0
101 161 c55 88 101 162 101 165 0 2 -220 4 -489 4 -379 0 -491 -3 -499 -12z
m868 -64 c0 -4 -25 -46 -56 -95 l-57 -89 -419 0 -419 0 23 38 c13 21 39 63 58
95 l35 56 418 1 c229 0 417 -3 417 -6z"/>
<path d="M9924 664 c-54 -87 -101 -161 -102 -166 -2 -4 216 -7 489 -6 l493 3
98 150 c53 83 97 156 97 163 1 9 -103 12 -487 12 l-489 0 -99 -156z m954 63
c-7 -13 -33 -55 -58 -95 l-45 -72 -417 0 c-230 0 -418 2 -418 5 0 3 26 46 57
95 l56 90 419 0 419 0 -13 -23z"/>
</g>
</svg>
