<?xml version="1.0" standalone="no"?>
<!DOCTYPE svg PUBLIC "-//W3C//DTD SVG 20010904//EN"
 "http://www.w3.org/TR/2001/REC-SVG-20010904/DTD/svg10.dtd">
<svg version="1.0" xmlns="http://www.w3.org/2000/svg"
 width="1125.000000pt" height="900.000000pt" viewBox="0 0 1125.000000 900.000000"
 preserveAspectRatio="xMidYMid meet">
<metadata>
Created by potrace 1.13, written by Peter Selinger 2001-2015
</metadata>
<g transform="translate(0.000000,900.000000) scale(0.100000,-0.100000)"
fill="#000000" stroke="none">
<path d="M0 4500 l0 -4500 5625 0 5625 0 0 4500 0 4500 -5625 0 -5625 0 0
-4500z m370 4453 c0 -10 -313 -323 -322 -323 -10 0 -11 314 -1 323 9 10 323 9
323 0z m750 -1 c0 -4 -119 -126 -265 -272 -146 -146 -265 -273 -265 -282 0
-10 -5 -15 -13 -12 -7 2 -32 -16 -56 -40 l-43 -44 -43 18 -43 18 -168 -48
c-92 -27 -172 -46 -176 -44 -4 3 -8 67 -8 142 l0 136 218 218 218 218 322 0
c177 0 322 -3 322 -8z m750 1 c0 -4 -78 -85 -172 -180 l-173 -173 -297 0 -298
0 0 -30 0 -30 267 0 268 0 -438 -438 c-240 -240 -437 -445 -437 -454 0 -10 -6
-15 -12 -13 -7 3 -128 -110 -268 -250 -140 -140 -258 -255 -262 -255 -5 0 -8
145 -8 321 l0 322 79 80 78 80 44 -82 c30 -56 48 -79 58 -76 27 10 551 347
551 354 0 4 -70 38 -155 76 l-156 68 26 27 c14 14 25 34 25 44 0 10 5 16 13
13 6 -3 149 132 317 299 l306 304 322 0 c177 0 322 -3 322 -7z m444 -9 c3 -9
6 -32 6 -51 0 -35 0 -36 38 -30 89 14 170 19 175 10 3 -5 -433 -448 -969 -984
-537 -537 -974 -982 -974 -991 0 -10 -5 -15 -12 -13 -7 3 -128 -110 -268 -250
-140 -140 -258 -255 -263 -255 -4 0 -6 145 -5 323 l3 322 208 3 207 2 0 30 0
30 -170 0 c-93 0 -170 3 -170 8 0 4 106 113 235 242 175 175 235 241 235 259
0 18 3 21 13 13 10 -9 121 96 482 458 l470 470 207 0 208 0 0 30 0 30 -170 0
c-93 0 -170 4 -170 8 0 4 78 85 173 180 l173 172 166 0 c142 0 167 -2 172 -16z
m1056 8 c0 -4 -625 -633 -1390 -1397 -769 -769 -1390 -1398 -1390 -1407 0 -10
-5 -15 -12 -13 -7 3 -128 -110 -268 -250 -140 -140 -258 -255 -262 -255 -5 0
-8 145 -8 322 l0 322 275 276 c204 204 275 282 275 299 0 18 3 21 13 13 10 -9
235 211 982 958 534 534 973 970 977 970 3 0 26 -47 50 -105 23 -58 48 -105
54 -105 6 0 107 43 225 96 118 53 219 98 225 100 8 4 6 26 -7 77 -30 116 -40
107 121 107 77 0 140 -3 140 -8z m750 1 c0 -5 -253 -261 -562 -570 l-563 -563
-330 0 -330 0 570 570 570 570 323 0 c177 0 322 -3 322 -7z m750 0 c0 -5 -253
-261 -562 -570 l-563 -563 -330 0 -330 0 570 570 570 570 323 0 c177 0 322 -3
322 -7z m750 0 c0 -4 -71 -79 -157 -165 l-158 -158 -330 0 -330 0 166 165 165
165 322 0 c177 0 322 -3 322 -7z m661 -34 l21 -42 -123 -123 -124 -124 -330 0
-330 0 166 165 165 165 267 0 267 0 21 -41z m839 33 c0 -4 -228 -235 -507
-514 l-508 -508 -205 -2 -205 -3 0 -30 0 -30 168 -5 167 -5 -485 -485 -485
-485 -45 45 -45 45 6 -31 c9 -44 -18 -90 -58 -102 -18 -6 -83 -13 -143 -16
-255 -13 -315 -59 -229 -179 43 -60 64 -115 64 -171 0 -40 -3 -43 -488 -529
l-489 -489 -79 -20 c-57 -14 -130 -22 -266 -26 l-186 -7 71 -97 c40 -54 83
-118 97 -144 l25 -47 -864 -858 -863 -859 -226 -2 -227 -3 -3 -32 -3 -33 193
0 193 0 -453 -453 c-262 -262 -452 -460 -452 -470 0 -10 -4 -16 -8 -13 -5 3
-125 -112 -268 -255 -142 -142 -262 -259 -266 -259 -5 0 -8 147 -8 328 l0 327
275 270 c209 205 276 276 275 294 0 15 4 21 13 18 9 -3 218 199 538 519 288
288 530 524 537 524 7 0 35 -21 62 -46 l49 -46 30 21 c48 34 227 116 331 152
52 18 96 33 98 35 2 1 -1 12 -7 23 -17 32 -89 76 -179 111 -45 17 -85 36 -88
42 -4 6 67 84 157 174 l164 164 277 0 278 0 0 30 0 30 -242 0 -243 0 1860
1860 1860 1860 52 0 c52 0 53 0 53 30 0 24 -4 30 -22 30 -18 0 -6 17 67 90 83
83 90 88 98 68 4 -12 10 -24 12 -26 8 -8 335 173 335 186 0 9 51 12 220 12
121 0 220 -3 220 -8z m750 1 c0 -4 -53 -61 -117 -125 l-118 -118 -187 0 -188
0 0 -30 0 -30 150 0 c83 0 150 -3 150 -7 0 -5 -159 -167 -352 -360 l-353 -353
-330 0 -330 0 515 515 515 515 323 0 c177 0 322 -3 322 -7z m750 -1 c0 -4
-147 -154 -327 -334 l-328 -327 -130 -37 c-71 -20 -136 -40 -144 -44 -9 -5 3
-20 43 -51 l56 -44 -537 -537 c-450 -450 -542 -538 -565 -538 -24 0 -28 -4
-28 -27 0 -23 -62 -90 -362 -390 l-363 -363 -147 0 -148 0 0 -30 0 -30 110 0
c61 0 110 -4 110 -9 0 -5 -478 -484 -1062 -1065 l-1061 -1056 -314 0 -314 0 3
-27 3 -28 278 -5 277 -5 -784 -784 -784 -784 -84 6 c-138 10 -303 67 -383 132
l-30 24 365 365 365 366 273 0 273 0 -3 33 -3 32 -234 5 -234 5 2232 2225
2232 2225 230 3 229 2 0 35 0 35 -192 0 -193 0 360 360 360 360 212 0 213 0 0
30 0 30 -182 0 -183 0 126 125 126 125 321 0 c177 0 322 -3 322 -8z m750 1 c0
-5 -138 -146 -307 -315 -224 -224 -314 -308 -331 -308 -34 0 -131 37 -173 66
-52 36 -91 96 -104 159 l-10 54 -60 -80 c-77 -105 -139 -156 -217 -180 -34
-10 -63 -17 -65 -16 -1 2 138 143 310 315 l313 312 322 0 c177 0 322 -3 322
-7z m750 0 c0 -4 -64 -72 -142 -150 l-143 -143 -207 0 -208 0 0 -35 0 -35 172
0 173 0 -775 -775 -775 -775 -330 0 -330 0 525 525 525 525 93 -19 c51 -11
130 -32 175 -47 84 -28 198 -39 206 -19 3 6 -11 20 -30 32 -101 64 -142 127
-154 239 -6 57 -8 61 -28 57 -13 -3 114 131 293 311 l316 316 322 0 c177 0
322 -3 322 -7z m750 0 c0 -4 -64 -72 -142 -150 l-143 -143 -330 0 -330 0 151
150 150 150 322 0 c177 0 322 -3 322 -7z m338 -207 l2 -210 -302 -303 -303
-303 -330 0 -330 0 330 330 330 330 290 2 290 3 0 30 0 30 -253 5 -253 5 149
148 149 148 114 -3 114 -3 3 -209z m-1023 -486 l-330 -330 -152 0 -153 0 0
-35 0 -34 116 -3 115 -3 -1615 -1613 c-889 -888 -1621 -1612 -1628 -1610 -7 3
-21 -6 -31 -18 -39 -50 -139 -91 -306 -125 -196 -40 -241 -51 -241 -59 0 -5
37 -21 83 -36 45 -15 107 -38 137 -51 l54 -24 -424 -424 -425 -425 -182 0
-183 0 0 -30 0 -30 152 0 153 0 -580 -580 -580 -580 -330 0 -330 0 175 175
c96 96 181 175 188 175 7 0 44 31 81 69 70 71 189 155 296 208 65 33 176 73
200 73 24 0 18 29 -24 105 l-40 71 442 442 442 442 58 0 c57 0 57 0 57 30 0
23 -4 30 -20 30 -11 0 -20 3 -20 8 0 4 316 323 703 709 l702 702 110 3 110 3
3 33 3 32 -78 0 -78 0 350 351 c193 193 364 358 380 367 23 12 59 16 150 16
135 0 226 -21 324 -75 29 -17 54 -29 56 -27 1 2 -51 88 -116 193 l-119 190
202 202 c112 112 208 203 215 203 7 0 13 6 13 12 0 7 357 370 792 805 l793
793 330 0 330 0 -330 -330z m-5160 90 l-219 -220 -36 35 c-20 19 -38 35 -42
35 -3 0 -36 -21 -74 -46 -89 -60 -147 -89 -237 -118 -89 -29 -253 -50 -319
-42 -27 4 -48 5 -48 2 0 -2 104 -39 231 -81 l231 -77 -373 -374 -374 -374
-330 0 -330 0 335 335 334 334 61 3 c57 3 60 4 63 31 3 25 0 27 -30 27 -31 0
-14 19 342 375 l375 375 330 0 330 0 -220 -220z m-890 -1640 c-1824 -1824
-1861 -1860 -1898 -1860 -38 0 -38 -1 -36 -35 3 -33 -4 -43 -136 -175 -77 -77
-145 -140 -152 -140 -7 0 -20 15 -30 33 -24 44 -21 145 6 221 12 33 21 60 21
61 0 1 -39 5 -88 8 -48 3 -111 13 -141 22 l-54 17 669 669 c652 652 670 669
707 669 38 0 38 1 36 35 -3 34 8 47 376 415 l380 380 152 0 153 0 0 30 0 30
-122 0 -123 0 362 362 362 362 152 -49 152 -50 21 30 c52 76 162 172 236 208
68 33 72 37 42 37 -83 0 -264 54 -309 92 -12 9 30 56 224 250 l238 238 330 0
330 0 -1860 -1860z m7075 1398 l0 -322 -347 -348 c-195 -195 -355 -348 -365
-348 -11 0 -18 -7 -18 -18 0 -9 -74 -91 -165 -182 l-165 -165 0 63 0 63 -125
133 c-69 74 -125 138 -125 142 0 5 163 172 362 371 l363 363 177 0 178 0 0 35
0 35 -142 0 -143 0 250 250 c137 138 253 250 257 250 5 0 8 -145 8 -322z
m-11132 40 c12 -24 36 -69 53 -101 l32 -58 -53 -54 c-30 -30 -58 -55 -62 -55
-4 0 -8 70 -8 155 0 85 4 155 8 155 4 0 18 -19 30 -42z m7917 -578 l-530 -530
-330 0 -330 0 515 515 c283 283 517 515 520 515 3 0 83 -63 179 -139 l174
-139 57 62 c31 33 95 103 141 154 63 69 90 92 109 92 20 0 -74 -99 -505 -530z
m-3444 -1941 l-2234 -2229 -331 0 -331 0 860 860 860 859 45 -10 c56 -12 191
-76 261 -123 29 -19 54 -34 56 -32 2 2 -2 27 -8 56 -18 83 -8 174 21 205 22
23 32 26 74 23 l49 -3 -6 135 c-4 74 -10 151 -15 171 l-9 37 328 328 c180 180
330 326 332 324 2 -3 12 -33 22 -67 17 -60 20 -63 64 -80 32 -13 74 -18 136
-18 78 0 97 4 141 27 97 51 195 192 220 317 4 17 18 38 32 47 48 31 125 108
154 153 54 86 31 139 -83 197 -38 19 -69 38 -69 42 0 4 226 233 502 509 l503
503 330 -1 330 0 -2234 -2230z m5644 1891 c-187 -187 -345 -338 -352 -336 -6
3 -29 -18 -50 -45 -72 -96 -204 -178 -344 -214 -35 -10 -119 -20 -187 -24
l-123 -6 63 -41 c35 -23 96 -59 136 -80 l73 -38 -188 -188 -189 -188 -162 0
-162 0 0 -30 0 -30 133 0 132 -1 -970 -964 -970 -964 -24 22 c-40 37 -61 98
-68 201 -7 116 -10 117 -108 45 -107 -78 -156 -94 -222 -68 -28 11 -18 21
1617 1650 l1645 1638 330 1 330 0 -340 -340z m-7600 -100 c-187 -187 -342
-340 -345 -340 -3 0 -31 31 -64 69 -57 67 -61 69 -198 126 l-140 58 214 214
213 213 330 0 330 0 -340 -340z m755 5 l-335 -335 -117 0 -118 0 0 -30 0 -30
87 0 88 0 -385 -385 -385 -385 -330 0 -330 0 275 276 c222 222 287 281 335
306 68 35 128 75 167 113 27 25 27 27 11 51 l-16 26 364 364 364 364 330 0
330 0 -335 -335z m7858 -37 l-3 -293 -300 -3 -300 -2 295 295 c162 162 298
295 303 295 4 0 6 -132 5 -292z m-7888 -743 l-385 -385 -330 0 -330 0 385 385
385 385 330 0 330 0 -385 -385z m7150 -350 l-735 -735 -222 0 -223 0 0 -35 0
-35 186 0 187 0 -689 -685 -689 -684 -252 -1 -253 0 0 -30 0 -30 222 0 223 0
-617 -617 -618 -618 -98 98 -99 98 -85 -83 c-91 -90 -153 -131 -275 -183 -72
-31 -212 -68 -223 -58 -2 2 155 163 350 358 l355 355 77 0 78 0 0 30 c0 28 -2
30 -40 30 -22 0 -40 3 -40 8 0 4 269 276 599 606 l598 598 237 57 237 57 150
264 c83 144 153 268 155 275 3 8 -9 15 -33 20 -21 4 -42 9 -47 12 -4 3 200
214 455 469 l464 464 182 0 183 0 0 30 0 30 -145 0 c-80 0 -145 4 -145 8 0 5
44 51 98 104 l97 95 145 8 c80 4 177 10 215 14 l70 6 -125 44 c-69 24 -133 48
-144 54 -16 8 2 29 145 173 l164 164 330 0 330 0 -735 -735z m-3080 677 c0 -4
-37 -44 -82 -89 l-83 -82 -77 26 c-42 14 -83 23 -90 20 -9 -3 -21 -42 -32
-108 -10 -57 -22 -120 -27 -139 l-9 -35 -165 -50 c-91 -28 -165 -52 -165 -55
0 -3 29 -25 65 -50 l66 -44 -403 -403 -403 -403 -335 1 -335 0 325 319 325
320 203 0 202 0 0 30 0 30 -172 0 -173 0 360 360 360 360 322 0 c178 0 323 -3
323 -8z m750 0 c0 -4 -99 -106 -219 -226 l-219 -219 -56 -5 c-88 -7 -132 15
-215 107 -39 43 -89 90 -111 106 l-41 29 108 108 108 108 322 0 c178 0 323 -3
323 -8z m3070 -359 l1 -328 -707 -702 -707 -703 -308 0 -309 0 0 -30 0 -30
277 0 278 0 -935 -935 -935 -935 -42 0 c-41 0 -43 -1 -43 -30 0 -17 5 -30 12
-30 7 0 -268 -281 -611 -624 -369 -369 -621 -628 -617 -635 4 -6 1 -11 -6 -11
-7 0 -203 -190 -435 -422 l-423 -423 -47 46 c-27 25 -103 96 -171 159 l-123
114 143 143 143 143 257 0 258 0 0 30 0 30 -227 0 -228 0 79 79 c44 45 76 84
72 90 -4 6 -1 11 6 11 7 0 166 153 353 339 l340 339 60 7 c111 12 720 137 733
150 3 3 -66 78 -153 165 l-160 160 640 640 640 640 187 0 188 0 0 30 0 30
-150 0 c-82 0 -150 3 -150 8 0 4 305 312 678 684 l677 677 95 3 95 3 3 32 3
32 -62 3 -62 3 692 688 c381 378 695 687 697 687 2 0 4 -147 4 -327z m-9614
182 c62 -47 100 -91 115 -132 10 -31 29 -46 29 -23 0 37 131 130 185 130 13 0
-188 -208 -615 -635 l-635 -635 -317 0 c-242 0 -318 3 -318 12 0 7 124 136
275 288 204 204 275 282 275 299 0 18 3 21 13 13 10 -9 104 80 412 388 l398
399 67 -34 c37 -18 89 -50 116 -70z m7934 -105 c68 -27 255 -76 368 -96 50 -9
92 -20 92 -23 0 -4 -47 -53 -104 -109 l-103 -102 -327 0 c-179 0 -326 3 -326
8 -1 6 340 341 347 342 1 0 25 -9 53 -20z m-2515 -379 c38 -21 81 -91 98 -158
l13 -52 49 31 c60 38 208 108 226 108 8 0 -139 -153 -326 -340 l-340 -340
-335 0 -335 0 391 391 392 391 68 -7 c38 -4 82 -15 99 -24z m2253 -468 l-457
-457 -114 31 -114 30 -26 -41 c-36 -57 -130 -148 -202 -196 -116 -77 -300
-130 -454 -130 l-66 0 610 610 610 610 335 0 335 0 -457 -457z m-7455 357
l312 0 -350 -350 -350 -350 -330 0 -330 0 365 365 c226 227 366 360 368 350 3
-13 45 -15 315 -15z m1047 -7 c0 -5 -291 -299 -647 -655 -585 -585 -649 -646
-667 -636 -12 6 -40 26 -62 44 -36 29 -53 35 -133 45 -50 6 -94 9 -97 6 -3 -3
0 -24 6 -47 15 -55 0 -128 -42 -200 -31 -55 -149 -180 -223 -237 l-39 -31 72
-23 c40 -12 72 -25 72 -29 0 -3 -115 -120 -255 -260 -140 -140 -255 -263 -255
-272 0 -10 -5 -15 -12 -13 -7 3 -128 -110 -268 -250 -140 -140 -258 -255 -262
-255 -5 0 -8 143 -8 318 0 362 0 362 71 362 40 0 41 0 38 35 -3 34 6 44 219
258 151 152 222 229 222 244 0 15 5 20 18 17 12 -3 134 112 427 406 l410 410
57 0 58 0 0 35 c0 30 -3 35 -22 35 -17 0 62 85 327 350 l350 350 322 0 c178 0
323 -3 323 -7z m8350 -329 l0 -326 -62 -65 c-35 -36 -70 -68 -78 -73 -8 -4
-38 -1 -67 7 l-51 15 -36 102 c-58 162 -116 251 -116 179 0 -117 -103 -220
-324 -323 -55 -26 -111 -51 -123 -56 -21 -8 -12 -20 132 -174 85 -91 154 -167
155 -170 0 -3 -222 -228 -494 -499 l-495 -494 -98 6 c-54 4 -172 9 -263 13
l-165 6 -112 -98 c-61 -55 -112 -102 -112 -105 -1 -3 50 -52 113 -107 l114
-101 56 19 c30 11 70 20 88 20 31 0 14 -19 -312 -345 l-345 -345 -322 0 c-178
0 -323 3 -323 7 0 5 417 425 927 935 850 850 931 928 960 928 30 0 33 2 33 32
0 30 57 90 652 685 359 359 656 653 660 653 5 0 8 -147 8 -326z m-5615 -694
l-321 -320 -327 0 c-180 0 -327 3 -327 7 0 5 141 149 312 320 l313 313 335 0
335 0 -320 -320z m355 -390 l-715 -709 -322 -1 c-178 0 -323 3 -323 7 0 5 159
167 352 360 l353 353 317 0 318 0 0 30 0 30 -280 0 c-154 0 -280 3 -280 7 0 5
141 149 312 320 l313 313 335 0 335 -1 -715 -709z m-5357 626 c-3 -14 -10 -23
-17 -20 -6 2 -126 -111 -266 -251 -140 -140 -258 -255 -262 -255 -14 0 -9 286
5 297 6 6 74 21 150 34 75 13 137 26 137 29 0 3 -66 24 -147 46 l-148 40 -3
52 -3 52 279 0 279 0 -4 -24z m379 -359 c-210 -210 -382 -390 -382 -399 0 -10
-6 -15 -12 -13 -7 3 -128 -110 -268 -250 -140 -140 -258 -255 -262 -255 -5 0
-8 145 -8 322 l0 322 275 276 c188 188 275 282 275 297 0 15 5 20 18 17 10 -3
30 8 51 30 l35 36 330 0 331 0 -383 -383z m10238 -69 l0 -182 -337 -338 c-327
-327 -339 -338 -376 -338 -38 0 -38 -1 -35 -35 2 -34 -12 -49 -547 -585 l-550
-550 -322 0 c-178 0 -323 3 -323 8 0 4 150 157 334 341 l335 334 33 -25 c19
-14 42 -44 53 -67 10 -23 23 -41 29 -41 12 0 417 118 422 123 2 1 -10 29 -26
61 -45 88 -40 203 14 330 9 22 14 41 11 44 -2 2 -31 -2 -65 -11 -33 -8 -60
-12 -60 -8 0 8 883 891 892 891 4 0 83 46 175 103 168 104 213 122 311 126
l32 1 0 -182z m-3337 66 c89 -46 148 -126 163 -219 5 -38 -6 -128 -22 -168 -6
-16 -3 -17 22 -11 22 5 -119 -142 -561 -585 l-590 -591 -322 0 c-178 0 -323 3
-323 8 0 4 106 113 235 242 l236 235 37 -40 c20 -22 53 -60 72 -83 26 -32 40
-42 52 -37 10 4 47 66 84 138 80 159 138 243 202 293 26 21 51 41 55 45 5 4
-18 19 -52 34 -34 15 -61 30 -61 34 0 12 715 721 728 721 7 0 27 -7 45 -16z
m-2675 -261 c-1 -5 -163 -167 -359 -360 l-356 -353 -321 0 c-177 0 -322 3
-322 7 0 5 159 167 352 360 l353 353 328 0 c181 0 327 -3 325 -7z m6010 -375
l-3 -283 -282 -3 c-156 -1 -283 1 -283 5 0 10 553 563 563 563 4 0 6 -127 5
-282z m-9885 -59 c81 -32 297 -140 297 -149 0 -4 -232 -237 -515 -517 -374
-370 -515 -516 -515 -532 0 -14 -4 -20 -11 -15 -7 4 -84 -66 -185 -167 -131
-131 -174 -168 -174 -152 0 16 -8 23 -30 28 -35 8 -74 51 -90 101 -12 37 -9
178 6 238 l7 30 -29 -27 c-16 -15 -32 -27 -36 -27 -5 0 -8 26 -8 57 l0 57 275
276 c201 201 275 282 275 299 0 14 5 21 13 18 6 -2 138 119 291 269 l280 272
48 -19 c26 -10 72 -28 101 -40z m5084 -132 c51 -34 131 -95 178 -136 l86 -75
-268 -268 -268 -268 -322 0 c-178 0 -323 3 -323 7 0 15 795 803 810 803 8 0
56 -28 107 -63z m4793 -169 c0 -7 -395 -408 -877 -890 -739 -739 -882 -878
-905 -878 -24 0 -28 -4 -28 -28 0 -22 -50 -77 -290 -317 -160 -160 -288 -296
-285 -302 2 -7 -1 -13 -8 -13 -7 0 -239 -227 -517 -505 l-505 -505 -142 0
-143 0 0 -30 0 -30 113 0 112 0 -255 -255 -256 -255 -322 0 c-177 0 -322 3
-322 8 0 4 292 299 648 655 l649 649 213 -46 212 -46 34 27 c62 52 342 308
343 314 1 3 -29 9 -66 13 -112 11 -206 71 -254 160 l-24 46 535 535 535 535
87 0 88 0 0 30 c0 30 0 30 -57 30 l-58 0 555 555 555 555 317 0 c248 0 318 -3
318 -12z m-7200 -462 l-425 -424 -70 -22 c-38 -11 -98 -24 -132 -27 -35 -3
-63 -9 -63 -14 0 -4 24 -28 53 -53 l52 -45 -680 -680 c-373 -374 -677 -683
-674 -686 3 -2 -150 -160 -341 -350 -261 -260 -354 -346 -377 -351 -22 -4 -29
-11 -26 -23 2 -11 -114 -134 -362 -381 -212 -212 -365 -373 -365 -383 0 -10
-5 -15 -11 -12 -5 4 -34 -16 -64 -44 l-54 -51 -208 2 -208 3 -3 114 -3 114
276 276 c160 161 275 284 275 295 0 11 5 16 13 13 18 -7 762 737 753 752 -4 6
-1 11 6 11 7 0 144 131 303 290 l290 290 76 0 c83 0 221 -21 284 -43 l40 -14
102 103 101 104 -47 0 c-75 0 -140 27 -192 81 -33 34 -50 45 -60 38 -77 -48
64 99 731 766 l775 775 330 0 330 0 -425 -424z m765 14 c-225 -225 -413 -406
-417 -402 -3 4 -8 25 -10 47 -4 47 -5 47 -193 64 -141 12 -185 23 -222 56
l-28 24 310 311 310 310 330 0 330 0 -410 -410z m6445 18 l0 -321 -126 -128
-126 -127 -87 -16 c-114 -21 -305 -46 -352 -46 -21 0 -40 -4 -43 -8 -4 -7 122
-118 203 -179 14 -10 -19 -47 -234 -263 l-250 -250 -330 0 -330 0 830 830
c456 457 833 830 837 830 5 0 8 -145 8 -322z m-5715 -788 l-580 -580 -330 0
-330 0 580 580 580 580 330 0 330 0 -580 -580z m970 220 c-326 -326 -363 -360
-392 -360 -35 0 -41 -8 -21 -28 10 -10 -94 -119 -491 -516 -298 -298 -501
-508 -497 -515 4 -6 1 -11 -6 -11 -7 0 -54 -40 -103 -90 l-90 -90 -330 0 -330
0 79 79 c44 45 76 84 72 90 -4 6 -1 11 6 11 7 0 141 128 298 285 l285 285 87
0 88 0 0 30 c0 30 0 30 -57 30 l-58 0 580 580 580 580 330 0 330 0 -360 -360z
m-4559 -59 c-187 -187 -343 -338 -347 -335 -5 2 -90 -36 -189 -86 l-181 -91
22 -37 c12 -20 30 -49 40 -63 l18 -25 -340 -340 c-248 -248 -339 -345 -339
-362 0 -61 30 -37 369 302 185 185 339 336 342 336 4 0 30 -37 60 -82 29 -46
54 -85 56 -87 1 -2 53 8 115 23 95 22 288 56 323 56 5 0 -116 -126 -270 -280
-153 -153 -277 -282 -274 -284 3 -3 -158 -169 -358 -368 -200 -199 -363 -368
-363 -375 0 -7 -6 -10 -12 -8 -7 3 -128 -110 -268 -250 -140 -140 -258 -255
-262 -255 -5 0 -8 145 -8 322 l0 322 157 158 c86 87 163 158 170 158 7 0 13 6
13 13 0 7 47 59 105 117 72 71 105 112 105 127 0 17 -6 23 -23 23 -15 0 -57
-35 -132 -110 l-110 -110 -140 2 -140 3 -3 189 -2 190 275 276 c160 160 275
283 275 294 0 11 5 16 13 13 9 -3 202 183 498 479 l484 484 330 0 330 0 -339
-339z m1715 -205 l165 -165 -488 -488 c-271 -271 -486 -494 -483 -500 2 -7 -1
-13 -8 -13 -7 0 -158 -146 -337 -325 l-324 -324 -19 29 c-10 17 -25 30 -33 30
-15 0 -534 -66 -594 -76 -32 -5 -6 24 289 319 190 191 321 329 317 336 -4 6
-1 11 6 11 7 0 312 299 678 665 366 366 665 665 665 665 1 0 75 -74 166 -164z
m4310 -520 c-369 -369 -621 -628 -617 -635 4 -6 1 -11 -6 -11 -7 0 -227 -214
-488 -475 l-474 -474 -91 -3 -90 -3 -3 -32 -3 -32 56 -3 56 -3 -279 -277 -278
-278 -248 0 -249 0 6 86 5 87 228 229 c126 126 246 239 267 251 21 11 36 26
33 32 -2 7 189 205 425 441 238 238 427 435 424 442 -2 6 1 12 8 12 7 0 298
286 647 635 l635 635 330 0 330 0 -624 -624z m874 124 c-290 -290 -502 -495
-506 -488 -4 7 -60 -13 -160 -58 l-154 -69 -80 -188 -80 -187 -680 -680 -680
-680 -323 0 c-177 0 -322 3 -322 7 0 5 123 131 272 280 l273 273 247 0 248 0
0 35 0 35 -212 0 -213 0 464 464 c274 274 461 468 457 475 -4 6 -1 11 6 11 7
0 299 286 648 635 l635 635 330 0 330 0 -500 -500z m2125 205 c91 -70 169
-132 175 -137 6 -5 -146 -164 -394 -412 -238 -238 -401 -408 -397 -415 4 -6 1
-11 -6 -11 -7 0 -240 -227 -518 -505 l-505 -505 -330 0 -330 0 493 493 c388
388 490 495 480 505 -9 9 -8 12 8 12 12 0 128 109 314 295 l295 295 253 0 253
0 -3 33 -3 32 -215 3 -214 2 229 230 c143 143 233 226 239 221 6 -5 85 -66
176 -136z m-4733 -86 c91 -105 142 -177 143 -200 0 -21 20 -29 68 -29 37 0 34
-3 -282 -319 -188 -188 -316 -323 -312 -330 4 -6 1 -11 -6 -11 -7 0 -54 -40
-103 -90 l-90 -90 -330 0 -330 0 79 79 c44 45 76 84 72 90 -4 6 -1 11 6 11 7
0 234 220 503 490 269 270 493 490 497 490 3 0 42 -41 85 -91z m5013 -395 l0
-316 -76 -78 c-42 -43 -73 -83 -69 -89 3 -6 0 -11 -7 -11 -7 0 -63 -49 -123
-110 -60 -60 -118 -110 -127 -110 -11 0 -18 -7 -18 -18 0 -9 -108 -125 -240
-257 l-239 -239 -173 52 c-95 28 -173 50 -174 49 -1 -1 -9 -100 -18 -220 -11
-148 -14 -223 -7 -231 8 -9 -55 -77 -232 -254 l-243 -242 -329 0 -330 0 255
255 255 255 222 0 223 0 0 30 0 30 -192 0 -193 0 493 493 c388 388 490 495
480 505 -9 9 -8 12 8 12 12 0 163 144 414 395 217 217 400 393 407 391 6 -3
14 2 17 10 3 8 8 14 11 14 3 0 5 -142 5 -316z m-1369 -188 c-167 -167 -281
-288 -277 -295 4 -6 1 -11 -6 -11 -7 0 -240 -227 -518 -505 l-505 -505 -330 0
-330 0 491 493 c273 272 490 498 487 505 -3 6 1 12 9 12 7 0 146 133 308 295
l295 295 330 0 330 0 -284 -284z m-6010 -10 c-161 -161 -271 -278 -267 -285 4
-6 1 -11 -6 -11 -7 0 -265 -252 -573 -560 -308 -308 -563 -560 -566 -560 -4 0
-59 93 -124 206 l-118 206 343 343 c202 202 340 347 336 354 -4 6 -1 11 6 11
7 0 141 128 298 285 l285 285 330 0 330 0 -274 -274z m750 0 c-161 -161 -271
-278 -267 -285 4 -6 1 -11 -6 -11 -7 0 -54 -40 -103 -90 l-90 -90 -107 0 -108
0 0 -30 0 -30 77 0 78 0 -400 -400 -400 -400 -287 0 -288 0 0 -30 0 -30 258 0
257 0 -240 -240 -241 -240 -322 0 c-177 0 -322 3 -322 8 0 4 72 79 160 167
l160 159 65 -32 66 -32 -35 63 -35 63 579 579 c323 323 578 586 575 593 -2 6
1 12 8 12 7 0 140 128 297 285 l285 285 330 0 330 0 -274 -274z m6627 -368
l-3 -143 -145 -3 -145 -3 98 99 c76 77 95 100 85 110 -9 9 -8 12 8 12 11 0 35
16 54 35 19 19 38 35 42 35 5 0 7 -64 6 -142z m-6803 -568 l-400 -400 -330 0
-330 0 400 400 401 400 329 0 330 0 -400 -400z m791 41 l-359 -359 -119 59
c-65 32 -121 59 -126 59 -5 0 -55 -108 -111 -239 l-102 -239 16 -33 17 -32
-99 -99 -100 -98 -321 0 c-177 0 -322 3 -322 8 0 4 298 305 663 670 l662 662
330 0 330 0 -359 -359z m-5036 214 c-58 -58 -108 -105 -112 -105 -10 0 -11
194 -1 203 3 4 54 7 112 7 l106 0 -105 -105z m11048 -49 l3 -149 -163 -164
c-89 -89 -166 -163 -172 -163 -19 0 -163 116 -256 207 l-95 93 165 165 165
165 175 -2 175 -3 3 -149z m2 -578 l0 -322 -123 -123 -123 -123 -87 0 c-48 0
-87 2 -87 5 0 3 64 37 141 76 117 58 139 73 128 83 -8 7 -54 46 -102 86 -84
70 -87 73 -72 94 9 11 30 49 47 84 25 53 29 71 24 107 -3 25 -11 54 -18 65
-12 18 -1 31 122 155 74 74 138 135 142 135 5 0 8 -145 8 -322z m-9716 35
l128 -197 -204 -203 -204 -203 -322 0 c-297 0 -346 4 -312 25 6 3 10 15 10 27
0 13 5 18 13 15 9 -3 158 139 383 364 203 203 372 369 375 369 3 0 63 -89 133
-197z m3876 -198 l-125 -125 -3 51 c-2 33 2 57 10 65 12 12 226 132 238 133 3
1 -51 -55 -120 -124z m2850 -150 l-256 -255 -322 0 c-177 0 -322 3 -322 7 0 5
111 119 247 255 l248 248 330 0 330 0 -255 -255z m750 0 c-301 -300 -285 -292
-374 -193 l-55 62 -65 -62 -64 -62 -171 0 c-94 0 -171 3 -171 7 0 5 111 119
247 255 l248 248 330 0 330 0 -255 -255z m-6855 189 c44 -12 110 -36 147 -51
l68 -29 -183 -182 -183 -182 -322 0 c-177 0 -322 3 -322 8 0 4 76 83 169 176
162 162 169 168 181 146 12 -22 13 -21 40 27 20 35 42 56 79 76 94 52 177 54
326 11z m1590 -204 l-241 -240 -322 0 c-177 0 -322 3 -322 7 0 5 105 113 232
240 l233 233 330 0 330 0 -240 -240z m6419 189 c6 -5 -10 -54 -37 -118 -26
-61 -47 -114 -47 -119 0 -5 56 -31 125 -57 69 -26 125 -51 125 -55 0 -4 -18
-24 -40 -44 l-40 -36 -327 0 -328 0 234 234 234 234 46 -15 c25 -9 50 -19 55
-24z m-5612 -304 c68 -32 160 -34 243 -5 78 27 177 26 251 -1 l57 -22 -51 -48
-51 -49 -320 0 c-177 0 -321 3 -321 7 0 6 131 143 136 143 1 0 26 -11 56 -25z"/>
</g>
</svg>
