<?xml version="1.0" standalone="no"?>
<!DOCTYPE svg PUBLIC "-//W3C//DTD SVG 20010904//EN"
 "http://www.w3.org/TR/2001/REC-SVG-20010904/DTD/svg10.dtd">
<svg version="1.0" xmlns="http://www.w3.org/2000/svg"
 width="1125.000000pt" height="900.000000pt" viewBox="0 0 1125.000000 900.000000"
 preserveAspectRatio="xMidYMid meet">
<metadata>
Created by potrace 1.13, written by Peter Selinger 2001-2015
</metadata>
<g transform="translate(0.000000,900.000000) scale(0.100000,-0.100000)"
fill="#000000" stroke="none">
<path d="M0 4500 l0 -4500 5625 0 5625 0 0 4500 0 4500 -5625 0 -5625 0 0
-4500z m11208 4289 c2 -155 1 -167 -18 -184 -26 -23 -26 -69 0 -102 19 -24 20
-41 20 -294 l0 -269 -745 0 -745 0 0 -30 0 -30 743 -2 742 -3 3 -248 2 -247
-25 -10 c-55 -21 -58 -98 -5 -128 l30 -17 0 -267 0 -268 -770 0 -770 0 0 -30
0 -30 768 -2 767 -3 0 -905 0 -905 -158 -3 -158 -3 3 -27 3 -27 158 -3 157 -3
-2 -917 -3 -917 -752 -3 -753 -2 0 -30 0 -30 753 -2 752 -3 -1 -255 c-1 -140
-2 -271 -2 -290 -1 -19 1 -176 4 -347 l5 -313 -586 0 -585 0 0 -35 0 -35 585
0 584 0 0 -590 0 -590 -769 0 -770 0 0 -35 0 -35 770 0 771 0 -3 -137 -3 -138
-5580 0 -5580 0 -3 137 -3 137 123 3 123 3 0 30 0 30 -122 3 -123 3 0 267 c0
227 2 271 16 290 20 30 21 74 0 103 -14 20 -16 57 -16 271 l0 248 305 0 305 0
0 35 0 35 -305 0 -306 0 5 308 c3 169 5 327 5 352 -1 25 -2 158 -3 295 l-1
250 133 3 132 3 0 29 0 29 -132 3 -133 3 -3 918 -2 917 735 0 735 0 0 30 0 30
-732 2 -733 3 0 905 0 905 123 3 122 3 0 29 0 30 -125 0 -125 0 2 593 3 592
148 3 147 3 0 29 0 30 -150 0 -150 0 0 503 c0 277 3 507 7 510 3 4 2515 6
5582 5 l5576 -3 3 -166z"/>
<path d="M2760 8617 c-52 -26 -49 -104 4 -128 36 -17 73 -3 92 32 19 38 6 80
-32 98 -31 14 -33 14 -64 -2z"/>
<path d="M3246 8609 c-36 -28 -36 -80 0 -108 15 -12 34 -21 44 -21 34 0 70 39
70 75 0 36 -36 75 -70 75 -10 0 -29 -9 -44 -21z"/>
<path d="M3733 8618 c-68 -33 -40 -138 37 -138 28 0 70 44 70 73 0 51 -61 88
-107 65z"/>
<path d="M6456 8609 c-19 -15 -26 -30 -26 -54 0 -36 36 -75 70 -75 34 0 70 39
70 75 0 36 -36 75 -70 75 -10 0 -29 -9 -44 -21z"/>
<path d="M6996 8609 c-19 -15 -26 -30 -26 -54 0 -36 36 -75 70 -75 34 0 70 39
70 75 0 36 -36 75 -70 75 -10 0 -29 -9 -44 -21z"/>
<path d="M7478 8615 c-53 -29 -42 -116 16 -131 84 -21 131 92 56 131 -35 18
-38 18 -72 0z"/>
<path d="M10227 8608 c-37 -33 -40 -75 -7 -108 27 -27 66 -25 95 5 29 28 32
65 8 93 -28 33 -66 37 -96 10z"/>
<path d="M10730 8617 c-52 -26 -49 -104 5 -129 58 -26 119 33 95 91 -6 16 -23
33 -36 40 -31 14 -33 14 -64 -2z"/>
<path d="M450 8560 l0 -30 945 0 945 0 0 30 0 30 -945 0 -945 0 0 -30z"/>
<path d="M4200 8560 l0 -30 945 0 945 0 0 30 0 30 -945 0 -945 0 0 -30z"/>
<path d="M7950 8560 l0 -30 945 0 945 0 0 30 0 30 -945 0 -945 0 0 -30z"/>
<path d="M730 7973 c-53 -19 -68 -86 -28 -123 63 -58 157 33 101 98 -20 23
-50 33 -73 25z"/>
<path d="M1220 7967 c-13 -7 -31 -24 -39 -38 -30 -53 36 -117 94 -91 55 25 58
100 5 127 -35 18 -29 18 -60 2z"/>
<path d="M1693 7970 c-48 -19 -58 -87 -17 -119 53 -41 114 -13 114 52 0 51
-50 86 -97 67z"/>
<path d="M4523 7970 c-48 -19 -58 -87 -17 -119 34 -27 64 -27 92 -1 57 53 -3
149 -75 120z"/>
<path d="M5030 7973 c-51 -19 -68 -85 -30 -123 61 -61 159 33 103 98 -20 23
-50 33 -73 25z"/>
<path d="M5495 7968 c-50 -27 -59 -75 -20 -113 42 -43 106 -23 120 36 12 48
-57 101 -100 77z"/>
<path d="M8273 7970 c-48 -19 -58 -87 -17 -119 34 -27 64 -27 92 -1 57 53 -3
149 -75 120z"/>
<path d="M8780 7973 c-51 -19 -68 -85 -30 -123 61 -61 159 33 103 98 -20 23
-50 33 -73 25z"/>
<path d="M9240 7967 c-33 -16 -47 -58 -32 -92 25 -55 100 -58 127 -5 32 61
-33 128 -95 97z"/>
<path d="M2170 7910 l0 -30 945 0 945 0 0 30 0 30 -945 0 -945 0 0 -30z"/>
<path d="M5980 7910 l0 -30 946 0 945 0 -3 28 -3 27 -942 3 -943 2 0 -30z"/>
<path d="M2727 7358 c-37 -33 -40 -75 -7 -108 27 -27 66 -25 95 5 29 28 32 65
8 93 -28 33 -66 37 -96 10z"/>
<path d="M3230 7367 c-52 -26 -49 -104 5 -129 58 -26 119 33 95 91 -6 16 -23
33 -36 40 -31 14 -33 14 -64 -2z"/>
<path d="M3696 7359 c-36 -28 -36 -80 0 -108 15 -12 34 -21 44 -21 34 0 70 39
70 75 0 36 -36 75 -70 75 -10 0 -29 -9 -44 -21z"/>
<path d="M6440 7367 c-52 -26 -49 -104 4 -128 36 -17 73 -3 92 32 19 38 6 80
-32 98 -31 14 -33 14 -64 -2z"/>
<path d="M6980 7367 c-52 -26 -49 -104 5 -129 58 -26 119 33 95 91 -6 16 -23
33 -36 40 -31 14 -33 14 -64 -2z"/>
<path d="M7446 7359 c-19 -15 -26 -30 -26 -54 0 -36 36 -75 70 -75 10 0 29 9
44 21 34 27 35 71 1 104 -30 30 -54 31 -89 4z"/>
<path d="M10195 7355 c-34 -33 -33 -77 1 -104 15 -12 34 -21 44 -21 34 0 70
39 70 75 0 24 -7 39 -26 54 -35 27 -59 26 -89 -4z"/>
<path d="M10697 7360 c-72 -57 8 -167 81 -113 51 38 34 114 -28 128 -18 4 -34
0 -53 -15z"/>
<path d="M480 7310 l0 -30 945 0 945 0 0 30 0 30 -945 0 -945 0 0 -30z"/>
<path d="M4200 7310 l0 -30 945 0 945 0 0 30 0 30 -945 0 -945 0 0 -30z"/>
<path d="M8030 7310 l0 -30 945 0 945 0 0 30 0 30 -945 0 -945 0 0 -30z"/>
<path d="M675 6715 c-28 -27 -32 -61 -10 -92 49 -70 160 0 120 76 -24 48 -72
55 -110 16z"/>
<path d="M1176 6719 c-36 -28 -36 -80 0 -108 15 -12 34 -21 44 -21 34 0 70 39
70 75 0 36 -36 75 -70 75 -10 0 -29 -9 -44 -21z"/>
<path d="M1645 6715 c-14 -13 -25 -31 -25 -39 0 -30 23 -65 50 -76 58 -24 120
44 90 99 -24 46 -78 53 -115 16z"/>
<path d="M4475 6715 c-39 -38 -28 -93 23 -114 82 -34 141 87 62 129 -31 16
-59 12 -85 -15z"/>
<path d="M4975 6715 c-63 -63 18 -160 88 -105 35 28 37 80 5 110 -29 27 -64
25 -93 -5z"/>
<path d="M5462 6733 c-7 -3 -19 -18 -27 -33 -40 -77 71 -147 120 -77 42 60
-24 138 -93 110z"/>
<path d="M8225 6715 c-14 -13 -25 -30 -25 -37 1 -59 51 -98 100 -78 36 15 55
57 41 93 -19 51 -77 62 -116 22z"/>
<path d="M8725 6715 c-63 -63 18 -160 88 -105 35 28 37 80 5 110 -29 27 -64
25 -93 -5z"/>
<path d="M9212 6733 c-7 -3 -19 -18 -28 -35 -13 -24 -13 -35 -4 -58 31 -74
140 -51 140 30 0 45 -63 81 -108 63z"/>
<path d="M2147 6683 c-4 -3 -7 -17 -7 -30 l0 -23 950 0 950 0 0 30 0 30 -943
0 c-519 0 -947 -3 -950 -7z"/>
<path d="M5960 6660 l0 -30 940 0 940 0 0 30 0 30 -940 0 -940 0 0 -30z"/>
<path d="M2340 6090 c-43 -43 -11 -120 50 -120 38 0 70 32 70 70 0 38 -32 70
-70 70 -17 0 -39 -9 -50 -20z"/>
<path d="M2835 6090 c-42 -47 -8 -120 55 -120 33 0 70 40 70 74 0 57 -86 89
-125 46z"/>
<path d="M3310 6090 c-42 -42 -8 -120 53 -120 58 0 91 85 49 123 -25 23 -78
21 -102 -3z"/>
<path d="M6041 6084 c-27 -35 -26 -59 4 -89 33 -34 77 -33 104 1 12 15 21 34
21 44 0 34 -39 70 -75 70 -24 0 -39 -7 -54 -26z"/>
<path d="M6540 6090 c-26 -26 -25 -60 1 -94 25 -31 66 -35 100 -8 28 23 30 73
4 102 -24 26 -79 26 -105 0z"/>
<path d="M7060 6090 c-11 -11 -20 -33 -20 -50 0 -17 9 -39 20 -50 45 -45 120
-11 120 53 0 20 -8 41 -18 50 -25 23 -78 21 -102 -3z"/>
<path d="M9812 6087 c-28 -29 -28 -57 -1 -91 36 -46 110 -26 124 34 15 65 -76
107 -123 57z"/>
<path d="M10310 6090 c-43 -43 -11 -120 50 -120 17 0 39 9 50 20 26 26 26 81
2 103 -25 23 -78 21 -102 -3z"/>
<path d="M10781 6084 c-27 -35 -26 -59 4 -89 33 -34 77 -33 104 1 12 15 21 34
21 44 0 34 -39 70 -75 70 -24 0 -39 -7 -54 -26z"/>
<path d="M60 6030 l0 -30 945 0 945 0 0 30 0 30 -945 0 -945 0 0 -30z"/>
<path d="M3810 6030 l0 -30 945 0 945 0 0 30 0 30 -945 0 -945 0 0 -30z"/>
<path d="M7540 6030 l0 -30 945 0 945 0 0 30 0 30 -945 0 -945 0 0 -30z"/>
<path d="M241 5434 c-12 -15 -21 -34 -21 -44 0 -10 9 -29 21 -44 41 -52 122
-23 122 44 0 67 -81 96 -122 44z"/>
<path d="M740 5440 c-43 -43 -11 -120 50 -120 38 0 70 32 70 70 0 38 -32 70
-70 70 -17 0 -39 -9 -50 -20z"/>
<path d="M1211 5434 c-12 -15 -21 -34 -21 -44 0 -34 39 -70 75 -70 36 0 75 36
75 70 0 34 -39 70 -75 70 -24 0 -39 -7 -54 -26z"/>
<path d="M4041 5434 c-12 -15 -21 -34 -21 -44 0 -34 39 -70 75 -70 36 0 75 36
75 70 0 34 -39 70 -75 70 -24 0 -39 -7 -54 -26z"/>
<path d="M4540 5438 c-43 -46 -10 -118 54 -118 41 0 69 29 69 72 0 61 -81 91
-123 46z"/>
<path d="M5019 5442 c-48 -40 -17 -122 47 -122 66 0 98 74 51 118 -28 27 -67
28 -98 4z"/>
<path d="M7791 5434 c-12 -15 -21 -34 -21 -44 0 -34 39 -70 75 -70 36 0 75 36
75 70 0 34 -39 70 -75 70 -24 0 -39 -7 -54 -26z"/>
<path d="M8290 5438 c-43 -46 -10 -118 54 -118 42 0 66 26 66 73 0 62 -77 91
-120 45z"/>
<path d="M8765 5440 c-41 -45 -10 -120 50 -120 38 0 75 35 75 71 0 58 -87 91
-125 49z"/>
<path d="M1750 5380 l0 -30 950 0 950 0 0 30 0 30 -950 0 -950 0 0 -30z"/>
<path d="M5540 5380 l0 -30 940 0 940 0 0 30 0 30 -940 0 -940 0 0 -30z"/>
<path d="M9250 5380 l0 -30 950 0 950 0 0 30 0 30 -950 0 -950 0 0 -30z"/>
<path d="M1899 4832 c-49 -40 -17 -122 48 -122 65 0 93 61 52 114 -25 31 -66
35 -100 8z"/>
<path d="M2395 4825 c-30 -29 -32 -64 -5 -93 30 -32 82 -30 110 5 55 70 -42
151 -105 88z"/>
<path d="M2870 4830 c-26 -26 -26 -81 -2 -103 28 -25 87 -22 106 5 50 71 -43
159 -104 98z"/>
<path d="M5601 4824 c-41 -53 -13 -114 52 -114 42 0 70 29 70 72 0 64 -83 92
-122 42z"/>
<path d="M6102 4830 c-26 -24 -29 -66 -6 -98 11 -16 25 -22 53 -22 46 0 71 24
71 68 0 64 -72 95 -118 52z"/>
<path d="M6575 4825 c-30 -30 -31 -54 -4 -89 20 -26 69 -36 95 -18 15 10 34
47 34 67 0 25 -46 65 -75 65 -14 0 -37 -11 -50 -25z"/>
<path d="M9372 4827 c-45 -48 -17 -117 47 -117 46 0 71 24 71 68 0 65 -74 96
-118 49z"/>
<path d="M9870 4830 c-26 -26 -26 -81 -2 -103 44 -40 122 -7 122 51 0 60 -78
94 -120 52z"/>
<path d="M10341 4824 c-41 -53 -13 -114 52 -114 42 0 70 29 70 72 0 64 -83 92
-122 42z"/>
<path d="M3370 4780 l0 -30 945 0 945 0 0 30 0 30 -945 0 -945 0 0 -30z"/>
<path d="M7170 4780 l0 -30 945 0 945 0 0 30 0 30 -945 0 -945 0 0 -30z"/>
<path d="M180 4180 c-26 -26 -26 -81 0 -105 29 -26 79 -24 102 4 27 34 23 75
-8 100 -34 26 -68 27 -94 1z"/>
<path d="M675 4175 c-28 -27 -30 -42 -14 -79 16 -34 58 -51 91 -35 26 11 48
46 48 75 0 24 -47 64 -75 64 -14 0 -37 -11 -50 -25z"/>
<path d="M1152 4177 c-43 -46 -15 -120 46 -120 67 0 97 76 49 121 -30 28 -68
28 -95 -1z"/>
<path d="M3982 4177 c-45 -48 -16 -120 48 -120 65 0 95 76 47 121 -30 28 -68
28 -95 -1z"/>
<path d="M4480 4180 c-47 -47 -15 -123 51 -123 63 0 90 72 44 118 -29 30 -68
32 -95 5z"/>
<path d="M4955 4175 c-46 -46 -19 -118 44 -118 66 0 98 76 51 123 -27 27 -66
25 -95 -5z"/>
<path d="M7732 4177 c-45 -48 -16 -120 48 -120 65 0 95 76 47 121 -30 28 -68
28 -95 -1z"/>
<path d="M8242 4193 c-23 -9 -43 -60 -33 -85 29 -78 141 -63 141 19 0 47 -61
85 -108 66z"/>
<path d="M8706 4179 c-50 -39 -22 -122 42 -122 43 0 72 28 72 70 0 65 -61 93
-114 52z"/>
<path d="M1680 4130 l0 -30 945 0 945 0 0 30 0 30 -945 0 -945 0 0 -30z"/>
<path d="M5460 4130 l0 -30 940 0 940 0 0 30 0 30 -940 0 -940 0 0 -30z"/>
<path d="M9200 4130 l0 -30 945 0 945 0 0 30 0 30 -945 0 -945 0 0 -30z"/>
<path d="M2350 3550 c-26 -26 -25 -60 1 -94 25 -31 66 -35 100 -8 28 23 30 73
4 102 -24 26 -79 26 -105 0z"/>
<path d="M2847 3552 c-40 -44 -7 -122 51 -122 59 0 92 67 56 118 -20 28 -83
31 -107 4z"/>
<path d="M3321 3544 c-12 -15 -21 -35 -21 -46 0 -27 45 -68 75 -68 30 0 75 41
75 68 0 35 -38 72 -75 72 -24 0 -39 -7 -54 -26z"/>
<path d="M6057 3552 c-23 -25 -21 -78 3 -102 61 -61 154 27 104 98 -20 28 -83
31 -107 4z"/>
<path d="M6550 3543 c-55 -70 42 -151 105 -88 28 27 31 45 14 78 -16 30 -28
37 -66 37 -23 0 -38 -8 -53 -27z"/>
<path d="M7076 3555 c-59 -60 10 -155 83 -114 63 36 42 121 -31 127 -23 2 -41
-3 -52 -13z"/>
<path d="M9825 3550 c-42 -47 -8 -120 55 -120 33 0 70 40 70 76 0 57 -86 87
-125 44z"/>
<path d="M10320 3548 c-27 -29 -25 -64 5 -93 63 -63 160 18 105 88 -28 35 -80
37 -110 5z"/>
<path d="M10797 3552 c-23 -25 -21 -78 3 -102 61 -61 154 27 104 98 -20 28
-83 31 -107 4z"/>
<path d="M62 3508 l3 -33 943 -3 942 -2 0 35 0 35 -946 0 -945 0 3 -32z"/>
<path d="M3812 3508 l3 -33 943 -3 942 -2 0 35 0 35 -946 0 -945 0 3 -32z"/>
<path d="M7592 3508 l3 -33 940 0 940 0 3 33 3 32 -946 0 -946 0 3 -32z"/>
<path d="M675 2925 c-46 -46 -19 -118 44 -118 66 0 101 84 52 125 -32 25 -67
23 -96 -7z"/>
<path d="M1172 2927 c-45 -48 -16 -120 48 -120 65 0 95 76 47 121 -30 28 -68
28 -95 -1z"/>
<path d="M1645 2925 c-28 -27 -30 -42 -14 -79 16 -34 58 -51 91 -35 26 11 48
46 48 75 0 24 -47 64 -75 64 -14 0 -37 -11 -50 -25z"/>
<path d="M4475 2925 c-28 -27 -30 -42 -14 -79 16 -34 58 -51 91 -35 26 11 48
46 48 75 0 24 -47 64 -75 64 -14 0 -37 -11 -50 -25z"/>
<path d="M4976 2929 c-50 -39 -22 -122 42 -122 43 0 72 28 72 70 0 65 -61 93
-114 52z"/>
<path d="M5462 2943 c-23 -9 -43 -60 -33 -85 29 -78 141 -63 141 19 0 47 -61
85 -108 66z"/>
<path d="M8225 2925 c-28 -27 -30 -42 -14 -79 16 -34 58 -51 91 -35 26 11 48
46 48 75 0 24 -47 64 -75 64 -14 0 -37 -11 -50 -25z"/>
<path d="M8726 2929 c-50 -39 -22 -122 42 -122 43 0 72 28 72 70 0 65 -61 93
-114 52z"/>
<path d="M9199 2932 c-63 -52 8 -155 80 -117 48 24 55 72 16 110 -29 30 -64
32 -96 7z"/>
<path d="M2142 2883 l3 -28 948 -3 947 -2 0 30 0 30 -951 0 -950 0 3 -27z"/>
<path d="M5980 2880 l0 -30 943 2 942 3 3 28 3 27 -945 0 -946 0 0 -30z"/>
<path d="M2766 2338 c-36 -51 -5 -118 54 -118 17 0 39 9 50 20 45 45 11 120
-54 120 -25 0 -39 -7 -50 -22z"/>
<path d="M3265 2340 c-42 -47 -8 -120 55 -120 33 0 70 40 70 74 0 57 -86 89
-125 46z"/>
<path d="M3740 2340 c-42 -42 -8 -120 53 -120 58 0 91 85 49 123 -25 23 -78
21 -102 -3z"/>
<path d="M6471 2334 c-27 -35 -26 -59 4 -89 33 -34 77 -33 104 1 12 15 21 34
21 44 0 34 -39 70 -75 70 -24 0 -39 -7 -54 -26z"/>
<path d="M7010 2333 c-37 -47 -2 -113 60 -113 31 0 70 39 70 70 0 10 -9 29
-21 44 -29 36 -80 36 -109 -1z"/>
<path d="M7490 2340 c-43 -43 -11 -120 50 -120 17 0 39 9 50 20 26 26 26 81 2
103 -25 23 -78 21 -102 -3z"/>
<path d="M10240 2338 c-26 -28 -26 -58 1 -92 39 -50 122 -22 122 42 0 66 -78
98 -123 50z"/>
<path d="M10740 2340 c-43 -43 -11 -120 50 -120 38 0 70 32 70 70 0 38 -32 70
-70 70 -17 0 -39 -9 -50 -20z"/>
<path d="M500 2280 l0 -30 950 0 950 0 0 30 0 30 -950 0 -950 0 0 -30z"/>
<path d="M4200 2280 l0 -30 945 0 945 0 0 30 0 30 -945 0 -945 0 0 -30z"/>
<path d="M8030 2280 l0 -30 945 0 945 0 0 30 0 30 -945 0 -945 0 0 -30z"/>
<path d="M1021 1644 c-12 -15 -21 -34 -21 -44 0 -34 39 -70 75 -70 36 0 75 36
75 70 0 34 -39 70 -75 70 -24 0 -39 -7 -54 -26z"/>
<path d="M1520 1650 c-42 -42 -8 -120 53 -120 58 0 91 85 49 123 -25 23 -78
21 -102 -3z"/>
<path d="M1995 1650 c-42 -47 -8 -120 55 -120 33 0 70 40 70 74 0 57 -86 89
-125 46z"/>
<path d="M4825 1650 c-42 -47 -8 -120 55 -120 33 0 70 40 70 74 0 57 -86 89
-125 46z"/>
<path d="M5321 1644 c-12 -15 -21 -34 -21 -44 0 -31 39 -70 70 -70 62 0 97 66
60 113 -29 37 -80 37 -109 1z"/>
<path d="M5797 1652 c-23 -25 -21 -78 3 -102 43 -43 120 -11 120 50 0 17 -9
39 -20 50 -26 26 -81 26 -103 2z"/>
<path d="M8570 1643 c-37 -47 -2 -113 60 -113 31 0 70 39 70 70 0 10 -9 29
-21 44 -29 36 -80 36 -109 -1z"/>
<path d="M9070 1648 c-26 -28 -26 -58 1 -92 39 -50 122 -22 122 42 0 66 -78
98 -123 50z"/>
<path d="M9547 1652 c-40 -44 -7 -122 51 -122 60 0 94 78 52 120 -26 26 -81
26 -103 2z"/>
<path d="M2540 1605 l0 -35 943 2 942 3 0 30 0 30 -942 3 -943 2 0 -35z"/>
<path d="M6270 1605 l0 -35 940 0 940 0 0 35 0 35 -940 0 -940 0 0 -35z"/>
<path d="M2780 1050 c-27 -27 -26 -71 3 -98 54 -51 128 -7 117 68 -6 49 -82
68 -120 30z"/>
<path d="M3277 1052 c-23 -25 -21 -78 3 -102 61 -61 154 27 104 98 -20 28 -83
31 -107 4z"/>
<path d="M3756 1055 c-59 -60 10 -155 83 -114 63 36 42 121 -31 127 -23 2 -41
-3 -52 -13z"/>
<path d="M6487 1052 c-40 -44 -7 -122 51 -122 60 0 94 78 52 120 -26 26 -81
26 -103 2z"/>
<path d="M7027 1052 c-23 -25 -21 -78 3 -102 61 -61 154 27 104 98 -20 28 -83
31 -107 4z"/>
<path d="M7506 1055 c-59 -59 10 -155 83 -114 62 35 41 121 -31 127 -23 2 -41
-3 -52 -13z"/>
<path d="M10250 1043 c-55 -70 42 -151 105 -88 30 29 32 64 5 93 -30 32 -82
30 -110 -5z"/>
<path d="M10750 1050 c-27 -27 -25 -66 5 -95 29 -30 64 -32 96 -7 28 23 30 73
4 102 -24 26 -79 26 -105 0z"/>
<path d="M504 1026 c-3 -8 -4 -23 -2 -33 3 -17 45 -18 948 -18 l945 0 0 30 0
30 -943 3 c-815 2 -943 0 -948 -12z"/>
<path d="M4202 1008 l3 -33 943 -3 942 -2 0 35 0 35 -946 0 -945 0 3 -32z"/>
<path d="M8004 1026 c-3 -8 -4 -23 -2 -33 3 -17 45 -18 948 -18 l945 0 0 30 0
30 -943 3 c-815 2 -943 0 -948 -12z"/>
<path d="M680 393 c-37 -47 -2 -113 60 -113 31 0 70 39 70 70 0 10 -9 29 -21
44 -29 36 -80 36 -109 -1z"/>
<path d="M1180 398 c-26 -28 -26 -58 1 -92 39 -50 122 -22 122 42 0 66 -78 98
-123 50z"/>
<path d="M1657 402 c-25 -28 -22 -87 5 -106 71 -50 159 43 98 104 -26 26 -81
26 -103 2z"/>
<path d="M4487 402 c-25 -28 -22 -87 5 -106 71 -50 159 43 98 104 -26 26 -81
26 -103 2z"/>
<path d="M4981 394 c-12 -15 -21 -34 -21 -44 0 -34 39 -70 75 -70 36 0 75 36
75 70 0 34 -39 70 -75 70 -24 0 -39 -7 -54 -26z"/>
<path d="M5460 400 c-43 -43 -11 -120 50 -120 38 0 70 32 70 70 0 38 -32 70
-70 70 -17 0 -39 -9 -50 -20z"/>
<path d="M8237 402 c-25 -28 -22 -87 5 -106 71 -50 159 43 98 104 -26 26 -81
26 -103 2z"/>
<path d="M8731 394 c-12 -15 -21 -34 -21 -44 0 -34 39 -70 75 -70 36 0 75 36
75 70 0 34 -39 70 -75 70 -24 0 -39 -7 -54 -26z"/>
<path d="M9210 400 c-43 -43 -11 -120 50 -120 38 0 70 32 70 70 0 38 -32 70
-70 70 -17 0 -39 -9 -50 -20z"/>
<path d="M2120 355 l0 -35 945 0 945 0 0 35 0 35 -945 0 -945 0 0 -35z"/>
<path d="M5980 355 l0 -35 943 2 942 3 0 30 0 30 -942 3 -943 2 0 -35z"/>
</g>
</svg>
