<?xml version="1.0" standalone="no"?>
<!DOCTYPE svg PUBLIC "-//W3C//DTD SVG 20010904//EN"
 "http://www.w3.org/TR/2001/REC-SVG-20010904/DTD/svg10.dtd">
<svg version="1.0" xmlns="http://www.w3.org/2000/svg"
 width="1125.000000pt" height="900.000000pt" viewBox="0 0 1125.000000 900.000000"
 preserveAspectRatio="xMidYMid meet">
<metadata>
Created by potrace 1.13, written by Peter Selinger 2001-2015
</metadata>
<g transform="translate(0.000000,900.000000) scale(0.100000,-0.100000)"
fill="#000000" stroke="none">
<path d="M0 4500 l0 -4500 5625 0 5625 0 0 4500 0 4500 -5625 0 -5625 0 0
-4500z m11205 4360 l0 -95 -5580 0 -5580 0 -3 84 c-2 46 -1 90 2 98 5 11 940
13 5583 11 l5578 -3 0 -95z m-9045 -470 l0 -310 -1050 0 -1050 0 0 310 0 310
1050 0 1050 0 0 -310z m2070 0 l0 -310 -1005 0 -1005 0 0 310 0 310 1005 0
1005 0 0 -310z m2590 0 l0 -310 -1260 0 -1260 0 0 310 0 310 1260 0 1260 0 0
-310z m2480 0 l0 -310 -1205 0 -1205 0 0 310 0 310 1205 0 1205 0 0 -310z
m1905 155 l0 -150 -772 -3 -773 -2 0 -30 0 -30 773 -2 772 -3 3 -122 3 -123
-921 0 -920 0 0 310 0 310 918 -2 917 -3 0 -150z m3 -1122 l-3 -588 -437 -3
-438 -2 0 -30 0 -30 440 0 440 0 -2 -562 -3 -563 -5580 0 -5580 0 -3 563 -2
562 225 0 225 0 0 30 0 30 -222 2 -223 3 -3 588 -2 587 5585 0 5585 0 -2 -587z
m-10050 -2150 l2 -303 -560 0 -561 0 3 138 3 137 373 3 372 2 0 30 0 30 -372
2 -373 3 -3 119 c-1 66 0 126 2 133 4 11 108 13 558 11 l553 -3 3 -302z m1972
2 l0 -305 -955 0 -955 0 0 305 0 305 955 0 955 0 0 -305z m2500 0 l0 -305
-1220 0 -1220 0 0 305 0 305 1220 0 1220 0 0 -305z m2410 0 l0 -305 -1175 0
-1175 0 0 305 0 305 1175 0 1175 0 0 -305z m2420 0 l0 -305 -1180 0 -1180 0 0
305 0 305 1180 0 1180 0 0 -305z m748 -2 l2 -303 -340 0 -340 0 0 305 0 305
338 -2 337 -3 3 -302z m0 -945 l-3 -573 -302 -3 -303 -2 0 -30 0 -30 303 -2
302 -3 2 -547 2 -548 -5585 0 -5584 0 2 238 3 237 657 3 658 2 0 30 0 30 -658
2 -657 3 0 275 0 275 358 3 357 2 0 30 0 30 -357 2 -358 3 -3 573 -2 572 5585
0 5585 0 -2 -572z m-10648 -2128 l0 -320 -258 2 -257 3 0 135 c0 132 0 135 22
138 33 5 33 59 1 64 -23 3 -23 6 -26 151 l-3 147 261 0 260 0 0 -320z m2110 0
l0 -320 -1025 0 -1025 0 0 320 0 320 1025 0 1025 0 0 -320z m2090 0 l0 -320
-1015 0 -1015 0 0 320 0 320 1015 0 1015 0 0 -320z m2588 3 l-3 -318 -1260 0
-1260 0 -3 318 -2 317 1265 0 1265 0 -2 -317z m2520 0 l-3 -318 -1227 -3
-1228 -2 0 320 0 320 1230 0 1230 0 -2 -317z m1340 0 l-3 -318 -637 -3 -638
-2 0 320 0 320 640 0 640 0 -2 -317z m-3 -643 l0 -255 -602 -3 -603 -2 0 -30
0 -30 603 -2 602 -3 0 -595 0 -595 -5580 0 -5580 0 0 595 0 595 58 3 c56 3 57
4 57 32 0 28 -1 29 -57 32 l-58 3 -3 245 c-1 134 0 250 3 257 3 11 1081 13
5582 11 l5578 -3 0 -255z"/>
<path d="M350 8360 l0 -30 780 0 780 0 0 30 0 30 -780 0 -780 0 0 -30z"/>
<path d="M2667 8412 c-23 -25 -21 -78 3 -102 61 -61 154 27 104 98 -20 28 -83
31 -107 4z"/>
<path d="M3071 8404 c-12 -15 -21 -35 -21 -46 0 -27 45 -68 75 -68 30 0 75 41
75 68 0 35 -38 72 -75 72 -24 0 -39 -7 -54 -26z"/>
<path d="M3487 8412 c-40 -44 -7 -122 51 -122 60 0 94 78 52 120 -26 26 -81
26 -103 2z"/>
<path d="M4760 8360 l0 -30 780 0 780 0 0 30 0 30 -780 0 -780 0 0 -30z"/>
<path d="M7640 8410 c-26 -26 -25 -60 1 -94 25 -31 66 -35 100 -8 28 23 30 73
4 102 -24 26 -79 26 -105 0z"/>
<path d="M8076 8415 c-59 -60 10 -155 83 -114 63 36 42 121 -31 127 -23 2 -41
-3 -52 -13z"/>
<path d="M8487 8412 c-40 -44 -7 -122 51 -122 60 0 94 78 52 120 -26 26 -81
26 -103 2z"/>
<path d="M230 7460 l0 -30 666 0 665 0 -3 28 -3 27 -662 3 -663 2 0 -30z"/>
<path d="M2100 7460 l0 -30 660 0 660 0 0 30 0 30 -660 0 -660 0 0 -30z"/>
<path d="M3960 7460 l0 -30 665 0 665 0 0 30 0 30 -665 0 -665 0 0 -30z"/>
<path d="M5820 7460 l0 -30 666 0 665 0 -3 28 -3 27 -662 3 -663 2 0 -30z"/>
<path d="M7680 7460 l0 -30 660 0 660 0 0 30 0 30 -660 0 -660 0 0 -30z"/>
<path d="M9540 7460 l0 -30 660 0 660 0 0 30 0 30 -660 0 -660 0 0 -30z"/>
<path d="M1030 6800 l0 -30 660 0 660 0 0 30 0 30 -660 0 -660 0 0 -30z"/>
<path d="M2900 6800 l0 -30 665 0 665 0 0 30 0 30 -665 0 -665 0 0 -30z"/>
<path d="M4760 6800 l0 -30 663 2 662 3 3 28 3 27 -665 0 -666 0 0 -30z"/>
<path d="M6620 6800 l0 -30 660 0 660 0 0 30 0 30 -660 0 -660 0 0 -30z"/>
<path d="M8470 6800 l0 -30 665 0 665 0 0 30 0 30 -665 0 -665 0 0 -30z"/>
<path d="M64 6206 c-3 -8 -4 -23 -2 -33 3 -17 36 -18 666 -21 l663 -2 -3 32
-3 33 -658 3 c-567 2 -658 0 -663 -12z"/>
<path d="M1937 6213 c-4 -3 -7 -19 -7 -35 l0 -28 666 0 665 0 -3 33 -3 32
-656 3 c-360 1 -659 -1 -662 -5z"/>
<path d="M3800 6185 l0 -35 660 0 660 0 0 35 0 35 -660 0 -660 0 0 -35z"/>
<path d="M5654 6206 c-3 -8 -4 -23 -2 -33 3 -17 36 -18 666 -21 l663 -2 -3 32
-3 33 -658 3 c-567 2 -658 0 -663 -12z"/>
<path d="M7517 6213 c-4 -3 -7 -19 -7 -35 l0 -28 666 0 665 0 -3 33 -3 32
-656 3 c-360 1 -659 -1 -662 -5z"/>
<path d="M9377 6213 c-4 -3 -7 -19 -7 -35 l0 -28 663 2 662 3 0 30 0 30 -656
3 c-360 1 -659 -1 -662 -5z"/>
<path d="M1757 5320 c-72 -57 8 -167 81 -113 51 38 34 114 -28 128 -18 4 -34
0 -53 -15z"/>
<path d="M2203 5330 c-26 -11 -43 -40 -43 -74 0 -27 41 -66 70 -66 34 0 70 39
70 75 0 24 -7 39 -26 54 -29 23 -38 24 -71 11z"/>
<path d="M2610 5327 c-52 -26 -49 -104 5 -129 58 -26 119 33 95 91 -6 16 -23
33 -36 40 -31 14 -33 14 -64 -2z"/>
<path d="M3640 5280 l0 -30 780 0 780 0 0 30 0 30 -780 0 -780 0 0 -30z"/>
<path d="M6427 5320 c-72 -57 8 -167 81 -113 51 38 34 114 -28 128 -18 4 -34
0 -53 -15z"/>
<path d="M6873 5330 c-26 -11 -43 -40 -43 -74 0 -27 41 -66 70 -66 34 0 70 39
70 75 0 24 -7 39 -26 54 -29 23 -38 24 -71 11z"/>
<path d="M7280 5327 c-52 -26 -49 -104 5 -129 58 -26 119 33 95 91 -6 16 -23
33 -36 40 -31 14 -33 14 -64 -2z"/>
<path d="M8530 5280 l0 -30 786 0 785 0 -3 28 -3 27 -782 3 -783 2 0 -30z"/>
<path d="M11070 5327 c-52 -26 -49 -104 5 -129 58 -26 119 33 95 91 -6 16 -23
33 -36 40 -31 14 -33 14 -64 -2z"/>
<path d="M400 4370 l0 -30 660 0 660 0 0 30 0 30 -660 0 -660 0 0 -30z"/>
<path d="M2260 4370 l0 -30 665 0 665 0 0 30 0 30 -665 0 -665 0 0 -30z"/>
<path d="M4130 4370 l0 -30 660 0 660 0 0 30 0 30 -660 0 -660 0 0 -30z"/>
<path d="M5990 4370 l0 -30 660 0 660 0 0 30 0 30 -660 0 -660 0 0 -30z"/>
<path d="M7840 4370 l0 -30 665 0 665 0 0 30 0 30 -665 0 -665 0 0 -30z"/>
<path d="M9700 4370 l0 -30 665 0 665 0 0 30 0 30 -665 0 -665 0 0 -30z"/>
<path d="M1290 3720 l0 -30 665 0 665 0 0 30 0 30 -665 0 -665 0 0 -30z"/>
<path d="M3170 3720 l0 -30 660 0 660 0 0 30 0 30 -660 0 -660 0 0 -30z"/>
<path d="M5020 3720 l0 -30 665 0 665 0 0 30 0 30 -665 0 -665 0 0 -30z"/>
<path d="M6880 3720 l0 -30 665 0 665 0 0 30 0 30 -665 0 -665 0 0 -30z"/>
<path d="M8740 3720 l0 -30 665 0 665 0 0 30 0 30 -665 0 -665 0 0 -30z"/>
<path d="M1900 3100 l0 -30 665 0 665 0 0 30 0 30 -665 0 -665 0 0 -30z"/>
<path d="M3760 3100 l0 -30 665 0 665 0 0 30 0 30 -665 0 -665 0 0 -30z"/>
<path d="M5620 3100 l0 -30 665 0 665 0 0 30 0 30 -665 0 -665 0 0 -30z"/>
<path d="M7480 3100 l0 -30 663 2 662 3 3 28 3 27 -665 0 -666 0 0 -30z"/>
<path d="M9340 3100 l0 -30 660 0 660 0 0 30 0 30 -660 0 -660 0 0 -30z"/>
<path d="M1280 2230 c-11 -11 -20 -33 -20 -50 0 -17 9 -39 20 -50 11 -11 33
-20 50 -20 17 0 39 9 50 20 11 11 20 33 20 50 0 17 -9 39 -20 50 -11 11 -33
20 -50 20 -17 0 -39 -9 -50 -20z"/>
<path d="M1710 2230 c-62 -62 25 -155 98 -104 28 20 31 83 4 107 -25 23 -78
21 -102 -3z"/>
<path d="M2121 2224 c-12 -15 -21 -34 -21 -44 0 -34 39 -70 75 -70 36 0 75 36
75 70 0 34 -39 70 -75 70 -24 0 -39 -7 -54 -26z"/>
<path d="M2947 2233 c-4 -3 -7 -19 -7 -35 l0 -28 780 0 780 0 0 35 0 35 -773
0 c-426 0 -777 -3 -780 -7z"/>
<path d="M5660 2230 c-43 -43 -11 -120 50 -120 41 0 70 31 70 74 0 60 -77 89
-120 46z"/>
<path d="M6091 2224 c-12 -15 -21 -34 -21 -44 0 -10 9 -29 21 -44 41 -52 122
-23 122 44 0 67 -81 96 -122 44z"/>
<path d="M6505 2230 c-42 -46 -10 -120 51 -120 35 0 74 37 74 70 0 10 -9 29
-21 44 -26 33 -77 36 -104 6z"/>
<path d="M7830 2190 l0 -30 780 0 780 0 0 30 0 30 -780 0 -780 0 0 -30z"/>
<path d="M10581 2224 c-12 -15 -21 -34 -21 -44 0 -34 39 -70 75 -70 36 0 75
36 75 70 0 34 -39 70 -75 70 -24 0 -39 -7 -54 -26z"/>
<path d="M11017 2232 c-25 -28 -22 -87 5 -106 71 -50 159 43 98 104 -26 26
-81 26 -103 2z"/>
<path d="M690 1270 l0 -30 665 0 665 0 0 30 0 30 -665 0 -665 0 0 -30z"/>
<path d="M2570 1270 l0 -30 665 0 665 0 0 30 0 30 -665 0 -665 0 0 -30z"/>
<path d="M4430 1270 l0 -30 660 0 660 0 0 30 0 30 -660 0 -660 0 0 -30z"/>
<path d="M6280 1270 l0 -30 665 0 665 0 0 30 0 30 -665 0 -665 0 0 -30z"/>
<path d="M8140 1270 l0 -30 665 0 665 0 0 30 0 30 -665 0 -665 0 0 -30z"/>
<path d="M60 610 l0 -30 665 0 665 0 0 30 0 30 -665 0 -665 0 0 -30z"/>
<path d="M1930 610 l0 -30 665 0 665 0 0 30 0 30 -665 0 -665 0 0 -30z"/>
<path d="M3800 610 l0 -30 660 0 660 0 0 30 0 30 -660 0 -660 0 0 -30z"/>
<path d="M5650 610 l0 -30 665 0 665 0 0 30 0 30 -665 0 -665 0 0 -30z"/>
<path d="M7510 610 l0 -30 665 0 665 0 0 30 0 30 -665 0 -665 0 0 -30z"/>
<path d="M9370 610 l0 -30 665 0 665 0 0 30 0 30 -665 0 -665 0 0 -30z"/>
</g>
</svg>
