<?xml version="1.0" standalone="no"?>
<!DOCTYPE svg PUBLIC "-//W3C//DTD SVG 20010904//EN"
 "http://www.w3.org/TR/2001/REC-SVG-20010904/DTD/svg10.dtd">
<svg version="1.0" xmlns="http://www.w3.org/2000/svg"
 width="1125.000000pt" height="900.000000pt" viewBox="0 0 1125.000000 900.000000"
 preserveAspectRatio="xMidYMid meet">
<metadata>
Created by potrace 1.13, written by Peter Selinger 2001-2015
</metadata>
<g transform="translate(0.000000,900.000000) scale(0.100000,-0.100000)"
fill="#000000" stroke="none">
<path d="M0 4500 l0 -4500 5625 0 5625 0 0 4500 0 4500 -5625 0 -5625 0 0
-4500z m1110 4255 l0 -205 -535 0 -536 0 3 148 3 147 103 3 102 3 0 29 0 30
-105 0 c-95 0 -105 2 -105 18 0 10 3 22 7 25 3 4 244 7 535 7 l528 0 0 -205z
m802 182 c-66 -70 25 -170 95 -105 29 27 30 67 2 102 l-20 26 302 0 302 0 -21
-23 c-66 -70 25 -170 95 -105 29 27 30 67 2 102 l-20 26 280 0 c181 0 281 -4
281 -10 0 -5 -4 -10 -8 -10 -10 0 -32 -45 -32 -66 0 -24 47 -64 75 -64 31 0
75 41 75 69 0 11 -12 33 -26 50 l-26 31 354 -2 353 -3 3 -202 2 -203 -1405 0
-1405 0 0 198 c0 109 3 202 7 205 3 4 175 7 381 7 l375 0 -21 -23z m4718 -182
l0 -205 -1295 0 -1295 0 0 205 0 205 1295 0 1295 0 0 -205z m660 200 c0 -3 -9
-14 -20 -25 -26 -26 -25 -60 1 -94 40 -50 119 -23 121 42 1 21 -7 41 -22 57
l-23 25 301 0 c166 0 302 -2 302 -5 0 -3 -9 -14 -20 -25 -42 -42 -8 -120 52
-120 62 0 91 79 46 127 l-21 23 288 0 288 0 -23 -25 c-31 -33 -31 -82 -1 -107
34 -27 75 -23 100 8 26 34 27 68 1 94 -11 11 -20 22 -20 25 0 3 145 4 323 3
l322 -3 3 -202 2 -203 -1282 -2 -1283 -3 -3 -32 -3 -33 680 0 681 0 0 -390 0
-390 -680 0 -680 0 0 -30 0 -30 1205 0 1205 0 0 -365 0 -365 -1205 0 -1205 0
0 -30 0 -30 560 0 560 0 -2 -407 -3 -408 -557 -3 -558 -2 0 -30 c0 -28 3 -30
35 -30 l35 0 0 -305 0 -305 -35 0 c-32 0 -35 -2 -35 -30 l0 -30 700 0 700 0 0
-345 0 -345 -700 0 -700 0 0 -30 0 -30 1220 0 1220 0 0 -365 0 -365 -1220 0
-1220 0 0 -30 0 -30 460 0 460 0 0 -430 0 -430 -460 0 -460 0 0 -30 0 -30
1055 0 1055 0 0 -320 0 -320 -1055 0 -1055 0 0 -30 0 -30 600 0 600 0 0 -445
0 -445 -600 0 -600 0 0 -35 0 -35 1295 0 1295 0 0 -400 0 -400 -1295 0 -1295
0 0 -35 0 -35 720 0 721 0 -3 -132 -3 -133 -1267 -3 -1268 -2 0 135 0 135 536
2 535 3 0 465 0 465 -770 3 -771 2 0 445 0 445 775 0 775 0 0 30 0 30 -235 0
-235 0 0 320 0 320 233 2 232 3 3 27 3 28 -818 2 -818 3 -3 428 -2 427 820 0
820 0 0 30 c0 25 -4 30 -25 30 l-25 0 0 365 0 365 30 0 c27 0 30 3 30 30 l0
30 -565 0 -565 0 0 345 0 345 560 0 560 0 0 30 0 30 -1230 0 -1230 0 0 305 0
305 1235 0 1235 0 0 30 0 30 -795 0 -795 0 0 410 0 410 790 0 790 0 0 30 0 30
-75 0 -75 0 0 365 0 365 75 0 75 0 0 30 0 30 -555 0 -555 0 0 390 0 390 553 2
552 3 3 238 2 237 295 0 c162 0 295 -2 295 -5z m3918 -22 l3 -23 -585 0 -586
0 0 -30 0 -30 583 -2 582 -3 3 -147 3 -148 -931 0 -930 0 0 198 c0 109 3 202
7 205 3 4 421 6 927 5 l921 -3 3 -22z m-8778 -843 l0 -390 -1192 2 -1193 3 -3
388 -2 387 1195 0 1195 0 0 -390z m3100 0 l0 -390 -1520 0 -1520 0 0 390 0
390 1520 0 1520 0 0 -390z m5360 0 l0 -390 -1375 0 -1375 0 0 390 0 390 1375
0 1375 0 0 -390z m318 3 l-3 -388 -127 -3 -128 -3 0 391 0 390 130 0 130 0 -2
-387z m-10258 -818 l0 -365 -452 2 -453 3 0 155 0 155 88 3 87 3 0 29 0 29
-87 3 -88 3 -3 160 c-1 87 0 165 2 172 4 10 97 13 456 13 l450 0 0 -365z
m2780 0 l0 -365 -1355 0 -1355 0 0 365 0 365 1355 0 1355 0 0 -365z m2760 0
l0 -365 -1350 0 -1350 0 0 365 0 365 1350 0 1350 0 0 -365z m4715 190 l0 -170
-597 -3 -598 -2 0 -30 0 -30 598 -2 597 -3 0 -155 0 -155 -1007 -3 -1008 -2 0
365 0 365 1008 -2 1007 -3 0 -170z m-9120 -1025 l0 -405 -1020 0 -1020 0 -3
162 -2 163 29 -6 c36 -8 69 10 82 43 20 54 -31 111 -87 97 l-24 -6 0 174 c0
96 3 178 7 181 3 4 464 6 1022 5 l1016 -3 0 -405z m2970 0 l0 -405 -1450 0
-1450 0 -3 408 -2 407 1452 -2 1453 -3 0 -405z m5493 3 l-3 -408 -1320 0
-1320 0 -3 408 -2 407 1325 0 1325 0 -2 -407z m657 -3 l0 -405 -295 0 -295 0
-3 408 -2 407 297 -2 298 -3 0 -405z m-9975 -775 l0 -305 -592 2 -593 3 -3
303 -2 302 595 0 595 0 0 -305z m2950 0 l0 -305 -1442 2 -1443 3 -3 303 -2
302 1445 0 1445 0 0 -305z m5200 0 l0 -305 -1260 0 -1260 0 0 305 0 305 1260
0 1260 0 0 -305z m1828 3 l-3 -303 -880 0 -880 0 -3 303 -2 302 885 0 885 0
-2 -302z m-8788 -713 l0 -345 -1188 2 -1187 3 -3 343 -2 342 1190 0 1190 0 0
-345z m3100 0 l0 -345 -1520 0 -1520 0 0 345 0 345 1520 0 1520 0 0 -345z
m5360 0 l0 -345 -1345 0 -1345 0 0 345 0 345 1345 0 1345 0 0 -345z m328 3
l-3 -343 -127 -3 -128 -3 0 346 0 345 130 0 130 0 -2 -342z m-10318 -773 l0
-365 -422 2 -423 3 0 165 0 165 53 3 c51 3 53 4 50 30 -3 25 -7 27 -55 30
l-53 3 0 158 c0 87 3 161 7 164 3 4 195 7 425 7 l418 0 0 -365z m2890 0 l0
-365 -1413 2 -1412 3 -3 363 -2 362 1415 0 1415 0 0 -365z m2800 0 l0 -365
-1367 2 -1368 3 -3 363 -2 362 1370 0 1370 0 0 -365z m4628 198 l2 -163 -635
0 -635 0 0 -30 0 -30 633 -2 632 -3 0 -165 0 -165 -990 0 -990 0 -3 363 -2
362 992 -2 993 -3 3 -162z m-9240 -1050 l-3 -428 -960 0 -960 0 -2 428 -2 427
965 0 964 0 -2 -427z m3032 -3 l0 -430 -1485 0 -1485 0 0 430 0 430 1485 0
1485 0 0 -430z m5348 3 l-3 -428 -1320 0 -1320 0 -3 428 -2 427 1325 0 1325 0
-2 -427z m859 0 l-2 -428 -395 0 -395 0 -3 428 -2 427 400 0 400 0 -3 -427z
m-10667 -813 l0 -320 -247 2 -248 3 -3 318 -2 317 250 0 250 0 0 -320z m2840
0 l0 -320 -1390 0 -1390 0 0 320 0 320 1390 0 1390 0 0 -320z m2790 0 l0 -320
-1365 0 -1365 0 0 320 0 320 1365 0 1365 0 0 -320z m5038 3 l-3 -318 -1152 -3
-1153 -2 0 320 0 320 1155 0 1155 0 -2 -317z m-9118 -828 l0 -445 -1025 0
-1025 0 0 160 c0 129 3 160 14 160 30 0 66 41 66 75 0 34 -36 75 -66 75 -11 0
-14 38 -14 203 0 112 3 207 7 210 3 4 465 7 1025 7 l1018 0 0 -445z m3000 0
l0 -445 -1470 0 -1470 0 0 438 c0 241 3 442 7 445 3 4 665 7 1470 7 l1463 0 0
-445z m5490 0 l0 -445 -1295 0 -1295 0 0 445 0 445 1295 0 1295 0 0 -445z
m628 -2 l2 -443 -285 0 -285 0 0 445 0 445 283 -2 282 -3 3 -442z m-10098
-913 l0 -400 -535 0 -535 0 0 175 0 175 140 0 140 0 0 30 0 29 -137 3 -138 3
-3 193 -2 192 535 0 535 0 0 -400z m2840 0 l0 -400 -1392 0 -1391 0 6 227 c4
124 7 304 7 400 l0 173 1385 0 1385 0 0 -400z m2670 0 l0 -400 -1305 0 -1305
0 0 400 0 400 1305 0 1305 0 0 -400z m4588 208 l-3 -193 -547 -3 -548 -2 0
-30 0 -30 550 0 550 0 0 -175 0 -175 -915 0 -915 0 0 400 0 400 915 0 915 0
-2 -192z m-8768 -813 l0 -135 -1197 2 -1198 3 -3 133 -3 132 1201 0 1200 0 0
-135z m3110 0 l0 -135 -1522 2 -1523 3 -3 133 -3 132 1526 0 1525 0 0 -135z
m5368 3 l-3 -133 -1347 -3 -1348 -2 0 135 0 135 1350 0 1351 0 -3 -132z m290
0 l-3 -133 -110 0 -110 0 -3 133 -3 132 116 0 116 0 -3 -132z"/>
<path d="M4624 8896 c-3 -8 -4 -23 -2 -33 3 -17 38 -18 758 -18 l755 0 0 30 0
30 -753 3 c-649 2 -753 0 -758 -12z"/>
<path d="M6110 8070 l0 -30 290 0 290 0 0 30 0 30 -290 0 -290 0 0 -30z"/>
<path d="M6720 8070 l0 -30 275 0 275 0 0 30 0 30 -275 0 -275 0 0 -30z"/>
<path d="M7135 7305 c-39 -38 -32 -86 16 -110 76 -40 146 71 76 120 -31 22
-65 18 -92 -10z"/>
<path d="M7795 7305 c-39 -38 -32 -86 16 -110 76 -40 146 71 76 120 -31 22
-65 18 -92 -10z"/>
<path d="M8420 7310 c-26 -26 -26 -81 0 -105 29 -26 79 -24 102 4 27 34 23 75
-8 100 -34 26 -68 27 -94 1z"/>
<path d="M5780 6487 c-52 -26 -49 -104 5 -129 58 -26 119 33 95 91 -6 16 -23
33 -36 40 -31 14 -33 14 -64 -2z"/>
<path d="M6440 6487 c-52 -26 -49 -104 5 -129 58 -26 119 33 95 91 -6 16 -23
33 -36 40 -31 14 -33 14 -64 -2z"/>
<path d="M7177 6480 c-35 -28 -37 -80 -5 -110 63 -58 156 32 101 98 -27 32
-64 37 -96 12z"/>
<path d="M4860 5710 c-43 -43 -11 -120 50 -120 38 0 70 32 70 70 0 38 -32 70
-70 70 -17 0 -39 -9 -50 -20z"/>
<path d="M5520 5710 c-11 -11 -20 -33 -20 -50 0 -17 9 -39 20 -50 11 -11 33
-20 50 -20 17 0 39 9 50 20 11 11 20 33 20 50 0 17 -9 39 -20 50 -11 11 -33
20 -50 20 -17 0 -39 -9 -50 -20z"/>
<path d="M6141 5704 c-12 -15 -21 -34 -21 -44 0 -34 39 -70 75 -70 36 0 75 36
75 70 0 34 -39 70 -75 70 -24 0 -39 -7 -54 -26z"/>
<path d="M6100 4920 l0 -30 290 0 290 0 0 30 0 30 -290 0 -290 0 0 -30z"/>
<path d="M6710 4920 l0 -30 400 0 400 0 0 30 0 30 -400 0 -400 0 0 -30z"/>
<path d="M7205 4215 c-46 -46 -19 -118 44 -118 66 0 101 84 52 125 -32 25 -67
23 -96 -7z"/>
<path d="M7865 4215 c-46 -45 -19 -118 43 -118 58 0 93 53 67 102 -24 48 -72
55 -110 16z"/>
<path d="M8490 4220 c-26 -26 -26 -81 0 -105 29 -26 79 -24 102 4 25 32 23 67
-7 96 -29 30 -68 32 -95 5z"/>
<path d="M5782 3375 c-59 -25 -51 -107 11 -130 62 -21 118 52 80 103 -26 34
-53 42 -91 27z"/>
<path d="M6442 3375 c-59 -25 -51 -107 11 -130 62 -21 118 52 80 103 -26 34
-53 42 -91 27z"/>
<path d="M7060 3383 c-53 -19 -68 -86 -28 -123 63 -59 157 32 101 98 -20 23
-50 33 -73 25z"/>
<path d="M6760 2510 l0 -30 755 0 755 0 0 30 0 30 -755 0 -755 0 0 -30z"/>
<path d="M6018 1700 c-35 -27 -42 -53 -24 -88 25 -49 73 -56 111 -17 29 28 32
65 8 93 -27 32 -64 37 -95 12z"/>
<path d="M6510 1707 c-52 -26 -49 -104 4 -128 58 -27 116 28 95 89 -5 16 -21
34 -35 41 -31 14 -33 14 -64 -2z"/>
<path d="M7080 1707 c-52 -26 -49 -104 5 -129 58 -26 119 33 95 91 -6 16 -23
33 -36 40 -31 14 -33 14 -64 -2z"/>
<path d="M7275 805 c-14 -13 -25 -36 -25 -50 0 -28 40 -75 64 -75 78 0 109
107 40 139 -37 16 -52 14 -79 -14z"/>
<path d="M7935 805 c-14 -13 -25 -36 -25 -50 0 -30 41 -75 68 -75 35 0 72 38
72 73 0 38 -7 50 -37 66 -33 17 -51 14 -78 -14z"/>
<path d="M8545 805 c-14 -13 -25 -36 -25 -50 0 -28 40 -75 64 -75 29 0 64 22
75 48 16 33 -1 75 -35 91 -37 16 -52 14 -79 -14z"/>
<path d="M280 8095 l0 -35 753 2 752 3 0 30 0 30 -752 3 -753 2 0 -35z"/>
<path d="M3330 8138 c-26 -28 -26 -58 1 -92 41 -52 122 -23 122 44 0 64 -79
95 -123 48z"/>
<path d="M3990 8138 c-27 -29 -25 -69 3 -96 46 -43 120 -15 120 46 0 66 -78
98 -123 50z"/>
<path d="M4617 8142 c-25 -28 -22 -87 5 -106 71 -50 159 43 98 104 -26 26 -81
26 -103 2z"/>
<path d="M8831 8134 c-12 -15 -21 -34 -21 -44 0 -34 39 -70 75 -70 36 0 75 36
75 70 0 34 -39 70 -75 70 -24 0 -39 -7 -54 -26z"/>
<path d="M9491 8134 c-12 -15 -21 -34 -21 -44 0 -34 39 -70 75 -70 36 0 75 36
75 70 0 34 -39 70 -75 70 -24 0 -39 -7 -54 -26z"/>
<path d="M10120 8140 c-11 -11 -20 -33 -20 -50 0 -17 9 -39 20 -50 11 -11 33
-20 50 -20 17 0 39 9 50 20 11 11 20 33 20 50 0 17 -9 39 -20 50 -11 11 -33
20 -50 20 -17 0 -39 -9 -50 -20z"/>
<path d="M1706 7309 c-50 -39 -22 -122 42 -122 43 0 72 28 72 70 0 65 -61 93
-114 52z"/>
<path d="M2362 7307 c-43 -46 -15 -120 46 -120 43 0 72 28 72 70 0 66 -74 97
-118 50z"/>
<path d="M2993 7315 c-70 -49 0 -160 76 -120 48 24 55 72 16 110 -27 28 -61
32 -92 10z"/>
<path d="M4420 7285 l0 -35 753 2 752 3 0 30 0 30 -752 3 -753 2 0 -35z"/>
<path d="M710 6487 c-52 -26 -49 -104 5 -129 58 -26 119 33 95 91 -6 16 -23
33 -36 40 -31 14 -33 14 -64 -2z"/>
<path d="M1327 6480 c-37 -29 -37 -80 -1 -109 15 -12 34 -21 44 -21 33 0 70
39 70 74 0 60 -66 93 -113 56z"/>
<path d="M2880 6450 l0 -30 755 0 755 0 0 30 0 30 -755 0 -755 0 0 -30z"/>
<path d="M8480 6430 l0 -30 755 0 755 0 0 30 0 30 -755 0 -755 0 0 -30z"/>
<path d="M345 5710 c-23 -26 -23 -74 0 -100 40 -44 125 -9 125 51 0 58 -87 91
-125 49z"/>
<path d="M2020 5670 l0 -30 755 0 755 0 0 30 0 30 -755 0 -755 0 0 -30z"/>
<path d="M7380 5650 l0 -30 755 0 755 0 0 30 0 30 -755 0 -755 0 0 -30z"/>
<path d="M10362 5707 c-28 -30 -28 -68 1 -95 48 -45 120 -16 120 48 0 65 -76
95 -121 47z"/>
<path d="M11022 5707 c-44 -47 -13 -117 52 -117 41 0 69 29 69 72 0 61 -78 91
-121 45z"/>
<path d="M330 4940 l0 -30 755 0 755 0 0 30 0 30 -755 0 -755 0 0 -30z"/>
<path d="M3367 4982 c-25 -28 -22 -87 5 -106 71 -50 159 43 98 104 -26 26 -81
26 -103 2z"/>
<path d="M4027 4982 c-25 -28 -22 -87 5 -106 71 -50 159 43 98 104 -26 26 -81
26 -103 2z"/>
<path d="M4650 4978 c-27 -29 -25 -69 3 -96 46 -43 120 -15 120 46 0 66 -78
98 -123 50z"/>
<path d="M8901 4974 c-12 -15 -21 -34 -21 -44 0 -34 39 -70 75 -70 36 0 75 36
75 70 0 34 -39 70 -75 70 -24 0 -39 -7 -54 -26z"/>
<path d="M9561 4974 c-12 -15 -21 -34 -21 -44 0 -34 39 -70 75 -70 36 0 75 36
75 70 0 34 -39 70 -75 70 -24 0 -39 -7 -54 -26z"/>
<path d="M10190 4980 c-43 -43 -11 -120 50 -120 38 0 70 32 70 70 0 38 -32 70
-70 70 -17 0 -39 -9 -50 -20z"/>
<path d="M1706 4219 c-50 -39 -22 -122 42 -122 66 0 98 78 50 123 -28 26 -58
26 -92 -1z"/>
<path d="M2366 4219 c-50 -39 -22 -122 42 -122 66 0 98 78 50 123 -28 26 -58
26 -92 -1z"/>
<path d="M2993 4225 c-43 -30 -38 -88 12 -121 21 -14 30 -14 55 -4 55 23 66
75 25 115 -27 28 -61 32 -92 10z"/>
<path d="M4520 4160 l0 -30 755 0 755 0 0 30 0 30 -755 0 -755 0 0 -30z"/>
<path d="M613 3380 c-46 -19 -57 -83 -20 -118 47 -44 117 -13 117 52 0 50 -50
84 -97 66z"/>
<path d="M1239 3378 c-16 -5 -32 -22 -39 -39 -35 -84 84 -137 129 -58 31 55
-28 118 -90 97z"/>
<path d="M2780 3305 l0 -35 753 2 752 3 0 30 0 30 -752 3 -753 2 0 -35z"/>
<path d="M8244 3296 c-3 -8 -4 -23 -2 -33 3 -17 39 -18 756 -21 l752 -2 0 35
0 35 -750 0 c-645 0 -751 -2 -756 -14z"/>
<path d="M1240 2520 l0 -30 755 0 755 0 0 30 0 30 -755 0 -755 0 0 -30z"/>
<path d="M4120 2577 c-52 -26 -49 -104 5 -129 58 -26 119 33 95 91 -6 16 -23
33 -36 40 -31 14 -33 14 -64 -2z"/>
<path d="M4780 2577 c-52 -26 -49 -104 5 -129 58 -26 119 33 95 91 -6 16 -23
33 -36 40 -31 14 -33 14 -64 -2z"/>
<path d="M5397 2570 c-37 -29 -37 -80 -1 -109 15 -12 34 -21 44 -21 31 0 70
39 70 70 0 62 -66 97 -113 60z"/>
<path d="M9790 2587 c-80 -40 -24 -162 59 -127 53 22 59 89 9 124 -27 19 -35
20 -68 3z"/>
<path d="M10435 2575 c-14 -13 -25 -36 -25 -50 0 -29 40 -75 65 -75 20 0 57
19 67 34 18 26 8 75 -18 95 -35 27 -59 26 -89 -4z"/>
<path d="M11073 2588 c-28 -14 -43 -55 -31 -89 9 -26 44 -49 74 -49 23 0 64
47 64 73 0 51 -61 88 -107 65z"/>
<path d="M656 1699 c-36 -28 -36 -80 0 -108 15 -12 34 -21 44 -21 34 0 70 39
70 75 0 36 -36 75 -70 75 -10 0 -29 -9 -44 -21z"/>
<path d="M1242 1710 c-49 -20 -54 -95 -7 -126 73 -48 147 61 79 115 -29 23
-38 24 -72 11z"/>
<path d="M2900 1650 l0 -30 755 0 755 0 0 30 0 30 -755 0 -755 0 0 -30z"/>
<path d="M8542 1653 l3 -28 755 0 755 0 3 28 3 27 -761 0 -761 0 3 -27z"/>
<path d="M1873 804 c-20 -20 -24 -31 -19 -57 9 -43 29 -61 71 -61 46 0 69 24
69 70 0 69 -72 97 -121 48z"/>
<path d="M2535 805 c-48 -47 -19 -119 49 -119 47 0 70 23 70 70 0 68 -72 97
-119 49z"/>
<path d="M3123 804 c-20 -20 -24 -31 -19 -57 9 -43 29 -61 71 -61 46 0 69 24
69 70 0 69 -72 97 -121 48z"/>
<path d="M4590 760 l0 -30 755 0 755 0 0 30 0 30 -755 0 -755 0 0 -30z"/>
</g>
</svg>
