<?xml version="1.0" standalone="no"?>
<!DOCTYPE svg PUBLIC "-//W3C//DTD SVG 20010904//EN"
 "http://www.w3.org/TR/2001/REC-SVG-20010904/DTD/svg10.dtd">
<svg version="1.0" xmlns="http://www.w3.org/2000/svg"
 width="1125.000000pt" height="900.000000pt" viewBox="0 0 1125.000000 900.000000"
 preserveAspectRatio="xMidYMid meet">
<metadata>
Created by potrace 1.13, written by Peter Selinger 2001-2015
</metadata>
<g transform="translate(0.000000,900.000000) scale(0.100000,-0.100000)"
fill="#000000" stroke="none">
<path d="M0 4500 l0 -4500 5625 0 5625 0 0 4500 0 4500 -5625 0 -5625 0 0
-4500z m4978 4428 c4 -30 44 -68 72 -68 28 0 68 38 72 68 l3 27 367 3 368 2
-7 -45 c-4 -36 -2 -50 12 -65 24 -26 79 -26 105 0 21 21 27 74 10 85 -6 3 -10
10 -10 16 0 5 983 8 2618 7 l2617 -3 0 -365 0 -365 -107 -3 -108 -3 0 -29 0
-29 108 -3 107 -3 3 -324 c2 -278 0 -331 -14 -367 -14 -38 -14 -44 0 -72 14
-27 16 -103 16 -643 l0 -611 -25 6 c-37 9 -82 -18 -90 -53 -12 -55 31 -98 86
-87 l29 5 0 -222 0 -222 -35 -28 c-51 -40 -45 -106 11 -127 24 -10 25 -13 22
-92 l-3 -83 -77 -3 -78 -3 0 -29 0 -30 80 0 80 0 -2 -187 -3 -188 -26 -3 c-40
-5 -61 -33 -57 -78 3 -38 18 -52 71 -68 16 -5 17 -47 17 -697 0 -655 -1 -691
-17 -683 -33 14 -76 7 -95 -16 -25 -31 -22 -66 8 -97 24 -24 32 -25 84 -12 13
4 15 -43 18 -363 l2 -368 -25 0 c-42 0 -71 -40 -66 -90 3 -21 49 -60 72 -60
18 0 19 -10 19 -365 0 -284 -3 -367 -13 -370 -6 -3 -186 -4 -399 -3 l-387 3
145 215 145 215 -22 18 c-14 11 -26 14 -32 8 -5 -5 -78 -110 -161 -233 l-151
-223 -373 -3 -372 -2 0 -30 0 -30 378 0 c207 0 571 -2 807 -3 l430 -2 0 -705
0 -705 -5580 0 -5580 0 0 705 0 705 912 3 913 2 0 30 0 30 -912 2 -913 3 -3
1823 -2 1822 1380 0 1380 0 0 30 0 30 -1175 0 c-646 0 -1175 3 -1175 6 0 3 68
106 150 227 150 222 150 222 129 240 -12 9 -24 17 -28 17 -3 -1 -80 -111 -171
-246 l-164 -244 -161 2 -160 3 0 1460 0 1460 1303 3 1302 2 0 30 0 30 -1160 2
-1160 3 155 230 156 230 -22 18 c-16 13 -25 15 -33 7 -6 -6 -83 -117 -171
-248 l-161 -237 -105 0 -104 0 2 240 c1 132 2 258 3 280 1 22 -2 73 -5 112 -4
40 -5 80 -1 88 5 13 276 15 2468 13 l2463 -3 3 -27z"/>
<path d="M3522 8924 c-62 -43 -32 -134 44 -134 23 0 64 47 64 73 0 55 -65 92
-108 61z"/>
<path d="M7852 8814 c-28 -20 -31 -83 -4 -107 26 -24 77 -21 102 5 59 64 -25
153 -98 102z"/>
<path d="M7300 8515 l-165 -245 -362 0 -363 0 0 -35 0 -35 1648 2 1647 3 0 30
0 30 -1248 3 -1247 2 156 231 c147 216 155 231 138 244 -11 8 -23 14 -29 14
-5 1 -84 -110 -175 -244z"/>
<path d="M2270 8730 c-26 -26 -26 -81 -2 -103 44 -40 122 -7 122 51 0 60 -78
94 -120 52z"/>
<path d="M6776 8639 c-46 -36 -26 -110 34 -124 64 -15 108 78 58 125 -28 26
-58 26 -92 -1z"/>
<path d="M10101 8604 c-12 -15 -21 -34 -21 -44 0 -34 39 -70 75 -70 36 0 75
36 75 70 0 34 -39 70 -75 70 -24 0 -39 -7 -54 -26z"/>
<path d="M9210 8540 c-42 -42 -8 -120 53 -120 58 0 91 85 49 123 -25 23 -78
21 -102 -3z"/>
<path d="M1412 8523 c-7 -3 -19 -18 -28 -34 -12 -25 -13 -34 -2 -56 35 -73
138 -53 138 27 0 45 -63 81 -108 63z"/>
<path d="M2910 8370 c-43 -43 -11 -120 50 -120 38 0 70 32 70 70 0 38 -32 70
-70 70 -17 0 -39 -9 -50 -20z"/>
<path d="M10695 8355 c-30 -30 -31 -54 -4 -89 15 -19 30 -26 54 -26 37 0 75
37 75 72 0 27 -45 68 -75 68 -14 0 -37 -11 -50 -25z"/>
<path d="M4673 8340 c-49 -20 -56 -90 -11 -123 73 -54 153 56 82 112 -29 23
-38 24 -71 11z"/>
<path d="M5572 8214 c-28 -20 -31 -83 -4 -107 25 -23 78 -21 102 3 61 61 -27
154 -98 104z"/>
<path d="M3891 8134 c-12 -15 -21 -34 -21 -44 0 -34 39 -70 75 -70 36 0 75 36
75 70 0 34 -39 70 -75 70 -24 0 -39 -7 -54 -26z"/>
<path d="M8781 7934 c-12 -15 -21 -35 -21 -46 0 -27 45 -68 75 -68 30 0 75 41
75 68 0 35 -38 72 -75 72 -24 0 -39 -7 -54 -26z"/>
<path d="M7015 7905 c-14 -13 -25 -31 -25 -39 0 -30 23 -65 49 -74 76 -27 134
77 68 123 -31 22 -65 18 -92 -10z"/>
<path d="M760 7823 c-76 -27 -58 -143 21 -143 55 0 92 87 52 122 -22 19 -53
28 -73 21z"/>
<path d="M2105 7818 c-50 -27 -59 -75 -20 -113 42 -43 106 -23 121 37 5 22 0
33 -24 58 -33 32 -46 35 -77 18z"/>
<path d="M8058 7800 c-24 -25 -29 -36 -24 -58 15 -60 79 -80 121 -37 39 38 32
86 -16 110 -39 21 -46 19 -81 -15z"/>
<path d="M10335 7795 c-28 -27 -30 -42 -14 -79 16 -34 58 -51 91 -35 26 11 48
46 48 75 0 24 -47 64 -75 64 -14 0 -37 -11 -50 -25z"/>
<path d="M9489 7732 c-49 -40 -17 -122 48 -122 65 0 93 61 52 114 -25 31 -66
35 -100 8z"/>
<path d="M6411 7584 c-12 -15 -21 -34 -21 -44 0 -34 39 -70 75 -70 36 0 75 36
75 70 0 34 -39 70 -75 70 -24 0 -39 -7 -54 -26z"/>
<path d="M1510 7520 c-42 -42 -8 -120 53 -120 58 0 91 85 49 123 -25 23 -78
21 -102 -3z"/>
<path d="M2950 7533 c-53 -19 -67 -83 -27 -121 29 -28 57 -28 91 -1 57 45 4
146 -64 122z"/>
<path d="M3685 7260 l-169 -250 -303 0 -303 0 0 -35 0 -35 1580 0 1580 0 0 35
0 35 -1235 0 c-679 0 -1235 3 -1235 6 0 3 70 109 155 236 145 213 155 231 138
244 -10 7 -23 14 -28 14 -6 0 -87 -112 -180 -250z"/>
<path d="M5245 7475 c-30 -30 -31 -54 -4 -89 15 -19 30 -26 54 -26 36 0 75 36
75 70 0 10 -9 29 -21 44 -27 34 -71 35 -104 1z"/>
<path d="M4145 7430 c-41 -45 -10 -120 50 -120 38 0 75 35 75 71 0 58 -87 91
-125 49z"/>
<path d="M8896 7249 c-50 -39 -22 -122 42 -122 66 0 98 78 50 123 -28 26 -58
26 -92 -1z"/>
<path d="M7810 7233 c-51 -19 -68 -85 -30 -123 61 -61 159 33 103 98 -20 23
-50 33 -73 25z"/>
<path d="M9811 7112 c-28 -22 -31 -75 -6 -102 24 -26 79 -26 105 0 62 62 -31
158 -99 102z"/>
<path d="M10565 7015 c-40 -39 -29 -95 22 -113 78 -27 136 76 70 123 -31 22
-65 18 -92 -10z"/>
<path d="M1930 6937 c-76 -38 -28 -154 55 -133 29 7 56 56 48 87 -11 41 -65
65 -103 46z"/>
<path d="M6455 6938 c-28 -16 -35 -28 -35 -65 0 -41 42 -77 80 -68 60 14 80
88 34 124 -30 24 -50 26 -79 9z"/>
<path d="M326 6769 c-36 -28 -36 -80 0 -108 15 -12 34 -21 44 -21 34 0 70 39
70 75 0 36 -36 75 -70 75 -10 0 -29 -9 -44 -21z"/>
<path d="M1215 6765 c-40 -39 -29 -97 22 -116 36 -13 78 5 93 40 31 75 -58
134 -115 76z"/>
<path d="M8715 6455 l-170 -254 -308 -1 -308 0 3 -32 3 -33 1488 -3 1487 -2 0
35 0 35 -1145 2 -1145 3 160 236 c151 225 159 237 141 253 -9 9 -22 16 -27 16
-5 0 -85 -115 -179 -255z"/>
<path d="M4935 6645 c-57 -57 1 -146 76 -115 56 24 59 103 3 129 -37 16 -52
14 -79 -14z"/>
<path d="M7560 6650 c-42 -42 -8 -120 53 -120 58 0 91 85 49 123 -25 23 -78
21 -102 -3z"/>
<path d="M9301 6554 c-27 -34 -27 -64 -1 -92 45 -48 123 -16 123 50 0 64 -83
92 -122 42z"/>
<path d="M10290 6470 c-26 -26 -26 -81 -2 -103 28 -25 87 -22 106 5 50 71 -43
159 -104 98z"/>
<path d="M2276 6449 c-26 -20 -36 -69 -18 -95 10 -15 47 -34 67 -34 25 0 65
46 65 75 0 30 -41 75 -68 75 -11 0 -31 -9 -46 -21z"/>
<path d="M3756 6419 c-36 -28 -36 -80 0 -108 15 -12 34 -21 44 -21 34 0 70 39
70 75 0 36 -36 75 -70 75 -10 0 -29 -9 -44 -21z"/>
<path d="M6739 6402 c-28 -23 -30 -73 -4 -102 25 -27 78 -27 105 2 26 28 26
58 -1 92 -25 31 -66 35 -100 8z"/>
<path d="M5933 6370 c-48 -19 -58 -87 -17 -119 53 -41 114 -13 114 52 0 51
-50 86 -97 67z"/>
<path d="M3000 6260 c-42 -42 -8 -120 53 -120 58 0 91 85 49 123 -25 23 -78
21 -102 -3z"/>
<path d="M751 6094 c-12 -15 -21 -34 -21 -44 0 -34 39 -70 75 -70 36 0 75 36
75 70 0 34 -39 70 -75 70 -24 0 -39 -7 -54 -26z"/>
<path d="M5276 6059 c-19 -15 -26 -30 -26 -54 0 -36 36 -75 70 -75 34 0 70 39
70 75 0 36 -36 75 -70 75 -10 0 -29 -9 -44 -21z"/>
<path d="M1580 6010 c-43 -43 -11 -120 50 -120 38 0 70 32 70 70 0 38 -32 70
-70 70 -17 0 -39 -9 -50 -20z"/>
<path d="M4470 5920 c-26 -26 -26 -81 -2 -103 28 -25 87 -22 106 5 50 71 -43
159 -104 98z"/>
<path d="M7285 5870 c-42 -47 -8 -120 55 -120 33 0 70 40 70 76 0 57 -86 87
-125 44z"/>
<path d="M10563 5820 c-48 -19 -58 -87 -17 -119 34 -27 64 -27 92 -1 57 53 -3
149 -75 120z"/>
<path d="M9420 5760 c-26 -26 -26 -81 0 -105 29 -26 79 -24 102 4 27 34 23 75
-8 100 -34 26 -68 27 -94 1z"/>
<path d="M2335 5710 c-42 -47 -8 -120 55 -120 33 0 70 40 70 74 0 57 -86 89
-125 46z"/>
<path d="M6345 5710 c-42 -47 -8 -120 55 -120 33 0 70 40 70 76 0 57 -86 87
-125 44z"/>
<path d="M8549 5692 c-49 -40 -17 -122 48 -122 65 0 93 61 52 114 -25 31 -66
35 -100 8z"/>
<path d="M960 5480 c-42 -42 -8 -120 53 -120 58 0 91 85 49 123 -25 23 -78 21
-102 -3z"/>
<path d="M3160 5458 c-43 -47 -12 -118 53 -118 43 0 67 26 67 73 0 62 -77 91
-120 45z"/>
<path d="M5345 5167 l-170 -252 -317 -3 -318 -2 0 -30 0 -30 1810 0 1810 0 0
30 0 30 -1450 0 c-810 0 -1450 4 -1450 9 0 4 70 111 155 237 l154 229 -22 17
c-12 10 -24 17 -27 17 -3 0 -81 -113 -175 -252z"/>
<path d="M9945 5365 c-28 -27 -30 -42 -14 -79 32 -69 139 -38 139 40 0 24 -47
64 -75 64 -14 0 -37 -11 -50 -25z"/>
<path d="M7854 5358 c-69 -33 -37 -138 42 -138 24 0 64 47 64 75 0 30 -41 75
-67 74 -10 0 -28 -5 -39 -11z"/>
<path d="M3786 5279 c-31 -24 -36 -77 -8 -102 50 -45 122 -17 122 48 0 36 -36
75 -70 75 -10 0 -29 -9 -44 -21z"/>
<path d="M4712 5293 c-7 -3 -19 -18 -27 -33 -40 -77 71 -147 120 -77 42 60
-24 138 -93 110z"/>
<path d="M5615 5275 c-40 -39 -29 -97 22 -116 36 -13 78 5 93 40 31 75 -58
134 -115 76z"/>
<path d="M6801 5224 c-12 -15 -21 -34 -21 -44 0 -34 39 -70 75 -70 36 0 75 36
75 70 0 34 -39 70 -75 70 -24 0 -39 -7 -54 -26z"/>
<path d="M9280 5107 c-70 -35 -48 -137 30 -137 28 0 70 44 70 73 0 51 -55 86
-100 64z"/>
<path d="M10443 5038 c-68 -33 -40 -138 37 -138 28 0 70 44 70 73 0 51 -61 88
-107 65z"/>
<path d="M8549 4982 c-49 -40 -17 -122 48 -122 65 0 93 61 52 114 -25 31 -66
35 -100 8z"/>
<path d="M1026 4928 c-50 -71 43 -159 104 -98 26 26 26 81 2 103 -28 25 -87
22 -106 -5z"/>
<path d="M2182 4753 c-32 -27 -37 -64 -12 -96 57 -72 167 8 113 81 -25 33 -71
40 -101 15z"/>
<path d="M3021 4744 c-12 -15 -21 -34 -21 -44 0 -34 39 -70 75 -70 24 0 39 7
54 26 27 35 26 59 -4 89 -33 34 -77 33 -104 -1z"/>
<path d="M9697 4580 c-35 -28 -37 -80 -5 -110 29 -27 64 -25 93 5 63 63 -18
160 -88 105z"/>
<path d="M3622 4497 c-45 -48 -16 -120 48 -120 65 0 95 76 47 121 -30 28 -68
28 -95 -1z"/>
<path d="M7617 4478 c-38 -34 -40 -75 -5 -108 29 -27 64 -25 93 5 29 28 32 65
8 93 -28 33 -66 37 -96 10z"/>
<path d="M5295 4405 c-14 -13 -25 -36 -25 -50 0 -28 40 -75 64 -75 80 0 110
107 39 139 -36 16 -51 14 -78 -14z"/>
<path d="M550 4397 c-14 -7 -31 -24 -39 -38 -12 -22 -12 -29 0 -54 27 -57 105
-57 131 0 26 57 -37 119 -92 92z"/>
<path d="M1416 4378 c-35 -50 -4 -118 54 -118 59 0 95 85 52 123 -28 25 -87
22 -106 -5z"/>
<path d="M4387 4349 c-48 -28 -40 -107 12 -129 75 -31 134 58 76 115 -25 26
-58 31 -88 14z"/>
<path d="M6075 4245 c-14 -13 -25 -36 -25 -50 0 -29 40 -75 65 -75 20 0 57 19
67 34 18 26 8 75 -18 95 -35 27 -59 26 -89 -4z"/>
<path d="M6855 4245 c-34 -33 -33 -77 1 -104 15 -12 34 -21 44 -21 34 0 70 39
70 75 0 24 -7 39 -26 54 -35 27 -59 26 -89 -4z"/>
<path d="M8256 4249 c-19 -15 -26 -30 -26 -54 0 -36 36 -75 70 -75 34 0 70 39
70 75 0 36 -36 75 -70 75 -10 0 -29 -9 -44 -21z"/>
<path d="M10546 4249 c-19 -15 -26 -30 -26 -54 0 -36 36 -75 70 -75 34 0 70
39 70 75 0 36 -36 75 -70 75 -10 0 -29 -9 -44 -21z"/>
<path d="M2631 4124 c-12 -15 -21 -34 -21 -44 0 -34 39 -70 75 -70 36 0 75 36
75 70 0 34 -39 70 -75 70 -24 0 -39 -7 -54 -26z"/>
<path d="M9212 3780 l-163 -240 -374 0 -375 0 0 -30 0 -30 1305 0 1305 0 0 30
0 30 -890 2 -891 3 142 210 c78 116 143 216 146 223 5 11 -22 41 -37 42 -3 0
-79 -108 -168 -240z"/>
<path d="M101 3944 c-12 -15 -21 -34 -21 -44 0 -34 39 -70 75 -70 36 0 75 36
75 70 0 34 -39 70 -75 70 -24 0 -39 -7 -54 -26z"/>
<path d="M2354 3753 c-81 -120 -158 -233 -170 -252 -13 -19 -21 -38 -18 -43 3
-4 -141 -8 -320 -8 l-326 0 0 -30 0 -30 1535 0 1535 0 0 30 0 30 -1180 0
c-649 0 -1180 2 -1180 4 0 3 72 112 161 243 121 180 158 242 151 253 -24 38
-41 20 -188 -197z"/>
<path d="M9667 3949 c-10 -6 -23 -22 -28 -37 -32 -83 93 -136 130 -55 16 36
14 51 -14 78 -25 26 -58 31 -88 14z"/>
<path d="M3209 3848 c-38 -13 -57 -62 -38 -97 32 -56 112 -49 133 12 18 51
-41 103 -95 85z"/>
<path d="M1009 3812 c-28 -23 -30 -73 -4 -102 24 -26 79 -26 105 0 63 63 -31
158 -101 102z"/>
<path d="M4848 3775 c-54 -30 -42 -116 18 -131 83 -21 126 99 48 135 -31 14
-33 14 -66 -4z"/>
<path d="M7741 3734 c-12 -15 -21 -34 -21 -44 0 -34 39 -70 75 -70 36 0 75 36
75 70 0 34 -39 70 -75 70 -24 0 -39 -7 -54 -26z"/>
<path d="M3917 3672 c-40 -44 -7 -122 51 -122 60 0 94 78 52 120 -26 26 -81
26 -103 2z"/>
<path d="M6992 3584 c-16 -11 -22 -25 -22 -54 0 -29 6 -43 22 -54 51 -36 118
-5 118 54 0 59 -67 90 -118 54z"/>
<path d="M5493 3548 c-68 -33 -39 -138 38 -138 28 0 69 44 69 73 0 51 -61 88
-107 65z"/>
<path d="M10382 3397 c-43 -46 -15 -120 46 -120 67 0 97 76 49 121 -30 28 -68
28 -95 -1z"/>
<path d="M6180 3150 c-43 -43 -11 -120 50 -120 38 0 70 32 70 70 0 38 -32 70
-70 70 -17 0 -39 -9 -50 -20z"/>
<path d="M8703 3160 c-47 -19 -56 -78 -18 -115 47 -48 119 -19 119 49 0 20 -7
43 -14 50 -20 20 -60 27 -87 16z"/>
<path d="M2750 3100 c-26 -26 -26 -81 -2 -103 45 -40 122 -6 122 53 0 17 -9
39 -20 50 -11 11 -33 20 -50 20 -17 0 -39 -9 -50 -20z"/>
<path d="M3712 3097 c-45 -48 -14 -117 51 -117 42 0 67 26 67 68 0 65 -74 96
-118 49z"/>
<path d="M7120 3070 c-45 -45 -11 -120 54 -120 25 0 39 7 50 22 36 51 5 118
-54 118 -17 0 -39 -9 -50 -20z"/>
<path d="M656 3008 c-36 -51 -5 -118 54 -118 59 0 90 67 54 118 -11 16 -25 22
-54 22 -29 0 -43 -6 -54 -22z"/>
<path d="M4553 2998 c-68 -33 -39 -138 38 -138 28 0 69 44 69 73 0 51 -61 88
-107 65z"/>
<path d="M9640 2997 c-52 -26 -49 -104 5 -129 58 -26 119 33 95 91 -6 16 -23
33 -36 40 -31 14 -33 14 -64 -2z"/>
<path d="M10540 2800 c-43 -43 -11 -120 50 -120 17 0 39 9 50 20 26 26 26 81
2 103 -25 23 -78 21 -102 -3z"/>
<path d="M1832 2777 c-45 -48 -14 -117 51 -117 43 0 70 29 69 72 -2 63 -77 91
-120 45z"/>
<path d="M7741 2764 c-27 -34 -27 -64 -1 -92 45 -48 123 -16 123 50 0 64 -83
92 -122 42z"/>
<path d="M5420 2524 c-91 -135 -166 -252 -168 -260 -3 -12 -61 -14 -358 -14
l-354 0 0 -30 0 -30 1995 0 1995 0 0 30 0 30 -1605 0 c-883 0 -1605 3 -1605 6
0 3 73 113 162 245 153 228 160 240 142 254 -10 8 -23 14 -29 14 -5 0 -84
-110 -175 -245z"/>
<path d="M5699 2622 c-15 -13 -22 -30 -22 -51 0 -66 76 -98 123 -51 27 27 25
66 -5 95 -29 30 -64 32 -96 7z"/>
<path d="M6770 2560 c-42 -42 -12 -120 48 -120 46 0 72 25 72 70 0 29 -6 43
-22 54 -31 22 -74 20 -98 -4z"/>
<path d="M8982 2547 c-45 -48 -14 -117 51 -117 42 0 70 29 70 72 0 61 -78 91
-121 45z"/>
<path d="M983 2520 c-48 -19 -58 -87 -17 -119 53 -41 114 -13 114 52 0 51 -50
86 -97 67z"/>
<path d="M4246 2439 c-36 -28 -36 -80 0 -108 15 -12 34 -21 44 -21 10 0 29 9
44 21 34 27 35 71 1 104 -30 30 -54 31 -89 4z"/>
<path d="M2772 2387 c-45 -48 -14 -117 51 -117 43 0 67 26 67 73 0 63 -74 91
-118 44z"/>
<path d="M3517 2379 c-48 -28 -40 -107 12 -129 75 -31 134 58 76 115 -25 26
-58 31 -88 14z"/>
<path d="M9832 2297 c-43 -46 -15 -120 46 -120 43 0 72 28 72 69 0 66 -74 98
-118 51z"/>
<path d="M5482 2073 c-52 -44 -24 -123 44 -123 68 0 97 68 49 115 -28 29 -65
32 -93 8z"/>
<path d="M1375 1975 c-40 -39 -29 -97 22 -116 36 -13 78 5 93 40 31 75 -58
134 -115 76z"/>
<path d="M342 1927 c-28 -30 -28 -68 1 -95 48 -45 120 -16 120 48 0 65 -76 95
-121 47z"/>
<path d="M6411 1924 c-12 -15 -21 -34 -21 -44 0 -34 39 -70 75 -70 36 0 75 36
75 70 0 34 -39 70 -75 70 -24 0 -39 -7 -54 -26z"/>
<path d="M10133 1938 c-51 -24 -50 -106 1 -129 83 -38 147 84 66 126 -33 17
-37 17 -67 3z"/>
<path d="M2170 1897 c-52 -26 -49 -104 4 -128 36 -17 73 -3 92 32 19 38 6 80
-32 98 -31 14 -33 14 -64 -2z"/>
<path d="M7839 1842 c-28 -23 -30 -73 -4 -102 25 -27 78 -27 105 2 26 28 26
58 -1 92 -25 31 -66 35 -100 8z"/>
<path d="M9197 1730 c-37 -29 -37 -80 -1 -109 15 -12 34 -21 44 -21 31 0 70
39 70 70 0 62 -66 97 -113 60z"/>
<path d="M3552 1677 c-45 -48 -14 -117 51 -117 42 0 67 26 67 68 0 65 -74 96
-118 49z"/>
<path d="M4843 1652 c-51 -8 -70 -83 -30 -120 48 -45 117 -14 117 51 0 48 -38
77 -87 69z"/>
<path d="M2813 1578 c-12 -6 -27 -24 -34 -40 -34 -83 86 -136 130 -57 19 33 1
81 -35 98 -29 13 -32 13 -61 -1z"/>
<path d="M7010 1540 c-62 -62 25 -155 98 -104 28 20 31 83 4 107 -25 23 -78
21 -102 -3z"/>
<path d="M8389 1522 c-15 -13 -22 -30 -22 -51 0 -66 76 -98 123 -51 27 27 25
66 -5 95 -29 30 -64 32 -96 7z"/>
<path d="M5812 1443 c-7 -3 -19 -18 -27 -33 -40 -77 71 -147 120 -77 42 60
-24 138 -93 110z"/>
<path d="M10405 1265 c-40 -39 -29 -97 22 -116 62 -23 119 40 89 99 -25 49
-72 56 -111 17z"/>
<path d="M1567 1178 c-38 -34 -40 -75 -5 -108 29 -27 64 -25 93 5 29 28 32 65
8 93 -28 33 -66 37 -96 10z"/>
<path d="M4247 1180 c-37 -29 -37 -80 -1 -109 15 -12 34 -21 44 -21 31 0 70
39 70 70 0 62 -66 97 -113 60z"/>
<path d="M3697 977 c-68 -100 -146 -215 -172 -254 l-48 -73 -316 -2 -316 -3
-3 -27 -3 -28 1815 0 1816 0 0 30 0 30 -1455 0 c-800 0 -1455 3 -1455 7 0 3
67 106 148 227 82 122 152 226 155 232 4 7 -4 19 -18 28 l-24 16 -124 -183z"/>
<path d="M6462 1127 c-45 -48 -14 -117 51 -117 42 0 67 26 67 68 0 65 -74 96
-118 49z"/>
<path d="M86 1078 c-50 -71 43 -159 104 -98 26 26 26 81 2 103 -28 25 -87 22
-106 -5z"/>
<path d="M9150 1033 c-55 -20 -68 -87 -24 -122 15 -12 34 -21 44 -21 33 0 70
39 70 74 0 46 -49 84 -90 69z"/>
<path d="M7780 1000 c-26 -26 -26 -81 0 -105 27 -25 80 -22 102 6 56 68 -40
161 -102 99z"/>
<path d="M2342 973 c-52 -44 -24 -123 44 -123 68 0 97 68 49 115 -28 29 -65
32 -93 8z"/>
<path d="M5177 922 c-40 -44 -7 -122 51 -122 60 0 94 78 52 120 -26 26 -81 26
-103 2z"/>
<path d="M1009 742 c-28 -23 -30 -73 -4 -102 24 -26 79 -26 105 0 63 63 -31
158 -101 102z"/>
<path d="M9770 713 c-51 -19 -68 -85 -30 -123 61 -61 159 32 103 98 -20 23
-50 33 -73 25z"/>
<path d="M10642 700 c-27 -11 -44 -52 -36 -85 8 -31 23 -43 62 -51 25 -5 36
-1 56 19 33 33 33 71 1 102 -25 26 -45 30 -83 15z"/>
<path d="M7407 559 c-48 -28 -40 -107 12 -129 75 -31 134 58 76 115 -25 26
-58 31 -88 14z"/>
<path d="M3626 399 c-36 -28 -36 -80 0 -108 15 -12 34 -21 44 -21 34 0 70 39
70 75 0 36 -36 75 -70 75 -10 0 -29 -9 -44 -21z"/>
<path d="M5813 408 c-28 -14 -43 -55 -31 -89 9 -26 44 -49 74 -49 24 0 64 47
64 75 0 30 -41 75 -67 74 -10 0 -28 -5 -40 -11z"/>
<path d="M217 339 c-48 -28 -40 -107 13 -129 23 -9 34 -9 58 4 49 25 56 72 17
111 -25 26 -58 31 -88 14z"/>
<path d="M8133 320 c-48 -19 -58 -87 -17 -119 53 -41 114 -13 114 52 0 51 -50
86 -97 67z"/>
<path d="M10140 270 c-26 -26 -26 -81 -2 -103 28 -25 87 -22 106 5 36 51 5
118 -54 118 -17 0 -39 -9 -50 -20z"/>
<path d="M6800 247 c-80 -40 -24 -162 59 -127 53 22 59 89 9 124 -27 19 -35
20 -68 3z"/>
<path d="M9126 239 c-19 -15 -26 -30 -26 -54 0 -36 36 -75 70 -75 34 0 70 39
70 75 0 36 -36 75 -70 75 -10 0 -29 -9 -44 -21z"/>
<path d="M1580 210 c-43 -43 -11 -120 50 -120 59 0 90 67 54 118 -20 29 -76
30 -104 2z"/>
<path d="M2587 212 c-40 -44 -7 -122 51 -122 60 0 94 78 52 120 -26 26 -81 26
-103 2z"/>
<path d="M4560 190 c-24 -24 -26 -67 -4 -98 20 -29 76 -30 104 -2 43 43 11
120 -50 120 -17 0 -39 -9 -50 -20z"/>
</g>
</svg>
