<?xml version="1.0" standalone="no"?>
<!DOCTYPE svg PUBLIC "-//W3C//DTD SVG 20010904//EN"
 "http://www.w3.org/TR/2001/REC-SVG-20010904/DTD/svg10.dtd">
<svg version="1.0" xmlns="http://www.w3.org/2000/svg"
 width="1125.000000pt" height="900.000000pt" viewBox="0 0 1125.000000 900.000000"
 preserveAspectRatio="xMidYMid meet">
<metadata>
Created by potrace 1.13, written by Peter Selinger 2001-2015
</metadata>
<g transform="translate(0.000000,900.000000) scale(0.100000,-0.100000)"
fill="#000000" stroke="none">
<path d="M0 4500 l0 -4500 5625 0 5625 0 0 4500 0 4500 -5625 0 -5625 0 0
-4500z m725 4325 l0 -130 -340 0 -340 0 -3 119 c-1 66 0 126 2 133 4 11 71 13
343 11 l338 -3 0 -130z m2670 0 l0 -130 -1300 0 -1300 0 -3 119 c-1 66 0 126
2 133 4 11 240 13 1303 11 l1298 -3 0 -130z m1327 111 c119 -45 210 -59 388
-60 181 0 289 16 405 59 l66 25 457 -2 457 -3 0 -130 0 -130 -1515 0 -1515 0
-3 119 c-1 66 0 126 2 133 4 10 119 13 599 13 l595 0 64 -24z m4608 -111 l0
-135 -1385 0 -1385 0 0 135 0 135 1385 0 1385 0 0 -135z m1875 0 l0 -130 -902
-3 -903 -2 0 135 0 135 903 -2 902 -3 0 -130z m-8965 -600 l0 -405 -1097 2
-1098 3 -3 403 -2 402 1100 0 1100 0 0 -405z m2760 0 l0 -405 -1350 0 -1350 0
0 405 0 405 1350 0 1350 0 0 -405z m2820 0 l0 -405 -1380 0 -1380 0 0 405 0
405 1380 0 1380 0 0 -405z m3118 3 l-3 -403 -1522 -3 -1523 -2 0 405 0 405
1525 0 1525 0 -2 -402z m270 0 l-3 -403 -102 -3 -103 -3 0 406 0 405 105 0
105 0 -2 -402z m-10588 -853 l0 -385 -290 0 -290 0 0 378 c0 208 3 382 7 385
3 4 134 7 290 7 l283 0 0 -385z m2630 0 l0 -385 -1280 0 -1280 0 0 385 0 385
1280 0 1280 0 0 -385z m3100 0 l0 -385 -832 -2 c-458 -2 -1140 -2 -1515 0
l-683 2 0 385 0 385 1515 0 1515 0 0 -385z m2790 0 l0 -385 -842 -2 c-464 -2
-1078 -2 -1365 0 l-523 2 0 385 0 385 1365 0 1365 0 0 -385z m2068 -2 l2 -383
-352 -2 c-194 -2 -647 -2 -1005 0 l-653 2 0 385 0 385 1003 -2 1002 -3 3 -382z
m-9200 -760 l-3 -308 -980 0 -980 0 -3 308 -2 307 985 0 985 0 -2 -307z m2652
-3 l0 -310 -1295 0 -1295 0 0 310 0 310 1295 0 1295 0 0 -310z m2760 0 l0
-310 -1347 2 -1348 3 -3 308 -2 307 1350 0 1350 0 0 -310z m3050 0 l0 -310
-1490 0 -1490 0 0 310 0 310 1490 0 1490 0 0 -310z m738 3 l-3 -308 -337 -3
-338 -2 0 310 0 310 340 0 340 0 -2 -307z m-10468 -698 l0 -325 -348 2 -347 3
-3 310 c-1 170 0 315 3 322 3 10 81 13 350 13 l345 0 0 -325z m2630 0 l0 -325
-1285 0 -1285 0 0 325 0 325 1285 0 1285 0 0 -325z m3128 -2 l2 -323 -1535 0
-1535 0 0 325 0 325 1533 -2 1532 -3 3 -322z m2862 2 l0 -325 -1400 0 -1400 0
0 325 0 325 1400 0 1400 0 0 -325z m1845 0 l0 -320 -892 -3 -893 -2 0 325 0
325 893 -2 892 -3 0 -320z m-9050 -780 l0 -390 -1055 0 -1055 0 -3 380 c-1
209 0 386 3 393 3 10 219 12 1057 10 l1053 -3 0 -390z m2815 0 l0 -395 -1372
2 -1373 3 -3 380 c-1 209 0 386 3 392 3 10 286 13 1375 13 l1370 0 0 -395z
m2840 0 l0 -395 -1387 2 -1388 3 -3 380 c-1 209 0 386 3 392 3 10 289 13 1390
13 l1385 0 0 -395z m3100 0 l0 -395 -1517 2 -1518 3 -3 380 c-1 209 0 386 3
392 3 10 315 13 1520 13 l1515 0 0 -395z m295 0 l0 -390 -115 0 -115 0 -3 380
c-1 209 0 386 3 393 3 9 33 12 117 10 l113 -3 0 -390z m-10615 -820 l0 -365
-272 2 -273 3 -3 363 -2 362 275 0 275 0 0 -365z m2620 0 l0 -365 -1275 0
-1275 0 0 365 0 365 1275 0 1275 0 0 -365z m3128 3 l-3 -363 -1530 0 -1530 0
-3 363 -2 362 1535 0 1535 0 -2 -362z m2772 -3 l0 -365 -1355 0 -1355 0 0 365
0 365 1355 0 1355 0 0 -365z m2098 3 l-3 -363 -1012 -3 -1013 -2 0 365 0 365
1015 0 1015 0 -2 -362z m-9288 -833 l0 -405 -940 0 -940 0 0 398 c0 219 3 402
7 405 3 4 426 7 940 7 l933 0 0 -405z m2710 0 l0 -405 -1322 2 -1323 3 -3 390
c-1 214 0 396 3 402 3 10 276 13 1325 13 l1320 0 0 -405z m2840 0 l0 -405
-1390 0 -1390 0 0 405 0 405 1390 0 1390 0 0 -405z m2970 0 l0 -405 -1455 0
-1455 0 0 405 0 405 1455 0 1455 0 0 -405z m768 -2 l2 -403 -355 0 -355 0 0
405 0 405 353 -2 352 -3 3 -402z m-10330 -770 l2 -303 -420 0 -420 0 0 298 c0
164 3 302 7 305 4 4 191 6 417 5 l411 -3 3 -302z m2582 2 l0 -305 -1260 0
-1260 0 0 298 c0 164 3 302 7 305 3 4 570 7 1260 7 l1253 0 0 -305z m3158 -2
l2 -303 -1545 0 -1545 0 0 305 0 305 1543 -2 1542 -3 3 -302z m2942 2 l0 -305
-1440 0 -1440 0 0 298 c0 164 3 302 7 305 3 4 651 7 1440 7 l1433 0 0 -305z
m1648 -2 l2 -303 -790 0 -790 0 0 305 0 305 788 -2 787 -3 3 -302z m-9000
-715 l-3 -343 -1080 0 -1080 0 -3 88 c-1 48 1 87 5 87 4 0 42 -9 83 -20 106
-29 258 -44 377 -37 129 7 283 35 290 53 2 7 11 10 18 8 19 -8 110 41 134 72
25 32 27 76 5 113 -20 33 -95 83 -129 85 -14 0 -25 4 -25 8 0 4 -35 15 -77 25
-116 27 -466 25 -573 -4 -41 -11 -82 -22 -90 -24 -13 -3 -15 15 -18 114 l-3
117 1086 0 1085 0 -2 -342z m2760 0 l-3 -343 -1347 -3 -1348 -2 0 345 0 345
1350 0 1350 0 -2 -342z m2832 -3 l0 -345 -1385 0 -1385 0 0 345 0 345 1385 0
1385 0 0 -345z m3100 0 l0 -345 -1515 0 -1515 0 0 345 0 345 1515 0 1515 0 0
-345z m306 173 c-4 -95 -5 -191 -4 -213 0 -22 2 -98 2 -170 l1 -130 -117 -3
-118 -3 0 346 0 345 121 0 121 0 -6 -172z m-10496 -92 c141 -32 224 -90 190
-131 -63 -76 -339 -126 -569 -105 -121 11 -215 31 -263 56 -25 13 -28 20 -28
69 0 34 5 59 15 69 13 12 126 43 225 60 62 11 358 -2 430 -18z m-20 -846 l0
-360 -325 0 -325 0 0 353 c0 195 3 357 7 360 3 4 150 7 325 7 l318 0 0 -360z
m2550 0 l0 -360 -1245 0 -1245 0 0 360 0 360 1245 0 1245 0 0 -360z m3030 0
l0 -360 -1485 0 -1485 0 0 360 0 360 1485 0 1485 0 0 -360z m2890 0 l0 -360
-1410 0 -1410 0 0 360 0 360 1410 0 1410 0 0 -360z m2048 -2 l2 -358 -990 0
-990 0 0 360 0 360 988 -2 987 -3 3 -357z m-9488 -808 l0 -380 -837 2 -838 3
-3 378 -2 377 840 0 840 0 0 -380z m2710 0 l0 -380 -1320 0 -1320 0 0 380 0
380 1320 0 1320 0 0 -380z m2918 3 l-3 -378 -1425 0 -1425 0 -3 378 -2 377
1430 0 1430 0 -2 -377z m3032 -3 l0 -380 -1482 2 -1483 3 -3 378 -2 377 1485
0 1485 0 0 -380z m828 3 l-3 -378 -380 0 -380 0 -3 378 -2 377 385 0 385 0 -2
-377z"/>
<path d="M803 8386 c-280 -47 -394 -173 -250 -277 163 -118 674 -132 885 -25
95 49 129 116 88 179 -24 36 -120 83 -217 108 -108 27 -383 35 -506 15z m467
-70 c41 -9 104 -31 140 -49 58 -29 65 -35 65 -62 0 -27 -7 -33 -65 -63 -92
-46 -197 -64 -375 -66 -179 -1 -236 5 -343 39 -79 25 -142 64 -142 89 0 47
148 109 290 123 36 3 67 8 70 10 10 11 288 -6 360 -21z"/>
<path d="M4415 7525 c-140 -26 -245 -72 -282 -125 -8 -12 -15 -38 -15 -58 0
-29 7 -43 39 -73 73 -67 216 -107 423 -116 335 -14 590 71 590 198 0 63 -102
130 -250 164 -104 24 -395 30 -505 10z m503 -74 c114 -29 192 -72 192 -107 0
-36 -112 -88 -245 -115 -103 -20 -359 -18 -465 4 -135 29 -220 74 -220 118 0
38 122 92 260 114 121 20 368 13 478 -14z"/>
<path d="M8738 6765 c-160 -27 -271 -81 -297 -143 -29 -70 30 -139 155 -180
119 -40 174 -47 369 -47 210 1 311 18 421 72 158 77 130 197 -61 263 -139 48
-413 64 -587 35z m387 -56 c121 -15 235 -52 275 -89 30 -28 31 -32 17 -53 -48
-72 -289 -125 -518 -113 -301 15 -478 104 -361 180 106 70 363 102 587 75z"/>
<path d="M1795 6099 c-201 -27 -339 -102 -339 -184 0 -71 75 -125 229 -167
113 -30 448 -33 573 -4 149 34 252 104 252 170 0 67 -111 140 -260 171 -90 19
-357 28 -455 14z m431 -74 c93 -19 198 -65 213 -93 24 -45 -58 -97 -206 -130
-112 -24 -398 -24 -506 2 -136 31 -207 70 -207 111 0 48 136 104 306 125 95
12 305 4 400 -15z"/>
<path d="M6175 5289 c-263 -40 -388 -157 -278 -260 74 -68 223 -108 438 -116
267 -10 500 49 556 141 39 64 13 119 -79 169 -90 49 -197 69 -397 72 -99 2
-207 0 -240 -6z m463 -73 c91 -20 163 -50 192 -81 21 -23 22 -26 7 -48 -82
-126 -619 -155 -844 -46 -109 53 -93 104 47 150 35 12 100 28 145 35 104 17
355 12 453 -10z"/>
<path d="M10310 4489 c-179 -17 -327 -69 -370 -129 -26 -37 -26 -90 1 -124 72
-92 368 -152 625 -128 247 24 404 96 404 186 0 103 -145 172 -411 196 -125 11
-127 11 -249 -1z m425 -88 c88 -24 168 -67 173 -94 12 -60 -153 -122 -357
-135 -246 -16 -471 23 -553 96 -57 49 40 113 225 148 112 21 409 12 512 -15z"/>
<path d="M3145 3630 c-169 -18 -320 -70 -365 -127 -27 -34 -26 -92 1 -127 114
-145 677 -178 927 -55 113 55 134 138 52 207 -89 76 -389 126 -615 102z m429
-89 c85 -23 160 -61 170 -86 17 -46 -69 -95 -220 -126 -85 -18 -124 -20 -279
-16 -194 5 -282 21 -365 68 -83 46 -80 76 12 122 101 51 208 67 418 63 149 -3
201 -8 264 -25z"/>
<path d="M7867 2900 c-155 -18 -297 -69 -342 -122 -32 -38 -33 -95 -4 -132 71
-90 362 -150 617 -126 199 18 322 58 380 124 113 129 -91 247 -448 260 -69 3
-160 1 -203 -4z m453 -89 c83 -25 154 -62 164 -86 10 -27 -11 -52 -66 -79
-103 -50 -174 -61 -398 -60 -222 0 -311 15 -403 66 -74 42 -75 73 -1 115 97
56 206 73 439 69 159 -3 202 -7 265 -25z"/>
<path d="M4720 1389 c-166 -18 -310 -72 -353 -131 -129 -174 340 -313 769
-228 157 31 264 100 264 170 0 45 -58 103 -134 133 -127 52 -368 76 -546 56z
m444 -88 c123 -33 185 -76 170 -116 -10 -25 -86 -64 -170 -86 -108 -29 -381
-38 -504 -16 -144 25 -250 75 -250 117 0 41 97 89 235 116 110 21 417 13 519
-15z"/>
<path d="M8728 530 c-145 -17 -277 -60 -332 -108 -32 -28 -47 -77 -35 -109 15
-40 37 -62 92 -90 247 -125 798 -94 926 53 83 94 -11 189 -232 235 -108 22
-310 31 -419 19z m287 -64 c103 -6 221 -36 281 -71 73 -43 67 -78 -20 -119
-91 -43 -169 -57 -346 -63 -126 -4 -187 -1 -257 11 -150 26 -253 73 -253 116
0 38 90 86 205 110 63 14 232 28 275 24 14 -2 66 -5 115 -8z"/>
</g>
</svg>
