<?xml version="1.0" standalone="no"?>
<!DOCTYPE svg PUBLIC "-//W3C//DTD SVG 20010904//EN"
 "http://www.w3.org/TR/2001/REC-SVG-20010904/DTD/svg10.dtd">
<svg version="1.0" xmlns="http://www.w3.org/2000/svg"
 width="1125.000000pt" height="899.000000pt" viewBox="0 0 1125.000000 899.000000"
 preserveAspectRatio="xMidYMid meet">
<metadata>
Created by potrace 1.13, written by Peter Selinger 2001-2015
</metadata>
<g transform="translate(0.000000,899.000000) scale(0.100000,-0.100000)"
fill="#000000" stroke="none">
<path d="M0 4495 l0 -4495 5625 0 5625 0 0 4495 0 4495 -5625 0 -5625 0 0
-4495z m11208 1523 l2 -2928 -59 -29 c-76 -39 -105 -74 -97 -120 7 -42 36 -75
104 -113 l52 -30 0 -919 c0 -505 -2 -919 -5 -919 -3 0 -38 9 -77 20 -177 49
-362 59 -444 25 -90 -37 -83 -137 16 -215 93 -74 223 -110 398 -110 l112 0 -2
-318 -3 -317 -2340 -3 -2340 -2 -110 21 c-147 28 -287 28 -376 0 l-67 -21
-2963 2 -2964 3 -3 321 -2 321 67 17 c73 18 103 38 103 71 0 26 -49 74 -115
112 l-50 29 -3 933 -2 933 27 -6 c16 -4 89 -10 163 -13 165 -7 274 11 369 59
139 71 143 166 9 234 -92 47 -167 58 -376 59 l-192 0 0 2911 c0 1601 3 2914 7
2917 3 4 2515 6 5582 5 l5576 -3 3 -2927z"/>
<path d="M1068 8600 c-191 -18 -318 -84 -318 -164 0 -25 50 -76 99 -100 97
-49 170 -60 386 -61 180 0 207 2 272 23 143 45 178 115 97 196 -90 89 -294
130 -536 106z"/>
<path d="M3662 8559 c-123 -14 -184 -34 -215 -71 -74 -88 -90 -168 -42 -218
109 -113 454 -117 783 -8 326 108 285 243 -88 293 -114 16 -321 17 -438 4z"/>
<path d="M9535 8239 c-122 -16 -205 -46 -248 -90 -33 -33 -38 -43 -32 -66 23
-94 204 -158 480 -169 167 -8 287 10 374 53 159 79 73 203 -179 259 -82 18
-303 26 -395 13z"/>
<path d="M6917 7430 c-218 -39 -317 -129 -241 -219 64 -77 194 -119 389 -128
212 -9 385 34 455 114 74 84 6 170 -175 219 -69 19 -351 28 -428 14z"/>
<path d="M1428 6860 c-134 -23 -218 -78 -218 -142 0 -56 36 -98 120 -141 95
-48 197 -67 355 -67 187 0 318 34 384 101 101 101 -16 215 -255 248 -86 12
-316 13 -386 1z"/>
<path d="M9824 6360 c-145 -25 -228 -55 -275 -99 -47 -45 -49 -69 -9 -114 56
-65 191 -110 383 -129 200 -20 374 14 442 88 34 37 34 95 0 140 -74 97 -329
151 -541 114z"/>
<path d="M3755 6183 c-112 -17 -213 -57 -239 -95 -79 -113 120 -240 399 -255
186 -10 324 26 402 103 37 37 43 49 43 85 0 36 -6 48 -40 80 -68 65 -141 82
-355 85 -99 1 -193 0 -210 -3z"/>
<path d="M6060 5795 c-8 -2 -49 -9 -90 -15 -248 -41 -316 -136 -150 -209 160
-70 530 -70 690 0 158 70 125 173 -68 215 -59 12 -332 18 -382 9z"/>
<path d="M6720 4689 c-30 -4 -111 -24 -180 -45 -69 -20 -150 -43 -179 -51
-108 -29 -181 -79 -181 -124 0 -51 97 -115 228 -151 133 -37 501 -23 577 20
44 26 45 77 5 181 -59 152 -122 192 -270 170z"/>
<path d="M2585 4654 c-11 -2 -45 -9 -75 -15 -105 -21 -190 -81 -190 -133 0
-45 68 -91 170 -117 82 -21 389 -18 505 5 187 36 268 102 202 164 -32 30 -107
61 -190 78 -70 14 -382 28 -422 18z"/>
<path d="M4483 4616 c-134 -31 -233 -95 -233 -151 0 -35 43 -79 99 -104 79
-33 172 -50 364 -63 324 -22 497 20 497 118 0 70 -103 142 -265 185 -105 28
-368 36 -462 15z"/>
<path d="M1005 4603 c-165 -13 -313 -52 -350 -93 -62 -69 93 -159 340 -197
187 -28 456 -1 591 61 87 40 85 73 -7 118 -64 32 -220 70 -374 93 -146 21
-153 21 -200 18z"/>
<path d="M10095 4596 c-169 -63 -40 -253 212 -312 54 -13 103 -15 238 -11 240
7 327 36 311 101 -14 57 -219 169 -376 206 -123 29 -326 37 -385 16z"/>
<path d="M8235 4569 c-94 -12 -164 -34 -206 -62 -27 -18 -35 -30 -37 -61 -3
-32 2 -42 32 -71 47 -44 126 -80 233 -107 115 -28 361 -31 466 -5 158 39 207
105 135 178 -97 96 -399 159 -623 128z"/>
<path d="M3555 3655 c-151 -27 -245 -95 -245 -177 0 -35 6 -47 38 -78 47 -44
106 -64 262 -86 154 -22 230 -16 306 25 77 40 192 145 211 190 13 31 13 36 -5
60 -10 14 -39 34 -64 43 -96 36 -366 48 -503 23z"/>
<path d="M7183 3185 c-135 -37 -243 -130 -243 -210 0 -70 80 -128 208 -151 93
-16 419 -19 507 -3 113 19 167 68 151 135 -19 77 -196 193 -347 229 -79 18
-207 18 -276 0z"/>
<path d="M525 1916 c-124 -20 -210 -52 -256 -95 -46 -45 -48 -63 -11 -101 56
-56 240 -86 455 -76 220 11 348 35 453 86 131 64 97 135 -83 176 -95 21 -450
28 -558 10z"/>
<path d="M2380 1923 c-260 -27 -360 -107 -264 -213 45 -50 169 -112 279 -141
222 -57 538 -22 637 71 53 51 48 96 -17 153 -35 30 -157 85 -249 111 -77 23
-105 26 -220 24 -72 0 -147 -3 -166 -5z"/>
<path d="M4091 1916 c-149 -29 -261 -91 -261 -145 0 -57 79 -111 199 -137 87
-18 299 -18 397 1 268 51 271 201 4 270 -88 23 -248 28 -339 11z"/>
<path d="M8068 1890 c-196 -36 -298 -103 -298 -198 0 -43 4 -50 53 -97 59 -56
153 -105 236 -125 198 -47 608 75 675 200 17 32 18 39 5 65 -42 88 -239 152
-489 160 -74 2 -156 0 -182 -5z"/>
<path d="M6210 1873 c-183 -24 -302 -93 -269 -155 17 -32 108 -67 220 -84 131
-20 476 -14 584 10 98 22 173 61 181 93 13 50 -28 81 -152 114 -67 18 -113 22
-304 24 -124 2 -241 1 -260 -2z"/>
<path d="M10006 1869 c-183 -19 -305 -56 -358 -106 -35 -33 -35 -53 -2 -93 64
-75 216 -119 439 -127 575 -20 689 264 130 327 -99 11 -97 11 -209 -1z"/>
<path d="M7295 1098 c-53 -10 -331 -89 -404 -115 -56 -20 -111 -68 -111 -98 0
-76 157 -155 350 -175 151 -15 436 16 471 51 24 24 24 71 0 140 -63 184 -134
230 -306 197z"/>
<path d="M3113 1055 c-112 -26 -193 -81 -193 -132 0 -38 57 -88 121 -107 195
-59 611 -31 731 49 96 64 33 139 -152 181 -94 22 -426 28 -507 9z"/>
<path d="M1565 1013 c-82 -7 -211 -35 -258 -55 -70 -30 -87 -76 -44 -115 97
-89 394 -148 623 -124 188 20 354 72 362 115 8 41 -67 82 -225 122 -100 25
-351 65 -393 62 -14 -1 -43 -3 -65 -5z"/>
<path d="M5288 975 c-119 -30 -168 -70 -168 -137 0 -50 55 -107 141 -148 200
-93 581 -76 689 31 81 82 -13 191 -210 244 -91 24 -373 30 -452 10z"/>
<path d="M8815 979 c-94 -14 -163 -37 -196 -67 -143 -127 225 -286 582 -252
191 18 289 64 289 136 0 92 -274 195 -510 193 -58 -1 -132 -5 -165 -10z"/>
</g>
</svg>
