<?xml version="1.0" standalone="no"?>
<!DOCTYPE svg PUBLIC "-//W3C//DTD SVG 20010904//EN"
 "http://www.w3.org/TR/2001/REC-SVG-20010904/DTD/svg10.dtd">
<svg version="1.0" xmlns="http://www.w3.org/2000/svg"
 width="1811.000000pt" height="1217.000000pt" viewBox="0 0 1811.000000 1217.000000"
 preserveAspectRatio="xMidYMid meet">
<metadata>
Created by potrace 1.13, written by Peter Selinger 2001-2015
</metadata>
<g transform="translate(0.000000,1217.000000) scale(0.100000,-0.100000)"
fill="#000000" stroke="none">
<path d="M134 11054 c-125 -191 -135 -210 -132 -248 l3 -41 136 208 c154 236
136 229 160 58 11 -78 15 -87 61 -143 28 -33 48 -61 46 -62 -1 -2 -94 -18
-205 -36 -198 -32 -203 -33 -203 -56 0 -13 6 -24 13 -24 8 0 109 16 226 35
116 19 213 35 216 35 2 0 9 9 15 21 10 18 4 30 -49 94 l-61 73 -20 137 c-11
75 -20 140 -20 146 0 5 -11 9 -25 9 -22 0 -44 -28 -161 -206z"/>
<path d="M9063 11008 c-91 -139 -168 -260 -170 -269 -2 -8 2 -21 10 -28 12 -9
65 -4 262 29 136 22 248 40 250 40 3 0 9 9 15 20 9 18 2 31 -49 94 l-61 74
-20 137 c-11 76 -23 141 -26 146 -3 5 -14 9 -25 9 -14 0 -62 -65 -186 -252z
m186 90 c7 -46 14 -98 18 -116 3 -18 28 -60 55 -94 27 -35 46 -64 41 -65 -13
-4 -383 -63 -393 -63 -7 0 259 419 266 420 1 0 7 -37 13 -82z"/>
<path d="M1845 11236 c-13 -9 -25 -54 -45 -162 -24 -127 -26 -151 -14 -163 12
-13 45 -8 246 33 127 26 236 50 240 52 4 3 8 14 8 25 0 15 -45 41 -209 123
-180 91 -211 103 -226 92z m335 -206 c0 -3 -79 -21 -175 -41 -96 -20 -175 -34
-175 -31 0 3 9 56 21 118 l21 113 154 -77 c85 -42 154 -79 154 -82z"/>
<path d="M10805 11236 c-13 -9 -25 -54 -45 -162 -24 -127 -26 -151 -14 -163
12 -13 45 -8 246 33 127 26 236 50 240 52 4 3 8 14 8 25 0 15 -45 41 -209 123
-180 91 -211 103 -226 92z m335 -206 c0 -3 -79 -21 -175 -41 -96 -20 -175 -34
-175 -31 0 3 9 56 21 118 l21 113 154 -77 c85 -42 154 -79 154 -82z"/>
<path d="M6687 11200 c-98 -4 -163 -12 -170 -19 -7 -7 -14 -71 -19 -169 -6
-140 -5 -159 10 -173 16 -15 33 -14 214 5 116 12 202 26 209 33 10 10 9 42 -5
150 -19 142 -34 184 -64 181 -9 0 -88 -4 -175 -8z m188 -168 c9 -63 15 -115
13 -117 -4 -4 -289 -35 -322 -35 -22 0 -22 2 -18 128 2 70 6 129 9 132 6 7
286 16 295 10 3 -3 14 -56 23 -118z"/>
<path d="M15646 11200 c-131 -6 -161 -10 -171 -24 -8 -10 -14 -74 -18 -169 -4
-132 -3 -154 12 -168 15 -15 32 -14 213 5 116 12 202 26 209 33 10 10 9 42 -5
150 -19 142 -34 184 -64 181 -9 0 -89 -4 -176 -8z m189 -168 c9 -63 15 -115
13 -117 -4 -4 -290 -35 -321 -35 -23 0 -23 0 -19 128 2 70 6 129 9 132 6 7
286 16 295 10 3 -3 14 -56 23 -118z"/>
<path d="M3963 11192 c-7 -4 -21 -77 -33 -171 -19 -150 -20 -166 -5 -180 15
-15 35 -9 238 60 292 100 291 92 32 210 -192 88 -210 95 -232 81z m169 -108
c68 -31 134 -60 148 -66 21 -8 22 -11 9 -18 -17 -10 -308 -110 -318 -110 -4 0
0 56 8 125 8 69 18 125 22 125 4 0 63 -25 131 -56z"/>
<path d="M7507 11131 c-25 -36 -81 -118 -126 -182 -71 -104 -79 -118 -67 -135
13 -17 20 -17 192 9 126 19 182 32 191 43 9 13 4 35 -24 112 -19 54 -44 122
-55 153 -15 45 -24 58 -43 61 -20 4 -31 -5 -68 -61z m114 -154 c21 -56 25 -79
16 -82 -24 -8 -236 -37 -245 -34 -5 2 31 62 81 134 l91 129 14 -34 c8 -19 27
-70 43 -113z"/>
<path d="M8151 11161 c-140 -31 -165 -40 -172 -58 -7 -18 18 -48 164 -200 161
-166 192 -191 214 -169 2 2 10 102 18 221 16 236 14 246 -34 244 -14 0 -100
-17 -190 -38z m186 -43 c-3 -18 -9 -98 -13 -178 l-7 -144 -133 137 c-74 75
-134 141 -134 145 0 7 239 66 284 71 4 1 6 -14 3 -31z"/>
<path d="M12922 11192 c-7 -5 -20 -71 -33 -171 -29 -226 -47 -216 234 -120
292 100 291 92 28 211 -107 48 -199 88 -205 88 -6 0 -17 -4 -24 -8z m169 -108
c68 -31 135 -60 149 -66 20 -7 22 -11 10 -18 -18 -9 -308 -110 -319 -110 -4 0
0 56 8 125 8 69 18 125 21 125 4 0 62 -25 131 -56z"/>
<path d="M16467 11131 c-25 -36 -81 -118 -126 -182 -71 -104 -79 -118 -67
-135 13 -17 20 -17 192 9 126 19 182 32 191 43 9 13 4 35 -24 112 -19 54 -44
122 -55 153 -15 45 -24 58 -43 61 -20 4 -31 -5 -68 -61z m113 -153 c21 -56 25
-80 17 -83 -24 -8 -236 -37 -245 -34 -5 2 31 62 81 134 l91 129 14 -34 c7 -18
26 -69 42 -112z"/>
<path d="M17111 11161 c-140 -32 -165 -40 -172 -58 -7 -19 17 -47 164 -200
161 -167 192 -191 214 -169 2 2 10 102 18 221 16 236 14 246 -34 244 -14 0
-100 -17 -190 -38z m186 -43 c-3 -18 -9 -98 -13 -177 l-7 -145 -133 137 c-74
75 -134 140 -134 145 0 6 236 66 284 71 4 1 6 -14 3 -31z"/>
<path d="M5555 11171 c-5 -17 133 -366 158 -398 5 -7 17 -13 26 -13 19 0 264
300 269 328 2 11 -3 23 -10 29 -13 10 -374 74 -415 73 -12 0 -24 -8 -28 -19z
m230 -62 c77 -12 144 -25 149 -29 4 -5 -36 -63 -89 -130 -54 -66 -101 -117
-106 -113 -4 4 -27 58 -52 118 -25 61 -53 127 -62 148 -15 37 -15 38 2 34 10
-3 81 -16 158 -28z"/>
<path d="M14515 11171 c-5 -17 133 -366 158 -398 5 -7 17 -13 26 -13 19 0 264
300 269 328 2 11 -3 23 -10 29 -13 10 -374 74 -415 73 -12 0 -24 -8 -28 -19z
m230 -62 c77 -12 144 -25 149 -29 4 -5 -36 -63 -89 -130 -54 -66 -101 -117
-105 -113 -4 4 -31 64 -60 133 -76 182 -73 172 -53 166 10 -2 81 -15 158 -27z"/>
<path d="M979 11156 c-100 -27 -109 -31 -109 -54 0 -27 377 -412 404 -412 29
0 216 251 209 281 -7 26 -349 209 -389 208 -16 0 -68 -11 -115 -23z m292 -112
l160 -86 -24 -32 c-13 -17 -47 -64 -76 -103 -29 -40 -56 -73 -61 -73 -11 0
-320 322 -321 335 0 9 106 42 144 44 10 1 90 -38 178 -85z"/>
<path d="M9939 11156 c-100 -27 -109 -31 -109 -55 0 -9 86 -106 191 -215 154
-158 196 -196 215 -194 31 4 214 251 207 279 -7 26 -349 209 -389 208 -16 0
-68 -11 -115 -23z m292 -112 l160 -86 -24 -32 c-13 -17 -47 -64 -76 -103 -29
-40 -56 -73 -61 -73 -13 0 -331 333 -324 339 7 7 123 39 147 40 10 1 90 -38
178 -85z"/>
<path d="M3128 11062 c-187 -92 -218 -110 -218 -129 0 -27 -12 -23 229 -63
101 -17 191 -28 201 -25 20 6 21 11 46 189 17 124 15 137 -26 135 -8 -1 -113
-49 -232 -107z m202 -62 c-7 -55 -15 -102 -19 -104 -5 -3 -268 38 -293 46 -5
2 64 40 154 85 89 44 165 79 167 77 2 -2 -1 -49 -9 -104z"/>
<path d="M12088 11062 c-188 -92 -218 -110 -218 -129 0 -27 -12 -23 229 -63
101 -17 191 -28 201 -25 20 6 21 11 46 189 17 124 15 137 -26 135 -8 -1 -113
-49 -232 -107z m202 -62 c-7 -55 -15 -102 -19 -104 -5 -3 -268 38 -293 46 -5
2 64 40 154 85 89 44 165 79 167 77 2 -2 -1 -49 -9 -104z"/>
<path d="M4839 11012 c-42 -81 -74 -154 -72 -163 4 -17 240 -109 279 -109 23
0 144 141 144 168 0 25 -230 252 -255 252 -16 0 -36 -32 -96 -148z m254 -161
c-26 -31 -48 -58 -50 -60 -3 -4 -205 69 -215 78 -3 3 21 57 54 119 l61 114 98
-98 98 -98 -46 -55z"/>
<path d="M13799 11012 c-42 -81 -74 -154 -72 -163 4 -17 240 -109 279 -109 23
0 144 142 144 169 0 24 -231 251 -255 251 -16 0 -36 -32 -96 -148z m253 -161
c-25 -31 -47 -58 -49 -60 -3 -4 -205 69 -215 78 -4 3 20 57 54 120 l61 113 98
-98 98 -97 -47 -56z"/>
<path d="M17978 10938 c-71 -107 -128 -200 -128 -205 0 -30 28 -33 141 -15
112 18 114 19 117 45 3 24 1 27 -20 23 -40 -9 -141 -26 -154 -26 -8 0 30 66
82 146 86 132 95 149 92 187 l-3 41 -127 -196z"/>
<path d="M2908 10738 c-31 -24 -186 -288 -181 -307 4 -14 38 -28 148 -60 79
-22 151 -41 159 -41 8 0 71 48 141 106 96 81 125 111 123 126 -2 16 -43 39
-183 104 -99 46 -183 83 -186 84 -3 0 -12 -6 -21 -12z m179 -114 c79 -37 143
-70 142 -73 0 -3 -45 -43 -100 -89 l-99 -83 -58 16 c-31 9 -87 25 -124 36
l-67 19 51 83 c90 145 98 157 105 157 4 0 71 -30 150 -66z"/>
<path d="M11868 10738 c-32 -25 -187 -286 -181 -306 4 -16 36 -29 155 -63 130
-37 153 -41 171 -29 12 7 72 56 135 108 84 70 112 100 110 115 -2 15 -46 40
-183 103 -99 46 -183 83 -186 84 -3 0 -12 -6 -21 -12z m178 -114 c79 -37 144
-70 143 -73 0 -6 -171 -150 -194 -163 -7 -4 -37 -1 -66 8 -30 8 -84 24 -121
35 l-68 20 52 82 c28 45 62 99 75 120 13 20 26 37 29 37 3 0 70 -30 150 -66z"/>
<path d="M5927 10632 c-16 -17 -14 -27 31 -163 61 -182 62 -182 170 -68 42 45
83 90 90 100 24 35 0 53 -135 100 -70 24 -130 45 -133 47 -4 1 -14 -6 -23 -16z
m148 -82 c39 -12 74 -26 80 -31 5 -6 -14 -32 -50 -69 -33 -33 -62 -56 -66 -52
-7 8 -59 162 -59 176 0 4 6 6 13 4 6 -3 44 -15 82 -28z"/>
<path d="M14886 10631 c-14 -16 -12 -29 33 -162 61 -182 60 -182 184 -50 48
51 87 96 87 100 0 23 -39 44 -157 84 -124 43 -132 45 -147 28z m149 -81 c39
-12 74 -26 79 -31 5 -4 -17 -35 -49 -69 -32 -33 -62 -57 -66 -53 -7 9 -59 163
-59 177 0 4 6 6 13 4 6 -3 44 -15 82 -28z"/>
<path d="M1965 10572 c-252 -63 -250 -53 -30 -227 90 -71 172 -132 181 -133 9
-2 21 1 27 7 17 17 67 373 55 389 -15 17 -21 16 -233 -36z m185 -24 c0 -7 -9
-69 -20 -138 -11 -69 -20 -128 -20 -133 0 -4 -60 41 -134 100 -74 59 -133 109
-131 111 5 5 267 70 288 71 9 1 17 -5 17 -11z"/>
<path d="M10925 10572 c-251 -63 -250 -53 -31 -227 89 -71 171 -132 180 -133
10 -2 23 1 29 7 16 16 67 374 55 389 -15 17 -21 16 -233 -36z m185 -21 c0 -4
-9 -66 -20 -137 -11 -71 -20 -132 -20 -137 0 -4 -60 41 -134 100 -74 59 -133
109 -131 111 5 5 267 70 288 71 9 1 17 -3 17 -8z"/>
<path d="M530 10564 c-91 -13 -168 -23 -172 -24 -4 0 -12 -9 -18 -19 -9 -18 7
-37 127 -154 216 -210 229 -220 250 -208 16 8 24 41 46 206 21 151 25 201 16
211 -15 18 -51 17 -249 -12z m194 -116 c-7 -51 -16 -119 -20 -151 -4 -31 -10
-60 -15 -63 -4 -2 -70 56 -146 129 l-137 134 144 20 c80 11 154 21 166 22 21
1 21 0 8 -91z"/>
<path d="M7372 10467 c-205 -112 -223 -124 -220 -147 3 -25 5 -25 218 -52 118
-15 223 -25 232 -22 23 7 26 22 33 186 5 129 4 138 -14 148 -11 5 -21 10 -23
10 -2 -1 -103 -56 -226 -123z m211 -49 c-2 -57 -6 -108 -8 -114 -3 -11 -325
24 -325 35 0 6 320 180 332 181 3 0 4 -46 1 -102z"/>
<path d="M9560 10574 c-52 -7 -132 -18 -177 -25 -122 -16 -121 -22 50 -188
211 -204 223 -214 244 -202 16 8 23 42 46 207 20 148 24 200 16 210 -14 17
-53 16 -179 -2z m116 -183 c-12 -82 -24 -153 -28 -156 -3 -4 -68 54 -144 128
l-138 134 144 20 c80 11 154 21 166 22 l20 1 -20 -149z"/>
<path d="M16332 10467 c-205 -112 -223 -124 -220 -147 3 -25 5 -25 218 -52
118 -15 223 -25 232 -22 23 7 26 22 32 186 5 128 5 138 -13 148 -11 5 -21 10
-23 10 -2 -1 -103 -56 -226 -123z m211 -49 c-3 -57 -6 -108 -8 -114 -3 -11
-325 24 -325 35 0 6 320 180 331 181 3 0 4 -46 2 -102z"/>
<path d="M6502 10467 c-69 -69 -112 -120 -112 -133 0 -29 236 -167 262 -153
30 16 206 288 201 309 -4 14 -34 29 -112 55 -58 19 -111 35 -116 35 -6 0 -61
-51 -123 -113z m288 1 c0 -8 -132 -212 -150 -231 -5 -6 -149 70 -189 100 -3 2
37 46 88 97 l93 94 79 -26 c43 -15 79 -30 79 -34z"/>
<path d="M15462 10467 c-68 -69 -112 -120 -112 -132 0 -16 29 -38 116 -88 69
-41 124 -67 137 -65 28 4 216 283 209 310 -3 12 -37 28 -111 53 -58 19 -111
35 -116 35 -6 0 -61 -51 -123 -113z m287 7 c3 -3 -131 -216 -149 -237 -5 -6
-162 77 -189 100 -3 2 37 46 88 97 l93 94 77 -26 c42 -13 78 -26 80 -28z"/>
<path d="M4843 10551 c-10 -17 -4 -39 46 -148 l58 -128 124 2 c68 1 133 4 144
7 12 3 44 46 83 110 53 89 61 109 52 126 -6 11 -15 20 -21 20 -24 0 -360 20
-414 25 -52 4 -62 2 -72 -14z m310 -50 c70 -4 130 -10 133 -13 3 -3 -16 -40
-41 -81 l-45 -75 -106 -7 c-58 -4 -109 -4 -114 1 -8 9 -80 170 -80 179 0 7
107 5 253 -4z"/>
<path d="M13803 10551 c-11 -18 -5 -38 45 -148 l58 -128 124 2 c69 1 134 5
145 7 12 4 43 46 80 108 73 124 68 111 53 131 -11 14 -44 18 -198 27 -102 5
-210 12 -240 15 -47 5 -57 3 -67 -14z m310 -50 c70 -4 130 -10 133 -13 3 -3
-15 -39 -40 -80 l-46 -75 -76 -7 c-149 -12 -139 -16 -178 69 -56 122 -57 115
16 115 35 -1 120 -5 191 -9z"/>
<path d="M8445 10466 c-215 -118 -213 -112 -79 -224 54 -45 105 -82 113 -82 9
0 73 12 143 26 102 22 129 31 134 46 6 21 -83 309 -100 320 -21 14 -42 6 -211
-86z m219 -76 c20 -60 36 -116 36 -123 0 -9 -35 -21 -106 -36 -121 -25 -109
-29 -208 61 l-58 53 143 77 c79 43 147 78 151 78 4 0 23 -49 42 -110z"/>
<path d="M17405 10466 c-141 -77 -171 -97 -173 -117 -2 -20 15 -40 93 -107 53
-45 104 -82 113 -82 10 0 74 12 144 26 100 21 129 31 133 45 7 22 -82 311 -99
321 -21 14 -42 6 -211 -86z m219 -76 c20 -60 36 -116 36 -123 0 -9 -35 -21
-110 -36 l-109 -23 -75 63 c-41 35 -75 66 -75 69 -1 6 279 159 291 160 4 0 23
-49 42 -110z"/>
<path d="M4274 10486 c-175 -61 -174 -61 -174 -87 0 -24 149 -226 173 -234 11
-4 92 25 213 77 242 103 240 96 74 215 -63 45 -119 82 -125 82 -5 0 -78 -24
-161 -53z m254 -69 c46 -33 80 -63 75 -67 -4 -4 -77 -37 -161 -73 l-153 -65
-65 86 c-35 47 -61 89 -56 94 13 13 256 94 267 89 6 -3 48 -32 93 -64z"/>
<path d="M13234 10486 c-175 -61 -174 -61 -174 -87 0 -24 149 -226 173 -234
11 -4 92 25 213 77 242 103 240 96 74 215 -63 45 -119 82 -125 82 -5 0 -78
-24 -161 -53z m254 -69 c46 -33 80 -63 75 -67 -4 -4 -77 -37 -161 -73 l-153
-65 -65 86 c-35 47 -61 89 -56 94 13 13 256 94 267 89 6 -3 48 -32 93 -64z"/>
<path d="M3600 10346 c-141 -11 -160 -17 -160 -43 0 -21 241 -343 257 -343 24
0 39 31 97 198 67 196 66 203 -13 201 -25 -1 -107 -7 -181 -13z m190 -40 c0
-5 -91 -270 -94 -273 -1 -1 -44 54 -95 123 -52 68 -92 127 -89 129 2 2 53 8
114 13 139 12 164 13 164 8z"/>
<path d="M12560 10346 c-141 -11 -160 -17 -160 -43 0 -19 240 -343 255 -343
25 1 39 27 96 193 51 146 59 179 49 192 -14 17 -40 17 -240 1z m190 -40 c0 -5
-91 -270 -94 -273 -1 -1 -44 54 -95 123 -52 68 -92 127 -89 129 2 2 53 8 114
13 142 12 164 13 164 8z"/>
<path d="M1102 10195 c-112 -197 -121 -185 148 -185 l210 0 6 25 c5 20 -13 46
-116 165 -87 101 -127 140 -143 140 -18 0 -38 -28 -105 -145z m208 -27 l88
-103 -150 -3 c-83 -1 -153 0 -155 2 -3 3 19 47 48 98 58 103 70 121 76 114 3
-2 44 -51 93 -108z"/>
<path d="M10062 10195 c-112 -197 -121 -185 148 -185 200 0 209 1 215 20 8 26
10 23 -123 178 -81 94 -120 132 -135 132 -18 0 -39 -29 -105 -145z m208 -27
l88 -103 -150 -3 c-83 -1 -153 0 -155 2 -3 3 19 47 48 98 58 103 70 121 76
114 3 -2 44 -51 93 -108z"/>
<path d="M5785 10314 c-5 -1 -96 -17 -202 -35 -170 -28 -192 -34 -197 -52 -4
-16 18 -50 86 -134 50 -62 99 -113 108 -113 26 0 253 105 263 122 15 24 -11
192 -32 205 -9 5 -20 9 -26 7z m-1 -71 c2 -10 7 -40 11 -68 l5 -50 -106 -48
c-59 -26 -108 -46 -109 -45 0 2 -32 40 -69 86 -38 46 -67 84 -65 86 5 5 278
54 306 55 13 1 24 -6 27 -16z"/>
<path d="M14745 10314 c-5 -1 -96 -17 -202 -35 -170 -28 -192 -34 -197 -52 -4
-16 18 -50 86 -134 50 -62 99 -113 108 -113 21 0 241 97 259 115 12 11 12 28
1 107 -12 92 -26 120 -55 112z m-2 -76 c3 -13 8 -43 12 -68 l6 -45 -107 -48
c-59 -26 -108 -46 -109 -45 -1 2 -32 40 -70 86 -37 46 -66 84 -64 86 5 5 278
54 305 55 15 1 24 -6 27 -21z"/>
<path d="M7817 10093 c-258 -99 -257 -91 -18 -220 141 -76 179 -93 195 -85 19
8 23 28 41 181 19 158 19 173 5 186 -9 8 -18 15 -21 14 -2 0 -93 -35 -202 -76z
m168 -119 c-9 -71 -17 -129 -18 -131 -4 -4 -267 140 -267 146 0 7 293 119 298
115 2 -1 -4 -60 -13 -130z"/>
<path d="M16777 10093 c-258 -99 -257 -91 -18 -220 143 -77 179 -93 196 -85
18 9 23 27 40 177 18 163 16 194 -11 201 -5 2 -98 -31 -207 -73z m168 -119
c-9 -70 -17 -129 -18 -130 -4 -5 -267 139 -267 145 0 6 292 119 298 115 2 -1
-4 -59 -13 -130z"/>
<path d="M268 10072 c-82 -31 -150 -63 -153 -72 -4 -8 -9 -67 -12 -130 -5 -92
-3 -118 8 -127 19 -15 368 52 385 74 10 14 -8 129 -41 270 -11 45 -32 44 -187
-15z m161 -109 c11 -59 18 -110 13 -114 -4 -4 -61 -17 -127 -29 -66 -12 -130
-24 -142 -27 -22 -5 -23 -2 -23 45 0 27 3 70 6 95 l6 45 117 45 c64 25 119 45
122 46 3 1 16 -47 28 -106z"/>
<path d="M9228 10072 c-82 -31 -150 -63 -154 -72 -3 -8 -8 -67 -11 -130 -5
-91 -3 -118 8 -127 11 -8 59 -2 197 25 210 41 203 36 182 145 -28 147 -42 197
-58 206 -12 6 -61 -8 -164 -47z m161 -109 c11 -59 18 -110 13 -114 -4 -4 -61
-17 -127 -29 -66 -12 -130 -24 -142 -27 -22 -5 -23 -2 -23 53 0 33 3 75 6 96
6 36 7 37 123 81 64 25 119 45 122 46 3 1 16 -47 28 -106z"/>
<path d="M2427 10080 c-109 -10 -205 -21 -213 -24 -34 -13 -11 -47 100 -145
63 -56 123 -101 133 -101 10 0 78 57 151 126 115 109 131 128 122 145 -13 23
-22 23 -293 -1z m113 -129 l-94 -89 -81 71 c-44 38 -81 73 -83 77 -3 8 190 26
293 28 l60 1 -95 -88z"/>
<path d="M11387 10080 c-109 -10 -205 -21 -213 -24 -34 -13 -11 -47 100 -145
62 -56 122 -101 132 -101 11 0 79 57 151 126 116 109 132 128 123 145 -13 23
-22 23 -293 -1z m203 -44 c0 -2 -42 -42 -93 -89 l-93 -85 -79 71 c-44 38 -81
73 -83 77 -2 4 50 12 115 17 132 11 233 15 233 9z"/>
<path d="M18068 10027 c-15 -6 -30 -18 -34 -26 -3 -9 -9 -68 -11 -131 -6 -129
-1 -141 55 -133 27 5 32 9 32 33 0 24 -3 27 -21 23 -22 -6 -22 -4 -17 87 4 71
9 95 22 102 9 5 16 20 16 33 0 27 -2 28 -42 12z"/>
<path d="M1674 10022 c-17 -11 -114 -186 -114 -206 0 -19 182 -231 206 -240
14 -5 276 88 302 107 7 6 12 18 10 28 -3 19 -363 319 -382 319 -6 0 -16 -4
-22 -8z m182 -178 c85 -69 154 -128 154 -129 0 -5 -210 -85 -223 -85 -7 0 -50
43 -95 95 l-83 94 43 76 c24 41 44 75 46 75 2 0 73 -57 158 -126z"/>
<path d="M10634 10022 c-17 -11 -114 -186 -114 -206 0 -19 182 -231 206 -240
14 -5 276 88 302 107 7 6 12 19 10 29 -3 18 -363 318 -382 318 -6 0 -16 -4
-22 -8z m182 -178 c85 -70 153 -128 151 -131 -8 -7 -209 -83 -221 -83 -6 0
-49 43 -94 95 l-83 94 43 76 c24 41 44 75 46 75 2 0 73 -57 158 -126z"/>
<path d="M3950 9874 c-185 -169 -193 -178 -186 -201 5 -17 21 -21 114 -31 169
-19 165 -19 272 51 52 34 96 70 98 79 2 10 -23 55 -55 100 -65 94 -88 118
-105 117 -7 0 -69 -52 -138 -115z m194 -18 c25 -36 46 -68 45 -73 0 -4 -34
-30 -77 -57 l-76 -48 -93 7 c-51 4 -95 10 -97 14 -6 9 236 231 246 225 3 -2
27 -33 52 -68z"/>
<path d="M12910 9874 c-185 -169 -193 -178 -186 -201 5 -17 21 -21 114 -31
169 -19 165 -19 272 51 52 34 96 70 98 80 2 9 -23 54 -55 99 -65 94 -88 118
-105 117 -7 0 -69 -52 -138 -115z m194 -18 c25 -36 46 -68 45 -73 0 -4 -34
-30 -77 -57 l-76 -48 -93 7 c-51 4 -95 10 -97 14 -6 9 236 231 246 225 3 -2
27 -33 52 -68z"/>
<path d="M2855 9830 c-66 -70 -122 -138 -123 -150 -3 -16 10 -37 44 -71 57
-57 46 -56 279 -33 181 18 208 25 203 54 -2 11 -57 90 -123 175 -85 109 -126
154 -140 154 -12 0 -65 -49 -140 -129z m240 -56 c53 -69 95 -127 93 -129 -2
-2 -79 -12 -171 -21 l-168 -18 -35 35 -35 35 106 112 c59 62 108 112 110 112
1 0 46 -56 100 -126z"/>
<path d="M11813 9828 c-79 -84 -123 -138 -123 -152 0 -13 20 -41 48 -69 41
-40 53 -47 87 -47 82 1 376 37 386 47 6 6 9 18 7 27 -1 9 -57 86 -123 171 -84
108 -126 154 -140 154 -13 0 -65 -48 -142 -131z m252 -66 c48 -62 86 -115 83
-117 -2 -2 -79 -12 -171 -21 l-168 -18 -35 36 -36 35 108 112 c86 90 110 109
119 99 7 -7 51 -64 100 -126z"/>
<path d="M4977 9798 c-170 -180 -177 -171 130 -187 197 -11 237 -11 244 0 5 8
8 19 6 26 -1 6 -50 75 -110 152 -71 93 -114 141 -126 141 -11 0 -70 -54 -144
-132z m231 -39 l84 -110 -109 7 c-59 3 -140 9 -180 13 l-72 6 91 98 c49 53 93
97 96 97 4 -1 45 -50 90 -111z"/>
<path d="M6020 9884 c-96 -24 -185 -46 -197 -49 -51 -12 -39 -39 79 -180 90
-107 118 -134 136 -132 19 2 40 34 121 187 101 192 109 221 58 219 -12 -1
-101 -21 -197 -45z m160 -20 c0 -13 -142 -274 -149 -274 -9 0 -164 183 -165
196 -1 4 67 25 149 46 165 40 165 41 165 32z"/>
<path d="M13937 9798 c-169 -179 -174 -170 111 -186 274 -15 259 -16 267 8 8
26 -207 310 -235 310 -11 0 -70 -55 -143 -132z m227 -34 c43 -57 77 -107 74
-109 -4 -4 -321 13 -340 18 -9 2 170 197 180 197 4 -1 43 -48 86 -106z"/>
<path d="M14985 9886 c-93 -24 -182 -46 -197 -49 -56 -14 -46 -38 73 -179 86
-102 118 -133 136 -133 20 0 37 24 121 185 79 149 96 188 88 203 -14 23 -23
22 -221 -27z m155 -22 c0 -13 -142 -274 -149 -274 -9 0 -164 183 -165 196 -1
4 67 25 149 46 165 40 165 41 165 32z"/>
<path d="M6612 9903 c-9 -16 6 -45 100 -186 85 -128 116 -167 132 -167 16 0
42 33 111 141 50 78 94 148 98 155 5 8 0 21 -11 32 -15 15 -41 20 -143 26 -68
3 -158 9 -200 13 -70 5 -78 4 -87 -14z m261 -49 c64 -3 117 -8 117 -11 0 -3
-137 -222 -145 -231 -1 -1 -41 57 -89 129 l-88 132 44 -6 c23 -3 96 -9 161
-13z"/>
<path d="M15572 9903 c-9 -16 6 -45 100 -186 85 -128 116 -167 132 -167 16 0
42 33 111 141 50 78 94 148 98 155 5 8 0 21 -11 32 -15 15 -41 20 -143 26 -68
3 -158 9 -200 13 -70 5 -78 4 -87 -14z m261 -49 c64 -3 117 -8 117 -10 0 -3
-136 -219 -145 -232 -1 -1 -41 57 -89 129 l-88 132 44 -6 c23 -3 96 -9 161
-13z"/>
<path d="M7306 9774 c-54 -75 -100 -142 -102 -148 -3 -7 1 -19 8 -28 11 -13
46 -17 200 -22 l187 -7 6 23 c4 17 -15 62 -73 168 -106 193 -98 192 -226 14z
m198 -67 l47 -88 -138 7 c-76 4 -139 8 -140 9 -2 1 31 50 73 109 l76 107 17
-28 c10 -15 39 -68 65 -116z"/>
<path d="M16266 9774 c-54 -75 -100 -142 -102 -148 -3 -7 1 -19 8 -28 11 -13
46 -17 200 -22 l187 -7 6 23 c4 17 -15 62 -73 168 -106 193 -98 192 -226 14z
m198 -67 l47 -88 -138 7 c-76 4 -139 8 -140 9 -2 1 31 50 73 109 l76 107 17
-28 c10 -15 39 -68 65 -116z"/>
<path d="M8386 9784 c-124 -163 -131 -155 155 -178 123 -10 232 -19 243 -20
10 0 22 8 26 20 8 19 -10 39 -141 158 -98 89 -157 136 -172 136 -16 0 -45 -30
-111 -116z m230 -40 c58 -53 103 -98 101 -100 -4 -5 -339 25 -345 30 -6 7 120
166 131 166 5 0 56 -43 113 -96z"/>
<path d="M17348 9785 c-89 -115 -98 -135 -75 -152 6 -6 109 -18 227 -27 118
-9 224 -19 236 -21 15 -3 24 2 32 19 10 22 1 32 -140 160 -95 86 -158 136
-172 136 -15 0 -45 -32 -108 -115z m228 -41 c58 -53 103 -98 101 -100 -4 -5
-339 25 -345 30 -6 7 120 166 131 166 5 0 56 -43 113 -96z"/>
<path d="M735 9704 c-184 -153 -188 -163 -86 -193 39 -12 103 -30 142 -42 82
-24 119 -20 120 14 0 12 6 90 13 172 13 153 10 176 -23 174 -9 0 -83 -56 -166
-125z m140 -41 c-3 -49 -8 -104 -11 -124 l-5 -36 -105 30 c-58 17 -101 34 -97
38 29 29 210 178 216 178 5 1 6 -38 2 -86z"/>
<path d="M9695 9704 c-184 -153 -189 -163 -86 -193 39 -12 103 -30 142 -42 86
-25 119 -20 120 19 0 15 6 92 13 172 13 148 10 171 -23 169 -9 0 -83 -56 -166
-125z m141 -31 c-4 -43 -9 -99 -12 -124 l-5 -46 -105 30 c-58 17 -101 34 -97
38 30 30 210 178 217 178 4 1 5 -34 2 -76z"/>
<path d="M5989 8244 c-53 -73 -75 -112 -72 -125 8 -28 132 -131 150 -125 8 3
59 38 114 78 74 54 99 78 99 94 0 29 -165 184 -195 184 -14 -1 -43 -33 -96
-106z m169 -10 c34 -31 62 -59 62 -64 0 -8 -134 -109 -154 -115 -6 -3 -31 13
-55 34 l-44 39 59 81 c32 45 61 81 64 81 3 0 33 -25 68 -56z"/>
<path d="M14970 8273 c-30 -42 -66 -91 -78 -109 -19 -26 -22 -36 -13 -52 17
-32 132 -124 148 -117 8 3 59 38 114 78 72 53 99 78 99 94 0 27 -166 183 -195
183 -13 0 -38 -25 -75 -77z m148 -39 c35 -31 62 -60 60 -65 -3 -9 -149 -119
-157 -119 -3 0 -26 18 -50 39 l-44 38 58 81 c32 45 61 82 64 82 3 0 34 -25 69
-56z"/>
<path d="M2133 8333 c-98 -6 -98 -14 8 -186 72 -117 95 -147 112 -147 31 1
219 296 205 323 -8 15 -24 17 -136 15 -70 -1 -155 -3 -189 -5z m196 -153 c-39
-60 -74 -110 -78 -110 -3 0 -34 46 -68 103 l-62 102 42 6 c23 3 86 7 139 7
l97 2 -70 -110z"/>
<path d="M5263 8324 c-11 -29 6 -337 20 -351 6 -7 56 -22 110 -34 84 -18 101
-19 112 -8 7 8 50 84 94 170 68 131 79 158 68 172 -9 12 -57 23 -180 42 -197
29 -216 30 -224 9z m220 -60 c70 -9 127 -21 127 -27 0 -5 -30 -65 -66 -133
-73 -138 -67 -134 -169 -111 l-50 12 -7 55 c-3 30 -6 95 -7 144 -1 87 -1 88
22 83 12 -3 79 -13 150 -23z"/>
<path d="M11093 8333 c-99 -6 -99 -14 8 -187 72 -116 95 -146 112 -146 31 1
219 296 205 323 -8 15 -24 17 -136 15 -70 -1 -155 -3 -189 -5z m257 -50 c0
-11 -131 -213 -138 -213 -4 0 -35 47 -70 103 l-62 102 42 6 c61 9 228 10 228
2z"/>
<path d="M14223 8324 c-11 -30 6 -337 19 -350 20 -20 196 -56 216 -45 9 5 54
81 99 169 70 133 81 161 70 175 -9 12 -58 23 -180 42 -197 29 -216 30 -224 9z
m220 -60 c70 -9 127 -21 127 -26 0 -5 -30 -65 -66 -134 -73 -138 -67 -134
-169 -110 l-50 11 -7 50 c-3 28 -7 92 -7 144 -1 92 -1 93 22 88 12 -3 79 -13
150 -23z"/>
<path d="M3019 8298 c-14 -27 138 -328 166 -328 13 0 73 53 164 144 171 171
174 181 58 190 -40 3 -141 7 -225 9 -138 3 -154 1 -163 -15z m385 -46 c3 -5
-44 -57 -104 -117 l-108 -108 -56 111 c-31 62 -56 114 -56 117 0 9 318 6 324
-3z"/>
<path d="M11979 8298 c-14 -27 138 -328 166 -328 13 0 73 53 164 144 171 171
174 181 58 190 -40 3 -141 7 -225 9 -138 3 -154 1 -163 -15z m385 -46 c3 -5
-44 -57 -104 -117 l-108 -108 -56 111 c-31 62 -56 114 -56 117 0 9 318 6 324
-3z"/>
<path d="M891 8237 c-138 -55 -186 -78 -192 -94 -6 -17 13 -42 114 -148 109
-114 125 -127 142 -117 14 7 43 72 93 207 60 158 71 199 62 210 -7 8 -18 15
-24 15 -6 0 -94 -33 -195 -73z m157 -9 c-75 -202 -103 -275 -108 -281 -8 -9
-173 165 -172 179 1 9 246 111 271 113 7 1 11 -5 9 -11z"/>
<path d="M9846 8236 c-135 -54 -181 -77 -187 -93 -6 -18 11 -41 115 -149 104
-109 124 -126 140 -117 12 6 46 82 93 207 61 159 73 199 63 211 -7 8 -20 15
-29 14 -9 -1 -97 -33 -195 -73z m164 0 c0 -7 -99 -267 -108 -282 -7 -13 -27 4
-95 77 -48 51 -84 95 -81 98 7 8 256 109 272 110 6 1 12 -1 12 -3z"/>
<path d="M4123 8254 c-9 -25 7 -307 19 -322 14 -16 215 -6 237 12 8 6 49 64
93 129 82 123 90 152 45 161 -36 8 -320 36 -355 36 -21 0 -35 -6 -39 -16z
m215 -50 c75 -9 139 -18 141 -20 2 -2 -26 -48 -62 -102 l-66 -99 -82 -6 c-46
-4 -84 -5 -85 -4 -2 2 -6 58 -10 125 -6 111 -5 122 10 122 9 0 79 -7 154 -16z"/>
<path d="M13083 8254 c-11 -30 7 -308 21 -322 10 -10 37 -12 122 -5 l109 8 88
130 c48 71 87 132 87 135 -1 27 -29 34 -182 51 -206 23 -237 24 -245 3z m210
-50 c78 -8 143 -17 145 -19 2 -2 -26 -48 -63 -103 l-66 -99 -81 -6 c-45 -4
-83 -5 -85 -4 -2 2 -6 58 -10 125 -4 92 -3 122 6 122 6 0 76 -7 154 -16z"/>
<path d="M8075 8116 c-142 -64 -181 -86 -183 -102 -3 -23 106 -222 130 -237
17 -11 303 75 327 98 11 11 9 35 -14 157 -28 148 -36 169 -64 167 -9 0 -97
-38 -196 -83z m211 -95 c17 -89 19 -114 8 -118 -7 -2 -66 -22 -131 -43 l-118
-39 -22 37 c-46 75 -78 145 -68 149 6 2 73 33 150 68 77 35 145 62 150 61 6
-2 19 -53 31 -115z"/>
<path d="M17045 8122 c-202 -91 -195 -87 -194 -115 0 -27 108 -216 130 -230
11 -7 56 3 165 37 82 26 155 54 162 61 12 11 10 36 -13 156 -29 149 -36 170
-64 168 -9 0 -92 -35 -186 -77z m201 -101 c19 -101 20 -113 5 -119 -8 -3 -67
-22 -131 -43 l-115 -37 -22 37 c-45 72 -78 144 -68 148 6 2 73 33 150 68 77
35 145 62 150 61 6 -2 19 -53 31 -115z"/>
<path d="M110 8174 c-8 -1 -36 -6 -62 -9 -42 -5 -48 -9 -48 -30 0 -24 1 -25
60 -18 l60 6 0 -103 0 -102 -60 7 c-60 7 -60 7 -60 -19 0 -18 6 -26 18 -27 9
0 41 -4 70 -8 77 -11 82 -3 82 151 0 108 -2 127 -18 141 -10 10 -20 16 -23 16
-2 -1 -11 -3 -19 -5z"/>
<path d="M8928 8156 c-104 -14 -162 -26 -172 -36 -11 -12 -12 -33 -7 -103 5
-48 13 -93 20 -100 7 -7 84 -21 172 -33 200 -25 189 -34 189 138 0 108 -2 127
-18 141 -10 10 -20 16 -23 16 -2 -1 -75 -11 -161 -23z m152 -137 l0 -101 -62
7 c-35 4 -97 12 -138 19 l-75 11 -5 68 c-4 55 -2 67 10 68 8 0 56 7 105 14 50
7 107 13 128 14 l37 1 0 -101z"/>
<path d="M17889 8156 c-86 -11 -163 -27 -172 -34 -12 -10 -14 -29 -10 -95 8
-122 2 -118 192 -142 203 -27 191 -35 191 137 0 108 -2 127 -18 141 -10 10
-20 16 -23 16 -2 -1 -74 -11 -160 -23z m151 -136 c0 -75 -3 -100 -13 -100 -35
0 -253 32 -259 38 -3 4 -8 35 -10 70 -2 50 0 62 12 63 8 0 56 7 105 14 50 7
107 13 128 14 l37 1 0 -100z"/>
<path d="M6830 8017 c-170 -59 -190 -69 -190 -94 0 -7 50 -68 111 -137 94
-106 114 -124 132 -117 15 6 36 51 89 191 65 175 67 185 51 201 -17 16 -28 14
-193 -44z m135 -27 c-30 -96 -92 -248 -100 -246 -5 0 -45 40 -87 87 l-78 87
72 26 c120 43 183 64 191 65 5 1 5 -8 2 -19z"/>
<path d="M15787 8017 c-147 -51 -179 -66 -183 -84 -5 -17 18 -48 106 -147 95
-106 115 -124 132 -117 16 6 37 51 89 192 92 246 98 239 -144 156z m138 -26
c-29 -92 -94 -252 -101 -249 -5 2 -44 42 -86 89 l-78 87 72 26 c120 43 183 64
191 65 5 1 6 -8 2 -18z"/>
<path d="M1672 7865 c-142 -106 -182 -140 -182 -158 0 -18 21 -34 113 -84
l113 -63 136 0 c108 0 138 3 148 15 12 14 -2 74 -90 388 -9 29 -16 37 -33 37
-13 0 -98 -56 -205 -135z m236 -83 c23 -86 42 -160 42 -164 0 -5 -50 -8 -111
-8 -120 0 -117 -1 -257 82 l-33 20 153 114 c84 62 155 113 158 114 3 0 24 -71
48 -158z"/>
<path d="M10632 7865 c-143 -106 -182 -140 -182 -157 0 -19 21 -35 113 -85
l113 -63 136 0 c109 0 138 3 148 15 10 12 3 50 -40 208 -29 105 -57 198 -63
205 -5 6 -17 12 -26 12 -9 0 -99 -61 -199 -135z m236 -83 c23 -86 42 -160 42
-164 0 -5 -50 -8 -111 -8 -120 0 -117 -1 -257 83 l-33 19 153 114 c84 62 155
113 158 114 3 0 24 -71 48 -158z"/>
<path d="M2560 7676 c-98 -130 -130 -179 -126 -194 6 -17 20 -19 158 -25 262
-12 306 -10 313 12 4 13 -24 80 -85 200 -69 139 -94 181 -109 181 -13 0 -62
-56 -151 -174z m220 -36 l70 -140 -92 1 c-51 1 -130 4 -175 7 l-83 7 101 133
c56 72 103 132 105 132 2 0 35 -63 74 -140z"/>
<path d="M11520 7676 c-97 -129 -130 -180 -126 -194 6 -17 21 -20 158 -25 262
-12 306 -10 313 12 4 13 -24 80 -85 200 -70 141 -94 181 -109 181 -14 0 -60
-54 -151 -174z m220 -36 l70 -140 -92 1 c-51 1 -130 4 -175 7 l-82 7 100 133
c55 72 102 132 104 132 3 0 36 -63 75 -140z"/>
<path d="M4795 7659 c-198 -140 -199 -141 -191 -166 5 -15 49 -31 207 -76 110
-32 206 -60 212 -62 7 -3 20 2 29 9 17 12 16 23 -9 202 -14 104 -31 195 -36
202 -5 6 -17 12 -26 12 -9 -1 -92 -55 -186 -121z m200 -107 c10 -73 16 -134
14 -136 -6 -6 -321 88 -322 96 -1 4 61 51 138 106 112 79 141 96 146 83 3 -9
14 -76 24 -149z"/>
<path d="M13745 7652 c-99 -71 -181 -135 -182 -143 -2 -7 0 -19 5 -25 4 -6
102 -38 217 -72 271 -79 253 -92 218 158 -14 102 -31 191 -36 198 -5 6 -17 12
-26 12 -9 -1 -97 -58 -196 -128z m206 -81 c11 -78 19 -146 17 -150 -3 -10
-319 80 -321 91 -2 6 275 208 280 204 2 -1 12 -66 24 -145z"/>
<path d="M6021 7730 c-72 -23 -119 -44 -127 -56 -10 -16 -1 -45 51 -179 55
-139 67 -160 87 -163 31 -3 271 112 279 134 5 17 -96 259 -122 290 -16 20 -41
16 -168 -26z m188 -127 c28 -64 50 -117 48 -119 -1 -2 -50 -26 -107 -53 l-104
-50 -47 117 c-26 65 -49 126 -51 136 -2 15 14 24 97 51 55 18 103 33 106 34 3
1 29 -51 58 -116z"/>
<path d="M14981 7730 c-72 -23 -119 -44 -127 -56 -10 -16 -2 -44 51 -179 51
-130 67 -161 84 -163 29 -5 274 113 282 135 5 16 -98 260 -123 291 -15 18 -41
14 -167 -28z m183 -117 c27 -60 50 -113 52 -119 5 -10 -13 -20 -142 -79 l-71
-33 -49 126 c-27 70 -49 131 -49 136 0 7 168 68 206 75 3 1 27 -47 53 -106z"/>
<path d="M3641 7705 c-155 -35 -185 -44 -192 -61 -6 -17 22 -51 167 -201 186
-193 208 -208 218 -139 5 28 26 369 26 406 0 38 -31 37 -219 -5z m165 -77 c-3
-35 -9 -115 -12 -178 l-7 -115 -133 140 c-74 77 -134 143 -134 146 0 5 250 65
284 68 4 1 6 -27 2 -61z"/>
<path d="M12601 7705 c-156 -35 -185 -44 -192 -62 -6 -17 21 -49 167 -201 191
-198 208 -208 218 -128 5 37 26 364 26 397 0 37 -33 36 -219 -6z m165 -67 c-3
-29 -8 -109 -12 -178 l-7 -125 -133 140 c-74 76 -134 142 -134 145 0 6 244 66
279 69 10 1 12 -11 7 -51z"/>
<path d="M7483 7625 c-72 -57 -134 -108 -137 -114 -11 -17 47 -212 65 -222 12
-6 60 11 165 56 126 54 149 67 152 87 1 13 -15 81 -36 152 -30 99 -44 131 -59
137 -16 6 -47 -15 -150 -96z m166 -71 c18 -58 31 -108 29 -109 -6 -7 -241
-106 -243 -103 -1 2 -11 36 -22 76 l-21 72 107 85 c58 46 109 84 112 85 3 0
20 -48 38 -106z"/>
<path d="M16443 7625 c-72 -57 -134 -108 -137 -114 -11 -17 47 -212 65 -222
11 -6 60 10 163 54 115 49 148 67 152 84 3 13 -11 79 -33 154 -31 102 -44 134
-60 140 -16 6 -47 -14 -150 -96z m165 -72 c18 -59 31 -108 29 -109 -6 -6 -240
-104 -242 -102 -1 2 -11 36 -22 76 l-21 72 107 85 c58 46 109 84 112 85 3 0
20 -48 37 -107z"/>
<path d="M8409 7454 c-112 -90 -206 -171 -207 -180 -2 -9 1 -21 7 -27 5 -5
122 -31 258 -58 231 -44 249 -46 265 -31 16 16 15 28 -28 217 -24 110 -47 207
-50 216 -12 41 -42 25 -245 -137z m245 -83 c20 -90 35 -165 33 -167 -7 -8
-402 72 -400 80 2 14 318 264 324 257 4 -3 23 -80 43 -170z"/>
<path d="M17369 7454 c-112 -90 -206 -171 -207 -180 -2 -9 1 -21 7 -27 5 -5
122 -31 258 -58 231 -44 249 -46 265 -31 16 16 15 28 -28 217 -25 110 -47 207
-50 216 -12 42 -42 25 -245 -137z m245 -83 c20 -90 35 -165 33 -167 -7 -8
-398 71 -398 80 -1 12 315 265 322 257 4 -3 23 -80 43 -170z"/>
<path d="M905 7442 c-111 -30 -125 -36 -125 -59 0 -25 380 -413 404 -413 15 1
48 37 119 135 80 109 96 138 88 153 -9 17 -360 213 -378 211 -4 0 -53 -13
-108 -27z m248 -98 c78 -42 152 -83 164 -90 22 -14 22 -15 -53 -117 -41 -56
-79 -103 -83 -105 -8 -3 -336 337 -330 343 2 2 38 12 79 23 41 11 76 21 78 21
1 1 66 -33 145 -75z"/>
<path d="M9865 7442 c-111 -30 -125 -36 -125 -59 0 -25 379 -413 404 -413 15
1 48 37 119 135 80 109 96 138 88 153 -9 17 -360 213 -378 211 -4 0 -53 -13
-108 -27z m227 -88 c68 -37 142 -77 165 -90 l42 -25 -75 -102 c-42 -56 -79
-103 -83 -105 -9 -3 -335 337 -330 343 2 2 38 12 79 23 41 11 76 21 77 21 1 1
57 -29 125 -65z"/>
<path d="M230 7119 c-91 -138 -168 -257 -172 -264 -4 -6 -2 -20 5 -29 12 -17
28 -15 267 23 146 24 258 47 262 54 14 22 8 35 -51 107 l-58 72 -17 126 c-22
159 -23 162 -49 162 -18 0 -55 -50 -187 -251z m190 59 c14 -117 14 -117 69
-183 23 -27 41 -52 41 -56 0 -7 -389 -73 -395 -67 -5 5 258 408 266 408 3 0
12 -46 19 -102z"/>
<path d="M9199 7133 c-86 -131 -163 -250 -172 -264 -14 -21 -15 -28 -4 -43 12
-17 26 -16 267 23 146 24 258 47 262 54 14 22 8 35 -51 107 l-58 72 -17 126
c-22 159 -23 162 -49 162 -18 0 -53 -48 -178 -237z m181 45 c14 -117 14 -117
69 -183 23 -27 41 -52 41 -56 0 -7 -390 -73 -396 -67 -5 5 258 408 267 408 3
0 12 -46 19 -102z"/>
<path d="M5410 7193 c-20 -5 -164 -283 -159 -307 3 -14 36 -31 134 -68 72 -26
137 -48 146 -48 21 0 139 147 139 173 0 14 -41 63 -117 139 -65 65 -120 117
-123 117 -3 -1 -12 -3 -20 -6z m119 -157 l94 -95 -48 -58 c-27 -32 -50 -59
-50 -61 -1 -1 -52 17 -113 40 l-112 41 24 41 c13 23 40 74 60 114 20 39 40 72
44 72 4 0 50 -42 101 -94z"/>
<path d="M14370 7193 c-20 -5 -164 -283 -159 -307 3 -14 36 -31 134 -68 72
-26 137 -48 146 -48 20 0 139 148 139 174 0 13 -43 64 -117 138 -65 65 -120
117 -123 117 -3 -1 -12 -3 -20 -6z m119 -157 l94 -94 -49 -59 c-26 -32 -49
-59 -50 -61 0 -1 -51 17 -112 40 l-112 41 34 61 c18 34 46 85 60 114 14 28 30
52 34 52 4 0 50 -42 101 -94z"/>
<path d="M1908 7178 c-10 -9 -25 -65 -42 -162 -24 -133 -25 -151 -12 -164 14
-14 41 -10 251 33 129 26 235 52 235 56 0 4 3 14 6 23 4 11 -43 39 -205 121
-116 58 -212 105 -214 105 -2 0 -10 -6 -19 -12z m342 -208 c0 -3 -79 -21 -175
-41 -150 -30 -175 -33 -175 -20 0 15 24 151 35 198 5 22 11 20 160 -54 85 -43
155 -80 155 -83z"/>
<path d="M3068 7077 c-198 -95 -228 -113 -228 -133 0 -26 -15 -22 239 -64 158
-26 186 -29 198 -17 12 12 52 232 53 289 0 46 -31 37 -262 -75z m194 -62 c-18
-124 1 -116 -197 -81 l-130 23 165 81 c91 44 168 81 171 81 3 1 -1 -46 -9
-104z"/>
<path d="M10868 7178 c-11 -9 -25 -63 -43 -162 -24 -134 -25 -150 -11 -164 14
-14 39 -11 250 33 223 46 234 49 239 72 4 23 -10 31 -204 129 -115 57 -210
104 -212 104 -2 0 -10 -6 -19 -12z m342 -208 c0 -3 -79 -21 -175 -41 -150 -30
-175 -33 -175 -20 0 18 29 188 35 209 3 8 55 -13 160 -65 85 -43 155 -80 155
-83z"/>
<path d="M12028 7077 c-198 -95 -228 -113 -228 -133 0 -26 -15 -22 239 -64
158 -26 186 -29 198 -17 12 12 52 232 53 289 0 46 -31 37 -262 -75z m194 -62
c-18 -124 1 -116 -197 -81 l-130 23 165 81 c91 44 168 81 171 81 3 1 -1 -46
-9 -104z"/>
<path d="M4211 7146 c-6 -7 -21 -87 -32 -177 -20 -153 -20 -163 -4 -175 14
-11 52 -1 233 62 119 41 221 79 225 83 26 26 -4 46 -196 132 -110 49 -202 89
-207 89 -4 0 -13 -6 -19 -14z m202 -119 c75 -33 134 -64 130 -68 -10 -9 -300
-109 -317 -109 -9 0 -8 30 3 125 13 106 17 125 30 120 9 -4 78 -34 154 -68z"/>
<path d="M6853 7153 c-50 -3 -75 -9 -84 -20 -19 -23 -32 -323 -15 -341 17 -17
404 22 425 43 13 13 12 32 -3 152 -10 76 -23 146 -28 156 -8 15 -23 17 -116
15 -59 -1 -139 -4 -179 -5z m257 -53 c0 -5 7 -57 16 -116 8 -58 13 -108 11
-111 -8 -7 -338 -40 -340 -34 -2 3 -1 63 1 133 l4 127 61 4 c140 8 247 7 247
-3z"/>
<path d="M13171 7146 c-6 -7 -21 -87 -32 -177 -20 -153 -20 -163 -4 -175 14
-11 52 -1 233 62 119 41 221 79 225 83 26 26 -5 46 -196 132 -110 49 -202 89
-207 89 -4 0 -13 -6 -19 -14z m202 -119 c75 -33 134 -64 130 -68 -10 -9 -300
-109 -317 -109 -9 0 -8 30 3 125 13 106 17 125 30 120 9 -4 78 -34 154 -68z"/>
<path d="M15807 7153 c-70 -3 -79 -6 -86 -26 -4 -12 -11 -90 -14 -174 -4 -118
-3 -154 8 -163 18 -15 404 26 424 45 13 13 12 32 -3 152 -10 76 -23 146 -28
156 -9 18 -70 20 -301 10z m276 -160 c9 -64 15 -118 13 -121 -7 -7 -337 -39
-340 -33 -1 3 0 63 2 133 l4 127 62 4 c33 2 102 4 152 5 l91 2 16 -117z"/>
<path d="M7699 7003 c-56 -82 -112 -162 -125 -180 -23 -30 -23 -32 -6 -51 17
-19 19 -19 191 8 209 33 210 33 176 123 -12 34 -38 104 -56 155 -47 131 -52
130 -180 -55z m160 -38 c22 -60 39 -110 38 -111 -3 -3 -262 -42 -264 -40 -2 1
38 62 89 134 50 73 92 131 94 129 1 -1 21 -52 43 -112z"/>
<path d="M16659 7003 c-56 -82 -112 -162 -125 -180 -23 -30 -23 -32 -6 -51 17
-19 19 -19 191 8 126 20 178 32 186 44 10 13 2 45 -44 171 -73 203 -67 203
-202 8z m160 -38 c22 -60 39 -110 38 -111 -3 -3 -262 -42 -264 -40 -2 1 38 62
89 134 50 73 92 131 94 129 1 -1 21 -52 43 -112z"/>
<path d="M5902 7118 c-7 -7 -12 -17 -12 -22 0 -28 116 -278 133 -288 17 -9 31
1 98 68 44 43 79 86 79 96 0 13 -39 38 -140 88 -77 38 -141 70 -143 70 -2 0
-8 -5 -15 -12z"/>
<path d="M14862 7118 c-7 -7 -12 -17 -12 -22 0 -28 116 -278 133 -288 17 -9
31 1 98 68 44 43 79 86 79 96 0 13 -39 38 -140 88 -77 38 -141 70 -143 70 -2
0 -8 -5 -15 -12z"/>
<path d="M18038 6951 c-54 -86 -65 -108 -56 -124 8 -16 17 -18 61 -12 64 9 67
11 67 39 0 20 -4 22 -31 18 -30 -4 -31 -4 -19 19 7 13 21 36 32 51 13 19 18
41 16 70 l-3 43 -67 -104z"/>
<path d="M5921 5757 c-15 -18 77 -294 103 -309 21 -12 33 -1 137 113 50 55 67
81 63 96 -4 15 -36 30 -142 66 -75 26 -140 47 -143 47 -4 0 -12 -6 -18 -13z
m156 -84 c46 -15 83 -30 83 -33 0 -3 -27 -35 -59 -70 -43 -47 -61 -61 -65 -50
-15 38 -56 164 -56 172 0 12 6 11 97 -19z"/>
<path d="M14881 5757 c-15 -18 77 -294 103 -309 21 -12 33 -1 137 113 50 55
67 81 63 96 -4 15 -36 30 -142 66 -75 26 -140 47 -143 47 -4 0 -12 -6 -18 -13z
m154 -83 c44 -15 82 -28 84 -30 2 -2 -22 -33 -54 -69 -32 -37 -61 -63 -65 -58
-8 8 -60 162 -60 176 0 11 8 9 95 -19z"/>
<path d="M3091 5745 c-128 -10 -156 -15 -167 -30 -12 -16 -10 -23 9 -49 13
-17 70 -93 127 -168 103 -138 128 -159 148 -120 5 9 35 92 67 184 47 138 55
170 45 183 -14 17 -18 17 -229 0z m179 -39 c0 -6 -91 -271 -94 -274 -4 -3
-175 225 -182 242 -4 11 19 15 113 21 65 3 123 8 128 10 14 5 35 6 35 1z"/>
<path d="M12051 5745 c-128 -10 -156 -15 -167 -30 -12 -16 -10 -23 9 -49 13
-17 70 -93 127 -169 82 -109 108 -137 124 -135 18 3 31 33 84 183 45 126 61
184 54 195 -12 20 -46 20 -231 5z m179 -39 c0 -6 -92 -270 -95 -274 -3 -4
-175 226 -181 242 -4 11 19 15 113 21 65 3 123 8 128 10 15 5 35 6 35 1z"/>
<path d="M1883 5692 c-172 -42 -183 -46 -183 -68 0 -34 330 -299 360 -289 24
8 24 6 54 215 26 177 25 191 -23 189 -14 -1 -108 -22 -208 -47z m178 -156
c-11 -71 -22 -130 -25 -133 -2 -3 -64 43 -136 101 -79 63 -127 108 -118 111 7
2 76 20 153 38 94 22 141 29 143 22 1 -6 -6 -69 -17 -139z"/>
<path d="M10843 5692 c-172 -42 -183 -46 -183 -68 0 -34 330 -299 360 -289 24
8 23 5 54 215 16 114 21 169 14 178 -16 18 -46 14 -245 -36z m178 -153 c-11
-72 -22 -134 -25 -136 -2 -3 -64 43 -136 101 -79 63 -127 108 -118 111 44 16
294 70 296 64 2 -4 -6 -67 -17 -140z"/>
<path d="M532 5691 c-185 -26 -211 -34 -212 -64 0 -7 245 -248 326 -320 66
-58 72 -48 104 184 24 173 25 196 12 212 -8 9 -20 16 -26 16 -6 -1 -98 -14
-204 -28z m188 -43 c0 -27 -40 -291 -44 -296 -3 -2 -66 56 -140 129 -75 72
-134 134 -132 137 6 5 239 39 284 41 20 1 32 -4 32 -11z"/>
<path d="M4811 5702 c-9 -17 -1 -43 47 -149 l58 -128 134 3 c74 2 141 8 148
14 7 6 39 55 72 110 86 143 92 138 -205 153 -60 3 -140 8 -177 11 -60 5 -67 4
-77 -14z m254 -48 c88 -3 168 -9 177 -13 15 -5 11 -16 -28 -84 -42 -71 -49
-77 -79 -77 -17 0 -66 -3 -108 -6 l-76 -7 -36 78 c-48 106 -53 129 -29 122 11
-3 91 -9 179 -13z"/>
<path d="M9492 5691 c-185 -26 -211 -34 -212 -64 0 -8 261 -264 331 -325 60
-53 67 -39 99 192 24 182 25 197 10 211 -9 8 -21 14 -26 14 -5 -1 -96 -14
-202 -28z m188 -39 c0 -23 -41 -296 -45 -300 -2 -3 -65 55 -140 128 -74 74
-133 135 -131 138 6 5 240 39 284 41 17 0 32 -3 32 -7z"/>
<path d="M13771 5701 c-9 -16 -1 -43 47 -148 l58 -128 134 3 c74 2 140 8 147
13 8 7 102 160 129 210 2 3 -2 14 -9 23 -10 13 -42 18 -177 26 -91 5 -200 12
-242 15 -70 6 -78 4 -87 -14z m254 -47 c88 -3 168 -9 177 -13 15 -5 11 -16
-28 -84 -42 -71 -49 -77 -79 -77 -17 0 -66 -3 -108 -6 l-76 -7 -36 78 c-48
106 -53 129 -29 122 11 -3 91 -9 179 -13z"/>
<path d="M3870 5683 c-18 -5 -190 -283 -190 -306 0 -9 8 -20 18 -25 25 -14
268 -82 289 -82 10 0 72 45 138 100 167 140 169 131 -59 237 -99 46 -180 82
-180 82 -1 -1 -8 -3 -16 -6z m151 -111 c68 -32 135 -62 148 -68 23 -10 21 -13
-65 -85 -49 -41 -96 -80 -105 -87 -14 -10 -37 -7 -130 19 -63 17 -117 34 -121
38 -8 7 131 241 143 241 4 0 62 -26 130 -58z"/>
<path d="M12830 5683 c-18 -5 -190 -282 -190 -306 0 -9 8 -20 18 -25 24 -13
267 -82 288 -82 9 0 71 46 138 101 167 140 169 130 -58 236 -99 46 -180 82
-180 82 -1 -1 -8 -3 -16 -6z m173 -120 l148 -68 -38 -33 c-21 -19 -68 -58
-105 -89 l-67 -54 -113 31 c-62 18 -116 35 -121 39 -7 7 132 241 143 241 3 0
72 -30 153 -67z"/>
<path d="M6611 5546 c-79 -79 -112 -119 -109 -132 4 -24 223 -156 252 -152 14
2 51 48 118 147 76 113 95 147 89 164 -6 15 -34 29 -107 54 -54 18 -105 33
-114 33 -8 0 -66 -51 -129 -114z m222 35 c37 -13 67 -27 67 -32 0 -14 -152
-239 -159 -235 -10 5 -135 78 -160 93 l-24 15 94 94 c52 52 98 93 104 91 5 -2
40 -14 78 -26z"/>
<path d="M7553 5536 c-200 -109 -222 -124 -223 -147 l0 -26 226 -28 c191 -23
228 -25 239 -14 8 10 15 64 19 166 6 144 5 153 -13 163 -11 5 -21 10 -23 9 -2
-1 -103 -56 -225 -123z m210 -58 c-3 -62 -7 -114 -8 -115 -1 -3 -313 36 -327
40 -7 2 321 185 334 186 4 1 4 -50 1 -111z"/>
<path d="M8528 5561 c-143 -77 -178 -100 -178 -117 0 -15 31 -48 101 -108 55
-47 104 -86 107 -86 4 0 65 13 136 29 82 18 134 35 141 45 10 13 3 45 -36 168
-46 143 -59 169 -84 167 -5 -1 -90 -45 -187 -98z m225 -91 c20 -63 35 -115 34
-117 -6 -5 -188 -43 -208 -43 -20 0 -167 117 -161 129 7 13 287 159 293 153 4
-4 23 -59 42 -122z"/>
<path d="M15571 5546 c-79 -79 -112 -119 -109 -132 4 -26 215 -154 248 -151
35 3 223 278 211 310 -6 15 -34 29 -107 54 -54 18 -105 33 -114 33 -8 0 -66
-51 -129 -114z m222 34 c47 -15 67 -26 63 -35 -11 -29 -148 -235 -154 -232
-12 6 -136 79 -161 94 l-24 15 94 94 c52 52 98 93 104 91 5 -2 41 -14 78 -27z"/>
<path d="M16513 5536 c-200 -109 -222 -124 -223 -147 l0 -26 226 -28 c191 -23
228 -25 239 -14 8 10 15 64 19 166 6 144 5 153 -13 163 -11 5 -21 10 -23 9 -2
-1 -103 -56 -225 -123z m209 -58 c-2 -62 -5 -114 -7 -115 -1 -3 -313 36 -327
40 -7 2 321 185 333 186 4 1 4 -50 1 -111z"/>
<path d="M17488 5561 c-143 -77 -178 -100 -178 -117 0 -14 30 -47 93 -101 50
-43 97 -82 103 -86 12 -7 233 36 272 53 31 13 29 32 -23 193 -43 133 -56 158
-80 156 -5 -1 -90 -45 -187 -98z m225 -91 c20 -63 35 -115 34 -117 -6 -5 -188
-43 -208 -43 -20 0 -167 117 -161 129 7 13 287 159 293 153 4 -4 22 -59 42
-122z"/>
<path d="M1268 5329 c-82 -67 -148 -127 -148 -135 0 -35 158 -244 185 -244 12
0 291 236 297 250 9 24 -145 250 -170 249 -9 0 -83 -54 -164 -120z m221 -25
c33 -48 58 -90 56 -94 -8 -13 -245 -203 -248 -199 -37 50 -117 170 -117 176 1
7 239 203 247 203 1 0 29 -39 62 -86z"/>
<path d="M10228 5329 c-82 -67 -148 -127 -148 -135 0 -21 146 -231 166 -238 9
-3 21 -3 27 1 41 25 283 229 289 243 9 24 -146 250 -170 249 -9 0 -83 -54
-164 -120z m221 -26 c33 -47 58 -89 56 -93 -8 -12 -246 -203 -249 -199 -42 59
-116 170 -116 176 1 6 239 203 247 203 1 0 29 -39 62 -87z"/>
<path d="M5630 5372 c-48 -27 -86 -55 -88 -65 -5 -26 78 -239 100 -259 19 -17
25 -15 149 47 105 53 129 69 129 86 0 12 -36 71 -81 130 -60 81 -87 109 -103
109 -11 -1 -59 -22 -106 -48z m168 -87 c34 -47 62 -88 62 -92 0 -5 -43 -30
-95 -56 -95 -47 -95 -47 -104 -25 -5 13 -23 59 -41 103 -17 44 -28 81 -23 83
4 1 35 18 68 36 33 19 62 34 65 34 3 1 33 -37 68 -83z"/>
<path d="M14590 5372 c-50 -28 -86 -55 -88 -66 -6 -28 89 -265 107 -269 9 -2
73 25 144 60 103 51 127 67 127 84 0 12 -36 71 -81 130 -60 81 -87 109 -103
109 -11 -1 -59 -22 -106 -48z m170 -92 c33 -43 60 -83 60 -87 0 -12 -188 -104
-194 -95 -17 28 -75 197 -69 200 4 1 35 17 68 35 33 19 63 32 67 30 5 -2 35
-40 68 -83z"/>
<path d="M2485 5297 c-136 -70 -160 -85 -160 -105 0 -13 26 -55 60 -97 l60
-75 141 0 c105 0 144 3 153 13 8 10 4 54 -16 168 -25 148 -37 180 -67 179 -6
-1 -83 -38 -171 -83z m186 -94 c11 -60 19 -114 19 -120 0 -10 -28 -13 -109
-13 l-109 0 -48 55 c-26 31 -45 57 -43 59 11 10 265 133 268 130 2 -2 12 -52
22 -111z"/>
<path d="M11445 5297 c-120 -61 -161 -87 -163 -102 -2 -13 20 -49 60 -98 l62
-77 142 0 c104 0 144 3 152 13 8 9 4 56 -16 171 -26 150 -36 176 -67 175 -5 0
-82 -37 -170 -82z m186 -93 c10 -59 19 -113 19 -121 0 -10 -25 -13 -112 -12
l-113 0 -42 54 c-24 30 -43 57 -43 60 0 7 262 136 268 131 1 -2 12 -52 23
-112z"/>
<path d="M4492 5220 c-34 -50 -62 -99 -62 -109 0 -28 176 -231 201 -231 8 0
167 161 213 217 21 25 25 36 17 50 -11 22 -263 163 -289 163 -11 0 -41 -34
-80 -90z m204 -26 c57 -30 104 -60 104 -65 0 -6 -39 -50 -87 -99 l-88 -89 -73
84 -72 85 46 70 c26 38 51 70 56 70 6 0 57 -25 114 -56z"/>
<path d="M13452 5220 c-34 -50 -62 -99 -62 -110 0 -28 176 -230 200 -230 8 0
172 166 215 217 20 25 24 36 16 50 -11 22 -263 163 -289 163 -11 0 -41 -34
-80 -90z m204 -26 c57 -30 104 -60 104 -65 0 -6 -39 -50 -87 -99 l-88 -89 -73
85 -73 85 47 69 c26 39 52 70 57 70 5 0 56 -25 113 -56z"/>
<path d="M8025 5060 c-60 -44 -118 -87 -127 -95 -15 -13 -18 -33 -18 -145 0
-116 2 -130 19 -139 25 -14 401 146 411 175 5 13 -15 59 -64 152 -55 103 -75
132 -91 132 -11 0 -69 -36 -130 -80z m182 -87 l53 -100 -87 -38 c-49 -21 -123
-53 -165 -71 l-78 -33 0 99 0 99 103 75 c56 41 106 74 112 72 5 -1 33 -48 62
-103z"/>
<path d="M16985 5060 c-61 -44 -118 -87 -127 -95 -16 -13 -18 -33 -18 -145 0
-116 2 -130 19 -139 14 -8 60 7 212 73 159 68 195 87 197 105 2 12 -26 78 -64
151 -54 104 -72 130 -89 130 -11 0 -70 -36 -130 -80z m182 -87 l53 -100 -87
-38 c-49 -21 -123 -53 -165 -71 l-78 -33 0 99 0 99 103 75 c56 41 106 74 111
73 5 -2 33 -48 63 -104z"/>
<path d="M7124 5079 c-6 -8 -35 -81 -64 -162 -69 -191 -75 -183 124 -166 81 7
154 18 162 23 21 16 49 275 31 293 -19 20 -239 30 -253 12z m211 -51 c1 -2 -3
-50 -9 -108 l-11 -105 -120 -12 c-66 -6 -121 -11 -122 -9 -3 3 42 131 76 220
l12 29 86 -6 c47 -3 86 -8 88 -9z"/>
<path d="M16084 5079 c-6 -8 -35 -81 -64 -162 -69 -191 -75 -183 124 -166 81
7 154 18 162 23 21 16 49 275 31 293 -19 20 -239 30 -253 12z m168 -45 l44 -6
-11 -103 c-6 -57 -13 -106 -15 -108 -6 -5 -233 -27 -237 -23 -2 2 12 45 31 97
59 163 50 149 99 149 24 0 64 -3 89 -6z"/>
<path d="M83 5033 c-78 -24 -83 -28 -83 -54 l0 -28 70 24 c39 13 70 20 70 14
0 -15 -121 -254 -131 -257 -5 -2 -9 -20 -9 -39 0 -28 3 -34 16 -29 9 3 17 6
20 6 2 0 44 80 93 178 114 228 113 234 -46 185z"/>
<path d="M3805 5053 c-16 -3 -35 -9 -41 -14 -19 -16 -114 -176 -114 -192 0
-20 179 -187 200 -187 21 0 240 221 240 243 0 10 -16 49 -35 87 l-35 70 -93
-1 c-50 -1 -105 -4 -122 -6z m211 -94 l26 -52 -93 -93 c-52 -52 -97 -94 -100
-94 -4 0 -38 29 -77 65 l-71 66 45 72 c27 43 53 75 67 79 12 3 57 6 99 7 l78
1 26 -51z"/>
<path d="M8945 5002 c-99 -32 -186 -61 -192 -65 -28 -18 -9 -49 100 -161 88
-93 116 -116 130 -111 11 5 56 82 107 184 67 135 86 181 79 194 -6 9 -18 17
-27 16 -9 0 -98 -26 -197 -57z m95 -142 c-35 -72 -67 -130 -71 -130 -9 0 -159
160 -159 169 0 8 282 100 290 94 2 -2 -25 -62 -60 -133z"/>
<path d="M12765 5053 c-16 -3 -35 -9 -41 -14 -19 -16 -114 -176 -114 -192 0
-20 179 -187 200 -187 21 0 240 221 240 243 0 10 -16 49 -35 87 l-35 70 -93
-1 c-50 -1 -105 -4 -122 -6z m211 -94 l26 -52 -93 -93 c-52 -52 -97 -94 -100
-94 -4 0 -38 30 -77 66 l-71 65 45 72 c26 43 53 75 67 79 12 3 57 6 99 7 l78
1 26 -51z"/>
<path d="M17945 5014 c-77 -24 -164 -51 -192 -60 -80 -23 -74 -40 60 -179 88
-92 116 -115 130 -110 10 4 51 72 93 156 59 119 74 158 74 194 0 30 -4 45 -12
44 -7 0 -76 -21 -153 -45z m55 -154 c-35 -72 -67 -130 -71 -130 -9 0 -159 160
-159 169 0 8 282 100 290 94 2 -2 -25 -62 -60 -133z"/>
<path d="M657 5003 c-125 -134 -197 -220 -197 -234 0 -9 6 -21 13 -27 26 -20
427 -143 442 -134 23 12 136 193 133 211 -3 16 -313 230 -335 231 -6 0 -32
-21 -56 -47z m198 -100 c74 -49 135 -91 135 -96 0 -15 -93 -147 -104 -147 -6
0 -91 26 -189 58 l-177 57 96 108 c52 59 98 107 100 107 3 0 65 -39 139 -87z"/>
<path d="M6590 4980 c-109 -45 -166 -74 -171 -86 -9 -28 169 -293 197 -294 25
0 19 -12 109 235 62 171 64 180 48 197 -17 16 -26 13 -183 -52z m78 -153 c-29
-81 -55 -147 -58 -147 -4 0 -36 44 -73 98 l-65 99 121 50 c67 28 123 50 125
49 1 -2 -21 -69 -50 -149z"/>
<path d="M9617 5003 c-138 -148 -197 -220 -197 -240 0 -20 21 -29 220 -93 140
-45 226 -68 235 -63 22 13 136 195 133 213 -3 15 -314 229 -335 230 -6 0 -32
-21 -56 -47z m198 -100 c74 -49 135 -91 135 -96 0 -19 -95 -147 -109 -146 -9
0 -94 26 -189 57 l-173 57 96 108 c53 59 99 107 101 107 3 0 65 -39 139 -87z"/>
<path d="M15550 4980 c-109 -45 -166 -74 -171 -86 -9 -29 169 -293 198 -294
24 0 18 -14 113 250 56 156 58 166 42 182 -16 16 -27 13 -182 -52z m78 -154
c-29 -80 -56 -146 -59 -146 -3 0 -35 44 -72 98 l-65 99 121 50 c67 28 123 50
125 48 1 -1 -21 -68 -50 -149z"/>
<path d="M5144 5003 c-6 -5 -46 -64 -87 -132 -61 -100 -74 -128 -66 -142 5
-11 15 -19 22 -19 7 0 91 -7 187 -14 96 -8 181 -11 188 -7 7 4 39 49 73 101
85 131 87 127 -108 173 -87 21 -167 40 -178 42 -11 3 -25 2 -31 -2z m184 -85
c70 -17 128 -32 130 -34 7 -5 -94 -149 -103 -149 -116 5 -285 19 -293 24 -16
10 97 191 120 191 10 0 76 -14 146 -32z"/>
<path d="M14104 5003 c-7 -5 -46 -64 -88 -132 -61 -100 -73 -127 -65 -142 5
-11 15 -19 22 -19 7 0 91 -7 187 -14 96 -8 181 -11 188 -7 7 4 39 49 73 101
85 131 87 127 -108 173 -87 21 -167 40 -178 42 -11 3 -25 2 -31 -2z m184 -85
c70 -17 128 -32 130 -34 7 -5 -94 -149 -103 -149 -119 6 -285 19 -293 24 -17
10 96 191 120 191 10 0 76 -14 146 -32z"/>
<path d="M3053 4869 c-155 -93 -183 -113 -183 -134 0 -25 -9 -21 255 -118 95
-36 123 -42 137 -33 16 10 18 29 18 190 0 159 -2 180 -17 192 -10 7 -20 13
-23 13 -3 -1 -87 -50 -187 -110z m177 -94 c0 -101 -3 -135 -12 -135 -11 0
-142 47 -252 89 -29 12 -29 12 110 95 76 46 142 84 147 85 4 1 7 -60 7 -134z"/>
<path d="M6035 4899 c-88 -45 -165 -88 -172 -96 -7 -9 -10 -27 -8 -42 17 -107
8 -95 110 -156 63 -39 100 -55 113 -51 14 5 36 53 87 198 66 186 72 216 39
224 -5 2 -81 -33 -169 -77z m125 -5 c0 -12 -93 -269 -100 -277 -4 -5 -40 12
-79 37 -69 44 -71 47 -71 86 l0 40 118 59 c118 60 132 66 132 55z"/>
<path d="M12013 4869 c-155 -93 -183 -113 -183 -134 0 -25 -11 -20 255 -119
162 -60 155 -67 155 162 0 155 -2 176 -17 188 -10 7 -20 13 -23 13 -3 -1 -87
-50 -187 -110z m177 -94 c0 -101 -3 -135 -12 -135 -11 0 -142 47 -252 89 -29
12 -29 12 110 95 76 46 142 84 147 85 4 1 7 -60 7 -134z"/>
<path d="M14995 4898 c-88 -44 -165 -87 -172 -95 -7 -9 -10 -27 -8 -42 17
-107 8 -95 110 -156 62 -38 100 -55 112 -51 14 4 37 56 86 194 37 103 67 193
67 200 0 6 -8 15 -17 21 -14 7 -57 -10 -178 -71z m125 -4 c0 -12 -93 -269
-100 -277 -4 -5 -40 12 -79 37 -69 44 -71 47 -71 86 l0 40 118 59 c118 60 132
66 132 55z"/>
<path d="M1922 4962 c-6 -5 -46 -64 -88 -132 -57 -93 -74 -128 -66 -140 12
-19 74 -27 231 -30 146 -3 127 -17 215 156 47 91 57 120 49 132 -9 15 -34 17
-169 19 -87 2 -165 -1 -172 -5z m236 -144 l-53 -103 -105 -3 c-58 -2 -120 0
-138 3 l-33 6 27 47 c15 26 42 71 60 100 l34 52 131 0 130 0 -53 -102z"/>
<path d="M10882 4962 c-6 -5 -46 -64 -88 -132 -57 -93 -74 -128 -66 -140 12
-19 74 -27 231 -30 146 -3 127 -17 215 156 47 91 57 120 49 132 -9 15 -34 17
-169 19 -87 2 -165 -1 -172 -5z m235 -144 l-54 -103 -131 0 c-72 0 -133 3
-137 6 -5 5 78 149 108 187 7 8 47 12 139 12 l130 0 -55 -102z"/>
<path d="M8115 4371 c-190 -44 -195 -46 -195 -67 0 -19 34 -58 213 -242 178
-184 170 -188 187 98 13 231 11 252 -29 249 -9 -1 -88 -18 -176 -38z m159
-148 c-3 -71 -9 -148 -13 -172 l-6 -44 -133 138 c-73 75 -131 140 -128 143 7
7 235 60 264 61 l24 1 -8 -127z"/>
<path d="M17075 4371 c-189 -44 -195 -46 -195 -67 0 -20 33 -57 208 -237 184
-189 175 -194 192 93 13 231 11 252 -29 249 -9 -1 -88 -18 -176 -38z m159
-143 c-4 -68 -10 -145 -13 -172 l-6 -49 -133 138 c-73 75 -131 139 -128 142 7
8 234 61 264 62 l23 1 -7 -122z"/>
<path d="M5989 4284 c-52 -71 -75 -112 -72 -125 7 -27 133 -131 150 -124 8 3
59 38 114 78 72 53 99 78 99 94 0 28 -166 183 -195 183 -14 -1 -43 -33 -96
-106z m169 -10 c35 -31 62 -60 60 -65 -3 -9 -149 -119 -157 -119 -3 1 -26 18
-50 39 l-44 39 59 81 c32 45 61 81 64 81 3 0 33 -25 68 -56z"/>
<path d="M14970 4313 c-30 -42 -66 -91 -78 -109 -19 -26 -22 -36 -13 -52 17
-32 132 -124 148 -117 8 3 59 38 114 78 72 53 99 78 99 94 0 27 -166 183 -195
183 -13 0 -38 -25 -75 -77z m148 -39 c35 -31 62 -60 60 -65 -3 -9 -149 -119
-157 -119 -3 0 -26 18 -50 39 l-44 38 58 81 c32 45 61 82 64 82 3 0 34 -25 69
-56z"/>
<path d="M2128 4373 c-93 -6 -92 -15 13 -186 72 -117 95 -147 112 -147 31 1
219 296 205 323 -8 15 -24 17 -141 15 -73 -1 -158 -3 -189 -5z m201 -153 c-39
-60 -74 -110 -78 -110 -3 0 -34 46 -68 103 l-62 102 32 6 c18 4 80 7 139 8
l107 1 -70 -110z"/>
<path d="M5263 4364 c-11 -29 6 -337 20 -351 19 -19 195 -55 215 -44 9 5 54
81 99 169 70 133 81 161 70 175 -9 12 -57 23 -179 42 -196 29 -217 30 -225 9z
m225 -60 c67 -9 122 -21 122 -27 0 -5 -30 -65 -66 -133 -73 -138 -67 -134
-169 -111 l-50 12 -7 55 c-3 30 -6 95 -7 144 l-1 89 28 -6 c15 -3 83 -13 150
-23z"/>
<path d="M11088 4373 c-93 -6 -93 -16 13 -187 72 -116 95 -146 112 -146 31 1
219 296 205 323 -8 15 -24 17 -141 15 -73 -1 -158 -3 -189 -5z m262 -50 c0
-11 -131 -213 -138 -213 -4 0 -35 47 -70 103 l-62 102 32 6 c46 9 238 10 238
2z"/>
<path d="M14223 4364 c-11 -30 6 -337 19 -350 20 -20 196 -56 216 -45 9 5 54
81 99 169 69 133 81 161 70 175 -9 12 -58 23 -180 42 -197 29 -216 30 -224 9z
m225 -60 c67 -9 122 -21 122 -26 0 -5 -30 -65 -66 -134 -73 -138 -67 -134
-169 -110 l-50 11 -7 50 c-3 28 -7 92 -7 144 l-1 94 28 -6 c15 -3 83 -13 150
-23z"/>
<path d="M73 4347 c-69 -8 -73 -10 -73 -34 0 -24 1 -25 65 -18 l65 7 0 -102 0
-102 -65 7 c-65 7 -65 7 -65 -18 0 -24 4 -26 72 -34 110 -14 108 -17 108 147
0 164 2 161 -107 147z"/>
<path d="M3020 4339 c-15 -28 136 -329 165 -329 13 0 73 53 164 144 171 171
174 181 58 190 -40 3 -141 7 -225 10 -141 3 -153 2 -162 -15z m390 -47 c0 -4
-49 -56 -109 -116 l-109 -109 -56 111 c-31 62 -56 115 -56 119 0 5 74 7 165 5
91 -2 165 -6 165 -10z"/>
<path d="M6670 4297 c-170 -59 -190 -69 -190 -94 0 -7 50 -68 111 -137 94
-106 114 -124 132 -117 15 6 36 51 89 191 65 175 67 185 51 201 -17 16 -28 14
-193 -44z m135 -27 c-30 -96 -92 -248 -100 -246 -5 0 -45 40 -87 87 l-78 87
72 26 c120 43 183 64 191 65 5 1 5 -8 2 -19z"/>
<path d="M8945 4336 c-88 -12 -166 -25 -174 -30 -11 -7 -12 -28 -7 -105 4 -53
11 -100 17 -106 14 -14 325 -53 344 -43 12 7 15 34 15 148 0 123 -2 140 -17
148 -11 5 -82 0 -178 -12z m145 -136 c0 -75 -3 -100 -13 -100 -21 0 -251 31
-255 34 -1 2 -5 33 -9 70 -5 60 -4 66 13 67 10 0 60 7 109 14 50 7 105 13 123
14 l32 1 0 -100z"/>
<path d="M11980 4339 c-15 -28 136 -329 165 -329 13 0 73 53 164 144 171 171
174 181 58 190 -40 3 -141 7 -225 10 -141 3 -153 2 -162 -15z m390 -47 c0 -4
-49 -56 -109 -116 l-109 -109 -56 111 c-31 62 -56 115 -56 119 0 5 74 7 165 5
91 -2 165 -6 165 -10z"/>
<path d="M15630 4297 c-170 -59 -190 -69 -190 -94 0 -7 50 -68 111 -137 95
-107 114 -124 132 -117 16 6 36 50 89 192 90 246 96 239 -142 156z m135 -27
c-30 -96 -92 -248 -100 -246 -5 0 -45 40 -87 87 l-78 87 72 26 c120 43 183 64
191 65 5 1 5 -8 2 -19z"/>
<path d="M17905 4335 c-88 -11 -166 -24 -174 -29 -11 -7 -13 -29 -8 -104 4
-53 11 -100 17 -106 6 -6 82 -20 170 -31 121 -16 162 -18 174 -9 13 9 16 35
16 145 0 117 -2 135 -17 145 -13 7 -64 4 -178 -11z m145 -135 c0 -75 -3 -100
-13 -100 -24 0 -252 31 -255 35 -3 2 -7 33 -9 69 -5 60 -4 66 13 67 11 0 60 7
109 14 50 7 105 13 123 14 l32 1 0 -100z"/>
<path d="M886 4276 c-133 -53 -181 -77 -187 -92 -6 -18 13 -42 112 -147 102
-107 123 -125 141 -118 30 11 176 395 158 416 -7 8 -20 15 -29 14 -9 -1 -97
-33 -195 -73z m162 -8 c-75 -202 -103 -275 -108 -281 -7 -8 -171 161 -174 179
-1 8 247 111 273 113 7 1 11 -5 9 -11z"/>
<path d="M7382 4248 c-72 -57 -132 -110 -134 -118 -4 -15 42 -187 56 -208 4
-7 14 -12 22 -12 26 0 303 122 308 136 7 17 -73 287 -88 296 -21 14 -33 7
-164 -94z m173 -81 c16 -53 26 -98 24 -100 -19 -15 -230 -98 -237 -93 -16 10
-46 136 -34 148 46 46 208 164 213 154 3 -6 19 -55 34 -109z"/>
<path d="M9847 4276 c-109 -43 -182 -78 -189 -89 -11 -21 -7 -26 151 -189 68
-69 88 -85 104 -79 29 11 174 396 157 416 -7 8 -20 15 -29 14 -9 -1 -96 -33
-194 -73z m163 0 c0 -7 -99 -267 -108 -282 -7 -13 -27 4 -95 77 -48 51 -84 96
-80 100 10 9 254 107 271 108 6 1 12 -1 12 -3z"/>
<path d="M16343 4248 c-72 -57 -133 -110 -136 -118 -4 -15 42 -185 56 -207 5
-7 15 -13 23 -13 26 0 303 122 308 136 7 17 -73 287 -88 296 -21 14 -33 7
-163 -94z m197 -173 c0 -13 -226 -109 -238 -101 -16 10 -46 136 -34 148 5 5
54 45 109 88 l98 78 32 -102 c18 -55 33 -105 33 -111z"/>
<path d="M4123 4294 c-9 -25 7 -307 19 -322 17 -20 217 -6 239 17 20 19 169
241 169 250 -1 28 -27 36 -177 52 -205 23 -242 23 -250 3z m215 -50 c75 -9
138 -17 140 -19 2 -2 -26 -48 -63 -103 l-66 -99 -81 -6 c-45 -4 -83 -5 -84 -4
-2 2 -6 58 -10 125 -6 111 -5 122 10 122 9 0 79 -7 154 -16z"/>
<path d="M13083 4294 c-11 -30 7 -308 21 -322 10 -10 37 -12 122 -5 l109 8 88
130 c48 71 87 132 87 135 -1 27 -28 35 -177 51 -205 23 -242 23 -250 3z m215
-50 c75 -9 138 -17 140 -19 2 -2 -26 -48 -63 -103 l-66 -99 -82 -6 c-45 -3
-83 -4 -84 -3 -2 2 -6 57 -10 124 -5 111 -5 122 11 122 9 0 79 -7 154 -16z"/>
<path d="M2707 4147 c-71 -23 -132 -49 -137 -57 -11 -20 110 -328 133 -342 13
-7 48 6 145 51 70 33 132 68 139 78 10 15 2 40 -48 153 -54 120 -80 162 -98
159 -3 0 -64 -19 -134 -42z m183 -131 c28 -61 50 -111 50 -113 0 -7 -211 -105
-215 -101 -6 6 -105 261 -103 264 9 7 195 63 206 61 7 -1 35 -51 62 -111z"/>
<path d="M11667 4147 c-71 -23 -132 -49 -137 -57 -11 -20 108 -328 133 -341
13 -8 48 5 150 54 74 35 136 71 139 79 7 18 -107 278 -130 296 -20 15 -3 18
-155 -31z m168 -99 c21 -46 44 -98 52 -116 l14 -33 -107 -50 c-58 -28 -107
-49 -109 -47 -6 6 -106 261 -103 263 8 6 185 64 199 64 11 1 29 -26 54 -81z"/>
<path d="M1456 4021 c-233 -171 -230 -162 -72 -248 l113 -63 136 0 c105 0 137
3 146 14 10 12 1 56 -43 215 -31 111 -56 203 -56 205 0 2 -9 6 -19 9 -14 3
-74 -35 -205 -132z m233 -97 c22 -82 41 -153 41 -157 0 -4 -50 -7 -111 -7
l-112 0 -89 51 c-49 28 -86 55 -81 59 43 39 299 218 304 212 3 -4 25 -75 48
-158z"/>
<path d="M10416 4021 c-233 -171 -230 -162 -73 -248 l113 -63 136 0 c105 0
138 3 147 14 10 11 0 57 -43 215 -31 110 -56 202 -56 205 0 2 -9 6 -19 9 -14
3 -73 -34 -205 -132z m232 -97 c23 -83 42 -154 42 -158 0 -3 -51 -6 -112 -6
l-113 1 -83 47 c-45 26 -82 52 -81 57 2 16 292 226 299 218 4 -5 26 -76 48
-159z"/>
<path d="M3612 3976 c-171 -226 -179 -212 120 -219 207 -6 218 -5 228 13 8 16
-7 53 -80 200 -77 154 -93 180 -113 180 -18 0 -52 -38 -155 -174z m221 -31
c37 -74 67 -137 67 -139 0 -4 -334 5 -339 10 -5 4 191 264 199 264 3 0 36 -61
73 -135z"/>
<path d="M12572 3976 c-171 -226 -178 -212 119 -219 205 -5 216 -5 227 14 10
16 0 44 -78 199 -78 156 -93 180 -113 180 -19 0 -51 -36 -155 -174z m221 -31
c37 -74 67 -137 67 -139 0 -4 -334 5 -339 10 -5 4 190 264 198 264 4 0 37 -61
74 -135z"/>
<path d="M4705 3972 c-168 -119 -200 -151 -178 -173 5 -5 103 -36 217 -69 189
-55 211 -60 225 -45 14 14 13 33 -12 207 -25 181 -33 208 -62 207 -5 0 -91
-57 -190 -127z m185 49 c0 -6 9 -72 20 -147 11 -75 19 -139 17 -140 -7 -7
-327 90 -325 98 4 9 270 198 280 198 5 0 8 -4 8 -9z"/>
<path d="M13665 3972 c-246 -173 -247 -160 31 -240 196 -57 219 -61 233 -47
14 14 13 34 -12 207 -25 181 -33 208 -62 207 -5 0 -91 -57 -190 -127z m185 49
c0 -6 9 -72 20 -147 11 -75 19 -139 17 -140 -7 -7 -327 90 -325 98 4 9 270
198 280 198 5 0 8 -4 8 -9z"/>
<path d="M135 2094 l-135 -205 0 -70 c0 -55 3 -69 15 -69 8 0 112 16 231 35
118 19 217 35 219 35 1 0 5 10 8 21 5 17 -9 40 -53 94 l-60 71 -20 138 c-11
76 -23 142 -26 147 -3 5 -14 9 -24 9 -14 0 -57 -58 -155 -206z m165 -17 c12
-84 15 -92 61 -149 27 -34 48 -62 47 -64 -7 -7 -390 -65 -395 -60 -4 3 54 96
128 207 150 226 139 221 159 66z"/>
<path d="M9077 2067 c-205 -310 -195 -293 -175 -313 16 -16 94 -6 465 57 87
15 88 32 13 124 l-60 71 -20 138 c-11 76 -23 142 -26 147 -3 5 -14 9 -24 9
-14 0 -62 -64 -173 -233z m179 28 c16 -107 17 -110 65 -169 27 -32 48 -60 47
-61 -6 -6 -389 -66 -397 -63 -4 2 53 94 127 206 74 111 136 201 138 199 2 -2
11 -52 20 -112z"/>
<path d="M1845 2276 c-13 -9 -25 -54 -45 -162 -25 -130 -26 -151 -14 -164 13
-13 40 -10 232 29 255 52 262 54 262 81 0 16 -40 40 -209 124 -180 91 -211
103 -226 92z m190 -128 c80 -40 145 -75 145 -79 0 -6 -343 -79 -348 -74 -2 2
1 29 7 59 6 31 16 81 22 111 6 30 15 55 20 55 5 0 74 -33 154 -72z"/>
<path d="M10805 2276 c-13 -9 -25 -54 -45 -162 -25 -130 -26 -151 -14 -164 13
-13 40 -10 232 29 255 52 262 54 262 81 0 16 -40 40 -209 124 -180 91 -211
103 -226 92z m190 -128 c80 -40 145 -75 145 -79 0 -6 -342 -79 -348 -73 -2 1
1 28 7 58 6 31 16 81 22 111 6 30 15 55 20 55 5 0 74 -33 154 -72z"/>
<path d="M3963 2232 c-7 -4 -21 -78 -33 -176 -21 -158 -21 -168 -5 -180 15
-11 49 -2 214 55 267 92 253 85 249 111 -2 18 -38 38 -198 110 -107 48 -199
87 -205 88 -5 0 -15 -4 -22 -8z m189 -118 c82 -37 145 -70 141 -74 -10 -8
-305 -110 -319 -110 -6 0 -4 46 5 125 8 69 17 125 19 125 3 0 72 -30 154 -66z"/>
<path d="M6577 2233 c-49 -3 -59 -7 -66 -26 -5 -12 -11 -88 -14 -169 -4 -128
-3 -149 12 -161 14 -13 40 -13 211 5 126 13 200 25 209 34 13 12 12 32 -3 151
-10 76 -23 146 -28 156 -8 15 -24 17 -136 15 -70 -1 -153 -3 -185 -5z m292
-125 c7 -46 15 -99 18 -119 5 -35 4 -36 -33 -42 -70 -10 -304 -30 -307 -26 -1
2 -1 61 1 131 l4 127 36 4 c20 2 89 4 153 5 l117 2 11 -82z"/>
<path d="M8175 2204 c-82 -18 -160 -36 -171 -39 -12 -3 -24 -14 -27 -25 -4
-16 31 -58 164 -198 94 -97 176 -178 182 -179 33 -7 38 15 52 232 16 231 14
246 -29 244 -11 0 -88 -16 -171 -35z m162 -46 c-3 -18 -9 -97 -13 -175 -3 -79
-8 -143 -9 -143 -7 0 -261 263 -263 273 -2 8 44 23 135 43 76 18 142 32 147
33 4 0 6 -14 3 -31z"/>
<path d="M12923 2232 c-7 -4 -21 -78 -33 -176 -20 -157 -21 -168 -5 -180 14
-10 50 -1 213 55 267 91 254 85 250 111 -2 18 -37 38 -198 110 -107 48 -199
87 -205 87 -5 1 -15 -3 -22 -7z m189 -118 c82 -37 145 -70 141 -74 -10 -8
-305 -110 -319 -110 -6 0 -4 46 5 125 8 69 17 125 19 125 3 0 72 -30 154 -66z"/>
<path d="M15537 2233 c-49 -3 -59 -7 -66 -26 -5 -12 -11 -88 -14 -169 -4 -128
-3 -149 12 -161 14 -13 40 -13 211 5 126 13 200 25 209 34 13 12 12 32 -3 151
-10 76 -23 146 -28 156 -8 15 -24 17 -136 15 -70 -1 -153 -3 -185 -5z m296
-160 c9 -64 15 -118 13 -120 -5 -6 -335 -37 -339 -32 -2 2 -1 61 1 131 l4 127
37 4 c20 2 88 4 152 5 l116 2 16 -117z"/>
<path d="M17135 2204 c-82 -18 -160 -36 -171 -39 -12 -3 -24 -14 -27 -26 -4
-16 29 -56 165 -197 93 -97 175 -178 181 -179 33 -7 38 15 52 232 16 231 14
246 -29 244 -11 0 -88 -16 -171 -35z m162 -46 c-3 -18 -9 -97 -13 -175 -3 -79
-8 -143 -9 -143 -7 0 -267 269 -266 276 0 7 235 66 285 73 4 0 6 -14 3 -31z"/>
<path d="M5560 2215 c-14 -17 -20 -1 78 -232 65 -157 79 -183 98 -183 15 0 55
42 148 157 69 87 126 166 126 176 0 25 -24 32 -225 66 -209 36 -209 36 -225
16z m358 -90 l32 -6 -101 -125 c-56 -69 -105 -122 -109 -117 -5 4 -34 69 -65
143 -31 74 -59 140 -61 146 -4 10 108 -6 304 -41z"/>
<path d="M7498 2154 c-29 -41 -85 -121 -124 -177 -56 -79 -69 -106 -62 -119
11 -23 26 -23 215 7 112 17 161 29 170 41 9 12 7 29 -12 77 -12 34 -38 104
-56 155 -44 121 -57 123 -131 16z m112 -109 c22 -59 39 -109 38 -110 -2 -1
-62 -11 -135 -22 -85 -12 -130 -16 -126 -9 24 41 176 256 179 253 2 -2 22 -52
44 -112z"/>
<path d="M14520 2215 c-14 -17 -20 -1 78 -232 65 -155 79 -183 97 -183 15 0
57 44 148 157 70 87 127 166 127 175 0 26 -23 33 -226 67 -209 36 -208 36
-224 16z m377 -98 c3 -4 -38 -61 -92 -127 -54 -67 -101 -118 -105 -113 -5 4
-34 69 -65 143 -31 74 -59 140 -61 146 -5 11 310 -37 323 -49z"/>
<path d="M16480 2188 c-203 -290 -218 -313 -209 -330 12 -23 27 -23 216 7 112
17 161 29 170 41 9 12 7 29 -12 77 -12 34 -38 104 -56 155 -29 80 -36 92 -56
92 -16 0 -33 -13 -53 -42z m90 -143 c22 -59 39 -109 38 -110 -5 -4 -268 -42
-268 -39 0 8 183 265 186 261 2 -2 22 -52 44 -112z"/>
<path d="M975 2192 c-83 -22 -101 -31 -103 -47 -2 -15 48 -74 184 -215 104
-107 194 -199 201 -203 22 -13 40 4 137 136 63 86 92 133 89 146 -6 23 -351
211 -385 210 -13 0 -68 -13 -123 -27z m294 -108 l160 -87 -21 -31 c-58 -83
-131 -176 -138 -176 -13 0 -331 332 -325 339 7 7 122 39 147 40 9 1 88 -38
177 -85z"/>
<path d="M9935 2192 c-83 -22 -101 -31 -103 -48 -2 -15 47 -72 184 -215 103
-107 193 -198 201 -202 22 -13 40 4 137 136 63 86 92 133 89 146 -6 23 -351
211 -385 210 -13 0 -68 -13 -123 -27z m294 -108 l160 -87 -21 -31 c-58 -82
-131 -176 -138 -176 -13 0 -332 332 -325 338 7 8 122 40 147 41 9 1 88 -38
177 -85z"/>
<path d="M3132 2102 c-206 -99 -222 -109 -220 -132 3 -24 8 -25 193 -57 208
-35 224 -36 242 -25 19 12 57 290 42 308 -6 8 -17 14 -23 14 -6 0 -111 -49
-234 -108z m208 21 c0 -21 -22 -187 -25 -191 -2 -3 -220 32 -280 45 -27 6 -15
13 130 84 88 43 163 79 168 79 4 0 7 -8 7 -17z"/>
<path d="M12092 2102 c-206 -99 -222 -109 -220 -132 3 -24 8 -25 193 -57 208
-35 224 -36 242 -25 19 12 57 290 42 308 -6 8 -17 14 -23 14 -6 0 -111 -49
-234 -108z m208 18 c0 -35 -22 -175 -29 -182 -5 -6 -153 15 -301 43 -7 1 313
159 323 159 4 0 7 -9 7 -20z"/>
<path d="M4839 2052 c-41 -81 -74 -154 -72 -163 5 -19 267 -121 288 -112 22 8
135 151 135 170 0 25 -230 253 -255 253 -16 0 -36 -32 -96 -148z m253 -163
c-26 -33 -51 -59 -57 -58 -26 1 -210 76 -208 86 1 5 28 58 59 117 l57 108 97
-97 98 -98 -46 -58z"/>
<path d="M13799 2052 c-42 -81 -74 -154 -72 -164 5 -18 266 -120 288 -112 22
9 135 152 135 171 0 25 -230 253 -255 253 -16 0 -36 -32 -96 -148z m253 -163
c-26 -33 -51 -59 -57 -58 -26 1 -210 76 -208 86 1 5 28 58 59 117 l57 108 97
-97 98 -98 -46 -58z"/>
<path d="M17977 1976 c-167 -252 -167 -251 28 -218 95 17 100 19 103 43 l3 26
-73 -13 c-131 -23 -130 -32 -22 130 87 131 95 147 92 185 l-3 41 -128 -194z"/>
<path d="M2908 1778 c-9 -7 -53 -74 -99 -148 -73 -118 -91 -161 -76 -176 8 -9
282 -84 302 -84 32 1 260 201 260 228 0 20 -26 35 -183 107 -101 47 -185 85
-186 85 -1 0 -9 -6 -18 -12z m185 -119 c76 -34 136 -66 135 -70 -2 -4 -47 -44
-101 -89 l-98 -82 -120 33 c-65 19 -119 38 -119 43 0 8 21 44 118 199 13 21
29 37 35 34 7 -3 74 -33 150 -68z"/>
<path d="M11868 1778 c-9 -7 -53 -74 -99 -148 -73 -118 -91 -161 -76 -176 7
-7 281 -84 299 -84 20 0 268 206 268 223 0 7 -4 17 -8 22 -5 8 -298 148 -357
171 -6 3 -18 -1 -27 -8z m185 -119 c75 -35 136 -66 135 -70 -2 -3 -47 -44
-101 -89 l-99 -82 -116 32 c-65 18 -120 35 -124 37 -6 3 23 53 129 221 8 13
20 21 26 19 7 -3 74 -33 150 -68z"/>
<path d="M5926 1671 c-14 -16 -12 -29 32 -162 63 -186 63 -186 185 -54 48 52
87 99 87 103 0 23 -37 43 -157 85 -124 43 -132 45 -147 28z m157 -86 c42 -15
77 -31 77 -34 0 -4 -27 -33 -60 -66 -42 -41 -61 -54 -65 -44 -19 51 -55 164
-55 172 0 5 6 7 13 5 6 -3 47 -17 90 -33z"/>
<path d="M14886 1671 c-14 -16 -12 -29 33 -162 61 -183 61 -183 185 -52 47 51
86 96 86 101 0 23 -37 43 -157 85 -124 43 -132 45 -147 28z m157 -86 c42 -15
77 -31 77 -34 0 -4 -27 -33 -60 -66 -42 -41 -61 -54 -65 -44 -19 51 -55 164
-55 172 0 5 6 7 13 5 6 -3 47 -17 90 -33z"/>
<path d="M1965 1611 c-250 -62 -249 -52 -21 -234 118 -94 174 -133 187 -130
21 6 20 4 53 223 21 139 22 157 8 173 -8 9 -20 16 -26 16 -6 -1 -96 -22 -201
-48z m185 -23 c0 -18 -40 -271 -43 -274 -2 -2 -239 185 -260 206 -5 4 56 24
135 43 166 41 168 41 168 25z"/>
<path d="M10925 1611 c-250 -62 -249 -52 -21 -234 118 -94 174 -133 187 -130
21 6 20 2 53 225 21 147 22 159 6 173 -20 18 1 22 -225 -34z m185 -20 c0 -12
-41 -275 -43 -277 -2 -2 -242 188 -260 206 -5 4 56 24 135 43 158 39 168 41
168 28z"/>
<path d="M545 1605 c-88 -13 -168 -24 -178 -24 -10 -1 -21 -11 -26 -23 -7 -20
10 -41 151 -177 197 -191 202 -195 226 -182 16 8 23 42 46 207 29 215 28 225
-28 223 -17 -1 -103 -12 -191 -24z m179 -117 c-7 -51 -16 -119 -20 -151 -4
-31 -11 -60 -16 -63 -8 -5 -273 241 -277 257 -1 4 244 42 310 48 14 1 15 -8 3
-91z"/>
<path d="M7372 1507 c-204 -112 -222 -124 -220 -147 3 -25 4 -25 227 -53 186
-24 226 -27 236 -15 8 8 15 65 19 165 5 144 5 153 -13 163 -11 5 -21 10 -23 9
-2 0 -103 -55 -226 -122z m210 -59 c-2 -62 -5 -114 -6 -115 0 0 -77 8 -169 20
-127 15 -164 23 -150 31 109 61 319 176 324 176 4 0 4 -51 1 -112z"/>
<path d="M9505 1605 c-88 -13 -168 -24 -177 -24 -10 -1 -22 -10 -28 -22 -10
-18 4 -36 156 -182 196 -190 197 -191 222 -178 15 8 23 43 45 206 30 216 29
226 -27 224 -17 -1 -103 -12 -191 -24z m185 -47 c0 -48 -33 -273 -41 -283 -6
-5 -61 42 -141 120 -73 72 -134 133 -136 136 -2 4 215 38 306 48 6 0 12 -9 12
-21z"/>
<path d="M16329 1504 c-204 -112 -226 -126 -222 -147 4 -22 13 -24 231 -51
204 -25 227 -26 237 -12 7 9 15 78 18 163 6 131 4 149 -10 161 -9 6 -19 12
-22 11 -3 0 -108 -56 -232 -125z m213 -56 c-2 -62 -5 -114 -6 -115 0 0 -76 8
-168 20 -93 11 -166 22 -165 24 7 6 332 183 338 183 3 0 3 -51 1 -112z"/>
<path d="M6503 1508 c-75 -75 -113 -119 -113 -134 0 -17 25 -36 120 -92 70
-41 127 -68 137 -65 26 6 212 290 206 313 -4 14 -34 29 -112 55 -58 19 -110
35 -115 35 -5 0 -60 -50 -123 -112z m219 30 c37 -12 68 -26 68 -30 0 -8 -133
-212 -150 -232 -6 -6 -156 74 -189 101 -9 7 173 183 188 183 8 0 45 -10 83
-22z"/>
<path d="M15463 1508 c-75 -75 -113 -119 -113 -134 0 -17 25 -36 120 -92 70
-41 127 -68 137 -65 26 6 212 290 206 313 -4 14 -34 29 -112 55 -58 19 -110
35 -115 35 -5 0 -60 -50 -123 -112z m219 30 c37 -12 68 -26 68 -30 0 -8 -133
-212 -150 -232 -6 -6 -156 74 -189 101 -9 7 173 183 188 183 8 0 45 -10 83
-22z"/>
<path d="M4844 1589 c-13 -15 -8 -31 44 -145 l58 -129 121 1 c66 1 131 4 144
7 17 5 42 37 87 111 53 89 61 109 52 126 -8 14 -21 20 -48 21 -20 0 -128 6
-240 12 -184 11 -205 10 -218 -4z m295 -49 c79 -6 146 -12 149 -14 2 -3 -16
-38 -40 -78 -42 -69 -47 -73 -89 -80 -24 -3 -74 -7 -112 -7 l-68 -1 -33 74
c-55 121 -55 116 1 116 26 0 113 -5 192 -10z"/>
<path d="M13804 1589 c-13 -15 -8 -31 44 -145 l58 -129 121 1 c66 1 131 4 144
7 17 5 42 37 87 111 53 89 61 109 52 126 -8 14 -21 20 -48 21 -20 0 -128 6
-240 12 -184 11 -205 10 -218 -4z m295 -49 c79 -6 146 -12 149 -14 2 -3 -16
-38 -40 -78 -42 -69 -47 -73 -89 -80 -24 -3 -74 -7 -112 -7 l-68 -1 -33 74
c-55 121 -55 116 1 116 26 0 113 -5 192 -10z"/>
<path d="M8450 1506 c-145 -78 -176 -98 -178 -118 -2 -20 15 -40 92 -106 64
-55 103 -82 120 -82 44 0 260 51 268 63 12 18 11 20 -38 176 -44 138 -55 161
-79 161 -5 0 -89 -43 -185 -94z m215 -78 c19 -61 35 -117 35 -123 0 -10 -173
-55 -211 -55 -11 0 -152 116 -156 129 -3 6 275 160 289 161 4 0 23 -50 43
-112z"/>
<path d="M17410 1506 c-145 -78 -176 -98 -178 -118 -2 -20 15 -40 92 -106 104
-90 107 -91 208 -68 35 8 89 20 120 26 41 8 59 17 63 30 7 22 -82 311 -99 322
-6 4 -15 8 -21 8 -5 0 -89 -43 -185 -94z m215 -78 c19 -61 35 -117 35 -123 0
-10 -173 -55 -211 -55 -11 0 -152 116 -156 129 -3 6 275 160 289 161 4 0 23
-50 43 -112z"/>
<path d="M4265 1522 c-135 -48 -160 -60 -163 -79 -4 -26 155 -243 178 -243 8
0 102 36 208 82 241 102 239 95 68 215 -65 46 -121 83 -125 82 -3 0 -78 -26
-166 -57z m259 -63 c48 -34 84 -65 79 -69 -7 -7 -117 -57 -280 -125 l-33 -14
-60 78 c-32 44 -61 84 -62 91 -3 11 218 98 253 99 8 1 55 -27 103 -60z"/>
<path d="M13225 1522 c-135 -48 -160 -60 -163 -79 -4 -26 155 -243 178 -243 8
0 102 36 208 82 241 102 239 95 68 215 -65 45 -122 83 -125 82 -3 0 -78 -26
-166 -57z m259 -63 c48 -34 84 -65 79 -70 -7 -6 -118 -56 -280 -124 l-33 -14
-60 78 c-32 44 -61 84 -62 91 -3 11 218 98 252 99 9 1 55 -27 104 -60z"/>
<path d="M3610 1386 c-151 -12 -170 -17 -170 -43 0 -26 242 -343 262 -343 23
0 27 8 93 202 47 138 55 171 45 183 -14 17 -25 17 -230 1z m178 -48 c-3 -7
-24 -71 -48 -141 -23 -71 -46 -125 -50 -120 -28 31 -182 244 -179 247 3 4 51
8 263 25 11 0 16 -4 14 -11z"/>
<path d="M12570 1386 c-151 -12 -170 -17 -170 -43 0 -27 240 -343 260 -343 25
0 27 5 95 202 47 138 55 170 45 183 -14 17 -25 17 -230 1z m178 -48 c-3 -7
-24 -71 -48 -141 -23 -71 -44 -126 -47 -124 -14 15 -183 243 -183 249 0 3 48
9 108 13 59 3 114 8 122 9 35 8 52 5 48 -6z"/>
<path d="M1103 1234 c-67 -119 -81 -150 -72 -165 9 -18 24 -19 219 -19 200 0
209 1 215 20 8 26 10 23 -123 178 -81 94 -120 132 -135 132 -18 -1 -39 -30
-104 -146z m239 -64 l57 -65 -151 -3 c-83 -1 -153 0 -156 2 -2 3 5 20 16 38
10 18 38 66 62 106 l42 74 36 -43 c21 -24 63 -73 94 -109z"/>
<path d="M10063 1234 c-68 -119 -81 -149 -73 -165 10 -18 24 -19 220 -19 202
0 209 1 215 20 8 24 14 15 -129 182 -76 89 -115 128 -130 128 -17 0 -38 -31
-103 -146z m220 -43 l78 -91 -155 0 c-86 0 -156 3 -156 6 0 4 8 21 19 38 10
17 38 64 61 105 42 72 43 73 59 53 9 -11 51 -61 94 -111z"/>
<path d="M5575 1318 c-158 -27 -195 -40 -195 -68 0 -17 185 -230 200 -230 23
0 241 97 259 115 12 12 12 28 2 102 -7 48 -17 93 -23 100 -15 18 -49 15 -243
-19z m208 -40 c3 -13 9 -43 12 -69 l7 -45 -103 -45 c-57 -24 -106 -44 -110
-44 -8 0 -142 165 -137 169 4 3 287 53 309 55 10 1 19 -9 22 -21z"/>
<path d="M14535 1318 c-158 -27 -195 -40 -195 -68 0 -17 185 -230 200 -230 23
0 241 97 259 115 12 12 12 28 2 102 -7 48 -17 93 -23 100 -15 18 -49 15 -243
-19z m208 -40 c3 -13 9 -43 12 -69 l7 -45 -103 -45 c-57 -24 -106 -44 -110
-44 -8 0 -143 165 -138 169 5 3 286 53 310 55 10 1 19 -9 22 -21z"/>
<path d="M7817 1132 c-257 -99 -256 -91 -22 -218 94 -51 178 -93 187 -93 9 -1
20 5 25 12 4 6 17 88 28 180 19 154 19 169 5 182 -9 8 -18 15 -21 14 -2 -1
-93 -35 -202 -77z m183 0 c0 -16 -31 -247 -34 -249 -1 -2 -62 29 -135 68 -73
39 -129 75 -124 79 10 10 263 109 281 109 6 1 12 -3 12 -7z"/>
<path d="M16777 1132 c-258 -99 -257 -91 -22 -219 94 -51 177 -92 186 -93 9 0
21 6 26 13 5 6 18 86 28 175 18 160 16 192 -11 198 -5 1 -98 -32 -207 -74z
m183 5 c0 -14 -31 -252 -34 -254 -1 -1 -62 29 -135 68 -73 39 -129 75 -124 79
19 19 293 119 293 107z"/>
<path d="M275 1113 c-77 -30 -146 -60 -153 -67 -20 -20 -29 -248 -11 -263 11
-9 54 -4 193 23 98 19 182 37 187 40 5 3 9 18 9 33 0 24 -26 166 -45 248 -10
45 -33 43 -180 -14z m155 -116 c12 -60 20 -110 18 -112 -3 -3 -279 -55 -291
-55 -9 0 -9 81 -1 142 l6 45 122 45 c66 26 122 45 122 45 1 -1 12 -51 24 -110z"/>
<path d="M9235 1113 c-77 -30 -146 -60 -153 -67 -21 -20 -30 -247 -11 -263 11
-9 54 -4 193 23 98 19 182 37 187 40 14 8 11 42 -16 174 -14 68 -25 124 -25
126 0 2 -8 7 -17 12 -13 7 -58 -6 -158 -45z m155 -116 c12 -60 20 -110 18
-112 -3 -3 -279 -55 -291 -55 -8 0 -9 101 -1 151 6 35 7 36 128 81 66 26 122
45 122 45 1 -1 12 -51 24 -110z"/>
<path d="M2435 1119 c-115 -10 -215 -21 -222 -24 -7 -2 -13 -13 -13 -24 0 -26
217 -221 247 -221 32 0 275 236 271 264 -4 28 -24 28 -283 5z m160 -80 c-22
-22 -65 -62 -95 -89 l-55 -48 -80 70 c-44 38 -81 73 -83 77 -2 8 183 26 298
29 l54 2 -39 -41z"/>
<path d="M11395 1119 c-115 -10 -215 -21 -222 -24 -7 -2 -13 -13 -13 -24 0
-26 217 -221 246 -221 32 0 276 236 272 264 -4 28 -24 28 -283 5z m169 -70
c-16 -17 -58 -57 -94 -89 l-66 -58 -79 70 c-44 38 -81 73 -83 77 -2 8 183 26
297 29 l55 2 -30 -31z"/>
<path d="M18070 1062 c-40 -20 -48 -49 -49 -188 -1 -92 6 -104 57 -97 26 4 32
10 32 29 0 17 -6 24 -20 24 -18 0 -20 7 -20 58 0 82 10 132 26 132 9 0 14 11
14 30 0 17 -1 30 -2 30 -2 0 -19 -8 -38 -18z"/>
<path d="M1674 1062 c-17 -11 -114 -188 -114 -207 0 -20 195 -245 213 -245 16
0 279 101 295 113 7 6 12 18 10 28 -3 18 -365 319 -383 319 -5 0 -15 -4 -21
-8z m184 -181 c84 -68 149 -127 145 -131 -4 -4 -56 -25 -115 -48 l-108 -40
-85 98 -86 99 43 75 c24 42 45 75 48 73 3 -1 74 -58 158 -126z"/>
<path d="M10634 1062 c-17 -11 -114 -188 -114 -207 0 -20 195 -245 213 -245
16 0 279 101 295 113 7 6 12 18 10 28 -3 18 -365 319 -383 319 -5 0 -15 -4
-21 -8z m179 -177 c83 -69 152 -128 152 -131 0 -3 -51 -25 -112 -49 l-113 -43
-85 98 -86 99 43 75 c24 42 44 76 46 76 1 0 71 -56 155 -125z"/>
<path d="M3920 884 c-88 -81 -160 -151 -160 -158 1 -28 22 -35 145 -49 147
-16 129 -21 272 71 46 30 73 54 73 65 0 25 -126 200 -151 209 -15 6 -51 -21
-179 -138z m219 16 c28 -38 51 -73 51 -77 0 -5 -36 -31 -79 -58 l-79 -50 -96
9 c-53 5 -95 12 -94 16 3 6 239 228 245 230 1 0 24 -31 52 -70z"/>
<path d="M12880 884 c-88 -80 -160 -151 -160 -158 1 -27 21 -35 115 -45 178
-19 160 -23 273 49 68 44 102 71 102 83 0 25 -127 200 -151 209 -16 6 -50 -20
-179 -138z m219 16 c28 -38 51 -73 51 -77 0 -5 -36 -31 -80 -58 l-80 -50 -95
9 c-53 5 -94 13 -93 17 2 6 238 226 245 228 1 1 24 -30 52 -69z"/>
<path d="M2856 868 c-82 -86 -126 -139 -126 -153 0 -14 21 -42 53 -72 l52 -49
200 20 c110 12 206 25 213 29 24 16 10 44 -79 157 -136 174 -159 200 -174 200
-7 0 -70 -59 -139 -132z m248 -67 c48 -62 86 -114 83 -117 -2 -3 -80 -13 -171
-22 l-166 -16 -35 34 -35 35 107 114 c86 91 109 110 117 99 6 -8 51 -65 100
-127z"/>
<path d="M11816 869 c-82 -87 -126 -140 -126 -154 0 -14 21 -42 53 -72 l52
-49 200 20 c110 12 206 25 213 29 6 5 12 16 12 25 -1 23 -241 326 -261 330
-10 2 -65 -48 -143 -129z m248 -68 c48 -62 86 -114 83 -117 -2 -3 -80 -13
-171 -22 l-166 -16 -35 34 -35 35 107 114 c86 91 109 110 117 99 6 -8 51 -65
100 -127z"/>
<path d="M4978 837 c-105 -110 -124 -136 -118 -153 9 -23 16 -23 356 -40 180
-9 180 -10 34 181 -70 91 -118 145 -129 145 -10 0 -73 -59 -143 -133z m225
-31 c42 -57 77 -107 77 -111 0 -6 -78 -3 -272 11 l-78 6 92 99 c50 54 94 99
97 98 3 0 41 -47 84 -103z"/>
<path d="M6003 919 c-166 -42 -203 -54 -208 -70 -5 -15 18 -48 92 -135 54 -64
105 -125 114 -136 9 -12 24 -19 38 -16 32 5 223 364 207 391 -6 9 -18 17 -26
16 -8 0 -106 -23 -217 -50z m177 -16 c0 -5 -33 -70 -74 -146 l-73 -139 -87
102 c-48 57 -85 105 -82 107 4 4 288 80 309 82 4 1 7 -2 7 -6z"/>
<path d="M13938 838 c-105 -112 -124 -136 -118 -154 9 -23 16 -23 356 -40 180
-9 179 -11 34 180 -71 93 -118 146 -129 146 -11 0 -72 -57 -143 -132z m222
-30 c41 -56 77 -105 79 -111 3 -9 -59 -6 -271 9 l-78 6 91 99 c51 54 95 99 98
99 3 -1 40 -46 81 -102z"/>
<path d="M14963 919 c-166 -42 -203 -54 -208 -70 -5 -15 18 -48 92 -135 54
-64 105 -125 114 -136 35 -45 54 -24 158 172 80 151 96 188 87 203 -6 9 -18
17 -26 16 -8 0 -106 -23 -217 -50z m177 -16 c0 -5 -34 -70 -74 -146 l-73 -138
-81 95 c-45 52 -83 100 -84 106 -2 7 54 26 147 50 174 44 165 42 165 33z"/>
<path d="M6610 940 c-9 -17 6 -44 100 -185 89 -133 115 -165 133 -165 19 0 39
25 107 133 46 72 90 141 97 153 11 17 11 23 0 38 -12 16 -42 20 -203 32 -104
7 -197 13 -206 14 -10 0 -22 -9 -28 -20z m243 -46 c75 -3 137 -9 137 -13 0 -3
-34 -57 -74 -120 l-74 -114 -81 121 c-44 67 -81 126 -81 132 0 6 8 9 18 6 9
-2 79 -8 155 -12z"/>
<path d="M15570 940 c-9 -17 6 -44 100 -185 89 -133 115 -165 133 -165 19 0
39 25 107 133 46 72 90 141 97 153 11 17 11 23 0 38 -12 16 -42 20 -203 32
-104 7 -197 13 -206 14 -10 0 -22 -9 -28 -20z m243 -46 c75 -4 137 -9 137 -11
0 -3 -138 -223 -145 -231 -5 -6 -165 236 -165 248 0 6 8 9 18 6 9 -3 79 -8
155 -12z"/>
<path d="M7302 806 c-136 -192 -141 -181 104 -191 190 -8 204 -6 204 30 0 6
-36 75 -79 155 -64 117 -84 146 -103 148 -20 2 -38 -19 -126 -142z m210 -144
c-20 -1 -83 1 -140 5 l-102 8 77 108 77 107 62 -112 63 -113 -37 -3z"/>
<path d="M16266 814 c-54 -75 -100 -142 -102 -148 -3 -7 1 -19 8 -28 11 -14
44 -18 199 -24 238 -8 231 -19 121 184 -65 120 -84 148 -104 150 -20 2 -38
-17 -122 -134z m202 -76 l43 -78 -58 1 c-32 1 -95 4 -141 7 l-83 7 77 108 77
108 21 -38 c12 -21 41 -73 64 -115z"/>
<path d="M8387 823 c-71 -93 -87 -120 -83 -139 5 -19 13 -24 39 -24 17 -1 127
-9 242 -20 116 -10 213 -15 217 -12 24 24 6 48 -136 177 -93 84 -157 135 -170
135 -15 -1 -47 -35 -109 -117z m228 -39 c58 -53 104 -99 101 -101 -4 -5 -337
24 -342 30 -6 6 117 167 127 167 5 0 56 -43 114 -96z"/>
<path d="M17347 823 c-71 -93 -87 -120 -83 -139 5 -19 13 -24 39 -24 17 -1
127 -9 242 -20 116 -10 213 -15 217 -12 23 24 5 48 -137 176 -91 83 -157 136
-170 136 -14 -1 -47 -36 -108 -117z m228 -40 c59 -54 103 -99 98 -100 -12 -4
-333 24 -339 29 -5 6 116 168 126 168 4 0 56 -44 115 -97z"/>
<path d="M738 744 c-203 -167 -203 -163 -7 -219 115 -33 150 -39 162 -30 12 9
19 50 30 181 13 152 13 170 -1 182 -9 6 -19 12 -23 12 -4 0 -76 -57 -161 -126z
m136 -56 c-4 -57 -10 -112 -13 -124 l-6 -21 -99 28 c-54 16 -100 30 -102 32
-4 3 215 187 223 187 2 0 1 -46 -3 -102z"/>
<path d="M9695 743 c-198 -166 -198 -162 -12 -215 155 -44 187 -44 188 0 0 15
6 92 13 172 11 128 11 146 -2 158 -9 6 -21 12 -26 11 -6 0 -78 -57 -161 -126z
m139 -55 c-4 -57 -10 -113 -13 -124 l-6 -22 -99 29 c-54 15 -100 30 -102 32
-4 4 215 187 223 187 2 0 1 -46 -3 -102z"/>
</g>
</svg>
