<?xml version="1.0" standalone="no"?>
<!DOCTYPE svg PUBLIC "-//W3C//DTD SVG 20010904//EN"
 "http://www.w3.org/TR/2001/REC-SVG-20010904/DTD/svg10.dtd">
<svg version="1.0" xmlns="http://www.w3.org/2000/svg"
 width="1125.000000pt" height="900.000000pt" viewBox="0 0 1125.000000 900.000000"
 preserveAspectRatio="xMidYMid meet">
<metadata>
Created by potrace 1.13, written by Peter Selinger 2001-2015
</metadata>
<g transform="translate(0.000000,900.000000) scale(0.100000,-0.100000)"
fill="#000000" stroke="none">
<path d="M0 4500 l0 -4500 5625 0 5625 0 0 4500 0 4500 -5625 0 -5625 0 0
-4500z m2510 4280 l0 -180 -1232 2 -1233 3 -3 165 c-1 90 0 170 2 177 4 11
241 13 1236 13 l1230 0 0 -180z m2948 -2 l2 -178 -1440 0 -1440 0 0 180 0 180
1438 -2 1437 -3 3 -177z m2592 2 l0 -180 -1262 2 -1263 3 -3 165 c-1 90 0 170
2 177 4 11 247 13 1266 13 l1260 0 0 -180z m2588 -3 l2 -177 -1262 2 -1263 3
-3 165 c-1 90 0 170 2 177 4 11 242 13 1263 11 l1258 -3 3 -178z m567 3 l0
-175 -252 -3 -253 -2 0 173 c0 96 3 177 7 181 4 3 117 5 252 4 l246 -3 0 -175z
m-10345 -585 l0 -345 -410 0 -410 0 0 338 c0 186 3 342 7 345 3 4 188 7 410 7
l403 0 0 -345z m2840 0 l0 -345 -1385 0 -1385 0 0 345 0 345 1385 0 1385 0 0
-345z m3100 0 l0 -345 -1515 0 -1515 0 0 345 0 345 1515 0 1515 0 0 -345z
m2580 0 l0 -345 -1255 0 -1255 0 0 345 0 345 1255 0 1255 0 0 -345z m1828 -2
l2 -343 -885 0 -885 0 0 338 c0 186 3 342 7 345 3 4 401 6 882 5 l876 -3 3
-342z m-9038 -773 l0 -360 -1062 2 -1063 3 -3 358 -2 357 1065 0 1065 0 0
-360z m2890 0 l0 -360 -1412 2 -1413 3 -3 358 -2 357 1415 0 1415 0 0 -360z
m2800 0 l0 -360 -1365 0 -1365 0 0 360 0 360 1365 0 1365 0 0 -360z m2560 0
l0 -360 -1245 0 -1245 0 0 360 0 360 1245 0 1245 0 0 -360z m788 3 l-3 -358
-362 -3 -363 -2 0 360 0 360 365 0 365 0 -2 -357z m-10878 -853 l0 -431 -143
3 -142 3 -3 415 c-1 228 0 421 3 427 3 10 42 13 145 13 l140 0 0 -430z m2920
0 l0 -430 -1430 0 -1430 0 0 423 c0 233 3 427 7 430 3 4 647 7 1430 7 l1423 0
0 -430z m3030 0 l0 -430 -1485 0 -1485 0 0 430 0 430 1485 0 1485 0 0 -430z
m2620 0 l0 -430 -1277 2 -1278 3 -3 415 c-1 228 0 421 3 427 3 10 268 13 1280
13 l1275 0 0 -430z m2305 0 l0 -425 -1122 -3 -1123 -2 0 430 0 430 1123 -2
1122 -3 0 -425z m-9385 -810 l0 -320 -888 2 -887 3 -3 305 c-1 168 0 310 3
317 3 10 187 13 890 13 l885 0 0 -320z m2840 0 l0 -320 -1385 0 -1385 0 0 320
0 320 1385 0 1385 0 0 -320z m2790 0 l0 -320 -1365 0 -1365 0 0 313 c0 173 3
317 7 320 3 4 618 7 1365 7 l1358 0 0 -320z m2640 0 l0 -320 -1290 0 -1290 0
0 320 0 320 1290 0 1290 0 0 -320z m1115 0 l0 -315 -527 -3 -528 -2 0 313 c0
173 3 317 7 320 3 4 241 6 527 5 l521 -3 0 -315z m-10645 -830 l0 -450 -257 2
-258 3 -3 435 c-1 239 0 441 3 448 3 9 65 12 260 12 l255 0 0 -450z m2810 0
l0 -450 -1372 2 -1373 3 -3 435 c-1 239 0 441 3 448 3 9 288 12 1375 12 l1370
0 0 -450z m3000 0 l0 -450 -1465 0 -1465 0 0 450 0 450 1465 0 1465 0 0 -450z
m2810 0 l0 -450 -1375 0 -1375 0 0 450 0 450 1375 0 1375 0 0 -450z m2025 0
l0 -445 -980 0 -980 0 -3 435 c-1 239 0 441 3 448 3 10 205 12 982 10 l978 -3
0 -445z m-8815 -915 l0 -405 -1172 2 -1173 3 -3 390 c-1 214 0 396 3 402 3 10
246 13 1175 13 l1170 0 0 -405z m2840 0 l0 -405 -1385 0 -1385 0 0 405 0 405
1385 0 1385 0 0 -405z m2670 0 l0 -405 -1300 0 -1300 0 0 405 0 405 1300 0
1300 0 0 -405z m2670 0 l0 -405 -1300 0 -1300 0 0 405 0 405 1300 0 1300 0 0
-405z m635 0 l0 -400 -285 0 -285 0 -3 403 -2 402 287 -2 288 -3 0 -400z
m-10305 -870 l0 -405 -427 2 -428 3 -3 390 c-1 214 0 396 3 402 3 10 98 13
430 13 l425 0 0 -405z m2820 0 l0 -405 -1380 0 -1380 0 0 405 0 405 1380 0
1380 0 0 -405z m3110 0 l0 -405 -1520 0 -1520 0 0 405 0 405 1520 0 1520 0 0
-405z m2580 0 l0 -405 -1255 0 -1255 0 0 405 0 405 1255 0 1255 0 0 -405z
m1795 0 l0 -400 -862 -3 -863 -2 0 405 0 405 863 -2 862 -3 0 -400z m-8955
-855 l0 -390 -1102 2 -1103 3 -3 375 c-1 206 0 381 3 387 3 10 232 13 1105 13
l1100 0 0 -390z m2788 3 l-3 -388 -1360 0 -1360 0 -3 388 -2 387 1365 0 1365
0 -2 -387z m2762 -3 l0 -390 -1350 0 -1350 0 0 390 0 390 1350 0 1350 0 0
-390z m2628 3 l-3 -388 -1282 -3 -1283 -2 0 390 0 390 1285 0 1285 0 -2 -387z
m777 -3 l0 -385 -357 -3 -358 -2 0 390 0 390 358 -2 357 -3 0 -385z m-10645
-760 l0 -310 -257 2 -258 3 -3 295 c-1 162 0 300 3 307 3 10 63 13 260 13
l255 0 0 -310z m2760 0 l0 -310 -1350 0 -1350 0 0 310 0 310 1350 0 1350 0 0
-310z m3050 0 l0 -310 -1495 0 -1495 0 0 310 0 310 1495 0 1495 0 0 -310z
m2810 0 l0 -310 -1375 0 -1375 0 0 310 0 310 1375 0 1375 0 0 -310z m2025 0
l0 -305 -982 -3 -983 -2 0 310 0 310 983 -2 982 -3 0 -305z m-8815 -695 l0
-325 -1175 0 -1175 0 0 318 c0 175 3 322 7 325 3 4 532 7 1175 7 l1168 0 0
-325z m2870 0 l0 -325 -1400 0 -1400 0 0 325 0 325 1400 0 1400 0 0 -325z
m2658 -2 l2 -323 -1300 0 -1300 0 0 325 0 325 1298 -2 1297 -3 3 -322z m2630
0 l2 -323 -1285 0 -1285 0 0 325 0 325 1283 -2 1282 -3 3 -322z m660 0 l2
-323 -300 0 -300 0 0 325 0 325 298 -2 297 -3 3 -322z m-10338 -593 l0 -200
-413 2 -412 3 -3 198 -2 197 415 0 415 0 0 -200z m2838 3 l-3 -198 -1385 0
-1385 0 -3 198 -2 197 1390 0 1390 0 -2 -197z m3100 0 l-3 -198 -1515 0 -1515
0 -3 198 -2 197 1520 0 1520 0 -2 -197z m2522 -3 l0 -200 -1227 2 -1228 3 -3
198 -2 197 1230 0 1230 0 0 -200z m1878 3 l-3 -198 -902 -3 -903 -2 0 200 0
200 905 0 905 0 -2 -197z"/>
</g>
</svg>
