<?xml version="1.0" standalone="no"?>
<!DOCTYPE svg PUBLIC "-//W3C//DTD SVG 20010904//EN"
 "http://www.w3.org/TR/2001/REC-SVG-20010904/DTD/svg10.dtd">
<svg version="1.0" xmlns="http://www.w3.org/2000/svg"
 width="1125.000000pt" height="900.000000pt" viewBox="0 0 1125.000000 900.000000"
 preserveAspectRatio="xMidYMid meet">
<metadata>
Created by potrace 1.13, written by Peter Selinger 2001-2015
</metadata>
<g transform="translate(0.000000,900.000000) scale(0.100000,-0.100000)"
fill="#000000" stroke="none">
<path d="M0 4500 l0 -4500 5625 0 5625 0 0 4500 0 4500 -5625 0 -5625 0 0
-4500z m11205 4300 l0 -155 -512 -3 -513 -2 0 -30 0 -30 513 -2 512 -3 3 -172
2 -173 -5585 0 -5585 0 2 173 3 172 93 3 92 3 0 29 0 29 -92 3 -93 3 -3 145
c-1 79 0 150 2 157 4 11 1021 13 5583 11 l5578 -3 0 -155z m-9415 -940 l0
-310 -875 0 -875 0 0 303 c0 167 3 307 7 310 3 4 397 7 875 7 l868 0 0 -310z
m2658 -2 l2 -308 -1300 0 -1300 0 0 303 c0 167 3 307 7 310 3 4 587 6 1297 5
l1291 -3 3 -307z m2760 0 l2 -308 -1350 0 -1350 0 0 310 0 310 1348 -2 1347
-3 3 -307z m3050 0 l2 -308 -1495 0 -1495 0 0 310 0 310 1493 -2 1492 -3 3
-307z m950 0 l2 -308 -445 0 -445 0 0 310 0 310 443 -2 442 -3 3 -307z m2
-528 l0 -150 -75 0 -75 0 0 -30 0 -29 73 -3 72 -3 0 -140 0 -140 -5580 0
-5580 0 0 140 0 140 593 3 592 2 0 30 0 30 -595 0 -595 0 0 150 0 150 5585 0
5585 0 0 -150z m-9262 -952 l2 -388 -955 0 -955 0 0 383 c0 211 3 387 7 390 3
4 432 6 952 5 l946 -3 3 -387z m2812 2 l0 -390 -1375 0 -1375 0 0 390 0 390
1375 0 1375 0 0 -390z m2840 0 l0 -390 -1390 0 -1390 0 0 390 0 390 1390 0
1390 0 0 -390z m3098 -2 l2 -388 -1520 0 -1520 0 0 390 0 390 1518 -2 1517 -3
3 -387z m510 0 l2 -388 -225 0 -225 0 0 390 0 390 223 -2 222 -3 3 -387z m-3
-628 l0 -175 -482 -3 -483 -2 0 -30 0 -30 485 0 485 0 0 -155 0 -155 -5585 0
-5585 0 0 155 0 155 125 0 125 0 0 30 0 29 -122 3 -123 3 -3 165 c-1 90 0 170
2 177 4 11 1038 13 5583 11 l5578 -3 0 -175z m-9495 -1025 l0 -405 -832 2
-833 3 -3 403 -2 402 835 0 835 0 0 -405z m2710 0 l0 -405 -1325 0 -1325 0 0
405 0 405 1325 0 1325 0 0 -405z m2838 3 l-3 -403 -1387 -3 -1388 -2 0 405 0
405 1390 0 1390 0 -2 -402z m2962 -3 l0 -405 -1450 0 -1450 0 0 405 0 405
1450 0 1450 0 0 -405z m988 3 l-3 -403 -457 -3 -458 -2 0 405 0 405 460 0 460
0 -2 -402z m-3 -608 l0 -135 -32 -3 c-29 -3 -33 -7 -33 -32 0 -25 4 -29 33
-32 l32 -3 0 -130 0 -130 -5580 0 -5580 0 0 130 0 130 633 3 632 2 0 30 0 30
-632 2 -633 3 -3 124 c-1 69 0 131 2 138 4 11 1000 13 5583 11 l5578 -3 0
-135z m-9215 -875 l0 -345 -975 0 -975 0 0 338 c0 186 3 342 7 345 3 4 442 7
975 7 l968 0 0 -345z m2760 0 l0 -345 -1350 0 -1350 0 0 338 c0 186 3 342 7
345 3 4 611 7 1350 7 l1343 0 0 -345z m2840 0 l0 -345 -1390 0 -1390 0 0 338
c0 186 3 342 7 345 3 4 629 7 1390 7 l1383 0 0 -345z m3100 0 l0 -345 -1520 0
-1520 0 0 338 c0 186 3 342 7 345 3 4 687 7 1520 7 l1513 0 0 -345z m518 -2
l2 -343 -230 0 -230 0 0 345 0 345 228 -2 227 -3 3 -342z m0 -580 l-3 -168
-237 -3 -238 -2 0 -30 0 -30 238 -2 237 -3 0 -155 0 -155 -5580 0 -5580 0 0
155 0 155 427 3 428 2 0 30 0 30 -428 2 -427 3 -3 168 -2 167 5585 0 5585 0
-2 -167z m-9698 -1043 l0 -430 -732 2 -733 3 -3 415 c-1 228 0 421 3 427 3 10
159 13 735 13 l730 0 0 -430z m2710 0 l0 -430 -1325 0 -1325 0 0 430 0 430
1325 0 1325 0 0 -430z m2910 0 l0 -430 -1425 0 -1425 0 0 430 0 430 1425 0
1425 0 0 -430z m3040 0 l0 -430 -1485 0 -1485 0 0 430 0 430 1485 0 1485 0 0
-430z m1035 0 l0 -425 -487 -3 -488 -2 0 430 0 430 488 -2 487 -3 0 -425z m3
-642 l3 -148 -506 0 -506 0 3 -32 3 -33 503 -3 502 -2 0 -135 0 -135 -5585 0
-5585 0 0 135 0 134 103 3 102 3 3 33 3 32 -105 0 -106 0 0 143 c0 79 3 147 7
150 3 4 2515 6 5582 5 l5576 -3 3 -147z m-9423 -743 l0 -190 -870 0 -870 0 -3
180 c-1 98 0 185 2 192 4 11 172 13 873 11 l868 -3 0 -190z m2660 0 l0 -190
-1295 0 -1295 0 -3 180 c-1 98 0 185 2 192 4 11 251 13 1298 11 l1293 -3 0
-190z m2810 0 l0 -190 -1370 0 -1370 0 -3 180 c-1 98 0 185 2 192 4 11 265 13
1373 11 l1368 -3 0 -190z m3000 0 l0 -190 -1465 0 -1465 0 -3 180 c-1 98 0
185 2 192 4 11 283 13 1468 11 l1463 -3 0 -190z m950 0 l0 -190 -442 -3 -443
-2 0 195 0 195 443 -2 442 -3 0 -190z"/>
<path d="M890 8610 l0 -30 665 0 665 0 0 30 0 30 -665 0 -665 0 0 -30z"/>
<path d="M2750 8610 l0 -30 665 0 665 0 0 30 0 30 -665 0 -665 0 0 -30z"/>
<path d="M4610 8610 l0 -30 660 0 660 0 0 30 0 30 -660 0 -660 0 0 -30z"/>
<path d="M6467 8633 c-4 -3 -7 -17 -7 -30 l0 -23 665 0 665 0 0 30 0 30 -658
0 c-362 0 -662 -3 -665 -7z"/>
<path d="M8320 8610 l0 -30 665 0 665 0 0 30 0 30 -665 0 -665 0 0 -30z"/>
<path d="M1770 7150 l0 -30 665 0 665 0 0 30 0 30 -665 0 -665 0 0 -30z"/>
<path d="M3630 7150 l0 -30 665 0 665 0 0 30 0 30 -665 0 -665 0 0 -30z"/>
<path d="M5490 7150 l0 -30 660 0 660 0 0 30 0 30 -660 0 -660 0 0 -30z"/>
<path d="M7347 7173 c-4 -3 -7 -17 -7 -30 l0 -23 665 0 665 0 0 30 0 30 -658
0 c-362 0 -662 -3 -665 -7z"/>
<path d="M9200 7150 l0 -30 665 0 665 0 0 30 0 30 -665 0 -665 0 0 -30z"/>
<path d="M950 5540 l0 -30 665 0 665 0 0 30 0 30 -665 0 -665 0 0 -30z"/>
<path d="M2810 5540 l0 -30 665 0 665 0 0 30 0 30 -665 0 -665 0 0 -30z"/>
<path d="M4670 5540 l0 -30 665 0 665 0 0 30 0 30 -665 0 -665 0 0 -30z"/>
<path d="M6530 5540 l0 -30 665 0 665 0 0 30 0 30 -665 0 -665 0 0 -30z"/>
<path d="M8390 5540 l0 -30 660 0 660 0 0 30 0 30 -660 0 -660 0 0 -30z"/>
<path d="M1850 3950 l0 -30 665 0 665 0 0 30 0 30 -665 0 -665 0 0 -30z"/>
<path d="M3710 3950 l0 -30 660 0 660 0 0 30 0 30 -660 0 -660 0 0 -30z"/>
<path d="M5570 3950 l0 -30 660 0 660 0 0 30 0 30 -660 0 -660 0 0 -30z"/>
<path d="M7420 3950 l0 -30 665 0 665 0 0 30 0 30 -665 0 -665 0 0 -30z"/>
<path d="M9280 3950 l0 -30 665 0 665 0 0 30 0 30 -665 0 -665 0 0 -30z"/>
<path d="M1440 2460 l0 -30 665 0 665 0 0 30 0 30 -665 0 -665 0 0 -30z"/>
<path d="M3300 2460 l0 -30 665 0 665 0 0 30 0 30 -665 0 -665 0 0 -30z"/>
<path d="M5160 2460 l0 -30 660 0 660 0 0 30 0 30 -660 0 -660 0 0 -30z"/>
<path d="M7012 2463 l3 -28 663 -3 662 -2 0 30 0 30 -666 0 -665 0 3 -27z"/>
<path d="M8870 2460 l0 -30 665 0 665 0 0 30 0 30 -665 0 -665 0 0 -30z"/>
<path d="M910 795 l0 -35 658 2 657 3 3 33 3 32 -660 0 -661 0 0 -35z"/>
<path d="M2772 798 l3 -33 660 0 660 0 3 33 3 32 -666 0 -666 0 3 -32z"/>
<path d="M4632 798 l3 -33 658 -3 657 -2 0 35 0 35 -661 0 -660 0 3 -32z"/>
<path d="M6490 795 l0 -35 660 0 660 0 0 35 0 35 -660 0 -660 0 0 -35z"/>
<path d="M8342 798 l3 -33 660 0 660 0 3 33 3 32 -666 0 -666 0 3 -32z"/>
</g>
</svg>
