<?xml version="1.0" standalone="no"?>
<!DOCTYPE svg PUBLIC "-//W3C//DTD SVG 20010904//EN"
 "http://www.w3.org/TR/2001/REC-SVG-20010904/DTD/svg10.dtd">
<svg version="1.0" xmlns="http://www.w3.org/2000/svg"
 width="1811.000000pt" height="1217.000000pt" viewBox="0 0 1811.000000 1217.000000"
 preserveAspectRatio="xMidYMid meet">
<metadata>
Created by potrace 1.13, written by Peter Selinger 2001-2015
</metadata>
<g transform="translate(0.000000,1217.000000) scale(0.100000,-0.100000)"
fill="#000000" stroke="none">
<path d="M237 11932 c-222 -222 -238 -241 -235 -271 3 -31 10 -24 273 239 264
264 269 270 235 270 -33 0 -53 -18 -273 -238z"/>
<path d="M766 12118 c27 -29 63 -68 79 -86 l29 -33 -437 -437 c-409 -409 -437
-439 -437 -472 0 -34 15 -20 456 420 l455 455 52 -57 c29 -31 83 -91 121 -133
l70 -76 -494 -494 -495 -495 -35 35 -36 35 -26 -27 -27 -26 31 -39 31 -39 -52
-53 c-41 -42 -51 -58 -51 -86 l0 -34 71 69 71 70 46 -51 c163 -179 193 -214
181 -214 -8 0 -94 -80 -191 -177 -171 -171 -178 -179 -178 -218 l0 -40 196
203 c108 111 202 202 209 202 10 0 164 -166 224 -243 13 -17 -11 -44 -307
-340 -300 -300 -322 -325 -322 -357 0 -34 10 -25 339 304 l339 339 30 -34 c16
-19 68 -79 115 -134 l86 -100 -454 -455 c-426 -426 -455 -457 -455 -490 0 -34
16 -19 470 435 466 466 470 470 489 450 11 -11 60 -69 110 -130 l91 -110 -580
-580 c-545 -545 -580 -582 -580 -615 0 -34 22 -13 594 559 340 340 598 591
605 587 6 -4 61 -68 122 -142 l112 -136 -433 -433 -434 -434 -98 95 c-54 52
-102 94 -106 94 -5 0 -18 -13 -30 -29 l-22 -30 98 -95 97 -95 -252 -253 c-234
-234 -253 -256 -253 -288 0 -34 7 -28 269 234 l268 268 60 -74 c90 -111 153
-196 153 -205 0 -4 -169 -177 -375 -383 -351 -350 -375 -377 -375 -410 0 -34
12 -23 393 358 l393 393 20 -28 c11 -15 58 -81 104 -146 l83 -119 -496 -496
c-466 -466 -497 -499 -497 -532 0 -34 18 -17 510 475 316 316 513 506 518 500
5 -6 51 -72 102 -149 l92 -139 -611 -611 c-575 -575 -611 -613 -611 -646 0
-34 23 -11 625 590 384 384 628 621 633 614 4 -6 49 -75 101 -153 l95 -142
-727 -727 c-685 -685 -727 -729 -727 -762 0 -34 29 -6 740 705 459 459 743
736 748 730 5 -6 50 -71 100 -146 l90 -136 -753 -753 c-415 -415 -756 -752
-758 -750 -1 3 -39 50 -82 104 l-80 99 -3 -62 -3 -63 57 -70 56 -70 -56 -57
c-46 -47 -56 -63 -56 -91 l0 -34 68 67 c37 37 71 67 74 67 10 0 128 -172 168
-243 l33 -59 -172 -172 c-156 -156 -171 -174 -171 -206 0 -34 2 -32 184 149
161 161 185 181 191 162 8 -25 16 -26 55 -6 35 18 35 17 14 57 l-16 31 758
758 758 758 69 -92 c37 -51 73 -99 78 -107 7 -12 10 -12 17 -2 6 9 16 2 37
-28 l29 -41 -1087 -1087 c-1028 -1028 -1087 -1089 -1087 -1122 0 -33 46 11
1103 1068 l1103 1103 86 -123 c47 -68 90 -132 96 -144 10 -18 -4 -36 -134
-165 -79 -79 -144 -148 -144 -154 0 -6 -169 -179 -375 -385 l-375 -375 -58 58
c-55 54 -59 56 -75 40 -16 -16 -14 -20 40 -75 l58 -58 -663 -663 c-623 -623
-662 -664 -662 -697 0 -34 26 -9 678 643 l679 679 117 -127 c65 -69 116 -130
114 -135 -2 -4 -360 -367 -795 -805 -764 -767 -793 -797 -793 -833 0 -36 15
-22 818 781 l818 818 109 -126 c61 -69 111 -131 113 -138 1 -6 -416 -430 -928
-942 -879 -879 -930 -932 -930 -965 0 -34 38 3 948 913 521 521 950 947 954
947 3 0 50 -52 104 -116 54 -64 100 -111 102 -105 5 15 32 -5 32 -23 0 -6
-175 -186 -389 -400 -342 -342 -392 -388 -406 -376 -13 11 -20 9 -45 -15 -27
-25 -28 -30 -15 -45 13 -14 -52 -82 -635 -665 -612 -612 -650 -652 -650 -685
0 -34 25 -10 668 633 l669 669 109 -126 c60 -70 110 -130 112 -134 1 -4 -321
-330 -716 -725 l-718 -718 -59 72 -60 72 -3 -62 c-3 -57 -1 -65 28 -97 16 -19
30 -38 30 -42 0 -5 -13 -21 -30 -37 -22 -21 -30 -38 -30 -64 l0 -35 49 48 48
48 112 -135 c61 -75 111 -139 111 -144 0 -4 -72 -80 -160 -168 -146 -146 -160
-163 -160 -195 0 -34 2 -33 180 145 l181 180 77 -85 c42 -47 96 -105 119 -130
l42 -45 -147 -148 c-146 -146 -147 -147 -112 -147 31 0 48 13 163 127 l128
128 122 -128 122 -127 53 0 c34 0 51 4 47 10 -5 9 1342 1378 1365 1388 9 4
212 -288 208 -299 -2 -4 -245 -253 -541 -553 -520 -527 -538 -546 -504 -546
33 0 66 31 558 530 l522 530 98 -147 98 -147 -377 -380 c-357 -361 -375 -381
-347 -384 28 -3 61 27 390 358 l360 361 20 -25 c11 -14 56 -82 99 -152 l79
-126 -209 -209 c-205 -205 -208 -209 -174 -209 32 0 51 16 222 187 103 103
189 185 192 183 2 -3 45 -72 95 -155 l91 -149 -31 -32 -31 -32 96 -1 96 0 -21
41 -21 41 421 421 c368 368 422 418 433 404 7 -9 58 -69 112 -133 l99 -116
-329 -330 c-319 -320 -328 -329 -294 -329 32 0 57 22 345 310 l310 310 106
-132 c58 -73 109 -139 114 -147 5 -9 -41 -62 -156 -177 -162 -162 -163 -164
-129 -164 31 0 49 14 181 146 l146 146 79 -106 c43 -58 81 -106 85 -106 14 0
30 30 23 42 -4 7 -38 54 -76 104 -37 50 -68 95 -68 100 0 11 922 934 933 934
8 0 207 -265 207 -277 0 -4 -219 -227 -487 -495 -471 -471 -487 -488 -453
-488 33 0 64 29 500 465 256 256 469 465 475 465 9 0 194 -257 204 -283 2 -5
-140 -153 -315 -328 -310 -310 -318 -319 -284 -319 32 0 56 21 335 300 l300
299 99 -145 99 -146 -154 -154 c-153 -153 -154 -154 -119 -154 31 0 48 13 167
132 l131 131 65 -99 c35 -54 72 -114 82 -131 19 -33 20 -33 95 -33 l75 0 1790
1790 1791 1791 118 -126 119 -127 -473 -473 -473 -473 -40 47 c-65 76 -148
161 -156 161 -5 0 -14 -7 -21 -15 -10 -12 3 -31 76 -110 49 -53 92 -102 96
-109 5 -9 -351 -374 -1158 -1185 -1097 -1102 -1164 -1171 -1132 -1171 30 0 84
51 704 671 l671 671 90 -104 c50 -56 102 -116 116 -133 l26 -30 -537 -538
c-518 -518 -536 -537 -502 -537 33 0 66 31 550 515 283 283 518 515 521 515 4
0 55 -62 113 -137 l107 -137 -355 -355 -356 -356 -55 55 c-52 51 -56 53 -72
37 -16 -15 -13 -20 38 -76 90 -98 59 -117 469 294 195 195 358 355 361 355 8
0 209 -267 209 -277 0 -4 -96 -103 -212 -220 l-213 -213 40 0 c38 0 47 7 232
192 120 120 196 189 202 183 5 -6 52 -70 106 -144 l97 -133 -48 -49 -48 -49
34 0 c23 0 43 8 62 27 l29 27 22 -27 c20 -25 28 -28 70 -25 l48 3 -40 56 -40
55 444 444 c268 268 448 441 453 435 5 -6 53 -70 106 -144 l98 -134 -358 -358
c-348 -348 -358 -359 -324 -359 32 0 58 23 372 337 210 210 341 334 347 328 5
-6 52 -70 105 -144 l97 -135 -193 -193 c-190 -191 -192 -193 -158 -193 32 0
50 15 205 170 93 94 173 169 177 168 11 -5 198 -268 198 -280 0 -6 -9 -22 -21
-34 l-21 -23 75 1 76 0 -16 25 -16 25 404 404 c222 222 407 404 411 404 3 0
56 -60 117 -132 l110 -133 -297 -298 c-289 -289 -296 -297 -262 -297 32 0 55
20 312 277 l278 278 24 -25 c14 -14 68 -72 120 -130 l95 -105 -147 -147 c-147
-148 -147 -148 -112 -148 32 0 48 13 160 125 69 69 130 124 135 123 6 -2 62
-58 125 -126 l113 -122 54 0 c30 0 52 4 49 8 -3 5 251 264 565 578 313 313
569 574 569 579 0 11 221 235 232 235 11 0 210 -289 206 -299 -2 -6 -245 -255
-541 -555 -514 -521 -537 -546 -505 -546 31 -1 70 37 558 530 l525 531 98
-146 99 -147 -379 -381 c-358 -361 -376 -382 -348 -385 28 -3 61 27 390 358
198 198 362 360 365 360 5 -1 182 -274 189 -293 2 -5 -90 -103 -205 -218 -206
-206 -208 -209 -174 -209 32 0 51 15 220 185 102 102 188 185 191 185 6 0 151
-234 179 -289 10 -20 9 -26 -15 -51 l-27 -28 91 -1 c50 0 91 2 91 4 0 2 -9 19
-20 37 l-19 34 422 421 422 422 65 -76 c36 -43 85 -101 109 -131 l45 -53 -330
-330 c-319 -320 -328 -329 -294 -329 32 0 57 22 346 311 l310 310 112 -140
c62 -77 112 -143 112 -148 0 -4 -73 -81 -162 -170 -161 -162 -162 -163 -128
-163 31 0 49 14 181 146 l147 147 77 -104 c43 -57 79 -106 81 -108 5 -5 34 20
34 30 0 4 -34 53 -75 108 -41 56 -75 104 -75 109 0 11 924 932 935 932 13 -1
205 -264 205 -282 0 -7 -217 -230 -482 -495 -466 -466 -482 -483 -448 -483 33
0 64 29 503 468 276 276 470 463 475 456 4 -5 49 -69 100 -141 50 -72 92 -135
92 -140 0 -4 -143 -151 -317 -325 -309 -310 -317 -318 -283 -318 33 0 56 21
328 293 l292 292 0 92 0 93 -80 112 -80 113 80 80 c69 69 80 85 80 115 l0 35
-95 -95 c-52 -52 -96 -92 -98 -89 -45 57 -207 281 -207 287 0 4 90 97 200 207
184 184 200 203 200 235 0 34 -4 31 -218 -183 l-218 -218 -99 128 c-55 70
-106 136 -114 146 -13 18 11 44 318 351 308 308 331 334 331 366 0 34 -10 25
-347 -312 l-348 -348 -95 111 c-52 61 -101 120 -109 131 -14 18 15 49 442 476
l457 457 0 55 c-1 55 -1 55 -106 185 l-105 129 106 106 c93 93 105 109 105
140 l0 35 -118 -118 c-64 -64 -120 -117 -123 -117 -9 0 -219 257 -219 267 0 4
103 112 230 238 212 212 230 233 230 265 0 34 -5 30 -250 -215 -137 -137 -251
-247 -253 -245 -2 3 -52 63 -111 134 l-109 128 362 362 c337 337 361 363 361
396 0 34 -12 23 -374 -339 -205 -205 -378 -372 -383 -370 -10 4 -194 212 -222
251 -14 18 13 47 427 461 l442 442 55 -55 55 -54 0 60 c0 48 -4 65 -20 79 -11
10 -20 23 -20 30 0 7 9 20 20 30 13 12 20 31 20 54 l0 35 -43 -42 c-43 -43
-43 -43 -62 -22 l-18 20 -29 -27 c-25 -24 -26 -28 -13 -43 8 -9 15 -21 15 -26
0 -5 -198 -207 -439 -448 l-440 -440 -63 70 c-36 38 -80 86 -99 107 -34 38
-35 38 -52 19 -17 -18 -14 -22 60 -103 43 -46 87 -95 97 -107 l20 -23 -389
-389 -388 -388 -113 136 -113 137 1034 1035 c979 979 1035 1037 1035 1070 0
34 -44 -9 -1048 -1013 -576 -576 -1050 -1047 -1053 -1047 -5 0 -126 135 -207
231 l-25 31 959 959 c527 527 961 959 964 959 3 0 20 -24 38 -52 18 -29 36
-59 41 -67 7 -11 15 -10 45 8 l36 22 -37 57 c-20 31 -42 66 -49 77 -13 19 -1
33 161 195 160 160 175 178 175 210 0 34 -2 33 -189 -154 l-188 -188 -102 141
c-55 78 -101 145 -101 149 0 4 130 138 290 297 270 269 290 292 290 325 0 34
-8 27 -308 -273 l-308 -308 -102 134 c-56 74 -102 138 -102 143 0 5 185 194
410 419 384 384 410 412 410 445 0 34 -14 21 -430 -395 -236 -236 -431 -427
-433 -425 -4 5 -193 246 -210 268 -8 10 117 141 531 555 509 509 542 544 542
577 0 34 -20 15 -558 -523 l-557 -557 -112 137 -112 138 670 670 c662 663 669
670 669 710 l0 40 -688 -688 -688 -688 -112 135 c-62 74 -112 138 -112 143 0
4 307 316 683 691 l684 684 33 -39 c18 -21 71 -78 117 -127 l83 -90 0 62 0 63
-85 90 c-47 49 -85 93 -85 97 0 4 38 45 85 92 74 74 85 89 85 120 l0 35 -105
-105 -105 -105 -115 115 c-63 63 -115 119 -115 125 0 6 99 109 220 230 203
203 220 223 220 255 0 34 -5 30 -240 -205 l-240 -240 -125 125 -125 125 365
365 c343 343 365 367 365 400 -1 30 -17 53 -121 169 l-121 134 121 121 c108
108 121 125 121 156 0 35 0 34 -138 -103 l-137 -137 -117 128 -117 127 255
256 c238 238 255 258 252 288 -3 31 -10 24 -272 -238 l-269 -269 -68 71 c-63
68 -68 71 -85 55 -16 -16 -13 -21 50 -90 l66 -73 -222 -223 c-123 -123 -289
-286 -370 -363 l-146 -140 -74 88 c-40 48 -90 110 -111 137 l-38 50 771 771
c726 726 770 772 770 805 0 34 -31 4 -785 -750 -478 -478 -788 -781 -793 -775
-5 6 -48 62 -97 125 -48 63 -93 121 -98 128 -8 10 150 174 674 698 l684 684
-40 0 c-40 0 -47 -7 -700 -660 -363 -363 -663 -659 -666 -658 -10 5 -219 258
-219 266 0 4 235 242 522 529 504 504 522 523 488 523 -33 0 -66 -31 -543
-507 l-507 -508 -73 78 -72 79 -29 -31 -29 -30 72 -77 71 -76 -1112 -1110
c-897 -895 -1114 -1106 -1124 -1096 -31 33 -204 252 -204 259 0 5 678 686
1508 1514 1434 1433 1505 1506 1470 1503 -36 -3 -125 -90 -1527 -1490 l-1490
-1488 -116 141 -117 141 314 317 c172 174 367 371 432 439 66 67 122 122 125
122 3 0 306 300 672 667 366 367 672 675 681 683 9 8 116 117 239 243 219 223
223 227 189 227 -32 0 -52 -17 -232 -197 -109 -108 -199 -195 -201 -193 -3 3
-41 72 -86 155 l-81 149 42 43 42 43 -34 0 c-20 0 -42 -8 -56 -21 l-22 -21
-11 21 c-10 17 -21 21 -61 21 l-50 0 31 -51 32 -51 -1128 -1125 c-933 -931
-1129 -1123 -1140 -1112 -7 8 -58 68 -115 133 l-102 119 134 134 c73 73 137
133 143 133 5 0 161 151 346 336 l337 337 35 -64 c19 -35 43 -81 53 -101 10
-21 22 -38 26 -38 12 0 68 29 68 36 0 9 -52 108 -87 168 l-36 58 177 177 c97
97 176 181 176 186 0 5 161 171 357 367 348 348 357 358 323 358 -33 0 -57
-22 -358 -323 -177 -177 -322 -327 -322 -332 0 -6 -86 -96 -190 -200 -150
-149 -193 -187 -200 -175 -5 8 -53 74 -107 145 l-99 130 370 375 c354 359 368
375 339 378 -29 3 -57 -23 -387 -355 l-356 -358 -37 45 c-21 25 -73 85 -117
133 l-79 88 224 225 c219 219 223 224 189 224 -32 0 -52 -17 -240 -205 l-206
-206 -122 133 -121 133 72 73 71 72 -34 0 c-28 0 -44 -10 -91 -56 l-56 -56
-48 56 -47 56 -61 0 -60 0 77 -80 c42 -44 76 -84 76 -89 0 -11 -1918 -1921
-1929 -1921 -9 0 -191 252 -191 264 0 3 14 6 30 6 34 0 37 7 15 36 -13 18 39
72 868 902 847 847 881 882 847 882 -33 0 -82 -47 -890 -855 -470 -470 -858
-855 -862 -855 -3 0 -48 68 -98 151 l-93 151 704 704 704 704 -39 0 c-39 0
-50 -10 -714 -680 -370 -374 -677 -680 -680 -680 -4 0 -51 69 -105 152 l-98
152 453 453 c447 447 453 453 470 432 10 -11 26 -32 36 -46 16 -22 21 -24 41
-14 l22 12 -36 48 c-19 27 -35 52 -35 57 0 5 23 32 52 61 l52 53 -34 0 c-26 0
-43 -9 -71 -36 l-37 -36 -24 36 c-19 29 -29 36 -55 36 l-33 0 35 -49 c19 -26
35 -52 35 -57 0 -12 -898 -910 -903 -904 -16 19 -187 281 -187 287 0 4 161
169 357 365 347 347 357 358 323 358 -33 0 -58 -23 -375 -340 l-340 -340 -103
147 -102 148 192 192 c190 190 192 193 158 193 -32 0 -50 -15 -207 -172 -95
-95 -174 -170 -176 -168 -2 3 -50 70 -105 149 l-102 145 22 23 21 23 -86 0
c-48 0 -87 -3 -87 -6 0 -3 9 -18 19 -33 l20 -27 -334 -334 c-184 -184 -336
-332 -338 -330 -2 3 -51 62 -110 132 -59 70 -107 130 -107 135 0 4 102 110
227 235 223 223 227 228 193 228 -32 0 -52 -17 -247 -212 l-213 -212 -52 59
c-29 33 -81 90 -115 127 -35 37 -63 71 -63 75 0 4 35 43 77 85 l78 78 -35 0
c-29 0 -45 -10 -98 -62 l-63 -63 -53 56 c-42 45 -56 55 -69 47 -27 -14 -21
-29 35 -85 l53 -53 -971 -971 -971 -971 -115 135 -115 135 914 914 913 913
-37 3 c-36 3 -41 -1 -934 -894 -494 -494 -900 -896 -902 -894 -1 3 -54 63
-116 134 l-114 128 456 456 455 455 48 -95 48 -96 33 16 c18 9 33 21 33 27 0
7 -23 56 -50 111 l-51 98 278 278 c271 271 277 278 243 278 -32 0 -54 -19
-290 -255 l-256 -255 -67 117 c-36 65 -77 135 -89 156 l-22 37 99 100 100 100
-35 0 c-30 0 -46 -11 -113 -77 -71 -71 -80 -76 -90 -60 -7 10 -29 45 -49 78
l-37 59 -50 0 -50 0 65 -102 c35 -56 64 -106 64 -112 0 -6 -219 -230 -487
-499 l-488 -488 -67 73 c-63 70 -67 72 -84 56 -20 -20 -23 -15 79 -124 l38
-41 -366 -361 c-202 -199 -370 -362 -373 -362 -4 0 -23 21 -41 46 -19 26 -48
60 -64 78 -16 17 -50 57 -75 90 l-45 58 844 844 c810 810 843 844 809 844 -33
0 -81 -46 -857 -822 -522 -522 -826 -819 -832 -813 -29 31 -201 261 -201 269
0 6 305 316 677 688 652 652 677 678 643 678 -33 0 -74 -39 -697 -662 -411
-411 -666 -659 -671 -653 -44 48 -212 255 -212 262 0 4 235 243 522 530 504
504 522 523 488 523 -33 0 -66 -31 -543 -507 l-508 -508 -70 73 c-38 39 -73
72 -77 72 -5 0 -19 -11 -32 -25 l-23 -24 71 -78 70 -77 -1111 -1111 -1112
-1110 -107 133 c-60 73 -108 137 -108 142 0 5 678 687 1508 1515 1434 1433
1505 1506 1470 1503 -36 -3 -125 -90 -1528 -1491 l-1490 -1488 -112 137 c-62
75 -114 141 -116 148 -3 12 2172 2190 2212 2215 14 9 26 20 26 26 0 5 100 110
222 232 219 219 222 223 188 223 -32 0 -51 -16 -235 -200 l-199 -199 -56 107
c-31 59 -69 129 -84 155 l-29 48 44 45 43 44 -35 0 c-24 0 -42 -7 -54 -21
l-19 -20 -16 21 c-13 17 -25 21 -63 18 l-46 -3 30 -49 31 -49 -1126 -1123
c-619 -618 -1127 -1124 -1129 -1124 -2 0 -55 59 -117 131 l-113 131 134 134
c74 74 138 134 144 134 5 0 161 151 346 336 l337 337 51 -94 c28 -52 52 -98
54 -104 2 -6 19 -3 40 7 34 16 36 19 26 45 -6 16 -33 68 -61 117 l-51 88 177
177 c97 97 176 181 176 186 0 5 161 171 357 367 348 348 357 358 323 358 -33
0 -57 -22 -358 -323 -177 -177 -322 -327 -322 -332 0 -19 -379 -390 -388 -380
-5 6 -30 39 -55 75 -25 36 -71 97 -101 135 l-56 70 300 300 c165 165 300 304
300 310 0 5 30 40 67 77 l67 68 -35 0 c-27 0 -43 -8 -67 -33 -18 -18 -32 -37
-32 -43 0 -5 -142 -151 -315 -324 -310 -310 -315 -314 -333 -295 -10 11 -63
71 -117 133 l-98 114 224 224 c219 220 223 224 189 224 -32 0 -52 -17 -241
-206 l-206 -205 -122 132 -122 133 73 73 72 73 -34 0 c-28 0 -44 -10 -91 -56
l-56 -55 -51 55 c-50 56 -51 56 -108 56 l-58 0 50 -52z m8922 -205 l104 -146
-324 -324 c-177 -177 -325 -323 -328 -323 -8 0 -220 267 -220 277 0 9 652 663
660 663 3 -1 52 -67 108 -147z m-6354 -49 c42 -78 76 -145 76 -150 0 -5 -292
-302 -650 -659 -545 -545 -650 -654 -650 -677 0 -24 -4 -28 -28 -28 -22 0 -96
-69 -442 -415 -228 -228 -418 -414 -421 -413 -4 2 -54 59 -112 128 l-106 125
311 315 c599 606 1933 1928 1939 1921 4 -3 41 -69 83 -147z m11969 59 c30 -54
68 -124 83 -156 l28 -58 -652 -652 c-546 -546 -652 -657 -652 -680 0 -23 -4
-27 -27 -27 -23 0 -98 -70 -445 -417 -229 -229 -419 -415 -421 -413 -2 3 -49
59 -105 126 -56 67 -102 126 -102 132 0 9 2228 2242 2237 2242 1 0 26 -44 56
-97z m-6863 -50 c47 -52 98 -111 114 -130 l29 -35 -504 -504 -504 -504 -70 70
-71 70 -29 -30 -29 -30 69 -70 70 -70 -145 -145 c-80 -80 -149 -145 -155 -145
-6 0 -141 -130 -300 -290 -159 -159 -293 -290 -297 -290 -8 0 -208 247 -208
257 0 9 1932 1943 1940 1942 3 0 43 -43 90 -96z m4568 -12 c50 -54 103 -113
118 -131 l27 -32 -494 -494 -494 -495 -32 38 -32 38 -31 -30 -30 -29 30 -31
c16 -17 30 -35 30 -40 0 -17 -922 -919 -928 -908 -4 5 -51 71 -105 146 l-99
136 969 965 c532 531 971 965 974 966 3 0 47 -44 97 -99z m-6296 -189 l41 -74
-460 -460 -459 -459 -117 128 -116 128 486 487 487 487 49 -82 c27 -44 67
-114 89 -155z m3205 -86 c51 -73 95 -140 98 -147 3 -9 -113 -132 -312 -331
l-318 -318 -108 142 -107 143 322 322 c178 178 325 323 328 323 3 0 47 -61 97
-134z m-1194 -38 c57 -68 107 -129 112 -137 5 -9 -134 -155 -491 -512 -274
-275 -502 -499 -506 -499 -3 0 -57 59 -118 131 l-112 131 503 504 c277 277
505 504 506 504 1 0 49 -55 106 -122z m-7411 -27 c54 -63 98 -119 98 -125 0
-6 -218 -229 -485 -496 l-485 -485 -29 30 c-16 17 -70 75 -120 130 l-91 100
492 492 c410 410 494 490 507 480 8 -7 59 -63 113 -126z m12036 -40 l73 -85
-488 -488 c-268 -268 -491 -488 -494 -488 -6 0 -223 237 -226 248 -1 4 218
229 487 501 l489 495 43 -49 c24 -27 76 -87 116 -134z m-3193 -243 l95 -143
-827 -827 c-456 -456 -831 -827 -835 -826 -4 2 -52 64 -108 138 l-101 134 498
498 c274 274 500 498 503 498 3 -1 27 -32 54 -70 27 -39 52 -70 56 -70 4 0 13
7 20 15 11 13 10 21 -7 43 -11 15 -35 49 -54 75 l-33 48 314 314 c173 173 318
315 322 315 4 0 51 -64 103 -142z m-1168 -14 c59 -74 109 -139 111 -143 3 -9
-987 -991 -999 -991 -9 0 -219 257 -219 268 0 6 991 1002 997 1002 1 0 50 -61
110 -136z m-7455 29 c41 -54 88 -119 106 -144 l31 -46 -357 -356 c-197 -196
-362 -357 -367 -357 -5 0 -62 -52 -125 -115 l-116 -115 -99 115 c-55 63 -107
115 -117 115 -9 0 -15 7 -14 16 2 15 965 984 977 984 4 0 40 -44 81 -97z
m11976 35 c27 -35 75 -99 106 -143 l57 -79 -358 -358 c-197 -197 -362 -358
-368 -358 -5 0 -62 -51 -125 -114 l-115 -115 -100 115 c-54 63 -105 114 -111
114 -7 0 -14 6 -17 13 -4 11 959 987 975 987 3 0 29 -28 56 -62z m-9385 -373
l107 -128 -885 -879 c-487 -484 -990 -987 -1118 -1118 l-232 -239 -108 140
-107 140 292 301 c420 431 1921 1918 1933 1915 6 -2 58 -61 118 -132z m6252
-10 c52 -80 95 -151 95 -158 0 -14 -380 -397 -395 -397 -5 0 -289 -279 -630
-620 l-620 -620 -103 142 -103 142 828 828 c455 455 829 828 831 828 1 0 45
-65 97 -145z m5748 14 l108 -130 -1061 -1056 c-583 -580 -1060 -1060 -1060
-1067 0 -6 -25 -36 -56 -66 -54 -53 -56 -54 -70 -35 -7 12 -56 76 -109 144
l-95 123 293 300 c379 390 1919 1917 1932 1917 6 0 59 -58 118 -130z m-6804
-125 l30 -40 -499 -499 c-305 -305 -503 -496 -508 -490 -5 6 -55 70 -112 143
l-103 134 504 497 504 498 77 -101 c43 -56 91 -119 107 -142z m-3592 -72 l72
-79 -372 -365 -373 -365 -104 114 c-58 64 -109 122 -113 130 -7 11 86 107 360
378 l368 364 45 -49 c25 -27 77 -85 117 -128z m12023 -23 l49 -56 -371 -364
-371 -364 -80 85 c-44 47 -95 104 -115 128 l-35 42 369 365 369 364 68 -72
c37 -39 90 -97 117 -128z m-13385 -86 c54 -70 100 -134 102 -143 2 -9 -599
-617 -1591 -1609 l-1594 -1594 -91 137 c-51 75 -95 144 -98 153 -4 11 140 162
503 527 979 984 2655 2656 2663 2656 4 0 52 -57 106 -127z m11982 25 c44 -57
91 -119 106 -138 l26 -36 -1597 -1597 -1598 -1598 -99 146 -99 146 512 512
c282 282 512 517 512 522 0 13 1742 1755 1755 1755 6 0 98 88 205 195 107 107
195 195 196 195 1 0 37 -46 81 -102z m-5747 -88 c50 -82 90 -153 88 -157 -12
-26 -1618 -1614 -1626 -1609 -9 5 -171 233 -196 274 -5 8 198 219 630 652 351
352 643 640 649 640 5 0 89 79 185 175 96 96 176 175 177 175 1 0 43 -67 93
-150z m1662 -65 l113 -125 -477 -477 c-296 -296 -481 -474 -487 -468 -28 31
-191 267 -191 278 0 14 640 657 655 657 6 0 69 59 140 130 71 72 131 130 132
130 1 0 53 -56 115 -125z m-6315 -7 c59 -68 111 -125 115 -128 4 -3 -157 -170
-358 -370 l-365 -365 -125 130 -125 130 368 362 c203 200 371 363 375 363 4 0
55 -55 115 -122z m1704 4 c50 -59 99 -114 109 -123 17 -15 -28 -62 -781 -815
l-800 -799 -119 125 c-65 69 -119 129 -120 135 0 11 661 675 672 675 4 0 39
-45 79 -99 62 -86 75 -99 91 -90 10 5 18 13 18 18 0 4 -34 54 -76 111 l-76
103 314 314 c172 172 317 313 323 313 6 0 66 56 134 124 69 69 129 123 133
120 5 -3 50 -54 99 -112z m10305 -13 l117 -131 -359 -359 c-197 -197 -364
-359 -370 -359 -13 0 -244 244 -244 258 0 11 721 722 732 722 4 0 59 -59 124
-131z m-13436 -57 c0 -5 17 -29 39 -53 21 -24 69 -82 106 -128 l67 -84 -678
-678 c-669 -670 -678 -678 -700 -661 -12 9 -50 41 -85 71 l-63 53 -23 -28
c-13 -16 -23 -32 -23 -36 0 -4 34 -35 75 -69 42 -34 74 -65 73 -69 -2 -4 -406
-413 -899 -909 l-895 -902 -102 153 -102 153 1598 1598 c878 878 1600 1597
1604 1597 5 0 8 -4 8 -8z m12000 0 c0 -4 14 -23 30 -41 17 -18 65 -76 107
-128 l75 -96 -678 -678 -679 -678 -84 71 -84 72 -23 -30 c-13 -16 -24 -32 -24
-35 0 -4 34 -34 75 -68 41 -34 75 -65 75 -68 0 -2 -404 -411 -897 -908 l-897
-904 -102 152 -102 152 1596 1598 c879 878 1600 1597 1604 1597 5 0 8 -3 8 -8z
m-3882 -346 c1 -6 -220 -233 -491 -504 l-494 -494 -102 148 -103 147 482 482
483 483 111 -125 c61 -69 112 -131 114 -137z m-6432 122 c53 -62 103 -123 112
-136 15 -23 10 -29 -334 -373 -192 -192 -354 -348 -360 -347 -6 2 -64 58 -129
126 l-119 123 360 360 c197 197 362 359 366 359 4 0 51 -51 104 -112z m1717
-22 c59 -73 107 -137 107 -142 0 -12 -1588 -1600 -1593 -1594 -3 3 -41 50 -85
105 -44 55 -92 114 -106 130 -14 17 -25 34 -26 40 0 10 1580 1595 1590 1595 3
0 53 -60 113 -134z m2850 -5 c53 -77 97 -143 97 -148 0 -10 -1562 -1573 -1572
-1573 -7 0 -186 260 -197 284 -3 8 1558 1576 1569 1576 3 0 49 -63 103 -139z
m-5872 -203 c49 -53 89 -100 89 -105 0 -4 -299 -307 -664 -672 l-664 -664
-126 119 -126 119 678 678 677 678 24 -28 c13 -15 63 -72 112 -125z m11997 6
l100 -111 -668 -668 -669 -669 -124 120 -125 119 676 677 c634 635 678 677
693 660 9 -9 61 -67 117 -128z m-4099 -79 l112 -129 -793 -793 c-436 -436
-795 -793 -798 -793 -4 0 -42 41 -86 92 -43 50 -94 109 -113 131 l-34 39 263
263 c163 164 278 270 301 280 26 12 36 22 32 32 -4 10 155 176 493 514 274
274 502 498 505 497 3 -2 57 -61 118 -133z m-6318 -32 l100 -127 -340 -340
-341 -341 -120 120 -120 120 352 352 c193 193 355 350 360 347 4 -3 53 -62
109 -131z m1699 -15 l110 -143 -1517 -1517 c-835 -835 -1521 -1517 -1524
-1516 -9 4 -219 270 -219 277 0 3 310 316 688 694 l689 689 20 -35 c12 -19 24
-44 28 -56 3 -11 10 -21 14 -21 21 0 71 23 71 33 0 6 -16 40 -36 75 l-36 65
799 799 c439 439 799 798 800 798 1 0 52 -64 113 -142z m2840 -23 l100 -140
-797 -797 -797 -797 -98 150 c-54 83 -98 153 -98 157 0 14 1575 1581 1582
1574 4 -4 52 -70 108 -147z m-5861 -132 l121 -128 -670 -670 -670 -670 -117
124 c-65 68 -120 128 -122 134 -3 9 1317 1337 1331 1337 3 0 61 -57 127 -127z
m11987 15 c61 -62 116 -121 124 -131 12 -17 -44 -76 -651 -683 -365 -365 -668
-664 -673 -664 -9 0 -191 188 -229 237 l-20 25 664 664 c365 365 666 664 669
664 3 0 55 -51 116 -112z m-4090 -114 l107 -126 -794 -794 c-437 -437 -796
-794 -799 -794 -8 0 -210 248 -210 257 0 10 1572 1583 1582 1583 3 0 55 -57
114 -126z m-4626 -74 l99 -135 -1191 -1191 -1191 -1192 -73 77 c-68 72 -73 75
-90 59 -16 -16 -13 -21 55 -94 l72 -78 -308 -308 c-242 -242 -310 -305 -320
-295 -6 6 -54 68 -107 137 l-95 125 1517 1518 c834 834 1520 1516 1524 1515 4
-2 53 -64 108 -138z m2819 -12 c51 -72 95 -138 98 -147 2 -11 -91 -111 -281
-300 l-284 -284 -95 99 c-91 95 -96 98 -113 81 -18 -16 -15 -20 52 -90 38 -39
81 -85 94 -100 l24 -28 -499 -499 c-275 -275 -503 -500 -507 -500 -4 0 -19 21
-34 48 -15 26 -53 92 -86 146 -32 55 -58 104 -58 110 0 11 1580 1596 1590
1596 3 -1 47 -60 99 -132z m-5806 -106 c64 -64 117 -122 117 -127 0 -6 -303
-313 -673 -683 l-673 -672 -117 130 -118 131 663 669 c365 368 668 669 673
669 6 1 63 -52 128 -117z m12005 -5 l122 -122 -678 -678 -678 -677 -117 132
-118 132 668 668 c367 367 670 668 673 668 3 0 60 -55 128 -123z m-4197 -35
c26 -31 77 -94 114 -140 l68 -84 -433 -433 -434 -434 -97 94 c-54 52 -102 95
-106 94 -4 0 -18 -13 -31 -29 l-23 -30 38 -32 c45 -38 153 -149 153 -157 0 -3
-150 -156 -333 -339 l-333 -333 -76 98 c-41 54 -93 120 -114 146 l-38 48 795
795 c437 437 796 794 799 793 3 0 26 -26 51 -57z m-4591 -154 c52 -73 96 -137
98 -143 1 -5 -325 -338 -726 -738 l-728 -728 -81 93 c-45 51 -95 106 -112 122
-17 17 -31 35 -31 40 0 11 1470 1486 1480 1486 3 0 48 -60 100 -132z m2851
-72 l81 -119 -269 -269 -268 -269 -54 58 c-29 32 -83 91 -119 131 l-66 73 285
285 284 285 23 -28 c12 -15 59 -82 103 -147z m5646 -824 c-375 -375 -685 -681
-689 -680 -3 2 -54 59 -114 127 l-107 123 679 679 679 679 117 -122 116 -123
-681 -683z m-11434 801 l117 -118 -683 -682 c-375 -376 -685 -683 -688 -683
-4 0 -55 57 -114 126 l-108 126 674 674 c371 371 677 674 680 674 3 0 58 -53
122 -117z m-4140 -160 c53 -66 97 -124 97 -129 0 -5 -194 -203 -431 -440
l-432 -432 -110 140 -110 140 434 434 c331 331 436 431 444 421 6 -7 54 -68
108 -134z m12001 2 l105 -130 -435 -435 -436 -435 -28 35 c-15 19 -65 82 -110
139 l-82 104 433 433 c238 238 437 430 440 426 4 -4 55 -65 113 -137z m-4684
-82 c52 -74 97 -140 99 -145 4 -12 -1419 -1438 -1434 -1438 -5 1 -58 60 -118
133 l-107 132 727 727 c401 401 730 728 733 728 3 -1 48 -62 100 -137z m-2822
-134 l41 -45 -693 -693 -693 -693 -116 139 -116 138 686 686 686 687 82 -87
c44 -47 100 -106 123 -132z m-4248 -100 c50 -65 92 -124 95 -131 3 -8 -176
-194 -434 -452 l-438 -438 -94 133 c-52 73 -98 139 -103 147 -12 21 852 886
871 870 7 -6 54 -64 103 -129z m11998 7 c56 -74 102 -140 102 -148 0 -21 -868
-884 -879 -873 -5 6 -53 72 -106 148 l-98 139 434 434 c239 239 436 434 439
434 3 0 51 -61 108 -134z m-10347 -62 l118 -117 -926 -931 c-509 -512 -929
-932 -933 -934 -3 -1 -50 62 -102 141 l-96 144 900 907 c495 498 904 906 910
906 5 0 63 -52 129 -116z m7414 -5 c61 -67 111 -126 113 -133 1 -6 -528 -541
-1175 -1188 l-1178 -1177 -105 121 c-58 66 -109 126 -115 134 -8 11 134 158
624 648 349 349 638 633 643 630 4 -3 21 2 39 11 24 13 30 21 25 38 -5 19 75
103 502 530 279 279 509 507 512 507 3 0 55 -54 115 -121z m4587 4 l117 -116
-926 -931 c-509 -512 -929 -932 -932 -933 -9 -4 -186 267 -186 284 0 16 1782
1813 1798 1813 7 0 64 -53 129 -117z m-6334 -70 c45 -67 82 -126 82 -130 0 -5
-314 -322 -698 -706 l-697 -697 -118 132 -118 132 717 717 c709 709 718 717
734 696 9 -12 54 -77 98 -144z m-2940 80 c76 -89 162 -204 162 -217 0 -6 -310
-321 -688 -699 l-688 -688 -104 128 c-57 70 -108 134 -113 141 -8 10 153 177
679 703 379 379 692 689 695 689 4 0 29 -26 57 -57z m-2439 -307 l111 -120
-948 -950 c-521 -523 -951 -952 -957 -953 -9 -2 -194 259 -203 286 -2 5 417
430 929 945 751 755 935 934 945 924 6 -7 62 -67 123 -132z m11994 8 c64 -69
117 -129 117 -132 0 -15 -1898 -1904 -1907 -1899 -6 4 -54 70 -108 148 l-98
141 174 177 c535 542 1686 1691 1695 1691 6 0 63 -57 127 -126z m-4597 -19
c60 -69 110 -129 112 -133 1 -4 -533 -542 -1187 -1196 l-1188 -1188 -32 46
c-17 25 -66 89 -107 142 l-76 97 1179 1179 c648 648 1181 1178 1184 1178 4 0
55 -56 115 -125z m-1741 -183 l39 -63 -675 -675 -674 -674 -123 132 -122 133
697 697 697 697 61 -92 c34 -51 79 -120 100 -155z m3231 -67 c52 -66 94 -125
94 -130 0 -6 -373 -383 -828 -838 l-829 -829 -109 126 c-60 70 -110 132 -112
139 -2 12 954 975 961 967 2 -3 23 -31 46 -63 37 -51 45 -57 59 -45 9 7 19 13
21 15 2 1 -14 26 -36 55 -21 29 -43 59 -47 67 -6 9 86 108 325 347 276 276
336 331 347 321 8 -6 57 -66 108 -132z m-8617 -35 c61 -69 111 -127 111 -130
0 -3 -217 -222 -483 -488 l-483 -483 -72 73 c-67 69 -72 72 -88 56 -16 -16
-14 -21 49 -88 37 -39 67 -74 67 -78 0 -4 -204 -211 -453 -460 -450 -450 -454
-453 -469 -430 -42 64 -101 129 -107 119 -6 -9 -86 89 -100 123 -4 9 1900
1918 1910 1914 3 -2 56 -59 118 -128z m11986 18 c55 -61 106 -120 114 -131 13
-18 -20 -53 -470 -503 l-484 -484 -72 72 c-69 69 -74 71 -90 55 -16 -16 -14
-21 50 -85 37 -37 67 -72 67 -77 0 -6 -203 -213 -452 -462 l-451 -451 -55 71
c-67 88 -64 85 -69 69 -4 -11 -63 60 -97 117 -6 10 255 277 945 967 525 525
956 954 959 954 3 0 50 -50 105 -112z m-4568 -76 l76 -93 -479 -482 c-263
-265 -484 -485 -490 -489 -5 -4 -36 22 -68 58 -31 35 -63 64 -70 64 -7 0 -23
-11 -36 -25 l-23 -25 61 -64 c34 -35 62 -70 62 -78 0 -14 -3156 -3175 -3164
-3168 -18 19 -206 265 -206 269 0 3 394 400 875 881 828 828 875 873 889 855
8 -11 36 -60 62 -110 26 -49 48 -92 50 -94 5 -5 63 20 70 30 6 10 -32 86 -87
178 -22 34 -39 68 -39 75 0 6 534 546 1188 1199 l1187 1188 33 -38 c19 -21 68
-80 109 -131z m-1916 -29 c26 -43 66 -113 89 -157 l43 -78 -639 -639 c-351
-351 -642 -638 -646 -637 -14 5 -228 242 -228 252 0 11 1320 1336 1330 1336 3
0 26 -35 51 -77z m3358 -208 c50 -71 91 -135 91 -140 0 -6 -364 -374 -808
-818 l-809 -809 -64 69 c-36 37 -92 96 -124 131 l-59 63 829 829 c646 646 832
827 841 817 7 -6 53 -70 103 -142z m-8613 13 c53 -62 103 -120 110 -128 11
-14 -53 -82 -469 -498 l-482 -481 -114 125 -114 126 484 484 c266 266 485 484
486 484 0 0 45 -51 99 -112z m12017 -16 l108 -126 -483 -483 c-265 -265 -483
-481 -483 -480 -1 1 -52 58 -115 125 l-113 124 484 484 c266 266 486 484 489
483 3 0 54 -57 113 -127z m-9203 13 c40 -44 89 -99 108 -123 l36 -43 -415
-415 c-228 -228 -417 -414 -420 -414 -4 0 -57 57 -118 128 l-111 127 413 413
c226 227 417 411 423 410 7 -2 44 -39 84 -83z m4542 0 c35 -44 85 -107 110
-141 l47 -61 -484 -483 c-266 -266 -486 -482 -488 -480 -2 3 -48 58 -103 123
-54 65 -105 128 -113 139 -14 18 15 49 470 504 266 266 487 483 490 482 4 -2
36 -39 71 -83z m-7096 -302 c53 -65 104 -126 113 -136 14 -17 -17 -50 -459
-492 -261 -261 -478 -475 -482 -475 -3 0 -59 59 -123 132 l-116 132 478 478
c263 263 481 478 484 478 4 0 51 -53 105 -117z m12014 -15 c61 -73 109 -135
108 -139 -9 -22 -934 -949 -945 -947 -8 2 -65 62 -128 133 l-114 130 477 478
c262 262 480 477 484 477 4 0 57 -59 118 -132z m-3435 -23 l99 -146 -789 -789
-789 -789 -29 27 c-16 15 -70 71 -120 125 l-91 98 810 810 c445 445 809 809
810 809 0 0 45 -65 99 -145z m-5732 -5 c59 -72 107 -134 107 -138 0 -4 -186
-193 -413 -420 l-414 -414 -99 118 c-54 65 -105 127 -113 137 -13 18 17 50
400 433 228 228 416 414 419 414 3 0 54 -59 113 -130z m-2564 -300 c56 -69
101 -127 101 -130 0 -3 -213 -218 -473 -478 l-473 -473 -102 120 c-56 66 -107
130 -114 141 -12 19 22 55 462 495 371 371 477 472 486 462 7 -6 58 -68 113
-137z m11990 15 c56 -69 104 -131 106 -138 3 -6 -208 -225 -468 -485 l-473
-473 -95 113 c-51 62 -103 123 -113 136 l-19 24 474 474 c261 261 477 474 480
474 3 0 52 -56 108 -125z m-9160 -23 c61 -67 111 -126 111 -130 0 -10 -838
-847 -843 -842 -6 6 -197 241 -210 258 -8 10 87 111 404 428 228 228 417 413
420 412 4 -2 56 -58 118 -126z m5694 -27 c54 -80 97 -148 97 -152 0 -9 -1522
-1533 -1531 -1533 -3 0 -59 59 -124 131 l-118 131 784 784 c431 431 787 784
790 784 3 0 49 -65 102 -145z m-7182 -124 c8 -11 56 -67 108 -126 l94 -107
-323 -323 -323 -323 -98 139 c-55 76 -99 142 -99 146 0 13 604 613 616 613 6
0 18 -9 25 -19z m-1082 -166 l102 -129 -473 -473 c-260 -260 -475 -473 -478
-473 -5 1 -199 244 -214 268 -12 21 934 967 950 949 6 -6 57 -70 113 -142z
m11991 13 l111 -141 -473 -474 c-260 -260 -475 -473 -478 -472 -3 0 -39 44
-80 97 -41 53 -90 116 -109 140 l-35 43 475 475 c260 261 475 474 476 474 1 0
52 -64 113 -142z m-9147 6 c64 -69 117 -129 117 -132 0 -17 -860 -866 -868
-857 -47 54 -212 264 -212 271 0 10 831 844 841 844 3 0 58 -57 122 -126z
m5652 -76 l95 -143 -752 -752 c-414 -414 -755 -750 -758 -747 -3 3 -53 62
-112 132 l-106 127 761 763 c419 419 765 762 769 762 4 0 51 -64 103 -142z
m-10305 30 c52 -57 102 -112 112 -123 17 -20 10 -29 -456 -494 l-473 -473 -89
129 c-50 70 -94 134 -98 142 -6 10 118 140 445 467 250 250 457 454 460 454 3
0 48 -46 99 -102z m12007 -5 c54 -60 104 -115 110 -123 10 -14 -62 -90 -461
-489 l-473 -473 -78 113 c-43 63 -87 126 -99 142 l-20 28 454 454 c250 250
458 455 461 455 4 0 51 -48 106 -107z m-4622 -97 l107 -129 -1593 -1593 c-876
-876 -1597 -1590 -1601 -1586 -4 4 -54 70 -112 147 l-105 140 1587 1587 c1228
1229 1589 1585 1598 1575 6 -6 60 -70 119 -141z m-4141 -117 c58 -70 106 -130
106 -135 0 -10 -2612 -2624 -2622 -2624 -5 0 -110 118 -217 243 -14 17 50 83
944 977 528 528 962 960 965 960 3 0 18 -22 33 -48 52 -87 50 -85 86 -65 17
10 31 23 31 28 0 6 -21 42 -45 80 l-45 70 323 323 c177 177 325 321 329 320 3
-2 54 -60 112 -129z m1690 -36 l116 -128 -442 -442 c-244 -244 -445 -443 -448
-442 -9 1 -205 257 -205 268 0 10 845 868 856 870 3 1 59 -56 123 -126z
m-2884 -29 l103 -136 -981 -981 -981 -981 -113 118 c-62 66 -114 124 -116 130
-1 6 222 235 496 509 l498 497 63 -85 c34 -47 69 -85 77 -85 35 0 23 34 -40
118 l-65 87 472 473 c260 259 475 472 478 472 4 0 53 -61 109 -136z m12001 0
l103 -135 -981 -981 -980 -980 -96 99 c-52 54 -105 111 -118 127 l-22 28 500
500 500 500 63 -86 c62 -86 78 -98 98 -73 8 9 -6 34 -53 97 -36 47 -65 89 -65
95 0 11 931 945 942 945 4 0 53 -61 109 -136z m-13762 -37 l113 -127 -1022
-1028 c-562 -565 -1025 -1028 -1028 -1028 -9 -2 -232 242 -232 253 0 4 160
168 355 363 195 195 355 359 355 365 0 6 71 81 158 168 118 118 160 155 169
146 9 -9 19 -6 42 10 34 25 37 31 19 49 -10 10 89 114 467 492 264 264 482
476 486 472 3 -4 56 -64 118 -135z m11996 7 c61 -69 110 -132 110 -138 0 -7
-458 -474 -1018 -1037 l-1019 -1023 -118 124 c-66 69 -119 130 -120 135 0 6
160 170 355 365 195 195 355 359 355 365 0 6 71 81 158 168 111 111 161 154
168 147 8 -8 20 -6 42 7 34 19 39 32 20 51 -10 10 88 113 462 487 261 261 479
475 485 475 5 0 60 -57 120 -126z m-13738 -77 l87 -128 -753 -752 c-714 -714
-753 -751 -767 -732 -37 51 -184 277 -184 283 0 4 336 343 747 754 746 746
748 748 765 725 9 -12 56 -80 105 -150z m11986 23 c53 -77 97 -143 97 -148 0
-10 -1498 -1507 -1504 -1502 -2 3 -47 70 -100 149 l-96 144 123 126 c324 335
1361 1371 1371 1371 7 0 56 -63 109 -140z m-2897 -35 c60 -69 110 -128 112
-133 1 -4 -349 -358 -778 -787 l-780 -780 -55 55 -55 54 -25 -24 c-14 -13 -25
-28 -25 -34 0 -6 22 -33 50 -61 l50 -50 -796 -795 c-615 -615 -797 -792 -804
-780 -4 8 -49 72 -99 142 -50 70 -91 131 -91 135 0 9 3172 3183 3181 3183 4 0
56 -56 115 -125z m-4158 -97 c44 -54 93 -114 108 -133 l27 -36 -433 -434 -434
-434 -21 19 c-21 20 -21 20 -50 -10 -28 -29 -28 -30 -10 -50 19 -21 16 -24
-420 -460 -242 -242 -442 -440 -445 -440 -3 0 -45 45 -95 99 -49 55 -95 100
-101 100 -6 1 -17 -6 -24 -14 -10 -12 4 -32 84 -116 53 -56 96 -105 96 -108 0
-3 -174 -180 -387 -393 l-388 -387 -112 137 -113 137 1312 1312 c722 722 1316
1312 1320 1311 3 -2 42 -47 86 -100z m1740 -71 c50 -58 92 -109 92 -114 0 -4
-202 -211 -450 -458 -426 -426 -451 -449 -464 -430 -8 11 -57 74 -109 140
l-94 120 446 448 446 448 20 -24 c11 -14 62 -72 113 -130z m-2931 -33 c51 -71
93 -136 93 -144 0 -8 -431 -446 -959 -974 l-958 -958 -44 48 c-24 27 -69 76
-99 109 -30 33 -64 70 -75 83 l-19 23 974 974 c536 536 979 974 985 972 5 -2
51 -62 102 -133z m12007 -8 l99 -138 -964 -965 -964 -964 -59 63 c-32 35 -84
92 -116 128 l-58 66 970 977 c534 538 976 976 982 974 6 -2 56 -66 110 -141z
m-13741 -15 c59 -71 107 -133 107 -137 0 -5 -232 -241 -517 -526 l-516 -516
-106 93 c-58 51 -119 105 -136 119 l-30 25 535 536 c294 294 539 535 545 535
5 0 58 -58 118 -129z m11998 4 c57 -69 106 -130 108 -136 2 -6 -230 -244 -514
-529 l-518 -518 -91 82 c-50 45 -110 97 -134 116 l-43 34 538 538 c296 296
540 538 544 538 3 0 52 -56 110 -125z m-1802 -49 c47 -63 76 -94 80 -87 5 8
17 1 34 -23 15 -19 27 -38 27 -43 0 -18 -3090 -3097 -3098 -3088 -5 6 -57 67
-115 136 l-105 126 357 357 358 358 82 -111 c73 -97 85 -109 102 -100 10 5 19
13 19 16 0 3 -38 57 -84 118 l-84 112 382 382 c366 366 383 382 397 362 13
-19 17 -20 47 -9 37 14 38 18 16 60 l-16 31 758 758 c417 417 761 755 765 751
3 -4 39 -52 78 -106z m-2835 -38 l119 -130 -399 -399 -399 -399 -55 55 c-54
53 -57 55 -73 37 -16 -17 -14 -21 33 -67 28 -27 50 -54 50 -60 0 -5 -164 -174
-365 -375 -361 -361 -365 -364 -384 -345 -48 51 -211 246 -211 252 0 9 1553
1563 1560 1562 3 -1 59 -59 124 -131z m-4145 -148 c56 -68 101 -127 101 -130
0 -3 -190 -195 -423 -428 l-423 -422 -121 132 -121 133 431 432 c339 340 434
430 444 420 6 -6 57 -68 112 -137z m1641 58 c30 -40 77 -103 104 -141 l49 -69
-879 -879 -880 -880 -92 115 c-51 63 -101 125 -112 138 l-19 24 412 412 412
412 85 -114 c47 -64 88 -115 91 -116 3 0 13 6 23 13 15 11 9 23 -73 132 l-90
120 452 453 c248 248 454 452 457 452 3 -1 30 -33 60 -72z m-4602 -139 c56
-71 105 -135 107 -142 3 -6 -220 -237 -494 -511 l-499 -499 -131 124 -130 124
517 518 c284 284 519 517 522 516 3 0 51 -58 108 -130z m12006 -7 c58 -73 106
-136 106 -140 0 -4 -225 -232 -500 -507 l-500 -500 -127 128 -128 127 515 515
c283 283 518 514 522 513 4 -2 54 -63 112 -136z m-1784 -68 l93 -136 -147
-147 c-80 -80 -146 -151 -146 -156 0 -6 -169 -179 -375 -385 l-375 -375 -53
53 c-55 54 -74 62 -84 36 -4 -10 12 -34 48 -70 l54 -54 -1005 -1005 -1006
-1006 -56 88 c-31 48 -77 115 -102 148 l-45 60 1546 1547 c851 851 1550 1545
1553 1543 4 -2 49 -66 100 -141z m-2730 -114 c0 -3 -179 -184 -398 -403 l-398
-398 -119 126 -118 127 399 399 399 400 117 -123 c65 -68 118 -125 118 -128z
m-4281 -43 c55 -71 101 -132 101 -135 0 -4 -187 -194 -415 -422 l-416 -415
-47 55 c-26 30 -77 89 -114 130 l-66 75 421 423 c232 232 425 421 428 420 4
-2 52 -61 108 -131z m4511 -208 l49 -55 -402 -402 -402 -402 -119 136 -119
136 399 400 399 399 74 -78 c40 -43 95 -103 121 -134z m-4270 -100 c56 -72
103 -136 106 -143 2 -6 -181 -195 -406 -421 l-411 -410 -37 45 c-20 24 -71 85
-114 135 l-76 90 416 418 c229 229 418 417 419 417 1 0 47 -59 103 -131z
m4427 -81 c38 -46 87 -105 108 -131 l39 -48 -401 -401 -400 -400 -113 132
-112 132 398 399 c219 220 402 399 405 399 4 0 38 -37 76 -82z m-9343 -30 c-4
-7 -14 -21 -23 -31 -15 -18 -13 -21 24 -50 79 -63 216 -189 213 -197 -2 -4
-213 -219 -469 -478 l-466 -471 -116 132 -116 132 219 220 c121 121 220 225
220 230 0 9 510 525 518 525 2 0 0 -6 -4 -12z m11986 -24 l-24 -25 34 -27 c66
-51 215 -189 215 -199 0 -5 -210 -222 -466 -481 l-465 -471 -113 129 c-61 71
-113 131 -114 134 -2 5 943 966 951 966 3 0 -5 -11 -18 -26z m-8507 -126 c53
-57 105 -116 118 -131 l22 -29 -444 -444 c-244 -244 -447 -443 -450 -442 -11
5 -229 257 -229 265 0 10 872 883 882 883 3 0 49 -46 101 -102z m4524 -94 c59
-64 109 -121 111 -127 1 -7 -166 -180 -371 -385 l-373 -373 -55 63 c-31 35
-81 94 -113 132 l-58 69 368 368 c203 203 372 369 376 369 3 0 55 -52 115
-116z m1602 -67 c37 -56 78 -121 91 -145 l24 -43 -384 -384 c-212 -212 -387
-385 -390 -385 -3 1 -54 62 -113 137 l-108 137 397 397 c219 219 402 396 406
393 5 -3 39 -51 77 -107z m2434 -730 l-478 -478 -36 43 c-22 25 -38 37 -40 29
-3 -7 -42 31 -88 84 l-84 97 89 92 c49 50 262 265 474 478 l385 388 127 -127
128 -128 -477 -478z m-11645 600 l122 -122 -478 -478 -479 -479 -36 44 c-26
30 -37 38 -37 25 0 -11 -34 22 -86 83 l-87 102 89 91 c257 266 850 857 859
857 6 0 65 -55 133 -123z m3472 -150 l19 -23 -449 -449 c-272 -271 -453 -446
-458 -440 -5 6 -55 65 -112 133 l-103 124 448 448 448 448 95 -109 c52 -60
102 -119 112 -132z m4416 38 l114 -130 -376 -375 -375 -375 -32 37 c-18 20
-72 80 -121 133 l-90 96 375 375 c206 206 378 373 382 371 5 -1 60 -61 123
-132z m-7509 -285 c10 -14 -55 -83 -476 -504 l-488 -488 -99 123 c-54 68 -103
129 -108 137 -6 11 112 135 470 493 l478 478 105 -111 c58 -61 111 -119 118
-128z m11902 109 l114 -121 -490 -490 -489 -489 -95 118 c-52 65 -100 126
-108 136 -13 18 23 56 460 493 261 261 478 474 484 474 6 0 62 -54 124 -121z
m-5778 31 c105 -122 149 -177 149 -186 0 -15 -1622 -1629 -1626 -1619 -2 6
-47 76 -99 155 l-94 145 792 793 c436 436 797 791 803 790 6 -2 40 -37 75 -78z
m-2861 -92 l109 -133 -447 -447 c-246 -247 -450 -448 -454 -448 -4 0 -56 60
-117 133 l-109 132 446 448 c246 246 450 447 454 447 5 0 57 -60 118 -132z
m6832 -50 l112 -119 -1530 -1530 c-841 -841 -1532 -1529 -1536 -1529 -10 0
-208 268 -208 283 0 6 213 225 474 486 l474 474 22 -44 c12 -24 24 -46 26 -47
6 -7 74 20 74 29 0 5 -11 32 -25 59 -14 27 -25 55 -25 62 0 7 451 464 1002
1015 776 776 1005 1000 1015 991 7 -6 63 -64 125 -130z m-2328 -12 c58 -68
106 -128 106 -133 0 -4 -164 -172 -364 -372 l-364 -364 -79 84 c-44 46 -97
103 -118 127 l-39 43 370 370 c203 203 372 369 376 369 4 0 54 -56 112 -124z
m-7599 -166 l117 -131 -898 -902 c-494 -496 -901 -903 -905 -905 -7 -3 -219
264 -219 276 0 4 173 180 384 391 l384 384 87 -117 c48 -64 89 -116 90 -116
13 0 35 14 35 23 0 6 -38 61 -85 123 -47 63 -85 117 -85 121 0 6 970 983 976
983 1 0 54 -59 119 -130z m11975 28 c46 -51 97 -108 114 -125 l29 -33 -899
-902 c-494 -497 -902 -903 -907 -903 -4 0 -54 61 -112 135 l-106 134 383 383
c211 211 386 383 390 383 4 0 44 -48 88 -107 45 -60 85 -109 89 -111 4 -1 14
3 24 10 15 12 7 25 -74 133 l-90 119 488 488 c268 268 491 488 494 488 3 0 44
-42 89 -92z m-5720 -64 c58 -69 106 -129 108 -132 1 -4 -796 -805 -1772 -1781
l-1773 -1773 -97 142 c-53 77 -96 144 -96 148 0 4 411 418 913 920 l914 914
67 -126 68 -126 31 17 c18 8 34 17 36 19 2 2 -29 65 -69 140 l-71 138 813 813
c447 447 815 813 818 812 3 0 52 -57 110 -125z m-4625 -46 c63 -73 114 -136
113 -140 -6 -15 -781 -789 -788 -786 -4 2 -56 65 -115 142 l-107 138 388 389
c214 214 390 389 391 389 2 0 55 -59 118 -132z m1721 -3 c57 -71 104 -132 104
-135 0 -9 -899 -904 -903 -900 -2 3 -52 65 -111 139 l-108 134 448 448 c247
247 453 448 457 446 4 -1 55 -61 113 -132z m10270 17 c55 -64 107 -127 115
-140 13 -21 0 -36 -376 -412 -214 -215 -394 -390 -400 -389 -5 0 -59 64 -118
141 l-109 141 389 389 c213 213 390 388 393 387 3 0 50 -53 106 -117z m-3422
-57 l106 -120 -1543 -1543 c-848 -848 -1545 -1542 -1548 -1542 -4 0 -49 57
-100 128 -51 70 -97 133 -103 140 -15 20 3054 3087 3071 3069 6 -6 59 -66 117
-132z m-2234 -164 c0 -3 -160 -166 -355 -361 -353 -353 -355 -355 -374 -335
-11 11 -65 70 -120 130 l-100 110 366 367 366 366 109 -135 c59 -75 108 -138
108 -142z m-7701 -10 c61 -71 111 -133 111 -137 0 -5 -407 -416 -904 -913
-598 -598 -906 -899 -911 -891 -5 9 -9 9 -14 1 -4 -7 -48 43 -105 120 l-98
132 104 106 c101 105 1702 1711 1704 1711 1 0 51 -58 113 -129z m12025 -26
l95 -110 -906 -907 c-658 -658 -910 -904 -919 -897 -8 7 -13 6 -16 -1 -2 -6
-47 49 -102 121 l-98 132 103 106 c57 58 464 467 904 908 l800 803 22 -23 c12
-12 65 -71 117 -132z m-5760 -17 l118 -131 -1798 -1798 c-990 -990 -1802
-1798 -1806 -1797 -4 2 -51 70 -103 152 l-96 150 1778 1778 c978 978 1780
1778 1783 1777 3 0 58 -60 124 -131z m-4644 -40 c52 -62 101 -121 109 -131 14
-17 -14 -47 -394 -427 l-408 -408 -99 140 c-54 77 -98 143 -98 146 0 8 783
792 791 792 3 0 48 -51 99 -112z m1714 -15 c53 -68 96 -129 96 -135 0 -13
-879 -898 -891 -898 -8 0 -209 256 -209 267 0 15 885 893 897 891 6 -2 55 -58
107 -125z m10288 15 c51 -62 100 -121 108 -131 12 -17 -20 -52 -391 -423 -222
-222 -407 -404 -410 -404 -6 0 -165 222 -193 269 -6 9 101 123 385 407 217
217 397 394 400 394 4 0 49 -51 101 -112z m-3445 -23 c53 -63 100 -110 103
-105 4 6 13 3 23 -8 15 -17 -5 -39 -378 -412 -348 -348 -396 -392 -410 -380
-14 12 -20 10 -43 -13 -22 -23 -25 -30 -15 -46 10 -16 -72 -101 -707 -736
-395 -395 -722 -715 -727 -712 -12 8 -69 -50 -59 -60 7 -7 -762 -783 -776
-783 -3 0 -53 63 -109 141 l-102 141 1544 1544 c849 849 1547 1544 1551 1544
4 0 51 -52 105 -115z m-9914 -205 c59 -71 107 -133 107 -137 0 -5 -411 -419
-913 -921 l-913 -913 -102 141 c-56 77 -102 144 -102 148 0 8 1802 1812 1810
1812 3 0 54 -58 113 -130z m12001 1 c58 -71 106 -133 106 -138 0 -4 -411 -419
-913 -921 l-913 -913 -95 133 c-52 73 -99 139 -104 147 -5 9 246 267 896 917
497 497 907 904 910 904 4 0 54 -58 113 -129z m-10359 -115 l97 -119 -974
-974 -973 -974 -83 88 c-45 48 -99 107 -119 131 l-37 43 537 537 c478 478 538
535 549 519 12 -16 15 -16 46 3 36 22 38 28 17 56 -13 18 11 45 398 431 386
387 413 412 428 395 9 -9 60 -71 114 -136z m11986 18 l112 -136 -974 -974
-974 -975 -50 55 c-27 30 -81 89 -119 131 l-70 76 538 537 c476 476 538 535
550 520 12 -16 14 -16 44 2 37 22 36 21 20 55 -11 26 -2 36 398 436 225 225
410 409 411 409 1 0 52 -61 114 -136z m-15433 -4 c56 -70 102 -132 102 -137 0
-4 -173 -181 -385 -393 l-384 -384 -23 30 c-21 26 -130 154 -182 212 l-20 23
389 389 c215 215 392 390 395 390 3 0 51 -59 108 -130z m5127 -15 c58 -77 105
-142 105 -145 0 -3 -202 -207 -448 -453 l-448 -448 -112 148 -112 148 447 447
c246 247 452 447 456 445 4 -1 55 -65 112 -142z m6874 16 c56 -72 103 -133
103 -136 0 -10 -752 -775 -761 -775 -4 0 -59 59 -121 131 l-113 131 389 389
c214 214 391 389 394 389 3 0 52 -58 109 -129z m-9940 -221 c56 -71 104 -135
106 -142 7 -17 -1829 -1853 -1843 -1844 -12 7 -191 263 -200 285 -5 14 1816
1843 1829 1835 4 -2 53 -63 108 -134z m11988 17 c44 -56 90 -117 104 -135 l23
-33 -919 -919 c-506 -506 -923 -920 -927 -920 -8 0 -208 285 -208 297 0 4 410
418 912 920 656 656 915 909 924 902 6 -5 48 -56 91 -112z m-5693 -24 l116
-128 -478 -477 c-262 -263 -480 -478 -484 -478 -8 0 -218 257 -218 268 0 9
933 942 942 942 3 0 58 -57 122 -127z m-4676 -75 c54 -68 102 -129 106 -137 6
-9 -121 -143 -455 -477 l-464 -464 -47 47 -48 47 -30 -29 -30 -29 47 -48 48
-48 -470 -470 c-259 -259 -472 -470 -475 -469 -3 0 -56 59 -119 131 l-114 130
969 969 c533 533 972 969 976 969 4 0 52 -55 106 -122z m12009 -9 c56 -68 102
-131 102 -139 1 -8 -206 -222 -459 -475 l-460 -460 -50 50 -50 49 -25 -24
c-14 -13 -25 -29 -25 -35 0 -6 18 -29 40 -50 22 -21 40 -44 40 -49 0 -12 -920
-936 -932 -936 -4 0 -59 59 -123 132 l-117 131 969 969 c532 532 972 967 978
965 5 -2 56 -59 112 -128z m-10405 84 c9 -10 54 -74 102 -142 l87 -125 -922
-922 -923 -923 -103 140 c-57 76 -103 143 -103 147 0 10 908 917 913 912 2 -3
20 -29 41 -57 41 -57 47 -61 66 -39 9 12 3 27 -31 76 l-43 61 444 444 c245
245 448 445 451 445 3 0 13 -8 21 -17z m3318 -280 c51 -60 100 -120 110 -134
l19 -25 -487 -487 -487 -487 -109 141 -108 142 478 478 c264 264 482 479 486
479 4 0 48 -48 98 -107z m-6267 -86 c37 -54 67 -101 67 -105 0 -4 -243 -250
-540 -547 l-541 -540 -55 58 c-45 46 -59 55 -70 46 -22 -18 -17 -30 38 -86
l53 -53 -365 -365 c-201 -201 -367 -365 -370 -365 -5 0 -182 265 -189 282 -2
6 412 426 919 933 l923 923 32 -41 c17 -23 62 -86 98 -140z m11987 21 c44 -64
80 -120 80 -125 0 -4 -243 -251 -541 -548 l-540 -540 -54 60 c-46 51 -55 57
-69 46 -9 -7 -16 -16 -16 -20 0 -4 23 -33 52 -65 l51 -58 -365 -365 -366 -366
-93 139 c-52 77 -96 143 -98 148 -2 5 412 424 920 932 l924 924 17 -23 c10
-12 54 -74 98 -139z m-10385 -54 l108 -136 -459 -459 -459 -460 -40 48 c-22
26 -73 85 -114 131 l-74 84 464 464 c255 255 465 464 465 464 1 0 50 -61 109
-136z m1581 69 c7 -10 48 -75 93 -145 44 -69 81 -132 81 -140 0 -19 -1816
-1832 -1828 -1824 -8 5 -171 232 -196 275 -6 10 245 267 910 932 506 506 921
919 924 919 3 0 10 -8 16 -17z m3315 -243 c35 -50 79 -115 98 -146 l35 -55
-480 -480 c-263 -263 -482 -478 -486 -477 -6 3 -184 237 -202 267 -6 10 125
147 475 497 266 266 487 484 490 484 4 0 35 -41 70 -90z m2334 -43 c58 -67
105 -126 105 -132 0 -12 -1428 -1441 -1433 -1435 -2 3 -55 63 -117 134 l-113
128 718 718 c396 396 723 716 727 714 5 -3 56 -60 113 -127z m-6943 -153 l76
-101 -457 -457 -458 -458 -99 127 c-54 69 -105 135 -113 146 -14 19 12 47 444
479 l458 458 36 -46 c21 -26 71 -92 113 -148z m-4807 -156 c58 -73 105 -137
105 -143 0 -6 -320 -330 -711 -720 l-710 -710 -37 41 c-21 23 -73 85 -116 139
l-79 97 714 714 c393 393 717 714 722 714 4 0 54 -60 112 -132z m11941 79 c22
-29 70 -91 107 -138 l66 -85 -714 -714 c-628 -628 -716 -713 -729 -700 -8 8
-60 69 -115 135 l-100 120 717 718 c394 394 719 717 722 716 3 0 23 -23 46
-52z m-3990 -150 l105 -131 -443 -443 c-244 -244 -446 -443 -449 -443 -5 0
-153 165 -208 233 l-24 29 448 448 c247 247 453 446 457 444 5 -3 56 -65 114
-137z m-7700 -259 l106 -141 -699 -699 c-384 -384 -702 -697 -708 -695 -5 2
-61 59 -122 128 l-113 124 713 713 c391 391 713 712 715 712 1 0 50 -64 108
-142z m12003 0 l103 -141 -698 -698 c-385 -385 -703 -698 -708 -696 -5 2 -60
59 -122 128 l-113 124 712 713 c392 391 714 712 717 712 3 0 52 -64 109 -142z
m-4053 -58 l104 -135 -443 -442 c-243 -244 -444 -443 -447 -442 -3 0 -53 62
-112 137 l-107 137 442 443 c243 243 446 441 450 439 5 -1 56 -63 113 -137z
m-4695 -30 c41 -47 89 -105 108 -129 l34 -43 -469 -469 c-258 -258 -471 -469
-475 -469 -6 0 -198 224 -213 248 -6 11 107 130 460 483 258 258 472 468 475
467 4 -2 40 -41 80 -88z m12018 -18 c39 -45 83 -99 98 -118 l26 -35 -469 -470
c-258 -258 -472 -468 -476 -467 -4 2 -54 59 -113 128 l-105 125 472 472 c368
368 475 470 484 460 7 -6 44 -49 83 -95z m-15013 -208 l97 -136 -104 -106
c-57 -59 -367 -372 -689 -695 l-585 -588 -122 128 -122 128 697 698 c388 388
703 695 710 692 6 -2 12 0 12 5 0 6 2 10 5 10 2 0 48 -61 101 -136z m11999 4
c48 -67 89 -127 92 -134 2 -7 -300 -318 -684 -704 l-688 -692 -117 123 c-65
68 -117 129 -118 134 0 18 1387 1398 1399 1391 6 -4 11 -2 11 4 0 21 18 0 105
-122z m-4120 4 c27 -37 74 -100 104 -141 l54 -73 -443 -443 -443 -443 -108
141 -108 142 442 443 c243 243 444 442 447 442 3 -1 27 -31 55 -68z m-4590
-143 c58 -74 105 -136 105 -139 0 -3 -211 -217 -470 -475 -450 -450 -470 -469
-484 -449 -8 11 -60 77 -115 145 l-101 124 472 472 c260 260 476 469 480 465
5 -5 55 -69 113 -143z m11990 15 c58 -74 108 -141 111 -147 2 -7 -207 -223
-464 -480 l-469 -469 -116 144 -115 143 471 473 c260 259 473 472 474 472 1 0
50 -61 108 -136z m-13812 -21 c40 -43 93 -101 119 -128 l47 -51 -392 -392
-393 -392 -97 152 -98 152 368 368 c202 202 369 368 371 368 2 0 36 -35 75
-77z m12051 -53 l116 -125 -392 -392 c-216 -216 -393 -391 -394 -390 -1 1 -45
69 -98 152 l-96 150 367 367 c203 203 371 367 375 366 4 -2 59 -59 122 -128z
m-5346 -192 c54 -73 101 -138 105 -144 3 -5 -194 -210 -437 -453 l-443 -443
-69 93 c-38 52 -87 118 -107 146 l-38 53 437 440 c240 242 441 440 446 440 4
0 52 -60 106 -132z m-6389 -103 c61 -69 111 -129 111 -133 0 -15 -832 -836
-837 -825 -2 6 -44 76 -93 155 l-89 143 392 393 c216 215 395 392 399 392 3 0
56 -56 117 -125z m11998 4 c59 -67 109 -129 111 -138 1 -10 -153 -172 -408
-426 -355 -355 -412 -408 -423 -395 -19 20 -177 286 -177 296 0 11 772 784
782 784 4 0 56 -55 115 -121z m-4029 -73 l104 -119 -403 -403 c-222 -222 -408
-403 -414 -401 -5 2 -55 65 -109 141 l-99 137 393 394 c328 328 396 392 409
382 8 -7 61 -65 119 -131z"/>
</g>
</svg>
