<?xml version="1.0" standalone="no"?>
<!DOCTYPE svg PUBLIC "-//W3C//DTD SVG 20010904//EN"
 "http://www.w3.org/TR/2001/REC-SVG-20010904/DTD/svg10.dtd">
<svg version="1.0" xmlns="http://www.w3.org/2000/svg"
 width="1811.000000pt" height="1217.000000pt" viewBox="0 0 1811.000000 1217.000000"
 preserveAspectRatio="xMidYMid meet">
<metadata>
Created by potrace 1.13, written by Peter Selinger 2001-2015
</metadata>
<g transform="translate(0.000000,1217.000000) scale(0.100000,-0.100000)"
fill="#000000" stroke="none">
<path d="M475 11926 c-21 -15 -27 -4 98 -174 l68 -94 -17 -26 c-10 -15 -49
-69 -86 -120 -82 -111 -83 -114 -59 -129 16 -10 27 1 106 109 48 66 91 116 95
111 4 -4 45 -59 90 -121 72 -98 84 -111 99 -100 9 7 18 13 20 15 2 1 -38 59
-89 128 -50 69 -90 132 -87 139 3 8 42 64 87 125 46 62 81 113 79 114 -2 2
-11 8 -20 15 -15 11 -28 -2 -102 -103 l-85 -116 -87 120 c-48 67 -88 121 -89
121 -1 0 -11 -6 -21 -14z"/>
<path d="M1756 11925 c-17 -13 -13 -21 73 -138 50 -69 91 -127 91 -131 0 -3
-40 -61 -90 -128 -49 -68 -90 -125 -90 -128 0 -3 9 -11 19 -17 18 -11 27 -1
106 107 47 66 88 120 90 120 2 0 43 -54 90 -120 79 -108 88 -118 106 -107 10
6 19 14 19 17 0 3 -41 60 -90 128 -50 67 -90 125 -90 128 0 3 39 60 86 125 48
66 85 121 83 122 -2 2 -11 8 -20 15 -15 11 -27 -2 -100 -103 -45 -63 -86 -112
-90 -108 -3 5 -43 59 -89 121 -45 61 -82 112 -83 112 -1 0 -10 -7 -21 -15z"/>
<path d="M3037 11925 c-17 -12 -12 -22 72 -138 50 -69 91 -128 91 -132 0 -4
-41 -63 -91 -132 -50 -68 -90 -125 -88 -126 2 -2 11 -8 20 -15 15 -11 27 2 99
100 45 62 86 117 90 121 4 5 47 -46 95 -112 78 -106 90 -119 107 -110 25 14
22 20 -60 131 -37 51 -76 105 -86 120 l-17 27 81 112 c45 62 84 118 87 125 2
7 -4 17 -15 23 -17 9 -29 -3 -103 -105 -76 -105 -85 -114 -97 -97 -7 10 -45
62 -84 115 -38 54 -73 100 -77 102 -3 2 -14 -2 -24 -9z"/>
<path d="M4297 11925 c-17 -12 -11 -22 69 -131 47 -66 88 -125 91 -131 3 -7
-36 -69 -87 -139 -85 -117 -90 -127 -73 -139 10 -7 21 -11 24 -9 4 2 44 56 90
119 45 63 85 112 90 110 4 -3 44 -57 90 -120 72 -101 84 -113 101 -104 11 6
17 17 14 24 -3 8 -40 63 -84 122 -43 59 -81 113 -85 120 -5 8 24 56 73 123 45
61 83 117 86 125 3 7 -3 18 -14 24 -17 9 -29 -3 -102 -105 -45 -63 -86 -112
-90 -107 -4 4 -42 56 -84 115 -43 59 -81 110 -84 112 -4 2 -15 -2 -25 -9z"/>
<path d="M5572 11928 c-7 -7 -12 -16 -12 -21 0 -5 36 -59 81 -119 44 -61 83
-116 86 -124 3 -7 -36 -70 -85 -138 -86 -119 -89 -125 -72 -141 18 -16 22 -12
87 77 38 51 78 105 87 121 13 19 22 24 30 18 7 -6 47 -59 91 -120 67 -94 81
-108 97 -100 10 5 18 14 18 18 0 5 -37 60 -83 122 -46 63 -86 119 -90 126 -4
7 27 59 78 129 47 64 85 120 85 125 0 4 -8 13 -18 18 -16 8 -30 -7 -101 -105
l-83 -115 -89 120 c-49 67 -90 121 -92 121 -2 0 -8 -5 -15 -12z"/>
<path d="M6852 11928 c-7 -7 -12 -16 -12 -20 0 -5 40 -63 89 -131 l90 -122
-23 -30 c-130 -173 -159 -218 -149 -233 5 -9 14 -17 19 -18 5 -2 47 51 94 116
47 66 87 119 90 119 3 0 43 -54 90 -119 47 -66 89 -118 94 -117 5 2 14 10 19
19 8 12 -6 37 -59 109 -38 52 -79 108 -91 125 l-22 31 86 118 c65 90 83 122
76 134 -16 26 -27 22 -58 -22 -16 -23 -53 -75 -83 -115 l-53 -73 -87 120 c-48
66 -89 120 -92 121 -4 0 -11 -5 -18 -12z"/>
<path d="M8148 11929 c-10 -5 -18 -14 -18 -18 0 -5 40 -64 90 -131 l90 -123
-45 -61 c-136 -188 -141 -197 -121 -212 18 -13 25 -6 98 94 44 59 83 114 88
122 5 8 10 13 13 10 2 -3 43 -58 91 -123 84 -114 88 -118 106 -102 18 16 16
21 -67 134 -47 64 -89 121 -94 126 -4 6 29 61 78 129 69 94 84 122 76 135 -6
9 -14 16 -19 15 -5 0 -46 -51 -91 -113 l-82 -112 -75 103 c-42 57 -81 111 -88
120 -10 13 -17 15 -30 7z"/>
<path d="M9425 11927 c-22 -17 -26 -9 82 -155 50 -67 81 -118 76 -125 -4 -7
-42 -61 -85 -120 -44 -59 -81 -114 -84 -122 -3 -7 3 -18 14 -24 17 -9 29 3
101 104 46 63 86 117 90 119 4 3 47 -49 95 -115 77 -105 90 -118 104 -107 10
7 19 13 21 15 2 1 -38 58 -89 127 -55 75 -90 132 -87 141 4 8 43 64 87 125 76
105 80 113 63 126 -22 16 -26 12 -124 -125 l-67 -92 -82 113 c-102 140 -93
131 -115 115z"/>
<path d="M10706 11925 c-17 -13 -13 -21 73 -140 54 -74 89 -131 85 -138 -4 -7
-45 -65 -92 -130 -47 -65 -83 -119 -81 -120 2 -2 11 -8 20 -15 14 -11 28 3
103 108 48 66 89 120 91 120 1 0 42 -54 90 -120 76 -106 89 -119 103 -108 10
7 19 13 21 15 2 1 -38 58 -88 127 -50 69 -91 129 -91 132 0 4 39 61 86 126 47
66 85 120 83 121 -2 2 -11 8 -20 15 -15 11 -27 -1 -95 -95 -42 -59 -80 -112
-84 -116 -4 -4 -46 46 -94 112 -48 67 -88 121 -89 121 -1 0 -10 -7 -21 -15z"/>
<path d="M11966 11925 c-18 -13 -14 -21 73 -139 50 -68 91 -127 91 -130 0 -3
-40 -61 -90 -128 -49 -68 -90 -125 -90 -128 0 -3 9 -11 19 -17 18 -11 27 -1
106 107 47 66 88 120 90 120 1 0 42 -54 90 -120 78 -108 88 -118 106 -107 10
6 19 14 19 17 0 3 -41 60 -90 127 -50 67 -90 125 -90 129 0 3 39 60 86 125 48
66 85 121 83 122 -2 2 -11 8 -20 15 -15 11 -27 -2 -100 -103 -45 -63 -86 -112
-90 -108 -3 5 -43 59 -89 121 -45 61 -82 112 -83 112 -1 0 -10 -7 -21 -15z"/>
<path d="M13236 11925 c-17 -13 -13 -21 73 -138 50 -68 91 -127 91 -131 0 -3
-41 -63 -91 -132 -50 -69 -89 -126 -88 -127 2 -2 12 -8 21 -15 14 -12 27 1
103 107 48 67 89 121 91 121 1 0 42 -54 90 -120 77 -105 89 -118 106 -109 11
6 17 17 14 24 -3 8 -43 66 -91 130 -47 63 -85 118 -85 121 0 4 36 56 81 116
44 61 83 116 85 123 3 8 -3 18 -14 24 -17 9 -29 -3 -102 -105 -46 -63 -87
-111 -90 -107 -4 5 -44 59 -89 121 -46 61 -83 112 -84 112 -1 0 -10 -7 -21
-15z"/>
<path d="M14517 11926 c-17 -13 -13 -22 68 -131 48 -65 89 -123 92 -131 3 -7
-36 -69 -85 -138 -87 -119 -90 -125 -72 -141 19 -18 27 -10 159 177 19 26 37
45 41 43 4 -3 45 -56 91 -119 71 -98 85 -113 101 -105 10 5 18 14 18 18 0 5
-37 60 -83 122 -46 63 -86 119 -90 126 -4 7 29 61 78 129 47 65 85 121 85 126
0 4 -8 12 -19 17 -16 9 -29 -5 -101 -105 l-82 -115 -89 120 c-49 67 -90 121
-92 121 -1 0 -10 -7 -20 -14z"/>
<path d="M15812 11928 c-7 -7 -12 -16 -12 -20 0 -5 40 -63 89 -131 l90 -122
-23 -30 c-130 -173 -159 -218 -149 -233 5 -9 14 -17 19 -18 5 -2 47 51 94 116
47 66 87 119 90 119 3 0 43 -53 90 -118 71 -100 88 -117 103 -110 9 6 17 14
17 20 0 6 -31 52 -68 102 -37 51 -77 106 -89 123 l-22 31 84 116 c47 64 85
121 85 126 0 6 -8 14 -17 20 -18 10 -22 5 -148 -170 l-36 -50 -87 120 c-48 66
-89 120 -92 121 -4 0 -11 -5 -18 -12z"/>
<path d="M17098 11929 c-10 -6 -18 -14 -18 -18 0 -5 40 -64 89 -131 l90 -123
-22 -31 c-12 -17 -52 -73 -89 -123 -37 -51 -68 -97 -68 -103 0 -5 8 -14 18
-19 14 -8 30 9 102 109 47 66 87 119 90 119 3 0 45 -54 93 -120 73 -101 90
-119 102 -109 8 7 15 17 15 22 0 5 -39 64 -87 130 -49 66 -87 124 -86 129 2 5
40 59 85 120 63 87 79 115 71 127 -5 9 -14 17 -19 18 -5 2 -44 -46 -87 -107
-43 -60 -82 -109 -87 -109 -4 0 -43 48 -86 108 -42 59 -80 110 -83 114 -3 4
-14 2 -23 -3z"/>
<path d="M1088 10674 c-15 -15 -9 -25 68 -131 47 -62 87 -120 91 -128 3 -9
-31 -65 -83 -136 -66 -92 -85 -125 -78 -137 5 -8 14 -15 19 -15 6 -1 48 51 95
115 55 77 88 114 95 108 6 -5 46 -58 90 -119 67 -94 81 -108 97 -100 10 5 18
14 18 18 0 5 -37 60 -83 122 -46 63 -86 119 -90 125 -4 7 30 62 78 128 47 64
85 121 85 126 0 5 -8 13 -17 19 -15 8 -31 -9 -101 -105 l-84 -115 -89 121
c-49 66 -90 120 -92 120 -1 0 -10 -7 -19 -16z"/>
<path d="M2372 10678 c-7 -7 -12 -16 -12 -20 0 -5 40 -63 89 -130 52 -71 86
-127 82 -133 -5 -5 -45 -61 -91 -124 -63 -87 -80 -118 -73 -130 5 -8 14 -16
19 -18 5 -1 47 51 94 117 47 66 87 119 90 119 3 0 43 -54 90 -119 47 -66 89
-118 94 -117 5 2 14 10 19 19 8 12 -6 37 -59 109 -38 52 -79 108 -91 125 l-22
31 84 116 c47 64 85 121 85 126 0 6 -8 14 -17 20 -14 7 -25 -2 -62 -52 -24
-34 -62 -86 -83 -115 l-39 -53 -87 120 c-48 66 -89 120 -92 121 -4 0 -11 -5
-18 -12z"/>
<path d="M3637 10679 c-9 -6 -17 -14 -17 -19 0 -5 40 -64 89 -132 l90 -122
-37 -51 c-20 -27 -60 -83 -89 -122 -29 -40 -53 -77 -53 -83 0 -5 8 -14 18 -19
15 -8 30 9 102 110 47 65 87 118 90 118 3 0 43 -53 90 -119 47 -66 89 -118 94
-117 5 2 14 10 19 18 7 12 -10 43 -73 130 -46 63 -87 119 -91 125 -5 6 25 57
78 128 67 92 84 122 76 134 -5 9 -14 17 -19 18 -5 2 -44 -46 -87 -107 -43 -60
-82 -109 -87 -109 -5 0 -46 51 -92 114 -70 96 -86 113 -101 105z"/>
<path d="M4908 10679 c-10 -5 -18 -14 -18 -18 0 -5 40 -64 90 -132 l89 -123
-46 -65 c-26 -36 -66 -92 -90 -125 -49 -66 -50 -71 -25 -85 16 -9 30 6 103
109 46 66 86 119 89 119 3 0 45 -54 93 -120 85 -116 89 -120 107 -104 18 16
16 21 -67 133 -47 65 -89 122 -94 127 -4 6 30 62 81 132 85 117 88 122 70 138
-18 16 -22 12 -87 -77 -38 -51 -76 -104 -85 -117 l-16 -23 -77 103 c-42 57
-81 112 -88 121 -9 13 -16 15 -29 7z"/>
<path d="M6185 10677 c-21 -16 -26 -7 82 -156 46 -63 80 -118 76 -125 -4 -6
-42 -60 -85 -119 -44 -59 -81 -114 -84 -122 -3 -7 3 -18 14 -24 17 -9 29 3
101 104 46 63 86 117 90 120 5 2 45 -47 90 -110 46 -63 86 -117 90 -119 3 -2
14 2 24 9 17 12 12 22 -73 139 -51 70 -90 132 -87 140 3 7 41 62 85 123 78
107 80 111 62 128 -18 16 -20 15 -55 -33 -20 -28 -58 -80 -84 -117 l-48 -66
-83 113 c-102 140 -93 131 -115 115z"/>
<path d="M7476 10675 c-17 -13 -13 -21 73 -139 50 -69 91 -128 91 -131 0 -2
-40 -60 -90 -127 -49 -68 -90 -125 -90 -128 0 -3 9 -11 19 -17 18 -11 27 -1
106 107 47 66 88 120 90 120 1 0 42 -54 90 -120 76 -106 89 -119 103 -108 10
7 19 13 21 15 2 1 -38 58 -88 127 -50 69 -91 129 -91 132 0 3 39 60 86 125 48
66 85 121 83 122 -2 2 -11 8 -20 15 -15 11 -26 0 -87 -85 -39 -54 -77 -106
-85 -117 -12 -17 -20 -9 -101 103 -48 67 -88 121 -89 121 -1 0 -10 -7 -21 -15z"/>
<path d="M8756 10675 c-17 -13 -13 -21 73 -138 50 -69 91 -128 91 -132 0 -4
-41 -63 -91 -132 -50 -68 -90 -125 -88 -126 2 -2 11 -8 20 -15 15 -11 27 2 99
100 45 62 86 117 90 121 4 5 47 -46 95 -112 78 -106 90 -119 107 -110 11 6 17
16 14 24 -2 7 -43 65 -90 129 -47 63 -86 118 -86 122 0 3 36 56 81 116 44 61
82 115 85 122 2 6 -4 16 -15 23 -17 10 -27 0 -102 -103 -45 -63 -86 -111 -90
-107 -3 5 -43 59 -89 121 -45 61 -82 112 -83 112 -1 0 -10 -7 -21 -15z"/>
<path d="M10038 10673 c-15 -14 -8 -26 69 -132 47 -64 87 -122 90 -128 3 -7
-36 -69 -86 -139 -85 -116 -90 -127 -74 -139 10 -7 21 -11 24 -9 4 2 44 56 90
119 45 63 85 112 90 110 4 -3 44 -57 90 -120 72 -101 84 -113 101 -104 11 6
17 17 14 24 -3 8 -40 63 -84 122 -43 59 -81 113 -85 120 -5 7 28 60 78 129 47
64 85 120 85 125 0 4 -8 13 -18 18 -16 8 -30 -7 -101 -105 -46 -64 -87 -112
-91 -107 -4 4 -42 56 -84 115 -43 59 -81 110 -85 112 -4 3 -15 -2 -23 -11z"/>
<path d="M11298 10674 c-15 -15 -9 -26 73 -137 49 -66 89 -126 89 -131 0 -6
-40 -66 -89 -133 -86 -117 -89 -122 -71 -138 18 -16 22 -12 87 77 38 51 78
105 87 121 13 19 22 24 30 18 7 -6 47 -59 91 -120 67 -94 81 -108 97 -100 10
5 18 14 18 18 0 5 -37 60 -83 122 -46 63 -86 119 -90 125 -3 6 32 64 78 129
47 65 85 121 85 126 0 5 -8 13 -18 18 -15 8 -30 -7 -101 -105 l-83 -115 -89
120 c-49 67 -90 121 -92 121 -1 0 -10 -7 -19 -16z"/>
<path d="M12572 10678 c-7 -7 -12 -16 -12 -20 0 -4 39 -62 88 -129 48 -66 86
-123 85 -127 -2 -4 -42 -60 -90 -126 -67 -92 -84 -122 -76 -134 5 -9 14 -17
19 -18 5 -2 47 51 94 116 47 66 87 119 90 119 3 0 43 -54 90 -119 47 -66 89
-118 94 -117 5 2 14 10 19 18 7 12 -7 39 -60 110 -38 52 -79 108 -91 125 l-21
31 84 116 c47 64 85 121 85 127 0 5 -8 14 -18 19 -14 8 -29 -8 -92 -96 -41
-57 -79 -108 -85 -113 -6 -5 -43 38 -95 111 -47 65 -87 119 -90 119 -4 0 -11
-5 -18 -12z"/>
<path d="M13857 10679 c-9 -6 -17 -14 -17 -19 0 -5 40 -64 90 -131 l89 -122
-21 -31 c-12 -17 -53 -73 -90 -123 -37 -51 -68 -97 -68 -103 0 -5 8 -14 18
-19 14 -8 30 9 102 109 47 66 87 119 90 119 3 0 43 -53 90 -119 47 -65 89
-118 94 -116 5 1 14 9 19 18 10 15 -19 60 -149 233 l-23 30 86 119 c66 91 84
123 76 134 -5 9 -14 17 -19 18 -5 2 -46 -49 -91 -112 l-82 -115 -88 119 c-74
101 -91 119 -106 111z"/>
<path d="M15148 10679 c-10 -6 -18 -13 -18 -18 0 -4 40 -63 90 -130 50 -68 87
-128 83 -135 -4 -6 -42 -60 -85 -119 -44 -59 -81 -114 -84 -122 -3 -7 3 -18
14 -24 17 -9 29 3 101 104 46 63 86 117 90 119 4 3 45 -47 90 -110 46 -63 86
-116 90 -118 3 -2 14 2 24 9 17 12 12 22 -72 137 -50 68 -91 128 -91 133 0 6
38 63 84 127 82 112 84 117 66 133 -20 18 -11 28 -142 -153 l-46 -63 -82 113
c-46 62 -86 116 -89 120 -3 4 -14 2 -23 -3z"/>
<path d="M16426 10675 c-21 -16 -27 -4 96 -173 40 -54 66 -98 62 -105 -4 -7
-45 -65 -92 -130 -47 -65 -83 -119 -81 -120 2 -2 11 -8 20 -15 14 -11 28 3
104 109 48 66 91 117 95 112 4 -4 45 -59 90 -121 72 -98 84 -111 99 -100 9 7
18 13 20 15 2 1 -38 58 -88 126 -50 69 -91 128 -91 132 0 5 39 62 86 127 47
66 85 120 83 121 -2 2 -11 8 -20 15 -15 11 -27 -1 -95 -95 -42 -59 -80 -112
-84 -116 -4 -5 -47 46 -95 112 -48 67 -88 121 -89 121 0 0 -9 -7 -20 -15z"/>
<path d="M17706 10675 c-17 -13 -13 -21 73 -138 50 -69 91 -128 91 -131 0 -3
-41 -63 -91 -132 -50 -69 -90 -126 -88 -127 2 -2 11 -8 21 -15 14 -11 27 2
103 108 48 66 89 120 90 120 2 0 43 -54 90 -119 59 -82 91 -118 101 -114 27
10 13 42 -71 157 -47 64 -85 119 -85 122 0 3 39 59 86 125 48 66 85 121 83
122 -2 2 -11 8 -20 15 -14 11 -27 -3 -99 -103 -46 -64 -87 -112 -90 -108 -4 4
-44 59 -90 121 -45 61 -82 112 -83 112 -1 0 -10 -7 -21 -15z"/>
<path d="M87 10559 c-114 -157 -115 -151 5 -313 79 -107 94 -123 110 -115 10
5 18 13 18 18 0 4 -33 53 -74 109 -123 167 -120 133 -26 262 44 61 83 117 86
125 3 7 -3 18 -14 24 -16 9 -29 -4 -105 -110z"/>
<path d="M5587 9385 c-9 -7 -17 -15 -17 -19 0 -3 37 -57 83 -119 46 -61 86
-117 90 -123 4 -7 -29 -62 -76 -125 -46 -63 -86 -120 -91 -127 -7 -12 9 -42
23 -42 4 0 47 54 95 120 l88 121 79 -108 c44 -59 84 -114 88 -122 7 -12 12
-12 29 1 21 14 20 17 -72 143 l-93 129 87 121 c64 87 85 123 78 133 -20 24
-35 11 -108 -90 -40 -57 -77 -107 -81 -112 -4 -5 -47 46 -96 112 -79 106 -91
118 -106 107z"/>
<path d="M6866 9385 c-21 -16 -24 -10 74 -145 42 -58 79 -110 83 -117 4 -7
-31 -65 -83 -136 -49 -69 -90 -127 -90 -131 0 -3 9 -10 19 -16 18 -9 29 3 106
111 l87 120 89 -121 c80 -108 92 -119 109 -110 11 6 20 13 20 15 0 3 -40 60
-90 127 -49 67 -90 127 -90 133 1 5 39 62 85 125 62 85 81 118 73 127 -6 7
-16 13 -22 13 -6 0 -47 -49 -90 -110 -44 -60 -82 -107 -87 -105 -4 3 -39 49
-77 103 -105 144 -94 133 -116 117z"/>
<path d="M8157 9383 c-16 -18 -13 -25 73 -141 50 -67 90 -125 90 -128 0 -3
-41 -63 -91 -132 -84 -115 -90 -126 -74 -138 10 -8 21 -11 26 -9 4 3 44 57 90
120 46 63 86 112 90 108 3 -5 43 -59 89 -120 72 -100 84 -112 101 -103 10 6
19 13 19 16 0 4 -40 61 -90 129 -49 68 -90 126 -90 129 0 4 35 55 78 114 99
136 95 127 74 146 -17 15 -23 9 -101 -99 -46 -63 -84 -115 -86 -115 -2 0 -37
46 -78 103 -42 56 -82 110 -89 120 -13 18 -14 18 -31 0z"/>
<path d="M9437 9382 c-14 -16 -9 -26 75 -140 49 -67 88 -128 85 -135 -3 -7
-44 -66 -92 -131 -80 -110 -86 -121 -70 -132 10 -8 21 -11 26 -9 4 3 42 54 85
113 42 59 80 111 84 115 4 4 46 -46 95 -113 48 -66 91 -120 95 -120 4 0 13 7
20 15 13 16 15 14 -103 173 -65 89 -68 94 -54 116 9 12 47 67 86 121 39 53 71
100 71 104 0 3 -8 11 -18 18 -17 10 -28 -1 -97 -98 -43 -61 -82 -112 -85 -114
-4 -2 -46 50 -94 115 -49 66 -89 120 -90 120 -2 0 -10 -8 -19 -18z"/>
<path d="M14537 9385 c-9 -7 -17 -15 -17 -19 0 -4 31 -49 68 -99 37 -51 78
-106 90 -123 l21 -31 -57 -79 c-127 -175 -126 -172 -112 -189 18 -22 23 -20
60 33 19 26 58 80 88 120 l53 73 86 -118 c47 -65 87 -120 89 -122 1 -1 12 3
23 11 21 15 19 17 -52 114 -40 54 -82 113 -94 129 l-21 30 88 120 c65 88 85
123 78 133 -6 6 -16 12 -22 12 -10 0 -69 -74 -169 -214 -5 -8 -10 -6 -17 4 -5
8 -44 63 -87 121 -70 94 -81 105 -96 94z"/>
<path d="M15826 9385 c-21 -16 -24 -10 74 -145 42 -58 79 -110 83 -117 4 -7
-31 -65 -83 -136 -49 -69 -90 -127 -90 -131 0 -3 9 -10 19 -16 18 -9 29 3 106
111 l87 120 89 -121 c80 -108 92 -119 109 -110 11 6 20 13 20 15 0 3 -40 60
-90 127 -49 67 -90 127 -90 133 1 5 39 62 85 125 62 85 81 118 73 127 -6 7
-16 13 -22 13 -6 0 -47 -49 -90 -110 -44 -60 -82 -107 -86 -105 -4 2 -42 53
-85 112 -43 59 -81 111 -84 115 -3 4 -14 1 -25 -7z"/>
<path d="M17107 9382 c-16 -17 -12 -25 73 -140 50 -68 90 -125 90 -128 0 -3
-40 -61 -90 -129 -49 -68 -90 -125 -90 -129 0 -3 9 -10 19 -16 17 -9 30 4 107
110 48 66 91 117 94 113 4 -5 44 -59 89 -120 73 -100 85 -112 102 -103 10 6
19 13 19 16 0 3 -40 61 -90 128 -49 68 -90 126 -90 130 0 4 35 55 78 114 43
59 81 112 85 118 3 6 -2 19 -12 28 -17 15 -22 10 -100 -99 -46 -63 -85 -115
-86 -115 -2 0 -40 51 -85 113 -46 61 -86 115 -89 120 -4 4 -15 -1 -24 -11z"/>
<path d="M482 9378 c-7 -10 13 -45 79 -133 48 -66 88 -125 89 -130 0 -6 -41
-66 -90 -134 -89 -122 -90 -124 -69 -139 18 -13 23 -13 30 -1 4 8 43 63 87
122 l79 108 89 -121 c48 -66 91 -120 95 -120 14 0 30 30 23 42 -5 7 -46 64
-91 126 -51 68 -81 117 -76 125 4 7 42 61 85 120 43 59 78 112 78 116 0 12
-29 23 -41 15 -5 -3 -41 -50 -80 -105 -39 -54 -74 -101 -78 -104 -5 -2 -45 47
-91 110 -46 63 -89 115 -96 115 -6 0 -16 -6 -22 -12z"/>
<path d="M1762 9378 c-9 -9 -9 -15 2 -27 7 -9 49 -66 94 -127 l80 -111 -94
-128 c-90 -124 -93 -129 -73 -143 11 -8 22 -12 23 -11 2 2 42 57 89 122 l86
118 53 -73 c30 -40 69 -94 88 -120 36 -52 42 -55 60 -33 14 17 17 11 -84 150
-43 60 -79 114 -79 120 0 6 36 60 81 122 45 61 82 115 82 121 0 8 -22 22 -35
22 -2 0 -40 -50 -85 -111 -45 -61 -85 -107 -89 -103 -4 5 -43 57 -85 117 -43
59 -83 107 -90 107 -7 0 -17 -5 -24 -12z"/>
<path d="M3044 9375 c-5 -12 66 -117 167 -251 5 -6 -28 -60 -81 -133 -50 -68
-90 -127 -90 -131 0 -14 31 -33 39 -24 4 5 43 57 85 117 43 59 81 107 86 107
6 0 125 -155 171 -223 4 -6 15 -4 28 5 20 14 19 17 -74 143 -57 78 -91 133
-86 139 4 6 44 61 89 122 60 83 78 114 69 123 -6 6 -16 11 -23 11 -7 0 -47
-49 -91 -110 -43 -60 -80 -109 -83 -109 -3 0 -42 51 -88 114 -80 110 -106 132
-118 100z"/>
<path d="M4313 9383 c-7 -2 -13 -9 -13 -14 0 -7 119 -177 171 -245 5 -6 -26
-59 -81 -134 -50 -68 -90 -127 -90 -131 0 -4 7 -13 16 -20 14 -11 18 -10 31 6
8 11 46 64 85 118 38 53 74 97 78 97 5 0 45 -51 91 -112 45 -62 83 -115 85
-117 1 -1 12 3 23 11 20 14 17 19 -74 143 -54 75 -90 134 -86 140 100 129 168
234 158 244 -6 6 -16 11 -23 11 -7 0 -47 -49 -91 -110 -43 -60 -80 -109 -83
-109 -3 0 -41 50 -85 111 -80 112 -89 121 -112 111z"/>
<path d="M10713 9379 c-8 -8 12 -44 78 -134 49 -68 89 -127 89 -132 0 -5 -40
-65 -90 -133 -87 -120 -89 -124 -69 -138 11 -8 22 -12 23 -11 2 2 40 56 86
119 46 63 84 116 85 118 2 2 42 -51 91 -117 48 -67 91 -121 95 -121 14 0 30
30 23 42 -5 7 -45 64 -91 127 -46 63 -80 118 -76 125 4 6 42 59 85 118 43 59
78 111 78 115 0 5 -8 13 -18 19 -15 10 -27 -2 -92 -93 -41 -57 -80 -108 -86
-114 -7 -6 -38 30 -93 106 -46 63 -88 115 -95 115 -7 0 -17 -5 -23 -11z"/>
<path d="M11972 9378 c-9 -9 -9 -15 2 -27 7 -9 49 -66 93 -126 l80 -111 -93
-129 c-90 -124 -92 -129 -73 -143 23 -16 11 -29 121 125 40 55 76 99 79 97 4
-2 44 -56 90 -119 45 -63 86 -115 90 -115 14 0 30 30 23 42 -4 7 -44 62 -88
123 -43 60 -79 114 -79 120 0 6 36 60 81 122 45 61 82 115 82 121 0 8 -22 22
-35 22 -2 0 -40 -50 -85 -111 -45 -61 -85 -107 -89 -103 -4 5 -43 57 -85 117
-43 59 -83 107 -90 107 -7 0 -17 -5 -24 -12z"/>
<path d="M13244 9375 c-5 -13 40 -81 152 -231 l23 -30 -89 -123 c-50 -68 -90
-127 -90 -131 0 -14 31 -33 39 -24 4 5 43 57 85 117 43 59 81 107 86 107 5 0
43 -48 86 -107 42 -60 81 -112 85 -117 8 -9 39 10 39 24 0 4 -40 63 -90 131
-53 72 -86 127 -81 133 98 131 162 229 157 241 -12 32 -38 11 -113 -95 -43
-60 -80 -109 -83 -109 -3 0 -42 51 -88 114 -80 110 -106 132 -118 100z"/>
<path d="M1111 8087 c-8 -11 10 -41 80 -136 50 -68 88 -129 85 -136 -3 -8 -36
-56 -74 -107 -110 -149 -107 -144 -81 -158 17 -10 24 -10 30 1 4 8 43 62 87
121 l79 108 82 -115 c46 -63 87 -118 93 -121 5 -4 17 1 25 9 14 14 6 28 -77
141 -59 80 -89 130 -84 138 4 7 43 62 87 122 70 96 77 110 64 123 -8 9 -20 13
-25 9 -6 -3 -42 -51 -82 -106 -40 -55 -76 -102 -80 -105 -5 -3 -46 46 -92 110
-46 63 -88 115 -94 115 -6 0 -17 -6 -23 -13z"/>
<path d="M2392 8087 c-8 -9 12 -43 79 -135 49 -67 89 -126 89 -130 0 -5 -41
-65 -90 -133 -81 -112 -89 -125 -73 -136 9 -7 19 -13 22 -13 3 0 43 52 89 115
46 63 86 115 90 115 4 0 45 -52 90 -115 46 -63 87 -115 92 -115 4 0 13 7 20
15 10 12 -3 36 -79 140 -58 79 -89 130 -85 137 5 7 44 61 87 121 65 89 77 110
67 122 -7 8 -16 15 -20 15 -5 0 -45 -49 -89 -110 -45 -60 -83 -110 -85 -110
-2 0 -41 52 -87 115 -46 63 -89 115 -95 115 -6 0 -16 -6 -22 -13z"/>
<path d="M3657 8088 c-14 -12 -7 -26 73 -133 49 -66 89 -125 90 -131 0 -6 -40
-67 -90 -135 -80 -111 -88 -125 -73 -137 10 -7 20 -11 24 -10 4 2 44 54 89
116 44 61 84 112 88 112 4 0 45 -52 91 -115 46 -63 87 -115 91 -115 4 0 13 7
20 15 13 16 15 14 -103 173 l-69 93 87 120 c71 98 85 122 75 134 -7 8 -16 15
-21 15 -4 0 -43 -49 -86 -110 -43 -60 -81 -109 -84 -110 -3 0 -43 52 -89 115
-47 63 -87 115 -90 115 -3 0 -14 -6 -23 -12z"/>
<path d="M4927 8088 c-14 -12 -6 -26 73 -133 49 -66 89 -125 90 -132 0 -7 -40
-67 -89 -135 -80 -109 -88 -124 -74 -135 9 -7 20 -13 23 -13 4 0 43 52 89 115
45 63 85 115 89 115 4 0 45 -52 92 -115 46 -63 87 -115 90 -115 15 0 31 30 24
42 -5 7 -46 64 -91 126 l-84 113 86 118 c47 65 85 123 85 128 0 9 -22 23 -35
23 -2 0 -38 -49 -82 -110 -43 -60 -81 -110 -84 -110 -3 0 -43 52 -89 115 -46
63 -86 115 -90 115 -3 0 -14 -6 -23 -12z"/>
<path d="M6213 8093 c-7 -2 -13 -9 -13 -15 0 -6 40 -66 90 -134 l89 -123 -82
-113 c-46 -62 -86 -119 -91 -126 -7 -12 9 -42 23 -42 4 0 45 52 91 115 46 63
87 115 91 115 4 0 44 -52 90 -115 45 -63 85 -115 89 -115 3 0 14 6 23 13 14
11 5 26 -78 141 l-94 128 89 122 c78 107 87 122 72 134 -9 6 -19 12 -22 12 -4
0 -43 -49 -86 -110 -43 -60 -81 -110 -84 -110 -3 0 -43 52 -88 115 -46 63 -86
115 -90 114 -4 0 -13 -3 -19 -6z"/>
<path d="M7501 8086 c-10 -12 4 -37 79 -140 l91 -125 -92 -126 c-75 -104 -89
-128 -79 -140 7 -8 16 -15 21 -15 4 0 45 52 91 115 45 63 86 115 90 115 3 0
44 -52 90 -115 46 -63 86 -115 89 -115 3 0 13 6 22 13 16 11 8 24 -73 136 -49
68 -90 128 -90 133 0 5 38 62 84 126 63 87 82 120 74 129 -6 7 -16 13 -22 13
-6 0 -47 -49 -90 -110 -43 -60 -82 -110 -85 -110 -3 1 -42 51 -86 112 -44 61
-85 113 -91 115 -6 2 -16 -3 -23 -11z"/>
<path d="M8781 8086 c-10 -12 4 -36 72 -128 46 -62 87 -119 91 -126 5 -8 -26
-58 -84 -138 -82 -112 -90 -128 -77 -141 8 -9 20 -13 25 -9 6 3 47 58 93 121
l82 114 74 -100 c41 -55 79 -109 86 -120 14 -22 30 -24 46 -5 9 10 -7 39 -75
131 -47 65 -88 124 -91 131 -2 7 34 65 81 130 66 90 83 120 75 131 -6 7 -17
13 -23 13 -6 0 -46 -50 -89 -110 -44 -61 -81 -110 -83 -110 -2 0 -42 52 -89
115 -47 63 -89 115 -94 115 -5 0 -14 -6 -20 -14z"/>
<path d="M10061 8087 c-8 -11 6 -36 63 -115 124 -168 122 -132 17 -278 -71
-99 -89 -130 -80 -140 6 -8 17 -14 23 -14 6 1 49 55 96 120 46 66 87 117 90
112 4 -4 42 -55 84 -114 43 -59 82 -111 88 -114 5 -4 17 0 25 8 13 14 4 30
-76 139 -50 68 -91 127 -91 130 0 4 38 59 85 124 69 94 84 120 74 131 -6 8
-15 14 -20 14 -5 0 -46 -50 -90 -110 -57 -78 -85 -108 -93 -101 -6 5 -45 57
-86 115 -41 58 -80 106 -86 106 -6 0 -17 -6 -23 -13z"/>
<path d="M11322 8087 c-9 -10 10 -42 79 -137 49 -68 88 -129 85 -136 -3 -7
-36 -55 -74 -106 -110 -149 -107 -144 -81 -158 17 -10 24 -10 30 1 4 8 43 62
87 121 l79 108 82 -115 c46 -63 87 -118 93 -121 5 -4 17 0 25 9 13 13 5 29
-77 141 -58 79 -89 130 -84 138 4 7 43 62 87 122 69 96 77 111 64 124 -8 8
-20 11 -26 8 -6 -4 -43 -52 -82 -107 -39 -54 -75 -101 -79 -104 -5 -3 -46 46
-92 110 -46 63 -88 115 -94 115 -6 0 -16 -6 -22 -13z"/>
<path d="M12592 8087 c-8 -9 12 -43 79 -135 49 -67 89 -126 89 -130 0 -4 -41
-64 -90 -132 -82 -113 -89 -126 -73 -137 24 -18 25 -18 58 30 16 23 55 77 86
119 l56 77 87 -119 c48 -66 91 -120 95 -120 5 0 14 7 21 15 10 12 -4 36 -80
140 -58 79 -89 129 -84 137 5 7 44 61 87 121 65 89 77 110 67 122 -7 8 -16 15
-20 15 -5 0 -45 -49 -89 -110 -45 -60 -83 -110 -85 -110 -3 0 -42 52 -88 115
-45 63 -88 115 -94 115 -6 0 -16 -6 -22 -13z"/>
<path d="M13877 8088 c-14 -12 -6 -26 73 -133 49 -66 89 -125 90 -132 0 -7
-40 -68 -90 -135 -80 -110 -88 -124 -73 -135 9 -7 19 -13 23 -13 3 0 43 52 88
115 46 63 87 115 91 115 4 0 45 -52 90 -115 46 -63 86 -115 91 -115 4 0 13 7
20 15 13 16 15 13 -102 173 l-69 93 86 119 c47 65 85 123 85 128 0 11 -28 24
-39 18 -4 -3 -40 -52 -81 -110 -41 -58 -78 -106 -81 -106 -3 0 -43 52 -89 115
-46 63 -86 115 -90 115 -3 0 -14 -6 -23 -12z"/>
<path d="M15173 8093 c-7 -2 -13 -9 -13 -15 0 -6 40 -66 90 -134 l89 -123 -82
-113 c-46 -62 -86 -119 -91 -126 -7 -12 9 -42 23 -42 4 0 45 52 91 115 46 63
87 115 91 115 4 0 44 -52 90 -115 45 -63 85 -115 89 -115 3 0 14 6 23 13 14
11 5 26 -78 141 l-94 128 89 122 c78 107 87 122 72 134 -9 6 -19 12 -22 12 -4
0 -43 -49 -86 -110 -43 -60 -81 -110 -84 -110 -3 0 -43 52 -88 115 -46 63 -86
115 -90 114 -4 0 -13 -3 -19 -6z"/>
<path d="M16450 8085 c-10 -12 4 -36 79 -139 l91 -124 -91 -126 c-75 -105 -89
-129 -79 -141 7 -8 16 -15 21 -15 4 0 45 52 90 115 46 63 86 115 90 115 4 0
45 -52 91 -115 45 -63 86 -115 89 -115 3 0 13 6 22 13 16 11 9 24 -73 134 -49
68 -90 128 -90 135 1 7 39 65 85 128 75 103 83 116 68 128 -9 6 -19 12 -23 12
-3 0 -41 -49 -85 -110 -43 -60 -81 -110 -84 -110 -3 0 -43 52 -89 115 -46 63
-87 115 -91 115 -5 0 -14 -7 -21 -15z"/>
<path d="M17731 8086 c-10 -12 0 -31 56 -108 38 -51 79 -108 92 -126 l22 -32
-91 -125 c-76 -104 -90 -128 -80 -140 7 -8 16 -15 21 -15 4 0 45 52 91 115 46
63 87 113 93 111 5 -1 46 -52 90 -113 l80 -111 3 39 c3 35 -4 50 -63 129 -36
50 -68 97 -71 104 -3 8 26 58 65 111 55 75 71 105 71 131 0 19 -3 34 -7 34 -5
0 -43 -50 -86 -110 -44 -61 -82 -110 -85 -109 -4 0 -43 50 -87 111 -44 61 -85
113 -91 115 -6 2 -16 -3 -23 -11z"/>
<path d="M116 7979 c-75 -106 -79 -110 -97 -93 -19 17 -19 15 -18 -67 0 -80 1
-83 16 -61 16 22 17 21 104 -98 49 -66 93 -120 98 -120 5 0 14 6 20 14 10 12
-4 37 -74 131 -48 65 -89 123 -91 130 -3 7 33 66 80 130 68 93 84 121 75 131
-6 8 -17 14 -23 14 -6 -1 -46 -50 -90 -111z"/>
<path d="M481 6806 c-11 -13 -1 -31 56 -108 38 -51 79 -108 92 -126 l23 -32
-91 -127 c-71 -98 -89 -129 -80 -139 6 -8 17 -14 23 -14 6 1 47 52 91 115 44
63 83 114 87 115 4 0 44 -52 90 -115 46 -63 88 -114 94 -115 6 0 17 6 23 13 8
11 -10 42 -79 137 -50 67 -90 126 -90 130 0 4 38 60 85 124 47 64 85 119 85
121 0 2 -9 9 -20 15 -18 9 -28 -1 -101 -100 -44 -60 -84 -110 -87 -109 -4 0
-43 50 -87 111 -45 62 -85 113 -91 115 -6 2 -17 -3 -23 -11z"/>
<path d="M1766 6807 c-16 -12 -10 -23 69 -131 48 -66 89 -124 91 -130 2 -6
-36 -67 -86 -135 -69 -96 -87 -128 -79 -138 7 -7 17 -13 23 -13 6 0 45 48 86
106 41 58 80 110 87 115 8 8 35 -21 97 -105 47 -64 90 -116 95 -116 5 0 14 6
20 14 10 11 -6 38 -79 137 -50 68 -88 129 -86 136 3 7 42 62 87 124 75 104 80
112 64 128 -19 19 -23 15 -123 -123 -46 -64 -67 -85 -75 -77 -7 5 -46 57 -87
115 -41 58 -78 105 -81 106 -3 0 -13 -6 -23 -13z"/>
<path d="M3047 6808 c-16 -12 -8 -25 73 -137 49 -68 90 -127 90 -131 0 -3 -40
-62 -89 -131 -67 -92 -87 -127 -79 -136 6 -7 16 -13 22 -13 6 0 49 52 94 115
46 63 86 115 90 115 4 -1 41 -48 82 -106 91 -128 96 -132 117 -112 14 15 9 25
-54 110 -38 51 -79 108 -92 126 l-23 33 87 120 c71 98 85 122 75 134 -7 8 -16
15 -21 15 -4 0 -43 -49 -86 -110 -43 -60 -81 -109 -85 -110 -4 0 -44 52 -90
115 -46 63 -86 115 -89 115 -3 0 -13 -6 -22 -12z"/>
<path d="M4307 6807 c-16 -11 -9 -24 73 -135 49 -67 90 -127 90 -132 0 -5 -40
-65 -89 -132 -67 -92 -87 -126 -79 -135 6 -7 16 -13 22 -13 6 0 49 52 94 115
46 63 86 115 90 115 4 0 35 -40 69 -88 97 -134 106 -144 126 -137 9 4 17 12
17 17 0 5 -41 65 -91 134 l-91 123 87 121 c71 99 85 123 75 135 -7 8 -16 15
-21 15 -4 0 -43 -49 -86 -110 -43 -60 -81 -110 -85 -110 -4 0 -44 52 -90 115
-46 63 -86 115 -89 115 -3 0 -13 -6 -22 -13z"/>
<path d="M5577 6808 c-15 -12 -7 -26 73 -136 50 -67 90 -127 90 -132 0 -6 -40
-65 -89 -133 -80 -108 -88 -123 -74 -134 9 -7 20 -13 23 -13 4 0 44 52 89 115
46 63 86 115 89 115 4 0 43 -50 87 -111 44 -61 83 -113 87 -115 10 -6 38 7 38
18 0 6 -41 66 -91 134 l-90 123 87 121 c72 100 84 123 74 135 -7 8 -16 15 -20
15 -4 0 -43 -49 -86 -110 -44 -60 -82 -110 -86 -110 -4 0 -44 52 -90 115 -45
63 -85 115 -88 115 -4 0 -14 -6 -23 -12z"/>
<path d="M6860 6805 c-14 -17 -17 -12 82 -146 43 -59 78 -112 78 -119 0 -7
-40 -68 -90 -136 -82 -114 -88 -124 -71 -134 11 -5 22 -10 24 -10 3 0 42 52
88 115 45 63 86 115 89 115 3 0 44 -52 89 -115 46 -63 86 -115 90 -115 4 0 14
6 23 13 14 11 5 27 -78 140 l-94 127 89 122 c79 109 87 124 72 135 -9 7 -19
13 -22 13 -3 0 -41 -49 -84 -110 -44 -60 -82 -110 -85 -110 -4 0 -44 52 -90
115 -46 63 -87 115 -91 115 -3 0 -12 -7 -19 -15z"/>
<path d="M8150 6805 c-10 -12 4 -36 79 -140 l92 -126 -91 -123 c-49 -68 -90
-128 -90 -134 0 -11 28 -24 38 -18 4 2 43 54 87 115 44 61 83 111 87 111 3 0
43 -52 89 -115 45 -63 88 -115 95 -115 6 0 16 6 22 13 8 9 -13 44 -79 134 -49
68 -89 128 -89 134 0 6 38 63 85 127 77 106 84 118 68 129 -9 7 -19 13 -22 13
-3 0 -42 -50 -85 -110 -44 -61 -82 -110 -85 -110 -4 0 -44 52 -89 115 -46 63
-87 115 -91 115 -5 0 -14 -7 -21 -15z"/>
<path d="M9430 6805 c-10 -12 4 -36 80 -139 l92 -126 -92 -126 c-82 -114 -90
-129 -76 -142 20 -21 27 -14 117 113 41 57 77 105 81 105 4 0 44 -52 90 -115
46 -63 88 -115 94 -115 6 0 17 6 23 13 8 11 -10 41 -79 136 -50 67 -90 126
-90 131 0 5 39 62 86 127 78 107 84 118 68 130 -10 7 -20 13 -23 13 -3 -1 -41
-50 -84 -110 -43 -61 -81 -110 -85 -110 -4 1 -44 52 -90 115 -46 63 -87 115
-91 115 -5 0 -14 -7 -21 -15z"/>
<path d="M10711 6806 c-10 -12 4 -37 74 -131 48 -65 88 -122 91 -129 2 -6 -36
-67 -86 -135 -71 -97 -88 -127 -79 -137 6 -8 17 -14 23 -13 6 0 47 50 91 112
45 62 85 112 90 112 5 0 45 -50 89 -112 45 -62 86 -112 92 -113 6 0 17 6 23
14 9 10 -8 40 -79 136 -49 68 -90 126 -90 130 0 3 39 59 86 125 75 104 84 120
71 133 -8 8 -20 11 -26 8 -6 -4 -43 -52 -82 -107 -39 -54 -75 -101 -80 -104
-5 -3 -47 46 -94 110 -47 63 -89 115 -94 115 -5 0 -14 -6 -20 -14z"/>
<path d="M11976 6807 c-16 -12 -10 -23 69 -131 48 -66 89 -124 91 -130 2 -6
-36 -67 -86 -135 -69 -96 -87 -128 -79 -138 7 -7 17 -13 23 -13 6 1 47 51 91
112 44 61 85 112 90 112 6 0 46 -50 90 -112 44 -61 85 -111 91 -111 6 -1 17 5
23 13 9 10 -8 40 -79 137 -50 68 -88 129 -86 136 3 7 42 62 87 124 75 104 80
112 64 128 -19 19 -23 15 -123 -123 -46 -64 -67 -85 -75 -77 -7 5 -46 57 -87
115 -41 58 -78 105 -81 106 -3 0 -13 -6 -23 -13z"/>
<path d="M13247 6807 c-16 -11 -9 -24 73 -137 49 -68 90 -127 90 -131 0 -3
-40 -62 -90 -130 -68 -94 -87 -126 -78 -136 6 -7 16 -13 22 -13 6 0 48 52 94
115 46 63 86 115 90 115 4 -1 41 -48 82 -106 90 -127 96 -133 116 -112 14 14
9 25 -53 109 -38 52 -79 109 -92 127 l-23 33 87 120 c82 113 86 122 70 138
-15 15 -18 14 -41 -14 -13 -16 -50 -67 -82 -112 -31 -45 -61 -81 -67 -79 -5 1
-46 53 -90 114 -44 61 -83 111 -86 112 -3 0 -13 -6 -22 -13z"/>
<path d="M14527 6807 c-16 -11 -9 -24 73 -134 49 -68 90 -127 90 -133 0 -6
-40 -65 -89 -133 -66 -90 -87 -125 -79 -134 6 -7 16 -13 22 -13 7 0 50 52 95
115 46 63 86 115 89 115 4 0 43 -50 87 -111 44 -61 83 -113 87 -115 10 -6 38
7 38 18 0 6 -41 66 -91 134 l-90 124 86 120 c73 100 85 123 75 135 -7 8 -16
15 -20 15 -5 0 -43 -49 -87 -110 -43 -60 -81 -110 -85 -110 -3 0 -44 52 -90
115 -45 63 -86 115 -89 115 -3 0 -13 -6 -22 -13z"/>
<path d="M15819 6807 c-15 -11 -7 -26 72 -132 48 -66 88 -126 89 -134 0 -7
-40 -69 -90 -137 -82 -114 -88 -124 -71 -134 11 -5 22 -10 24 -10 3 0 42 52
88 115 45 63 86 115 89 115 3 0 44 -52 89 -115 46 -63 86 -115 90 -115 4 0 14
6 23 13 14 11 5 27 -78 140 l-94 127 78 108 c43 59 82 113 86 120 7 12 -9 42
-23 42 -4 0 -43 -49 -86 -110 -44 -60 -82 -110 -85 -110 -4 0 -44 52 -90 115
-46 63 -86 115 -89 115 -3 0 -13 -6 -22 -13z"/>
<path d="M17100 6805 c-13 -16 -15 -14 102 -172 l69 -92 -91 -125 c-49 -68
-90 -128 -90 -134 0 -8 22 -22 35 -22 2 0 41 52 87 115 45 63 85 115 89 115 3
0 43 -52 89 -115 46 -63 89 -115 96 -115 6 0 16 6 22 13 7 9 -13 44 -79 132
-48 66 -88 126 -89 133 0 7 38 66 85 130 76 105 83 118 68 130 -9 6 -19 12
-23 12 -3 0 -41 -49 -84 -110 -43 -60 -82 -110 -85 -110 -3 0 -44 52 -90 115
-46 63 -87 115 -91 115 -4 0 -13 -7 -20 -15z"/>
<path d="M1116 5535 c-17 -13 -13 -21 73 -138 50 -69 91 -128 91 -132 0 -3
-41 -63 -91 -132 -84 -116 -89 -126 -72 -138 10 -7 21 -11 24 -9 4 2 44 56 89
119 46 63 84 115 86 115 1 0 42 -54 89 -120 77 -105 89 -118 106 -109 10 5 19
13 19 17 0 4 -41 62 -90 130 -50 67 -90 125 -90 128 0 2 36 54 80 115 45 60
83 115 86 122 2 7 -4 17 -15 24 -16 10 -27 0 -101 -103 -46 -64 -86 -112 -90
-107 -4 4 -44 59 -90 121 -45 61 -82 112 -83 112 -1 0 -10 -7 -21 -15z"/>
<path d="M2398 5532 c-14 -16 -8 -27 73 -137 49 -66 89 -124 89 -130 0 -5 -41
-66 -91 -134 -83 -113 -89 -124 -72 -136 10 -7 21 -11 25 -9 3 2 41 53 84 112
42 59 80 111 84 115 4 5 47 -45 96 -112 75 -103 90 -118 106 -110 10 5 18 13
18 18 0 4 -33 53 -74 109 -123 166 -120 132 -22 267 48 65 86 121 86 126 0 4
-8 13 -18 18 -16 8 -30 -7 -101 -105 -46 -64 -87 -112 -91 -107 -4 4 -42 57
-85 116 -43 59 -82 110 -85 112 -4 3 -14 -3 -22 -13z"/>
<path d="M3658 5534 c-15 -15 -9 -26 69 -133 47 -64 88 -122 90 -129 3 -6 -36
-69 -86 -139 -89 -124 -90 -127 -70 -141 14 -9 24 -11 28 -5 41 66 167 231
172 227 4 -2 44 -56 90 -119 45 -63 86 -115 90 -115 14 0 30 30 23 42 -4 7
-42 60 -84 118 -42 58 -79 110 -83 116 -4 7 31 63 78 128 47 64 85 121 85 126
0 5 -8 13 -17 19 -15 8 -31 -9 -101 -105 l-84 -115 -89 120 c-49 67 -90 121
-92 121 -1 0 -10 -7 -19 -16z"/>
<path d="M4930 5535 c-16 -20 -15 -22 83 -155 47 -63 82 -119 78 -125 -112
-146 -173 -240 -164 -254 16 -26 27 -22 58 22 16 23 55 77 87 120 l57 79 88
-121 c48 -66 92 -119 97 -118 5 2 14 10 19 18 7 12 -12 44 -78 134 -49 66 -88
124 -88 130 0 6 36 61 81 123 45 61 82 116 82 121 0 6 -8 14 -17 20 -14 7 -25
-2 -62 -52 -24 -34 -62 -86 -84 -115 l-39 -53 -89 120 c-49 67 -90 121 -93
121 -2 0 -9 -7 -16 -15z"/>
<path d="M6217 5539 c-9 -6 -17 -14 -17 -19 0 -5 40 -64 89 -132 l89 -122 -21
-31 c-12 -16 -52 -72 -90 -124 -53 -71 -67 -98 -60 -110 5 -8 14 -16 19 -18 5
-1 47 51 94 117 47 65 87 119 90 119 3 0 43 -53 90 -119 47 -66 89 -118 94
-117 5 2 14 10 19 18 7 12 -10 43 -73 130 -46 63 -86 119 -91 124 -4 6 29 61
78 128 81 112 95 147 59 147 -8 0 -49 -48 -92 -107 -43 -60 -79 -110 -82 -113
-2 -3 -7 2 -12 10 -5 8 -44 63 -87 122 -66 89 -81 105 -96 97z"/>
<path d="M7505 5537 c-21 -16 -25 -9 75 -147 42 -58 79 -110 83 -116 3 -6 -34
-67 -83 -135 -50 -68 -90 -127 -90 -131 0 -4 8 -12 19 -17 16 -9 29 5 100 104
46 63 86 117 90 119 4 3 43 -45 86 -105 44 -61 84 -114 90 -119 6 -5 18 -3 28
5 17 12 11 22 -72 136 -50 68 -91 129 -91 134 0 9 108 163 161 231 6 7 2 18
-10 28 -18 16 -22 13 -104 -99 l-85 -117 -54 74 c-30 40 -69 94 -88 121 -18
26 -34 47 -35 47 -1 0 -9 -6 -20 -13z"/>
<path d="M8786 5535 c-21 -16 -26 -8 81 -153 46 -62 83 -114 83 -117 0 -2 -40
-60 -90 -127 -49 -68 -90 -126 -90 -130 0 -4 9 -12 19 -17 17 -9 30 4 106 110
48 66 91 117 95 112 4 -4 44 -59 90 -121 72 -98 84 -111 99 -100 9 7 18 13 20
15 2 1 -38 58 -88 126 -50 68 -91 128 -91 132 0 4 39 62 86 127 47 66 85 120
83 121 -2 2 -11 8 -20 15 -15 11 -27 -1 -95 -95 -42 -59 -80 -112 -84 -116 -4
-5 -41 38 -83 95 -111 151 -99 139 -121 123z"/>
<path d="M10066 5535 c-17 -13 -13 -21 73 -139 50 -69 91 -128 91 -131 0 -3
-41 -62 -91 -131 -50 -69 -90 -126 -88 -127 2 -2 11 -8 21 -15 14 -11 27 2
103 108 48 66 88 120 90 120 2 0 42 -54 90 -120 76 -106 89 -119 106 -110 10
6 19 13 19 17 0 3 -40 61 -90 129 -49 68 -90 127 -90 130 0 4 36 56 81 116 44
61 82 115 85 122 2 6 -4 16 -15 23 -17 10 -27 0 -102 -103 -45 -63 -84 -114
-85 -114 -1 0 -41 54 -89 120 -47 66 -87 120 -88 120 -1 0 -10 -7 -21 -15z"/>
<path d="M11326 5535 c-17 -13 -13 -21 73 -138 50 -69 91 -128 91 -132 0 -4
-41 -63 -91 -132 -50 -68 -90 -125 -88 -126 2 -2 11 -8 20 -15 15 -11 27 2 99
100 45 62 86 117 90 121 4 5 47 -46 95 -112 76 -106 89 -119 106 -110 10 5 19
13 19 17 0 4 -41 62 -90 130 -50 67 -90 125 -90 128 0 2 36 54 80 115 45 60
83 115 86 122 2 7 -4 17 -15 24 -16 10 -27 0 -101 -103 -46 -64 -86 -112 -90
-107 -4 4 -44 59 -90 121 -45 61 -82 112 -83 112 -1 0 -10 -7 -21 -15z"/>
<path d="M12598 5533 c-15 -14 -8 -26 73 -138 49 -68 89 -126 89 -130 0 -4
-41 -63 -91 -132 -84 -116 -89 -126 -72 -138 10 -7 21 -11 24 -9 4 2 39 48 77
102 39 53 77 105 85 116 13 17 20 10 102 -102 78 -107 90 -120 107 -111 25 14
22 20 -60 131 -37 51 -76 105 -86 120 l-17 26 85 117 c48 65 86 120 86 124 0
3 -8 11 -18 18 -17 10 -28 -2 -102 -104 -77 -108 -84 -114 -97 -97 -8 10 -46
63 -85 116 -38 54 -73 100 -77 103 -4 2 -15 -3 -23 -12z"/>
<path d="M13878 5534 c-15 -15 -9 -26 73 -138 50 -66 88 -128 86 -136 -2 -9
-41 -66 -86 -127 -44 -61 -81 -115 -81 -121 0 -5 7 -16 16 -23 13 -11 17 -11
24 1 5 8 45 64 89 124 l79 108 77 -103 c42 -57 82 -113 89 -124 11 -17 16 -18
30 -6 9 7 16 17 16 21 0 4 -39 61 -87 126 -47 66 -86 124 -86 129 0 6 36 62
81 123 45 62 82 117 82 122 0 5 -8 13 -17 19 -18 10 -22 6 -148 -171 l-36 -50
-90 121 c-49 67 -90 121 -92 121 -1 0 -10 -7 -19 -16z"/>
<path d="M15177 5538 c-9 -5 -17 -14 -17 -19 0 -6 31 -52 68 -102 37 -51 77
-106 89 -122 l21 -31 -90 -124 c-68 -93 -88 -128 -81 -139 5 -8 14 -16 19 -18
5 -1 47 51 94 117 47 65 87 119 90 119 3 0 43 -54 90 -119 47 -66 89 -118 94
-117 5 2 14 10 19 18 8 12 -12 45 -81 140 -51 70 -87 128 -83 134 150 200 179
255 137 255 -8 0 -49 -48 -92 -107 -43 -60 -79 -110 -82 -113 -2 -3 -7 2 -12
10 -5 8 -44 63 -87 121 -66 89 -82 105 -96 97z"/>
<path d="M16458 5539 c-10 -5 -18 -14 -18 -18 0 -5 37 -60 83 -122 46 -63 86
-119 90 -125 3 -6 -34 -67 -83 -135 -50 -68 -90 -127 -90 -131 0 -4 8 -12 19
-17 15 -9 24 -3 52 37 18 26 57 80 87 120 l54 73 89 -121 c80 -108 92 -120
107 -109 9 7 18 14 20 15 2 1 -39 60 -92 130 -53 72 -91 133 -87 139 5 5 44
60 89 121 78 108 80 113 62 129 -20 18 -11 28 -143 -154 l-46 -63 -76 103
c-42 57 -81 112 -88 121 -9 13 -16 15 -29 7z"/>
<path d="M17736 5535 c-21 -16 -24 -11 64 -130 115 -157 114 -124 14 -260 -47
-65 -88 -124 -91 -131 -2 -7 4 -17 15 -23 17 -9 29 4 107 111 82 112 89 119
102 102 8 -11 46 -63 85 -116 38 -54 72 -98 74 -98 2 0 4 17 4 38 0 30 -12 54
-66 127 -36 50 -68 96 -71 102 -3 7 27 58 67 112 63 88 71 105 68 138 l-3 38
-79 -110 c-44 -61 -82 -114 -86 -118 -4 -5 -44 43 -90 105 -102 139 -92 129
-114 113z"/>
<path d="M119 5425 c-83 -116 -84 -116 -101 -95 -18 22 -18 20 -18 -65 0 -85
0 -87 18 -65 17 21 18 21 105 -99 78 -107 91 -120 108 -111 10 6 19 13 19 17
0 3 -40 61 -90 129 -49 67 -90 125 -90 129 0 4 39 61 86 126 48 66 85 121 83
122 -2 2 -11 8 -20 15 -15 11 -27 -2 -100 -103z"/>
<path d="M475 4256 c-21 -15 -27 -5 98 -174 42 -57 65 -97 61 -105 -4 -6 -43
-61 -86 -120 -44 -59 -81 -113 -84 -120 -2 -7 4 -17 15 -24 16 -10 27 0 101
103 45 63 85 116 89 119 5 2 47 -50 96 -116 76 -104 89 -118 104 -107 9 7 18
13 20 15 2 1 -38 59 -89 128 -50 69 -90 132 -87 139 3 8 42 64 87 125 46 62
81 113 79 114 -2 2 -11 8 -20 15 -15 11 -28 -2 -102 -103 l-84 -116 -88 121
c-48 66 -88 120 -89 120 -1 0 -11 -6 -21 -14z"/>
<path d="M1755 4256 c-17 -12 -13 -21 73 -139 51 -69 92 -127 92 -131 0 -3
-40 -61 -90 -128 -49 -68 -90 -125 -90 -128 0 -3 9 -11 19 -17 18 -11 27 -1
106 107 47 66 88 120 90 120 2 0 42 -54 90 -119 79 -108 89 -118 106 -108 11
7 17 17 15 23 -3 7 -43 64 -90 128 -47 63 -86 119 -86 122 0 4 38 60 85 125
47 64 85 120 85 123 0 3 -9 10 -19 16 -17 9 -29 -3 -97 -98 -42 -59 -80 -110
-84 -115 -3 -4 -46 47 -94 113 -48 66 -88 120 -90 120 -1 0 -11 -6 -21 -14z"/>
<path d="M3037 4255 c-17 -12 -11 -22 69 -131 47 -66 88 -124 91 -131 3 -9
-94 -153 -168 -249 -6 -7 -2 -18 10 -28 18 -17 22 -13 106 103 48 67 91 119
95 116 4 -3 45 -56 90 -119 74 -103 85 -113 101 -103 11 7 17 17 15 24 -3 7
-40 61 -84 120 -43 59 -82 114 -86 121 -5 8 22 53 74 123 45 61 84 117 86 124
3 8 -3 18 -14 24 -17 9 -29 -3 -102 -105 -46 -63 -87 -111 -90 -107 -4 5 -42
56 -84 115 -43 59 -81 110 -84 112 -4 2 -15 -2 -25 -9z"/>
<path d="M4297 4256 c-17 -13 -13 -22 68 -131 48 -65 89 -123 92 -131 4 -11
-45 -86 -154 -230 -23 -30 -23 -31 -4 -48 18 -17 22 -13 107 103 48 66 90 118
94 116 4 -3 45 -56 91 -119 71 -98 85 -113 101 -105 10 5 18 14 18 18 0 5 -37
60 -83 122 -46 63 -86 119 -91 126 -4 8 25 57 75 124 44 62 83 118 86 125 2 7
-4 17 -15 23 -17 9 -29 -2 -102 -105 l-83 -115 -88 121 c-49 66 -90 120 -92
120 -1 0 -10 -7 -20 -14z"/>
<path d="M5567 4256 c-16 -12 -10 -23 73 -136 49 -68 90 -128 90 -133 0 -5
-40 -65 -89 -132 -86 -118 -89 -124 -71 -140 19 -18 26 -10 160 178 18 26 35
47 37 47 2 0 43 -54 91 -119 73 -100 91 -118 105 -110 9 6 17 14 17 20 0 5
-37 60 -83 122 -46 61 -86 117 -90 124 -4 7 28 60 78 129 47 65 85 121 85 126
0 4 -8 12 -19 17 -16 9 -29 -5 -100 -105 l-83 -115 -74 101 c-41 56 -80 110
-87 121 -14 22 -16 23 -40 5z"/>
<path d="M6852 4258 c-7 -7 -12 -16 -12 -20 0 -5 40 -63 89 -129 l90 -121 -91
-125 c-85 -118 -100 -153 -64 -153 8 0 52 52 98 115 46 63 85 114 88 114 3 0
43 -53 90 -118 72 -100 88 -118 103 -110 9 5 17 14 17 20 0 7 -118 177 -172
245 -5 7 23 54 78 130 65 88 84 122 77 133 -5 8 -14 16 -19 18 -5 1 -45 -47
-88 -107 -44 -61 -83 -110 -87 -110 -4 0 -45 52 -91 115 -46 63 -85 115 -88
115 -4 0 -11 -5 -18 -12z"/>
<path d="M8140 4255 c-14 -17 -15 -14 112 -189 l57 -79 -21 -31 c-12 -17 -53
-73 -90 -123 -37 -51 -68 -97 -68 -102 0 -6 8 -14 17 -20 15 -8 30 8 96 97 43
59 83 114 88 122 8 13 11 12 24 -5 8 -11 48 -67 90 -123 73 -99 77 -103 95
-87 18 16 15 22 -73 143 -51 69 -91 129 -90 134 2 4 40 58 85 119 63 87 79
115 71 127 -5 9 -14 17 -19 18 -5 2 -44 -46 -87 -107 -43 -60 -82 -109 -87
-109 -4 0 -45 52 -91 115 -45 63 -86 115 -90 115 -3 0 -12 -7 -19 -15z"/>
<path d="M9426 4257 c-23 -17 -27 -8 81 -155 50 -67 81 -117 76 -124 -4 -7
-44 -64 -90 -127 -46 -63 -83 -117 -83 -121 0 -3 8 -10 19 -17 17 -10 27 0
100 102 45 63 85 116 90 119 4 3 47 -49 95 -115 85 -116 89 -120 107 -103 19
17 19 18 -4 48 -111 147 -158 219 -153 231 3 8 42 64 86 125 76 105 80 113 63
126 -22 16 -26 12 -124 -125 l-67 -92 -75 103 c-41 57 -81 111 -89 121 -11 15
-16 16 -32 4z"/>
<path d="M10705 4256 c-18 -13 -14 -21 74 -140 l93 -127 -18 -27 c-10 -15 -49
-69 -86 -120 -82 -111 -83 -114 -59 -129 16 -10 27 1 105 108 48 65 89 119 91
119 1 0 42 -54 90 -120 78 -108 88 -118 106 -107 10 6 19 14 19 17 0 3 -41 60
-90 127 -50 67 -90 126 -90 129 0 4 39 61 86 126 47 66 84 120 82 122 -1 1
-10 7 -20 14 -14 11 -26 -1 -94 -95 -43 -59 -80 -111 -84 -116 -3 -4 -46 47
-94 113 -48 66 -89 120 -90 120 -1 0 -11 -6 -21 -14z"/>
<path d="M11965 4256 c-17 -12 -13 -21 74 -140 57 -78 90 -131 85 -138 -4 -7
-45 -66 -92 -131 -47 -65 -83 -119 -81 -120 2 -2 11 -8 20 -15 14 -11 28 3
103 108 48 66 89 120 91 120 2 0 42 -54 90 -119 79 -108 89 -118 106 -108 11
7 17 17 15 23 -3 7 -43 64 -90 128 -47 63 -86 119 -86 122 0 4 38 60 85 125
47 64 85 120 85 123 0 3 -9 10 -19 16 -17 9 -29 -3 -97 -98 -42 -59 -80 -110
-84 -115 -3 -4 -46 47 -94 113 -48 66 -88 120 -90 120 -1 0 -11 -6 -21 -14z"/>
<path d="M13237 4255 c-17 -12 -12 -22 68 -132 48 -65 89 -123 92 -130 2 -6
-37 -68 -87 -138 -51 -69 -91 -127 -89 -128 2 -2 11 -8 21 -15 14 -11 27 2
103 108 48 66 89 120 90 120 2 0 43 -54 91 -119 78 -107 89 -118 105 -108 24
15 23 18 -59 129 -37 51 -76 105 -86 120 l-18 27 86 119 c47 66 86 122 86 125
0 4 -9 11 -19 17 -17 9 -29 -4 -102 -105 -46 -63 -86 -112 -89 -108 -4 5 -42
57 -85 116 -43 59 -81 110 -84 112 -4 2 -14 -3 -24 -10z"/>
<path d="M14517 4256 c-16 -12 -10 -23 69 -131 47 -65 88 -124 91 -131 3 -7
-36 -69 -86 -138 -86 -119 -89 -125 -71 -141 20 -18 6 -33 145 157 33 46 52
65 60 58 6 -5 46 -58 90 -119 67 -94 81 -108 97 -100 10 5 18 14 18 18 0 5
-37 60 -83 122 -46 63 -86 119 -90 126 -5 8 24 55 73 123 45 61 83 117 86 125
3 7 -3 18 -14 24 -17 9 -29 -3 -102 -105 l-82 -115 -89 121 c-49 66 -90 120
-91 120 -2 0 -11 -7 -21 -14z"/>
<path d="M15812 4258 c-7 -7 -12 -15 -12 -20 0 -4 40 -62 89 -129 l89 -122
-89 -123 c-49 -67 -89 -127 -89 -133 0 -5 8 -14 17 -19 14 -8 31 10 101 107
46 64 86 117 90 118 4 1 45 -51 92 -116 72 -100 88 -118 103 -110 9 5 17 14
17 20 0 7 -118 177 -172 245 -5 7 23 54 78 130 65 88 84 122 77 133 -5 8 -14
16 -19 18 -5 1 -45 -47 -88 -107 -44 -61 -83 -110 -87 -110 -4 0 -45 52 -91
115 -46 63 -85 115 -88 115 -4 0 -11 -5 -18 -12z"/>
<path d="M17090 4255 c-15 -17 -14 -18 96 -167 46 -63 71 -105 65 -112 -53
-69 -171 -238 -171 -245 0 -6 8 -15 18 -20 14 -8 30 10 102 110 47 65 87 118
90 118 3 0 45 -54 93 -120 85 -116 89 -120 107 -104 18 16 16 21 -67 134 -47
64 -89 121 -94 127 -5 6 26 57 78 129 65 90 83 122 76 134 -5 8 -14 16 -19 18
-5 1 -44 -47 -87 -107 -43 -61 -82 -110 -86 -110 -5 0 -46 52 -92 115 -46 63
-87 115 -90 115 -4 0 -12 -7 -19 -15z"/>
<path d="M1092 3008 c-7 -7 -12 -16 -12 -21 0 -5 38 -61 85 -125 47 -63 85
-120 85 -126 0 -6 -40 -66 -89 -133 -86 -117 -89 -122 -71 -138 18 -16 22 -12
95 87 42 56 82 112 89 123 12 18 20 11 102 -102 75 -101 93 -120 107 -112 9 6
17 14 17 20 0 5 -37 60 -83 122 -46 61 -86 117 -90 124 -4 7 27 59 78 129 47
64 85 120 85 125 0 4 -8 13 -18 18 -16 8 -30 -7 -101 -105 l-83 -115 -74 101
c-41 56 -80 110 -87 121 -14 22 -19 23 -35 7z"/>
<path d="M2372 3008 c-7 -7 -12 -15 -12 -20 0 -4 40 -63 89 -130 l90 -123 -23
-30 c-90 -119 -156 -214 -156 -224 0 -5 8 -14 18 -19 14 -8 31 10 102 109 47
65 87 119 90 119 3 -1 43 -54 90 -119 72 -100 88 -118 103 -110 9 5 17 14 17
20 0 7 -117 175 -171 245 -5 6 25 56 78 129 65 90 83 122 76 134 -5 8 -14 16
-19 18 -5 1 -44 -47 -87 -107 -44 -61 -83 -110 -87 -110 -5 0 -46 52 -92 115
-46 63 -85 115 -88 115 -4 0 -11 -5 -18 -12z"/>
<path d="M3632 3008 c-7 -7 -12 -15 -12 -20 0 -4 40 -62 90 -129 55 -76 86
-126 81 -133 -54 -70 -171 -238 -171 -245 0 -6 8 -15 18 -20 14 -8 30 10 102
110 47 65 87 118 90 118 3 0 45 -54 93 -120 73 -101 90 -119 102 -109 8 7 15
17 15 22 0 9 -69 107 -157 224 l-23 31 86 118 c66 90 84 122 77 134 -5 8 -14
16 -19 18 -5 1 -44 -47 -87 -107 -44 -61 -83 -110 -87 -110 -4 0 -46 52 -92
115 -45 63 -85 115 -88 115 -4 0 -11 -5 -18 -12z"/>
<path d="M4908 3009 c-10 -6 -18 -14 -18 -18 0 -5 40 -64 90 -131 l89 -123
-21 -31 c-12 -17 -53 -73 -90 -123 -37 -51 -68 -97 -68 -103 0 -5 8 -14 18
-19 14 -8 30 9 102 109 47 66 87 119 90 119 3 0 45 -54 93 -120 85 -116 89
-120 107 -104 18 16 16 21 -67 134 -47 64 -89 121 -94 126 -4 6 28 60 78 129
66 91 84 123 76 134 -5 9 -14 17 -19 18 -5 2 -44 -46 -87 -107 -43 -60 -82
-109 -86 -109 -5 0 -43 48 -86 108 -43 59 -81 110 -84 114 -3 4 -14 2 -23 -3z"/>
<path d="M6185 3007 c-22 -17 -26 -9 82 -155 49 -66 81 -118 76 -125 -4 -6
-44 -63 -90 -126 -46 -63 -83 -118 -83 -123 0 -4 8 -12 19 -17 16 -9 29 5 100
104 45 63 85 116 89 119 5 3 48 -49 96 -115 77 -105 90 -118 104 -107 10 7 19
13 21 15 2 1 -38 58 -89 127 -55 75 -90 132 -87 141 4 8 43 64 87 125 76 105
80 113 63 126 -22 16 -26 12 -124 -125 l-67 -92 -82 113 c-102 140 -93 131
-115 115z"/>
<path d="M7475 3006 c-18 -13 -14 -21 74 -140 57 -77 89 -131 85 -138 -4 -7
-45 -66 -92 -131 -47 -65 -83 -119 -81 -120 2 -2 11 -8 20 -15 14 -11 28 4
103 108 48 66 88 120 90 120 2 0 43 -54 91 -120 78 -108 88 -118 106 -107 10
6 19 14 19 17 0 3 -41 60 -90 127 -50 67 -90 126 -90 129 0 4 39 61 86 126 47
66 85 120 83 121 -2 2 -11 8 -20 15 -15 11 -27 -1 -95 -95 -42 -59 -80 -111
-84 -116 -3 -4 -46 47 -94 113 -48 66 -89 120 -90 120 -1 0 -11 -6 -21 -14z"/>
<path d="M8757 3005 c-17 -12 -12 -22 72 -138 50 -69 91 -128 91 -131 0 -3
-41 -63 -91 -132 -50 -69 -90 -126 -88 -127 2 -2 11 -8 21 -15 14 -11 27 2
103 108 48 66 89 120 90 120 2 0 43 -54 91 -119 78 -107 89 -118 105 -108 24
15 23 18 -59 129 -37 51 -76 105 -86 120 l-18 28 82 111 c45 61 84 117 86 124
3 8 -3 18 -14 24 -18 10 -29 -1 -103 -105 -76 -106 -84 -114 -97 -97 -7 10
-45 62 -84 115 -38 54 -73 100 -77 102 -3 2 -14 -2 -24 -9z"/>
<path d="M10037 3006 c-17 -13 -13 -22 68 -131 48 -65 89 -123 92 -131 3 -7
-36 -69 -85 -138 -87 -119 -90 -125 -72 -141 19 -18 26 -10 160 177 22 33 37
45 44 38 7 -5 47 -58 91 -119 67 -94 81 -108 97 -100 10 5 18 14 18 18 0 5
-37 60 -83 122 -46 63 -86 119 -90 126 -5 8 24 55 73 123 45 61 83 117 86 125
3 7 -3 18 -14 24 -17 9 -29 -3 -102 -105 l-83 -115 -88 121 c-49 66 -90 120
-92 120 -1 0 -10 -7 -20 -14z"/>
<path d="M11302 3008 c-7 -7 -12 -16 -12 -21 0 -5 36 -59 81 -119 44 -61 83
-116 86 -124 3 -7 -36 -70 -85 -138 -86 -119 -89 -125 -72 -141 20 -18 28 -9
160 178 18 26 35 47 37 47 1 0 42 -54 91 -119 73 -100 90 -118 105 -110 9 6
17 14 17 19 0 6 -37 60 -83 122 -46 62 -86 118 -90 125 -4 7 28 60 78 129 47
64 85 120 85 125 0 4 -8 13 -18 18 -16 8 -30 -7 -101 -105 l-83 -115 -80 108
c-44 59 -82 114 -85 121 -6 15 -16 15 -31 0z"/>
<path d="M12572 3008 c-7 -7 -12 -16 -12 -20 0 -5 40 -63 89 -131 l90 -122
-23 -30 c-130 -173 -159 -218 -149 -233 5 -9 14 -17 19 -18 5 -2 47 51 94 116
47 66 87 119 90 119 3 0 43 -53 90 -118 71 -100 88 -117 103 -110 9 6 17 14
17 20 0 6 -31 52 -68 102 -37 51 -78 106 -90 123 l-22 32 86 118 c65 89 84
122 77 133 -5 8 -14 16 -19 18 -5 1 -47 -49 -92 -113 l-84 -114 -86 119 c-48
66 -89 120 -92 121 -4 0 -11 -5 -18 -12z"/>
<path d="M13852 3008 c-7 -7 -12 -15 -12 -19 0 -3 40 -62 90 -130 l89 -123
-37 -50 c-20 -28 -60 -84 -89 -123 -29 -40 -53 -77 -53 -83 0 -5 8 -14 18 -19
15 -8 30 9 102 110 47 65 87 118 90 118 3 0 45 -54 93 -120 73 -101 90 -119
102 -109 8 7 15 17 15 22 0 5 -39 64 -87 130 -49 66 -87 124 -86 129 2 5 40
59 85 120 63 87 79 115 71 127 -5 9 -14 17 -19 18 -5 2 -44 -46 -87 -107 -43
-60 -82 -109 -87 -109 -5 0 -46 52 -92 115 -45 63 -85 115 -88 115 -3 0 -11
-5 -18 -12z"/>
<path d="M15145 3007 c-22 -17 -26 -9 82 -155 49 -66 81 -118 76 -125 -4 -6
-44 -63 -90 -126 -46 -63 -83 -118 -83 -123 0 -4 8 -12 19 -17 16 -9 29 5 100
104 45 63 85 116 89 119 5 3 48 -49 96 -115 85 -116 89 -120 107 -103 19 17
19 18 -4 48 -105 138 -158 218 -154 231 4 8 43 64 87 125 76 105 80 113 63
126 -22 16 -26 12 -124 -125 l-67 -92 -82 113 c-102 140 -93 131 -115 115z"/>
<path d="M16425 3006 c-21 -15 -27 -5 98 -174 l69 -93 -18 -27 c-10 -15 -49
-69 -86 -120 -82 -111 -83 -114 -59 -129 16 -10 27 1 105 108 48 65 89 119 91
119 1 0 42 -54 90 -120 76 -106 89 -119 103 -108 10 7 19 13 21 15 2 1 -38 58
-88 127 -50 69 -91 129 -91 133 0 3 39 60 86 125 47 66 84 120 82 122 -1 1
-10 7 -19 14 -15 11 -27 -1 -95 -95 -42 -59 -80 -112 -84 -116 -4 -4 -46 46
-95 113 -48 66 -88 120 -89 120 -1 0 -11 -6 -21 -14z"/>
<path d="M17706 3005 c-17 -13 -13 -21 73 -138 50 -69 91 -128 91 -131 0 -3
-41 -63 -91 -132 -50 -69 -90 -126 -88 -127 2 -2 11 -8 21 -15 14 -11 27 2
103 108 47 66 88 120 90 120 2 0 43 -54 91 -120 69 -94 90 -117 101 -109 7 6
13 18 13 25 0 8 -38 66 -85 129 -47 63 -85 117 -85 121 0 3 38 59 85 123 47
65 85 121 85 124 0 4 -9 11 -19 17 -17 9 -29 -4 -102 -105 -46 -63 -86 -112
-90 -108 -3 5 -43 59 -89 121 -45 61 -82 112 -83 112 -1 0 -10 -7 -21 -15z"/>
<path d="M87 2889 c-109 -150 -110 -157 -29 -266 32 -43 73 -99 91 -125 29
-41 37 -46 53 -37 11 6 17 17 14 24 -3 8 -40 63 -84 122 -43 59 -81 113 -85
120 -5 8 24 56 73 123 45 61 83 117 86 125 3 7 -3 18 -14 24 -16 9 -29 -4
-105 -110z"/>
<path d="M488 1713 c-15 -14 -8 -26 74 -139 49 -69 88 -130 85 -137 -3 -6 -44
-66 -91 -131 -84 -116 -85 -120 -65 -134 11 -8 21 -12 23 -11 1 2 38 54 81
114 43 61 82 114 86 118 3 5 46 -46 95 -112 48 -67 91 -121 95 -121 14 0 30
30 23 42 -4 7 -38 54 -74 103 -115 157 -114 124 -15 259 47 64 85 119 85 123
0 3 -8 11 -17 18 -15 12 -26 1 -91 -89 -41 -55 -80 -107 -86 -114 -10 -10 -30
12 -95 103 -46 63 -86 117 -90 120 -4 2 -15 -3 -23 -12z"/>
<path d="M3057 1719 c-9 -6 -17 -14 -17 -20 0 -5 40 -64 89 -132 l89 -122 -54
-75 c-135 -188 -129 -179 -111 -197 20 -20 12 -28 111 110 43 59 82 107 86
107 5 0 46 -52 92 -115 46 -63 87 -113 92 -112 5 2 14 10 19 18 7 11 -13 46
-81 139 -51 70 -87 129 -83 135 101 134 162 228 157 240 -12 32 -38 11 -113
-95 -43 -60 -80 -109 -83 -109 -3 0 -18 18 -35 42 -118 168 -141 195 -158 186z"/>
<path d="M4317 1719 c-9 -6 -17 -14 -17 -20 0 -5 31 -51 68 -102 37 -50 77
-106 89 -123 l22 -31 -90 -123 c-49 -67 -89 -126 -89 -130 0 -4 7 -14 16 -21
14 -12 19 -11 30 6 7 11 47 66 89 123 l76 103 86 -118 c47 -65 87 -120 89
-122 1 -1 12 3 23 11 20 14 18 18 -73 144 -55 74 -91 133 -87 139 100 129 168
234 158 244 -6 6 -16 11 -23 11 -10 0 -73 -81 -167 -214 -5 -8 -10 -6 -17 4
-5 8 -44 63 -87 122 -66 89 -81 105 -96 97z"/>
<path d="M5587 1715 c-9 -7 -17 -15 -17 -19 0 -3 39 -59 87 -123 47 -64 86
-122 86 -128 0 -6 -36 -60 -79 -120 -101 -139 -98 -133 -84 -150 18 -22 24
-19 60 33 19 26 58 80 88 120 l54 74 80 -109 c43 -59 83 -114 87 -122 7 -12
12 -12 30 1 21 15 20 16 -65 134 -48 65 -90 124 -94 129 -5 6 30 62 80 130 66
90 86 123 78 133 -6 7 -17 12 -24 10 -8 -2 -49 -52 -93 -112 l-79 -108 -89
120 c-79 107 -90 119 -106 107z"/>
<path d="M6866 1715 c-21 -16 -25 -9 74 -145 42 -58 80 -110 84 -117 4 -7 -32
-64 -84 -135 -49 -68 -90 -126 -90 -130 0 -4 9 -12 19 -17 17 -9 30 4 106 110
48 66 91 117 95 112 4 -4 42 -57 85 -116 43 -59 82 -110 85 -112 4 -2 15 2 25
9 16 12 11 22 -70 132 -48 65 -90 125 -92 132 -4 10 46 87 144 218 22 30 23
31 4 48 -18 16 -22 13 -96 -91 -43 -59 -81 -112 -85 -116 -4 -5 -45 43 -90
105 -46 62 -86 116 -89 120 -3 4 -14 1 -25 -7z"/>
<path d="M8157 1712 c-15 -16 -10 -26 74 -139 49 -68 89 -125 89 -129 0 -3
-40 -61 -90 -129 -49 -68 -90 -125 -90 -129 0 -3 9 -10 19 -16 17 -9 29 3 101
103 46 61 86 115 89 120 4 4 47 -47 95 -113 77 -106 90 -119 107 -110 10 6 19
13 19 17 0 3 -40 61 -90 129 -49 67 -90 125 -90 128 0 4 36 57 81 118 44 61
83 116 85 122 2 6 -4 16 -15 23 -17 11 -27 1 -101 -103 -45 -63 -83 -114 -85
-114 -1 0 -42 54 -90 120 -48 66 -88 120 -90 120 -1 0 -9 -8 -18 -18z"/>
<path d="M9437 1713 c-14 -17 -9 -27 73 -138 49 -66 89 -124 89 -130 1 -5 -40
-66 -90 -134 -83 -113 -89 -124 -72 -136 10 -7 21 -11 25 -9 3 2 41 53 84 112
42 59 80 111 84 115 4 5 47 -46 95 -112 76 -106 89 -119 106 -110 10 5 19 13
19 17 0 4 -41 62 -90 130 -50 67 -90 125 -90 127 0 2 38 57 85 121 47 64 85
119 85 123 0 3 -8 11 -18 18 -17 10 -28 -2 -102 -104 -45 -63 -86 -111 -90
-106 -4 4 -44 59 -90 121 -45 61 -83 112 -84 112 -2 0 -10 -8 -19 -17z"/>
<path d="M13257 1718 c-9 -5 -17 -14 -17 -20 0 -8 96 -145 171 -243 4 -6 -31
-64 -83 -135 -68 -93 -88 -128 -81 -139 5 -8 14 -16 19 -18 5 -1 48 52 96 118
l87 121 88 -121 c48 -66 92 -119 97 -118 5 2 14 10 19 18 7 12 -12 45 -81 139
-55 74 -88 128 -83 134 97 130 162 229 157 241 -12 32 -38 11 -113 -95 -43
-60 -80 -109 -83 -109 -3 0 -44 53 -91 118 -71 99 -88 117 -102 109z"/>
<path d="M14537 1719 c-9 -6 -17 -14 -17 -20 0 -5 39 -62 87 -127 47 -64 86
-121 86 -127 0 -6 -36 -60 -79 -120 -44 -61 -84 -116 -88 -123 -7 -12 9 -42
23 -42 4 0 45 52 90 115 46 63 86 117 89 119 5 3 127 -156 173 -227 4 -6 15
-4 28 5 21 15 20 17 -73 144 -53 72 -91 133 -87 139 101 130 168 234 158 244
-21 21 -35 11 -98 -76 -34 -49 -71 -98 -80 -111 l-18 -24 -88 120 c-74 100
-92 119 -106 111z"/>
<path d="M15826 1715 c-21 -16 -25 -8 74 -145 42 -58 79 -110 83 -117 4 -7
-30 -63 -83 -135 -49 -68 -90 -126 -90 -130 0 -4 9 -12 19 -17 17 -9 30 4 106
110 48 66 91 117 95 112 4 -4 42 -56 84 -115 43 -59 81 -110 84 -112 4 -2 15
2 25 9 17 12 11 22 -69 131 -47 66 -89 125 -91 132 -4 10 46 87 144 218 22 30
23 31 4 48 -18 16 -22 13 -96 -91 -43 -59 -81 -112 -85 -116 -4 -5 -45 43 -90
105 -46 62 -86 116 -89 120 -3 4 -14 1 -25 -7z"/>
<path d="M17106 1715 c-21 -16 -26 -8 81 -152 46 -62 83 -115 83 -118 0 -3
-40 -61 -90 -129 -49 -69 -90 -127 -90 -130 0 -3 9 -10 20 -16 17 -9 29 3 106
110 48 67 90 117 94 113 4 -4 44 -59 90 -120 72 -100 84 -112 101 -103 10 6
19 13 19 16 0 4 -40 61 -90 129 -49 68 -90 126 -90 130 0 4 36 57 81 117 44
61 82 115 85 122 2 6 -4 16 -15 23 -17 10 -27 0 -102 -103 -45 -63 -84 -114
-85 -114 -1 0 -36 46 -77 103 -111 150 -99 138 -121 122z"/>
<path d="M1763 1709 c-10 -10 61 -117 167 -254 5 -6 -32 -65 -82 -134 -69 -95
-88 -128 -81 -140 16 -26 27 -22 58 22 16 23 55 77 86 120 l57 78 76 -103 c42
-57 82 -112 90 -123 12 -16 16 -17 30 -6 9 7 16 17 16 21 0 4 -40 63 -90 130
-49 68 -86 128 -83 134 4 6 43 60 86 119 75 103 88 137 53 137 -8 0 -26 -15
-39 -32 -13 -18 -50 -68 -81 -112 l-58 -78 -85 116 c-47 64 -90 116 -97 116
-7 0 -17 -5 -23 -11z"/>
<path d="M10712 1708 c-7 -10 15 -46 79 -133 49 -66 89 -125 89 -130 0 -6 -41
-66 -90 -134 -89 -122 -90 -124 -69 -139 18 -13 23 -13 30 -1 4 8 44 63 87
122 l80 108 82 -113 c46 -62 87 -117 91 -122 8 -9 39 10 39 23 0 4 -40 63 -90
130 -50 68 -87 128 -83 135 4 6 42 59 85 118 43 59 78 111 78 115 0 5 -8 13
-18 19 -15 10 -27 -2 -92 -93 -41 -57 -80 -108 -85 -113 -7 -6 -40 31 -94 105
-46 63 -89 115 -96 115 -7 0 -17 -6 -23 -12z"/>
<path d="M11973 1709 c-10 -10 61 -117 167 -254 5 -6 -32 -65 -82 -134 -69
-95 -88 -128 -81 -140 16 -26 27 -22 58 22 16 23 55 77 86 120 l57 78 76 -103
c42 -57 82 -112 90 -123 12 -16 16 -17 30 -6 9 7 16 17 16 21 0 4 -40 63 -90
130 -49 68 -86 128 -83 134 4 6 42 59 85 118 43 59 78 112 78 117 0 6 -8 14
-17 20 -14 7 -23 1 -47 -32 -17 -23 -54 -75 -84 -116 l-54 -73 -85 116 c-47
64 -90 116 -97 116 -7 0 -17 -5 -23 -11z"/>
<path d="M1111 417 c-8 -10 10 -42 79 -135 50 -67 90 -125 90 -128 0 -4 -19
-34 -43 -68 -63 -89 -62 -86 -29 -86 25 0 36 9 67 55 21 30 39 55 40 55 1 0
19 -25 41 -55 31 -43 45 -55 67 -55 15 0 27 3 27 6 0 4 -23 38 -51 75 l-51 69
18 28 c10 15 49 69 86 120 56 76 67 96 57 108 -6 8 -15 14 -20 14 -5 0 -45
-49 -90 -110 -44 -60 -82 -110 -84 -110 -2 0 -41 52 -87 115 -45 63 -88 115
-94 115 -6 0 -16 -6 -23 -13z"/>
<path d="M2392 418 c-8 -10 13 -45 79 -135 49 -68 89 -126 89 -131 0 -4 -19
-35 -43 -67 -63 -88 -62 -85 -28 -85 24 0 36 9 69 56 l40 56 38 -56 c34 -48
43 -56 72 -56 l32 0 -55 75 c-35 46 -53 80 -48 88 4 6 42 60 85 119 43 59 78
112 78 117 0 11 -29 23 -40 16 -4 -3 -40 -50 -79 -104 -39 -55 -75 -102 -80
-105 -4 -3 -46 46 -92 109 -46 63 -88 115 -95 115 -6 0 -16 -6 -22 -12z"/>
<path d="M3652 418 c-7 -10 13 -45 79 -133 48 -66 88 -125 89 -131 0 -7 -19
-38 -43 -70 -63 -86 -62 -84 -28 -84 24 0 36 9 66 50 20 28 40 50 45 50 4 0
23 -22 41 -50 29 -42 39 -50 67 -50 l33 0 -56 76 -56 76 85 118 c47 66 86 123
86 128 0 8 -22 22 -35 22 -2 0 -40 -49 -84 -110 -45 -60 -82 -110 -84 -110 -2
0 -41 52 -87 115 -46 63 -89 115 -96 115 -6 0 -16 -6 -22 -12z"/>
<path d="M4928 418 c-14 -12 -5 -28 77 -139 l93 -127 -54 -73 -53 -74 27 -3
c21 -3 33 4 52 29 14 18 33 42 42 53 l18 21 22 -30 c51 -67 63 -77 90 -73 l26
3 -54 74 c-34 46 -51 78 -46 85 66 87 162 226 162 234 0 11 -28 24 -38 18 -4
-2 -41 -52 -82 -110 -41 -58 -78 -105 -81 -106 -3 0 -43 52 -88 115 -46 63
-86 115 -90 115 -4 0 -14 -6 -23 -12z"/>
<path d="M6213 423 c-7 -2 -13 -10 -13 -16 0 -7 40 -66 89 -132 65 -88 87
-124 80 -135 -5 -8 -29 -43 -54 -77 l-46 -63 30 0 c26 0 37 9 67 50 20 27 40
50 44 50 4 0 24 -23 44 -50 30 -41 41 -50 67 -50 l30 0 -46 63 c-25 34 -49 69
-54 77 -7 11 14 47 79 135 79 107 87 121 73 133 -9 6 -20 12 -23 12 -4 0 -42
-49 -86 -110 -43 -60 -81 -110 -84 -110 -3 0 -43 52 -88 115 -46 63 -87 115
-90 114 -4 0 -13 -3 -19 -6z"/>
<path d="M7503 423 c-22 -8 -15 -21 55 -116 37 -51 78 -106 90 -124 l23 -32
-56 -76 -56 -75 33 0 c28 0 38 8 67 50 18 28 37 50 41 50 5 0 25 -23 45 -50
30 -41 42 -50 66 -50 34 0 35 -2 -28 84 -24 32 -43 63 -43 70 1 6 39 63 85
126 62 85 81 118 73 127 -6 7 -16 13 -22 13 -6 0 -47 -49 -91 -110 -43 -60
-81 -110 -84 -109 -3 0 -42 50 -86 111 -81 112 -90 121 -112 111z"/>
<path d="M8781 416 c-9 -10 7 -38 72 -127 45 -63 86 -120 91 -127 5 -8 -11
-38 -43 -81 -28 -38 -51 -71 -51 -75 0 -3 12 -6 28 -6 21 0 35 12 66 55 l39
55 41 -55 c32 -44 45 -55 68 -55 34 0 32 5 -31 89 -23 30 -41 58 -41 63 0 4
38 61 85 125 65 90 82 119 74 130 -6 7 -17 13 -23 13 -6 0 -46 -50 -90 -110
-55 -78 -82 -108 -90 -101 -6 5 -45 57 -86 115 -41 58 -80 105 -86 106 -6 0
-17 -6 -23 -14z"/>
<path d="M10061 417 c-8 -10 6 -36 62 -113 40 -54 81 -111 91 -127 l18 -27
-51 -70 c-28 -39 -51 -73 -51 -75 0 -3 13 -5 29 -5 23 0 35 10 66 55 21 30 39
55 40 55 2 0 20 -25 40 -55 31 -45 44 -55 67 -55 15 0 28 2 28 5 0 3 -22 36
-50 74 -27 38 -50 71 -50 75 0 3 38 58 85 122 67 92 83 120 74 130 -6 8 -17
14 -23 14 -6 -1 -45 -48 -86 -106 -41 -58 -78 -108 -82 -110 -3 -2 -44 47 -90
111 -46 63 -88 115 -94 115 -6 0 -17 -6 -23 -13z"/>
<path d="M11321 417 c-8 -10 10 -42 79 -135 50 -67 90 -125 90 -128 0 -4 -19
-34 -43 -68 -63 -89 -62 -86 -29 -86 25 0 36 9 67 55 21 30 39 55 40 55 1 0
19 -25 41 -55 31 -43 45 -55 67 -55 15 0 27 3 27 6 0 4 -23 38 -51 75 l-51 69
18 28 c10 15 49 69 86 120 56 76 67 96 57 108 -6 8 -15 14 -20 14 -5 0 -45
-49 -90 -110 -44 -60 -82 -110 -84 -110 -2 0 -41 52 -87 115 -45 63 -88 115
-94 115 -6 0 -16 -6 -23 -13z"/>
<path d="M12592 417 c-8 -9 12 -43 79 -135 49 -67 89 -125 89 -130 0 -4 -19
-35 -43 -67 -63 -88 -62 -85 -28 -85 24 0 36 9 68 55 l39 55 40 -55 c33 -47
44 -55 72 -55 l32 0 -56 75 c-36 47 -53 79 -48 87 4 7 43 62 87 122 70 96 77
110 64 123 -8 9 -20 13 -25 9 -6 -3 -42 -51 -82 -106 -40 -55 -75 -102 -80
-105 -4 -3 -45 47 -91 110 -46 63 -89 115 -95 115 -6 0 -16 -6 -22 -13z"/>
<path d="M13872 418 c-7 -10 13 -45 79 -133 48 -66 88 -125 89 -131 0 -7 -19
-38 -43 -70 -63 -86 -62 -84 -28 -84 24 0 36 9 66 50 20 28 40 50 45 50 4 0
23 -22 41 -50 29 -42 39 -50 67 -50 l33 0 -56 76 -56 75 85 119 c47 65 86 123
86 128 0 11 -28 24 -38 18 -4 -2 -41 -52 -82 -110 -41 -58 -78 -105 -81 -106
-3 0 -43 52 -89 115 -46 63 -89 115 -96 115 -6 0 -16 -6 -22 -12z"/>
<path d="M15173 423 c-7 -2 -13 -10 -13 -16 0 -7 40 -66 89 -132 65 -88 87
-124 80 -135 -5 -8 -29 -43 -54 -77 l-46 -63 30 0 c26 0 37 9 67 50 20 27 40
50 44 50 4 0 24 -23 44 -50 30 -41 41 -50 67 -50 l30 0 -46 63 c-25 34 -49 69
-54 77 -7 11 14 47 79 135 79 107 87 121 73 133 -9 6 -20 12 -23 12 -4 0 -42
-49 -86 -110 -43 -60 -81 -110 -84 -110 -3 0 -43 52 -88 115 -46 63 -87 115
-90 114 -4 0 -13 -3 -19 -6z"/>
<path d="M16453 423 c-7 -2 -13 -9 -13 -14 0 -5 41 -65 90 -134 l91 -124 -56
-75 -56 -76 33 0 c28 0 38 8 67 50 18 28 37 50 41 50 5 0 25 -23 45 -50 30
-41 42 -50 66 -50 34 0 35 -2 -28 84 -24 32 -43 63 -43 70 1 6 38 63 84 126
62 84 81 118 74 128 -6 6 -16 12 -23 12 -6 0 -47 -49 -90 -110 -43 -60 -81
-110 -84 -110 -3 1 -42 51 -86 112 -80 112 -89 121 -112 111z"/>
<path d="M17731 416 c-10 -12 4 -36 71 -128 46 -62 87 -118 91 -125 5 -7 -13
-40 -43 -82 -27 -38 -50 -72 -50 -75 0 -3 12 -6 28 -6 22 0 35 11 66 56 l38
56 40 -56 c33 -46 45 -56 69 -56 35 0 33 5 -30 89 -23 30 -41 59 -41 64 0 5
32 52 70 105 53 73 70 104 70 129 0 18 -3 33 -7 33 -5 0 -44 -50 -87 -110 -44
-61 -81 -110 -83 -110 -2 0 -41 52 -88 115 -47 63 -89 115 -94 115 -5 0 -14
-6 -20 -14z"/>
<path d="M117 309 c-76 -107 -80 -110 -98 -93 -19 17 -19 15 -19 -67 0 -82 1
-84 18 -61 l18 23 38 -55 c32 -46 44 -56 67 -56 16 0 29 2 29 5 0 2 -22 35
-50 73 -27 38 -50 71 -50 75 0 3 38 59 85 123 65 91 82 120 74 131 -6 7 -17
13 -23 13 -6 0 -46 -50 -89 -111z"/>
</g>
</svg>
