<?xml version="1.0" standalone="no"?>
<!DOCTYPE svg PUBLIC "-//W3C//DTD SVG 20010904//EN"
 "http://www.w3.org/TR/2001/REC-SVG-20010904/DTD/svg10.dtd">
<svg version="1.0" xmlns="http://www.w3.org/2000/svg"
 width="1125.000000pt" height="900.000000pt" viewBox="0 0 1125.000000 900.000000"
 preserveAspectRatio="xMidYMid meet">
<metadata>
Created by potrace 1.13, written by Peter Selinger 2001-2015
</metadata>
<g transform="translate(0.000000,900.000000) scale(0.100000,-0.100000)"
fill="#000000" stroke="none">
<path d="M0 4500 l0 -4500 5625 0 5625 0 0 4500 0 4500 -5625 0 -5625 0 0
-4500z m5510 4450 c0 -27 -186 -119 -242 -120 -19 0 -24 -26 -9 -49 24 -37
205 39 303 127 l61 54 66 -5 c49 -4 88 -15 152 -46 105 -50 265 -104 379 -128
111 -23 363 -23 466 0 141 31 214 57 214 75 -1 42 -13 44 -102 18 -47 -14
-114 -30 -149 -37 -94 -18 -318 -15 -414 6 -96 20 -287 82 -312 101 -15 11
393 13 2632 11 l2650 -2 0 -1750 0 -1750 -155 1 c-123 0 -173 5 -242 22 -119
29 -255 81 -425 162 l-142 68 -25 -42 c-53 -91 -161 -168 -285 -202 -57 -16
-60 -19 -54 -43 3 -14 7 -28 9 -30 8 -9 132 32 189 62 34 18 90 61 128 100
l69 69 131 -61 c168 -77 246 -106 366 -136 95 -24 274 -43 381 -41 l55 1 3
-392 2 -393 -5585 0 -5585 0 2 401 3 401 90 23 c135 35 148 41 139 68 -3 12
-8 24 -10 26 -2 2 -36 -5 -76 -17 -40 -11 -90 -24 -111 -27 l-37 -7 2 1213 3
1213 76 26 c103 35 181 84 245 154 l54 59 127 -60 c409 -193 697 -226 1051
-122 73 22 84 34 63 68 -7 11 -24 10 -102 -12 -138 -38 -199 -47 -335 -47
-219 0 -386 44 -666 176 -87 41 -161 74 -165 74 -5 0 -17 -16 -27 -35 -45 -84
-192 -186 -290 -202 l-36 -6 0 490 c0 269 3 493 7 496 11 11 5463 8 5463 -3z
m5698 -4827 l-3 -408 -5580 0 -5580 0 -3 408 -2 407 5585 0 5585 0 -2 -407z
m0 -1730 c1 -702 -2 -1253 -7 -1253 -14 0 -138 53 -270 116 -116 55 -125 57
-135 40 -61 -104 -165 -184 -283 -219 -68 -20 -73 -23 -73 -49 0 -33 12 -35
91 -12 106 31 229 115 282 193 l16 24 143 -65 c79 -36 164 -73 191 -83 l47
-18 -2 -511 -3 -511 -5580 0 -5580 0 -3 499 -2 499 27 -6 c16 -4 62 -14 103
-23 91 -20 335 -24 430 -6 119 23 240 64 240 81 -1 40 -14 44 -89 21 -214 -63
-467 -69 -658 -14 l-53 15 0 1263 c0 694 3 1266 7 1269 3 4 2515 6 5582 5
l5576 -3 3 -1252z"/>
<path d="M7602 6972 c-49 -88 -172 -177 -285 -206 -48 -12 -52 -16 -55 -46 -3
-31 -3 -32 30 -25 122 26 227 85 307 171 l56 62 85 -43 c192 -96 386 -162 551
-186 126 -18 341 -7 464 25 95 25 155 45 155 52 0 2 -5 14 -11 27 l-11 24 -74
-23 c-329 -101 -628 -63 -1031 131 -86 41 -157 75 -158 75 -1 0 -11 -17 -23
-38z"/>
<path d="M3376 6335 c-46 -85 -203 -193 -307 -210 -36 -6 -38 -9 -33 -33 4
-15 8 -29 10 -31 2 -2 32 4 66 13 102 28 191 81 259 153 l60 65 129 -60 c265
-126 449 -174 665 -175 152 -1 246 12 370 50 100 31 96 29 83 59 -9 19 -17 24
-32 19 -217 -61 -201 -59 -401 -59 -128 -1 -208 3 -245 13 -165 40 -304 93
-481 182 -54 27 -104 49 -112 49 -7 0 -21 -16 -31 -35z"/>
<path d="M626 4251 c-35 -66 -142 -138 -249 -165 -49 -13 -52 -15 -49 -42 2
-16 5 -30 6 -31 1 -2 29 4 61 12 84 22 188 80 235 132 l41 44 132 -55 c236
-97 341 -124 518 -133 137 -6 244 5 372 39 78 21 89 33 68 67 -7 12 -21 10
-87 -7 -188 -50 -375 -53 -560 -8 -115 28 -187 54 -348 126 -63 27 -117 50
-120 50 -3 0 -12 -13 -20 -29z"/>
<path d="M2490 4246 c-43 -70 -138 -133 -243 -160 -49 -13 -52 -15 -49 -42 2
-16 5 -30 6 -31 1 -2 28 4 59 12 86 22 174 71 229 126 l50 50 87 -37 c155 -67
204 -85 321 -116 200 -53 421 -50 631 9 57 16 60 18 54 42 -4 14 -8 28 -10 30
-2 2 -39 -6 -82 -17 -297 -79 -549 -45 -929 127 -51 22 -94 41 -97 41 -3 0
-15 -15 -27 -34z"/>
<path d="M4360 4246 c-43 -70 -138 -133 -243 -160 -49 -13 -52 -15 -49 -42 2
-16 5 -30 6 -31 1 -2 28 4 59 12 86 22 174 71 230 127 l50 50 91 -40 c239
-106 375 -141 566 -149 140 -5 248 7 381 44 57 16 60 18 54 42 -4 14 -8 28
-10 30 -2 2 -39 -6 -82 -17 -291 -78 -536 -47 -896 112 -69 31 -128 56 -131
56 -2 0 -14 -15 -26 -34z"/>
<path d="M6230 4246 c-43 -70 -138 -133 -243 -160 -48 -13 -52 -16 -50 -41 1
-15 4 -29 6 -31 2 -2 30 3 62 11 81 22 169 71 228 128 l49 48 130 -56 c340
-146 608 -172 910 -88 56 16 59 18 53 42 -4 14 -8 28 -10 29 -2 2 -40 -5 -85
-17 -229 -58 -424 -52 -655 20 -38 11 -137 50 -219 85 -82 35 -150 64 -152 64
-1 0 -12 -15 -24 -34z"/>
<path d="M8091 4237 c-48 -71 -132 -125 -234 -151 -48 -13 -52 -16 -50 -41 1
-15 4 -29 6 -31 2 -2 30 3 62 11 82 22 171 72 227 128 l48 48 131 -56 c243
-104 410 -140 614 -133 95 4 161 13 243 33 113 27 114 27 107 54 -4 14 -8 28
-10 30 -2 2 -41 -6 -87 -18 -131 -33 -233 -44 -348 -37 -177 10 -302 45 -548
152 -68 30 -125 54 -127 54 -2 0 -17 -19 -34 -43z"/>
<path d="M9961 4237 c-48 -71 -132 -125 -234 -151 -38 -10 -53 -18 -55 -32 -5
-39 10 -44 73 -28 84 22 170 70 227 127 l48 48 128 -54 c248 -107 410 -142
617 -135 98 4 158 12 243 33 112 28 113 29 107 54 -4 14 -8 28 -10 30 -2 2
-41 -6 -87 -18 -305 -77 -540 -45 -921 125 -53 24 -99 44 -102 44 -2 0 -17
-19 -34 -43z"/>
<path d="M8521 2731 c-17 -28 -51 -67 -74 -87 -50 -43 -162 -100 -218 -109
-35 -6 -39 -10 -39 -37 l0 -31 47 7 c101 14 268 118 325 204 l15 22 141 -65
c158 -73 306 -125 432 -152 115 -24 362 -25 476 0 70 15 203 54 212 62 1 1 -3
14 -9 29 -9 18 -18 25 -28 21 -92 -36 -310 -75 -419 -75 -176 0 -402 62 -655
181 -84 39 -157 73 -163 75 -5 3 -25 -18 -43 -45z"/>
<path d="M3097 2508 c-51 -86 -159 -163 -272 -193 -66 -18 -77 -31 -56 -64 12
-19 82 -1 180 46 54 26 93 54 143 105 l69 70 127 -60 c265 -126 455 -175 677
-174 145 0 236 13 373 54 70 20 73 22 67 47 -4 14 -8 28 -10 30 -2 2 -46 -8
-97 -22 -149 -42 -217 -50 -377 -44 -221 8 -382 55 -670 196 -57 28 -110 51
-117 51 -7 0 -23 -19 -37 -42z"/>
<path d="M6149 718 c-52 -101 -187 -194 -321 -223 -23 -4 -28 -11 -28 -36 0
-31 1 -31 38 -24 115 21 258 103 316 181 17 24 36 43 42 44 5 0 48 -19 95 -41
314 -153 574 -213 817 -189 116 12 197 28 282 58 47 17 55 23 52 43 -1 12 -4
25 -7 27 -2 3 -46 -7 -97 -21 -144 -41 -227 -50 -388 -44 -212 8 -334 43 -623
178 -81 38 -152 69 -157 69 -5 0 -15 -10 -21 -22z"/>
</g>
</svg>
