<?xml version="1.0" standalone="no"?>
<!DOCTYPE svg PUBLIC "-//W3C//DTD SVG 20010904//EN"
 "http://www.w3.org/TR/2001/REC-SVG-20010904/DTD/svg10.dtd">
<svg version="1.0" xmlns="http://www.w3.org/2000/svg"
 width="1125.000000pt" height="900.000000pt" viewBox="0 0 1125.000000 900.000000"
 preserveAspectRatio="xMidYMid meet">
<metadata>
Created by potrace 1.13, written by Peter Selinger 2001-2015
</metadata>
<g transform="translate(0.000000,900.000000) scale(0.100000,-0.100000)"
fill="#000000" stroke="none">
<path d="M0 4500 l0 -4500 5625 0 5625 0 0 4500 0 4500 -5625 0 -5625 0 0
-4500z m1450 4454 c0 -3 -53 -93 -117 -200 l-118 -194 -585 3 -585 2 -3 185
c-1 101 0 190 2 197 4 10 145 13 706 13 385 0 700 -3 700 -6z m660 -4 c0 -7
258 -10 754 -10 493 0 757 3 761 10 7 11 665 15 665 4 0 -9 -208 -349 -228
-374 -17 -20 -23 -20 -1394 -18 l-1376 3 99 165 c55 91 108 180 119 198 l19
32 291 0 c187 0 290 -4 290 -10z m5092 4 c3 -3 -51 -93 -120 -200 l-126 -194
-1413 0 -1414 0 12 23 c32 60 223 363 233 369 13 9 2820 11 2828 2z m618 -4
c0 -7 260 -10 759 -10 496 0 762 3 766 10 7 12 635 14 635 3 0 -5 -53 -93
-118 -198 l-117 -190 -1353 -3 c-743 -1 -1352 1 -1352 4 0 7 42 73 177 282
l72 112 266 0 c170 0 265 -4 265 -10z m3388 -188 c2 -148 0 -194 -10 -197 -7
-3 -320 -4 -696 -3 l-683 3 77 125 c41 69 96 158 121 198 l45 72 571 -2 572
-3 3 -193z m-8180 -284 c-8 -13 -112 -186 -232 -385 l-217 -363 -1270 0 -1269
0 0 378 c0 208 3 382 7 385 3 4 679 7 1501 7 l1494 0 -14 -22z m2582 -360
l-230 -383 -612 -5 c-337 -3 -951 -4 -1365 -2 l-752 2 231 385 231 385 1363 0
1363 0 -229 -382z m2683 25 c-119 -197 -223 -370 -232 -385 l-16 -28 -420 -2
c-231 -2 -815 -2 -1297 0 l-877 2 231 385 231 385 1298 0 1298 0 -216 -357z
m2909 328 c-1 -12 -99 -185 -218 -382 l-215 -359 -1325 0 c-729 0 -1323 3
-1321 8 2 4 106 177 231 385 l228 377 1311 -2 1312 -3 -3 -24z m8 -441 l0
-300 -185 0 -184 0 180 300 c99 165 182 300 185 300 2 0 4 -135 4 -300z
m-9892 -378 c-1 -5 -86 -144 -188 -310 l-185 -302 -450 3 -450 2 0 125 0 125
253 3 252 2 0 30 0 30 -252 2 -253 3 -3 148 -3 147 642 0 c352 0 639 -4 637
-8z m2590 -302 l-191 -310 -1349 0 c-742 0 -1347 3 -1345 8 15 27 361 589 369
600 8 9 292 12 1359 12 l1348 0 -191 -310z m3230 302 c-1 -5 -86 -144 -188
-310 l-185 -301 -1487 -1 -1488 0 78 128 c44 70 129 209 191 310 l113 182
1485 0 c816 0 1483 -4 1481 -8z m2812 2 c0 -3 -84 -142 -187 -310 l-188 -304
-1368 0 -1369 0 23 39 c13 22 98 161 189 310 l165 270 1368 1 c752 0 1367 -3
1367 -6z m1258 -141 l-3 -148 -442 -3 -443 -2 0 -30 0 -30 443 -2 442 -3 3
-123 c2 -92 -1 -124 -10 -127 -7 -3 -358 -4 -780 -3 l-766 3 120 195 c66 107
152 246 190 308 l69 112 590 0 590 0 -3 -147z m-8068 -540 c0 -5 -83 -150
-184 -323 l-184 -315 -1363 0 -1364 0 -3 270 -2 269 26 53 25 53 1525 0 c838
0 1524 -3 1524 -7z m2878 -2 c-1 -5 -86 -151 -187 -325 l-184 -316 -1399 0
c-1263 0 -1400 2 -1394 16 5 14 132 233 298 517 l69 117 1400 0 c797 0 1399
-4 1397 -9z m2506 -3 c-4 -7 -97 -154 -207 -325 l-200 -313 -1199 0 -1200 0
20 33 c11 17 93 158 182 312 89 154 167 286 172 293 15 18 2443 18 2432 0z
m2681 -73 l0 -80 -141 -240 -141 -240 -1366 -3 -1366 -2 201 312 c110 172 205
319 210 326 8 9 277 12 1307 10 l1296 -3 0 -80z m3 -387 l-3 -173 -102 -3
c-57 -1 -103 0 -103 4 0 13 195 344 203 344 4 0 6 -78 5 -172z m-9548 -245
c-1 -5 -105 -181 -233 -393 l-232 -385 -575 0 -575 0 -3 380 c-1 209 0 386 3
392 3 10 174 13 810 13 443 0 805 -3 805 -7z m2850 0 c-1 -5 -105 -181 -233
-393 l-232 -385 -1387 -3 c-764 -1 -1388 0 -1388 2 0 4 422 711 456 764 l14
22 1385 0 c762 0 1385 -3 1385 -7z m3106 -9 c-9 -24 -437 -736 -454 -756 -14
-17 -99 -18 -1524 -18 -1082 0 -1508 3 -1508 11 0 6 104 184 231 395 l230 384
1516 0 c1388 0 1515 -1 1509 -16z m2514 5 c0 -6 -104 -184 -231 -395 l-230
-384 -1215 0 c-1018 0 -1215 2 -1212 14 2 7 106 185 232 395 l229 381 1213 0
c870 0 1214 -3 1214 -11z m1075 -384 l0 -390 -727 -3 c-401 -1 -728 1 -728 5
0 4 105 182 232 395 l233 388 495 -2 495 -3 0 -390z m-8190 -482 c-9 -16 -107
-179 -218 -363 l-202 -335 -1275 0 -1275 0 -3 363 -2 362 1495 0 1496 0 -16
-27z m2795 21 c0 -3 -97 -167 -216 -365 l-215 -359 -1355 0 c-756 0 -1354 4
-1352 9 2 4 99 169 217 365 l214 356 1353 0 c745 0 1354 -3 1354 -6z m2748 -3
c-1 -4 -99 -169 -217 -365 l-214 -356 -1333 0 c-734 0 -1334 3 -1334 6 0 3 97
167 216 365 l215 359 1335 0 c745 0 1334 -4 1332 -9z m2600 -29 c-13 -21 -111
-186 -218 -365 l-195 -326 -1268 -1 c-1062 0 -1268 2 -1265 14 2 7 98 171 213
364 l210 351 1273 1 1273 0 -23 -38z m44 -684 c-5 -5 -92 -7 -195 -6 l-187 3
193 320 192 320 3 -314 c1 -173 -1 -318 -6 -323z m-9851 -85 c-6 -10 -120
-191 -254 -403 l-244 -385 -407 -3 -406 -2 2 177 3 178 238 3 238 2 -3 28 -3
27 -235 5 -235 5 -3 180 c-1 98 0 185 2 192 4 10 137 13 661 13 622 0 655 -1
646 -17z m2836 3 c-3 -7 -116 -190 -252 -405 l-247 -391 -1380 0 c-822 0
-1378 4 -1376 9 2 5 115 187 253 405 l250 396 1378 0 c1171 0 1378 -2 1374
-14z m2948 -58 c-25 -40 -139 -221 -254 -403 l-208 -330 -1452 -3 c-798 -1
-1451 1 -1451 4 0 4 113 186 251 405 l252 399 1453 0 1454 0 -45 -72z m2785
66 c0 -4 -113 -186 -251 -405 l-252 -399 -1334 0 c-808 0 -1333 4 -1331 9 2 5
115 188 253 405 l250 396 1332 0 c733 0 1333 -3 1333 -6z m1285 -189 l0 -190
-462 -3 -463 -2 0 -30 0 -30 463 -2 462 -3 3 -177 2 -178 -859 0 -860 0 131
208 c72 114 187 296 255 405 l125 197 601 -2 602 -3 0 -190z m-8137 -688 c-2
-8 -84 -145 -183 -305 l-180 -291 -1332 -1 -1333 0 0 298 c0 164 3 302 7 305
3 4 685 7 1515 7 1253 0 1509 -2 1506 -13z m2968 -3 c-13 -33 -360 -586 -370
-590 -6 -2 -658 -3 -1449 -2 l-1437 3 176 285 c97 157 183 293 192 303 14 16
96 17 1455 17 1328 0 1439 -1 1433 -16z m2484 8 c0 -4 -85 -140 -188 -302
l-188 -295 -1197 -3 c-658 -1 -1197 0 -1197 2 0 9 364 591 374 598 15 10 2396
10 2396 0z m2679 -9 c0 -10 -80 -146 -178 -303 l-178 -285 -1312 -3 c-722 -1
-1311 2 -1309 6 8 21 373 588 383 594 5 4 592 8 1303 8 1224 0 1292 -1 1291
-17z m11 -363 l0 -230 -145 0 c-80 0 -145 2 -145 5 0 2 52 89 116 192 160 258
164 263 169 263 3 0 5 -103 5 -230z m-9580 -337 c-11 -21 -103 -175 -203 -343
l-183 -305 -599 0 -600 0 -3 343 -2 342 806 0 805 0 -21 -37z m2869 30 c0 -5
-92 -159 -202 -343 l-202 -335 -1388 -3 c-850 -1 -1387 2 -1385 7 1 5 93 160
203 345 l200 336 1388 0 c763 0 1387 -3 1386 -7z m3081 -30 c-11 -21 -103
-175 -203 -343 l-183 -305 -1513 -3 c-832 -1 -1511 2 -1509 6 1 5 93 160 203
345 l200 336 1513 1 1513 0 -21 -37z m2383 -308 l-206 -345 -1244 0 c-706 0
-1243 4 -1241 9 2 5 93 160 203 345 l200 336 1247 0 1246 0 -205 -345z m1245
3 l-3 -343 -682 -3 c-389 -1 -683 2 -683 7 0 4 90 160 201 345 l200 336 485 0
484 0 -2 -342z m-8327 -520 c-38 -62 -137 -223 -219 -358 l-150 -245 -1236 -3
-1236 -2 0 353 c0 195 3 357 7 360 3 4 658 7 1455 7 l1448 0 -69 -112z m2977
103 c-1 -5 -100 -167 -218 -360 l-215 -351 -1422 0 -1421 0 220 360 221 360
1419 0 c841 0 1418 -4 1416 -9z m2620 1 c-1 -5 -106 -167 -232 -360 l-229
-352 -1259 0 c-693 0 -1257 3 -1255 8 10 16 392 639 414 675 l23 37 1271 0
c699 0 1269 -4 1267 -8z m2720 0 c-1 -5 -100 -167 -218 -360 l-215 -352 -1337
0 -1337 0 168 258 c92 141 197 303 234 360 l66 102 1322 0 c726 0 1319 -4
1317 -8z m9 -709 c-2 -2 -86 -2 -186 -1 l-181 3 156 255 c85 140 168 273 182
295 l27 40 3 -294 c1 -162 1 -296 -1 -298z m-10133 -200 c-42 -71 -155 -262
-251 -425 l-176 -298 -304 0 -303 0 2 163 3 162 112 3 113 3 0 29 0 29 -112 3
-113 3 -3 228 -2 227 554 0 555 0 -75 -127z m2984 118 c-1 -5 -113 -196 -248
-425 l-245 -415 -1424 -1 -1423 0 14 23 c8 12 113 189 232 392 120 204 227
385 238 403 l20 32 1420 0 c837 0 1418 -4 1416 -9z m3042 3 c0 -3 -113 -194
-251 -425 l-252 -419 -1478 0 c-814 0 -1479 2 -1479 4 0 3 460 784 486 824
l14 22 1480 0 c814 0 1480 -3 1480 -6z m2608 -4 c-1 -5 -113 -196 -248 -425
l-245 -415 -1273 0 c-700 0 -1271 3 -1269 8 3 4 112 185 242 402 130 217 243
405 251 418 l14 22 1266 0 c812 0 1264 -3 1262 -10z m1500 -217 l-3 -228 -582
-3 -583 -2 0 -30 0 -30 583 -2 582 -3 3 -162 2 -163 -961 0 -961 0 28 48 c109
187 459 779 467 790 7 9 163 12 718 12 l709 0 -2 -227z m-8625 -690 c5 -7
-317 -543 -343 -571 -9 -9 -237 -12 -1103 -10 l-1092 3 -3 280 c-1 154 0 285
3 292 3 10 259 13 1269 13 696 0 1267 -3 1269 -7z m2854 -6 c-10 -28 -340
-562 -351 -569 -16 -11 -2766 -10 -2766 1 0 7 258 436 336 559 l14 22 1386 0
c1148 0 1385 -2 1381 -13z m2785 7 c5 -5 -313 -534 -342 -569 -11 -13 -183
-15 -1361 -15 -742 0 -1349 4 -1349 8 0 4 26 50 58 102 32 52 111 182 176 288
l118 192 1347 0 c741 0 1350 -2 1353 -6z m2658 -3 c0 -4 -78 -136 -173 -292
l-174 -284 -1286 -3 c-911 -1 -1287 1 -1287 9 0 9 210 359 317 527 l33 52
1285 0 c722 0 1285 -4 1285 -9z m325 -286 l0 -290 -297 -3 c-164 -1 -298 0
-298 3 0 10 344 570 355 578 5 4 62 6 125 5 l115 -3 0 -290z"/>
<path d="M3454 8106 c-3 -8 -4 -23 -2 -33 3 -17 39 -18 756 -21 l752 -2 0 35
0 35 -750 0 c-645 0 -751 -2 -756 -14z"/>
<path d="M8820 8085 l0 -35 756 0 755 0 -3 33 -3 32 -752 3 -753 2 0 -35z"/>
<path d="M4640 7355 l0 -35 755 0 755 0 0 35 0 35 -755 0 -755 0 0 -35z"/>
<path d="M690 6655 l0 -35 756 0 755 0 -3 33 -3 32 -752 3 -753 2 0 -35z"/>
<path d="M6530 6650 l0 -30 755 0 755 0 0 30 0 30 -755 0 -755 0 0 -30z"/>
<path d="M2130 5870 l0 -30 755 0 755 0 0 30 0 30 -755 0 -755 0 0 -30z"/>
<path d="M8030 5845 l0 -35 565 0 565 0 0 35 0 35 -565 0 -565 0 0 -35z"/>
<path d="M490 5040 l0 -30 755 0 755 0 0 30 0 30 -755 0 -755 0 0 -30z"/>
<path d="M6190 5060 l0 -30 755 0 755 0 0 30 0 30 -755 0 -755 0 0 -30z"/>
<path d="M4680 4230 l0 -30 755 0 755 0 0 30 0 30 -755 0 -755 0 0 -30z"/>
<path d="M3630 3450 l0 -30 755 0 755 0 0 30 0 30 -755 0 -755 0 0 -30z"/>
<path d="M8910 3425 l0 -35 753 2 752 3 0 30 0 30 -752 3 -753 2 0 -35z"/>
<path d="M2110 2720 l0 -30 755 0 755 0 0 30 0 30 -755 0 -755 0 0 -30z"/>
<path d="M7890 2700 l0 -30 696 0 695 0 -3 28 -3 27 -692 3 -693 2 0 -30z"/>
<path d="M470 1965 l0 -35 756 0 755 0 -3 33 -3 32 -752 3 -753 2 0 -35z"/>
<path d="M6320 1940 l0 -30 755 0 755 0 0 30 0 30 -755 0 -755 0 0 -30z"/>
<path d="M4590 1080 l0 -30 755 0 755 0 0 30 0 30 -755 0 -755 0 0 -30z"/>
<path d="M3030 300 l0 -30 755 0 755 0 0 30 0 30 -755 0 -755 0 0 -30z"/>
<path d="M8550 290 l0 -30 800 0 800 0 0 30 0 30 -800 0 -800 0 0 -30z"/>
</g>
</svg>
