<?xml version="1.0" standalone="no"?>
<!DOCTYPE svg PUBLIC "-//W3C//DTD SVG 20010904//EN"
 "http://www.w3.org/TR/2001/REC-SVG-20010904/DTD/svg10.dtd">
<svg version="1.0" xmlns="http://www.w3.org/2000/svg"
 width="1125.000000pt" height="900.000000pt" viewBox="0 0 1125.000000 900.000000"
 preserveAspectRatio="xMidYMid meet">
<metadata>
Created by potrace 1.13, written by Peter Selinger 2001-2015
</metadata>
<g transform="translate(0.000000,900.000000) scale(0.100000,-0.100000)"
fill="#000000" stroke="none">
<path d="M0 4500 l0 -4500 5625 0 5625 0 0 4500 0 4500 -5625 0 -5625 0 0
-4500z m1085 4443 c-17 -40 -16 -60 5 -86 55 -69 153 3 116 86 -8 16 12 17
375 15 l384 -3 3 -27 c4 -31 44 -68 74 -68 27 0 68 45 68 75 l0 25 1536 0
1536 0 -8 -32 c-54 -242 209 -409 373 -237 56 59 76 141 61 244 -3 20 3 20
410 23 l413 2 25 -30 c36 -42 85 -42 116 0 l22 30 398 0 398 0 0 -37 c0 -47
24 -73 67 -73 44 0 73 30 73 75 l0 35 1273 0 1273 0 22 -30 c31 -42 80 -42
115 0 l26 30 479 0 480 0 6 -22 c3 -13 6 -79 6 -147 l0 -124 -40 45 c-92 105
-250 108 -347 6 -39 -41 -53 -76 -53 -134 0 -114 99 -204 225 -204 73 0 120
21 172 77 l43 46 0 -578 c0 -562 -1 -578 -20 -602 -11 -14 -20 -38 -20 -53 0
-15 9 -39 20 -53 19 -24 20 -40 20 -450 0 -356 -2 -430 -15 -461 -14 -32 -14
-40 0 -72 13 -32 15 -155 15 -930 l0 -893 -27 -13 c-15 -7 -34 -25 -43 -40
-13 -25 -13 -31 0 -55 9 -16 28 -34 43 -41 l27 -13 0 -488 c0 -413 -2 -490
-15 -507 -19 -25 -19 -75 0 -100 11 -15 14 -59 15 -215 l0 -197 -27 -7 c-42
-10 -63 -34 -63 -72 0 -40 30 -73 65 -73 l25 0 -2 -1272 c-3 -1268 -3 -1273
-23 -1276 -15 -2 -23 6 -32 27 -24 64 -104 66 -133 4 l-15 -33 -92 0 -93 0 0
61 c0 75 -26 126 -83 166 -36 25 -49 28 -122 28 -73 0 -86 -3 -122 -28 -57
-40 -83 -91 -83 -166 l0 -61 -696 0 -695 0 20 26 c29 37 27 78 -5 103 -15 12
-37 21 -50 21 -58 0 -85 -81 -42 -127 l21 -23 -261 0 c-224 0 -266 2 -297 17
-33 16 -37 16 -70 0 -31 -15 -72 -17 -290 -17 l-255 0 0 25 c0 14 -12 37 -26
52 -44 44 -107 18 -121 -49 l-5 -28 -474 0 -474 0 -32 36 c-48 52 -100 76
-168 76 -68 0 -120 -24 -168 -76 l-32 -36 -970 0 -970 0 -23 26 c-87 101 -245
108 -345 14 l-44 -40 -509 0 -510 0 -14 34 c-36 85 -111 135 -203 136 -93 0
-173 -54 -199 -135 l-10 -30 -360 -3 -360 -2 -12 58 c-21 105 -100 172 -206
172 -111 0 -188 -67 -204 -179 l-6 -46 -318 -3 c-296 -2 -318 -1 -323 15 -22
74 -66 100 -112 66 -15 -11 -29 -33 -32 -49 l-5 -29 -255 0 -255 0 0 535 0
535 37 -3 c45 -4 78 24 78 68 0 44 -33 72 -78 68 l-37 -3 -3 123 c-1 67 0 122
4 122 3 0 20 -12 38 -27 46 -39 88 -53 159 -53 53 0 71 5 117 33 74 44 103 99
98 183 -5 80 -40 133 -111 169 -91 45 -195 31 -272 -36 l-35 -31 0 1041 1
1041 31 0 c63 0 98 66 62 118 -11 16 -25 22 -55 22 l-39 0 0 846 c0 831 0 846
20 871 25 32 26 73 1 105 -19 24 -20 51 -21 1141 l0 1116 27 13 c15 7 34 25
43 41 13 24 13 30 0 55 -9 15 -28 33 -43 40 l-27 13 0 355 c0 299 2 360 15
384 l16 30 510 0 c483 0 511 -1 504 -17z m4449 -5 c10 -14 16 -44 16 -77 0
-181 -222 -246 -299 -87 -25 51 -28 132 -5 164 14 21 22 22 144 22 122 0 130
-1 144 -22z m5546 -230 c99 -68 101 -171 6 -242 -39 -30 -143 -30 -183 0 -69
51 -89 119 -54 184 39 75 161 105 231 58z m-10761 -6968 c140 -71 84 -270 -77
-270 -95 0 -162 58 -162 139 0 118 128 188 239 131z m10368 -1517 c61 -28 92
-110 63 -164 -10 -17 -22 -19 -130 -19 -135 0 -150 7 -150 68 0 102 116 163
217 115z m-9030 -55 c27 -28 36 -46 40 -82 l6 -47 -144 3 -144 3 1 37 c2 79
67 131 152 125 45 -3 59 -9 89 -39z m1100 -29 c37 -14 83 -58 83 -81 0 -16
-11 -18 -134 -18 -80 0 -137 4 -141 10 -10 16 31 65 67 83 38 19 85 21 125 6z"/>
<path d="M7809 8922 c-209 -109 -120 -442 112 -420 209 20 257 327 66 423 -66
32 -112 32 -178 -3z m147 -51 c141 -64 107 -291 -47 -308 -58 -6 -105 25 -138
90 -41 83 -9 181 72 217 52 24 62 24 113 1z"/>
<path d="M10675 8915 c-39 -39 -32 -86 17 -111 59 -30 122 27 99 89 -19 51
-77 62 -116 22z"/>
<path d="M577 8882 c-23 -25 -21 -78 3 -102 61 -61 154 27 104 98 -20 28 -83
31 -107 4z"/>
<path d="M9146 8885 c-59 -60 10 -155 83 -114 63 36 42 121 -31 127 -23 2 -41
-3 -52 -13z"/>
<path d="M9693 8878 c-28 -14 -43 -55 -31 -89 9 -26 44 -49 74 -49 24 0 64 47
64 75 0 30 -41 75 -67 74 -10 0 -28 -5 -40 -11z"/>
<path d="M3175 8801 c-96 -25 -155 -90 -155 -171 0 -102 89 -171 220 -172 105
0 177 41 212 118 34 78 -3 159 -95 206 -44 22 -134 32 -182 19z m160 -78 c69
-35 87 -108 38 -155 -37 -35 -73 -48 -134 -48 -122 0 -197 89 -138 164 49 63
151 80 234 39z"/>
<path d="M2551 8754 c-12 -15 -21 -35 -21 -46 0 -27 45 -68 75 -68 30 0 75 41
75 68 0 35 -38 72 -75 72 -24 0 -39 -7 -54 -26z"/>
<path d="M4513 8758 c-28 -14 -43 -55 -31 -89 9 -26 44 -49 74 -49 24 0 64 47
64 75 0 30 -41 75 -67 74 -10 0 -28 -5 -40 -11z"/>
<path d="M5983 8760 c-47 -19 -56 -78 -18 -115 47 -48 119 -19 119 49 0 20 -7
43 -14 50 -20 20 -60 27 -87 16z"/>
<path d="M1595 8725 c-41 -40 -29 -95 24 -113 57 -20 109 32 89 89 -18 53 -73
65 -113 24z"/>
<path d="M6751 8634 c-12 -15 -21 -35 -21 -46 0 -27 45 -68 75 -68 30 0 75 41
75 68 0 35 -38 72 -75 72 -24 0 -39 -7 -54 -26z"/>
<path d="M8540 8640 c-26 -26 -25 -60 1 -94 25 -31 66 -35 100 -8 28 23 30 73
4 102 -24 26 -79 26 -105 0z"/>
<path d="M10290 8633 c-15 -19 -19 -35 -15 -53 14 -62 90 -79 128 -28 54 73
-56 153 -113 81z"/>
<path d="M1079 8612 c-63 -52 8 -155 80 -117 48 24 55 72 16 110 -29 30 -64
32 -96 7z"/>
<path d="M2035 8591 c-202 -93 -158 -363 65 -396 88 -12 191 39 230 115 22 43
26 122 9 167 -15 40 -67 92 -114 114 -52 24 -138 24 -190 0z m171 -62 c146
-70 90 -269 -74 -269 -95 0 -153 48 -159 132 -5 67 20 111 80 138 55 25 100
25 153 -1z"/>
<path d="M3961 8584 c-12 -15 -21 -34 -21 -44 0 -34 39 -70 75 -70 36 0 75 36
75 70 0 34 -39 70 -75 70 -24 0 -39 -7 -54 -26z"/>
<path d="M223 8590 c-46 -19 -57 -83 -20 -118 47 -44 117 -13 117 52 0 50 -50
84 -97 66z"/>
<path d="M7270 8517 c-52 -26 -49 -104 5 -129 58 -26 119 33 95 91 -6 16 -23
33 -36 40 -31 14 -33 14 -64 -2z"/>
<path d="M5146 8429 c-31 -24 -36 -77 -8 -102 50 -45 122 -17 122 48 0 36 -36
75 -70 75 -10 0 -29 -9 -44 -21z"/>
<path d="M9505 8415 c-30 -30 -31 -54 -4 -89 15 -19 30 -26 54 -26 37 0 75 37
75 72 0 27 -45 68 -75 68 -14 0 -37 -11 -50 -25z"/>
<path d="M8990 8397 c-13 -7 -29 -25 -34 -39 -29 -83 94 -137 128 -56 17 39
11 63 -22 88 -29 23 -38 24 -72 7z"/>
<path d="M9927 8390 c-35 -28 -37 -80 -5 -110 29 -27 64 -25 93 5 63 63 -18
160 -88 105z"/>
<path d="M6220 8330 c-26 -26 -25 -60 1 -94 39 -50 119 -23 121 42 1 18 -7 41
-17 52 -24 26 -79 26 -105 0z"/>
<path d="M5690 8313 c-55 -70 42 -151 105 -88 30 29 32 64 5 93 -30 32 -82 30
-110 -5z"/>
<path d="M6698 8320 c-100 -18 -178 -106 -178 -201 0 -61 13 -96 53 -138 120
-126 342 -78 387 84 41 145 -102 284 -262 255z m132 -82 c52 -36 72 -69 72
-122 0 -115 -131 -182 -242 -123 -105 55 -105 192 0 248 50 27 128 25 170 -3z"/>
<path d="M2692 8297 c-45 -48 -14 -117 51 -117 43 0 70 29 69 72 -2 63 -77 91
-120 45z"/>
<path d="M541 8274 c-12 -15 -21 -34 -21 -44 0 -34 39 -70 75 -70 36 0 75 36
75 70 0 34 -39 70 -75 70 -24 0 -39 -7 -54 -26z"/>
<path d="M10690 8280 c-43 -43 -11 -120 50 -120 17 0 39 9 50 20 26 26 26 81
2 103 -25 23 -78 21 -102 -3z"/>
<path d="M1658 8274 c-51 -27 -46 -101 7 -126 58 -26 119 33 95 91 -6 16 -23
33 -36 40 -31 14 -33 14 -66 -5z"/>
<path d="M4673 8280 c-48 -20 -58 -87 -17 -119 34 -27 64 -27 92 -1 32 30 30
82 -4 109 -29 23 -38 24 -71 11z"/>
<path d="M8235 8245 c-43 -42 -23 -106 37 -121 22 -5 34 0 59 25 25 25 30 37
25 59 -15 60 -79 80 -121 37z"/>
<path d="M1110 8230 c-45 -45 -11 -120 53 -120 42 0 67 26 67 68 0 41 -31 72
-70 72 -17 0 -39 -9 -50 -20z"/>
<path d="M3580 8203 c-55 -70 42 -151 105 -88 30 29 32 64 5 93 -30 32 -82 30
-110 -5z"/>
<path d="M7700 8160 c-11 -11 -20 -33 -20 -50 0 -17 9 -39 20 -50 11 -11 33
-20 50 -20 17 0 39 9 50 20 11 11 20 33 20 50 0 17 -9 39 -20 50 -11 11 -33
20 -50 20 -17 0 -39 -9 -50 -20z"/>
<path d="M9295 8112 c-173 -83 -162 -328 18 -388 177 -59 337 133 247 296 -53
95 -172 136 -265 92z m161 -67 c89 -58 84 -203 -8 -251 -93 -48 -201 8 -215
113 -15 115 125 203 223 138z"/>
<path d="M10302 8113 c-52 -44 -24 -123 43 -123 36 0 75 36 75 70 0 10 -9 29
-21 44 -24 31 -67 35 -97 9z"/>
<path d="M4166 8088 c-36 -51 -5 -118 54 -118 40 0 70 31 70 73 0 43 -26 67
-73 67 -26 0 -40 -6 -51 -22z"/>
<path d="M756 8066 c-43 -16 -91 -58 -112 -98 -20 -38 -18 -126 4 -168 24 -45
99 -96 154 -104 85 -13 182 34 219 107 44 86 11 193 -76 247 -45 28 -136 36
-189 16z m126 -56 c51 -15 98 -70 98 -118 0 -78 -60 -132 -147 -132 -121 0
-186 120 -112 205 43 49 94 63 161 45z"/>
<path d="M1920 7990 c-26 -26 -26 -81 -2 -103 44 -40 122 -7 122 51 0 60 -78
94 -120 52z"/>
<path d="M8715 7985 c-30 -30 -31 -54 -4 -89 15 -19 30 -26 54 -26 37 0 75 37
75 72 0 27 -45 68 -75 68 -14 0 -37 -11 -50 -25z"/>
<path d="M3055 7935 c-39 -38 -32 -86 16 -110 76 -40 146 71 76 120 -31 22
-65 18 -92 -10z"/>
<path d="M7255 7935 c-41 -40 -30 -92 25 -115 25 -10 34 -10 55 4 50 33 55 91
12 121 -31 22 -65 18 -92 -10z"/>
<path d="M5880 7920 c-28 -28 -27 -84 2 -104 51 -36 118 -5 118 54 0 17 -9 39
-20 50 -11 11 -33 20 -50 20 -17 0 -39 -9 -50 -20z"/>
<path d="M9811 7914 c-12 -15 -21 -34 -21 -44 0 -34 39 -70 75 -70 36 0 75 36
75 70 0 34 -39 70 -75 70 -24 0 -39 -7 -54 -26z"/>
<path d="M5290 7923 c-53 -19 -68 -86 -28 -123 46 -43 118 -10 118 54 0 46
-49 84 -90 69z"/>
<path d="M1282 7900 c-52 -21 -48 -107 7 -130 75 -31 134 58 76 115 -25 26
-45 30 -83 15z"/>
<path d="M2455 7885 c-14 -13 -25 -36 -25 -50 0 -30 41 -75 68 -75 35 0 72 38
72 75 0 24 -7 39 -26 54 -35 27 -59 26 -89 -4z"/>
<path d="M10601 7844 c-12 -15 -21 -34 -21 -44 0 -34 39 -70 75 -70 36 0 75
36 75 70 0 34 -39 70 -75 70 -24 0 -39 -7 -54 -26z"/>
<path d="M4652 7747 c-45 -48 -14 -117 51 -117 42 0 67 26 67 68 0 65 -74 96
-118 49z"/>
<path d="M8285 7745 c-30 -30 -31 -54 -4 -89 20 -26 69 -36 95 -18 15 10 34
47 34 67 0 25 -46 65 -75 65 -14 0 -37 -11 -50 -25z"/>
<path d="M272 7734 c-29 -20 -30 -76 -2 -104 43 -43 120 -11 120 50 0 59 -67
90 -118 54z"/>
<path d="M3721 7724 c-12 -15 -21 -34 -21 -44 0 -31 39 -70 70 -70 62 0 97 66
60 113 -29 37 -80 37 -109 1z"/>
<path d="M6452 7683 c-52 -44 -24 -123 43 -123 36 0 75 36 75 70 0 10 -9 29
-21 44 -24 31 -67 35 -97 9z"/>
<path d="M10206 7658 c-36 -51 -5 -118 54 -118 59 0 90 67 54 118 -11 16 -25
22 -54 22 -29 0 -43 -6 -54 -22z"/>
<path d="M10930 7660 c-42 -42 -8 -120 53 -120 58 0 91 85 49 123 -25 23 -78
21 -102 -3z"/>
<path d="M7752 7660 c-45 -19 -51 -96 -9 -125 32 -22 65 -18 94 11 20 20 24
31 19 57 -4 17 -12 37 -19 44 -18 17 -59 24 -85 13z"/>
<path d="M4341 7557 c-48 -18 -111 -74 -127 -113 -20 -48 -18 -128 5 -172 92
-180 369 -152 422 42 22 82 -29 184 -114 227 -49 26 -140 33 -186 16z m124
-58 c22 -6 56 -28 77 -49 33 -33 38 -44 38 -84 0 -92 -61 -150 -155 -150 -139
0 -216 145 -126 238 49 50 99 63 166 45z"/>
<path d="M1606 7538 c-36 -51 -5 -118 54 -118 59 0 90 67 54 118 -11 16 -25
22 -54 22 -29 0 -43 -6 -54 -22z"/>
<path d="M8712 7534 c-62 -43 -32 -134 44 -134 24 0 64 47 64 75 0 30 -41 75
-67 75 -10 0 -29 -7 -41 -16z"/>
<path d="M2110 7510 c-26 -26 -26 -81 0 -105 29 -26 79 -24 102 4 27 34 23 75
-8 100 -34 26 -68 27 -94 1z"/>
<path d="M4972 7494 c-16 -11 -22 -25 -22 -54 0 -29 6 -43 22 -54 32 -23 74
-20 98 6 59 64 -25 153 -98 102z"/>
<path d="M2710 7487 c-76 -38 -28 -154 55 -133 29 7 56 56 48 87 -11 41 -65
65 -103 46z"/>
<path d="M9760 7493 c-51 -19 -68 -85 -30 -123 61 -61 159 32 103 98 -20 23
-50 33 -73 25z"/>
<path d="M783 7468 c-12 -6 -26 -22 -31 -37 -27 -76 77 -134 123 -68 22 31 18
65 -10 92 -26 27 -47 30 -82 13z"/>
<path d="M5985 7455 c-14 -13 -25 -36 -25 -50 0 -30 41 -75 68 -75 35 0 72 38
72 73 0 38 -7 50 -37 66 -33 17 -51 14 -78 -14z"/>
<path d="M10588 7456 c-189 -51 -220 -289 -49 -378 72 -38 146 -38 219 -2 179
89 140 341 -59 383 -59 13 -51 13 -111 -3z m142 -74 c107 -54 106 -203 -3
-252 -112 -51 -237 15 -237 125 0 49 29 98 72 125 42 25 120 26 168 2z"/>
<path d="M7172 7444 c-28 -20 -31 -83 -4 -107 25 -23 78 -21 102 3 61 61 -27
154 -98 104z"/>
<path d="M8058 7420 c-159 -50 -194 -249 -61 -344 175 -123 390 98 264 271
-44 61 -137 94 -203 73z m123 -83 c68 -46 73 -147 9 -200 -58 -49 -136 -43
-185 14 -46 55 -28 160 33 193 41 23 103 20 143 -7z"/>
<path d="M9166 7389 c-50 -39 -22 -122 42 -122 43 0 72 28 72 70 0 65 -61 93
-114 52z"/>
<path d="M5435 7366 c-135 -62 -165 -191 -67 -286 53 -51 103 -70 184 -70 134
0 238 82 238 188 0 54 -19 91 -70 134 -73 63 -193 77 -285 34z m219 -61 c102
-49 98 -163 -9 -215 -87 -42 -212 -15 -256 56 -38 61 -14 120 66 160 59 30
135 30 199 -1z"/>
<path d="M3135 7325 c-128 -69 -161 -226 -69 -333 92 -107 245 -87 309 41 33
68 33 127 -1 196 -34 67 -86 103 -157 108 -35 3 -62 -1 -82 -12z m120 -59 c66
-28 99 -117 70 -191 -37 -99 -142 -119 -214 -41 -19 20 -26 40 -28 84 -5 69
17 117 68 144 41 22 59 22 104 4z"/>
<path d="M3742 7317 c-45 -48 -17 -117 47 -117 46 0 71 24 71 68 0 65 -74 96
-118 49z"/>
<path d="M6650 7230 c-27 -27 -26 -71 3 -98 54 -51 128 -7 117 68 -6 49 -82
68 -120 30z"/>
<path d="M372 7197 c-45 -48 -14 -117 51 -117 42 0 67 26 67 68 0 65 -74 96
-118 49z"/>
<path d="M1315 7180 c-26 -29 -24 -79 4 -102 70 -56 164 39 101 102 -26 26
-81 26 -105 0z"/>
<path d="M1795 7172 c-136 -66 -167 -232 -63 -339 40 -42 116 -67 171 -59 191
31 247 269 90 380 -56 39 -138 46 -198 18z m161 -67 c88 -57 84 -203 -7 -250
-95 -50 -205 10 -216 116 -12 115 126 198 223 134z"/>
<path d="M2330 7110 c-42 -42 -8 -120 53 -120 58 0 91 85 49 123 -25 23 -78
21 -102 -3z"/>
<path d="M8756 7099 c-19 -15 -26 -30 -26 -54 0 -36 36 -75 70 -75 34 0 70 39
70 75 0 36 -36 75 -70 75 -10 0 -29 -9 -44 -21z"/>
<path d="M7491 7054 c-12 -15 -21 -34 -21 -44 0 -34 39 -70 75 -70 36 0 75 36
75 70 0 34 -39 70 -75 70 -24 0 -39 -7 -54 -26z"/>
<path d="M5052 7043 c-7 -3 -19 -18 -28 -35 -13 -24 -13 -35 -4 -58 31 -74
140 -51 140 30 0 45 -63 81 -108 63z"/>
<path d="M9522 7007 c-45 -48 -14 -117 51 -117 42 0 70 29 70 72 0 61 -78 91
-121 45z"/>
<path d="M10072 7007 c-45 -48 -14 -117 51 -117 42 0 70 29 70 72 0 61 -78 91
-121 45z"/>
<path d="M6841 6979 c-76 -23 -142 -90 -162 -163 -24 -88 22 -192 108 -243 42
-24 58 -28 128 -28 91 0 123 13 180 72 131 135 32 356 -164 369 -31 2 -71 -1
-90 -7z m168 -80 c52 -29 74 -65 79 -125 5 -63 -19 -111 -72 -144 -122 -75
-278 2 -278 136 0 128 150 202 271 133z"/>
<path d="M2760 6940 c-43 -43 -11 -120 50 -120 41 0 70 31 70 74 0 60 -77 89
-120 46z"/>
<path d="M6240 6937 c-76 -38 -28 -154 55 -133 29 7 56 56 48 87 -11 41 -65
65 -103 46z"/>
<path d="M4220 6870 c-61 -61 27 -154 98 -104 28 20 31 83 4 107 -25 23 -78
21 -102 -3z"/>
<path d="M1012 6824 c-28 -20 -31 -83 -4 -107 45 -40 122 -6 122 53 0 59 -67
90 -118 54z"/>
<path d="M3482 6817 c-28 -30 -28 -68 1 -95 48 -45 120 -16 120 48 0 65 -76
95 -121 47z"/>
<path d="M8370 6820 c-11 -11 -20 -33 -20 -50 0 -17 9 -39 20 -50 11 -11 33
-20 50 -20 17 0 39 9 50 20 11 11 20 33 20 50 0 17 -9 39 -20 50 -11 11 -33
20 -50 20 -17 0 -39 -9 -50 -20z"/>
<path d="M156 6789 c-36 -28 -36 -80 0 -108 35 -27 59 -26 89 4 34 33 33 77
-1 104 -15 12 -34 21 -44 21 -10 0 -29 -9 -44 -21z"/>
<path d="M508 6790 c-114 -61 -143 -227 -56 -326 43 -48 83 -67 146 -67 146 0
237 182 159 316 -52 89 -162 123 -249 77z m143 -55 c43 -23 69 -71 69 -128 0
-89 -50 -147 -128 -147 -38 0 -50 5 -82 38 -50 49 -60 102 -31 166 33 76 105
105 172 71z"/>
<path d="M11006 6789 c-19 -15 -26 -30 -26 -54 0 -36 36 -75 70 -75 34 0 70
39 70 75 0 36 -36 75 -70 75 -10 0 -29 -9 -44 -21z"/>
<path d="M9364 6762 c-85 -40 -145 -151 -129 -240 17 -92 100 -174 190 -188
69 -10 144 17 192 69 50 54 66 102 61 177 -5 70 -39 127 -99 167 -55 36 -154
43 -215 15z m183 -68 c72 -54 93 -141 52 -214 -31 -55 -77 -82 -139 -82 -110
0 -184 94 -156 198 14 51 32 76 76 103 44 28 127 25 167 -5z"/>
<path d="M4631 6744 c-12 -15 -21 -34 -21 -44 0 -34 39 -70 75 -70 36 0 75 36
75 70 0 34 -39 70 -75 70 -24 0 -39 -7 -54 -26z"/>
<path d="M8970 6750 c-63 -63 31 -158 101 -102 28 23 30 73 4 102 -24 26 -79
26 -105 0z"/>
<path d="M7925 6715 c-39 -39 -32 -86 17 -111 59 -30 122 27 99 89 -19 51 -77
62 -116 22z"/>
<path d="M2191 6694 c-12 -15 -21 -34 -21 -44 0 -34 39 -70 75 -70 36 0 75 36
75 70 0 34 -39 70 -75 70 -24 0 -39 -7 -54 -26z"/>
<path d="M1470 6680 c-42 -42 -8 -120 53 -120 58 0 91 85 49 123 -25 23 -78
21 -102 -3z"/>
<path d="M5790 6633 c-53 -19 -68 -86 -28 -123 63 -58 157 33 101 98 -20 23
-50 33 -73 25z"/>
<path d="M10539 6611 c-25 -25 -30 -37 -25 -59 15 -60 79 -80 121 -37 43 42
23 106 -37 121 -22 5 -34 0 -59 -25z"/>
<path d="M5221 6554 c-12 -15 -21 -35 -21 -46 0 -27 45 -68 75 -68 29 0 75 40
75 65 0 20 -19 57 -34 67 -26 18 -75 8 -95 -18z"/>
<path d="M7460 6507 c-33 -16 -47 -58 -32 -92 25 -55 100 -58 127 -5 32 61
-33 128 -95 97z"/>
<path d="M3895 6455 c-30 -30 -31 -54 -4 -89 15 -19 30 -26 54 -26 36 0 75 36
75 70 0 10 -9 29 -21 44 -27 34 -71 35 -104 1z"/>
<path d="M6340 6440 c-26 -26 -25 -60 1 -94 25 -31 66 -35 100 -8 28 23 30 73
4 102 -24 26 -79 26 -105 0z"/>
<path d="M2625 6405 c-40 -39 -29 -95 22 -113 78 -27 136 76 70 123 -31 22
-65 18 -92 -10z"/>
<path d="M10075 6405 c-46 -46 -19 -118 44 -118 66 0 98 76 51 123 -27 27 -66
25 -95 -5z"/>
<path d="M996 6359 c-36 -28 -36 -80 0 -108 15 -12 34 -21 44 -21 34 0 70 39
70 75 0 36 -36 75 -70 75 -10 0 -29 -9 -44 -21z"/>
<path d="M8525 6368 c-28 -16 -35 -28 -35 -65 0 -22 8 -38 26 -52 35 -27 59
-26 89 4 34 33 33 77 -1 104 -30 24 -50 26 -79 9z"/>
<path d="M3162 6343 c-32 -27 -37 -64 -12 -96 28 -35 80 -37 110 -5 58 63 -32
156 -98 101z"/>
<path d="M8996 6239 c-19 -15 -26 -30 -26 -54 0 -36 36 -75 70 -75 34 0 70 39
70 75 0 36 -36 75 -70 75 -10 0 -29 -9 -44 -21z"/>
<path d="M7975 6215 c-30 -30 -31 -54 -4 -89 20 -26 69 -36 95 -18 15 10 34
47 34 67 0 25 -46 65 -75 65 -14 0 -37 -11 -50 -25z"/>
<path d="M10760 6220 c-24 -24 -26 -67 -4 -98 11 -16 25 -22 54 -22 29 0 43 6
54 22 36 51 5 118 -54 118 -17 0 -39 -9 -50 -20z"/>
<path d="M4441 6194 c-12 -15 -21 -34 -21 -44 0 -34 39 -70 75 -70 36 0 75 36
75 70 0 34 -39 70 -75 70 -24 0 -39 -7 -54 -26z"/>
<path d="M1416 6128 c-50 -71 43 -159 104 -98 26 26 26 81 2 103 -28 25 -87
22 -106 -5z"/>
<path d="M2086 6128 c-50 -71 43 -159 104 -98 26 26 26 81 2 103 -28 25 -87
22 -106 -5z"/>
<path d="M5790 6130 c-27 -27 -25 -66 5 -95 29 -30 64 -32 96 -7 28 23 30 73
4 102 -24 26 -79 26 -105 0z"/>
<path d="M372 6097 c-45 -48 -14 -117 51 -117 42 0 67 26 67 68 0 65 -74 96
-118 49z"/>
<path d="M5260 6077 c-52 -26 -49 -104 4 -128 81 -37 138 73 64 125 -27 19
-35 20 -68 3z"/>
<path d="M8280 6081 c-85 -27 -135 -83 -146 -163 -21 -151 136 -264 273 -197
81 39 126 134 103 218 -12 46 -59 105 -100 126 -36 19 -98 26 -130 16z m110
-76 c38 -20 60 -63 60 -119 0 -116 -148 -166 -224 -76 -93 111 35 262 164 195z"/>
<path d="M9708 6074 c-51 -27 -46 -101 7 -126 58 -26 119 33 95 91 -6 16 -23
33 -36 40 -31 14 -33 14 -66 -5z"/>
<path d="M3460 6064 c-81 -35 -132 -114 -132 -204 0 -151 141 -258 284 -216
201 58 219 340 26 420 -47 20 -132 20 -178 0z m171 -67 c58 -39 81 -83 77
-148 -7 -100 -72 -155 -173 -147 -91 8 -145 68 -145 161 0 84 75 157 160 157
32 0 58 -7 81 -23z"/>
<path d="M7396 6049 c-46 -36 -26 -110 34 -124 64 -15 108 78 58 125 -28 26
-58 26 -92 -1z"/>
<path d="M2849 6032 c-48 -40 -17 -122 47 -122 66 0 98 74 51 118 -28 27 -67
28 -98 4z"/>
<path d="M6792 5980 c-48 -45 -16 -123 50 -123 61 0 91 78 45 121 -29 28 -67
28 -95 2z"/>
<path d="M6255 5960 c-42 -46 -8 -120 54 -120 34 0 71 37 71 71 0 58 -87 91
-125 49z"/>
<path d="M1958 5938 c-47 -12 -113 -69 -138 -119 -27 -51 -27 -146 -1 -197
107 -208 425 -135 424 98 0 30 -7 71 -15 91 -23 54 -84 107 -141 124 -57 17
-76 17 -129 3z m153 -82 c97 -66 91 -205 -10 -273 -98 -66 -241 15 -241 136 0
59 33 118 80 142 51 28 126 25 171 -5z"/>
<path d="M901 5884 c-12 -15 -21 -35 -21 -46 0 -27 45 -68 75 -68 30 0 75 41
75 68 0 35 -38 72 -75 72 -24 0 -39 -7 -54 -26z"/>
<path d="M5662 5895 c-161 -50 -205 -247 -78 -352 166 -136 425 12 366 210
-17 59 -93 130 -153 145 -57 15 -80 14 -135 -3z m179 -86 c40 -29 63 -95 50
-146 -12 -46 -41 -76 -93 -98 -49 -20 -84 -19 -134 4 -173 79 -79 309 110 269
21 -5 51 -18 67 -29z"/>
<path d="M4052 5890 c-77 -31 -34 -153 48 -135 65 14 74 106 14 134 -29 13
-31 13 -62 1z"/>
<path d="M10800 5871 c-74 -23 -117 -61 -149 -131 -87 -192 127 -385 314 -282
95 52 140 175 101 277 -39 100 -167 166 -266 136z m95 -62 c55 -14 111 -72
121 -124 13 -71 -26 -149 -90 -179 -132 -63 -277 73 -218 205 23 53 48 76 99
95 47 16 36 16 88 3z"/>
<path d="M8730 5840 c-42 -42 -12 -120 48 -120 46 0 72 25 72 70 0 29 -6 43
-22 54 -31 22 -74 20 -98 -4z"/>
<path d="M10215 5838 c-50 -27 -59 -75 -20 -113 29 -30 64 -32 96 -7 59 48 -9
157 -76 120z"/>
<path d="M2433 5818 c-12 -6 -26 -22 -31 -37 -27 -76 77 -134 123 -68 22 31
18 65 -10 92 -26 27 -47 30 -82 13z"/>
<path d="M5032 5784 c-28 -20 -31 -83 -4 -107 25 -23 78 -21 102 3 61 61 -27
154 -98 104z"/>
<path d="M9230 5767 c-52 -26 -49 -104 4 -128 36 -17 73 -3 92 32 19 38 6 80
-32 98 -31 14 -33 14 -64 -2z"/>
<path d="M1527 5703 c-9 -2 -24 -18 -33 -35 -19 -37 -5 -80 32 -97 37 -16 52
-14 79 14 58 57 3 139 -78 118z"/>
<path d="M7150 5650 c-11 -11 -20 -33 -20 -50 0 -17 9 -39 20 -50 42 -42 120
-12 120 48 0 66 -74 98 -120 52z"/>
<path d="M7717 5652 c-25 -28 -22 -87 5 -106 71 -50 159 43 98 104 -26 26 -81
26 -103 2z"/>
<path d="M545 5615 c-39 -39 -32 -86 17 -111 59 -30 122 27 99 89 -19 51 -77
62 -116 22z"/>
<path d="M4532 5547 c-45 -48 -17 -117 47 -117 46 0 71 24 71 68 0 65 -74 96
-118 49z"/>
<path d="M6035 5495 c-43 -42 -23 -106 37 -121 22 -5 34 0 59 25 25 25 30 37
25 59 -15 60 -79 80 -121 37z"/>
<path d="M1040 5460 c-62 -62 31 -158 99 -102 28 22 31 75 6 102 -24 26 -79
26 -105 0z"/>
<path d="M3101 5454 c-12 -15 -21 -35 -21 -46 0 -27 45 -68 75 -68 30 0 75 41
75 68 0 35 -38 72 -75 72 -24 0 -39 -7 -54 -26z"/>
<path d="M9797 5412 c-25 -28 -22 -87 5 -106 49 -34 118 -2 118 55 0 58 -85
93 -123 51z"/>
<path d="M5260 5407 c-33 -16 -47 -58 -32 -92 25 -55 100 -58 127 -5 32 61
-33 128 -95 97z"/>
<path d="M6508 5386 c-10 -7 -21 -24 -26 -37 -28 -74 78 -130 123 -66 22 31
18 65 -10 92 -26 27 -60 32 -87 11z"/>
<path d="M10406 5379 c-19 -15 -26 -30 -26 -54 0 -37 37 -75 72 -75 29 0 68
45 68 79 0 32 -38 71 -70 71 -10 0 -29 -9 -44 -21z"/>
<path d="M6959 5375 c-54 -17 -114 -73 -130 -123 -61 -184 187 -331 338 -199
41 36 73 98 73 142 0 77 -74 163 -156 184 -53 14 -68 13 -125 -4z m165 -85
c88 -78 53 -196 -67 -224 -70 -16 -160 39 -172 107 -15 81 50 147 147 147 50
0 62 -4 92 -30z"/>
<path d="M3642 5364 c-28 -20 -31 -83 -4 -107 25 -23 78 -21 102 3 61 61 -27
154 -98 104z"/>
<path d="M8525 5355 c-30 -30 -31 -54 -4 -89 15 -19 30 -26 54 -26 36 0 75 36
75 70 0 10 -9 29 -21 44 -27 34 -71 35 -104 1z"/>
<path d="M130 5337 c-52 -26 -49 -104 5 -129 58 -26 119 33 95 91 -6 16 -23
33 -36 40 -31 14 -33 14 -64 -2z"/>
<path d="M9230 5337 c-52 -26 -49 -104 4 -128 36 -17 73 -3 92 32 19 38 6 80
-32 98 -31 14 -33 14 -64 -2z"/>
<path d="M2630 5287 c-13 -7 -31 -24 -39 -38 -30 -53 36 -117 94 -91 55 25 58
100 5 127 -35 18 -29 18 -60 2z"/>
<path d="M4193 5290 c-46 -19 -57 -83 -20 -118 47 -44 117 -13 117 52 0 50
-50 84 -97 66z"/>
<path d="M1902 5237 c-45 -48 -14 -117 51 -117 42 0 67 26 67 68 0 65 -74 96
-118 49z"/>
<path d="M10915 5235 c-30 -30 -31 -54 -4 -89 15 -19 30 -26 54 -26 37 0 75
37 75 72 0 27 -45 68 -75 68 -14 0 -37 -11 -50 -25z"/>
<path d="M492 5167 c-44 -47 -13 -117 52 -117 41 0 69 29 69 72 0 61 -78 91
-121 45z"/>
<path d="M910 5175 c-110 -34 -169 -146 -136 -258 51 -176 297 -200 384 -37
34 64 28 152 -14 212 -53 77 -148 110 -234 83z m137 -75 c121 -73 80 -252 -61
-267 -51 -6 -92 12 -130 57 -33 40 -36 119 -7 164 43 65 132 86 198 46z"/>
<path d="M7541 5164 c-12 -15 -21 -34 -21 -44 0 -34 39 -70 75 -70 36 0 75 36
75 70 0 34 -39 70 -75 70 -24 0 -39 -7 -54 -26z"/>
<path d="M5692 5164 c-79 -33 -31 -151 53 -130 28 7 57 58 47 85 -16 48 -54
65 -100 45z"/>
<path d="M8133 5165 c-49 -21 -58 -71 -18 -110 45 -46 118 -19 118 43 0 58
-47 89 -100 67z"/>
<path d="M4640 5161 c-160 -51 -208 -223 -95 -336 126 -126 338 -39 338 139 0
54 -26 118 -59 147 -49 43 -135 66 -184 50z m111 -76 c64 -34 89 -128 49 -192
-39 -64 -128 -83 -191 -40 -42 28 -59 60 -59 112 0 52 17 84 59 112 40 27 98
30 142 8z"/>
<path d="M1387 5053 c-45 -51 -17 -123 48 -123 36 0 75 36 75 70 0 10 -9 29
-21 44 -24 31 -77 36 -102 9z"/>
<path d="M8859 5046 c-37 -18 -56 -59 -41 -90 25 -56 101 -59 131 -5 31 56
-33 124 -90 95z"/>
<path d="M5039 5021 c-25 -25 -30 -37 -25 -59 15 -60 79 -80 121 -37 43 42 23
106 -37 121 -22 5 -34 0 -59 -25z"/>
<path d="M6223 4978 c-51 -24 -50 -106 1 -129 83 -38 147 84 66 126 -33 17
-37 17 -67 3z"/>
<path d="M9421 4954 c-34 -17 -62 -41 -79 -67 -23 -35 -27 -51 -27 -117 0 -68
3 -81 29 -118 34 -50 112 -92 171 -92 60 0 140 43 173 93 23 35 27 51 27 117
0 66 -4 82 -27 117 -33 50 -113 93 -173 93 -24 0 -63 -11 -94 -26z m156 -54
c114 -51 111 -211 -5 -262 -170 -75 -287 175 -122 260 54 27 73 27 127 2z"/>
<path d="M10710 4880 c-26 -26 -26 -81 0 -105 27 -25 80 -22 102 6 56 68 -40
161 -102 99z"/>
<path d="M3140 4860 c-11 -11 -20 -33 -20 -50 0 -17 9 -39 20 -50 11 -11 33
-20 50 -20 17 0 39 9 50 20 11 11 20 33 20 50 0 17 -9 39 -20 50 -11 11 -33
20 -50 20 -17 0 -39 -9 -50 -20z"/>
<path d="M2233 4860 c-48 -19 -58 -87 -17 -119 34 -27 64 -27 92 -1 57 53 -3
149 -75 120z"/>
<path d="M6705 4825 c-40 -39 -29 -97 22 -116 36 -13 78 5 93 40 31 75 -58
134 -115 76z"/>
<path d="M8387 4792 c-40 -44 -7 -122 51 -122 60 0 94 78 52 120 -26 26 -81
26 -103 2z"/>
<path d="M10070 4790 c-63 -63 31 -158 101 -102 28 23 30 73 4 102 -24 26 -79
26 -105 0z"/>
<path d="M250 4787 c-52 -26 -49 -104 5 -129 81 -37 143 87 64 127 -34 18 -37
18 -69 2z"/>
<path d="M4105 4775 c-14 -13 -25 -36 -25 -50 0 -29 40 -75 65 -75 20 0 57 19
67 34 18 26 8 75 -18 95 -35 27 -59 26 -89 -4z"/>
<path d="M7755 4775 c-14 -13 -25 -36 -25 -50 0 -28 40 -75 64 -75 76 0 106
91 44 134 -32 22 -55 20 -83 -9z"/>
<path d="M7235 4740 c-42 -46 -10 -120 51 -120 37 0 74 37 74 75 0 54 -88 86
-125 45z"/>
<path d="M5280 4710 c-43 -43 -11 -120 50 -120 38 0 70 32 70 70 0 38 -32 70
-70 70 -17 0 -39 -9 -50 -20z"/>
<path d="M5800 4710 c-43 -43 -11 -120 50 -120 38 0 70 32 70 70 0 38 -32 70
-70 70 -17 0 -39 -9 -50 -20z"/>
<path d="M3480 4690 c-56 -26 -86 -54 -110 -100 -44 -86 -33 -179 28 -250 135
-159 393 -65 392 142 -1 86 -49 166 -124 205 -50 26 -134 27 -186 3z m177 -71
c88 -54 96 -196 15 -259 -65 -52 -150 -50 -211 6 -148 133 27 357 196 253z"/>
<path d="M1710 4670 c-63 -63 31 -158 101 -102 28 23 30 73 4 102 -24 26 -79
26 -105 0z"/>
<path d="M2165 4531 c-80 -37 -125 -111 -125 -206 0 -197 239 -294 379 -154
141 141 43 380 -156 379 -35 0 -74 -8 -98 -19z m180 -66 c55 -32 79 -80 73
-150 -8 -96 -74 -151 -173 -143 -60 5 -95 27 -124 79 -82 143 81 298 224 214z"/>
<path d="M7995 4515 c-74 -40 -115 -107 -115 -190 0 -200 233 -285 345 -126
28 39 30 50 30 126 0 78 -2 86 -31 121 -49 61 -78 77 -141 81 -40 3 -67 -1
-88 -12z m140 -65 c112 -69 69 -270 -57 -270 -57 0 -96 25 -119 73 -30 67 -22
126 24 176 42 45 100 53 152 21z"/>
<path d="M1042 4497 c-45 -48 -14 -117 51 -117 42 0 70 29 70 72 0 61 -78 91
-121 45z"/>
<path d="M4550 4500 c-26 -26 -26 -81 -2 -103 45 -40 122 -6 122 53 0 17 -9
39 -20 50 -11 11 -33 20 -50 20 -17 0 -39 -9 -50 -20z"/>
<path d="M591 4474 c-12 -15 -21 -35 -21 -46 0 -27 45 -68 75 -68 29 0 75 40
75 65 0 20 -19 57 -34 67 -26 18 -75 8 -95 -18z"/>
<path d="M9057 4482 c-23 -25 -21 -78 3 -102 61 -61 154 27 104 98 -20 28 -83
31 -107 4z"/>
<path d="M10501 4477 c-51 -25 -47 -107 5 -127 77 -30 138 57 79 115 -27 28
-48 31 -84 12z"/>
<path d="M2811 4444 c-41 -53 -13 -114 52 -114 42 0 70 29 70 72 0 64 -83 92
-122 42z"/>
<path d="M6379 4452 c-49 -40 -17 -122 48 -122 65 0 93 61 52 114 -25 31 -66
35 -100 8z"/>
<path d="M6906 4358 c-36 -51 -5 -118 54 -118 59 0 90 67 54 118 -11 16 -25
22 -54 22 -29 0 -43 -6 -54 -22z"/>
<path d="M1595 4345 c-14 -13 -25 -36 -25 -50 0 -28 40 -75 64 -75 78 0 109
107 40 139 -37 16 -52 14 -79 -14z"/>
<path d="M5385 4351 c-132 -34 -197 -165 -137 -277 19 -37 80 -83 124 -95 86
-23 177 6 232 75 25 30 31 48 34 99 3 55 0 67 -26 108 -45 70 -148 111 -227
90z m132 -81 c73 -44 83 -139 20 -196 -63 -58 -159 -53 -216 11 -76 87 -11
205 114 205 32 0 62 -7 82 -20z"/>
<path d="M8595 4325 c-28 -27 -30 -42 -14 -79 14 -29 55 -47 85 -35 26 9 54
47 54 72 0 26 -45 67 -75 67 -14 0 -37 -11 -50 -25z"/>
<path d="M9712 4327 c-43 -46 -16 -117 46 -119 43 -1 72 26 72 69 0 66 -74 97
-118 50z"/>
<path d="M4033 4308 c-81 -39 -20 -167 62 -130 55 25 58 100 5 127 -33 17 -37
17 -67 3z"/>
<path d="M7490 4313 c-76 -27 -58 -143 21 -143 55 0 92 87 52 122 -22 19 -53
28 -73 21z"/>
<path d="M10793 4283 c-108 -69 -125 -232 -35 -326 39 -42 75 -57 132 -57 77
0 135 39 175 119 27 53 18 157 -18 208 -59 85 -172 110 -254 56z m163 -52 c60
-37 81 -128 45 -199 -49 -95 -167 -96 -220 -2 -26 47 -27 100 -1 150 34 67
112 90 176 51z"/>
<path d="M5923 4240 c-47 -19 -56 -78 -18 -115 47 -48 119 -19 119 49 0 20 -7
43 -14 50 -20 20 -60 27 -87 16z"/>
<path d="M10210 4237 c-79 -40 -24 -162 58 -128 58 24 61 104 6 130 -31 14
-33 14 -64 -2z"/>
<path d="M6671 4125 c-152 -48 -199 -273 -79 -381 59 -54 155 -70 224 -38 129
61 164 248 67 355 -62 68 -132 89 -212 64z m133 -74 c121 -80 82 -283 -56
-298 -147 -17 -218 169 -108 279 33 34 43 38 86 38 31 0 59 -7 78 -19z"/>
<path d="M1133 4070 c-46 -19 -57 -83 -20 -118 48 -45 117 -14 117 51 0 51
-50 86 -97 67z"/>
<path d="M3153 4072 c-54 -8 -71 -87 -27 -121 53 -41 114 -13 114 52 0 48 -38
77 -87 69z"/>
<path d="M5057 4053 c-9 -2 -24 -18 -33 -35 -19 -37 -5 -80 32 -97 37 -16 52
-14 79 14 58 57 3 139 -78 118z"/>
<path d="M6274 4048 c-69 -33 -37 -138 42 -138 24 0 64 47 64 75 0 30 -41 75
-67 74 -10 0 -28 -5 -39 -11z"/>
<path d="M525 4000 c-42 -47 -8 -120 55 -120 33 0 70 40 70 74 0 57 -86 89
-125 46z"/>
<path d="M8947 3990 c-35 -28 -37 -80 -5 -110 29 -27 64 -25 93 5 63 63 -18
160 -88 105z"/>
<path d="M1922 3970 c-48 -45 -16 -123 50 -123 64 0 92 83 42 122 -34 27 -64
27 -92 1z"/>
<path d="M3725 3965 c-41 -40 -30 -92 25 -115 25 -10 34 -10 55 4 50 33 55 91
12 121 -31 22 -65 18 -92 -10z"/>
<path d="M7632 3947 c-45 -48 -14 -117 51 -117 43 0 67 26 67 73 0 63 -74 91
-118 44z"/>
<path d="M7130 3930 c-27 -27 -25 -66 5 -95 63 -63 160 18 105 88 -27 34 -80
37 -110 7z"/>
<path d="M9417 3932 c-23 -25 -21 -78 3 -102 61 -61 154 27 104 98 -20 28 -83
31 -107 4z"/>
<path d="M8521 3874 c-12 -15 -21 -34 -21 -44 0 -34 39 -70 75 -70 36 0 75 36
75 70 0 34 -39 70 -75 70 -24 0 -39 -7 -54 -26z"/>
<path d="M2456 3849 c-46 -36 -26 -110 34 -124 64 -15 108 78 58 125 -28 26
-58 26 -92 -1z"/>
<path d="M4267 3859 c-48 -28 -40 -107 12 -129 75 -31 134 58 76 115 -25 26
-58 31 -88 14z"/>
<path d="M755 3831 c-77 -36 -115 -95 -115 -180 0 -56 24 -97 83 -145 36 -29
44 -31 121 -31 73 0 87 3 124 28 52 34 84 95 84 157 0 139 -163 233 -297 171z
m162 -60 c131 -60 76 -241 -73 -241 -116 0 -185 119 -117 201 50 59 116 73
190 40z"/>
<path d="M9989 3832 c-28 -23 -30 -73 -4 -102 25 -27 78 -27 105 2 26 28 26
58 -1 92 -25 31 -66 35 -100 8z"/>
<path d="M4703 3808 c-35 -17 -48 -60 -29 -96 35 -68 136 -41 136 36 0 47 -63
82 -107 60z"/>
<path d="M8080 3780 c-26 -26 -26 -81 0 -105 27 -25 80 -22 102 6 56 68 -40
161 -102 99z"/>
<path d="M1473 3758 c-12 -6 -27 -24 -34 -40 -34 -83 86 -136 130 -57 19 33 1
81 -35 98 -29 13 -32 13 -61 -1z"/>
<path d="M10403 3760 c-48 -19 -58 -87 -17 -119 53 -41 114 -13 114 52 0 51
-50 86 -97 67z"/>
<path d="M9661 3701 c-50 -13 -113 -61 -138 -106 -27 -48 -31 -131 -7 -181 23
-48 86 -101 136 -115 134 -36 270 44 293 172 25 139 -134 267 -284 230z m140
-77 c50 -25 79 -71 79 -123 0 -137 -168 -199 -273 -102 -34 32 -40 45 -44 87
-10 120 121 197 238 138z"/>
<path d="M5936 3679 c-19 -15 -26 -30 -26 -54 0 -36 36 -75 70 -75 34 0 70 39
70 75 0 36 -36 75 -70 75 -10 0 -29 -9 -44 -21z"/>
<path d="M5350 3670 c-26 -26 -26 -81 -2 -103 25 -23 78 -21 102 3 43 43 11
120 -50 120 -17 0 -39 -9 -50 -20z"/>
<path d="M3225 3655 c-14 -13 -25 -31 -25 -39 0 -30 23 -65 50 -76 58 -24 120
44 90 99 -24 46 -78 53 -115 16z"/>
<path d="M285 3635 c-14 -13 -25 -36 -25 -50 0 -28 40 -75 64 -75 78 0 109
107 40 139 -37 16 -52 14 -79 -14z"/>
<path d="M10981 3634 c-12 -15 -21 -34 -21 -44 0 -10 9 -29 21 -44 41 -52 122
-23 122 44 0 67 -81 96 -122 44z"/>
<path d="M2055 3615 c-39 -38 -32 -86 16 -110 76 -40 146 71 76 120 -31 22
-65 18 -92 -10z"/>
<path d="M3910 3581 c-120 -37 -173 -142 -124 -246 30 -64 134 -113 212 -99
85 15 142 62 164 135 37 125 -115 251 -252 210z m132 -77 c37 -19 58 -52 58
-94 0 -67 -53 -110 -135 -110 -81 0 -135 45 -135 112 0 92 114 141 212 92z"/>
<path d="M8855 3535 c-30 -30 -31 -54 -4 -89 15 -19 30 -26 54 -26 36 0 75 36
75 70 0 10 -9 29 -21 44 -27 34 -71 35 -104 1z"/>
<path d="M7702 3470 c-26 -24 -29 -66 -6 -98 11 -16 25 -22 53 -22 46 0 71 24
71 68 0 64 -72 95 -118 52z"/>
<path d="M4395 3460 c-42 -46 -8 -120 54 -120 34 0 71 37 71 71 0 60 -85 93
-125 49z"/>
<path d="M7290 3458 c-26 -28 -26 -58 1 -92 39 -50 122 -22 122 42 0 66 -78
98 -123 50z"/>
<path d="M8220 3444 c-71 -31 -110 -86 -110 -156 0 -60 28 -108 85 -143 42
-26 58 -30 119 -30 59 0 79 5 118 27 60 36 88 81 88 142 0 75 -38 130 -112
161 -47 19 -142 19 -188 -1z m170 -59 c87 -45 94 -147 12 -189 -100 -51 -232
-1 -232 88 0 88 129 148 220 101z"/>
<path d="M1740 3430 c-42 -42 -8 -120 53 -120 58 0 91 85 49 123 -25 23 -78
21 -102 -3z"/>
<path d="M6232 3443 c-7 -3 -19 -18 -27 -33 -40 -77 71 -147 120 -77 42 60
-24 138 -93 110z"/>
<path d="M2836 3419 c-52 -41 -23 -122 44 -122 67 0 96 81 44 122 -15 12 -34
21 -44 21 -10 0 -29 -9 -44 -21z"/>
<path d="M4972 3404 c-28 -20 -31 -83 -4 -107 25 -23 78 -21 102 3 61 61 -27
154 -98 104z"/>
<path d="M5600 3380 c-27 -27 -25 -66 5 -95 63 -63 160 18 105 88 -27 34 -80
37 -110 7z"/>
<path d="M6705 3345 c-48 -47 -19 -115 49 -115 68 0 96 79 44 123 -28 24 -65
21 -93 -8z"/>
<path d="M10175 3345 c-30 -30 -31 -54 -4 -89 20 -26 69 -36 95 -18 15 10 34
47 34 67 0 25 -46 65 -75 65 -14 0 -37 -11 -50 -25z"/>
<path d="M10710 3350 c-26 -26 -26 -81 -2 -103 28 -25 87 -22 106 5 50 71 -43
159 -104 98z"/>
<path d="M1212 3313 c-7 -3 -19 -18 -27 -33 -40 -77 71 -147 120 -77 42 60
-24 138 -93 110z"/>
<path d="M590 3283 c-55 -20 -68 -87 -24 -122 15 -12 34 -21 44 -21 33 0 70
39 70 74 0 46 -49 84 -90 69z"/>
<path d="M2276 3258 c-36 -51 -5 -118 54 -118 59 0 90 67 54 118 -11 16 -25
22 -54 22 -29 0 -43 -6 -54 -22z"/>
<path d="M3379 3266 c-37 -18 -56 -59 -41 -90 25 -56 101 -59 131 -5 31 56
-33 124 -90 95z"/>
<path d="M9346 3258 c-50 -71 43 -159 104 -98 26 26 26 81 2 103 -28 25 -87
22 -106 -5z"/>
<path d="M7572 3057 c-43 -46 -16 -117 46 -119 43 -1 72 26 72 69 0 66 -74 97
-118 50z"/>
<path d="M1692 3030 c-48 -45 -16 -123 50 -123 64 0 92 83 42 122 -34 27 -64
27 -92 1z"/>
<path d="M230 3000 c-43 -43 -11 -120 50 -120 38 0 70 32 70 70 0 38 -32 70
-70 70 -17 0 -39 -9 -50 -20z"/>
<path d="M4577 2999 c-48 -28 -40 -107 12 -129 75 -31 134 58 76 115 -25 26
-58 31 -88 14z"/>
<path d="M5070 2999 c-81 -33 -124 -96 -118 -174 6 -68 37 -111 102 -141 142
-66 308 15 308 151 0 71 -42 129 -114 160 -41 17 -140 19 -178 4z m154 -63
c45 -19 76 -61 76 -104 0 -49 -53 -98 -115 -108 -88 -13 -175 42 -175 111 0
86 118 141 214 101z"/>
<path d="M6142 2993 c-52 -44 -24 -123 44 -123 68 0 97 68 49 115 -28 29 -65
32 -93 8z"/>
<path d="M8802 2983 c-7 -3 -19 -18 -28 -35 -13 -24 -13 -35 -4 -58 31 -74
140 -51 140 30 0 45 -63 81 -108 63z"/>
<path d="M2922 2957 c-43 -46 -16 -117 46 -119 43 -1 72 26 72 69 0 66 -74 97
-118 50z"/>
<path d="M9900 2967 c-52 -26 -49 -104 4 -128 81 -37 138 73 64 125 -27 19
-35 20 -68 3z"/>
<path d="M1065 2911 c-46 -20 -92 -70 -101 -107 -11 -41 2 -109 25 -141 39
-53 96 -78 176 -78 58 0 78 5 117 27 131 78 118 243 -24 303 -51 21 -143 19
-193 -4z m175 -56 c72 -37 92 -115 42 -165 -88 -88 -262 -40 -262 72 0 81 134
137 220 93z"/>
<path d="M6640 2847 c-70 -35 -48 -137 30 -137 28 0 70 44 70 73 0 51 -55 86
-100 64z"/>
<path d="M7103 2850 c-48 -19 -58 -87 -17 -119 53 -41 114 -13 114 52 0 51
-50 86 -97 67z"/>
<path d="M2242 2843 c-23 -9 -43 -60 -33 -85 29 -78 141 -63 141 19 0 47 -61
85 -108 66z"/>
<path d="M10736 2829 c-50 -39 -22 -122 42 -122 66 0 98 78 50 123 -28 26 -58
26 -92 -1z"/>
<path d="M3630 2780 c-26 -26 -26 -81 -2 -103 45 -40 122 -6 122 53 0 17 -9
39 -20 50 -11 11 -33 20 -50 20 -17 0 -39 -9 -50 -20z"/>
<path d="M9381 2774 c-12 -15 -21 -35 -21 -46 0 -27 45 -68 75 -68 30 0 75 41
75 68 0 35 -38 72 -75 72 -24 0 -39 -7 -54 -26z"/>
<path d="M4139 2762 c-15 -13 -22 -30 -22 -51 0 -66 76 -98 123 -51 27 27 25
66 -5 95 -29 30 -64 32 -96 7z"/>
<path d="M800 2743 c-51 -19 -68 -85 -30 -123 61 -61 159 33 103 98 -20 23
-50 33 -73 25z"/>
<path d="M5642 2684 c-28 -20 -31 -83 -4 -107 25 -23 78 -21 102 3 61 61 -27
154 -98 104z"/>
<path d="M7890 2680 c-26 -26 -26 -81 -2 -103 28 -25 87 -22 106 5 51 73 -42
160 -104 98z"/>
<path d="M2533 2674 c-48 -24 -100 -87 -113 -135 -23 -84 6 -161 83 -223 32
-26 48 -31 105 -34 56 -3 74 0 112 20 66 36 101 91 107 169 4 54 1 71 -19 109
-14 25 -44 58 -67 75 -34 24 -54 30 -109 33 -48 2 -76 -2 -99 -14z m168 -67
c64 -43 86 -121 50 -187 -72 -136 -273 -88 -273 65 0 116 128 186 223 122z"/>
<path d="M10240 2671 c-192 -63 -215 -266 -40 -357 56 -28 164 -26 219 6 148
84 147 256 -2 332 -44 22 -137 32 -177 19z m150 -76 c49 -25 75 -63 75 -110 0
-74 -68 -128 -161 -128 -62 0 -109 24 -142 74 -76 111 93 232 228 164z"/>
<path d="M8490 2657 c-52 -26 -49 -104 5 -129 58 -26 119 33 95 91 -6 16 -23
33 -36 40 -31 14 -33 14 -64 -2z"/>
<path d="M7478 2645 c-61 -20 -112 -69 -128 -123 -46 -151 151 -272 311 -191
131 66 130 232 -1 299 -52 27 -125 33 -182 15z m152 -70 c124 -64 69 -205 -82
-205 -66 0 -114 27 -134 75 -31 75 34 145 134 145 29 0 66 -7 82 -15z"/>
<path d="M267 2592 c-23 -25 -21 -78 3 -102 61 -61 154 27 104 98 -20 28 -83
31 -107 4z"/>
<path d="M8951 2534 c-12 -15 -21 -34 -21 -44 0 -34 39 -70 75 -70 36 0 75 36
75 70 0 34 -39 70 -75 70 -24 0 -39 -7 -54 -26z"/>
<path d="M3250 2530 c-42 -42 -8 -120 53 -120 58 0 91 85 49 123 -25 23 -78
21 -102 -3z"/>
<path d="M2055 2505 c-40 -39 -29 -97 22 -116 62 -23 119 40 89 99 -25 49 -72
56 -111 17z"/>
<path d="M5055 2505 c-43 -42 -23 -106 37 -121 22 -5 34 0 59 25 25 25 30 37
25 59 -15 60 -79 80 -121 37z"/>
<path d="M6259 2492 c-28 -23 -30 -73 -4 -102 25 -28 76 -26 103 3 28 29 28
57 1 91 -25 31 -66 35 -100 8z"/>
<path d="M4580 2430 c-26 -26 -26 -81 -2 -103 28 -25 87 -22 106 5 50 71 -43
159 -104 98z"/>
<path d="M10808 2414 c-51 -27 -46 -101 7 -126 58 -26 119 33 95 91 -6 16 -23
33 -36 40 -31 14 -33 14 -66 -5z"/>
<path d="M3956 2405 c-59 -60 10 -155 83 -114 63 36 42 121 -31 127 -23 2 -41
-3 -52 -13z"/>
<path d="M970 2350 c-26 -26 -25 -60 1 -94 25 -31 66 -35 100 -8 28 23 30 73
4 102 -24 26 -79 26 -105 0z"/>
<path d="M6823 2348 c-35 -17 -48 -60 -29 -96 35 -68 136 -41 136 36 0 47 -63
82 -107 60z"/>
<path d="M1590 2300 c-62 -62 25 -155 98 -104 28 20 31 83 4 107 -25 23 -78
21 -102 -3z"/>
<path d="M8210 2223 c-15 -19 -19 -35 -15 -53 14 -62 90 -79 128 -28 54 73
-56 153 -113 81z"/>
<path d="M9330 2230 c-26 -26 -25 -60 1 -94 25 -31 66 -35 100 -8 28 23 30 73
4 102 -24 26 -79 26 -105 0z"/>
<path d="M99 2202 c-63 -52 8 -155 80 -117 48 24 55 72 16 110 -29 30 -64 32
-96 7z"/>
<path d="M5519 2182 c-48 -40 -17 -122 47 -122 66 0 98 74 51 118 -28 27 -67
28 -98 4z"/>
<path d="M10509 2178 c-16 -5 -32 -22 -39 -39 -35 -84 84 -137 129 -58 31 55
-28 118 -90 97z"/>
<path d="M8781 2124 c-41 -53 -13 -114 52 -114 42 0 70 29 70 72 0 64 -83 92
-122 42z"/>
<path d="M3670 2121 c-65 -21 -122 -66 -149 -118 -18 -36 -13 -111 11 -154 44
-79 153 -122 251 -100 195 43 236 261 66 349 -49 25 -138 37 -179 23z m152
-77 c94 -48 91 -171 -5 -221 -72 -37 -191 -10 -228 51 -74 121 91 241 233 170z"/>
<path d="M6065 2101 c-81 -38 -125 -111 -125 -208 0 -67 24 -125 66 -165 137
-129 344 -28 344 167 0 163 -148 270 -285 206z m155 -69 c96 -71 95 -204 -3
-276 -19 -14 -43 -21 -72 -21 -124 0 -191 167 -108 266 51 60 126 73 183 31z"/>
<path d="M7270 2107 c-52 -26 -49 -104 4 -128 36 -17 73 -3 92 32 19 38 6 80
-32 98 -31 14 -33 14 -64 -2z"/>
<path d="M9976 2099 c-19 -15 -26 -30 -26 -54 0 -36 36 -75 70 -75 10 0 29 9
44 21 34 27 35 71 1 104 -30 30 -54 31 -89 4z"/>
<path d="M7793 2085 c-43 -30 -38 -88 12 -121 21 -14 30 -14 55 -4 55 23 66
75 25 115 -27 28 -61 32 -92 10z"/>
<path d="M4326 1989 c-36 -28 -36 -80 0 -108 15 -12 34 -21 44 -21 34 0 70 39
70 75 0 36 -36 75 -70 75 -10 0 -29 -9 -44 -21z"/>
<path d="M4956 1989 c-36 -28 -36 -80 0 -108 15 -12 34 -21 44 -21 34 0 70 39
70 75 0 36 -36 75 -70 75 -10 0 -29 -9 -44 -21z"/>
<path d="M9032 1996 c-163 -53 -205 -243 -78 -354 126 -111 343 -35 371 129
25 145 -143 273 -293 225z m158 -78 c49 -34 73 -71 73 -115 0 -75 -53 -134
-130 -149 -54 -10 -102 5 -145 45 -35 32 -41 45 -45 87 -5 58 18 103 69 134
47 29 134 27 178 -2z"/>
<path d="M680 1987 c-52 -26 -49 -104 5 -129 58 -26 119 33 95 91 -6 16 -23
33 -36 40 -31 14 -33 14 -64 -2z"/>
<path d="M2105 1955 c-30 -30 -31 -54 -4 -89 15 -19 30 -26 54 -26 36 0 75 36
75 70 0 10 -9 29 -21 44 -27 34 -71 35 -104 1z"/>
<path d="M2617 1969 c-48 -28 -40 -107 13 -129 23 -9 34 -9 58 4 49 25 56 72
17 111 -25 26 -58 31 -88 14z"/>
<path d="M10981 1934 c-27 -34 -27 -64 -1 -92 45 -48 123 -16 123 50 0 64 -83
92 -122 42z"/>
<path d="M6673 1870 c-48 -19 -58 -87 -17 -119 53 -41 114 -13 114 52 0 51
-50 86 -97 67z"/>
<path d="M8423 1868 c-12 -6 -27 -24 -34 -40 -34 -83 86 -136 130 -57 19 33 1
81 -35 98 -29 13 -32 13 -61 -1z"/>
<path d="M3122 1830 c-47 -44 -14 -120 51 -120 42 0 67 26 67 68 0 64 -72 95
-118 52z"/>
<path d="M10471 1822 c-28 -22 -31 -75 -6 -102 24 -26 79 -26 105 0 62 62 -31
158 -99 102z"/>
<path d="M1462 1794 c-66 -33 -94 -72 -100 -138 -4 -59 20 -105 77 -143 155
-105 393 -1 366 159 -9 52 -73 118 -131 136 -70 21 -153 15 -212 -14z m189
-44 c47 -13 90 -59 91 -98 3 -117 -193 -163 -289 -67 -95 95 42 208 198 165z"/>
<path d="M9596 1789 c-19 -15 -26 -30 -26 -54 0 -36 36 -75 70 -75 34 0 70 39
70 75 0 36 -36 75 -70 75 -10 0 -29 -9 -44 -21z"/>
<path d="M5365 1715 c-28 -27 -32 -61 -10 -92 49 -70 160 0 120 76 -24 48 -72
55 -110 16z"/>
<path d="M7611 1624 c-12 -15 -21 -34 -21 -44 0 -34 39 -70 75 -70 36 0 75 36
75 70 0 34 -39 70 -75 70 -24 0 -39 -7 -54 -26z"/>
<path d="M4655 1620 c-42 -46 -8 -120 54 -120 34 0 71 37 71 71 0 60 -85 93
-125 49z"/>
<path d="M7085 1595 c-14 -13 -25 -36 -25 -50 0 -30 41 -75 68 -75 35 0 72 38
72 75 0 24 -7 39 -26 54 -35 27 -59 26 -89 -4z"/>
<path d="M8047 1613 c-9 -2 -24 -18 -33 -35 -30 -59 27 -122 89 -99 51 19 62
77 22 116 -23 24 -40 28 -78 18z"/>
<path d="M4116 1519 c-31 -24 -36 -77 -8 -102 50 -45 122 -17 122 48 0 36 -36
75 -70 75 -10 0 -29 -9 -44 -21z"/>
<path d="M800 1510 c-42 -42 -12 -120 48 -120 46 0 72 25 72 70 0 29 -6 43
-22 54 -31 22 -74 20 -98 -4z"/>
<path d="M8823 1510 c-46 -19 -57 -83 -20 -118 47 -44 117 -13 117 52 0 50
-50 84 -97 66z"/>
<path d="M9959 1508 c-16 -5 -32 -22 -39 -39 -35 -84 84 -137 129 -58 31 55
-28 118 -90 97z"/>
<path d="M2766 1479 c-36 -28 -36 -80 0 -108 15 -12 34 -21 44 -21 34 0 70 39
70 75 0 36 -36 75 -70 75 -10 0 -29 -9 -44 -21z"/>
<path d="M11035 1475 c-48 -47 -19 -119 49 -119 47 0 70 23 70 70 0 68 -72 97
-119 49z"/>
<path d="M3466 1469 c-36 -28 -36 -80 0 -108 15 -12 34 -21 44 -21 34 0 70 39
70 75 0 36 -36 75 -70 75 -10 0 -29 -9 -44 -21z"/>
<path d="M6342 1457 c-45 -48 -14 -117 51 -117 43 0 70 29 69 72 -2 63 -77 91
-120 45z"/>
<path d="M10500 1440 c-61 -61 27 -154 98 -104 28 20 31 83 4 107 -25 23 -78
21 -102 -3z"/>
<path d="M1713 1438 c-52 -25 -52 -105 1 -129 83 -38 147 84 66 126 -33 17
-37 17 -67 3z"/>
<path d="M5807 1372 c-23 -25 -21 -78 3 -102 61 -61 154 27 104 98 -20 28 -83
31 -107 4z"/>
<path d="M9386 1375 c-59 -60 10 -155 83 -114 63 36 42 121 -31 127 -23 2 -41
-3 -52 -13z"/>
<path d="M7389 1317 c-145 -77 -145 -293 0 -366 86 -44 168 -33 238 32 112
103 80 283 -59 342 -55 22 -127 19 -179 -8z m161 -55 c103 -52 107 -203 7
-257 -50 -27 -128 -17 -168 21 -75 72 -59 192 33 237 43 21 85 21 128 -1z"/>
<path d="M8401 1314 c-12 -15 -21 -34 -21 -44 0 -34 39 -70 75 -70 36 0 75 36
75 70 0 34 -39 70 -75 70 -24 0 -39 -7 -54 -26z"/>
<path d="M2310 1323 c-53 -19 -67 -83 -27 -121 29 -28 57 -28 91 -1 46 37 30
106 -29 122 -11 3 -27 3 -35 0z"/>
<path d="M4616 1276 c-86 -32 -140 -115 -140 -216 0 -129 84 -220 204 -220
176 0 271 207 165 360 -49 71 -151 105 -229 76z m140 -75 c34 -21 74 -92 74
-132 0 -87 -60 -159 -137 -166 -144 -12 -212 171 -103 279 33 34 43 38 86 38
30 0 61 -7 80 -19z"/>
<path d="M10140 1274 c-77 -33 -120 -96 -120 -175 0 -64 29 -119 83 -156 56
-39 156 -45 223 -13 65 32 104 95 104 167 0 60 -15 95 -57 135 -59 56 -159 74
-233 42z m155 -64 c130 -63 79 -240 -70 -240 -117 0 -187 119 -118 201 50 59
117 73 188 39z"/>
<path d="M3756 1197 c-49 -49 -21 -121 48 -121 46 0 70 23 70 69 0 42 -18 62
-61 71 -26 5 -37 1 -57 -19z"/>
<path d="M6821 1194 c-12 -15 -21 -34 -21 -44 0 -10 9 -29 21 -44 41 -52 122
-23 122 44 0 67 -81 96 -122 44z"/>
<path d="M2888 1186 c-131 -35 -196 -144 -150 -249 61 -138 285 -170 405 -58
41 38 57 73 57 128 0 86 -60 150 -165 178 -70 18 -84 18 -147 1z m171 -76
c102 -51 109 -154 14 -207 -54 -30 -104 -37 -163 -23 -62 15 -105 49 -120 96
-36 108 144 198 269 134z"/>
<path d="M1162 1147 c-45 -48 -14 -117 51 -117 43 0 70 29 69 72 -2 63 -77 91
-120 45z"/>
<path d="M5362 1147 c-45 -48 -14 -117 51 -117 42 0 70 29 70 72 0 61 -78 91
-121 45z"/>
<path d="M7920 1128 c-58 -63 32 -156 98 -100 32 26 37 63 12 95 -28 35 -80
37 -110 5z"/>
<path d="M562 1097 c-43 -46 -15 -120 46 -120 43 0 72 28 72 69 0 66 -74 98
-118 51z"/>
<path d="M10663 1105 c-70 -49 0 -160 76 -120 48 24 55 72 16 110 -27 28 -61
32 -92 10z"/>
<path d="M8739 1078 c-38 -13 -57 -62 -38 -97 32 -57 111 -49 132 13 17 51
-40 103 -94 84z"/>
<path d="M9200 1020 c-26 -26 -25 -60 1 -94 25 -31 66 -35 100 -8 28 23 30 73
4 102 -24 26 -79 26 -105 0z"/>
<path d="M6012 990 c-48 -45 -16 -123 50 -123 64 0 92 83 42 122 -34 27 -64
27 -92 1z"/>
<path d="M1497 952 c-40 -44 -7 -122 51 -122 60 0 94 78 52 120 -26 26 -81 26
-103 2z"/>
<path d="M9690 963 c-53 -19 -68 -86 -28 -123 63 -59 157 32 101 98 -20 23
-50 33 -73 25z"/>
<path d="M2503 925 c-66 -47 -8 -150 70 -123 51 18 62 74 22 113 -27 28 -61
32 -92 10z"/>
<path d="M2002 895 c-59 -25 -51 -107 11 -130 62 -21 118 52 80 103 -26 34
-53 42 -91 27z"/>
<path d="M4159 897 c-37 -19 -53 -60 -37 -94 26 -55 104 -54 130 2 26 57 -37
119 -93 92z"/>
<path d="M825 828 c-50 -27 -59 -75 -20 -113 42 -43 106 -23 120 36 12 48 -57
101 -100 77z"/>
<path d="M6933 830 c-48 -19 -58 -87 -17 -119 53 -41 114 -13 114 52 0 51 -50
86 -97 67z"/>
<path d="M257 750 c-20 -16 -27 -30 -27 -56 0 -68 68 -97 115 -49 63 63 -18
160 -88 105z"/>
<path d="M8113 760 c-25 -10 -43 -39 -43 -70 0 -29 44 -70 75 -70 62 0 89 89
39 129 -29 23 -38 24 -71 11z"/>
<path d="M3515 735 c-14 -13 -25 -36 -25 -50 0 -30 41 -75 68 -75 11 0 31 9
46 21 36 28 36 80 0 108 -35 27 -59 26 -89 -4z"/>
<path d="M2939 696 c-13 -6 -30 -23 -38 -37 -12 -22 -12 -29 0 -54 29 -60 111
-55 133 8 20 55 -43 109 -95 83z"/>
<path d="M7623 688 c-68 -33 -40 -138 37 -138 28 0 70 44 70 73 0 51 -61 88
-107 65z"/>
<path d="M6366 669 c-19 -15 -26 -30 -26 -54 0 -36 36 -75 70 -75 34 0 70 39
70 75 0 36 -36 75 -70 75 -10 0 -29 -9 -44 -21z"/>
<path d="M5550 630 c-61 -61 27 -154 98 -104 28 20 31 83 4 107 -25 23 -78 21
-102 -3z"/>
<path d="M8489 612 c-128 -67 -154 -229 -52 -323 84 -78 198 -88 291 -25 61
41 92 95 92 164 0 66 -20 111 -70 156 -70 63 -173 74 -261 28z m161 -42 c57
-16 102 -69 107 -127 8 -89 -57 -153 -155 -153 -96 0 -162 56 -162 138 0 62
29 108 83 132 48 22 76 24 127 10z"/>
<path d="M9093 628 c-81 -39 -20 -167 62 -130 55 25 58 100 5 127 -33 17 -37
17 -67 3z"/>
<path d="M10808 624 c-51 -27 -46 -101 7 -126 58 -26 119 33 95 91 -6 16 -23
33 -36 40 -31 14 -33 14 -66 -5z"/>
<path d="M5135 595 c-39 -39 -32 -86 17 -111 59 -30 122 27 99 89 -19 51 -77
62 -116 22z"/>
<path d="M9666 599 c-52 -41 -23 -122 44 -122 67 0 96 81 44 122 -15 12 -34
21 -44 21 -10 0 -29 -9 -44 -21z"/>
<path d="M1420 580 c-43 -43 -11 -120 50 -120 38 0 70 32 70 70 0 38 -32 70
-70 70 -17 0 -39 -9 -50 -20z"/>
<path d="M2385 545 c-32 -31 -32 -69 0 -100 27 -28 42 -30 78 -14 55 25 55
103 1 128 -37 16 -52 14 -79 -14z"/>
<path d="M10229 532 c-15 -13 -22 -30 -22 -51 0 -66 76 -98 123 -51 27 27 25
66 -5 95 -29 30 -64 32 -96 7z"/>
<path d="M4619 485 c-65 -35 -34 -135 41 -135 28 0 70 44 70 73 0 55 -62 89
-111 62z"/>
<path d="M6050 460 c-45 -45 -11 -120 54 -120 25 0 39 7 50 22 36 51 5 118
-54 118 -17 0 -39 -9 -50 -20z"/>
<path d="M7200 440 c-61 -61 27 -154 98 -104 28 20 31 83 4 107 -25 23 -78 21
-102 -3z"/>
<path d="M917 408 c-41 -32 -38 -94 6 -123 46 -30 107 6 107 63 0 51 -73 90
-113 60z"/>
<path d="M3955 395 c-39 -39 -32 -86 17 -111 59 -30 122 27 99 89 -19 51 -77
62 -116 22z"/>
<path d="M110 393 c-76 -27 -58 -143 21 -143 55 0 92 87 52 122 -22 19 -53 28
-73 21z"/>
<path d="M6710 387 c-13 -7 -31 -24 -39 -38 -30 -53 36 -117 94 -91 55 25 58
100 5 127 -35 18 -29 18 -60 2z"/>
<path d="M3516 329 c-50 -39 -22 -122 42 -122 43 0 72 28 72 70 0 65 -61 93
-114 52z"/>
<path d="M1917 322 c-40 -44 -7 -122 51 -122 60 0 94 78 52 120 -26 26 -81 26
-103 2z"/>
<path d="M5640 220 c-26 -26 -26 -81 -2 -103 44 -40 122 -7 122 51 0 60 -78
94 -120 52z"/>
<path d="M9439 222 c-49 -40 -17 -122 48 -122 65 0 93 61 52 114 -25 31 -66
35 -100 8z"/>
<path d="M9881 214 c-27 -34 -27 -64 -1 -92 47 -50 140 -6 125 58 -14 60 -88
80 -124 34z"/>
<path d="M3097 190 c-35 -28 -37 -80 -5 -110 29 -27 64 -25 93 5 63 63 -18
160 -88 105z"/>
</g>
</svg>
