<?xml version="1.0" standalone="no"?>
<!DOCTYPE svg PUBLIC "-//W3C//DTD SVG 20010904//EN"
 "http://www.w3.org/TR/2001/REC-SVG-20010904/DTD/svg10.dtd">
<svg version="1.0" xmlns="http://www.w3.org/2000/svg"
 width="1125.000000pt" height="900.000000pt" viewBox="0 0 1125.000000 900.000000"
 preserveAspectRatio="xMidYMid meet">
<metadata>
Created by potrace 1.13, written by Peter Selinger 2001-2015
</metadata>
<g transform="translate(0.000000,900.000000) scale(0.100000,-0.100000)"
fill="#000000" stroke="none">
<path d="M0 4500 l0 -4500 5625 0 5625 0 0 4500 0 4500 -5625 0 -5625 0 0
-4500z m11208 4253 l2 -203 -5585 0 -5585 0 0 198 c0 109 3 202 7 205 3 4
2515 6 5582 5 l5576 -3 3 -202z m-9270 -615 l2 -348 -950 0 -950 0 0 343 c0
189 3 347 7 350 3 4 430 6 947 5 l941 -3 3 -347z m2532 2 l0 -350 -1235 0
-1235 0 0 343 c0 189 3 347 7 350 3 4 559 7 1235 7 l1228 0 0 -350z m2558 -2
l2 -348 -1250 0 -1250 0 0 343 c0 189 3 347 7 350 3 4 565 6 1247 5 l1241 -3
3 -347z m2790 0 l2 -348 -1365 0 -1365 0 0 350 0 350 1363 -2 1362 -3 3 -347z
m1390 0 l2 -348 -665 0 -665 0 0 350 0 350 663 -2 662 -3 3 -347z m-10678
-733 l0 -325 -245 0 -245 0 0 318 c0 175 3 322 7 325 3 4 114 7 245 7 l238 0
0 -325z m2358 -2 l2 -323 -1150 0 -1150 0 0 318 c0 175 3 322 7 325 3 4 520 6
1147 5 l1141 -3 3 -322z m2812 2 l0 -325 -1375 0 -1375 0 0 325 0 325 1375 0
1375 0 0 -325z m2498 -2 l2 -323 -1220 0 -1220 0 0 318 c0 175 3 322 7 325 3
4 551 6 1217 5 l1211 -3 3 -322z m2480 0 l2 -323 -1210 0 -1210 0 0 325 0 325
1208 -2 1207 -3 3 -322z m530 0 l2 -323 -235 0 -235 0 0 325 0 325 233 -2 232
-3 3 -322z m-9478 -753 l0 -360 -845 0 -845 0 0 360 0 360 845 0 845 0 0 -360z
m2430 0 l0 -360 -1185 0 -1185 0 0 360 0 360 1185 0 1185 0 0 -360z m2560 0
l0 -360 -1245 0 -1245 0 0 360 0 360 1245 0 1245 0 0 -360z m2670 0 l0 -360
-1305 0 -1305 0 0 360 0 360 1305 0 1305 0 0 -360z m1820 0 l0 -360 -880 0
-880 0 0 360 0 360 880 0 880 0 0 -360z m-5 -1065 l0 -640 -457 -3 -458 -2 0
-30 0 -30 460 0 460 0 -2 -702 -3 -703 -5580 0 -5580 0 0 300 0 300 418 3 417
2 0 30 0 30 -420 0 -420 0 0 740 0 740 380 0 380 0 0 30 0 30 -377 2 -378 3
-3 260 c-1 143 0 265 3 272 3 11 1087 13 5582 11 l5578 -3 0 -640z m-10965
-2460 l0 -285 -100 0 -100 0 0 278 c0 153 3 282 7 285 3 4 48 7 100 7 l93 0 0
-285z m2380 0 l0 -285 -1155 0 -1155 0 0 285 0 285 1155 0 1155 0 0 -285z
m2710 0 l0 -285 -1325 0 -1325 0 0 285 0 285 1325 0 1325 0 0 -285z m2550 0
l0 -285 -1245 0 -1245 0 0 285 0 285 1245 0 1245 0 0 -285z m2510 0 l0 -285
-1220 0 -1220 0 0 285 0 285 1220 0 1220 0 0 -285z m818 -2 l2 -283 -380 0
-380 0 0 285 0 285 378 -2 377 -3 3 -282z m-9408 -743 l0 -400 -880 0 -880 0
0 393 c0 217 3 397 7 400 3 4 399 7 880 7 l873 0 0 -400z m2390 0 l0 -400
-1165 0 -1165 0 0 393 c0 217 3 397 7 400 3 4 528 7 1165 7 l1158 0 0 -400z
m2530 0 l0 -400 -1230 0 -1230 0 0 400 0 400 1230 0 1230 0 0 -400z m2700 0
l0 -400 -1315 0 -1315 0 0 400 0 400 1315 0 1315 0 0 -400z m1788 -2 l2 -398
-865 0 -865 0 0 400 0 400 863 -2 862 -3 3 -397z m-10558 -818 l0 -360 -305 0
-305 0 0 353 c0 195 3 357 7 360 3 4 141 7 305 7 l298 0 0 -360z m2400 0 l0
-360 -1165 0 -1165 0 0 360 0 360 1165 0 1165 0 0 -360z m2790 0 l0 -360
-1360 0 -1360 0 0 360 0 360 1360 0 1360 0 0 -360z m2558 -2 l2 -358 -1245 0
-1245 0 0 360 0 360 1243 -2 1242 -3 3 -357z m2402 2 l0 -360 -1170 0 -1170 0
0 360 0 360 1170 0 1170 0 0 -360z m408 -2 l2 -358 -175 0 -175 0 0 353 c0
195 3 357 7 361 4 3 81 5 172 4 l166 -3 3 -357z m0 -970 l-3 -543 -5580 0
-5580 0 -3 208 -2 207 337 1 c186 0 357 0 381 -1 42 -2 42 -1 42 34 l0 36
-380 0 -380 0 0 300 0 300 5585 0 5585 0 -2 -542z"/>
<path d="M1280 5650 l0 -30 600 0 600 0 0 30 0 30 -600 0 -600 0 0 -30z"/>
<path d="M2960 5650 l0 -30 595 0 595 0 0 30 0 30 -595 0 -595 0 0 -30z"/>
<path d="M4630 5650 l0 -30 595 0 595 0 0 30 0 30 -595 0 -595 0 0 -30z"/>
<path d="M6300 5650 l0 -30 595 0 595 0 0 30 0 30 -595 0 -595 0 0 -30z"/>
<path d="M7970 5650 l0 -30 598 2 597 3 3 28 3 27 -600 0 -601 0 0 -30z"/>
<path d="M9640 5650 l0 -30 655 0 655 0 0 30 0 30 -655 0 -655 0 0 -30z"/>
<path d="M142 4913 l3 -28 655 0 655 0 3 28 3 27 -661 0 -661 0 3 -27z"/>
<path d="M1930 4910 l0 -30 600 0 600 0 0 30 0 30 -600 0 -600 0 0 -30z"/>
<path d="M3610 4910 l0 -30 595 0 595 0 0 30 0 30 -595 0 -595 0 0 -30z"/>
<path d="M5280 4910 l0 -30 595 0 595 0 0 30 0 30 -595 0 -595 0 0 -30z"/>
<path d="M6950 4910 l0 -30 595 0 595 0 0 30 0 30 -595 0 -595 0 0 -30z"/>
<path d="M8620 4910 l0 -30 595 0 595 0 0 30 0 30 -595 0 -595 0 0 -30z"/>
<path d="M1370 4110 l0 -30 595 0 595 0 0 30 0 30 -595 0 -595 0 0 -30z"/>
<path d="M3040 4110 l0 -30 595 0 595 0 0 30 0 30 -595 0 -595 0 0 -30z"/>
<path d="M4710 4110 l0 -30 595 0 595 0 0 30 0 30 -595 0 -595 0 0 -30z"/>
<path d="M6380 4110 l0 -30 601 0 600 0 -3 28 -3 27 -597 3 -598 2 0 -30z"/>
<path d="M8050 4110 l0 -30 600 0 600 0 0 30 0 30 -600 0 -600 0 0 -30z"/>
<path d="M9730 4110 l0 -30 650 0 650 0 0 30 0 30 -650 0 -650 0 0 -30z"/>
<path d="M1284 516 c-3 -8 -4 -23 -2 -33 3 -17 32 -18 598 -18 l595 0 0 30 0
30 -593 3 c-510 2 -593 0 -598 -12z"/>
<path d="M2960 495 l0 -35 595 0 595 0 0 35 0 35 -595 0 -595 0 0 -35z"/>
<path d="M4630 495 l0 -35 595 0 595 0 0 35 0 35 -595 0 -595 0 0 -35z"/>
<path d="M6300 495 l0 -35 595 0 595 0 0 35 0 35 -595 0 -595 0 0 -35z"/>
<path d="M7970 495 l0 -35 598 2 597 3 0 30 0 30 -597 3 -598 2 0 -35z"/>
<path d="M9644 516 c-3 -8 -4 -23 -2 -33 3 -17 34 -18 653 -18 l650 0 3 32 3
32 -651 1 c-560 0 -651 -2 -656 -14z"/>
</g>
</svg>
