<?xml version="1.0" standalone="no"?>
<!DOCTYPE svg PUBLIC "-//W3C//DTD SVG 20010904//EN"
 "http://www.w3.org/TR/2001/REC-SVG-20010904/DTD/svg10.dtd">
<svg version="1.0" xmlns="http://www.w3.org/2000/svg"
 width="1125.000000pt" height="900.000000pt" viewBox="0 0 1125.000000 900.000000"
 preserveAspectRatio="xMidYMid meet">
<metadata>
Created by potrace 1.13, written by Peter Selinger 2001-2015
</metadata>
<g transform="translate(0.000000,900.000000) scale(0.100000,-0.100000)"
fill="#000000" stroke="none">
<path d="M0 4500 l0 -4500 5625 0 5625 0 0 4500 0 4500 -5625 0 -5625 0 0
-4500z m1300 4436 c0 -39 36 -76 75 -76 39 0 75 37 75 76 l0 24 175 0 175 0 0
-24 c0 -38 36 -76 74 -76 39 0 66 26 70 66 l3 29 164 0 164 0 3 -32 c9 -88
142 -81 142 7 l0 30 218 -2 c217 -3 217 -3 220 -25 l3 -23 944 0 944 0 3 23
c3 22 4 22 178 22 l175 0 3 -32 c9 -88 142 -81 142 7 l0 30 175 0 175 0 0 -24
c0 -39 36 -76 75 -76 39 0 75 37 75 76 l0 24 165 0 165 0 0 -30 c0 -38 31 -70
68 -70 39 0 62 20 71 60 l7 35 162 3 162 2 0 -25 0 -25 950 0 950 0 0 25 0 25
180 0 180 0 0 -24 c0 -39 36 -76 75 -76 39 0 75 37 75 76 l0 24 195 0 195 0 0
-24 c0 -39 36 -76 75 -76 39 0 75 37 75 76 l0 24 165 0 165 0 0 -30 c0 -38 32
-70 70 -70 39 0 70 32 70 70 l0 30 192 -2 c191 -3 193 -3 196 -25 l3 -23 422
-2 422 -3 3 -304 2 -304 -24 26 c-47 51 -126 24 -126 -43 0 -61 77 -93 120
-50 11 11 22 20 25 20 3 0 4 -114 3 -252 l-3 -253 -437 -3 -438 -2 0 -30 0
-30 438 -2 437 -3 3 -602 2 -603 -205 0 -205 0 0 -30 0 -30 203 -2 202 -3 3
-577 2 -578 -320 0 -320 0 0 130 0 130 -30 0 -30 0 0 -130 0 -129 -102 -3
-103 -3 0 -30 0 -30 453 -3 452 -2 0 -289 0 -289 -31 15 c-88 44 -152 -79 -67
-126 24 -14 30 -14 62 2 l36 17 0 -255 0 -255 -280 0 -280 0 0 130 0 130 -30
0 -30 0 0 -130 0 -129 -102 -3 -103 -3 -3 -32 -3 -33 415 0 416 0 -2 -602 -3
-603 -657 -3 -658 -2 0 -30 0 -30 658 -2 657 -3 3 -273 2 -273 -22 1 c-43 4
-58 0 -78 -20 -27 -27 -25 -66 6 -97 21 -21 32 -24 60 -20 l34 6 -2 -252 -3
-252 -842 -3 -843 -2 0 -30 0 -30 843 -2 842 -3 0 -605 0 -605 -632 -3 -633
-2 0 -30 0 -30 633 -2 632 -3 0 -40 0 -40 -5580 0 -5580 0 0 40 0 40 258 3
257 2 0 30 0 30 -257 2 -258 3 0 605 0 605 47 3 c46 3 48 5 48 32 0 27 -2 29
-47 32 l-48 3 0 590 0 590 228 3 227 2 0 30 0 30 -227 2 -228 3 -3 603 -2 602
481 0 480 0 -3 33 -3 32 -477 3 -478 2 0 590 0 590 441 0 440 0 -3 33 -3 32
-438 3 -437 2 2 578 3 577 688 3 687 2 0 30 0 30 -690 0 -690 0 2 603 3 602
453 3 452 2 0 30 0 30 -452 2 -453 3 0 580 0 580 463 3 c439 2 462 3 462 20 0
10 3 22 7 25 3 4 78 7 165 7 l158 0 0 -24z"/>
<path d="M957 8573 c-4 -3 -7 -60 -7 -125 l0 -118 35 0 35 0 0 125 0 125 -28
0 c-16 0 -32 -3 -35 -7z"/>
<path d="M280 8330 c-43 -43 -11 -120 50 -120 38 0 70 32 70 70 0 38 -32 70
-70 70 -17 0 -39 -9 -50 -20z"/>
<path d="M3032 8327 c-45 -48 -14 -117 51 -117 43 0 67 26 67 73 0 63 -74 91
-118 44z"/>
<path d="M3530 8330 c-26 -26 -26 -81 -2 -103 25 -23 78 -21 102 3 43 43 11
120 -50 120 -17 0 -39 -9 -50 -20z"/>
<path d="M4001 8324 c-12 -15 -21 -34 -21 -44 0 -34 39 -70 75 -70 36 0 75 36
75 70 0 34 -39 70 -75 70 -24 0 -39 -7 -54 -26z"/>
<path d="M6831 8324 c-12 -15 -21 -34 -21 -44 0 -34 39 -70 75 -70 43 0 79 41
70 80 -14 60 -88 80 -124 34z"/>
<path d="M7330 8330 c-45 -45 -11 -120 53 -120 42 0 67 26 67 68 0 41 -31 72
-70 72 -17 0 -39 -9 -50 -20z"/>
<path d="M7812 8333 c-52 -44 -24 -123 43 -123 36 0 75 36 75 70 0 10 -9 29
-21 44 -24 31 -67 35 -97 9z"/>
<path d="M10581 8324 c-27 -35 -27 -65 2 -92 48 -46 120 -16 120 50 0 64 -83
92 -122 42z"/>
<path d="M750 8290 l0 -30 945 0 945 0 0 30 0 30 -945 0 -945 0 0 -30z"/>
<path d="M4470 8290 l0 -30 945 0 945 0 0 30 0 30 -945 0 -945 0 0 -30z"/>
<path d="M8337 8313 c-4 -3 -7 -17 -7 -30 l0 -23 945 0 945 0 0 30 0 30 -938
0 c-516 0 -942 -3 -945 -7z"/>
<path d="M6810 7875 l0 -125 35 0 35 0 0 125 0 125 -35 0 -35 0 0 -125z"/>
<path d="M1330 7757 c-52 -26 -49 -104 4 -128 81 -37 138 73 64 125 -27 19
-35 20 -68 3z"/>
<path d="M1840 7763 c-55 -20 -68 -87 -24 -122 15 -12 34 -21 44 -21 33 0 70
39 70 74 0 46 -49 84 -90 69z"/>
<path d="M2303 7758 c-52 -25 -52 -105 1 -129 83 -38 147 84 66 126 -33 17
-37 17 -67 3z"/>
<path d="M5133 7758 c-12 -6 -27 -24 -34 -40 -34 -83 86 -136 130 -57 19 33 1
81 -35 98 -29 13 -32 13 -61 -1z"/>
<path d="M5630 7757 c-13 -7 -29 -25 -34 -39 -29 -83 94 -137 128 -56 17 39
11 63 -22 88 -29 23 -38 24 -72 7z"/>
<path d="M6097 7748 c-37 -33 -40 -75 -7 -108 27 -27 66 -25 95 5 29 28 32 65
8 93 -28 33 -66 37 -96 10z"/>
<path d="M8843 7760 c-48 -20 -58 -87 -17 -119 34 -27 64 -27 92 -1 32 30 30
82 -4 109 -29 23 -38 24 -71 11z"/>
<path d="M9383 7760 c-25 -10 -43 -39 -43 -70 0 -28 43 -70 73 -70 63 0 91 89
41 129 -29 23 -38 24 -71 11z"/>
<path d="M9852 7754 c-63 -44 -37 -134 39 -134 28 0 69 44 69 73 0 55 -65 92
-108 61z"/>
<path d="M2830 7710 l0 -30 945 0 945 0 0 30 0 30 -945 0 -945 0 0 -30z"/>
<path d="M6610 7710 l0 -30 945 0 945 0 0 30 0 30 -945 0 -945 0 0 -30z"/>
<path d="M1350 7230 l0 -130 30 0 30 0 0 130 0 130 -30 0 -30 0 0 -130z"/>
<path d="M5120 7230 l0 -130 30 0 30 0 0 130 0 130 -30 0 -30 0 0 -130z"/>
<path d="M8910 7230 l0 -130 30 0 30 0 0 130 0 130 -30 0 -30 0 0 -130z"/>
<path d="M181 7112 c-28 -22 -31 -75 -6 -102 24 -26 79 -26 105 0 62 62 -31
158 -99 102z"/>
<path d="M652 7107 c-44 -47 -13 -117 52 -117 41 0 69 29 69 72 0 61 -78 91
-121 45z"/>
<path d="M3430 7110 c-42 -42 -12 -120 48 -120 44 0 72 26 72 66 0 43 -29 74
-70 74 -17 0 -39 -9 -50 -20z"/>
<path d="M3932 7114 c-16 -11 -22 -25 -22 -54 0 -29 6 -43 22 -54 51 -36 118
-5 118 54 0 59 -67 90 -118 54z"/>
<path d="M4401 7104 c-27 -35 -27 -65 2 -92 48 -45 120 -16 120 48 0 67 -81
96 -122 44z"/>
<path d="M7202 7114 c-16 -11 -22 -25 -22 -54 0 -29 6 -43 22 -54 51 -36 118
-5 118 54 0 59 -67 90 -118 54z"/>
<path d="M7691 7104 c-12 -15 -21 -34 -21 -44 0 -34 39 -70 75 -70 36 0 75 36
75 70 0 34 -39 70 -75 70 -24 0 -39 -7 -54 -26z"/>
<path d="M8170 7110 c-11 -11 -20 -33 -20 -50 0 -17 9 -39 20 -50 11 -11 33
-20 50 -20 17 0 39 9 50 20 11 11 20 33 20 50 0 17 -9 39 -20 50 -11 11 -33
20 -50 20 -17 0 -39 -9 -50 -20z"/>
<path d="M10955 7110 c-42 -46 -10 -120 51 -120 35 0 74 37 74 70 0 10 -9 29
-21 44 -26 33 -77 36 -104 6z"/>
<path d="M1140 7060 l0 -30 945 0 945 0 0 30 0 30 -945 0 -945 0 0 -30z"/>
<path d="M4910 7060 l0 -30 948 2 947 3 3 28 3 27 -950 0 -951 0 0 -30z"/>
<path d="M8700 7060 l0 -30 940 0 940 0 0 30 0 30 -940 0 -940 0 0 -30z"/>
<path d="M7200 6605 l0 -125 35 0 35 0 0 125 0 125 -35 0 -35 0 0 -125z"/>
<path d="M1806 6489 c-19 -15 -26 -30 -26 -54 0 -36 36 -75 70 -75 34 0 70 39
70 75 0 36 -36 75 -70 75 -10 0 -29 -9 -44 -21z"/>
<path d="M2313 6498 c-35 -17 -48 -60 -29 -96 35 -68 136 -41 136 36 0 47 -63
82 -107 60z"/>
<path d="M2775 6485 c-34 -33 -33 -77 1 -104 15 -12 34 -21 44 -21 10 0 29 9
44 21 36 28 36 80 0 108 -35 27 -59 26 -89 -4z"/>
<path d="M5556 6489 c-19 -15 -26 -30 -26 -54 0 -36 36 -75 70 -75 34 0 70 39
70 75 0 36 -36 75 -70 75 -10 0 -29 -9 -44 -21z"/>
<path d="M6063 6498 c-35 -17 -48 -60 -29 -96 35 -68 136 -41 136 36 0 47 -63
82 -107 60z"/>
<path d="M6525 6485 c-34 -33 -33 -77 1 -104 15 -12 34 -21 44 -21 34 0 70 39
70 75 0 24 -7 39 -26 54 -35 27 -59 26 -89 -4z"/>
<path d="M9335 6485 c-37 -37 -30 -91 16 -115 55 -30 123 32 99 90 -11 27 -46
50 -76 50 -8 0 -26 -11 -39 -25z"/>
<path d="M9836 6489 c-19 -15 -26 -30 -26 -54 0 -36 36 -75 70 -75 34 0 70 39
70 75 0 36 -36 75 -70 75 -10 0 -29 -9 -44 -21z"/>
<path d="M10323 6498 c-68 -33 -40 -138 37 -138 28 0 70 44 70 73 0 51 -61 88
-107 65z"/>
<path d="M3270 6440 l0 -30 951 0 950 0 -3 28 -3 27 -947 3 -948 2 0 -30z"/>
<path d="M7000 6440 l0 -30 945 0 945 0 0 30 0 30 -945 0 -945 0 0 -30z"/>
<path d="M171 5874 c-12 -15 -21 -34 -21 -44 0 -34 39 -70 75 -70 36 0 75 36
75 70 0 34 -39 70 -75 70 -24 0 -39 -7 -54 -26z"/>
<path d="M650 5880 c-43 -43 -11 -120 50 -120 38 0 70 32 70 70 0 38 -32 70
-70 70 -17 0 -39 -9 -50 -20z"/>
<path d="M3400 5880 c-61 -61 27 -154 98 -104 28 20 31 83 4 107 -25 23 -78
21 -102 -3z"/>
<path d="M3900 5880 c-43 -43 -11 -120 50 -120 38 0 70 32 70 70 0 38 -32 70
-70 70 -17 0 -39 -9 -50 -20z"/>
<path d="M4371 5874 c-12 -15 -21 -34 -21 -44 0 -34 39 -70 75 -70 36 0 75 36
75 70 0 34 -39 70 -75 70 -24 0 -39 -7 -54 -26z"/>
<path d="M7201 5874 c-12 -15 -21 -34 -21 -44 0 -33 39 -70 74 -70 60 0 93 66
56 113 -29 37 -80 37 -109 1z"/>
<path d="M7700 5880 c-11 -11 -20 -33 -20 -50 0 -17 9 -39 20 -50 45 -45 120
-11 120 54 0 60 -77 89 -120 46z"/>
<path d="M8170 5873 c-37 -47 -4 -113 56 -113 35 0 74 37 74 70 0 10 -9 29
-21 44 -29 36 -80 36 -109 -1z"/>
<path d="M10951 5874 c-12 -15 -21 -34 -21 -44 0 -33 39 -70 74 -70 60 0 93
66 56 113 -29 37 -80 37 -109 1z"/>
<path d="M1140 5840 l0 -30 945 0 945 0 0 30 0 30 -945 0 -945 0 0 -30z"/>
<path d="M4890 5840 l0 -30 945 0 945 0 0 30 0 30 -945 0 -945 0 0 -30z"/>
<path d="M8700 5840 l0 -30 940 0 940 0 0 30 0 30 -940 0 -940 0 0 -30z"/>
<path d="M3010 5380 l0 -129 -102 -3 -103 -3 0 -30 0 -30 945 0 945 0 0 30 0
30 -812 3 -813 2 0 130 0 130 -30 0 -30 0 0 -130z"/>
<path d="M6760 5380 l0 -129 -102 -3 -103 -3 0 -30 0 -30 945 0 945 0 0 30 0
30 -812 3 -813 2 0 130 0 130 -30 0 -30 0 0 -130z"/>
<path d="M1302 5273 c-7 -3 -19 -18 -27 -33 -40 -77 71 -147 120 -77 42 60
-24 138 -93 110z"/>
<path d="M1785 5255 c-39 -39 -32 -86 17 -111 59 -30 122 27 99 89 -19 51 -77
62 -116 22z"/>
<path d="M2266 5259 c-53 -42 -23 -122 46 -122 64 0 92 83 42 122 -15 12 -34
21 -44 21 -10 0 -29 -9 -44 -21z"/>
<path d="M5105 5268 c-28 -16 -35 -28 -35 -65 0 -41 42 -77 80 -68 60 14 80
88 34 124 -30 24 -50 26 -79 9z"/>
<path d="M5597 5269 c-48 -28 -40 -107 12 -129 75 -31 134 58 76 115 -25 26
-58 31 -88 14z"/>
<path d="M6066 5259 c-46 -36 -26 -110 34 -124 64 -15 108 78 58 125 -28 26
-58 26 -92 -1z"/>
<path d="M8807 5269 c-48 -28 -40 -107 13 -129 58 -24 120 44 90 99 -20 38
-66 51 -103 30z"/>
<path d="M9347 5269 c-48 -28 -40 -107 13 -129 23 -9 34 -9 58 4 49 25 56 72
17 111 -25 26 -58 31 -88 14z"/>
<path d="M9816 5259 c-46 -36 -26 -110 34 -124 38 -9 80 27 80 68 0 38 -7 50
-37 66 -31 16 -47 14 -77 -10z"/>
<path d="M1010 4730 l0 -130 30 0 30 0 0 130 0 130 -30 0 -30 0 0 -130z"/>
<path d="M4730 4730 l0 -130 30 0 30 0 0 130 0 130 -30 0 -30 0 0 -130z"/>
<path d="M8540 4730 l0 -130 30 0 30 0 0 130 0 130 -30 0 -30 0 0 -130z"/>
<path d="M295 4605 c-14 -13 -25 -36 -25 -50 0 -28 40 -75 64 -75 78 0 109
107 40 139 -37 16 -52 14 -79 -14z"/>
<path d="M3045 4605 c-48 -47 -19 -119 49 -119 47 0 70 23 70 70 0 68 -72 97
-119 49z"/>
<path d="M3545 4605 c-14 -13 -25 -36 -25 -50 0 -30 41 -75 68 -75 35 0 72 38
72 73 0 38 -7 50 -37 66 -33 17 -51 14 -78 -14z"/>
<path d="M4034 4618 c-68 -32 -36 -138 42 -138 24 0 64 47 64 75 0 30 -41 75
-67 74 -10 0 -28 -5 -39 -11z"/>
<path d="M6864 4618 c-69 -33 -37 -138 42 -138 24 0 64 47 64 75 0 30 -41 75
-67 74 -10 0 -28 -5 -39 -11z"/>
<path d="M7345 4605 c-58 -57 1 -146 76 -115 35 15 53 57 40 93 -19 51 -77 62
-116 22z"/>
<path d="M7826 4609 c-19 -15 -26 -30 -26 -54 0 -36 36 -75 70 -75 34 0 70 39
70 75 0 36 -36 75 -70 75 -10 0 -29 -9 -44 -21z"/>
<path d="M10617 4623 c-9 -2 -24 -18 -33 -35 -19 -37 -5 -80 32 -97 37 -16 52
-14 79 14 58 57 3 139 -78 118z"/>
<path d="M800 4560 l0 -30 945 0 945 0 0 30 0 30 -945 0 -945 0 0 -30z"/>
<path d="M4520 4560 l0 -30 948 2 947 3 3 28 3 27 -950 0 -951 0 0 -30z"/>
<path d="M8330 4560 l0 -30 945 0 945 0 0 30 0 30 -945 0 -945 0 0 -30z"/>
<path d="M3040 4130 l0 -129 -102 -3 -103 -3 -3 -32 -3 -33 945 0 946 0 0 35
0 35 -810 0 -810 0 0 130 0 130 -30 0 -30 0 0 -130z"/>
<path d="M6760 4130 l0 -129 -102 -3 -103 -3 0 -30 0 -30 945 0 945 0 0 30 0
30 -812 3 -813 2 0 130 0 130 -30 0 -30 0 0 -130z"/>
<path d="M1266 4009 c-46 -36 -26 -110 34 -124 38 -9 80 27 80 68 0 38 -7 50
-37 66 -31 16 -47 14 -77 -10z"/>
<path d="M1762 4010 c-50 -47 -6 -140 58 -125 60 14 80 88 34 124 -34 27 -64
27 -92 1z"/>
<path d="M2235 4005 c-14 -13 -25 -35 -25 -47 0 -56 61 -93 106 -63 37 24 48
52 33 86 -22 54 -74 65 -114 24z"/>
<path d="M5065 4005 c-28 -27 -32 -61 -10 -92 49 -70 160 0 120 76 -24 48 -72
55 -110 16z"/>
<path d="M5566 4009 c-52 -41 -23 -122 44 -122 67 0 96 81 44 122 -15 12 -34
21 -44 21 -10 0 -29 -9 -44 -21z"/>
<path d="M6035 4005 c-14 -13 -25 -31 -25 -39 0 -30 23 -65 50 -76 58 -24 120
44 90 99 -24 46 -78 53 -115 16z"/>
<path d="M8776 4009 c-36 -29 -36 -80 1 -109 47 -37 113 -2 113 60 0 31 -39
70 -70 70 -10 0 -29 -9 -44 -21z"/>
<path d="M9316 4009 c-52 -41 -23 -122 44 -122 67 0 96 81 44 122 -15 12 -34
21 -44 21 -10 0 -29 -9 -44 -21z"/>
<path d="M9785 4005 c-28 -27 -30 -42 -14 -79 16 -34 58 -51 91 -35 26 11 48
46 48 75 0 24 -47 64 -75 64 -14 0 -37 -11 -50 -25z"/>
<path d="M955 3598 c-3 -8 -4 -66 -3 -129 l3 -114 33 -3 33 -3 -3 128 -3 128
-28 3 c-16 2 -29 -2 -32 -10z"/>
<path d="M4705 3598 c-3 -8 -4 -66 -3 -129 l3 -114 33 -3 33 -3 -3 128 -3 128
-28 3 c-16 2 -29 -2 -32 -10z"/>
<path d="M8520 3480 l0 -130 30 0 30 0 0 130 0 130 -30 0 -30 0 0 -130z"/>
<path d="M269 3372 c-49 -40 -17 -122 48 -122 65 0 93 61 52 114 -25 31 -66
35 -100 8z"/>
<path d="M3020 3370 c-26 -26 -26 -81 -2 -103 44 -40 122 -7 122 51 0 60 -78
94 -120 52z"/>
<path d="M3522 3373 c-51 -43 -24 -123 41 -123 38 0 50 7 66 37 17 33 14 51
-14 78 -28 29 -65 32 -93 8z"/>
<path d="M3992 3367 c-45 -48 -14 -117 51 -117 42 0 67 26 67 68 0 65 -74 96
-118 49z"/>
<path d="M6822 3367 c-45 -48 -14 -117 51 -117 42 0 67 26 67 68 0 65 -74 96
-118 49z"/>
<path d="M7320 3370 c-26 -26 -26 -81 -2 -103 44 -40 122 -7 122 51 0 60 -78
94 -120 52z"/>
<path d="M7791 3364 c-41 -53 -13 -114 52 -114 42 0 70 29 70 72 0 64 -83 92
-122 42z"/>
<path d="M10570 3370 c-24 -24 -26 -67 -4 -98 20 -28 83 -31 107 -4 40 45 6
122 -53 122 -17 0 -39 -9 -50 -20z"/>
<path d="M11071 3372 c-28 -22 -31 -75 -6 -102 24 -26 79 -26 105 0 62 62 -31
158 -99 102z"/>
<path d="M750 3310 l0 -30 945 0 945 0 0 30 0 30 -945 0 -945 0 0 -30z"/>
<path d="M4500 3310 l0 -30 945 0 945 0 0 30 0 30 -945 0 -945 0 0 -30z"/>
<path d="M8310 3310 l0 -30 940 0 940 0 0 30 0 30 -940 0 -940 0 0 -30z"/>
<path d="M903 2760 c-47 -19 -56 -78 -18 -115 42 -43 106 -23 121 37 5 22 0
33 -24 58 -32 31 -43 34 -79 20z"/>
<path d="M1403 2760 c-48 -19 -58 -87 -17 -119 34 -27 64 -27 92 -1 57 53 -3
149 -75 120z"/>
<path d="M1873 2758 c-81 -39 -20 -167 62 -130 55 25 58 100 5 127 -33 17 -37
17 -67 3z"/>
<path d="M4703 2758 c-12 -6 -27 -24 -34 -40 -34 -83 86 -136 130 -57 19 33 1
81 -35 98 -29 13 -32 13 -61 -1z"/>
<path d="M5200 2757 c-13 -7 -29 -25 -34 -39 -29 -83 94 -137 128 -56 17 39
11 63 -22 88 -29 23 -38 24 -72 7z"/>
<path d="M5680 2757 c-70 -35 -48 -137 30 -137 28 0 70 44 70 73 0 51 -55 86
-100 64z"/>
<path d="M8413 2760 c-48 -19 -58 -87 -17 -119 53 -41 114 -13 114 52 0 51
-50 86 -97 67z"/>
<path d="M8920 2763 c-53 -19 -68 -86 -28 -123 63 -58 157 33 101 98 -20 23
-50 33 -73 25z"/>
<path d="M9417 2748 c-37 -33 -40 -75 -7 -108 27 -27 66 -25 95 5 29 28 32 65
8 93 -28 33 -66 37 -96 10z"/>
<path d="M2410 2690 l0 -30 950 0 950 0 0 30 0 30 -950 0 -950 0 0 -30z"/>
<path d="M6160 2690 l0 -30 950 0 950 0 0 30 0 30 -950 0 -950 0 0 -30z"/>
<path d="M4310 2205 l0 -125 35 0 35 0 0 125 0 125 -35 0 -35 0 0 -125z"/>
<path d="M3110 2107 c-14 -7 -31 -24 -39 -38 -12 -22 -12 -29 0 -54 27 -57
105 -57 131 0 26 57 -37 119 -92 92z"/>
<path d="M3593 2112 c-51 -8 -70 -83 -30 -120 48 -45 117 -14 117 51 0 48 -38
77 -87 69z"/>
<path d="M6423 2112 c-51 -8 -70 -83 -30 -120 48 -45 117 -14 117 51 0 48 -38
77 -87 69z"/>
<path d="M6920 2112 c-51 -16 -68 -84 -30 -122 60 -60 154 26 105 97 -15 21
-50 33 -75 25z"/>
<path d="M7382 2105 c-59 -25 -51 -107 11 -130 62 -21 118 52 80 103 -26 34
-53 42 -91 27z"/>
<path d="M10173 2112 c-51 -8 -70 -83 -30 -120 48 -45 117 -14 117 51 0 48
-38 77 -87 69z"/>
<path d="M10670 2112 c-51 -16 -68 -84 -30 -122 57 -57 149 18 110 90 -11 20
-58 39 -80 32z"/>
<path d="M2587 2092 c-23 -25 -21 -78 3 -102 61 -61 154 27 104 98 -20 28 -83
31 -107 4z"/>
<path d="M330 2040 l0 -30 945 0 945 0 0 30 0 30 -945 0 -945 0 0 -30z"/>
<path d="M4110 2040 l0 -30 945 0 945 0 0 30 0 30 -945 0 -945 0 0 -30z"/>
<path d="M7890 2040 l0 -30 940 0 940 0 0 30 0 30 -940 0 -940 0 0 -30z"/>
<path d="M440 1480 c-43 -43 -11 -120 50 -120 38 0 70 32 70 70 0 38 -32 70
-70 70 -17 0 -39 -9 -50 -20z"/>
<path d="M937 1482 c-25 -28 -22 -87 5 -106 73 -51 160 42 98 104 -26 26 -81
26 -103 2z"/>
<path d="M1410 1478 c-27 -29 -25 -69 3 -96 46 -43 120 -15 120 46 0 66 -78
98 -123 50z"/>
<path d="M4240 1478 c-27 -29 -25 -69 3 -96 46 -43 120 -15 120 46 0 66 -78
98 -123 50z"/>
<path d="M4740 1480 c-11 -11 -20 -33 -20 -50 0 -17 9 -39 20 -50 11 -11 33
-20 50 -20 17 0 39 9 50 20 11 11 20 33 20 50 0 17 -9 39 -20 50 -11 11 -33
20 -50 20 -17 0 -39 -9 -50 -20z"/>
<path d="M5211 1474 c-12 -15 -21 -34 -21 -44 0 -34 39 -70 75 -70 36 0 75 36
75 70 0 34 -39 70 -75 70 -24 0 -39 -7 -54 -26z"/>
<path d="M7952 1484 c-29 -20 -30 -76 -2 -104 43 -43 120 -11 120 50 0 59 -67
90 -118 54z"/>
<path d="M8440 1473 c-37 -47 -4 -113 56 -113 35 0 74 37 74 70 0 10 -9 29
-21 44 -29 36 -80 36 -109 -1z"/>
<path d="M8920 1480 c-43 -43 -11 -120 50 -120 41 0 70 31 70 74 0 60 -77 89
-120 46z"/>
<path d="M1970 1440 l0 -30 945 0 945 0 0 30 0 30 -945 0 -945 0 0 -30z"/>
<path d="M5720 1440 l0 -30 945 0 945 0 0 30 0 30 -945 0 -945 0 0 -30z"/>
<path d="M2521 824 c-12 -15 -21 -34 -21 -44 0 -34 39 -70 75 -70 65 0 93 72
48 123 -25 27 -78 22 -102 -9z"/>
<path d="M3020 830 c-45 -45 -11 -120 53 -120 42 0 67 26 67 68 0 41 -31 72
-70 72 -17 0 -39 -9 -50 -20z"/>
<path d="M3502 833 c-52 -44 -24 -123 43 -123 36 0 75 36 75 70 0 10 -9 29
-21 44 -24 31 -67 35 -97 9z"/>
<path d="M6327 833 c-45 -51 -17 -123 48 -123 36 0 75 36 75 70 0 10 -9 29
-21 44 -24 31 -77 36 -102 9z"/>
<path d="M6821 824 c-27 -34 -27 -64 -1 -92 45 -48 123 -16 123 50 0 64 -83
92 -122 42z"/>
<path d="M7302 834 c-28 -20 -31 -83 -4 -107 44 -40 122 -7 122 51 0 59 -67
92 -118 56z"/>
<path d="M10071 824 c-12 -15 -21 -34 -21 -44 0 -34 39 -70 75 -70 36 0 75 36
75 70 0 34 -39 70 -75 70 -24 0 -39 -7 -54 -26z"/>
<path d="M10572 827 c-44 -47 -13 -117 52 -117 41 0 69 29 69 72 0 61 -78 91
-121 45z"/>
<path d="M11052 834 c-28 -20 -31 -83 -4 -107 25 -23 78 -21 102 3 61 61 -27
154 -98 104z"/>
<path d="M280 790 l0 -30 945 0 945 0 0 30 0 30 -945 0 -945 0 0 -30z"/>
<path d="M4030 790 l0 -30 945 0 945 0 0 30 0 30 -945 0 -945 0 0 -30z"/>
<path d="M7810 790 l0 -30 945 0 945 0 0 30 0 30 -945 0 -945 0 0 -30z"/>
<path d="M2627 453 c-4 -3 -7 -62 -7 -130 l0 -123 30 0 30 0 0 130 c0 130 0
130 -23 130 -13 0 -27 -3 -30 -7z"/>
<path d="M6370 330 l0 -130 30 0 30 0 0 130 0 130 -30 0 -30 0 0 -130z"/>
<path d="M10150 330 l0 -130 30 0 30 0 0 130 0 130 -30 0 -30 0 0 -130z"/>
<path d="M913 218 c-68 -33 -39 -138 38 -138 28 0 69 44 69 73 0 51 -61 88
-107 65z"/>
<path d="M1410 217 c-52 -26 -49 -104 4 -128 36 -17 73 -3 92 32 19 38 6 80
-32 98 -31 14 -33 14 -64 -2z"/>
<path d="M1876 209 c-19 -15 -26 -30 -26 -54 0 -36 36 -75 70 -75 10 0 29 9
44 21 34 27 35 71 1 104 -30 30 -54 31 -89 4z"/>
<path d="M4706 209 c-26 -20 -36 -69 -18 -95 10 -15 47 -34 67 -34 25 0 65 46
65 75 0 30 -41 75 -68 75 -11 0 -31 -9 -46 -21z"/>
<path d="M5213 218 c-68 -33 -40 -138 37 -138 28 0 70 44 70 73 0 51 -61 88
-107 65z"/>
<path d="M5676 209 c-19 -15 -26 -30 -26 -54 0 -36 36 -75 70 -75 34 0 70 39
70 75 0 36 -36 75 -70 75 -10 0 -29 -9 -44 -21z"/>
<path d="M8420 217 c-34 -17 -48 -69 -26 -102 32 -49 106 -42 127 12 13 35 -4
76 -37 92 -31 14 -33 14 -64 -2z"/>
<path d="M8905 205 c-32 -31 -32 -69 0 -100 27 -28 45 -31 78 -14 30 16 37 28
37 66 0 22 -8 38 -26 52 -35 27 -59 26 -89 -4z"/>
<path d="M9426 209 c-19 -15 -26 -30 -26 -54 0 -36 36 -75 70 -75 34 0 70 39
70 75 0 36 -36 75 -70 75 -10 0 -29 -9 -44 -21z"/>
<path d="M2410 160 l0 -30 950 0 950 0 0 30 0 30 -950 0 -950 0 0 -30z"/>
<path d="M6160 160 l0 -30 950 0 950 0 0 30 0 30 -950 0 -950 0 0 -30z"/>
</g>
</svg>
