<?xml version="1.0" standalone="no"?>
<!DOCTYPE svg PUBLIC "-//W3C//DTD SVG 20010904//EN"
 "http://www.w3.org/TR/2001/REC-SVG-20010904/DTD/svg10.dtd">
<svg version="1.0" xmlns="http://www.w3.org/2000/svg"
 width="1811.000000pt" height="1217.000000pt" viewBox="0 0 1811.000000 1217.000000"
 preserveAspectRatio="xMidYMid meet">
<metadata>
Created by potrace 1.13, written by Peter Selinger 2001-2015
</metadata>
<g transform="translate(0.000000,1217.000000) scale(0.100000,-0.100000)"
fill="#000000" stroke="none">
<path d="M280 12166 c0 -2 5 -17 11 -33 19 -49 22 -75 22 -188 0 -73 -6 -127
-16 -160 -14 -42 -14 -52 -3 -64 21 -20 34 -6 53 57 21 70 22 262 1 337 -11
43 -17 50 -40 53 -16 2 -28 1 -28 -2z"/>
<path d="M1957 12128 c25 -63 24 -298 0 -353 -17 -38 -17 -40 -1 -52 28 -20
32 -16 51 45 22 70 24 259 5 345 -13 53 -15 57 -42 57 l-29 0 16 -42z"/>
<path d="M3605 12153 c23 -58 24 -293 1 -368 -14 -45 -14 -51 0 -65 14 -13 17
-13 29 4 33 44 47 196 34 352 -7 84 -12 94 -46 94 -20 0 -24 -4 -18 -17z"/>
<path d="M5254 12148 c32 -110 33 -310 3 -380 -15 -36 -15 -38 5 -49 24 -13
31 -5 49 51 17 56 23 245 10 309 -20 89 -20 91 -48 91 -22 0 -24 -3 -19 -22z"/>
<path d="M6910 12166 c0 -2 5 -17 11 -33 27 -70 30 -268 5 -348 -14 -45 -14
-51 0 -65 14 -13 17 -13 29 4 37 50 51 285 23 391 -11 43 -17 50 -40 53 -16 2
-28 1 -28 -2z"/>
<path d="M8574 12148 c32 -110 33 -310 3 -380 -15 -36 -15 -38 5 -49 24 -13
31 -5 49 51 17 56 23 245 10 309 -20 89 -20 91 -48 91 -22 0 -24 -3 -19 -22z"/>
<path d="M10230 12166 c0 -2 5 -17 11 -33 27 -70 30 -268 5 -348 -14 -45 -14
-51 0 -65 14 -13 17 -13 29 4 37 50 51 285 23 391 -11 43 -17 50 -40 53 -16 2
-28 1 -28 -2z"/>
<path d="M11896 12143 c4 -16 8 -95 8 -178 1 -116 -3 -160 -15 -193 -16 -41
-16 -43 3 -53 24 -13 32 -5 51 56 13 43 16 320 4 368 -6 21 -13 27 -33 27 -24
0 -25 -3 -18 -27z"/>
<path d="M13547 12128 c23 -62 23 -287 0 -348 -15 -42 -15 -46 0 -57 22 -17
29 -10 49 50 22 64 25 254 6 340 -13 53 -15 57 -42 57 l-29 0 16 -42z"/>
<path d="M15204 12148 c31 -108 33 -296 4 -376 -15 -40 -15 -43 2 -52 27 -14
27 -15 45 38 23 62 31 234 16 314 -18 95 -20 98 -48 98 -22 0 -24 -3 -19 -22z"/>
<path d="M16867 12128 c23 -62 23 -287 0 -348 -15 -42 -15 -46 0 -57 22 -17
29 -10 49 50 22 64 25 254 6 340 -13 53 -15 57 -42 57 l-29 0 16 -42z"/>
<path d="M148 12044 c-15 -15 -14 -19 8 -51 33 -49 31 -103 -6 -181 -43 -91
-53 -137 -40 -177 12 -37 51 -80 92 -101 25 -13 28 -12 39 7 9 18 8 24 -7 32
-11 6 -34 26 -53 44 -40 40 -39 56 14 173 41 90 45 151 16 209 -27 53 -43 64
-63 45z"/>
<path d="M1815 12044 c-16 -12 -17 -17 -7 -32 28 -38 44 -87 38 -115 -3 -16
-22 -64 -41 -107 -59 -130 -43 -200 56 -250 l38 -20 7 22 c5 16 2 25 -11 33
-86 50 -93 87 -41 204 56 124 57 176 3 248 -21 28 -24 30 -42 17z"/>
<path d="M3468 12044 c-15 -15 -14 -19 8 -51 33 -49 31 -103 -6 -181 -43 -91
-53 -137 -40 -177 12 -37 51 -80 92 -101 25 -13 28 -12 39 7 9 18 8 24 -7 32
-11 6 -34 26 -53 44 -40 40 -39 56 14 173 41 90 45 151 16 209 -27 53 -43 64
-63 45z"/>
<path d="M5118 12043 c-15 -17 -15 -21 8 -58 32 -54 30 -83 -13 -179 -64 -142
-53 -206 44 -263 l43 -25 8 23 c8 20 4 27 -34 51 -68 43 -70 70 -10 203 49
109 46 172 -11 243 -18 22 -20 22 -35 5z"/>
<path d="M6778 12044 c-15 -15 -14 -19 8 -51 34 -51 31 -100 -13 -197 -59
-131 -50 -189 39 -249 40 -26 43 -27 55 -11 18 25 17 26 -27 53 -71 44 -73 80
-8 216 34 72 37 138 9 194 -27 53 -43 64 -63 45z"/>
<path d="M8438 12043 c-15 -17 -15 -21 8 -58 32 -54 30 -83 -13 -179 -64 -142
-52 -211 45 -264 l42 -24 9 23 c7 20 2 27 -35 51 -68 43 -70 70 -10 203 49
109 46 172 -11 243 -18 22 -20 22 -35 5z"/>
<path d="M10098 12044 c-15 -15 -14 -19 8 -51 34 -51 31 -100 -13 -197 -59
-131 -50 -189 39 -249 40 -26 43 -27 55 -11 18 25 17 26 -27 54 -71 44 -73 79
-8 215 34 72 37 138 9 194 -27 53 -43 64 -63 45z"/>
<path d="M11758 12044 c-16 -16 -15 -20 9 -61 32 -55 28 -91 -17 -187 -44 -93
-49 -150 -18 -195 12 -18 42 -45 65 -58 l43 -25 8 23 c8 20 4 27 -34 51 -68
43 -70 70 -10 203 49 109 46 172 -11 243 -17 21 -19 21 -35 6z"/>
<path d="M15068 12043 c-15 -17 -15 -21 8 -58 32 -54 30 -83 -13 -179 -64
-142 -52 -211 45 -264 l42 -24 9 24 c7 20 4 25 -25 40 -73 39 -80 83 -28 194
57 121 56 184 -4 262 -17 22 -19 22 -34 5z"/>
<path d="M13394 12036 c-3 -8 5 -29 18 -46 34 -46 29 -101 -15 -195 -28 -57
-37 -90 -37 -128 0 -47 3 -54 44 -92 53 -51 83 -62 92 -32 5 15 1 24 -11 32
-10 5 -31 21 -46 33 -39 32 -39 83 1 161 42 84 54 139 41 188 -19 70 -72 118
-87 79z"/>
<path d="M16714 12035 c-3 -8 5 -29 18 -47 33 -46 29 -97 -15 -192 -27 -58
-37 -92 -37 -129 0 -46 3 -54 44 -92 53 -51 83 -62 92 -32 5 15 1 24 -11 32
-10 5 -31 21 -46 33 -41 33 -39 80 8 178 48 100 50 162 10 223 -28 42 -53 53
-63 26z"/>
<path d="M1628 11838 c-7 -24 -13 -92 -13 -153 0 -98 3 -116 26 -165 26 -56
106 -152 141 -171 15 -8 22 -7 32 6 10 14 3 26 -50 80 -77 78 -104 143 -104
248 0 40 7 97 15 127 11 42 12 56 2 62 -24 16 -37 7 -49 -34z"/>
<path d="M3296 11872 c-2 -4 -12 -43 -21 -87 -32 -155 -1 -268 106 -379 64
-67 69 -70 85 -54 16 16 14 21 -48 86 -82 87 -104 142 -101 257 1 44 8 101 16
127 13 41 13 47 0 52 -20 8 -31 7 -37 -2z"/>
<path d="M4926 11811 c-42 -182 11 -349 140 -447 34 -27 37 -27 50 -10 11 16
7 24 -40 70 -104 101 -137 220 -102 370 13 56 14 71 4 78 -27 17 -37 6 -52
-61z"/>
<path d="M6600 11856 c-5 -13 -14 -60 -21 -104 -22 -142 16 -253 121 -357 56
-56 61 -58 77 -42 16 15 13 20 -45 81 -103 107 -128 196 -98 345 9 45 14 86
11 91 -11 18 -35 10 -45 -14z"/>
<path d="M8246 11811 c-42 -182 11 -349 140 -447 34 -27 37 -27 50 -10 11 16
7 24 -40 70 -104 101 -137 220 -102 370 13 56 14 71 4 78 -27 17 -37 6 -52
-61z"/>
<path d="M9920 11856 c-5 -13 -14 -60 -21 -104 -22 -142 16 -253 121 -357 56
-56 61 -58 77 -42 16 15 13 20 -45 81 -101 105 -128 198 -98 345 9 45 14 86
11 91 -11 18 -35 10 -45 -14z"/>
<path d="M11566 11811 c-42 -182 11 -349 140 -447 34 -27 37 -27 50 -10 11 16
7 24 -40 70 -104 101 -137 220 -102 370 13 56 14 71 4 78 -27 17 -37 6 -52
-61z"/>
<path d="M13220 11845 c-18 -54 -26 -163 -18 -229 10 -76 55 -159 124 -226 51
-51 55 -53 71 -37 16 15 13 20 -40 76 -82 86 -107 144 -107 252 0 47 7 108 15
135 11 37 12 50 2 56 -23 15 -36 8 -47 -27z"/>
<path d="M14874 11804 c-23 -104 -15 -211 20 -285 28 -61 81 -127 127 -160 29
-20 31 -20 43 -3 12 15 6 24 -43 73 -32 31 -68 79 -81 106 -31 67 -38 178 -16
265 13 51 14 65 4 72 -28 17 -37 5 -54 -68z"/>
<path d="M16541 11847 c-19 -56 -28 -165 -19 -229 11 -79 55 -161 124 -228 51
-51 55 -53 71 -37 16 15 13 20 -41 76 -81 85 -108 149 -107 254 0 45 7 104 15
132 12 38 13 51 3 57 -23 15 -35 8 -46 -25z"/>
<path d="M2722 11498 c-17 -17 -16 -19 22 -82 18 -30 41 -85 50 -120 22 -91
21 -255 -3 -324 -18 -52 -18 -53 1 -63 11 -6 24 -7 29 -2 19 19 39 133 39 228
0 119 -19 207 -61 286 -38 72 -60 94 -77 77z"/>
<path d="M4367 11492 c-16 -18 -16 -20 3 -45 34 -43 68 -128 81 -201 14 -82 7
-223 -15 -282 -15 -43 -8 -64 21 -64 19 0 44 95 50 195 9 146 -32 302 -105
393 -18 23 -18 23 -35 4z"/>
<path d="M6028 11494 c-14 -14 -12 -20 18 -66 55 -81 69 -143 69 -298 0 -104
-4 -143 -17 -172 -16 -36 -16 -38 2 -48 26 -14 26 -14 45 33 23 55 32 244 15
330 -13 69 -68 193 -97 220 -17 15 -21 15 -35 1z"/>
<path d="M7687 11492 c-16 -18 -16 -20 3 -45 34 -43 68 -128 81 -201 14 -82 7
-223 -15 -282 -15 -43 -8 -64 21 -64 19 0 44 95 50 195 9 146 -32 302 -105
393 -18 23 -18 23 -35 4z"/>
<path d="M9348 11494 c-14 -14 -12 -20 18 -66 55 -81 69 -143 69 -298 0 -104
-4 -143 -17 -172 -16 -36 -16 -38 2 -48 26 -14 26 -14 45 33 26 62 32 260 11
351 -17 71 -65 173 -95 200 -15 14 -19 14 -33 0z"/>
<path d="M11007 11492 c-16 -18 -16 -20 3 -45 34 -43 68 -128 81 -201 14 -82
7 -223 -15 -282 -15 -43 -8 -64 21 -64 19 0 44 95 50 195 9 146 -32 302 -105
393 -18 23 -18 23 -35 4z"/>
<path d="M1061 11486 c-10 -12 -6 -23 19 -57 50 -69 74 -166 74 -294 0 -80 -5
-125 -18 -164 -15 -44 -16 -55 -5 -62 23 -14 29 -11 45 26 57 136 33 391 -49
511 -36 54 -49 61 -66 40z"/>
<path d="M12650 11485 c-10 -13 -10 -19 2 -33 26 -28 64 -114 79 -172 19 -78
16 -232 -5 -304 -14 -48 -15 -60 -4 -67 7 -5 17 -9 21 -9 15 0 36 66 47 152
19 141 -16 318 -81 407 -32 45 -40 49 -59 26z"/>
<path d="M14310 11485 c-11 -13 -9 -19 8 -38 81 -86 117 -337 68 -477 -15 -45
-9 -70 19 -70 19 0 46 97 52 191 9 136 -25 281 -89 374 -25 38 -39 43 -58 20z"/>
<path d="M15970 11485 c-10 -13 -10 -18 2 -33 26 -29 65 -114 78 -172 19 -79
17 -232 -4 -304 -14 -48 -15 -60 -4 -67 7 -5 17 -9 21 -9 15 0 36 66 47 152
19 139 -15 311 -78 402 -32 46 -44 52 -62 31z"/>
<path d="M17630 11485 c-11 -13 -9 -19 7 -38 27 -29 56 -90 74 -152 20 -71 18
-267 -3 -325 -17 -45 -11 -70 17 -70 19 0 46 97 52 191 9 136 -25 281 -89 374
-25 38 -39 43 -58 20z"/>
<path d="M988 11229 c-16 -9 -16 -13 8 -49 36 -55 34 -101 -12 -197 -60 -129
-49 -196 43 -250 37 -21 47 -24 54 -12 15 24 10 34 -27 54 -44 23 -67 65 -58
102 4 15 22 60 41 101 44 94 46 153 9 217 -29 48 -32 50 -58 34z"/>
<path d="M2642 11227 c-8 -9 -4 -23 14 -52 33 -56 30 -96 -16 -195 -22 -48
-40 -100 -40 -120 0 -46 30 -93 81 -127 40 -26 42 -27 55 -8 20 26 18 31 -16
45 -39 16 -70 55 -70 88 0 13 17 61 37 106 48 103 52 180 13 238 -26 40 -41
46 -58 25z"/>
<path d="M4290 11225 c-10 -11 -7 -21 12 -47 34 -48 29 -105 -16 -198 -55
-114 -47 -187 27 -237 52 -35 64 -37 72 -12 5 15 3 25 -5 27 -6 2 -27 18 -46
34 -45 40 -45 77 3 182 47 104 50 164 10 225 -30 45 -38 49 -57 26z"/>
<path d="M5951 11226 c-9 -11 -6 -22 15 -52 33 -50 29 -92 -20 -201 -20 -44
-36 -96 -36 -114 0 -45 30 -92 81 -126 40 -27 42 -27 56 -8 13 18 12 22 -8 35
-50 35 -79 69 -79 95 0 15 17 64 37 109 55 123 54 191 -5 259 -18 21 -26 21
-41 3z"/>
<path d="M7610 11225 c-10 -11 -7 -21 12 -47 33 -47 30 -97 -15 -194 -56 -122
-48 -191 26 -241 52 -35 64 -37 72 -12 5 15 3 25 -5 27 -6 2 -27 18 -46 34
-45 40 -45 77 3 182 47 104 50 164 10 225 -30 45 -38 49 -57 26z"/>
<path d="M9271 11226 c-9 -11 -6 -22 15 -52 33 -50 29 -92 -20 -201 -20 -44
-36 -96 -36 -114 0 -45 30 -92 81 -126 40 -26 42 -27 55 -8 20 26 18 31 -16
45 -39 16 -70 55 -70 88 0 13 17 61 37 106 55 123 54 191 -5 259 -18 21 -26
21 -41 3z"/>
<path d="M10930 11225 c-10 -11 -7 -21 12 -47 34 -48 29 -105 -16 -198 -55
-114 -47 -187 27 -237 52 -35 64 -37 72 -12 5 15 3 25 -5 27 -6 2 -27 18 -46
34 -45 40 -45 77 3 182 47 104 50 164 10 225 -30 45 -38 49 -57 26z"/>
<path d="M12573 11229 c-9 -9 -6 -21 13 -48 34 -51 31 -97 -13 -195 -61 -135
-49 -202 46 -255 46 -25 46 -25 55 6 5 16 2 23 -13 28 -35 11 -69 45 -76 74
-4 21 5 54 34 124 50 115 53 169 16 234 -26 44 -42 52 -62 32z"/>
<path d="M14240 11225 c-10 -11 -7 -21 12 -47 33 -47 30 -97 -15 -194 -59
-129 -46 -203 44 -253 34 -19 43 -21 50 -10 12 19 11 39 -1 39 -5 0 -25 14
-45 31 -46 41 -46 77 2 183 47 104 50 164 10 225 -30 45 -38 49 -57 26z"/>
<path d="M15893 11229 c-9 -9 -6 -21 13 -48 34 -51 31 -97 -13 -195 -61 -135
-49 -202 46 -255 46 -25 46 -25 55 5 5 17 1 24 -23 34 -75 31 -84 87 -31 195
47 98 52 168 16 230 -27 46 -43 54 -63 34z"/>
<path d="M17560 11225 c-10 -11 -7 -21 12 -47 33 -47 30 -97 -15 -194 -59
-129 -46 -203 44 -253 34 -19 43 -21 50 -10 12 19 11 39 -1 39 -5 0 -25 14
-45 31 -46 41 -46 77 2 183 47 104 50 164 10 225 -30 45 -38 49 -57 26z"/>
<path d="M804 11013 c-25 -82 -23 -213 3 -280 26 -65 81 -142 129 -178 33 -25
37 -26 52 -12 14 15 11 21 -34 65 -116 111 -145 228 -99 402 7 28 9 50 5 50
-5 0 -15 3 -24 6 -11 4 -19 -8 -32 -53z"/>
<path d="M2476 11061 c-3 -5 -12 -37 -21 -72 -39 -166 3 -310 120 -418 49 -45
57 -48 74 -27 9 11 0 26 -47 72 -32 33 -68 82 -81 109 -32 67 -38 168 -17 259
13 56 14 71 4 78 -17 10 -26 10 -32 -1z"/>
<path d="M4108 11028 c-7 -24 -13 -94 -13 -158 0 -138 15 -177 108 -277 61
-65 80 -75 91 -47 4 12 -11 35 -48 73 -78 82 -99 129 -104 231 -3 57 1 104 12
145 8 32 14 60 13 61 -1 1 -12 5 -24 8 -19 6 -24 2 -35 -36z"/>
<path d="M5769 11013 c-8 -32 -14 -101 -14 -153 0 -84 3 -102 28 -152 29 -59
104 -151 139 -169 16 -8 24 -7 35 4 13 12 7 22 -44 73 -33 32 -70 81 -83 108
-31 65 -37 168 -16 260 13 56 14 71 4 78 -26 16 -35 7 -49 -49z"/>
<path d="M7428 11028 c-7 -24 -13 -94 -13 -158 0 -107 2 -119 28 -170 29 -56
132 -170 153 -170 7 0 15 7 18 16 4 12 -11 35 -48 73 -78 82 -99 129 -104 231
-3 57 1 104 12 145 8 32 14 60 13 61 -1 1 -12 5 -24 8 -19 6 -24 2 -35 -36z"/>
<path d="M9089 11013 c-8 -32 -14 -101 -14 -153 0 -84 3 -102 28 -152 29 -59
104 -151 139 -169 16 -8 24 -7 35 4 13 12 7 22 -44 73 -33 32 -70 81 -83 108
-31 65 -37 168 -16 260 13 56 14 71 4 78 -26 16 -35 7 -49 -49z"/>
<path d="M10748 11028 c-7 -24 -13 -94 -13 -158 0 -138 15 -177 108 -277 61
-65 80 -75 91 -47 4 12 -11 35 -48 73 -78 82 -99 129 -104 231 -3 57 1 104 12
145 8 32 14 60 13 61 -1 1 -12 5 -24 8 -19 6 -24 2 -35 -36z"/>
<path d="M12406 11062 c-17 -28 -37 -180 -31 -236 11 -103 77 -221 156 -277
28 -19 32 -20 46 -6 14 14 10 21 -41 71 -101 98 -132 206 -102 356 14 68 15
85 4 91 -16 11 -26 11 -32 1z"/>
<path d="M14058 11028 c-7 -25 -13 -92 -13 -158 0 -106 2 -119 28 -170 29 -56
132 -170 153 -170 7 0 15 8 18 17 5 12 -9 33 -48 72 -78 79 -106 145 -106 246
0 44 6 105 14 135 8 30 14 56 13 56 -1 1 -12 5 -24 8 -19 6 -24 2 -35 -36z"/>
<path d="M15721 11048 c-19 -50 -33 -172 -26 -226 12 -100 79 -218 156 -273
28 -19 32 -20 46 -6 14 14 10 21 -41 71 -101 98 -132 206 -102 356 14 68 15
85 4 91 -20 13 -28 11 -37 -13z"/>
<path d="M17378 11028 c-8 -25 -13 -91 -13 -158 1 -141 17 -182 107 -276 64
-66 81 -76 92 -47 5 12 -9 33 -48 72 -78 79 -106 145 -106 246 0 44 6 105 14
135 8 30 14 56 13 56 -1 1 -12 5 -24 8 -19 6 -24 2 -35 -36z"/>
<path d="M221 10646 c-9 -11 -5 -24 19 -63 52 -81 74 -172 73 -298 0 -77 -5
-125 -18 -159 -16 -48 -16 -50 1 -63 23 -17 29 -10 47 54 48 162 22 362 -63
496 -32 50 -41 55 -59 33z"/>
<path d="M1881 10646 c-10 -12 -6 -22 18 -56 55 -77 76 -159 76 -300 -1 -91
-5 -137 -17 -169 -16 -42 -16 -45 0 -57 40 -30 66 60 67 226 0 144 -22 233
-77 316 -37 54 -50 61 -67 40z"/>
<path d="M3541 10646 c-9 -11 -5 -24 19 -63 52 -81 74 -172 73 -298 0 -77 -5
-125 -18 -159 -16 -48 -16 -50 1 -63 23 -17 29 -10 47 54 48 162 22 362 -63
496 -32 50 -41 55 -59 33z"/>
<path d="M5189 10644 c-10 -12 -10 -19 -1 -32 29 -41 63 -116 77 -169 20 -77
19 -231 -1 -305 -13 -47 -14 -61 -4 -73 20 -24 27 -18 47 38 27 79 25 308 -4
396 -20 59 -80 161 -94 161 -4 0 -12 -7 -20 -16z"/>
<path d="M6851 10646 c-9 -11 -5 -24 19 -63 80 -125 98 -325 45 -490 -5 -16
-2 -24 13 -32 18 -9 22 -6 36 30 59 148 35 382 -54 522 -32 50 -41 55 -59 33z"/>
<path d="M8509 10644 c-10 -12 -10 -19 -1 -32 29 -41 63 -116 77 -169 21 -81
20 -237 -3 -311 -18 -57 -18 -59 -1 -71 26 -16 25 -16 46 42 28 82 25 309 -5
397 -22 61 -79 160 -93 160 -4 0 -12 -7 -20 -16z"/>
<path d="M10171 10646 c-9 -11 -5 -24 19 -63 52 -81 74 -172 73 -298 0 -77 -5
-125 -18 -159 -16 -48 -16 -50 1 -63 17 -13 21 -10 37 26 44 101 43 302 -3
425 -23 59 -75 146 -89 146 -5 0 -14 -6 -20 -14z"/>
<path d="M11829 10644 c-10 -12 -10 -19 -1 -32 29 -41 63 -116 77 -169 20 -77
19 -231 -1 -305 -13 -47 -14 -61 -4 -73 20 -24 27 -18 47 38 27 79 25 308 -4
396 -20 59 -80 161 -94 161 -4 0 -12 -7 -20 -16z"/>
<path d="M13471 10646 c-10 -12 -6 -23 19 -57 53 -73 75 -165 74 -304 0 -86
-5 -132 -17 -164 -16 -41 -16 -44 0 -56 25 -18 30 -12 50 53 27 87 24 275 -5
368 -21 69 -76 164 -98 171 -6 2 -16 -3 -23 -11z"/>
<path d="M15137 10642 c-16 -18 -16 -20 2 -36 27 -24 69 -124 82 -193 15 -78
6 -247 -15 -297 -15 -36 -15 -39 1 -52 25 -18 39 -2 58 71 19 75 19 231 0 313
-18 75 -59 163 -90 192 -21 20 -22 20 -38 2z"/>
<path d="M16791 10646 c-10 -12 -6 -23 19 -57 53 -73 75 -165 74 -304 0 -86
-5 -132 -17 -164 -16 -41 -16 -44 0 -56 24 -18 30 -12 48 48 48 161 19 390
-65 506 -33 45 -41 48 -59 27z"/>
<path d="M152 10388 c-17 -17 -15 -29 8 -58 31 -40 26 -103 -16 -190 -59 -124
-50 -189 36 -247 40 -28 56 -29 65 -5 4 11 0 21 -11 27 -9 6 -31 22 -48 37
-41 35 -39 80 8 178 47 97 49 165 9 228 -30 46 -33 48 -51 30z"/>
<path d="M1811 10386 c-10 -12 -7 -24 14 -61 33 -56 31 -83 -19 -194 -41 -89
-45 -141 -17 -187 22 -37 85 -78 106 -70 25 9 17 33 -20 56 -67 41 -71 84 -20
191 50 106 54 151 18 218 -31 60 -44 69 -62 47z"/>
<path d="M3472 10388 c-17 -17 -15 -26 8 -55 32 -41 27 -105 -16 -193 -59
-124 -50 -189 36 -247 40 -28 56 -29 65 -5 4 11 0 21 -11 27 -9 6 -31 22 -48
37 -41 35 -39 80 8 178 47 97 49 165 9 228 -30 46 -33 48 -51 30z"/>
<path d="M5116 10387 c-18 -13 -18 -15 8 -53 36 -53 33 -94 -10 -184 -64 -134
-54 -208 34 -258 48 -27 49 -27 62 -2 9 16 6 22 -20 35 -79 41 -87 85 -35 194
56 117 57 186 2 254 -20 25 -24 26 -41 14z"/>
<path d="M6778 10384 c-15 -15 -14 -19 8 -51 35 -52 32 -103 -12 -193 -60
-123 -50 -189 36 -247 40 -28 56 -29 65 -5 4 11 0 20 -12 27 -9 6 -33 25 -51
43 -30 28 -33 36 -28 67 4 20 23 68 41 107 50 104 45 199 -14 252 -16 14 -19
14 -33 0z"/>
<path d="M8436 10387 c-18 -13 -18 -15 8 -53 36 -53 33 -93 -14 -194 -61 -129
-51 -194 37 -247 46 -28 50 -28 63 -3 9 16 6 22 -20 35 -79 41 -87 85 -35 194
56 117 57 186 2 254 -20 25 -24 26 -41 14z"/>
<path d="M10098 10384 c-15 -15 -14 -19 8 -51 35 -52 32 -103 -12 -193 -60
-123 -50 -189 36 -247 40 -28 56 -29 65 -5 4 11 0 20 -12 27 -9 6 -33 25 -51
43 -30 28 -33 36 -28 67 4 20 23 68 41 107 50 104 45 199 -14 252 -16 14 -19
14 -33 0z"/>
<path d="M11756 10387 c-18 -13 -18 -15 8 -53 36 -53 33 -93 -14 -194 -61
-129 -51 -194 37 -247 46 -28 50 -28 63 -3 9 16 6 22 -20 35 -79 41 -87 85
-35 194 56 117 57 186 2 254 -20 25 -24 26 -41 14z"/>
<path d="M13401 10386 c-9 -11 -6 -25 14 -62 31 -59 29 -84 -20 -186 -42 -87
-47 -160 -15 -201 27 -34 87 -70 105 -63 25 9 17 33 -20 56 -67 41 -71 83 -19
196 47 102 50 160 11 227 -30 50 -38 55 -56 33z"/>
<path d="M15066 10387 c-19 -14 -19 -15 3 -46 40 -56 39 -98 -8 -198 -61 -134
-52 -196 36 -250 46 -28 50 -28 63 -3 9 16 6 22 -20 35 -79 41 -87 85 -35 194
56 117 57 186 2 254 -20 25 -24 27 -41 14z"/>
<path d="M16721 10386 c-9 -11 -6 -25 14 -62 31 -59 29 -84 -20 -186 -42 -87
-47 -160 -15 -201 27 -34 87 -70 105 -63 26 10 16 31 -30 64 -40 28 -45 36
-45 71 0 23 14 70 36 117 47 102 50 160 11 227 -30 50 -38 55 -56 33z"/>
<path d="M3292 10200 c-6 -15 -16 -62 -22 -103 -22 -133 11 -243 103 -343 64
-70 83 -81 97 -55 9 17 3 27 -40 67 -60 56 -107 148 -116 224 -5 47 5 119 28
208 1 8 -7 18 -19 22 -18 7 -23 4 -31 -20z"/>
<path d="M6596 10177 c-34 -121 -29 -233 15 -324 22 -46 109 -147 140 -163 14
-8 21 -6 29 9 9 17 3 27 -40 67 -98 92 -135 215 -106 354 20 95 20 97 -4 103
-17 4 -22 -3 -34 -46z"/>
<path d="M9916 10177 c-34 -121 -29 -233 15 -324 22 -46 109 -147 140 -163 14
-8 21 -6 29 9 9 17 3 27 -40 67 -98 92 -135 215 -106 354 20 95 20 97 -4 103
-17 4 -22 -3 -34 -46z"/>
<path d="M13219 10182 c-8 -27 -14 -93 -14 -157 0 -99 3 -116 27 -168 36 -77
142 -185 163 -167 8 7 15 16 15 20 0 4 -27 35 -59 68 -75 77 -101 141 -101
250 0 42 7 101 14 130 13 48 13 54 -2 59 -9 3 -20 8 -23 9 -4 2 -13 -18 -20
-44z"/>
<path d="M16539 10188 c-50 -183 -17 -332 101 -449 50 -51 63 -59 75 -49 23
19 19 30 -24 66 -49 42 -98 116 -112 168 -15 55 -12 169 5 234 13 49 13 54 -2
59 -9 3 -20 8 -24 10 -4 2 -12 -16 -19 -39z"/>
<path d="M1628 10178 c-7 -24 -13 -92 -13 -153 0 -101 2 -115 29 -169 16 -33
55 -85 88 -118 57 -57 60 -59 78 -43 19 17 17 19 -39 74 -80 80 -105 134 -109
241 -2 53 3 106 12 140 16 60 14 70 -14 70 -14 0 -23 -12 -32 -42z"/>
<path d="M4924 10144 c-37 -166 -1 -294 115 -409 58 -57 61 -58 75 -40 13 18
10 25 -45 82 -33 34 -69 84 -81 110 -29 65 -35 171 -14 252 17 68 15 81 -14
81 -15 0 -22 -14 -36 -76z"/>
<path d="M8244 10144 c-37 -166 -1 -294 115 -409 58 -57 61 -58 75 -40 13 18
10 25 -45 82 -33 34 -69 84 -81 110 -29 65 -35 171 -14 252 17 68 15 81 -14
81 -15 0 -22 -14 -36 -76z"/>
<path d="M11564 10144 c-37 -166 -1 -294 115 -409 58 -57 61 -58 75 -40 13 18
10 25 -45 82 -33 34 -69 84 -81 110 -29 65 -35 171 -14 252 17 68 15 81 -14
81 -15 0 -22 -14 -36 -76z"/>
<path d="M14879 10173 c-8 -27 -14 -93 -14 -148 0 -91 3 -106 31 -165 19 -41
53 -86 89 -122 56 -55 59 -57 77 -41 18 16 17 19 -41 77 -32 34 -69 81 -82
106 -29 59 -36 172 -16 260 17 70 15 80 -12 80 -13 0 -22 -13 -32 -47z"/>
<path d="M1060 9825 c-10 -12 -6 -23 19 -62 53 -80 76 -171 75 -298 -1 -71 -7
-128 -17 -160 -14 -42 -14 -52 -3 -64 20 -20 34 -7 50 50 48 161 20 374 -65
503 -34 50 -40 54 -59 31z"/>
<path d="M2716 9822 c-15 -18 -15 -20 0 -32 23 -20 62 -101 79 -167 21 -81 19
-253 -3 -319 -17 -50 -17 -52 0 -63 25 -15 24 -16 43 32 26 61 32 260 11 350
-19 79 -59 167 -91 197 -21 20 -22 20 -39 2z"/>
<path d="M4368 9824 c-16 -16 -15 -20 12 -59 55 -79 74 -156 74 -295 0 -94 -4
-136 -17 -170 -16 -42 -16 -46 1 -58 35 -26 61 45 69 193 8 150 -29 292 -99
378 -22 26 -24 27 -40 11z"/>
<path d="M6028 9824 c-14 -14 -12 -20 17 -65 58 -85 70 -137 70 -294 0 -109
-4 -148 -17 -177 -16 -37 -16 -38 4 -49 16 -9 23 -8 29 2 36 57 50 273 25 382
-17 74 -63 172 -93 199 -17 16 -21 16 -35 2z"/>
<path d="M7688 9824 c-16 -16 -15 -20 12 -59 55 -79 74 -156 74 -295 0 -94 -4
-136 -17 -170 -16 -42 -16 -46 1 -58 35 -26 61 45 69 193 8 150 -29 292 -99
378 -22 26 -24 27 -40 11z"/>
<path d="M9346 9822 c-15 -18 -15 -20 0 -33 25 -20 72 -124 85 -188 15 -75 7
-265 -14 -313 -15 -36 -15 -38 5 -49 16 -9 23 -8 29 2 36 57 50 273 25 382
-17 74 -63 172 -93 200 -19 16 -21 16 -37 -1z"/>
<path d="M11008 9824 c-16 -16 -15 -20 12 -59 55 -79 74 -156 74 -295 0 -94
-4 -136 -17 -170 -16 -42 -16 -46 1 -58 35 -26 61 45 69 193 8 150 -29 292
-99 378 -22 26 -24 27 -40 11z"/>
<path d="M12649 9824 c-10 -12 -10 -19 -1 -32 72 -102 96 -185 95 -332 0 -72
-6 -120 -18 -154 -15 -43 -15 -50 -2 -63 22 -22 32 -11 50 54 33 121 30 254
-8 379 -14 49 -82 164 -96 164 -4 0 -12 -7 -20 -16z"/>
<path d="M14319 9825 c-15 -16 -14 -21 18 -73 54 -90 68 -150 67 -287 0 -88
-4 -132 -17 -165 -16 -42 -16 -46 1 -58 14 -11 19 -10 29 5 22 28 34 83 40
178 9 145 -31 304 -99 388 -21 26 -24 27 -39 12z"/>
<path d="M15969 9824 c-10 -12 -10 -19 -1 -32 72 -102 96 -185 95 -332 0 -72
-6 -120 -18 -154 -15 -43 -15 -50 -2 -63 22 -22 32 -11 50 54 46 172 20 370
-66 495 -36 53 -39 55 -58 32z"/>
<path d="M17639 9825 c-15 -16 -14 -21 18 -73 54 -90 68 -150 67 -287 0 -86
-5 -133 -17 -165 -16 -42 -16 -46 1 -58 14 -11 19 -10 29 5 22 28 34 83 40
178 9 145 -31 304 -99 388 -21 26 -24 27 -39 12z"/>
<path d="M988 9564 c-15 -15 -14 -19 8 -51 38 -57 36 -90 -13 -197 -58 -126
-49 -182 39 -246 49 -36 54 -36 62 -7 4 15 1 25 -11 32 -33 19 -83 73 -83 89
0 9 18 59 41 112 27 63 41 110 41 139 0 47 -23 103 -51 129 -16 14 -19 14 -33
0z"/>
<path d="M2648 9564 c-15 -16 -15 -19 9 -55 33 -50 29 -97 -21 -206 -55 -123
-45 -179 42 -234 43 -27 48 -28 59 -12 18 23 16 31 -6 38 -36 11 -81 61 -81
90 0 15 16 64 36 108 56 123 56 192 1 260 -21 26 -23 27 -39 11z"/>
<path d="M5958 9563 c-16 -15 -16 -18 4 -45 37 -53 35 -95 -11 -202 -22 -52
-41 -110 -41 -126 0 -47 26 -88 78 -121 43 -27 48 -28 59 -12 18 23 16 31 -6
38 -36 11 -81 61 -81 90 0 15 16 64 36 108 56 123 56 192 1 259 -21 26 -24 27
-39 11z"/>
<path d="M9278 9564 c-16 -16 -16 -19 5 -48 34 -48 30 -114 -16 -212 -56 -124
-47 -179 41 -235 43 -27 48 -28 59 -12 18 23 16 31 -6 38 -36 11 -81 61 -81
90 0 15 16 64 36 108 56 123 56 192 1 260 -21 26 -23 27 -39 11z"/>
<path d="M10934 9565 c-16 -12 -17 -17 -6 -32 28 -40 44 -88 38 -116 -3 -16
-22 -64 -41 -107 -59 -130 -43 -200 56 -250 l38 -20 7 22 c5 16 2 25 -11 33
-10 5 -31 21 -46 33 -39 32 -39 83 1 161 59 119 61 185 7 258 -22 30 -26 31
-43 18z"/>
<path d="M12578 9564 c-15 -15 -14 -19 8 -51 34 -51 31 -100 -12 -194 -19 -44
-38 -95 -41 -113 -8 -49 22 -103 76 -138 43 -26 47 -27 58 -11 18 24 17 25
-27 52 -70 44 -73 81 -13 206 39 82 43 146 14 204 -27 53 -43 64 -63 45z"/>
<path d="M15898 9562 c-15 -15 -14 -20 8 -52 34 -50 32 -100 -11 -189 -19 -40
-38 -90 -41 -111 -9 -54 19 -106 75 -142 43 -26 47 -27 58 -11 18 24 17 26
-23 48 -45 24 -68 66 -58 107 3 17 22 63 40 102 40 83 44 146 15 205 -28 54
-44 65 -63 43z"/>
<path d="M4284 9556 c-3 -8 5 -29 18 -46 34 -46 30 -98 -15 -196 -61 -134 -46
-203 54 -254 l38 -20 7 22 c5 16 2 25 -11 33 -86 50 -93 87 -40 204 44 99 52
146 31 196 -28 66 -68 96 -82 61z"/>
<path d="M7604 9556 c-3 -8 5 -29 18 -46 34 -46 30 -98 -15 -196 -61 -134 -46
-203 54 -254 l38 -20 7 22 c5 16 2 25 -11 33 -10 5 -31 21 -46 33 -40 33 -39
80 6 173 44 92 52 143 30 194 -27 66 -68 96 -81 61z"/>
<path d="M14234 9556 c-3 -8 5 -29 18 -46 33 -45 29 -98 -15 -196 -61 -134
-46 -204 54 -254 l38 -20 7 22 c5 16 2 25 -11 33 -10 5 -31 21 -46 33 -39 32
-39 83 1 161 42 84 54 139 41 188 -19 70 -72 118 -87 79z"/>
<path d="M17554 9556 c-3 -8 5 -29 18 -46 33 -45 29 -98 -15 -196 -61 -134
-46 -204 54 -254 l38 -20 7 22 c5 16 2 25 -11 33 -10 5 -31 21 -46 33 -39 32
-39 83 1 161 42 84 54 139 41 188 -19 70 -72 118 -87 79z"/>
<path d="M817 9393 c-15 -27 -31 -130 -30 -198 1 -115 27 -179 114 -269 65
-68 69 -70 86 -53 17 16 15 20 -39 75 -99 101 -129 190 -108 321 7 41 16 85
21 97 6 16 4 24 -7 28 -21 8 -32 8 -37 -1z"/>
<path d="M2459 9343 c-8 -32 -14 -98 -14 -148 0 -77 4 -98 27 -147 33 -72 69
-119 121 -160 38 -30 40 -31 53 -13 12 16 8 24 -42 71 -100 96 -134 222 -100
367 17 73 15 87 -13 87 -13 0 -21 -14 -32 -57z"/>
<path d="M4108 9358 c-7 -24 -13 -92 -13 -153 0 -104 2 -114 32 -176 21 -41
53 -85 88 -118 54 -51 57 -52 75 -36 19 17 18 19 -33 65 -29 27 -66 72 -82
102 -25 45 -30 66 -33 143 -2 58 2 109 12 145 11 41 11 57 3 62 -24 16 -37 7
-49 -34z"/>
<path d="M5766 9331 c-41 -182 7 -341 136 -442 39 -31 41 -32 54 -14 12 16 8
23 -40 70 -104 100 -137 219 -102 369 13 56 14 71 4 78 -27 17 -37 6 -52 -61z"/>
<path d="M7428 9358 c-7 -24 -13 -92 -13 -153 0 -104 2 -114 32 -176 21 -41
53 -85 88 -118 54 -51 57 -52 75 -36 19 17 18 19 -33 65 -29 27 -66 72 -82
102 -25 45 -30 66 -33 143 -2 58 2 109 12 145 11 41 11 57 3 62 -24 16 -37 7
-49 -34z"/>
<path d="M9086 9331 c-41 -182 7 -341 136 -442 39 -31 41 -32 54 -14 12 16 8
23 -40 70 -104 100 -137 219 -102 369 13 56 14 71 4 78 -27 17 -37 6 -52 -61z"/>
<path d="M10748 9358 c-7 -24 -13 -92 -13 -153 0 -104 2 -114 32 -176 21 -41
53 -85 88 -118 54 -51 57 -52 75 -36 19 17 18 19 -33 65 -29 27 -66 72 -82
102 -25 45 -30 66 -33 143 -2 58 2 109 12 145 11 41 11 57 3 62 -24 16 -37 7
-49 -34z"/>
<path d="M12399 9374 c-5 -15 -15 -60 -21 -102 -14 -93 1 -187 40 -255 26 -45
128 -157 143 -157 3 0 12 7 19 15 11 13 3 25 -49 80 -102 106 -127 195 -97
344 9 45 14 86 11 91 -12 19 -36 10 -46 -16z"/>
<path d="M14058 9358 c-7 -25 -13 -93 -13 -158 0 -112 1 -117 34 -177 43 -81
135 -170 156 -153 22 19 19 25 -33 74 -27 25 -62 69 -77 98 -25 45 -30 67 -33
143 -2 58 2 109 12 145 11 41 11 57 3 62 -24 16 -37 7 -49 -34z"/>
<path d="M15719 9373 c-5 -14 -15 -59 -21 -100 -24 -151 24 -277 145 -383 35
-31 39 -32 54 -17 15 15 12 21 -45 81 -103 107 -128 196 -98 345 9 45 14 86
11 91 -12 19 -36 10 -46 -17z"/>
<path d="M17378 9358 c-7 -25 -13 -93 -13 -158 0 -112 1 -117 34 -177 43 -81
135 -170 156 -153 22 19 19 25 -33 74 -27 25 -62 69 -77 98 -25 45 -30 67 -33
143 -2 58 2 109 12 145 11 41 11 57 3 62 -24 16 -37 7 -49 -34z"/>
<path d="M8507 9003 c-15 -15 -14 -19 13 -57 59 -81 75 -146 75 -301 0 -109
-4 -148 -17 -176 -12 -27 -13 -40 -5 -48 21 -21 35 -11 54 37 15 38 18 74 17
192 -1 156 -13 210 -68 305 -35 59 -48 68 -69 48z"/>
<path d="M221 8996 c-10 -12 -8 -21 12 -48 80 -104 106 -308 61 -467 -13 -44
-13 -55 -2 -62 22 -14 28 -10 44 27 57 137 30 399 -54 518 -31 46 -44 52 -61
32z"/>
<path d="M1881 8996 c-8 -10 -6 -19 9 -39 34 -43 68 -128 81 -201 14 -83 7
-225 -14 -282 -16 -43 -9 -64 19 -64 50 0 69 317 25 439 -25 71 -79 161 -97
161 -6 0 -17 -6 -23 -14z"/>
<path d="M3541 8996 c-10 -12 -8 -21 12 -48 80 -104 106 -308 61 -467 -13 -44
-13 -55 -2 -62 22 -14 28 -10 44 27 57 137 30 399 -54 518 -31 46 -44 52 -61
32z"/>
<path d="M5183 8999 c-8 -8 -2 -24 21 -58 56 -82 71 -148 71 -301 0 -103 -4
-144 -17 -171 -16 -38 -10 -59 18 -59 51 0 70 315 26 441 -26 76 -76 159 -95
159 -7 0 -18 -5 -24 -11z"/>
<path d="M6851 8996 c-9 -11 -5 -23 18 -57 76 -114 98 -301 55 -458 -13 -44
-13 -55 -2 -62 22 -15 32 -5 52 52 30 86 27 269 -8 375 -24 76 -75 164 -95
164 -5 0 -14 -6 -20 -14z"/>
<path d="M10171 8996 c-9 -11 -6 -23 18 -57 76 -115 99 -301 55 -458 -13 -44
-13 -55 -2 -62 22 -14 28 -10 44 26 57 137 30 401 -54 519 -31 45 -44 52 -61
32z"/>
<path d="M11823 8999 c-8 -8 -2 -24 21 -58 56 -82 71 -148 71 -301 0 -103 -4
-144 -17 -171 -16 -38 -10 -59 18 -59 51 0 70 315 26 441 -26 76 -76 159 -95
159 -7 0 -18 -5 -24 -11z"/>
<path d="M13470 8995 c-10 -12 -7 -20 13 -45 77 -91 110 -335 63 -470 -11 -32
-12 -48 -4 -57 39 -48 73 55 73 222 -1 154 -35 274 -98 343 -24 26 -30 27 -47
7z"/>
<path d="M15132 8997 c-8 -9 -3 -23 18 -51 16 -21 40 -68 52 -105 20 -56 23
-86 23 -201 0 -103 -4 -144 -17 -171 -16 -37 -10 -59 17 -59 33 0 59 138 52
273 -6 118 -31 210 -78 280 -32 48 -48 57 -67 34z"/>
<path d="M16790 8995 c-10 -12 -7 -20 13 -45 78 -92 110 -334 63 -471 -11 -31
-12 -47 -4 -56 39 -48 73 55 73 222 -1 154 -35 274 -98 343 -24 26 -30 27 -47
7z"/>
<path d="M147 8739 c-16 -9 -15 -13 8 -47 36 -53 33 -106 -11 -200 -61 -130
-49 -198 45 -251 36 -19 45 -21 52 -10 15 24 10 35 -26 52 -42 20 -68 66 -59
104 4 15 22 60 41 99 42 93 45 157 8 221 -28 46 -31 48 -58 32z"/>
<path d="M1810 8735 c-10 -11 -7 -21 12 -47 34 -48 29 -105 -16 -198 -48 -99
-49 -154 -5 -205 42 -47 88 -72 100 -53 12 18 11 38 -1 38 -5 0 -25 14 -45 31
-47 41 -46 79 2 178 48 100 51 168 10 229 -30 46 -38 50 -57 27z"/>
<path d="M3467 8739 c-16 -9 -15 -13 8 -47 36 -53 33 -106 -11 -200 -61 -130
-49 -198 45 -251 36 -19 45 -21 52 -10 15 24 10 35 -26 52 -21 10 -42 30 -51
50 -17 36 -15 44 40 172 34 80 34 144 1 202 -28 46 -31 48 -58 32z"/>
<path d="M5111 8736 c-9 -11 -6 -22 15 -52 34 -50 29 -92 -21 -203 -56 -125
-44 -183 54 -243 33 -21 34 -21 48 -2 13 17 12 21 -9 34 -47 30 -78 69 -78 95
0 15 17 64 37 109 55 123 54 191 -5 259 -18 21 -26 21 -41 3z"/>
<path d="M6773 8739 c-9 -9 -6 -21 13 -48 35 -52 32 -102 -13 -196 -62 -131
-49 -200 46 -254 36 -19 45 -21 52 -10 14 22 10 37 -10 44 -35 11 -69 45 -76
75 -5 22 3 50 31 112 51 112 56 180 20 243 -27 46 -43 54 -63 34z"/>
<path d="M8431 8736 c-9 -11 -6 -22 15 -52 34 -50 29 -92 -21 -203 -56 -125
-44 -183 54 -243 33 -21 34 -21 48 -2 13 17 12 21 -9 34 -47 30 -78 69 -78 95
0 15 17 64 37 109 55 123 54 191 -5 259 -18 21 -26 21 -41 3z"/>
<path d="M10097 8739 c-16 -9 -15 -13 8 -47 36 -53 33 -103 -12 -199 -61 -131
-49 -199 46 -252 36 -19 45 -21 52 -10 14 22 10 37 -10 44 -35 11 -69 45 -76
75 -5 22 3 50 31 112 51 112 56 180 20 243 -29 48 -32 50 -59 34z"/>
<path d="M11751 8736 c-9 -11 -6 -22 15 -52 34 -50 29 -92 -21 -203 -56 -125
-44 -183 54 -243 33 -21 34 -21 48 -2 13 17 12 21 -9 34 -47 30 -78 69 -78 95
0 15 17 64 37 109 55 123 54 191 -5 259 -18 21 -26 21 -41 3z"/>
<path d="M13402 8737 c-8 -10 -5 -26 14 -63 30 -58 28 -76 -21 -184 -57 -125
-45 -196 41 -246 38 -22 48 -25 55 -13 14 22 11 37 -10 44 -10 3 -31 17 -45
30 -35 33 -34 82 4 164 58 122 60 179 8 254 -22 30 -31 33 -46 14z"/>
<path d="M15061 8736 c-9 -11 -6 -22 15 -52 34 -50 29 -92 -21 -203 -31 -69
-36 -92 -32 -128 5 -48 39 -93 91 -120 27 -14 31 -14 43 3 12 17 11 21 -9 34
-47 30 -78 69 -78 95 0 15 17 64 37 109 55 123 54 191 -5 259 -18 21 -26 21
-41 3z"/>
<path d="M16722 8737 c-8 -10 -5 -26 14 -63 30 -58 28 -76 -21 -184 -57 -125
-45 -196 41 -246 38 -22 48 -25 55 -13 14 22 11 37 -10 44 -10 3 -31 17 -45
30 -35 33 -34 82 4 164 58 122 60 179 8 254 -22 30 -31 33 -46 14z"/>
<path d="M1629 8533 c-8 -28 -14 -94 -14 -158 0 -102 2 -114 29 -164 31 -60
131 -171 153 -171 34 0 23 33 -30 88 -79 83 -100 129 -105 232 -3 57 1 104 12
145 8 32 14 60 13 61 -1 1 -12 4 -23 8 -19 6 -23 0 -35 -41z"/>
<path d="M3284 8523 c-20 -69 -23 -201 -6 -260 16 -55 87 -159 135 -197 35
-28 39 -29 54 -13 15 15 12 20 -39 70 -103 101 -132 203 -103 353 15 73 15 88
4 95 -24 15 -28 11 -45 -48z"/>
<path d="M4929 8523 c-8 -32 -14 -101 -14 -153 0 -82 4 -103 27 -153 27 -58
130 -177 153 -177 7 0 18 6 24 14 10 11 1 24 -44 66 -103 98 -136 222 -101
374 13 56 14 71 4 78 -26 16 -35 7 -49 -49z"/>
<path d="M6606 8572 c-17 -28 -37 -180 -31 -236 11 -103 77 -221 156 -277 28
-19 32 -20 46 -6 14 14 10 21 -41 71 -101 98 -132 206 -102 356 14 68 15 85 4
91 -16 11 -26 11 -32 1z"/>
<path d="M8245 8504 c-37 -165 -5 -293 101 -404 59 -62 74 -69 93 -46 10 11 1
24 -44 66 -103 98 -136 222 -101 374 9 38 15 70 14 71 -2 1 -13 6 -25 9 -20 6
-23 1 -38 -70z"/>
<path d="M9926 8572 c-17 -28 -37 -180 -31 -236 11 -103 77 -221 156 -277 28
-19 32 -20 46 -6 14 14 10 21 -41 71 -80 78 -110 147 -110 251 0 44 6 104 13
134 11 45 11 55 0 62 -17 11 -26 11 -33 1z"/>
<path d="M11565 8505 c-24 -102 -18 -211 17 -285 26 -57 130 -180 153 -180 7
0 17 6 24 13 8 10 -3 28 -50 76 -33 34 -70 83 -81 109 -29 64 -34 169 -14 256
9 38 15 70 14 71 -2 1 -12 5 -24 9 -19 6 -23 0 -39 -69z"/>
<path d="M13218 8538 c-7 -25 -13 -92 -13 -158 0 -105 2 -120 27 -170 27 -55
131 -170 154 -170 6 0 15 7 18 16 4 11 -14 38 -58 84 -42 45 -69 83 -80 116
-20 59 -21 181 -2 254 8 30 14 56 13 56 -1 1 -12 5 -24 8 -19 6 -24 2 -35 -36z"/>
<path d="M14875 8504 c-37 -165 -5 -293 101 -404 59 -62 74 -69 93 -46 10 11
1 24 -44 66 -103 98 -136 222 -101 374 9 38 15 70 14 71 -2 1 -13 6 -25 9 -20
6 -23 1 -38 -70z"/>
<path d="M16539 8538 c-32 -116 -26 -247 15 -331 26 -54 129 -167 151 -167 7
0 16 7 19 16 4 11 -14 38 -58 84 -45 48 -69 83 -81 119 -21 63 -21 175 -1 251
8 30 14 56 13 56 -1 1 -12 5 -24 8 -19 6 -23 2 -34 -36z"/>
<path d="M1061 8166 c-9 -10 -3 -27 24 -72 39 -65 50 -98 66 -199 12 -77 5
-188 -17 -250 -18 -51 -18 -52 6 -65 17 -9 21 -6 34 24 60 143 34 403 -53 529
-34 50 -42 55 -60 33z"/>
<path d="M2722 8168 c-17 -17 -15 -25 13 -63 46 -59 68 -139 73 -265 3 -87 0
-131 -12 -180 -16 -61 -16 -65 1 -78 15 -10 19 -9 29 10 42 81 45 322 5 432
-21 60 -77 156 -90 156 -4 0 -12 -5 -19 -12z"/>
<path d="M4361 8166 c-10 -12 -6 -23 19 -57 52 -73 75 -165 75 -304 -1 -86 -6
-133 -17 -164 -16 -42 -16 -45 0 -57 23 -17 28 -12 49 49 28 80 26 278 -4 373
-22 70 -77 164 -99 171 -6 2 -16 -3 -23 -11z"/>
<path d="M6032 8168 c-17 -17 -15 -25 13 -62 44 -58 67 -140 72 -264 4 -89 2
-127 -12 -178 -14 -51 -15 -67 -5 -79 20 -24 27 -18 47 38 27 79 25 308 -4
396 -20 57 -79 161 -93 161 -4 0 -11 -5 -18 -12z"/>
<path d="M7681 8166 c-10 -12 -6 -23 19 -57 52 -73 75 -165 75 -304 -1 -86 -5
-132 -17 -164 -16 -42 -16 -45 0 -57 23 -17 28 -12 49 49 28 80 26 278 -4 373
-22 70 -77 164 -99 171 -6 2 -16 -3 -23 -11z"/>
<path d="M9352 8168 c-17 -17 -15 -25 13 -62 44 -58 67 -140 72 -264 4 -89 2
-127 -12 -178 -14 -51 -15 -67 -5 -79 20 -24 27 -18 47 38 27 79 25 308 -4
396 -20 57 -79 161 -93 161 -4 0 -11 -5 -18 -12z"/>
<path d="M11001 8166 c-10 -12 -6 -23 19 -57 52 -73 75 -165 75 -304 -1 -86
-6 -133 -17 -164 -16 -42 -16 -45 0 -57 23 -17 28 -12 49 49 28 80 26 278 -4
373 -22 70 -77 164 -99 171 -6 2 -16 -3 -23 -11z"/>
<path d="M12651 8166 c-9 -11 -5 -24 18 -61 76 -120 98 -299 54 -455 -14 -51
-14 -55 4 -68 16 -12 20 -9 35 27 44 99 43 303 -2 424 -23 60 -75 147 -89 147
-5 0 -14 -6 -20 -14z"/>
<path d="M14311 8166 c-10 -12 -6 -23 19 -57 53 -73 75 -165 74 -304 0 -86 -5
-132 -17 -164 -16 -41 -16 -44 0 -56 25 -18 30 -12 50 53 27 87 24 275 -5 368
-21 69 -76 164 -98 171 -6 2 -16 -3 -23 -11z"/>
<path d="M15971 8166 c-9 -11 -5 -24 18 -61 76 -120 98 -299 54 -455 -14 -51
-14 -55 4 -68 16 -12 20 -9 36 27 43 98 41 305 -3 425 -23 59 -75 146 -89 146
-5 0 -14 -6 -20 -14z"/>
<path d="M17631 8166 c-10 -12 -6 -23 19 -57 53 -73 75 -165 74 -304 0 -86 -5
-132 -17 -164 -16 -41 -16 -44 0 -57 26 -19 39 2 59 94 32 145 2 344 -69 448
-36 54 -49 61 -66 40z"/>
<path d="M992 7908 c-17 -17 -15 -24 9 -57 32 -43 27 -96 -17 -193 -44 -97
-49 -153 -18 -195 23 -31 80 -73 99 -73 22 0 28 34 9 45 -88 51 -97 93 -42
212 51 108 53 165 11 231 -30 46 -33 48 -51 30z"/>
<path d="M2647 7905 c-17 -12 -17 -15 8 -50 34 -51 32 -92 -11 -187 -45 -99
-52 -144 -30 -189 15 -33 86 -89 112 -89 6 0 14 9 17 20 4 15 -2 24 -23 35
-37 19 -70 62 -70 91 0 13 16 59 37 101 46 98 53 164 25 219 -28 55 -42 66
-65 49z"/>
<path d="M4291 7906 c-10 -12 -7 -24 14 -61 33 -55 30 -85 -21 -194 -39 -85
-43 -140 -15 -187 22 -37 85 -78 106 -70 25 9 17 33 -20 56 -67 41 -71 83 -20
193 50 109 54 149 18 216 -31 60 -44 69 -62 47z"/>
<path d="M5955 7906 c-17 -12 -17 -15 9 -52 35 -52 33 -91 -10 -186 -20 -44
-38 -97 -41 -118 -7 -53 20 -105 72 -135 50 -30 52 -30 65 -5 9 16 6 22 -20
35 -45 23 -70 55 -70 89 0 17 18 69 40 116 46 97 50 143 19 206 -27 56 -41 67
-64 50z"/>
<path d="M7611 7906 c-9 -11 -6 -24 14 -62 32 -59 29 -86 -21 -192 -39 -84
-44 -141 -15 -188 22 -37 85 -78 106 -70 25 9 17 33 -20 56 -67 41 -71 83 -20
193 50 109 54 149 18 216 -31 59 -44 69 -62 47z"/>
<path d="M9275 7906 c-17 -12 -17 -15 9 -52 35 -52 33 -91 -10 -186 -20 -44
-38 -97 -41 -118 -7 -53 20 -105 72 -135 51 -30 61 -31 68 -5 4 15 -2 24 -24
35 -44 23 -69 56 -69 89 0 17 18 69 40 116 46 97 50 143 19 206 -27 56 -41 67
-64 50z"/>
<path d="M10931 7906 c-10 -12 -7 -24 14 -61 33 -55 30 -85 -21 -194 -39 -85
-43 -140 -15 -187 22 -37 85 -78 106 -70 25 9 17 33 -20 56 -67 41 -71 83 -20
193 50 109 54 149 18 216 -31 60 -44 69 -62 47z"/>
<path d="M12579 7904 c-16 -15 -15 -19 7 -51 35 -52 32 -103 -12 -193 -60
-123 -50 -189 36 -247 40 -28 56 -29 65 -5 4 11 0 20 -12 27 -36 21 -83 74
-83 95 0 12 16 58 36 102 56 125 58 195 6 257 -25 30 -28 31 -43 15z"/>
<path d="M14241 7906 c-9 -11 -6 -24 14 -62 31 -59 29 -81 -20 -188 -57 -122
-45 -193 40 -246 37 -23 65 -21 65 4 0 8 -16 24 -35 36 -67 41 -71 83 -20 193
50 109 54 149 18 216 -31 59 -44 69 -62 47z"/>
<path d="M15899 7904 c-16 -15 -15 -19 7 -51 34 -51 31 -99 -12 -191 -59 -126
-50 -191 36 -249 40 -28 56 -29 65 -5 4 11 0 20 -12 27 -36 21 -83 74 -83 95
0 12 16 58 36 102 56 125 58 195 6 257 -25 30 -28 31 -43 15z"/>
<path d="M17561 7906 c-9 -11 -6 -24 14 -62 31 -59 29 -81 -20 -188 -42 -89
-47 -158 -15 -199 27 -34 87 -70 105 -63 25 9 17 33 -20 56 -67 41 -71 83 -20
193 50 109 54 149 18 216 -31 59 -44 69 -62 47z"/>
<path d="M812 7720 c-23 -64 -34 -184 -23 -244 15 -79 63 -166 128 -227 44
-42 56 -49 68 -39 22 19 19 25 -35 76 -30 28 -63 73 -82 112 -29 59 -32 73
-31 151 0 47 8 108 16 134 14 44 14 49 -1 54 -9 3 -20 8 -24 10 -3 1 -11 -10
-16 -27z"/>
<path d="M7428 7701 c-7 -26 -13 -93 -13 -156 0 -101 2 -115 29 -170 38 -77
141 -182 162 -164 22 18 18 26 -39 82 -76 74 -101 131 -105 239 -3 58 1 104
11 139 17 58 16 64 -12 72 -16 4 -22 -4 -33 -42z"/>
<path d="M10748 7701 c-7 -26 -13 -93 -13 -156 0 -101 2 -115 29 -169 38 -77
141 -183 162 -165 22 18 18 25 -39 83 -77 76 -101 131 -105 238 -3 58 1 104
11 139 17 58 16 64 -12 72 -16 4 -22 -4 -33 -42z"/>
<path d="M12395 7697 c-25 -86 -29 -174 -11 -246 19 -75 44 -118 105 -184 59
-63 77 -73 90 -49 8 16 0 29 -47 78 -96 98 -126 191 -103 316 8 40 16 85 18
99 4 20 0 27 -16 32 -18 4 -23 -2 -36 -46z"/>
<path d="M15715 7697 c-25 -86 -29 -174 -11 -246 19 -75 44 -118 105 -184 59
-63 77 -73 90 -49 8 16 0 29 -47 78 -96 98 -126 191 -103 316 8 40 16 85 18
99 4 20 0 27 -16 32 -18 4 -23 -2 -36 -46z"/>
<path d="M17379 7702 c-8 -27 -14 -94 -14 -157 0 -99 3 -116 27 -168 36 -77
142 -185 163 -167 22 18 20 24 -38 82 -74 74 -101 133 -105 232 -3 43 1 105 8
137 16 72 16 71 -8 80 -17 7 -22 1 -33 -39z"/>
<path d="M2458 7688 c-7 -29 -13 -96 -13 -148 0 -87 3 -101 32 -160 20 -40 55
-88 92 -125 58 -57 61 -58 75 -40 13 18 10 25 -45 82 -33 34 -69 83 -81 110
-28 64 -34 161 -14 246 17 74 15 87 -14 87 -13 0 -21 -13 -32 -52z"/>
<path d="M4108 7703 c-8 -23 -13 -83 -13 -153 0 -107 2 -119 29 -174 38 -77
141 -183 162 -165 22 18 18 25 -39 83 -77 76 -101 131 -105 236 -2 53 3 106
12 140 16 60 14 70 -14 70 -12 0 -23 -12 -32 -37z"/>
<path d="M5764 7664 c-37 -166 -1 -294 115 -409 58 -57 61 -58 75 -40 13 18
10 25 -45 82 -33 34 -69 84 -81 110 -29 65 -35 171 -14 252 17 68 15 81 -14
81 -15 0 -22 -14 -36 -76z"/>
<path d="M9085 7665 c-38 -167 -2 -295 114 -410 58 -57 61 -58 75 -40 13 18
10 25 -45 82 -33 34 -69 83 -81 109 -26 60 -34 152 -18 229 18 91 18 100 -7
103 -19 3 -23 -5 -38 -73z"/>
<path d="M14058 7703 c-8 -23 -13 -83 -13 -153 0 -107 2 -119 29 -175 17 -34
55 -86 88 -119 49 -48 61 -56 73 -46 22 18 20 24 -38 82 -76 76 -101 133 -105
238 -3 54 2 106 11 142 16 60 14 68 -14 68 -11 0 -22 -13 -31 -37z"/>
<path d="M230 7335 c-10 -12 -6 -23 19 -62 52 -79 75 -170 74 -298 0 -72 -6
-127 -16 -160 -14 -42 -14 -52 -3 -64 20 -20 34 -7 50 50 48 161 20 374 -65
503 -34 50 -40 54 -59 31z"/>
<path d="M1898 7334 c-15 -15 -14 -20 13 -57 52 -72 74 -164 73 -307 0 -91 -5
-137 -17 -167 -16 -42 -15 -43 5 -54 26 -14 33 -4 53 83 19 84 19 202 0 293
-16 75 -63 181 -93 208 -17 15 -19 15 -34 1z"/>
<path d="M3555 7337 c-18 -14 -18 -16 14 -63 53 -81 76 -171 75 -299 -1 -71
-7 -128 -17 -160 -14 -42 -14 -52 -3 -64 20 -20 34 -7 50 50 50 166 12 412
-81 527 -16 20 -21 21 -38 9z"/>
<path d="M5198 7334 c-14 -14 -12 -20 17 -65 58 -85 70 -137 70 -294 0 -109
-4 -148 -17 -177 -16 -36 -16 -38 2 -48 26 -14 26 -14 45 33 26 62 32 260 11
351 -17 71 -65 173 -95 200 -15 14 -19 14 -33 0z"/>
<path d="M6862 7338 c-17 -17 -16 -23 18 -70 50 -69 74 -165 73 -293 0 -72 -6
-127 -16 -160 -14 -42 -14 -52 -3 -64 21 -20 34 -6 53 57 22 76 23 254 0 339
-18 67 -54 144 -86 181 -22 26 -23 26 -39 10z"/>
<path d="M8518 7334 c-14 -14 -12 -20 17 -65 58 -85 70 -137 70 -294 0 -110
-4 -148 -17 -177 -16 -37 -16 -38 4 -49 16 -9 23 -8 29 2 37 57 50 273 25 383
-17 71 -65 173 -95 200 -15 14 -19 14 -33 0z"/>
<path d="M10182 7338 c-17 -17 -16 -23 18 -70 50 -69 74 -165 73 -293 0 -72
-6 -127 -16 -160 -14 -42 -14 -52 -3 -64 21 -20 34 -6 53 57 22 76 23 254 0
339 -18 67 -54 144 -86 181 -22 26 -23 26 -39 10z"/>
<path d="M11838 7334 c-14 -14 -12 -20 17 -65 58 -85 70 -137 70 -294 0 -110
-4 -148 -17 -177 -16 -36 -16 -38 2 -48 26 -14 26 -14 45 33 26 62 32 260 11
351 -17 71 -65 173 -95 200 -15 14 -19 14 -33 0z"/>
<path d="M13489 7335 c-15 -16 -14 -21 18 -73 54 -90 68 -150 67 -287 0 -88
-4 -132 -17 -165 -16 -42 -16 -46 1 -58 14 -11 19 -10 29 5 22 28 34 83 40
178 9 145 -31 304 -99 388 -21 26 -24 27 -39 12z"/>
<path d="M15148 7334 c-14 -14 -12 -20 18 -66 55 -81 69 -143 69 -298 0 -104
-4 -143 -17 -172 -16 -37 -16 -38 4 -49 16 -9 23 -8 29 2 33 52 49 242 29 358
-12 74 -65 194 -98 224 -16 15 -20 15 -34 1z"/>
<path d="M16809 7335 c-15 -16 -14 -21 18 -73 54 -90 68 -150 67 -287 0 -86
-5 -133 -17 -165 -16 -42 -16 -46 1 -58 14 -11 19 -10 29 5 22 28 34 83 40
178 9 145 -31 304 -99 388 -21 26 -24 27 -39 12z"/>
<path d="M159 7074 c-16 -15 -15 -19 7 -51 37 -55 35 -102 -7 -184 -15 -31
-33 -77 -40 -102 -10 -41 -9 -51 10 -89 19 -39 61 -77 103 -93 11 -5 18 0 23
16 5 16 3 25 -6 28 -8 2 -31 21 -52 42 -45 44 -44 59 4 163 53 115 54 192 1
255 -25 30 -28 31 -43 15z"/>
<path d="M1826 7071 c-16 -18 -16 -21 9 -57 34 -50 30 -92 -20 -195 -60 -125
-43 -199 56 -249 l38 -20 7 22 c5 16 2 25 -11 33 -87 50 -93 87 -39 206 19 44
38 95 41 113 6 41 -9 91 -41 134 -22 31 -24 31 -40 13z"/>
<path d="M5127 7072 c-16 -18 -16 -20 5 -48 36 -45 31 -111 -15 -210 -20 -45
-37 -97 -37 -116 0 -45 35 -97 85 -125 37 -21 41 -21 53 -6 17 23 15 31 -7 38
-36 11 -81 61 -81 90 0 15 16 64 36 108 56 123 56 192 1 260 -23 27 -24 27
-40 9z"/>
<path d="M6788 7074 c-15 -15 -14 -19 8 -51 33 -49 31 -103 -6 -181 -47 -101
-54 -138 -35 -188 12 -31 29 -51 62 -73 48 -32 63 -37 63 -22 0 5 2 15 5 23 3
7 -12 23 -35 37 -70 44 -73 85 -12 206 35 69 41 149 14 201 -28 56 -44 68 -64
48z"/>
<path d="M8447 7072 c-16 -18 -16 -20 5 -48 36 -45 31 -111 -15 -210 -20 -45
-37 -97 -37 -116 0 -45 35 -97 85 -125 37 -21 41 -21 53 -6 17 23 15 31 -7 38
-36 11 -81 61 -81 90 0 15 16 64 36 108 56 123 56 192 1 260 -23 27 -24 27
-40 9z"/>
<path d="M10108 7074 c-15 -15 -14 -19 8 -51 33 -49 31 -103 -6 -181 -47 -101
-54 -138 -35 -188 12 -31 29 -51 62 -73 48 -32 63 -37 63 -22 0 5 2 15 5 23 3
7 -12 23 -35 37 -70 44 -73 85 -12 206 35 69 41 149 14 201 -28 56 -44 68 -64
48z"/>
<path d="M11767 7072 c-16 -18 -16 -20 5 -48 36 -45 31 -111 -15 -210 -20 -45
-37 -97 -37 -116 0 -45 35 -97 85 -125 37 -21 41 -21 53 -6 17 23 15 31 -7 38
-36 11 -81 61 -81 90 0 15 16 64 36 108 56 123 56 192 1 260 -23 27 -24 27
-40 9z"/>
<path d="M15078 7073 c-16 -15 -15 -19 9 -60 32 -55 28 -91 -17 -187 -61 -127
-47 -201 45 -253 37 -21 41 -21 53 -6 18 24 15 29 -18 43 -39 16 -70 55 -70
88 0 13 16 61 36 105 56 123 56 192 1 259 -21 26 -24 27 -39 11z"/>
<path d="M3473 7069 c-8 -8 -4 -21 13 -46 37 -55 35 -102 -7 -184 -15 -31 -33
-77 -40 -102 -10 -41 -9 -51 10 -89 19 -39 61 -77 103 -93 11 -5 18 0 23 16 5
16 3 25 -6 28 -8 2 -31 21 -52 42 -34 34 -38 42 -32 71 4 18 18 54 31 81 55
107 59 194 13 259 -22 30 -38 35 -56 17z"/>
<path d="M13410 7070 c-12 -8 -13 -13 -2 -27 28 -39 44 -88 38 -116 -3 -16
-22 -64 -41 -107 -58 -128 -45 -191 51 -251 30 -18 38 -19 45 -8 14 23 10 38
-13 50 -76 39 -87 92 -38 188 57 115 60 190 9 255 -23 29 -27 30 -49 16z"/>
<path d="M16724 7066 c-3 -8 5 -29 18 -46 34 -46 30 -98 -15 -196 -60 -132
-48 -195 49 -255 30 -18 38 -19 45 -8 14 23 10 38 -13 50 -76 39 -87 92 -38
188 42 84 54 139 41 188 -19 70 -72 118 -87 79z"/>
<path d="M1638 6868 c-7 -24 -13 -92 -13 -153 0 -98 3 -116 26 -165 26 -56
106 -152 141 -171 15 -8 22 -7 32 6 10 14 3 26 -50 80 -77 78 -104 143 -104
248 0 40 7 97 15 127 11 42 12 56 2 62 -24 16 -37 7 -49 -34z"/>
<path d="M3307 6903 c-15 -27 -31 -130 -30 -198 1 -115 27 -179 114 -269 64
-67 69 -70 85 -54 16 16 14 21 -48 86 -81 86 -103 142 -101 252 1 41 8 98 16
127 12 45 12 53 0 58 -20 7 -31 6 -36 -2z"/>
<path d="M4940 6863 c-22 -90 -24 -188 -5 -259 20 -73 81 -164 140 -210 35
-27 38 -27 51 -10 11 16 7 24 -40 70 -104 101 -137 220 -102 370 13 56 14 71
4 78 -26 16 -36 7 -48 -39z"/>
<path d="M6616 6902 c-2 -4 -12 -43 -21 -87 -32 -155 -1 -268 106 -379 64 -67
69 -70 85 -54 16 16 14 21 -48 86 -82 87 -104 142 -101 257 1 44 8 101 16 127
13 41 13 47 0 52 -20 8 -31 7 -37 -2z"/>
<path d="M8256 6841 c-42 -182 11 -349 140 -447 34 -27 37 -27 50 -10 11 16 7
24 -40 70 -104 101 -137 220 -102 370 13 56 14 71 4 78 -27 17 -37 6 -52 -61z"/>
<path d="M9936 6902 c-2 -4 -12 -43 -21 -87 -32 -155 -1 -268 106 -379 64 -67
69 -70 85 -54 16 16 14 21 -48 86 -82 87 -104 142 -101 257 1 44 8 101 16 127
13 41 13 47 0 52 -20 8 -31 7 -37 -2z"/>
<path d="M11576 6841 c-42 -182 11 -349 140 -447 34 -27 37 -27 50 -10 11 16
7 24 -40 70 -104 101 -137 220 -102 370 13 56 14 71 4 78 -27 17 -37 6 -52
-61z"/>
<path d="M13228 6868 c-7 -25 -13 -93 -13 -158 0 -111 1 -117 33 -176 18 -33
58 -85 88 -114 51 -51 55 -53 71 -37 16 15 13 20 -39 75 -82 85 -101 129 -105
237 -3 59 1 109 11 145 11 41 11 57 3 62 -24 16 -37 7 -49 -34z"/>
<path d="M14884 6834 c-20 -94 -15 -209 14 -274 24 -55 90 -140 133 -171 30
-21 33 -21 45 -5 11 15 5 25 -45 75 -31 31 -67 79 -80 106 -32 66 -38 168 -17
259 13 56 14 71 4 78 -28 17 -37 5 -54 -68z"/>
<path d="M16548 6868 c-7 -25 -13 -93 -13 -158 0 -111 1 -117 33 -176 18 -33
58 -85 88 -114 51 -51 55 -53 71 -37 16 15 13 20 -39 75 -82 85 -101 129 -105
237 -3 59 1 109 11 145 11 41 11 57 3 62 -24 16 -37 7 -49 -34z"/>
<path d="M1061 6506 c-10 -12 -6 -23 19 -57 51 -71 74 -165 74 -299 -1 -83 -6
-129 -18 -164 -15 -40 -15 -50 -4 -57 22 -14 28 -10 44 26 58 139 31 399 -54
519 -31 46 -44 52 -61 32z"/>
<path d="M2715 6508 c-3 -8 10 -40 29 -72 19 -32 42 -89 50 -126 22 -95 20
-250 -3 -318 -15 -43 -16 -54 -5 -63 44 -36 69 49 69 231 0 152 -13 209 -67
300 -33 54 -63 74 -73 48z"/>
<path d="M4360 6505 c-11 -13 -9 -19 8 -38 32 -34 70 -125 83 -201 14 -82 7
-223 -15 -282 -15 -43 -8 -64 21 -64 19 0 44 96 50 196 7 111 -15 232 -57 313
-49 93 -65 106 -90 76z"/>
<path d="M6023 6509 c-8 -8 -1 -25 23 -61 49 -72 66 -136 71 -273 4 -101 2
-129 -14 -178 -17 -47 -18 -59 -7 -68 44 -36 69 49 69 231 0 150 -17 223 -75
314 -30 46 -47 55 -67 35z"/>
<path d="M7680 6505 c-11 -13 -9 -19 8 -38 32 -34 70 -125 83 -201 14 -82 7
-223 -15 -282 -15 -43 -8 -64 21 -64 39 0 66 244 39 368 -17 83 -57 176 -88
209 -25 27 -31 28 -48 8z"/>
<path d="M9344 6510 c-9 -9 -3 -25 22 -62 49 -72 66 -136 71 -273 4 -101 2
-129 -14 -178 -17 -47 -18 -59 -7 -68 44 -36 69 49 69 231 0 151 -14 210 -69
303 -32 53 -53 66 -72 47z"/>
<path d="M11000 6505 c-11 -13 -9 -19 8 -38 32 -34 70 -125 83 -201 14 -82 7
-223 -15 -282 -15 -43 -8 -64 21 -64 19 0 44 96 50 196 7 111 -15 232 -57 313
-49 93 -65 106 -90 76z"/>
<path d="M12650 6505 c-10 -13 -10 -18 2 -33 26 -28 64 -114 79 -172 19 -78
16 -232 -5 -304 -14 -48 -15 -60 -4 -67 7 -5 17 -9 21 -9 15 0 36 66 47 152
19 139 -15 311 -78 402 -32 46 -44 52 -62 31z"/>
<path d="M14310 6505 c-10 -12 -7 -20 13 -45 33 -38 66 -127 79 -210 13 -78 5
-209 -16 -266 -15 -43 -8 -64 21 -64 39 0 66 246 39 368 -17 83 -57 176 -88
209 -25 27 -31 28 -48 8z"/>
<path d="M15971 6506 c-9 -11 -6 -24 19 -63 50 -78 72 -163 73 -283 0 -73 -5
-123 -17 -164 -14 -48 -15 -60 -4 -67 7 -5 17 -9 21 -9 15 0 35 65 47 150 19
140 -13 305 -79 404 -30 45 -43 52 -60 32z"/>
<path d="M17630 6505 c-10 -12 -7 -20 13 -45 33 -38 66 -127 79 -210 13 -78 5
-209 -16 -266 -15 -43 -8 -64 21 -64 39 0 66 246 39 368 -17 83 -57 176 -88
209 -25 27 -31 28 -48 8z"/>
<path d="M989 6248 c-15 -11 -15 -15 8 -50 36 -54 33 -102 -14 -201 -45 -95
-48 -147 -14 -196 30 -41 100 -79 112 -59 15 23 10 34 -26 51 -39 19 -69 68
-60 100 3 12 22 56 41 99 45 98 47 158 10 223 -29 48 -32 50 -57 33z"/>
<path d="M2641 6246 c-9 -11 -6 -22 14 -51 35 -52 32 -95 -11 -185 -63 -133
-54 -197 37 -257 40 -27 42 -27 56 -8 13 18 12 21 -9 35 -48 31 -78 68 -78 97
0 16 17 62 37 103 30 62 37 86 37 141 1 57 -3 70 -27 102 -31 41 -39 44 -56
23z"/>
<path d="M4290 6245 c-10 -11 -7 -21 12 -47 34 -48 29 -105 -16 -198 -59 -121
-45 -199 45 -249 34 -19 43 -21 50 -10 14 22 10 37 -10 44 -10 3 -31 17 -45
32 -37 37 -34 82 11 173 48 98 51 167 10 228 -30 46 -38 50 -57 27z"/>
<path d="M5951 6246 c-9 -11 -6 -22 14 -51 35 -53 32 -93 -16 -198 -61 -131
-49 -188 50 -249 33 -21 34 -21 48 -2 13 17 12 21 -9 34 -47 30 -78 69 -78 95
0 15 17 64 37 109 55 123 54 191 -5 259 -18 21 -26 21 -41 3z"/>
<path d="M7610 6245 c-10 -11 -7 -21 12 -47 34 -48 29 -105 -16 -198 -59 -121
-47 -195 40 -246 38 -22 48 -25 55 -13 14 22 11 37 -10 44 -10 3 -31 17 -45
30 -37 34 -34 80 11 179 48 103 50 164 10 225 -30 45 -38 49 -57 26z"/>
<path d="M9271 6246 c-9 -11 -6 -22 14 -51 35 -53 32 -93 -16 -198 -61 -131
-49 -188 50 -249 33 -21 34 -21 48 -2 13 17 12 21 -9 34 -47 30 -78 69 -78 95
0 15 17 64 37 109 55 123 54 191 -5 259 -18 21 -26 21 -41 3z"/>
<path d="M10930 6245 c-10 -11 -7 -21 12 -47 34 -48 29 -105 -16 -198 -59
-121 -45 -199 45 -249 34 -19 43 -21 50 -10 14 22 10 37 -10 44 -10 3 -31 17
-45 32 -36 36 -34 79 11 177 48 103 50 164 10 225 -30 45 -38 49 -57 26z"/>
<path d="M12577 6249 c-16 -9 -15 -13 8 -47 36 -52 33 -104 -9 -192 -44 -91
-52 -137 -32 -183 14 -35 86 -97 112 -97 16 0 31 43 16 48 -34 11 -77 51 -85
78 -8 26 -3 45 29 115 51 113 57 181 20 244 -29 48 -32 50 -59 34z"/>
<path d="M14241 6246 c-9 -10 -5 -24 15 -60 31 -56 29 -75 -21 -186 -57 -125
-45 -196 41 -246 38 -22 48 -25 55 -13 14 22 11 37 -10 44 -10 3 -31 17 -45
30 -37 34 -34 80 11 179 47 104 50 164 10 225 -29 44 -38 49 -56 27z"/>
<path d="M15891 6247 c-8 -10 -5 -22 14 -47 35 -47 32 -96 -9 -189 -45 -99
-52 -138 -33 -184 15 -35 87 -97 113 -97 15 0 31 43 18 47 -31 10 -76 47 -86
69 -13 28 -10 40 46 169 35 82 35 147 -1 203 -29 44 -43 51 -62 29z"/>
<path d="M17561 6246 c-9 -10 -5 -24 15 -60 31 -56 29 -75 -21 -186 -57 -125
-45 -196 41 -246 38 -22 48 -25 55 -13 14 22 11 37 -10 44 -10 3 -31 17 -45
30 -37 34 -34 80 11 179 47 104 50 164 10 225 -29 44 -38 49 -56 27z"/>
<path d="M804 6033 c-20 -68 -23 -200 -5 -260 16 -56 85 -157 138 -200 41 -34
42 -34 53 -13 10 19 5 27 -43 74 -76 75 -110 147 -111 239 0 40 5 101 13 135
12 55 12 65 0 73 -24 15 -28 11 -45 -48z"/>
<path d="M2470 6066 c-20 -54 -32 -151 -27 -216 7 -84 41 -160 104 -230 57
-64 80 -77 100 -57 13 12 7 22 -44 73 -114 115 -134 207 -87 415 5 21 2 27
-16 32 -16 4 -23 0 -30 -17z"/>
<path d="M4109 6043 c-8 -28 -14 -94 -14 -158 0 -101 2 -115 28 -165 29 -57
132 -170 155 -170 7 0 15 7 19 16 4 10 -13 34 -50 72 -79 80 -107 145 -107
247 0 44 7 105 15 135 8 30 13 55 12 56 -1 1 -12 4 -23 8 -19 6 -23 0 -35 -41z"/>
<path d="M5765 6006 c-35 -166 -4 -286 101 -396 59 -62 74 -69 93 -46 10 11 1
24 -44 66 -103 98 -136 222 -101 374 9 38 15 70 14 71 -2 1 -13 5 -24 9 -20 6
-23 0 -39 -78z"/>
<path d="M7428 6048 c-7 -24 -13 -94 -13 -158 0 -107 2 -119 29 -172 37 -73
144 -182 163 -166 22 18 15 31 -38 83 -29 28 -64 76 -80 110 -25 51 -29 72
-29 140 0 44 7 105 15 135 8 30 13 55 12 56 -1 1 -12 5 -24 8 -19 6 -24 2 -35
-36z"/>
<path d="M9085 6006 c-35 -166 -6 -280 99 -394 60 -64 75 -72 95 -49 8 10 -3
28 -50 76 -33 34 -70 83 -81 109 -29 64 -34 169 -14 256 9 38 15 70 14 71 -2
1 -13 5 -24 9 -20 6 -23 0 -39 -78z"/>
<path d="M10748 6048 c-7 -24 -13 -94 -13 -158 0 -107 2 -119 28 -170 37 -72
145 -184 164 -168 22 18 15 31 -38 83 -29 28 -64 76 -80 110 -25 51 -29 72
-29 140 0 44 7 105 15 135 8 30 13 55 12 56 -1 1 -12 5 -24 8 -19 6 -24 2 -35
-36z"/>
<path d="M12406 6082 c-2 -4 -12 -45 -22 -92 -29 -147 1 -267 96 -373 54 -61
77 -74 97 -54 14 14 10 21 -41 71 -101 98 -132 206 -102 356 14 68 15 85 4 91
-16 11 -26 11 -32 1z"/>
<path d="M14058 6048 c-7 -25 -13 -92 -13 -158 0 -105 2 -120 27 -171 28 -56
130 -169 153 -169 7 0 16 8 19 17 5 12 -9 33 -48 72 -79 81 -100 128 -104 231
-3 55 2 106 12 145 8 32 14 60 13 61 -1 1 -12 5 -24 8 -19 6 -24 2 -35 -36z"/>
<path d="M15726 6082 c-2 -4 -12 -45 -22 -92 -29 -147 1 -267 96 -373 54 -61
77 -74 97 -54 13 12 8 21 -42 70 -101 101 -131 208 -101 357 14 68 15 85 4 91
-16 11 -26 11 -32 1z"/>
<path d="M17379 6053 c-20 -67 -23 -223 -5 -286 18 -61 72 -140 134 -193 40
-34 41 -34 52 -14 10 19 4 29 -53 89 -43 46 -70 84 -81 117 -20 59 -21 180 -1
254 8 30 13 55 12 56 -1 1 -12 5 -24 8 -19 6 -23 2 -34 -31z"/>
<path d="M221 5696 c-9 -10 -3 -27 24 -72 19 -32 40 -74 45 -94 33 -116 34
-266 3 -359 -14 -41 -14 -46 2 -58 25 -17 30 -12 51 59 29 100 25 270 -10 372
-25 75 -78 166 -95 166 -5 0 -14 -6 -20 -14z"/>
<path d="M1881 5697 c-9 -12 -4 -25 22 -64 56 -83 72 -150 72 -293 -1 -91 -5
-137 -17 -169 -16 -42 -16 -45 0 -57 40 -30 66 60 67 226 0 144 -22 233 -77
316 -37 53 -50 61 -67 41z"/>
<path d="M3541 5696 c-9 -10 -3 -27 24 -72 19 -32 40 -74 45 -94 33 -116 34
-266 3 -359 -14 -41 -14 -46 2 -58 25 -17 30 -12 51 59 29 100 25 270 -10 372
-25 75 -78 166 -95 166 -5 0 -14 -6 -20 -14z"/>
<path d="M5192 5698 c-17 -17 -15 -25 12 -61 46 -62 68 -143 74 -265 3 -88 1
-128 -13 -178 -14 -51 -15 -67 -5 -79 20 -24 27 -18 47 38 27 79 25 308 -4
396 -20 57 -79 161 -93 161 -4 0 -11 -5 -18 -12z"/>
<path d="M6851 5696 c-9 -11 -5 -24 19 -63 72 -112 97 -313 56 -448 -17 -57
-17 -59 1 -73 16 -12 20 -9 36 27 44 101 43 302 -3 425 -23 59 -75 146 -89
146 -5 0 -14 -6 -20 -14z"/>
<path d="M8509 5694 c-10 -12 -10 -19 -1 -32 29 -41 63 -116 77 -169 21 -81
20 -237 -3 -311 -18 -57 -18 -59 -1 -71 26 -16 25 -16 46 42 27 79 25 308 -4
396 -20 59 -80 161 -94 161 -4 0 -12 -7 -20 -16z"/>
<path d="M10171 5696 c-9 -11 -5 -24 19 -63 72 -112 97 -313 56 -448 -17 -57
-17 -59 1 -73 16 -12 20 -9 36 27 44 101 43 302 -3 425 -23 59 -75 146 -89
146 -5 0 -14 -6 -20 -14z"/>
<path d="M11832 5698 c-17 -17 -15 -25 12 -61 46 -62 68 -143 74 -265 3 -88 1
-128 -13 -178 -14 -51 -15 -67 -5 -79 20 -24 27 -18 47 38 27 79 25 308 -4
396 -20 57 -79 161 -93 161 -4 0 -11 -5 -18 -12z"/>
<path d="M13471 5696 c-10 -12 -6 -23 19 -57 53 -73 75 -165 74 -304 0 -86 -5
-132 -17 -164 -16 -41 -16 -44 0 -56 25 -18 30 -12 50 53 27 87 24 275 -5 368
-21 69 -76 164 -98 171 -6 2 -16 -3 -23 -11z"/>
<path d="M15136 5692 c-15 -18 -15 -20 3 -36 27 -24 69 -124 82 -193 15 -78 6
-247 -15 -297 -15 -36 -15 -39 1 -52 26 -19 39 -1 59 76 23 90 16 270 -15 360
-20 60 -78 160 -92 160 -3 0 -13 -8 -23 -18z"/>
<path d="M16791 5696 c-10 -12 -6 -23 19 -57 53 -73 75 -165 74 -304 0 -86 -5
-132 -17 -164 -16 -41 -16 -44 0 -56 25 -18 30 -12 50 53 27 87 24 275 -5 368
-21 69 -76 164 -98 171 -6 2 -16 -3 -23 -11z"/>
<path d="M152 5438 c-17 -17 -15 -26 8 -55 32 -41 27 -105 -16 -193 -60 -123
-50 -189 36 -247 40 -28 56 -29 65 -5 4 11 0 21 -11 27 -9 6 -31 22 -48 37
-41 35 -39 80 8 178 47 97 49 165 9 228 -30 46 -33 48 -51 30z"/>
<path d="M1811 5436 c-9 -10 -5 -24 15 -60 32 -58 29 -84 -20 -195 -54 -119
-45 -183 31 -236 45 -30 59 -31 73 -5 9 17 5 22 -29 40 -73 37 -78 81 -24 196
48 101 51 167 10 232 -29 45 -38 50 -56 28z"/>
<path d="M3472 5438 c-17 -17 -15 -26 8 -55 32 -41 27 -105 -16 -193 -60 -123
-50 -189 36 -247 40 -28 56 -29 65 -5 4 11 0 21 -11 27 -9 6 -31 22 -48 37
-41 35 -39 80 8 178 47 97 49 165 9 228 -30 46 -33 48 -51 30z"/>
<path d="M5116 5437 c-18 -13 -18 -15 8 -53 36 -53 33 -93 -14 -194 -61 -129
-51 -194 37 -247 46 -28 50 -28 63 -3 9 16 6 22 -20 35 -79 41 -87 85 -35 194
56 117 57 186 2 254 -20 25 -24 26 -41 14z"/>
<path d="M6777 5433 c-14 -17 -13 -20 9 -48 36 -45 32 -103 -12 -195 -60 -123
-50 -189 36 -247 40 -28 56 -29 65 -5 4 11 0 20 -12 27 -9 6 -33 25 -51 43
-30 28 -33 36 -28 67 4 20 23 68 41 107 50 104 45 199 -14 252 -16 15 -19 15
-34 -1z"/>
<path d="M8436 5437 c-18 -13 -18 -15 8 -53 36 -53 33 -93 -14 -194 -61 -129
-51 -194 37 -247 46 -28 50 -28 63 -3 9 16 6 22 -20 35 -79 41 -87 85 -35 194
56 117 57 186 2 254 -20 25 -24 26 -41 14z"/>
<path d="M10097 5433 c-14 -17 -13 -20 9 -48 36 -45 32 -103 -12 -195 -60
-123 -50 -189 36 -247 40 -28 56 -29 65 -5 4 11 0 20 -12 27 -9 6 -33 25 -51
43 -30 28 -33 36 -28 67 4 20 23 68 41 107 50 104 45 199 -14 252 -16 15 -19
15 -34 -1z"/>
<path d="M11756 5437 c-18 -13 -18 -15 8 -53 36 -53 33 -93 -14 -194 -61 -129
-51 -194 37 -247 46 -28 50 -28 63 -3 9 16 6 22 -20 35 -79 41 -87 85 -35 194
56 117 57 186 2 254 -20 25 -24 26 -41 14z"/>
<path d="M13401 5436 c-9 -11 -6 -25 14 -62 31 -59 29 -84 -20 -186 -60 -125
-45 -202 50 -253 31 -17 37 -18 45 -5 15 23 13 27 -25 50 -65 40 -71 89 -26
185 58 121 60 162 14 243 -26 45 -34 50 -52 28z"/>
<path d="M15060 5435 c-10 -11 -7 -21 12 -47 35 -50 30 -114 -16 -208 -57
-117 -45 -185 41 -237 46 -28 50 -28 63 -3 9 16 6 22 -20 35 -44 23 -70 55
-70 88 0 16 17 66 37 111 49 105 52 172 10 234 -30 46 -38 50 -57 27z"/>
<path d="M16721 5436 c-9 -11 -6 -25 14 -62 31 -59 29 -84 -20 -186 -60 -125
-45 -202 50 -253 31 -17 37 -18 45 -5 14 22 14 24 -35 58 -41 29 -45 35 -45
73 0 26 11 66 29 104 58 121 60 162 14 243 -26 45 -34 50 -52 28z"/>
<path d="M3283 5222 c-10 -35 -17 -92 -17 -147 0 -80 3 -97 31 -157 30 -64
107 -158 145 -179 13 -7 20 -4 28 10 9 17 3 27 -40 67 -60 56 -107 148 -116
224 -5 47 5 119 28 208 1 8 -7 18 -19 23 -21 8 -24 4 -40 -49z"/>
<path d="M6596 5227 c-34 -121 -29 -233 15 -324 22 -46 109 -147 140 -163 14
-8 21 -6 29 9 9 17 3 27 -40 67 -98 92 -135 215 -106 354 20 95 20 97 -4 103
-17 4 -22 -3 -34 -46z"/>
<path d="M9916 5227 c-34 -121 -29 -233 15 -324 22 -46 109 -147 140 -163 14
-8 21 -6 29 9 9 17 3 27 -40 67 -98 92 -135 215 -106 354 20 95 20 97 -4 103
-17 4 -22 -3 -34 -46z"/>
<path d="M13218 5237 c-7 -23 -13 -94 -13 -157 0 -107 2 -119 29 -175 17 -34
55 -86 88 -119 49 -48 61 -56 73 -46 22 18 20 24 -38 82 -74 74 -101 133 -105
232 -3 43 1 105 8 137 16 73 16 71 -9 81 -18 6 -22 1 -33 -35z"/>
<path d="M16538 5238 c-7 -25 -13 -92 -13 -158 0 -104 3 -120 27 -173 36 -77
142 -185 163 -167 8 7 15 16 15 20 0 4 -27 35 -59 68 -76 78 -103 145 -102
252 0 41 7 99 15 128 13 49 13 54 -2 59 -9 3 -20 8 -24 10 -4 2 -13 -16 -20
-39z"/>
<path d="M1628 5228 c-7 -24 -13 -92 -13 -153 0 -101 2 -115 29 -169 16 -33
55 -85 88 -118 57 -57 60 -59 78 -43 19 17 17 19 -39 74 -80 80 -105 134 -109
241 -2 53 3 106 12 140 16 60 14 70 -14 70 -14 0 -23 -12 -32 -42z"/>
<path d="M4924 5194 c-37 -166 -1 -294 115 -409 58 -57 61 -58 75 -40 13 18
10 25 -45 82 -33 34 -69 84 -81 110 -29 65 -35 171 -14 252 17 68 15 81 -14
81 -15 0 -22 -14 -36 -76z"/>
<path d="M8244 5194 c-36 -163 -3 -284 107 -400 59 -61 63 -63 81 -47 17 16
16 19 -42 79 -33 35 -70 85 -82 111 -29 65 -35 171 -14 252 17 68 15 81 -14
81 -15 0 -22 -14 -36 -76z"/>
<path d="M11564 5194 c-37 -166 -1 -294 115 -409 58 -57 61 -58 75 -40 13 18
10 25 -45 82 -33 34 -69 84 -81 110 -29 65 -35 171 -14 252 17 68 15 81 -14
81 -15 0 -22 -14 -36 -76z"/>
<path d="M14879 5223 c-8 -27 -14 -93 -14 -148 0 -93 2 -105 32 -166 20 -40
56 -89 90 -123 53 -53 57 -55 75 -39 17 15 16 19 -41 77 -32 34 -69 82 -81
106 -30 59 -38 171 -17 260 17 70 15 80 -12 80 -13 0 -22 -13 -32 -47z"/>
<path d="M1068 4853 c-16 -17 -15 -21 13 -63 51 -75 74 -169 73 -295 -1 -71
-7 -128 -17 -160 -14 -42 -14 -52 -3 -64 20 -20 34 -7 51 52 49 165 11 410
-82 525 -18 22 -20 22 -35 5z"/>
<path d="M2716 4852 c-15 -18 -15 -20 0 -32 23 -20 62 -101 79 -167 22 -82 19
-253 -4 -321 -17 -51 -17 -53 0 -62 25 -14 25 -14 44 33 26 61 32 260 11 350
-17 74 -63 172 -93 200 -19 16 -21 16 -37 -1z"/>
<path d="M4368 4854 c-16 -16 -15 -20 12 -59 56 -81 74 -155 74 -300 0 -103
-3 -138 -17 -170 -17 -38 -17 -40 -1 -52 10 -7 21 -13 24 -13 16 0 42 114 47
205 8 150 -30 292 -99 378 -22 26 -24 27 -40 11z"/>
<path d="M6028 4854 c-14 -14 -12 -20 17 -65 58 -85 70 -137 70 -294 0 -110
-4 -148 -17 -177 -16 -36 -16 -38 2 -48 26 -14 26 -14 45 33 26 62 32 260 11
351 -17 71 -65 173 -95 200 -15 14 -19 14 -33 0z"/>
<path d="M7688 4853 c-16 -15 -15 -19 12 -58 55 -79 74 -156 74 -295 0 -94 -4
-136 -17 -170 -16 -42 -16 -46 1 -58 14 -11 19 -10 30 5 26 37 37 101 36 228
0 107 -4 141 -23 195 -18 53 -83 170 -94 170 -1 0 -10 -7 -19 -17z"/>
<path d="M9348 4854 c-14 -14 -12 -20 17 -65 58 -85 70 -137 70 -294 0 -110
-4 -148 -17 -177 -16 -36 -16 -38 2 -48 26 -14 26 -14 45 33 26 62 32 260 11
351 -17 71 -65 173 -95 200 -15 14 -19 14 -33 0z"/>
<path d="M11008 4854 c-16 -16 -15 -20 12 -59 56 -81 74 -155 74 -300 0 -103
-3 -138 -17 -170 -17 -38 -17 -40 -1 -52 10 -7 21 -13 24 -13 16 0 42 114 47
205 8 150 -30 292 -99 378 -22 26 -24 27 -40 11z"/>
<path d="M12652 4858 c-17 -17 -15 -25 12 -61 79 -103 107 -348 56 -482 -9
-22 -8 -32 4 -43 21 -21 31 -9 51 60 22 76 25 237 6 318 -28 117 -101 236
-129 208z"/>
<path d="M14319 4855 c-15 -16 -14 -21 18 -73 54 -90 68 -150 67 -287 0 -87
-4 -132 -17 -165 -15 -40 -15 -46 -1 -60 14 -13 17 -13 30 5 22 30 34 83 41
180 9 145 -31 304 -99 388 -21 26 -24 27 -39 12z"/>
<path d="M15972 4858 c-17 -17 -15 -25 13 -63 76 -99 104 -326 58 -464 -13
-38 -13 -45 0 -58 22 -22 32 -11 52 59 22 76 25 237 6 318 -28 117 -101 236
-129 208z"/>
<path d="M17639 4855 c-15 -16 -14 -21 18 -73 54 -90 68 -150 67 -287 0 -87
-4 -132 -17 -165 -15 -40 -15 -46 -1 -60 14 -13 17 -13 30 5 22 30 34 83 41
180 9 145 -31 304 -99 388 -21 26 -24 27 -39 12z"/>
<path d="M989 4594 c-16 -15 -15 -19 7 -51 37 -55 35 -102 -7 -184 -15 -31
-33 -77 -40 -102 -10 -41 -9 -51 10 -89 19 -39 61 -77 103 -93 11 -5 18 0 23
16 5 16 3 25 -6 28 -8 2 -31 21 -52 42 -34 34 -38 42 -32 71 4 18 18 54 31 80
59 116 60 202 6 268 -25 29 -28 30 -43 14z"/>
<path d="M2648 4594 c-15 -16 -15 -19 9 -55 33 -50 29 -97 -21 -206 -55 -123
-45 -179 42 -234 43 -27 48 -28 59 -12 18 23 16 31 -6 38 -36 11 -81 61 -81
90 0 15 16 64 36 108 56 123 56 192 1 260 -21 26 -23 27 -39 11z"/>
<path d="M5957 4592 c-16 -18 -16 -20 5 -48 36 -45 31 -111 -15 -210 -20 -45
-37 -97 -37 -116 0 -45 35 -97 85 -125 37 -21 41 -21 53 -6 18 24 15 29 -18
43 -39 16 -70 55 -70 88 0 13 16 61 36 105 56 123 56 192 1 260 -23 27 -24 27
-40 9z"/>
<path d="M9277 4592 c-16 -18 -16 -20 5 -48 36 -45 31 -111 -15 -210 -20 -45
-37 -97 -37 -116 0 -45 35 -97 85 -125 37 -21 41 -21 53 -6 18 24 15 29 -18
43 -39 16 -70 55 -70 88 0 13 16 61 36 105 56 123 56 192 1 260 -23 27 -24 27
-40 9z"/>
<path d="M12578 4593 c-15 -16 -14 -21 8 -53 34 -49 31 -97 -12 -191 -19 -44
-38 -95 -41 -113 -8 -49 22 -103 76 -138 43 -26 47 -27 58 -11 18 24 17 26
-23 48 -43 23 -68 67 -59 104 3 14 22 60 41 102 45 100 46 156 4 222 -16 26
-31 47 -33 47 -2 0 -11 -8 -19 -17z"/>
<path d="M15898 4593 c-15 -16 -14 -21 8 -53 34 -49 31 -97 -12 -191 -19 -44
-38 -95 -41 -113 -8 -49 22 -103 76 -138 43 -26 47 -27 58 -11 18 24 17 26
-23 48 -45 24 -68 66 -58 107 3 17 22 63 40 102 45 94 46 153 4 219 -16 26
-31 47 -33 47 -2 0 -11 -8 -19 -17z"/>
<path d="M4290 4590 c-12 -8 -13 -13 -2 -27 28 -39 44 -88 38 -116 -3 -16 -22
-64 -41 -107 -24 -54 -35 -92 -35 -125 0 -44 4 -52 44 -90 53 -51 83 -62 92
-32 5 15 1 24 -11 32 -86 50 -93 87 -40 204 44 99 52 146 31 196 -16 38 -43
75 -55 75 -3 0 -13 -5 -21 -10z"/>
<path d="M7610 4590 c-12 -8 -13 -13 -2 -27 28 -39 44 -88 38 -116 -3 -16 -22
-64 -41 -107 -24 -54 -35 -92 -35 -125 0 -44 4 -52 44 -90 53 -51 83 -62 92
-32 5 15 1 24 -11 32 -86 50 -93 87 -40 204 44 99 52 146 31 196 -16 38 -43
75 -55 75 -3 0 -13 -5 -21 -10z"/>
<path d="M10930 4590 c-12 -8 -13 -13 -2 -27 28 -39 44 -88 38 -116 -3 -16
-22 -64 -41 -107 -24 -54 -35 -92 -35 -125 0 -44 4 -52 44 -90 53 -51 83 -62
92 -32 5 15 1 24 -11 32 -86 50 -93 87 -40 204 44 99 52 146 31 196 -16 38
-43 75 -55 75 -3 0 -13 -5 -21 -10z"/>
<path d="M14234 4586 c-3 -8 5 -29 18 -46 34 -46 30 -98 -15 -196 -60 -132
-48 -195 49 -255 30 -18 38 -19 45 -8 14 23 10 38 -13 50 -76 39 -87 92 -38
188 42 84 54 139 41 188 -19 70 -72 118 -87 79z"/>
<path d="M17554 4586 c-3 -8 5 -29 18 -46 34 -46 30 -98 -15 -196 -26 -58 -37
-95 -37 -129 0 -44 4 -52 44 -90 53 -51 83 -62 92 -32 5 15 1 24 -11 32 -10 5
-31 21 -46 33 -39 32 -39 83 1 161 42 84 54 139 41 188 -19 70 -72 118 -87 79z"/>
<path d="M817 4423 c-15 -27 -31 -130 -30 -198 1 -115 27 -179 114 -269 65
-68 69 -70 86 -53 17 16 15 20 -38 75 -71 73 -86 98 -105 173 -17 66 -14 124
10 217 12 44 12 51 -1 56 -20 8 -31 7 -36 -1z"/>
<path d="M2459 4373 c-8 -32 -14 -98 -14 -148 0 -77 4 -98 28 -149 31 -68 83
-135 129 -167 30 -21 31 -22 44 -4 12 16 8 24 -42 71 -100 96 -134 222 -100
368 13 56 14 71 4 78 -26 16 -35 7 -49 -49z"/>
<path d="M4108 4388 c-7 -24 -13 -92 -13 -153 0 -99 3 -116 27 -168 26 -55
130 -177 151 -177 5 0 15 7 22 16 9 14 3 24 -40 65 -81 77 -108 136 -113 244
-2 58 2 109 12 145 11 41 11 57 3 62 -24 16 -37 7 -49 -34z"/>
<path d="M5770 4383 c-32 -125 -20 -265 28 -342 30 -49 83 -110 114 -132 29
-21 31 -21 44 -5 11 16 6 24 -40 70 -104 101 -137 220 -102 370 13 56 14 71 4
78 -26 16 -36 7 -48 -39z"/>
<path d="M7428 4388 c-7 -24 -13 -92 -13 -153 0 -99 3 -116 27 -168 26 -55
130 -177 151 -177 5 0 15 7 22 16 9 14 3 24 -40 65 -81 77 -108 136 -113 244
-2 58 2 109 12 145 11 41 11 57 3 62 -24 16 -37 7 -49 -34z"/>
<path d="M9086 4361 c-28 -121 -15 -245 32 -320 30 -49 83 -110 114 -132 29
-21 31 -21 44 -5 11 16 6 24 -40 70 -104 101 -137 220 -102 370 13 56 14 71 4
78 -27 17 -37 6 -52 -61z"/>
<path d="M10748 4388 c-7 -24 -13 -92 -13 -153 0 -98 3 -116 27 -167 26 -56
104 -150 141 -170 14 -7 22 -5 32 8 11 16 6 23 -39 65 -29 26 -65 71 -81 101
-25 45 -30 66 -33 143 -2 58 2 109 12 145 11 41 11 57 3 62 -24 16 -37 7 -49
-34z"/>
<path d="M12399 4404 c-5 -15 -15 -61 -21 -102 -23 -153 29 -287 150 -387 31
-26 35 -27 50 -12 14 15 11 22 -46 81 -103 107 -128 196 -98 345 9 45 14 86
11 91 -12 19 -36 10 -46 -16z"/>
<path d="M14058 4388 c-7 -25 -13 -93 -13 -158 0 -111 1 -117 33 -176 18 -33
58 -85 88 -114 51 -51 55 -53 71 -37 16 15 13 20 -39 75 -82 85 -101 129 -105
237 -3 59 1 109 11 145 11 41 11 57 3 62 -24 16 -37 7 -49 -34z"/>
<path d="M15719 4404 c-5 -15 -15 -61 -21 -102 -23 -153 29 -287 150 -387 31
-26 35 -27 50 -11 15 15 12 20 -41 73 -104 103 -133 203 -103 352 9 45 14 86
11 91 -12 19 -36 10 -46 -16z"/>
<path d="M17378 4388 c-7 -25 -13 -93 -13 -158 0 -111 1 -117 33 -176 18 -33
58 -85 88 -114 51 -51 55 -53 71 -37 16 15 13 20 -39 75 -82 85 -101 129 -105
237 -3 59 1 109 11 145 11 41 11 57 3 62 -24 16 -37 7 -49 -34z"/>
<path d="M221 4016 c-9 -11 -6 -23 17 -57 33 -51 59 -114 69 -167 13 -72 7
-245 -10 -292 -21 -57 -21 -57 3 -70 17 -9 21 -6 35 27 9 20 21 77 27 127 18
147 -19 323 -88 413 -28 37 -36 40 -53 19z"/>
<path d="M1880 4015 c-11 -13 -9 -19 8 -38 32 -34 70 -125 83 -201 14 -83 7
-224 -14 -285 -15 -41 -15 -46 1 -57 35 -26 60 42 69 186 9 152 -33 314 -100
388 -24 26 -30 27 -47 7z"/>
<path d="M3541 4016 c-9 -11 -6 -23 17 -57 58 -87 69 -144 65 -330 -1 -48 -9
-106 -19 -134 -15 -46 -15 -49 1 -62 10 -7 21 -10 25 -8 16 10 42 133 43 208
4 181 -19 285 -79 364 -28 37 -36 40 -53 19z"/>
<path d="M5183 4019 c-9 -9 -4 -23 19 -56 52 -77 71 -145 75 -278 4 -99 1
-131 -15 -181 -18 -59 -18 -61 -1 -73 26 -16 25 -16 46 42 14 40 18 82 18 177
0 170 -16 237 -76 332 -32 49 -46 57 -66 37z"/>
<path d="M6850 4015 c-10 -13 -10 -18 2 -33 20 -22 63 -109 73 -147 5 -16 10
-37 12 -45 3 -8 5 -67 5 -130 1 -85 -4 -128 -17 -164 -16 -47 -16 -50 0 -63
25 -17 30 -11 48 54 45 168 19 382 -61 497 -32 46 -44 52 -62 31z"/>
<path d="M8503 4019 c-9 -9 -4 -23 19 -56 52 -77 71 -145 75 -278 4 -99 1
-131 -15 -181 -18 -59 -18 -61 -1 -73 26 -16 25 -16 46 42 14 40 18 82 18 177
0 170 -16 237 -76 332 -32 49 -46 57 -66 37z"/>
<path d="M10170 4015 c-10 -13 -10 -18 2 -33 20 -22 63 -109 73 -147 5 -16 10
-37 12 -45 3 -8 5 -67 5 -130 1 -85 -4 -128 -17 -164 -16 -47 -16 -50 0 -63
25 -17 30 -11 48 54 45 168 19 382 -61 497 -32 46 -44 52 -62 31z"/>
<path d="M11823 4019 c-9 -9 -4 -23 19 -56 55 -81 65 -127 63 -291 -1 -108 -5
-158 -17 -188 -15 -38 -15 -41 3 -52 26 -17 25 -17 45 36 14 37 18 80 19 202
2 173 -8 222 -66 312 -32 49 -46 57 -66 37z"/>
<path d="M13471 4016 c-10 -12 -6 -23 18 -56 55 -76 76 -159 75 -300 0 -93 -5
-137 -18 -170 -16 -42 -16 -45 0 -57 24 -17 31 -10 49 50 48 161 19 390 -65
506 -33 45 -41 48 -59 27z"/>
<path d="M15133 4019 c-9 -9 -5 -22 18 -56 58 -84 72 -143 73 -298 0 -106 -4
-150 -16 -181 -15 -38 -15 -41 3 -52 26 -17 25 -17 44 36 11 29 19 90 22 162
6 140 -18 253 -71 340 -36 57 -53 69 -73 49z"/>
<path d="M16791 4016 c-10 -12 -6 -23 18 -56 55 -76 76 -159 75 -300 0 -93 -5
-137 -18 -170 -16 -42 -16 -45 0 -57 24 -17 31 -10 49 50 48 161 19 390 -65
506 -33 45 -41 48 -59 27z"/>
<path d="M147 3753 c-14 -17 -13 -20 9 -48 36 -44 32 -100 -13 -199 -57 -127
-48 -185 37 -243 40 -28 56 -29 65 -5 4 11 0 20 -12 27 -9 6 -33 25 -51 43
-30 28 -33 36 -28 67 4 20 23 68 41 107 50 104 45 199 -14 252 -16 15 -19 15
-34 -1z"/>
<path d="M1811 3756 c-10 -12 -7 -24 14 -61 33 -56 31 -83 -19 -194 -22 -48
-36 -94 -36 -118 0 -50 32 -98 83 -127 37 -21 38 -21 52 -2 13 17 11 21 -29
46 -69 44 -73 82 -21 191 50 106 54 151 18 218 -31 60 -44 69 -62 47z"/>
<path d="M3467 3753 c-14 -17 -13 -20 9 -48 36 -44 32 -100 -13 -199 -43 -95
-48 -151 -17 -193 23 -31 80 -73 99 -73 22 0 28 34 9 45 -9 6 -31 22 -48 37
-41 35 -39 80 8 178 51 106 47 200 -13 254 -16 15 -19 15 -34 -1z"/>
<path d="M5117 3755 c-18 -13 -18 -15 7 -52 35 -51 33 -90 -10 -185 -61 -135
-56 -194 19 -249 47 -34 63 -36 77 -9 9 17 5 22 -29 40 -72 36 -78 80 -26 189
56 117 57 187 2 253 -20 24 -24 26 -40 13z"/>
<path d="M6778 3754 c-15 -15 -14 -19 8 -51 35 -52 32 -103 -12 -193 -60 -123
-50 -189 36 -247 40 -28 56 -29 65 -5 4 11 0 20 -12 27 -9 6 -33 25 -51 43
-30 28 -33 36 -28 67 4 20 23 68 41 107 50 104 45 199 -14 252 -16 14 -19 14
-33 0z"/>
<path d="M8436 3755 c-18 -13 -18 -15 4 -45 39 -54 38 -99 -5 -187 -48 -102
-55 -166 -23 -212 12 -18 41 -44 64 -57 l41 -24 11 25 c11 23 9 26 -28 45 -71
36 -77 80 -25 189 56 117 57 187 2 253 -20 25 -24 26 -41 13z"/>
<path d="M10098 3754 c-15 -15 -14 -19 8 -51 35 -52 32 -103 -12 -193 -60
-123 -50 -189 36 -247 40 -28 56 -29 65 -5 4 11 0 20 -12 27 -9 6 -33 25 -51
43 -30 28 -33 36 -28 67 4 20 23 68 41 107 50 104 45 199 -14 252 -16 14 -19
14 -33 0z"/>
<path d="M11757 3755 c-18 -13 -18 -15 7 -52 35 -51 33 -90 -10 -185 -61 -135
-56 -194 19 -249 47 -34 63 -36 77 -9 9 17 5 22 -29 40 -72 36 -78 80 -26 189
56 117 57 187 2 253 -20 24 -24 26 -40 13z"/>
<path d="M13399 3754 c-10 -12 -10 -19 -1 -32 28 -38 43 -85 37 -114 -4 -16
-22 -62 -41 -103 -44 -95 -46 -159 -8 -205 46 -54 114 -76 114 -36 0 9 -10 21
-22 27 -78 40 -86 87 -34 200 54 119 55 170 4 245 -26 39 -30 40 -49 18z"/>
<path d="M15066 3757 c-19 -14 -19 -15 3 -46 40 -56 39 -98 -8 -198 -48 -105
-52 -153 -18 -203 12 -18 39 -42 60 -54 37 -21 38 -21 52 -2 13 17 11 21 -29
46 -69 44 -73 80 -21 189 56 117 57 186 2 254 -20 25 -24 27 -41 14z"/>
<path d="M16719 3754 c-10 -12 -10 -19 -1 -32 28 -39 43 -85 36 -115 -3 -16
-22 -62 -40 -101 -44 -92 -47 -159 -8 -206 46 -54 114 -76 114 -36 0 9 -10 21
-22 27 -78 40 -86 87 -34 200 54 119 55 170 4 245 -26 39 -30 40 -49 18z"/>
<path d="M1628 3548 c-7 -24 -13 -92 -13 -153 0 -101 2 -115 29 -170 17 -34
55 -86 88 -119 56 -56 60 -58 78 -41 18 16 17 19 -39 73 -80 79 -105 135 -109
242 -2 53 3 106 12 140 16 60 14 70 -14 70 -14 0 -23 -12 -32 -42z"/>
<path d="M3291 3567 c-5 -12 -14 -57 -21 -99 -23 -143 12 -249 117 -357 53
-55 64 -62 78 -51 22 19 20 25 -35 76 -30 28 -63 73 -83 113 -29 59 -32 74
-31 151 1 47 8 106 17 132 13 41 13 47 0 52 -25 10 -33 7 -42 -17z"/>
<path d="M4924 3514 c-36 -164 1 -299 111 -408 31 -31 60 -56 64 -56 3 0 11 8
18 18 10 16 4 26 -44 73 -100 97 -135 227 -99 368 17 68 15 81 -14 81 -15 0
-22 -14 -36 -76z"/>
<path d="M6599 3563 c-5 -15 -15 -62 -21 -105 -19 -133 15 -239 106 -336 65
-69 82 -78 96 -52 9 17 4 25 -31 57 -118 107 -154 245 -105 407 12 39 12 46
-1 50 -26 10 -33 7 -44 -21z"/>
<path d="M8244 3514 c-36 -164 1 -299 111 -408 31 -31 60 -56 64 -56 3 0 11 8
18 18 10 16 4 26 -44 73 -101 98 -136 226 -99 368 17 68 15 81 -14 81 -15 0
-22 -14 -36 -76z"/>
<path d="M9919 3563 c-5 -15 -15 -62 -21 -105 -13 -88 -2 -163 34 -236 21 -44
132 -172 149 -172 4 0 13 9 19 20 9 17 4 25 -31 57 -118 107 -154 245 -105
407 12 39 12 46 -1 50 -26 10 -33 7 -44 -21z"/>
<path d="M11564 3514 c-36 -164 1 -299 111 -408 31 -31 60 -56 64 -56 3 0 11
8 18 18 10 16 4 26 -44 73 -101 98 -136 226 -99 368 17 68 15 81 -14 81 -15 0
-22 -14 -36 -76z"/>
<path d="M13218 3553 c-8 -23 -13 -83 -13 -153 0 -104 3 -120 27 -173 36 -77
142 -185 163 -167 22 19 20 24 -39 83 -79 78 -99 123 -104 232 -3 60 1 109 11
147 16 60 14 68 -14 68 -11 0 -22 -13 -31 -37z"/>
<path d="M14876 3521 c-42 -184 5 -336 136 -442 37 -30 40 -30 53 -13 12 17 8
24 -41 72 -75 74 -106 138 -112 232 -2 47 2 99 11 140 17 70 15 80 -13 80 -15
0 -22 -14 -34 -69z"/>
<path d="M16541 3557 c-18 -54 -28 -164 -20 -222 11 -81 50 -157 118 -226 51
-53 62 -60 76 -49 22 18 19 26 -25 66 -50 45 -97 117 -111 168 -15 55 -12 169
5 233 15 55 13 63 -15 63 -11 0 -22 -12 -28 -33z"/>
<path d="M1068 3203 c-16 -17 -15 -21 13 -63 50 -74 73 -168 72 -295 0 -72 -6
-127 -16 -160 -14 -42 -14 -52 -3 -64 20 -20 34 -7 50 50 50 167 12 412 -81
527 -18 22 -20 22 -35 5z"/>
<path d="M2716 3202 c-15 -18 -15 -20 0 -32 23 -20 62 -101 79 -167 22 -82 19
-253 -4 -321 -17 -51 -17 -53 0 -62 25 -14 25 -14 44 33 26 61 32 260 11 350
-17 74 -63 172 -93 200 -19 16 -21 16 -37 -1z"/>
<path d="M4368 3203 c-16 -15 -15 -19 12 -58 55 -79 74 -156 74 -295 0 -94 -4
-136 -17 -170 -16 -42 -16 -46 1 -58 14 -11 19 -10 30 5 26 37 37 101 36 228
0 107 -4 141 -23 195 -18 53 -83 170 -94 170 -1 0 -10 -7 -19 -17z"/>
<path d="M6028 3204 c-14 -14 -12 -20 17 -65 58 -85 70 -137 70 -294 0 -110
-4 -148 -17 -177 -16 -37 -16 -38 4 -49 16 -9 23 -8 29 2 37 57 50 273 25 383
-17 71 -65 173 -95 200 -15 14 -19 14 -33 0z"/>
<path d="M7688 3203 c-16 -15 -15 -19 12 -58 55 -79 74 -156 74 -295 0 -94 -4
-136 -17 -170 -16 -42 -16 -46 1 -58 14 -11 19 -10 30 5 26 37 37 101 36 228
0 107 -4 141 -23 195 -18 53 -83 170 -94 170 -1 0 -10 -7 -19 -17z"/>
<path d="M9348 3204 c-14 -14 -12 -20 17 -65 58 -85 70 -137 70 -294 0 -110
-4 -148 -17 -177 -16 -37 -16 -38 4 -49 16 -9 23 -8 29 2 37 57 50 273 25 383
-17 71 -65 173 -95 200 -15 14 -19 14 -33 0z"/>
<path d="M11008 3203 c-16 -15 -15 -19 12 -58 55 -79 74 -156 74 -295 0 -94
-4 -136 -17 -170 -16 -42 -16 -46 1 -58 14 -11 19 -10 30 5 26 37 37 101 36
228 0 107 -4 141 -23 195 -18 53 -83 170 -94 170 -1 0 -10 -7 -19 -17z"/>
<path d="M12652 3208 c-17 -17 -15 -25 12 -61 78 -102 106 -325 59 -466 -13
-38 -13 -45 0 -58 22 -22 32 -11 52 59 22 76 25 237 6 318 -28 117 -101 236
-129 208z"/>
<path d="M14319 3205 c-15 -16 -14 -21 18 -73 54 -90 68 -150 67 -287 0 -85
-5 -133 -17 -165 -15 -40 -15 -46 -1 -60 14 -13 17 -13 30 5 22 30 34 83 41
180 9 145 -31 304 -99 388 -21 26 -24 27 -39 12z"/>
<path d="M15972 3208 c-17 -17 -15 -25 13 -63 59 -77 92 -241 76 -373 -6 -43
-16 -91 -22 -106 -11 -22 -10 -29 3 -43 23 -22 33 -11 53 59 22 76 24 226 6
313 -25 117 -100 242 -129 213z"/>
<path d="M17639 3205 c-15 -16 -14 -21 18 -73 54 -90 68 -150 67 -287 0 -85
-5 -133 -17 -165 -15 -40 -15 -46 -1 -60 14 -13 17 -13 30 5 22 30 34 83 41
180 9 145 -31 304 -99 388 -21 26 -24 27 -39 12z"/>
<path d="M989 2944 c-16 -15 -15 -19 7 -51 37 -55 35 -102 -7 -184 -15 -31
-33 -77 -40 -102 -10 -41 -9 -51 10 -89 19 -39 61 -77 102 -93 11 -4 18 1 22
17 4 14 2 25 -6 27 -6 2 -29 21 -50 42 -45 44 -44 59 4 163 53 115 54 192 1
255 -25 30 -28 31 -43 15z"/>
<path d="M2648 2944 c-16 -16 -16 -19 5 -48 34 -48 30 -114 -16 -212 -56 -124
-47 -179 41 -235 43 -27 48 -28 59 -12 18 23 16 31 -6 38 -36 11 -81 61 -81
90 0 15 16 64 36 108 56 123 56 192 1 260 -21 26 -23 27 -39 11z"/>
<path d="M5957 2942 c-16 -18 -16 -20 5 -48 36 -45 31 -111 -15 -210 -20 -45
-37 -97 -37 -116 0 -45 35 -97 85 -125 37 -21 41 -21 53 -6 18 24 15 29 -18
43 -39 16 -70 55 -70 88 0 13 16 61 36 105 56 123 56 192 1 260 -23 27 -24 27
-40 9z"/>
<path d="M9277 2942 c-16 -18 -16 -20 5 -48 36 -45 31 -111 -15 -210 -56 -124
-47 -179 41 -235 43 -27 48 -28 59 -12 18 24 17 29 -17 43 -39 16 -70 55 -70
88 0 13 16 61 36 105 56 123 56 192 1 260 -23 27 -24 27 -40 9z"/>
<path d="M12578 2943 c-15 -16 -14 -21 8 -53 34 -49 31 -97 -12 -191 -19 -44
-38 -95 -41 -113 -8 -49 22 -103 76 -138 43 -26 47 -27 58 -11 18 24 17 26
-23 48 -45 24 -68 66 -58 107 3 17 22 63 40 102 45 94 46 153 4 219 -16 26
-31 47 -33 47 -2 0 -11 -8 -19 -17z"/>
<path d="M15898 2943 c-15 -16 -14 -21 8 -53 34 -49 31 -97 -12 -191 -19 -44
-38 -95 -41 -113 -8 -49 22 -103 76 -138 43 -26 47 -27 58 -11 18 24 17 26
-23 48 -45 24 -68 66 -58 107 3 17 22 63 40 102 45 94 46 153 4 219 -16 26
-31 47 -33 47 -2 0 -11 -8 -19 -17z"/>
<path d="M4290 2940 c-12 -8 -13 -13 -2 -27 28 -39 44 -88 38 -116 -3 -16 -22
-64 -41 -107 -24 -54 -35 -92 -35 -125 0 -44 4 -52 44 -90 53 -51 83 -62 92
-32 5 15 1 24 -11 32 -86 50 -93 87 -40 204 44 99 52 146 31 196 -16 38 -43
75 -55 75 -3 0 -13 -5 -21 -10z"/>
<path d="M7610 2940 c-12 -8 -13 -13 -2 -27 28 -39 44 -88 38 -116 -3 -16 -22
-64 -41 -107 -24 -54 -35 -92 -35 -125 0 -44 4 -52 44 -90 53 -51 83 -62 92
-32 5 15 1 24 -11 32 -10 5 -31 21 -46 33 -40 33 -39 80 6 173 44 92 52 143
30 194 -15 39 -42 75 -54 75 -3 0 -13 -5 -21 -10z"/>
<path d="M10930 2940 c-12 -8 -13 -13 -2 -27 28 -39 44 -88 38 -116 -3 -16
-22 -64 -41 -107 -24 -54 -35 -92 -35 -125 0 -44 4 -52 44 -90 53 -51 83 -62
92 -32 5 15 1 24 -11 32 -86 50 -93 87 -40 204 44 99 52 146 31 196 -16 38
-43 75 -55 75 -3 0 -13 -5 -21 -10z"/>
<path d="M14234 2936 c-3 -8 5 -29 18 -46 33 -45 29 -98 -15 -196 -60 -133
-48 -195 49 -255 30 -18 38 -19 45 -8 14 23 10 38 -13 50 -76 39 -87 92 -38
188 42 84 54 139 41 188 -19 70 -72 118 -87 79z"/>
<path d="M17554 2935 c-3 -8 5 -29 18 -47 33 -46 29 -97 -15 -194 -60 -133
-48 -195 49 -255 30 -18 38 -19 45 -8 14 23 10 38 -13 50 -76 39 -87 92 -38
188 42 84 54 139 41 188 -19 71 -72 118 -87 78z"/>
<path d="M817 2773 c-15 -27 -31 -130 -30 -198 1 -115 27 -179 114 -269 64
-67 69 -70 85 -54 16 16 14 21 -48 86 -81 86 -103 142 -101 252 1 41 8 98 16
127 12 45 12 53 0 58 -20 7 -31 6 -36 -2z"/>
<path d="M2459 2723 c-8 -32 -14 -98 -14 -148 0 -77 4 -98 28 -149 31 -68 83
-135 129 -167 30 -21 31 -22 44 -4 12 16 8 24 -42 71 -100 96 -134 222 -100
368 13 56 14 71 4 78 -26 16 -35 7 -49 -49z"/>
<path d="M4108 2738 c-7 -24 -13 -92 -13 -153 0 -98 3 -116 27 -167 26 -56
104 -150 141 -170 14 -7 22 -5 32 8 11 16 6 23 -39 65 -29 26 -65 71 -81 101
-25 45 -30 66 -33 143 -2 58 2 109 12 145 11 41 11 57 3 62 -24 16 -37 7 -49
-34z"/>
<path d="M5770 2733 c-22 -90 -24 -188 -5 -259 20 -73 81 -164 140 -210 35
-27 38 -27 51 -10 11 16 7 24 -40 70 -104 101 -137 220 -102 370 13 56 14 71
4 78 -26 16 -36 7 -48 -39z"/>
<path d="M7428 2738 c-7 -24 -13 -92 -13 -153 0 -104 2 -114 32 -175 19 -38
55 -88 87 -120 53 -51 57 -53 73 -37 16 15 13 20 -39 75 -82 85 -101 129 -105
237 -3 59 1 109 11 145 11 41 11 57 3 62 -24 16 -37 7 -49 -34z"/>
<path d="M9086 2711 c-42 -182 11 -349 140 -447 34 -27 37 -27 50 -10 11 16 7
24 -40 70 -104 101 -137 220 -102 370 13 56 14 71 4 78 -27 17 -37 6 -52 -61z"/>
<path d="M10748 2738 c-7 -24 -13 -92 -13 -153 0 -98 3 -116 27 -167 26 -56
104 -150 141 -170 14 -7 22 -5 32 8 11 16 6 23 -39 65 -29 26 -65 71 -81 101
-25 45 -30 66 -33 143 -2 58 2 109 12 145 11 41 11 57 3 62 -24 16 -37 7 -49
-34z"/>
<path d="M12399 2754 c-5 -15 -15 -61 -21 -102 -23 -153 29 -287 150 -387 31
-26 35 -27 50 -12 14 15 11 22 -46 81 -103 107 -128 196 -98 345 9 45 14 86
11 91 -12 19 -36 10 -46 -16z"/>
<path d="M14058 2738 c-7 -25 -13 -93 -13 -158 0 -111 1 -117 33 -176 18 -33
58 -85 88 -114 51 -51 55 -53 71 -37 16 15 13 20 -39 75 -82 85 -101 129 -105
237 -3 59 1 109 11 145 11 41 11 57 3 62 -24 16 -37 7 -49 -34z"/>
<path d="M15719 2753 c-5 -14 -15 -59 -21 -100 -24 -151 30 -289 150 -388 31
-26 35 -27 50 -11 15 15 12 20 -41 73 -104 103 -133 203 -103 352 9 45 14 86
11 91 -12 19 -36 10 -46 -17z"/>
<path d="M17378 2738 c-7 -25 -13 -93 -13 -158 0 -111 1 -117 33 -176 18 -33
58 -85 88 -114 51 -51 55 -53 71 -37 16 15 13 20 -39 75 -82 85 -101 129 -105
237 -3 59 1 109 11 145 11 41 11 57 3 62 -24 16 -37 7 -49 -34z"/>
<path d="M221 2356 c-9 -11 -6 -23 18 -57 77 -115 99 -302 55 -457 -14 -51
-14 -55 3 -68 16 -12 20 -9 36 26 61 135 35 402 -51 524 -31 45 -44 52 -61 32z"/>
<path d="M1880 2355 c-11 -13 -9 -19 8 -38 32 -34 70 -125 83 -201 14 -84 7
-225 -15 -285 -17 -45 -11 -60 21 -61 20 0 44 92 50 190 9 152 -33 315 -100
388 -24 26 -30 27 -47 7z"/>
<path d="M3541 2356 c-9 -11 -6 -23 18 -57 77 -115 101 -318 54 -462 -14 -45
-14 -49 3 -62 17 -13 21 -11 37 25 61 135 35 402 -51 524 -31 45 -44 52 -61
32z"/>
<path d="M5183 2359 c-9 -9 -4 -23 19 -56 59 -86 73 -142 73 -298 0 -109 -4
-148 -17 -177 -14 -32 -14 -38 -2 -49 45 -37 69 48 68 236 -1 155 -15 213 -75
307 -32 49 -46 57 -66 37z"/>
<path d="M6851 2356 c-9 -10 -3 -27 24 -72 74 -122 92 -288 49 -442 -14 -50
-14 -55 3 -68 16 -12 20 -9 36 26 61 136 35 397 -53 525 -33 48 -41 53 -59 31z"/>
<path d="M8503 2359 c-9 -9 -4 -23 18 -56 59 -85 73 -143 73 -298 1 -110 -3
-148 -16 -177 -14 -32 -14 -38 -2 -49 45 -37 69 48 68 236 -1 155 -15 213 -75
307 -32 49 -46 57 -66 37z"/>
<path d="M10171 2356 c-9 -10 -3 -27 24 -72 74 -122 92 -288 49 -442 -14 -50
-14 -55 3 -68 16 -12 20 -9 36 26 61 136 35 397 -53 525 -33 48 -41 53 -59 31z"/>
<path d="M11824 2355 c-4 -8 7 -36 24 -62 54 -85 67 -143 67 -293 0 -104 -4
-144 -17 -172 -14 -32 -14 -38 -2 -49 45 -37 69 48 68 236 -1 155 -15 213 -75
307 -31 48 -55 60 -65 33z"/>
<path d="M13471 2356 c-10 -12 -6 -23 19 -57 70 -97 99 -299 62 -439 -18 -68
-18 -76 -3 -86 22 -17 28 -10 48 54 27 87 24 275 -5 368 -21 69 -76 164 -98
171 -6 2 -16 -3 -23 -11z"/>
<path d="M15133 2359 c-9 -9 -5 -22 18 -56 58 -84 72 -143 73 -298 1 -110 -3
-148 -16 -176 -12 -27 -13 -40 -5 -48 39 -39 68 35 75 189 6 140 -18 253 -72
340 -36 57 -53 69 -73 49z"/>
<path d="M16791 2356 c-10 -12 -6 -23 19 -57 70 -97 99 -299 62 -439 -18 -68
-18 -76 -3 -86 22 -17 28 -10 48 54 27 87 24 275 -5 368 -21 69 -76 164 -98
171 -6 2 -16 -3 -23 -11z"/>
<path d="M150 2095 c-10 -12 -8 -21 9 -48 31 -51 27 -105 -14 -193 -44 -97
-50 -131 -32 -177 15 -35 87 -97 113 -97 15 0 31 43 18 47 -32 11 -76 47 -84
69 -12 32 -6 59 37 150 42 93 45 157 8 221 -28 47 -36 51 -55 28z"/>
<path d="M1810 2095 c-10 -11 -7 -21 12 -47 33 -48 29 -105 -16 -200 -40 -84
-46 -140 -21 -188 17 -32 98 -85 115 -75 17 10 11 43 -9 50 -10 3 -31 17 -45
30 -36 34 -34 76 11 171 48 103 51 171 10 232 -30 46 -38 50 -57 27z"/>
<path d="M3469 2097 c-15 -11 -14 -15 7 -47 35 -51 32 -109 -11 -198 -44 -92
-51 -129 -32 -175 15 -35 87 -97 113 -97 15 0 31 43 18 47 -32 11 -76 47 -84
69 -12 32 -6 59 37 150 42 93 45 157 8 221 -28 47 -32 49 -56 30z"/>
<path d="M5111 2096 c-9 -11 -6 -22 14 -51 35 -53 32 -93 -16 -198 -35 -75
-41 -96 -36 -134 5 -48 39 -93 91 -120 27 -14 31 -14 43 3 12 17 12 20 -4 29
-41 23 -83 74 -83 100 0 15 17 64 37 109 55 123 54 191 -5 259 -18 21 -26 21
-41 3z"/>
<path d="M6778 2096 c-16 -12 -16 -15 7 -46 36 -49 33 -103 -10 -196 -44 -97
-50 -131 -32 -177 15 -35 87 -97 113 -97 16 0 31 43 16 48 -34 11 -77 51 -85
78 -8 27 -3 45 29 115 52 115 57 187 17 247 -30 47 -31 47 -55 28z"/>
<path d="M8431 2096 c-9 -11 -6 -22 14 -51 35 -53 32 -93 -16 -198 -35 -75
-41 -96 -36 -134 5 -48 39 -93 91 -120 27 -14 31 -14 43 3 12 17 12 20 -4 29
-41 23 -83 74 -83 100 0 15 17 64 37 109 55 123 54 191 -5 259 -18 21 -26 21
-41 3z"/>
<path d="M10098 2096 c-16 -12 -16 -15 7 -46 36 -49 33 -103 -10 -196 -44 -97
-50 -131 -32 -177 15 -35 87 -97 113 -97 16 0 31 43 16 48 -34 11 -77 51 -85
78 -8 27 -3 45 29 115 52 115 57 187 17 247 -30 47 -31 47 -55 28z"/>
<path d="M11751 2096 c-9 -11 -6 -22 14 -51 35 -53 32 -93 -16 -198 -35 -75
-41 -96 -36 -134 5 -48 39 -93 91 -120 27 -14 31 -14 43 3 12 17 12 20 -4 29
-41 23 -83 74 -83 100 0 15 17 64 37 109 55 123 54 191 -5 259 -18 21 -26 21
-41 3z"/>
<path d="M13402 2097 c-9 -10 -5 -25 14 -63 30 -58 28 -76 -21 -184 -57 -125
-45 -196 41 -246 38 -22 48 -25 55 -13 14 22 11 37 -10 44 -10 3 -31 17 -45
30 -36 33 -34 80 9 174 50 111 52 144 18 211 -30 58 -43 69 -61 47z"/>
<path d="M15061 2096 c-9 -11 -6 -22 15 -52 34 -50 29 -92 -21 -203 -31 -69
-36 -92 -32 -128 5 -48 39 -93 91 -120 27 -14 31 -14 43 3 12 16 12 20 -3 29
-9 6 -32 23 -51 39 -43 37 -43 67 3 168 42 94 51 142 35 191 -13 38 -47 87
-61 87 -4 0 -13 -6 -19 -14z"/>
<path d="M16721 2096 c-9 -11 -6 -24 14 -62 31 -58 29 -75 -20 -184 -57 -126
-43 -205 46 -250 34 -18 43 -19 50 -8 15 23 10 35 -21 48 -69 29 -77 86 -25
199 50 111 53 144 18 210 -31 59 -44 69 -62 47z"/>
<path d="M1629 1893 c-8 -28 -14 -94 -14 -158 0 -101 2 -114 29 -167 37 -73
144 -182 163 -166 22 18 15 31 -38 83 -74 72 -101 132 -107 230 -3 55 1 101
12 144 9 35 15 65 14 66 -2 1 -13 5 -24 9 -19 6 -23 0 -35 -41z"/>
<path d="M3286 1887 c-46 -164 -20 -299 79 -414 20 -23 49 -52 65 -63 l29 -21
11 21 c9 18 4 27 -45 74 -98 97 -130 206 -101 346 20 95 20 97 -4 103 -17 4
-22 -3 -34 -46z"/>
<path d="M4939 1912 c-38 -100 -37 -247 4 -335 26 -58 129 -177 152 -177 7 0
18 6 24 14 10 11 1 24 -44 66 -103 98 -136 222 -101 373 9 38 16 70 16 71 0 2
-9 6 -21 9 -15 4 -23 -1 -30 -21z"/>
<path d="M6606 1931 c-3 -4 -12 -44 -21 -90 -33 -159 3 -281 115 -393 60 -59
62 -60 76 -40 13 19 10 24 -41 76 -99 98 -130 207 -101 346 9 41 16 80 16 86
0 13 -38 26 -44 15z"/>
<path d="M8259 1912 c-38 -100 -37 -247 4 -335 26 -58 129 -177 152 -177 7 0
18 6 24 14 10 11 1 24 -44 66 -103 98 -136 222 -101 373 9 38 16 70 16 71 0 2
-9 6 -21 9 -15 4 -23 -1 -30 -21z"/>
<path d="M9926 1931 c-3 -4 -12 -44 -21 -90 -33 -159 3 -281 115 -393 60 -59
62 -60 76 -40 13 19 10 24 -41 76 -99 98 -130 207 -101 346 9 41 16 80 16 86
0 13 -38 26 -44 15z"/>
<path d="M11579 1912 c-38 -100 -37 -247 4 -335 26 -58 129 -177 152 -177 7 0
18 6 24 14 10 11 1 24 -44 66 -103 98 -136 222 -101 373 9 38 16 70 16 71 0 2
-9 6 -21 9 -15 4 -23 -1 -30 -21z"/>
<path d="M13219 1898 c-33 -118 -26 -248 16 -335 36 -73 141 -179 161 -162 22
18 17 28 -40 85 -79 79 -100 129 -104 239 -2 55 2 110 11 143 13 49 13 53 -4
62 -26 15 -27 14 -40 -32z"/>
<path d="M14875 1864 c-37 -165 -5 -293 101 -404 59 -62 72 -68 92 -48 9 9 -2
26 -49 74 -33 35 -69 85 -81 111 -29 65 -34 169 -14 257 9 38 15 70 14 71 -2
1 -13 6 -25 9 -20 6 -23 1 -38 -70z"/>
<path d="M16540 1898 c-6 -24 -13 -49 -16 -57 -13 -39 -4 -190 14 -239 25 -64
78 -137 131 -180 l40 -32 12 22 c10 19 7 25 -28 57 -53 47 -89 97 -108 152
-20 55 -21 176 -2 247 13 49 13 53 -4 62 -26 15 -27 14 -39 -32z"/>
<path d="M1061 1537 c-9 -11 -4 -27 24 -73 39 -65 50 -98 66 -199 12 -76 5
-181 -17 -253 -12 -42 -12 -48 3 -59 23 -18 31 -9 50 55 26 87 24 266 -5 357
-22 71 -78 176 -98 182 -6 2 -16 -3 -23 -10z"/>
<path d="M2722 1538 c-17 -17 -15 -25 13 -62 45 -59 67 -140 72 -266 4 -88 1
-131 -11 -180 -15 -58 -15 -65 -1 -79 14 -14 17 -14 25 -1 26 40 35 102 34
240 -1 162 -16 223 -77 312 -35 52 -37 54 -55 36z"/>
<path d="M4361 1536 c-10 -12 -6 -23 19 -57 52 -73 75 -165 75 -304 -1 -87 -5
-132 -18 -165 -16 -42 -16 -46 1 -58 39 -30 66 62 67 228 0 144 -22 233 -77
316 -37 54 -50 61 -67 40z"/>
<path d="M6026 1532 c-15 -18 -15 -20 0 -33 25 -20 72 -124 85 -188 15 -73 7
-265 -13 -312 -15 -33 -14 -36 3 -47 26 -17 25 -17 44 36 11 29 19 90 22 163
4 96 2 130 -16 199 -21 84 -53 151 -88 183 -19 16 -21 16 -37 -1z"/>
<path d="M7681 1536 c-10 -12 -6 -23 19 -57 52 -73 75 -165 75 -304 -1 -87 -5
-132 -18 -165 -15 -42 -15 -46 0 -57 22 -17 29 -10 50 50 28 80 26 278 -4 373
-22 70 -77 164 -99 171 -6 2 -16 -3 -23 -11z"/>
<path d="M9346 1532 c-15 -18 -15 -20 0 -33 25 -20 72 -124 85 -188 15 -73 7
-265 -13 -312 -15 -33 -14 -36 3 -47 26 -17 25 -17 44 36 11 29 19 90 22 163
4 96 2 130 -16 199 -21 84 -53 151 -88 183 -19 16 -21 16 -37 -1z"/>
<path d="M11001 1536 c-10 -12 -6 -23 19 -57 52 -73 75 -165 75 -304 -1 -87
-5 -132 -18 -165 -15 -42 -15 -46 0 -57 22 -17 29 -10 50 50 28 80 26 278 -4
373 -22 70 -77 164 -99 171 -6 2 -16 -3 -23 -11z"/>
<path d="M12650 1535 c-10 -13 -8 -22 14 -54 79 -114 103 -301 59 -461 -14
-50 -13 -55 3 -67 24 -17 29 -11 47 54 24 90 29 162 17 257 -12 100 -37 173
-81 240 -34 50 -40 54 -59 31z"/>
<path d="M14311 1536 c-10 -12 -6 -23 19 -57 52 -73 75 -165 74 -304 0 -86 -5
-133 -17 -165 -16 -42 -16 -46 1 -58 24 -18 37 4 58 96 32 145 2 344 -69 448
-36 54 -49 61 -66 40z"/>
<path d="M15970 1535 c-10 -13 -8 -22 14 -54 79 -114 103 -301 59 -461 -14
-51 -14 -55 4 -68 16 -12 20 -9 35 26 65 148 34 411 -65 544 -24 32 -30 34
-47 13z"/>
<path d="M17631 1536 c-10 -12 -6 -23 19 -57 52 -73 75 -165 74 -304 0 -86 -5
-133 -17 -165 -15 -42 -15 -46 0 -57 22 -17 29 -10 50 50 27 79 25 278 -5 373
-21 69 -76 164 -98 171 -6 2 -16 -3 -23 -11z"/>
<path d="M988 1273 c-15 -15 -15 -19 9 -49 36 -48 33 -95 -13 -196 -44 -97
-49 -153 -18 -195 23 -31 80 -73 99 -73 22 0 28 34 9 45 -9 6 -31 22 -48 36
-41 36 -39 73 7 175 53 117 50 202 -10 256 -18 16 -20 16 -35 1z"/>
<path d="M2647 1275 c-18 -13 -18 -15 7 -52 35 -51 33 -90 -10 -185 -45 -100
-52 -144 -29 -191 16 -35 81 -87 109 -87 7 0 16 9 19 20 4 15 -2 24 -24 35
-41 21 -69 55 -69 82 0 13 18 65 40 117 50 117 52 163 10 229 -16 26 -31 47
-32 47 -2 0 -11 -7 -21 -15z"/>
<path d="M4291 1276 c-9 -11 -6 -24 14 -62 32 -60 30 -84 -19 -193 -41 -89
-45 -141 -17 -187 22 -37 85 -78 106 -70 25 9 17 33 -20 56 -67 41 -71 84 -20
191 50 106 54 151 18 218 -31 59 -44 69 -62 47z"/>
<path d="M5957 1275 c-18 -13 -18 -15 7 -52 35 -51 33 -90 -10 -185 -45 -100
-52 -144 -29 -191 17 -37 79 -87 107 -87 9 0 18 9 21 20 4 15 -2 24 -24 35
-43 23 -69 55 -69 87 0 15 18 68 40 117 46 101 50 145 19 207 -27 56 -39 66
-62 49z"/>
<path d="M7611 1276 c-9 -11 -6 -24 14 -62 31 -59 29 -82 -21 -194 -40 -92
-45 -154 -14 -193 27 -34 87 -70 105 -63 25 9 17 33 -20 56 -67 41 -71 83 -20
193 50 109 54 149 18 216 -31 59 -44 69 -62 47z"/>
<path d="M9277 1275 c-18 -13 -18 -15 7 -52 35 -51 33 -90 -10 -185 -62 -138
-56 -198 27 -252 51 -34 59 -35 70 -9 7 19 4 25 -21 38 -44 23 -70 55 -70 87
0 16 16 64 36 106 56 118 56 188 1 254 -20 24 -24 26 -40 13z"/>
<path d="M10931 1276 c-9 -11 -6 -24 14 -62 32 -59 29 -85 -21 -195 -56 -126
-42 -193 54 -247 l41 -22 7 22 c5 17 1 26 -17 38 -80 51 -87 91 -34 201 50
106 54 151 18 218 -31 59 -44 69 -62 47z"/>
<path d="M12578 1274 c-15 -15 -14 -19 8 -51 35 -52 32 -103 -12 -193 -60
-123 -50 -189 36 -247 40 -28 56 -29 65 -5 4 11 0 20 -12 27 -38 21 -83 74
-83 96 0 13 18 62 40 109 29 62 40 98 40 133 0 52 -20 105 -49 131 -16 14 -19
14 -33 0z"/>
<path d="M14241 1276 c-9 -11 -6 -24 14 -62 32 -59 29 -86 -21 -193 -44 -95
-46 -155 -8 -201 46 -54 114 -76 114 -36 0 9 -10 21 -22 27 -79 40 -86 87 -33
202 50 109 54 149 18 216 -31 59 -44 69 -62 47z"/>
<path d="M15898 1274 c-15 -15 -14 -19 8 -51 35 -52 32 -103 -12 -193 -60
-123 -50 -189 36 -247 40 -28 56 -29 65 -5 4 11 0 20 -12 27 -38 21 -83 74
-83 96 0 13 18 62 40 109 29 62 40 98 40 133 0 52 -20 105 -49 131 -16 14 -19
14 -33 0z"/>
<path d="M17560 1274 c-11 -12 -11 -19 -2 -32 50 -69 49 -104 -4 -219 -44 -93
-46 -157 -8 -203 46 -54 114 -76 114 -36 0 9 -10 21 -22 27 -79 40 -86 87 -33
202 50 109 54 149 18 216 -31 61 -44 69 -63 45z"/>
<path d="M815 1098 c-2 -7 -8 -31 -14 -53 -42 -173 -11 -294 106 -414 53 -55
64 -62 78 -51 22 19 20 25 -35 76 -30 28 -63 73 -82 112 -29 59 -32 73 -31
151 0 47 8 107 16 133 8 26 12 49 9 52 -10 11 -43 6 -47 -6z"/>
<path d="M2458 1058 c-7 -29 -13 -96 -13 -148 0 -87 3 -101 32 -160 20 -40 55
-88 92 -125 58 -57 61 -58 75 -40 13 18 10 25 -45 82 -33 34 -69 83 -81 110
-28 64 -34 161 -14 246 17 74 15 87 -14 87 -13 0 -21 -13 -32 -52z"/>
<path d="M4108 1068 c-7 -24 -13 -92 -13 -153 0 -101 2 -115 29 -170 17 -34
55 -86 88 -119 56 -56 60 -58 78 -41 18 16 17 19 -39 73 -80 79 -105 135 -109
242 -2 53 3 106 12 140 16 60 14 70 -14 70 -14 0 -23 -12 -32 -42z"/>
<path d="M5764 1034 c-39 -177 6 -317 139 -434 36 -31 38 -32 52 -14 12 17 8
25 -46 81 -33 34 -69 83 -81 110 -28 64 -34 161 -14 246 17 74 15 87 -14 87
-15 0 -22 -14 -36 -76z"/>
<path d="M7428 1073 c-8 -23 -13 -83 -13 -153 0 -104 3 -120 27 -173 36 -77
142 -185 163 -167 8 7 15 16 15 20 0 4 -27 35 -59 68 -74 76 -101 141 -101
245 0 40 6 97 14 127 16 60 14 70 -14 70 -12 0 -23 -12 -32 -37z"/>
<path d="M9084 1034 c-39 -177 11 -329 144 -439 32 -27 33 -27 47 -9 12 17 8
25 -46 81 -33 34 -69 83 -81 110 -28 64 -34 161 -14 246 17 74 15 87 -14 87
-15 0 -22 -14 -36 -76z"/>
<path d="M10748 1068 c-7 -24 -13 -92 -13 -153 0 -101 2 -115 29 -170 17 -34
55 -86 88 -119 56 -56 60 -58 78 -41 18 16 17 19 -39 73 -80 79 -105 135 -109
242 -2 53 3 106 12 140 16 60 14 70 -14 70 -14 0 -23 -12 -32 -42z"/>
<path d="M12400 1086 c-19 -50 -32 -159 -26 -212 11 -98 42 -160 117 -238 66
-68 70 -70 84 -51 14 18 12 23 -39 75 -98 100 -128 190 -106 318 18 110 18
126 -2 130 -12 2 -21 -5 -28 -22z"/>
<path d="M14058 1073 c-8 -23 -13 -83 -13 -153 0 -104 3 -120 27 -173 36 -77
142 -185 163 -167 8 7 15 16 15 20 0 4 -27 35 -59 68 -75 77 -101 141 -101
250 0 42 6 100 14 129 15 55 13 63 -15 63 -11 0 -22 -13 -31 -37z"/>
<path d="M15720 1085 c-19 -49 -32 -159 -26 -211 11 -98 42 -160 117 -238 66
-67 70 -70 84 -52 13 18 10 24 -50 87 -53 56 -68 80 -84 135 -25 79 -26 127
-6 213 9 36 13 71 11 78 -9 22 -36 15 -46 -12z"/>
<path d="M17378 1073 c-8 -23 -13 -83 -13 -153 0 -104 3 -120 27 -173 36 -77
142 -185 163 -167 8 7 15 16 15 20 0 4 -27 35 -59 68 -75 77 -101 141 -101
250 0 42 6 100 14 129 15 55 13 63 -15 63 -11 0 -22 -13 -31 -37z"/>
<path d="M226 711 c-17 -18 -16 -21 14 -62 50 -70 74 -165 73 -294 0 -72 -6
-127 -16 -159 -16 -49 -11 -76 15 -76 16 0 38 68 49 152 20 147 -14 312 -84
412 -33 45 -34 46 -51 27z"/>
<path d="M1888 714 c-16 -16 -15 -20 12 -59 56 -81 74 -155 74 -300 0 -96 -5
-141 -17 -172 -16 -42 -15 -43 5 -54 26 -14 33 -4 53 83 38 169 0 383 -87 491
-22 26 -24 27 -40 11z"/>
<path d="M3546 715 c-21 -21 -21 -18 14 -67 50 -69 74 -165 73 -293 0 -72 -6
-127 -16 -159 -16 -49 -11 -76 15 -76 16 0 38 68 49 152 20 148 -14 312 -85
412 -31 44 -35 46 -50 31z"/>
<path d="M5188 714 c-14 -14 -12 -20 18 -66 55 -81 69 -143 69 -298 0 -104 -4
-143 -17 -172 -16 -37 -16 -38 4 -49 16 -9 23 -8 29 2 36 57 50 274 25 383
-17 71 -65 173 -95 200 -15 14 -19 14 -33 0z"/>
<path d="M6850 714 c-11 -12 -11 -19 -2 -32 72 -103 96 -185 95 -332 -1 -66
-7 -123 -17 -155 -14 -45 -14 -51 0 -65 14 -13 17 -13 29 4 40 54 52 280 21
396 -20 73 -58 149 -91 180 -20 19 -23 19 -35 4z"/>
<path d="M8508 714 c-14 -14 -12 -20 18 -66 55 -81 69 -143 69 -298 0 -104 -4
-143 -17 -172 -16 -37 -16 -38 4 -49 16 -9 23 -8 29 2 36 57 50 274 25 383
-17 71 -65 173 -95 200 -15 14 -19 14 -33 0z"/>
<path d="M10170 714 c-11 -12 -11 -19 -2 -32 72 -103 96 -185 95 -332 -1 -66
-7 -123 -17 -155 -14 -45 -14 -51 0 -65 14 -13 17 -13 29 4 40 54 52 278 21
396 -20 73 -58 149 -91 180 -20 19 -23 19 -35 4z"/>
<path d="M11828 714 c-14 -14 -12 -20 18 -66 55 -81 69 -143 69 -298 0 -104
-4 -143 -17 -172 -16 -37 -16 -38 4 -49 16 -9 23 -8 29 2 36 57 50 274 25 383
-17 71 -65 173 -95 200 -15 14 -19 14 -33 0z"/>
<path d="M13477 712 c-16 -18 -16 -20 3 -45 82 -104 114 -337 66 -478 -13 -37
-13 -46 -2 -58 20 -19 32 -8 51 47 53 153 13 413 -82 530 -18 23 -19 23 -36 4z"/>
<path d="M15138 714 c-14 -14 -12 -21 18 -66 55 -81 69 -143 69 -298 0 -104
-4 -143 -17 -172 -16 -37 -16 -38 4 -49 16 -9 23 -8 29 2 25 39 34 103 33 234
-1 150 -14 206 -68 300 -35 58 -48 68 -68 49z"/>
<path d="M16797 712 c-16 -18 -16 -20 3 -45 82 -104 114 -337 66 -478 -13 -37
-13 -46 -2 -58 39 -38 71 64 70 224 0 153 -32 266 -102 353 -18 23 -18 23 -35
4z"/>
<path d="M148 454 c-15 -15 -14 -19 8 -51 35 -52 32 -104 -13 -199 -26 -55
-37 -91 -37 -125 0 -58 16 -79 60 -79 34 0 34 0 14 20 -35 35 -34 61 9 162 47
109 52 167 22 227 -27 53 -43 64 -63 45z"/>
<path d="M5118 454 c-16 -16 -15 -20 9 -61 32 -55 28 -91 -21 -201 -38 -83
-44 -124 -24 -167 9 -20 18 -25 45 -25 l34 0 -20 26 c-29 37 -26 64 16 158 56
124 55 186 -5 264 -16 21 -18 21 -34 6z"/>
<path d="M6778 453 c-15 -16 -14 -21 8 -53 34 -49 31 -97 -13 -194 -39 -87
-49 -160 -24 -189 8 -10 28 -17 50 -17 27 1 32 3 20 10 -9 5 -22 23 -29 39
-14 34 -6 66 42 166 39 83 38 145 -2 208 -16 26 -31 47 -33 47 -2 0 -11 -8
-19 -17z"/>
<path d="M8438 453 c-15 -17 -15 -21 8 -58 33 -55 30 -82 -16 -191 -42 -98
-48 -136 -28 -179 9 -20 18 -25 45 -25 l34 0 -20 26 c-29 37 -26 64 16 158 56
124 55 186 -5 264 -17 22 -19 22 -34 5z"/>
<path d="M10098 454 c-15 -15 -14 -19 8 -51 34 -51 31 -100 -13 -197 -39 -87
-49 -160 -24 -189 8 -10 28 -17 50 -17 27 1 32 3 20 10 -9 5 -22 23 -29 39
-14 34 -6 66 42 166 34 72 37 138 9 194 -27 53 -43 64 -63 45z"/>
<path d="M11758 454 c-16 -16 -15 -20 9 -61 32 -55 28 -91 -21 -201 -38 -83
-44 -124 -24 -167 9 -20 18 -25 45 -25 l34 0 -20 26 c-29 37 -26 64 16 158 56
124 55 186 -5 264 -16 21 -18 21 -34 6z"/>
<path d="M15067 453 c-14 -17 -14 -21 9 -58 32 -54 30 -83 -12 -177 -42 -93
-52 -146 -34 -188 10 -25 18 -30 47 -30 l34 0 -22 29 c-27 37 -23 71 25 176
45 100 46 142 6 213 -17 28 -32 52 -34 52 -1 0 -10 -8 -19 -17z"/>
<path d="M1810 446 c-9 -12 -7 -21 12 -46 34 -47 30 -107 -16 -200 -57 -118
-49 -200 21 -200 l36 0 -21 23 c-31 33 -28 77 14 168 42 95 50 135 35 182 -13
38 -47 87 -61 87 -4 0 -13 -6 -20 -14z"/>
<path d="M3463 449 c-8 -8 -5 -20 13 -46 34 -50 32 -108 -6 -182 -45 -90 -55
-140 -36 -184 13 -33 19 -37 50 -37 36 0 36 0 16 20 -35 35 -34 61 9 162 49
113 53 171 18 233 -24 42 -45 53 -64 34z"/>
<path d="M13400 450 c-13 -8 -13 -12 -1 -32 39 -62 43 -78 32 -122 -6 -24 -24
-72 -41 -107 -31 -67 -39 -133 -20 -170 8 -13 21 -19 47 -19 l36 0 -21 23
c-32 34 -28 82 15 173 48 100 50 162 10 223 -29 44 -34 46 -57 31z"/>
<path d="M16714 445 c-3 -8 5 -29 18 -47 33 -46 29 -97 -15 -194 -57 -126 -49
-204 20 -204 l36 0 -21 23 c-32 34 -28 82 15 173 48 100 50 162 10 223 -28 42
-53 53 -63 26z"/>
</g>
</svg>
