<?xml version="1.0" standalone="no"?>
<!DOCTYPE svg PUBLIC "-//W3C//DTD SVG 20010904//EN"
 "http://www.w3.org/TR/2001/REC-SVG-20010904/DTD/svg10.dtd">
<svg version="1.0" xmlns="http://www.w3.org/2000/svg"
 width="1811.000000pt" height="1217.000000pt" viewBox="0 0 1811.000000 1217.000000"
 preserveAspectRatio="xMidYMid meet">
<metadata>
Created by potrace 1.13, written by Peter Selinger 2001-2015
</metadata>
<g transform="translate(0.000000,1217.000000) scale(0.100000,-0.100000)"
fill="#000000" stroke="none">
<path d="M2407 12163 c-2 -5 -17 -46 -32 -93 -35 -109 -128 -302 -195 -405
-314 -482 -900 -877 -1620 -1093 -91 -28 -192 -55 -225 -62 -59 -12 -220 -87
-296 -137 l-39 -26 0 -198 c0 -131 9 -297 26 -489 l25 -291 -25 -44 c-18 -31
-26 -58 -26 -92 l0 -48 22 35 c66 109 135 208 193 275 36 42 65 82 65 88 0 6
3 8 6 4 3 -3 29 12 57 34 70 52 254 146 407 208 154 61 313 110 530 162 365
88 415 102 499 134 650 248 1142 823 1488 1740 25 66 52 125 60 132 8 6 13 18
11 25 -3 7 8 42 24 76 15 35 28 66 28 68 0 2 -11 4 -25 4 -21 0 -30 -11 -57
-67 l-33 -68 -260 -102 c-143 -57 -261 -103 -263 -103 -4 0 7 242 14 298 5 40
4 42 -20 42 -22 0 -25 -5 -30 -42 -5 -42 -27 -444 -46 -853 -6 -110 -13 -233
-16 -274 l-6 -74 -171 6 c-93 4 -172 9 -175 11 -8 9 128 1133 143 1176 8 23
15 44 15 46 0 7 -49 4 -53 -3z m838 -215 c-6 -20 -81 -210 -122 -308 -13 -31
-27 -41 -126 -87 -62 -28 -147 -67 -190 -87 l-79 -36 6 142 c4 79 9 157 11
173 5 29 13 33 248 126 133 54 246 97 250 98 5 1 5 -9 2 -21z m-945 -545 c-27
-236 -50 -437 -50 -446 0 -15 -18 -17 -175 -17 l-176 0 5 33 c3 17 15 99 26
182 l20 149 54 56 c111 114 241 298 307 433 19 38 35 62 37 54 2 -8 -20 -208
-48 -444z m770 122 c0 -10 -90 -184 -145 -281 -82 -142 -198 -314 -213 -314
-9 0 -11 23 -6 98 3 53 9 153 12 221 l7 123 165 78 c165 78 180 84 180 75z
m-1200 -434 c-10 -79 -21 -145 -23 -147 -2 -3 -79 -3 -171 -2 l-167 3 91 64
c50 35 134 101 188 146 53 45 98 81 99 80 2 -1 -6 -65 -17 -144z m658 -210
l154 -6 -62 -75 c-35 -41 -94 -108 -134 -147 l-70 -73 -592 0 -592 0 -13 88
c-8 48 -14 90 -14 95 0 4 47 34 105 66 l105 60 480 -1 c264 0 549 -3 633 -7z
m-1314 -488 c31 -190 55 -347 54 -348 -2 -2 -60 -18 -130 -37 l-128 -35 0 41
c0 23 -7 178 -15 346 -7 168 -11 307 -9 309 8 8 149 70 160 70 7 1 33 -131 68
-346z m-264 -121 c6 -167 9 -307 5 -310 -3 -3 -57 -25 -120 -47 l-113 -42 -6
81 c-13 191 -26 601 -19 604 4 2 58 22 118 45 l110 42 7 -35 c3 -19 11 -172
18 -338z m-306 181 c3 -49 7 -133 8 -188 l2 -100 -189 -12 c-105 -6 -242 -16
-305 -22 -63 -5 -118 -7 -121 -3 -4 4 -9 44 -13 89 l-6 82 42 29 c92 63 214
115 358 153 80 21 156 42 170 48 45 18 47 15 54 -76z m1701 67 c-11 -18 -205
-159 -276 -201 l-73 -42 -352 9 c-194 5 -355 12 -358 15 -4 3 -13 46 -21 95
-9 49 -18 99 -20 112 l-5 22 555 0 c353 0 554 -4 550 -10z m-680 -286 l230 -7
-55 -25 c-126 -56 -499 -156 -516 -139 -5 5 -33 153 -34 179 0 3 33 5 73 2 39
-2 176 -7 302 -10z m-1002 -236 c3 -62 3 -116 -1 -120 -4 -3 -140 -10 -303
-14 l-297 -7 -5 39 c-3 22 -9 69 -12 106 l-6 66 38 6 c21 3 108 10 193 16 85
6 171 12 190 14 19 1 71 4 116 4 l81 2 6 -112z m-158 -224 c-161 -82 -245
-144 -326 -244 -41 -49 -77 -90 -80 -90 -4 0 -33 299 -34 355 0 9 157 18 425
23 l105 2 -90 -46z"/>
<path d="M4306 12118 c-61 -212 -150 -652 -240 -1193 -76 -454 -94 -545 -141
-717 -139 -502 -390 -935 -737 -1274 -142 -139 -345 -304 -374 -304 -5 0 -20
-12 -33 -26 -13 -14 -37 -28 -53 -31 -16 -3 -34 -13 -41 -23 -25 -34 -398
-229 -471 -245 -6 -1 -27 -9 -46 -18 -33 -15 -258 -89 -366 -121 -93 -27 -288
-68 -329 -70 -22 -1 -45 -5 -52 -9 -7 -4 -81 -15 -165 -23 -84 -8 -205 -22
-268 -31 -63 -10 -119 -17 -125 -18 -5 -1 -17 -4 -25 -7 -8 -4 -60 -19 -115
-33 -160 -43 -357 -120 -548 -217 -167 -85 -177 -92 -177 -119 l0 -28 173 89
c158 82 403 187 413 177 4 -3 -292 -339 -499 -567 -75 -82 -87 -100 -87 -130
l1 -35 57 60 c83 88 315 347 482 538 154 176 160 180 279 206 l43 9 84 -66 83
-67 -23 -25 c-41 -45 -709 -801 -772 -874 -34 -39 -100 -113 -148 -164 -73
-80 -86 -99 -86 -128 0 -19 2 -34 4 -34 6 0 357 393 931 1043 71 81 132 147
135 147 3 0 56 -41 119 -91 l113 -91 -24 -26 c-14 -15 -146 -164 -295 -332
-261 -294 -279 -312 -503 -500 -128 -107 -276 -234 -329 -283 -53 -48 -108
-90 -123 -93 -21 -5 -28 -12 -28 -30 0 -15 6 -24 15 -24 13 0 15 -23 15 -145
0 -122 -2 -145 -15 -145 -9 0 -15 -9 -15 -25 0 -16 6 -25 15 -25 13 0 15 -28
15 -195 0 -167 -2 -195 -15 -195 -9 0 -15 -9 -15 -25 0 -16 6 -25 15 -25 13 0
15 -24 15 -160 0 -136 -2 -160 -15 -160 -9 0 -15 -9 -15 -25 0 -20 5 -25 25
-25 14 0 73 -29 132 -63 60 -35 148 -85 196 -111 60 -33 91 -56 98 -72 9 -25
13 -314 5 -314 -5 0 -388 233 -420 256 -30 20 -38 17 -34 -13 3 -24 25 -41
153 -120 83 -51 185 -114 227 -140 l78 -48 0 -178 0 -178 -62 43 c-35 23 -130
89 -213 146 -193 134 -185 130 -185 95 0 -26 22 -44 230 -186 l230 -158 0 -45
c0 -42 -2 -45 -55 -80 -30 -20 -60 -34 -67 -31 -7 3 -85 52 -173 110 -135 87
-161 101 -163 85 -2 -11 -1 -25 1 -32 3 -7 68 -52 146 -102 77 -49 140 -91
141 -94 0 -10 -106 -66 -195 -102 -77 -32 -90 -41 -93 -62 l-3 -25 43 13 c171
53 478 235 544 323 51 69 287 303 399 397 299 252 531 400 1030 658 332 173
726 369 940 468 263 122 437 241 615 420 244 244 445 573 635 1035 71 174 168
378 237 498 73 130 158 261 174 270 8 5 12 12 10 16 -6 9 134 197 259 348 120
145 416 439 600 597 83 71 276 228 429 350 448 354 572 459 726 615 214 216
323 383 387 596 25 83 27 103 26 255 0 188 -2 198 -115 570 -123 403 -188 693
-204 898 -7 90 -8 92 -32 92 -24 0 -25 -1 -20 -70 3 -38 3 -70 1 -70 -2 0 -43
32 -91 70 -76 61 -92 70 -127 70 l-40 -1 34 -27 c19 -15 80 -63 135 -107 l100
-80 31 -160 c18 -88 31 -161 29 -163 -1 -2 -110 65 -242 148 l-240 151 -38
106 c-20 58 -37 111 -37 119 0 12 -26 14 -161 12 -89 -2 -164 -6 -167 -11 -3
-4 -46 -12 -95 -17 -49 -6 -101 -12 -116 -15 -23 -4 -29 0 -34 20 -4 18 -13
25 -31 25 -22 0 -24 -3 -19 -25 5 -20 2 -25 -16 -29 -24 -6 -195 -26 -214 -26
-6 0 -14 18 -18 40 -5 35 -10 40 -32 40 -25 0 -25 -2 -19 -41 l7 -42 -73 7
c-218 20 -199 16 -199 47 0 24 -4 29 -25 29 -20 0 -25 -5 -25 -26 l0 -26 -97
7 c-120 8 -143 13 -143 31 0 8 -10 14 -25 14 -16 0 -25 -6 -25 -15 0 -13 -9
-15 -47 -10 -86 10 -255 25 -278 25 -20 0 -26 -9 -39 -52z m1863 -50 c12 -34
21 -70 21 -81 0 -25 -110 -490 -118 -499 -7 -6 -283 -27 -291 -22 -4 3 117
592 128 619 7 17 23 22 102 31 149 18 134 22 158 -48z m-1649 36 c80 -9 174
-18 210 -20 76 -4 534 -45 536 -47 3 -3 -91 -235 -97 -241 -5 -5 -860 91 -866
97 -2 3 43 189 52 215 2 6 8 12 12 12 4 0 73 -8 153 -16z m1338 -16 c-3 -7
-34 -151 -68 -320 l-64 -306 -105 -6 c-59 -4 -125 -9 -148 -12 -35 -4 -43 -2
-43 10 0 9 37 150 81 315 l81 299 122 15 c66 8 127 15 135 16 7 0 11 -5 9 -11z
m-343 -115 c-13 -49 -51 -186 -83 -306 -33 -120 -62 -220 -64 -223 -6 -5 -280
-26 -284 -21 -3 3 81 224 111 292 7 17 36 91 65 165 29 74 58 140 64 147 10
11 114 28 188 32 l27 1 -24 -87z m785 -281 c35 -100 60 -185 57 -188 -7 -7
-227 -18 -227 -12 0 3 20 92 45 197 25 105 45 194 45 198 0 27 26 -37 80 -195z
m231 17 c123 -77 230 -146 236 -153 12 -11 75 -218 68 -224 -5 -6 -400 158
-411 171 -6 7 -34 81 -63 165 -28 83 -54 159 -57 167 -4 8 -4 15 -1 15 3 0
106 -63 228 -141z m-1803 82 c227 -27 415 -50 416 -52 2 -2 -15 -52 -38 -111
-33 -88 -45 -108 -61 -108 -44 0 -797 78 -801 83 -5 4 27 171 42 220 3 9 11
17 17 17 7 0 198 -22 425 -49z m-54 -286 c198 -20 361 -37 363 -39 2 -2 -2
-16 -8 -32 -8 -19 -11 -72 -10 -148 l3 -119 -78 7 c-44 3 -234 15 -424 27
-190 12 -347 23 -349 25 -4 3 45 286 54 312 4 9 17 12 47 7 24 -3 205 -21 402
-40z m1939 -141 c117 -47 216 -90 221 -95 6 -5 -6 -9 -32 -9 -49 0 -1513 -76
-1644 -85 l-88 -7 0 100 0 100 78 6 c42 4 124 9 182 12 58 2 299 17 535 33
237 16 454 29 483 30 46 1 85 -12 265 -85z m280 -211 l14 -51 -78 -56 -78 -56
-840 0 -841 0 0 65 c0 55 3 65 18 66 9 0 413 22 897 48 484 26 883 45 886 42
4 -3 13 -29 22 -58z m-2335 -5 c204 -12 372 -25 372 -28 0 -3 -17 -14 -38 -26
-20 -11 -107 -62 -194 -113 l-156 -92 -208 20 c-114 11 -209 22 -211 25 -4 3
19 156 32 214 3 12 11 22 18 22 6 1 180 -9 385 -22z m460 -257 c-5 -15 -5 -28
2 -35 6 -6 10 -66 10 -148 l0 -138 -391 -480 c-215 -264 -393 -480 -395 -480
-8 0 -272 179 -278 189 -4 5 207 288 469 629 431 563 479 623 527 650 l53 30
6 -97 c3 -53 2 -107 -3 -120z m1941 41 c34 -115 54 -243 49 -317 l-3 -49 -143
161 c-79 89 -144 164 -145 168 -3 10 197 153 205 146 4 -3 20 -52 37 -109z
m-2611 -535 c-375 -489 -435 -564 -451 -555 -30 16 -30 34 1 117 41 107 90
278 127 446 l31 140 359 211 c198 117 361 211 363 209 2 -1 -192 -257 -430
-568z m2322 539 c0 -3 -74 -58 -163 -124 l-164 -119 -629 103 c-346 57 -630
103 -631 103 -2 1 -3 10 -3 21 0 20 7 20 795 20 437 0 795 -2 795 -4z m-2336
-77 c111 -11 126 -14 110 -26 -46 -34 -366 -215 -371 -210 -4 5 15 142 33 231
6 27 8 28 53 23 25 -4 104 -12 175 -18z m2506 -183 c100 -113 160 -188 160
-201 0 -64 -97 -335 -121 -335 -12 0 -494 498 -494 511 0 15 266 209 283 206
7 -1 85 -83 172 -181z m-1580 143 c80 -13 148 -25 152 -28 3 -3 -2 -161 -13
-351 -10 -190 -18 -362 -19 -382 l0 -37 -141 48 c-77 27 -142 50 -144 52 -1 2
-6 168 -10 368 -7 352 -7 363 11 358 11 -3 84 -16 164 -28z m399 -66 l163 -26
-5 -56 c-3 -31 -18 -213 -32 -406 -15 -192 -28 -355 -30 -361 -2 -8 -60 8
-161 43 -87 29 -160 56 -162 58 -5 5 26 666 34 733 3 23 11 42 17 42 7 0 86
-12 176 -27z m454 -74 c108 -18 197 -36 197 -40 0 -6 -471 -750 -487 -768 -18
-22 -15 70 13 414 18 220 33 408 33 419 1 14 6 17 24 13 12 -3 111 -20 220
-38z m532 -376 l208 -213 -37 -55 c-51 -73 -176 -217 -186 -213 -4 2 -103 124
-218 273 -183 233 -209 272 -200 289 6 11 40 64 75 119 l65 100 42 -44 c23
-24 136 -140 251 -256z m-1605 -17 l0 -182 -226 -360 c-125 -197 -228 -360
-229 -362 -5 -6 -296 191 -293 199 10 25 731 898 739 894 5 -4 9 -86 9 -189z
m1394 -301 c86 -110 156 -203 156 -207 0 -11 -233 -218 -239 -212 -3 3 -78
121 -168 262 l-162 257 22 35 c12 19 45 73 75 118 l53 84 53 -69 c30 -37 124
-158 210 -268z m-1303 69 c24 -9 168 -59 319 -111 151 -53 294 -102 318 -111
l42 -14 0 -168 0 -168 -72 23 c-387 120 -825 259 -835 264 -8 4 20 56 80 153
51 81 95 147 98 148 4 0 26 -7 50 -16z m1018 -265 c84 -133 155 -247 157 -253
5 -12 -21 -34 -281 -239 l-150 -119 -6 144 c-4 78 -7 226 -8 328 l-1 185 63
98 c34 53 65 97 68 97 3 0 75 -109 158 -241z m-2020 -165 c261 -177 264 -179
225 -182 -39 -4 -677 17 -682 22 -1 2 18 40 44 86 42 76 69 133 111 228 8 19
19 32 26 29 7 -2 131 -85 276 -183z m1251 -59 c223 -70 413 -131 423 -136 15
-9 17 -27 17 -154 0 -141 -1 -145 -23 -160 -22 -14 -59 -9 -492 67 l-468 83
-55 126 -54 125 67 106 67 105 56 -17 c32 -10 239 -75 462 -145z m-561 -384
c61 -139 111 -265 111 -282 0 -17 5 -29 13 -29 7 0 47 -78 90 -175 l77 -176
-133 -144 c-80 -87 -134 -139 -138 -132 -29 55 -379 826 -379 834 0 14 113
196 147 236 12 16 23 32 23 37 0 5 14 32 32 60 22 36 34 47 39 37 4 -7 58
-127 118 -266z m-696 214 c345 -14 370 -16 398 -35 16 -12 29 -24 29 -27 0 -4
-43 -75 -96 -160 l-96 -153 -47 0 c-79 -1 -905 32 -919 36 -8 2 11 33 51 83
36 44 93 123 128 175 l64 95 60 0 c33 1 226 -6 428 -14z m1187 -265 c222 -39
406 -72 407 -74 1 -1 -50 -45 -114 -97 -84 -68 -123 -94 -142 -93 -31 1 -465
46 -468 48 -1 1 -32 69 -67 150 -60 135 -64 148 -43 143 12 -3 204 -38 427
-77z m-692 -526 l191 -416 -106 -139 c-59 -76 -107 -138 -109 -137 -1 2 -36
80 -79 173 -42 94 -85 186 -95 205 -11 20 -59 122 -109 228 l-90 192 97 155
c53 85 100 155 103 155 3 0 91 -187 197 -416z m-733 380 c237 -9 431 -18 433
-19 8 -7 -135 -218 -152 -225 -22 -9 -1225 -104 -1232 -98 -2 2 29 28 69 58
39 30 130 112 202 182 l130 128 60 -5 c33 -3 254 -12 490 -21z m1337 -144
c101 -11 189 -22 196 -23 7 -1 -51 -60 -128 -131 -78 -70 -143 -126 -144 -125
-6 8 -126 287 -126 293 0 8 -2 8 202 -14z m-1002 -246 c22 -47 40 -89 40 -93
0 -6 -1044 -288 -1121 -303 -15 -3 -369 315 -369 330 0 4 16 17 36 30 33 22
69 26 637 71 331 27 633 49 670 50 l68 1 39 -86z m-1154 -415 c190 -177 344
-323 342 -325 -2 -2 -75 -37 -161 -78 l-157 -75 -270 347 c-148 191 -270 349
-270 352 0 4 159 99 168 100 2 0 158 -144 348 -321z m1264 181 c28 -56 41 -93
35 -99 -10 -9 -537 -231 -550 -231 -3 0 -30 -11 -58 -25 -29 -13 -106 -46
-172 -74 l-119 -49 -36 29 c-65 53 -255 237 -250 242 4 3 1072 291 1100 296 3
1 26 -39 50 -89z m-1559 -330 c145 -187 265 -344 267 -348 4 -13 -217 -117
-227 -107 -44 48 -561 679 -561 686 0 5 6 9 13 10 6 0 62 24 122 53 61 29 113
52 116 50 3 -2 124 -156 270 -344z m-301 -121 c151 -183 281 -340 288 -350 12
-18 5 -23 -103 -74 l-117 -55 -72 78 c-40 42 -188 200 -329 351 l-256 274 152
52 c84 29 154 53 157 54 3 0 129 -148 280 -330z m2011 127 c44 -93 79 -172 79
-176 0 -4 -36 -65 -80 -135 -44 -70 -110 -186 -147 -258 -37 -73 -68 -125 -70
-117 -2 8 -23 173 -48 365 -25 193 -48 362 -51 376 -5 24 1 28 103 72 59 25
114 45 122 44 8 -1 49 -78 92 -171z m-2321 -275 c182 -194 330 -355 328 -356
-2 -2 -58 -30 -124 -63 l-121 -61 -369 382 -369 381 85 19 c47 10 117 27 155
37 39 10 73 17 77 17 4 -1 156 -161 338 -356z m2008 -73 c29 -222 52 -415 52
-430 0 -44 -231 -580 -244 -567 -3 2 -14 92 -26 199 -12 107 -44 393 -71 634
-27 242 -48 444 -47 448 4 11 245 115 268 117 13 1 25 -67 68 -401z m-2348
-41 c201 -208 366 -381 367 -385 2 -4 -48 -31 -111 -60 l-113 -54 -515 409
c-284 224 -513 411 -509 415 4 4 49 12 101 18 52 6 149 17 215 24 212 24 146
67 565 -367z m2035 -352 c35 -324 67 -607 70 -627 l5 -38 -169 0 -168 0 -6 48
c-4 26 -13 126 -22 222 -26 294 -75 863 -78 900 l-2 34 145 62 145 61 7 -36
c4 -20 37 -301 73 -626z m-405 358 c12 -148 11 -157 -6 -170 -10 -7 -165 -99
-344 -205 -179 -105 -335 -200 -347 -211 -12 -11 -100 -65 -195 -122 l-173
-102 -55 35 c-85 53 -208 143 -254 185 -22 20 -45 37 -49 37 -34 0 60 50 513
273 283 139 598 294 700 344 102 50 188 92 191 92 3 1 11 -70 19 -156z m-2009
-154 c49 -39 89 -75 89 -80 0 -5 -108 -146 -239 -314 -280 -356 -352 -445
-362 -445 -12 0 -194 209 -194 223 0 14 596 687 609 687 4 0 48 -32 97 -71z
m2033 -136 c4 -38 9 -89 12 -115 l6 -47 -91 -68 c-49 -37 -219 -166 -376 -286
-202 -154 -291 -217 -303 -212 -23 8 -271 166 -277 175 -3 5 77 56 178 115
100 59 191 116 202 125 21 19 625 379 636 380 4 0 10 -30 13 -67z m-1791 -56
l87 -69 -32 -44 c-36 -48 -42 -56 -268 -381 -186 -267 -187 -269 -249 -361
l-49 -73 -98 111 c-55 61 -100 116 -101 123 -2 7 27 48 65 93 37 44 173 216
302 381 129 165 240 298 245 295 6 -3 49 -37 98 -75z m196 -157 c34 -28 61
-55 61 -60 0 -6 8 -10 19 -10 10 0 24 -7 31 -15 7 -8 59 -50 117 -92 l104 -78
-155 -3 c-86 -1 -226 -1 -312 0 l-155 3 52 75 c113 163 163 230 170 230 4 0
35 -23 68 -50z m1621 -62 c0 -24 9 -133 20 -243 11 -110 20 -203 20 -208 0 -6
-189 1 -198 8 -5 4 -102 278 -102 289 0 7 28 33 63 59 34 27 87 68 117 92 30
24 61 44 68 45 8 0 12 -15 12 -42z m-259 -315 l45 -128 -75 -3 c-42 -2 -103
-1 -137 3 -58 6 -62 8 -84 47 -19 34 -20 42 -9 54 30 29 195 153 205 154 5 0
30 -57 55 -127z m-2542 64 c6 -8 67 -186 136 -396 l126 -382 -90 -137 -90
-136 -11 29 c-7 17 -78 206 -160 420 -82 215 -151 397 -155 406 -4 12 25 42
107 112 62 53 116 97 119 97 4 0 12 -6 18 -13z m1802 -125 c192 -121 206 -132
232 -181 16 -29 27 -54 25 -56 -5 -5 -1379 93 -1385 99 -3 2 6 20 19 38 14 18
55 77 92 131 l67 97 373 0 372 0 205 -128z m-1363 -372 c2 -5 -29 -57 -69
-117 l-72 -107 -99 294 c-54 162 -98 298 -98 303 0 8 333 -359 338 -373z
m2010 -12 c122 -205 224 -380 227 -389 4 -12 -13 -30 -62 -66 -100 -74 -154
-106 -163 -96 -4 4 -78 159 -165 343 -86 184 -167 355 -179 380 -44 85 -45 83
36 144 40 31 76 56 79 56 4 0 106 -168 227 -372z m-2567 -156 l165 -437 -54
-85 c-30 -47 -56 -87 -57 -88 -2 -2 -40 16 -86 40 l-82 43 -83 215 c-46 118
-87 224 -93 235 -16 36 -111 310 -111 322 0 6 24 32 53 57 122 105 172 145
177 140 3 -3 80 -202 171 -442z m3142 409 l199 -1 -23 -37 c-49 -82 -149 -230
-176 -260 l-28 -33 -204 -25 c-112 -14 -207 -22 -211 -18 -14 16 -228 382
-225 385 2 2 108 0 237 -3 128 -4 322 -7 431 -8z m-1651 -111 c391 -28 713
-52 715 -54 2 -2 19 -35 37 -73 l34 -70 -122 -60 -121 -59 -655 54 -654 55
-48 40 c-48 40 -48 40 -32 66 53 83 107 151 120 151 8 0 335 -23 726 -50z
m-1878 -252 c32 -90 65 -168 72 -174 8 -6 14 -20 14 -32 0 -11 26 -89 59 -174
32 -84 58 -154 57 -155 -1 -1 -71 33 -156 77 l-155 78 -3 248 c-2 243 -2 248
20 271 12 12 24 23 28 23 3 0 32 -73 64 -162z m1324 -197 l304 -253 -93 -64
-94 -64 -268 269 -269 268 42 62 c38 56 43 61 58 48 10 -8 153 -128 320 -266z
m1431 57 c38 -79 89 -187 114 -241 l46 -97 -100 -50 c-99 -50 -99 -50 -108
-28 -5 13 -47 124 -95 247 -47 123 -86 228 -86 233 0 8 136 78 153 78 5 0 39
-64 76 -142z m-999 82 c272 -22 511 -43 530 -46 34 -6 30 -9 -100 -71 l-135
-64 -330 27 -330 26 -65 54 c-36 29 -81 66 -100 83 l-35 30 35 1 c19 0 258
-18 530 -40z m1638 -42 c-35 -39 -87 -91 -114 -114 l-50 -43 -53 90 c-30 49
-51 93 -47 96 7 7 237 40 295 42 l34 1 -65 -72z m-2253 -248 c203 -204 257
-263 245 -270 -8 -5 -51 -34 -95 -64 l-79 -56 -59 58 c-32 31 -135 137 -228
234 l-170 177 27 43 c15 24 31 45 35 46 5 2 9 8 9 13 0 11 43 79 50 79 3 0
122 -117 265 -260z m1427 14 c48 -126 91 -237 94 -246 4 -13 -17 -26 -92 -62
-54 -26 -101 -43 -105 -39 -11 13 -220 475 -217 479 11 10 215 103 222 101 5
-2 49 -106 98 -233z m-263 -122 c57 -125 106 -235 109 -244 3 -13 -18 -28 -92
-65 -52 -26 -97 -45 -99 -43 -2 3 -59 106 -127 230 -67 124 -125 228 -127 232
-4 7 210 118 226 118 3 0 53 -102 110 -228z m-379 178 c31 -1 18 -9 -104 -71
-77 -38 -146 -67 -153 -65 -16 7 -201 159 -202 166 -1 3 95 -2 212 -12 116 -9
228 -17 247 -18z m-977 -264 l217 -225 -32 -24 c-18 -13 -52 -37 -76 -52 l-43
-29 -175 175 c-97 96 -184 187 -196 202 l-20 28 49 74 c26 41 50 75 53 75 3 0
103 -101 223 -224z m1101 -55 c69 -126 126 -232 126 -235 0 -9 -181 -98 -187
-92 -3 3 -68 107 -144 233 l-139 228 102 51 c57 29 106 50 109 48 4 -2 64
-107 133 -233z m-2041 100 c61 -32 170 -88 242 -124 72 -37 136 -71 143 -75
10 -7 -2 -33 -53 -111 -58 -88 -70 -101 -88 -95 -12 4 -99 45 -194 92 l-173
86 0 143 c0 79 2 143 5 143 3 0 56 -26 118 -59z m1716 -94 c34 -54 61 -101 61
-105 -1 -10 -626 -475 -636 -473 -16 4 -214 163 -214 171 0 8 242 180 265 189
5 2 19 11 30 21 27 24 428 301 431 297 1 -1 29 -46 63 -100z m-789 -337 c-19
-16 -41 -30 -48 -30 -8 0 -98 66 -200 147 -103 80 -188 147 -189 147 -1 1 19
34 45 74 l46 73 191 -191 190 -191 -35 -29z m-218 30 c175 -137 230 -186 214
-187 -11 -2 -156 5 -321 15 l-300 17 -3 50 c-3 48 1 56 78 173 44 68 84 122
89 120 4 -2 114 -86 243 -188z m1165 48 l62 -102 -37 -21 c-20 -11 -121 -65
-224 -118 -102 -53 -226 -120 -274 -148 -48 -27 -91 -51 -96 -52 -9 -2 -117
75 -117 83 0 8 603 458 614 459 6 1 38 -45 72 -101z m-1804 -25 l177 -87 0
-129 0 -129 -42 25 c-24 13 -83 47 -133 74 -50 28 -112 64 -140 80 l-50 29 -3
112 c-1 62 1 112 5 112 4 0 88 -39 186 -87z m657 -251 l295 -18 113 -88 c61
-48 112 -91 112 -94 -1 -4 -27 -23 -58 -43 l-57 -35 -415 60 -415 61 -3 88 -3
87 68 -1 c37 0 201 -8 363 -17z m-49 -262 c189 -27 355 -52 368 -55 21 -5 18
-10 -35 -48 -33 -22 -94 -69 -138 -103 -74 -58 -80 -61 -115 -53 -20 4 -127
28 -238 53 -111 26 -204 46 -207 46 -3 0 -6 47 -6 105 0 83 3 105 14 105 8 0
168 -22 357 -50z m-141 -260 c107 -24 197 -45 199 -47 3 -2 -38 -44 -90 -93
l-94 -91 -60 6 c-32 3 -87 10 -122 16 l-63 11 0 64 c0 52 4 68 22 86 l22 22
-22 14 c-28 18 -31 67 -4 60 9 -3 105 -24 212 -48z m-130 -265 c47 -8 87 -15
89 -15 2 0 -23 -28 -55 -62 -33 -35 -76 -83 -97 -108 l-37 -45 0 123 c0 67 3
122 8 122 4 0 45 -7 92 -15z"/>
<path d="M11432 12070 c-41 -124 -131 -306 -209 -425 -332 -502 -978 -913
-1753 -1114 -248 -64 -408 -159 -616 -365 -116 -116 -236 -274 -323 -428 -18
-32 -37 -58 -42 -58 -5 0 -9 -6 -9 -13 0 -7 -31 -80 -68 -162 -38 -83 -111
-258 -161 -390 -51 -132 -99 -245 -107 -251 -8 -6 -14 -21 -14 -33 0 -27 -79
-201 -91 -201 -5 0 -9 -8 -9 -18 0 -23 -64 -131 -132 -223 -60 -81 -173 -189
-271 -257 -121 -84 -352 -191 -557 -257 -47 -15 -94 -31 -105 -36 -11 -4 -70
-28 -130 -52 -323 -130 -609 -295 -1106 -639 -58 -40 -141 -97 -185 -127 -78
-54 -236 -169 -263 -193 -8 -7 -62 -52 -120 -101 -157 -132 -455 -412 -611
-574 -76 -79 -143 -143 -149 -143 -6 0 -11 -5 -11 -11 0 -6 -70 -87 -155 -180
-156 -171 -414 -468 -507 -585 -29 -35 -55 -64 -60 -64 -4 0 -8 -5 -8 -11 0
-5 -35 -54 -78 -107 -43 -53 -100 -126 -127 -162 -27 -36 -59 -76 -72 -89 -13
-13 -23 -26 -23 -30 0 -3 -36 -55 -81 -116 -44 -60 -134 -189 -199 -285 -66
-96 -129 -187 -140 -202 -12 -16 -19 -28 -16 -28 3 0 -15 -32 -40 -71 -196
-307 -381 -686 -494 -1014 -83 -241 -164 -396 -300 -575 -343 -450 -958 -820
-1680 -1009 -141 -37 -306 -108 -382 -164 l-28 -21 0 -195 c0 -130 9 -295 26
-489 l26 -292 -26 -44 c-18 -32 -26 -59 -26 -93 1 -41 2 -45 12 -28 36 64 146
224 191 278 29 34 60 73 70 87 9 13 17 21 17 17 0 -4 23 11 51 32 63 48 191
119 289 161 41 17 89 38 105 45 122 54 379 130 662 196 256 59 389 101 533
170 217 104 390 228 575 414 301 301 531 676 736 1195 40 102 79 193 87 202 8
9 11 21 8 26 -11 18 212 445 334 642 5 8 39 63 74 122 36 59 112 176 168 259
57 84 108 159 113 168 63 99 338 478 361 497 8 6 14 14 14 18 0 11 254 337
311 401 10 11 65 76 121 145 57 69 124 147 150 173 27 26 48 51 48 54 0 8 127
147 316 348 291 307 804 765 856 765 10 0 18 6 18 14 0 22 293 226 325 226 8
0 15 4 15 9 0 14 97 70 270 158 85 42 157 81 158 85 2 4 17 8 34 8 36 0 290
68 408 109 112 39 145 53 275 118 426 213 752 550 988 1023 95 190 111 228
197 465 40 110 88 233 106 273 19 41 34 76 34 78 0 12 114 204 122 204 4 0 8
6 8 13 0 7 38 61 85 119 47 59 85 112 85 118 0 6 5 10 12 8 7 -3 32 10 56 29
206 157 576 295 1122 418 335 76 582 188 825 374 397 304 736 807 977 1451 22
58 47 116 56 130 9 14 17 35 18 46 1 12 14 44 28 72 14 28 26 54 26 57 0 3
-12 5 -27 5 -25 0 -32 -8 -59 -68 l-30 -67 -230 -89 c-126 -50 -244 -96 -263
-104 l-33 -13 7 170 7 171 -26 0 c-25 0 -26 -2 -26 -57 -1 -32 -9 -204 -20
-383 -10 -179 -21 -381 -24 -450 -3 -69 -8 -176 -12 -237 l-7 -113 -106 1
c-58 1 -138 4 -176 8 l-71 6 47 405 c73 630 87 732 103 778 l15 42 -27 0 c-26
0 -30 -6 -60 -100z m878 -105 c0 -11 -139 -348 -147 -356 -5 -5 -89 -46 -188
-92 l-180 -84 -3 61 c-1 34 1 110 5 171 l8 109 245 97 c246 98 260 103 260 94z
m-950 -542 c-28 -241 -53 -448 -55 -460 -5 -23 -7 -23 -176 -23 l-172 0 6 38
c3 20 13 99 23 176 l18 138 89 102 c98 111 223 292 277 402 19 39 36 70 38 68
2 -1 -19 -199 -48 -441z m692 -47 c-115 -222 -270 -461 -287 -444 -9 8 14 430
23 440 9 8 324 156 335 157 5 1 -27 -68 -71 -153z m-1125 -288 l-20 -148 -168
0 c-93 0 -169 2 -169 4 0 2 43 34 95 71 52 37 136 102 187 145 51 43 94 77 94
76 1 0 -8 -67 -19 -148z m660 -207 l152 -6 -46 -55 c-25 -30 -83 -97 -130
-147 l-85 -93 -593 0 -593 0 -6 28 c-22 108 -27 155 -17 165 5 5 54 34 108 63
l98 53 480 -1 c264 0 548 -3 632 -7z m-1317 -481 c27 -173 52 -324 55 -336 4
-18 -7 -24 -125 -55 -72 -20 -130 -35 -130 -35 -1 3 -30 638 -30 663 0 30 4
34 83 71 71 34 83 37 89 23 4 -9 30 -158 58 -331z m-266 -95 c9 -186 13 -341
11 -344 -3 -2 -57 -23 -121 -47 -74 -26 -117 -37 -119 -30 -2 6 -6 94 -9 196
-3 102 -9 252 -13 333 -6 140 -5 148 13 153 10 3 64 22 119 43 55 21 101 38
102 37 1 -1 9 -154 17 -341z m-301 98 c4 -75 7 -160 7 -188 l0 -52 -142 -7
c-128 -6 -253 -15 -420 -31 l-56 -6 -7 86 c-9 106 -10 105 139 182 85 43 145
65 256 94 80 21 156 42 170 48 46 18 47 17 53 -126z m1677 97 c-57 -48 -180
-135 -254 -180 l-69 -42 -328 7 c-181 4 -343 10 -361 14 l-33 7 -17 99 c-9 55
-17 106 -17 113 -1 9 117 12 557 12 l557 -1 -35 -29z m-2346 -302 c4 -29 20
-208 36 -398 16 -190 32 -364 35 -388 4 -39 -1 -53 -51 -138 -30 -51 -64 -114
-75 -139 -20 -44 -21 -45 -67 -45 -81 0 -76 -16 -83 312 -4 161 -7 376 -8 478
l-1 184 96 93 c53 51 100 93 105 93 4 0 10 -24 13 -52z m1689 36 c120 -3 215
-10 210 -14 -33 -32 -424 -147 -518 -153 l-39 -2 -12 70 c-22 121 -26 114 64
109 42 -2 175 -7 295 -10z m-1003 -242 l0 -119 -212 -6 c-116 -4 -253 -7 -303
-7 l-92 0 -7 101 c-4 56 -5 103 -2 106 8 8 392 38 534 41 l82 2 0 -118z m-938
-705 l3 -188 -110 7 c-60 3 -113 9 -117 13 -3 3 -9 125 -13 271 l-7 265 61 99
c34 54 85 130 113 169 l53 71 7 -259 c4 -143 8 -345 10 -448z m768 482 c-187
-101 -252 -155 -371 -307 l-26 -34 -12 139 c-6 76 -14 162 -17 190 l-6 52 163
4 c90 1 209 3 264 5 l100 2 -95 -51z m-1051 -536 l1 -113 -57 1 c-32 0 -74 3
-95 7 l-36 7 47 120 c26 66 65 158 86 205 l40 84 6 -99 c4 -55 7 -151 8 -212z
m41 -169 c124 -8 261 -17 305 -20 43 -3 81 -7 83 -9 2 -2 -11 -42 -29 -89
l-32 -86 -329 0 c-180 0 -328 3 -328 8 0 21 84 212 94 212 6 0 112 -7 236 -16z
m276 -346 c-19 -51 -37 -101 -41 -110 -8 -21 -27 -24 -331 -43 -327 -20 -307
-22 -329 18 l-17 33 43 97 43 97 333 0 333 0 -34 -92z m-628 -325 c65 -93 153
-217 195 -277 l77 -108 -28 -37 c-61 -83 -107 -140 -113 -141 -10 0 -330 581
-327 594 3 11 71 136 75 136 1 0 55 -75 121 -167z m552 133 c0 -3 -20 -47 -44
-100 -51 -108 -30 -97 -221 -116 -171 -16 -152 -23 -229 86 -37 53 -65 98 -63
100 10 10 557 40 557 30z m-625 -443 c88 -158 160 -290 160 -293 0 -3 -8 -16
-18 -30 -17 -24 -21 -25 -110 -22 -50 2 -99 5 -107 8 -8 2 -67 105 -130 228
l-115 223 73 78 c39 42 72 81 72 86 0 29 31 -20 175 -278z m469 125 c-55 -98
-88 -148 -96 -145 -12 4 -136 182 -129 185 13 5 158 19 208 21 l52 1 -35 -62z
m-779 -140 c26 -51 75 -144 108 -207 l60 -114 -109 7 c-60 4 -135 9 -166 12
l-57 6 -61 107 c-33 59 -60 112 -60 118 0 5 37 33 83 61 45 28 96 62 112 76
17 14 33 25 36 26 3 0 27 -42 54 -92z m-281 -190 c31 -56 55 -102 53 -104 -1
-1 -123 5 -272 15 -148 9 -265 19 -260 22 6 4 35 14 65 24 80 26 245 92 299
120 25 13 49 24 53 25 3 0 31 -46 62 -102z m-560 -130 c-12 -84 -65 -467 -69
-503 -2 -22 -9 -76 -15 -121 l-12 -80 -81 -42 c-45 -22 -110 -57 -144 -76 -38
-22 -63 -31 -63 -23 0 32 165 785 174 795 8 7 191 81 203 82 8 0 10 -11 7 -32z
m646 -28 c272 -16 513 -30 535 -30 l39 0 -39 -41 c-22 -22 -84 -74 -139 -115
-80 -61 -103 -74 -125 -70 -14 3 -217 31 -451 62 -234 31 -428 59 -431 63 -4
3 -2 41 4 84 l10 77 51 0 c28 0 274 -13 546 -30z m-984 -352 c-35 -161 -75
-342 -87 -401 -25 -122 -5 -98 -188 -226 -57 -39 -105 -70 -107 -69 -3 4 83
320 173 633 36 127 68 238 71 248 4 16 191 120 200 112 2 -2 -26 -135 -62
-297z m-201 150 c-13 -39 -141 -495 -191 -682 l-59 -219 -100 -80 c-55 -44
-115 -94 -132 -110 -18 -17 -35 -28 -39 -25 -3 3 2 59 11 125 15 105 100 428
201 760 l25 82 117 69 c172 102 175 104 167 80z m1004 -43 c222 -30 406 -56
408 -59 3 -2 -70 -41 -162 -87 -123 -61 -176 -82 -202 -81 -51 2 -507 53 -512
58 -2 2 2 53 9 114 12 101 14 110 34 110 11 0 203 -25 425 -55z m-1415 -361
c-31 -109 -59 -202 -63 -206 -6 -6 -299 96 -310 109 -3 3 0 8 7 10 7 3 18 11
26 18 7 8 51 40 97 71 253 174 294 202 297 199 1 -1 -23 -92 -54 -201z m1151
116 c94 -11 179 -20 190 -21 38 -2 -40 -27 -235 -78 l-192 -49 7 70 c3 38 9
76 12 84 7 18 14 18 218 -6z m-1408 -313 c94 -34 172 -66 173 -72 3 -20 -55
-215 -64 -215 -11 0 -499 180 -506 187 -5 5 8 15 133 106 43 31 82 57 86 57 3
0 83 -28 178 -63z m-176 -238 c151 -55 277 -104 282 -108 7 -7 -18 -215 -29
-232 -3 -5 -9 -9 -14 -9 -7 0 -232 97 -393 169 -23 10 -97 42 -165 71 -67 29
-124 56 -127 59 -3 6 159 151 169 151 1 0 126 -45 277 -101z m-722 -423 c-122
-179 -226 -326 -230 -326 -4 0 -30 27 -59 60 l-52 60 59 61 c77 82 496 479
501 475 2 -2 -97 -151 -219 -330z m404 259 c59 -26 107 -50 107 -54 0 -6 -533
-737 -548 -753 -8 -8 -137 138 -148 166 -7 18 455 699 470 693 6 -3 59 -26
119 -52z m267 -116 c52 -23 96 -43 97 -44 9 -6 -496 -718 -557 -785 l-76 -82
-72 85 -72 86 247 338 c135 186 264 362 285 391 21 28 42 52 46 52 4 0 50 -19
102 -41z m204 -90 l47 -20 -93 -87 c-51 -47 -138 -129 -192 -182 l-99 -95 88
130 c157 230 189 275 196 275 3 0 28 -9 53 -21z m-1123 -445 l122 -145 -25
-299 -26 -299 -138 -174 c-77 -96 -140 -174 -141 -173 -1 1 7 269 17 596 20
583 20 594 42 617 12 13 22 23 24 23 1 0 57 -66 125 -146z m-226 -56 c-3 -51
-12 -322 -21 -603 l-16 -510 -110 -150 c-61 -82 -122 -165 -135 -182 l-24 -33
-40 27 c-35 23 -39 30 -34 57 2 17 20 279 40 581 20 303 39 560 43 573 7 23
281 331 295 332 4 0 5 -42 2 -92z m494 -260 l83 -98 -108 -125 c-59 -69 -109
-124 -111 -121 -4 3 22 329 33 415 3 24 9 39 13 35 4 -5 45 -53 90 -106z
m-885 -584 c-20 -297 -38 -540 -40 -542 -3 -4 -292 197 -299 208 -3 5 8 120
25 256 l30 247 38 46 c78 98 276 330 279 327 2 -2 -13 -246 -33 -542z m-366
-99 c-12 -99 -24 -184 -28 -188 -6 -7 -116 61 -154 95 -6 5 -1 21 14 40 52 73
183 238 186 235 2 -1 -6 -83 -18 -182z m-23 -266 c28 -19 139 -97 248 -173
131 -92 195 -142 190 -149 -56 -89 -65 -96 -147 -127 -44 -17 -88 -32 -96 -33
-9 0 -140 86 -292 192 l-277 193 86 119 86 118 76 -52 c42 -29 99 -69 126 -88z
m-127 -329 c138 -96 252 -177 252 -180 0 -3 -64 -29 -143 -59 -78 -29 -170
-64 -203 -77 l-62 -23 -153 105 c-85 58 -158 109 -162 114 -14 12 191 312 207
303 7 -4 126 -87 264 -183z m-351 -265 c72 -49 128 -93 125 -97 -4 -4 -97 -41
-207 -83 -110 -42 -211 -81 -224 -86 -23 -9 -23 -9 -19 48 4 50 14 74 77 178
40 66 78 126 83 132 12 15 -1 22 165 -92z m733 3 c-33 -51 -99 -155 -147 -231
l-86 -139 -423 -211 c-233 -116 -425 -209 -427 -207 -10 11 20 452 31 459 6 4
123 49 259 100 295 111 221 82 553 212 151 59 281 108 288 108 6 1 -15 -41
-48 -91z m-1117 -375 c-2 -54 -17 -348 -34 -653 -16 -305 -34 -647 -39 -760
-5 -113 -12 -237 -16 -276 l-5 -71 -172 5 c-95 2 -174 6 -176 8 -2 2 26 257
63 568 64 554 66 566 105 673 21 61 60 159 86 219 46 105 183 384 189 384 2 0
2 -44 -1 -97z m827 -88 c0 -2 -14 -28 -32 -57 -18 -29 -84 -156 -148 -282
l-116 -230 -260 -102 c-142 -56 -260 -100 -262 -99 -4 3 17 378 21 381 7 6
783 393 790 393 4 1 7 -1 7 -4z m-320 -642 c0 -3 -30 -83 -67 -176 -42 -104
-76 -175 -88 -183 -11 -7 -98 -49 -193 -93 l-174 -81 7 158 c4 86 9 164 11
173 3 10 93 51 247 112 251 99 257 101 257 90z m-951 -568 l-53 -455 -173 0
-174 0 5 33 c3 17 15 99 26 181 l20 148 61 66 c112 120 254 324 315 454 10 21
20 36 22 33 3 -2 -19 -209 -49 -460z m771 130 c0 -26 -181 -348 -271 -482 -69
-103 -84 -119 -92 -106 -3 5 0 104 6 222 l12 215 165 77 c164 77 180 84 180
74z m-1200 -434 c-10 -79 -21 -145 -23 -147 -2 -3 -80 -3 -173 -2 l-169 3 92
63 c51 35 136 101 190 146 54 46 99 83 100 82 2 -1 -6 -66 -17 -145z m753
-210 l58 -6 -58 -70 c-32 -38 -91 -105 -132 -147 l-74 -78 -592 0 -593 0 -12
83 c-6 45 -12 88 -13 95 -1 8 45 40 103 72 l105 59 575 0 c316 -1 601 -4 633
-8z m-1354 -826 c1 -10 -246 -81 -254 -74 -7 8 -33 684 -27 690 4 4 43 23 87
42 l80 36 57 -342 c31 -188 57 -346 57 -352z m-319 216 c7 -167 8 -307 3 -311
-4 -4 -39 -18 -78 -30 -38 -13 -89 -31 -112 -41 l-41 -18 -6 82 c-13 192 -26
601 -19 607 4 4 32 15 62 25 30 10 79 28 110 40 l56 23 7 -36 c3 -21 12 -174
18 -341z m-306 167 c3 -57 7 -140 9 -185 4 -97 21 -89 -183 -99 -74 -3 -200
-12 -280 -19 -80 -7 -148 -10 -151 -6 -4 3 -9 43 -13 88 l-6 82 42 29 c84 58
223 119 328 146 58 14 132 35 165 45 33 11 65 20 72 20 7 1 13 -33 17 -101z
m1671 56 c-22 -19 -100 -75 -174 -125 l-133 -89 -107 0 c-157 1 -612 17 -617
23 -2 2 -11 44 -19 93 -9 49 -18 99 -20 112 l-5 22 557 0 558 -1 -40 -35z
m-610 -260 l190 -7 -45 -19 c-99 -42 -244 -88 -379 -118 -78 -18 -144 -30
-147 -28 -4 5 -34 162 -34 181 0 4 51 5 113 2 61 -3 198 -8 302 -11z m-1042
-231 c3 -65 3 -120 0 -123 -6 -7 -592 -24 -599 -18 -3 3 -10 50 -15 103 -7 72
-7 100 1 105 6 4 62 10 123 15 170 11 461 32 473 34 7 1 13 -40 17 -116z
m-173 -234 c-155 -84 -232 -142 -311 -237 -39 -48 -75 -88 -79 -90 -4 -1 -13
75 -20 170 -7 95 -13 178 -14 183 -1 10 155 19 399 23 l120 2 -95 -51z"/>
<path d="M13326 11973 c-70 -296 -119 -545 -192 -983 -81 -489 -113 -650 -163
-821 -66 -224 -171 -477 -262 -628 -24 -41 -55 -94 -69 -118 -85 -148 -282
-388 -436 -530 -109 -101 -312 -263 -330 -263 -7 0 -26 -13 -44 -30 -18 -16
-39 -30 -48 -30 -9 0 -27 -11 -41 -24 -44 -42 -424 -236 -461 -236 -6 0 -27
-8 -48 -19 -54 -27 -312 -112 -332 -109 -9 2 -23 -2 -31 -8 -18 -15 -280 -75
-333 -76 -23 -1 -45 -5 -51 -9 -13 -9 -243 -39 -305 -39 -26 0 -87 -7 -136
-15 -49 -9 -100 -18 -114 -20 -32 -4 -244 -67 -335 -98 -108 -37 -187 -72
-349 -154 -269 -136 -492 -276 -776 -492 -91 -68 -183 -136 -205 -150 -67 -43
-275 -220 -660 -561 -298 -265 -388 -340 -402 -340 -7 0 -13 -6 -13 -12 -1
-14 -195 -173 -226 -184 -10 -4 -25 -16 -32 -26 -23 -32 -283 -198 -397 -253
-60 -30 -188 -80 -284 -111 -818 -268 -1389 -922 -1783 -2039 -154 -437 -259
-886 -398 -1706 -108 -639 -144 -788 -256 -1066 -50 -126 -175 -382 -198 -407
-6 -6 -21 -29 -33 -51 -32 -59 -136 -204 -204 -284 -32 -39 -59 -73 -59 -76 0
-3 13 -5 30 -5 26 0 40 12 96 83 36 45 93 123 127 174 l62 92 90 0 c50 0 242
-6 427 -13 321 -13 338 -15 368 -36 17 -12 29 -28 27 -34 -3 -7 -41 -70 -85
-139 l-81 -127 40 0 c28 0 39 4 39 15 0 17 108 193 146 238 13 16 24 33 24 38
0 5 14 32 32 60 l31 52 17 -34 c10 -19 50 -109 90 -201 69 -160 74 -168 101
-168 l28 0 -34 75 c-19 41 -32 75 -30 75 2 0 195 -34 428 -75 233 -41 444 -75
468 -75 42 0 55 9 275 183 306 241 431 346 563 473 257 246 390 461 443 714
16 77 19 119 15 220 -7 142 -18 192 -112 505 -284 939 -283 1265 5 1440 128
78 403 154 710 196 140 20 480 17 685 -6 96 -10 244 -19 340 -19 191 0 292 15
435 65 185 65 465 238 535 330 57 75 273 289 390 387 189 158 451 341 650 454
208 118 1107 575 1245 633 443 185 777 477 1034 904 82 135 214 405 296 606
110 270 312 650 387 732 13 13 23 28 23 33 0 17 206 284 317 410 208 236 501
508 843 781 80 63 255 203 390 311 482 385 659 572 787 834 74 154 102 277 98
439 -3 147 -18 215 -100 483 -147 483 -225 828 -225 1002 0 57 -1 60 -25 60
-23 0 -24 -3 -27 -69 l-3 -69 -88 70 c-78 61 -92 69 -125 66 l-37 -3 133 -104
c77 -60 134 -113 137 -125 2 -12 13 -70 25 -131 11 -60 24 -125 29 -142 5 -18
7 -33 4 -33 -6 0 -213 129 -380 236 -96 63 -112 77 -118 106 -4 18 -11 38 -15
43 -14 19 -50 138 -44 147 7 11 -318 7 -327 -5 -3 -4 -43 -12 -90 -17 -46 -5
-101 -12 -121 -15 -35 -5 -38 -3 -38 20 0 20 -5 25 -24 25 -19 0 -25 -6 -28
-27 -3 -28 -5 -28 -103 -40 -155 -17 -145 -19 -145 27 0 36 -2 40 -25 40 -23
0 -25 -4 -25 -41 l0 -41 -65 6 c-36 3 -94 9 -130 12 -64 6 -65 7 -65 35 0 24
-4 29 -25 29 -20 0 -25 -5 -25 -26 l0 -26 -107 7 c-106 7 -143 16 -143 35 0 6
-11 10 -25 10 -16 0 -25 -6 -25 -15 0 -12 -8 -14 -37 -10 -58 8 -253 25 -283
25 -26 0 -27 -3 -74 -197z m1903 88 l23 -69 -51 -218 c-29 -121 -56 -235 -62
-256 l-9 -36 -118 -6 c-64 -4 -129 -9 -144 -11 -21 -3 -28 0 -28 12 0 27 120
597 129 613 5 10 37 19 97 26 150 19 136 23 163 -55z m-1604 38 c55 -6 129
-13 165 -15 108 -6 524 -45 528 -49 4 -3 -85 -235 -92 -243 -4 -3 -859 97
-863 102 -2 2 9 53 24 115 l27 111 56 -5 c30 -3 100 -10 155 -16z m1285 -11
c0 -22 -123 -613 -129 -620 -6 -6 -293 -30 -298 -24 -3 3 163 615 168 621 3 2
58 10 124 18 66 8 123 15 128 16 4 0 7 -5 7 -11z m-320 -37 c0 -12 -160 -605
-165 -609 -5 -5 -279 -21 -283 -17 -3 2 27 84 66 182 40 98 94 234 121 303
l49 125 83 11 c111 15 129 16 129 5z m764 -350 c37 -106 65 -195 63 -198 -3
-2 -56 -7 -118 -10 l-112 -6 6 34 c13 65 89 380 92 377 1 -2 32 -90 69 -197z
m281 -22 l200 -126 31 -112 c17 -61 29 -111 26 -111 -16 0 -408 165 -414 174
-8 12 -118 331 -118 341 0 8 8 3 275 -166z m-1852 112 c224 -26 410 -51 414
-54 8 -9 -69 -208 -83 -214 -15 -6 -802 72 -811 80 -6 6 33 212 44 230 6 10
-19 12 436 -42z m-48 -287 c197 -19 360 -36 362 -37 1 -2 -5 -16 -13 -32 -13
-25 -15 -51 -10 -147 4 -91 3 -118 -7 -118 -6 0 -185 11 -397 25 -212 14 -397
25 -412 25 -35 0 -35 4 -1 187 l27 144 45 -6 c26 -3 208 -21 406 -41z m1938
-140 c116 -48 216 -90 221 -95 6 -5 -9 -9 -35 -9 -24 0 -422 -20 -884 -45
-461 -24 -840 -43 -841 -42 -1 1 -6 46 -10 99 l-7 96 84 7 c46 3 129 8 184 11
55 2 296 17 535 33 239 16 459 29 488 30 44 1 85 -12 265 -85z m272 -196 c8
-28 15 -55 15 -59 0 -5 -34 -33 -75 -64 l-75 -55 -840 0 -840 0 0 65 c0 55 3
65 18 66 48 2 1768 96 1774 98 4 0 14 -22 23 -51z m-2328 -20 c204 -12 370
-25 367 -29 -2 -4 -90 -57 -195 -119 l-191 -111 -205 20 c-113 11 -208 23
-211 25 -2 3 4 57 14 121 14 90 21 115 33 115 9 1 183 -9 388 -22z m463 -165
c0 -71 2 -191 5 -268 l7 -140 -387 -475 c-213 -261 -391 -479 -396 -484 -5 -6
-64 28 -154 89 -128 87 -143 100 -131 114 7 9 215 279 461 601 246 322 457
595 468 608 17 19 113 81 125 82 2 0 3 -57 2 -127z m1933 -43 c15 -52 31 -115
36 -140 15 -68 25 -230 15 -229 -12 0 -286 311 -287 324 0 14 197 156 204 147
4 -4 18 -50 32 -102z m-2199 -7 c-57 -76 -719 -940 -781 -1020 -64 -82 -64
-83 -89 -66 -17 11 -23 21 -18 32 51 122 136 421 174 611 l11 55 362 212 c199
117 364 213 366 213 2 0 -9 -17 -25 -37z m1916 3 c0 -2 -55 -43 -122 -91 -68
-49 -141 -103 -164 -121 l-40 -32 -605 98 c-332 55 -619 102 -636 105 -24 4
-33 11 -33 25 0 20 13 20 800 20 440 0 800 -2 800 -4z m-2315 -80 l110 -11
-200 -117 c-110 -64 -200 -116 -201 -115 -2 3 36 239 42 255 4 14 3 14 249
-12z m2465 -161 c68 -77 137 -154 153 -172 l30 -32 -21 -91 c-22 -93 -95 -265
-110 -258 -22 9 -493 500 -490 511 3 6 67 58 144 114 129 95 140 101 155 85 8
-9 71 -80 139 -157z m-1565 124 c77 -12 144 -26 149 -30 8 -8 -19 -723 -29
-755 -2 -8 -52 5 -142 36 l-138 48 -6 128 c-5 109 -13 571 -10 597 1 5 9 6 19
3 9 -2 80 -15 157 -27z m402 -65 l163 -27 -6 -51 c-3 -28 -18 -215 -34 -414
-16 -200 -30 -365 -32 -367 -2 -2 -75 22 -163 53 l-160 57 2 30 c1 17 10 191
19 388 15 304 20 357 33 357 8 0 88 -12 178 -26z m453 -75 c107 -17 197 -33
199 -35 4 -4 -464 -740 -485 -763 -8 -8 -16 -12 -19 -10 -5 5 51 752 61 817 4
27 8 31 27 27 12 -3 110 -19 217 -36z m702 -644 c-47 -66 -173 -215 -182 -215
-6 0 -405 506 -424 538 -5 7 21 57 66 128 l73 115 253 -257 252 -256 -38 -53z
m-1773 172 l1 -98 -221 -352 c-122 -194 -227 -358 -233 -365 -10 -10 -41 7
-152 83 -76 52 -139 100 -139 106 0 6 164 213 365 459 l365 449 6 -92 c4 -51
7 -136 8 -190z m1342 -159 l213 -272 -55 -49 c-130 -117 -177 -157 -186 -157
-8 0 -318 479 -331 511 -3 6 138 238 145 239 1 0 97 -122 214 -272z m-1029
-72 c150 -52 312 -108 360 -126 l87 -32 6 -41 c3 -23 5 -99 3 -168 l-3 -126
-453 142 c-249 78 -455 145 -458 147 -4 4 176 298 182 298 1 0 125 -42 276
-94z m798 -193 c85 -136 155 -250 155 -254 0 -4 -97 -85 -215 -178 l-215 -171
-7 57 c-3 32 -7 180 -9 328 l-2 270 62 98 c35 53 66 97 69 97 4 0 77 -111 162
-247z m-2026 -158 c261 -176 266 -180 229 -183 -35 -4 -675 17 -680 22 -6 5
171 346 177 344 5 -2 128 -84 274 -183z m1265 -64 c227 -72 415 -131 416 -133
1 -2 6 -68 9 -148 l7 -145 -25 -18 c-25 -17 -37 -16 -493 65 l-468 83 -52 115
c-28 63 -52 121 -52 129 -1 8 16 41 37 75 22 34 51 80 65 103 l27 42 57 -19
c32 -11 244 -78 472 -149z m-575 -373 c64 -147 116 -277 116 -289 0 -12 7 -27
15 -33 8 -6 48 -87 89 -181 l74 -170 -82 -85 c-45 -47 -105 -111 -133 -144
l-52 -59 -14 34 c-8 19 -96 211 -196 426 l-181 393 62 97 c33 54 72 111 85
126 12 16 23 33 23 38 0 11 71 122 74 117 2 -2 56 -123 120 -270z m-696 207
c339 -13 365 -16 398 -35 19 -12 34 -23 34 -25 0 -4 -188 -305 -196 -314 -6
-6 -974 32 -974 38 0 4 28 40 61 81 33 41 90 119 126 173 l67 97 60 0 c34 0
224 -7 424 -15z m1191 -265 c216 -38 395 -71 398 -74 2 -2 -48 -47 -111 -100
l-115 -96 -247 28 -247 27 -63 145 c-35 79 -64 146 -64 148 0 2 12 1 28 -2 15
-4 204 -37 421 -76z m-707 -498 c98 -213 183 -401 189 -418 12 -29 9 -34 -86
-160 -54 -71 -101 -133 -105 -137 -4 -4 -42 68 -85 160 -43 92 -104 222 -135
288 -32 66 -81 171 -109 232 l-52 113 96 155 c54 85 100 155 104 155 3 -1 86
-175 183 -388z m-722 352 c228 -8 421 -16 427 -17 20 -3 -126 -226 -151 -232
-34 -7 -1218 -97 -1222 -92 -2 2 33 32 78 68 45 35 136 117 202 181 l121 117
65 -5 c36 -2 252 -11 480 -20z m1343 -145 c106 -12 194 -23 196 -25 2 -2 -23
-27 -55 -56 -33 -29 -94 -86 -136 -127 -43 -41 -80 -72 -83 -70 -13 14 -132
299 -124 299 5 0 96 -9 202 -21z m-1006 -245 c25 -52 43 -97 41 -98 -1 -2
-237 -65 -523 -140 -286 -76 -541 -143 -566 -151 l-46 -13 -109 101 c-60 55
-142 131 -181 169 l-73 68 39 25 c37 25 50 27 702 79 365 29 665 54 667 55 2
0 24 -42 49 -95z m-1159 -410 c188 -175 342 -320 342 -323 0 -7 -311 -164
-315 -159 -57 66 -535 693 -533 699 3 8 144 95 159 98 3 1 159 -141 347 -315z
m1270 174 c23 -50 39 -95 35 -99 -5 -3 -132 -57 -283 -119 -151 -62 -293 -121
-315 -131 -23 -10 -101 -43 -174 -74 l-133 -55 -142 132 c-77 72 -142 134
-143 137 -2 4 1071 295 1108 300 3 1 24 -40 47 -91z m-1549 -342 c144 -186
261 -339 259 -341 -8 -7 -185 -93 -204 -99 -18 -6 -60 41 -303 333 -155 187
-283 343 -284 347 -1 3 54 32 123 63 91 43 128 55 136 47 6 -6 129 -163 273
-350z m-297 -124 l286 -347 -115 -58 -116 -59 -32 34 c-18 18 -166 177 -330
352 l-298 319 143 48 c78 27 145 51 148 54 3 3 10 5 16 5 6 -1 140 -157 298
-348z m1997 143 l82 -176 -64 -102 c-94 -152 -100 -161 -171 -297 -36 -69 -66
-121 -66 -117 0 4 -23 179 -50 389 -28 209 -49 382 -47 385 8 7 212 92 223 93
6 0 48 -79 93 -175z m-2591 13 c39 -40 190 -201 336 -358 l266 -285 -118 -57
c-64 -32 -122 -58 -129 -58 -11 0 -724 731 -731 750 -2 5 23 14 55 20 32 6 99
22 148 34 50 13 93 24 96 25 4 0 38 -32 77 -71z m2282 -398 l52 -405 -62 -150
c-34 -82 -90 -208 -123 -279 -71 -150 -66 -155 -91 79 -9 83 -39 352 -67 598
-27 247 -49 458 -47 469 2 17 32 33 138 78 129 54 135 55 142 35 3 -11 30
-202 58 -425z m-2351 -5 l372 -385 -114 -57 -115 -57 -88 71 c-49 39 -280 222
-514 407 -234 186 -426 341 -428 345 -1 5 37 13 85 19 120 15 350 39 394 40
35 2 48 -10 408 -383z m-879 249 c44 -36 80 -69 78 -74 -2 -4 -154 -178 -338
-386 -184 -208 -369 -416 -410 -463 -86 -99 -487 -539 -540 -592 l-35 -35
-178 -13 c-98 -7 -180 -12 -182 -10 -4 5 435 557 540 679 44 51 148 167 231
259 83 91 248 276 367 411 l217 245 78 22 c42 12 80 22 84 22 3 1 43 -29 88
-65z m2840 50 c0 -3 32 -289 70 -635 39 -345 70 -640 70 -654 l0 -25 -165 0
-164 0 -5 33 c-16 97 -106 1172 -99 1175 5 1 64 27 133 56 118 51 160 64 160
50z m-3211 -91 c-14 -16 -79 -89 -145 -163 -65 -74 -204 -229 -309 -344 -254
-280 -303 -338 -601 -713 l-257 -322 -66 -6 c-36 -3 -87 -8 -113 -11 l-48 -6
0 39 c0 21 9 170 20 331 21 324 13 295 95 349 22 14 51 36 65 49 45 42 396
301 517 382 280 187 592 350 833 435 31 11 33 6 9 -20z m2877 -195 c7 -79 13
-148 14 -154 0 -7 -159 -106 -352 -220 -194 -115 -360 -216 -368 -224 -21 -21
-344 -210 -358 -210 -25 0 -226 140 -340 237 l-32 28 707 347 c389 191 710
345 712 343 2 -3 10 -69 17 -147z m-2260 41 l114 -91 -73 -82 c-40 -44 -163
-182 -273 -306 -251 -284 -250 -282 -487 -480 -110 -91 -248 -209 -308 -262
-60 -54 -119 -100 -131 -102 -28 -6 -242 -25 -246 -21 -1 1 88 101 199 221
111 120 229 251 262 289 33 39 185 210 336 380 151 171 322 363 379 428 57 64
107 117 109 117 3 0 57 -41 119 -91z m258 -205 c47 -37 86 -70 86 -73 0 -6
-437 -566 -545 -699 -27 -33 -54 -61 -60 -61 -12 0 -201 212 -198 223 1 4 35
44 75 90 436 491 532 596 544 592 7 -3 51 -35 98 -72z m2027 -101 c0 -21 4
-73 8 -116 l7 -79 -91 -66 c-49 -36 -94 -71 -100 -77 -15 -18 -542 -414 -559
-421 -7 -3 -79 36 -160 87 l-147 92 193 114 c106 63 201 122 211 131 26 23
609 370 625 371 7 1 12 -13 13 -36z m-1788 -88 c42 -33 76 -64 77 -69 0 -5
-17 -32 -38 -60 -21 -28 -74 -103 -117 -166 -44 -63 -83 -119 -87 -125 -5 -5
-52 -73 -104 -150 -52 -77 -104 -147 -115 -157 -10 -9 -19 -21 -19 -27 0 -14
-101 -161 -111 -161 -6 0 -136 140 -191 206 -17 20 -16 22 46 97 36 42 174
216 307 386 211 270 244 308 259 298 9 -7 51 -39 93 -72z m184 -147 c30 -22
58 -49 64 -60 5 -10 18 -18 28 -18 10 0 25 -7 32 -17 8 -9 61 -52 118 -95
l104 -78 -311 0 c-172 0 -312 3 -312 6 0 13 208 304 218 304 3 0 29 -19 59
-42z m1651 -303 c10 -115 16 -213 13 -217 -4 -4 -49 -4 -101 0 l-94 7 -52 145
-53 145 32 27 c18 14 75 60 127 102 l95 75 7 -37 c4 -20 16 -131 26 -247z
m-283 -75 c25 -68 45 -127 45 -132 0 -9 -201 -9 -243 1 -18 4 -36 20 -52 47
l-24 40 112 86 c62 47 113 85 115 83 1 -1 22 -57 47 -125z m-4240 -205 c-10
-159 -22 -283 -28 -286 -8 -6 -205 -23 -267 -24 -15 0 -16 64 -1 275 l6 94
150 133 c130 115 150 129 154 110 2 -12 -5 -148 -14 -302z m1704 253 c7 -12
69 -190 136 -396 l123 -374 -90 -136 c-75 -113 -92 -133 -98 -117 -4 11 -78
205 -164 432 -86 227 -156 415 -156 417 0 7 221 196 229 196 3 0 12 -10 20
-22z m1639 -18 c23 -16 44 -30 46 -30 3 0 78 -46 167 -102 152 -96 163 -105
185 -152 13 -28 22 -51 21 -52 -1 -1 -312 20 -692 47 -379 27 -693 49 -697 49
-7 0 139 217 170 253 14 16 45 17 387 17 l372 0 41 -30z m-1377 -273 c85 -94
159 -179 166 -188 10 -13 1 -32 -54 -115 -36 -54 -69 -103 -73 -107 -4 -5 -51
121 -104 280 -92 277 -100 303 -92 303 2 0 72 -78 157 -173z m2193 -224 l228
-386 -23 -19 c-42 -32 -200 -138 -207 -138 -4 0 -69 132 -144 293 -75 161
-161 344 -191 408 l-55 116 76 57 c42 31 78 56 81 56 4 0 109 -174 235 -387z
m-2583 -124 c89 -233 164 -432 166 -441 5 -16 -99 -188 -113 -188 -3 0 -40 19
-83 42 l-77 42 -84 220 c-47 121 -91 225 -97 232 -7 7 -13 22 -13 33 0 11 -22
82 -50 157 l-49 137 42 37 c91 80 190 160 193 157 2 -2 76 -194 165 -428z
m3148 392 c162 -1 192 -3 188 -15 -19 -48 -200 -316 -215 -316 -3 0 -95 -11
-204 -25 -110 -14 -203 -23 -207 -20 -8 4 -231 378 -231 386 0 2 107 1 237 -2
131 -4 325 -7 432 -8z m-5077 -164 c-4 -80 -11 -149 -14 -153 -8 -7 -333 -36
-359 -32 -12 2 44 57 179 176 108 95 198 169 199 165 2 -5 0 -75 -5 -156z
m3430 53 c391 -28 713 -52 715 -53 5 -5 63 -136 63 -142 0 -4 -54 -32 -121
-63 l-121 -57 -626 52 c-345 29 -638 52 -652 53 -15 0 -45 17 -75 43 l-49 43
60 87 c36 53 66 87 77 87 10 0 338 -23 729 -50z m-1877 -262 c32 -90 62 -164
67 -166 4 -2 8 -10 8 -18 0 -8 27 -85 60 -171 33 -86 59 -160 58 -164 -2 -4
-70 27 -153 70 l-150 78 -3 248 c-2 243 -2 249 19 271 12 13 25 21 29 19 4 -2
33 -77 65 -167z m-165 -31 l0 -144 -1011 -7 c-557 -3 -1014 -5 -1016 -3 -3 4
108 98 158 135 15 10 747 78 1059 97 41 3 219 18 395 34 176 16 341 29 368 30
l47 1 0 -143z m1463 -137 c171 -144 313 -264 315 -269 1 -5 -37 -36 -86 -69
l-88 -61 -269 269 -268 268 39 61 c21 34 40 61 42 61 1 0 143 -117 315 -260z
m1498 -55 c59 -126 109 -235 109 -240 0 -11 -162 -95 -184 -95 -8 0 -49 93
-109 248 l-95 247 72 37 c39 21 77 36 84 35 8 -1 63 -105 123 -232z m-1041
175 c272 -22 511 -43 529 -46 33 -5 29 -9 -100 -70 l-134 -65 -315 25 c-174
14 -323 26 -332 26 -9 0 -62 38 -118 85 l-102 85 38 0 c21 0 261 -18 534 -40z
m1690 22 c0 -4 -49 -56 -109 -116 l-109 -108 -55 93 c-30 52 -53 96 -51 99 6
5 244 37 292 39 17 0 32 -2 32 -7z m-2306 -311 l258 -258 -93 -66 -94 -66
-208 207 c-115 114 -217 219 -228 235 l-20 27 57 90 c31 50 59 90 63 90 3 0
122 -116 265 -259z m1354 197 c11 -29 52 -135 91 -236 38 -100 71 -189 73
-197 4 -17 -181 -110 -193 -98 -9 9 -219 461 -219 472 0 8 199 110 217 110 6
1 20 -23 31 -51z m-186 -319 c59 -129 108 -236 108 -239 0 -7 -191 -102 -196
-98 -8 9 -254 459 -254 466 1 9 212 111 225 108 5 -1 58 -108 117 -237z
m-2474 39 l-3 -193 -25 0 c-14 0 -555 6 -1203 14 l-1177 14 -10 36 c-24 94
-29 82 62 138 46 28 119 77 163 109 l80 59 415 5 c228 3 704 6 1058 8 l642 2
-2 -192z m2092 150 c20 -2 10 -11 -55 -44 -44 -23 -108 -54 -142 -69 l-62 -27
-100 83 c-56 46 -101 86 -101 89 0 4 353 -20 460 -32z m-770 -484 c0 -13 -136
-107 -149 -102 -5 1 -95 91 -200 199 l-190 196 52 77 51 77 218 -218 c120
-120 218 -223 218 -229z m887 174 c70 -127 129 -235 131 -238 1 -3 -39 -28
-89 -55 -88 -46 -93 -47 -106 -29 -42 58 -274 446 -269 451 4 4 174 90 203
102 1 1 59 -103 130 -231z m-2017 83 c100 -50 369 -190 377 -195 4 -3 -128
-201 -136 -204 -4 -1 -92 38 -195 88 l-186 91 0 145 c0 80 3 144 8 142 4 -2
63 -32 132 -67z m1699 -87 c35 -58 62 -106 60 -108 -2 -1 -145 -107 -317 -235
-251 -188 -316 -232 -331 -225 -23 11 -210 157 -210 164 -1 6 256 183 272 189
7 2 21 12 32 22 24 21 417 297 425 298 3 0 34 -47 69 -105z m-4341 -46 c18
-77 30 -143 28 -146 -4 -4 -451 101 -486 114 -8 3 59 32 150 63 91 31 188 69
215 84 28 14 52 26 55 27 3 0 20 -64 38 -142z m3453 -130 l130 -137 -41 -27
c-35 -23 -45 -26 -61 -16 -17 11 -342 264 -362 282 -5 4 13 40 39 79 l48 72
59 -58 c32 -32 117 -120 188 -195z m-2101 112 c536 -6 1003 -13 1037 -16 l62
-5 0 -160 1 -160 -57 6 c-32 3 -121 10 -198 15 -181 13 -253 19 -1105 91 -393
33 -780 66 -859 72 l-144 12 -18 75 c-10 41 -18 76 -19 78 0 4 333 2 1300 -8z
m-1610 -115 c151 -36 275 -67 277 -68 1 -1 -32 -39 -73 -85 l-76 -82 -301 1
c-166 1 -376 5 -467 8 l-165 6 80 56 c164 115 402 244 434 234 9 -2 140 -34
291 -70z m3591 -127 c163 -127 228 -184 214 -185 -11 -2 -155 5 -320 15 l-300
17 -3 51 c-3 50 0 57 75 173 43 67 83 119 89 117 6 -2 116 -87 245 -188z
m1163 49 c35 -58 56 -101 50 -106 -5 -5 -108 -60 -229 -124 -121 -63 -260
-138 -308 -166 l-89 -51 -51 41 c-29 22 -52 45 -52 49 0 13 598 460 610 456 6
-1 37 -46 69 -99z m-1804 -24 l180 -87 0 -129 c0 -70 -3 -126 -7 -124 -5 2
-71 39 -148 82 -77 43 -157 89 -177 102 l-38 23 0 110 c0 61 2 110 5 110 3 0
86 -39 185 -87z m-2401 1 c6 -6 22 -316 17 -321 -3 -3 -250 161 -333 222 -2 1
21 28 49 60 l52 58 105 -7 c58 -4 107 -9 110 -12z m284 -21 l47 -6 0 -56 c0
-31 -5 -217 -12 -415 -9 -269 -15 -359 -24 -363 -7 -3 -55 8 -106 24 l-93 29
-6 104 c-4 58 -9 166 -12 240 -14 331 -18 407 -22 434 l-5 29 92 -7 c51 -4
114 -10 141 -13z m354 -30 l53 -6 -5 -36 c-3 -20 -24 -220 -46 -445 -22 -226
-42 -412 -44 -415 -10 -10 -240 67 -240 80 0 8 6 200 14 428 l14 414 101 -7
c56 -4 125 -10 153 -13z m281 -23 c52 -5 96 -10 98 -13 2 -2 -14 -190 -36
-417 l-40 -414 -42 -55 c-23 -31 -42 -57 -44 -59 -3 -5 -187 50 -197 59 -8 6
65 823 79 887 5 26 28 27 182 12z m305 -26 l99 -7 -7 -156 c-4 -86 -12 -165
-18 -176 -5 -11 -26 -40 -46 -65 -50 -62 -49 -60 -155 -205 -53 -71 -96 -123
-96 -115 0 8 16 175 35 370 19 195 35 359 35 363 0 5 12 6 28 3 15 -3 71 -8
125 -12z m305 -29 c2 -2 -34 -53 -79 -114 -46 -61 -85 -109 -87 -107 -1 2 0
56 4 121 l7 117 76 -7 c42 -4 77 -8 79 -10z m-1670 -150 l161 -110 5 -45 c3
-25 8 -123 12 -219 l7 -175 -26 20 c-87 64 -556 450 -557 457 0 5 42 55 93
112 l92 104 26 -17 c14 -9 98 -66 187 -127z m2051 125 l266 -21 80 -46 c44
-26 126 -72 181 -102 162 -89 145 -60 142 -248 l-3 -162 -70 44 c-465 287
-846 522 -870 537 -38 23 -53 23 274 -2z m-2581 -30 l204 0 -40 -47 c-22 -27
-75 -85 -118 -129 l-79 -81 -506 -33 c-279 -18 -512 -31 -518 -29 -14 5 143
180 239 265 l74 67 270 -6 c148 -4 361 -7 474 -7z m2666 -249 c221 -136 441
-272 489 -302 49 -29 93 -61 98 -71 5 -10 8 -92 7 -184 l-3 -165 -41 29 c-22
16 -276 190 -565 387 -288 196 -530 363 -538 370 -12 12 -4 27 54 105 47 63
72 89 83 85 8 -3 195 -117 416 -254z m1021 184 c165 -9 312 -19 326 -24 14 -4
74 -46 133 -92 l107 -84 -27 -21 c-14 -12 -43 -30 -63 -41 l-36 -20 -410 61
-410 61 -3 88 -3 87 43 0 c24 0 178 -7 343 -15z m-3304 -376 c151 -122 280
-228 288 -235 12 -10 2 -32 -60 -138 -62 -106 -75 -123 -88 -113 -8 7 -151
125 -317 263 l-303 251 91 102 c50 56 97 100 103 97 7 -2 136 -104 286 -227z
m2206 -132 c285 -195 553 -378 596 -407 75 -53 77 -55 77 -95 0 -40 -3 -44
-56 -80 -42 -27 -61 -35 -75 -28 -39 18 -1199 778 -1199 786 0 9 129 177 135
177 2 0 237 -159 522 -353z m1098 242 c198 -29 363 -55 368 -59 4 -3 -30 -33
-75 -67 -46 -33 -105 -78 -133 -100 l-50 -40 -231 52 c-127 28 -239 55 -248
58 -13 5 -16 23 -16 107 0 73 3 100 13 100 6 1 174 -23 372 -51z m-3794 -16
c-17 -21 -55 -64 -84 -97 l-53 -58 -505 -99 c-277 -54 -525 -102 -551 -107
-46 -9 -47 -8 -36 12 23 45 188 283 207 300 19 17 73 23 489 51 257 18 489 33
515 34 l49 1 -31 -37z m2609 -488 c311 -202 571 -373 577 -379 10 -9 -8 -22
-75 -58 -48 -25 -115 -55 -149 -67 l-62 -21 -515 363 c-283 199 -515 366 -515
371 -1 5 29 49 65 98 63 84 68 88 88 75 11 -8 275 -179 586 -382z m-2320 126
c162 -134 303 -251 312 -260 17 -15 15 -21 -33 -101 -28 -47 -53 -87 -54 -89
-4 -4 -725 488 -725 495 0 14 186 211 195 206 5 -3 143 -116 305 -251z m3358
118 c111 -24 201 -47 200 -50 -2 -4 -48 -47 -102 -96 l-100 -89 -105 18 c-58
10 -109 18 -113 18 -5 0 -8 32 -8 70 0 39 4 70 9 70 21 0 22 39 2 59 -26 26
-28 55 -3 49 9 -2 108 -24 220 -49z m-3919 -61 c-41 -45 -101 -110 -134 -145
l-60 -63 -445 -80 c-245 -44 -458 -83 -474 -86 l-29 -6 63 118 c34 66 66 124
71 129 9 9 1008 211 1058 214 20 1 13 -10 -50 -81z m1399 -103 c4 -3 -448
-733 -470 -762 -7 -9 -35 8 -106 64 -54 42 -98 77 -100 78 -2 2 90 160 203
352 l206 350 132 -40 c73 -21 134 -41 135 -42z m1217 -274 l490 -346 -55 -12
c-75 -17 -264 -27 -333 -19 -54 7 -70 17 -399 258 -189 138 -349 256 -357 263
-11 11 0 30 63 114 49 64 81 99 89 95 7 -4 232 -163 502 -353z m-2224 73 c197
-135 359 -250 359 -256 0 -21 -73 -129 -84 -125 -13 6 -789 456 -794 462 -6 6
140 165 151 165 5 0 170 -111 368 -246z m1204 145 c61 -18 113 -35 117 -38 3
-3 -74 -141 -171 -305 l-177 -300 -120 -41 c-66 -22 -146 -56 -178 -74 l-59
-33 -22 24 -22 23 245 393 c182 291 249 391 261 388 9 -3 66 -19 126 -37z
m2200 -45 c28 -4 55 -9 62 -13 8 -4 -9 -30 -50 -76 -34 -39 -74 -86 -89 -105
l-28 -35 0 123 0 124 28 -6 c15 -3 50 -8 77 -12z m-1952 -30 l47 -16 0 -121
c0 -67 3 -172 6 -232 l7 -111 -109 -12 c-60 -7 -165 -23 -233 -37 -69 -14
-126 -24 -127 -22 0 1 73 129 165 284 104 178 172 283 182 283 8 0 36 -7 62
-16z m-1960 -54 c40 -26 47 -35 47 -63 0 -17 13 -264 30 -546 16 -283 28 -516
27 -518 -2 -1 -56 -9 -120 -16 -116 -13 -118 -13 -122 7 -4 22 -66 1073 -65
1117 0 24 5 28 48 37 79 16 104 13 155 -18z m-221 -585 c19 -313 33 -572 32
-574 -4 -5 -237 -31 -242 -26 -4 4 -57 909 -63 1073 l-2 66 114 21 c63 12 117
19 120 16 4 -3 22 -262 41 -576z m2596 360 c165 -121 294 -221 286 -223 -8 -2
-62 2 -122 8 -59 6 -188 14 -288 17 l-181 6 -7 105 c-9 150 -8 314 3 310 5 -1
144 -102 309 -223z m-2891 -397 c17 -310 30 -564 28 -566 -2 -2 -258 19 -261
22 -2 1 -64 933 -67 1006 l-2 55 110 21 c61 12 121 22 135 23 l26 1 31 -562z
m801 455 c50 -29 92 -59 92 -66 0 -7 9 -192 21 -413 20 -374 20 -403 5 -426
-15 -23 -27 -27 -127 -38 -61 -6 -113 -10 -115 -7 -4 4 -63 961 -64 1035 l0
24 48 -27 c26 -15 89 -52 140 -82z m-1154 5 c10 -81 67 -990 62 -995 -6 -6
-226 13 -233 21 -3 3 -21 193 -40 424 l-35 418 34 75 35 75 59 11 c110 19 112
19 118 -29z m1496 -203 c74 -43 137 -79 138 -81 2 -1 -63 -115 -144 -253 -81
-138 -149 -249 -152 -247 -3 4 -38 564 -42 684 0 10 9 8 33 -6 17 -11 93 -54
167 -97z m-1751 -425 c16 -190 29 -345 28 -346 -1 0 -63 5 -137 12 -74 7 -140
13 -147 13 -13 1 2 64 68 276 38 120 114 339 141 403 15 35 12 55 47 -358z
m2076 204 l135 -106 -39 -43 c-21 -23 -49 -61 -62 -83 -13 -23 -26 -42 -29
-42 -3 1 -58 51 -123 113 l-117 112 45 78 c25 42 48 77 50 77 2 0 65 -48 140
-106z m-22 -360 c-2 -22 -4 -98 -5 -171 -2 -84 -7 -129 -13 -125 -18 11 -375
294 -375 297 0 2 34 62 76 134 l77 131 121 -114 c117 -110 121 -115 119 -152z
m-134 -271 l135 -108 32 -160 c17 -88 30 -161 29 -163 -2 -2 -472 291 -482
301 -2 2 -21 53 -42 113 l-39 109 39 68 40 67 77 -60 c42 -33 137 -108 211
-167z m-390 11 c11 -31 21 -67 21 -80 0 -30 -109 -496 -119 -506 -7 -8 -291
-23 -291 -15 0 9 130 631 133 633 3 2 172 21 208 23 23 1 29 -6 48 -55z
m-1644 30 c77 -8 174 -16 215 -19 41 -2 176 -13 299 -24 122 -12 224 -21 226
-21 4 0 -86 -233 -94 -242 -5 -6 -860 89 -868 96 -2 2 44 190 52 214 5 14 -4
15 170 -4z m1331 -21 c-3 -10 -33 -151 -67 -313 -33 -162 -63 -298 -65 -302
-2 -3 -57 -9 -121 -12 -65 -4 -130 -9 -145 -11 -21 -3 -28 0 -28 11 0 15 158
605 164 611 2 3 210 29 249 32 13 1 17 -4 13 -16z m-327 -55 c-5 -18 -42 -156
-83 -306 -41 -150 -76 -275 -78 -277 -5 -5 -282 -24 -286 -20 -3 2 81 218 113
290 7 17 38 96 69 177 l57 147 67 6 c37 4 72 8 77 10 6 2 24 4 42 4 31 1 31 0
22 -31z m770 -329 c33 -96 61 -180 61 -186 0 -10 -111 -23 -193 -23 -32 0 -39
3 -35 18 3 9 24 101 48 205 24 103 47 181 51 175 4 -7 34 -92 68 -189z m249 1
l230 -145 30 -110 c17 -60 29 -111 28 -113 -7 -6 -402 161 -413 174 -6 9 -34
81 -61 162 -28 81 -54 155 -58 166 -4 11 -3 17 3 15 6 -2 114 -69 241 -149z
m-1833 94 c220 -25 407 -49 417 -52 14 -6 12 -19 -24 -107 -22 -55 -43 -104
-47 -108 -8 -8 -809 68 -818 77 -5 5 16 112 38 199 5 20 15 37 22 37 7 0 192
-20 412 -46z m-76 -284 c217 -22 395 -41 397 -43 6 -5 -8 -47 -16 -47 -4 0 -5
-57 -2 -126 l5 -127 -64 7 c-35 3 -226 15 -424 27 -198 12 -362 23 -364 25 -4
4 49 305 56 317 5 9 -38 13 412 -33z m1987 -149 c120 -49 212 -92 204 -94 -8
-3 -382 -23 -830 -46 -448 -23 -841 -44 -872 -47 l-58 -6 0 100 0 100 58 6
c31 4 109 9 172 12 63 2 309 17 545 33 610 40 522 47 781 -58z m264 -201 l16
-55 -77 -57 -78 -58 -841 0 -840 0 0 65 c0 36 3 65 8 66 53 4 1762 96 1777 95
14 -1 23 -15 35 -56z m-2340 -10 c168 -11 322 -20 343 -20 20 0 37 -3 37 -7
-1 -5 -88 -59 -195 -121 l-194 -112 -208 20 c-114 12 -209 23 -211 25 -4 4 25
198 33 223 6 16 34 15 395 -8z m468 -259 c-5 -15 -5 -28 2 -35 6 -6 10 -66 10
-147 l0 -138 -376 -463 c-207 -255 -385 -471 -394 -482 -18 -18 -22 -16 -147
69 -70 48 -134 93 -142 100 -11 11 68 119 461 631 427 557 479 622 528 651
l55 33 6 -98 c3 -53 2 -108 -3 -121z m1920 117 c46 -160 63 -243 68 -338 l5
-105 -43 46 c-24 25 -91 100 -150 166 l-108 121 103 76 c56 41 104 75 107 76
3 0 11 -19 18 -42z m-2164 -50 c-26 -44 -851 -1111 -862 -1116 -7 -2 -21 2
-29 11 -15 14 -12 29 35 169 50 146 113 386 127 479 l7 44 361 212 c199 117
363 213 365 213 2 0 0 -6 -4 -12z m1896 -22 c0 -3 -64 -50 -142 -107 -79 -56
-152 -110 -163 -119 -19 -17 -48 -13 -620 81 -330 54 -615 101 -632 104 -24 4
-33 11 -33 25 0 20 13 20 795 20 437 0 795 -2 795 -4z m-2376 -72 c88 -9 162
-17 164 -19 2 -1 -83 -53 -188 -115 -106 -61 -194 -109 -197 -106 -3 3 2 49
11 103 24 142 26 153 38 153 6 0 83 -7 172 -16z m2540 -180 c108 -121 166
-194 166 -208 0 -61 -85 -301 -114 -326 -11 -8 -67 45 -257 241 -134 138 -244
256 -244 262 0 7 263 209 282 216 1 1 76 -83 167 -185z m-1569 135 c77 -12
143 -25 147 -28 3 -3 -2 -161 -13 -351 -10 -190 -18 -362 -19 -382 l0 -37
-142 50 c-78 27 -143 51 -144 52 -1 1 -5 166 -9 366 l-7 364 23 -6 c13 -3 87
-15 164 -28z m398 -65 c83 -14 153 -26 154 -28 5 -4 -60 -820 -65 -826 -2 -3
-75 20 -163 50 -159 54 -159 54 -159 85 0 57 31 660 36 703 6 51 -3 50 197 16z
m450 -74 c103 -16 190 -30 193 -30 4 0 3 -8 0 -17 -5 -13 -466 -740 -483 -762
-18 -24 -15 72 13 414 18 220 33 408 33 418 1 15 7 17 29 13 15 -3 112 -19
215 -36z m491 -336 l249 -255 -36 -52 c-44 -63 -176 -217 -185 -217 -4 1 -103
124 -220 274 l-212 274 72 116 c40 63 75 115 78 116 3 0 117 -115 254 -256z
m-1564 -59 l0 -180 -221 -350 c-121 -192 -224 -356 -228 -364 -7 -11 -42 9
-154 85 -81 54 -145 102 -144 106 1 4 166 209 367 456 216 266 368 444 372
438 4 -6 8 -92 8 -191z m1340 -230 c111 -142 204 -265 207 -271 4 -10 -206
-208 -229 -216 -4 -2 -81 114 -172 257 -138 218 -162 263 -154 279 23 42 139
218 142 215 2 -2 95 -121 206 -264z m-974 -95 c175 -61 328 -114 339 -119 11
-6 30 -13 43 -16 22 -6 22 -9 22 -174 l0 -168 -457 144 c-251 79 -458 145
-459 146 -4 4 181 297 187 297 3 0 150 -50 325 -110z m745 -172 c83 -133 152
-248 153 -255 1 -8 -96 -90 -214 -184 l-215 -170 -6 143 c-4 79 -7 226 -8 329
l-1 185 62 97 c34 53 65 97 69 97 4 0 76 -109 160 -242z m-2021 -164 c143 -97
258 -179 256 -182 -5 -4 -707 17 -713 22 0 0 38 79 85 174 56 111 91 171 99
168 7 -3 130 -85 273 -182z m1240 -54 c234 -74 431 -138 438 -143 8 -7 12 -50
12 -152 0 -139 -1 -143 -24 -158 -22 -15 -55 -10 -491 67 l-468 82 -54 125
-55 125 67 106 66 107 42 -13 c23 -7 233 -73 467 -146z"/>
<path d="M18079 10320 c-55 -45 -257 -236 -258 -243 -1 -4 -29 -43 -63 -86
-35 -44 -92 -127 -128 -186 -36 -59 -71 -113 -77 -120 -7 -8 -13 -18 -13 -23
0 -5 -27 -65 -60 -133 -32 -68 -106 -245 -164 -393 -58 -148 -109 -272 -114
-275 -5 -3 -12 -19 -15 -36 -5 -26 -58 -146 -85 -195 -5 -8 -21 -40 -37 -70
-88 -172 -235 -332 -407 -444 -139 -90 -346 -184 -543 -245 -38 -13 -79 -26
-90 -31 -11 -5 -74 -30 -140 -56 -293 -116 -723 -362 -1028 -587 -40 -29 -92
-65 -117 -80 -25 -14 -54 -34 -65 -44 -11 -10 -49 -38 -85 -62 -501 -341
-1201 -1034 -1867 -1851 -10 -12 -155 -197 -271 -346 -85 -108 -420 -589 -462
-662 -9 -15 -60 -101 -115 -192 -190 -318 -328 -611 -441 -940 -137 -403 -392
-730 -789 -1017 -151 -109 -418 -258 -585 -327 -36 -15 -85 -36 -109 -47 -69
-32 -385 -134 -506 -164 -131 -33 -287 -105 -389 -181 -75 -57 -294 -254 -295
-266 -1 -5 -31 -48 -68 -97 -38 -49 -93 -130 -123 -181 -30 -50 -63 -100 -72
-111 -10 -10 -18 -23 -18 -28 0 -4 -24 -60 -54 -123 -44 -93 -94 -213 -193
-465 -6 -16 38 -18 54 -2 8 8 57 8 174 0 90 -6 248 -11 352 -11 l187 0 11 28
c15 41 110 209 129 229 9 10 19 25 22 34 4 9 43 61 87 117 45 55 81 108 81
118 0 14 3 15 11 7 9 -9 21 -4 50 21 53 45 206 129 341 186 214 90 470 166
807 240 248 55 483 151 676 277 468 307 846 840 1121 1578 20 55 43 103 50
108 7 4 11 14 8 22 -10 24 206 445 326 635 5 8 44 71 86 140 98 159 255 394
266 398 4 2 8 8 8 14 0 14 306 442 348 486 17 19 32 38 32 42 0 17 401 514
528 656 48 53 102 115 120 138 72 89 339 371 499 526 238 233 614 560 644 560
5 0 25 15 43 33 31 31 240 177 297 208 14 8 46 27 70 44 24 16 118 66 209 112
91 45 170 87 177 93 7 5 24 10 40 10 15 0 99 20 187 45 141 39 206 60 331 107
76 29 289 143 379 203 256 170 480 407 651 685 82 134 202 383 264 546 28 76
56 148 61 159 5 11 16 45 25 75 16 51 41 110 100 238 17 36 25 69 24 105 l0
52 -47 -92 -47 -93 -40 0 c-22 0 -50 3 -61 6 -22 6 -22 9 -28 382 -4 208 -9
422 -12 476 l-6 99 100 98 c56 55 105 99 110 99 12 0 23 -104 15 -141 -3 -15
0 -35 6 -46 8 -13 10 19 11 130 0 81 -2 147 -3 147 -2 0 -15 -9 -28 -20z
m-245 -798 l8 -422 -114 6 c-62 4 -114 7 -114 8 -1 0 -7 120 -12 266 l-11 264
60 101 c33 55 83 131 111 170 43 59 52 66 58 50 4 -11 11 -210 14 -443z m-280
-196 l7 -209 -91 6 c-51 3 -94 8 -97 10 -5 5 79 217 131 331 20 44 38 77 40
75 2 -2 7 -98 10 -213z m41 -262 c121 -8 258 -17 304 -20 47 -2 86 -6 87 -7 2
-1 -12 -42 -29 -90 l-32 -87 -331 0 -332 0 40 102 c21 56 42 106 44 110 6 10
-14 10 249 -8z m305 -264 c0 -6 -17 -55 -37 -110 l-37 -99 -40 -5 c-50 -7
-509 -36 -558 -36 -29 0 -40 6 -56 31 l-20 32 35 76 c19 42 39 86 44 99 l9 22
330 0 c214 0 330 -4 330 -10z m-576 -518 c102 -145 186 -268 186 -274 0 -11
-103 -149 -124 -167 -17 -14 -3 -36 -204 326 l-140 253 41 70 c23 38 45 66 48
62 4 -4 90 -126 193 -270z m459 211 c-15 -37 -72 -155 -78 -161 -4 -4 -269
-32 -307 -32 -23 0 -37 15 -94 96 -36 52 -64 97 -62 99 6 6 382 32 480 34 l77
1 -16 -37z m-603 -424 l159 -284 -27 -26 c-26 -25 -29 -26 -126 -20 l-100 6
-117 225 -117 224 59 63 c32 35 66 75 76 89 9 15 20 21 25 16 5 -5 80 -137
168 -293z m486 184 c-10 -26 -106 -182 -116 -188 -4 -3 -38 37 -74 87 -36 51
-63 94 -58 96 15 5 159 19 206 21 41 1 47 -1 42 -16z m-747 -294 c56 -110 101
-203 98 -206 -6 -6 -304 14 -316 21 -19 12 -133 230 -122 234 6 2 60 37 119
77 59 40 109 73 112 74 3 0 52 -90 109 -200z m-376 -11 c9 -18 35 -66 57 -107
l42 -73 -49 6 c-26 3 -148 11 -271 17 -122 7 -219 15 -215 19 4 3 62 26 128
49 66 24 156 60 200 81 44 21 83 39 86 39 3 1 13 -14 22 -31z m-523 -186 c0
-10 -14 -119 -31 -243 -17 -123 -35 -261 -40 -306 -20 -170 -18 -165 -79 -197
-30 -15 -95 -50 -144 -77 -49 -27 -90 -48 -92 -46 -5 6 164 774 176 797 7 12
180 89 203 90 4 0 7 -8 7 -18z m650 -42 c272 -16 513 -30 535 -30 l40 -1 -60
-55 c-33 -31 -96 -83 -139 -115 -62 -46 -86 -59 -105 -55 -15 3 -219 31 -456
62 -236 31 -431 58 -433 60 -2 1 2 38 8 83 l12 81 52 0 c28 0 274 -13 546 -30z
m-985 -340 c-35 -157 -67 -298 -69 -315 -7 -43 -35 -177 -42 -197 -3 -10 -53
-50 -112 -89 -59 -40 -118 -80 -131 -91 -13 -10 -26 -17 -28 -14 -7 7 229 853
249 889 8 16 187 112 194 104 2 -1 -26 -131 -61 -287z m-205 143 c0 -5 -29
-111 -65 -238 -36 -126 -92 -329 -125 -450 -56 -205 -62 -222 -92 -245 -18
-14 -77 -62 -132 -108 -83 -67 -102 -79 -104 -63 -9 55 34 252 118 546 51 176
97 337 103 358 11 42 33 59 197 156 88 51 100 56 100 44z m1003 -47 c219 -30
401 -57 404 -59 13 -14 -326 -177 -356 -171 -9 2 -130 15 -269 30 l-253 28 5
25 c3 14 10 65 16 114 11 79 14 87 34 87 11 0 200 -24 419 -54z m-1398 -311
c-24 -83 -52 -176 -61 -208 -8 -32 -19 -57 -23 -55 -4 2 -76 28 -159 58 -151
54 -152 55 -130 73 53 41 411 287 414 284 2 -1 -17 -70 -41 -152z m1143 63
c114 -12 197 -25 189 -29 -14 -8 -232 -67 -365 -99 l-74 -18 6 22 c2 11 8 49
12 84 4 35 11 62 18 62 6 0 102 -9 214 -22z m-1408 -313 c91 -32 167 -60 169
-62 3 -2 -7 -46 -22 -98 -15 -52 -27 -102 -27 -110 0 -8 -6 -15 -12 -15 -7 0
-127 42 -266 93 l-253 92 33 28 c57 48 192 138 203 134 5 -2 84 -30 175 -62z
m-181 -236 c152 -56 279 -104 282 -108 3 -3 -1 -58 -10 -121 -14 -103 -18
-115 -36 -114 -23 0 -684 286 -685 295 0 7 161 148 169 149 3 0 129 -46 280
-101z m-505 -101 c-14 -24 -436 -643 -443 -651 -4 -4 -31 22 -61 59 l-53 65
109 111 c110 111 444 428 451 428 2 0 1 -6 -3 -12z m176 -58 c63 -28 116 -53
118 -55 3 -2 -518 -723 -548 -758 -3 -4 -41 33 -84 83 l-77 90 162 237 c224
328 310 453 313 453 1 0 53 -23 116 -50z m276 -122 c63 -27 93 -46 90 -54 -3
-7 -109 -163 -236 -347 -192 -278 -360 -496 -389 -504 -8 -2 -136 153 -136
167 0 14 558 779 568 780 5 0 51 -19 103 -42z m218 -95 l29 -15 -49 -47 c-27
-26 -114 -110 -193 -187 -160 -154 -161 -160 32 119 118 171 110 166 181 130z
m-1134 -441 c66 -79 120 -145 120 -147 0 -45 -53 -591 -58 -600 -4 -6 -65 -85
-137 -175 l-130 -164 -3 44 c-1 25 6 291 16 591 16 485 20 550 36 574 9 14 21
25 26 23 5 -2 63 -67 130 -146z m-244 -542 c-9 -256 -16 -499 -16 -540 l0 -75
-136 -187 c-146 -200 -138 -194 -191 -151 l-23 18 40 575 c22 316 40 584 40
595 0 12 60 87 148 185 l147 164 3 -60 c2 -32 -4 -268 -12 -524z m503 234 c45
-52 81 -99 81 -104 0 -12 -203 -250 -209 -245 -6 7 32 445 40 445 4 0 43 -43
88 -96z m-878 -586 c-21 -296 -39 -540 -42 -542 -3 -3 -272 177 -298 200 -4 4
45 447 54 491 3 12 42 66 87 120 140 169 231 274 233 271 2 -2 -14 -245 -34
-540z m-348 55 c-2 -16 -12 -99 -22 -186 -11 -88 -22 -161 -25 -164 -5 -5 -26
8 -118 74 l-47 34 86 112 c77 100 123 157 128 157 1 0 0 -12 -2 -27z m87 -513
c113 -79 231 -161 262 -183 l57 -39 -35 -48 c-44 -62 -44 -62 -142 -98 l-83
-32 -280 196 c-182 127 -277 199 -272 207 3 7 42 60 86 119 l79 108 61 -44
c34 -24 154 -108 267 -186z m-222 -264 c116 -81 212 -151 212 -155 0 -4 -89
-41 -197 -83 -140 -53 -203 -73 -215 -67 -9 5 -82 54 -163 110 -96 66 -145
106 -141 115 6 17 163 253 184 276 14 17 18 16 61 -15 25 -18 142 -100 259
-181z m-398 -232 c77 -52 140 -99 140 -103 0 -4 -101 -46 -225 -93 l-225 -85
0 52 c0 47 7 64 82 189 45 75 83 136 85 136 2 0 66 -43 143 -96z m696 -86
c-62 -95 -127 -198 -145 -228 l-33 -55 -424 -214 c-233 -118 -427 -212 -429
-209 -6 5 14 424 20 444 3 12 137 66 390 159 72 26 139 52 150 57 48 21 561
217 572 217 7 1 -39 -77 -101 -171z m-1063 -240 c-1 -24 -7 -140 -13 -258 -15
-287 -18 -348 -41 -745 -11 -187 -19 -351 -19 -365 2 -63 -22 -436 -28 -441
-4 -3 -84 -3 -177 0 l-171 6 47 405 c93 799 85 755 184 995 62 149 207 445
218 445 1 0 1 -19 0 -42z m803 -180 c-87 -154 -128 -231 -196 -372 l-77 -159
-259 -102 -259 -102 -3 41 c-3 49 12 334 19 340 8 7 784 395 792 395 4 1 -3
-18 -17 -41z m-323 -670 c-15 -40 -47 -122 -72 -182 l-46 -109 -179 -84 c-99
-46 -184 -83 -189 -83 -12 0 0 321 12 333 8 8 479 195 493 196 4 1 -4 -32 -19
-71z m-923 -474 c-28 -242 -53 -449 -55 -461 -5 -23 -7 -23 -176 -23 l-170 0
7 58 c3 31 14 111 23 177 l17 120 83 96 c114 132 201 256 263 376 29 56 54
100 56 98 2 -1 -20 -200 -48 -441z m714 -6 c-95 -190 -282 -488 -306 -488 -9
0 -4 186 11 370 l6 74 165 78 c91 43 168 78 173 78 4 0 -18 -51 -49 -112z
m-1145 -310 c-10 -73 -18 -141 -19 -150 0 -16 -15 -18 -172 -17 -172 0 -173 0
-148 19 14 11 70 53 125 94 55 40 129 99 164 130 36 31 65 56 66 56 1 0 -6
-60 -16 -132z m734 -224 l76 -7 -59 -71 c-32 -39 -93 -106 -134 -148 l-75 -78
-590 0 -590 0 -5 33 c-3 17 -11 61 -17 97 -6 35 -7 66 -2 67 4 2 51 27 103 57
l95 54 561 1 c309 0 595 -2 637 -5z m-1393 -484 c28 -173 52 -324 55 -335 4
-18 -9 -24 -121 -53 -69 -19 -128 -32 -131 -29 -4 5 -32 551 -33 655 0 31 4
34 83 71 71 33 83 36 89 22 4 -9 30 -158 58 -331z m-266 -95 c9 -187 12 -342
8 -346 -8 -7 -218 -79 -230 -79 -9 0 -27 383 -27 578 l0 104 115 42 c63 24
116 43 117 42 1 -1 9 -154 17 -341z m-299 54 c6 -138 5 -183 -5 -189 -7 -4
-78 -11 -158 -15 -80 -4 -211 -13 -291 -20 -80 -7 -149 -10 -153 -6 -3 3 -10
42 -13 87 l-7 81 33 25 c75 56 234 127 354 157 66 17 140 37 165 45 25 8 50
14 56 15 8 1 14 -55 19 -180z m1685 151 c-94 -75 -186 -142 -255 -183 l-80
-49 -302 7 c-167 4 -328 10 -360 14 l-57 6 -18 100 c-9 55 -17 106 -17 113 -1
9 117 12 557 12 l557 0 -25 -20z m-2350 -371 c5 -63 23 -262 39 -443 l30 -329
-49 -81 c-26 -45 -61 -107 -77 -140 l-28 -58 -54 6 c-30 4 -57 9 -60 12 -6 6
-18 468 -20 774 l-1 185 101 98 c56 53 104 96 105 94 2 -2 8 -55 14 -118z
m1725 95 l179 -6 -38 -20 c-101 -52 -508 -161 -526 -141 -7 8 -30 136 -30 167
0 14 16 15 118 11 64 -3 198 -8 297 -11z m-1047 -237 c2 -104 1 -116 -15 -121
-10 -2 -147 -8 -304 -12 l-286 -6 -7 102 c-5 73 -4 105 4 110 6 4 62 10 123
15 62 4 191 13 287 20 96 6 180 11 185 10 6 -1 11 -50 13 -118z m-938 -672 l3
-220 -109 4 c-60 1 -112 6 -116 10 -3 3 -10 124 -13 268 l-8 262 33 58 c38 68
120 191 164 248 l31 39 6 -224 c4 -124 8 -324 9 -445z m762 441 c-56 -30 -131
-75 -166 -100 -56 -40 -153 -141 -200 -207 -8 -13 -17 -21 -20 -18 -2 2 -9 62
-15 134 -6 72 -14 153 -17 182 l-6 52 143 4 c79 1 198 3 264 5 l120 2 -103
-54z m-1043 -533 l1 -113 -42 1 c-24 1 -67 4 -95 7 l-53 7 59 145 c32 80 72
172 87 205 l29 60 6 -100 c4 -55 7 -151 8 -212z"/>
<path d="M17966 7575 c-152 -93 -271 -176 -481 -334 -77 -59 -164 -121 -192
-140 -29 -18 -53 -37 -53 -41 0 -4 -17 -19 -37 -32 -33 -22 -341 -286 -428
-367 -49 -45 -293 -260 -401 -354 -56 -48 -107 -87 -113 -87 -6 0 -11 -4 -11
-10 0 -13 -221 -190 -237 -190 -7 0 -13 -4 -13 -10 0 -13 -175 -135 -292 -204
-129 -75 -183 -99 -374 -162 -202 -67 -334 -125 -482 -213 -556 -329 -975
-890 -1285 -1721 -174 -464 -302 -991 -432 -1770 -96 -582 -126 -723 -201
-948 -68 -203 -195 -480 -260 -569 -13 -17 -24 -36 -24 -41 0 -14 -143 -216
-216 -304 l-65 -78 34 0 c31 0 41 8 104 89 38 48 96 127 128 175 l59 86 85 0
c47 -1 238 -7 423 -14 317 -13 339 -15 372 -36 20 -12 36 -23 36 -25 0 -2 -35
-59 -78 -127 -43 -68 -82 -129 -86 -135 -5 -10 4 -13 34 -13 24 0 39 4 35 10
-5 8 126 227 145 240 3 3 17 26 29 51 13 26 33 59 45 73 l21 27 86 -198 c79
-180 89 -198 113 -201 14 -2 26 -1 26 1 0 3 -13 36 -29 73 -16 38 -28 70 -27
71 1 2 193 -31 427 -72 233 -41 444 -75 467 -75 41 0 55 9 255 167 117 92 277
221 357 287 495 413 695 737 685 1115 -3 141 -17 209 -96 467 -167 551 -229
836 -229 1059 0 311 132 454 511 554 378 100 683 120 1109 75 223 -24 468 -24
598 1 100 19 102 20 102 46 0 25 -50 63 -520 395 -343 242 -517 371 -512 378
5 6 37 48 71 94 l62 82 52 -33 c29 -19 228 -149 444 -291 215 -141 394 -256
397 -256 3 0 6 12 6 28 -1 24 -28 45 -293 217 -161 104 -356 232 -434 283
l-142 94 66 86 c36 48 72 86 78 86 7 -1 167 -107 356 -236 189 -129 350 -237
357 -242 8 -5 12 1 12 22 0 27 -24 46 -350 268 -223 152 -347 241 -341 248 4
6 36 48 70 94 34 45 65 82 69 82 4 0 129 -76 277 -169 228 -142 271 -165 273
-149 2 11 2 25 -1 31 -3 7 -117 82 -255 167 -138 85 -249 156 -247 158 3 4
414 -25 473 -32 28 -4 32 -2 32 19 0 29 -8 32 -140 40 -138 8 -377 28 -1180
96 -393 33 -780 66 -860 72 l-145 12 -18 74 c-10 40 -15 76 -12 79 6 6 2263
-16 2318 -23 34 -5 37 -3 37 20 0 14 -1 26 -2 27 -2 0 -536 8 -1187 17 l-1185
16 -13 50 c-7 28 -13 55 -13 61 0 6 44 39 98 72 53 34 129 84 167 112 l70 49
1033 7 1032 7 0 25 0 25 -1002 -7 c-551 -3 -1000 -5 -997 -3 2 3 43 36 92 75
79 64 92 71 145 76 61 7 871 73 982 81 36 2 223 18 415 35 193 16 353 30 358
30 4 0 7 11 7 25 l0 25 -82 -5 c-46 -4 -93 -8 -105 -11 -13 -2 -23 -1 -23 2 0
4 48 58 106 120 97 104 105 116 102 148 l-3 35 -140 -154 c-91 -100 -149 -156
-165 -159 -42 -8 -340 -29 -345 -24 -7 7 421 546 516 650 43 47 79 91 79 95 0
5 14 22 30 38 22 22 30 38 30 64 l0 36 -58 -61 c-100 -107 -171 -194 -427
-517 l-250 -315 -65 -7 c-36 -3 -86 -8 -112 -11 l-48 -6 1 74 c0 40 8 190 17
333 l17 260 67 45 c37 25 73 52 80 61 7 8 25 23 40 32 15 10 72 52 125 94 148
115 361 264 494 345 105 65 119 76 119 101 0 15 -1 27 -3 27 -2 0 -66 -38
-141 -85z m-853 -975 c-11 -196 -21 -297 -30 -305 -7 -7 -58 -15 -125 -19 -62
-4 -123 -10 -136 -13 l-22 -5 6 128 c4 71 9 157 13 191 l6 62 149 130 c83 72
152 129 154 127 2 -2 -5 -135 -15 -296z m-348 -82 c-3 -35 -8 -107 -11 -160
l-6 -97 -36 -5 c-65 -9 -333 -29 -337 -24 -5 5 376 346 387 347 4 1 5 -27 3
-61z m-1069 -945 c18 -76 31 -139 29 -141 -6 -6 -479 109 -489 118 -4 5 56 29
135 54 79 26 176 61 214 80 39 18 72 32 74 30 2 -2 19 -65 37 -141z m-281
-123 c158 -38 290 -72 293 -74 2 -3 -28 -41 -68 -86 l-73 -80 -246 0 c-404 0
-683 11 -670 26 24 29 218 151 342 215 73 38 133 69 133 69 1 0 131 -31 289
-70z m572 -103 c4 -4 21 -321 17 -326 -2 -3 -306 201 -328 220 -6 5 11 32 40
64 l49 55 109 -5 c61 -3 111 -7 113 -8z m286 -24 l47 -6 0 -46 c0 -34 -28
-792 -30 -797 0 0 -47 13 -104 29 l-104 31 -6 100 c-4 56 -9 157 -11 226 -3
69 -9 197 -15 285 -5 88 -10 168 -10 179 0 17 6 18 93 12 50 -4 113 -10 140
-13z m282 -23 c60 -6 111 -13 114 -15 5 -5 -79 -887 -85 -894 -5 -5 -226 59
-236 68 -4 4 -1 180 7 391 8 212 15 402 15 423 0 36 1 37 38 37 20 0 86 -5
147 -10z m422 -36 c28 -5 32 -9 28 -33 -3 -14 -21 -199 -41 -411 l-35 -385
-36 -52 c-52 -78 -48 -77 -157 -44 -54 16 -99 31 -100 33 -1 2 18 207 43 457
l45 454 110 -7 c61 -4 125 -9 143 -12z m226 -20 l109 -7 -6 -101 c-15 -237
-12 -224 -74 -304 -31 -39 -97 -127 -147 -194 -57 -77 -91 -116 -93 -105 -3
16 53 632 64 695 4 25 9 32 22 28 9 -3 66 -8 125 -12z m271 -22 l48 -7 -83
-110 c-96 -125 -96 -125 -84 32 l7 93 31 -1 c18 0 54 -4 81 -7z m-1482 -261
c14 -13 19 -51 28 -225 6 -114 9 -210 7 -213 -3 -2 -135 103 -296 233 l-291
237 32 36 c17 20 61 68 96 108 l65 72 171 -116 c94 -64 179 -123 188 -132z
m-679 199 l209 0 -73 -82 c-41 -45 -92 -102 -115 -127 l-41 -45 -479 -33
c-263 -17 -498 -32 -522 -33 -41 0 -42 1 -31 22 6 12 77 87 156 166 l145 145
271 -6 c149 -4 364 -7 480 -7z m367 -426 c146 -119 278 -226 293 -239 l29 -22
-72 -121 c-40 -67 -76 -122 -81 -122 -7 0 -572 463 -623 511 -8 7 169 209 183
209 3 0 125 -98 271 -216z m-486 64 c-27 -29 -66 -73 -86 -97 l-37 -44 -548
-107 c-301 -59 -550 -105 -552 -104 -4 3 171 268 207 313 19 24 23 24 488 56
258 18 493 33 523 34 l54 1 -49 -52z m335 -373 c160 -132 290 -244 290 -249 2
-21 -95 -176 -107 -171 -8 3 -690 467 -719 489 -1 1 41 49 94 108 l95 107 29
-22 c15 -12 159 -130 318 -262z m-529 159 c0 -8 -251 -284 -259 -284 -4 0
-216 -38 -471 -85 -255 -46 -466 -83 -467 -81 -5 5 109 220 126 238 11 11 167
46 526 116 520 102 545 106 545 96z m2548 -450 c558 -394 522 -354 338 -375
-56 -6 -142 -9 -193 -6 l-91 5 -339 248 c-186 136 -347 255 -357 265 -18 17
-17 20 55 118 41 55 79 99 84 97 6 -2 232 -160 503 -352z m-1334 309 c80 -23
123 -40 119 -47 -3 -6 -112 -181 -240 -388 l-235 -378 -99 77 c-54 42 -99 78
-99 81 0 18 406 692 416 692 8 0 70 -16 138 -37z m-892 -234 c194 -133 357
-245 362 -250 8 -7 -59 -139 -71 -139 -12 0 -803 462 -803 469 0 10 141 161
151 161 4 0 167 -109 361 -241z m1203 142 c61 -18 114 -36 119 -41 4 -4 -71
-143 -168 -308 l-177 -300 -102 -32 c-56 -17 -135 -49 -175 -71 -72 -38 -74
-38 -97 -21 -14 9 -23 22 -21 28 3 8 390 633 473 762 8 13 20 22 26 19 7 -2
62 -19 122 -36z m270 -81 c19 -7 23 -18 28 -77 4 -37 7 -142 9 -233 l2 -165
-104 -13 c-57 -7 -160 -24 -229 -37 -68 -14 -126 -23 -127 -22 -2 1 72 130
164 286 l166 282 34 -6 c19 -3 44 -10 57 -15z m-1997 -40 c20 -10 44 -24 52
-29 11 -8 20 -113 45 -558 18 -301 31 -549 31 -550 -1 0 -54 -7 -120 -15 -82
-10 -119 -11 -122 -4 -1 6 -17 245 -33 531 -17 286 -33 543 -36 571 l-5 51 53
10 c79 16 95 15 135 -7z m-197 -614 c25 -432 29 -550 19 -556 -6 -4 -46 -10
-89 -14 -42 -4 -92 -9 -111 -12 l-36 -6 -28 519 c-15 285 -29 543 -30 573 l-1
55 115 20 115 21 7 -25 c4 -14 21 -273 39 -575z m2596 377 c163 -119 291 -219
285 -221 -6 -2 -60 2 -119 8 -60 6 -190 14 -290 17 l-183 6 -5 31 c-2 17 -6
111 -7 209 -3 144 -1 176 10 172 8 -3 147 -103 309 -222z m-2924 115 c11 -96
61 -1068 55 -1073 -3 -3 -62 0 -131 6 l-126 12 -6 61 c-6 68 -65 955 -65 984
0 16 17 22 113 39 164 30 154 32 160 -29z m810 -42 l117 -68 0 -46 c0 -26 9
-211 20 -411 24 -450 34 -414 -123 -431 -60 -6 -112 -8 -116 -3 -6 7 -63 956
-61 1032 0 22 1 22 23 9 12 -8 75 -45 140 -82z m-1133 17 c0 -10 16 -243 34
-518 19 -275 33 -502 30 -504 -6 -7 -226 17 -234 26 -7 9 -71 750 -70 818 1
24 14 67 33 105 l32 65 60 11 c91 18 115 17 115 -3z m1628 -313 c4 -10 -279
-499 -289 -500 -3 0 -11 111 -18 248 -6 136 -15 293 -18 350 l-6 103 164 -95
c90 -52 165 -100 167 -106z m-1885 -307 c15 -186 27 -347 27 -359 0 -20 -1
-20 -141 -8 -78 7 -143 15 -146 18 -14 14 207 686 226 686 4 0 19 -152 34
-337z m2107 148 c52 -41 96 -75 98 -76 2 -2 -19 -32 -47 -68 -27 -36 -52 -75
-56 -86 -3 -12 -10 -21 -14 -21 -4 0 -60 51 -126 113 l-119 113 39 64 c21 36
43 71 48 78 11 14 13 12 177 -117z m-46 -336 c-3 -16 -9 -91 -13 -166 l-6
-136 -185 147 c-102 81 -185 153 -184 161 1 9 34 70 73 138 l72 121 125 -117
c118 -111 125 -120 118 -148z m1 -398 c2 -12 11 -60 20 -107 8 -47 21 -111 29
-142 7 -32 11 -58 7 -58 -3 1 -114 69 -245 153 l-239 152 -17 50 c-10 28 -27
78 -39 112 l-22 61 26 44 c62 99 28 109 265 -78 131 -103 212 -174 215 -187z
m-526 126 l24 -68 -59 -248 c-32 -136 -61 -251 -64 -256 -3 -5 -69 -13 -148
-17 -118 -6 -142 -4 -142 7 0 14 117 581 126 610 3 13 26 19 92 26 158 18 144
23 171 -54z m-1644 41 c77 -8 174 -17 215 -19 125 -7 512 -44 517 -49 3 -3
-16 -59 -43 -126 l-48 -121 -35 5 c-20 3 -214 26 -431 52 -217 25 -396 47
-398 49 -1 1 10 52 25 114 20 82 31 111 43 111 8 -1 78 -8 155 -16z m1325 -21
c-1 -24 -125 -611 -131 -617 -4 -4 -292 -25 -296 -21 -4 2 163 614 169 620 3
4 164 26 246 34 6 0 12 -7 12 -16z m-320 -30 c0 -5 -36 -144 -81 -310 l-82
-301 -96 -6 c-53 -4 -117 -9 -143 -12 -27 -2 -48 -1 -48 3 0 7 90 239 121 313
6 14 35 86 64 160 l52 135 74 11 c91 14 139 16 139 7z m765 -351 c36 -107 65
-195 63 -197 -2 -2 -55 -7 -117 -11 l-114 -7 6 34 c14 68 89 380 92 377 1 -2
33 -90 70 -196z m270 -14 l209 -134 32 -112 c17 -62 29 -112 27 -112 -14 0
-400 163 -410 173 -10 10 -123 325 -123 342 0 9 45 -18 265 -157z m-1833 104
c218 -27 400 -51 404 -54 6 -7 -61 -195 -76 -211 -7 -8 -808 67 -818 77 -3 3
6 57 18 121 23 111 25 115 49 114 14 0 205 -21 423 -47z m-98 -282 c219 -22
400 -41 402 -43 2 -1 -4 -16 -12 -32 -13 -25 -15 -51 -10 -147 4 -65 5 -118 4
-118 -2 0 -176 11 -388 25 -212 14 -402 25 -422 25 -32 0 -38 3 -38 22 0 33
53 308 59 308 3 0 185 -18 405 -40z m1982 -147 c117 -47 214 -89 214 -92 0 -5
-1751 -102 -1757 -97 -1 0 -5 44 -9 97 l-7 97 59 6 c33 3 111 9 174 11 63 3
311 18 550 34 612 40 523 46 776 -56z m269 -195 c8 -28 15 -55 15 -59 0 -4
-34 -33 -76 -63 l-77 -56 -838 0 -839 0 0 65 c0 36 1 65 3 66 1 0 398 22 882
48 484 27 888 49 897 50 12 1 22 -13 33 -51z m-2312 -20 c269 -17 354 -25 345
-34 -7 -6 -95 -59 -196 -118 l-183 -106 -207 20 c-113 11 -208 23 -210 25 -3
2 4 56 14 120 l18 115 30 0 c17 0 192 -10 389 -22z m447 -165 c0 -71 2 -191 5
-268 l6 -140 -391 -480 c-216 -264 -393 -482 -395 -484 -2 -1 -69 41 -149 94
l-145 98 112 146 c806 1054 840 1097 891 1128 28 17 55 32 59 32 5 1 8 -56 7
-126z m1928 -18 c46 -148 81 -408 53 -391 -15 10 -291 319 -290 326 1 11 204
149 209 142 3 -4 16 -38 28 -77z m-2176 -7 c-5 -7 -202 -264 -436 -571 l-427
-557 -24 17 c-15 11 -22 24 -19 33 57 146 141 441 174 611 l11 55 361 212
c199 117 364 212 366 212 3 0 0 -6 -6 -12z m1893 -27 c-6 -5 -77 -57 -160
-116 -82 -60 -152 -111 -155 -115 -3 -4 -288 39 -635 96 -346 57 -633 103
-637 104 -5 0 -8 9 -8 20 0 20 7 20 802 20 460 0 798 -4 793 -9z m-2327 -72
c67 -6 121 -13 119 -15 -6 -7 -392 -232 -394 -230 -2 2 37 236 43 255 3 10 17
12 57 8 28 -3 107 -11 175 -18z m2492 -174 c68 -77 135 -152 148 -167 l25 -27
-21 -91 c-22 -92 -95 -265 -109 -258 -22 9 -494 501 -490 511 2 7 66 58 143
114 l139 102 21 -22 c11 -12 76 -85 144 -162z m-1567 134 l147 -23 0 -35 c0
-20 -7 -192 -17 -383 -13 -260 -20 -348 -29 -348 -13 0 -263 85 -269 92 -3 2
-7 130 -10 284 -3 153 -8 317 -10 363 -5 82 -5 83 17 78 13 -3 89 -16 171 -28z
m394 -64 c86 -14 158 -27 159 -28 1 -1 -64 -826 -66 -833 -1 -4 -316 108 -321
114 -3 4 2 151 12 327 10 176 18 348 18 383 1 74 -16 71 198 37z m458 -75
c104 -17 191 -33 193 -35 4 -3 -442 -707 -482 -760 -8 -11 -17 -17 -20 -14 -6
5 49 748 60 817 5 30 8 33 32 28 15 -3 112 -20 217 -36z m442 -292 c115 -117
228 -233 251 -258 l41 -46 -62 -80 c-34 -45 -84 -105 -110 -134 -41 -45 -50
-51 -61 -39 -17 18 -400 510 -410 527 -5 8 20 55 66 127 40 63 74 115 74 115
1 0 96 -96 211 -212z m-1518 -180 l1 -98 -222 -352 c-121 -194 -226 -358 -232
-365 -8 -9 -44 10 -151 83 -77 53 -140 101 -139 108 1 7 165 213 365 459 l364
447 6 -92 c4 -51 7 -137 8 -190z m1346 -164 l207 -265 -73 -68 c-137 -125
-158 -143 -168 -139 -9 2 -290 440 -322 499 -8 17 2 38 63 134 40 62 76 111
80 109 3 -2 99 -124 213 -270z m-980 -85 c176 -62 336 -117 355 -124 46 -17
51 -41 48 -213 l-3 -138 -454 142 c-249 79 -455 145 -457 147 -6 5 177 297
185 297 3 0 150 -50 326 -111z m750 -183 c86 -137 153 -251 148 -255 -5 -3
-74 -58 -154 -121 -79 -64 -174 -139 -210 -168 l-66 -52 -7 88 c-3 48 -7 195
-8 327 l-2 240 65 102 c35 56 67 99 71 95 3 -4 77 -119 163 -256z m-2034 -148
c149 -101 265 -184 258 -187 -11 -3 -701 19 -706 23 -1 1 33 74 77 161 44 88
80 165 80 172 0 7 5 13 11 13 6 0 132 -82 280 -182z m1084 -8 c143 -45 337
-106 431 -136 l171 -54 7 -142 c7 -139 7 -141 -16 -164 l-23 -24 -470 83 -469
83 -55 123 -55 123 24 42 c13 22 43 71 66 108 l43 67 43 -14 c24 -8 160 -51
303 -95z"/>
<path d="M18023 1211 c-110 -98 -196 -186 -249 -256 -60 -78 -153 -216 -190
-282 -16 -29 -32 -53 -36 -53 -5 0 -8 -6 -8 -13 0 -8 -22 -59 -49 -114 -43
-89 -178 -412 -196 -470 -5 -19 -3 -23 17 -23 13 0 29 5 35 11 8 8 55 8 168 0
87 -6 244 -11 349 -11 l192 0 27 55 c19 40 27 70 26 108 l0 52 -47 -93 c-50
-100 -50 -100 -133 -86 l-37 6 -6 377 c-4 207 -9 421 -12 475 l-6 99 108 106
109 106 7 -60 c4 -33 4 -74 1 -92 -2 -17 0 -40 6 -50 8 -13 10 20 11 130 0 81
-2 147 -5 147 -3 0 -40 -31 -82 -69z m-189 -748 l8 -422 -109 6 c-59 3 -111 8
-115 12 -3 3 -11 123 -17 266 l-10 260 53 90 c30 50 80 127 113 172 51 72 59
80 64 60 3 -12 9 -212 13 -444z m-280 -197 l7 -209 -93 7 c-51 4 -94 9 -96 10
-2 2 25 73 59 157 62 154 108 254 113 247 2 -1 7 -97 10 -212z"/>
</g>
</svg>
