<?xml version="1.0" standalone="no"?>
<!DOCTYPE svg PUBLIC "-//W3C//DTD SVG 20010904//EN"
 "http://www.w3.org/TR/2001/REC-SVG-20010904/DTD/svg10.dtd">
<svg version="1.0" xmlns="http://www.w3.org/2000/svg"
 width="1125.000000pt" height="900.000000pt" viewBox="0 0 1125.000000 900.000000"
 preserveAspectRatio="xMidYMid meet">
<metadata>
Created by potrace 1.13, written by Peter Selinger 2001-2015
</metadata>
<g transform="translate(0.000000,900.000000) scale(0.100000,-0.100000)"
fill="#000000" stroke="none">
<path d="M0 4500 l0 -4500 5625 0 5625 0 0 4500 0 4500 -5625 0 -5625 0 0
-4500z m410 4215 l0 -245 -185 0 -185 0 0 238 c0 131 3 242 7 245 3 4 87 7
185 7 l178 0 0 -245z m2558 -2 l2 -243 -1250 0 -1250 0 0 238 c0 131 3 242 7
245 3 4 565 6 1247 5 l1241 -3 3 -242z m2790 0 l2 -243 -1365 0 -1365 0 0 238
c0 131 3 242 7 245 3 4 617 6 1362 5 l1356 -3 3 -242z m2270 0 l2 -243 -1105
0 -1105 0 0 238 c0 131 3 242 7 245 3 4 500 6 1102 5 l1096 -3 3 -242z m2532
2 l0 -245 -1235 0 -1235 0 0 238 c0 131 3 242 7 245 3 4 559 7 1235 7 l1228 0
0 -245z m648 -2 l2 -243 -295 0 -295 0 0 238 c0 131 3 242 7 245 4 4 135 6
292 5 l286 -3 3 -242z m-9568 -638 l0 -325 -797 2 -798 3 -3 323 -2 322 800 0
800 0 0 -325z m2500 0 l0 -325 -1220 0 -1220 0 0 325 0 325 1220 0 1220 0 0
-325z m2480 0 l0 -325 -1210 0 -1210 0 0 325 0 325 1210 0 1210 0 0 -325z
m2358 3 l-3 -323 -1147 -3 -1148 -2 0 325 0 325 1150 0 1150 0 -2 -322z m2230
0 l-3 -323 -1082 -3 -1083 -2 0 325 0 325 1085 0 1085 0 -2 -322z m-11100
-750 l2 -358 -35 0 -35 0 0 353 c0 195 3 357 7 361 4 4 19 6 33 4 l25 -3 3
-357z m2552 2 l0 -360 -1245 0 -1245 0 0 360 0 360 1245 0 1245 0 0 -360z
m2670 0 l0 -360 -1305 0 -1305 0 0 360 0 360 1305 0 1305 0 0 -360z m2490 0
l0 -360 -1215 0 -1215 0 0 360 0 360 1215 0 1215 0 0 -360z m2430 0 l0 -360
-1185 0 -1185 0 0 360 0 360 1185 0 1185 0 0 -360z m958 -2 l2 -358 -445 0
-445 0 0 360 0 360 443 -2 442 -3 3 -357z m0 -790 l-3 -363 -32 -3 -33 -3 0
150 0 151 -30 0 -30 0 0 -150 0 -149 -92 -3 c-93 -3 -93 -3 -96 -30 l-3 -27
158 -3 158 -3 0 -695 0 -695 -112 -3 -113 -3 0 -29 0 -29 113 -3 112 -3 0
-245 0 -245 -5580 0 -5580 0 0 245 0 245 153 3 152 3 0 29 0 29 -152 3 -153 3
-3 297 -2 298 437 2 438 3 0 30 0 30 -438 3 -437 2 2 363 3 362 113 3 112 3 0
29 0 29 -112 3 -113 3 -3 363 -2 362 5585 0 5585 0 -2 -362z m-9940 -2735 l2
-283 -552 -2 c-304 -2 -581 -2 -615 0 l-63 3 0 278 c0 153 3 281 7 284 3 4
279 6 612 5 l606 -3 3 -282z m2552 2 l0 -285 -557 -2 c-307 -2 -867 -2 -1245
0 l-688 2 0 278 c0 153 3 282 7 285 3 4 564 7 1245 7 l1238 0 0 -285z m2510 0
l0 -285 -1220 0 -1220 0 0 285 0 285 1220 0 1220 0 0 -285z m2380 0 l0 -285
-392 -2 c-216 -2 -738 -2 -1160 0 l-768 2 0 278 c0 153 3 282 7 285 3 4 525 7
1160 7 l1153 0 0 -285z m2498 -2 l2 -283 -447 -2 c-247 -2 -796 -2 -1220 0
l-773 2 0 278 c0 153 3 282 7 285 3 4 551 6 1217 5 l1211 -3 3 -282z m-11078
-748 l0 -395 -45 0 -45 0 0 395 0 395 45 0 45 0 0 -395z m2530 0 l0 -395 -422
-2 c-233 -2 -786 -2 -1230 0 l-808 2 0 395 0 395 1230 0 1230 0 0 -395z m2700
0 l0 -395 -497 -2 c-274 -2 -866 -2 -1315 0 l-818 2 0 395 0 395 1315 0 1315
0 0 -395z m2530 0 l0 -395 -552 -2 c-304 -2 -860 -2 -1235 0 l-683 2 0 395 0
395 1235 0 1235 0 0 -395z m2390 0 l0 -395 -547 -2 c-302 -2 -826 -2 -1165 0
l-618 2 0 395 0 395 1165 0 1165 0 0 -395z m930 0 l0 -395 -435 0 -435 0 0
395 0 395 435 0 435 0 0 -395z m-9430 -825 l0 -360 -867 2 -868 3 -3 358 -2
357 870 0 870 0 0 -360z m2560 0 l0 -360 -1245 0 -1245 0 0 360 0 360 1245 0
1245 0 0 -360z m2400 0 l0 -360 -1170 0 -1170 0 0 360 0 360 1170 0 1170 0 0
-360z m2400 0 l0 -360 -1165 0 -1165 0 0 360 0 360 1165 0 1165 0 0 -360z
m2068 3 l-3 -358 -997 -3 -998 -2 0 360 0 360 1000 0 1000 0 -2 -357z m-3
-728 l0 -300 -122 -3 -123 -3 0 156 0 155 -30 0 -30 0 0 -155 0 -155 -90 0
-90 0 0 -30 0 -30 243 -2 242 -3 0 -545 0 -545 -5580 0 -5580 0 0 150 0 150
347 3 348 2 0 30 0 30 -347 2 -348 3 0 360 0 360 23 3 c32 5 32 59 0 64 l-23
3 -3 290 c-1 159 0 295 3 302 3 11 1097 13 5582 11 l5578 -3 0 -300z"/>
<path d="M930 6320 l0 -150 -90 0 -90 0 0 -30 0 -30 595 0 595 0 0 30 0 30
-475 0 -475 0 0 150 0 150 -30 0 -30 0 0 -150z"/>
<path d="M4440 6320 l0 -150 -110 0 -110 0 0 -30 0 -30 595 0 595 0 0 30 0 30
-450 0 -450 0 0 150 0 150 -35 0 -35 0 0 -150z"/>
<path d="M7760 6320 l0 -150 -105 0 -105 0 0 -30 0 -30 595 0 595 0 0 30 0 30
-460 0 -460 0 0 150 0 150 -30 0 -30 0 0 -150z"/>
<path d="M2420 6140 l0 -30 595 0 595 0 0 30 0 30 -595 0 -595 0 0 -30z"/>
<path d="M5870 6140 l0 -30 601 0 600 0 -3 28 -3 27 -597 3 -598 2 0 -30z"/>
<path d="M9220 6140 l0 -30 601 0 600 0 -3 28 -3 27 -597 3 -598 2 0 -30z"/>
<path d="M3290 5530 l0 -150 -110 0 -110 0 0 -35 0 -35 595 0 595 0 0 35 0 35
-450 0 -450 0 0 150 0 150 -35 0 -35 0 0 -150z"/>
<path d="M6620 5530 l0 -150 -105 0 -105 0 0 -35 0 -35 655 0 655 0 0 35 0 35
-520 0 -520 0 0 150 0 150 -30 0 -30 0 0 -150z"/>
<path d="M10120 5530 l0 -150 -125 0 -125 0 0 -35 0 -35 598 2 597 3 0 30 0
30 -442 3 -443 2 0 150 0 150 -30 0 -30 0 0 -150z"/>
<path d="M1394 5366 c-3 -8 -4 -23 -2 -33 3 -17 32 -18 598 -18 l595 0 3 33 3
32 -596 0 c-509 0 -596 -2 -601 -14z"/>
<path d="M4740 5345 l0 -35 595 0 595 0 0 35 0 35 -595 0 -595 0 0 -35z"/>
<path d="M8200 5345 l0 -35 595 0 595 0 0 35 0 35 -595 0 -595 0 0 -35z"/>
<path d="M1070 4860 l0 -150 -120 0 -120 0 0 -30 0 -30 595 0 595 0 0 30 0 30
-440 0 -440 0 0 150 0 150 -35 0 -35 0 0 -150z"/>
<path d="M4420 4860 l0 -150 -125 0 -125 0 0 -30 0 -30 601 0 600 0 -3 28 -3
27 -437 3 -438 2 0 150 0 150 -35 0 -35 0 0 -150z"/>
<path d="M7840 4860 l0 -150 -105 0 -105 0 0 -30 0 -30 601 0 600 0 -3 28 -3
27 -457 3 -458 2 0 150 0 150 -35 0 -35 0 0 -150z"/>
<path d="M2500 4680 l0 -30 595 0 595 0 0 30 0 30 -595 0 -595 0 0 -30z"/>
<path d="M5840 4680 l0 -30 655 0 655 0 0 30 0 30 -655 0 -655 0 0 -30z"/>
<path d="M9307 4703 c-4 -3 -7 -17 -7 -30 l0 -23 600 0 600 0 0 30 0 30 -593
0 c-327 0 -597 -3 -600 -7z"/>
<path d="M757 1503 c-4 -3 -7 -73 -7 -155 l0 -148 -90 0 -90 0 0 -30 0 -30
595 0 595 0 0 30 0 30 -472 2 -473 3 -3 153 c-3 151 -3 152 -26 152 -12 0 -26
-3 -29 -7z"/>
<path d="M4268 1358 l-3 -153 -112 -3 -113 -3 0 -29 0 -30 598 2 597 3 3 28 3
27 -455 0 -455 0 -3 153 -3 152 -27 3 -27 3 -3 -153z"/>
<path d="M7580 1355 l0 -155 -105 0 -105 0 0 -30 0 -30 600 0 600 0 0 30 0 30
-465 0 -465 0 0 155 0 155 -30 0 -30 0 0 -155z"/>
<path d="M2240 1170 l0 -30 595 0 595 0 0 30 0 30 -595 0 -595 0 0 -30z"/>
<path d="M5690 1170 l0 -30 600 0 600 0 0 30 0 30 -600 0 -600 0 0 -30z"/>
<path d="M9042 1173 l3 -28 598 -3 597 -2 0 30 0 30 -601 0 -600 0 3 -27z"/>
<path d="M3120 565 l0 -155 -115 0 -115 0 0 -30 0 -30 595 0 595 0 0 30 0 30
-450 0 -450 0 0 155 0 155 -30 0 -30 0 0 -155z"/>
<path d="M6440 565 l0 -155 -105 0 -105 0 0 -30 0 -30 655 0 655 0 0 30 0 30
-517 2 -518 3 -3 153 -3 152 -29 0 -30 0 0 -155z"/>
<path d="M9947 713 c-4 -3 -7 -73 -7 -155 l0 -148 -125 0 -125 0 0 -30 0 -30
600 0 600 0 0 30 0 30 -440 0 -440 0 0 155 0 155 -28 0 c-16 0 -32 -3 -35 -7z"/>
<path d="M1220 380 l0 -30 595 0 595 0 0 30 0 30 -595 0 -595 0 0 -30z"/>
<path d="M4560 380 l0 -30 600 0 600 0 0 30 0 30 -600 0 -600 0 0 -30z"/>
<path d="M8020 380 l0 -30 600 0 600 0 0 30 0 30 -600 0 -600 0 0 -30z"/>
</g>
</svg>
