<?xml version="1.0" standalone="no"?>
<!DOCTYPE svg PUBLIC "-//W3C//DTD SVG 20010904//EN"
 "http://www.w3.org/TR/2001/REC-SVG-20010904/DTD/svg10.dtd">
<svg version="1.0" xmlns="http://www.w3.org/2000/svg"
 width="1125.000000pt" height="900.000000pt" viewBox="0 0 1125.000000 900.000000"
 preserveAspectRatio="xMidYMid meet">
<metadata>
Created by potrace 1.13, written by Peter Selinger 2001-2015
</metadata>
<g transform="translate(0.000000,900.000000) scale(0.100000,-0.100000)"
fill="#000000" stroke="none">
<path d="M0 4500 l0 -4500 5625 0 5625 0 0 4500 0 4500 -5625 0 -5625 0 0
-4500z m466 4419 c33 -23 118 -79 189 -127 72 -47 131 -86 133 -87 2 -2 -34
-248 -43 -292 -4 -18 -11 -21 -38 -18 -17 3 -90 12 -162 21 -199 24 -453 84
-492 116 -10 8 -13 60 -13 199 0 179 1 189 20 199 36 19 102 28 226 29 l121 1
59 -41z m1349 -26 c99 -34 179 -65 178 -70 -2 -14 -164 -567 -166 -569 -2 -3
-115 44 -182 75 -325 151 -513 246 -705 359 -142 82 -400 253 -400 264 0 5
210 8 548 5 l547 -3 180 -61z m1425 49 c0 -27 -59 -344 -65 -350 -20 -20
-1295 325 -1329 359 -6 5 258 9 692 9 668 0 702 -1 702 -18z m2082 9 c64 -4
120 -10 124 -13 7 -8 -26 -710 -35 -719 -13 -13 -705 80 -1166 157 -251 42
-764 141 -933 179 -67 15 -73 19 -69 38 3 12 18 94 33 182 15 88 32 166 37
173 7 9 209 12 951 11 517 0 994 -4 1058 -8z m3166 -45 l3 -49 -303 7 c-717
16 -1660 54 -1674 68 -26 26 40 28 989 26 l982 -3 3 -49z m1970 8 l3 -42 -193
-6 c-384 -11 -1161 -17 -1430 -10 l-276 7 -6 39 c-4 22 -4 43 -1 49 4 6 367 8
953 7 l947 -3 3 -41z m747 11 l0 -30 -140 -6 c-77 -4 -231 -9 -342 -13 l-203
-7 0 39 c0 21 3 42 7 45 4 4 158 6 342 5 l336 -3 0 -30z m-5045 -39 c358 -24
765 -45 1183 -60 208 -8 381 -17 384 -19 5 -6 25 -738 20 -743 -4 -5 -558 14
-802 26 -556 29 -1438 102 -1458 120 -8 7 19 685 28 715 2 7 70 5 206 -6 112
-9 310 -24 439 -33z m5045 -386 l0 -325 -85 -7 c-462 -38 -1247 -84 -1257 -74
-7 6 -62 591 -63 662 l0 41 458 8 c251 4 538 11 637 15 99 4 209 6 245 6 l65
-1 0 -325z m-8928 251 c448 -127 826 -218 1308 -316 l310 -63 -3 -33 c-6 -58
-100 -681 -104 -684 -11 -11 -670 156 -963 244 -302 90 -911 303 -934 326 -6
7 163 585 171 585 4 0 101 -27 215 -59z m6655 42 l797 -6 5 -26 c9 -46 60
-670 55 -674 -12 -11 -833 -28 -1368 -28 -332 1 -605 2 -607 4 -2 1 -6 171
-10 376 l-7 374 169 -6 c93 -4 528 -10 966 -14z m-7672 -350 l165 -84 -190 6
c-244 8 -413 20 -422 28 -6 6 21 217 33 258 4 14 27 4 127 -53 67 -39 196
-108 287 -155z m-1107 -14 l77 -23 0 -303 0 -304 -92 3 -93 3 -3 329 c-2 310
-1 328 15 323 10 -2 53 -15 96 -28z m259 -58 c195 -34 513 -58 997 -77 l174
-7 146 -62 c80 -34 203 -84 273 -111 71 -27 128 -52 128 -55 0 -8 -442 -95
-700 -139 -373 -63 -718 -103 -992 -116 l-148 -7 0 296 c0 164 2 297 4 297 2
0 55 -9 118 -19z m3913 -71 c485 -80 1088 -156 1550 -196 110 -9 203 -20 207
-23 8 -6 -38 -740 -46 -749 -9 -8 -310 20 -323 31 -7 5 -23 7 -37 3 -46 -11
-684 68 -1115 140 -306 50 -693 124 -702 133 -4 3 17 164 47 356 29 193 53
354 54 359 0 5 15 6 33 2 17 -4 167 -29 332 -56z m6885 -404 c0 -118 -4 -217
-9 -220 -19 -12 -322 -49 -330 -40 -8 9 -84 435 -78 440 4 5 306 31 370 33
l47 1 0 -214z m-4805 164 c493 -35 1032 -56 1713 -66 l452 -7 0 -36 c0 -20 7
-159 15 -310 8 -151 13 -277 10 -279 -10 -10 -554 -53 -915 -73 -272 -15 -971
-6 -1320 16 -140 9 -256 17 -256 18 -1 1 9 160 22 352 13 193 23 363 24 378
l0 29 58 -6 c31 -3 120 -10 197 -16z m4359 -203 c20 -115 36 -216 36 -226 0
-19 58 -11 -655 -101 -434 -55 -927 -112 -1070 -125 -33 -3 -139 -14 -235 -24
-96 -10 -176 -18 -177 -17 -3 3 -33 619 -29 623 2 2 194 8 427 13 233 5 534
14 669 20 268 11 946 49 970 54 8 1 18 0 22 -3 3 -3 22 -100 42 -214z m-8249
75 c132 -44 293 -95 358 -113 64 -18 117 -36 117 -41 0 -4 -4 -8 -8 -8 -4 0
-116 -25 -248 -56 -262 -61 -698 -150 -786 -160 l-56 -6 -42 178 c-23 99 -43
183 -44 188 -1 9 441 106 459 100 6 -1 118 -39 250 -82z m-766 -59 c26 -96 82
-336 79 -338 -7 -7 -354 -55 -568 -79 -331 -38 -640 -57 -945 -59 l-270 -2 0
170 0 170 275 6 c378 9 755 50 1205 133 99 18 188 34 197 35 12 1 20 -11 27
-36z m1626 -189 c240 -60 611 -141 800 -174 66 -12 127 -24 135 -27 18 -7
-115 -42 -485 -128 -437 -101 -606 -135 -611 -121 -18 49 -163 490 -161 491
13 11 66 23 82 19 11 -2 119 -29 240 -60z m-305 -220 c45 -135 80 -248 77
-251 -8 -7 -64 -19 -355 -72 -895 -165 -1873 -274 -2632 -293 l-115 -3 0 240
0 240 290 7 c662 14 1258 83 1965 224 219 44 651 142 659 150 19 18 38 -22
111 -242z m8138 -12 c2 -134 1 -152 -13 -152 -16 0 -482 172 -560 207 -37 16
-38 18 -15 21 14 1 147 20 295 41 149 21 275 38 280 36 6 -1 11 -63 13 -153z
m-313 -111 l310 -117 3 -362 c1 -199 -1 -362 -6 -362 -4 0 -102 33 -217 74
-608 215 -1030 391 -1695 707 l-134 64 39 7 c22 5 202 26 400 49 198 22 473
55 610 73 l250 33 65 -25 c36 -13 205 -77 375 -141z m-6265 89 c196 -31 578
-84 695 -96 39 -4 78 -10 88 -13 26 -10 -1911 -395 -2688 -535 -329 -60 -911
-156 -940 -156 -15 0 -25 7 -28 23 -13 52 -48 249 -45 252 2 2 104 17 228 35
696 97 1431 238 2160 416 322 78 299 71 293 95 -5 19 -3 21 23 15 16 -3 112
-19 214 -36z m4650 -212 c140 -67 257 -123 258 -124 7 -4 -362 -744 -371 -744
-14 0 -345 125 -505 191 -476 197 -918 427 -1189 619 l-78 55 180 7 c341 13
1380 97 1445 117 3 1 120 -54 260 -121z m-3290 52 c151 -11 299 -23 329 -26
l55 -6 -95 -40 c-639 -270 -1346 -527 -1997 -726 -139 -43 -164 -48 -169 -35
-33 85 -161 509 -155 514 4 3 349 75 767 159 418 84 796 161 840 171 44 10 96
16 115 14 19 -2 159 -14 310 -25z m903 -50 c175 -4 320 -10 322 -12 6 -6 -229
-159 -365 -238 -147 -85 -461 -244 -645 -325 -226 -100 -447 -187 -455 -178
-14 15 -171 366 -168 375 2 5 105 49 228 98 124 48 302 120 395 160 94 39 183
76 198 82 24 9 28 15 22 35 l-6 25 78 -6 c43 -4 221 -11 396 -16z m622 -163
c265 -174 631 -365 989 -517 118 -51 144 -65 127 -71 -31 -12 -360 -76 -506
-98 -227 -35 -430 -51 -656 -51 -175 0 -414 14 -426 24 -3 3 76 673 82 703 3
13 42 47 97 87 l92 65 35 -28 c20 -16 95 -67 166 -114z m2312 -93 c385 -170
828 -344 1198 -470 94 -32 173 -62 177 -68 10 -15 10 -654 0 -660 -12 -7 -754
182 -1082 277 -433 126 -880 271 -880 286 0 13 355 731 362 731 4 0 105 -43
225 -96z m-2808 -269 c-21 -176 -39 -323 -39 -327 0 -20 -111 0 -320 59 -114
32 -369 121 -413 145 -16 8 32 35 260 148 153 76 339 174 413 218 74 45 135
80 136 79 1 -1 -16 -146 -37 -322z m-3051 -13 c45 -141 82 -262 82 -268 0 -35
-1133 -316 -1745 -433 -379 -73 -1121 -191 -1200 -191 -19 0 -23 20 -64 308
-23 169 -45 317 -48 329 -4 18 0 23 29 27 18 3 195 28 393 56 593 84 1554 250
2220 384 121 24 227 44 236 45 12 1 35 -60 97 -257z m-2295 76 c14 -78 25
-143 24 -144 -4 -4 -591 -85 -817 -113 -216 -27 -683 -76 -790 -83 l-45 -3 -3
174 c-1 96 1 178 5 182 5 5 116 13 248 19 403 17 914 58 1195 94 175 22 152
38 183 -126z m3931 -129 c48 -105 86 -193 84 -195 -17 -17 -584 -210 -892
-304 -184 -57 -243 -71 -256 -63 -13 9 -23 6 -46 -12 -31 -24 -116 -51 -409
-129 -312 -83 -788 -197 -1036 -249 l-66 -14 -32 190 c-17 104 -30 191 -29
192 2 1 84 21 183 44 698 163 1541 416 2215 665 96 36 180 65 186 65 6 1 51
-85 98 -190z m731 -159 c72 -26 156 -56 187 -66 51 -16 58 -21 63 -48 12 -69
95 -769 92 -773 -7 -7 -387 -42 -566 -52 -317 -19 -602 -11 -871 24 -200 26
-205 27 -209 55 -2 14 0 138 4 276 l7 252 267 92 c273 95 577 209 736 278 86
37 92 38 125 25 19 -8 94 -36 165 -63z m2610 -107 c94 -36 316 -114 494 -173
225 -76 317 -110 300 -114 -13 -3 -130 -21 -259 -41 -129 -20 -396 -63 -593
-96 -198 -33 -360 -59 -362 -57 -11 13 -134 463 -128 468 4 4 37 13 73 20 36
6 95 19 133 27 64 14 67 17 67 44 l0 29 53 -21 c28 -12 129 -51 222 -86z
m-8012 45 c23 -130 88 -620 83 -625 -13 -13 -819 -93 -935 -93 l-41 0 0 324
c0 211 4 327 10 331 6 4 84 13 173 22 89 8 270 27 402 42 323 38 302 38 308
-1z m5825 -72 c407 -102 866 -109 1411 -21 85 14 155 24 156 23 12 -15 134
-463 128 -468 -21 -19 -1695 -292 -1708 -278 -3 3 -95 743 -95 761 0 10 0 10
108 -17z m-1784 -433 c-3 -120 -7 -237 -10 -261 -6 -48 13 -47 -159 -5 -164
40 -511 158 -538 183 -4 4 42 39 102 78 107 68 117 73 348 142 131 39 240 73
242 76 17 17 20 -22 15 -213z m5051 102 c194 -57 598 -167 760 -206 50 -12 94
-25 98 -29 9 -8 -126 -58 -333 -125 -286 -92 -885 -244 -900 -228 -10 11 -124
553 -117 559 4 5 239 44 265 44 8 0 10 8 6 26 -6 22 -4 25 12 20 11 -3 105
-30 209 -61z m-7165 19 c0 -3 14 -87 30 -186 17 -99 28 -183 25 -186 -23 -23
-1157 -231 -1725 -316 -385 -58 -1069 -146 -1132 -146 -17 0 -18 17 -18 215
l0 214 33 5 c17 3 75 8 127 11 448 29 1140 114 1709 211 227 38 785 147 891
173 44 11 60 13 60 5z m6662 -324 c31 -146 57 -275 57 -286 1 -26 19 -20 -249
-73 -543 -107 -1426 -234 -1436 -207 -8 23 -60 551 -55 557 9 10 1582 279
1611 275 11 -1 29 -68 72 -266z m-5281 192 c-75 -54 -386 -223 -646 -352 -393
-195 -806 -373 -1210 -523 l-120 -44 -250 -7 c-315 -8 -593 -21 -1055 -47
-279 -16 -424 -20 -615 -15 -137 3 -263 9 -278 12 l-28 6 3 101 3 101 280 33
c1235 145 2656 410 3710 692 121 33 222 59 225 60 3 0 -6 -8 -19 -17z m87
-166 c252 -100 491 -166 758 -211 81 -14 149 -26 150 -28 4 -4 -27 -412 -32
-416 -3 -3 -78 3 -167 12 -544 58 -1002 161 -1384 309 -57 22 -103 43 -103 46
0 4 82 48 183 99 100 51 241 126 312 167 72 41 134 75 138 75 5 1 70 -23 145
-53z m6792 -9 l85 -22 0 -220 0 -220 -105 -27 c-58 -14 -194 -46 -303 -71
-173 -39 -197 -42 -201 -28 -6 19 -93 388 -98 413 -2 15 28 28 172 77 96 33
209 73 250 90 89 35 91 35 200 8z m-3346 -69 c16 -99 55 -523 49 -529 -16 -14
-653 -63 -1042 -80 -414 -18 -1483 0 -1509 25 -3 4 28 409 33 414 2 2 84 -2
182 -9 212 -14 619 -7 868 16 325 29 898 108 1265 174 149 27 148 27 154 -11z
m2712 -326 c46 -193 50 -218 35 -224 -53 -24 -972 -194 -1417 -262 -164 -25
-311 -48 -325 -51 -23 -3 -28 0 -32 23 -10 53 -41 351 -37 356 3 2 91 18 195
36 445 74 1037 203 1350 294 83 24 157 44 165 45 11 1 27 -50 66 -217z m-6900
29 c130 -53 346 -124 486 -161 79 -21 87 -25 83 -44 -3 -12 -21 -120 -40 -240
-20 -121 -37 -222 -40 -224 -11 -12 -477 80 -704 139 -259 67 -691 217 -691
240 0 5 4 9 9 9 16 0 422 171 601 253 91 42 167 76 170 76 3 1 59 -21 126 -48z
m7624 -396 l0 -224 -52 -15 c-96 -28 -929 -233 -1165 -287 -128 -29 -236 -50
-240 -46 -9 10 -105 469 -99 475 3 2 130 28 283 57 338 64 732 147 1033 218
124 30 228 52 233 50 4 -2 7 -105 7 -228z m-2569 203 c2 -14 46 -383 45 -385
-1 -1 -145 -20 -321 -42 -716 -89 -1275 -135 -2032 -166 l-143 -5 0 199 0 199
198 6 c584 18 978 42 1408 86 226 23 630 74 749 94 44 7 83 14 88 15 4 0 7 0
8 -1z m-4239 -43 c282 -56 608 -98 978 -125 111 -8 615 -29 733 -30 16 0 17
-16 17 -201 l0 -202 -472 6 c-467 6 -630 13 -963 42 -216 19 -530 56 -544 64
-12 8 60 481 74 481 2 0 82 -16 177 -35z m-1572 -190 c47 -17 122 -44 168 -60
50 -16 82 -32 79 -39 -2 -6 -37 -123 -77 -261 -40 -137 -76 -253 -80 -258 -22
-25 -1152 395 -1135 423 2 4 87 35 187 70 101 35 280 100 398 145 l215 81 80
-34 c44 -19 118 -49 165 -67z m-782 -30 c-10 -10 -560 -195 -844 -284 -238
-74 -545 -165 -826 -246 -26 -8 -50 -11 -52 -7 -2 4 -62 4 -133 0 -70 -5 -134
-6 -140 -3 -10 3 -13 62 -13 248 l0 244 293 -5 c226 -3 378 0 677 17 626 36
1053 50 1038 36z m7587 -277 c26 -128 50 -238 52 -244 5 -14 -38 -24 -462
-109 -453 -91 -1055 -194 -1287 -221 -54 -6 -57 -6 -62 17 -16 75 -67 532 -60
538 5 4 104 17 219 30 380 40 1223 160 1450 205 39 7 77 14 86 15 13 1 25 -44
64 -231z m-6373 167 c402 -114 970 -208 1481 -246 92 -7 171 -15 176 -18 9 -6
-4 -579 -13 -589 -17 -16 -683 71 -1019 133 -272 51 -848 189 -893 214 -8 4 6
67 47 206 103 350 98 337 116 331 9 -4 56 -18 105 -31z m-1453 -141 c69 -31
203 -87 296 -125 94 -37 171 -74 173 -81 3 -14 -95 -489 -103 -496 -10 -10
-435 105 -685 184 -258 83 -720 264 -720 283 0 3 89 32 198 65 108 32 312 95
452 141 140 46 257 83 259 84 1 1 60 -24 130 -55z m9401 -208 c0 -141 -4 -227
-10 -231 -19 -12 -1072 -195 -1120 -195 -13 0 -24 35 -55 175 -21 96 -37 176
-34 178 2 2 123 31 269 65 146 34 411 100 590 146 179 46 333 84 343 85 16 1
17 -16 17 -223z m-3429 -125 c24 -193 32 -284 25 -286 -11 -4 -75 -11 -361
-44 -192 -22 -556 -54 -840 -73 -395 -26 -1601 -11 -1625 20 -6 7 7 583 13
588 2 2 104 -1 228 -7 295 -15 1274 -5 1599 15 295 19 610 43 780 60 69 7 129
12 135 11 5 -1 26 -129 46 -284z m-5192 29 c346 -116 636 -197 986 -274 88
-20 170 -38 183 -41 l24 -6 -8 -162 c-3 -89 -8 -163 -9 -165 -10 -11 -660 72
-965 123 -191 32 -551 102 -558 109 -1 2 20 111 48 242 27 131 50 242 50 246
0 4 3 8 6 8 4 0 113 -36 243 -80z m-1818 -6 c57 -26 168 -73 247 -104 79 -32
146 -61 149 -64 4 -4 -392 -1010 -403 -1025 -7 -9 -439 88 -634 142 l-85 23 0
450 0 449 40 13 c60 20 558 160 571 161 6 1 58 -20 115 -45z m9192 -158 c21
-93 35 -172 30 -176 -15 -13 -1146 -168 -1429 -196 l-72 -6 -6 28 c-10 56 -29
225 -24 229 2 3 108 23 234 45 266 47 854 165 1064 214 80 18 149 32 155 31 5
-1 27 -77 48 -169z m-8565 -86 c321 -106 671 -197 1027 -269 206 -42 545 -101
580 -101 48 -1 48 7 5 -420 -22 -222 -42 -405 -44 -407 -11 -11 -842 54 -1186
93 -339 38 -934 126 -949 139 -5 6 400 1015 408 1015 4 0 75 -22 159 -50z
m9812 -91 c0 -122 -1 -129 -20 -129 -19 0 -575 98 -690 122 l-55 11 300 52
c165 29 334 59 375 67 41 8 78 13 83 11 4 -2 7 -62 7 -134z m-2799 -80 c9 -68
15 -125 14 -127 -13 -16 -1526 -144 -1540 -130 -2 2 -7 47 -11 100 -5 79 -4
98 7 102 8 2 104 11 214 20 110 10 216 19 235 21 19 3 118 14 220 25 184 21
694 92 780 109 25 5 50 8 55 7 6 -2 17 -58 26 -127z m-4411 62 c321 -57 769
-110 1125 -132 105 -6 191 -12 192 -13 1 -1 11 -50 21 -109 l19 -107 -206 0
c-303 0 -831 24 -1240 57 l-84 6 7 105 c3 58 6 132 6 165 0 56 1 59 23 54 12
-3 74 -15 137 -26z m6714 -92 c248 -44 461 -84 474 -89 l22 -10 -2 -292 -3
-293 -115 3 c-176 4 -484 21 -700 38 -203 16 -577 58 -585 66 -3 3 94 596 100
605 2 4 299 51 329 52 16 0 232 -35 480 -80z m-878 -6 c-3 -16 -26 -147 -52
-293 -25 -146 -47 -267 -49 -269 -7 -6 -368 58 -595 105 -368 77 -1043 255
-1010 267 8 3 112 15 230 27 276 27 940 111 1230 154 124 18 231 34 238 35 10
1 12 -7 8 -26z m-3024 -123 c4 -52 4 -97 0 -101 -12 -11 -517 -30 -963 -36
l-426 -6 -6 24 c-7 32 -29 172 -28 181 1 3 263 9 584 13 320 3 625 10 677 14
52 4 109 7 125 7 l30 -1 7 -95z m-3607 -70 c86 -13 491 -58 685 -74 162 -15
167 -16 283 -66 129 -55 433 -161 590 -205 53 -15 97 -33 97 -39 0 -6 7 -101
15 -211 8 -110 15 -210 15 -222 l0 -23 -312 0 c-477 0 -1530 28 -1543 41 -1 2
15 175 36 384 21 209 38 390 39 403 0 25 7 26 95 12z m4930 -74 c105 -30 293
-82 419 -115 126 -33 231 -62 233 -65 7 -7 -40 -555 -49 -569 -5 -8 -76 -13
-232 -15 -202 -4 -226 -3 -226 12 0 20 4 19 -290 61 -341 50 -782 105 -1355
170 -542 62 -775 92 -783 100 -5 4 18 215 35 326 l5 36 237 7 c458 13 1249 60
1661 99 74 7 140 12 145 10 6 -1 96 -27 200 -57z m-3485 -47 c140 -6 463 -12
718 -12 l462 -2 -4 -25 c-3 -14 -13 -90 -22 -170 -9 -80 -20 -148 -23 -152 -4
-4 -76 3 -161 17 -330 51 -649 122 -930 207 -129 39 -430 145 -440 155 -3 3
29 3 70 -1 41 -3 190 -11 330 -17z m4453 -199 c422 -92 855 -153 1385 -195
l83 -7 -3 -92 -3 -91 -55 -7 c-300 -37 -1681 -130 -1697 -114 -3 3 5 130 18
282 l23 276 31 -5 c16 -3 114 -24 218 -47z m-4052 -99 c380 -91 700 -138 1729
-256 548 -62 991 -119 1175 -149 89 -15 86 -15 -175 -11 -146 3 -330 10 -410
16 -109 9 -349 8 -970 -1 -454 -7 -964 -13 -1135 -14 l-310 -1 -12 170 c-6 94
-13 194 -16 223 -2 28 -3 52 -1 52 1 0 57 -13 125 -29z m-4831 -76 l125 -31 6
-60 c4 -32 7 -84 8 -115 l1 -56 -57 -6 c-32 -4 -104 -9 -160 -13 l-103 -7 0
160 c0 88 3 163 7 166 4 4 16 4 27 0 12 -3 77 -20 146 -38z m10915 -54 l70 -6
3 -34 c2 -18 -1 -38 -6 -43 -7 -7 -495 -66 -559 -68 -10 0 -13 24 -13 86 l0
86 218 -7 c119 -4 249 -10 287 -14z m-10531 -35 c89 -19 233 -47 321 -62 88
-15 164 -30 168 -34 4 -4 -84 -16 -195 -28 -285 -31 -467 -47 -472 -41 -2 2
-6 48 -8 102 -3 80 -1 97 11 97 7 0 86 -15 175 -34z m10604 -400 l2 -277 -22
6 c-52 16 -535 194 -835 308 -203 76 -316 124 -305 128 9 3 62 9 117 13 110 8
851 81 955 95 36 5 70 7 75 6 6 -1 11 -104 13 -279z m-9615 239 c111 -13 272
-31 357 -40 214 -21 267 -27 255 -31 -26 -8 -917 -115 -922 -110 -5 4 -41 167
-43 188 0 8 39 14 103 17 26 0 138 -10 250 -24z m-410 -17 c15 -65 30 -169 25
-174 -16 -15 -1148 -127 -1161 -115 -4 4 -6 52 -5 107 l3 99 170 12 c238 17
504 41 729 68 249 29 233 29 239 3z m8820 -118 c59 -23 107 -47 107 -52 0 -16
-201 -562 -211 -572 -9 -10 -118 35 -417 171 -175 80 -794 389 -832 416 -24
17 -77 13 520 43 173 8 389 22 480 29 91 7 183 12 205 10 22 -1 88 -22 148
-45z m-7140 25 c144 -8 376 -19 516 -25 140 -5 256 -12 258 -14 6 -6 -488
-168 -779 -255 -389 -117 -773 -219 -783 -209 -8 7 -128 439 -123 443 8 8 520
73 581 74 37 0 185 -6 330 -14z m4387 -19 c0 -12 -347 -246 -364 -246 -5 0
-126 224 -126 233 0 3 21 8 48 10 69 5 442 8 442 3z m-493 -144 l72 -138 -112
-61 c-396 -216 -881 -423 -1443 -616 l-161 -55 -68 176 c-37 97 -76 198 -86
223 l-18 47 112 43 c249 95 890 367 1060 450 36 17 46 27 42 40 -8 23 18 25
310 27 l220 2 72 -138z m1048 118 c187 -6 417 -8 510 -4 l170 6 150 -81 c83
-45 230 -122 327 -171 l176 -90 -90 -225 c-60 -149 -95 -225 -105 -225 -38 0
-635 255 -856 366 -231 117 -510 282 -662 394 l-70 52 55 -6 c30 -4 208 -11
395 -16z m-3475 -1 l285 -1 -115 -55 c-304 -148 -1015 -442 -1030 -427 -9 9
-131 317 -127 319 1 1 99 34 217 75 118 40 220 79 225 87 8 13 31 14 135 9 69
-3 253 -6 410 -7z m1739 1 c-29 -17 -369 -166 -599 -263 -395 -166 -875 -348
-1273 -483 l-188 -63 -15 36 c-9 20 -43 106 -76 192 -33 86 -62 159 -65 164
-2 4 4 10 14 14 114 41 821 357 870 389 18 11 101 14 450 17 235 1 534 3 663
4 150 2 229 -1 219 -7z m-4125 -235 c32 -119 59 -223 60 -231 1 -19 -59 -35
-399 -108 -439 -95 -891 -172 -1305 -221 -119 -14 -225 -25 -238 -25 l-22 0 0
295 c0 227 3 297 13 300 6 3 134 16 282 30 339 31 920 96 1260 139 143 19 267
34 275 35 12 1 29 -51 74 -214z m5513 108 c87 -58 159 -107 160 -107 4 -2 -53
-295 -59 -301 -3 -3 -56 6 -117 20 -61 15 -115 24 -121 20 -5 -3 -10 -2 -10 3
0 5 -44 22 -97 37 -134 38 -386 114 -390 118 -2 2 54 39 124 81 71 42 178 112
238 156 61 43 111 78 112 79 2 1 74 -47 160 -106z m3081 -57 c197 -73 425
-157 507 -187 83 -29 153 -58 157 -64 9 -12 11 -649 2 -657 -6 -7 -406 126
-639 212 -210 77 -594 231 -600 240 -5 8 204 590 212 590 3 0 165 -60 361
-134z m-7191 -170 c35 -88 62 -161 60 -162 -18 -18 -672 -238 -958 -323 -378
-111 -892 -241 -905 -228 -8 7 -97 387 -92 392 2 2 98 24 213 50 266 58 669
160 940 237 217 61 571 169 615 187 55 22 60 16 127 -153z m4444 18 c118 -68
476 -246 612 -305 44 -18 74 -35 68 -37 -27 -9 -462 53 -808 115 -21 4 -33 11
-33 22 0 13 43 271 45 271 1 0 53 -30 116 -66z m1612 -128 c331 -154 827 -362
1040 -437 20 -7 37 -18 37 -24 0 -5 -12 -83 -26 -172 -21 -123 -31 -163 -42
-163 -78 0 -1349 403 -1386 440 -7 7 161 450 171 450 2 0 95 -42 206 -94z
m-2412 9 c335 -100 660 -177 892 -211 27 -3 50 -12 52 -18 8 -22 64 -799 59
-807 -12 -21 -556 -4 -863 26 -690 68 -1365 253 -1690 463 l-60 39 147 53
c365 132 785 312 1057 454 77 40 143 74 148 75 4 0 120 -33 258 -74z m-3158
-77 c19 -51 53 -139 75 -195 l40 -103 -186 -59 c-364 -116 -752 -227 -1132
-324 -231 -59 -691 -167 -713 -167 -8 0 -26 54 -50 151 -21 84 -36 153 -35
154 2 2 98 28 213 58 485 129 1030 305 1485 481 135 52 250 95 256 95 6 1 27
-41 47 -91z m1135 -254 c46 -119 81 -218 78 -221 -8 -9 -342 -111 -616 -189
-392 -112 -1315 -343 -1326 -331 -2 1 -17 75 -34 162 -17 88 -33 167 -36 176
-3 13 15 22 93 44 453 127 1141 351 1538 499 110 41 205 75 210 75 6 1 48 -96
93 -215z m-3535 -101 c25 -108 44 -199 42 -201 -9 -9 -499 -102 -715 -136
-233 -37 -577 -82 -665 -88 l-50 -3 0 214 0 215 205 23 c327 37 878 122 1045
162 95 22 86 35 138 -186z m6742 178 c77 -11 203 -25 280 -31 218 -18 235 -22
500 -123 138 -52 391 -141 563 -198 352 -115 338 -104 187 -153 -426 -137
-1027 -244 -1522 -272 -112 -6 -123 -5 -123 10 0 22 -48 643 -55 724 -8 74
-24 70 170 43z m2610 -315 c116 -41 257 -89 315 -108 l105 -35 3 -146 c2 -114
0 -147 -10 -147 -15 0 -701 171 -707 176 -2 2 9 80 24 174 24 146 30 170 44
165 9 -4 111 -39 226 -79z m-5370 -36 c140 -96 461 -221 767 -300 102 -26 125
-35 122 -49 -3 -9 -33 -158 -69 -331 -36 -173 -67 -325 -70 -337 l-5 -21 -87
19 c-600 131 -1057 370 -1345 704 -42 49 -86 106 -98 127 l-21 37 103 31 c57
17 211 66 343 109 l240 78 40 -20 c22 -11 58 -32 80 -47z m-3610 -180 c21 -83
35 -153 33 -156 -9 -8 -537 -110 -793 -153 -420 -70 -979 -146 -996 -135 -11
7 -12 291 -1 298 5 3 90 15 188 26 461 54 1075 161 1404 244 52 13 102 24 111
25 13 1 24 -30 54 -149z m1202 -129 c19 -95 33 -174 31 -176 -6 -5 -549 -115
-811 -164 -497 -94 -1314 -224 -1322 -211 -6 9 -47 271 -43 275 2 1 102 19
223 39 499 84 1087 210 1605 345 146 38 269 68 274 67 5 -1 24 -80 43 -175z
m7128 118 c99 -28 263 -73 364 -100 101 -27 185 -50 186 -51 8 -8 105 -261
102 -264 -9 -9 -495 -137 -713 -187 -452 -105 -1099 -227 -1114 -210 -10 11
-123 573 -117 580 3 3 65 16 139 29 332 61 719 163 863 228 44 19 87 33 95 31
8 -2 96 -27 195 -56z m-5566 -16 c10 -21 56 -82 101 -136 212 -254 531 -462
922 -603 l108 -39 -1 -35 c0 -19 -5 -60 -10 -90 -5 -30 -23 -167 -39 -305 -17
-137 -33 -256 -36 -264 -8 -25 -489 -8 -694 23 -558 87 -970 209 -1340 397
-86 43 -166 79 -178 79 -17 0 -22 5 -18 18 3 13 -14 29 -69 65 -111 72 -220
163 -325 274 -110 114 -188 221 -168 227 7 2 141 32 298 66 341 74 963 229
1220 304 102 30 191 54 197 55 7 1 21 -16 32 -36z m1958 -172 c684 -136 1517
-157 2208 -55 l40 6 59 -291 c33 -160 57 -293 54 -297 -13 -13 -415 -63 -708
-88 -563 -49 -1129 -49 -1580 0 -141 16 -369 49 -375 56 -2 3 132 662 140 686
5 15 -11 17 162 -17z m4463 -37 c113 -26 207 -49 209 -51 13 -9 -29 -26 -178
-72 -91 -28 -165 -50 -167 -48 -12 13 -90 228 -81 224 7 -2 104 -26 217 -53z
m218 -336 l-3 -202 -215 -61 c-118 -34 -275 -77 -347 -96 -107 -27 -133 -37
-133 -51 0 -15 -9 -18 -52 -18 -29 0 -131 -19 -225 -42 -95 -23 -176 -39 -179
-35 -7 6 -74 370 -70 374 1 1 137 36 301 77 292 73 673 179 825 229 41 14 81
25 88 26 10 1 12 -42 10 -201z m-10389 13 c12 -74 20 -135 19 -136 -7 -6 -731
-95 -772 -95 l-26 0 0 135 c0 100 3 137 13 140 6 2 122 18 257 35 135 17 297
39 360 48 63 10 118 16 122 13 3 -3 16 -66 27 -140z m1971 57 c25 -39 98 -126
163 -194 l117 -122 -30 -78 c-17 -42 -29 -83 -26 -91 3 -7 0 -13 -7 -13 -8 0
-55 -104 -112 -247 -54 -137 -103 -251 -109 -256 -6 -4 -308 -6 -671 -5 l-660
3 -110 49 c-298 131 -494 233 -727 378 -69 43 -134 78 -143 78 -11 0 -15 5
-11 15 3 10 -18 32 -67 68 -40 30 -78 61 -85 70 -16 19 -39 15 328 62 610 78
1529 231 2005 334 50 10 92 19 95 20 3 0 25 -32 50 -71z m7164 -404 c19 -104
33 -190 31 -192 -14 -15 -789 -169 -1160 -231 -358 -60 -675 -105 -682 -97 -6
6 -52 418 -47 427 2 3 45 9 96 13 389 29 1038 127 1523 230 110 23 201 41 203
40 1 -1 18 -86 36 -190z m-4024 37 c333 -84 603 -121 913 -128 193 -4 237 -8
237 -19 0 -11 24 -14 115 -14 96 0 115 3 115 15 0 8 5 15 10 15 6 0 10 -7 10
-15 0 -8 5 -15 10 -15 6 0 10 7 10 15 0 13 44 15 339 15 l340 0 6 -52 c3 -29
14 -128 24 -220 l17 -166 -35 -6 c-84 -13 -407 -47 -536 -56 -170 -12 -1812
-13 -1819 -1 -3 4 8 118 25 252 47 381 52 419 58 419 3 0 76 -18 161 -39z
m-5684 -2 c40 -43 154 -129 170 -129 7 0 11 -6 9 -12 -12 -33 475 -314 765
-443 47 -21 89 -41 95 -46 5 -5 -80 -9 -201 -9 l-210 0 -44 41 c-143 130 -391
238 -565 246 -73 4 -96 1 -124 -14 -78 -41 -100 -119 -57 -206 14 -30 26 -57
26 -61 0 -4 -15 -6 -32 -4 l-33 3 -3 322 -2 323 22 5 c13 2 39 6 58 8 88 9 96
8 126 -24z m2908 -8 c41 -38 170 -121 187 -121 11 0 16 -5 13 -13 -5 -14 67
-58 233 -141 265 -132 584 -238 947 -315 76 -16 140 -32 143 -35 4 -3 -401 -6
-899 -6 -497 0 -907 2 -910 5 -3 3 37 113 88 243 52 130 94 241 94 246 0 5 6
17 13 25 8 9 24 42 37 74 12 31 25 57 28 57 3 0 15 -9 26 -19z m7999 -23 c9
-24 22 -56 28 -73 21 -52 21 -57 26 -207 5 -138 4 -147 -15 -157 -11 -6 -141
-45 -288 -88 l-269 -78 -790 0 -790 0 -17 70 c-9 38 -16 71 -14 72 1 2 122 26
267 54 557 106 1259 271 1259 295 0 10 12 14 39 14 33 0 343 80 481 124 65 20
66 20 83 -26z m-10733 -413 c47 -15 117 -43 155 -62 78 -39 195 -114 195 -125
0 -5 -124 -8 -275 -8 l-274 0 -35 30 c-19 17 -42 51 -51 75 -15 37 -15 47 -3
71 7 16 24 34 38 42 36 19 149 9 250 -23z m8553 -117 c8 -35 12 -66 10 -70 -2
-5 -200 -8 -440 -8 -240 0 -434 2 -431 5 3 3 129 24 279 45 151 22 335 51 409
64 74 13 140 24 147 25 6 1 18 -27 26 -61z m2235 -25 l-3 -48 -164 -3 c-91 -1
-162 1 -157 5 9 9 284 91 309 92 15 1 18 -6 15 -46z"/>
<path d="M10539 8724 c-112 -20 -185 -50 -230 -95 -35 -35 -39 -44 -39 -92 0
-92 61 -153 195 -194 89 -27 311 -24 420 6 179 48 265 121 265 225 0 101 -165
166 -420 165 -63 -1 -149 -7 -191 -15z m336 -54 c137 -20 215 -59 215 -107 0
-38 -73 -104 -145 -131 -195 -75 -491 -58 -582 33 -45 45 -46 93 -2 129 78 66
327 102 514 76z"/>
<path d="M4689 8009 c-61 -9 -86 -23 -104 -59 -63 -121 63 -250 304 -311 113
-29 246 -24 307 10 73 41 92 101 51 162 -76 113 -391 225 -558 198z m271 -98
c111 -38 189 -80 224 -122 31 -37 32 -43 7 -68 -112 -112 -573 30 -559 172 5
47 35 59 143 54 67 -3 115 -13 185 -36z"/>
<path d="M2369 6525 c-176 -28 -317 -91 -367 -165 -49 -72 -10 -175 80 -218
170 -79 500 -35 674 90 84 60 121 161 81 221 -51 78 -242 107 -468 72z m351
-66 c50 -17 70 -38 70 -72 0 -142 -412 -274 -644 -205 -55 17 -106 67 -106
106 0 74 162 152 375 181 86 12 258 6 305 -10z"/>
<path d="M7666 6174 c-128 -28 -196 -82 -196 -153 0 -122 183 -199 406 -171
194 24 314 100 314 198 0 47 -50 95 -121 117 -76 25 -309 30 -403 9z m380 -68
c28 -9 59 -25 70 -37 17 -19 17 -23 3 -47 -41 -73 -145 -107 -329 -107 -117 0
-141 3 -182 22 -127 59 -90 143 79 178 87 18 288 13 359 -9z"/>
<path d="M3699 3394 c-112 -20 -185 -50 -230 -95 -35 -35 -39 -44 -39 -92 0
-92 61 -153 195 -194 89 -27 311 -24 420 6 179 48 265 121 265 225 0 101 -165
166 -420 165 -63 -1 -149 -7 -191 -15z m336 -54 c137 -20 215 -59 215 -107 0
-38 -73 -104 -145 -131 -141 -54 -346 -63 -481 -21 -124 38 -173 125 -103 183
78 66 327 102 514 76z"/>
<path d="M8393 1845 c-80 -18 -161 -61 -179 -97 -73 -142 124 -258 387 -228
156 18 268 71 303 145 36 75 -3 138 -107 171 -72 23 -319 29 -404 9z m383 -69
c123 -38 100 -112 -54 -169 -48 -18 -79 -22 -197 -22 -123 0 -146 3 -187 22
-52 24 -81 60 -76 95 4 29 90 74 168 87 79 14 285 6 346 -13z"/>
<path d="M4098 1144 c-33 -18 -58 -62 -58 -104 0 -140 274 -310 500 -310 151
1 224 91 155 192 -50 74 -244 187 -381 222 -77 20 -180 20 -216 0z m196 -60
c96 -24 255 -106 314 -161 62 -58 66 -84 20 -113 -107 -65 -429 47 -504 176
-29 50 -30 68 -4 94 25 25 87 26 174 4z"/>
</g>
</svg>
