<?xml version="1.0" standalone="no"?>
<!DOCTYPE svg PUBLIC "-//W3C//DTD SVG 20010904//EN"
 "http://www.w3.org/TR/2001/REC-SVG-20010904/DTD/svg10.dtd">
<svg version="1.0" xmlns="http://www.w3.org/2000/svg"
 width="1125.000000pt" height="900.000000pt" viewBox="0 0 1125.000000 900.000000"
 preserveAspectRatio="xMidYMid meet">
<metadata>
Created by potrace 1.13, written by Peter Selinger 2001-2015
</metadata>
<g transform="translate(0.000000,900.000000) scale(0.100000,-0.100000)"
fill="#000000" stroke="none">
<path d="M0 4500 l0 -4500 5625 0 5625 0 0 4500 0 4500 -5625 0 -5625 0 0
-4500z m2188 4428 l3 -28 -1075 0 -1076 0 0 23 c0 13 3 27 7 30 3 4 486 6
1072 5 l1066 -3 3 -27z m2760 0 l3 -28 -1350 0 -1351 0 0 23 c0 13 3 27 7 30
3 4 610 6 1347 5 l1341 -3 3 -27z m2710 0 l3 -28 -1325 0 -1326 0 0 23 c0 13
3 27 7 30 3 4 599 6 1322 5 l1316 -3 3 -27z m2840 0 l3 -28 -1390 0 -1391 0 0
23 c0 13 3 27 7 30 3 4 628 6 1387 5 l1381 -3 3 -27z m710 0 l3 -28 -325 0
-326 0 0 23 c0 13 3 27 7 30 4 4 149 6 322 5 l316 -3 3 -27z m-9898 -403 l0
-305 -632 2 -633 3 -3 303 -2 302 635 0 635 0 0 -305z m2590 0 l0 -305 -1260
0 -1260 0 0 305 0 305 1260 0 1260 0 0 -305z m2588 3 l-3 -303 -1257 -3 -1258
-2 0 305 0 305 1260 0 1260 0 -2 -302z m3152 -3 l0 -305 -1542 2 -1543 3 -3
303 -2 302 1545 0 1545 0 0 -305z m1570 246 c0 -33 -4 -62 -9 -65 -19 -12
-232 -356 -226 -366 3 -5 14 -14 24 -20 16 -8 30 8 107 130 49 77 92 140 97
140 4 0 6 -82 5 -182 l-3 -183 -750 0 -750 0 -3 303 -2 302 755 0 755 0 0 -59z
m-8560 -956 l0 -345 -1302 2 -1303 3 -3 343 -2 342 1305 0 1305 0 0 -345z
m2580 0 l0 -345 -1255 0 -1255 0 0 345 0 345 1255 0 1255 0 0 -345z m2760 0
l0 -345 -1350 0 -1350 0 0 345 0 345 1350 0 1350 0 0 -345z m2840 0 l0 -345
-1387 2 -1388 3 -3 343 -2 342 1390 0 1390 0 0 -345z m378 3 l-3 -343 -157 -3
-158 -3 0 346 0 345 160 0 160 0 -2 -342z m-10298 -768 l0 -360 -435 0 -435 0
0 353 c0 195 3 357 7 360 3 4 199 7 435 7 l428 0 0 -360z m2808 -2 l2 -358
-1370 0 -1370 0 0 360 0 360 1368 -2 1367 -3 3 -357z m2552 2 l0 -360 -1245 0
-1245 0 0 360 0 360 1245 0 1245 0 0 -360z m3030 0 l0 -360 -1485 0 -1485 0 0
360 0 360 1485 0 1485 0 0 -360z m1908 -2 l2 -358 -925 0 -925 0 0 360 0 360
923 -2 922 -3 3 -357z m-9078 -853 l0 -425 -1045 0 -1045 0 0 243 c0 203 3
246 16 265 14 20 14 24 0 44 -13 18 -16 52 -16 160 l0 138 1045 0 1045 0 0
-425z m2620 0 l0 -425 -1280 0 -1280 0 0 425 0 425 1280 0 1280 0 0 -425z
m2710 0 l0 -425 -1325 0 -1325 0 0 425 0 425 1325 0 1325 0 0 -425z m2910 0
l0 -425 -1425 0 -1425 0 0 425 0 425 1425 0 1425 0 0 -425z m840 245 l0 -179
-145 -127 c-144 -125 -144 -126 -129 -150 9 -13 18 -24 21 -24 2 0 55 45 118
100 63 55 118 100 124 100 8 0 11 -64 11 -195 l0 -195 -385 0 -385 0 0 425 0
425 385 0 385 0 0 -180z m-10700 -1060 l0 -320 -233 2 -232 3 -3 73 c-3 78 1
83 45 55 24 -16 26 -16 39 2 21 29 17 37 -34 70 l-47 30 -3 203 -2 202 235 0
235 0 0 -320z m2790 0 l0 -320 -1360 0 -1360 0 0 320 0 320 1360 0 1360 0 0
-320z m2640 0 l0 -320 -1290 0 -1290 0 0 320 0 320 1290 0 1290 0 0 -320z
m3010 0 l0 -320 -1472 2 -1473 3 -3 318 -2 317 1475 0 1475 0 0 -320z m2260
154 c0 -133 -3 -165 -13 -161 -7 3 -70 41 -140 86 l-127 81 -16 -26 c-9 -13
-15 -27 -12 -29 3 -3 70 -46 149 -96 79 -50 147 -96 152 -103 4 -6 6 -58 5
-116 l-3 -105 -1097 -3 -1098 -2 0 320 0 320 1100 0 1100 0 0 -166z m-8990
-979 l0 -445 -1090 0 -1090 0 0 90 c0 89 5 101 28 78 10 -10 17 -7 34 10 l22
21 -42 39 -42 39 0 300 c0 165 3 303 7 306 3 4 494 7 1090 7 l1083 0 0 -445z
m2810 0 l0 -445 -1375 0 -1375 0 0 445 0 445 1375 0 1375 0 0 -445z m2660 0
l0 -445 -1300 0 -1300 0 0 445 0 445 1300 0 1300 0 0 -445z m2810 0 l0 -445
-1375 0 -1375 0 0 445 0 445 1375 0 1375 0 0 -445z m708 188 c1 -140 -2 -253
-6 -253 -5 0 -48 34 -95 75 -47 41 -89 75 -95 75 -5 0 -17 -8 -26 -19 -16 -18
-12 -23 96 -117 62 -54 116 -103 120 -109 4 -5 8 -72 8 -147 l0 -138 -325 0
-325 0 0 445 0 445 323 -2 322 -3 3 -252z m-10128 -1103 l0 -400 -520 0 -520
0 0 400 0 400 520 0 520 0 0 -400z m2680 0 l0 -400 -1305 0 -1305 0 0 400 0
400 1305 0 1305 0 0 -400z m2660 0 l0 -400 -1300 0 -1300 0 0 400 0 400 1300
0 1300 0 0 -400z m3100 0 l0 -400 -1520 0 -1520 0 0 400 0 400 1520 0 1520 0
0 -400z m1690 0 l0 -400 -815 0 -815 0 0 400 0 400 815 0 815 0 0 -400z
m-8522 -867 l2 -403 -1325 0 -1325 0 0 398 c0 219 3 402 7 405 3 4 599 6 1322
5 l1316 -3 3 -402z m2572 2 l0 -405 -1255 0 -1255 0 0 405 0 405 1255 0 1255
0 0 -405z m2760 0 l0 -405 -1345 0 -1345 0 0 405 0 405 1345 0 1345 0 0 -405z
m2828 -2 l2 -403 -1380 0 -1380 0 0 405 0 405 1378 -2 1377 -3 3 -402z m360 0
l2 -403 -150 0 -150 0 0 398 c0 219 3 402 7 406 4 3 70 5 147 4 l141 -3 3
-402z m-10318 -858 l0 -385 -425 0 -425 0 0 385 0 385 425 0 425 0 0 -385z
m2760 0 l0 -385 -1350 0 -1350 0 0 385 0 385 1350 0 1350 0 0 -385z m2630 0
l0 -385 -1285 0 -1285 0 0 385 0 385 1285 0 1285 0 0 -385z m3100 0 l0 -385
-1520 0 -1520 0 0 385 0 385 1520 0 1520 0 0 -385z m1830 0 l0 -385 -885 0
-885 0 0 385 0 385 885 0 885 0 0 -385z m-8992 -757 l-3 -313 -1085 0 -1085 0
-3 53 c-2 34 1 52 8 52 7 0 20 10 30 22 17 22 17 23 -11 49 l-29 27 0 204 c0
113 3 208 7 211 3 4 494 7 1090 7 l1083 0 -2 -312z m2812 -3 l0 -315 -1372 2
-1373 3 -3 300 c-1 165 0 305 3 312 3 10 281 13 1375 13 l1370 0 0 -315z
m2655 0 l0 -310 -1295 0 -1295 0 -3 300 c-1 165 0 305 3 312 3 11 262 13 1297
11 l1293 -3 0 -310z m2760 0 l0 -310 -1345 0 -1345 0 -3 300 c-1 165 0 305 3
312 3 11 272 13 1347 11 l1343 -3 0 -310z m763 153 c1 -87 -1 -158 -5 -158 -5
0 -55 40 -112 90 -99 85 -106 89 -123 73 -10 -9 -18 -21 -17 -27 0 -6 56 -58
125 -116 68 -58 126 -114 129 -125 3 -11 5 -60 3 -110 l-3 -90 -345 0 -345 0
-3 313 -2 312 347 -2 348 -3 3 -157z m-10098 -853 l0 -325 -533 2 -532 3 -3
310 c-1 170 0 315 3 322 3 10 117 13 535 13 l530 0 0 -325z m2660 0 l0 -325
-1300 0 -1300 0 0 325 0 325 1300 0 1300 0 0 -325z m2630 0 l0 -325 -1285 0
-1285 0 0 325 0 325 1285 0 1285 0 0 -325z m3120 0 l0 -325 -1530 0 -1530 0 0
325 0 325 1530 0 1530 0 0 -325z m1685 0 l0 -320 -812 -3 -813 -2 0 325 0 325
813 -2 812 -3 0 -320z m-8547 -397 c-4 -10 -274 -14 -1299 -16 -712 -1 -1300
0 -1307 3 -59 22 82 25 1304 25 1040 0 1305 -3 1302 -12z m2522 -3 c0 -16
-2452 -14 -2458 3 -3 10 244 12 1227 10 812 -2 1231 -6 1231 -13z m2818 3 c-4
-10 -290 -14 -1376 -16 -1215 -2 -1372 0 -1372 13 0 13 158 15 1376 15 1096 0
1375 -3 1372 -12z m2840 0 c-4 -10 -290 -13 -1388 -13 -1098 0 -1384 3 -1387
13 -4 9 278 12 1387 12 1109 0 1391 -3 1388 -12z"/>
<path d="M406 8678 c-13 -18 -13 -25 -3 -34 6 -6 117 -78 245 -158 218 -137
235 -146 248 -129 7 10 14 23 14 28 0 8 -447 299 -481 313 -4 2 -14 -7 -23
-20z"/>
<path d="M2492 8717 c-13 -6 -21 -16 -18 -24 13 -32 222 -352 231 -352 6 0 18
6 29 14 18 13 14 22 -85 176 -128 201 -127 200 -157 186z"/>
<path d="M1890 8554 c-184 -160 -191 -167 -174 -185 9 -10 21 -19 26 -19 8 0
107 83 316 268 70 62 72 65 56 83 -9 11 -21 19 -25 19 -5 0 -94 -75 -199 -166z"/>
<path d="M3290 8550 c-129 -83 -236 -155 -238 -163 -1 -7 3 -20 10 -30 12 -16
34 -5 260 138 l248 156 -16 25 c-9 13 -19 24 -23 23 -3 0 -112 -67 -241 -149z"/>
<path d="M5277 8623 c-182 -282 -172 -264 -152 -279 10 -8 24 -14 29 -14 9 0
124 172 214 320 l22 37 -25 17 -25 16 -63 -97z"/>
<path d="M4316 8691 c-9 -9 -16 -20 -16 -24 0 -13 382 -337 391 -332 5 4 13
15 19 25 9 16 -14 40 -173 177 -100 87 -187 162 -193 166 -6 3 -19 -2 -28 -12z"/>
<path d="M5702 8690 c-6 -11 -12 -22 -12 -24 0 -7 477 -306 489 -306 9 0 31
31 31 43 0 7 -477 307 -487 307 -5 0 -14 -9 -21 -20z"/>
<path d="M7329 8549 c-237 -205 -218 -184 -191 -211 l22 -22 27 25 c16 14 100
88 188 164 88 76 161 144 163 150 1 6 -6 19 -16 28 -17 16 -27 9 -193 -134z"/>
<path d="M7975 8686 c-17 -13 -12 -23 90 -182 133 -208 126 -200 154 -177 l22
18 -113 177 c-62 98 -118 178 -124 178 -5 0 -19 -6 -29 -14z"/>
<path d="M8905 8524 c-126 -80 -234 -149 -238 -154 -10 -9 9 -50 24 -50 9 0
463 282 482 300 10 9 -13 50 -28 50 -5 -1 -113 -66 -240 -146z"/>
<path d="M10145 8680 c-9 -10 -15 -23 -14 -28 2 -5 76 -71 164 -147 88 -76
172 -149 187 -163 27 -25 28 -25 48 -7 11 10 20 21 20 25 0 6 -302 272 -366
322 -20 17 -22 16 -39 -2z"/>
<path d="M290 7864 c-221 -194 -215 -187 -201 -213 7 -11 15 -21 20 -21 4 0
94 75 199 166 191 165 192 165 176 190 -9 13 -19 24 -23 23 -3 0 -80 -66 -171
-145z"/>
<path d="M936 7997 c-10 -8 -17 -18 -15 -24 8 -19 224 -353 229 -353 3 0 15 8
27 18 l21 17 -112 174 c-62 96 -117 176 -122 178 -6 2 -18 -3 -28 -10z"/>
<path d="M1858 7831 c-231 -146 -246 -157 -234 -175 7 -11 17 -21 22 -23 7 -2
469 281 491 301 1 1 -6 13 -15 27 l-17 26 -247 -156z"/>
<path d="M3867 7823 c-115 -177 -115 -178 -95 -196 12 -10 25 -16 29 -15 9 3
229 344 229 355 0 7 -32 32 -41 33 -4 0 -59 -80 -122 -177z"/>
<path d="M4466 7975 l-17 -25 83 -53 c176 -114 405 -257 410 -257 3 0 13 11
21 24 l16 24 -227 143 c-125 79 -237 149 -248 156 -19 12 -23 11 -38 -12z"/>
<path d="M2926 7971 c-17 -18 -12 -24 174 -185 105 -91 194 -166 199 -166 4 0
16 9 25 19 17 19 12 25 -169 183 -103 90 -193 164 -199 166 -7 1 -20 -6 -30
-17z"/>
<path d="M6511 7960 l-25 -18 104 -162 c135 -211 129 -204 158 -182 l22 17
-115 179 c-63 98 -116 180 -117 182 -2 1 -14 -6 -27 -16z"/>
<path d="M5842 7805 c-106 -91 -192 -170 -192 -174 0 -4 9 -16 19 -25 19 -17
26 -12 205 144 102 88 188 166 192 171 3 6 -2 20 -13 30 -19 19 -21 18 -211
-146z"/>
<path d="M7441 7799 c-129 -82 -239 -153 -244 -158 -10 -10 8 -51 23 -51 11 0
484 299 487 308 2 4 -5 17 -15 28 -17 21 -17 21 -251 -127z"/>
<path d="M8386 7951 c-9 -9 -16 -20 -16 -24 0 -3 86 -80 191 -172 183 -159
192 -165 210 -149 11 9 19 21 19 25 0 7 -351 317 -376 332 -6 4 -19 -2 -28
-12z"/>
<path d="M9322 7795 c-62 -97 -110 -180 -107 -185 3 -6 14 -14 25 -20 16 -9
32 11 135 172 109 169 116 182 99 195 -10 7 -23 13 -28 13 -6 0 -62 -79 -124
-175z"/>
<path d="M9922 7949 c-10 -15 -10 -25 -3 -32 6 -6 115 -77 243 -158 231 -146
233 -147 251 -127 9 11 17 23 17 27 0 6 -454 296 -480 306 -9 3 -21 -4 -28
-16z"/>
<path d="M315 7055 c-126 -80 -234 -151 -239 -159 -6 -8 -4 -21 5 -34 14 -20
22 -16 262 136 234 147 246 157 234 176 -8 11 -18 21 -23 23 -5 1 -112 -63
-239 -142z"/>
<path d="M2282 7045 c-62 -96 -112 -179 -112 -184 0 -15 41 -34 50 -24 4 4 58
85 118 180 l111 172 -24 15 c-14 9 -26 16 -28 16 -2 0 -53 -79 -115 -175z"/>
<path d="M2882 7199 c-7 -10 -12 -23 -12 -28 0 -5 109 -78 241 -162 l242 -153
19 24 c10 13 15 26 11 30 -6 6 -438 279 -478 303 -6 3 -16 -3 -23 -14z"/>
<path d="M1342 7198 c-7 -7 -12 -17 -12 -24 0 -13 365 -334 379 -334 4 0 16 9
25 19 16 18 13 23 -101 122 -65 56 -150 131 -189 166 -76 67 -83 70 -102 51z"/>
<path d="M4778 7246 c-10 -7 -18 -17 -18 -21 0 -12 222 -355 229 -355 3 1 16
6 29 13 22 13 21 15 -93 192 -63 99 -118 181 -123 182 -4 1 -15 -4 -24 -11z"/>
<path d="M4230 7104 c-226 -198 -213 -184 -192 -212 l18 -23 169 146 c228 197
219 188 206 214 -7 11 -17 21 -24 20 -7 0 -86 -66 -177 -145z"/>
<path d="M5702 7078 c-133 -84 -242 -158 -242 -164 0 -5 6 -18 13 -28 12 -17
31 -8 248 129 129 81 239 153 246 159 9 8 8 16 -5 34 l-18 23 -242 -153z"/>
<path d="M7672 7045 c-62 -96 -112 -179 -112 -184 0 -15 41 -34 50 -24 4 4 58
85 118 180 l111 172 -24 15 c-14 9 -26 16 -28 16 -2 0 -53 -79 -115 -175z"/>
<path d="M8272 7200 c-7 -11 -12 -24 -12 -29 0 -14 478 -313 490 -306 5 3 14
14 20 24 8 17 -18 36 -218 162 -125 78 -236 149 -247 156 -18 11 -22 10 -33
-7z"/>
<path d="M6732 7198 c-7 -7 -12 -17 -12 -24 0 -12 350 -321 374 -330 11 -4 54
32 45 39 -2 2 -88 76 -191 165 -103 89 -191 162 -195 162 -5 0 -14 -5 -21 -12z"/>
<path d="M9995 7064 c-104 -91 -191 -169 -193 -173 -1 -4 6 -16 17 -25 24 -22
3 -37 239 168 l172 149 -22 24 c-12 12 -22 23 -22 23 -1 -1 -86 -75 -191 -166z"/>
<path d="M10657 7215 c-18 -13 -12 -24 89 -182 133 -208 125 -199 153 -176
l23 19 -114 177 c-62 97 -117 177 -123 177 -5 -1 -18 -7 -28 -15z"/>
<path d="M508 6334 l-28 -15 56 -87 c31 -48 83 -129 116 -179 33 -51 65 -93
72 -93 6 0 19 6 28 13 15 12 6 31 -99 193 -63 98 -116 180 -116 181 -1 1 -14
-5 -29 -13z"/>
<path d="M1435 6169 c-132 -83 -243 -154 -247 -157 -4 -4 1 -18 11 -31 l18
-24 242 153 c132 83 243 155 245 159 3 4 -3 17 -12 29 l-17 22 -240 -151z"/>
<path d="M2356 6345 c-16 -24 -16 -24 167 -183 100 -87 188 -162 195 -166 12
-7 41 17 42 36 0 6 -352 316 -376 331 -7 4 -19 -4 -28 -18z"/>
<path d="M3292 6192 l-113 -177 22 -17 c11 -10 24 -16 29 -13 4 2 58 84 120
181 107 166 112 177 95 190 -10 8 -24 14 -29 14 -6 0 -62 -80 -124 -178z"/>
<path d="M3896 6348 c-8 -12 -13 -25 -11 -29 3 -4 113 -75 246 -159 226 -143
241 -151 254 -134 8 11 14 24 15 29 0 6 -100 73 -222 150 -288 182 -264 170
-282 143z"/>
<path d="M5322 6205 c-105 -92 -192 -170 -192 -174 0 -5 9 -16 19 -25 19 -17
26 -13 210 146 104 89 190 166 190 169 1 4 -7 17 -17 28 -17 22 -17 22 -210
-144z"/>
<path d="M5985 6356 c-18 -13 -18 -14 6 -53 63 -105 205 -323 209 -323 3 0 15
8 27 18 l22 17 -112 174 c-62 96 -117 176 -122 178 -6 2 -19 -3 -30 -11z"/>
<path d="M6915 6194 c-126 -80 -234 -149 -238 -154 -10 -9 9 -50 23 -50 5 0
117 68 249 151 232 146 239 152 229 175 -6 13 -16 24 -22 24 -6 0 -114 -66
-241 -146z"/>
<path d="M8827 6180 l-116 -180 25 -17 c14 -9 28 -12 33 -7 16 18 221 341 221
349 0 8 -31 34 -41 35 -4 0 -58 -81 -122 -180z"/>
<path d="M9431 6341 c-6 -11 -11 -24 -11 -29 0 -9 469 -312 482 -312 3 0 13
11 21 24 l16 24 -227 143 c-125 79 -237 149 -249 157 -19 12 -23 11 -32 -7z"/>
<path d="M7886 6331 c-16 -18 -10 -25 174 -185 105 -91 195 -166 199 -166 10
0 46 39 40 43 -2 2 -88 76 -191 165 -103 89 -191 162 -196 162 -5 0 -17 -9
-26 -19z"/>
<path d="M1065 5424 c-104 -90 -191 -168 -193 -172 -1 -5 7 -17 18 -27 20 -18
21 -18 43 2 12 11 96 84 187 162 91 79 166 148 168 155 1 7 -5 20 -15 28 -17
16 -30 6 -208 -148z"/>
<path d="M1726 5575 c-18 -13 -14 -22 85 -176 136 -214 129 -205 157 -182 l22
18 -112 177 c-62 97 -117 177 -123 177 -5 0 -18 -6 -29 -14z"/>
<path d="M2652 5410 c-129 -82 -236 -151 -239 -154 -3 -3 2 -17 11 -30 l16
-25 237 150 c131 83 242 154 246 159 10 9 -13 50 -28 49 -5 0 -115 -67 -243
-149z"/>
<path d="M3706 5531 c-21 -23 -20 -36 3 -52 11 -8 96 -81 191 -163 166 -145
171 -148 190 -131 11 10 20 21 20 25 0 3 -73 69 -162 147 -249 215 -223 196
-242 174z"/>
<path d="M4642 5376 c-62 -95 -112 -178 -112 -183 0 -5 11 -15 24 -21 23 -10
28 -5 140 170 108 167 115 181 99 194 -10 7 -23 14 -29 14 -6 0 -61 -78 -122
-174z"/>
<path d="M5186 5526 l-16 -25 123 -77 c67 -43 178 -113 246 -157 l125 -78 17
23 c14 18 15 26 6 34 -12 12 -475 304 -481 304 -2 0 -11 -11 -20 -24z"/>
<path d="M6675 5394 c-234 -202 -214 -180 -187 -206 l22 -22 27 25 c16 14 100
88 188 164 88 76 161 144 163 150 1 6 -5 19 -15 28 -18 15 -28 8 -198 -139z"/>
<path d="M7325 5536 c-18 -13 -17 -17 31 -92 28 -44 79 -125 115 -181 35 -56
67 -102 70 -103 4 0 16 8 28 18 21 17 21 17 -91 191 -62 96 -118 176 -123 178
-6 2 -19 -3 -30 -11z"/>
<path d="M8253 5372 c-127 -81 -234 -150 -238 -154 -9 -8 13 -48 26 -48 9 0
463 282 482 300 10 9 -13 50 -28 50 -5 -1 -114 -67 -242 -148z"/>
<path d="M10318 5372 c-59 -93 -110 -175 -113 -183 -7 -19 33 -45 48 -30 6 6
59 86 118 178 108 168 109 168 88 186 -12 9 -24 17 -28 17 -3 -1 -54 -76 -113
-168z"/>
<path d="M9375 5510 c-10 -11 -16 -23 -13 -26 3 -3 91 -79 194 -169 188 -163
189 -164 207 -143 10 12 16 25 15 29 -4 10 -371 329 -379 329 -3 0 -14 -9 -24
-20z"/>
<path d="M655 4478 c-60 -94 -111 -176 -113 -182 -3 -15 38 -40 49 -29 4 4 57
85 118 178 109 169 110 170 89 188 -11 9 -23 17 -27 17 -3 0 -55 -77 -116
-172z"/>
<path d="M1250 4625 c-7 -14 -11 -27 -8 -30 2 -3 112 -73 243 -156 l239 -151
19 23 c15 18 16 25 5 34 -13 12 -476 305 -482 305 -1 0 -9 -11 -16 -25z"/>
<path d="M3486 4675 c-10 -7 -16 -18 -15 -23 8 -21 224 -352 230 -352 4 0 16
8 27 18 20 17 19 19 -93 192 -62 96 -117 176 -122 177 -4 1 -16 -4 -27 -12z"/>
<path d="M2820 4520 c-102 -88 -186 -164 -188 -169 -1 -4 5 -17 15 -29 18 -21
19 -21 163 106 80 70 168 146 195 169 48 41 49 42 31 62 -11 12 -22 21 -25 21
-3 0 -89 -72 -191 -160z"/>
<path d="M4433 4518 l-241 -152 14 -28 15 -28 52 33 c29 18 133 84 232 146
214 135 211 132 196 160 -7 11 -15 21 -20 21 -4 0 -116 -68 -248 -152z"/>
<path d="M5377 4675 l-17 -24 191 -165 c105 -91 195 -166 199 -166 9 0 30 32
30 44 0 5 -357 318 -375 328 -5 3 -18 -5 -28 -17z"/>
<path d="M6312 4522 l-112 -177 22 -18 c28 -23 21 -32 158 183 98 154 103 163
85 176 -10 8 -24 14 -29 14 -6 -1 -62 -81 -124 -178z"/>
<path d="M6916 4678 c-13 -18 -13 -25 -3 -34 6 -7 117 -78 245 -159 219 -137
235 -145 248 -128 7 10 13 23 14 28 0 6 -100 73 -221 150 -288 182 -264 170
-283 143z"/>
<path d="M8359 4549 c-237 -205 -218 -184 -192 -210 l21 -22 191 164 c104 90
190 169 190 175 1 6 -7 18 -17 27 -17 16 -28 8 -193 -134z"/>
<path d="M9005 4686 c-18 -13 -17 -17 31 -92 28 -44 79 -125 115 -181 35 -56
66 -102 69 -102 3 0 15 7 27 17 l23 17 -113 174 c-61 96 -117 176 -122 178 -6
2 -19 -3 -30 -11z"/>
<path d="M9935 4524 c-126 -80 -234 -149 -238 -154 -10 -9 9 -50 24 -50 9 0
463 282 482 300 10 9 -13 50 -28 50 -5 0 -113 -66 -240 -146z"/>
<path d="M171 3783 c-11 -24 -10 -29 6 -41 46 -33 462 -292 470 -292 5 0 15
11 21 24 10 23 4 28 -216 167 -125 78 -236 149 -248 156 -19 12 -22 11 -33
-14z"/>
<path d="M2278 3796 c-10 -7 -18 -17 -18 -21 0 -17 223 -355 234 -355 6 0 19
7 28 14 16 12 8 28 -97 192 -63 98 -118 180 -123 181 -4 1 -15 -4 -24 -11z"/>
<path d="M1610 3639 c-102 -88 -186 -166 -188 -173 -1 -7 5 -20 15 -28 17 -16
29 -7 203 143 102 88 189 165 194 169 9 9 -19 50 -33 50 -3 0 -89 -73 -191
-161z"/>
<path d="M3202 3628 c-133 -84 -242 -158 -242 -164 0 -5 6 -18 13 -28 13 -17
30 -8 248 129 129 81 239 152 246 159 9 8 8 16 -5 34 l-18 23 -242 -153z"/>
<path d="M4137 3766 c-16 -24 -16 -24 173 -187 105 -90 193 -165 197 -166 5
-1 15 8 24 20 17 23 15 25 -173 188 -105 90 -194 165 -198 167 -4 1 -14 -8
-23 -22z"/>
<path d="M4959 3614 l-113 -177 24 -19 c13 -10 26 -15 30 -11 4 4 58 87 119
183 102 159 110 176 95 187 -10 7 -23 13 -30 13 -6 0 -62 -79 -125 -176z"/>
<path d="M5560 3770 c-9 -16 -9 -25 -1 -33 6 -6 116 -77 244 -158 l232 -148
17 22 c10 12 18 24 18 27 0 6 -460 297 -483 306 -10 3 -20 -3 -27 -16z"/>
<path d="M7153 3662 c-179 -155 -191 -168 -179 -187 7 -11 19 -20 25 -20 6 0
96 74 201 164 l189 163 -17 24 c-9 13 -19 23 -22 23 -3 0 -91 -75 -197 -167z"/>
<path d="M7818 3816 c-16 -12 -8 -28 93 -187 62 -96 115 -178 119 -182 4 -4
17 1 30 11 l24 19 -113 177 c-63 97 -118 176 -125 176 -6 0 -19 -7 -28 -14z"/>
<path d="M8740 3649 c-129 -83 -234 -155 -232 -162 2 -7 9 -18 17 -26 12 -12
49 8 250 135 131 82 239 155 242 162 6 15 -15 42 -31 41 -6 0 -117 -68 -246
-150z"/>
<path d="M10845 3628 c-107 -167 -115 -181 -98 -194 10 -7 23 -14 29 -14 10 0
234 341 234 358 0 5 -11 14 -24 20 -24 11 -28 5 -141 -170z"/>
<path d="M9905 3780 c-21 -23 -48 6 221 -228 l152 -131 21 23 22 23 -192 167
c-106 91 -196 166 -199 166 -4 0 -15 -9 -25 -20z"/>
<path d="M974 2932 l-22 -17 112 -172 c61 -94 114 -175 118 -178 8 -8 48 13
48 25 0 12 -223 360 -230 360 -3 0 -15 -8 -26 -18z"/>
<path d="M301 2774 l-192 -167 22 -23 22 -23 111 97 c94 82 261 227 275 238 5
5 -30 44 -39 44 -3 0 -93 -75 -199 -166z"/>
<path d="M2003 2768 c-134 -84 -243 -157 -242 -163 0 -5 6 -18 14 -29 13 -17
28 -9 254 134 133 84 243 156 246 160 3 4 -3 18 -13 29 l-17 22 -242 -153z"/>
<path d="M3021 2897 l-21 -24 172 -149 c241 -209 215 -191 241 -165 19 18 19
23 7 34 -8 8 -67 58 -130 113 -63 55 -145 125 -181 157 l-66 57 -22 -23z"/>
<path d="M3982 2742 l-112 -177 22 -18 c28 -23 21 -32 158 183 98 154 103 163
85 176 -10 8 -24 14 -29 14 -6 -1 -62 -81 -124 -178z"/>
<path d="M4426 2896 l-16 -25 123 -77 c67 -43 178 -113 246 -157 l125 -78 17
23 c14 18 15 26 6 34 -13 12 -475 304 -481 304 -2 0 -11 -11 -20 -24z"/>
<path d="M6588 2936 c-10 -7 -18 -17 -18 -21 0 -8 205 -331 221 -349 5 -5 19
-2 33 7 l25 17 -116 180 c-64 99 -118 180 -122 180 -3 0 -14 -7 -23 -14z"/>
<path d="M5920 2780 c-102 -88 -186 -166 -188 -173 -1 -7 5 -20 15 -29 17 -15
30 -6 207 147 103 90 191 166 194 169 6 6 -27 46 -37 46 -3 0 -89 -72 -191
-160z"/>
<path d="M7508 2767 c-131 -84 -238 -157 -238 -163 0 -5 6 -18 13 -28 14 -19
4 -24 470 271 36 23 37 24 21 48 -9 14 -19 25 -23 24 -3 0 -113 -69 -243 -152z"/>
<path d="M8398 2895 l-18 -23 192 -167 c105 -91 196 -164 201 -162 6 2 16 12
23 23 11 17 -5 34 -179 184 -105 91 -193 166 -196 167 -3 1 -14 -8 -23 -22z"/>
<path d="M9427 2733 c-114 -177 -115 -178 -94 -196 11 -10 24 -16 28 -15 9 3
229 343 229 354 0 8 -31 33 -41 34 -4 0 -59 -80 -122 -177z"/>
<path d="M10014 2885 c-9 -14 -15 -27 -13 -29 10 -10 483 -306 488 -306 4 0
12 10 19 21 12 18 12 24 0 34 -11 11 -107 72 -435 278 l-43 27 -16 -25z"/>
<path d="M66 2078 c-13 -18 -13 -25 -3 -34 6 -6 117 -78 245 -158 218 -137
235 -146 248 -129 7 10 13 23 14 28 0 6 -100 73 -221 150 -288 182 -264 170
-283 143z"/>
<path d="M2148 2076 c-10 -7 -18 -17 -18 -21 0 -8 205 -331 221 -349 5 -5 19
-2 33 7 l25 17 -116 180 c-64 99 -118 180 -122 180 -3 0 -14 -7 -23 -14z"/>
<path d="M1485 1925 c-99 -85 -184 -162 -190 -170 -6 -10 -4 -20 9 -34 18 -20
20 -19 170 111 269 233 242 205 221 228 -10 11 -21 20 -24 20 -4 0 -87 -70
-186 -155z"/>
<path d="M3070 1909 c-129 -82 -236 -155 -237 -162 -2 -6 3 -20 11 -30 13 -16
31 -7 252 133 132 83 242 154 246 158 8 8 -18 53 -30 51 -4 0 -113 -68 -242
-150z"/>
<path d="M4036 2081 c-21 -23 -20 -36 3 -52 11 -8 96 -81 191 -163 166 -145
171 -148 190 -131 11 10 20 21 20 25 0 3 -73 69 -162 147 -249 215 -223 196
-242 174z"/>
<path d="M4917 2003 c-34 -54 -85 -134 -114 -178 l-52 -80 22 -17 c12 -10 24
-18 27 -18 5 0 221 334 229 353 4 10 -26 37 -41 37 -4 0 -36 -44 -71 -97z"/>
<path d="M5466 2078 c-13 -18 -13 -25 -3 -34 6 -6 117 -78 245 -158 218 -137
235 -146 248 -129 7 10 14 23 14 28 0 8 -394 263 -477 309 -6 3 -19 -4 -27
-16z"/>
<path d="M7721 2101 l-24 -18 108 -169 c60 -93 113 -174 119 -181 9 -9 16 -8
34 6 l24 17 -112 175 c-62 96 -115 177 -119 181 -3 4 -17 -1 -30 -11z"/>
<path d="M7051 1945 c-105 -92 -191 -170 -191 -174 0 -4 9 -16 19 -25 18 -17
26 -11 210 149 105 91 191 170 191 174 0 4 -8 16 -19 25 -18 16 -27 10 -210
-149z"/>
<path d="M8652 1940 c-129 -81 -238 -152 -244 -158 -12 -12 11 -54 28 -50 18
5 484 302 484 309 0 4 -8 16 -17 27 -18 20 -21 19 -251 -128z"/>
<path d="M9804 2075 c-9 -14 -15 -27 -13 -29 2 -1 89 -76 192 -165 183 -159
188 -163 207 -146 11 10 20 21 20 25 0 6 -302 272 -366 323 -23 17 -23 17 -40
-8z"/>
<path d="M10741 1923 l-113 -177 22 -18 c29 -24 22 -33 154 175 100 158 106
170 89 183 -10 7 -22 13 -28 14 -5 0 -61 -80 -124 -177z"/>
<path d="M626 1157 l-117 -182 23 -16 c12 -10 25 -16 29 -13 8 4 229 349 229
356 0 3 -11 13 -24 21 l-24 16 -116 -182z"/>
<path d="M1226 1308 c-9 -12 -12 -26 -8 -30 4 -4 114 -75 246 -158 221 -140
239 -149 252 -133 8 10 13 23 11 30 -2 10 -469 313 -482 313 -2 0 -11 -10 -19
-22z"/>
<path d="M3401 1324 c-14 -10 -20 -22 -16 -33 9 -23 219 -350 225 -350 3 -1
15 7 27 17 l22 17 -115 180 c-64 99 -117 181 -118 182 -1 2 -12 -5 -25 -13z"/>
<path d="M2736 1170 c-101 -88 -188 -165 -192 -171 -3 -6 2 -20 13 -30 19 -20
21 -18 211 146 167 144 191 169 182 185 -6 10 -14 21 -19 25 -6 3 -93 -67
-195 -155z"/>
<path d="M4319 1152 c-247 -156 -247 -156 -231 -179 9 -15 21 -22 31 -18 8 3
120 72 247 153 l232 146 -14 28 c-8 15 -16 28 -17 27 -1 0 -113 -70 -248 -157z"/>
<path d="M5364 1295 c-17 -26 -17 -28 3 -44 12 -9 97 -82 191 -163 93 -82 174
-148 178 -148 5 0 15 10 23 21 15 26 32 7 -179 189 -85 74 -165 142 -177 153
-21 19 -21 19 -39 -8z"/>
<path d="M6305 1148 c-60 -95 -111 -177 -113 -183 -1 -5 7 -16 19 -23 28 -18
23 -24 154 181 102 159 106 169 89 182 -11 8 -23 14 -29 15 -5 0 -59 -78 -120
-172z"/>
<path d="M6901 1294 c-6 -15 -10 -28 -9 -29 10 -10 483 -305 488 -305 4 0 12
11 18 25 11 24 9 27 -56 68 -156 100 -422 267 -425 267 -2 0 -9 -12 -16 -26z"/>
<path d="M8942 1343 c-21 -18 -20 -19 89 -188 61 -93 114 -174 118 -178 11
-11 52 14 49 29 -5 17 -222 354 -229 354 -4 0 -16 -8 -27 -17z"/>
<path d="M8415 1312 c-22 -20 -107 -95 -188 -165 -143 -124 -148 -129 -131
-148 9 -10 21 -19 25 -19 5 0 94 75 199 166 184 160 191 167 174 185 -24 26
-33 24 -79 -19z"/>
<path d="M9863 1177 c-133 -83 -242 -154 -242 -157 0 -3 7 -15 17 -27 l17 -22
235 149 c129 82 239 151 245 153 11 4 -10 57 -22 57 -5 0 -117 -69 -250 -153z"/>
<path d="M260 605 c-7 -14 -11 -27 -9 -29 2 -2 112 -72 244 -155 l240 -152 18
22 c15 18 16 25 5 34 -13 13 -475 305 -481 305 -2 0 -10 -11 -17 -25z"/>
<path d="M2282 647 c-14 -6 -22 -17 -19 -26 7 -30 219 -351 231 -351 6 0 19 6
28 13 15 12 6 30 -96 190 -62 98 -115 179 -117 181 -2 2 -14 -1 -27 -7z"/>
<path d="M1610 488 c-102 -88 -186 -166 -188 -172 -1 -7 5 -20 15 -29 17 -15
29 -6 203 144 102 88 189 164 194 169 9 9 -19 50 -33 50 -3 -1 -89 -73 -191
-162z"/>
<path d="M3203 477 c-134 -83 -243 -157 -243 -163 0 -5 6 -18 13 -29 13 -17
30 -8 256 135 132 83 243 155 245 159 3 4 -3 16 -12 29 l-17 22 -242 -153z"/>
<path d="M4158 616 l-17 -24 189 -163 c105 -90 194 -165 198 -167 5 -1 16 8
25 21 15 23 12 25 -175 188 -105 90 -193 165 -197 166 -3 1 -14 -8 -23 -21z"/>
<path d="M4959 464 l-113 -177 24 -19 c13 -10 26 -15 30 -11 4 4 57 86 119
182 101 159 109 175 93 187 -9 7 -22 14 -28 14 -7 0 -62 -79 -125 -176z"/>
<path d="M5558 614 c-8 -17 -9 -29 -3 -31 6 -2 116 -71 245 -153 l235 -149 17
22 c10 12 18 24 18 27 0 5 -470 302 -488 308 -7 2 -17 -9 -24 -24z"/>
<path d="M7145 474 c-229 -197 -209 -177 -195 -203 6 -12 17 -21 25 -19 13 3
378 315 382 327 2 3 -5 16 -15 28 l-17 23 -180 -156z"/>
<path d="M7796 617 c-10 -8 -17 -18 -15 -24 9 -22 224 -353 230 -353 4 0 16 8
27 18 21 17 20 18 -92 191 -62 96 -117 176 -122 178 -6 2 -18 -3 -28 -10z"/>
<path d="M8720 450 c-129 -82 -236 -154 -238 -159 -2 -6 3 -20 11 -31 13 -19
22 -14 261 136 237 150 246 157 233 177 -7 12 -18 22 -23 23 -5 2 -115 -64
-244 -146z"/>
<path d="M10937 453 c-114 -176 -115 -178 -95 -195 11 -10 23 -18 27 -18 8 0
231 347 231 360 0 8 -31 30 -43 30 -3 0 -57 -80 -120 -177z"/>
<path d="M9996 601 c-16 -18 -9 -25 161 -172 236 -205 210 -186 235 -161 12
12 20 23 17 25 -2 2 -88 76 -191 165 -102 89 -191 162 -196 162 -5 0 -16 -8
-26 -19z"/>
</g>
</svg>
