<?xml version="1.0" standalone="no"?>
<!DOCTYPE svg PUBLIC "-//W3C//DTD SVG 20010904//EN"
 "http://www.w3.org/TR/2001/REC-SVG-20010904/DTD/svg10.dtd">
<svg version="1.0" xmlns="http://www.w3.org/2000/svg"
 width="1811.000000pt" height="1217.000000pt" viewBox="0 0 1811.000000 1217.000000"
 preserveAspectRatio="xMidYMid meet">
<metadata>
Created by potrace 1.13, written by Peter Selinger 2001-2015
</metadata>
<g transform="translate(0.000000,1217.000000) scale(0.100000,-0.100000)"
fill="#000000" stroke="none">
<path d="M95 11800 c-38 -39 -75 -68 -82 -65 -10 3 -13 -10 -13 -46 0 -34 4
-48 11 -43 6 3 43 -26 85 -67 70 -69 75 -72 91 -56 16 16 13 21 -57 92 l-74
75 73 74 c64 64 73 77 61 90 -7 9 -15 16 -19 16 -4 0 -38 -32 -76 -70z"/>
<path d="M2070 11854 c-12 -13 -3 -26 61 -90 l73 -74 -74 -75 c-70 -71 -73
-76 -57 -92 16 -16 21 -13 92 57 l75 74 75 -74 c71 -70 76 -73 92 -57 16 16
13 21 -57 92 l-74 75 74 75 c70 71 73 76 57 92 -16 16 -21 13 -92 -57 l-75
-74 -73 72 c-40 39 -75 72 -79 72 -3 0 -11 -7 -18 -16z"/>
<path d="M4290 11854 c-12 -13 -3 -26 61 -90 l73 -74 -74 -75 c-70 -71 -73
-76 -57 -92 16 -16 21 -13 92 57 l75 74 75 -74 c71 -70 76 -73 92 -57 16 16
13 21 -57 92 l-74 75 74 75 c70 71 73 76 57 92 -16 16 -21 13 -92 -57 l-75
-74 -73 72 c-40 39 -75 72 -79 72 -3 0 -11 -7 -18 -16z"/>
<path d="M6510 11854 c-12 -13 -3 -26 61 -90 l73 -74 -74 -75 c-70 -71 -73
-76 -57 -92 16 -16 21 -13 92 57 l75 74 75 -74 c71 -70 76 -73 92 -57 16 16
13 21 -57 92 l-74 75 72 73 c74 74 84 93 56 104 -11 4 -39 -17 -90 -68 l-74
-73 -73 72 c-40 39 -75 72 -79 72 -3 0 -11 -7 -18 -16z"/>
<path d="M8730 11854 c-12 -13 -3 -26 61 -90 l73 -74 -74 -75 c-70 -71 -73
-76 -57 -92 16 -16 21 -13 92 57 l75 74 75 -74 c71 -70 76 -73 92 -57 16 16
13 21 -57 92 l-74 75 74 75 c70 71 73 76 57 92 -16 16 -21 13 -92 -57 l-75
-74 -73 72 c-40 39 -75 72 -79 72 -3 0 -11 -7 -18 -16z"/>
<path d="M11060 11854 c-12 -13 -3 -26 61 -90 l73 -74 -74 -75 c-70 -71 -73
-76 -57 -92 16 -16 21 -13 92 57 l75 74 75 -74 c71 -70 76 -73 92 -57 16 16
13 21 -57 92 l-74 75 74 75 c70 71 73 76 57 92 -16 16 -21 13 -92 -57 l-75
-74 -73 72 c-40 39 -75 72 -79 72 -3 0 -11 -7 -18 -16z"/>
<path d="M13280 11854 c-12 -13 -3 -26 61 -90 l73 -74 -74 -75 c-70 -71 -73
-76 -57 -92 16 -16 21 -13 92 57 l75 74 75 -74 c71 -70 76 -73 92 -57 16 16
13 21 -57 92 l-74 75 74 75 c70 71 73 76 57 92 -16 16 -21 13 -92 -57 l-75
-74 -73 72 c-40 39 -75 72 -79 72 -3 0 -11 -7 -18 -16z"/>
<path d="M15493 11854 c-4 -11 17 -39 68 -90 l73 -74 -74 -75 c-70 -71 -73
-76 -57 -92 16 -16 21 -13 92 57 l75 74 75 -74 c71 -70 76 -73 92 -57 16 16
13 21 -57 92 l-74 75 74 75 c70 71 73 76 57 92 -16 16 -21 13 -92 -57 l-75
-74 -73 72 c-74 74 -93 84 -104 56z"/>
<path d="M17712 11858 c-10 -10 4 -29 65 -90 l78 -78 -75 -75 c-70 -71 -73
-76 -57 -92 16 -16 21 -13 92 57 l75 74 75 -74 c71 -70 76 -73 92 -57 16 16
13 21 -57 92 l-74 75 74 75 c70 71 73 76 57 92 -16 16 -21 13 -92 -57 l-75
-74 -73 72 c-75 75 -85 80 -105 60z"/>
<path d="M947 10742 c-16 -17 -13 -22 58 -92 l75 -75 -75 -75 c-73 -73 -75
-77 -57 -93 17 -16 22 -13 92 58 l75 75 75 -75 c73 -73 77 -75 93 -57 16 17
13 22 -58 92 l-75 75 75 75 c73 73 75 77 57 93 -17 16 -22 13 -92 -58 l-75
-75 -75 75 c-73 73 -77 75 -93 57z"/>
<path d="M3167 10742 c-16 -17 -13 -22 58 -92 l75 -75 -75 -75 c-73 -73 -75
-77 -57 -93 17 -16 22 -13 92 58 l75 75 75 -75 c73 -73 77 -75 93 -57 16 17
13 22 -58 92 l-75 75 75 75 c73 73 75 77 57 93 -17 16 -22 13 -92 -58 l-75
-75 -75 75 c-73 73 -77 75 -93 57z"/>
<path d="M5380 10744 c-12 -13 -2 -26 63 -92 l77 -77 -75 -75 c-71 -70 -74
-75 -58 -92 16 -18 20 -16 93 57 l75 75 75 -75 c70 -71 75 -74 92 -58 18 16
16 20 -57 93 l-75 75 75 75 c71 70 74 75 58 92 -16 18 -20 16 -93 -57 l-75
-75 -75 75 c-41 41 -77 75 -81 75 -4 0 -12 -7 -19 -16z"/>
<path d="M7607 10742 c-16 -17 -13 -22 58 -92 l75 -75 -75 -75 c-73 -73 -75
-77 -57 -93 17 -16 22 -13 92 58 l75 75 75 -75 c73 -73 77 -75 93 -57 16 17
13 22 -58 92 l-75 75 75 75 c73 73 75 77 57 93 -17 16 -22 13 -92 -58 l-75
-75 -75 75 c-73 73 -77 75 -93 57z"/>
<path d="M9827 10742 c-16 -17 -13 -22 58 -92 l75 -75 -75 -75 c-73 -73 -75
-77 -57 -93 17 -16 22 -13 92 58 l75 75 75 -75 c73 -73 77 -75 93 -57 16 17
13 22 -58 92 l-75 75 75 75 c73 73 75 77 57 93 -17 16 -22 13 -92 -58 l-75
-75 -75 75 c-73 73 -77 75 -93 57z"/>
<path d="M12157 10742 c-16 -17 -13 -22 58 -92 l75 -75 -75 -75 c-73 -73 -75
-77 -57 -93 17 -16 22 -13 92 58 l75 75 75 -75 c73 -73 77 -75 93 -57 16 17
13 22 -58 92 l-75 75 75 75 c73 73 75 77 57 93 -17 16 -22 13 -92 -58 l-75
-75 -75 75 c-73 73 -77 75 -93 57z"/>
<path d="M14370 10744 c-12 -13 -2 -26 63 -92 l77 -77 -75 -75 c-71 -70 -74
-75 -58 -92 16 -18 20 -16 93 57 l75 75 75 -75 c70 -71 75 -74 92 -58 18 16
16 20 -57 93 l-75 75 75 75 c71 70 74 75 58 92 -16 18 -20 16 -93 -57 l-75
-75 -75 75 c-41 41 -77 75 -81 75 -4 0 -12 -7 -19 -16z"/>
<path d="M16590 10744 c-12 -13 -3 -25 58 -87 40 -40 72 -77 72 -82 0 -5 -32
-41 -70 -80 -68 -68 -70 -72 -52 -88 17 -16 22 -13 92 58 l75 75 75 -75 c73
-73 77 -75 93 -57 16 17 13 22 -58 92 l-75 75 75 75 c73 73 75 77 57 93 -17
16 -22 13 -87 -53 -38 -39 -74 -70 -80 -70 -6 0 -42 32 -80 70 -38 39 -72 70
-76 70 -4 0 -12 -7 -19 -16z"/>
<path d="M100 9465 c-57 -57 -77 -72 -87 -63 -10 8 -13 -1 -13 -47 0 -46 3
-55 13 -47 10 9 30 -6 87 -63 57 -57 77 -72 87 -63 22 18 15 30 -57 103 l-70
71 70 69 c72 72 79 85 57 103 -10 9 -30 -6 -87 -63z"/>
<path d="M2072 9528 c-20 -20 -15 -30 60 -105 l72 -73 -72 -66 c-75 -68 -83
-83 -56 -104 13 -12 26 -3 90 61 l74 73 74 -73 c64 -64 77 -73 90 -61 9 7 16
18 16 24 0 6 -32 43 -70 81 l-70 69 70 71 c38 39 70 75 70 82 0 6 -7 17 -16
24 -14 11 -25 4 -86 -59 -39 -40 -73 -72 -77 -72 -4 0 -38 32 -76 70 -38 39
-72 70 -75 70 -3 0 -11 -5 -18 -12z"/>
<path d="M4292 9528 c-20 -20 -14 -31 58 -103 l70 -69 -70 -71 c-72 -73 -79
-85 -57 -103 10 -9 30 6 87 63 l75 75 77 -77 c74 -73 79 -76 95 -60 16 16 14
21 -55 90 -40 40 -72 77 -72 82 0 5 32 42 72 82 69 69 71 74 55 90 -16 16 -21
13 -95 -60 l-77 -77 -75 75 c-60 59 -78 73 -88 63z"/>
<path d="M6510 9524 c-12 -13 -3 -25 58 -87 40 -40 72 -77 72 -82 0 -5 -32
-42 -72 -82 -69 -69 -71 -74 -55 -90 16 -16 21 -13 95 60 l77 77 75 -75 c57
-57 77 -72 87 -63 22 18 15 31 -57 103 l-70 69 70 71 c73 73 78 83 58 103 -10
10 -29 -4 -88 -63 l-75 -75 -75 75 c-41 41 -77 75 -81 75 -4 0 -12 -7 -19 -16z"/>
<path d="M8732 9528 c-20 -20 -15 -30 60 -105 l72 -73 -74 -75 c-70 -71 -73
-76 -57 -92 16 -16 21 -13 92 57 l75 74 74 -73 c64 -64 77 -73 90 -61 9 7 16
18 16 24 0 6 -32 43 -70 81 l-70 69 70 71 c73 73 78 83 58 103 -10 10 -29 -4
-88 -63 l-75 -75 -75 75 c-41 41 -77 75 -80 75 -3 0 -11 -5 -18 -12z"/>
<path d="M11060 9524 c-12 -13 -3 -25 58 -87 40 -40 72 -77 72 -82 0 -5 -32
-42 -72 -82 -69 -69 -71 -74 -55 -90 16 -16 21 -13 95 60 l77 77 75 -75 c57
-57 77 -72 87 -63 22 18 15 31 -57 103 l-70 69 70 71 c73 73 78 83 58 103 -10
10 -29 -4 -88 -63 l-75 -75 -75 75 c-41 41 -77 75 -81 75 -4 0 -12 -7 -19 -16z"/>
<path d="M13282 9528 c-20 -20 -14 -31 58 -103 l70 -69 -70 -71 c-38 -39 -70
-75 -70 -82 0 -6 7 -16 16 -23 13 -12 26 -3 90 61 l74 73 74 -73 c64 -64 77
-73 90 -61 9 7 16 18 16 24 0 6 -32 43 -70 81 l-70 69 70 71 c38 39 70 75 70
82 0 6 -7 16 -16 23 -13 12 -26 3 -90 -61 l-74 -73 -73 72 c-40 39 -75 72 -78
72 -3 0 -10 -5 -17 -12z"/>
<path d="M15502 9528 c-20 -20 -14 -31 58 -103 l70 -69 -70 -71 c-72 -73 -79
-85 -57 -103 10 -9 30 6 87 63 l75 75 77 -77 c74 -73 79 -76 95 -60 16 16 14
21 -55 90 -40 40 -72 77 -72 82 0 5 32 42 72 82 69 69 71 74 55 90 -16 16 -21
13 -95 -60 l-77 -77 -75 75 c-60 59 -78 73 -88 63z"/>
<path d="M17717 9522 c-16 -17 -13 -22 58 -92 l75 -75 -75 -75 c-73 -73 -75
-77 -57 -93 17 -16 22 -13 92 58 l75 75 77 -77 c74 -73 79 -76 95 -60 16 16
14 21 -55 90 -40 40 -72 77 -72 82 0 5 32 42 72 82 69 69 71 74 55 90 -16 16
-21 13 -95 -60 l-77 -77 -76 76 c-72 72 -76 74 -92 56z"/>
<path d="M940 8404 c-12 -13 -3 -26 61 -90 l73 -74 -73 -74 c-64 -64 -73 -77
-61 -90 7 -9 17 -16 23 -16 7 0 43 32 82 70 l71 70 69 -70 c38 -38 75 -70 81
-70 6 0 17 7 24 16 12 13 3 26 -61 90 l-73 74 73 74 c64 64 73 77 61 90 -7 9
-17 16 -23 16 -7 0 -43 -32 -82 -70 l-71 -70 -69 70 c-38 38 -75 70 -81 70 -6
0 -17 -7 -24 -16z"/>
<path d="M3160 8404 c-12 -13 -3 -26 61 -90 l73 -74 -74 -75 c-70 -71 -73 -76
-57 -92 16 -16 21 -13 92 57 l75 74 73 -72 c75 -75 85 -80 105 -60 10 10 -4
29 -65 90 l-78 78 78 78 c61 61 75 80 65 90 -20 20 -30 15 -105 -60 l-73 -72
-73 72 c-40 39 -75 72 -79 72 -3 0 -11 -7 -18 -16z"/>
<path d="M5380 8404 c-12 -13 -3 -26 61 -90 l73 -74 -74 -75 c-70 -71 -73 -76
-57 -92 16 -16 21 -13 92 57 l75 74 73 -72 c75 -75 85 -80 105 -60 10 10 -4
29 -65 90 l-78 78 78 78 c61 61 75 80 65 90 -20 20 -30 15 -105 -60 l-73 -72
-73 72 c-40 39 -75 72 -79 72 -3 0 -11 -7 -18 -16z"/>
<path d="M7600 8404 c-12 -13 -3 -26 61 -90 l73 -74 -73 -74 c-64 -64 -73 -77
-61 -90 7 -9 17 -16 23 -16 7 0 43 32 82 70 l71 70 69 -70 c38 -38 75 -70 81
-70 6 0 17 7 24 16 12 13 3 26 -61 90 l-73 74 73 74 c64 64 73 77 61 90 -7 9
-17 16 -23 16 -7 0 -43 -32 -82 -70 l-71 -70 -69 70 c-38 38 -75 70 -81 70 -6
0 -17 -7 -24 -16z"/>
<path d="M9820 8404 c-12 -13 -3 -26 61 -90 l73 -74 -74 -75 c-70 -71 -73 -76
-57 -92 16 -16 21 -13 92 57 l75 74 73 -72 c75 -75 85 -80 105 -60 10 10 -4
29 -65 90 l-78 78 78 78 c61 61 75 80 65 90 -20 20 -30 15 -105 -60 l-73 -72
-73 72 c-40 39 -75 72 -79 72 -3 0 -11 -7 -18 -16z"/>
<path d="M12150 8404 c-12 -13 -3 -26 61 -90 l73 -74 -74 -75 c-70 -71 -73
-76 -57 -92 16 -16 21 -13 92 57 l75 74 73 -72 c75 -75 85 -80 105 -60 10 10
-4 29 -63 88 l-76 76 77 76 c68 66 76 78 65 92 -8 9 -18 16 -24 16 -7 0 -44
-33 -84 -72 l-73 -72 -73 72 c-40 39 -75 72 -79 72 -3 0 -11 -7 -18 -16z"/>
<path d="M14370 8404 c-12 -13 -3 -26 61 -90 l73 -74 -74 -75 c-70 -71 -73
-76 -57 -92 16 -16 21 -13 92 57 l75 74 73 -72 c75 -75 85 -80 105 -60 10 10
-4 29 -65 90 l-78 78 78 78 c61 61 75 80 65 90 -20 20 -30 15 -105 -60 l-73
-72 -73 72 c-40 39 -75 72 -79 72 -3 0 -11 -7 -18 -16z"/>
<path d="M16590 8404 c-12 -13 -3 -26 61 -90 l73 -74 -74 -75 c-70 -71 -73
-76 -57 -92 16 -16 21 -13 92 57 l75 74 73 -72 c75 -75 85 -80 105 -60 10 10
-4 29 -65 90 l-78 78 73 73 c74 74 84 93 56 104 -11 4 -39 -17 -90 -68 l-74
-73 -73 72 c-40 39 -75 72 -79 72 -3 0 -11 -7 -18 -16z"/>
<path d="M95 7250 c-38 -39 -75 -68 -82 -65 -9 3 -13 -9 -13 -45 0 -36 4 -48
13 -45 7 3 46 -28 87 -69 57 -58 77 -73 87 -64 22 18 15 30 -59 105 l-72 73
73 74 c64 64 73 77 61 90 -7 9 -15 16 -19 16 -4 0 -38 -32 -76 -70z"/>
<path d="M2070 7304 c-12 -13 -3 -26 61 -90 l73 -74 -74 -75 c-70 -71 -73 -76
-57 -92 16 -16 21 -13 92 57 l75 75 78 -78 c61 -61 80 -75 90 -65 20 20 15 30
-60 105 l-72 73 74 75 c70 71 73 76 57 92 -16 16 -21 13 -92 -57 l-75 -74 -73
72 c-40 39 -75 72 -79 72 -3 0 -11 -7 -18 -16z"/>
<path d="M4290 7304 c-12 -13 -3 -26 61 -90 l73 -74 -72 -73 c-75 -75 -80 -85
-60 -105 10 -10 29 4 90 65 l78 78 75 -75 c71 -70 76 -73 92 -57 16 16 13 21
-57 92 l-74 75 74 75 c70 71 73 76 57 92 -16 16 -21 13 -92 -57 l-75 -74 -73
72 c-40 39 -75 72 -79 72 -3 0 -11 -7 -18 -16z"/>
<path d="M6510 7304 c-12 -13 -3 -26 61 -90 l73 -74 -74 -75 c-70 -71 -73 -76
-57 -92 16 -16 21 -13 92 57 l75 75 78 -78 c61 -61 80 -75 90 -65 20 20 15 30
-60 105 l-72 73 74 75 c70 71 73 76 57 92 -16 16 -21 13 -92 -57 l-75 -74 -73
72 c-40 39 -75 72 -79 72 -3 0 -11 -7 -18 -16z"/>
<path d="M8730 7304 c-12 -13 -3 -26 61 -90 l73 -74 -74 -75 c-70 -71 -73 -76
-57 -92 16 -16 21 -13 92 57 l75 75 78 -78 c61 -61 80 -75 90 -65 20 20 15 30
-60 105 l-72 73 74 75 c70 71 73 76 57 92 -16 16 -21 13 -92 -57 l-75 -74 -73
72 c-40 39 -75 72 -79 72 -3 0 -11 -7 -18 -16z"/>
<path d="M11060 7304 c-12 -13 -3 -26 61 -90 l73 -74 -74 -75 c-70 -71 -73
-76 -57 -92 16 -16 21 -13 92 57 l75 75 78 -78 c61 -61 80 -75 90 -65 20 20
15 30 -60 105 l-72 73 74 75 c70 71 73 76 57 92 -16 16 -21 13 -92 -57 l-75
-74 -73 72 c-40 39 -75 72 -79 72 -3 0 -11 -7 -18 -16z"/>
<path d="M13280 7304 c-12 -13 -3 -26 61 -90 l73 -74 -73 -74 c-51 -51 -72
-79 -68 -90 11 -28 30 -18 104 56 l73 72 75 -74 c71 -70 76 -73 92 -57 16 16
13 21 -57 92 l-74 75 74 75 c70 71 73 76 57 92 -16 16 -21 13 -92 -57 l-75
-74 -73 72 c-40 39 -75 72 -79 72 -3 0 -11 -7 -18 -16z"/>
<path d="M15500 7304 c-12 -13 -3 -26 61 -90 l73 -74 -72 -73 c-75 -75 -80
-85 -60 -105 10 -10 29 4 90 65 l78 78 75 -75 c71 -70 76 -73 92 -57 16 16 13
21 -57 92 l-74 75 74 75 c70 71 73 76 57 92 -16 16 -21 13 -92 -57 l-75 -74
-73 72 c-40 39 -75 72 -79 72 -3 0 -11 -7 -18 -16z"/>
<path d="M17720 7304 c-12 -13 -3 -26 61 -90 l74 -74 -78 -78 c-73 -73 -76
-78 -60 -95 17 -16 22 -13 96 60 l78 78 70 -72 c38 -40 73 -73 78 -73 5 0 14
7 21 16 12 13 3 26 -61 90 l-73 74 74 75 c70 71 73 76 57 92 -16 16 -21 13
-92 -57 l-75 -74 -73 72 c-40 39 -75 72 -79 72 -3 0 -11 -7 -18 -16z"/>
<path d="M947 6192 c-16 -17 -13 -22 58 -92 l75 -75 -77 -77 c-73 -74 -76 -79
-60 -95 16 -16 21 -14 90 55 40 40 77 72 82 72 5 0 42 -32 82 -72 69 -69 74
-71 90 -55 16 16 13 21 -60 95 l-77 77 75 75 c71 70 74 75 58 92 -16 18 -20
16 -93 -57 l-75 -75 -76 76 c-72 72 -76 74 -92 56z"/>
<path d="M3167 6192 c-16 -17 -13 -22 58 -92 l75 -75 -77 -77 c-73 -74 -76
-79 -60 -95 16 -16 21 -14 90 55 40 40 77 72 82 72 5 0 41 -32 80 -70 68 -68
72 -70 88 -52 16 17 13 22 -58 92 l-75 75 75 75 c73 73 75 77 57 93 -17 16
-22 13 -92 -58 l-75 -75 -75 75 c-73 73 -77 75 -93 57z"/>
<path d="M5387 6192 c-16 -17 -13 -22 53 -87 39 -38 70 -74 70 -79 0 -6 -32
-43 -72 -83 -69 -69 -71 -74 -55 -90 16 -16 21 -14 90 55 40 40 77 72 82 72 5
0 41 -32 80 -70 68 -68 72 -70 88 -52 16 17 13 22 -58 92 l-75 75 75 75 c73
73 75 77 57 93 -17 16 -22 13 -92 -58 l-75 -75 -75 75 c-73 73 -77 75 -93 57z"/>
<path d="M7607 6192 c-16 -17 -13 -22 58 -92 l75 -75 -75 -75 c-73 -73 -75
-77 -57 -93 17 -16 22 -13 87 53 38 39 74 70 79 70 6 0 43 -32 83 -72 69 -69
74 -71 90 -55 16 16 13 21 -60 95 l-77 77 75 75 c71 70 74 75 58 92 -16 18
-20 16 -93 -57 l-75 -75 -76 76 c-72 72 -76 74 -92 56z"/>
<path d="M9827 6192 c-16 -17 -13 -22 58 -92 l75 -75 -77 -77 c-73 -74 -76
-79 -60 -95 16 -16 21 -14 90 55 40 40 77 72 82 72 5 0 41 -32 80 -70 68 -68
72 -70 88 -52 16 17 13 22 -58 92 l-75 75 75 75 c73 73 75 77 57 93 -17 16
-22 13 -92 -58 l-75 -75 -75 75 c-73 73 -77 75 -93 57z"/>
<path d="M12157 6192 c-16 -17 -13 -22 58 -92 l75 -75 -77 -77 c-73 -74 -76
-79 -60 -95 16 -16 21 -14 90 55 40 40 77 72 82 72 5 0 41 -32 80 -70 68 -68
72 -70 88 -52 16 17 13 22 -58 92 l-75 75 75 75 c73 73 75 77 57 93 -17 16
-22 13 -92 -58 l-75 -75 -75 75 c-73 73 -77 75 -93 57z"/>
<path d="M14377 6192 c-16 -17 -13 -22 53 -87 39 -38 70 -74 70 -79 0 -6 -32
-43 -72 -83 -69 -69 -71 -74 -55 -90 16 -16 21 -14 90 55 40 40 77 72 82 72 5
0 41 -32 80 -70 68 -68 72 -70 88 -52 16 17 13 22 -58 92 l-75 75 75 75 c73
73 75 77 57 93 -17 16 -22 13 -92 -58 l-75 -75 -75 75 c-73 73 -77 75 -93 57z"/>
<path d="M16595 6190 c-19 -21 -18 -21 55 -95 l74 -75 -74 -75 c-70 -71 -73
-76 -57 -92 16 -16 21 -13 92 57 l75 74 75 -74 75 -74 20 20 20 20 -75 74 -75
75 75 75 c73 73 75 77 57 93 -17 16 -22 13 -92 -58 l-75 -75 -75 75 -76 76
-19 -21z"/>
<path d="M95 5030 c-38 -39 -75 -68 -82 -65 -9 3 -13 -9 -13 -45 0 -36 4 -48
13 -45 7 3 46 -28 87 -69 57 -58 77 -73 87 -64 22 18 15 30 -59 105 l-72 73
73 74 c64 64 73 77 61 90 -7 9 -15 16 -19 16 -4 0 -38 -32 -76 -70z"/>
<path d="M2070 5084 c-12 -13 -3 -26 60 -89 65 -65 72 -76 60 -90 -8 -10 -25
-21 -37 -26 -13 -5 -26 -17 -30 -26 -3 -10 -20 -33 -36 -51 -29 -30 -30 -33
-14 -49 16 -16 18 -15 45 10 16 16 39 27 55 27 28 0 53 31 43 55 -2 7 2 19 10
26 13 10 27 0 90 -62 70 -69 75 -72 91 -56 16 16 13 21 -57 92 l-74 75 74 75
c70 71 73 76 57 92 -16 16 -21 13 -92 -57 l-75 -74 -73 72 c-40 39 -75 72 -79
72 -3 0 -11 -7 -18 -16z"/>
<path d="M4290 5084 c-12 -13 -3 -26 61 -90 l73 -74 -72 -73 c-75 -75 -80 -85
-60 -105 10 -10 29 4 90 65 l78 78 75 -75 c71 -70 76 -73 92 -57 16 16 13 21
-57 92 l-74 75 74 75 c70 71 73 76 57 92 -16 16 -21 13 -92 -57 l-75 -74 -73
72 c-40 39 -75 72 -79 72 -3 0 -11 -7 -18 -16z"/>
<path d="M6510 5084 c-12 -13 -3 -26 61 -90 l73 -74 -74 -75 c-70 -71 -73 -76
-57 -92 16 -16 21 -13 92 57 l75 75 78 -78 c61 -61 80 -75 90 -65 20 20 15 30
-60 105 l-72 73 74 75 c70 71 73 76 57 92 -16 16 -21 13 -92 -57 l-75 -74 -73
72 c-40 39 -75 72 -79 72 -3 0 -11 -7 -18 -16z"/>
<path d="M8730 5084 c-12 -13 -3 -26 61 -90 l73 -74 -74 -75 c-70 -71 -73 -76
-57 -92 16 -16 21 -13 92 57 l75 74 75 -74 c71 -70 76 -73 92 -57 16 16 13 21
-57 92 l-74 75 74 75 c70 71 73 76 57 92 -16 16 -21 13 -92 -57 l-75 -74 -73
72 c-40 39 -75 72 -79 72 -3 0 -11 -7 -18 -16z"/>
<path d="M11060 5084 c-12 -13 -3 -26 61 -90 l73 -74 -74 -75 c-70 -71 -73
-76 -57 -92 16 -16 21 -13 92 57 l75 74 74 -73 c51 -51 79 -72 90 -68 28 11
18 30 -56 104 l-72 73 74 75 c70 71 73 76 57 92 -16 16 -21 13 -92 -57 l-75
-74 -73 72 c-40 39 -75 72 -79 72 -3 0 -11 -7 -18 -16z"/>
<path d="M13280 5084 c-12 -13 -3 -26 61 -90 l73 -74 -74 -75 c-70 -71 -73
-76 -57 -92 16 -16 21 -13 92 57 l75 74 75 -74 c71 -70 76 -73 92 -57 16 16
13 21 -57 92 l-74 75 74 75 c70 71 73 76 57 92 -16 16 -21 13 -92 -57 l-75
-74 -73 72 c-40 39 -75 72 -79 72 -3 0 -11 -7 -18 -16z"/>
<path d="M15500 5084 c-12 -13 -3 -26 61 -90 l74 -76 -24 -16 c-28 -21 -57
-49 -95 -97 -45 -56 -15 -92 34 -40 13 14 33 25 45 25 27 0 45 18 45 46 0 12
7 27 16 34 13 12 26 3 90 -61 70 -69 75 -72 91 -56 16 16 13 21 -57 92 l-74
75 74 75 c70 71 73 76 57 92 -16 16 -21 13 -92 -57 l-75 -74 -73 72 c-40 39
-75 72 -79 72 -3 0 -11 -7 -18 -16z"/>
<path d="M17720 5084 c-12 -13 -3 -26 61 -90 l74 -74 -78 -78 c-73 -73 -76
-78 -60 -95 17 -16 22 -13 95 60 l78 78 75 -75 c71 -70 76 -73 92 -57 16 16
13 21 -57 92 l-74 75 74 75 c70 71 73 76 57 92 -16 16 -21 13 -92 -57 l-75
-74 -73 72 c-40 39 -75 72 -79 72 -3 0 -11 -7 -18 -16z"/>
<path d="M947 3972 c-16 -17 -13 -22 58 -92 l75 -75 -75 -75 c-73 -73 -75 -77
-57 -93 17 -16 22 -13 92 58 l75 75 75 -75 c73 -73 77 -75 93 -57 16 17 13 22
-58 92 l-75 75 75 75 c73 73 75 77 57 93 -17 16 -22 13 -92 -58 l-75 -75 -75
75 c-73 73 -77 75 -93 57z"/>
<path d="M3167 3972 c-16 -17 -13 -22 58 -92 l75 -75 -77 -77 c-73 -74 -76
-79 -60 -95 16 -16 21 -13 95 60 l77 77 75 -75 c70 -71 75 -74 92 -58 18 16
16 20 -57 93 l-75 75 75 75 c71 70 74 75 58 92 -16 18 -20 16 -93 -57 l-75
-75 -76 76 c-72 72 -76 74 -92 56z"/>
<path d="M5387 3972 c-16 -17 -13 -22 53 -87 39 -38 70 -74 70 -79 0 -6 -32
-43 -72 -83 -69 -69 -71 -74 -55 -90 16 -16 21 -14 90 55 40 40 77 72 82 72 5
0 41 -32 80 -70 68 -68 72 -70 88 -52 16 17 13 22 -58 92 l-75 75 75 75 c73
73 75 77 57 93 -17 16 -22 13 -92 -58 l-75 -75 -75 75 c-73 73 -77 75 -93 57z"/>
<path d="M7607 3972 c-16 -17 -13 -22 58 -92 l75 -75 -75 -75 c-73 -73 -75
-77 -57 -93 17 -16 22 -13 92 58 l75 75 75 -75 c73 -73 77 -75 93 -57 16 17
13 22 -58 92 l-75 75 75 75 c73 73 75 77 57 93 -17 16 -22 13 -92 -58 l-75
-75 -75 75 c-73 73 -77 75 -93 57z"/>
<path d="M9827 3972 c-16 -17 -13 -22 58 -92 l75 -75 -77 -77 c-73 -74 -76
-79 -60 -95 16 -16 21 -14 90 55 40 40 77 72 82 72 5 0 41 -32 80 -70 68 -68
72 -70 88 -52 16 17 13 22 -58 92 l-75 75 75 75 c73 73 75 77 57 93 -17 16
-22 13 -92 -58 l-75 -75 -75 75 c-73 73 -77 75 -93 57z"/>
<path d="M12157 3972 c-16 -17 -13 -22 58 -92 l75 -75 -75 -75 c-73 -73 -75
-77 -57 -93 17 -16 22 -13 87 53 38 39 74 70 79 70 6 0 42 -32 81 -70 68 -68
72 -70 88 -52 16 17 13 22 -58 92 l-75 75 75 75 c73 73 75 77 57 93 -17 16
-22 13 -92 -58 l-75 -75 -75 75 c-73 73 -77 75 -93 57z"/>
<path d="M14377 3972 c-16 -17 -13 -22 53 -87 39 -38 70 -74 70 -79 0 -6 -32
-43 -72 -83 -69 -69 -71 -74 -55 -90 16 -16 21 -14 90 55 40 40 77 72 82 72 5
0 41 -32 80 -70 68 -68 72 -70 88 -52 16 17 13 22 -58 92 l-75 75 75 75 c73
73 75 77 57 93 -17 16 -22 13 -92 -58 l-75 -75 -75 75 c-73 73 -77 75 -93 57z"/>
<path d="M16597 3972 c-16 -17 -13 -22 53 -87 39 -38 70 -74 70 -79 0 -6 -32
-43 -72 -83 -69 -69 -71 -74 -55 -90 16 -16 21 -14 90 55 40 40 77 72 82 72 5
0 41 -32 80 -70 68 -68 72 -70 88 -52 16 17 13 22 -58 92 l-75 75 75 75 c73
73 75 77 57 93 -17 16 -22 13 -92 -58 l-75 -75 -75 75 c-73 73 -77 75 -93 57z"/>
<path d="M95 2820 c-38 -39 -75 -68 -82 -65 -10 3 -13 -10 -13 -46 0 -34 4
-48 11 -43 6 3 43 -26 85 -67 70 -69 75 -72 91 -56 16 16 13 21 -57 92 l-74
75 73 74 c64 64 73 77 61 90 -7 9 -15 16 -19 16 -4 0 -38 -32 -76 -70z"/>
<path d="M2070 2874 c-12 -13 -3 -26 61 -90 l73 -74 -74 -75 c-70 -71 -73 -76
-57 -92 16 -16 21 -13 92 57 l75 74 75 -74 c71 -70 76 -73 92 -57 16 16 13 21
-57 92 l-74 75 74 75 c70 71 73 76 57 92 -16 16 -21 13 -92 -57 l-75 -74 -73
72 c-40 39 -75 72 -79 72 -3 0 -11 -7 -18 -16z"/>
<path d="M4290 2874 c-12 -13 -3 -26 61 -90 l73 -74 -74 -75 c-70 -71 -73 -76
-57 -92 16 -16 21 -13 92 57 l75 74 75 -74 c71 -70 76 -73 92 -57 16 16 13 21
-57 92 l-74 75 74 75 c70 71 73 76 57 92 -16 16 -21 13 -92 -57 l-75 -74 -73
72 c-40 39 -75 72 -79 72 -3 0 -11 -7 -18 -16z"/>
<path d="M6510 2874 c-12 -13 -3 -26 61 -90 l73 -74 -74 -75 c-70 -71 -73 -76
-57 -92 16 -16 21 -13 92 57 l75 74 75 -74 c71 -70 76 -73 92 -57 16 16 13 21
-57 92 l-74 75 74 75 c70 71 73 76 57 92 -16 16 -21 13 -92 -57 l-75 -74 -73
72 c-40 39 -75 72 -79 72 -3 0 -11 -7 -18 -16z"/>
<path d="M8730 2874 c-12 -13 -3 -26 61 -90 l73 -74 -74 -75 c-70 -71 -73 -76
-57 -92 16 -16 21 -13 92 57 l75 74 75 -74 c71 -70 76 -73 92 -57 16 16 13 21
-57 92 l-74 75 74 75 c70 71 73 76 57 92 -16 16 -21 13 -92 -57 l-75 -74 -73
72 c-40 39 -75 72 -79 72 -3 0 -11 -7 -18 -16z"/>
<path d="M11060 2874 c-12 -13 -3 -26 61 -90 l73 -74 -74 -75 c-70 -71 -73
-76 -57 -92 16 -16 21 -13 92 57 l75 74 75 -74 c71 -70 76 -73 92 -57 16 16
13 21 -57 92 l-74 75 74 75 c70 71 73 76 57 92 -16 16 -21 13 -92 -57 l-75
-74 -73 72 c-40 39 -75 72 -79 72 -3 0 -11 -7 -18 -16z"/>
<path d="M13280 2874 c-12 -13 -3 -26 61 -90 l73 -74 -74 -75 c-70 -71 -73
-76 -57 -92 16 -16 21 -13 92 57 l75 74 75 -74 c71 -70 76 -73 92 -57 16 16
13 21 -57 92 l-74 75 74 75 c70 71 73 76 57 92 -16 16 -21 13 -92 -57 l-75
-74 -73 72 c-40 39 -75 72 -79 72 -3 0 -11 -7 -18 -16z"/>
<path d="M15500 2874 c-12 -13 -3 -26 61 -90 l73 -74 -74 -75 c-70 -71 -73
-76 -57 -92 16 -16 21 -13 92 57 l75 74 75 -74 c71 -70 76 -73 92 -57 16 16
13 21 -57 92 l-74 75 74 75 c70 71 73 76 57 92 -16 16 -21 13 -92 -57 l-75
-74 -73 72 c-40 39 -75 72 -79 72 -3 0 -11 -7 -18 -16z"/>
<path d="M17720 2874 c-12 -13 -3 -26 61 -90 l73 -74 -73 -74 c-51 -51 -72
-79 -68 -90 11 -28 30 -18 104 56 l73 72 75 -74 c71 -70 76 -73 92 -57 16 16
13 21 -57 92 l-74 75 74 75 c70 71 73 76 57 92 -16 16 -21 13 -92 -57 l-75
-74 -73 72 c-40 39 -75 72 -79 72 -3 0 -11 -7 -18 -16z"/>
<path d="M947 1762 c-16 -17 -13 -22 58 -92 l75 -75 -75 -75 c-73 -73 -75 -77
-57 -93 17 -16 22 -13 92 58 l75 75 75 -75 c73 -73 77 -75 93 -57 16 17 13 22
-58 92 l-75 75 75 75 c73 73 75 77 57 93 -17 16 -22 13 -92 -58 l-75 -75 -75
75 c-73 73 -77 75 -93 57z"/>
<path d="M3167 1762 c-16 -17 -13 -22 58 -92 l75 -75 -75 -75 c-73 -73 -75
-77 -57 -93 17 -16 22 -13 92 58 l75 75 75 -75 c73 -73 77 -75 93 -57 16 17
13 22 -58 92 l-75 75 75 75 c73 73 75 77 57 93 -17 16 -22 13 -92 -58 l-75
-75 -75 75 c-73 73 -77 75 -93 57z"/>
<path d="M5387 1762 c-16 -17 -13 -22 53 -87 39 -38 70 -74 70 -79 0 -6 -32
-43 -72 -83 -69 -69 -71 -74 -55 -90 16 -16 21 -13 95 60 l77 77 75 -75 c70
-71 75 -74 92 -58 18 16 16 20 -57 93 l-75 75 75 75 c71 70 74 75 58 92 -16
18 -20 16 -93 -57 l-75 -75 -76 76 c-72 72 -76 74 -92 56z"/>
<path d="M7607 1762 c-16 -17 -13 -22 58 -92 l75 -75 -75 -75 c-73 -73 -75
-77 -57 -93 17 -16 22 -13 92 58 l75 75 75 -75 c73 -73 77 -75 93 -57 16 17
13 22 -58 92 l-75 75 75 75 c73 73 75 77 57 93 -17 16 -22 13 -92 -58 l-75
-75 -75 75 c-73 73 -77 75 -93 57z"/>
<path d="M9827 1762 c-16 -17 -13 -22 58 -92 l75 -75 -75 -75 c-73 -73 -75
-77 -57 -93 17 -16 22 -13 92 58 l75 75 75 -75 c73 -73 77 -75 93 -57 16 17
13 22 -58 92 l-75 75 75 75 c73 73 75 77 57 93 -17 16 -22 13 -92 -58 l-75
-75 -75 75 c-73 73 -77 75 -93 57z"/>
<path d="M12157 1762 c-16 -17 -13 -22 58 -92 l75 -75 -75 -75 c-73 -73 -75
-77 -57 -93 17 -16 22 -13 92 58 l75 75 75 -75 c73 -73 77 -75 93 -57 16 17
13 22 -58 92 l-75 75 75 75 c73 73 75 77 57 93 -17 16 -22 13 -92 -58 l-75
-75 -75 75 c-73 73 -77 75 -93 57z"/>
<path d="M14377 1762 c-16 -17 -13 -22 58 -92 l75 -75 -75 -75 c-73 -73 -75
-77 -57 -93 17 -16 22 -13 92 58 l75 75 75 -75 c73 -73 77 -75 93 -57 16 17
13 22 -58 92 l-75 75 75 75 c73 73 75 77 57 93 -17 16 -22 13 -92 -58 l-75
-75 -75 75 c-73 73 -77 75 -93 57z"/>
<path d="M16597 1762 c-16 -17 -13 -22 53 -87 39 -38 70 -74 70 -79 0 -6 -32
-43 -72 -83 -69 -69 -71 -74 -55 -90 16 -16 21 -13 95 60 l77 77 75 -75 c70
-71 75 -74 92 -58 18 16 16 20 -57 93 l-75 75 75 75 c71 70 74 75 58 92 -16
18 -20 16 -93 -57 l-75 -75 -76 76 c-72 72 -76 74 -92 56z"/>
<path d="M95 600 c-38 -39 -75 -68 -82 -65 -10 3 -13 -10 -13 -46 0 -34 4 -48
11 -43 6 3 43 -26 85 -67 70 -69 75 -72 91 -56 16 16 13 21 -57 92 l-74 75 73
74 c64 64 73 77 61 90 -7 9 -15 16 -19 16 -4 0 -38 -32 -76 -70z"/>
<path d="M2070 654 c-12 -13 -3 -26 61 -90 l73 -74 -74 -75 c-70 -71 -73 -76
-57 -92 16 -16 21 -13 92 57 l75 74 75 -74 c71 -70 76 -73 92 -57 16 16 13 21
-57 92 l-74 75 74 75 c70 71 73 76 57 92 -16 16 -21 13 -92 -57 l-75 -74 -73
72 c-40 39 -75 72 -79 72 -3 0 -11 -7 -18 -16z"/>
<path d="M4290 654 c-12 -13 -3 -26 61 -90 l73 -74 -74 -75 c-70 -71 -73 -76
-57 -92 16 -16 21 -13 92 57 l75 74 75 -74 c71 -70 76 -73 92 -57 16 16 13 21
-57 92 l-74 75 74 75 c70 71 73 76 57 92 -16 16 -21 13 -92 -57 l-75 -74 -73
72 c-40 39 -75 72 -79 72 -3 0 -11 -7 -18 -16z"/>
<path d="M6510 654 c-12 -13 -3 -26 61 -90 l73 -74 -74 -75 c-70 -71 -73 -76
-57 -92 16 -16 21 -13 92 57 l75 74 75 -74 c71 -70 76 -73 92 -57 16 16 13 21
-57 92 l-74 75 74 75 c70 71 73 76 57 92 -16 16 -21 13 -92 -57 l-75 -74 -73
72 c-40 39 -75 72 -79 72 -3 0 -11 -7 -18 -16z"/>
<path d="M8730 654 c-12 -13 -3 -26 61 -90 l73 -74 -74 -75 c-70 -71 -73 -76
-57 -92 16 -16 21 -13 92 57 l75 74 75 -74 c71 -70 76 -73 92 -57 16 16 13 21
-57 92 l-74 75 74 75 c70 71 73 76 57 92 -16 16 -21 13 -92 -57 l-75 -74 -73
72 c-40 39 -75 72 -79 72 -3 0 -11 -7 -18 -16z"/>
<path d="M11060 654 c-12 -13 -3 -26 61 -90 l73 -74 -74 -75 c-70 -71 -73 -76
-57 -92 16 -16 21 -13 92 57 l75 74 75 -74 c71 -70 76 -73 92 -57 16 16 13 21
-57 92 l-74 75 74 75 c70 71 73 76 57 92 -16 16 -21 13 -92 -57 l-75 -74 -73
72 c-40 39 -75 72 -79 72 -3 0 -11 -7 -18 -16z"/>
<path d="M13280 654 c-12 -13 -3 -26 61 -90 l73 -74 -74 -75 c-70 -71 -73 -76
-57 -92 16 -16 21 -13 92 57 l75 74 75 -74 c71 -70 76 -73 92 -57 16 16 13 21
-57 92 l-74 75 74 75 c70 71 73 76 57 92 -16 16 -21 13 -92 -57 l-75 -74 -73
72 c-40 39 -75 72 -79 72 -3 0 -11 -7 -18 -16z"/>
<path d="M15500 654 c-12 -13 -3 -26 61 -90 l73 -74 -74 -75 c-70 -71 -73 -76
-57 -92 16 -16 21 -13 92 57 l75 74 75 -74 c71 -70 76 -73 92 -57 16 16 13 21
-57 92 l-74 75 74 75 c70 71 73 76 57 92 -16 16 -21 13 -92 -57 l-75 -74 -73
72 c-40 39 -75 72 -79 72 -3 0 -11 -7 -18 -16z"/>
<path d="M17720 654 c-12 -13 -3 -26 61 -90 l73 -74 -73 -74 c-51 -51 -72 -79
-68 -90 11 -28 30 -18 104 56 l73 72 75 -74 c71 -70 76 -73 92 -57 16 16 13
21 -57 92 l-74 75 74 75 c70 71 73 76 57 92 -16 16 -21 13 -92 -57 l-75 -74
-73 72 c-40 39 -75 72 -79 72 -3 0 -11 -7 -18 -16z"/>
</g>
</svg>
