<?xml version="1.0" standalone="no"?>
<!DOCTYPE svg PUBLIC "-//W3C//DTD SVG 20010904//EN"
 "http://www.w3.org/TR/2001/REC-SVG-20010904/DTD/svg10.dtd">
<svg version="1.0" xmlns="http://www.w3.org/2000/svg"
 width="1811.000000pt" height="1217.000000pt" viewBox="0 0 1811.000000 1217.000000"
 preserveAspectRatio="xMidYMid meet">
<metadata>
Created by potrace 1.13, written by Peter Selinger 2001-2015
</metadata>
<g transform="translate(0.000000,1217.000000) scale(0.100000,-0.100000)"
fill="#000000" stroke="none">
<path d="M8168 12124 c-19 -19 -24 -13 286 -339 99 -104 105 -109 122 -93 16
16 12 23 -89 130 -315 335 -300 321 -319 302z"/>
<path d="M4076 12001 c-16 -17 -8 -26 151 -176 93 -88 189 -179 216 -204 45
-43 48 -45 65 -27 16 17 14 21 -53 83 -38 36 -136 128 -216 204 -140 132 -147
138 -163 120z"/>
<path d="M17501 11996 c-12 -14 7 -33 254 -266 176 -166 163 -156 182 -137 20
20 48 -10 -228 250 -98 92 -181 167 -187 167 -5 0 -15 -6 -21 -14z"/>
<path d="M7997 11933 c-16 -18 -6 -29 186 -221 194 -194 204 -202 220 -185 16
18 6 29 -186 221 -194 194 -204 202 -220 185z"/>
<path d="M11072 11898 c3 -21 22 -27 288 -84 280 -60 285 -60 291 -40 4 14 0
24 -10 28 -21 10 -528 118 -553 118 -14 0 -19 -6 -16 -22z"/>
<path d="M6348 11876 c-3 -14 -2 -26 1 -26 3 -1 134 -18 291 -39 276 -36 285
-37 294 -18 7 12 6 21 -2 26 -7 4 -130 22 -274 40 -145 18 -273 35 -284 38
-17 3 -22 -1 -26 -21z"/>
<path d="M1880 11847 l0 -24 253 -12 c138 -6 271 -14 295 -18 40 -5 42 -4 42
20 0 31 -5 31 -301 47 -289 15 -289 15 -289 -13z"/>
<path d="M15310 11847 l0 -24 248 -12 c136 -6 268 -14 295 -17 45 -6 47 -5 47
19 0 31 -5 31 -301 47 -288 15 -289 15 -289 -13z"/>
<path d="M3912 11808 c-7 -7 -12 -15 -12 -19 0 -4 82 -80 183 -170 100 -89
194 -174 209 -187 23 -21 30 -23 43 -12 8 7 15 16 15 20 0 6 -415 380 -422
380 -2 0 -9 -5 -16 -12z"/>
<path d="M17342 11808 c-7 -7 -12 -15 -12 -19 0 -6 312 -290 403 -368 16 -13
19 -13 34 2 16 16 16 18 -2 36 -46 43 -404 361 -407 361 -2 0 -9 -5 -16 -12z"/>
<path d="M13380 11744 c-63 -13 -184 -38 -267 -55 -145 -30 -153 -33 -153 -55
0 -13 4 -24 10 -24 5 0 130 25 277 55 147 30 271 55 274 55 3 0 4 11 1 25 -5
29 4 29 -142 -1z"/>
<path d="M11037 11663 c-4 -3 -7 -14 -7 -23 0 -13 45 -24 258 -64 141 -26 267
-50 279 -53 15 -3 23 1 28 17 4 12 5 23 3 26 -4 4 -528 104 -546 104 -5 0 -12
-3 -15 -7z"/>
<path d="M6330 11618 l0 -24 268 -27 c147 -15 275 -27 285 -27 11 0 17 8 17
23 0 23 -3 24 -217 45 -386 40 -353 39 -353 10z"/>
<path d="M1880 11596 c0 -24 1 -24 143 -30 78 -3 206 -7 285 -10 l142 -4 0 23
c0 22 -5 24 -72 29 -40 3 -169 8 -285 10 l-213 5 0 -23z"/>
<path d="M15310 11596 c0 -24 1 -24 133 -30 72 -3 201 -7 285 -10 l152 -4 0
23 c0 22 -5 24 -72 29 -40 3 -169 8 -285 10 l-213 5 0 -23z"/>
<path d="M13248 11462 c-146 -26 -269 -50 -272 -53 -4 -3 -3 -15 1 -25 8 -19
17 -18 296 30 279 48 287 50 287 73 0 30 10 31 -312 -25z"/>
<path d="M9553 11456 c-22 -11 -20 -15 116 -266 80 -146 146 -256 155 -258 40
-8 21 39 -110 280 -75 139 -137 254 -138 255 -1 1 -11 -4 -23 -11z"/>
<path d="M9333 11323 c-7 -2 -13 -9 -13 -15 0 -7 260 -466 276 -486 4 -6 44 9
44 17 0 13 -277 485 -286 487 -5 1 -15 0 -21 -3z"/>
<path d="M1030 10974 c-11 -12 -11 -17 1 -28 312 -294 412 -386 419 -386 14 0
33 31 24 39 -5 5 -100 95 -212 200 -112 105 -207 191 -211 191 -5 0 -14 -7
-21 -16z"/>
<path d="M14460 10974 c-11 -13 -9 -19 16 -43 200 -191 395 -371 402 -371 5 0
15 6 21 14 10 12 -6 31 -81 103 -186 179 -331 313 -338 313 -4 0 -13 -7 -20
-16z"/>
<path d="M12340 10891 c0 -3 -20 -122 -45 -264 -25 -142 -45 -262 -45 -268 0
-5 11 -9 25 -9 14 0 25 3 25 8 0 4 20 123 45 265 25 142 45 260 45 262 0 1
-11 5 -25 7 -14 3 -25 2 -25 -1z"/>
<path d="M12590 10893 c0 -7 -101 -536 -107 -560 -4 -19 -1 -23 21 -23 18 0
27 6 31 23 2 12 25 130 50 262 25 132 48 252 51 266 4 22 1 27 -20 31 -15 3
-26 3 -26 1z"/>
<path d="M3298 10747 c-142 -72 -258 -136 -258 -142 1 -44 18 -38 276 95 143
73 261 134 262 136 6 4 -9 44 -16 44 -4 0 -123 -60 -264 -133z"/>
<path d="M16728 10748 c-142 -72 -258 -136 -258 -142 1 -43 18 -38 276 95 143
73 261 133 262 135 6 4 -9 44 -16 44 -4 0 -123 -60 -264 -132z"/>
<path d="M870 10785 c-6 -8 -10 -18 -8 -23 5 -13 408 -372 417 -372 5 0 14 7
21 16 11 12 11 17 -1 28 -58 52 -387 344 -400 354 -13 10 -19 9 -29 -3z"/>
<path d="M14300 10785 c-6 -8 -10 -18 -8 -23 1 -5 95 -92 207 -192 165 -148
207 -181 220 -173 9 6 16 14 16 20 0 5 -88 88 -195 184 -247 220 -225 202
-240 184z"/>
<path d="M7471 10682 c-10 -18 11 -32 247 -166 235 -135 258 -146 269 -129 11
14 11 19 1 29 -15 12 -464 269 -490 279 -11 4 -20 0 -27 -13z"/>
<path d="M5512 10488 c-205 -199 -209 -203 -191 -222 18 -20 22 -17 201 159
101 98 196 191 212 206 25 24 27 30 16 43 -7 9 -16 16 -21 16 -4 0 -102 -91
-217 -202z"/>
<path d="M3413 10528 c-134 -72 -243 -136 -243 -142 1 -43 19 -36 269 99 228
124 250 138 241 156 -6 10 -14 19 -18 19 -4 0 -116 -60 -249 -132z"/>
<path d="M16845 10530 c-132 -71 -241 -135 -242 -142 -10 -47 17 -37 265 98
228 123 251 138 241 155 -5 10 -13 19 -17 19 -4 0 -115 -58 -247 -130z"/>
<path d="M5686 10311 c-175 -175 -198 -202 -186 -216 7 -9 18 -14 24 -13 6 2
98 92 205 200 167 169 193 199 181 212 -7 9 -15 16 -19 16 -3 0 -96 -90 -205
-199z"/>
<path d="M7362 10458 c-7 -7 -12 -15 -12 -19 0 -14 490 -271 506 -265 38 15
-4 45 -231 167 -132 71 -242 129 -245 129 -4 0 -11 -5 -18 -12z"/>
<path d="M10005 9844 c-373 -51 -333 -42 -327 -71 4 -22 9 -24 36 -19 17 2
141 19 276 37 135 17 249 35 253 39 4 3 5 14 1 23 -8 22 -26 21 -239 -9z"/>
<path d="M4140 9633 c0 -5 -29 -128 -65 -276 -36 -147 -65 -269 -65 -272 0 -3
11 -5 25 -5 17 0 26 7 30 23 3 12 32 134 65 271 47 195 58 251 48 258 -16 10
-38 10 -38 1z"/>
<path d="M17506 9368 c-37 -150 -66 -276 -66 -280 0 -5 11 -8 24 -8 23 0 26 8
51 113 15 61 44 184 66 272 38 160 39 174 2 175 -6 0 -38 -111 -77 -272z"/>
<path d="M9965 9589 c-137 -15 -255 -28 -261 -28 -7 -1 -9 -12 -6 -27 4 -24 8
-26 41 -21 20 3 152 18 294 33 255 27 257 27 257 51 0 29 2 29 -325 -8z"/>
<path d="M2146 9577 c-17 -13 -8 -31 125 -268 78 -140 144 -256 145 -258 2 -1
12 3 23 11 20 14 16 22 -120 264 -77 137 -143 252 -147 256 -5 5 -16 2 -26 -5z"/>
<path d="M4320 9319 c-40 -149 -73 -279 -74 -288 -1 -9 8 -17 21 -19 18 -3 24
4 33 40 7 24 41 151 76 282 66 242 67 255 28 256 -6 0 -43 -122 -84 -271z"/>
<path d="M6667 9583 c-2 -5 4 -125 14 -268 10 -143 18 -272 18 -287 1 -23 5
-28 27 -28 l27 0 -7 78 c-3 42 -10 160 -16 262 -14 236 -16 250 -40 250 -10 0
-21 -3 -23 -7z"/>
<path d="M15575 9576 c-17 -12 -10 -28 125 -267 78 -140 144 -256 146 -258 1
-1 12 3 23 11 19 14 15 22 -121 264 -77 137 -143 252 -147 257 -4 4 -15 1 -26
-7z"/>
<path d="M17820 9586 c0 -2 -34 -129 -75 -281 -41 -153 -72 -282 -69 -286 3
-5 13 -9 23 -9 15 0 30 45 94 282 77 284 79 297 40 298 -7 0 -13 -2 -13 -4z"/>
<path d="M6410 9553 c0 -5 11 -127 25 -273 14 -146 25 -271 25 -277 0 -7 11
-13 25 -13 14 0 25 6 25 13 0 6 -11 131 -25 277 -14 146 -25 268 -25 273 0 4
-11 7 -25 7 -14 0 -25 -3 -25 -7z"/>
<path d="M120 9491 c-112 -16 -115 -17 -118 -42 l-3 -26 93 13 c51 7 119 16
151 20 51 6 57 9 57 30 0 29 -10 29 -180 5z"/>
<path d="M8557 9498 c-15 -12 -1 -38 148 -261 154 -230 167 -246 185 -235 11
7 19 16 18 19 -7 17 -324 489 -329 489 -3 0 -13 -6 -22 -12z"/>
<path d="M13425 9474 c-132 -18 -246 -33 -252 -34 -7 0 -13 -12 -13 -26 0 -25
2 -26 38 -21 20 3 148 20 285 38 242 32 247 33 247 56 0 30 -3 30 -305 -13z"/>
<path d="M11174 9438 c-4 -12 -3 -24 2 -25 5 -2 122 -53 259 -112 223 -97 251
-107 263 -93 6 9 12 19 12 22 0 6 -510 230 -523 230 -3 0 -9 -10 -13 -22z"/>
<path d="M1928 9440 c-14 -9 3 -42 129 -255 80 -135 148 -245 152 -245 4 0 15
6 24 13 14 11 0 38 -129 252 -79 132 -147 241 -151 242 -5 1 -16 -2 -25 -7z"/>
<path d="M15357 9438 c-14 -12 0 -39 129 -253 79 -132 148 -240 154 -239 26 3
30 5 30 16 0 15 -282 488 -290 488 -4 0 -14 -6 -23 -12z"/>
<path d="M8356 9345 c-18 -13 -10 -27 141 -242 88 -125 168 -229 177 -231 44
-9 20 37 -134 257 -89 127 -163 231 -164 231 0 0 -9 -7 -20 -15z"/>
<path d="M138 9242 c-133 -15 -138 -16 -138 -39 0 -28 5 -28 185 -8 72 8 136
15 143 15 6 0 12 11 12 25 0 30 2 30 -202 7z"/>
<path d="M13460 9229 c-135 -15 -253 -28 -262 -28 -12 -1 -18 -9 -18 -26 0
-14 4 -25 8 -25 4 0 133 14 285 30 153 17 282 30 287 30 6 0 10 11 10 25 0 31
11 31 -310 -6z"/>
<path d="M11069 9228 c-6 -11 -9 -22 -6 -24 17 -17 522 -244 533 -240 34 13
11 39 -68 76 -46 21 -165 76 -266 123 -174 82 -183 85 -193 65z"/>
<path d="M3123 8624 c-3 -8 -3 -20 0 -27 3 -7 103 -31 263 -61 143 -27 266
-51 275 -53 11 -3 18 3 21 20 l5 25 -216 42 c-119 23 -244 48 -279 55 -54 11
-64 11 -69 -1z"/>
<path d="M7764 8632 c-26 -4 -28 19 30 -322 38 -229 42 -245 61 -242 11 2 21
5 23 7 5 4 -77 514 -86 540 -5 13 -14 19 -28 17z"/>
<path d="M16552 8608 c3 -21 20 -25 243 -69 132 -25 257 -49 278 -53 35 -7 37
-5 37 19 0 14 -1 25 -2 25 -2 0 -118 22 -258 50 -297 58 -303 58 -298 28z"/>
<path d="M7519 8602 c-14 -6 -11 -37 23 -287 21 -154 40 -285 43 -292 5 -14
45 -5 45 10 0 15 -70 529 -75 555 -6 23 -10 25 -36 14z"/>
<path d="M5495 8565 c-126 -13 -238 -24 -247 -24 -12 -1 -18 -9 -18 -26 0 -14
3 -25 8 -25 4 0 126 11 272 25 146 14 271 25 278 25 6 0 12 11 12 25 0 31 9
31 -305 0z"/>
<path d="M1320 8254 c-141 -83 -244 -149 -242 -157 2 -6 7 -16 12 -21 9 -9 30
2 311 168 178 106 187 113 176 133 -12 21 -19 18 -257 -123z"/>
<path d="M3067 8393 c-4 -3 -7 -14 -7 -23 0 -13 49 -27 268 -75 147 -32 276
-60 288 -63 15 -3 23 2 27 17 3 12 2 23 -3 26 -7 5 -546 125 -560 125 -3 0
-10 -3 -13 -7z"/>
<path d="M9875 8380 c-67 -9 -183 -25 -258 -35 -132 -17 -137 -19 -137 -41 0
-16 6 -24 18 -24 9 0 134 16 276 35 142 19 263 35 267 35 5 0 9 11 9 25 0 30
-3 30 -175 5z"/>
<path d="M16490 8377 c0 -22 12 -26 283 -85 155 -34 285 -62 290 -62 4 0 7 11
7 24 0 22 -7 26 -57 36 -32 7 -157 34 -277 61 -121 27 -225 49 -233 49 -7 0
-13 -10 -13 -23z"/>
<path d="M12690 8095 l0 -295 25 0 25 0 0 295 0 295 -25 0 -25 0 0 -295z"/>
<path d="M14738 8249 c-214 -127 -237 -143 -227 -160 5 -10 13 -19 17 -19 4 0
113 63 242 139 172 101 235 144 235 157 0 10 -7 20 -15 21 -8 1 -122 -61 -252
-138z"/>
<path d="M12440 8302 c0 -44 3 -174 7 -290 l6 -212 25 0 25 0 -6 212 c-4 116
-7 246 -7 290 0 77 0 78 -25 78 -25 0 -25 -1 -25 -78z"/>
<path d="M5535 8319 c-137 -9 -260 -18 -272 -18 -18 -1 -23 -7 -23 -27 l0 -26
68 6 c37 3 146 10 242 16 273 16 280 17 280 46 0 19 -5 24 -22 23 -13 -1 -135
-10 -273 -20z"/>
<path d="M1445 8041 c-143 -80 -251 -146 -253 -155 -8 -40 38 -22 275 110 136
75 250 138 251 140 6 4 -9 44 -16 44 -4 0 -119 -63 -257 -139z"/>
<path d="M14863 8037 c-221 -124 -250 -143 -242 -159 5 -10 14 -18 20 -18 8 0
487 261 507 276 9 6 -10 44 -21 43 -7 -1 -125 -64 -264 -142z"/>
<path d="M9795 8119 c-137 -15 -260 -28 -272 -28 -18 -1 -23 -7 -23 -26 0 -17
5 -25 18 -25 10 0 141 14 292 30 151 17 275 30 277 30 2 0 3 11 3 25 0 30 26
31 -295 -6z"/>
<path d="M8600 7736 c0 -2 -29 -131 -65 -287 -36 -155 -64 -283 -62 -284 1 -2
12 -5 24 -9 20 -6 23 0 43 91 12 54 42 183 66 288 32 142 40 191 31 197 -13 8
-37 11 -37 4z"/>
<path d="M8781 7418 c-29 -145 -54 -270 -57 -279 -3 -11 3 -19 18 -22 12 -4
24 -4 26 -2 9 9 112 540 107 553 -2 6 -13 12 -23 12 -17 0 -25 -30 -71 -262z"/>
<path d="M2320 7496 c0 -2 -25 -124 -55 -271 -30 -146 -55 -270 -55 -274 0
-14 41 -20 46 -8 12 34 113 541 108 548 -5 9 -44 13 -44 5z"/>
<path d="M15746 7483 c-13 -50 -109 -534 -105 -537 2 -2 13 -6 24 -8 18 -3 24
19 76 272 32 151 55 278 53 282 -9 15 -43 8 -48 -9z"/>
<path d="M2511 7191 c-34 -149 -65 -279 -68 -289 -3 -14 2 -21 18 -25 13 -4
24 -5 26 -4 1 2 32 130 68 286 67 288 68 300 29 301 -6 0 -39 -121 -73 -269z"/>
<path d="M16000 7455 c0 -2 -29 -131 -66 -286 -36 -155 -64 -282 -62 -284 2
-1 12 -5 24 -9 19 -6 24 10 87 281 52 220 64 289 55 295 -14 8 -38 11 -38 3z"/>
<path d="M11318 7416 c-6 -28 -25 -24 345 -72 180 -24 210 -26 218 -13 5 7 7
19 6 24 -2 6 -111 24 -243 42 -131 17 -258 34 -280 38 -38 5 -42 4 -46 -19z"/>
<path d="M4663 7142 c-134 -211 -150 -238 -135 -250 9 -7 20 -11 24 -10 5 2
75 109 157 238 112 175 147 238 139 247 -6 7 -16 13 -22 13 -6 0 -79 -107
-163 -238z"/>
<path d="M13380 7304 c-129 -18 -238 -33 -242 -33 -5 -1 -8 -13 -8 -27 0 -24
2 -25 43 -19 23 4 150 21 282 39 229 30 240 33 243 54 3 20 -1 22 -40 21 -24
-1 -149 -16 -278 -35z"/>
<path d="M6597 7057 c-43 -144 -78 -267 -77 -273 0 -7 9 -14 20 -17 17 -4 23
6 49 91 97 316 131 438 127 449 -3 7 -13 13 -23 13 -15 0 -32 -47 -96 -263z"/>
<path d="M6835 6988 c-48 -150 -88 -277 -89 -281 -1 -5 8 -13 19 -17 20 -7 27
10 114 272 51 154 91 281 89 282 -1 2 -12 6 -24 10 -19 6 -27 -14 -109 -266z"/>
<path d="M4871 7008 c-147 -220 -160 -244 -144 -256 14 -10 20 -10 30 1 7 7
82 116 167 242 150 225 165 255 122 255 -7 0 -85 -109 -175 -242z"/>
<path d="M11277 7193 c-4 -3 -7 -14 -7 -23 0 -13 44 -23 273 -59 149 -23 282
-45 295 -48 18 -4 22 -1 22 20 0 30 24 24 -305 77 -272 43 -269 43 -278 33z"/>
<path d="M155 7079 c-160 -19 -155 -18 -155 -46 0 -23 3 -25 32 -20 18 4 88
12 156 18 117 12 122 13 122 36 0 21 -4 23 -42 22 -24 -1 -74 -5 -113 -10z"/>
<path d="M13410 7059 c-135 -15 -248 -28 -252 -28 -5 -1 -8 -13 -8 -27 0 -24
3 -26 33 -21 17 4 150 18 295 34 259 27 262 27 262 50 0 21 -4 23 -42 22 -24
-1 -153 -14 -288 -30z"/>
<path d="M9623 6318 c-50 -139 -94 -260 -98 -269 -4 -11 1 -18 16 -22 13 -4
25 -5 27 -3 2 2 46 122 98 267 95 262 98 278 59 279 -6 0 -52 -114 -102 -252z"/>
<path d="M9849 6217 c-100 -255 -105 -273 -87 -281 11 -6 22 -6 27 0 17 19
213 533 206 543 -3 6 -14 11 -23 11 -13 0 -43 -66 -123 -273z"/>
<path d="M7746 6311 c-16 -18 -10 -25 156 -176 95 -87 190 -174 210 -193 31
-30 40 -33 53 -22 8 7 15 16 15 20 0 4 -71 72 -157 151 -87 79 -181 165 -209
191 -49 46 -51 47 -68 29z"/>
<path d="M12205 6278 c-2 -7 -22 -128 -45 -268 -22 -140 -43 -265 -45 -277 -4
-15 1 -23 16 -28 11 -4 23 -5 25 -2 7 6 94 532 94 563 0 17 -6 24 -20 24 -11
0 -22 -6 -25 -12z"/>
<path d="M3255 6244 c-137 -19 -255 -36 -262 -39 -17 -6 -4 -45 15 -45 18 0
546 71 549 74 1 1 0 12 -4 24 -7 27 12 28 -298 -14z"/>
<path d="M16685 6244 c-263 -36 -275 -39 -275 -51 1 -36 14 -36 256 -4 342 46
314 40 314 67 0 30 17 30 -295 -12z"/>
<path d="M12406 5983 c-20 -148 -36 -275 -36 -284 0 -19 40 -33 45 -16 2 7 20
133 40 281 37 275 37 285 -1 286 -7 0 -25 -102 -48 -267z"/>
<path d="M1020 6150 c-10 -18 11 -36 217 -190 177 -132 230 -167 240 -158 8 6
13 17 11 24 -3 10 -441 344 -453 344 -2 0 -9 -9 -15 -20z"/>
<path d="M14452 6158 c-7 -7 -12 -17 -12 -22 1 -6 103 -86 228 -179 204 -150
228 -166 240 -150 6 9 12 19 12 22 0 5 -415 316 -445 333 -6 4 -17 2 -23 -4z"/>
<path d="M7577 6142 c-18 -19 -37 2 309 -335 97 -95 101 -97 117 -79 17 18 9
27 -196 225 -202 194 -215 206 -230 189z"/>
<path d="M5388 6002 c-261 -36 -268 -37 -268 -59 0 -30 -8 -30 304 12 142 19
261 35 262 35 2 0 4 11 4 25 0 30 30 32 -302 -13z"/>
<path d="M3290 5999 c-146 -16 -270 -31 -277 -34 -17 -6 -4 -45 16 -45 9 0
139 14 289 30 151 17 276 30 279 30 2 0 3 10 1 23 -2 14 -10 23 -23 23 -11 1
-139 -11 -285 -27z"/>
<path d="M16715 5998 c-148 -16 -274 -33 -278 -37 -11 -11 3 -41 19 -41 31 0
568 60 572 64 10 10 -11 46 -26 45 -9 -1 -138 -15 -287 -31z"/>
<path d="M870 5965 c-17 -20 -32 -6 228 -211 198 -157 218 -170 234 -156 10 8
15 18 13 22 -6 10 -452 360 -458 360 -2 0 -10 -7 -17 -15z"/>
<path d="M14296 5964 c-3 -9 -6 -17 -6 -19 0 -2 84 -70 188 -151 103 -81 205
-162 228 -181 40 -32 41 -32 58 -14 17 18 9 25 -213 200 -126 100 -234 181
-239 181 -6 0 -13 -7 -16 -16z"/>
<path d="M5423 5757 c-280 -31 -283 -31 -283 -54 0 -29 -7 -29 288 2 318 34
302 31 302 60 0 14 -6 24 -12 24 -7 -1 -140 -15 -295 -32z"/>
<path d="M4346 5328 c-3 -24 -10 -142 -16 -263 -6 -121 -12 -233 -13 -250 -2
-24 2 -31 20 -33 29 -4 30 -2 43 273 6 127 13 249 16 273 5 40 4 42 -20 42
-22 0 -25 -5 -30 -42z"/>
<path d="M17776 5358 c-3 -7 -9 -121 -16 -253 -6 -132 -13 -259 -17 -282 -5
-41 -4 -43 21 -43 14 0 26 1 27 3 0 1 8 134 17 295 l17 292 -23 0 c-12 0 -24
-6 -26 -12z"/>
<path d="M4586 5298 c-3 -35 -8 -165 -11 -290 l-6 -228 24 0 25 0 6 188 c3
103 8 231 10 285 2 53 0 97 -4 97 -5 0 -15 3 -23 6 -12 4 -16 -7 -21 -58z"/>
<path d="M18015 5347 c-2 -7 -6 -137 -10 -289 l-7 -278 25 0 24 0 6 182 c4 99
7 227 7 283 0 95 -1 103 -21 108 -11 3 -22 0 -24 -6z"/>
<path d="M143 5302 c-132 -33 -143 -38 -143 -59 0 -13 4 -23 9 -23 17 0 292
68 297 73 7 7 -5 47 -14 46 -4 -1 -71 -17 -149 -37z"/>
<path d="M13445 5271 c-245 -61 -270 -69 -267 -86 2 -11 6 -22 8 -24 4 -5 544
126 551 133 7 6 -7 46 -15 45 -4 0 -128 -31 -277 -68z"/>
<path d="M8615 5139 c-121 -94 -222 -173 -224 -175 -9 -8 23 -35 36 -30 7 3
110 80 228 172 194 151 213 168 202 185 -6 10 -14 19 -17 19 -3 0 -104 -77
-225 -171z"/>
<path d="M6405 5110 c-4 -12 -5 -23 -3 -25 12 -13 512 -224 519 -219 5 3 9 13
9 23 0 15 -53 42 -242 124 -134 58 -250 109 -260 112 -11 4 -18 0 -23 -15z"/>
<path d="M8775 4949 c-267 -195 -254 -184 -233 -205 15 -15 33 -4 239 147 123
90 230 169 238 175 13 10 13 14 2 28 -7 9 -16 16 -20 16 -4 0 -105 -72 -226
-161z"/>
<path d="M168 5051 c-166 -36 -168 -36 -168 -63 l0 -26 58 13 c31 7 115 25
187 41 72 15 132 28 133 30 11 8 -12 44 -26 43 -9 -1 -92 -18 -184 -38z"/>
<path d="M13496 5029 c-148 -32 -271 -61 -273 -63 -3 -2 -2 -14 2 -26 4 -13
13 -19 23 -16 9 2 139 30 287 62 149 31 272 58 273 60 10 8 -12 44 -26 43 -9
0 -138 -27 -286 -60z"/>
<path d="M11060 4899 c-129 -32 -245 -61 -258 -64 -17 -4 -22 -12 -20 -28 2
-12 10 -22 18 -21 8 1 133 30 278 65 248 60 262 64 262 86 0 31 -5 31 -280
-38z"/>
<path d="M6296 4893 c-4 -9 -3 -20 1 -24 4 -4 125 -61 267 -128 257 -119 282
-127 273 -83 -2 12 -499 251 -523 252 -7 0 -15 -8 -18 -17z"/>
<path d="M11105 4656 c-254 -57 -280 -64 -277 -82 2 -10 6 -21 8 -23 4 -4 531
106 562 117 15 5 12 44 -3 47 -5 2 -136 -25 -290 -59z"/>
<path d="M1920 4414 c-188 -295 -176 -273 -157 -292 11 -10 20 -13 26 -7 7 8
272 423 296 464 7 13 -9 31 -30 31 -5 0 -66 -89 -135 -196z"/>
<path d="M15323 4373 c-146 -229 -151 -238 -131 -252 12 -8 23 -10 27 -4 3 5
73 115 155 242 117 183 146 235 135 242 -8 5 -18 9 -24 9 -5 0 -78 -107 -162
-237z"/>
<path d="M2102 4238 c-149 -222 -162 -243 -146 -255 15 -11 21 -11 31 -1 6 7
82 116 167 242 118 175 153 233 144 243 -6 7 -16 13 -22 13 -6 0 -84 -109
-174 -242z"/>
<path d="M15531 4238 c-152 -224 -162 -242 -145 -255 14 -11 20 -11 30 -1 6 7
82 117 167 244 118 175 153 234 145 242 -7 7 -17 12 -23 12 -6 0 -84 -109
-174 -242z"/>
<path d="M627 4202 c-15 -17 -6 -29 193 -227 183 -183 211 -207 225 -195 9 7
14 18 13 24 -2 6 -96 102 -209 214 -195 193 -206 202 -222 184z"/>
<path d="M14050 4205 c-6 -8 -10 -18 -8 -22 1 -4 96 -99 209 -211 195 -192
206 -202 222 -184 15 17 5 29 -191 225 -114 114 -210 207 -213 207 -4 0 -12
-7 -19 -15z"/>
<path d="M12325 4178 c-2 -7 -15 -121 -30 -253 -14 -132 -28 -259 -31 -281 -5
-38 -4 -42 20 -46 15 -3 26 -1 26 6 0 6 14 126 30 266 36 311 37 320 10 320
-11 0 -22 -6 -25 -12z"/>
<path d="M9741 4162 c-9 -17 15 -40 206 -202 194 -164 217 -180 231 -166 13
12 13 18 2 31 -16 20 -408 349 -420 353 -5 2 -13 -5 -19 -16z"/>
<path d="M12565 4147 c-2 -7 -13 -124 -25 -262 -11 -137 -22 -261 -23 -275 -3
-35 40 -42 47 -8 5 23 46 498 46 529 0 19 -39 33 -45 16z"/>
<path d="M7652 3814 c-84 -123 -155 -231 -158 -238 -3 -8 3 -19 14 -25 17 -9
36 15 180 226 147 215 160 237 144 249 -9 7 -19 13 -22 13 -3 0 -74 -101 -158
-225z"/>
<path d="M456 4011 c-16 -18 -6 -28 190 -211 170 -159 209 -192 223 -183 9 6
16 14 16 19 0 5 -93 95 -206 201 -197 183 -207 191 -223 174z"/>
<path d="M13881 4006 c-13 -15 -8 -20 265 -274 135 -126 142 -131 158 -113 16
18 7 27 -188 210 -112 105 -209 191 -214 191 -5 0 -15 -6 -21 -14z"/>
<path d="M3330 3979 c-129 -9 -236 -18 -237 -18 -2 -1 -3 -12 -3 -26 0 -24 2
-25 58 -20 85 8 468 35 492 35 15 0 20 7 20 25 0 30 8 30 -330 4z"/>
<path d="M9580 3985 c-11 -14 -10 -19 6 -34 57 -56 417 -371 423 -371 3 0 11
8 17 18 10 16 -15 41 -202 207 -118 105 -218 191 -223 193 -4 1 -14 -4 -21
-13z"/>
<path d="M16760 3979 c-129 -9 -236 -18 -237 -18 -2 -1 -3 -12 -3 -26 0 -24 2
-25 58 -20 85 8 468 35 492 35 15 0 20 7 20 25 0 30 8 30 -330 4z"/>
<path d="M7904 3738 c-65 -90 -142 -196 -172 -237 -48 -65 -52 -75 -39 -88 8
-9 19 -13 25 -9 5 3 85 109 177 236 137 190 165 234 155 245 -7 8 -16 15 -21
15 -4 0 -61 -73 -125 -162z"/>
<path d="M5405 3765 c-110 -23 -226 -48 -257 -55 -46 -9 -58 -15 -58 -30 0
-10 4 -21 9 -24 7 -5 505 95 548 109 20 7 3 45 -21 44 -11 0 -111 -20 -221
-44z"/>
<path d="M3370 3734 c-140 -7 -258 -13 -262 -13 -5 -1 -8 -13 -8 -27 0 -26 1
-26 58 -20 31 3 134 8 227 11 94 3 200 8 238 11 62 6 67 8 67 30 0 21 -4 24
-32 23 -18 -1 -148 -8 -288 -15z"/>
<path d="M16800 3735 c-135 -7 -253 -13 -262 -14 -18 -1 -26 -35 -10 -44 5 -4
381 11 585 23 4 0 7 11 7 25 0 22 -4 25 -37 23 -21 0 -148 -7 -283 -13z"/>
<path d="M5420 3514 c-157 -29 -286 -53 -287 -53 -2 -1 -3 -12 -3 -26 0 -14 1
-25 3 -25 35 4 579 108 582 112 3 3 2 14 -2 25 -8 19 -15 18 -293 -33z"/>
<path d="M11068 3373 c-15 -17 -5 -32 159 -233 96 -118 180 -216 187 -218 7
-2 18 3 24 10 8 11 -27 61 -159 223 -208 258 -191 240 -211 218z"/>
<path d="M4348 3253 c-10 -3 -18 -9 -18 -14 0 -6 48 -127 106 -269 105 -255
107 -258 130 -248 13 6 22 14 20 17 -2 3 -50 119 -106 256 -56 138 -105 253
-109 256 -3 3 -14 4 -23 2z"/>
<path d="M17773 3253 c-7 -2 -13 -10 -13 -17 0 -11 190 -480 207 -511 8 -13
12 -13 28 -1 18 13 14 25 -87 272 -58 142 -110 259 -114 260 -5 1 -15 0 -21
-3z"/>
<path d="M10871 3226 c-10 -11 22 -58 160 -238 95 -122 176 -227 181 -233 5
-6 15 -3 25 8 20 19 37 -8 -187 286 -80 105 -150 190 -156 190 -6 1 -17 -5
-23 -13z"/>
<path d="M4118 3173 c-10 -2 -18 -7 -18 -10 0 -11 202 -538 209 -546 15 -15
43 5 37 26 -11 43 -201 537 -206 536 -3 -1 -13 -3 -22 -6z"/>
<path d="M17548 3173 c-10 -2 -18 -8 -18 -11 0 -21 207 -552 215 -552 42 0 39
15 -66 294 -57 152 -106 275 -109 275 -3 -1 -13 -3 -22 -6z"/>
<path d="M13444 2943 c-71 -76 -158 -168 -193 -206 -62 -64 -64 -68 -47 -85
17 -16 21 -13 94 64 283 297 315 334 302 349 -7 8 -16 15 -20 15 -4 0 -65 -62
-136 -137z"/>
<path d="M6595 3046 c-17 -12 -11 -27 115 -252 73 -131 136 -243 140 -247 5
-5 17 -4 28 2 20 11 14 23 -115 254 -74 133 -138 245 -142 250 -4 4 -15 1 -26
-7z"/>
<path d="M8687 2799 c-156 -173 -186 -213 -177 -225 7 -7 16 -14 21 -14 4 0
92 93 195 206 148 164 185 210 177 222 -5 9 -14 17 -19 18 -5 2 -94 -92 -197
-207z"/>
<path d="M6378 2938 c-15 -12 -1 -42 119 -270 75 -142 141 -258 147 -258 42 1
36 19 -101 278 -75 144 -140 262 -143 262 -3 0 -13 -6 -22 -12z"/>
<path d="M167 2742 c-155 -155 -168 -171 -165 -201 3 -31 6 -28 187 153 159
160 183 187 172 200 -8 9 -16 16 -20 16 -3 0 -82 -76 -174 -168z"/>
<path d="M1993 2892 c-10 -17 12 -33 235 -165 237 -141 246 -145 260 -126 8
11 12 22 11 23 -13 11 -482 286 -488 286 -3 0 -11 -8 -18 -18z"/>
<path d="M13557 2702 c-198 -199 -207 -209 -190 -225 18 -16 29 -6 228 193
180 180 207 211 196 224 -8 9 -16 16 -20 16 -3 0 -100 -94 -214 -208z"/>
<path d="M15421 2892 c-10 -18 10 -32 237 -166 241 -142 247 -145 259 -123 6
12 11 22 10 23 -24 16 -468 275 -479 279 -11 4 -20 -1 -27 -13z"/>
<path d="M9043 2816 c-10 -14 -98 -108 -197 -210 -151 -157 -177 -188 -166
-201 7 -8 16 -15 20 -15 4 0 99 95 210 211 165 173 199 213 189 225 -17 20
-35 17 -56 -10z"/>
<path d="M1861 2692 c-10 -18 11 -34 240 -177 137 -87 251 -156 252 -154 2 2
8 11 15 20 11 15 -16 35 -228 168 -132 84 -247 154 -255 157 -7 3 -18 -3 -24
-14z"/>
<path d="M15291 2692 c-10 -19 9 -33 229 -172 133 -83 247 -153 254 -156 12
-5 34 32 24 40 -10 9 -475 299 -485 303 -6 3 -16 -4 -22 -15z"/>
<path d="M5610 2117 c-41 -40 -133 -128 -205 -195 -120 -114 -128 -123 -113
-139 16 -15 21 -12 80 40 35 31 128 119 208 195 128 123 143 141 131 156 -7 9
-16 16 -20 16 -3 0 -40 -33 -81 -73z"/>
<path d="M5655 1819 c-115 -104 -211 -195 -213 -203 -2 -7 3 -18 11 -24 10 -9
53 24 198 154 255 229 255 229 240 248 -8 9 -16 16 -20 15 -3 0 -100 -86 -216
-190z"/>
<path d="M9795 1980 c-18 -20 -48 7 356 -327 43 -35 81 -63 87 -63 8 0 22 22
22 35 0 2 -101 87 -224 189 -214 176 -225 184 -241 166z"/>
<path d="M1133 1959 l-22 -8 35 -108 c18 -59 57 -182 85 -273 29 -91 56 -169
60 -174 5 -6 16 -6 27 0 18 8 14 25 -69 288 -49 154 -90 280 -92 282 -1 1 -12
-2 -24 -7z"/>
<path d="M14563 1959 c-13 -5 -23 -10 -23 -11 0 -2 40 -127 88 -278 66 -206
92 -276 105 -278 9 -2 20 3 23 11 4 11 -159 554 -170 563 0 1 -11 -2 -23 -7z"/>
<path d="M7650 1926 c0 -3 -38 -125 -85 -272 -46 -147 -84 -269 -82 -270 6 -5
47 -15 47 -11 0 2 38 125 85 272 47 148 84 269 82 270 -7 7 -47 16 -47 11z"/>
<path d="M884 1862 c-13 -9 169 -537 185 -536 27 2 31 5 31 18 0 7 -40 127
-88 267 -85 244 -99 272 -128 251z"/>
<path d="M14314 1862 c-15 -9 167 -537 184 -536 28 2 32 5 32 17 0 6 -40 127
-89 267 -85 245 -99 272 -127 252z"/>
<path d="M3580 1833 c0 -54 21 -459 26 -510 5 -48 8 -53 30 -53 24 0 24 1 19
68 -6 82 -25 448 -25 491 0 26 -4 31 -25 31 -21 0 -25 -5 -25 -27z"/>
<path d="M7895 1848 c-62 -166 -184 -536 -181 -545 3 -7 14 -13 23 -13 15 0
27 24 55 108 20 59 62 183 94 275 49 141 56 170 44 177 -20 13 -30 12 -35 -2z"/>
<path d="M17010 1828 c0 -64 21 -513 26 -535 3 -16 12 -23 28 -23 21 0 23 3
20 48 -7 84 -24 451 -24 497 0 41 -2 45 -25 45 -22 0 -25 -5 -25 -32z"/>
<path d="M3347 1548 c12 -156 22 -284 22 -285 1 -2 12 -3 26 -3 24 0 24 1 19
63 -3 34 -13 161 -22 282 l-17 220 -25 3 -26 3 23 -283z"/>
<path d="M16754 1798 c3 -18 13 -136 21 -263 19 -279 19 -277 48 -273 18 2 22
9 20 33 -2 17 -10 129 -18 250 -21 288 -20 285 -51 285 -23 0 -24 -3 -20 -32z"/>
<path d="M9641 1771 c-9 -16 17 -40 211 -191 163 -128 225 -171 235 -164 8 5
15 14 16 19 1 10 -431 355 -445 355 -4 0 -12 -8 -17 -19z"/>
<path d="M12292 1685 c-139 -34 -255 -65 -258 -68 -10 -10 7 -49 19 -44 7 2
130 33 275 68 246 60 262 65 262 86 0 17 -6 23 -22 22 -13 -1 -137 -29 -276
-64z"/>
<path d="M12355 1446 c-256 -57 -280 -63 -277 -81 2 -11 6 -22 8 -24 4 -4 499
99 557 116 19 5 21 45 2 49 -5 1 -136 -26 -290 -60z"/>
<path d="M8812 743 c-155 -229 -160 -238 -140 -251 12 -9 23 -11 27 -5 91 132
312 465 309 467 -1 1 -10 7 -20 14 -14 12 -35 -14 -176 -225z"/>
<path d="M9017 605 c-92 -129 -167 -239 -167 -244 0 -14 32 -23 43 -12 6 6 84
113 173 238 143 201 160 229 146 241 -9 6 -19 12 -22 12 -4 0 -82 -106 -173
-235z"/>
<path d="M4593 822 c-9 -6 9 -80 70 -287 45 -153 87 -280 92 -282 6 -1 16 1
24 6 12 8 3 50 -57 253 -40 135 -77 261 -83 281 -10 36 -22 44 -46 29z"/>
<path d="M2140 805 c-10 -12 -10 -18 0 -30 23 -27 401 -380 412 -384 10 -3 28
16 28 30 0 7 -407 392 -420 397 -4 1 -13 -4 -20 -13z"/>
<path d="M15561 806 c-11 -13 6 -31 377 -380 40 -39 43 -39 60 -22 16 17 14
20 -43 73 -33 31 -128 121 -211 200 -83 78 -156 143 -161 143 -6 0 -16 -6 -22
-14z"/>
<path d="M6652 715 c-139 -34 -254 -64 -257 -67 -9 -8 8 -49 19 -45 6 2 128
33 271 67 143 34 264 66 268 70 14 12 -5 40 -27 39 -11 -1 -135 -29 -274 -64z"/>
<path d="M218 722 c-209 -43 -218 -46 -218 -69 0 -13 6 -23 13 -23 6 1 106 20
222 43 175 36 210 46 213 61 2 10 0 21 -5 26 -4 4 -106 -13 -225 -38z"/>
<path d="M13590 710 c-222 -45 -276 -60 -278 -73 -2 -9 3 -20 11 -23 17 -6
537 95 551 107 6 5 6 16 0 27 -9 18 -21 16 -284 -38z"/>
<path d="M4361 739 c-15 -6 -21 -14 -17 -25 3 -8 43 -130 88 -269 45 -140 87
-255 93 -255 40 1 37 15 -52 287 -87 267 -88 271 -112 262z"/>
<path d="M17776 731 c-3 -4 33 -126 79 -270 47 -144 85 -263 85 -266 0 -8 24
-6 37 3 10 6 -8 73 -72 271 -47 145 -85 265 -85 267 0 8 -39 4 -44 -5z"/>
<path d="M1976 611 c-16 -18 -8 -27 196 -209 158 -141 216 -187 226 -180 6 6
12 16 12 23 0 6 -78 81 -172 166 -95 85 -189 169 -209 186 -35 32 -37 32 -53
14z"/>
<path d="M15403 610 c-12 -18 6 -36 199 -209 161 -144 216 -187 225 -179 7 6
13 16 13 22 0 10 -412 386 -422 386 -2 0 -9 -9 -15 -20z"/>
<path d="M11100 599 c-7 -11 -10 -22 -8 -24 10 -10 470 -306 482 -311 8 -3 19
3 25 14 9 17 -12 34 -226 173 -130 85 -242 157 -249 162 -8 5 -17 0 -24 -14z"/>
<path d="M6718 477 c-240 -53 -278 -64 -278 -79 0 -10 6 -21 13 -24 7 -2 137
23 290 56 153 33 279 60 281 60 2 0 1 11 -2 25 -2 14 -9 24 -16 24 -6 -1 -136
-29 -288 -62z"/>
<path d="M420 500 c-19 -4 -122 -23 -228 -41 -185 -31 -192 -33 -192 -56 0
-12 6 -23 13 -23 22 0 470 79 474 84 9 8 -8 46 -20 45 -7 -1 -28 -5 -47 -9z"/>
<path d="M13640 464 c-135 -23 -260 -46 -277 -49 -27 -5 -33 -11 -33 -30 0
-14 1 -25 3 -25 12 0 581 100 583 103 8 7 -9 47 -20 46 -6 -1 -121 -21 -256
-45z"/>
<path d="M10971 372 c-8 -15 21 -36 226 -162 130 -80 242 -146 248 -148 18 -4
28 30 13 43 -21 19 -457 285 -468 285 -5 0 -14 -8 -19 -18z"/>
</g>
</svg>
