<?xml version="1.0" standalone="no"?>
<!DOCTYPE svg PUBLIC "-//W3C//DTD SVG 20010904//EN"
 "http://www.w3.org/TR/2001/REC-SVG-20010904/DTD/svg10.dtd">
<svg version="1.0" xmlns="http://www.w3.org/2000/svg"
 width="1125.000000pt" height="900.000000pt" viewBox="0 0 1125.000000 900.000000"
 preserveAspectRatio="xMidYMid meet">
<metadata>
Created by potrace 1.13, written by Peter Selinger 2001-2015
</metadata>
<g transform="translate(0.000000,900.000000) scale(0.100000,-0.100000)"
fill="#000000" stroke="none">
<path d="M0 4500 l0 -4500 5625 0 5625 0 0 4500 0 4500 -5625 0 -5625 0 0
-4500z m990 4453 c0 -4 -14 -31 -32 -60 l-32 -53 -443 0 -443 0 0 53 c0 30 3
57 7 60 9 9 943 9 943 0z m2870 1 c0 -3 -15 -30 -32 -60 l-33 -53 -1399 -1
-1398 0 16 25 c9 14 24 37 33 53 10 15 22 30 28 34 12 9 2785 11 2785 2z
m3093 -1 c3 -5 -10 -32 -29 -60 l-34 -53 -1510 0 -1511 0 12 23 c7 12 23 39
36 60 l23 37 1505 0 c827 0 1506 -3 1508 -7z m2857 1 c0 -3 -15 -30 -32 -60
l-33 -53 -1387 -1 c-764 0 -1388 2 -1388 5 0 2 16 29 35 60 l36 55 1384 0
c762 0 1385 -3 1385 -6z m1398 -56 l3 -58 -696 0 -696 0 12 23 c7 12 23 39 36
60 l23 37 658 -2 657 -3 3 -57z m-10985 -370 c-86 -134 -162 -250 -169 -258
-12 -12 -14 26 -14 243 l0 257 170 0 169 0 -156 -242z m2907 235 c0 -5 -109
-186 -243 -403 l-242 -395 -1300 0 -1300 0 -3 77 c-2 47 2 87 9 100 7 13 100
159 207 326 l196 302 1338 0 c736 0 1338 -3 1338 -7z m2728 -30 c-12 -21 -122
-202 -244 -403 l-221 -365 -1337 -3 c-735 -1 -1336 0 -1336 2 0 2 64 109 143
237 79 129 190 309 246 402 l103 167 1335 0 1335 0 -24 -37z m2842 0 c-12 -21
-123 -203 -247 -405 l-225 -368 -1379 0 c-758 0 -1379 3 -1379 6 0 3 109 186
242 405 l242 399 1384 0 1384 0 -22 -37z m2508 -311 l-3 -349 -38 -56 -37 -57
-1410 0 c-776 0 -1410 3 -1410 7 0 3 109 186 243 404 l242 398 1208 1 1208 0
-3 -348z m-9808 -528 c0 -4 -102 -177 -228 -385 l-227 -378 -452 -1 -453 0 0
378 c0 208 3 382 7 385 8 9 1353 9 1353 1z m2498 -379 l-231 -385 -1324 0
-1324 0 12 22 c10 19 213 356 388 646 l62 102 1324 0 1324 0 -231 -385z m3310
376 c-1 -4 -104 -177 -228 -384 l-225 -376 -1507 -1 -1507 0 231 385 231 385
1504 0 c841 0 1503 -4 1501 -9z m2800 0 c-1 -4 -104 -177 -228 -384 l-225
-376 -1363 -1 c-1334 0 -1362 0 -1353 19 12 22 416 695 437 729 l14 22 1361 0
c760 0 1359 -4 1357 -9z m1200 -159 l3 -164 -31 -28 c-38 -35 -38 -55 0 -90
l30 -28 0 -146 0 -146 -790 0 -791 0 12 23 c15 27 385 645 422 705 l27 42 558
-2 557 -3 3 -163z m-8358 -678 c0 -3 -84 -142 -187 -310 l-188 -304 -1215 2
-1215 3 0 250 0 250 35 57 35 58 1368 0 c752 0 1367 -3 1367 -6z m2572 -121
c-44 -71 -129 -210 -191 -310 l-113 -183 -1284 0 c-707 0 -1283 3 -1281 8 13
20 351 570 363 590 l14 22 1285 0 1285 0 -78 -127z m2834 100 c-9 -16 -93
-154 -188 -308 l-173 -280 -1348 -3 c-741 -1 -1347 1 -1347 5 0 3 84 143 186
310 l187 303 1349 0 1349 0 -15 -27z m2954 -52 c0 -44 -5 -92 -10 -107 -6 -14
-67 -118 -136 -230 l-126 -204 -1485 0 c-816 0 -1483 4 -1481 8 2 5 86 144
188 310 l185 301 1433 1 1432 0 0 -79z m-2 -388 l-3 -148 -92 -3 c-51 -1 -93
0 -93 4 0 12 175 293 183 294 4 0 6 -66 5 -147z m-9790 -235 c-8 -13 -101
-159 -208 -326 l-193 -302 -486 2 -486 3 0 140 0 140 445 5 445 5 3 27 3 28
-448 2 -448 3 -3 134 c-1 74 0 141 2 148 4 10 139 13 697 13 l691 0 -14 -22z
m2772 15 c0 -5 -83 -150 -184 -323 l-184 -315 -1366 -3 -1365 -2 146 227 c80
126 173 272 207 325 l61 97 1343 1 c738 0 1342 -3 1342 -7z m3113 -26 c-10
-19 -94 -165 -188 -325 l-170 -292 -1524 0 c-1374 0 -1523 2 -1517 16 5 14
252 441 333 577 l34 57 1525 0 1524 0 -17 -33z m2879 1 c-11 -18 -93 -159
-182 -313 -89 -154 -168 -286 -174 -293 -9 -9 -299 -12 -1409 -10 l-1397 3
187 322 188 323 1403 0 1404 0 -20 -32z m1023 -118 l0 -145 -252 -3 -253 -2 0
-30 0 -30 253 -2 252 -3 0 -140 0 -140 -652 -3 c-359 -1 -653 0 -653 3 0 3 84
149 186 325 l187 320 466 -2 466 -3 0 -145z m-10685 -567 c0 -16 -456 -767
-468 -771 -9 -3 -12 78 -12 381 0 211 3 387 7 390 9 10 473 9 473 0z m2508 -7
c-2 -7 -104 -182 -228 -389 l-225 -376 -1217 -1 c-670 0 -1218 3 -1218 6 0 3
104 179 231 390 l230 384 1215 0 c1018 0 1215 -2 1212 -14z m2800 0 c-2 -7
-104 -182 -228 -389 l-225 -376 -625 -3 c-344 -2 -957 -1 -1362 2 l-738 5 232
388 233 387 1358 0 c1138 0 1358 -2 1355 -14z m2850 -10 c-7 -13 -112 -188
-233 -390 l-220 -366 -1388 0 -1388 0 13 23 c7 13 112 189 232 390 l219 367
1389 0 1389 0 -13 -24z m2530 -368 l2 -388 -1455 0 -1456 0 13 24 c7 13 112
188 233 390 l220 366 1220 -2 1220 -3 3 -387z m-9760 -482 c-7 -13 -105 -177
-218 -365 l-205 -341 -490 2 -490 3 -3 168 -2 167 280 0 280 0 0 35 0 35 -280
0 -280 0 0 160 0 160 710 0 711 0 -13 -24z m2617 -3 c-9 -16 -107 -179 -218
-363 l-202 -335 -1268 -3 c-1065 -2 -1268 0 -1265 12 2 7 98 171 213 364 l210
351 1273 1 1273 0 -16 -27z m3135 21 c0 -3 -97 -167 -216 -365 l-215 -359
-1525 0 -1525 0 13 24 c7 13 105 177 218 365 l205 341 1522 0 c838 0 1523 -3
1523 -6z m2778 -18 c-7 -13 -105 -177 -218 -365 l-205 -341 -1353 0 c-1240 0
-1354 1 -1348 16 7 17 403 681 419 702 7 9 292 12 1364 12 l1354 0 -13 -24z
m1232 -136 l0 -160 -420 0 -420 0 0 -35 0 -35 420 0 420 0 -2 -167 -3 -168
-782 -3 c-561 -1 -783 1 -783 9 0 6 96 170 212 365 l213 354 572 0 573 0 0
-160z m-8390 -636 c0 -3 -113 -186 -252 -405 l-251 -399 -1139 0 -1138 0 0
304 c0 189 4 315 11 332 5 16 31 61 56 101 l46 73 1334 0 c733 0 1333 -3 1333
-6z m2708 -3 c-1 -5 -115 -187 -253 -405 l-250 -396 -1317 0 -1317 0 152 243
c84 133 199 315 256 405 l103 162 1315 0 c744 0 1313 -4 1311 -9z m2830 -15
c-7 -13 -121 -195 -253 -404 l-240 -382 -1384 0 -1383 0 16 24 c8 13 111 177
229 363 117 186 225 357 240 381 l27 42 1380 0 1381 0 -13 -24z m2847 -101 l0
-120 -180 -282 -180 -283 -1453 0 c-1160 0 -1452 3 -1446 13 25 42 470 747
486 770 l19 27 1377 -2 1377 -3 0 -120z m5 -465 l0 -220 -146 0 -146 0 21 33
c12 17 74 116 138 219 65 103 121 188 126 188 4 0 7 -99 7 -220z m-9790 -287
c0 -5 -85 -141 -188 -303 l-189 -295 -501 -3 -502 -2 0 120 c0 119 0 121 25
132 46 21 46 95 0 116 -24 11 -25 14 -25 120 0 60 3 112 7 115 9 10 1373 9
1373 0z m2690 0 c0 -5 -83 -141 -184 -303 l-183 -295 -1312 -3 c-732 -1 -1311
2 -1309 7 1 4 88 142 192 305 l189 296 1304 0 c716 0 1303 -3 1303 -7z m3140
2 c0 -3 -84 -140 -186 -305 l-186 -300 -1529 0 c-841 0 -1529 2 -1529 5 0 3
84 140 186 305 l186 300 1529 0 c841 0 1529 -2 1529 -5z m2968 -3 c-1 -5 -86
-142 -187 -305 l-184 -297 -1448 0 -1448 0 175 283 c97 155 182 292 190 305
l14 22 1446 0 c795 0 1444 -4 1442 -8z m990 -299 l2 -303 -645 0 -645 0 25 40
c14 22 96 154 181 293 86 138 161 258 166 265 8 9 108 12 462 10 l451 -3 3
-302z m-10722 -400 c-9 -16 -100 -170 -203 -343 -166 -277 -192 -315 -213
-315 l-25 0 -3 343 -2 342 230 0 231 0 -15 -27z m2574 20 c0 -4 -91 -159 -202
-345 l-202 -338 -1244 0 c-786 0 -1242 4 -1240 10 2 5 93 160 203 345 l200
335 1243 0 c683 0 1242 -3 1242 -7z m2563 -338 l-206 -345 -1338 0 c-783 0
-1339 4 -1339 9 0 5 90 160 200 345 l201 336 1343 0 1344 0 -205 -345z m3014
273 c-24 -40 -117 -196 -206 -345 l-163 -273 -1384 0 c-782 0 -1384 4 -1384 9
0 5 90 160 201 345 l200 336 1389 0 1390 0 -43 -72z m2571 -270 l-3 -343
-1429 -3 c-1276 -2 -1428 0 -1422 13 3 9 94 164 202 345 l196 330 1229 0 1229
0 -2 -342z m-9834 -420 c-4 -7 -108 -169 -232 -360 l-225 -348 -439 0 -439 0
3 148 3 147 343 3 342 2 0 30 0 30 -342 2 -343 3 -3 165 c-1 90 0 170 2 177 4
10 137 13 671 13 530 0 665 -3 659 -12z m2699 -37 c-15 -26 -113 -188 -218
-359 l-190 -311 -1337 -1 -1337 0 151 233 c83 127 189 289 234 360 l83 127
1321 0 1322 0 -29 -49z m3045 40 c-1 -4 -100 -166 -218 -359 l-215 -352 -1473
0 -1474 0 29 49 c15 26 114 188 218 359 l190 311 1473 1 c811 0 1472 -4 1470
-9z m2910 -13 c-8 -13 -104 -169 -213 -348 -109 -179 -203 -331 -209 -338 -9
-9 -303 -12 -1429 -10 l-1417 3 196 320 c107 176 206 337 220 358 l24 37 1421
0 1421 0 -14 -22z m1177 -158 l0 -175 -357 -3 -358 -2 0 -30 0 -30 358 -2 357
-3 3 -147 3 -148 -766 0 c-421 0 -765 2 -765 5 0 4 98 166 217 361 l218 354
545 -2 545 -3 0 -175z m-8597 -615 c-2 -8 -113 -201 -248 -429 l-245 -416
-1037 0 -1038 0 0 384 c0 387 3 420 37 458 15 17 90 18 1275 18 1097 0 1259
-2 1256 -15z m2712 6 c0 -4 -111 -197 -248 -427 l-247 -419 -1318 -3 c-724 -1
-1317 0 -1317 2 0 7 483 822 498 838 14 17 92 18 1323 18 733 0 1309 -4 1309
-9z m2913 2 c3 -5 -107 -197 -243 -428 l-249 -420 -1420 -3 c-782 -1 -1421 0
-1421 3 0 10 494 840 504 847 14 10 2823 10 2829 1z m2975 -58 l3 -60 -133
-225 c-74 -124 -172 -289 -218 -367 l-85 -142 -1483 -1 -1482 0 14 22 c8 13
116 196 241 408 125 212 233 395 241 407 l14 23 1443 -3 1442 -2 3 -60z m2
-500 l0 -295 -180 0 c-99 0 -180 2 -180 4 0 4 302 511 336 564 8 12 17 22 19
22 3 0 5 -133 5 -295z"/>
<path d="M720 8370 l0 -30 760 0 760 0 0 30 0 30 -760 0 -760 0 0 -30z"/>
<path d="M6290 8370 l0 -30 755 0 755 0 0 30 0 30 -755 0 -755 0 0 -30z"/>
<path d="M1720 7485 l0 -35 753 2 752 3 0 30 0 30 -752 3 -753 2 0 -35z"/>
<path d="M7630 7485 l0 -35 755 0 755 0 0 35 0 35 -755 0 -755 0 0 -35z"/>
<path d="M3220 6730 l0 -30 755 0 755 0 0 30 0 30 -755 0 -755 0 0 -30z"/>
<path d="M8820 6755 l0 -35 753 2 752 3 0 30 0 30 -752 3 -753 2 0 -35z"/>
<path d="M4864 6076 c-3 -8 -4 -23 -2 -33 3 -17 39 -18 756 -21 l752 -2 0 35
0 35 -750 0 c-645 0 -751 -2 -756 -14z"/>
<path d="M930 5245 l0 -35 565 0 565 0 0 35 0 35 -565 0 -565 0 0 -35z"/>
<path d="M6310 5275 l0 -35 756 0 755 0 -3 33 -3 32 -752 3 -753 2 0 -35z"/>
<path d="M4662 4443 l3 -28 755 0 755 0 3 28 3 27 -761 0 -761 0 3 -27z"/>
<path d="M3180 3610 l0 -30 755 0 755 0 0 30 0 30 -755 0 -755 0 0 -30z"/>
<path d="M8860 3630 l0 -30 755 0 755 0 0 30 0 30 -755 0 -755 0 0 -30z"/>
<path d="M1810 2825 l0 -35 753 2 752 3 0 30 0 30 -752 3 -753 2 0 -35z"/>
<path d="M7800 2850 l0 -30 755 0 755 0 0 30 0 30 -755 0 -755 0 0 -30z"/>
<path d="M787 2123 c-4 -3 -7 -17 -7 -30 l0 -23 701 0 700 0 -3 28 -3 27 -691
3 c-380 1 -694 -1 -697 -5z"/>
<path d="M6290 2120 l0 -30 755 0 755 0 0 30 0 30 -755 0 -755 0 0 -30z"/>
<path d="M4644 1386 c-3 -8 -4 -23 -2 -33 3 -17 39 -18 756 -21 l752 -2 0 35
0 35 -750 0 c-645 0 -751 -2 -756 -14z"/>
<path d="M2940 455 l0 -35 753 2 752 3 0 30 0 30 -752 3 -753 2 0 -35z"/>
<path d="M8770 480 l0 -30 755 0 755 0 0 30 0 30 -755 0 -755 0 0 -30z"/>
</g>
</svg>
