<?xml version="1.0" standalone="no"?>
<!DOCTYPE svg PUBLIC "-//W3C//DTD SVG 20010904//EN"
 "http://www.w3.org/TR/2001/REC-SVG-20010904/DTD/svg10.dtd">
<svg version="1.0" xmlns="http://www.w3.org/2000/svg"
 width="1125.000000pt" height="900.000000pt" viewBox="0 0 1125.000000 900.000000"
 preserveAspectRatio="xMidYMid meet">
<metadata>
Created by potrace 1.13, written by Peter Selinger 2001-2015
</metadata>
<g transform="translate(0.000000,900.000000) scale(0.100000,-0.100000)"
fill="#000000" stroke="none">
<path d="M0 4500 l0 -4500 5625 0 5625 0 0 4500 0 4500 -5625 0 -5625 0 0
-4500z m6485 4443 c32 -15 39 -16 68 -3 27 13 212 15 1302 15 l1270 0 3 -25
c5 -33 40 -70 67 -70 32 0 73 36 77 68 l3 27 368 3 367 2 -7 -27 c-10 -40 -6
-63 13 -84 23 -25 78 -25 104 1 21 21 27 74 10 85 -36 22 27 25 533 23 l542
-3 3 -342 2 -343 -325 0 -325 0 0 -35 0 -35 325 0 325 0 0 -129 0 -130 -29
-21 c-53 -37 -53 -98 -1 -125 l30 -16 -2 -1432 -3 -1432 -912 -3 -913 -2 -2
232 -3 233 -30 0 -30 0 -3 -232 -2 -233 -310 0 -310 0 0 -30 0 -30 1258 -2
1257 -3 3 -618 c2 -582 1 -618 -15 -623 -53 -16 -68 -30 -71 -68 -4 -45 17
-73 57 -78 l26 -3 0 -600 0 -600 -877 -3 -878 -2 0 240 0 240 -30 0 -30 0 0
-240 0 -240 -350 0 -350 0 0 -30 0 -30 1258 -2 1257 -3 3 -307 2 -307 -30 -16
c-53 -27 -53 -103 0 -130 l30 -16 -2 -682 -3 -682 -5580 0 -5580 0 0 1070 0
1070 678 3 677 2 0 30 0 30 -677 2 -678 3 -3 343 -2 342 24 10 c64 24 69 97
10 132 l-34 20 2 872 3 871 493 3 492 2 0 30 0 30 -492 2 -493 3 -3 1643 -2
1642 1270 0 1270 0 0 35 0 35 -1263 0 -1264 0 -6 336 c-4 185 -4 340 -1 345 3
5 1398 9 3204 9 2994 0 3202 -1 3235 -17z"/>
<path d="M7673 8928 c-68 -33 -39 -138 38 -138 28 0 69 44 69 73 0 51 -61 88
-107 65z"/>
<path d="M720 8810 c-43 -43 -11 -120 50 -120 38 0 70 32 70 70 0 38 -32 70
-70 70 -17 0 -39 -9 -50 -20z"/>
<path d="M4911 8734 c-12 -15 -21 -34 -21 -44 0 -10 9 -29 21 -44 41 -52 122
-23 122 44 0 67 -81 96 -122 44z"/>
<path d="M4390 8450 l0 -230 -265 0 -265 0 0 -30 0 -30 1470 0 1470 0 0 30 0
30 -1175 0 -1175 0 0 230 0 230 -30 0 -30 0 0 -230z"/>
<path d="M10926 8639 c-31 -24 -36 -77 -8 -102 50 -45 122 -17 122 48 0 36
-36 75 -70 75 -10 0 -29 -9 -44 -21z"/>
<path d="M2982 8614 c-16 -11 -22 -25 -22 -54 0 -29 6 -43 22 -54 51 -36 118
-5 118 54 0 59 -67 90 -118 54z"/>
<path d="M2081 8534 c-12 -15 -21 -35 -21 -46 0 -27 45 -68 75 -68 30 0 75 41
75 68 0 35 -38 72 -75 72 -24 0 -39 -7 -54 -26z"/>
<path d="M5553 8515 c-70 -49 0 -160 76 -120 48 24 55 72 16 110 -27 28 -61
32 -92 10z"/>
<path d="M7060 8370 c-28 -28 -27 -84 2 -104 51 -36 118 -5 118 54 0 17 -9 39
-20 50 -11 11 -33 20 -50 20 -17 0 -39 -9 -50 -20z"/>
<path d="M3570 8360 c-26 -26 -26 -81 -2 -103 44 -40 122 -7 122 51 0 60 -78
94 -120 52z"/>
<path d="M8830 8343 c-55 -20 -68 -87 -24 -122 15 -12 34 -21 44 -21 33 0 70
39 70 74 0 46 -49 84 -90 69z"/>
<path d="M9719 8212 c-28 -23 -30 -73 -4 -102 25 -27 78 -27 105 2 26 28 26
58 -1 92 -25 31 -66 35 -100 8z"/>
<path d="M8041 8134 c-12 -15 -21 -34 -21 -44 0 -34 39 -70 75 -70 36 0 75 36
75 70 0 34 -39 70 -75 70 -24 0 -39 -7 -54 -26z"/>
<path d="M1657 7942 c-40 -44 -7 -122 51 -122 60 0 94 78 52 120 -26 26 -81
26 -103 2z"/>
<path d="M960 7823 c-51 -19 -68 -85 -30 -123 61 -61 159 32 103 98 -20 23
-50 33 -73 25z"/>
<path d="M4910 7823 c-51 -19 -68 -85 -30 -123 61 -61 159 32 103 98 -20 23
-50 33 -73 25z"/>
<path d="M6255 7818 c-50 -27 -59 -75 -20 -113 29 -30 64 -32 96 -7 59 48 -9
157 -76 120z"/>
<path d="M3210 7800 c-47 -47 -15 -123 51 -123 63 0 90 72 44 118 -29 30 -68
32 -95 5z"/>
<path d="M2360 7730 c-24 -24 -26 -67 -4 -98 11 -16 25 -22 54 -22 44 0 70 26
70 72 0 58 -78 90 -120 48z"/>
<path d="M10561 7584 c-12 -15 -21 -34 -21 -44 0 -34 39 -70 75 -70 36 0 75
36 75 70 0 34 -39 70 -75 70 -24 0 -39 -7 -54 -26z"/>
<path d="M5660 7520 c-43 -43 -10 -120 52 -120 59 0 93 84 50 123 -25 23 -78
21 -102 -3z"/>
<path d="M7100 7533 c-51 -19 -68 -85 -30 -123 61 -61 159 33 103 98 -20 23
-50 33 -73 25z"/>
<path d="M4086 7479 c-36 -28 -36 -80 0 -108 15 -12 34 -21 44 -21 34 0 70 39
70 75 0 36 -36 75 -70 75 -10 0 -29 -9 -44 -21z"/>
<path d="M9395 7475 c-30 -30 -31 -54 -4 -89 15 -19 30 -26 54 -26 37 0 75 37
75 72 0 27 -45 68 -75 68 -14 0 -37 -11 -50 -25z"/>
<path d="M7660 7240 l0 -230 -300 0 -300 0 0 -35 0 -35 1580 0 1580 0 0 35 0
35 -1250 0 -1250 0 0 230 0 230 -30 0 -30 0 0 -230z"/>
<path d="M8295 7430 c-42 -46 -10 -120 51 -120 35 0 74 37 74 70 0 10 -9 29
-21 44 -26 33 -77 36 -104 6z"/>
<path d="M1765 7245 c-39 -39 -32 -86 17 -111 59 -30 122 27 99 89 -19 51 -77
62 -116 22z"/>
<path d="M673 7230 c-46 -19 -57 -83 -20 -118 48 -45 117 -14 117 51 0 51 -50
86 -97 67z"/>
<path d="M2680 7110 c-45 -45 -11 -120 54 -120 25 0 39 7 50 22 36 51 5 118
-54 118 -17 0 -39 -9 -50 -20z"/>
<path d="M3439 7022 c-15 -13 -22 -30 -22 -51 0 -66 76 -98 123 -51 27 27 25
66 -5 95 -29 30 -64 32 -96 7z"/>
<path d="M6083 6940 c-48 -19 -58 -87 -17 -119 53 -41 114 -13 114 52 0 51
-50 86 -97 67z"/>
<path d="M10605 6938 c-28 -16 -35 -28 -35 -65 0 -41 42 -77 80 -68 58 14 78
78 35 120 -26 27 -49 31 -80 13z"/>
<path d="M4476 6769 c-36 -28 -36 -80 0 -108 15 -12 34 -21 44 -21 34 0 70 39
70 75 0 36 -36 75 -70 75 -10 0 -29 -9 -44 -21z"/>
<path d="M5365 6765 c-14 -13 -25 -36 -25 -50 0 -28 40 -75 64 -75 80 0 110
107 39 139 -36 16 -51 14 -78 -14z"/>
<path d="M431 6644 c-12 -15 -21 -34 -21 -44 0 -34 39 -70 75 -70 36 0 75 36
75 70 0 34 -39 70 -75 70 -24 0 -39 -7 -54 -26z"/>
<path d="M1410 6435 l0 -235 -300 0 -300 0 0 -35 0 -35 1485 0 1485 0 0 35 0
35 -1155 0 -1155 0 0 235 0 235 -30 0 -30 0 0 -235z"/>
<path d="M9085 6645 c-14 -13 -25 -36 -25 -50 0 -28 40 -75 64 -75 78 0 109
107 40 139 -37 16 -52 14 -79 -14z"/>
<path d="M2179 6562 c-28 -23 -30 -73 -4 -102 25 -27 78 -27 105 2 26 28 26
58 -1 92 -25 31 -66 35 -100 8z"/>
<path d="M3166 6469 c-50 -39 -23 -119 42 -121 43 -1 72 26 72 69 0 65 -61 93
-114 52z"/>
<path d="M6433 6458 c-29 -14 -46 -61 -32 -92 11 -24 47 -46 75 -46 23 0 64
47 64 73 0 51 -61 88 -107 65z"/>
<path d="M7907 6420 c-37 -29 -37 -80 -1 -109 15 -12 34 -21 44 -21 33 0 70
39 70 74 0 60 -66 93 -113 56z"/>
<path d="M10885 6395 c-30 -30 -31 -54 -4 -89 15 -19 30 -26 54 -26 36 0 75
36 75 70 0 10 -9 29 -21 44 -27 34 -71 35 -104 1z"/>
<path d="M10083 6370 c-46 -19 -57 -83 -20 -118 47 -44 117 -13 117 52 0 50
-50 84 -97 66z"/>
<path d="M7150 6260 c-11 -11 -20 -33 -20 -50 0 -17 9 -39 20 -50 42 -42 120
-12 120 48 0 66 -74 98 -120 52z"/>
<path d="M3997 6130 c-20 -16 -27 -30 -27 -56 0 -68 68 -97 115 -49 63 63 -18
160 -88 105z"/>
<path d="M4901 6094 c-12 -15 -21 -34 -21 -44 0 -34 39 -70 75 -70 36 0 75 36
75 70 0 34 -39 70 -75 70 -24 0 -39 -7 -54 -26z"/>
<path d="M9426 6059 c-19 -15 -26 -30 -26 -54 0 -36 36 -75 70 -75 34 0 70 39
70 75 0 36 -36 75 -70 75 -10 0 -29 -9 -44 -21z"/>
<path d="M5730 6010 c-11 -11 -20 -33 -20 -50 0 -17 9 -39 20 -50 11 -11 33
-20 50 -20 17 0 39 9 50 20 11 11 20 33 20 50 0 17 -9 39 -20 50 -11 11 -33
20 -50 20 -17 0 -39 -9 -50 -20z"/>
<path d="M8619 5922 c-15 -13 -22 -30 -22 -51 0 -66 76 -98 123 -51 27 27 25
66 -5 95 -29 30 -64 32 -96 7z"/>
<path d="M156 5868 c-36 -51 -5 -118 54 -118 59 0 90 67 54 118 -11 16 -25 22
-54 22 -29 0 -43 -6 -54 -22z"/>
<path d="M3435 5818 c-50 -27 -59 -75 -20 -113 42 -43 106 -23 120 36 12 48
-57 101 -100 77z"/>
<path d="M2296 5759 c-50 -39 -22 -122 42 -122 66 0 98 78 50 123 -28 26 -58
26 -92 -1z"/>
<path d="M6481 5704 c-27 -35 -26 -59 4 -89 33 -34 77 -33 104 1 12 15 21 34
21 44 0 34 -39 70 -75 70 -24 0 -39 -7 -54 -26z"/>
<path d="M10490 5703 c-15 -19 -19 -35 -15 -53 14 -62 90 -79 128 -28 54 73
-56 153 -113 81z"/>
<path d="M1420 5690 c-24 -24 -26 -67 -4 -98 11 -16 25 -22 54 -22 29 0 43 6
54 22 36 51 5 118 -54 118 -17 0 -39 -9 -50 -20z"/>
<path d="M4498 5458 l-3 -223 -287 -3 -288 -2 0 -30 0 -30 1515 0 1515 0 0 30
0 30 -1195 0 -1195 0 0 225 0 225 -30 0 -30 0 -2 -222z"/>
<path d="M4035 5525 c-48 -47 -19 -115 49 -115 68 0 96 79 44 123 -28 24 -65
21 -93 -8z"/>
<path d="M5106 5478 c-50 -71 43 -159 104 -98 26 26 26 81 2 103 -28 25 -87
22 -106 -5z"/>
<path d="M7310 5460 c-45 -45 -11 -120 53 -120 42 0 67 26 67 68 0 41 -31 72
-70 72 -17 0 -39 -9 -50 -20z"/>
<path d="M2820 5370 c-26 -26 -26 -81 0 -105 11 -10 34 -18 52 -17 65 2 92 82
42 121 -34 26 -68 27 -94 1z"/>
<path d="M716 5349 c-36 -28 -36 -80 0 -108 15 -12 34 -21 44 -21 34 0 70 39
70 75 0 36 -36 75 -70 75 -10 0 -29 -9 -44 -21z"/>
<path d="M7936 5279 c-19 -15 -26 -30 -26 -54 0 -36 36 -75 70 -75 34 0 70 39
70 75 0 36 -36 75 -70 75 -10 0 -29 -9 -44 -21z"/>
<path d="M8857 5289 c-48 -28 -40 -107 12 -129 75 -31 134 58 76 115 -25 26
-58 31 -88 14z"/>
<path d="M9765 5275 c-40 -39 -29 -97 22 -116 62 -23 119 42 88 101 -24 47
-72 54 -110 15z"/>
<path d="M10951 5224 c-12 -15 -21 -34 -21 -44 0 -34 39 -70 75 -70 36 0 75
36 75 70 0 34 -39 70 -75 70 -24 0 -39 -7 -54 -26z"/>
<path d="M2153 5110 c-46 -19 -57 -83 -20 -118 48 -45 117 -14 117 51 0 51
-50 86 -97 67z"/>
<path d="M3307 5030 c-37 -29 -37 -80 -1 -109 15 -12 34 -21 44 -21 33 0 70
39 70 74 0 60 -66 93 -113 56z"/>
<path d="M1422 4977 c-45 -48 -17 -117 47 -117 46 0 71 24 71 68 0 65 -74 96
-118 49z"/>
<path d="M5177 4932 c-23 -25 -21 -78 3 -102 61 -61 154 27 104 98 -20 28 -83
31 -107 4z"/>
<path d="M4010 4770 c-42 -42 -8 -120 53 -120 58 0 91 85 49 123 -25 23 -78
21 -102 -3z"/>
<path d="M6325 4745 c-30 -30 -31 -54 -4 -89 15 -19 30 -26 54 -26 37 0 75 37
75 72 0 27 -45 68 -75 68 -14 0 -37 -11 -50 -25z"/>
<path d="M7171 4744 c-27 -34 -27 -64 -1 -92 45 -48 123 -16 123 50 0 64 -83
92 -122 42z"/>
<path d="M2583 4590 c-48 -20 -58 -87 -17 -119 34 -27 64 -27 92 -1 32 30 30
82 -4 109 -29 23 -38 24 -71 11z"/>
<path d="M7772 4500 c-48 -45 -16 -123 50 -123 64 0 92 83 42 122 -34 27 -64
27 -92 1z"/>
<path d="M503 4490 c-26 -11 -43 -40 -43 -74 0 -27 41 -66 70 -66 10 0 29 9
44 21 63 49 4 149 -71 119z"/>
<path d="M9445 4405 c-14 -13 -25 -36 -25 -50 0 -29 40 -75 65 -75 20 0 57 19
67 34 18 26 8 75 -18 95 -35 27 -59 26 -89 -4z"/>
<path d="M4671 4374 c-12 -15 -21 -35 -21 -46 0 -27 45 -68 75 -68 29 0 75 40
75 65 0 20 -19 57 -34 67 -26 18 -75 8 -95 -18z"/>
<path d="M5567 4382 c-23 -25 -21 -78 3 -102 61 -61 154 27 104 98 -20 28 -83
31 -107 4z"/>
<path d="M8537 4349 c-48 -28 -40 -107 13 -129 58 -24 120 44 90 99 -20 38
-66 51 -103 30z"/>
<path d="M1125 4245 c-14 -13 -25 -36 -25 -50 0 -29 40 -75 65 -75 20 0 57 19
67 34 18 26 8 75 -18 95 -35 27 -59 26 -89 -4z"/>
<path d="M3430 4257 c-52 -26 -49 -104 4 -128 36 -17 73 -3 92 32 19 38 6 80
-32 98 -31 14 -33 14 -64 -2z"/>
<path d="M10225 4245 c-34 -33 -33 -77 1 -104 15 -12 34 -21 44 -21 34 0 70
39 70 75 0 24 -7 39 -26 54 -35 27 -59 26 -89 -4z"/>
<path d="M11006 4249 c-19 -15 -26 -30 -26 -54 0 -36 36 -75 70 -75 34 0 70
39 70 75 0 36 -36 75 -70 75 -10 0 -29 -9 -44 -21z"/>
<path d="M6781 4124 c-12 -15 -21 -34 -21 -44 0 -10 9 -29 21 -44 41 -52 122
-23 122 44 0 67 -81 96 -122 44z"/>
<path d="M1898 3763 l-3 -218 -362 -3 -363 -2 0 -30 0 -30 1305 0 1305 0 0 30
0 30 -910 0 -910 0 0 220 0 220 -30 0 -30 0 -2 -217z"/>
<path d="M4251 3944 c-27 -34 -27 -64 -1 -92 47 -50 140 -6 125 58 -14 60 -88
80 -124 34z"/>
<path d="M2530 3940 c-26 -26 -26 -81 0 -105 29 -26 79 -24 102 4 27 34 23 75
-8 100 -34 26 -68 27 -94 1z"/>
<path d="M6300 3690 l0 -240 -315 0 -315 0 0 -30 0 -30 1535 0 1535 0 0 30 0
30 -1187 2 -1188 3 -3 238 -2 237 -30 0 -30 0 0 -240z"/>
<path d="M7330 3828 c-27 -29 -25 -64 5 -93 63 -63 160 18 105 88 -28 35 -80
37 -110 5z"/>
<path d="M5159 3812 c-28 -23 -30 -73 -4 -102 25 -27 78 -27 105 2 26 28 26
58 -1 92 -25 31 -66 35 -100 8z"/>
<path d="M9005 3778 c-50 -27 -59 -75 -20 -113 42 -43 106 -23 121 37 5 22 0
33 -24 58 -33 32 -46 35 -77 18z"/>
<path d="M617 3742 c-25 -28 -22 -87 5 -106 51 -36 118 -5 118 54 0 17 -9 39
-20 50 -26 26 -81 26 -103 2z"/>
<path d="M8065 3670 c-42 -47 -8 -120 55 -120 33 0 70 40 70 76 0 57 -86 87
-125 44z"/>
<path d="M9643 3548 c-68 -33 -40 -138 37 -138 28 0 70 44 70 73 0 51 -61 88
-107 65z"/>
<path d="M3255 3395 c-43 -42 -23 -106 37 -121 22 -5 34 0 59 25 25 25 30 37
25 59 -15 60 -79 80 -121 37z"/>
<path d="M3993 3268 c-68 -33 -40 -138 37 -138 28 0 70 44 70 73 0 51 -61 88
-107 65z"/>
<path d="M1572 3154 c-62 -43 -32 -134 44 -134 24 0 64 47 64 75 0 30 -41 75
-67 75 -10 0 -29 -7 -41 -16z"/>
<path d="M10330 3150 c-43 -43 -11 -120 50 -120 38 0 70 32 70 70 0 38 -32 70
-70 70 -17 0 -39 -9 -50 -20z"/>
<path d="M6900 3100 c-26 -26 -26 -81 -2 -103 44 -40 122 -7 122 51 0 60 -78
94 -120 52z"/>
<path d="M7860 3100 c-45 -45 -11 -120 53 -120 42 0 67 26 67 68 0 41 -31 72
-70 72 -17 0 -39 -9 -50 -20z"/>
<path d="M4806 3008 c-36 -51 -5 -118 54 -118 17 0 39 9 50 20 45 45 11 120
-54 120 -25 0 -39 -7 -50 -22z"/>
<path d="M2507 2988 c-38 -34 -40 -75 -5 -108 29 -27 64 -25 93 5 29 28 32 65
8 93 -28 33 -66 37 -96 10z"/>
<path d="M8703 2998 c-68 -33 -40 -138 37 -138 28 0 70 44 70 73 0 51 -61 88
-107 65z"/>
<path d="M3411 2794 c-12 -15 -21 -34 -21 -44 0 -31 39 -70 70 -70 62 0 97 66
60 113 -29 37 -80 37 -109 1z"/>
<path d="M5982 2777 c-45 -48 -14 -117 51 -117 42 0 67 26 67 68 0 65 -74 96
-118 49z"/>
<path d="M619 2772 c-49 -40 -17 -122 48 -122 65 0 93 61 52 114 -25 31 -66
35 -100 8z"/>
<path d="M9853 2625 c-66 -47 -8 -150 70 -123 51 18 62 74 22 113 -27 28 -61
32 -92 10z"/>
<path d="M10920 2560 c-43 -43 -11 -120 50 -120 38 0 70 32 70 70 0 38 -32 70
-70 70 -17 0 -39 -9 -50 -20z"/>
<path d="M1855 2545 c-30 -30 -31 -54 -4 -89 15 -19 30 -26 54 -26 36 0 75 36
75 70 0 10 -9 29 -21 44 -27 34 -71 35 -104 1z"/>
<path d="M5133 2520 c-46 -19 -57 -83 -20 -118 48 -45 117 -14 117 51 0 51
-50 86 -97 67z"/>
<path d="M8397 2440 c-35 -28 -37 -80 -5 -110 29 -27 64 -25 93 5 63 63 -18
160 -88 105z"/>
<path d="M4016 2389 c-46 -36 -26 -110 34 -124 39 -9 80 27 80 70 0 36 -36 75
-70 75 -10 0 -29 -9 -44 -21z"/>
<path d="M6922 2387 c-45 -48 -14 -117 51 -117 42 0 67 26 67 68 0 65 -74 96
-118 49z"/>
<path d="M7655 2365 c-48 -47 -19 -119 49 -119 47 0 70 23 70 70 0 68 -72 97
-119 49z"/>
<path d="M2705 2295 c-43 -42 -23 -106 37 -121 22 -5 34 0 59 25 25 25 30 37
25 59 -15 60 -79 80 -121 37z"/>
<path d="M9625 2065 c-29 -28 -31 -51 -9 -83 43 -62 134 -32 134 44 0 24 -47
64 -75 64 -14 0 -37 -11 -50 -25z"/>
<path d="M5525 1975 c-40 -39 -29 -97 22 -116 62 -23 119 40 89 99 -25 49 -72
56 -111 17z"/>
<path d="M3340 1947 c-13 -7 -28 -27 -34 -44 -17 -60 43 -110 100 -84 l24 11
0 -155 0 -155 -350 0 -350 0 0 -30 0 -30 1775 0 1775 0 0 30 0 30 -1395 0
-1395 0 0 215 0 216 -37 -2 c-21 -1 -49 1 -63 5 -14 3 -36 0 -50 -7z"/>
<path d="M4490 1930 c-42 -42 -12 -120 48 -120 46 0 72 25 72 70 0 29 -6 43
-22 54 -31 22 -74 20 -98 -4z"/>
<path d="M10561 1924 c-12 -15 -21 -34 -21 -44 0 -34 39 -70 75 -70 36 0 75
36 75 70 0 34 -39 70 -75 70 -24 0 -39 -7 -54 -26z"/>
<path d="M6320 1897 c-55 -28 -48 -110 13 -131 77 -27 124 80 55 128 -27 19
-35 20 -68 3z"/>
<path d="M710 1840 c-24 -24 -26 -67 -4 -98 11 -16 25 -22 54 -22 29 0 43 6
54 22 36 51 5 118 -54 118 -17 0 -39 -9 -50 -20z"/>
<path d="M2083 1740 c-48 -20 -58 -87 -17 -119 34 -27 64 -27 92 -1 32 30 30
82 -4 109 -29 23 -38 24 -71 11z"/>
<path d="M7702 1677 c-45 -48 -17 -117 47 -117 46 0 71 24 71 68 0 65 -74 96
-118 49z"/>
<path d="M8956 1628 c-50 -71 43 -159 104 -98 26 26 26 81 2 103 -28 25 -87
22 -106 -5z"/>
<path d="M6958 1574 c-51 -27 -46 -101 7 -126 58 -26 119 33 95 91 -6 16 -23
33 -36 40 -31 14 -33 14 -66 -5z"/>
<path d="M1262 1520 c-48 -45 -16 -123 50 -123 61 0 91 78 45 121 -29 28 -67
28 -95 2z"/>
<path d="M9957 1439 c-48 -28 -40 -107 12 -129 75 -31 134 58 76 115 -25 26
-58 31 -88 14z"/>
<path d="M3297 1283 c-9 -2 -24 -18 -33 -35 -30 -59 27 -122 89 -99 51 19 62
77 22 116 -23 24 -40 28 -78 18z"/>
<path d="M5718 1180 c-35 -27 -42 -53 -24 -88 25 -49 73 -56 111 -17 29 28 32
65 8 93 -27 32 -64 37 -95 12z"/>
<path d="M8397 1180 c-20 -16 -27 -30 -27 -56 0 -68 68 -97 115 -49 63 63 -18
160 -88 105z"/>
<path d="M10612 1127 c-45 -48 -17 -117 47 -117 46 0 71 24 71 68 0 65 -74 96
-118 49z"/>
<path d="M7620 886 l0 -236 -315 0 -315 0 0 -30 0 -30 1810 0 1810 0 0 30 0
30 -1465 0 -1465 0 -2 233 -3 232 -27 3 -28 3 0 -235z"/>
<path d="M4236 1078 c-35 -50 -5 -118 52 -118 59 0 92 67 56 118 -11 16 -25
22 -54 22 -29 0 -43 -6 -54 -22z"/>
<path d="M2013 1030 c-47 -19 -56 -78 -18 -115 42 -43 106 -23 121 37 5 22 0
33 -24 58 -32 31 -43 34 -79 20z"/>
<path d="M652 997 c-43 -46 -15 -120 46 -120 43 0 72 28 72 70 0 66 -74 97
-118 50z"/>
<path d="M6493 975 c-66 -46 -8 -150 68 -123 26 9 49 44 49 74 0 23 -46 64
-72 64 -13 0 -33 -7 -45 -15z"/>
<path d="M9325 920 c-26 -29 -24 -79 4 -102 70 -56 164 39 101 102 -26 26 -81
26 -105 0z"/>
<path d="M5159 742 c-49 -40 -17 -122 48 -122 65 0 93 61 52 114 -25 31 -66
35 -100 8z"/>
<path d="M2643 712 c-51 -8 -70 -83 -30 -120 48 -45 117 -14 117 51 0 48 -38
77 -87 69z"/>
<path d="M3506 689 c-36 -28 -36 -80 0 -108 15 -12 35 -21 46 -21 27 0 68 45
68 75 0 30 -41 75 -68 75 -11 0 -31 -9 -46 -21z"/>
<path d="M276 549 c-36 -28 -36 -80 0 -108 15 -12 34 -21 44 -21 34 0 70 39
70 75 0 36 -36 75 -70 75 -10 0 -29 -9 -44 -21z"/>
<path d="M7776 399 c-19 -15 -26 -30 -26 -54 0 -36 36 -75 70 -75 34 0 70 39
70 75 0 36 -36 75 -70 75 -10 0 -29 -9 -44 -21z"/>
<path d="M9963 408 c-68 -33 -39 -138 38 -138 28 0 69 44 69 73 0 51 -61 88
-107 65z"/>
<path d="M4355 325 c-40 -39 -29 -97 22 -116 58 -22 116 36 94 94 -19 51 -77
62 -116 22z"/>
<path d="M1009 318 c-16 -5 -32 -22 -39 -39 -35 -84 84 -137 129 -58 31 55
-28 118 -90 97z"/>
<path d="M3012 267 c-45 -48 -14 -117 51 -117 43 0 70 29 69 72 -2 63 -77 91
-120 45z"/>
<path d="M2010 247 c-52 -26 -49 -104 4 -128 36 -17 73 -3 92 32 19 38 6 80
-32 98 -31 14 -33 14 -64 -2z"/>
<path d="M10953 250 c-49 -20 -56 -90 -11 -123 73 -54 153 56 82 112 -29 23
-38 24 -71 11z"/>
<path d="M5726 208 c-36 -51 -5 -118 54 -118 38 0 70 32 70 70 0 63 -90 98
-124 48z"/>
<path d="M6737 212 c-25 -28 -22 -87 5 -106 71 -50 159 43 98 104 -26 26 -81
26 -103 2z"/>
<path d="M8710 190 c-26 -26 -26 -81 -2 -103 44 -40 122 -7 122 51 0 60 -78
94 -120 52z"/>
</g>
</svg>
