<?xml version="1.0" standalone="no"?>
<!DOCTYPE svg PUBLIC "-//W3C//DTD SVG 20010904//EN"
 "http://www.w3.org/TR/2001/REC-SVG-20010904/DTD/svg10.dtd">
<svg version="1.0" xmlns="http://www.w3.org/2000/svg"
 width="1125.000000pt" height="900.000000pt" viewBox="0 0 1125.000000 900.000000"
 preserveAspectRatio="xMidYMid meet">
<metadata>
Created by potrace 1.13, written by Peter Selinger 2001-2015
</metadata>
<g transform="translate(0.000000,900.000000) scale(0.100000,-0.100000)"
fill="#000000" stroke="none">
<path d="M0 4500 l0 -4500 5625 0 5625 0 0 4500 0 4500 -5625 0 -5625 0 0
-4500z m2224 4422 c-8 -50 19 -85 65 -85 54 0 84 44 70 103 -4 13 252 15 2245
17 l2248 3 -6 -32 c-12 -62 49 -111 104 -83 33 17 44 44 35 85 l-7 30 574 0
573 0 35 -24 c54 -36 105 -49 180 -44 58 3 76 9 114 36 l45 32 883 -4 c486 -3
901 -5 923 -5 22 0 130 1 239 2 l199 2 18 -54 c36 -105 107 -161 205 -161 98
1 169 57 205 163 10 29 21 51 26 50 8 -3 17 -2153 9 -2153 -3 0 -22 10 -43 23
-30 18 -53 22 -115 22 -69 0 -81 -3 -120 -30 -28 -20 -53 -49 -71 -85 -26 -50
-28 -63 -25 -141 3 -75 7 -92 33 -134 40 -64 90 -90 171 -90 46 0 73 7 113 28
29 15 55 27 57 27 2 0 4 -345 4 -766 l0 -765 -35 -33 c-45 -42 -45 -70 0 -112
l35 -33 -2 -2333 -3 -2333 -378 -3 -378 -2 15 22 c21 29 20 77 -1 100 -22 24
-77 24 -103 -2 -24 -24 -26 -72 -5 -90 8 -7 15 -16 15 -21 0 -5 -537 -9 -1245
-9 l-1245 0 0 32 c0 19 -9 41 -22 55 -44 47 -118 15 -118 -52 l0 -35 -2293 0
-2293 0 -22 25 c-30 34 -80 34 -112 0 l-23 -25 -289 0 c-265 0 -312 4 -278 25
17 11 11 60 -10 83 -13 14 -33 22 -54 22 -55 0 -83 -48 -62 -107 l7 -23 -344
0 -344 0 -31 49 c-83 135 -260 129 -348 -11 l-24 -38 -315 0 c-311 0 -315 0
-315 20 0 28 -44 70 -72 70 -34 0 -65 -26 -73 -60 l-7 -30 -196 2 -197 3 -3
2604 -2 2603 27 -6 c60 -16 111 38 91 95 -11 32 -55 53 -91 43 l-27 -6 0 976
0 975 24 23 c41 38 42 70 7 111 l-31 35 0 724 c0 399 3 728 7 731 3 4 496 7
1095 7 l1088 0 -6 -38z m8891 28 c11 -18 -39 -104 -74 -127 -55 -37 -140 -25
-184 25 -21 23 -48 93 -40 104 7 12 291 10 298 -2z m36 -2194 c47 -32 62 -76
57 -167 -3 -62 -7 -72 -38 -104 -40 -41 -121 -70 -167 -59 -45 11 -80 41 -97
84 -30 75 -15 180 32 234 46 52 144 57 213 12z m-9650 -6659 c19 -12 35 -30
37 -40 3 -15 -9 -17 -117 -17 -67 0 -121 4 -121 9 0 5 16 23 35 40 46 40 114
43 166 8z"/>
<path d="M666 8839 c-50 -39 -22 -122 42 -122 66 0 98 78 50 123 -28 26 -58
26 -92 -1z"/>
<path d="M4437 8849 c-28 -16 -40 -58 -27 -90 24 -57 103 -58 129 -2 16 36 14
51 -14 78 -25 26 -58 31 -88 14z"/>
<path d="M3824 8798 c-69 -33 -37 -138 42 -138 24 0 64 47 64 75 0 30 -41 75
-67 74 -10 0 -28 -5 -39 -11z"/>
<path d="M7692 8767 c-45 -48 -17 -117 47 -117 46 0 71 24 71 68 0 65 -74 96
-118 49z"/>
<path d="M9427 8752 c-25 -28 -22 -87 5 -106 71 -50 159 43 98 104 -26 26 -81
26 -103 2z"/>
<path d="M1307 8738 c-37 -33 -40 -75 -7 -108 27 -27 66 -25 95 5 29 28 32 65
8 93 -28 33 -66 37 -96 10z"/>
<path d="M5256 8719 c-52 -41 -23 -122 44 -122 67 0 96 81 44 122 -15 12 -34
21 -44 21 -10 0 -29 -9 -44 -21z"/>
<path d="M112 8647 c-45 -48 -17 -117 47 -117 46 0 71 24 71 68 0 65 -74 96
-118 49z"/>
<path d="M2844 8558 c-69 -33 -37 -138 42 -138 24 0 64 47 64 75 0 30 -41 75
-67 74 -10 0 -28 -5 -39 -11z"/>
<path d="M8656 8548 c-36 -51 -5 -118 54 -118 59 0 90 67 54 118 -11 16 -25
22 -54 22 -29 0 -43 -6 -54 -22z"/>
<path d="M6005 8510 c-42 -46 -10 -120 51 -120 37 0 74 37 74 75 0 54 -88 86
-125 45z"/>
<path d="M10030 8510 c-11 -11 -20 -33 -20 -50 0 -17 9 -39 20 -50 11 -11 33
-20 50 -20 17 0 39 9 50 20 11 11 20 33 20 50 0 17 -9 39 -20 50 -11 11 -33
20 -50 20 -17 0 -39 -9 -50 -20z"/>
<path d="M1940 8507 c-13 -7 -31 -24 -39 -38 -30 -53 36 -117 94 -91 55 25 58
100 5 127 -35 18 -29 18 -60 2z"/>
<path d="M10735 8475 c-40 -39 -29 -97 22 -116 58 -22 116 36 94 94 -19 51
-77 62 -116 22z"/>
<path d="M3865 8343 c-137 -72 -165 -252 -53 -337 130 -97 362 -27 383 116 14
90 -54 189 -152 224 -51 18 -141 17 -178 -3z m175 -65 c57 -29 90 -78 90 -132
-1 -76 -62 -119 -171 -120 -102 0 -153 44 -151 131 1 77 69 143 146 143 23 0
61 -10 86 -22z"/>
<path d="M6881 8334 c-41 -53 -13 -114 52 -114 42 0 70 29 70 72 0 64 -83 92
-122 42z"/>
<path d="M850 8270 c-43 -43 -11 -120 50 -120 38 0 70 32 70 70 0 38 -32 70
-70 70 -17 0 -39 -9 -50 -20z"/>
<path d="M3360 8200 c-43 -43 -11 -120 50 -120 38 0 70 32 70 70 0 38 -32 70
-70 70 -17 0 -39 -9 -50 -20z"/>
<path d="M9615 8130 c-42 -47 -8 -120 55 -120 33 0 70 40 70 76 0 57 -86 87
-125 44z"/>
<path d="M2315 8115 c-14 -13 -25 -36 -25 -50 0 -30 41 -75 68 -75 35 0 72 38
72 75 0 24 -7 39 -26 54 -35 27 -59 26 -89 -4z"/>
<path d="M4720 8100 c-46 -46 -18 -120 47 -120 65 0 93 61 52 114 -25 32 -70
35 -99 6z"/>
<path d="M7572 8097 c-45 -48 -17 -117 47 -117 46 0 71 24 71 68 0 65 -74 96
-118 49z"/>
<path d="M389 8061 c-25 -25 -30 -37 -25 -59 15 -60 79 -80 121 -37 43 42 23
106 -37 121 -22 5 -34 0 -59 -25z"/>
<path d="M1590 8030 c-24 -24 -26 -67 -4 -98 20 -29 76 -30 104 -2 43 43 11
120 -50 120 -17 0 -39 -9 -50 -20z"/>
<path d="M8870 7980 c-26 -26 -26 -81 -2 -103 44 -40 122 -7 122 51 0 60 -78
94 -120 52z"/>
<path d="M8221 7954 c-12 -15 -21 -34 -21 -44 0 -33 39 -70 74 -70 60 0 93 66
56 113 -29 37 -80 37 -109 1z"/>
<path d="M5496 7929 c-34 -27 -35 -71 -1 -104 30 -30 54 -31 89 -4 19 15 26
30 26 54 0 36 -36 75 -70 75 -10 0 -29 -9 -44 -21z"/>
<path d="M11066 7929 c-34 -27 -35 -71 -1 -104 30 -30 54 -31 89 -4 19 15 26
30 26 54 0 36 -36 75 -70 75 -10 0 -29 -9 -44 -21z"/>
<path d="M10375 7855 c-39 -38 -32 -86 16 -110 49 -26 102 9 102 67 0 62 -73
89 -118 43z"/>
<path d="M6975 7814 c-91 -32 -155 -118 -155 -207 0 -63 20 -107 64 -144 118
-97 328 -56 382 74 41 97 -8 232 -100 274 -49 22 -134 24 -191 3z m164 -62
c46 -23 70 -58 77 -113 12 -89 -44 -154 -143 -165 -69 -9 -125 10 -162 51
-105 119 80 303 228 227z"/>
<path d="M9515 7816 c-121 -38 -185 -114 -185 -219 0 -144 136 -259 288 -244
125 13 199 105 190 235 -6 76 -30 132 -80 179 -62 59 -130 75 -213 49z m132
-67 c84 -41 125 -161 85 -252 -53 -120 -247 -109 -319 18 -55 97 -9 195 109
236 67 23 73 23 125 -2z"/>
<path d="M2930 7790 c-24 -24 -26 -67 -4 -98 11 -16 25 -22 54 -22 29 0 43 6
54 22 36 51 5 118 -54 118 -17 0 -39 -9 -50 -20z"/>
<path d="M6191 7764 c-27 -35 -26 -59 4 -89 33 -34 77 -33 104 1 12 15 21 34
21 44 0 34 -39 70 -75 70 -24 0 -39 -7 -54 -26z"/>
<path d="M1090 7767 c-52 -26 -49 -104 5 -129 58 -26 119 33 95 91 -6 16 -23
33 -36 40 -31 14 -33 14 -64 -2z"/>
<path d="M4287 7652 c-25 -28 -22 -87 5 -106 71 -50 159 43 98 104 -26 26 -81
26 -103 2z"/>
<path d="M2140 7600 c-43 -43 -11 -120 50 -120 38 0 70 32 70 70 0 38 -32 70
-70 70 -17 0 -39 -9 -50 -20z"/>
<path d="M519 7510 c-27 -15 -43 -65 -29 -89 28 -53 94 -62 125 -18 44 62 -31
145 -96 107z"/>
<path d="M7841 7404 c-12 -15 -21 -34 -21 -44 0 -34 39 -70 75 -70 36 0 75 36
75 70 0 34 -39 70 -75 70 -24 0 -39 -7 -54 -26z"/>
<path d="M3408 7404 c-51 -27 -46 -101 7 -126 58 -26 119 33 95 91 -6 16 -23
33 -36 40 -31 14 -33 14 -66 -5z"/>
<path d="M10599 7362 c-28 -23 -30 -73 -4 -102 25 -27 78 -27 105 2 26 28 26
58 -1 92 -25 31 -66 35 -100 8z"/>
<path d="M1914 7341 c-86 -39 -143 -144 -130 -238 14 -104 91 -167 206 -166
137 0 223 73 223 188 -1 69 -27 128 -79 173 -69 62 -146 77 -220 43z m115 -51
c69 -19 121 -90 121 -163 0 -80 -58 -127 -158 -127 -45 0 -67 5 -93 23 -90 60
-64 215 45 263 38 16 42 16 85 4z"/>
<path d="M5066 7309 c-50 -39 -22 -122 42 -122 43 0 72 28 72 70 0 65 -61 93
-114 52z"/>
<path d="M8705 7305 c-28 -27 -30 -42 -14 -79 32 -69 139 -38 139 40 0 24 -47
64 -75 64 -14 0 -37 -11 -50 -25z"/>
<path d="M2576 7259 c-36 -28 -36 -80 0 -108 15 -12 34 -21 44 -21 34 0 70 39
70 75 0 36 -36 75 -70 75 -10 0 -29 -9 -44 -21z"/>
<path d="M5800 7240 c-24 -24 -26 -67 -4 -98 11 -16 25 -22 54 -22 29 0 43 6
54 22 36 51 5 118 -54 118 -17 0 -39 -9 -50 -20z"/>
<path d="M10049 7242 c-49 -40 -17 -122 48 -122 65 0 93 61 52 114 -25 31 -66
35 -100 8z"/>
<path d="M1403 7165 c-49 -21 -58 -71 -18 -110 45 -46 118 -19 118 43 0 58
-47 89 -100 67z"/>
<path d="M6540 7120 c-26 -26 -26 -81 -2 -103 28 -25 87 -22 106 5 51 73 -42
160 -104 98z"/>
<path d="M4557 7079 c-48 -28 -40 -107 13 -129 23 -9 34 -9 58 4 49 25 56 72
17 111 -25 26 -58 31 -88 14z"/>
<path d="M3920 7040 c-43 -43 -11 -120 50 -120 38 0 70 32 70 70 0 38 -32 70
-70 70 -17 0 -39 -9 -50 -20z"/>
<path d="M7260 6980 c-11 -11 -20 -33 -20 -50 0 -17 9 -39 20 -50 45 -45 120
-11 120 53 0 20 -8 41 -18 50 -25 23 -78 21 -102 -3z"/>
<path d="M265 6958 c-28 -16 -35 -28 -35 -65 0 -41 42 -77 80 -68 60 14 80 88
34 124 -30 24 -50 26 -79 9z"/>
<path d="M9445 6945 c-14 -13 -25 -31 -25 -39 0 -30 23 -65 50 -76 58 -24 120
44 90 99 -24 46 -78 53 -115 16z"/>
<path d="M8105 6935 c-39 -39 -32 -86 17 -111 59 -30 122 27 99 89 -19 51 -77
62 -116 22z"/>
<path d="M867 6862 c-25 -28 -22 -87 5 -106 49 -34 118 -2 118 55 0 58 -85 93
-123 51z"/>
<path d="M5422 6797 c-122 -45 -156 -167 -76 -272 58 -76 189 -107 279 -66
147 66 154 267 11 332 -47 21 -161 25 -214 6z m181 -61 c45 -19 68 -48 74 -95
14 -105 -111 -173 -223 -122 -80 36 -115 134 -66 183 45 45 150 62 215 34z"/>
<path d="M2907 6769 c-28 -16 -40 -58 -26 -90 21 -53 104 -55 128 -3 16 37 14
52 -14 79 -25 26 -58 31 -88 14z"/>
<path d="M10491 6734 c-12 -15 -21 -34 -21 -44 0 -10 9 -29 21 -44 41 -52 122
-23 122 44 0 67 -81 96 -122 44z"/>
<path d="M9857 6552 c-25 -28 -22 -87 5 -106 71 -50 159 43 98 104 -26 26 -81
26 -103 2z"/>
<path d="M4281 6514 c-12 -15 -21 -34 -21 -44 0 -34 39 -70 75 -70 36 0 75 36
75 70 0 34 -39 70 -75 70 -24 0 -39 -7 -54 -26z"/>
<path d="M6765 6515 c-28 -27 -32 -61 -10 -92 49 -70 160 0 120 76 -24 48 -72
55 -110 16z"/>
<path d="M2155 6480 c-41 -45 -9 -120 52 -120 31 0 73 42 73 75 0 57 -86 89
-125 45z"/>
<path d="M3505 6465 c-48 -47 -19 -115 49 -115 68 0 96 79 44 123 -28 24 -65
21 -93 -8z"/>
<path d="M6025 6465 c-14 -13 -25 -36 -25 -50 0 -28 40 -75 64 -75 29 0 64 22
75 48 16 33 -1 75 -35 91 -37 16 -52 14 -79 -14z"/>
<path d="M1489 6411 c-25 -25 -30 -37 -25 -59 15 -60 79 -80 121 -37 43 42 23
106 -37 121 -22 5 -34 0 -59 -25z"/>
<path d="M7655 6360 c-42 -47 -8 -120 55 -120 33 0 70 40 70 76 0 57 -86 87
-125 44z"/>
<path d="M8590 6359 c-85 -39 -130 -103 -130 -188 0 -63 13 -97 53 -139 61
-64 146 -90 233 -72 100 21 162 90 172 191 8 86 -39 169 -119 210 -52 26 -149
25 -209 -2z m190 -59 c105 -54 103 -213 -4 -264 -113 -53 -256 22 -256 135 0
109 152 184 260 129z"/>
<path d="M285 6325 c-30 -29 -32 -68 -5 -95 47 -47 123 -15 123 51 0 63 -72
90 -118 44z"/>
<path d="M4873 6308 c-12 -6 -27 -24 -34 -40 -34 -83 86 -136 130 -57 19 33 1
81 -35 98 -29 13 -32 13 -61 -1z"/>
<path d="M9290 6260 c-45 -45 -11 -120 54 -120 25 0 39 7 50 22 36 51 5 118
-54 118 -17 0 -39 -9 -50 -20z"/>
<path d="M852 6207 c-43 -46 -15 -120 46 -120 43 0 72 28 72 69 0 66 -74 98
-118 51z"/>
<path d="M2760 6210 c-26 -26 -26 -81 0 -105 29 -26 79 -24 102 4 27 34 23 75
-8 100 -34 26 -68 27 -94 1z"/>
<path d="M10440 6190 c-42 -42 -10 -120 48 -120 46 0 72 26 72 70 0 29 -6 43
-22 54 -31 22 -74 20 -98 -4z"/>
<path d="M3762 6131 c-63 -22 -98 -52 -123 -106 -39 -84 -11 -182 69 -242 55
-42 109 -57 202 -57 137 -1 206 62 197 179 -5 70 -23 109 -75 167 -69 76 -162
97 -270 59z m161 -54 c44 -19 103 -87 118 -135 30 -102 -16 -152 -141 -152
-88 0 -142 21 -183 69 -68 81 -25 195 84 221 52 12 87 11 122 -3z"/>
<path d="M7026 5969 c-50 -39 -22 -122 42 -122 67 0 97 76 49 121 -29 28 -57
28 -91 1z"/>
<path d="M11066 5969 c-50 -39 -22 -122 42 -122 66 0 98 78 50 123 -28 26 -58
26 -92 -1z"/>
<path d="M2030 5923 c-55 -70 42 -151 105 -88 48 47 19 115 -49 115 -26 0 -40
-7 -56 -27z"/>
<path d="M5446 5919 c-19 -15 -26 -30 -26 -54 0 -36 36 -75 70 -75 34 0 70 39
70 75 0 36 -36 75 -70 75 -10 0 -29 -9 -44 -21z"/>
<path d="M4305 5895 c-30 -30 -31 -54 -4 -89 15 -19 30 -26 54 -26 37 0 75 37
75 72 0 27 -45 68 -75 68 -14 0 -37 -11 -50 -25z"/>
<path d="M6350 5877 c-52 -26 -49 -104 4 -128 81 -37 138 73 64 125 -27 19
-35 20 -68 3z"/>
<path d="M9937 5859 c-48 -28 -40 -107 12 -129 75 -31 134 58 76 115 -25 26
-58 31 -88 14z"/>
<path d="M1452 5777 c-43 -46 -16 -117 46 -119 43 -1 72 26 72 69 0 66 -74 97
-118 50z"/>
<path d="M8190 5760 c-11 -11 -20 -33 -20 -50 0 -17 9 -39 20 -50 11 -11 33
-20 50 -20 17 0 39 9 50 20 11 11 20 33 20 50 0 17 -9 39 -20 50 -11 11 -33
20 -50 20 -17 0 -39 -9 -50 -20z"/>
<path d="M3343 5758 c-12 -6 -27 -24 -34 -40 -34 -83 86 -136 130 -57 19 33 1
81 -35 98 -29 13 -32 13 -61 -1z"/>
<path d="M571 5684 c-12 -15 -21 -35 -21 -46 0 -27 45 -68 75 -68 30 0 75 41
75 68 0 35 -38 72 -75 72 -24 0 -39 -7 -54 -26z"/>
<path d="M2720 5643 c-53 -19 -68 -86 -28 -123 63 -59 157 32 101 98 -20 23
-50 33 -73 25z"/>
<path d="M10611 5584 c-24 -30 -26 -46 -10 -77 16 -30 28 -37 66 -37 41 0 77
42 68 80 -14 60 -88 80 -124 34z"/>
<path d="M5082 5524 c-16 -11 -22 -25 -22 -54 0 -29 6 -43 22 -54 51 -36 118
-5 118 54 0 59 -67 90 -118 54z"/>
<path d="M9345 5485 c-14 -13 -25 -36 -25 -50 0 -30 41 -75 68 -75 35 0 72 38
72 73 0 38 -7 50 -37 66 -33 17 -51 14 -78 -14z"/>
<path d="M7690 5447 c-52 -26 -49 -104 5 -129 58 -26 119 33 95 91 -6 16 -23
33 -36 40 -31 14 -33 14 -64 -2z"/>
<path d="M2221 5374 c-12 -15 -21 -35 -21 -46 0 -27 45 -68 75 -68 29 0 75 40
75 65 0 20 -19 57 -34 67 -26 18 -75 8 -95 -18z"/>
<path d="M5796 5378 c-51 -73 42 -160 104 -98 26 26 26 81 2 103 -28 25 -87
22 -106 -5z"/>
<path d="M997 5320 c-20 -16 -27 -30 -27 -56 0 -68 68 -97 115 -49 63 63 -18
160 -88 105z"/>
<path d="M1848 5316 c-101 -27 -160 -89 -160 -170 1 -76 40 -136 118 -182 53
-31 152 -43 208 -24 112 37 167 166 117 276 -43 95 -156 134 -283 100z m182
-74 c58 -42 74 -129 36 -187 -56 -85 -189 -85 -273 0 -36 35 -43 49 -43 81 0
22 7 50 16 62 45 64 200 90 264 44z"/>
<path d="M6492 5284 c-28 -20 -31 -83 -4 -107 25 -23 78 -21 102 3 61 61 -27
154 -98 104z"/>
<path d="M9920 5253 c-55 -70 42 -151 105 -88 48 47 19 115 -49 115 -26 0 -40
-7 -56 -27z"/>
<path d="M3965 5245 c-34 -33 -33 -77 1 -104 15 -12 34 -21 44 -21 10 0 29 9
44 21 36 28 36 80 0 108 -35 27 -59 26 -89 -4z"/>
<path d="M3170 5137 c-52 -26 -49 -104 4 -128 36 -17 73 -3 92 32 19 38 6 80
-32 98 -31 14 -33 14 -64 -2z"/>
<path d="M8653 5138 c-68 -33 -39 -138 38 -138 28 0 69 44 69 73 0 51 -61 88
-107 65z"/>
<path d="M7625 5110 c-82 -39 -115 -88 -115 -170 1 -94 57 -179 142 -214 58
-24 156 -21 209 7 146 77 130 306 -26 378 -55 25 -157 25 -210 -1z m196 -63
c51 -34 79 -82 79 -136 0 -84 -60 -141 -148 -141 -129 0 -220 127 -166 231 33
65 168 91 235 46z"/>
<path d="M4611 5084 c-12 -15 -21 -34 -21 -44 0 -34 39 -70 75 -70 36 0 75 36
75 70 0 34 -39 70 -75 70 -24 0 -39 -7 -54 -26z"/>
<path d="M10515 5005 c-34 -33 -33 -77 1 -104 15 -12 34 -21 44 -21 34 0 70
39 70 75 0 24 -7 39 -26 54 -35 27 -59 26 -89 -4z"/>
<path d="M7079 4968 c-16 -5 -32 -22 -39 -39 -35 -84 84 -137 129 -58 31 55
-28 118 -90 97z"/>
<path d="M5423 4898 c-12 -6 -27 -24 -34 -40 -34 -83 86 -136 130 -57 19 33 1
81 -35 98 -29 13 -32 13 -61 -1z"/>
<path d="M595 4865 c-28 -27 -32 -61 -10 -92 47 -66 150 -8 123 70 -18 51 -74
62 -113 22z"/>
<path d="M9710 4861 c-111 -34 -182 -128 -182 -241 0 -127 77 -207 209 -218
78 -6 145 10 204 50 67 45 92 88 97 162 7 112 -59 215 -157 244 -43 13 -132
14 -171 3z m175 -74 c101 -57 125 -186 49 -262 -92 -92 -288 -79 -330 21 -17
40 -18 102 -3 141 38 103 187 155 284 100z"/>
<path d="M2515 4780 c-25 -27 -22 -80 6 -102 68 -56 161 40 99 102 -26 26 -81
26 -105 0z"/>
<path d="M9293 4780 c-47 -19 -56 -78 -18 -115 42 -43 106 -23 121 37 5 22 0
33 -24 58 -32 31 -43 34 -79 20z"/>
<path d="M5634 4727 c-143 -68 -178 -238 -73 -352 83 -90 220 -100 315 -22
107 89 95 279 -24 361 -60 42 -146 47 -218 13z m166 -55 c97 -48 119 -186 42
-263 -112 -111 -305 -8 -276 147 8 46 48 92 99 115 51 23 91 24 135 1z"/>
<path d="M8015 4710 c-25 -27 -22 -80 6 -102 68 -56 161 40 99 102 -26 26 -81
26 -105 0z"/>
<path d="M1356 4699 c-19 -15 -26 -30 -26 -54 0 -36 36 -75 70 -75 10 0 29 9
44 21 34 27 35 71 1 104 -30 30 -54 31 -89 4z"/>
<path d="M4135 4625 c-14 -13 -25 -35 -25 -47 0 -56 61 -93 106 -63 37 24 48
52 33 86 -22 54 -74 65 -114 24z"/>
<path d="M3396 4594 c-43 -43 -19 -116 41 -122 62 -6 101 62 63 111 -25 31
-78 37 -104 11z"/>
<path d="M6352 4557 c-43 -46 -15 -120 46 -120 43 0 72 28 72 69 0 66 -74 98
-118 51z"/>
<path d="M2050 4468 c-26 -28 -26 -58 1 -92 39 -50 122 -22 122 42 0 66 -78
98 -123 50z"/>
<path d="M4715 4350 c-25 -27 -22 -80 6 -102 68 -56 161 40 99 102 -26 26 -81
26 -105 0z"/>
<path d="M10206 4319 c-50 -39 -22 -122 42 -122 66 0 98 78 50 123 -28 26 -58
26 -92 -1z"/>
<path d="M10851 4294 c-12 -15 -21 -34 -21 -44 0 -34 39 -70 75 -70 36 0 75
36 75 70 0 34 -39 70 -75 70 -24 0 -39 -7 -54 -26z"/>
<path d="M2865 4265 c-14 -13 -25 -36 -25 -50 0 -30 41 -75 68 -75 11 0 31 9
46 21 36 28 36 80 0 108 -35 27 -59 26 -89 -4z"/>
<path d="M7366 4267 c-15 -15 -26 -38 -26 -52 0 -14 11 -37 26 -52 20 -20 31
-24 57 -19 43 9 61 29 61 71 0 42 -18 62 -61 71 -26 5 -37 1 -57 -19z"/>
<path d="M3847 4259 c-113 -27 -177 -108 -177 -224 0 -70 17 -112 63 -152 98
-86 269 -60 344 50 53 79 53 169 1 247 -42 62 -150 99 -231 79z m140 -79 c54
-32 79 -100 62 -164 -32 -117 -201 -163 -283 -77 -30 31 -44 96 -32 145 9 34
54 86 91 102 46 20 124 17 162 -6z"/>
<path d="M8771 4224 c-12 -15 -21 -34 -21 -44 0 -33 39 -70 74 -70 60 0 93 66
56 113 -29 37 -80 37 -109 1z"/>
<path d="M390 4229 c-118 -23 -191 -96 -198 -197 -9 -131 98 -234 243 -234
152 0 245 78 245 204 -1 148 -139 256 -290 227z m128 -73 c91 -48 128 -154 79
-227 -67 -101 -263 -91 -324 17 -50 87 -12 175 92 212 43 15 122 14 153 -2z"/>
<path d="M950 4233 c-53 -19 -68 -86 -28 -123 63 -58 157 33 101 98 -20 23
-50 33 -73 25z"/>
<path d="M1646 4079 c-34 -27 -35 -71 -1 -104 30 -30 54 -31 89 -4 19 15 26
30 26 54 0 36 -36 75 -70 75 -10 0 -29 -9 -44 -21z"/>
<path d="M8263 4085 c-49 -21 -58 -71 -18 -110 45 -46 118 -19 118 43 0 58
-47 89 -100 67z"/>
<path d="M9366 4079 c-19 -15 -26 -30 -26 -54 0 -36 36 -75 70 -75 34 0 70 39
70 75 0 36 -36 75 -70 75 -10 0 -29 -9 -44 -21z"/>
<path d="M5745 3985 c-57 -57 1 -146 76 -115 56 24 59 103 3 129 -37 16 -52
14 -79 -14z"/>
<path d="M6645 3955 c-28 -27 -32 -61 -10 -92 46 -66 150 -8 123 68 -9 26 -44
49 -74 49 -8 0 -26 -11 -39 -25z"/>
<path d="M5122 3920 c-32 -30 -30 -82 5 -110 70 -55 151 42 88 105 -29 30 -64
32 -93 5z"/>
<path d="M2399 3872 c-48 -40 -17 -122 47 -122 66 0 98 74 51 118 -28 27 -67
28 -98 4z"/>
<path d="M10058 3790 c-35 -27 -42 -53 -24 -88 25 -49 73 -56 111 -17 29 28
32 65 8 93 -27 32 -64 37 -95 12z"/>
<path d="M7707 3682 c-25 -28 -22 -87 5 -106 71 -50 159 43 98 104 -26 26 -81
26 -103 2z"/>
<path d="M4396 3649 c-46 -36 -26 -110 34 -124 39 -9 80 27 80 70 0 36 -36 75
-70 75 -10 0 -29 -9 -44 -21z"/>
<path d="M7132 3637 c-45 -48 -14 -117 51 -117 42 0 67 26 67 68 0 65 -74 96
-118 49z"/>
<path d="M10715 3610 c-42 -47 -8 -120 55 -120 33 0 70 40 70 76 0 57 -86 87
-125 44z"/>
<path d="M405 3595 c-14 -13 -25 -36 -25 -50 0 -28 40 -75 64 -75 29 0 64 22
75 48 16 33 -1 75 -35 91 -37 16 -52 14 -79 -14z"/>
<path d="M3225 3595 c-14 -13 -25 -36 -25 -50 0 -29 40 -75 65 -75 20 0 57 19
67 34 18 26 8 75 -18 95 -35 27 -59 26 -89 -4z"/>
<path d="M1991 3564 c-27 -34 -27 -64 -1 -92 45 -48 123 -16 123 50 0 64 -83
92 -122 42z"/>
<path d="M5601 3564 c-12 -15 -21 -34 -21 -44 0 -34 39 -70 75 -70 24 0 39 7
54 26 27 35 26 59 -4 89 -33 34 -77 33 -104 -1z"/>
<path d="M1330 3560 c-42 -42 -12 -120 48 -120 46 0 72 25 72 70 0 29 -6 43
-22 54 -31 22 -74 20 -98 -4z"/>
<path d="M9480 3560 c-43 -43 -11 -120 50 -120 38 0 70 32 70 70 0 38 -32 70
-70 70 -17 0 -39 -9 -50 -20z"/>
<path d="M8771 3504 c-24 -30 -26 -46 -10 -77 16 -30 28 -37 66 -37 41 0 77
42 68 80 -14 60 -88 80 -124 34z"/>
<path d="M6160 3500 c-43 -43 -11 -120 50 -120 38 0 70 32 70 70 0 38 -32 70
-70 70 -17 0 -39 -9 -50 -20z"/>
<path d="M10285 3195 c-58 -57 1 -146 76 -115 77 32 47 139 -39 140 -7 0 -24
-11 -37 -25z"/>
<path d="M430 3160 c-43 -43 -11 -120 50 -120 38 0 70 32 70 70 0 38 -32 70
-70 70 -17 0 -39 -9 -50 -20z"/>
<path d="M9411 3154 c-12 -15 -21 -34 -21 -44 0 -34 39 -70 75 -70 36 0 75 36
75 70 0 34 -39 70 -75 70 -24 0 -39 -7 -54 -26z"/>
<path d="M2550 3120 c-26 -26 -25 -60 1 -94 25 -31 66 -35 100 -8 28 23 30 73
4 102 -24 26 -79 26 -105 0z"/>
<path d="M5010 3133 c-53 -19 -68 -86 -28 -123 63 -59 157 32 101 98 -20 23
-50 33 -73 25z"/>
<path d="M11027 3122 c-40 -44 -7 -122 51 -122 59 0 92 67 56 118 -20 28 -83
31 -107 4z"/>
<path d="M2032 3079 c-53 -16 -117 -87 -131 -146 -23 -95 17 -179 103 -219
134 -62 314 -2 346 115 42 156 -142 300 -318 250z m185 -85 c77 -45 99 -140
45 -194 -51 -51 -154 -65 -229 -31 -59 27 -77 58 -71 126 8 92 71 140 168 129
25 -3 64 -17 87 -30z"/>
<path d="M3975 3055 c-46 -46 -19 -118 44 -118 66 0 98 76 51 123 -27 27 -66
25 -95 -5z"/>
<path d="M7641 3024 c-12 -15 -21 -34 -21 -44 0 -34 39 -70 75 -70 36 0 75 36
75 70 0 34 -39 70 -75 70 -24 0 -39 -7 -54 -26z"/>
<path d="M8025 3031 c-47 -29 -73 -62 -86 -111 -35 -131 49 -243 181 -243 85
0 168 28 212 73 32 32 38 44 38 80 0 81 -54 149 -154 196 -64 30 -148 32 -191
5z m170 -65 c62 -28 115 -86 115 -125 0 -36 -35 -69 -95 -87 -102 -30 -179
-12 -209 50 -20 43 -20 79 0 122 31 66 102 81 189 40z"/>
<path d="M3245 3005 c-14 -13 -25 -36 -25 -50 0 -28 40 -75 64 -75 29 0 64 22
75 48 16 33 -1 75 -35 91 -37 16 -52 14 -79 -14z"/>
<path d="M1249 2968 c-16 -5 -32 -22 -39 -39 -35 -84 84 -137 129 -58 31 55
-28 118 -90 97z"/>
<path d="M6850 2940 c-43 -43 -11 -120 50 -120 38 0 70 32 70 70 0 38 -32 70
-70 70 -17 0 -39 -9 -50 -20z"/>
<path d="M8752 2887 c-43 -46 -15 -120 46 -120 43 0 72 28 72 70 0 66 -74 97
-118 50z"/>
<path d="M5589 2852 c-49 -40 -17 -122 48 -122 65 0 93 61 52 114 -25 31 -66
35 -100 8z"/>
<path d="M4842 2699 c-51 -15 -116 -86 -130 -141 -32 -125 48 -227 190 -244
96 -11 183 28 226 101 32 56 27 146 -10 203 -51 76 -170 111 -276 81z m165
-68 c50 -23 74 -57 80 -114 8 -83 -57 -141 -157 -141 -100 1 -160 52 -160 135
0 109 123 171 237 120z"/>
<path d="M742 2637 c-28 -30 -28 -68 1 -95 48 -45 120 -16 120 48 0 65 -76 95
-121 47z"/>
<path d="M10040 2640 c-43 -43 -11 -120 50 -120 38 0 70 32 70 70 0 38 -32 70
-70 70 -17 0 -39 -9 -50 -20z"/>
<path d="M10719 2592 c-49 -40 -17 -122 48 -122 65 0 93 61 52 114 -25 31 -66
35 -100 8z"/>
<path d="M6225 2535 c-14 -13 -25 -30 -25 -37 1 -59 51 -98 100 -78 27 11 50
46 50 76 0 24 -47 64 -75 64 -14 0 -37 -11 -50 -25z"/>
<path d="M4400 2510 c-42 -42 -12 -120 48 -120 46 0 72 25 72 70 0 29 -6 43
-22 54 -31 22 -74 20 -98 -4z"/>
<path d="M1776 2499 c-50 -39 -22 -122 42 -122 43 0 72 28 72 70 0 65 -61 93
-114 52z"/>
<path d="M2582 2500 c-48 -45 -16 -123 50 -123 64 0 92 83 42 122 -34 27 -64
27 -92 1z"/>
<path d="M3710 2430 c-42 -42 -8 -120 53 -120 58 0 91 85 49 123 -25 23 -78
21 -102 -3z"/>
<path d="M9222 2423 c-7 -3 -19 -18 -28 -35 -13 -24 -13 -35 -4 -58 31 -74
140 -51 140 30 0 45 -63 81 -108 63z"/>
<path d="M110 2373 c-55 -20 -68 -87 -24 -122 15 -12 34 -21 44 -21 31 0 70
39 70 70 0 47 -50 87 -90 73z"/>
<path d="M7358 2365 c-78 -43 -14 -164 68 -126 54 24 53 105 -2 130 -31 14
-33 14 -66 -4z"/>
<path d="M8163 2274 c-20 -20 -24 -31 -19 -57 9 -43 29 -61 71 -61 42 0 62 18
71 61 5 26 1 37 -19 57 -15 15 -38 26 -52 26 -14 0 -37 -11 -52 -26z"/>
<path d="M5526 2239 c-46 -36 -26 -110 34 -124 64 -15 108 78 58 125 -28 26
-58 26 -92 -1z"/>
<path d="M9914 2158 c-69 -33 -37 -138 42 -138 24 0 64 47 64 75 0 30 -41 75
-67 74 -10 0 -28 -5 -39 -11z"/>
<path d="M871 2114 c-27 -34 -27 -64 -1 -92 45 -48 123 -16 123 50 0 64 -83
92 -122 42z"/>
<path d="M6803 2108 c-12 -6 -27 -24 -34 -40 -34 -83 86 -136 130 -57 19 33 1
81 -35 98 -29 13 -32 13 -61 -1z"/>
<path d="M1586 2038 c-36 -51 -5 -118 54 -118 17 0 39 9 50 20 45 45 11 120
-54 120 -25 0 -39 -7 -50 -22z"/>
<path d="M3612 1994 c-28 -20 -31 -83 -4 -107 25 -23 78 -21 102 3 61 61 -27
154 -98 104z"/>
<path d="M8690 1983 c-76 -27 -58 -143 21 -143 55 0 92 87 52 122 -22 19 -53
28 -73 21z"/>
<path d="M327 1955 c-134 -47 -166 -211 -62 -311 120 -116 334 -59 360 95 25
147 -146 271 -298 216z m163 -70 c90 -46 97 -176 12 -218 -73 -37 -150 -26
-199 27 -28 30 -33 43 -33 85 0 85 64 136 154 125 21 -2 51 -11 66 -19z"/>
<path d="M10831 1904 c-12 -15 -21 -34 -21 -44 0 -32 39 -70 71 -70 34 0 79
39 79 68 0 35 -38 72 -75 72 -24 0 -39 -7 -54 -26z"/>
<path d="M2892 1857 c-45 -48 -14 -117 51 -117 42 0 67 26 67 68 0 65 -74 96
-118 49z"/>
<path d="M2220 1853 c-51 -19 -68 -85 -30 -123 61 -61 159 33 103 98 -20 23
-50 33 -73 25z"/>
<path d="M6103 1850 c-48 -19 -58 -87 -17 -119 53 -41 114 -13 114 52 0 51
-50 86 -97 67z"/>
<path d="M4483 1768 c-29 -14 -46 -61 -32 -92 11 -24 47 -46 75 -46 24 0 64
47 64 75 0 30 -41 75 -67 74 -10 0 -28 -5 -40 -11z"/>
<path d="M7530 1767 c-52 -26 -49 -104 4 -128 36 -17 73 -3 92 32 19 38 6 80
-32 98 -31 14 -33 14 -64 -2z"/>
<path d="M9644 1736 c-151 -47 -196 -215 -84 -310 108 -90 343 -32 381 94 25
82 -45 179 -152 213 -60 20 -89 20 -145 3z m111 -57 c116 -32 167 -143 89
-194 -37 -24 -140 -47 -177 -40 -73 16 -107 54 -107 120 0 56 62 107 150 124
3 0 23 -4 45 -10z"/>
<path d="M6548 1691 c-86 -28 -131 -85 -136 -175 -4 -78 24 -138 86 -181 41
-28 49 -30 141 -30 90 0 101 2 140 28 48 32 81 91 81 147 0 73 -65 162 -142
194 -46 20 -135 28 -170 17z m145 -75 c41 -17 93 -76 102 -115 9 -44 -21 -101
-65 -123 -46 -23 -134 -23 -180 0 -44 22 -80 75 -80 119 0 47 27 101 59 118
33 18 122 19 164 1z"/>
<path d="M5200 1683 c-55 -20 -68 -87 -24 -122 15 -12 34 -21 44 -21 33 0 70
39 70 74 0 46 -49 84 -90 69z"/>
<path d="M9223 1638 c-68 -33 -39 -138 38 -138 28 0 69 44 69 73 0 51 -61 88
-107 65z"/>
<path d="M1561 1554 c-27 -35 -27 -65 2 -92 48 -46 120 -16 120 50 0 64 -83
92 -122 42z"/>
<path d="M10370 1417 c-76 -38 -28 -154 55 -133 29 7 56 56 48 87 -11 41 -65
65 -103 46z"/>
<path d="M7982 1387 c-28 -30 -28 -68 1 -95 48 -45 120 -16 120 48 0 65 -76
95 -121 47z"/>
<path d="M2500 1350 c-11 -11 -20 -33 -20 -50 0 -17 9 -39 20 -50 45 -45 120
-11 120 53 0 20 -8 41 -18 50 -25 23 -78 21 -102 -3z"/>
<path d="M11072 1340 c-27 -11 -44 -52 -36 -85 8 -31 23 -43 62 -51 25 -5 36
-1 56 19 33 33 33 71 1 102 -25 26 -45 30 -83 15z"/>
<path d="M760 1293 c-76 -27 -58 -143 21 -143 55 0 92 87 52 122 -22 19 -53
28 -73 21z"/>
<path d="M3280 1267 c-133 -70 -148 -235 -28 -314 75 -50 221 -43 289 14 99
83 67 237 -63 304 -53 27 -142 26 -198 -4z m184 -60 c42 -24 76 -76 76 -118 0
-115 -225 -151 -290 -47 -72 115 87 238 214 165z"/>
<path d="M6821 1214 c-12 -15 -21 -34 -21 -44 0 -31 39 -70 70 -70 62 0 97 66
60 113 -29 37 -80 37 -109 1z"/>
<path d="M9742 1204 c-62 -43 -32 -134 44 -134 24 0 64 47 64 75 0 30 -41 75
-67 75 -10 0 -29 -7 -41 -16z"/>
<path d="M3940 1173 c-37 -47 -2 -113 60 -113 33 0 70 40 70 74 0 63 -90 89
-130 39z"/>
<path d="M5742 1127 c-44 -47 -13 -117 52 -117 41 0 69 29 69 70 0 65 -76 95
-121 47z"/>
<path d="M8761 1124 c-12 -15 -21 -34 -21 -44 0 -34 39 -70 75 -70 36 0 75 36
75 70 0 34 -39 70 -75 70 -24 0 -39 -7 -54 -26z"/>
<path d="M1663 990 c-48 -19 -58 -87 -17 -119 34 -27 64 -27 92 -1 57 53 -3
149 -75 120z"/>
<path d="M4711 954 c-12 -15 -21 -34 -21 -44 0 -34 39 -70 75 -70 36 0 75 36
75 70 0 34 -39 70 -75 70 -24 0 -39 -7 -54 -26z"/>
<path d="M7880 870 c-26 -26 -26 -81 -2 -103 25 -23 78 -21 102 3 43 43 11
120 -50 120 -17 0 -39 -9 -50 -20z"/>
<path d="M405 815 c-14 -13 -25 -36 -25 -50 0 -28 40 -75 64 -75 29 0 64 22
75 48 16 33 -1 75 -35 91 -37 16 -52 14 -79 -14z"/>
<path d="M10383 820 c-25 -10 -43 -39 -43 -70 0 -28 43 -70 73 -70 63 0 91 89
41 129 -29 23 -38 24 -71 11z"/>
<path d="M9275 735 c-14 -13 -25 -36 -25 -50 0 -28 40 -75 64 -75 29 0 64 22
75 48 16 33 -1 75 -35 91 -37 16 -52 14 -79 -14z"/>
<path d="M2623 740 c-47 -19 -56 -78 -18 -115 42 -43 106 -23 121 37 5 22 0
33 -24 58 -32 31 -43 34 -79 20z"/>
<path d="M3440 610 c-43 -43 -11 -120 50 -120 38 0 70 32 70 70 0 38 -32 70
-70 70 -17 0 -39 -9 -50 -20z"/>
<path d="M6420 610 c-26 -26 -26 -81 -2 -103 25 -23 78 -21 102 3 43 43 11
120 -50 120 -17 0 -39 -9 -50 -20z"/>
<path d="M11062 597 c-43 -46 -15 -120 46 -120 43 0 72 28 72 70 0 66 -74 97
-118 50z"/>
<path d="M5382 590 c-22 -9 -42 -46 -42 -76 0 -24 47 -64 75 -64 14 0 37 11
52 26 20 20 24 31 19 57 -4 17 -12 37 -19 44 -18 17 -59 24 -85 13z"/>
<path d="M8438 575 c-148 -54 -189 -224 -76 -308 49 -36 92 -47 181 -47 138 0
212 56 210 160 -2 143 -171 248 -315 195z m178 -75 c68 -43 97 -137 54 -180
-30 -30 -63 -40 -128 -40 -79 0 -126 15 -156 51 -56 66 -15 158 83 190 38 12
109 2 147 -21z"/>
<path d="M997 552 c-40 -45 -6 -122 53 -122 17 0 39 9 50 20 45 45 11 120 -53
120 -20 0 -41 -8 -50 -18z"/>
<path d="M7166 554 c-43 -43 -19 -116 41 -122 62 -6 101 62 63 111 -25 31 -78
37 -104 11z"/>
<path d="M4209 498 c-16 -5 -32 -22 -39 -39 -35 -84 84 -137 129 -58 31 55
-28 118 -90 97z"/>
<path d="M9802 437 c-43 -46 -15 -120 46 -120 67 0 97 76 49 121 -30 28 -68
28 -95 -1z"/>
<path d="M4912 431 c-94 -33 -154 -111 -154 -201 0 -99 65 -159 182 -168 230
-16 339 151 197 305 -71 78 -136 96 -225 64z m144 -72 c72 -44 101 -144 55
-192 -40 -44 -159 -61 -226 -33 -49 21 -69 56 -62 112 11 105 143 169 233 113z"/>
<path d="M1730 423 c-51 -19 -68 -85 -30 -123 61 -61 159 32 103 98 -20 23
-50 33 -73 25z"/>
</g>
</svg>
