<?xml version="1.0" standalone="no"?>
<!DOCTYPE svg PUBLIC "-//W3C//DTD SVG 20010904//EN"
 "http://www.w3.org/TR/2001/REC-SVG-20010904/DTD/svg10.dtd">
<svg version="1.0" xmlns="http://www.w3.org/2000/svg"
 width="1125.000000pt" height="900.000000pt" viewBox="0 0 1125.000000 900.000000"
 preserveAspectRatio="xMidYMid meet">
<metadata>
Created by potrace 1.13, written by Peter Selinger 2001-2015
</metadata>
<g transform="translate(0.000000,900.000000) scale(0.100000,-0.100000)"
fill="#000000" stroke="none">
<path d="M0 4500 l0 -4500 5625 0 5625 0 0 4500 0 4500 -5625 0 -5625 0 0
-4500z m11208 4423 c3 -31 3 -31 -35 -26 -49 6 -83 -23 -83 -71 0 -45 30 -71
81 -69 l39 2 0 -254 0 -255 -732 -2 -733 -3 -3 -32 -3 -33 736 0 735 0 -2
-257 -3 -258 -41 3 c-34 3 -45 -1 -58 -20 -22 -31 -20 -74 5 -99 17 -17 29
-20 60 -16 l39 5 -2 -536 -3 -537 -37 3 c-68 6 -105 -71 -57 -119 17 -17 29
-20 60 -16 l39 5 -2 -276 -3 -277 -732 -3 -733 -2 0 -30 0 -30 733 -2 732 -3
3 -258 2 -258 -33 6 c-75 14 -120 -78 -60 -125 21 -16 35 -20 60 -15 l33 6 0
-550 0 -549 -39 5 c-48 7 -81 -21 -81 -67 0 -46 33 -74 81 -67 l39 5 0 -528 0
-529 -39 2 c-51 2 -81 -24 -81 -69 0 -48 34 -77 83 -71 l37 5 -2 -256 -3 -257
-142 -3 -143 -3 0 -29 0 -30 145 0 145 0 0 -260 0 -261 -33 6 c-25 5 -39 1
-60 -15 -59 -47 -15 -139 60 -125 l33 6 0 -540 0 -540 -39 2 c-51 2 -81 -24
-81 -69 0 -48 34 -77 83 -71 l38 5 -3 -86 -3 -87 -5580 0 -5580 0 -3 407 -2
408 422 2 423 3 3 33 3 32 -425 0 -426 0 0 1180 0 1180 625 0 625 0 0 30 0 30
-623 2 -622 3 0 1180 0 1180 793 3 792 2 0 30 0 30 -792 2 -793 3 -3 1198 -2
1197 795 0 795 0 0 35 0 35 -795 0 -795 0 0 348 c0 192 3 352 7 355 3 4 2515
6 5582 5 l5576 -3 3 -32z"/>
<path d="M262 8893 c-23 -9 -43 -60 -33 -85 29 -78 141 -63 141 19 0 47 -61
85 -108 66z"/>
<path d="M626 8879 c-50 -39 -22 -122 42 -122 43 0 72 28 72 70 0 65 -61 93
-114 52z"/>
<path d="M995 8875 c-28 -27 -30 -42 -14 -79 16 -34 58 -51 91 -35 26 11 48
46 48 75 0 24 -47 64 -75 64 -14 0 -37 -11 -50 -25z"/>
<path d="M1372 8877 c-45 -48 -16 -120 48 -120 41 0 70 28 70 69 0 66 -74 98
-118 51z"/>
<path d="M1745 8875 c-39 -38 -32 -86 15 -110 59 -31 124 26 101 88 -19 51
-77 62 -116 22z"/>
<path d="M2120 8880 c-26 -26 -26 -81 0 -105 29 -26 79 -24 102 4 27 34 23 75
-8 100 -34 26 -68 27 -94 1z"/>
<path d="M2495 8875 c-46 -46 -19 -118 44 -118 66 0 98 76 51 123 -27 27 -66
25 -95 -5z"/>
<path d="M2873 8885 c-70 -49 0 -160 76 -120 48 24 55 72 16 110 -27 28 -61
32 -92 10z"/>
<path d="M3242 8877 c-43 -46 -15 -120 46 -120 43 0 72 28 72 69 0 66 -74 98
-118 51z"/>
<path d="M3615 8875 c-28 -27 -30 -42 -14 -78 32 -71 139 -41 139 39 0 24 -47
64 -75 64 -14 0 -37 -11 -50 -25z"/>
<path d="M4002 8877 c-45 -48 -16 -120 48 -120 65 0 95 76 47 121 -30 28 -68
28 -95 -1z"/>
<path d="M4375 8875 c-39 -38 -32 -86 15 -110 59 -31 124 26 101 88 -19 51
-77 62 -116 22z"/>
<path d="M4750 8880 c-26 -26 -26 -81 0 -105 29 -26 79 -24 102 4 27 34 23 75
-8 100 -34 26 -68 27 -94 1z"/>
<path d="M5125 8875 c-39 -38 -32 -86 16 -110 76 -40 146 71 76 120 -31 22
-65 18 -92 -10z"/>
<path d="M5500 8880 c-47 -47 -15 -123 51 -123 63 0 90 72 44 118 -29 30 -68
32 -95 5z"/>
<path d="M5876 8879 c-50 -39 -22 -122 42 -122 43 0 72 28 72 70 0 65 -61 93
-114 52z"/>
<path d="M6257 8889 c-28 -16 -40 -58 -27 -90 26 -61 121 -54 135 10 14 64
-52 113 -108 80z"/>
<path d="M6622 8877 c-45 -48 -16 -120 48 -120 65 0 95 76 47 121 -30 28 -68
28 -95 -1z"/>
<path d="M6995 8875 c-39 -38 -32 -86 16 -110 76 -40 146 71 76 120 -31 22
-65 18 -92 -10z"/>
<path d="M7370 8880 c-26 -26 -26 -81 0 -105 29 -26 79 -24 102 4 25 32 23 67
-7 96 -29 30 -68 32 -95 5z"/>
<path d="M7746 8879 c-50 -39 -22 -122 42 -122 43 0 72 28 72 70 0 65 -61 93
-114 52z"/>
<path d="M8132 8893 c-23 -9 -43 -60 -33 -85 29 -78 141 -63 141 19 0 47 -61
85 -108 66z"/>
<path d="M8496 8879 c-50 -39 -22 -122 42 -122 43 0 72 28 72 70 0 65 -61 93
-114 52z"/>
<path d="M8865 8875 c-28 -27 -30 -42 -14 -79 16 -34 58 -51 91 -35 26 11 48
46 48 75 0 24 -47 64 -75 64 -14 0 -37 -11 -50 -25z"/>
<path d="M9242 8880 c-48 -45 -16 -123 50 -123 61 0 91 78 45 121 -29 28 -67
28 -95 2z"/>
<path d="M9616 8879 c-50 -39 -22 -122 42 -122 43 0 72 28 72 70 0 65 -61 93
-114 52z"/>
<path d="M9993 8885 c-70 -49 0 -160 76 -120 48 24 55 72 16 110 -27 28 -61
32 -92 10z"/>
<path d="M10362 8877 c-45 -48 -16 -120 48 -120 65 0 95 76 47 121 -30 28 -68
28 -95 -1z"/>
<path d="M10735 8875 c-26 -25 -29 -35 -19 -73 16 -58 110 -60 134 -3 31 75
-58 134 -115 76z"/>
<path d="M1965 8260 c-26 -29 -24 -79 4 -102 70 -56 164 39 101 102 -26 26
-81 26 -105 0z"/>
<path d="M2391 8254 c-12 -15 -21 -34 -21 -44 0 -34 39 -70 75 -70 36 0 75 36
75 70 0 34 -39 70 -75 70 -24 0 -39 -7 -54 -26z"/>
<path d="M2801 8254 c-12 -15 -21 -34 -21 -44 0 -34 39 -70 75 -70 36 0 75 36
75 70 0 34 -39 70 -75 70 -24 0 -39 -7 -54 -26z"/>
<path d="M5232 8264 c-50 -34 -15 -124 48 -124 17 0 39 9 50 20 11 11 20 33
20 50 0 59 -67 90 -118 54z"/>
<path d="M5655 8260 c-42 -46 -8 -120 54 -120 34 0 71 37 71 71 0 60 -85 93
-125 49z"/>
<path d="M6061 8254 c-12 -15 -21 -34 -21 -44 0 -34 39 -70 75 -70 36 0 75 36
75 70 0 34 -39 70 -75 70 -24 0 -39 -7 -54 -26z"/>
<path d="M8431 8254 c-12 -15 -21 -34 -21 -44 0 -34 39 -70 75 -70 36 0 75 36
75 70 0 34 -39 70 -75 70 -24 0 -39 -7 -54 -26z"/>
<path d="M8860 8260 c-61 -61 27 -154 98 -104 28 20 31 83 4 107 -25 23 -78
21 -102 -3z"/>
<path d="M9270 8260 c-11 -11 -20 -33 -20 -50 0 -17 9 -39 20 -50 45 -45 120
-11 120 54 0 60 -77 89 -120 46z"/>
<path d="M3214 8236 c-3 -8 -4 -23 -2 -33 3 -17 42 -18 831 -21 l827 -2 0 35
0 35 -825 0 c-710 0 -826 -2 -831 -14z"/>
<path d="M6497 8243 c-4 -3 -7 -19 -7 -35 l0 -28 815 0 815 0 0 35 0 35 -808
0 c-445 0 -812 -3 -815 -7z"/>
<path d="M245 7650 c-42 -47 -8 -120 55 -120 33 0 70 40 70 76 0 57 -86 87
-125 44z"/>
<path d="M620 7650 c-43 -43 -11 -120 50 -120 17 0 39 9 50 20 26 26 26 81 2
103 -25 23 -78 21 -102 -3z"/>
<path d="M991 7644 c-12 -15 -21 -34 -21 -44 0 -34 39 -70 75 -70 36 0 75 36
75 70 0 34 -39 70 -75 70 -24 0 -39 -7 -54 -26z"/>
<path d="M1370 7650 c-43 -43 -11 -120 50 -120 59 0 90 67 54 118 -20 29 -76
30 -104 2z"/>
<path d="M1741 7644 c-12 -15 -21 -34 -21 -44 0 -32 39 -70 71 -70 34 0 79 39
79 68 0 35 -38 72 -75 72 -24 0 -39 -7 -54 -26z"/>
<path d="M2117 7652 c-40 -44 -7 -122 51 -122 60 0 94 78 52 120 -26 26 -81
26 -103 2z"/>
<path d="M2490 7650 c-62 -62 31 -158 99 -102 28 22 31 75 6 102 -24 26 -79
26 -105 0z"/>
<path d="M2860 7643 c-37 -47 -2 -113 60 -113 33 0 70 40 70 74 0 63 -90 89
-130 39z"/>
<path d="M3240 7650 c-43 -43 -11 -120 50 -120 59 0 90 67 54 118 -20 29 -76
30 -104 2z"/>
<path d="M3611 7644 c-12 -15 -21 -34 -21 -44 0 -32 39 -70 71 -70 34 0 79 39
79 68 0 35 -38 72 -75 72 -24 0 -39 -7 -54 -26z"/>
<path d="M4000 7650 c-43 -43 -11 -120 50 -120 59 0 90 67 54 118 -20 29 -76
30 -104 2z"/>
<path d="M4371 7644 c-12 -15 -21 -34 -21 -44 0 -32 39 -70 71 -70 34 0 79 39
79 68 0 35 -38 72 -75 72 -24 0 -39 -7 -54 -26z"/>
<path d="M4747 7652 c-40 -44 -7 -122 51 -122 60 0 94 78 52 120 -26 26 -81
26 -103 2z"/>
<path d="M5120 7648 c-58 -63 32 -156 98 -100 32 26 37 63 12 95 -28 35 -80
37 -110 5z"/>
<path d="M5495 7650 c-26 -29 -24 -79 4 -102 70 -56 164 39 101 102 -26 26
-81 26 -105 0z"/>
<path d="M5870 7650 c-42 -42 -8 -120 53 -120 58 0 91 85 49 123 -25 23 -78
21 -102 -3z"/>
<path d="M6241 7644 c-27 -35 -26 -59 4 -89 33 -34 77 -33 104 1 12 15 21 34
21 44 0 34 -39 70 -75 70 -24 0 -39 -7 -54 -26z"/>
<path d="M6616 7648 c-36 -51 -5 -118 54 -118 17 0 39 9 50 20 45 45 11 120
-54 120 -25 0 -39 -7 -50 -22z"/>
<path d="M6996 7654 c-43 -43 -19 -116 41 -122 62 -6 101 62 63 111 -25 31
-78 37 -104 11z"/>
<path d="M7367 7652 c-25 -28 -22 -87 5 -106 71 -50 159 43 98 104 -26 26 -81
26 -103 2z"/>
<path d="M7740 7650 c-42 -42 -8 -120 53 -120 58 0 91 85 49 123 -25 23 -78
21 -102 -3z"/>
<path d="M8115 7650 c-42 -47 -8 -120 55 -120 33 0 70 40 70 76 0 57 -86 87
-125 44z"/>
<path d="M8490 7650 c-42 -42 -8 -120 53 -120 58 0 91 85 49 123 -25 23 -78
21 -102 -3z"/>
<path d="M8861 7644 c-12 -15 -21 -34 -21 -44 0 -34 39 -70 75 -70 36 0 75 36
75 70 0 34 -39 70 -75 70 -24 0 -39 -7 -54 -26z"/>
<path d="M9237 7652 c-40 -45 -6 -122 53 -122 17 0 39 9 50 20 45 45 11 120
-53 120 -20 0 -41 -8 -50 -18z"/>
<path d="M9610 7650 c-61 -61 27 -154 98 -104 28 20 31 83 4 107 -25 23 -78
21 -102 -3z"/>
<path d="M9980 7643 c-37 -47 -2 -113 60 -113 33 0 70 40 70 74 0 63 -90 89
-130 39z"/>
<path d="M10360 7650 c-43 -43 -11 -120 50 -120 59 0 90 67 54 118 -20 29 -76
30 -104 2z"/>
<path d="M10731 7644 c-12 -15 -21 -34 -21 -44 0 -32 39 -70 71 -70 34 0 79
39 79 68 0 35 -38 72 -75 72 -24 0 -39 -7 -54 -26z"/>
<path d="M285 7075 c-40 -39 -29 -97 22 -116 62 -23 119 42 88 101 -24 47 -72
54 -110 15z"/>
<path d="M727 7089 c-48 -28 -40 -107 12 -129 75 -31 134 58 76 115 -25 26
-58 31 -88 14z"/>
<path d="M1145 7088 c-28 -16 -35 -28 -35 -65 0 -41 42 -77 80 -68 60 14 80
88 34 124 -30 24 -50 26 -79 9z"/>
<path d="M3505 7075 c-14 -13 -25 -31 -25 -39 0 -30 23 -65 50 -76 58 -24 120
44 90 99 -24 46 -78 53 -115 16z"/>
<path d="M3916 7079 c-46 -36 -26 -110 34 -124 38 -9 80 27 80 68 0 38 -7 50
-37 66 -31 16 -47 14 -77 -10z"/>
<path d="M4325 7075 c-40 -39 -29 -97 22 -116 36 -13 78 5 93 40 31 75 -58
134 -115 76z"/>
<path d="M6732 7093 c-7 -3 -19 -18 -27 -33 -40 -77 71 -147 120 -77 42 60
-24 138 -93 110z"/>
<path d="M7156 7079 c-19 -15 -26 -30 -26 -54 0 -36 36 -75 70 -75 34 0 70 39
70 75 0 36 -36 75 -70 75 -10 0 -29 -9 -44 -21z"/>
<path d="M7565 7075 c-28 -27 -32 -61 -10 -92 45 -64 151 -8 123 66 -20 54
-74 66 -113 26z"/>
<path d="M10025 7075 c-63 -63 18 -160 88 -105 35 28 37 80 5 110 -29 27 -64
25 -93 -5z"/>
<path d="M10455 7075 c-40 -39 -29 -97 22 -116 58 -22 116 36 94 94 -19 51
-77 62 -116 22z"/>
<path d="M10878 7086 c-10 -7 -21 -24 -26 -37 -28 -74 78 -130 123 -66 22 31
18 65 -10 92 -26 27 -60 32 -87 11z"/>
<path d="M1520 7030 l0 -30 825 0 825 0 0 30 0 30 -825 0 -825 0 0 -30z"/>
<path d="M4770 7030 l0 -30 820 0 820 0 0 30 0 30 -820 0 -820 0 0 -30z"/>
<path d="M8050 7030 l0 -30 820 0 820 0 0 30 0 30 -820 0 -820 0 0 -30z"/>
<path d="M245 6450 c-42 -46 -8 -120 54 -120 34 0 71 37 71 71 0 60 -85 93
-125 49z"/>
<path d="M620 6450 c-43 -43 -11 -120 50 -120 41 0 70 31 70 74 0 60 -77 89
-120 46z"/>
<path d="M991 6444 c-12 -15 -21 -34 -21 -44 0 -34 39 -70 75 -70 36 0 75 36
75 70 0 34 -39 70 -75 70 -24 0 -39 -7 -54 -26z"/>
<path d="M1370 6450 c-43 -43 -11 -120 50 -120 38 0 70 32 70 70 0 38 -32 70
-70 70 -17 0 -39 -9 -50 -20z"/>
<path d="M1741 6444 c-12 -15 -21 -34 -21 -44 0 -34 39 -70 75 -70 36 0 75 36
75 70 0 34 -39 70 -75 70 -24 0 -39 -7 -54 -26z"/>
<path d="M2117 6452 c-25 -28 -22 -87 5 -106 73 -51 160 42 98 104 -26 26 -81
26 -103 2z"/>
<path d="M2490 6450 c-62 -62 31 -158 99 -102 28 22 31 75 6 102 -24 26 -79
26 -105 0z"/>
<path d="M2860 6443 c-37 -47 -4 -113 56 -113 35 0 74 37 74 70 0 10 -9 29
-21 44 -29 36 -80 36 -109 -1z"/>
<path d="M3240 6450 c-43 -43 -11 -120 50 -120 38 0 70 32 70 70 0 38 -32 70
-70 70 -17 0 -39 -9 -50 -20z"/>
<path d="M3611 6444 c-12 -15 -21 -34 -21 -44 0 -34 39 -70 75 -70 36 0 75 36
75 70 0 34 -39 70 -75 70 -24 0 -39 -7 -54 -26z"/>
<path d="M4000 6450 c-43 -43 -11 -120 50 -120 38 0 70 32 70 70 0 38 -32 70
-70 70 -17 0 -39 -9 -50 -20z"/>
<path d="M4371 6444 c-12 -15 -21 -34 -21 -44 0 -34 39 -70 75 -70 36 0 75 36
75 70 0 34 -39 70 -75 70 -24 0 -39 -7 -54 -26z"/>
<path d="M4747 6452 c-25 -28 -22 -87 5 -106 51 -36 118 -5 118 54 0 17 -9 39
-20 50 -26 26 -81 26 -103 2z"/>
<path d="M5122 6447 c-28 -29 -28 -57 -1 -91 41 -52 122 -23 122 44 0 65 -76
95 -121 47z"/>
<path d="M5495 6450 c-26 -29 -24 -79 4 -102 70 -56 164 39 101 102 -26 26
-81 26 -105 0z"/>
<path d="M5870 6450 c-11 -11 -20 -33 -20 -50 0 -59 67 -90 118 -54 28 20 31
83 4 107 -25 23 -78 21 -102 -3z"/>
<path d="M6241 6444 c-12 -15 -21 -34 -21 -44 0 -34 39 -70 75 -70 36 0 75 36
75 70 0 34 -39 70 -75 70 -24 0 -39 -7 -54 -26z"/>
<path d="M6620 6450 c-11 -11 -20 -33 -20 -50 0 -17 9 -39 20 -50 11 -11 33
-20 50 -20 17 0 39 9 50 20 11 11 20 33 20 50 0 17 -9 39 -20 50 -11 11 -33
20 -50 20 -17 0 -39 -9 -50 -20z"/>
<path d="M6991 6444 c-12 -15 -21 -34 -21 -44 0 -33 39 -70 74 -70 60 0 93 66
56 113 -29 37 -80 37 -109 1z"/>
<path d="M7367 6452 c-25 -28 -22 -87 5 -106 71 -50 159 43 98 104 -26 26 -81
26 -103 2z"/>
<path d="M7740 6450 c-62 -62 25 -155 98 -104 28 20 31 83 4 107 -25 23 -78
21 -102 -3z"/>
<path d="M8115 6450 c-42 -46 -8 -120 54 -120 34 0 71 37 71 71 0 60 -85 93
-125 49z"/>
<path d="M8490 6450 c-11 -11 -20 -33 -20 -50 0 -17 9 -39 20 -50 45 -45 120
-11 120 53 0 20 -8 41 -18 50 -25 23 -78 21 -102 -3z"/>
<path d="M8861 6444 c-12 -15 -21 -34 -21 -44 0 -34 39 -70 75 -70 36 0 75 36
75 70 0 34 -39 70 -75 70 -24 0 -39 -7 -54 -26z"/>
<path d="M9240 6450 c-11 -11 -20 -33 -20 -50 0 -17 9 -39 20 -50 11 -11 33
-20 50 -20 17 0 39 9 50 20 11 11 20 33 20 50 0 17 -9 39 -20 50 -11 11 -33
20 -50 20 -17 0 -39 -9 -50 -20z"/>
<path d="M9610 6450 c-61 -61 27 -154 98 -104 28 20 31 83 4 107 -25 23 -78
21 -102 -3z"/>
<path d="M9980 6443 c-37 -47 -4 -113 56 -113 35 0 74 37 74 70 0 10 -9 29
-21 44 -29 36 -80 36 -109 -1z"/>
<path d="M10360 6450 c-43 -43 -11 -120 50 -120 38 0 70 32 70 70 0 38 -32 70
-70 70 -17 0 -39 -9 -50 -20z"/>
<path d="M10731 6444 c-12 -15 -21 -34 -21 -44 0 -34 39 -70 75 -70 36 0 75
36 75 70 0 34 -39 70 -75 70 -24 0 -39 -7 -54 -26z"/>
<path d="M2008 5804 c-51 -27 -46 -101 7 -126 58 -26 119 33 95 91 -6 16 -23
33 -36 40 -31 14 -33 14 -66 -5z"/>
<path d="M2440 5807 c-13 -7 -29 -25 -34 -39 -29 -83 94 -137 128 -56 17 39
11 63 -22 88 -29 23 -38 24 -72 7z"/>
<path d="M2853 5810 c-49 -20 -56 -90 -11 -123 73 -54 153 56 82 112 -29 23
-38 24 -71 11z"/>
<path d="M5273 5808 c-68 -33 -40 -138 37 -138 28 0 70 44 70 73 0 51 -61 88
-107 65z"/>
<path d="M5700 5807 c-52 -26 -49 -104 5 -129 58 -26 119 33 95 91 -6 16 -23
33 -36 40 -31 14 -33 14 -64 -2z"/>
<path d="M6110 5807 c-52 -26 -49 -104 4 -128 81 -37 138 73 64 125 -27 19
-35 20 -68 3z"/>
<path d="M8483 5810 c-49 -20 -56 -90 -11 -123 73 -54 153 56 82 112 -29 23
-38 24 -71 11z"/>
<path d="M8896 5799 c-19 -15 -26 -30 -26 -54 0 -36 36 -75 70 -75 34 0 70 39
70 75 0 36 -36 75 -70 75 -10 0 -29 -9 -44 -21z"/>
<path d="M9307 5800 c-35 -28 -37 -80 -5 -110 29 -27 64 -25 93 5 63 63 -18
160 -88 105z"/>
<path d="M3280 5750 l0 -30 830 0 830 0 0 30 0 30 -830 0 -830 0 0 -30z"/>
<path d="M6510 5750 l0 -30 815 0 815 0 0 30 0 30 -815 0 -815 0 0 -30z"/>
<path d="M262 5194 c-63 -44 -37 -134 39 -134 28 0 69 44 69 73 0 55 -65 92
-108 61z"/>
<path d="M625 5185 c-34 -33 -33 -77 1 -104 15 -12 34 -21 44 -21 34 0 70 39
70 75 0 24 -7 39 -26 54 -35 27 -59 26 -89 -4z"/>
<path d="M1008 5195 c-47 -26 -46 -99 2 -125 31 -17 59 -12 87 16 20 20 24 31
19 57 -4 17 -12 37 -19 44 -20 20 -61 23 -89 8z"/>
<path d="M1376 5189 c-19 -15 -26 -30 -26 -54 0 -36 36 -75 70 -75 34 0 70 39
70 75 0 36 -36 75 -70 75 -10 0 -29 -9 -44 -21z"/>
<path d="M1760 5197 c-52 -26 -49 -104 5 -129 58 -26 119 33 95 91 -6 16 -23
33 -36 40 -31 14 -33 14 -64 -2z"/>
<path d="M2126 5189 c-26 -20 -36 -69 -18 -95 10 -15 47 -34 67 -34 25 0 65
46 65 75 0 30 -41 75 -68 75 -11 0 -31 -9 -46 -21z"/>
<path d="M2510 5197 c-80 -40 -24 -162 59 -127 53 22 59 89 9 124 -27 19 -35
20 -68 3z"/>
<path d="M2883 5198 c-68 -33 -39 -138 38 -138 28 0 69 44 69 73 0 51 -61 88
-107 65z"/>
<path d="M3246 5189 c-36 -28 -36 -80 0 -108 15 -12 34 -21 44 -21 34 0 70 39
70 75 0 36 -36 75 -70 75 -10 0 -29 -9 -44 -21z"/>
<path d="M3630 5197 c-52 -26 -49 -104 5 -129 58 -26 119 33 95 91 -6 16 -23
33 -36 40 -31 14 -33 14 -64 -2z"/>
<path d="M4006 5189 c-36 -28 -36 -80 0 -108 15 -12 34 -21 44 -21 34 0 70 39
70 75 0 36 -36 75 -70 75 -10 0 -29 -9 -44 -21z"/>
<path d="M4390 5197 c-52 -26 -49 -104 5 -129 58 -26 119 33 95 91 -6 16 -23
33 -36 40 -31 14 -33 14 -64 -2z"/>
<path d="M4756 5189 c-26 -20 -36 -69 -18 -95 10 -15 47 -34 67 -34 25 0 65
46 65 75 0 30 -41 75 -68 75 -11 0 -31 -9 -46 -21z"/>
<path d="M5140 5197 c-52 -26 -49 -104 4 -128 36 -17 73 -3 92 32 19 38 6 80
-32 98 -31 14 -33 14 -64 -2z"/>
<path d="M5512 5194 c-62 -43 -32 -134 44 -134 23 0 64 47 64 73 0 55 -65 92
-108 61z"/>
<path d="M5875 5185 c-32 -31 -32 -69 0 -100 27 -28 45 -31 78 -14 30 16 37
28 37 66 0 22 -8 38 -26 52 -35 27 -59 26 -89 -4z"/>
<path d="M6263 5198 c-68 -33 -40 -138 37 -138 28 0 70 44 70 73 0 51 -61 88
-107 65z"/>
<path d="M6626 5189 c-19 -15 -26 -30 -26 -54 0 -36 36 -75 70 -75 34 0 70 39
70 75 0 36 -36 75 -70 75 -10 0 -29 -9 -44 -21z"/>
<path d="M7010 5197 c-52 -26 -49 -104 5 -129 58 -26 119 33 95 91 -6 16 -23
33 -36 40 -31 14 -33 14 -64 -2z"/>
<path d="M7382 5194 c-62 -43 -32 -134 44 -134 24 0 64 47 64 75 0 30 -41 75
-67 75 -10 0 -29 -7 -41 -16z"/>
<path d="M7745 5185 c-32 -31 -32 -69 0 -100 27 -28 45 -31 78 -14 30 16 37
28 37 66 0 22 -8 38 -26 52 -35 27 -59 26 -89 -4z"/>
<path d="M8132 5194 c-63 -44 -37 -134 39 -134 28 0 69 44 69 73 0 55 -65 92
-108 61z"/>
<path d="M8495 5185 c-34 -33 -33 -77 1 -104 15 -12 34 -21 44 -21 34 0 70 39
70 75 0 24 -7 39 -26 54 -35 27 -59 26 -89 -4z"/>
<path d="M8878 5195 c-47 -26 -46 -99 2 -125 31 -17 59 -12 87 16 20 20 24 31
19 57 -4 17 -12 37 -19 44 -20 20 -61 23 -89 8z"/>
<path d="M9246 5189 c-19 -15 -26 -30 -26 -54 0 -36 36 -75 70 -75 34 0 70 39
70 75 0 36 -36 75 -70 75 -10 0 -29 -9 -44 -21z"/>
<path d="M9632 5200 c-49 -20 -54 -95 -7 -126 73 -48 147 61 79 115 -29 23
-38 24 -72 11z"/>
<path d="M10003 5198 c-68 -33 -39 -138 38 -138 28 0 69 44 69 73 0 51 -61 88
-107 65z"/>
<path d="M10366 5189 c-19 -15 -26 -30 -26 -54 0 -36 36 -75 70 -75 34 0 70
39 70 75 0 36 -36 75 -70 75 -10 0 -29 -9 -44 -21z"/>
<path d="M10750 5197 c-52 -26 -49 -104 5 -129 58 -26 119 33 95 91 -6 16 -23
33 -36 40 -31 14 -33 14 -64 -2z"/>
<path d="M324 4600 c-11 -4 -26 -22 -33 -38 -34 -82 87 -141 129 -62 16 31 12
59 -15 85 -25 26 -45 30 -81 15z"/>
<path d="M746 4589 c-36 -28 -36 -80 0 -108 15 -12 35 -21 46 -21 27 0 68 45
68 75 0 30 -41 75 -68 75 -11 0 -31 -9 -46 -21z"/>
<path d="M1156 4589 c-36 -28 -36 -80 0 -108 15 -12 34 -21 44 -21 34 0 70 39
70 75 0 36 -36 75 -70 75 -10 0 -29 -9 -44 -21z"/>
<path d="M3545 4598 c-28 -16 -35 -28 -35 -65 0 -35 37 -73 72 -73 27 0 68 45
68 75 0 30 -41 75 -67 75 -10 0 -27 -6 -38 -12z"/>
<path d="M3936 4587 c-15 -15 -26 -38 -26 -52 0 -14 11 -37 26 -52 20 -20 31
-24 57 -19 43 9 61 29 61 71 0 42 -18 62 -61 71 -26 5 -37 1 -57 -19z"/>
<path d="M4363 4598 c-28 -14 -43 -55 -31 -89 9 -26 44 -49 74 -49 24 0 64 47
64 75 0 30 -41 75 -67 74 -10 0 -28 -5 -40 -11z"/>
<path d="M6746 4589 c-19 -15 -26 -30 -26 -54 0 -36 36 -75 70 -75 34 0 70 39
70 75 0 36 -36 75 -70 75 -10 0 -29 -9 -44 -21z"/>
<path d="M7175 4585 c-14 -13 -25 -36 -25 -50 0 -30 41 -75 68 -75 35 0 72 38
72 75 0 24 -7 39 -26 54 -35 27 -59 26 -89 -4z"/>
<path d="M7589 4591 c-16 -13 -23 -29 -23 -55 0 -46 23 -70 69 -70 46 0 69 24
69 70 0 41 -31 74 -69 74 -13 0 -33 -8 -46 -19z"/>
<path d="M10049 4591 c-28 -23 -32 -83 -6 -108 25 -26 85 -22 108 6 26 32 24
67 -6 96 -29 30 -64 32 -96 6z"/>
<path d="M10493 4598 c-28 -14 -43 -55 -31 -89 9 -26 44 -49 74 -49 24 0 64
47 64 75 0 30 -41 75 -67 74 -10 0 -28 -5 -40 -11z"/>
<path d="M10896 4589 c-19 -15 -26 -30 -26 -54 0 -36 36 -75 70 -75 34 0 70
39 70 75 0 36 -36 75 -70 75 -10 0 -29 -9 -44 -21z"/>
<path d="M1580 4540 l0 -30 825 0 825 0 0 30 0 30 -825 0 -825 0 0 -30z"/>
<path d="M4780 4540 l0 -30 820 0 820 0 0 30 0 30 -820 0 -820 0 0 -30z"/>
<path d="M8060 4540 l0 -30 820 0 820 0 0 30 0 30 -820 0 -820 0 0 -30z"/>
<path d="M245 3960 c-23 -26 -23 -74 0 -100 40 -45 125 -11 125 50 0 59 -86
93 -125 50z"/>
<path d="M620 3960 c-42 -42 -12 -120 48 -120 44 0 72 26 72 66 0 43 -29 74
-70 74 -17 0 -39 -9 -50 -20z"/>
<path d="M991 3954 c-12 -15 -21 -34 -21 -44 0 -34 39 -70 75 -70 36 0 75 36
75 70 0 34 -39 70 -75 70 -24 0 -39 -7 -54 -26z"/>
<path d="M1370 3960 c-11 -11 -20 -33 -20 -50 0 -17 9 -39 20 -50 11 -11 33
-20 50 -20 17 0 39 9 50 20 11 11 20 33 20 50 0 17 -9 39 -20 50 -11 11 -33
20 -50 20 -17 0 -39 -9 -50 -20z"/>
<path d="M1741 3954 c-12 -15 -21 -34 -21 -44 0 -34 39 -70 75 -70 36 0 75 36
75 70 0 34 -39 70 -75 70 -24 0 -39 -7 -54 -26z"/>
<path d="M2122 3964 c-31 -21 -31 -87 0 -108 51 -36 118 -5 118 54 0 59 -67
90 -118 54z"/>
<path d="M2492 3957 c-44 -47 -13 -117 52 -117 42 0 69 29 68 72 -2 63 -77 91
-120 45z"/>
<path d="M2865 3960 c-42 -46 -10 -120 51 -120 35 0 74 37 74 70 0 10 -9 29
-21 44 -26 33 -77 36 -104 6z"/>
<path d="M3240 3960 c-11 -11 -20 -33 -20 -50 0 -17 9 -39 20 -50 11 -11 33
-20 50 -20 17 0 39 9 50 20 11 11 20 33 20 50 0 17 -9 39 -20 50 -11 11 -33
20 -50 20 -17 0 -39 -9 -50 -20z"/>
<path d="M3611 3954 c-12 -15 -21 -34 -21 -44 0 -34 39 -70 75 -70 36 0 75 36
75 70 0 34 -39 70 -75 70 -24 0 -39 -7 -54 -26z"/>
<path d="M4000 3960 c-11 -11 -20 -33 -20 -50 0 -17 9 -39 20 -50 11 -11 33
-20 50 -20 17 0 39 9 50 20 11 11 20 33 20 50 0 17 -9 39 -20 50 -11 11 -33
20 -50 20 -17 0 -39 -9 -50 -20z"/>
<path d="M4371 3954 c-12 -15 -21 -34 -21 -44 0 -34 39 -70 75 -70 36 0 75 36
75 70 0 34 -39 70 -75 70 -24 0 -39 -7 -54 -26z"/>
<path d="M4752 3964 c-16 -11 -22 -25 -22 -54 0 -29 6 -43 22 -54 51 -36 118
-5 118 54 0 59 -67 90 -118 54z"/>
<path d="M5121 3954 c-12 -15 -21 -34 -21 -44 0 -10 9 -29 21 -44 41 -52 122
-23 122 44 0 67 -81 96 -122 44z"/>
<path d="M5499 3962 c-48 -40 -17 -122 47 -122 66 0 98 74 51 118 -28 27 -67
28 -98 4z"/>
<path d="M5870 3960 c-45 -45 -11 -120 53 -120 43 0 67 26 67 73 0 26 -6 40
-22 51 -31 22 -74 20 -98 -4z"/>
<path d="M6241 3954 c-12 -15 -21 -34 -21 -44 0 -34 39 -70 75 -70 36 0 75 36
75 70 0 34 -39 70 -75 70 -24 0 -39 -7 -54 -26z"/>
<path d="M6620 3960 c-43 -43 -11 -120 50 -120 38 0 70 32 70 70 0 38 -32 70
-70 70 -17 0 -39 -9 -50 -20z"/>
<path d="M6991 3954 c-12 -15 -21 -34 -21 -44 0 -34 39 -70 75 -70 65 0 93 72
48 123 -25 27 -78 22 -102 -9z"/>
<path d="M7372 3964 c-28 -20 -31 -83 -4 -107 44 -40 122 -7 122 51 0 59 -67
92 -118 56z"/>
<path d="M7740 3958 c-43 -47 -12 -118 53 -118 43 0 67 26 67 73 0 62 -77 91
-120 45z"/>
<path d="M8115 3960 c-42 -46 -10 -120 51 -120 40 0 74 32 74 70 0 59 -86 93
-125 50z"/>
<path d="M8490 3960 c-42 -42 -12 -120 48 -120 44 0 72 26 72 66 0 43 -29 74
-70 74 -17 0 -39 -9 -50 -20z"/>
<path d="M8861 3954 c-12 -15 -21 -34 -21 -44 0 -34 39 -70 75 -70 36 0 75 36
75 70 0 34 -39 70 -75 70 -24 0 -39 -7 -54 -26z"/>
<path d="M9240 3960 c-43 -43 -11 -120 50 -120 38 0 70 32 70 70 0 38 -32 70
-70 70 -17 0 -39 -9 -50 -20z"/>
<path d="M9610 3958 c-43 -47 -12 -118 53 -118 43 0 67 26 67 73 0 62 -77 91
-120 45z"/>
<path d="M9987 3963 c-45 -51 -17 -123 48 -123 36 0 75 36 75 70 0 10 -9 29
-21 44 -24 31 -77 36 -102 9z"/>
<path d="M10360 3960 c-43 -43 -11 -120 50 -120 38 0 70 32 70 70 0 38 -32 70
-70 70 -17 0 -39 -9 -50 -20z"/>
<path d="M10731 3954 c-12 -15 -21 -34 -21 -44 0 -34 39 -70 75 -70 36 0 75
36 75 70 0 34 -39 70 -75 70 -24 0 -39 -7 -54 -26z"/>
<path d="M1661 3374 c-12 -15 -21 -34 -21 -44 0 -34 39 -70 75 -70 36 0 75 36
75 70 0 34 -39 70 -75 70 -24 0 -39 -7 -54 -26z"/>
<path d="M2090 3380 c-63 -63 31 -158 101 -102 28 23 30 73 4 102 -24 26 -79
26 -105 0z"/>
<path d="M2500 3380 c-42 -42 -8 -120 53 -120 58 0 91 85 49 123 -25 23 -78
21 -102 -3z"/>
<path d="M4925 3380 c-42 -47 -8 -120 55 -120 33 0 70 40 70 75 0 54 -88 86
-125 45z"/>
<path d="M5351 3374 c-12 -15 -21 -34 -21 -44 0 -34 39 -70 75 -70 36 0 75 36
75 70 0 34 -39 70 -75 70 -24 0 -39 -7 -54 -26z"/>
<path d="M5760 3378 c-26 -28 -26 -58 1 -92 39 -50 122 -22 122 42 0 66 -78
98 -123 50z"/>
<path d="M8130 3380 c-42 -42 -8 -120 53 -120 58 0 91 85 49 123 -25 23 -78
21 -102 -3z"/>
<path d="M8560 3380 c-43 -43 -11 -120 50 -120 38 0 70 32 70 70 0 38 -32 70
-70 70 -17 0 -39 -9 -50 -20z"/>
<path d="M8967 3382 c-23 -25 -21 -78 3 -102 43 -43 120 -11 120 50 0 17 -9
39 -20 50 -26 26 -81 26 -103 2z"/>
<path d="M2950 3320 l0 -30 825 0 825 0 0 30 0 30 -825 0 -825 0 0 -30z"/>
<path d="M6180 3320 l0 -30 815 0 815 0 0 30 0 30 -815 0 -815 0 0 -30z"/>
<path d="M9410 3320 l0 -30 810 0 810 0 0 30 0 30 -810 0 -810 0 0 -30z"/>
<path d="M270 2787 c-14 -7 -31 -25 -38 -40 -27 -56 35 -115 93 -89 55 25 58
100 5 127 -35 18 -29 18 -60 2z"/>
<path d="M643 2790 c-46 -19 -57 -83 -20 -118 48 -45 117 -14 117 51 0 51 -50
86 -97 67z"/>
<path d="M1019 2788 c-16 -5 -32 -22 -39 -39 -35 -84 84 -137 129 -58 31 55
-28 118 -90 97z"/>
<path d="M1393 2790 c-46 -19 -57 -83 -20 -118 47 -44 117 -13 117 52 0 50
-50 84 -97 66z"/>
<path d="M1771 2788 c-54 -19 -66 -74 -26 -113 28 -29 65 -32 93 -7 32 26 37
63 13 94 -24 30 -48 38 -80 26z"/>
<path d="M2150 2793 c-51 -19 -68 -85 -30 -123 61 -61 159 32 103 98 -20 23
-50 33 -73 25z"/>
<path d="M2508 2784 c-73 -39 -24 -150 57 -130 29 7 56 56 48 87 -12 43 -65
65 -105 43z"/>
<path d="M2890 2787 c-14 -7 -31 -24 -39 -38 -12 -22 -12 -29 0 -54 27 -57
105 -57 131 0 26 57 -37 119 -92 92z"/>
<path d="M3263 2790 c-46 -19 -57 -83 -20 -118 47 -44 117 -13 117 52 0 50
-50 84 -97 66z"/>
<path d="M3639 2788 c-16 -5 -32 -22 -39 -39 -35 -84 84 -137 129 -58 31 55
-28 118 -90 97z"/>
<path d="M4030 2793 c-53 -19 -67 -83 -27 -121 47 -44 117 -13 117 52 0 46
-49 84 -90 69z"/>
<path d="M4399 2788 c-38 -13 -57 -62 -38 -97 32 -57 111 -49 132 13 17 51
-40 103 -94 84z"/>
<path d="M4780 2793 c-51 -19 -68 -85 -30 -123 61 -61 159 32 103 98 -20 23
-50 33 -73 25z"/>
<path d="M5142 2785 c-59 -25 -51 -107 11 -130 62 -21 118 52 80 103 -26 34
-53 42 -91 27z"/>
<path d="M5520 2787 c-57 -29 -55 -111 3 -131 81 -29 134 89 57 129 -35 18
-29 18 -60 2z"/>
<path d="M5893 2790 c-46 -19 -57 -83 -20 -118 48 -45 117 -14 117 51 0 51
-50 86 -97 67z"/>
<path d="M6269 2786 c-13 -6 -30 -23 -38 -37 -12 -22 -12 -29 0 -54 40 -84
165 -32 129 54 -15 37 -57 54 -91 37z"/>
<path d="M6650 2793 c-53 -19 -68 -86 -28 -123 63 -59 157 32 101 98 -20 23
-50 33 -73 25z"/>
<path d="M7012 2785 c-59 -25 -51 -107 11 -130 62 -21 118 52 80 103 -26 34
-53 42 -91 27z"/>
<path d="M7400 2793 c-51 -19 -68 -85 -30 -123 61 -61 159 33 103 98 -20 23
-50 33 -73 25z"/>
<path d="M7763 2790 c-48 -19 -58 -87 -17 -119 53 -41 114 -13 114 52 0 51
-50 86 -97 67z"/>
<path d="M8140 2787 c-14 -7 -31 -25 -38 -40 -27 -56 35 -115 93 -89 55 25 58
100 5 127 -35 18 -29 18 -60 2z"/>
<path d="M8513 2790 c-46 -19 -57 -83 -20 -118 48 -45 117 -14 117 51 0 51
-50 86 -97 67z"/>
<path d="M8889 2788 c-16 -5 -32 -22 -39 -39 -35 -84 84 -137 129 -58 31 55
-28 118 -90 97z"/>
<path d="M9270 2793 c-51 -19 -68 -85 -30 -123 61 -61 159 32 103 98 -20 23
-50 33 -73 25z"/>
<path d="M9633 2790 c-48 -19 -58 -87 -17 -119 53 -41 114 -13 114 52 0 51
-50 86 -97 67z"/>
<path d="M10010 2787 c-14 -7 -31 -24 -39 -38 -12 -22 -12 -29 0 -54 27 -57
105 -57 131 0 26 57 -37 119 -92 92z"/>
<path d="M10383 2790 c-46 -19 -57 -83 -20 -118 47 -44 117 -13 117 52 0 50
-50 84 -97 66z"/>
<path d="M10759 2788 c-38 -13 -57 -62 -38 -97 32 -57 111 -49 132 13 17 51
-40 103 -94 84z"/>
<path d="M330 2170 c-43 -43 -11 -120 50 -120 59 0 90 67 54 118 -20 29 -76
30 -104 2z"/>
<path d="M740 2168 c-26 -28 -26 -58 1 -92 39 -50 122 -22 122 42 0 66 -78 98
-123 50z"/>
<path d="M3120 2170 c-11 -11 -20 -33 -20 -50 0 -17 9 -39 20 -50 42 -42 120
-12 120 48 0 66 -74 98 -120 52z"/>
<path d="M3550 2170 c-62 -62 31 -158 99 -102 28 22 31 75 6 102 -24 26 -79
26 -105 0z"/>
<path d="M6330 2170 c-61 -61 27 -154 98 -104 28 20 31 83 4 107 -25 23 -78
21 -102 -3z"/>
<path d="M6761 2164 c-12 -15 -21 -34 -21 -44 0 -32 39 -70 71 -70 34 0 79 39
79 68 0 35 -38 72 -75 72 -24 0 -39 -7 -54 -26z"/>
<path d="M7175 2170 c-26 -29 -24 -79 4 -102 70 -56 164 39 101 102 -26 26
-81 26 -105 0z"/>
<path d="M9635 2170 c-25 -27 -22 -80 6 -102 68 -56 161 40 99 102 -26 26 -81
26 -105 0z"/>
<path d="M10066 2168 c-36 -51 -5 -118 54 -118 38 0 70 32 70 70 0 63 -90 98
-124 48z"/>
<path d="M10480 2170 c-63 -63 31 -158 101 -102 28 23 30 73 4 102 -24 26 -79
26 -105 0z"/>
<path d="M1182 2113 l3 -28 823 -3 822 -2 0 30 0 30 -826 0 -825 0 3 -27z"/>
<path d="M4360 2110 l0 -30 820 0 820 0 0 30 0 30 -820 0 -820 0 0 -30z"/>
<path d="M7660 2110 l0 -30 825 0 825 0 0 30 0 30 -825 0 -825 0 0 -30z"/>
<path d="M262 1563 c-7 -3 -19 -18 -27 -33 -40 -77 71 -147 120 -77 42 60 -24
138 -93 110z"/>
<path d="M626 1549 c-34 -27 -35 -71 -1 -104 30 -30 54 -31 89 -4 19 15 26 30
26 54 0 36 -36 75 -70 75 -10 0 -29 -9 -44 -21z"/>
<path d="M995 1545 c-28 -27 -30 -42 -14 -79 34 -73 139 -43 139 40 0 24 -47
64 -75 64 -14 0 -37 -11 -50 -25z"/>
<path d="M1376 1549 c-19 -15 -26 -30 -26 -54 0 -36 36 -75 70 -75 34 0 70 39
70 75 0 36 -36 75 -70 75 -10 0 -29 -9 -44 -21z"/>
<path d="M1745 1545 c-40 -39 -29 -97 22 -116 36 -13 78 5 93 40 31 75 -58
134 -115 76z"/>
<path d="M2135 1558 c-28 -16 -35 -28 -35 -65 0 -41 42 -77 80 -68 58 14 78
78 35 120 -26 27 -49 31 -80 13z"/>
<path d="M2495 1545 c-28 -27 -32 -61 -10 -92 45 -64 151 -8 123 66 -20 54
-74 66 -113 26z"/>
<path d="M2877 1559 c-48 -28 -40 -107 12 -129 75 -31 134 58 76 115 -25 26
-58 31 -88 14z"/>
<path d="M3246 1549 c-36 -28 -36 -80 0 -108 15 -12 34 -21 44 -21 34 0 70 39
70 75 0 36 -36 75 -70 75 -10 0 -29 -9 -44 -21z"/>
<path d="M3615 1545 c-40 -39 -29 -97 22 -116 58 -22 116 36 94 94 -19 51 -77
62 -116 22z"/>
<path d="M4006 1549 c-36 -28 -36 -80 0 -108 15 -12 34 -21 44 -21 34 0 70 39
70 75 0 36 -36 75 -70 75 -10 0 -29 -9 -44 -21z"/>
<path d="M4375 1545 c-40 -39 -29 -97 22 -116 58 -22 116 36 94 94 -19 51 -77
62 -116 22z"/>
<path d="M4765 1558 c-28 -16 -35 -28 -35 -65 0 -41 42 -77 80 -68 60 14 80
88 34 124 -30 24 -50 26 -79 9z"/>
<path d="M5125 1545 c-40 -39 -29 -97 22 -116 62 -23 119 40 89 99 -25 49 -72
56 -111 17z"/>
<path d="M5508 1556 c-10 -7 -21 -24 -26 -37 -28 -74 78 -130 123 -66 22 31
18 65 -10 92 -26 27 -60 32 -87 11z"/>
<path d="M5876 1549 c-34 -27 -35 -71 -1 -104 30 -30 54 -31 89 -4 18 14 26
30 26 52 0 38 -7 50 -37 66 -31 16 -47 14 -77 -10z"/>
<path d="M6257 1559 c-48 -28 -40 -107 12 -129 75 -31 134 58 76 115 -25 26
-58 31 -88 14z"/>
<path d="M6626 1549 c-19 -15 -26 -30 -26 -54 0 -36 36 -75 70 -75 34 0 70 39
70 75 0 36 -36 75 -70 75 -10 0 -29 -9 -44 -21z"/>
<path d="M6995 1545 c-58 -57 1 -146 76 -115 35 15 53 57 40 93 -19 51 -77 62
-116 22z"/>
<path d="M7378 1556 c-10 -7 -21 -24 -26 -37 -28 -74 78 -130 123 -66 22 31
18 65 -10 92 -26 27 -60 32 -87 11z"/>
<path d="M7745 1545 c-43 -42 -23 -106 35 -120 38 -9 80 27 80 68 0 38 -7 50
-37 66 -33 17 -51 14 -78 -14z"/>
<path d="M8132 1563 c-7 -3 -19 -18 -27 -33 -40 -77 71 -147 120 -77 42 60
-24 138 -93 110z"/>
<path d="M8496 1549 c-34 -27 -35 -71 -1 -104 30 -30 54 -31 89 -4 19 15 26
30 26 54 0 36 -36 75 -70 75 -10 0 -29 -9 -44 -21z"/>
<path d="M8865 1545 c-14 -13 -25 -31 -25 -39 0 -30 23 -65 50 -76 58 -24 120
44 90 99 -24 46 -78 53 -115 16z"/>
<path d="M9246 1549 c-19 -15 -26 -30 -26 -54 0 -36 36 -75 70 -75 34 0 70 39
70 75 0 36 -36 75 -70 75 -10 0 -29 -9 -44 -21z"/>
<path d="M9615 1545 c-43 -42 -23 -106 35 -120 38 -9 80 27 80 68 0 38 -7 50
-37 66 -33 17 -51 14 -78 -14z"/>
<path d="M9997 1559 c-48 -28 -40 -107 12 -129 75 -31 134 58 76 115 -25 26
-58 31 -88 14z"/>
<path d="M10366 1549 c-19 -15 -26 -30 -26 -54 0 -36 36 -75 70 -75 34 0 70
39 70 75 0 36 -36 75 -70 75 -10 0 -29 -9 -44 -21z"/>
<path d="M10735 1545 c-40 -39 -29 -97 22 -116 36 -13 78 5 93 40 31 75 -58
134 -115 76z"/>
<path d="M1237 942 c-23 -25 -21 -78 3 -102 61 -61 154 27 104 98 -20 28 -83
31 -107 4z"/>
<path d="M1665 940 c-42 -47 -8 -120 55 -120 33 0 70 40 70 76 0 57 -86 87
-125 44z"/>
<path d="M2071 934 c-12 -15 -21 -35 -21 -46 0 -27 45 -68 75 -68 29 0 75 40
75 65 0 20 -19 57 -34 67 -26 18 -75 8 -95 -18z"/>
<path d="M4496 938 c-50 -71 43 -159 104 -98 26 26 26 81 2 103 -28 25 -87 22
-106 -5z"/>
<path d="M4927 942 c-40 -44 -7 -122 51 -122 60 0 94 78 52 120 -26 26 -81 26
-103 2z"/>
<path d="M5335 940 c-42 -47 -8 -120 55 -120 33 0 70 40 70 76 0 57 -86 87
-125 44z"/>
<path d="M7700 933 c-55 -70 42 -151 105 -88 28 27 31 45 14 78 -16 30 -28 37
-66 37 -23 0 -38 -8 -53 -27z"/>
<path d="M8130 938 c-27 -29 -25 -64 5 -93 63 -63 160 18 105 88 -28 35 -80
37 -110 5z"/>
<path d="M8540 940 c-26 -26 -25 -60 1 -94 25 -31 66 -35 100 -8 28 23 30 73
4 102 -24 26 -79 26 -105 0z"/>
<path d="M10977 942 c-40 -44 -7 -122 51 -122 60 0 94 78 52 120 -26 26 -81
26 -103 2z"/>
<path d="M2522 898 l3 -33 825 0 825 0 0 30 0 30 -828 3 -828 2 3 -32z"/>
<path d="M5774 916 c-3 -8 -4 -23 -2 -33 3 -17 40 -18 813 -18 l810 0 3 33 3
32 -811 0 c-697 0 -811 -2 -816 -14z"/>
<path d="M9002 898 l3 -33 810 0 810 0 3 33 3 32 -816 0 -816 0 3 -32z"/>
<path d="M270 347 c-14 -7 -31 -25 -38 -40 -27 -56 35 -115 93 -89 55 25 58
100 5 127 -35 18 -29 18 -60 2z"/>
<path d="M643 350 c-46 -19 -57 -83 -20 -118 48 -45 117 -14 117 51 0 51 -50
86 -97 67z"/>
<path d="M1019 348 c-16 -5 -32 -22 -39 -39 -35 -84 84 -137 129 -58 31 55
-28 118 -90 97z"/>
<path d="M1393 350 c-46 -19 -57 -83 -20 -118 47 -44 117 -13 117 52 0 50 -50
84 -97 66z"/>
<path d="M1771 348 c-54 -19 -66 -74 -26 -113 28 -29 65 -32 93 -7 32 26 37
63 13 94 -24 30 -48 38 -80 26z"/>
<path d="M2150 353 c-51 -19 -68 -85 -30 -123 61 -61 159 32 103 98 -20 23
-50 33 -73 25z"/>
<path d="M2508 344 c-73 -39 -24 -150 57 -130 29 7 56 56 48 87 -12 43 -65 65
-105 43z"/>
<path d="M2890 347 c-14 -7 -31 -24 -39 -38 -12 -22 -12 -29 0 -54 27 -57 105
-57 131 0 26 57 -37 119 -92 92z"/>
<path d="M3263 350 c-46 -19 -57 -83 -20 -118 47 -44 117 -13 117 52 0 50 -50
84 -97 66z"/>
<path d="M3639 348 c-16 -5 -32 -22 -39 -39 -35 -84 84 -137 129 -58 31 55
-28 118 -90 97z"/>
<path d="M4030 353 c-53 -19 -67 -83 -27 -121 47 -44 117 -13 117 52 0 46 -49
84 -90 69z"/>
<path d="M4399 348 c-38 -13 -57 -62 -38 -97 32 -57 111 -49 132 13 17 51 -40
103 -94 84z"/>
<path d="M4780 353 c-51 -19 -68 -85 -30 -123 61 -61 159 32 103 98 -20 23
-50 33 -73 25z"/>
<path d="M5142 345 c-59 -25 -51 -107 11 -130 62 -21 118 52 80 103 -26 34
-53 42 -91 27z"/>
<path d="M5520 347 c-57 -29 -55 -111 3 -131 81 -29 134 89 57 129 -35 18 -29
18 -60 2z"/>
<path d="M5893 350 c-46 -19 -57 -83 -20 -118 48 -45 117 -14 117 51 0 51 -50
86 -97 67z"/>
<path d="M6269 346 c-13 -6 -30 -23 -38 -37 -12 -22 -12 -29 0 -54 40 -84 165
-32 129 54 -15 37 -57 54 -91 37z"/>
<path d="M6650 353 c-53 -19 -68 -86 -28 -123 63 -59 157 32 101 98 -20 23
-50 33 -73 25z"/>
<path d="M7012 345 c-59 -25 -51 -107 11 -130 62 -21 118 52 80 103 -26 34
-53 42 -91 27z"/>
<path d="M7400 353 c-51 -19 -68 -85 -30 -123 61 -61 159 33 103 98 -20 23
-50 33 -73 25z"/>
<path d="M7763 350 c-48 -19 -58 -87 -17 -119 53 -41 114 -13 114 52 0 51 -50
86 -97 67z"/>
<path d="M8140 347 c-14 -7 -31 -25 -38 -40 -27 -56 35 -115 93 -89 55 25 58
100 5 127 -35 18 -29 18 -60 2z"/>
<path d="M8513 350 c-46 -19 -57 -83 -20 -118 48 -45 117 -14 117 51 0 51 -50
86 -97 67z"/>
<path d="M8889 348 c-16 -5 -32 -22 -39 -39 -35 -84 84 -137 129 -58 31 55
-28 118 -90 97z"/>
<path d="M9270 353 c-51 -19 -68 -85 -30 -123 61 -61 159 32 103 98 -20 23
-50 33 -73 25z"/>
<path d="M9633 350 c-48 -19 -58 -87 -17 -119 53 -41 114 -13 114 52 0 51 -50
86 -97 67z"/>
<path d="M10010 347 c-14 -7 -31 -24 -39 -38 -12 -22 -12 -29 0 -54 27 -57
105 -57 131 0 26 57 -37 119 -92 92z"/>
<path d="M10383 350 c-46 -19 -57 -83 -20 -118 47 -44 117 -13 117 52 0 50
-50 84 -97 66z"/>
<path d="M10759 348 c-38 -13 -57 -62 -38 -97 32 -57 111 -49 132 13 17 51
-40 103 -94 84z"/>
</g>
</svg>
