<?xml version="1.0" standalone="no"?>
<!DOCTYPE svg PUBLIC "-//W3C//DTD SVG 20010904//EN"
 "http://www.w3.org/TR/2001/REC-SVG-20010904/DTD/svg10.dtd">
<svg version="1.0" xmlns="http://www.w3.org/2000/svg"
 width="1125.000000pt" height="900.000000pt" viewBox="0 0 1125.000000 900.000000"
 preserveAspectRatio="xMidYMid meet">
<metadata>
Created by potrace 1.13, written by Peter Selinger 2001-2015
</metadata>
<g transform="translate(0.000000,900.000000) scale(0.100000,-0.100000)"
fill="#000000" stroke="none">
<path d="M0 4500 l0 -4500 5625 0 5625 0 0 4500 0 4500 -5625 0 -5625 0 0
-4500z m6616 4409 c31 -28 91 -68 133 -87 67 -32 86 -37 172 -40 148 -6 247
30 367 132 l54 46 1931 -2 1932 -3 0 -735 0 -735 -5580 0 -5580 0 -3 725 c-1
399 0 731 3 738 3 9 665 12 3260 12 l3255 0 56 -51z m614 42 c0 -5 -23 -23
-50 -41 -128 -82 -281 -92 -412 -27 -41 20 -82 45 -93 57 l-18 20 286 0 c163
0 287 -4 287 -9z m3978 -1643 c1 -60 1 -108 0 -108 -2 0 -28 7 -58 15 -108 29
-223 15 -339 -41 -88 -43 -206 -168 -264 -281 -26 -50 -47 -96 -47 -101 0 -6
46 8 103 29 166 64 314 99 415 98 48 0 110 -6 137 -13 l50 -11 3 -148 3 -147
-5586 0 -5585 0 0 130 c0 72 4 130 9 130 13 0 153 -61 229 -99 34 -17 62 -28
62 -24 0 14 -40 113 -64 162 -40 78 -113 169 -176 218 l-60 46 0 122 c0 67 3
125 7 128 3 4 2515 6 5582 5 l5576 -3 3 -107z m-47 -160 c19 -6 37 -16 41 -22
4 -6 8 -46 8 -90 0 -77 0 -78 -22 -71 -13 4 -75 9 -140 12 -126 6 -203 -6
-340 -53 -40 -13 -75 -24 -80 -24 -16 0 49 84 108 141 63 59 143 104 214 119
53 11 163 5 211 -12z m-11042 -134 c51 -55 107 -141 99 -149 -4 -4 -139 51
-165 68 -19 12 -18 137 1 137 8 0 37 -25 65 -56z m11086 -1344 l0 -865 -121
-61 c-182 -91 -265 -116 -404 -122 -136 -5 -219 12 -411 83 -68 25 -126 45
-130 45 -9 0 23 -72 68 -151 187 -330 587 -387 838 -118 55 58 115 152 136
212 7 20 17 37 21 37 4 0 8 -706 8 -1570 0 -1398 -2 -1570 -15 -1570 -9 0 -43
11 -77 25 -34 14 -63 24 -65 22 -6 -7 84 -175 120 -221 l37 -49 -2 -661 -3
-661 -3450 -3 -3450 -2 -90 45 c-168 83 -296 83 -465 -1 l-89 -44 -1808 2
-1808 3 -3 623 c-1 342 0 622 3 622 2 0 26 -13 52 -29 68 -41 137 -63 218 -68
200 -14 386 97 504 302 25 44 84 186 79 191 -2 2 -51 -20 -108 -47 -215 -104
-332 -139 -458 -139 -76 0 -204 22 -260 45 l-32 14 0 2484 c0 1366 3 2487 7
2490 3 4 2515 6 5582 5 l5576 -3 0 -865z m-117 -1031 c-33 -59 -143 -175 -195
-205 -137 -81 -300 -83 -433 -6 -56 32 -134 104 -171 159 -34 48 -36 58 -11
48 62 -26 219 -67 293 -76 138 -18 295 14 469 94 30 14 59 26 63 26 4 1 -3
-17 -15 -40z m-10308 -3085 c0 -4 -21 -37 -46 -75 -107 -162 -283 -249 -447
-222 -78 13 -165 53 -212 97 -30 29 -35 40 -35 80 0 25 4 46 9 46 5 0 49 -9
98 -21 131 -31 293 -24 423 20 52 18 118 43 145 56 54 25 65 28 65 19z"/>
<path d="M3355 8710 c-325 -159 -475 -165 -826 -35 -66 25 -122 45 -124 45
-10 0 48 -118 86 -176 121 -187 328 -295 511 -266 212 34 376 182 468 423 22
59 24 69 13 68 -5 0 -62 -27 -128 -59z m3 -101 c-41 -74 -112 -152 -175 -194
-89 -60 -154 -78 -261 -73 -78 3 -97 7 -163 40 -74 36 -165 117 -209 183 -28
42 -25 47 16 30 20 -8 80 -27 133 -42 80 -23 116 -27 221 -27 141 -1 190 10
355 80 55 23 101 42 103 43 2 1 -7 -17 -20 -40z"/>
<path d="M10415 8600 c-141 -25 -276 -115 -364 -244 -34 -50 -104 -186 -98
-192 2 -3 58 15 123 40 351 131 494 124 842 -40 64 -30 117 -52 119 -50 2 2
-6 28 -17 57 -102 258 -280 414 -495 432 -33 3 -82 1 -110 -3z m248 -97 c79
-38 165 -114 219 -197 21 -33 38 -63 38 -67 0 -4 -35 8 -77 27 -146 67 -233
87 -373 88 -107 0 -139 -4 -225 -28 -55 -15 -115 -34 -132 -41 -18 -8 -33 -10
-33 -6 0 18 82 120 122 152 108 87 175 110 303 106 77 -2 100 -7 158 -34z"/>
<path d="M2483 7215 c-159 -43 -288 -160 -380 -343 -23 -47 -42 -87 -40 -88 1
-2 55 17 118 41 195 74 266 90 409 90 115 -1 133 -3 220 -33 52 -18 150 -60
218 -92 69 -33 126 -60 128 -60 10 0 -66 168 -102 227 -129 208 -363 314 -571
258z m199 -56 c81 -17 153 -55 218 -116 53 -49 145 -171 136 -180 -2 -2 -46
14 -97 36 -157 67 -242 84 -383 78 -116 -4 -170 -16 -350 -74 -60 -19 108 165
190 209 98 53 188 67 286 47z"/>
<path d="M5293 7215 c-116 -32 -226 -108 -300 -208 -42 -58 -128 -215 -121
-222 2 -2 50 15 106 36 210 80 264 92 407 93 100 0 144 -4 189 -18 76 -23 229
-87 318 -132 37 -19 68 -31 68 -26 0 5 -11 36 -25 71 -121 309 -384 475 -642
406z m199 -56 c82 -18 166 -65 233 -133 57 -56 123 -151 113 -161 -2 -3 -46
14 -97 36 -227 97 -406 104 -656 25 -43 -14 -81 -23 -83 -21 -8 8 69 104 116
146 110 97 244 135 374 108z"/>
<path d="M8103 7215 c-157 -43 -295 -168 -382 -348 -22 -44 -39 -82 -38 -84 2
-1 55 18 118 42 195 74 266 90 409 90 115 -1 133 -3 220 -33 52 -18 150 -60
218 -92 69 -33 126 -60 128 -60 1 0 -13 39 -31 86 -119 303 -384 468 -642 399z
m199 -56 c122 -26 238 -111 318 -232 21 -33 38 -62 37 -64 -2 -1 -52 18 -113
42 -157 64 -231 78 -372 72 -111 -4 -169 -17 -346 -74 -60 -19 108 165 190
209 98 53 188 67 286 47z"/>
<path d="M1685 7173 c-81 -42 -265 -118 -335 -139 -47 -13 -96 -18 -175 -18
-124 0 -217 22 -404 94 -58 22 -107 38 -109 35 -7 -7 47 -116 94 -186 122
-184 327 -283 515 -249 199 35 367 192 454 423 13 37 21 67 17 67 -4 -1 -29
-13 -57 -27z m-77 -145 c-13 -23 -52 -73 -87 -110 -186 -198 -450 -202 -641
-9 -36 36 -73 80 -83 98 l-17 32 87 -30 c218 -73 370 -78 555 -16 59 20 125
45 145 56 59 31 68 27 41 -21z"/>
<path d="M4425 7140 c-225 -110 -369 -144 -521 -122 -90 13 -225 53 -353 104
-40 16 -76 27 -78 24 -10 -9 88 -183 136 -242 57 -71 161 -145 246 -176 86
-31 227 -30 310 2 165 63 299 206 369 394 14 37 26 70 26 72 0 8 -19 0 -135
-56z m15 -75 c0 -9 -52 -88 -84 -129 -36 -45 -133 -117 -190 -140 -138 -57
-305 -30 -431 71 -52 41 -142 149 -132 159 2 3 49 -8 103 -25 246 -75 398 -67
634 32 87 37 100 41 100 32z"/>
<path d="M7295 7168 c-85 -44 -248 -111 -325 -134 -47 -13 -96 -18 -175 -18
-122 0 -215 22 -409 95 -55 21 -102 37 -104 34 -3 -2 14 -42 37 -88 153 -308
440 -431 708 -303 78 38 173 121 227 199 30 43 116 223 116 242 0 9 -15 4 -75
-27z m-67 -140 c-13 -23 -52 -73 -87 -110 -186 -199 -452 -202 -641 -8 -36 36
-73 80 -83 98 l-17 31 85 -29 c219 -74 372 -78 557 -17 59 20 125 45 145 56
59 31 68 27 41 -21z"/>
<path d="M10045 7140 c-225 -110 -369 -144 -521 -122 -90 13 -225 53 -353 104
-40 16 -75 27 -78 24 -8 -8 75 -161 121 -223 53 -70 146 -145 222 -179 148
-66 315 -51 459 41 63 40 163 147 203 216 25 44 82 180 82 195 0 8 -19 0 -135
-56z m15 -75 c0 -3 -16 -31 -36 -62 -173 -271 -493 -314 -710 -98 -58 59 -105
125 -87 125 5 0 44 -12 88 -26 240 -77 402 -71 625 21 108 45 120 49 120 40z"/>
<path d="M7046 5969 c-149 -35 -296 -163 -385 -338 -41 -80 -49 -102 -35 -97
137 54 243 90 331 112 200 50 345 26 612 -102 74 -35 135 -63 137 -61 6 6 -64
168 -97 222 -45 74 -161 185 -231 219 -107 52 -230 69 -332 45z m185 -59 c122
-23 239 -107 319 -231 22 -34 39 -64 37 -65 -2 -2 -47 15 -101 37 -244 100
-423 106 -670 20 -33 -12 -63 -21 -68 -21 -15 0 47 82 104 136 114 110 237
150 379 124z"/>
<path d="M3625 5879 c-305 -146 -458 -162 -726 -75 -57 18 -134 45 -171 60
l-67 26 9 -24 c116 -306 387 -478 645 -411 147 39 287 154 361 300 43 84 80
173 73 179 -2 1 -58 -23 -124 -55z m-21 -126 c-105 -168 -283 -268 -441 -249
-123 14 -249 90 -328 197 -25 34 -44 63 -42 65 1 2 39 -8 82 -22 252 -80 422
-74 656 25 52 22 98 40 102 41 4 0 -9 -26 -29 -57z"/>
<path d="M2456 3609 c-99 -24 -248 -133 -317 -234 -30 -45 -101 -186 -96 -192
3 -2 61 16 129 41 192 69 268 87 383 87 142 0 272 -40 488 -147 48 -25 87 -42
87 -40 0 2 -14 40 -31 85 -72 190 -205 330 -367 387 -72 25 -198 31 -276 13z
m246 -70 c72 -24 148 -72 200 -126 36 -38 108 -141 108 -155 0 -4 -37 9 -82
28 -157 67 -240 87 -368 87 -118 0 -192 -14 -334 -63 -33 -11 -61 -19 -63 -17
-2 2 19 33 46 69 127 167 319 236 493 177z"/>
<path d="M8300 3402 c-96 -32 -143 -63 -226 -146 -62 -63 -91 -102 -128 -174
-26 -52 -46 -96 -43 -98 3 -3 62 15 132 41 196 71 279 88 410 83 130 -5 225
-34 422 -128 68 -32 123 -57 123 -55 0 3 -14 39 -31 82 -70 177 -170 293 -313
363 -82 41 -91 43 -189 47 -79 2 -114 -1 -157 -15z m229 -53 c65 -15 142 -56
199 -105 46 -41 150 -179 141 -188 -2 -2 -45 14 -96 35 -241 103 -421 110
-675 23 -40 -13 -73 -24 -75 -24 -11 0 68 101 109 141 54 51 144 104 204 118
53 12 140 13 193 0z"/>
<path d="M5590 2295 c-74 -35 -139 -67 -145 -71 -5 -5 -14 -9 -20 -9 -5 -1
-54 -11 -108 -24 -169 -41 -309 -23 -560 73 -64 24 -117 40 -117 34 0 -5 21
-51 47 -101 37 -71 66 -110 128 -172 116 -117 222 -165 360 -165 108 0 252 50
263 92 3 14 7 16 12 7 19 -30 153 119 211 233 28 56 71 160 66 164 -1 1 -63
-27 -137 -61z m20 -70 c0 -17 -78 -124 -121 -166 -27 -28 -49 -57 -49 -66 0
-12 -3 -14 -10 -7 -7 7 -29 1 -68 -18 -165 -82 -345 -52 -483 79 -60 57 -128
143 -112 143 4 0 40 -11 78 -24 137 -46 218 -59 343 -53 116 4 252 35 252 57
0 5 6 7 13 4 7 -2 42 9 78 25 67 31 79 35 79 26z"/>
<path d="M7565 816 c-103 -33 -198 -98 -271 -187 -43 -52 -140 -226 -131 -235
2 -2 48 12 103 32 380 139 508 134 852 -31 72 -35 132 -62 132 -59 0 3 -14 41
-31 85 -76 196 -222 344 -388 393 -65 19 -209 20 -266 2z m254 -65 c109 -34
202 -108 275 -221 20 -30 36 -58 36 -62 0 -4 -26 5 -57 19 -101 45 -224 83
-309 95 -106 15 -220 1 -369 -46 -60 -19 -111 -34 -112 -32 -2 2 17 31 43 65
125 167 316 237 493 182z"/>
</g>
</svg>
