<?xml version="1.0" standalone="no"?>
<!DOCTYPE svg PUBLIC "-//W3C//DTD SVG 20010904//EN"
 "http://www.w3.org/TR/2001/REC-SVG-20010904/DTD/svg10.dtd">
<svg version="1.0" xmlns="http://www.w3.org/2000/svg"
 width="1125.000000pt" height="900.000000pt" viewBox="0 0 1125.000000 900.000000"
 preserveAspectRatio="xMidYMid meet">
<metadata>
Created by potrace 1.13, written by Peter Selinger 2001-2015
</metadata>
<g transform="translate(0.000000,900.000000) scale(0.100000,-0.100000)"
fill="#000000" stroke="none">
<path d="M0 4500 l0 -4500 5625 0 5625 0 0 4500 0 4500 -5625 0 -5625 0 0
-4500z m8870 4434 c0 -12 99 -14 715 -14 l715 0 0 -405 0 -405 -715 0 -715 0
0 -30 0 -30 1168 -2 1167 -3 0 -385 0 -385 -1167 -3 -1168 -2 0 -30 0 -30 600
0 600 0 0 -310 0 -310 -600 0 -600 0 0 -35 0 -35 1170 0 1170 0 -2 -322 -3
-323 -1167 -3 -1168 -2 0 -30 0 -30 680 0 680 0 0 -390 0 -390 -680 0 -680 0
0 -30 0 -30 1168 -2 1167 -3 3 -362 2 -363 -1170 0 -1170 0 0 -30 0 -30 558
-2 557 -3 3 -407 2 -408 -560 0 -560 0 0 -30 c0 -28 3 -30 35 -30 l35 0 0
-305 0 -305 -35 0 c-32 0 -35 -2 -35 -30 l0 -30 700 0 700 0 0 -345 0 -345
-700 0 -700 0 0 -30 0 -30 1168 -2 1167 -3 0 -360 0 -360 -1167 -3 -1168 -2 0
-30 0 -30 460 0 460 0 0 -430 0 -430 -460 0 -460 0 0 -30 0 -30 1055 0 1055 0
0 -65 0 -65 -1300 0 -1300 0 0 65 0 65 233 2 232 3 3 28 3 27 -820 0 -821 0 0
430 0 430 818 2 817 3 3 27 c3 23 -1 27 -25 30 l-28 3 0 360 0 360 33 3 c28 3
32 7 32 33 l0 29 -565 0 -565 0 0 345 0 345 561 0 560 0 -3 27 -3 28 -1227 3
-1228 2 0 305 0 305 1235 0 1235 0 0 30 0 30 -795 0 -795 0 0 410 0 410 791 0
790 0 -3 28 c-3 26 -5 27 -75 30 l-73 3 0 364 0 365 76 0 75 0 -3 28 -3 27
-552 3 -553 2 0 390 0 390 553 2 552 3 0 385 0 385 -772 3 -773 2 0 310 0 310
775 0 775 0 0 30 0 30 -60 0 -60 0 0 390 0 390 61 0 c60 0 60 0 57 28 l-3 27
-543 3 -542 2 2 403 3 402 543 3 c539 2 542 2 542 23 0 11 5 17 10 14 6 -3 10
-13 10 -21z m-7110 -419 l0 -405 -860 0 -860 0 0 398 c0 219 3 402 7 405 3 4
390 7 860 7 l853 0 0 -405z m2830 0 l0 -405 -1380 0 -1380 0 0 405 0 405 1380
0 1380 0 0 -405z m3110 0 l0 -405 -1525 0 -1525 0 0 405 0 405 1525 0 1525 0
0 -405z m3508 -2 l2 -403 -420 0 -420 0 0 405 0 405 418 -2 417 -3 3 -402z
m-8090 -855 l2 -388 -1520 0 -1520 0 0 383 c0 211 3 387 7 390 3 4 686 6 1517
5 l1511 -3 3 -387z m2787 2 l0 -385 -1362 -3 -1363 -2 0 383 c0 211 3 387 7
390 3 4 617 6 1362 5 l1356 -3 0 -385z m2763 -2 l2 -388 -1350 0 -1350 0 0
390 0 390 1348 -2 1347 -3 3 -387z m-7238 -758 l0 -310 -695 0 -696 0 3 128 3
127 407 3 408 2 0 30 0 30 -408 2 -407 3 -3 134 c-1 74 0 141 2 148 4 10 138
13 696 13 l690 0 0 -310z m2760 0 l0 -310 -1350 0 -1350 0 0 310 0 310 1350 0
1350 0 0 -310z m3048 -2 l2 -308 -1495 0 -1495 0 0 310 0 310 1493 -2 1492 -3
3 -307z m3967 162 l0 -145 -277 -3 -278 -2 0 -30 0 -30 278 -2 277 -3 3 -127
3 -128 -536 0 -535 0 0 310 0 310 533 -2 532 -3 0 -145z m-11067 -862 l-3
-323 -45 0 -45 0 -3 323 -2 322 50 0 50 0 -2 -322z m3122 -3 l0 -325 -1530 0
-1530 0 0 325 0 325 1530 0 1530 0 0 -325z m2868 3 l-3 -323 -1400 0 -1400 0
-3 323 -2 322 1405 0 1405 0 -2 -322z m2652 -3 l0 -325 -1295 0 -1295 0 0 325
0 325 1295 0 1295 0 0 -325z m-7040 -775 l0 -390 -847 2 -848 3 -3 375 c-1
206 0 381 3 387 3 10 181 13 850 13 l845 0 0 -390z m2840 0 l0 -390 -1390 0
-1390 0 0 390 0 390 1390 0 1390 0 0 -390z m3100 0 l0 -390 -1520 0 -1520 0 0
390 0 390 1520 0 1520 0 0 -390z m3525 0 l0 -385 -457 -3 -458 -2 0 390 0 390
458 -2 457 -3 0 -385z m-8105 -815 l0 -365 -1525 0 -1525 0 0 365 0 365 1525
0 1525 0 0 -365z m2780 0 l0 -365 -1355 0 -1355 0 0 365 0 365 1355 0 1355 0
0 -365z m2758 -2 l2 -363 -1350 0 -1350 0 0 365 0 365 1348 -2 1347 -3 3 -362z
m-7240 -836 l2 -407 -677 2 -678 3 0 180 0 180 398 3 397 2 0 30 0 30 -397 2
-398 3 -3 180 c-1 98 0 185 2 192 4 11 136 13 678 11 l673 -3 3 -408z m2837 3
l0 -405 -1387 -3 -1388 -2 0 403 c0 222 3 407 7 410 3 4 628 6 1387 5 l1381
-3 0 -405z m2965 0 l0 -410 -1450 0 -1450 0 0 410 0 410 1450 0 1450 0 0 -410z
m4005 215 l0 -190 -287 -3 -288 -2 0 -30 0 -30 288 -2 287 -3 0 -180 0 -180
-577 -3 -578 -2 0 403 c0 222 3 407 7 410 3 4 263 6 577 5 l571 -3 0 -190z
m-10975 -990 l0 -306 -92 3 -93 3 -3 290 c-1 159 0 295 3 302 3 9 31 13 95 13
l90 0 0 -305z m3150 0 l0 -305 -1545 0 -1545 0 0 305 0 305 1545 0 1545 0 0
-305z m2950 0 l0 -305 -1442 2 -1443 3 -3 303 -2 302 1445 0 1445 0 0 -305z
m4875 0 l0 -300 -1097 -3 -1098 -2 0 305 0 305 1098 -2 1097 -3 0 -300z
m-9475 -710 l0 -345 -845 0 -845 0 0 338 c0 186 3 342 7 345 3 4 384 7 845 7
l838 0 0 -345z m2840 0 l0 -345 -1387 2 -1388 3 -3 330 c-1 181 0 336 3 342 3
10 286 13 1390 13 l1385 0 0 -345z m3100 0 l0 -345 -1520 0 -1520 0 0 345 0
345 1520 0 1520 0 0 -345z m3538 -3 l2 -342 -437 2 -438 3 -3 330 c-1 181 0
336 3 343 3 10 95 12 437 10 l433 -3 3 -343z m-8168 -767 l0 -365 -1485 0
-1485 0 0 358 c0 197 3 362 7 365 3 4 672 7 1485 7 l1478 0 0 -365z m2890 0
l0 -365 -1415 0 -1415 0 0 358 c0 197 3 362 7 365 3 4 640 7 1415 7 l1408 0 0
-365z m2800 0 l0 -365 -1370 0 -1370 0 0 358 c0 197 3 362 7 365 3 4 620 7
1370 7 l1363 0 0 -365z m-7530 -855 l0 -430 -577 2 -578 3 0 165 0 165 278 3
277 2 0 30 0 30 -277 2 -278 3 -3 215 c-1 118 0 220 2 227 4 10 124 13 581 13
l575 0 0 -430z m2915 0 l0 -425 -1427 -3 -1428 -2 0 430 0 430 1428 -2 1427
-3 0 -425z m3035 0 l0 -430 -1485 0 -1485 0 0 430 0 430 1485 0 1485 0 0 -430z
m4055 200 l0 -225 -407 -3 -408 -2 0 -30 0 -30 408 -2 407 -3 0 -165 0 -165
-675 0 -675 0 -3 428 -2 427 677 -2 678 -3 0 -225z m-8515 -755 l0 -65 -1323
2 -1322 3 -3 49 c-2 27 -1 55 2 62 5 12 214 14 1326 14 l1320 0 0 -65z m2838
3 l-3 -63 -1385 0 -1385 0 -3 63 -3 62 1391 0 1391 0 -3 -62z m2790 0 l-3 -63
-1360 0 -1360 0 -3 63 -3 62 1366 0 1366 0 -3 -62z m2887 -3 l0 -60 -77 -3
-78 -3 0 66 0 66 78 -3 77 -3 0 -60z"/>
<path d="M8250 8520 l0 -30 290 0 290 0 0 30 0 30 -290 0 -290 0 0 -30z"/>
<path d="M8860 8520 l0 -30 465 0 465 0 0 30 0 30 -465 0 -465 0 0 -30z"/>
<path d="M9250 7635 l0 -35 753 2 752 3 0 30 0 30 -752 3 -753 2 0 -35z"/>
<path d="M8260 5395 l0 -35 290 0 290 0 0 35 0 35 -290 0 -290 0 0 -35z"/>
<path d="M8877 5423 c-4 -3 -7 -19 -7 -35 l0 -28 275 0 275 0 0 35 0 35 -268
0 c-148 0 -272 -3 -275 -7z"/>
<path d="M8250 2250 l0 -30 290 0 290 0 0 30 0 30 -290 0 -290 0 0 -30z"/>
<path d="M8860 2250 l0 -30 400 0 400 0 0 30 0 30 -400 0 -400 0 0 -30z"/>
<path d="M2470 8520 l0 -30 755 0 755 0 0 30 0 30 -755 0 -755 0 0 -30z"/>
<path d="M3860 7635 l0 -35 756 0 755 0 -3 33 -3 32 -752 3 -753 2 0 -35z"/>
<path d="M4950 6905 l0 -35 755 0 755 0 0 35 0 35 -755 0 -755 0 0 -35z"/>
<path d="M890 6205 l0 -35 755 0 755 0 0 35 0 35 -755 0 -755 0 0 -35z"/>
<path d="M6770 6200 l0 -30 755 0 755 0 0 30 0 30 -755 0 -755 0 0 -30z"/>
<path d="M2430 5420 l0 -30 753 2 752 3 3 28 3 27 -755 0 -756 0 0 -30z"/>
<path d="M860 4590 l0 -30 755 0 755 0 0 30 0 30 -755 0 -755 0 0 -30z"/>
<path d="M6570 4610 l0 -30 753 2 752 3 3 28 3 27 -755 0 -756 0 0 -30z"/>
<path d="M5030 3780 l0 -30 755 0 755 0 0 30 0 30 -755 0 -755 0 0 -30z"/>
<path d="M4170 3000 l0 -30 755 0 755 0 0 30 0 30 -755 0 -755 0 0 -30z"/>
<path d="M9532 2978 l3 -33 753 -3 752 -2 0 35 0 35 -756 0 -755 0 3 -32z"/>
<path d="M2480 2270 l0 -30 755 0 755 0 0 30 0 30 -755 0 -755 0 0 -30z"/>
<path d="M784 1536 c-3 -8 -4 -23 -2 -33 3 -17 39 -18 756 -21 l752 -2 0 35 0
35 -750 0 c-645 0 -751 -2 -756 -14z"/>
<path d="M6670 1490 l0 -30 755 0 755 0 0 30 0 30 -755 0 -755 0 0 -30z"/>
<path d="M4930 630 l0 -30 753 2 752 3 3 28 3 27 -755 0 -756 0 0 -30z"/>
</g>
</svg>
