<?xml version="1.0" standalone="no"?>
<!DOCTYPE svg PUBLIC "-//W3C//DTD SVG 20010904//EN"
 "http://www.w3.org/TR/2001/REC-SVG-20010904/DTD/svg10.dtd">
<svg version="1.0" xmlns="http://www.w3.org/2000/svg"
 width="1125.000000pt" height="900.000000pt" viewBox="0 0 1125.000000 900.000000"
 preserveAspectRatio="xMidYMid meet">
<metadata>
Created by potrace 1.13, written by Peter Selinger 2001-2015
</metadata>
<g transform="translate(0.000000,900.000000) scale(0.100000,-0.100000)"
fill="#000000" stroke="none">
<path d="M0 4500 l0 -4500 5625 0 5625 0 0 4500 0 4500 -5625 0 -5625 0 0
-4500z m2710 4325 l0 -135 -710 0 -710 0 0 -30 0 -30 1615 0 1615 0 0 30 0 30
-872 2 -873 3 0 130 0 130 4215 0 4215 0 0 -130 0 -130 -1037 -3 -1038 -2 0
-30 0 -30 1038 -2 1037 -3 0 -575 0 -575 -975 -5 -975 -5 -3 -27 -3 -28 978
-2 978 -3 0 -605 0 -605 -842 -3 -843 -2 0 -30 0 -30 843 -2 842 -3 0 -570 0
-570 -1277 -3 -1278 -2 0 -30 0 -30 1278 -2 1277 -3 3 -130 c2 -71 0 -347 -3
-612 l-7 -483 -1029 0 -1029 0 0 -30 0 -30 1033 -2 1032 -3 0 -265 0 -265
-1292 -3 -1293 -2 0 -30 0 -30 1293 -2 1292 -3 3 -278 2 -277 -1085 0 -1085 0
0 -30 0 -30 1083 -2 1082 -3 3 -593 2 -592 -920 0 -920 0 0 -30 0 -30 918 -2
917 -3 0 -555 0 -555 -2235 0 -2235 0 -3 188 -2 187 -30 0 -30 0 -2 -188 -3
-187 -3310 0 -3310 0 0 230 0 230 1423 3 1422 2 0 30 0 30 -1075 0 -1075 0 0
235 0 235 -30 0 -30 0 0 -235 0 -235 -320 0 -320 0 2 293 3 292 148 3 147 3 0
29 0 30 -150 0 -150 0 2 268 3 267 1213 3 1212 2 0 30 0 30 -1215 0 -1215 0 2
293 3 292 248 3 247 2 0 30 0 30 -250 0 -250 0 2 277 3 278 385 5 385 5 3 27
3 28 -388 2 -388 3 0 265 0 265 268 3 267 2 0 30 0 30 -267 2 -268 3 0 610 0
610 213 3 212 2 0 30 0 30 -212 2 -213 3 0 245 0 245 1543 3 1542 2 0 30 0 30
-1543 2 -1542 3 0 290 0 290 48 3 c45 3 47 5 47 32 0 27 -2 29 -47 32 l-48 3
0 605 0 605 93 3 93 3 -3 27 c-3 27 -4 27 -93 32 l-90 5 0 265 0 265 1423 3
1422 2 0 30 0 30 -1422 2 -1423 3 0 275 0 275 227 3 228 2 0 30 0 30 -227 2
-228 3 -3 119 c-1 66 0 126 2 133 4 11 249 13 1336 13 l1330 0 0 -135z"/>
<path d="M5380 8660 l0 -30 1375 0 1375 0 0 30 0 30 -1375 0 -1375 0 0 -30z"/>
<path d="M8540 8300 l0 -230 -365 0 -365 0 0 -30 0 -30 1410 0 1410 0 0 30 0
30 -1010 0 -1010 0 0 230 0 230 -35 0 -35 0 0 -230z"/>
<path d="M4090 8040 l0 -30 1450 0 1450 0 0 30 0 30 -1450 0 -1450 0 0 -30z"/>
<path d="M3260 7705 l0 -235 -825 0 -825 0 0 -30 0 -30 1605 0 1605 0 0 30 0
30 -750 0 -750 0 0 235 0 235 -30 0 -30 0 0 -235z"/>
<path d="M5780 7440 l0 -30 1385 0 1385 0 0 30 0 30 -1385 0 -1385 0 0 -30z"/>
<path d="M950 7030 l0 -240 -325 0 -325 0 0 -30 0 -30 950 0 950 0 0 30 0 30
-595 0 -595 0 0 240 0 240 -30 0 -30 0 0 -240z"/>
<path d="M5420 7025 l0 -235 -950 0 -950 0 0 -30 0 -30 1350 0 1350 0 0 30 0
30 -370 0 -370 0 0 235 0 235 -30 0 -30 0 0 -235z"/>
<path d="M7200 6760 l0 -30 1715 0 1715 0 0 30 0 30 -1715 0 -1715 0 0 -30z"/>
<path d="M1260 6160 l0 -30 1685 0 1685 0 0 30 0 30 -1685 0 -1685 0 0 -30z"/>
<path d="M5830 6160 l0 -30 1360 0 1360 0 0 30 0 30 -1360 0 -1360 0 0 -30z"/>
<path d="M9070 5795 l0 -245 30 0 30 0 0 245 0 245 -30 0 -30 0 0 -245z"/>
<path d="M4210 5510 l0 -30 945 0 945 0 0 30 0 30 -945 0 -945 0 0 -30z"/>
<path d="M7440 5510 l0 -30 1440 0 1440 0 0 30 0 30 -1440 0 -1440 0 0 -30z"/>
<path d="M1050 4950 l0 -30 1435 0 1435 0 0 30 0 30 -1435 0 -1435 0 0 -30z"/>
<path d="M4970 4950 l0 -30 1360 0 1360 0 0 30 0 30 -1360 0 -1360 0 0 -30z"/>
<path d="M4610 4550 l0 -230 -250 0 -250 0 0 -30 0 -30 1350 0 1350 0 0 30 0
30 -1070 0 -1070 0 0 230 0 230 -30 0 -30 0 0 -230z"/>
<path d="M380 4290 l0 -30 1340 0 1340 0 0 30 0 30 -1340 0 -1340 0 0 -30z"/>
<path d="M7880 4290 l0 -30 1501 0 1500 0 -3 28 -3 27 -1497 3 -1498 2 0 -30z"/>
<path d="M7167 4173 c-4 -3 -7 -114 -7 -245 l0 -238 -800 0 -800 0 0 -30 0
-30 1390 0 1390 0 0 30 0 30 -555 0 -555 0 0 245 0 245 -28 0 c-16 0 -32 -3
-35 -7z"/>
<path d="M1290 3660 l0 -30 1545 0 1545 0 0 30 0 30 -1545 0 -1545 0 0 -30z"/>
<path d="M2230 3060 l0 -30 2170 0 2170 0 0 30 0 30 -2170 0 -2170 0 0 -30z"/>
<path d="M6980 2705 l0 -235 -1005 0 -1005 0 0 -30 0 -30 1615 0 1615 0 0 30
0 30 -580 0 -580 0 0 235 0 235 -30 0 -30 0 0 -235z"/>
<path d="M1720 2700 l0 -230 -265 0 -265 0 0 -30 0 -30 1350 0 1350 0 0 30 0
30 -1055 0 -1055 0 0 230 0 230 -30 0 -30 0 0 -230z"/>
<path d="M3770 1790 l0 -30 1330 0 1330 0 0 30 0 30 -1330 0 -1330 0 0 -30z"/>
<path d="M7490 1790 l0 -30 1660 0 1660 0 0 30 0 30 -1660 0 -1660 0 0 -30z"/>
<path d="M2970 1455 l0 -235 -910 0 -910 0 0 -30 0 -30 1895 0 1895 0 0 30 0
30 -955 0 -955 0 0 235 0 235 -30 0 -30 0 0 -235z"/>
<path d="M6040 1190 l0 -30 1306 0 1305 0 -3 28 -3 27 -1302 3 -1303 2 0 -30z"/>
<path d="M9040 805 l0 -235 -990 0 -990 0 0 -30 0 -30 1715 0 1715 0 0 30 0
30 -695 0 -695 0 0 235 0 235 -30 0 -30 0 0 -235z"/>
<path d="M3720 540 l0 -30 1305 0 1305 0 0 30 0 30 -1305 0 -1305 0 0 -30z"/>
</g>
</svg>
