<?xml version="1.0" standalone="no"?>
<!DOCTYPE svg PUBLIC "-//W3C//DTD SVG 20010904//EN"
 "http://www.w3.org/TR/2001/REC-SVG-20010904/DTD/svg10.dtd">
<svg version="1.0" xmlns="http://www.w3.org/2000/svg"
 width="1811.000000pt" height="1217.000000pt" viewBox="0 0 1811.000000 1217.000000"
 preserveAspectRatio="xMidYMid meet">
<metadata>
Created by potrace 1.13, written by Peter Selinger 2001-2015
</metadata>
<g transform="translate(0.000000,1217.000000) scale(0.100000,-0.100000)"
fill="#000000" stroke="none">
<path d="M6401 11921 c-9 -16 4 -28 109 -97 66 -44 120 -82 120 -85 0 -3 -54
-36 -120 -73 -66 -38 -122 -72 -125 -76 -2 -4 1 -15 8 -24 12 -16 27 -9 172
74 88 51 161 93 163 94 3 4 -302 206 -310 206 -4 0 -12 -8 -17 -19z"/>
<path d="M2169 11869 c-13 -26 -20 -19 119 -112 l113 -75 -126 -72 c-91 -52
-125 -76 -121 -87 3 -8 6 -17 6 -19 0 -2 5 -4 11 -4 13 0 319 173 319 180 0 3
-70 51 -155 107 -148 98 -155 102 -166 82z"/>
<path d="M15599 11869 c-13 -26 -20 -19 119 -111 l113 -75 -123 -70 c-117 -67
-148 -96 -114 -109 13 -5 326 164 326 176 0 3 -70 51 -155 107 -148 98 -155
102 -166 82z"/>
<path d="M8189 11813 c10 -27 38 -95 61 -153 23 -58 46 -115 51 -127 6 -15 14
-20 28 -16 12 3 21 11 21 17 0 7 -22 68 -50 136 -27 68 -50 126 -50 128 0 5
182 -6 248 -15 40 -5 42 -4 42 20 0 23 -4 26 -52 31 -57 7 -285 26 -305 26 -9
0 -7 -13 6 -47z"/>
<path d="M11245 11824 c-11 -2 -68 -6 -127 -9 -106 -7 -108 -7 -108 -31 0 -28
1 -28 175 -14 61 4 112 6 114 4 2 -2 -20 -62 -50 -134 -45 -110 -51 -133 -39
-140 8 -5 19 -8 24 -7 7 2 146 320 146 334 0 4 -106 2 -135 -3z"/>
<path d="M4156 11788 c-3 -7 -20 -88 -39 -180 -34 -164 -34 -168 -15 -174 11
-3 23 -2 28 3 4 4 18 62 30 128 13 66 26 127 29 136 5 13 30 -2 120 -72 90
-71 116 -87 127 -78 8 6 14 17 13 23 0 9 -257 215 -281 224 -4 2 -10 -2 -12
-10z"/>
<path d="M17549 11620 c-34 -173 -35 -180 -17 -186 11 -3 22 -3 25 0 3 3 16
58 29 123 13 65 26 128 29 141 5 20 14 15 122 -69 107 -85 117 -90 129 -74 7
10 11 21 9 26 -8 11 -262 209 -277 214 -10 4 -23 -41 -49 -175z"/>
<path d="M13212 11574 c-46 -86 -81 -162 -78 -170 11 -30 36 -11 72 54 20 37
52 93 69 126 l33 58 82 -116 c45 -64 88 -116 95 -116 7 0 17 6 22 13 8 8 -19
53 -93 157 -57 80 -107 146 -111 147 -5 1 -45 -68 -91 -153z"/>
<path d="M9511 11078 c9 -101 17 -184 18 -185 2 -5 38 -3 42 2 3 2 0 66 -7
142 -7 76 -10 140 -8 142 2 2 63 -19 136 -47 131 -51 147 -53 148 -16 0 9
-320 144 -341 144 -2 0 3 -82 12 -182z"/>
<path d="M3425 10781 c-3 -14 -20 -79 -37 -143 l-30 -118 -109 96 c-91 80
-112 94 -124 84 -8 -7 -15 -16 -15 -20 0 -4 53 -54 118 -111 64 -56 126 -111
138 -121 l21 -19 42 163 c22 90 44 173 47 184 4 17 0 22 -19 26 -21 4 -27 0
-32 -21z"/>
<path d="M16851 10771 c-6 -20 -21 -80 -35 -134 -13 -54 -27 -101 -30 -105 -3
-3 -16 4 -29 15 -99 88 -188 163 -195 163 -4 0 -12 -8 -18 -18 -10 -15 7 -33
121 -132 73 -63 136 -115 142 -117 5 -2 29 70 52 159 23 90 44 170 47 179 3
12 -3 18 -21 21 -22 5 -26 1 -34 -31z"/>
<path d="M12298 10720 c-15 -9 -9 -28 57 -178 40 -92 75 -167 78 -167 4 0 58
62 122 139 92 110 113 141 104 152 -6 8 -17 14 -23 13 -6 0 -49 -47 -96 -104
-47 -58 -89 -103 -93 -102 -5 1 -34 60 -64 130 -31 70 -59 127 -62 127 -3 0
-14 -5 -23 -10z"/>
<path d="M1112 10610 c-95 -26 -175 -50 -178 -53 -3 -3 49 -66 116 -141 109
-121 124 -134 141 -123 10 6 19 14 19 17 -1 3 -43 52 -95 110 -51 57 -92 107
-90 111 3 3 60 21 128 39 146 38 150 40 140 67 -8 20 -12 19 -181 -27z"/>
<path d="M7563 10639 c-7 -7 -13 -17 -13 -22 0 -5 43 -54 96 -109 53 -55 92
-104 87 -108 -4 -4 -65 -25 -135 -46 -101 -30 -128 -41 -128 -55 0 -10 4 -21
10 -24 11 -7 350 95 350 105 0 4 -57 66 -127 139 -104 108 -130 130 -140 120z"/>
<path d="M14522 10606 c-84 -24 -155 -46 -158 -49 -4 -3 49 -67 116 -142 117
-130 123 -135 141 -119 18 16 16 20 -54 96 -96 106 -119 136 -110 141 5 3 53
17 108 31 161 43 164 44 158 66 -7 27 -23 25 -201 -24z"/>
<path d="M5625 10564 c-27 -13 -100 -48 -162 -77 -106 -49 -111 -53 -100 -73
12 -21 14 -21 137 37 69 32 129 58 134 58 5 1 7 -62 4 -144 -5 -145 -5 -145
17 -145 19 0 23 7 29 46 9 65 8 324 -1 323 -5 0 -30 -11 -58 -25z"/>
<path d="M9951 9897 c-9 -12 7 -34 89 -120 55 -58 97 -108 93 -110 -4 -3 -62
-21 -128 -41 -66 -21 -125 -39 -132 -41 -15 -5 -5 -45 12 -45 14 0 337 98 343
105 6 5 -238 259 -253 263 -6 2 -17 -4 -24 -11z"/>
<path d="M4223 9527 c-95 -34 -173 -64 -173 -67 0 -4 6 -14 13 -23 11 -16 22
-14 140 29 70 26 130 44 134 40 6 -6 -11 -196 -23 -258 -5 -25 -3 -28 20 -28
29 0 27 -8 52 197 8 73 14 141 12 152 -3 17 -16 14 -175 -42z"/>
<path d="M17647 9527 c-152 -55 -167 -63 -161 -81 4 -12 8 -22 9 -24 2 -2 62
18 134 44 73 25 134 44 137 41 6 -5 -8 -153 -23 -249 -5 -36 -4 -38 21 -38 14
0 26 1 26 3 0 1 9 76 20 167 22 184 23 200 13 199 -5 -1 -83 -29 -176 -62z"/>
<path d="M8643 9472 c-90 -42 -163 -79 -163 -82 0 -3 6 -13 13 -22 11 -14 25
-10 137 42 69 32 128 59 131 59 4 1 4 -64 1 -144 l-5 -145 27 0 c26 0 26 1 26
73 0 39 3 123 7 185 3 65 2 112 -3 111 -5 0 -82 -35 -171 -77z"/>
<path d="M2125 9526 c-124 -9 -159 -14 -157 -24 2 -12 167 -299 177 -311 2 -1
13 3 23 11 19 13 17 18 -53 138 l-73 125 51 7 c29 3 80 6 113 7 98 2 124 9
124 37 0 19 -5 24 -22 22 -13 0 -95 -6 -183 -12z"/>
<path d="M15555 9526 c-125 -9 -159 -14 -157 -25 4 -22 174 -311 182 -311 4 0
13 7 20 15 11 13 1 36 -58 138 l-71 122 92 8 c203 17 197 16 197 43 0 19 -5
24 -22 22 -13 0 -95 -6 -183 -12z"/>
<path d="M13290 9455 c0 -29 15 -35 98 -36 37 -1 95 -4 130 -8 l62 -6 -70
-120 c-38 -66 -70 -125 -70 -131 0 -15 31 -27 40 -17 18 20 180 306 176 311
-3 2 -63 8 -133 13 -70 5 -152 10 -180 13 -50 4 -53 3 -53 -19z"/>
<path d="M0 9446 c0 -26 29 -36 106 -36 24 0 44 -2 44 -4 0 -2 -32 -59 -71
-126 -67 -112 -71 -123 -56 -138 11 -10 20 -13 26 -7 10 11 181 303 181 310 0
6 -56 13 -147 19 -82 5 -83 5 -83 -18z"/>
<path d="M11196 9439 c-60 -5 -110 -10 -111 -11 -7 -7 181 -318 191 -318 6 0
16 6 22 13 8 9 -7 43 -59 131 -38 65 -69 121 -69 126 0 4 64 12 143 16 137 9
142 10 145 32 3 21 1 22 -75 21 -43 -1 -127 -6 -187 -10z"/>
<path d="M6748 9238 c-87 -22 -158 -43 -158 -47 0 -4 52 -69 116 -144 101
-117 119 -135 135 -126 11 5 19 13 19 17 0 4 -41 54 -90 112 -49 58 -90 108
-90 111 0 4 60 21 133 39 72 18 135 34 139 36 3 2 4 13 1 24 -7 27 -20 25
-205 -22z"/>
<path d="M3024 8712 c-8 -5 4 -61 37 -180 26 -96 49 -175 51 -177 3 -3 217
183 272 235 9 9 -10 40 -24 40 -5 0 -56 -43 -114 -96 -68 -61 -108 -91 -111
-82 -2 7 -20 69 -38 138 -33 121 -45 141 -73 122z"/>
<path d="M16453 8712 c-9 -5 1 -53 36 -180 27 -95 50 -175 53 -177 2 -2 42 30
88 72 198 177 193 172 180 188 -7 8 -16 15 -21 15 -5 0 -53 -40 -108 -90 -54
-49 -103 -90 -108 -90 -6 0 -20 37 -32 83 -54 198 -55 200 -88 179z"/>
<path d="M5390 8465 c-14 -17 -14 -17 133 -170 l57 -61 -67 -21 c-38 -12 -101
-31 -140 -43 -40 -12 -73 -27 -73 -33 1 -39 16 -38 181 13 90 28 170 52 177
55 9 3 -34 55 -114 140 -71 74 -131 135 -135 135 -4 0 -12 -7 -19 -15z"/>
<path d="M12430 8470 c0 -14 131 -340 137 -340 2 0 13 4 23 10 18 9 17 14 -17
97 -19 49 -44 110 -54 137 l-20 49 83 -7 c46 -3 111 -9 144 -12 57 -6 62 -5
69 16 4 12 5 23 3 25 -1 2 -64 8 -138 14 -74 6 -156 13 -182 16 -30 4 -48 2
-48 -5z"/>
<path d="M1218 8434 c-16 -16 -12 -23 83 -125 l100 -107 -98 -30 c-54 -17
-117 -36 -141 -43 -36 -10 -41 -15 -36 -33 4 -12 8 -22 9 -24 4 -5 338 98 347
106 3 4 -51 67 -120 140 -120 126 -128 132 -144 116z"/>
<path d="M14647 8433 c-15 -18 -11 -24 83 -125 l100 -106 -97 -30 c-54 -17
-117 -36 -140 -43 -43 -12 -50 -22 -34 -47 7 -11 42 -3 177 38 93 29 172 55
175 58 4 4 -50 67 -120 140 -121 127 -128 132 -144 115z"/>
<path d="M9746 8313 c-129 -78 -155 -98 -144 -108 21 -20 287 -185 298 -185 5
0 14 8 19 18 8 15 -8 29 -115 96 -69 43 -124 79 -122 81 2 2 57 35 123 75 66
40 122 74 124 75 1 2 -3 13 -11 23 -13 19 -20 16 -172 -75z"/>
<path d="M7510 8353 c-1 -14 134 -343 140 -343 3 0 14 6 23 13 15 11 11 24
-38 142 -41 99 -50 131 -39 133 8 2 71 -1 140 -7 69 -6 130 -9 135 -5 14 8 11
44 -3 44 -21 0 -249 19 -305 26 -29 3 -53 2 -53 -3z"/>
<path d="M8681 7457 c-5 -12 -21 -75 -37 -139 -15 -65 -32 -118 -37 -118 -5 0
-46 32 -91 72 -44 40 -91 81 -104 92 -21 19 -23 19 -40 2 -16 -17 -15 -19 19
-49 20 -18 84 -74 142 -125 l106 -93 10 38 c60 227 81 310 81 319 0 7 -9 14
-21 17 -14 4 -22 -1 -28 -16z"/>
<path d="M13402 7261 c-79 -48 -147 -92 -152 -97 -5 -5 53 -49 147 -108 144
-90 158 -97 169 -81 8 10 11 21 9 25 -3 4 -57 40 -120 79 -63 40 -115 75 -115
79 0 4 52 38 116 76 63 38 117 73 120 78 6 9 -14 39 -25 37 -3 0 -70 -40 -149
-88z"/>
<path d="M2160 7320 c-6 -12 -10 -23 -8 -25 2 -1 58 -35 126 -75 l123 -73
-120 -78 c-67 -43 -121 -82 -121 -86 0 -15 18 -35 27 -32 19 7 303 194 303
199 0 3 -51 34 -112 70 -62 36 -133 78 -159 93 l-48 28 -11 -21z"/>
<path d="M15592 7328 c-7 -7 -12 -17 -12 -23 0 -6 54 -42 120 -81 66 -38 120
-72 120 -76 0 -4 -54 -42 -119 -85 -102 -66 -118 -80 -110 -95 5 -10 14 -18
19 -18 5 0 77 44 160 98 113 74 148 101 138 109 -7 6 -65 41 -128 78 -63 37
-129 76 -146 86 -23 14 -33 16 -42 7z"/>
<path d="M11210 7256 c0 -26 0 -26 83 -27 45 -1 110 -4 144 -8 l63 -6 -71
-124 c-65 -114 -69 -125 -54 -140 15 -15 17 -14 31 4 25 33 177 306 173 309
-2 2 -86 7 -186 11 l-183 8 0 -27z"/>
<path d="M4502 7200 c3 -25 3 -25 143 -33 77 -5 141 -10 143 -11 1 -2 -29 -57
-68 -124 -38 -66 -70 -125 -70 -130 0 -13 32 -25 41 -15 18 19 180 305 175
310 -3 3 -86 11 -186 17 l-181 12 3 -26z"/>
<path d="M6551 7169 c-62 -5 -117 -10 -122 -11 -12 -4 168 -312 184 -316 8 -2
19 3 24 10 8 10 -6 42 -58 128 -37 63 -68 120 -69 126 0 8 46 14 140 19 77 4
142 11 145 15 3 5 2 15 -1 24 -7 18 -49 19 -243 5z"/>
<path d="M9844 6323 c3 -10 30 -90 59 -178 47 -137 57 -160 73 -157 10 2 21 6
24 8 2 3 -15 62 -38 132 -23 70 -42 132 -42 138 0 7 42 4 123 -7 162 -24 167
-24 167 4 0 22 -6 24 -167 46 -93 12 -176 25 -186 28 -15 4 -18 1 -13 -14z"/>
<path d="M3148 6266 c-91 -6 -168 -13 -171 -16 -5 -6 175 -319 184 -320 3 0
13 6 22 13 15 11 10 23 -54 135 -39 68 -70 125 -68 127 2 2 49 6 104 10 173
10 187 13 183 38 -4 27 2 27 -200 13z"/>
<path d="M16573 6266 c-89 -6 -163 -13 -166 -16 -5 -6 175 -320 184 -320 3 0
13 6 22 13 15 11 9 24 -55 135 -39 67 -69 124 -67 126 2 3 66 9 143 14 76 6
140 13 143 16 11 10 -9 46 -25 44 -9 0 -90 -6 -179 -12z"/>
<path d="M12187 6135 c-93 -24 -170 -45 -172 -47 -6 -5 226 -273 240 -276 6
-2 17 3 23 11 9 11 -7 36 -82 123 -52 60 -92 111 -91 112 2 2 48 15 102 28
184 47 175 43 171 66 -2 12 -7 22 -13 24 -5 1 -86 -17 -178 -41z"/>
<path d="M7800 6149 c-85 -11 -160 -21 -167 -23 -16 -6 -4 -46 14 -46 8 0 71
7 140 15 69 9 127 14 129 12 2 -2 -18 -64 -45 -138 -47 -128 -48 -134 -30
-143 12 -6 23 -6 28 0 9 10 121 320 121 334 0 12 4 12 -190 -11z"/>
<path d="M5313 6002 c-84 -48 -153 -91 -153 -97 0 -5 4 -16 9 -24 7 -10 36 2
136 58 70 39 129 71 131 71 2 0 4 -28 4 -62 0 -35 3 -100 7 -145 6 -80 7 -83
30 -83 l25 0 -6 133 c-8 164 -15 237 -24 236 -4 0 -76 -40 -159 -87z"/>
<path d="M1223 6059 l-21 -8 40 -136 c22 -75 38 -138 36 -140 -2 -3 -64 7
-138 20 -73 14 -137 25 -142 25 -4 0 -8 -11 -8 -25 0 -14 2 -25 5 -25 3 0 82
-14 176 -31 94 -17 173 -28 176 -25 4 4 -92 345 -99 351 -2 2 -13 -1 -25 -6z"/>
<path d="M14653 6059 c-13 -4 -21 -14 -18 -21 20 -63 75 -261 72 -264 -2 -2
-63 8 -137 21 -73 14 -136 25 -140 25 -4 0 -10 -11 -12 -25 -3 -14 -2 -25 1
-25 3 0 84 -14 179 -31 95 -17 176 -29 178 -26 4 4 -93 348 -100 353 0 1 -11
-2 -23 -7z"/>
<path d="M115 5205 c-55 -7 -103 -14 -107 -14 -5 -1 -8 -13 -8 -27 0 -28 -12
-28 122 -8 37 6 40 5 34 -12 -5 -11 -28 -74 -52 -141 -42 -118 -42 -122 -23
-128 11 -4 23 -4 26 -2 7 7 123 326 123 338 0 5 -3 8 -7 8 -5 -1 -53 -7 -108
-14z"/>
<path d="M13468 5197 c-173 -20 -178 -21 -178 -44 0 -28 10 -29 175 -8 65 8
120 14 121 12 1 -1 -20 -63 -47 -136 -49 -134 -50 -150 -13 -151 6 0 39 76 73
169 64 176 66 182 54 180 -5 -1 -88 -11 -185 -22z"/>
<path d="M4535 5187 c-22 -17 -30 -5 88 -143 42 -51 77 -94 77 -97 0 -3 -63
-21 -140 -39 -115 -27 -140 -36 -140 -51 0 -10 6 -20 13 -23 12 -4 346 71 355
81 2 2 -43 59 -99 127 -57 67 -111 131 -119 141 -13 16 -17 16 -35 4z"/>
<path d="M6613 5027 c-84 -51 -152 -94 -153 -97 0 -3 70 -50 156 -103 145 -92
157 -97 169 -80 8 10 10 21 7 25 -4 4 -61 41 -125 82 l-118 74 38 23 c211 128
213 130 203 150 -6 10 -14 19 -18 19 -4 -1 -75 -42 -159 -93z"/>
<path d="M8680 5029 c-36 -4 -109 -13 -162 -20 -93 -11 -98 -12 -98 -35 0 -28
-8 -28 153 -8 71 8 131 13 133 11 3 -2 -16 -61 -41 -129 -25 -69 -45 -130 -45
-136 0 -13 31 -25 41 -15 4 4 30 71 57 148 28 77 55 152 61 168 12 31 15 31
-99 16z"/>
<path d="M10960 4866 c-80 -45 -154 -86 -164 -92 -17 -10 -17 -14 -5 -32 14
-20 17 -19 138 50 67 38 125 67 128 64 3 -3 8 -58 10 -123 5 -152 8 -165 35
-161 20 3 21 8 18 98 -1 52 -5 136 -9 186 l-6 91 -145 -81z"/>
<path d="M2093 4462 c-90 -43 -163 -81 -163 -87 1 -39 18 -36 146 22 l129 60
3 -143 c2 -121 5 -143 19 -148 9 -4 20 -3 24 1 8 9 17 374 9 372 -3 0 -78 -35
-167 -77z"/>
<path d="M15523 4461 c-90 -41 -163 -80 -163 -86 1 -34 17 -35 81 -6 35 16 95
43 132 60 l69 31 -4 -145 c-3 -145 -1 -155 32 -155 15 0 21 80 18 231 l-3 145
-162 -75z"/>
<path d="M3570 3883 c-18 -71 -36 -133 -39 -140 -4 -8 -46 22 -116 82 -85 74
-112 92 -122 83 -8 -6 -13 -17 -11 -24 3 -14 269 -246 275 -240 2 2 24 81 48
177 44 173 45 188 9 189 -6 0 -26 -57 -44 -127z"/>
<path d="M17021 3973 c-37 -145 -62 -237 -65 -240 -1 -2 -31 22 -67 53 -160
139 -154 136 -173 115 -15 -17 -9 -24 126 -141 78 -67 144 -118 146 -112 2 6
23 86 47 179 33 125 41 169 32 175 -24 15 -36 7 -46 -29z"/>
<path d="M9780 3813 c38 -92 73 -169 79 -171 6 -2 17 0 25 5 12 7 5 31 -40
142 -30 73 -54 134 -52 135 2 2 66 -3 143 -9 77 -6 141 -11 141 -11 1 1 5 11
8 23 6 19 3 23 -26 27 -36 6 -287 26 -324 26 -22 0 -20 -7 46 -167z"/>
<path d="M12330 3805 c-14 -17 -15 -15 129 -167 30 -32 53 -59 50 -62 -2 -2
-64 -23 -136 -45 -75 -24 -133 -47 -133 -54 1 -34 16 -34 110 -5 52 16 132 40
178 54 l82 25 -127 135 c-70 74 -130 134 -134 134 -4 0 -12 -7 -19 -15z"/>
<path d="M7606 3736 c-93 -34 -171 -65 -173 -71 -1 -5 1 -16 6 -24 8 -12 32
-6 141 33 73 25 135 45 137 42 2 -2 -3 -60 -12 -129 -19 -161 -20 -157 8 -157
23 0 24 4 46 181 12 100 20 183 19 184 -2 1 -79 -25 -172 -59z"/>
<path d="M887 3783 c-4 -7 87 -351 95 -358 6 -6 276 240 274 249 -1 5 -9 14
-18 20 -13 8 -36 -9 -117 -82 -56 -51 -105 -92 -109 -92 -4 0 -16 30 -26 68
-44 170 -56 202 -76 202 -10 0 -21 -3 -23 -7z"/>
<path d="M14316 3782 c-4 -7 86 -348 95 -356 2 -2 66 52 142 121 111 101 135
128 126 139 -6 8 -16 14 -21 14 -6 0 -55 -40 -110 -90 -55 -49 -103 -90 -108
-90 -4 0 -17 37 -29 83 -49 181 -52 187 -71 187 -10 0 -21 -4 -24 -8z"/>
<path d="M5427 3543 c-19 -98 -33 -181 -30 -185 2 -5 13 -8 23 -8 20 0 22 7
56 188 10 50 21 92 24 92 4 0 56 -38 116 -85 60 -47 112 -85 116 -85 4 0 12 8
17 19 9 16 -8 33 -134 130 -79 61 -145 111 -148 111 -2 0 -20 -80 -40 -177z"/>
<path d="M11348 3107 c-86 -40 -160 -75 -163 -78 -3 -3 58 -59 136 -123 112
-92 144 -114 155 -105 24 20 16 32 -59 92 -40 31 -89 72 -111 90 l-38 33 131
58 c72 32 131 62 131 66 0 15 -12 40 -19 39 -3 0 -77 -33 -163 -72z"/>
<path d="M75 3030 c-61 -22 -70 -29 -73 -52 l-3 -28 42 15 c23 9 44 13 47 10
5 -5 -14 -200 -25 -257 -5 -25 -2 -28 20 -28 22 0 27 6 31 33 12 73 37 308 34
320 -2 10 -20 7 -73 -13z"/>
<path d="M13406 2995 c-93 -33 -171 -65 -173 -70 -1 -6 1 -16 6 -24 8 -12 32
-6 142 32 73 26 134 45 137 43 4 -5 -12 -162 -25 -248 -5 -36 -4 -38 21 -38
14 0 26 2 26 5 0 3 9 80 20 172 12 91 20 171 18 177 -2 8 -63 -10 -172 -49z"/>
<path d="M4511 2938 c-4 -13 -25 -70 -46 -128 -21 -58 -41 -109 -45 -113 -4
-4 -50 37 -103 93 -53 55 -101 100 -106 100 -4 0 -14 -6 -21 -14 -9 -12 10
-37 106 -138 64 -68 122 -129 129 -136 10 -11 21 11 57 110 88 238 85 228 68
238 -23 14 -30 12 -39 -12z"/>
<path d="M17945 2950 c-3 -4 -22 -57 -44 -116 -22 -60 -42 -117 -46 -127 -7
-16 -24 -3 -111 84 -97 96 -105 102 -120 87 -16 -15 -8 -26 112 -152 71 -74
129 -134 131 -133 4 5 123 338 123 346 0 12 -39 21 -45 11z"/>
<path d="M6731 2898 c-4 -13 -20 -74 -36 -135 -15 -62 -31 -113 -35 -113 -4 0
-54 40 -111 90 -57 49 -107 90 -111 90 -4 0 -12 -8 -17 -18 -8 -16 10 -36 124
-135 73 -64 137 -117 142 -117 8 0 94 321 93 348 0 21 -40 13 -49 -10z"/>
<path d="M2030 2835 c0 -3 30 -79 66 -170 52 -130 70 -165 84 -165 11 0 21 4
24 9 3 4 -17 64 -44 132 -28 67 -50 127 -50 132 0 9 188 2 258 -10 29 -5 32
-3 32 21 0 14 -1 26 -2 26 -15 3 -337 30 -350 30 -10 0 -18 -2 -18 -5z"/>
<path d="M15460 2833 c0 -4 30 -83 66 -175 62 -154 69 -166 88 -158 26 10 26
11 -34 159 l-49 123 122 -7 c67 -4 133 -8 147 -9 19 -1 26 5 28 22 2 12 2 22
0 22 -28 4 -338 30 -350 30 -10 0 -18 -3 -18 -7z"/>
<path d="M8587 2804 c-4 -4 -7 -15 -7 -25 0 -19 25 -24 193 -35 80 -5 97 -9
93 -20 -3 -8 -35 -65 -72 -126 -61 -104 -64 -113 -48 -125 10 -7 20 -13 23
-13 3 1 47 73 97 160 74 129 89 160 75 164 -9 2 -77 7 -151 11 -74 3 -149 8
-165 11 -17 3 -34 2 -38 -2z"/>
<path d="M5468 1898 c-156 -57 -166 -62 -158 -82 10 -26 8 -26 155 27 l120 44
3 -27 c2 -15 -4 -78 -12 -141 -8 -62 -12 -117 -10 -121 3 -4 14 -8 24 -8 22 0
22 0 45 190 17 141 19 180 8 179 -5 0 -83 -27 -175 -61z"/>
<path d="M9911 1841 c-12 -8 -9 -30 23 -141 22 -72 36 -133 32 -137 -3 -3 -61
4 -129 15 -155 27 -157 27 -157 -1 0 -21 9 -24 182 -54 100 -18 183 -31 184
-30 5 6 -103 351 -111 354 -6 1 -16 -1 -24 -6z"/>
<path d="M12181 1808 c-15 -24 -28 -14 127 -105 61 -36 112 -67 112 -69 0 -1
-54 -37 -120 -79 -66 -42 -120 -79 -120 -82 0 -2 5 -13 10 -23 10 -18 23 -11
163 80 83 54 152 103 151 107 -1 6 -166 109 -295 183 -11 6 -19 3 -28 -12z"/>
<path d="M1011 1638 c-19 -95 -34 -177 -35 -183 0 -5 9 -11 21 -13 25 -4 23
-7 54 143 12 61 25 116 29 123 6 12 41 -12 218 -151 12 -9 42 7 42 23 0 7
-272 222 -288 228 -4 1 -23 -75 -41 -170z"/>
<path d="M14437 1633 c-19 -98 -33 -181 -30 -185 8 -15 42 -8 47 10 3 9 15 69
27 132 12 63 25 119 29 123 3 4 40 -19 81 -51 147 -115 148 -116 164 -102 8 7
15 16 15 20 0 7 -284 230 -293 230 -2 0 -20 -80 -40 -177z"/>
<path d="M3589 1743 c-9 -16 -42 -72 -73 -127 l-58 -98 -79 118 c-43 66 -83
120 -87 122 -5 1 -15 -4 -22 -13 -11 -13 3 -38 85 -163 53 -81 100 -148 103
-150 4 -1 49 69 99 155 83 142 91 159 76 171 -23 17 -27 16 -44 -15z"/>
<path d="M16961 1645 c-40 -69 -74 -125 -76 -125 -2 0 -38 54 -80 120 -42 66
-79 120 -82 120 -2 0 -13 -5 -23 -10 -18 -10 -11 -23 80 -162 54 -84 102 -154
107 -155 4 -1 49 68 100 155 81 139 89 158 75 170 -9 6 -19 12 -22 12 -3 0
-39 -56 -79 -125z"/>
<path d="M7718 1648 c-156 -57 -166 -62 -158 -82 10 -26 13 -25 163 30 66 24
121 43 122 41 1 -1 -6 -65 -15 -142 -10 -77 -16 -143 -13 -147 2 -5 13 -8 23
-8 22 0 23 4 45 192 17 142 18 178 8 177 -5 0 -83 -28 -175 -61z"/>
<path d="M265 638 c-10 -73 -21 -137 -25 -142 -5 -4 -60 28 -124 73 l-116 80
1 -32 c0 -30 10 -39 136 -125 74 -51 137 -91 140 -89 5 5 52 319 53 350 0 11
-8 17 -24 17 -22 0 -24 -5 -41 -132z"/>
<path d="M13710 758 c-1 -33 -37 -259 -43 -264 -3 -3 -59 30 -123 75 -114 78
-118 80 -132 60 -8 -11 -12 -22 -11 -23 49 -38 302 -207 305 -204 3 4 54 338
54 359 0 14 -50 11 -50 -3z"/>
<path d="M4635 697 c-8 -29 -24 -91 -36 -139 -12 -49 -25 -88 -28 -88 -4 0
-54 41 -112 90 -57 50 -107 90 -111 90 -4 0 -12 -8 -17 -18 -8 -16 10 -36 124
-135 74 -64 138 -117 142 -117 8 0 94 322 93 346 0 7 -9 14 -20 17 -17 4 -22
-3 -35 -46z"/>
<path d="M18040 605 c-19 -74 -38 -135 -42 -135 -4 0 -29 19 -55 43 -145 127
-162 140 -178 127 -8 -7 -15 -16 -15 -20 0 -15 272 -242 280 -234 12 13 80
287 80 323 0 23 -5 31 -18 31 -14 0 -24 -26 -52 -135z"/>
<path d="M6530 686 c0 -24 1 -24 140 -31 77 -4 142 -11 145 -14 2 -4 -27 -60
-66 -125 -38 -65 -69 -122 -69 -126 0 -9 39 -25 44 -18 17 21 177 310 174 313
-4 5 -272 25 -330 25 -33 0 -38 -3 -38 -24z"/>
<path d="M11115 646 c-19 -13 -17 -18 42 -142 l62 -129 -145 -3 -144 -3 0 -24
0 -25 185 0 184 0 -43 93 c-23 50 -61 127 -82 170 -37 73 -41 77 -59 63z"/>
<path d="M8808 567 c-93 -34 -168 -66 -168 -71 1 -39 17 -38 149 10 72 26 133
45 136 42 2 -2 -2 -58 -10 -123 -20 -161 -20 -165 8 -165 23 0 24 4 41 158 10
86 20 169 23 185 3 15 2 26 -3 26 -5 -1 -84 -29 -176 -62z"/>
<path d="M2272 532 c-89 -19 -161 -39 -160 -44 2 -5 52 -71 112 -147 97 -124
111 -138 128 -128 10 7 18 15 18 18 0 3 -38 54 -85 113 -47 59 -85 111 -85
114 0 4 63 20 140 36 77 16 140 32 140 37 0 20 -14 39 -29 38 -9 -1 -89 -17
-179 -37z"/>
<path d="M15810 555 c-30 -7 -104 -23 -163 -35 -75 -16 -107 -27 -103 -35 2
-7 53 -74 111 -148 96 -121 110 -134 126 -124 11 7 19 14 19 17 0 3 -38 53
-85 113 -47 59 -85 111 -85 115 0 4 63 21 140 36 110 23 140 32 135 43 -3 8
-5 19 -5 24 0 12 -22 10 -90 -6z"/>
</g>
</svg>
