<?xml version="1.0" standalone="no"?>
<!DOCTYPE svg PUBLIC "-//W3C//DTD SVG 20010904//EN"
 "http://www.w3.org/TR/2001/REC-SVG-20010904/DTD/svg10.dtd">
<svg version="1.0" xmlns="http://www.w3.org/2000/svg"
 width="1125.000000pt" height="900.000000pt" viewBox="0 0 1125.000000 900.000000"
 preserveAspectRatio="xMidYMid meet">
<metadata>
Created by potrace 1.13, written by Peter Selinger 2001-2015
</metadata>
<g transform="translate(0.000000,900.000000) scale(0.100000,-0.100000)"
fill="#000000" stroke="none">
<path d="M0 4500 l0 -4500 5625 0 5625 0 0 4500 0 4500 -5625 0 -5625 0 0
-4500z m11205 4010 l0 -445 -502 -3 -503 -2 0 -30 0 -30 503 -2 502 -3 3 -292
2 -293 -55 0 -55 0 0 -35 0 -35 55 0 55 0 -2 -567 -3 -568 -137 -3 -138 -3 0
-29 0 -29 138 -3 137 -3 0 -585 0 -585 -352 -3 -353 -2 0 -30 0 -30 353 -2
352 -3 0 -600 0 -600 -202 -3 -203 -2 0 -30 0 -30 203 -2 202 -3 0 -275 0
-275 -532 -3 -533 -2 0 -30 0 -30 533 -2 532 -3 0 -260 0 -260 -67 -3 c-68 -3
-68 -3 -68 -32 0 -29 0 -29 68 -32 l67 -3 3 -287 2 -288 -585 0 -585 0 0 -35
0 -35 585 0 585 0 -2 -292 -3 -293 -187 -3 -188 -2 0 -30 0 -30 188 -2 187 -3
0 -535 0 -535 -5580 0 -5580 0 0 535 0 535 478 3 477 2 0 30 0 30 -477 2 -478
3 -3 293 -2 292 80 0 80 0 0 35 0 35 -80 0 -80 0 2 288 3 287 592 3 593 2 0
30 0 30 -592 2 -593 3 0 260 0 260 128 3 127 3 0 29 0 29 -127 3 -128 3 0 275
0 275 458 3 457 2 0 30 0 30 -457 2 -458 3 0 600 0 600 313 3 313 2 -3 28 -3
27 -310 5 -310 5 0 585 0 585 528 3 527 2 0 30 0 30 -527 2 -528 3 -3 568 -2
567 610 0 610 0 0 35 0 35 -610 0 -610 0 2 293 3 292 163 3 162 2 0 30 0 30
-162 2 -163 3 -3 253 -2 252 660 0 660 0 0 30 0 30 -658 2 -657 3 -3 150 c-1
82 0 155 2 162 4 11 1025 13 5583 11 l5578 -3 0 -445z"/>
<path d="M1890 8600 l0 -30 665 0 665 0 0 30 0 30 -665 0 -665 0 0 -30z"/>
<path d="M3750 8600 l0 -30 665 0 665 0 0 30 0 30 -665 0 -665 0 0 -30z"/>
<path d="M5610 8600 l0 -30 663 2 662 3 3 28 3 27 -665 0 -666 0 0 -30z"/>
<path d="M7470 8600 l0 -30 660 0 660 0 0 30 0 30 -660 0 -660 0 0 -30z"/>
<path d="M9340 8600 l0 -30 665 0 665 0 0 30 0 30 -665 0 -665 0 0 -30z"/>
<path d="M900 8030 l0 -30 666 0 665 0 -3 28 -3 27 -662 3 -663 2 0 -30z"/>
<path d="M2760 8030 l0 -30 660 0 660 0 0 30 0 30 -660 0 -660 0 0 -30z"/>
<path d="M4610 8030 l0 -30 665 0 665 0 0 30 0 30 -665 0 -665 0 0 -30z"/>
<path d="M6470 8030 l0 -30 665 0 665 0 0 30 0 30 -665 0 -665 0 0 -30z"/>
<path d="M8330 8030 l0 -30 670 0 670 0 0 30 0 30 -670 0 -670 0 0 -30z"/>
<path d="M1794 7396 c-3 -8 -4 -23 -2 -33 3 -17 36 -18 666 -21 l662 -2 0 35
0 35 -660 0 c-566 0 -661 -2 -666 -14z"/>
<path d="M3657 7403 c-4 -3 -7 -19 -7 -35 l0 -28 666 0 665 0 -3 33 -3 32
-656 3 c-360 1 -659 -1 -662 -5z"/>
<path d="M5510 7375 l0 -35 663 2 662 3 0 30 0 30 -662 3 -663 2 0 -35z"/>
<path d="M7370 7375 l0 -35 660 0 660 0 0 35 0 35 -660 0 -660 0 0 -35z"/>
<path d="M9247 7403 c-4 -3 -7 -19 -7 -35 l0 -28 665 0 665 0 0 35 0 35 -658
0 c-362 0 -662 -3 -665 -7z"/>
<path d="M534 6776 c-3 -8 -4 -23 -2 -33 3 -17 36 -18 666 -21 l662 -2 0 35 0
35 -660 0 c-566 0 -661 -2 -666 -14z"/>
<path d="M2392 6758 l3 -33 660 0 660 0 3 33 3 32 -666 0 -666 0 3 -32z"/>
<path d="M4250 6755 l0 -35 663 2 662 3 0 30 0 30 -662 3 -663 2 0 -35z"/>
<path d="M6110 6755 l0 -35 660 0 660 0 0 35 0 35 -660 0 -660 0 0 -35z"/>
<path d="M7964 6776 c-3 -8 -4 -23 -2 -33 3 -17 36 -18 671 -21 l667 -2 0 35
0 35 -665 0 c-570 0 -666 -2 -671 -14z"/>
<path d="M9840 6755 l0 -35 663 2 662 3 0 30 0 30 -662 3 -663 2 0 -35z"/>
<path d="M1630 6170 l0 -30 660 0 660 0 0 30 0 30 -660 0 -660 0 0 -30z"/>
<path d="M3490 6170 l0 -30 660 0 660 0 0 30 0 30 -660 0 -660 0 0 -30z"/>
<path d="M5340 6170 l0 -30 665 0 665 0 0 30 0 30 -665 0 -665 0 0 -30z"/>
<path d="M7200 6170 l0 -30 665 0 665 0 0 30 0 30 -665 0 -665 0 0 -30z"/>
<path d="M9080 6170 l0 -30 660 0 660 0 0 30 0 30 -660 0 -660 0 0 -30z"/>
<path d="M470 5550 l0 -30 660 0 660 0 0 30 0 30 -660 0 -660 0 0 -30z"/>
<path d="M2322 5553 l3 -28 663 -3 662 -2 0 30 0 30 -666 0 -665 0 3 -27z"/>
<path d="M4180 5550 l0 -30 665 0 665 0 0 30 0 30 -665 0 -665 0 0 -30z"/>
<path d="M6040 5550 l0 -30 665 0 665 0 0 30 0 30 -665 0 -665 0 0 -30z"/>
<path d="M7900 5550 l0 -30 668 2 667 3 3 28 3 27 -670 0 -671 0 0 -30z"/>
<path d="M9770 5550 l0 -30 665 0 665 0 0 30 0 30 -665 0 -665 0 0 -30z"/>
<path d="M1200 4930 l0 -30 660 0 660 0 0 30 0 30 -660 0 -660 0 0 -30z"/>
<path d="M3057 4953 c-4 -3 -7 -17 -7 -30 l0 -23 665 0 665 0 0 30 0 30 -658
0 c-362 0 -662 -3 -665 -7z"/>
<path d="M4910 4930 l0 -30 665 0 665 0 0 30 0 30 -665 0 -665 0 0 -30z"/>
<path d="M6770 4930 l0 -30 666 0 665 0 -3 28 -3 27 -662 3 -663 2 0 -30z"/>
<path d="M8630 4930 l0 -30 670 0 670 0 0 30 0 30 -670 0 -670 0 0 -30z"/>
<path d="M570 4270 l0 -30 660 0 660 0 0 30 0 30 -660 0 -660 0 0 -30z"/>
<path d="M2427 4293 c-4 -3 -7 -17 -7 -30 l0 -23 665 0 665 0 0 30 0 30 -658
0 c-362 0 -662 -3 -665 -7z"/>
<path d="M4280 4270 l0 -30 665 0 665 0 0 30 0 30 -665 0 -665 0 0 -30z"/>
<path d="M6140 4270 l0 -30 666 0 665 0 -3 28 -3 27 -662 3 -663 2 0 -30z"/>
<path d="M8000 4270 l0 -30 665 0 665 0 0 30 0 30 -665 0 -665 0 0 -30z"/>
<path d="M9870 4270 l0 -30 665 0 665 0 0 30 0 30 -665 0 -665 0 0 -30z"/>
<path d="M1500 3660 l0 -30 660 0 660 0 0 30 0 30 -660 0 -660 0 0 -30z"/>
<path d="M3350 3660 l0 -30 665 0 665 0 0 30 0 30 -665 0 -665 0 0 -30z"/>
<path d="M5210 3660 l0 -30 665 0 665 0 0 30 0 30 -665 0 -665 0 0 -30z"/>
<path d="M7070 3660 l0 -30 660 0 660 0 0 30 0 30 -660 0 -660 0 0 -30z"/>
<path d="M8940 3660 l0 -30 665 0 665 0 0 30 0 30 -665 0 -665 0 0 -30z"/>
<path d="M830 3040 l0 -30 665 0 665 0 0 30 0 30 -665 0 -665 0 0 -30z"/>
<path d="M2690 3040 l0 -30 665 0 665 0 0 30 0 30 -665 0 -665 0 0 -30z"/>
<path d="M4550 3040 l0 -30 660 0 660 0 0 30 0 30 -660 0 -660 0 0 -30z"/>
<path d="M6402 3043 l3 -28 663 -3 662 -2 0 30 0 30 -666 0 -665 0 3 -27z"/>
<path d="M8260 3040 l0 -30 670 0 670 0 0 30 0 30 -670 0 -670 0 0 -30z"/>
<path d="M1760 2450 l0 -30 665 0 665 0 0 30 0 30 -665 0 -665 0 0 -30z"/>
<path d="M3620 2450 l0 -30 666 0 665 0 -3 28 -3 27 -662 3 -663 2 0 -30z"/>
<path d="M5480 2450 l0 -30 660 0 660 0 0 30 0 30 -660 0 -660 0 0 -30z"/>
<path d="M7330 2450 l0 -30 665 0 665 0 0 30 0 30 -665 0 -665 0 0 -30z"/>
<path d="M9210 2450 l0 -30 666 0 665 0 -3 28 -3 27 -662 3 -663 2 0 -30z"/>
<path d="M737 1833 c-4 -3 -7 -19 -7 -35 l0 -28 666 0 665 0 -3 33 -3 32 -656
3 c-360 1 -659 -1 -662 -5z"/>
<path d="M2597 1833 c-4 -3 -7 -19 -7 -35 l0 -28 663 2 662 3 0 30 0 30 -656
3 c-360 1 -659 -1 -662 -5z"/>
<path d="M4450 1805 l0 -35 660 0 660 0 0 35 0 35 -660 0 -660 0 0 -35z"/>
<path d="M6310 1805 l0 -35 660 0 660 0 0 35 0 35 -660 0 -660 0 0 -35z"/>
<path d="M8167 1833 c-4 -3 -7 -19 -7 -35 l0 -28 670 0 670 0 0 35 0 35 -663
0 c-365 0 -667 -3 -670 -7z"/>
<path d="M1530 1150 l0 -30 663 2 662 3 3 28 3 27 -665 0 -666 0 0 -30z"/>
<path d="M3390 1150 l0 -30 660 0 660 0 0 30 0 30 -660 0 -660 0 0 -30z"/>
<path d="M5240 1150 l0 -30 665 0 665 0 0 30 0 30 -665 0 -665 0 0 -30z"/>
<path d="M7100 1150 l0 -30 665 0 665 0 0 30 0 30 -665 0 -665 0 0 -30z"/>
<path d="M8980 1150 l0 -30 660 0 660 0 0 30 0 30 -660 0 -660 0 0 -30z"/>
<path d="M570 530 l0 -30 660 0 660 0 0 30 0 30 -660 0 -660 0 0 -30z"/>
<path d="M2422 533 l3 -28 663 -3 662 -2 0 30 0 30 -666 0 -665 0 3 -27z"/>
<path d="M4280 530 l0 -30 665 0 665 0 0 30 0 30 -665 0 -665 0 0 -30z"/>
<path d="M6140 530 l0 -30 665 0 665 0 0 30 0 30 -665 0 -665 0 0 -30z"/>
<path d="M8000 530 l0 -30 665 0 665 0 0 30 0 30 -665 0 -665 0 0 -30z"/>
<path d="M9870 530 l0 -30 665 0 665 0 0 30 0 30 -665 0 -665 0 0 -30z"/>
</g>
</svg>
