<?xml version="1.0" standalone="no"?>
<!DOCTYPE svg PUBLIC "-//W3C//DTD SVG 20010904//EN"
 "http://www.w3.org/TR/2001/REC-SVG-20010904/DTD/svg10.dtd">
<svg version="1.0" xmlns="http://www.w3.org/2000/svg"
 width="1811.000000pt" height="1217.000000pt" viewBox="0 0 1811.000000 1217.000000"
 preserveAspectRatio="xMidYMid meet">
<metadata>
Created by potrace 1.13, written by Peter Selinger 2001-2015
</metadata>
<g transform="translate(0.000000,1217.000000) scale(0.100000,-0.100000)"
fill="#000000" stroke="none">
<path d="M690 12063 c-18 -60 -35 -113 -37 -119 -2 -7 64 0 179 17 101 15 184
28 186 28 6 2 1 40 -5 44 -5 2 -60 -4 -123 -14 -63 -10 -127 -18 -142 -18
l-27 -1 29 85 29 85 -28 0 c-27 0 -29 -5 -61 -107z"/>
<path d="M2445 12158 c-63 -193 -93 -303 -82 -310 28 -18 38 -3 72 110 20 64
43 137 51 161 7 25 14 46 14 48 0 10 -51 1 -55 -9z"/>
<path d="M6648 12074 c-54 -52 -98 -99 -98 -103 0 -5 7 -14 16 -22 13 -11 30
3 124 96 60 60 107 112 104 117 -16 25 -55 1 -146 -88z"/>
<path d="M7676 12148 c10 -13 29 -35 43 -50 l24 -27 -24 -9 c-13 -5 -75 -24
-136 -43 -88 -26 -113 -37 -113 -51 0 -9 5 -20 10 -23 12 -8 352 95 348 105
-2 4 -26 33 -55 64 -42 46 -57 56 -84 56 l-32 0 19 -22z"/>
<path d="M8981 12161 c-10 -7 2 -38 58 -147 93 -180 84 -168 110 -155 21 12
20 15 -56 161 -43 83 -82 150 -88 150 -5 0 -16 -4 -24 -9z"/>
<path d="M10508 12093 c-31 -43 -70 -96 -87 -119 -30 -40 -30 -42 -12 -58 18
-16 23 -12 115 113 53 72 96 133 96 136 0 3 -13 5 -28 5 -24 0 -37 -12 -84
-77z"/>
<path d="M14117 12057 c-20 -62 -37 -115 -37 -118 0 -7 358 46 366 54 3 3 3
15 -1 26 -5 15 -12 20 -28 16 -35 -8 -225 -35 -246 -35 -19 0 -18 4 9 85 l29
85 -27 0 c-26 0 -30 -6 -65 -113z"/>
<path d="M15877 12163 c-3 -5 -26 -75 -51 -158 -34 -112 -43 -151 -33 -157 24
-15 36 -7 46 30 6 20 28 92 50 159 21 67 36 125 33 128 -8 8 -40 6 -45 -2z"/>
<path d="M9816 12075 c-82 -36 -151 -66 -153 -69 -3 -2 0 -13 6 -24 10 -20 17
-18 168 46 87 36 159 66 160 67 8 4 -12 45 -21 44 -6 0 -78 -29 -160 -64z"/>
<path d="M12533 12093 c-7 -2 -13 -9 -13 -15 0 -9 122 -296 139 -326 5 -9 44
31 124 126 64 77 117 144 117 150 0 8 -22 22 -35 22 -2 0 -43 -47 -91 -105
-48 -58 -90 -105 -94 -105 -4 0 -32 57 -62 127 -30 70 -59 128 -64 129 -5 1
-15 0 -21 -3z"/>
<path d="M8535 11597 c-50 -40 -105 -84 -123 -98 -32 -24 -32 -26 -14 -42 18
-17 24 -13 141 78 107 85 120 99 111 116 -6 10 -14 19 -18 19 -4 -1 -48 -33
-97 -73z"/>
<path d="M13483 11527 c-74 -119 -81 -133 -66 -144 9 -7 19 -13 22 -13 3 0 43
60 88 133 74 119 81 133 66 145 -9 6 -19 12 -22 12 -3 0 -43 -60 -88 -133z"/>
<path d="M1237 11638 c-9 -5 -17 -14 -17 -19 0 -6 39 -59 87 -117 118 -146
109 -138 127 -122 9 7 16 15 16 19 0 4 -44 61 -98 128 -81 99 -101 119 -115
111z"/>
<path d="M14658 11634 c-14 -15 -7 -27 84 -140 55 -68 104 -124 108 -124 4 0
13 7 20 15 10 12 -3 34 -79 128 -111 139 -113 141 -133 121z"/>
<path d="M11070 11625 c-10 -12 6 -36 91 -140 97 -120 103 -125 121 -109 15
15 16 20 5 33 -8 9 -53 64 -101 124 -48 59 -91 107 -96 107 -4 0 -13 -7 -20
-15z"/>
<path d="M6930 11615 c-10 -12 6 -35 95 -134 94 -105 110 -119 127 -110 11 6
18 14 16 19 -5 15 -209 240 -218 240 -4 0 -13 -7 -20 -15z"/>
<path d="M3681 11606 c-9 -11 10 -40 90 -140 97 -120 103 -125 120 -110 22 19
32 2 -96 163 -44 55 -85 100 -91 101 -6 0 -17 -6 -23 -14z"/>
<path d="M17110 11605 c-10 -11 6 -36 86 -135 54 -66 103 -120 110 -120 6 0
16 6 22 13 8 9 -15 43 -89 135 -55 67 -104 122 -108 122 -5 0 -14 -7 -21 -15z"/>
<path d="M9951 11566 c-11 -13 3 -32 90 -121 56 -58 100 -107 98 -109 -2 -2
-61 -20 -130 -41 -70 -20 -132 -40 -138 -44 -15 -10 -3 -41 15 -41 16 0 312
89 333 100 9 5 -22 44 -110 136 -68 71 -128 130 -135 132 -6 2 -16 -4 -23 -12z"/>
<path d="M2953 11456 c-67 -50 -121 -95 -119 -100 1 -5 9 -14 17 -19 12 -8 43
11 132 78 65 48 117 93 117 100 0 7 -6 17 -12 22 -10 8 -47 -15 -135 -81z"/>
<path d="M12191 11464 c-66 -47 -121 -91 -121 -98 0 -41 25 -31 150 57 110 78
127 94 119 109 -5 10 -13 18 -18 18 -4 0 -63 -39 -130 -86z"/>
<path d="M16383 11456 c-67 -50 -121 -95 -119 -100 1 -5 9 -14 17 -19 12 -8
43 11 132 78 65 48 117 93 117 100 0 7 -6 17 -12 22 -10 8 -47 -15 -135 -81z"/>
<path d="M4917 11439 c-70 -49 -127 -93 -127 -98 0 -5 6 -14 14 -20 12 -10 38
4 140 76 69 48 126 93 126 99 0 6 -6 16 -13 22 -10 9 -43 -10 -140 -79z"/>
<path d="M7878 11438 c-14 -12 -8 -29 51 -155 36 -79 71 -143 76 -143 6 0 16
4 24 9 12 8 2 36 -54 155 -38 80 -71 146 -75 146 -3 0 -13 -6 -22 -12z"/>
<path d="M5977 11308 c-14 -12 -5 -27 86 -139 88 -109 104 -125 119 -115 10 6
18 14 18 18 0 9 -193 248 -200 248 -3 0 -14 -6 -23 -12z"/>
<path d="M2012 11236 c-88 -6 -152 -15 -152 -21 0 -13 173 -314 181 -315 3 0
13 6 22 13 16 11 11 23 -54 135 -39 68 -69 125 -67 127 2 2 39 6 83 10 210 15
206 15 203 38 -4 27 -14 28 -216 13z"/>
<path d="M15440 11236 c-92 -7 -154 -15 -153 -21 1 -8 169 -302 179 -314 1 -1
12 3 23 11 19 14 18 18 -54 140 l-73 126 81 6 c211 16 219 17 213 33 -3 8 -6
19 -6 24 0 10 6 10 -210 -5z"/>
<path d="M9126 11208 c-3 -13 -2 -24 2 -26 4 -1 68 -29 142 -61 121 -53 136
-57 148 -43 6 9 12 19 12 22 0 6 -281 130 -293 130 -3 0 -7 -10 -11 -22z"/>
<path d="M8643 11142 c-90 -43 -163 -80 -163 -83 0 -3 6 -13 13 -22 11 -15 23
-11 140 43 71 33 130 60 132 60 1 0 0 -65 -3 -145 l-5 -145 27 0 c26 0 26 1
26 73 0 39 3 123 7 185 3 65 2 112 -3 111 -5 0 -82 -35 -171 -77z"/>
<path d="M5490 11163 c0 -5 18 -73 39 -153 33 -126 41 -145 57 -142 10 2 21 6
23 8 4 4 -12 74 -60 257 -8 30 -14 37 -34 37 -14 0 -25 -3 -25 -7z"/>
<path d="M6677 11105 c-93 -24 -171 -46 -174 -49 -4 -3 3 -16 14 -29 15 -17
184 -215 213 -250 4 -4 14 1 24 12 16 18 13 23 -75 125 -50 59 -89 109 -86
112 3 3 65 21 137 39 72 18 133 35 135 37 6 6 -6 48 -14 47 -3 0 -82 -20 -174
-44z"/>
<path d="M13100 11026 c0 -26 1 -26 73 -27 39 -1 105 -4 144 -8 l72 -6 -74
-127 c-71 -123 -73 -128 -53 -139 11 -6 24 -7 28 -2 4 4 46 76 94 158 l86 150
-37 7 c-21 3 -104 9 -185 13 l-148 8 0 -27z"/>
<path d="M11553 11006 c-83 -6 -154 -14 -158 -18 -6 -5 153 -288 174 -311 4
-4 15 -1 25 6 18 13 15 21 -53 137 -39 67 -70 124 -69 126 2 1 44 5 93 9 189
12 195 14 195 41 0 20 -5 24 -27 22 -16 0 -96 -6 -180 -12z"/>
<path d="M3477 10933 c-36 -161 -50 -233 -46 -237 2 -2 13 -6 23 -8 17 -3 23
14 52 142 18 80 33 151 33 158 1 6 -10 12 -23 12 -21 0 -25 -7 -39 -67z"/>
<path d="M16900 10903 c-12 -54 -28 -123 -35 -155 -13 -56 -13 -56 11 -61 16
-3 25 1 28 12 17 54 64 286 60 293 -3 4 -14 8 -24 8 -15 0 -22 -17 -40 -97z"/>
<path d="M10686 10973 c-3 -4 -6 -14 -6 -24 0 -20 27 -24 206 -34 103 -5 114
-2 114 35 0 11 -304 33 -314 23z"/>
<path d="M4215 10910 c-134 -49 -159 -62 -157 -77 2 -10 6 -20 9 -23 2 -2 59
15 126 39 67 24 129 45 138 48 14 4 14 -7 3 -104 -7 -59 -15 -124 -18 -144 -5
-33 -3 -37 19 -41 14 -3 25 -5 25 -4 0 0 9 73 20 161 23 189 24 205 8 204 -7
0 -85 -27 -173 -59z"/>
<path d="M17645 10910 c-88 -31 -160 -63 -159 -69 4 -41 2 -41 154 14 68 25
126 43 128 40 5 -4 -13 -181 -25 -251 -4 -26 -1 -32 18 -37 13 -4 24 -5 26 -4
3 4 43 329 43 351 0 9 -6 16 -12 15 -7 0 -85 -27 -173 -59z"/>
<path d="M577 10939 c-4 -13 -5 -24 -4 -26 5 -4 286 -63 302 -63 9 0 15 9 15
23 0 22 -9 25 -132 50 -73 15 -143 30 -154 33 -16 4 -23 0 -27 -17z"/>
<path d="M14007 10938 c-4 -12 -5 -23 -3 -25 8 -8 291 -63 303 -59 7 3 13 13
13 23 0 15 -22 23 -137 46 -76 16 -145 30 -154 33 -11 3 -19 -3 -22 -18z"/>
<path d="M7430 10905 l0 -25 155 0 155 0 0 25 0 25 -155 0 -155 0 0 -25z"/>
<path d="M2610 10866 c-15 -19 -10 -25 110 -159 47 -53 89 -94 94 -93 5 1 14
9 19 18 8 12 -11 39 -93 129 -56 63 -106 115 -110 117 -4 1 -13 -4 -20 -12z"/>
<path d="M16042 10868 c-7 -7 -12 -16 -12 -21 0 -5 43 -57 96 -115 54 -59 101
-111 105 -116 9 -10 39 10 39 25 0 9 -198 231 -210 237 -3 1 -11 -3 -18 -10z"/>
<path d="M9968 10763 c-16 -15 -13 -21 45 -86 149 -168 144 -164 163 -145 16
16 11 23 -85 132 -56 64 -103 116 -104 116 -2 0 -10 -8 -19 -17z"/>
<path d="M9504 10585 c-33 -134 -37 -157 -24 -165 8 -5 19 -8 25 -7 8 3 89
306 83 312 -2 1 -13 5 -24 9 -21 6 -24 -2 -60 -149z"/>
<path d="M12450 10715 c-15 -18 -21 -12 105 -120 123 -106 113 -99 130 -85 8
7 15 16 15 19 0 8 -215 194 -229 199 -4 1 -14 -4 -21 -13z"/>
<path d="M1427 10611 c-137 -112 -130 -103 -113 -126 13 -18 21 -13 139 81
109 88 123 102 112 117 -7 9 -16 17 -21 16 -5 0 -58 -40 -117 -88z"/>
<path d="M14847 10604 c-104 -84 -116 -97 -107 -114 6 -11 13 -20 15 -20 10 0
245 191 245 198 0 9 -22 32 -29 31 -4 0 -59 -43 -124 -95z"/>
<path d="M5708 10529 c-116 -82 -126 -92 -115 -110 6 -10 15 -18 19 -17 4 2
64 43 133 91 114 80 124 89 112 107 -6 11 -14 20 -17 20 -3 -1 -62 -42 -132
-91z"/>
<path d="M8130 10545 c-10 -12 7 -35 96 -133 94 -104 110 -118 126 -108 10 6
18 14 18 17 0 10 -210 239 -219 239 -5 0 -14 -7 -21 -15z"/>
<path d="M7266 10434 c-58 -53 -106 -102 -106 -108 0 -7 5 -17 12 -24 8 -8 30
6 90 61 44 40 96 86 116 103 32 27 35 34 23 48 -7 9 -17 16 -21 16 -4 0 -56
-43 -114 -96z"/>
<path d="M4697 10503 c-14 -17 -9 -25 65 -118 43 -55 90 -111 104 -125 22 -22
25 -23 40 -9 14 15 7 27 -86 143 -57 69 -104 126 -105 126 -1 0 -9 -8 -18 -17z"/>
<path d="M3903 10327 c-142 -104 -141 -103 -121 -123 14 -14 24 -10 109 51
167 120 160 114 149 136 -6 10 -14 19 -18 18 -4 0 -57 -37 -119 -82z"/>
<path d="M17323 10322 c-67 -48 -122 -92 -123 -98 0 -6 6 -17 13 -23 11 -8 42
9 141 80 112 80 125 92 116 110 -6 10 -14 19 -18 18 -4 0 -62 -39 -129 -87z"/>
<path d="M6339 10255 c-82 -108 -101 -140 -93 -153 6 -9 15 -17 20 -18 5 -1
55 60 111 136 98 133 101 139 83 155 -18 16 -23 11 -121 -120z"/>
<path d="M8906 10373 c-4 -9 -3 -20 1 -24 4 -4 73 -37 153 -73 130 -58 146
-63 158 -48 6 9 12 19 12 22 0 6 -295 140 -309 140 -5 0 -12 -8 -15 -17z"/>
<path d="M11794 10264 c-55 -63 -100 -119 -102 -122 -1 -4 7 -13 17 -19 17
-11 30 0 124 110 77 89 102 125 95 135 -6 6 -16 12 -23 12 -7 0 -57 -52 -111
-116z"/>
<path d="M10997 10319 c-9 -6 -17 -14 -17 -19 0 -9 188 -243 199 -248 4 -1 15
3 24 10 16 12 7 25 -84 138 -56 69 -102 126 -103 127 0 1 -9 -3 -19 -8z"/>
<path d="M2756 10302 c-4 -7 71 -303 89 -350 3 -10 32 10 87 60 175 157 190
172 183 191 -4 9 -11 17 -17 17 -5 0 -57 -43 -116 -96 -100 -89 -107 -94 -114
-72 -4 13 -21 76 -39 141 -25 95 -35 117 -50 117 -10 0 -20 -4 -23 -8z"/>
<path d="M16185 10300 c-5 -8 81 -344 91 -359 4 -5 274 240 274 249 0 4 -7 13
-15 20 -13 10 -29 0 -103 -66 -48 -43 -96 -86 -108 -96 l-21 -19 -38 141 c-31
112 -42 140 -56 140 -10 0 -21 -4 -24 -10z"/>
<path d="M302 10271 c-11 -6 1 -40 54 -155 37 -80 70 -146 74 -146 3 0 13 6
22 13 14 11 9 27 -50 155 -36 78 -71 142 -76 142 -6 0 -17 -4 -24 -9z"/>
<path d="M13724 10267 c-2 -7 26 -77 63 -154 64 -132 69 -141 90 -132 22 8 22
9 -33 126 -31 65 -61 130 -66 146 -11 29 -45 38 -54 14z"/>
<path d="M1920 10181 c-9 -19 -5 -25 47 -58 32 -20 88 -56 126 -80 37 -24 71
-43 75 -43 4 0 12 8 19 18 10 17 -2 27 -114 98 -69 43 -130 80 -134 82 -4 2
-13 -6 -19 -17z"/>
<path d="M15352 10188 c-7 -7 -12 -17 -12 -22 1 -11 230 -158 255 -164 13 -3
28 25 20 38 -4 6 -191 125 -241 153 -6 3 -16 1 -22 -5z"/>
<path d="M10296 10099 c-114 -81 -125 -92 -115 -110 6 -11 14 -19 19 -17 25 9
249 175 250 184 0 6 -6 17 -13 23 -11 8 -42 -9 -141 -80z"/>
<path d="M5396 10134 c-22 -16 -25 -13 117 -160 l69 -71 -89 -27 c-48 -15
-112 -35 -140 -44 -53 -16 -60 -25 -44 -50 6 -11 43 -2 177 39 93 28 172 54
175 58 4 3 -50 65 -120 138 -117 123 -127 131 -145 117z"/>
<path d="M12430 10137 c0 -12 126 -327 134 -335 3 -2 13 1 25 7 19 11 18 15
-34 143 -30 73 -52 134 -50 136 2 2 65 -2 140 -8 113 -9 139 -9 146 2 14 22
10 38 -10 38 -30 0 -271 19 -313 25 -27 4 -38 1 -38 -8z"/>
<path d="M1218 10103 c-16 -17 -11 -24 83 -125 l100 -107 -129 -40 c-71 -23
-135 -41 -141 -41 -11 0 -7 -35 5 -49 4 -5 354 103 353 109 0 3 -57 65 -127
138 -122 127 -129 132 -144 115z"/>
<path d="M14647 10102 c-16 -18 -12 -24 83 -125 l101 -106 -113 -35 c-62 -19
-125 -38 -140 -41 -29 -7 -34 -20 -19 -43 7 -11 43 -3 185 40 97 29 175 56
173 59 -1 3 -59 65 -128 138 -120 126 -126 130 -142 113z"/>
<path d="M7809 9903 c37 -92 71 -168 76 -170 6 -1 17 1 24 6 13 8 6 31 -37
142 -29 72 -51 133 -49 135 2 2 50 -1 108 -6 167 -15 179 -14 179 13 0 23 -3
24 -152 35 -84 7 -167 12 -185 12 l-31 0 67 -167z"/>
<path d="M4265 9960 c-4 -12 -5 -23 -3 -25 2 -2 74 -7 161 -11 155 -7 157 -7
157 14 0 11 -3 23 -7 25 -5 3 -74 8 -155 12 -144 6 -146 6 -153 -15z"/>
<path d="M6996 9967 c-18 -13 -15 -21 58 -160 42 -81 80 -147 84 -147 4 0 14
5 22 10 13 8 4 31 -53 144 -87 171 -87 171 -111 153z"/>
<path d="M17690 9957 c0 -23 3 -24 98 -30 164 -11 209 -9 216 10 4 9 3 20 -1
24 -4 4 -77 10 -160 14 l-153 7 0 -25z"/>
<path d="M3408 9877 c-15 -12 -4 -26 94 -136 105 -116 111 -121 129 -105 17
16 13 21 -89 135 -58 66 -109 119 -112 119 -3 0 -13 -6 -22 -13z"/>
<path d="M16831 9876 c-9 -10 12 -38 95 -130 102 -113 129 -132 140 -101 6 15
-192 245 -212 245 -6 0 -17 -6 -23 -14z"/>
<path d="M8866 9795 c-18 -14 -18 -16 15 -58 109 -140 165 -206 175 -206 6 -1
17 5 23 13 9 11 -9 38 -85 132 -53 66 -99 122 -102 126 -4 4 -16 0 -26 -7z"/>
<path d="M9728 9681 c-92 -56 -153 -100 -148 -105 5 -5 75 -51 156 -102 144
-90 148 -92 162 -72 9 12 11 23 5 27 -5 3 -60 37 -121 76 -62 38 -112 73 -112
76 0 3 54 39 120 79 66 40 120 76 120 79 0 4 -6 14 -12 23 -11 14 -32 4 -170
-81z"/>
<path d="M13282 9738 c3 -23 6 -23 156 -26 l152 -3 0 26 0 25 -156 0 -155 0 3
-22z"/>
<path d="M11915 9656 c-18 -13 -13 -21 81 -131 54 -64 104 -124 111 -132 10
-13 15 -14 28 -3 8 7 15 17 15 22 0 8 -208 258 -214 258 -1 0 -11 -6 -21 -14z"/>
<path d="M2262 9642 c-9 -7 4 -44 55 -155 37 -81 72 -147 78 -147 5 0 16 4 24
9 11 7 0 38 -54 155 -38 80 -73 146 -79 146 -6 0 -17 -4 -24 -8z"/>
<path d="M15692 9641 c-11 -6 1 -40 54 -155 37 -80 70 -146 74 -146 3 0 13 6
22 13 14 11 9 27 -50 155 -36 78 -71 142 -76 142 -6 0 -17 -4 -24 -9z"/>
<path d="M11144 9541 c-107 -77 -120 -89 -109 -104 7 -9 15 -17 19 -17 6 0
210 142 255 176 7 6 -21 34 -33 33 -6 0 -66 -39 -132 -88z"/>
<path d="M6508 9426 c-111 -79 -125 -92 -117 -109 7 -11 17 -16 26 -13 34 14
243 168 243 181 0 40 -29 29 -152 -59z"/>
<path d="M8110 9496 c0 -24 3 -26 48 -26 27 0 96 -3 154 -6 95 -6 105 -5 112
11 4 10 3 22 -1 26 -4 4 -77 11 -160 15 l-153 7 0 -27z"/>
<path d="M3871 9353 c-59 -225 -69 -274 -55 -280 31 -12 41 9 73 148 18 79 34
148 35 154 0 5 -9 11 -21 13 -18 3 -24 -4 -32 -35z"/>
<path d="M17305 9378 c-16 -47 -73 -293 -69 -300 3 -4 14 -8 24 -8 21 0 18 -7
68 192 16 64 27 120 24 123 -10 10 -43 5 -47 -7z"/>
<path d="M585 9368 c-10 -31 -76 -301 -73 -303 2 -1 13 -5 24 -9 21 -6 24 2
60 149 33 134 37 157 24 165 -20 13 -30 12 -35 -2z"/>
<path d="M4772 9367 c-8 -9 8 -43 64 -132 41 -66 79 -126 83 -134 7 -12 11
-12 29 1 20 14 19 17 -61 146 -45 73 -87 132 -93 132 -6 0 -16 -6 -22 -13z"/>
<path d="M5300 9356 c0 -22 6 -26 68 -39 160 -36 233 -50 236 -46 2 2 6 13 8
24 3 17 -10 22 -122 46 -204 45 -190 44 -190 15z"/>
<path d="M12828 9282 c-58 -53 -107 -102 -107 -108 -1 -6 5 -17 13 -23 12 -10
35 6 125 89 61 56 111 105 111 109 0 9 -22 31 -29 31 -4 -1 -54 -45 -113 -98z"/>
<path d="M14014 9367 c-8 -24 -74 -300 -72 -302 2 -1 12 -5 23 -9 19 -6 23 5
58 147 21 83 37 155 37 158 0 13 -41 17 -46 6z"/>
<path d="M10284 9275 c-7 -16 135 -265 151 -265 5 0 16 4 24 9 11 7 -3 37 -64
140 -73 124 -98 150 -111 116z"/>
<path d="M2917 9230 c-5 -21 -11 -19 206 -81 79 -23 107 -19 94 13 -4 12 -252
89 -283 88 -7 0 -14 -9 -17 -20z"/>
<path d="M16346 9233 c-9 -22 -5 -24 150 -68 134 -38 165 -38 151 -3 -4 12
-252 89 -283 88 -7 0 -15 -8 -18 -17z"/>
<path d="M7503 9158 c-79 -28 -143 -55 -143 -62 1 -38 16 -37 154 13 75 27
140 51 143 55 3 3 2 14 -3 25 -9 18 -16 17 -151 -31z"/>
<path d="M9208 9008 c-112 -81 -125 -93 -115 -110 7 -10 18 -16 25 -13 8 3 67
43 133 90 108 79 118 88 106 105 -6 11 -14 20 -17 19 -3 0 -62 -41 -132 -91z"/>
<path d="M8546 9043 c-3 -10 -19 -72 -37 -138 -17 -66 -33 -122 -34 -123 -2
-2 -23 14 -47 35 -24 21 -73 65 -109 96 -64 55 -67 56 -83 38 -16 -17 -10 -24
124 -141 78 -67 143 -120 144 -119 2 2 24 84 49 181 38 148 43 178 30 182 -24
9 -31 7 -37 -11z"/>
<path d="M1390 9007 c0 -22 8 -25 158 -51 86 -16 162 -29 167 -30 6 0 10 10
10 23 0 24 -6 25 -150 53 -184 34 -185 34 -185 5z"/>
<path d="M14817 9009 c-7 -25 -15 -22 175 -57 154 -28 158 -28 164 -9 3 10 2
22 -3 26 -7 7 -292 61 -320 61 -6 0 -13 -9 -16 -21z"/>
<path d="M13401 8929 c-80 -49 -148 -92 -153 -97 -4 -4 63 -52 149 -106 147
-94 157 -98 170 -81 17 24 18 23 -119 109 -60 37 -108 71 -108 74 0 4 31 25
68 46 156 91 174 104 162 126 -6 11 -14 20 -18 19 -4 0 -72 -41 -151 -90z"/>
<path d="M2160 8989 c-14 -25 -26 -15 128 -106 l114 -66 -113 -74 c-62 -40
-117 -77 -121 -81 -10 -10 0 -42 13 -42 16 0 308 193 304 200 -3 5 -65 43
-137 86 -73 43 -143 84 -155 91 -19 13 -23 12 -33 -8z"/>
<path d="M15591 8991 c-6 -11 -11 -22 -11 -24 0 -2 56 -37 125 -77 l125 -74
-124 -80 c-107 -69 -123 -84 -115 -98 6 -10 14 -18 19 -18 5 0 77 44 160 98
114 74 148 101 138 109 -7 5 -69 43 -138 83 -69 40 -135 80 -147 87 -19 13
-23 12 -32 -6z"/>
<path d="M5867 8953 c-2 -5 2 -66 9 -138 7 -71 13 -140 13 -152 1 -18 7 -23
26 -23 29 0 29 -4 15 145 -16 166 -18 175 -40 175 -10 0 -21 -3 -23 -7z"/>
<path d="M11210 8926 c0 -25 1 -26 73 -27 39 -1 105 -4 144 -8 l73 -6 -70
-122 c-39 -68 -70 -127 -70 -132 0 -14 32 -23 43 -12 5 5 47 76 93 158 56 101
79 150 71 154 -7 4 -90 10 -184 14 l-173 7 0 -26z"/>
<path d="M4500 8866 c0 -23 1 -24 145 -31 80 -4 145 -9 145 -10 0 -2 -31 -58
-70 -124 -38 -66 -70 -124 -70 -129 0 -13 31 -25 41 -15 16 16 180 305 176
309 -5 6 -243 23 -314 24 -49 0 -53 -2 -53 -24z"/>
<path d="M6565 8839 c-60 -5 -118 -10 -128 -11 -14 -2 -1 -31 73 -158 49 -85
95 -157 100 -158 6 -2 17 1 25 8 11 9 2 31 -56 130 -38 65 -69 123 -69 128 0
5 62 12 138 16 75 4 141 11 145 15 4 4 5 15 1 24 -7 19 -42 20 -229 6z"/>
<path d="M9873 8658 c-61 -98 -79 -136 -71 -145 6 -7 16 -13 22 -13 6 0 48 60
93 132 75 120 81 133 65 144 -9 8 -19 13 -22 14 -3 0 -42 -60 -87 -132z"/>
<path d="M10740 8761 c0 -12 6 -23 13 -26 6 -2 76 -6 153 -10 141 -6 142 -6
147 17 4 12 5 23 3 25 -1 1 -73 6 -159 9 -157 7 -157 7 -157 -15z"/>
<path d="M12175 8719 c-71 -16 -140 -31 -152 -34 -21 -5 -31 -33 -18 -47 4 -4
334 60 342 66 1 1 0 12 -4 24 -7 27 -8 27 -168 -9z"/>
<path d="M874 8592 c-76 -103 -99 -140 -91 -150 5 -7 16 -12 24 -10 7 2 58 63
113 137 90 122 98 135 82 147 -9 7 -19 13 -22 13 -3 0 -51 -61 -106 -137z"/>
<path d="M14303 8593 c-74 -101 -98 -141 -91 -150 6 -7 16 -13 22 -13 10 0
169 206 200 258 7 12 -9 42 -23 42 -3 0 -52 -62 -108 -137z"/>
<path d="M3583 8672 c-103 -36 -133 -51 -133 -65 0 -10 6 -20 13 -23 7 -2 74
17 148 43 111 40 134 52 134 68 0 11 -7 21 -15 22 -8 1 -75 -19 -147 -45z"/>
<path d="M17013 8672 c-103 -37 -133 -51 -133 -65 0 -10 6 -20 13 -23 13 -4
264 81 280 95 10 10 -2 41 -17 40 -6 0 -71 -21 -143 -47z"/>
<path d="M7306 8647 c-17 -12 -14 -22 44 -153 34 -76 65 -142 69 -147 4 -4 15
-1 25 6 18 13 15 21 -43 153 -35 76 -66 142 -70 147 -4 4 -15 1 -25 -6z"/>
<path d="M7960 8616 c-10 -13 3 -34 85 -131 54 -64 101 -117 105 -120 4 -2 14
3 23 13 14 16 8 26 -83 132 -54 63 -102 116 -107 117 -6 2 -16 -3 -23 -11z"/>
<path d="M12587 8509 c-16 -10 -11 -23 60 -160 43 -82 82 -149 88 -149 5 0 16
4 24 9 11 7 -3 40 -65 160 -44 83 -81 151 -84 151 -3 -1 -13 -5 -23 -11z"/>
<path d="M9003 8444 c-3 -8 -2 -19 3 -24 7 -6 288 -70 308 -70 2 0 6 11 8 24
5 22 0 24 -142 55 -169 36 -169 36 -177 15z"/>
<path d="M5093 8402 c-91 -19 -163 -40 -163 -46 1 -38 15 -38 166 -6 195 41
186 38 182 63 -2 11 -7 21 -13 22 -5 2 -83 -13 -172 -33z"/>
<path d="M2750 8280 c-68 -135 -69 -140 -49 -151 11 -6 22 -9 24 -7 18 19 135
274 131 284 -14 37 -39 8 -106 -126z"/>
<path d="M16180 8283 c-68 -128 -71 -138 -54 -150 10 -7 20 -13 24 -13 3 0 37
63 75 140 59 118 67 142 55 150 -8 5 -18 10 -22 10 -3 0 -39 -62 -78 -137z"/>
<path d="M1635 8309 c-4 -11 -5 -22 -3 -24 6 -5 268 -135 273 -135 2 0 9 9 15
20 10 18 -1 25 -130 90 -77 38 -142 70 -144 70 -3 0 -8 -9 -11 -21z"/>
<path d="M15065 8309 c-4 -11 -5 -22 -3 -24 6 -5 268 -135 273 -135 2 0 9 9
15 20 10 18 -1 25 -130 90 -77 38 -142 70 -144 70 -3 0 -8 -9 -11 -21z"/>
<path d="M11247 8293 c-14 -15 -7 -26 85 -139 55 -68 104 -124 108 -124 4 0
13 7 20 15 10 13 -3 35 -84 135 -54 66 -101 122 -105 124 -4 3 -15 -2 -24 -11z"/>
<path d="M10290 8179 c-69 -45 -128 -84 -133 -88 -4 -4 -1 -16 7 -26 13 -18
20 -14 145 66 72 46 131 87 131 90 0 3 -6 13 -12 22 -12 15 -26 8 -138 -64z"/>
<path d="M13410 8095 c-140 -60 -156 -72 -131 -98 7 -7 293 105 314 123 12 11
-4 40 -22 39 -9 0 -81 -29 -161 -64z"/>
<path d="M8645 8092 c-28 -26 -78 -72 -112 -103 -60 -55 -61 -58 -43 -74 18
-16 23 -12 129 85 96 88 109 104 101 121 -6 10 -14 19 -18 19 -4 0 -30 -22
-57 -48z"/>
<path d="M3887 8078 c-76 -121 -127 -205 -127 -211 0 -3 9 -11 19 -16 17 -10
28 4 100 119 45 72 81 134 81 139 0 8 -23 21 -36 21 -2 0 -18 -24 -37 -52z"/>
<path d="M17316 8078 c-77 -122 -126 -203 -126 -210 0 -4 8 -12 19 -17 16 -9
28 5 97 116 93 150 90 143 73 154 -23 14 -28 11 -63 -43z"/>
<path d="M4422 8082 c-9 -7 4 -44 57 -156 66 -137 72 -146 91 -136 11 6 20 12
20 14 0 18 -132 282 -142 283 -7 2 -19 -1 -26 -5z"/>
<path d="M17852 8082 c-9 -6 4 -45 55 -155 38 -81 71 -147 74 -147 3 0 13 6
22 13 15 11 11 25 -50 155 -36 78 -71 142 -77 142 -6 0 -17 -4 -24 -8z"/>
<path d="M5803 7959 c-62 -50 -113 -97 -113 -105 0 -38 35 -22 147 67 65 51
120 94 122 96 7 5 -21 33 -33 33 -6 -1 -62 -42 -123 -91z"/>
<path d="M1102 7952 c-9 -6 -3 -39 27 -143 22 -74 38 -136 36 -138 -2 -2 -67
8 -144 21 -139 25 -140 25 -145 4 -3 -11 -3 -22 -1 -25 6 -5 359 -70 363 -66
7 6 -103 355 -112 355 -6 0 -17 -4 -24 -8z"/>
<path d="M6520 7935 l0 -25 155 0 155 0 0 25 0 25 -155 0 -155 0 0 -25z"/>
<path d="M14532 7951 c-11 -6 -6 -35 26 -142 25 -86 35 -135 28 -137 -6 -1
-71 8 -143 21 -130 23 -133 24 -139 5 -3 -11 -3 -22 0 -26 6 -5 359 -72 363
-68 7 6 -103 356 -112 356 -5 0 -16 -4 -23 -9z"/>
<path d="M3155 7934 c-93 -6 -173 -12 -177 -13 -8 -1 174 -321 183 -321 3 0
13 6 22 13 15 11 9 24 -53 132 -38 66 -70 123 -70 127 0 3 53 9 118 13 159 8
174 12 170 38 -2 11 -7 21 -13 22 -5 1 -86 -4 -180 -11z"/>
<path d="M11970 7906 c-91 -23 -164 -46 -163 -50 2 -11 226 -276 233 -276 4 0
14 6 23 13 15 11 7 24 -78 124 -52 61 -92 114 -87 116 4 2 67 19 140 37 121
30 133 34 130 54 -2 11 -10 22 -18 23 -8 1 -89 -18 -180 -41z"/>
<path d="M16582 7935 c-94 -6 -174 -14 -176 -16 -5 -5 177 -319 184 -319 4 0
14 6 23 13 15 11 10 23 -53 130 -39 66 -70 123 -70 127 0 4 53 11 118 15 132
7 172 13 172 25 0 15 -12 40 -19 39 -3 -1 -84 -7 -179 -14z"/>
<path d="M9363 7932 c-9 -6 6 -46 53 -147 36 -77 69 -143 73 -148 4 -4 15 -1
25 6 16 12 12 23 -48 152 -63 135 -77 154 -103 137z"/>
<path d="M7805 7818 c-88 -10 -165 -21 -172 -23 -6 -2 -9 -13 -6 -24 6 -25 12
-25 167 -6 66 8 121 13 123 11 2 -2 -19 -63 -46 -137 -47 -128 -48 -134 -30
-143 12 -6 23 -6 28 0 9 10 121 319 121 335 0 5 -6 8 -12 8 -7 -1 -85 -10
-173 -21z"/>
<path d="M2045 7749 c-71 -33 -133 -64 -138 -68 -4 -4 -1 -15 6 -25 13 -17 21
-14 147 43 74 34 136 64 138 66 6 6 -8 45 -16 44 -4 0 -65 -27 -137 -60z"/>
<path d="M15475 7749 c-71 -33 -133 -64 -138 -68 -4 -4 -1 -15 6 -25 12 -16
22 -13 147 44 74 34 137 63 138 65 6 6 -9 45 -16 45 -4 -1 -65 -28 -137 -61z"/>
<path d="M9964 7734 c3 -11 30 -91 59 -179 47 -137 57 -160 73 -157 10 2 21 6
24 8 2 3 -17 68 -42 145 l-46 140 31 -6 c65 -11 237 -35 252 -35 9 0 15 9 15
23 0 23 -5 25 -162 46 -90 13 -174 25 -187 28 -19 5 -22 3 -17 -13z"/>
<path d="M10877 7688 c-4 -12 -5 -23 -4 -24 9 -7 301 -63 308 -58 11 6 12 44
1 44 -4 0 -70 14 -147 30 -77 17 -143 30 -146 30 -4 0 -9 -10 -12 -22z"/>
<path d="M5307 7616 c-81 -45 -152 -87 -157 -92 -5 -5 -3 -16 4 -27 12 -16 23
-12 137 52 144 81 136 85 138 -65 1 -128 8 -154 37 -154 23 0 23 2 19 58 -3
31 -8 114 -11 185 -3 70 -9 127 -13 127 -3 -1 -73 -38 -154 -84z"/>
<path d="M8773 7632 c-119 -42 -132 -49 -127 -67 4 -11 8 -22 10 -24 4 -4 262
85 282 98 17 10 4 41 -17 40 -9 0 -76 -22 -148 -47z"/>
<path d="M12833 7583 c-7 -2 -13 -9 -13 -15 0 -19 190 -248 206 -248 37 0 21
35 -71 149 -54 67 -100 121 -104 120 -3 0 -12 -3 -18 -6z"/>
<path d="M323 7428 c-80 -128 -82 -132 -62 -146 11 -8 22 -12 23 -11 1 2 39
62 84 133 61 98 78 133 70 143 -6 7 -16 13 -22 13 -6 0 -48 -59 -93 -132z"/>
<path d="M6327 7545 c-9 -7 -17 -15 -17 -18 0 -6 164 -213 190 -240 4 -5 17
-4 29 3 21 11 21 12 -23 68 -144 182 -161 200 -179 187z"/>
<path d="M13751 7429 c-75 -122 -80 -132 -64 -145 10 -7 22 -9 27 -4 5 5 44
64 87 132 57 91 75 126 67 135 -6 7 -16 13 -23 13 -6 0 -48 -59 -94 -131z"/>
<path d="M7195 7496 c-19 -13 -16 -20 49 -159 65 -139 69 -145 91 -135 23 10
23 10 -45 155 -38 79 -70 146 -72 149 -3 2 -13 -2 -23 -10z"/>
<path d="M2963 7299 c-8 -8 12 -49 69 -147 44 -76 82 -139 83 -141 2 -1 13 3
24 11 19 13 17 18 -61 151 -44 75 -85 137 -92 137 -7 0 -17 -5 -23 -11z"/>
<path d="M3902 7288 c3 -23 5 -23 158 -23 153 0 155 0 158 23 l3 22 -161 0
-161 0 3 -22z"/>
<path d="M16393 7299 c-10 -10 29 -84 146 -278 7 -12 11 -12 28 0 20 14 18 18
-58 149 -44 74 -85 136 -92 138 -7 1 -17 -2 -24 -9z"/>
<path d="M17332 7288 c3 -23 6 -23 156 -26 l152 -3 0 26 0 25 -156 0 -155 0 3
-22z"/>
<path d="M11313 7139 c-62 -50 -113 -97 -113 -105 0 -38 35 -22 147 67 65 51
120 94 122 96 7 5 -21 33 -33 33 -6 -1 -62 -42 -123 -91z"/>
<path d="M2228 7163 c-12 -3 -15 -12 -12 -36 3 -18 13 -88 22 -157 16 -116 19
-125 40 -128 27 -4 28 5 7 160 -19 140 -25 168 -33 167 -4 -1 -15 -3 -24 -6z"/>
<path d="M15657 7163 c-13 -3 -17 -11 -14 -26 3 -12 13 -84 23 -159 17 -133
18 -138 41 -138 29 0 29 3 3 185 -11 77 -20 141 -20 142 0 3 -8 2 -33 -4z"/>
<path d="M12121 7151 c-11 -7 -7 -34 21 -152 34 -139 43 -157 72 -146 11 5 7
35 -23 153 -20 81 -41 149 -46 151 -6 1 -16 -1 -24 -6z"/>
<path d="M833 7134 c-3 -7 -3 -19 -1 -26 5 -13 308 -80 308 -67 0 4 3 14 6 23
7 17 11 16 -176 56 -106 22 -133 25 -137 14z"/>
<path d="M14263 7134 c-11 -30 9 -39 154 -70 l151 -31 5 24 c3 18 -1 25 -17
28 -11 3 -81 18 -154 34 -107 22 -135 25 -139 15z"/>
<path d="M7907 7098 c-14 -12 -5 -27 87 -139 89 -110 105 -125 119 -114 9 7
17 15 17 19 0 9 -193 246 -200 246 -3 0 -14 -6 -23 -12z"/>
<path d="M10248 7093 c-15 -17 -9 -25 94 -131 89 -93 112 -111 124 -101 8 6
14 17 14 23 0 6 -49 60 -108 119 -102 102 -109 107 -124 90z"/>
<path d="M1532 7088 c-7 -7 -12 -16 -12 -21 0 -11 191 -247 200 -247 4 0 13 7
20 15 14 16 20 6 -105 164 -44 55 -82 100 -85 101 -4 0 -11 -5 -18 -12z"/>
<path d="M14957 7083 c-14 -15 -7 -26 85 -139 55 -68 104 -124 108 -124 4 0
13 7 20 15 10 13 -3 35 -84 135 -54 66 -101 122 -105 124 -4 3 -15 -2 -24 -11z"/>
<path d="M9184 7075 c-7 -16 192 -245 212 -245 6 0 16 6 22 13 8 9 -15 41 -95
130 -102 114 -128 133 -139 102z"/>
<path d="M5758 7015 c-4 -20 -1 -26 16 -30 64 -14 295 -55 309 -55 11 0 17 8
17 23 0 22 -8 25 -157 51 -87 16 -163 31 -169 33 -6 2 -14 -7 -16 -22z"/>
<path d="M155 6878 c-152 -16 -155 -17 -155 -44 0 -27 1 -27 90 -14 35 5 65 8
67 6 2 -1 -19 -63 -46 -137 -27 -74 -46 -138 -41 -142 25 -27 44 3 101 163 33
90 58 167 57 170 -2 3 -34 2 -73 -2z"/>
<path d="M13470 6866 c-166 -20 -175 -22 -178 -43 -4 -28 13 -29 178 -9 63 8
115 14 116 13 1 -1 -20 -62 -47 -136 -26 -74 -46 -138 -43 -142 5 -8 44 -13
44 -6 0 2 27 77 60 167 62 168 65 181 53 179 -5 -1 -87 -11 -183 -23z"/>
<path d="M4477 6836 c-16 -12 -9 -23 79 -127 l95 -114 -140 -33 c-135 -32
-141 -35 -141 -59 0 -21 4 -24 23 -20 253 58 337 82 333 94 -7 16 -219 272
-226 272 -3 0 -13 -6 -23 -13z"/>
<path d="M17906 6837 c-16 -12 -10 -22 73 -122 50 -60 91 -112 91 -116 0 -3
-63 -21 -140 -39 -131 -31 -140 -35 -134 -54 4 -12 8 -22 9 -24 1 -2 71 13
154 33 l151 37 0 42 c0 38 -8 52 -87 148 -49 59 -91 107 -94 107 -3 1 -13 -5
-23 -12z"/>
<path d="M6622 6701 c-79 -48 -147 -92 -153 -98 -6 -6 45 -44 146 -107 86 -54
157 -97 158 -95 2 2 8 11 15 20 11 15 -3 26 -110 94 -68 43 -124 79 -126 80
-1 1 37 26 85 55 175 107 165 98 153 120 -6 11 -14 20 -18 19 -4 0 -71 -40
-150 -88z"/>
<path d="M3644 6699 c-7 -11 134 -309 146 -309 4 0 14 6 24 13 15 11 11 24
-59 160 -71 137 -93 164 -111 136z"/>
<path d="M5165 6598 c-4 -62 -5 -140 -3 -173 3 -53 5 -60 26 -63 21 -3 22 -1
22 90 0 51 3 130 7 176 l6 82 -26 0 c-25 0 -25 0 -32 -112z"/>
<path d="M8605 6689 c-77 -9 -150 -18 -162 -18 -18 -1 -23 -7 -23 -26 0 -30
-5 -30 157 -10 69 9 127 14 129 12 2 -2 -17 -63 -43 -136 -38 -110 -44 -134
-32 -142 24 -15 32 -5 62 77 106 291 99 264 74 263 -12 -1 -85 -10 -162 -20z"/>
<path d="M17073 6702 c-8 -5 11 -52 64 -157 42 -83 77 -151 78 -153 2 -2 13 1
24 7 20 11 19 16 -54 161 -72 143 -85 159 -112 142z"/>
<path d="M7342 6575 c-67 -47 -124 -89 -126 -94 -3 -4 0 -16 7 -25 12 -16 24
-10 139 71 70 48 127 93 127 99 1 6 -5 17 -13 23 -10 9 -40 -8 -134 -74z"/>
<path d="M2808 6610 c-138 -28 -168 -38 -168 -52 0 -9 5 -20 11 -24 12 -7 319
54 333 67 6 5 6 15 0 26 -9 18 -17 17 -176 -17z"/>
<path d="M16238 6611 c-157 -34 -168 -37 -168 -58 0 -13 6 -23 13 -23 25 0
322 64 331 71 6 5 6 16 0 27 -9 18 -16 17 -176 -17z"/>
<path d="M10940 6525 c-80 -46 -149 -85 -154 -88 -6 -2 -3 -13 5 -24 15 -22
16 -21 138 48 68 38 126 67 129 65 2 -3 7 -58 9 -123 5 -153 8 -165 36 -161
19 3 21 9 19 48 -11 265 -15 320 -26 319 -6 -1 -76 -39 -156 -84z"/>
<path d="M9720 6555 l0 -25 155 0 155 0 0 25 0 25 -155 0 -155 0 0 -25z"/>
<path d="M12713 6448 c-113 -40 -143 -54 -143 -69 0 -10 4 -20 9 -23 9 -6 275
85 288 98 3 3 2 14 -3 25 -9 18 -16 16 -151 -31z"/>
<path d="M800 6385 c-63 -46 -116 -88 -118 -94 -2 -7 1 -18 8 -25 9 -12 34 2
140 77 110 78 127 94 119 109 -5 10 -15 18 -22 17 -7 0 -64 -38 -127 -84z"/>
<path d="M14223 6382 c-67 -48 -121 -91 -119 -96 1 -5 9 -14 18 -19 11 -8 44
11 140 79 110 77 124 90 114 106 -6 10 -15 18 -21 17 -5 0 -65 -40 -132 -87z"/>
<path d="M11948 6308 c-14 -12 -8 -29 51 -155 36 -79 71 -143 76 -143 6 0 16
4 24 9 12 8 2 36 -54 155 -38 80 -71 146 -75 146 -3 0 -13 -6 -22 -12z"/>
<path d="M128 6268 c-14 -12 -8 -29 51 -155 36 -79 71 -143 76 -143 6 0 16 4
24 9 11 7 0 38 -54 155 -37 80 -71 146 -75 146 -3 0 -13 -6 -22 -12z"/>
<path d="M13558 6268 c-14 -12 -9 -28 50 -155 36 -79 71 -143 76 -143 40 1 36
18 -30 163 -38 81 -71 147 -74 147 -3 0 -13 -6 -22 -12z"/>
<path d="M1176 6253 c-9 -22 -2 -27 135 -116 85 -55 120 -72 128 -64 6 6 11
16 11 23 0 11 -243 174 -260 174 -4 0 -11 -8 -14 -17z"/>
<path d="M10230 6155 c-109 -109 -114 -116 -97 -132 16 -17 23 -12 133 98 110
110 114 116 97 132 -18 16 -25 11 -133 -98z"/>
<path d="M14606 6254 c-3 -9 -6 -18 -6 -20 0 -3 57 -42 128 -88 92 -61 130
-81 140 -74 6 6 12 16 12 23 0 11 -242 175 -260 175 -4 0 -11 -7 -14 -16z"/>
<path d="M5890 6096 c-17 -67 -35 -134 -40 -149 -8 -24 -6 -29 13 -36 12 -5
24 -7 25 -6 3 3 82 294 82 301 0 1 -11 4 -24 6 -23 5 -26 0 -56 -116z"/>
<path d="M15523 6130 c-90 -41 -163 -79 -163 -85 0 -5 4 -16 9 -23 9 -15 11
-15 174 62 l99 46 -3 -147 c-3 -145 -3 -148 18 -151 30 -4 35 28 31 218 l-3
155 -162 -75z"/>
<path d="M2083 6126 c-84 -39 -153 -75 -153 -81 0 -5 4 -16 9 -24 8 -12 32 -4
138 46 l128 60 3 -149 c2 -141 4 -148 23 -148 11 0 22 6 24 13 2 6 5 90 7 185
3 148 1 172 -12 171 -8 -1 -84 -33 -167 -73z"/>
<path d="M3310 6123 c-41 -30 -98 -71 -127 -91 -47 -34 -50 -39 -37 -57 14
-18 17 -17 92 35 174 121 183 129 170 150 -7 11 -15 20 -18 19 -3 0 -39 -25
-80 -56z"/>
<path d="M16688 6088 c-112 -81 -125 -93 -115 -110 7 -10 18 -16 25 -13 8 3
68 44 133 91 116 83 120 87 103 105 -9 10 -18 19 -18 18 -1 0 -58 -41 -128
-91z"/>
<path d="M7843 6073 c-20 -32 -56 -89 -80 -126 -49 -76 -50 -82 -25 -96 16 -8
29 7 98 116 93 147 90 143 73 154 -23 15 -28 11 -66 -48z"/>
<path d="M9065 6025 c-104 -98 -109 -104 -93 -121 16 -16 23 -12 127 86 61 56
111 105 111 109 0 8 -22 31 -29 31 -4 -1 -55 -47 -116 -105z"/>
<path d="M10860 6025 c-10 -12 7 -35 96 -134 102 -114 109 -120 126 -104 21
19 34 1 -106 156 -49 53 -92 97 -96 97 -4 0 -13 -7 -20 -15z"/>
<path d="M4438 5907 c-108 -45 -148 -67 -148 -79 0 -9 5 -20 10 -23 10 -6 295
108 313 124 10 10 -2 41 -17 41 -6 -1 -77 -29 -158 -63z"/>
<path d="M17870 5909 c-80 -34 -148 -64 -153 -68 -4 -4 -1 -15 6 -25 13 -17
22 -15 163 44 82 34 153 65 157 69 10 10 -2 41 -17 41 -6 0 -76 -28 -156 -61z"/>
<path d="M6527 5938 c-10 -5 -17 -14 -17 -19 0 -12 191 -249 200 -249 17 0 32
30 23 43 -153 193 -191 234 -206 225z"/>
<path d="M5110 5870 c-9 -17 -4 -23 42 -53 121 -76 205 -127 211 -127 3 0 11
9 16 19 9 17 -4 28 -118 100 -70 45 -131 81 -134 81 -4 0 -11 -9 -17 -20z"/>
<path d="M12802 5878 c-7 -7 -12 -17 -12 -22 0 -6 61 -42 135 -81 114 -59 137
-68 145 -55 5 8 8 19 7 24 -2 5 -61 40 -133 77 -101 53 -133 66 -142 57z"/>
<path d="M11696 5673 c-14 -15 -5 -43 17 -48 35 -8 299 -55 309 -55 4 0 8 11
8 25 0 14 -3 25 -7 25 -10 0 -270 48 -299 55 -12 2 -24 2 -28 -2z"/>
<path d="M9782 5476 c68 -168 71 -174 93 -164 l23 10 -35 87 c-19 47 -44 108
-54 135 l-20 49 123 -7 c68 -4 133 -10 144 -12 16 -4 23 0 27 17 4 13 4 25 2
27 -3 4 -309 31 -352 32 -20 0 -17 -10 49 -174z"/>
<path d="M756 5631 c-7 -11 86 -351 97 -351 19 0 268 234 265 249 -7 33 -37
17 -138 -74 l-105 -95 -39 140 c-31 114 -42 140 -57 140 -10 0 -20 -4 -23 -9z"/>
<path d="M14185 5630 c-7 -12 86 -350 97 -350 7 0 178 149 246 214 14 14 20
28 16 39 -12 32 -8 34 -195 -131 l-46 -41 -38 139 c-31 113 -42 140 -56 140
-10 0 -21 -4 -24 -10z"/>
<path d="M2547 5602 c-5 -28 -1 -29 176 -37 l137 -6 0 25 c0 22 -5 26 -32 27
-18 0 -88 4 -155 7 -121 7 -122 7 -126 -16z"/>
<path d="M3861 5497 c-19 -72 -37 -135 -41 -140 -3 -4 -53 33 -111 83 -57 49
-107 90 -110 90 -4 0 -12 -7 -19 -16 -16 -18 -26 -6 144 -154 87 -76 120 -99
126 -90 9 15 92 341 88 345 -2 1 -12 5 -23 9 -18 5 -23 -6 -54 -127z"/>
<path d="M8418 5591 c-158 -33 -168 -37 -168 -58 0 -13 6 -23 13 -23 23 0 322
63 330 70 4 4 4 15 0 26 -8 20 -12 19 -175 -15z"/>
<path d="M15974 5621 c-11 -11 -2 -40 14 -45 9 -2 80 -6 157 -8 139 -3 140 -3
143 20 3 19 -1 22 -35 23 -21 0 -91 4 -156 7 -65 4 -121 5 -123 3z"/>
<path d="M17291 5502 c-18 -70 -36 -134 -40 -141 -8 -12 -50 20 -198 152 -19
16 -25 18 -38 7 -8 -7 -15 -16 -15 -20 0 -10 270 -243 276 -237 6 6 96 349 92
352 -2 1 -13 5 -24 9 -20 6 -24 -2 -53 -122z"/>
<path d="M6980 5505 c0 -24 3 -25 58 -25 31 0 101 -3 155 -7 l97 -6 0 25 c0
24 -2 25 -97 31 -54 4 -124 7 -155 7 -55 0 -58 -1 -58 -25z"/>
<path d="M12330 5475 c-10 -12 -2 -26 48 -82 33 -38 76 -84 96 -102 20 -19 36
-38 36 -42 0 -8 -5 -9 -167 -59 -57 -17 -103 -36 -103 -43 1 -37 16 -35 180
15 91 27 169 54 174 58 8 8 -230 270 -245 270 -4 0 -12 -7 -19 -15z"/>
<path d="M9033 5453 c-8 -3 12 -54 63 -156 42 -84 78 -153 79 -155 2 -2 13 1
24 7 20 11 19 16 -54 161 -71 141 -82 156 -112 143z"/>
<path d="M6245 5415 c-5 -2 -63 -9 -127 -15 -105 -11 -118 -14 -118 -32 0 -10
6 -21 13 -24 7 -2 75 2 151 11 76 8 142 15 147 15 5 0 9 11 9 25 0 22 -4 25
-32 24 -18 0 -37 -2 -43 -4z"/>
<path d="M5431 5228 c-18 -90 -35 -173 -38 -185 -4 -19 -1 -23 20 -23 28 0 27
-3 63 188 10 50 20 92 23 92 3 0 55 -38 115 -85 60 -47 113 -85 117 -85 5 0
13 8 18 18 8 16 -11 34 -134 130 -79 62 -146 112 -148 112 -2 0 -19 -73 -36
-162z"/>
<path d="M11190 5252 c-52 -70 -98 -133 -103 -139 -9 -13 7 -43 23 -43 6 0
179 227 202 265 4 7 0 20 -10 28 -17 15 -24 9 -112 -111z"/>
<path d="M1873 5227 c-74 -119 -81 -133 -66 -144 9 -7 19 -13 22 -13 3 0 43
60 88 133 74 119 81 133 66 145 -9 6 -19 12 -22 12 -3 0 -43 -60 -88 -133z"/>
<path d="M15302 5228 c-75 -121 -81 -134 -65 -145 9 -7 19 -13 22 -13 3 1 43
60 88 133 73 118 80 133 66 145 -9 6 -19 12 -22 12 -4 0 -43 -60 -89 -132z"/>
<path d="M136 5260 c-66 -49 -121 -92 -124 -95 -9 -9 21 -36 34 -31 7 3 65 44
128 92 101 75 114 88 105 105 -5 10 -13 19 -17 19 -4 0 -61 -41 -126 -90z"/>
<path d="M13565 5259 c-66 -49 -121 -93 -123 -97 -1 -4 3 -15 10 -25 12 -14
26 -6 140 79 115 87 126 97 115 115 -6 10 -14 19 -17 19 -3 0 -59 -41 -125
-91z"/>
<path d="M7588 5178 c-134 -48 -168 -64 -168 -79 0 -10 4 -20 9 -23 4 -3 68
16 142 43 74 27 135 48 136 47 0 0 -7 -65 -16 -144 -9 -78 -15 -145 -12 -147
2 -3 12 -5 22 -5 23 0 24 7 44 185 9 77 18 150 21 163 2 12 1 22 -3 22 -5 -1
-83 -28 -175 -62z"/>
<path d="M4551 5088 c-44 -71 -81 -134 -81 -139 0 -4 8 -13 18 -18 15 -8 28 7
95 113 92 147 92 148 68 163 -17 10 -26 -1 -100 -119z"/>
<path d="M17980 5088 c-78 -125 -91 -164 -53 -156 13 2 172 240 173 258 0 3
-9 11 -19 17 -18 11 -26 1 -101 -119z"/>
<path d="M10296 5173 c-9 -21 -13 -18 143 -118 118 -75 136 -84 149 -71 8 8
12 19 8 24 -8 13 -272 182 -284 182 -6 0 -13 -8 -16 -17z"/>
<path d="M3321 5126 c-7 -8 -9 -21 -5 -28 6 -10 155 -197 185 -232 8 -9 39 10
39 24 0 10 -189 244 -199 248 -5 1 -14 -4 -20 -12z"/>
<path d="M16752 5128 c-7 -7 -12 -16 -12 -20 0 -6 161 -211 191 -243 6 -6 15
-3 26 7 15 16 14 20 -18 61 -89 114 -165 206 -169 207 -4 0 -11 -5 -18 -12z"/>
<path d="M2493 5009 c-133 -48 -141 -52 -133 -72 4 -12 14 -21 22 -19 17 3
272 93 276 97 6 6 -9 45 -16 44 -4 0 -71 -23 -149 -50z"/>
<path d="M15921 5009 c-74 -27 -136 -51 -138 -53 -3 -2 0 -13 6 -25 11 -19 13
-19 124 21 61 22 127 45 145 51 22 7 31 15 27 25 -3 7 -5 18 -5 23 0 14 -16
10 -159 -42z"/>
<path d="M6662 5023 c-41 -60 -142 -225 -142 -233 0 -5 8 -14 18 -19 16 -8 29
7 98 116 93 147 90 143 73 154 -21 13 -26 11 -47 -18z"/>
<path d="M1155 4986 c-18 -13 -16 -19 50 -132 90 -156 88 -154 100 -154 5 0
16 4 24 9 10 7 -5 40 -69 150 -45 77 -83 141 -84 141 -1 0 -11 -6 -21 -14z"/>
<path d="M14587 4989 c-9 -6 -17 -14 -17 -19 0 -18 153 -270 164 -270 41 1 36
19 -44 156 -45 76 -82 140 -83 141 -1 1 -10 -3 -20 -8z"/>
<path d="M8440 4906 c0 -18 6 -27 23 -31 91 -21 261 -55 273 -55 8 0 14 10 14
23 0 22 -8 25 -132 51 -73 15 -143 30 -155 33 -19 4 -23 1 -23 -21z"/>
<path d="M9660 4849 c-80 -34 -148 -64 -153 -68 -4 -4 -1 -15 6 -25 13 -17 22
-15 163 44 82 34 153 65 157 69 10 10 -2 41 -17 41 -6 0 -76 -28 -156 -61z"/>
<path d="M11112 4775 c-90 -40 -166 -75 -168 -77 -3 -4 217 -190 267 -225 13
-10 19 -9 33 6 15 16 10 23 -94 107 -60 49 -110 92 -110 95 0 4 59 33 130 65
72 32 130 61 130 64 0 4 -6 14 -12 22 -12 15 -29 9 -176 -57z"/>
<path d="M12440 4718 c0 -25 1 -25 107 -31 58 -4 128 -7 155 -7 45 0 48 2 48
25 0 23 -3 25 -48 25 -27 0 -97 3 -155 7 l-107 6 0 -25z"/>
<path d="M5387 4585 c-60 -122 -70 -147 -57 -155 8 -5 18 -10 23 -10 4 0 40
65 80 145 60 122 70 147 57 155 -8 5 -18 10 -23 10 -4 0 -40 -65 -80 -145z"/>
<path d="M65 4696 c-50 -19 -61 -27 -63 -49 -4 -32 -5 -31 43 -11 20 8 40 13
43 10 5 -6 -13 -198 -25 -257 -4 -22 -1 -27 21 -31 28 -6 23 -26 51 197 18
145 19 165 3 164 -7 0 -40 -10 -73 -23z"/>
<path d="M13395 4661 c-88 -32 -160 -63 -159 -70 4 -41 2 -41 154 14 68 25
126 43 128 40 3 -2 -3 -66 -12 -141 -9 -75 -15 -138 -14 -139 2 -2 13 -6 26
-9 15 -5 22 -3 22 6 0 7 9 85 20 172 24 189 23 186 8 185 -7 0 -85 -26 -173
-58z"/>
<path d="M4511 4607 c-5 -12 -23 -62 -41 -112 -18 -49 -37 -101 -42 -114 -9
-24 -13 -21 -113 79 -97 97 -106 103 -121 88 -16 -15 -8 -26 112 -152 71 -74
130 -134 131 -132 7 6 123 330 123 342 0 6 -9 14 -21 17 -14 4 -22 -1 -28 -16z"/>
<path d="M17937 4597 c-7 -18 -28 -75 -47 -127 -18 -52 -36 -99 -41 -104 -4
-4 -52 38 -107 95 -95 98 -102 103 -118 87 -16 -16 -9 -25 111 -152 71 -75
130 -135 131 -133 5 5 124 338 124 346 0 5 -9 11 -20 14 -16 4 -23 -2 -33 -26z"/>
<path d="M6735 4578 c-3 -7 -20 -71 -38 -141 l-33 -128 -109 95 c-61 53 -112
96 -115 96 -3 0 -11 -9 -17 -19 -11 -17 3 -32 128 -140 86 -75 141 -117 144
-109 12 35 85 325 85 341 0 20 -38 24 -45 5z"/>
<path d="M11815 4494 c-147 -104 -143 -100 -123 -120 15 -15 25 -10 135 66
146 103 138 95 122 118 -14 19 -19 16 -134 -64z"/>
<path d="M2680 4525 c0 -14 3 -25 6 -25 4 0 71 -13 151 -30 79 -16 146 -30
148 -30 3 0 5 11 5 25 0 14 -2 25 -3 25 -2 0 -68 14 -145 30 -78 17 -146 30
-152 30 -5 0 -10 -11 -10 -25z"/>
<path d="M7821 4536 c-7 -8 -9 -21 -5 -28 6 -10 155 -197 185 -232 8 -9 39 10
39 24 0 10 -189 244 -199 248 -5 1 -14 -4 -20 -12z"/>
<path d="M16110 4525 c0 -14 3 -25 8 -25 4 0 70 -13 147 -30 77 -16 143 -30
147 -30 5 0 8 11 8 25 0 14 -2 25 -5 25 -2 0 -68 14 -145 30 -77 17 -145 30
-150 30 -6 0 -10 -11 -10 -25z"/>
<path d="M2032 4498 c8 -33 134 -338 139 -338 3 0 13 6 22 13 16 11 14 22 -33
136 -27 69 -50 129 -50 134 0 9 133 4 243 -10 46 -5 47 -5 47 21 0 14 -3 26
-7 26 -5 0 -84 7 -178 15 -93 8 -174 15 -178 15 -5 0 -7 -6 -5 -12z"/>
<path d="M15460 4503 c0 -15 134 -343 140 -343 3 0 14 6 22 13 15 11 12 25
-37 146 l-54 133 117 -8 c180 -12 177 -12 180 14 2 12 0 22 -5 22 -4 0 -84 7
-178 15 -201 17 -185 17 -185 8z"/>
<path d="M8587 4473 c-4 -3 -7 -14 -7 -24 0 -22 20 -26 175 -34 61 -4 112 -8
114 -10 2 -2 -29 -59 -68 -127 -64 -112 -69 -124 -54 -135 9 -7 19 -13 22 -13
3 1 47 71 97 158 86 149 89 157 68 163 -12 4 -86 10 -165 14 -79 3 -151 8
-160 11 -8 2 -18 1 -22 -3z"/>
<path d="M7117 4439 c-4 -13 -5 -24 -4 -25 4 -4 292 -64 305 -64 6 0 12 10 12
23 0 22 -8 25 -132 51 -73 15 -143 30 -154 33 -16 3 -23 -1 -27 -18z"/>
<path d="M10057 4419 c-4 -13 -5 -24 -4 -25 7 -8 300 -63 308 -58 5 3 9 13 9
23 0 15 -22 22 -132 45 -73 15 -143 30 -154 33 -16 3 -23 -1 -27 -18z"/>
<path d="M550 4410 c-5 -10 -10 -21 -10 -23 0 -7 249 -167 260 -167 5 0 14 8
19 18 8 15 -10 30 -125 104 -123 80 -135 86 -144 68z"/>
<path d="M13977 4413 c-4 -3 -7 -12 -7 -19 0 -12 241 -174 259 -174 16 0 22
33 9 45 -23 21 -234 155 -245 155 -5 0 -13 -3 -16 -7z"/>
<path d="M3511 4193 c-19 -76 -36 -143 -38 -149 -4 -11 37 -28 45 -19 6 6 72
268 72 288 0 11 -8 17 -23 17 -21 0 -25 -11 -56 -137z"/>
<path d="M16936 4184 c-20 -81 -35 -148 -34 -149 2 -1 13 -5 24 -9 20 -6 24 2
58 139 20 79 36 149 36 155 0 5 -11 10 -24 10 -22 0 -26 -9 -60 -146z"/>
<path d="M1445 4240 c-71 -26 -130 -53 -129 -59 2 -27 5 -31 17 -31 10 0 129
41 274 94 17 7 3 46 -16 45 -9 -1 -74 -23 -146 -49z"/>
<path d="M14875 4241 c-71 -27 -130 -53 -129 -60 2 -26 5 -31 15 -31 9 0 185
60 266 91 25 9 21 50 -6 48 -9 0 -74 -22 -146 -48z"/>
<path d="M5890 4151 c-74 -27 -136 -53 -138 -59 -2 -6 0 -18 5 -25 7 -12 34
-6 151 36 122 44 142 54 140 71 -2 11 -7 21 -13 22 -5 2 -71 -19 -145 -45z"/>
<path d="M9360 4115 c-10 -12 5 -35 85 -135 54 -66 103 -120 109 -120 7 0 17
5 23 11 9 9 -13 43 -89 135 -55 68 -103 124 -108 124 -4 0 -13 -7 -20 -15z"/>
<path d="M12815 4004 c-66 -47 -121 -88 -123 -92 -1 -5 3 -15 10 -24 12 -15
26 -8 133 68 66 47 124 89 129 94 9 9 -9 40 -23 40 -3 0 -60 -39 -126 -86z"/>
<path d="M4844 4065 c-6 -15 192 -245 212 -245 6 0 16 6 22 13 9 10 -13 40
-94 130 -102 114 -129 133 -140 102z"/>
<path d="M6703 3962 c-8 -5 8 -49 54 -147 35 -77 68 -143 72 -148 4 -4 15 -1
25 6 16 12 13 22 -47 152 -61 134 -77 155 -104 137z"/>
<path d="M11927 3933 c-14 -17 -9 -25 65 -118 43 -55 90 -111 104 -125 22 -22
25 -23 40 -9 14 15 7 27 -86 143 -57 69 -104 126 -105 126 -1 0 -9 -8 -18 -17z"/>
<path d="M11051 3809 c-77 -122 -81 -132 -64 -144 23 -18 22 -19 115 131 74
119 81 144 42 144 -6 0 -49 -59 -93 -131z"/>
<path d="M4075 3782 c-55 -74 -101 -138 -103 -143 -2 -4 6 -13 17 -19 19 -10
30 2 121 125 55 74 100 138 100 143 0 4 -8 12 -18 18 -15 10 -30 -5 -117 -124z"/>
<path d="M17496 3774 c-81 -111 -96 -137 -86 -149 7 -8 16 -15 20 -15 7 0 184
233 205 269 8 13 -10 31 -30 30 -5 0 -54 -61 -109 -135z"/>
<path d="M344 3718 c11 -190 16 -218 37 -218 10 0 20 4 23 8 3 5 0 79 -6 165
l-11 157 -25 0 -25 0 7 -112z"/>
<path d="M3036 3739 c-64 -51 -116 -97 -116 -104 0 -7 6 -17 13 -23 9 -7 36 9
102 62 50 39 106 83 125 98 29 23 32 29 21 42 -8 9 -17 16 -21 16 -4 0 -59
-41 -124 -91z"/>
<path d="M8271 3808 c-11 -17 -11 -22 0 -29 8 -4 68 -42 134 -83 115 -72 120
-74 133 -55 8 11 12 22 11 23 -4 3 -231 145 -254 159 -6 3 -17 -4 -24 -15z"/>
<path d="M13774 3698 c10 -182 13 -200 40 -196 11 2 21 10 21 18 0 8 -4 81 -9
163 l-8 147 -25 0 -26 0 7 -132z"/>
<path d="M16465 3740 c-60 -49 -111 -93 -113 -99 -2 -7 1 -18 8 -26 12 -14 15
-12 239 166 19 16 21 22 11 34 -7 8 -18 15 -24 14 -6 0 -60 -40 -121 -89z"/>
<path d="M1406 3777 c-19 -14 -15 -20 89 -136 59 -66 111 -121 115 -121 4 0
13 7 20 15 13 16 -3 38 -142 188 -58 64 -64 67 -82 54z"/>
<path d="M14830 3775 c-10 -12 -7 -21 21 -53 182 -203 181 -202 201 -191 10 6
18 14 16 19 -5 15 -210 240 -218 240 -4 0 -13 -7 -20 -15z"/>
<path d="M10317 3627 c-61 -87 -102 -153 -95 -155 7 -1 90 -15 185 -30 171
-28 172 -28 177 -8 3 11 2 23 -2 27 -4 3 -61 14 -127 24 -66 10 -128 21 -138
24 -14 5 -4 24 65 120 62 88 79 117 71 129 -5 9 -14 17 -19 18 -5 2 -57 -65
-117 -149z"/>
<path d="M2413 3763 c-7 -2 -13 -10 -13 -18 0 -19 128 -285 137 -285 4 0 14 4
22 9 12 8 10 19 -12 68 -65 146 -109 233 -115 232 -4 0 -13 -3 -19 -6z"/>
<path d="M15838 3760 c-15 -9 -9 -26 50 -155 37 -79 72 -144 77 -144 6 -1 17
3 25 8 11 8 2 35 -55 155 -37 80 -71 146 -74 146 -3 0 -14 -5 -23 -10z"/>
<path d="M7467 3643 c-112 -92 -117 -97 -101 -114 16 -18 18 -18 58 14 23 18
78 63 122 98 66 53 80 69 72 82 -5 9 -14 17 -21 16 -7 0 -65 -43 -130 -96z"/>
<path d="M5840 3685 c-14 -17 4 -42 132 -178 68 -73 74 -78 92 -64 19 14 14
20 -88 133 -59 66 -111 120 -115 122 -5 1 -14 -4 -21 -13z"/>
<path d="M9678 3528 c-113 -81 -125 -93 -115 -109 7 -11 15 -19 18 -19 3 0 48
30 100 67 168 118 160 111 146 133 -6 11 -14 20 -17 19 -3 0 -62 -41 -132 -91z"/>
<path d="M12182 3478 c-7 -7 -12 -15 -12 -19 0 -4 51 -37 113 -73 61 -36 118
-70 125 -74 10 -7 -21 -31 -107 -87 -67 -43 -121 -81 -121 -85 0 -3 6 -13 13
-22 11 -14 29 -5 161 81 82 53 149 101 150 106 1 8 -290 185 -304 185 -4 0
-11 -5 -18 -12z"/>
<path d="M1011 3308 c-19 -95 -34 -177 -35 -183 0 -5 9 -11 21 -13 25 -4 22
-13 57 156 13 63 26 115 29 118 2 2 37 -22 78 -54 147 -115 148 -116 164 -102
8 7 15 16 15 20 0 6 -284 230 -292 230 -2 0 -19 -78 -37 -172z"/>
<path d="M14437 3303 c-19 -98 -33 -181 -30 -185 8 -15 42 -8 47 10 3 9 15 69
27 132 12 63 25 118 28 122 4 4 56 -31 116 -77 59 -47 112 -85 116 -85 14 0
32 31 23 39 -22 20 -283 221 -287 221 -2 0 -20 -80 -40 -177z"/>
<path d="M4360 3436 c0 -23 4 -26 38 -27 20 0 90 -4 154 -7 116 -7 117 -7 121
16 5 28 1 29 -175 37 l-138 6 0 -25z"/>
<path d="M13000 3445 c-10 -13 -1 -28 56 -92 151 -168 147 -165 168 -148 19
15 19 16 -5 42 -14 16 -63 70 -109 121 -45 50 -86 92 -90 92 -4 0 -13 -7 -20
-15z"/>
<path d="M17790 3435 c0 -22 4 -25 38 -26 20 0 90 -4 155 -7 l117 -7 0 23 c0
12 -6 24 -12 27 -7 2 -77 6 -155 10 l-143 6 0 -26z"/>
<path d="M5253 3386 c-155 -55 -172 -63 -167 -81 4 -11 8 -22 10 -24 2 -2 62
18 135 43 72 26 133 45 136 42 5 -4 -10 -156 -24 -248 -5 -35 -4 -38 20 -38
29 0 27 -8 53 213 8 75 14 141 12 146 -2 4 -81 -19 -175 -53z"/>
<path d="M3532 3314 c-41 -70 -77 -122 -81 -118 -4 5 -40 60 -80 122 -41 61
-77 112 -81 112 -4 0 -13 -7 -20 -15 -10 -12 5 -41 85 -165 54 -82 101 -150
104 -150 4 0 48 71 99 158 83 142 90 158 75 170 -9 6 -19 12 -22 12 -3 0 -39
-57 -79 -126z"/>
<path d="M16971 3331 c-34 -60 -68 -117 -75 -126 -11 -15 -22 -3 -91 104 -43
66 -81 121 -84 121 -3 0 -13 -6 -23 -13 -14 -12 -6 -28 83 -162 54 -83 102
-151 106 -152 4 -2 49 68 99 154 82 141 90 159 75 170 -9 7 -19 13 -22 13 -3
0 -34 -49 -68 -109z"/>
<path d="M7725 3319 c-88 -32 -163 -60 -166 -61 -4 -2 -3 -13 2 -25 l8 -23
127 45 c69 25 132 45 138 45 9 0 8 -35 -5 -137 -9 -76 -15 -141 -12 -145 4 -7
42 -12 43 -5 1 1 11 84 23 185 15 118 19 182 12 181 -5 0 -82 -27 -170 -60z"/>
<path d="M8840 3258 c0 -24 2 -25 92 -32 50 -3 120 -6 155 -6 61 0 63 1 63 25
0 24 -2 25 -63 25 -35 0 -105 3 -155 6 l-92 7 0 -25z"/>
<path d="M11540 3257 c0 -23 3 -24 92 -31 50 -3 120 -6 155 -6 57 0 63 2 63
20 0 11 -6 22 -12 25 -7 2 -77 6 -155 10 l-143 6 0 -24z"/>
<path d="M1960 3225 l0 -25 155 0 155 0 0 25 0 25 -155 0 -155 0 0 -25z"/>
<path d="M15390 3225 l0 -25 155 0 155 0 0 25 0 25 -155 0 -155 0 0 -25z"/>
<path d="M6400 3135 l0 -25 155 0 155 0 0 25 0 25 -155 0 -155 0 0 -25z"/>
<path d="M10810 3045 c-10 -12 7 -35 96 -134 102 -114 109 -120 126 -104 21
19 34 1 -106 156 -49 53 -92 97 -96 97 -4 0 -13 -7 -20 -15z"/>
<path d="M4026 3037 c-16 -12 -13 -23 50 -159 64 -140 68 -146 90 -136 22 10
22 10 4 52 -36 83 -119 256 -123 256 -2 0 -11 -6 -21 -13z"/>
<path d="M17455 3037 c-17 -13 -14 -22 50 -160 65 -139 69 -145 90 -135 l23
10 -40 87 c-22 47 -53 114 -69 149 -15 34 -30 62 -32 62 -2 0 -11 -6 -22 -13z"/>
<path d="M10355 2978 c-161 -169 -159 -166 -145 -183 7 -8 16 -15 20 -15 4 0
56 52 115 115 90 97 105 117 95 130 -7 8 -15 15 -19 15 -4 0 -33 -28 -66 -62z"/>
<path d="M4965 3010 c-4 -7 -2 -79 5 -161 13 -146 13 -149 37 -149 21 0 23 4
22 43 -1 23 -6 94 -13 157 -9 93 -14 115 -28 118 -9 2 -19 -2 -23 -8z"/>
<path d="M8665 2986 c-18 -13 -16 -20 49 -159 66 -139 70 -145 91 -135 l23 10
-55 117 c-30 64 -61 131 -69 149 -16 37 -15 36 -39 18z"/>
<path d="M133 2842 c-67 -48 -123 -92 -123 -98 0 -6 6 -17 13 -23 11 -8 42 9
141 80 112 80 125 92 116 110 -6 10 -14 19 -18 18 -4 0 -62 -39 -129 -87z"/>
<path d="M13563 2842 c-68 -48 -123 -92 -123 -98 0 -6 6 -16 13 -22 10 -9 44
11 140 79 112 80 126 93 117 110 -6 10 -14 19 -18 19 -4 -1 -62 -40 -129 -88z"/>
<path d="M12441 2891 c-11 -7 -11 -32 3 -157 9 -82 16 -152 16 -156 0 -5 12
-8 26 -8 26 0 26 1 21 48 -3 26 -11 100 -18 165 -12 115 -17 127 -48 108z"/>
<path d="M9526 2865 c-18 -13 -13 -20 73 -128 111 -140 117 -145 137 -125 14
14 5 28 -86 142 -57 69 -103 126 -104 126 0 0 -9 -7 -20 -15z"/>
<path d="M1497 2757 c-88 -82 -106 -104 -96 -114 7 -7 17 -13 22 -13 6 0 55
41 111 92 56 50 105 95 110 99 11 9 -11 39 -28 39 -6 -1 -60 -47 -119 -103z"/>
<path d="M14928 2762 c-58 -53 -105 -101 -104 -106 1 -5 9 -14 18 -20 24 -14
244 190 227 210 -6 8 -17 14 -23 14 -6 -1 -59 -45 -118 -98z"/>
<path d="M7100 2775 c-13 -15 -7 -23 165 -213 39 -42 41 -43 57 -25 16 17 12
24 -88 136 -58 64 -109 117 -114 117 -4 0 -13 -7 -20 -15z"/>
<path d="M3435 2723 c-71 -30 -133 -58 -138 -62 -4 -4 -1 -15 6 -25 13 -17 21
-15 151 39 117 50 137 61 134 78 -2 11 -7 22 -13 23 -5 1 -68 -22 -140 -53z"/>
<path d="M16890 2734 c-58 -25 -119 -52 -137 -59 -25 -10 -30 -18 -26 -34 3
-12 10 -21 15 -21 9 0 269 109 276 115 6 5 -9 45 -16 45 -4 -1 -54 -21 -112
-46z"/>
<path d="M5995 2722 c-28 -26 -77 -71 -108 -101 -55 -51 -57 -54 -41 -72 16
-18 21 -15 126 83 104 96 125 129 88 135 -8 2 -38 -18 -65 -45z"/>
<path d="M2276 2743 c-6 -6 -9 -43 -3 -43 1 0 74 -14 162 -30 88 -16 163 -30
168 -30 4 0 7 11 7 25 0 14 -2 25 -3 25 -6 0 -280 50 -303 55 -12 3 -24 2 -28
-2z"/>
<path d="M15700 2725 c0 -14 1 -25 3 -25 1 0 74 -14 162 -30 88 -16 163 -30
168 -30 4 0 7 11 7 25 0 14 -1 25 -3 25 -1 0 -77 14 -167 30 -90 17 -166 30
-167 30 -2 0 -3 -11 -3 -25z"/>
<path d="M266 2313 c-10 -71 -20 -136 -22 -145 -4 -13 -27 -1 -119 63 -62 43
-116 79 -119 79 -3 0 -6 -12 -6 -27 1 -24 18 -40 136 -121 75 -52 138 -92 140
-89 5 5 54 321 54 349 0 12 -8 18 -23 18 -23 0 -25 -5 -41 -127z"/>
<path d="M13710 2428 c-1 -22 -38 -270 -42 -273 -2 -1 -54 33 -117 78 -87 61
-118 78 -130 70 -8 -5 -16 -14 -18 -19 -3 -9 295 -219 302 -212 4 4 55 333 55
356 0 6 -11 12 -25 12 -14 0 -25 -6 -25 -12z"/>
<path d="M7935 2422 c-13 -14 -3 -42 18 -47 39 -9 292 -55 305 -55 6 0 12 11
12 24 0 22 -6 25 -97 41 -54 10 -128 23 -165 30 -37 7 -70 10 -73 7z"/>
<path d="M11688 2412 c-133 -15 -138 -16 -138 -39 0 -18 5 -23 28 -23 37 0
285 30 290 35 10 9 -11 45 -26 44 -9 -1 -79 -9 -154 -17z"/>
<path d="M4645 2398 c-3 -7 -20 -70 -38 -141 l-33 -128 -109 96 c-61 52 -112
95 -115 95 -3 0 -11 -9 -17 -19 -11 -17 3 -32 128 -140 86 -75 141 -117 144
-109 12 35 85 325 85 341 0 20 -38 24 -45 5z"/>
<path d="M18040 2275 c-19 -74 -38 -135 -42 -135 -5 0 -56 41 -113 91 -88 77
-107 89 -120 79 -8 -7 -15 -16 -15 -20 0 -16 280 -251 285 -238 16 48 75 303
75 327 0 23 -5 31 -18 31 -14 0 -24 -26 -52 -135z"/>
<path d="M9020 2355 c-52 -19 -128 -46 -167 -61 -40 -14 -73 -31 -73 -38 1
-37 17 -36 151 13 73 27 135 47 137 46 2 -2 -4 -61 -12 -132 -21 -166 -21
-163 8 -163 22 0 24 4 40 148 10 81 20 164 23 185 3 20 2 37 -3 37 -5 -1 -52
-16 -104 -35z"/>
<path d="M6670 2357 c0 -23 3 -24 83 -30 45 -4 105 -7 132 -7 84 0 84 -3 4
-139 -73 -124 -74 -127 -36 -143 5 -1 51 69 102 157 l93 160 -67 6 c-36 4
-121 10 -188 14 l-123 7 0 -25z"/>
<path d="M840 2324 c-85 -18 -156 -34 -156 -34 -1 0 1 -11 4 -25 3 -19 9 -24
26 -20 49 12 301 65 308 65 5 0 8 11 8 25 0 31 3 31 -190 -11z"/>
<path d="M14272 2325 c-84 -18 -155 -34 -157 -37 -2 -2 -2 -14 2 -26 3 -15 11
-21 22 -18 9 3 85 19 169 37 143 31 152 34 152 56 0 29 1 29 -188 -12z"/>
<path d="M11104 2307 c-2 -7 22 -69 54 -137 l59 -125 -143 -3 -144 -3 0 -24 0
-25 184 0 185 0 -49 104 c-84 180 -110 226 -125 226 -9 0 -18 -6 -21 -13z"/>
<path d="M5350 2249 c-47 -11 -118 -26 -157 -35 -70 -15 -82 -25 -65 -51 6
-10 39 -6 148 17 76 17 152 33 167 36 22 5 27 11 25 27 -4 28 -17 29 -118 6z"/>
<path d="M10150 2245 c0 -22 4 -25 38 -26 20 0 90 -4 155 -7 l117 -7 0 23 c0
12 -6 24 -12 27 -7 2 -77 6 -155 10 l-143 6 0 -26z"/>
<path d="M12850 2247 c0 -25 1 -25 118 -31 64 -4 134 -8 155 -10 33 -4 37 -2
37 20 0 29 -7 31 -177 39 l-133 6 0 -24z"/>
<path d="M3111 2119 c-57 -77 -102 -141 -100 -142 2 -2 11 -8 20 -15 14 -11
30 6 119 125 79 104 101 140 93 152 -5 8 -14 16 -19 17 -5 2 -56 -60 -113
-137z"/>
<path d="M16541 2119 c-57 -77 -102 -141 -100 -142 2 -2 11 -8 20 -15 15 -11
29 4 114 118 53 72 99 138 101 145 3 7 -3 18 -14 24 -16 9 -31 -6 -121 -130z"/>
<path d="M2277 2202 c-117 -25 -166 -39 -163 -48 2 -6 53 -73 112 -147 92
-116 110 -134 126 -126 10 5 18 13 18 17 0 4 -39 57 -86 116 -47 60 -82 112
-77 116 4 4 68 20 141 35 72 15 132 31 132 36 0 18 -13 39 -24 38 -6 -1 -87
-17 -179 -37z"/>
<path d="M15707 2202 c-125 -26 -166 -39 -163 -49 3 -7 53 -73 112 -147 95
-121 108 -134 125 -123 10 6 19 14 19 17 0 3 -39 54 -86 113 -49 61 -83 112
-78 117 5 4 67 20 139 35 71 15 131 28 132 29 7 6 -11 46 -21 45 -6 -1 -87
-17 -179 -37z"/>
<path d="M7499 2097 c-9 -12 -53 -73 -99 -135 -77 -105 -82 -114 -67 -130 21
-20 14 -27 131 132 73 99 93 133 84 143 -15 19 -31 16 -49 -10z"/>
<path d="M5910 2100 c-13 -8 -3 -33 60 -157 41 -81 80 -148 85 -150 6 -1 17 2
25 7 13 8 3 33 -62 157 -42 81 -80 149 -85 150 -4 2 -15 -2 -23 -7z"/>
<path d="M1490 2050 c-13 -8 -3 -33 61 -157 41 -81 80 -148 85 -150 5 -1 16 2
24 7 13 8 3 33 -61 157 -43 81 -81 149 -85 150 -5 1 -16 -2 -24 -7z"/>
<path d="M14920 2050 c-12 -8 -3 -34 60 -160 41 -82 79 -150 85 -150 5 0 16 4
24 9 12 8 0 38 -61 157 -42 82 -80 150 -85 151 -4 1 -15 -2 -23 -7z"/>
<path d="M3796 1978 c-3 -13 -7 -87 -9 -165 -4 -143 -4 -143 18 -143 19 0 23
7 28 48 4 26 7 99 8 162 2 110 1 115 -19 118 -15 2 -23 -3 -26 -20z"/>
<path d="M17226 1988 c-3 -7 -7 -82 -10 -165 l-6 -153 24 0 c22 0 23 5 30 77
3 42 6 116 6 165 0 82 -1 88 -20 88 -11 0 -22 -6 -24 -12z"/>
<path d="M12301 1768 c-76 -122 -81 -133 -65 -145 23 -17 22 -18 115 129 68
109 75 124 61 136 -9 6 -19 12 -22 12 -4 0 -44 -59 -89 -132z"/>
<path d="M4561 1806 c-9 -11 10 -40 91 -140 96 -119 103 -125 120 -109 21 18
29 5 -97 162 -44 55 -85 100 -91 100 -6 1 -17 -5 -23 -13z"/>
<path d="M13293 1793 c-7 -2 -13 -9 -13 -15 0 -18 192 -248 207 -248 38 0 21
36 -72 150 -53 66 -100 120 -103 119 -4 0 -13 -3 -19 -6z"/>
<path d="M9817 1738 c-140 -219 -138 -217 -116 -229 12 -6 24 -7 28 -2 11 12
161 253 161 258 0 2 -9 9 -20 15 -17 9 -24 4 -53 -42z"/>
<path d="M10933 1595 c-70 -140 -72 -145 -52 -156 11 -6 22 -9 24 -7 1 2 35
67 74 145 67 134 70 143 52 153 -11 5 -21 10 -23 10 -2 0 -36 -65 -75 -145z"/>
<path d="M941 1579 c-61 -55 -111 -104 -111 -109 0 -4 7 -13 15 -20 13 -10 29
0 101 66 47 44 97 87 110 97 27 21 30 39 10 56 -11 9 -36 -9 -125 -90z"/>
<path d="M14371 1580 c-61 -56 -111 -105 -111 -110 0 -4 7 -13 15 -20 12 -10
33 4 124 86 60 55 110 104 110 110 1 6 -5 17 -13 23 -12 10 -35 -6 -125 -89z"/>
<path d="M8133 1621 c-10 -16 3 -32 101 -130 88 -87 114 -109 124 -99 7 7 12
17 12 23 0 10 -210 225 -220 225 -3 0 -10 -8 -17 -19z"/>
<path d="M11303 1584 c-3 -8 -2 -19 3 -23 5 -5 70 -21 144 -36 74 -15 140 -30
147 -32 11 -5 29 34 20 44 -7 6 -265 62 -290 63 -10 0 -20 -7 -24 -16z"/>
<path d="M6645 1540 c-22 -10 -91 -39 -152 -65 -62 -26 -113 -52 -113 -59 1
-35 17 -36 101 0 46 19 117 49 157 66 60 25 73 34 70 51 -4 27 -15 29 -63 7z"/>
<path d="M5203 1538 c87 -220 130 -324 136 -331 4 -4 15 -1 25 6 16 12 14 21
-33 140 -28 70 -51 130 -51 133 0 7 172 -2 248 -13 40 -5 42 -4 42 21 0 14 -1
26 -2 26 -2 0 -79 7 -173 15 -208 18 -198 18 -192 3z"/>
<path d="M2658 1499 c-10 -6 -18 -14 -18 -18 0 -6 168 -221 196 -250 5 -5 34
20 34 29 0 7 -155 205 -189 242 -3 4 -14 2 -23 -3z"/>
<path d="M16082 1498 c-7 -7 -12 -15 -12 -19 0 -6 159 -209 191 -243 8 -9 39
9 39 24 0 8 -189 244 -199 248 -4 1 -12 -3 -19 -10z"/>
<path d="M8900 1466 c0 -23 3 -24 88 -30 242 -17 222 -18 222 9 0 28 -14 31
-197 40 l-113 5 0 -24z"/>
<path d="M2127 1303 c-4 -38 -7 -112 -7 -165 0 -92 1 -98 20 -98 11 0 22 6 24
13 3 6 7 81 10 165 l5 152 -23 0 c-21 0 -24 -5 -29 -67z"/>
<path d="M15556 1328 c-3 -24 -6 -97 -8 -163 -2 -115 -1 -120 20 -123 26 -4
30 16 35 196 4 131 4 132 -18 132 -19 0 -24 -7 -29 -42z"/>
<path d="M12272 1311 c-11 -6 0 -35 47 -129 34 -67 61 -126 61 -132 0 -6 -54
-10 -145 -10 l-145 0 0 -25 0 -25 186 0 185 0 -7 22 c-16 51 -146 303 -157
305 -7 2 -18 -1 -25 -6z"/>
<path d="M13118 1253 c-76 -30 -138 -60 -138 -66 1 -38 17 -36 158 20 121 48
142 60 140 77 -2 11 -7 21 -13 22 -5 1 -72 -22 -147 -53z"/>
<path d="M3428 1241 c-92 -31 -170 -59 -173 -63 -4 -3 -4 -15 -1 -26 7 -19 12
-18 142 25 74 25 137 43 140 40 5 -4 -14 -160 -31 -259 -4 -24 -1 -28 20 -28
17 0 26 7 30 23 11 50 46 319 43 331 -2 9 -49 -3 -170 -43z"/>
<path d="M16858 1241 c-92 -31 -170 -59 -173 -63 -4 -3 -4 -15 -1 -26 7 -19
12 -18 142 25 74 25 137 43 140 41 2 -3 -5 -67 -16 -142 -11 -75 -20 -139 -20
-142 0 -2 11 -4 24 -4 19 0 26 7 30 28 12 60 47 324 44 331 -2 4 -78 -17 -170
-48z"/>
<path d="M7453 1262 c-13 -2 -23 -5 -23 -8 0 -14 94 -341 100 -347 4 -5 69 47
144 114 129 116 136 123 120 140 -16 18 -19 17 -63 -22 -147 -130 -172 -151
-175 -148 -2 2 -21 65 -41 139 -20 74 -38 135 -39 135 0 1 -11 -1 -23 -3z"/>
<path d="M10165 1240 c-4 -12 -5 -24 -2 -26 3 -3 71 -19 152 -36 150 -31 164
-30 165 7 0 6 -62 23 -137 38 -76 16 -146 30 -155 33 -10 3 -19 -3 -23 -16z"/>
<path d="M9757 1158 c-3 -13 -20 -94 -37 -182 -32 -162 -32 -175 6 -176 5 0
23 65 40 145 l29 145 105 -81 c58 -45 110 -86 116 -90 7 -6 17 -2 28 9 15 18
11 23 -91 102 -60 46 -127 99 -149 117 -41 33 -42 33 -47 11z"/>
<path d="M4010 1127 c0 -21 9 -24 138 -50 75 -16 144 -30 153 -33 11 -3 19 3
22 18 4 12 5 23 3 25 -4 5 -284 63 -301 63 -9 0 -15 -9 -15 -23z"/>
<path d="M17440 1127 c0 -22 9 -25 133 -50 72 -15 142 -30 153 -33 17 -4 22 0
26 20 3 14 4 26 2 26 -2 0 -67 14 -144 30 -170 36 -170 36 -170 7z"/>
<path d="M1010 1088 c0 -24 4 -25 68 -31 37 -4 92 -7 122 -8 108 -2 108 2 29
-133 -38 -65 -69 -122 -69 -127 0 -5 8 -13 18 -18 16 -9 30 9 110 148 51 86
92 160 92 163 0 3 -48 8 -107 12 -60 3 -143 9 -185 12 l-78 7 0 -25z"/>
<path d="M14440 1087 c0 -25 1 -25 98 -31 53 -4 118 -10 144 -14 l46 -7 -68
-115 c-38 -63 -69 -120 -70 -127 0 -7 8 -17 18 -22 16 -8 30 11 110 149 51 88
92 161 92 163 0 2 -48 7 -107 11 -60 3 -143 9 -185 12 l-78 7 0 -26z"/>
<path d="M436 974 c-3 -9 -6 -17 -6 -19 0 -2 61 -36 136 -76 108 -57 138 -69
145 -58 5 8 9 19 9 25 0 10 -248 144 -268 144 -5 0 -13 -7 -16 -16z"/>
<path d="M13866 973 c-4 -9 -3 -20 1 -24 4 -4 66 -37 137 -74 102 -54 130 -65
137 -54 5 8 9 19 9 24 0 10 -249 145 -268 145 -5 0 -13 -8 -16 -17z"/>
<path d="M6228 973 c-21 -5 -22 -31 -4 -203 10 -106 12 -115 31 -112 11 2 22
6 24 8 6 5 -21 304 -28 308 -3 1 -14 1 -23 -1z"/>
<path d="M9058 888 c-108 -40 -138 -55 -138 -69 0 -10 4 -20 9 -23 8 -5 276
85 287 97 8 7 -5 47 -14 46 -4 -1 -69 -24 -144 -51z"/>
<path d="M11754 887 c-137 -50 -141 -53 -133 -76 5 -12 15 -21 22 -18 6 2 72
26 145 52 100 36 132 51 128 62 -4 8 -6 19 -6 24 0 13 0 13 -156 -44z"/>
<path d="M2775 841 c-110 -40 -129 -51 -127 -67 2 -10 6 -21 8 -23 4 -4 275
89 287 99 12 11 -4 40 -22 39 -9 0 -74 -22 -146 -48z"/>
<path d="M4851 794 c-83 -66 -120 -101 -117 -111 3 -8 6 -17 6 -19 0 -16 37 8
139 88 64 51 118 93 120 94 1 2 -4 12 -12 24 -14 21 -17 19 -136 -76z"/>
<path d="M16205 842 c-112 -41 -130 -50 -127 -67 2 -11 6 -22 8 -24 3 -3 119
36 271 90 25 9 21 49 -6 48 -9 0 -74 -21 -146 -47z"/>
<path d="M10850 795 c-12 -14 12 -43 195 -243 9 -10 15 -9 28 6 16 18 12 24
-88 135 -59 65 -110 117 -114 117 -5 0 -14 -7 -21 -15z"/>
<path d="M1735 769 c-49 -10 -114 -24 -142 -30 -41 -8 -53 -15 -53 -29 0 -10
3 -21 8 -24 7 -4 301 49 308 57 7 7 -9 47 -20 46 -6 -1 -51 -10 -101 -20z"/>
<path d="M15165 769 c-49 -10 -114 -24 -142 -30 -46 -9 -53 -13 -53 -35 0 -13
1 -24 3 -24 10 0 310 60 313 63 8 7 -9 47 -20 46 -6 -1 -51 -10 -101 -20z"/>
<path d="M6892 639 c-62 -56 -112 -105 -112 -109 0 -4 7 -13 15 -20 13 -10 29
0 101 66 48 44 100 90 116 104 29 25 29 26 11 43 -19 16 -23 13 -131 -84z"/>
<path d="M8233 642 c-67 -48 -122 -92 -123 -98 0 -6 6 -17 13 -23 11 -8 35 4
108 55 162 114 160 113 149 135 -6 10 -14 19 -18 18 -4 0 -62 -40 -129 -87z"/>
<path d="M5500 646 c-80 -35 -145 -68 -144 -74 2 -27 4 -32 14 -32 6 0 70 25
143 56 72 31 142 60 155 65 19 7 21 12 12 29 -6 11 -16 20 -23 19 -7 0 -77
-29 -157 -63z"/>
<path d="M9878 698 c-14 -12 -8 -29 51 -155 36 -79 70 -143 76 -143 5 0 16 4
24 9 11 7 0 38 -54 155 -38 80 -71 146 -75 146 -3 0 -13 -6 -22 -12z"/>
<path d="M12571 701 c-11 -7 0 -38 54 -155 61 -131 71 -146 89 -140 12 4 22 7
24 9 6 5 -134 295 -143 295 -5 0 -16 -4 -24 -9z"/>
<path d="M13341 385 c-67 -53 -121 -100 -121 -104 0 -5 7 -14 15 -21 12 -10
35 4 134 82 66 51 120 98 120 104 1 6 -5 17 -13 23 -11 9 -38 -8 -135 -84z"/>
<path d="M9013 423 c-7 -2 -13 -9 -13 -15 0 -5 48 -63 107 -129 101 -114 107
-118 125 -102 18 16 18 17 -5 42 -13 14 -61 68 -107 119 -45 50 -86 92 -89 91
-3 0 -12 -3 -18 -6z"/>
<path d="M11702 418 c-8 -8 3 -27 48 -77 148 -167 154 -173 173 -166 10 4 17
13 15 20 -5 20 -199 235 -212 235 -7 0 -17 -5 -24 -12z"/>
<path d="M2736 377 c-16 -12 -9 -23 90 -133 59 -65 108 -121 110 -123 5 -6 34
20 34 30 0 9 -198 231 -210 237 -3 1 -14 -4 -24 -11z"/>
<path d="M16160 375 c-10 -11 7 -35 97 -133 91 -101 111 -118 126 -110 10 5
16 15 14 21 -6 20 -201 235 -213 236 -6 1 -17 -6 -24 -14z"/>
<path d="M3743 363 c-7 -2 -13 -8 -13 -13 0 -10 120 -272 130 -283 9 -11 40 3
40 18 0 19 -128 285 -137 284 -4 0 -14 -3 -20 -6z"/>
<path d="M17171 361 c-12 -8 -12 -15 2 -48 35 -85 117 -253 124 -253 5 0 14 4
22 9 12 8 12 15 -2 48 -35 85 -117 253 -124 253 -5 0 -14 -4 -22 -9z"/>
<path d="M10451 204 c-116 -92 -121 -98 -105 -115 16 -18 19 -17 83 33 179
140 180 141 170 160 -5 10 -13 18 -18 18 -4 0 -63 -43 -130 -96z"/>
<path d="M1126 204 c-3 -9 -4 -19 -2 -23 3 -4 66 -36 141 -71 112 -53 138 -61
146 -49 5 8 9 18 9 22 0 8 -263 137 -279 137 -5 0 -12 -7 -15 -16z"/>
<path d="M14557 213 c-24 -23 25 -55 211 -138 53 -24 65 -26 73 -14 5 8 9 18
9 22 0 8 -263 137 -279 137 -4 0 -11 -3 -14 -7z"/>
<path d="M4370 196 c0 -5 -27 -137 -35 -173 -4 -19 -1 -23 19 -23 26 0 30 7
42 72 3 21 8 38 11 38 3 0 37 -25 76 -55 59 -46 77 -55 111 -55 22 0 36 4 31
8 -20 17 -230 179 -242 186 -7 4 -13 5 -13 2z"/>
<path d="M17795 178 c-8 -35 -35 -169 -35 -174 0 -2 11 -4 24 -4 26 0 30 8 42
72 3 21 8 38 11 38 2 0 36 -25 75 -55 59 -46 77 -55 111 -55 22 0 38 2 36 3
-26 22 -237 185 -246 190 -8 5 -14 0 -18 -15z"/>
<path d="M6402 170 c-11 -18 -3 -26 100 -95 99 -66 118 -75 158 -75 l45 0
-142 95 c-79 52 -144 95 -145 95 -2 0 -9 -9 -16 -20z"/>
<path d="M7695 79 c-71 -16 -140 -31 -152 -34 -35 -8 -31 -45 4 -45 26 0 314
59 321 65 2 2 1 13 -3 24 -8 26 -9 26 -170 -10z"/>
<path d="M8363 98 c37 -95 39 -98 64 -98 22 0 24 3 19 26 l-7 26 78 -6 c43 -4
108 -9 146 -13 l67 -6 0 27 c0 18 -5 26 -17 26 -19 0 -211 16 -302 25 -41 4
-52 2 -48 -7z"/>
<path d="M11153 67 c-143 -10 -143 -10 -143 -34 l0 -25 145 7 c105 5 145 4
145 -4 0 -6 11 -11 25 -11 19 0 28 8 40 36 8 20 15 38 15 40 0 5 -51 3 -227
-9z"/>
</g>
</svg>
