<?xml version="1.0" standalone="no"?>
<!DOCTYPE svg PUBLIC "-//W3C//DTD SVG 20010904//EN"
 "http://www.w3.org/TR/2001/REC-SVG-20010904/DTD/svg10.dtd">
<svg version="1.0" xmlns="http://www.w3.org/2000/svg"
 width="1125.000000pt" height="900.000000pt" viewBox="0 0 1125.000000 900.000000"
 preserveAspectRatio="xMidYMid meet">
<metadata>
Created by potrace 1.13, written by Peter Selinger 2001-2015
</metadata>
<g transform="translate(0.000000,900.000000) scale(0.100000,-0.100000)"
fill="#000000" stroke="none">
<path d="M0 4500 l0 -4500 5625 0 5625 0 0 4500 0 4500 -5625 0 -5625 0 0
-4500z m372 4440 c108 -42 210 -61 360 -67 183 -7 298 7 435 53 l102 34 468
-2 468 -3 0 -130 0 -130 -1080 0 -1080 0 -3 119 c-1 66 0 126 2 133 4 10 38
13 141 13 112 0 144 -3 187 -20z m2826 -4 c115 -48 202 -61 407 -61 205 0 285
12 405 61 l60 24 403 -2 402 -3 0 -130 0 -130 -1300 0 -1300 0 -3 119 c-1 66
0 126 2 133 4 10 91 13 436 13 l431 0 57 -24z m2621 -6 c130 -48 249 -63 436
-56 169 6 248 19 358 61 l68 25 432 -2 432 -3 0 -130 0 -130 -1300 0 -1300 0
-3 119 c-1 66 0 126 2 133 4 10 84 13 399 13 l393 0 83 -30z m2901 6 c120 -49
200 -61 405 -61 205 0 292 13 407 61 l57 24 526 0 525 0 0 -135 0 -135 -1512
2 -1513 3 -3 119 c-1 66 0 126 2 133 4 10 106 13 526 13 l520 0 60 -24z m2485
-111 l0 -130 -247 -3 -248 -2 0 135 0 135 248 -2 247 -3 0 -130z m-10507 -597
l-3 -403 -325 0 -325 0 -3 403 -2 402 330 0 330 0 -2 -402z m3112 -3 l0 -405
-1525 0 -1525 0 0 405 0 405 1525 0 1525 0 0 -405z m2578 3 l-3 -403 -1257 -3
-1258 -2 0 405 0 405 1260 0 1260 0 -2 -402z m2762 -3 l0 -405 -1350 0 -1350
0 0 405 0 405 1350 0 1350 0 0 -405z m2058 3 l-3 -403 -997 -3 -998 -2 0 405
0 405 1000 0 1000 0 -2 -402z m-9198 -853 l0 -385 -843 -2 c-463 -2 -906 -2
-984 0 l-143 3 0 378 c0 208 3 381 7 384 3 4 447 7 985 7 l978 0 0 -385z
m2760 0 l0 -385 -702 -2 c-387 -2 -994 -2 -1350 0 l-648 2 0 385 0 385 1350 0
1350 0 0 -385z m2630 0 l0 -385 -1285 0 -1285 0 0 385 0 385 1285 0 1285 0 0
-385z m3100 0 l0 -385 -832 -2 c-458 -2 -1142 -2 -1520 0 l-688 2 0 378 c0
208 3 382 7 385 3 4 687 7 1520 7 l1513 0 0 -385z m708 -2 l2 -383 -325 0
-325 0 0 385 0 385 323 -2 322 -3 3 -382z m-10910 -760 l-3 -308 -125 0 -125
0 -3 308 -2 307 130 0 130 0 -2 -307z m3042 -3 l0 -310 -1490 0 -1490 0 0 310
0 310 1490 0 1490 0 0 -310z m2810 0 l0 -310 -1370 0 -1370 0 0 310 0 310
1370 0 1370 0 0 -310z m2660 0 l0 -310 -1295 0 -1295 0 0 310 0 310 1295 0
1295 0 0 -310z m2398 3 l-3 -308 -1167 -3 -1168 -2 0 310 0 310 1170 0 1170 0
-2 -307z m-8978 -698 l0 -325 -1093 2 -1092 3 -3 310 c-1 170 0 315 3 322 3
10 227 13 1095 13 l1090 0 0 -325z m2660 0 l0 -325 -1295 0 -1295 0 0 325 0
325 1295 0 1295 0 0 -325z m2630 0 l0 -325 -1285 0 -1285 0 0 325 0 325 1285
0 1285 0 0 -325z m3120 0 l0 -325 -1530 0 -1530 0 0 325 0 325 1530 0 1530 0
0 -325z m565 0 l0 -320 -247 -3 -248 -2 0 325 0 325 248 -2 247 -3 0 -320z
m-10525 -780 l0 -395 -317 2 -318 3 -3 380 c-1 209 0 386 3 392 3 10 76 13
320 13 l315 0 0 -395z m3100 0 l0 -395 -1515 0 -1515 0 0 395 0 395 1515 0
1515 0 0 -395z m2525 0 l0 -390 -1227 -3 -1228 -2 0 395 0 395 1228 -2 1227
-3 0 -390z m2815 0 l0 -395 -1372 2 -1373 3 -3 380 c-1 209 0 386 3 392 3 10
286 13 1375 13 l1370 0 0 -395z m2085 0 l0 -390 -1010 0 -1010 0 -3 380 c-1
209 0 386 3 393 3 10 210 12 1012 10 l1008 -3 0 -390z m-9217 -817 l-3 -363
-970 0 -970 0 -3 363 -2 362 975 0 975 0 -2 -362z m2752 -3 l0 -365 -1345 0
-1345 0 0 365 0 365 1345 0 1345 0 0 -365z m2620 0 l0 -365 -1277 2 -1278 3
-3 363 -2 362 1280 0 1280 0 0 -365z m3128 3 l-3 -363 -1532 -3 -1533 -2 0
365 0 365 1535 0 1535 0 -2 -362z m720 0 l-3 -363 -327 -3 -328 -2 0 365 0
365 330 0 330 0 -2 -362z m-10868 -833 l0 -405 -150 0 -150 0 0 398 c0 219 3
402 7 405 3 4 71 7 150 7 l143 0 0 -405z m2970 0 l0 -405 -1455 0 -1455 0 0
398 c0 219 3 402 7 405 3 4 658 7 1455 7 l1448 0 0 -405z m2760 0 l0 -405
-1350 0 -1350 0 0 405 0 405 1350 0 1350 0 0 -405z m2710 0 l0 -405 -1325 0
-1325 0 0 405 0 405 1325 0 1325 0 0 -405z m2428 -2 l2 -403 -1185 0 -1185 0
0 405 0 405 1183 -2 1182 -3 3 -402z m-8770 -770 l2 -303 -1200 0 -1200 0 0
298 c0 164 3 302 7 305 3 4 542 6 1197 5 l1191 -3 3 -302z m2590 0 l2 -303
-1265 0 -1265 0 0 298 c0 164 3 302 7 305 3 4 572 6 1262 5 l1256 -3 3 -302z
m2582 2 l0 -305 -1260 0 -1260 0 0 298 c0 164 3 302 7 305 3 4 570 7 1260 7
l1253 0 0 -305z m3150 0 l0 -305 -1540 0 -1540 0 0 305 0 305 1540 0 1540 0 0
-305z m448 -2 l2 -303 -190 0 -190 0 0 305 0 305 188 -2 187 -3 3 -302z
m-10528 -718 l0 -345 -317 2 -318 3 -3 343 -2 342 320 0 320 0 0 -345z m3098
3 l-3 -343 -1517 -3 -1518 -2 0 345 0 345 1520 0 1520 0 -2 -342z m2572 -3 l0
-345 -1255 0 -1255 0 0 345 0 345 1255 0 1255 0 0 -345z m2760 0 l0 -345
-1345 0 -1345 0 0 345 0 345 1345 0 1345 0 0 -345z m2098 3 l-3 -343 -1012 -3
-1013 -2 0 345 0 345 1015 0 1015 0 -2 -342z m-9168 -768 l0 -360 -1000 0
-1000 0 0 353 c0 195 3 357 7 360 3 4 453 7 1000 7 l993 0 0 -360z m2800 0 l0
-360 -1370 0 -1370 0 0 360 0 360 1370 0 1370 0 0 -360z m2550 0 l0 -360
-1245 0 -1245 0 0 360 0 360 1245 0 1245 0 0 -360z m3030 0 l0 -360 -1485 0
-1485 0 0 360 0 360 1485 0 1485 0 0 -360z m788 -2 l2 -358 -365 0 -365 0 0
353 c0 195 3 357 7 360 4 4 167 6 362 5 l356 -3 3 -357z m-10990 -805 l-3
-378 -85 0 -85 0 -3 378 -2 377 90 0 90 0 -2 -377z m3040 0 l-3 -378 -1485 0
-1485 0 -3 378 -2 377 1490 0 1490 0 -2 -377z m2612 -3 l0 -380 -1275 0 -1275
0 0 380 0 380 1275 0 1275 0 0 -380z m2710 0 l0 -380 -1320 0 -1320 0 0 380 0
380 1320 0 1320 0 0 -380z m2628 3 l-3 -378 -1280 0 -1280 0 -3 378 -2 377
1285 0 1285 0 -2 -377z"/>
<path d="M2108 8386 c-162 -29 -271 -82 -297 -145 -38 -89 54 -163 259 -209
56 -13 122 -17 265 -17 218 1 324 20 429 78 168 93 103 216 -147 278 -107 27
-394 35 -509 15z m472 -70 c41 -9 104 -31 140 -49 58 -29 65 -35 65 -62 0 -27
-7 -33 -65 -62 -103 -51 -189 -66 -390 -66 -126 0 -195 4 -246 16 -106 24
-181 55 -204 84 -18 23 -19 29 -7 47 28 44 142 85 294 107 86 12 327 3 413
-15z"/>
<path d="M4948 8386 c-199 -35 -308 -101 -308 -184 0 -70 96 -131 265 -170
104 -24 412 -23 525 1 168 36 260 98 260 175 0 68 -82 125 -232 163 -108 27
-394 35 -510 15z m472 -70 c41 -9 103 -30 137 -46 96 -47 96 -83 -1 -130 -91
-44 -207 -64 -376 -64 -195 -1 -287 13 -395 58 -44 19 -85 53 -85 71 0 46 150
109 290 122 30 3 57 8 60 10 10 11 298 -6 370 -21z"/>
<path d="M7578 8386 c-199 -35 -308 -101 -308 -184 0 -71 97 -132 270 -170
109 -24 404 -24 520 1 103 22 184 57 228 100 26 25 32 39 32 72 0 71 -79 127
-232 166 -108 27 -394 35 -510 15z m472 -70 c41 -9 103 -30 136 -46 97 -47 97
-83 1 -129 -167 -81 -505 -92 -719 -25 -76 24 -138 64 -138 88 0 49 148 108
330 130 71 9 317 -3 390 -18z"/>
<path d="M10470 8394 c-203 -37 -287 -68 -333 -123 -80 -95 12 -187 238 -239
51 -12 121 -16 260 -16 201 0 270 10 390 55 164 61 179 181 34 255 -93 46
-198 65 -389 69 -96 2 -186 1 -200 -1z m438 -84 c90 -22 135 -41 170 -73 28
-26 28 -38 -1 -65 -117 -110 -601 -134 -819 -40 -61 26 -96 63 -82 86 30 47
120 84 269 108 114 19 355 11 463 -16z"/>
<path d="M485 7529 c-168 -24 -302 -92 -319 -161 -20 -78 55 -141 219 -184 90
-24 118 -27 290 -28 213 -1 311 14 419 63 137 63 159 155 54 225 -51 35 -139
65 -241 81 -99 16 -322 18 -422 4z m395 -64 c52 -8 122 -23 155 -35 136 -46
150 -97 42 -149 -96 -47 -207 -65 -387 -66 -209 0 -359 31 -437 91 -39 30 -41
43 -10 71 92 85 391 126 637 88z"/>
<path d="M3355 7534 c-156 -23 -284 -71 -328 -123 -79 -95 12 -187 237 -238
100 -23 423 -24 521 -1 173 40 265 100 265 171 0 72 -93 137 -246 173 -67 15
-380 28 -449 18z m430 -78 c88 -20 192 -70 200 -97 15 -45 -67 -94 -210 -125
-99 -21 -379 -25 -470 -5 -142 30 -245 79 -245 116 0 39 114 94 235 114 39 6
81 13 95 15 53 9 328 -4 395 -18z"/>
<path d="M5925 7534 c-288 -46 -416 -156 -307 -264 78 -78 236 -115 487 -115
251 0 403 36 486 114 95 91 17 189 -193 242 -65 16 -123 21 -263 24 -99 2
-193 1 -210 -1z m434 -78 c117 -26 211 -75 211 -112 0 -36 -104 -86 -245 -115
-90 -20 -371 -16 -469 5 -141 31 -225 81 -211 125 12 40 147 90 310 115 63 9
332 -3 404 -18z"/>
<path d="M8765 7529 c-83 -12 -192 -46 -243 -76 -44 -25 -82 -74 -82 -106 0
-119 254 -205 575 -194 175 6 279 27 374 75 59 29 79 45 94 74 16 32 17 43 7
73 -33 99 -249 166 -530 164 -74 -1 -162 -5 -195 -10z m395 -64 c170 -26 274
-73 268 -124 -2 -21 -15 -32 -68 -58 -98 -49 -207 -67 -390 -67 -213 0 -378
36 -441 95 -25 24 -28 31 -19 49 48 91 386 146 650 105z"/>
<path d="M1638 6770 c-207 -33 -328 -101 -328 -185 0 -73 97 -137 261 -172
112 -24 420 -25 524 -1 170 39 265 100 265 171 0 73 -74 125 -238 169 -60 15
-116 21 -252 23 -96 2 -201 0 -232 -5z m470 -80 c45 -11 97 -27 115 -36 40
-20 77 -54 77 -69 0 -19 -42 -52 -93 -74 -91 -39 -201 -56 -372 -56 -185 0
-295 19 -391 65 -92 45 -96 79 -15 123 53 29 138 54 234 67 103 15 350 4 445
-20z"/>
<path d="M4638 6770 c-277 -44 -398 -152 -290 -260 40 -40 114 -72 227 -98 97
-22 421 -22 520 0 170 39 265 100 265 171 0 73 -88 133 -250 173 -77 18 -385
28 -472 14z m470 -79 c131 -33 209 -82 186 -119 -83 -131 -619 -163 -850 -51
-92 44 -96 78 -15 122 53 29 138 54 234 67 103 15 350 4 445 -19z"/>
<path d="M7280 6763 c-222 -39 -330 -122 -285 -217 20 -42 73 -79 152 -105
118 -39 174 -46 368 -46 210 1 311 18 421 72 158 77 130 197 -61 263 -143 49
-418 64 -595 33z m395 -54 c121 -15 235 -52 275 -89 30 -28 31 -32 17 -53 -48
-72 -289 -125 -518 -113 -149 7 -248 28 -329 69 -53 26 -66 37 -68 59 -11 92
333 162 623 127z"/>
<path d="M10078 6766 c-199 -35 -308 -101 -308 -184 0 -71 97 -132 270 -170
109 -24 404 -24 520 1 168 36 260 98 260 175 0 68 -82 125 -232 163 -108 27
-394 35 -510 15z m471 -70 c79 -17 183 -60 202 -82 24 -29 1 -62 -64 -93 -167
-81 -505 -92 -720 -25 -93 30 -148 72 -131 101 29 48 119 84 269 109 102 17
344 11 444 -10z"/>
<path d="M609 6095 c-217 -35 -332 -108 -315 -199 12 -63 89 -112 233 -149 78
-19 112 -22 298 -21 183 1 220 3 290 22 160 44 230 97 228 171 -2 70 -100 131
-267 167 -100 22 -359 27 -467 9z m457 -70 c104 -21 202 -68 210 -101 8 -32
-7 -48 -70 -78 -92 -44 -203 -61 -391 -61 -229 0 -384 35 -445 100 -21 23 -22
26 -7 48 29 44 152 88 299 107 98 12 307 4 404 -15z"/>
<path d="M3369 6095 c-215 -35 -332 -109 -315 -199 12 -64 99 -117 251 -152
122 -29 457 -26 570 4 99 27 182 68 209 105 69 93 -29 186 -248 233 -100 22
-359 27 -467 9z m457 -70 c104 -21 202 -68 210 -101 8 -32 -7 -48 -70 -78 -96
-45 -195 -61 -386 -61 -234 0 -388 34 -450 100 -21 23 -22 26 -7 48 29 44 152
88 299 107 98 12 307 4 404 -15z"/>
<path d="M5941 6099 c-159 -22 -296 -82 -326 -145 -42 -90 38 -160 244 -212
100 -25 436 -24 549 2 107 25 200 71 229 115 28 42 29 64 2 107 -26 43 -135
97 -239 119 -92 20 -357 27 -459 14z m435 -74 c92 -19 198 -65 213 -93 23 -44
-44 -88 -186 -124 -75 -19 -116 -22 -273 -22 -157 0 -198 3 -273 22 -91 23
-155 50 -176 76 -50 60 80 129 295 156 95 12 305 4 400 -15z"/>
<path d="M8835 6099 c-94 -12 -221 -52 -272 -86 -86 -56 -90 -136 -10 -194 51
-37 169 -75 283 -90 118 -15 366 -7 467 16 145 34 247 104 247 169 0 67 -111
140 -260 171 -90 19 -357 28 -455 14z m431 -74 c92 -19 198 -65 213 -93 23
-44 -44 -88 -186 -124 -120 -30 -406 -33 -527 -4 -139 32 -206 69 -206 112 0
47 137 103 306 124 95 12 305 4 400 -15z"/>
<path d="M2095 5294 c-219 -34 -345 -104 -345 -191 0 -73 94 -132 272 -170
112 -24 399 -25 508 -1 176 39 270 98 270 171 0 72 -95 139 -247 173 -67 16
-392 28 -458 18z m439 -78 c93 -21 192 -68 201 -96 15 -46 -70 -96 -217 -127
-100 -21 -359 -23 -458 -5 -140 27 -250 78 -250 117 0 41 122 98 260 120 106
18 366 12 464 -9z"/>
<path d="M4838 5286 c-198 -35 -298 -96 -298 -181 0 -37 5 -48 39 -78 74 -67
221 -105 436 -114 267 -10 500 49 556 141 55 90 -23 169 -213 217 -107 27
-402 35 -520 15z m481 -70 c118 -26 211 -75 211 -112 0 -20 -62 -62 -121 -83
-95 -32 -199 -46 -354 -45 -175 0 -288 19 -382 65 -109 53 -93 104 47 150 35
12 100 28 145 35 104 17 355 12 454 -10z"/>
<path d="M7466 5285 c-133 -23 -235 -67 -278 -119 -10 -12 -18 -38 -18 -60 0
-107 183 -182 475 -193 267 -10 500 49 556 141 55 90 -23 169 -213 217 -108
27 -402 35 -522 14z m483 -69 c118 -26 211 -75 211 -112 0 -20 -62 -62 -121
-83 -94 -32 -198 -45 -354 -45 -175 0 -288 19 -382 65 -109 53 -93 104 47 150
35 12 100 28 145 35 104 17 355 12 454 -10z"/>
<path d="M10325 5290 c-93 -15 -217 -56 -262 -89 -47 -34 -69 -84 -54 -123 35
-93 215 -155 476 -165 393 -14 660 113 545 260 -27 34 -126 80 -220 103 -87
20 -386 29 -485 14z m480 -79 c98 -24 160 -53 183 -88 13 -21 12 -25 -16 -51
-65 -61 -229 -96 -447 -95 -187 0 -287 17 -385 66 -53 26 -66 37 -68 58 -6 49
95 98 257 124 126 21 360 14 476 -14z"/>
<path d="M450 4489 c-175 -17 -324 -67 -370 -126 -28 -36 -26 -94 5 -131 76
-90 366 -148 621 -124 317 31 475 140 372 258 -58 66 -182 106 -378 124 -126
11 -128 11 -250 -1z m353 -74 c47 -8 111 -24 140 -35 55 -21 107 -60 107 -80
0 -22 -48 -58 -106 -80 -179 -67 -546 -69 -718 -3 -57 22 -106 60 -106 83 0
41 102 90 239 114 104 19 338 20 444 1z"/>
<path d="M3180 4489 c-106 -10 -257 -49 -307 -80 -172 -107 -66 -241 231 -291
173 -29 469 -8 599 43 192 75 187 204 -10 279 -115 44 -341 65 -513 49z m353
-74 c143 -25 247 -73 247 -114 0 -44 -90 -89 -231 -116 -97 -18 -331 -21 -429
-6 -168 27 -283 85 -265 134 14 35 118 79 240 102 98 18 333 18 438 0z"/>
<path d="M5810 4489 c-106 -10 -257 -49 -307 -80 -172 -107 -66 -241 231 -291
174 -30 468 -8 599 43 192 75 187 204 -10 279 -115 44 -341 65 -513 49z m353
-74 c143 -25 247 -73 247 -114 0 -44 -90 -89 -231 -116 -97 -18 -331 -21 -429
-6 -132 21 -249 69 -264 108 -17 43 91 101 239 128 98 18 334 18 438 0z"/>
<path d="M8701 4489 c-222 -20 -373 -91 -387 -181 -5 -31 -1 -41 30 -76 74
-82 242 -125 491 -126 281 0 469 56 521 155 18 36 7 84 -29 117 -88 83 -378
134 -626 111z m352 -74 c143 -25 247 -73 247 -114 0 -45 -87 -88 -231 -116
-97 -18 -331 -21 -429 -6 -133 21 -249 69 -265 108 -16 44 116 111 261 132 99
14 324 12 417 -4z"/>
<path d="M1664 3630 c-169 -18 -298 -63 -352 -124 -62 -71 -33 -135 86 -192
242 -116 801 -78 911 62 29 37 28 94 -4 132 -74 88 -389 148 -641 122z m385
-80 c99 -20 198 -63 215 -92 17 -28 -2 -49 -74 -85 -173 -87 -597 -85 -776 2
-87 43 -93 78 -20 119 90 52 211 74 411 75 112 1 174 -4 244 -19z"/>
<path d="M4605 3629 c-98 -10 -212 -38 -279 -69 -139 -66 -135 -177 9 -244
122 -57 341 -85 533 -67 259 24 407 93 407 191 0 96 -147 166 -400 190 -114
11 -145 11 -270 -1z m369 -74 c135 -24 236 -72 236 -114 0 -73 -205 -131 -460
-131 -255 0 -460 58 -460 131 0 41 100 89 235 114 98 18 343 18 449 0z"/>
<path d="M7295 3630 c-169 -18 -320 -70 -365 -127 -27 -34 -26 -92 1 -127 67
-85 346 -147 584 -131 273 20 445 96 445 197 0 44 -59 102 -135 132 -121 48
-362 74 -530 56z m429 -89 c85 -23 160 -61 170 -86 17 -45 -69 -95 -215 -125
-106 -22 -338 -27 -449 -10 -149 24 -264 79 -258 123 4 29 59 64 139 88 110
33 155 38 349 35 150 -3 200 -8 264 -25z"/>
<path d="M10055 3630 c-169 -18 -320 -70 -365 -127 -27 -34 -26 -92 1 -127
105 -133 613 -177 883 -76 240 90 171 257 -130 314 -102 19 -288 27 -389 16z
m429 -89 c85 -23 160 -61 170 -86 17 -46 -69 -95 -220 -126 -85 -18 -124 -20
-279 -16 -194 5 -282 21 -365 68 -83 46 -80 76 12 122 101 51 208 67 418 63
149 -3 201 -8 264 -25z"/>
<path d="M740 2899 c-312 -33 -464 -171 -310 -284 162 -120 665 -134 887 -25
75 37 103 69 103 120 0 48 -28 84 -90 115 -137 69 -362 97 -590 74z m446 -86
c79 -22 152 -59 168 -85 24 -39 -41 -84 -170 -120 -69 -19 -105 -22 -284 -22
-224 -1 -295 10 -398 60 -112 55 -84 111 82 159 102 30 147 34 341 31 151 -3
205 -8 261 -23z"/>
<path d="M3559 2900 c-174 -20 -289 -61 -344 -121 -45 -50 -46 -86 -4 -133
129 -147 678 -178 926 -53 148 76 124 196 -53 258 -130 46 -364 68 -525 49z
m375 -75 c99 -17 157 -38 204 -72 39 -29 41 -55 6 -82 -128 -101 -579 -124
-797 -40 -71 27 -113 69 -98 97 16 31 108 71 207 92 114 24 354 26 478 5z"/>
<path d="M6157 2900 c-155 -18 -297 -69 -342 -122 -32 -38 -33 -95 -4 -132 71
-90 362 -150 617 -126 199 18 322 58 380 124 84 96 -8 191 -231 237 -109 22
-311 31 -420 19z m453 -89 c121 -36 179 -77 164 -116 -10 -25 -86 -64 -170
-86 -111 -30 -372 -38 -501 -15 -150 26 -253 73 -253 116 0 25 53 64 115 85
105 36 184 44 380 41 159 -3 202 -7 265 -25z"/>
<path d="M8965 2898 c-160 -17 -305 -72 -346 -129 -67 -95 30 -185 249 -231
136 -29 378 -29 514 0 219 46 316 136 249 231 -72 101 -383 161 -666 129z
m440 -82 c75 -21 166 -65 179 -88 24 -39 -42 -85 -170 -119 -111 -30 -372 -38
-501 -15 -150 26 -253 73 -253 116 0 40 103 90 235 116 99 19 428 13 510 -10z"/>
<path d="M2061 2169 c-156 -18 -297 -70 -340 -125 -26 -34 -27 -87 -2 -123
101 -142 662 -182 916 -65 80 37 115 76 115 130 0 130 -347 222 -689 183z
m399 -75 c90 -16 188 -54 215 -84 39 -43 -25 -95 -161 -131 -112 -30 -373 -38
-501 -15 -150 26 -253 73 -253 116 0 27 54 65 125 88 151 50 378 60 575 26z"/>
<path d="M4921 2170 c-92 -12 -210 -44 -259 -70 -165 -88 -121 -211 98 -274
197 -56 534 -49 704 14 119 45 175 115 142 179 -48 91 -218 147 -471 155 -77
3 -173 1 -214 -4z m376 -71 c140 -21 253 -74 253 -119 0 -25 -40 -55 -106 -80
-229 -85 -677 -58 -796 49 -37 33 -31 53 26 86 122 71 391 99 623 64z"/>
<path d="M7530 2169 c-228 -29 -360 -97 -360 -188 0 -46 19 -74 73 -106 102
-59 241 -86 452 -86 236 0 402 40 481 115 50 48 56 81 26 131 -63 102 -397
169 -672 134z m270 -59 c127 -11 209 -29 287 -65 80 -36 91 -76 30 -114 -185
-112 -713 -106 -861 10 -48 38 -23 81 69 117 81 32 150 44 345 60 8 1 67 -3
130 -8z"/>
<path d="M10341 2169 c-151 -18 -298 -72 -341 -126 -22 -29 -26 -77 -7 -110
57 -101 323 -161 624 -141 185 12 348 65 393 127 26 38 26 91 -1 125 -78 99
-390 157 -668 125z m399 -75 c136 -24 237 -77 228 -120 -5 -28 -84 -71 -173
-96 -71 -19 -105 -22 -290 -22 -185 0 -219 3 -289 22 -132 37 -198 88 -165
128 7 9 33 26 58 38 137 69 403 90 631 50z"/>
<path d="M464 1389 c-102 -9 -204 -34 -269 -65 -147 -69 -147 -179 0 -248 249
-117 777 -85 911 55 40 42 40 96 -1 139 -92 96 -364 146 -641 119z m369 -74
c142 -25 237 -71 237 -116 0 -22 -50 -60 -108 -82 -117 -46 -405 -62 -575 -32
-141 25 -237 71 -237 116 0 43 94 89 233 114 101 18 345 18 450 0z"/>
<path d="M3320 1389 c-160 -18 -307 -71 -351 -127 -25 -33 -25 -92 1 -125 31
-40 135 -85 246 -109 140 -29 378 -29 518 0 216 46 307 130 247 229 -59 96
-391 162 -661 132z m397 -78 c152 -32 234 -79 217 -126 -10 -25 -85 -63 -170
-86 -113 -30 -383 -38 -507 -15 -156 30 -251 76 -245 119 6 41 122 94 255 117
98 16 352 11 450 -9z"/>
<path d="M5820 1389 c-160 -18 -307 -71 -351 -127 -25 -33 -25 -92 1 -125 31
-40 135 -85 246 -109 140 -29 378 -29 518 0 216 46 307 130 247 229 -59 96
-391 162 -661 132z m397 -78 c152 -32 234 -79 217 -126 -10 -25 -85 -63 -170
-86 -113 -30 -383 -38 -507 -15 -156 30 -251 76 -245 119 6 41 122 94 255 117
98 16 352 11 450 -9z"/>
<path d="M8710 1389 c-107 -12 -220 -42 -283 -77 -127 -69 -115 -173 27 -238
199 -91 623 -91 822 0 153 70 153 182 0 252 -120 55 -381 84 -566 63z m445
-88 c130 -36 193 -80 169 -118 -17 -28 -85 -61 -170 -84 -111 -30 -372 -38
-501 -15 -156 27 -257 75 -251 119 4 29 59 64 139 88 110 33 155 38 349 35
156 -2 198 -6 265 -25z"/>
<path d="M1597 529 c-157 -16 -307 -73 -348 -130 -41 -58 -14 -127 69 -172
239 -130 836 -96 943 54 24 35 24 89 0 121 -78 99 -381 157 -664 127z m439
-85 c75 -18 153 -53 173 -78 7 -8 11 -23 9 -33 -5 -27 -84 -70 -173 -95 -71
-19 -104 -22 -290 -22 -185 0 -219 3 -289 22 -138 38 -200 89 -161 132 21 23
96 56 176 76 132 34 416 33 555 -2z"/>
<path d="M4437 529 c-152 -16 -297 -67 -342 -121 -31 -37 -33 -95 -6 -130 72
-92 357 -151 619 -128 125 11 235 34 240 51 2 5 8 7 13 4 10 -7 85 26 109 47
77 65 61 147 -39 201 -28 16 -58 26 -66 23 -7 -2 -15 0 -17 5 -8 24 -242 60
-370 58 -35 -1 -98 -5 -141 -10z m431 -84 c35 -8 67 -13 72 -10 6 3 10 2 10
-3 0 -5 18 -17 41 -27 51 -23 75 -56 60 -82 -15 -29 -98 -69 -186 -89 -122
-29 -449 -26 -559 4 -129 36 -194 81 -170 119 18 29 104 71 183 89 150 34 418
33 549 -1z"/>
<path d="M7067 529 c-152 -16 -303 -71 -346 -125 -26 -34 -27 -87 -2 -123 116
-163 784 -183 980 -30 79 62 64 147 -35 201 -130 70 -368 101 -597 77z m433
-83 c79 -20 154 -53 175 -76 39 -43 -23 -94 -161 -132 -70 -19 -104 -22 -289
-22 -185 0 -219 3 -289 22 -129 36 -194 81 -170 119 17 29 101 69 181 88 146
34 420 35 553 1z"/>
<path d="M9933 530 c-175 -22 -284 -61 -338 -121 -50 -56 -48 -90 10 -145 80
-77 247 -116 490 -116 219 0 408 45 482 114 77 72 33 163 -103 217 -117 45
-383 71 -541 51z m385 -76 c139 -25 232 -71 232 -115 0 -68 -223 -129 -469
-129 -207 1 -374 39 -434 98 -35 35 -29 54 27 87 124 72 419 99 644 59z"/>
</g>
</svg>
