<?xml version="1.0" standalone="no"?>
<!DOCTYPE svg PUBLIC "-//W3C//DTD SVG 20010904//EN"
 "http://www.w3.org/TR/2001/REC-SVG-20010904/DTD/svg10.dtd">
<svg version="1.0" xmlns="http://www.w3.org/2000/svg"
 width="64.000000pt" height="66.000000pt" viewBox="0 0 64.000000 66.000000"
 preserveAspectRatio="xMidYMid meet">

<g transform="translate(0.000000,66.000000) scale(0.100000,-0.100000)"
fill="#000000" stroke="none">
<path d="M320 620 c14 -11 34 -25 45 -31 14 -7 12 -4 -5 11 -14 11 -34 25 -45
31 -14 7 -12 4 5 -11z"/>
<path d="M435 610 c3 -19 10 -39 15 -44 7 -7 7 -1 1 19 -17 54 -21 61 -16 25z"/>
<path d="M529 603 l-24 -28 28 24 c25 23 32 31 24 31 -2 0 -14 -12 -28 -27z"/>
<path d="M50 590 c-12 -16 -19 -30 -16 -30 2 0 14 14 26 30 12 17 19 30 16 30
-2 0 -14 -13 -26 -30z"/>
<path d="M164 580 c3 -19 11 -39 16 -44 5 -5 5 8 -1 30 -14 50 -24 60 -15 14z"/>
<path d="M290 520 c-11 -22 -18 -40 -15 -40 2 0 14 18 25 40 11 22 18 40 15
40 -2 0 -14 -18 -25 -40z"/>
<path d="M599 513 c-29 -35 -41 -53 -36 -53 2 0 17 16 31 35 28 36 31 49 5 18z"/>
<path d="M67 490 c3 -10 11 -24 19 -31 10 -8 10 -3 -2 20 -18 35 -24 40 -17
11z"/>
<path d="M370 460 c11 -22 23 -40 25 -40 3 0 -4 18 -15 40 -11 22 -23 40 -25
40 -3 0 4 -18 15 -40z"/>
<path d="M479 463 l-24 -28 28 24 c25 23 32 31 24 31 -2 0 -14 -12 -28 -27z"/>
<path d="M179 433 l-24 -28 28 24 c15 14 27 26 27 28 0 8 -8 1 -31 -24z"/>
<path d="M312 398 c-10 -13 -29 -67 -20 -58 7 7 37 70 33 70 -1 0 -7 -6 -13
-12z"/>
<path d="M0 387 c0 -2 15 -16 33 -33 l32 -29 -29 33 c-28 30 -36 37 -36 29z"/>
<path d="M461 375 c9 -8 79 -35 79 -30 0 2 -16 12 -36 20 -37 15 -51 19 -43
10z"/>
<path d="M180 337 c0 -7 72 -48 76 -44 2 2 -14 14 -36 26 -22 12 -40 20 -40
18z"/>
<path d="M94 288 l-29 -33 33 29 c17 17 32 31 32 33 0 8 -8 1 -36 -29z"/>
<path d="M367 295 c-20 -14 -37 -28 -37 -31 0 -2 18 8 40 22 35 23 47 34 37
34 -1 0 -19 -11 -40 -25z"/>
<path d="M594 278 l-29 -33 33 29 c17 17 32 31 32 33 0 8 -8 1 -36 -29z"/>
<path d="M187 215 c-9 -19 -15 -35 -12 -35 7 0 37 61 33 66 -3 2 -12 -12 -21
-31z"/>
<path d="M470 195 c19 -19 36 -35 39 -35 3 0 -10 16 -29 35 -19 19 -36 35 -39
35 -3 0 10 -16 29 -35z"/>
<path d="M77 181 c-40 -26 -47 -36 -12 -18 42 23 62 37 50 36 -5 0 -22 -8 -38
-18z"/>
<path d="M277 165 c9 -19 18 -33 21 -31 4 5 -26 66 -33 66 -3 0 3 -16 12 -35z"/>
<path d="M371 174 c-6 -15 -9 -29 -7 -32 3 -2 10 8 16 23 14 36 7 43 -9 9z"/>
<path d="M593 144 c-12 -25 -18 -42 -14 -39 11 6 44 75 39 80 -2 2 -13 -16
-25 -41z"/>
<path d="M110 101 c8 -4 31 -11 50 -14 21 -4 29 -3 20 2 -8 4 -31 11 -50 14
-21 4 -29 3 -20 -2z"/>
<path d="M375 69 c-22 -10 -29 -16 -15 -13 38 10 70 23 70 29 0 8 -13 5 -55
-16z"/>
<path d="M40 35 c13 -14 26 -25 28 -25 3 0 -5 11 -18 25 -13 14 -26 25 -28 25
-3 0 5 -11 18 -25z"/>
<path d="M515 51 c11 -4 36 -11 55 -15 24 -4 29 -3 15 3 -11 4 -36 11 -55 15
-24 4 -29 3 -15 -3z"/>
<path d="M181 36 c10 -9 69 -36 69 -32 0 6 -55 36 -66 36 -4 0 -5 -2 -3 -4z"/>
</g>
</svg>
