<?xml version="1.0" standalone="no"?>
<!DOCTYPE svg PUBLIC "-//W3C//DTD SVG 20010904//EN"
 "http://www.w3.org/TR/2001/REC-SVG-20010904/DTD/svg10.dtd">
<svg version="1.0" xmlns="http://www.w3.org/2000/svg"
 width="128.000000pt" height="128.000000pt" viewBox="0 0 128.000000 128.000000"
 preserveAspectRatio="xMidYMid meet">

<g transform="translate(0.000000,128.000000) scale(0.100000,-0.100000)"
fill="#000000" stroke="none">
<path d="M0 1274 c0 -13 68 -79 75 -73 2 3 -13 23 -35 44 -22 22 -40 35 -40
29z"/>
<path d="M240 1260 c0 -11 5 -20 10 -20 6 0 10 9 10 20 0 11 -4 20 -10 20 -5
0 -10 -9 -10 -20z"/>
<path d="M522 1258 c8 -12 20 -24 27 -26 9 -3 7 5 -4 22 -10 14 -22 26 -27 26
-6 0 -4 -10 4 -22z"/>
<path d="M950 1259 c7 -11 14 -19 16 -16 7 7 -7 37 -17 37 -6 0 -5 -9 1 -21z"/>
<path d="M1092 1248 c-23 -36 -20 -52 3 -22 26 33 36 54 26 54 -5 0 -18 -15
-29 -32z"/>
<path d="M645 1180 c-21 -22 -36 -42 -34 -45 3 -2 23 13 44 35 21 22 36 42 34
45 -3 2 -23 -13 -44 -35z"/>
<path d="M353 1173 c-34 -4 -46 -23 -15 -23 37 0 92 13 92 21 0 9 -17 9 -77 2z"/>
<path d="M62 1095 c12 -24 24 -42 26 -40 7 7 -29 85 -39 85 -5 0 1 -20 13 -45z"/>
<path d="M1060 1131 c-23 -4 -31 -9 -22 -14 16 -10 122 2 122 14 0 10 -45 10
-100 0z"/>
<path d="M780 1122 c0 -5 21 -17 48 -27 26 -10 53 -22 60 -28 8 -6 12 -6 12 2
0 11 -55 42 -97 55 -13 4 -23 3 -23 -2z"/>
<path d="M561 1085 c0 -5 18 -30 39 -54 22 -24 40 -38 40 -32 0 7 -18 31 -40
54 -22 23 -39 38 -39 32z"/>
<path d="M170 1015 c-24 -24 -42 -47 -39 -50 3 -2 27 18 54 45 27 28 45 50 39
50 -5 0 -30 -20 -54 -45z"/>
<path d="M1232 1013 c21 -20 41 -34 45 -29 8 8 -54 65 -72 66 -5 0 7 -17 27
-37z"/>
<path d="M400 980 c0 -33 4 -60 10 -60 6 0 10 27 10 60 0 33 -4 60 -10 60 -6
0 -10 -27 -10 -60z"/>
<path d="M1024 983 c3 -10 10 -37 16 -60 6 -24 15 -43 21 -43 6 0 8 8 5 18 -3
9 -10 36 -16 60 -6 23 -15 42 -21 42 -6 0 -8 -8 -5 -17z"/>
<path d="M0 974 c0 -8 5 -12 10 -9 6 4 8 11 5 16 -9 14 -15 11 -15 -7z"/>
<path d="M816 923 c-20 -25 -33 -49 -30 -52 5 -5 20 11 65 72 35 47 4 29 -35
-20z"/>
<path d="M618 865 c15 -55 39 -80 26 -27 -17 66 -21 76 -31 79 -7 3 -5 -16 5
-52z"/>
<path d="M275 845 c22 -19 45 -35 50 -34 6 0 -8 15 -30 34 -22 19 -44 35 -50
34 -5 0 8 -15 30 -34z"/>
<path d="M0 840 c0 -5 13 -10 30 -10 17 0 30 5 30 10 0 6 -13 10 -30 10 -17 0
-30 -4 -30 -10z"/>
<path d="M475 805 c-22 -18 -38 -36 -35 -38 3 -3 23 9 45 28 22 18 38 36 35
38 -3 3 -23 -9 -45 -28z"/>
<path d="M1240 830 c0 -5 9 -10 20 -10 11 0 20 5 20 10 0 6 -9 10 -20 10 -11
0 -20 -4 -20 -10z"/>
<path d="M955 765 c55 -46 85 -66 85 -58 0 13 -87 83 -102 83 -7 0 1 -11 17
-25z"/>
<path d="M733 753 c-18 -2 -33 -9 -33 -15 0 -7 16 -9 46 -4 26 3 55 6 65 6 11
0 19 5 19 10 0 10 -33 11 -97 3z"/>
<path d="M140 699 c0 -14 80 -93 87 -85 6 6 -67 93 -79 95 -5 1 -8 -4 -8 -10z"/>
<path d="M1150 645 c-24 -25 -40 -45 -34 -45 13 0 89 78 83 85 -3 2 -25 -16
-49 -40z"/>
<path d="M322 635 c-24 -50 -26 -55 -14 -55 7 0 52 82 52 95 0 19 -20 -2 -38
-40z"/>
<path d="M700 600 c24 -22 47 -37 50 -34 6 7 -71 74 -85 73 -5 0 10 -17 35
-39z"/>
<path d="M481 569 c-12 -55 -7 -78 7 -38 17 45 24 89 14 89 -6 0 -15 -23 -21
-51z"/>
<path d="M71 553 c-21 -82 -23 -93 -13 -93 5 0 15 21 21 48 7 26 14 55 17 65
3 9 1 17 -5 17 -6 0 -15 -17 -20 -37z"/>
<path d="M889 519 c-30 -46 -49 -89 -40 -89 12 0 63 90 58 103 -1 5 -10 -1
-18 -14z"/>
<path d="M1030 533 c0 -12 46 -23 91 -23 16 0 29 5 29 10 0 6 -10 10 -22 10
-13 0 -40 3 -60 6 -23 4 -38 3 -38 -3z"/>
<path d="M607 478 c-26 -17 -46 -32 -43 -35 5 -6 93 45 102 58 9 16 -10 8 -59
-23z"/>
<path d="M360 444 c0 -10 44 -68 65 -86 39 -34 37 -17 -4 27 -22 24 -41 49
-41 55 0 5 -4 10 -10 10 -5 0 -10 -3 -10 -6z"/>
<path d="M1180 434 c0 -6 18 -31 40 -55 21 -24 39 -39 39 -34 0 6 -17 30 -39
55 -22 25 -40 40 -40 34z"/>
<path d="M171 359 c-17 -28 -29 -54 -26 -57 6 -6 25 18 55 71 32 56 8 44 -29
-14z"/>
<path d="M1010 358 c-6 -24 -13 -51 -16 -60 -3 -10 -1 -18 5 -18 6 0 15 19 21
43 6 23 13 50 16 60 3 9 1 17 -5 17 -6 0 -15 -19 -21 -42z"/>
<path d="M770 280 c24 -28 45 -48 48 -46 7 7 -67 96 -80 96 -5 0 9 -23 32 -50z"/>
<path d="M576 260 c-15 -28 -26 -56 -23 -63 2 -6 15 9 28 36 12 26 27 47 31
47 4 0 8 7 8 15 0 28 -17 15 -44 -35z"/>
<path d="M1188 243 c-21 -9 -38 -20 -38 -24 0 -13 9 -11 65 16 55 26 33 32
-27 8z"/>
<path d="M66 203 c15 -59 32 -107 33 -91 2 31 -20 118 -30 118 -5 0 -6 -12 -3
-27z"/>
<path d="M352 184 c32 -45 48 -61 48 -49 0 12 -63 95 -72 95 -5 0 6 -21 24
-46z"/>
<path d="M1000 157 c0 -3 24 -13 53 -23 28 -9 58 -19 65 -22 6 -2 12 1 12 7 0
9 -21 17 -102 37 -16 3 -28 4 -28 1z"/>
<path d="M765 98 c-9 -24 -19 -49 -22 -55 -3 -7 -1 -13 5 -13 8 0 18 19 49 98
3 6 1 12 -5 12 -5 0 -18 -19 -27 -42z"/>
<path d="M553 113 c-34 -4 -46 -23 -15 -23 47 0 121 14 116 21 -5 9 -40 9
-101 2z"/>
<path d="M230 40 c0 -22 5 -40 10 -40 6 0 10 18 10 40 0 22 -4 40 -10 40 -5 0
-10 -18 -10 -40z"/>
<path d="M935 29 c9 -17 19 -29 21 -26 7 7 -18 57 -28 57 -5 0 -1 -14 7 -31z"/>
<path d="M492 18 c2 -6 10 -14 16 -16 7 -2 10 2 6 12 -7 18 -28 22 -22 4z"/>
<path d="M1120 15 c-8 -9 -8 -15 -2 -15 12 0 26 19 19 26 -2 2 -10 -2 -17 -11z"/>
</g>
</svg>
