<?xml version="1.0" standalone="no"?>
<!DOCTYPE svg PUBLIC "-//W3C//DTD SVG 20010904//EN"
 "http://www.w3.org/TR/2001/REC-SVG-20010904/DTD/svg10.dtd">
<svg version="1.0" xmlns="http://www.w3.org/2000/svg"
 width="64.000000pt" height="64.000000pt" viewBox="0 0 64.000000 64.000000"
 preserveAspectRatio="xMidYMid meet">

<g transform="translate(0.000000,64.000000) scale(0.100000,-0.100000)"
fill="#000000" stroke="none">
<path d="M23 598 c-30 -15 -29 -42 2 -56 31 -14 35 -15 35 -3 0 5 -12 14 -27
19 l-28 9 28 13 c15 7 27 17 27 22 0 10 -9 9 -37 -4z"/>
<path d="M160 603 c1 -5 9 -24 20 -43 l18 -35 -1 34 c-2 29 2 36 23 42 20 6
17 7 -17 8 -24 1 -43 -2 -43 -6z"/>
<path d="M440 572 c12 -24 23 -42 25 -40 2 2 15 20 29 41 23 34 24 37 5 27
-11 -6 -23 -18 -26 -27 -5 -13 -11 -11 -30 13 l-25 29 22 -43z"/>
<path d="M625 580 c3 -5 8 -10 11 -10 2 0 4 5 4 10 0 6 -5 10 -11 10 -5 0 -7
-4 -4 -10z"/>
<path d="M304 515 c11 -8 25 -15 30 -15 6 0 -2 -11 -19 -25 -37 -30 -22 -32
25 -4 l34 21 -34 19 c-42 22 -63 24 -36 4z"/>
<path d="M531 420 c28 -58 27 -57 39 -29 5 13 17 35 27 49 17 25 17 25 -12 -2
l-28 -26 -24 26 -24 27 22 -45z"/>
<path d="M65 434 c17 -9 31 -18 33 -19 2 -2 -4 -16 -13 -32 -15 -24 -13 -23
14 7 37 42 38 48 9 47 -13 -1 -34 2 -48 6 -21 7 -20 5 5 -9z"/>
<path d="M215 358 c12 -39 11 -41 -24 -50 -46 -13 -32 -21 23 -13 l45 7 -20
39 c-21 43 -34 52 -24 17z"/>
<path d="M381 355 c0 -5 6 -25 12 -43 l12 -33 35 38 c34 35 34 36 6 19 -29
-18 -29 -18 -47 5 -10 13 -18 20 -18 14z"/>
<path d="M21 228 c-1 -27 2 -48 7 -48 4 1 23 10 42 20 l35 19 -32 -5 c-29 -6
-33 -4 -42 27 l-9 34 -1 -47z"/>
<path d="M241 205 l-20 -35 42 1 c37 0 39 1 18 10 -18 7 -22 14 -17 34 9 34 2
31 -23 -10z"/>
<path d="M496 197 l-29 -42 30 29 31 28 17 -32 c9 -17 19 -30 21 -27 6 6 -21
73 -33 80 -4 3 -21 -14 -37 -36z"/>
<path d="M342 86 c-20 -42 -20 -46 -4 -46 20 1 102 38 85 39 -7 1 -24 -4 -38
-11 -31 -14 -40 -6 -25 22 6 11 10 26 8 31 -2 6 -13 -10 -26 -35z"/>
<path d="M154 95 l28 -26 -23 -26 -24 -26 33 19 c53 30 54 37 3 62 l-46 23 29
-26z"/>
<path d="M2 54 c2 -23 4 -24 15 -8 17 23 16 34 -2 34 -10 0 -14 -9 -13 -26z"/>
<path d="M590 73 c39 -7 45 -19 25 -50 l-18 -28 21 19 c12 11 22 30 22 43 0
20 -4 23 -37 22 -28 -1 -31 -3 -13 -6z"/>
</g>
</svg>
