<?xml version="1.0" standalone="no"?>
<!DOCTYPE svg PUBLIC "-//W3C//DTD SVG 20010904//EN"
 "http://www.w3.org/TR/2001/REC-SVG-20010904/DTD/svg10.dtd">
<svg version="1.0" xmlns="http://www.w3.org/2000/svg"
 width="64.000000pt" height="64.000000pt" viewBox="0 0 64.000000 64.000000"
 preserveAspectRatio="xMidYMid meet">

<g transform="translate(0.000000,64.000000) scale(0.100000,-0.100000)"
fill="#000000" stroke="none">
<path d="M240 635 c0 -10 30 -65 36 -65 2 0 0 9 -6 19 -16 30 -12 39 18 44 22
3 20 4 -10 6 -21 0 -38 -1 -38 -4z"/>
<path d="M36 595 c-10 -8 -24 -16 -30 -18 -16 -6 3 -23 34 -31 21 -5 20 -3 -5
8 l-30 14 28 13 c15 7 27 16 27 21 0 10 -1 10 -24 -7z"/>
<path d="M625 580 c3 -5 8 -10 11 -10 2 0 4 5 4 10 0 6 -5 10 -11 10 -5 0 -7
-4 -4 -10z"/>
<path d="M456 550 c9 -19 18 -36 19 -38 1 -1 14 14 29 35 l28 38 -28 -30 c-15
-16 -29 -25 -31 -19 -2 6 -11 20 -19 30 -12 15 -11 11 2 -16z"/>
<path d="M135 539 c-20 -38 -14 -45 27 -31 l33 11 -33 -5 -34 -6 17 31 c8 17
13 31 11 31 -3 0 -13 -14 -21 -31z"/>
<path d="M254 495 c11 -8 25 -15 30 -15 6 0 -2 -12 -19 -26 l-30 -25 37 23
c41 26 41 32 -4 47 -30 10 -31 9 -14 -4z"/>
<path d="M397 455 l-27 -24 29 -16 c39 -20 55 -19 18 1 l-29 16 23 24 c29 31
22 30 -14 -1z"/>
<path d="M531 417 l22 -39 23 29 c13 15 23 32 24 37 0 5 -9 -3 -21 -18 l-20
-26 -25 28 -25 27 22 -38z"/>
<path d="M46 418 c3 -5 16 -8 30 -8 29 0 30 -6 7 -34 -17 -20 -17 -20 0 -7 10
8 22 22 27 32 8 14 4 17 -29 21 -22 2 -37 0 -35 -4z"/>
<path d="M234 358 c3 -10 9 -25 12 -33 4 -10 0 -15 -14 -15 -12 0 -23 -4 -26
-8 -3 -5 8 -6 25 -4 33 5 35 16 13 52 -8 14 -13 17 -10 8z"/>
<path d="M372 310 c6 -19 12 -36 13 -37 1 -2 12 9 26 24 22 25 22 26 2 9 -13
-11 -23 -15 -23 -9 0 5 -7 18 -15 29 -13 17 -14 16 -3 -16z"/>
<path d="M115 300 c-6 -29 -7 -30 -36 -15 -16 9 -29 13 -29 11 0 -7 61 -39 65
-34 6 6 16 68 12 68 -3 0 -8 -13 -12 -30z"/>
<path d="M539 282 l-37 -17 32 -24 31 -25 -23 26 -23 26 30 10 c17 6 31 13 31
16 0 8 0 8 -41 -12z"/>
<path d="M2 197 l-2 -47 37 15 c62 26 51 32 -14 8 -7 -3 -13 10 -16 34 -3 36
-4 35 -5 -10z"/>
<path d="M265 224 c-34 -11 -35 -12 -7 -8 34 6 40 -3 22 -37 -6 -10 -8 -19 -5
-19 7 0 38 71 33 75 -2 1 -21 -4 -43 -11z"/>
<path d="M451 176 l-25 -31 26 23 26 24 16 -29 c8 -15 15 -23 16 -18 0 6 -8
22 -18 36 l-17 26 -24 -31z"/>
<path d="M142 165 l-21 -35 37 1 c31 2 33 3 9 6 -28 4 -28 5 -12 30 9 13 15
27 12 29 -2 3 -14 -11 -25 -31z"/>
<path d="M321 111 l-34 -28 43 -17 c23 -9 44 -15 47 -12 2 2 -12 9 -31 16 -20
6 -36 14 -36 16 0 3 12 16 28 29 38 34 25 31 -17 -4z"/>
<path d="M179 70 l24 -21 -24 -27 c-23 -25 -22 -25 8 2 18 16 32 30 30 31 -1
0 -15 9 -32 19 l-30 17 24 -21z"/>
<path d="M7 73 c10 -3 10 -10 2 -26 -10 -21 -10 -21 5 -3 21 26 20 36 -1 35
-11 0 -13 -3 -6 -6z"/>
<path d="M593 73 c9 -2 25 -2 35 0 9 3 1 5 -18 5 -19 0 -27 -2 -17 -5z"/>
<path d="M455 40 c-26 -7 -27 -8 -6 -9 20 -1 21 -3 11 -16 -7 -8 -9 -15 -4
-15 5 0 17 12 27 25 19 27 18 27 -28 15z"/>
<path d="M616 22 l-19 -27 24 22 c12 12 21 24 18 27 -2 2 -13 -8 -23 -22z"/>
</g>
</svg>
