<?xml version="1.0" standalone="no"?>
<!DOCTYPE svg PUBLIC "-//W3C//DTD SVG 20010904//EN"
 "http://www.w3.org/TR/2001/REC-SVG-20010904/DTD/svg10.dtd">
<svg version="1.0" xmlns="http://www.w3.org/2000/svg"
 width="48.000000pt" height="48.000000pt" viewBox="0 0 48.000000 48.000000"
 preserveAspectRatio="xMidYMid meet">

<g transform="translate(0.000000,48.000000) scale(0.100000,-0.100000)"
fill="#000000" stroke="none">
<path d="M73 467 c-39 -14 -73 -42 -73 -59 0 -7 7 -3 15 9 8 12 35 29 60 39
43 16 47 16 90 0 25 -10 52 -27 60 -39 8 -12 15 -16 15 -10 0 20 -38 49 -79
61 -45 14 -46 14 -88 -1z"/>
<path d="M110 410 c0 -5 5 -10 10 -10 6 0 10 5 10 10 0 6 -4 10 -10 10 -5 0
-10 -4 -10 -10z"/>
<path d="M313 227 c-39 -14 -73 -42 -73 -59 0 -7 7 -3 15 9 8 12 35 29 60 39
43 16 47 16 90 0 25 -10 52 -27 60 -39 8 -12 15 -16 15 -10 0 20 -38 49 -79
61 -45 14 -46 14 -88 -1z"/>
<path d="M350 170 c0 -5 5 -10 10 -10 6 0 10 5 10 10 0 6 -4 10 -10 10 -5 0
-10 -4 -10 -10z"/>
</g>
</svg>
