<?xml version="1.0" standalone="no"?>
<!DOCTYPE svg PUBLIC "-//W3C//DTD SVG 20010904//EN"
 "http://www.w3.org/TR/2001/REC-SVG-20010904/DTD/svg10.dtd">
<svg version="1.0" xmlns="http://www.w3.org/2000/svg"
 width="48.000000pt" height="48.000000pt" viewBox="0 0 48.000000 48.000000"
 preserveAspectRatio="xMidYMid meet">

<g transform="translate(0.000000,48.000000) scale(0.100000,-0.100000)"
fill="#000000" stroke="none">
<path d="M49 465 c-26 -14 -50 -76 -48 -122 0 -10 7 10 15 43 13 53 19 64 44
74 24 10 36 10 60 0 25 -10 31 -21 44 -74 8 -33 15 -53 15 -43 1 10 -4 38 -10
63 -9 33 -19 49 -40 59 -34 18 -47 18 -80 0z"/>
<path d="M80 340 c0 -5 5 -10 10 -10 6 0 10 5 10 10 0 6 -4 10 -10 10 -5 0
-10 -4 -10 -10z"/>
<path d="M289 225 c-26 -14 -50 -76 -48 -122 0 -10 7 10 15 43 13 53 19 64 44
74 24 10 36 10 60 0 25 -10 31 -21 44 -74 8 -33 15 -53 15 -43 1 10 -4 38 -10
63 -9 33 -19 49 -40 59 -34 18 -47 18 -80 0z"/>
<path d="M320 100 c0 -5 5 -10 10 -10 6 0 10 5 10 10 0 6 -4 10 -10 10 -5 0
-10 -4 -10 -10z"/>
</g>
</svg>
