<?xml version="1.0" standalone="no"?>
<!DOCTYPE svg PUBLIC "-//W3C//DTD SVG 20010904//EN"
 "http://www.w3.org/TR/2001/REC-SVG-20010904/DTD/svg10.dtd">
<svg version="1.0" xmlns="http://www.w3.org/2000/svg"
 width="40.000000pt" height="48.000000pt" viewBox="0 0 40.000000 48.000000"
 preserveAspectRatio="xMidYMid meet">

<g transform="translate(0.000000,48.000000) scale(0.100000,-0.100000)"
fill="#000000" stroke="none">
<path d="M25 410 c14 -40 27 -75 29 -77 2 -2 15 30 29 72 14 41 22 73 18 71
-4 -3 -16 -33 -26 -67 l-19 -62 -21 61 c-11 33 -23 64 -27 68 -5 4 3 -26 17
-66z"/>
<path d="M217 393 c18 -2 50 -2 70 0 21 2 7 4 -32 4 -38 0 -55 -2 -38 -4z"/>
<path d="M225 170 c14 -40 27 -75 29 -77 2 -2 15 30 29 72 14 41 22 73 18 71
-4 -3 -16 -33 -26 -67 l-19 -62 -21 61 c-11 33 -23 64 -27 68 -5 4 3 -26 17
-66z"/>
<path d="M27 153 c18 -2 48 -2 66 0 17 2 3 4 -33 4 -36 0 -50 -2 -33 -4z"/>
</g>
</svg>
