<?xml version="1.0" standalone="no"?>
<!DOCTYPE svg PUBLIC "-//W3C//DTD SVG 20010904//EN"
 "http://www.w3.org/TR/2001/REC-SVG-20010904/DTD/svg10.dtd">
<svg version="1.0" xmlns="http://www.w3.org/2000/svg"
 width="128.000000pt" height="128.000000pt" viewBox="0 0 128.000000 128.000000"
 preserveAspectRatio="xMidYMid meet">

<g transform="translate(0.000000,128.000000) scale(0.100000,-0.100000)"
fill="#000000" stroke="none">
<path d="M220 1110 l0 -50 -50 0 c-38 0 -50 -4 -50 -15 0 -11 12 -15 50 -15
l50 0 0 -55 c0 -42 3 -55 15 -55 12 0 15 13 15 55 l0 55 55 0 c42 0 55 3 55
15 0 12 -13 15 -55 15 l-55 0 0 50 c0 38 -4 50 -15 50 -11 0 -15 -12 -15 -50z"/>
<path d="M860 1110 l0 -50 -50 0 c-38 0 -50 -4 -50 -15 0 -11 12 -15 50 -15
l50 0 0 -55 c0 -42 3 -55 15 -55 12 0 15 13 15 55 l0 55 55 0 c42 0 55 3 55
15 0 12 -13 15 -55 15 l-55 0 0 50 c0 38 -4 50 -15 50 -11 0 -15 -12 -15 -50z"/>
<path d="M220 470 l0 -50 -50 0 c-38 0 -50 -4 -50 -15 0 -11 12 -15 50 -15
l50 0 0 -55 c0 -42 3 -55 15 -55 12 0 15 13 15 55 l0 55 55 0 c42 0 55 3 55
15 0 12 -13 15 -55 15 l-55 0 0 50 c0 38 -4 50 -15 50 -11 0 -15 -12 -15 -50z"/>
<path d="M860 470 l0 -50 -50 0 c-38 0 -50 -4 -50 -15 0 -11 12 -15 50 -15
l50 0 0 -55 c0 -42 3 -55 15 -55 12 0 15 13 15 55 l0 55 55 0 c42 0 55 3 55
15 0 12 -13 15 -55 15 l-55 0 0 50 c0 38 -4 50 -15 50 -11 0 -15 -12 -15 -50z"/>
</g>
</svg>
