<?xml version="1.0" standalone="no"?>
<!DOCTYPE svg PUBLIC "-//W3C//DTD SVG 20010904//EN"
 "http://www.w3.org/TR/2001/REC-SVG-20010904/DTD/svg10.dtd">
<svg version="1.0" xmlns="http://www.w3.org/2000/svg"
 width="128.000000pt" height="128.000000pt" viewBox="0 0 128.000000 128.000000"
 preserveAspectRatio="xMidYMid meet">

<g transform="translate(0.000000,128.000000) scale(0.100000,-0.100000)"
fill="#000000" stroke="none">
<path d="M82 1248 c-2 -37 -3 -38 -42 -38 l-40 0 0 -45 0 -45 40 0 c39 0 40
-1 40 -35 0 -34 -1 -35 -40 -35 l-40 0 0 -45 0 -45 40 0 c39 0 40 -1 40 -35 0
-34 -1 -35 -40 -35 l-40 0 0 -45 0 -45 40 0 c39 0 40 -1 40 -35 0 -34 -1 -35
-40 -35 l-40 0 0 -45 0 -45 40 0 c39 0 40 -1 40 -35 0 -34 -1 -35 -40 -35
l-40 0 0 -45 0 -45 40 0 c39 0 40 -1 40 -35 0 -34 -1 -35 -40 -35 l-40 0 0
-45 0 -45 40 0 c39 0 40 -1 40 -35 0 -34 -1 -35 -40 -35 l-40 0 0 -45 0 -45
40 0 c39 0 40 -1 40 -35 0 -34 -1 -35 -40 -35 l-40 0 0 -45 0 -45 643 2 c353
1 607 4 565 5 l-78 4 0 34 0 35 78 2 c42 1 60 3 40 5 -36 4 -38 6 -38 38 0 32
2 34 38 38 20 2 2 4 -40 5 l-78 2 0 35 0 35 78 2 c42 1 60 3 40 5 -36 4 -38 6
-38 38 0 32 2 34 38 38 20 2 2 4 -40 5 l-78 2 0 35 0 35 78 2 c42 1 60 3 40 5
-36 4 -38 6 -38 38 0 32 2 34 38 38 20 2 2 4 -40 5 l-78 2 0 35 0 35 78 2 c42
1 60 3 40 5 -36 4 -38 6 -38 38 0 32 2 34 38 38 20 2 2 4 -40 5 l-78 2 0 35 0
35 78 2 c42 1 60 3 40 5 -36 4 -38 6 -38 38 0 32 2 34 38 38 20 2 2 4 -40 5
l-78 2 0 35 0 35 78 2 c42 1 60 3 40 5 -36 4 -38 6 -38 38 0 32 2 34 38 38 20
2 2 4 -40 5 l-78 2 0 35 0 35 78 2 c42 1 60 3 40 5 -36 4 -38 6 -38 38 0 32 2
34 38 38 20 2 2 4 -40 5 l-78 2 0 35 0 35 78 2 c42 1 60 3 40 5 -34 4 -37 7
-41 41 l-4 37 -1 -37 -2 -38 -74 0 -75 0 -4 38 -4 37 -1 -37 -2 -38 -74 0 -75
0 -4 38 -4 37 -1 -37 -2 -38 -74 0 -75 0 -4 38 -4 37 -1 -37 -2 -38 -74 0 -75
0 -4 38 -4 37 -1 -37 -2 -38 -74 0 -75 0 -4 38 -4 37 -1 -37 -2 -38 -74 0 -75
0 -4 38 -4 37 -1 -37 -2 -38 -74 0 -75 0 -4 38 -4 37 -1 -37z m78 -83 l0 -35
-75 0 -75 0 0 35 0 35 75 0 75 0 0 -35z m160 0 l0 -35 -75 0 -75 0 0 35 0 35
75 0 75 0 0 -35z m160 0 l0 -35 -75 0 -75 0 0 35 0 35 75 0 75 0 0 -35z m160
0 l0 -35 -75 0 -75 0 0 35 0 35 75 0 75 0 0 -35z m160 0 l0 -35 -75 0 -75 0 0
35 0 35 75 0 75 0 0 -35z m160 0 l0 -35 -75 0 -75 0 0 35 0 35 75 0 75 0 0
-35z m160 0 l0 -35 -75 0 -75 0 0 35 0 35 75 0 75 0 0 -35z m-880 -80 l0 -35
-75 0 -75 0 0 35 0 35 75 0 75 0 0 -35z m160 0 l0 -35 -75 0 -75 0 0 35 0 35
75 0 75 0 0 -35z m160 0 l0 -35 -75 0 -75 0 0 35 0 35 75 0 75 0 0 -35z m160
0 l0 -35 -75 0 -75 0 0 35 0 35 75 0 75 0 0 -35z m160 0 l0 -35 -75 0 -75 0 0
35 0 35 75 0 75 0 0 -35z m160 0 l0 -35 -75 0 -75 0 0 35 0 35 75 0 75 0 0
-35z m160 0 l0 -35 -75 0 -75 0 0 35 0 35 75 0 75 0 0 -35z m-1040 -80 l0 -35
-75 0 -75 0 0 35 0 35 75 0 75 0 0 -35z m160 0 l0 -35 -75 0 -75 0 0 35 0 35
75 0 75 0 0 -35z m160 0 l0 -35 -75 0 -75 0 0 35 0 35 75 0 75 0 0 -35z m160
0 l0 -35 -75 0 -75 0 0 35 0 35 75 0 75 0 0 -35z m160 0 l0 -35 -75 0 -75 0 0
35 0 35 75 0 75 0 0 -35z m160 0 l0 -35 -75 0 -75 0 0 35 0 35 75 0 75 0 0
-35z m160 0 l0 -35 -75 0 -75 0 0 35 0 35 75 0 75 0 0 -35z m-880 -80 l0 -35
-75 0 -75 0 0 35 0 35 75 0 75 0 0 -35z m160 0 l0 -35 -75 0 -75 0 0 35 0 35
75 0 75 0 0 -35z m160 0 l0 -35 -75 0 -75 0 0 35 0 35 75 0 75 0 0 -35z m160
0 l0 -35 -75 0 -75 0 0 35 0 35 75 0 75 0 0 -35z m160 0 l0 -35 -75 0 -75 0 0
35 0 35 75 0 75 0 0 -35z m160 0 l0 -35 -75 0 -75 0 0 35 0 35 75 0 75 0 0
-35z m160 0 l0 -35 -75 0 -75 0 0 35 0 35 75 0 75 0 0 -35z m-1040 -80 l0 -35
-75 0 -75 0 0 35 0 35 75 0 75 0 0 -35z m160 0 l0 -35 -75 0 -75 0 0 35 0 35
75 0 75 0 0 -35z m160 0 l0 -35 -75 0 -75 0 0 35 0 35 75 0 75 0 0 -35z m160
0 l0 -35 -75 0 -75 0 0 35 0 35 75 0 75 0 0 -35z m160 0 l0 -35 -75 0 -75 0 0
35 0 35 75 0 75 0 0 -35z m160 0 l0 -35 -75 0 -75 0 0 35 0 35 75 0 75 0 0
-35z m160 0 l0 -35 -75 0 -75 0 0 35 0 35 75 0 75 0 0 -35z m-880 -80 l0 -35
-75 0 -75 0 0 35 0 35 75 0 75 0 0 -35z m160 0 l0 -35 -75 0 -75 0 0 35 0 35
75 0 75 0 0 -35z m160 0 l0 -35 -75 0 -75 0 0 35 0 35 75 0 75 0 0 -35z m160
0 l0 -35 -75 0 -75 0 0 35 0 35 75 0 75 0 0 -35z m160 0 l0 -35 -75 0 -75 0 0
35 0 35 75 0 75 0 0 -35z m160 0 l0 -35 -75 0 -75 0 0 35 0 35 75 0 75 0 0
-35z m160 0 l0 -35 -75 0 -75 0 0 35 0 35 75 0 75 0 0 -35z m-1040 -80 l0 -35
-75 0 -75 0 0 35 0 35 75 0 75 0 0 -35z m160 0 l0 -35 -75 0 -75 0 0 35 0 35
75 0 75 0 0 -35z m160 0 l0 -35 -75 0 -75 0 0 35 0 35 75 0 75 0 0 -35z m160
0 l0 -35 -75 0 -75 0 0 35 0 35 75 0 75 0 0 -35z m160 0 l0 -35 -75 0 -75 0 0
35 0 35 75 0 75 0 0 -35z m160 0 l0 -35 -75 0 -75 0 0 35 0 35 75 0 75 0 0
-35z m160 0 l0 -35 -75 0 -75 0 0 35 0 35 75 0 75 0 0 -35z m-880 -80 l0 -35
-75 0 -75 0 0 35 0 35 75 0 75 0 0 -35z m160 0 l0 -35 -75 0 -75 0 0 35 0 35
75 0 75 0 0 -35z m160 0 l0 -35 -75 0 -75 0 0 35 0 35 75 0 75 0 0 -35z m160
0 l0 -35 -75 0 -75 0 0 35 0 35 75 0 75 0 0 -35z m160 0 l0 -35 -75 0 -75 0 0
35 0 35 75 0 75 0 0 -35z m160 0 l0 -35 -75 0 -75 0 0 35 0 35 75 0 75 0 0
-35z m160 0 l0 -35 -75 0 -75 0 0 35 0 35 75 0 75 0 0 -35z m-1040 -80 l0 -35
-75 0 -75 0 0 35 0 35 75 0 75 0 0 -35z m160 0 l0 -35 -75 0 -75 0 0 35 0 35
75 0 75 0 0 -35z m160 0 l0 -35 -75 0 -75 0 0 35 0 35 75 0 75 0 0 -35z m160
0 l0 -35 -75 0 -75 0 0 35 0 35 75 0 75 0 0 -35z m160 0 l0 -35 -75 0 -75 0 0
35 0 35 75 0 75 0 0 -35z m160 0 l0 -35 -75 0 -75 0 0 35 0 35 75 0 75 0 0
-35z m160 0 l0 -35 -75 0 -75 0 0 35 0 35 75 0 75 0 0 -35z m-880 -80 l0 -35
-75 0 -75 0 0 35 0 35 75 0 75 0 0 -35z m160 0 l0 -35 -75 0 -75 0 0 35 0 35
75 0 75 0 0 -35z m160 0 l0 -35 -75 0 -75 0 0 35 0 35 75 0 75 0 0 -35z m160
0 l0 -35 -75 0 -75 0 0 35 0 35 75 0 75 0 0 -35z m160 0 l0 -35 -75 0 -75 0 0
35 0 35 75 0 75 0 0 -35z m160 0 l0 -35 -75 0 -75 0 0 35 0 35 75 0 75 0 0
-35z m160 0 l0 -35 -75 0 -75 0 0 35 0 35 75 0 75 0 0 -35z m-1040 -80 l0 -35
-75 0 -75 0 0 35 0 35 75 0 75 0 0 -35z m160 0 l0 -35 -75 0 -75 0 0 35 0 35
75 0 75 0 0 -35z m160 0 l0 -35 -75 0 -75 0 0 35 0 35 75 0 75 0 0 -35z m160
0 l0 -35 -75 0 -75 0 0 35 0 35 75 0 75 0 0 -35z m160 0 l0 -35 -75 0 -75 0 0
35 0 35 75 0 75 0 0 -35z m160 0 l0 -35 -75 0 -75 0 0 35 0 35 75 0 75 0 0
-35z m160 0 l0 -35 -75 0 -75 0 0 35 0 35 75 0 75 0 0 -35z m-880 -80 l0 -35
-75 0 -75 0 0 35 0 35 75 0 75 0 0 -35z m160 0 l0 -35 -75 0 -75 0 0 35 0 35
75 0 75 0 0 -35z m160 0 l0 -35 -75 0 -75 0 0 35 0 35 75 0 75 0 0 -35z m160
0 l0 -35 -75 0 -75 0 0 35 0 35 75 0 75 0 0 -35z m160 0 l0 -35 -75 0 -75 0 0
35 0 35 75 0 75 0 0 -35z m160 0 l0 -35 -75 0 -75 0 0 35 0 35 75 0 75 0 0
-35z m160 0 l0 -35 -75 0 -75 0 0 35 0 35 75 0 75 0 0 -35z m-1040 -80 l0 -35
-75 0 -75 0 0 35 0 35 75 0 75 0 0 -35z m160 0 l0 -35 -75 0 -75 0 0 35 0 35
75 0 75 0 0 -35z m160 0 l0 -35 -75 0 -75 0 0 35 0 35 75 0 75 0 0 -35z m160
0 l0 -35 -75 0 -75 0 0 35 0 35 75 0 75 0 0 -35z m160 0 l0 -35 -75 0 -75 0 0
35 0 35 75 0 75 0 0 -35z m160 0 l0 -35 -75 0 -75 0 0 35 0 35 75 0 75 0 0
-35z m160 0 l0 -35 -75 0 -75 0 0 35 0 35 75 0 75 0 0 -35z m-880 -80 l0 -35
-75 0 -75 0 0 35 0 35 75 0 75 0 0 -35z m160 0 l0 -35 -75 0 -75 0 0 35 0 35
75 0 75 0 0 -35z m160 0 l0 -35 -75 0 -75 0 0 35 0 35 75 0 75 0 0 -35z m160
0 l0 -35 -75 0 -75 0 0 35 0 35 75 0 75 0 0 -35z m160 0 l0 -35 -75 0 -75 0 0
35 0 35 75 0 75 0 0 -35z m160 0 l0 -35 -75 0 -75 0 0 35 0 35 75 0 75 0 0
-35z m160 0 l0 -35 -75 0 -75 0 0 35 0 35 75 0 75 0 0 -35z m-1040 -80 l0 -35
-75 0 -75 0 0 35 0 35 75 0 75 0 0 -35z m160 0 l0 -35 -75 0 -75 0 0 35 0 35
75 0 75 0 0 -35z m160 0 l0 -35 -75 0 -75 0 0 35 0 35 75 0 75 0 0 -35z m160
0 l0 -35 -75 0 -75 0 0 35 0 35 75 0 75 0 0 -35z m160 0 l0 -35 -75 0 -75 0 0
35 0 35 75 0 75 0 0 -35z m160 0 l0 -35 -75 0 -75 0 0 35 0 35 75 0 75 0 0
-35z m160 0 l0 -35 -75 0 -75 0 0 35 0 35 75 0 75 0 0 -35z"/>
</g>
</svg>
