<?xml version="1.0" standalone="no"?>
<!DOCTYPE svg PUBLIC "-//W3C//DTD SVG 20010904//EN"
 "http://www.w3.org/TR/2001/REC-SVG-20010904/DTD/svg10.dtd">
<svg version="1.0" xmlns="http://www.w3.org/2000/svg"
 width="160.000000pt" height="160.000000pt" viewBox="0 0 160.000000 160.000000"
 preserveAspectRatio="xMidYMid meet">

<g transform="translate(0.000000,160.000000) scale(0.100000,-0.100000)"
fill="#000000" stroke="none">
<path d="M100 1555 l0 -45 -50 0 -50 0 0 -55 0 -55 50 0 50 0 0 -45 0 -45 -50
0 -50 0 0 -55 0 -55 50 0 50 0 0 -45 0 -45 -50 0 -50 0 0 -55 0 -55 50 0 50 0
0 -45 0 -45 -50 0 -50 0 0 -55 0 -55 50 0 50 0 0 -45 0 -45 -50 0 -50 0 0 -55
0 -55 50 0 50 0 0 -45 0 -45 -50 0 -50 0 0 -55 0 -55 50 0 50 0 0 -45 0 -45
-50 0 -50 0 0 -55 0 -55 50 0 50 0 0 -45 0 -45 -50 0 -50 0 0 -55 0 -55 803 2
c441 1 760 4 710 5 l-93 4 0 44 0 45 93 2 c50 1 73 3 50 5 l-43 4 0 44 0 44
43 4 c23 2 0 4 -50 5 l-93 2 0 45 0 45 93 2 c50 1 73 3 50 5 l-43 4 0 44 0 44
43 4 c23 2 0 4 -50 5 l-93 2 0 45 0 45 93 2 c50 1 73 3 50 5 l-43 4 0 44 0 44
43 4 c23 2 0 4 -50 5 l-93 2 0 45 0 45 93 2 c50 1 73 3 50 5 l-43 4 0 44 0 44
43 4 c23 2 0 4 -50 5 l-93 2 0 45 0 45 93 2 c50 1 73 3 50 5 l-43 4 0 44 0 44
43 4 c23 2 0 4 -50 5 l-93 2 0 45 0 45 93 2 c50 1 73 3 50 5 l-43 4 0 44 0 44
42 4 c24 2 1 4 -49 5 l-93 2 0 45 0 45 93 2 c50 1 73 3 49 5 l-42 4 0 44 0 44
43 4 c23 2 0 4 -50 5 l-93 2 0 45 0 45 93 2 c50 1 73 3 50 5 l-43 4 0 45 c0
24 -4 44 -10 44 -5 0 -10 -20 -10 -45 l0 -45 -90 0 -90 0 0 45 c0 25 -4 45
-10 45 -5 0 -10 -20 -10 -45 l0 -45 -90 0 -90 0 0 45 c0 25 -4 45 -10 45 -5 0
-10 -20 -10 -45 l0 -45 -90 0 -90 0 0 45 c0 25 -4 45 -10 45 -5 0 -10 -20 -10
-45 l0 -45 -90 0 -90 0 0 45 c0 25 -4 45 -10 45 -5 0 -10 -20 -10 -45 l0 -45
-90 0 -90 0 0 45 c0 25 -4 45 -10 45 -5 0 -10 -20 -10 -45 l0 -45 -90 0 -90 0
0 45 c0 25 -4 45 -10 45 -5 0 -10 -20 -10 -45 l0 -45 -90 0 -90 0 0 45 c0 25
-4 45 -10 45 -5 0 -10 -20 -10 -45z m100 -100 l0 -45 -90 0 -90 0 0 45 0 45
90 0 90 0 0 -45z m200 0 l0 -45 -90 0 -90 0 0 45 0 45 90 0 90 0 0 -45z m200
0 l0 -45 -90 0 -90 0 0 45 0 45 90 0 90 0 0 -45z m200 0 l0 -45 -90 0 -90 0 0
45 0 45 90 0 90 0 0 -45z m200 0 l0 -45 -90 0 -90 0 0 45 0 45 90 0 90 0 0
-45z m200 0 l0 -45 -90 0 -90 0 0 45 0 45 90 0 90 0 0 -45z m200 0 l0 -45 -90
0 -90 0 0 45 0 45 90 0 90 0 0 -45z m-1100 -100 l0 -45 -90 0 -90 0 0 45 0 45
90 0 90 0 0 -45z m200 0 l0 -45 -90 0 -90 0 0 45 0 45 90 0 90 0 0 -45z m200
0 l0 -45 -90 0 -90 0 0 45 0 45 90 0 90 0 0 -45z m200 0 l0 -45 -90 0 -90 0 0
45 0 45 90 0 90 0 0 -45z m200 0 l0 -45 -90 0 -90 0 0 45 0 45 90 0 90 0 0
-45z m200 0 l0 -45 -90 0 -90 0 0 45 0 45 90 0 90 0 0 -45z m200 0 l0 -45 -90
0 -90 0 0 45 0 45 90 0 90 0 0 -45z m-1300 -100 l0 -45 -90 0 -90 0 0 45 0 45
90 0 90 0 0 -45z m200 0 l0 -45 -90 0 -90 0 0 45 0 45 90 0 90 0 0 -45z m200
0 l0 -45 -90 0 -90 0 0 45 0 45 90 0 90 0 0 -45z m200 0 l0 -45 -90 0 -90 0 0
45 0 45 90 0 90 0 0 -45z m200 0 l0 -45 -90 0 -90 0 0 45 0 45 90 0 90 0 0
-45z m200 0 l0 -45 -90 0 -90 0 0 45 0 45 90 0 90 0 0 -45z m200 0 l0 -45 -90
0 -90 0 0 45 0 45 90 0 90 0 0 -45z m-1100 -100 l0 -45 -90 0 -90 0 0 45 0 45
90 0 90 0 0 -45z m200 0 l0 -45 -90 0 -90 0 0 45 0 45 90 0 90 0 0 -45z m200
0 l0 -45 -90 0 -90 0 0 45 0 45 90 0 90 0 0 -45z m200 0 l0 -45 -90 0 -90 0 0
45 0 45 90 0 90 0 0 -45z m200 0 l0 -45 -90 0 -90 0 0 45 0 45 90 0 90 0 0
-45z m200 0 l0 -45 -90 0 -90 0 0 45 0 45 90 0 90 0 0 -45z m200 0 l0 -45 -90
0 -90 0 0 45 0 45 90 0 90 0 0 -45z m-1300 -100 l0 -45 -90 0 -90 0 0 45 0 45
90 0 90 0 0 -45z m200 0 l0 -45 -90 0 -90 0 0 45 0 45 90 0 90 0 0 -45z m200
0 l0 -45 -90 0 -90 0 0 45 0 45 90 0 90 0 0 -45z m200 0 l0 -45 -90 0 -90 0 0
45 0 45 90 0 90 0 0 -45z m200 0 l0 -45 -90 0 -90 0 0 45 0 45 90 0 90 0 0
-45z m200 0 l0 -45 -90 0 -90 0 0 45 0 45 90 0 90 0 0 -45z m200 0 l0 -45 -90
0 -90 0 0 45 0 45 90 0 90 0 0 -45z m-1100 -100 l0 -45 -90 0 -90 0 0 45 0 45
90 0 90 0 0 -45z m200 0 l0 -45 -90 0 -90 0 0 45 0 45 90 0 90 0 0 -45z m200
0 l0 -45 -90 0 -90 0 0 45 0 45 90 0 90 0 0 -45z m200 0 l0 -45 -90 0 -90 0 0
45 0 45 90 0 90 0 0 -45z m200 0 l0 -45 -90 0 -90 0 0 45 0 45 90 0 90 0 0
-45z m200 0 l0 -45 -90 0 -90 0 0 45 0 45 90 0 90 0 0 -45z m200 0 l0 -45 -90
0 -90 0 0 45 0 45 90 0 90 0 0 -45z m-1300 -100 l0 -45 -90 0 -90 0 0 45 0 45
90 0 90 0 0 -45z m200 0 l0 -45 -90 0 -90 0 0 45 0 45 90 0 90 0 0 -45z m200
0 l0 -45 -90 0 -90 0 0 45 0 45 90 0 90 0 0 -45z m200 0 l0 -45 -90 0 -90 0 0
45 0 45 90 0 90 0 0 -45z m200 0 l0 -45 -90 0 -90 0 0 45 0 45 90 0 90 0 0
-45z m200 0 l0 -45 -90 0 -90 0 0 45 0 45 90 0 90 0 0 -45z m200 0 l0 -45 -90
0 -90 0 0 45 0 45 90 0 90 0 0 -45z m-1100 -100 l0 -45 -90 0 -90 0 0 45 0 45
90 0 90 0 0 -45z m200 0 l0 -45 -90 0 -90 0 0 45 0 45 90 0 90 0 0 -45z m200
0 l0 -45 -90 0 -90 0 0 45 0 45 90 0 90 0 0 -45z m200 0 l0 -45 -90 0 -90 0 0
45 0 45 90 0 90 0 0 -45z m200 0 l0 -45 -90 0 -90 0 0 45 0 45 90 0 90 0 0
-45z m200 0 l0 -45 -90 0 -90 0 0 45 0 45 90 0 90 0 0 -45z m200 0 l0 -45 -90
0 -90 0 0 45 0 45 90 0 90 0 0 -45z m-1300 -100 l0 -45 -90 0 -90 0 0 45 0 45
90 0 90 0 0 -45z m200 0 l0 -45 -90 0 -90 0 0 45 0 45 90 0 90 0 0 -45z m200
0 l0 -45 -90 0 -90 0 0 45 0 45 90 0 90 0 0 -45z m200 0 l0 -45 -90 0 -90 0 0
45 0 45 90 0 90 0 0 -45z m200 0 l0 -45 -90 0 -90 0 0 45 0 45 90 0 90 0 0
-45z m200 0 l0 -45 -90 0 -90 0 0 45 0 45 90 0 90 0 0 -45z m200 0 l0 -45 -90
0 -90 0 0 45 0 45 90 0 90 0 0 -45z m-1100 -100 l0 -45 -90 0 -90 0 0 45 0 45
90 0 90 0 0 -45z m200 0 l0 -45 -90 0 -90 0 0 45 0 45 90 0 90 0 0 -45z m200
0 l0 -45 -90 0 -90 0 0 45 0 45 90 0 90 0 0 -45z m200 0 l0 -45 -90 0 -90 0 0
45 0 45 90 0 90 0 0 -45z m200 0 l0 -45 -90 0 -90 0 0 45 0 45 90 0 90 0 0
-45z m200 0 l0 -45 -90 0 -90 0 0 45 0 45 90 0 90 0 0 -45z m200 0 l0 -45 -90
0 -90 0 0 45 0 45 90 0 90 0 0 -45z m-1300 -100 l0 -45 -90 0 -90 0 0 45 0 45
90 0 90 0 0 -45z m200 0 l0 -45 -90 0 -90 0 0 45 0 45 90 0 90 0 0 -45z m200
0 l0 -45 -90 0 -90 0 0 45 0 45 90 0 90 0 0 -45z m200 0 l0 -45 -90 0 -90 0 0
45 0 45 90 0 90 0 0 -45z m200 0 l0 -45 -90 0 -90 0 0 45 0 45 90 0 90 0 0
-45z m200 0 l0 -45 -90 0 -90 0 0 45 0 45 90 0 90 0 0 -45z m200 0 l0 -45 -90
0 -90 0 0 45 0 45 90 0 90 0 0 -45z m-1100 -100 l0 -45 -90 0 -90 0 0 45 0 45
90 0 90 0 0 -45z m200 0 l0 -45 -90 0 -90 0 0 45 0 45 90 0 90 0 0 -45z m200
0 l0 -45 -90 0 -90 0 0 45 0 45 90 0 90 0 0 -45z m200 0 l0 -45 -90 0 -90 0 0
45 0 45 90 0 90 0 0 -45z m200 0 l0 -45 -90 0 -90 0 0 45 0 45 90 0 90 0 0
-45z m200 0 l0 -45 -90 0 -90 0 0 45 0 45 90 0 90 0 0 -45z m200 0 l0 -45 -90
0 -90 0 0 45 0 45 90 0 90 0 0 -45z m-1300 -100 l0 -45 -90 0 -90 0 0 45 0 45
90 0 90 0 0 -45z m200 0 l0 -45 -90 0 -90 0 0 45 0 45 90 0 90 0 0 -45z m200
0 l0 -45 -90 0 -90 0 0 45 0 45 90 0 90 0 0 -45z m200 0 l0 -45 -90 0 -90 0 0
45 0 45 90 0 90 0 0 -45z m200 0 l0 -45 -90 0 -90 0 0 45 0 45 90 0 90 0 0
-45z m200 0 l0 -45 -90 0 -90 0 0 45 0 45 90 0 90 0 0 -45z m200 0 l0 -45 -90
0 -90 0 0 45 0 45 90 0 90 0 0 -45z m-1100 -100 l0 -45 -90 0 -90 0 0 45 0 45
90 0 90 0 0 -45z m200 0 l0 -45 -90 0 -90 0 0 45 0 45 90 0 90 0 0 -45z m200
0 l0 -45 -90 0 -90 0 0 45 0 45 90 0 90 0 0 -45z m200 0 l0 -45 -90 0 -90 0 0
45 0 45 90 0 90 0 0 -45z m200 0 l0 -45 -90 0 -90 0 0 45 0 45 90 0 90 0 0
-45z m200 0 l0 -45 -90 0 -90 0 0 45 0 45 90 0 90 0 0 -45z m200 0 l0 -45 -90
0 -90 0 0 45 0 45 90 0 90 0 0 -45z m-1300 -100 l0 -45 -90 0 -90 0 0 45 0 45
90 0 90 0 0 -45z m200 0 l0 -45 -90 0 -90 0 0 45 0 45 90 0 90 0 0 -45z m200
0 l0 -45 -90 0 -90 0 0 45 0 45 90 0 90 0 0 -45z m200 0 l0 -45 -90 0 -90 0 0
45 0 45 90 0 90 0 0 -45z m200 0 l0 -45 -90 0 -90 0 0 45 0 45 90 0 90 0 0
-45z m200 0 l0 -45 -90 0 -90 0 0 45 0 45 90 0 90 0 0 -45z m200 0 l0 -45 -90
0 -90 0 0 45 0 45 90 0 90 0 0 -45z"/>
</g>
</svg>
