<?xml version="1.0" standalone="no"?>
<!DOCTYPE svg PUBLIC "-//W3C//DTD SVG 20010904//EN"
 "http://www.w3.org/TR/2001/REC-SVG-20010904/DTD/svg10.dtd">
<svg version="1.0" xmlns="http://www.w3.org/2000/svg"
 width="81.000000pt" height="95.000000pt" viewBox="0 0 81.000000 95.000000"
 preserveAspectRatio="xMidYMid meet">

<g transform="translate(0.000000,95.000000) scale(0.100000,-0.100000)"
fill="#000000" stroke="none">
<path d="M0 810 c0 -17 7 -20 50 -20 43 0 50 3 50 20 0 17 -7 20 -50 20 -43 0
-50 -3 -50 -20z"/>
<path d="M290 810 c0 -19 7 -20 105 -20 98 0 105 1 105 20 0 19 -7 20 -105 20
-98 0 -105 -1 -105 -20z"/>
<path d="M690 810 c0 -18 7 -20 60 -20 53 0 60 2 60 20 0 18 -7 20 -60 20 -53
0 -60 -2 -60 -20z"/>
<path d="M90 650 c0 -19 7 -20 105 -20 98 0 105 1 105 20 0 19 -7 20 -105 20
-98 0 -105 -1 -105 -20z"/>
<path d="M490 650 c0 -19 7 -20 105 -20 98 0 105 1 105 20 0 19 -7 20 -105 20
-98 0 -105 -1 -105 -20z"/>
<path d="M0 490 c0 -16 7 -20 30 -20 23 0 30 4 30 20 0 16 -7 20 -30 20 -23 0
-30 -4 -30 -20z"/>
<path d="M250 490 c0 -19 7 -20 105 -20 98 0 105 1 105 20 0 19 -7 20 -105 20
-98 0 -105 -1 -105 -20z"/>
<path d="M650 490 c0 -18 7 -20 80 -20 73 0 80 2 80 20 0 18 -7 20 -80 20 -73
0 -80 -2 -80 -20z"/>
<path d="M60 330 c0 -19 7 -20 105 -20 98 0 105 1 105 20 0 19 -7 20 -105 20
-98 0 -105 -1 -105 -20z"/>
<path d="M470 330 c0 -19 7 -20 105 -20 98 0 105 1 105 20 0 19 -7 20 -105 20
-98 0 -105 -1 -105 -20z"/>
<path d="M0 170 c0 -13 7 -20 20 -20 13 0 20 7 20 20 0 13 -7 20 -20 20 -13 0
-20 -7 -20 -20z"/>
<path d="M230 170 c0 -19 7 -20 105 -20 98 0 105 1 105 20 0 19 -7 20 -105 20
-98 0 -105 -1 -105 -20z"/>
<path d="M630 170 c0 -19 7 -20 90 -20 83 0 90 1 90 20 0 19 -7 20 -90 20 -83
0 -90 -1 -90 -20z"/>
<path d="M0 20 c0 -19 7 -20 90 -20 83 0 90 1 90 20 0 19 -7 20 -90 20 -83 0
-90 -1 -90 -20z"/>
<path d="M380 20 c0 -19 7 -20 105 -20 98 0 105 1 105 20 0 19 -7 20 -105 20
-98 0 -105 -1 -105 -20z"/>
<path d="M790 20 c0 -11 5 -20 10 -20 6 0 10 9 10 20 0 11 -4 20 -10 20 -5 0
-10 -9 -10 -20z"/>
</g>
</svg>
