<?xml version="1.0" standalone="no"?>
<!DOCTYPE svg PUBLIC "-//W3C//DTD SVG 20010904//EN"
 "http://www.w3.org/TR/2001/REC-SVG-20010904/DTD/svg10.dtd">
<svg version="1.0" xmlns="http://www.w3.org/2000/svg"
 width="64.000000pt" height="64.000000pt" viewBox="0 0 64.000000 64.000000"
 preserveAspectRatio="xMidYMid meet">

<g transform="translate(0.000000,64.000000) scale(0.100000,-0.100000)"
fill="#000000" stroke="none">
<path d="M325 620 c-8 -12 20 -24 35 -15 6 3 8 11 5 16 -8 12 -32 12 -40 -1z
m32 -6 c-3 -3 -12 -4 -19 -1 -8 3 -5 6 6 6 11 1 17 -2 13 -5z"/>
<path d="M181 598 c1 -13 4 -34 8 -48 10 -35 22 -10 15 29 -8 38 -24 52 -23
19z"/>
<path d="M527 592 c-23 -25 -21 -75 3 -97 19 -17 21 -17 40 0 25 23 26 76 2
98 -23 21 -25 21 -45 -1z m41 -4 c32 -32 1 -116 -33 -88 -26 22 -14 100 15
100 3 0 11 -5 18 -12z"/>
<path d="M355 523 c-27 -14 -45 -28 -38 -30 15 -5 93 34 93 47 0 12 4 14 -55
-17z"/>
<path d="M35 520 c-4 -7 -3 -16 3 -22 14 -14 57 -6 57 12 0 18 -50 26 -60 10z
m55 -10 c0 -5 -11 -10 -25 -10 -14 0 -25 5 -25 10 0 6 11 10 25 10 14 0 25 -4
25 -10z"/>
<path d="M150 461 c-14 -28 -12 -64 5 -87 15 -19 15 -19 30 0 24 31 13 106
-15 106 -5 0 -14 -9 -20 -19z m36 -16 c7 -30 -2 -75 -16 -75 -14 0 -23 45 -16
75 4 14 11 25 16 25 5 0 12 -11 16 -25z"/>
<path d="M297 353 c-8 -21 -12 -42 -9 -48 3 -5 8 -2 10 5 3 8 11 30 18 48 7
17 9 32 5 32 -5 0 -16 -17 -24 -37z"/>
<path d="M450 362 c0 -4 20 -15 45 -24 56 -21 60 -6 5 16 -46 18 -50 19 -50 8z"/>
<path d="M93 269 c-18 -12 -33 -25 -33 -30 0 -5 18 3 40 17 22 15 40 28 40 30
0 9 -17 2 -47 -17z"/>
<path d="M366 247 c-43 -32 15 -81 71 -61 54 19 33 74 -27 74 -14 0 -34 -6
-44 -13z m78 -3 c25 -10 19 -43 -9 -50 -38 -9 -75 3 -75 25 0 27 45 40 84 25z"/>
<path d="M96 158 c-9 -12 -16 -32 -16 -43 0 -29 28 -65 50 -65 22 0 50 36 50
65 0 29 -28 65 -50 65 -10 0 -26 -10 -34 -22z m66 -13 c17 -38 0 -80 -32 -80
-18 0 -27 8 -34 27 -13 36 6 78 34 78 12 0 25 -10 32 -25z"/>
<path d="M612 163 c-7 -12 -12 -29 -12 -37 0 -9 -4 -16 -9 -16 -12 0 -22 -28
-12 -35 11 -6 54 82 48 98 -2 7 -9 2 -15 -10z"/>
<path d="M280 125 c0 -12 35 -75 42 -75 11 0 10 4 -9 45 -14 29 -33 47 -33 30z"/>
<path d="M20 44 c0 -17 28 -49 36 -41 4 4 -2 17 -14 30 -12 12 -22 17 -22 11z"/>
</g>
</svg>
