<?xml version="1.0" standalone="no"?>
<!DOCTYPE svg PUBLIC "-//W3C//DTD SVG 20010904//EN"
 "http://www.w3.org/TR/2001/REC-SVG-20010904/DTD/svg10.dtd">
<svg version="1.0" xmlns="http://www.w3.org/2000/svg"
 width="64.000000pt" height="64.000000pt" viewBox="0 0 64.000000 64.000000"
 preserveAspectRatio="xMidYMid meet">

<g transform="translate(0.000000,64.000000) scale(0.100000,-0.100000)"
fill="#000000" stroke="none">
<path d="M527 592 c-23 -25 -21 -75 3 -97 19 -17 21 -17 40 0 25 23 26 76 2
98 -23 21 -25 21 -45 -1z m41 -4 c32 -32 1 -116 -33 -88 -26 22 -14 100 15
100 3 0 11 -5 18 -12z"/>
<path d="M160 586 c0 -43 14 -76 31 -76 24 0 24 17 -1 58 -21 35 -30 40 -30
18z"/>
<path d="M407 554 c-26 -14 -45 -29 -42 -34 6 -10 95 37 95 51 0 11 3 12 -53
-17z"/>
<path d="M35 550 c-4 -7 -3 -16 3 -22 14 -14 57 -6 57 12 0 18 -50 26 -60 10z
m55 -10 c0 -5 -11 -10 -25 -10 -14 0 -25 5 -25 10 0 6 11 10 25 10 14 0 25 -4
25 -10z"/>
<path d="M150 461 c-14 -28 -12 -64 5 -87 15 -19 15 -19 30 0 24 31 13 106
-15 106 -5 0 -14 -9 -20 -19z m36 -16 c7 -30 -2 -75 -16 -75 -14 0 -23 45 -16
75 4 14 11 25 16 25 5 0 12 -11 16 -25z"/>
<path d="M520 430 c0 -5 5 -10 10 -10 6 0 10 5 10 10 0 6 -4 10 -10 10 -5 0
-10 -4 -10 -10z"/>
<path d="M296 378 c-6 -26 -9 -58 -7 -73 0 -5 10 8 22 29 20 37 20 66 0 66 -6
0 -13 -10 -15 -22z"/>
<path d="M455 369 c-9 -13 -9 -12 43 -32 50 -20 56 -5 10 23 -38 23 -44 24
-53 9z"/>
<path d="M50 360 c0 -5 5 -10 10 -10 6 0 10 5 10 10 0 6 -4 10 -10 10 -5 0
-10 -4 -10 -10z"/>
<path d="M105 286 c-58 -32 -60 -34 -47 -48 10 -10 18 -6 44 20 34 34 35 45 3
28z"/>
<path d="M366 247 c-43 -32 15 -81 71 -61 54 19 33 74 -27 74 -14 0 -34 -6
-44 -13z m78 -3 c25 -10 19 -43 -9 -50 -38 -9 -75 3 -75 25 0 27 45 40 84 25z"/>
<path d="M570 210 c0 -5 5 -10 10 -10 6 0 10 5 10 10 0 6 -4 10 -10 10 -5 0
-10 -4 -10 -10z"/>
<path d="M256 183 c11 -45 25 -66 35 -56 7 7 4 23 -7 47 -21 42 -37 48 -28 9z"/>
<path d="M96 158 c-9 -12 -16 -32 -16 -43 0 -29 28 -65 50 -65 22 0 50 36 50
65 0 29 -28 65 -50 65 -10 0 -26 -10 -34 -22z m66 -13 c17 -38 0 -80 -32 -80
-18 0 -27 8 -34 27 -13 36 6 78 34 78 12 0 25 -10 32 -25z"/>
<path d="M614 172 c-16 -11 -45 -90 -35 -97 5 -3 19 15 31 40 22 45 24 70 4
57z"/>
<path d="M430 64 c-12 -31 -12 -34 -2 -34 8 0 32 43 32 55 0 16 -22 1 -30 -21z"/>
<path d="M20 47 c0 -18 27 -53 35 -46 10 11 -6 59 -21 59 -8 0 -14 -6 -14 -13z"/>
</g>
</svg>
