<?xml version="1.0" standalone="no"?>
<!DOCTYPE svg PUBLIC "-//W3C//DTD SVG 20010904//EN"
 "http://www.w3.org/TR/2001/REC-SVG-20010904/DTD/svg10.dtd">
<svg version="1.0" xmlns="http://www.w3.org/2000/svg"
 width="48.000000pt" height="48.000000pt" viewBox="0 0 48.000000 48.000000"
 preserveAspectRatio="xMidYMid meet">

<g transform="translate(0.000000,48.000000) scale(0.100000,-0.100000)"
fill="#000000" stroke="none">
<path d="M0 475 c0 -5 10 -19 22 -32 l21 -23 -23 -25 c-13 -14 -19 -25 -13
-25 5 0 18 9 28 20 l18 20 22 -20 c30 -28 43 -25 16 4 l-23 25 22 30 c12 17
17 31 11 31 -6 0 -18 -11 -27 -25 l-17 -26 -28 27 c-16 15 -29 24 -29 19z"/>
<path d="M160 475 c0 -5 10 -19 22 -32 l21 -23 -23 -25 c-13 -14 -19 -25 -13
-25 5 0 18 9 28 20 l18 20 22 -20 c31 -29 43 -25 15 5 l-23 25 23 25 c13 14
21 27 18 30 -2 3 -15 -6 -28 -20 l-24 -25 -28 27 c-15 15 -28 23 -28 18z"/>
<path d="M320 475 c0 -5 10 -19 22 -32 l21 -23 -23 -25 c-13 -14 -19 -25 -13
-25 5 0 18 9 28 20 l18 20 22 -20 c31 -29 43 -25 15 5 l-23 25 23 25 c13 14
21 27 18 30 -2 3 -15 -6 -28 -20 l-24 -25 -28 27 c-15 15 -28 23 -28 18z"/>
<path d="M0 315 c0 -5 10 -19 22 -32 l21 -23 -23 -25 c-13 -14 -19 -25 -13
-25 5 0 18 9 28 20 l18 20 22 -20 c31 -29 43 -25 15 5 l-23 25 23 25 c13 14
21 27 18 30 -2 3 -15 -6 -28 -20 l-24 -25 -28 27 c-15 15 -28 23 -28 18z"/>
<path d="M160 315 c0 -5 10 -19 22 -32 l21 -23 -23 -25 c-13 -14 -19 -25 -13
-25 5 0 18 9 28 20 l18 20 22 -20 c31 -29 43 -25 15 5 l-23 25 23 25 c13 14
21 27 18 30 -2 3 -15 -6 -28 -20 l-24 -25 -28 27 c-15 15 -28 23 -28 18z"/>
<path d="M320 315 c0 -5 10 -19 22 -32 l21 -23 -23 -25 c-13 -14 -19 -25 -13
-25 5 0 18 9 28 20 l18 20 22 -20 c31 -29 43 -25 15 5 l-23 25 23 25 c13 14
21 27 18 30 -2 3 -15 -6 -28 -20 l-24 -25 -28 27 c-15 15 -28 23 -28 18z"/>
<path d="M0 155 c0 -5 10 -19 22 -32 l21 -23 -23 -25 c-13 -14 -19 -25 -13
-25 5 0 18 9 28 20 l18 20 22 -20 c31 -29 43 -25 15 5 l-23 25 23 25 c13 14
21 27 18 30 -2 3 -15 -6 -28 -20 l-24 -25 -28 27 c-15 15 -28 23 -28 18z"/>
<path d="M160 155 c0 -5 10 -19 22 -32 l21 -23 -23 -25 c-13 -14 -19 -25 -13
-25 5 0 18 9 28 20 l18 20 22 -20 c31 -29 43 -25 15 5 l-23 25 23 25 c13 14
21 27 18 30 -2 3 -15 -6 -28 -20 l-24 -25 -28 27 c-15 15 -28 23 -28 18z"/>
<path d="M320 155 c0 -5 10 -19 22 -32 l21 -23 -23 -25 c-13 -14 -19 -25 -13
-25 5 0 18 9 28 20 l18 20 22 -20 c31 -29 43 -25 15 5 l-23 25 23 25 c13 14
21 27 18 30 -2 3 -15 -6 -28 -20 l-24 -25 -28 27 c-15 15 -28 23 -28 18z"/>
</g>
</svg>
