<?xml version="1.0" standalone="no"?>
<!DOCTYPE svg PUBLIC "-//W3C//DTD SVG 20010904//EN"
 "http://www.w3.org/TR/2001/REC-SVG-20010904/DTD/svg10.dtd">
<svg version="1.0" xmlns="http://www.w3.org/2000/svg"
 width="48.000000pt" height="48.000000pt" viewBox="0 0 48.000000 48.000000"
 preserveAspectRatio="xMidYMid meet">

<g transform="translate(0.000000,48.000000) scale(0.100000,-0.100000)"
fill="#000000" stroke="none">
<path d="M10 455 c0 -5 7 -16 15 -25 14 -15 14 -18 0 -30 -8 -7 -15 -17 -15
-23 0 -5 9 -2 20 8 19 17 21 17 40 0 23 -21 27 -9 5 15 -14 15 -14 18 0 30 8
7 15 17 15 23 0 5 -9 2 -20 -8 -19 -17 -21 -17 -40 0 -11 10 -20 14 -20 10z"/>
<path d="M250 455 c0 -5 7 -16 15 -25 14 -15 14 -18 0 -30 -8 -7 -15 -17 -15
-23 0 -5 9 -2 20 8 19 17 21 17 40 0 23 -21 27 -9 5 15 -14 15 -14 18 0 30 8
7 15 17 15 23 0 5 -9 2 -20 -8 -19 -17 -21 -17 -40 0 -11 10 -20 14 -20 10z"/>
<path d="M130 335 c0 -5 7 -17 17 -27 15 -17 15 -19 -2 -38 -10 -11 -13 -20
-8 -20 6 0 16 7 23 15 12 14 15 14 30 0 24 -22 36 -18 15 5 -17 19 -17 21 0
40 10 11 16 22 13 25 -3 3 -13 -4 -23 -15 l-18 -20 -24 22 c-13 12 -23 18 -23
13z"/>
<path d="M370 335 c0 -5 7 -17 17 -27 15 -17 15 -19 -2 -38 -10 -11 -13 -20
-8 -20 6 0 16 7 23 15 12 14 15 14 30 0 24 -22 36 -18 15 5 -17 19 -17 21 0
40 10 11 16 22 13 25 -3 3 -13 -4 -23 -15 l-18 -20 -24 22 c-13 12 -23 18 -23
13z"/>
<path d="M10 215 c0 -5 7 -16 15 -25 14 -15 14 -18 0 -30 -8 -7 -15 -17 -15
-23 0 -5 9 -2 20 8 19 17 21 17 40 0 23 -21 27 -9 5 15 -14 15 -14 18 0 30 8
7 15 17 15 23 0 5 -9 2 -20 -8 -19 -17 -21 -17 -40 0 -11 10 -20 14 -20 10z"/>
<path d="M250 215 c0 -5 7 -16 15 -25 14 -15 14 -18 0 -30 -8 -7 -15 -17 -15
-23 0 -5 9 -2 20 8 19 17 21 17 40 0 23 -21 27 -9 5 15 -14 15 -14 18 0 30 8
7 15 17 15 23 0 5 -9 2 -20 -8 -19 -17 -21 -17 -40 0 -11 10 -20 14 -20 10z"/>
<path d="M130 95 c0 -5 7 -17 17 -27 15 -17 15 -19 -2 -38 -10 -11 -13 -20 -8
-20 6 0 16 7 23 15 12 14 15 14 30 0 24 -22 36 -18 15 5 -17 19 -17 21 0 40
10 11 16 22 13 25 -3 3 -13 -4 -23 -15 l-18 -20 -24 22 c-13 12 -23 18 -23 13z"/>
<path d="M370 95 c0 -5 7 -17 17 -27 15 -17 15 -19 -2 -38 -10 -11 -13 -20 -8
-20 6 0 16 7 23 15 12 14 15 14 30 0 24 -22 36 -18 15 5 -17 19 -17 21 0 40
10 11 16 22 13 25 -3 3 -13 -4 -23 -15 l-18 -20 -24 22 c-13 12 -23 18 -23 13z"/>
</g>
</svg>
