<?xml version="1.0" standalone="no"?>
<!DOCTYPE svg PUBLIC "-//W3C//DTD SVG 20010904//EN"
 "http://www.w3.org/TR/2001/REC-SVG-20010904/DTD/svg10.dtd">
<svg version="1.0" xmlns="http://www.w3.org/2000/svg"
 width="26.000000pt" height="26.000000pt" viewBox="0 0 26.000000 26.000000"
 preserveAspectRatio="xMidYMid meet">

<g transform="translate(0.000000,26.000000) scale(0.100000,-0.100000)"
fill="#000000" stroke="none">
<path d="M50 235 c0 -20 -5 -25 -25 -25 -14 0 -25 -4 -25 -10 0 -5 11 -10 25
-10 20 0 25 -5 25 -25 0 -14 5 -25 10 -25 6 0 10 11 10 25 0 20 5 25 25 25 14
0 25 5 25 10 0 6 -11 10 -25 10 -20 0 -25 5 -25 25 0 14 -4 25 -10 25 -5 0
-10 -11 -10 -25z"/>
</g>
</svg>
