<?xml version="1.0" standalone="no"?>
<!DOCTYPE svg PUBLIC "-//W3C//DTD SVG 20010904//EN"
 "http://www.w3.org/TR/2001/REC-SVG-20010904/DTD/svg10.dtd">
<svg version="1.0" xmlns="http://www.w3.org/2000/svg"
 width="30.000000pt" height="24.000000pt" viewBox="0 0 30.000000 24.000000"
 preserveAspectRatio="xMidYMid meet">

<g transform="translate(0.000000,24.000000) scale(0.100000,-0.100000)"
fill="#000000" stroke="none">
<path d="M92 218 c-50 -20 -53 -20 -72 -3 -11 10 -20 13 -20 8 0 -6 7 -17 16
-24 13 -11 26 -9 81 10 61 22 65 22 84 6 20 -19 27 -7 7 13 -16 16 -34 14 -96
-10z"/>
<path d="M21 101 c13 -11 26 -18 28 -15 7 7 -21 34 -36 34 -10 0 -8 -6 8 -19z"/>
<path d="M242 98 c-50 -20 -53 -20 -72 -3 -11 10 -20 13 -20 8 0 -6 7 -16 16
-24 13 -10 25 -9 70 6 30 10 57 22 60 27 6 10 9 11 -54 -14z"/>
</g>
</svg>
