<?xml version="1.0" standalone="no"?>
<!DOCTYPE svg PUBLIC "-//W3C//DTD SVG 20010904//EN"
 "http://www.w3.org/TR/2001/REC-SVG-20010904/DTD/svg10.dtd">
<svg version="1.0" xmlns="http://www.w3.org/2000/svg"
 width="128.000000pt" height="128.000000pt" viewBox="0 0 128.000000 128.000000"
 preserveAspectRatio="xMidYMid meet">

<g transform="translate(0.000000,128.000000) scale(0.100000,-0.100000)"
fill="#000000" stroke="none">
<path d="M20 1259 c-22 -18 -22 -19 -3 -10 12 6 25 16 28 21 9 15 3 12 -25
-11z"/>
<path d="M75 1265 c-6 -7 -25 -32 -43 -54 -19 -23 -32 -41 -29 -41 7 0 89 101
85 105 -2 2 -8 -2 -13 -10z"/>
<path d="M135 1193 c-104 -116 -140 -159 -95 -113 72 74 179 194 176 197 -2 2
-38 -36 -81 -84z"/>
<path d="M268 1223 c-33 -32 -101 -103 -151 -158 -62 -69 -49 -57 42 37 72 75
144 146 159 157 15 11 23 21 19 21 -5 0 -36 -26 -69 -57z"/>
<path d="M415 1260 c-10 -11 -14 -20 -9 -20 5 0 15 9 22 20 7 11 11 20 9 20
-2 0 -12 -9 -22 -20z"/>
<path d="M490 1198 c-131 -143 -175 -196 -86 -103 87 91 171 185 164 185 -1 0
-37 -37 -78 -82z"/>
<path d="M594 1243 c-15 -20 -23 -33 -16 -29 13 8 56 66 49 66 -3 0 -17 -17
-33 -37z"/>
<path d="M659 1226 c-35 -29 -84 -75 -109 -102 -28 -30 -17 -22 30 21 41 39
93 85 115 102 22 18 38 32 34 33 -3 0 -34 -24 -70 -54z"/>
<path d="M718 1219 c-43 -33 -78 -62 -78 -65 0 -3 36 23 80 57 71 55 87 69 78
69 -2 0 -38 -27 -80 -61z"/>
<path d="M866 1252 l-19 -27 24 22 c12 12 21 24 18 27 -2 2 -13 -8 -23 -22z"/>
<path d="M890 1223 l-55 -58 58 55 c53 50 62 60 54 60 -1 0 -27 -26 -57 -57z"/>
<path d="M976 1252 l-19 -27 24 22 c12 12 21 24 18 27 -2 2 -13 -8 -23 -22z"/>
<path d="M1026 1222 c-49 -56 -49 -56 -7 -17 35 33 70 77 59 74 -2 0 -25 -26
-52 -57z"/>
<path d="M1090 1223 l-55 -58 58 55 c53 50 62 60 54 60 -1 0 -27 -26 -57 -57z"/>
<path d="M1214 1258 l-19 -23 23 19 c21 18 27 26 19 26 -2 0 -12 -10 -23 -22z"/>
<path d="M790 1212 c-14 -20 -45 -59 -70 -87 -31 -35 -34 -41 -11 -20 36 32
115 134 109 140 -2 2 -15 -13 -28 -33z"/>
<path d="M1232 1222 c-15 -16 -57 -60 -94 -99 -38 -39 -68 -74 -68 -77 0 -3
34 28 75 71 41 42 75 80 75 85 0 4 15 17 33 28 17 11 26 20 19 20 -8 0 -26
-13 -40 -28z"/>
<path d="M59 1168 c-35 -40 -56 -67 -46 -59 21 17 121 131 114 131 -2 0 -33
-33 -68 -72z"/>
<path d="M446 1212 c-26 -35 -138 -161 -255 -286 l-95 -101 100 101 c141 143
281 301 273 309 -2 1 -13 -9 -23 -23z"/>
<path d="M900 955 c-157 -157 -283 -285 -280 -285 3 0 133 128 290 285 157
157 283 285 280 285 -3 0 -133 -128 -290 -285z"/>
<path d="M349 1178 c-70 -83 -95 -117 -49 -68 50 55 103 120 97 120 -2 0 -24
-24 -48 -52z"/>
<path d="M909 1188 c-42 -31 -224 -215 -244 -248 -6 -9 -2 -7 8 5 77 85 217
221 248 242 35 23 46 33 36 33 -2 0 -24 -15 -48 -32z"/>
<path d="M136 1142 c-44 -50 -49 -57 -17 -27 37 35 88 96 79 95 -2 -1 -30 -31
-62 -68z"/>
<path d="M238 1133 c-44 -43 -89 -91 -101 -108 -11 -16 7 0 42 37 34 37 83 85
108 108 25 22 42 40 38 40 -4 0 -43 -35 -87 -77z"/>
<path d="M430 1063 c-106 -108 -114 -117 -35 -43 96 92 182 180 174 180 -3 0
-65 -62 -139 -137z"/>
<path d="M809 1173 l-24 -28 28 24 c25 23 32 31 24 31 -2 0 -14 -12 -28 -27z"/>
<path d="M1240 1149 c-35 -31 -35 -31 -3 -9 18 11 35 25 38 30 10 16 2 11 -35
-21z"/>
<path d="M610 1070 c-45 -49 -80 -90 -77 -90 3 0 42 41 87 90 45 50 80 90 77
90 -3 0 -42 -40 -87 -90z"/>
<path d="M884 1107 c-34 -28 -87 -81 -119 -117 l-58 -65 69 70 c38 39 94 91
124 117 30 26 53 48 50 48 -3 0 -32 -24 -66 -53z"/>
<path d="M983 1103 c-26 -32 -75 -87 -108 -123 -33 -36 -42 -49 -21 -30 39 36
190 210 182 210 -3 0 -26 -26 -53 -57z"/>
<path d="M539 1067 c-46 -46 -104 -108 -128 -138 -29 -35 -20 -28 25 21 38 41
98 103 134 137 36 34 62 63 59 63 -3 0 -44 -37 -90 -83z"/>
<path d="M746 1100 c-20 -22 -36 -45 -36 -50 0 -5 -17 -29 -37 -52 -35 -41
-36 -42 -4 -13 18 17 40 44 48 60 8 17 29 45 46 63 17 17 28 32 25 32 -3 0
-22 -18 -42 -40z"/>
<path d="M859 1017 c-53 -56 -120 -129 -149 -162 l-53 -60 57 60 c176 183 252
265 245 265 -2 0 -47 -46 -100 -103z"/>
<path d="M1093 1023 c-72 -71 -78 -77 -19 -24 125 116 131 121 125 121 -3 0
-51 -44 -106 -97z"/>
<path d="M1240 1076 c-57 -53 -224 -226 -219 -226 2 0 63 59 134 130 71 72
127 130 124 130 -2 0 -20 -15 -39 -34z"/>
<path d="M619 1008 c-60 -71 -89 -112 -44 -63 48 53 98 115 92 115 -2 0 -24
-23 -48 -52z"/>
<path d="M149 968 c-105 -116 -156 -178 -81 -99 77 81 165 181 160 181 -2 0
-38 -37 -79 -82z"/>
<path d="M19 1013 l-24 -28 28 24 c25 23 32 31 24 31 -2 0 -14 -12 -28 -27z"/>
<path d="M410 995 c-24 -25 -42 -45 -39 -45 3 0 25 20 49 45 24 25 42 45 39
45 -3 0 -25 -20 -49 -45z"/>
<path d="M865 858 l-180 -183 183 180 c169 167 187 185 179 185 -1 0 -83 -82
-182 -182z"/>
<path d="M1181 958 c-50 -46 -121 -117 -157 -158 -57 -65 -53 -62 27 21 52 52
125 123 163 157 38 34 67 62 64 62 -3 0 -47 -37 -97 -82z"/>
<path d="M1228 949 c-24 -28 -65 -76 -92 -107 l-49 -57 54 56 c65 68 143 159
136 159 -3 0 -25 -23 -49 -51z"/>
<path d="M40 939 l-45 -41 42 32 c38 28 60 50 51 50 -2 0 -23 -18 -48 -41z"/>
<path d="M934 816 c-87 -91 -152 -161 -144 -156 16 9 315 320 307 320 -2 0
-75 -74 -163 -164z"/>
<path d="M230 903 l-65 -68 68 65 c37 35 67 66 67 67 0 8 -10 -2 -70 -64z"/>
<path d="M448 913 c-14 -21 -46 -63 -73 -93 -42 -49 -40 -48 12 7 52 56 101
123 90 123 -2 0 -16 -17 -29 -37z"/>
<path d="M499 898 c-18 -24 -71 -83 -118 -133 l-86 -90 78 75 c70 67 176 190
163 190 -2 0 -19 -19 -37 -42z"/>
<path d="M290 853 l-55 -58 58 55 c31 30 57 56 57 57 0 8 -10 -1 -60 -54z"/>
<path d="M665 858 l-50 -53 53 50 c48 46 57 55 49 55 -1 0 -25 -24 -52 -52z"/>
<path d="M1166 796 c-104 -105 -101 -107 7 -6 41 38 116 122 105 119 -1 -1
-52 -51 -112 -113z"/>
<path d="M515 827 c-64 -65 -65 -67 -18 -28 42 34 106 105 91 100 -2 -1 -34
-33 -73 -72z"/>
<path d="M526 772 c-66 -70 -87 -95 -47 -57 66 64 178 185 169 185 -1 0 -57
-58 -122 -128z"/>
<path d="M875 808 l-90 -93 93 90 c85 83 97 95 89 95 -1 0 -43 -42 -92 -92z"/>
<path d="M125 743 c-72 -70 -94 -95 -50 -56 79 71 194 183 185 182 -3 0 -63
-57 -135 -126z"/>
<path d="M680 774 c-73 -61 -150 -130 -111 -98 14 11 51 39 81 62 49 36 111
93 99 91 -2 0 -33 -25 -69 -55z"/>
<path d="M64 788 l-29 -33 33 29 c30 28 37 36 29 36 -2 0 -16 -15 -33 -32z"/>
<path d="M152 669 c-83 -83 -140 -141 -125 -130 30 21 291 281 283 281 -3 0
-74 -68 -158 -151z"/>
<path d="M90 753 l-55 -58 58 55 c53 50 62 60 54 60 -1 0 -27 -26 -57 -57z"/>
<path d="M1225 754 c-27 -25 -72 -63 -100 -84 -62 -48 -123 -101 -84 -73 87
61 254 202 239 202 -3 0 -27 -20 -55 -45z"/>
<path d="M995 709 c-44 -44 -118 -113 -165 -154 -136 -117 -149 -130 -81 -78
61 46 342 312 331 313 -3 0 -41 -36 -85 -81z"/>
<path d="M14 728 l-19 -23 23 19 c12 11 22 21 22 23 0 8 -8 2 -26 -19z"/>
<path d="M413 603 c-132 -130 -98 -100 102 90 33 31 57 57 54 57 -4 0 -74 -66
-156 -147z"/>
<path d="M145 578 c-114 -116 -124 -127 -40 -47 104 98 202 199 194 199 -2 0
-71 -69 -154 -152z"/>
<path d="M790 604 c-140 -121 -202 -179 -155 -143 58 44 312 269 304 269 -2 0
-70 -57 -149 -126z"/>
<path d="M254 602 c-72 -64 -159 -148 -194 -187 l-62 -70 68 71 c38 38 119
114 179 168 131 117 151 136 145 136 -3 0 -64 -53 -136 -118z"/>
<path d="M1159 603 c-63 -65 -137 -143 -164 -174 -28 -30 -87 -86 -132 -123
-46 -37 -83 -70 -83 -73 0 -12 181 146 229 200 30 34 104 113 165 175 61 61
108 112 105 112 -3 0 -57 -53 -120 -117z"/>
<path d="M680 608 l-75 -70 73 62 c64 55 90 81 80 80 -2 -1 -37 -33 -78 -72z"/>
<path d="M1070 574 c-58 -52 -132 -122 -164 -156 -33 -33 -77 -71 -97 -85 -20
-13 -51 -43 -68 -66 l-32 -42 36 39 c19 22 47 48 62 57 14 9 82 71 152 137 69
65 149 140 176 165 28 26 48 46 45 46 -3 0 -52 -43 -110 -95z"/>
<path d="M985 623 c-128 -117 -185 -173 -150 -145 48 38 202 181 195 181 -3 0
-23 -16 -45 -36z"/>
<path d="M490 553 c-47 -48 -68 -74 -48 -58 33 26 145 145 136 145 -2 0 -41
-39 -88 -87z"/>
<path d="M578 554 c-49 -47 -107 -93 -130 -103 -24 -10 -56 -34 -73 -52 l-30
-34 35 32 c19 17 52 38 73 47 30 12 234 195 217 195 -3 0 -44 -38 -92 -85z"/>
<path d="M1125 491 c-83 -76 -179 -170 -215 -207 -36 -38 -6 -12 65 57 72 69
171 162 220 207 50 45 88 82 85 82 -3 0 -73 -62 -155 -139z"/>
<path d="M285 554 c-38 -36 -118 -106 -177 -156 -60 -50 -108 -93 -108 -96 0
-3 8 2 18 10 9 8 57 49 107 91 99 84 243 216 235 216 -3 0 -36 -29 -75 -65z"/>
<path d="M714 589 c-40 -45 -171 -147 -219 -172 -27 -14 -61 -37 -75 -52 -14
-15 -57 -52 -97 -81 -39 -30 -75 -59 -78 -64 -11 -17 147 105 175 135 14 15
48 38 75 52 64 33 268 203 243 203 -3 0 -13 -10 -24 -21z"/>
<path d="M407 539 c-32 -33 -47 -53 -33 -44 21 14 103 105 94 105 -2 0 -29
-28 -61 -61z"/>
<path d="M897 480 c-42 -38 -90 -76 -105 -84 -15 -8 -49 -38 -77 -68 l-50 -53
55 51 c30 27 73 62 95 76 38 25 175 148 165 148 -3 0 -40 -31 -83 -70z"/>
<path d="M1146 392 c-81 -85 -98 -107 -47 -57 74 72 188 196 179 195 -1 -1
-61 -63 -132 -138z"/>
<path d="M1115 428 l-80 -83 83 80 c45 44 82 81 82 82 0 8 -11 -3 -85 -79z"/>
<path d="M346 428 c-29 -37 -85 -87 -181 -163 -14 -11 -15 -14 -3 -8 50 24
249 213 224 213 -2 0 -20 -19 -40 -42z"/>
<path d="M698 381 c-46 -49 -119 -117 -163 -151 -44 -35 -111 -95 -150 -134
-42 -42 -55 -59 -32 -42 21 16 42 38 48 48 6 10 56 55 112 99 85 68 290 269
274 269 -3 0 -43 -40 -89 -89z"/>
<path d="M255 394 l-60 -56 63 52 c54 45 69 61 60 60 -2 0 -30 -26 -63 -56z"/>
<path d="M1099 278 c-95 -95 -149 -152 -119 -126 54 46 305 298 297 298 -2 0
-82 -78 -178 -172z"/>
<path d="M634 418 c-92 -67 -134 -100 -134 -104 0 -3 20 10 45 28 25 18 66 48
91 66 26 17 42 32 37 32 -5 0 -22 -10 -39 -22z"/>
<path d="M120 329 c-98 -83 -144 -127 -100 -93 37 27 200 167 200 171 0 7 -8
1 -100 -78z"/>
<path d="M429 309 c-74 -55 -145 -111 -159 -124 -14 -13 -41 -30 -60 -38 -19
-9 -46 -26 -60 -38 l-25 -21 25 16 c14 9 41 24 60 32 19 9 46 26 60 39 14 13
68 55 120 94 52 38 108 80 124 93 16 13 36 28 45 35 9 7 13 13 10 13 -3 0 -66
-45 -140 -101z"/>
<path d="M589 334 c-19 -14 -68 -43 -109 -64 -41 -21 -86 -50 -100 -65 -14
-15 -68 -59 -120 -97 -94 -70 -130 -100 -100 -82 35 19 197 144 220 169 14 15
63 47 110 71 47 25 99 56 115 69 40 33 28 32 -16 -1z"/>
<path d="M1244 329 c-16 -17 -73 -67 -126 -111 -54 -43 -98 -81 -98 -84 0 -8
192 151 229 190 19 20 33 36 30 36 -3 0 -18 -14 -35 -31z"/>
<path d="M185 213 c-68 -65 -136 -129 -152 -143 -16 -14 -20 -18 -8 -9 11 9
28 20 37 25 18 10 259 244 251 244 -3 0 -61 -53 -128 -117z"/>
<path d="M688 255 c-37 -35 -84 -83 -105 -107 -21 -24 11 4 70 62 59 58 107
106 107 107 0 6 -8 -1 -72 -62z"/>
<path d="M927 235 c-48 -47 -111 -100 -140 -119 -29 -18 -63 -46 -77 -62 -24
-28 -24 -28 10 2 19 18 54 43 77 58 37 23 235 205 223 205 -3 0 -45 -38 -93
-84z"/>
<path d="M1226 215 c-26 -30 -87 -87 -137 -127 -49 -39 -89 -75 -89 -80 0 -4
8 0 18 10 9 9 40 35 67 56 68 54 131 114 167 159 45 56 28 45 -26 -18z"/>
<path d="M438 197 c-62 -49 -201 -167 -223 -190 -28 -28 58 38 115 90 36 32
91 78 123 102 49 37 65 52 55 51 -2 0 -33 -24 -70 -53z"/>
<path d="M529 155 c-50 -46 -113 -99 -140 -116 -51 -34 -65 -48 -26 -28 46 24
280 229 262 229 -3 0 -46 -38 -96 -85z"/>
<path d="M920 174 c-80 -69 -109 -98 -55 -56 55 44 131 111 125 112 -3 0 -34
-25 -70 -56z"/>
<path d="M1238 176 c-18 -24 -45 -52 -60 -62 -15 -10 -45 -41 -68 -69 l-42
-50 43 45 c24 25 56 54 71 66 27 21 104 114 94 114 -3 0 -20 -20 -38 -44z"/>
<path d="M60 164 c-67 -56 -70 -59 -45 -46 21 11 114 92 105 92 -3 0 -30 -21
-60 -46z"/>
<path d="M714 106 c-54 -57 -92 -101 -84 -96 15 8 195 200 188 200 -2 0 -49
-47 -104 -104z"/>
<path d="M645 98 l-100 -103 103 100 c95 93 107 105 99 105 -1 0 -47 -46 -102
-102z"/>
<path d="M1030 93 l-95 -98 98 95 c53 52 97 96 97 97 0 8 -12 -4 -100 -94z"/>
<path d="M615 122 c-17 -15 -50 -44 -75 -66 -25 -21 -31 -29 -15 -18 34 23
133 111 125 111 -3 0 -19 -12 -35 -27z"/>
<path d="M1240 87 c-19 -18 -51 -45 -70 -60 -19 -16 -26 -24 -15 -19 21 11
134 111 125 111 -3 0 -21 -14 -40 -32z"/>
<path d="M845 54 l-60 -56 63 53 c55 46 68 59 60 59 -2 0 -30 -25 -63 -56z"/>
<path d="M940 61 c-30 -27 -53 -51 -50 -52 3 -2 30 20 60 48 69 66 63 69 -10
4z"/>
<path d="M469 33 l-34 -38 38 34 c20 19 37 36 37 38 0 8 -8 0 -41 -34z"/>
<path d="M739 33 l-34 -38 38 34 c20 19 37 36 37 38 0 8 -8 0 -41 -34z"/>
<path d="M70 29 c-35 -31 -35 -31 -3 -9 18 11 35 25 38 30 10 16 2 11 -35 -21z"/>
<path d="M1244 18 l-19 -23 25 20 c14 11 27 21 29 22 2 2 0 3 -6 3 -5 0 -18
-10 -29 -22z"/>
</g>
</svg>
