<?xml version="1.0" standalone="no"?>
<!DOCTYPE svg PUBLIC "-//W3C//DTD SVG 20010904//EN"
 "http://www.w3.org/TR/2001/REC-SVG-20010904/DTD/svg10.dtd">
<svg version="1.0" xmlns="http://www.w3.org/2000/svg"
 width="72.000000pt" height="72.000000pt" viewBox="0 0 72.000000 72.000000"
 preserveAspectRatio="xMidYMid meet">

<g transform="translate(0.000000,72.000000) scale(0.100000,-0.100000)"
fill="#000000" stroke="none">
<path d="M44 712 c-17 -12 -44 -56 -44 -72 0 -8 10 2 22 22 28 49 45 53 107
28 28 -11 74 -29 103 -41 28 -11 61 -18 72 -15 22 5 56 54 56 78 0 7 -10 -4
-22 -24 -34 -58 -41 -58 -193 6 -63 27 -83 30 -101 18z"/>
<path d="M404 352 c-17 -12 -44 -56 -44 -72 0 -8 10 2 22 22 28 49 45 53 107
28 28 -11 74 -29 103 -41 28 -11 61 -18 72 -15 22 5 56 54 56 78 0 7 -10 -4
-22 -24 -34 -58 -41 -58 -193 6 -63 27 -83 30 -101 18z"/>
</g>
</svg>
