<?xml version="1.0" standalone="no"?>
<!DOCTYPE svg PUBLIC "-//W3C//DTD SVG 20010904//EN"
 "http://www.w3.org/TR/2001/REC-SVG-20010904/DTD/svg10.dtd">
<svg version="1.0" xmlns="http://www.w3.org/2000/svg"
 width="48.000000pt" height="48.000000pt" viewBox="0 0 48.000000 48.000000"
 preserveAspectRatio="xMidYMid meet">

<g transform="translate(0.000000,48.000000) scale(0.100000,-0.100000)"
fill="#000000" stroke="none">
<path d="M2 468 c3 -7 20 -55 38 -105 18 -51 36 -93 40 -93 4 0 22 42 40 93
18 50 35 98 38 105 2 6 -1 12 -6 12 -6 0 -23 -38 -38 -85 -16 -47 -31 -85 -34
-85 -3 0 -18 38 -34 85 -15 47 -32 85 -38 85 -5 0 -8 -6 -6 -12z"/>
<path d="M242 228 c3 -7 20 -55 38 -106 18 -50 36 -92 40 -92 4 0 22 42 40 93
18 50 35 98 38 105 2 6 -1 12 -6 12 -6 0 -23 -38 -38 -85 -16 -47 -31 -85 -34
-85 -3 0 -18 38 -34 85 -15 47 -32 85 -38 85 -5 0 -8 -6 -6 -12z"/>
</g>
</svg>
