<?xml version="1.0" standalone="no"?>
<!DOCTYPE svg PUBLIC "-//W3C//DTD SVG 20010904//EN"
 "http://www.w3.org/TR/2001/REC-SVG-20010904/DTD/svg10.dtd">
<svg version="1.0" xmlns="http://www.w3.org/2000/svg"
 width="64.000000pt" height="64.000000pt" viewBox="0 0 64.000000 64.000000"
 preserveAspectRatio="xMidYMid meet">

<g transform="translate(0.000000,64.000000) scale(0.100000,-0.100000)"
fill="#000000" stroke="none">
<path d="M390 599 c12 -23 23 -39 25 -37 2 2 15 21 30 43 l25 40 -29 -34 -29
-33 -16 31 c-9 17 -19 31 -21 31 -3 0 4 -18 15 -41z"/>
<path d="M238 573 c17 -9 32 -19 32 -23 0 -4 -15 -14 -32 -23 -18 -8 -28 -16
-23 -16 6 -1 26 9 45 20 l34 21 -34 19 c-19 10 -39 18 -45 18 -5 0 5 -8 23
-16z"/>
<path d="M20 565 c-14 -8 -21 -14 -15 -14 6 0 21 6 35 14 14 8 21 14 15 14 -5
0 -21 -6 -35 -14z"/>
<path d="M625 550 c3 -5 8 -10 11 -10 2 0 4 5 4 10 0 6 -5 10 -11 10 -5 0 -7
-4 -4 -10z"/>
<path d="M20 515 c14 -8 30 -14 35 -14 6 0 -1 6 -15 14 -14 8 -29 14 -35 14
-6 0 1 -6 15 -14z"/>
<path d="M440 439 c29 -57 28 -56 40 -28 5 13 17 35 27 49 21 31 4 15 -24 -22
l-21 -28 -12 30 c-7 17 -17 33 -22 36 -5 3 0 -14 12 -37z"/>
<path d="M55 411 c11 -5 28 -12 38 -15 17 -6 17 -8 -3 -38 l-22 -33 31 35 c35
40 38 49 14 48 -10 -1 -31 1 -48 5 -22 5 -25 4 -10 -2z"/>
<path d="M265 350 c20 -39 21 -39 -25 -46 -23 -4 -39 -9 -36 -11 2 -3 25 -1
50 2 l45 7 -20 39 c-10 21 -22 39 -24 39 -3 0 1 -13 10 -30z"/>
<path d="M530 311 l-24 -7 34 -35 c19 -19 24 -22 11 -7 -28 32 -25 37 21 48
26 6 28 8 8 8 -14 0 -36 -3 -50 -7z"/>
<path d="M101 215 l-20 -35 42 2 c37 1 38 2 10 5 l-33 4 15 30 c21 41 11 36
-14 -6z"/>
<path d="M357 193 c-38 -27 -38 -27 -15 -39 13 -6 34 -14 48 -18 14 -3 7 2
-14 12 l-39 18 34 27 c44 35 35 35 -14 0z"/>
<path d="M180 96 c0 -2 17 -14 37 -26 l37 -22 -32 -20 c-41 -26 -42 -35 -1
-11 50 29 50 36 3 61 -24 12 -44 20 -44 18z"/>
<path d="M5 55 c0 -23 1 -24 13 -8 6 9 12 20 12 25 0 4 -6 8 -12 8 -7 0 -13
-11 -13 -25z"/>
<path d="M588 73 c12 -2 30 -2 40 0 9 3 -1 5 -23 4 -22 0 -30 -2 -17 -4z"/>
<path d="M614 18 l-19 -23 23 19 c21 18 27 26 19 26 -2 0 -12 -10 -23 -22z"/>
</g>
</svg>
