<?xml version="1.0" standalone="no"?>
<!DOCTYPE svg PUBLIC "-//W3C//DTD SVG 20010904//EN"
 "http://www.w3.org/TR/2001/REC-SVG-20010904/DTD/svg10.dtd">
<svg version="1.0" xmlns="http://www.w3.org/2000/svg"
 width="40.000000pt" height="40.000000pt" viewBox="0 0 40.000000 40.000000"
 preserveAspectRatio="xMidYMid meet">

<g transform="translate(0.000000,40.000000) scale(0.100000,-0.100000)"
fill="#000000" stroke="none">
<path d="M0 350 l0 -50 100 0 100 0 0 -50 0 -50 -100 0 -100 0 0 -50 0 -50 99
0 100 0 4 -53 3 -52 2 52 2 52 98 4 c53 1 8 4 -100 5 l-198 2 0 40 0 40 198 2
c108 1 153 4 100 5 l-98 4 0 49 0 49 98 4 c53 1 8 4 -100 5 l-198 2 0 40 0 40
198 3 197 2 -202 3 -203 2 0 -50z"/>
</g>
</svg>
