<?xml version="1.0" standalone="no"?>
<!DOCTYPE svg PUBLIC "-//W3C//DTD SVG 20010904//EN"
 "http://www.w3.org/TR/2001/REC-SVG-20010904/DTD/svg10.dtd">
<svg version="1.0" xmlns="http://www.w3.org/2000/svg"
 width="64.000000pt" height="64.000000pt" viewBox="0 0 64.000000 64.000000"
 preserveAspectRatio="xMidYMid meet">

<g transform="translate(0.000000,64.000000) scale(0.100000,-0.100000)"
fill="#000000" stroke="none">
<path d="M300 612 c0 -5 7 -17 16 -28 15 -18 15 -18 5 3 -9 19 -8 22 12 26 19
4 18 4 -5 6 -16 0 -28 -3 -28 -7z"/>
<path d="M10 590 c-13 -8 -11 -13 10 -32 22 -21 23 -21 6 -1 -17 20 -17 22 1
32 10 6 14 10 8 11 -5 0 -17 -5 -25 -10z"/>
<path d="M137 563 c-4 -3 -7 -15 -7 -25 0 -19 25 -25 35 -8 4 6 -1 7 -11 3
-14 -5 -16 -2 -12 15 6 23 5 26 -5 15z"/>
<path d="M460 544 c0 -5 6 -19 14 -29 13 -18 14 -18 25 4 7 13 10 25 8 28 -3
2 -8 -6 -12 -18 l-7 -22 -14 24 c-7 13 -13 19 -14 13z"/>
<path d="M294 495 c20 -15 20 -15 0 -31 -18 -15 -18 -15 3 -4 34 16 35 26 5
39 -25 11 -26 10 -8 -4z"/>
<path d="M58 433 c7 -3 16 -2 19 1 4 3 -2 6 -13 5 -11 0 -14 -3 -6 -6z"/>
<path d="M93 433 c4 -3 -1 -16 -10 -27 -18 -21 -18 -21 5 -2 24 21 29 36 10
36 -6 0 -8 -3 -5 -7z"/>
<path d="M402 427 l-23 -13 28 -12 c22 -9 24 -9 11 0 -15 11 -15 13 0 25 22
16 14 16 -16 0z"/>
<path d="M531 424 c-1 -5 5 -18 12 -28 12 -17 14 -16 31 10 17 29 17 29 -2 7
l-19 -22 -11 22 c-6 12 -11 17 -11 11z"/>
<path d="M244 363 c5 -17 3 -23 -8 -23 -8 0 -17 -4 -20 -8 -3 -5 8 -6 24 -4
27 4 28 6 18 26 -16 31 -22 34 -14 9z"/>
<path d="M371 320 c0 -8 4 -23 8 -33 6 -16 9 -15 31 10 21 24 22 25 3 9 -22
-19 -23 -18 -32 5 -5 13 -10 17 -10 9z"/>
<path d="M103 300 c-4 -16 -9 -18 -27 -9 -20 10 -20 10 -2 -5 27 -22 33 -20
38 9 6 30 -2 34 -9 5z"/>
<path d="M531 281 c-23 -6 -23 -7 -5 -27 11 -11 15 -14 10 -7 -10 15 -10 15
19 31 22 12 13 14 -24 3z"/>
<path d="M270 229 c-12 -8 -10 -9 8 -4 21 6 23 4 17 -17 -5 -18 -4 -20 4 -8
14 20 14 40 -1 40 -7 0 -20 -5 -28 -11z"/>
<path d="M1 188 c-1 -32 7 -35 35 -12 18 15 18 15 -3 5 -19 -9 -22 -8 -26 12
-4 19 -4 18 -6 -5z"/>
<path d="M122 170 c-11 -19 -10 -20 20 -19 25 1 27 3 10 6 -19 4 -21 7 -11 19
6 8 7 14 3 14 -5 0 -15 -9 -22 -20z"/>
<path d="M444 158 l-19 -23 23 19 c22 19 23 19 38 0 14 -18 15 -18 4 4 -6 12
-14 22 -19 22 -4 0 -16 -10 -27 -22z"/>
<path d="M312 102 l-23 -18 27 -12 c14 -7 29 -11 31 -8 2 2 -5 7 -17 11 -20 6
-21 8 -4 26 21 24 16 24 -14 1z"/>
<path d="M8 73 c10 -4 10 -8 0 -21 -12 -15 -11 -16 5 -3 22 17 22 31 0 30 -12
0 -13 -2 -5 -6z"/>
<path d="M618 73 c7 -3 16 -2 19 1 4 3 -2 6 -13 5 -11 0 -14 -3 -6 -6z"/>
<path d="M178 53 c21 -15 21 -16 5 -30 -16 -13 -16 -13 4 -3 34 16 34 25 0 38
-31 11 -31 10 -9 -5z"/>
<path d="M430 39 c-12 -8 -9 -9 13 -5 29 7 34 -2 15 -24 -11 -12 -10 -12 5 -1
37 28 5 57 -33 30z"/>
</g>
</svg>
