<?xml version="1.0" standalone="no"?>
<!DOCTYPE svg PUBLIC "-//W3C//DTD SVG 20010904//EN"
 "http://www.w3.org/TR/2001/REC-SVG-20010904/DTD/svg10.dtd">
<svg version="1.0" xmlns="http://www.w3.org/2000/svg"
 width="50.000000pt" height="50.000000pt" viewBox="0 0 50.000000 50.000000"
 preserveAspectRatio="xMidYMid meet">

<g transform="translate(0.000000,50.000000) scale(0.100000,-0.100000)"
fill="#000000" stroke="none">
<path d="M1 498 c-2 -10 58 -138 64 -138 8 0 67 132 62 137 -3 2 -17 -26 -33
-63 l-28 -67 -32 69 c-18 38 -33 66 -33 62z"/>
<path d="M251 248 c-2 -10 58 -138 64 -138 8 0 67 132 62 137 -3 2 -17 -26
-33 -63 l-28 -67 -32 69 c-18 38 -33 66 -33 62z"/>
</g>
</svg>
