<?xml version="1.0" standalone="no"?>
<!DOCTYPE svg PUBLIC "-//W3C//DTD SVG 20010904//EN"
 "http://www.w3.org/TR/2001/REC-SVG-20010904/DTD/svg10.dtd">
<svg version="1.0" xmlns="http://www.w3.org/2000/svg"
 width="80.000000pt" height="80.000000pt" viewBox="0 0 80.000000 80.000000"
 preserveAspectRatio="xMidYMid meet">

<g transform="translate(0.000000,80.000000) scale(0.100000,-0.100000)"
fill="#000000" stroke="none">
<path d="M122 733 l-2 -73 -29 0 c-29 0 -30 2 -34 53 l-3 52 -2 -52 c-2 -48
-4 -52 -29 -56 -16 -2 17 -4 72 -4 55 0 86 2 68 4 l-32 4 -4 72 -3 72 -2 -72z"/>
<path d="M522 333 l-2 -73 -29 0 c-29 0 -30 2 -34 53 l-3 52 -2 -52 c-2 -48
-4 -52 -29 -56 -16 -2 17 -4 72 -4 55 0 86 2 68 4 l-32 4 -4 72 -3 72 -2 -72z"/>
</g>
</svg>
